<?xml version="1.0" encoding="utf-8" standalone="no"?>
<!DOCTYPE svg PUBLIC "-//W3C//DTD SVG 1.1//EN"
  "http://www.w3.org/Graphics/SVG/1.1/DTD/svg11.dtd">
<svg xmlns:xlink="http://www.w3.org/1999/xlink" width="720pt" height="432pt" viewBox="0 0 720 432" xmlns="http://www.w3.org/2000/svg" version="1.1">
 <metadata>
  <rdf:RDF xmlns:dc="http://purl.org/dc/elements/1.1/" xmlns:cc="http://creativecommons.org/ns#" xmlns:rdf="http://www.w3.org/1999/02/22-rdf-syntax-ns#">
   <cc:Work>
    <dc:type rdf:resource="http://purl.org/dc/dcmitype/StillImage"/>
    <dc:date>2025-09-30T20:43:08.389450</dc:date>
    <dc:format>image/svg+xml</dc:format>
    <dc:creator>
     <cc:Agent>
      <dc:title>Matplotlib v3.10.3, https://matplotlib.org/</dc:title>
     </cc:Agent>
    </dc:creator>
   </cc:Work>
  </rdf:RDF>
 </metadata>
 <defs>
  <style type="text/css">*{stroke-linejoin: round; stroke-linecap: butt}</style>
 </defs>
 <g id="figure_1">
  <g id="patch_1">
   <path d="M 0 432 
L 720 432 
L 720 0 
L 0 0 
z
" style="fill: #ffffff"/>
  </g>
  <g id="axes_1">
   <g id="patch_2">
    <path d="M 90 384.48 
L 648 384.48 
L 648 51.84 
L 90 51.84 
z
" style="fill: #ffffff"/>
   </g>
   <g id="matplotlib.axis_1">
    <g id="xtick_1">
     <g id="line2d_1">
      <defs>
       <path id="me71897f69e" d="M 0 0 
L 0 3.5 
" style="stroke: #000000; stroke-width: 0.8"/>
      </defs>
      <g>
       <use xlink:href="#me71897f69e" x="115.363636" y="384.48" style="stroke: #000000; stroke-width: 0.8"/>
      </g>
     </g>
     <g id="text_1">
      <!-- 0 -->
      <g transform="translate(112.182386 399.078438) scale(0.1 -0.1)">
       <defs>
        <path id="DejaVuSans-30" d="M 2034 4250 
Q 1547 4250 1301 3770 
Q 1056 3291 1056 2328 
Q 1056 1369 1301 889 
Q 1547 409 2034 409 
Q 2525 409 2770 889 
Q 3016 1369 3016 2328 
Q 3016 3291 2770 3770 
Q 2525 4250 2034 4250 
z
M 2034 4750 
Q 2819 4750 3233 4129 
Q 3647 3509 3647 2328 
Q 3647 1150 3233 529 
Q 2819 -91 2034 -91 
Q 1250 -91 836 529 
Q 422 1150 422 2328 
Q 422 3509 836 4129 
Q 1250 4750 2034 4750 
z
" transform="scale(0.015625)"/>
       </defs>
       <use xlink:href="#DejaVuSans-30"/>
      </g>
     </g>
    </g>
    <g id="xtick_2">
     <g id="line2d_2">
      <g>
       <use xlink:href="#me71897f69e" x="210.180969" y="384.48" style="stroke: #000000; stroke-width: 0.8"/>
      </g>
     </g>
     <g id="text_2">
      <!-- 100 -->
      <g transform="translate(200.637219 399.078438) scale(0.1 -0.1)">
       <defs>
        <path id="DejaVuSans-31" d="M 794 531 
L 1825 531 
L 1825 4091 
L 703 3866 
L 703 4441 
L 1819 4666 
L 2450 4666 
L 2450 531 
L 3481 531 
L 3481 0 
L 794 0 
L 794 531 
z
" transform="scale(0.015625)"/>
       </defs>
       <use xlink:href="#DejaVuSans-31"/>
       <use xlink:href="#DejaVuSans-30" transform="translate(63.623047 0)"/>
       <use xlink:href="#DejaVuSans-30" transform="translate(127.246094 0)"/>
      </g>
     </g>
    </g>
    <g id="xtick_3">
     <g id="line2d_3">
      <g>
       <use xlink:href="#me71897f69e" x="304.998301" y="384.48" style="stroke: #000000; stroke-width: 0.8"/>
      </g>
     </g>
     <g id="text_3">
      <!-- 200 -->
      <g transform="translate(295.454551 399.078438) scale(0.1 -0.1)">
       <defs>
        <path id="DejaVuSans-32" d="M 1228 531 
L 3431 531 
L 3431 0 
L 469 0 
L 469 531 
Q 828 903 1448 1529 
Q 2069 2156 2228 2338 
Q 2531 2678 2651 2914 
Q 2772 3150 2772 3378 
Q 2772 3750 2511 3984 
Q 2250 4219 1831 4219 
Q 1534 4219 1204 4116 
Q 875 4013 500 3803 
L 500 4441 
Q 881 4594 1212 4672 
Q 1544 4750 1819 4750 
Q 2544 4750 2975 4387 
Q 3406 4025 3406 3419 
Q 3406 3131 3298 2873 
Q 3191 2616 2906 2266 
Q 2828 2175 2409 1742 
Q 1991 1309 1228 531 
z
" transform="scale(0.015625)"/>
       </defs>
       <use xlink:href="#DejaVuSans-32"/>
       <use xlink:href="#DejaVuSans-30" transform="translate(63.623047 0)"/>
       <use xlink:href="#DejaVuSans-30" transform="translate(127.246094 0)"/>
      </g>
     </g>
    </g>
    <g id="xtick_4">
     <g id="line2d_4">
      <g>
       <use xlink:href="#me71897f69e" x="399.815633" y="384.48" style="stroke: #000000; stroke-width: 0.8"/>
      </g>
     </g>
     <g id="text_4">
      <!-- 300 -->
      <g transform="translate(390.271883 399.078438) scale(0.1 -0.1)">
       <defs>
        <path id="DejaVuSans-33" d="M 2597 2516 
Q 3050 2419 3304 2112 
Q 3559 1806 3559 1356 
Q 3559 666 3084 287 
Q 2609 -91 1734 -91 
Q 1441 -91 1130 -33 
Q 819 25 488 141 
L 488 750 
Q 750 597 1062 519 
Q 1375 441 1716 441 
Q 2309 441 2620 675 
Q 2931 909 2931 1356 
Q 2931 1769 2642 2001 
Q 2353 2234 1838 2234 
L 1294 2234 
L 1294 2753 
L 1863 2753 
Q 2328 2753 2575 2939 
Q 2822 3125 2822 3475 
Q 2822 3834 2567 4026 
Q 2313 4219 1838 4219 
Q 1578 4219 1281 4162 
Q 984 4106 628 3988 
L 628 4550 
Q 988 4650 1302 4700 
Q 1616 4750 1894 4750 
Q 2613 4750 3031 4423 
Q 3450 4097 3450 3541 
Q 3450 3153 3228 2886 
Q 3006 2619 2597 2516 
z
" transform="scale(0.015625)"/>
       </defs>
       <use xlink:href="#DejaVuSans-33"/>
       <use xlink:href="#DejaVuSans-30" transform="translate(63.623047 0)"/>
       <use xlink:href="#DejaVuSans-30" transform="translate(127.246094 0)"/>
      </g>
     </g>
    </g>
    <g id="xtick_5">
     <g id="line2d_5">
      <g>
       <use xlink:href="#me71897f69e" x="494.632965" y="384.48" style="stroke: #000000; stroke-width: 0.8"/>
      </g>
     </g>
     <g id="text_5">
      <!-- 400 -->
      <g transform="translate(485.089215 399.078438) scale(0.1 -0.1)">
       <defs>
        <path id="DejaVuSans-34" d="M 2419 4116 
L 825 1625 
L 2419 1625 
L 2419 4116 
z
M 2253 4666 
L 3047 4666 
L 3047 1625 
L 3713 1625 
L 3713 1100 
L 3047 1100 
L 3047 0 
L 2419 0 
L 2419 1100 
L 313 1100 
L 313 1709 
L 2253 4666 
z
" transform="scale(0.015625)"/>
       </defs>
       <use xlink:href="#DejaVuSans-34"/>
       <use xlink:href="#DejaVuSans-30" transform="translate(63.623047 0)"/>
       <use xlink:href="#DejaVuSans-30" transform="translate(127.246094 0)"/>
      </g>
     </g>
    </g>
    <g id="xtick_6">
     <g id="line2d_6">
      <g>
       <use xlink:href="#me71897f69e" x="589.450297" y="384.48" style="stroke: #000000; stroke-width: 0.8"/>
      </g>
     </g>
     <g id="text_6">
      <!-- 500 -->
      <g transform="translate(579.906547 399.078438) scale(0.1 -0.1)">
       <defs>
        <path id="DejaVuSans-35" d="M 691 4666 
L 3169 4666 
L 3169 4134 
L 1269 4134 
L 1269 2991 
Q 1406 3038 1543 3061 
Q 1681 3084 1819 3084 
Q 2600 3084 3056 2656 
Q 3513 2228 3513 1497 
Q 3513 744 3044 326 
Q 2575 -91 1722 -91 
Q 1428 -91 1123 -41 
Q 819 9 494 109 
L 494 744 
Q 775 591 1075 516 
Q 1375 441 1709 441 
Q 2250 441 2565 725 
Q 2881 1009 2881 1497 
Q 2881 1984 2565 2268 
Q 2250 2553 1709 2553 
Q 1456 2553 1204 2497 
Q 953 2441 691 2322 
L 691 4666 
z
" transform="scale(0.015625)"/>
       </defs>
       <use xlink:href="#DejaVuSans-35"/>
       <use xlink:href="#DejaVuSans-30" transform="translate(63.623047 0)"/>
       <use xlink:href="#DejaVuSans-30" transform="translate(127.246094 0)"/>
      </g>
     </g>
    </g>
    <g id="text_7">
     <!-- Index -->
     <g transform="translate(355.233594 412.756563) scale(0.1 -0.1)">
      <defs>
       <path id="DejaVuSans-49" d="M 628 4666 
L 1259 4666 
L 1259 0 
L 628 0 
L 628 4666 
z
" transform="scale(0.015625)"/>
       <path id="DejaVuSans-6e" d="M 3513 2113 
L 3513 0 
L 2938 0 
L 2938 2094 
Q 2938 2591 2744 2837 
Q 2550 3084 2163 3084 
Q 1697 3084 1428 2787 
Q 1159 2491 1159 1978 
L 1159 0 
L 581 0 
L 581 3500 
L 1159 3500 
L 1159 2956 
Q 1366 3272 1645 3428 
Q 1925 3584 2291 3584 
Q 2894 3584 3203 3211 
Q 3513 2838 3513 2113 
z
" transform="scale(0.015625)"/>
       <path id="DejaVuSans-64" d="M 2906 2969 
L 2906 4863 
L 3481 4863 
L 3481 0 
L 2906 0 
L 2906 525 
Q 2725 213 2448 61 
Q 2172 -91 1784 -91 
Q 1150 -91 751 415 
Q 353 922 353 1747 
Q 353 2572 751 3078 
Q 1150 3584 1784 3584 
Q 2172 3584 2448 3432 
Q 2725 3281 2906 2969 
z
M 947 1747 
Q 947 1113 1208 752 
Q 1469 391 1925 391 
Q 2381 391 2643 752 
Q 2906 1113 2906 1747 
Q 2906 2381 2643 2742 
Q 2381 3103 1925 3103 
Q 1469 3103 1208 2742 
Q 947 2381 947 1747 
z
" transform="scale(0.015625)"/>
       <path id="DejaVuSans-65" d="M 3597 1894 
L 3597 1613 
L 953 1613 
Q 991 1019 1311 708 
Q 1631 397 2203 397 
Q 2534 397 2845 478 
Q 3156 559 3463 722 
L 3463 178 
Q 3153 47 2828 -22 
Q 2503 -91 2169 -91 
Q 1331 -91 842 396 
Q 353 884 353 1716 
Q 353 2575 817 3079 
Q 1281 3584 2069 3584 
Q 2775 3584 3186 3129 
Q 3597 2675 3597 1894 
z
M 3022 2063 
Q 3016 2534 2758 2815 
Q 2500 3097 2075 3097 
Q 1594 3097 1305 2825 
Q 1016 2553 972 2059 
L 3022 2063 
z
" transform="scale(0.015625)"/>
       <path id="DejaVuSans-78" d="M 3513 3500 
L 2247 1797 
L 3578 0 
L 2900 0 
L 1881 1375 
L 863 0 
L 184 0 
L 1544 1831 
L 300 3500 
L 978 3500 
L 1906 2253 
L 2834 3500 
L 3513 3500 
z
" transform="scale(0.015625)"/>
      </defs>
      <use xlink:href="#DejaVuSans-49"/>
      <use xlink:href="#DejaVuSans-6e" transform="translate(29.492188 0)"/>
      <use xlink:href="#DejaVuSans-64" transform="translate(92.871094 0)"/>
      <use xlink:href="#DejaVuSans-65" transform="translate(156.347656 0)"/>
      <use xlink:href="#DejaVuSans-78" transform="translate(216.121094 0)"/>
     </g>
    </g>
   </g>
   <g id="matplotlib.axis_2">
    <g id="ytick_1">
     <g id="line2d_7">
      <defs>
       <path id="m442984590d" d="M 0 0 
L -3.5 0 
" style="stroke: #000000; stroke-width: 0.8"/>
      </defs>
      <g>
       <use xlink:href="#m442984590d" x="90" y="384.48" style="stroke: #000000; stroke-width: 0.8"/>
      </g>
     </g>
     <g id="text_8">
      <!-- 0 -->
      <g transform="translate(76.6375 388.279219) scale(0.1 -0.1)">
       <use xlink:href="#DejaVuSans-30"/>
      </g>
     </g>
    </g>
    <g id="ytick_2">
     <g id="line2d_8">
      <g>
       <use xlink:href="#m442984590d" x="90" y="345.326232" style="stroke: #000000; stroke-width: 0.8"/>
      </g>
     </g>
     <g id="text_9">
      <!-- 5 -->
      <g transform="translate(76.6375 349.125451) scale(0.1 -0.1)">
       <use xlink:href="#DejaVuSans-35"/>
      </g>
     </g>
    </g>
    <g id="ytick_3">
     <g id="line2d_9">
      <g>
       <use xlink:href="#m442984590d" x="90" y="306.172465" style="stroke: #000000; stroke-width: 0.8"/>
      </g>
     </g>
     <g id="text_10">
      <!-- 10 -->
      <g transform="translate(70.275 309.971684) scale(0.1 -0.1)">
       <use xlink:href="#DejaVuSans-31"/>
       <use xlink:href="#DejaVuSans-30" transform="translate(63.623047 0)"/>
      </g>
     </g>
    </g>
    <g id="ytick_4">
     <g id="line2d_10">
      <g>
       <use xlink:href="#m442984590d" x="90" y="267.018697" style="stroke: #000000; stroke-width: 0.8"/>
      </g>
     </g>
     <g id="text_11">
      <!-- 15 -->
      <g transform="translate(70.275 270.817916) scale(0.1 -0.1)">
       <use xlink:href="#DejaVuSans-31"/>
       <use xlink:href="#DejaVuSans-35" transform="translate(63.623047 0)"/>
      </g>
     </g>
    </g>
    <g id="ytick_5">
     <g id="line2d_11">
      <g>
       <use xlink:href="#m442984590d" x="90" y="227.86493" style="stroke: #000000; stroke-width: 0.8"/>
      </g>
     </g>
     <g id="text_12">
      <!-- 20 -->
      <g transform="translate(70.275 231.664149) scale(0.1 -0.1)">
       <use xlink:href="#DejaVuSans-32"/>
       <use xlink:href="#DejaVuSans-30" transform="translate(63.623047 0)"/>
      </g>
     </g>
    </g>
    <g id="ytick_6">
     <g id="line2d_12">
      <g>
       <use xlink:href="#m442984590d" x="90" y="188.711162" style="stroke: #000000; stroke-width: 0.8"/>
      </g>
     </g>
     <g id="text_13">
      <!-- 25 -->
      <g transform="translate(70.275 192.510381) scale(0.1 -0.1)">
       <use xlink:href="#DejaVuSans-32"/>
       <use xlink:href="#DejaVuSans-35" transform="translate(63.623047 0)"/>
      </g>
     </g>
    </g>
    <g id="ytick_7">
     <g id="line2d_13">
      <g>
       <use xlink:href="#m442984590d" x="90" y="149.557395" style="stroke: #000000; stroke-width: 0.8"/>
      </g>
     </g>
     <g id="text_14">
      <!-- 30 -->
      <g transform="translate(70.275 153.356613) scale(0.1 -0.1)">
       <use xlink:href="#DejaVuSans-33"/>
       <use xlink:href="#DejaVuSans-30" transform="translate(63.623047 0)"/>
      </g>
     </g>
    </g>
    <g id="ytick_8">
     <g id="line2d_14">
      <g>
       <use xlink:href="#m442984590d" x="90" y="110.403627" style="stroke: #000000; stroke-width: 0.8"/>
      </g>
     </g>
     <g id="text_15">
      <!-- 35 -->
      <g transform="translate(70.275 114.202846) scale(0.1 -0.1)">
       <use xlink:href="#DejaVuSans-33"/>
       <use xlink:href="#DejaVuSans-35" transform="translate(63.623047 0)"/>
      </g>
     </g>
    </g>
    <g id="ytick_9">
     <g id="line2d_15">
      <g>
       <use xlink:href="#m442984590d" x="90" y="71.24986" style="stroke: #000000; stroke-width: 0.8"/>
      </g>
     </g>
     <g id="text_16">
      <!-- 40 -->
      <g transform="translate(70.275 75.049078) scale(0.1 -0.1)">
       <use xlink:href="#DejaVuSans-34"/>
       <use xlink:href="#DejaVuSans-30" transform="translate(63.623047 0)"/>
      </g>
     </g>
    </g>
    <g id="text_17">
     <!-- Average time (ms) -->
     <g transform="translate(64.195312 264.543594) rotate(-90) scale(0.1 -0.1)">
      <defs>
       <path id="DejaVuSans-41" d="M 2188 4044 
L 1331 1722 
L 3047 1722 
L 2188 4044 
z
M 1831 4666 
L 2547 4666 
L 4325 0 
L 3669 0 
L 3244 1197 
L 1141 1197 
L 716 0 
L 50 0 
L 1831 4666 
z
" transform="scale(0.015625)"/>
       <path id="DejaVuSans-76" d="M 191 3500 
L 800 3500 
L 1894 563 
L 2988 3500 
L 3597 3500 
L 2284 0 
L 1503 0 
L 191 3500 
z
" transform="scale(0.015625)"/>
       <path id="DejaVuSans-72" d="M 2631 2963 
Q 2534 3019 2420 3045 
Q 2306 3072 2169 3072 
Q 1681 3072 1420 2755 
Q 1159 2438 1159 1844 
L 1159 0 
L 581 0 
L 581 3500 
L 1159 3500 
L 1159 2956 
Q 1341 3275 1631 3429 
Q 1922 3584 2338 3584 
Q 2397 3584 2469 3576 
Q 2541 3569 2628 3553 
L 2631 2963 
z
" transform="scale(0.015625)"/>
       <path id="DejaVuSans-61" d="M 2194 1759 
Q 1497 1759 1228 1600 
Q 959 1441 959 1056 
Q 959 750 1161 570 
Q 1363 391 1709 391 
Q 2188 391 2477 730 
Q 2766 1069 2766 1631 
L 2766 1759 
L 2194 1759 
z
M 3341 1997 
L 3341 0 
L 2766 0 
L 2766 531 
Q 2569 213 2275 61 
Q 1981 -91 1556 -91 
Q 1019 -91 701 211 
Q 384 513 384 1019 
Q 384 1609 779 1909 
Q 1175 2209 1959 2209 
L 2766 2209 
L 2766 2266 
Q 2766 2663 2505 2880 
Q 2244 3097 1772 3097 
Q 1472 3097 1187 3025 
Q 903 2953 641 2809 
L 641 3341 
Q 956 3463 1253 3523 
Q 1550 3584 1831 3584 
Q 2591 3584 2966 3190 
Q 3341 2797 3341 1997 
z
" transform="scale(0.015625)"/>
       <path id="DejaVuSans-67" d="M 2906 1791 
Q 2906 2416 2648 2759 
Q 2391 3103 1925 3103 
Q 1463 3103 1205 2759 
Q 947 2416 947 1791 
Q 947 1169 1205 825 
Q 1463 481 1925 481 
Q 2391 481 2648 825 
Q 2906 1169 2906 1791 
z
M 3481 434 
Q 3481 -459 3084 -895 
Q 2688 -1331 1869 -1331 
Q 1566 -1331 1297 -1286 
Q 1028 -1241 775 -1147 
L 775 -588 
Q 1028 -725 1275 -790 
Q 1522 -856 1778 -856 
Q 2344 -856 2625 -561 
Q 2906 -266 2906 331 
L 2906 616 
Q 2728 306 2450 153 
Q 2172 0 1784 0 
Q 1141 0 747 490 
Q 353 981 353 1791 
Q 353 2603 747 3093 
Q 1141 3584 1784 3584 
Q 2172 3584 2450 3431 
Q 2728 3278 2906 2969 
L 2906 3500 
L 3481 3500 
L 3481 434 
z
" transform="scale(0.015625)"/>
       <path id="DejaVuSans-20" transform="scale(0.015625)"/>
       <path id="DejaVuSans-74" d="M 1172 4494 
L 1172 3500 
L 2356 3500 
L 2356 3053 
L 1172 3053 
L 1172 1153 
Q 1172 725 1289 603 
Q 1406 481 1766 481 
L 2356 481 
L 2356 0 
L 1766 0 
Q 1100 0 847 248 
Q 594 497 594 1153 
L 594 3053 
L 172 3053 
L 172 3500 
L 594 3500 
L 594 4494 
L 1172 4494 
z
" transform="scale(0.015625)"/>
       <path id="DejaVuSans-69" d="M 603 3500 
L 1178 3500 
L 1178 0 
L 603 0 
L 603 3500 
z
M 603 4863 
L 1178 4863 
L 1178 4134 
L 603 4134 
L 603 4863 
z
" transform="scale(0.015625)"/>
       <path id="DejaVuSans-6d" d="M 3328 2828 
Q 3544 3216 3844 3400 
Q 4144 3584 4550 3584 
Q 5097 3584 5394 3201 
Q 5691 2819 5691 2113 
L 5691 0 
L 5113 0 
L 5113 2094 
Q 5113 2597 4934 2840 
Q 4756 3084 4391 3084 
Q 3944 3084 3684 2787 
Q 3425 2491 3425 1978 
L 3425 0 
L 2847 0 
L 2847 2094 
Q 2847 2600 2669 2842 
Q 2491 3084 2119 3084 
Q 1678 3084 1418 2786 
Q 1159 2488 1159 1978 
L 1159 0 
L 581 0 
L 581 3500 
L 1159 3500 
L 1159 2956 
Q 1356 3278 1631 3431 
Q 1906 3584 2284 3584 
Q 2666 3584 2933 3390 
Q 3200 3197 3328 2828 
z
" transform="scale(0.015625)"/>
       <path id="DejaVuSans-28" d="M 1984 4856 
Q 1566 4138 1362 3434 
Q 1159 2731 1159 2009 
Q 1159 1288 1364 580 
Q 1569 -128 1984 -844 
L 1484 -844 
Q 1016 -109 783 600 
Q 550 1309 550 2009 
Q 550 2706 781 3412 
Q 1013 4119 1484 4856 
L 1984 4856 
z
" transform="scale(0.015625)"/>
       <path id="DejaVuSans-73" d="M 2834 3397 
L 2834 2853 
Q 2591 2978 2328 3040 
Q 2066 3103 1784 3103 
Q 1356 3103 1142 2972 
Q 928 2841 928 2578 
Q 928 2378 1081 2264 
Q 1234 2150 1697 2047 
L 1894 2003 
Q 2506 1872 2764 1633 
Q 3022 1394 3022 966 
Q 3022 478 2636 193 
Q 2250 -91 1575 -91 
Q 1294 -91 989 -36 
Q 684 19 347 128 
L 347 722 
Q 666 556 975 473 
Q 1284 391 1588 391 
Q 1994 391 2212 530 
Q 2431 669 2431 922 
Q 2431 1156 2273 1281 
Q 2116 1406 1581 1522 
L 1381 1569 
Q 847 1681 609 1914 
Q 372 2147 372 2553 
Q 372 3047 722 3315 
Q 1072 3584 1716 3584 
Q 2034 3584 2315 3537 
Q 2597 3491 2834 3397 
z
" transform="scale(0.015625)"/>
       <path id="DejaVuSans-29" d="M 513 4856 
L 1013 4856 
Q 1481 4119 1714 3412 
Q 1947 2706 1947 2009 
Q 1947 1309 1714 600 
Q 1481 -109 1013 -844 
L 513 -844 
Q 928 -128 1133 580 
Q 1338 1288 1338 2009 
Q 1338 2731 1133 3434 
Q 928 4138 513 4856 
z
" transform="scale(0.015625)"/>
      </defs>
      <use xlink:href="#DejaVuSans-41"/>
      <use xlink:href="#DejaVuSans-76" transform="translate(62.533203 0)"/>
      <use xlink:href="#DejaVuSans-65" transform="translate(121.712891 0)"/>
      <use xlink:href="#DejaVuSans-72" transform="translate(183.236328 0)"/>
      <use xlink:href="#DejaVuSans-61" transform="translate(224.349609 0)"/>
      <use xlink:href="#DejaVuSans-67" transform="translate(285.628906 0)"/>
      <use xlink:href="#DejaVuSans-65" transform="translate(349.105469 0)"/>
      <use xlink:href="#DejaVuSans-20" transform="translate(410.628906 0)"/>
      <use xlink:href="#DejaVuSans-74" transform="translate(442.416016 0)"/>
      <use xlink:href="#DejaVuSans-69" transform="translate(481.625 0)"/>
      <use xlink:href="#DejaVuSans-6d" transform="translate(509.408203 0)"/>
      <use xlink:href="#DejaVuSans-65" transform="translate(606.820312 0)"/>
      <use xlink:href="#DejaVuSans-20" transform="translate(668.34375 0)"/>
      <use xlink:href="#DejaVuSans-28" transform="translate(700.130859 0)"/>
      <use xlink:href="#DejaVuSans-6d" transform="translate(739.144531 0)"/>
      <use xlink:href="#DejaVuSans-73" transform="translate(836.556641 0)"/>
      <use xlink:href="#DejaVuSans-29" transform="translate(888.65625 0)"/>
     </g>
    </g>
   </g>
   <g id="line2d_16">
    <path d="M 115.363636 66.725347 
L 116.31181 223.489916 
L 117.259983 342.916165 
L 118.208156 349.410851 
L 119.15633 339.245958 
L 120.104503 349.651779 
L 121.052676 346.178479 
L 122.00085 347.813109 
L 122.949023 340.900576 
L 123.897196 348.687016 
L 124.84537 347.741328 
L 125.793543 350.034111 
L 126.741716 349.410047 
L 127.68989 339.305041 
L 128.638063 343.390953 
L 129.586236 348.832957 
L 130.53441 338.749863 
L 131.482583 345.785684 
L 132.430756 348.105967 
L 133.378929 340.577484 
L 134.327103 338.316825 
L 135.275276 344.819044 
L 136.223449 333.220502 
L 137.171623 337.647833 
L 138.119796 338.498349 
L 139.067969 334.639138 
L 140.016143 337.584176 
L 140.964316 345.667385 
L 141.912489 347.408658 
L 142.860663 336.884867 
L 143.808836 339.725537 
L 144.757009 310.059593 
L 145.705183 297.673415 
L 146.653356 258.455256 
L 147.601529 262.89346 
L 148.549703 237.584699 
L 149.497876 263.359499 
L 150.446049 249.854347 
L 151.394223 262.622522 
L 152.342396 235.145885 
L 153.290569 247.678659 
L 154.238743 276.876333 
L 155.186916 247.506726 
L 156.135089 262.556577 
L 157.083263 262.51249 
L 158.031436 254.145978 
L 158.979609 267.860735 
L 159.927782 274.202111 
L 160.875956 284.381527 
L 161.824129 281.29304 
L 162.772302 272.720263 
L 163.720476 253.059843 
L 164.668649 246.153698 
L 165.616822 251.971117 
L 166.564996 298.142313 
L 167.513169 265.529389 
L 168.461342 255.680257 
L 169.409516 224.972343 
L 170.357689 275.798752 
L 171.305862 268.991887 
L 172.254036 244.917194 
L 173.202209 279.31929 
L 174.150382 276.833507 
L 175.098556 279.086001 
L 176.046729 212.414279 
L 176.994902 262.974576 
L 177.943076 278.901167 
L 178.891249 281.329005 
L 179.839422 270.47476 
L 180.787596 249.334058 
L 181.735769 267.61682 
L 182.683942 270.552365 
L 183.632116 254.082748 
L 184.580289 254.888187 
L 185.528462 259.170988 
L 186.476636 264.772433 
L 187.424809 254.753933 
L 188.372982 295.439984 
L 189.321155 292.180599 
L 190.269329 292.512129 
L 191.217502 284.471567 
L 192.165675 300.712394 
L 193.113849 302.846476 
L 194.062022 301.951199 
L 195.010195 312.758566 
L 195.958369 307.19153 
L 196.906542 306.24635 
L 197.854715 330.189808 
L 198.802889 329.289889 
L 199.751062 333.667668 
L 200.699235 337.146993 
L 201.647409 332.552256 
L 202.595582 338.62635 
L 203.543755 335.82459 
L 204.491929 329.418267 
L 205.440102 340.26497 
L 206.388275 322.848585 
L 207.336449 330.581363 
L 208.284622 333.044061 
L 209.232795 341.025138 
L 210.180969 331.852835 
L 211.129142 337.610563 
L 212.077315 341.609108 
L 213.025489 348.956553 
L 213.973662 326.528206 
L 214.921835 338.980288 
L 215.870008 334.902388 
L 216.818182 325.533168 
L 217.766355 331.495497 
L 218.714528 341.580284 
L 219.662702 336.408815 
L 220.610875 337.773917 
L 221.559048 342.385413 
L 222.507222 337.408854 
L 223.455395 344.029392 
L 224.403568 341.084867 
L 225.351742 351.649288 
L 226.299915 348.685459 
L 227.248088 339.153744 
L 228.196262 341.200428 
L 229.144435 350.429659 
L 230.092608 347.72126 
L 231.040782 348.86842 
L 231.988955 353.359941 
L 232.937128 353.411258 
L 233.885302 355.178597 
L 234.833475 353.678423 
L 235.781648 354.873652 
L 237.677995 352.657625 
L 238.626168 357.07567 
L 239.574342 357.605643 
L 240.522515 357.340855 
L 241.470688 354.684136 
L 242.418862 358.099037 
L 243.367035 360.6735 
L 244.315208 356.657248 
L 245.263381 355.825084 
L 246.211555 357.144386 
L 247.159728 357.940341 
L 248.107901 355.856764 
L 249.056075 361.674665 
L 250.004248 357.548112 
L 250.952421 359.629787 
L 251.900595 359.57724 
L 252.848768 358.432885 
L 253.796941 359.213308 
L 254.745115 359.203827 
L 255.693288 354.622592 
L 256.641461 350.903568 
L 257.589635 356.882232 
L 258.537808 355.169917 
L 259.485981 354.31312 
L 260.434155 358.616442 
L 261.382328 359.1868 
L 262.330501 358.79844 
L 263.278675 359.743899 
L 264.226848 358.781437 
L 265.175021 358.88728 
L 266.123195 359.381137 
L 268.019541 358.226179 
L 268.967715 355.614124 
L 269.915888 356.768727 
L 270.864061 356.567625 
L 271.812234 356.819795 
L 272.760408 358.505677 
L 273.708581 356.655944 
L 274.656754 359.713173 
L 275.604928 357.401969 
L 276.553101 356.098518 
L 277.501274 357.187213 
L 278.449448 360.485483 
L 280.345794 356.315284 
L 281.293968 359.345019 
L 282.242141 359.191973 
L 283.190314 358.547688 
L 284.138488 359.293918 
L 285.086661 355.295847 
L 286.034834 358.822058 
L 286.983008 361.085831 
L 287.931181 359.151787 
L 288.879354 360.574759 
L 289.827528 358.538695 
L 290.775701 358.69072 
L 291.723874 359.974245 
L 293.620221 361.879276 
L 294.568394 361.135803 
L 295.516568 355.959405 
L 297.412914 356.887417 
L 299.309261 359.457924 
L 300.257434 359.500924 
L 301.205607 358.739297 
L 302.153781 359.405152 
L 303.101954 359.216734 
L 304.050127 356.697638 
L 304.998301 359.542709 
L 305.946474 356.940527 
L 306.894647 358.62247 
L 307.842821 358.836626 
L 308.790994 360.18932 
L 309.739167 358.79877 
L 310.687341 358.535694 
L 311.635514 357.508055 
L 312.583687 355.388484 
L 313.531861 355.215432 
L 314.480034 361.214414 
L 315.428207 360.088123 
L 316.376381 359.304407 
L 317.324554 360.045383 
L 318.272727 359.607078 
L 319.220901 362.724166 
L 320.169074 360.858794 
L 321.117247 359.318796 
L 322.065421 362.031986 
L 323.013594 360.449565 
L 323.961767 360.563486 
L 324.909941 362.141578 
L 325.858114 362.465631 
L 326.806287 361.102841 
L 327.75446 357.285866 
L 328.702634 358.279505 
L 329.650807 361.008316 
L 330.59898 357.982989 
L 331.547154 362.003299 
L 332.495327 361.28693 
L 333.4435 357.630791 
L 334.391674 362.118619 
L 335.339847 362.490037 
L 336.28802 358.753315 
L 337.236194 359.681134 
L 338.184367 360.907525 
L 339.13254 361.68217 
L 340.080714 361.644766 
L 341.028887 360.403503 
L 341.97706 359.747116 
L 342.925234 359.918906 
L 343.873407 360.888056 
L 344.82158 362.546221 
L 345.769754 361.819968 
L 346.717927 360.622999 
L 347.6661 361.909559 
L 348.614274 360.466688 
L 349.562447 360.001616 
L 350.51062 361.718696 
L 351.458794 360.784818 
L 352.406967 359.444321 
L 353.35514 354.196068 
L 354.303314 357.575947 
L 355.251487 357.382119 
L 356.19966 359.675067 
L 357.147833 354.727267 
L 358.096007 354.654738 
L 359.04418 355.665705 
L 359.992353 352.628008 
L 360.940527 355.518874 
L 361.8887 360.171304 
L 362.836873 360.885258 
L 363.785047 358.796183 
L 364.73322 362.336653 
L 365.681393 355.434781 
L 366.629567 361.733714 
L 367.57774 362.844308 
L 368.525913 357.743991 
L 369.474087 359.911272 
L 370.42226 357.87914 
L 371.370433 355.289949 
L 372.318607 356.942834 
L 373.26678 359.462603 
L 374.214953 358.951408 
L 375.163127 360.386686 
L 376.1113 359.03037 
L 377.059473 358.250448 
L 378.007647 359.908962 
L 378.95582 359.706966 
L 379.903993 359.203527 
L 380.852167 359.013423 
L 381.80034 361.062614 
L 382.748513 356.599479 
L 383.696686 362.045508 
L 384.64486 360.16021 
L 385.593033 354.057991 
L 386.541206 353.270593 
L 387.48938 360.500223 
L 388.437553 357.278208 
L 389.385726 363.099039 
L 390.3339 360.220525 
L 391.282073 361.000851 
L 392.230246 357.241819 
L 393.17842 361.796661 
L 395.074766 359.332367 
L 396.02294 361.177036 
L 396.971113 360.065241 
L 398.86746 354.50989 
L 399.815633 358.051788 
L 400.763806 359.92835 
L 401.71198 358.106629 
L 402.660153 361.241965 
L 403.608326 360.670823 
L 404.5565 362.890034 
L 405.504673 362.637804 
L 406.452846 362.141184 
L 407.40102 363.125365 
L 408.349193 360.897164 
L 409.297366 357.459694 
L 410.24554 357.710898 
L 411.193713 360.328206 
L 412.141886 358.493126 
L 413.090059 359.980755 
L 414.038233 360.024021 
L 414.986406 359.113788 
L 415.934579 361.132373 
L 416.882753 360.884672 
L 417.830926 358.552925 
L 418.779099 353.458457 
L 419.727273 360.140721 
L 420.675446 361.430581 
L 421.623619 360.45946 
L 422.571793 363.402176 
L 423.519966 361.999265 
L 424.468139 362.547691 
L 425.416313 361.963473 
L 426.364486 360.241082 
L 427.312659 359.525288 
L 428.260833 363.739339 
L 429.209006 360.293467 
L 430.157179 360.957929 
L 431.105353 360.145229 
L 432.053526 360.000676 
L 433.001699 360.83944 
L 433.949873 357.939756 
L 434.898046 362.427294 
L 435.846219 363.287053 
L 436.794393 362.288128 
L 437.742566 363.231203 
L 438.690739 358.441622 
L 439.638912 356.149573 
L 440.587086 362.463645 
L 441.535259 361.13413 
L 442.483432 362.863691 
L 443.431606 356.842404 
L 444.379779 360.227196 
L 445.327952 361.124197 
L 446.276126 361.186815 
L 447.224299 362.575812 
L 448.172472 360.30527 
L 449.120646 362.438971 
L 450.068819 362.2219 
L 451.016992 360.589999 
L 452.913339 359.14037 
L 453.861512 362.55952 
L 454.809686 361.190567 
L 455.757859 361.900721 
L 456.706032 362.388535 
L 457.654206 359.884073 
L 458.602379 363.038206 
L 459.550552 362.526248 
L 460.498726 361.333649 
L 461.446899 362.956704 
L 462.395072 361.628305 
L 464.291419 360.380429 
L 465.239592 360.764124 
L 466.187766 362.30416 
L 467.135939 359.644656 
L 468.084112 360.325764 
L 469.032285 357.881193 
L 469.980459 360.4788 
L 470.928632 362.122871 
L 472.824979 361.257577 
L 473.773152 363.258793 
L 474.721325 360.735172 
L 475.669499 359.401753 
L 476.617672 359.134762 
L 477.565845 360.887658 
L 478.514019 358.526104 
L 479.462192 359.747674 
L 480.410365 360.616951 
L 481.358539 361.740498 
L 482.306712 359.650637 
L 483.254885 362.95471 
L 484.203059 363.040929 
L 485.151232 361.408564 
L 486.099405 361.720779 
L 487.047579 360.191967 
L 487.995752 361.370511 
L 488.943925 361.052795 
L 489.892099 361.32447 
L 490.840272 360.123808 
L 491.788445 362.150817 
L 492.736619 362.730543 
L 493.684792 360.529677 
L 494.632965 361.704492 
L 495.581138 363.952825 
L 496.529312 360.781976 
L 498.425658 363.492365 
L 499.373832 362.223025 
L 501.270178 362.968995 
L 502.218352 360.686111 
L 503.166525 354.974599 
L 504.114698 361.051907 
L 505.062872 360.359395 
L 506.011045 361.510581 
L 506.959218 363.406947 
L 507.907392 361.08243 
L 508.855565 361.896199 
L 509.803738 362.95646 
L 510.751912 361.82716 
L 511.700085 359.242828 
L 512.648258 359.990477 
L 513.596432 361.302562 
L 514.544605 362.281205 
L 515.492778 360.275602 
L 516.440952 363.39554 
L 517.389125 360.238182 
L 518.337298 361.473369 
L 519.285472 362.216805 
L 520.233645 361.817076 
L 521.181818 360.318131 
L 522.129992 362.143301 
L 524.026338 359.101446 
L 524.974511 362.432487 
L 525.922685 362.413292 
L 526.870858 359.098547 
L 527.819031 360.737332 
L 528.767205 361.20535 
L 529.715378 359.305605 
L 530.663551 357.680209 
L 531.611725 360.568635 
L 532.559898 360.594929 
L 533.508071 361.552286 
L 534.456245 363.30208 
L 535.404418 362.745466 
L 536.352591 353.369231 
L 537.300765 362.468511 
L 538.248938 358.7342 
L 539.197111 359.7259 
L 540.145285 360.198039 
L 541.093458 363.920817 
L 542.041631 363.269604 
L 542.989805 362.867158 
L 543.937978 361.476317 
L 544.886151 357.951485 
L 545.834325 361.641998 
L 546.782498 359.28793 
L 547.730671 362.501314 
L 548.678845 360.504541 
L 549.627018 363.518471 
L 550.575191 362.623136 
L 551.523364 362.020443 
L 552.471538 362.425723 
L 553.419711 362.454973 
L 554.367884 361.53014 
L 555.316058 362.636594 
L 556.264231 362.498819 
L 558.160578 362.841283 
L 559.108751 364.022427 
L 560.056924 363.527702 
L 561.005098 363.399025 
L 561.953271 364.173144 
L 562.901444 361.054806 
L 563.849618 363.327529 
L 564.797791 361.600016 
L 565.745964 362.055544 
L 566.694138 359.906875 
L 567.642311 363.41264 
L 568.590484 362.666406 
L 569.538658 361.743716 
L 570.486831 363.021098 
L 571.435004 362.569158 
L 572.383178 363.142492 
L 573.331351 362.411816 
L 574.279524 360.140576 
L 575.227698 361.948489 
L 578.072218 361.509401 
L 579.020391 363.029081 
L 579.968564 362.59812 
L 580.916737 362.608823 
L 581.864911 361.438207 
L 582.813084 360.043336 
L 583.761257 363.681559 
L 584.709431 361.107032 
L 585.657604 361.708469 
L 586.605777 361.397118 
L 588.502124 362.549358 
L 589.450297 361.01074 
L 590.398471 361.787811 
L 591.346644 360.977524 
L 592.294817 361.650983 
L 593.242991 355.497152 
L 594.191164 362.794945 
L 595.139337 361.322209 
L 596.087511 362.46927 
L 597.035684 352.063154 
L 597.983857 360.710308 
L 598.932031 362.132699 
L 599.880204 357.46961 
L 600.828377 360.552486 
L 601.776551 361.531209 
L 602.724724 363.739734 
L 603.672897 363.401849 
L 604.621071 362.197989 
L 605.569244 363.376779 
L 606.517417 364.159197 
L 607.46559 362.033112 
L 608.413764 362.512451 
L 609.361937 363.264533 
L 610.31011 363.688852 
L 611.258284 363.925454 
L 612.206457 361.061248 
L 613.15463 361.312287 
L 614.102804 361.284678 
L 615.050977 361.419546 
L 615.99915 363.23394 
L 616.947324 364.432277 
L 618.84367 360.840163 
L 619.791844 361.371223 
L 620.740017 363.910094 
L 621.68819 362.893411 
L 622.636364 361.625259 
L 622.636364 361.625259 
" clip-path="url(#pc9cdfc71b2)" style="fill: none; stroke: #1f77b4; stroke-width: 1.5; stroke-linecap: square"/>
   </g>
   <g id="patch_3">
    <path d="M 90 384.48 
L 90 51.84 
" style="fill: none; stroke: #000000; stroke-width: 0.8; stroke-linejoin: miter; stroke-linecap: square"/>
   </g>
   <g id="patch_4">
    <path d="M 648 384.48 
L 648 51.84 
" style="fill: none; stroke: #000000; stroke-width: 0.8; stroke-linejoin: miter; stroke-linecap: square"/>
   </g>
   <g id="patch_5">
    <path d="M 90 384.48 
L 648 384.48 
" style="fill: none; stroke: #000000; stroke-width: 0.8; stroke-linejoin: miter; stroke-linecap: square"/>
   </g>
   <g id="patch_6">
    <path d="M 90 51.84 
L 648 51.84 
" style="fill: none; stroke: #000000; stroke-width: 0.8; stroke-linejoin: miter; stroke-linecap: square"/>
   </g>
   <g id="text_18">
    <!-- Average time per index -->
    <g transform="translate(298.700625 45.84) scale(0.12 -0.12)">
     <defs>
      <path id="DejaVuSans-70" d="M 1159 525 
L 1159 -1331 
L 581 -1331 
L 581 3500 
L 1159 3500 
L 1159 2969 
Q 1341 3281 1617 3432 
Q 1894 3584 2278 3584 
Q 2916 3584 3314 3078 
Q 3713 2572 3713 1747 
Q 3713 922 3314 415 
Q 2916 -91 2278 -91 
Q 1894 -91 1617 61 
Q 1341 213 1159 525 
z
M 3116 1747 
Q 3116 2381 2855 2742 
Q 2594 3103 2138 3103 
Q 1681 3103 1420 2742 
Q 1159 2381 1159 1747 
Q 1159 1113 1420 752 
Q 1681 391 2138 391 
Q 2594 391 2855 752 
Q 3116 1113 3116 1747 
z
" transform="scale(0.015625)"/>
     </defs>
     <use xlink:href="#DejaVuSans-41"/>
     <use xlink:href="#DejaVuSans-76" transform="translate(62.533203 0)"/>
     <use xlink:href="#DejaVuSans-65" transform="translate(121.712891 0)"/>
     <use xlink:href="#DejaVuSans-72" transform="translate(183.236328 0)"/>
     <use xlink:href="#DejaVuSans-61" transform="translate(224.349609 0)"/>
     <use xlink:href="#DejaVuSans-67" transform="translate(285.628906 0)"/>
     <use xlink:href="#DejaVuSans-65" transform="translate(349.105469 0)"/>
     <use xlink:href="#DejaVuSans-20" transform="translate(410.628906 0)"/>
     <use xlink:href="#DejaVuSans-74" transform="translate(442.416016 0)"/>
     <use xlink:href="#DejaVuSans-69" transform="translate(481.625 0)"/>
     <use xlink:href="#DejaVuSans-6d" transform="translate(509.408203 0)"/>
     <use xlink:href="#DejaVuSans-65" transform="translate(606.820312 0)"/>
     <use xlink:href="#DejaVuSans-20" transform="translate(668.34375 0)"/>
     <use xlink:href="#DejaVuSans-70" transform="translate(700.130859 0)"/>
     <use xlink:href="#DejaVuSans-65" transform="translate(763.607422 0)"/>
     <use xlink:href="#DejaVuSans-72" transform="translate(825.130859 0)"/>
     <use xlink:href="#DejaVuSans-20" transform="translate(866.244141 0)"/>
     <use xlink:href="#DejaVuSans-69" transform="translate(898.03125 0)"/>
     <use xlink:href="#DejaVuSans-6e" transform="translate(925.814453 0)"/>
     <use xlink:href="#DejaVuSans-64" transform="translate(989.193359 0)"/>
     <use xlink:href="#DejaVuSans-65" transform="translate(1052.669922 0)"/>
     <use xlink:href="#DejaVuSans-78" transform="translate(1112.443359 0)"/>
    </g>
   </g>
   <g id="legend_1">
    <g id="patch_7">
     <path d="M 525.064062 74.518125 
L 641 74.518125 
Q 643 74.518125 643 72.518125 
L 643 58.84 
Q 643 56.84 641 56.84 
L 525.064062 56.84 
Q 523.064062 56.84 523.064062 58.84 
L 523.064062 72.518125 
Q 523.064062 74.518125 525.064062 74.518125 
z
" style="fill: #ffffff; opacity: 0.8; stroke: #cccccc; stroke-linejoin: miter"/>
    </g>
    <g id="line2d_17">
     <path d="M 527.064062 64.938438 
L 537.064062 64.938438 
L 547.064062 64.938438 
" style="fill: none; stroke: #1f77b4; stroke-width: 1.5; stroke-linecap: square"/>
    </g>
    <g id="text_19">
     <!-- registerFaultload -->
     <g transform="translate(555.064062 68.438438) scale(0.1 -0.1)">
      <defs>
       <path id="DejaVuSans-46" d="M 628 4666 
L 3309 4666 
L 3309 4134 
L 1259 4134 
L 1259 2759 
L 3109 2759 
L 3109 2228 
L 1259 2228 
L 1259 0 
L 628 0 
L 628 4666 
z
" transform="scale(0.015625)"/>
       <path id="DejaVuSans-75" d="M 544 1381 
L 544 3500 
L 1119 3500 
L 1119 1403 
Q 1119 906 1312 657 
Q 1506 409 1894 409 
Q 2359 409 2629 706 
Q 2900 1003 2900 1516 
L 2900 3500 
L 3475 3500 
L 3475 0 
L 2900 0 
L 2900 538 
Q 2691 219 2414 64 
Q 2138 -91 1772 -91 
Q 1169 -91 856 284 
Q 544 659 544 1381 
z
M 1991 3584 
L 1991 3584 
z
" transform="scale(0.015625)"/>
       <path id="DejaVuSans-6c" d="M 603 4863 
L 1178 4863 
L 1178 0 
L 603 0 
L 603 4863 
z
" transform="scale(0.015625)"/>
       <path id="DejaVuSans-6f" d="M 1959 3097 
Q 1497 3097 1228 2736 
Q 959 2375 959 1747 
Q 959 1119 1226 758 
Q 1494 397 1959 397 
Q 2419 397 2687 759 
Q 2956 1122 2956 1747 
Q 2956 2369 2687 2733 
Q 2419 3097 1959 3097 
z
M 1959 3584 
Q 2709 3584 3137 3096 
Q 3566 2609 3566 1747 
Q 3566 888 3137 398 
Q 2709 -91 1959 -91 
Q 1206 -91 779 398 
Q 353 888 353 1747 
Q 353 2609 779 3096 
Q 1206 3584 1959 3584 
z
" transform="scale(0.015625)"/>
      </defs>
      <use xlink:href="#DejaVuSans-72"/>
      <use xlink:href="#DejaVuSans-65" transform="translate(38.863281 0)"/>
      <use xlink:href="#DejaVuSans-67" transform="translate(100.386719 0)"/>
      <use xlink:href="#DejaVuSans-69" transform="translate(163.863281 0)"/>
      <use xlink:href="#DejaVuSans-73" transform="translate(191.646484 0)"/>
      <use xlink:href="#DejaVuSans-74" transform="translate(243.746094 0)"/>
      <use xlink:href="#DejaVuSans-65" transform="translate(282.955078 0)"/>
      <use xlink:href="#DejaVuSans-72" transform="translate(344.478516 0)"/>
      <use xlink:href="#DejaVuSans-46" transform="translate(385.591797 0)"/>
      <use xlink:href="#DejaVuSans-61" transform="translate(433.986328 0)"/>
      <use xlink:href="#DejaVuSans-75" transform="translate(495.265625 0)"/>
      <use xlink:href="#DejaVuSans-6c" transform="translate(558.644531 0)"/>
      <use xlink:href="#DejaVuSans-74" transform="translate(586.427734 0)"/>
      <use xlink:href="#DejaVuSans-6c" transform="translate(625.636719 0)"/>
      <use xlink:href="#DejaVuSans-6f" transform="translate(653.419922 0)"/>
      <use xlink:href="#DejaVuSans-61" transform="translate(714.601562 0)"/>
      <use xlink:href="#DejaVuSans-64" transform="translate(775.880859 0)"/>
     </g>
    </g>
   </g>
  </g>
 </g>
 <defs>
  <clipPath id="pc9cdfc71b2">
   <rect x="90" y="51.84" width="558" height="332.64"/>
  </clipPath>
 </defs>
</svg>
