<?xml version="1.0" encoding="utf-8" standalone="no"?>
<!DOCTYPE svg PUBLIC "-//W3C//DTD SVG 1.1//EN"
  "http://www.w3.org/Graphics/SVG/1.1/DTD/svg11.dtd">
<svg xmlns:xlink="http://www.w3.org/1999/xlink" width="720pt" height="432pt" viewBox="0 0 720 432" xmlns="http://www.w3.org/2000/svg" version="1.1">
 <metadata>
  <rdf:RDF xmlns:dc="http://purl.org/dc/elements/1.1/" xmlns:cc="http://creativecommons.org/ns#" xmlns:rdf="http://www.w3.org/1999/02/22-rdf-syntax-ns#">
   <cc:Work>
    <dc:type rdf:resource="http://purl.org/dc/dcmitype/StillImage"/>
    <dc:date>2025-09-30T20:46:01.461292</dc:date>
    <dc:format>image/svg+xml</dc:format>
    <dc:creator>
     <cc:Agent>
      <dc:title>Matplotlib v3.10.3, https://matplotlib.org/</dc:title>
     </cc:Agent>
    </dc:creator>
   </cc:Work>
  </rdf:RDF>
 </metadata>
 <defs>
  <style type="text/css">*{stroke-linejoin: round; stroke-linecap: butt}</style>
 </defs>
 <g id="figure_1">
  <g id="patch_1">
   <path d="M 0 432 
L 720 432 
L 720 0 
L 0 0 
z
" style="fill: #ffffff"/>
  </g>
  <g id="axes_1">
   <g id="patch_2">
    <path d="M 90 384.48 
L 648 384.48 
L 648 51.84 
L 90 51.84 
z
" style="fill: #ffffff"/>
   </g>
   <g id="matplotlib.axis_1">
    <g id="xtick_1">
     <g id="line2d_1">
      <defs>
       <path id="mf07bb825a7" d="M 0 0 
L 0 3.5 
" style="stroke: #000000; stroke-width: 0.8"/>
      </defs>
      <g>
       <use xlink:href="#mf07bb825a7" x="115.363636" y="384.48" style="stroke: #000000; stroke-width: 0.8"/>
      </g>
     </g>
     <g id="text_1">
      <!-- 0 -->
      <g transform="translate(112.182386 399.078438) scale(0.1 -0.1)">
       <defs>
        <path id="DejaVuSans-30" d="M 2034 4250 
Q 1547 4250 1301 3770 
Q 1056 3291 1056 2328 
Q 1056 1369 1301 889 
Q 1547 409 2034 409 
Q 2525 409 2770 889 
Q 3016 1369 3016 2328 
Q 3016 3291 2770 3770 
Q 2525 4250 2034 4250 
z
M 2034 4750 
Q 2819 4750 3233 4129 
Q 3647 3509 3647 2328 
Q 3647 1150 3233 529 
Q 2819 -91 2034 -91 
Q 1250 -91 836 529 
Q 422 1150 422 2328 
Q 422 3509 836 4129 
Q 1250 4750 2034 4750 
z
" transform="scale(0.015625)"/>
       </defs>
       <use xlink:href="#DejaVuSans-30"/>
      </g>
     </g>
    </g>
    <g id="xtick_2">
     <g id="line2d_2">
      <g>
       <use xlink:href="#mf07bb825a7" x="185.867143" y="384.48" style="stroke: #000000; stroke-width: 0.8"/>
      </g>
     </g>
     <g id="text_2">
      <!-- 200 -->
      <g transform="translate(176.323393 399.078438) scale(0.1 -0.1)">
       <defs>
        <path id="DejaVuSans-32" d="M 1228 531 
L 3431 531 
L 3431 0 
L 469 0 
L 469 531 
Q 828 903 1448 1529 
Q 2069 2156 2228 2338 
Q 2531 2678 2651 2914 
Q 2772 3150 2772 3378 
Q 2772 3750 2511 3984 
Q 2250 4219 1831 4219 
Q 1534 4219 1204 4116 
Q 875 4013 500 3803 
L 500 4441 
Q 881 4594 1212 4672 
Q 1544 4750 1819 4750 
Q 2544 4750 2975 4387 
Q 3406 4025 3406 3419 
Q 3406 3131 3298 2873 
Q 3191 2616 2906 2266 
Q 2828 2175 2409 1742 
Q 1991 1309 1228 531 
z
" transform="scale(0.015625)"/>
       </defs>
       <use xlink:href="#DejaVuSans-32"/>
       <use xlink:href="#DejaVuSans-30" transform="translate(63.623047 0)"/>
       <use xlink:href="#DejaVuSans-30" transform="translate(127.246094 0)"/>
      </g>
     </g>
    </g>
    <g id="xtick_3">
     <g id="line2d_3">
      <g>
       <use xlink:href="#mf07bb825a7" x="256.370649" y="384.48" style="stroke: #000000; stroke-width: 0.8"/>
      </g>
     </g>
     <g id="text_3">
      <!-- 400 -->
      <g transform="translate(246.826899 399.078438) scale(0.1 -0.1)">
       <defs>
        <path id="DejaVuSans-34" d="M 2419 4116 
L 825 1625 
L 2419 1625 
L 2419 4116 
z
M 2253 4666 
L 3047 4666 
L 3047 1625 
L 3713 1625 
L 3713 1100 
L 3047 1100 
L 3047 0 
L 2419 0 
L 2419 1100 
L 313 1100 
L 313 1709 
L 2253 4666 
z
" transform="scale(0.015625)"/>
       </defs>
       <use xlink:href="#DejaVuSans-34"/>
       <use xlink:href="#DejaVuSans-30" transform="translate(63.623047 0)"/>
       <use xlink:href="#DejaVuSans-30" transform="translate(127.246094 0)"/>
      </g>
     </g>
    </g>
    <g id="xtick_4">
     <g id="line2d_4">
      <g>
       <use xlink:href="#mf07bb825a7" x="326.874155" y="384.48" style="stroke: #000000; stroke-width: 0.8"/>
      </g>
     </g>
     <g id="text_4">
      <!-- 600 -->
      <g transform="translate(317.330405 399.078438) scale(0.1 -0.1)">
       <defs>
        <path id="DejaVuSans-36" d="M 2113 2584 
Q 1688 2584 1439 2293 
Q 1191 2003 1191 1497 
Q 1191 994 1439 701 
Q 1688 409 2113 409 
Q 2538 409 2786 701 
Q 3034 994 3034 1497 
Q 3034 2003 2786 2293 
Q 2538 2584 2113 2584 
z
M 3366 4563 
L 3366 3988 
Q 3128 4100 2886 4159 
Q 2644 4219 2406 4219 
Q 1781 4219 1451 3797 
Q 1122 3375 1075 2522 
Q 1259 2794 1537 2939 
Q 1816 3084 2150 3084 
Q 2853 3084 3261 2657 
Q 3669 2231 3669 1497 
Q 3669 778 3244 343 
Q 2819 -91 2113 -91 
Q 1303 -91 875 529 
Q 447 1150 447 2328 
Q 447 3434 972 4092 
Q 1497 4750 2381 4750 
Q 2619 4750 2861 4703 
Q 3103 4656 3366 4563 
z
" transform="scale(0.015625)"/>
       </defs>
       <use xlink:href="#DejaVuSans-36"/>
       <use xlink:href="#DejaVuSans-30" transform="translate(63.623047 0)"/>
       <use xlink:href="#DejaVuSans-30" transform="translate(127.246094 0)"/>
      </g>
     </g>
    </g>
    <g id="xtick_5">
     <g id="line2d_5">
      <g>
       <use xlink:href="#mf07bb825a7" x="397.377661" y="384.48" style="stroke: #000000; stroke-width: 0.8"/>
      </g>
     </g>
     <g id="text_5">
      <!-- 800 -->
      <g transform="translate(387.833911 399.078438) scale(0.1 -0.1)">
       <defs>
        <path id="DejaVuSans-38" d="M 2034 2216 
Q 1584 2216 1326 1975 
Q 1069 1734 1069 1313 
Q 1069 891 1326 650 
Q 1584 409 2034 409 
Q 2484 409 2743 651 
Q 3003 894 3003 1313 
Q 3003 1734 2745 1975 
Q 2488 2216 2034 2216 
z
M 1403 2484 
Q 997 2584 770 2862 
Q 544 3141 544 3541 
Q 544 4100 942 4425 
Q 1341 4750 2034 4750 
Q 2731 4750 3128 4425 
Q 3525 4100 3525 3541 
Q 3525 3141 3298 2862 
Q 3072 2584 2669 2484 
Q 3125 2378 3379 2068 
Q 3634 1759 3634 1313 
Q 3634 634 3220 271 
Q 2806 -91 2034 -91 
Q 1263 -91 848 271 
Q 434 634 434 1313 
Q 434 1759 690 2068 
Q 947 2378 1403 2484 
z
M 1172 3481 
Q 1172 3119 1398 2916 
Q 1625 2713 2034 2713 
Q 2441 2713 2670 2916 
Q 2900 3119 2900 3481 
Q 2900 3844 2670 4047 
Q 2441 4250 2034 4250 
Q 1625 4250 1398 4047 
Q 1172 3844 1172 3481 
z
" transform="scale(0.015625)"/>
       </defs>
       <use xlink:href="#DejaVuSans-38"/>
       <use xlink:href="#DejaVuSans-30" transform="translate(63.623047 0)"/>
       <use xlink:href="#DejaVuSans-30" transform="translate(127.246094 0)"/>
      </g>
     </g>
    </g>
    <g id="xtick_6">
     <g id="line2d_6">
      <g>
       <use xlink:href="#mf07bb825a7" x="467.881167" y="384.48" style="stroke: #000000; stroke-width: 0.8"/>
      </g>
     </g>
     <g id="text_6">
      <!-- 1000 -->
      <g transform="translate(455.156167 399.078438) scale(0.1 -0.1)">
       <defs>
        <path id="DejaVuSans-31" d="M 794 531 
L 1825 531 
L 1825 4091 
L 703 3866 
L 703 4441 
L 1819 4666 
L 2450 4666 
L 2450 531 
L 3481 531 
L 3481 0 
L 794 0 
L 794 531 
z
" transform="scale(0.015625)"/>
       </defs>
       <use xlink:href="#DejaVuSans-31"/>
       <use xlink:href="#DejaVuSans-30" transform="translate(63.623047 0)"/>
       <use xlink:href="#DejaVuSans-30" transform="translate(127.246094 0)"/>
       <use xlink:href="#DejaVuSans-30" transform="translate(190.869141 0)"/>
      </g>
     </g>
    </g>
    <g id="xtick_7">
     <g id="line2d_7">
      <g>
       <use xlink:href="#mf07bb825a7" x="538.384674" y="384.48" style="stroke: #000000; stroke-width: 0.8"/>
      </g>
     </g>
     <g id="text_7">
      <!-- 1200 -->
      <g transform="translate(525.659674 399.078438) scale(0.1 -0.1)">
       <use xlink:href="#DejaVuSans-31"/>
       <use xlink:href="#DejaVuSans-32" transform="translate(63.623047 0)"/>
       <use xlink:href="#DejaVuSans-30" transform="translate(127.246094 0)"/>
       <use xlink:href="#DejaVuSans-30" transform="translate(190.869141 0)"/>
      </g>
     </g>
    </g>
    <g id="xtick_8">
     <g id="line2d_8">
      <g>
       <use xlink:href="#mf07bb825a7" x="608.88818" y="384.48" style="stroke: #000000; stroke-width: 0.8"/>
      </g>
     </g>
     <g id="text_8">
      <!-- 1400 -->
      <g transform="translate(596.16318 399.078438) scale(0.1 -0.1)">
       <use xlink:href="#DejaVuSans-31"/>
       <use xlink:href="#DejaVuSans-34" transform="translate(63.623047 0)"/>
       <use xlink:href="#DejaVuSans-30" transform="translate(127.246094 0)"/>
       <use xlink:href="#DejaVuSans-30" transform="translate(190.869141 0)"/>
      </g>
     </g>
    </g>
    <g id="text_9">
     <!-- Index -->
     <g transform="translate(355.233594 412.756563) scale(0.1 -0.1)">
      <defs>
       <path id="DejaVuSans-49" d="M 628 4666 
L 1259 4666 
L 1259 0 
L 628 0 
L 628 4666 
z
" transform="scale(0.015625)"/>
       <path id="DejaVuSans-6e" d="M 3513 2113 
L 3513 0 
L 2938 0 
L 2938 2094 
Q 2938 2591 2744 2837 
Q 2550 3084 2163 3084 
Q 1697 3084 1428 2787 
Q 1159 2491 1159 1978 
L 1159 0 
L 581 0 
L 581 3500 
L 1159 3500 
L 1159 2956 
Q 1366 3272 1645 3428 
Q 1925 3584 2291 3584 
Q 2894 3584 3203 3211 
Q 3513 2838 3513 2113 
z
" transform="scale(0.015625)"/>
       <path id="DejaVuSans-64" d="M 2906 2969 
L 2906 4863 
L 3481 4863 
L 3481 0 
L 2906 0 
L 2906 525 
Q 2725 213 2448 61 
Q 2172 -91 1784 -91 
Q 1150 -91 751 415 
Q 353 922 353 1747 
Q 353 2572 751 3078 
Q 1150 3584 1784 3584 
Q 2172 3584 2448 3432 
Q 2725 3281 2906 2969 
z
M 947 1747 
Q 947 1113 1208 752 
Q 1469 391 1925 391 
Q 2381 391 2643 752 
Q 2906 1113 2906 1747 
Q 2906 2381 2643 2742 
Q 2381 3103 1925 3103 
Q 1469 3103 1208 2742 
Q 947 2381 947 1747 
z
" transform="scale(0.015625)"/>
       <path id="DejaVuSans-65" d="M 3597 1894 
L 3597 1613 
L 953 1613 
Q 991 1019 1311 708 
Q 1631 397 2203 397 
Q 2534 397 2845 478 
Q 3156 559 3463 722 
L 3463 178 
Q 3153 47 2828 -22 
Q 2503 -91 2169 -91 
Q 1331 -91 842 396 
Q 353 884 353 1716 
Q 353 2575 817 3079 
Q 1281 3584 2069 3584 
Q 2775 3584 3186 3129 
Q 3597 2675 3597 1894 
z
M 3022 2063 
Q 3016 2534 2758 2815 
Q 2500 3097 2075 3097 
Q 1594 3097 1305 2825 
Q 1016 2553 972 2059 
L 3022 2063 
z
" transform="scale(0.015625)"/>
       <path id="DejaVuSans-78" d="M 3513 3500 
L 2247 1797 
L 3578 0 
L 2900 0 
L 1881 1375 
L 863 0 
L 184 0 
L 1544 1831 
L 300 3500 
L 978 3500 
L 1906 2253 
L 2834 3500 
L 3513 3500 
z
" transform="scale(0.015625)"/>
      </defs>
      <use xlink:href="#DejaVuSans-49"/>
      <use xlink:href="#DejaVuSans-6e" transform="translate(29.492188 0)"/>
      <use xlink:href="#DejaVuSans-64" transform="translate(92.871094 0)"/>
      <use xlink:href="#DejaVuSans-65" transform="translate(156.347656 0)"/>
      <use xlink:href="#DejaVuSans-78" transform="translate(216.121094 0)"/>
     </g>
    </g>
   </g>
   <g id="matplotlib.axis_2">
    <g id="ytick_1">
     <g id="line2d_9">
      <defs>
       <path id="mb513482932" d="M 0 0 
L -3.5 0 
" style="stroke: #000000; stroke-width: 0.8"/>
      </defs>
      <g>
       <use xlink:href="#mb513482932" x="90" y="384.48" style="stroke: #000000; stroke-width: 0.8"/>
      </g>
     </g>
     <g id="text_10">
      <!-- 0.0 -->
      <g transform="translate(67.096875 388.279219) scale(0.1 -0.1)">
       <defs>
        <path id="DejaVuSans-2e" d="M 684 794 
L 1344 794 
L 1344 0 
L 684 0 
L 684 794 
z
" transform="scale(0.015625)"/>
       </defs>
       <use xlink:href="#DejaVuSans-30"/>
       <use xlink:href="#DejaVuSans-2e" transform="translate(63.623047 0)"/>
       <use xlink:href="#DejaVuSans-30" transform="translate(95.410156 0)"/>
      </g>
     </g>
    </g>
    <g id="ytick_2">
     <g id="line2d_10">
      <g>
       <use xlink:href="#mb513482932" x="90" y="344.283413" style="stroke: #000000; stroke-width: 0.8"/>
      </g>
     </g>
     <g id="text_11">
      <!-- 0.5 -->
      <g transform="translate(67.096875 348.082632) scale(0.1 -0.1)">
       <defs>
        <path id="DejaVuSans-35" d="M 691 4666 
L 3169 4666 
L 3169 4134 
L 1269 4134 
L 1269 2991 
Q 1406 3038 1543 3061 
Q 1681 3084 1819 3084 
Q 2600 3084 3056 2656 
Q 3513 2228 3513 1497 
Q 3513 744 3044 326 
Q 2575 -91 1722 -91 
Q 1428 -91 1123 -41 
Q 819 9 494 109 
L 494 744 
Q 775 591 1075 516 
Q 1375 441 1709 441 
Q 2250 441 2565 725 
Q 2881 1009 2881 1497 
Q 2881 1984 2565 2268 
Q 2250 2553 1709 2553 
Q 1456 2553 1204 2497 
Q 953 2441 691 2322 
L 691 4666 
z
" transform="scale(0.015625)"/>
       </defs>
       <use xlink:href="#DejaVuSans-30"/>
       <use xlink:href="#DejaVuSans-2e" transform="translate(63.623047 0)"/>
       <use xlink:href="#DejaVuSans-35" transform="translate(95.410156 0)"/>
      </g>
     </g>
    </g>
    <g id="ytick_3">
     <g id="line2d_11">
      <g>
       <use xlink:href="#mb513482932" x="90" y="304.086827" style="stroke: #000000; stroke-width: 0.8"/>
      </g>
     </g>
     <g id="text_12">
      <!-- 1.0 -->
      <g transform="translate(67.096875 307.886045) scale(0.1 -0.1)">
       <use xlink:href="#DejaVuSans-31"/>
       <use xlink:href="#DejaVuSans-2e" transform="translate(63.623047 0)"/>
       <use xlink:href="#DejaVuSans-30" transform="translate(95.410156 0)"/>
      </g>
     </g>
    </g>
    <g id="ytick_4">
     <g id="line2d_12">
      <g>
       <use xlink:href="#mb513482932" x="90" y="263.89024" style="stroke: #000000; stroke-width: 0.8"/>
      </g>
     </g>
     <g id="text_13">
      <!-- 1.5 -->
      <g transform="translate(67.096875 267.689459) scale(0.1 -0.1)">
       <use xlink:href="#DejaVuSans-31"/>
       <use xlink:href="#DejaVuSans-2e" transform="translate(63.623047 0)"/>
       <use xlink:href="#DejaVuSans-35" transform="translate(95.410156 0)"/>
      </g>
     </g>
    </g>
    <g id="ytick_5">
     <g id="line2d_13">
      <g>
       <use xlink:href="#mb513482932" x="90" y="223.693653" style="stroke: #000000; stroke-width: 0.8"/>
      </g>
     </g>
     <g id="text_14">
      <!-- 2.0 -->
      <g transform="translate(67.096875 227.492872) scale(0.1 -0.1)">
       <use xlink:href="#DejaVuSans-32"/>
       <use xlink:href="#DejaVuSans-2e" transform="translate(63.623047 0)"/>
       <use xlink:href="#DejaVuSans-30" transform="translate(95.410156 0)"/>
      </g>
     </g>
    </g>
    <g id="ytick_6">
     <g id="line2d_14">
      <g>
       <use xlink:href="#mb513482932" x="90" y="183.497066" style="stroke: #000000; stroke-width: 0.8"/>
      </g>
     </g>
     <g id="text_15">
      <!-- 2.5 -->
      <g transform="translate(67.096875 187.296285) scale(0.1 -0.1)">
       <use xlink:href="#DejaVuSans-32"/>
       <use xlink:href="#DejaVuSans-2e" transform="translate(63.623047 0)"/>
       <use xlink:href="#DejaVuSans-35" transform="translate(95.410156 0)"/>
      </g>
     </g>
    </g>
    <g id="ytick_7">
     <g id="line2d_15">
      <g>
       <use xlink:href="#mb513482932" x="90" y="143.30048" style="stroke: #000000; stroke-width: 0.8"/>
      </g>
     </g>
     <g id="text_16">
      <!-- 3.0 -->
      <g transform="translate(67.096875 147.099698) scale(0.1 -0.1)">
       <defs>
        <path id="DejaVuSans-33" d="M 2597 2516 
Q 3050 2419 3304 2112 
Q 3559 1806 3559 1356 
Q 3559 666 3084 287 
Q 2609 -91 1734 -91 
Q 1441 -91 1130 -33 
Q 819 25 488 141 
L 488 750 
Q 750 597 1062 519 
Q 1375 441 1716 441 
Q 2309 441 2620 675 
Q 2931 909 2931 1356 
Q 2931 1769 2642 2001 
Q 2353 2234 1838 2234 
L 1294 2234 
L 1294 2753 
L 1863 2753 
Q 2328 2753 2575 2939 
Q 2822 3125 2822 3475 
Q 2822 3834 2567 4026 
Q 2313 4219 1838 4219 
Q 1578 4219 1281 4162 
Q 984 4106 628 3988 
L 628 4550 
Q 988 4650 1302 4700 
Q 1616 4750 1894 4750 
Q 2613 4750 3031 4423 
Q 3450 4097 3450 3541 
Q 3450 3153 3228 2886 
Q 3006 2619 2597 2516 
z
" transform="scale(0.015625)"/>
       </defs>
       <use xlink:href="#DejaVuSans-33"/>
       <use xlink:href="#DejaVuSans-2e" transform="translate(63.623047 0)"/>
       <use xlink:href="#DejaVuSans-30" transform="translate(95.410156 0)"/>
      </g>
     </g>
    </g>
    <g id="ytick_8">
     <g id="line2d_16">
      <g>
       <use xlink:href="#mb513482932" x="90" y="103.103893" style="stroke: #000000; stroke-width: 0.8"/>
      </g>
     </g>
     <g id="text_17">
      <!-- 3.5 -->
      <g transform="translate(67.096875 106.903112) scale(0.1 -0.1)">
       <use xlink:href="#DejaVuSans-33"/>
       <use xlink:href="#DejaVuSans-2e" transform="translate(63.623047 0)"/>
       <use xlink:href="#DejaVuSans-35" transform="translate(95.410156 0)"/>
      </g>
     </g>
    </g>
    <g id="ytick_9">
     <g id="line2d_17">
      <g>
       <use xlink:href="#mb513482932" x="90" y="62.907306" style="stroke: #000000; stroke-width: 0.8"/>
      </g>
     </g>
     <g id="text_18">
      <!-- 4.0 -->
      <g transform="translate(67.096875 66.706525) scale(0.1 -0.1)">
       <use xlink:href="#DejaVuSans-34"/>
       <use xlink:href="#DejaVuSans-2e" transform="translate(63.623047 0)"/>
       <use xlink:href="#DejaVuSans-30" transform="translate(95.410156 0)"/>
      </g>
     </g>
    </g>
    <g id="text_19">
     <!-- Average time (ms) -->
     <g transform="translate(61.017187 264.543594) rotate(-90) scale(0.1 -0.1)">
      <defs>
       <path id="DejaVuSans-41" d="M 2188 4044 
L 1331 1722 
L 3047 1722 
L 2188 4044 
z
M 1831 4666 
L 2547 4666 
L 4325 0 
L 3669 0 
L 3244 1197 
L 1141 1197 
L 716 0 
L 50 0 
L 1831 4666 
z
" transform="scale(0.015625)"/>
       <path id="DejaVuSans-76" d="M 191 3500 
L 800 3500 
L 1894 563 
L 2988 3500 
L 3597 3500 
L 2284 0 
L 1503 0 
L 191 3500 
z
" transform="scale(0.015625)"/>
       <path id="DejaVuSans-72" d="M 2631 2963 
Q 2534 3019 2420 3045 
Q 2306 3072 2169 3072 
Q 1681 3072 1420 2755 
Q 1159 2438 1159 1844 
L 1159 0 
L 581 0 
L 581 3500 
L 1159 3500 
L 1159 2956 
Q 1341 3275 1631 3429 
Q 1922 3584 2338 3584 
Q 2397 3584 2469 3576 
Q 2541 3569 2628 3553 
L 2631 2963 
z
" transform="scale(0.015625)"/>
       <path id="DejaVuSans-61" d="M 2194 1759 
Q 1497 1759 1228 1600 
Q 959 1441 959 1056 
Q 959 750 1161 570 
Q 1363 391 1709 391 
Q 2188 391 2477 730 
Q 2766 1069 2766 1631 
L 2766 1759 
L 2194 1759 
z
M 3341 1997 
L 3341 0 
L 2766 0 
L 2766 531 
Q 2569 213 2275 61 
Q 1981 -91 1556 -91 
Q 1019 -91 701 211 
Q 384 513 384 1019 
Q 384 1609 779 1909 
Q 1175 2209 1959 2209 
L 2766 2209 
L 2766 2266 
Q 2766 2663 2505 2880 
Q 2244 3097 1772 3097 
Q 1472 3097 1187 3025 
Q 903 2953 641 2809 
L 641 3341 
Q 956 3463 1253 3523 
Q 1550 3584 1831 3584 
Q 2591 3584 2966 3190 
Q 3341 2797 3341 1997 
z
" transform="scale(0.015625)"/>
       <path id="DejaVuSans-67" d="M 2906 1791 
Q 2906 2416 2648 2759 
Q 2391 3103 1925 3103 
Q 1463 3103 1205 2759 
Q 947 2416 947 1791 
Q 947 1169 1205 825 
Q 1463 481 1925 481 
Q 2391 481 2648 825 
Q 2906 1169 2906 1791 
z
M 3481 434 
Q 3481 -459 3084 -895 
Q 2688 -1331 1869 -1331 
Q 1566 -1331 1297 -1286 
Q 1028 -1241 775 -1147 
L 775 -588 
Q 1028 -725 1275 -790 
Q 1522 -856 1778 -856 
Q 2344 -856 2625 -561 
Q 2906 -266 2906 331 
L 2906 616 
Q 2728 306 2450 153 
Q 2172 0 1784 0 
Q 1141 0 747 490 
Q 353 981 353 1791 
Q 353 2603 747 3093 
Q 1141 3584 1784 3584 
Q 2172 3584 2450 3431 
Q 2728 3278 2906 2969 
L 2906 3500 
L 3481 3500 
L 3481 434 
z
" transform="scale(0.015625)"/>
       <path id="DejaVuSans-20" transform="scale(0.015625)"/>
       <path id="DejaVuSans-74" d="M 1172 4494 
L 1172 3500 
L 2356 3500 
L 2356 3053 
L 1172 3053 
L 1172 1153 
Q 1172 725 1289 603 
Q 1406 481 1766 481 
L 2356 481 
L 2356 0 
L 1766 0 
Q 1100 0 847 248 
Q 594 497 594 1153 
L 594 3053 
L 172 3053 
L 172 3500 
L 594 3500 
L 594 4494 
L 1172 4494 
z
" transform="scale(0.015625)"/>
       <path id="DejaVuSans-69" d="M 603 3500 
L 1178 3500 
L 1178 0 
L 603 0 
L 603 3500 
z
M 603 4863 
L 1178 4863 
L 1178 4134 
L 603 4134 
L 603 4863 
z
" transform="scale(0.015625)"/>
       <path id="DejaVuSans-6d" d="M 3328 2828 
Q 3544 3216 3844 3400 
Q 4144 3584 4550 3584 
Q 5097 3584 5394 3201 
Q 5691 2819 5691 2113 
L 5691 0 
L 5113 0 
L 5113 2094 
Q 5113 2597 4934 2840 
Q 4756 3084 4391 3084 
Q 3944 3084 3684 2787 
Q 3425 2491 3425 1978 
L 3425 0 
L 2847 0 
L 2847 2094 
Q 2847 2600 2669 2842 
Q 2491 3084 2119 3084 
Q 1678 3084 1418 2786 
Q 1159 2488 1159 1978 
L 1159 0 
L 581 0 
L 581 3500 
L 1159 3500 
L 1159 2956 
Q 1356 3278 1631 3431 
Q 1906 3584 2284 3584 
Q 2666 3584 2933 3390 
Q 3200 3197 3328 2828 
z
" transform="scale(0.015625)"/>
       <path id="DejaVuSans-28" d="M 1984 4856 
Q 1566 4138 1362 3434 
Q 1159 2731 1159 2009 
Q 1159 1288 1364 580 
Q 1569 -128 1984 -844 
L 1484 -844 
Q 1016 -109 783 600 
Q 550 1309 550 2009 
Q 550 2706 781 3412 
Q 1013 4119 1484 4856 
L 1984 4856 
z
" transform="scale(0.015625)"/>
       <path id="DejaVuSans-73" d="M 2834 3397 
L 2834 2853 
Q 2591 2978 2328 3040 
Q 2066 3103 1784 3103 
Q 1356 3103 1142 2972 
Q 928 2841 928 2578 
Q 928 2378 1081 2264 
Q 1234 2150 1697 2047 
L 1894 2003 
Q 2506 1872 2764 1633 
Q 3022 1394 3022 966 
Q 3022 478 2636 193 
Q 2250 -91 1575 -91 
Q 1294 -91 989 -36 
Q 684 19 347 128 
L 347 722 
Q 666 556 975 473 
Q 1284 391 1588 391 
Q 1994 391 2212 530 
Q 2431 669 2431 922 
Q 2431 1156 2273 1281 
Q 2116 1406 1581 1522 
L 1381 1569 
Q 847 1681 609 1914 
Q 372 2147 372 2553 
Q 372 3047 722 3315 
Q 1072 3584 1716 3584 
Q 2034 3584 2315 3537 
Q 2597 3491 2834 3397 
z
" transform="scale(0.015625)"/>
       <path id="DejaVuSans-29" d="M 513 4856 
L 1013 4856 
Q 1481 4119 1714 3412 
Q 1947 2706 1947 2009 
Q 1947 1309 1714 600 
Q 1481 -109 1013 -844 
L 513 -844 
Q 928 -128 1133 580 
Q 1338 1288 1338 2009 
Q 1338 2731 1133 3434 
Q 928 4138 513 4856 
z
" transform="scale(0.015625)"/>
      </defs>
      <use xlink:href="#DejaVuSans-41"/>
      <use xlink:href="#DejaVuSans-76" transform="translate(62.533203 0)"/>
      <use xlink:href="#DejaVuSans-65" transform="translate(121.712891 0)"/>
      <use xlink:href="#DejaVuSans-72" transform="translate(183.236328 0)"/>
      <use xlink:href="#DejaVuSans-61" transform="translate(224.349609 0)"/>
      <use xlink:href="#DejaVuSans-67" transform="translate(285.628906 0)"/>
      <use xlink:href="#DejaVuSans-65" transform="translate(349.105469 0)"/>
      <use xlink:href="#DejaVuSans-20" transform="translate(410.628906 0)"/>
      <use xlink:href="#DejaVuSans-74" transform="translate(442.416016 0)"/>
      <use xlink:href="#DejaVuSans-69" transform="translate(481.625 0)"/>
      <use xlink:href="#DejaVuSans-6d" transform="translate(509.408203 0)"/>
      <use xlink:href="#DejaVuSans-65" transform="translate(606.820312 0)"/>
      <use xlink:href="#DejaVuSans-20" transform="translate(668.34375 0)"/>
      <use xlink:href="#DejaVuSans-28" transform="translate(700.130859 0)"/>
      <use xlink:href="#DejaVuSans-6d" transform="translate(739.144531 0)"/>
      <use xlink:href="#DejaVuSans-73" transform="translate(836.556641 0)"/>
      <use xlink:href="#DejaVuSans-29" transform="translate(888.65625 0)"/>
     </g>
    </g>
   </g>
   <g id="line2d_18">
    <path d="M 115.363636 305.935226 
L 115.716154 347.045883 
L 116.068671 248.014437 
L 116.421189 317.647306 
L 116.773706 287.142599 
L 117.126224 350.616225 
L 117.478742 315.885087 
L 117.831259 338.927459 
L 118.183777 307.840545 
L 118.536294 311.854817 
L 118.888812 260.579569 
L 119.241329 328.924539 
L 119.593847 309.121369 
L 119.946364 314.355849 
L 120.298882 311.136825 
L 120.651399 346.060987 
L 121.003917 303.647156 
L 121.356434 333.403403 
L 122.061469 315.863301 
L 122.413987 293.804138 
L 122.766505 335.088524 
L 123.119022 325.361352 
L 123.47154 343.761662 
L 123.824057 376.528794 
L 124.176575 379.861975 
L 124.529092 374.834105 
L 124.88161 380.971481 
L 125.234127 368.364545 
L 125.586645 381.064818 
L 125.939162 375.95961 
L 126.29168 360.656528 
L 126.644197 316.06758 
L 126.996715 360.862817 
L 127.349232 365.551508 
L 127.70175 356.70231 
L 128.406785 362.420033 
L 128.759303 324.236572 
L 129.11182 359.004046 
L 129.464338 338.774712 
L 129.816855 362.083989 
L 130.169373 362.206187 
L 130.52189 354.62085 
L 130.874408 359.489621 
L 131.226925 355.883023 
L 131.579443 329.786434 
L 131.93196 357.779578 
L 132.284478 361.669964 
L 132.636995 357.870422 
L 132.989513 344.369514 
L 133.34203 360.397341 
L 133.694548 352.450877 
L 134.047066 369.774722 
L 134.752101 337.231003 
L 135.104618 362.719176 
L 135.457136 373.067787 
L 135.809653 354.671498 
L 136.162171 373.318614 
L 136.514688 361.289624 
L 136.867206 369.202322 
L 137.219723 356.313126 
L 137.572241 361.475413 
L 137.924758 358.380919 
L 138.277276 367.317022 
L 138.629793 359.190559 
L 138.982311 364.683985 
L 139.334828 365.709882 
L 139.687346 366.111848 
L 140.039864 345.214366 
L 140.392381 371.222683 
L 140.744899 366.924703 
L 141.097416 364.721046 
L 141.449934 368.57196 
L 141.802451 366.158476 
L 142.154969 368.280936 
L 142.507486 375.422503 
L 142.860004 367.909439 
L 143.212521 375.334955 
L 143.565039 349.552623 
L 143.917556 365.838511 
L 144.270074 353.697052 
L 144.975109 369.842252 
L 145.327627 373.779186 
L 145.680144 365.301405 
L 146.032662 375.498957 
L 146.385179 365.775001 
L 146.737697 349.243913 
L 147.090214 369.100143 
L 147.442732 366.648071 
L 147.795249 372.939078 
L 148.147767 349.148165 
L 148.500284 366.513814 
L 148.852802 375.95961 
L 149.205319 365.070676 
L 149.557837 368.932201 
L 149.910354 368.424036 
L 150.262872 376.043219 
L 150.615389 362.447366 
L 150.967907 375.286719 
L 151.320425 364.540885 
L 151.672942 375.308425 
L 152.02546 367.866108 
L 152.377977 375.803647 
L 152.730495 364.053702 
L 153.083012 375.145951 
L 153.43553 368.061463 
L 153.788047 372.611877 
L 154.140565 365.509623 
L 154.493082 374.676454 
L 154.8456 365.393133 
L 155.198117 375.326031 
L 155.550635 368.794649 
L 155.903152 375.500565 
L 156.25567 368.703081 
L 156.608188 376.262692 
L 156.960705 376.359164 
L 157.313223 367.647438 
L 157.66574 373.801777 
L 158.018258 375.212757 
L 158.370775 367.806617 
L 158.723293 375.81651 
L 159.07581 369.68227 
L 159.428328 368.732022 
L 159.780845 366.937566 
L 160.133363 376.871268 
L 160.48588 366.988214 
L 160.838398 376.645444 
L 161.190915 368.150699 
L 161.543433 376.556127 
L 161.89595 368.477176 
L 162.248468 376.404184 
L 162.600986 367.529984 
L 162.953503 371.282978 
L 163.306021 350.712697 
L 163.658538 371.120584 
L 164.011056 336.691564 
L 164.363573 340.827954 
L 164.716091 368.136229 
L 165.068608 367.520417 
L 165.421126 363.644501 
L 165.773643 375.786765 
L 166.126161 370.245022 
L 166.478678 377.097977 
L 166.831196 377.464651 
L 167.183713 375.943531 
L 167.536231 377.75889 
L 168.241266 377.650359 
L 168.593784 369.656464 
L 168.946301 377.408375 
L 169.298819 377.306196 
L 169.651336 377.79177 
L 170.003854 377.457335 
L 170.356371 377.932539 
L 171.061406 377.731556 
L 171.413924 368.80518 
L 171.766441 377.14139 
L 172.118959 376.124416 
L 172.471476 377.781319 
L 172.823994 377.827947 
L 173.176511 376.409812 
L 173.529029 377.316727 
L 173.881547 368.438507 
L 174.234064 371.016073 
L 174.586582 367.802597 
L 174.939099 376.860013 
L 175.291617 367.590359 
L 175.644134 376.770777 
L 175.996652 366.816977 
L 176.349169 375.215893 
L 176.701687 366.573305 
L 177.054204 373.138453 
L 177.406722 367.991521 
L 177.759239 375.465915 
L 178.111757 365.390641 
L 178.464274 376.422675 
L 178.816792 370.696832 
L 179.169309 377.783731 
L 179.521827 378.037773 
L 179.874345 376.240986 
L 180.226862 372.766232 
L 180.57938 372.175342 
L 180.931897 370.037608 
L 181.284415 376.291634 
L 181.636932 367.646634 
L 181.98945 376.417047 
L 182.341967 362.566348 
L 182.694485 367.051644 
L 183.047002 360.743835 
L 183.39952 375.807667 
L 183.752037 362.332404 
L 184.104555 375.498957 
L 184.457072 366.365087 
L 184.80959 373.90066 
L 185.162108 370.036 
L 185.514625 376.146122 
L 185.867143 371.214644 
L 186.21966 377.336825 
L 186.572178 376.363184 
L 186.924695 372.779095 
L 187.62973 377.022408 
L 187.982248 369.304422 
L 188.334765 376.917093 
L 188.687283 367.579104 
L 189.0398 377.340765 
L 189.392318 358.420312 
L 189.744835 375.161225 
L 190.097353 356.527776 
L 190.44987 372.997765 
L 190.802388 367.138549 
L 191.154906 371.038583 
L 191.507423 364.113997 
L 191.859941 374.055015 
L 192.212458 363.746601 
L 192.564976 375.306737 
L 192.917493 370.134079 
L 193.622528 377.541024 
L 193.975046 378.125482 
L 194.327563 373.539695 
L 194.680081 370.84162 
L 195.032598 365.964729 
L 195.385116 375.013302 
L 195.737633 357.593066 
L 196.090151 371.84975 
L 196.442669 366.199477 
L 196.795186 375.962826 
L 197.147704 342.699668 
L 197.500221 364.690497 
L 197.852739 359.647192 
L 198.205256 374.041348 
L 198.557774 365.2186 
L 198.910291 374.859831 
L 199.262809 366.976075 
L 199.615326 375.010167 
L 199.967844 371.28137 
L 200.320361 377.10682 
L 200.672879 377.531296 
L 201.025396 378.250896 
L 201.377914 360.640048 
L 201.730431 351.180665 
L 202.082949 356.719112 
L 202.435467 371.401076 
L 202.787984 373.185161 
L 203.140502 371.163112 
L 203.845537 363.996623 
L 204.198054 352.914746 
L 204.550572 359.185735 
L 204.903089 376.769973 
L 205.255607 376.962113 
L 205.608124 376.851251 
L 205.960642 378.348975 
L 206.313159 378.212307 
L 206.665677 375.072793 
L 207.018194 375.867881 
L 207.370712 374.611336 
L 207.72323 377.6752 
L 208.075747 370.924344 
L 208.428265 358.378507 
L 208.780782 368.685394 
L 209.1333 375.297894 
L 209.485817 377.793378 
L 209.838335 368.726315 
L 210.190852 375.191855 
L 210.54337 377.655906 
L 210.895887 374.862163 
L 211.248405 378.155228 
L 211.600922 378.616685 
L 211.95344 378.1086 
L 212.305957 372.225186 
L 212.658475 376.908249 
L 213.010992 378.158363 
L 213.36351 378.210699 
L 213.716028 362.811628 
L 214.068545 377.92048 
L 214.421063 378.477604 
L 214.77358 378.379525 
L 215.126098 378.540311 
L 215.478615 374.690925 
L 215.831133 375.087264 
L 216.18365 373.255103 
L 216.536168 377.284489 
L 216.888685 378.446251 
L 217.241203 378.633567 
L 217.59372 378.677783 
L 217.946238 378.578096 
L 218.298755 372.537996 
L 218.651273 376.834288 
L 219.003791 359.459876 
L 219.356308 376.830268 
L 219.708826 365.683353 
L 220.061343 376.858406 
L 220.413861 370.129256 
L 220.766378 376.76515 
L 221.118896 366.446284 
L 221.471413 376.503068 
L 221.823931 350.3904 
L 222.176448 371.629473 
L 222.528966 358.955007 
L 222.881483 375.36872 
L 223.234001 368.391075 
L 223.939036 371.116484 
L 224.291553 378.54835 
L 224.644071 378.709217 
L 224.996589 378.705921 
L 225.349106 375.922629 
L 225.701624 378.173718 
L 226.054141 363.30685 
L 226.406659 374.624199 
L 226.759176 365.482289 
L 227.111694 372.220363 
L 227.464211 346.265989 
L 227.816729 360.428694 
L 228.169246 369.49013 
L 228.521764 374.815535 
L 228.874281 369.314069 
L 229.226799 376.253045 
L 229.579316 367.737478 
L 229.931834 377.29896 
L 230.284352 368.271289 
L 230.636869 377.305472 
L 230.989387 369.89692 
L 231.341904 378.451879 
L 231.694422 379.078945 
L 232.046939 375.625978 
L 232.399457 360.816993 
L 232.751974 373.319418 
L 233.104492 366.428517 
L 233.457009 374.037248 
L 233.809527 369.153202 
L 234.162044 377.03929 
L 234.514562 359.437205 
L 234.867079 377.266803 
L 235.219597 354.090818 
L 235.572114 376.520754 
L 235.924632 364.273095 
L 236.27715 377.147017 
L 236.629667 368.28166 
L 236.982185 377.29896 
L 237.334702 369.149183 
L 237.68722 374.942556 
L 238.039737 373.145688 
L 238.392255 378.862688 
L 238.744772 379.232496 
L 239.09729 378.911728 
L 239.449807 373.201159 
L 239.802325 377.975147 
L 240.154842 370.159725 
L 240.50736 373.683518 
L 240.859877 367.587867 
L 241.212395 377.232234 
L 241.564913 367.705964 
L 241.91743 377.365687 
L 242.269948 366.184041 
L 242.622465 375.836528 
L 242.974983 369.104886 
L 243.3275 374.457785 
L 243.680018 365.979923 
L 244.032535 376.651715 
L 244.385053 364.73214 
L 244.73757 377.28055 
L 245.090088 373.23404 
L 245.442605 378.832942 
L 245.795123 378.484036 
L 246.14764 379.173809 
L 246.500158 379.403734 
L 247.910228 379.204439 
L 248.262746 379.476088 
L 248.615263 376.643675 
L 248.967781 372.5306 
L 249.320298 378.950316 
L 249.672816 379.333068 
L 250.025333 379.362733 
L 250.377851 377.716201 
L 250.730368 378.238756 
L 251.082886 379.257418 
L 251.435403 378.057148 
L 251.787921 379.318597 
L 252.140438 378.101284 
L 252.492956 374.903163 
L 252.845473 378.107715 
L 253.197991 378.422937 
L 253.550509 379.357106 
L 254.255544 379.050004 
L 254.608061 377.115664 
L 254.960579 378.713156 
L 255.313096 378.676176 
L 255.665614 375.898431 
L 256.018131 378.024107 
L 256.370649 379.337811 
L 256.723166 379.1923 
L 257.075684 379.434283 
L 257.428201 379.371577 
L 257.780719 378.804805 
L 258.133236 373.97213 
L 258.485754 378.434192 
L 258.838272 378.591763 
L 259.190789 379.404618 
L 259.543307 378.824099 
L 259.895824 379.352363 
L 260.248342 379.293595 
L 260.600859 378.881982 
L 261.305894 378.911647 
L 261.658412 378.471977 
L 262.010929 379.31289 
L 262.363447 379.54201 
L 262.715964 379.349066 
L 263.068482 379.475364 
L 263.773517 370.629221 
L 264.126034 361.59343 
L 264.478552 67.517372 
L 264.83107 366.898013 
L 265.183587 377.340765 
L 265.536105 359.63658 
L 265.888622 374.796964 
L 266.24114 360.43818 
L 266.593657 372.514602 
L 266.946175 367.586259 
L 267.298692 376.912189 
L 267.65121 366.944721 
L 268.003727 376.794011 
L 268.356245 367.041917 
L 268.708762 377.240273 
L 269.06128 372.311127 
L 269.413797 378.860276 
L 269.766315 379.18426 
L 270.118833 379.279928 
L 270.47135 374.044484 
L 270.823868 373.803304 
L 271.176385 365.104361 
L 271.528903 376.77552 
L 271.88142 370.405728 
L 272.233938 377.508786 
L 272.586455 365.531249 
L 272.938973 376.864757 
L 273.29149 366.41887 
L 273.644008 376.851894 
L 273.996525 367.937577 
L 274.349043 376.569794 
L 274.70156 361.394859 
L 275.054078 375.587309 
L 275.406595 363.060686 
L 275.759113 374.729514 
L 276.111631 373.289592 
L 276.464148 377.653494 
L 276.816666 379.111103 
L 277.169183 379.405342 
L 277.521701 373.159274 
L 277.874218 371.150169 
L 278.226736 364.357428 
L 278.579253 375.697448 
L 278.931771 366.225042 
L 279.284288 377.406767 
L 279.636806 354.840082 
L 279.989323 376.649383 
L 280.341841 365.654331 
L 280.694358 377.123703 
L 281.046876 367.636907 
L 281.399394 377.149429 
L 281.751911 367.864419 
L 282.104429 376.929071 
L 282.456946 363.920089 
L 282.809464 377.179174 
L 283.161981 372.407598 
L 283.514499 378.894041 
L 283.867016 378.92861 
L 284.219534 379.406146 
L 284.572051 372.584463 
L 284.924569 377.784615 
L 285.277086 365.038438 
L 285.629604 377.509671 
L 285.982121 367.548394 
L 286.334639 376.996682 
L 286.687156 367.517925 
L 287.039674 377.011153 
L 287.392192 365.265228 
L 287.744709 376.932367 
L 288.097227 349.04277 
L 288.449744 368.294523 
L 288.802262 367.275137 
L 289.154779 376.776324 
L 289.507297 365.979923 
L 289.859814 377.355235 
L 290.212332 373.835461 
L 290.564849 377.185606 
L 291.269884 379.557285 
L 291.622402 379.841877 
L 291.974919 379.435891 
L 292.327437 375.207049 
L 293.032472 379.287968 
L 293.38499 379.755936 
L 294.442542 379.933605 
L 294.79506 377.544963 
L 295.147577 379.221241 
L 295.500095 379.762368 
L 295.852612 378.670548 
L 296.20513 379.6667 
L 296.557647 379.010611 
L 296.910165 379.725307 
L 297.262682 373.490575 
L 297.6152 378.385072 
L 297.967717 378.774255 
L 298.320235 378.952728 
L 298.672753 375.261717 
L 299.02527 379.358714 
L 299.377788 379.749424 
L 299.730305 379.748621 
L 300.082823 379.058847 
L 301.140375 379.035533 
L 301.492893 379.863663 
L 301.84541 379.891801 
L 302.550445 379.806584 
L 302.902963 379.086181 
L 303.25548 376.864033 
L 303.607998 378.775059 
L 303.960516 376.205613 
L 304.313033 378.38266 
L 304.665551 379.656168 
L 305.018068 379.333792 
L 305.370586 379.762287 
L 305.723103 379.108691 
L 306.075621 379.074926 
L 306.428138 378.922179 
L 306.780656 377.538532 
L 307.133173 377.61579 
L 307.485691 379.267065 
L 307.838208 379.719679 
L 308.190726 379.788013 
L 308.543243 374.854043 
L 308.895761 377.689671 
L 309.248278 355.703585 
L 309.600796 376.382478 
L 309.953314 365.795823 
L 310.305831 375.858315 
L 310.658349 365.108381 
L 311.010866 376.85921 
L 311.363384 366.416458 
L 311.715901 376.928267 
L 312.068419 367.302391 
L 312.420936 377.148625 
L 312.773454 365.231382 
L 313.125971 377.002309 
L 313.478489 361.324113 
L 313.831006 376.68556 
L 314.183524 373.293531 
L 314.536041 379.076534 
L 314.888559 379.61356 
L 315.241077 379.626503 
L 315.593594 372.462346 
L 315.946112 376.921112 
L 316.298629 366.65603 
L 316.651147 375.751311 
L 317.003664 366.107748 
L 317.356182 377.228214 
L 317.708699 364.87524 
L 318.061217 377.082703 
L 318.413734 368.173933 
L 318.766252 377.101997 
L 319.118769 364.779572 
L 319.471287 376.7346 
L 319.823804 362.550189 
L 320.176322 376.894583 
L 320.528839 368.791353 
L 320.881357 377.142113 
L 321.233875 374.433667 
L 321.586392 378.921375 
L 321.93891 379.719759 
L 322.291427 379.66268 
L 322.643945 370.143646 
L 322.996462 376.833403 
L 323.34898 365.602075 
L 323.701497 377.258764 
L 324.054015 362.547778 
L 324.406532 374.00276 
L 324.75905 370.503084 
L 325.111567 376.96774 
L 325.464085 365.852098 
L 325.816602 369.207066 
L 326.16912 369.707915 
L 326.521638 375.970785 
L 326.874155 367.309626 
L 327.226673 377.243489 
L 327.57919 368.608056 
L 327.931708 377.461354 
L 328.284225 373.518712 
L 328.636743 379.292791 
L 329.341778 379.53799 
L 329.694295 373.02751 
L 330.046813 377.097977 
L 330.39933 368.988316 
L 330.751848 376.576949 
L 331.104365 367.57412 
L 331.456883 377.362471 
L 331.8094 365.010301 
L 332.161918 376.958013 
L 332.514436 370.493437 
L 332.866953 377.113252 
L 333.219471 364.121152 
L 333.571988 374.905495 
L 333.924506 366.771072 
L 334.277023 377.210528 
L 334.629541 361.251759 
L 334.982058 376.226515 
L 335.334576 367.48014 
L 335.687093 379.260634 
L 336.039611 376.213652 
L 336.392128 378.98167 
L 336.744646 379.211675 
L 337.097163 379.735758 
L 337.449681 379.649013 
L 337.802198 379.704485 
L 338.154716 378.736471 
L 338.507234 379.77515 
L 338.859751 379.812935 
L 339.212269 377.306196 
L 339.564786 379.31289 
L 339.917304 378.710745 
L 340.269821 379.532363 
L 340.622339 377.734772 
L 340.974856 377.601319 
L 341.327374 379.697169 
L 341.679891 379.781582 
L 342.032409 378.511289 
L 342.384926 377.741123 
L 342.737444 378.689762 
L 343.442479 378.69145 
L 343.794997 379.866075 
L 344.852549 379.681894 
L 345.205067 378.862688 
L 345.557584 379.00016 
L 346.262619 378.796765 
L 346.615137 379.859644 
L 346.967654 379.890997 
L 347.320172 379.729326 
L 347.672689 376.90013 
L 348.025207 378.455014 
L 348.730242 378.845001 
L 349.082759 378.680195 
L 349.435277 379.716463 
L 349.787795 379.841073 
L 350.49283 379.610344 
L 350.845347 378.830531 
L 351.197865 378.968807 
L 351.550382 378.654389 
L 351.9029 378.689842 
L 352.255417 379.88135 
L 352.607935 379.765584 
L 353.665487 379.874114 
L 354.018005 379.42142 
L 354.370522 379.808192 
L 354.72304 379.776758 
L 355.075558 379.935133 
L 355.780593 379.749424 
L 356.13311 379.714855 
L 356.485628 380.001055 
L 356.838145 379.906995 
L 357.190663 377.104409 
L 357.54318 372.03779 
L 357.895698 379.16979 
L 358.248215 378.498507 
L 358.600733 379.816955 
L 358.95325 379.730934 
L 359.305768 379.148084 
L 360.010803 379.148084 
L 360.36332 376.288338 
L 360.715838 379.054827 
L 361.068356 379.774427 
L 361.773391 379.71164 
L 362.125908 378.890825 
L 362.478426 379.164966 
L 363.183461 379.127181 
L 363.535978 379.878134 
L 364.593531 379.76068 
L 364.946048 379.25581 
L 365.298566 379.287968 
L 365.651083 378.900473 
L 366.003601 377.768537 
L 366.356119 379.543618 
L 367.413671 379.764699 
L 367.766189 371.272447 
L 368.118706 378.726019 
L 368.823741 379.164162 
L 369.176259 372.934978 
L 369.528776 378.88359 
L 369.881294 379.197927 
L 370.233811 379.665012 
L 370.586329 379.947192 
L 370.938846 377.977559 
L 371.291364 379.555677 
L 371.643881 379.499402 
L 371.996399 379.923878 
L 373.053952 379.8467 
L 373.758987 379.964959 
L 374.464022 379.712524 
L 374.816539 379.949684 
L 375.169057 379.602305 
L 375.521574 379.586226 
L 375.874092 377.364883 
L 376.226609 378.590959 
L 376.579127 379.002572 
L 377.284162 379.066083 
L 377.989197 379.820974 
L 378.341715 379.860367 
L 378.694232 379.717267 
L 379.04675 379.332988 
L 379.399267 379.313693 
L 379.751785 378.914863 
L 380.104302 379.107083 
L 380.45682 379.937545 
L 380.809337 379.870014 
L 381.514372 379.892524 
L 381.86689 379.204359 
L 382.219407 379.360322 
L 382.924442 379.217302 
L 383.27696 378.672156 
L 383.629478 379.772739 
L 383.981995 379.677875 
L 384.334513 379.735758 
L 384.68703 378.759704 
L 385.039548 379.300027 
L 385.392065 376.401692 
L 385.744583 378.728351 
L 386.0971 373.978561 
L 386.449618 377.967108 
L 386.802135 379.727799 
L 387.154653 379.208378 
L 387.50717 379.825878 
L 387.859688 379.93039 
L 388.564723 379.838661 
L 388.917241 379.994624 
L 389.622276 379.940841 
L 389.974793 379.77925 
L 390.327311 380.041332 
L 391.384863 379.876446 
L 391.737381 380.017938 
L 392.442416 379.896544 
L 392.794933 379.867683 
L 393.147451 379.001768 
L 393.499968 378.5748 
L 393.852486 378.997748 
L 394.205003 379.068494 
L 394.557521 377.48708 
L 394.910039 379.416597 
L 395.262556 379.874838 
L 395.615074 379.647325 
L 395.967591 379.09824 
L 396.320109 379.223653 
L 397.025144 379.128789 
L 397.377661 379.87733 
L 397.730179 379.780858 
L 398.082696 379.89582 
L 398.435214 379.804896 
L 398.787731 378.748529 
L 399.140249 379.316105 
L 399.492766 379.277517 
L 399.845284 379.111907 
L 400.197802 379.94486 
L 400.550319 379.812935 
L 401.255354 379.82821 
L 401.607872 106.877146 
L 401.960389 378.158444 
L 402.312907 378.730039 
L 402.665424 378.780606 
L 403.017942 379.762287 
L 403.370459 379.7077 
L 403.722977 378.583723 
L 404.075494 377.926107 
L 404.428012 379.359598 
L 404.780529 379.82829 
L 405.485564 379.898232 
L 405.838082 379.673131 
L 406.1906 379.735838 
L 406.543117 379.929586 
L 406.895635 379.817759 
L 407.248152 379.960135 
L 407.953187 379.798464 
L 408.305705 378.905296 
L 408.658222 374.964986 
L 409.01074 377.33361 
L 409.363257 378.892433 
L 409.715775 379.623288 
L 410.068292 378.766216 
L 410.42081 378.939865 
L 410.773327 378.522625 
L 411.125845 378.891629 
L 411.478362 379.874034 
L 411.83088 379.902172 
L 412.183398 379.492166 
L 412.535915 379.669916 
L 412.888433 379.122358 
L 413.24095 379.224457 
L 413.945985 378.922179 
L 414.298503 379.874838 
L 414.65102 379.878858 
L 415.003538 376.102629 
L 415.356055 379.058847 
L 415.708573 378.900473 
L 416.766125 379.100652 
L 417.118643 379.939152 
L 417.471161 379.221241 
L 417.823678 376.764346 
L 418.176196 378.664921 
L 418.881231 378.978454 
L 419.233748 379.106279 
L 419.586266 378.896453 
L 419.938783 379.980957 
L 420.291301 379.912623 
L 420.996336 379.935213 
L 421.348853 379.674739 
L 421.701371 379.694838 
L 422.406406 379.890997 
L 423.111441 379.915115 
L 423.816476 379.793641 
L 424.168994 379.977821 
L 424.521511 379.972918 
L 424.874029 371.990358 
L 425.226546 378.389172 
L 425.579064 379.75264 
L 425.931581 375.314776 
L 426.284099 379.710916 
L 426.636616 379.827486 
L 426.989134 377.154252 
L 427.341651 378.425269 
L 427.694169 374.567843 
L 428.046686 378.459838 
L 428.399204 379.859563 
L 428.751722 375.901727 
L 429.104239 378.610253 
L 429.456757 379.651425 
L 429.809274 378.513781 
L 430.161792 372.548367 
L 430.514309 378.102972 
L 430.866827 378.696194 
L 431.219344 379.72611 
L 432.276897 379.804172 
L 432.629414 377.862516 
L 432.981932 378.675372 
L 433.334449 378.974434 
L 433.686967 379.00418 
L 434.039484 380.010702 
L 434.392002 380.06947 
L 434.74452 378.598194 
L 435.097037 379.694757 
L 435.449555 378.784706 
L 435.802072 374.237427 
L 436.15459 377.424374 
L 436.507107 378.080382 
L 436.859625 379.548442 
L 437.212142 380.046879 
L 437.56466 379.798464 
L 437.917177 380.015526 
L 438.622212 380.124057 
L 438.97473 373.267082 
L 439.327247 378.98167 
L 439.679765 379.802564 
L 440.737318 379.45197 
L 441.089835 379.574167 
L 441.442353 380.049291 
L 441.79487 380.033212 
L 442.147388 376.468418 
L 442.499905 379.378892 
L 442.852423 379.868487 
L 443.20494 379.825074 
L 443.557458 379.907879 
L 443.909975 378.719588 
L 444.262493 378.748529 
L 444.61501 376.325399 
L 445.320045 379.665012 
L 445.672563 380.046156 
L 446.025081 379.680367 
L 446.377598 380.007567 
L 446.730116 378.971219 
L 447.787668 379.023474 
L 448.140186 380.06143 
L 448.492703 379.952096 
L 448.845221 379.57666 
L 449.197738 379.92235 
L 449.550256 379.039553 
L 450.607808 378.95514 
L 450.960326 379.985861 
L 451.665361 380.003547 
L 452.017879 379.966486 
L 452.370396 379.000964 
L 452.722914 379.076534 
L 453.075431 378.905296 
L 453.427949 379.013827 
L 453.780466 380.104762 
L 454.132984 377.825535 
L 454.485501 379.599974 
L 454.838019 377.938086 
L 455.190536 379.59515 
L 455.895571 379.987388 
L 456.248089 379.968898 
L 456.600606 380.15951 
L 456.953124 379.785682 
L 457.658159 380.007567 
L 458.010677 380.081529 
L 458.363194 378.126286 
L 458.715712 379.827406 
L 459.068229 379.410165 
L 459.420747 380.084744 
L 460.478299 379.906191 
L 460.830817 378.769432 
L 461.183334 374.641001 
L 461.535852 378.491995 
L 461.888369 378.748529 
L 462.240887 379.921466 
L 462.593405 379.972918 
L 462.945922 379.886897 
L 463.29844 377.413922 
L 463.650957 378.445447 
L 464.003475 378.980866 
L 464.355992 378.918159 
L 464.70851 378.411682 
L 465.061027 379.907879 
L 465.413545 380.015606 
L 465.766062 373.179453 
L 466.11858 379.003376 
L 466.471097 378.804724 
L 466.823615 378.753353 
L 467.176132 378.975238 
L 467.52865 378.968807 
L 467.881167 380.06545 
L 468.586203 379.970586 
L 468.93872 374.797848 
L 469.291238 378.603018 
L 469.643755 378.95514 
L 470.34879 378.869119 
L 470.701308 380.026057 
L 471.053825 379.946468 
L 471.406343 380.001939 
L 471.75886 377.188018 
L 472.463895 378.438935 
L 472.816413 379.767111 
L 473.521448 380.08386 
L 474.226483 379.982565 
L 474.579001 378.634371 
L 474.931518 379.915919 
L 475.284036 379.031513 
L 475.636553 379.411854 
L 475.989071 379.501814 
L 476.341588 380.076625 
L 476.694106 379.962466 
L 477.399141 379.9529 
L 477.751658 378.508154 
L 478.104176 374.308173 
L 478.456693 378.331289 
L 478.809211 378.460722 
L 479.161728 379.94478 
L 479.866764 379.946388 
L 480.219281 378.089225 
L 480.571799 377.691359 
L 480.924316 378.857864 
L 481.276834 378.270994 
L 481.629351 378.760588 
L 481.981869 380.03884 
L 482.334386 379.91825 
L 482.686904 380.045271 
L 483.039421 379.939152 
L 483.391939 378.861884 
L 484.096974 378.953532 
L 484.449491 378.718784 
L 484.802009 380.048567 
L 485.154527 380.013998 
L 485.507044 376.771581 
L 485.859562 379.260634 
L 486.212079 377.381765 
L 486.564597 378.277345 
L 486.917114 378.651977 
L 487.269632 378.81606 
L 487.622149 379.985861 
L 487.974667 378.603018 
L 488.327184 379.913427 
L 488.679702 379.905387 
L 489.032219 374.950515 
L 489.384737 379.025082 
L 489.737254 379.886897 
L 490.442289 380.013918 
L 490.794807 379.035533 
L 491.147325 379.906272 
L 492.204877 380.12888 
L 492.557395 379.789621 
L 493.614947 380.115213 
L 494.319982 380.057411 
L 494.6725 378.118247 
L 495.025017 378.389976 
L 495.730052 378.434112 
L 496.08257 379.426324 
L 496.435087 379.941645 
L 496.787605 379.776839 
L 497.140123 380.010783 
L 497.49264 378.512977 
L 497.845158 378.608565 
L 498.197675 378.463134 
L 498.550193 376.181495 
L 498.90271 379.497794 
L 499.255228 379.99792 
L 499.960263 379.986665 
L 500.31278 378.448663 
L 500.665298 378.637507 
L 501.370333 378.594979 
L 501.72285 380.030881 
L 502.075368 380.123333 
L 502.427886 378.956667 
L 502.780403 379.932721 
L 503.132921 377.309411 
L 503.485438 378.479212 
L 503.837956 378.054736 
L 504.190473 378.473585 
L 504.542991 379.992292 
L 504.895508 380.028389 
L 505.248026 371.097109 
L 505.600543 379.571756 
L 505.953061 379.868487 
L 506.658096 380.031685 
L 507.010613 377.827143 
L 507.363131 379.673051 
L 507.715648 380.079921 
L 508.068166 379.708424 
L 508.420684 379.960939 
L 508.773201 376.797307 
L 509.125719 379.635347 
L 509.478236 379.931113 
L 509.830754 375.820449 
L 510.183271 379.248575 
L 510.535789 379.947996 
L 510.888306 380.000251 
L 511.240824 379.837937 
L 511.593341 158.647697 
L 511.945859 376.959701 
L 512.298376 378.043481 
L 512.650894 378.128698 
L 513.003411 379.837937 
L 513.355929 379.904583 
L 513.708447 379.556481 
L 514.060964 379.717267 
L 514.413482 378.320034 
L 514.765999 378.488056 
L 515.471034 378.395523 
L 515.823552 380.023565 
L 516.881104 379.998724 
L 517.233622 378.433388 
L 517.586139 378.526644 
L 517.938657 378.462249 
L 518.291174 378.251619 
L 518.643692 374.03564 
L 518.996209 379.578991 
L 519.348727 379.313693 
L 519.701245 379.731014 
L 520.053762 378.152816 
L 520.758797 378.532272 
L 521.111315 378.398819 
L 521.463832 379.862055 
L 521.81635 378.600526 
L 522.168867 379.741385 
L 522.521385 379.794525 
L 522.873902 380.002743 
L 523.931455 379.687522 
L 524.283972 376.469303 
L 524.63649 378.679311 
L 524.989008 379.804092 
L 526.04656 379.924762 
L 526.399078 378.697882 
L 526.751595 379.7077 
L 527.104113 379.42946 
L 527.45663 379.836249 
L 528.161665 379.774427 
L 528.514183 377.201684 
L 528.8667 377.797398 
L 529.219218 378.071619 
L 529.571735 378.150404 
L 529.924253 379.935133 
L 530.981806 379.97131 
L 531.334323 378.426072 
L 531.686841 378.363366 
L 532.039358 378.505662 
L 532.391876 378.459114 
L 532.744393 379.992212 
L 533.801946 379.8057 
L 534.154463 378.429288 
L 534.506981 378.596506 
L 534.859498 375.196598 
L 535.564533 379.968898 
L 535.917051 379.840349 
L 536.269569 379.886977 
L 536.622086 378.566841 
L 536.974604 378.053932 
L 537.327121 378.37864 
L 537.679639 378.523348 
L 538.032156 378.502446 
L 538.384674 380.105566 
L 539.089709 380.081448 
L 539.442226 379.935133 
L 539.794744 380.15943 
L 540.499779 380.107174 
L 540.852296 380.047683 
L 541.204814 380.191667 
L 541.557331 379.583815 
L 541.909849 380.06135 
L 542.262367 379.984976 
L 542.614884 379.753444 
L 542.967402 380.000332 
L 543.672437 379.972998 
L 544.024954 377.721909 
L 544.377472 379.686718 
L 544.729989 379.963351 
L 545.082507 379.932801 
L 545.435024 378.003285 
L 545.787542 378.316014 
L 546.140059 378.334505 
L 546.492577 378.234817 
L 546.845094 380.01231 
L 547.197612 379.737366 
L 547.55013 379.998643 
L 547.902647 379.988273 
L 548.255165 378.372289 
L 548.607682 378.465546 
L 549.312717 378.301463 
L 549.665235 379.235712 
L 550.017752 376.983819 
L 550.37027 379.234104 
L 551.075305 374.606512 
L 551.427822 378.144777 
L 551.78034 369.461912 
L 552.132857 377.588376 
L 552.485375 379.91423 
L 552.837892 380.044548 
L 553.542928 379.980233 
L 553.895445 377.971047 
L 554.247963 376.627677 
L 554.952998 378.351307 
L 555.305515 378.884394 
L 555.658033 379.983369 
L 556.01055 380.077509 
L 556.715585 380.04696 
L 557.068103 380.153883 
L 557.42062 380.066254 
L 557.773138 379.516365 
L 558.125655 380.018742 
L 558.830691 380.094392 
L 559.183208 380.088764 
L 559.535726 380.221413 
L 559.888243 380.192391 
L 560.240761 379.972114 
L 560.593278 378.377033 
L 560.945796 379.395775 
L 561.298313 380.072685 
L 561.650831 380.137 
L 562.003348 380.04286 
L 562.355866 377.333529 
L 562.708383 377.906009 
L 563.413418 378.030618 
L 563.765936 380.116902 
L 564.470971 380.109586 
L 564.823489 379.956839 
L 565.176006 378.129422 
L 565.528524 377.667965 
L 565.881041 378.029011 
L 566.233559 378.078854 
L 566.586076 378.887529 
L 566.938594 380.009094 
L 567.643629 379.957643 
L 567.996146 377.946125 
L 568.348664 378.147189 
L 568.701181 378.146385 
L 569.053699 374.472256 
L 569.406216 379.230889 
L 569.758734 380.022038 
L 570.111252 379.883761 
L 570.463769 380.013998 
L 570.816287 378.013655 
L 571.521322 378.162383 
L 571.873839 377.258764 
L 572.226357 379.901368 
L 572.578874 380.081529 
L 573.283909 380.050979 
L 573.636427 380.222217 
L 576.10405 380.103235 
L 576.456567 380.247139 
L 576.809085 375.872946 
L 577.51412 379.509853 
L 578.219155 380.08788 
L 578.92419 380.051703 
L 579.276707 377.299764 
L 579.629225 377.894754 
L 580.33426 377.993557 
L 580.686777 380.182744 
L 581.039295 379.361125 
L 581.391812 377.943794 
L 581.74433 379.702796 
L 582.096848 377.782927 
L 582.449365 378.065188 
L 582.801883 378.114227 
L 583.1544 377.918872 
L 583.506918 380.108782 
L 584.211953 380.103958 
L 584.56447 378.331289 
L 584.916988 377.689671 
L 585.269505 375.826077 
L 585.622023 377.794182 
L 585.97454 375.05181 
L 586.327058 379.481715 
L 586.679575 380.030077 
L 587.384611 380.06545 
L 587.737128 377.700122 
L 588.089646 378.112539 
L 588.442163 377.469394 
L 588.794681 378.002481 
L 589.147198 377.434825 
L 589.499716 379.80176 
L 589.852233 380.053391 
L 590.204751 380.054999 
L 590.557268 380.252766 
L 590.909786 380.116902 
L 591.262303 380.142628 
L 591.614821 377.194449 
L 591.967338 379.997116 
L 592.319856 380.174785 
L 592.672373 379.938429 
L 593.024891 379.909407 
L 593.377409 380.17792 
L 593.729926 380.210881 
L 594.434961 380.095919 
L 594.787479 380.244727 
L 595.139996 380.224629 
L 595.492514 380.075097 
L 595.845031 380.157098 
L 596.197549 375.018929 
L 596.550066 377.293333 
L 596.902584 377.819988 
L 597.255101 377.609278 
L 597.607619 380.150667 
L 598.312654 380.118429 
L 598.665172 379.912623 
L 599.017689 378.115835 
L 599.370207 378.330485 
L 600.075242 378.174522 
L 600.780277 379.858036 
L 601.132794 380.063842 
L 601.485312 380.037312 
L 601.837829 378.015344 
L 602.190347 378.180954 
L 602.542864 378.215523 
L 602.895382 378.081186 
L 603.600417 380.063842 
L 603.952934 379.762287 
L 604.305452 380.035624 
L 604.65797 375.887176 
L 605.010487 376.24171 
L 605.715522 378.088421 
L 606.06804 379.978625 
L 606.420557 380.16353 
L 607.125592 380.077509 
L 607.47811 380.243119 
L 608.535662 380.119313 
L 608.88818 378.163267 
L 609.240697 379.777562 
L 609.593215 380.06537 
L 610.650768 380.006763 
L 611.003285 380.165942 
L 611.355803 380.095196 
L 611.70832 379.857955 
L 612.060838 380.154606 
L 612.765873 380.009898 
L 613.11839 377.56265 
L 613.470908 376.421871 
L 614.175943 377.779711 
L 614.52846 379.890916 
L 615.233495 380.104843 
L 615.586013 380.160314 
L 615.938531 378.1086 
L 616.291048 378.312798 
L 616.996083 378.182481 
L 617.348601 380.273588 
L 617.701118 375.564799 
L 618.053636 379.787209 
L 618.406153 379.893328 
L 618.758671 377.220979 
L 619.111188 377.79177 
L 619.463706 375.855018 
L 620.521258 380.097607 
L 620.873776 380.156294 
L 621.226294 379.970586 
L 621.578811 378.094933 
L 621.931329 378.200168 
L 622.283846 378.176854 
L 622.636364 377.708161 
L 622.636364 377.708161 
" clip-path="url(#p02b741478d)" style="fill: none; stroke: #1f77b4; stroke-width: 1.5; stroke-linecap: square"/>
   </g>
   <g id="patch_3">
    <path d="M 90 384.48 
L 90 51.84 
" style="fill: none; stroke: #000000; stroke-width: 0.8; stroke-linejoin: miter; stroke-linecap: square"/>
   </g>
   <g id="patch_4">
    <path d="M 648 384.48 
L 648 51.84 
" style="fill: none; stroke: #000000; stroke-width: 0.8; stroke-linejoin: miter; stroke-linecap: square"/>
   </g>
   <g id="patch_5">
    <path d="M 90 384.48 
L 648 384.48 
" style="fill: none; stroke: #000000; stroke-width: 0.8; stroke-linejoin: miter; stroke-linecap: square"/>
   </g>
   <g id="patch_6">
    <path d="M 90 51.84 
L 648 51.84 
" style="fill: none; stroke: #000000; stroke-width: 0.8; stroke-linejoin: miter; stroke-linecap: square"/>
   </g>
   <g id="text_20">
    <!-- Average time per index -->
    <g transform="translate(298.700625 45.84) scale(0.12 -0.12)">
     <defs>
      <path id="DejaVuSans-70" d="M 1159 525 
L 1159 -1331 
L 581 -1331 
L 581 3500 
L 1159 3500 
L 1159 2969 
Q 1341 3281 1617 3432 
Q 1894 3584 2278 3584 
Q 2916 3584 3314 3078 
Q 3713 2572 3713 1747 
Q 3713 922 3314 415 
Q 2916 -91 2278 -91 
Q 1894 -91 1617 61 
Q 1341 213 1159 525 
z
M 3116 1747 
Q 3116 2381 2855 2742 
Q 2594 3103 2138 3103 
Q 1681 3103 1420 2742 
Q 1159 2381 1159 1747 
Q 1159 1113 1420 752 
Q 1681 391 2138 391 
Q 2594 391 2855 752 
Q 3116 1113 3116 1747 
z
" transform="scale(0.015625)"/>
     </defs>
     <use xlink:href="#DejaVuSans-41"/>
     <use xlink:href="#DejaVuSans-76" transform="translate(62.533203 0)"/>
     <use xlink:href="#DejaVuSans-65" transform="translate(121.712891 0)"/>
     <use xlink:href="#DejaVuSans-72" transform="translate(183.236328 0)"/>
     <use xlink:href="#DejaVuSans-61" transform="translate(224.349609 0)"/>
     <use xlink:href="#DejaVuSans-67" transform="translate(285.628906 0)"/>
     <use xlink:href="#DejaVuSans-65" transform="translate(349.105469 0)"/>
     <use xlink:href="#DejaVuSans-20" transform="translate(410.628906 0)"/>
     <use xlink:href="#DejaVuSans-74" transform="translate(442.416016 0)"/>
     <use xlink:href="#DejaVuSans-69" transform="translate(481.625 0)"/>
     <use xlink:href="#DejaVuSans-6d" transform="translate(509.408203 0)"/>
     <use xlink:href="#DejaVuSans-65" transform="translate(606.820312 0)"/>
     <use xlink:href="#DejaVuSans-20" transform="translate(668.34375 0)"/>
     <use xlink:href="#DejaVuSans-70" transform="translate(700.130859 0)"/>
     <use xlink:href="#DejaVuSans-65" transform="translate(763.607422 0)"/>
     <use xlink:href="#DejaVuSans-72" transform="translate(825.130859 0)"/>
     <use xlink:href="#DejaVuSans-20" transform="translate(866.244141 0)"/>
     <use xlink:href="#DejaVuSans-69" transform="translate(898.03125 0)"/>
     <use xlink:href="#DejaVuSans-6e" transform="translate(925.814453 0)"/>
     <use xlink:href="#DejaVuSans-64" transform="translate(989.193359 0)"/>
     <use xlink:href="#DejaVuSans-65" transform="translate(1052.669922 0)"/>
     <use xlink:href="#DejaVuSans-78" transform="translate(1112.443359 0)"/>
    </g>
   </g>
   <g id="legend_1">
    <g id="patch_7">
     <path d="M 515.8875 74.518125 
L 641 74.518125 
Q 643 74.518125 643 72.518125 
L 643 58.84 
Q 643 56.84 641 56.84 
L 515.8875 56.84 
Q 513.8875 56.84 513.8875 58.84 
L 513.8875 72.518125 
Q 513.8875 74.518125 515.8875 74.518125 
z
" style="fill: #ffffff; opacity: 0.8; stroke: #cccccc; stroke-linejoin: miter"/>
    </g>
    <g id="line2d_19">
     <path d="M 517.8875 64.938438 
L 527.8875 64.938438 
L 537.8875 64.938438 
" style="fill: none; stroke: #1f77b4; stroke-width: 1.5; stroke-linecap: square"/>
    </g>
    <g id="text_21">
     <!-- getExpectedPoints -->
     <g transform="translate(545.8875 68.438438) scale(0.1 -0.1)">
      <defs>
       <path id="DejaVuSans-45" d="M 628 4666 
L 3578 4666 
L 3578 4134 
L 1259 4134 
L 1259 2753 
L 3481 2753 
L 3481 2222 
L 1259 2222 
L 1259 531 
L 3634 531 
L 3634 0 
L 628 0 
L 628 4666 
z
" transform="scale(0.015625)"/>
       <path id="DejaVuSans-63" d="M 3122 3366 
L 3122 2828 
Q 2878 2963 2633 3030 
Q 2388 3097 2138 3097 
Q 1578 3097 1268 2742 
Q 959 2388 959 1747 
Q 959 1106 1268 751 
Q 1578 397 2138 397 
Q 2388 397 2633 464 
Q 2878 531 3122 666 
L 3122 134 
Q 2881 22 2623 -34 
Q 2366 -91 2075 -91 
Q 1284 -91 818 406 
Q 353 903 353 1747 
Q 353 2603 823 3093 
Q 1294 3584 2113 3584 
Q 2378 3584 2631 3529 
Q 2884 3475 3122 3366 
z
" transform="scale(0.015625)"/>
       <path id="DejaVuSans-50" d="M 1259 4147 
L 1259 2394 
L 2053 2394 
Q 2494 2394 2734 2622 
Q 2975 2850 2975 3272 
Q 2975 3691 2734 3919 
Q 2494 4147 2053 4147 
L 1259 4147 
z
M 628 4666 
L 2053 4666 
Q 2838 4666 3239 4311 
Q 3641 3956 3641 3272 
Q 3641 2581 3239 2228 
Q 2838 1875 2053 1875 
L 1259 1875 
L 1259 0 
L 628 0 
L 628 4666 
z
" transform="scale(0.015625)"/>
       <path id="DejaVuSans-6f" d="M 1959 3097 
Q 1497 3097 1228 2736 
Q 959 2375 959 1747 
Q 959 1119 1226 758 
Q 1494 397 1959 397 
Q 2419 397 2687 759 
Q 2956 1122 2956 1747 
Q 2956 2369 2687 2733 
Q 2419 3097 1959 3097 
z
M 1959 3584 
Q 2709 3584 3137 3096 
Q 3566 2609 3566 1747 
Q 3566 888 3137 398 
Q 2709 -91 1959 -91 
Q 1206 -91 779 398 
Q 353 888 353 1747 
Q 353 2609 779 3096 
Q 1206 3584 1959 3584 
z
" transform="scale(0.015625)"/>
      </defs>
      <use xlink:href="#DejaVuSans-67"/>
      <use xlink:href="#DejaVuSans-65" transform="translate(63.476562 0)"/>
      <use xlink:href="#DejaVuSans-74" transform="translate(125 0)"/>
      <use xlink:href="#DejaVuSans-45" transform="translate(164.208984 0)"/>
      <use xlink:href="#DejaVuSans-78" transform="translate(227.392578 0)"/>
      <use xlink:href="#DejaVuSans-70" transform="translate(286.572266 0)"/>
      <use xlink:href="#DejaVuSans-65" transform="translate(350.048828 0)"/>
      <use xlink:href="#DejaVuSans-63" transform="translate(411.572266 0)"/>
      <use xlink:href="#DejaVuSans-74" transform="translate(466.552734 0)"/>
      <use xlink:href="#DejaVuSans-65" transform="translate(505.761719 0)"/>
      <use xlink:href="#DejaVuSans-64" transform="translate(567.285156 0)"/>
      <use xlink:href="#DejaVuSans-50" transform="translate(630.761719 0)"/>
      <use xlink:href="#DejaVuSans-6f" transform="translate(687.439453 0)"/>
      <use xlink:href="#DejaVuSans-69" transform="translate(748.621094 0)"/>
      <use xlink:href="#DejaVuSans-6e" transform="translate(776.404297 0)"/>
      <use xlink:href="#DejaVuSans-74" transform="translate(839.783203 0)"/>
      <use xlink:href="#DejaVuSans-73" transform="translate(878.992188 0)"/>
     </g>
    </g>
   </g>
  </g>
 </g>
 <defs>
  <clipPath id="p02b741478d">
   <rect x="90" y="51.84" width="558" height="332.64"/>
  </clipPath>
 </defs>
</svg>
