<?xml version="1.0" encoding="utf-8" standalone="no"?>
<!DOCTYPE svg PUBLIC "-//W3C//DTD SVG 1.1//EN"
  "http://www.w3.org/Graphics/SVG/1.1/DTD/svg11.dtd">
<svg xmlns:xlink="http://www.w3.org/1999/xlink" width="576pt" height="432pt" viewBox="0 0 576 432" xmlns="http://www.w3.org/2000/svg" version="1.1">
 <metadata>
  <rdf:RDF xmlns:dc="http://purl.org/dc/elements/1.1/" xmlns:cc="http://creativecommons.org/ns#" xmlns:rdf="http://www.w3.org/1999/02/22-rdf-syntax-ns#">
   <cc:Work>
    <dc:type rdf:resource="http://purl.org/dc/dcmitype/StillImage"/>
    <dc:date>2025-09-30T20:46:02.060040</dc:date>
    <dc:format>image/svg+xml</dc:format>
    <dc:creator>
     <cc:Agent>
      <dc:title>Matplotlib v3.10.3, https://matplotlib.org/</dc:title>
     </cc:Agent>
    </dc:creator>
   </cc:Work>
  </rdf:RDF>
 </metadata>
 <defs>
  <style type="text/css">*{stroke-linejoin: round; stroke-linecap: butt}</style>
 </defs>
 <g id="figure_1">
  <g id="patch_1">
   <path d="M 0 432 
L 576 432 
L 576 0 
L 0 0 
z
" style="fill: #ffffff"/>
  </g>
  <g id="axes_1">
   <g id="patch_2">
    <path d="M 72 384.48 
L 518.4 384.48 
L 518.4 51.84 
L 72 51.84 
z
" style="fill: #ffffff"/>
   </g>
   <g id="FillBetweenPolyCollection_1">
    <path d="M 390.419676 381.064818 
L 199.980324 381.064818 
L 183.6 377.897672 
L 219.042166 374.730526 
L 256.747376 371.56338 
L 272.49175 368.396234 
L 278.71381 365.229088 
L 284.171798 362.061942 
L 288.526504 358.894796 
L 291.219155 355.72765 
L 292.617639 352.560504 
L 293.298511 349.393358 
L 293.766007 346.226213 
L 294.123614 343.059067 
L 294.32895 339.891921 
L 294.464536 336.724775 
L 294.616306 333.557629 
L 294.709533 330.390483 
L 294.721073 327.223337 
L 294.741947 324.056191 
L 294.739656 320.889045 
L 294.606105 317.721899 
L 294.491675 314.554753 
L 294.525404 311.387608 
L 294.636777 308.220462 
L 294.797934 305.053316 
L 294.978717 301.88617 
L 295.083032 298.719024 
L 295.082606 295.551878 
L 295.059921 292.384732 
L 295.058658 289.217586 
L 295.085915 286.05044 
L 295.142536 282.883294 
L 295.18467 279.716148 
L 295.19793 276.549002 
L 295.199529 273.381857 
L 295.19594 270.214711 
L 295.175689 267.047565 
L 295.127939 263.880419 
L 295.094076 260.713273 
L 295.119192 257.546127 
L 295.147149 254.378981 
L 295.121386 251.211835 
L 295.093956 248.044689 
L 295.125216 244.877543 
L 295.173834 241.710397 
L 295.195473 238.543252 
L 295.199613 235.376106 
L 295.199984 232.20896 
L 295.2 229.041814 
L 295.2 225.874668 
L 295.2 222.707522 
L 295.2 219.540376 
L 295.2 216.37323 
L 295.2 213.206084 
L 295.2 210.038938 
L 295.2 206.871792 
L 295.2 203.704647 
L 295.2 200.537501 
L 295.2 197.370355 
L 295.2 194.203209 
L 295.2 191.036063 
L 295.2 187.868917 
L 295.2 184.701771 
L 295.2 181.534625 
L 295.2 178.367479 
L 295.199993 175.200333 
L 295.199804 172.033187 
L 295.197299 168.866041 
L 295.181569 165.698896 
L 295.137812 162.53175 
L 295.096266 159.364604 
L 295.114453 156.197458 
L 295.165122 153.030312 
L 295.19297 149.863166 
L 295.199299 146.69602 
L 295.199965 143.528874 
L 295.199999 140.361728 
L 295.2 137.194582 
L 295.2 134.027436 
L 295.2 130.860291 
L 295.2 127.693145 
L 295.199998 124.525999 
L 295.199933 121.358853 
L 295.198821 118.191707 
L 295.189732 115.024561 
L 295.15579 111.857415 
L 295.105892 108.690269 
L 295.100962 105.523123 
L 295.148472 102.355977 
L 295.186746 99.188831 
L 295.198315 96.021685 
L 295.199894 92.85454 
L 295.199997 89.687394 
L 295.2 86.520248 
L 295.199984 83.353102 
L 295.199623 80.185956 
L 295.195563 77.01881 
L 295.174184 73.851664 
L 295.125733 70.684518 
L 295.094377 67.517372 
L 295.305623 67.517372 
L 295.305623 67.517372 
L 295.274267 70.684518 
L 295.225816 73.851664 
L 295.204437 77.01881 
L 295.200377 80.185956 
L 295.200016 83.353102 
L 295.2 86.520248 
L 295.200003 89.687394 
L 295.200106 92.85454 
L 295.201685 96.021685 
L 295.213254 99.188831 
L 295.251528 102.355977 
L 295.299038 105.523123 
L 295.294108 108.690269 
L 295.24421 111.857415 
L 295.210268 115.024561 
L 295.201179 118.191707 
L 295.200067 121.358853 
L 295.200002 124.525999 
L 295.2 127.693145 
L 295.2 130.860291 
L 295.2 134.027436 
L 295.2 137.194582 
L 295.200001 140.361728 
L 295.200035 143.528874 
L 295.200701 146.69602 
L 295.20703 149.863166 
L 295.234878 153.030312 
L 295.285547 156.197458 
L 295.303734 159.364604 
L 295.262188 162.53175 
L 295.218431 165.698896 
L 295.202701 168.866041 
L 295.200196 172.033187 
L 295.200007 175.200333 
L 295.2 178.367479 
L 295.2 181.534625 
L 295.2 184.701771 
L 295.2 187.868917 
L 295.2 191.036063 
L 295.2 194.203209 
L 295.2 197.370355 
L 295.2 200.537501 
L 295.2 203.704647 
L 295.2 206.871792 
L 295.2 210.038938 
L 295.2 213.206084 
L 295.2 216.37323 
L 295.2 219.540376 
L 295.2 222.707522 
L 295.2 225.874668 
L 295.2 229.041814 
L 295.200016 232.20896 
L 295.200387 235.376106 
L 295.204527 238.543252 
L 295.226166 241.710397 
L 295.274784 244.877543 
L 295.306044 248.044689 
L 295.278614 251.211835 
L 295.252851 254.378981 
L 295.280808 257.546127 
L 295.305924 260.713273 
L 295.272061 263.880419 
L 295.224311 267.047565 
L 295.20406 270.214711 
L 295.200471 273.381857 
L 295.20207 276.549002 
L 295.21533 279.716148 
L 295.257464 282.883294 
L 295.314085 286.05044 
L 295.341342 289.217586 
L 295.340079 292.384732 
L 295.317394 295.551878 
L 295.316968 298.719024 
L 295.421283 301.88617 
L 295.602066 305.053316 
L 295.763223 308.220462 
L 295.874596 311.387608 
L 295.908325 314.554753 
L 295.793895 317.721899 
L 295.660344 320.889045 
L 295.658053 324.056191 
L 295.678927 327.223337 
L 295.690467 330.390483 
L 295.783694 333.557629 
L 295.935464 336.724775 
L 296.07105 339.891921 
L 296.276386 343.059067 
L 296.633993 346.226213 
L 297.101489 349.393358 
L 297.782361 352.560504 
L 299.180845 355.72765 
L 301.873496 358.894796 
L 306.228202 362.061942 
L 311.68619 365.229088 
L 317.90825 368.396234 
L 333.652624 371.56338 
L 371.357834 374.730526 
L 406.8 377.897672 
L 390.419676 381.064818 
z
" clip-path="url(#p6e246cd1af)" style="fill: #1f77b4; fill-opacity: 0.3"/>
   </g>
   <g id="matplotlib.axis_1">
    <g id="xtick_1">
     <g id="line2d_1">
      <defs>
       <path id="m6e5b42747f" d="M 0 0 
L 0 3.5 
" style="stroke: #000000; stroke-width: 0.8"/>
      </defs>
      <g>
       <use xlink:href="#m6e5b42747f" x="295.2" y="384.48" style="stroke: #000000; stroke-width: 0.8"/>
      </g>
     </g>
     <g id="text_1">
      <!-- 1 -->
      <g transform="translate(292.01875 399.078438) scale(0.1 -0.1)">
       <defs>
        <path id="DejaVuSans-31" d="M 794 531 
L 1825 531 
L 1825 4091 
L 703 3866 
L 703 4441 
L 1819 4666 
L 2450 4666 
L 2450 531 
L 3481 531 
L 3481 0 
L 794 0 
L 794 531 
z
" transform="scale(0.015625)"/>
       </defs>
       <use xlink:href="#DejaVuSans-31"/>
      </g>
     </g>
    </g>
   </g>
   <g id="matplotlib.axis_2">
    <g id="ytick_1">
     <g id="line2d_2">
      <defs>
       <path id="m224be212a5" d="M 0 0 
L -3.5 0 
" style="stroke: #000000; stroke-width: 0.8"/>
      </defs>
      <g>
       <use xlink:href="#m224be212a5" x="72" y="384.48" style="stroke: #000000; stroke-width: 0.8"/>
      </g>
     </g>
     <g id="text_2">
      <!-- 0.0 -->
      <g transform="translate(49.096875 388.279219) scale(0.1 -0.1)">
       <defs>
        <path id="DejaVuSans-30" d="M 2034 4250 
Q 1547 4250 1301 3770 
Q 1056 3291 1056 2328 
Q 1056 1369 1301 889 
Q 1547 409 2034 409 
Q 2525 409 2770 889 
Q 3016 1369 3016 2328 
Q 3016 3291 2770 3770 
Q 2525 4250 2034 4250 
z
M 2034 4750 
Q 2819 4750 3233 4129 
Q 3647 3509 3647 2328 
Q 3647 1150 3233 529 
Q 2819 -91 2034 -91 
Q 1250 -91 836 529 
Q 422 1150 422 2328 
Q 422 3509 836 4129 
Q 1250 4750 2034 4750 
z
" transform="scale(0.015625)"/>
        <path id="DejaVuSans-2e" d="M 684 794 
L 1344 794 
L 1344 0 
L 684 0 
L 684 794 
z
" transform="scale(0.015625)"/>
       </defs>
       <use xlink:href="#DejaVuSans-30"/>
       <use xlink:href="#DejaVuSans-2e" transform="translate(63.623047 0)"/>
       <use xlink:href="#DejaVuSans-30" transform="translate(95.410156 0)"/>
      </g>
     </g>
    </g>
    <g id="ytick_2">
     <g id="line2d_3">
      <g>
       <use xlink:href="#m224be212a5" x="72" y="344.283413" style="stroke: #000000; stroke-width: 0.8"/>
      </g>
     </g>
     <g id="text_3">
      <!-- 0.5 -->
      <g transform="translate(49.096875 348.082632) scale(0.1 -0.1)">
       <defs>
        <path id="DejaVuSans-35" d="M 691 4666 
L 3169 4666 
L 3169 4134 
L 1269 4134 
L 1269 2991 
Q 1406 3038 1543 3061 
Q 1681 3084 1819 3084 
Q 2600 3084 3056 2656 
Q 3513 2228 3513 1497 
Q 3513 744 3044 326 
Q 2575 -91 1722 -91 
Q 1428 -91 1123 -41 
Q 819 9 494 109 
L 494 744 
Q 775 591 1075 516 
Q 1375 441 1709 441 
Q 2250 441 2565 725 
Q 2881 1009 2881 1497 
Q 2881 1984 2565 2268 
Q 2250 2553 1709 2553 
Q 1456 2553 1204 2497 
Q 953 2441 691 2322 
L 691 4666 
z
" transform="scale(0.015625)"/>
       </defs>
       <use xlink:href="#DejaVuSans-30"/>
       <use xlink:href="#DejaVuSans-2e" transform="translate(63.623047 0)"/>
       <use xlink:href="#DejaVuSans-35" transform="translate(95.410156 0)"/>
      </g>
     </g>
    </g>
    <g id="ytick_3">
     <g id="line2d_4">
      <g>
       <use xlink:href="#m224be212a5" x="72" y="304.086827" style="stroke: #000000; stroke-width: 0.8"/>
      </g>
     </g>
     <g id="text_4">
      <!-- 1.0 -->
      <g transform="translate(49.096875 307.886045) scale(0.1 -0.1)">
       <use xlink:href="#DejaVuSans-31"/>
       <use xlink:href="#DejaVuSans-2e" transform="translate(63.623047 0)"/>
       <use xlink:href="#DejaVuSans-30" transform="translate(95.410156 0)"/>
      </g>
     </g>
    </g>
    <g id="ytick_4">
     <g id="line2d_5">
      <g>
       <use xlink:href="#m224be212a5" x="72" y="263.89024" style="stroke: #000000; stroke-width: 0.8"/>
      </g>
     </g>
     <g id="text_5">
      <!-- 1.5 -->
      <g transform="translate(49.096875 267.689459) scale(0.1 -0.1)">
       <use xlink:href="#DejaVuSans-31"/>
       <use xlink:href="#DejaVuSans-2e" transform="translate(63.623047 0)"/>
       <use xlink:href="#DejaVuSans-35" transform="translate(95.410156 0)"/>
      </g>
     </g>
    </g>
    <g id="ytick_5">
     <g id="line2d_6">
      <g>
       <use xlink:href="#m224be212a5" x="72" y="223.693653" style="stroke: #000000; stroke-width: 0.8"/>
      </g>
     </g>
     <g id="text_6">
      <!-- 2.0 -->
      <g transform="translate(49.096875 227.492872) scale(0.1 -0.1)">
       <defs>
        <path id="DejaVuSans-32" d="M 1228 531 
L 3431 531 
L 3431 0 
L 469 0 
L 469 531 
Q 828 903 1448 1529 
Q 2069 2156 2228 2338 
Q 2531 2678 2651 2914 
Q 2772 3150 2772 3378 
Q 2772 3750 2511 3984 
Q 2250 4219 1831 4219 
Q 1534 4219 1204 4116 
Q 875 4013 500 3803 
L 500 4441 
Q 881 4594 1212 4672 
Q 1544 4750 1819 4750 
Q 2544 4750 2975 4387 
Q 3406 4025 3406 3419 
Q 3406 3131 3298 2873 
Q 3191 2616 2906 2266 
Q 2828 2175 2409 1742 
Q 1991 1309 1228 531 
z
" transform="scale(0.015625)"/>
       </defs>
       <use xlink:href="#DejaVuSans-32"/>
       <use xlink:href="#DejaVuSans-2e" transform="translate(63.623047 0)"/>
       <use xlink:href="#DejaVuSans-30" transform="translate(95.410156 0)"/>
      </g>
     </g>
    </g>
    <g id="ytick_6">
     <g id="line2d_7">
      <g>
       <use xlink:href="#m224be212a5" x="72" y="183.497066" style="stroke: #000000; stroke-width: 0.8"/>
      </g>
     </g>
     <g id="text_7">
      <!-- 2.5 -->
      <g transform="translate(49.096875 187.296285) scale(0.1 -0.1)">
       <use xlink:href="#DejaVuSans-32"/>
       <use xlink:href="#DejaVuSans-2e" transform="translate(63.623047 0)"/>
       <use xlink:href="#DejaVuSans-35" transform="translate(95.410156 0)"/>
      </g>
     </g>
    </g>
    <g id="ytick_7">
     <g id="line2d_8">
      <g>
       <use xlink:href="#m224be212a5" x="72" y="143.30048" style="stroke: #000000; stroke-width: 0.8"/>
      </g>
     </g>
     <g id="text_8">
      <!-- 3.0 -->
      <g transform="translate(49.096875 147.099698) scale(0.1 -0.1)">
       <defs>
        <path id="DejaVuSans-33" d="M 2597 2516 
Q 3050 2419 3304 2112 
Q 3559 1806 3559 1356 
Q 3559 666 3084 287 
Q 2609 -91 1734 -91 
Q 1441 -91 1130 -33 
Q 819 25 488 141 
L 488 750 
Q 750 597 1062 519 
Q 1375 441 1716 441 
Q 2309 441 2620 675 
Q 2931 909 2931 1356 
Q 2931 1769 2642 2001 
Q 2353 2234 1838 2234 
L 1294 2234 
L 1294 2753 
L 1863 2753 
Q 2328 2753 2575 2939 
Q 2822 3125 2822 3475 
Q 2822 3834 2567 4026 
Q 2313 4219 1838 4219 
Q 1578 4219 1281 4162 
Q 984 4106 628 3988 
L 628 4550 
Q 988 4650 1302 4700 
Q 1616 4750 1894 4750 
Q 2613 4750 3031 4423 
Q 3450 4097 3450 3541 
Q 3450 3153 3228 2886 
Q 3006 2619 2597 2516 
z
" transform="scale(0.015625)"/>
       </defs>
       <use xlink:href="#DejaVuSans-33"/>
       <use xlink:href="#DejaVuSans-2e" transform="translate(63.623047 0)"/>
       <use xlink:href="#DejaVuSans-30" transform="translate(95.410156 0)"/>
      </g>
     </g>
    </g>
    <g id="ytick_8">
     <g id="line2d_9">
      <g>
       <use xlink:href="#m224be212a5" x="72" y="103.103893" style="stroke: #000000; stroke-width: 0.8"/>
      </g>
     </g>
     <g id="text_9">
      <!-- 3.5 -->
      <g transform="translate(49.096875 106.903112) scale(0.1 -0.1)">
       <use xlink:href="#DejaVuSans-33"/>
       <use xlink:href="#DejaVuSans-2e" transform="translate(63.623047 0)"/>
       <use xlink:href="#DejaVuSans-35" transform="translate(95.410156 0)"/>
      </g>
     </g>
    </g>
    <g id="ytick_9">
     <g id="line2d_10">
      <g>
       <use xlink:href="#m224be212a5" x="72" y="62.907306" style="stroke: #000000; stroke-width: 0.8"/>
      </g>
     </g>
     <g id="text_10">
      <!-- 4.0 -->
      <g transform="translate(49.096875 66.706525) scale(0.1 -0.1)">
       <defs>
        <path id="DejaVuSans-34" d="M 2419 4116 
L 825 1625 
L 2419 1625 
L 2419 4116 
z
M 2253 4666 
L 3047 4666 
L 3047 1625 
L 3713 1625 
L 3713 1100 
L 3047 1100 
L 3047 0 
L 2419 0 
L 2419 1100 
L 313 1100 
L 313 1709 
L 2253 4666 
z
" transform="scale(0.015625)"/>
       </defs>
       <use xlink:href="#DejaVuSans-34"/>
       <use xlink:href="#DejaVuSans-2e" transform="translate(63.623047 0)"/>
       <use xlink:href="#DejaVuSans-30" transform="translate(95.410156 0)"/>
      </g>
     </g>
    </g>
    <g id="text_11">
     <!-- Time (ms) -->
     <g transform="translate(43.017187 243.359219) rotate(-90) scale(0.1 -0.1)">
      <defs>
       <path id="DejaVuSans-54" d="M -19 4666 
L 3928 4666 
L 3928 4134 
L 2272 4134 
L 2272 0 
L 1638 0 
L 1638 4134 
L -19 4134 
L -19 4666 
z
" transform="scale(0.015625)"/>
       <path id="DejaVuSans-69" d="M 603 3500 
L 1178 3500 
L 1178 0 
L 603 0 
L 603 3500 
z
M 603 4863 
L 1178 4863 
L 1178 4134 
L 603 4134 
L 603 4863 
z
" transform="scale(0.015625)"/>
       <path id="DejaVuSans-6d" d="M 3328 2828 
Q 3544 3216 3844 3400 
Q 4144 3584 4550 3584 
Q 5097 3584 5394 3201 
Q 5691 2819 5691 2113 
L 5691 0 
L 5113 0 
L 5113 2094 
Q 5113 2597 4934 2840 
Q 4756 3084 4391 3084 
Q 3944 3084 3684 2787 
Q 3425 2491 3425 1978 
L 3425 0 
L 2847 0 
L 2847 2094 
Q 2847 2600 2669 2842 
Q 2491 3084 2119 3084 
Q 1678 3084 1418 2786 
Q 1159 2488 1159 1978 
L 1159 0 
L 581 0 
L 581 3500 
L 1159 3500 
L 1159 2956 
Q 1356 3278 1631 3431 
Q 1906 3584 2284 3584 
Q 2666 3584 2933 3390 
Q 3200 3197 3328 2828 
z
" transform="scale(0.015625)"/>
       <path id="DejaVuSans-65" d="M 3597 1894 
L 3597 1613 
L 953 1613 
Q 991 1019 1311 708 
Q 1631 397 2203 397 
Q 2534 397 2845 478 
Q 3156 559 3463 722 
L 3463 178 
Q 3153 47 2828 -22 
Q 2503 -91 2169 -91 
Q 1331 -91 842 396 
Q 353 884 353 1716 
Q 353 2575 817 3079 
Q 1281 3584 2069 3584 
Q 2775 3584 3186 3129 
Q 3597 2675 3597 1894 
z
M 3022 2063 
Q 3016 2534 2758 2815 
Q 2500 3097 2075 3097 
Q 1594 3097 1305 2825 
Q 1016 2553 972 2059 
L 3022 2063 
z
" transform="scale(0.015625)"/>
       <path id="DejaVuSans-20" transform="scale(0.015625)"/>
       <path id="DejaVuSans-28" d="M 1984 4856 
Q 1566 4138 1362 3434 
Q 1159 2731 1159 2009 
Q 1159 1288 1364 580 
Q 1569 -128 1984 -844 
L 1484 -844 
Q 1016 -109 783 600 
Q 550 1309 550 2009 
Q 550 2706 781 3412 
Q 1013 4119 1484 4856 
L 1984 4856 
z
" transform="scale(0.015625)"/>
       <path id="DejaVuSans-73" d="M 2834 3397 
L 2834 2853 
Q 2591 2978 2328 3040 
Q 2066 3103 1784 3103 
Q 1356 3103 1142 2972 
Q 928 2841 928 2578 
Q 928 2378 1081 2264 
Q 1234 2150 1697 2047 
L 1894 2003 
Q 2506 1872 2764 1633 
Q 3022 1394 3022 966 
Q 3022 478 2636 193 
Q 2250 -91 1575 -91 
Q 1294 -91 989 -36 
Q 684 19 347 128 
L 347 722 
Q 666 556 975 473 
Q 1284 391 1588 391 
Q 1994 391 2212 530 
Q 2431 669 2431 922 
Q 2431 1156 2273 1281 
Q 2116 1406 1581 1522 
L 1381 1569 
Q 847 1681 609 1914 
Q 372 2147 372 2553 
Q 372 3047 722 3315 
Q 1072 3584 1716 3584 
Q 2034 3584 2315 3537 
Q 2597 3491 2834 3397 
z
" transform="scale(0.015625)"/>
       <path id="DejaVuSans-29" d="M 513 4856 
L 1013 4856 
Q 1481 4119 1714 3412 
Q 1947 2706 1947 2009 
Q 1947 1309 1714 600 
Q 1481 -109 1013 -844 
L 513 -844 
Q 928 -128 1133 580 
Q 1338 1288 1338 2009 
Q 1338 2731 1133 3434 
Q 928 4138 513 4856 
z
" transform="scale(0.015625)"/>
      </defs>
      <use xlink:href="#DejaVuSans-54"/>
      <use xlink:href="#DejaVuSans-69" transform="translate(57.958984 0)"/>
      <use xlink:href="#DejaVuSans-6d" transform="translate(85.742188 0)"/>
      <use xlink:href="#DejaVuSans-65" transform="translate(183.154297 0)"/>
      <use xlink:href="#DejaVuSans-20" transform="translate(244.677734 0)"/>
      <use xlink:href="#DejaVuSans-28" transform="translate(276.464844 0)"/>
      <use xlink:href="#DejaVuSans-6d" transform="translate(315.478516 0)"/>
      <use xlink:href="#DejaVuSans-73" transform="translate(412.890625 0)"/>
      <use xlink:href="#DejaVuSans-29" transform="translate(464.990234 0)"/>
     </g>
    </g>
   </g>
   <g id="LineCollection_1">
    <path d="M 239.4 374.38098 
L 351 374.38098 
" clip-path="url(#p6e246cd1af)" style="fill: none; stroke: #1f77b4; stroke-width: 1.5"/>
   </g>
   <g id="LineCollection_2">
    <path d="M 239.4 67.517372 
L 351 67.517372 
" clip-path="url(#p6e246cd1af)" style="fill: none; stroke: #1f77b4; stroke-width: 1.5"/>
   </g>
   <g id="LineCollection_3">
    <path d="M 239.4 381.064818 
L 351 381.064818 
" clip-path="url(#p6e246cd1af)" style="fill: none; stroke: #1f77b4; stroke-width: 1.5"/>
   </g>
   <g id="LineCollection_4">
    <path d="M 295.2 381.064818 
L 295.2 67.517372 
" clip-path="url(#p6e246cd1af)" style="fill: none; stroke: #1f77b4; stroke-width: 1.5"/>
   </g>
   <g id="patch_3">
    <path d="M 250.56 379.774608 
L 339.84 379.774608 
L 339.84 375.272027 
L 250.56 375.272027 
L 250.56 379.774608 
z
" clip-path="url(#p6e246cd1af)" style="fill: #1f77b4; stroke: #000000; stroke-linejoin: miter"/>
   </g>
   <g id="line2d_11">
    <path d="M 295.2 379.774608 
L 295.2 381.064818 
" clip-path="url(#p6e246cd1af)" style="fill: none; stroke: #000000; stroke-linecap: square"/>
   </g>
   <g id="line2d_12">
    <path d="M 295.2 375.272027 
L 295.2 368.57196 
" clip-path="url(#p6e246cd1af)" style="fill: none; stroke: #000000; stroke-linecap: square"/>
   </g>
   <g id="line2d_13">
    <path d="M 272.88 381.064818 
L 317.52 381.064818 
" clip-path="url(#p6e246cd1af)" style="fill: none; stroke: #000000; stroke-linecap: square"/>
   </g>
   <g id="line2d_14">
    <path d="M 272.88 368.57196 
L 317.52 368.57196 
" clip-path="url(#p6e246cd1af)" style="fill: none; stroke: #000000; stroke-linecap: square"/>
   </g>
   <g id="line2d_15">
    <defs>
     <path id="m40efe7db8a" d="M 0 3 
C 0.795609 3 1.55874 2.683901 2.12132 2.12132 
C 2.683901 1.55874 3 0.795609 3 0 
C 3 -0.795609 2.683901 -1.55874 2.12132 -2.12132 
C 1.55874 -2.683901 0.795609 -3 0 -3 
C -0.795609 -3 -1.55874 -2.683901 -2.12132 -2.12132 
C -2.683901 -1.55874 -3 -0.795609 -3 0 
C -3 0.795609 -2.683901 1.55874 -2.12132 2.12132 
C -1.55874 2.683901 -0.795609 3 0 3 
z
" style="stroke: #000000"/>
    </defs>
    <g clip-path="url(#p6e246cd1af)">
     <use xlink:href="#m40efe7db8a" x="295.2" y="305.935226" style="fill-opacity: 0; stroke: #000000"/>
     <use xlink:href="#m40efe7db8a" x="295.2" y="347.045883" style="fill-opacity: 0; stroke: #000000"/>
     <use xlink:href="#m40efe7db8a" x="295.2" y="248.014437" style="fill-opacity: 0; stroke: #000000"/>
     <use xlink:href="#m40efe7db8a" x="295.2" y="317.647306" style="fill-opacity: 0; stroke: #000000"/>
     <use xlink:href="#m40efe7db8a" x="295.2" y="287.142599" style="fill-opacity: 0; stroke: #000000"/>
     <use xlink:href="#m40efe7db8a" x="295.2" y="350.616225" style="fill-opacity: 0; stroke: #000000"/>
     <use xlink:href="#m40efe7db8a" x="295.2" y="315.885087" style="fill-opacity: 0; stroke: #000000"/>
     <use xlink:href="#m40efe7db8a" x="295.2" y="338.927459" style="fill-opacity: 0; stroke: #000000"/>
     <use xlink:href="#m40efe7db8a" x="295.2" y="307.840545" style="fill-opacity: 0; stroke: #000000"/>
     <use xlink:href="#m40efe7db8a" x="295.2" y="311.854817" style="fill-opacity: 0; stroke: #000000"/>
     <use xlink:href="#m40efe7db8a" x="295.2" y="260.579569" style="fill-opacity: 0; stroke: #000000"/>
     <use xlink:href="#m40efe7db8a" x="295.2" y="328.924539" style="fill-opacity: 0; stroke: #000000"/>
     <use xlink:href="#m40efe7db8a" x="295.2" y="309.121369" style="fill-opacity: 0; stroke: #000000"/>
     <use xlink:href="#m40efe7db8a" x="295.2" y="314.355849" style="fill-opacity: 0; stroke: #000000"/>
     <use xlink:href="#m40efe7db8a" x="295.2" y="311.136825" style="fill-opacity: 0; stroke: #000000"/>
     <use xlink:href="#m40efe7db8a" x="295.2" y="346.060987" style="fill-opacity: 0; stroke: #000000"/>
     <use xlink:href="#m40efe7db8a" x="295.2" y="303.647156" style="fill-opacity: 0; stroke: #000000"/>
     <use xlink:href="#m40efe7db8a" x="295.2" y="333.403403" style="fill-opacity: 0; stroke: #000000"/>
     <use xlink:href="#m40efe7db8a" x="295.2" y="323.88043" style="fill-opacity: 0; stroke: #000000"/>
     <use xlink:href="#m40efe7db8a" x="295.2" y="315.863301" style="fill-opacity: 0; stroke: #000000"/>
     <use xlink:href="#m40efe7db8a" x="295.2" y="293.804138" style="fill-opacity: 0; stroke: #000000"/>
     <use xlink:href="#m40efe7db8a" x="295.2" y="335.088524" style="fill-opacity: 0; stroke: #000000"/>
     <use xlink:href="#m40efe7db8a" x="295.2" y="325.361352" style="fill-opacity: 0; stroke: #000000"/>
     <use xlink:href="#m40efe7db8a" x="295.2" y="343.761662" style="fill-opacity: 0; stroke: #000000"/>
     <use xlink:href="#m40efe7db8a" x="295.2" y="368.364545" style="fill-opacity: 0; stroke: #000000"/>
     <use xlink:href="#m40efe7db8a" x="295.2" y="360.656528" style="fill-opacity: 0; stroke: #000000"/>
     <use xlink:href="#m40efe7db8a" x="295.2" y="316.06758" style="fill-opacity: 0; stroke: #000000"/>
     <use xlink:href="#m40efe7db8a" x="295.2" y="360.862817" style="fill-opacity: 0; stroke: #000000"/>
     <use xlink:href="#m40efe7db8a" x="295.2" y="365.551508" style="fill-opacity: 0; stroke: #000000"/>
     <use xlink:href="#m40efe7db8a" x="295.2" y="356.70231" style="fill-opacity: 0; stroke: #000000"/>
     <use xlink:href="#m40efe7db8a" x="295.2" y="359.401993" style="fill-opacity: 0; stroke: #000000"/>
     <use xlink:href="#m40efe7db8a" x="295.2" y="362.420033" style="fill-opacity: 0; stroke: #000000"/>
     <use xlink:href="#m40efe7db8a" x="295.2" y="324.236572" style="fill-opacity: 0; stroke: #000000"/>
     <use xlink:href="#m40efe7db8a" x="295.2" y="359.004046" style="fill-opacity: 0; stroke: #000000"/>
     <use xlink:href="#m40efe7db8a" x="295.2" y="338.774712" style="fill-opacity: 0; stroke: #000000"/>
     <use xlink:href="#m40efe7db8a" x="295.2" y="362.083989" style="fill-opacity: 0; stroke: #000000"/>
     <use xlink:href="#m40efe7db8a" x="295.2" y="362.206187" style="fill-opacity: 0; stroke: #000000"/>
     <use xlink:href="#m40efe7db8a" x="295.2" y="354.62085" style="fill-opacity: 0; stroke: #000000"/>
     <use xlink:href="#m40efe7db8a" x="295.2" y="359.489621" style="fill-opacity: 0; stroke: #000000"/>
     <use xlink:href="#m40efe7db8a" x="295.2" y="355.883023" style="fill-opacity: 0; stroke: #000000"/>
     <use xlink:href="#m40efe7db8a" x="295.2" y="329.786434" style="fill-opacity: 0; stroke: #000000"/>
     <use xlink:href="#m40efe7db8a" x="295.2" y="357.779578" style="fill-opacity: 0; stroke: #000000"/>
     <use xlink:href="#m40efe7db8a" x="295.2" y="361.669964" style="fill-opacity: 0; stroke: #000000"/>
     <use xlink:href="#m40efe7db8a" x="295.2" y="357.870422" style="fill-opacity: 0; stroke: #000000"/>
     <use xlink:href="#m40efe7db8a" x="295.2" y="344.369514" style="fill-opacity: 0; stroke: #000000"/>
     <use xlink:href="#m40efe7db8a" x="295.2" y="360.397341" style="fill-opacity: 0; stroke: #000000"/>
     <use xlink:href="#m40efe7db8a" x="295.2" y="352.450877" style="fill-opacity: 0; stroke: #000000"/>
     <use xlink:href="#m40efe7db8a" x="295.2" y="351.047132" style="fill-opacity: 0; stroke: #000000"/>
     <use xlink:href="#m40efe7db8a" x="295.2" y="337.231003" style="fill-opacity: 0; stroke: #000000"/>
     <use xlink:href="#m40efe7db8a" x="295.2" y="362.719176" style="fill-opacity: 0; stroke: #000000"/>
     <use xlink:href="#m40efe7db8a" x="295.2" y="354.671498" style="fill-opacity: 0; stroke: #000000"/>
     <use xlink:href="#m40efe7db8a" x="295.2" y="361.289624" style="fill-opacity: 0; stroke: #000000"/>
     <use xlink:href="#m40efe7db8a" x="295.2" y="356.313126" style="fill-opacity: 0; stroke: #000000"/>
     <use xlink:href="#m40efe7db8a" x="295.2" y="361.475413" style="fill-opacity: 0; stroke: #000000"/>
     <use xlink:href="#m40efe7db8a" x="295.2" y="358.380919" style="fill-opacity: 0; stroke: #000000"/>
     <use xlink:href="#m40efe7db8a" x="295.2" y="367.317022" style="fill-opacity: 0; stroke: #000000"/>
     <use xlink:href="#m40efe7db8a" x="295.2" y="359.190559" style="fill-opacity: 0; stroke: #000000"/>
     <use xlink:href="#m40efe7db8a" x="295.2" y="364.683985" style="fill-opacity: 0; stroke: #000000"/>
     <use xlink:href="#m40efe7db8a" x="295.2" y="365.709882" style="fill-opacity: 0; stroke: #000000"/>
     <use xlink:href="#m40efe7db8a" x="295.2" y="366.111848" style="fill-opacity: 0; stroke: #000000"/>
     <use xlink:href="#m40efe7db8a" x="295.2" y="345.214366" style="fill-opacity: 0; stroke: #000000"/>
     <use xlink:href="#m40efe7db8a" x="295.2" y="366.924703" style="fill-opacity: 0; stroke: #000000"/>
     <use xlink:href="#m40efe7db8a" x="295.2" y="364.721046" style="fill-opacity: 0; stroke: #000000"/>
     <use xlink:href="#m40efe7db8a" x="295.2" y="366.158476" style="fill-opacity: 0; stroke: #000000"/>
     <use xlink:href="#m40efe7db8a" x="295.2" y="368.280936" style="fill-opacity: 0; stroke: #000000"/>
     <use xlink:href="#m40efe7db8a" x="295.2" y="367.909439" style="fill-opacity: 0; stroke: #000000"/>
     <use xlink:href="#m40efe7db8a" x="295.2" y="349.552623" style="fill-opacity: 0; stroke: #000000"/>
     <use xlink:href="#m40efe7db8a" x="295.2" y="365.838511" style="fill-opacity: 0; stroke: #000000"/>
     <use xlink:href="#m40efe7db8a" x="295.2" y="353.697052" style="fill-opacity: 0; stroke: #000000"/>
     <use xlink:href="#m40efe7db8a" x="295.2" y="361.525257" style="fill-opacity: 0; stroke: #000000"/>
     <use xlink:href="#m40efe7db8a" x="295.2" y="365.301405" style="fill-opacity: 0; stroke: #000000"/>
     <use xlink:href="#m40efe7db8a" x="295.2" y="365.775001" style="fill-opacity: 0; stroke: #000000"/>
     <use xlink:href="#m40efe7db8a" x="295.2" y="349.243913" style="fill-opacity: 0; stroke: #000000"/>
     <use xlink:href="#m40efe7db8a" x="295.2" y="366.648071" style="fill-opacity: 0; stroke: #000000"/>
     <use xlink:href="#m40efe7db8a" x="295.2" y="349.148165" style="fill-opacity: 0; stroke: #000000"/>
     <use xlink:href="#m40efe7db8a" x="295.2" y="366.513814" style="fill-opacity: 0; stroke: #000000"/>
     <use xlink:href="#m40efe7db8a" x="295.2" y="365.070676" style="fill-opacity: 0; stroke: #000000"/>
     <use xlink:href="#m40efe7db8a" x="295.2" y="368.424036" style="fill-opacity: 0; stroke: #000000"/>
     <use xlink:href="#m40efe7db8a" x="295.2" y="362.447366" style="fill-opacity: 0; stroke: #000000"/>
     <use xlink:href="#m40efe7db8a" x="295.2" y="364.540885" style="fill-opacity: 0; stroke: #000000"/>
     <use xlink:href="#m40efe7db8a" x="295.2" y="367.866108" style="fill-opacity: 0; stroke: #000000"/>
     <use xlink:href="#m40efe7db8a" x="295.2" y="364.053702" style="fill-opacity: 0; stroke: #000000"/>
     <use xlink:href="#m40efe7db8a" x="295.2" y="368.061463" style="fill-opacity: 0; stroke: #000000"/>
     <use xlink:href="#m40efe7db8a" x="295.2" y="365.509623" style="fill-opacity: 0; stroke: #000000"/>
     <use xlink:href="#m40efe7db8a" x="295.2" y="365.393133" style="fill-opacity: 0; stroke: #000000"/>
     <use xlink:href="#m40efe7db8a" x="295.2" y="367.647438" style="fill-opacity: 0; stroke: #000000"/>
     <use xlink:href="#m40efe7db8a" x="295.2" y="367.806617" style="fill-opacity: 0; stroke: #000000"/>
     <use xlink:href="#m40efe7db8a" x="295.2" y="366.937566" style="fill-opacity: 0; stroke: #000000"/>
     <use xlink:href="#m40efe7db8a" x="295.2" y="366.988214" style="fill-opacity: 0; stroke: #000000"/>
     <use xlink:href="#m40efe7db8a" x="295.2" y="368.150699" style="fill-opacity: 0; stroke: #000000"/>
     <use xlink:href="#m40efe7db8a" x="295.2" y="368.477176" style="fill-opacity: 0; stroke: #000000"/>
     <use xlink:href="#m40efe7db8a" x="295.2" y="367.529984" style="fill-opacity: 0; stroke: #000000"/>
     <use xlink:href="#m40efe7db8a" x="295.2" y="350.712697" style="fill-opacity: 0; stroke: #000000"/>
     <use xlink:href="#m40efe7db8a" x="295.2" y="336.691564" style="fill-opacity: 0; stroke: #000000"/>
     <use xlink:href="#m40efe7db8a" x="295.2" y="340.827954" style="fill-opacity: 0; stroke: #000000"/>
     <use xlink:href="#m40efe7db8a" x="295.2" y="368.136229" style="fill-opacity: 0; stroke: #000000"/>
     <use xlink:href="#m40efe7db8a" x="295.2" y="367.520417" style="fill-opacity: 0; stroke: #000000"/>
     <use xlink:href="#m40efe7db8a" x="295.2" y="363.644501" style="fill-opacity: 0; stroke: #000000"/>
     <use xlink:href="#m40efe7db8a" x="295.2" y="368.438507" style="fill-opacity: 0; stroke: #000000"/>
     <use xlink:href="#m40efe7db8a" x="295.2" y="367.802597" style="fill-opacity: 0; stroke: #000000"/>
     <use xlink:href="#m40efe7db8a" x="295.2" y="367.590359" style="fill-opacity: 0; stroke: #000000"/>
     <use xlink:href="#m40efe7db8a" x="295.2" y="366.816977" style="fill-opacity: 0; stroke: #000000"/>
     <use xlink:href="#m40efe7db8a" x="295.2" y="366.573305" style="fill-opacity: 0; stroke: #000000"/>
     <use xlink:href="#m40efe7db8a" x="295.2" y="367.991521" style="fill-opacity: 0; stroke: #000000"/>
     <use xlink:href="#m40efe7db8a" x="295.2" y="365.390641" style="fill-opacity: 0; stroke: #000000"/>
     <use xlink:href="#m40efe7db8a" x="295.2" y="367.646634" style="fill-opacity: 0; stroke: #000000"/>
     <use xlink:href="#m40efe7db8a" x="295.2" y="362.566348" style="fill-opacity: 0; stroke: #000000"/>
     <use xlink:href="#m40efe7db8a" x="295.2" y="367.051644" style="fill-opacity: 0; stroke: #000000"/>
     <use xlink:href="#m40efe7db8a" x="295.2" y="360.743835" style="fill-opacity: 0; stroke: #000000"/>
     <use xlink:href="#m40efe7db8a" x="295.2" y="362.332404" style="fill-opacity: 0; stroke: #000000"/>
     <use xlink:href="#m40efe7db8a" x="295.2" y="366.365087" style="fill-opacity: 0; stroke: #000000"/>
     <use xlink:href="#m40efe7db8a" x="295.2" y="367.579104" style="fill-opacity: 0; stroke: #000000"/>
     <use xlink:href="#m40efe7db8a" x="295.2" y="358.420312" style="fill-opacity: 0; stroke: #000000"/>
     <use xlink:href="#m40efe7db8a" x="295.2" y="356.527776" style="fill-opacity: 0; stroke: #000000"/>
     <use xlink:href="#m40efe7db8a" x="295.2" y="367.138549" style="fill-opacity: 0; stroke: #000000"/>
     <use xlink:href="#m40efe7db8a" x="295.2" y="364.113997" style="fill-opacity: 0; stroke: #000000"/>
     <use xlink:href="#m40efe7db8a" x="295.2" y="363.746601" style="fill-opacity: 0; stroke: #000000"/>
     <use xlink:href="#m40efe7db8a" x="295.2" y="365.964729" style="fill-opacity: 0; stroke: #000000"/>
     <use xlink:href="#m40efe7db8a" x="295.2" y="357.593066" style="fill-opacity: 0; stroke: #000000"/>
     <use xlink:href="#m40efe7db8a" x="295.2" y="366.199477" style="fill-opacity: 0; stroke: #000000"/>
     <use xlink:href="#m40efe7db8a" x="295.2" y="342.699668" style="fill-opacity: 0; stroke: #000000"/>
     <use xlink:href="#m40efe7db8a" x="295.2" y="364.690497" style="fill-opacity: 0; stroke: #000000"/>
     <use xlink:href="#m40efe7db8a" x="295.2" y="359.647192" style="fill-opacity: 0; stroke: #000000"/>
     <use xlink:href="#m40efe7db8a" x="295.2" y="365.2186" style="fill-opacity: 0; stroke: #000000"/>
     <use xlink:href="#m40efe7db8a" x="295.2" y="366.976075" style="fill-opacity: 0; stroke: #000000"/>
     <use xlink:href="#m40efe7db8a" x="295.2" y="360.640048" style="fill-opacity: 0; stroke: #000000"/>
     <use xlink:href="#m40efe7db8a" x="295.2" y="351.180665" style="fill-opacity: 0; stroke: #000000"/>
     <use xlink:href="#m40efe7db8a" x="295.2" y="356.719112" style="fill-opacity: 0; stroke: #000000"/>
     <use xlink:href="#m40efe7db8a" x="295.2" y="367.185981" style="fill-opacity: 0; stroke: #000000"/>
     <use xlink:href="#m40efe7db8a" x="295.2" y="363.996623" style="fill-opacity: 0; stroke: #000000"/>
     <use xlink:href="#m40efe7db8a" x="295.2" y="352.914746" style="fill-opacity: 0; stroke: #000000"/>
     <use xlink:href="#m40efe7db8a" x="295.2" y="359.185735" style="fill-opacity: 0; stroke: #000000"/>
     <use xlink:href="#m40efe7db8a" x="295.2" y="358.378507" style="fill-opacity: 0; stroke: #000000"/>
     <use xlink:href="#m40efe7db8a" x="295.2" y="362.811628" style="fill-opacity: 0; stroke: #000000"/>
     <use xlink:href="#m40efe7db8a" x="295.2" y="359.459876" style="fill-opacity: 0; stroke: #000000"/>
     <use xlink:href="#m40efe7db8a" x="295.2" y="365.683353" style="fill-opacity: 0; stroke: #000000"/>
     <use xlink:href="#m40efe7db8a" x="295.2" y="366.446284" style="fill-opacity: 0; stroke: #000000"/>
     <use xlink:href="#m40efe7db8a" x="295.2" y="350.3904" style="fill-opacity: 0; stroke: #000000"/>
     <use xlink:href="#m40efe7db8a" x="295.2" y="358.955007" style="fill-opacity: 0; stroke: #000000"/>
     <use xlink:href="#m40efe7db8a" x="295.2" y="368.391075" style="fill-opacity: 0; stroke: #000000"/>
     <use xlink:href="#m40efe7db8a" x="295.2" y="363.30685" style="fill-opacity: 0; stroke: #000000"/>
     <use xlink:href="#m40efe7db8a" x="295.2" y="365.482289" style="fill-opacity: 0; stroke: #000000"/>
     <use xlink:href="#m40efe7db8a" x="295.2" y="346.265989" style="fill-opacity: 0; stroke: #000000"/>
     <use xlink:href="#m40efe7db8a" x="295.2" y="360.428694" style="fill-opacity: 0; stroke: #000000"/>
     <use xlink:href="#m40efe7db8a" x="295.2" y="367.737478" style="fill-opacity: 0; stroke: #000000"/>
     <use xlink:href="#m40efe7db8a" x="295.2" y="368.271289" style="fill-opacity: 0; stroke: #000000"/>
     <use xlink:href="#m40efe7db8a" x="295.2" y="360.816993" style="fill-opacity: 0; stroke: #000000"/>
     <use xlink:href="#m40efe7db8a" x="295.2" y="366.428517" style="fill-opacity: 0; stroke: #000000"/>
     <use xlink:href="#m40efe7db8a" x="295.2" y="359.437205" style="fill-opacity: 0; stroke: #000000"/>
     <use xlink:href="#m40efe7db8a" x="295.2" y="354.090818" style="fill-opacity: 0; stroke: #000000"/>
     <use xlink:href="#m40efe7db8a" x="295.2" y="364.273095" style="fill-opacity: 0; stroke: #000000"/>
     <use xlink:href="#m40efe7db8a" x="295.2" y="368.28166" style="fill-opacity: 0; stroke: #000000"/>
     <use xlink:href="#m40efe7db8a" x="295.2" y="367.587867" style="fill-opacity: 0; stroke: #000000"/>
     <use xlink:href="#m40efe7db8a" x="295.2" y="367.705964" style="fill-opacity: 0; stroke: #000000"/>
     <use xlink:href="#m40efe7db8a" x="295.2" y="366.184041" style="fill-opacity: 0; stroke: #000000"/>
     <use xlink:href="#m40efe7db8a" x="295.2" y="365.979923" style="fill-opacity: 0; stroke: #000000"/>
     <use xlink:href="#m40efe7db8a" x="295.2" y="364.73214" style="fill-opacity: 0; stroke: #000000"/>
     <use xlink:href="#m40efe7db8a" x="295.2" y="361.59343" style="fill-opacity: 0; stroke: #000000"/>
     <use xlink:href="#m40efe7db8a" x="295.2" y="67.517372" style="fill-opacity: 0; stroke: #000000"/>
     <use xlink:href="#m40efe7db8a" x="295.2" y="366.898013" style="fill-opacity: 0; stroke: #000000"/>
     <use xlink:href="#m40efe7db8a" x="295.2" y="359.63658" style="fill-opacity: 0; stroke: #000000"/>
     <use xlink:href="#m40efe7db8a" x="295.2" y="360.43818" style="fill-opacity: 0; stroke: #000000"/>
     <use xlink:href="#m40efe7db8a" x="295.2" y="367.586259" style="fill-opacity: 0; stroke: #000000"/>
     <use xlink:href="#m40efe7db8a" x="295.2" y="366.944721" style="fill-opacity: 0; stroke: #000000"/>
     <use xlink:href="#m40efe7db8a" x="295.2" y="367.041917" style="fill-opacity: 0; stroke: #000000"/>
     <use xlink:href="#m40efe7db8a" x="295.2" y="365.104361" style="fill-opacity: 0; stroke: #000000"/>
     <use xlink:href="#m40efe7db8a" x="295.2" y="365.531249" style="fill-opacity: 0; stroke: #000000"/>
     <use xlink:href="#m40efe7db8a" x="295.2" y="366.41887" style="fill-opacity: 0; stroke: #000000"/>
     <use xlink:href="#m40efe7db8a" x="295.2" y="367.937577" style="fill-opacity: 0; stroke: #000000"/>
     <use xlink:href="#m40efe7db8a" x="295.2" y="361.394859" style="fill-opacity: 0; stroke: #000000"/>
     <use xlink:href="#m40efe7db8a" x="295.2" y="363.060686" style="fill-opacity: 0; stroke: #000000"/>
     <use xlink:href="#m40efe7db8a" x="295.2" y="364.357428" style="fill-opacity: 0; stroke: #000000"/>
     <use xlink:href="#m40efe7db8a" x="295.2" y="366.225042" style="fill-opacity: 0; stroke: #000000"/>
     <use xlink:href="#m40efe7db8a" x="295.2" y="354.840082" style="fill-opacity: 0; stroke: #000000"/>
     <use xlink:href="#m40efe7db8a" x="295.2" y="365.654331" style="fill-opacity: 0; stroke: #000000"/>
     <use xlink:href="#m40efe7db8a" x="295.2" y="367.636907" style="fill-opacity: 0; stroke: #000000"/>
     <use xlink:href="#m40efe7db8a" x="295.2" y="367.864419" style="fill-opacity: 0; stroke: #000000"/>
     <use xlink:href="#m40efe7db8a" x="295.2" y="363.920089" style="fill-opacity: 0; stroke: #000000"/>
     <use xlink:href="#m40efe7db8a" x="295.2" y="365.038438" style="fill-opacity: 0; stroke: #000000"/>
     <use xlink:href="#m40efe7db8a" x="295.2" y="367.548394" style="fill-opacity: 0; stroke: #000000"/>
     <use xlink:href="#m40efe7db8a" x="295.2" y="367.517925" style="fill-opacity: 0; stroke: #000000"/>
     <use xlink:href="#m40efe7db8a" x="295.2" y="365.265228" style="fill-opacity: 0; stroke: #000000"/>
     <use xlink:href="#m40efe7db8a" x="295.2" y="349.04277" style="fill-opacity: 0; stroke: #000000"/>
     <use xlink:href="#m40efe7db8a" x="295.2" y="368.294523" style="fill-opacity: 0; stroke: #000000"/>
     <use xlink:href="#m40efe7db8a" x="295.2" y="367.275137" style="fill-opacity: 0; stroke: #000000"/>
     <use xlink:href="#m40efe7db8a" x="295.2" y="365.979923" style="fill-opacity: 0; stroke: #000000"/>
     <use xlink:href="#m40efe7db8a" x="295.2" y="355.703585" style="fill-opacity: 0; stroke: #000000"/>
     <use xlink:href="#m40efe7db8a" x="295.2" y="365.795823" style="fill-opacity: 0; stroke: #000000"/>
     <use xlink:href="#m40efe7db8a" x="295.2" y="365.108381" style="fill-opacity: 0; stroke: #000000"/>
     <use xlink:href="#m40efe7db8a" x="295.2" y="366.416458" style="fill-opacity: 0; stroke: #000000"/>
     <use xlink:href="#m40efe7db8a" x="295.2" y="367.302391" style="fill-opacity: 0; stroke: #000000"/>
     <use xlink:href="#m40efe7db8a" x="295.2" y="365.231382" style="fill-opacity: 0; stroke: #000000"/>
     <use xlink:href="#m40efe7db8a" x="295.2" y="361.324113" style="fill-opacity: 0; stroke: #000000"/>
     <use xlink:href="#m40efe7db8a" x="295.2" y="366.65603" style="fill-opacity: 0; stroke: #000000"/>
     <use xlink:href="#m40efe7db8a" x="295.2" y="366.107748" style="fill-opacity: 0; stroke: #000000"/>
     <use xlink:href="#m40efe7db8a" x="295.2" y="364.87524" style="fill-opacity: 0; stroke: #000000"/>
     <use xlink:href="#m40efe7db8a" x="295.2" y="368.173933" style="fill-opacity: 0; stroke: #000000"/>
     <use xlink:href="#m40efe7db8a" x="295.2" y="364.779572" style="fill-opacity: 0; stroke: #000000"/>
     <use xlink:href="#m40efe7db8a" x="295.2" y="362.550189" style="fill-opacity: 0; stroke: #000000"/>
     <use xlink:href="#m40efe7db8a" x="295.2" y="365.602075" style="fill-opacity: 0; stroke: #000000"/>
     <use xlink:href="#m40efe7db8a" x="295.2" y="362.547778" style="fill-opacity: 0; stroke: #000000"/>
     <use xlink:href="#m40efe7db8a" x="295.2" y="365.852098" style="fill-opacity: 0; stroke: #000000"/>
     <use xlink:href="#m40efe7db8a" x="295.2" y="367.309626" style="fill-opacity: 0; stroke: #000000"/>
     <use xlink:href="#m40efe7db8a" x="295.2" y="367.57412" style="fill-opacity: 0; stroke: #000000"/>
     <use xlink:href="#m40efe7db8a" x="295.2" y="365.010301" style="fill-opacity: 0; stroke: #000000"/>
     <use xlink:href="#m40efe7db8a" x="295.2" y="364.121152" style="fill-opacity: 0; stroke: #000000"/>
     <use xlink:href="#m40efe7db8a" x="295.2" y="366.771072" style="fill-opacity: 0; stroke: #000000"/>
     <use xlink:href="#m40efe7db8a" x="295.2" y="361.251759" style="fill-opacity: 0; stroke: #000000"/>
     <use xlink:href="#m40efe7db8a" x="295.2" y="367.48014" style="fill-opacity: 0; stroke: #000000"/>
     <use xlink:href="#m40efe7db8a" x="295.2" y="106.877146" style="fill-opacity: 0; stroke: #000000"/>
     <use xlink:href="#m40efe7db8a" x="295.2" y="158.647697" style="fill-opacity: 0; stroke: #000000"/>
    </g>
   </g>
   <g id="line2d_16">
    <path d="M 250.56 378.486046 
L 339.84 378.486046 
" clip-path="url(#p6e246cd1af)" style="fill: none; stroke: #ff7f0e"/>
   </g>
   <g id="patch_4">
    <path d="M 72 384.48 
L 72 51.84 
" style="fill: none; stroke: #000000; stroke-width: 0.8; stroke-linejoin: miter; stroke-linecap: square"/>
   </g>
   <g id="patch_5">
    <path d="M 518.4 384.48 
L 518.4 51.84 
" style="fill: none; stroke: #000000; stroke-width: 0.8; stroke-linejoin: miter; stroke-linecap: square"/>
   </g>
   <g id="patch_6">
    <path d="M 72 384.48 
L 518.4 384.48 
" style="fill: none; stroke: #000000; stroke-width: 0.8; stroke-linejoin: miter; stroke-linecap: square"/>
   </g>
   <g id="patch_7">
    <path d="M 72 51.84 
L 518.4 51.84 
" style="fill: none; stroke: #000000; stroke-width: 0.8; stroke-linejoin: miter; stroke-linecap: square"/>
   </g>
   <g id="text_12">
    <!-- getExpectedPoints -->
    <g transform="translate(239.3325 45.84) scale(0.12 -0.12)">
     <defs>
      <path id="DejaVuSans-67" d="M 2906 1791 
Q 2906 2416 2648 2759 
Q 2391 3103 1925 3103 
Q 1463 3103 1205 2759 
Q 947 2416 947 1791 
Q 947 1169 1205 825 
Q 1463 481 1925 481 
Q 2391 481 2648 825 
Q 2906 1169 2906 1791 
z
M 3481 434 
Q 3481 -459 3084 -895 
Q 2688 -1331 1869 -1331 
Q 1566 -1331 1297 -1286 
Q 1028 -1241 775 -1147 
L 775 -588 
Q 1028 -725 1275 -790 
Q 1522 -856 1778 -856 
Q 2344 -856 2625 -561 
Q 2906 -266 2906 331 
L 2906 616 
Q 2728 306 2450 153 
Q 2172 0 1784 0 
Q 1141 0 747 490 
Q 353 981 353 1791 
Q 353 2603 747 3093 
Q 1141 3584 1784 3584 
Q 2172 3584 2450 3431 
Q 2728 3278 2906 2969 
L 2906 3500 
L 3481 3500 
L 3481 434 
z
" transform="scale(0.015625)"/>
      <path id="DejaVuSans-74" d="M 1172 4494 
L 1172 3500 
L 2356 3500 
L 2356 3053 
L 1172 3053 
L 1172 1153 
Q 1172 725 1289 603 
Q 1406 481 1766 481 
L 2356 481 
L 2356 0 
L 1766 0 
Q 1100 0 847 248 
Q 594 497 594 1153 
L 594 3053 
L 172 3053 
L 172 3500 
L 594 3500 
L 594 4494 
L 1172 4494 
z
" transform="scale(0.015625)"/>
      <path id="DejaVuSans-45" d="M 628 4666 
L 3578 4666 
L 3578 4134 
L 1259 4134 
L 1259 2753 
L 3481 2753 
L 3481 2222 
L 1259 2222 
L 1259 531 
L 3634 531 
L 3634 0 
L 628 0 
L 628 4666 
z
" transform="scale(0.015625)"/>
      <path id="DejaVuSans-78" d="M 3513 3500 
L 2247 1797 
L 3578 0 
L 2900 0 
L 1881 1375 
L 863 0 
L 184 0 
L 1544 1831 
L 300 3500 
L 978 3500 
L 1906 2253 
L 2834 3500 
L 3513 3500 
z
" transform="scale(0.015625)"/>
      <path id="DejaVuSans-70" d="M 1159 525 
L 1159 -1331 
L 581 -1331 
L 581 3500 
L 1159 3500 
L 1159 2969 
Q 1341 3281 1617 3432 
Q 1894 3584 2278 3584 
Q 2916 3584 3314 3078 
Q 3713 2572 3713 1747 
Q 3713 922 3314 415 
Q 2916 -91 2278 -91 
Q 1894 -91 1617 61 
Q 1341 213 1159 525 
z
M 3116 1747 
Q 3116 2381 2855 2742 
Q 2594 3103 2138 3103 
Q 1681 3103 1420 2742 
Q 1159 2381 1159 1747 
Q 1159 1113 1420 752 
Q 1681 391 2138 391 
Q 2594 391 2855 752 
Q 3116 1113 3116 1747 
z
" transform="scale(0.015625)"/>
      <path id="DejaVuSans-63" d="M 3122 3366 
L 3122 2828 
Q 2878 2963 2633 3030 
Q 2388 3097 2138 3097 
Q 1578 3097 1268 2742 
Q 959 2388 959 1747 
Q 959 1106 1268 751 
Q 1578 397 2138 397 
Q 2388 397 2633 464 
Q 2878 531 3122 666 
L 3122 134 
Q 2881 22 2623 -34 
Q 2366 -91 2075 -91 
Q 1284 -91 818 406 
Q 353 903 353 1747 
Q 353 2603 823 3093 
Q 1294 3584 2113 3584 
Q 2378 3584 2631 3529 
Q 2884 3475 3122 3366 
z
" transform="scale(0.015625)"/>
      <path id="DejaVuSans-64" d="M 2906 2969 
L 2906 4863 
L 3481 4863 
L 3481 0 
L 2906 0 
L 2906 525 
Q 2725 213 2448 61 
Q 2172 -91 1784 -91 
Q 1150 -91 751 415 
Q 353 922 353 1747 
Q 353 2572 751 3078 
Q 1150 3584 1784 3584 
Q 2172 3584 2448 3432 
Q 2725 3281 2906 2969 
z
M 947 1747 
Q 947 1113 1208 752 
Q 1469 391 1925 391 
Q 2381 391 2643 752 
Q 2906 1113 2906 1747 
Q 2906 2381 2643 2742 
Q 2381 3103 1925 3103 
Q 1469 3103 1208 2742 
Q 947 2381 947 1747 
z
" transform="scale(0.015625)"/>
      <path id="DejaVuSans-50" d="M 1259 4147 
L 1259 2394 
L 2053 2394 
Q 2494 2394 2734 2622 
Q 2975 2850 2975 3272 
Q 2975 3691 2734 3919 
Q 2494 4147 2053 4147 
L 1259 4147 
z
M 628 4666 
L 2053 4666 
Q 2838 4666 3239 4311 
Q 3641 3956 3641 3272 
Q 3641 2581 3239 2228 
Q 2838 1875 2053 1875 
L 1259 1875 
L 1259 0 
L 628 0 
L 628 4666 
z
" transform="scale(0.015625)"/>
      <path id="DejaVuSans-6f" d="M 1959 3097 
Q 1497 3097 1228 2736 
Q 959 2375 959 1747 
Q 959 1119 1226 758 
Q 1494 397 1959 397 
Q 2419 397 2687 759 
Q 2956 1122 2956 1747 
Q 2956 2369 2687 2733 
Q 2419 3097 1959 3097 
z
M 1959 3584 
Q 2709 3584 3137 3096 
Q 3566 2609 3566 1747 
Q 3566 888 3137 398 
Q 2709 -91 1959 -91 
Q 1206 -91 779 398 
Q 353 888 353 1747 
Q 353 2609 779 3096 
Q 1206 3584 1959 3584 
z
" transform="scale(0.015625)"/>
      <path id="DejaVuSans-6e" d="M 3513 2113 
L 3513 0 
L 2938 0 
L 2938 2094 
Q 2938 2591 2744 2837 
Q 2550 3084 2163 3084 
Q 1697 3084 1428 2787 
Q 1159 2491 1159 1978 
L 1159 0 
L 581 0 
L 581 3500 
L 1159 3500 
L 1159 2956 
Q 1366 3272 1645 3428 
Q 1925 3584 2291 3584 
Q 2894 3584 3203 3211 
Q 3513 2838 3513 2113 
z
" transform="scale(0.015625)"/>
     </defs>
     <use xlink:href="#DejaVuSans-67"/>
     <use xlink:href="#DejaVuSans-65" transform="translate(63.476562 0)"/>
     <use xlink:href="#DejaVuSans-74" transform="translate(125 0)"/>
     <use xlink:href="#DejaVuSans-45" transform="translate(164.208984 0)"/>
     <use xlink:href="#DejaVuSans-78" transform="translate(227.392578 0)"/>
     <use xlink:href="#DejaVuSans-70" transform="translate(286.572266 0)"/>
     <use xlink:href="#DejaVuSans-65" transform="translate(350.048828 0)"/>
     <use xlink:href="#DejaVuSans-63" transform="translate(411.572266 0)"/>
     <use xlink:href="#DejaVuSans-74" transform="translate(466.552734 0)"/>
     <use xlink:href="#DejaVuSans-65" transform="translate(505.761719 0)"/>
     <use xlink:href="#DejaVuSans-64" transform="translate(567.285156 0)"/>
     <use xlink:href="#DejaVuSans-50" transform="translate(630.761719 0)"/>
     <use xlink:href="#DejaVuSans-6f" transform="translate(687.439453 0)"/>
     <use xlink:href="#DejaVuSans-69" transform="translate(748.621094 0)"/>
     <use xlink:href="#DejaVuSans-6e" transform="translate(776.404297 0)"/>
     <use xlink:href="#DejaVuSans-74" transform="translate(839.783203 0)"/>
     <use xlink:href="#DejaVuSans-73" transform="translate(878.992188 0)"/>
    </g>
   </g>
  </g>
 </g>
 <defs>
  <clipPath id="p6e246cd1af">
   <rect x="72" y="51.84" width="446.4" height="332.64"/>
  </clipPath>
 </defs>
</svg>
