<?xml version="1.0" encoding="utf-8" standalone="no"?>
<!DOCTYPE svg PUBLIC "-//W3C//DTD SVG 1.1//EN"
  "http://www.w3.org/Graphics/SVG/1.1/DTD/svg11.dtd">
<svg xmlns:xlink="http://www.w3.org/1999/xlink" width="720pt" height="432pt" viewBox="0 0 720 432" xmlns="http://www.w3.org/2000/svg" version="1.1">
 <metadata>
  <rdf:RDF xmlns:dc="http://purl.org/dc/elements/1.1/" xmlns:cc="http://creativecommons.org/ns#" xmlns:rdf="http://www.w3.org/1999/02/22-rdf-syntax-ns#">
   <cc:Work>
    <dc:type rdf:resource="http://purl.org/dc/dcmitype/StillImage"/>
    <dc:date>2025-06-08T23:57:28.955608</dc:date>
    <dc:format>image/svg+xml</dc:format>
    <dc:creator>
     <cc:Agent>
      <dc:title>Matplotlib v3.10.3, https://matplotlib.org/</dc:title>
     </cc:Agent>
    </dc:creator>
   </cc:Work>
  </rdf:RDF>
 </metadata>
 <defs>
  <style type="text/css">*{stroke-linejoin: round; stroke-linecap: butt}</style>
 </defs>
 <g id="figure_1">
  <g id="patch_1">
   <path d="M 0 432 
L 720 432 
L 720 0 
L 0 0 
z
" style="fill: #ffffff"/>
  </g>
  <g id="axes_1">
   <g id="patch_2">
    <path d="M 90 384.48 
L 648 384.48 
L 648 51.84 
L 90 51.84 
z
" style="fill: #ffffff"/>
   </g>
   <g id="matplotlib.axis_1">
    <g id="xtick_1">
     <g id="line2d_1">
      <defs>
       <path id="m634084e846" d="M 0 0 
L 0 3.5 
" style="stroke: #000000; stroke-width: 0.8"/>
      </defs>
      <g>
       <use xlink:href="#m634084e846" x="115.363636" y="384.48" style="stroke: #000000; stroke-width: 0.8"/>
      </g>
     </g>
     <g id="text_1">
      <!-- 0 -->
      <g transform="translate(112.182386 399.078438) scale(0.1 -0.1)">
       <defs>
        <path id="DejaVuSans-30" d="M 2034 4250 
Q 1547 4250 1301 3770 
Q 1056 3291 1056 2328 
Q 1056 1369 1301 889 
Q 1547 409 2034 409 
Q 2525 409 2770 889 
Q 3016 1369 3016 2328 
Q 3016 3291 2770 3770 
Q 2525 4250 2034 4250 
z
M 2034 4750 
Q 2819 4750 3233 4129 
Q 3647 3509 3647 2328 
Q 3647 1150 3233 529 
Q 2819 -91 2034 -91 
Q 1250 -91 836 529 
Q 422 1150 422 2328 
Q 422 3509 836 4129 
Q 1250 4750 2034 4750 
z
" transform="scale(0.015625)"/>
       </defs>
       <use xlink:href="#DejaVuSans-30"/>
      </g>
     </g>
    </g>
    <g id="xtick_2">
     <g id="line2d_2">
      <g>
       <use xlink:href="#m634084e846" x="208.100881" y="384.48" style="stroke: #000000; stroke-width: 0.8"/>
      </g>
     </g>
     <g id="text_2">
      <!-- 100 -->
      <g transform="translate(198.557131 399.078438) scale(0.1 -0.1)">
       <defs>
        <path id="DejaVuSans-31" d="M 794 531 
L 1825 531 
L 1825 4091 
L 703 3866 
L 703 4441 
L 1819 4666 
L 2450 4666 
L 2450 531 
L 3481 531 
L 3481 0 
L 794 0 
L 794 531 
z
" transform="scale(0.015625)"/>
       </defs>
       <use xlink:href="#DejaVuSans-31"/>
       <use xlink:href="#DejaVuSans-30" transform="translate(63.623047 0)"/>
       <use xlink:href="#DejaVuSans-30" transform="translate(127.246094 0)"/>
      </g>
     </g>
    </g>
    <g id="xtick_3">
     <g id="line2d_3">
      <g>
       <use xlink:href="#m634084e846" x="300.838125" y="384.48" style="stroke: #000000; stroke-width: 0.8"/>
      </g>
     </g>
     <g id="text_3">
      <!-- 200 -->
      <g transform="translate(291.294375 399.078438) scale(0.1 -0.1)">
       <defs>
        <path id="DejaVuSans-32" d="M 1228 531 
L 3431 531 
L 3431 0 
L 469 0 
L 469 531 
Q 828 903 1448 1529 
Q 2069 2156 2228 2338 
Q 2531 2678 2651 2914 
Q 2772 3150 2772 3378 
Q 2772 3750 2511 3984 
Q 2250 4219 1831 4219 
Q 1534 4219 1204 4116 
Q 875 4013 500 3803 
L 500 4441 
Q 881 4594 1212 4672 
Q 1544 4750 1819 4750 
Q 2544 4750 2975 4387 
Q 3406 4025 3406 3419 
Q 3406 3131 3298 2873 
Q 3191 2616 2906 2266 
Q 2828 2175 2409 1742 
Q 1991 1309 1228 531 
z
" transform="scale(0.015625)"/>
       </defs>
       <use xlink:href="#DejaVuSans-32"/>
       <use xlink:href="#DejaVuSans-30" transform="translate(63.623047 0)"/>
       <use xlink:href="#DejaVuSans-30" transform="translate(127.246094 0)"/>
      </g>
     </g>
    </g>
    <g id="xtick_4">
     <g id="line2d_4">
      <g>
       <use xlink:href="#m634084e846" x="393.57537" y="384.48" style="stroke: #000000; stroke-width: 0.8"/>
      </g>
     </g>
     <g id="text_4">
      <!-- 300 -->
      <g transform="translate(384.03162 399.078438) scale(0.1 -0.1)">
       <defs>
        <path id="DejaVuSans-33" d="M 2597 2516 
Q 3050 2419 3304 2112 
Q 3559 1806 3559 1356 
Q 3559 666 3084 287 
Q 2609 -91 1734 -91 
Q 1441 -91 1130 -33 
Q 819 25 488 141 
L 488 750 
Q 750 597 1062 519 
Q 1375 441 1716 441 
Q 2309 441 2620 675 
Q 2931 909 2931 1356 
Q 2931 1769 2642 2001 
Q 2353 2234 1838 2234 
L 1294 2234 
L 1294 2753 
L 1863 2753 
Q 2328 2753 2575 2939 
Q 2822 3125 2822 3475 
Q 2822 3834 2567 4026 
Q 2313 4219 1838 4219 
Q 1578 4219 1281 4162 
Q 984 4106 628 3988 
L 628 4550 
Q 988 4650 1302 4700 
Q 1616 4750 1894 4750 
Q 2613 4750 3031 4423 
Q 3450 4097 3450 3541 
Q 3450 3153 3228 2886 
Q 3006 2619 2597 2516 
z
" transform="scale(0.015625)"/>
       </defs>
       <use xlink:href="#DejaVuSans-33"/>
       <use xlink:href="#DejaVuSans-30" transform="translate(63.623047 0)"/>
       <use xlink:href="#DejaVuSans-30" transform="translate(127.246094 0)"/>
      </g>
     </g>
    </g>
    <g id="xtick_5">
     <g id="line2d_5">
      <g>
       <use xlink:href="#m634084e846" x="486.312614" y="384.48" style="stroke: #000000; stroke-width: 0.8"/>
      </g>
     </g>
     <g id="text_5">
      <!-- 400 -->
      <g transform="translate(476.768864 399.078438) scale(0.1 -0.1)">
       <defs>
        <path id="DejaVuSans-34" d="M 2419 4116 
L 825 1625 
L 2419 1625 
L 2419 4116 
z
M 2253 4666 
L 3047 4666 
L 3047 1625 
L 3713 1625 
L 3713 1100 
L 3047 1100 
L 3047 0 
L 2419 0 
L 2419 1100 
L 313 1100 
L 313 1709 
L 2253 4666 
z
" transform="scale(0.015625)"/>
       </defs>
       <use xlink:href="#DejaVuSans-34"/>
       <use xlink:href="#DejaVuSans-30" transform="translate(63.623047 0)"/>
       <use xlink:href="#DejaVuSans-30" transform="translate(127.246094 0)"/>
      </g>
     </g>
    </g>
    <g id="xtick_6">
     <g id="line2d_6">
      <g>
       <use xlink:href="#m634084e846" x="579.049859" y="384.48" style="stroke: #000000; stroke-width: 0.8"/>
      </g>
     </g>
     <g id="text_6">
      <!-- 500 -->
      <g transform="translate(569.506109 399.078438) scale(0.1 -0.1)">
       <defs>
        <path id="DejaVuSans-35" d="M 691 4666 
L 3169 4666 
L 3169 4134 
L 1269 4134 
L 1269 2991 
Q 1406 3038 1543 3061 
Q 1681 3084 1819 3084 
Q 2600 3084 3056 2656 
Q 3513 2228 3513 1497 
Q 3513 744 3044 326 
Q 2575 -91 1722 -91 
Q 1428 -91 1123 -41 
Q 819 9 494 109 
L 494 744 
Q 775 591 1075 516 
Q 1375 441 1709 441 
Q 2250 441 2565 725 
Q 2881 1009 2881 1497 
Q 2881 1984 2565 2268 
Q 2250 2553 1709 2553 
Q 1456 2553 1204 2497 
Q 953 2441 691 2322 
L 691 4666 
z
" transform="scale(0.015625)"/>
       </defs>
       <use xlink:href="#DejaVuSans-35"/>
       <use xlink:href="#DejaVuSans-30" transform="translate(63.623047 0)"/>
       <use xlink:href="#DejaVuSans-30" transform="translate(127.246094 0)"/>
      </g>
     </g>
    </g>
    <g id="text_7">
     <!-- Index -->
     <g transform="translate(355.233594 412.756563) scale(0.1 -0.1)">
      <defs>
       <path id="DejaVuSans-49" d="M 628 4666 
L 1259 4666 
L 1259 0 
L 628 0 
L 628 4666 
z
" transform="scale(0.015625)"/>
       <path id="DejaVuSans-6e" d="M 3513 2113 
L 3513 0 
L 2938 0 
L 2938 2094 
Q 2938 2591 2744 2837 
Q 2550 3084 2163 3084 
Q 1697 3084 1428 2787 
Q 1159 2491 1159 1978 
L 1159 0 
L 581 0 
L 581 3500 
L 1159 3500 
L 1159 2956 
Q 1366 3272 1645 3428 
Q 1925 3584 2291 3584 
Q 2894 3584 3203 3211 
Q 3513 2838 3513 2113 
z
" transform="scale(0.015625)"/>
       <path id="DejaVuSans-64" d="M 2906 2969 
L 2906 4863 
L 3481 4863 
L 3481 0 
L 2906 0 
L 2906 525 
Q 2725 213 2448 61 
Q 2172 -91 1784 -91 
Q 1150 -91 751 415 
Q 353 922 353 1747 
Q 353 2572 751 3078 
Q 1150 3584 1784 3584 
Q 2172 3584 2448 3432 
Q 2725 3281 2906 2969 
z
M 947 1747 
Q 947 1113 1208 752 
Q 1469 391 1925 391 
Q 2381 391 2643 752 
Q 2906 1113 2906 1747 
Q 2906 2381 2643 2742 
Q 2381 3103 1925 3103 
Q 1469 3103 1208 2742 
Q 947 2381 947 1747 
z
" transform="scale(0.015625)"/>
       <path id="DejaVuSans-65" d="M 3597 1894 
L 3597 1613 
L 953 1613 
Q 991 1019 1311 708 
Q 1631 397 2203 397 
Q 2534 397 2845 478 
Q 3156 559 3463 722 
L 3463 178 
Q 3153 47 2828 -22 
Q 2503 -91 2169 -91 
Q 1331 -91 842 396 
Q 353 884 353 1716 
Q 353 2575 817 3079 
Q 1281 3584 2069 3584 
Q 2775 3584 3186 3129 
Q 3597 2675 3597 1894 
z
M 3022 2063 
Q 3016 2534 2758 2815 
Q 2500 3097 2075 3097 
Q 1594 3097 1305 2825 
Q 1016 2553 972 2059 
L 3022 2063 
z
" transform="scale(0.015625)"/>
       <path id="DejaVuSans-78" d="M 3513 3500 
L 2247 1797 
L 3578 0 
L 2900 0 
L 1881 1375 
L 863 0 
L 184 0 
L 1544 1831 
L 300 3500 
L 978 3500 
L 1906 2253 
L 2834 3500 
L 3513 3500 
z
" transform="scale(0.015625)"/>
      </defs>
      <use xlink:href="#DejaVuSans-49"/>
      <use xlink:href="#DejaVuSans-6e" transform="translate(29.492188 0)"/>
      <use xlink:href="#DejaVuSans-64" transform="translate(92.871094 0)"/>
      <use xlink:href="#DejaVuSans-65" transform="translate(156.347656 0)"/>
      <use xlink:href="#DejaVuSans-78" transform="translate(216.121094 0)"/>
     </g>
    </g>
   </g>
   <g id="matplotlib.axis_2">
    <g id="ytick_1">
     <g id="line2d_7">
      <defs>
       <path id="m0fcb90f76d" d="M 0 0 
L -3.5 0 
" style="stroke: #000000; stroke-width: 0.8"/>
      </defs>
      <g>
       <use xlink:href="#m0fcb90f76d" x="90" y="384.48" style="stroke: #000000; stroke-width: 0.8"/>
      </g>
     </g>
     <g id="text_8">
      <!-- 0 -->
      <g transform="translate(76.6375 388.279219) scale(0.1 -0.1)">
       <use xlink:href="#DejaVuSans-30"/>
      </g>
     </g>
    </g>
    <g id="ytick_2">
     <g id="line2d_8">
      <g>
       <use xlink:href="#m0fcb90f76d" x="90" y="336.159032" style="stroke: #000000; stroke-width: 0.8"/>
      </g>
     </g>
     <g id="text_9">
      <!-- 5 -->
      <g transform="translate(76.6375 339.958251) scale(0.1 -0.1)">
       <use xlink:href="#DejaVuSans-35"/>
      </g>
     </g>
    </g>
    <g id="ytick_3">
     <g id="line2d_9">
      <g>
       <use xlink:href="#m0fcb90f76d" x="90" y="287.838064" style="stroke: #000000; stroke-width: 0.8"/>
      </g>
     </g>
     <g id="text_10">
      <!-- 10 -->
      <g transform="translate(70.275 291.637283) scale(0.1 -0.1)">
       <use xlink:href="#DejaVuSans-31"/>
       <use xlink:href="#DejaVuSans-30" transform="translate(63.623047 0)"/>
      </g>
     </g>
    </g>
    <g id="ytick_4">
     <g id="line2d_10">
      <g>
       <use xlink:href="#m0fcb90f76d" x="90" y="239.517097" style="stroke: #000000; stroke-width: 0.8"/>
      </g>
     </g>
     <g id="text_11">
      <!-- 15 -->
      <g transform="translate(70.275 243.316315) scale(0.1 -0.1)">
       <use xlink:href="#DejaVuSans-31"/>
       <use xlink:href="#DejaVuSans-35" transform="translate(63.623047 0)"/>
      </g>
     </g>
    </g>
    <g id="ytick_5">
     <g id="line2d_11">
      <g>
       <use xlink:href="#m0fcb90f76d" x="90" y="191.196129" style="stroke: #000000; stroke-width: 0.8"/>
      </g>
     </g>
     <g id="text_12">
      <!-- 20 -->
      <g transform="translate(70.275 194.995348) scale(0.1 -0.1)">
       <use xlink:href="#DejaVuSans-32"/>
       <use xlink:href="#DejaVuSans-30" transform="translate(63.623047 0)"/>
      </g>
     </g>
    </g>
    <g id="ytick_6">
     <g id="line2d_12">
      <g>
       <use xlink:href="#m0fcb90f76d" x="90" y="142.875161" style="stroke: #000000; stroke-width: 0.8"/>
      </g>
     </g>
     <g id="text_13">
      <!-- 25 -->
      <g transform="translate(70.275 146.67438) scale(0.1 -0.1)">
       <use xlink:href="#DejaVuSans-32"/>
       <use xlink:href="#DejaVuSans-35" transform="translate(63.623047 0)"/>
      </g>
     </g>
    </g>
    <g id="ytick_7">
     <g id="line2d_13">
      <g>
       <use xlink:href="#m0fcb90f76d" x="90" y="94.554193" style="stroke: #000000; stroke-width: 0.8"/>
      </g>
     </g>
     <g id="text_14">
      <!-- 30 -->
      <g transform="translate(70.275 98.353412) scale(0.1 -0.1)">
       <use xlink:href="#DejaVuSans-33"/>
       <use xlink:href="#DejaVuSans-30" transform="translate(63.623047 0)"/>
      </g>
     </g>
    </g>
    <g id="text_15">
     <!-- Average time (ms) -->
     <g transform="translate(64.195312 264.543594) rotate(-90) scale(0.1 -0.1)">
      <defs>
       <path id="DejaVuSans-41" d="M 2188 4044 
L 1331 1722 
L 3047 1722 
L 2188 4044 
z
M 1831 4666 
L 2547 4666 
L 4325 0 
L 3669 0 
L 3244 1197 
L 1141 1197 
L 716 0 
L 50 0 
L 1831 4666 
z
" transform="scale(0.015625)"/>
       <path id="DejaVuSans-76" d="M 191 3500 
L 800 3500 
L 1894 563 
L 2988 3500 
L 3597 3500 
L 2284 0 
L 1503 0 
L 191 3500 
z
" transform="scale(0.015625)"/>
       <path id="DejaVuSans-72" d="M 2631 2963 
Q 2534 3019 2420 3045 
Q 2306 3072 2169 3072 
Q 1681 3072 1420 2755 
Q 1159 2438 1159 1844 
L 1159 0 
L 581 0 
L 581 3500 
L 1159 3500 
L 1159 2956 
Q 1341 3275 1631 3429 
Q 1922 3584 2338 3584 
Q 2397 3584 2469 3576 
Q 2541 3569 2628 3553 
L 2631 2963 
z
" transform="scale(0.015625)"/>
       <path id="DejaVuSans-61" d="M 2194 1759 
Q 1497 1759 1228 1600 
Q 959 1441 959 1056 
Q 959 750 1161 570 
Q 1363 391 1709 391 
Q 2188 391 2477 730 
Q 2766 1069 2766 1631 
L 2766 1759 
L 2194 1759 
z
M 3341 1997 
L 3341 0 
L 2766 0 
L 2766 531 
Q 2569 213 2275 61 
Q 1981 -91 1556 -91 
Q 1019 -91 701 211 
Q 384 513 384 1019 
Q 384 1609 779 1909 
Q 1175 2209 1959 2209 
L 2766 2209 
L 2766 2266 
Q 2766 2663 2505 2880 
Q 2244 3097 1772 3097 
Q 1472 3097 1187 3025 
Q 903 2953 641 2809 
L 641 3341 
Q 956 3463 1253 3523 
Q 1550 3584 1831 3584 
Q 2591 3584 2966 3190 
Q 3341 2797 3341 1997 
z
" transform="scale(0.015625)"/>
       <path id="DejaVuSans-67" d="M 2906 1791 
Q 2906 2416 2648 2759 
Q 2391 3103 1925 3103 
Q 1463 3103 1205 2759 
Q 947 2416 947 1791 
Q 947 1169 1205 825 
Q 1463 481 1925 481 
Q 2391 481 2648 825 
Q 2906 1169 2906 1791 
z
M 3481 434 
Q 3481 -459 3084 -895 
Q 2688 -1331 1869 -1331 
Q 1566 -1331 1297 -1286 
Q 1028 -1241 775 -1147 
L 775 -588 
Q 1028 -725 1275 -790 
Q 1522 -856 1778 -856 
Q 2344 -856 2625 -561 
Q 2906 -266 2906 331 
L 2906 616 
Q 2728 306 2450 153 
Q 2172 0 1784 0 
Q 1141 0 747 490 
Q 353 981 353 1791 
Q 353 2603 747 3093 
Q 1141 3584 1784 3584 
Q 2172 3584 2450 3431 
Q 2728 3278 2906 2969 
L 2906 3500 
L 3481 3500 
L 3481 434 
z
" transform="scale(0.015625)"/>
       <path id="DejaVuSans-20" transform="scale(0.015625)"/>
       <path id="DejaVuSans-74" d="M 1172 4494 
L 1172 3500 
L 2356 3500 
L 2356 3053 
L 1172 3053 
L 1172 1153 
Q 1172 725 1289 603 
Q 1406 481 1766 481 
L 2356 481 
L 2356 0 
L 1766 0 
Q 1100 0 847 248 
Q 594 497 594 1153 
L 594 3053 
L 172 3053 
L 172 3500 
L 594 3500 
L 594 4494 
L 1172 4494 
z
" transform="scale(0.015625)"/>
       <path id="DejaVuSans-69" d="M 603 3500 
L 1178 3500 
L 1178 0 
L 603 0 
L 603 3500 
z
M 603 4863 
L 1178 4863 
L 1178 4134 
L 603 4134 
L 603 4863 
z
" transform="scale(0.015625)"/>
       <path id="DejaVuSans-6d" d="M 3328 2828 
Q 3544 3216 3844 3400 
Q 4144 3584 4550 3584 
Q 5097 3584 5394 3201 
Q 5691 2819 5691 2113 
L 5691 0 
L 5113 0 
L 5113 2094 
Q 5113 2597 4934 2840 
Q 4756 3084 4391 3084 
Q 3944 3084 3684 2787 
Q 3425 2491 3425 1978 
L 3425 0 
L 2847 0 
L 2847 2094 
Q 2847 2600 2669 2842 
Q 2491 3084 2119 3084 
Q 1678 3084 1418 2786 
Q 1159 2488 1159 1978 
L 1159 0 
L 581 0 
L 581 3500 
L 1159 3500 
L 1159 2956 
Q 1356 3278 1631 3431 
Q 1906 3584 2284 3584 
Q 2666 3584 2933 3390 
Q 3200 3197 3328 2828 
z
" transform="scale(0.015625)"/>
       <path id="DejaVuSans-28" d="M 1984 4856 
Q 1566 4138 1362 3434 
Q 1159 2731 1159 2009 
Q 1159 1288 1364 580 
Q 1569 -128 1984 -844 
L 1484 -844 
Q 1016 -109 783 600 
Q 550 1309 550 2009 
Q 550 2706 781 3412 
Q 1013 4119 1484 4856 
L 1984 4856 
z
" transform="scale(0.015625)"/>
       <path id="DejaVuSans-73" d="M 2834 3397 
L 2834 2853 
Q 2591 2978 2328 3040 
Q 2066 3103 1784 3103 
Q 1356 3103 1142 2972 
Q 928 2841 928 2578 
Q 928 2378 1081 2264 
Q 1234 2150 1697 2047 
L 1894 2003 
Q 2506 1872 2764 1633 
Q 3022 1394 3022 966 
Q 3022 478 2636 193 
Q 2250 -91 1575 -91 
Q 1294 -91 989 -36 
Q 684 19 347 128 
L 347 722 
Q 666 556 975 473 
Q 1284 391 1588 391 
Q 1994 391 2212 530 
Q 2431 669 2431 922 
Q 2431 1156 2273 1281 
Q 2116 1406 1581 1522 
L 1381 1569 
Q 847 1681 609 1914 
Q 372 2147 372 2553 
Q 372 3047 722 3315 
Q 1072 3584 1716 3584 
Q 2034 3584 2315 3537 
Q 2597 3491 2834 3397 
z
" transform="scale(0.015625)"/>
       <path id="DejaVuSans-29" d="M 513 4856 
L 1013 4856 
Q 1481 4119 1714 3412 
Q 1947 2706 1947 2009 
Q 1947 1309 1714 600 
Q 1481 -109 1013 -844 
L 513 -844 
Q 928 -128 1133 580 
Q 1338 1288 1338 2009 
Q 1338 2731 1133 3434 
Q 928 4138 513 4856 
z
" transform="scale(0.015625)"/>
      </defs>
      <use xlink:href="#DejaVuSans-41"/>
      <use xlink:href="#DejaVuSans-76" transform="translate(62.533203 0)"/>
      <use xlink:href="#DejaVuSans-65" transform="translate(121.712891 0)"/>
      <use xlink:href="#DejaVuSans-72" transform="translate(183.236328 0)"/>
      <use xlink:href="#DejaVuSans-61" transform="translate(224.349609 0)"/>
      <use xlink:href="#DejaVuSans-67" transform="translate(285.628906 0)"/>
      <use xlink:href="#DejaVuSans-65" transform="translate(349.105469 0)"/>
      <use xlink:href="#DejaVuSans-20" transform="translate(410.628906 0)"/>
      <use xlink:href="#DejaVuSans-74" transform="translate(442.416016 0)"/>
      <use xlink:href="#DejaVuSans-69" transform="translate(481.625 0)"/>
      <use xlink:href="#DejaVuSans-6d" transform="translate(509.408203 0)"/>
      <use xlink:href="#DejaVuSans-65" transform="translate(606.820312 0)"/>
      <use xlink:href="#DejaVuSans-20" transform="translate(668.34375 0)"/>
      <use xlink:href="#DejaVuSans-28" transform="translate(700.130859 0)"/>
      <use xlink:href="#DejaVuSans-6d" transform="translate(739.144531 0)"/>
      <use xlink:href="#DejaVuSans-73" transform="translate(836.556641 0)"/>
      <use xlink:href="#DejaVuSans-29" transform="translate(888.65625 0)"/>
     </g>
    </g>
   </g>
   <g id="line2d_14">
    <path d="M 115.363636 67.378568 
L 116.291009 232.689039 
L 117.218381 318.692129 
L 118.145754 336.938665 
L 120.000499 361.456916 
L 120.927871 357.563295 
L 121.855243 358.495216 
L 123.709988 369.271821 
L 124.637361 363.033786 
L 125.564733 369.702236 
L 126.492106 368.850625 
L 127.419478 352.12239 
L 129.274223 362.364555 
L 130.201595 368.770106 
L 131.128968 364.137875 
L 132.05634 364.273626 
L 132.983713 368.322435 
L 133.911085 351.697816 
L 134.838458 360.993518 
L 135.76583 367.013452 
L 136.693203 367.795287 
L 137.620575 363.645176 
L 138.547947 361.73062 
L 139.47532 370.600694 
L 140.402692 370.693929 
L 141.330065 360.636744 
L 142.257437 368.43209 
L 143.18481 369.977505 
L 144.112182 370.392273 
L 145.039555 367.0347 
L 145.966927 359.696745 
L 146.894299 364.188849 
L 147.821672 366.932553 
L 148.749044 371.520709 
L 149.676417 370.201717 
L 150.603789 370.285908 
L 151.531162 365.706525 
L 152.458534 354.30195 
L 153.385907 370.982207 
L 154.313279 372.229784 
L 155.240651 371.952506 
L 156.168024 367.520335 
L 157.095396 369.780992 
L 158.022769 367.028801 
L 158.950141 366.378423 
L 159.877514 371.171598 
L 160.804886 373.915628 
L 161.732259 372.374613 
L 162.659631 369.432869 
L 163.587003 367.644676 
L 164.514376 369.473234 
L 165.441748 373.421578 
L 166.369121 374.157196 
L 167.296493 371.605955 
L 168.223866 371.127167 
L 170.078611 370.725232 
L 171.005983 372.081783 
L 171.933355 374.984141 
L 172.860728 371.952392 
L 173.7881 372.525519 
L 174.715473 371.971389 
L 175.642845 373.439404 
L 176.570218 374.00279 
L 177.49759 372.694726 
L 178.424963 372.571707 
L 179.352335 375.652785 
L 180.279707 375.705054 
L 181.20708 376.869958 
L 182.134452 374.00802 
L 183.061825 376.660601 
L 183.989197 377.084154 
L 184.91657 376.816941 
L 185.843942 374.198877 
L 186.771315 376.658013 
L 187.698687 372.266377 
L 188.626059 377.640945 
L 189.553432 370.290664 
L 190.480804 372.134544 
L 191.408177 372.82586 
L 192.335549 375.391846 
L 193.262922 372.368636 
L 194.190294 373.820106 
L 195.117667 373.052662 
L 196.045039 372.891319 
L 196.972412 374.636622 
L 197.899784 374.404963 
L 198.827156 373.903516 
L 199.754529 373.795599 
L 201.609274 373.873593 
L 202.536646 374.281443 
L 203.464019 375.460148 
L 204.391391 371.980538 
L 205.318764 374.287456 
L 206.246136 374.222408 
L 207.173508 374.396952 
L 208.100881 374.925296 
L 209.028253 376.934794 
L 209.955626 376.245787 
L 210.882998 377.530135 
L 211.810371 375.137896 
L 212.737743 377.2286 
L 213.665116 376.629654 
L 214.592488 376.862958 
L 215.51986 375.816372 
L 216.447233 377.748652 
L 217.374605 368.274469 
L 218.301978 377.602618 
L 219.22935 375.873387 
L 220.156723 372.231738 
L 221.084095 373.295504 
L 222.011468 376.910511 
L 222.93884 375.653618 
L 223.866212 373.643949 
L 224.793585 374.908384 
L 225.720957 374.750245 
L 226.64833 375.93399 
L 227.575702 375.788759 
L 228.503075 376.222382 
L 229.430447 376.47463 
L 230.35782 371.16354 
L 231.285192 374.683417 
L 232.212564 375.706975 
L 233.139937 375.230223 
L 234.067309 373.728254 
L 234.994682 374.33682 
L 235.922054 375.130571 
L 236.849427 375.333251 
L 238.704172 377.438032 
L 239.631544 377.214863 
L 240.558916 377.595752 
L 241.486289 375.497085 
L 242.413661 371.299983 
L 243.341034 376.395196 
L 244.268406 376.908491 
L 245.195779 375.149914 
L 246.123151 377.305612 
L 247.050524 376.942317 
L 247.977896 377.167312 
L 248.905268 375.828187 
L 249.832641 376.617499 
L 250.760013 376.623029 
L 252.614758 375.451849 
L 253.542131 374.18637 
L 254.469503 374.616637 
L 255.396876 373.782032 
L 256.324248 375.194883 
L 257.25162 374.899293 
L 258.178993 369.793716 
L 259.106365 374.44441 
L 260.033738 375.291522 
L 260.96111 373.310163 
L 261.888483 373.610627 
L 262.815855 374.51844 
L 263.743228 371.474575 
L 264.6706 375.322638 
L 265.597972 374.992885 
L 266.525345 373.553047 
L 267.452717 375.905025 
L 268.38009 373.72687 
L 269.307462 376.350646 
L 270.234835 376.836556 
L 271.162207 376.427998 
L 272.08958 377.247845 
L 273.944324 377.725572 
L 274.871697 375.796509 
L 275.799069 377.032492 
L 277.653814 376.509734 
L 278.581187 374.788939 
L 279.508559 376.514402 
L 280.435932 375.252911 
L 281.363304 376.017974 
L 284.145421 371.977978 
L 285.072794 374.716345 
L 286.000166 374.645871 
L 286.927539 374.247187 
L 287.854911 374.474027 
L 288.782284 370.948339 
L 289.709656 375.162378 
L 290.637028 373.953234 
L 291.564401 374.503926 
L 292.491773 375.363146 
L 293.419146 374.071902 
L 294.346518 374.736623 
L 295.273891 374.991553 
L 296.201263 374.432207 
L 298.056008 375.697326 
L 298.98338 376.807809 
L 299.910753 377.251883 
L 300.838125 376.125281 
L 301.765498 377.334974 
L 302.69287 377.127319 
L 303.620243 377.475065 
L 304.547615 375.908709 
L 305.474988 377.073957 
L 306.40236 376.819034 
L 307.329732 377.093545 
L 308.257105 376.15314 
L 309.184477 376.432803 
L 310.11185 376.169958 
L 311.039222 376.854169 
L 311.966595 373.962769 
L 312.893967 373.770433 
L 313.82134 370.143976 
L 314.748712 373.973419 
L 315.676084 374.464485 
L 316.603457 375.321898 
L 317.530829 374.039157 
L 318.458202 374.803371 
L 319.385574 374.380951 
L 320.312947 374.753748 
L 321.240319 374.451089 
L 322.167692 374.997257 
L 323.095064 374.431892 
L 324.022436 374.163053 
L 324.949809 374.526355 
L 325.877181 375.261256 
L 326.804554 376.845381 
L 327.731926 377.038391 
L 328.659299 376.658949 
L 329.586671 376.91343 
L 330.514044 378.149927 
L 331.441416 377.86926 
L 332.368788 377.885891 
L 333.296161 376.13775 
L 335.150906 377.727096 
L 336.078278 376.91062 
L 337.005651 376.930822 
L 337.933023 377.262121 
L 338.860396 377.188294 
L 339.787768 376.531966 
L 340.71514 377.237298 
L 341.642513 376.544436 
L 342.569885 376.200084 
L 343.497258 374.258907 
L 344.42463 375.927629 
L 345.352003 372.127648 
L 346.279375 377.248017 
L 347.206748 376.871579 
L 348.13412 376.207618 
L 349.061492 376.468652 
L 349.988865 375.620405 
L 350.916237 376.383612 
L 351.84361 376.709209 
L 352.770982 370.797024 
L 353.698355 376.812816 
L 355.5531 377.480939 
L 356.480472 376.846065 
L 357.407844 372.663991 
L 358.335217 376.515622 
L 359.262589 376.369304 
L 360.189962 377.52752 
L 361.117334 376.939426 
L 362.044707 376.70023 
L 362.972079 377.091545 
L 363.899452 376.927245 
L 364.826824 376.442086 
L 365.754196 377.129529 
L 366.681569 376.818617 
L 367.608941 376.760919 
L 368.536314 377.10846 
L 369.463686 376.882022 
L 370.391059 376.84384 
L 371.318431 376.121023 
L 372.245804 375.540749 
L 373.173176 375.639622 
L 374.100548 375.050373 
L 375.027921 377.020713 
L 375.955293 376.755023 
L 376.882666 373.116649 
L 377.810038 376.639816 
L 378.737411 376.624741 
L 379.664783 377.122957 
L 380.592156 372.660076 
L 381.519528 376.543268 
L 382.4469 376.883075 
L 384.301645 377.115131 
L 385.229018 376.797158 
L 386.15639 375.441787 
L 387.083763 375.566946 
L 388.011135 374.889273 
L 388.938508 375.193404 
L 389.86588 376.158131 
L 390.793252 376.010944 
L 391.720625 375.219987 
L 392.647997 375.983589 
L 393.57537 372.093924 
L 394.502742 375.977213 
L 395.430115 375.622614 
L 396.357487 370.89789 
L 397.28486 375.252935 
L 398.212232 375.404382 
L 399.139604 375.742556 
L 400.066977 375.398979 
L 400.994349 374.74815 
L 401.921722 370.807462 
L 402.849094 374.576318 
L 404.703839 375.289853 
L 405.631212 374.53361 
L 406.558584 375.382351 
L 407.485956 374.533987 
L 408.413329 374.373549 
L 409.340701 371.733968 
L 410.268074 374.926756 
L 411.195446 375.134839 
L 412.122819 374.18673 
L 413.977564 374.174738 
L 414.904936 375.32388 
L 415.832308 374.092116 
L 416.759681 374.500551 
L 417.687053 373.333728 
L 418.614426 374.28657 
L 419.541798 374.887516 
L 420.469171 375.047562 
L 421.396543 375.074138 
L 422.323916 373.87378 
L 423.251288 374.573895 
L 424.17866 374.795597 
L 425.106033 374.364569 
L 426.033405 374.853983 
L 426.960778 373.805944 
L 427.88815 373.517446 
L 428.815523 374.558435 
L 429.742895 369.378879 
L 430.670268 374.324554 
L 431.59764 373.859101 
L 432.525012 373.975945 
L 433.452385 373.636133 
L 434.379757 374.987739 
L 435.30713 374.544708 
L 436.234502 374.562007 
L 437.161875 374.976145 
L 438.089247 374.288396 
L 439.01662 374.664942 
L 439.943992 374.238247 
L 440.871364 374.084286 
L 441.798737 373.329379 
L 442.726109 373.957781 
L 443.653482 374.123041 
L 444.580854 373.884042 
L 445.508227 373.899109 
L 447.362972 373.331609 
L 448.290344 372.920945 
L 449.217716 373.971586 
L 450.145089 374.630442 
L 451.072461 373.56163 
L 451.999834 373.539966 
L 452.927206 374.315172 
L 453.854579 373.556309 
L 454.781951 370.635848 
L 455.709324 374.028916 
L 456.636696 374.671999 
L 457.564068 373.961159 
L 459.418813 374.18113 
L 460.346186 373.566816 
L 461.273558 373.288358 
L 462.200931 373.847647 
L 463.128303 373.694756 
L 464.983048 373.792562 
L 465.91042 373.558291 
L 466.837793 372.898285 
L 467.765165 372.032159 
L 468.692538 373.452659 
L 469.61991 373.403465 
L 470.547283 372.618496 
L 471.474655 370.873342 
L 472.402028 373.519726 
L 473.3294 372.43797 
L 474.256772 373.732155 
L 475.184145 373.395247 
L 476.111517 373.249507 
L 477.03889 373.294061 
L 477.966262 369.418164 
L 478.893635 373.377396 
L 479.821007 373.83325 
L 481.675752 373.243514 
L 482.603124 369.916506 
L 483.530497 373.30856 
L 484.457869 373.07766 
L 485.385242 373.444818 
L 486.312614 373.058901 
L 488.167359 372.776992 
L 489.094732 372.865797 
L 490.022104 372.828898 
L 490.949476 371.747604 
L 492.804221 372.517306 
L 493.731594 373.492755 
L 494.658966 373.08877 
L 495.586339 373.272495 
L 496.513711 372.834209 
L 497.441084 372.706826 
L 498.368456 372.088295 
L 499.295828 372.548338 
L 502.077946 372.374923 
L 503.005318 372.498056 
L 503.932691 372.881749 
L 504.860063 372.188146 
L 505.787436 371.288066 
L 506.714808 371.144263 
L 508.569553 372.434758 
L 509.496925 367.718199 
L 510.424298 372.417556 
L 511.35167 371.342834 
L 512.279043 372.547346 
L 513.206415 372.169858 
L 514.133788 372.001398 
L 515.06116 372.371834 
L 515.988532 371.773711 
L 516.915905 371.646612 
L 517.843277 371.765683 
L 518.77065 372.166276 
L 519.698022 371.776599 
L 520.625395 372.063721 
L 521.552767 372.496321 
L 522.48014 371.631529 
L 523.407512 371.707508 
L 524.334884 372.861162 
L 525.262257 370.694167 
L 526.189629 373.552663 
L 527.117002 372.356858 
L 528.044374 372.821336 
L 528.971747 373.140852 
L 529.899119 372.840394 
L 530.826492 372.279919 
L 532.681236 373.620122 
L 533.608609 373.830312 
L 534.535981 371.932741 
L 535.463354 371.931001 
L 536.390726 372.202286 
L 537.318099 371.412984 
L 539.172844 371.891576 
L 540.100216 371.369579 
L 541.027588 371.856281 
L 541.954961 371.316031 
L 542.882333 371.511159 
L 543.809706 372.23737 
L 544.737078 369.27241 
L 546.591823 372.238521 
L 547.519196 372.813268 
L 548.446568 372.374303 
L 549.373941 369.14488 
L 550.301313 370.359494 
L 551.228685 370.456533 
L 552.156058 371.15742 
L 553.08343 370.839166 
L 554.010803 371.237061 
L 554.938175 371.336711 
L 555.865548 368.839862 
L 556.79292 371.370242 
L 557.720293 371.416064 
L 558.647665 371.644047 
L 559.575037 372.039232 
L 560.50241 371.291184 
L 561.429782 372.124374 
L 562.357155 371.149881 
L 563.284527 372.243153 
L 565.139272 370.421262 
L 566.066645 370.839647 
L 566.994017 369.475579 
L 567.921389 371.493178 
L 568.848762 370.965878 
L 569.776134 371.011685 
L 570.703507 370.160029 
L 571.630879 371.275329 
L 572.558252 370.973505 
L 573.485624 371.126983 
L 574.412997 370.083773 
L 575.340369 370.690908 
L 576.267741 370.019991 
L 577.195114 370.542563 
L 578.122486 369.717193 
L 579.049859 370.251953 
L 579.977231 366.980293 
L 580.904604 369.718657 
L 581.831976 370.483608 
L 582.759349 367.508044 
L 583.686721 371.331774 
L 584.614093 371.382808 
L 585.541466 371.654195 
L 586.468838 370.697772 
L 587.396211 371.432097 
L 588.323583 371.564506 
L 590.178328 370.658827 
L 591.105701 371.497818 
L 592.033073 372.082043 
L 592.960445 372.506133 
L 593.887818 366.972707 
L 594.81519 370.709951 
L 595.742563 370.838098 
L 597.597308 370.3368 
L 598.52468 370.218598 
L 599.452053 370.271659 
L 600.379425 370.882853 
L 601.306797 370.485048 
L 602.23417 367.932641 
L 603.161542 371.288093 
L 604.088915 370.748602 
L 605.016287 369.700869 
L 605.94366 367.02052 
L 606.871032 370.71912 
L 607.798405 371.265959 
L 608.725777 369.748702 
L 609.653149 369.347998 
L 610.580522 369.93456 
L 611.507894 369.654003 
L 612.435267 369.803606 
L 613.362639 370.349655 
L 614.290012 369.884878 
L 615.217384 365.036738 
L 616.144757 369.279176 
L 617.072129 369.932612 
L 618.926874 369.339865 
L 619.854246 369.255328 
L 621.708991 370.242463 
L 622.636364 366.170805 
L 622.636364 366.170805 
" clip-path="url(#p754ac513a7)" style="fill: none; stroke: #1f77b4; stroke-width: 1.5; stroke-linecap: square"/>
   </g>
   <g id="patch_3">
    <path d="M 90 384.48 
L 90 51.84 
" style="fill: none; stroke: #000000; stroke-width: 0.8; stroke-linejoin: miter; stroke-linecap: square"/>
   </g>
   <g id="patch_4">
    <path d="M 648 384.48 
L 648 51.84 
" style="fill: none; stroke: #000000; stroke-width: 0.8; stroke-linejoin: miter; stroke-linecap: square"/>
   </g>
   <g id="patch_5">
    <path d="M 90 384.48 
L 648 384.48 
" style="fill: none; stroke: #000000; stroke-width: 0.8; stroke-linejoin: miter; stroke-linecap: square"/>
   </g>
   <g id="patch_6">
    <path d="M 90 51.84 
L 648 51.84 
" style="fill: none; stroke: #000000; stroke-width: 0.8; stroke-linejoin: miter; stroke-linecap: square"/>
   </g>
   <g id="text_16">
    <!-- Average time per index -->
    <g transform="translate(298.700625 45.84) scale(0.12 -0.12)">
     <defs>
      <path id="DejaVuSans-70" d="M 1159 525 
L 1159 -1331 
L 581 -1331 
L 581 3500 
L 1159 3500 
L 1159 2969 
Q 1341 3281 1617 3432 
Q 1894 3584 2278 3584 
Q 2916 3584 3314 3078 
Q 3713 2572 3713 1747 
Q 3713 922 3314 415 
Q 2916 -91 2278 -91 
Q 1894 -91 1617 61 
Q 1341 213 1159 525 
z
M 3116 1747 
Q 3116 2381 2855 2742 
Q 2594 3103 2138 3103 
Q 1681 3103 1420 2742 
Q 1159 2381 1159 1747 
Q 1159 1113 1420 752 
Q 1681 391 2138 391 
Q 2594 391 2855 752 
Q 3116 1113 3116 1747 
z
" transform="scale(0.015625)"/>
     </defs>
     <use xlink:href="#DejaVuSans-41"/>
     <use xlink:href="#DejaVuSans-76" transform="translate(62.533203 0)"/>
     <use xlink:href="#DejaVuSans-65" transform="translate(121.712891 0)"/>
     <use xlink:href="#DejaVuSans-72" transform="translate(183.236328 0)"/>
     <use xlink:href="#DejaVuSans-61" transform="translate(224.349609 0)"/>
     <use xlink:href="#DejaVuSans-67" transform="translate(285.628906 0)"/>
     <use xlink:href="#DejaVuSans-65" transform="translate(349.105469 0)"/>
     <use xlink:href="#DejaVuSans-20" transform="translate(410.628906 0)"/>
     <use xlink:href="#DejaVuSans-74" transform="translate(442.416016 0)"/>
     <use xlink:href="#DejaVuSans-69" transform="translate(481.625 0)"/>
     <use xlink:href="#DejaVuSans-6d" transform="translate(509.408203 0)"/>
     <use xlink:href="#DejaVuSans-65" transform="translate(606.820312 0)"/>
     <use xlink:href="#DejaVuSans-20" transform="translate(668.34375 0)"/>
     <use xlink:href="#DejaVuSans-70" transform="translate(700.130859 0)"/>
     <use xlink:href="#DejaVuSans-65" transform="translate(763.607422 0)"/>
     <use xlink:href="#DejaVuSans-72" transform="translate(825.130859 0)"/>
     <use xlink:href="#DejaVuSans-20" transform="translate(866.244141 0)"/>
     <use xlink:href="#DejaVuSans-69" transform="translate(898.03125 0)"/>
     <use xlink:href="#DejaVuSans-6e" transform="translate(925.814453 0)"/>
     <use xlink:href="#DejaVuSans-64" transform="translate(989.193359 0)"/>
     <use xlink:href="#DejaVuSans-65" transform="translate(1052.669922 0)"/>
     <use xlink:href="#DejaVuSans-78" transform="translate(1112.443359 0)"/>
    </g>
   </g>
   <g id="legend_1">
    <g id="patch_7">
     <path d="M 544.020313 74.518125 
L 641 74.518125 
Q 643 74.518125 643 72.518125 
L 643 58.84 
Q 643 56.84 641 56.84 
L 544.020313 56.84 
Q 542.020313 56.84 542.020313 58.84 
L 542.020313 72.518125 
Q 542.020313 74.518125 544.020313 74.518125 
z
" style="fill: #ffffff; opacity: 0.8; stroke: #cccccc; stroke-linejoin: miter"/>
    </g>
    <g id="line2d_15">
     <path d="M 546.020313 64.938438 
L 556.020313 64.938438 
L 566.020313 64.938438 
" style="fill: none; stroke: #1f77b4; stroke-width: 1.5; stroke-linecap: square"/>
    </g>
    <g id="text_17">
     <!-- handleResult -->
     <g transform="translate(574.020313 68.438438) scale(0.1 -0.1)">
      <defs>
       <path id="DejaVuSans-68" d="M 3513 2113 
L 3513 0 
L 2938 0 
L 2938 2094 
Q 2938 2591 2744 2837 
Q 2550 3084 2163 3084 
Q 1697 3084 1428 2787 
Q 1159 2491 1159 1978 
L 1159 0 
L 581 0 
L 581 4863 
L 1159 4863 
L 1159 2956 
Q 1366 3272 1645 3428 
Q 1925 3584 2291 3584 
Q 2894 3584 3203 3211 
Q 3513 2838 3513 2113 
z
" transform="scale(0.015625)"/>
       <path id="DejaVuSans-6c" d="M 603 4863 
L 1178 4863 
L 1178 0 
L 603 0 
L 603 4863 
z
" transform="scale(0.015625)"/>
       <path id="DejaVuSans-52" d="M 2841 2188 
Q 3044 2119 3236 1894 
Q 3428 1669 3622 1275 
L 4263 0 
L 3584 0 
L 2988 1197 
Q 2756 1666 2539 1819 
Q 2322 1972 1947 1972 
L 1259 1972 
L 1259 0 
L 628 0 
L 628 4666 
L 2053 4666 
Q 2853 4666 3247 4331 
Q 3641 3997 3641 3322 
Q 3641 2881 3436 2590 
Q 3231 2300 2841 2188 
z
M 1259 4147 
L 1259 2491 
L 2053 2491 
Q 2509 2491 2742 2702 
Q 2975 2913 2975 3322 
Q 2975 3731 2742 3939 
Q 2509 4147 2053 4147 
L 1259 4147 
z
" transform="scale(0.015625)"/>
       <path id="DejaVuSans-75" d="M 544 1381 
L 544 3500 
L 1119 3500 
L 1119 1403 
Q 1119 906 1312 657 
Q 1506 409 1894 409 
Q 2359 409 2629 706 
Q 2900 1003 2900 1516 
L 2900 3500 
L 3475 3500 
L 3475 0 
L 2900 0 
L 2900 538 
Q 2691 219 2414 64 
Q 2138 -91 1772 -91 
Q 1169 -91 856 284 
Q 544 659 544 1381 
z
M 1991 3584 
L 1991 3584 
z
" transform="scale(0.015625)"/>
      </defs>
      <use xlink:href="#DejaVuSans-68"/>
      <use xlink:href="#DejaVuSans-61" transform="translate(63.378906 0)"/>
      <use xlink:href="#DejaVuSans-6e" transform="translate(124.658203 0)"/>
      <use xlink:href="#DejaVuSans-64" transform="translate(188.037109 0)"/>
      <use xlink:href="#DejaVuSans-6c" transform="translate(251.513672 0)"/>
      <use xlink:href="#DejaVuSans-65" transform="translate(279.296875 0)"/>
      <use xlink:href="#DejaVuSans-52" transform="translate(340.820312 0)"/>
      <use xlink:href="#DejaVuSans-65" transform="translate(405.802734 0)"/>
      <use xlink:href="#DejaVuSans-73" transform="translate(467.326172 0)"/>
      <use xlink:href="#DejaVuSans-75" transform="translate(519.425781 0)"/>
      <use xlink:href="#DejaVuSans-6c" transform="translate(582.804688 0)"/>
      <use xlink:href="#DejaVuSans-74" transform="translate(610.587891 0)"/>
     </g>
    </g>
   </g>
  </g>
 </g>
 <defs>
  <clipPath id="p754ac513a7">
   <rect x="90" y="51.84" width="558" height="332.64"/>
  </clipPath>
 </defs>
</svg>
