<?xml version="1.0" encoding="utf-8" standalone="no"?>
<!DOCTYPE svg PUBLIC "-//W3C//DTD SVG 1.1//EN"
  "http://www.w3.org/Graphics/SVG/1.1/DTD/svg11.dtd">
<svg xmlns:xlink="http://www.w3.org/1999/xlink" width="720pt" height="432pt" viewBox="0 0 720 432" xmlns="http://www.w3.org/2000/svg" version="1.1">
 <metadata>
  <rdf:RDF xmlns:dc="http://purl.org/dc/elements/1.1/" xmlns:cc="http://creativecommons.org/ns#" xmlns:rdf="http://www.w3.org/1999/02/22-rdf-syntax-ns#">
   <cc:Work>
    <dc:type rdf:resource="http://purl.org/dc/dcmitype/StillImage"/>
    <dc:date>2025-06-08T23:57:28.735719</dc:date>
    <dc:format>image/svg+xml</dc:format>
    <dc:creator>
     <cc:Agent>
      <dc:title>Matplotlib v3.10.3, https://matplotlib.org/</dc:title>
     </cc:Agent>
    </dc:creator>
   </cc:Work>
  </rdf:RDF>
 </metadata>
 <defs>
  <style type="text/css">*{stroke-linejoin: round; stroke-linecap: butt}</style>
 </defs>
 <g id="figure_1">
  <g id="patch_1">
   <path d="M 0 432 
L 720 432 
L 720 0 
L 0 0 
z
" style="fill: #ffffff"/>
  </g>
  <g id="axes_1">
   <g id="patch_2">
    <path d="M 90 384.48 
L 648 384.48 
L 648 51.84 
L 90 51.84 
z
" style="fill: #ffffff"/>
   </g>
   <g id="matplotlib.axis_1">
    <g id="xtick_1">
     <g id="line2d_1">
      <defs>
       <path id="mea88a6e320" d="M 0 0 
L 0 3.5 
" style="stroke: #000000; stroke-width: 0.8"/>
      </defs>
      <g>
       <use xlink:href="#mea88a6e320" x="115.363636" y="384.48" style="stroke: #000000; stroke-width: 0.8"/>
      </g>
     </g>
     <g id="text_1">
      <!-- 0 -->
      <g transform="translate(112.182386 399.078438) scale(0.1 -0.1)">
       <defs>
        <path id="DejaVuSans-30" d="M 2034 4250 
Q 1547 4250 1301 3770 
Q 1056 3291 1056 2328 
Q 1056 1369 1301 889 
Q 1547 409 2034 409 
Q 2525 409 2770 889 
Q 3016 1369 3016 2328 
Q 3016 3291 2770 3770 
Q 2525 4250 2034 4250 
z
M 2034 4750 
Q 2819 4750 3233 4129 
Q 3647 3509 3647 2328 
Q 3647 1150 3233 529 
Q 2819 -91 2034 -91 
Q 1250 -91 836 529 
Q 422 1150 422 2328 
Q 422 3509 836 4129 
Q 1250 4750 2034 4750 
z
" transform="scale(0.015625)"/>
       </defs>
       <use xlink:href="#DejaVuSans-30"/>
      </g>
     </g>
    </g>
    <g id="xtick_2">
     <g id="line2d_2">
      <g>
       <use xlink:href="#mea88a6e320" x="207.931652" y="384.48" style="stroke: #000000; stroke-width: 0.8"/>
      </g>
     </g>
     <g id="text_2">
      <!-- 100 -->
      <g transform="translate(198.387902 399.078438) scale(0.1 -0.1)">
       <defs>
        <path id="DejaVuSans-31" d="M 794 531 
L 1825 531 
L 1825 4091 
L 703 3866 
L 703 4441 
L 1819 4666 
L 2450 4666 
L 2450 531 
L 3481 531 
L 3481 0 
L 794 0 
L 794 531 
z
" transform="scale(0.015625)"/>
       </defs>
       <use xlink:href="#DejaVuSans-31"/>
       <use xlink:href="#DejaVuSans-30" transform="translate(63.623047 0)"/>
       <use xlink:href="#DejaVuSans-30" transform="translate(127.246094 0)"/>
      </g>
     </g>
    </g>
    <g id="xtick_3">
     <g id="line2d_3">
      <g>
       <use xlink:href="#mea88a6e320" x="300.499668" y="384.48" style="stroke: #000000; stroke-width: 0.8"/>
      </g>
     </g>
     <g id="text_3">
      <!-- 200 -->
      <g transform="translate(290.955918 399.078438) scale(0.1 -0.1)">
       <defs>
        <path id="DejaVuSans-32" d="M 1228 531 
L 3431 531 
L 3431 0 
L 469 0 
L 469 531 
Q 828 903 1448 1529 
Q 2069 2156 2228 2338 
Q 2531 2678 2651 2914 
Q 2772 3150 2772 3378 
Q 2772 3750 2511 3984 
Q 2250 4219 1831 4219 
Q 1534 4219 1204 4116 
Q 875 4013 500 3803 
L 500 4441 
Q 881 4594 1212 4672 
Q 1544 4750 1819 4750 
Q 2544 4750 2975 4387 
Q 3406 4025 3406 3419 
Q 3406 3131 3298 2873 
Q 3191 2616 2906 2266 
Q 2828 2175 2409 1742 
Q 1991 1309 1228 531 
z
" transform="scale(0.015625)"/>
       </defs>
       <use xlink:href="#DejaVuSans-32"/>
       <use xlink:href="#DejaVuSans-30" transform="translate(63.623047 0)"/>
       <use xlink:href="#DejaVuSans-30" transform="translate(127.246094 0)"/>
      </g>
     </g>
    </g>
    <g id="xtick_4">
     <g id="line2d_4">
      <g>
       <use xlink:href="#mea88a6e320" x="393.067684" y="384.48" style="stroke: #000000; stroke-width: 0.8"/>
      </g>
     </g>
     <g id="text_4">
      <!-- 300 -->
      <g transform="translate(383.523934 399.078438) scale(0.1 -0.1)">
       <defs>
        <path id="DejaVuSans-33" d="M 2597 2516 
Q 3050 2419 3304 2112 
Q 3559 1806 3559 1356 
Q 3559 666 3084 287 
Q 2609 -91 1734 -91 
Q 1441 -91 1130 -33 
Q 819 25 488 141 
L 488 750 
Q 750 597 1062 519 
Q 1375 441 1716 441 
Q 2309 441 2620 675 
Q 2931 909 2931 1356 
Q 2931 1769 2642 2001 
Q 2353 2234 1838 2234 
L 1294 2234 
L 1294 2753 
L 1863 2753 
Q 2328 2753 2575 2939 
Q 2822 3125 2822 3475 
Q 2822 3834 2567 4026 
Q 2313 4219 1838 4219 
Q 1578 4219 1281 4162 
Q 984 4106 628 3988 
L 628 4550 
Q 988 4650 1302 4700 
Q 1616 4750 1894 4750 
Q 2613 4750 3031 4423 
Q 3450 4097 3450 3541 
Q 3450 3153 3228 2886 
Q 3006 2619 2597 2516 
z
" transform="scale(0.015625)"/>
       </defs>
       <use xlink:href="#DejaVuSans-33"/>
       <use xlink:href="#DejaVuSans-30" transform="translate(63.623047 0)"/>
       <use xlink:href="#DejaVuSans-30" transform="translate(127.246094 0)"/>
      </g>
     </g>
    </g>
    <g id="xtick_5">
     <g id="line2d_5">
      <g>
       <use xlink:href="#mea88a6e320" x="485.6357" y="384.48" style="stroke: #000000; stroke-width: 0.8"/>
      </g>
     </g>
     <g id="text_5">
      <!-- 400 -->
      <g transform="translate(476.09195 399.078438) scale(0.1 -0.1)">
       <defs>
        <path id="DejaVuSans-34" d="M 2419 4116 
L 825 1625 
L 2419 1625 
L 2419 4116 
z
M 2253 4666 
L 3047 4666 
L 3047 1625 
L 3713 1625 
L 3713 1100 
L 3047 1100 
L 3047 0 
L 2419 0 
L 2419 1100 
L 313 1100 
L 313 1709 
L 2253 4666 
z
" transform="scale(0.015625)"/>
       </defs>
       <use xlink:href="#DejaVuSans-34"/>
       <use xlink:href="#DejaVuSans-30" transform="translate(63.623047 0)"/>
       <use xlink:href="#DejaVuSans-30" transform="translate(127.246094 0)"/>
      </g>
     </g>
    </g>
    <g id="xtick_6">
     <g id="line2d_6">
      <g>
       <use xlink:href="#mea88a6e320" x="578.203716" y="384.48" style="stroke: #000000; stroke-width: 0.8"/>
      </g>
     </g>
     <g id="text_6">
      <!-- 500 -->
      <g transform="translate(568.659966 399.078438) scale(0.1 -0.1)">
       <defs>
        <path id="DejaVuSans-35" d="M 691 4666 
L 3169 4666 
L 3169 4134 
L 1269 4134 
L 1269 2991 
Q 1406 3038 1543 3061 
Q 1681 3084 1819 3084 
Q 2600 3084 3056 2656 
Q 3513 2228 3513 1497 
Q 3513 744 3044 326 
Q 2575 -91 1722 -91 
Q 1428 -91 1123 -41 
Q 819 9 494 109 
L 494 744 
Q 775 591 1075 516 
Q 1375 441 1709 441 
Q 2250 441 2565 725 
Q 2881 1009 2881 1497 
Q 2881 1984 2565 2268 
Q 2250 2553 1709 2553 
Q 1456 2553 1204 2497 
Q 953 2441 691 2322 
L 691 4666 
z
" transform="scale(0.015625)"/>
       </defs>
       <use xlink:href="#DejaVuSans-35"/>
       <use xlink:href="#DejaVuSans-30" transform="translate(63.623047 0)"/>
       <use xlink:href="#DejaVuSans-30" transform="translate(127.246094 0)"/>
      </g>
     </g>
    </g>
    <g id="text_7">
     <!-- Index -->
     <g transform="translate(355.233594 412.756563) scale(0.1 -0.1)">
      <defs>
       <path id="DejaVuSans-49" d="M 628 4666 
L 1259 4666 
L 1259 0 
L 628 0 
L 628 4666 
z
" transform="scale(0.015625)"/>
       <path id="DejaVuSans-6e" d="M 3513 2113 
L 3513 0 
L 2938 0 
L 2938 2094 
Q 2938 2591 2744 2837 
Q 2550 3084 2163 3084 
Q 1697 3084 1428 2787 
Q 1159 2491 1159 1978 
L 1159 0 
L 581 0 
L 581 3500 
L 1159 3500 
L 1159 2956 
Q 1366 3272 1645 3428 
Q 1925 3584 2291 3584 
Q 2894 3584 3203 3211 
Q 3513 2838 3513 2113 
z
" transform="scale(0.015625)"/>
       <path id="DejaVuSans-64" d="M 2906 2969 
L 2906 4863 
L 3481 4863 
L 3481 0 
L 2906 0 
L 2906 525 
Q 2725 213 2448 61 
Q 2172 -91 1784 -91 
Q 1150 -91 751 415 
Q 353 922 353 1747 
Q 353 2572 751 3078 
Q 1150 3584 1784 3584 
Q 2172 3584 2448 3432 
Q 2725 3281 2906 2969 
z
M 947 1747 
Q 947 1113 1208 752 
Q 1469 391 1925 391 
Q 2381 391 2643 752 
Q 2906 1113 2906 1747 
Q 2906 2381 2643 2742 
Q 2381 3103 1925 3103 
Q 1469 3103 1208 2742 
Q 947 2381 947 1747 
z
" transform="scale(0.015625)"/>
       <path id="DejaVuSans-65" d="M 3597 1894 
L 3597 1613 
L 953 1613 
Q 991 1019 1311 708 
Q 1631 397 2203 397 
Q 2534 397 2845 478 
Q 3156 559 3463 722 
L 3463 178 
Q 3153 47 2828 -22 
Q 2503 -91 2169 -91 
Q 1331 -91 842 396 
Q 353 884 353 1716 
Q 353 2575 817 3079 
Q 1281 3584 2069 3584 
Q 2775 3584 3186 3129 
Q 3597 2675 3597 1894 
z
M 3022 2063 
Q 3016 2534 2758 2815 
Q 2500 3097 2075 3097 
Q 1594 3097 1305 2825 
Q 1016 2553 972 2059 
L 3022 2063 
z
" transform="scale(0.015625)"/>
       <path id="DejaVuSans-78" d="M 3513 3500 
L 2247 1797 
L 3578 0 
L 2900 0 
L 1881 1375 
L 863 0 
L 184 0 
L 1544 1831 
L 300 3500 
L 978 3500 
L 1906 2253 
L 2834 3500 
L 3513 3500 
z
" transform="scale(0.015625)"/>
      </defs>
      <use xlink:href="#DejaVuSans-49"/>
      <use xlink:href="#DejaVuSans-6e" transform="translate(29.492188 0)"/>
      <use xlink:href="#DejaVuSans-64" transform="translate(92.871094 0)"/>
      <use xlink:href="#DejaVuSans-65" transform="translate(156.347656 0)"/>
      <use xlink:href="#DejaVuSans-78" transform="translate(216.121094 0)"/>
     </g>
    </g>
   </g>
   <g id="matplotlib.axis_2">
    <g id="ytick_1">
     <g id="line2d_7">
      <defs>
       <path id="mdfdee6d1ba" d="M 0 0 
L -3.5 0 
" style="stroke: #000000; stroke-width: 0.8"/>
      </defs>
      <g>
       <use xlink:href="#mdfdee6d1ba" x="90" y="384.48" style="stroke: #000000; stroke-width: 0.8"/>
      </g>
     </g>
     <g id="text_8">
      <!-- 0 -->
      <g transform="translate(76.6375 388.279219) scale(0.1 -0.1)">
       <use xlink:href="#DejaVuSans-30"/>
      </g>
     </g>
    </g>
    <g id="ytick_2">
     <g id="line2d_8">
      <g>
       <use xlink:href="#mdfdee6d1ba" x="90" y="319.802989" style="stroke: #000000; stroke-width: 0.8"/>
      </g>
     </g>
     <g id="text_9">
      <!-- 50 -->
      <g transform="translate(70.275 323.602208) scale(0.1 -0.1)">
       <use xlink:href="#DejaVuSans-35"/>
       <use xlink:href="#DejaVuSans-30" transform="translate(63.623047 0)"/>
      </g>
     </g>
    </g>
    <g id="ytick_3">
     <g id="line2d_9">
      <g>
       <use xlink:href="#mdfdee6d1ba" x="90" y="255.125978" style="stroke: #000000; stroke-width: 0.8"/>
      </g>
     </g>
     <g id="text_10">
      <!-- 100 -->
      <g transform="translate(63.9125 258.925196) scale(0.1 -0.1)">
       <use xlink:href="#DejaVuSans-31"/>
       <use xlink:href="#DejaVuSans-30" transform="translate(63.623047 0)"/>
       <use xlink:href="#DejaVuSans-30" transform="translate(127.246094 0)"/>
      </g>
     </g>
    </g>
    <g id="ytick_4">
     <g id="line2d_10">
      <g>
       <use xlink:href="#mdfdee6d1ba" x="90" y="190.448966" style="stroke: #000000; stroke-width: 0.8"/>
      </g>
     </g>
     <g id="text_11">
      <!-- 150 -->
      <g transform="translate(63.9125 194.248185) scale(0.1 -0.1)">
       <use xlink:href="#DejaVuSans-31"/>
       <use xlink:href="#DejaVuSans-35" transform="translate(63.623047 0)"/>
       <use xlink:href="#DejaVuSans-30" transform="translate(127.246094 0)"/>
      </g>
     </g>
    </g>
    <g id="ytick_5">
     <g id="line2d_11">
      <g>
       <use xlink:href="#mdfdee6d1ba" x="90" y="125.771955" style="stroke: #000000; stroke-width: 0.8"/>
      </g>
     </g>
     <g id="text_12">
      <!-- 200 -->
      <g transform="translate(63.9125 129.571174) scale(0.1 -0.1)">
       <use xlink:href="#DejaVuSans-32"/>
       <use xlink:href="#DejaVuSans-30" transform="translate(63.623047 0)"/>
       <use xlink:href="#DejaVuSans-30" transform="translate(127.246094 0)"/>
      </g>
     </g>
    </g>
    <g id="ytick_6">
     <g id="line2d_12">
      <g>
       <use xlink:href="#mdfdee6d1ba" x="90" y="61.094944" style="stroke: #000000; stroke-width: 0.8"/>
      </g>
     </g>
     <g id="text_13">
      <!-- 250 -->
      <g transform="translate(63.9125 64.894163) scale(0.1 -0.1)">
       <use xlink:href="#DejaVuSans-32"/>
       <use xlink:href="#DejaVuSans-35" transform="translate(63.623047 0)"/>
       <use xlink:href="#DejaVuSans-30" transform="translate(127.246094 0)"/>
      </g>
     </g>
    </g>
    <g id="text_14">
     <!-- Average time (ms) -->
     <g transform="translate(57.832812 264.543594) rotate(-90) scale(0.1 -0.1)">
      <defs>
       <path id="DejaVuSans-41" d="M 2188 4044 
L 1331 1722 
L 3047 1722 
L 2188 4044 
z
M 1831 4666 
L 2547 4666 
L 4325 0 
L 3669 0 
L 3244 1197 
L 1141 1197 
L 716 0 
L 50 0 
L 1831 4666 
z
" transform="scale(0.015625)"/>
       <path id="DejaVuSans-76" d="M 191 3500 
L 800 3500 
L 1894 563 
L 2988 3500 
L 3597 3500 
L 2284 0 
L 1503 0 
L 191 3500 
z
" transform="scale(0.015625)"/>
       <path id="DejaVuSans-72" d="M 2631 2963 
Q 2534 3019 2420 3045 
Q 2306 3072 2169 3072 
Q 1681 3072 1420 2755 
Q 1159 2438 1159 1844 
L 1159 0 
L 581 0 
L 581 3500 
L 1159 3500 
L 1159 2956 
Q 1341 3275 1631 3429 
Q 1922 3584 2338 3584 
Q 2397 3584 2469 3576 
Q 2541 3569 2628 3553 
L 2631 2963 
z
" transform="scale(0.015625)"/>
       <path id="DejaVuSans-61" d="M 2194 1759 
Q 1497 1759 1228 1600 
Q 959 1441 959 1056 
Q 959 750 1161 570 
Q 1363 391 1709 391 
Q 2188 391 2477 730 
Q 2766 1069 2766 1631 
L 2766 1759 
L 2194 1759 
z
M 3341 1997 
L 3341 0 
L 2766 0 
L 2766 531 
Q 2569 213 2275 61 
Q 1981 -91 1556 -91 
Q 1019 -91 701 211 
Q 384 513 384 1019 
Q 384 1609 779 1909 
Q 1175 2209 1959 2209 
L 2766 2209 
L 2766 2266 
Q 2766 2663 2505 2880 
Q 2244 3097 1772 3097 
Q 1472 3097 1187 3025 
Q 903 2953 641 2809 
L 641 3341 
Q 956 3463 1253 3523 
Q 1550 3584 1831 3584 
Q 2591 3584 2966 3190 
Q 3341 2797 3341 1997 
z
" transform="scale(0.015625)"/>
       <path id="DejaVuSans-67" d="M 2906 1791 
Q 2906 2416 2648 2759 
Q 2391 3103 1925 3103 
Q 1463 3103 1205 2759 
Q 947 2416 947 1791 
Q 947 1169 1205 825 
Q 1463 481 1925 481 
Q 2391 481 2648 825 
Q 2906 1169 2906 1791 
z
M 3481 434 
Q 3481 -459 3084 -895 
Q 2688 -1331 1869 -1331 
Q 1566 -1331 1297 -1286 
Q 1028 -1241 775 -1147 
L 775 -588 
Q 1028 -725 1275 -790 
Q 1522 -856 1778 -856 
Q 2344 -856 2625 -561 
Q 2906 -266 2906 331 
L 2906 616 
Q 2728 306 2450 153 
Q 2172 0 1784 0 
Q 1141 0 747 490 
Q 353 981 353 1791 
Q 353 2603 747 3093 
Q 1141 3584 1784 3584 
Q 2172 3584 2450 3431 
Q 2728 3278 2906 2969 
L 2906 3500 
L 3481 3500 
L 3481 434 
z
" transform="scale(0.015625)"/>
       <path id="DejaVuSans-20" transform="scale(0.015625)"/>
       <path id="DejaVuSans-74" d="M 1172 4494 
L 1172 3500 
L 2356 3500 
L 2356 3053 
L 1172 3053 
L 1172 1153 
Q 1172 725 1289 603 
Q 1406 481 1766 481 
L 2356 481 
L 2356 0 
L 1766 0 
Q 1100 0 847 248 
Q 594 497 594 1153 
L 594 3053 
L 172 3053 
L 172 3500 
L 594 3500 
L 594 4494 
L 1172 4494 
z
" transform="scale(0.015625)"/>
       <path id="DejaVuSans-69" d="M 603 3500 
L 1178 3500 
L 1178 0 
L 603 0 
L 603 3500 
z
M 603 4863 
L 1178 4863 
L 1178 4134 
L 603 4134 
L 603 4863 
z
" transform="scale(0.015625)"/>
       <path id="DejaVuSans-6d" d="M 3328 2828 
Q 3544 3216 3844 3400 
Q 4144 3584 4550 3584 
Q 5097 3584 5394 3201 
Q 5691 2819 5691 2113 
L 5691 0 
L 5113 0 
L 5113 2094 
Q 5113 2597 4934 2840 
Q 4756 3084 4391 3084 
Q 3944 3084 3684 2787 
Q 3425 2491 3425 1978 
L 3425 0 
L 2847 0 
L 2847 2094 
Q 2847 2600 2669 2842 
Q 2491 3084 2119 3084 
Q 1678 3084 1418 2786 
Q 1159 2488 1159 1978 
L 1159 0 
L 581 0 
L 581 3500 
L 1159 3500 
L 1159 2956 
Q 1356 3278 1631 3431 
Q 1906 3584 2284 3584 
Q 2666 3584 2933 3390 
Q 3200 3197 3328 2828 
z
" transform="scale(0.015625)"/>
       <path id="DejaVuSans-28" d="M 1984 4856 
Q 1566 4138 1362 3434 
Q 1159 2731 1159 2009 
Q 1159 1288 1364 580 
Q 1569 -128 1984 -844 
L 1484 -844 
Q 1016 -109 783 600 
Q 550 1309 550 2009 
Q 550 2706 781 3412 
Q 1013 4119 1484 4856 
L 1984 4856 
z
" transform="scale(0.015625)"/>
       <path id="DejaVuSans-73" d="M 2834 3397 
L 2834 2853 
Q 2591 2978 2328 3040 
Q 2066 3103 1784 3103 
Q 1356 3103 1142 2972 
Q 928 2841 928 2578 
Q 928 2378 1081 2264 
Q 1234 2150 1697 2047 
L 1894 2003 
Q 2506 1872 2764 1633 
Q 3022 1394 3022 966 
Q 3022 478 2636 193 
Q 2250 -91 1575 -91 
Q 1294 -91 989 -36 
Q 684 19 347 128 
L 347 722 
Q 666 556 975 473 
Q 1284 391 1588 391 
Q 1994 391 2212 530 
Q 2431 669 2431 922 
Q 2431 1156 2273 1281 
Q 2116 1406 1581 1522 
L 1381 1569 
Q 847 1681 609 1914 
Q 372 2147 372 2553 
Q 372 3047 722 3315 
Q 1072 3584 1716 3584 
Q 2034 3584 2315 3537 
Q 2597 3491 2834 3397 
z
" transform="scale(0.015625)"/>
       <path id="DejaVuSans-29" d="M 513 4856 
L 1013 4856 
Q 1481 4119 1714 3412 
Q 1947 2706 1947 2009 
Q 1947 1309 1714 600 
Q 1481 -109 1013 -844 
L 513 -844 
Q 928 -128 1133 580 
Q 1338 1288 1338 2009 
Q 1338 2731 1133 3434 
Q 928 4138 513 4856 
z
" transform="scale(0.015625)"/>
      </defs>
      <use xlink:href="#DejaVuSans-41"/>
      <use xlink:href="#DejaVuSans-76" transform="translate(62.533203 0)"/>
      <use xlink:href="#DejaVuSans-65" transform="translate(121.712891 0)"/>
      <use xlink:href="#DejaVuSans-72" transform="translate(183.236328 0)"/>
      <use xlink:href="#DejaVuSans-61" transform="translate(224.349609 0)"/>
      <use xlink:href="#DejaVuSans-67" transform="translate(285.628906 0)"/>
      <use xlink:href="#DejaVuSans-65" transform="translate(349.105469 0)"/>
      <use xlink:href="#DejaVuSans-20" transform="translate(410.628906 0)"/>
      <use xlink:href="#DejaVuSans-74" transform="translate(442.416016 0)"/>
      <use xlink:href="#DejaVuSans-69" transform="translate(481.625 0)"/>
      <use xlink:href="#DejaVuSans-6d" transform="translate(509.408203 0)"/>
      <use xlink:href="#DejaVuSans-65" transform="translate(606.820312 0)"/>
      <use xlink:href="#DejaVuSans-20" transform="translate(668.34375 0)"/>
      <use xlink:href="#DejaVuSans-28" transform="translate(700.130859 0)"/>
      <use xlink:href="#DejaVuSans-6d" transform="translate(739.144531 0)"/>
      <use xlink:href="#DejaVuSans-73" transform="translate(836.556641 0)"/>
      <use xlink:href="#DejaVuSans-29" transform="translate(888.65625 0)"/>
     </g>
    </g>
   </g>
   <g id="line2d_13">
    <path d="M 115.363636 382.40374 
L 116.289317 376.986636 
L 117.214997 377.768226 
L 118.140677 379.668764 
L 119.066357 380.752265 
L 119.992037 378.731383 
L 121.843397 381.678172 
L 123.694758 381.109148 
L 124.620438 381.953312 
L 125.546118 381.512546 
L 126.471798 382.212105 
L 127.397478 382.365498 
L 129.248839 381.814236 
L 130.174519 382.540072 
L 131.100199 381.367694 
L 132.025879 382.352424 
L 132.951559 382.32227 
L 133.87724 381.943136 
L 134.80292 381.844249 
L 135.7286 381.369973 
L 136.65428 382.19706 
L 137.57996 378.280396 
L 138.50564 380.559104 
L 139.431321 382.148376 
L 141.282681 381.888329 
L 142.208361 378.908458 
L 143.134041 382.302804 
L 144.059721 382.464814 
L 144.985401 381.397744 
L 145.911082 381.889978 
L 146.836762 382.143879 
L 147.762442 382.228971 
L 148.688122 379.318481 
L 149.613802 381.93615 
L 150.539482 382.305154 
L 151.465163 382.284747 
L 152.390843 381.894895 
L 153.316523 379.224508 
L 154.242203 382.205026 
L 155.167883 382.61034 
L 156.093563 382.055295 
L 157.019244 382.058902 
L 157.944924 381.834504 
L 158.870604 382.208926 
L 159.796284 380.709159 
L 160.721964 382.486018 
L 161.647644 382.611689 
L 162.573324 381.587774 
L 163.499005 381.477706 
L 164.424685 380.149155 
L 165.350365 382.890892 
L 166.276045 382.84396 
L 167.201725 382.592301 
L 169.053086 382.86315 
L 169.978766 382.556083 
L 170.904446 380.635354 
L 171.830126 382.903837 
L 172.755806 382.676199 
L 173.681486 382.63725 
L 174.607167 382.387984 
L 175.532847 380.377285 
L 176.458527 382.830682 
L 177.384207 382.826881 
L 178.309887 370.378766 
L 179.235567 381.370214 
L 180.161248 382.845876 
L 181.086928 382.993205 
L 182.938288 381.619688 
L 183.863968 383.014237 
L 185.715328 382.687454 
L 186.641009 381.697942 
L 187.566689 383.064067 
L 188.492369 382.583845 
L 189.418049 383.028359 
L 190.343729 380.388148 
L 191.269409 383.092892 
L 192.19509 383.073343 
L 193.12077 382.849013 
L 194.04645 382.933189 
L 194.97213 382.800449 
L 195.89781 382.948377 
L 196.82349 376.895098 
L 197.749171 383.028106 
L 200.526211 382.994611 
L 201.451891 382.857967 
L 202.377571 383.100536 
L 204.228932 383.052538 
L 207.005972 383.102762 
L 207.931652 379.245902 
L 208.857332 381.402275 
L 209.783013 383.1762 
L 210.708693 382.799426 
L 211.634373 381.809142 
L 212.560053 381.566197 
L 213.485733 382.904155 
L 214.411413 383.026128 
L 215.337094 381.9648 
L 216.262774 380.544473 
L 217.188454 383.146007 
L 218.114134 383.22669 
L 219.039814 381.242674 
L 219.965494 381.584167 
L 220.891175 383.188502 
L 221.816855 382.909146 
L 222.742535 380.718831 
L 223.668215 383.089125 
L 225.519575 382.769954 
L 226.445255 379.598155 
L 227.370936 383.081545 
L 228.296616 382.089726 
L 229.222296 383.134211 
L 230.147976 380.891391 
L 231.073656 382.859888 
L 231.999336 382.978255 
L 232.925017 382.815016 
L 233.850697 380.872828 
L 234.776377 383.018366 
L 236.627737 383.01984 
L 237.553417 381.895788 
L 238.479098 381.9295 
L 239.404778 383.055271 
L 240.330458 381.484438 
L 241.256138 381.1933 
L 242.181818 380.738137 
L 243.107498 383.202756 
L 244.033179 383.097059 
L 244.958859 381.155393 
L 245.884539 381.109404 
L 246.810219 383.253688 
L 247.735899 383.233458 
L 248.661579 381.811959 
L 249.587259 381.850727 
L 250.51294 383.27863 
L 251.43862 383.16843 
L 252.3643 380.63461 
L 253.28998 382.945942 
L 255.14134 383.058718 
L 256.067021 380.457 
L 256.992701 382.930886 
L 257.918381 383.129154 
L 258.844061 383.045201 
L 259.769741 380.520825 
L 260.695421 382.982537 
L 261.621102 382.34859 
L 262.546782 383.093217 
L 263.472462 380.627734 
L 264.398142 382.649547 
L 265.323822 383.020685 
L 266.249502 382.783312 
L 267.175182 381.232142 
L 268.100863 381.043873 
L 269.026543 383.019046 
L 269.952223 382.503333 
L 270.877903 381.297268 
L 271.803583 381.824259 
L 272.729263 383.036483 
L 273.654944 383.121825 
L 274.580624 382.051112 
L 275.506304 381.726929 
L 276.431984 383.033808 
L 277.357664 382.970227 
L 278.283344 381.628872 
L 279.209025 381.513074 
L 280.134705 383.048576 
L 281.060385 382.908819 
L 281.986065 380.54398 
L 282.911745 382.799888 
L 284.763106 382.880924 
L 285.688786 380.41496 
L 286.614466 382.960163 
L 288.465826 382.947306 
L 289.391506 378.971654 
L 290.317186 382.914264 
L 291.242867 382.252562 
L 292.168547 382.865777 
L 293.094227 379.41162 
L 294.019907 382.987119 
L 294.945587 382.320931 
L 295.871267 382.882004 
L 296.796948 381.71805 
L 297.722628 381.190011 
L 298.648308 383.090617 
L 299.573988 383.090896 
L 300.499668 381.858999 
L 301.425348 381.74843 
L 302.351029 383.149891 
L 303.276709 383.037911 
L 304.202389 381.67155 
L 305.128069 381.599258 
L 306.053749 383.037075 
L 306.979429 382.874664 
L 307.905109 381.751984 
L 308.83079 381.399483 
L 309.75647 382.902616 
L 310.68215 383.034277 
L 311.60783 380.239016 
L 312.53351 382.313132 
L 313.45919 382.773684 
L 314.384871 382.766589 
L 315.310551 380.043847 
L 316.236231 382.795694 
L 317.161911 383.038607 
L 318.087591 382.927147 
L 319.013271 378.310113 
L 319.938952 382.850412 
L 321.790312 382.917896 
L 322.715992 379.403647 
L 323.641672 382.852992 
L 325.493033 382.848157 
L 326.418713 383.067744 
L 327.344393 382.913909 
L 330.121433 383.18157 
L 331.972794 383.048251 
L 332.898474 383.00181 
L 333.824154 383.116722 
L 334.749834 383.074045 
L 335.675514 383.163175 
L 336.601194 382.939861 
L 338.452555 382.932553 
L 340.303915 383.063813 
L 341.229595 382.812219 
L 342.155275 382.219089 
L 343.080956 382.779556 
L 344.006636 382.695923 
L 345.857996 382.984398 
L 346.783676 382.742029 
L 347.709356 382.875734 
L 350.486397 382.858504 
L 353.263437 382.969495 
L 354.189117 382.850005 
L 355.114798 383.034086 
L 356.966158 382.943997 
L 360.668879 383.009366 
L 361.594559 382.910573 
L 362.520239 382.94299 
L 363.445919 382.785806 
L 364.371599 382.915501 
L 366.22296 382.974192 
L 367.14864 382.284836 
L 368.07432 382.803513 
L 372.702721 382.860188 
L 373.628401 382.140464 
L 374.554081 382.811819 
L 375.479761 382.900432 
L 377.331121 382.781846 
L 378.256802 382.228105 
L 379.182482 382.843979 
L 380.108162 382.972782 
L 382.885202 382.963145 
L 383.810883 382.705017 
L 384.736563 382.89175 
L 385.662243 363.035878 
L 386.587923 382.756078 
L 387.513603 382.700403 
L 388.439283 382.027371 
L 389.364964 381.829662 
L 390.290644 382.687011 
L 392.142004 382.784356 
L 393.067684 381.227737 
L 393.993364 382.737127 
L 394.919044 381.776263 
L 395.844725 382.495736 
L 396.770405 380.983215 
L 397.696085 382.579151 
L 399.547445 382.579437 
L 400.473125 381.736578 
L 401.398806 382.505354 
L 402.324486 382.60681 
L 403.250166 382.472002 
L 404.175846 381.705875 
L 405.101526 382.753076 
L 406.952887 382.598801 
L 407.878567 381.681222 
L 408.804247 382.644362 
L 410.655607 382.566162 
L 411.581287 381.515869 
L 412.506967 382.607207 
L 413.432648 382.512943 
L 414.358328 382.704216 
L 415.284008 381.742084 
L 416.209688 382.58972 
L 418.061048 382.607766 
L 418.986729 381.736419 
L 419.912409 382.488494 
L 420.838089 382.641257 
L 422.689449 381.182391 
L 423.615129 382.615772 
L 425.46649 382.392056 
L 426.39217 381.513324 
L 427.31785 382.59201 
L 429.16921 382.66211 
L 430.094891 381.229113 
L 431.020571 382.514782 
L 431.946251 382.433503 
L 432.871931 382.527614 
L 433.797611 380.941728 
L 434.723291 382.641154 
L 436.574652 382.658501 
L 437.500332 381.456395 
L 438.426012 382.514535 
L 440.277372 382.544329 
L 441.203052 381.499521 
L 442.128733 382.512634 
L 443.054413 382.591945 
L 443.980093 382.559579 
L 444.905773 340.768946 
L 445.831453 382.510178 
L 446.757133 382.330261 
L 447.682814 382.463477 
L 448.608494 381.386572 
L 449.534174 382.568983 
L 451.385534 382.499595 
L 452.311214 381.618936 
L 453.236894 382.606549 
L 455.088255 382.490902 
L 456.013935 381.168881 
L 456.939615 382.409665 
L 458.790975 382.495598 
L 459.716656 381.560505 
L 460.642336 382.335796 
L 462.493696 382.357378 
L 463.419376 381.560128 
L 464.345056 381.934902 
L 465.270737 381.925501 
L 466.196417 382.03834 
L 467.122097 381.366281 
L 468.047777 382.362688 
L 468.973457 382.421537 
L 470.824818 381.24184 
L 472.676178 382.546807 
L 473.601858 382.579781 
L 474.527538 381.606283 
L 475.453218 382.357511 
L 476.378898 382.486162 
L 477.304579 382.426967 
L 478.230259 381.521909 
L 480.081619 381.907671 
L 481.007299 382.493603 
L 481.932979 381.428362 
L 482.85866 382.382712 
L 484.71002 382.276614 
L 485.6357 381.547913 
L 486.56138 382.329508 
L 487.48706 382.306129 
L 488.412741 381.828114 
L 489.338421 380.033577 
L 490.264101 382.123258 
L 491.189781 382.110759 
L 492.115461 382.283379 
L 493.041141 381.552687 
L 493.966821 382.306469 
L 494.892502 382.380592 
L 495.818182 382.222915 
L 496.743862 380.891379 
L 497.669542 382.280096 
L 498.595222 382.133528 
L 499.520902 382.377706 
L 500.446583 381.380869 
L 501.372263 382.254567 
L 502.297943 382.179229 
L 503.223623 381.164952 
L 504.149303 344.536202 
L 505.074983 382.102749 
L 506.000664 382.124058 
L 506.926344 382.000101 
L 507.852024 380.705056 
L 508.777704 382.258526 
L 509.703384 380.990234 
L 510.629064 382.230663 
L 511.554745 380.831782 
L 512.480425 382.052634 
L 513.406105 382.235295 
L 514.331785 382.09857 
L 515.257465 381.153648 
L 516.183145 382.085948 
L 518.034506 381.924146 
L 518.960186 380.879953 
L 519.885866 381.568609 
L 520.811546 381.630428 
L 521.737226 382.063836 
L 522.662906 380.776492 
L 523.588587 382.318704 
L 524.514267 382.216652 
L 525.439947 382.344446 
L 526.365627 381.432316 
L 527.291307 382.284253 
L 528.216987 382.210259 
L 529.142668 382.257307 
L 530.068348 381.010646 
L 530.994028 382.282175 
L 531.919708 382.258888 
L 532.845388 381.304653 
L 533.771068 381.070372 
L 535.622429 381.964185 
L 536.548109 381.889581 
L 537.473789 381.140496 
L 538.399469 382.206362 
L 540.250829 382.063353 
L 541.17651 381.013141 
L 542.10219 381.809399 
L 543.02787 381.604102 
L 543.95355 381.573533 
L 544.87923 381.004288 
L 545.80491 382.02916 
L 547.656271 381.94885 
L 548.581951 380.132312 
L 549.507631 381.977713 
L 550.433311 382.107991 
L 551.358991 382.009859 
L 552.284672 381.088057 
L 553.210352 381.974531 
L 554.136032 381.325468 
L 555.061712 382.209488 
L 555.987392 381.205588 
L 556.913072 382.146324 
L 557.838752 381.627847 
L 558.764433 381.97396 
L 559.690113 381.179717 
L 560.615793 382.188972 
L 562.467153 382.103009 
L 563.392833 340.796494 
L 564.318514 382.046302 
L 565.244194 381.805638 
L 566.169874 381.805277 
L 567.095554 380.881057 
L 568.021234 381.868238 
L 568.946914 382.005876 
L 569.872595 381.998139 
L 570.798275 381.053382 
L 571.723955 381.867653 
L 572.649635 381.226863 
L 573.575315 381.935182 
L 574.500995 380.928976 
L 575.426676 381.928254 
L 576.352356 382.159502 
L 577.278036 381.95277 
L 578.203716 380.410546 
L 579.129396 381.9013 
L 580.055076 381.979563 
L 580.980756 381.269868 
L 581.906437 380.293954 
L 582.832117 382.171742 
L 583.757797 382.175181 
L 585.609157 380.938491 
L 586.534837 382.11917 
L 587.460518 382.204572 
L 588.386198 381.899761 
L 589.311878 381.01918 
L 590.237558 382.185169 
L 591.163238 382.115292 
L 592.088918 382.225011 
L 593.014599 380.73438 
L 593.940279 381.049404 
L 594.865959 382.116595 
L 595.791639 381.974312 
L 596.717319 381.09691 
L 597.642999 381.744735 
L 598.568679 382.096026 
L 599.49436 381.777397 
L 600.42004 380.313159 
L 601.34572 381.650971 
L 602.2714 382.143865 
L 603.19708 381.611989 
L 604.12276 380.850258 
L 605.048441 382.040648 
L 606.899801 381.94542 
L 607.825481 380.326678 
L 608.751161 381.790796 
L 610.602522 381.895609 
L 611.528202 380.848592 
L 612.453882 381.798842 
L 613.379562 381.988762 
L 614.305242 381.847165 
L 615.230922 380.275683 
L 616.156603 381.871065 
L 618.007963 381.79614 
L 618.933643 380.807022 
L 619.859323 381.847675 
L 621.710683 381.850549 
L 622.636364 67.622792 
L 622.636364 67.622792 
" clip-path="url(#pbf380fa91d)" style="fill: none; stroke: #1f77b4; stroke-width: 1.5; stroke-linecap: square"/>
   </g>
   <g id="patch_3">
    <path d="M 90 384.48 
L 90 51.84 
" style="fill: none; stroke: #000000; stroke-width: 0.8; stroke-linejoin: miter; stroke-linecap: square"/>
   </g>
   <g id="patch_4">
    <path d="M 648 384.48 
L 648 51.84 
" style="fill: none; stroke: #000000; stroke-width: 0.8; stroke-linejoin: miter; stroke-linecap: square"/>
   </g>
   <g id="patch_5">
    <path d="M 90 384.48 
L 648 384.48 
" style="fill: none; stroke: #000000; stroke-width: 0.8; stroke-linejoin: miter; stroke-linecap: square"/>
   </g>
   <g id="patch_6">
    <path d="M 90 51.84 
L 648 51.84 
" style="fill: none; stroke: #000000; stroke-width: 0.8; stroke-linejoin: miter; stroke-linecap: square"/>
   </g>
   <g id="text_15">
    <!-- Average time per index -->
    <g transform="translate(298.700625 45.84) scale(0.12 -0.12)">
     <defs>
      <path id="DejaVuSans-70" d="M 1159 525 
L 1159 -1331 
L 581 -1331 
L 581 3500 
L 1159 3500 
L 1159 2969 
Q 1341 3281 1617 3432 
Q 1894 3584 2278 3584 
Q 2916 3584 3314 3078 
Q 3713 2572 3713 1747 
Q 3713 922 3314 415 
Q 2916 -91 2278 -91 
Q 1894 -91 1617 61 
Q 1341 213 1159 525 
z
M 3116 1747 
Q 3116 2381 2855 2742 
Q 2594 3103 2138 3103 
Q 1681 3103 1420 2742 
Q 1159 2381 1159 1747 
Q 1159 1113 1420 752 
Q 1681 391 2138 391 
Q 2594 391 2855 752 
Q 3116 1113 3116 1747 
z
" transform="scale(0.015625)"/>
     </defs>
     <use xlink:href="#DejaVuSans-41"/>
     <use xlink:href="#DejaVuSans-76" transform="translate(62.533203 0)"/>
     <use xlink:href="#DejaVuSans-65" transform="translate(121.712891 0)"/>
     <use xlink:href="#DejaVuSans-72" transform="translate(183.236328 0)"/>
     <use xlink:href="#DejaVuSans-61" transform="translate(224.349609 0)"/>
     <use xlink:href="#DejaVuSans-67" transform="translate(285.628906 0)"/>
     <use xlink:href="#DejaVuSans-65" transform="translate(349.105469 0)"/>
     <use xlink:href="#DejaVuSans-20" transform="translate(410.628906 0)"/>
     <use xlink:href="#DejaVuSans-74" transform="translate(442.416016 0)"/>
     <use xlink:href="#DejaVuSans-69" transform="translate(481.625 0)"/>
     <use xlink:href="#DejaVuSans-6d" transform="translate(509.408203 0)"/>
     <use xlink:href="#DejaVuSans-65" transform="translate(606.820312 0)"/>
     <use xlink:href="#DejaVuSans-20" transform="translate(668.34375 0)"/>
     <use xlink:href="#DejaVuSans-70" transform="translate(700.130859 0)"/>
     <use xlink:href="#DejaVuSans-65" transform="translate(763.607422 0)"/>
     <use xlink:href="#DejaVuSans-72" transform="translate(825.130859 0)"/>
     <use xlink:href="#DejaVuSans-20" transform="translate(866.244141 0)"/>
     <use xlink:href="#DejaVuSans-69" transform="translate(898.03125 0)"/>
     <use xlink:href="#DejaVuSans-6e" transform="translate(925.814453 0)"/>
     <use xlink:href="#DejaVuSans-64" transform="translate(989.193359 0)"/>
     <use xlink:href="#DejaVuSans-65" transform="translate(1052.669922 0)"/>
     <use xlink:href="#DejaVuSans-78" transform="translate(1112.443359 0)"/>
    </g>
   </g>
   <g id="legend_1">
    <g id="patch_7">
     <path d="M 97 74.518125 
L 196.53125 74.518125 
Q 198.53125 74.518125 198.53125 72.518125 
L 198.53125 58.84 
Q 198.53125 56.84 196.53125 56.84 
L 97 56.84 
Q 95 56.84 95 58.84 
L 95 72.518125 
Q 95 74.518125 97 74.518125 
z
" style="fill: #ffffff; opacity: 0.8; stroke: #cccccc; stroke-linejoin: miter"/>
    </g>
    <g id="line2d_14">
     <path d="M 99 64.938438 
L 109 64.938438 
L 119 64.938438 
" style="fill: none; stroke: #1f77b4; stroke-width: 1.5; stroke-linecap: square"/>
    </g>
    <g id="text_16">
     <!-- nextFaultload -->
     <g transform="translate(127 68.438438) scale(0.1 -0.1)">
      <defs>
       <path id="DejaVuSans-46" d="M 628 4666 
L 3309 4666 
L 3309 4134 
L 1259 4134 
L 1259 2759 
L 3109 2759 
L 3109 2228 
L 1259 2228 
L 1259 0 
L 628 0 
L 628 4666 
z
" transform="scale(0.015625)"/>
       <path id="DejaVuSans-75" d="M 544 1381 
L 544 3500 
L 1119 3500 
L 1119 1403 
Q 1119 906 1312 657 
Q 1506 409 1894 409 
Q 2359 409 2629 706 
Q 2900 1003 2900 1516 
L 2900 3500 
L 3475 3500 
L 3475 0 
L 2900 0 
L 2900 538 
Q 2691 219 2414 64 
Q 2138 -91 1772 -91 
Q 1169 -91 856 284 
Q 544 659 544 1381 
z
M 1991 3584 
L 1991 3584 
z
" transform="scale(0.015625)"/>
       <path id="DejaVuSans-6c" d="M 603 4863 
L 1178 4863 
L 1178 0 
L 603 0 
L 603 4863 
z
" transform="scale(0.015625)"/>
       <path id="DejaVuSans-6f" d="M 1959 3097 
Q 1497 3097 1228 2736 
Q 959 2375 959 1747 
Q 959 1119 1226 758 
Q 1494 397 1959 397 
Q 2419 397 2687 759 
Q 2956 1122 2956 1747 
Q 2956 2369 2687 2733 
Q 2419 3097 1959 3097 
z
M 1959 3584 
Q 2709 3584 3137 3096 
Q 3566 2609 3566 1747 
Q 3566 888 3137 398 
Q 2709 -91 1959 -91 
Q 1206 -91 779 398 
Q 353 888 353 1747 
Q 353 2609 779 3096 
Q 1206 3584 1959 3584 
z
" transform="scale(0.015625)"/>
      </defs>
      <use xlink:href="#DejaVuSans-6e"/>
      <use xlink:href="#DejaVuSans-65" transform="translate(63.378906 0)"/>
      <use xlink:href="#DejaVuSans-78" transform="translate(123.152344 0)"/>
      <use xlink:href="#DejaVuSans-74" transform="translate(182.332031 0)"/>
      <use xlink:href="#DejaVuSans-46" transform="translate(221.541016 0)"/>
      <use xlink:href="#DejaVuSans-61" transform="translate(269.935547 0)"/>
      <use xlink:href="#DejaVuSans-75" transform="translate(331.214844 0)"/>
      <use xlink:href="#DejaVuSans-6c" transform="translate(394.59375 0)"/>
      <use xlink:href="#DejaVuSans-74" transform="translate(422.376953 0)"/>
      <use xlink:href="#DejaVuSans-6c" transform="translate(461.585938 0)"/>
      <use xlink:href="#DejaVuSans-6f" transform="translate(489.369141 0)"/>
      <use xlink:href="#DejaVuSans-61" transform="translate(550.550781 0)"/>
      <use xlink:href="#DejaVuSans-64" transform="translate(611.830078 0)"/>
     </g>
    </g>
   </g>
  </g>
 </g>
 <defs>
  <clipPath id="pbf380fa91d">
   <rect x="90" y="51.84" width="558" height="332.64"/>
  </clipPath>
 </defs>
</svg>
