<?xml version="1.0" encoding="utf-8" standalone="no"?>
<!DOCTYPE svg PUBLIC "-//W3C//DTD SVG 1.1//EN"
  "http://www.w3.org/Graphics/SVG/1.1/DTD/svg11.dtd">
<svg xmlns:xlink="http://www.w3.org/1999/xlink" width="576pt" height="432pt" viewBox="0 0 576 432" xmlns="http://www.w3.org/2000/svg" version="1.1">
 <metadata>
  <rdf:RDF xmlns:dc="http://purl.org/dc/elements/1.1/" xmlns:cc="http://creativecommons.org/ns#" xmlns:rdf="http://www.w3.org/1999/02/22-rdf-syntax-ns#">
   <cc:Work>
    <dc:type rdf:resource="http://purl.org/dc/dcmitype/StillImage"/>
    <dc:date>2025-06-08T23:57:29.403333</dc:date>
    <dc:format>image/svg+xml</dc:format>
    <dc:creator>
     <cc:Agent>
      <dc:title>Matplotlib v3.10.3, https://matplotlib.org/</dc:title>
     </cc:Agent>
    </dc:creator>
   </cc:Work>
  </rdf:RDF>
 </metadata>
 <defs>
  <style type="text/css">*{stroke-linejoin: round; stroke-linecap: butt}</style>
 </defs>
 <g id="figure_1">
  <g id="patch_1">
   <path d="M 0 432 
L 576 432 
L 576 0 
L 0 0 
z
" style="fill: #ffffff"/>
  </g>
  <g id="axes_1">
   <g id="patch_2">
    <path d="M 72 384.48 
L 518.4 384.48 
L 518.4 51.84 
L 72 51.84 
z
" style="fill: #ffffff"/>
   </g>
   <g id="FillBetweenPolyCollection_1">
    <path d="M 299.846665 374.997302 
L 290.553335 374.997302 
L 245.423436 371.888525 
L 183.6 368.779749 
L 202.042977 365.670973 
L 241.52852 362.562196 
L 273.933305 359.45342 
L 286.540449 356.344644 
L 291.830967 353.235867 
L 293.623636 350.127091 
L 294.084368 347.018315 
L 294.502708 343.909538 
L 294.612187 340.800762 
L 294.839168 337.691986 
L 294.880413 334.583209 
L 295.087722 331.474433 
L 295.099027 328.365656 
L 294.801586 325.25688 
L 294.890181 322.148104 
L 294.773391 319.039327 
L 294.872252 315.930551 
L 295.080329 312.821775 
L 295.104944 309.712998 
L 295.152968 306.604222 
L 295.196253 303.495446 
L 295.199943 300.386669 
L 295.191883 297.277893 
L 295.152537 294.169117 
L 295.190718 291.06034 
L 295.199939 287.951564 
L 295.199538 284.842788 
L 295.176903 281.734011 
L 295.161365 278.625235 
L 295.197839 275.516458 
L 295.199996 272.407682 
L 295.199999 269.298906 
L 295.199323 266.190129 
L 295.169722 263.081353 
L 295.121005 259.972577 
L 295.181284 256.8638 
L 295.199228 253.755024 
L 295.175212 250.646248 
L 295.147586 247.537471 
L 295.149095 244.428695 
L 295.151113 241.319919 
L 295.170284 238.211142 
L 295.153891 235.102366 
L 295.194763 231.99359 
L 295.192165 228.884813 
L 295.134315 225.776037 
L 295.146673 222.667261 
L 295.169167 219.558484 
L 295.165389 216.449708 
L 295.198541 213.340931 
L 295.199998 210.232155 
L 295.2 207.123379 
L 295.2 204.014602 
L 295.2 200.905826 
L 295.2 197.79705 
L 295.2 194.688273 
L 295.199973 191.579497 
L 295.193881 188.470721 
L 295.153278 185.361944 
L 295.188053 182.253168 
L 295.195241 179.144392 
L 295.154759 176.035615 
L 295.185301 172.926839 
L 295.19984 169.818063 
L 295.2 166.709286 
L 295.2 163.60051 
L 295.2 160.491733 
L 295.2 157.382957 
L 295.2 154.274181 
L 295.2 151.165404 
L 295.2 148.056628 
L 295.2 144.947852 
L 295.2 141.839075 
L 295.2 138.730299 
L 295.2 135.621523 
L 295.2 132.512746 
L 295.2 129.40397 
L 295.2 126.295194 
L 295.2 123.186417 
L 295.2 120.077641 
L 295.2 116.968865 
L 295.2 113.860088 
L 295.2 110.751312 
L 295.2 107.642536 
L 295.2 104.533759 
L 295.2 101.424983 
L 295.2 98.316206 
L 295.2 95.20743 
L 295.2 92.098654 
L 295.2 88.989877 
L 295.2 85.881101 
L 295.2 82.772325 
L 295.2 79.663548 
L 295.2 76.554772 
L 295.199947 73.445996 
L 295.191315 70.337219 
L 295.152506 67.228443 
L 295.247494 67.228443 
L 295.247494 67.228443 
L 295.208685 70.337219 
L 295.200053 73.445996 
L 295.2 76.554772 
L 295.2 79.663548 
L 295.2 82.772325 
L 295.2 85.881101 
L 295.2 88.989877 
L 295.2 92.098654 
L 295.2 95.20743 
L 295.2 98.316206 
L 295.2 101.424983 
L 295.2 104.533759 
L 295.2 107.642536 
L 295.2 110.751312 
L 295.2 113.860088 
L 295.2 116.968865 
L 295.2 120.077641 
L 295.2 123.186417 
L 295.2 126.295194 
L 295.2 129.40397 
L 295.2 132.512746 
L 295.2 135.621523 
L 295.2 138.730299 
L 295.2 141.839075 
L 295.2 144.947852 
L 295.2 148.056628 
L 295.2 151.165404 
L 295.2 154.274181 
L 295.2 157.382957 
L 295.2 160.491733 
L 295.2 163.60051 
L 295.2 166.709286 
L 295.20016 169.818063 
L 295.214699 172.926839 
L 295.245241 176.035615 
L 295.204759 179.144392 
L 295.211947 182.253168 
L 295.246722 185.361944 
L 295.206119 188.470721 
L 295.200027 191.579497 
L 295.2 194.688273 
L 295.2 197.79705 
L 295.2 200.905826 
L 295.2 204.014602 
L 295.2 207.123379 
L 295.200002 210.232155 
L 295.201459 213.340931 
L 295.234611 216.449708 
L 295.230833 219.558484 
L 295.253327 222.667261 
L 295.265685 225.776037 
L 295.207835 228.884813 
L 295.205237 231.99359 
L 295.246109 235.102366 
L 295.229716 238.211142 
L 295.248887 241.319919 
L 295.250905 244.428695 
L 295.252414 247.537471 
L 295.224788 250.646248 
L 295.200772 253.755024 
L 295.218716 256.8638 
L 295.278995 259.972577 
L 295.230278 263.081353 
L 295.200677 266.190129 
L 295.200001 269.298906 
L 295.200004 272.407682 
L 295.202161 275.516458 
L 295.238635 278.625235 
L 295.223097 281.734011 
L 295.200462 284.842788 
L 295.200061 287.951564 
L 295.209282 291.06034 
L 295.247463 294.169117 
L 295.208117 297.277893 
L 295.200057 300.386669 
L 295.203747 303.495446 
L 295.247032 306.604222 
L 295.295056 309.712998 
L 295.319671 312.821775 
L 295.527748 315.930551 
L 295.626609 319.039327 
L 295.509819 322.148104 
L 295.598414 325.25688 
L 295.300973 328.365656 
L 295.312278 331.474433 
L 295.519587 334.583209 
L 295.560832 337.691986 
L 295.787813 340.800762 
L 295.897292 343.909538 
L 296.315632 347.018315 
L 296.776364 350.127091 
L 298.569033 353.235867 
L 303.859551 356.344644 
L 316.466695 359.45342 
L 348.87148 362.562196 
L 388.357023 365.670973 
L 406.8 368.779749 
L 344.976564 371.888525 
L 299.846665 374.997302 
z
" clip-path="url(#pa3a55ef3c2)" style="fill: #1f77b4; fill-opacity: 0.3"/>
   </g>
   <g id="matplotlib.axis_1">
    <g id="xtick_1">
     <g id="line2d_1">
      <defs>
       <path id="m71c0b9b184" d="M 0 0 
L 0 3.5 
" style="stroke: #000000; stroke-width: 0.8"/>
      </defs>
      <g>
       <use xlink:href="#m71c0b9b184" x="295.2" y="384.48" style="stroke: #000000; stroke-width: 0.8"/>
      </g>
     </g>
     <g id="text_1">
      <!-- 1 -->
      <g transform="translate(292.01875 399.078438) scale(0.1 -0.1)">
       <defs>
        <path id="DejaVuSans-31" d="M 794 531 
L 1825 531 
L 1825 4091 
L 703 3866 
L 703 4441 
L 1819 4666 
L 2450 4666 
L 2450 531 
L 3481 531 
L 3481 0 
L 794 0 
L 794 531 
z
" transform="scale(0.015625)"/>
       </defs>
       <use xlink:href="#DejaVuSans-31"/>
      </g>
     </g>
    </g>
   </g>
   <g id="matplotlib.axis_2">
    <g id="ytick_1">
     <g id="line2d_2">
      <defs>
       <path id="m935028c2dd" d="M 0 0 
L -3.5 0 
" style="stroke: #000000; stroke-width: 0.8"/>
      </defs>
      <g>
       <use xlink:href="#m935028c2dd" x="72" y="384.48" style="stroke: #000000; stroke-width: 0.8"/>
      </g>
     </g>
     <g id="text_2">
      <!-- 0 -->
      <g transform="translate(58.6375 388.279219) scale(0.1 -0.1)">
       <defs>
        <path id="DejaVuSans-30" d="M 2034 4250 
Q 1547 4250 1301 3770 
Q 1056 3291 1056 2328 
Q 1056 1369 1301 889 
Q 1547 409 2034 409 
Q 2525 409 2770 889 
Q 3016 1369 3016 2328 
Q 3016 3291 2770 3770 
Q 2525 4250 2034 4250 
z
M 2034 4750 
Q 2819 4750 3233 4129 
Q 3647 3509 3647 2328 
Q 3647 1150 3233 529 
Q 2819 -91 2034 -91 
Q 1250 -91 836 529 
Q 422 1150 422 2328 
Q 422 3509 836 4129 
Q 1250 4750 2034 4750 
z
" transform="scale(0.015625)"/>
       </defs>
       <use xlink:href="#DejaVuSans-30"/>
      </g>
     </g>
    </g>
    <g id="ytick_2">
     <g id="line2d_3">
      <g>
       <use xlink:href="#m935028c2dd" x="72" y="311.452691" style="stroke: #000000; stroke-width: 0.8"/>
      </g>
     </g>
     <g id="text_3">
      <!-- 100 -->
      <g transform="translate(45.9125 315.25191) scale(0.1 -0.1)">
       <use xlink:href="#DejaVuSans-31"/>
       <use xlink:href="#DejaVuSans-30" transform="translate(63.623047 0)"/>
       <use xlink:href="#DejaVuSans-30" transform="translate(127.246094 0)"/>
      </g>
     </g>
    </g>
    <g id="ytick_3">
     <g id="line2d_4">
      <g>
       <use xlink:href="#m935028c2dd" x="72" y="238.425383" style="stroke: #000000; stroke-width: 0.8"/>
      </g>
     </g>
     <g id="text_4">
      <!-- 200 -->
      <g transform="translate(45.9125 242.224602) scale(0.1 -0.1)">
       <defs>
        <path id="DejaVuSans-32" d="M 1228 531 
L 3431 531 
L 3431 0 
L 469 0 
L 469 531 
Q 828 903 1448 1529 
Q 2069 2156 2228 2338 
Q 2531 2678 2651 2914 
Q 2772 3150 2772 3378 
Q 2772 3750 2511 3984 
Q 2250 4219 1831 4219 
Q 1534 4219 1204 4116 
Q 875 4013 500 3803 
L 500 4441 
Q 881 4594 1212 4672 
Q 1544 4750 1819 4750 
Q 2544 4750 2975 4387 
Q 3406 4025 3406 3419 
Q 3406 3131 3298 2873 
Q 3191 2616 2906 2266 
Q 2828 2175 2409 1742 
Q 1991 1309 1228 531 
z
" transform="scale(0.015625)"/>
       </defs>
       <use xlink:href="#DejaVuSans-32"/>
       <use xlink:href="#DejaVuSans-30" transform="translate(63.623047 0)"/>
       <use xlink:href="#DejaVuSans-30" transform="translate(127.246094 0)"/>
      </g>
     </g>
    </g>
    <g id="ytick_4">
     <g id="line2d_5">
      <g>
       <use xlink:href="#m935028c2dd" x="72" y="165.398074" style="stroke: #000000; stroke-width: 0.8"/>
      </g>
     </g>
     <g id="text_5">
      <!-- 300 -->
      <g transform="translate(45.9125 169.197293) scale(0.1 -0.1)">
       <defs>
        <path id="DejaVuSans-33" d="M 2597 2516 
Q 3050 2419 3304 2112 
Q 3559 1806 3559 1356 
Q 3559 666 3084 287 
Q 2609 -91 1734 -91 
Q 1441 -91 1130 -33 
Q 819 25 488 141 
L 488 750 
Q 750 597 1062 519 
Q 1375 441 1716 441 
Q 2309 441 2620 675 
Q 2931 909 2931 1356 
Q 2931 1769 2642 2001 
Q 2353 2234 1838 2234 
L 1294 2234 
L 1294 2753 
L 1863 2753 
Q 2328 2753 2575 2939 
Q 2822 3125 2822 3475 
Q 2822 3834 2567 4026 
Q 2313 4219 1838 4219 
Q 1578 4219 1281 4162 
Q 984 4106 628 3988 
L 628 4550 
Q 988 4650 1302 4700 
Q 1616 4750 1894 4750 
Q 2613 4750 3031 4423 
Q 3450 4097 3450 3541 
Q 3450 3153 3228 2886 
Q 3006 2619 2597 2516 
z
" transform="scale(0.015625)"/>
       </defs>
       <use xlink:href="#DejaVuSans-33"/>
       <use xlink:href="#DejaVuSans-30" transform="translate(63.623047 0)"/>
       <use xlink:href="#DejaVuSans-30" transform="translate(127.246094 0)"/>
      </g>
     </g>
    </g>
    <g id="ytick_5">
     <g id="line2d_6">
      <g>
       <use xlink:href="#m935028c2dd" x="72" y="92.370766" style="stroke: #000000; stroke-width: 0.8"/>
      </g>
     </g>
     <g id="text_6">
      <!-- 400 -->
      <g transform="translate(45.9125 96.169985) scale(0.1 -0.1)">
       <defs>
        <path id="DejaVuSans-34" d="M 2419 4116 
L 825 1625 
L 2419 1625 
L 2419 4116 
z
M 2253 4666 
L 3047 4666 
L 3047 1625 
L 3713 1625 
L 3713 1100 
L 3047 1100 
L 3047 0 
L 2419 0 
L 2419 1100 
L 313 1100 
L 313 1709 
L 2253 4666 
z
" transform="scale(0.015625)"/>
       </defs>
       <use xlink:href="#DejaVuSans-34"/>
       <use xlink:href="#DejaVuSans-30" transform="translate(63.623047 0)"/>
       <use xlink:href="#DejaVuSans-30" transform="translate(127.246094 0)"/>
      </g>
     </g>
    </g>
    <g id="text_7">
     <!-- Time (ms) -->
     <g transform="translate(39.832812 243.359219) rotate(-90) scale(0.1 -0.1)">
      <defs>
       <path id="DejaVuSans-54" d="M -19 4666 
L 3928 4666 
L 3928 4134 
L 2272 4134 
L 2272 0 
L 1638 0 
L 1638 4134 
L -19 4134 
L -19 4666 
z
" transform="scale(0.015625)"/>
       <path id="DejaVuSans-69" d="M 603 3500 
L 1178 3500 
L 1178 0 
L 603 0 
L 603 3500 
z
M 603 4863 
L 1178 4863 
L 1178 4134 
L 603 4134 
L 603 4863 
z
" transform="scale(0.015625)"/>
       <path id="DejaVuSans-6d" d="M 3328 2828 
Q 3544 3216 3844 3400 
Q 4144 3584 4550 3584 
Q 5097 3584 5394 3201 
Q 5691 2819 5691 2113 
L 5691 0 
L 5113 0 
L 5113 2094 
Q 5113 2597 4934 2840 
Q 4756 3084 4391 3084 
Q 3944 3084 3684 2787 
Q 3425 2491 3425 1978 
L 3425 0 
L 2847 0 
L 2847 2094 
Q 2847 2600 2669 2842 
Q 2491 3084 2119 3084 
Q 1678 3084 1418 2786 
Q 1159 2488 1159 1978 
L 1159 0 
L 581 0 
L 581 3500 
L 1159 3500 
L 1159 2956 
Q 1356 3278 1631 3431 
Q 1906 3584 2284 3584 
Q 2666 3584 2933 3390 
Q 3200 3197 3328 2828 
z
" transform="scale(0.015625)"/>
       <path id="DejaVuSans-65" d="M 3597 1894 
L 3597 1613 
L 953 1613 
Q 991 1019 1311 708 
Q 1631 397 2203 397 
Q 2534 397 2845 478 
Q 3156 559 3463 722 
L 3463 178 
Q 3153 47 2828 -22 
Q 2503 -91 2169 -91 
Q 1331 -91 842 396 
Q 353 884 353 1716 
Q 353 2575 817 3079 
Q 1281 3584 2069 3584 
Q 2775 3584 3186 3129 
Q 3597 2675 3597 1894 
z
M 3022 2063 
Q 3016 2534 2758 2815 
Q 2500 3097 2075 3097 
Q 1594 3097 1305 2825 
Q 1016 2553 972 2059 
L 3022 2063 
z
" transform="scale(0.015625)"/>
       <path id="DejaVuSans-20" transform="scale(0.015625)"/>
       <path id="DejaVuSans-28" d="M 1984 4856 
Q 1566 4138 1362 3434 
Q 1159 2731 1159 2009 
Q 1159 1288 1364 580 
Q 1569 -128 1984 -844 
L 1484 -844 
Q 1016 -109 783 600 
Q 550 1309 550 2009 
Q 550 2706 781 3412 
Q 1013 4119 1484 4856 
L 1984 4856 
z
" transform="scale(0.015625)"/>
       <path id="DejaVuSans-73" d="M 2834 3397 
L 2834 2853 
Q 2591 2978 2328 3040 
Q 2066 3103 1784 3103 
Q 1356 3103 1142 2972 
Q 928 2841 928 2578 
Q 928 2378 1081 2264 
Q 1234 2150 1697 2047 
L 1894 2003 
Q 2506 1872 2764 1633 
Q 3022 1394 3022 966 
Q 3022 478 2636 193 
Q 2250 -91 1575 -91 
Q 1294 -91 989 -36 
Q 684 19 347 128 
L 347 722 
Q 666 556 975 473 
Q 1284 391 1588 391 
Q 1994 391 2212 530 
Q 2431 669 2431 922 
Q 2431 1156 2273 1281 
Q 2116 1406 1581 1522 
L 1381 1569 
Q 847 1681 609 1914 
Q 372 2147 372 2553 
Q 372 3047 722 3315 
Q 1072 3584 1716 3584 
Q 2034 3584 2315 3537 
Q 2597 3491 2834 3397 
z
" transform="scale(0.015625)"/>
       <path id="DejaVuSans-29" d="M 513 4856 
L 1013 4856 
Q 1481 4119 1714 3412 
Q 1947 2706 1947 2009 
Q 1947 1309 1714 600 
Q 1481 -109 1013 -844 
L 513 -844 
Q 928 -128 1133 580 
Q 1338 1288 1338 2009 
Q 1338 2731 1133 3434 
Q 928 4138 513 4856 
z
" transform="scale(0.015625)"/>
      </defs>
      <use xlink:href="#DejaVuSans-54"/>
      <use xlink:href="#DejaVuSans-69" transform="translate(57.958984 0)"/>
      <use xlink:href="#DejaVuSans-6d" transform="translate(85.742188 0)"/>
      <use xlink:href="#DejaVuSans-65" transform="translate(183.154297 0)"/>
      <use xlink:href="#DejaVuSans-20" transform="translate(244.677734 0)"/>
      <use xlink:href="#DejaVuSans-28" transform="translate(276.464844 0)"/>
      <use xlink:href="#DejaVuSans-6d" transform="translate(315.478516 0)"/>
      <use xlink:href="#DejaVuSans-73" transform="translate(412.890625 0)"/>
      <use xlink:href="#DejaVuSans-29" transform="translate(464.990234 0)"/>
     </g>
    </g>
   </g>
   <g id="LineCollection_1">
    <path d="M 239.4 365.588218 
L 351 365.588218 
" clip-path="url(#pa3a55ef3c2)" style="fill: none; stroke: #1f77b4; stroke-width: 1.5"/>
   </g>
   <g id="LineCollection_2">
    <path d="M 239.4 67.228443 
L 351 67.228443 
" clip-path="url(#pa3a55ef3c2)" style="fill: none; stroke: #1f77b4; stroke-width: 1.5"/>
   </g>
   <g id="LineCollection_3">
    <path d="M 239.4 374.997302 
L 351 374.997302 
" clip-path="url(#pa3a55ef3c2)" style="fill: none; stroke: #1f77b4; stroke-width: 1.5"/>
   </g>
   <g id="LineCollection_4">
    <path d="M 295.2 374.997302 
L 295.2 67.228443 
" clip-path="url(#pa3a55ef3c2)" style="fill: none; stroke: #1f77b4; stroke-width: 1.5"/>
   </g>
   <g id="patch_3">
    <path d="M 250.56 369.399687 
L 339.84 369.399687 
L 339.84 364.029146 
L 250.56 364.029146 
L 250.56 369.399687 
z
" clip-path="url(#pa3a55ef3c2)" style="fill: #1f77b4; stroke: #000000; stroke-linejoin: miter"/>
   </g>
   <g id="line2d_7">
    <path d="M 295.2 369.399687 
L 295.2 374.997302 
" clip-path="url(#pa3a55ef3c2)" style="fill: none; stroke: #000000; stroke-linecap: square"/>
   </g>
   <g id="line2d_8">
    <path d="M 295.2 364.029146 
L 295.2 355.979567 
" clip-path="url(#pa3a55ef3c2)" style="fill: none; stroke: #000000; stroke-linecap: square"/>
   </g>
   <g id="line2d_9">
    <path d="M 272.88 374.997302 
L 317.52 374.997302 
" clip-path="url(#pa3a55ef3c2)" style="fill: none; stroke: #000000; stroke-linecap: square"/>
   </g>
   <g id="line2d_10">
    <path d="M 272.88 355.979567 
L 317.52 355.979567 
" clip-path="url(#pa3a55ef3c2)" style="fill: none; stroke: #000000; stroke-linecap: square"/>
   </g>
   <g id="line2d_11">
    <defs>
     <path id="m30d39a478b" d="M 0 3 
C 0.795609 3 1.55874 2.683901 2.12132 2.12132 
C 2.683901 1.55874 3 0.795609 3 0 
C 3 -0.795609 2.683901 -1.55874 2.12132 -2.12132 
C 1.55874 -2.683901 0.795609 -3 0 -3 
C -0.795609 -3 -1.55874 -2.683901 -2.12132 -2.12132 
C -2.683901 -1.55874 -3 -0.795609 -3 0 
C -3 0.795609 -2.683901 1.55874 -2.12132 2.12132 
C -1.55874 2.683901 -0.795609 3 0 3 
z
" style="stroke: #000000"/>
    </defs>
    <g clip-path="url(#pa3a55ef3c2)">
     <use xlink:href="#m30d39a478b" x="295.2" y="185.05648" style="fill-opacity: 0; stroke: #000000"/>
     <use xlink:href="#m30d39a478b" x="295.2" y="337.442397" style="fill-opacity: 0; stroke: #000000"/>
     <use xlink:href="#m30d39a478b" x="295.2" y="347.130165" style="fill-opacity: 0; stroke: #000000"/>
     <use xlink:href="#m30d39a478b" x="295.2" y="353.800464" style="fill-opacity: 0; stroke: #000000"/>
     <use xlink:href="#m30d39a478b" x="295.2" y="353.560048" style="fill-opacity: 0; stroke: #000000"/>
     <use xlink:href="#m30d39a478b" x="295.2" y="354.595472" style="fill-opacity: 0; stroke: #000000"/>
     <use xlink:href="#m30d39a478b" x="295.2" y="354.432688" style="fill-opacity: 0; stroke: #000000"/>
     <use xlink:href="#m30d39a478b" x="295.2" y="349.472759" style="fill-opacity: 0; stroke: #000000"/>
     <use xlink:href="#m30d39a478b" x="295.2" y="317.12192" style="fill-opacity: 0; stroke: #000000"/>
     <use xlink:href="#m30d39a478b" x="295.2" y="355.817195" style="fill-opacity: 0; stroke: #000000"/>
     <use xlink:href="#m30d39a478b" x="295.2" y="348.21554" style="fill-opacity: 0; stroke: #000000"/>
     <use xlink:href="#m30d39a478b" x="295.2" y="355.481694" style="fill-opacity: 0; stroke: #000000"/>
     <use xlink:href="#m30d39a478b" x="295.2" y="353.479786" style="fill-opacity: 0; stroke: #000000"/>
     <use xlink:href="#m30d39a478b" x="295.2" y="225.650626" style="fill-opacity: 0; stroke: #000000"/>
     <use xlink:href="#m30d39a478b" x="295.2" y="342.741272" style="fill-opacity: 0; stroke: #000000"/>
     <use xlink:href="#m30d39a478b" x="295.2" y="341.524925" style="fill-opacity: 0; stroke: #000000"/>
     <use xlink:href="#m30d39a478b" x="295.2" y="352.925436" style="fill-opacity: 0; stroke: #000000"/>
     <use xlink:href="#m30d39a478b" x="295.2" y="354.470062" style="fill-opacity: 0; stroke: #000000"/>
     <use xlink:href="#m30d39a478b" x="295.2" y="352.722334" style="fill-opacity: 0; stroke: #000000"/>
     <use xlink:href="#m30d39a478b" x="295.2" y="347.21302" style="fill-opacity: 0; stroke: #000000"/>
     <use xlink:href="#m30d39a478b" x="295.2" y="355.204179" style="fill-opacity: 0; stroke: #000000"/>
     <use xlink:href="#m30d39a478b" x="295.2" y="355.942168" style="fill-opacity: 0; stroke: #000000"/>
     <use xlink:href="#m30d39a478b" x="295.2" y="347.938665" style="fill-opacity: 0; stroke: #000000"/>
     <use xlink:href="#m30d39a478b" x="295.2" y="341.360018" style="fill-opacity: 0; stroke: #000000"/>
     <use xlink:href="#m30d39a478b" x="295.2" y="353.919985" style="fill-opacity: 0; stroke: #000000"/>
     <use xlink:href="#m30d39a478b" x="295.2" y="341.523756" style="fill-opacity: 0; stroke: #000000"/>
     <use xlink:href="#m30d39a478b" x="295.2" y="354.553757" style="fill-opacity: 0; stroke: #000000"/>
     <use xlink:href="#m30d39a478b" x="295.2" y="355.187236" style="fill-opacity: 0; stroke: #000000"/>
     <use xlink:href="#m30d39a478b" x="295.2" y="348.187755" style="fill-opacity: 0; stroke: #000000"/>
     <use xlink:href="#m30d39a478b" x="295.2" y="352.96276" style="fill-opacity: 0; stroke: #000000"/>
     <use xlink:href="#m30d39a478b" x="295.2" y="353.506441" style="fill-opacity: 0; stroke: #000000"/>
     <use xlink:href="#m30d39a478b" x="295.2" y="354.90836" style="fill-opacity: 0; stroke: #000000"/>
     <use xlink:href="#m30d39a478b" x="295.2" y="244.987818" style="fill-opacity: 0; stroke: #000000"/>
     <use xlink:href="#m30d39a478b" x="295.2" y="317.313291" style="fill-opacity: 0; stroke: #000000"/>
     <use xlink:href="#m30d39a478b" x="295.2" y="341.000303" style="fill-opacity: 0; stroke: #000000"/>
     <use xlink:href="#m30d39a478b" x="295.2" y="355.35202" style="fill-opacity: 0; stroke: #000000"/>
     <use xlink:href="#m30d39a478b" x="295.2" y="354.497813" style="fill-opacity: 0; stroke: #000000"/>
     <use xlink:href="#m30d39a478b" x="295.2" y="353.50075" style="fill-opacity: 0; stroke: #000000"/>
     <use xlink:href="#m30d39a478b" x="295.2" y="352.167659" style="fill-opacity: 0; stroke: #000000"/>
     <use xlink:href="#m30d39a478b" x="295.2" y="333.80374" style="fill-opacity: 0; stroke: #000000"/>
     <use xlink:href="#m30d39a478b" x="295.2" y="353.294137" style="fill-opacity: 0; stroke: #000000"/>
     <use xlink:href="#m30d39a478b" x="295.2" y="355.290306" style="fill-opacity: 0; stroke: #000000"/>
     <use xlink:href="#m30d39a478b" x="295.2" y="320.469023" style="fill-opacity: 0; stroke: #000000"/>
     <use xlink:href="#m30d39a478b" x="295.2" y="354.27389" style="fill-opacity: 0; stroke: #000000"/>
     <use xlink:href="#m30d39a478b" x="295.2" y="351.306002" style="fill-opacity: 0; stroke: #000000"/>
     <use xlink:href="#m30d39a478b" x="295.2" y="349.34898" style="fill-opacity: 0; stroke: #000000"/>
     <use xlink:href="#m30d39a478b" x="295.2" y="349.103611" style="fill-opacity: 0; stroke: #000000"/>
     <use xlink:href="#m30d39a478b" x="295.2" y="350.028714" style="fill-opacity: 0; stroke: #000000"/>
     <use xlink:href="#m30d39a478b" x="295.2" y="351.253832" style="fill-opacity: 0; stroke: #000000"/>
     <use xlink:href="#m30d39a478b" x="295.2" y="351.899385" style="fill-opacity: 0; stroke: #000000"/>
     <use xlink:href="#m30d39a478b" x="295.2" y="347.515456" style="fill-opacity: 0; stroke: #000000"/>
     <use xlink:href="#m30d39a478b" x="295.2" y="352.911269" style="fill-opacity: 0; stroke: #000000"/>
     <use xlink:href="#m30d39a478b" x="295.2" y="355.527633" style="fill-opacity: 0; stroke: #000000"/>
     <use xlink:href="#m30d39a478b" x="295.2" y="235.541329" style="fill-opacity: 0; stroke: #000000"/>
     <use xlink:href="#m30d39a478b" x="295.2" y="337.590327" style="fill-opacity: 0; stroke: #000000"/>
     <use xlink:href="#m30d39a478b" x="295.2" y="347.547547" style="fill-opacity: 0; stroke: #000000"/>
     <use xlink:href="#m30d39a478b" x="295.2" y="351.594409" style="fill-opacity: 0; stroke: #000000"/>
     <use xlink:href="#m30d39a478b" x="295.2" y="354.73972" style="fill-opacity: 0; stroke: #000000"/>
     <use xlink:href="#m30d39a478b" x="295.2" y="354.803037" style="fill-opacity: 0; stroke: #000000"/>
     <use xlink:href="#m30d39a478b" x="295.2" y="348.44289" style="fill-opacity: 0; stroke: #000000"/>
     <use xlink:href="#m30d39a478b" x="295.2" y="333.172329" style="fill-opacity: 0; stroke: #000000"/>
     <use xlink:href="#m30d39a478b" x="295.2" y="338.447677" style="fill-opacity: 0; stroke: #000000"/>
     <use xlink:href="#m30d39a478b" x="295.2" y="354.647045" style="fill-opacity: 0; stroke: #000000"/>
     <use xlink:href="#m30d39a478b" x="295.2" y="355.485045" style="fill-opacity: 0; stroke: #000000"/>
     <use xlink:href="#m30d39a478b" x="295.2" y="352.773065" style="fill-opacity: 0; stroke: #000000"/>
     <use xlink:href="#m30d39a478b" x="295.2" y="351.645602" style="fill-opacity: 0; stroke: #000000"/>
     <use xlink:href="#m30d39a478b" x="295.2" y="347.220968" style="fill-opacity: 0; stroke: #000000"/>
     <use xlink:href="#m30d39a478b" x="295.2" y="355.847796" style="fill-opacity: 0; stroke: #000000"/>
     <use xlink:href="#m30d39a478b" x="295.2" y="175.509803" style="fill-opacity: 0; stroke: #000000"/>
     <use xlink:href="#m30d39a478b" x="295.2" y="339.68404" style="fill-opacity: 0; stroke: #000000"/>
     <use xlink:href="#m30d39a478b" x="295.2" y="345.393136" style="fill-opacity: 0; stroke: #000000"/>
     <use xlink:href="#m30d39a478b" x="295.2" y="352.417613" style="fill-opacity: 0; stroke: #000000"/>
     <use xlink:href="#m30d39a478b" x="295.2" y="350.432269" style="fill-opacity: 0; stroke: #000000"/>
     <use xlink:href="#m30d39a478b" x="295.2" y="354.803852" style="fill-opacity: 0; stroke: #000000"/>
     <use xlink:href="#m30d39a478b" x="295.2" y="355.929998" style="fill-opacity: 0; stroke: #000000"/>
     <use xlink:href="#m30d39a478b" x="295.2" y="352.608164" style="fill-opacity: 0; stroke: #000000"/>
     <use xlink:href="#m30d39a478b" x="295.2" y="355.663561" style="fill-opacity: 0; stroke: #000000"/>
     <use xlink:href="#m30d39a478b" x="295.2" y="355.00492" style="fill-opacity: 0; stroke: #000000"/>
     <use xlink:href="#m30d39a478b" x="295.2" y="316.102473" style="fill-opacity: 0; stroke: #000000"/>
     <use xlink:href="#m30d39a478b" x="295.2" y="316.963935" style="fill-opacity: 0; stroke: #000000"/>
     <use xlink:href="#m30d39a478b" x="295.2" y="355.8295" style="fill-opacity: 0; stroke: #000000"/>
     <use xlink:href="#m30d39a478b" x="295.2" y="355.490319" style="fill-opacity: 0; stroke: #000000"/>
     <use xlink:href="#m30d39a478b" x="295.2" y="352.745326" style="fill-opacity: 0; stroke: #000000"/>
     <use xlink:href="#m30d39a478b" x="295.2" y="355.112722" style="fill-opacity: 0; stroke: #000000"/>
     <use xlink:href="#m30d39a478b" x="295.2" y="345.625317" style="fill-opacity: 0; stroke: #000000"/>
     <use xlink:href="#m30d39a478b" x="295.2" y="355.960453" style="fill-opacity: 0; stroke: #000000"/>
     <use xlink:href="#m30d39a478b" x="295.2" y="352.036686" style="fill-opacity: 0; stroke: #000000"/>
     <use xlink:href="#m30d39a478b" x="295.2" y="353.833685" style="fill-opacity: 0; stroke: #000000"/>
     <use xlink:href="#m30d39a478b" x="295.2" y="350.622923" style="fill-opacity: 0; stroke: #000000"/>
     <use xlink:href="#m30d39a478b" x="295.2" y="355.054737" style="fill-opacity: 0; stroke: #000000"/>
     <use xlink:href="#m30d39a478b" x="295.2" y="240.689323" style="fill-opacity: 0; stroke: #000000"/>
     <use xlink:href="#m30d39a478b" x="295.2" y="346.221362" style="fill-opacity: 0; stroke: #000000"/>
     <use xlink:href="#m30d39a478b" x="295.2" y="347.28964" style="fill-opacity: 0; stroke: #000000"/>
     <use xlink:href="#m30d39a478b" x="295.2" y="354.476562" style="fill-opacity: 0; stroke: #000000"/>
     <use xlink:href="#m30d39a478b" x="295.2" y="351.761173" style="fill-opacity: 0; stroke: #000000"/>
     <use xlink:href="#m30d39a478b" x="295.2" y="351.140182" style="fill-opacity: 0; stroke: #000000"/>
     <use xlink:href="#m30d39a478b" x="295.2" y="316.930508" style="fill-opacity: 0; stroke: #000000"/>
     <use xlink:href="#m30d39a478b" x="295.2" y="323.352229" style="fill-opacity: 0; stroke: #000000"/>
     <use xlink:href="#m30d39a478b" x="295.2" y="350.113896" style="fill-opacity: 0; stroke: #000000"/>
     <use xlink:href="#m30d39a478b" x="295.2" y="355.227653" style="fill-opacity: 0; stroke: #000000"/>
     <use xlink:href="#m30d39a478b" x="295.2" y="353.242193" style="fill-opacity: 0; stroke: #000000"/>
     <use xlink:href="#m30d39a478b" x="295.2" y="223.448226" style="fill-opacity: 0; stroke: #000000"/>
     <use xlink:href="#m30d39a478b" x="295.2" y="341.729564" style="fill-opacity: 0; stroke: #000000"/>
     <use xlink:href="#m30d39a478b" x="295.2" y="348.054041" style="fill-opacity: 0; stroke: #000000"/>
     <use xlink:href="#m30d39a478b" x="295.2" y="352.059221" style="fill-opacity: 0; stroke: #000000"/>
     <use xlink:href="#m30d39a478b" x="295.2" y="355.186843" style="fill-opacity: 0; stroke: #000000"/>
     <use xlink:href="#m30d39a478b" x="295.2" y="350.128897" style="fill-opacity: 0; stroke: #000000"/>
     <use xlink:href="#m30d39a478b" x="295.2" y="355.923303" style="fill-opacity: 0; stroke: #000000"/>
     <use xlink:href="#m30d39a478b" x="295.2" y="355.507894" style="fill-opacity: 0; stroke: #000000"/>
     <use xlink:href="#m30d39a478b" x="295.2" y="351.835011" style="fill-opacity: 0; stroke: #000000"/>
     <use xlink:href="#m30d39a478b" x="295.2" y="323.167962" style="fill-opacity: 0; stroke: #000000"/>
     <use xlink:href="#m30d39a478b" x="295.2" y="355.391772" style="fill-opacity: 0; stroke: #000000"/>
     <use xlink:href="#m30d39a478b" x="295.2" y="354.351642" style="fill-opacity: 0; stroke: #000000"/>
     <use xlink:href="#m30d39a478b" x="295.2" y="351.793891" style="fill-opacity: 0; stroke: #000000"/>
     <use xlink:href="#m30d39a478b" x="295.2" y="345.79375" style="fill-opacity: 0; stroke: #000000"/>
     <use xlink:href="#m30d39a478b" x="295.2" y="355.76796" style="fill-opacity: 0; stroke: #000000"/>
     <use xlink:href="#m30d39a478b" x="295.2" y="351.500612" style="fill-opacity: 0; stroke: #000000"/>
     <use xlink:href="#m30d39a478b" x="295.2" y="352.667088" style="fill-opacity: 0; stroke: #000000"/>
     <use xlink:href="#m30d39a478b" x="295.2" y="67.228443" style="fill-opacity: 0; stroke: #000000"/>
     <use xlink:href="#m30d39a478b" x="295.2" y="279.708959" style="fill-opacity: 0; stroke: #000000"/>
     <use xlink:href="#m30d39a478b" x="295.2" y="294.107764" style="fill-opacity: 0; stroke: #000000"/>
     <use xlink:href="#m30d39a478b" x="295.2" y="334.657502" style="fill-opacity: 0; stroke: #000000"/>
     <use xlink:href="#m30d39a478b" x="295.2" y="311.135795" style="fill-opacity: 0; stroke: #000000"/>
     <use xlink:href="#m30d39a478b" x="295.2" y="326.315071" style="fill-opacity: 0; stroke: #000000"/>
     <use xlink:href="#m30d39a478b" x="295.2" y="319.82782" style="fill-opacity: 0; stroke: #000000"/>
     <use xlink:href="#m30d39a478b" x="295.2" y="330.459083" style="fill-opacity: 0; stroke: #000000"/>
     <use xlink:href="#m30d39a478b" x="295.2" y="325.013531" style="fill-opacity: 0; stroke: #000000"/>
     <use xlink:href="#m30d39a478b" x="295.2" y="344.660707" style="fill-opacity: 0; stroke: #000000"/>
     <use xlink:href="#m30d39a478b" x="295.2" y="335.651659" style="fill-opacity: 0; stroke: #000000"/>
     <use xlink:href="#m30d39a478b" x="295.2" y="342.366545" style="fill-opacity: 0; stroke: #000000"/>
     <use xlink:href="#m30d39a478b" x="295.2" y="343.749805" style="fill-opacity: 0; stroke: #000000"/>
     <use xlink:href="#m30d39a478b" x="295.2" y="261.263855" style="fill-opacity: 0; stroke: #000000"/>
     <use xlink:href="#m30d39a478b" x="295.2" y="310.825709" style="fill-opacity: 0; stroke: #000000"/>
     <use xlink:href="#m30d39a478b" x="295.2" y="325.926041" style="fill-opacity: 0; stroke: #000000"/>
     <use xlink:href="#m30d39a478b" x="295.2" y="323.769466" style="fill-opacity: 0; stroke: #000000"/>
     <use xlink:href="#m30d39a478b" x="295.2" y="340.570957" style="fill-opacity: 0; stroke: #000000"/>
     <use xlink:href="#m30d39a478b" x="295.2" y="324.49867" style="fill-opacity: 0; stroke: #000000"/>
     <use xlink:href="#m30d39a478b" x="295.2" y="313.077953" style="fill-opacity: 0; stroke: #000000"/>
     <use xlink:href="#m30d39a478b" x="295.2" y="355.513982" style="fill-opacity: 0; stroke: #000000"/>
     <use xlink:href="#m30d39a478b" x="295.2" y="349.542614" style="fill-opacity: 0; stroke: #000000"/>
     <use xlink:href="#m30d39a478b" x="295.2" y="348.862852" style="fill-opacity: 0; stroke: #000000"/>
     <use xlink:href="#m30d39a478b" x="295.2" y="335.237506" style="fill-opacity: 0; stroke: #000000"/>
     <use xlink:href="#m30d39a478b" x="295.2" y="336.153375" style="fill-opacity: 0; stroke: #000000"/>
     <use xlink:href="#m30d39a478b" x="295.2" y="320.313323" style="fill-opacity: 0; stroke: #000000"/>
     <use xlink:href="#m30d39a478b" x="295.2" y="317.571998" style="fill-opacity: 0; stroke: #000000"/>
     <use xlink:href="#m30d39a478b" x="295.2" y="316.679717" style="fill-opacity: 0; stroke: #000000"/>
     <use xlink:href="#m30d39a478b" x="295.2" y="325.25358" style="fill-opacity: 0; stroke: #000000"/>
     <use xlink:href="#m30d39a478b" x="295.2" y="320.713966" style="fill-opacity: 0; stroke: #000000"/>
     <use xlink:href="#m30d39a478b" x="295.2" y="318.653388" style="fill-opacity: 0; stroke: #000000"/>
     <use xlink:href="#m30d39a478b" x="295.2" y="353.738464" style="fill-opacity: 0; stroke: #000000"/>
     <use xlink:href="#m30d39a478b" x="295.2" y="345.06802" style="fill-opacity: 0; stroke: #000000"/>
     <use xlink:href="#m30d39a478b" x="295.2" y="307.297454" style="fill-opacity: 0; stroke: #000000"/>
     <use xlink:href="#m30d39a478b" x="295.2" y="325.380106" style="fill-opacity: 0; stroke: #000000"/>
     <use xlink:href="#m30d39a478b" x="295.2" y="317.952918" style="fill-opacity: 0; stroke: #000000"/>
     <use xlink:href="#m30d39a478b" x="295.2" y="259.271921" style="fill-opacity: 0; stroke: #000000"/>
     <use xlink:href="#m30d39a478b" x="295.2" y="320.182074" style="fill-opacity: 0; stroke: #000000"/>
     <use xlink:href="#m30d39a478b" x="295.2" y="343.051817" style="fill-opacity: 0; stroke: #000000"/>
     <use xlink:href="#m30d39a478b" x="295.2" y="337.874235" style="fill-opacity: 0; stroke: #000000"/>
     <use xlink:href="#m30d39a478b" x="295.2" y="355.884733" style="fill-opacity: 0; stroke: #000000"/>
     <use xlink:href="#m30d39a478b" x="295.2" y="354.823246" style="fill-opacity: 0; stroke: #000000"/>
     <use xlink:href="#m30d39a478b" x="295.2" y="353.903292" style="fill-opacity: 0; stroke: #000000"/>
     <use xlink:href="#m30d39a478b" x="295.2" y="345.453471" style="fill-opacity: 0; stroke: #000000"/>
     <use xlink:href="#m30d39a478b" x="295.2" y="351.307161" style="fill-opacity: 0; stroke: #000000"/>
     <use xlink:href="#m30d39a478b" x="295.2" y="353.764025" style="fill-opacity: 0; stroke: #000000"/>
     <use xlink:href="#m30d39a478b" x="295.2" y="346.942618" style="fill-opacity: 0; stroke: #000000"/>
     <use xlink:href="#m30d39a478b" x="295.2" y="353.442257" style="fill-opacity: 0; stroke: #000000"/>
     <use xlink:href="#m30d39a478b" x="295.2" y="348.339906" style="fill-opacity: 0; stroke: #000000"/>
     <use xlink:href="#m30d39a478b" x="295.2" y="248.71279" style="fill-opacity: 0; stroke: #000000"/>
     <use xlink:href="#m30d39a478b" x="295.2" y="346.029905" style="fill-opacity: 0; stroke: #000000"/>
     <use xlink:href="#m30d39a478b" x="295.2" y="344.382991" style="fill-opacity: 0; stroke: #000000"/>
     <use xlink:href="#m30d39a478b" x="295.2" y="352.612668" style="fill-opacity: 0; stroke: #000000"/>
     <use xlink:href="#m30d39a478b" x="295.2" y="342.121104" style="fill-opacity: 0; stroke: #000000"/>
     <use xlink:href="#m30d39a478b" x="295.2" y="355.87621" style="fill-opacity: 0; stroke: #000000"/>
     <use xlink:href="#m30d39a478b" x="295.2" y="339.946512" style="fill-opacity: 0; stroke: #000000"/>
     <use xlink:href="#m30d39a478b" x="295.2" y="347.378633" style="fill-opacity: 0; stroke: #000000"/>
     <use xlink:href="#m30d39a478b" x="295.2" y="355.96196" style="fill-opacity: 0; stroke: #000000"/>
     <use xlink:href="#m30d39a478b" x="295.2" y="354.382073" style="fill-opacity: 0; stroke: #000000"/>
     <use xlink:href="#m30d39a478b" x="295.2" y="343.256494" style="fill-opacity: 0; stroke: #000000"/>
     <use xlink:href="#m30d39a478b" x="295.2" y="352.757027" style="fill-opacity: 0; stroke: #000000"/>
     <use xlink:href="#m30d39a478b" x="295.2" y="353.636858" style="fill-opacity: 0; stroke: #000000"/>
     <use xlink:href="#m30d39a478b" x="295.2" y="217.791922" style="fill-opacity: 0; stroke: #000000"/>
     <use xlink:href="#m30d39a478b" x="295.2" y="346.875676" style="fill-opacity: 0; stroke: #000000"/>
     <use xlink:href="#m30d39a478b" x="295.2" y="349.249673" style="fill-opacity: 0; stroke: #000000"/>
     <use xlink:href="#m30d39a478b" x="295.2" y="354.942019" style="fill-opacity: 0; stroke: #000000"/>
     <use xlink:href="#m30d39a478b" x="295.2" y="355.665517" style="fill-opacity: 0; stroke: #000000"/>
     <use xlink:href="#m30d39a478b" x="295.2" y="350.431372" style="fill-opacity: 0; stroke: #000000"/>
     <use xlink:href="#m30d39a478b" x="295.2" y="334.497947" style="fill-opacity: 0; stroke: #000000"/>
     <use xlink:href="#m30d39a478b" x="295.2" y="325.148407" style="fill-opacity: 0; stroke: #000000"/>
     <use xlink:href="#m30d39a478b" x="295.2" y="351.429913" style="fill-opacity: 0; stroke: #000000"/>
     <use xlink:href="#m30d39a478b" x="295.2" y="341.342698" style="fill-opacity: 0; stroke: #000000"/>
     <use xlink:href="#m30d39a478b" x="295.2" y="352.036137" style="fill-opacity: 0; stroke: #000000"/>
     <use xlink:href="#m30d39a478b" x="295.2" y="355.168522" style="fill-opacity: 0; stroke: #000000"/>
     <use xlink:href="#m30d39a478b" x="295.2" y="352.696085" style="fill-opacity: 0; stroke: #000000"/>
     <use xlink:href="#m30d39a478b" x="295.2" y="355.806441" style="fill-opacity: 0; stroke: #000000"/>
    </g>
   </g>
   <g id="line2d_12">
    <path d="M 250.56 367.001215 
L 339.84 367.001215 
" clip-path="url(#pa3a55ef3c2)" style="fill: none; stroke: #ff7f0e"/>
   </g>
   <g id="patch_4">
    <path d="M 72 384.48 
L 72 51.84 
" style="fill: none; stroke: #000000; stroke-width: 0.8; stroke-linejoin: miter; stroke-linecap: square"/>
   </g>
   <g id="patch_5">
    <path d="M 518.4 384.48 
L 518.4 51.84 
" style="fill: none; stroke: #000000; stroke-width: 0.8; stroke-linejoin: miter; stroke-linecap: square"/>
   </g>
   <g id="patch_6">
    <path d="M 72 384.48 
L 518.4 384.48 
" style="fill: none; stroke: #000000; stroke-width: 0.8; stroke-linejoin: miter; stroke-linecap: square"/>
   </g>
   <g id="patch_7">
    <path d="M 72 51.84 
L 518.4 51.84 
" style="fill: none; stroke: #000000; stroke-width: 0.8; stroke-linejoin: miter; stroke-linecap: square"/>
   </g>
   <g id="text_8">
    <!-- Test Method -->
    <g transform="translate(258.975 45.84) scale(0.12 -0.12)">
     <defs>
      <path id="DejaVuSans-74" d="M 1172 4494 
L 1172 3500 
L 2356 3500 
L 2356 3053 
L 1172 3053 
L 1172 1153 
Q 1172 725 1289 603 
Q 1406 481 1766 481 
L 2356 481 
L 2356 0 
L 1766 0 
Q 1100 0 847 248 
Q 594 497 594 1153 
L 594 3053 
L 172 3053 
L 172 3500 
L 594 3500 
L 594 4494 
L 1172 4494 
z
" transform="scale(0.015625)"/>
      <path id="DejaVuSans-4d" d="M 628 4666 
L 1569 4666 
L 2759 1491 
L 3956 4666 
L 4897 4666 
L 4897 0 
L 4281 0 
L 4281 4097 
L 3078 897 
L 2444 897 
L 1241 4097 
L 1241 0 
L 628 0 
L 628 4666 
z
" transform="scale(0.015625)"/>
      <path id="DejaVuSans-68" d="M 3513 2113 
L 3513 0 
L 2938 0 
L 2938 2094 
Q 2938 2591 2744 2837 
Q 2550 3084 2163 3084 
Q 1697 3084 1428 2787 
Q 1159 2491 1159 1978 
L 1159 0 
L 581 0 
L 581 4863 
L 1159 4863 
L 1159 2956 
Q 1366 3272 1645 3428 
Q 1925 3584 2291 3584 
Q 2894 3584 3203 3211 
Q 3513 2838 3513 2113 
z
" transform="scale(0.015625)"/>
      <path id="DejaVuSans-6f" d="M 1959 3097 
Q 1497 3097 1228 2736 
Q 959 2375 959 1747 
Q 959 1119 1226 758 
Q 1494 397 1959 397 
Q 2419 397 2687 759 
Q 2956 1122 2956 1747 
Q 2956 2369 2687 2733 
Q 2419 3097 1959 3097 
z
M 1959 3584 
Q 2709 3584 3137 3096 
Q 3566 2609 3566 1747 
Q 3566 888 3137 398 
Q 2709 -91 1959 -91 
Q 1206 -91 779 398 
Q 353 888 353 1747 
Q 353 2609 779 3096 
Q 1206 3584 1959 3584 
z
" transform="scale(0.015625)"/>
      <path id="DejaVuSans-64" d="M 2906 2969 
L 2906 4863 
L 3481 4863 
L 3481 0 
L 2906 0 
L 2906 525 
Q 2725 213 2448 61 
Q 2172 -91 1784 -91 
Q 1150 -91 751 415 
Q 353 922 353 1747 
Q 353 2572 751 3078 
Q 1150 3584 1784 3584 
Q 2172 3584 2448 3432 
Q 2725 3281 2906 2969 
z
M 947 1747 
Q 947 1113 1208 752 
Q 1469 391 1925 391 
Q 2381 391 2643 752 
Q 2906 1113 2906 1747 
Q 2906 2381 2643 2742 
Q 2381 3103 1925 3103 
Q 1469 3103 1208 2742 
Q 947 2381 947 1747 
z
" transform="scale(0.015625)"/>
     </defs>
     <use xlink:href="#DejaVuSans-54"/>
     <use xlink:href="#DejaVuSans-65" transform="translate(44.083984 0)"/>
     <use xlink:href="#DejaVuSans-73" transform="translate(105.607422 0)"/>
     <use xlink:href="#DejaVuSans-74" transform="translate(157.707031 0)"/>
     <use xlink:href="#DejaVuSans-20" transform="translate(196.916016 0)"/>
     <use xlink:href="#DejaVuSans-4d" transform="translate(228.703125 0)"/>
     <use xlink:href="#DejaVuSans-65" transform="translate(314.982422 0)"/>
     <use xlink:href="#DejaVuSans-74" transform="translate(376.505859 0)"/>
     <use xlink:href="#DejaVuSans-68" transform="translate(415.714844 0)"/>
     <use xlink:href="#DejaVuSans-6f" transform="translate(479.09375 0)"/>
     <use xlink:href="#DejaVuSans-64" transform="translate(540.275391 0)"/>
    </g>
   </g>
  </g>
 </g>
 <defs>
  <clipPath id="pa3a55ef3c2">
   <rect x="72" y="51.84" width="446.4" height="332.64"/>
  </clipPath>
 </defs>
</svg>
