<?xml version="1.0" encoding="utf-8" standalone="no"?>
<!DOCTYPE svg PUBLIC "-//W3C//DTD SVG 1.1//EN"
  "http://www.w3.org/Graphics/SVG/1.1/DTD/svg11.dtd">
<svg xmlns:xlink="http://www.w3.org/1999/xlink" width="576pt" height="432pt" viewBox="0 0 576 432" xmlns="http://www.w3.org/2000/svg" version="1.1">
 <metadata>
  <rdf:RDF xmlns:dc="http://purl.org/dc/elements/1.1/" xmlns:cc="http://creativecommons.org/ns#" xmlns:rdf="http://www.w3.org/1999/02/22-rdf-syntax-ns#">
   <cc:Work>
    <dc:type rdf:resource="http://purl.org/dc/dcmitype/StillImage"/>
    <dc:date>2025-06-08T23:57:29.350397</dc:date>
    <dc:format>image/svg+xml</dc:format>
    <dc:creator>
     <cc:Agent>
      <dc:title>Matplotlib v3.10.3, https://matplotlib.org/</dc:title>
     </cc:Agent>
    </dc:creator>
   </cc:Work>
  </rdf:RDF>
 </metadata>
 <defs>
  <style type="text/css">*{stroke-linejoin: round; stroke-linecap: butt}</style>
 </defs>
 <g id="figure_1">
  <g id="patch_1">
   <path d="M 0 432 
L 576 432 
L 576 0 
L 0 0 
z
" style="fill: #ffffff"/>
  </g>
  <g id="axes_1">
   <g id="patch_2">
    <path d="M 72 384.48 
L 518.4 384.48 
L 518.4 51.84 
L 72 51.84 
z
" style="fill: #ffffff"/>
   </g>
   <g id="FillBetweenPolyCollection_1">
    <path d="M 306.28564 370.86748 
L 284.11436 370.86748 
L 233.124163 367.798433 
L 183.6 364.729385 
L 196.686175 361.660338 
L 235.451281 358.59129 
L 266.797733 355.522243 
L 283.459095 352.453196 
L 289.924783 349.384148 
L 292.809978 346.315101 
L 293.843327 343.246053 
L 294.325018 340.177006 
L 294.528546 337.107958 
L 294.736416 334.038911 
L 294.741861 330.969864 
L 294.769208 327.900816 
L 294.945931 324.831769 
L 295.08291 321.762721 
L 295.099768 318.693674 
L 295.057544 315.624626 
L 295.08328 312.555579 
L 295.048872 309.486532 
L 295.04016 306.417484 
L 295.051305 303.348437 
L 295.086735 300.279389 
L 295.079634 297.210342 
L 295.034277 294.141294 
L 294.944525 291.072247 
L 294.907951 288.0032 
L 295.013827 284.934152 
L 295.079291 281.865105 
L 295.079833 278.796057 
L 295.055874 275.72701 
L 295.117367 272.657962 
L 295.169967 269.588915 
L 295.138236 266.519868 
L 295.122659 263.45082 
L 295.142445 260.381773 
L 295.161428 257.312725 
L 295.162173 254.243678 
L 295.18655 251.17463 
L 295.157821 248.105583 
L 295.177007 245.036536 
L 295.171002 241.967488 
L 295.129447 238.898441 
L 295.086659 235.829393 
L 295.080021 232.760346 
L 295.12149 229.691298 
L 295.174698 226.622251 
L 295.172832 223.553204 
L 295.122001 220.484156 
L 295.161937 217.415109 
L 295.197351 214.346061 
L 295.199979 211.277014 
L 295.2 208.207966 
L 295.2 205.138919 
L 295.2 202.069872 
L 295.2 199.000824 
L 295.199996 195.931777 
L 295.199093 192.862729 
L 295.180373 189.793682 
L 295.157215 186.724634 
L 295.190601 183.655587 
L 295.199792 180.58654 
L 295.2 177.517492 
L 295.2 174.448445 
L 295.2 171.379397 
L 295.2 168.31035 
L 295.2 165.241302 
L 295.2 162.172255 
L 295.2 159.103208 
L 295.2 156.03416 
L 295.2 152.965113 
L 295.2 149.896065 
L 295.199998 146.827018 
L 295.199527 143.75797 
L 295.185619 140.688923 
L 295.15594 137.619876 
L 295.186395 134.550828 
L 295.199577 131.481781 
L 295.199947 128.412733 
L 295.195716 125.343686 
L 295.16419 122.274638 
L 295.169835 119.205591 
L 295.197439 116.136544 
L 295.199978 113.067496 
L 295.2 109.998449 
L 295.2 106.929401 
L 295.2 103.860354 
L 295.2 100.791306 
L 295.2 97.722259 
L 295.2 94.653212 
L 295.2 91.584164 
L 295.2 88.515117 
L 295.2 85.446069 
L 295.2 82.377022 
L 295.2 79.307974 
L 295.199999 76.238927 
L 295.199552 73.16988 
L 295.18601 70.100832 
L 295.155933 67.031785 
L 295.244067 67.031785 
L 295.244067 67.031785 
L 295.21399 70.100832 
L 295.200448 73.16988 
L 295.200001 76.238927 
L 295.2 79.307974 
L 295.2 82.377022 
L 295.2 85.446069 
L 295.2 88.515117 
L 295.2 91.584164 
L 295.2 94.653212 
L 295.2 97.722259 
L 295.2 100.791306 
L 295.2 103.860354 
L 295.2 106.929401 
L 295.2 109.998449 
L 295.200022 113.067496 
L 295.202561 116.136544 
L 295.230165 119.205591 
L 295.23581 122.274638 
L 295.204284 125.343686 
L 295.200053 128.412733 
L 295.200423 131.481781 
L 295.213605 134.550828 
L 295.24406 137.619876 
L 295.214381 140.688923 
L 295.200473 143.75797 
L 295.200002 146.827018 
L 295.2 149.896065 
L 295.2 152.965113 
L 295.2 156.03416 
L 295.2 159.103208 
L 295.2 162.172255 
L 295.2 165.241302 
L 295.2 168.31035 
L 295.2 171.379397 
L 295.2 174.448445 
L 295.2 177.517492 
L 295.200208 180.58654 
L 295.209399 183.655587 
L 295.242785 186.724634 
L 295.219627 189.793682 
L 295.200907 192.862729 
L 295.200004 195.931777 
L 295.2 199.000824 
L 295.2 202.069872 
L 295.2 205.138919 
L 295.2 208.207966 
L 295.200021 211.277014 
L 295.202649 214.346061 
L 295.238063 217.415109 
L 295.277999 220.484156 
L 295.227168 223.553204 
L 295.225302 226.622251 
L 295.27851 229.691298 
L 295.319979 232.760346 
L 295.313341 235.829393 
L 295.270553 238.898441 
L 295.228998 241.967488 
L 295.222993 245.036536 
L 295.242179 248.105583 
L 295.21345 251.17463 
L 295.237827 254.243678 
L 295.238572 257.312725 
L 295.257555 260.381773 
L 295.277341 263.45082 
L 295.261764 266.519868 
L 295.230033 269.588915 
L 295.282633 272.657962 
L 295.344126 275.72701 
L 295.320167 278.796057 
L 295.320709 281.865105 
L 295.386173 284.934152 
L 295.492049 288.0032 
L 295.455475 291.072247 
L 295.365723 294.141294 
L 295.320366 297.210342 
L 295.313265 300.279389 
L 295.348695 303.348437 
L 295.35984 306.417484 
L 295.351128 309.486532 
L 295.31672 312.555579 
L 295.342456 315.624626 
L 295.300232 318.693674 
L 295.31709 321.762721 
L 295.454069 324.831769 
L 295.630792 327.900816 
L 295.658139 330.969864 
L 295.663584 334.038911 
L 295.871454 337.107958 
L 296.074982 340.177006 
L 296.556673 343.246053 
L 297.590022 346.315101 
L 300.475217 349.384148 
L 306.940905 352.453196 
L 323.602267 355.522243 
L 354.948719 358.59129 
L 393.713825 361.660338 
L 406.8 364.729385 
L 357.275837 367.798433 
L 306.28564 370.86748 
z
" clip-path="url(#pe26f11ba86)" style="fill: #1f77b4; fill-opacity: 0.3"/>
   </g>
   <g id="matplotlib.axis_1">
    <g id="xtick_1">
     <g id="line2d_1">
      <defs>
       <path id="m9cd7962df7" d="M 0 0 
L 0 3.5 
" style="stroke: #000000; stroke-width: 0.8"/>
      </defs>
      <g>
       <use xlink:href="#m9cd7962df7" x="295.2" y="384.48" style="stroke: #000000; stroke-width: 0.8"/>
      </g>
     </g>
     <g id="text_1">
      <!-- 1 -->
      <g transform="translate(292.01875 399.078438) scale(0.1 -0.1)">
       <defs>
        <path id="DejaVuSans-31" d="M 794 531 
L 1825 531 
L 1825 4091 
L 703 3866 
L 703 4441 
L 1819 4666 
L 2450 4666 
L 2450 531 
L 3481 531 
L 3481 0 
L 794 0 
L 794 531 
z
" transform="scale(0.015625)"/>
       </defs>
       <use xlink:href="#DejaVuSans-31"/>
      </g>
     </g>
    </g>
   </g>
   <g id="matplotlib.axis_2">
    <g id="ytick_1">
     <g id="line2d_2">
      <defs>
       <path id="m1d458cbd4a" d="M 0 0 
L -3.5 0 
" style="stroke: #000000; stroke-width: 0.8"/>
      </defs>
      <g>
       <use xlink:href="#m1d458cbd4a" x="72" y="384.48" style="stroke: #000000; stroke-width: 0.8"/>
      </g>
     </g>
     <g id="text_2">
      <!-- 0 -->
      <g transform="translate(58.6375 388.279219) scale(0.1 -0.1)">
       <defs>
        <path id="DejaVuSans-30" d="M 2034 4250 
Q 1547 4250 1301 3770 
Q 1056 3291 1056 2328 
Q 1056 1369 1301 889 
Q 1547 409 2034 409 
Q 2525 409 2770 889 
Q 3016 1369 3016 2328 
Q 3016 3291 2770 3770 
Q 2525 4250 2034 4250 
z
M 2034 4750 
Q 2819 4750 3233 4129 
Q 3647 3509 3647 2328 
Q 3647 1150 3233 529 
Q 2819 -91 2034 -91 
Q 1250 -91 836 529 
Q 422 1150 422 2328 
Q 422 3509 836 4129 
Q 1250 4750 2034 4750 
z
" transform="scale(0.015625)"/>
       </defs>
       <use xlink:href="#DejaVuSans-30"/>
      </g>
     </g>
    </g>
    <g id="ytick_2">
     <g id="line2d_3">
      <g>
       <use xlink:href="#m1d458cbd4a" x="72" y="311.67542" style="stroke: #000000; stroke-width: 0.8"/>
      </g>
     </g>
     <g id="text_3">
      <!-- 10 -->
      <g transform="translate(52.275 315.474639) scale(0.1 -0.1)">
       <use xlink:href="#DejaVuSans-31"/>
       <use xlink:href="#DejaVuSans-30" transform="translate(63.623047 0)"/>
      </g>
     </g>
    </g>
    <g id="ytick_3">
     <g id="line2d_4">
      <g>
       <use xlink:href="#m1d458cbd4a" x="72" y="238.87084" style="stroke: #000000; stroke-width: 0.8"/>
      </g>
     </g>
     <g id="text_4">
      <!-- 20 -->
      <g transform="translate(52.275 242.670059) scale(0.1 -0.1)">
       <defs>
        <path id="DejaVuSans-32" d="M 1228 531 
L 3431 531 
L 3431 0 
L 469 0 
L 469 531 
Q 828 903 1448 1529 
Q 2069 2156 2228 2338 
Q 2531 2678 2651 2914 
Q 2772 3150 2772 3378 
Q 2772 3750 2511 3984 
Q 2250 4219 1831 4219 
Q 1534 4219 1204 4116 
Q 875 4013 500 3803 
L 500 4441 
Q 881 4594 1212 4672 
Q 1544 4750 1819 4750 
Q 2544 4750 2975 4387 
Q 3406 4025 3406 3419 
Q 3406 3131 3298 2873 
Q 3191 2616 2906 2266 
Q 2828 2175 2409 1742 
Q 1991 1309 1228 531 
z
" transform="scale(0.015625)"/>
       </defs>
       <use xlink:href="#DejaVuSans-32"/>
       <use xlink:href="#DejaVuSans-30" transform="translate(63.623047 0)"/>
      </g>
     </g>
    </g>
    <g id="ytick_4">
     <g id="line2d_5">
      <g>
       <use xlink:href="#m1d458cbd4a" x="72" y="166.06626" style="stroke: #000000; stroke-width: 0.8"/>
      </g>
     </g>
     <g id="text_5">
      <!-- 30 -->
      <g transform="translate(52.275 169.865479) scale(0.1 -0.1)">
       <defs>
        <path id="DejaVuSans-33" d="M 2597 2516 
Q 3050 2419 3304 2112 
Q 3559 1806 3559 1356 
Q 3559 666 3084 287 
Q 2609 -91 1734 -91 
Q 1441 -91 1130 -33 
Q 819 25 488 141 
L 488 750 
Q 750 597 1062 519 
Q 1375 441 1716 441 
Q 2309 441 2620 675 
Q 2931 909 2931 1356 
Q 2931 1769 2642 2001 
Q 2353 2234 1838 2234 
L 1294 2234 
L 1294 2753 
L 1863 2753 
Q 2328 2753 2575 2939 
Q 2822 3125 2822 3475 
Q 2822 3834 2567 4026 
Q 2313 4219 1838 4219 
Q 1578 4219 1281 4162 
Q 984 4106 628 3988 
L 628 4550 
Q 988 4650 1302 4700 
Q 1616 4750 1894 4750 
Q 2613 4750 3031 4423 
Q 3450 4097 3450 3541 
Q 3450 3153 3228 2886 
Q 3006 2619 2597 2516 
z
" transform="scale(0.015625)"/>
       </defs>
       <use xlink:href="#DejaVuSans-33"/>
       <use xlink:href="#DejaVuSans-30" transform="translate(63.623047 0)"/>
      </g>
     </g>
    </g>
    <g id="ytick_5">
     <g id="line2d_6">
      <g>
       <use xlink:href="#m1d458cbd4a" x="72" y="93.26168" style="stroke: #000000; stroke-width: 0.8"/>
      </g>
     </g>
     <g id="text_6">
      <!-- 40 -->
      <g transform="translate(52.275 97.060899) scale(0.1 -0.1)">
       <defs>
        <path id="DejaVuSans-34" d="M 2419 4116 
L 825 1625 
L 2419 1625 
L 2419 4116 
z
M 2253 4666 
L 3047 4666 
L 3047 1625 
L 3713 1625 
L 3713 1100 
L 3047 1100 
L 3047 0 
L 2419 0 
L 2419 1100 
L 313 1100 
L 313 1709 
L 2253 4666 
z
" transform="scale(0.015625)"/>
       </defs>
       <use xlink:href="#DejaVuSans-34"/>
       <use xlink:href="#DejaVuSans-30" transform="translate(63.623047 0)"/>
      </g>
     </g>
    </g>
    <g id="text_7">
     <!-- Time (ms) -->
     <g transform="translate(46.195312 243.359219) rotate(-90) scale(0.1 -0.1)">
      <defs>
       <path id="DejaVuSans-54" d="M -19 4666 
L 3928 4666 
L 3928 4134 
L 2272 4134 
L 2272 0 
L 1638 0 
L 1638 4134 
L -19 4134 
L -19 4666 
z
" transform="scale(0.015625)"/>
       <path id="DejaVuSans-69" d="M 603 3500 
L 1178 3500 
L 1178 0 
L 603 0 
L 603 3500 
z
M 603 4863 
L 1178 4863 
L 1178 4134 
L 603 4134 
L 603 4863 
z
" transform="scale(0.015625)"/>
       <path id="DejaVuSans-6d" d="M 3328 2828 
Q 3544 3216 3844 3400 
Q 4144 3584 4550 3584 
Q 5097 3584 5394 3201 
Q 5691 2819 5691 2113 
L 5691 0 
L 5113 0 
L 5113 2094 
Q 5113 2597 4934 2840 
Q 4756 3084 4391 3084 
Q 3944 3084 3684 2787 
Q 3425 2491 3425 1978 
L 3425 0 
L 2847 0 
L 2847 2094 
Q 2847 2600 2669 2842 
Q 2491 3084 2119 3084 
Q 1678 3084 1418 2786 
Q 1159 2488 1159 1978 
L 1159 0 
L 581 0 
L 581 3500 
L 1159 3500 
L 1159 2956 
Q 1356 3278 1631 3431 
Q 1906 3584 2284 3584 
Q 2666 3584 2933 3390 
Q 3200 3197 3328 2828 
z
" transform="scale(0.015625)"/>
       <path id="DejaVuSans-65" d="M 3597 1894 
L 3597 1613 
L 953 1613 
Q 991 1019 1311 708 
Q 1631 397 2203 397 
Q 2534 397 2845 478 
Q 3156 559 3463 722 
L 3463 178 
Q 3153 47 2828 -22 
Q 2503 -91 2169 -91 
Q 1331 -91 842 396 
Q 353 884 353 1716 
Q 353 2575 817 3079 
Q 1281 3584 2069 3584 
Q 2775 3584 3186 3129 
Q 3597 2675 3597 1894 
z
M 3022 2063 
Q 3016 2534 2758 2815 
Q 2500 3097 2075 3097 
Q 1594 3097 1305 2825 
Q 1016 2553 972 2059 
L 3022 2063 
z
" transform="scale(0.015625)"/>
       <path id="DejaVuSans-20" transform="scale(0.015625)"/>
       <path id="DejaVuSans-28" d="M 1984 4856 
Q 1566 4138 1362 3434 
Q 1159 2731 1159 2009 
Q 1159 1288 1364 580 
Q 1569 -128 1984 -844 
L 1484 -844 
Q 1016 -109 783 600 
Q 550 1309 550 2009 
Q 550 2706 781 3412 
Q 1013 4119 1484 4856 
L 1984 4856 
z
" transform="scale(0.015625)"/>
       <path id="DejaVuSans-73" d="M 2834 3397 
L 2834 2853 
Q 2591 2978 2328 3040 
Q 2066 3103 1784 3103 
Q 1356 3103 1142 2972 
Q 928 2841 928 2578 
Q 928 2378 1081 2264 
Q 1234 2150 1697 2047 
L 1894 2003 
Q 2506 1872 2764 1633 
Q 3022 1394 3022 966 
Q 3022 478 2636 193 
Q 2250 -91 1575 -91 
Q 1294 -91 989 -36 
Q 684 19 347 128 
L 347 722 
Q 666 556 975 473 
Q 1284 391 1588 391 
Q 1994 391 2212 530 
Q 2431 669 2431 922 
Q 2431 1156 2273 1281 
Q 2116 1406 1581 1522 
L 1381 1569 
Q 847 1681 609 1914 
Q 372 2147 372 2553 
Q 372 3047 722 3315 
Q 1072 3584 1716 3584 
Q 2034 3584 2315 3537 
Q 2597 3491 2834 3397 
z
" transform="scale(0.015625)"/>
       <path id="DejaVuSans-29" d="M 513 4856 
L 1013 4856 
Q 1481 4119 1714 3412 
Q 1947 2706 1947 2009 
Q 1947 1309 1714 600 
Q 1481 -109 1013 -844 
L 513 -844 
Q 928 -128 1133 580 
Q 1338 1288 1338 2009 
Q 1338 2731 1133 3434 
Q 928 4138 513 4856 
z
" transform="scale(0.015625)"/>
      </defs>
      <use xlink:href="#DejaVuSans-54"/>
      <use xlink:href="#DejaVuSans-69" transform="translate(57.958984 0)"/>
      <use xlink:href="#DejaVuSans-6d" transform="translate(85.742188 0)"/>
      <use xlink:href="#DejaVuSans-65" transform="translate(183.154297 0)"/>
      <use xlink:href="#DejaVuSans-20" transform="translate(244.677734 0)"/>
      <use xlink:href="#DejaVuSans-28" transform="translate(276.464844 0)"/>
      <use xlink:href="#DejaVuSans-6d" transform="translate(315.478516 0)"/>
      <use xlink:href="#DejaVuSans-73" transform="translate(412.890625 0)"/>
      <use xlink:href="#DejaVuSans-29" transform="translate(464.990234 0)"/>
     </g>
    </g>
   </g>
   <g id="LineCollection_1">
    <path d="M 239.4 361.169108 
L 351 361.169108 
" clip-path="url(#pe26f11ba86)" style="fill: none; stroke: #1f77b4; stroke-width: 1.5"/>
   </g>
   <g id="LineCollection_2">
    <path d="M 239.4 67.031785 
L 351 67.031785 
" clip-path="url(#pe26f11ba86)" style="fill: none; stroke: #1f77b4; stroke-width: 1.5"/>
   </g>
   <g id="LineCollection_3">
    <path d="M 239.4 370.86748 
L 351 370.86748 
" clip-path="url(#pe26f11ba86)" style="fill: none; stroke: #1f77b4; stroke-width: 1.5"/>
   </g>
   <g id="LineCollection_4">
    <path d="M 295.2 370.86748 
L 295.2 67.031785 
" clip-path="url(#pe26f11ba86)" style="fill: none; stroke: #1f77b4; stroke-width: 1.5"/>
   </g>
   <g id="patch_3">
    <path d="M 250.56 365.314897 
L 339.84 365.314897 
L 339.84 359.846911 
L 250.56 359.846911 
L 250.56 365.314897 
z
" clip-path="url(#pe26f11ba86)" style="fill: #1f77b4; stroke: #000000; stroke-linejoin: miter"/>
   </g>
   <g id="line2d_7">
    <path d="M 295.2 365.314897 
L 295.2 370.86748 
" clip-path="url(#pe26f11ba86)" style="fill: none; stroke: #000000; stroke-linecap: square"/>
   </g>
   <g id="line2d_8">
    <path d="M 295.2 359.846911 
L 295.2 351.681624 
" clip-path="url(#pe26f11ba86)" style="fill: none; stroke: #000000; stroke-linecap: square"/>
   </g>
   <g id="line2d_9">
    <path d="M 272.88 370.86748 
L 317.52 370.86748 
" clip-path="url(#pe26f11ba86)" style="fill: none; stroke: #000000; stroke-linecap: square"/>
   </g>
   <g id="line2d_10">
    <path d="M 272.88 351.681624 
L 317.52 351.681624 
" clip-path="url(#pe26f11ba86)" style="fill: none; stroke: #000000; stroke-linecap: square"/>
   </g>
   <g id="line2d_11">
    <defs>
     <path id="m17bad5f0ae" d="M 0 3 
C 0.795609 3 1.55874 2.683901 2.12132 2.12132 
C 2.683901 1.55874 3 0.795609 3 0 
C 3 -0.795609 2.683901 -1.55874 2.12132 -2.12132 
C 1.55874 -2.683901 0.795609 -3 0 -3 
C -0.795609 -3 -1.55874 -2.683901 -2.12132 -2.12132 
C -2.683901 -1.55874 -3 -0.795609 -3 0 
C -3 0.795609 -2.683901 1.55874 -2.12132 2.12132 
C -1.55874 2.683901 -0.795609 3 0 3 
z
" style="stroke: #000000"/>
    </defs>
    <g clip-path="url(#pe26f11ba86)">
     <use xlink:href="#m17bad5f0ae" x="295.2" y="342.352067" style="fill-opacity: 0; stroke: #000000"/>
     <use xlink:href="#m17bad5f0ae" x="295.2" y="347.416557" style="fill-opacity: 0; stroke: #000000"/>
     <use xlink:href="#m17bad5f0ae" x="295.2" y="328.520805" style="fill-opacity: 0; stroke: #000000"/>
     <use xlink:href="#m17bad5f0ae" x="295.2" y="343.083047" style="fill-opacity: 0; stroke: #000000"/>
     <use xlink:href="#m17bad5f0ae" x="295.2" y="349.359791" style="fill-opacity: 0; stroke: #000000"/>
     <use xlink:href="#m17bad5f0ae" x="295.2" y="340.5224" style="fill-opacity: 0; stroke: #000000"/>
     <use xlink:href="#m17bad5f0ae" x="295.2" y="349.412211" style="fill-opacity: 0; stroke: #000000"/>
     <use xlink:href="#m17bad5f0ae" x="295.2" y="347.893449" style="fill-opacity: 0; stroke: #000000"/>
     <use xlink:href="#m17bad5f0ae" x="295.2" y="342.727753" style="fill-opacity: 0; stroke: #000000"/>
     <use xlink:href="#m17bad5f0ae" x="295.2" y="343.354622" style="fill-opacity: 0; stroke: #000000"/>
     <use xlink:href="#m17bad5f0ae" x="295.2" y="351.227309" style="fill-opacity: 0; stroke: #000000"/>
     <use xlink:href="#m17bad5f0ae" x="295.2" y="351.069316" style="fill-opacity: 0; stroke: #000000"/>
     <use xlink:href="#m17bad5f0ae" x="295.2" y="348.292433" style="fill-opacity: 0; stroke: #000000"/>
     <use xlink:href="#m17bad5f0ae" x="295.2" y="350.982678" style="fill-opacity: 0; stroke: #000000"/>
     <use xlink:href="#m17bad5f0ae" x="295.2" y="351.284817" style="fill-opacity: 0; stroke: #000000"/>
     <use xlink:href="#m17bad5f0ae" x="295.2" y="346.732893" style="fill-opacity: 0; stroke: #000000"/>
     <use xlink:href="#m17bad5f0ae" x="295.2" y="350.167223" style="fill-opacity: 0; stroke: #000000"/>
     <use xlink:href="#m17bad5f0ae" x="295.2" y="332.520114" style="fill-opacity: 0; stroke: #000000"/>
     <use xlink:href="#m17bad5f0ae" x="295.2" y="350.507235" style="fill-opacity: 0; stroke: #000000"/>
     <use xlink:href="#m17bad5f0ae" x="295.2" y="350.803564" style="fill-opacity: 0; stroke: #000000"/>
     <use xlink:href="#m17bad5f0ae" x="295.2" y="349.459534" style="fill-opacity: 0; stroke: #000000"/>
     <use xlink:href="#m17bad5f0ae" x="295.2" y="345.881036" style="fill-opacity: 0; stroke: #000000"/>
     <use xlink:href="#m17bad5f0ae" x="295.2" y="337.808122" style="fill-opacity: 0; stroke: #000000"/>
     <use xlink:href="#m17bad5f0ae" x="295.2" y="335.951183" style="fill-opacity: 0; stroke: #000000"/>
     <use xlink:href="#m17bad5f0ae" x="295.2" y="343.364625" style="fill-opacity: 0; stroke: #000000"/>
     <use xlink:href="#m17bad5f0ae" x="295.2" y="341.383482" style="fill-opacity: 0; stroke: #000000"/>
     <use xlink:href="#m17bad5f0ae" x="295.2" y="347.378597" style="fill-opacity: 0; stroke: #000000"/>
     <use xlink:href="#m17bad5f0ae" x="295.2" y="339.585092" style="fill-opacity: 0; stroke: #000000"/>
     <use xlink:href="#m17bad5f0ae" x="295.2" y="335.920605" style="fill-opacity: 0; stroke: #000000"/>
     <use xlink:href="#m17bad5f0ae" x="295.2" y="348.266864" style="fill-opacity: 0; stroke: #000000"/>
     <use xlink:href="#m17bad5f0ae" x="295.2" y="336.303579" style="fill-opacity: 0; stroke: #000000"/>
     <use xlink:href="#m17bad5f0ae" x="295.2" y="332.165592" style="fill-opacity: 0; stroke: #000000"/>
     <use xlink:href="#m17bad5f0ae" x="295.2" y="351.319349" style="fill-opacity: 0; stroke: #000000"/>
     <use xlink:href="#m17bad5f0ae" x="295.2" y="343.331172" style="fill-opacity: 0; stroke: #000000"/>
     <use xlink:href="#m17bad5f0ae" x="295.2" y="351.342369" style="fill-opacity: 0; stroke: #000000"/>
     <use xlink:href="#m17bad5f0ae" x="295.2" y="349.578205" style="fill-opacity: 0; stroke: #000000"/>
     <use xlink:href="#m17bad5f0ae" x="295.2" y="294.60528" style="fill-opacity: 0; stroke: #000000"/>
     <use xlink:href="#m17bad5f0ae" x="295.2" y="338.64742" style="fill-opacity: 0; stroke: #000000"/>
     <use xlink:href="#m17bad5f0ae" x="295.2" y="348.37939" style="fill-opacity: 0; stroke: #000000"/>
     <use xlink:href="#m17bad5f0ae" x="295.2" y="348.726705" style="fill-opacity: 0; stroke: #000000"/>
     <use xlink:href="#m17bad5f0ae" x="295.2" y="350.395539" style="fill-opacity: 0; stroke: #000000"/>
     <use xlink:href="#m17bad5f0ae" x="295.2" y="346.621" style="fill-opacity: 0; stroke: #000000"/>
     <use xlink:href="#m17bad5f0ae" x="295.2" y="327.397336" style="fill-opacity: 0; stroke: #000000"/>
     <use xlink:href="#m17bad5f0ae" x="295.2" y="348.766747" style="fill-opacity: 0; stroke: #000000"/>
     <use xlink:href="#m17bad5f0ae" x="295.2" y="308.028784" style="fill-opacity: 0; stroke: #000000"/>
     <use xlink:href="#m17bad5f0ae" x="295.2" y="346.918071" style="fill-opacity: 0; stroke: #000000"/>
     <use xlink:href="#m17bad5f0ae" x="295.2" y="351.064001" style="fill-opacity: 0; stroke: #000000"/>
     <use xlink:href="#m17bad5f0ae" x="295.2" y="351.528531" style="fill-opacity: 0; stroke: #000000"/>
     <use xlink:href="#m17bad5f0ae" x="295.2" y="350.85795" style="fill-opacity: 0; stroke: #000000"/>
     <use xlink:href="#m17bad5f0ae" x="295.2" y="333.393099" style="fill-opacity: 0; stroke: #000000"/>
     <use xlink:href="#m17bad5f0ae" x="295.2" y="336.198129" style="fill-opacity: 0; stroke: #000000"/>
     <use xlink:href="#m17bad5f0ae" x="295.2" y="351.375444" style="fill-opacity: 0; stroke: #000000"/>
     <use xlink:href="#m17bad5f0ae" x="295.2" y="350.431147" style="fill-opacity: 0; stroke: #000000"/>
     <use xlink:href="#m17bad5f0ae" x="295.2" y="349.255186" style="fill-opacity: 0; stroke: #000000"/>
     <use xlink:href="#m17bad5f0ae" x="295.2" y="347.327299" style="fill-opacity: 0; stroke: #000000"/>
     <use xlink:href="#m17bad5f0ae" x="295.2" y="347.160569" style="fill-opacity: 0; stroke: #000000"/>
     <use xlink:href="#m17bad5f0ae" x="295.2" y="351.284279" style="fill-opacity: 0; stroke: #000000"/>
     <use xlink:href="#m17bad5f0ae" x="295.2" y="349.359304" style="fill-opacity: 0; stroke: #000000"/>
     <use xlink:href="#m17bad5f0ae" x="295.2" y="350.508903" style="fill-opacity: 0; stroke: #000000"/>
     <use xlink:href="#m17bad5f0ae" x="295.2" y="350.693826" style="fill-opacity: 0; stroke: #000000"/>
     <use xlink:href="#m17bad5f0ae" x="295.2" y="349.708038" style="fill-opacity: 0; stroke: #000000"/>
     <use xlink:href="#m17bad5f0ae" x="295.2" y="347.251575" style="fill-opacity: 0; stroke: #000000"/>
     <use xlink:href="#m17bad5f0ae" x="295.2" y="344.885397" style="fill-opacity: 0; stroke: #000000"/>
     <use xlink:href="#m17bad5f0ae" x="295.2" y="335.566279" style="fill-opacity: 0; stroke: #000000"/>
     <use xlink:href="#m17bad5f0ae" x="295.2" y="350.151643" style="fill-opacity: 0; stroke: #000000"/>
     <use xlink:href="#m17bad5f0ae" x="295.2" y="347.207339" style="fill-opacity: 0; stroke: #000000"/>
     <use xlink:href="#m17bad5f0ae" x="295.2" y="351.340578" style="fill-opacity: 0; stroke: #000000"/>
     <use xlink:href="#m17bad5f0ae" x="295.2" y="310.92166" style="fill-opacity: 0; stroke: #000000"/>
     <use xlink:href="#m17bad5f0ae" x="295.2" y="316.881443" style="fill-opacity: 0; stroke: #000000"/>
     <use xlink:href="#m17bad5f0ae" x="295.2" y="350.855474" style="fill-opacity: 0; stroke: #000000"/>
     <use xlink:href="#m17bad5f0ae" x="295.2" y="349.687543" style="fill-opacity: 0; stroke: #000000"/>
     <use xlink:href="#m17bad5f0ae" x="295.2" y="346.448802" style="fill-opacity: 0; stroke: #000000"/>
     <use xlink:href="#m17bad5f0ae" x="295.2" y="343.070255" style="fill-opacity: 0; stroke: #000000"/>
     <use xlink:href="#m17bad5f0ae" x="295.2" y="350.630479" style="fill-opacity: 0; stroke: #000000"/>
     <use xlink:href="#m17bad5f0ae" x="295.2" y="350.544555" style="fill-opacity: 0; stroke: #000000"/>
     <use xlink:href="#m17bad5f0ae" x="295.2" y="341.059873" style="fill-opacity: 0; stroke: #000000"/>
     <use xlink:href="#m17bad5f0ae" x="295.2" y="350.754261" style="fill-opacity: 0; stroke: #000000"/>
     <use xlink:href="#m17bad5f0ae" x="295.2" y="351.130705" style="fill-opacity: 0; stroke: #000000"/>
     <use xlink:href="#m17bad5f0ae" x="295.2" y="349.652597" style="fill-opacity: 0; stroke: #000000"/>
     <use xlink:href="#m17bad5f0ae" x="295.2" y="349.980982" style="fill-opacity: 0; stroke: #000000"/>
     <use xlink:href="#m17bad5f0ae" x="295.2" y="333.779262" style="fill-opacity: 0; stroke: #000000"/>
     <use xlink:href="#m17bad5f0ae" x="295.2" y="350.921734" style="fill-opacity: 0; stroke: #000000"/>
     <use xlink:href="#m17bad5f0ae" x="295.2" y="349.268866" style="fill-opacity: 0; stroke: #000000"/>
     <use xlink:href="#m17bad5f0ae" x="295.2" y="329.266921" style="fill-opacity: 0; stroke: #000000"/>
     <use xlink:href="#m17bad5f0ae" x="295.2" y="349.763835" style="fill-opacity: 0; stroke: #000000"/>
     <use xlink:href="#m17bad5f0ae" x="295.2" y="344.04406" style="fill-opacity: 0; stroke: #000000"/>
     <use xlink:href="#m17bad5f0ae" x="295.2" y="349.682396" style="fill-opacity: 0; stroke: #000000"/>
     <use xlink:href="#m17bad5f0ae" x="295.2" y="347.764599" style="fill-opacity: 0; stroke: #000000"/>
     <use xlink:href="#m17bad5f0ae" x="295.2" y="338.623431" style="fill-opacity: 0; stroke: #000000"/>
     <use xlink:href="#m17bad5f0ae" x="295.2" y="350.47309" style="fill-opacity: 0; stroke: #000000"/>
     <use xlink:href="#m17bad5f0ae" x="295.2" y="349.169087" style="fill-opacity: 0; stroke: #000000"/>
     <use xlink:href="#m17bad5f0ae" x="295.2" y="342.097607" style="fill-opacity: 0; stroke: #000000"/>
     <use xlink:href="#m17bad5f0ae" x="295.2" y="351.051712" style="fill-opacity: 0; stroke: #000000"/>
     <use xlink:href="#m17bad5f0ae" x="295.2" y="345.002699" style="fill-opacity: 0; stroke: #000000"/>
     <use xlink:href="#m17bad5f0ae" x="295.2" y="348.525225" style="fill-opacity: 0; stroke: #000000"/>
     <use xlink:href="#m17bad5f0ae" x="295.2" y="346.351135" style="fill-opacity: 0; stroke: #000000"/>
     <use xlink:href="#m17bad5f0ae" x="295.2" y="321.250089" style="fill-opacity: 0; stroke: #000000"/>
     <use xlink:href="#m17bad5f0ae" x="295.2" y="351.049222" style="fill-opacity: 0; stroke: #000000"/>
     <use xlink:href="#m17bad5f0ae" x="295.2" y="345.055017" style="fill-opacity: 0; stroke: #000000"/>
     <use xlink:href="#m17bad5f0ae" x="295.2" y="349.820237" style="fill-opacity: 0; stroke: #000000"/>
     <use xlink:href="#m17bad5f0ae" x="295.2" y="348.827153" style="fill-opacity: 0; stroke: #000000"/>
     <use xlink:href="#m17bad5f0ae" x="295.2" y="350.945104" style="fill-opacity: 0; stroke: #000000"/>
     <use xlink:href="#m17bad5f0ae" x="295.2" y="347.221761" style="fill-opacity: 0; stroke: #000000"/>
     <use xlink:href="#m17bad5f0ae" x="295.2" y="347.242146" style="fill-opacity: 0; stroke: #000000"/>
     <use xlink:href="#m17bad5f0ae" x="295.2" y="350.988794" style="fill-opacity: 0; stroke: #000000"/>
     <use xlink:href="#m17bad5f0ae" x="295.2" y="330.641428" style="fill-opacity: 0; stroke: #000000"/>
     <use xlink:href="#m17bad5f0ae" x="295.2" y="338.499474" style="fill-opacity: 0; stroke: #000000"/>
     <use xlink:href="#m17bad5f0ae" x="295.2" y="348.592708" style="fill-opacity: 0; stroke: #000000"/>
     <use xlink:href="#m17bad5f0ae" x="295.2" y="342.949436" style="fill-opacity: 0; stroke: #000000"/>
     <use xlink:href="#m17bad5f0ae" x="295.2" y="342.200983" style="fill-opacity: 0; stroke: #000000"/>
     <use xlink:href="#m17bad5f0ae" x="295.2" y="343.437248" style="fill-opacity: 0; stroke: #000000"/>
     <use xlink:href="#m17bad5f0ae" x="295.2" y="337.570793" style="fill-opacity: 0; stroke: #000000"/>
     <use xlink:href="#m17bad5f0ae" x="295.2" y="350.929946" style="fill-opacity: 0; stroke: #000000"/>
     <use xlink:href="#m17bad5f0ae" x="295.2" y="351.409037" style="fill-opacity: 0; stroke: #000000"/>
     <use xlink:href="#m17bad5f0ae" x="295.2" y="329.756838" style="fill-opacity: 0; stroke: #000000"/>
     <use xlink:href="#m17bad5f0ae" x="295.2" y="346.273751" style="fill-opacity: 0; stroke: #000000"/>
     <use xlink:href="#m17bad5f0ae" x="295.2" y="344.698879" style="fill-opacity: 0; stroke: #000000"/>
     <use xlink:href="#m17bad5f0ae" x="295.2" y="347.375364" style="fill-opacity: 0; stroke: #000000"/>
     <use xlink:href="#m17bad5f0ae" x="295.2" y="348.387421" style="fill-opacity: 0; stroke: #000000"/>
     <use xlink:href="#m17bad5f0ae" x="295.2" y="351.498586" style="fill-opacity: 0; stroke: #000000"/>
     <use xlink:href="#m17bad5f0ae" x="295.2" y="350.21277" style="fill-opacity: 0; stroke: #000000"/>
     <use xlink:href="#m17bad5f0ae" x="295.2" y="350.281956" style="fill-opacity: 0; stroke: #000000"/>
     <use xlink:href="#m17bad5f0ae" x="295.2" y="350.154534" style="fill-opacity: 0; stroke: #000000"/>
     <use xlink:href="#m17bad5f0ae" x="295.2" y="349.955042" style="fill-opacity: 0; stroke: #000000"/>
     <use xlink:href="#m17bad5f0ae" x="295.2" y="326.127297" style="fill-opacity: 0; stroke: #000000"/>
     <use xlink:href="#m17bad5f0ae" x="295.2" y="346.331296" style="fill-opacity: 0; stroke: #000000"/>
     <use xlink:href="#m17bad5f0ae" x="295.2" y="298.145927" style="fill-opacity: 0; stroke: #000000"/>
     <use xlink:href="#m17bad5f0ae" x="295.2" y="290.836805" style="fill-opacity: 0; stroke: #000000"/>
     <use xlink:href="#m17bad5f0ae" x="295.2" y="263.673162" style="fill-opacity: 0; stroke: #000000"/>
     <use xlink:href="#m17bad5f0ae" x="295.2" y="288.626378" style="fill-opacity: 0; stroke: #000000"/>
     <use xlink:href="#m17bad5f0ae" x="295.2" y="67.031785" style="fill-opacity: 0; stroke: #000000"/>
     <use xlink:href="#m17bad5f0ae" x="295.2" y="287.628191" style="fill-opacity: 0; stroke: #000000"/>
     <use xlink:href="#m17bad5f0ae" x="295.2" y="288.670068" style="fill-opacity: 0; stroke: #000000"/>
     <use xlink:href="#m17bad5f0ae" x="295.2" y="316.313516" style="fill-opacity: 0; stroke: #000000"/>
     <use xlink:href="#m17bad5f0ae" x="295.2" y="292.958411" style="fill-opacity: 0; stroke: #000000"/>
     <use xlink:href="#m17bad5f0ae" x="295.2" y="312.73504" style="fill-opacity: 0; stroke: #000000"/>
     <use xlink:href="#m17bad5f0ae" x="295.2" y="289.549577" style="fill-opacity: 0; stroke: #000000"/>
     <use xlink:href="#m17bad5f0ae" x="295.2" y="219.203964" style="fill-opacity: 0; stroke: #000000"/>
     <use xlink:href="#m17bad5f0ae" x="295.2" y="232.548804" style="fill-opacity: 0; stroke: #000000"/>
     <use xlink:href="#m17bad5f0ae" x="295.2" y="304.917728" style="fill-opacity: 0; stroke: #000000"/>
     <use xlink:href="#m17bad5f0ae" x="295.2" y="221.127541" style="fill-opacity: 0; stroke: #000000"/>
     <use xlink:href="#m17bad5f0ae" x="295.2" y="137.656967" style="fill-opacity: 0; stroke: #000000"/>
     <use xlink:href="#m17bad5f0ae" x="295.2" y="321.922577" style="fill-opacity: 0; stroke: #000000"/>
     <use xlink:href="#m17bad5f0ae" x="295.2" y="260.80164" style="fill-opacity: 0; stroke: #000000"/>
     <use xlink:href="#m17bad5f0ae" x="295.2" y="300.956285" style="fill-opacity: 0; stroke: #000000"/>
     <use xlink:href="#m17bad5f0ae" x="295.2" y="278.578982" style="fill-opacity: 0; stroke: #000000"/>
     <use xlink:href="#m17bad5f0ae" x="295.2" y="337.899397" style="fill-opacity: 0; stroke: #000000"/>
     <use xlink:href="#m17bad5f0ae" x="295.2" y="296.718178" style="fill-opacity: 0; stroke: #000000"/>
     <use xlink:href="#m17bad5f0ae" x="295.2" y="232.234273" style="fill-opacity: 0; stroke: #000000"/>
     <use xlink:href="#m17bad5f0ae" x="295.2" y="120.969553" style="fill-opacity: 0; stroke: #000000"/>
     <use xlink:href="#m17bad5f0ae" x="295.2" y="276.087522" style="fill-opacity: 0; stroke: #000000"/>
     <use xlink:href="#m17bad5f0ae" x="295.2" y="266.445662" style="fill-opacity: 0; stroke: #000000"/>
     <use xlink:href="#m17bad5f0ae" x="295.2" y="236.324587" style="fill-opacity: 0; stroke: #000000"/>
     <use xlink:href="#m17bad5f0ae" x="295.2" y="235.603793" style="fill-opacity: 0; stroke: #000000"/>
     <use xlink:href="#m17bad5f0ae" x="295.2" y="274.857081" style="fill-opacity: 0; stroke: #000000"/>
     <use xlink:href="#m17bad5f0ae" x="295.2" y="283.918667" style="fill-opacity: 0; stroke: #000000"/>
     <use xlink:href="#m17bad5f0ae" x="295.2" y="282.12324" style="fill-opacity: 0; stroke: #000000"/>
     <use xlink:href="#m17bad5f0ae" x="295.2" y="247.493079" style="fill-opacity: 0; stroke: #000000"/>
     <use xlink:href="#m17bad5f0ae" x="295.2" y="272.618741" style="fill-opacity: 0; stroke: #000000"/>
     <use xlink:href="#m17bad5f0ae" x="295.2" y="187.216966" style="fill-opacity: 0; stroke: #000000"/>
     <use xlink:href="#m17bad5f0ae" x="295.2" y="315.751013" style="fill-opacity: 0; stroke: #000000"/>
     <use xlink:href="#m17bad5f0ae" x="295.2" y="239.939364" style="fill-opacity: 0; stroke: #000000"/>
     <use xlink:href="#m17bad5f0ae" x="295.2" y="228.965901" style="fill-opacity: 0; stroke: #000000"/>
     <use xlink:href="#m17bad5f0ae" x="295.2" y="255.402096" style="fill-opacity: 0; stroke: #000000"/>
     <use xlink:href="#m17bad5f0ae" x="295.2" y="290.43314" style="fill-opacity: 0; stroke: #000000"/>
     <use xlink:href="#m17bad5f0ae" x="295.2" y="286.974806" style="fill-opacity: 0; stroke: #000000"/>
     <use xlink:href="#m17bad5f0ae" x="295.2" y="302.404041" style="fill-opacity: 0; stroke: #000000"/>
     <use xlink:href="#m17bad5f0ae" x="295.2" y="292.654474" style="fill-opacity: 0; stroke: #000000"/>
     <use xlink:href="#m17bad5f0ae" x="295.2" y="304.154328" style="fill-opacity: 0; stroke: #000000"/>
     <use xlink:href="#m17bad5f0ae" x="295.2" y="283.73126" style="fill-opacity: 0; stroke: #000000"/>
     <use xlink:href="#m17bad5f0ae" x="295.2" y="309.191109" style="fill-opacity: 0; stroke: #000000"/>
     <use xlink:href="#m17bad5f0ae" x="295.2" y="325.845689" style="fill-opacity: 0; stroke: #000000"/>
     <use xlink:href="#m17bad5f0ae" x="295.2" y="277.481512" style="fill-opacity: 0; stroke: #000000"/>
     <use xlink:href="#m17bad5f0ae" x="295.2" y="325.76414" style="fill-opacity: 0; stroke: #000000"/>
     <use xlink:href="#m17bad5f0ae" x="295.2" y="339.533379" style="fill-opacity: 0; stroke: #000000"/>
     <use xlink:href="#m17bad5f0ae" x="295.2" y="331.202089" style="fill-opacity: 0; stroke: #000000"/>
     <use xlink:href="#m17bad5f0ae" x="295.2" y="331.51734" style="fill-opacity: 0; stroke: #000000"/>
     <use xlink:href="#m17bad5f0ae" x="295.2" y="349.403088" style="fill-opacity: 0; stroke: #000000"/>
     <use xlink:href="#m17bad5f0ae" x="295.2" y="327.495491" style="fill-opacity: 0; stroke: #000000"/>
     <use xlink:href="#m17bad5f0ae" x="295.2" y="327.740122" style="fill-opacity: 0; stroke: #000000"/>
     <use xlink:href="#m17bad5f0ae" x="295.2" y="348.369314" style="fill-opacity: 0; stroke: #000000"/>
     <use xlink:href="#m17bad5f0ae" x="295.2" y="351.612132" style="fill-opacity: 0; stroke: #000000"/>
     <use xlink:href="#m17bad5f0ae" x="295.2" y="345.687841" style="fill-opacity: 0; stroke: #000000"/>
     <use xlink:href="#m17bad5f0ae" x="295.2" y="342.271021" style="fill-opacity: 0; stroke: #000000"/>
     <use xlink:href="#m17bad5f0ae" x="295.2" y="349.893893" style="fill-opacity: 0; stroke: #000000"/>
     <use xlink:href="#m17bad5f0ae" x="295.2" y="341.783215" style="fill-opacity: 0; stroke: #000000"/>
     <use xlink:href="#m17bad5f0ae" x="295.2" y="337.850064" style="fill-opacity: 0; stroke: #000000"/>
     <use xlink:href="#m17bad5f0ae" x="295.2" y="350.295243" style="fill-opacity: 0; stroke: #000000"/>
     <use xlink:href="#m17bad5f0ae" x="295.2" y="349.246646" style="fill-opacity: 0; stroke: #000000"/>
     <use xlink:href="#m17bad5f0ae" x="295.2" y="325.590749" style="fill-opacity: 0; stroke: #000000"/>
     <use xlink:href="#m17bad5f0ae" x="295.2" y="350.326549" style="fill-opacity: 0; stroke: #000000"/>
     <use xlink:href="#m17bad5f0ae" x="295.2" y="345.78339" style="fill-opacity: 0; stroke: #000000"/>
     <use xlink:href="#m17bad5f0ae" x="295.2" y="346.488277" style="fill-opacity: 0; stroke: #000000"/>
     <use xlink:href="#m17bad5f0ae" x="295.2" y="343.314223" style="fill-opacity: 0; stroke: #000000"/>
     <use xlink:href="#m17bad5f0ae" x="295.2" y="347.961325" style="fill-opacity: 0; stroke: #000000"/>
     <use xlink:href="#m17bad5f0ae" x="295.2" y="343.986202" style="fill-opacity: 0; stroke: #000000"/>
     <use xlink:href="#m17bad5f0ae" x="295.2" y="349.5288" style="fill-opacity: 0; stroke: #000000"/>
     <use xlink:href="#m17bad5f0ae" x="295.2" y="347.263864" style="fill-opacity: 0; stroke: #000000"/>
     <use xlink:href="#m17bad5f0ae" x="295.2" y="350.462883" style="fill-opacity: 0; stroke: #000000"/>
     <use xlink:href="#m17bad5f0ae" x="295.2" y="348.176833" style="fill-opacity: 0; stroke: #000000"/>
     <use xlink:href="#m17bad5f0ae" x="295.2" y="335.107865" style="fill-opacity: 0; stroke: #000000"/>
     <use xlink:href="#m17bad5f0ae" x="295.2" y="347.048625" style="fill-opacity: 0; stroke: #000000"/>
     <use xlink:href="#m17bad5f0ae" x="295.2" y="351.420838" style="fill-opacity: 0; stroke: #000000"/>
     <use xlink:href="#m17bad5f0ae" x="295.2" y="349.238739" style="fill-opacity: 0; stroke: #000000"/>
     <use xlink:href="#m17bad5f0ae" x="295.2" y="342.404835" style="fill-opacity: 0; stroke: #000000"/>
     <use xlink:href="#m17bad5f0ae" x="295.2" y="331.63631" style="fill-opacity: 0; stroke: #000000"/>
     <use xlink:href="#m17bad5f0ae" x="295.2" y="307.060112" style="fill-opacity: 0; stroke: #000000"/>
     <use xlink:href="#m17bad5f0ae" x="295.2" y="350.78521" style="fill-opacity: 0; stroke: #000000"/>
     <use xlink:href="#m17bad5f0ae" x="295.2" y="350.659477" style="fill-opacity: 0; stroke: #000000"/>
     <use xlink:href="#m17bad5f0ae" x="295.2" y="348.986384" style="fill-opacity: 0; stroke: #000000"/>
     <use xlink:href="#m17bad5f0ae" x="295.2" y="349.745772" style="fill-opacity: 0; stroke: #000000"/>
     <use xlink:href="#m17bad5f0ae" x="295.2" y="340.624458" style="fill-opacity: 0; stroke: #000000"/>
     <use xlink:href="#m17bad5f0ae" x="295.2" y="346.931038" style="fill-opacity: 0; stroke: #000000"/>
     <use xlink:href="#m17bad5f0ae" x="295.2" y="347.597222" style="fill-opacity: 0; stroke: #000000"/>
     <use xlink:href="#m17bad5f0ae" x="295.2" y="349.83969" style="fill-opacity: 0; stroke: #000000"/>
     <use xlink:href="#m17bad5f0ae" x="295.2" y="351.217204" style="fill-opacity: 0; stroke: #000000"/>
     <use xlink:href="#m17bad5f0ae" x="295.2" y="350.379922" style="fill-opacity: 0; stroke: #000000"/>
     <use xlink:href="#m17bad5f0ae" x="295.2" y="347.945242" style="fill-opacity: 0; stroke: #000000"/>
     <use xlink:href="#m17bad5f0ae" x="295.2" y="350.148396" style="fill-opacity: 0; stroke: #000000"/>
     <use xlink:href="#m17bad5f0ae" x="295.2" y="348.855336" style="fill-opacity: 0; stroke: #000000"/>
     <use xlink:href="#m17bad5f0ae" x="295.2" y="286.945655" style="fill-opacity: 0; stroke: #000000"/>
     <use xlink:href="#m17bad5f0ae" x="295.2" y="350.913572" style="fill-opacity: 0; stroke: #000000"/>
     <use xlink:href="#m17bad5f0ae" x="295.2" y="337.588347" style="fill-opacity: 0; stroke: #000000"/>
     <use xlink:href="#m17bad5f0ae" x="295.2" y="349.659826" style="fill-opacity: 0; stroke: #000000"/>
     <use xlink:href="#m17bad5f0ae" x="295.2" y="349.297973" style="fill-opacity: 0; stroke: #000000"/>
     <use xlink:href="#m17bad5f0ae" x="295.2" y="339.217779" style="fill-opacity: 0; stroke: #000000"/>
     <use xlink:href="#m17bad5f0ae" x="295.2" y="329.43901" style="fill-opacity: 0; stroke: #000000"/>
     <use xlink:href="#m17bad5f0ae" x="295.2" y="344.955733" style="fill-opacity: 0; stroke: #000000"/>
     <use xlink:href="#m17bad5f0ae" x="295.2" y="342.989929" style="fill-opacity: 0; stroke: #000000"/>
     <use xlink:href="#m17bad5f0ae" x="295.2" y="350.33763" style="fill-opacity: 0; stroke: #000000"/>
     <use xlink:href="#m17bad5f0ae" x="295.2" y="344.10531" style="fill-opacity: 0; stroke: #000000"/>
    </g>
   </g>
   <g id="line2d_12">
    <path d="M 250.56 362.948763 
L 339.84 362.948763 
" clip-path="url(#pe26f11ba86)" style="fill: none; stroke: #ff7f0e"/>
   </g>
   <g id="patch_4">
    <path d="M 72 384.48 
L 72 51.84 
" style="fill: none; stroke: #000000; stroke-width: 0.8; stroke-linejoin: miter; stroke-linecap: square"/>
   </g>
   <g id="patch_5">
    <path d="M 518.4 384.48 
L 518.4 51.84 
" style="fill: none; stroke: #000000; stroke-width: 0.8; stroke-linejoin: miter; stroke-linecap: square"/>
   </g>
   <g id="patch_6">
    <path d="M 72 384.48 
L 518.4 384.48 
" style="fill: none; stroke: #000000; stroke-width: 0.8; stroke-linejoin: miter; stroke-linecap: square"/>
   </g>
   <g id="patch_7">
    <path d="M 72 51.84 
L 518.4 51.84 
" style="fill: none; stroke: #000000; stroke-width: 0.8; stroke-linejoin: miter; stroke-linecap: square"/>
   </g>
   <g id="text_8">
    <!-- Unregister Faultload -->
    <g transform="translate(234.737812 45.84) scale(0.12 -0.12)">
     <defs>
      <path id="DejaVuSans-55" d="M 556 4666 
L 1191 4666 
L 1191 1831 
Q 1191 1081 1462 751 
Q 1734 422 2344 422 
Q 2950 422 3222 751 
Q 3494 1081 3494 1831 
L 3494 4666 
L 4128 4666 
L 4128 1753 
Q 4128 841 3676 375 
Q 3225 -91 2344 -91 
Q 1459 -91 1007 375 
Q 556 841 556 1753 
L 556 4666 
z
" transform="scale(0.015625)"/>
      <path id="DejaVuSans-6e" d="M 3513 2113 
L 3513 0 
L 2938 0 
L 2938 2094 
Q 2938 2591 2744 2837 
Q 2550 3084 2163 3084 
Q 1697 3084 1428 2787 
Q 1159 2491 1159 1978 
L 1159 0 
L 581 0 
L 581 3500 
L 1159 3500 
L 1159 2956 
Q 1366 3272 1645 3428 
Q 1925 3584 2291 3584 
Q 2894 3584 3203 3211 
Q 3513 2838 3513 2113 
z
" transform="scale(0.015625)"/>
      <path id="DejaVuSans-72" d="M 2631 2963 
Q 2534 3019 2420 3045 
Q 2306 3072 2169 3072 
Q 1681 3072 1420 2755 
Q 1159 2438 1159 1844 
L 1159 0 
L 581 0 
L 581 3500 
L 1159 3500 
L 1159 2956 
Q 1341 3275 1631 3429 
Q 1922 3584 2338 3584 
Q 2397 3584 2469 3576 
Q 2541 3569 2628 3553 
L 2631 2963 
z
" transform="scale(0.015625)"/>
      <path id="DejaVuSans-67" d="M 2906 1791 
Q 2906 2416 2648 2759 
Q 2391 3103 1925 3103 
Q 1463 3103 1205 2759 
Q 947 2416 947 1791 
Q 947 1169 1205 825 
Q 1463 481 1925 481 
Q 2391 481 2648 825 
Q 2906 1169 2906 1791 
z
M 3481 434 
Q 3481 -459 3084 -895 
Q 2688 -1331 1869 -1331 
Q 1566 -1331 1297 -1286 
Q 1028 -1241 775 -1147 
L 775 -588 
Q 1028 -725 1275 -790 
Q 1522 -856 1778 -856 
Q 2344 -856 2625 -561 
Q 2906 -266 2906 331 
L 2906 616 
Q 2728 306 2450 153 
Q 2172 0 1784 0 
Q 1141 0 747 490 
Q 353 981 353 1791 
Q 353 2603 747 3093 
Q 1141 3584 1784 3584 
Q 2172 3584 2450 3431 
Q 2728 3278 2906 2969 
L 2906 3500 
L 3481 3500 
L 3481 434 
z
" transform="scale(0.015625)"/>
      <path id="DejaVuSans-74" d="M 1172 4494 
L 1172 3500 
L 2356 3500 
L 2356 3053 
L 1172 3053 
L 1172 1153 
Q 1172 725 1289 603 
Q 1406 481 1766 481 
L 2356 481 
L 2356 0 
L 1766 0 
Q 1100 0 847 248 
Q 594 497 594 1153 
L 594 3053 
L 172 3053 
L 172 3500 
L 594 3500 
L 594 4494 
L 1172 4494 
z
" transform="scale(0.015625)"/>
      <path id="DejaVuSans-46" d="M 628 4666 
L 3309 4666 
L 3309 4134 
L 1259 4134 
L 1259 2759 
L 3109 2759 
L 3109 2228 
L 1259 2228 
L 1259 0 
L 628 0 
L 628 4666 
z
" transform="scale(0.015625)"/>
      <path id="DejaVuSans-61" d="M 2194 1759 
Q 1497 1759 1228 1600 
Q 959 1441 959 1056 
Q 959 750 1161 570 
Q 1363 391 1709 391 
Q 2188 391 2477 730 
Q 2766 1069 2766 1631 
L 2766 1759 
L 2194 1759 
z
M 3341 1997 
L 3341 0 
L 2766 0 
L 2766 531 
Q 2569 213 2275 61 
Q 1981 -91 1556 -91 
Q 1019 -91 701 211 
Q 384 513 384 1019 
Q 384 1609 779 1909 
Q 1175 2209 1959 2209 
L 2766 2209 
L 2766 2266 
Q 2766 2663 2505 2880 
Q 2244 3097 1772 3097 
Q 1472 3097 1187 3025 
Q 903 2953 641 2809 
L 641 3341 
Q 956 3463 1253 3523 
Q 1550 3584 1831 3584 
Q 2591 3584 2966 3190 
Q 3341 2797 3341 1997 
z
" transform="scale(0.015625)"/>
      <path id="DejaVuSans-75" d="M 544 1381 
L 544 3500 
L 1119 3500 
L 1119 1403 
Q 1119 906 1312 657 
Q 1506 409 1894 409 
Q 2359 409 2629 706 
Q 2900 1003 2900 1516 
L 2900 3500 
L 3475 3500 
L 3475 0 
L 2900 0 
L 2900 538 
Q 2691 219 2414 64 
Q 2138 -91 1772 -91 
Q 1169 -91 856 284 
Q 544 659 544 1381 
z
M 1991 3584 
L 1991 3584 
z
" transform="scale(0.015625)"/>
      <path id="DejaVuSans-6c" d="M 603 4863 
L 1178 4863 
L 1178 0 
L 603 0 
L 603 4863 
z
" transform="scale(0.015625)"/>
      <path id="DejaVuSans-6f" d="M 1959 3097 
Q 1497 3097 1228 2736 
Q 959 2375 959 1747 
Q 959 1119 1226 758 
Q 1494 397 1959 397 
Q 2419 397 2687 759 
Q 2956 1122 2956 1747 
Q 2956 2369 2687 2733 
Q 2419 3097 1959 3097 
z
M 1959 3584 
Q 2709 3584 3137 3096 
Q 3566 2609 3566 1747 
Q 3566 888 3137 398 
Q 2709 -91 1959 -91 
Q 1206 -91 779 398 
Q 353 888 353 1747 
Q 353 2609 779 3096 
Q 1206 3584 1959 3584 
z
" transform="scale(0.015625)"/>
      <path id="DejaVuSans-64" d="M 2906 2969 
L 2906 4863 
L 3481 4863 
L 3481 0 
L 2906 0 
L 2906 525 
Q 2725 213 2448 61 
Q 2172 -91 1784 -91 
Q 1150 -91 751 415 
Q 353 922 353 1747 
Q 353 2572 751 3078 
Q 1150 3584 1784 3584 
Q 2172 3584 2448 3432 
Q 2725 3281 2906 2969 
z
M 947 1747 
Q 947 1113 1208 752 
Q 1469 391 1925 391 
Q 2381 391 2643 752 
Q 2906 1113 2906 1747 
Q 2906 2381 2643 2742 
Q 2381 3103 1925 3103 
Q 1469 3103 1208 2742 
Q 947 2381 947 1747 
z
" transform="scale(0.015625)"/>
     </defs>
     <use xlink:href="#DejaVuSans-55"/>
     <use xlink:href="#DejaVuSans-6e" transform="translate(73.193359 0)"/>
     <use xlink:href="#DejaVuSans-72" transform="translate(136.572266 0)"/>
     <use xlink:href="#DejaVuSans-65" transform="translate(175.435547 0)"/>
     <use xlink:href="#DejaVuSans-67" transform="translate(236.958984 0)"/>
     <use xlink:href="#DejaVuSans-69" transform="translate(300.435547 0)"/>
     <use xlink:href="#DejaVuSans-73" transform="translate(328.21875 0)"/>
     <use xlink:href="#DejaVuSans-74" transform="translate(380.318359 0)"/>
     <use xlink:href="#DejaVuSans-65" transform="translate(419.527344 0)"/>
     <use xlink:href="#DejaVuSans-72" transform="translate(481.050781 0)"/>
     <use xlink:href="#DejaVuSans-20" transform="translate(522.164062 0)"/>
     <use xlink:href="#DejaVuSans-46" transform="translate(553.951172 0)"/>
     <use xlink:href="#DejaVuSans-61" transform="translate(602.345703 0)"/>
     <use xlink:href="#DejaVuSans-75" transform="translate(663.625 0)"/>
     <use xlink:href="#DejaVuSans-6c" transform="translate(727.003906 0)"/>
     <use xlink:href="#DejaVuSans-74" transform="translate(754.787109 0)"/>
     <use xlink:href="#DejaVuSans-6c" transform="translate(793.996094 0)"/>
     <use xlink:href="#DejaVuSans-6f" transform="translate(821.779297 0)"/>
     <use xlink:href="#DejaVuSans-61" transform="translate(882.960938 0)"/>
     <use xlink:href="#DejaVuSans-64" transform="translate(944.240234 0)"/>
    </g>
   </g>
  </g>
 </g>
 <defs>
  <clipPath id="pe26f11ba86">
   <rect x="72" y="51.84" width="446.4" height="332.64"/>
  </clipPath>
 </defs>
</svg>
