<?xml version="1.0" encoding="utf-8" standalone="no"?>
<!DOCTYPE svg PUBLIC "-//W3C//DTD SVG 1.1//EN"
  "http://www.w3.org/Graphics/SVG/1.1/DTD/svg11.dtd">
<svg xmlns:xlink="http://www.w3.org/1999/xlink" width="576pt" height="432pt" viewBox="0 0 576 432" xmlns="http://www.w3.org/2000/svg" version="1.1">
 <metadata>
  <rdf:RDF xmlns:dc="http://purl.org/dc/elements/1.1/" xmlns:cc="http://creativecommons.org/ns#" xmlns:rdf="http://www.w3.org/1999/02/22-rdf-syntax-ns#">
   <cc:Work>
    <dc:type rdf:resource="http://purl.org/dc/dcmitype/StillImage"/>
    <dc:date>2025-06-10T03:16:26.538015</dc:date>
    <dc:format>image/svg+xml</dc:format>
    <dc:creator>
     <cc:Agent>
      <dc:title>Matplotlib v3.10.3, https://matplotlib.org/</dc:title>
     </cc:Agent>
    </dc:creator>
   </cc:Work>
  </rdf:RDF>
 </metadata>
 <defs>
  <style type="text/css">*{stroke-linejoin: round; stroke-linecap: butt}</style>
 </defs>
 <g id="figure_1">
  <g id="patch_1">
   <path d="M 0 432 
L 576 432 
L 576 0 
L 0 0 
z
" style="fill: #ffffff"/>
  </g>
  <g id="axes_1">
   <g id="patch_2">
    <path d="M 72 384.48 
L 518.4 384.48 
L 518.4 51.84 
L 72 51.84 
z
" style="fill: #ffffff"/>
   </g>
   <g id="FillBetweenPolyCollection_1">
    <path d="M 358.365538 354.226902 
L 232.034462 354.226902 
L 216.337571 351.317937 
L 202.330525 348.408972 
L 191.645293 345.500007 
L 185.32886 342.591042 
L 183.6 339.682078 
L 185.873383 336.773113 
L 191.022783 333.864148 
L 197.758611 330.955183 
L 204.966486 328.046218 
L 211.897919 325.137253 
L 218.187677 322.228288 
L 223.748313 319.319323 
L 228.627283 316.410358 
L 232.899559 313.501393 
L 236.626388 310.592429 
L 239.866669 307.683464 
L 242.70409 304.774499 
L 245.257204 301.865534 
L 247.661468 298.956569 
L 250.034495 296.047604 
L 252.445264 293.138639 
L 254.902664 290.229674 
L 257.366045 287.320709 
L 259.76981 284.411744 
L 262.050434 281.502779 
L 264.16638 278.593815 
L 266.105585 275.68485 
L 267.87953 272.775885 
L 269.507678 269.86692 
L 271.000884 266.957955 
L 272.354616 264.04899 
L 273.558673 261.140025 
L 274.619658 258.23106 
L 275.581724 255.322095 
L 276.528636 252.41313 
L 277.559871 249.504165 
L 278.750129 246.595201 
L 280.113902 243.686236 
L 281.595553 240.777271 
L 283.091104 237.868306 
L 284.490058 234.959341 
L 285.715662 232.050376 
L 286.74535 229.141411 
L 287.605779 226.232446 
L 288.350072 223.323481 
L 289.031038 220.414516 
L 289.68209 217.505551 
L 290.310786 214.596587 
L 290.903446 211.687622 
L 291.4359 208.778657 
L 291.885099 205.869692 
L 292.237816 202.960727 
L 292.494664 200.051762 
L 292.669485 197.142797 
L 292.785372 194.233832 
L 292.869044 191.324867 
L 292.945165 188.415902 
L 293.031783 185.506937 
L 293.137724 182.597973 
L 293.262307 179.689008 
L 293.397286 176.780043 
L 293.530298 173.871078 
L 293.648831 170.962113 
L 293.743729 168.053148 
L 293.811449 165.144183 
L 293.854578 162.235218 
L 293.880416 159.326253 
L 293.898102 156.417288 
L 293.915466 153.508324 
L 293.937067 150.599359 
L 293.964288 147.690394 
L 293.997102 144.781429 
L 294.03608 141.872464 
L 294.083259 138.963499 
L 294.141455 136.054534 
L 294.212799 133.145569 
L 294.297651 130.236604 
L 294.394486 127.327639 
L 294.500406 124.418674 
L 294.611626 121.50971 
L 294.723596 118.600745 
L 294.831062 115.69178 
L 294.928564 112.782815 
L 295.011447 109.87385 
L 295.076933 106.964885 
L 295.124663 104.05592 
L 295.156367 101.146955 
L 295.174859 98.23799 
L 295.182809 95.329025 
L 295.18178 92.42006 
L 295.171801 89.511096 
L 295.151643 86.602131 
L 295.119772 83.693166 
L 295.07583 80.784201 
L 295.022185 77.875236 
L 294.964813 74.966271 
L 294.912798 72.057306 
L 294.876214 69.148341 
L 294.863012 66.239376 
L 295.536988 66.239376 
L 295.536988 66.239376 
L 295.523786 69.148341 
L 295.487202 72.057306 
L 295.435187 74.966271 
L 295.377815 77.875236 
L 295.32417 80.784201 
L 295.280228 83.693166 
L 295.248357 86.602131 
L 295.228199 89.511096 
L 295.21822 92.42006 
L 295.217191 95.329025 
L 295.225141 98.23799 
L 295.243633 101.146955 
L 295.275337 104.05592 
L 295.323067 106.964885 
L 295.388553 109.87385 
L 295.471436 112.782815 
L 295.568938 115.69178 
L 295.676404 118.600745 
L 295.788374 121.50971 
L 295.899594 124.418674 
L 296.005514 127.327639 
L 296.102349 130.236604 
L 296.187201 133.145569 
L 296.258545 136.054534 
L 296.316741 138.963499 
L 296.36392 141.872464 
L 296.402898 144.781429 
L 296.435712 147.690394 
L 296.462933 150.599359 
L 296.484534 153.508324 
L 296.501898 156.417288 
L 296.519584 159.326253 
L 296.545422 162.235218 
L 296.588551 165.144183 
L 296.656271 168.053148 
L 296.751169 170.962113 
L 296.869702 173.871078 
L 297.002714 176.780043 
L 297.137693 179.689008 
L 297.262276 182.597973 
L 297.368217 185.506937 
L 297.454835 188.415902 
L 297.530956 191.324867 
L 297.614628 194.233832 
L 297.730515 197.142797 
L 297.905336 200.051762 
L 298.162184 202.960727 
L 298.514901 205.869692 
L 298.9641 208.778657 
L 299.496554 211.687622 
L 300.089214 214.596587 
L 300.71791 217.505551 
L 301.368962 220.414516 
L 302.049928 223.323481 
L 302.794221 226.232446 
L 303.65465 229.141411 
L 304.684338 232.050376 
L 305.909942 234.959341 
L 307.308896 237.868306 
L 308.804447 240.777271 
L 310.286098 243.686236 
L 311.649871 246.595201 
L 312.840129 249.504165 
L 313.871364 252.41313 
L 314.818276 255.322095 
L 315.780342 258.23106 
L 316.841327 261.140025 
L 318.045384 264.04899 
L 319.399116 266.957955 
L 320.892322 269.86692 
L 322.52047 272.775885 
L 324.294415 275.68485 
L 326.23362 278.593815 
L 328.349566 281.502779 
L 330.63019 284.411744 
L 333.033955 287.320709 
L 335.497336 290.229674 
L 337.954736 293.138639 
L 340.365505 296.047604 
L 342.738532 298.956569 
L 345.142796 301.865534 
L 347.69591 304.774499 
L 350.533331 307.683464 
L 353.773612 310.592429 
L 357.500441 313.501393 
L 361.772717 316.410358 
L 366.651687 319.319323 
L 372.212323 322.228288 
L 378.502081 325.137253 
L 385.433514 328.046218 
L 392.641389 330.955183 
L 399.377217 333.864148 
L 404.526617 336.773113 
L 406.8 339.682078 
L 405.07114 342.591042 
L 398.754707 345.500007 
L 388.069475 348.408972 
L 374.062429 351.317937 
L 358.365538 354.226902 
z
" clip-path="url(#pf074339de4)" style="fill: #1f77b4; fill-opacity: 0.3"/>
   </g>
   <g id="matplotlib.axis_1">
    <g id="xtick_1">
     <g id="line2d_1">
      <defs>
       <path id="ma8221e22d9" d="M 0 0 
L 0 3.5 
" style="stroke: #000000; stroke-width: 0.8"/>
      </defs>
      <g>
       <use xlink:href="#ma8221e22d9" x="295.2" y="384.48" style="stroke: #000000; stroke-width: 0.8"/>
      </g>
     </g>
     <g id="text_1">
      <!-- 1 -->
      <g transform="translate(292.01875 399.078438) scale(0.1 -0.1)">
       <defs>
        <path id="DejaVuSans-31" d="M 794 531 
L 1825 531 
L 1825 4091 
L 703 3866 
L 703 4441 
L 1819 4666 
L 2450 4666 
L 2450 531 
L 3481 531 
L 3481 0 
L 794 0 
L 794 531 
z
" transform="scale(0.015625)"/>
       </defs>
       <use xlink:href="#DejaVuSans-31"/>
      </g>
     </g>
    </g>
   </g>
   <g id="matplotlib.axis_2">
    <g id="ytick_1">
     <g id="line2d_2">
      <defs>
       <path id="m93c1bf08a9" d="M 0 0 
L -3.5 0 
" style="stroke: #000000; stroke-width: 0.8"/>
      </defs>
      <g>
       <use xlink:href="#m93c1bf08a9" x="72" y="384.48" style="stroke: #000000; stroke-width: 0.8"/>
      </g>
     </g>
     <g id="text_2">
      <!-- 0.0 -->
      <g transform="translate(49.096875 388.279219) scale(0.1 -0.1)">
       <defs>
        <path id="DejaVuSans-30" d="M 2034 4250 
Q 1547 4250 1301 3770 
Q 1056 3291 1056 2328 
Q 1056 1369 1301 889 
Q 1547 409 2034 409 
Q 2525 409 2770 889 
Q 3016 1369 3016 2328 
Q 3016 3291 2770 3770 
Q 2525 4250 2034 4250 
z
M 2034 4750 
Q 2819 4750 3233 4129 
Q 3647 3509 3647 2328 
Q 3647 1150 3233 529 
Q 2819 -91 2034 -91 
Q 1250 -91 836 529 
Q 422 1150 422 2328 
Q 422 3509 836 4129 
Q 1250 4750 2034 4750 
z
" transform="scale(0.015625)"/>
        <path id="DejaVuSans-2e" d="M 684 794 
L 1344 794 
L 1344 0 
L 684 0 
L 684 794 
z
" transform="scale(0.015625)"/>
       </defs>
       <use xlink:href="#DejaVuSans-30"/>
       <use xlink:href="#DejaVuSans-2e" transform="translate(63.623047 0)"/>
       <use xlink:href="#DejaVuSans-30" transform="translate(95.410156 0)"/>
      </g>
     </g>
    </g>
    <g id="ytick_2">
     <g id="line2d_3">
      <g>
       <use xlink:href="#m93c1bf08a9" x="72" y="324.397983" style="stroke: #000000; stroke-width: 0.8"/>
      </g>
     </g>
     <g id="text_3">
      <!-- 0.2 -->
      <g transform="translate(49.096875 328.197202) scale(0.1 -0.1)">
       <defs>
        <path id="DejaVuSans-32" d="M 1228 531 
L 3431 531 
L 3431 0 
L 469 0 
L 469 531 
Q 828 903 1448 1529 
Q 2069 2156 2228 2338 
Q 2531 2678 2651 2914 
Q 2772 3150 2772 3378 
Q 2772 3750 2511 3984 
Q 2250 4219 1831 4219 
Q 1534 4219 1204 4116 
Q 875 4013 500 3803 
L 500 4441 
Q 881 4594 1212 4672 
Q 1544 4750 1819 4750 
Q 2544 4750 2975 4387 
Q 3406 4025 3406 3419 
Q 3406 3131 3298 2873 
Q 3191 2616 2906 2266 
Q 2828 2175 2409 1742 
Q 1991 1309 1228 531 
z
" transform="scale(0.015625)"/>
       </defs>
       <use xlink:href="#DejaVuSans-30"/>
       <use xlink:href="#DejaVuSans-2e" transform="translate(63.623047 0)"/>
       <use xlink:href="#DejaVuSans-32" transform="translate(95.410156 0)"/>
      </g>
     </g>
    </g>
    <g id="ytick_3">
     <g id="line2d_4">
      <g>
       <use xlink:href="#m93c1bf08a9" x="72" y="264.315967" style="stroke: #000000; stroke-width: 0.8"/>
      </g>
     </g>
     <g id="text_4">
      <!-- 0.4 -->
      <g transform="translate(49.096875 268.115185) scale(0.1 -0.1)">
       <defs>
        <path id="DejaVuSans-34" d="M 2419 4116 
L 825 1625 
L 2419 1625 
L 2419 4116 
z
M 2253 4666 
L 3047 4666 
L 3047 1625 
L 3713 1625 
L 3713 1100 
L 3047 1100 
L 3047 0 
L 2419 0 
L 2419 1100 
L 313 1100 
L 313 1709 
L 2253 4666 
z
" transform="scale(0.015625)"/>
       </defs>
       <use xlink:href="#DejaVuSans-30"/>
       <use xlink:href="#DejaVuSans-2e" transform="translate(63.623047 0)"/>
       <use xlink:href="#DejaVuSans-34" transform="translate(95.410156 0)"/>
      </g>
     </g>
    </g>
    <g id="ytick_4">
     <g id="line2d_5">
      <g>
       <use xlink:href="#m93c1bf08a9" x="72" y="204.23395" style="stroke: #000000; stroke-width: 0.8"/>
      </g>
     </g>
     <g id="text_5">
      <!-- 0.6 -->
      <g transform="translate(49.096875 208.033169) scale(0.1 -0.1)">
       <defs>
        <path id="DejaVuSans-36" d="M 2113 2584 
Q 1688 2584 1439 2293 
Q 1191 2003 1191 1497 
Q 1191 994 1439 701 
Q 1688 409 2113 409 
Q 2538 409 2786 701 
Q 3034 994 3034 1497 
Q 3034 2003 2786 2293 
Q 2538 2584 2113 2584 
z
M 3366 4563 
L 3366 3988 
Q 3128 4100 2886 4159 
Q 2644 4219 2406 4219 
Q 1781 4219 1451 3797 
Q 1122 3375 1075 2522 
Q 1259 2794 1537 2939 
Q 1816 3084 2150 3084 
Q 2853 3084 3261 2657 
Q 3669 2231 3669 1497 
Q 3669 778 3244 343 
Q 2819 -91 2113 -91 
Q 1303 -91 875 529 
Q 447 1150 447 2328 
Q 447 3434 972 4092 
Q 1497 4750 2381 4750 
Q 2619 4750 2861 4703 
Q 3103 4656 3366 4563 
z
" transform="scale(0.015625)"/>
       </defs>
       <use xlink:href="#DejaVuSans-30"/>
       <use xlink:href="#DejaVuSans-2e" transform="translate(63.623047 0)"/>
       <use xlink:href="#DejaVuSans-36" transform="translate(95.410156 0)"/>
      </g>
     </g>
    </g>
    <g id="ytick_5">
     <g id="line2d_6">
      <g>
       <use xlink:href="#m93c1bf08a9" x="72" y="144.151933" style="stroke: #000000; stroke-width: 0.8"/>
      </g>
     </g>
     <g id="text_6">
      <!-- 0.8 -->
      <g transform="translate(49.096875 147.951152) scale(0.1 -0.1)">
       <defs>
        <path id="DejaVuSans-38" d="M 2034 2216 
Q 1584 2216 1326 1975 
Q 1069 1734 1069 1313 
Q 1069 891 1326 650 
Q 1584 409 2034 409 
Q 2484 409 2743 651 
Q 3003 894 3003 1313 
Q 3003 1734 2745 1975 
Q 2488 2216 2034 2216 
z
M 1403 2484 
Q 997 2584 770 2862 
Q 544 3141 544 3541 
Q 544 4100 942 4425 
Q 1341 4750 2034 4750 
Q 2731 4750 3128 4425 
Q 3525 4100 3525 3541 
Q 3525 3141 3298 2862 
Q 3072 2584 2669 2484 
Q 3125 2378 3379 2068 
Q 3634 1759 3634 1313 
Q 3634 634 3220 271 
Q 2806 -91 2034 -91 
Q 1263 -91 848 271 
Q 434 634 434 1313 
Q 434 1759 690 2068 
Q 947 2378 1403 2484 
z
M 1172 3481 
Q 1172 3119 1398 2916 
Q 1625 2713 2034 2713 
Q 2441 2713 2670 2916 
Q 2900 3119 2900 3481 
Q 2900 3844 2670 4047 
Q 2441 4250 2034 4250 
Q 1625 4250 1398 4047 
Q 1172 3844 1172 3481 
z
" transform="scale(0.015625)"/>
       </defs>
       <use xlink:href="#DejaVuSans-30"/>
       <use xlink:href="#DejaVuSans-2e" transform="translate(63.623047 0)"/>
       <use xlink:href="#DejaVuSans-38" transform="translate(95.410156 0)"/>
      </g>
     </g>
    </g>
    <g id="ytick_6">
     <g id="line2d_7">
      <g>
       <use xlink:href="#m93c1bf08a9" x="72" y="84.069916" style="stroke: #000000; stroke-width: 0.8"/>
      </g>
     </g>
     <g id="text_7">
      <!-- 1.0 -->
      <g transform="translate(49.096875 87.869135) scale(0.1 -0.1)">
       <use xlink:href="#DejaVuSans-31"/>
       <use xlink:href="#DejaVuSans-2e" transform="translate(63.623047 0)"/>
       <use xlink:href="#DejaVuSans-30" transform="translate(95.410156 0)"/>
      </g>
     </g>
    </g>
    <g id="text_8">
     <!-- Time (ms) -->
     <g transform="translate(43.017187 243.359219) rotate(-90) scale(0.1 -0.1)">
      <defs>
       <path id="DejaVuSans-54" d="M -19 4666 
L 3928 4666 
L 3928 4134 
L 2272 4134 
L 2272 0 
L 1638 0 
L 1638 4134 
L -19 4134 
L -19 4666 
z
" transform="scale(0.015625)"/>
       <path id="DejaVuSans-69" d="M 603 3500 
L 1178 3500 
L 1178 0 
L 603 0 
L 603 3500 
z
M 603 4863 
L 1178 4863 
L 1178 4134 
L 603 4134 
L 603 4863 
z
" transform="scale(0.015625)"/>
       <path id="DejaVuSans-6d" d="M 3328 2828 
Q 3544 3216 3844 3400 
Q 4144 3584 4550 3584 
Q 5097 3584 5394 3201 
Q 5691 2819 5691 2113 
L 5691 0 
L 5113 0 
L 5113 2094 
Q 5113 2597 4934 2840 
Q 4756 3084 4391 3084 
Q 3944 3084 3684 2787 
Q 3425 2491 3425 1978 
L 3425 0 
L 2847 0 
L 2847 2094 
Q 2847 2600 2669 2842 
Q 2491 3084 2119 3084 
Q 1678 3084 1418 2786 
Q 1159 2488 1159 1978 
L 1159 0 
L 581 0 
L 581 3500 
L 1159 3500 
L 1159 2956 
Q 1356 3278 1631 3431 
Q 1906 3584 2284 3584 
Q 2666 3584 2933 3390 
Q 3200 3197 3328 2828 
z
" transform="scale(0.015625)"/>
       <path id="DejaVuSans-65" d="M 3597 1894 
L 3597 1613 
L 953 1613 
Q 991 1019 1311 708 
Q 1631 397 2203 397 
Q 2534 397 2845 478 
Q 3156 559 3463 722 
L 3463 178 
Q 3153 47 2828 -22 
Q 2503 -91 2169 -91 
Q 1331 -91 842 396 
Q 353 884 353 1716 
Q 353 2575 817 3079 
Q 1281 3584 2069 3584 
Q 2775 3584 3186 3129 
Q 3597 2675 3597 1894 
z
M 3022 2063 
Q 3016 2534 2758 2815 
Q 2500 3097 2075 3097 
Q 1594 3097 1305 2825 
Q 1016 2553 972 2059 
L 3022 2063 
z
" transform="scale(0.015625)"/>
       <path id="DejaVuSans-20" transform="scale(0.015625)"/>
       <path id="DejaVuSans-28" d="M 1984 4856 
Q 1566 4138 1362 3434 
Q 1159 2731 1159 2009 
Q 1159 1288 1364 580 
Q 1569 -128 1984 -844 
L 1484 -844 
Q 1016 -109 783 600 
Q 550 1309 550 2009 
Q 550 2706 781 3412 
Q 1013 4119 1484 4856 
L 1984 4856 
z
" transform="scale(0.015625)"/>
       <path id="DejaVuSans-73" d="M 2834 3397 
L 2834 2853 
Q 2591 2978 2328 3040 
Q 2066 3103 1784 3103 
Q 1356 3103 1142 2972 
Q 928 2841 928 2578 
Q 928 2378 1081 2264 
Q 1234 2150 1697 2047 
L 1894 2003 
Q 2506 1872 2764 1633 
Q 3022 1394 3022 966 
Q 3022 478 2636 193 
Q 2250 -91 1575 -91 
Q 1294 -91 989 -36 
Q 684 19 347 128 
L 347 722 
Q 666 556 975 473 
Q 1284 391 1588 391 
Q 1994 391 2212 530 
Q 2431 669 2431 922 
Q 2431 1156 2273 1281 
Q 2116 1406 1581 1522 
L 1381 1569 
Q 847 1681 609 1914 
Q 372 2147 372 2553 
Q 372 3047 722 3315 
Q 1072 3584 1716 3584 
Q 2034 3584 2315 3537 
Q 2597 3491 2834 3397 
z
" transform="scale(0.015625)"/>
       <path id="DejaVuSans-29" d="M 513 4856 
L 1013 4856 
Q 1481 4119 1714 3412 
Q 1947 2706 1947 2009 
Q 1947 1309 1714 600 
Q 1481 -109 1013 -844 
L 513 -844 
Q 928 -128 1133 580 
Q 1338 1288 1338 2009 
Q 1338 2731 1133 3434 
Q 928 4138 513 4856 
z
" transform="scale(0.015625)"/>
      </defs>
      <use xlink:href="#DejaVuSans-54"/>
      <use xlink:href="#DejaVuSans-69" transform="translate(57.958984 0)"/>
      <use xlink:href="#DejaVuSans-6d" transform="translate(85.742188 0)"/>
      <use xlink:href="#DejaVuSans-65" transform="translate(183.154297 0)"/>
      <use xlink:href="#DejaVuSans-20" transform="translate(244.677734 0)"/>
      <use xlink:href="#DejaVuSans-28" transform="translate(276.464844 0)"/>
      <use xlink:href="#DejaVuSans-6d" transform="translate(315.478516 0)"/>
      <use xlink:href="#DejaVuSans-73" transform="translate(412.890625 0)"/>
      <use xlink:href="#DejaVuSans-29" transform="translate(464.990234 0)"/>
     </g>
    </g>
   </g>
   <g id="LineCollection_1">
    <path d="M 239.4 311.965941 
L 351 311.965941 
" clip-path="url(#pf074339de4)" style="fill: none; stroke: #1f77b4; stroke-width: 1.5"/>
   </g>
   <g id="LineCollection_2">
    <path d="M 239.4 66.239376 
L 351 66.239376 
" clip-path="url(#pf074339de4)" style="fill: none; stroke: #1f77b4; stroke-width: 1.5"/>
   </g>
   <g id="LineCollection_3">
    <path d="M 239.4 354.226902 
L 351 354.226902 
" clip-path="url(#pf074339de4)" style="fill: none; stroke: #1f77b4; stroke-width: 1.5"/>
   </g>
   <g id="LineCollection_4">
    <path d="M 295.2 354.226902 
L 295.2 66.239376 
" clip-path="url(#pf074339de4)" style="fill: none; stroke: #1f77b4; stroke-width: 1.5"/>
   </g>
   <g id="patch_3">
    <path d="M 250.56 341.767018 
L 339.84 341.767018 
L 339.84 293.984166 
L 250.56 293.984166 
L 250.56 341.767018 
z
" clip-path="url(#pf074339de4)" style="fill: #1f77b4; stroke: #000000; stroke-linejoin: miter"/>
   </g>
   <g id="line2d_8">
    <path d="M 295.2 341.767018 
L 295.2 354.226902 
" clip-path="url(#pf074339de4)" style="fill: none; stroke: #000000; stroke-linecap: square"/>
   </g>
   <g id="line2d_9">
    <path d="M 295.2 293.984166 
L 295.2 224.773288 
" clip-path="url(#pf074339de4)" style="fill: none; stroke: #000000; stroke-linecap: square"/>
   </g>
   <g id="line2d_10">
    <path d="M 272.88 354.226902 
L 317.52 354.226902 
" clip-path="url(#pf074339de4)" style="fill: none; stroke: #000000; stroke-linecap: square"/>
   </g>
   <g id="line2d_11">
    <path d="M 272.88 224.773288 
L 317.52 224.773288 
" clip-path="url(#pf074339de4)" style="fill: none; stroke: #000000; stroke-linecap: square"/>
   </g>
   <g id="line2d_12">
    <defs>
     <path id="m7ce9216dca" d="M 0 3 
C 0.795609 3 1.55874 2.683901 2.12132 2.12132 
C 2.683901 1.55874 3 0.795609 3 0 
C 3 -0.795609 2.683901 -1.55874 2.12132 -2.12132 
C 1.55874 -2.683901 0.795609 -3 0 -3 
C -0.795609 -3 -1.55874 -2.683901 -2.12132 -2.12132 
C -2.683901 -1.55874 -3 -0.795609 -3 0 
C -3 0.795609 -2.683901 1.55874 -2.12132 2.12132 
C -1.55874 2.683901 -0.795609 3 0 3 
z
" style="stroke: #000000"/>
    </defs>
    <g clip-path="url(#pf074339de4)">
     <use xlink:href="#m7ce9216dca" x="295.2" y="155.314871" style="fill-opacity: 0; stroke: #000000"/>
     <use xlink:href="#m7ce9216dca" x="295.2" y="222.279884" style="fill-opacity: 0; stroke: #000000"/>
     <use xlink:href="#m7ce9216dca" x="295.2" y="222.129679" style="fill-opacity: 0; stroke: #000000"/>
     <use xlink:href="#m7ce9216dca" x="295.2" y="211.675408" style="fill-opacity: 0; stroke: #000000"/>
     <use xlink:href="#m7ce9216dca" x="295.2" y="217.11253" style="fill-opacity: 0; stroke: #000000"/>
     <use xlink:href="#m7ce9216dca" x="295.2" y="200.498951" style="fill-opacity: 0; stroke: #000000"/>
     <use xlink:href="#m7ce9216dca" x="295.2" y="194.19034" style="fill-opacity: 0; stroke: #000000"/>
     <use xlink:href="#m7ce9216dca" x="295.2" y="215.400493" style="fill-opacity: 0; stroke: #000000"/>
     <use xlink:href="#m7ce9216dca" x="295.2" y="206.057139" style="fill-opacity: 0; stroke: #000000"/>
     <use xlink:href="#m7ce9216dca" x="295.2" y="210.322962" style="fill-opacity: 0; stroke: #000000"/>
     <use xlink:href="#m7ce9216dca" x="295.2" y="134.285264" style="fill-opacity: 0; stroke: #000000"/>
     <use xlink:href="#m7ce9216dca" x="295.2" y="66.239376" style="fill-opacity: 0; stroke: #000000"/>
     <use xlink:href="#m7ce9216dca" x="295.2" y="169.044814" style="fill-opacity: 0; stroke: #000000"/>
     <use xlink:href="#m7ce9216dca" x="295.2" y="183.043924" style="fill-opacity: 0; stroke: #000000"/>
     <use xlink:href="#m7ce9216dca" x="295.2" y="216.782079" style="fill-opacity: 0; stroke: #000000"/>
     <use xlink:href="#m7ce9216dca" x="295.2" y="148.104429" style="fill-opacity: 0; stroke: #000000"/>
     <use xlink:href="#m7ce9216dca" x="295.2" y="188.46182" style="fill-opacity: 0; stroke: #000000"/>
     <use xlink:href="#m7ce9216dca" x="295.2" y="180.881272" style="fill-opacity: 0; stroke: #000000"/>
     <use xlink:href="#m7ce9216dca" x="295.2" y="216.691956" style="fill-opacity: 0; stroke: #000000"/>
     <use xlink:href="#m7ce9216dca" x="295.2" y="220.3873" style="fill-opacity: 0; stroke: #000000"/>
     <use xlink:href="#m7ce9216dca" x="295.2" y="122.358083" style="fill-opacity: 0; stroke: #000000"/>
     <use xlink:href="#m7ce9216dca" x="295.2" y="198.396081" style="fill-opacity: 0; stroke: #000000"/>
     <use xlink:href="#m7ce9216dca" x="295.2" y="158.469478" style="fill-opacity: 0; stroke: #000000"/>
     <use xlink:href="#m7ce9216dca" x="295.2" y="173.550665" style="fill-opacity: 0; stroke: #000000"/>
     <use xlink:href="#m7ce9216dca" x="295.2" y="187.580416" style="fill-opacity: 0; stroke: #000000"/>
     <use xlink:href="#m7ce9216dca" x="295.2" y="138.761074" style="fill-opacity: 0; stroke: #000000"/>
    </g>
   </g>
   <g id="line2d_13">
    <path d="M 250.56 324.019166 
L 339.84 324.019166 
" clip-path="url(#pf074339de4)" style="fill: none; stroke: #ff7f0e"/>
   </g>
   <g id="patch_4">
    <path d="M 72 384.48 
L 72 51.84 
" style="fill: none; stroke: #000000; stroke-width: 0.8; stroke-linejoin: miter; stroke-linecap: square"/>
   </g>
   <g id="patch_5">
    <path d="M 518.4 384.48 
L 518.4 51.84 
" style="fill: none; stroke: #000000; stroke-width: 0.8; stroke-linejoin: miter; stroke-linecap: square"/>
   </g>
   <g id="patch_6">
    <path d="M 72 384.48 
L 518.4 384.48 
" style="fill: none; stroke: #000000; stroke-width: 0.8; stroke-linejoin: miter; stroke-linecap: square"/>
   </g>
   <g id="patch_7">
    <path d="M 72 51.84 
L 518.4 51.84 
" style="fill: none; stroke: #000000; stroke-width: 0.8; stroke-linejoin: miter; stroke-linecap: square"/>
   </g>
   <g id="text_9">
    <!-- getExpectedBehaviours -->
    <g transform="translate(223.779375 45.84) scale(0.12 -0.12)">
     <defs>
      <path id="DejaVuSans-67" d="M 2906 1791 
Q 2906 2416 2648 2759 
Q 2391 3103 1925 3103 
Q 1463 3103 1205 2759 
Q 947 2416 947 1791 
Q 947 1169 1205 825 
Q 1463 481 1925 481 
Q 2391 481 2648 825 
Q 2906 1169 2906 1791 
z
M 3481 434 
Q 3481 -459 3084 -895 
Q 2688 -1331 1869 -1331 
Q 1566 -1331 1297 -1286 
Q 1028 -1241 775 -1147 
L 775 -588 
Q 1028 -725 1275 -790 
Q 1522 -856 1778 -856 
Q 2344 -856 2625 -561 
Q 2906 -266 2906 331 
L 2906 616 
Q 2728 306 2450 153 
Q 2172 0 1784 0 
Q 1141 0 747 490 
Q 353 981 353 1791 
Q 353 2603 747 3093 
Q 1141 3584 1784 3584 
Q 2172 3584 2450 3431 
Q 2728 3278 2906 2969 
L 2906 3500 
L 3481 3500 
L 3481 434 
z
" transform="scale(0.015625)"/>
      <path id="DejaVuSans-74" d="M 1172 4494 
L 1172 3500 
L 2356 3500 
L 2356 3053 
L 1172 3053 
L 1172 1153 
Q 1172 725 1289 603 
Q 1406 481 1766 481 
L 2356 481 
L 2356 0 
L 1766 0 
Q 1100 0 847 248 
Q 594 497 594 1153 
L 594 3053 
L 172 3053 
L 172 3500 
L 594 3500 
L 594 4494 
L 1172 4494 
z
" transform="scale(0.015625)"/>
      <path id="DejaVuSans-45" d="M 628 4666 
L 3578 4666 
L 3578 4134 
L 1259 4134 
L 1259 2753 
L 3481 2753 
L 3481 2222 
L 1259 2222 
L 1259 531 
L 3634 531 
L 3634 0 
L 628 0 
L 628 4666 
z
" transform="scale(0.015625)"/>
      <path id="DejaVuSans-78" d="M 3513 3500 
L 2247 1797 
L 3578 0 
L 2900 0 
L 1881 1375 
L 863 0 
L 184 0 
L 1544 1831 
L 300 3500 
L 978 3500 
L 1906 2253 
L 2834 3500 
L 3513 3500 
z
" transform="scale(0.015625)"/>
      <path id="DejaVuSans-70" d="M 1159 525 
L 1159 -1331 
L 581 -1331 
L 581 3500 
L 1159 3500 
L 1159 2969 
Q 1341 3281 1617 3432 
Q 1894 3584 2278 3584 
Q 2916 3584 3314 3078 
Q 3713 2572 3713 1747 
Q 3713 922 3314 415 
Q 2916 -91 2278 -91 
Q 1894 -91 1617 61 
Q 1341 213 1159 525 
z
M 3116 1747 
Q 3116 2381 2855 2742 
Q 2594 3103 2138 3103 
Q 1681 3103 1420 2742 
Q 1159 2381 1159 1747 
Q 1159 1113 1420 752 
Q 1681 391 2138 391 
Q 2594 391 2855 752 
Q 3116 1113 3116 1747 
z
" transform="scale(0.015625)"/>
      <path id="DejaVuSans-63" d="M 3122 3366 
L 3122 2828 
Q 2878 2963 2633 3030 
Q 2388 3097 2138 3097 
Q 1578 3097 1268 2742 
Q 959 2388 959 1747 
Q 959 1106 1268 751 
Q 1578 397 2138 397 
Q 2388 397 2633 464 
Q 2878 531 3122 666 
L 3122 134 
Q 2881 22 2623 -34 
Q 2366 -91 2075 -91 
Q 1284 -91 818 406 
Q 353 903 353 1747 
Q 353 2603 823 3093 
Q 1294 3584 2113 3584 
Q 2378 3584 2631 3529 
Q 2884 3475 3122 3366 
z
" transform="scale(0.015625)"/>
      <path id="DejaVuSans-64" d="M 2906 2969 
L 2906 4863 
L 3481 4863 
L 3481 0 
L 2906 0 
L 2906 525 
Q 2725 213 2448 61 
Q 2172 -91 1784 -91 
Q 1150 -91 751 415 
Q 353 922 353 1747 
Q 353 2572 751 3078 
Q 1150 3584 1784 3584 
Q 2172 3584 2448 3432 
Q 2725 3281 2906 2969 
z
M 947 1747 
Q 947 1113 1208 752 
Q 1469 391 1925 391 
Q 2381 391 2643 752 
Q 2906 1113 2906 1747 
Q 2906 2381 2643 2742 
Q 2381 3103 1925 3103 
Q 1469 3103 1208 2742 
Q 947 2381 947 1747 
z
" transform="scale(0.015625)"/>
      <path id="DejaVuSans-42" d="M 1259 2228 
L 1259 519 
L 2272 519 
Q 2781 519 3026 730 
Q 3272 941 3272 1375 
Q 3272 1813 3026 2020 
Q 2781 2228 2272 2228 
L 1259 2228 
z
M 1259 4147 
L 1259 2741 
L 2194 2741 
Q 2656 2741 2882 2914 
Q 3109 3088 3109 3444 
Q 3109 3797 2882 3972 
Q 2656 4147 2194 4147 
L 1259 4147 
z
M 628 4666 
L 2241 4666 
Q 2963 4666 3353 4366 
Q 3744 4066 3744 3513 
Q 3744 3084 3544 2831 
Q 3344 2578 2956 2516 
Q 3422 2416 3680 2098 
Q 3938 1781 3938 1306 
Q 3938 681 3513 340 
Q 3088 0 2303 0 
L 628 0 
L 628 4666 
z
" transform="scale(0.015625)"/>
      <path id="DejaVuSans-68" d="M 3513 2113 
L 3513 0 
L 2938 0 
L 2938 2094 
Q 2938 2591 2744 2837 
Q 2550 3084 2163 3084 
Q 1697 3084 1428 2787 
Q 1159 2491 1159 1978 
L 1159 0 
L 581 0 
L 581 4863 
L 1159 4863 
L 1159 2956 
Q 1366 3272 1645 3428 
Q 1925 3584 2291 3584 
Q 2894 3584 3203 3211 
Q 3513 2838 3513 2113 
z
" transform="scale(0.015625)"/>
      <path id="DejaVuSans-61" d="M 2194 1759 
Q 1497 1759 1228 1600 
Q 959 1441 959 1056 
Q 959 750 1161 570 
Q 1363 391 1709 391 
Q 2188 391 2477 730 
Q 2766 1069 2766 1631 
L 2766 1759 
L 2194 1759 
z
M 3341 1997 
L 3341 0 
L 2766 0 
L 2766 531 
Q 2569 213 2275 61 
Q 1981 -91 1556 -91 
Q 1019 -91 701 211 
Q 384 513 384 1019 
Q 384 1609 779 1909 
Q 1175 2209 1959 2209 
L 2766 2209 
L 2766 2266 
Q 2766 2663 2505 2880 
Q 2244 3097 1772 3097 
Q 1472 3097 1187 3025 
Q 903 2953 641 2809 
L 641 3341 
Q 956 3463 1253 3523 
Q 1550 3584 1831 3584 
Q 2591 3584 2966 3190 
Q 3341 2797 3341 1997 
z
" transform="scale(0.015625)"/>
      <path id="DejaVuSans-76" d="M 191 3500 
L 800 3500 
L 1894 563 
L 2988 3500 
L 3597 3500 
L 2284 0 
L 1503 0 
L 191 3500 
z
" transform="scale(0.015625)"/>
      <path id="DejaVuSans-6f" d="M 1959 3097 
Q 1497 3097 1228 2736 
Q 959 2375 959 1747 
Q 959 1119 1226 758 
Q 1494 397 1959 397 
Q 2419 397 2687 759 
Q 2956 1122 2956 1747 
Q 2956 2369 2687 2733 
Q 2419 3097 1959 3097 
z
M 1959 3584 
Q 2709 3584 3137 3096 
Q 3566 2609 3566 1747 
Q 3566 888 3137 398 
Q 2709 -91 1959 -91 
Q 1206 -91 779 398 
Q 353 888 353 1747 
Q 353 2609 779 3096 
Q 1206 3584 1959 3584 
z
" transform="scale(0.015625)"/>
      <path id="DejaVuSans-75" d="M 544 1381 
L 544 3500 
L 1119 3500 
L 1119 1403 
Q 1119 906 1312 657 
Q 1506 409 1894 409 
Q 2359 409 2629 706 
Q 2900 1003 2900 1516 
L 2900 3500 
L 3475 3500 
L 3475 0 
L 2900 0 
L 2900 538 
Q 2691 219 2414 64 
Q 2138 -91 1772 -91 
Q 1169 -91 856 284 
Q 544 659 544 1381 
z
M 1991 3584 
L 1991 3584 
z
" transform="scale(0.015625)"/>
      <path id="DejaVuSans-72" d="M 2631 2963 
Q 2534 3019 2420 3045 
Q 2306 3072 2169 3072 
Q 1681 3072 1420 2755 
Q 1159 2438 1159 1844 
L 1159 0 
L 581 0 
L 581 3500 
L 1159 3500 
L 1159 2956 
Q 1341 3275 1631 3429 
Q 1922 3584 2338 3584 
Q 2397 3584 2469 3576 
Q 2541 3569 2628 3553 
L 2631 2963 
z
" transform="scale(0.015625)"/>
     </defs>
     <use xlink:href="#DejaVuSans-67"/>
     <use xlink:href="#DejaVuSans-65" transform="translate(63.476562 0)"/>
     <use xlink:href="#DejaVuSans-74" transform="translate(125 0)"/>
     <use xlink:href="#DejaVuSans-45" transform="translate(164.208984 0)"/>
     <use xlink:href="#DejaVuSans-78" transform="translate(227.392578 0)"/>
     <use xlink:href="#DejaVuSans-70" transform="translate(286.572266 0)"/>
     <use xlink:href="#DejaVuSans-65" transform="translate(350.048828 0)"/>
     <use xlink:href="#DejaVuSans-63" transform="translate(411.572266 0)"/>
     <use xlink:href="#DejaVuSans-74" transform="translate(466.552734 0)"/>
     <use xlink:href="#DejaVuSans-65" transform="translate(505.761719 0)"/>
     <use xlink:href="#DejaVuSans-64" transform="translate(567.285156 0)"/>
     <use xlink:href="#DejaVuSans-42" transform="translate(630.761719 0)"/>
     <use xlink:href="#DejaVuSans-65" transform="translate(699.365234 0)"/>
     <use xlink:href="#DejaVuSans-68" transform="translate(760.888672 0)"/>
     <use xlink:href="#DejaVuSans-61" transform="translate(824.267578 0)"/>
     <use xlink:href="#DejaVuSans-76" transform="translate(885.546875 0)"/>
     <use xlink:href="#DejaVuSans-69" transform="translate(944.726562 0)"/>
     <use xlink:href="#DejaVuSans-6f" transform="translate(972.509766 0)"/>
     <use xlink:href="#DejaVuSans-75" transform="translate(1033.691406 0)"/>
     <use xlink:href="#DejaVuSans-72" transform="translate(1097.070312 0)"/>
     <use xlink:href="#DejaVuSans-73" transform="translate(1138.183594 0)"/>
    </g>
   </g>
  </g>
 </g>
 <defs>
  <clipPath id="pf074339de4">
   <rect x="72" y="51.84" width="446.4" height="332.64"/>
  </clipPath>
 </defs>
</svg>
