<?xml version="1.0" encoding="utf-8" standalone="no"?>
<!DOCTYPE svg PUBLIC "-//W3C//DTD SVG 1.1//EN"
  "http://www.w3.org/Graphics/SVG/1.1/DTD/svg11.dtd">
<svg xmlns:xlink="http://www.w3.org/1999/xlink" width="576pt" height="432pt" viewBox="0 0 576 432" xmlns="http://www.w3.org/2000/svg" version="1.1">
 <metadata>
  <rdf:RDF xmlns:dc="http://purl.org/dc/elements/1.1/" xmlns:cc="http://creativecommons.org/ns#" xmlns:rdf="http://www.w3.org/1999/02/22-rdf-syntax-ns#">
   <cc:Work>
    <dc:type rdf:resource="http://purl.org/dc/dcmitype/StillImage"/>
    <dc:date>2025-06-10T03:16:26.221583</dc:date>
    <dc:format>image/svg+xml</dc:format>
    <dc:creator>
     <cc:Agent>
      <dc:title>Matplotlib v3.10.3, https://matplotlib.org/</dc:title>
     </cc:Agent>
    </dc:creator>
   </cc:Work>
  </rdf:RDF>
 </metadata>
 <defs>
  <style type="text/css">*{stroke-linejoin: round; stroke-linecap: butt}</style>
 </defs>
 <g id="figure_1">
  <g id="patch_1">
   <path d="M 0 432 
L 576 432 
L 576 0 
L 0 0 
z
" style="fill: #ffffff"/>
  </g>
  <g id="axes_1">
   <g id="patch_2">
    <path d="M 72 384.48 
L 518.4 384.48 
L 518.4 51.84 
L 72 51.84 
z
" style="fill: #ffffff"/>
   </g>
   <g id="FillBetweenPolyCollection_1">
    <path d="M 406.186322 378.601661 
L 184.213678 378.601661 
L 183.6 375.45821 
L 186.429225 372.31476 
L 192.398196 369.17131 
L 200.924787 366.027859 
L 211.237954 362.884409 
L 222.490321 359.740959 
L 233.870897 356.597508 
L 244.697589 353.454058 
L 254.475782 350.310608 
L 262.918208 347.167158 
L 269.929965 344.023707 
L 275.568756 340.880257 
L 279.99317 337.736807 
L 283.411075 334.593356 
L 286.037028 331.449906 
L 288.063301 328.306456 
L 289.645081 325.163005 
L 290.897416 322.019555 
L 291.900015 318.876105 
L 292.705848 315.732654 
L 293.350276 312.589204 
L 293.85864 309.445754 
L 294.251455 306.302303 
L 294.54723 303.158853 
L 294.763476 300.015403 
L 294.91664 296.871952 
L 295.021587 293.728502 
L 295.091097 290.585052 
L 295.13558 287.441601 
L 295.16308 284.298151 
L 295.179504 281.154701 
L 295.188979 278.01125 
L 295.194261 274.8678 
L 295.197106 271.72435 
L 295.198587 268.5809 
L 295.199332 265.437449 
L 295.199694 262.293999 
L 295.199864 259.150549 
L 295.199942 256.007098 
L 295.199976 252.863648 
L 295.19999 249.720198 
L 295.199996 246.576747 
L 295.199999 243.433297 
L 295.199999 240.289847 
L 295.2 237.146396 
L 295.2 234.002946 
L 295.2 230.859496 
L 295.2 227.716045 
L 295.2 224.572595 
L 295.2 221.429145 
L 295.2 218.285694 
L 295.2 215.142244 
L 295.2 211.998794 
L 295.199999 208.855343 
L 295.199997 205.711893 
L 295.199994 202.568443 
L 295.199984 199.424993 
L 295.199962 196.281542 
L 295.199912 193.138092 
L 295.199803 189.994642 
L 295.199571 186.851191 
L 295.199098 183.707741 
L 295.19816 180.564291 
L 295.196364 177.42084 
L 295.193038 174.27739 
L 295.187083 171.13394 
L 295.176776 167.990489 
L 295.159538 164.847039 
L 295.13168 161.703589 
L 295.088191 158.560138 
L 295.022637 155.416688 
L 294.927259 152.273238 
L 294.793385 149.129787 
L 294.61222 145.986337 
L 294.376044 142.842887 
L 294.079737 139.699436 
L 293.722448 136.555986 
L 293.309119 133.412536 
L 292.851484 130.269085 
L 292.368225 127.125635 
L 291.884006 123.982185 
L 291.427385 120.838735 
L 291.02778 117.695284 
L 290.711946 114.551834 
L 290.500586 111.408384 
L 290.405708 108.264933 
L 290.429249 105.121483 
L 290.563214 101.978033 
L 290.791269 98.834582 
L 291.09142 95.691132 
L 291.439227 92.547682 
L 291.810942 89.404231 
L 292.18602 86.260781 
L 292.548693 83.117331 
L 292.888499 79.97388 
L 293.199889 76.83043 
L 293.481209 73.68698 
L 293.733392 70.543529 
L 293.958673 67.400079 
L 296.441327 67.400079 
L 296.441327 67.400079 
L 296.666608 70.543529 
L 296.918791 73.68698 
L 297.200111 76.83043 
L 297.511501 79.97388 
L 297.851307 83.117331 
L 298.21398 86.260781 
L 298.589058 89.404231 
L 298.960773 92.547682 
L 299.30858 95.691132 
L 299.608731 98.834582 
L 299.836786 101.978033 
L 299.970751 105.121483 
L 299.994292 108.264933 
L 299.899414 111.408384 
L 299.688054 114.551834 
L 299.37222 117.695284 
L 298.972615 120.838735 
L 298.515994 123.982185 
L 298.031775 127.125635 
L 297.548516 130.269085 
L 297.090881 133.412536 
L 296.677552 136.555986 
L 296.320263 139.699436 
L 296.023956 142.842887 
L 295.78778 145.986337 
L 295.606615 149.129787 
L 295.472741 152.273238 
L 295.377363 155.416688 
L 295.311809 158.560138 
L 295.26832 161.703589 
L 295.240462 164.847039 
L 295.223224 167.990489 
L 295.212917 171.13394 
L 295.206962 174.27739 
L 295.203636 177.42084 
L 295.20184 180.564291 
L 295.200902 183.707741 
L 295.200429 186.851191 
L 295.200197 189.994642 
L 295.200088 193.138092 
L 295.200038 196.281542 
L 295.200016 199.424993 
L 295.200006 202.568443 
L 295.200003 205.711893 
L 295.200001 208.855343 
L 295.2 211.998794 
L 295.2 215.142244 
L 295.2 218.285694 
L 295.2 221.429145 
L 295.2 224.572595 
L 295.2 227.716045 
L 295.2 230.859496 
L 295.2 234.002946 
L 295.2 237.146396 
L 295.200001 240.289847 
L 295.200001 243.433297 
L 295.200004 246.576747 
L 295.20001 249.720198 
L 295.200024 252.863648 
L 295.200058 256.007098 
L 295.200136 259.150549 
L 295.200306 262.293999 
L 295.200668 265.437449 
L 295.201413 268.5809 
L 295.202894 271.72435 
L 295.205739 274.8678 
L 295.211021 278.01125 
L 295.220496 281.154701 
L 295.23692 284.298151 
L 295.26442 287.441601 
L 295.308903 290.585052 
L 295.378413 293.728502 
L 295.48336 296.871952 
L 295.636524 300.015403 
L 295.85277 303.158853 
L 296.148545 306.302303 
L 296.54136 309.445754 
L 297.049724 312.589204 
L 297.694152 315.732654 
L 298.499985 318.876105 
L 299.502584 322.019555 
L 300.754919 325.163005 
L 302.336699 328.306456 
L 304.362972 331.449906 
L 306.988925 334.593356 
L 310.40683 337.736807 
L 314.831244 340.880257 
L 320.470035 344.023707 
L 327.481792 347.167158 
L 335.924218 350.310608 
L 345.702411 353.454058 
L 356.529103 356.597508 
L 367.909679 359.740959 
L 379.162046 362.884409 
L 389.475213 366.027859 
L 398.001804 369.17131 
L 403.970775 372.31476 
L 406.8 375.45821 
L 406.186322 378.601661 
z
" clip-path="url(#p71ebb11ecf)" style="fill: #1f77b4; fill-opacity: 0.3"/>
   </g>
   <g id="matplotlib.axis_1">
    <g id="xtick_1">
     <g id="line2d_1">
      <defs>
       <path id="m8360d6f4af" d="M 0 0 
L 0 3.5 
" style="stroke: #000000; stroke-width: 0.8"/>
      </defs>
      <g>
       <use xlink:href="#m8360d6f4af" x="295.2" y="384.48" style="stroke: #000000; stroke-width: 0.8"/>
      </g>
     </g>
     <g id="text_1">
      <!-- 1 -->
      <g transform="translate(292.01875 399.078438) scale(0.1 -0.1)">
       <defs>
        <path id="DejaVuSans-31" d="M 794 531 
L 1825 531 
L 1825 4091 
L 703 3866 
L 703 4441 
L 1819 4666 
L 2450 4666 
L 2450 531 
L 3481 531 
L 3481 0 
L 794 0 
L 794 531 
z
" transform="scale(0.015625)"/>
       </defs>
       <use xlink:href="#DejaVuSans-31"/>
      </g>
     </g>
    </g>
   </g>
   <g id="matplotlib.axis_2">
    <g id="ytick_1">
     <g id="line2d_2">
      <defs>
       <path id="mdbd723fcb9" d="M 0 0 
L -3.5 0 
" style="stroke: #000000; stroke-width: 0.8"/>
      </defs>
      <g>
       <use xlink:href="#mdbd723fcb9" x="72" y="384.48" style="stroke: #000000; stroke-width: 0.8"/>
      </g>
     </g>
     <g id="text_2">
      <!-- 0 -->
      <g transform="translate(58.6375 388.279219) scale(0.1 -0.1)">
       <defs>
        <path id="DejaVuSans-30" d="M 2034 4250 
Q 1547 4250 1301 3770 
Q 1056 3291 1056 2328 
Q 1056 1369 1301 889 
Q 1547 409 2034 409 
Q 2525 409 2770 889 
Q 3016 1369 3016 2328 
Q 3016 3291 2770 3770 
Q 2525 4250 2034 4250 
z
M 2034 4750 
Q 2819 4750 3233 4129 
Q 3647 3509 3647 2328 
Q 3647 1150 3233 529 
Q 2819 -91 2034 -91 
Q 1250 -91 836 529 
Q 422 1150 422 2328 
Q 422 3509 836 4129 
Q 1250 4750 2034 4750 
z
" transform="scale(0.015625)"/>
       </defs>
       <use xlink:href="#DejaVuSans-30"/>
      </g>
     </g>
    </g>
    <g id="ytick_2">
     <g id="line2d_3">
      <g>
       <use xlink:href="#mdbd723fcb9" x="72" y="335.211139" style="stroke: #000000; stroke-width: 0.8"/>
      </g>
     </g>
     <g id="text_3">
      <!-- 20 -->
      <g transform="translate(52.275 339.010357) scale(0.1 -0.1)">
       <defs>
        <path id="DejaVuSans-32" d="M 1228 531 
L 3431 531 
L 3431 0 
L 469 0 
L 469 531 
Q 828 903 1448 1529 
Q 2069 2156 2228 2338 
Q 2531 2678 2651 2914 
Q 2772 3150 2772 3378 
Q 2772 3750 2511 3984 
Q 2250 4219 1831 4219 
Q 1534 4219 1204 4116 
Q 875 4013 500 3803 
L 500 4441 
Q 881 4594 1212 4672 
Q 1544 4750 1819 4750 
Q 2544 4750 2975 4387 
Q 3406 4025 3406 3419 
Q 3406 3131 3298 2873 
Q 3191 2616 2906 2266 
Q 2828 2175 2409 1742 
Q 1991 1309 1228 531 
z
" transform="scale(0.015625)"/>
       </defs>
       <use xlink:href="#DejaVuSans-32"/>
       <use xlink:href="#DejaVuSans-30" transform="translate(63.623047 0)"/>
      </g>
     </g>
    </g>
    <g id="ytick_3">
     <g id="line2d_4">
      <g>
       <use xlink:href="#mdbd723fcb9" x="72" y="285.942277" style="stroke: #000000; stroke-width: 0.8"/>
      </g>
     </g>
     <g id="text_4">
      <!-- 40 -->
      <g transform="translate(52.275 289.741496) scale(0.1 -0.1)">
       <defs>
        <path id="DejaVuSans-34" d="M 2419 4116 
L 825 1625 
L 2419 1625 
L 2419 4116 
z
M 2253 4666 
L 3047 4666 
L 3047 1625 
L 3713 1625 
L 3713 1100 
L 3047 1100 
L 3047 0 
L 2419 0 
L 2419 1100 
L 313 1100 
L 313 1709 
L 2253 4666 
z
" transform="scale(0.015625)"/>
       </defs>
       <use xlink:href="#DejaVuSans-34"/>
       <use xlink:href="#DejaVuSans-30" transform="translate(63.623047 0)"/>
      </g>
     </g>
    </g>
    <g id="ytick_4">
     <g id="line2d_5">
      <g>
       <use xlink:href="#mdbd723fcb9" x="72" y="236.673416" style="stroke: #000000; stroke-width: 0.8"/>
      </g>
     </g>
     <g id="text_5">
      <!-- 60 -->
      <g transform="translate(52.275 240.472635) scale(0.1 -0.1)">
       <defs>
        <path id="DejaVuSans-36" d="M 2113 2584 
Q 1688 2584 1439 2293 
Q 1191 2003 1191 1497 
Q 1191 994 1439 701 
Q 1688 409 2113 409 
Q 2538 409 2786 701 
Q 3034 994 3034 1497 
Q 3034 2003 2786 2293 
Q 2538 2584 2113 2584 
z
M 3366 4563 
L 3366 3988 
Q 3128 4100 2886 4159 
Q 2644 4219 2406 4219 
Q 1781 4219 1451 3797 
Q 1122 3375 1075 2522 
Q 1259 2794 1537 2939 
Q 1816 3084 2150 3084 
Q 2853 3084 3261 2657 
Q 3669 2231 3669 1497 
Q 3669 778 3244 343 
Q 2819 -91 2113 -91 
Q 1303 -91 875 529 
Q 447 1150 447 2328 
Q 447 3434 972 4092 
Q 1497 4750 2381 4750 
Q 2619 4750 2861 4703 
Q 3103 4656 3366 4563 
z
" transform="scale(0.015625)"/>
       </defs>
       <use xlink:href="#DejaVuSans-36"/>
       <use xlink:href="#DejaVuSans-30" transform="translate(63.623047 0)"/>
      </g>
     </g>
    </g>
    <g id="ytick_5">
     <g id="line2d_6">
      <g>
       <use xlink:href="#mdbd723fcb9" x="72" y="187.404555" style="stroke: #000000; stroke-width: 0.8"/>
      </g>
     </g>
     <g id="text_6">
      <!-- 80 -->
      <g transform="translate(52.275 191.203774) scale(0.1 -0.1)">
       <defs>
        <path id="DejaVuSans-38" d="M 2034 2216 
Q 1584 2216 1326 1975 
Q 1069 1734 1069 1313 
Q 1069 891 1326 650 
Q 1584 409 2034 409 
Q 2484 409 2743 651 
Q 3003 894 3003 1313 
Q 3003 1734 2745 1975 
Q 2488 2216 2034 2216 
z
M 1403 2484 
Q 997 2584 770 2862 
Q 544 3141 544 3541 
Q 544 4100 942 4425 
Q 1341 4750 2034 4750 
Q 2731 4750 3128 4425 
Q 3525 4100 3525 3541 
Q 3525 3141 3298 2862 
Q 3072 2584 2669 2484 
Q 3125 2378 3379 2068 
Q 3634 1759 3634 1313 
Q 3634 634 3220 271 
Q 2806 -91 2034 -91 
Q 1263 -91 848 271 
Q 434 634 434 1313 
Q 434 1759 690 2068 
Q 947 2378 1403 2484 
z
M 1172 3481 
Q 1172 3119 1398 2916 
Q 1625 2713 2034 2713 
Q 2441 2713 2670 2916 
Q 2900 3119 2900 3481 
Q 2900 3844 2670 4047 
Q 2441 4250 2034 4250 
Q 1625 4250 1398 4047 
Q 1172 3844 1172 3481 
z
" transform="scale(0.015625)"/>
       </defs>
       <use xlink:href="#DejaVuSans-38"/>
       <use xlink:href="#DejaVuSans-30" transform="translate(63.623047 0)"/>
      </g>
     </g>
    </g>
    <g id="ytick_6">
     <g id="line2d_7">
      <g>
       <use xlink:href="#mdbd723fcb9" x="72" y="138.135694" style="stroke: #000000; stroke-width: 0.8"/>
      </g>
     </g>
     <g id="text_7">
      <!-- 100 -->
      <g transform="translate(45.9125 141.934912) scale(0.1 -0.1)">
       <use xlink:href="#DejaVuSans-31"/>
       <use xlink:href="#DejaVuSans-30" transform="translate(63.623047 0)"/>
       <use xlink:href="#DejaVuSans-30" transform="translate(127.246094 0)"/>
      </g>
     </g>
    </g>
    <g id="ytick_7">
     <g id="line2d_8">
      <g>
       <use xlink:href="#mdbd723fcb9" x="72" y="88.866832" style="stroke: #000000; stroke-width: 0.8"/>
      </g>
     </g>
     <g id="text_8">
      <!-- 120 -->
      <g transform="translate(45.9125 92.666051) scale(0.1 -0.1)">
       <use xlink:href="#DejaVuSans-31"/>
       <use xlink:href="#DejaVuSans-32" transform="translate(63.623047 0)"/>
       <use xlink:href="#DejaVuSans-30" transform="translate(127.246094 0)"/>
      </g>
     </g>
    </g>
    <g id="text_9">
     <!-- Time (ms) -->
     <g transform="translate(39.832812 243.359219) rotate(-90) scale(0.1 -0.1)">
      <defs>
       <path id="DejaVuSans-54" d="M -19 4666 
L 3928 4666 
L 3928 4134 
L 2272 4134 
L 2272 0 
L 1638 0 
L 1638 4134 
L -19 4134 
L -19 4666 
z
" transform="scale(0.015625)"/>
       <path id="DejaVuSans-69" d="M 603 3500 
L 1178 3500 
L 1178 0 
L 603 0 
L 603 3500 
z
M 603 4863 
L 1178 4863 
L 1178 4134 
L 603 4134 
L 603 4863 
z
" transform="scale(0.015625)"/>
       <path id="DejaVuSans-6d" d="M 3328 2828 
Q 3544 3216 3844 3400 
Q 4144 3584 4550 3584 
Q 5097 3584 5394 3201 
Q 5691 2819 5691 2113 
L 5691 0 
L 5113 0 
L 5113 2094 
Q 5113 2597 4934 2840 
Q 4756 3084 4391 3084 
Q 3944 3084 3684 2787 
Q 3425 2491 3425 1978 
L 3425 0 
L 2847 0 
L 2847 2094 
Q 2847 2600 2669 2842 
Q 2491 3084 2119 3084 
Q 1678 3084 1418 2786 
Q 1159 2488 1159 1978 
L 1159 0 
L 581 0 
L 581 3500 
L 1159 3500 
L 1159 2956 
Q 1356 3278 1631 3431 
Q 1906 3584 2284 3584 
Q 2666 3584 2933 3390 
Q 3200 3197 3328 2828 
z
" transform="scale(0.015625)"/>
       <path id="DejaVuSans-65" d="M 3597 1894 
L 3597 1613 
L 953 1613 
Q 991 1019 1311 708 
Q 1631 397 2203 397 
Q 2534 397 2845 478 
Q 3156 559 3463 722 
L 3463 178 
Q 3153 47 2828 -22 
Q 2503 -91 2169 -91 
Q 1331 -91 842 396 
Q 353 884 353 1716 
Q 353 2575 817 3079 
Q 1281 3584 2069 3584 
Q 2775 3584 3186 3129 
Q 3597 2675 3597 1894 
z
M 3022 2063 
Q 3016 2534 2758 2815 
Q 2500 3097 2075 3097 
Q 1594 3097 1305 2825 
Q 1016 2553 972 2059 
L 3022 2063 
z
" transform="scale(0.015625)"/>
       <path id="DejaVuSans-20" transform="scale(0.015625)"/>
       <path id="DejaVuSans-28" d="M 1984 4856 
Q 1566 4138 1362 3434 
Q 1159 2731 1159 2009 
Q 1159 1288 1364 580 
Q 1569 -128 1984 -844 
L 1484 -844 
Q 1016 -109 783 600 
Q 550 1309 550 2009 
Q 550 2706 781 3412 
Q 1013 4119 1484 4856 
L 1984 4856 
z
" transform="scale(0.015625)"/>
       <path id="DejaVuSans-73" d="M 2834 3397 
L 2834 2853 
Q 2591 2978 2328 3040 
Q 2066 3103 1784 3103 
Q 1356 3103 1142 2972 
Q 928 2841 928 2578 
Q 928 2378 1081 2264 
Q 1234 2150 1697 2047 
L 1894 2003 
Q 2506 1872 2764 1633 
Q 3022 1394 3022 966 
Q 3022 478 2636 193 
Q 2250 -91 1575 -91 
Q 1294 -91 989 -36 
Q 684 19 347 128 
L 347 722 
Q 666 556 975 473 
Q 1284 391 1588 391 
Q 1994 391 2212 530 
Q 2431 669 2431 922 
Q 2431 1156 2273 1281 
Q 2116 1406 1581 1522 
L 1381 1569 
Q 847 1681 609 1914 
Q 372 2147 372 2553 
Q 372 3047 722 3315 
Q 1072 3584 1716 3584 
Q 2034 3584 2315 3537 
Q 2597 3491 2834 3397 
z
" transform="scale(0.015625)"/>
       <path id="DejaVuSans-29" d="M 513 4856 
L 1013 4856 
Q 1481 4119 1714 3412 
Q 1947 2706 1947 2009 
Q 1947 1309 1714 600 
Q 1481 -109 1013 -844 
L 513 -844 
Q 928 -128 1133 580 
Q 1338 1288 1338 2009 
Q 1338 2731 1133 3434 
Q 928 4138 513 4856 
z
" transform="scale(0.015625)"/>
      </defs>
      <use xlink:href="#DejaVuSans-54"/>
      <use xlink:href="#DejaVuSans-69" transform="translate(57.958984 0)"/>
      <use xlink:href="#DejaVuSans-6d" transform="translate(85.742188 0)"/>
      <use xlink:href="#DejaVuSans-65" transform="translate(183.154297 0)"/>
      <use xlink:href="#DejaVuSans-20" transform="translate(244.677734 0)"/>
      <use xlink:href="#DejaVuSans-28" transform="translate(276.464844 0)"/>
      <use xlink:href="#DejaVuSans-6d" transform="translate(315.478516 0)"/>
      <use xlink:href="#DejaVuSans-73" transform="translate(412.890625 0)"/>
      <use xlink:href="#DejaVuSans-29" transform="translate(464.990234 0)"/>
     </g>
    </g>
   </g>
   <g id="LineCollection_1">
    <path d="M 239.4 361.918638 
L 351 361.918638 
" clip-path="url(#p71ebb11ecf)" style="fill: none; stroke: #1f77b4; stroke-width: 1.5"/>
   </g>
   <g id="LineCollection_2">
    <path d="M 239.4 67.400079 
L 351 67.400079 
" clip-path="url(#p71ebb11ecf)" style="fill: none; stroke: #1f77b4; stroke-width: 1.5"/>
   </g>
   <g id="LineCollection_3">
    <path d="M 239.4 378.601661 
L 351 378.601661 
" clip-path="url(#p71ebb11ecf)" style="fill: none; stroke: #1f77b4; stroke-width: 1.5"/>
   </g>
   <g id="LineCollection_4">
    <path d="M 295.2 378.601661 
L 295.2 67.400079 
" clip-path="url(#p71ebb11ecf)" style="fill: none; stroke: #1f77b4; stroke-width: 1.5"/>
   </g>
   <g id="patch_3">
    <path d="M 250.56 377.375902 
L 339.84 377.375902 
L 339.84 375.702903 
L 250.56 375.702903 
L 250.56 377.375902 
z
" clip-path="url(#p71ebb11ecf)" style="fill: #1f77b4; stroke: #000000; stroke-linejoin: miter"/>
   </g>
   <g id="line2d_9">
    <path d="M 295.2 377.375902 
L 295.2 378.601661 
" clip-path="url(#p71ebb11ecf)" style="fill: none; stroke: #000000; stroke-linecap: square"/>
   </g>
   <g id="line2d_10">
    <path d="M 295.2 375.702903 
L 295.2 373.196073 
" clip-path="url(#p71ebb11ecf)" style="fill: none; stroke: #000000; stroke-linecap: square"/>
   </g>
   <g id="line2d_11">
    <path d="M 272.88 378.601661 
L 317.52 378.601661 
" clip-path="url(#p71ebb11ecf)" style="fill: none; stroke: #000000; stroke-linecap: square"/>
   </g>
   <g id="line2d_12">
    <path d="M 272.88 373.196073 
L 317.52 373.196073 
" clip-path="url(#p71ebb11ecf)" style="fill: none; stroke: #000000; stroke-linecap: square"/>
   </g>
   <g id="line2d_13">
    <defs>
     <path id="m3a6e8177d3" d="M 0 3 
C 0.795609 3 1.55874 2.683901 2.12132 2.12132 
C 2.683901 1.55874 3 0.795609 3 0 
C 3 -0.795609 2.683901 -1.55874 2.12132 -2.12132 
C 1.55874 -2.683901 0.795609 -3 0 -3 
C -0.795609 -3 -1.55874 -2.683901 -2.12132 -2.12132 
C -2.683901 -1.55874 -3 -0.795609 -3 0 
C -3 0.795609 -2.683901 1.55874 -2.12132 2.12132 
C -1.55874 2.683901 -0.795609 3 0 3 
z
" style="stroke: #000000"/>
    </defs>
    <g clip-path="url(#p71ebb11ecf)">
     <use xlink:href="#m3a6e8177d3" x="295.2" y="112.229621" style="fill-opacity: 0; stroke: #000000"/>
     <use xlink:href="#m3a6e8177d3" x="295.2" y="339.635059" style="fill-opacity: 0; stroke: #000000"/>
     <use xlink:href="#m3a6e8177d3" x="295.2" y="100.745587" style="fill-opacity: 0; stroke: #000000"/>
     <use xlink:href="#m3a6e8177d3" x="295.2" y="340.361099" style="fill-opacity: 0; stroke: #000000"/>
     <use xlink:href="#m3a6e8177d3" x="295.2" y="104.088982" style="fill-opacity: 0; stroke: #000000"/>
     <use xlink:href="#m3a6e8177d3" x="295.2" y="340.169614" style="fill-opacity: 0; stroke: #000000"/>
     <use xlink:href="#m3a6e8177d3" x="295.2" y="67.400079" style="fill-opacity: 0; stroke: #000000"/>
     <use xlink:href="#m3a6e8177d3" x="295.2" y="339.108431" style="fill-opacity: 0; stroke: #000000"/>
     <use xlink:href="#m3a6e8177d3" x="295.2" y="114.412101" style="fill-opacity: 0; stroke: #000000"/>
     <use xlink:href="#m3a6e8177d3" x="295.2" y="340.26372" style="fill-opacity: 0; stroke: #000000"/>
     <use xlink:href="#m3a6e8177d3" x="295.2" y="370.255799" style="fill-opacity: 0; stroke: #000000"/>
     <use xlink:href="#m3a6e8177d3" x="295.2" y="105.568094" style="fill-opacity: 0; stroke: #000000"/>
     <use xlink:href="#m3a6e8177d3" x="295.2" y="340.813668" style="fill-opacity: 0; stroke: #000000"/>
     <use xlink:href="#m3a6e8177d3" x="295.2" y="113.100636" style="fill-opacity: 0; stroke: #000000"/>
     <use xlink:href="#m3a6e8177d3" x="295.2" y="339.889855" style="fill-opacity: 0; stroke: #000000"/>
     <use xlink:href="#m3a6e8177d3" x="295.2" y="113.611105" style="fill-opacity: 0; stroke: #000000"/>
     <use xlink:href="#m3a6e8177d3" x="295.2" y="339.77329" style="fill-opacity: 0; stroke: #000000"/>
     <use xlink:href="#m3a6e8177d3" x="295.2" y="112.478934" style="fill-opacity: 0; stroke: #000000"/>
     <use xlink:href="#m3a6e8177d3" x="295.2" y="340.874934" style="fill-opacity: 0; stroke: #000000"/>
     <use xlink:href="#m3a6e8177d3" x="295.2" y="80.9538" style="fill-opacity: 0; stroke: #000000"/>
     <use xlink:href="#m3a6e8177d3" x="295.2" y="340.364063" style="fill-opacity: 0; stroke: #000000"/>
     <use xlink:href="#m3a6e8177d3" x="295.2" y="113.886656" style="fill-opacity: 0; stroke: #000000"/>
     <use xlink:href="#m3a6e8177d3" x="295.2" y="340.283802" style="fill-opacity: 0; stroke: #000000"/>
     <use xlink:href="#m3a6e8177d3" x="295.2" y="109.564767" style="fill-opacity: 0; stroke: #000000"/>
     <use xlink:href="#m3a6e8177d3" x="295.2" y="339.302928" style="fill-opacity: 0; stroke: #000000"/>
     <use xlink:href="#m3a6e8177d3" x="295.2" y="92.812266" style="fill-opacity: 0; stroke: #000000"/>
     <use xlink:href="#m3a6e8177d3" x="295.2" y="340.936742" style="fill-opacity: 0; stroke: #000000"/>
     <use xlink:href="#m3a6e8177d3" x="295.2" y="106.755595" style="fill-opacity: 0; stroke: #000000"/>
     <use xlink:href="#m3a6e8177d3" x="295.2" y="339.990588" style="fill-opacity: 0; stroke: #000000"/>
     <use xlink:href="#m3a6e8177d3" x="295.2" y="111.546918" style="fill-opacity: 0; stroke: #000000"/>
     <use xlink:href="#m3a6e8177d3" x="295.2" y="338.713426" style="fill-opacity: 0; stroke: #000000"/>
     <use xlink:href="#m3a6e8177d3" x="295.2" y="105.248061" style="fill-opacity: 0; stroke: #000000"/>
     <use xlink:href="#m3a6e8177d3" x="295.2" y="339.097705" style="fill-opacity: 0; stroke: #000000"/>
     <use xlink:href="#m3a6e8177d3" x="295.2" y="372.705826" style="fill-opacity: 0; stroke: #000000"/>
     <use xlink:href="#m3a6e8177d3" x="295.2" y="92.576211" style="fill-opacity: 0; stroke: #000000"/>
     <use xlink:href="#m3a6e8177d3" x="295.2" y="340.060727" style="fill-opacity: 0; stroke: #000000"/>
     <use xlink:href="#m3a6e8177d3" x="295.2" y="114.745698" style="fill-opacity: 0; stroke: #000000"/>
     <use xlink:href="#m3a6e8177d3" x="295.2" y="339.772736" style="fill-opacity: 0; stroke: #000000"/>
     <use xlink:href="#m3a6e8177d3" x="295.2" y="112.750019" style="fill-opacity: 0; stroke: #000000"/>
     <use xlink:href="#m3a6e8177d3" x="295.2" y="340.573655" style="fill-opacity: 0; stroke: #000000"/>
     <use xlink:href="#m3a6e8177d3" x="295.2" y="75.452717" style="fill-opacity: 0; stroke: #000000"/>
     <use xlink:href="#m3a6e8177d3" x="295.2" y="341.178674" style="fill-opacity: 0; stroke: #000000"/>
    </g>
   </g>
   <g id="line2d_14">
    <path d="M 250.56 376.841948 
L 339.84 376.841948 
" clip-path="url(#p71ebb11ecf)" style="fill: none; stroke: #ff7f0e"/>
   </g>
   <g id="patch_4">
    <path d="M 72 384.48 
L 72 51.84 
" style="fill: none; stroke: #000000; stroke-width: 0.8; stroke-linejoin: miter; stroke-linecap: square"/>
   </g>
   <g id="patch_5">
    <path d="M 518.4 384.48 
L 518.4 51.84 
" style="fill: none; stroke: #000000; stroke-width: 0.8; stroke-linejoin: miter; stroke-linecap: square"/>
   </g>
   <g id="patch_6">
    <path d="M 72 384.48 
L 518.4 384.48 
" style="fill: none; stroke: #000000; stroke-width: 0.8; stroke-linejoin: miter; stroke-linecap: square"/>
   </g>
   <g id="patch_7">
    <path d="M 72 51.84 
L 518.4 51.84 
" style="fill: none; stroke: #000000; stroke-width: 0.8; stroke-linejoin: miter; stroke-linecap: square"/>
   </g>
   <g id="text_10">
    <!-- Register Faultload -->
    <g transform="translate(241.364062 45.84) scale(0.12 -0.12)">
     <defs>
      <path id="DejaVuSans-52" d="M 2841 2188 
Q 3044 2119 3236 1894 
Q 3428 1669 3622 1275 
L 4263 0 
L 3584 0 
L 2988 1197 
Q 2756 1666 2539 1819 
Q 2322 1972 1947 1972 
L 1259 1972 
L 1259 0 
L 628 0 
L 628 4666 
L 2053 4666 
Q 2853 4666 3247 4331 
Q 3641 3997 3641 3322 
Q 3641 2881 3436 2590 
Q 3231 2300 2841 2188 
z
M 1259 4147 
L 1259 2491 
L 2053 2491 
Q 2509 2491 2742 2702 
Q 2975 2913 2975 3322 
Q 2975 3731 2742 3939 
Q 2509 4147 2053 4147 
L 1259 4147 
z
" transform="scale(0.015625)"/>
      <path id="DejaVuSans-67" d="M 2906 1791 
Q 2906 2416 2648 2759 
Q 2391 3103 1925 3103 
Q 1463 3103 1205 2759 
Q 947 2416 947 1791 
Q 947 1169 1205 825 
Q 1463 481 1925 481 
Q 2391 481 2648 825 
Q 2906 1169 2906 1791 
z
M 3481 434 
Q 3481 -459 3084 -895 
Q 2688 -1331 1869 -1331 
Q 1566 -1331 1297 -1286 
Q 1028 -1241 775 -1147 
L 775 -588 
Q 1028 -725 1275 -790 
Q 1522 -856 1778 -856 
Q 2344 -856 2625 -561 
Q 2906 -266 2906 331 
L 2906 616 
Q 2728 306 2450 153 
Q 2172 0 1784 0 
Q 1141 0 747 490 
Q 353 981 353 1791 
Q 353 2603 747 3093 
Q 1141 3584 1784 3584 
Q 2172 3584 2450 3431 
Q 2728 3278 2906 2969 
L 2906 3500 
L 3481 3500 
L 3481 434 
z
" transform="scale(0.015625)"/>
      <path id="DejaVuSans-74" d="M 1172 4494 
L 1172 3500 
L 2356 3500 
L 2356 3053 
L 1172 3053 
L 1172 1153 
Q 1172 725 1289 603 
Q 1406 481 1766 481 
L 2356 481 
L 2356 0 
L 1766 0 
Q 1100 0 847 248 
Q 594 497 594 1153 
L 594 3053 
L 172 3053 
L 172 3500 
L 594 3500 
L 594 4494 
L 1172 4494 
z
" transform="scale(0.015625)"/>
      <path id="DejaVuSans-72" d="M 2631 2963 
Q 2534 3019 2420 3045 
Q 2306 3072 2169 3072 
Q 1681 3072 1420 2755 
Q 1159 2438 1159 1844 
L 1159 0 
L 581 0 
L 581 3500 
L 1159 3500 
L 1159 2956 
Q 1341 3275 1631 3429 
Q 1922 3584 2338 3584 
Q 2397 3584 2469 3576 
Q 2541 3569 2628 3553 
L 2631 2963 
z
" transform="scale(0.015625)"/>
      <path id="DejaVuSans-46" d="M 628 4666 
L 3309 4666 
L 3309 4134 
L 1259 4134 
L 1259 2759 
L 3109 2759 
L 3109 2228 
L 1259 2228 
L 1259 0 
L 628 0 
L 628 4666 
z
" transform="scale(0.015625)"/>
      <path id="DejaVuSans-61" d="M 2194 1759 
Q 1497 1759 1228 1600 
Q 959 1441 959 1056 
Q 959 750 1161 570 
Q 1363 391 1709 391 
Q 2188 391 2477 730 
Q 2766 1069 2766 1631 
L 2766 1759 
L 2194 1759 
z
M 3341 1997 
L 3341 0 
L 2766 0 
L 2766 531 
Q 2569 213 2275 61 
Q 1981 -91 1556 -91 
Q 1019 -91 701 211 
Q 384 513 384 1019 
Q 384 1609 779 1909 
Q 1175 2209 1959 2209 
L 2766 2209 
L 2766 2266 
Q 2766 2663 2505 2880 
Q 2244 3097 1772 3097 
Q 1472 3097 1187 3025 
Q 903 2953 641 2809 
L 641 3341 
Q 956 3463 1253 3523 
Q 1550 3584 1831 3584 
Q 2591 3584 2966 3190 
Q 3341 2797 3341 1997 
z
" transform="scale(0.015625)"/>
      <path id="DejaVuSans-75" d="M 544 1381 
L 544 3500 
L 1119 3500 
L 1119 1403 
Q 1119 906 1312 657 
Q 1506 409 1894 409 
Q 2359 409 2629 706 
Q 2900 1003 2900 1516 
L 2900 3500 
L 3475 3500 
L 3475 0 
L 2900 0 
L 2900 538 
Q 2691 219 2414 64 
Q 2138 -91 1772 -91 
Q 1169 -91 856 284 
Q 544 659 544 1381 
z
M 1991 3584 
L 1991 3584 
z
" transform="scale(0.015625)"/>
      <path id="DejaVuSans-6c" d="M 603 4863 
L 1178 4863 
L 1178 0 
L 603 0 
L 603 4863 
z
" transform="scale(0.015625)"/>
      <path id="DejaVuSans-6f" d="M 1959 3097 
Q 1497 3097 1228 2736 
Q 959 2375 959 1747 
Q 959 1119 1226 758 
Q 1494 397 1959 397 
Q 2419 397 2687 759 
Q 2956 1122 2956 1747 
Q 2956 2369 2687 2733 
Q 2419 3097 1959 3097 
z
M 1959 3584 
Q 2709 3584 3137 3096 
Q 3566 2609 3566 1747 
Q 3566 888 3137 398 
Q 2709 -91 1959 -91 
Q 1206 -91 779 398 
Q 353 888 353 1747 
Q 353 2609 779 3096 
Q 1206 3584 1959 3584 
z
" transform="scale(0.015625)"/>
      <path id="DejaVuSans-64" d="M 2906 2969 
L 2906 4863 
L 3481 4863 
L 3481 0 
L 2906 0 
L 2906 525 
Q 2725 213 2448 61 
Q 2172 -91 1784 -91 
Q 1150 -91 751 415 
Q 353 922 353 1747 
Q 353 2572 751 3078 
Q 1150 3584 1784 3584 
Q 2172 3584 2448 3432 
Q 2725 3281 2906 2969 
z
M 947 1747 
Q 947 1113 1208 752 
Q 1469 391 1925 391 
Q 2381 391 2643 752 
Q 2906 1113 2906 1747 
Q 2906 2381 2643 2742 
Q 2381 3103 1925 3103 
Q 1469 3103 1208 2742 
Q 947 2381 947 1747 
z
" transform="scale(0.015625)"/>
     </defs>
     <use xlink:href="#DejaVuSans-52"/>
     <use xlink:href="#DejaVuSans-65" transform="translate(64.982422 0)"/>
     <use xlink:href="#DejaVuSans-67" transform="translate(126.505859 0)"/>
     <use xlink:href="#DejaVuSans-69" transform="translate(189.982422 0)"/>
     <use xlink:href="#DejaVuSans-73" transform="translate(217.765625 0)"/>
     <use xlink:href="#DejaVuSans-74" transform="translate(269.865234 0)"/>
     <use xlink:href="#DejaVuSans-65" transform="translate(309.074219 0)"/>
     <use xlink:href="#DejaVuSans-72" transform="translate(370.597656 0)"/>
     <use xlink:href="#DejaVuSans-20" transform="translate(411.710938 0)"/>
     <use xlink:href="#DejaVuSans-46" transform="translate(443.498047 0)"/>
     <use xlink:href="#DejaVuSans-61" transform="translate(491.892578 0)"/>
     <use xlink:href="#DejaVuSans-75" transform="translate(553.171875 0)"/>
     <use xlink:href="#DejaVuSans-6c" transform="translate(616.550781 0)"/>
     <use xlink:href="#DejaVuSans-74" transform="translate(644.333984 0)"/>
     <use xlink:href="#DejaVuSans-6c" transform="translate(683.542969 0)"/>
     <use xlink:href="#DejaVuSans-6f" transform="translate(711.326172 0)"/>
     <use xlink:href="#DejaVuSans-61" transform="translate(772.507812 0)"/>
     <use xlink:href="#DejaVuSans-64" transform="translate(833.787109 0)"/>
    </g>
   </g>
  </g>
 </g>
 <defs>
  <clipPath id="p71ebb11ecf">
   <rect x="72" y="51.84" width="446.4" height="332.64"/>
  </clipPath>
 </defs>
</svg>
