<?xml version="1.0" encoding="utf-8" standalone="no"?>
<!DOCTYPE svg PUBLIC "-//W3C//DTD SVG 1.1//EN"
  "http://www.w3.org/Graphics/SVG/1.1/DTD/svg11.dtd">
<svg xmlns:xlink="http://www.w3.org/1999/xlink" width="576pt" height="432pt" viewBox="0 0 576 432" xmlns="http://www.w3.org/2000/svg" version="1.1">
 <metadata>
  <rdf:RDF xmlns:dc="http://purl.org/dc/elements/1.1/" xmlns:cc="http://creativecommons.org/ns#" xmlns:rdf="http://www.w3.org/1999/02/22-rdf-syntax-ns#">
   <cc:Work>
    <dc:type rdf:resource="http://purl.org/dc/dcmitype/StillImage"/>
    <dc:date>2025-06-10T03:16:26.324047</dc:date>
    <dc:format>image/svg+xml</dc:format>
    <dc:creator>
     <cc:Agent>
      <dc:title>Matplotlib v3.10.3, https://matplotlib.org/</dc:title>
     </cc:Agent>
    </dc:creator>
   </cc:Work>
  </rdf:RDF>
 </metadata>
 <defs>
  <style type="text/css">*{stroke-linejoin: round; stroke-linecap: butt}</style>
 </defs>
 <g id="figure_1">
  <g id="patch_1">
   <path d="M 0 432 
L 576 432 
L 576 0 
L 0 0 
z
" style="fill: #ffffff"/>
  </g>
  <g id="axes_1">
   <g id="patch_2">
    <path d="M 72 384.48 
L 518.4 384.48 
L 518.4 51.84 
L 72 51.84 
z
" style="fill: #ffffff"/>
   </g>
   <g id="FillBetweenPolyCollection_1">
    <path d="M 353.816304 301.181024 
L 236.583696 301.181024 
L 217.173165 298.782361 
L 199.820697 296.383698 
L 187.875097 293.985035 
L 183.6 291.586372 
L 187.281558 289.187709 
L 197.145253 286.789046 
L 210.132928 284.390383 
L 223.113379 281.99172 
L 233.915216 279.593057 
L 241.766514 277.194394 
L 247.106736 274.79573 
L 251.027707 272.397067 
L 254.669889 269.998404 
L 258.800869 267.599741 
L 263.657671 265.201078 
L 269.021147 262.802415 
L 274.425678 260.403752 
L 279.388037 258.005089 
L 283.564471 255.606426 
L 286.801277 253.207763 
L 289.09946 250.8091 
L 290.541565 248.410437 
L 291.226346 246.011774 
L 291.239659 243.613111 
L 290.669211 241.214448 
L 289.648386 238.815785 
L 288.394676 236.417122 
L 287.204276 234.018459 
L 286.38689 231.619796 
L 286.165323 229.221133 
L 286.59468 226.822469 
L 287.549902 224.423806 
L 288.789186 222.025143 
L 290.054871 219.62648 
L 291.156132 217.227817 
L 291.998334 214.829154 
L 292.562545 212.430491 
L 292.866568 210.031828 
L 292.940106 207.633165 
L 292.8259 205.234502 
L 292.593954 202.835839 
L 292.345378 200.437176 
L 292.192022 198.038513 
L 292.218984 195.63985 
L 292.451887 193.241187 
L 292.848683 190.842524 
L 293.319785 188.443861 
L 293.764251 186.045198 
L 294.104164 183.646535 
L 294.304748 181.247872 
L 294.376917 178.849208 
L 294.365589 176.450545 
L 294.329904 174.051882 
L 294.322211 171.653219 
L 294.372442 169.254556 
L 294.482621 166.855893 
L 294.632354 164.45723 
L 294.791452 162.058567 
L 294.933113 159.659904 
L 295.042002 157.261241 
L 295.115352 154.862578 
L 295.159009 152.463915 
L 295.182078 150.065252 
L 295.192933 147.666589 
L 295.197489 145.267926 
L 295.199197 142.869263 
L 295.199769 140.4706 
L 295.19994 138.071937 
L 295.199986 135.673274 
L 295.199997 133.274611 
L 295.199999 130.875947 
L 295.2 128.477284 
L 295.2 126.078621 
L 295.2 123.679958 
L 295.2 121.281295 
L 295.2 118.882632 
L 295.2 116.483969 
L 295.2 114.085306 
L 295.2 111.686643 
L 295.2 109.28798 
L 295.2 106.889317 
L 295.2 104.490654 
L 295.2 102.091991 
L 295.199998 99.693328 
L 295.199989 97.294665 
L 295.199953 94.896002 
L 295.199818 92.497339 
L 295.199366 90.098676 
L 295.198018 87.700013 
L 295.194438 85.30135 
L 295.186 82.902686 
L 295.168388 80.504023 
L 295.135962 78.10536 
L 295.083629 75.706697 
L 295.01029 73.308034 
L 294.922559 70.909371 
L 294.836014 68.510708 
L 294.771617 66.112045 
L 294.747712 63.713382 
L 295.652288 63.713382 
L 295.652288 63.713382 
L 295.628383 66.112045 
L 295.563986 68.510708 
L 295.477441 70.909371 
L 295.38971 73.308034 
L 295.316371 75.706697 
L 295.264038 78.10536 
L 295.231612 80.504023 
L 295.214 82.902686 
L 295.205562 85.30135 
L 295.201982 87.700013 
L 295.200634 90.098676 
L 295.200182 92.497339 
L 295.200047 94.896002 
L 295.200011 97.294665 
L 295.200002 99.693328 
L 295.2 102.091991 
L 295.2 104.490654 
L 295.2 106.889317 
L 295.2 109.28798 
L 295.2 111.686643 
L 295.2 114.085306 
L 295.2 116.483969 
L 295.2 118.882632 
L 295.2 121.281295 
L 295.2 123.679958 
L 295.2 126.078621 
L 295.2 128.477284 
L 295.200001 130.875947 
L 295.200003 133.274611 
L 295.200014 135.673274 
L 295.20006 138.071937 
L 295.200231 140.4706 
L 295.200803 142.869263 
L 295.202511 145.267926 
L 295.207067 147.666589 
L 295.217922 150.065252 
L 295.240991 152.463915 
L 295.284648 154.862578 
L 295.357998 157.261241 
L 295.466887 159.659904 
L 295.608548 162.058567 
L 295.767646 164.45723 
L 295.917379 166.855893 
L 296.027558 169.254556 
L 296.077789 171.653219 
L 296.070096 174.051882 
L 296.034411 176.450545 
L 296.023083 178.849208 
L 296.095252 181.247872 
L 296.295836 183.646535 
L 296.635749 186.045198 
L 297.080215 188.443861 
L 297.551317 190.842524 
L 297.948113 193.241187 
L 298.181016 195.63985 
L 298.207978 198.038513 
L 298.054622 200.437176 
L 297.806046 202.835839 
L 297.5741 205.234502 
L 297.459894 207.633165 
L 297.533432 210.031828 
L 297.837455 212.430491 
L 298.401666 214.829154 
L 299.243868 217.227817 
L 300.345129 219.62648 
L 301.610814 222.025143 
L 302.850098 224.423806 
L 303.80532 226.822469 
L 304.234677 229.221133 
L 304.01311 231.619796 
L 303.195724 234.018459 
L 302.005324 236.417122 
L 300.751614 238.815785 
L 299.730789 241.214448 
L 299.160341 243.613111 
L 299.173654 246.011774 
L 299.858435 248.410437 
L 301.30054 250.8091 
L 303.598723 253.207763 
L 306.835529 255.606426 
L 311.011963 258.005089 
L 315.974322 260.403752 
L 321.378853 262.802415 
L 326.742329 265.201078 
L 331.599131 267.599741 
L 335.730111 269.998404 
L 339.372293 272.397067 
L 343.293264 274.79573 
L 348.633486 277.194394 
L 356.484784 279.593057 
L 367.286621 281.99172 
L 380.267072 284.390383 
L 393.254747 286.789046 
L 403.118442 289.187709 
L 406.8 291.586372 
L 402.524903 293.985035 
L 390.579303 296.383698 
L 373.226835 298.782361 
L 353.816304 301.181024 
z
" clip-path="url(#pcd87019377)" style="fill: #1f77b4; fill-opacity: 0.3"/>
   </g>
   <g id="matplotlib.axis_1">
    <g id="xtick_1">
     <g id="line2d_1">
      <defs>
       <path id="m09c40b77e5" d="M 0 0 
L 0 3.5 
" style="stroke: #000000; stroke-width: 0.8"/>
      </defs>
      <g>
       <use xlink:href="#m09c40b77e5" x="295.2" y="384.48" style="stroke: #000000; stroke-width: 0.8"/>
      </g>
     </g>
     <g id="text_1">
      <!-- 1 -->
      <g transform="translate(292.01875 399.078438) scale(0.1 -0.1)">
       <defs>
        <path id="DejaVuSans-31" d="M 794 531 
L 1825 531 
L 1825 4091 
L 703 3866 
L 703 4441 
L 1819 4666 
L 2450 4666 
L 2450 531 
L 3481 531 
L 3481 0 
L 794 0 
L 794 531 
z
" transform="scale(0.015625)"/>
       </defs>
       <use xlink:href="#DejaVuSans-31"/>
      </g>
     </g>
    </g>
   </g>
   <g id="matplotlib.axis_2">
    <g id="ytick_1">
     <g id="line2d_2">
      <defs>
       <path id="m7a8a96a8db" d="M 0 0 
L -3.5 0 
" style="stroke: #000000; stroke-width: 0.8"/>
      </defs>
      <g>
       <use xlink:href="#m7a8a96a8db" x="72" y="384.48" style="stroke: #000000; stroke-width: 0.8"/>
      </g>
     </g>
     <g id="text_2">
      <!-- 0 -->
      <g transform="translate(58.6375 388.279219) scale(0.1 -0.1)">
       <defs>
        <path id="DejaVuSans-30" d="M 2034 4250 
Q 1547 4250 1301 3770 
Q 1056 3291 1056 2328 
Q 1056 1369 1301 889 
Q 1547 409 2034 409 
Q 2525 409 2770 889 
Q 3016 1369 3016 2328 
Q 3016 3291 2770 3770 
Q 2525 4250 2034 4250 
z
M 2034 4750 
Q 2819 4750 3233 4129 
Q 3647 3509 3647 2328 
Q 3647 1150 3233 529 
Q 2819 -91 2034 -91 
Q 1250 -91 836 529 
Q 422 1150 422 2328 
Q 422 3509 836 4129 
Q 1250 4750 2034 4750 
z
" transform="scale(0.015625)"/>
       </defs>
       <use xlink:href="#DejaVuSans-30"/>
      </g>
     </g>
    </g>
    <g id="ytick_2">
     <g id="line2d_3">
      <g>
       <use xlink:href="#m7a8a96a8db" x="72" y="346.292209" style="stroke: #000000; stroke-width: 0.8"/>
      </g>
     </g>
     <g id="text_3">
      <!-- 5 -->
      <g transform="translate(58.6375 350.091427) scale(0.1 -0.1)">
       <defs>
        <path id="DejaVuSans-35" d="M 691 4666 
L 3169 4666 
L 3169 4134 
L 1269 4134 
L 1269 2991 
Q 1406 3038 1543 3061 
Q 1681 3084 1819 3084 
Q 2600 3084 3056 2656 
Q 3513 2228 3513 1497 
Q 3513 744 3044 326 
Q 2575 -91 1722 -91 
Q 1428 -91 1123 -41 
Q 819 9 494 109 
L 494 744 
Q 775 591 1075 516 
Q 1375 441 1709 441 
Q 2250 441 2565 725 
Q 2881 1009 2881 1497 
Q 2881 1984 2565 2268 
Q 2250 2553 1709 2553 
Q 1456 2553 1204 2497 
Q 953 2441 691 2322 
L 691 4666 
z
" transform="scale(0.015625)"/>
       </defs>
       <use xlink:href="#DejaVuSans-35"/>
      </g>
     </g>
    </g>
    <g id="ytick_3">
     <g id="line2d_4">
      <g>
       <use xlink:href="#m7a8a96a8db" x="72" y="308.104417" style="stroke: #000000; stroke-width: 0.8"/>
      </g>
     </g>
     <g id="text_4">
      <!-- 10 -->
      <g transform="translate(52.275 311.903636) scale(0.1 -0.1)">
       <use xlink:href="#DejaVuSans-31"/>
       <use xlink:href="#DejaVuSans-30" transform="translate(63.623047 0)"/>
      </g>
     </g>
    </g>
    <g id="ytick_4">
     <g id="line2d_5">
      <g>
       <use xlink:href="#m7a8a96a8db" x="72" y="269.916626" style="stroke: #000000; stroke-width: 0.8"/>
      </g>
     </g>
     <g id="text_5">
      <!-- 15 -->
      <g transform="translate(52.275 273.715844) scale(0.1 -0.1)">
       <use xlink:href="#DejaVuSans-31"/>
       <use xlink:href="#DejaVuSans-35" transform="translate(63.623047 0)"/>
      </g>
     </g>
    </g>
    <g id="ytick_5">
     <g id="line2d_6">
      <g>
       <use xlink:href="#m7a8a96a8db" x="72" y="231.728834" style="stroke: #000000; stroke-width: 0.8"/>
      </g>
     </g>
     <g id="text_6">
      <!-- 20 -->
      <g transform="translate(52.275 235.528053) scale(0.1 -0.1)">
       <defs>
        <path id="DejaVuSans-32" d="M 1228 531 
L 3431 531 
L 3431 0 
L 469 0 
L 469 531 
Q 828 903 1448 1529 
Q 2069 2156 2228 2338 
Q 2531 2678 2651 2914 
Q 2772 3150 2772 3378 
Q 2772 3750 2511 3984 
Q 2250 4219 1831 4219 
Q 1534 4219 1204 4116 
Q 875 4013 500 3803 
L 500 4441 
Q 881 4594 1212 4672 
Q 1544 4750 1819 4750 
Q 2544 4750 2975 4387 
Q 3406 4025 3406 3419 
Q 3406 3131 3298 2873 
Q 3191 2616 2906 2266 
Q 2828 2175 2409 1742 
Q 1991 1309 1228 531 
z
" transform="scale(0.015625)"/>
       </defs>
       <use xlink:href="#DejaVuSans-32"/>
       <use xlink:href="#DejaVuSans-30" transform="translate(63.623047 0)"/>
      </g>
     </g>
    </g>
    <g id="ytick_6">
     <g id="line2d_7">
      <g>
       <use xlink:href="#m7a8a96a8db" x="72" y="193.541043" style="stroke: #000000; stroke-width: 0.8"/>
      </g>
     </g>
     <g id="text_7">
      <!-- 25 -->
      <g transform="translate(52.275 197.340262) scale(0.1 -0.1)">
       <use xlink:href="#DejaVuSans-32"/>
       <use xlink:href="#DejaVuSans-35" transform="translate(63.623047 0)"/>
      </g>
     </g>
    </g>
    <g id="ytick_7">
     <g id="line2d_8">
      <g>
       <use xlink:href="#m7a8a96a8db" x="72" y="155.353251" style="stroke: #000000; stroke-width: 0.8"/>
      </g>
     </g>
     <g id="text_8">
      <!-- 30 -->
      <g transform="translate(52.275 159.15247) scale(0.1 -0.1)">
       <defs>
        <path id="DejaVuSans-33" d="M 2597 2516 
Q 3050 2419 3304 2112 
Q 3559 1806 3559 1356 
Q 3559 666 3084 287 
Q 2609 -91 1734 -91 
Q 1441 -91 1130 -33 
Q 819 25 488 141 
L 488 750 
Q 750 597 1062 519 
Q 1375 441 1716 441 
Q 2309 441 2620 675 
Q 2931 909 2931 1356 
Q 2931 1769 2642 2001 
Q 2353 2234 1838 2234 
L 1294 2234 
L 1294 2753 
L 1863 2753 
Q 2328 2753 2575 2939 
Q 2822 3125 2822 3475 
Q 2822 3834 2567 4026 
Q 2313 4219 1838 4219 
Q 1578 4219 1281 4162 
Q 984 4106 628 3988 
L 628 4550 
Q 988 4650 1302 4700 
Q 1616 4750 1894 4750 
Q 2613 4750 3031 4423 
Q 3450 4097 3450 3541 
Q 3450 3153 3228 2886 
Q 3006 2619 2597 2516 
z
" transform="scale(0.015625)"/>
       </defs>
       <use xlink:href="#DejaVuSans-33"/>
       <use xlink:href="#DejaVuSans-30" transform="translate(63.623047 0)"/>
      </g>
     </g>
    </g>
    <g id="ytick_8">
     <g id="line2d_9">
      <g>
       <use xlink:href="#m7a8a96a8db" x="72" y="117.16546" style="stroke: #000000; stroke-width: 0.8"/>
      </g>
     </g>
     <g id="text_9">
      <!-- 35 -->
      <g transform="translate(52.275 120.964679) scale(0.1 -0.1)">
       <use xlink:href="#DejaVuSans-33"/>
       <use xlink:href="#DejaVuSans-35" transform="translate(63.623047 0)"/>
      </g>
     </g>
    </g>
    <g id="ytick_9">
     <g id="line2d_10">
      <g>
       <use xlink:href="#m7a8a96a8db" x="72" y="78.977669" style="stroke: #000000; stroke-width: 0.8"/>
      </g>
     </g>
     <g id="text_10">
      <!-- 40 -->
      <g transform="translate(52.275 82.776887) scale(0.1 -0.1)">
       <defs>
        <path id="DejaVuSans-34" d="M 2419 4116 
L 825 1625 
L 2419 1625 
L 2419 4116 
z
M 2253 4666 
L 3047 4666 
L 3047 1625 
L 3713 1625 
L 3713 1100 
L 3047 1100 
L 3047 0 
L 2419 0 
L 2419 1100 
L 313 1100 
L 313 1709 
L 2253 4666 
z
" transform="scale(0.015625)"/>
       </defs>
       <use xlink:href="#DejaVuSans-34"/>
       <use xlink:href="#DejaVuSans-30" transform="translate(63.623047 0)"/>
      </g>
     </g>
    </g>
    <g id="text_11">
     <!-- Time (ms) -->
     <g transform="translate(46.195312 243.359219) rotate(-90) scale(0.1 -0.1)">
      <defs>
       <path id="DejaVuSans-54" d="M -19 4666 
L 3928 4666 
L 3928 4134 
L 2272 4134 
L 2272 0 
L 1638 0 
L 1638 4134 
L -19 4134 
L -19 4666 
z
" transform="scale(0.015625)"/>
       <path id="DejaVuSans-69" d="M 603 3500 
L 1178 3500 
L 1178 0 
L 603 0 
L 603 3500 
z
M 603 4863 
L 1178 4863 
L 1178 4134 
L 603 4134 
L 603 4863 
z
" transform="scale(0.015625)"/>
       <path id="DejaVuSans-6d" d="M 3328 2828 
Q 3544 3216 3844 3400 
Q 4144 3584 4550 3584 
Q 5097 3584 5394 3201 
Q 5691 2819 5691 2113 
L 5691 0 
L 5113 0 
L 5113 2094 
Q 5113 2597 4934 2840 
Q 4756 3084 4391 3084 
Q 3944 3084 3684 2787 
Q 3425 2491 3425 1978 
L 3425 0 
L 2847 0 
L 2847 2094 
Q 2847 2600 2669 2842 
Q 2491 3084 2119 3084 
Q 1678 3084 1418 2786 
Q 1159 2488 1159 1978 
L 1159 0 
L 581 0 
L 581 3500 
L 1159 3500 
L 1159 2956 
Q 1356 3278 1631 3431 
Q 1906 3584 2284 3584 
Q 2666 3584 2933 3390 
Q 3200 3197 3328 2828 
z
" transform="scale(0.015625)"/>
       <path id="DejaVuSans-65" d="M 3597 1894 
L 3597 1613 
L 953 1613 
Q 991 1019 1311 708 
Q 1631 397 2203 397 
Q 2534 397 2845 478 
Q 3156 559 3463 722 
L 3463 178 
Q 3153 47 2828 -22 
Q 2503 -91 2169 -91 
Q 1331 -91 842 396 
Q 353 884 353 1716 
Q 353 2575 817 3079 
Q 1281 3584 2069 3584 
Q 2775 3584 3186 3129 
Q 3597 2675 3597 1894 
z
M 3022 2063 
Q 3016 2534 2758 2815 
Q 2500 3097 2075 3097 
Q 1594 3097 1305 2825 
Q 1016 2553 972 2059 
L 3022 2063 
z
" transform="scale(0.015625)"/>
       <path id="DejaVuSans-20" transform="scale(0.015625)"/>
       <path id="DejaVuSans-28" d="M 1984 4856 
Q 1566 4138 1362 3434 
Q 1159 2731 1159 2009 
Q 1159 1288 1364 580 
Q 1569 -128 1984 -844 
L 1484 -844 
Q 1016 -109 783 600 
Q 550 1309 550 2009 
Q 550 2706 781 3412 
Q 1013 4119 1484 4856 
L 1984 4856 
z
" transform="scale(0.015625)"/>
       <path id="DejaVuSans-73" d="M 2834 3397 
L 2834 2853 
Q 2591 2978 2328 3040 
Q 2066 3103 1784 3103 
Q 1356 3103 1142 2972 
Q 928 2841 928 2578 
Q 928 2378 1081 2264 
Q 1234 2150 1697 2047 
L 1894 2003 
Q 2506 1872 2764 1633 
Q 3022 1394 3022 966 
Q 3022 478 2636 193 
Q 2250 -91 1575 -91 
Q 1294 -91 989 -36 
Q 684 19 347 128 
L 347 722 
Q 666 556 975 473 
Q 1284 391 1588 391 
Q 1994 391 2212 530 
Q 2431 669 2431 922 
Q 2431 1156 2273 1281 
Q 2116 1406 1581 1522 
L 1381 1569 
Q 847 1681 609 1914 
Q 372 2147 372 2553 
Q 372 3047 722 3315 
Q 1072 3584 1716 3584 
Q 2034 3584 2315 3537 
Q 2597 3491 2834 3397 
z
" transform="scale(0.015625)"/>
       <path id="DejaVuSans-29" d="M 513 4856 
L 1013 4856 
Q 1481 4119 1714 3412 
Q 1947 2706 1947 2009 
Q 1947 1309 1714 600 
Q 1481 -109 1013 -844 
L 513 -844 
Q 928 -128 1133 580 
Q 1338 1288 1338 2009 
Q 1338 2731 1133 3434 
Q 928 4138 513 4856 
z
" transform="scale(0.015625)"/>
      </defs>
      <use xlink:href="#DejaVuSans-54"/>
      <use xlink:href="#DejaVuSans-69" transform="translate(57.958984 0)"/>
      <use xlink:href="#DejaVuSans-6d" transform="translate(85.742188 0)"/>
      <use xlink:href="#DejaVuSans-65" transform="translate(183.154297 0)"/>
      <use xlink:href="#DejaVuSans-20" transform="translate(244.677734 0)"/>
      <use xlink:href="#DejaVuSans-28" transform="translate(276.464844 0)"/>
      <use xlink:href="#DejaVuSans-6d" transform="translate(315.478516 0)"/>
      <use xlink:href="#DejaVuSans-73" transform="translate(412.890625 0)"/>
      <use xlink:href="#DejaVuSans-29" transform="translate(464.990234 0)"/>
     </g>
    </g>
   </g>
   <g id="LineCollection_1">
    <path d="M 239.4 279.535076 
L 351 279.535076 
" clip-path="url(#pcd87019377)" style="fill: none; stroke: #1f77b4; stroke-width: 1.5"/>
   </g>
   <g id="LineCollection_2">
    <path d="M 239.4 63.713382 
L 351 63.713382 
" clip-path="url(#pcd87019377)" style="fill: none; stroke: #1f77b4; stroke-width: 1.5"/>
   </g>
   <g id="LineCollection_3">
    <path d="M 239.4 301.181024 
L 351 301.181024 
" clip-path="url(#pcd87019377)" style="fill: none; stroke: #1f77b4; stroke-width: 1.5"/>
   </g>
   <g id="LineCollection_4">
    <path d="M 295.2 301.181024 
L 295.2 63.713382 
" clip-path="url(#pcd87019377)" style="fill: none; stroke: #1f77b4; stroke-width: 1.5"/>
   </g>
   <g id="patch_3">
    <path d="M 250.56 293.073893 
L 339.84 293.073893 
L 339.84 272.544268 
L 250.56 272.544268 
L 250.56 293.073893 
z
" clip-path="url(#pcd87019377)" style="fill: #1f77b4; stroke: #000000; stroke-linejoin: miter"/>
   </g>
   <g id="line2d_11">
    <path d="M 295.2 293.073893 
L 295.2 301.181024 
" clip-path="url(#pcd87019377)" style="fill: none; stroke: #000000; stroke-linecap: square"/>
   </g>
   <g id="line2d_12">
    <path d="M 295.2 272.544268 
L 295.2 245.015589 
" clip-path="url(#pcd87019377)" style="fill: none; stroke: #000000; stroke-linecap: square"/>
   </g>
   <g id="line2d_13">
    <path d="M 272.88 301.181024 
L 317.52 301.181024 
" clip-path="url(#pcd87019377)" style="fill: none; stroke: #000000; stroke-linecap: square"/>
   </g>
   <g id="line2d_14">
    <path d="M 272.88 245.015589 
L 317.52 245.015589 
" clip-path="url(#pcd87019377)" style="fill: none; stroke: #000000; stroke-linecap: square"/>
   </g>
   <g id="line2d_15">
    <defs>
     <path id="med6c1f1202" d="M 0 3 
C 0.795609 3 1.55874 2.683901 2.12132 2.12132 
C 2.683901 1.55874 3 0.795609 3 0 
C 3 -0.795609 2.683901 -1.55874 2.12132 -2.12132 
C 1.55874 -2.683901 0.795609 -3 0 -3 
C -0.795609 -3 -1.55874 -2.683901 -2.12132 -2.12132 
C -2.683901 -1.55874 -3 -0.795609 -3 0 
C -3 0.795609 -2.683901 1.55874 -2.12132 2.12132 
C -1.55874 2.683901 -0.795609 3 0 3 
z
" style="stroke: #000000"/>
    </defs>
    <g clip-path="url(#pcd87019377)">
     <use xlink:href="#med6c1f1202" x="295.2" y="235.342598" style="fill-opacity: 0; stroke: #000000"/>
     <use xlink:href="#med6c1f1202" x="295.2" y="196.231625" style="fill-opacity: 0; stroke: #000000"/>
     <use xlink:href="#med6c1f1202" x="295.2" y="168.899164" style="fill-opacity: 0; stroke: #000000"/>
     <use xlink:href="#med6c1f1202" x="295.2" y="226.487995" style="fill-opacity: 0; stroke: #000000"/>
     <use xlink:href="#med6c1f1202" x="295.2" y="225.946996" style="fill-opacity: 0; stroke: #000000"/>
     <use xlink:href="#med6c1f1202" x="295.2" y="213.72672" style="fill-opacity: 0; stroke: #000000"/>
     <use xlink:href="#med6c1f1202" x="295.2" y="224.06957" style="fill-opacity: 0; stroke: #000000"/>
     <use xlink:href="#med6c1f1202" x="295.2" y="63.713382" style="fill-opacity: 0; stroke: #000000"/>
     <use xlink:href="#med6c1f1202" x="295.2" y="230.582735" style="fill-opacity: 0; stroke: #000000"/>
     <use xlink:href="#med6c1f1202" x="295.2" y="233.790685" style="fill-opacity: 0; stroke: #000000"/>
     <use xlink:href="#med6c1f1202" x="295.2" y="229.555529" style="fill-opacity: 0; stroke: #000000"/>
     <use xlink:href="#med6c1f1202" x="295.2" y="193.120954" style="fill-opacity: 0; stroke: #000000"/>
     <use xlink:href="#med6c1f1202" x="295.2" y="229.203285" style="fill-opacity: 0; stroke: #000000"/>
     <use xlink:href="#med6c1f1202" x="295.2" y="200.764103" style="fill-opacity: 0; stroke: #000000"/>
     <use xlink:href="#med6c1f1202" x="295.2" y="215.984016" style="fill-opacity: 0; stroke: #000000"/>
     <use xlink:href="#med6c1f1202" x="295.2" y="232.632762" style="fill-opacity: 0; stroke: #000000"/>
     <use xlink:href="#med6c1f1202" x="295.2" y="197.809017" style="fill-opacity: 0; stroke: #000000"/>
     <use xlink:href="#med6c1f1202" x="295.2" y="230.029164" style="fill-opacity: 0; stroke: #000000"/>
     <use xlink:href="#med6c1f1202" x="295.2" y="221.017907" style="fill-opacity: 0; stroke: #000000"/>
     <use xlink:href="#med6c1f1202" x="295.2" y="223.343666" style="fill-opacity: 0; stroke: #000000"/>
     <use xlink:href="#med6c1f1202" x="295.2" y="196.857003" style="fill-opacity: 0; stroke: #000000"/>
     <use xlink:href="#med6c1f1202" x="295.2" y="190.20815" style="fill-opacity: 0; stroke: #000000"/>
     <use xlink:href="#med6c1f1202" x="295.2" y="227.026138" style="fill-opacity: 0; stroke: #000000"/>
     <use xlink:href="#med6c1f1202" x="295.2" y="230.383433" style="fill-opacity: 0; stroke: #000000"/>
     <use xlink:href="#med6c1f1202" x="295.2" y="230.732293" style="fill-opacity: 0; stroke: #000000"/>
     <use xlink:href="#med6c1f1202" x="295.2" y="197.791107" style="fill-opacity: 0; stroke: #000000"/>
     <use xlink:href="#med6c1f1202" x="295.2" y="232.229209" style="fill-opacity: 0; stroke: #000000"/>
     <use xlink:href="#med6c1f1202" x="295.2" y="228.734835" style="fill-opacity: 0; stroke: #000000"/>
     <use xlink:href="#med6c1f1202" x="295.2" y="230.631371" style="fill-opacity: 0; stroke: #000000"/>
     <use xlink:href="#med6c1f1202" x="295.2" y="174.012608" style="fill-opacity: 0; stroke: #000000"/>
     <use xlink:href="#med6c1f1202" x="295.2" y="237.76524" style="fill-opacity: 0; stroke: #000000"/>
     <use xlink:href="#med6c1f1202" x="295.2" y="210.289926" style="fill-opacity: 0; stroke: #000000"/>
     <use xlink:href="#med6c1f1202" x="295.2" y="228.971683" style="fill-opacity: 0; stroke: #000000"/>
     <use xlink:href="#med6c1f1202" x="295.2" y="230.221898" style="fill-opacity: 0; stroke: #000000"/>
     <use xlink:href="#med6c1f1202" x="295.2" y="232.269635" style="fill-opacity: 0; stroke: #000000"/>
    </g>
   </g>
   <g id="line2d_16">
    <path d="M 250.56 289.19587 
L 339.84 289.19587 
" clip-path="url(#pcd87019377)" style="fill: none; stroke: #ff7f0e"/>
   </g>
   <g id="patch_4">
    <path d="M 72 384.48 
L 72 51.84 
" style="fill: none; stroke: #000000; stroke-width: 0.8; stroke-linejoin: miter; stroke-linecap: square"/>
   </g>
   <g id="patch_5">
    <path d="M 518.4 384.48 
L 518.4 51.84 
" style="fill: none; stroke: #000000; stroke-width: 0.8; stroke-linejoin: miter; stroke-linecap: square"/>
   </g>
   <g id="patch_6">
    <path d="M 72 384.48 
L 518.4 384.48 
" style="fill: none; stroke: #000000; stroke-width: 0.8; stroke-linejoin: miter; stroke-linecap: square"/>
   </g>
   <g id="patch_7">
    <path d="M 72 51.84 
L 518.4 51.84 
" style="fill: none; stroke: #000000; stroke-width: 0.8; stroke-linejoin: miter; stroke-linecap: square"/>
   </g>
   <g id="text_12">
    <!-- Test Method -->
    <g transform="translate(258.975 45.84) scale(0.12 -0.12)">
     <defs>
      <path id="DejaVuSans-74" d="M 1172 4494 
L 1172 3500 
L 2356 3500 
L 2356 3053 
L 1172 3053 
L 1172 1153 
Q 1172 725 1289 603 
Q 1406 481 1766 481 
L 2356 481 
L 2356 0 
L 1766 0 
Q 1100 0 847 248 
Q 594 497 594 1153 
L 594 3053 
L 172 3053 
L 172 3500 
L 594 3500 
L 594 4494 
L 1172 4494 
z
" transform="scale(0.015625)"/>
      <path id="DejaVuSans-4d" d="M 628 4666 
L 1569 4666 
L 2759 1491 
L 3956 4666 
L 4897 4666 
L 4897 0 
L 4281 0 
L 4281 4097 
L 3078 897 
L 2444 897 
L 1241 4097 
L 1241 0 
L 628 0 
L 628 4666 
z
" transform="scale(0.015625)"/>
      <path id="DejaVuSans-68" d="M 3513 2113 
L 3513 0 
L 2938 0 
L 2938 2094 
Q 2938 2591 2744 2837 
Q 2550 3084 2163 3084 
Q 1697 3084 1428 2787 
Q 1159 2491 1159 1978 
L 1159 0 
L 581 0 
L 581 4863 
L 1159 4863 
L 1159 2956 
Q 1366 3272 1645 3428 
Q 1925 3584 2291 3584 
Q 2894 3584 3203 3211 
Q 3513 2838 3513 2113 
z
" transform="scale(0.015625)"/>
      <path id="DejaVuSans-6f" d="M 1959 3097 
Q 1497 3097 1228 2736 
Q 959 2375 959 1747 
Q 959 1119 1226 758 
Q 1494 397 1959 397 
Q 2419 397 2687 759 
Q 2956 1122 2956 1747 
Q 2956 2369 2687 2733 
Q 2419 3097 1959 3097 
z
M 1959 3584 
Q 2709 3584 3137 3096 
Q 3566 2609 3566 1747 
Q 3566 888 3137 398 
Q 2709 -91 1959 -91 
Q 1206 -91 779 398 
Q 353 888 353 1747 
Q 353 2609 779 3096 
Q 1206 3584 1959 3584 
z
" transform="scale(0.015625)"/>
      <path id="DejaVuSans-64" d="M 2906 2969 
L 2906 4863 
L 3481 4863 
L 3481 0 
L 2906 0 
L 2906 525 
Q 2725 213 2448 61 
Q 2172 -91 1784 -91 
Q 1150 -91 751 415 
Q 353 922 353 1747 
Q 353 2572 751 3078 
Q 1150 3584 1784 3584 
Q 2172 3584 2448 3432 
Q 2725 3281 2906 2969 
z
M 947 1747 
Q 947 1113 1208 752 
Q 1469 391 1925 391 
Q 2381 391 2643 752 
Q 2906 1113 2906 1747 
Q 2906 2381 2643 2742 
Q 2381 3103 1925 3103 
Q 1469 3103 1208 2742 
Q 947 2381 947 1747 
z
" transform="scale(0.015625)"/>
     </defs>
     <use xlink:href="#DejaVuSans-54"/>
     <use xlink:href="#DejaVuSans-65" transform="translate(44.083984 0)"/>
     <use xlink:href="#DejaVuSans-73" transform="translate(105.607422 0)"/>
     <use xlink:href="#DejaVuSans-74" transform="translate(157.707031 0)"/>
     <use xlink:href="#DejaVuSans-20" transform="translate(196.916016 0)"/>
     <use xlink:href="#DejaVuSans-4d" transform="translate(228.703125 0)"/>
     <use xlink:href="#DejaVuSans-65" transform="translate(314.982422 0)"/>
     <use xlink:href="#DejaVuSans-74" transform="translate(376.505859 0)"/>
     <use xlink:href="#DejaVuSans-68" transform="translate(415.714844 0)"/>
     <use xlink:href="#DejaVuSans-6f" transform="translate(479.09375 0)"/>
     <use xlink:href="#DejaVuSans-64" transform="translate(540.275391 0)"/>
    </g>
   </g>
  </g>
 </g>
 <defs>
  <clipPath id="pcd87019377">
   <rect x="72" y="51.84" width="446.4" height="332.64"/>
  </clipPath>
 </defs>
</svg>
