<?xml version="1.0" encoding="utf-8" standalone="no"?>
<!DOCTYPE svg PUBLIC "-//W3C//DTD SVG 1.1//EN"
  "http://www.w3.org/Graphics/SVG/1.1/DTD/svg11.dtd">
<svg xmlns:xlink="http://www.w3.org/1999/xlink" width="576pt" height="432pt" viewBox="0 0 576 432" xmlns="http://www.w3.org/2000/svg" version="1.1">
 <metadata>
  <rdf:RDF xmlns:dc="http://purl.org/dc/elements/1.1/" xmlns:cc="http://creativecommons.org/ns#" xmlns:rdf="http://www.w3.org/1999/02/22-rdf-syntax-ns#">
   <cc:Work>
    <dc:type rdf:resource="http://purl.org/dc/dcmitype/StillImage"/>
    <dc:date>2025-06-10T03:16:56.863038</dc:date>
    <dc:format>image/svg+xml</dc:format>
    <dc:creator>
     <cc:Agent>
      <dc:title>Matplotlib v3.10.3, https://matplotlib.org/</dc:title>
     </cc:Agent>
    </dc:creator>
   </cc:Work>
  </rdf:RDF>
 </metadata>
 <defs>
  <style type="text/css">*{stroke-linejoin: round; stroke-linecap: butt}</style>
 </defs>
 <g id="figure_1">
  <g id="patch_1">
   <path d="M 0 432 
L 576 432 
L 576 0 
L 0 0 
z
" style="fill: #ffffff"/>
  </g>
  <g id="axes_1">
   <g id="patch_2">
    <path d="M 72 384.48 
L 518.4 384.48 
L 518.4 51.84 
L 72 51.84 
z
" style="fill: #ffffff"/>
   </g>
   <g id="FillBetweenPolyCollection_1">
    <path d="M 366.274822 382.16561 
L 224.125178 382.16561 
L 187.663188 378.987874 
L 183.6 375.810139 
L 203.413829 372.632403 
L 228.094578 369.454668 
L 246.933169 366.276932 
L 258.409445 363.099197 
L 266.179094 359.921461 
L 273.165604 356.743726 
L 278.859037 353.56599 
L 282.993093 350.388254 
L 286.486812 347.210519 
L 289.388441 344.032783 
L 291.530917 340.855048 
L 293.08068 337.677312 
L 293.951808 334.499577 
L 294.164828 331.321841 
L 294.205975 328.144106 
L 294.397241 324.96637 
L 294.49319 321.788635 
L 294.466956 318.610899 
L 294.523748 315.433163 
L 294.563456 312.255428 
L 294.574006 309.077692 
L 294.690045 305.899957 
L 294.844442 302.722221 
L 294.931232 299.544486 
L 294.868038 296.36675 
L 294.731747 293.189015 
L 294.715645 290.011279 
L 294.751028 286.833544 
L 294.719215 283.655808 
L 294.742661 280.478072 
L 294.899523 277.300337 
L 294.991644 274.122601 
L 294.999683 270.944866 
L 295.056071 267.76713 
L 295.123622 264.589395 
L 295.118097 261.411659 
L 295.093842 258.233924 
L 295.128671 255.056188 
L 295.177762 251.878453 
L 295.196807 248.700717 
L 295.199789 245.522981 
L 295.199994 242.345246 
L 295.2 239.16751 
L 295.2 235.989775 
L 295.2 232.812039 
L 295.2 229.634304 
L 295.199998 226.456568 
L 295.199926 223.278833 
L 295.19856 220.101097 
L 295.187102 216.923362 
L 295.146816 213.745626 
L 295.099067 210.56789 
L 295.111838 207.390155 
L 295.164557 204.212419 
L 295.193442 201.034684 
L 295.199442 197.856948 
L 295.199978 194.679213 
L 295.2 191.501477 
L 295.2 188.323742 
L 295.2 185.146006 
L 295.2 181.968271 
L 295.2 178.790535 
L 295.2 175.612799 
L 295.2 172.435064 
L 295.2 169.257328 
L 295.2 166.079593 
L 295.2 162.901857 
L 295.2 159.724122 
L 295.2 156.546386 
L 295.2 153.368651 
L 295.2 150.190915 
L 295.2 147.01318 
L 295.2 143.835444 
L 295.2 140.657708 
L 295.2 137.479973 
L 295.2 134.302237 
L 295.2 131.124502 
L 295.2 127.946766 
L 295.2 124.769031 
L 295.2 121.591295 
L 295.2 118.41356 
L 295.2 115.235824 
L 295.2 112.058089 
L 295.2 108.880353 
L 295.2 105.702617 
L 295.2 102.524882 
L 295.2 99.347146 
L 295.2 96.169411 
L 295.2 92.991675 
L 295.199993 89.81394 
L 295.199744 86.636204 
L 295.195766 83.458469 
L 295.167021 80.280733 
L 295.077577 77.102998 
L 294.973802 73.925262 
L 294.964575 70.747526 
L 295.032742 67.569791 
L 295.367258 67.569791 
L 295.367258 67.569791 
L 295.435425 70.747526 
L 295.426198 73.925262 
L 295.322423 77.102998 
L 295.232979 80.280733 
L 295.204234 83.458469 
L 295.200256 86.636204 
L 295.200007 89.81394 
L 295.2 92.991675 
L 295.2 96.169411 
L 295.2 99.347146 
L 295.2 102.524882 
L 295.2 105.702617 
L 295.2 108.880353 
L 295.2 112.058089 
L 295.2 115.235824 
L 295.2 118.41356 
L 295.2 121.591295 
L 295.2 124.769031 
L 295.2 127.946766 
L 295.2 131.124502 
L 295.2 134.302237 
L 295.2 137.479973 
L 295.2 140.657708 
L 295.2 143.835444 
L 295.2 147.01318 
L 295.2 150.190915 
L 295.2 153.368651 
L 295.2 156.546386 
L 295.2 159.724122 
L 295.2 162.901857 
L 295.2 166.079593 
L 295.2 169.257328 
L 295.2 172.435064 
L 295.2 175.612799 
L 295.2 178.790535 
L 295.2 181.968271 
L 295.2 185.146006 
L 295.2 188.323742 
L 295.2 191.501477 
L 295.200022 194.679213 
L 295.200558 197.856948 
L 295.206558 201.034684 
L 295.235443 204.212419 
L 295.288162 207.390155 
L 295.300933 210.56789 
L 295.253184 213.745626 
L 295.212898 216.923362 
L 295.20144 220.101097 
L 295.200074 223.278833 
L 295.200002 226.456568 
L 295.2 229.634304 
L 295.2 232.812039 
L 295.2 235.989775 
L 295.2 239.16751 
L 295.200006 242.345246 
L 295.200211 245.522981 
L 295.203193 248.700717 
L 295.222238 251.878453 
L 295.271329 255.056188 
L 295.306158 258.233924 
L 295.281903 261.411659 
L 295.276378 264.589395 
L 295.343929 267.76713 
L 295.400317 270.944866 
L 295.408356 274.122601 
L 295.500477 277.300337 
L 295.657339 280.478072 
L 295.680785 283.655808 
L 295.648972 286.833544 
L 295.684355 290.011279 
L 295.668253 293.189015 
L 295.531962 296.36675 
L 295.468768 299.544486 
L 295.555558 302.722221 
L 295.709955 305.899957 
L 295.825994 309.077692 
L 295.836544 312.255428 
L 295.876252 315.433163 
L 295.933044 318.610899 
L 295.90681 321.788635 
L 296.002759 324.96637 
L 296.194025 328.144106 
L 296.235172 331.321841 
L 296.448192 334.499577 
L 297.31932 337.677312 
L 298.869083 340.855048 
L 301.011559 344.032783 
L 303.913188 347.210519 
L 307.406907 350.388254 
L 311.540963 353.56599 
L 317.234396 356.743726 
L 324.220906 359.921461 
L 331.990555 363.099197 
L 343.466831 366.276932 
L 362.305422 369.454668 
L 386.986171 372.632403 
L 406.8 375.810139 
L 402.736812 378.987874 
L 366.274822 382.16561 
z
" clip-path="url(#pc612953ee1)" style="fill: #1f77b4; fill-opacity: 0.3"/>
   </g>
   <g id="matplotlib.axis_1">
    <g id="xtick_1">
     <g id="line2d_1">
      <defs>
       <path id="m2cef3bcfd1" d="M 0 0 
L 0 3.5 
" style="stroke: #000000; stroke-width: 0.8"/>
      </defs>
      <g>
       <use xlink:href="#m2cef3bcfd1" x="295.2" y="384.48" style="stroke: #000000; stroke-width: 0.8"/>
      </g>
     </g>
     <g id="text_1">
      <!-- 1 -->
      <g transform="translate(292.01875 399.078438) scale(0.1 -0.1)">
       <defs>
        <path id="DejaVuSans-31" d="M 794 531 
L 1825 531 
L 1825 4091 
L 703 3866 
L 703 4441 
L 1819 4666 
L 2450 4666 
L 2450 531 
L 3481 531 
L 3481 0 
L 794 0 
L 794 531 
z
" transform="scale(0.015625)"/>
       </defs>
       <use xlink:href="#DejaVuSans-31"/>
      </g>
     </g>
    </g>
   </g>
   <g id="matplotlib.axis_2">
    <g id="ytick_1">
     <g id="line2d_2">
      <defs>
       <path id="m5938beae3d" d="M 0 0 
L -3.5 0 
" style="stroke: #000000; stroke-width: 0.8"/>
      </defs>
      <g>
       <use xlink:href="#m5938beae3d" x="72" y="384.48" style="stroke: #000000; stroke-width: 0.8"/>
      </g>
     </g>
     <g id="text_2">
      <!-- 0 -->
      <g transform="translate(58.6375 388.279219) scale(0.1 -0.1)">
       <defs>
        <path id="DejaVuSans-30" d="M 2034 4250 
Q 1547 4250 1301 3770 
Q 1056 3291 1056 2328 
Q 1056 1369 1301 889 
Q 1547 409 2034 409 
Q 2525 409 2770 889 
Q 3016 1369 3016 2328 
Q 3016 3291 2770 3770 
Q 2525 4250 2034 4250 
z
M 2034 4750 
Q 2819 4750 3233 4129 
Q 3647 3509 3647 2328 
Q 3647 1150 3233 529 
Q 2819 -91 2034 -91 
Q 1250 -91 836 529 
Q 422 1150 422 2328 
Q 422 3509 836 4129 
Q 1250 4750 2034 4750 
z
" transform="scale(0.015625)"/>
       </defs>
       <use xlink:href="#DejaVuSans-30"/>
      </g>
     </g>
    </g>
    <g id="ytick_2">
     <g id="line2d_3">
      <g>
       <use xlink:href="#m5938beae3d" x="72" y="314.771554" style="stroke: #000000; stroke-width: 0.8"/>
      </g>
     </g>
     <g id="text_3">
      <!-- 1 -->
      <g transform="translate(58.6375 318.570773) scale(0.1 -0.1)">
       <use xlink:href="#DejaVuSans-31"/>
      </g>
     </g>
    </g>
    <g id="ytick_3">
     <g id="line2d_4">
      <g>
       <use xlink:href="#m5938beae3d" x="72" y="245.063109" style="stroke: #000000; stroke-width: 0.8"/>
      </g>
     </g>
     <g id="text_4">
      <!-- 2 -->
      <g transform="translate(58.6375 248.862327) scale(0.1 -0.1)">
       <defs>
        <path id="DejaVuSans-32" d="M 1228 531 
L 3431 531 
L 3431 0 
L 469 0 
L 469 531 
Q 828 903 1448 1529 
Q 2069 2156 2228 2338 
Q 2531 2678 2651 2914 
Q 2772 3150 2772 3378 
Q 2772 3750 2511 3984 
Q 2250 4219 1831 4219 
Q 1534 4219 1204 4116 
Q 875 4013 500 3803 
L 500 4441 
Q 881 4594 1212 4672 
Q 1544 4750 1819 4750 
Q 2544 4750 2975 4387 
Q 3406 4025 3406 3419 
Q 3406 3131 3298 2873 
Q 3191 2616 2906 2266 
Q 2828 2175 2409 1742 
Q 1991 1309 1228 531 
z
" transform="scale(0.015625)"/>
       </defs>
       <use xlink:href="#DejaVuSans-32"/>
      </g>
     </g>
    </g>
    <g id="ytick_4">
     <g id="line2d_5">
      <g>
       <use xlink:href="#m5938beae3d" x="72" y="175.354663" style="stroke: #000000; stroke-width: 0.8"/>
      </g>
     </g>
     <g id="text_5">
      <!-- 3 -->
      <g transform="translate(58.6375 179.153882) scale(0.1 -0.1)">
       <defs>
        <path id="DejaVuSans-33" d="M 2597 2516 
Q 3050 2419 3304 2112 
Q 3559 1806 3559 1356 
Q 3559 666 3084 287 
Q 2609 -91 1734 -91 
Q 1441 -91 1130 -33 
Q 819 25 488 141 
L 488 750 
Q 750 597 1062 519 
Q 1375 441 1716 441 
Q 2309 441 2620 675 
Q 2931 909 2931 1356 
Q 2931 1769 2642 2001 
Q 2353 2234 1838 2234 
L 1294 2234 
L 1294 2753 
L 1863 2753 
Q 2328 2753 2575 2939 
Q 2822 3125 2822 3475 
Q 2822 3834 2567 4026 
Q 2313 4219 1838 4219 
Q 1578 4219 1281 4162 
Q 984 4106 628 3988 
L 628 4550 
Q 988 4650 1302 4700 
Q 1616 4750 1894 4750 
Q 2613 4750 3031 4423 
Q 3450 4097 3450 3541 
Q 3450 3153 3228 2886 
Q 3006 2619 2597 2516 
z
" transform="scale(0.015625)"/>
       </defs>
       <use xlink:href="#DejaVuSans-33"/>
      </g>
     </g>
    </g>
    <g id="ytick_5">
     <g id="line2d_6">
      <g>
       <use xlink:href="#m5938beae3d" x="72" y="105.646217" style="stroke: #000000; stroke-width: 0.8"/>
      </g>
     </g>
     <g id="text_6">
      <!-- 4 -->
      <g transform="translate(58.6375 109.445436) scale(0.1 -0.1)">
       <defs>
        <path id="DejaVuSans-34" d="M 2419 4116 
L 825 1625 
L 2419 1625 
L 2419 4116 
z
M 2253 4666 
L 3047 4666 
L 3047 1625 
L 3713 1625 
L 3713 1100 
L 3047 1100 
L 3047 0 
L 2419 0 
L 2419 1100 
L 313 1100 
L 313 1709 
L 2253 4666 
z
" transform="scale(0.015625)"/>
       </defs>
       <use xlink:href="#DejaVuSans-34"/>
      </g>
     </g>
    </g>
    <g id="text_7">
     <!-- Time (ms) -->
     <g transform="translate(52.557812 243.359219) rotate(-90) scale(0.1 -0.1)">
      <defs>
       <path id="DejaVuSans-54" d="M -19 4666 
L 3928 4666 
L 3928 4134 
L 2272 4134 
L 2272 0 
L 1638 0 
L 1638 4134 
L -19 4134 
L -19 4666 
z
" transform="scale(0.015625)"/>
       <path id="DejaVuSans-69" d="M 603 3500 
L 1178 3500 
L 1178 0 
L 603 0 
L 603 3500 
z
M 603 4863 
L 1178 4863 
L 1178 4134 
L 603 4134 
L 603 4863 
z
" transform="scale(0.015625)"/>
       <path id="DejaVuSans-6d" d="M 3328 2828 
Q 3544 3216 3844 3400 
Q 4144 3584 4550 3584 
Q 5097 3584 5394 3201 
Q 5691 2819 5691 2113 
L 5691 0 
L 5113 0 
L 5113 2094 
Q 5113 2597 4934 2840 
Q 4756 3084 4391 3084 
Q 3944 3084 3684 2787 
Q 3425 2491 3425 1978 
L 3425 0 
L 2847 0 
L 2847 2094 
Q 2847 2600 2669 2842 
Q 2491 3084 2119 3084 
Q 1678 3084 1418 2786 
Q 1159 2488 1159 1978 
L 1159 0 
L 581 0 
L 581 3500 
L 1159 3500 
L 1159 2956 
Q 1356 3278 1631 3431 
Q 1906 3584 2284 3584 
Q 2666 3584 2933 3390 
Q 3200 3197 3328 2828 
z
" transform="scale(0.015625)"/>
       <path id="DejaVuSans-65" d="M 3597 1894 
L 3597 1613 
L 953 1613 
Q 991 1019 1311 708 
Q 1631 397 2203 397 
Q 2534 397 2845 478 
Q 3156 559 3463 722 
L 3463 178 
Q 3153 47 2828 -22 
Q 2503 -91 2169 -91 
Q 1331 -91 842 396 
Q 353 884 353 1716 
Q 353 2575 817 3079 
Q 1281 3584 2069 3584 
Q 2775 3584 3186 3129 
Q 3597 2675 3597 1894 
z
M 3022 2063 
Q 3016 2534 2758 2815 
Q 2500 3097 2075 3097 
Q 1594 3097 1305 2825 
Q 1016 2553 972 2059 
L 3022 2063 
z
" transform="scale(0.015625)"/>
       <path id="DejaVuSans-20" transform="scale(0.015625)"/>
       <path id="DejaVuSans-28" d="M 1984 4856 
Q 1566 4138 1362 3434 
Q 1159 2731 1159 2009 
Q 1159 1288 1364 580 
Q 1569 -128 1984 -844 
L 1484 -844 
Q 1016 -109 783 600 
Q 550 1309 550 2009 
Q 550 2706 781 3412 
Q 1013 4119 1484 4856 
L 1984 4856 
z
" transform="scale(0.015625)"/>
       <path id="DejaVuSans-73" d="M 2834 3397 
L 2834 2853 
Q 2591 2978 2328 3040 
Q 2066 3103 1784 3103 
Q 1356 3103 1142 2972 
Q 928 2841 928 2578 
Q 928 2378 1081 2264 
Q 1234 2150 1697 2047 
L 1894 2003 
Q 2506 1872 2764 1633 
Q 3022 1394 3022 966 
Q 3022 478 2636 193 
Q 2250 -91 1575 -91 
Q 1294 -91 989 -36 
Q 684 19 347 128 
L 347 722 
Q 666 556 975 473 
Q 1284 391 1588 391 
Q 1994 391 2212 530 
Q 2431 669 2431 922 
Q 2431 1156 2273 1281 
Q 2116 1406 1581 1522 
L 1381 1569 
Q 847 1681 609 1914 
Q 372 2147 372 2553 
Q 372 3047 722 3315 
Q 1072 3584 1716 3584 
Q 2034 3584 2315 3537 
Q 2597 3491 2834 3397 
z
" transform="scale(0.015625)"/>
       <path id="DejaVuSans-29" d="M 513 4856 
L 1013 4856 
Q 1481 4119 1714 3412 
Q 1947 2706 1947 2009 
Q 1947 1309 1714 600 
Q 1481 -109 1013 -844 
L 513 -844 
Q 928 -128 1133 580 
Q 1338 1288 1338 2009 
Q 1338 2731 1133 3434 
Q 928 4138 513 4856 
z
" transform="scale(0.015625)"/>
      </defs>
      <use xlink:href="#DejaVuSans-54"/>
      <use xlink:href="#DejaVuSans-69" transform="translate(57.958984 0)"/>
      <use xlink:href="#DejaVuSans-6d" transform="translate(85.742188 0)"/>
      <use xlink:href="#DejaVuSans-65" transform="translate(183.154297 0)"/>
      <use xlink:href="#DejaVuSans-20" transform="translate(244.677734 0)"/>
      <use xlink:href="#DejaVuSans-28" transform="translate(276.464844 0)"/>
      <use xlink:href="#DejaVuSans-6d" transform="translate(315.478516 0)"/>
      <use xlink:href="#DejaVuSans-73" transform="translate(412.890625 0)"/>
      <use xlink:href="#DejaVuSans-29" transform="translate(464.990234 0)"/>
     </g>
    </g>
   </g>
   <g id="LineCollection_1">
    <path d="M 239.4 370.159515 
L 351 370.159515 
" clip-path="url(#pc612953ee1)" style="fill: none; stroke: #1f77b4; stroke-width: 1.5"/>
   </g>
   <g id="LineCollection_2">
    <path d="M 239.4 67.569791 
L 351 67.569791 
" clip-path="url(#pc612953ee1)" style="fill: none; stroke: #1f77b4; stroke-width: 1.5"/>
   </g>
   <g id="LineCollection_3">
    <path d="M 239.4 382.16561 
L 351 382.16561 
" clip-path="url(#pc612953ee1)" style="fill: none; stroke: #1f77b4; stroke-width: 1.5"/>
   </g>
   <g id="LineCollection_4">
    <path d="M 295.2 382.16561 
L 295.2 67.569791 
" clip-path="url(#pc612953ee1)" style="fill: none; stroke: #1f77b4; stroke-width: 1.5"/>
   </g>
   <g id="patch_3">
    <path d="M 250.56 378.491679 
L 339.84 378.491679 
L 339.84 366.984905 
L 250.56 366.984905 
L 250.56 378.491679 
z
" clip-path="url(#pc612953ee1)" style="fill: #1f77b4; stroke: #000000; stroke-linejoin: miter"/>
   </g>
   <g id="line2d_7">
    <path d="M 295.2 378.491679 
L 295.2 382.16561 
" clip-path="url(#pc612953ee1)" style="fill: none; stroke: #000000; stroke-linecap: square"/>
   </g>
   <g id="line2d_8">
    <path d="M 295.2 366.984905 
L 295.2 349.76387 
" clip-path="url(#pc612953ee1)" style="fill: none; stroke: #000000; stroke-linecap: square"/>
   </g>
   <g id="line2d_9">
    <path d="M 272.88 382.16561 
L 317.52 382.16561 
" clip-path="url(#pc612953ee1)" style="fill: none; stroke: #000000; stroke-linecap: square"/>
   </g>
   <g id="line2d_10">
    <path d="M 272.88 349.76387 
L 317.52 349.76387 
" clip-path="url(#pc612953ee1)" style="fill: none; stroke: #000000; stroke-linecap: square"/>
   </g>
   <g id="line2d_11">
    <defs>
     <path id="m04b8b26588" d="M 0 3 
C 0.795609 3 1.55874 2.683901 2.12132 2.12132 
C 2.683901 1.55874 3 0.795609 3 0 
C 3 -0.795609 2.683901 -1.55874 2.12132 -2.12132 
C 1.55874 -2.683901 0.795609 -3 0 -3 
C -0.795609 -3 -1.55874 -2.683901 -2.12132 -2.12132 
C -2.683901 -1.55874 -3 -0.795609 -3 0 
C -3 0.795609 -2.683901 1.55874 -2.12132 2.12132 
C -1.55874 2.683901 -0.795609 3 0 3 
z
" style="stroke: #000000"/>
    </defs>
    <g clip-path="url(#pc612953ee1)">
     <use xlink:href="#m04b8b26588" x="295.2" y="347.944409" style="fill-opacity: 0; stroke: #000000"/>
     <use xlink:href="#m04b8b26588" x="295.2" y="346.989334" style="fill-opacity: 0; stroke: #000000"/>
     <use xlink:href="#m04b8b26588" x="295.2" y="309.43593" style="fill-opacity: 0; stroke: #000000"/>
     <use xlink:href="#m04b8b26588" x="295.2" y="347.965322" style="fill-opacity: 0; stroke: #000000"/>
     <use xlink:href="#m04b8b26588" x="295.2" y="349.623616" style="fill-opacity: 0; stroke: #000000"/>
     <use xlink:href="#m04b8b26588" x="295.2" y="338.23953" style="fill-opacity: 0; stroke: #000000"/>
     <use xlink:href="#m04b8b26588" x="295.2" y="281.66771" style="fill-opacity: 0; stroke: #000000"/>
     <use xlink:href="#m04b8b26588" x="295.2" y="346.577218" style="fill-opacity: 0; stroke: #000000"/>
     <use xlink:href="#m04b8b26588" x="295.2" y="329.63702" style="fill-opacity: 0; stroke: #000000"/>
     <use xlink:href="#m04b8b26588" x="295.2" y="346.584119" style="fill-opacity: 0; stroke: #000000"/>
     <use xlink:href="#m04b8b26588" x="295.2" y="338.211716" style="fill-opacity: 0; stroke: #000000"/>
     <use xlink:href="#m04b8b26588" x="295.2" y="348.51337" style="fill-opacity: 0; stroke: #000000"/>
     <use xlink:href="#m04b8b26588" x="295.2" y="326.169303" style="fill-opacity: 0; stroke: #000000"/>
     <use xlink:href="#m04b8b26588" x="295.2" y="258.237726" style="fill-opacity: 0; stroke: #000000"/>
     <use xlink:href="#m04b8b26588" x="295.2" y="345.836217" style="fill-opacity: 0; stroke: #000000"/>
     <use xlink:href="#m04b8b26588" x="295.2" y="338.523034" style="fill-opacity: 0; stroke: #000000"/>
     <use xlink:href="#m04b8b26588" x="295.2" y="317.43379" style="fill-opacity: 0; stroke: #000000"/>
     <use xlink:href="#m04b8b26588" x="295.2" y="320.076088" style="fill-opacity: 0; stroke: #000000"/>
     <use xlink:href="#m04b8b26588" x="295.2" y="344.416814" style="fill-opacity: 0; stroke: #000000"/>
     <use xlink:href="#m04b8b26588" x="295.2" y="272.523426" style="fill-opacity: 0; stroke: #000000"/>
     <use xlink:href="#m04b8b26588" x="295.2" y="346.982224" style="fill-opacity: 0; stroke: #000000"/>
     <use xlink:href="#m04b8b26588" x="295.2" y="340.973007" style="fill-opacity: 0; stroke: #000000"/>
     <use xlink:href="#m04b8b26588" x="295.2" y="309.686602" style="fill-opacity: 0; stroke: #000000"/>
     <use xlink:href="#m04b8b26588" x="295.2" y="342.681701" style="fill-opacity: 0; stroke: #000000"/>
     <use xlink:href="#m04b8b26588" x="295.2" y="316.149899" style="fill-opacity: 0; stroke: #000000"/>
     <use xlink:href="#m04b8b26588" x="295.2" y="326.034906" style="fill-opacity: 0; stroke: #000000"/>
     <use xlink:href="#m04b8b26588" x="295.2" y="349.03932" style="fill-opacity: 0; stroke: #000000"/>
     <use xlink:href="#m04b8b26588" x="295.2" y="321.148204" style="fill-opacity: 0; stroke: #000000"/>
     <use xlink:href="#m04b8b26588" x="295.2" y="67.569791" style="fill-opacity: 0; stroke: #000000"/>
     <use xlink:href="#m04b8b26588" x="295.2" y="286.672498" style="fill-opacity: 0; stroke: #000000"/>
     <use xlink:href="#m04b8b26588" x="295.2" y="343.635033" style="fill-opacity: 0; stroke: #000000"/>
     <use xlink:href="#m04b8b26588" x="295.2" y="343.683899" style="fill-opacity: 0; stroke: #000000"/>
     <use xlink:href="#m04b8b26588" x="295.2" y="334.642016" style="fill-opacity: 0; stroke: #000000"/>
     <use xlink:href="#m04b8b26588" x="295.2" y="341.146302" style="fill-opacity: 0; stroke: #000000"/>
     <use xlink:href="#m04b8b26588" x="295.2" y="73.859096" style="fill-opacity: 0; stroke: #000000"/>
     <use xlink:href="#m04b8b26588" x="295.2" y="349.157267" style="fill-opacity: 0; stroke: #000000"/>
     <use xlink:href="#m04b8b26588" x="295.2" y="287.469823" style="fill-opacity: 0; stroke: #000000"/>
     <use xlink:href="#m04b8b26588" x="295.2" y="349.052774" style="fill-opacity: 0; stroke: #000000"/>
     <use xlink:href="#m04b8b26588" x="295.2" y="269.310076" style="fill-opacity: 0; stroke: #000000"/>
     <use xlink:href="#m04b8b26588" x="295.2" y="340.659528" style="fill-opacity: 0; stroke: #000000"/>
     <use xlink:href="#m04b8b26588" x="295.2" y="339.279301" style="fill-opacity: 0; stroke: #000000"/>
     <use xlink:href="#m04b8b26588" x="295.2" y="344.821262" style="fill-opacity: 0; stroke: #000000"/>
     <use xlink:href="#m04b8b26588" x="295.2" y="343.176143" style="fill-opacity: 0; stroke: #000000"/>
     <use xlink:href="#m04b8b26588" x="295.2" y="349.373502" style="fill-opacity: 0; stroke: #000000"/>
     <use xlink:href="#m04b8b26588" x="295.2" y="334.14855" style="fill-opacity: 0; stroke: #000000"/>
     <use xlink:href="#m04b8b26588" x="295.2" y="209.532993" style="fill-opacity: 0; stroke: #000000"/>
     <use xlink:href="#m04b8b26588" x="295.2" y="328.808744" style="fill-opacity: 0; stroke: #000000"/>
     <use xlink:href="#m04b8b26588" x="295.2" y="319.286152" style="fill-opacity: 0; stroke: #000000"/>
     <use xlink:href="#m04b8b26588" x="295.2" y="344.375198" style="fill-opacity: 0; stroke: #000000"/>
     <use xlink:href="#m04b8b26588" x="295.2" y="342.235079" style="fill-opacity: 0; stroke: #000000"/>
     <use xlink:href="#m04b8b26588" x="295.2" y="347.024188" style="fill-opacity: 0; stroke: #000000"/>
     <use xlink:href="#m04b8b26588" x="295.2" y="341.203254" style="fill-opacity: 0; stroke: #000000"/>
     <use xlink:href="#m04b8b26588" x="295.2" y="347.958281" style="fill-opacity: 0; stroke: #000000"/>
     <use xlink:href="#m04b8b26588" x="295.2" y="292.293857" style="fill-opacity: 0; stroke: #000000"/>
     <use xlink:href="#m04b8b26588" x="295.2" y="349.477926" style="fill-opacity: 0; stroke: #000000"/>
     <use xlink:href="#m04b8b26588" x="295.2" y="347.790981" style="fill-opacity: 0; stroke: #000000"/>
     <use xlink:href="#m04b8b26588" x="295.2" y="345.762396" style="fill-opacity: 0; stroke: #000000"/>
     <use xlink:href="#m04b8b26588" x="295.2" y="308.508738" style="fill-opacity: 0; stroke: #000000"/>
     <use xlink:href="#m04b8b26588" x="295.2" y="348.432369" style="fill-opacity: 0; stroke: #000000"/>
     <use xlink:href="#m04b8b26588" x="295.2" y="312.893609" style="fill-opacity: 0; stroke: #000000"/>
     <use xlink:href="#m04b8b26588" x="295.2" y="344.72381" style="fill-opacity: 0; stroke: #000000"/>
     <use xlink:href="#m04b8b26588" x="295.2" y="340.59686" style="fill-opacity: 0; stroke: #000000"/>
     <use xlink:href="#m04b8b26588" x="295.2" y="345.706699" style="fill-opacity: 0; stroke: #000000"/>
     <use xlink:href="#m04b8b26588" x="295.2" y="341.6634" style="fill-opacity: 0; stroke: #000000"/>
     <use xlink:href="#m04b8b26588" x="295.2" y="348.948211" style="fill-opacity: 0; stroke: #000000"/>
     <use xlink:href="#m04b8b26588" x="295.2" y="329.066596" style="fill-opacity: 0; stroke: #000000"/>
     <use xlink:href="#m04b8b26588" x="295.2" y="281.614244" style="fill-opacity: 0; stroke: #000000"/>
     <use xlink:href="#m04b8b26588" x="295.2" y="338.470683" style="fill-opacity: 0; stroke: #000000"/>
     <use xlink:href="#m04b8b26588" x="295.2" y="342.046866" style="fill-opacity: 0; stroke: #000000"/>
     <use xlink:href="#m04b8b26588" x="295.2" y="344.535527" style="fill-opacity: 0; stroke: #000000"/>
     <use xlink:href="#m04b8b26588" x="295.2" y="347.944409" style="fill-opacity: 0; stroke: #000000"/>
     <use xlink:href="#m04b8b26588" x="295.2" y="319.976196" style="fill-opacity: 0; stroke: #000000"/>
     <use xlink:href="#m04b8b26588" x="295.2" y="300.638306" style="fill-opacity: 0; stroke: #000000"/>
     <use xlink:href="#m04b8b26588" x="295.2" y="348.585727" style="fill-opacity: 0; stroke: #000000"/>
     <use xlink:href="#m04b8b26588" x="295.2" y="342.806618" style="fill-opacity: 0; stroke: #000000"/>
     <use xlink:href="#m04b8b26588" x="295.2" y="346.62685" style="fill-opacity: 0; stroke: #000000"/>
     <use xlink:href="#m04b8b26588" x="295.2" y="341.647576" style="fill-opacity: 0; stroke: #000000"/>
     <use xlink:href="#m04b8b26588" x="295.2" y="303.63319" style="fill-opacity: 0; stroke: #000000"/>
     <use xlink:href="#m04b8b26588" x="295.2" y="337.233916" style="fill-opacity: 0; stroke: #000000"/>
     <use xlink:href="#m04b8b26588" x="295.2" y="348.522502" style="fill-opacity: 0; stroke: #000000"/>
     <use xlink:href="#m04b8b26588" x="295.2" y="346.779093" style="fill-opacity: 0; stroke: #000000"/>
     <use xlink:href="#m04b8b26588" x="295.2" y="305.759856" style="fill-opacity: 0; stroke: #000000"/>
     <use xlink:href="#m04b8b26588" x="295.2" y="347.915411" style="fill-opacity: 0; stroke: #000000"/>
     <use xlink:href="#m04b8b26588" x="295.2" y="342.631162" style="fill-opacity: 0; stroke: #000000"/>
     <use xlink:href="#m04b8b26588" x="295.2" y="328.012255" style="fill-opacity: 0; stroke: #000000"/>
     <use xlink:href="#m04b8b26588" x="295.2" y="333.282632" style="fill-opacity: 0; stroke: #000000"/>
     <use xlink:href="#m04b8b26588" x="295.2" y="72.64596" style="fill-opacity: 0; stroke: #000000"/>
     <use xlink:href="#m04b8b26588" x="295.2" y="291.269631" style="fill-opacity: 0; stroke: #000000"/>
     <use xlink:href="#m04b8b26588" x="295.2" y="327.365919" style="fill-opacity: 0; stroke: #000000"/>
     <use xlink:href="#m04b8b26588" x="295.2" y="339.140093" style="fill-opacity: 0; stroke: #000000"/>
     <use xlink:href="#m04b8b26588" x="295.2" y="347.038269" style="fill-opacity: 0; stroke: #000000"/>
     <use xlink:href="#m04b8b26588" x="295.2" y="328.976253" style="fill-opacity: 0; stroke: #000000"/>
     <use xlink:href="#m04b8b26588" x="295.2" y="343.259862" style="fill-opacity: 0; stroke: #000000"/>
     <use xlink:href="#m04b8b26588" x="295.2" y="347.986234" style="fill-opacity: 0; stroke: #000000"/>
     <use xlink:href="#m04b8b26588" x="295.2" y="316.086395" style="fill-opacity: 0; stroke: #000000"/>
     <use xlink:href="#m04b8b26588" x="295.2" y="279.752959" style="fill-opacity: 0; stroke: #000000"/>
     <use xlink:href="#m04b8b26588" x="295.2" y="348.502147" style="fill-opacity: 0; stroke: #000000"/>
     <use xlink:href="#m04b8b26588" x="295.2" y="345.399981" style="fill-opacity: 0; stroke: #000000"/>
     <use xlink:href="#m04b8b26588" x="295.2" y="345.670938" style="fill-opacity: 0; stroke: #000000"/>
     <use xlink:href="#m04b8b26588" x="295.2" y="343.217061" style="fill-opacity: 0; stroke: #000000"/>
     <use xlink:href="#m04b8b26588" x="295.2" y="310.061703" style="fill-opacity: 0; stroke: #000000"/>
     <use xlink:href="#m04b8b26588" x="295.2" y="340.233331" style="fill-opacity: 0; stroke: #000000"/>
     <use xlink:href="#m04b8b26588" x="295.2" y="347.824999" style="fill-opacity: 0; stroke: #000000"/>
     <use xlink:href="#m04b8b26588" x="295.2" y="281.319099" style="fill-opacity: 0; stroke: #000000"/>
     <use xlink:href="#m04b8b26588" x="295.2" y="349.366462" style="fill-opacity: 0; stroke: #000000"/>
     <use xlink:href="#m04b8b26588" x="295.2" y="293.583463" style="fill-opacity: 0; stroke: #000000"/>
     <use xlink:href="#m04b8b26588" x="295.2" y="346.29218" style="fill-opacity: 0; stroke: #000000"/>
     <use xlink:href="#m04b8b26588" x="295.2" y="346.103967" style="fill-opacity: 0; stroke: #000000"/>
     <use xlink:href="#m04b8b26588" x="295.2" y="331.868945" style="fill-opacity: 0; stroke: #000000"/>
     <use xlink:href="#m04b8b26588" x="295.2" y="293.778716" style="fill-opacity: 0; stroke: #000000"/>
     <use xlink:href="#m04b8b26588" x="295.2" y="347.031159" style="fill-opacity: 0; stroke: #000000"/>
     <use xlink:href="#m04b8b26588" x="295.2" y="347.777039" style="fill-opacity: 0; stroke: #000000"/>
     <use xlink:href="#m04b8b26588" x="295.2" y="344.702758" style="fill-opacity: 0; stroke: #000000"/>
     <use xlink:href="#m04b8b26588" x="295.2" y="344.814361" style="fill-opacity: 0; stroke: #000000"/>
    </g>
   </g>
   <g id="line2d_12">
    <path d="M 250.56 374.211528 
L 339.84 374.211528 
" clip-path="url(#pc612953ee1)" style="fill: none; stroke: #ff7f0e"/>
   </g>
   <g id="patch_4">
    <path d="M 72 384.48 
L 72 51.84 
" style="fill: none; stroke: #000000; stroke-width: 0.8; stroke-linejoin: miter; stroke-linecap: square"/>
   </g>
   <g id="patch_5">
    <path d="M 518.4 384.48 
L 518.4 51.84 
" style="fill: none; stroke: #000000; stroke-width: 0.8; stroke-linejoin: miter; stroke-linecap: square"/>
   </g>
   <g id="patch_6">
    <path d="M 72 384.48 
L 518.4 384.48 
" style="fill: none; stroke: #000000; stroke-width: 0.8; stroke-linejoin: miter; stroke-linecap: square"/>
   </g>
   <g id="patch_7">
    <path d="M 72 51.84 
L 518.4 51.84 
" style="fill: none; stroke: #000000; stroke-width: 0.8; stroke-linejoin: miter; stroke-linecap: square"/>
   </g>
   <g id="text_8">
    <!-- getExpectedPoints -->
    <g transform="translate(239.3325 45.84) scale(0.12 -0.12)">
     <defs>
      <path id="DejaVuSans-67" d="M 2906 1791 
Q 2906 2416 2648 2759 
Q 2391 3103 1925 3103 
Q 1463 3103 1205 2759 
Q 947 2416 947 1791 
Q 947 1169 1205 825 
Q 1463 481 1925 481 
Q 2391 481 2648 825 
Q 2906 1169 2906 1791 
z
M 3481 434 
Q 3481 -459 3084 -895 
Q 2688 -1331 1869 -1331 
Q 1566 -1331 1297 -1286 
Q 1028 -1241 775 -1147 
L 775 -588 
Q 1028 -725 1275 -790 
Q 1522 -856 1778 -856 
Q 2344 -856 2625 -561 
Q 2906 -266 2906 331 
L 2906 616 
Q 2728 306 2450 153 
Q 2172 0 1784 0 
Q 1141 0 747 490 
Q 353 981 353 1791 
Q 353 2603 747 3093 
Q 1141 3584 1784 3584 
Q 2172 3584 2450 3431 
Q 2728 3278 2906 2969 
L 2906 3500 
L 3481 3500 
L 3481 434 
z
" transform="scale(0.015625)"/>
      <path id="DejaVuSans-74" d="M 1172 4494 
L 1172 3500 
L 2356 3500 
L 2356 3053 
L 1172 3053 
L 1172 1153 
Q 1172 725 1289 603 
Q 1406 481 1766 481 
L 2356 481 
L 2356 0 
L 1766 0 
Q 1100 0 847 248 
Q 594 497 594 1153 
L 594 3053 
L 172 3053 
L 172 3500 
L 594 3500 
L 594 4494 
L 1172 4494 
z
" transform="scale(0.015625)"/>
      <path id="DejaVuSans-45" d="M 628 4666 
L 3578 4666 
L 3578 4134 
L 1259 4134 
L 1259 2753 
L 3481 2753 
L 3481 2222 
L 1259 2222 
L 1259 531 
L 3634 531 
L 3634 0 
L 628 0 
L 628 4666 
z
" transform="scale(0.015625)"/>
      <path id="DejaVuSans-78" d="M 3513 3500 
L 2247 1797 
L 3578 0 
L 2900 0 
L 1881 1375 
L 863 0 
L 184 0 
L 1544 1831 
L 300 3500 
L 978 3500 
L 1906 2253 
L 2834 3500 
L 3513 3500 
z
" transform="scale(0.015625)"/>
      <path id="DejaVuSans-70" d="M 1159 525 
L 1159 -1331 
L 581 -1331 
L 581 3500 
L 1159 3500 
L 1159 2969 
Q 1341 3281 1617 3432 
Q 1894 3584 2278 3584 
Q 2916 3584 3314 3078 
Q 3713 2572 3713 1747 
Q 3713 922 3314 415 
Q 2916 -91 2278 -91 
Q 1894 -91 1617 61 
Q 1341 213 1159 525 
z
M 3116 1747 
Q 3116 2381 2855 2742 
Q 2594 3103 2138 3103 
Q 1681 3103 1420 2742 
Q 1159 2381 1159 1747 
Q 1159 1113 1420 752 
Q 1681 391 2138 391 
Q 2594 391 2855 752 
Q 3116 1113 3116 1747 
z
" transform="scale(0.015625)"/>
      <path id="DejaVuSans-63" d="M 3122 3366 
L 3122 2828 
Q 2878 2963 2633 3030 
Q 2388 3097 2138 3097 
Q 1578 3097 1268 2742 
Q 959 2388 959 1747 
Q 959 1106 1268 751 
Q 1578 397 2138 397 
Q 2388 397 2633 464 
Q 2878 531 3122 666 
L 3122 134 
Q 2881 22 2623 -34 
Q 2366 -91 2075 -91 
Q 1284 -91 818 406 
Q 353 903 353 1747 
Q 353 2603 823 3093 
Q 1294 3584 2113 3584 
Q 2378 3584 2631 3529 
Q 2884 3475 3122 3366 
z
" transform="scale(0.015625)"/>
      <path id="DejaVuSans-64" d="M 2906 2969 
L 2906 4863 
L 3481 4863 
L 3481 0 
L 2906 0 
L 2906 525 
Q 2725 213 2448 61 
Q 2172 -91 1784 -91 
Q 1150 -91 751 415 
Q 353 922 353 1747 
Q 353 2572 751 3078 
Q 1150 3584 1784 3584 
Q 2172 3584 2448 3432 
Q 2725 3281 2906 2969 
z
M 947 1747 
Q 947 1113 1208 752 
Q 1469 391 1925 391 
Q 2381 391 2643 752 
Q 2906 1113 2906 1747 
Q 2906 2381 2643 2742 
Q 2381 3103 1925 3103 
Q 1469 3103 1208 2742 
Q 947 2381 947 1747 
z
" transform="scale(0.015625)"/>
      <path id="DejaVuSans-50" d="M 1259 4147 
L 1259 2394 
L 2053 2394 
Q 2494 2394 2734 2622 
Q 2975 2850 2975 3272 
Q 2975 3691 2734 3919 
Q 2494 4147 2053 4147 
L 1259 4147 
z
M 628 4666 
L 2053 4666 
Q 2838 4666 3239 4311 
Q 3641 3956 3641 3272 
Q 3641 2581 3239 2228 
Q 2838 1875 2053 1875 
L 1259 1875 
L 1259 0 
L 628 0 
L 628 4666 
z
" transform="scale(0.015625)"/>
      <path id="DejaVuSans-6f" d="M 1959 3097 
Q 1497 3097 1228 2736 
Q 959 2375 959 1747 
Q 959 1119 1226 758 
Q 1494 397 1959 397 
Q 2419 397 2687 759 
Q 2956 1122 2956 1747 
Q 2956 2369 2687 2733 
Q 2419 3097 1959 3097 
z
M 1959 3584 
Q 2709 3584 3137 3096 
Q 3566 2609 3566 1747 
Q 3566 888 3137 398 
Q 2709 -91 1959 -91 
Q 1206 -91 779 398 
Q 353 888 353 1747 
Q 353 2609 779 3096 
Q 1206 3584 1959 3584 
z
" transform="scale(0.015625)"/>
      <path id="DejaVuSans-6e" d="M 3513 2113 
L 3513 0 
L 2938 0 
L 2938 2094 
Q 2938 2591 2744 2837 
Q 2550 3084 2163 3084 
Q 1697 3084 1428 2787 
Q 1159 2491 1159 1978 
L 1159 0 
L 581 0 
L 581 3500 
L 1159 3500 
L 1159 2956 
Q 1366 3272 1645 3428 
Q 1925 3584 2291 3584 
Q 2894 3584 3203 3211 
Q 3513 2838 3513 2113 
z
" transform="scale(0.015625)"/>
     </defs>
     <use xlink:href="#DejaVuSans-67"/>
     <use xlink:href="#DejaVuSans-65" transform="translate(63.476562 0)"/>
     <use xlink:href="#DejaVuSans-74" transform="translate(125 0)"/>
     <use xlink:href="#DejaVuSans-45" transform="translate(164.208984 0)"/>
     <use xlink:href="#DejaVuSans-78" transform="translate(227.392578 0)"/>
     <use xlink:href="#DejaVuSans-70" transform="translate(286.572266 0)"/>
     <use xlink:href="#DejaVuSans-65" transform="translate(350.048828 0)"/>
     <use xlink:href="#DejaVuSans-63" transform="translate(411.572266 0)"/>
     <use xlink:href="#DejaVuSans-74" transform="translate(466.552734 0)"/>
     <use xlink:href="#DejaVuSans-65" transform="translate(505.761719 0)"/>
     <use xlink:href="#DejaVuSans-64" transform="translate(567.285156 0)"/>
     <use xlink:href="#DejaVuSans-50" transform="translate(630.761719 0)"/>
     <use xlink:href="#DejaVuSans-6f" transform="translate(687.439453 0)"/>
     <use xlink:href="#DejaVuSans-69" transform="translate(748.621094 0)"/>
     <use xlink:href="#DejaVuSans-6e" transform="translate(776.404297 0)"/>
     <use xlink:href="#DejaVuSans-74" transform="translate(839.783203 0)"/>
     <use xlink:href="#DejaVuSans-73" transform="translate(878.992188 0)"/>
    </g>
   </g>
  </g>
 </g>
 <defs>
  <clipPath id="pc612953ee1">
   <rect x="72" y="51.84" width="446.4" height="332.64"/>
  </clipPath>
 </defs>
</svg>
