<?xml version="1.0" encoding="utf-8" standalone="no"?>
<!DOCTYPE svg PUBLIC "-//W3C//DTD SVG 1.1//EN"
  "http://www.w3.org/Graphics/SVG/1.1/DTD/svg11.dtd">
<svg xmlns:xlink="http://www.w3.org/1999/xlink" width="576pt" height="432pt" viewBox="0 0 576 432" xmlns="http://www.w3.org/2000/svg" version="1.1">
 <metadata>
  <rdf:RDF xmlns:dc="http://purl.org/dc/elements/1.1/" xmlns:cc="http://creativecommons.org/ns#" xmlns:rdf="http://www.w3.org/1999/02/22-rdf-syntax-ns#">
   <cc:Work>
    <dc:type rdf:resource="http://purl.org/dc/dcmitype/StillImage"/>
    <dc:date>2025-06-10T03:16:56.612538</dc:date>
    <dc:format>image/svg+xml</dc:format>
    <dc:creator>
     <cc:Agent>
      <dc:title>Matplotlib v3.10.3, https://matplotlib.org/</dc:title>
     </cc:Agent>
    </dc:creator>
   </cc:Work>
  </rdf:RDF>
 </metadata>
 <defs>
  <style type="text/css">*{stroke-linejoin: round; stroke-linecap: butt}</style>
 </defs>
 <g id="figure_1">
  <g id="patch_1">
   <path d="M 0 432 
L 576 432 
L 576 0 
L 0 0 
z
" style="fill: #ffffff"/>
  </g>
  <g id="axes_1">
   <g id="patch_2">
    <path d="M 72 384.48 
L 518.4 384.48 
L 518.4 51.84 
L 72 51.84 
z
" style="fill: #ffffff"/>
   </g>
   <g id="FillBetweenPolyCollection_1">
    <path d="M 387.058538 358.836938 
L 203.341462 358.836938 
L 195.023847 355.883625 
L 188.696462 352.930311 
L 184.79843 349.976998 
L 183.6 347.023684 
L 185.169739 344.070371 
L 189.366284 341.117057 
L 195.855979 338.163744 
L 204.153339 335.21043 
L 213.677609 332.257117 
L 223.816482 329.303803 
L 233.987579 326.35049 
L 243.689624 323.397176 
L 252.537772 320.443863 
L 260.280705 317.490549 
L 266.800157 314.537236 
L 272.095945 311.583922 
L 276.260989 308.630609 
L 279.451355 305.677295 
L 281.855896 302.723982 
L 283.669213 299.770668 
L 285.070389 296.817355 
L 286.208707 293.864041 
L 287.196443 290.910728 
L 288.107918 287.957414 
L 288.983409 285.004101 
L 289.836214 282.050787 
L 290.661129 279.097474 
L 291.442841 276.14416 
L 292.163085 273.190847 
L 292.805896 270.237533 
L 293.360751 267.28422 
L 293.823761 264.330906 
L 294.197344 261.377593 
L 294.488921 258.424279 
L 294.70917 255.470966 
L 294.870273 252.517652 
L 294.984441 249.564339 
L 295.062862 246.611025 
L 295.115097 243.657712 
L 295.148848 240.704398 
L 295.17001 237.751085 
L 295.182889 234.797771 
L 295.190499 231.844458 
L 295.194866 228.891144 
L 295.197301 225.937831 
L 295.198619 222.984517 
L 295.199312 220.031204 
L 295.199667 217.07789 
L 295.199843 214.124577 
L 295.199928 211.171263 
L 295.199968 208.21795 
L 295.199986 205.264636 
L 295.199994 202.311323 
L 295.199997 199.358009 
L 295.199997 196.404696 
L 295.199994 193.451382 
L 295.199987 190.498069 
L 295.19997 187.544755 
L 295.199934 184.591442 
L 295.199856 181.638128 
L 295.199696 178.684815 
L 295.199373 175.731501 
L 295.198743 172.778188 
L 295.197548 169.824874 
L 295.195345 166.871561 
L 295.191402 163.918247 
L 295.18455 160.964934 
L 295.172985 158.01162 
L 295.154038 155.058307 
L 295.123911 152.104993 
L 295.07743 149.15168 
L 295.007872 146.198366 
L 294.906943 143.245053 
L 294.76501 140.291739 
L 294.57168 137.338426 
L 294.316778 134.385112 
L 293.991742 131.431799 
L 293.591332 128.478485 
L 293.115467 125.525172 
L 292.570886 122.571858 
L 291.972284 119.618545 
L 291.342559 116.665231 
L 290.711908 113.711918 
L 290.115687 110.758604 
L 289.59117 107.805291 
L 289.173597 104.851977 
L 288.892092 101.898664 
L 288.766117 98.94535 
L 288.80308 95.992037 
L 288.997523 93.038723 
L 289.332027 90.08541 
L 289.77965 87.132096 
L 290.307445 84.178783 
L 290.880425 81.225469 
L 291.465326 78.272156 
L 292.033613 75.318842 
L 292.563392 72.365529 
L 293.040139 69.412215 
L 293.45636 66.458902 
L 296.94364 66.458902 
L 296.94364 66.458902 
L 297.359861 69.412215 
L 297.836608 72.365529 
L 298.366387 75.318842 
L 298.934674 78.272156 
L 299.519575 81.225469 
L 300.092555 84.178783 
L 300.62035 87.132096 
L 301.067973 90.08541 
L 301.402477 93.038723 
L 301.59692 95.992037 
L 301.633883 98.94535 
L 301.507908 101.898664 
L 301.226403 104.851977 
L 300.80883 107.805291 
L 300.284313 110.758604 
L 299.688092 113.711918 
L 299.057441 116.665231 
L 298.427716 119.618545 
L 297.829114 122.571858 
L 297.284533 125.525172 
L 296.808668 128.478485 
L 296.408258 131.431799 
L 296.083222 134.385112 
L 295.82832 137.338426 
L 295.63499 140.291739 
L 295.493057 143.245053 
L 295.392128 146.198366 
L 295.32257 149.15168 
L 295.276089 152.104993 
L 295.245962 155.058307 
L 295.227015 158.01162 
L 295.21545 160.964934 
L 295.208598 163.918247 
L 295.204655 166.871561 
L 295.202452 169.824874 
L 295.201257 172.778188 
L 295.200627 175.731501 
L 295.200304 178.684815 
L 295.200144 181.638128 
L 295.200066 184.591442 
L 295.20003 187.544755 
L 295.200013 190.498069 
L 295.200006 193.451382 
L 295.200003 196.404696 
L 295.200003 199.358009 
L 295.200006 202.311323 
L 295.200014 205.264636 
L 295.200032 208.21795 
L 295.200072 211.171263 
L 295.200157 214.124577 
L 295.200333 217.07789 
L 295.200688 220.031204 
L 295.201381 222.984517 
L 295.202699 225.937831 
L 295.205134 228.891144 
L 295.209501 231.844458 
L 295.217111 234.797771 
L 295.22999 237.751085 
L 295.251152 240.704398 
L 295.284903 243.657712 
L 295.337138 246.611025 
L 295.415559 249.564339 
L 295.529727 252.517652 
L 295.69083 255.470966 
L 295.911079 258.424279 
L 296.202656 261.377593 
L 296.576239 264.330906 
L 297.039249 267.28422 
L 297.594104 270.237533 
L 298.236915 273.190847 
L 298.957159 276.14416 
L 299.738871 279.097474 
L 300.563786 282.050787 
L 301.416591 285.004101 
L 302.292082 287.957414 
L 303.203557 290.910728 
L 304.191293 293.864041 
L 305.329611 296.817355 
L 306.730787 299.770668 
L 308.544104 302.723982 
L 310.948645 305.677295 
L 314.139011 308.630609 
L 318.304055 311.583922 
L 323.599843 314.537236 
L 330.119295 317.490549 
L 337.862228 320.443863 
L 346.710376 323.397176 
L 356.412421 326.35049 
L 366.583518 329.303803 
L 376.722391 332.257117 
L 386.246661 335.21043 
L 394.544021 338.163744 
L 401.033716 341.117057 
L 405.230261 344.070371 
L 406.8 347.023684 
L 405.60157 349.976998 
L 401.703538 352.930311 
L 395.376153 355.883625 
L 387.058538 358.836938 
z
" clip-path="url(#p447c0387af)" style="fill: #1f77b4; fill-opacity: 0.3"/>
   </g>
   <g id="matplotlib.axis_1">
    <g id="xtick_1">
     <g id="line2d_1">
      <defs>
       <path id="m984eccb3bf" d="M 0 0 
L 0 3.5 
" style="stroke: #000000; stroke-width: 0.8"/>
      </defs>
      <g>
       <use xlink:href="#m984eccb3bf" x="295.2" y="384.48" style="stroke: #000000; stroke-width: 0.8"/>
      </g>
     </g>
     <g id="text_1">
      <!-- 1 -->
      <g transform="translate(292.01875 399.078438) scale(0.1 -0.1)">
       <defs>
        <path id="DejaVuSans-31" d="M 794 531 
L 1825 531 
L 1825 4091 
L 703 3866 
L 703 4441 
L 1819 4666 
L 2450 4666 
L 2450 531 
L 3481 531 
L 3481 0 
L 794 0 
L 794 531 
z
" transform="scale(0.015625)"/>
       </defs>
       <use xlink:href="#DejaVuSans-31"/>
      </g>
     </g>
    </g>
   </g>
   <g id="matplotlib.axis_2">
    <g id="ytick_1">
     <g id="line2d_2">
      <defs>
       <path id="m2b294bdb88" d="M 0 0 
L -3.5 0 
" style="stroke: #000000; stroke-width: 0.8"/>
      </defs>
      <g>
       <use xlink:href="#m2b294bdb88" x="72" y="384.48" style="stroke: #000000; stroke-width: 0.8"/>
      </g>
     </g>
     <g id="text_2">
      <!-- 0 -->
      <g transform="translate(58.6375 388.279219) scale(0.1 -0.1)">
       <defs>
        <path id="DejaVuSans-30" d="M 2034 4250 
Q 1547 4250 1301 3770 
Q 1056 3291 1056 2328 
Q 1056 1369 1301 889 
Q 1547 409 2034 409 
Q 2525 409 2770 889 
Q 3016 1369 3016 2328 
Q 3016 3291 2770 3770 
Q 2525 4250 2034 4250 
z
M 2034 4750 
Q 2819 4750 3233 4129 
Q 3647 3509 3647 2328 
Q 3647 1150 3233 529 
Q 2819 -91 2034 -91 
Q 1250 -91 836 529 
Q 422 1150 422 2328 
Q 422 3509 836 4129 
Q 1250 4750 2034 4750 
z
" transform="scale(0.015625)"/>
       </defs>
       <use xlink:href="#DejaVuSans-30"/>
      </g>
     </g>
    </g>
    <g id="ytick_2">
     <g id="line2d_3">
      <g>
       <use xlink:href="#m2b294bdb88" x="72" y="331.076875" style="stroke: #000000; stroke-width: 0.8"/>
      </g>
     </g>
     <g id="text_3">
      <!-- 20 -->
      <g transform="translate(52.275 334.876093) scale(0.1 -0.1)">
       <defs>
        <path id="DejaVuSans-32" d="M 1228 531 
L 3431 531 
L 3431 0 
L 469 0 
L 469 531 
Q 828 903 1448 1529 
Q 2069 2156 2228 2338 
Q 2531 2678 2651 2914 
Q 2772 3150 2772 3378 
Q 2772 3750 2511 3984 
Q 2250 4219 1831 4219 
Q 1534 4219 1204 4116 
Q 875 4013 500 3803 
L 500 4441 
Q 881 4594 1212 4672 
Q 1544 4750 1819 4750 
Q 2544 4750 2975 4387 
Q 3406 4025 3406 3419 
Q 3406 3131 3298 2873 
Q 3191 2616 2906 2266 
Q 2828 2175 2409 1742 
Q 1991 1309 1228 531 
z
" transform="scale(0.015625)"/>
       </defs>
       <use xlink:href="#DejaVuSans-32"/>
       <use xlink:href="#DejaVuSans-30" transform="translate(63.623047 0)"/>
      </g>
     </g>
    </g>
    <g id="ytick_3">
     <g id="line2d_4">
      <g>
       <use xlink:href="#m2b294bdb88" x="72" y="277.673749" style="stroke: #000000; stroke-width: 0.8"/>
      </g>
     </g>
     <g id="text_4">
      <!-- 40 -->
      <g transform="translate(52.275 281.472968) scale(0.1 -0.1)">
       <defs>
        <path id="DejaVuSans-34" d="M 2419 4116 
L 825 1625 
L 2419 1625 
L 2419 4116 
z
M 2253 4666 
L 3047 4666 
L 3047 1625 
L 3713 1625 
L 3713 1100 
L 3047 1100 
L 3047 0 
L 2419 0 
L 2419 1100 
L 313 1100 
L 313 1709 
L 2253 4666 
z
" transform="scale(0.015625)"/>
       </defs>
       <use xlink:href="#DejaVuSans-34"/>
       <use xlink:href="#DejaVuSans-30" transform="translate(63.623047 0)"/>
      </g>
     </g>
    </g>
    <g id="ytick_4">
     <g id="line2d_5">
      <g>
       <use xlink:href="#m2b294bdb88" x="72" y="224.270624" style="stroke: #000000; stroke-width: 0.8"/>
      </g>
     </g>
     <g id="text_5">
      <!-- 60 -->
      <g transform="translate(52.275 228.069843) scale(0.1 -0.1)">
       <defs>
        <path id="DejaVuSans-36" d="M 2113 2584 
Q 1688 2584 1439 2293 
Q 1191 2003 1191 1497 
Q 1191 994 1439 701 
Q 1688 409 2113 409 
Q 2538 409 2786 701 
Q 3034 994 3034 1497 
Q 3034 2003 2786 2293 
Q 2538 2584 2113 2584 
z
M 3366 4563 
L 3366 3988 
Q 3128 4100 2886 4159 
Q 2644 4219 2406 4219 
Q 1781 4219 1451 3797 
Q 1122 3375 1075 2522 
Q 1259 2794 1537 2939 
Q 1816 3084 2150 3084 
Q 2853 3084 3261 2657 
Q 3669 2231 3669 1497 
Q 3669 778 3244 343 
Q 2819 -91 2113 -91 
Q 1303 -91 875 529 
Q 447 1150 447 2328 
Q 447 3434 972 4092 
Q 1497 4750 2381 4750 
Q 2619 4750 2861 4703 
Q 3103 4656 3366 4563 
z
" transform="scale(0.015625)"/>
       </defs>
       <use xlink:href="#DejaVuSans-36"/>
       <use xlink:href="#DejaVuSans-30" transform="translate(63.623047 0)"/>
      </g>
     </g>
    </g>
    <g id="ytick_5">
     <g id="line2d_6">
      <g>
       <use xlink:href="#m2b294bdb88" x="72" y="170.867499" style="stroke: #000000; stroke-width: 0.8"/>
      </g>
     </g>
     <g id="text_6">
      <!-- 80 -->
      <g transform="translate(52.275 174.666718) scale(0.1 -0.1)">
       <defs>
        <path id="DejaVuSans-38" d="M 2034 2216 
Q 1584 2216 1326 1975 
Q 1069 1734 1069 1313 
Q 1069 891 1326 650 
Q 1584 409 2034 409 
Q 2484 409 2743 651 
Q 3003 894 3003 1313 
Q 3003 1734 2745 1975 
Q 2488 2216 2034 2216 
z
M 1403 2484 
Q 997 2584 770 2862 
Q 544 3141 544 3541 
Q 544 4100 942 4425 
Q 1341 4750 2034 4750 
Q 2731 4750 3128 4425 
Q 3525 4100 3525 3541 
Q 3525 3141 3298 2862 
Q 3072 2584 2669 2484 
Q 3125 2378 3379 2068 
Q 3634 1759 3634 1313 
Q 3634 634 3220 271 
Q 2806 -91 2034 -91 
Q 1263 -91 848 271 
Q 434 634 434 1313 
Q 434 1759 690 2068 
Q 947 2378 1403 2484 
z
M 1172 3481 
Q 1172 3119 1398 2916 
Q 1625 2713 2034 2713 
Q 2441 2713 2670 2916 
Q 2900 3119 2900 3481 
Q 2900 3844 2670 4047 
Q 2441 4250 2034 4250 
Q 1625 4250 1398 4047 
Q 1172 3844 1172 3481 
z
" transform="scale(0.015625)"/>
       </defs>
       <use xlink:href="#DejaVuSans-38"/>
       <use xlink:href="#DejaVuSans-30" transform="translate(63.623047 0)"/>
      </g>
     </g>
    </g>
    <g id="ytick_6">
     <g id="line2d_7">
      <g>
       <use xlink:href="#m2b294bdb88" x="72" y="117.464374" style="stroke: #000000; stroke-width: 0.8"/>
      </g>
     </g>
     <g id="text_7">
      <!-- 100 -->
      <g transform="translate(45.9125 121.263592) scale(0.1 -0.1)">
       <use xlink:href="#DejaVuSans-31"/>
       <use xlink:href="#DejaVuSans-30" transform="translate(63.623047 0)"/>
       <use xlink:href="#DejaVuSans-30" transform="translate(127.246094 0)"/>
      </g>
     </g>
    </g>
    <g id="ytick_7">
     <g id="line2d_8">
      <g>
       <use xlink:href="#m2b294bdb88" x="72" y="64.061248" style="stroke: #000000; stroke-width: 0.8"/>
      </g>
     </g>
     <g id="text_8">
      <!-- 120 -->
      <g transform="translate(45.9125 67.860467) scale(0.1 -0.1)">
       <use xlink:href="#DejaVuSans-31"/>
       <use xlink:href="#DejaVuSans-32" transform="translate(63.623047 0)"/>
       <use xlink:href="#DejaVuSans-30" transform="translate(127.246094 0)"/>
      </g>
     </g>
    </g>
    <g id="text_9">
     <!-- Time (ms) -->
     <g transform="translate(39.832812 243.359219) rotate(-90) scale(0.1 -0.1)">
      <defs>
       <path id="DejaVuSans-54" d="M -19 4666 
L 3928 4666 
L 3928 4134 
L 2272 4134 
L 2272 0 
L 1638 0 
L 1638 4134 
L -19 4134 
L -19 4666 
z
" transform="scale(0.015625)"/>
       <path id="DejaVuSans-69" d="M 603 3500 
L 1178 3500 
L 1178 0 
L 603 0 
L 603 3500 
z
M 603 4863 
L 1178 4863 
L 1178 4134 
L 603 4134 
L 603 4863 
z
" transform="scale(0.015625)"/>
       <path id="DejaVuSans-6d" d="M 3328 2828 
Q 3544 3216 3844 3400 
Q 4144 3584 4550 3584 
Q 5097 3584 5394 3201 
Q 5691 2819 5691 2113 
L 5691 0 
L 5113 0 
L 5113 2094 
Q 5113 2597 4934 2840 
Q 4756 3084 4391 3084 
Q 3944 3084 3684 2787 
Q 3425 2491 3425 1978 
L 3425 0 
L 2847 0 
L 2847 2094 
Q 2847 2600 2669 2842 
Q 2491 3084 2119 3084 
Q 1678 3084 1418 2786 
Q 1159 2488 1159 1978 
L 1159 0 
L 581 0 
L 581 3500 
L 1159 3500 
L 1159 2956 
Q 1356 3278 1631 3431 
Q 1906 3584 2284 3584 
Q 2666 3584 2933 3390 
Q 3200 3197 3328 2828 
z
" transform="scale(0.015625)"/>
       <path id="DejaVuSans-65" d="M 3597 1894 
L 3597 1613 
L 953 1613 
Q 991 1019 1311 708 
Q 1631 397 2203 397 
Q 2534 397 2845 478 
Q 3156 559 3463 722 
L 3463 178 
Q 3153 47 2828 -22 
Q 2503 -91 2169 -91 
Q 1331 -91 842 396 
Q 353 884 353 1716 
Q 353 2575 817 3079 
Q 1281 3584 2069 3584 
Q 2775 3584 3186 3129 
Q 3597 2675 3597 1894 
z
M 3022 2063 
Q 3016 2534 2758 2815 
Q 2500 3097 2075 3097 
Q 1594 3097 1305 2825 
Q 1016 2553 972 2059 
L 3022 2063 
z
" transform="scale(0.015625)"/>
       <path id="DejaVuSans-20" transform="scale(0.015625)"/>
       <path id="DejaVuSans-28" d="M 1984 4856 
Q 1566 4138 1362 3434 
Q 1159 2731 1159 2009 
Q 1159 1288 1364 580 
Q 1569 -128 1984 -844 
L 1484 -844 
Q 1016 -109 783 600 
Q 550 1309 550 2009 
Q 550 2706 781 3412 
Q 1013 4119 1484 4856 
L 1984 4856 
z
" transform="scale(0.015625)"/>
       <path id="DejaVuSans-73" d="M 2834 3397 
L 2834 2853 
Q 2591 2978 2328 3040 
Q 2066 3103 1784 3103 
Q 1356 3103 1142 2972 
Q 928 2841 928 2578 
Q 928 2378 1081 2264 
Q 1234 2150 1697 2047 
L 1894 2003 
Q 2506 1872 2764 1633 
Q 3022 1394 3022 966 
Q 3022 478 2636 193 
Q 2250 -91 1575 -91 
Q 1294 -91 989 -36 
Q 684 19 347 128 
L 347 722 
Q 666 556 975 473 
Q 1284 391 1588 391 
Q 1994 391 2212 530 
Q 2431 669 2431 922 
Q 2431 1156 2273 1281 
Q 2116 1406 1581 1522 
L 1381 1569 
Q 847 1681 609 1914 
Q 372 2147 372 2553 
Q 372 3047 722 3315 
Q 1072 3584 1716 3584 
Q 2034 3584 2315 3537 
Q 2597 3491 2834 3397 
z
" transform="scale(0.015625)"/>
       <path id="DejaVuSans-29" d="M 513 4856 
L 1013 4856 
Q 1481 4119 1714 3412 
Q 1947 2706 1947 2009 
Q 1947 1309 1714 600 
Q 1481 -109 1013 -844 
L 513 -844 
Q 928 -128 1133 580 
Q 1338 1288 1338 2009 
Q 1338 2731 1133 3434 
Q 928 4138 513 4856 
z
" transform="scale(0.015625)"/>
      </defs>
      <use xlink:href="#DejaVuSans-54"/>
      <use xlink:href="#DejaVuSans-69" transform="translate(57.958984 0)"/>
      <use xlink:href="#DejaVuSans-6d" transform="translate(85.742188 0)"/>
      <use xlink:href="#DejaVuSans-65" transform="translate(183.154297 0)"/>
      <use xlink:href="#DejaVuSans-20" transform="translate(244.677734 0)"/>
      <use xlink:href="#DejaVuSans-28" transform="translate(276.464844 0)"/>
      <use xlink:href="#DejaVuSans-6d" transform="translate(315.478516 0)"/>
      <use xlink:href="#DejaVuSans-73" transform="translate(412.890625 0)"/>
      <use xlink:href="#DejaVuSans-29" transform="translate(464.990234 0)"/>
     </g>
    </g>
   </g>
   <g id="LineCollection_1">
    <path d="M 239.4 331.146699 
L 351 331.146699 
" clip-path="url(#p447c0387af)" style="fill: none; stroke: #1f77b4; stroke-width: 1.5"/>
   </g>
   <g id="LineCollection_2">
    <path d="M 239.4 66.458902 
L 351 66.458902 
" clip-path="url(#p447c0387af)" style="fill: none; stroke: #1f77b4; stroke-width: 1.5"/>
   </g>
   <g id="LineCollection_3">
    <path d="M 239.4 358.836938 
L 351 358.836938 
" clip-path="url(#p447c0387af)" style="fill: none; stroke: #1f77b4; stroke-width: 1.5"/>
   </g>
   <g id="LineCollection_4">
    <path d="M 295.2 358.836938 
L 295.2 66.458902 
" clip-path="url(#p447c0387af)" style="fill: none; stroke: #1f77b4; stroke-width: 1.5"/>
   </g>
   <g id="patch_3">
    <path d="M 250.56 351.571901 
L 339.84 351.571901 
L 339.84 340.042714 
L 250.56 340.042714 
L 250.56 351.571901 
z
" clip-path="url(#p447c0387af)" style="fill: #1f77b4; stroke: #000000; stroke-linejoin: miter"/>
   </g>
   <g id="line2d_9">
    <path d="M 295.2 351.571901 
L 295.2 358.836938 
" clip-path="url(#p447c0387af)" style="fill: none; stroke: #000000; stroke-linecap: square"/>
   </g>
   <g id="line2d_10">
    <path d="M 295.2 340.042714 
L 295.2 324.732124 
" clip-path="url(#p447c0387af)" style="fill: none; stroke: #000000; stroke-linecap: square"/>
   </g>
   <g id="line2d_11">
    <path d="M 272.88 358.836938 
L 317.52 358.836938 
" clip-path="url(#p447c0387af)" style="fill: none; stroke: #000000; stroke-linecap: square"/>
   </g>
   <g id="line2d_12">
    <path d="M 272.88 324.732124 
L 317.52 324.732124 
" clip-path="url(#p447c0387af)" style="fill: none; stroke: #000000; stroke-linecap: square"/>
   </g>
   <g id="line2d_13">
    <defs>
     <path id="me4981decbc" d="M 0 3 
C 0.795609 3 1.55874 2.683901 2.12132 2.12132 
C 2.683901 1.55874 3 0.795609 3 0 
C 3 -0.795609 2.683901 -1.55874 2.12132 -2.12132 
C 1.55874 -2.683901 0.795609 -3 0 -3 
C -0.795609 -3 -1.55874 -2.683901 -2.12132 -2.12132 
C -2.683901 -1.55874 -3 -0.795609 -3 0 
C -3 0.795609 -2.683901 1.55874 -2.12132 2.12132 
C -1.55874 2.683901 -0.795609 3 0 3 
z
" style="stroke: #000000"/>
    </defs>
    <g clip-path="url(#p447c0387af)">
     <use xlink:href="#me4981decbc" x="295.2" y="98.29702" style="fill-opacity: 0; stroke: #000000"/>
     <use xlink:href="#me4981decbc" x="295.2" y="298.576854" style="fill-opacity: 0; stroke: #000000"/>
     <use xlink:href="#me4981decbc" x="295.2" y="102.049415" style="fill-opacity: 0; stroke: #000000"/>
     <use xlink:href="#me4981decbc" x="295.2" y="295.890025" style="fill-opacity: 0; stroke: #000000"/>
     <use xlink:href="#me4981decbc" x="295.2" y="94.879057" style="fill-opacity: 0; stroke: #000000"/>
     <use xlink:href="#me4981decbc" x="295.2" y="299.845464" style="fill-opacity: 0; stroke: #000000"/>
     <use xlink:href="#me4981decbc" x="295.2" y="96.388069" style="fill-opacity: 0; stroke: #000000"/>
     <use xlink:href="#me4981decbc" x="295.2" y="297.283863" style="fill-opacity: 0; stroke: #000000"/>
     <use xlink:href="#me4981decbc" x="295.2" y="81.573522" style="fill-opacity: 0; stroke: #000000"/>
     <use xlink:href="#me4981decbc" x="295.2" y="298.3742" style="fill-opacity: 0; stroke: #000000"/>
     <use xlink:href="#me4981decbc" x="295.2" y="92.80877" style="fill-opacity: 0; stroke: #000000"/>
     <use xlink:href="#me4981decbc" x="295.2" y="295.487302" style="fill-opacity: 0; stroke: #000000"/>
     <use xlink:href="#me4981decbc" x="295.2" y="95.790197" style="fill-opacity: 0; stroke: #000000"/>
     <use xlink:href="#me4981decbc" x="295.2" y="295.558397" style="fill-opacity: 0; stroke: #000000"/>
     <use xlink:href="#me4981decbc" x="295.2" y="99.531492" style="fill-opacity: 0; stroke: #000000"/>
     <use xlink:href="#me4981decbc" x="295.2" y="294.612054" style="fill-opacity: 0; stroke: #000000"/>
     <use xlink:href="#me4981decbc" x="295.2" y="312.213353" style="fill-opacity: 0; stroke: #000000"/>
     <use xlink:href="#me4981decbc" x="295.2" y="103.423549" style="fill-opacity: 0; stroke: #000000"/>
     <use xlink:href="#me4981decbc" x="295.2" y="297.925974" style="fill-opacity: 0; stroke: #000000"/>
     <use xlink:href="#me4981decbc" x="295.2" y="100.89352" style="fill-opacity: 0; stroke: #000000"/>
     <use xlink:href="#me4981decbc" x="295.2" y="295.796824" style="fill-opacity: 0; stroke: #000000"/>
     <use xlink:href="#me4981decbc" x="295.2" y="108.401449" style="fill-opacity: 0; stroke: #000000"/>
     <use xlink:href="#me4981decbc" x="295.2" y="294.408447" style="fill-opacity: 0; stroke: #000000"/>
     <use xlink:href="#me4981decbc" x="295.2" y="66.458902" style="fill-opacity: 0; stroke: #000000"/>
     <use xlink:href="#me4981decbc" x="295.2" y="288.849769" style="fill-opacity: 0; stroke: #000000"/>
     <use xlink:href="#me4981decbc" x="295.2" y="101.097624" style="fill-opacity: 0; stroke: #000000"/>
     <use xlink:href="#me4981decbc" x="295.2" y="300.904798" style="fill-opacity: 0; stroke: #000000"/>
     <use xlink:href="#me4981decbc" x="295.2" y="101.64048" style="fill-opacity: 0; stroke: #000000"/>
     <use xlink:href="#me4981decbc" x="295.2" y="298.789134" style="fill-opacity: 0; stroke: #000000"/>
     <use xlink:href="#me4981decbc" x="295.2" y="92.085206" style="fill-opacity: 0; stroke: #000000"/>
     <use xlink:href="#me4981decbc" x="295.2" y="294.504033" style="fill-opacity: 0; stroke: #000000"/>
     <use xlink:href="#me4981decbc" x="295.2" y="104.466002" style="fill-opacity: 0; stroke: #000000"/>
     <use xlink:href="#me4981decbc" x="295.2" y="295.546577" style="fill-opacity: 0; stroke: #000000"/>
     <use xlink:href="#me4981decbc" x="295.2" y="94.357218" style="fill-opacity: 0; stroke: #000000"/>
     <use xlink:href="#me4981decbc" x="295.2" y="296.987113" style="fill-opacity: 0; stroke: #000000"/>
     <use xlink:href="#me4981decbc" x="295.2" y="101.746867" style="fill-opacity: 0; stroke: #000000"/>
     <use xlink:href="#me4981decbc" x="295.2" y="297.600632" style="fill-opacity: 0; stroke: #000000"/>
     <use xlink:href="#me4981decbc" x="295.2" y="96.993084" style="fill-opacity: 0; stroke: #000000"/>
     <use xlink:href="#me4981decbc" x="295.2" y="298.585118" style="fill-opacity: 0; stroke: #000000"/>
     <use xlink:href="#me4981decbc" x="295.2" y="100.016072" style="fill-opacity: 0; stroke: #000000"/>
     <use xlink:href="#me4981decbc" x="295.2" y="287.496576" style="fill-opacity: 0; stroke: #000000"/>
    </g>
   </g>
   <g id="line2d_14">
    <path d="M 250.56 346.552632 
L 339.84 346.552632 
" clip-path="url(#p447c0387af)" style="fill: none; stroke: #ff7f0e"/>
   </g>
   <g id="patch_4">
    <path d="M 72 384.48 
L 72 51.84 
" style="fill: none; stroke: #000000; stroke-width: 0.8; stroke-linejoin: miter; stroke-linecap: square"/>
   </g>
   <g id="patch_5">
    <path d="M 518.4 384.48 
L 518.4 51.84 
" style="fill: none; stroke: #000000; stroke-width: 0.8; stroke-linejoin: miter; stroke-linecap: square"/>
   </g>
   <g id="patch_6">
    <path d="M 72 384.48 
L 518.4 384.48 
" style="fill: none; stroke: #000000; stroke-width: 0.8; stroke-linejoin: miter; stroke-linecap: square"/>
   </g>
   <g id="patch_7">
    <path d="M 72 51.84 
L 518.4 51.84 
" style="fill: none; stroke: #000000; stroke-width: 0.8; stroke-linejoin: miter; stroke-linecap: square"/>
   </g>
   <g id="text_10">
    <!-- Get Trace With Delay -->
    <g transform="translate(232.04625 45.84) scale(0.12 -0.12)">
     <defs>
      <path id="DejaVuSans-47" d="M 3809 666 
L 3809 1919 
L 2778 1919 
L 2778 2438 
L 4434 2438 
L 4434 434 
Q 4069 175 3628 42 
Q 3188 -91 2688 -91 
Q 1594 -91 976 548 
Q 359 1188 359 2328 
Q 359 3472 976 4111 
Q 1594 4750 2688 4750 
Q 3144 4750 3555 4637 
Q 3966 4525 4313 4306 
L 4313 3634 
Q 3963 3931 3569 4081 
Q 3175 4231 2741 4231 
Q 1884 4231 1454 3753 
Q 1025 3275 1025 2328 
Q 1025 1384 1454 906 
Q 1884 428 2741 428 
Q 3075 428 3337 486 
Q 3600 544 3809 666 
z
" transform="scale(0.015625)"/>
      <path id="DejaVuSans-74" d="M 1172 4494 
L 1172 3500 
L 2356 3500 
L 2356 3053 
L 1172 3053 
L 1172 1153 
Q 1172 725 1289 603 
Q 1406 481 1766 481 
L 2356 481 
L 2356 0 
L 1766 0 
Q 1100 0 847 248 
Q 594 497 594 1153 
L 594 3053 
L 172 3053 
L 172 3500 
L 594 3500 
L 594 4494 
L 1172 4494 
z
" transform="scale(0.015625)"/>
      <path id="DejaVuSans-72" d="M 2631 2963 
Q 2534 3019 2420 3045 
Q 2306 3072 2169 3072 
Q 1681 3072 1420 2755 
Q 1159 2438 1159 1844 
L 1159 0 
L 581 0 
L 581 3500 
L 1159 3500 
L 1159 2956 
Q 1341 3275 1631 3429 
Q 1922 3584 2338 3584 
Q 2397 3584 2469 3576 
Q 2541 3569 2628 3553 
L 2631 2963 
z
" transform="scale(0.015625)"/>
      <path id="DejaVuSans-61" d="M 2194 1759 
Q 1497 1759 1228 1600 
Q 959 1441 959 1056 
Q 959 750 1161 570 
Q 1363 391 1709 391 
Q 2188 391 2477 730 
Q 2766 1069 2766 1631 
L 2766 1759 
L 2194 1759 
z
M 3341 1997 
L 3341 0 
L 2766 0 
L 2766 531 
Q 2569 213 2275 61 
Q 1981 -91 1556 -91 
Q 1019 -91 701 211 
Q 384 513 384 1019 
Q 384 1609 779 1909 
Q 1175 2209 1959 2209 
L 2766 2209 
L 2766 2266 
Q 2766 2663 2505 2880 
Q 2244 3097 1772 3097 
Q 1472 3097 1187 3025 
Q 903 2953 641 2809 
L 641 3341 
Q 956 3463 1253 3523 
Q 1550 3584 1831 3584 
Q 2591 3584 2966 3190 
Q 3341 2797 3341 1997 
z
" transform="scale(0.015625)"/>
      <path id="DejaVuSans-63" d="M 3122 3366 
L 3122 2828 
Q 2878 2963 2633 3030 
Q 2388 3097 2138 3097 
Q 1578 3097 1268 2742 
Q 959 2388 959 1747 
Q 959 1106 1268 751 
Q 1578 397 2138 397 
Q 2388 397 2633 464 
Q 2878 531 3122 666 
L 3122 134 
Q 2881 22 2623 -34 
Q 2366 -91 2075 -91 
Q 1284 -91 818 406 
Q 353 903 353 1747 
Q 353 2603 823 3093 
Q 1294 3584 2113 3584 
Q 2378 3584 2631 3529 
Q 2884 3475 3122 3366 
z
" transform="scale(0.015625)"/>
      <path id="DejaVuSans-57" d="M 213 4666 
L 850 4666 
L 1831 722 
L 2809 4666 
L 3519 4666 
L 4500 722 
L 5478 4666 
L 6119 4666 
L 4947 0 
L 4153 0 
L 3169 4050 
L 2175 0 
L 1381 0 
L 213 4666 
z
" transform="scale(0.015625)"/>
      <path id="DejaVuSans-68" d="M 3513 2113 
L 3513 0 
L 2938 0 
L 2938 2094 
Q 2938 2591 2744 2837 
Q 2550 3084 2163 3084 
Q 1697 3084 1428 2787 
Q 1159 2491 1159 1978 
L 1159 0 
L 581 0 
L 581 4863 
L 1159 4863 
L 1159 2956 
Q 1366 3272 1645 3428 
Q 1925 3584 2291 3584 
Q 2894 3584 3203 3211 
Q 3513 2838 3513 2113 
z
" transform="scale(0.015625)"/>
      <path id="DejaVuSans-44" d="M 1259 4147 
L 1259 519 
L 2022 519 
Q 2988 519 3436 956 
Q 3884 1394 3884 2338 
Q 3884 3275 3436 3711 
Q 2988 4147 2022 4147 
L 1259 4147 
z
M 628 4666 
L 1925 4666 
Q 3281 4666 3915 4102 
Q 4550 3538 4550 2338 
Q 4550 1131 3912 565 
Q 3275 0 1925 0 
L 628 0 
L 628 4666 
z
" transform="scale(0.015625)"/>
      <path id="DejaVuSans-6c" d="M 603 4863 
L 1178 4863 
L 1178 0 
L 603 0 
L 603 4863 
z
" transform="scale(0.015625)"/>
      <path id="DejaVuSans-79" d="M 2059 -325 
Q 1816 -950 1584 -1140 
Q 1353 -1331 966 -1331 
L 506 -1331 
L 506 -850 
L 844 -850 
Q 1081 -850 1212 -737 
Q 1344 -625 1503 -206 
L 1606 56 
L 191 3500 
L 800 3500 
L 1894 763 
L 2988 3500 
L 3597 3500 
L 2059 -325 
z
" transform="scale(0.015625)"/>
     </defs>
     <use xlink:href="#DejaVuSans-47"/>
     <use xlink:href="#DejaVuSans-65" transform="translate(77.490234 0)"/>
     <use xlink:href="#DejaVuSans-74" transform="translate(139.013672 0)"/>
     <use xlink:href="#DejaVuSans-20" transform="translate(178.222656 0)"/>
     <use xlink:href="#DejaVuSans-54" transform="translate(210.009766 0)"/>
     <use xlink:href="#DejaVuSans-72" transform="translate(256.34375 0)"/>
     <use xlink:href="#DejaVuSans-61" transform="translate(297.457031 0)"/>
     <use xlink:href="#DejaVuSans-63" transform="translate(358.736328 0)"/>
     <use xlink:href="#DejaVuSans-65" transform="translate(413.716797 0)"/>
     <use xlink:href="#DejaVuSans-20" transform="translate(475.240234 0)"/>
     <use xlink:href="#DejaVuSans-57" transform="translate(507.027344 0)"/>
     <use xlink:href="#DejaVuSans-69" transform="translate(603.654297 0)"/>
     <use xlink:href="#DejaVuSans-74" transform="translate(631.4375 0)"/>
     <use xlink:href="#DejaVuSans-68" transform="translate(670.646484 0)"/>
     <use xlink:href="#DejaVuSans-20" transform="translate(734.025391 0)"/>
     <use xlink:href="#DejaVuSans-44" transform="translate(765.8125 0)"/>
     <use xlink:href="#DejaVuSans-65" transform="translate(842.814453 0)"/>
     <use xlink:href="#DejaVuSans-6c" transform="translate(904.337891 0)"/>
     <use xlink:href="#DejaVuSans-61" transform="translate(932.121094 0)"/>
     <use xlink:href="#DejaVuSans-79" transform="translate(993.400391 0)"/>
    </g>
   </g>
  </g>
 </g>
 <defs>
  <clipPath id="p447c0387af">
   <rect x="72" y="51.84" width="446.4" height="332.64"/>
  </clipPath>
 </defs>
</svg>
