<?xml version="1.0" encoding="utf-8" standalone="no"?>
<!DOCTYPE svg PUBLIC "-//W3C//DTD SVG 1.1//EN"
  "http://www.w3.org/Graphics/SVG/1.1/DTD/svg11.dtd">
<svg xmlns:xlink="http://www.w3.org/1999/xlink" width="576pt" height="432pt" viewBox="0 0 576 432" xmlns="http://www.w3.org/2000/svg" version="1.1">
 <metadata>
  <rdf:RDF xmlns:dc="http://purl.org/dc/elements/1.1/" xmlns:cc="http://creativecommons.org/ns#" xmlns:rdf="http://www.w3.org/1999/02/22-rdf-syntax-ns#">
   <cc:Work>
    <dc:type rdf:resource="http://purl.org/dc/dcmitype/StillImage"/>
    <dc:date>2025-06-10T03:16:56.368782</dc:date>
    <dc:format>image/svg+xml</dc:format>
    <dc:creator>
     <cc:Agent>
      <dc:title>Matplotlib v3.10.3, https://matplotlib.org/</dc:title>
     </cc:Agent>
    </dc:creator>
   </cc:Work>
  </rdf:RDF>
 </metadata>
 <defs>
  <style type="text/css">*{stroke-linejoin: round; stroke-linecap: butt}</style>
 </defs>
 <g id="figure_1">
  <g id="patch_1">
   <path d="M 0 432 
L 576 432 
L 576 0 
L 0 0 
z
" style="fill: #ffffff"/>
  </g>
  <g id="axes_1">
   <g id="patch_2">
    <path d="M 72 384.48 
L 518.4 384.48 
L 518.4 51.84 
L 72 51.84 
z
" style="fill: #ffffff"/>
   </g>
   <g id="FillBetweenPolyCollection_1">
    <path d="M 363.156064 366.396505 
L 227.243936 366.396505 
L 217.012243 363.370468 
L 207.402687 360.344432 
L 198.914402 357.318395 
L 191.996056 354.292358 
L 187.004297 351.266322 
L 184.173438 348.240285 
L 183.6 345.214249 
L 185.24286 342.188212 
L 188.937188 339.162175 
L 194.418451 336.136139 
L 201.351943 333.110102 
L 209.363516 330.084066 
L 218.068153 327.058029 
L 227.094267 324.031992 
L 236.102808 321.005956 
L 244.801115 317.979919 
L 252.951846 314.953883 
L 260.377495 311.927846 
L 266.960918 308.901809 
L 272.642332 305.875773 
L 277.413262 302.849736 
L 281.308116 299.8237 
L 284.394216 296.797663 
L 286.761235 293.771626 
L 288.511016 290.74559 
L 289.74861 287.719553 
L 290.575133 284.693517 
L 291.082787 281.66748 
L 291.35205 278.641443 
L 291.450813 275.615407 
L 291.435004 272.58937 
L 291.350119 269.563334 
L 291.233072 266.537297 
L 291.113846 263.51126 
L 291.016604 260.485224 
L 290.960167 257.459187 
L 290.957982 254.433151 
L 291.017874 251.407114 
L 291.141941 248.381077 
L 291.326852 245.355041 
L 291.564682 242.329004 
L 291.844221 239.302968 
L 292.15252 236.276931 
L 292.476422 233.250894 
L 292.80379 230.224858 
L 293.124313 227.198821 
L 293.429847 224.172785 
L 293.714393 221.146748 
L 293.973854 218.120711 
L 294.205716 215.094675 
L 294.408765 212.068638 
L 294.58287 209.042602 
L 294.728828 206.016565 
L 294.84823 202.990528 
L 294.943301 199.964492 
L 295.0167 196.938455 
L 295.071259 193.912419 
L 295.109698 190.886382 
L 295.134321 187.860345 
L 295.146743 184.834309 
L 295.147647 181.808272 
L 295.136605 178.782235 
L 295.111961 175.756199 
L 295.070803 172.730162 
L 295.009031 169.704126 
L 294.921551 166.678089 
L 294.80259 163.652052 
L 294.646154 160.626016 
L 294.44661 157.599979 
L 294.199356 154.573943 
L 293.90154 151.547906 
L 293.552784 148.521869 
L 293.15583 145.495833 
L 292.717066 142.469796 
L 292.246844 139.44376 
L 291.759509 136.417723 
L 291.273058 133.391686 
L 290.80833 130.36565 
L 290.387707 127.339613 
L 290.033361 124.313577 
L 289.765188 121.28754 
L 289.598694 118.261503 
L 289.543158 115.235467 
L 289.600416 112.20943 
L 289.764519 109.183394 
L 290.022376 106.157357 
L 290.355307 103.13132 
L 290.741239 100.105284 
L 291.157169 97.079247 
L 291.581507 94.053211 
L 291.995948 91.027174 
L 292.386655 88.001137 
L 292.744709 84.975101 
L 293.065864 81.949064 
L 293.349786 78.923028 
L 293.598985 75.896991 
L 293.817644 72.870954 
L 294.010532 69.844918 
L 294.182137 66.818881 
L 296.217863 66.818881 
L 296.217863 66.818881 
L 296.389468 69.844918 
L 296.582356 72.870954 
L 296.801015 75.896991 
L 297.050214 78.923028 
L 297.334136 81.949064 
L 297.655291 84.975101 
L 298.013345 88.001137 
L 298.404052 91.027174 
L 298.818493 94.053211 
L 299.242831 97.079247 
L 299.658761 100.105284 
L 300.044693 103.13132 
L 300.377624 106.157357 
L 300.635481 109.183394 
L 300.799584 112.20943 
L 300.856842 115.235467 
L 300.801306 118.261503 
L 300.634812 121.28754 
L 300.366639 124.313577 
L 300.012293 127.339613 
L 299.59167 130.36565 
L 299.126942 133.391686 
L 298.640491 136.417723 
L 298.153156 139.44376 
L 297.682934 142.469796 
L 297.24417 145.495833 
L 296.847216 148.521869 
L 296.49846 151.547906 
L 296.200644 154.573943 
L 295.95339 157.599979 
L 295.753846 160.626016 
L 295.59741 163.652052 
L 295.478449 166.678089 
L 295.390969 169.704126 
L 295.329197 172.730162 
L 295.288039 175.756199 
L 295.263395 178.782235 
L 295.252353 181.808272 
L 295.253257 184.834309 
L 295.265679 187.860345 
L 295.290302 190.886382 
L 295.328741 193.912419 
L 295.3833 196.938455 
L 295.456699 199.964492 
L 295.55177 202.990528 
L 295.671172 206.016565 
L 295.81713 209.042602 
L 295.991235 212.068638 
L 296.194284 215.094675 
L 296.426146 218.120711 
L 296.685607 221.146748 
L 296.970153 224.172785 
L 297.275687 227.198821 
L 297.59621 230.224858 
L 297.923578 233.250894 
L 298.24748 236.276931 
L 298.555779 239.302968 
L 298.835318 242.329004 
L 299.073148 245.355041 
L 299.258059 248.381077 
L 299.382126 251.407114 
L 299.442018 254.433151 
L 299.439833 257.459187 
L 299.383396 260.485224 
L 299.286154 263.51126 
L 299.166928 266.537297 
L 299.049881 269.563334 
L 298.964996 272.58937 
L 298.949187 275.615407 
L 299.04795 278.641443 
L 299.317213 281.66748 
L 299.824867 284.693517 
L 300.65139 287.719553 
L 301.888984 290.74559 
L 303.638765 293.771626 
L 306.005784 296.797663 
L 309.091884 299.8237 
L 312.986738 302.849736 
L 317.757668 305.875773 
L 323.439082 308.901809 
L 330.022505 311.927846 
L 337.448154 314.953883 
L 345.598885 317.979919 
L 354.297192 321.005956 
L 363.305733 324.031992 
L 372.331847 327.058029 
L 381.036484 330.084066 
L 389.048057 333.110102 
L 395.981549 336.136139 
L 401.462812 339.162175 
L 405.15714 342.188212 
L 406.8 345.214249 
L 406.226562 348.240285 
L 403.395703 351.266322 
L 398.403944 354.292358 
L 391.485598 357.318395 
L 382.997313 360.344432 
L 373.387757 363.370468 
L 363.156064 366.396505 
z
" clip-path="url(#pd458282010)" style="fill: #1f77b4; fill-opacity: 0.3"/>
   </g>
   <g id="matplotlib.axis_1">
    <g id="xtick_1">
     <g id="line2d_1">
      <defs>
       <path id="m8aafb4d3fa" d="M 0 0 
L 0 3.5 
" style="stroke: #000000; stroke-width: 0.8"/>
      </defs>
      <g>
       <use xlink:href="#m8aafb4d3fa" x="295.2" y="384.48" style="stroke: #000000; stroke-width: 0.8"/>
      </g>
     </g>
     <g id="text_1">
      <!-- 1 -->
      <g transform="translate(292.01875 399.078438) scale(0.1 -0.1)">
       <defs>
        <path id="DejaVuSans-31" d="M 794 531 
L 1825 531 
L 1825 4091 
L 703 3866 
L 703 4441 
L 1819 4666 
L 2450 4666 
L 2450 531 
L 3481 531 
L 3481 0 
L 794 0 
L 794 531 
z
" transform="scale(0.015625)"/>
       </defs>
       <use xlink:href="#DejaVuSans-31"/>
      </g>
     </g>
    </g>
   </g>
   <g id="matplotlib.axis_2">
    <g id="ytick_1">
     <g id="line2d_2">
      <defs>
       <path id="m96ad028f73" d="M 0 0 
L -3.5 0 
" style="stroke: #000000; stroke-width: 0.8"/>
      </defs>
      <g>
       <use xlink:href="#m96ad028f73" x="72" y="384.48" style="stroke: #000000; stroke-width: 0.8"/>
      </g>
     </g>
     <g id="text_2">
      <!-- 0 -->
      <g transform="translate(58.6375 388.279219) scale(0.1 -0.1)">
       <defs>
        <path id="DejaVuSans-30" d="M 2034 4250 
Q 1547 4250 1301 3770 
Q 1056 3291 1056 2328 
Q 1056 1369 1301 889 
Q 1547 409 2034 409 
Q 2525 409 2770 889 
Q 3016 1369 3016 2328 
Q 3016 3291 2770 3770 
Q 2525 4250 2034 4250 
z
M 2034 4750 
Q 2819 4750 3233 4129 
Q 3647 3509 3647 2328 
Q 3647 1150 3233 529 
Q 2819 -91 2034 -91 
Q 1250 -91 836 529 
Q 422 1150 422 2328 
Q 422 3509 836 4129 
Q 1250 4750 2034 4750 
z
" transform="scale(0.015625)"/>
       </defs>
       <use xlink:href="#DejaVuSans-30"/>
      </g>
     </g>
    </g>
    <g id="ytick_2">
     <g id="line2d_3">
      <g>
       <use xlink:href="#m96ad028f73" x="72" y="316.103436" style="stroke: #000000; stroke-width: 0.8"/>
      </g>
     </g>
     <g id="text_3">
      <!-- 5 -->
      <g transform="translate(58.6375 319.902655) scale(0.1 -0.1)">
       <defs>
        <path id="DejaVuSans-35" d="M 691 4666 
L 3169 4666 
L 3169 4134 
L 1269 4134 
L 1269 2991 
Q 1406 3038 1543 3061 
Q 1681 3084 1819 3084 
Q 2600 3084 3056 2656 
Q 3513 2228 3513 1497 
Q 3513 744 3044 326 
Q 2575 -91 1722 -91 
Q 1428 -91 1123 -41 
Q 819 9 494 109 
L 494 744 
Q 775 591 1075 516 
Q 1375 441 1709 441 
Q 2250 441 2565 725 
Q 2881 1009 2881 1497 
Q 2881 1984 2565 2268 
Q 2250 2553 1709 2553 
Q 1456 2553 1204 2497 
Q 953 2441 691 2322 
L 691 4666 
z
" transform="scale(0.015625)"/>
       </defs>
       <use xlink:href="#DejaVuSans-35"/>
      </g>
     </g>
    </g>
    <g id="ytick_3">
     <g id="line2d_4">
      <g>
       <use xlink:href="#m96ad028f73" x="72" y="247.726872" style="stroke: #000000; stroke-width: 0.8"/>
      </g>
     </g>
     <g id="text_4">
      <!-- 10 -->
      <g transform="translate(52.275 251.526091) scale(0.1 -0.1)">
       <use xlink:href="#DejaVuSans-31"/>
       <use xlink:href="#DejaVuSans-30" transform="translate(63.623047 0)"/>
      </g>
     </g>
    </g>
    <g id="ytick_4">
     <g id="line2d_5">
      <g>
       <use xlink:href="#m96ad028f73" x="72" y="179.350309" style="stroke: #000000; stroke-width: 0.8"/>
      </g>
     </g>
     <g id="text_5">
      <!-- 15 -->
      <g transform="translate(52.275 183.149527) scale(0.1 -0.1)">
       <use xlink:href="#DejaVuSans-31"/>
       <use xlink:href="#DejaVuSans-35" transform="translate(63.623047 0)"/>
      </g>
     </g>
    </g>
    <g id="ytick_5">
     <g id="line2d_6">
      <g>
       <use xlink:href="#m96ad028f73" x="72" y="110.973745" style="stroke: #000000; stroke-width: 0.8"/>
      </g>
     </g>
     <g id="text_6">
      <!-- 20 -->
      <g transform="translate(52.275 114.772963) scale(0.1 -0.1)">
       <defs>
        <path id="DejaVuSans-32" d="M 1228 531 
L 3431 531 
L 3431 0 
L 469 0 
L 469 531 
Q 828 903 1448 1529 
Q 2069 2156 2228 2338 
Q 2531 2678 2651 2914 
Q 2772 3150 2772 3378 
Q 2772 3750 2511 3984 
Q 2250 4219 1831 4219 
Q 1534 4219 1204 4116 
Q 875 4013 500 3803 
L 500 4441 
Q 881 4594 1212 4672 
Q 1544 4750 1819 4750 
Q 2544 4750 2975 4387 
Q 3406 4025 3406 3419 
Q 3406 3131 3298 2873 
Q 3191 2616 2906 2266 
Q 2828 2175 2409 1742 
Q 1991 1309 1228 531 
z
" transform="scale(0.015625)"/>
       </defs>
       <use xlink:href="#DejaVuSans-32"/>
       <use xlink:href="#DejaVuSans-30" transform="translate(63.623047 0)"/>
      </g>
     </g>
    </g>
    <g id="text_7">
     <!-- Time (ms) -->
     <g transform="translate(46.195312 243.359219) rotate(-90) scale(0.1 -0.1)">
      <defs>
       <path id="DejaVuSans-54" d="M -19 4666 
L 3928 4666 
L 3928 4134 
L 2272 4134 
L 2272 0 
L 1638 0 
L 1638 4134 
L -19 4134 
L -19 4666 
z
" transform="scale(0.015625)"/>
       <path id="DejaVuSans-69" d="M 603 3500 
L 1178 3500 
L 1178 0 
L 603 0 
L 603 3500 
z
M 603 4863 
L 1178 4863 
L 1178 4134 
L 603 4134 
L 603 4863 
z
" transform="scale(0.015625)"/>
       <path id="DejaVuSans-6d" d="M 3328 2828 
Q 3544 3216 3844 3400 
Q 4144 3584 4550 3584 
Q 5097 3584 5394 3201 
Q 5691 2819 5691 2113 
L 5691 0 
L 5113 0 
L 5113 2094 
Q 5113 2597 4934 2840 
Q 4756 3084 4391 3084 
Q 3944 3084 3684 2787 
Q 3425 2491 3425 1978 
L 3425 0 
L 2847 0 
L 2847 2094 
Q 2847 2600 2669 2842 
Q 2491 3084 2119 3084 
Q 1678 3084 1418 2786 
Q 1159 2488 1159 1978 
L 1159 0 
L 581 0 
L 581 3500 
L 1159 3500 
L 1159 2956 
Q 1356 3278 1631 3431 
Q 1906 3584 2284 3584 
Q 2666 3584 2933 3390 
Q 3200 3197 3328 2828 
z
" transform="scale(0.015625)"/>
       <path id="DejaVuSans-65" d="M 3597 1894 
L 3597 1613 
L 953 1613 
Q 991 1019 1311 708 
Q 1631 397 2203 397 
Q 2534 397 2845 478 
Q 3156 559 3463 722 
L 3463 178 
Q 3153 47 2828 -22 
Q 2503 -91 2169 -91 
Q 1331 -91 842 396 
Q 353 884 353 1716 
Q 353 2575 817 3079 
Q 1281 3584 2069 3584 
Q 2775 3584 3186 3129 
Q 3597 2675 3597 1894 
z
M 3022 2063 
Q 3016 2534 2758 2815 
Q 2500 3097 2075 3097 
Q 1594 3097 1305 2825 
Q 1016 2553 972 2059 
L 3022 2063 
z
" transform="scale(0.015625)"/>
       <path id="DejaVuSans-20" transform="scale(0.015625)"/>
       <path id="DejaVuSans-28" d="M 1984 4856 
Q 1566 4138 1362 3434 
Q 1159 2731 1159 2009 
Q 1159 1288 1364 580 
Q 1569 -128 1984 -844 
L 1484 -844 
Q 1016 -109 783 600 
Q 550 1309 550 2009 
Q 550 2706 781 3412 
Q 1013 4119 1484 4856 
L 1984 4856 
z
" transform="scale(0.015625)"/>
       <path id="DejaVuSans-73" d="M 2834 3397 
L 2834 2853 
Q 2591 2978 2328 3040 
Q 2066 3103 1784 3103 
Q 1356 3103 1142 2972 
Q 928 2841 928 2578 
Q 928 2378 1081 2264 
Q 1234 2150 1697 2047 
L 1894 2003 
Q 2506 1872 2764 1633 
Q 3022 1394 3022 966 
Q 3022 478 2636 193 
Q 2250 -91 1575 -91 
Q 1294 -91 989 -36 
Q 684 19 347 128 
L 347 722 
Q 666 556 975 473 
Q 1284 391 1588 391 
Q 1994 391 2212 530 
Q 2431 669 2431 922 
Q 2431 1156 2273 1281 
Q 2116 1406 1581 1522 
L 1381 1569 
Q 847 1681 609 1914 
Q 372 2147 372 2553 
Q 372 3047 722 3315 
Q 1072 3584 1716 3584 
Q 2034 3584 2315 3537 
Q 2597 3491 2834 3397 
z
" transform="scale(0.015625)"/>
       <path id="DejaVuSans-29" d="M 513 4856 
L 1013 4856 
Q 1481 4119 1714 3412 
Q 1947 2706 1947 2009 
Q 1947 1309 1714 600 
Q 1481 -109 1013 -844 
L 513 -844 
Q 928 -128 1133 580 
Q 1338 1288 1338 2009 
Q 1338 2731 1133 3434 
Q 928 4138 513 4856 
z
" transform="scale(0.015625)"/>
      </defs>
      <use xlink:href="#DejaVuSans-54"/>
      <use xlink:href="#DejaVuSans-69" transform="translate(57.958984 0)"/>
      <use xlink:href="#DejaVuSans-6d" transform="translate(85.742188 0)"/>
      <use xlink:href="#DejaVuSans-65" transform="translate(183.154297 0)"/>
      <use xlink:href="#DejaVuSans-20" transform="translate(244.677734 0)"/>
      <use xlink:href="#DejaVuSans-28" transform="translate(276.464844 0)"/>
      <use xlink:href="#DejaVuSans-6d" transform="translate(315.478516 0)"/>
      <use xlink:href="#DejaVuSans-73" transform="translate(412.890625 0)"/>
      <use xlink:href="#DejaVuSans-29" transform="translate(464.990234 0)"/>
     </g>
    </g>
   </g>
   <g id="LineCollection_1">
    <path d="M 239.4 329.104611 
L 351 329.104611 
" clip-path="url(#pd458282010)" style="fill: none; stroke: #1f77b4; stroke-width: 1.5"/>
   </g>
   <g id="LineCollection_2">
    <path d="M 239.4 66.818881 
L 351 66.818881 
" clip-path="url(#pd458282010)" style="fill: none; stroke: #1f77b4; stroke-width: 1.5"/>
   </g>
   <g id="LineCollection_3">
    <path d="M 239.4 366.396505 
L 351 366.396505 
" clip-path="url(#pd458282010)" style="fill: none; stroke: #1f77b4; stroke-width: 1.5"/>
   </g>
   <g id="LineCollection_4">
    <path d="M 295.2 366.396505 
L 295.2 66.818881 
" clip-path="url(#pd458282010)" style="fill: none; stroke: #1f77b4; stroke-width: 1.5"/>
   </g>
   <g id="patch_3">
    <path d="M 250.56 354.023225 
L 339.84 354.023225 
L 339.84 329.895232 
L 250.56 329.895232 
L 250.56 354.023225 
z
" clip-path="url(#pd458282010)" style="fill: #1f77b4; stroke: #000000; stroke-linejoin: miter"/>
   </g>
   <g id="line2d_7">
    <path d="M 295.2 354.023225 
L 295.2 366.396505 
" clip-path="url(#pd458282010)" style="fill: none; stroke: #000000; stroke-linecap: square"/>
   </g>
   <g id="line2d_8">
    <path d="M 295.2 329.895232 
L 295.2 305.71225 
" clip-path="url(#pd458282010)" style="fill: none; stroke: #000000; stroke-linecap: square"/>
   </g>
   <g id="line2d_9">
    <path d="M 272.88 366.396505 
L 317.52 366.396505 
" clip-path="url(#pd458282010)" style="fill: none; stroke: #000000; stroke-linecap: square"/>
   </g>
   <g id="line2d_10">
    <path d="M 272.88 305.71225 
L 317.52 305.71225 
" clip-path="url(#pd458282010)" style="fill: none; stroke: #000000; stroke-linecap: square"/>
   </g>
   <g id="line2d_11">
    <defs>
     <path id="m58ab71ce20" d="M 0 3 
C 0.795609 3 1.55874 2.683901 2.12132 2.12132 
C 2.683901 1.55874 3 0.795609 3 0 
C 3 -0.795609 2.683901 -1.55874 2.12132 -2.12132 
C 1.55874 -2.683901 0.795609 -3 0 -3 
C -0.795609 -3 -1.55874 -2.683901 -2.12132 -2.12132 
C -2.683901 -1.55874 -3 -0.795609 -3 0 
C -3 0.795609 -2.683901 1.55874 -2.12132 2.12132 
C -1.55874 2.683901 -0.795609 3 0 3 
z
" style="stroke: #000000"/>
    </defs>
    <g clip-path="url(#pd458282010)">
     <use xlink:href="#m58ab71ce20" x="295.2" y="66.818881" style="fill-opacity: 0; stroke: #000000"/>
     <use xlink:href="#m58ab71ce20" x="295.2" y="112.931352" style="fill-opacity: 0; stroke: #000000"/>
     <use xlink:href="#m58ab71ce20" x="295.2" y="118.235404" style="fill-opacity: 0; stroke: #000000"/>
     <use xlink:href="#m58ab71ce20" x="295.2" y="277.37655" style="fill-opacity: 0; stroke: #000000"/>
     <use xlink:href="#m58ab71ce20" x="295.2" y="114.752822" style="fill-opacity: 0; stroke: #000000"/>
     <use xlink:href="#m58ab71ce20" x="295.2" y="119.024032" style="fill-opacity: 0; stroke: #000000"/>
     <use xlink:href="#m58ab71ce20" x="295.2" y="251.102418" style="fill-opacity: 0; stroke: #000000"/>
     <use xlink:href="#m58ab71ce20" x="295.2" y="79.76664" style="fill-opacity: 0; stroke: #000000"/>
     <use xlink:href="#m58ab71ce20" x="295.2" y="237.310031" style="fill-opacity: 0; stroke: #000000"/>
     <use xlink:href="#m58ab71ce20" x="295.2" y="140.650432" style="fill-opacity: 0; stroke: #000000"/>
     <use xlink:href="#m58ab71ce20" x="295.2" y="253.783956" style="fill-opacity: 0; stroke: #000000"/>
     <use xlink:href="#m58ab71ce20" x="295.2" y="110.493782" style="fill-opacity: 0; stroke: #000000"/>
     <use xlink:href="#m58ab71ce20" x="295.2" y="273.605733" style="fill-opacity: 0; stroke: #000000"/>
     <use xlink:href="#m58ab71ce20" x="295.2" y="291.696285" style="fill-opacity: 0; stroke: #000000"/>
     <use xlink:href="#m58ab71ce20" x="295.2" y="91.636579" style="fill-opacity: 0; stroke: #000000"/>
     <use xlink:href="#m58ab71ce20" x="295.2" y="254.49938" style="fill-opacity: 0; stroke: #000000"/>
     <use xlink:href="#m58ab71ce20" x="295.2" y="131.521723" style="fill-opacity: 0; stroke: #000000"/>
     <use xlink:href="#m58ab71ce20" x="295.2" y="245.231032" style="fill-opacity: 0; stroke: #000000"/>
     <use xlink:href="#m58ab71ce20" x="295.2" y="133.893555" style="fill-opacity: 0; stroke: #000000"/>
     <use xlink:href="#m58ab71ce20" x="295.2" y="97.249146" style="fill-opacity: 0; stroke: #000000"/>
     <use xlink:href="#m58ab71ce20" x="295.2" y="272.347714" style="fill-opacity: 0; stroke: #000000"/>
     <use xlink:href="#m58ab71ce20" x="295.2" y="116.600083" style="fill-opacity: 0; stroke: #000000"/>
     <use xlink:href="#m58ab71ce20" x="295.2" y="257.342422" style="fill-opacity: 0; stroke: #000000"/>
     <use xlink:href="#m58ab71ce20" x="295.2" y="109.15981" style="fill-opacity: 0; stroke: #000000"/>
     <use xlink:href="#m58ab71ce20" x="295.2" y="223.425951" style="fill-opacity: 0; stroke: #000000"/>
     <use xlink:href="#m58ab71ce20" x="295.2" y="106.867308" style="fill-opacity: 0; stroke: #000000"/>
     <use xlink:href="#m58ab71ce20" x="295.2" y="279.166088" style="fill-opacity: 0; stroke: #000000"/>
     <use xlink:href="#m58ab71ce20" x="295.2" y="128.902832" style="fill-opacity: 0; stroke: #000000"/>
     <use xlink:href="#m58ab71ce20" x="295.2" y="253.485123" style="fill-opacity: 0; stroke: #000000"/>
     <use xlink:href="#m58ab71ce20" x="295.2" y="99.169228" style="fill-opacity: 0; stroke: #000000"/>
     <use xlink:href="#m58ab71ce20" x="295.2" y="115.105029" style="fill-opacity: 0; stroke: #000000"/>
     <use xlink:href="#m58ab71ce20" x="295.2" y="249.821917" style="fill-opacity: 0; stroke: #000000"/>
     <use xlink:href="#m58ab71ce20" x="295.2" y="115.366447" style="fill-opacity: 0; stroke: #000000"/>
     <use xlink:href="#m58ab71ce20" x="295.2" y="257.88257" style="fill-opacity: 0; stroke: #000000"/>
     <use xlink:href="#m58ab71ce20" x="295.2" y="124.4007" style="fill-opacity: 0; stroke: #000000"/>
     <use xlink:href="#m58ab71ce20" x="295.2" y="231.801328" style="fill-opacity: 0; stroke: #000000"/>
    </g>
   </g>
   <g id="line2d_12">
    <path d="M 250.56 344.158361 
L 339.84 344.158361 
" clip-path="url(#pd458282010)" style="fill: none; stroke: #ff7f0e"/>
   </g>
   <g id="patch_4">
    <path d="M 72 384.48 
L 72 51.84 
" style="fill: none; stroke: #000000; stroke-width: 0.8; stroke-linejoin: miter; stroke-linecap: square"/>
   </g>
   <g id="patch_5">
    <path d="M 518.4 384.48 
L 518.4 51.84 
" style="fill: none; stroke: #000000; stroke-width: 0.8; stroke-linejoin: miter; stroke-linecap: square"/>
   </g>
   <g id="patch_6">
    <path d="M 72 384.48 
L 518.4 384.48 
" style="fill: none; stroke: #000000; stroke-width: 0.8; stroke-linejoin: miter; stroke-linecap: square"/>
   </g>
   <g id="patch_7">
    <path d="M 72 51.84 
L 518.4 51.84 
" style="fill: none; stroke: #000000; stroke-width: 0.8; stroke-linejoin: miter; stroke-linecap: square"/>
   </g>
   <g id="text_8">
    <!-- Next Faultload -->
    <g transform="translate(252.088125 45.84) scale(0.12 -0.12)">
     <defs>
      <path id="DejaVuSans-4e" d="M 628 4666 
L 1478 4666 
L 3547 763 
L 3547 4666 
L 4159 4666 
L 4159 0 
L 3309 0 
L 1241 3903 
L 1241 0 
L 628 0 
L 628 4666 
z
" transform="scale(0.015625)"/>
      <path id="DejaVuSans-78" d="M 3513 3500 
L 2247 1797 
L 3578 0 
L 2900 0 
L 1881 1375 
L 863 0 
L 184 0 
L 1544 1831 
L 300 3500 
L 978 3500 
L 1906 2253 
L 2834 3500 
L 3513 3500 
z
" transform="scale(0.015625)"/>
      <path id="DejaVuSans-74" d="M 1172 4494 
L 1172 3500 
L 2356 3500 
L 2356 3053 
L 1172 3053 
L 1172 1153 
Q 1172 725 1289 603 
Q 1406 481 1766 481 
L 2356 481 
L 2356 0 
L 1766 0 
Q 1100 0 847 248 
Q 594 497 594 1153 
L 594 3053 
L 172 3053 
L 172 3500 
L 594 3500 
L 594 4494 
L 1172 4494 
z
" transform="scale(0.015625)"/>
      <path id="DejaVuSans-46" d="M 628 4666 
L 3309 4666 
L 3309 4134 
L 1259 4134 
L 1259 2759 
L 3109 2759 
L 3109 2228 
L 1259 2228 
L 1259 0 
L 628 0 
L 628 4666 
z
" transform="scale(0.015625)"/>
      <path id="DejaVuSans-61" d="M 2194 1759 
Q 1497 1759 1228 1600 
Q 959 1441 959 1056 
Q 959 750 1161 570 
Q 1363 391 1709 391 
Q 2188 391 2477 730 
Q 2766 1069 2766 1631 
L 2766 1759 
L 2194 1759 
z
M 3341 1997 
L 3341 0 
L 2766 0 
L 2766 531 
Q 2569 213 2275 61 
Q 1981 -91 1556 -91 
Q 1019 -91 701 211 
Q 384 513 384 1019 
Q 384 1609 779 1909 
Q 1175 2209 1959 2209 
L 2766 2209 
L 2766 2266 
Q 2766 2663 2505 2880 
Q 2244 3097 1772 3097 
Q 1472 3097 1187 3025 
Q 903 2953 641 2809 
L 641 3341 
Q 956 3463 1253 3523 
Q 1550 3584 1831 3584 
Q 2591 3584 2966 3190 
Q 3341 2797 3341 1997 
z
" transform="scale(0.015625)"/>
      <path id="DejaVuSans-75" d="M 544 1381 
L 544 3500 
L 1119 3500 
L 1119 1403 
Q 1119 906 1312 657 
Q 1506 409 1894 409 
Q 2359 409 2629 706 
Q 2900 1003 2900 1516 
L 2900 3500 
L 3475 3500 
L 3475 0 
L 2900 0 
L 2900 538 
Q 2691 219 2414 64 
Q 2138 -91 1772 -91 
Q 1169 -91 856 284 
Q 544 659 544 1381 
z
M 1991 3584 
L 1991 3584 
z
" transform="scale(0.015625)"/>
      <path id="DejaVuSans-6c" d="M 603 4863 
L 1178 4863 
L 1178 0 
L 603 0 
L 603 4863 
z
" transform="scale(0.015625)"/>
      <path id="DejaVuSans-6f" d="M 1959 3097 
Q 1497 3097 1228 2736 
Q 959 2375 959 1747 
Q 959 1119 1226 758 
Q 1494 397 1959 397 
Q 2419 397 2687 759 
Q 2956 1122 2956 1747 
Q 2956 2369 2687 2733 
Q 2419 3097 1959 3097 
z
M 1959 3584 
Q 2709 3584 3137 3096 
Q 3566 2609 3566 1747 
Q 3566 888 3137 398 
Q 2709 -91 1959 -91 
Q 1206 -91 779 398 
Q 353 888 353 1747 
Q 353 2609 779 3096 
Q 1206 3584 1959 3584 
z
" transform="scale(0.015625)"/>
      <path id="DejaVuSans-64" d="M 2906 2969 
L 2906 4863 
L 3481 4863 
L 3481 0 
L 2906 0 
L 2906 525 
Q 2725 213 2448 61 
Q 2172 -91 1784 -91 
Q 1150 -91 751 415 
Q 353 922 353 1747 
Q 353 2572 751 3078 
Q 1150 3584 1784 3584 
Q 2172 3584 2448 3432 
Q 2725 3281 2906 2969 
z
M 947 1747 
Q 947 1113 1208 752 
Q 1469 391 1925 391 
Q 2381 391 2643 752 
Q 2906 1113 2906 1747 
Q 2906 2381 2643 2742 
Q 2381 3103 1925 3103 
Q 1469 3103 1208 2742 
Q 947 2381 947 1747 
z
" transform="scale(0.015625)"/>
     </defs>
     <use xlink:href="#DejaVuSans-4e"/>
     <use xlink:href="#DejaVuSans-65" transform="translate(74.804688 0)"/>
     <use xlink:href="#DejaVuSans-78" transform="translate(134.578125 0)"/>
     <use xlink:href="#DejaVuSans-74" transform="translate(193.757812 0)"/>
     <use xlink:href="#DejaVuSans-20" transform="translate(232.966797 0)"/>
     <use xlink:href="#DejaVuSans-46" transform="translate(264.753906 0)"/>
     <use xlink:href="#DejaVuSans-61" transform="translate(313.148438 0)"/>
     <use xlink:href="#DejaVuSans-75" transform="translate(374.427734 0)"/>
     <use xlink:href="#DejaVuSans-6c" transform="translate(437.806641 0)"/>
     <use xlink:href="#DejaVuSans-74" transform="translate(465.589844 0)"/>
     <use xlink:href="#DejaVuSans-6c" transform="translate(504.798828 0)"/>
     <use xlink:href="#DejaVuSans-6f" transform="translate(532.582031 0)"/>
     <use xlink:href="#DejaVuSans-61" transform="translate(593.763672 0)"/>
     <use xlink:href="#DejaVuSans-64" transform="translate(655.042969 0)"/>
    </g>
   </g>
  </g>
 </g>
 <defs>
  <clipPath id="pd458282010">
   <rect x="72" y="51.84" width="446.4" height="332.64"/>
  </clipPath>
 </defs>
</svg>
