<?xml version="1.0" encoding="utf-8" standalone="no"?>
<!DOCTYPE svg PUBLIC "-//W3C//DTD SVG 1.1//EN"
  "http://www.w3.org/Graphics/SVG/1.1/DTD/svg11.dtd">
<svg xmlns:xlink="http://www.w3.org/1999/xlink" width="720pt" height="432pt" viewBox="0 0 720 432" xmlns="http://www.w3.org/2000/svg" version="1.1">
 <metadata>
  <rdf:RDF xmlns:dc="http://purl.org/dc/elements/1.1/" xmlns:cc="http://creativecommons.org/ns#" xmlns:rdf="http://www.w3.org/1999/02/22-rdf-syntax-ns#">
   <cc:Work>
    <dc:type rdf:resource="http://purl.org/dc/dcmitype/StillImage"/>
    <dc:date>2025-09-30T20:43:41.009070</dc:date>
    <dc:format>image/svg+xml</dc:format>
    <dc:creator>
     <cc:Agent>
      <dc:title>Matplotlib v3.10.3, https://matplotlib.org/</dc:title>
     </cc:Agent>
    </dc:creator>
   </cc:Work>
  </rdf:RDF>
 </metadata>
 <defs>
  <style type="text/css">*{stroke-linejoin: round; stroke-linecap: butt}</style>
 </defs>
 <g id="figure_1">
  <g id="patch_1">
   <path d="M 0 432 
L 720 432 
L 720 0 
L 0 0 
z
" style="fill: #ffffff"/>
  </g>
  <g id="axes_1">
   <g id="patch_2">
    <path d="M 90 384.48 
L 648 384.48 
L 648 51.84 
L 90 51.84 
z
" style="fill: #ffffff"/>
   </g>
   <g id="matplotlib.axis_1">
    <g id="xtick_1">
     <g id="line2d_1">
      <defs>
       <path id="mb62cdd547e" d="M 0 0 
L 0 3.5 
" style="stroke: #000000; stroke-width: 0.8"/>
      </defs>
      <g>
       <use xlink:href="#mb62cdd547e" x="115.363636" y="384.48" style="stroke: #000000; stroke-width: 0.8"/>
      </g>
     </g>
     <g id="text_1">
      <!-- 0 -->
      <g transform="translate(112.182386 399.078438) scale(0.1 -0.1)">
       <defs>
        <path id="DejaVuSans-30" d="M 2034 4250 
Q 1547 4250 1301 3770 
Q 1056 3291 1056 2328 
Q 1056 1369 1301 889 
Q 1547 409 2034 409 
Q 2525 409 2770 889 
Q 3016 1369 3016 2328 
Q 3016 3291 2770 3770 
Q 2525 4250 2034 4250 
z
M 2034 4750 
Q 2819 4750 3233 4129 
Q 3647 3509 3647 2328 
Q 3647 1150 3233 529 
Q 2819 -91 2034 -91 
Q 1250 -91 836 529 
Q 422 1150 422 2328 
Q 422 3509 836 4129 
Q 1250 4750 2034 4750 
z
" transform="scale(0.015625)"/>
       </defs>
       <use xlink:href="#DejaVuSans-30"/>
      </g>
     </g>
    </g>
    <g id="xtick_2">
     <g id="line2d_2">
      <g>
       <use xlink:href="#mb62cdd547e" x="206.929111" y="384.48" style="stroke: #000000; stroke-width: 0.8"/>
      </g>
     </g>
     <g id="text_2">
      <!-- 100 -->
      <g transform="translate(197.385361 399.078438) scale(0.1 -0.1)">
       <defs>
        <path id="DejaVuSans-31" d="M 794 531 
L 1825 531 
L 1825 4091 
L 703 3866 
L 703 4441 
L 1819 4666 
L 2450 4666 
L 2450 531 
L 3481 531 
L 3481 0 
L 794 0 
L 794 531 
z
" transform="scale(0.015625)"/>
       </defs>
       <use xlink:href="#DejaVuSans-31"/>
       <use xlink:href="#DejaVuSans-30" transform="translate(63.623047 0)"/>
       <use xlink:href="#DejaVuSans-30" transform="translate(127.246094 0)"/>
      </g>
     </g>
    </g>
    <g id="xtick_3">
     <g id="line2d_3">
      <g>
       <use xlink:href="#mb62cdd547e" x="298.494585" y="384.48" style="stroke: #000000; stroke-width: 0.8"/>
      </g>
     </g>
     <g id="text_3">
      <!-- 200 -->
      <g transform="translate(288.950835 399.078438) scale(0.1 -0.1)">
       <defs>
        <path id="DejaVuSans-32" d="M 1228 531 
L 3431 531 
L 3431 0 
L 469 0 
L 469 531 
Q 828 903 1448 1529 
Q 2069 2156 2228 2338 
Q 2531 2678 2651 2914 
Q 2772 3150 2772 3378 
Q 2772 3750 2511 3984 
Q 2250 4219 1831 4219 
Q 1534 4219 1204 4116 
Q 875 4013 500 3803 
L 500 4441 
Q 881 4594 1212 4672 
Q 1544 4750 1819 4750 
Q 2544 4750 2975 4387 
Q 3406 4025 3406 3419 
Q 3406 3131 3298 2873 
Q 3191 2616 2906 2266 
Q 2828 2175 2409 1742 
Q 1991 1309 1228 531 
z
" transform="scale(0.015625)"/>
       </defs>
       <use xlink:href="#DejaVuSans-32"/>
       <use xlink:href="#DejaVuSans-30" transform="translate(63.623047 0)"/>
       <use xlink:href="#DejaVuSans-30" transform="translate(127.246094 0)"/>
      </g>
     </g>
    </g>
    <g id="xtick_4">
     <g id="line2d_4">
      <g>
       <use xlink:href="#mb62cdd547e" x="390.060059" y="384.48" style="stroke: #000000; stroke-width: 0.8"/>
      </g>
     </g>
     <g id="text_4">
      <!-- 300 -->
      <g transform="translate(380.516309 399.078438) scale(0.1 -0.1)">
       <defs>
        <path id="DejaVuSans-33" d="M 2597 2516 
Q 3050 2419 3304 2112 
Q 3559 1806 3559 1356 
Q 3559 666 3084 287 
Q 2609 -91 1734 -91 
Q 1441 -91 1130 -33 
Q 819 25 488 141 
L 488 750 
Q 750 597 1062 519 
Q 1375 441 1716 441 
Q 2309 441 2620 675 
Q 2931 909 2931 1356 
Q 2931 1769 2642 2001 
Q 2353 2234 1838 2234 
L 1294 2234 
L 1294 2753 
L 1863 2753 
Q 2328 2753 2575 2939 
Q 2822 3125 2822 3475 
Q 2822 3834 2567 4026 
Q 2313 4219 1838 4219 
Q 1578 4219 1281 4162 
Q 984 4106 628 3988 
L 628 4550 
Q 988 4650 1302 4700 
Q 1616 4750 1894 4750 
Q 2613 4750 3031 4423 
Q 3450 4097 3450 3541 
Q 3450 3153 3228 2886 
Q 3006 2619 2597 2516 
z
" transform="scale(0.015625)"/>
       </defs>
       <use xlink:href="#DejaVuSans-33"/>
       <use xlink:href="#DejaVuSans-30" transform="translate(63.623047 0)"/>
       <use xlink:href="#DejaVuSans-30" transform="translate(127.246094 0)"/>
      </g>
     </g>
    </g>
    <g id="xtick_5">
     <g id="line2d_5">
      <g>
       <use xlink:href="#mb62cdd547e" x="481.625533" y="384.48" style="stroke: #000000; stroke-width: 0.8"/>
      </g>
     </g>
     <g id="text_5">
      <!-- 400 -->
      <g transform="translate(472.081783 399.078438) scale(0.1 -0.1)">
       <defs>
        <path id="DejaVuSans-34" d="M 2419 4116 
L 825 1625 
L 2419 1625 
L 2419 4116 
z
M 2253 4666 
L 3047 4666 
L 3047 1625 
L 3713 1625 
L 3713 1100 
L 3047 1100 
L 3047 0 
L 2419 0 
L 2419 1100 
L 313 1100 
L 313 1709 
L 2253 4666 
z
" transform="scale(0.015625)"/>
       </defs>
       <use xlink:href="#DejaVuSans-34"/>
       <use xlink:href="#DejaVuSans-30" transform="translate(63.623047 0)"/>
       <use xlink:href="#DejaVuSans-30" transform="translate(127.246094 0)"/>
      </g>
     </g>
    </g>
    <g id="xtick_6">
     <g id="line2d_6">
      <g>
       <use xlink:href="#mb62cdd547e" x="573.191008" y="384.48" style="stroke: #000000; stroke-width: 0.8"/>
      </g>
     </g>
     <g id="text_6">
      <!-- 500 -->
      <g transform="translate(563.647258 399.078438) scale(0.1 -0.1)">
       <defs>
        <path id="DejaVuSans-35" d="M 691 4666 
L 3169 4666 
L 3169 4134 
L 1269 4134 
L 1269 2991 
Q 1406 3038 1543 3061 
Q 1681 3084 1819 3084 
Q 2600 3084 3056 2656 
Q 3513 2228 3513 1497 
Q 3513 744 3044 326 
Q 2575 -91 1722 -91 
Q 1428 -91 1123 -41 
Q 819 9 494 109 
L 494 744 
Q 775 591 1075 516 
Q 1375 441 1709 441 
Q 2250 441 2565 725 
Q 2881 1009 2881 1497 
Q 2881 1984 2565 2268 
Q 2250 2553 1709 2553 
Q 1456 2553 1204 2497 
Q 953 2441 691 2322 
L 691 4666 
z
" transform="scale(0.015625)"/>
       </defs>
       <use xlink:href="#DejaVuSans-35"/>
       <use xlink:href="#DejaVuSans-30" transform="translate(63.623047 0)"/>
       <use xlink:href="#DejaVuSans-30" transform="translate(127.246094 0)"/>
      </g>
     </g>
    </g>
    <g id="text_7">
     <!-- Index -->
     <g transform="translate(355.233594 412.756563) scale(0.1 -0.1)">
      <defs>
       <path id="DejaVuSans-49" d="M 628 4666 
L 1259 4666 
L 1259 0 
L 628 0 
L 628 4666 
z
" transform="scale(0.015625)"/>
       <path id="DejaVuSans-6e" d="M 3513 2113 
L 3513 0 
L 2938 0 
L 2938 2094 
Q 2938 2591 2744 2837 
Q 2550 3084 2163 3084 
Q 1697 3084 1428 2787 
Q 1159 2491 1159 1978 
L 1159 0 
L 581 0 
L 581 3500 
L 1159 3500 
L 1159 2956 
Q 1366 3272 1645 3428 
Q 1925 3584 2291 3584 
Q 2894 3584 3203 3211 
Q 3513 2838 3513 2113 
z
" transform="scale(0.015625)"/>
       <path id="DejaVuSans-64" d="M 2906 2969 
L 2906 4863 
L 3481 4863 
L 3481 0 
L 2906 0 
L 2906 525 
Q 2725 213 2448 61 
Q 2172 -91 1784 -91 
Q 1150 -91 751 415 
Q 353 922 353 1747 
Q 353 2572 751 3078 
Q 1150 3584 1784 3584 
Q 2172 3584 2448 3432 
Q 2725 3281 2906 2969 
z
M 947 1747 
Q 947 1113 1208 752 
Q 1469 391 1925 391 
Q 2381 391 2643 752 
Q 2906 1113 2906 1747 
Q 2906 2381 2643 2742 
Q 2381 3103 1925 3103 
Q 1469 3103 1208 2742 
Q 947 2381 947 1747 
z
" transform="scale(0.015625)"/>
       <path id="DejaVuSans-65" d="M 3597 1894 
L 3597 1613 
L 953 1613 
Q 991 1019 1311 708 
Q 1631 397 2203 397 
Q 2534 397 2845 478 
Q 3156 559 3463 722 
L 3463 178 
Q 3153 47 2828 -22 
Q 2503 -91 2169 -91 
Q 1331 -91 842 396 
Q 353 884 353 1716 
Q 353 2575 817 3079 
Q 1281 3584 2069 3584 
Q 2775 3584 3186 3129 
Q 3597 2675 3597 1894 
z
M 3022 2063 
Q 3016 2534 2758 2815 
Q 2500 3097 2075 3097 
Q 1594 3097 1305 2825 
Q 1016 2553 972 2059 
L 3022 2063 
z
" transform="scale(0.015625)"/>
       <path id="DejaVuSans-78" d="M 3513 3500 
L 2247 1797 
L 3578 0 
L 2900 0 
L 1881 1375 
L 863 0 
L 184 0 
L 1544 1831 
L 300 3500 
L 978 3500 
L 1906 2253 
L 2834 3500 
L 3513 3500 
z
" transform="scale(0.015625)"/>
      </defs>
      <use xlink:href="#DejaVuSans-49"/>
      <use xlink:href="#DejaVuSans-6e" transform="translate(29.492188 0)"/>
      <use xlink:href="#DejaVuSans-64" transform="translate(92.871094 0)"/>
      <use xlink:href="#DejaVuSans-65" transform="translate(156.347656 0)"/>
      <use xlink:href="#DejaVuSans-78" transform="translate(216.121094 0)"/>
     </g>
    </g>
   </g>
   <g id="matplotlib.axis_2">
    <g id="ytick_1">
     <g id="line2d_7">
      <defs>
       <path id="mb90cd196b8" d="M 0 0 
L -3.5 0 
" style="stroke: #000000; stroke-width: 0.8"/>
      </defs>
      <g>
       <use xlink:href="#mb90cd196b8" x="90" y="384.48" style="stroke: #000000; stroke-width: 0.8"/>
      </g>
     </g>
     <g id="text_8">
      <!-- 0.0 -->
      <g transform="translate(67.096875 388.279219) scale(0.1 -0.1)">
       <defs>
        <path id="DejaVuSans-2e" d="M 684 794 
L 1344 794 
L 1344 0 
L 684 0 
L 684 794 
z
" transform="scale(0.015625)"/>
       </defs>
       <use xlink:href="#DejaVuSans-30"/>
       <use xlink:href="#DejaVuSans-2e" transform="translate(63.623047 0)"/>
       <use xlink:href="#DejaVuSans-30" transform="translate(95.410156 0)"/>
      </g>
     </g>
    </g>
    <g id="ytick_2">
     <g id="line2d_8">
      <g>
       <use xlink:href="#mb90cd196b8" x="90" y="343.898192" style="stroke: #000000; stroke-width: 0.8"/>
      </g>
     </g>
     <g id="text_9">
      <!-- 2.5 -->
      <g transform="translate(67.096875 347.697411) scale(0.1 -0.1)">
       <use xlink:href="#DejaVuSans-32"/>
       <use xlink:href="#DejaVuSans-2e" transform="translate(63.623047 0)"/>
       <use xlink:href="#DejaVuSans-35" transform="translate(95.410156 0)"/>
      </g>
     </g>
    </g>
    <g id="ytick_3">
     <g id="line2d_9">
      <g>
       <use xlink:href="#mb90cd196b8" x="90" y="303.316385" style="stroke: #000000; stroke-width: 0.8"/>
      </g>
     </g>
     <g id="text_10">
      <!-- 5.0 -->
      <g transform="translate(67.096875 307.115604) scale(0.1 -0.1)">
       <use xlink:href="#DejaVuSans-35"/>
       <use xlink:href="#DejaVuSans-2e" transform="translate(63.623047 0)"/>
       <use xlink:href="#DejaVuSans-30" transform="translate(95.410156 0)"/>
      </g>
     </g>
    </g>
    <g id="ytick_4">
     <g id="line2d_10">
      <g>
       <use xlink:href="#mb90cd196b8" x="90" y="262.734577" style="stroke: #000000; stroke-width: 0.8"/>
      </g>
     </g>
     <g id="text_11">
      <!-- 7.5 -->
      <g transform="translate(67.096875 266.533796) scale(0.1 -0.1)">
       <defs>
        <path id="DejaVuSans-37" d="M 525 4666 
L 3525 4666 
L 3525 4397 
L 1831 0 
L 1172 0 
L 2766 4134 
L 525 4134 
L 525 4666 
z
" transform="scale(0.015625)"/>
       </defs>
       <use xlink:href="#DejaVuSans-37"/>
       <use xlink:href="#DejaVuSans-2e" transform="translate(63.623047 0)"/>
       <use xlink:href="#DejaVuSans-35" transform="translate(95.410156 0)"/>
      </g>
     </g>
    </g>
    <g id="ytick_5">
     <g id="line2d_11">
      <g>
       <use xlink:href="#mb90cd196b8" x="90" y="222.15277" style="stroke: #000000; stroke-width: 0.8"/>
      </g>
     </g>
     <g id="text_12">
      <!-- 10.0 -->
      <g transform="translate(60.734375 225.951989) scale(0.1 -0.1)">
       <use xlink:href="#DejaVuSans-31"/>
       <use xlink:href="#DejaVuSans-30" transform="translate(63.623047 0)"/>
       <use xlink:href="#DejaVuSans-2e" transform="translate(127.246094 0)"/>
       <use xlink:href="#DejaVuSans-30" transform="translate(159.033203 0)"/>
      </g>
     </g>
    </g>
    <g id="ytick_6">
     <g id="line2d_12">
      <g>
       <use xlink:href="#mb90cd196b8" x="90" y="181.570962" style="stroke: #000000; stroke-width: 0.8"/>
      </g>
     </g>
     <g id="text_13">
      <!-- 12.5 -->
      <g transform="translate(60.734375 185.370181) scale(0.1 -0.1)">
       <use xlink:href="#DejaVuSans-31"/>
       <use xlink:href="#DejaVuSans-32" transform="translate(63.623047 0)"/>
       <use xlink:href="#DejaVuSans-2e" transform="translate(127.246094 0)"/>
       <use xlink:href="#DejaVuSans-35" transform="translate(159.033203 0)"/>
      </g>
     </g>
    </g>
    <g id="ytick_7">
     <g id="line2d_13">
      <g>
       <use xlink:href="#mb90cd196b8" x="90" y="140.989155" style="stroke: #000000; stroke-width: 0.8"/>
      </g>
     </g>
     <g id="text_14">
      <!-- 15.0 -->
      <g transform="translate(60.734375 144.788374) scale(0.1 -0.1)">
       <use xlink:href="#DejaVuSans-31"/>
       <use xlink:href="#DejaVuSans-35" transform="translate(63.623047 0)"/>
       <use xlink:href="#DejaVuSans-2e" transform="translate(127.246094 0)"/>
       <use xlink:href="#DejaVuSans-30" transform="translate(159.033203 0)"/>
      </g>
     </g>
    </g>
    <g id="ytick_8">
     <g id="line2d_14">
      <g>
       <use xlink:href="#mb90cd196b8" x="90" y="100.407347" style="stroke: #000000; stroke-width: 0.8"/>
      </g>
     </g>
     <g id="text_15">
      <!-- 17.5 -->
      <g transform="translate(60.734375 104.206566) scale(0.1 -0.1)">
       <use xlink:href="#DejaVuSans-31"/>
       <use xlink:href="#DejaVuSans-37" transform="translate(63.623047 0)"/>
       <use xlink:href="#DejaVuSans-2e" transform="translate(127.246094 0)"/>
       <use xlink:href="#DejaVuSans-35" transform="translate(159.033203 0)"/>
      </g>
     </g>
    </g>
    <g id="ytick_9">
     <g id="line2d_15">
      <g>
       <use xlink:href="#mb90cd196b8" x="90" y="59.82554" style="stroke: #000000; stroke-width: 0.8"/>
      </g>
     </g>
     <g id="text_16">
      <!-- 20.0 -->
      <g transform="translate(60.734375 63.624758) scale(0.1 -0.1)">
       <use xlink:href="#DejaVuSans-32"/>
       <use xlink:href="#DejaVuSans-30" transform="translate(63.623047 0)"/>
       <use xlink:href="#DejaVuSans-2e" transform="translate(127.246094 0)"/>
       <use xlink:href="#DejaVuSans-30" transform="translate(159.033203 0)"/>
      </g>
     </g>
    </g>
    <g id="text_17">
     <!-- Average time (ms) -->
     <g transform="translate(54.654687 264.543594) rotate(-90) scale(0.1 -0.1)">
      <defs>
       <path id="DejaVuSans-41" d="M 2188 4044 
L 1331 1722 
L 3047 1722 
L 2188 4044 
z
M 1831 4666 
L 2547 4666 
L 4325 0 
L 3669 0 
L 3244 1197 
L 1141 1197 
L 716 0 
L 50 0 
L 1831 4666 
z
" transform="scale(0.015625)"/>
       <path id="DejaVuSans-76" d="M 191 3500 
L 800 3500 
L 1894 563 
L 2988 3500 
L 3597 3500 
L 2284 0 
L 1503 0 
L 191 3500 
z
" transform="scale(0.015625)"/>
       <path id="DejaVuSans-72" d="M 2631 2963 
Q 2534 3019 2420 3045 
Q 2306 3072 2169 3072 
Q 1681 3072 1420 2755 
Q 1159 2438 1159 1844 
L 1159 0 
L 581 0 
L 581 3500 
L 1159 3500 
L 1159 2956 
Q 1341 3275 1631 3429 
Q 1922 3584 2338 3584 
Q 2397 3584 2469 3576 
Q 2541 3569 2628 3553 
L 2631 2963 
z
" transform="scale(0.015625)"/>
       <path id="DejaVuSans-61" d="M 2194 1759 
Q 1497 1759 1228 1600 
Q 959 1441 959 1056 
Q 959 750 1161 570 
Q 1363 391 1709 391 
Q 2188 391 2477 730 
Q 2766 1069 2766 1631 
L 2766 1759 
L 2194 1759 
z
M 3341 1997 
L 3341 0 
L 2766 0 
L 2766 531 
Q 2569 213 2275 61 
Q 1981 -91 1556 -91 
Q 1019 -91 701 211 
Q 384 513 384 1019 
Q 384 1609 779 1909 
Q 1175 2209 1959 2209 
L 2766 2209 
L 2766 2266 
Q 2766 2663 2505 2880 
Q 2244 3097 1772 3097 
Q 1472 3097 1187 3025 
Q 903 2953 641 2809 
L 641 3341 
Q 956 3463 1253 3523 
Q 1550 3584 1831 3584 
Q 2591 3584 2966 3190 
Q 3341 2797 3341 1997 
z
" transform="scale(0.015625)"/>
       <path id="DejaVuSans-67" d="M 2906 1791 
Q 2906 2416 2648 2759 
Q 2391 3103 1925 3103 
Q 1463 3103 1205 2759 
Q 947 2416 947 1791 
Q 947 1169 1205 825 
Q 1463 481 1925 481 
Q 2391 481 2648 825 
Q 2906 1169 2906 1791 
z
M 3481 434 
Q 3481 -459 3084 -895 
Q 2688 -1331 1869 -1331 
Q 1566 -1331 1297 -1286 
Q 1028 -1241 775 -1147 
L 775 -588 
Q 1028 -725 1275 -790 
Q 1522 -856 1778 -856 
Q 2344 -856 2625 -561 
Q 2906 -266 2906 331 
L 2906 616 
Q 2728 306 2450 153 
Q 2172 0 1784 0 
Q 1141 0 747 490 
Q 353 981 353 1791 
Q 353 2603 747 3093 
Q 1141 3584 1784 3584 
Q 2172 3584 2450 3431 
Q 2728 3278 2906 2969 
L 2906 3500 
L 3481 3500 
L 3481 434 
z
" transform="scale(0.015625)"/>
       <path id="DejaVuSans-20" transform="scale(0.015625)"/>
       <path id="DejaVuSans-74" d="M 1172 4494 
L 1172 3500 
L 2356 3500 
L 2356 3053 
L 1172 3053 
L 1172 1153 
Q 1172 725 1289 603 
Q 1406 481 1766 481 
L 2356 481 
L 2356 0 
L 1766 0 
Q 1100 0 847 248 
Q 594 497 594 1153 
L 594 3053 
L 172 3053 
L 172 3500 
L 594 3500 
L 594 4494 
L 1172 4494 
z
" transform="scale(0.015625)"/>
       <path id="DejaVuSans-69" d="M 603 3500 
L 1178 3500 
L 1178 0 
L 603 0 
L 603 3500 
z
M 603 4863 
L 1178 4863 
L 1178 4134 
L 603 4134 
L 603 4863 
z
" transform="scale(0.015625)"/>
       <path id="DejaVuSans-6d" d="M 3328 2828 
Q 3544 3216 3844 3400 
Q 4144 3584 4550 3584 
Q 5097 3584 5394 3201 
Q 5691 2819 5691 2113 
L 5691 0 
L 5113 0 
L 5113 2094 
Q 5113 2597 4934 2840 
Q 4756 3084 4391 3084 
Q 3944 3084 3684 2787 
Q 3425 2491 3425 1978 
L 3425 0 
L 2847 0 
L 2847 2094 
Q 2847 2600 2669 2842 
Q 2491 3084 2119 3084 
Q 1678 3084 1418 2786 
Q 1159 2488 1159 1978 
L 1159 0 
L 581 0 
L 581 3500 
L 1159 3500 
L 1159 2956 
Q 1356 3278 1631 3431 
Q 1906 3584 2284 3584 
Q 2666 3584 2933 3390 
Q 3200 3197 3328 2828 
z
" transform="scale(0.015625)"/>
       <path id="DejaVuSans-28" d="M 1984 4856 
Q 1566 4138 1362 3434 
Q 1159 2731 1159 2009 
Q 1159 1288 1364 580 
Q 1569 -128 1984 -844 
L 1484 -844 
Q 1016 -109 783 600 
Q 550 1309 550 2009 
Q 550 2706 781 3412 
Q 1013 4119 1484 4856 
L 1984 4856 
z
" transform="scale(0.015625)"/>
       <path id="DejaVuSans-73" d="M 2834 3397 
L 2834 2853 
Q 2591 2978 2328 3040 
Q 2066 3103 1784 3103 
Q 1356 3103 1142 2972 
Q 928 2841 928 2578 
Q 928 2378 1081 2264 
Q 1234 2150 1697 2047 
L 1894 2003 
Q 2506 1872 2764 1633 
Q 3022 1394 3022 966 
Q 3022 478 2636 193 
Q 2250 -91 1575 -91 
Q 1294 -91 989 -36 
Q 684 19 347 128 
L 347 722 
Q 666 556 975 473 
Q 1284 391 1588 391 
Q 1994 391 2212 530 
Q 2431 669 2431 922 
Q 2431 1156 2273 1281 
Q 2116 1406 1581 1522 
L 1381 1569 
Q 847 1681 609 1914 
Q 372 2147 372 2553 
Q 372 3047 722 3315 
Q 1072 3584 1716 3584 
Q 2034 3584 2315 3537 
Q 2597 3491 2834 3397 
z
" transform="scale(0.015625)"/>
       <path id="DejaVuSans-29" d="M 513 4856 
L 1013 4856 
Q 1481 4119 1714 3412 
Q 1947 2706 1947 2009 
Q 1947 1309 1714 600 
Q 1481 -109 1013 -844 
L 513 -844 
Q 928 -128 1133 580 
Q 1338 1288 1338 2009 
Q 1338 2731 1133 3434 
Q 928 4138 513 4856 
z
" transform="scale(0.015625)"/>
      </defs>
      <use xlink:href="#DejaVuSans-41"/>
      <use xlink:href="#DejaVuSans-76" transform="translate(62.533203 0)"/>
      <use xlink:href="#DejaVuSans-65" transform="translate(121.712891 0)"/>
      <use xlink:href="#DejaVuSans-72" transform="translate(183.236328 0)"/>
      <use xlink:href="#DejaVuSans-61" transform="translate(224.349609 0)"/>
      <use xlink:href="#DejaVuSans-67" transform="translate(285.628906 0)"/>
      <use xlink:href="#DejaVuSans-65" transform="translate(349.105469 0)"/>
      <use xlink:href="#DejaVuSans-20" transform="translate(410.628906 0)"/>
      <use xlink:href="#DejaVuSans-74" transform="translate(442.416016 0)"/>
      <use xlink:href="#DejaVuSans-69" transform="translate(481.625 0)"/>
      <use xlink:href="#DejaVuSans-6d" transform="translate(509.408203 0)"/>
      <use xlink:href="#DejaVuSans-65" transform="translate(606.820312 0)"/>
      <use xlink:href="#DejaVuSans-20" transform="translate(668.34375 0)"/>
      <use xlink:href="#DejaVuSans-28" transform="translate(700.130859 0)"/>
      <use xlink:href="#DejaVuSans-6d" transform="translate(739.144531 0)"/>
      <use xlink:href="#DejaVuSans-73" transform="translate(836.556641 0)"/>
      <use xlink:href="#DejaVuSans-29" transform="translate(888.65625 0)"/>
     </g>
    </g>
   </g>
   <g id="line2d_16">
    <path d="M 115.363636 66.968147 
L 116.279291 143.285483 
L 117.194946 280.704466 
L 118.110601 299.869975 
L 119.026255 314.001296 
L 119.94191 338.616715 
L 120.857565 334.200499 
L 121.77322 340.297781 
L 122.688874 344.948927 
L 123.604529 351.286362 
L 124.520184 351.605463 
L 125.435839 357.371742 
L 126.351493 355.860075 
L 127.267148 337.358235 
L 128.182803 348.84617 
L 129.098457 354.906352 
L 130.014112 354.984972 
L 130.929767 351.315531 
L 131.845422 352.73085 
L 132.761076 354.419859 
L 133.676731 364.189 
L 134.592386 363.252225 
L 135.508041 364.096162 
L 136.423695 366.378171 
L 137.33935 349.737851 
L 138.255005 353.82714 
L 139.17066 352.617601 
L 140.086314 324.840174 
L 141.001969 356.044269 
L 141.917624 341.621358 
L 142.833279 347.588142 
L 143.748933 349.562496 
L 144.664588 355.172643 
L 145.580243 321.711407 
L 146.495898 334.956238 
L 147.411552 324.007188 
L 148.327207 338.853429 
L 149.242862 332.241276 
L 150.158517 335.392374 
L 151.074171 363.139608 
L 151.989826 364.624112 
L 152.905481 357.913891 
L 153.821136 355.892625 
L 154.73679 311.396056 
L 155.652445 308.561556 
L 156.5681 354.789311 
L 157.483755 347.706268 
L 158.399409 351.440531 
L 159.315064 356.875781 
L 160.230719 347.879989 
L 161.146373 351.815921 
L 162.062028 350.550877 
L 162.977683 363.130348 
L 163.893338 348.579293 
L 164.808992 351.753318 
L 166.640302 347.073683 
L 167.555957 345.87489 
L 168.471611 350.462618 
L 169.387266 338.329961 
L 170.302921 342.793814 
L 171.218576 336.964171 
L 172.13423 343.166454 
L 173.049885 358.701192 
L 173.96554 340.709206 
L 174.881195 355.518681 
L 175.796849 362.064418 
L 176.712504 294.150498 
L 177.628159 318.269284 
L 178.543814 321.300055 
L 179.459468 327.641515 
L 180.375123 339.506712 
L 181.290778 331.116819 
L 182.206433 342.81146 
L 183.122087 348.987528 
L 184.037742 337.45618 
L 184.953397 342.658087 
L 185.869052 310.517187 
L 186.784706 346.117413 
L 187.700361 344.903555 
L 188.616016 350.851496 
L 189.53167 349.318265 
L 190.447325 359.440471 
L 191.36298 344.696594 
L 192.278635 360.012283 
L 193.194289 361.086124 
L 194.109944 351.196314 
L 195.025599 355.956518 
L 195.941254 364.93943 
L 196.856908 348.224614 
L 197.772563 356.876535 
L 198.688218 327.196425 
L 199.603873 363.695944 
L 200.519527 363.650244 
L 201.435182 347.575565 
L 202.350837 362.552489 
L 203.266492 354.927959 
L 204.182146 363.983001 
L 205.097801 367.609987 
L 206.013456 359.309582 
L 206.929111 366.406327 
L 207.844765 366.463984 
L 208.76042 357.740887 
L 209.676075 346.126614 
L 210.59173 361.872409 
L 211.507384 367.179143 
L 212.423039 366.896038 
L 213.338694 366.235017 
L 214.254349 360.085845 
L 215.170003 367.828531 
L 216.085658 328.418402 
L 217.001313 360.420342 
L 217.916968 359.470812 
L 218.832622 367.720681 
L 219.748277 367.349627 
L 220.663932 364.741898 
L 221.579586 367.601297 
L 223.410896 368.436038 
L 224.326551 367.639975 
L 225.242205 367.287553 
L 226.15786 366.473609 
L 227.073515 368.501498 
L 227.98917 366.806368 
L 228.904824 364.299493 
L 229.820479 364.295823 
L 230.736134 366.317005 
L 231.651789 366.097022 
L 232.567443 365.566616 
L 233.483098 364.480474 
L 234.398753 366.273485 
L 235.314408 366.473037 
L 236.230062 365.651747 
L 237.145717 365.967212 
L 238.061372 367.201179 
L 238.977027 363.778142 
L 239.892681 365.60639 
L 240.808336 364.822159 
L 241.723991 362.985157 
L 242.639646 364.025978 
L 243.5553 365.865474 
L 244.470955 365.132907 
L 245.38661 367.128706 
L 246.302265 365.066493 
L 247.217919 365.447674 
L 248.133574 367.159699 
L 249.049229 364.328995 
L 249.964883 365.085878 
L 250.880538 366.894401 
L 251.796193 365.399923 
L 252.711848 365.830478 
L 253.627502 366.386822 
L 254.543157 360.431047 
L 255.458812 367.471652 
L 256.374467 366.954556 
L 257.290121 366.287961 
L 258.205776 366.071034 
L 259.121431 366.329522 
L 260.037086 365.342803 
L 260.95274 363.4998 
L 261.868395 367.238292 
L 262.78405 365.358317 
L 263.699705 358.359588 
L 264.615359 364.302948 
L 265.531014 364.41607 
L 266.446669 360.158157 
L 267.362324 363.553004 
L 268.277978 362.468067 
L 269.193633 357.521478 
L 270.109288 364.705626 
L 271.024943 364.293732 
L 271.940597 366.737322 
L 272.856252 367.268077 
L 273.771907 365.023671 
L 274.687562 365.929509 
L 275.603216 367.344429 
L 276.518871 366.425857 
L 277.434526 366.721403 
L 278.350181 367.828982 
L 279.265835 366.95068 
L 280.18149 366.69121 
L 281.097145 367.775759 
L 282.012799 365.810091 
L 282.928454 360.159274 
L 283.844109 366.869914 
L 284.759764 366.697398 
L 285.675418 364.411536 
L 286.591073 365.231711 
L 287.506728 364.742562 
L 288.422383 365.515834 
L 289.338037 364.050165 
L 290.253692 354.984355 
L 291.169347 363.227554 
L 292.085002 363.741589 
L 293.000656 362.798436 
L 293.916311 355.84169 
L 294.831966 362.242213 
L 295.747621 363.206495 
L 296.663275 358.57592 
L 297.57893 362.613191 
L 298.494585 363.559093 
L 299.41024 357.357332 
L 300.325894 364.240578 
L 301.241549 364.966605 
L 302.157204 364.997322 
L 303.072859 366.34599 
L 303.988513 365.813726 
L 304.904168 364.828416 
L 305.819823 365.992842 
L 306.735478 366.360668 
L 307.651132 365.454995 
L 308.566787 366.282157 
L 309.482442 360.492279 
L 310.398096 366.248703 
L 311.313751 364.92869 
L 312.229406 365.26186 
L 313.145061 365.194428 
L 314.060715 365.783809 
L 314.97637 365.316111 
L 315.892025 362.72936 
L 316.80768 360.611549 
L 317.723334 355.560305 
L 318.638989 356.628595 
L 319.554644 364.100836 
L 320.470299 356.075627 
L 321.385953 363.275751 
L 322.301608 364.223552 
L 323.217263 363.088826 
L 324.132918 361.300355 
L 325.048572 364.207496 
L 325.964227 363.529866 
L 326.879882 362.598 
L 327.795537 362.644619 
L 328.711191 363.136854 
L 329.626846 363.06104 
L 330.542501 362.093583 
L 331.458156 361.573561 
L 332.37381 368.114024 
L 333.289465 359.831935 
L 334.20512 368.168183 
L 335.120775 368.982153 
L 336.036429 369.326779 
L 336.952084 362.719473 
L 337.867739 369.292968 
L 338.783394 368.919468 
L 339.699048 368.84196 
L 340.614703 369.531092 
L 341.530358 368.233002 
L 342.446012 367.975129 
L 343.361667 368.325923 
L 344.277322 368.505234 
L 345.192977 368.256624 
L 346.108631 367.439103 
L 347.024286 366.424815 
L 347.939941 368.096931 
L 348.855596 367.967097 
L 349.77125 357.706969 
L 350.686905 366.641325 
L 352.518215 367.552757 
L 353.433869 360.800308 
L 354.349524 367.851879 
L 355.265179 368.872536 
L 356.180834 368.6847 
L 357.096488 367.958159 
L 358.012143 368.016258 
L 358.927798 368.620381 
L 359.843453 367.629562 
L 360.759107 366.148946 
L 361.674762 365.649937 
L 362.590417 366.950875 
L 363.506072 361.001408 
L 364.421726 361.161117 
L 365.337381 367.101211 
L 366.253036 367.676317 
L 367.168691 366.983748 
L 368.084345 362.466551 
L 369 367.160956 
L 369.915655 366.901019 
L 370.831309 367.291194 
L 371.746964 367.412394 
L 372.662619 367.093397 
L 373.578274 367.070036 
L 374.493928 366.726583 
L 375.409583 365.88356 
L 376.325238 366.696583 
L 377.240893 365.353099 
L 378.156547 367.807297 
L 379.072202 367.12495 
L 379.987857 367.488897 
L 380.903512 360.324815 
L 381.819166 367.054229 
L 382.734821 366.681478 
L 383.650476 361.019542 
L 384.566131 360.782284 
L 385.481785 367.344366 
L 386.39744 367.19477 
L 387.313095 366.121118 
L 388.22875 366.683304 
L 389.144404 364.715507 
L 390.060059 364.562168 
L 390.975714 363.924779 
L 391.891369 364.843436 
L 392.807023 359.49574 
L 393.722678 364.758785 
L 394.638333 365.296411 
L 395.553988 365.386686 
L 396.469642 364.671125 
L 397.385297 365.258211 
L 398.300952 363.688255 
L 399.216606 364.368125 
L 400.132261 363.594081 
L 401.963571 363.773514 
L 402.879225 362.865998 
L 403.79488 361.792038 
L 404.710535 362.061488 
L 405.62619 361.757494 
L 406.541844 362.895321 
L 407.457499 361.843417 
L 408.373154 361.413926 
L 409.288809 364.441703 
L 410.204463 364.670828 
L 411.120118 364.049216 
L 412.035773 362.301037 
L 412.951428 364.276529 
L 413.867082 364.760248 
L 414.782737 363.481462 
L 415.698392 362.657599 
L 416.614047 363.316712 
L 417.529701 363.320922 
L 418.445356 361.278998 
L 419.361011 362.227467 
L 420.276666 362.106194 
L 421.19232 360.675601 
L 422.107975 360.535115 
L 423.02363 362.824252 
L 423.939285 363.652579 
L 424.854939 363.495735 
L 425.770594 355.554643 
L 426.686249 363.500317 
L 427.601904 363.912166 
L 428.517558 363.641105 
L 429.433213 362.502867 
L 430.348868 363.155185 
L 431.264522 363.249204 
L 432.180177 361.483842 
L 434.011487 361.47099 
L 434.927141 362.081032 
L 435.842796 362.280425 
L 436.758451 356.153103 
L 437.674106 355.854317 
L 438.58976 357.256133 
L 439.505415 356.665507 
L 440.42107 361.719284 
L 441.336725 361.034137 
L 442.252379 362.470577 
L 443.168034 361.573297 
L 444.083689 361.655639 
L 444.999344 360.931575 
L 445.914998 361.707978 
L 446.830653 359.810897 
L 447.746308 361.192644 
L 448.661963 363.348262 
L 449.577617 359.887301 
L 450.493272 361.005645 
L 451.408927 361.046183 
L 452.324582 361.736098 
L 453.240236 361.283158 
L 454.155891 361.572555 
L 456.902855 361.652237 
L 458.734165 359.9742 
L 459.649819 349.202042 
L 461.481129 362.185011 
L 463.312438 357.301659 
L 464.228093 358.873871 
L 465.143748 356.547008 
L 466.059403 351.53734 
L 466.975057 354.944653 
L 467.890712 357.232042 
L 468.806367 356.968098 
L 469.722022 358.249484 
L 470.637676 360.260013 
L 471.553331 360.975564 
L 472.468986 362.122765 
L 473.384641 360.741521 
L 474.300295 360.339879 
L 475.21595 360.786412 
L 476.131605 354.785765 
L 477.04726 359.735986 
L 477.962914 353.690235 
L 478.878569 360.086452 
L 479.794224 360.506722 
L 480.709879 360.078513 
L 481.625533 353.540662 
L 482.541188 360.396433 
L 483.456843 360.23834 
L 485.288152 360.533245 
L 486.203807 359.837022 
L 488.035117 350.492431 
L 488.950771 354.585231 
L 489.866426 360.946623 
L 490.782081 360.038925 
L 491.697735 358.683486 
L 492.61339 359.395197 
L 493.529045 357.579911 
L 494.4447 357.817038 
L 495.360354 358.392766 
L 496.276009 360.621285 
L 497.191664 358.692552 
L 498.107319 358.855319 
L 499.022973 357.873267 
L 499.938628 359.228626 
L 500.854283 353.834328 
L 501.769938 359.362515 
L 502.685592 358.558283 
L 503.601247 359.501672 
L 504.516902 358.964973 
L 505.432557 358.764093 
L 506.348211 356.265323 
L 508.179521 358.855863 
L 509.095176 358.491743 
L 510.01083 357.523257 
L 510.926485 359.326058 
L 511.84214 357.551448 
L 512.757795 357.433441 
L 513.673449 356.694584 
L 514.589104 356.998596 
L 515.504759 357.781662 
L 516.420414 352.463754 
L 517.336068 355.280391 
L 518.251723 355.940328 
L 519.167378 356.221881 
L 520.083032 357.712436 
L 521.914342 355.886724 
L 522.829997 358.672298 
L 523.745651 357.912594 
L 524.661306 358.708388 
L 525.576961 358.182278 
L 526.492616 360.398825 
L 527.40827 354.507157 
L 528.323925 360.079429 
L 529.23958 357.121042 
L 530.155235 360.916521 
L 531.070889 361.792976 
L 531.986544 357.427308 
L 532.902199 357.328652 
L 533.817854 359.47779 
L 535.649163 352.244224 
L 536.564818 358.668464 
L 537.480473 353.615566 
L 538.396127 359.191429 
L 539.311782 358.775657 
L 540.227437 357.451664 
L 541.143092 352.748801 
L 542.058746 360.071546 
L 543.890056 356.915445 
L 544.805711 360.248609 
L 545.721365 359.68024 
L 546.63702 357.008074 
L 547.552675 356.657142 
L 548.46833 358.385421 
L 549.383984 354.89376 
L 550.299639 354.525816 
L 551.215294 357.3757 
L 552.130948 356.328173 
L 553.046603 356.344526 
L 553.962258 355.388009 
L 554.877913 355.098827 
L 555.793567 356.862004 
L 556.709222 357.271971 
L 557.624877 356.385567 
L 558.540532 357.111746 
L 559.456186 358.628197 
L 560.371841 358.027403 
L 561.287496 355.644006 
L 562.203151 351.779054 
L 563.118805 358.260054 
L 564.03446 356.143951 
L 564.950115 352.941103 
L 565.86577 354.375605 
L 566.781424 351.558065 
L 567.697079 355.517852 
L 568.612734 354.618228 
L 569.528389 356.267174 
L 570.444043 355.022038 
L 571.359698 353.253349 
L 572.275353 353.623069 
L 573.191008 355.359561 
L 574.106662 354.518771 
L 575.022317 349.709522 
L 575.937972 353.71519 
L 576.853627 355.530278 
L 577.769281 350.206391 
L 578.684936 354.901034 
L 579.600591 353.479945 
L 580.516245 355.664918 
L 581.4319 355.826273 
L 582.347555 355.448276 
L 583.26321 350.527 
L 584.178864 350.323151 
L 585.094519 353.989115 
L 586.925829 354.029316 
L 587.841483 354.97619 
L 588.757138 357.42493 
L 589.672793 358.611145 
L 590.588448 355.382409 
L 591.504102 352.653328 
L 592.419757 354.801302 
L 593.335412 351.028434 
L 594.251067 348.721665 
L 595.166721 339.723425 
L 596.082376 353.675463 
L 596.998031 353.998126 
L 597.913686 352.839266 
L 598.82934 354.155991 
L 599.744995 354.743375 
L 601.576305 353.018483 
L 602.491959 353.517714 
L 603.407614 356.039255 
L 604.323269 356.754186 
L 605.238924 353.138475 
L 606.154578 354.409051 
L 607.070233 355.470408 
L 607.985888 354.438132 
L 608.901543 352.012772 
L 609.817197 353.772912 
L 610.732852 353.729598 
L 611.648507 353.944284 
L 612.564161 352.163601 
L 613.479816 354.699667 
L 614.395471 354.443695 
L 615.311126 346.644425 
L 616.22678 352.541397 
L 617.142435 352.734423 
L 618.05809 355.0869 
L 618.973745 353.688106 
L 619.889399 350.801405 
L 620.805054 353.106154 
L 621.720709 354.235627 
L 622.636364 353.607341 
L 622.636364 353.607341 
" clip-path="url(#pb468cec46a)" style="fill: none; stroke: #1f77b4; stroke-width: 1.5; stroke-linecap: square"/>
   </g>
   <g id="patch_3">
    <path d="M 90 384.48 
L 90 51.84 
" style="fill: none; stroke: #000000; stroke-width: 0.8; stroke-linejoin: miter; stroke-linecap: square"/>
   </g>
   <g id="patch_4">
    <path d="M 648 384.48 
L 648 51.84 
" style="fill: none; stroke: #000000; stroke-width: 0.8; stroke-linejoin: miter; stroke-linecap: square"/>
   </g>
   <g id="patch_5">
    <path d="M 90 384.48 
L 648 384.48 
" style="fill: none; stroke: #000000; stroke-width: 0.8; stroke-linejoin: miter; stroke-linecap: square"/>
   </g>
   <g id="patch_6">
    <path d="M 90 51.84 
L 648 51.84 
" style="fill: none; stroke: #000000; stroke-width: 0.8; stroke-linejoin: miter; stroke-linecap: square"/>
   </g>
   <g id="text_18">
    <!-- Average time per index -->
    <g transform="translate(298.700625 45.84) scale(0.12 -0.12)">
     <defs>
      <path id="DejaVuSans-70" d="M 1159 525 
L 1159 -1331 
L 581 -1331 
L 581 3500 
L 1159 3500 
L 1159 2969 
Q 1341 3281 1617 3432 
Q 1894 3584 2278 3584 
Q 2916 3584 3314 3078 
Q 3713 2572 3713 1747 
Q 3713 922 3314 415 
Q 2916 -91 2278 -91 
Q 1894 -91 1617 61 
Q 1341 213 1159 525 
z
M 3116 1747 
Q 3116 2381 2855 2742 
Q 2594 3103 2138 3103 
Q 1681 3103 1420 2742 
Q 1159 2381 1159 1747 
Q 1159 1113 1420 752 
Q 1681 391 2138 391 
Q 2594 391 2855 752 
Q 3116 1113 3116 1747 
z
" transform="scale(0.015625)"/>
     </defs>
     <use xlink:href="#DejaVuSans-41"/>
     <use xlink:href="#DejaVuSans-76" transform="translate(62.533203 0)"/>
     <use xlink:href="#DejaVuSans-65" transform="translate(121.712891 0)"/>
     <use xlink:href="#DejaVuSans-72" transform="translate(183.236328 0)"/>
     <use xlink:href="#DejaVuSans-61" transform="translate(224.349609 0)"/>
     <use xlink:href="#DejaVuSans-67" transform="translate(285.628906 0)"/>
     <use xlink:href="#DejaVuSans-65" transform="translate(349.105469 0)"/>
     <use xlink:href="#DejaVuSans-20" transform="translate(410.628906 0)"/>
     <use xlink:href="#DejaVuSans-74" transform="translate(442.416016 0)"/>
     <use xlink:href="#DejaVuSans-69" transform="translate(481.625 0)"/>
     <use xlink:href="#DejaVuSans-6d" transform="translate(509.408203 0)"/>
     <use xlink:href="#DejaVuSans-65" transform="translate(606.820312 0)"/>
     <use xlink:href="#DejaVuSans-20" transform="translate(668.34375 0)"/>
     <use xlink:href="#DejaVuSans-70" transform="translate(700.130859 0)"/>
     <use xlink:href="#DejaVuSans-65" transform="translate(763.607422 0)"/>
     <use xlink:href="#DejaVuSans-72" transform="translate(825.130859 0)"/>
     <use xlink:href="#DejaVuSans-20" transform="translate(866.244141 0)"/>
     <use xlink:href="#DejaVuSans-69" transform="translate(898.03125 0)"/>
     <use xlink:href="#DejaVuSans-6e" transform="translate(925.814453 0)"/>
     <use xlink:href="#DejaVuSans-64" transform="translate(989.193359 0)"/>
     <use xlink:href="#DejaVuSans-65" transform="translate(1052.669922 0)"/>
     <use xlink:href="#DejaVuSans-78" transform="translate(1112.443359 0)"/>
    </g>
   </g>
   <g id="legend_1">
    <g id="patch_7">
     <path d="M 544.020313 74.518125 
L 641 74.518125 
Q 643 74.518125 643 72.518125 
L 643 58.84 
Q 643 56.84 641 56.84 
L 544.020313 56.84 
Q 542.020313 56.84 542.020313 58.84 
L 542.020313 72.518125 
Q 542.020313 74.518125 544.020313 74.518125 
z
" style="fill: #ffffff; opacity: 0.8; stroke: #cccccc; stroke-linejoin: miter"/>
    </g>
    <g id="line2d_17">
     <path d="M 546.020313 64.938438 
L 556.020313 64.938438 
L 566.020313 64.938438 
" style="fill: none; stroke: #1f77b4; stroke-width: 1.5; stroke-linecap: square"/>
    </g>
    <g id="text_19">
     <!-- handleResult -->
     <g transform="translate(574.020313 68.438438) scale(0.1 -0.1)">
      <defs>
       <path id="DejaVuSans-68" d="M 3513 2113 
L 3513 0 
L 2938 0 
L 2938 2094 
Q 2938 2591 2744 2837 
Q 2550 3084 2163 3084 
Q 1697 3084 1428 2787 
Q 1159 2491 1159 1978 
L 1159 0 
L 581 0 
L 581 4863 
L 1159 4863 
L 1159 2956 
Q 1366 3272 1645 3428 
Q 1925 3584 2291 3584 
Q 2894 3584 3203 3211 
Q 3513 2838 3513 2113 
z
" transform="scale(0.015625)"/>
       <path id="DejaVuSans-6c" d="M 603 4863 
L 1178 4863 
L 1178 0 
L 603 0 
L 603 4863 
z
" transform="scale(0.015625)"/>
       <path id="DejaVuSans-52" d="M 2841 2188 
Q 3044 2119 3236 1894 
Q 3428 1669 3622 1275 
L 4263 0 
L 3584 0 
L 2988 1197 
Q 2756 1666 2539 1819 
Q 2322 1972 1947 1972 
L 1259 1972 
L 1259 0 
L 628 0 
L 628 4666 
L 2053 4666 
Q 2853 4666 3247 4331 
Q 3641 3997 3641 3322 
Q 3641 2881 3436 2590 
Q 3231 2300 2841 2188 
z
M 1259 4147 
L 1259 2491 
L 2053 2491 
Q 2509 2491 2742 2702 
Q 2975 2913 2975 3322 
Q 2975 3731 2742 3939 
Q 2509 4147 2053 4147 
L 1259 4147 
z
" transform="scale(0.015625)"/>
       <path id="DejaVuSans-75" d="M 544 1381 
L 544 3500 
L 1119 3500 
L 1119 1403 
Q 1119 906 1312 657 
Q 1506 409 1894 409 
Q 2359 409 2629 706 
Q 2900 1003 2900 1516 
L 2900 3500 
L 3475 3500 
L 3475 0 
L 2900 0 
L 2900 538 
Q 2691 219 2414 64 
Q 2138 -91 1772 -91 
Q 1169 -91 856 284 
Q 544 659 544 1381 
z
M 1991 3584 
L 1991 3584 
z
" transform="scale(0.015625)"/>
      </defs>
      <use xlink:href="#DejaVuSans-68"/>
      <use xlink:href="#DejaVuSans-61" transform="translate(63.378906 0)"/>
      <use xlink:href="#DejaVuSans-6e" transform="translate(124.658203 0)"/>
      <use xlink:href="#DejaVuSans-64" transform="translate(188.037109 0)"/>
      <use xlink:href="#DejaVuSans-6c" transform="translate(251.513672 0)"/>
      <use xlink:href="#DejaVuSans-65" transform="translate(279.296875 0)"/>
      <use xlink:href="#DejaVuSans-52" transform="translate(340.820312 0)"/>
      <use xlink:href="#DejaVuSans-65" transform="translate(405.802734 0)"/>
      <use xlink:href="#DejaVuSans-73" transform="translate(467.326172 0)"/>
      <use xlink:href="#DejaVuSans-75" transform="translate(519.425781 0)"/>
      <use xlink:href="#DejaVuSans-6c" transform="translate(582.804688 0)"/>
      <use xlink:href="#DejaVuSans-74" transform="translate(610.587891 0)"/>
     </g>
    </g>
   </g>
  </g>
 </g>
 <defs>
  <clipPath id="pb468cec46a">
   <rect x="90" y="51.84" width="558" height="332.64"/>
  </clipPath>
 </defs>
</svg>
