<?xml version="1.0" encoding="utf-8" standalone="no"?>
<!DOCTYPE svg PUBLIC "-//W3C//DTD SVG 1.1//EN"
  "http://www.w3.org/Graphics/SVG/1.1/DTD/svg11.dtd">
<svg xmlns:xlink="http://www.w3.org/1999/xlink" width="720pt" height="432pt" viewBox="0 0 720 432" xmlns="http://www.w3.org/2000/svg" version="1.1">
 <metadata>
  <rdf:RDF xmlns:dc="http://purl.org/dc/elements/1.1/" xmlns:cc="http://creativecommons.org/ns#" xmlns:rdf="http://www.w3.org/1999/02/22-rdf-syntax-ns#">
   <cc:Work>
    <dc:type rdf:resource="http://purl.org/dc/dcmitype/StillImage"/>
    <dc:date>2025-06-08T23:57:30.609240</dc:date>
    <dc:format>image/svg+xml</dc:format>
    <dc:creator>
     <cc:Agent>
      <dc:title>Matplotlib v3.10.3, https://matplotlib.org/</dc:title>
     </cc:Agent>
    </dc:creator>
   </cc:Work>
  </rdf:RDF>
 </metadata>
 <defs>
  <style type="text/css">*{stroke-linejoin: round; stroke-linecap: butt}</style>
 </defs>
 <g id="figure_1">
  <g id="patch_1">
   <path d="M 0 432 
L 720 432 
L 720 0 
L 0 0 
z
" style="fill: #ffffff"/>
  </g>
  <g id="axes_1">
   <g id="patch_2">
    <path d="M 90 384.48 
L 648 384.48 
L 648 51.84 
L 90 51.84 
z
" style="fill: #ffffff"/>
   </g>
   <g id="matplotlib.axis_1">
    <g id="xtick_1">
     <g id="line2d_1">
      <defs>
       <path id="m7f1930ba44" d="M 0 0 
L 0 3.5 
" style="stroke: #000000; stroke-width: 0.8"/>
      </defs>
      <g>
       <use xlink:href="#m7f1930ba44" x="115.363636" y="384.48" style="stroke: #000000; stroke-width: 0.8"/>
      </g>
     </g>
     <g id="text_1">
      <!-- 0 -->
      <g transform="translate(112.182386 399.078438) scale(0.1 -0.1)">
       <defs>
        <path id="DejaVuSans-30" d="M 2034 4250 
Q 1547 4250 1301 3770 
Q 1056 3291 1056 2328 
Q 1056 1369 1301 889 
Q 1547 409 2034 409 
Q 2525 409 2770 889 
Q 3016 1369 3016 2328 
Q 3016 3291 2770 3770 
Q 2525 4250 2034 4250 
z
M 2034 4750 
Q 2819 4750 3233 4129 
Q 3647 3509 3647 2328 
Q 3647 1150 3233 529 
Q 2819 -91 2034 -91 
Q 1250 -91 836 529 
Q 422 1150 422 2328 
Q 422 3509 836 4129 
Q 1250 4750 2034 4750 
z
" transform="scale(0.015625)"/>
       </defs>
       <use xlink:href="#DejaVuSans-30"/>
      </g>
     </g>
    </g>
    <g id="xtick_2">
     <g id="line2d_2">
      <g>
       <use xlink:href="#m7f1930ba44" x="206.929111" y="384.48" style="stroke: #000000; stroke-width: 0.8"/>
      </g>
     </g>
     <g id="text_2">
      <!-- 100 -->
      <g transform="translate(197.385361 399.078438) scale(0.1 -0.1)">
       <defs>
        <path id="DejaVuSans-31" d="M 794 531 
L 1825 531 
L 1825 4091 
L 703 3866 
L 703 4441 
L 1819 4666 
L 2450 4666 
L 2450 531 
L 3481 531 
L 3481 0 
L 794 0 
L 794 531 
z
" transform="scale(0.015625)"/>
       </defs>
       <use xlink:href="#DejaVuSans-31"/>
       <use xlink:href="#DejaVuSans-30" transform="translate(63.623047 0)"/>
       <use xlink:href="#DejaVuSans-30" transform="translate(127.246094 0)"/>
      </g>
     </g>
    </g>
    <g id="xtick_3">
     <g id="line2d_3">
      <g>
       <use xlink:href="#m7f1930ba44" x="298.494585" y="384.48" style="stroke: #000000; stroke-width: 0.8"/>
      </g>
     </g>
     <g id="text_3">
      <!-- 200 -->
      <g transform="translate(288.950835 399.078438) scale(0.1 -0.1)">
       <defs>
        <path id="DejaVuSans-32" d="M 1228 531 
L 3431 531 
L 3431 0 
L 469 0 
L 469 531 
Q 828 903 1448 1529 
Q 2069 2156 2228 2338 
Q 2531 2678 2651 2914 
Q 2772 3150 2772 3378 
Q 2772 3750 2511 3984 
Q 2250 4219 1831 4219 
Q 1534 4219 1204 4116 
Q 875 4013 500 3803 
L 500 4441 
Q 881 4594 1212 4672 
Q 1544 4750 1819 4750 
Q 2544 4750 2975 4387 
Q 3406 4025 3406 3419 
Q 3406 3131 3298 2873 
Q 3191 2616 2906 2266 
Q 2828 2175 2409 1742 
Q 1991 1309 1228 531 
z
" transform="scale(0.015625)"/>
       </defs>
       <use xlink:href="#DejaVuSans-32"/>
       <use xlink:href="#DejaVuSans-30" transform="translate(63.623047 0)"/>
       <use xlink:href="#DejaVuSans-30" transform="translate(127.246094 0)"/>
      </g>
     </g>
    </g>
    <g id="xtick_4">
     <g id="line2d_4">
      <g>
       <use xlink:href="#m7f1930ba44" x="390.060059" y="384.48" style="stroke: #000000; stroke-width: 0.8"/>
      </g>
     </g>
     <g id="text_4">
      <!-- 300 -->
      <g transform="translate(380.516309 399.078438) scale(0.1 -0.1)">
       <defs>
        <path id="DejaVuSans-33" d="M 2597 2516 
Q 3050 2419 3304 2112 
Q 3559 1806 3559 1356 
Q 3559 666 3084 287 
Q 2609 -91 1734 -91 
Q 1441 -91 1130 -33 
Q 819 25 488 141 
L 488 750 
Q 750 597 1062 519 
Q 1375 441 1716 441 
Q 2309 441 2620 675 
Q 2931 909 2931 1356 
Q 2931 1769 2642 2001 
Q 2353 2234 1838 2234 
L 1294 2234 
L 1294 2753 
L 1863 2753 
Q 2328 2753 2575 2939 
Q 2822 3125 2822 3475 
Q 2822 3834 2567 4026 
Q 2313 4219 1838 4219 
Q 1578 4219 1281 4162 
Q 984 4106 628 3988 
L 628 4550 
Q 988 4650 1302 4700 
Q 1616 4750 1894 4750 
Q 2613 4750 3031 4423 
Q 3450 4097 3450 3541 
Q 3450 3153 3228 2886 
Q 3006 2619 2597 2516 
z
" transform="scale(0.015625)"/>
       </defs>
       <use xlink:href="#DejaVuSans-33"/>
       <use xlink:href="#DejaVuSans-30" transform="translate(63.623047 0)"/>
       <use xlink:href="#DejaVuSans-30" transform="translate(127.246094 0)"/>
      </g>
     </g>
    </g>
    <g id="xtick_5">
     <g id="line2d_5">
      <g>
       <use xlink:href="#m7f1930ba44" x="481.625533" y="384.48" style="stroke: #000000; stroke-width: 0.8"/>
      </g>
     </g>
     <g id="text_5">
      <!-- 400 -->
      <g transform="translate(472.081783 399.078438) scale(0.1 -0.1)">
       <defs>
        <path id="DejaVuSans-34" d="M 2419 4116 
L 825 1625 
L 2419 1625 
L 2419 4116 
z
M 2253 4666 
L 3047 4666 
L 3047 1625 
L 3713 1625 
L 3713 1100 
L 3047 1100 
L 3047 0 
L 2419 0 
L 2419 1100 
L 313 1100 
L 313 1709 
L 2253 4666 
z
" transform="scale(0.015625)"/>
       </defs>
       <use xlink:href="#DejaVuSans-34"/>
       <use xlink:href="#DejaVuSans-30" transform="translate(63.623047 0)"/>
       <use xlink:href="#DejaVuSans-30" transform="translate(127.246094 0)"/>
      </g>
     </g>
    </g>
    <g id="xtick_6">
     <g id="line2d_6">
      <g>
       <use xlink:href="#m7f1930ba44" x="573.191008" y="384.48" style="stroke: #000000; stroke-width: 0.8"/>
      </g>
     </g>
     <g id="text_6">
      <!-- 500 -->
      <g transform="translate(563.647258 399.078438) scale(0.1 -0.1)">
       <defs>
        <path id="DejaVuSans-35" d="M 691 4666 
L 3169 4666 
L 3169 4134 
L 1269 4134 
L 1269 2991 
Q 1406 3038 1543 3061 
Q 1681 3084 1819 3084 
Q 2600 3084 3056 2656 
Q 3513 2228 3513 1497 
Q 3513 744 3044 326 
Q 2575 -91 1722 -91 
Q 1428 -91 1123 -41 
Q 819 9 494 109 
L 494 744 
Q 775 591 1075 516 
Q 1375 441 1709 441 
Q 2250 441 2565 725 
Q 2881 1009 2881 1497 
Q 2881 1984 2565 2268 
Q 2250 2553 1709 2553 
Q 1456 2553 1204 2497 
Q 953 2441 691 2322 
L 691 4666 
z
" transform="scale(0.015625)"/>
       </defs>
       <use xlink:href="#DejaVuSans-35"/>
       <use xlink:href="#DejaVuSans-30" transform="translate(63.623047 0)"/>
       <use xlink:href="#DejaVuSans-30" transform="translate(127.246094 0)"/>
      </g>
     </g>
    </g>
    <g id="text_7">
     <!-- Index -->
     <g transform="translate(355.233594 412.756563) scale(0.1 -0.1)">
      <defs>
       <path id="DejaVuSans-49" d="M 628 4666 
L 1259 4666 
L 1259 0 
L 628 0 
L 628 4666 
z
" transform="scale(0.015625)"/>
       <path id="DejaVuSans-6e" d="M 3513 2113 
L 3513 0 
L 2938 0 
L 2938 2094 
Q 2938 2591 2744 2837 
Q 2550 3084 2163 3084 
Q 1697 3084 1428 2787 
Q 1159 2491 1159 1978 
L 1159 0 
L 581 0 
L 581 3500 
L 1159 3500 
L 1159 2956 
Q 1366 3272 1645 3428 
Q 1925 3584 2291 3584 
Q 2894 3584 3203 3211 
Q 3513 2838 3513 2113 
z
" transform="scale(0.015625)"/>
       <path id="DejaVuSans-64" d="M 2906 2969 
L 2906 4863 
L 3481 4863 
L 3481 0 
L 2906 0 
L 2906 525 
Q 2725 213 2448 61 
Q 2172 -91 1784 -91 
Q 1150 -91 751 415 
Q 353 922 353 1747 
Q 353 2572 751 3078 
Q 1150 3584 1784 3584 
Q 2172 3584 2448 3432 
Q 2725 3281 2906 2969 
z
M 947 1747 
Q 947 1113 1208 752 
Q 1469 391 1925 391 
Q 2381 391 2643 752 
Q 2906 1113 2906 1747 
Q 2906 2381 2643 2742 
Q 2381 3103 1925 3103 
Q 1469 3103 1208 2742 
Q 947 2381 947 1747 
z
" transform="scale(0.015625)"/>
       <path id="DejaVuSans-65" d="M 3597 1894 
L 3597 1613 
L 953 1613 
Q 991 1019 1311 708 
Q 1631 397 2203 397 
Q 2534 397 2845 478 
Q 3156 559 3463 722 
L 3463 178 
Q 3153 47 2828 -22 
Q 2503 -91 2169 -91 
Q 1331 -91 842 396 
Q 353 884 353 1716 
Q 353 2575 817 3079 
Q 1281 3584 2069 3584 
Q 2775 3584 3186 3129 
Q 3597 2675 3597 1894 
z
M 3022 2063 
Q 3016 2534 2758 2815 
Q 2500 3097 2075 3097 
Q 1594 3097 1305 2825 
Q 1016 2553 972 2059 
L 3022 2063 
z
" transform="scale(0.015625)"/>
       <path id="DejaVuSans-78" d="M 3513 3500 
L 2247 1797 
L 3578 0 
L 2900 0 
L 1881 1375 
L 863 0 
L 184 0 
L 1544 1831 
L 300 3500 
L 978 3500 
L 1906 2253 
L 2834 3500 
L 3513 3500 
z
" transform="scale(0.015625)"/>
      </defs>
      <use xlink:href="#DejaVuSans-49"/>
      <use xlink:href="#DejaVuSans-6e" transform="translate(29.492188 0)"/>
      <use xlink:href="#DejaVuSans-64" transform="translate(92.871094 0)"/>
      <use xlink:href="#DejaVuSans-65" transform="translate(156.347656 0)"/>
      <use xlink:href="#DejaVuSans-78" transform="translate(216.121094 0)"/>
     </g>
    </g>
   </g>
   <g id="matplotlib.axis_2">
    <g id="ytick_1">
     <g id="line2d_7">
      <defs>
       <path id="mddb749ef04" d="M 0 0 
L -3.5 0 
" style="stroke: #000000; stroke-width: 0.8"/>
      </defs>
      <g>
       <use xlink:href="#mddb749ef04" x="90" y="384.48" style="stroke: #000000; stroke-width: 0.8"/>
      </g>
     </g>
     <g id="text_8">
      <!-- 0 -->
      <g transform="translate(76.6375 388.279219) scale(0.1 -0.1)">
       <use xlink:href="#DejaVuSans-30"/>
      </g>
     </g>
    </g>
    <g id="ytick_2">
     <g id="line2d_8">
      <g>
       <use xlink:href="#mddb749ef04" x="90" y="343.084799" style="stroke: #000000; stroke-width: 0.8"/>
      </g>
     </g>
     <g id="text_9">
      <!-- 5 -->
      <g transform="translate(76.6375 346.884018) scale(0.1 -0.1)">
       <use xlink:href="#DejaVuSans-35"/>
      </g>
     </g>
    </g>
    <g id="ytick_3">
     <g id="line2d_9">
      <g>
       <use xlink:href="#mddb749ef04" x="90" y="301.689598" style="stroke: #000000; stroke-width: 0.8"/>
      </g>
     </g>
     <g id="text_10">
      <!-- 10 -->
      <g transform="translate(70.275 305.488817) scale(0.1 -0.1)">
       <use xlink:href="#DejaVuSans-31"/>
       <use xlink:href="#DejaVuSans-30" transform="translate(63.623047 0)"/>
      </g>
     </g>
    </g>
    <g id="ytick_4">
     <g id="line2d_10">
      <g>
       <use xlink:href="#mddb749ef04" x="90" y="260.294397" style="stroke: #000000; stroke-width: 0.8"/>
      </g>
     </g>
     <g id="text_11">
      <!-- 15 -->
      <g transform="translate(70.275 264.093616) scale(0.1 -0.1)">
       <use xlink:href="#DejaVuSans-31"/>
       <use xlink:href="#DejaVuSans-35" transform="translate(63.623047 0)"/>
      </g>
     </g>
    </g>
    <g id="ytick_5">
     <g id="line2d_11">
      <g>
       <use xlink:href="#mddb749ef04" x="90" y="218.899196" style="stroke: #000000; stroke-width: 0.8"/>
      </g>
     </g>
     <g id="text_12">
      <!-- 20 -->
      <g transform="translate(70.275 222.698415) scale(0.1 -0.1)">
       <use xlink:href="#DejaVuSans-32"/>
       <use xlink:href="#DejaVuSans-30" transform="translate(63.623047 0)"/>
      </g>
     </g>
    </g>
    <g id="ytick_6">
     <g id="line2d_12">
      <g>
       <use xlink:href="#mddb749ef04" x="90" y="177.503995" style="stroke: #000000; stroke-width: 0.8"/>
      </g>
     </g>
     <g id="text_13">
      <!-- 25 -->
      <g transform="translate(70.275 181.303214) scale(0.1 -0.1)">
       <use xlink:href="#DejaVuSans-32"/>
       <use xlink:href="#DejaVuSans-35" transform="translate(63.623047 0)"/>
      </g>
     </g>
    </g>
    <g id="ytick_7">
     <g id="line2d_13">
      <g>
       <use xlink:href="#mddb749ef04" x="90" y="136.108794" style="stroke: #000000; stroke-width: 0.8"/>
      </g>
     </g>
     <g id="text_14">
      <!-- 30 -->
      <g transform="translate(70.275 139.908013) scale(0.1 -0.1)">
       <use xlink:href="#DejaVuSans-33"/>
       <use xlink:href="#DejaVuSans-30" transform="translate(63.623047 0)"/>
      </g>
     </g>
    </g>
    <g id="ytick_8">
     <g id="line2d_14">
      <g>
       <use xlink:href="#mddb749ef04" x="90" y="94.713593" style="stroke: #000000; stroke-width: 0.8"/>
      </g>
     </g>
     <g id="text_15">
      <!-- 35 -->
      <g transform="translate(70.275 98.512812) scale(0.1 -0.1)">
       <use xlink:href="#DejaVuSans-33"/>
       <use xlink:href="#DejaVuSans-35" transform="translate(63.623047 0)"/>
      </g>
     </g>
    </g>
    <g id="ytick_9">
     <g id="line2d_15">
      <g>
       <use xlink:href="#mddb749ef04" x="90" y="53.318392" style="stroke: #000000; stroke-width: 0.8"/>
      </g>
     </g>
     <g id="text_16">
      <!-- 40 -->
      <g transform="translate(70.275 57.117611) scale(0.1 -0.1)">
       <use xlink:href="#DejaVuSans-34"/>
       <use xlink:href="#DejaVuSans-30" transform="translate(63.623047 0)"/>
      </g>
     </g>
    </g>
    <g id="text_17">
     <!-- Average time (ms) -->
     <g transform="translate(64.195312 264.543594) rotate(-90) scale(0.1 -0.1)">
      <defs>
       <path id="DejaVuSans-41" d="M 2188 4044 
L 1331 1722 
L 3047 1722 
L 2188 4044 
z
M 1831 4666 
L 2547 4666 
L 4325 0 
L 3669 0 
L 3244 1197 
L 1141 1197 
L 716 0 
L 50 0 
L 1831 4666 
z
" transform="scale(0.015625)"/>
       <path id="DejaVuSans-76" d="M 191 3500 
L 800 3500 
L 1894 563 
L 2988 3500 
L 3597 3500 
L 2284 0 
L 1503 0 
L 191 3500 
z
" transform="scale(0.015625)"/>
       <path id="DejaVuSans-72" d="M 2631 2963 
Q 2534 3019 2420 3045 
Q 2306 3072 2169 3072 
Q 1681 3072 1420 2755 
Q 1159 2438 1159 1844 
L 1159 0 
L 581 0 
L 581 3500 
L 1159 3500 
L 1159 2956 
Q 1341 3275 1631 3429 
Q 1922 3584 2338 3584 
Q 2397 3584 2469 3576 
Q 2541 3569 2628 3553 
L 2631 2963 
z
" transform="scale(0.015625)"/>
       <path id="DejaVuSans-61" d="M 2194 1759 
Q 1497 1759 1228 1600 
Q 959 1441 959 1056 
Q 959 750 1161 570 
Q 1363 391 1709 391 
Q 2188 391 2477 730 
Q 2766 1069 2766 1631 
L 2766 1759 
L 2194 1759 
z
M 3341 1997 
L 3341 0 
L 2766 0 
L 2766 531 
Q 2569 213 2275 61 
Q 1981 -91 1556 -91 
Q 1019 -91 701 211 
Q 384 513 384 1019 
Q 384 1609 779 1909 
Q 1175 2209 1959 2209 
L 2766 2209 
L 2766 2266 
Q 2766 2663 2505 2880 
Q 2244 3097 1772 3097 
Q 1472 3097 1187 3025 
Q 903 2953 641 2809 
L 641 3341 
Q 956 3463 1253 3523 
Q 1550 3584 1831 3584 
Q 2591 3584 2966 3190 
Q 3341 2797 3341 1997 
z
" transform="scale(0.015625)"/>
       <path id="DejaVuSans-67" d="M 2906 1791 
Q 2906 2416 2648 2759 
Q 2391 3103 1925 3103 
Q 1463 3103 1205 2759 
Q 947 2416 947 1791 
Q 947 1169 1205 825 
Q 1463 481 1925 481 
Q 2391 481 2648 825 
Q 2906 1169 2906 1791 
z
M 3481 434 
Q 3481 -459 3084 -895 
Q 2688 -1331 1869 -1331 
Q 1566 -1331 1297 -1286 
Q 1028 -1241 775 -1147 
L 775 -588 
Q 1028 -725 1275 -790 
Q 1522 -856 1778 -856 
Q 2344 -856 2625 -561 
Q 2906 -266 2906 331 
L 2906 616 
Q 2728 306 2450 153 
Q 2172 0 1784 0 
Q 1141 0 747 490 
Q 353 981 353 1791 
Q 353 2603 747 3093 
Q 1141 3584 1784 3584 
Q 2172 3584 2450 3431 
Q 2728 3278 2906 2969 
L 2906 3500 
L 3481 3500 
L 3481 434 
z
" transform="scale(0.015625)"/>
       <path id="DejaVuSans-20" transform="scale(0.015625)"/>
       <path id="DejaVuSans-74" d="M 1172 4494 
L 1172 3500 
L 2356 3500 
L 2356 3053 
L 1172 3053 
L 1172 1153 
Q 1172 725 1289 603 
Q 1406 481 1766 481 
L 2356 481 
L 2356 0 
L 1766 0 
Q 1100 0 847 248 
Q 594 497 594 1153 
L 594 3053 
L 172 3053 
L 172 3500 
L 594 3500 
L 594 4494 
L 1172 4494 
z
" transform="scale(0.015625)"/>
       <path id="DejaVuSans-69" d="M 603 3500 
L 1178 3500 
L 1178 0 
L 603 0 
L 603 3500 
z
M 603 4863 
L 1178 4863 
L 1178 4134 
L 603 4134 
L 603 4863 
z
" transform="scale(0.015625)"/>
       <path id="DejaVuSans-6d" d="M 3328 2828 
Q 3544 3216 3844 3400 
Q 4144 3584 4550 3584 
Q 5097 3584 5394 3201 
Q 5691 2819 5691 2113 
L 5691 0 
L 5113 0 
L 5113 2094 
Q 5113 2597 4934 2840 
Q 4756 3084 4391 3084 
Q 3944 3084 3684 2787 
Q 3425 2491 3425 1978 
L 3425 0 
L 2847 0 
L 2847 2094 
Q 2847 2600 2669 2842 
Q 2491 3084 2119 3084 
Q 1678 3084 1418 2786 
Q 1159 2488 1159 1978 
L 1159 0 
L 581 0 
L 581 3500 
L 1159 3500 
L 1159 2956 
Q 1356 3278 1631 3431 
Q 1906 3584 2284 3584 
Q 2666 3584 2933 3390 
Q 3200 3197 3328 2828 
z
" transform="scale(0.015625)"/>
       <path id="DejaVuSans-28" d="M 1984 4856 
Q 1566 4138 1362 3434 
Q 1159 2731 1159 2009 
Q 1159 1288 1364 580 
Q 1569 -128 1984 -844 
L 1484 -844 
Q 1016 -109 783 600 
Q 550 1309 550 2009 
Q 550 2706 781 3412 
Q 1013 4119 1484 4856 
L 1984 4856 
z
" transform="scale(0.015625)"/>
       <path id="DejaVuSans-73" d="M 2834 3397 
L 2834 2853 
Q 2591 2978 2328 3040 
Q 2066 3103 1784 3103 
Q 1356 3103 1142 2972 
Q 928 2841 928 2578 
Q 928 2378 1081 2264 
Q 1234 2150 1697 2047 
L 1894 2003 
Q 2506 1872 2764 1633 
Q 3022 1394 3022 966 
Q 3022 478 2636 193 
Q 2250 -91 1575 -91 
Q 1294 -91 989 -36 
Q 684 19 347 128 
L 347 722 
Q 666 556 975 473 
Q 1284 391 1588 391 
Q 1994 391 2212 530 
Q 2431 669 2431 922 
Q 2431 1156 2273 1281 
Q 2116 1406 1581 1522 
L 1381 1569 
Q 847 1681 609 1914 
Q 372 2147 372 2553 
Q 372 3047 722 3315 
Q 1072 3584 1716 3584 
Q 2034 3584 2315 3537 
Q 2597 3491 2834 3397 
z
" transform="scale(0.015625)"/>
       <path id="DejaVuSans-29" d="M 513 4856 
L 1013 4856 
Q 1481 4119 1714 3412 
Q 1947 2706 1947 2009 
Q 1947 1309 1714 600 
Q 1481 -109 1013 -844 
L 513 -844 
Q 928 -128 1133 580 
Q 1338 1288 1338 2009 
Q 1338 2731 1133 3434 
Q 928 4138 513 4856 
z
" transform="scale(0.015625)"/>
      </defs>
      <use xlink:href="#DejaVuSans-41"/>
      <use xlink:href="#DejaVuSans-76" transform="translate(62.533203 0)"/>
      <use xlink:href="#DejaVuSans-65" transform="translate(121.712891 0)"/>
      <use xlink:href="#DejaVuSans-72" transform="translate(183.236328 0)"/>
      <use xlink:href="#DejaVuSans-61" transform="translate(224.349609 0)"/>
      <use xlink:href="#DejaVuSans-67" transform="translate(285.628906 0)"/>
      <use xlink:href="#DejaVuSans-65" transform="translate(349.105469 0)"/>
      <use xlink:href="#DejaVuSans-20" transform="translate(410.628906 0)"/>
      <use xlink:href="#DejaVuSans-74" transform="translate(442.416016 0)"/>
      <use xlink:href="#DejaVuSans-69" transform="translate(481.625 0)"/>
      <use xlink:href="#DejaVuSans-6d" transform="translate(509.408203 0)"/>
      <use xlink:href="#DejaVuSans-65" transform="translate(606.820312 0)"/>
      <use xlink:href="#DejaVuSans-20" transform="translate(668.34375 0)"/>
      <use xlink:href="#DejaVuSans-28" transform="translate(700.130859 0)"/>
      <use xlink:href="#DejaVuSans-6d" transform="translate(739.144531 0)"/>
      <use xlink:href="#DejaVuSans-73" transform="translate(836.556641 0)"/>
      <use xlink:href="#DejaVuSans-29" transform="translate(888.65625 0)"/>
     </g>
    </g>
   </g>
   <g id="line2d_16">
    <path d="M 115.363636 67.294847 
L 116.279291 161.100505 
L 117.194946 308.214893 
L 118.110601 310.310864 
L 119.026255 321.773517 
L 119.94191 355.354079 
L 120.857565 357.94998 
L 121.77322 364.650448 
L 122.688874 363.689193 
L 123.604529 366.892788 
L 124.520184 367.154739 
L 125.435839 370.144951 
L 126.351493 370.846058 
L 127.267148 356.294914 
L 128.182803 365.28916 
L 129.098457 366.204501 
L 130.014112 367.426634 
L 130.929767 367.004222 
L 131.845422 365.995227 
L 132.761076 366.515723 
L 133.676731 368.385561 
L 134.592386 368.986965 
L 135.508041 367.336793 
L 136.423695 369.382572 
L 137.33935 367.589347 
L 138.255005 367.085897 
L 139.17066 368.661281 
L 140.086314 367.200242 
L 141.001969 369.414525 
L 141.917624 372.071317 
L 142.833279 371.166865 
L 143.748933 370.886512 
L 144.664588 366.468422 
L 145.580243 369.215629 
L 146.495898 368.487194 
L 147.411552 370.25779 
L 148.327207 370.921879 
L 149.242862 370.501938 
L 150.158517 371.023878 
L 151.074171 369.979437 
L 151.989826 371.101862 
L 152.905481 370.231865 
L 153.821136 367.71572 
L 154.73679 372.825077 
L 156.5681 374.662525 
L 157.483755 374.365967 
L 158.399409 366.003531 
L 159.315064 371.538448 
L 160.230719 370.823235 
L 161.146373 370.345289 
L 162.977683 371.253785 
L 163.893338 371.392147 
L 164.808992 371.264478 
L 165.724647 371.901399 
L 166.640302 372.934952 
L 167.555957 371.341489 
L 168.471611 371.566494 
L 169.387266 366.876687 
L 170.302921 370.199744 
L 171.218576 368.99647 
L 172.13423 371.691358 
L 173.049885 371.34892 
L 173.96554 368.792163 
L 174.881195 371.694263 
L 175.796849 371.675878 
L 176.712504 369.021337 
L 177.628159 370.583865 
L 178.543814 369.474845 
L 179.459468 360.372881 
L 180.375123 370.110144 
L 181.290778 369.993008 
L 182.206433 371.904567 
L 183.122087 367.099856 
L 184.037742 369.780043 
L 184.953397 373.797073 
L 185.869052 372.820385 
L 186.784706 374.76751 
L 187.700361 373.409596 
L 189.53167 375.47127 
L 190.447325 375.474352 
L 191.36298 373.981871 
L 192.278635 375.169651 
L 193.194289 370.686058 
L 194.109944 375.310306 
L 195.025599 374.162205 
L 195.941254 376.098863 
L 196.856908 374.439058 
L 197.772563 374.122874 
L 198.688218 372.481244 
L 199.603873 372.819682 
L 200.519527 371.27103 
L 201.435182 370.016401 
L 202.350837 374.001181 
L 203.266492 371.712534 
L 204.182146 372.775143 
L 205.097801 371.855219 
L 206.013456 371.103923 
L 206.929111 372.846597 
L 207.844765 372.768127 
L 208.76042 372.880714 
L 209.676075 373.684306 
L 210.59173 372.963605 
L 211.507384 373.323839 
L 212.423039 372.671565 
L 213.338694 375.227937 
L 214.254349 375.898817 
L 215.170003 375.164256 
L 216.085658 376.252276 
L 217.001313 374.969281 
L 217.916968 376.223052 
L 218.832622 375.604908 
L 219.748277 375.621962 
L 220.663932 373.835096 
L 221.579586 375.938822 
L 222.495241 373.419899 
L 223.410896 373.327617 
L 224.326551 375.522526 
L 225.242205 376.391783 
L 226.15786 376.222215 
L 227.073515 376.30659 
L 227.98917 373.666431 
L 228.904824 373.305532 
L 229.820479 372.640025 
L 230.736134 372.384113 
L 231.651789 373.78698 
L 232.567443 372.431053 
L 233.483098 373.220582 
L 234.398753 373.38957 
L 235.314408 372.600284 
L 236.230062 369.311261 
L 237.145717 370.684153 
L 238.061372 374.172801 
L 238.977027 372.809927 
L 239.892681 373.687543 
L 240.808336 372.919705 
L 241.723991 372.9173 
L 242.639646 374.326716 
L 243.5553 375.465144 
L 244.470955 375.682568 
L 245.38661 376.204334 
L 246.302265 371.307758 
L 247.217919 375.147969 
L 248.133574 375.738116 
L 249.049229 372.330144 
L 249.964883 374.54694 
L 250.880538 375.28199 
L 251.796193 371.81663 
L 252.711848 374.66046 
L 253.627502 374.338398 
L 254.543157 375.09622 
L 255.458812 374.619739 
L 256.374467 374.697657 
L 257.290121 372.951334 
L 258.205776 367.297107 
L 259.121431 372.470479 
L 260.037086 372.048144 
L 260.95274 372.460624 
L 261.868395 373.899927 
L 262.78405 372.808935 
L 263.699705 372.986122 
L 264.615359 372.089995 
L 265.531014 370.612818 
L 266.446669 370.842358 
L 267.362324 372.025335 
L 268.277978 372.237872 
L 269.193633 372.290298 
L 270.109288 372.112421 
L 271.024943 372.487092 
L 271.940597 374.95545 
L 272.856252 375.429944 
L 273.771907 374.181967 
L 274.687562 375.493359 
L 275.603216 375.54884 
L 276.518871 368.927243 
L 277.434526 374.286478 
L 278.350181 373.004836 
L 279.265835 374.986244 
L 280.18149 375.589326 
L 281.097145 375.818421 
L 282.012799 375.242578 
L 282.928454 375.258235 
L 283.844109 375.604644 
L 284.759764 375.183387 
L 285.675418 375.153501 
L 286.591073 372.826223 
L 287.506728 372.831583 
L 289.338037 372.379703 
L 290.253692 371.686963 
L 291.169347 372.433848 
L 292.085002 368.165651 
L 293.000656 372.59961 
L 293.916311 372.483937 
L 294.831966 370.510447 
L 295.747621 369.018493 
L 296.663275 368.737624 
L 297.57893 371.434099 
L 298.494585 373.024844 
L 299.41024 372.298977 
L 300.325894 373.230667 
L 301.241549 373.778768 
L 302.157204 375.162918 
L 303.072859 375.025329 
L 303.988513 374.717819 
L 304.904168 374.903377 
L 305.819823 371.419415 
L 306.735478 374.930118 
L 307.651132 375.08535 
L 308.566787 374.709386 
L 309.482442 374.653816 
L 310.398096 371.821266 
L 311.313751 375.100003 
L 312.229406 373.323055 
L 313.145061 374.588586 
L 314.97637 375.111624 
L 315.892025 370.774265 
L 316.80768 370.530513 
L 317.723334 372.469331 
L 318.638989 372.450778 
L 319.554644 372.970401 
L 321.385953 372.706124 
L 322.301608 372.826422 
L 323.217263 371.778002 
L 324.132918 372.932723 
L 325.048572 372.433285 
L 325.964227 373.021158 
L 326.879882 372.43845 
L 327.795537 372.127719 
L 328.711191 371.986207 
L 329.626846 372.510731 
L 330.542501 375.514027 
L 331.458156 375.140458 
L 332.37381 375.317467 
L 333.289465 374.843548 
L 334.20512 375.290317 
L 335.120775 376.262553 
L 336.952084 376.195325 
L 337.867739 375.9322 
L 338.783394 371.78678 
L 339.699048 376.326394 
L 341.530358 376.122467 
L 342.446012 375.662622 
L 344.277322 375.65933 
L 345.192977 374.798591 
L 346.108631 375.633487 
L 347.024286 374.996634 
L 347.939941 374.98503 
L 348.855596 372.836386 
L 349.77125 373.599056 
L 350.686905 375.119747 
L 351.60256 375.14126 
L 353.433869 375.611864 
L 356.180834 375.037362 
L 357.096488 372.602987 
L 358.012143 375.527512 
L 358.927798 376.032973 
L 359.843453 374.671584 
L 360.759107 374.481327 
L 362.590417 375.069476 
L 363.506072 375.013438 
L 364.421726 375.238799 
L 365.337381 375.250227 
L 366.253036 374.667113 
L 367.168691 374.966669 
L 368.084345 375.593331 
L 369 375.647068 
L 369.915655 374.951995 
L 370.831309 374.846355 
L 371.746964 372.951542 
L 372.662619 374.862263 
L 373.578274 374.384202 
L 374.493928 371.07293 
L 375.409583 374.19584 
L 376.325238 373.881803 
L 377.240893 370.773625 
L 378.156547 374.238877 
L 379.072202 374.531328 
L 379.987857 373.775475 
L 380.903512 374.6142 
L 381.819166 373.80255 
L 382.734821 374.104692 
L 383.650476 374.718534 
L 384.566131 373.984634 
L 385.481785 373.59715 
L 386.39744 374.71844 
L 387.313095 374.405974 
L 388.22875 374.319783 
L 389.144404 372.820508 
L 390.060059 373.145889 
L 390.975714 373.170514 
L 391.891369 373.550211 
L 392.807023 372.226012 
L 393.722678 373.768974 
L 394.638333 374.111962 
L 395.553988 371.161815 
L 396.469642 373.794043 
L 397.385297 373.870625 
L 399.216606 373.883297 
L 400.132261 370.749968 
L 401.047916 373.344041 
L 401.963571 373.142201 
L 402.879225 370.500093 
L 403.79488 372.076895 
L 404.710535 373.136485 
L 405.62619 373.242388 
L 406.541844 370.095509 
L 407.457499 372.859788 
L 408.373154 373.284362 
L 409.288809 373.91392 
L 410.204463 373.274261 
L 411.120118 373.330975 
L 412.035773 373.097158 
L 412.951428 373.751658 
L 413.867082 374.028274 
L 414.782737 372.63443 
L 415.698392 373.345297 
L 416.614047 373.338251 
L 417.529701 373.97122 
L 418.445356 372.8419 
L 419.361011 372.008187 
L 420.276666 372.705955 
L 421.19232 371.573899 
L 422.107975 372.508149 
L 423.02363 372.927846 
L 423.939285 371.843909 
L 424.854939 373.317977 
L 425.770594 370.28167 
L 426.686249 373.105103 
L 427.601904 373.29371 
L 428.517558 373.285925 
L 430.348868 371.339507 
L 431.264522 372.983486 
L 432.180177 371.672679 
L 433.095832 371.319555 
L 434.011487 371.668539 
L 434.927141 371.234204 
L 435.842796 372.048317 
L 436.758451 371.489168 
L 437.674106 373.066525 
L 438.58976 372.68419 
L 439.505415 371.081216 
L 440.42107 371.790827 
L 441.336725 371.14727 
L 442.252379 372.718541 
L 443.168034 372.811515 
L 444.999344 371.438847 
L 446.830653 371.898865 
L 448.661963 372.973375 
L 449.577617 372.98256 
L 450.493272 370.000154 
L 451.408927 370.560136 
L 452.324582 373.102118 
L 453.240236 372.800663 
L 454.155891 372.353253 
L 455.071546 372.417245 
L 455.987201 373.213475 
L 457.81851 372.27682 
L 458.734165 372.317476 
L 459.649819 372.854402 
L 460.565474 372.791641 
L 461.481129 371.895729 
L 462.396784 371.996056 
L 463.312438 371.730454 
L 465.143748 372.434052 
L 466.059403 370.196954 
L 466.975057 370.935061 
L 467.890712 371.459553 
L 468.806367 371.538785 
L 469.722022 371.015785 
L 470.637676 367.930401 
L 471.553331 371.683599 
L 472.468986 371.825168 
L 473.384641 370.511666 
L 474.300295 372.153249 
L 475.21595 372.549674 
L 476.131605 372.658712 
L 477.04726 368.868302 
L 477.962914 372.407428 
L 478.878569 371.85535 
L 479.794224 372.025825 
L 480.709879 368.816933 
L 481.625533 371.737368 
L 483.456843 371.743167 
L 484.372498 371.41439 
L 485.288152 371.205925 
L 486.203807 371.622213 
L 487.119462 372.171298 
L 488.035117 368.267196 
L 488.950771 371.578085 
L 489.866426 368.967014 
L 490.782081 372.10034 
L 492.61339 368.351409 
L 494.4447 371.056049 
L 496.276009 371.638845 
L 497.191664 370.540899 
L 498.107319 370.856987 
L 499.022973 370.661117 
L 499.938628 371.395582 
L 500.854283 370.67378 
L 501.769938 371.151923 
L 502.685592 370.053808 
L 503.601247 370.944345 
L 504.516902 370.773709 
L 505.432557 370.782581 
L 506.348211 369.811645 
L 507.263866 371.107053 
L 508.179521 371.319085 
L 509.095176 371.404524 
L 510.01083 370.542972 
L 510.926485 371.671302 
L 511.84214 371.458017 
L 512.757795 370.844836 
L 514.589104 370.831684 
L 515.504759 370.959262 
L 516.420414 367.809833 
L 517.336068 370.269259 
L 518.251723 371.111652 
L 519.167378 370.414529 
L 520.083032 370.991348 
L 521.914342 370.440599 
L 522.829997 371.591633 
L 523.745651 370.773869 
L 524.661306 371.352926 
L 525.576961 370.867078 
L 526.492616 372.159204 
L 528.323925 372.021605 
L 529.23958 369.144128 
L 530.155235 372.998678 
L 531.986544 370.641117 
L 532.902199 370.645181 
L 533.817854 371.643693 
L 534.733508 371.677257 
L 535.649163 370.463044 
L 536.564818 370.750072 
L 537.480473 370.635398 
L 538.396127 371.162913 
L 539.311782 370.488938 
L 540.227437 370.500289 
L 541.143092 371.369571 
L 542.058746 371.067774 
L 542.974401 368.694564 
L 544.805711 372.057342 
L 545.721365 369.464009 
L 546.63702 370.805817 
L 547.552675 368.793185 
L 548.46833 371.593797 
L 549.383984 371.811463 
L 550.299639 369.815738 
L 552.130948 369.780601 
L 553.046603 370.594915 
L 553.962258 369.737298 
L 554.877913 369.375686 
L 555.793567 370.501545 
L 556.709222 368.195481 
L 557.624877 370.066598 
L 558.540532 369.495652 
L 559.456186 370.429108 
L 560.371841 370.944418 
L 561.287496 369.010794 
L 562.203151 369.144579 
L 563.118805 369.811773 
L 564.03446 370.11289 
L 564.950115 367.410666 
L 565.86577 369.783421 
L 566.781424 369.621977 
L 567.697079 369.719601 
L 569.528389 368.229049 
L 570.444043 369.850485 
L 571.359698 369.164762 
L 572.275353 367.542288 
L 573.191008 369.433852 
L 574.106662 369.655689 
L 575.022317 369.627441 
L 575.937972 368.458121 
L 576.853627 368.399447 
L 577.769281 366.777914 
L 578.684936 366.836195 
L 579.600591 368.837945 
L 580.516245 369.461839 
L 581.4319 366.013288 
L 582.347555 369.756378 
L 583.26321 365.591113 
L 584.178864 367.510291 
L 585.094519 370.200315 
L 586.010174 370.528863 
L 586.925829 369.600464 
L 587.841483 369.69436 
L 588.757138 370.889091 
L 589.672793 370.873779 
L 590.588448 369.564243 
L 591.504102 367.558208 
L 592.419757 370.421232 
L 593.335412 370.307874 
L 594.251067 368.793703 
L 595.166721 369.312056 
L 596.082376 367.242075 
L 596.998031 368.665486 
L 597.913686 369.101434 
L 599.744995 369.606908 
L 600.66065 368.949771 
L 601.576305 368.011308 
L 602.491959 368.517533 
L 603.407614 369.456226 
L 604.323269 369.956826 
L 605.238924 368.615363 
L 606.154578 368.605418 
L 607.070233 369.692318 
L 607.985888 370.145542 
L 608.901543 367.474142 
L 609.817197 368.58245 
L 610.732852 368.941701 
L 611.648507 366.092489 
L 612.564161 368.601736 
L 613.479816 369.056861 
L 614.395471 366.307532 
L 615.311126 369.266996 
L 616.22678 368.718059 
L 617.142435 368.556205 
L 618.05809 369.705063 
L 618.973745 369.362623 
L 619.889399 368.491951 
L 620.805054 368.103154 
L 621.720709 368.818989 
L 622.636364 368.085594 
L 622.636364 368.085594 
" clip-path="url(#p8ed63dcad4)" style="fill: none; stroke: #1f77b4; stroke-width: 1.5; stroke-linecap: square"/>
   </g>
   <g id="patch_3">
    <path d="M 90 384.48 
L 90 51.84 
" style="fill: none; stroke: #000000; stroke-width: 0.8; stroke-linejoin: miter; stroke-linecap: square"/>
   </g>
   <g id="patch_4">
    <path d="M 648 384.48 
L 648 51.84 
" style="fill: none; stroke: #000000; stroke-width: 0.8; stroke-linejoin: miter; stroke-linecap: square"/>
   </g>
   <g id="patch_5">
    <path d="M 90 384.48 
L 648 384.48 
" style="fill: none; stroke: #000000; stroke-width: 0.8; stroke-linejoin: miter; stroke-linecap: square"/>
   </g>
   <g id="patch_6">
    <path d="M 90 51.84 
L 648 51.84 
" style="fill: none; stroke: #000000; stroke-width: 0.8; stroke-linejoin: miter; stroke-linecap: square"/>
   </g>
   <g id="text_18">
    <!-- Average time per index -->
    <g transform="translate(298.700625 45.84) scale(0.12 -0.12)">
     <defs>
      <path id="DejaVuSans-70" d="M 1159 525 
L 1159 -1331 
L 581 -1331 
L 581 3500 
L 1159 3500 
L 1159 2969 
Q 1341 3281 1617 3432 
Q 1894 3584 2278 3584 
Q 2916 3584 3314 3078 
Q 3713 2572 3713 1747 
Q 3713 922 3314 415 
Q 2916 -91 2278 -91 
Q 1894 -91 1617 61 
Q 1341 213 1159 525 
z
M 3116 1747 
Q 3116 2381 2855 2742 
Q 2594 3103 2138 3103 
Q 1681 3103 1420 2742 
Q 1159 2381 1159 1747 
Q 1159 1113 1420 752 
Q 1681 391 2138 391 
Q 2594 391 2855 752 
Q 3116 1113 3116 1747 
z
" transform="scale(0.015625)"/>
     </defs>
     <use xlink:href="#DejaVuSans-41"/>
     <use xlink:href="#DejaVuSans-76" transform="translate(62.533203 0)"/>
     <use xlink:href="#DejaVuSans-65" transform="translate(121.712891 0)"/>
     <use xlink:href="#DejaVuSans-72" transform="translate(183.236328 0)"/>
     <use xlink:href="#DejaVuSans-61" transform="translate(224.349609 0)"/>
     <use xlink:href="#DejaVuSans-67" transform="translate(285.628906 0)"/>
     <use xlink:href="#DejaVuSans-65" transform="translate(349.105469 0)"/>
     <use xlink:href="#DejaVuSans-20" transform="translate(410.628906 0)"/>
     <use xlink:href="#DejaVuSans-74" transform="translate(442.416016 0)"/>
     <use xlink:href="#DejaVuSans-69" transform="translate(481.625 0)"/>
     <use xlink:href="#DejaVuSans-6d" transform="translate(509.408203 0)"/>
     <use xlink:href="#DejaVuSans-65" transform="translate(606.820312 0)"/>
     <use xlink:href="#DejaVuSans-20" transform="translate(668.34375 0)"/>
     <use xlink:href="#DejaVuSans-70" transform="translate(700.130859 0)"/>
     <use xlink:href="#DejaVuSans-65" transform="translate(763.607422 0)"/>
     <use xlink:href="#DejaVuSans-72" transform="translate(825.130859 0)"/>
     <use xlink:href="#DejaVuSans-20" transform="translate(866.244141 0)"/>
     <use xlink:href="#DejaVuSans-69" transform="translate(898.03125 0)"/>
     <use xlink:href="#DejaVuSans-6e" transform="translate(925.814453 0)"/>
     <use xlink:href="#DejaVuSans-64" transform="translate(989.193359 0)"/>
     <use xlink:href="#DejaVuSans-65" transform="translate(1052.669922 0)"/>
     <use xlink:href="#DejaVuSans-78" transform="translate(1112.443359 0)"/>
    </g>
   </g>
   <g id="legend_1">
    <g id="patch_7">
     <path d="M 544.020313 74.518125 
L 641 74.518125 
Q 643 74.518125 643 72.518125 
L 643 58.84 
Q 643 56.84 641 56.84 
L 544.020313 56.84 
Q 542.020313 56.84 542.020313 58.84 
L 542.020313 72.518125 
Q 542.020313 74.518125 544.020313 74.518125 
z
" style="fill: #ffffff; opacity: 0.8; stroke: #cccccc; stroke-linejoin: miter"/>
    </g>
    <g id="line2d_17">
     <path d="M 546.020313 64.938438 
L 556.020313 64.938438 
L 566.020313 64.938438 
" style="fill: none; stroke: #1f77b4; stroke-width: 1.5; stroke-linecap: square"/>
    </g>
    <g id="text_19">
     <!-- handleResult -->
     <g transform="translate(574.020313 68.438438) scale(0.1 -0.1)">
      <defs>
       <path id="DejaVuSans-68" d="M 3513 2113 
L 3513 0 
L 2938 0 
L 2938 2094 
Q 2938 2591 2744 2837 
Q 2550 3084 2163 3084 
Q 1697 3084 1428 2787 
Q 1159 2491 1159 1978 
L 1159 0 
L 581 0 
L 581 4863 
L 1159 4863 
L 1159 2956 
Q 1366 3272 1645 3428 
Q 1925 3584 2291 3584 
Q 2894 3584 3203 3211 
Q 3513 2838 3513 2113 
z
" transform="scale(0.015625)"/>
       <path id="DejaVuSans-6c" d="M 603 4863 
L 1178 4863 
L 1178 0 
L 603 0 
L 603 4863 
z
" transform="scale(0.015625)"/>
       <path id="DejaVuSans-52" d="M 2841 2188 
Q 3044 2119 3236 1894 
Q 3428 1669 3622 1275 
L 4263 0 
L 3584 0 
L 2988 1197 
Q 2756 1666 2539 1819 
Q 2322 1972 1947 1972 
L 1259 1972 
L 1259 0 
L 628 0 
L 628 4666 
L 2053 4666 
Q 2853 4666 3247 4331 
Q 3641 3997 3641 3322 
Q 3641 2881 3436 2590 
Q 3231 2300 2841 2188 
z
M 1259 4147 
L 1259 2491 
L 2053 2491 
Q 2509 2491 2742 2702 
Q 2975 2913 2975 3322 
Q 2975 3731 2742 3939 
Q 2509 4147 2053 4147 
L 1259 4147 
z
" transform="scale(0.015625)"/>
       <path id="DejaVuSans-75" d="M 544 1381 
L 544 3500 
L 1119 3500 
L 1119 1403 
Q 1119 906 1312 657 
Q 1506 409 1894 409 
Q 2359 409 2629 706 
Q 2900 1003 2900 1516 
L 2900 3500 
L 3475 3500 
L 3475 0 
L 2900 0 
L 2900 538 
Q 2691 219 2414 64 
Q 2138 -91 1772 -91 
Q 1169 -91 856 284 
Q 544 659 544 1381 
z
M 1991 3584 
L 1991 3584 
z
" transform="scale(0.015625)"/>
      </defs>
      <use xlink:href="#DejaVuSans-68"/>
      <use xlink:href="#DejaVuSans-61" transform="translate(63.378906 0)"/>
      <use xlink:href="#DejaVuSans-6e" transform="translate(124.658203 0)"/>
      <use xlink:href="#DejaVuSans-64" transform="translate(188.037109 0)"/>
      <use xlink:href="#DejaVuSans-6c" transform="translate(251.513672 0)"/>
      <use xlink:href="#DejaVuSans-65" transform="translate(279.296875 0)"/>
      <use xlink:href="#DejaVuSans-52" transform="translate(340.820312 0)"/>
      <use xlink:href="#DejaVuSans-65" transform="translate(405.802734 0)"/>
      <use xlink:href="#DejaVuSans-73" transform="translate(467.326172 0)"/>
      <use xlink:href="#DejaVuSans-75" transform="translate(519.425781 0)"/>
      <use xlink:href="#DejaVuSans-6c" transform="translate(582.804688 0)"/>
      <use xlink:href="#DejaVuSans-74" transform="translate(610.587891 0)"/>
     </g>
    </g>
   </g>
  </g>
 </g>
 <defs>
  <clipPath id="p8ed63dcad4">
   <rect x="90" y="51.84" width="558" height="332.64"/>
  </clipPath>
 </defs>
</svg>
