<?xml version="1.0" encoding="utf-8" standalone="no"?>
<!DOCTYPE svg PUBLIC "-//W3C//DTD SVG 1.1//EN"
  "http://www.w3.org/Graphics/SVG/1.1/DTD/svg11.dtd">
<svg xmlns:xlink="http://www.w3.org/1999/xlink" width="576pt" height="432pt" viewBox="0 0 576 432" xmlns="http://www.w3.org/2000/svg" version="1.1">
 <metadata>
  <rdf:RDF xmlns:dc="http://purl.org/dc/elements/1.1/" xmlns:cc="http://creativecommons.org/ns#" xmlns:rdf="http://www.w3.org/1999/02/22-rdf-syntax-ns#">
   <cc:Work>
    <dc:type rdf:resource="http://purl.org/dc/dcmitype/StillImage"/>
    <dc:date>2025-06-08T23:57:31.230495</dc:date>
    <dc:format>image/svg+xml</dc:format>
    <dc:creator>
     <cc:Agent>
      <dc:title>Matplotlib v3.10.3, https://matplotlib.org/</dc:title>
     </cc:Agent>
    </dc:creator>
   </cc:Work>
  </rdf:RDF>
 </metadata>
 <defs>
  <style type="text/css">*{stroke-linejoin: round; stroke-linecap: butt}</style>
 </defs>
 <g id="figure_1">
  <g id="patch_1">
   <path d="M 0 432 
L 576 432 
L 576 0 
L 0 0 
z
" style="fill: #ffffff"/>
  </g>
  <g id="axes_1">
   <g id="patch_2">
    <path d="M 72 384.48 
L 518.4 384.48 
L 518.4 51.84 
L 72 51.84 
z
" style="fill: #ffffff"/>
   </g>
   <g id="FillBetweenPolyCollection_1">
    <path d="M 352.531794 380.063037 
L 237.868206 380.063037 
L 183.6 376.905528 
L 249.653797 373.748019 
L 289.086899 370.59051 
L 294.08185 367.433002 
L 294.723628 364.275493 
L 294.294753 361.117984 
L 294.399525 357.960475 
L 294.761984 354.802967 
L 294.839846 351.645458 
L 295.021145 348.487949 
L 295.100844 345.33044 
L 295.076688 342.172931 
L 295.092729 339.015423 
L 295.183481 335.857914 
L 295.178569 332.700405 
L 295.146282 329.542896 
L 295.155658 326.385388 
L 295.195716 323.227879 
L 295.189952 320.07037 
L 295.165185 316.912861 
L 295.165755 313.755353 
L 295.151687 310.597844 
L 295.117902 307.440335 
L 295.126802 304.282826 
L 295.1572 301.125317 
L 295.19284 297.967809 
L 295.199872 294.8103 
L 295.2 291.652791 
L 295.199999 288.495282 
L 295.199624 285.337774 
L 295.188548 282.180265 
L 295.174439 279.022756 
L 295.195814 275.865247 
L 295.19995 272.707739 
L 295.199961 269.55023 
L 295.196255 266.392721 
L 295.168728 263.235212 
L 295.145971 260.077703 
L 295.167124 256.920195 
L 295.197132 253.762686 
L 295.199978 250.605177 
L 295.2 247.447668 
L 295.199994 244.29016 
L 295.198489 241.132651 
L 295.170216 237.975142 
L 295.153812 234.817633 
L 295.194352 231.660124 
L 295.199423 228.502616 
L 295.18678 225.345107 
L 295.175502 222.187598 
L 295.196669 219.030089 
L 295.199954 215.872581 
L 295.198035 212.715072 
L 295.178415 209.557563 
L 295.174254 206.400054 
L 295.153697 203.242546 
L 295.166506 200.085037 
L 295.171131 196.927528 
L 295.17925 193.770019 
L 295.174571 190.61251 
L 295.19613 187.455002 
L 295.199956 184.297493 
L 295.2 181.139984 
L 295.2 177.982475 
L 295.2 174.824967 
L 295.2 171.667458 
L 295.2 168.509949 
L 295.2 165.35244 
L 295.2 162.194932 
L 295.2 159.037423 
L 295.2 155.879914 
L 295.2 152.722405 
L 295.2 149.564896 
L 295.2 146.407388 
L 295.2 143.249879 
L 295.199794 140.09237 
L 295.191336 136.934861 
L 295.171084 133.777353 
L 295.17169 130.619844 
L 295.18373 127.462335 
L 295.199139 124.304826 
L 295.199997 121.147318 
L 295.2 117.989809 
L 295.2 114.8323 
L 295.2 111.674791 
L 295.2 108.517282 
L 295.2 105.359774 
L 295.2 102.202265 
L 295.2 99.044756 
L 295.2 95.887247 
L 295.199917 92.729739 
L 295.194526 89.57223 
L 295.17354 86.414721 
L 295.190616 83.257212 
L 295.199756 80.099703 
L 295.199999 76.942195 
L 295.199856 73.784686 
L 295.192732 70.627177 
L 295.17317 67.469668 
L 295.22683 67.469668 
L 295.22683 67.469668 
L 295.207268 70.627177 
L 295.200144 73.784686 
L 295.200001 76.942195 
L 295.200244 80.099703 
L 295.209384 83.257212 
L 295.22646 86.414721 
L 295.205474 89.57223 
L 295.200083 92.729739 
L 295.2 95.887247 
L 295.2 99.044756 
L 295.2 102.202265 
L 295.2 105.359774 
L 295.2 108.517282 
L 295.2 111.674791 
L 295.2 114.8323 
L 295.2 117.989809 
L 295.200003 121.147318 
L 295.200861 124.304826 
L 295.21627 127.462335 
L 295.22831 130.619844 
L 295.228916 133.777353 
L 295.208664 136.934861 
L 295.200206 140.09237 
L 295.2 143.249879 
L 295.2 146.407388 
L 295.2 149.564896 
L 295.2 152.722405 
L 295.2 155.879914 
L 295.2 159.037423 
L 295.2 162.194932 
L 295.2 165.35244 
L 295.2 168.509949 
L 295.2 171.667458 
L 295.2 174.824967 
L 295.2 177.982475 
L 295.2 181.139984 
L 295.200044 184.297493 
L 295.20387 187.455002 
L 295.225429 190.61251 
L 295.22075 193.770019 
L 295.228869 196.927528 
L 295.233494 200.085037 
L 295.246303 203.242546 
L 295.225746 206.400054 
L 295.221585 209.557563 
L 295.201965 212.715072 
L 295.200046 215.872581 
L 295.203331 219.030089 
L 295.224498 222.187598 
L 295.21322 225.345107 
L 295.200577 228.502616 
L 295.205648 231.660124 
L 295.246188 234.817633 
L 295.229784 237.975142 
L 295.201511 241.132651 
L 295.200006 244.29016 
L 295.2 247.447668 
L 295.200022 250.605177 
L 295.202868 253.762686 
L 295.232876 256.920195 
L 295.254029 260.077703 
L 295.231272 263.235212 
L 295.203745 266.392721 
L 295.200039 269.55023 
L 295.20005 272.707739 
L 295.204186 275.865247 
L 295.225561 279.022756 
L 295.211452 282.180265 
L 295.200376 285.337774 
L 295.200001 288.495282 
L 295.2 291.652791 
L 295.200128 294.8103 
L 295.20716 297.967809 
L 295.2428 301.125317 
L 295.273198 304.282826 
L 295.282098 307.440335 
L 295.248313 310.597844 
L 295.234245 313.755353 
L 295.234815 316.912861 
L 295.210048 320.07037 
L 295.204284 323.227879 
L 295.244342 326.385388 
L 295.253718 329.542896 
L 295.221431 332.700405 
L 295.216519 335.857914 
L 295.307271 339.015423 
L 295.323312 342.172931 
L 295.299156 345.33044 
L 295.378855 348.487949 
L 295.560154 351.645458 
L 295.638016 354.802967 
L 296.000475 357.960475 
L 296.105247 361.117984 
L 295.676372 364.275493 
L 296.31815 367.433002 
L 301.313101 370.59051 
L 340.746203 373.748019 
L 406.8 376.905528 
L 352.531794 380.063037 
z
" clip-path="url(#pb4a60eea3e)" style="fill: #1f77b4; fill-opacity: 0.3"/>
   </g>
   <g id="matplotlib.axis_1">
    <g id="xtick_1">
     <g id="line2d_1">
      <defs>
       <path id="m31df37c197" d="M 0 0 
L 0 3.5 
" style="stroke: #000000; stroke-width: 0.8"/>
      </defs>
      <g>
       <use xlink:href="#m31df37c197" x="295.2" y="384.48" style="stroke: #000000; stroke-width: 0.8"/>
      </g>
     </g>
     <g id="text_1">
      <!-- 1 -->
      <g transform="translate(292.01875 399.078438) scale(0.1 -0.1)">
       <defs>
        <path id="DejaVuSans-31" d="M 794 531 
L 1825 531 
L 1825 4091 
L 703 3866 
L 703 4441 
L 1819 4666 
L 2450 4666 
L 2450 531 
L 3481 531 
L 3481 0 
L 794 0 
L 794 531 
z
" transform="scale(0.015625)"/>
       </defs>
       <use xlink:href="#DejaVuSans-31"/>
      </g>
     </g>
    </g>
   </g>
   <g id="matplotlib.axis_2">
    <g id="ytick_1">
     <g id="line2d_2">
      <defs>
       <path id="mf2530b7565" d="M 0 0 
L -3.5 0 
" style="stroke: #000000; stroke-width: 0.8"/>
      </defs>
      <g>
       <use xlink:href="#mf2530b7565" x="72" y="384.48" style="stroke: #000000; stroke-width: 0.8"/>
      </g>
     </g>
     <g id="text_2">
      <!-- 0 -->
      <g transform="translate(58.6375 388.279219) scale(0.1 -0.1)">
       <defs>
        <path id="DejaVuSans-30" d="M 2034 4250 
Q 1547 4250 1301 3770 
Q 1056 3291 1056 2328 
Q 1056 1369 1301 889 
Q 1547 409 2034 409 
Q 2525 409 2770 889 
Q 3016 1369 3016 2328 
Q 3016 3291 2770 3770 
Q 2525 4250 2034 4250 
z
M 2034 4750 
Q 2819 4750 3233 4129 
Q 3647 3509 3647 2328 
Q 3647 1150 3233 529 
Q 2819 -91 2034 -91 
Q 1250 -91 836 529 
Q 422 1150 422 2328 
Q 422 3509 836 4129 
Q 1250 4750 2034 4750 
z
" transform="scale(0.015625)"/>
       </defs>
       <use xlink:href="#DejaVuSans-30"/>
      </g>
     </g>
    </g>
    <g id="ytick_2">
     <g id="line2d_3">
      <g>
       <use xlink:href="#mf2530b7565" x="72" y="334.274113" style="stroke: #000000; stroke-width: 0.8"/>
      </g>
     </g>
     <g id="text_3">
      <!-- 10 -->
      <g transform="translate(52.275 338.073332) scale(0.1 -0.1)">
       <use xlink:href="#DejaVuSans-31"/>
       <use xlink:href="#DejaVuSans-30" transform="translate(63.623047 0)"/>
      </g>
     </g>
    </g>
    <g id="ytick_3">
     <g id="line2d_4">
      <g>
       <use xlink:href="#mf2530b7565" x="72" y="284.068226" style="stroke: #000000; stroke-width: 0.8"/>
      </g>
     </g>
     <g id="text_4">
      <!-- 20 -->
      <g transform="translate(52.275 287.867445) scale(0.1 -0.1)">
       <defs>
        <path id="DejaVuSans-32" d="M 1228 531 
L 3431 531 
L 3431 0 
L 469 0 
L 469 531 
Q 828 903 1448 1529 
Q 2069 2156 2228 2338 
Q 2531 2678 2651 2914 
Q 2772 3150 2772 3378 
Q 2772 3750 2511 3984 
Q 2250 4219 1831 4219 
Q 1534 4219 1204 4116 
Q 875 4013 500 3803 
L 500 4441 
Q 881 4594 1212 4672 
Q 1544 4750 1819 4750 
Q 2544 4750 2975 4387 
Q 3406 4025 3406 3419 
Q 3406 3131 3298 2873 
Q 3191 2616 2906 2266 
Q 2828 2175 2409 1742 
Q 1991 1309 1228 531 
z
" transform="scale(0.015625)"/>
       </defs>
       <use xlink:href="#DejaVuSans-32"/>
       <use xlink:href="#DejaVuSans-30" transform="translate(63.623047 0)"/>
      </g>
     </g>
    </g>
    <g id="ytick_4">
     <g id="line2d_5">
      <g>
       <use xlink:href="#mf2530b7565" x="72" y="233.86234" style="stroke: #000000; stroke-width: 0.8"/>
      </g>
     </g>
     <g id="text_5">
      <!-- 30 -->
      <g transform="translate(52.275 237.661558) scale(0.1 -0.1)">
       <defs>
        <path id="DejaVuSans-33" d="M 2597 2516 
Q 3050 2419 3304 2112 
Q 3559 1806 3559 1356 
Q 3559 666 3084 287 
Q 2609 -91 1734 -91 
Q 1441 -91 1130 -33 
Q 819 25 488 141 
L 488 750 
Q 750 597 1062 519 
Q 1375 441 1716 441 
Q 2309 441 2620 675 
Q 2931 909 2931 1356 
Q 2931 1769 2642 2001 
Q 2353 2234 1838 2234 
L 1294 2234 
L 1294 2753 
L 1863 2753 
Q 2328 2753 2575 2939 
Q 2822 3125 2822 3475 
Q 2822 3834 2567 4026 
Q 2313 4219 1838 4219 
Q 1578 4219 1281 4162 
Q 984 4106 628 3988 
L 628 4550 
Q 988 4650 1302 4700 
Q 1616 4750 1894 4750 
Q 2613 4750 3031 4423 
Q 3450 4097 3450 3541 
Q 3450 3153 3228 2886 
Q 3006 2619 2597 2516 
z
" transform="scale(0.015625)"/>
       </defs>
       <use xlink:href="#DejaVuSans-33"/>
       <use xlink:href="#DejaVuSans-30" transform="translate(63.623047 0)"/>
      </g>
     </g>
    </g>
    <g id="ytick_5">
     <g id="line2d_6">
      <g>
       <use xlink:href="#mf2530b7565" x="72" y="183.656453" style="stroke: #000000; stroke-width: 0.8"/>
      </g>
     </g>
     <g id="text_6">
      <!-- 40 -->
      <g transform="translate(52.275 187.455672) scale(0.1 -0.1)">
       <defs>
        <path id="DejaVuSans-34" d="M 2419 4116 
L 825 1625 
L 2419 1625 
L 2419 4116 
z
M 2253 4666 
L 3047 4666 
L 3047 1625 
L 3713 1625 
L 3713 1100 
L 3047 1100 
L 3047 0 
L 2419 0 
L 2419 1100 
L 313 1100 
L 313 1709 
L 2253 4666 
z
" transform="scale(0.015625)"/>
       </defs>
       <use xlink:href="#DejaVuSans-34"/>
       <use xlink:href="#DejaVuSans-30" transform="translate(63.623047 0)"/>
      </g>
     </g>
    </g>
    <g id="ytick_6">
     <g id="line2d_7">
      <g>
       <use xlink:href="#mf2530b7565" x="72" y="133.450566" style="stroke: #000000; stroke-width: 0.8"/>
      </g>
     </g>
     <g id="text_7">
      <!-- 50 -->
      <g transform="translate(52.275 137.249785) scale(0.1 -0.1)">
       <defs>
        <path id="DejaVuSans-35" d="M 691 4666 
L 3169 4666 
L 3169 4134 
L 1269 4134 
L 1269 2991 
Q 1406 3038 1543 3061 
Q 1681 3084 1819 3084 
Q 2600 3084 3056 2656 
Q 3513 2228 3513 1497 
Q 3513 744 3044 326 
Q 2575 -91 1722 -91 
Q 1428 -91 1123 -41 
Q 819 9 494 109 
L 494 744 
Q 775 591 1075 516 
Q 1375 441 1709 441 
Q 2250 441 2565 725 
Q 2881 1009 2881 1497 
Q 2881 1984 2565 2268 
Q 2250 2553 1709 2553 
Q 1456 2553 1204 2497 
Q 953 2441 691 2322 
L 691 4666 
z
" transform="scale(0.015625)"/>
       </defs>
       <use xlink:href="#DejaVuSans-35"/>
       <use xlink:href="#DejaVuSans-30" transform="translate(63.623047 0)"/>
      </g>
     </g>
    </g>
    <g id="ytick_7">
     <g id="line2d_8">
      <g>
       <use xlink:href="#mf2530b7565" x="72" y="83.244679" style="stroke: #000000; stroke-width: 0.8"/>
      </g>
     </g>
     <g id="text_8">
      <!-- 60 -->
      <g transform="translate(52.275 87.043898) scale(0.1 -0.1)">
       <defs>
        <path id="DejaVuSans-36" d="M 2113 2584 
Q 1688 2584 1439 2293 
Q 1191 2003 1191 1497 
Q 1191 994 1439 701 
Q 1688 409 2113 409 
Q 2538 409 2786 701 
Q 3034 994 3034 1497 
Q 3034 2003 2786 2293 
Q 2538 2584 2113 2584 
z
M 3366 4563 
L 3366 3988 
Q 3128 4100 2886 4159 
Q 2644 4219 2406 4219 
Q 1781 4219 1451 3797 
Q 1122 3375 1075 2522 
Q 1259 2794 1537 2939 
Q 1816 3084 2150 3084 
Q 2853 3084 3261 2657 
Q 3669 2231 3669 1497 
Q 3669 778 3244 343 
Q 2819 -91 2113 -91 
Q 1303 -91 875 529 
Q 447 1150 447 2328 
Q 447 3434 972 4092 
Q 1497 4750 2381 4750 
Q 2619 4750 2861 4703 
Q 3103 4656 3366 4563 
z
" transform="scale(0.015625)"/>
       </defs>
       <use xlink:href="#DejaVuSans-36"/>
       <use xlink:href="#DejaVuSans-30" transform="translate(63.623047 0)"/>
      </g>
     </g>
    </g>
    <g id="text_9">
     <!-- Time (ms) -->
     <g transform="translate(46.195312 243.359219) rotate(-90) scale(0.1 -0.1)">
      <defs>
       <path id="DejaVuSans-54" d="M -19 4666 
L 3928 4666 
L 3928 4134 
L 2272 4134 
L 2272 0 
L 1638 0 
L 1638 4134 
L -19 4134 
L -19 4666 
z
" transform="scale(0.015625)"/>
       <path id="DejaVuSans-69" d="M 603 3500 
L 1178 3500 
L 1178 0 
L 603 0 
L 603 3500 
z
M 603 4863 
L 1178 4863 
L 1178 4134 
L 603 4134 
L 603 4863 
z
" transform="scale(0.015625)"/>
       <path id="DejaVuSans-6d" d="M 3328 2828 
Q 3544 3216 3844 3400 
Q 4144 3584 4550 3584 
Q 5097 3584 5394 3201 
Q 5691 2819 5691 2113 
L 5691 0 
L 5113 0 
L 5113 2094 
Q 5113 2597 4934 2840 
Q 4756 3084 4391 3084 
Q 3944 3084 3684 2787 
Q 3425 2491 3425 1978 
L 3425 0 
L 2847 0 
L 2847 2094 
Q 2847 2600 2669 2842 
Q 2491 3084 2119 3084 
Q 1678 3084 1418 2786 
Q 1159 2488 1159 1978 
L 1159 0 
L 581 0 
L 581 3500 
L 1159 3500 
L 1159 2956 
Q 1356 3278 1631 3431 
Q 1906 3584 2284 3584 
Q 2666 3584 2933 3390 
Q 3200 3197 3328 2828 
z
" transform="scale(0.015625)"/>
       <path id="DejaVuSans-65" d="M 3597 1894 
L 3597 1613 
L 953 1613 
Q 991 1019 1311 708 
Q 1631 397 2203 397 
Q 2534 397 2845 478 
Q 3156 559 3463 722 
L 3463 178 
Q 3153 47 2828 -22 
Q 2503 -91 2169 -91 
Q 1331 -91 842 396 
Q 353 884 353 1716 
Q 353 2575 817 3079 
Q 1281 3584 2069 3584 
Q 2775 3584 3186 3129 
Q 3597 2675 3597 1894 
z
M 3022 2063 
Q 3016 2534 2758 2815 
Q 2500 3097 2075 3097 
Q 1594 3097 1305 2825 
Q 1016 2553 972 2059 
L 3022 2063 
z
" transform="scale(0.015625)"/>
       <path id="DejaVuSans-20" transform="scale(0.015625)"/>
       <path id="DejaVuSans-28" d="M 1984 4856 
Q 1566 4138 1362 3434 
Q 1159 2731 1159 2009 
Q 1159 1288 1364 580 
Q 1569 -128 1984 -844 
L 1484 -844 
Q 1016 -109 783 600 
Q 550 1309 550 2009 
Q 550 2706 781 3412 
Q 1013 4119 1484 4856 
L 1984 4856 
z
" transform="scale(0.015625)"/>
       <path id="DejaVuSans-73" d="M 2834 3397 
L 2834 2853 
Q 2591 2978 2328 3040 
Q 2066 3103 1784 3103 
Q 1356 3103 1142 2972 
Q 928 2841 928 2578 
Q 928 2378 1081 2264 
Q 1234 2150 1697 2047 
L 1894 2003 
Q 2506 1872 2764 1633 
Q 3022 1394 3022 966 
Q 3022 478 2636 193 
Q 2250 -91 1575 -91 
Q 1294 -91 989 -36 
Q 684 19 347 128 
L 347 722 
Q 666 556 975 473 
Q 1284 391 1588 391 
Q 1994 391 2212 530 
Q 2431 669 2431 922 
Q 2431 1156 2273 1281 
Q 2116 1406 1581 1522 
L 1381 1569 
Q 847 1681 609 1914 
Q 372 2147 372 2553 
Q 372 3047 722 3315 
Q 1072 3584 1716 3584 
Q 2034 3584 2315 3537 
Q 2597 3491 2834 3397 
z
" transform="scale(0.015625)"/>
       <path id="DejaVuSans-29" d="M 513 4856 
L 1013 4856 
Q 1481 4119 1714 3412 
Q 1947 2706 1947 2009 
Q 1947 1309 1714 600 
Q 1481 -109 1013 -844 
L 513 -844 
Q 928 -128 1133 580 
Q 1338 1288 1338 2009 
Q 1338 2731 1133 3434 
Q 928 4138 513 4856 
z
" transform="scale(0.015625)"/>
      </defs>
      <use xlink:href="#DejaVuSans-54"/>
      <use xlink:href="#DejaVuSans-69" transform="translate(57.958984 0)"/>
      <use xlink:href="#DejaVuSans-6d" transform="translate(85.742188 0)"/>
      <use xlink:href="#DejaVuSans-65" transform="translate(183.154297 0)"/>
      <use xlink:href="#DejaVuSans-20" transform="translate(244.677734 0)"/>
      <use xlink:href="#DejaVuSans-28" transform="translate(276.464844 0)"/>
      <use xlink:href="#DejaVuSans-6d" transform="translate(315.478516 0)"/>
      <use xlink:href="#DejaVuSans-73" transform="translate(412.890625 0)"/>
      <use xlink:href="#DejaVuSans-29" transform="translate(464.990234 0)"/>
     </g>
    </g>
   </g>
   <g id="LineCollection_1">
    <path d="M 239.4 376.030365 
L 351 376.030365 
" clip-path="url(#pb4a60eea3e)" style="fill: none; stroke: #1f77b4; stroke-width: 1.5"/>
   </g>
   <g id="LineCollection_2">
    <path d="M 239.4 67.469668 
L 351 67.469668 
" clip-path="url(#pb4a60eea3e)" style="fill: none; stroke: #1f77b4; stroke-width: 1.5"/>
   </g>
   <g id="LineCollection_3">
    <path d="M 239.4 380.063037 
L 351 380.063037 
" clip-path="url(#pb4a60eea3e)" style="fill: none; stroke: #1f77b4; stroke-width: 1.5"/>
   </g>
   <g id="LineCollection_4">
    <path d="M 295.2 380.063037 
L 295.2 67.469668 
" clip-path="url(#pb4a60eea3e)" style="fill: none; stroke: #1f77b4; stroke-width: 1.5"/>
   </g>
   <g id="patch_3">
    <path d="M 250.56 378.182629 
L 339.84 378.182629 
L 339.84 375.892514 
L 250.56 375.892514 
L 250.56 378.182629 
z
" clip-path="url(#pb4a60eea3e)" style="fill: #1f77b4; stroke: #000000; stroke-linejoin: miter"/>
   </g>
   <g id="line2d_9">
    <path d="M 295.2 378.182629 
L 295.2 380.063037 
" clip-path="url(#pb4a60eea3e)" style="fill: none; stroke: #000000; stroke-linecap: square"/>
   </g>
   <g id="line2d_10">
    <path d="M 295.2 375.892514 
L 295.2 372.466233 
" clip-path="url(#pb4a60eea3e)" style="fill: none; stroke: #000000; stroke-linecap: square"/>
   </g>
   <g id="line2d_11">
    <path d="M 272.88 380.063037 
L 317.52 380.063037 
" clip-path="url(#pb4a60eea3e)" style="fill: none; stroke: #000000; stroke-linecap: square"/>
   </g>
   <g id="line2d_12">
    <path d="M 272.88 372.466233 
L 317.52 372.466233 
" clip-path="url(#pb4a60eea3e)" style="fill: none; stroke: #000000; stroke-linecap: square"/>
   </g>
   <g id="line2d_13">
    <defs>
     <path id="m77c3afbee6" d="M 0 3 
C 0.795609 3 1.55874 2.683901 2.12132 2.12132 
C 2.683901 1.55874 3 0.795609 3 0 
C 3 -0.795609 2.683901 -1.55874 2.12132 -2.12132 
C 1.55874 -2.683901 0.795609 -3 0 -3 
C -0.795609 -3 -1.55874 -2.683901 -2.12132 -2.12132 
C -2.683901 -1.55874 -3 -0.795609 -3 0 
C -3 0.795609 -2.683901 1.55874 -2.12132 2.12132 
C -1.55874 2.683901 -0.795609 3 0 3 
z
" style="stroke: #000000"/>
    </defs>
    <g clip-path="url(#pb4a60eea3e)">
     <use xlink:href="#m77c3afbee6" x="295.2" y="257.972497" style="fill-opacity: 0; stroke: #000000"/>
     <use xlink:href="#m77c3afbee6" x="295.2" y="313.950359" style="fill-opacity: 0; stroke: #000000"/>
     <use xlink:href="#m77c3afbee6" x="295.2" y="340.063525" style="fill-opacity: 0; stroke: #000000"/>
     <use xlink:href="#m77c3afbee6" x="295.2" y="351.400481" style="fill-opacity: 0; stroke: #000000"/>
     <use xlink:href="#m77c3afbee6" x="295.2" y="359.569817" style="fill-opacity: 0; stroke: #000000"/>
     <use xlink:href="#m77c3afbee6" x="295.2" y="371.526344" style="fill-opacity: 0; stroke: #000000"/>
     <use xlink:href="#m77c3afbee6" x="295.2" y="372.105243" style="fill-opacity: 0; stroke: #000000"/>
     <use xlink:href="#m77c3afbee6" x="295.2" y="372.250348" style="fill-opacity: 0; stroke: #000000"/>
     <use xlink:href="#m77c3afbee6" x="295.2" y="368.41747" style="fill-opacity: 0; stroke: #000000"/>
     <use xlink:href="#m77c3afbee6" x="295.2" y="369.95986" style="fill-opacity: 0; stroke: #000000"/>
     <use xlink:href="#m77c3afbee6" x="295.2" y="372.295533" style="fill-opacity: 0; stroke: #000000"/>
     <use xlink:href="#m77c3afbee6" x="295.2" y="367.076913" style="fill-opacity: 0; stroke: #000000"/>
     <use xlink:href="#m77c3afbee6" x="295.2" y="370.20136" style="fill-opacity: 0; stroke: #000000"/>
     <use xlink:href="#m77c3afbee6" x="295.2" y="369.997509" style="fill-opacity: 0; stroke: #000000"/>
     <use xlink:href="#m77c3afbee6" x="295.2" y="357.206029" style="fill-opacity: 0; stroke: #000000"/>
     <use xlink:href="#m77c3afbee6" x="295.2" y="359.515093" style="fill-opacity: 0; stroke: #000000"/>
     <use xlink:href="#m77c3afbee6" x="295.2" y="366.591894" style="fill-opacity: 0; stroke: #000000"/>
     <use xlink:href="#m77c3afbee6" x="295.2" y="370.635149" style="fill-opacity: 0; stroke: #000000"/>
     <use xlink:href="#m77c3afbee6" x="295.2" y="372.069587" style="fill-opacity: 0; stroke: #000000"/>
     <use xlink:href="#m77c3afbee6" x="295.2" y="371.300402" style="fill-opacity: 0; stroke: #000000"/>
     <use xlink:href="#m77c3afbee6" x="295.2" y="259.777157" style="fill-opacity: 0; stroke: #000000"/>
     <use xlink:href="#m77c3afbee6" x="295.2" y="308.982878" style="fill-opacity: 0; stroke: #000000"/>
     <use xlink:href="#m77c3afbee6" x="295.2" y="347.463486" style="fill-opacity: 0; stroke: #000000"/>
     <use xlink:href="#m77c3afbee6" x="295.2" y="352.963872" style="fill-opacity: 0; stroke: #000000"/>
     <use xlink:href="#m77c3afbee6" x="295.2" y="355.873474" style="fill-opacity: 0; stroke: #000000"/>
     <use xlink:href="#m77c3afbee6" x="295.2" y="370.184019" style="fill-opacity: 0; stroke: #000000"/>
     <use xlink:href="#m77c3afbee6" x="295.2" y="370.456652" style="fill-opacity: 0; stroke: #000000"/>
     <use xlink:href="#m77c3afbee6" x="295.2" y="372.328945" style="fill-opacity: 0; stroke: #000000"/>
     <use xlink:href="#m77c3afbee6" x="295.2" y="371.519074" style="fill-opacity: 0; stroke: #000000"/>
     <use xlink:href="#m77c3afbee6" x="295.2" y="368.393065" style="fill-opacity: 0; stroke: #000000"/>
     <use xlink:href="#m77c3afbee6" x="295.2" y="371.609952" style="fill-opacity: 0; stroke: #000000"/>
     <use xlink:href="#m77c3afbee6" x="295.2" y="370.715233" style="fill-opacity: 0; stroke: #000000"/>
     <use xlink:href="#m77c3afbee6" x="295.2" y="372.340493" style="fill-opacity: 0; stroke: #000000"/>
     <use xlink:href="#m77c3afbee6" x="295.2" y="359.82647" style="fill-opacity: 0; stroke: #000000"/>
     <use xlink:href="#m77c3afbee6" x="295.2" y="369.922964" style="fill-opacity: 0; stroke: #000000"/>
     <use xlink:href="#m77c3afbee6" x="295.2" y="358.05611" style="fill-opacity: 0; stroke: #000000"/>
     <use xlink:href="#m77c3afbee6" x="295.2" y="359.602511" style="fill-opacity: 0; stroke: #000000"/>
     <use xlink:href="#m77c3afbee6" x="295.2" y="371.697325" style="fill-opacity: 0; stroke: #000000"/>
     <use xlink:href="#m77c3afbee6" x="295.2" y="371.433227" style="fill-opacity: 0; stroke: #000000"/>
     <use xlink:href="#m77c3afbee6" x="295.2" y="235.523934" style="fill-opacity: 0; stroke: #000000"/>
     <use xlink:href="#m77c3afbee6" x="295.2" y="203.259979" style="fill-opacity: 0; stroke: #000000"/>
     <use xlink:href="#m77c3afbee6" x="295.2" y="339.826724" style="fill-opacity: 0; stroke: #000000"/>
     <use xlink:href="#m77c3afbee6" x="295.2" y="350.250821" style="fill-opacity: 0; stroke: #000000"/>
     <use xlink:href="#m77c3afbee6" x="295.2" y="350.349235" style="fill-opacity: 0; stroke: #000000"/>
     <use xlink:href="#m77c3afbee6" x="295.2" y="369.612812" style="fill-opacity: 0; stroke: #000000"/>
     <use xlink:href="#m77c3afbee6" x="295.2" y="366.783474" style="fill-opacity: 0; stroke: #000000"/>
     <use xlink:href="#m77c3afbee6" x="295.2" y="372.196116" style="fill-opacity: 0; stroke: #000000"/>
     <use xlink:href="#m77c3afbee6" x="295.2" y="369.696159" style="fill-opacity: 0; stroke: #000000"/>
     <use xlink:href="#m77c3afbee6" x="295.2" y="365.677353" style="fill-opacity: 0; stroke: #000000"/>
     <use xlink:href="#m77c3afbee6" x="295.2" y="372.39344" style="fill-opacity: 0; stroke: #000000"/>
     <use xlink:href="#m77c3afbee6" x="295.2" y="369.7062" style="fill-opacity: 0; stroke: #000000"/>
     <use xlink:href="#m77c3afbee6" x="295.2" y="371.295854" style="fill-opacity: 0; stroke: #000000"/>
     <use xlink:href="#m77c3afbee6" x="295.2" y="357.985676" style="fill-opacity: 0; stroke: #000000"/>
     <use xlink:href="#m77c3afbee6" x="295.2" y="361.181341" style="fill-opacity: 0; stroke: #000000"/>
     <use xlink:href="#m77c3afbee6" x="295.2" y="357.425172" style="fill-opacity: 0; stroke: #000000"/>
     <use xlink:href="#m77c3afbee6" x="295.2" y="361.04226" style="fill-opacity: 0; stroke: #000000"/>
     <use xlink:href="#m77c3afbee6" x="295.2" y="361.274568" style="fill-opacity: 0; stroke: #000000"/>
     <use xlink:href="#m77c3afbee6" x="295.2" y="360.441587" style="fill-opacity: 0; stroke: #000000"/>
     <use xlink:href="#m77c3afbee6" x="295.2" y="371.529904" style="fill-opacity: 0; stroke: #000000"/>
     <use xlink:href="#m77c3afbee6" x="295.2" y="371.989825" style="fill-opacity: 0; stroke: #000000"/>
     <use xlink:href="#m77c3afbee6" x="295.2" y="67.469668" style="fill-opacity: 0; stroke: #000000"/>
     <use xlink:href="#m77c3afbee6" x="295.2" y="279.630955" style="fill-opacity: 0; stroke: #000000"/>
     <use xlink:href="#m77c3afbee6" x="295.2" y="331.100524" style="fill-opacity: 0; stroke: #000000"/>
     <use xlink:href="#m77c3afbee6" x="295.2" y="327.539787" style="fill-opacity: 0; stroke: #000000"/>
     <use xlink:href="#m77c3afbee6" x="295.2" y="345.434365" style="fill-opacity: 0; stroke: #000000"/>
     <use xlink:href="#m77c3afbee6" x="295.2" y="364.881871" style="fill-opacity: 0; stroke: #000000"/>
     <use xlink:href="#m77c3afbee6" x="295.2" y="368.523947" style="fill-opacity: 0; stroke: #000000"/>
     <use xlink:href="#m77c3afbee6" x="295.2" y="369.827342" style="fill-opacity: 0; stroke: #000000"/>
     <use xlink:href="#m77c3afbee6" x="295.2" y="370.099468" style="fill-opacity: 0; stroke: #000000"/>
     <use xlink:href="#m77c3afbee6" x="295.2" y="368.477255" style="fill-opacity: 0; stroke: #000000"/>
     <use xlink:href="#m77c3afbee6" x="295.2" y="367.807986" style="fill-opacity: 0; stroke: #000000"/>
     <use xlink:href="#m77c3afbee6" x="295.2" y="371.732223" style="fill-opacity: 0; stroke: #000000"/>
     <use xlink:href="#m77c3afbee6" x="295.2" y="370.912331" style="fill-opacity: 0; stroke: #000000"/>
     <use xlink:href="#m77c3afbee6" x="295.2" y="370.952998" style="fill-opacity: 0; stroke: #000000"/>
     <use xlink:href="#m77c3afbee6" x="295.2" y="371.452069" style="fill-opacity: 0; stroke: #000000"/>
     <use xlink:href="#m77c3afbee6" x="295.2" y="371.539433" style="fill-opacity: 0; stroke: #000000"/>
     <use xlink:href="#m77c3afbee6" x="295.2" y="372.142933" style="fill-opacity: 0; stroke: #000000"/>
     <use xlink:href="#m77c3afbee6" x="295.2" y="369.652118" style="fill-opacity: 0; stroke: #000000"/>
     <use xlink:href="#m77c3afbee6" x="295.2" y="366.763266" style="fill-opacity: 0; stroke: #000000"/>
     <use xlink:href="#m77c3afbee6" x="295.2" y="370.170855" style="fill-opacity: 0; stroke: #000000"/>
     <use xlink:href="#m77c3afbee6" x="295.2" y="371.551562" style="fill-opacity: 0; stroke: #000000"/>
     <use xlink:href="#m77c3afbee6" x="295.2" y="354.263602" style="fill-opacity: 0; stroke: #000000"/>
     <use xlink:href="#m77c3afbee6" x="295.2" y="360.307588" style="fill-opacity: 0; stroke: #000000"/>
     <use xlink:href="#m77c3afbee6" x="295.2" y="354.246532" style="fill-opacity: 0; stroke: #000000"/>
     <use xlink:href="#m77c3afbee6" x="295.2" y="354.026118" style="fill-opacity: 0; stroke: #000000"/>
     <use xlink:href="#m77c3afbee6" x="295.2" y="357.66356" style="fill-opacity: 0; stroke: #000000"/>
     <use xlink:href="#m77c3afbee6" x="295.2" y="366.430502" style="fill-opacity: 0; stroke: #000000"/>
     <use xlink:href="#m77c3afbee6" x="295.2" y="372.083172" style="fill-opacity: 0; stroke: #000000"/>
     <use xlink:href="#m77c3afbee6" x="295.2" y="362.22482" style="fill-opacity: 0; stroke: #000000"/>
     <use xlink:href="#m77c3afbee6" x="295.2" y="370.303961" style="fill-opacity: 0; stroke: #000000"/>
     <use xlink:href="#m77c3afbee6" x="295.2" y="362.27854" style="fill-opacity: 0; stroke: #000000"/>
     <use xlink:href="#m77c3afbee6" x="295.2" y="371.936762" style="fill-opacity: 0; stroke: #000000"/>
     <use xlink:href="#m77c3afbee6" x="295.2" y="208.247813" style="fill-opacity: 0; stroke: #000000"/>
     <use xlink:href="#m77c3afbee6" x="295.2" y="201.541778" style="fill-opacity: 0; stroke: #000000"/>
     <use xlink:href="#m77c3afbee6" x="295.2" y="343.757272" style="fill-opacity: 0; stroke: #000000"/>
     <use xlink:href="#m77c3afbee6" x="295.2" y="349.585633" style="fill-opacity: 0; stroke: #000000"/>
     <use xlink:href="#m77c3afbee6" x="295.2" y="357.633276" style="fill-opacity: 0; stroke: #000000"/>
     <use xlink:href="#m77c3afbee6" x="295.2" y="369.214684" style="fill-opacity: 0; stroke: #000000"/>
     <use xlink:href="#m77c3afbee6" x="295.2" y="370.353449" style="fill-opacity: 0; stroke: #000000"/>
     <use xlink:href="#m77c3afbee6" x="295.2" y="371.227604" style="fill-opacity: 0; stroke: #000000"/>
     <use xlink:href="#m77c3afbee6" x="295.2" y="367.94689" style="fill-opacity: 0; stroke: #000000"/>
     <use xlink:href="#m77c3afbee6" x="295.2" y="371.623758" style="fill-opacity: 0; stroke: #000000"/>
     <use xlink:href="#m77c3afbee6" x="295.2" y="372.038494" style="fill-opacity: 0; stroke: #000000"/>
     <use xlink:href="#m77c3afbee6" x="295.2" y="372.443686" style="fill-opacity: 0; stroke: #000000"/>
     <use xlink:href="#m77c3afbee6" x="295.2" y="368.280282" style="fill-opacity: 0; stroke: #000000"/>
     <use xlink:href="#m77c3afbee6" x="295.2" y="366.320089" style="fill-opacity: 0; stroke: #000000"/>
     <use xlink:href="#m77c3afbee6" x="295.2" y="367.728977" style="fill-opacity: 0; stroke: #000000"/>
     <use xlink:href="#m77c3afbee6" x="295.2" y="360.219587" style="fill-opacity: 0; stroke: #000000"/>
     <use xlink:href="#m77c3afbee6" x="295.2" y="364.672246" style="fill-opacity: 0; stroke: #000000"/>
     <use xlink:href="#m77c3afbee6" x="295.2" y="357.925389" style="fill-opacity: 0; stroke: #000000"/>
     <use xlink:href="#m77c3afbee6" x="295.2" y="359.54972" style="fill-opacity: 0; stroke: #000000"/>
     <use xlink:href="#m77c3afbee6" x="295.2" y="360.404811" style="fill-opacity: 0; stroke: #000000"/>
     <use xlink:href="#m77c3afbee6" x="295.2" y="359.939754" style="fill-opacity: 0; stroke: #000000"/>
     <use xlink:href="#m77c3afbee6" x="295.2" y="359.559153" style="fill-opacity: 0; stroke: #000000"/>
     <use xlink:href="#m77c3afbee6" x="295.2" y="361.136291" style="fill-opacity: 0; stroke: #000000"/>
     <use xlink:href="#m77c3afbee6" x="295.2" y="371.952291" style="fill-opacity: 0; stroke: #000000"/>
     <use xlink:href="#m77c3afbee6" x="295.2" y="371.20113" style="fill-opacity: 0; stroke: #000000"/>
     <use xlink:href="#m77c3afbee6" x="295.2" y="262.492166" style="fill-opacity: 0; stroke: #000000"/>
     <use xlink:href="#m77c3afbee6" x="295.2" y="308.676105" style="fill-opacity: 0; stroke: #000000"/>
     <use xlink:href="#m77c3afbee6" x="295.2" y="344.171857" style="fill-opacity: 0; stroke: #000000"/>
     <use xlink:href="#m77c3afbee6" x="295.2" y="351.592538" style="fill-opacity: 0; stroke: #000000"/>
     <use xlink:href="#m77c3afbee6" x="295.2" y="352.10616" style="fill-opacity: 0; stroke: #000000"/>
     <use xlink:href="#m77c3afbee6" x="295.2" y="363.997319" style="fill-opacity: 0; stroke: #000000"/>
     <use xlink:href="#m77c3afbee6" x="295.2" y="370.741706" style="fill-opacity: 0; stroke: #000000"/>
     <use xlink:href="#m77c3afbee6" x="295.2" y="371.374321" style="fill-opacity: 0; stroke: #000000"/>
     <use xlink:href="#m77c3afbee6" x="295.2" y="367.793009" style="fill-opacity: 0; stroke: #000000"/>
     <use xlink:href="#m77c3afbee6" x="295.2" y="370.232096" style="fill-opacity: 0; stroke: #000000"/>
     <use xlink:href="#m77c3afbee6" x="295.2" y="370.141224" style="fill-opacity: 0; stroke: #000000"/>
     <use xlink:href="#m77c3afbee6" x="295.2" y="370.756266" style="fill-opacity: 0; stroke: #000000"/>
     <use xlink:href="#m77c3afbee6" x="295.2" y="372.40448" style="fill-opacity: 0; stroke: #000000"/>
     <use xlink:href="#m77c3afbee6" x="295.2" y="371.705082" style="fill-opacity: 0; stroke: #000000"/>
     <use xlink:href="#m77c3afbee6" x="295.2" y="372.327158" style="fill-opacity: 0; stroke: #000000"/>
     <use xlink:href="#m77c3afbee6" x="295.2" y="354.156387" style="fill-opacity: 0; stroke: #000000"/>
     <use xlink:href="#m77c3afbee6" x="295.2" y="369.277527" style="fill-opacity: 0; stroke: #000000"/>
     <use xlink:href="#m77c3afbee6" x="295.2" y="370.829456" style="fill-opacity: 0; stroke: #000000"/>
     <use xlink:href="#m77c3afbee6" x="295.2" y="361.019321" style="fill-opacity: 0; stroke: #000000"/>
     <use xlink:href="#m77c3afbee6" x="295.2" y="359.073763" style="fill-opacity: 0; stroke: #000000"/>
     <use xlink:href="#m77c3afbee6" x="295.2" y="371.119084" style="fill-opacity: 0; stroke: #000000"/>
     <use xlink:href="#m77c3afbee6" x="295.2" y="371.150222" style="fill-opacity: 0; stroke: #000000"/>
     <use xlink:href="#m77c3afbee6" x="295.2" y="350.789962" style="fill-opacity: 0; stroke: #000000"/>
     <use xlink:href="#m77c3afbee6" x="295.2" y="371.552466" style="fill-opacity: 0; stroke: #000000"/>
     <use xlink:href="#m77c3afbee6" x="295.2" y="129.428402" style="fill-opacity: 0; stroke: #000000"/>
     <use xlink:href="#m77c3afbee6" x="295.2" y="133.994944" style="fill-opacity: 0; stroke: #000000"/>
     <use xlink:href="#m77c3afbee6" x="295.2" y="304.02951" style="fill-opacity: 0; stroke: #000000"/>
     <use xlink:href="#m77c3afbee6" x="295.2" y="304.347333" style="fill-opacity: 0; stroke: #000000"/>
     <use xlink:href="#m77c3afbee6" x="295.2" y="327.837794" style="fill-opacity: 0; stroke: #000000"/>
     <use xlink:href="#m77c3afbee6" x="295.2" y="369.219358" style="fill-opacity: 0; stroke: #000000"/>
     <use xlink:href="#m77c3afbee6" x="295.2" y="370.289326" style="fill-opacity: 0; stroke: #000000"/>
     <use xlink:href="#m77c3afbee6" x="295.2" y="370.324972" style="fill-opacity: 0; stroke: #000000"/>
     <use xlink:href="#m77c3afbee6" x="295.2" y="368.23224" style="fill-opacity: 0; stroke: #000000"/>
     <use xlink:href="#m77c3afbee6" x="295.2" y="370.632257" style="fill-opacity: 0; stroke: #000000"/>
     <use xlink:href="#m77c3afbee6" x="295.2" y="371.951251" style="fill-opacity: 0; stroke: #000000"/>
     <use xlink:href="#m77c3afbee6" x="295.2" y="353.01579" style="fill-opacity: 0; stroke: #000000"/>
     <use xlink:href="#m77c3afbee6" x="295.2" y="360.483378" style="fill-opacity: 0; stroke: #000000"/>
     <use xlink:href="#m77c3afbee6" x="295.2" y="362.400882" style="fill-opacity: 0; stroke: #000000"/>
     <use xlink:href="#m77c3afbee6" x="295.2" y="361.418784" style="fill-opacity: 0; stroke: #000000"/>
     <use xlink:href="#m77c3afbee6" x="295.2" y="359.302963" style="fill-opacity: 0; stroke: #000000"/>
     <use xlink:href="#m77c3afbee6" x="295.2" y="359.562542" style="fill-opacity: 0; stroke: #000000"/>
     <use xlink:href="#m77c3afbee6" x="295.2" y="358.157179" style="fill-opacity: 0; stroke: #000000"/>
     <use xlink:href="#m77c3afbee6" x="295.2" y="86.088938" style="fill-opacity: 0; stroke: #000000"/>
     <use xlink:href="#m77c3afbee6" x="295.2" y="196.705159" style="fill-opacity: 0; stroke: #000000"/>
     <use xlink:href="#m77c3afbee6" x="295.2" y="349.669799" style="fill-opacity: 0; stroke: #000000"/>
     <use xlink:href="#m77c3afbee6" x="295.2" y="317.300713" style="fill-opacity: 0; stroke: #000000"/>
     <use xlink:href="#m77c3afbee6" x="295.2" y="301.202527" style="fill-opacity: 0; stroke: #000000"/>
     <use xlink:href="#m77c3afbee6" x="295.2" y="351.060065" style="fill-opacity: 0; stroke: #000000"/>
     <use xlink:href="#m77c3afbee6" x="295.2" y="354.886411" style="fill-opacity: 0; stroke: #000000"/>
     <use xlink:href="#m77c3afbee6" x="295.2" y="370.556321" style="fill-opacity: 0; stroke: #000000"/>
     <use xlink:href="#m77c3afbee6" x="295.2" y="368.197548" style="fill-opacity: 0; stroke: #000000"/>
     <use xlink:href="#m77c3afbee6" x="295.2" y="370.773221" style="fill-opacity: 0; stroke: #000000"/>
     <use xlink:href="#m77c3afbee6" x="295.2" y="370.394653" style="fill-opacity: 0; stroke: #000000"/>
     <use xlink:href="#m77c3afbee6" x="295.2" y="371.370194" style="fill-opacity: 0; stroke: #000000"/>
     <use xlink:href="#m77c3afbee6" x="295.2" y="372.10825" style="fill-opacity: 0; stroke: #000000"/>
     <use xlink:href="#m77c3afbee6" x="295.2" y="354.379312" style="fill-opacity: 0; stroke: #000000"/>
     <use xlink:href="#m77c3afbee6" x="295.2" y="360.371635" style="fill-opacity: 0; stroke: #000000"/>
     <use xlink:href="#m77c3afbee6" x="295.2" y="361.613282" style="fill-opacity: 0; stroke: #000000"/>
     <use xlink:href="#m77c3afbee6" x="295.2" y="357.806506" style="fill-opacity: 0; stroke: #000000"/>
     <use xlink:href="#m77c3afbee6" x="295.2" y="356.903267" style="fill-opacity: 0; stroke: #000000"/>
     <use xlink:href="#m77c3afbee6" x="295.2" y="372.224753" style="fill-opacity: 0; stroke: #000000"/>
     <use xlink:href="#m77c3afbee6" x="295.2" y="372.241321" style="fill-opacity: 0; stroke: #000000"/>
     <use xlink:href="#m77c3afbee6" x="295.2" y="370.967552" style="fill-opacity: 0; stroke: #000000"/>
     <use xlink:href="#m77c3afbee6" x="295.2" y="365.398495" style="fill-opacity: 0; stroke: #000000"/>
     <use xlink:href="#m77c3afbee6" x="295.2" y="372.154972" style="fill-opacity: 0; stroke: #000000"/>
     <use xlink:href="#m77c3afbee6" x="295.2" y="372.230788" style="fill-opacity: 0; stroke: #000000"/>
     <use xlink:href="#m77c3afbee6" x="295.2" y="223.02068" style="fill-opacity: 0; stroke: #000000"/>
     <use xlink:href="#m77c3afbee6" x="295.2" y="236.177855" style="fill-opacity: 0; stroke: #000000"/>
     <use xlink:href="#m77c3afbee6" x="295.2" y="341.541702" style="fill-opacity: 0; stroke: #000000"/>
     <use xlink:href="#m77c3afbee6" x="295.2" y="338.991699" style="fill-opacity: 0; stroke: #000000"/>
     <use xlink:href="#m77c3afbee6" x="295.2" y="355.49214" style="fill-opacity: 0; stroke: #000000"/>
     <use xlink:href="#m77c3afbee6" x="295.2" y="366.746985" style="fill-opacity: 0; stroke: #000000"/>
     <use xlink:href="#m77c3afbee6" x="295.2" y="367.118513" style="fill-opacity: 0; stroke: #000000"/>
     <use xlink:href="#m77c3afbee6" x="295.2" y="370.784105" style="fill-opacity: 0; stroke: #000000"/>
     <use xlink:href="#m77c3afbee6" x="295.2" y="362.566772" style="fill-opacity: 0; stroke: #000000"/>
     <use xlink:href="#m77c3afbee6" x="295.2" y="371.819371" style="fill-opacity: 0; stroke: #000000"/>
     <use xlink:href="#m77c3afbee6" x="295.2" y="372.024216" style="fill-opacity: 0; stroke: #000000"/>
     <use xlink:href="#m77c3afbee6" x="295.2" y="370.274827" style="fill-opacity: 0; stroke: #000000"/>
     <use xlink:href="#m77c3afbee6" x="295.2" y="371.442651" style="fill-opacity: 0; stroke: #000000"/>
     <use xlink:href="#m77c3afbee6" x="295.2" y="354.048299" style="fill-opacity: 0; stroke: #000000"/>
     <use xlink:href="#m77c3afbee6" x="295.2" y="359.886415" style="fill-opacity: 0; stroke: #000000"/>
     <use xlink:href="#m77c3afbee6" x="295.2" y="368.494978" style="fill-opacity: 0; stroke: #000000"/>
     <use xlink:href="#m77c3afbee6" x="295.2" y="360.673132" style="fill-opacity: 0; stroke: #000000"/>
     <use xlink:href="#m77c3afbee6" x="295.2" y="360.738399" style="fill-opacity: 0; stroke: #000000"/>
     <use xlink:href="#m77c3afbee6" x="295.2" y="356.949743" style="fill-opacity: 0; stroke: #000000"/>
     <use xlink:href="#m77c3afbee6" x="295.2" y="372.241075" style="fill-opacity: 0; stroke: #000000"/>
     <use xlink:href="#m77c3afbee6" x="295.2" y="371.579346" style="fill-opacity: 0; stroke: #000000"/>
     <use xlink:href="#m77c3afbee6" x="295.2" y="371.743023" style="fill-opacity: 0; stroke: #000000"/>
     <use xlink:href="#m77c3afbee6" x="295.2" y="359.066794" style="fill-opacity: 0; stroke: #000000"/>
     <use xlink:href="#m77c3afbee6" x="295.2" y="191.299511" style="fill-opacity: 0; stroke: #000000"/>
     <use xlink:href="#m77c3afbee6" x="295.2" y="307.258516" style="fill-opacity: 0; stroke: #000000"/>
     <use xlink:href="#m77c3afbee6" x="295.2" y="340.687534" style="fill-opacity: 0; stroke: #000000"/>
     <use xlink:href="#m77c3afbee6" x="295.2" y="351.049471" style="fill-opacity: 0; stroke: #000000"/>
     <use xlink:href="#m77c3afbee6" x="295.2" y="359.035566" style="fill-opacity: 0; stroke: #000000"/>
     <use xlink:href="#m77c3afbee6" x="295.2" y="371.730672" style="fill-opacity: 0; stroke: #000000"/>
     <use xlink:href="#m77c3afbee6" x="295.2" y="372.239278" style="fill-opacity: 0; stroke: #000000"/>
     <use xlink:href="#m77c3afbee6" x="295.2" y="368.847222" style="fill-opacity: 0; stroke: #000000"/>
     <use xlink:href="#m77c3afbee6" x="295.2" y="372.311594" style="fill-opacity: 0; stroke: #000000"/>
     <use xlink:href="#m77c3afbee6" x="295.2" y="361.94068" style="fill-opacity: 0; stroke: #000000"/>
     <use xlink:href="#m77c3afbee6" x="295.2" y="359.890698" style="fill-opacity: 0; stroke: #000000"/>
     <use xlink:href="#m77c3afbee6" x="295.2" y="359.54368" style="fill-opacity: 0; stroke: #000000"/>
     <use xlink:href="#m77c3afbee6" x="295.2" y="360.823985" style="fill-opacity: 0; stroke: #000000"/>
    </g>
   </g>
   <g id="line2d_14">
    <path d="M 250.56 377.120163 
L 339.84 377.120163 
" clip-path="url(#pb4a60eea3e)" style="fill: none; stroke: #ff7f0e"/>
   </g>
   <g id="patch_4">
    <path d="M 72 384.48 
L 72 51.84 
" style="fill: none; stroke: #000000; stroke-width: 0.8; stroke-linejoin: miter; stroke-linecap: square"/>
   </g>
   <g id="patch_5">
    <path d="M 518.4 384.48 
L 518.4 51.84 
" style="fill: none; stroke: #000000; stroke-width: 0.8; stroke-linejoin: miter; stroke-linecap: square"/>
   </g>
   <g id="patch_6">
    <path d="M 72 384.48 
L 518.4 384.48 
" style="fill: none; stroke: #000000; stroke-width: 0.8; stroke-linejoin: miter; stroke-linecap: square"/>
   </g>
   <g id="patch_7">
    <path d="M 72 51.84 
L 518.4 51.84 
" style="fill: none; stroke: #000000; stroke-width: 0.8; stroke-linejoin: miter; stroke-linecap: square"/>
   </g>
   <g id="text_10">
    <!-- Handle Result -->
    <g transform="translate(253.595625 45.84) scale(0.12 -0.12)">
     <defs>
      <path id="DejaVuSans-48" d="M 628 4666 
L 1259 4666 
L 1259 2753 
L 3553 2753 
L 3553 4666 
L 4184 4666 
L 4184 0 
L 3553 0 
L 3553 2222 
L 1259 2222 
L 1259 0 
L 628 0 
L 628 4666 
z
" transform="scale(0.015625)"/>
      <path id="DejaVuSans-61" d="M 2194 1759 
Q 1497 1759 1228 1600 
Q 959 1441 959 1056 
Q 959 750 1161 570 
Q 1363 391 1709 391 
Q 2188 391 2477 730 
Q 2766 1069 2766 1631 
L 2766 1759 
L 2194 1759 
z
M 3341 1997 
L 3341 0 
L 2766 0 
L 2766 531 
Q 2569 213 2275 61 
Q 1981 -91 1556 -91 
Q 1019 -91 701 211 
Q 384 513 384 1019 
Q 384 1609 779 1909 
Q 1175 2209 1959 2209 
L 2766 2209 
L 2766 2266 
Q 2766 2663 2505 2880 
Q 2244 3097 1772 3097 
Q 1472 3097 1187 3025 
Q 903 2953 641 2809 
L 641 3341 
Q 956 3463 1253 3523 
Q 1550 3584 1831 3584 
Q 2591 3584 2966 3190 
Q 3341 2797 3341 1997 
z
" transform="scale(0.015625)"/>
      <path id="DejaVuSans-6e" d="M 3513 2113 
L 3513 0 
L 2938 0 
L 2938 2094 
Q 2938 2591 2744 2837 
Q 2550 3084 2163 3084 
Q 1697 3084 1428 2787 
Q 1159 2491 1159 1978 
L 1159 0 
L 581 0 
L 581 3500 
L 1159 3500 
L 1159 2956 
Q 1366 3272 1645 3428 
Q 1925 3584 2291 3584 
Q 2894 3584 3203 3211 
Q 3513 2838 3513 2113 
z
" transform="scale(0.015625)"/>
      <path id="DejaVuSans-64" d="M 2906 2969 
L 2906 4863 
L 3481 4863 
L 3481 0 
L 2906 0 
L 2906 525 
Q 2725 213 2448 61 
Q 2172 -91 1784 -91 
Q 1150 -91 751 415 
Q 353 922 353 1747 
Q 353 2572 751 3078 
Q 1150 3584 1784 3584 
Q 2172 3584 2448 3432 
Q 2725 3281 2906 2969 
z
M 947 1747 
Q 947 1113 1208 752 
Q 1469 391 1925 391 
Q 2381 391 2643 752 
Q 2906 1113 2906 1747 
Q 2906 2381 2643 2742 
Q 2381 3103 1925 3103 
Q 1469 3103 1208 2742 
Q 947 2381 947 1747 
z
" transform="scale(0.015625)"/>
      <path id="DejaVuSans-6c" d="M 603 4863 
L 1178 4863 
L 1178 0 
L 603 0 
L 603 4863 
z
" transform="scale(0.015625)"/>
      <path id="DejaVuSans-52" d="M 2841 2188 
Q 3044 2119 3236 1894 
Q 3428 1669 3622 1275 
L 4263 0 
L 3584 0 
L 2988 1197 
Q 2756 1666 2539 1819 
Q 2322 1972 1947 1972 
L 1259 1972 
L 1259 0 
L 628 0 
L 628 4666 
L 2053 4666 
Q 2853 4666 3247 4331 
Q 3641 3997 3641 3322 
Q 3641 2881 3436 2590 
Q 3231 2300 2841 2188 
z
M 1259 4147 
L 1259 2491 
L 2053 2491 
Q 2509 2491 2742 2702 
Q 2975 2913 2975 3322 
Q 2975 3731 2742 3939 
Q 2509 4147 2053 4147 
L 1259 4147 
z
" transform="scale(0.015625)"/>
      <path id="DejaVuSans-75" d="M 544 1381 
L 544 3500 
L 1119 3500 
L 1119 1403 
Q 1119 906 1312 657 
Q 1506 409 1894 409 
Q 2359 409 2629 706 
Q 2900 1003 2900 1516 
L 2900 3500 
L 3475 3500 
L 3475 0 
L 2900 0 
L 2900 538 
Q 2691 219 2414 64 
Q 2138 -91 1772 -91 
Q 1169 -91 856 284 
Q 544 659 544 1381 
z
M 1991 3584 
L 1991 3584 
z
" transform="scale(0.015625)"/>
      <path id="DejaVuSans-74" d="M 1172 4494 
L 1172 3500 
L 2356 3500 
L 2356 3053 
L 1172 3053 
L 1172 1153 
Q 1172 725 1289 603 
Q 1406 481 1766 481 
L 2356 481 
L 2356 0 
L 1766 0 
Q 1100 0 847 248 
Q 594 497 594 1153 
L 594 3053 
L 172 3053 
L 172 3500 
L 594 3500 
L 594 4494 
L 1172 4494 
z
" transform="scale(0.015625)"/>
     </defs>
     <use xlink:href="#DejaVuSans-48"/>
     <use xlink:href="#DejaVuSans-61" transform="translate(75.195312 0)"/>
     <use xlink:href="#DejaVuSans-6e" transform="translate(136.474609 0)"/>
     <use xlink:href="#DejaVuSans-64" transform="translate(199.853516 0)"/>
     <use xlink:href="#DejaVuSans-6c" transform="translate(263.330078 0)"/>
     <use xlink:href="#DejaVuSans-65" transform="translate(291.113281 0)"/>
     <use xlink:href="#DejaVuSans-20" transform="translate(352.636719 0)"/>
     <use xlink:href="#DejaVuSans-52" transform="translate(384.423828 0)"/>
     <use xlink:href="#DejaVuSans-65" transform="translate(449.40625 0)"/>
     <use xlink:href="#DejaVuSans-73" transform="translate(510.929688 0)"/>
     <use xlink:href="#DejaVuSans-75" transform="translate(563.029297 0)"/>
     <use xlink:href="#DejaVuSans-6c" transform="translate(626.408203 0)"/>
     <use xlink:href="#DejaVuSans-74" transform="translate(654.191406 0)"/>
    </g>
   </g>
  </g>
 </g>
 <defs>
  <clipPath id="pb4a60eea3e">
   <rect x="72" y="51.84" width="446.4" height="332.64"/>
  </clipPath>
 </defs>
</svg>
