<?xml version="1.0" encoding="utf-8" standalone="no"?>
<!DOCTYPE svg PUBLIC "-//W3C//DTD SVG 1.1//EN"
  "http://www.w3.org/Graphics/SVG/1.1/DTD/svg11.dtd">
<svg xmlns:xlink="http://www.w3.org/1999/xlink" width="720pt" height="432pt" viewBox="0 0 720 432" xmlns="http://www.w3.org/2000/svg" version="1.1">
 <metadata>
  <rdf:RDF xmlns:dc="http://purl.org/dc/elements/1.1/" xmlns:cc="http://creativecommons.org/ns#" xmlns:rdf="http://www.w3.org/1999/02/22-rdf-syntax-ns#">
   <cc:Work>
    <dc:type rdf:resource="http://purl.org/dc/dcmitype/StillImage"/>
    <dc:date>2025-06-08T23:57:30.426957</dc:date>
    <dc:format>image/svg+xml</dc:format>
    <dc:creator>
     <cc:Agent>
      <dc:title>Matplotlib v3.10.3, https://matplotlib.org/</dc:title>
     </cc:Agent>
    </dc:creator>
   </cc:Work>
  </rdf:RDF>
 </metadata>
 <defs>
  <style type="text/css">*{stroke-linejoin: round; stroke-linecap: butt}</style>
 </defs>
 <g id="figure_1">
  <g id="patch_1">
   <path d="M 0 432 
L 720 432 
L 720 0 
L 0 0 
z
" style="fill: #ffffff"/>
  </g>
  <g id="axes_1">
   <g id="patch_2">
    <path d="M 90 384.48 
L 648 384.48 
L 648 51.84 
L 90 51.84 
z
" style="fill: #ffffff"/>
   </g>
   <g id="matplotlib.axis_1">
    <g id="xtick_1">
     <g id="line2d_1">
      <defs>
       <path id="mdd314e9837" d="M 0 0 
L 0 3.5 
" style="stroke: #000000; stroke-width: 0.8"/>
      </defs>
      <g>
       <use xlink:href="#mdd314e9837" x="115.363636" y="384.48" style="stroke: #000000; stroke-width: 0.8"/>
      </g>
     </g>
     <g id="text_1">
      <!-- 0 -->
      <g transform="translate(112.182386 399.078438) scale(0.1 -0.1)">
       <defs>
        <path id="DejaVuSans-30" d="M 2034 4250 
Q 1547 4250 1301 3770 
Q 1056 3291 1056 2328 
Q 1056 1369 1301 889 
Q 1547 409 2034 409 
Q 2525 409 2770 889 
Q 3016 1369 3016 2328 
Q 3016 3291 2770 3770 
Q 2525 4250 2034 4250 
z
M 2034 4750 
Q 2819 4750 3233 4129 
Q 3647 3509 3647 2328 
Q 3647 1150 3233 529 
Q 2819 -91 2034 -91 
Q 1250 -91 836 529 
Q 422 1150 422 2328 
Q 422 3509 836 4129 
Q 1250 4750 2034 4750 
z
" transform="scale(0.015625)"/>
       </defs>
       <use xlink:href="#DejaVuSans-30"/>
      </g>
     </g>
    </g>
    <g id="xtick_2">
     <g id="line2d_2">
      <g>
       <use xlink:href="#mdd314e9837" x="206.764128" y="384.48" style="stroke: #000000; stroke-width: 0.8"/>
      </g>
     </g>
     <g id="text_2">
      <!-- 100 -->
      <g transform="translate(197.220378 399.078438) scale(0.1 -0.1)">
       <defs>
        <path id="DejaVuSans-31" d="M 794 531 
L 1825 531 
L 1825 4091 
L 703 3866 
L 703 4441 
L 1819 4666 
L 2450 4666 
L 2450 531 
L 3481 531 
L 3481 0 
L 794 0 
L 794 531 
z
" transform="scale(0.015625)"/>
       </defs>
       <use xlink:href="#DejaVuSans-31"/>
       <use xlink:href="#DejaVuSans-30" transform="translate(63.623047 0)"/>
       <use xlink:href="#DejaVuSans-30" transform="translate(127.246094 0)"/>
      </g>
     </g>
    </g>
    <g id="xtick_3">
     <g id="line2d_3">
      <g>
       <use xlink:href="#mdd314e9837" x="298.164619" y="384.48" style="stroke: #000000; stroke-width: 0.8"/>
      </g>
     </g>
     <g id="text_3">
      <!-- 200 -->
      <g transform="translate(288.620869 399.078438) scale(0.1 -0.1)">
       <defs>
        <path id="DejaVuSans-32" d="M 1228 531 
L 3431 531 
L 3431 0 
L 469 0 
L 469 531 
Q 828 903 1448 1529 
Q 2069 2156 2228 2338 
Q 2531 2678 2651 2914 
Q 2772 3150 2772 3378 
Q 2772 3750 2511 3984 
Q 2250 4219 1831 4219 
Q 1534 4219 1204 4116 
Q 875 4013 500 3803 
L 500 4441 
Q 881 4594 1212 4672 
Q 1544 4750 1819 4750 
Q 2544 4750 2975 4387 
Q 3406 4025 3406 3419 
Q 3406 3131 3298 2873 
Q 3191 2616 2906 2266 
Q 2828 2175 2409 1742 
Q 1991 1309 1228 531 
z
" transform="scale(0.015625)"/>
       </defs>
       <use xlink:href="#DejaVuSans-32"/>
       <use xlink:href="#DejaVuSans-30" transform="translate(63.623047 0)"/>
       <use xlink:href="#DejaVuSans-30" transform="translate(127.246094 0)"/>
      </g>
     </g>
    </g>
    <g id="xtick_4">
     <g id="line2d_4">
      <g>
       <use xlink:href="#mdd314e9837" x="389.565111" y="384.48" style="stroke: #000000; stroke-width: 0.8"/>
      </g>
     </g>
     <g id="text_4">
      <!-- 300 -->
      <g transform="translate(380.021361 399.078438) scale(0.1 -0.1)">
       <defs>
        <path id="DejaVuSans-33" d="M 2597 2516 
Q 3050 2419 3304 2112 
Q 3559 1806 3559 1356 
Q 3559 666 3084 287 
Q 2609 -91 1734 -91 
Q 1441 -91 1130 -33 
Q 819 25 488 141 
L 488 750 
Q 750 597 1062 519 
Q 1375 441 1716 441 
Q 2309 441 2620 675 
Q 2931 909 2931 1356 
Q 2931 1769 2642 2001 
Q 2353 2234 1838 2234 
L 1294 2234 
L 1294 2753 
L 1863 2753 
Q 2328 2753 2575 2939 
Q 2822 3125 2822 3475 
Q 2822 3834 2567 4026 
Q 2313 4219 1838 4219 
Q 1578 4219 1281 4162 
Q 984 4106 628 3988 
L 628 4550 
Q 988 4650 1302 4700 
Q 1616 4750 1894 4750 
Q 2613 4750 3031 4423 
Q 3450 4097 3450 3541 
Q 3450 3153 3228 2886 
Q 3006 2619 2597 2516 
z
" transform="scale(0.015625)"/>
       </defs>
       <use xlink:href="#DejaVuSans-33"/>
       <use xlink:href="#DejaVuSans-30" transform="translate(63.623047 0)"/>
       <use xlink:href="#DejaVuSans-30" transform="translate(127.246094 0)"/>
      </g>
     </g>
    </g>
    <g id="xtick_5">
     <g id="line2d_5">
      <g>
       <use xlink:href="#mdd314e9837" x="480.965602" y="384.48" style="stroke: #000000; stroke-width: 0.8"/>
      </g>
     </g>
     <g id="text_5">
      <!-- 400 -->
      <g transform="translate(471.421852 399.078438) scale(0.1 -0.1)">
       <defs>
        <path id="DejaVuSans-34" d="M 2419 4116 
L 825 1625 
L 2419 1625 
L 2419 4116 
z
M 2253 4666 
L 3047 4666 
L 3047 1625 
L 3713 1625 
L 3713 1100 
L 3047 1100 
L 3047 0 
L 2419 0 
L 2419 1100 
L 313 1100 
L 313 1709 
L 2253 4666 
z
" transform="scale(0.015625)"/>
       </defs>
       <use xlink:href="#DejaVuSans-34"/>
       <use xlink:href="#DejaVuSans-30" transform="translate(63.623047 0)"/>
       <use xlink:href="#DejaVuSans-30" transform="translate(127.246094 0)"/>
      </g>
     </g>
    </g>
    <g id="xtick_6">
     <g id="line2d_6">
      <g>
       <use xlink:href="#mdd314e9837" x="572.366093" y="384.48" style="stroke: #000000; stroke-width: 0.8"/>
      </g>
     </g>
     <g id="text_6">
      <!-- 500 -->
      <g transform="translate(562.822343 399.078438) scale(0.1 -0.1)">
       <defs>
        <path id="DejaVuSans-35" d="M 691 4666 
L 3169 4666 
L 3169 4134 
L 1269 4134 
L 1269 2991 
Q 1406 3038 1543 3061 
Q 1681 3084 1819 3084 
Q 2600 3084 3056 2656 
Q 3513 2228 3513 1497 
Q 3513 744 3044 326 
Q 2575 -91 1722 -91 
Q 1428 -91 1123 -41 
Q 819 9 494 109 
L 494 744 
Q 775 591 1075 516 
Q 1375 441 1709 441 
Q 2250 441 2565 725 
Q 2881 1009 2881 1497 
Q 2881 1984 2565 2268 
Q 2250 2553 1709 2553 
Q 1456 2553 1204 2497 
Q 953 2441 691 2322 
L 691 4666 
z
" transform="scale(0.015625)"/>
       </defs>
       <use xlink:href="#DejaVuSans-35"/>
       <use xlink:href="#DejaVuSans-30" transform="translate(63.623047 0)"/>
       <use xlink:href="#DejaVuSans-30" transform="translate(127.246094 0)"/>
      </g>
     </g>
    </g>
    <g id="text_7">
     <!-- Index -->
     <g transform="translate(355.233594 412.756563) scale(0.1 -0.1)">
      <defs>
       <path id="DejaVuSans-49" d="M 628 4666 
L 1259 4666 
L 1259 0 
L 628 0 
L 628 4666 
z
" transform="scale(0.015625)"/>
       <path id="DejaVuSans-6e" d="M 3513 2113 
L 3513 0 
L 2938 0 
L 2938 2094 
Q 2938 2591 2744 2837 
Q 2550 3084 2163 3084 
Q 1697 3084 1428 2787 
Q 1159 2491 1159 1978 
L 1159 0 
L 581 0 
L 581 3500 
L 1159 3500 
L 1159 2956 
Q 1366 3272 1645 3428 
Q 1925 3584 2291 3584 
Q 2894 3584 3203 3211 
Q 3513 2838 3513 2113 
z
" transform="scale(0.015625)"/>
       <path id="DejaVuSans-64" d="M 2906 2969 
L 2906 4863 
L 3481 4863 
L 3481 0 
L 2906 0 
L 2906 525 
Q 2725 213 2448 61 
Q 2172 -91 1784 -91 
Q 1150 -91 751 415 
Q 353 922 353 1747 
Q 353 2572 751 3078 
Q 1150 3584 1784 3584 
Q 2172 3584 2448 3432 
Q 2725 3281 2906 2969 
z
M 947 1747 
Q 947 1113 1208 752 
Q 1469 391 1925 391 
Q 2381 391 2643 752 
Q 2906 1113 2906 1747 
Q 2906 2381 2643 2742 
Q 2381 3103 1925 3103 
Q 1469 3103 1208 2742 
Q 947 2381 947 1747 
z
" transform="scale(0.015625)"/>
       <path id="DejaVuSans-65" d="M 3597 1894 
L 3597 1613 
L 953 1613 
Q 991 1019 1311 708 
Q 1631 397 2203 397 
Q 2534 397 2845 478 
Q 3156 559 3463 722 
L 3463 178 
Q 3153 47 2828 -22 
Q 2503 -91 2169 -91 
Q 1331 -91 842 396 
Q 353 884 353 1716 
Q 353 2575 817 3079 
Q 1281 3584 2069 3584 
Q 2775 3584 3186 3129 
Q 3597 2675 3597 1894 
z
M 3022 2063 
Q 3016 2534 2758 2815 
Q 2500 3097 2075 3097 
Q 1594 3097 1305 2825 
Q 1016 2553 972 2059 
L 3022 2063 
z
" transform="scale(0.015625)"/>
       <path id="DejaVuSans-78" d="M 3513 3500 
L 2247 1797 
L 3578 0 
L 2900 0 
L 1881 1375 
L 863 0 
L 184 0 
L 1544 1831 
L 300 3500 
L 978 3500 
L 1906 2253 
L 2834 3500 
L 3513 3500 
z
" transform="scale(0.015625)"/>
      </defs>
      <use xlink:href="#DejaVuSans-49"/>
      <use xlink:href="#DejaVuSans-6e" transform="translate(29.492188 0)"/>
      <use xlink:href="#DejaVuSans-64" transform="translate(92.871094 0)"/>
      <use xlink:href="#DejaVuSans-65" transform="translate(156.347656 0)"/>
      <use xlink:href="#DejaVuSans-78" transform="translate(216.121094 0)"/>
     </g>
    </g>
   </g>
   <g id="matplotlib.axis_2">
    <g id="ytick_1">
     <g id="line2d_7">
      <defs>
       <path id="m43a3709f30" d="M 0 0 
L -3.5 0 
" style="stroke: #000000; stroke-width: 0.8"/>
      </defs>
      <g>
       <use xlink:href="#m43a3709f30" x="90" y="384.48" style="stroke: #000000; stroke-width: 0.8"/>
      </g>
     </g>
     <g id="text_8">
      <!-- 0 -->
      <g transform="translate(76.6375 388.279219) scale(0.1 -0.1)">
       <use xlink:href="#DejaVuSans-30"/>
      </g>
     </g>
    </g>
    <g id="ytick_2">
     <g id="line2d_8">
      <g>
       <use xlink:href="#m43a3709f30" x="90" y="338.618293" style="stroke: #000000; stroke-width: 0.8"/>
      </g>
     </g>
     <g id="text_9">
      <!-- 100 -->
      <g transform="translate(63.9125 342.417512) scale(0.1 -0.1)">
       <use xlink:href="#DejaVuSans-31"/>
       <use xlink:href="#DejaVuSans-30" transform="translate(63.623047 0)"/>
       <use xlink:href="#DejaVuSans-30" transform="translate(127.246094 0)"/>
      </g>
     </g>
    </g>
    <g id="ytick_3">
     <g id="line2d_9">
      <g>
       <use xlink:href="#m43a3709f30" x="90" y="292.756586" style="stroke: #000000; stroke-width: 0.8"/>
      </g>
     </g>
     <g id="text_10">
      <!-- 200 -->
      <g transform="translate(63.9125 296.555805) scale(0.1 -0.1)">
       <use xlink:href="#DejaVuSans-32"/>
       <use xlink:href="#DejaVuSans-30" transform="translate(63.623047 0)"/>
       <use xlink:href="#DejaVuSans-30" transform="translate(127.246094 0)"/>
      </g>
     </g>
    </g>
    <g id="ytick_4">
     <g id="line2d_10">
      <g>
       <use xlink:href="#m43a3709f30" x="90" y="246.894879" style="stroke: #000000; stroke-width: 0.8"/>
      </g>
     </g>
     <g id="text_11">
      <!-- 300 -->
      <g transform="translate(63.9125 250.694098) scale(0.1 -0.1)">
       <use xlink:href="#DejaVuSans-33"/>
       <use xlink:href="#DejaVuSans-30" transform="translate(63.623047 0)"/>
       <use xlink:href="#DejaVuSans-30" transform="translate(127.246094 0)"/>
      </g>
     </g>
    </g>
    <g id="ytick_5">
     <g id="line2d_11">
      <g>
       <use xlink:href="#m43a3709f30" x="90" y="201.033172" style="stroke: #000000; stroke-width: 0.8"/>
      </g>
     </g>
     <g id="text_12">
      <!-- 400 -->
      <g transform="translate(63.9125 204.832391) scale(0.1 -0.1)">
       <use xlink:href="#DejaVuSans-34"/>
       <use xlink:href="#DejaVuSans-30" transform="translate(63.623047 0)"/>
       <use xlink:href="#DejaVuSans-30" transform="translate(127.246094 0)"/>
      </g>
     </g>
    </g>
    <g id="ytick_6">
     <g id="line2d_12">
      <g>
       <use xlink:href="#m43a3709f30" x="90" y="155.171465" style="stroke: #000000; stroke-width: 0.8"/>
      </g>
     </g>
     <g id="text_13">
      <!-- 500 -->
      <g transform="translate(63.9125 158.970684) scale(0.1 -0.1)">
       <use xlink:href="#DejaVuSans-35"/>
       <use xlink:href="#DejaVuSans-30" transform="translate(63.623047 0)"/>
       <use xlink:href="#DejaVuSans-30" transform="translate(127.246094 0)"/>
      </g>
     </g>
    </g>
    <g id="ytick_7">
     <g id="line2d_13">
      <g>
       <use xlink:href="#m43a3709f30" x="90" y="109.309758" style="stroke: #000000; stroke-width: 0.8"/>
      </g>
     </g>
     <g id="text_14">
      <!-- 600 -->
      <g transform="translate(63.9125 113.108977) scale(0.1 -0.1)">
       <defs>
        <path id="DejaVuSans-36" d="M 2113 2584 
Q 1688 2584 1439 2293 
Q 1191 2003 1191 1497 
Q 1191 994 1439 701 
Q 1688 409 2113 409 
Q 2538 409 2786 701 
Q 3034 994 3034 1497 
Q 3034 2003 2786 2293 
Q 2538 2584 2113 2584 
z
M 3366 4563 
L 3366 3988 
Q 3128 4100 2886 4159 
Q 2644 4219 2406 4219 
Q 1781 4219 1451 3797 
Q 1122 3375 1075 2522 
Q 1259 2794 1537 2939 
Q 1816 3084 2150 3084 
Q 2853 3084 3261 2657 
Q 3669 2231 3669 1497 
Q 3669 778 3244 343 
Q 2819 -91 2113 -91 
Q 1303 -91 875 529 
Q 447 1150 447 2328 
Q 447 3434 972 4092 
Q 1497 4750 2381 4750 
Q 2619 4750 2861 4703 
Q 3103 4656 3366 4563 
z
" transform="scale(0.015625)"/>
       </defs>
       <use xlink:href="#DejaVuSans-36"/>
       <use xlink:href="#DejaVuSans-30" transform="translate(63.623047 0)"/>
       <use xlink:href="#DejaVuSans-30" transform="translate(127.246094 0)"/>
      </g>
     </g>
    </g>
    <g id="ytick_8">
     <g id="line2d_14">
      <g>
       <use xlink:href="#m43a3709f30" x="90" y="63.448051" style="stroke: #000000; stroke-width: 0.8"/>
      </g>
     </g>
     <g id="text_15">
      <!-- 700 -->
      <g transform="translate(63.9125 67.24727) scale(0.1 -0.1)">
       <defs>
        <path id="DejaVuSans-37" d="M 525 4666 
L 3525 4666 
L 3525 4397 
L 1831 0 
L 1172 0 
L 2766 4134 
L 525 4134 
L 525 4666 
z
" transform="scale(0.015625)"/>
       </defs>
       <use xlink:href="#DejaVuSans-37"/>
       <use xlink:href="#DejaVuSans-30" transform="translate(63.623047 0)"/>
       <use xlink:href="#DejaVuSans-30" transform="translate(127.246094 0)"/>
      </g>
     </g>
    </g>
    <g id="text_16">
     <!-- Average time (ms) -->
     <g transform="translate(57.832812 264.543594) rotate(-90) scale(0.1 -0.1)">
      <defs>
       <path id="DejaVuSans-41" d="M 2188 4044 
L 1331 1722 
L 3047 1722 
L 2188 4044 
z
M 1831 4666 
L 2547 4666 
L 4325 0 
L 3669 0 
L 3244 1197 
L 1141 1197 
L 716 0 
L 50 0 
L 1831 4666 
z
" transform="scale(0.015625)"/>
       <path id="DejaVuSans-76" d="M 191 3500 
L 800 3500 
L 1894 563 
L 2988 3500 
L 3597 3500 
L 2284 0 
L 1503 0 
L 191 3500 
z
" transform="scale(0.015625)"/>
       <path id="DejaVuSans-72" d="M 2631 2963 
Q 2534 3019 2420 3045 
Q 2306 3072 2169 3072 
Q 1681 3072 1420 2755 
Q 1159 2438 1159 1844 
L 1159 0 
L 581 0 
L 581 3500 
L 1159 3500 
L 1159 2956 
Q 1341 3275 1631 3429 
Q 1922 3584 2338 3584 
Q 2397 3584 2469 3576 
Q 2541 3569 2628 3553 
L 2631 2963 
z
" transform="scale(0.015625)"/>
       <path id="DejaVuSans-61" d="M 2194 1759 
Q 1497 1759 1228 1600 
Q 959 1441 959 1056 
Q 959 750 1161 570 
Q 1363 391 1709 391 
Q 2188 391 2477 730 
Q 2766 1069 2766 1631 
L 2766 1759 
L 2194 1759 
z
M 3341 1997 
L 3341 0 
L 2766 0 
L 2766 531 
Q 2569 213 2275 61 
Q 1981 -91 1556 -91 
Q 1019 -91 701 211 
Q 384 513 384 1019 
Q 384 1609 779 1909 
Q 1175 2209 1959 2209 
L 2766 2209 
L 2766 2266 
Q 2766 2663 2505 2880 
Q 2244 3097 1772 3097 
Q 1472 3097 1187 3025 
Q 903 2953 641 2809 
L 641 3341 
Q 956 3463 1253 3523 
Q 1550 3584 1831 3584 
Q 2591 3584 2966 3190 
Q 3341 2797 3341 1997 
z
" transform="scale(0.015625)"/>
       <path id="DejaVuSans-67" d="M 2906 1791 
Q 2906 2416 2648 2759 
Q 2391 3103 1925 3103 
Q 1463 3103 1205 2759 
Q 947 2416 947 1791 
Q 947 1169 1205 825 
Q 1463 481 1925 481 
Q 2391 481 2648 825 
Q 2906 1169 2906 1791 
z
M 3481 434 
Q 3481 -459 3084 -895 
Q 2688 -1331 1869 -1331 
Q 1566 -1331 1297 -1286 
Q 1028 -1241 775 -1147 
L 775 -588 
Q 1028 -725 1275 -790 
Q 1522 -856 1778 -856 
Q 2344 -856 2625 -561 
Q 2906 -266 2906 331 
L 2906 616 
Q 2728 306 2450 153 
Q 2172 0 1784 0 
Q 1141 0 747 490 
Q 353 981 353 1791 
Q 353 2603 747 3093 
Q 1141 3584 1784 3584 
Q 2172 3584 2450 3431 
Q 2728 3278 2906 2969 
L 2906 3500 
L 3481 3500 
L 3481 434 
z
" transform="scale(0.015625)"/>
       <path id="DejaVuSans-20" transform="scale(0.015625)"/>
       <path id="DejaVuSans-74" d="M 1172 4494 
L 1172 3500 
L 2356 3500 
L 2356 3053 
L 1172 3053 
L 1172 1153 
Q 1172 725 1289 603 
Q 1406 481 1766 481 
L 2356 481 
L 2356 0 
L 1766 0 
Q 1100 0 847 248 
Q 594 497 594 1153 
L 594 3053 
L 172 3053 
L 172 3500 
L 594 3500 
L 594 4494 
L 1172 4494 
z
" transform="scale(0.015625)"/>
       <path id="DejaVuSans-69" d="M 603 3500 
L 1178 3500 
L 1178 0 
L 603 0 
L 603 3500 
z
M 603 4863 
L 1178 4863 
L 1178 4134 
L 603 4134 
L 603 4863 
z
" transform="scale(0.015625)"/>
       <path id="DejaVuSans-6d" d="M 3328 2828 
Q 3544 3216 3844 3400 
Q 4144 3584 4550 3584 
Q 5097 3584 5394 3201 
Q 5691 2819 5691 2113 
L 5691 0 
L 5113 0 
L 5113 2094 
Q 5113 2597 4934 2840 
Q 4756 3084 4391 3084 
Q 3944 3084 3684 2787 
Q 3425 2491 3425 1978 
L 3425 0 
L 2847 0 
L 2847 2094 
Q 2847 2600 2669 2842 
Q 2491 3084 2119 3084 
Q 1678 3084 1418 2786 
Q 1159 2488 1159 1978 
L 1159 0 
L 581 0 
L 581 3500 
L 1159 3500 
L 1159 2956 
Q 1356 3278 1631 3431 
Q 1906 3584 2284 3584 
Q 2666 3584 2933 3390 
Q 3200 3197 3328 2828 
z
" transform="scale(0.015625)"/>
       <path id="DejaVuSans-28" d="M 1984 4856 
Q 1566 4138 1362 3434 
Q 1159 2731 1159 2009 
Q 1159 1288 1364 580 
Q 1569 -128 1984 -844 
L 1484 -844 
Q 1016 -109 783 600 
Q 550 1309 550 2009 
Q 550 2706 781 3412 
Q 1013 4119 1484 4856 
L 1984 4856 
z
" transform="scale(0.015625)"/>
       <path id="DejaVuSans-73" d="M 2834 3397 
L 2834 2853 
Q 2591 2978 2328 3040 
Q 2066 3103 1784 3103 
Q 1356 3103 1142 2972 
Q 928 2841 928 2578 
Q 928 2378 1081 2264 
Q 1234 2150 1697 2047 
L 1894 2003 
Q 2506 1872 2764 1633 
Q 3022 1394 3022 966 
Q 3022 478 2636 193 
Q 2250 -91 1575 -91 
Q 1294 -91 989 -36 
Q 684 19 347 128 
L 347 722 
Q 666 556 975 473 
Q 1284 391 1588 391 
Q 1994 391 2212 530 
Q 2431 669 2431 922 
Q 2431 1156 2273 1281 
Q 2116 1406 1581 1522 
L 1381 1569 
Q 847 1681 609 1914 
Q 372 2147 372 2553 
Q 372 3047 722 3315 
Q 1072 3584 1716 3584 
Q 2034 3584 2315 3537 
Q 2597 3491 2834 3397 
z
" transform="scale(0.015625)"/>
       <path id="DejaVuSans-29" d="M 513 4856 
L 1013 4856 
Q 1481 4119 1714 3412 
Q 1947 2706 1947 2009 
Q 1947 1309 1714 600 
Q 1481 -109 1013 -844 
L 513 -844 
Q 928 -128 1133 580 
Q 1338 1288 1338 2009 
Q 1338 2731 1133 3434 
Q 928 4138 513 4856 
z
" transform="scale(0.015625)"/>
      </defs>
      <use xlink:href="#DejaVuSans-41"/>
      <use xlink:href="#DejaVuSans-76" transform="translate(62.533203 0)"/>
      <use xlink:href="#DejaVuSans-65" transform="translate(121.712891 0)"/>
      <use xlink:href="#DejaVuSans-72" transform="translate(183.236328 0)"/>
      <use xlink:href="#DejaVuSans-61" transform="translate(224.349609 0)"/>
      <use xlink:href="#DejaVuSans-67" transform="translate(285.628906 0)"/>
      <use xlink:href="#DejaVuSans-65" transform="translate(349.105469 0)"/>
      <use xlink:href="#DejaVuSans-20" transform="translate(410.628906 0)"/>
      <use xlink:href="#DejaVuSans-74" transform="translate(442.416016 0)"/>
      <use xlink:href="#DejaVuSans-69" transform="translate(481.625 0)"/>
      <use xlink:href="#DejaVuSans-6d" transform="translate(509.408203 0)"/>
      <use xlink:href="#DejaVuSans-65" transform="translate(606.820312 0)"/>
      <use xlink:href="#DejaVuSans-20" transform="translate(668.34375 0)"/>
      <use xlink:href="#DejaVuSans-28" transform="translate(700.130859 0)"/>
      <use xlink:href="#DejaVuSans-6d" transform="translate(739.144531 0)"/>
      <use xlink:href="#DejaVuSans-73" transform="translate(836.556641 0)"/>
      <use xlink:href="#DejaVuSans-29" transform="translate(888.65625 0)"/>
     </g>
    </g>
   </g>
   <g id="line2d_15">
    <path d="M 115.363636 383.810826 
L 116.277641 381.647748 
L 117.191646 381.502832 
L 118.105651 381.196068 
L 119.019656 381.992358 
L 119.933661 382.145224 
L 120.847666 382.595087 
L 121.761671 382.628953 
L 122.675676 383.252624 
L 123.589681 383.217693 
L 127.2457 383.621452 
L 128.159705 383.460352 
L 130.90172 383.659647 
L 132.72973 383.498391 
L 133.643735 383.602359 
L 137.299754 383.450958 
L 138.213759 383.208243 
L 139.127764 383.469451 
L 140.041769 383.398825 
L 141.869779 383.613257 
L 144.611794 383.54606 
L 145.525799 383.678647 
L 146.439803 383.578202 
L 147.353808 383.708479 
L 148.267813 383.648292 
L 149.181818 383.36487 
L 150.095823 383.687872 
L 153.751843 383.486156 
L 154.665848 382.586796 
L 155.579853 383.343115 
L 156.493857 383.592624 
L 158.321867 383.805945 
L 159.235872 383.120995 
L 160.149877 383.516776 
L 161.063882 383.695466 
L 161.977887 383.599809 
L 163.805897 383.658441 
L 164.719902 383.570016 
L 165.633907 382.500032 
L 166.547912 383.627786 
L 169.289926 383.589186 
L 170.203931 382.888746 
L 171.117936 383.448893 
L 172.031941 383.693161 
L 175.687961 383.603092 
L 176.601966 382.512844 
L 177.515971 383.590944 
L 179.34398 383.671081 
L 180.257985 383.437263 
L 181.17199 382.629668 
L 182.085995 383.30367 
L 183 383.475524 
L 183.914005 368.202104 
L 184.82801 382.738325 
L 185.742015 383.694192 
L 186.65602 383.459271 
L 187.570025 381.957885 
L 188.484029 382.409842 
L 189.398034 383.657703 
L 190.312039 383.3586 
L 191.226044 382.581808 
L 192.140049 382.9458 
L 193.054054 383.667782 
L 193.968059 383.229797 
L 194.882064 382.24596 
L 196.710074 383.719041 
L 197.624079 383.553467 
L 198.538084 382.7105 
L 199.452088 383.684171 
L 201.280098 383.635882 
L 202.194103 375.203529 
L 203.108108 383.593626 
L 204.936118 383.638601 
L 205.850123 382.591557 
L 206.764128 383.632216 
L 208.592138 383.652261 
L 209.506143 382.464968 
L 210.420147 383.713134 
L 211.334152 383.208245 
L 212.248157 383.63537 
L 213.162162 370.808185 
L 214.076167 383.088103 
L 215.904177 383.72809 
L 216.818182 382.856694 
L 217.732187 383.044225 
L 219.560197 383.735873 
L 220.474201 382.912939 
L 221.388206 382.767438 
L 222.302211 383.427463 
L 223.216216 383.355417 
L 224.130221 382.673776 
L 225.044226 382.991321 
L 225.958231 383.546583 
L 226.872236 383.772358 
L 227.786241 382.915755 
L 228.700246 383.737401 
L 230.528256 383.708479 
L 231.44226 377.221823 
L 232.356265 383.661317 
L 234.184275 383.730337 
L 235.09828 382.49725 
L 236.012285 383.656125 
L 237.840295 383.709612 
L 238.7543 382.946998 
L 239.668305 383.694889 
L 241.496314 383.716404 
L 242.410319 382.879123 
L 243.324324 382.966036 
L 244.238329 383.484867 
L 245.152334 383.754146 
L 246.066339 382.855315 
L 246.980344 383.006122 
L 247.894349 383.507021 
L 248.808354 383.790186 
L 249.722359 382.861602 
L 250.636364 383.060589 
L 252.464373 383.678895 
L 253.378378 382.621503 
L 256.120393 383.760723 
L 257.034398 381.71899 
L 257.948403 383.688451 
L 259.776413 383.688124 
L 260.690418 381.962413 
L 261.604423 383.683315 
L 262.518428 383.714529 
L 263.432432 383.517346 
L 264.346437 381.587972 
L 265.260442 383.441977 
L 266.174447 383.641752 
L 267.088452 383.649177 
L 268.002457 381.172713 
L 268.916462 383.654744 
L 270.744472 383.679079 
L 271.658477 382.874921 
L 272.572482 383.003908 
L 273.486486 383.544945 
L 274.400491 383.719374 
L 275.314496 382.784779 
L 276.228501 382.793758 
L 277.142506 383.305887 
L 278.056511 383.664715 
L 278.970516 382.813325 
L 279.884521 382.864351 
L 280.798526 383.475364 
L 281.712531 383.525754 
L 282.626536 382.622993 
L 283.540541 382.697838 
L 284.454545 383.504295 
L 285.36855 383.688095 
L 286.282555 381.857224 
L 287.19656 383.706354 
L 289.02457 383.665576 
L 289.938575 381.81041 
L 290.85258 383.332945 
L 291.766585 383.661931 
L 292.68059 383.649057 
L 293.594595 381.730847 
L 294.5086 383.488612 
L 295.422604 383.69593 
L 296.336609 383.676928 
L 297.250614 381.525354 
L 298.164619 383.680139 
L 299.992629 383.702782 
L 300.906634 382.77451 
L 301.820639 382.854561 
L 302.734644 383.448589 
L 303.648649 383.64291 
L 304.562654 382.634133 
L 305.476658 382.72673 
L 306.390663 383.44119 
L 307.304668 383.675693 
L 308.218673 382.615782 
L 310.960688 383.468282 
L 311.874693 382.772566 
L 312.788698 382.390566 
L 313.702703 383.442191 
L 314.616708 383.732751 
L 315.530713 381.880029 
L 316.444717 383.679471 
L 317.358722 383.600466 
L 318.272727 383.656943 
L 319.186732 381.475782 
L 320.100737 383.704421 
L 321.014742 383.453423 
L 321.928747 383.62311 
L 322.842752 381.507703 
L 323.756757 383.464284 
L 324.670762 383.62777 
L 325.584767 383.664184 
L 326.498771 381.889639 
L 327.412776 383.642451 
L 328.326781 383.53943 
L 329.240786 383.671753 
L 330.154791 382.573951 
L 331.068796 383.657809 
L 331.982801 383.737642 
L 332.896806 383.512644 
L 333.810811 382.770625 
L 334.724816 383.409153 
L 335.638821 383.717814 
L 336.552826 383.740388 
L 337.46683 382.828493 
L 338.380835 383.494173 
L 340.208845 383.69763 
L 341.12285 382.744004 
L 342.036855 383.723827 
L 343.864865 383.660735 
L 344.77887 382.723643 
L 345.692875 383.469476 
L 346.60688 383.681769 
L 347.520885 383.731784 
L 348.434889 382.826062 
L 349.348894 383.596528 
L 350.262899 383.55898 
L 351.176904 383.67134 
L 352.090909 382.385312 
L 353.004914 383.740209 
L 353.918919 383.708809 
L 354.832924 383.522358 
L 355.746929 382.63442 
L 356.660934 383.606403 
L 358.488943 383.760528 
L 359.402948 382.608837 
L 360.316953 383.648216 
L 361.230958 383.596895 
L 362.144963 383.658053 
L 363.058968 382.677847 
L 363.972973 383.636662 
L 365.800983 383.646542 
L 366.714988 382.346523 
L 367.628993 383.665268 
L 369.457002 383.649393 
L 370.371007 382.700014 
L 371.285012 383.598147 
L 372.199017 383.494717 
L 373.113022 383.601535 
L 374.027027 381.997703 
L 374.941032 383.624032 
L 376.769042 383.657301 
L 377.683047 382.558484 
L 378.597052 383.643289 
L 380.425061 383.555708 
L 381.339066 382.65746 
L 382.253071 383.526832 
L 383.167076 383.367115 
L 384.081081 383.504906 
L 384.995086 382.621316 
L 385.909091 383.611646 
L 387.737101 383.639227 
L 388.651106 349.154572 
L 389.565111 383.555178 
L 391.39312 383.573513 
L 392.307125 382.712338 
L 393.22113 383.439279 
L 394.135135 383.366125 
L 395.04914 383.588225 
L 395.963145 382.720177 
L 396.87715 383.516403 
L 397.791155 383.593298 
L 398.70516 383.536966 
L 399.619165 382.843083 
L 400.53317 383.545191 
L 401.447174 383.555685 
L 402.361179 383.43164 
L 403.275184 382.601553 
L 404.189189 383.538124 
L 406.017199 383.520938 
L 406.931204 382.6931 
L 407.845209 383.503649 
L 409.673219 383.549424 
L 410.587224 382.529615 
L 411.501229 383.530202 
L 412.415233 383.514627 
L 413.329238 383.206464 
L 414.243243 382.76692 
L 415.157248 383.326298 
L 416.071253 383.55424 
L 416.985258 383.398818 
L 417.899263 382.806626 
L 418.813268 383.126197 
L 420.641278 383.415541 
L 421.555283 382.650264 
L 422.469287 383.455699 
L 424.297297 383.548102 
L 425.211302 382.823438 
L 426.125307 383.298082 
L 427.039312 383.571118 
L 427.953317 383.55307 
L 428.867322 382.745088 
L 429.781327 383.534785 
L 431.609337 383.553598 
L 432.523342 382.377496 
L 433.437346 383.474385 
L 434.351351 383.227714 
L 435.265356 383.209326 
L 436.179361 382.756033 
L 437.093366 383.503507 
L 438.007371 383.363947 
L 438.921376 383.531859 
L 439.835381 382.641716 
L 440.749386 383.451906 
L 441.663391 383.294239 
L 442.577396 383.518598 
L 443.4914 382.622997 
L 444.405405 383.462473 
L 446.233415 383.472795 
L 447.14742 354.264893 
L 448.061425 383.423656 
L 448.97543 383.531513 
L 449.889435 383.491915 
L 450.80344 382.250246 
L 451.717445 383.497529 
L 453.545455 383.46118 
L 454.459459 382.631527 
L 455.373464 383.44652 
L 457.201474 383.555047 
L 458.115479 382.688747 
L 459.029484 383.204642 
L 459.943489 383.539105 
L 460.857494 383.202201 
L 461.771499 382.369095 
L 462.685504 383.372139 
L 464.513514 383.453913 
L 465.427518 382.283497 
L 466.341523 383.352941 
L 468.169533 383.402172 
L 469.083538 382.396363 
L 469.997543 383.312423 
L 470.911548 382.961312 
L 471.825553 383.312938 
L 472.739558 382.258251 
L 473.653563 383.402853 
L 474.567568 383.327701 
L 475.481572 383.495337 
L 476.395577 382.395919 
L 477.309582 383.45644 
L 479.137592 383.502588 
L 480.051597 382.5416 
L 480.965602 383.394296 
L 482.793612 383.389383 
L 483.707617 382.48764 
L 484.621622 383.393297 
L 486.449631 383.43783 
L 487.363636 382.67995 
L 488.277641 383.419208 
L 489.191646 383.465825 
L 490.105651 383.328245 
L 491.019656 382.217522 
L 491.933661 383.428243 
L 493.761671 383.367877 
L 494.675676 382.631976 
L 495.589681 383.409769 
L 497.41769 383.278294 
L 498.331695 382.4531 
L 499.2457 383.380323 
L 501.07371 383.336995 
L 501.987715 382.515177 
L 502.90172 383.315416 
L 503.815725 383.370573 
L 504.72973 382.868604 
L 505.643735 352.766262 
L 506.55774 383.352781 
L 507.471744 382.946123 
L 508.385749 383.447313 
L 509.299754 382.528388 
L 510.213759 383.368586 
L 511.127764 383.487705 
L 512.041769 383.436749 
L 512.955774 382.585607 
L 513.869779 383.271434 
L 514.783784 383.063686 
L 515.697789 383.41625 
L 516.611794 382.325643 
L 517.525799 383.242751 
L 518.439803 383.396322 
L 519.353808 383.35382 
L 520.267813 382.630214 
L 521.181818 383.405861 
L 522.095823 383.032973 
L 523.009828 383.380791 
L 523.923833 382.209534 
L 524.837838 383.374323 
L 525.751843 383.415777 
L 526.665848 383.230085 
L 527.579853 382.267969 
L 528.493857 383.442319 
L 530.321867 383.48057 
L 531.235872 382.361977 
L 532.149877 383.404427 
L 533.977887 383.418455 
L 534.891892 382.446929 
L 535.805897 383.309293 
L 537.633907 383.412938 
L 538.547912 382.647822 
L 539.461916 383.318265 
L 540.375921 383.412578 
L 541.289926 383.124885 
L 542.203931 382.536111 
L 543.117936 383.332162 
L 544.945946 383.429424 
L 545.859951 382.261173 
L 546.773956 383.407583 
L 548.601966 383.442272 
L 549.515971 382.549538 
L 550.429975 383.315889 
L 552.257985 383.24545 
L 553.17199 382.330336 
L 554.085995 383.367829 
L 555 383.311043 
L 555.914005 383.429415 
L 556.82801 382.27489 
L 557.742015 383.353984 
L 558.65602 383.381635 
L 559.570025 383.095757 
L 560.484029 382.137961 
L 561.398034 383.185396 
L 562.312039 383.375307 
L 563.226044 383.289127 
L 564.140049 353.208162 
L 565.054054 383.372321 
L 566.882064 383.370051 
L 567.796069 382.413018 
L 568.710074 383.251244 
L 570.538084 383.277334 
L 571.452088 382.441984 
L 572.366093 383.247084 
L 573.280098 383.322317 
L 574.194103 383.267804 
L 575.108108 382.438204 
L 576.022113 383.192381 
L 576.936118 383.107793 
L 577.850123 383.352331 
L 578.764128 382.343144 
L 579.678133 383.324561 
L 580.592138 383.370078 
L 581.506143 383.140225 
L 582.420147 382.35482 
L 583.334152 383.049499 
L 584.248157 383.244261 
L 585.162162 383.315456 
L 586.076167 382.542003 
L 586.990172 383.314668 
L 587.904177 383.396579 
L 588.818182 383.3296 
L 589.732187 382.456907 
L 590.646192 383.135063 
L 591.560197 383.139968 
L 592.474201 383.333267 
L 593.388206 382.368564 
L 594.302211 383.237425 
L 595.216216 382.928348 
L 596.130221 383.314123 
L 597.044226 382.492573 
L 597.958231 383.183572 
L 598.872236 383.396947 
L 599.786241 383.233409 
L 600.700246 382.475084 
L 601.614251 383.296412 
L 602.528256 383.14213 
L 603.44226 383.214515 
L 604.356265 382.307539 
L 605.27027 383.18384 
L 606.184275 383.321841 
L 607.09828 383.263603 
L 608.012285 382.401756 
L 608.92629 383.100633 
L 610.7543 383.216531 
L 611.668305 382.498307 
L 612.58231 383.311233 
L 613.496314 383.169721 
L 614.410319 383.251427 
L 615.324324 382.157109 
L 616.238329 383.238471 
L 617.152334 383.37164 
L 618.066339 383.226215 
L 618.980344 381.991482 
L 619.894349 383.271366 
L 621.722359 383.20685 
L 622.636364 67.648135 
L 622.636364 67.648135 
" clip-path="url(#pd81bfc6205)" style="fill: none; stroke: #1f77b4; stroke-width: 1.5; stroke-linecap: square"/>
   </g>
   <g id="patch_3">
    <path d="M 90 384.48 
L 90 51.84 
" style="fill: none; stroke: #000000; stroke-width: 0.8; stroke-linejoin: miter; stroke-linecap: square"/>
   </g>
   <g id="patch_4">
    <path d="M 648 384.48 
L 648 51.84 
" style="fill: none; stroke: #000000; stroke-width: 0.8; stroke-linejoin: miter; stroke-linecap: square"/>
   </g>
   <g id="patch_5">
    <path d="M 90 384.48 
L 648 384.48 
" style="fill: none; stroke: #000000; stroke-width: 0.8; stroke-linejoin: miter; stroke-linecap: square"/>
   </g>
   <g id="patch_6">
    <path d="M 90 51.84 
L 648 51.84 
" style="fill: none; stroke: #000000; stroke-width: 0.8; stroke-linejoin: miter; stroke-linecap: square"/>
   </g>
   <g id="text_17">
    <!-- Average time per index -->
    <g transform="translate(298.700625 45.84) scale(0.12 -0.12)">
     <defs>
      <path id="DejaVuSans-70" d="M 1159 525 
L 1159 -1331 
L 581 -1331 
L 581 3500 
L 1159 3500 
L 1159 2969 
Q 1341 3281 1617 3432 
Q 1894 3584 2278 3584 
Q 2916 3584 3314 3078 
Q 3713 2572 3713 1747 
Q 3713 922 3314 415 
Q 2916 -91 2278 -91 
Q 1894 -91 1617 61 
Q 1341 213 1159 525 
z
M 3116 1747 
Q 3116 2381 2855 2742 
Q 2594 3103 2138 3103 
Q 1681 3103 1420 2742 
Q 1159 2381 1159 1747 
Q 1159 1113 1420 752 
Q 1681 391 2138 391 
Q 2594 391 2855 752 
Q 3116 1113 3116 1747 
z
" transform="scale(0.015625)"/>
     </defs>
     <use xlink:href="#DejaVuSans-41"/>
     <use xlink:href="#DejaVuSans-76" transform="translate(62.533203 0)"/>
     <use xlink:href="#DejaVuSans-65" transform="translate(121.712891 0)"/>
     <use xlink:href="#DejaVuSans-72" transform="translate(183.236328 0)"/>
     <use xlink:href="#DejaVuSans-61" transform="translate(224.349609 0)"/>
     <use xlink:href="#DejaVuSans-67" transform="translate(285.628906 0)"/>
     <use xlink:href="#DejaVuSans-65" transform="translate(349.105469 0)"/>
     <use xlink:href="#DejaVuSans-20" transform="translate(410.628906 0)"/>
     <use xlink:href="#DejaVuSans-74" transform="translate(442.416016 0)"/>
     <use xlink:href="#DejaVuSans-69" transform="translate(481.625 0)"/>
     <use xlink:href="#DejaVuSans-6d" transform="translate(509.408203 0)"/>
     <use xlink:href="#DejaVuSans-65" transform="translate(606.820312 0)"/>
     <use xlink:href="#DejaVuSans-20" transform="translate(668.34375 0)"/>
     <use xlink:href="#DejaVuSans-70" transform="translate(700.130859 0)"/>
     <use xlink:href="#DejaVuSans-65" transform="translate(763.607422 0)"/>
     <use xlink:href="#DejaVuSans-72" transform="translate(825.130859 0)"/>
     <use xlink:href="#DejaVuSans-20" transform="translate(866.244141 0)"/>
     <use xlink:href="#DejaVuSans-69" transform="translate(898.03125 0)"/>
     <use xlink:href="#DejaVuSans-6e" transform="translate(925.814453 0)"/>
     <use xlink:href="#DejaVuSans-64" transform="translate(989.193359 0)"/>
     <use xlink:href="#DejaVuSans-65" transform="translate(1052.669922 0)"/>
     <use xlink:href="#DejaVuSans-78" transform="translate(1112.443359 0)"/>
    </g>
   </g>
   <g id="legend_1">
    <g id="patch_7">
     <path d="M 97 74.518125 
L 196.53125 74.518125 
Q 198.53125 74.518125 198.53125 72.518125 
L 198.53125 58.84 
Q 198.53125 56.84 196.53125 56.84 
L 97 56.84 
Q 95 56.84 95 58.84 
L 95 72.518125 
Q 95 74.518125 97 74.518125 
z
" style="fill: #ffffff; opacity: 0.8; stroke: #cccccc; stroke-linejoin: miter"/>
    </g>
    <g id="line2d_16">
     <path d="M 99 64.938438 
L 109 64.938438 
L 119 64.938438 
" style="fill: none; stroke: #1f77b4; stroke-width: 1.5; stroke-linecap: square"/>
    </g>
    <g id="text_18">
     <!-- nextFaultload -->
     <g transform="translate(127 68.438438) scale(0.1 -0.1)">
      <defs>
       <path id="DejaVuSans-46" d="M 628 4666 
L 3309 4666 
L 3309 4134 
L 1259 4134 
L 1259 2759 
L 3109 2759 
L 3109 2228 
L 1259 2228 
L 1259 0 
L 628 0 
L 628 4666 
z
" transform="scale(0.015625)"/>
       <path id="DejaVuSans-75" d="M 544 1381 
L 544 3500 
L 1119 3500 
L 1119 1403 
Q 1119 906 1312 657 
Q 1506 409 1894 409 
Q 2359 409 2629 706 
Q 2900 1003 2900 1516 
L 2900 3500 
L 3475 3500 
L 3475 0 
L 2900 0 
L 2900 538 
Q 2691 219 2414 64 
Q 2138 -91 1772 -91 
Q 1169 -91 856 284 
Q 544 659 544 1381 
z
M 1991 3584 
L 1991 3584 
z
" transform="scale(0.015625)"/>
       <path id="DejaVuSans-6c" d="M 603 4863 
L 1178 4863 
L 1178 0 
L 603 0 
L 603 4863 
z
" transform="scale(0.015625)"/>
       <path id="DejaVuSans-6f" d="M 1959 3097 
Q 1497 3097 1228 2736 
Q 959 2375 959 1747 
Q 959 1119 1226 758 
Q 1494 397 1959 397 
Q 2419 397 2687 759 
Q 2956 1122 2956 1747 
Q 2956 2369 2687 2733 
Q 2419 3097 1959 3097 
z
M 1959 3584 
Q 2709 3584 3137 3096 
Q 3566 2609 3566 1747 
Q 3566 888 3137 398 
Q 2709 -91 1959 -91 
Q 1206 -91 779 398 
Q 353 888 353 1747 
Q 353 2609 779 3096 
Q 1206 3584 1959 3584 
z
" transform="scale(0.015625)"/>
      </defs>
      <use xlink:href="#DejaVuSans-6e"/>
      <use xlink:href="#DejaVuSans-65" transform="translate(63.378906 0)"/>
      <use xlink:href="#DejaVuSans-78" transform="translate(123.152344 0)"/>
      <use xlink:href="#DejaVuSans-74" transform="translate(182.332031 0)"/>
      <use xlink:href="#DejaVuSans-46" transform="translate(221.541016 0)"/>
      <use xlink:href="#DejaVuSans-61" transform="translate(269.935547 0)"/>
      <use xlink:href="#DejaVuSans-75" transform="translate(331.214844 0)"/>
      <use xlink:href="#DejaVuSans-6c" transform="translate(394.59375 0)"/>
      <use xlink:href="#DejaVuSans-74" transform="translate(422.376953 0)"/>
      <use xlink:href="#DejaVuSans-6c" transform="translate(461.585938 0)"/>
      <use xlink:href="#DejaVuSans-6f" transform="translate(489.369141 0)"/>
      <use xlink:href="#DejaVuSans-61" transform="translate(550.550781 0)"/>
      <use xlink:href="#DejaVuSans-64" transform="translate(611.830078 0)"/>
     </g>
    </g>
   </g>
  </g>
 </g>
 <defs>
  <clipPath id="pd81bfc6205">
   <rect x="90" y="51.84" width="558" height="332.64"/>
  </clipPath>
 </defs>
</svg>
