<?xml version="1.0" encoding="utf-8" standalone="no"?>
<!DOCTYPE svg PUBLIC "-//W3C//DTD SVG 1.1//EN"
  "http://www.w3.org/Graphics/SVG/1.1/DTD/svg11.dtd">
<svg xmlns:xlink="http://www.w3.org/1999/xlink" width="720pt" height="432pt" viewBox="0 0 720 432" xmlns="http://www.w3.org/2000/svg" version="1.1">
 <metadata>
  <rdf:RDF xmlns:dc="http://purl.org/dc/elements/1.1/" xmlns:cc="http://creativecommons.org/ns#" xmlns:rdf="http://www.w3.org/1999/02/22-rdf-syntax-ns#">
   <cc:Work>
    <dc:type rdf:resource="http://purl.org/dc/dcmitype/StillImage"/>
    <dc:date>2025-06-08T23:57:30.547008</dc:date>
    <dc:format>image/svg+xml</dc:format>
    <dc:creator>
     <cc:Agent>
      <dc:title>Matplotlib v3.10.3, https://matplotlib.org/</dc:title>
     </cc:Agent>
    </dc:creator>
   </cc:Work>
  </rdf:RDF>
 </metadata>
 <defs>
  <style type="text/css">*{stroke-linejoin: round; stroke-linecap: butt}</style>
 </defs>
 <g id="figure_1">
  <g id="patch_1">
   <path d="M 0 432 
L 720 432 
L 720 0 
L 0 0 
z
" style="fill: #ffffff"/>
  </g>
  <g id="axes_1">
   <g id="patch_2">
    <path d="M 90 384.48 
L 648 384.48 
L 648 51.84 
L 90 51.84 
z
" style="fill: #ffffff"/>
   </g>
   <g id="matplotlib.axis_1">
    <g id="xtick_1">
     <g id="line2d_1">
      <defs>
       <path id="m577346d48c" d="M 0 0 
L 0 3.5 
" style="stroke: #000000; stroke-width: 0.8"/>
      </defs>
      <g>
       <use xlink:href="#m577346d48c" x="115.363636" y="384.48" style="stroke: #000000; stroke-width: 0.8"/>
      </g>
     </g>
     <g id="text_1">
      <!-- 0 -->
      <g transform="translate(112.182386 399.078438) scale(0.1 -0.1)">
       <defs>
        <path id="DejaVuSans-30" d="M 2034 4250 
Q 1547 4250 1301 3770 
Q 1056 3291 1056 2328 
Q 1056 1369 1301 889 
Q 1547 409 2034 409 
Q 2525 409 2770 889 
Q 3016 1369 3016 2328 
Q 3016 3291 2770 3770 
Q 2525 4250 2034 4250 
z
M 2034 4750 
Q 2819 4750 3233 4129 
Q 3647 3509 3647 2328 
Q 3647 1150 3233 529 
Q 2819 -91 2034 -91 
Q 1250 -91 836 529 
Q 422 1150 422 2328 
Q 422 3509 836 4129 
Q 1250 4750 2034 4750 
z
" transform="scale(0.015625)"/>
       </defs>
       <use xlink:href="#DejaVuSans-30"/>
      </g>
     </g>
    </g>
    <g id="xtick_2">
     <g id="line2d_2">
      <g>
       <use xlink:href="#m577346d48c" x="206.929111" y="384.48" style="stroke: #000000; stroke-width: 0.8"/>
      </g>
     </g>
     <g id="text_2">
      <!-- 100 -->
      <g transform="translate(197.385361 399.078438) scale(0.1 -0.1)">
       <defs>
        <path id="DejaVuSans-31" d="M 794 531 
L 1825 531 
L 1825 4091 
L 703 3866 
L 703 4441 
L 1819 4666 
L 2450 4666 
L 2450 531 
L 3481 531 
L 3481 0 
L 794 0 
L 794 531 
z
" transform="scale(0.015625)"/>
       </defs>
       <use xlink:href="#DejaVuSans-31"/>
       <use xlink:href="#DejaVuSans-30" transform="translate(63.623047 0)"/>
       <use xlink:href="#DejaVuSans-30" transform="translate(127.246094 0)"/>
      </g>
     </g>
    </g>
    <g id="xtick_3">
     <g id="line2d_3">
      <g>
       <use xlink:href="#m577346d48c" x="298.494585" y="384.48" style="stroke: #000000; stroke-width: 0.8"/>
      </g>
     </g>
     <g id="text_3">
      <!-- 200 -->
      <g transform="translate(288.950835 399.078438) scale(0.1 -0.1)">
       <defs>
        <path id="DejaVuSans-32" d="M 1228 531 
L 3431 531 
L 3431 0 
L 469 0 
L 469 531 
Q 828 903 1448 1529 
Q 2069 2156 2228 2338 
Q 2531 2678 2651 2914 
Q 2772 3150 2772 3378 
Q 2772 3750 2511 3984 
Q 2250 4219 1831 4219 
Q 1534 4219 1204 4116 
Q 875 4013 500 3803 
L 500 4441 
Q 881 4594 1212 4672 
Q 1544 4750 1819 4750 
Q 2544 4750 2975 4387 
Q 3406 4025 3406 3419 
Q 3406 3131 3298 2873 
Q 3191 2616 2906 2266 
Q 2828 2175 2409 1742 
Q 1991 1309 1228 531 
z
" transform="scale(0.015625)"/>
       </defs>
       <use xlink:href="#DejaVuSans-32"/>
       <use xlink:href="#DejaVuSans-30" transform="translate(63.623047 0)"/>
       <use xlink:href="#DejaVuSans-30" transform="translate(127.246094 0)"/>
      </g>
     </g>
    </g>
    <g id="xtick_4">
     <g id="line2d_4">
      <g>
       <use xlink:href="#m577346d48c" x="390.060059" y="384.48" style="stroke: #000000; stroke-width: 0.8"/>
      </g>
     </g>
     <g id="text_4">
      <!-- 300 -->
      <g transform="translate(380.516309 399.078438) scale(0.1 -0.1)">
       <defs>
        <path id="DejaVuSans-33" d="M 2597 2516 
Q 3050 2419 3304 2112 
Q 3559 1806 3559 1356 
Q 3559 666 3084 287 
Q 2609 -91 1734 -91 
Q 1441 -91 1130 -33 
Q 819 25 488 141 
L 488 750 
Q 750 597 1062 519 
Q 1375 441 1716 441 
Q 2309 441 2620 675 
Q 2931 909 2931 1356 
Q 2931 1769 2642 2001 
Q 2353 2234 1838 2234 
L 1294 2234 
L 1294 2753 
L 1863 2753 
Q 2328 2753 2575 2939 
Q 2822 3125 2822 3475 
Q 2822 3834 2567 4026 
Q 2313 4219 1838 4219 
Q 1578 4219 1281 4162 
Q 984 4106 628 3988 
L 628 4550 
Q 988 4650 1302 4700 
Q 1616 4750 1894 4750 
Q 2613 4750 3031 4423 
Q 3450 4097 3450 3541 
Q 3450 3153 3228 2886 
Q 3006 2619 2597 2516 
z
" transform="scale(0.015625)"/>
       </defs>
       <use xlink:href="#DejaVuSans-33"/>
       <use xlink:href="#DejaVuSans-30" transform="translate(63.623047 0)"/>
       <use xlink:href="#DejaVuSans-30" transform="translate(127.246094 0)"/>
      </g>
     </g>
    </g>
    <g id="xtick_5">
     <g id="line2d_5">
      <g>
       <use xlink:href="#m577346d48c" x="481.625533" y="384.48" style="stroke: #000000; stroke-width: 0.8"/>
      </g>
     </g>
     <g id="text_5">
      <!-- 400 -->
      <g transform="translate(472.081783 399.078438) scale(0.1 -0.1)">
       <defs>
        <path id="DejaVuSans-34" d="M 2419 4116 
L 825 1625 
L 2419 1625 
L 2419 4116 
z
M 2253 4666 
L 3047 4666 
L 3047 1625 
L 3713 1625 
L 3713 1100 
L 3047 1100 
L 3047 0 
L 2419 0 
L 2419 1100 
L 313 1100 
L 313 1709 
L 2253 4666 
z
" transform="scale(0.015625)"/>
       </defs>
       <use xlink:href="#DejaVuSans-34"/>
       <use xlink:href="#DejaVuSans-30" transform="translate(63.623047 0)"/>
       <use xlink:href="#DejaVuSans-30" transform="translate(127.246094 0)"/>
      </g>
     </g>
    </g>
    <g id="xtick_6">
     <g id="line2d_6">
      <g>
       <use xlink:href="#m577346d48c" x="573.191008" y="384.48" style="stroke: #000000; stroke-width: 0.8"/>
      </g>
     </g>
     <g id="text_6">
      <!-- 500 -->
      <g transform="translate(563.647258 399.078438) scale(0.1 -0.1)">
       <defs>
        <path id="DejaVuSans-35" d="M 691 4666 
L 3169 4666 
L 3169 4134 
L 1269 4134 
L 1269 2991 
Q 1406 3038 1543 3061 
Q 1681 3084 1819 3084 
Q 2600 3084 3056 2656 
Q 3513 2228 3513 1497 
Q 3513 744 3044 326 
Q 2575 -91 1722 -91 
Q 1428 -91 1123 -41 
Q 819 9 494 109 
L 494 744 
Q 775 591 1075 516 
Q 1375 441 1709 441 
Q 2250 441 2565 725 
Q 2881 1009 2881 1497 
Q 2881 1984 2565 2268 
Q 2250 2553 1709 2553 
Q 1456 2553 1204 2497 
Q 953 2441 691 2322 
L 691 4666 
z
" transform="scale(0.015625)"/>
       </defs>
       <use xlink:href="#DejaVuSans-35"/>
       <use xlink:href="#DejaVuSans-30" transform="translate(63.623047 0)"/>
       <use xlink:href="#DejaVuSans-30" transform="translate(127.246094 0)"/>
      </g>
     </g>
    </g>
    <g id="text_7">
     <!-- Index -->
     <g transform="translate(355.233594 412.756563) scale(0.1 -0.1)">
      <defs>
       <path id="DejaVuSans-49" d="M 628 4666 
L 1259 4666 
L 1259 0 
L 628 0 
L 628 4666 
z
" transform="scale(0.015625)"/>
       <path id="DejaVuSans-6e" d="M 3513 2113 
L 3513 0 
L 2938 0 
L 2938 2094 
Q 2938 2591 2744 2837 
Q 2550 3084 2163 3084 
Q 1697 3084 1428 2787 
Q 1159 2491 1159 1978 
L 1159 0 
L 581 0 
L 581 3500 
L 1159 3500 
L 1159 2956 
Q 1366 3272 1645 3428 
Q 1925 3584 2291 3584 
Q 2894 3584 3203 3211 
Q 3513 2838 3513 2113 
z
" transform="scale(0.015625)"/>
       <path id="DejaVuSans-64" d="M 2906 2969 
L 2906 4863 
L 3481 4863 
L 3481 0 
L 2906 0 
L 2906 525 
Q 2725 213 2448 61 
Q 2172 -91 1784 -91 
Q 1150 -91 751 415 
Q 353 922 353 1747 
Q 353 2572 751 3078 
Q 1150 3584 1784 3584 
Q 2172 3584 2448 3432 
Q 2725 3281 2906 2969 
z
M 947 1747 
Q 947 1113 1208 752 
Q 1469 391 1925 391 
Q 2381 391 2643 752 
Q 2906 1113 2906 1747 
Q 2906 2381 2643 2742 
Q 2381 3103 1925 3103 
Q 1469 3103 1208 2742 
Q 947 2381 947 1747 
z
" transform="scale(0.015625)"/>
       <path id="DejaVuSans-65" d="M 3597 1894 
L 3597 1613 
L 953 1613 
Q 991 1019 1311 708 
Q 1631 397 2203 397 
Q 2534 397 2845 478 
Q 3156 559 3463 722 
L 3463 178 
Q 3153 47 2828 -22 
Q 2503 -91 2169 -91 
Q 1331 -91 842 396 
Q 353 884 353 1716 
Q 353 2575 817 3079 
Q 1281 3584 2069 3584 
Q 2775 3584 3186 3129 
Q 3597 2675 3597 1894 
z
M 3022 2063 
Q 3016 2534 2758 2815 
Q 2500 3097 2075 3097 
Q 1594 3097 1305 2825 
Q 1016 2553 972 2059 
L 3022 2063 
z
" transform="scale(0.015625)"/>
       <path id="DejaVuSans-78" d="M 3513 3500 
L 2247 1797 
L 3578 0 
L 2900 0 
L 1881 1375 
L 863 0 
L 184 0 
L 1544 1831 
L 300 3500 
L 978 3500 
L 1906 2253 
L 2834 3500 
L 3513 3500 
z
" transform="scale(0.015625)"/>
      </defs>
      <use xlink:href="#DejaVuSans-49"/>
      <use xlink:href="#DejaVuSans-6e" transform="translate(29.492188 0)"/>
      <use xlink:href="#DejaVuSans-64" transform="translate(92.871094 0)"/>
      <use xlink:href="#DejaVuSans-65" transform="translate(156.347656 0)"/>
      <use xlink:href="#DejaVuSans-78" transform="translate(216.121094 0)"/>
     </g>
    </g>
   </g>
   <g id="matplotlib.axis_2">
    <g id="ytick_1">
     <g id="line2d_7">
      <defs>
       <path id="m8846196b08" d="M 0 0 
L -3.5 0 
" style="stroke: #000000; stroke-width: 0.8"/>
      </defs>
      <g>
       <use xlink:href="#m8846196b08" x="90" y="384.48" style="stroke: #000000; stroke-width: 0.8"/>
      </g>
     </g>
     <g id="text_8">
      <!-- 0 -->
      <g transform="translate(76.6375 388.279219) scale(0.1 -0.1)">
       <use xlink:href="#DejaVuSans-30"/>
      </g>
     </g>
    </g>
    <g id="ytick_2">
     <g id="line2d_8">
      <g>
       <use xlink:href="#m8846196b08" x="90" y="329.259278" style="stroke: #000000; stroke-width: 0.8"/>
      </g>
     </g>
     <g id="text_9">
      <!-- 10 -->
      <g transform="translate(70.275 333.058497) scale(0.1 -0.1)">
       <use xlink:href="#DejaVuSans-31"/>
       <use xlink:href="#DejaVuSans-30" transform="translate(63.623047 0)"/>
      </g>
     </g>
    </g>
    <g id="ytick_3">
     <g id="line2d_9">
      <g>
       <use xlink:href="#m8846196b08" x="90" y="274.038556" style="stroke: #000000; stroke-width: 0.8"/>
      </g>
     </g>
     <g id="text_10">
      <!-- 20 -->
      <g transform="translate(70.275 277.837774) scale(0.1 -0.1)">
       <use xlink:href="#DejaVuSans-32"/>
       <use xlink:href="#DejaVuSans-30" transform="translate(63.623047 0)"/>
      </g>
     </g>
    </g>
    <g id="ytick_4">
     <g id="line2d_10">
      <g>
       <use xlink:href="#m8846196b08" x="90" y="218.817833" style="stroke: #000000; stroke-width: 0.8"/>
      </g>
     </g>
     <g id="text_11">
      <!-- 30 -->
      <g transform="translate(70.275 222.617052) scale(0.1 -0.1)">
       <use xlink:href="#DejaVuSans-33"/>
       <use xlink:href="#DejaVuSans-30" transform="translate(63.623047 0)"/>
      </g>
     </g>
    </g>
    <g id="ytick_5">
     <g id="line2d_11">
      <g>
       <use xlink:href="#m8846196b08" x="90" y="163.597111" style="stroke: #000000; stroke-width: 0.8"/>
      </g>
     </g>
     <g id="text_12">
      <!-- 40 -->
      <g transform="translate(70.275 167.39633) scale(0.1 -0.1)">
       <use xlink:href="#DejaVuSans-34"/>
       <use xlink:href="#DejaVuSans-30" transform="translate(63.623047 0)"/>
      </g>
     </g>
    </g>
    <g id="ytick_6">
     <g id="line2d_12">
      <g>
       <use xlink:href="#m8846196b08" x="90" y="108.376389" style="stroke: #000000; stroke-width: 0.8"/>
      </g>
     </g>
     <g id="text_13">
      <!-- 50 -->
      <g transform="translate(70.275 112.175608) scale(0.1 -0.1)">
       <use xlink:href="#DejaVuSans-35"/>
       <use xlink:href="#DejaVuSans-30" transform="translate(63.623047 0)"/>
      </g>
     </g>
    </g>
    <g id="ytick_7">
     <g id="line2d_13">
      <g>
       <use xlink:href="#m8846196b08" x="90" y="53.155667" style="stroke: #000000; stroke-width: 0.8"/>
      </g>
     </g>
     <g id="text_14">
      <!-- 60 -->
      <g transform="translate(70.275 56.954885) scale(0.1 -0.1)">
       <defs>
        <path id="DejaVuSans-36" d="M 2113 2584 
Q 1688 2584 1439 2293 
Q 1191 2003 1191 1497 
Q 1191 994 1439 701 
Q 1688 409 2113 409 
Q 2538 409 2786 701 
Q 3034 994 3034 1497 
Q 3034 2003 2786 2293 
Q 2538 2584 2113 2584 
z
M 3366 4563 
L 3366 3988 
Q 3128 4100 2886 4159 
Q 2644 4219 2406 4219 
Q 1781 4219 1451 3797 
Q 1122 3375 1075 2522 
Q 1259 2794 1537 2939 
Q 1816 3084 2150 3084 
Q 2853 3084 3261 2657 
Q 3669 2231 3669 1497 
Q 3669 778 3244 343 
Q 2819 -91 2113 -91 
Q 1303 -91 875 529 
Q 447 1150 447 2328 
Q 447 3434 972 4092 
Q 1497 4750 2381 4750 
Q 2619 4750 2861 4703 
Q 3103 4656 3366 4563 
z
" transform="scale(0.015625)"/>
       </defs>
       <use xlink:href="#DejaVuSans-36"/>
       <use xlink:href="#DejaVuSans-30" transform="translate(63.623047 0)"/>
      </g>
     </g>
    </g>
    <g id="text_15">
     <!-- Average time (ms) -->
     <g transform="translate(64.195312 264.543594) rotate(-90) scale(0.1 -0.1)">
      <defs>
       <path id="DejaVuSans-41" d="M 2188 4044 
L 1331 1722 
L 3047 1722 
L 2188 4044 
z
M 1831 4666 
L 2547 4666 
L 4325 0 
L 3669 0 
L 3244 1197 
L 1141 1197 
L 716 0 
L 50 0 
L 1831 4666 
z
" transform="scale(0.015625)"/>
       <path id="DejaVuSans-76" d="M 191 3500 
L 800 3500 
L 1894 563 
L 2988 3500 
L 3597 3500 
L 2284 0 
L 1503 0 
L 191 3500 
z
" transform="scale(0.015625)"/>
       <path id="DejaVuSans-72" d="M 2631 2963 
Q 2534 3019 2420 3045 
Q 2306 3072 2169 3072 
Q 1681 3072 1420 2755 
Q 1159 2438 1159 1844 
L 1159 0 
L 581 0 
L 581 3500 
L 1159 3500 
L 1159 2956 
Q 1341 3275 1631 3429 
Q 1922 3584 2338 3584 
Q 2397 3584 2469 3576 
Q 2541 3569 2628 3553 
L 2631 2963 
z
" transform="scale(0.015625)"/>
       <path id="DejaVuSans-61" d="M 2194 1759 
Q 1497 1759 1228 1600 
Q 959 1441 959 1056 
Q 959 750 1161 570 
Q 1363 391 1709 391 
Q 2188 391 2477 730 
Q 2766 1069 2766 1631 
L 2766 1759 
L 2194 1759 
z
M 3341 1997 
L 3341 0 
L 2766 0 
L 2766 531 
Q 2569 213 2275 61 
Q 1981 -91 1556 -91 
Q 1019 -91 701 211 
Q 384 513 384 1019 
Q 384 1609 779 1909 
Q 1175 2209 1959 2209 
L 2766 2209 
L 2766 2266 
Q 2766 2663 2505 2880 
Q 2244 3097 1772 3097 
Q 1472 3097 1187 3025 
Q 903 2953 641 2809 
L 641 3341 
Q 956 3463 1253 3523 
Q 1550 3584 1831 3584 
Q 2591 3584 2966 3190 
Q 3341 2797 3341 1997 
z
" transform="scale(0.015625)"/>
       <path id="DejaVuSans-67" d="M 2906 1791 
Q 2906 2416 2648 2759 
Q 2391 3103 1925 3103 
Q 1463 3103 1205 2759 
Q 947 2416 947 1791 
Q 947 1169 1205 825 
Q 1463 481 1925 481 
Q 2391 481 2648 825 
Q 2906 1169 2906 1791 
z
M 3481 434 
Q 3481 -459 3084 -895 
Q 2688 -1331 1869 -1331 
Q 1566 -1331 1297 -1286 
Q 1028 -1241 775 -1147 
L 775 -588 
Q 1028 -725 1275 -790 
Q 1522 -856 1778 -856 
Q 2344 -856 2625 -561 
Q 2906 -266 2906 331 
L 2906 616 
Q 2728 306 2450 153 
Q 2172 0 1784 0 
Q 1141 0 747 490 
Q 353 981 353 1791 
Q 353 2603 747 3093 
Q 1141 3584 1784 3584 
Q 2172 3584 2450 3431 
Q 2728 3278 2906 2969 
L 2906 3500 
L 3481 3500 
L 3481 434 
z
" transform="scale(0.015625)"/>
       <path id="DejaVuSans-20" transform="scale(0.015625)"/>
       <path id="DejaVuSans-74" d="M 1172 4494 
L 1172 3500 
L 2356 3500 
L 2356 3053 
L 1172 3053 
L 1172 1153 
Q 1172 725 1289 603 
Q 1406 481 1766 481 
L 2356 481 
L 2356 0 
L 1766 0 
Q 1100 0 847 248 
Q 594 497 594 1153 
L 594 3053 
L 172 3053 
L 172 3500 
L 594 3500 
L 594 4494 
L 1172 4494 
z
" transform="scale(0.015625)"/>
       <path id="DejaVuSans-69" d="M 603 3500 
L 1178 3500 
L 1178 0 
L 603 0 
L 603 3500 
z
M 603 4863 
L 1178 4863 
L 1178 4134 
L 603 4134 
L 603 4863 
z
" transform="scale(0.015625)"/>
       <path id="DejaVuSans-6d" d="M 3328 2828 
Q 3544 3216 3844 3400 
Q 4144 3584 4550 3584 
Q 5097 3584 5394 3201 
Q 5691 2819 5691 2113 
L 5691 0 
L 5113 0 
L 5113 2094 
Q 5113 2597 4934 2840 
Q 4756 3084 4391 3084 
Q 3944 3084 3684 2787 
Q 3425 2491 3425 1978 
L 3425 0 
L 2847 0 
L 2847 2094 
Q 2847 2600 2669 2842 
Q 2491 3084 2119 3084 
Q 1678 3084 1418 2786 
Q 1159 2488 1159 1978 
L 1159 0 
L 581 0 
L 581 3500 
L 1159 3500 
L 1159 2956 
Q 1356 3278 1631 3431 
Q 1906 3584 2284 3584 
Q 2666 3584 2933 3390 
Q 3200 3197 3328 2828 
z
" transform="scale(0.015625)"/>
       <path id="DejaVuSans-28" d="M 1984 4856 
Q 1566 4138 1362 3434 
Q 1159 2731 1159 2009 
Q 1159 1288 1364 580 
Q 1569 -128 1984 -844 
L 1484 -844 
Q 1016 -109 783 600 
Q 550 1309 550 2009 
Q 550 2706 781 3412 
Q 1013 4119 1484 4856 
L 1984 4856 
z
" transform="scale(0.015625)"/>
       <path id="DejaVuSans-73" d="M 2834 3397 
L 2834 2853 
Q 2591 2978 2328 3040 
Q 2066 3103 1784 3103 
Q 1356 3103 1142 2972 
Q 928 2841 928 2578 
Q 928 2378 1081 2264 
Q 1234 2150 1697 2047 
L 1894 2003 
Q 2506 1872 2764 1633 
Q 3022 1394 3022 966 
Q 3022 478 2636 193 
Q 2250 -91 1575 -91 
Q 1294 -91 989 -36 
Q 684 19 347 128 
L 347 722 
Q 666 556 975 473 
Q 1284 391 1588 391 
Q 1994 391 2212 530 
Q 2431 669 2431 922 
Q 2431 1156 2273 1281 
Q 2116 1406 1581 1522 
L 1381 1569 
Q 847 1681 609 1914 
Q 372 2147 372 2553 
Q 372 3047 722 3315 
Q 1072 3584 1716 3584 
Q 2034 3584 2315 3537 
Q 2597 3491 2834 3397 
z
" transform="scale(0.015625)"/>
       <path id="DejaVuSans-29" d="M 513 4856 
L 1013 4856 
Q 1481 4119 1714 3412 
Q 1947 2706 1947 2009 
Q 1947 1309 1714 600 
Q 1481 -109 1013 -844 
L 513 -844 
Q 928 -128 1133 580 
Q 1338 1288 1338 2009 
Q 1338 2731 1133 3434 
Q 928 4138 513 4856 
z
" transform="scale(0.015625)"/>
      </defs>
      <use xlink:href="#DejaVuSans-41"/>
      <use xlink:href="#DejaVuSans-76" transform="translate(62.533203 0)"/>
      <use xlink:href="#DejaVuSans-65" transform="translate(121.712891 0)"/>
      <use xlink:href="#DejaVuSans-72" transform="translate(183.236328 0)"/>
      <use xlink:href="#DejaVuSans-61" transform="translate(224.349609 0)"/>
      <use xlink:href="#DejaVuSans-67" transform="translate(285.628906 0)"/>
      <use xlink:href="#DejaVuSans-65" transform="translate(349.105469 0)"/>
      <use xlink:href="#DejaVuSans-20" transform="translate(410.628906 0)"/>
      <use xlink:href="#DejaVuSans-74" transform="translate(442.416016 0)"/>
      <use xlink:href="#DejaVuSans-69" transform="translate(481.625 0)"/>
      <use xlink:href="#DejaVuSans-6d" transform="translate(509.408203 0)"/>
      <use xlink:href="#DejaVuSans-65" transform="translate(606.820312 0)"/>
      <use xlink:href="#DejaVuSans-20" transform="translate(668.34375 0)"/>
      <use xlink:href="#DejaVuSans-28" transform="translate(700.130859 0)"/>
      <use xlink:href="#DejaVuSans-6d" transform="translate(739.144531 0)"/>
      <use xlink:href="#DejaVuSans-73" transform="translate(836.556641 0)"/>
      <use xlink:href="#DejaVuSans-29" transform="translate(888.65625 0)"/>
     </g>
    </g>
   </g>
   <g id="line2d_14">
    <path d="M 115.363636 66.985028 
L 116.279291 247.218185 
L 117.194946 336.373823 
L 118.110601 342.02178 
L 119.026255 340.859909 
L 119.94191 341.752847 
L 120.857565 345.467202 
L 121.77322 350.941831 
L 122.688874 362.529858 
L 123.604529 360.43174 
L 124.520184 361.886858 
L 125.435839 362.571591 
L 126.351493 361.972066 
L 127.267148 356.486354 
L 128.182803 360.381619 
L 129.098457 363.445813 
L 130.014112 361.114364 
L 130.929767 361.633134 
L 131.845422 361.358984 
L 132.761076 362.865071 
L 133.676731 360.425189 
L 134.592386 358.907545 
L 135.508041 360.782543 
L 136.423695 356.11277 
L 137.33935 361.428188 
L 138.255005 357.209512 
L 139.17066 358.433915 
L 140.086314 358.842437 
L 141.001969 364.09537 
L 141.917624 362.460279 
L 142.833279 362.451192 
L 143.748933 363.134378 
L 144.664588 362.118271 
L 145.580243 357.619699 
L 146.495898 358.205165 
L 147.411552 361.648589 
L 148.327207 362.86693 
L 150.158517 361.681223 
L 151.074171 364.619475 
L 151.989826 364.131317 
L 152.905481 365.509588 
L 153.821136 362.542976 
L 154.73679 363.214053 
L 155.652445 363.115475 
L 156.5681 366.023576 
L 157.483755 364.223295 
L 158.399409 365.94271 
L 159.315064 364.712469 
L 160.230719 363.985947 
L 161.146373 363.982807 
L 162.062028 361.304847 
L 162.977683 363.016909 
L 163.893338 361.155811 
L 164.808992 361.45898 
L 165.724647 362.117699 
L 166.640302 363.726404 
L 167.555957 364.348089 
L 168.471611 360.149301 
L 169.387266 361.611568 
L 170.302921 363.409746 
L 171.218576 364.5259 
L 172.13423 363.139688 
L 173.049885 360.814717 
L 173.96554 363.116931 
L 174.881195 366.17015 
L 175.796849 363.034257 
L 176.712504 362.065296 
L 177.628159 362.056681 
L 178.543814 365.317543 
L 179.459468 364.679739 
L 180.375123 366.355927 
L 181.290778 362.163407 
L 182.206433 363.24676 
L 183.122087 364.136579 
L 184.953397 359.864826 
L 185.869052 364.021712 
L 186.784706 359.83334 
L 187.700361 362.467524 
L 188.616016 363.448955 
L 189.53167 365.172554 
L 190.447325 363.975778 
L 191.36298 363.987715 
L 192.278635 364.194928 
L 193.194289 357.09258 
L 194.109944 364.724692 
L 195.025599 365.346991 
L 195.941254 365.137643 
L 196.856908 365.582346 
L 197.772563 363.127307 
L 198.688218 363.721511 
L 199.603873 363.898147 
L 200.519527 362.495993 
L 201.435182 360.28106 
L 202.350837 361.837283 
L 204.182146 361.766666 
L 205.097801 361.657234 
L 206.013456 359.869344 
L 206.929111 359.619281 
L 207.844765 359.517603 
L 208.76042 361.648333 
L 209.676075 359.73235 
L 210.59173 362.991364 
L 211.507384 363.097335 
L 212.423039 359.984288 
L 213.338694 364.479861 
L 214.254349 361.876657 
L 215.170003 357.654902 
L 216.085658 359.819967 
L 217.001313 363.559963 
L 217.916968 364.820905 
L 218.832622 361.635398 
L 219.748277 363.627796 
L 220.663932 361.718282 
L 221.579586 363.109472 
L 222.495241 363.083946 
L 223.410896 367.044281 
L 224.326551 361.485119 
L 225.242205 364.363457 
L 226.15786 362.446659 
L 227.073515 363.654184 
L 227.98917 363.598975 
L 228.904824 364.050306 
L 229.820479 363.806284 
L 230.736134 363.823959 
L 231.651789 362.428125 
L 232.567443 363.404406 
L 233.483098 365.177021 
L 234.398753 363.20837 
L 235.314408 362.368809 
L 236.230062 361.964383 
L 237.145717 363.644599 
L 238.061372 366.815572 
L 238.977027 363.597723 
L 239.892681 364.498851 
L 240.808336 363.990646 
L 241.723991 363.245258 
L 242.639646 362.81887 
L 243.5553 363.515134 
L 244.470955 363.12278 
L 245.38661 365.566321 
L 246.302265 364.668394 
L 248.133574 364.996917 
L 249.049229 366.06245 
L 249.964883 364.77269 
L 250.880538 362.038247 
L 251.796193 363.193133 
L 252.711848 364.65511 
L 253.627502 363.86914 
L 254.543157 364.39221 
L 255.458812 362.616839 
L 256.374467 364.926626 
L 257.290121 363.709829 
L 258.205776 365.116801 
L 259.121431 363.474356 
L 260.037086 365.71617 
L 260.95274 361.88527 
L 261.868395 361.328147 
L 262.78405 364.136814 
L 263.699705 366.062567 
L 264.615359 361.929185 
L 265.531014 364.84976 
L 266.446669 363.924535 
L 267.362324 363.497883 
L 268.277978 364.225934 
L 269.193633 364.325361 
L 270.109288 363.580576 
L 271.024943 364.390808 
L 271.940597 366.187335 
L 272.856252 365.573866 
L 273.771907 366.489344 
L 274.687562 363.200272 
L 277.434526 363.815011 
L 278.350181 363.445272 
L 279.265835 361.467322 
L 280.18149 365.277235 
L 281.097145 365.497788 
L 282.012799 364.865495 
L 282.928454 361.917624 
L 283.844109 362.117312 
L 284.759764 364.683954 
L 285.675418 364.831984 
L 286.591073 364.419543 
L 287.506728 366.663399 
L 288.422383 365.695604 
L 289.338037 361.484852 
L 290.253692 363.107276 
L 291.169347 358.678213 
L 292.085002 365.696173 
L 293.000656 361.126501 
L 293.916311 364.043255 
L 294.831966 363.936025 
L 295.747621 365.99657 
L 296.663275 362.053538 
L 297.57893 361.713216 
L 298.494585 364.824264 
L 299.41024 364.890253 
L 300.325894 366.440206 
L 301.241549 366.627517 
L 302.157204 365.138909 
L 303.072859 366.945771 
L 303.988513 365.723715 
L 304.904168 362.723508 
L 305.819823 358.989816 
L 306.735478 365.394217 
L 307.651132 365.428395 
L 308.566787 366.104075 
L 309.482442 360.488762 
L 310.398096 364.159315 
L 311.313751 365.667104 
L 312.229406 366.141327 
L 313.145061 364.785179 
L 314.060715 366.094866 
L 314.97637 366.679807 
L 315.892025 364.607845 
L 316.80768 365.00181 
L 317.723334 366.203883 
L 318.638989 366.835923 
L 319.554644 366.062718 
L 320.470299 362.373425 
L 321.385953 365.334261 
L 322.301608 364.816634 
L 323.217263 364.063808 
L 324.132918 366.221329 
L 325.048572 365.519028 
L 325.964227 365.330525 
L 326.879882 366.899667 
L 327.795537 366.418412 
L 328.711191 363.931334 
L 329.626846 366.748568 
L 330.542501 364.123596 
L 331.458156 367.873382 
L 332.37381 366.839683 
L 333.289465 368.139828 
L 334.20512 364.989551 
L 335.120775 365.959375 
L 336.036429 367.500696 
L 336.952084 365.322251 
L 337.867739 365.14118 
L 338.783394 366.545852 
L 339.699048 363.856623 
L 340.614703 367.769902 
L 341.530358 367.097551 
L 342.446012 368.604257 
L 343.361667 364.220438 
L 344.277322 363.89177 
L 345.192977 364.247447 
L 346.108631 363.416066 
L 347.024286 366.477133 
L 347.939941 366.223405 
L 348.855596 364.558467 
L 349.77125 365.695751 
L 350.686905 365.528428 
L 351.60256 366.559222 
L 352.518215 365.494197 
L 353.433869 363.747165 
L 354.349524 365.356008 
L 355.265179 368.196862 
L 356.180834 366.413483 
L 357.096488 365.7199 
L 358.012143 366.181023 
L 358.927798 368.581846 
L 359.843453 368.315498 
L 361.674762 363.608932 
L 362.590417 364.470611 
L 363.506072 365.884574 
L 364.421726 364.861757 
L 365.337381 366.635529 
L 366.253036 366.103864 
L 367.168691 365.994442 
L 369 366.518928 
L 370.831309 365.896324 
L 371.746964 366.729219 
L 372.662619 363.737885 
L 373.578274 363.71873 
L 375.409583 367.023905 
L 376.325238 366.573888 
L 377.240893 367.080126 
L 379.072202 362.647015 
L 379.987857 366.661928 
L 380.903512 366.739833 
L 381.819166 363.094643 
L 382.734821 363.152816 
L 384.566131 366.967741 
L 385.481785 366.36077 
L 386.39744 364.928268 
L 387.313095 366.21001 
L 388.22875 365.418229 
L 389.144404 365.491255 
L 390.060059 366.318248 
L 390.975714 365.582589 
L 391.891369 366.838446 
L 392.807023 366.25193 
L 393.722678 367.65574 
L 394.638333 365.904182 
L 395.553988 366.420447 
L 396.469642 364.742619 
L 397.385297 365.713614 
L 398.300952 368.566456 
L 399.216606 366.407611 
L 400.132261 365.996037 
L 401.047916 367.28762 
L 401.963571 365.952971 
L 402.879225 368.693888 
L 403.79488 363.522218 
L 404.710535 368.63524 
L 405.62619 366.28327 
L 406.541844 367.535847 
L 407.457499 361.664092 
L 408.373154 359.871782 
L 409.288809 367.465098 
L 410.204463 367.324218 
L 411.120118 365.038143 
L 412.035773 366.970513 
L 412.951428 366.554747 
L 413.867082 367.285227 
L 414.782737 366.599403 
L 415.698392 367.277649 
L 416.614047 366.904564 
L 417.529701 368.679839 
L 418.445356 367.374562 
L 419.361011 367.690852 
L 420.276666 364.773826 
L 421.19232 366.16185 
L 422.107975 365.79359 
L 423.02363 364.326361 
L 423.939285 366.183288 
L 424.854939 366.372179 
L 425.770594 368.539155 
L 426.686249 366.050627 
L 427.601904 368.303885 
L 428.517558 367.433944 
L 429.433213 367.417521 
L 430.348868 368.182502 
L 431.264522 366.409352 
L 432.180177 367.731039 
L 433.095832 367.375746 
L 434.927141 366.15008 
L 435.842796 367.408788 
L 436.758451 366.625653 
L 437.674106 367.179424 
L 438.58976 366.160619 
L 439.505415 367.506619 
L 440.42107 365.882672 
L 441.336725 365.213325 
L 442.252379 365.52877 
L 443.168034 368.316302 
L 444.083689 367.021349 
L 444.999344 367.420326 
L 445.914998 365.952117 
L 446.830653 363.481674 
L 447.746308 364.954217 
L 448.661963 367.405868 
L 449.577617 364.80508 
L 450.493272 368.296026 
L 451.408927 367.167197 
L 452.324582 367.522388 
L 453.240236 365.979839 
L 454.155891 367.600031 
L 455.071546 366.38134 
L 455.987201 364.040236 
L 456.902855 366.667489 
L 457.81851 367.335917 
L 458.734165 367.416445 
L 459.649819 367.975929 
L 460.565474 366.832303 
L 461.481129 368.159914 
L 462.396784 367.377217 
L 463.312438 365.47545 
L 464.228093 366.674052 
L 465.143748 367.463245 
L 466.059403 364.718468 
L 466.975057 366.96394 
L 468.806367 367.111893 
L 469.722022 366.563902 
L 470.637676 367.129906 
L 471.553331 366.918605 
L 472.468986 368.123287 
L 473.384641 366.89417 
L 474.300295 367.447587 
L 475.21595 368.351084 
L 476.131605 368.359357 
L 477.04726 368.669464 
L 477.962914 369.426752 
L 478.878569 368.300808 
L 479.794224 368.61575 
L 480.709879 366.903889 
L 481.625533 367.645717 
L 482.541188 365.566586 
L 483.456843 367.768028 
L 484.372498 366.065336 
L 485.288152 367.456349 
L 486.203807 365.411466 
L 487.119462 368.964474 
L 488.035117 368.780942 
L 488.950771 367.10518 
L 489.866426 367.136517 
L 490.782081 365.445804 
L 491.697735 367.950625 
L 492.61339 367.602364 
L 493.529045 367.822708 
L 494.4447 367.799478 
L 495.360354 366.315831 
L 496.276009 366.440674 
L 497.191664 364.524415 
L 498.107319 366.595341 
L 499.022973 366.222405 
L 499.938628 367.478971 
L 500.854283 367.092563 
L 501.769938 366.219247 
L 502.685592 366.139816 
L 503.601247 365.76711 
L 504.516902 366.523249 
L 505.432557 368.274153 
L 506.348211 365.469728 
L 507.263866 364.840593 
L 508.179521 367.206187 
L 509.095176 368.386267 
L 510.01083 367.18616 
L 510.926485 366.656281 
L 511.84214 368.132121 
L 512.757795 367.352744 
L 513.673449 365.529448 
L 514.589104 366.124404 
L 515.504759 365.557828 
L 516.420414 367.559701 
L 517.336068 365.537276 
L 518.251723 365.814645 
L 519.167378 366.90982 
L 520.083032 367.390653 
L 520.998687 367.609167 
L 521.914342 364.77271 
L 522.829997 368.214182 
L 523.745651 366.630941 
L 524.661306 363.718936 
L 525.576961 368.483502 
L 526.492616 366.646071 
L 527.40827 367.093876 
L 528.323925 367.793122 
L 529.23958 367.908326 
L 530.155235 366.837456 
L 531.070889 368.387559 
L 531.986544 365.561154 
L 532.902199 368.391291 
L 533.817854 367.922475 
L 534.733508 367.225928 
L 535.649163 367.156707 
L 536.564818 368.187509 
L 537.480473 368.151495 
L 539.311782 369.013502 
L 540.227437 369.24605 
L 542.058746 367.618625 
L 542.974401 367.890928 
L 543.890056 367.231994 
L 544.805711 367.717395 
L 545.721365 368.589396 
L 546.63702 366.704807 
L 547.552675 369.18103 
L 548.46833 367.594338 
L 549.383984 368.40722 
L 551.215294 367.211114 
L 552.130948 367.823819 
L 553.046603 367.956996 
L 553.962258 368.331433 
L 554.877913 367.714439 
L 555.793567 367.63124 
L 557.624877 368.090929 
L 558.540532 367.844131 
L 560.371841 365.447449 
L 561.287496 367.109779 
L 562.203151 365.964403 
L 563.118805 366.591574 
L 564.03446 366.727339 
L 564.950115 366.634482 
L 565.86577 369.347101 
L 566.781424 367.711634 
L 567.697079 367.163053 
L 568.612734 367.101891 
L 569.528389 366.024292 
L 570.444043 366.222035 
L 571.359698 365.161954 
L 572.275353 367.268477 
L 573.191008 367.02679 
L 574.106662 364.72986 
L 575.022317 367.566303 
L 576.853627 365.778938 
L 577.769281 367.778118 
L 578.684936 369.063104 
L 579.600591 369.16442 
L 580.516245 368.056425 
L 581.4319 365.379541 
L 582.347555 365.782576 
L 583.26321 362.35404 
L 584.178864 364.858313 
L 585.094519 367.936685 
L 586.010174 367.729903 
L 586.925829 367.650289 
L 587.841483 367.284578 
L 588.757138 369.885582 
L 589.672793 368.728954 
L 590.588448 365.472158 
L 591.504102 366.299451 
L 592.419757 367.802837 
L 593.335412 367.946277 
L 594.251067 367.638374 
L 595.166721 366.524805 
L 596.082376 367.664685 
L 596.998031 367.661696 
L 600.66065 368.687813 
L 601.576305 366.950822 
L 602.491959 368.405068 
L 603.407614 368.257996 
L 604.323269 365.377742 
L 605.238924 365.655693 
L 606.154578 367.499199 
L 607.070233 367.590018 
L 607.985888 367.024094 
L 608.901543 367.346983 
L 609.817197 364.236979 
L 610.732852 365.601355 
L 611.648507 368.298721 
L 613.479816 369.505008 
L 614.395471 367.767992 
L 615.311126 368.683857 
L 616.22678 367.58218 
L 617.142435 368.594235 
L 618.05809 369.290422 
L 618.973745 369.254916 
L 619.889399 366.269759 
L 620.805054 367.482551 
L 621.720709 366.557397 
L 622.636364 367.669435 
L 622.636364 367.669435 
" clip-path="url(#p420dc3c239)" style="fill: none; stroke: #1f77b4; stroke-width: 1.5; stroke-linecap: square"/>
   </g>
   <g id="patch_3">
    <path d="M 90 384.48 
L 90 51.84 
" style="fill: none; stroke: #000000; stroke-width: 0.8; stroke-linejoin: miter; stroke-linecap: square"/>
   </g>
   <g id="patch_4">
    <path d="M 648 384.48 
L 648 51.84 
" style="fill: none; stroke: #000000; stroke-width: 0.8; stroke-linejoin: miter; stroke-linecap: square"/>
   </g>
   <g id="patch_5">
    <path d="M 90 384.48 
L 648 384.48 
" style="fill: none; stroke: #000000; stroke-width: 0.8; stroke-linejoin: miter; stroke-linecap: square"/>
   </g>
   <g id="patch_6">
    <path d="M 90 51.84 
L 648 51.84 
" style="fill: none; stroke: #000000; stroke-width: 0.8; stroke-linejoin: miter; stroke-linecap: square"/>
   </g>
   <g id="text_16">
    <!-- Average time per index -->
    <g transform="translate(298.700625 45.84) scale(0.12 -0.12)">
     <defs>
      <path id="DejaVuSans-70" d="M 1159 525 
L 1159 -1331 
L 581 -1331 
L 581 3500 
L 1159 3500 
L 1159 2969 
Q 1341 3281 1617 3432 
Q 1894 3584 2278 3584 
Q 2916 3584 3314 3078 
Q 3713 2572 3713 1747 
Q 3713 922 3314 415 
Q 2916 -91 2278 -91 
Q 1894 -91 1617 61 
Q 1341 213 1159 525 
z
M 3116 1747 
Q 3116 2381 2855 2742 
Q 2594 3103 2138 3103 
Q 1681 3103 1420 2742 
Q 1159 2381 1159 1747 
Q 1159 1113 1420 752 
Q 1681 391 2138 391 
Q 2594 391 2855 752 
Q 3116 1113 3116 1747 
z
" transform="scale(0.015625)"/>
     </defs>
     <use xlink:href="#DejaVuSans-41"/>
     <use xlink:href="#DejaVuSans-76" transform="translate(62.533203 0)"/>
     <use xlink:href="#DejaVuSans-65" transform="translate(121.712891 0)"/>
     <use xlink:href="#DejaVuSans-72" transform="translate(183.236328 0)"/>
     <use xlink:href="#DejaVuSans-61" transform="translate(224.349609 0)"/>
     <use xlink:href="#DejaVuSans-67" transform="translate(285.628906 0)"/>
     <use xlink:href="#DejaVuSans-65" transform="translate(349.105469 0)"/>
     <use xlink:href="#DejaVuSans-20" transform="translate(410.628906 0)"/>
     <use xlink:href="#DejaVuSans-74" transform="translate(442.416016 0)"/>
     <use xlink:href="#DejaVuSans-69" transform="translate(481.625 0)"/>
     <use xlink:href="#DejaVuSans-6d" transform="translate(509.408203 0)"/>
     <use xlink:href="#DejaVuSans-65" transform="translate(606.820312 0)"/>
     <use xlink:href="#DejaVuSans-20" transform="translate(668.34375 0)"/>
     <use xlink:href="#DejaVuSans-70" transform="translate(700.130859 0)"/>
     <use xlink:href="#DejaVuSans-65" transform="translate(763.607422 0)"/>
     <use xlink:href="#DejaVuSans-72" transform="translate(825.130859 0)"/>
     <use xlink:href="#DejaVuSans-20" transform="translate(866.244141 0)"/>
     <use xlink:href="#DejaVuSans-69" transform="translate(898.03125 0)"/>
     <use xlink:href="#DejaVuSans-6e" transform="translate(925.814453 0)"/>
     <use xlink:href="#DejaVuSans-64" transform="translate(989.193359 0)"/>
     <use xlink:href="#DejaVuSans-65" transform="translate(1052.669922 0)"/>
     <use xlink:href="#DejaVuSans-78" transform="translate(1112.443359 0)"/>
    </g>
   </g>
   <g id="legend_1">
    <g id="patch_7">
     <path d="M 525.064062 74.518125 
L 641 74.518125 
Q 643 74.518125 643 72.518125 
L 643 58.84 
Q 643 56.84 641 56.84 
L 525.064062 56.84 
Q 523.064062 56.84 523.064062 58.84 
L 523.064062 72.518125 
Q 523.064062 74.518125 525.064062 74.518125 
z
" style="fill: #ffffff; opacity: 0.8; stroke: #cccccc; stroke-linejoin: miter"/>
    </g>
    <g id="line2d_15">
     <path d="M 527.064062 64.938438 
L 537.064062 64.938438 
L 547.064062 64.938438 
" style="fill: none; stroke: #1f77b4; stroke-width: 1.5; stroke-linecap: square"/>
    </g>
    <g id="text_17">
     <!-- registerFaultload -->
     <g transform="translate(555.064062 68.438438) scale(0.1 -0.1)">
      <defs>
       <path id="DejaVuSans-46" d="M 628 4666 
L 3309 4666 
L 3309 4134 
L 1259 4134 
L 1259 2759 
L 3109 2759 
L 3109 2228 
L 1259 2228 
L 1259 0 
L 628 0 
L 628 4666 
z
" transform="scale(0.015625)"/>
       <path id="DejaVuSans-75" d="M 544 1381 
L 544 3500 
L 1119 3500 
L 1119 1403 
Q 1119 906 1312 657 
Q 1506 409 1894 409 
Q 2359 409 2629 706 
Q 2900 1003 2900 1516 
L 2900 3500 
L 3475 3500 
L 3475 0 
L 2900 0 
L 2900 538 
Q 2691 219 2414 64 
Q 2138 -91 1772 -91 
Q 1169 -91 856 284 
Q 544 659 544 1381 
z
M 1991 3584 
L 1991 3584 
z
" transform="scale(0.015625)"/>
       <path id="DejaVuSans-6c" d="M 603 4863 
L 1178 4863 
L 1178 0 
L 603 0 
L 603 4863 
z
" transform="scale(0.015625)"/>
       <path id="DejaVuSans-6f" d="M 1959 3097 
Q 1497 3097 1228 2736 
Q 959 2375 959 1747 
Q 959 1119 1226 758 
Q 1494 397 1959 397 
Q 2419 397 2687 759 
Q 2956 1122 2956 1747 
Q 2956 2369 2687 2733 
Q 2419 3097 1959 3097 
z
M 1959 3584 
Q 2709 3584 3137 3096 
Q 3566 2609 3566 1747 
Q 3566 888 3137 398 
Q 2709 -91 1959 -91 
Q 1206 -91 779 398 
Q 353 888 353 1747 
Q 353 2609 779 3096 
Q 1206 3584 1959 3584 
z
" transform="scale(0.015625)"/>
      </defs>
      <use xlink:href="#DejaVuSans-72"/>
      <use xlink:href="#DejaVuSans-65" transform="translate(38.863281 0)"/>
      <use xlink:href="#DejaVuSans-67" transform="translate(100.386719 0)"/>
      <use xlink:href="#DejaVuSans-69" transform="translate(163.863281 0)"/>
      <use xlink:href="#DejaVuSans-73" transform="translate(191.646484 0)"/>
      <use xlink:href="#DejaVuSans-74" transform="translate(243.746094 0)"/>
      <use xlink:href="#DejaVuSans-65" transform="translate(282.955078 0)"/>
      <use xlink:href="#DejaVuSans-72" transform="translate(344.478516 0)"/>
      <use xlink:href="#DejaVuSans-46" transform="translate(385.591797 0)"/>
      <use xlink:href="#DejaVuSans-61" transform="translate(433.986328 0)"/>
      <use xlink:href="#DejaVuSans-75" transform="translate(495.265625 0)"/>
      <use xlink:href="#DejaVuSans-6c" transform="translate(558.644531 0)"/>
      <use xlink:href="#DejaVuSans-74" transform="translate(586.427734 0)"/>
      <use xlink:href="#DejaVuSans-6c" transform="translate(625.636719 0)"/>
      <use xlink:href="#DejaVuSans-6f" transform="translate(653.419922 0)"/>
      <use xlink:href="#DejaVuSans-61" transform="translate(714.601562 0)"/>
      <use xlink:href="#DejaVuSans-64" transform="translate(775.880859 0)"/>
     </g>
    </g>
   </g>
  </g>
 </g>
 <defs>
  <clipPath id="p420dc3c239">
   <rect x="90" y="51.84" width="558" height="332.64"/>
  </clipPath>
 </defs>
</svg>
