<?xml version="1.0" encoding="utf-8" standalone="no"?>
<!DOCTYPE svg PUBLIC "-//W3C//DTD SVG 1.1//EN"
  "http://www.w3.org/Graphics/SVG/1.1/DTD/svg11.dtd">
<svg xmlns:xlink="http://www.w3.org/1999/xlink" width="576pt" height="432pt" viewBox="0 0 576 432" xmlns="http://www.w3.org/2000/svg" version="1.1">
 <metadata>
  <rdf:RDF xmlns:dc="http://purl.org/dc/elements/1.1/" xmlns:cc="http://creativecommons.org/ns#" xmlns:rdf="http://www.w3.org/1999/02/22-rdf-syntax-ns#">
   <cc:Work>
    <dc:type rdf:resource="http://purl.org/dc/dcmitype/StillImage"/>
    <dc:date>2025-06-10T01:38:22.399598</dc:date>
    <dc:format>image/svg+xml</dc:format>
    <dc:creator>
     <cc:Agent>
      <dc:title>Matplotlib v3.10.3, https://matplotlib.org/</dc:title>
     </cc:Agent>
    </dc:creator>
   </cc:Work>
  </rdf:RDF>
 </metadata>
 <defs>
  <style type="text/css">*{stroke-linejoin: round; stroke-linecap: butt}</style>
 </defs>
 <g id="figure_1">
  <g id="patch_1">
   <path d="M 0 432 
L 576 432 
L 576 0 
L 0 0 
z
" style="fill: #ffffff"/>
  </g>
  <g id="axes_1">
   <g id="patch_2">
    <path d="M 72 384.48 
L 518.4 384.48 
L 518.4 51.84 
L 72 51.84 
z
" style="fill: #ffffff"/>
   </g>
   <g id="FillBetweenPolyCollection_1">
    <path d="M 332.88816 375.872386 
L 257.51184 375.872386 
L 198.941031 372.755191 
L 183.6 369.637996 
L 215.528655 366.520802 
L 235.879003 363.403607 
L 238.146481 360.286412 
L 245.295139 357.169218 
L 263.688368 354.052023 
L 279.200472 350.934828 
L 286.885965 347.817634 
L 290.136556 344.700439 
L 291.468426 341.583244 
L 291.952676 338.46605 
L 292.547749 335.348855 
L 292.996585 332.23166 
L 293.373203 329.114466 
L 293.88377 325.997271 
L 294.292304 322.880076 
L 294.398586 319.762882 
L 294.489154 316.645687 
L 294.614801 313.528492 
L 294.754564 310.411298 
L 294.808796 307.294103 
L 294.762759 304.176908 
L 294.758278 301.059714 
L 294.803011 297.942519 
L 294.906659 294.825324 
L 294.966299 291.70813 
L 294.964406 288.590935 
L 294.944501 285.47374 
L 295.023934 282.356546 
L 295.141957 279.239351 
L 295.160464 276.122156 
L 295.163633 273.004962 
L 295.188903 269.887767 
L 295.187574 266.770572 
L 295.15909 263.653378 
L 295.143021 260.536183 
L 295.129836 257.418988 
L 295.093861 254.301794 
L 295.082929 251.184599 
L 295.127282 248.067404 
L 295.095941 244.95021 
L 295.086626 241.833015 
L 295.149841 238.71582 
L 295.136344 235.598626 
L 295.12176 232.481431 
L 295.15869 229.364236 
L 295.157931 226.247042 
L 295.163034 223.129847 
L 295.164718 220.012652 
L 295.159157 216.895458 
L 295.184466 213.778263 
L 295.198393 210.661068 
L 295.199955 207.543874 
L 295.2 204.426679 
L 295.2 201.309484 
L 295.2 198.19229 
L 295.2 195.075095 
L 295.2 191.9579 
L 295.2 188.840706 
L 295.2 185.723511 
L 295.2 182.606316 
L 295.2 179.489122 
L 295.2 176.371927 
L 295.2 173.254732 
L 295.2 170.137538 
L 295.2 167.020343 
L 295.2 163.903148 
L 295.2 160.785954 
L 295.2 157.668759 
L 295.2 154.551564 
L 295.2 151.43437 
L 295.2 148.317175 
L 295.2 145.19998 
L 295.2 142.082786 
L 295.2 138.965591 
L 295.2 135.848396 
L 295.199971 132.731202 
L 295.19856 129.614007 
L 295.179111 126.496812 
L 295.11031 123.379618 
L 295.08524 120.262423 
L 295.154926 117.145228 
L 295.176852 114.028034 
L 295.139812 110.910839 
L 295.130464 107.793644 
L 295.170716 104.67645 
L 295.195958 101.559255 
L 295.19901 98.44206 
L 295.189377 95.324866 
L 295.163196 92.207671 
L 295.163563 89.090476 
L 295.173035 85.973282 
L 295.157673 82.856087 
L 295.169233 79.738892 
L 295.166195 76.621698 
L 295.14545 73.504503 
L 295.125843 70.387308 
L 295.122814 67.270114 
L 295.277186 67.270114 
L 295.277186 67.270114 
L 295.274157 70.387308 
L 295.25455 73.504503 
L 295.233805 76.621698 
L 295.230767 79.738892 
L 295.242327 82.856087 
L 295.226965 85.973282 
L 295.236437 89.090476 
L 295.236804 92.207671 
L 295.210623 95.324866 
L 295.20099 98.44206 
L 295.204042 101.559255 
L 295.229284 104.67645 
L 295.269536 107.793644 
L 295.260188 110.910839 
L 295.223148 114.028034 
L 295.245074 117.145228 
L 295.31476 120.262423 
L 295.28969 123.379618 
L 295.220889 126.496812 
L 295.20144 129.614007 
L 295.200029 132.731202 
L 295.2 135.848396 
L 295.2 138.965591 
L 295.2 142.082786 
L 295.2 145.19998 
L 295.2 148.317175 
L 295.2 151.43437 
L 295.2 154.551564 
L 295.2 157.668759 
L 295.2 160.785954 
L 295.2 163.903148 
L 295.2 167.020343 
L 295.2 170.137538 
L 295.2 173.254732 
L 295.2 176.371927 
L 295.2 179.489122 
L 295.2 182.606316 
L 295.2 185.723511 
L 295.2 188.840706 
L 295.2 191.9579 
L 295.2 195.075095 
L 295.2 198.19229 
L 295.2 201.309484 
L 295.2 204.426679 
L 295.200045 207.543874 
L 295.201607 210.661068 
L 295.215534 213.778263 
L 295.240843 216.895458 
L 295.235282 220.012652 
L 295.236966 223.129847 
L 295.242069 226.247042 
L 295.24131 229.364236 
L 295.27824 232.481431 
L 295.263656 235.598626 
L 295.250159 238.71582 
L 295.313374 241.833015 
L 295.304059 244.95021 
L 295.272718 248.067404 
L 295.317071 251.184599 
L 295.306139 254.301794 
L 295.270164 257.418988 
L 295.256979 260.536183 
L 295.24091 263.653378 
L 295.212426 266.770572 
L 295.211097 269.887767 
L 295.236367 273.004962 
L 295.239536 276.122156 
L 295.258043 279.239351 
L 295.376066 282.356546 
L 295.455499 285.47374 
L 295.435594 288.590935 
L 295.433701 291.70813 
L 295.493341 294.825324 
L 295.596989 297.942519 
L 295.641722 301.059714 
L 295.637241 304.176908 
L 295.591204 307.294103 
L 295.645436 310.411298 
L 295.785199 313.528492 
L 295.910846 316.645687 
L 296.001414 319.762882 
L 296.107696 322.880076 
L 296.51623 325.997271 
L 297.026797 329.114466 
L 297.403415 332.23166 
L 297.852251 335.348855 
L 298.447324 338.46605 
L 298.931574 341.583244 
L 300.263444 344.700439 
L 303.514035 347.817634 
L 311.199528 350.934828 
L 326.711632 354.052023 
L 345.104861 357.169218 
L 352.253519 360.286412 
L 354.520997 363.403607 
L 374.871345 366.520802 
L 406.8 369.637996 
L 391.458969 372.755191 
L 332.88816 375.872386 
z
" clip-path="url(#p593f0b7cda)" style="fill: #1f77b4; fill-opacity: 0.3"/>
   </g>
   <g id="matplotlib.axis_1">
    <g id="xtick_1">
     <g id="line2d_1">
      <defs>
       <path id="m9230a4354d" d="M 0 0 
L 0 3.5 
" style="stroke: #000000; stroke-width: 0.8"/>
      </defs>
      <g>
       <use xlink:href="#m9230a4354d" x="295.2" y="384.48" style="stroke: #000000; stroke-width: 0.8"/>
      </g>
     </g>
     <g id="text_1">
      <!-- 1 -->
      <g transform="translate(292.01875 399.078438) scale(0.1 -0.1)">
       <defs>
        <path id="DejaVuSans-31" d="M 794 531 
L 1825 531 
L 1825 4091 
L 703 3866 
L 703 4441 
L 1819 4666 
L 2450 4666 
L 2450 531 
L 3481 531 
L 3481 0 
L 794 0 
L 794 531 
z
" transform="scale(0.015625)"/>
       </defs>
       <use xlink:href="#DejaVuSans-31"/>
      </g>
     </g>
    </g>
   </g>
   <g id="matplotlib.axis_2">
    <g id="ytick_1">
     <g id="line2d_2">
      <defs>
       <path id="mb9410e2099" d="M 0 0 
L -3.5 0 
" style="stroke: #000000; stroke-width: 0.8"/>
      </defs>
      <g>
       <use xlink:href="#mb9410e2099" x="72" y="384.48" style="stroke: #000000; stroke-width: 0.8"/>
      </g>
     </g>
     <g id="text_2">
      <!-- 0 -->
      <g transform="translate(58.6375 388.279219) scale(0.1 -0.1)">
       <defs>
        <path id="DejaVuSans-30" d="M 2034 4250 
Q 1547 4250 1301 3770 
Q 1056 3291 1056 2328 
Q 1056 1369 1301 889 
Q 1547 409 2034 409 
Q 2525 409 2770 889 
Q 3016 1369 3016 2328 
Q 3016 3291 2770 3770 
Q 2525 4250 2034 4250 
z
M 2034 4750 
Q 2819 4750 3233 4129 
Q 3647 3509 3647 2328 
Q 3647 1150 3233 529 
Q 2819 -91 2034 -91 
Q 1250 -91 836 529 
Q 422 1150 422 2328 
Q 422 3509 836 4129 
Q 1250 4750 2034 4750 
z
" transform="scale(0.015625)"/>
       </defs>
       <use xlink:href="#DejaVuSans-30"/>
      </g>
     </g>
    </g>
    <g id="ytick_2">
     <g id="line2d_3">
      <g>
       <use xlink:href="#mb9410e2099" x="72" y="335.878572" style="stroke: #000000; stroke-width: 0.8"/>
      </g>
     </g>
     <g id="text_3">
      <!-- 5 -->
      <g transform="translate(58.6375 339.677791) scale(0.1 -0.1)">
       <defs>
        <path id="DejaVuSans-35" d="M 691 4666 
L 3169 4666 
L 3169 4134 
L 1269 4134 
L 1269 2991 
Q 1406 3038 1543 3061 
Q 1681 3084 1819 3084 
Q 2600 3084 3056 2656 
Q 3513 2228 3513 1497 
Q 3513 744 3044 326 
Q 2575 -91 1722 -91 
Q 1428 -91 1123 -41 
Q 819 9 494 109 
L 494 744 
Q 775 591 1075 516 
Q 1375 441 1709 441 
Q 2250 441 2565 725 
Q 2881 1009 2881 1497 
Q 2881 1984 2565 2268 
Q 2250 2553 1709 2553 
Q 1456 2553 1204 2497 
Q 953 2441 691 2322 
L 691 4666 
z
" transform="scale(0.015625)"/>
       </defs>
       <use xlink:href="#DejaVuSans-35"/>
      </g>
     </g>
    </g>
    <g id="ytick_3">
     <g id="line2d_4">
      <g>
       <use xlink:href="#mb9410e2099" x="72" y="287.277144" style="stroke: #000000; stroke-width: 0.8"/>
      </g>
     </g>
     <g id="text_4">
      <!-- 10 -->
      <g transform="translate(52.275 291.076362) scale(0.1 -0.1)">
       <use xlink:href="#DejaVuSans-31"/>
       <use xlink:href="#DejaVuSans-30" transform="translate(63.623047 0)"/>
      </g>
     </g>
    </g>
    <g id="ytick_4">
     <g id="line2d_5">
      <g>
       <use xlink:href="#mb9410e2099" x="72" y="238.675716" style="stroke: #000000; stroke-width: 0.8"/>
      </g>
     </g>
     <g id="text_5">
      <!-- 15 -->
      <g transform="translate(52.275 242.474934) scale(0.1 -0.1)">
       <use xlink:href="#DejaVuSans-31"/>
       <use xlink:href="#DejaVuSans-35" transform="translate(63.623047 0)"/>
      </g>
     </g>
    </g>
    <g id="ytick_5">
     <g id="line2d_6">
      <g>
       <use xlink:href="#mb9410e2099" x="72" y="190.074287" style="stroke: #000000; stroke-width: 0.8"/>
      </g>
     </g>
     <g id="text_6">
      <!-- 20 -->
      <g transform="translate(52.275 193.873506) scale(0.1 -0.1)">
       <defs>
        <path id="DejaVuSans-32" d="M 1228 531 
L 3431 531 
L 3431 0 
L 469 0 
L 469 531 
Q 828 903 1448 1529 
Q 2069 2156 2228 2338 
Q 2531 2678 2651 2914 
Q 2772 3150 2772 3378 
Q 2772 3750 2511 3984 
Q 2250 4219 1831 4219 
Q 1534 4219 1204 4116 
Q 875 4013 500 3803 
L 500 4441 
Q 881 4594 1212 4672 
Q 1544 4750 1819 4750 
Q 2544 4750 2975 4387 
Q 3406 4025 3406 3419 
Q 3406 3131 3298 2873 
Q 3191 2616 2906 2266 
Q 2828 2175 2409 1742 
Q 1991 1309 1228 531 
z
" transform="scale(0.015625)"/>
       </defs>
       <use xlink:href="#DejaVuSans-32"/>
       <use xlink:href="#DejaVuSans-30" transform="translate(63.623047 0)"/>
      </g>
     </g>
    </g>
    <g id="ytick_6">
     <g id="line2d_7">
      <g>
       <use xlink:href="#mb9410e2099" x="72" y="141.472859" style="stroke: #000000; stroke-width: 0.8"/>
      </g>
     </g>
     <g id="text_7">
      <!-- 25 -->
      <g transform="translate(52.275 145.272078) scale(0.1 -0.1)">
       <use xlink:href="#DejaVuSans-32"/>
       <use xlink:href="#DejaVuSans-35" transform="translate(63.623047 0)"/>
      </g>
     </g>
    </g>
    <g id="ytick_7">
     <g id="line2d_8">
      <g>
       <use xlink:href="#mb9410e2099" x="72" y="92.871431" style="stroke: #000000; stroke-width: 0.8"/>
      </g>
     </g>
     <g id="text_8">
      <!-- 30 -->
      <g transform="translate(52.275 96.67065) scale(0.1 -0.1)">
       <defs>
        <path id="DejaVuSans-33" d="M 2597 2516 
Q 3050 2419 3304 2112 
Q 3559 1806 3559 1356 
Q 3559 666 3084 287 
Q 2609 -91 1734 -91 
Q 1441 -91 1130 -33 
Q 819 25 488 141 
L 488 750 
Q 750 597 1062 519 
Q 1375 441 1716 441 
Q 2309 441 2620 675 
Q 2931 909 2931 1356 
Q 2931 1769 2642 2001 
Q 2353 2234 1838 2234 
L 1294 2234 
L 1294 2753 
L 1863 2753 
Q 2328 2753 2575 2939 
Q 2822 3125 2822 3475 
Q 2822 3834 2567 4026 
Q 2313 4219 1838 4219 
Q 1578 4219 1281 4162 
Q 984 4106 628 3988 
L 628 4550 
Q 988 4650 1302 4700 
Q 1616 4750 1894 4750 
Q 2613 4750 3031 4423 
Q 3450 4097 3450 3541 
Q 3450 3153 3228 2886 
Q 3006 2619 2597 2516 
z
" transform="scale(0.015625)"/>
       </defs>
       <use xlink:href="#DejaVuSans-33"/>
       <use xlink:href="#DejaVuSans-30" transform="translate(63.623047 0)"/>
      </g>
     </g>
    </g>
    <g id="text_9">
     <!-- Time (ms) -->
     <g transform="translate(46.195312 243.359219) rotate(-90) scale(0.1 -0.1)">
      <defs>
       <path id="DejaVuSans-54" d="M -19 4666 
L 3928 4666 
L 3928 4134 
L 2272 4134 
L 2272 0 
L 1638 0 
L 1638 4134 
L -19 4134 
L -19 4666 
z
" transform="scale(0.015625)"/>
       <path id="DejaVuSans-69" d="M 603 3500 
L 1178 3500 
L 1178 0 
L 603 0 
L 603 3500 
z
M 603 4863 
L 1178 4863 
L 1178 4134 
L 603 4134 
L 603 4863 
z
" transform="scale(0.015625)"/>
       <path id="DejaVuSans-6d" d="M 3328 2828 
Q 3544 3216 3844 3400 
Q 4144 3584 4550 3584 
Q 5097 3584 5394 3201 
Q 5691 2819 5691 2113 
L 5691 0 
L 5113 0 
L 5113 2094 
Q 5113 2597 4934 2840 
Q 4756 3084 4391 3084 
Q 3944 3084 3684 2787 
Q 3425 2491 3425 1978 
L 3425 0 
L 2847 0 
L 2847 2094 
Q 2847 2600 2669 2842 
Q 2491 3084 2119 3084 
Q 1678 3084 1418 2786 
Q 1159 2488 1159 1978 
L 1159 0 
L 581 0 
L 581 3500 
L 1159 3500 
L 1159 2956 
Q 1356 3278 1631 3431 
Q 1906 3584 2284 3584 
Q 2666 3584 2933 3390 
Q 3200 3197 3328 2828 
z
" transform="scale(0.015625)"/>
       <path id="DejaVuSans-65" d="M 3597 1894 
L 3597 1613 
L 953 1613 
Q 991 1019 1311 708 
Q 1631 397 2203 397 
Q 2534 397 2845 478 
Q 3156 559 3463 722 
L 3463 178 
Q 3153 47 2828 -22 
Q 2503 -91 2169 -91 
Q 1331 -91 842 396 
Q 353 884 353 1716 
Q 353 2575 817 3079 
Q 1281 3584 2069 3584 
Q 2775 3584 3186 3129 
Q 3597 2675 3597 1894 
z
M 3022 2063 
Q 3016 2534 2758 2815 
Q 2500 3097 2075 3097 
Q 1594 3097 1305 2825 
Q 1016 2553 972 2059 
L 3022 2063 
z
" transform="scale(0.015625)"/>
       <path id="DejaVuSans-20" transform="scale(0.015625)"/>
       <path id="DejaVuSans-28" d="M 1984 4856 
Q 1566 4138 1362 3434 
Q 1159 2731 1159 2009 
Q 1159 1288 1364 580 
Q 1569 -128 1984 -844 
L 1484 -844 
Q 1016 -109 783 600 
Q 550 1309 550 2009 
Q 550 2706 781 3412 
Q 1013 4119 1484 4856 
L 1984 4856 
z
" transform="scale(0.015625)"/>
       <path id="DejaVuSans-73" d="M 2834 3397 
L 2834 2853 
Q 2591 2978 2328 3040 
Q 2066 3103 1784 3103 
Q 1356 3103 1142 2972 
Q 928 2841 928 2578 
Q 928 2378 1081 2264 
Q 1234 2150 1697 2047 
L 1894 2003 
Q 2506 1872 2764 1633 
Q 3022 1394 3022 966 
Q 3022 478 2636 193 
Q 2250 -91 1575 -91 
Q 1294 -91 989 -36 
Q 684 19 347 128 
L 347 722 
Q 666 556 975 473 
Q 1284 391 1588 391 
Q 1994 391 2212 530 
Q 2431 669 2431 922 
Q 2431 1156 2273 1281 
Q 2116 1406 1581 1522 
L 1381 1569 
Q 847 1681 609 1914 
Q 372 2147 372 2553 
Q 372 3047 722 3315 
Q 1072 3584 1716 3584 
Q 2034 3584 2315 3537 
Q 2597 3491 2834 3397 
z
" transform="scale(0.015625)"/>
       <path id="DejaVuSans-29" d="M 513 4856 
L 1013 4856 
Q 1481 4119 1714 3412 
Q 1947 2706 1947 2009 
Q 1947 1309 1714 600 
Q 1481 -109 1013 -844 
L 513 -844 
Q 928 -128 1133 580 
Q 1338 1288 1338 2009 
Q 1338 2731 1133 3434 
Q 928 4138 513 4856 
z
" transform="scale(0.015625)"/>
      </defs>
      <use xlink:href="#DejaVuSans-54"/>
      <use xlink:href="#DejaVuSans-69" transform="translate(57.958984 0)"/>
      <use xlink:href="#DejaVuSans-6d" transform="translate(85.742188 0)"/>
      <use xlink:href="#DejaVuSans-65" transform="translate(183.154297 0)"/>
      <use xlink:href="#DejaVuSans-20" transform="translate(244.677734 0)"/>
      <use xlink:href="#DejaVuSans-28" transform="translate(276.464844 0)"/>
      <use xlink:href="#DejaVuSans-6d" transform="translate(315.478516 0)"/>
      <use xlink:href="#DejaVuSans-73" transform="translate(412.890625 0)"/>
      <use xlink:href="#DejaVuSans-29" transform="translate(464.990234 0)"/>
     </g>
    </g>
   </g>
   <g id="LineCollection_1">
    <path d="M 239.4 363.486156 
L 351 363.486156 
" clip-path="url(#p593f0b7cda)" style="fill: none; stroke: #1f77b4; stroke-width: 1.5"/>
   </g>
   <g id="LineCollection_2">
    <path d="M 239.4 67.270114 
L 351 67.270114 
" clip-path="url(#p593f0b7cda)" style="fill: none; stroke: #1f77b4; stroke-width: 1.5"/>
   </g>
   <g id="LineCollection_3">
    <path d="M 239.4 375.872386 
L 351 375.872386 
" clip-path="url(#p593f0b7cda)" style="fill: none; stroke: #1f77b4; stroke-width: 1.5"/>
   </g>
   <g id="LineCollection_4">
    <path d="M 295.2 375.872386 
L 295.2 67.270114 
" clip-path="url(#p593f0b7cda)" style="fill: none; stroke: #1f77b4; stroke-width: 1.5"/>
   </g>
   <g id="patch_3">
    <path d="M 250.56 371.019596 
L 339.84 371.019596 
L 339.84 359.32716 
L 250.56 359.32716 
L 250.56 371.019596 
z
" clip-path="url(#p593f0b7cda)" style="fill: #1f77b4; stroke: #000000; stroke-linejoin: miter"/>
   </g>
   <g id="line2d_9">
    <path d="M 295.2 371.019596 
L 295.2 375.872386 
" clip-path="url(#p593f0b7cda)" style="fill: none; stroke: #000000; stroke-linecap: square"/>
   </g>
   <g id="line2d_10">
    <path d="M 295.2 359.32716 
L 295.2 342.003013 
" clip-path="url(#p593f0b7cda)" style="fill: none; stroke: #000000; stroke-linecap: square"/>
   </g>
   <g id="line2d_11">
    <path d="M 272.88 375.872386 
L 317.52 375.872386 
" clip-path="url(#p593f0b7cda)" style="fill: none; stroke: #000000; stroke-linecap: square"/>
   </g>
   <g id="line2d_12">
    <path d="M 272.88 342.003013 
L 317.52 342.003013 
" clip-path="url(#p593f0b7cda)" style="fill: none; stroke: #000000; stroke-linecap: square"/>
   </g>
   <g id="line2d_13">
    <defs>
     <path id="m1922cdcca9" d="M 0 3 
C 0.795609 3 1.55874 2.683901 2.12132 2.12132 
C 2.683901 1.55874 3 0.795609 3 0 
C 3 -0.795609 2.683901 -1.55874 2.12132 -2.12132 
C 1.55874 -2.683901 0.795609 -3 0 -3 
C -0.795609 -3 -1.55874 -2.683901 -2.12132 -2.12132 
C -2.683901 -1.55874 -3 -0.795609 -3 0 
C -3 0.795609 -2.683901 1.55874 -2.12132 2.12132 
C -1.55874 2.683901 -0.795609 3 0 3 
z
" style="stroke: #000000"/>
    </defs>
    <g clip-path="url(#p593f0b7cda)">
     <use xlink:href="#m1922cdcca9" x="295.2" y="120.413549" style="fill-opacity: 0; stroke: #000000"/>
     <use xlink:href="#m1922cdcca9" x="295.2" y="243.47219" style="fill-opacity: 0; stroke: #000000"/>
     <use xlink:href="#m1922cdcca9" x="295.2" y="299.592444" style="fill-opacity: 0; stroke: #000000"/>
     <use xlink:href="#m1922cdcca9" x="295.2" y="327.787202" style="fill-opacity: 0; stroke: #000000"/>
     <use xlink:href="#m1922cdcca9" x="295.2" y="292.536217" style="fill-opacity: 0; stroke: #000000"/>
     <use xlink:href="#m1922cdcca9" x="295.2" y="332.479359" style="fill-opacity: 0; stroke: #000000"/>
     <use xlink:href="#m1922cdcca9" x="295.2" y="336.502731" style="fill-opacity: 0; stroke: #000000"/>
     <use xlink:href="#m1922cdcca9" x="295.2" y="334.468207" style="fill-opacity: 0; stroke: #000000"/>
     <use xlink:href="#m1922cdcca9" x="295.2" y="338.574347" style="fill-opacity: 0; stroke: #000000"/>
     <use xlink:href="#m1922cdcca9" x="295.2" y="310.58948" style="fill-opacity: 0; stroke: #000000"/>
     <use xlink:href="#m1922cdcca9" x="295.2" y="323.599324" style="fill-opacity: 0; stroke: #000000"/>
     <use xlink:href="#m1922cdcca9" x="295.2" y="328.374054" style="fill-opacity: 0; stroke: #000000"/>
     <use xlink:href="#m1922cdcca9" x="295.2" y="318.078065" style="fill-opacity: 0; stroke: #000000"/>
     <use xlink:href="#m1922cdcca9" x="295.2" y="69.055584" style="fill-opacity: 0; stroke: #000000"/>
     <use xlink:href="#m1922cdcca9" x="295.2" y="232.790413" style="fill-opacity: 0; stroke: #000000"/>
     <use xlink:href="#m1922cdcca9" x="295.2" y="325.846148" style="fill-opacity: 0; stroke: #000000"/>
     <use xlink:href="#m1922cdcca9" x="295.2" y="286.973045" style="fill-opacity: 0; stroke: #000000"/>
     <use xlink:href="#m1922cdcca9" x="295.2" y="334.59597" style="fill-opacity: 0; stroke: #000000"/>
     <use xlink:href="#m1922cdcca9" x="295.2" y="339.210511" style="fill-opacity: 0; stroke: #000000"/>
     <use xlink:href="#m1922cdcca9" x="295.2" y="332.499159" style="fill-opacity: 0; stroke: #000000"/>
     <use xlink:href="#m1922cdcca9" x="295.2" y="309.775474" style="fill-opacity: 0; stroke: #000000"/>
     <use xlink:href="#m1922cdcca9" x="295.2" y="319.982464" style="fill-opacity: 0; stroke: #000000"/>
     <use xlink:href="#m1922cdcca9" x="295.2" y="338.409501" style="fill-opacity: 0; stroke: #000000"/>
     <use xlink:href="#m1922cdcca9" x="295.2" y="336.744688" style="fill-opacity: 0; stroke: #000000"/>
     <use xlink:href="#m1922cdcca9" x="295.2" y="328.585529" style="fill-opacity: 0; stroke: #000000"/>
     <use xlink:href="#m1922cdcca9" x="295.2" y="285.150394" style="fill-opacity: 0; stroke: #000000"/>
     <use xlink:href="#m1922cdcca9" x="295.2" y="331.070199" style="fill-opacity: 0; stroke: #000000"/>
     <use xlink:href="#m1922cdcca9" x="295.2" y="336.498376" style="fill-opacity: 0; stroke: #000000"/>
     <use xlink:href="#m1922cdcca9" x="295.2" y="336.876524" style="fill-opacity: 0; stroke: #000000"/>
     <use xlink:href="#m1922cdcca9" x="295.2" y="311.741324" style="fill-opacity: 0; stroke: #000000"/>
     <use xlink:href="#m1922cdcca9" x="295.2" y="338.439809" style="fill-opacity: 0; stroke: #000000"/>
     <use xlink:href="#m1922cdcca9" x="295.2" y="336.413003" style="fill-opacity: 0; stroke: #000000"/>
     <use xlink:href="#m1922cdcca9" x="295.2" y="304.885169" style="fill-opacity: 0; stroke: #000000"/>
     <use xlink:href="#m1922cdcca9" x="295.2" y="314.528314" style="fill-opacity: 0; stroke: #000000"/>
     <use xlink:href="#m1922cdcca9" x="295.2" y="82.477355" style="fill-opacity: 0; stroke: #000000"/>
     <use xlink:href="#m1922cdcca9" x="295.2" y="253.273067" style="fill-opacity: 0; stroke: #000000"/>
     <use xlink:href="#m1922cdcca9" x="295.2" y="326.580234" style="fill-opacity: 0; stroke: #000000"/>
     <use xlink:href="#m1922cdcca9" x="295.2" y="327.775888" style="fill-opacity: 0; stroke: #000000"/>
     <use xlink:href="#m1922cdcca9" x="295.2" y="334.133265" style="fill-opacity: 0; stroke: #000000"/>
     <use xlink:href="#m1922cdcca9" x="295.2" y="332.826791" style="fill-opacity: 0; stroke: #000000"/>
     <use xlink:href="#m1922cdcca9" x="295.2" y="338.423041" style="fill-opacity: 0; stroke: #000000"/>
     <use xlink:href="#m1922cdcca9" x="295.2" y="324.88105" style="fill-opacity: 0; stroke: #000000"/>
     <use xlink:href="#m1922cdcca9" x="295.2" y="340.216269" style="fill-opacity: 0; stroke: #000000"/>
     <use xlink:href="#m1922cdcca9" x="295.2" y="217.612479" style="fill-opacity: 0; stroke: #000000"/>
     <use xlink:href="#m1922cdcca9" x="295.2" y="325.638125" style="fill-opacity: 0; stroke: #000000"/>
     <use xlink:href="#m1922cdcca9" x="295.2" y="341.078623" style="fill-opacity: 0; stroke: #000000"/>
     <use xlink:href="#m1922cdcca9" x="295.2" y="338.058871" style="fill-opacity: 0; stroke: #000000"/>
     <use xlink:href="#m1922cdcca9" x="295.2" y="306.34222" style="fill-opacity: 0; stroke: #000000"/>
     <use xlink:href="#m1922cdcca9" x="295.2" y="322.434814" style="fill-opacity: 0; stroke: #000000"/>
     <use xlink:href="#m1922cdcca9" x="295.2" y="317.140933" style="fill-opacity: 0; stroke: #000000"/>
     <use xlink:href="#m1922cdcca9" x="295.2" y="339.746973" style="fill-opacity: 0; stroke: #000000"/>
     <use xlink:href="#m1922cdcca9" x="295.2" y="295.923804" style="fill-opacity: 0; stroke: #000000"/>
     <use xlink:href="#m1922cdcca9" x="295.2" y="341.577391" style="fill-opacity: 0; stroke: #000000"/>
     <use xlink:href="#m1922cdcca9" x="295.2" y="338.666019" style="fill-opacity: 0; stroke: #000000"/>
     <use xlink:href="#m1922cdcca9" x="295.2" y="339.114144" style="fill-opacity: 0; stroke: #000000"/>
     <use xlink:href="#m1922cdcca9" x="295.2" y="338.954731" style="fill-opacity: 0; stroke: #000000"/>
     <use xlink:href="#m1922cdcca9" x="295.2" y="284.909195" style="fill-opacity: 0; stroke: #000000"/>
     <use xlink:href="#m1922cdcca9" x="295.2" y="333.969916" style="fill-opacity: 0; stroke: #000000"/>
     <use xlink:href="#m1922cdcca9" x="295.2" y="335.277362" style="fill-opacity: 0; stroke: #000000"/>
     <use xlink:href="#m1922cdcca9" x="295.2" y="338.620334" style="fill-opacity: 0; stroke: #000000"/>
     <use xlink:href="#m1922cdcca9" x="295.2" y="107.533549" style="fill-opacity: 0; stroke: #000000"/>
     <use xlink:href="#m1922cdcca9" x="295.2" y="262.399433" style="fill-opacity: 0; stroke: #000000"/>
     <use xlink:href="#m1922cdcca9" x="295.2" y="330.769687" style="fill-opacity: 0; stroke: #000000"/>
     <use xlink:href="#m1922cdcca9" x="295.2" y="332.59817" style="fill-opacity: 0; stroke: #000000"/>
     <use xlink:href="#m1922cdcca9" x="295.2" y="330.654016" style="fill-opacity: 0; stroke: #000000"/>
     <use xlink:href="#m1922cdcca9" x="295.2" y="338.386901" style="fill-opacity: 0; stroke: #000000"/>
     <use xlink:href="#m1922cdcca9" x="295.2" y="327.727072" style="fill-opacity: 0; stroke: #000000"/>
     <use xlink:href="#m1922cdcca9" x="295.2" y="329.532227" style="fill-opacity: 0; stroke: #000000"/>
     <use xlink:href="#m1922cdcca9" x="295.2" y="320.89725" style="fill-opacity: 0; stroke: #000000"/>
     <use xlink:href="#m1922cdcca9" x="295.2" y="334.816465" style="fill-opacity: 0; stroke: #000000"/>
     <use xlink:href="#m1922cdcca9" x="295.2" y="330.606386" style="fill-opacity: 0; stroke: #000000"/>
     <use xlink:href="#m1922cdcca9" x="295.2" y="333.103664" style="fill-opacity: 0; stroke: #000000"/>
     <use xlink:href="#m1922cdcca9" x="295.2" y="337.424554" style="fill-opacity: 0; stroke: #000000"/>
     <use xlink:href="#m1922cdcca9" x="295.2" y="328.496967" style="fill-opacity: 0; stroke: #000000"/>
     <use xlink:href="#m1922cdcca9" x="295.2" y="335.522187" style="fill-opacity: 0; stroke: #000000"/>
     <use xlink:href="#m1922cdcca9" x="295.2" y="314.116038" style="fill-opacity: 0; stroke: #000000"/>
     <use xlink:href="#m1922cdcca9" x="295.2" y="333.216419" style="fill-opacity: 0; stroke: #000000"/>
     <use xlink:href="#m1922cdcca9" x="295.2" y="120.988426" style="fill-opacity: 0; stroke: #000000"/>
     <use xlink:href="#m1922cdcca9" x="295.2" y="234.057112" style="fill-opacity: 0; stroke: #000000"/>
     <use xlink:href="#m1922cdcca9" x="295.2" y="321.800157" style="fill-opacity: 0; stroke: #000000"/>
     <use xlink:href="#m1922cdcca9" x="295.2" y="331.000903" style="fill-opacity: 0; stroke: #000000"/>
     <use xlink:href="#m1922cdcca9" x="295.2" y="332.494027" style="fill-opacity: 0; stroke: #000000"/>
     <use xlink:href="#m1922cdcca9" x="295.2" y="338.896157" style="fill-opacity: 0; stroke: #000000"/>
     <use xlink:href="#m1922cdcca9" x="295.2" y="328.866212" style="fill-opacity: 0; stroke: #000000"/>
     <use xlink:href="#m1922cdcca9" x="295.2" y="313.40428" style="fill-opacity: 0; stroke: #000000"/>
     <use xlink:href="#m1922cdcca9" x="295.2" y="318.537563" style="fill-opacity: 0; stroke: #000000"/>
     <use xlink:href="#m1922cdcca9" x="295.2" y="315.602717" style="fill-opacity: 0; stroke: #000000"/>
     <use xlink:href="#m1922cdcca9" x="295.2" y="338.753959" style="fill-opacity: 0; stroke: #000000"/>
     <use xlink:href="#m1922cdcca9" x="295.2" y="331.913376" style="fill-opacity: 0; stroke: #000000"/>
     <use xlink:href="#m1922cdcca9" x="295.2" y="337.779928" style="fill-opacity: 0; stroke: #000000"/>
     <use xlink:href="#m1922cdcca9" x="295.2" y="338.381652" style="fill-opacity: 0; stroke: #000000"/>
     <use xlink:href="#m1922cdcca9" x="295.2" y="310.655753" style="fill-opacity: 0; stroke: #000000"/>
     <use xlink:href="#m1922cdcca9" x="295.2" y="334.650773" style="fill-opacity: 0; stroke: #000000"/>
     <use xlink:href="#m1922cdcca9" x="295.2" y="320.155971" style="fill-opacity: 0; stroke: #000000"/>
     <use xlink:href="#m1922cdcca9" x="295.2" y="331.698548" style="fill-opacity: 0; stroke: #000000"/>
     <use xlink:href="#m1922cdcca9" x="295.2" y="333.981007" style="fill-opacity: 0; stroke: #000000"/>
     <use xlink:href="#m1922cdcca9" x="295.2" y="335.020164" style="fill-opacity: 0; stroke: #000000"/>
     <use xlink:href="#m1922cdcca9" x="295.2" y="337.035305" style="fill-opacity: 0; stroke: #000000"/>
     <use xlink:href="#m1922cdcca9" x="295.2" y="331.369973" style="fill-opacity: 0; stroke: #000000"/>
     <use xlink:href="#m1922cdcca9" x="295.2" y="339.030997" style="fill-opacity: 0; stroke: #000000"/>
     <use xlink:href="#m1922cdcca9" x="295.2" y="333.973231" style="fill-opacity: 0; stroke: #000000"/>
     <use xlink:href="#m1922cdcca9" x="295.2" y="333.838138" style="fill-opacity: 0; stroke: #000000"/>
     <use xlink:href="#m1922cdcca9" x="295.2" y="290.761059" style="fill-opacity: 0; stroke: #000000"/>
     <use xlink:href="#m1922cdcca9" x="295.2" y="323.758562" style="fill-opacity: 0; stroke: #000000"/>
     <use xlink:href="#m1922cdcca9" x="295.2" y="339.094217" style="fill-opacity: 0; stroke: #000000"/>
     <use xlink:href="#m1922cdcca9" x="295.2" y="340.657327" style="fill-opacity: 0; stroke: #000000"/>
     <use xlink:href="#m1922cdcca9" x="295.2" y="336.742734" style="fill-opacity: 0; stroke: #000000"/>
     <use xlink:href="#m1922cdcca9" x="295.2" y="338.770512" style="fill-opacity: 0; stroke: #000000"/>
     <use xlink:href="#m1922cdcca9" x="295.2" y="329.360702" style="fill-opacity: 0; stroke: #000000"/>
     <use xlink:href="#m1922cdcca9" x="295.2" y="339.044634" style="fill-opacity: 0; stroke: #000000"/>
     <use xlink:href="#m1922cdcca9" x="295.2" y="67.270114" style="fill-opacity: 0; stroke: #000000"/>
     <use xlink:href="#m1922cdcca9" x="295.2" y="225.182462" style="fill-opacity: 0; stroke: #000000"/>
     <use xlink:href="#m1922cdcca9" x="295.2" y="326.156313" style="fill-opacity: 0; stroke: #000000"/>
     <use xlink:href="#m1922cdcca9" x="295.2" y="315.624996" style="fill-opacity: 0; stroke: #000000"/>
     <use xlink:href="#m1922cdcca9" x="295.2" y="333.922112" style="fill-opacity: 0; stroke: #000000"/>
     <use xlink:href="#m1922cdcca9" x="295.2" y="339.119723" style="fill-opacity: 0; stroke: #000000"/>
     <use xlink:href="#m1922cdcca9" x="295.2" y="340.706123" style="fill-opacity: 0; stroke: #000000"/>
     <use xlink:href="#m1922cdcca9" x="295.2" y="300.080762" style="fill-opacity: 0; stroke: #000000"/>
     <use xlink:href="#m1922cdcca9" x="295.2" y="338.855322" style="fill-opacity: 0; stroke: #000000"/>
     <use xlink:href="#m1922cdcca9" x="295.2" y="340.111795" style="fill-opacity: 0; stroke: #000000"/>
     <use xlink:href="#m1922cdcca9" x="295.2" y="340.935142" style="fill-opacity: 0; stroke: #000000"/>
     <use xlink:href="#m1922cdcca9" x="295.2" y="323.010168" style="fill-opacity: 0; stroke: #000000"/>
     <use xlink:href="#m1922cdcca9" x="295.2" y="331.695709" style="fill-opacity: 0; stroke: #000000"/>
     <use xlink:href="#m1922cdcca9" x="295.2" y="301.961113" style="fill-opacity: 0; stroke: #000000"/>
     <use xlink:href="#m1922cdcca9" x="295.2" y="328.146697" style="fill-opacity: 0; stroke: #000000"/>
     <use xlink:href="#m1922cdcca9" x="295.2" y="318.830386" style="fill-opacity: 0; stroke: #000000"/>
     <use xlink:href="#m1922cdcca9" x="295.2" y="333.487236" style="fill-opacity: 0; stroke: #000000"/>
     <use xlink:href="#m1922cdcca9" x="295.2" y="335.90574" style="fill-opacity: 0; stroke: #000000"/>
     <use xlink:href="#m1922cdcca9" x="295.2" y="302.812649" style="fill-opacity: 0; stroke: #000000"/>
     <use xlink:href="#m1922cdcca9" x="295.2" y="333.919808" style="fill-opacity: 0; stroke: #000000"/>
     <use xlink:href="#m1922cdcca9" x="295.2" y="341.493194" style="fill-opacity: 0; stroke: #000000"/>
     <use xlink:href="#m1922cdcca9" x="295.2" y="303.042465" style="fill-opacity: 0; stroke: #000000"/>
     <use xlink:href="#m1922cdcca9" x="295.2" y="74.252613" style="fill-opacity: 0; stroke: #000000"/>
     <use xlink:href="#m1922cdcca9" x="295.2" y="243.312904" style="fill-opacity: 0; stroke: #000000"/>
     <use xlink:href="#m1922cdcca9" x="295.2" y="330.461777" style="fill-opacity: 0; stroke: #000000"/>
     <use xlink:href="#m1922cdcca9" x="295.2" y="327.220927" style="fill-opacity: 0; stroke: #000000"/>
     <use xlink:href="#m1922cdcca9" x="295.2" y="332.764581" style="fill-opacity: 0; stroke: #000000"/>
     <use xlink:href="#m1922cdcca9" x="295.2" y="324.090908" style="fill-opacity: 0; stroke: #000000"/>
     <use xlink:href="#m1922cdcca9" x="295.2" y="341.462555" style="fill-opacity: 0; stroke: #000000"/>
     <use xlink:href="#m1922cdcca9" x="295.2" y="304.123866" style="fill-opacity: 0; stroke: #000000"/>
     <use xlink:href="#m1922cdcca9" x="295.2" y="340.142608" style="fill-opacity: 0; stroke: #000000"/>
     <use xlink:href="#m1922cdcca9" x="295.2" y="335.90922" style="fill-opacity: 0; stroke: #000000"/>
     <use xlink:href="#m1922cdcca9" x="295.2" y="338.381205" style="fill-opacity: 0; stroke: #000000"/>
     <use xlink:href="#m1922cdcca9" x="295.2" y="341.199262" style="fill-opacity: 0; stroke: #000000"/>
     <use xlink:href="#m1922cdcca9" x="295.2" y="257.483885" style="fill-opacity: 0; stroke: #000000"/>
     <use xlink:href="#m1922cdcca9" x="295.2" y="334.641578" style="fill-opacity: 0; stroke: #000000"/>
     <use xlink:href="#m1922cdcca9" x="295.2" y="297.417812" style="fill-opacity: 0; stroke: #000000"/>
     <use xlink:href="#m1922cdcca9" x="295.2" y="295.507582" style="fill-opacity: 0; stroke: #000000"/>
     <use xlink:href="#m1922cdcca9" x="295.2" y="329.340785" style="fill-opacity: 0; stroke: #000000"/>
     <use xlink:href="#m1922cdcca9" x="295.2" y="318.079251" style="fill-opacity: 0; stroke: #000000"/>
     <use xlink:href="#m1922cdcca9" x="295.2" y="292.923803" style="fill-opacity: 0; stroke: #000000"/>
     <use xlink:href="#m1922cdcca9" x="295.2" y="340.75695" style="fill-opacity: 0; stroke: #000000"/>
     <use xlink:href="#m1922cdcca9" x="295.2" y="90.815795" style="fill-opacity: 0; stroke: #000000"/>
     <use xlink:href="#m1922cdcca9" x="295.2" y="251.921199" style="fill-opacity: 0; stroke: #000000"/>
     <use xlink:href="#m1922cdcca9" x="295.2" y="331.176724" style="fill-opacity: 0; stroke: #000000"/>
     <use xlink:href="#m1922cdcca9" x="295.2" y="328.966331" style="fill-opacity: 0; stroke: #000000"/>
     <use xlink:href="#m1922cdcca9" x="295.2" y="330.853048" style="fill-opacity: 0; stroke: #000000"/>
     <use xlink:href="#m1922cdcca9" x="295.2" y="340.410052" style="fill-opacity: 0; stroke: #000000"/>
     <use xlink:href="#m1922cdcca9" x="295.2" y="334.511773" style="fill-opacity: 0; stroke: #000000"/>
     <use xlink:href="#m1922cdcca9" x="295.2" y="312.320303" style="fill-opacity: 0; stroke: #000000"/>
     <use xlink:href="#m1922cdcca9" x="295.2" y="338.594303" style="fill-opacity: 0; stroke: #000000"/>
     <use xlink:href="#m1922cdcca9" x="295.2" y="337.521232" style="fill-opacity: 0; stroke: #000000"/>
     <use xlink:href="#m1922cdcca9" x="295.2" y="296.985298" style="fill-opacity: 0; stroke: #000000"/>
     <use xlink:href="#m1922cdcca9" x="295.2" y="337.564439" style="fill-opacity: 0; stroke: #000000"/>
     <use xlink:href="#m1922cdcca9" x="295.2" y="333.039121" style="fill-opacity: 0; stroke: #000000"/>
     <use xlink:href="#m1922cdcca9" x="295.2" y="339.777369" style="fill-opacity: 0; stroke: #000000"/>
     <use xlink:href="#m1922cdcca9" x="295.2" y="326.583568" style="fill-opacity: 0; stroke: #000000"/>
     <use xlink:href="#m1922cdcca9" x="295.2" y="327.991172" style="fill-opacity: 0; stroke: #000000"/>
     <use xlink:href="#m1922cdcca9" x="295.2" y="328.332384" style="fill-opacity: 0; stroke: #000000"/>
     <use xlink:href="#m1922cdcca9" x="295.2" y="289.943117" style="fill-opacity: 0; stroke: #000000"/>
     <use xlink:href="#m1922cdcca9" x="295.2" y="338.109125" style="fill-opacity: 0; stroke: #000000"/>
     <use xlink:href="#m1922cdcca9" x="295.2" y="283.402881" style="fill-opacity: 0; stroke: #000000"/>
     <use xlink:href="#m1922cdcca9" x="295.2" y="338.852746" style="fill-opacity: 0; stroke: #000000"/>
     <use xlink:href="#m1922cdcca9" x="295.2" y="336.053226" style="fill-opacity: 0; stroke: #000000"/>
     <use xlink:href="#m1922cdcca9" x="295.2" y="298.926585" style="fill-opacity: 0; stroke: #000000"/>
     <use xlink:href="#m1922cdcca9" x="295.2" y="339.623584" style="fill-opacity: 0; stroke: #000000"/>
     <use xlink:href="#m1922cdcca9" x="295.2" y="338.537799" style="fill-opacity: 0; stroke: #000000"/>
     <use xlink:href="#m1922cdcca9" x="295.2" y="338.820659" style="fill-opacity: 0; stroke: #000000"/>
     <use xlink:href="#m1922cdcca9" x="295.2" y="326.650541" style="fill-opacity: 0; stroke: #000000"/>
     <use xlink:href="#m1922cdcca9" x="295.2" y="306.272409" style="fill-opacity: 0; stroke: #000000"/>
     <use xlink:href="#m1922cdcca9" x="295.2" y="338.372554" style="fill-opacity: 0; stroke: #000000"/>
     <use xlink:href="#m1922cdcca9" x="295.2" y="122.198135" style="fill-opacity: 0; stroke: #000000"/>
     <use xlink:href="#m1922cdcca9" x="295.2" y="250.637742" style="fill-opacity: 0; stroke: #000000"/>
     <use xlink:href="#m1922cdcca9" x="295.2" y="326.777284" style="fill-opacity: 0; stroke: #000000"/>
     <use xlink:href="#m1922cdcca9" x="295.2" y="297.743189" style="fill-opacity: 0; stroke: #000000"/>
     <use xlink:href="#m1922cdcca9" x="295.2" y="328.767075" style="fill-opacity: 0; stroke: #000000"/>
     <use xlink:href="#m1922cdcca9" x="295.2" y="333.728406" style="fill-opacity: 0; stroke: #000000"/>
     <use xlink:href="#m1922cdcca9" x="295.2" y="333.238484" style="fill-opacity: 0; stroke: #000000"/>
     <use xlink:href="#m1922cdcca9" x="295.2" y="341.631154" style="fill-opacity: 0; stroke: #000000"/>
     <use xlink:href="#m1922cdcca9" x="295.2" y="334.910412" style="fill-opacity: 0; stroke: #000000"/>
     <use xlink:href="#m1922cdcca9" x="295.2" y="322.333082" style="fill-opacity: 0; stroke: #000000"/>
     <use xlink:href="#m1922cdcca9" x="295.2" y="336.034981" style="fill-opacity: 0; stroke: #000000"/>
     <use xlink:href="#m1922cdcca9" x="295.2" y="320.837635" style="fill-opacity: 0; stroke: #000000"/>
     <use xlink:href="#m1922cdcca9" x="295.2" y="307.263665" style="fill-opacity: 0; stroke: #000000"/>
     <use xlink:href="#m1922cdcca9" x="295.2" y="313.313833" style="fill-opacity: 0; stroke: #000000"/>
     <use xlink:href="#m1922cdcca9" x="295.2" y="339.497483" style="fill-opacity: 0; stroke: #000000"/>
     <use xlink:href="#m1922cdcca9" x="295.2" y="302.035881" style="fill-opacity: 0; stroke: #000000"/>
     <use xlink:href="#m1922cdcca9" x="295.2" y="338.822876" style="fill-opacity: 0; stroke: #000000"/>
     <use xlink:href="#m1922cdcca9" x="295.2" y="339.921316" style="fill-opacity: 0; stroke: #000000"/>
     <use xlink:href="#m1922cdcca9" x="295.2" y="305.911524" style="fill-opacity: 0; stroke: #000000"/>
     <use xlink:href="#m1922cdcca9" x="295.2" y="339.262252" style="fill-opacity: 0; stroke: #000000"/>
     <use xlink:href="#m1922cdcca9" x="295.2" y="318.076977" style="fill-opacity: 0; stroke: #000000"/>
     <use xlink:href="#m1922cdcca9" x="295.2" y="332.61136" style="fill-opacity: 0; stroke: #000000"/>
     <use xlink:href="#m1922cdcca9" x="295.2" y="288.458032" style="fill-opacity: 0; stroke: #000000"/>
     <use xlink:href="#m1922cdcca9" x="295.2" y="327.35635" style="fill-opacity: 0; stroke: #000000"/>
     <use xlink:href="#m1922cdcca9" x="295.2" y="299.073021" style="fill-opacity: 0; stroke: #000000"/>
     <use xlink:href="#m1922cdcca9" x="295.2" y="329.124548" style="fill-opacity: 0; stroke: #000000"/>
     <use xlink:href="#m1922cdcca9" x="295.2" y="317.570531" style="fill-opacity: 0; stroke: #000000"/>
     <use xlink:href="#m1922cdcca9" x="295.2" y="110.250203" style="fill-opacity: 0; stroke: #000000"/>
     <use xlink:href="#m1922cdcca9" x="295.2" y="242.323962" style="fill-opacity: 0; stroke: #000000"/>
     <use xlink:href="#m1922cdcca9" x="295.2" y="329.774991" style="fill-opacity: 0; stroke: #000000"/>
     <use xlink:href="#m1922cdcca9" x="295.2" y="324.93215" style="fill-opacity: 0; stroke: #000000"/>
     <use xlink:href="#m1922cdcca9" x="295.2" y="330.235752" style="fill-opacity: 0; stroke: #000000"/>
     <use xlink:href="#m1922cdcca9" x="295.2" y="341.598241" style="fill-opacity: 0; stroke: #000000"/>
     <use xlink:href="#m1922cdcca9" x="295.2" y="341.661432" style="fill-opacity: 0; stroke: #000000"/>
     <use xlink:href="#m1922cdcca9" x="295.2" y="309.527811" style="fill-opacity: 0; stroke: #000000"/>
     <use xlink:href="#m1922cdcca9" x="295.2" y="320.290539" style="fill-opacity: 0; stroke: #000000"/>
     <use xlink:href="#m1922cdcca9" x="295.2" y="319.173629" style="fill-opacity: 0; stroke: #000000"/>
     <use xlink:href="#m1922cdcca9" x="295.2" y="274.472009" style="fill-opacity: 0; stroke: #000000"/>
     <use xlink:href="#m1922cdcca9" x="295.2" y="330.877242" style="fill-opacity: 0; stroke: #000000"/>
     <use xlink:href="#m1922cdcca9" x="295.2" y="315.537037" style="fill-opacity: 0; stroke: #000000"/>
     <use xlink:href="#m1922cdcca9" x="295.2" y="327.735519" style="fill-opacity: 0; stroke: #000000"/>
     <use xlink:href="#m1922cdcca9" x="295.2" y="325.827349" style="fill-opacity: 0; stroke: #000000"/>
     <use xlink:href="#m1922cdcca9" x="295.2" y="339.876623" style="fill-opacity: 0; stroke: #000000"/>
     <use xlink:href="#m1922cdcca9" x="295.2" y="312.971698" style="fill-opacity: 0; stroke: #000000"/>
     <use xlink:href="#m1922cdcca9" x="295.2" y="315.136503" style="fill-opacity: 0; stroke: #000000"/>
     <use xlink:href="#m1922cdcca9" x="295.2" y="282.439027" style="fill-opacity: 0; stroke: #000000"/>
     <use xlink:href="#m1922cdcca9" x="295.2" y="303.147483" style="fill-opacity: 0; stroke: #000000"/>
     <use xlink:href="#m1922cdcca9" x="295.2" y="338.245636" style="fill-opacity: 0; stroke: #000000"/>
     <use xlink:href="#m1922cdcca9" x="295.2" y="338.509066" style="fill-opacity: 0; stroke: #000000"/>
     <use xlink:href="#m1922cdcca9" x="295.2" y="284.755604" style="fill-opacity: 0; stroke: #000000"/>
     <use xlink:href="#m1922cdcca9" x="295.2" y="335.159261" style="fill-opacity: 0; stroke: #000000"/>
     <use xlink:href="#m1922cdcca9" x="295.2" y="319.51936" style="fill-opacity: 0; stroke: #000000"/>
     <use xlink:href="#m1922cdcca9" x="295.2" y="337.710982" style="fill-opacity: 0; stroke: #000000"/>
     <use xlink:href="#m1922cdcca9" x="295.2" y="322.773906" style="fill-opacity: 0; stroke: #000000"/>
    </g>
   </g>
   <g id="line2d_14">
    <path d="M 250.56 367.30445 
L 339.84 367.30445 
" clip-path="url(#p593f0b7cda)" style="fill: none; stroke: #ff7f0e"/>
   </g>
   <g id="patch_4">
    <path d="M 72 384.48 
L 72 51.84 
" style="fill: none; stroke: #000000; stroke-width: 0.8; stroke-linejoin: miter; stroke-linecap: square"/>
   </g>
   <g id="patch_5">
    <path d="M 518.4 384.48 
L 518.4 51.84 
" style="fill: none; stroke: #000000; stroke-width: 0.8; stroke-linejoin: miter; stroke-linecap: square"/>
   </g>
   <g id="patch_6">
    <path d="M 72 384.48 
L 518.4 384.48 
" style="fill: none; stroke: #000000; stroke-width: 0.8; stroke-linejoin: miter; stroke-linecap: square"/>
   </g>
   <g id="patch_7">
    <path d="M 72 51.84 
L 518.4 51.84 
" style="fill: none; stroke: #000000; stroke-width: 0.8; stroke-linejoin: miter; stroke-linecap: square"/>
   </g>
   <g id="text_10">
    <!-- Handle Result -->
    <g transform="translate(253.595625 45.84) scale(0.12 -0.12)">
     <defs>
      <path id="DejaVuSans-48" d="M 628 4666 
L 1259 4666 
L 1259 2753 
L 3553 2753 
L 3553 4666 
L 4184 4666 
L 4184 0 
L 3553 0 
L 3553 2222 
L 1259 2222 
L 1259 0 
L 628 0 
L 628 4666 
z
" transform="scale(0.015625)"/>
      <path id="DejaVuSans-61" d="M 2194 1759 
Q 1497 1759 1228 1600 
Q 959 1441 959 1056 
Q 959 750 1161 570 
Q 1363 391 1709 391 
Q 2188 391 2477 730 
Q 2766 1069 2766 1631 
L 2766 1759 
L 2194 1759 
z
M 3341 1997 
L 3341 0 
L 2766 0 
L 2766 531 
Q 2569 213 2275 61 
Q 1981 -91 1556 -91 
Q 1019 -91 701 211 
Q 384 513 384 1019 
Q 384 1609 779 1909 
Q 1175 2209 1959 2209 
L 2766 2209 
L 2766 2266 
Q 2766 2663 2505 2880 
Q 2244 3097 1772 3097 
Q 1472 3097 1187 3025 
Q 903 2953 641 2809 
L 641 3341 
Q 956 3463 1253 3523 
Q 1550 3584 1831 3584 
Q 2591 3584 2966 3190 
Q 3341 2797 3341 1997 
z
" transform="scale(0.015625)"/>
      <path id="DejaVuSans-6e" d="M 3513 2113 
L 3513 0 
L 2938 0 
L 2938 2094 
Q 2938 2591 2744 2837 
Q 2550 3084 2163 3084 
Q 1697 3084 1428 2787 
Q 1159 2491 1159 1978 
L 1159 0 
L 581 0 
L 581 3500 
L 1159 3500 
L 1159 2956 
Q 1366 3272 1645 3428 
Q 1925 3584 2291 3584 
Q 2894 3584 3203 3211 
Q 3513 2838 3513 2113 
z
" transform="scale(0.015625)"/>
      <path id="DejaVuSans-64" d="M 2906 2969 
L 2906 4863 
L 3481 4863 
L 3481 0 
L 2906 0 
L 2906 525 
Q 2725 213 2448 61 
Q 2172 -91 1784 -91 
Q 1150 -91 751 415 
Q 353 922 353 1747 
Q 353 2572 751 3078 
Q 1150 3584 1784 3584 
Q 2172 3584 2448 3432 
Q 2725 3281 2906 2969 
z
M 947 1747 
Q 947 1113 1208 752 
Q 1469 391 1925 391 
Q 2381 391 2643 752 
Q 2906 1113 2906 1747 
Q 2906 2381 2643 2742 
Q 2381 3103 1925 3103 
Q 1469 3103 1208 2742 
Q 947 2381 947 1747 
z
" transform="scale(0.015625)"/>
      <path id="DejaVuSans-6c" d="M 603 4863 
L 1178 4863 
L 1178 0 
L 603 0 
L 603 4863 
z
" transform="scale(0.015625)"/>
      <path id="DejaVuSans-52" d="M 2841 2188 
Q 3044 2119 3236 1894 
Q 3428 1669 3622 1275 
L 4263 0 
L 3584 0 
L 2988 1197 
Q 2756 1666 2539 1819 
Q 2322 1972 1947 1972 
L 1259 1972 
L 1259 0 
L 628 0 
L 628 4666 
L 2053 4666 
Q 2853 4666 3247 4331 
Q 3641 3997 3641 3322 
Q 3641 2881 3436 2590 
Q 3231 2300 2841 2188 
z
M 1259 4147 
L 1259 2491 
L 2053 2491 
Q 2509 2491 2742 2702 
Q 2975 2913 2975 3322 
Q 2975 3731 2742 3939 
Q 2509 4147 2053 4147 
L 1259 4147 
z
" transform="scale(0.015625)"/>
      <path id="DejaVuSans-75" d="M 544 1381 
L 544 3500 
L 1119 3500 
L 1119 1403 
Q 1119 906 1312 657 
Q 1506 409 1894 409 
Q 2359 409 2629 706 
Q 2900 1003 2900 1516 
L 2900 3500 
L 3475 3500 
L 3475 0 
L 2900 0 
L 2900 538 
Q 2691 219 2414 64 
Q 2138 -91 1772 -91 
Q 1169 -91 856 284 
Q 544 659 544 1381 
z
M 1991 3584 
L 1991 3584 
z
" transform="scale(0.015625)"/>
      <path id="DejaVuSans-74" d="M 1172 4494 
L 1172 3500 
L 2356 3500 
L 2356 3053 
L 1172 3053 
L 1172 1153 
Q 1172 725 1289 603 
Q 1406 481 1766 481 
L 2356 481 
L 2356 0 
L 1766 0 
Q 1100 0 847 248 
Q 594 497 594 1153 
L 594 3053 
L 172 3053 
L 172 3500 
L 594 3500 
L 594 4494 
L 1172 4494 
z
" transform="scale(0.015625)"/>
     </defs>
     <use xlink:href="#DejaVuSans-48"/>
     <use xlink:href="#DejaVuSans-61" transform="translate(75.195312 0)"/>
     <use xlink:href="#DejaVuSans-6e" transform="translate(136.474609 0)"/>
     <use xlink:href="#DejaVuSans-64" transform="translate(199.853516 0)"/>
     <use xlink:href="#DejaVuSans-6c" transform="translate(263.330078 0)"/>
     <use xlink:href="#DejaVuSans-65" transform="translate(291.113281 0)"/>
     <use xlink:href="#DejaVuSans-20" transform="translate(352.636719 0)"/>
     <use xlink:href="#DejaVuSans-52" transform="translate(384.423828 0)"/>
     <use xlink:href="#DejaVuSans-65" transform="translate(449.40625 0)"/>
     <use xlink:href="#DejaVuSans-73" transform="translate(510.929688 0)"/>
     <use xlink:href="#DejaVuSans-75" transform="translate(563.029297 0)"/>
     <use xlink:href="#DejaVuSans-6c" transform="translate(626.408203 0)"/>
     <use xlink:href="#DejaVuSans-74" transform="translate(654.191406 0)"/>
    </g>
   </g>
  </g>
 </g>
 <defs>
  <clipPath id="p593f0b7cda">
   <rect x="72" y="51.84" width="446.4" height="332.64"/>
  </clipPath>
 </defs>
</svg>
