<?xml version="1.0" encoding="utf-8" standalone="no"?>
<!DOCTYPE svg PUBLIC "-//W3C//DTD SVG 1.1//EN"
  "http://www.w3.org/Graphics/SVG/1.1/DTD/svg11.dtd">
<svg xmlns:xlink="http://www.w3.org/1999/xlink" width="720pt" height="432pt" viewBox="0 0 720 432" xmlns="http://www.w3.org/2000/svg" version="1.1">
 <metadata>
  <rdf:RDF xmlns:dc="http://purl.org/dc/elements/1.1/" xmlns:cc="http://creativecommons.org/ns#" xmlns:rdf="http://www.w3.org/1999/02/22-rdf-syntax-ns#">
   <cc:Work>
    <dc:type rdf:resource="http://purl.org/dc/dcmitype/StillImage"/>
    <dc:date>2025-06-10T01:38:21.556645</dc:date>
    <dc:format>image/svg+xml</dc:format>
    <dc:creator>
     <cc:Agent>
      <dc:title>Matplotlib v3.10.3, https://matplotlib.org/</dc:title>
     </cc:Agent>
    </dc:creator>
   </cc:Work>
  </rdf:RDF>
 </metadata>
 <defs>
  <style type="text/css">*{stroke-linejoin: round; stroke-linecap: butt}</style>
 </defs>
 <g id="figure_1">
  <g id="patch_1">
   <path d="M 0 432 
L 720 432 
L 720 0 
L 0 0 
z
" style="fill: #ffffff"/>
  </g>
  <g id="axes_1">
   <g id="patch_2">
    <path d="M 90 384.48 
L 648 384.48 
L 648 51.84 
L 90 51.84 
z
" style="fill: #ffffff"/>
   </g>
   <g id="matplotlib.axis_1">
    <g id="xtick_1">
     <g id="line2d_1">
      <defs>
       <path id="mc525174e32" d="M 0 0 
L 0 3.5 
" style="stroke: #000000; stroke-width: 0.8"/>
      </defs>
      <g>
       <use xlink:href="#mc525174e32" x="115.363636" y="384.48" style="stroke: #000000; stroke-width: 0.8"/>
      </g>
     </g>
     <g id="text_1">
      <!-- 0 -->
      <g transform="translate(112.182386 399.078438) scale(0.1 -0.1)">
       <defs>
        <path id="DejaVuSans-30" d="M 2034 4250 
Q 1547 4250 1301 3770 
Q 1056 3291 1056 2328 
Q 1056 1369 1301 889 
Q 1547 409 2034 409 
Q 2525 409 2770 889 
Q 3016 1369 3016 2328 
Q 3016 3291 2770 3770 
Q 2525 4250 2034 4250 
z
M 2034 4750 
Q 2819 4750 3233 4129 
Q 3647 3509 3647 2328 
Q 3647 1150 3233 529 
Q 2819 -91 2034 -91 
Q 1250 -91 836 529 
Q 422 1150 422 2328 
Q 422 3509 836 4129 
Q 1250 4750 2034 4750 
z
" transform="scale(0.015625)"/>
       </defs>
       <use xlink:href="#DejaVuSans-30"/>
      </g>
     </g>
    </g>
    <g id="xtick_2">
     <g id="line2d_2">
      <g>
       <use xlink:href="#mc525174e32" x="195.375108" y="384.48" style="stroke: #000000; stroke-width: 0.8"/>
      </g>
     </g>
     <g id="text_2">
      <!-- 100 -->
      <g transform="translate(185.831358 399.078438) scale(0.1 -0.1)">
       <defs>
        <path id="DejaVuSans-31" d="M 794 531 
L 1825 531 
L 1825 4091 
L 703 3866 
L 703 4441 
L 1819 4666 
L 2450 4666 
L 2450 531 
L 3481 531 
L 3481 0 
L 794 0 
L 794 531 
z
" transform="scale(0.015625)"/>
       </defs>
       <use xlink:href="#DejaVuSans-31"/>
       <use xlink:href="#DejaVuSans-30" transform="translate(63.623047 0)"/>
       <use xlink:href="#DejaVuSans-30" transform="translate(127.246094 0)"/>
      </g>
     </g>
    </g>
    <g id="xtick_3">
     <g id="line2d_3">
      <g>
       <use xlink:href="#mc525174e32" x="275.386579" y="384.48" style="stroke: #000000; stroke-width: 0.8"/>
      </g>
     </g>
     <g id="text_3">
      <!-- 200 -->
      <g transform="translate(265.842829 399.078438) scale(0.1 -0.1)">
       <defs>
        <path id="DejaVuSans-32" d="M 1228 531 
L 3431 531 
L 3431 0 
L 469 0 
L 469 531 
Q 828 903 1448 1529 
Q 2069 2156 2228 2338 
Q 2531 2678 2651 2914 
Q 2772 3150 2772 3378 
Q 2772 3750 2511 3984 
Q 2250 4219 1831 4219 
Q 1534 4219 1204 4116 
Q 875 4013 500 3803 
L 500 4441 
Q 881 4594 1212 4672 
Q 1544 4750 1819 4750 
Q 2544 4750 2975 4387 
Q 3406 4025 3406 3419 
Q 3406 3131 3298 2873 
Q 3191 2616 2906 2266 
Q 2828 2175 2409 1742 
Q 1991 1309 1228 531 
z
" transform="scale(0.015625)"/>
       </defs>
       <use xlink:href="#DejaVuSans-32"/>
       <use xlink:href="#DejaVuSans-30" transform="translate(63.623047 0)"/>
       <use xlink:href="#DejaVuSans-30" transform="translate(127.246094 0)"/>
      </g>
     </g>
    </g>
    <g id="xtick_4">
     <g id="line2d_4">
      <g>
       <use xlink:href="#mc525174e32" x="355.39805" y="384.48" style="stroke: #000000; stroke-width: 0.8"/>
      </g>
     </g>
     <g id="text_4">
      <!-- 300 -->
      <g transform="translate(345.8543 399.078438) scale(0.1 -0.1)">
       <defs>
        <path id="DejaVuSans-33" d="M 2597 2516 
Q 3050 2419 3304 2112 
Q 3559 1806 3559 1356 
Q 3559 666 3084 287 
Q 2609 -91 1734 -91 
Q 1441 -91 1130 -33 
Q 819 25 488 141 
L 488 750 
Q 750 597 1062 519 
Q 1375 441 1716 441 
Q 2309 441 2620 675 
Q 2931 909 2931 1356 
Q 2931 1769 2642 2001 
Q 2353 2234 1838 2234 
L 1294 2234 
L 1294 2753 
L 1863 2753 
Q 2328 2753 2575 2939 
Q 2822 3125 2822 3475 
Q 2822 3834 2567 4026 
Q 2313 4219 1838 4219 
Q 1578 4219 1281 4162 
Q 984 4106 628 3988 
L 628 4550 
Q 988 4650 1302 4700 
Q 1616 4750 1894 4750 
Q 2613 4750 3031 4423 
Q 3450 4097 3450 3541 
Q 3450 3153 3228 2886 
Q 3006 2619 2597 2516 
z
" transform="scale(0.015625)"/>
       </defs>
       <use xlink:href="#DejaVuSans-33"/>
       <use xlink:href="#DejaVuSans-30" transform="translate(63.623047 0)"/>
       <use xlink:href="#DejaVuSans-30" transform="translate(127.246094 0)"/>
      </g>
     </g>
    </g>
    <g id="xtick_5">
     <g id="line2d_5">
      <g>
       <use xlink:href="#mc525174e32" x="435.409521" y="384.48" style="stroke: #000000; stroke-width: 0.8"/>
      </g>
     </g>
     <g id="text_5">
      <!-- 400 -->
      <g transform="translate(425.865771 399.078438) scale(0.1 -0.1)">
       <defs>
        <path id="DejaVuSans-34" d="M 2419 4116 
L 825 1625 
L 2419 1625 
L 2419 4116 
z
M 2253 4666 
L 3047 4666 
L 3047 1625 
L 3713 1625 
L 3713 1100 
L 3047 1100 
L 3047 0 
L 2419 0 
L 2419 1100 
L 313 1100 
L 313 1709 
L 2253 4666 
z
" transform="scale(0.015625)"/>
       </defs>
       <use xlink:href="#DejaVuSans-34"/>
       <use xlink:href="#DejaVuSans-30" transform="translate(63.623047 0)"/>
       <use xlink:href="#DejaVuSans-30" transform="translate(127.246094 0)"/>
      </g>
     </g>
    </g>
    <g id="xtick_6">
     <g id="line2d_6">
      <g>
       <use xlink:href="#mc525174e32" x="515.420992" y="384.48" style="stroke: #000000; stroke-width: 0.8"/>
      </g>
     </g>
     <g id="text_6">
      <!-- 500 -->
      <g transform="translate(505.877242 399.078438) scale(0.1 -0.1)">
       <defs>
        <path id="DejaVuSans-35" d="M 691 4666 
L 3169 4666 
L 3169 4134 
L 1269 4134 
L 1269 2991 
Q 1406 3038 1543 3061 
Q 1681 3084 1819 3084 
Q 2600 3084 3056 2656 
Q 3513 2228 3513 1497 
Q 3513 744 3044 326 
Q 2575 -91 1722 -91 
Q 1428 -91 1123 -41 
Q 819 9 494 109 
L 494 744 
Q 775 591 1075 516 
Q 1375 441 1709 441 
Q 2250 441 2565 725 
Q 2881 1009 2881 1497 
Q 2881 1984 2565 2268 
Q 2250 2553 1709 2553 
Q 1456 2553 1204 2497 
Q 953 2441 691 2322 
L 691 4666 
z
" transform="scale(0.015625)"/>
       </defs>
       <use xlink:href="#DejaVuSans-35"/>
       <use xlink:href="#DejaVuSans-30" transform="translate(63.623047 0)"/>
       <use xlink:href="#DejaVuSans-30" transform="translate(127.246094 0)"/>
      </g>
     </g>
    </g>
    <g id="xtick_7">
     <g id="line2d_7">
      <g>
       <use xlink:href="#mc525174e32" x="595.432463" y="384.48" style="stroke: #000000; stroke-width: 0.8"/>
      </g>
     </g>
     <g id="text_7">
      <!-- 600 -->
      <g transform="translate(585.888713 399.078438) scale(0.1 -0.1)">
       <defs>
        <path id="DejaVuSans-36" d="M 2113 2584 
Q 1688 2584 1439 2293 
Q 1191 2003 1191 1497 
Q 1191 994 1439 701 
Q 1688 409 2113 409 
Q 2538 409 2786 701 
Q 3034 994 3034 1497 
Q 3034 2003 2786 2293 
Q 2538 2584 2113 2584 
z
M 3366 4563 
L 3366 3988 
Q 3128 4100 2886 4159 
Q 2644 4219 2406 4219 
Q 1781 4219 1451 3797 
Q 1122 3375 1075 2522 
Q 1259 2794 1537 2939 
Q 1816 3084 2150 3084 
Q 2853 3084 3261 2657 
Q 3669 2231 3669 1497 
Q 3669 778 3244 343 
Q 2819 -91 2113 -91 
Q 1303 -91 875 529 
Q 447 1150 447 2328 
Q 447 3434 972 4092 
Q 1497 4750 2381 4750 
Q 2619 4750 2861 4703 
Q 3103 4656 3366 4563 
z
" transform="scale(0.015625)"/>
       </defs>
       <use xlink:href="#DejaVuSans-36"/>
       <use xlink:href="#DejaVuSans-30" transform="translate(63.623047 0)"/>
       <use xlink:href="#DejaVuSans-30" transform="translate(127.246094 0)"/>
      </g>
     </g>
    </g>
    <g id="text_8">
     <!-- Index -->
     <g transform="translate(355.233594 412.756563) scale(0.1 -0.1)">
      <defs>
       <path id="DejaVuSans-49" d="M 628 4666 
L 1259 4666 
L 1259 0 
L 628 0 
L 628 4666 
z
" transform="scale(0.015625)"/>
       <path id="DejaVuSans-6e" d="M 3513 2113 
L 3513 0 
L 2938 0 
L 2938 2094 
Q 2938 2591 2744 2837 
Q 2550 3084 2163 3084 
Q 1697 3084 1428 2787 
Q 1159 2491 1159 1978 
L 1159 0 
L 581 0 
L 581 3500 
L 1159 3500 
L 1159 2956 
Q 1366 3272 1645 3428 
Q 1925 3584 2291 3584 
Q 2894 3584 3203 3211 
Q 3513 2838 3513 2113 
z
" transform="scale(0.015625)"/>
       <path id="DejaVuSans-64" d="M 2906 2969 
L 2906 4863 
L 3481 4863 
L 3481 0 
L 2906 0 
L 2906 525 
Q 2725 213 2448 61 
Q 2172 -91 1784 -91 
Q 1150 -91 751 415 
Q 353 922 353 1747 
Q 353 2572 751 3078 
Q 1150 3584 1784 3584 
Q 2172 3584 2448 3432 
Q 2725 3281 2906 2969 
z
M 947 1747 
Q 947 1113 1208 752 
Q 1469 391 1925 391 
Q 2381 391 2643 752 
Q 2906 1113 2906 1747 
Q 2906 2381 2643 2742 
Q 2381 3103 1925 3103 
Q 1469 3103 1208 2742 
Q 947 2381 947 1747 
z
" transform="scale(0.015625)"/>
       <path id="DejaVuSans-65" d="M 3597 1894 
L 3597 1613 
L 953 1613 
Q 991 1019 1311 708 
Q 1631 397 2203 397 
Q 2534 397 2845 478 
Q 3156 559 3463 722 
L 3463 178 
Q 3153 47 2828 -22 
Q 2503 -91 2169 -91 
Q 1331 -91 842 396 
Q 353 884 353 1716 
Q 353 2575 817 3079 
Q 1281 3584 2069 3584 
Q 2775 3584 3186 3129 
Q 3597 2675 3597 1894 
z
M 3022 2063 
Q 3016 2534 2758 2815 
Q 2500 3097 2075 3097 
Q 1594 3097 1305 2825 
Q 1016 2553 972 2059 
L 3022 2063 
z
" transform="scale(0.015625)"/>
       <path id="DejaVuSans-78" d="M 3513 3500 
L 2247 1797 
L 3578 0 
L 2900 0 
L 1881 1375 
L 863 0 
L 184 0 
L 1544 1831 
L 300 3500 
L 978 3500 
L 1906 2253 
L 2834 3500 
L 3513 3500 
z
" transform="scale(0.015625)"/>
      </defs>
      <use xlink:href="#DejaVuSans-49"/>
      <use xlink:href="#DejaVuSans-6e" transform="translate(29.492188 0)"/>
      <use xlink:href="#DejaVuSans-64" transform="translate(92.871094 0)"/>
      <use xlink:href="#DejaVuSans-65" transform="translate(156.347656 0)"/>
      <use xlink:href="#DejaVuSans-78" transform="translate(216.121094 0)"/>
     </g>
    </g>
   </g>
   <g id="matplotlib.axis_2">
    <g id="ytick_1">
     <g id="line2d_8">
      <defs>
       <path id="mccca9c316a" d="M 0 0 
L -3.5 0 
" style="stroke: #000000; stroke-width: 0.8"/>
      </defs>
      <g>
       <use xlink:href="#mccca9c316a" x="90" y="384.48" style="stroke: #000000; stroke-width: 0.8"/>
      </g>
     </g>
     <g id="text_9">
      <!-- 0 -->
      <g transform="translate(76.6375 388.279219) scale(0.1 -0.1)">
       <use xlink:href="#DejaVuSans-30"/>
      </g>
     </g>
    </g>
    <g id="ytick_2">
     <g id="line2d_9">
      <g>
       <use xlink:href="#mccca9c316a" x="90" y="330.925681" style="stroke: #000000; stroke-width: 0.8"/>
      </g>
     </g>
     <g id="text_10">
      <!-- 5 -->
      <g transform="translate(76.6375 334.7249) scale(0.1 -0.1)">
       <use xlink:href="#DejaVuSans-35"/>
      </g>
     </g>
    </g>
    <g id="ytick_3">
     <g id="line2d_10">
      <g>
       <use xlink:href="#mccca9c316a" x="90" y="277.371362" style="stroke: #000000; stroke-width: 0.8"/>
      </g>
     </g>
     <g id="text_11">
      <!-- 10 -->
      <g transform="translate(70.275 281.170581) scale(0.1 -0.1)">
       <use xlink:href="#DejaVuSans-31"/>
       <use xlink:href="#DejaVuSans-30" transform="translate(63.623047 0)"/>
      </g>
     </g>
    </g>
    <g id="ytick_4">
     <g id="line2d_11">
      <g>
       <use xlink:href="#mccca9c316a" x="90" y="223.817043" style="stroke: #000000; stroke-width: 0.8"/>
      </g>
     </g>
     <g id="text_12">
      <!-- 15 -->
      <g transform="translate(70.275 227.616262) scale(0.1 -0.1)">
       <use xlink:href="#DejaVuSans-31"/>
       <use xlink:href="#DejaVuSans-35" transform="translate(63.623047 0)"/>
      </g>
     </g>
    </g>
    <g id="ytick_5">
     <g id="line2d_12">
      <g>
       <use xlink:href="#mccca9c316a" x="90" y="170.262724" style="stroke: #000000; stroke-width: 0.8"/>
      </g>
     </g>
     <g id="text_13">
      <!-- 20 -->
      <g transform="translate(70.275 174.061943) scale(0.1 -0.1)">
       <use xlink:href="#DejaVuSans-32"/>
       <use xlink:href="#DejaVuSans-30" transform="translate(63.623047 0)"/>
      </g>
     </g>
    </g>
    <g id="ytick_6">
     <g id="line2d_13">
      <g>
       <use xlink:href="#mccca9c316a" x="90" y="116.708406" style="stroke: #000000; stroke-width: 0.8"/>
      </g>
     </g>
     <g id="text_14">
      <!-- 25 -->
      <g transform="translate(70.275 120.507624) scale(0.1 -0.1)">
       <use xlink:href="#DejaVuSans-32"/>
       <use xlink:href="#DejaVuSans-35" transform="translate(63.623047 0)"/>
      </g>
     </g>
    </g>
    <g id="ytick_7">
     <g id="line2d_14">
      <g>
       <use xlink:href="#mccca9c316a" x="90" y="63.154087" style="stroke: #000000; stroke-width: 0.8"/>
      </g>
     </g>
     <g id="text_15">
      <!-- 30 -->
      <g transform="translate(70.275 66.953305) scale(0.1 -0.1)">
       <use xlink:href="#DejaVuSans-33"/>
       <use xlink:href="#DejaVuSans-30" transform="translate(63.623047 0)"/>
      </g>
     </g>
    </g>
    <g id="text_16">
     <!-- Average time (ms) -->
     <g transform="translate(64.195312 264.543594) rotate(-90) scale(0.1 -0.1)">
      <defs>
       <path id="DejaVuSans-41" d="M 2188 4044 
L 1331 1722 
L 3047 1722 
L 2188 4044 
z
M 1831 4666 
L 2547 4666 
L 4325 0 
L 3669 0 
L 3244 1197 
L 1141 1197 
L 716 0 
L 50 0 
L 1831 4666 
z
" transform="scale(0.015625)"/>
       <path id="DejaVuSans-76" d="M 191 3500 
L 800 3500 
L 1894 563 
L 2988 3500 
L 3597 3500 
L 2284 0 
L 1503 0 
L 191 3500 
z
" transform="scale(0.015625)"/>
       <path id="DejaVuSans-72" d="M 2631 2963 
Q 2534 3019 2420 3045 
Q 2306 3072 2169 3072 
Q 1681 3072 1420 2755 
Q 1159 2438 1159 1844 
L 1159 0 
L 581 0 
L 581 3500 
L 1159 3500 
L 1159 2956 
Q 1341 3275 1631 3429 
Q 1922 3584 2338 3584 
Q 2397 3584 2469 3576 
Q 2541 3569 2628 3553 
L 2631 2963 
z
" transform="scale(0.015625)"/>
       <path id="DejaVuSans-61" d="M 2194 1759 
Q 1497 1759 1228 1600 
Q 959 1441 959 1056 
Q 959 750 1161 570 
Q 1363 391 1709 391 
Q 2188 391 2477 730 
Q 2766 1069 2766 1631 
L 2766 1759 
L 2194 1759 
z
M 3341 1997 
L 3341 0 
L 2766 0 
L 2766 531 
Q 2569 213 2275 61 
Q 1981 -91 1556 -91 
Q 1019 -91 701 211 
Q 384 513 384 1019 
Q 384 1609 779 1909 
Q 1175 2209 1959 2209 
L 2766 2209 
L 2766 2266 
Q 2766 2663 2505 2880 
Q 2244 3097 1772 3097 
Q 1472 3097 1187 3025 
Q 903 2953 641 2809 
L 641 3341 
Q 956 3463 1253 3523 
Q 1550 3584 1831 3584 
Q 2591 3584 2966 3190 
Q 3341 2797 3341 1997 
z
" transform="scale(0.015625)"/>
       <path id="DejaVuSans-67" d="M 2906 1791 
Q 2906 2416 2648 2759 
Q 2391 3103 1925 3103 
Q 1463 3103 1205 2759 
Q 947 2416 947 1791 
Q 947 1169 1205 825 
Q 1463 481 1925 481 
Q 2391 481 2648 825 
Q 2906 1169 2906 1791 
z
M 3481 434 
Q 3481 -459 3084 -895 
Q 2688 -1331 1869 -1331 
Q 1566 -1331 1297 -1286 
Q 1028 -1241 775 -1147 
L 775 -588 
Q 1028 -725 1275 -790 
Q 1522 -856 1778 -856 
Q 2344 -856 2625 -561 
Q 2906 -266 2906 331 
L 2906 616 
Q 2728 306 2450 153 
Q 2172 0 1784 0 
Q 1141 0 747 490 
Q 353 981 353 1791 
Q 353 2603 747 3093 
Q 1141 3584 1784 3584 
Q 2172 3584 2450 3431 
Q 2728 3278 2906 2969 
L 2906 3500 
L 3481 3500 
L 3481 434 
z
" transform="scale(0.015625)"/>
       <path id="DejaVuSans-20" transform="scale(0.015625)"/>
       <path id="DejaVuSans-74" d="M 1172 4494 
L 1172 3500 
L 2356 3500 
L 2356 3053 
L 1172 3053 
L 1172 1153 
Q 1172 725 1289 603 
Q 1406 481 1766 481 
L 2356 481 
L 2356 0 
L 1766 0 
Q 1100 0 847 248 
Q 594 497 594 1153 
L 594 3053 
L 172 3053 
L 172 3500 
L 594 3500 
L 594 4494 
L 1172 4494 
z
" transform="scale(0.015625)"/>
       <path id="DejaVuSans-69" d="M 603 3500 
L 1178 3500 
L 1178 0 
L 603 0 
L 603 3500 
z
M 603 4863 
L 1178 4863 
L 1178 4134 
L 603 4134 
L 603 4863 
z
" transform="scale(0.015625)"/>
       <path id="DejaVuSans-6d" d="M 3328 2828 
Q 3544 3216 3844 3400 
Q 4144 3584 4550 3584 
Q 5097 3584 5394 3201 
Q 5691 2819 5691 2113 
L 5691 0 
L 5113 0 
L 5113 2094 
Q 5113 2597 4934 2840 
Q 4756 3084 4391 3084 
Q 3944 3084 3684 2787 
Q 3425 2491 3425 1978 
L 3425 0 
L 2847 0 
L 2847 2094 
Q 2847 2600 2669 2842 
Q 2491 3084 2119 3084 
Q 1678 3084 1418 2786 
Q 1159 2488 1159 1978 
L 1159 0 
L 581 0 
L 581 3500 
L 1159 3500 
L 1159 2956 
Q 1356 3278 1631 3431 
Q 1906 3584 2284 3584 
Q 2666 3584 2933 3390 
Q 3200 3197 3328 2828 
z
" transform="scale(0.015625)"/>
       <path id="DejaVuSans-28" d="M 1984 4856 
Q 1566 4138 1362 3434 
Q 1159 2731 1159 2009 
Q 1159 1288 1364 580 
Q 1569 -128 1984 -844 
L 1484 -844 
Q 1016 -109 783 600 
Q 550 1309 550 2009 
Q 550 2706 781 3412 
Q 1013 4119 1484 4856 
L 1984 4856 
z
" transform="scale(0.015625)"/>
       <path id="DejaVuSans-73" d="M 2834 3397 
L 2834 2853 
Q 2591 2978 2328 3040 
Q 2066 3103 1784 3103 
Q 1356 3103 1142 2972 
Q 928 2841 928 2578 
Q 928 2378 1081 2264 
Q 1234 2150 1697 2047 
L 1894 2003 
Q 2506 1872 2764 1633 
Q 3022 1394 3022 966 
Q 3022 478 2636 193 
Q 2250 -91 1575 -91 
Q 1294 -91 989 -36 
Q 684 19 347 128 
L 347 722 
Q 666 556 975 473 
Q 1284 391 1588 391 
Q 1994 391 2212 530 
Q 2431 669 2431 922 
Q 2431 1156 2273 1281 
Q 2116 1406 1581 1522 
L 1381 1569 
Q 847 1681 609 1914 
Q 372 2147 372 2553 
Q 372 3047 722 3315 
Q 1072 3584 1716 3584 
Q 2034 3584 2315 3537 
Q 2597 3491 2834 3397 
z
" transform="scale(0.015625)"/>
       <path id="DejaVuSans-29" d="M 513 4856 
L 1013 4856 
Q 1481 4119 1714 3412 
Q 1947 2706 1947 2009 
Q 1947 1309 1714 600 
Q 1481 -109 1013 -844 
L 513 -844 
Q 928 -128 1133 580 
Q 1338 1288 1338 2009 
Q 1338 2731 1133 3434 
Q 928 4138 513 4856 
z
" transform="scale(0.015625)"/>
      </defs>
      <use xlink:href="#DejaVuSans-41"/>
      <use xlink:href="#DejaVuSans-76" transform="translate(62.533203 0)"/>
      <use xlink:href="#DejaVuSans-65" transform="translate(121.712891 0)"/>
      <use xlink:href="#DejaVuSans-72" transform="translate(183.236328 0)"/>
      <use xlink:href="#DejaVuSans-61" transform="translate(224.349609 0)"/>
      <use xlink:href="#DejaVuSans-67" transform="translate(285.628906 0)"/>
      <use xlink:href="#DejaVuSans-65" transform="translate(349.105469 0)"/>
      <use xlink:href="#DejaVuSans-20" transform="translate(410.628906 0)"/>
      <use xlink:href="#DejaVuSans-74" transform="translate(442.416016 0)"/>
      <use xlink:href="#DejaVuSans-69" transform="translate(481.625 0)"/>
      <use xlink:href="#DejaVuSans-6d" transform="translate(509.408203 0)"/>
      <use xlink:href="#DejaVuSans-65" transform="translate(606.820312 0)"/>
      <use xlink:href="#DejaVuSans-20" transform="translate(668.34375 0)"/>
      <use xlink:href="#DejaVuSans-28" transform="translate(700.130859 0)"/>
      <use xlink:href="#DejaVuSans-6d" transform="translate(739.144531 0)"/>
      <use xlink:href="#DejaVuSans-73" transform="translate(836.556641 0)"/>
      <use xlink:href="#DejaVuSans-29" transform="translate(888.65625 0)"/>
     </g>
    </g>
   </g>
   <g id="line2d_15">
    <path d="M 115.363636 67.180571 
L 116.163751 229.61455 
L 116.963866 318.821223 
L 117.76398 313.497577 
L 118.564095 322.349566 
L 119.36421 334.19645 
L 120.164325 339.332819 
L 120.964439 342.55949 
L 121.764554 324.932705 
L 122.564669 348.208728 
L 123.364783 341.41928 
L 124.164898 349.038402 
L 124.965013 347.691836 
L 125.765128 345.60024 
L 126.565242 350.223648 
L 127.365357 350.09109 
L 128.165472 337.926749 
L 128.965586 349.549989 
L 129.765701 345.015207 
L 130.565816 361.805082 
L 131.365931 364.47434 
L 132.166045 363.492356 
L 132.96616 364.275745 
L 133.766275 364.525216 
L 134.566389 360.962891 
L 135.366504 372.424789 
L 136.166619 372.930666 
L 136.966734 362.428376 
L 137.766848 361.8437 
L 138.566963 364.391009 
L 139.367078 360.298064 
L 140.167192 368.462037 
L 140.967307 367.938594 
L 141.767422 365.66073 
L 142.567537 364.145852 
L 143.367651 366.79246 
L 144.167766 367.216757 
L 144.967881 363.461283 
L 145.767995 365.801878 
L 146.56811 365.381591 
L 147.368225 363.337345 
L 148.16834 366.558417 
L 148.968454 365.638589 
L 149.768569 368.277369 
L 150.568684 368.492902 
L 151.368798 368.165333 
L 152.168913 364.409516 
L 152.969028 370.664377 
L 153.769143 367.472488 
L 154.569257 371.471245 
L 155.369372 368.738821 
L 156.169487 369.125178 
L 157.769716 371.8077 
L 158.569831 371.051597 
L 159.369946 368.669087 
L 160.970175 371.056278 
L 161.77029 371.902897 
L 162.570404 370.790093 
L 163.370519 370.44433 
L 164.170634 369.329372 
L 164.970748 370.632854 
L 165.770863 361.531356 
L 166.570978 364.171022 
L 167.371093 367.650824 
L 168.171207 369.835184 
L 168.971322 368.179326 
L 169.771437 368.771109 
L 170.571551 369.145466 
L 171.371666 368.744434 
L 172.171781 369.044032 
L 172.971896 365.658751 
L 173.77201 371.37363 
L 174.572125 371.739633 
L 175.37224 371.305192 
L 176.172354 369.14974 
L 176.972469 367.649155 
L 177.772584 371.727436 
L 178.572699 372.642391 
L 179.372813 371.456324 
L 180.172928 372.06527 
L 180.973043 371.734823 
L 182.573272 368.169258 
L 183.373387 370.38039 
L 184.173502 371.88221 
L 184.973616 372.177533 
L 185.773731 371.887146 
L 186.573846 372.722731 
L 187.37396 371.901485 
L 188.174075 368.438097 
L 188.97419 369.735772 
L 189.774305 369.319743 
L 190.574419 370.333116 
L 191.374534 366.400016 
L 192.174649 369.941434 
L 192.974763 367.772397 
L 193.774878 371.769212 
L 194.574993 370.225168 
L 195.375108 370.263715 
L 196.975337 372.244038 
L 197.775452 367.776662 
L 198.575566 371.411457 
L 199.375681 371.712865 
L 200.175796 372.711693 
L 200.975911 372.625594 
L 201.776025 371.078969 
L 202.57614 371.200972 
L 203.376255 373.006149 
L 204.176369 372.859822 
L 204.976484 371.363041 
L 205.776599 371.269939 
L 206.576714 373.177639 
L 207.376828 372.780138 
L 208.176943 371.917522 
L 208.977058 369.811348 
L 209.777172 370.751999 
L 210.577287 370.775059 
L 211.377402 361.272814 
L 212.177516 363.454378 
L 212.977631 373.991998 
L 213.777746 371.583542 
L 214.577861 372.423537 
L 216.17809 371.181876 
L 216.978205 372.044562 
L 217.778319 371.674488 
L 218.578434 370.826684 
L 219.378549 372.42364 
L 220.178664 371.247539 
L 220.978778 371.042307 
L 221.778893 368.015434 
L 222.579008 369.607919 
L 223.379122 366.966067 
L 224.179237 371.172957 
L 224.979352 372.101102 
L 225.779467 370.567568 
L 226.579581 370.797314 
L 227.379696 364.184578 
L 228.179811 367.489212 
L 228.979925 371.343912 
L 229.78004 371.991736 
L 230.580155 371.760693 
L 231.38027 372.381206 
L 232.180384 371.717954 
L 232.980499 370.902713 
L 233.780614 370.573547 
L 234.580728 370.414284 
L 235.380843 371.872426 
L 236.180958 369.462161 
L 236.981073 370.136221 
L 237.781187 371.011229 
L 238.581302 369.322485 
L 239.381417 371.360425 
L 240.181531 370.136007 
L 240.981646 368.542702 
L 241.781761 366.600526 
L 242.581876 371.432294 
L 243.38199 369.53817 
L 244.182105 364.79174 
L 244.98222 364.507955 
L 245.782334 371.457024 
L 246.582449 370.057476 
L 247.382564 370.343363 
L 248.182679 371.080852 
L 248.982793 370.502862 
L 249.782908 367.69637 
L 250.583023 368.329956 
L 251.383137 368.430961 
L 252.183252 366.41242 
L 252.983367 369.446415 
L 253.783482 368.814441 
L 254.583596 369.304586 
L 255.383711 370.549035 
L 256.183826 370.098515 
L 256.98394 369.910003 
L 257.784055 369.160099 
L 258.58417 369.488716 
L 259.384284 368.808113 
L 260.184399 370.957461 
L 260.984514 370.008236 
L 261.784629 368.624095 
L 262.584743 369.258199 
L 264.184973 371.478887 
L 264.985087 369.468249 
L 265.785202 367.085709 
L 266.585317 369.411385 
L 267.385432 369.211708 
L 268.185546 366.530977 
L 268.985661 368.083703 
L 269.785776 369.319781 
L 270.58589 371.103878 
L 271.386005 368.395618 
L 272.18612 369.509277 
L 272.986235 370.066592 
L 273.786349 369.977047 
L 274.586464 368.529828 
L 275.386579 365.721979 
L 276.186693 341.56369 
L 276.986808 366.802495 
L 277.786923 368.688798 
L 278.587038 368.548154 
L 280.187267 370.043987 
L 280.987382 369.831791 
L 282.587611 369.962166 
L 283.387726 369.291204 
L 284.187841 368.068601 
L 284.987955 368.234519 
L 285.78807 369.544834 
L 286.588185 369.001984 
L 287.388299 369.22661 
L 288.188414 370.391035 
L 288.988529 370.100768 
L 289.788644 370.559955 
L 290.588758 366.799932 
L 291.388873 364.575194 
L 292.188988 369.54077 
L 292.989102 370.764758 
L 293.789217 370.526424 
L 294.589332 368.294182 
L 295.389447 370.362116 
L 296.189561 370.190305 
L 296.989676 368.800931 
L 297.789791 369.213102 
L 299.39002 369.746984 
L 300.190135 369.024869 
L 300.990249 369.324695 
L 301.790364 368.716618 
L 302.590479 369.52982 
L 303.390594 368.017141 
L 304.190708 364.692319 
L 304.990823 369.487938 
L 305.790938 369.508033 
L 306.591052 364.767924 
L 307.391167 368.134869 
L 308.191282 368.531196 
L 308.991397 370.784125 
L 309.791511 367.296058 
L 310.591626 368.169663 
L 311.391741 369.887357 
L 312.191855 369.870034 
L 312.99197 368.667981 
L 313.792085 368.224721 
L 314.5922 369.181259 
L 315.392314 368.767701 
L 316.192429 367.882712 
L 316.992544 368.546596 
L 317.792658 367.566899 
L 318.592773 368.13579 
L 319.392888 362.309229 
L 320.193003 353.776623 
L 320.993117 368.306437 
L 321.793232 369.487707 
L 322.593347 368.806247 
L 323.393461 368.743259 
L 324.193576 369.083009 
L 324.993691 368.391716 
L 325.793806 354.459605 
L 326.59392 367.592862 
L 327.394035 369.274669 
L 328.19415 370.450345 
L 328.994264 364.386793 
L 330.594494 367.48252 
L 331.394609 369.244552 
L 332.194723 368.594359 
L 332.994838 367.010907 
L 333.794953 368.7951 
L 334.595067 368.630913 
L 335.395182 367.873068 
L 336.195297 367.767249 
L 336.995412 365.651556 
L 337.795526 368.378456 
L 338.595641 368.685626 
L 340.19587 368.171058 
L 340.995985 370.035607 
L 341.7961 366.917286 
L 342.596215 366.40471 
L 343.396329 365.290027 
L 344.196444 369.791598 
L 344.996559 366.924029 
L 346.596788 368.623072 
L 347.396903 370.254546 
L 348.197017 361.636462 
L 348.997132 364.828929 
L 349.797247 369.234808 
L 350.597362 371.130301 
L 352.197591 365.773215 
L 352.997706 369.535907 
L 353.79782 370.710319 
L 354.597935 368.13378 
L 355.39805 367.623276 
L 356.198165 366.286049 
L 356.998279 367.69383 
L 357.798394 361.478866 
L 359.398623 367.852814 
L 360.198738 369.317503 
L 361.798968 362.993125 
L 362.599082 366.660859 
L 363.399197 366.409362 
L 364.199312 367.120049 
L 364.999426 368.264662 
L 365.799541 365.867644 
L 366.599656 370.121387 
L 367.399771 368.59586 
L 368.199885 368.865784 
L 369 366.72199 
L 369.800115 356.83072 
L 370.600229 367.770071 
L 371.400344 367.801276 
L 372.200459 367.283599 
L 373.000574 368.623496 
L 373.800688 367.389872 
L 374.600803 367.03039 
L 375.400918 363.191895 
L 376.201032 366.454184 
L 377.001147 365.146984 
L 377.801262 367.637263 
L 378.601377 366.691342 
L 379.401491 369.372402 
L 380.201606 367.682361 
L 381.001721 367.320962 
L 381.801835 364.784498 
L 382.60195 367.208801 
L 383.402065 367.637588 
L 384.20218 364.714616 
L 385.002294 368.000162 
L 385.802409 367.087884 
L 386.602524 365.60243 
L 387.402638 356.137038 
L 388.202753 364.98953 
L 389.002868 367.097843 
L 389.802983 365.837855 
L 390.603097 366.891436 
L 392.203327 367.516236 
L 393.003441 365.88361 
L 393.803556 366.230655 
L 394.603671 364.834569 
L 395.403785 365.607367 
L 396.2039 365.574158 
L 397.80413 366.979048 
L 398.604244 365.109493 
L 399.404359 365.366879 
L 401.004588 366.578456 
L 401.804703 358.241709 
L 402.604818 365.589794 
L 403.404933 366.63276 
L 404.205047 366.595808 
L 405.005162 368.010984 
L 405.805277 365.410416 
L 406.605391 360.211327 
L 407.405506 364.458024 
L 408.205621 366.139632 
L 409.005736 362.307624 
L 409.80585 366.194668 
L 410.605965 358.009387 
L 411.40608 363.804718 
L 412.206194 362.703155 
L 413.006309 366.707971 
L 413.806424 367.393076 
L 414.606539 366.671473 
L 415.406653 365.233786 
L 416.206768 367.56274 
L 417.006883 367.469542 
L 417.806997 369.038315 
L 418.607112 365.475318 
L 419.407227 363.788295 
L 420.207342 365.019676 
L 421.007456 363.221215 
L 421.807571 349.07146 
L 422.607686 363.116776 
L 423.4078 357.934884 
L 424.207915 364.581019 
L 425.00803 361.392124 
L 425.808145 364.029068 
L 426.608259 363.948216 
L 427.408374 361.917115 
L 428.208489 363.016962 
L 429.008603 358.522462 
L 429.808718 360.885906 
L 430.608833 364.345796 
L 431.408948 362.254602 
L 432.209062 363.333484 
L 433.009177 360.161021 
L 433.809292 362.730583 
L 434.609406 356.806047 
L 435.409521 362.884514 
L 436.209636 357.934603 
L 437.009751 364.165592 
L 437.809865 360.653319 
L 438.60998 356.602841 
L 439.410095 362.431956 
L 440.210209 363.33814 
L 441.010324 355.917001 
L 441.810439 361.360278 
L 442.610553 363.149294 
L 443.410668 361.676581 
L 444.210783 362.873478 
L 445.010898 360.99096 
L 445.811012 362.691179 
L 446.611127 351.128404 
L 447.411242 359.267501 
L 448.211356 357.910792 
L 449.011471 361.469751 
L 449.811586 361.339948 
L 450.611701 356.667445 
L 451.411815 360.006665 
L 452.21193 356.535159 
L 453.012045 362.707668 
L 453.812159 360.961716 
L 454.612274 350.521859 
L 455.412389 362.317345 
L 456.212504 361.050262 
L 457.012618 351.531799 
L 457.812733 357.221096 
L 459.412962 358.791689 
L 460.213077 356.629946 
L 461.013192 359.22335 
L 461.813307 359.340733 
L 462.613421 357.643004 
L 463.413536 360.091284 
L 464.213651 357.892125 
L 465.013765 359.344057 
L 465.81388 359.913036 
L 466.613995 358.697409 
L 467.41411 359.824577 
L 468.214224 360.518144 
L 469.014339 362.852059 
L 469.814454 353.43151 
L 470.614568 356.077825 
L 471.414683 354.357689 
L 472.214798 356.296353 
L 473.014913 356.213024 
L 473.815027 355.079002 
L 474.615142 355.882882 
L 475.415257 355.73143 
L 477.015486 352.297993 
L 477.815601 347.202345 
L 478.615716 343.322387 
L 479.41583 347.956794 
L 480.215945 353.788354 
L 481.01606 355.448097 
L 481.816174 357.966889 
L 482.616289 355.666172 
L 483.416404 354.525951 
L 484.216518 349.402547 
L 485.016633 352.7446 
L 485.816748 354.28483 
L 486.616863 357.084369 
L 487.416977 353.192254 
L 488.217092 351.023117 
L 489.017207 354.578474 
L 489.817321 355.014615 
L 490.617436 356.214723 
L 491.417551 353.748606 
L 492.217666 353.622151 
L 493.01778 356.63537 
L 493.817895 357.382911 
L 494.61801 361.137472 
L 496.218239 344.882984 
L 497.018354 352.672358 
L 497.818469 346.26666 
L 498.618583 350.21859 
L 499.418698 348.032968 
L 500.218813 354.663497 
L 501.018927 351.913236 
L 501.819042 350.959691 
L 502.619157 349.706716 
L 503.419272 354.538709 
L 504.219386 350.242116 
L 505.019501 354.340939 
L 505.819616 356.070728 
L 506.61973 353.48728 
L 507.419845 357.716578 
L 509.020075 348.659317 
L 509.820189 348.065915 
L 510.620304 358.207655 
L 511.420419 353.750734 
L 512.220533 354.489467 
L 513.820763 359.766701 
L 514.620878 354.163884 
L 515.420992 354.638852 
L 516.221107 347.981074 
L 517.021222 357.419049 
L 517.821336 354.191062 
L 518.621451 356.023448 
L 519.421566 355.864827 
L 520.221681 358.813348 
L 521.021795 358.598502 
L 521.82191 355.99649 
L 522.622025 356.994358 
L 523.422139 356.667346 
L 524.222254 349.297719 
L 525.022369 352.984589 
L 525.822484 355.76385 
L 527.422713 352.436509 
L 528.222828 352.581145 
L 529.022942 351.902949 
L 529.823057 355.243599 
L 530.623172 347.335808 
L 531.423286 353.812045 
L 533.023516 360.064153 
L 533.823631 355.073848 
L 534.623745 355.241064 
L 535.42386 350.026468 
L 536.223975 355.13588 
L 537.024089 353.264043 
L 537.824204 349.654059 
L 538.624319 354.019786 
L 539.424434 350.95169 
L 540.224548 353.940983 
L 541.024663 351.050678 
L 541.824778 355.944758 
L 542.624892 357.812392 
L 543.425007 350.211252 
L 544.225122 352.013152 
L 545.025237 356.742546 
L 545.825351 360.687322 
L 546.625466 351.584806 
L 547.425581 353.68789 
L 548.225695 352.70069 
L 549.02581 348.340145 
L 549.825925 353.142354 
L 550.62604 352.964906 
L 551.426154 355.722227 
L 552.226269 356.203283 
L 553.826498 350.590316 
L 554.626613 352.099712 
L 555.426728 359.356376 
L 556.226843 353.334021 
L 557.026957 349.432082 
L 557.827072 356.298582 
L 558.627187 355.770141 
L 559.427301 349.407995 
L 560.227416 350.539218 
L 561.027531 354.060902 
L 561.827646 355.153687 
L 562.62776 348.436015 
L 563.427875 353.810906 
L 564.22799 355.222531 
L 565.028104 359.21991 
L 565.828219 346.035384 
L 566.628334 354.470591 
L 567.428449 352.631878 
L 568.228563 360.104669 
L 569.028678 353.198831 
L 569.828793 356.393196 
L 570.628907 356.722503 
L 571.429022 362.92754 
L 573.029252 351.903698 
L 573.829366 354.798459 
L 574.629481 355.789894 
L 575.429596 356.084472 
L 576.22971 351.650609 
L 577.82994 353.750251 
L 578.630054 350.29058 
L 579.430169 350.31575 
L 580.230284 354.422093 
L 581.030399 353.382101 
L 581.830513 353.162976 
L 582.630628 352.77148 
L 583.430743 355.697939 
L 584.230857 359.617764 
L 585.030972 349.032296 
L 586.631202 339.042226 
L 587.431316 352.902512 
L 588.231431 349.713203 
L 589.031546 353.236348 
L 589.83166 347.302051 
L 590.631775 356.982331 
L 591.43189 350.386821 
L 592.232005 351.98654 
L 593.032119 352.776084 
L 593.832234 356.092017 
L 594.632349 336.736133 
L 595.432463 355.410531 
L 596.232578 353.623959 
L 597.032693 356.954227 
L 597.832808 344.632284 
L 598.632922 346.727663 
L 599.433037 349.346279 
L 600.233152 349.247732 
L 601.033266 341.408004 
L 601.833381 348.886768 
L 602.633496 339.64744 
L 603.433611 353.646402 
L 604.233725 346.913439 
L 605.03384 349.902555 
L 605.833955 352.240285 
L 606.634069 358.639388 
L 607.434184 351.219403 
L 608.234299 355.440535 
L 609.034414 355.923964 
L 609.834528 358.327829 
L 610.634643 349.477073 
L 611.434758 349.379919 
L 613.034987 355.974172 
L 613.835102 350.506121 
L 614.635217 351.014684 
L 615.435331 353.212902 
L 616.235446 359.289703 
L 617.035561 351.163059 
L 617.835675 351.041016 
L 619.435905 359.72489 
L 620.23602 348.02646 
L 621.036134 354.751263 
L 621.836249 353.728861 
L 622.636364 363.163351 
L 622.636364 363.163351 
" clip-path="url(#p6ef6fed42b)" style="fill: none; stroke: #1f77b4; stroke-width: 1.5; stroke-linecap: square"/>
   </g>
   <g id="patch_3">
    <path d="M 90 384.48 
L 90 51.84 
" style="fill: none; stroke: #000000; stroke-width: 0.8; stroke-linejoin: miter; stroke-linecap: square"/>
   </g>
   <g id="patch_4">
    <path d="M 648 384.48 
L 648 51.84 
" style="fill: none; stroke: #000000; stroke-width: 0.8; stroke-linejoin: miter; stroke-linecap: square"/>
   </g>
   <g id="patch_5">
    <path d="M 90 384.48 
L 648 384.48 
" style="fill: none; stroke: #000000; stroke-width: 0.8; stroke-linejoin: miter; stroke-linecap: square"/>
   </g>
   <g id="patch_6">
    <path d="M 90 51.84 
L 648 51.84 
" style="fill: none; stroke: #000000; stroke-width: 0.8; stroke-linejoin: miter; stroke-linecap: square"/>
   </g>
   <g id="text_17">
    <!-- Average time per index -->
    <g transform="translate(298.700625 45.84) scale(0.12 -0.12)">
     <defs>
      <path id="DejaVuSans-70" d="M 1159 525 
L 1159 -1331 
L 581 -1331 
L 581 3500 
L 1159 3500 
L 1159 2969 
Q 1341 3281 1617 3432 
Q 1894 3584 2278 3584 
Q 2916 3584 3314 3078 
Q 3713 2572 3713 1747 
Q 3713 922 3314 415 
Q 2916 -91 2278 -91 
Q 1894 -91 1617 61 
Q 1341 213 1159 525 
z
M 3116 1747 
Q 3116 2381 2855 2742 
Q 2594 3103 2138 3103 
Q 1681 3103 1420 2742 
Q 1159 2381 1159 1747 
Q 1159 1113 1420 752 
Q 1681 391 2138 391 
Q 2594 391 2855 752 
Q 3116 1113 3116 1747 
z
" transform="scale(0.015625)"/>
     </defs>
     <use xlink:href="#DejaVuSans-41"/>
     <use xlink:href="#DejaVuSans-76" transform="translate(62.533203 0)"/>
     <use xlink:href="#DejaVuSans-65" transform="translate(121.712891 0)"/>
     <use xlink:href="#DejaVuSans-72" transform="translate(183.236328 0)"/>
     <use xlink:href="#DejaVuSans-61" transform="translate(224.349609 0)"/>
     <use xlink:href="#DejaVuSans-67" transform="translate(285.628906 0)"/>
     <use xlink:href="#DejaVuSans-65" transform="translate(349.105469 0)"/>
     <use xlink:href="#DejaVuSans-20" transform="translate(410.628906 0)"/>
     <use xlink:href="#DejaVuSans-74" transform="translate(442.416016 0)"/>
     <use xlink:href="#DejaVuSans-69" transform="translate(481.625 0)"/>
     <use xlink:href="#DejaVuSans-6d" transform="translate(509.408203 0)"/>
     <use xlink:href="#DejaVuSans-65" transform="translate(606.820312 0)"/>
     <use xlink:href="#DejaVuSans-20" transform="translate(668.34375 0)"/>
     <use xlink:href="#DejaVuSans-70" transform="translate(700.130859 0)"/>
     <use xlink:href="#DejaVuSans-65" transform="translate(763.607422 0)"/>
     <use xlink:href="#DejaVuSans-72" transform="translate(825.130859 0)"/>
     <use xlink:href="#DejaVuSans-20" transform="translate(866.244141 0)"/>
     <use xlink:href="#DejaVuSans-69" transform="translate(898.03125 0)"/>
     <use xlink:href="#DejaVuSans-6e" transform="translate(925.814453 0)"/>
     <use xlink:href="#DejaVuSans-64" transform="translate(989.193359 0)"/>
     <use xlink:href="#DejaVuSans-65" transform="translate(1052.669922 0)"/>
     <use xlink:href="#DejaVuSans-78" transform="translate(1112.443359 0)"/>
    </g>
   </g>
   <g id="legend_1">
    <g id="patch_7">
     <path d="M 544.020313 74.518125 
L 641 74.518125 
Q 643 74.518125 643 72.518125 
L 643 58.84 
Q 643 56.84 641 56.84 
L 544.020313 56.84 
Q 542.020313 56.84 542.020313 58.84 
L 542.020313 72.518125 
Q 542.020313 74.518125 544.020313 74.518125 
z
" style="fill: #ffffff; opacity: 0.8; stroke: #cccccc; stroke-linejoin: miter"/>
    </g>
    <g id="line2d_16">
     <path d="M 546.020313 64.938438 
L 556.020313 64.938438 
L 566.020313 64.938438 
" style="fill: none; stroke: #1f77b4; stroke-width: 1.5; stroke-linecap: square"/>
    </g>
    <g id="text_18">
     <!-- handleResult -->
     <g transform="translate(574.020313 68.438438) scale(0.1 -0.1)">
      <defs>
       <path id="DejaVuSans-68" d="M 3513 2113 
L 3513 0 
L 2938 0 
L 2938 2094 
Q 2938 2591 2744 2837 
Q 2550 3084 2163 3084 
Q 1697 3084 1428 2787 
Q 1159 2491 1159 1978 
L 1159 0 
L 581 0 
L 581 4863 
L 1159 4863 
L 1159 2956 
Q 1366 3272 1645 3428 
Q 1925 3584 2291 3584 
Q 2894 3584 3203 3211 
Q 3513 2838 3513 2113 
z
" transform="scale(0.015625)"/>
       <path id="DejaVuSans-6c" d="M 603 4863 
L 1178 4863 
L 1178 0 
L 603 0 
L 603 4863 
z
" transform="scale(0.015625)"/>
       <path id="DejaVuSans-52" d="M 2841 2188 
Q 3044 2119 3236 1894 
Q 3428 1669 3622 1275 
L 4263 0 
L 3584 0 
L 2988 1197 
Q 2756 1666 2539 1819 
Q 2322 1972 1947 1972 
L 1259 1972 
L 1259 0 
L 628 0 
L 628 4666 
L 2053 4666 
Q 2853 4666 3247 4331 
Q 3641 3997 3641 3322 
Q 3641 2881 3436 2590 
Q 3231 2300 2841 2188 
z
M 1259 4147 
L 1259 2491 
L 2053 2491 
Q 2509 2491 2742 2702 
Q 2975 2913 2975 3322 
Q 2975 3731 2742 3939 
Q 2509 4147 2053 4147 
L 1259 4147 
z
" transform="scale(0.015625)"/>
       <path id="DejaVuSans-75" d="M 544 1381 
L 544 3500 
L 1119 3500 
L 1119 1403 
Q 1119 906 1312 657 
Q 1506 409 1894 409 
Q 2359 409 2629 706 
Q 2900 1003 2900 1516 
L 2900 3500 
L 3475 3500 
L 3475 0 
L 2900 0 
L 2900 538 
Q 2691 219 2414 64 
Q 2138 -91 1772 -91 
Q 1169 -91 856 284 
Q 544 659 544 1381 
z
M 1991 3584 
L 1991 3584 
z
" transform="scale(0.015625)"/>
      </defs>
      <use xlink:href="#DejaVuSans-68"/>
      <use xlink:href="#DejaVuSans-61" transform="translate(63.378906 0)"/>
      <use xlink:href="#DejaVuSans-6e" transform="translate(124.658203 0)"/>
      <use xlink:href="#DejaVuSans-64" transform="translate(188.037109 0)"/>
      <use xlink:href="#DejaVuSans-6c" transform="translate(251.513672 0)"/>
      <use xlink:href="#DejaVuSans-65" transform="translate(279.296875 0)"/>
      <use xlink:href="#DejaVuSans-52" transform="translate(340.820312 0)"/>
      <use xlink:href="#DejaVuSans-65" transform="translate(405.802734 0)"/>
      <use xlink:href="#DejaVuSans-73" transform="translate(467.326172 0)"/>
      <use xlink:href="#DejaVuSans-75" transform="translate(519.425781 0)"/>
      <use xlink:href="#DejaVuSans-6c" transform="translate(582.804688 0)"/>
      <use xlink:href="#DejaVuSans-74" transform="translate(610.587891 0)"/>
     </g>
    </g>
   </g>
  </g>
 </g>
 <defs>
  <clipPath id="p6ef6fed42b">
   <rect x="90" y="51.84" width="558" height="332.64"/>
  </clipPath>
 </defs>
</svg>
