<?xml version="1.0" encoding="utf-8" standalone="no"?>
<!DOCTYPE svg PUBLIC "-//W3C//DTD SVG 1.1//EN"
  "http://www.w3.org/Graphics/SVG/1.1/DTD/svg11.dtd">
<svg xmlns:xlink="http://www.w3.org/1999/xlink" width="720pt" height="432pt" viewBox="0 0 720 432" xmlns="http://www.w3.org/2000/svg" version="1.1">
 <metadata>
  <rdf:RDF xmlns:dc="http://purl.org/dc/elements/1.1/" xmlns:cc="http://creativecommons.org/ns#" xmlns:rdf="http://www.w3.org/1999/02/22-rdf-syntax-ns#">
   <cc:Work>
    <dc:type rdf:resource="http://purl.org/dc/dcmitype/StillImage"/>
    <dc:date>2025-06-10T01:38:21.317889</dc:date>
    <dc:format>image/svg+xml</dc:format>
    <dc:creator>
     <cc:Agent>
      <dc:title>Matplotlib v3.10.3, https://matplotlib.org/</dc:title>
     </cc:Agent>
    </dc:creator>
   </cc:Work>
  </rdf:RDF>
 </metadata>
 <defs>
  <style type="text/css">*{stroke-linejoin: round; stroke-linecap: butt}</style>
 </defs>
 <g id="figure_1">
  <g id="patch_1">
   <path d="M 0 432 
L 720 432 
L 720 0 
L 0 0 
z
" style="fill: #ffffff"/>
  </g>
  <g id="axes_1">
   <g id="patch_2">
    <path d="M 90 384.48 
L 648 384.48 
L 648 51.84 
L 90 51.84 
z
" style="fill: #ffffff"/>
   </g>
   <g id="matplotlib.axis_1">
    <g id="xtick_1">
     <g id="line2d_1">
      <defs>
       <path id="mabc847bc4d" d="M 0 0 
L 0 3.5 
" style="stroke: #000000; stroke-width: 0.8"/>
      </defs>
      <g>
       <use xlink:href="#mabc847bc4d" x="115.363636" y="384.48" style="stroke: #000000; stroke-width: 0.8"/>
      </g>
     </g>
     <g id="text_1">
      <!-- 0 -->
      <g transform="translate(112.182386 399.078438) scale(0.1 -0.1)">
       <defs>
        <path id="DejaVuSans-30" d="M 2034 4250 
Q 1547 4250 1301 3770 
Q 1056 3291 1056 2328 
Q 1056 1369 1301 889 
Q 1547 409 2034 409 
Q 2525 409 2770 889 
Q 3016 1369 3016 2328 
Q 3016 3291 2770 3770 
Q 2525 4250 2034 4250 
z
M 2034 4750 
Q 2819 4750 3233 4129 
Q 3647 3509 3647 2328 
Q 3647 1150 3233 529 
Q 2819 -91 2034 -91 
Q 1250 -91 836 529 
Q 422 1150 422 2328 
Q 422 3509 836 4129 
Q 1250 4750 2034 4750 
z
" transform="scale(0.015625)"/>
       </defs>
       <use xlink:href="#DejaVuSans-30"/>
      </g>
     </g>
    </g>
    <g id="xtick_2">
     <g id="line2d_2">
      <g>
       <use xlink:href="#mabc847bc4d" x="195.249105" y="384.48" style="stroke: #000000; stroke-width: 0.8"/>
      </g>
     </g>
     <g id="text_2">
      <!-- 100 -->
      <g transform="translate(185.705355 399.078438) scale(0.1 -0.1)">
       <defs>
        <path id="DejaVuSans-31" d="M 794 531 
L 1825 531 
L 1825 4091 
L 703 3866 
L 703 4441 
L 1819 4666 
L 2450 4666 
L 2450 531 
L 3481 531 
L 3481 0 
L 794 0 
L 794 531 
z
" transform="scale(0.015625)"/>
       </defs>
       <use xlink:href="#DejaVuSans-31"/>
       <use xlink:href="#DejaVuSans-30" transform="translate(63.623047 0)"/>
       <use xlink:href="#DejaVuSans-30" transform="translate(127.246094 0)"/>
      </g>
     </g>
    </g>
    <g id="xtick_3">
     <g id="line2d_3">
      <g>
       <use xlink:href="#mabc847bc4d" x="275.134574" y="384.48" style="stroke: #000000; stroke-width: 0.8"/>
      </g>
     </g>
     <g id="text_3">
      <!-- 200 -->
      <g transform="translate(265.590824 399.078438) scale(0.1 -0.1)">
       <defs>
        <path id="DejaVuSans-32" d="M 1228 531 
L 3431 531 
L 3431 0 
L 469 0 
L 469 531 
Q 828 903 1448 1529 
Q 2069 2156 2228 2338 
Q 2531 2678 2651 2914 
Q 2772 3150 2772 3378 
Q 2772 3750 2511 3984 
Q 2250 4219 1831 4219 
Q 1534 4219 1204 4116 
Q 875 4013 500 3803 
L 500 4441 
Q 881 4594 1212 4672 
Q 1544 4750 1819 4750 
Q 2544 4750 2975 4387 
Q 3406 4025 3406 3419 
Q 3406 3131 3298 2873 
Q 3191 2616 2906 2266 
Q 2828 2175 2409 1742 
Q 1991 1309 1228 531 
z
" transform="scale(0.015625)"/>
       </defs>
       <use xlink:href="#DejaVuSans-32"/>
       <use xlink:href="#DejaVuSans-30" transform="translate(63.623047 0)"/>
       <use xlink:href="#DejaVuSans-30" transform="translate(127.246094 0)"/>
      </g>
     </g>
    </g>
    <g id="xtick_4">
     <g id="line2d_4">
      <g>
       <use xlink:href="#mabc847bc4d" x="355.020043" y="384.48" style="stroke: #000000; stroke-width: 0.8"/>
      </g>
     </g>
     <g id="text_4">
      <!-- 300 -->
      <g transform="translate(345.476293 399.078438) scale(0.1 -0.1)">
       <defs>
        <path id="DejaVuSans-33" d="M 2597 2516 
Q 3050 2419 3304 2112 
Q 3559 1806 3559 1356 
Q 3559 666 3084 287 
Q 2609 -91 1734 -91 
Q 1441 -91 1130 -33 
Q 819 25 488 141 
L 488 750 
Q 750 597 1062 519 
Q 1375 441 1716 441 
Q 2309 441 2620 675 
Q 2931 909 2931 1356 
Q 2931 1769 2642 2001 
Q 2353 2234 1838 2234 
L 1294 2234 
L 1294 2753 
L 1863 2753 
Q 2328 2753 2575 2939 
Q 2822 3125 2822 3475 
Q 2822 3834 2567 4026 
Q 2313 4219 1838 4219 
Q 1578 4219 1281 4162 
Q 984 4106 628 3988 
L 628 4550 
Q 988 4650 1302 4700 
Q 1616 4750 1894 4750 
Q 2613 4750 3031 4423 
Q 3450 4097 3450 3541 
Q 3450 3153 3228 2886 
Q 3006 2619 2597 2516 
z
" transform="scale(0.015625)"/>
       </defs>
       <use xlink:href="#DejaVuSans-33"/>
       <use xlink:href="#DejaVuSans-30" transform="translate(63.623047 0)"/>
       <use xlink:href="#DejaVuSans-30" transform="translate(127.246094 0)"/>
      </g>
     </g>
    </g>
    <g id="xtick_5">
     <g id="line2d_5">
      <g>
       <use xlink:href="#mabc847bc4d" x="434.905512" y="384.48" style="stroke: #000000; stroke-width: 0.8"/>
      </g>
     </g>
     <g id="text_5">
      <!-- 400 -->
      <g transform="translate(425.361762 399.078438) scale(0.1 -0.1)">
       <defs>
        <path id="DejaVuSans-34" d="M 2419 4116 
L 825 1625 
L 2419 1625 
L 2419 4116 
z
M 2253 4666 
L 3047 4666 
L 3047 1625 
L 3713 1625 
L 3713 1100 
L 3047 1100 
L 3047 0 
L 2419 0 
L 2419 1100 
L 313 1100 
L 313 1709 
L 2253 4666 
z
" transform="scale(0.015625)"/>
       </defs>
       <use xlink:href="#DejaVuSans-34"/>
       <use xlink:href="#DejaVuSans-30" transform="translate(63.623047 0)"/>
       <use xlink:href="#DejaVuSans-30" transform="translate(127.246094 0)"/>
      </g>
     </g>
    </g>
    <g id="xtick_6">
     <g id="line2d_6">
      <g>
       <use xlink:href="#mabc847bc4d" x="514.790981" y="384.48" style="stroke: #000000; stroke-width: 0.8"/>
      </g>
     </g>
     <g id="text_6">
      <!-- 500 -->
      <g transform="translate(505.247231 399.078438) scale(0.1 -0.1)">
       <defs>
        <path id="DejaVuSans-35" d="M 691 4666 
L 3169 4666 
L 3169 4134 
L 1269 4134 
L 1269 2991 
Q 1406 3038 1543 3061 
Q 1681 3084 1819 3084 
Q 2600 3084 3056 2656 
Q 3513 2228 3513 1497 
Q 3513 744 3044 326 
Q 2575 -91 1722 -91 
Q 1428 -91 1123 -41 
Q 819 9 494 109 
L 494 744 
Q 775 591 1075 516 
Q 1375 441 1709 441 
Q 2250 441 2565 725 
Q 2881 1009 2881 1497 
Q 2881 1984 2565 2268 
Q 2250 2553 1709 2553 
Q 1456 2553 1204 2497 
Q 953 2441 691 2322 
L 691 4666 
z
" transform="scale(0.015625)"/>
       </defs>
       <use xlink:href="#DejaVuSans-35"/>
       <use xlink:href="#DejaVuSans-30" transform="translate(63.623047 0)"/>
       <use xlink:href="#DejaVuSans-30" transform="translate(127.246094 0)"/>
      </g>
     </g>
    </g>
    <g id="xtick_7">
     <g id="line2d_7">
      <g>
       <use xlink:href="#mabc847bc4d" x="594.67645" y="384.48" style="stroke: #000000; stroke-width: 0.8"/>
      </g>
     </g>
     <g id="text_7">
      <!-- 600 -->
      <g transform="translate(585.1327 399.078438) scale(0.1 -0.1)">
       <defs>
        <path id="DejaVuSans-36" d="M 2113 2584 
Q 1688 2584 1439 2293 
Q 1191 2003 1191 1497 
Q 1191 994 1439 701 
Q 1688 409 2113 409 
Q 2538 409 2786 701 
Q 3034 994 3034 1497 
Q 3034 2003 2786 2293 
Q 2538 2584 2113 2584 
z
M 3366 4563 
L 3366 3988 
Q 3128 4100 2886 4159 
Q 2644 4219 2406 4219 
Q 1781 4219 1451 3797 
Q 1122 3375 1075 2522 
Q 1259 2794 1537 2939 
Q 1816 3084 2150 3084 
Q 2853 3084 3261 2657 
Q 3669 2231 3669 1497 
Q 3669 778 3244 343 
Q 2819 -91 2113 -91 
Q 1303 -91 875 529 
Q 447 1150 447 2328 
Q 447 3434 972 4092 
Q 1497 4750 2381 4750 
Q 2619 4750 2861 4703 
Q 3103 4656 3366 4563 
z
" transform="scale(0.015625)"/>
       </defs>
       <use xlink:href="#DejaVuSans-36"/>
       <use xlink:href="#DejaVuSans-30" transform="translate(63.623047 0)"/>
       <use xlink:href="#DejaVuSans-30" transform="translate(127.246094 0)"/>
      </g>
     </g>
    </g>
    <g id="text_8">
     <!-- Index -->
     <g transform="translate(355.233594 412.756563) scale(0.1 -0.1)">
      <defs>
       <path id="DejaVuSans-49" d="M 628 4666 
L 1259 4666 
L 1259 0 
L 628 0 
L 628 4666 
z
" transform="scale(0.015625)"/>
       <path id="DejaVuSans-6e" d="M 3513 2113 
L 3513 0 
L 2938 0 
L 2938 2094 
Q 2938 2591 2744 2837 
Q 2550 3084 2163 3084 
Q 1697 3084 1428 2787 
Q 1159 2491 1159 1978 
L 1159 0 
L 581 0 
L 581 3500 
L 1159 3500 
L 1159 2956 
Q 1366 3272 1645 3428 
Q 1925 3584 2291 3584 
Q 2894 3584 3203 3211 
Q 3513 2838 3513 2113 
z
" transform="scale(0.015625)"/>
       <path id="DejaVuSans-64" d="M 2906 2969 
L 2906 4863 
L 3481 4863 
L 3481 0 
L 2906 0 
L 2906 525 
Q 2725 213 2448 61 
Q 2172 -91 1784 -91 
Q 1150 -91 751 415 
Q 353 922 353 1747 
Q 353 2572 751 3078 
Q 1150 3584 1784 3584 
Q 2172 3584 2448 3432 
Q 2725 3281 2906 2969 
z
M 947 1747 
Q 947 1113 1208 752 
Q 1469 391 1925 391 
Q 2381 391 2643 752 
Q 2906 1113 2906 1747 
Q 2906 2381 2643 2742 
Q 2381 3103 1925 3103 
Q 1469 3103 1208 2742 
Q 947 2381 947 1747 
z
" transform="scale(0.015625)"/>
       <path id="DejaVuSans-65" d="M 3597 1894 
L 3597 1613 
L 953 1613 
Q 991 1019 1311 708 
Q 1631 397 2203 397 
Q 2534 397 2845 478 
Q 3156 559 3463 722 
L 3463 178 
Q 3153 47 2828 -22 
Q 2503 -91 2169 -91 
Q 1331 -91 842 396 
Q 353 884 353 1716 
Q 353 2575 817 3079 
Q 1281 3584 2069 3584 
Q 2775 3584 3186 3129 
Q 3597 2675 3597 1894 
z
M 3022 2063 
Q 3016 2534 2758 2815 
Q 2500 3097 2075 3097 
Q 1594 3097 1305 2825 
Q 1016 2553 972 2059 
L 3022 2063 
z
" transform="scale(0.015625)"/>
       <path id="DejaVuSans-78" d="M 3513 3500 
L 2247 1797 
L 3578 0 
L 2900 0 
L 1881 1375 
L 863 0 
L 184 0 
L 1544 1831 
L 300 3500 
L 978 3500 
L 1906 2253 
L 2834 3500 
L 3513 3500 
z
" transform="scale(0.015625)"/>
      </defs>
      <use xlink:href="#DejaVuSans-49"/>
      <use xlink:href="#DejaVuSans-6e" transform="translate(29.492188 0)"/>
      <use xlink:href="#DejaVuSans-64" transform="translate(92.871094 0)"/>
      <use xlink:href="#DejaVuSans-65" transform="translate(156.347656 0)"/>
      <use xlink:href="#DejaVuSans-78" transform="translate(216.121094 0)"/>
     </g>
    </g>
   </g>
   <g id="matplotlib.axis_2">
    <g id="ytick_1">
     <g id="line2d_8">
      <defs>
       <path id="m2783a4441f" d="M 0 0 
L -3.5 0 
" style="stroke: #000000; stroke-width: 0.8"/>
      </defs>
      <g>
       <use xlink:href="#m2783a4441f" x="90" y="384.48" style="stroke: #000000; stroke-width: 0.8"/>
      </g>
     </g>
     <g id="text_9">
      <!-- 0 -->
      <g transform="translate(76.6375 388.279219) scale(0.1 -0.1)">
       <use xlink:href="#DejaVuSans-30"/>
      </g>
     </g>
    </g>
    <g id="ytick_2">
     <g id="line2d_9">
      <g>
       <use xlink:href="#m2783a4441f" x="90" y="324.785948" style="stroke: #000000; stroke-width: 0.8"/>
      </g>
     </g>
     <g id="text_10">
      <!-- 50 -->
      <g transform="translate(70.275 328.585167) scale(0.1 -0.1)">
       <use xlink:href="#DejaVuSans-35"/>
       <use xlink:href="#DejaVuSans-30" transform="translate(63.623047 0)"/>
      </g>
     </g>
    </g>
    <g id="ytick_3">
     <g id="line2d_10">
      <g>
       <use xlink:href="#m2783a4441f" x="90" y="265.091897" style="stroke: #000000; stroke-width: 0.8"/>
      </g>
     </g>
     <g id="text_11">
      <!-- 100 -->
      <g transform="translate(63.9125 268.891116) scale(0.1 -0.1)">
       <use xlink:href="#DejaVuSans-31"/>
       <use xlink:href="#DejaVuSans-30" transform="translate(63.623047 0)"/>
       <use xlink:href="#DejaVuSans-30" transform="translate(127.246094 0)"/>
      </g>
     </g>
    </g>
    <g id="ytick_4">
     <g id="line2d_11">
      <g>
       <use xlink:href="#m2783a4441f" x="90" y="205.397845" style="stroke: #000000; stroke-width: 0.8"/>
      </g>
     </g>
     <g id="text_12">
      <!-- 150 -->
      <g transform="translate(63.9125 209.197064) scale(0.1 -0.1)">
       <use xlink:href="#DejaVuSans-31"/>
       <use xlink:href="#DejaVuSans-35" transform="translate(63.623047 0)"/>
       <use xlink:href="#DejaVuSans-30" transform="translate(127.246094 0)"/>
      </g>
     </g>
    </g>
    <g id="ytick_5">
     <g id="line2d_12">
      <g>
       <use xlink:href="#m2783a4441f" x="90" y="145.703794" style="stroke: #000000; stroke-width: 0.8"/>
      </g>
     </g>
     <g id="text_13">
      <!-- 200 -->
      <g transform="translate(63.9125 149.503012) scale(0.1 -0.1)">
       <use xlink:href="#DejaVuSans-32"/>
       <use xlink:href="#DejaVuSans-30" transform="translate(63.623047 0)"/>
       <use xlink:href="#DejaVuSans-30" transform="translate(127.246094 0)"/>
      </g>
     </g>
    </g>
    <g id="ytick_6">
     <g id="line2d_13">
      <g>
       <use xlink:href="#m2783a4441f" x="90" y="86.009742" style="stroke: #000000; stroke-width: 0.8"/>
      </g>
     </g>
     <g id="text_14">
      <!-- 250 -->
      <g transform="translate(63.9125 89.808961) scale(0.1 -0.1)">
       <use xlink:href="#DejaVuSans-32"/>
       <use xlink:href="#DejaVuSans-35" transform="translate(63.623047 0)"/>
       <use xlink:href="#DejaVuSans-30" transform="translate(127.246094 0)"/>
      </g>
     </g>
    </g>
    <g id="text_15">
     <!-- Average time (ms) -->
     <g transform="translate(57.832812 264.543594) rotate(-90) scale(0.1 -0.1)">
      <defs>
       <path id="DejaVuSans-41" d="M 2188 4044 
L 1331 1722 
L 3047 1722 
L 2188 4044 
z
M 1831 4666 
L 2547 4666 
L 4325 0 
L 3669 0 
L 3244 1197 
L 1141 1197 
L 716 0 
L 50 0 
L 1831 4666 
z
" transform="scale(0.015625)"/>
       <path id="DejaVuSans-76" d="M 191 3500 
L 800 3500 
L 1894 563 
L 2988 3500 
L 3597 3500 
L 2284 0 
L 1503 0 
L 191 3500 
z
" transform="scale(0.015625)"/>
       <path id="DejaVuSans-72" d="M 2631 2963 
Q 2534 3019 2420 3045 
Q 2306 3072 2169 3072 
Q 1681 3072 1420 2755 
Q 1159 2438 1159 1844 
L 1159 0 
L 581 0 
L 581 3500 
L 1159 3500 
L 1159 2956 
Q 1341 3275 1631 3429 
Q 1922 3584 2338 3584 
Q 2397 3584 2469 3576 
Q 2541 3569 2628 3553 
L 2631 2963 
z
" transform="scale(0.015625)"/>
       <path id="DejaVuSans-61" d="M 2194 1759 
Q 1497 1759 1228 1600 
Q 959 1441 959 1056 
Q 959 750 1161 570 
Q 1363 391 1709 391 
Q 2188 391 2477 730 
Q 2766 1069 2766 1631 
L 2766 1759 
L 2194 1759 
z
M 3341 1997 
L 3341 0 
L 2766 0 
L 2766 531 
Q 2569 213 2275 61 
Q 1981 -91 1556 -91 
Q 1019 -91 701 211 
Q 384 513 384 1019 
Q 384 1609 779 1909 
Q 1175 2209 1959 2209 
L 2766 2209 
L 2766 2266 
Q 2766 2663 2505 2880 
Q 2244 3097 1772 3097 
Q 1472 3097 1187 3025 
Q 903 2953 641 2809 
L 641 3341 
Q 956 3463 1253 3523 
Q 1550 3584 1831 3584 
Q 2591 3584 2966 3190 
Q 3341 2797 3341 1997 
z
" transform="scale(0.015625)"/>
       <path id="DejaVuSans-67" d="M 2906 1791 
Q 2906 2416 2648 2759 
Q 2391 3103 1925 3103 
Q 1463 3103 1205 2759 
Q 947 2416 947 1791 
Q 947 1169 1205 825 
Q 1463 481 1925 481 
Q 2391 481 2648 825 
Q 2906 1169 2906 1791 
z
M 3481 434 
Q 3481 -459 3084 -895 
Q 2688 -1331 1869 -1331 
Q 1566 -1331 1297 -1286 
Q 1028 -1241 775 -1147 
L 775 -588 
Q 1028 -725 1275 -790 
Q 1522 -856 1778 -856 
Q 2344 -856 2625 -561 
Q 2906 -266 2906 331 
L 2906 616 
Q 2728 306 2450 153 
Q 2172 0 1784 0 
Q 1141 0 747 490 
Q 353 981 353 1791 
Q 353 2603 747 3093 
Q 1141 3584 1784 3584 
Q 2172 3584 2450 3431 
Q 2728 3278 2906 2969 
L 2906 3500 
L 3481 3500 
L 3481 434 
z
" transform="scale(0.015625)"/>
       <path id="DejaVuSans-20" transform="scale(0.015625)"/>
       <path id="DejaVuSans-74" d="M 1172 4494 
L 1172 3500 
L 2356 3500 
L 2356 3053 
L 1172 3053 
L 1172 1153 
Q 1172 725 1289 603 
Q 1406 481 1766 481 
L 2356 481 
L 2356 0 
L 1766 0 
Q 1100 0 847 248 
Q 594 497 594 1153 
L 594 3053 
L 172 3053 
L 172 3500 
L 594 3500 
L 594 4494 
L 1172 4494 
z
" transform="scale(0.015625)"/>
       <path id="DejaVuSans-69" d="M 603 3500 
L 1178 3500 
L 1178 0 
L 603 0 
L 603 3500 
z
M 603 4863 
L 1178 4863 
L 1178 4134 
L 603 4134 
L 603 4863 
z
" transform="scale(0.015625)"/>
       <path id="DejaVuSans-6d" d="M 3328 2828 
Q 3544 3216 3844 3400 
Q 4144 3584 4550 3584 
Q 5097 3584 5394 3201 
Q 5691 2819 5691 2113 
L 5691 0 
L 5113 0 
L 5113 2094 
Q 5113 2597 4934 2840 
Q 4756 3084 4391 3084 
Q 3944 3084 3684 2787 
Q 3425 2491 3425 1978 
L 3425 0 
L 2847 0 
L 2847 2094 
Q 2847 2600 2669 2842 
Q 2491 3084 2119 3084 
Q 1678 3084 1418 2786 
Q 1159 2488 1159 1978 
L 1159 0 
L 581 0 
L 581 3500 
L 1159 3500 
L 1159 2956 
Q 1356 3278 1631 3431 
Q 1906 3584 2284 3584 
Q 2666 3584 2933 3390 
Q 3200 3197 3328 2828 
z
" transform="scale(0.015625)"/>
       <path id="DejaVuSans-28" d="M 1984 4856 
Q 1566 4138 1362 3434 
Q 1159 2731 1159 2009 
Q 1159 1288 1364 580 
Q 1569 -128 1984 -844 
L 1484 -844 
Q 1016 -109 783 600 
Q 550 1309 550 2009 
Q 550 2706 781 3412 
Q 1013 4119 1484 4856 
L 1984 4856 
z
" transform="scale(0.015625)"/>
       <path id="DejaVuSans-73" d="M 2834 3397 
L 2834 2853 
Q 2591 2978 2328 3040 
Q 2066 3103 1784 3103 
Q 1356 3103 1142 2972 
Q 928 2841 928 2578 
Q 928 2378 1081 2264 
Q 1234 2150 1697 2047 
L 1894 2003 
Q 2506 1872 2764 1633 
Q 3022 1394 3022 966 
Q 3022 478 2636 193 
Q 2250 -91 1575 -91 
Q 1294 -91 989 -36 
Q 684 19 347 128 
L 347 722 
Q 666 556 975 473 
Q 1284 391 1588 391 
Q 1994 391 2212 530 
Q 2431 669 2431 922 
Q 2431 1156 2273 1281 
Q 2116 1406 1581 1522 
L 1381 1569 
Q 847 1681 609 1914 
Q 372 2147 372 2553 
Q 372 3047 722 3315 
Q 1072 3584 1716 3584 
Q 2034 3584 2315 3537 
Q 2597 3491 2834 3397 
z
" transform="scale(0.015625)"/>
       <path id="DejaVuSans-29" d="M 513 4856 
L 1013 4856 
Q 1481 4119 1714 3412 
Q 1947 2706 1947 2009 
Q 1947 1309 1714 600 
Q 1481 -109 1013 -844 
L 513 -844 
Q 928 -128 1133 580 
Q 1338 1288 1338 2009 
Q 1338 2731 1133 3434 
Q 928 4138 513 4856 
z
" transform="scale(0.015625)"/>
      </defs>
      <use xlink:href="#DejaVuSans-41"/>
      <use xlink:href="#DejaVuSans-76" transform="translate(62.533203 0)"/>
      <use xlink:href="#DejaVuSans-65" transform="translate(121.712891 0)"/>
      <use xlink:href="#DejaVuSans-72" transform="translate(183.236328 0)"/>
      <use xlink:href="#DejaVuSans-61" transform="translate(224.349609 0)"/>
      <use xlink:href="#DejaVuSans-67" transform="translate(285.628906 0)"/>
      <use xlink:href="#DejaVuSans-65" transform="translate(349.105469 0)"/>
      <use xlink:href="#DejaVuSans-20" transform="translate(410.628906 0)"/>
      <use xlink:href="#DejaVuSans-74" transform="translate(442.416016 0)"/>
      <use xlink:href="#DejaVuSans-69" transform="translate(481.625 0)"/>
      <use xlink:href="#DejaVuSans-6d" transform="translate(509.408203 0)"/>
      <use xlink:href="#DejaVuSans-65" transform="translate(606.820312 0)"/>
      <use xlink:href="#DejaVuSans-20" transform="translate(668.34375 0)"/>
      <use xlink:href="#DejaVuSans-28" transform="translate(700.130859 0)"/>
      <use xlink:href="#DejaVuSans-6d" transform="translate(739.144531 0)"/>
      <use xlink:href="#DejaVuSans-73" transform="translate(836.556641 0)"/>
      <use xlink:href="#DejaVuSans-29" transform="translate(888.65625 0)"/>
     </g>
    </g>
   </g>
   <g id="line2d_14">
    <path d="M 115.363636 381.857537 
L 116.162491 377.175639 
L 116.961346 376.060761 
L 117.7602 378.329026 
L 118.559055 377.16655 
L 119.35791 378.449453 
L 120.156764 380.031714 
L 120.955619 379.815742 
L 121.754474 379.862585 
L 122.553329 380.346177 
L 123.352183 381.264135 
L 124.949893 380.817923 
L 125.748747 380.441575 
L 126.547602 381.907087 
L 127.346457 380.822159 
L 128.145311 381.817305 
L 128.944166 379.959024 
L 129.743021 380.069023 
L 130.541875 379.422916 
L 131.34073 380.818649 
L 132.93844 382.554364 
L 133.737294 382.31638 
L 134.536149 383.126778 
L 135.335004 383.328504 
L 136.133858 383.297237 
L 136.932713 375.505636 
L 137.731568 381.399723 
L 138.530422 382.450393 
L 139.329277 382.706928 
L 140.128132 382.245355 
L 140.926986 382.777354 
L 141.725841 382.79852 
L 142.524696 382.169894 
L 143.32355 382.197057 
L 144.122405 382.864462 
L 145.720115 382.599324 
L 146.518969 379.20625 
L 147.317824 382.781677 
L 148.116679 382.897246 
L 148.915533 382.652158 
L 149.714388 382.580615 
L 151.312097 381.99949 
L 152.909807 383.017129 
L 153.708661 383.045737 
L 154.507516 381.637129 
L 155.306371 382.997057 
L 156.105225 379.828752 
L 156.90408 382.841812 
L 157.702935 382.761794 
L 158.50179 383.08954 
L 159.300644 382.890406 
L 160.099499 382.868856 
L 160.898354 382.695187 
L 162.496063 382.952785 
L 163.294918 382.805679 
L 164.093772 382.894677 
L 164.892627 382.561707 
L 165.691482 380.559803 
L 166.490336 383.081035 
L 167.289191 382.661813 
L 168.088046 382.907678 
L 168.886901 382.237228 
L 169.685755 382.676865 
L 170.48461 382.643175 
L 171.283465 382.833321 
L 172.082319 382.631338 
L 172.881174 381.660503 
L 173.680029 381.973376 
L 174.478883 382.78487 
L 175.277738 380.870589 
L 176.076593 382.639272 
L 176.875447 383.032632 
L 177.674302 382.824006 
L 178.473157 383.122907 
L 180.869721 382.877423 
L 181.668576 380.952317 
L 182.46743 383.041241 
L 183.266285 382.895117 
L 184.863994 382.942634 
L 185.662849 382.716085 
L 186.461704 382.954336 
L 187.260558 383.007728 
L 188.059413 381.096248 
L 188.858268 382.554812 
L 189.657122 382.467468 
L 190.455977 383.07706 
L 191.254832 382.906637 
L 192.053686 382.864204 
L 192.852541 382.948342 
L 193.651396 380.968178 
L 194.450251 381.474254 
L 195.249105 383.185372 
L 196.04796 383.004229 
L 196.846815 383.014699 
L 197.645669 382.883286 
L 198.444524 382.958644 
L 199.243379 382.71422 
L 200.042233 382.789596 
L 200.841088 381.543024 
L 201.639943 382.880586 
L 202.438797 382.671814 
L 203.237652 383.033064 
L 204.036507 381.570666 
L 204.835361 382.88325 
L 206.433071 382.898951 
L 207.231926 381.094079 
L 208.03078 382.853551 
L 208.829635 382.951193 
L 209.62849 382.911709 
L 210.427344 381.545274 
L 211.226199 382.84282 
L 212.025054 382.020422 
L 212.823908 382.26901 
L 213.622763 376.849979 
L 214.421618 382.920173 
L 215.220472 382.84258 
L 216.019327 382.995655 
L 216.818182 382.604094 
L 217.617037 382.556425 
L 218.415891 382.901525 
L 219.214746 382.944327 
L 220.013601 381.507289 
L 220.812455 382.840884 
L 221.61131 382.835966 
L 222.410165 382.632947 
L 223.209019 382.664239 
L 224.007874 382.88403 
L 224.806729 382.748554 
L 225.605583 382.78737 
L 226.404438 380.900763 
L 227.203293 382.430523 
L 228.002147 382.788181 
L 228.801002 382.101039 
L 229.599857 383.023625 
L 231.197566 382.810614 
L 231.996421 382.901031 
L 232.795276 381.749552 
L 233.59413 382.846064 
L 235.990694 382.97877 
L 236.789549 382.779898 
L 238.387258 382.785735 
L 239.186113 381.849868 
L 239.984968 382.723723 
L 240.783822 382.569872 
L 241.582677 382.593417 
L 242.381532 381.532346 
L 243.180387 382.586909 
L 243.979241 382.431549 
L 244.778096 382.607537 
L 245.576951 379.402132 
L 246.375805 382.806079 
L 247.17466 382.624611 
L 247.973515 382.597773 
L 248.772369 381.759821 
L 249.571224 382.452038 
L 250.370079 382.47556 
L 251.168933 382.213778 
L 251.967788 375.595983 
L 252.766643 382.679319 
L 253.565497 382.84566 
L 255.163207 382.667979 
L 255.962062 382.70444 
L 256.760916 382.547379 
L 257.559771 382.712595 
L 258.358626 381.170401 
L 259.15748 382.29279 
L 259.956335 382.142774 
L 261.554044 382.448139 
L 262.352899 382.40913 
L 263.151754 382.823296 
L 263.950608 382.719698 
L 264.749463 380.596467 
L 265.548318 382.887874 
L 266.347173 382.939202 
L 267.146027 382.829146 
L 267.944882 382.369467 
L 268.743737 382.691329 
L 269.542591 382.530493 
L 270.341446 382.585619 
L 271.140301 381.52519 
L 271.939155 382.764637 
L 272.73801 382.629101 
L 273.536865 382.809911 
L 274.335719 382.438907 
L 275.134574 382.669159 
L 275.933429 381.394436 
L 276.732283 380.829658 
L 277.531138 381.399909 
L 278.329993 382.345149 
L 279.927702 382.560176 
L 280.726557 381.875479 
L 281.525412 382.391401 
L 282.324266 382.35026 
L 283.123121 382.511741 
L 283.921976 381.659364 
L 284.72083 382.330735 
L 285.519685 382.423235 
L 286.31854 382.690315 
L 287.117394 381.767044 
L 287.916249 382.506128 
L 289.513958 382.61216 
L 290.312813 375.847835 
L 291.111668 382.248131 
L 291.910523 382.962054 
L 292.709377 382.067443 
L 293.508232 382.240836 
L 294.307087 382.583219 
L 295.105941 382.686436 
L 295.904796 382.675678 
L 296.703651 381.362416 
L 297.502505 382.705848 
L 298.30136 382.576566 
L 299.100215 382.736464 
L 299.899069 382.391724 
L 300.697924 382.618101 
L 301.496779 382.728565 
L 302.295634 382.613977 
L 303.094488 381.881747 
L 303.893343 382.700352 
L 305.491052 382.80869 
L 306.289907 382.011573 
L 307.088762 382.478986 
L 307.887616 382.130878 
L 308.686471 382.370302 
L 309.485326 381.470568 
L 310.28418 382.618269 
L 311.083035 382.182408 
L 311.88189 382.797062 
L 312.680744 382.269113 
L 313.479599 382.316452 
L 314.278454 382.600559 
L 315.077309 382.701031 
L 315.876163 381.805304 
L 316.675018 382.42137 
L 317.473873 382.305459 
L 318.272727 382.383733 
L 319.071582 381.096687 
L 319.870437 382.366963 
L 320.669291 381.979145 
L 321.468146 381.960494 
L 322.267001 381.331336 
L 323.065855 382.019723 
L 323.86471 382.442839 
L 324.663565 382.203319 
L 325.462419 381.010673 
L 326.261274 382.460341 
L 327.060129 382.266448 
L 327.858984 382.452618 
L 328.657838 378.837201 
L 329.456693 382.116261 
L 330.255548 381.759867 
L 331.054402 382.604393 
L 331.853257 382.385863 
L 332.652112 381.659704 
L 333.450966 382.265335 
L 334.249821 382.214727 
L 335.048676 380.629583 
L 335.84753 382.489598 
L 336.646385 382.579296 
L 339.841804 382.221458 
L 340.640659 382.413598 
L 341.439513 381.579294 
L 342.238368 382.581529 
L 344.634932 382.351623 
L 345.433787 382.185462 
L 346.232641 382.216225 
L 347.031496 381.172182 
L 347.830351 381.272179 
L 348.629205 382.29524 
L 349.42806 382.448425 
L 350.226915 382.487505 
L 351.02577 382.220227 
L 351.824624 382.304532 
L 352.623479 381.87716 
L 353.422334 382.33069 
L 354.221188 380.907994 
L 355.020043 382.11565 
L 355.818898 382.283995 
L 356.617752 382.178151 
L 357.416607 380.61023 
L 358.215462 381.88756 
L 359.014316 382.005036 
L 359.813171 380.626308 
L 361.41088 382.159874 
L 362.209735 382.234674 
L 363.00859 382.195943 
L 363.807445 381.416076 
L 364.606299 382.174811 
L 365.405154 382.263136 
L 366.204009 382.238197 
L 367.002863 377.623618 
L 367.801718 382.103887 
L 368.600573 381.98926 
L 369.399427 382.12902 
L 370.198282 380.493121 
L 370.997137 382.203668 
L 371.795991 381.467123 
L 372.594846 382.059464 
L 373.393701 381.635681 
L 374.192555 382.146548 
L 375.790265 382.155576 
L 376.58912 381.242248 
L 377.387974 382.127326 
L 378.186829 381.206199 
L 378.985684 381.99301 
L 379.784538 376.996113 
L 380.583393 382.208098 
L 381.382248 381.779616 
L 382.181102 382.113811 
L 382.979957 380.581962 
L 383.778812 382.383878 
L 384.577666 382.402351 
L 385.376521 382.173256 
L 386.175376 381.332654 
L 386.97423 382.155973 
L 387.773085 381.958336 
L 388.57194 382.204885 
L 389.370795 381.008047 
L 390.169649 382.238029 
L 390.968504 381.785756 
L 391.767359 381.534318 
L 392.566213 376.073957 
L 393.365068 382.137141 
L 394.163923 382.221411 
L 394.962777 382.148031 
L 395.761632 381.168515 
L 397.359341 382.288175 
L 398.158196 382.284798 
L 398.957051 381.17834 
L 399.755906 381.818682 
L 400.55476 382.189963 
L 401.353615 382.139782 
L 402.15247 379.270592 
L 402.951324 381.691469 
L 403.750179 381.726476 
L 404.549034 382.045549 
L 405.347888 377.87542 
L 406.146743 381.645857 
L 406.945598 381.538124 
L 407.744452 381.876493 
L 408.543307 380.808949 
L 409.342162 382.291732 
L 410.939871 381.553444 
L 411.738726 381.14448 
L 412.537581 381.849488 
L 413.336435 382.15114 
L 414.13529 381.779145 
L 414.934145 381.099582 
L 415.732999 381.988752 
L 416.531854 382.123366 
L 417.330709 382.06323 
L 418.129563 359.9708 
L 418.928418 381.683162 
L 419.727273 381.635872 
L 420.526127 381.989443 
L 421.324982 379.963392 
L 422.123837 381.091804 
L 423.721546 380.939414 
L 424.520401 380.760474 
L 425.319256 381.68757 
L 426.11811 381.723444 
L 426.916965 381.536824 
L 427.71582 379.241162 
L 428.514674 381.338522 
L 429.313529 381.443575 
L 430.112384 381.106203 
L 430.911238 374.093421 
L 431.710093 379.974707 
L 432.508948 381.263314 
L 433.307802 381.144157 
L 434.106657 380.011911 
L 434.905512 381.470705 
L 435.704366 381.434435 
L 436.503221 381.904464 
L 437.302076 380.874305 
L 438.100931 381.637523 
L 438.899785 381.266719 
L 439.69864 381.110622 
L 440.497495 380.640809 
L 441.296349 381.406578 
L 442.095204 381.369173 
L 442.894059 381.171816 
L 443.692913 376.525582 
L 444.491768 381.404669 
L 445.290623 381.57681 
L 446.089477 381.475423 
L 446.888332 380.490811 
L 447.687187 381.125935 
L 449.284896 381.60358 
L 450.083751 380.862369 
L 450.882606 381.247311 
L 451.68146 381.449823 
L 452.480315 380.20267 
L 453.27917 379.513903 
L 454.078024 380.984834 
L 454.876879 381.021003 
L 455.675734 381.584259 
L 456.474588 377.149855 
L 457.273443 380.438434 
L 458.072298 380.697765 
L 458.871152 380.543947 
L 460.468862 379.554737 
L 461.267717 381.1308 
L 462.066571 380.689733 
L 462.865426 378.853632 
L 463.664281 380.960652 
L 464.463135 381.324937 
L 465.26199 380.601274 
L 466.060845 379.496656 
L 466.859699 380.781356 
L 467.658554 380.865699 
L 468.457409 380.63045 
L 469.256263 349.406198 
L 470.055118 380.841616 
L 470.853973 380.52901 
L 471.652827 380.683982 
L 472.451682 379.01657 
L 473.250537 380.813929 
L 474.049392 380.689652 
L 474.848246 380.78179 
L 475.647101 378.893841 
L 476.445956 380.583626 
L 477.24481 379.396147 
L 478.043665 380.405708 
L 478.84252 377.70711 
L 479.641374 380.831798 
L 480.440229 380.498332 
L 481.239084 380.79325 
L 482.037938 373.001317 
L 482.836793 380.578955 
L 483.635648 379.903342 
L 484.434503 380.568723 
L 485.233357 378.557426 
L 486.032212 381.113249 
L 486.831067 380.110479 
L 487.629921 380.649961 
L 488.428776 378.189501 
L 489.227631 380.907392 
L 490.026485 380.80974 
L 490.82534 380.84022 
L 491.624195 378.060939 
L 492.423049 380.923475 
L 493.221904 380.577688 
L 494.020759 380.955271 
L 494.819613 373.814009 
L 495.618468 380.458216 
L 496.417323 380.418253 
L 497.216178 379.100072 
L 498.015032 379.059738 
L 498.813887 380.49043 
L 500.411596 380.635568 
L 501.210451 378.500069 
L 502.009306 380.586037 
L 502.80816 380.422694 
L 503.607015 380.542905 
L 504.40587 377.917251 
L 505.204724 380.984539 
L 506.802434 380.777901 
L 507.601288 376.32402 
L 508.400143 380.146864 
L 509.198998 379.558291 
L 509.997853 380.919859 
L 510.796707 379.9923 
L 511.595562 380.799842 
L 512.394417 380.48285 
L 513.193271 380.600754 
L 513.992126 379.31116 
L 514.790981 380.763397 
L 515.589835 380.709193 
L 516.38869 380.293729 
L 517.187545 379.372586 
L 517.986399 380.696273 
L 518.785254 378.698951 
L 519.584109 380.846079 
L 520.382963 363.731854 
L 521.181818 380.006939 
L 521.980673 380.699466 
L 522.779528 380.077618 
L 523.578382 379.935716 
L 524.377237 380.864032 
L 525.176092 380.974434 
L 525.974946 380.128605 
L 526.773801 380.065046 
L 527.572656 380.775707 
L 528.37151 380.766743 
L 529.170365 380.95313 
L 529.96922 376.992009 
L 530.768074 380.093367 
L 532.365784 381.127382 
L 533.164639 376.680527 
L 533.963493 381.122912 
L 534.762348 381.124725 
L 535.561203 381.008926 
L 536.360057 380.148458 
L 537.158912 381.057347 
L 537.957767 380.859809 
L 538.756621 380.977037 
L 539.555476 380.056817 
L 540.354331 381.132614 
L 541.153185 380.577584 
L 541.95204 380.90789 
L 542.750895 380.023931 
L 543.549749 380.661618 
L 544.348604 380.651241 
L 545.147459 380.378237 
L 545.946314 376.622821 
L 546.745168 379.345333 
L 547.544023 381.234754 
L 549.141732 379.679385 
L 549.940587 381.040084 
L 550.739442 380.879028 
L 551.538296 381.159696 
L 552.337151 379.571376 
L 553.136006 380.962195 
L 553.93486 381.084839 
L 554.733715 380.98168 
L 555.53257 379.922097 
L 556.331424 380.89567 
L 557.130279 380.411331 
L 557.929134 381.057887 
L 558.727989 375.250827 
L 559.526843 379.954457 
L 561.124553 380.936872 
L 561.923407 378.42933 
L 562.722262 380.671074 
L 563.521117 380.831357 
L 564.319971 380.761888 
L 565.118826 380.178313 
L 565.917681 380.622137 
L 566.716535 380.719523 
L 567.51539 379.712034 
L 568.314245 378.930082 
L 569.113099 380.833956 
L 569.911954 381.020079 
L 570.710809 381.021354 
L 571.509664 364.037582 
L 572.308518 380.238748 
L 573.107373 380.517091 
L 573.906228 380.472849 
L 574.705082 379.715446 
L 575.503937 380.990205 
L 576.302792 380.477218 
L 577.101646 380.703876 
L 577.900501 379.548183 
L 578.699356 380.54469 
L 579.49821 380.608036 
L 580.297065 381.183123 
L 581.09592 379.826923 
L 581.894775 380.906683 
L 582.693629 380.232251 
L 583.492484 380.814957 
L 584.291339 376.914372 
L 585.090193 378.282963 
L 585.889048 380.598514 
L 586.687903 379.703301 
L 587.486757 379.851721 
L 588.285612 380.472728 
L 589.084467 380.827996 
L 589.883321 379.814625 
L 590.682176 379.313126 
L 591.481031 380.548581 
L 592.279885 380.762738 
L 593.07874 380.371938 
L 593.877595 379.780591 
L 594.67645 380.524254 
L 595.475304 379.542981 
L 596.274159 379.957289 
L 597.073014 375.818324 
L 597.871868 379.613234 
L 598.670723 380.317173 
L 599.469578 379.95818 
L 600.268432 378.782986 
L 601.067287 380.710595 
L 601.866142 380.266522 
L 602.664996 380.278441 
L 603.463851 379.045439 
L 604.262706 380.520883 
L 605.06156 380.907992 
L 605.860415 380.845335 
L 606.65927 379.497688 
L 607.458125 380.526171 
L 608.256979 380.951704 
L 609.055834 380.749008 
L 609.854689 375.753625 
L 610.653543 380.231768 
L 611.452398 379.821399 
L 612.251253 378.63669 
L 613.050107 378.658388 
L 614.647817 380.420457 
L 615.446671 380.345663 
L 616.245526 379.418749 
L 617.044381 379.682162 
L 617.843236 380.207005 
L 618.64209 379.602501 
L 619.440945 378.3385 
L 620.2398 379.857664 
L 621.837509 379.99148 
L 622.636364 67.625167 
L 622.636364 67.625167 
" clip-path="url(#p6b4261cd5a)" style="fill: none; stroke: #1f77b4; stroke-width: 1.5; stroke-linecap: square"/>
   </g>
   <g id="patch_3">
    <path d="M 90 384.48 
L 90 51.84 
" style="fill: none; stroke: #000000; stroke-width: 0.8; stroke-linejoin: miter; stroke-linecap: square"/>
   </g>
   <g id="patch_4">
    <path d="M 648 384.48 
L 648 51.84 
" style="fill: none; stroke: #000000; stroke-width: 0.8; stroke-linejoin: miter; stroke-linecap: square"/>
   </g>
   <g id="patch_5">
    <path d="M 90 384.48 
L 648 384.48 
" style="fill: none; stroke: #000000; stroke-width: 0.8; stroke-linejoin: miter; stroke-linecap: square"/>
   </g>
   <g id="patch_6">
    <path d="M 90 51.84 
L 648 51.84 
" style="fill: none; stroke: #000000; stroke-width: 0.8; stroke-linejoin: miter; stroke-linecap: square"/>
   </g>
   <g id="text_16">
    <!-- Average time per index -->
    <g transform="translate(298.700625 45.84) scale(0.12 -0.12)">
     <defs>
      <path id="DejaVuSans-70" d="M 1159 525 
L 1159 -1331 
L 581 -1331 
L 581 3500 
L 1159 3500 
L 1159 2969 
Q 1341 3281 1617 3432 
Q 1894 3584 2278 3584 
Q 2916 3584 3314 3078 
Q 3713 2572 3713 1747 
Q 3713 922 3314 415 
Q 2916 -91 2278 -91 
Q 1894 -91 1617 61 
Q 1341 213 1159 525 
z
M 3116 1747 
Q 3116 2381 2855 2742 
Q 2594 3103 2138 3103 
Q 1681 3103 1420 2742 
Q 1159 2381 1159 1747 
Q 1159 1113 1420 752 
Q 1681 391 2138 391 
Q 2594 391 2855 752 
Q 3116 1113 3116 1747 
z
" transform="scale(0.015625)"/>
     </defs>
     <use xlink:href="#DejaVuSans-41"/>
     <use xlink:href="#DejaVuSans-76" transform="translate(62.533203 0)"/>
     <use xlink:href="#DejaVuSans-65" transform="translate(121.712891 0)"/>
     <use xlink:href="#DejaVuSans-72" transform="translate(183.236328 0)"/>
     <use xlink:href="#DejaVuSans-61" transform="translate(224.349609 0)"/>
     <use xlink:href="#DejaVuSans-67" transform="translate(285.628906 0)"/>
     <use xlink:href="#DejaVuSans-65" transform="translate(349.105469 0)"/>
     <use xlink:href="#DejaVuSans-20" transform="translate(410.628906 0)"/>
     <use xlink:href="#DejaVuSans-74" transform="translate(442.416016 0)"/>
     <use xlink:href="#DejaVuSans-69" transform="translate(481.625 0)"/>
     <use xlink:href="#DejaVuSans-6d" transform="translate(509.408203 0)"/>
     <use xlink:href="#DejaVuSans-65" transform="translate(606.820312 0)"/>
     <use xlink:href="#DejaVuSans-20" transform="translate(668.34375 0)"/>
     <use xlink:href="#DejaVuSans-70" transform="translate(700.130859 0)"/>
     <use xlink:href="#DejaVuSans-65" transform="translate(763.607422 0)"/>
     <use xlink:href="#DejaVuSans-72" transform="translate(825.130859 0)"/>
     <use xlink:href="#DejaVuSans-20" transform="translate(866.244141 0)"/>
     <use xlink:href="#DejaVuSans-69" transform="translate(898.03125 0)"/>
     <use xlink:href="#DejaVuSans-6e" transform="translate(925.814453 0)"/>
     <use xlink:href="#DejaVuSans-64" transform="translate(989.193359 0)"/>
     <use xlink:href="#DejaVuSans-65" transform="translate(1052.669922 0)"/>
     <use xlink:href="#DejaVuSans-78" transform="translate(1112.443359 0)"/>
    </g>
   </g>
   <g id="legend_1">
    <g id="patch_7">
     <path d="M 97 74.518125 
L 196.53125 74.518125 
Q 198.53125 74.518125 198.53125 72.518125 
L 198.53125 58.84 
Q 198.53125 56.84 196.53125 56.84 
L 97 56.84 
Q 95 56.84 95 58.84 
L 95 72.518125 
Q 95 74.518125 97 74.518125 
z
" style="fill: #ffffff; opacity: 0.8; stroke: #cccccc; stroke-linejoin: miter"/>
    </g>
    <g id="line2d_15">
     <path d="M 99 64.938438 
L 109 64.938438 
L 119 64.938438 
" style="fill: none; stroke: #1f77b4; stroke-width: 1.5; stroke-linecap: square"/>
    </g>
    <g id="text_17">
     <!-- nextFaultload -->
     <g transform="translate(127 68.438438) scale(0.1 -0.1)">
      <defs>
       <path id="DejaVuSans-46" d="M 628 4666 
L 3309 4666 
L 3309 4134 
L 1259 4134 
L 1259 2759 
L 3109 2759 
L 3109 2228 
L 1259 2228 
L 1259 0 
L 628 0 
L 628 4666 
z
" transform="scale(0.015625)"/>
       <path id="DejaVuSans-75" d="M 544 1381 
L 544 3500 
L 1119 3500 
L 1119 1403 
Q 1119 906 1312 657 
Q 1506 409 1894 409 
Q 2359 409 2629 706 
Q 2900 1003 2900 1516 
L 2900 3500 
L 3475 3500 
L 3475 0 
L 2900 0 
L 2900 538 
Q 2691 219 2414 64 
Q 2138 -91 1772 -91 
Q 1169 -91 856 284 
Q 544 659 544 1381 
z
M 1991 3584 
L 1991 3584 
z
" transform="scale(0.015625)"/>
       <path id="DejaVuSans-6c" d="M 603 4863 
L 1178 4863 
L 1178 0 
L 603 0 
L 603 4863 
z
" transform="scale(0.015625)"/>
       <path id="DejaVuSans-6f" d="M 1959 3097 
Q 1497 3097 1228 2736 
Q 959 2375 959 1747 
Q 959 1119 1226 758 
Q 1494 397 1959 397 
Q 2419 397 2687 759 
Q 2956 1122 2956 1747 
Q 2956 2369 2687 2733 
Q 2419 3097 1959 3097 
z
M 1959 3584 
Q 2709 3584 3137 3096 
Q 3566 2609 3566 1747 
Q 3566 888 3137 398 
Q 2709 -91 1959 -91 
Q 1206 -91 779 398 
Q 353 888 353 1747 
Q 353 2609 779 3096 
Q 1206 3584 1959 3584 
z
" transform="scale(0.015625)"/>
      </defs>
      <use xlink:href="#DejaVuSans-6e"/>
      <use xlink:href="#DejaVuSans-65" transform="translate(63.378906 0)"/>
      <use xlink:href="#DejaVuSans-78" transform="translate(123.152344 0)"/>
      <use xlink:href="#DejaVuSans-74" transform="translate(182.332031 0)"/>
      <use xlink:href="#DejaVuSans-46" transform="translate(221.541016 0)"/>
      <use xlink:href="#DejaVuSans-61" transform="translate(269.935547 0)"/>
      <use xlink:href="#DejaVuSans-75" transform="translate(331.214844 0)"/>
      <use xlink:href="#DejaVuSans-6c" transform="translate(394.59375 0)"/>
      <use xlink:href="#DejaVuSans-74" transform="translate(422.376953 0)"/>
      <use xlink:href="#DejaVuSans-6c" transform="translate(461.585938 0)"/>
      <use xlink:href="#DejaVuSans-6f" transform="translate(489.369141 0)"/>
      <use xlink:href="#DejaVuSans-61" transform="translate(550.550781 0)"/>
      <use xlink:href="#DejaVuSans-64" transform="translate(611.830078 0)"/>
     </g>
    </g>
   </g>
  </g>
 </g>
 <defs>
  <clipPath id="p6b4261cd5a">
   <rect x="90" y="51.84" width="558" height="332.64"/>
  </clipPath>
 </defs>
</svg>
