<?xml version="1.0" encoding="utf-8" standalone="no"?>
<!DOCTYPE svg PUBLIC "-//W3C//DTD SVG 1.1//EN"
  "http://www.w3.org/Graphics/SVG/1.1/DTD/svg11.dtd">
<svg xmlns:xlink="http://www.w3.org/1999/xlink" width="720pt" height="432pt" viewBox="0 0 720 432" xmlns="http://www.w3.org/2000/svg" version="1.1">
 <metadata>
  <rdf:RDF xmlns:dc="http://purl.org/dc/elements/1.1/" xmlns:cc="http://creativecommons.org/ns#" xmlns:rdf="http://www.w3.org/1999/02/22-rdf-syntax-ns#">
   <cc:Work>
    <dc:type rdf:resource="http://purl.org/dc/dcmitype/StillImage"/>
    <dc:date>2025-06-10T01:38:21.471950</dc:date>
    <dc:format>image/svg+xml</dc:format>
    <dc:creator>
     <cc:Agent>
      <dc:title>Matplotlib v3.10.3, https://matplotlib.org/</dc:title>
     </cc:Agent>
    </dc:creator>
   </cc:Work>
  </rdf:RDF>
 </metadata>
 <defs>
  <style type="text/css">*{stroke-linejoin: round; stroke-linecap: butt}</style>
 </defs>
 <g id="figure_1">
  <g id="patch_1">
   <path d="M 0 432 
L 720 432 
L 720 0 
L 0 0 
z
" style="fill: #ffffff"/>
  </g>
  <g id="axes_1">
   <g id="patch_2">
    <path d="M 90 384.48 
L 648 384.48 
L 648 51.84 
L 90 51.84 
z
" style="fill: #ffffff"/>
   </g>
   <g id="matplotlib.axis_1">
    <g id="xtick_1">
     <g id="line2d_1">
      <defs>
       <path id="mcdc3e7cc31" d="M 0 0 
L 0 3.5 
" style="stroke: #000000; stroke-width: 0.8"/>
      </defs>
      <g>
       <use xlink:href="#mcdc3e7cc31" x="115.363636" y="384.48" style="stroke: #000000; stroke-width: 0.8"/>
      </g>
     </g>
     <g id="text_1">
      <!-- 0 -->
      <g transform="translate(112.182386 399.078438) scale(0.1 -0.1)">
       <defs>
        <path id="DejaVuSans-30" d="M 2034 4250 
Q 1547 4250 1301 3770 
Q 1056 3291 1056 2328 
Q 1056 1369 1301 889 
Q 1547 409 2034 409 
Q 2525 409 2770 889 
Q 3016 1369 3016 2328 
Q 3016 3291 2770 3770 
Q 2525 4250 2034 4250 
z
M 2034 4750 
Q 2819 4750 3233 4129 
Q 3647 3509 3647 2328 
Q 3647 1150 3233 529 
Q 2819 -91 2034 -91 
Q 1250 -91 836 529 
Q 422 1150 422 2328 
Q 422 3509 836 4129 
Q 1250 4750 2034 4750 
z
" transform="scale(0.015625)"/>
       </defs>
       <use xlink:href="#DejaVuSans-30"/>
      </g>
     </g>
    </g>
    <g id="xtick_2">
     <g id="line2d_2">
      <g>
       <use xlink:href="#mcdc3e7cc31" x="195.375108" y="384.48" style="stroke: #000000; stroke-width: 0.8"/>
      </g>
     </g>
     <g id="text_2">
      <!-- 100 -->
      <g transform="translate(185.831358 399.078438) scale(0.1 -0.1)">
       <defs>
        <path id="DejaVuSans-31" d="M 794 531 
L 1825 531 
L 1825 4091 
L 703 3866 
L 703 4441 
L 1819 4666 
L 2450 4666 
L 2450 531 
L 3481 531 
L 3481 0 
L 794 0 
L 794 531 
z
" transform="scale(0.015625)"/>
       </defs>
       <use xlink:href="#DejaVuSans-31"/>
       <use xlink:href="#DejaVuSans-30" transform="translate(63.623047 0)"/>
       <use xlink:href="#DejaVuSans-30" transform="translate(127.246094 0)"/>
      </g>
     </g>
    </g>
    <g id="xtick_3">
     <g id="line2d_3">
      <g>
       <use xlink:href="#mcdc3e7cc31" x="275.386579" y="384.48" style="stroke: #000000; stroke-width: 0.8"/>
      </g>
     </g>
     <g id="text_3">
      <!-- 200 -->
      <g transform="translate(265.842829 399.078438) scale(0.1 -0.1)">
       <defs>
        <path id="DejaVuSans-32" d="M 1228 531 
L 3431 531 
L 3431 0 
L 469 0 
L 469 531 
Q 828 903 1448 1529 
Q 2069 2156 2228 2338 
Q 2531 2678 2651 2914 
Q 2772 3150 2772 3378 
Q 2772 3750 2511 3984 
Q 2250 4219 1831 4219 
Q 1534 4219 1204 4116 
Q 875 4013 500 3803 
L 500 4441 
Q 881 4594 1212 4672 
Q 1544 4750 1819 4750 
Q 2544 4750 2975 4387 
Q 3406 4025 3406 3419 
Q 3406 3131 3298 2873 
Q 3191 2616 2906 2266 
Q 2828 2175 2409 1742 
Q 1991 1309 1228 531 
z
" transform="scale(0.015625)"/>
       </defs>
       <use xlink:href="#DejaVuSans-32"/>
       <use xlink:href="#DejaVuSans-30" transform="translate(63.623047 0)"/>
       <use xlink:href="#DejaVuSans-30" transform="translate(127.246094 0)"/>
      </g>
     </g>
    </g>
    <g id="xtick_4">
     <g id="line2d_4">
      <g>
       <use xlink:href="#mcdc3e7cc31" x="355.39805" y="384.48" style="stroke: #000000; stroke-width: 0.8"/>
      </g>
     </g>
     <g id="text_4">
      <!-- 300 -->
      <g transform="translate(345.8543 399.078438) scale(0.1 -0.1)">
       <defs>
        <path id="DejaVuSans-33" d="M 2597 2516 
Q 3050 2419 3304 2112 
Q 3559 1806 3559 1356 
Q 3559 666 3084 287 
Q 2609 -91 1734 -91 
Q 1441 -91 1130 -33 
Q 819 25 488 141 
L 488 750 
Q 750 597 1062 519 
Q 1375 441 1716 441 
Q 2309 441 2620 675 
Q 2931 909 2931 1356 
Q 2931 1769 2642 2001 
Q 2353 2234 1838 2234 
L 1294 2234 
L 1294 2753 
L 1863 2753 
Q 2328 2753 2575 2939 
Q 2822 3125 2822 3475 
Q 2822 3834 2567 4026 
Q 2313 4219 1838 4219 
Q 1578 4219 1281 4162 
Q 984 4106 628 3988 
L 628 4550 
Q 988 4650 1302 4700 
Q 1616 4750 1894 4750 
Q 2613 4750 3031 4423 
Q 3450 4097 3450 3541 
Q 3450 3153 3228 2886 
Q 3006 2619 2597 2516 
z
" transform="scale(0.015625)"/>
       </defs>
       <use xlink:href="#DejaVuSans-33"/>
       <use xlink:href="#DejaVuSans-30" transform="translate(63.623047 0)"/>
       <use xlink:href="#DejaVuSans-30" transform="translate(127.246094 0)"/>
      </g>
     </g>
    </g>
    <g id="xtick_5">
     <g id="line2d_5">
      <g>
       <use xlink:href="#mcdc3e7cc31" x="435.409521" y="384.48" style="stroke: #000000; stroke-width: 0.8"/>
      </g>
     </g>
     <g id="text_5">
      <!-- 400 -->
      <g transform="translate(425.865771 399.078438) scale(0.1 -0.1)">
       <defs>
        <path id="DejaVuSans-34" d="M 2419 4116 
L 825 1625 
L 2419 1625 
L 2419 4116 
z
M 2253 4666 
L 3047 4666 
L 3047 1625 
L 3713 1625 
L 3713 1100 
L 3047 1100 
L 3047 0 
L 2419 0 
L 2419 1100 
L 313 1100 
L 313 1709 
L 2253 4666 
z
" transform="scale(0.015625)"/>
       </defs>
       <use xlink:href="#DejaVuSans-34"/>
       <use xlink:href="#DejaVuSans-30" transform="translate(63.623047 0)"/>
       <use xlink:href="#DejaVuSans-30" transform="translate(127.246094 0)"/>
      </g>
     </g>
    </g>
    <g id="xtick_6">
     <g id="line2d_6">
      <g>
       <use xlink:href="#mcdc3e7cc31" x="515.420992" y="384.48" style="stroke: #000000; stroke-width: 0.8"/>
      </g>
     </g>
     <g id="text_6">
      <!-- 500 -->
      <g transform="translate(505.877242 399.078438) scale(0.1 -0.1)">
       <defs>
        <path id="DejaVuSans-35" d="M 691 4666 
L 3169 4666 
L 3169 4134 
L 1269 4134 
L 1269 2991 
Q 1406 3038 1543 3061 
Q 1681 3084 1819 3084 
Q 2600 3084 3056 2656 
Q 3513 2228 3513 1497 
Q 3513 744 3044 326 
Q 2575 -91 1722 -91 
Q 1428 -91 1123 -41 
Q 819 9 494 109 
L 494 744 
Q 775 591 1075 516 
Q 1375 441 1709 441 
Q 2250 441 2565 725 
Q 2881 1009 2881 1497 
Q 2881 1984 2565 2268 
Q 2250 2553 1709 2553 
Q 1456 2553 1204 2497 
Q 953 2441 691 2322 
L 691 4666 
z
" transform="scale(0.015625)"/>
       </defs>
       <use xlink:href="#DejaVuSans-35"/>
       <use xlink:href="#DejaVuSans-30" transform="translate(63.623047 0)"/>
       <use xlink:href="#DejaVuSans-30" transform="translate(127.246094 0)"/>
      </g>
     </g>
    </g>
    <g id="xtick_7">
     <g id="line2d_7">
      <g>
       <use xlink:href="#mcdc3e7cc31" x="595.432463" y="384.48" style="stroke: #000000; stroke-width: 0.8"/>
      </g>
     </g>
     <g id="text_7">
      <!-- 600 -->
      <g transform="translate(585.888713 399.078438) scale(0.1 -0.1)">
       <defs>
        <path id="DejaVuSans-36" d="M 2113 2584 
Q 1688 2584 1439 2293 
Q 1191 2003 1191 1497 
Q 1191 994 1439 701 
Q 1688 409 2113 409 
Q 2538 409 2786 701 
Q 3034 994 3034 1497 
Q 3034 2003 2786 2293 
Q 2538 2584 2113 2584 
z
M 3366 4563 
L 3366 3988 
Q 3128 4100 2886 4159 
Q 2644 4219 2406 4219 
Q 1781 4219 1451 3797 
Q 1122 3375 1075 2522 
Q 1259 2794 1537 2939 
Q 1816 3084 2150 3084 
Q 2853 3084 3261 2657 
Q 3669 2231 3669 1497 
Q 3669 778 3244 343 
Q 2819 -91 2113 -91 
Q 1303 -91 875 529 
Q 447 1150 447 2328 
Q 447 3434 972 4092 
Q 1497 4750 2381 4750 
Q 2619 4750 2861 4703 
Q 3103 4656 3366 4563 
z
" transform="scale(0.015625)"/>
       </defs>
       <use xlink:href="#DejaVuSans-36"/>
       <use xlink:href="#DejaVuSans-30" transform="translate(63.623047 0)"/>
       <use xlink:href="#DejaVuSans-30" transform="translate(127.246094 0)"/>
      </g>
     </g>
    </g>
    <g id="text_8">
     <!-- Index -->
     <g transform="translate(355.233594 412.756563) scale(0.1 -0.1)">
      <defs>
       <path id="DejaVuSans-49" d="M 628 4666 
L 1259 4666 
L 1259 0 
L 628 0 
L 628 4666 
z
" transform="scale(0.015625)"/>
       <path id="DejaVuSans-6e" d="M 3513 2113 
L 3513 0 
L 2938 0 
L 2938 2094 
Q 2938 2591 2744 2837 
Q 2550 3084 2163 3084 
Q 1697 3084 1428 2787 
Q 1159 2491 1159 1978 
L 1159 0 
L 581 0 
L 581 3500 
L 1159 3500 
L 1159 2956 
Q 1366 3272 1645 3428 
Q 1925 3584 2291 3584 
Q 2894 3584 3203 3211 
Q 3513 2838 3513 2113 
z
" transform="scale(0.015625)"/>
       <path id="DejaVuSans-64" d="M 2906 2969 
L 2906 4863 
L 3481 4863 
L 3481 0 
L 2906 0 
L 2906 525 
Q 2725 213 2448 61 
Q 2172 -91 1784 -91 
Q 1150 -91 751 415 
Q 353 922 353 1747 
Q 353 2572 751 3078 
Q 1150 3584 1784 3584 
Q 2172 3584 2448 3432 
Q 2725 3281 2906 2969 
z
M 947 1747 
Q 947 1113 1208 752 
Q 1469 391 1925 391 
Q 2381 391 2643 752 
Q 2906 1113 2906 1747 
Q 2906 2381 2643 2742 
Q 2381 3103 1925 3103 
Q 1469 3103 1208 2742 
Q 947 2381 947 1747 
z
" transform="scale(0.015625)"/>
       <path id="DejaVuSans-65" d="M 3597 1894 
L 3597 1613 
L 953 1613 
Q 991 1019 1311 708 
Q 1631 397 2203 397 
Q 2534 397 2845 478 
Q 3156 559 3463 722 
L 3463 178 
Q 3153 47 2828 -22 
Q 2503 -91 2169 -91 
Q 1331 -91 842 396 
Q 353 884 353 1716 
Q 353 2575 817 3079 
Q 1281 3584 2069 3584 
Q 2775 3584 3186 3129 
Q 3597 2675 3597 1894 
z
M 3022 2063 
Q 3016 2534 2758 2815 
Q 2500 3097 2075 3097 
Q 1594 3097 1305 2825 
Q 1016 2553 972 2059 
L 3022 2063 
z
" transform="scale(0.015625)"/>
       <path id="DejaVuSans-78" d="M 3513 3500 
L 2247 1797 
L 3578 0 
L 2900 0 
L 1881 1375 
L 863 0 
L 184 0 
L 1544 1831 
L 300 3500 
L 978 3500 
L 1906 2253 
L 2834 3500 
L 3513 3500 
z
" transform="scale(0.015625)"/>
      </defs>
      <use xlink:href="#DejaVuSans-49"/>
      <use xlink:href="#DejaVuSans-6e" transform="translate(29.492188 0)"/>
      <use xlink:href="#DejaVuSans-64" transform="translate(92.871094 0)"/>
      <use xlink:href="#DejaVuSans-65" transform="translate(156.347656 0)"/>
      <use xlink:href="#DejaVuSans-78" transform="translate(216.121094 0)"/>
     </g>
    </g>
   </g>
   <g id="matplotlib.axis_2">
    <g id="ytick_1">
     <g id="line2d_8">
      <defs>
       <path id="m2d4cbd0cd5" d="M 0 0 
L -3.5 0 
" style="stroke: #000000; stroke-width: 0.8"/>
      </defs>
      <g>
       <use xlink:href="#m2d4cbd0cd5" x="90" y="384.48" style="stroke: #000000; stroke-width: 0.8"/>
      </g>
     </g>
     <g id="text_9">
      <!-- 0 -->
      <g transform="translate(76.6375 388.279219) scale(0.1 -0.1)">
       <use xlink:href="#DejaVuSans-30"/>
      </g>
     </g>
    </g>
    <g id="ytick_2">
     <g id="line2d_9">
      <g>
       <use xlink:href="#m2d4cbd0cd5" x="90" y="344.609823" style="stroke: #000000; stroke-width: 0.8"/>
      </g>
     </g>
     <g id="text_10">
      <!-- 10 -->
      <g transform="translate(70.275 348.409042) scale(0.1 -0.1)">
       <use xlink:href="#DejaVuSans-31"/>
       <use xlink:href="#DejaVuSans-30" transform="translate(63.623047 0)"/>
      </g>
     </g>
    </g>
    <g id="ytick_3">
     <g id="line2d_10">
      <g>
       <use xlink:href="#m2d4cbd0cd5" x="90" y="304.739646" style="stroke: #000000; stroke-width: 0.8"/>
      </g>
     </g>
     <g id="text_11">
      <!-- 20 -->
      <g transform="translate(70.275 308.538865) scale(0.1 -0.1)">
       <use xlink:href="#DejaVuSans-32"/>
       <use xlink:href="#DejaVuSans-30" transform="translate(63.623047 0)"/>
      </g>
     </g>
    </g>
    <g id="ytick_4">
     <g id="line2d_11">
      <g>
       <use xlink:href="#m2d4cbd0cd5" x="90" y="264.869469" style="stroke: #000000; stroke-width: 0.8"/>
      </g>
     </g>
     <g id="text_12">
      <!-- 30 -->
      <g transform="translate(70.275 268.668688) scale(0.1 -0.1)">
       <use xlink:href="#DejaVuSans-33"/>
       <use xlink:href="#DejaVuSans-30" transform="translate(63.623047 0)"/>
      </g>
     </g>
    </g>
    <g id="ytick_5">
     <g id="line2d_12">
      <g>
       <use xlink:href="#m2d4cbd0cd5" x="90" y="224.999292" style="stroke: #000000; stroke-width: 0.8"/>
      </g>
     </g>
     <g id="text_13">
      <!-- 40 -->
      <g transform="translate(70.275 228.798511) scale(0.1 -0.1)">
       <use xlink:href="#DejaVuSans-34"/>
       <use xlink:href="#DejaVuSans-30" transform="translate(63.623047 0)"/>
      </g>
     </g>
    </g>
    <g id="ytick_6">
     <g id="line2d_13">
      <g>
       <use xlink:href="#m2d4cbd0cd5" x="90" y="185.129115" style="stroke: #000000; stroke-width: 0.8"/>
      </g>
     </g>
     <g id="text_14">
      <!-- 50 -->
      <g transform="translate(70.275 188.928334) scale(0.1 -0.1)">
       <use xlink:href="#DejaVuSans-35"/>
       <use xlink:href="#DejaVuSans-30" transform="translate(63.623047 0)"/>
      </g>
     </g>
    </g>
    <g id="ytick_7">
     <g id="line2d_14">
      <g>
       <use xlink:href="#m2d4cbd0cd5" x="90" y="145.258938" style="stroke: #000000; stroke-width: 0.8"/>
      </g>
     </g>
     <g id="text_15">
      <!-- 60 -->
      <g transform="translate(70.275 149.058157) scale(0.1 -0.1)">
       <use xlink:href="#DejaVuSans-36"/>
       <use xlink:href="#DejaVuSans-30" transform="translate(63.623047 0)"/>
      </g>
     </g>
    </g>
    <g id="ytick_8">
     <g id="line2d_15">
      <g>
       <use xlink:href="#m2d4cbd0cd5" x="90" y="105.388761" style="stroke: #000000; stroke-width: 0.8"/>
      </g>
     </g>
     <g id="text_16">
      <!-- 70 -->
      <g transform="translate(70.275 109.18798) scale(0.1 -0.1)">
       <defs>
        <path id="DejaVuSans-37" d="M 525 4666 
L 3525 4666 
L 3525 4397 
L 1831 0 
L 1172 0 
L 2766 4134 
L 525 4134 
L 525 4666 
z
" transform="scale(0.015625)"/>
       </defs>
       <use xlink:href="#DejaVuSans-37"/>
       <use xlink:href="#DejaVuSans-30" transform="translate(63.623047 0)"/>
      </g>
     </g>
    </g>
    <g id="ytick_9">
     <g id="line2d_16">
      <g>
       <use xlink:href="#m2d4cbd0cd5" x="90" y="65.518584" style="stroke: #000000; stroke-width: 0.8"/>
      </g>
     </g>
     <g id="text_17">
      <!-- 80 -->
      <g transform="translate(70.275 69.317803) scale(0.1 -0.1)">
       <defs>
        <path id="DejaVuSans-38" d="M 2034 2216 
Q 1584 2216 1326 1975 
Q 1069 1734 1069 1313 
Q 1069 891 1326 650 
Q 1584 409 2034 409 
Q 2484 409 2743 651 
Q 3003 894 3003 1313 
Q 3003 1734 2745 1975 
Q 2488 2216 2034 2216 
z
M 1403 2484 
Q 997 2584 770 2862 
Q 544 3141 544 3541 
Q 544 4100 942 4425 
Q 1341 4750 2034 4750 
Q 2731 4750 3128 4425 
Q 3525 4100 3525 3541 
Q 3525 3141 3298 2862 
Q 3072 2584 2669 2484 
Q 3125 2378 3379 2068 
Q 3634 1759 3634 1313 
Q 3634 634 3220 271 
Q 2806 -91 2034 -91 
Q 1263 -91 848 271 
Q 434 634 434 1313 
Q 434 1759 690 2068 
Q 947 2378 1403 2484 
z
M 1172 3481 
Q 1172 3119 1398 2916 
Q 1625 2713 2034 2713 
Q 2441 2713 2670 2916 
Q 2900 3119 2900 3481 
Q 2900 3844 2670 4047 
Q 2441 4250 2034 4250 
Q 1625 4250 1398 4047 
Q 1172 3844 1172 3481 
z
" transform="scale(0.015625)"/>
       </defs>
       <use xlink:href="#DejaVuSans-38"/>
       <use xlink:href="#DejaVuSans-30" transform="translate(63.623047 0)"/>
      </g>
     </g>
    </g>
    <g id="text_18">
     <!-- Average time (ms) -->
     <g transform="translate(64.195312 264.543594) rotate(-90) scale(0.1 -0.1)">
      <defs>
       <path id="DejaVuSans-41" d="M 2188 4044 
L 1331 1722 
L 3047 1722 
L 2188 4044 
z
M 1831 4666 
L 2547 4666 
L 4325 0 
L 3669 0 
L 3244 1197 
L 1141 1197 
L 716 0 
L 50 0 
L 1831 4666 
z
" transform="scale(0.015625)"/>
       <path id="DejaVuSans-76" d="M 191 3500 
L 800 3500 
L 1894 563 
L 2988 3500 
L 3597 3500 
L 2284 0 
L 1503 0 
L 191 3500 
z
" transform="scale(0.015625)"/>
       <path id="DejaVuSans-72" d="M 2631 2963 
Q 2534 3019 2420 3045 
Q 2306 3072 2169 3072 
Q 1681 3072 1420 2755 
Q 1159 2438 1159 1844 
L 1159 0 
L 581 0 
L 581 3500 
L 1159 3500 
L 1159 2956 
Q 1341 3275 1631 3429 
Q 1922 3584 2338 3584 
Q 2397 3584 2469 3576 
Q 2541 3569 2628 3553 
L 2631 2963 
z
" transform="scale(0.015625)"/>
       <path id="DejaVuSans-61" d="M 2194 1759 
Q 1497 1759 1228 1600 
Q 959 1441 959 1056 
Q 959 750 1161 570 
Q 1363 391 1709 391 
Q 2188 391 2477 730 
Q 2766 1069 2766 1631 
L 2766 1759 
L 2194 1759 
z
M 3341 1997 
L 3341 0 
L 2766 0 
L 2766 531 
Q 2569 213 2275 61 
Q 1981 -91 1556 -91 
Q 1019 -91 701 211 
Q 384 513 384 1019 
Q 384 1609 779 1909 
Q 1175 2209 1959 2209 
L 2766 2209 
L 2766 2266 
Q 2766 2663 2505 2880 
Q 2244 3097 1772 3097 
Q 1472 3097 1187 3025 
Q 903 2953 641 2809 
L 641 3341 
Q 956 3463 1253 3523 
Q 1550 3584 1831 3584 
Q 2591 3584 2966 3190 
Q 3341 2797 3341 1997 
z
" transform="scale(0.015625)"/>
       <path id="DejaVuSans-67" d="M 2906 1791 
Q 2906 2416 2648 2759 
Q 2391 3103 1925 3103 
Q 1463 3103 1205 2759 
Q 947 2416 947 1791 
Q 947 1169 1205 825 
Q 1463 481 1925 481 
Q 2391 481 2648 825 
Q 2906 1169 2906 1791 
z
M 3481 434 
Q 3481 -459 3084 -895 
Q 2688 -1331 1869 -1331 
Q 1566 -1331 1297 -1286 
Q 1028 -1241 775 -1147 
L 775 -588 
Q 1028 -725 1275 -790 
Q 1522 -856 1778 -856 
Q 2344 -856 2625 -561 
Q 2906 -266 2906 331 
L 2906 616 
Q 2728 306 2450 153 
Q 2172 0 1784 0 
Q 1141 0 747 490 
Q 353 981 353 1791 
Q 353 2603 747 3093 
Q 1141 3584 1784 3584 
Q 2172 3584 2450 3431 
Q 2728 3278 2906 2969 
L 2906 3500 
L 3481 3500 
L 3481 434 
z
" transform="scale(0.015625)"/>
       <path id="DejaVuSans-20" transform="scale(0.015625)"/>
       <path id="DejaVuSans-74" d="M 1172 4494 
L 1172 3500 
L 2356 3500 
L 2356 3053 
L 1172 3053 
L 1172 1153 
Q 1172 725 1289 603 
Q 1406 481 1766 481 
L 2356 481 
L 2356 0 
L 1766 0 
Q 1100 0 847 248 
Q 594 497 594 1153 
L 594 3053 
L 172 3053 
L 172 3500 
L 594 3500 
L 594 4494 
L 1172 4494 
z
" transform="scale(0.015625)"/>
       <path id="DejaVuSans-69" d="M 603 3500 
L 1178 3500 
L 1178 0 
L 603 0 
L 603 3500 
z
M 603 4863 
L 1178 4863 
L 1178 4134 
L 603 4134 
L 603 4863 
z
" transform="scale(0.015625)"/>
       <path id="DejaVuSans-6d" d="M 3328 2828 
Q 3544 3216 3844 3400 
Q 4144 3584 4550 3584 
Q 5097 3584 5394 3201 
Q 5691 2819 5691 2113 
L 5691 0 
L 5113 0 
L 5113 2094 
Q 5113 2597 4934 2840 
Q 4756 3084 4391 3084 
Q 3944 3084 3684 2787 
Q 3425 2491 3425 1978 
L 3425 0 
L 2847 0 
L 2847 2094 
Q 2847 2600 2669 2842 
Q 2491 3084 2119 3084 
Q 1678 3084 1418 2786 
Q 1159 2488 1159 1978 
L 1159 0 
L 581 0 
L 581 3500 
L 1159 3500 
L 1159 2956 
Q 1356 3278 1631 3431 
Q 1906 3584 2284 3584 
Q 2666 3584 2933 3390 
Q 3200 3197 3328 2828 
z
" transform="scale(0.015625)"/>
       <path id="DejaVuSans-28" d="M 1984 4856 
Q 1566 4138 1362 3434 
Q 1159 2731 1159 2009 
Q 1159 1288 1364 580 
Q 1569 -128 1984 -844 
L 1484 -844 
Q 1016 -109 783 600 
Q 550 1309 550 2009 
Q 550 2706 781 3412 
Q 1013 4119 1484 4856 
L 1984 4856 
z
" transform="scale(0.015625)"/>
       <path id="DejaVuSans-73" d="M 2834 3397 
L 2834 2853 
Q 2591 2978 2328 3040 
Q 2066 3103 1784 3103 
Q 1356 3103 1142 2972 
Q 928 2841 928 2578 
Q 928 2378 1081 2264 
Q 1234 2150 1697 2047 
L 1894 2003 
Q 2506 1872 2764 1633 
Q 3022 1394 3022 966 
Q 3022 478 2636 193 
Q 2250 -91 1575 -91 
Q 1294 -91 989 -36 
Q 684 19 347 128 
L 347 722 
Q 666 556 975 473 
Q 1284 391 1588 391 
Q 1994 391 2212 530 
Q 2431 669 2431 922 
Q 2431 1156 2273 1281 
Q 2116 1406 1581 1522 
L 1381 1569 
Q 847 1681 609 1914 
Q 372 2147 372 2553 
Q 372 3047 722 3315 
Q 1072 3584 1716 3584 
Q 2034 3584 2315 3537 
Q 2597 3491 2834 3397 
z
" transform="scale(0.015625)"/>
       <path id="DejaVuSans-29" d="M 513 4856 
L 1013 4856 
Q 1481 4119 1714 3412 
Q 1947 2706 1947 2009 
Q 1947 1309 1714 600 
Q 1481 -109 1013 -844 
L 513 -844 
Q 928 -128 1133 580 
Q 1338 1288 1338 2009 
Q 1338 2731 1133 3434 
Q 928 4138 513 4856 
z
" transform="scale(0.015625)"/>
      </defs>
      <use xlink:href="#DejaVuSans-41"/>
      <use xlink:href="#DejaVuSans-76" transform="translate(62.533203 0)"/>
      <use xlink:href="#DejaVuSans-65" transform="translate(121.712891 0)"/>
      <use xlink:href="#DejaVuSans-72" transform="translate(183.236328 0)"/>
      <use xlink:href="#DejaVuSans-61" transform="translate(224.349609 0)"/>
      <use xlink:href="#DejaVuSans-67" transform="translate(285.628906 0)"/>
      <use xlink:href="#DejaVuSans-65" transform="translate(349.105469 0)"/>
      <use xlink:href="#DejaVuSans-20" transform="translate(410.628906 0)"/>
      <use xlink:href="#DejaVuSans-74" transform="translate(442.416016 0)"/>
      <use xlink:href="#DejaVuSans-69" transform="translate(481.625 0)"/>
      <use xlink:href="#DejaVuSans-6d" transform="translate(509.408203 0)"/>
      <use xlink:href="#DejaVuSans-65" transform="translate(606.820312 0)"/>
      <use xlink:href="#DejaVuSans-20" transform="translate(668.34375 0)"/>
      <use xlink:href="#DejaVuSans-28" transform="translate(700.130859 0)"/>
      <use xlink:href="#DejaVuSans-6d" transform="translate(739.144531 0)"/>
      <use xlink:href="#DejaVuSans-73" transform="translate(836.556641 0)"/>
      <use xlink:href="#DejaVuSans-29" transform="translate(888.65625 0)"/>
     </g>
    </g>
   </g>
   <g id="line2d_17">
    <path d="M 115.363636 66.95819 
L 116.163751 280.005727 
L 116.963866 362.035329 
L 117.76398 361.821583 
L 118.564095 353.664373 
L 119.36421 363.642352 
L 120.164325 364.432381 
L 120.964439 363.221391 
L 121.764554 362.946188 
L 122.564669 364.296426 
L 124.164898 363.052931 
L 124.965013 359.994594 
L 125.765128 362.227273 
L 126.565242 365.32974 
L 127.365357 362.674569 
L 128.165472 356.036731 
L 128.965586 362.92991 
L 129.765701 364.268637 
L 130.565816 362.936153 
L 131.365931 363.119366 
L 132.166045 360.48336 
L 133.766275 363.073655 
L 134.566389 364.910795 
L 135.366504 363.157958 
L 136.166619 366.159988 
L 136.966734 361.280896 
L 137.766848 360.209399 
L 138.566963 362.935543 
L 139.367078 362.838893 
L 140.167192 358.563094 
L 140.967307 363.336082 
L 141.767422 361.540307 
L 142.567537 362.991896 
L 143.367651 359.418093 
L 144.167766 359.227763 
L 144.967881 361.370398 
L 145.767995 362.568375 
L 146.56811 363.224519 
L 147.368225 359.09643 
L 148.16834 363.19734 
L 148.968454 366.301174 
L 149.768569 365.489602 
L 150.568684 361.593535 
L 151.368798 359.941188 
L 152.168913 363.403152 
L 152.969028 363.851469 
L 153.769143 366.635736 
L 154.569257 366.840794 
L 155.369372 366.913477 
L 156.169487 358.903596 
L 156.969601 355.952408 
L 157.769716 361.498127 
L 158.569831 354.358615 
L 159.369946 363.65994 
L 160.17006 362.692868 
L 160.970175 364.977326 
L 161.77029 365.682259 
L 162.570404 362.947428 
L 163.370519 361.348242 
L 164.170634 364.125209 
L 164.970748 359.137351 
L 165.770863 362.218897 
L 166.570978 364.570149 
L 167.371093 362.242394 
L 168.171207 362.75138 
L 168.971322 363.978658 
L 169.771437 363.774341 
L 170.571551 363.341924 
L 171.371666 361.368759 
L 172.171781 355.77434 
L 172.971896 364.512275 
L 173.77201 361.86638 
L 174.572125 363.307925 
L 175.37224 358.779728 
L 176.172354 352.451686 
L 176.972469 362.12229 
L 177.772584 362.600959 
L 178.572699 361.855344 
L 179.372813 366.008244 
L 180.973043 367.151774 
L 181.773157 360.485431 
L 182.573272 361.613307 
L 183.373387 359.260846 
L 184.173502 366.101639 
L 184.973616 365.338814 
L 185.773731 364.148675 
L 186.573846 364.331053 
L 187.37396 363.21018 
L 188.174075 358.51347 
L 188.97419 363.998028 
L 189.774305 360.729716 
L 190.574419 364.31628 
L 191.374534 360.225794 
L 192.174649 359.924232 
L 192.974763 357.369131 
L 193.774878 361.613161 
L 194.574993 361.769205 
L 195.375108 363.847101 
L 196.175222 362.518202 
L 196.975337 363.005649 
L 197.775452 362.080034 
L 198.575566 363.249863 
L 199.375681 364.932007 
L 200.175796 363.002739 
L 200.975911 364.378304 
L 201.776025 361.368569 
L 202.57614 363.627355 
L 203.376255 362.269213 
L 204.176369 365.648372 
L 204.976484 366.238568 
L 205.776599 364.480428 
L 206.576714 364.948406 
L 207.376828 361.067507 
L 208.176943 366.156392 
L 208.977058 366.096409 
L 209.777172 367.062455 
L 210.577287 361.789463 
L 211.377402 362.209512 
L 212.177516 365.391894 
L 212.977631 362.212645 
L 213.777746 360.025772 
L 214.577861 365.406897 
L 215.377975 363.27532 
L 216.17809 360.555477 
L 216.978205 359.52631 
L 218.578434 367.316425 
L 219.378549 363.300051 
L 220.178664 361.854203 
L 220.978778 360.679414 
L 221.778893 362.050453 
L 222.579008 362.099707 
L 223.379122 351.85027 
L 224.179237 362.949853 
L 224.979352 365.090658 
L 225.779467 365.026308 
L 226.579581 362.168726 
L 227.379696 365.694585 
L 228.179811 359.840298 
L 228.979925 362.327766 
L 229.78004 366.139482 
L 230.580155 365.859492 
L 231.38027 365.86739 
L 232.180384 362.527451 
L 232.980499 365.786406 
L 233.780614 361.76527 
L 234.580728 360.205358 
L 235.380843 365.329188 
L 236.180958 366.746705 
L 236.981073 363.79327 
L 237.781187 365.673304 
L 238.581302 363.11916 
L 239.381417 362.418152 
L 240.181531 363.649825 
L 240.981646 362.155114 
L 241.781761 366.686822 
L 242.581876 364.734348 
L 243.38199 365.598024 
L 244.182105 366.723999 
L 244.98222 363.977522 
L 245.782334 362.134853 
L 246.582449 364.152874 
L 247.382564 363.14947 
L 248.982793 366.236452 
L 249.782908 363.543839 
L 250.583023 364.307867 
L 251.383137 363.190387 
L 252.183252 358.696482 
L 252.983367 362.098889 
L 253.783482 364.458036 
L 254.583596 361.966307 
L 255.383711 363.807271 
L 256.183826 361.738298 
L 256.98394 364.272058 
L 257.784055 357.726973 
L 258.58417 364.661045 
L 259.384284 367.474672 
L 260.184399 363.325052 
L 260.984514 366.833813 
L 261.784629 356.222478 
L 262.584743 357.180635 
L 263.384858 366.3658 
L 264.184973 363.807732 
L 264.985087 366.791151 
L 265.785202 364.729755 
L 266.585317 359.606503 
L 267.385432 362.971451 
L 268.185546 362.566283 
L 268.985661 361.220868 
L 269.785776 365.37553 
L 270.58589 363.879228 
L 271.386005 366.351414 
L 272.18612 364.373616 
L 272.986235 366.519571 
L 273.786349 363.009371 
L 274.586464 362.567244 
L 275.386579 366.544143 
L 276.186693 364.268955 
L 276.986808 364.554388 
L 277.786923 361.573494 
L 278.587038 363.828659 
L 279.387152 364.123056 
L 280.187267 364.146002 
L 280.987382 366.110932 
L 281.787496 364.636832 
L 282.587611 362.577218 
L 283.387726 366.96364 
L 284.187841 365.364984 
L 284.987955 365.425635 
L 285.78807 363.427402 
L 286.588185 367.251951 
L 287.388299 366.554248 
L 288.188414 368.568724 
L 288.988529 367.592701 
L 289.788644 365.303155 
L 290.588758 366.467965 
L 292.188988 364.119494 
L 292.989102 368.672908 
L 293.789217 363.568864 
L 294.589332 361.942843 
L 295.389447 363.814139 
L 296.189561 367.057498 
L 296.989676 366.958206 
L 297.789791 365.725932 
L 298.589905 366.434078 
L 299.39002 366.787548 
L 300.190135 367.571272 
L 300.990249 365.363809 
L 301.790364 366.798301 
L 302.590479 367.478445 
L 303.390594 365.999 
L 304.190708 366.028789 
L 304.990823 368.184503 
L 305.790938 368.884138 
L 306.591052 365.719945 
L 307.391167 363.461323 
L 308.191282 365.239486 
L 308.991397 362.503118 
L 309.791511 365.206345 
L 310.591626 365.605998 
L 311.391741 365.132306 
L 312.191855 367.64394 
L 312.99197 366.563094 
L 313.792085 359.155371 
L 314.5922 367.958183 
L 315.392314 368.350681 
L 316.192429 367.349726 
L 316.992544 365.561185 
L 317.792658 366.151536 
L 318.592773 367.113817 
L 319.392888 367.052774 
L 320.193003 365.593525 
L 320.993117 366.759958 
L 321.793232 367.067293 
L 322.593347 367.919682 
L 323.393461 363.008915 
L 324.193576 366.611379 
L 325.793806 362.632427 
L 326.59392 368.041971 
L 327.394035 363.726872 
L 328.19415 365.915562 
L 328.994264 362.126542 
L 329.794379 364.404496 
L 330.594494 366.148806 
L 331.394609 361.413554 
L 332.194723 367.579301 
L 332.994838 366.939588 
L 333.794953 366.811825 
L 334.595067 364.05062 
L 335.395182 366.323071 
L 336.195297 364.940573 
L 336.995412 366.013114 
L 337.795526 362.85996 
L 338.595641 366.117571 
L 339.395756 368.603661 
L 340.19587 366.546363 
L 340.995985 365.124236 
L 341.7961 367.57273 
L 343.396329 366.49613 
L 344.196444 366.446768 
L 344.996559 367.352159 
L 345.796673 366.169375 
L 346.596788 365.744675 
L 347.396903 367.267029 
L 348.197017 366.583575 
L 348.997132 364.503236 
L 349.797247 363.661198 
L 351.397476 366.665915 
L 352.197591 367.169328 
L 352.997706 365.176782 
L 353.79782 364.792905 
L 354.597935 365.472217 
L 355.39805 367.364846 
L 356.198165 368.229918 
L 356.998279 365.796072 
L 357.798394 366.339035 
L 358.598509 365.512226 
L 359.398623 363.284427 
L 360.198738 365.683176 
L 362.599082 366.849975 
L 363.399197 366.478109 
L 364.999426 360.811895 
L 365.799541 365.584821 
L 366.599656 362.90964 
L 367.399771 365.025412 
L 368.199885 364.017795 
L 369 366.161489 
L 369.800115 365.242278 
L 370.600229 362.992378 
L 371.400344 364.904596 
L 372.200459 361.169021 
L 373.000574 366.553406 
L 373.800688 366.018204 
L 374.600803 364.881295 
L 375.400918 361.573469 
L 376.201032 365.458421 
L 377.001147 358.315784 
L 377.801262 366.62979 
L 378.601377 366.326921 
L 379.401491 366.968073 
L 380.201606 367.259165 
L 381.001721 367.327405 
L 381.801835 367.011978 
L 382.60195 363.576877 
L 383.402065 364.549922 
L 384.20218 366.300671 
L 385.002294 368.574628 
L 385.802409 368.1487 
L 386.602524 365.886008 
L 387.402638 367.68689 
L 388.202753 366.346658 
L 389.002868 366.651306 
L 389.802983 364.301976 
L 390.603097 367.185733 
L 391.403212 366.901381 
L 392.203327 365.904955 
L 393.003441 367.032018 
L 393.803556 364.337985 
L 394.603671 365.059963 
L 395.403785 366.973748 
L 396.2039 363.815592 
L 397.004015 366.175917 
L 397.80413 367.372985 
L 398.604244 366.722145 
L 399.404359 367.025648 
L 400.204474 365.724016 
L 401.004588 367.867161 
L 401.804703 361.337126 
L 402.604818 365.210763 
L 403.404933 362.163165 
L 404.205047 365.184182 
L 405.805277 366.883611 
L 406.605391 366.090971 
L 407.405506 366.381051 
L 408.205621 367.911599 
L 409.005736 367.927471 
L 409.80585 366.095158 
L 410.605965 366.997116 
L 411.40608 366.086302 
L 412.206194 367.713652 
L 413.006309 366.357218 
L 413.806424 366.865869 
L 414.606539 362.386872 
L 415.406653 365.538643 
L 416.206768 363.517968 
L 417.006883 368.850592 
L 417.806997 368.321599 
L 418.607112 367.624593 
L 419.407227 367.523079 
L 420.207342 367.151593 
L 421.007456 362.905831 
L 421.807571 366.145144 
L 422.607686 358.63564 
L 423.4078 366.232409 
L 424.207915 365.192203 
L 425.00803 367.240615 
L 425.808145 365.720418 
L 426.608259 367.878286 
L 427.408374 368.220385 
L 428.208489 362.325124 
L 429.008603 365.437333 
L 429.808718 362.905402 
L 430.608833 365.818969 
L 431.408948 365.55143 
L 432.209062 367.704803 
L 433.009177 367.010288 
L 433.809292 368.092522 
L 434.609406 365.297448 
L 435.409521 366.88512 
L 436.209636 367.525395 
L 437.009751 368.838434 
L 437.809865 364.826694 
L 440.210209 366.918319 
L 441.010324 367.448306 
L 441.810439 361.639506 
L 442.610553 360.608845 
L 443.410668 363.575711 
L 444.210783 367.674785 
L 445.010898 367.837932 
L 446.611127 365.191767 
L 447.411242 365.842661 
L 448.211356 365.855345 
L 449.011471 359.473935 
L 449.811586 366.707213 
L 450.611701 367.654248 
L 451.411815 366.575387 
L 452.21193 364.621522 
L 453.012045 365.569255 
L 453.812159 364.919599 
L 455.412389 364.719056 
L 456.212504 364.114821 
L 457.012618 365.23586 
L 457.812733 362.999433 
L 458.612848 364.374518 
L 459.412962 364.064388 
L 460.213077 364.385669 
L 461.013192 364.491171 
L 461.813307 365.481393 
L 462.613421 365.495391 
L 463.413536 362.205597 
L 464.213651 366.44899 
L 465.013765 364.892496 
L 465.81388 361.532046 
L 467.41411 365.988227 
L 468.214224 366.981526 
L 469.014339 365.555817 
L 469.814454 368.366595 
L 470.614568 367.146863 
L 471.414683 363.655156 
L 472.214798 368.260988 
L 473.014913 367.882432 
L 473.815027 366.866939 
L 474.615142 366.894556 
L 475.415257 366.629519 
L 476.215371 365.757906 
L 477.015486 364.354592 
L 477.815601 365.53076 
L 478.615716 367.037113 
L 479.41583 359.0037 
L 480.215945 365.110965 
L 481.01606 366.893503 
L 482.616289 368.056897 
L 483.416404 364.470866 
L 484.216518 362.801607 
L 485.016633 366.890487 
L 485.816748 365.800715 
L 486.616863 368.110115 
L 487.416977 365.486777 
L 488.217092 366.241551 
L 489.017207 366.152782 
L 489.817321 368.484185 
L 490.617436 365.674501 
L 491.417551 366.443078 
L 492.217666 365.652614 
L 493.01778 365.166201 
L 493.817895 367.320918 
L 494.61801 367.593718 
L 495.418124 368.124661 
L 496.218239 367.310783 
L 497.018354 365.119477 
L 498.618583 367.334791 
L 499.418698 365.676347 
L 500.218813 366.665744 
L 501.018927 366.112092 
L 501.819042 366.85325 
L 502.619157 366.680154 
L 503.419272 366.203789 
L 505.019501 363.484167 
L 505.819616 363.32009 
L 506.61973 366.878442 
L 507.419845 363.763803 
L 509.020075 365.096682 
L 509.820189 364.989545 
L 510.620304 367.666016 
L 511.420419 365.62675 
L 512.220533 364.611931 
L 513.020648 361.773676 
L 513.820763 361.884933 
L 514.620878 367.310871 
L 515.420992 364.148216 
L 516.221107 364.602911 
L 517.021222 364.63524 
L 517.821336 366.49712 
L 518.621451 362.70069 
L 519.421566 365.626867 
L 520.221681 366.730266 
L 521.021795 366.509435 
L 521.82191 364.775439 
L 522.622025 364.808326 
L 523.422139 365.679379 
L 524.222254 361.106095 
L 525.022369 366.534673 
L 525.822484 368.408714 
L 526.622598 367.124839 
L 527.422713 367.736901 
L 528.222828 365.591528 
L 529.022942 367.033966 
L 529.823057 366.79306 
L 530.623172 362.513249 
L 531.423286 361.102603 
L 532.223401 363.184967 
L 533.023516 367.31996 
L 533.823631 369.07798 
L 534.623745 369.14603 
L 535.42386 365.115221 
L 536.223975 366.561359 
L 537.024089 360.479102 
L 537.824204 361.219596 
L 538.624319 368.270949 
L 539.424434 365.210693 
L 540.224548 365.798452 
L 541.024663 367.47688 
L 541.824778 366.89822 
L 542.624892 365.688952 
L 543.425007 367.003662 
L 544.225122 361.884255 
L 545.025237 364.982212 
L 545.825351 364.611842 
L 546.625466 367.670349 
L 547.425581 366.523476 
L 549.02581 367.749207 
L 549.825925 367.403281 
L 550.62604 368.639454 
L 551.426154 367.662813 
L 552.226269 368.431443 
L 553.026384 364.287765 
L 553.826498 364.825589 
L 554.626613 361.619042 
L 555.426728 366.420639 
L 556.226843 367.075102 
L 557.827072 367.083051 
L 558.627187 366.048272 
L 559.427301 362.219865 
L 560.227416 365.750943 
L 561.027531 362.119454 
L 561.827646 365.807252 
L 562.62776 366.953491 
L 563.427875 365.532901 
L 564.22799 367.90208 
L 565.028104 365.654197 
L 565.828219 367.376745 
L 566.628334 366.787738 
L 568.228563 365.280177 
L 569.028678 367.705485 
L 569.828793 369.321992 
L 571.429022 368.119495 
L 572.229137 366.35809 
L 573.029252 366.006419 
L 573.829366 367.452945 
L 574.629481 368.433115 
L 575.429596 368.230452 
L 576.22971 365.669579 
L 577.029825 366.576592 
L 577.82994 363.705466 
L 578.630054 365.976344 
L 579.430169 363.751844 
L 580.230284 367.309524 
L 581.030399 367.650113 
L 581.830513 362.067651 
L 582.630628 367.363741 
L 583.430743 366.914695 
L 584.230857 366.771342 
L 585.030972 366.19169 
L 585.831087 363.491602 
L 586.631202 363.357734 
L 587.431316 352.075671 
L 588.231431 364.917353 
L 589.031546 365.574154 
L 589.83166 367.255253 
L 590.631775 368.138968 
L 591.43189 365.131953 
L 592.232005 365.869513 
L 593.032119 365.01355 
L 593.832234 365.243376 
L 594.632349 366.579793 
L 595.432463 357.56514 
L 596.232578 362.195336 
L 597.032693 367.838235 
L 597.832808 366.402785 
L 598.632922 364.354448 
L 599.433037 363.157643 
L 601.033266 365.28894 
L 601.833381 365.262002 
L 602.633496 361.569578 
L 603.433611 364.137483 
L 604.233725 365.112953 
L 605.03384 364.101712 
L 606.634069 367.248742 
L 607.434184 366.604126 
L 608.234299 366.926183 
L 609.034414 366.457146 
L 609.834528 361.099143 
L 610.634643 367.439446 
L 611.434758 365.191538 
L 612.234872 366.387381 
L 613.034987 360.447615 
L 613.835102 365.182552 
L 614.635217 355.99455 
L 615.435331 366.577297 
L 616.235446 366.811244 
L 617.035561 363.765707 
L 617.835675 367.256393 
L 618.63579 365.815699 
L 619.435905 362.692338 
L 620.23602 361.897849 
L 621.036134 363.378332 
L 621.836249 363.11011 
L 622.636364 366.423127 
L 622.636364 366.423127 
" clip-path="url(#p0262fa59e1)" style="fill: none; stroke: #1f77b4; stroke-width: 1.5; stroke-linecap: square"/>
   </g>
   <g id="patch_3">
    <path d="M 90 384.48 
L 90 51.84 
" style="fill: none; stroke: #000000; stroke-width: 0.8; stroke-linejoin: miter; stroke-linecap: square"/>
   </g>
   <g id="patch_4">
    <path d="M 648 384.48 
L 648 51.84 
" style="fill: none; stroke: #000000; stroke-width: 0.8; stroke-linejoin: miter; stroke-linecap: square"/>
   </g>
   <g id="patch_5">
    <path d="M 90 384.48 
L 648 384.48 
" style="fill: none; stroke: #000000; stroke-width: 0.8; stroke-linejoin: miter; stroke-linecap: square"/>
   </g>
   <g id="patch_6">
    <path d="M 90 51.84 
L 648 51.84 
" style="fill: none; stroke: #000000; stroke-width: 0.8; stroke-linejoin: miter; stroke-linecap: square"/>
   </g>
   <g id="text_19">
    <!-- Average time per index -->
    <g transform="translate(298.700625 45.84) scale(0.12 -0.12)">
     <defs>
      <path id="DejaVuSans-70" d="M 1159 525 
L 1159 -1331 
L 581 -1331 
L 581 3500 
L 1159 3500 
L 1159 2969 
Q 1341 3281 1617 3432 
Q 1894 3584 2278 3584 
Q 2916 3584 3314 3078 
Q 3713 2572 3713 1747 
Q 3713 922 3314 415 
Q 2916 -91 2278 -91 
Q 1894 -91 1617 61 
Q 1341 213 1159 525 
z
M 3116 1747 
Q 3116 2381 2855 2742 
Q 2594 3103 2138 3103 
Q 1681 3103 1420 2742 
Q 1159 2381 1159 1747 
Q 1159 1113 1420 752 
Q 1681 391 2138 391 
Q 2594 391 2855 752 
Q 3116 1113 3116 1747 
z
" transform="scale(0.015625)"/>
     </defs>
     <use xlink:href="#DejaVuSans-41"/>
     <use xlink:href="#DejaVuSans-76" transform="translate(62.533203 0)"/>
     <use xlink:href="#DejaVuSans-65" transform="translate(121.712891 0)"/>
     <use xlink:href="#DejaVuSans-72" transform="translate(183.236328 0)"/>
     <use xlink:href="#DejaVuSans-61" transform="translate(224.349609 0)"/>
     <use xlink:href="#DejaVuSans-67" transform="translate(285.628906 0)"/>
     <use xlink:href="#DejaVuSans-65" transform="translate(349.105469 0)"/>
     <use xlink:href="#DejaVuSans-20" transform="translate(410.628906 0)"/>
     <use xlink:href="#DejaVuSans-74" transform="translate(442.416016 0)"/>
     <use xlink:href="#DejaVuSans-69" transform="translate(481.625 0)"/>
     <use xlink:href="#DejaVuSans-6d" transform="translate(509.408203 0)"/>
     <use xlink:href="#DejaVuSans-65" transform="translate(606.820312 0)"/>
     <use xlink:href="#DejaVuSans-20" transform="translate(668.34375 0)"/>
     <use xlink:href="#DejaVuSans-70" transform="translate(700.130859 0)"/>
     <use xlink:href="#DejaVuSans-65" transform="translate(763.607422 0)"/>
     <use xlink:href="#DejaVuSans-72" transform="translate(825.130859 0)"/>
     <use xlink:href="#DejaVuSans-20" transform="translate(866.244141 0)"/>
     <use xlink:href="#DejaVuSans-69" transform="translate(898.03125 0)"/>
     <use xlink:href="#DejaVuSans-6e" transform="translate(925.814453 0)"/>
     <use xlink:href="#DejaVuSans-64" transform="translate(989.193359 0)"/>
     <use xlink:href="#DejaVuSans-65" transform="translate(1052.669922 0)"/>
     <use xlink:href="#DejaVuSans-78" transform="translate(1112.443359 0)"/>
    </g>
   </g>
   <g id="legend_1">
    <g id="patch_7">
     <path d="M 525.064062 74.518125 
L 641 74.518125 
Q 643 74.518125 643 72.518125 
L 643 58.84 
Q 643 56.84 641 56.84 
L 525.064062 56.84 
Q 523.064062 56.84 523.064062 58.84 
L 523.064062 72.518125 
Q 523.064062 74.518125 525.064062 74.518125 
z
" style="fill: #ffffff; opacity: 0.8; stroke: #cccccc; stroke-linejoin: miter"/>
    </g>
    <g id="line2d_18">
     <path d="M 527.064062 64.938438 
L 537.064062 64.938438 
L 547.064062 64.938438 
" style="fill: none; stroke: #1f77b4; stroke-width: 1.5; stroke-linecap: square"/>
    </g>
    <g id="text_20">
     <!-- registerFaultload -->
     <g transform="translate(555.064062 68.438438) scale(0.1 -0.1)">
      <defs>
       <path id="DejaVuSans-46" d="M 628 4666 
L 3309 4666 
L 3309 4134 
L 1259 4134 
L 1259 2759 
L 3109 2759 
L 3109 2228 
L 1259 2228 
L 1259 0 
L 628 0 
L 628 4666 
z
" transform="scale(0.015625)"/>
       <path id="DejaVuSans-75" d="M 544 1381 
L 544 3500 
L 1119 3500 
L 1119 1403 
Q 1119 906 1312 657 
Q 1506 409 1894 409 
Q 2359 409 2629 706 
Q 2900 1003 2900 1516 
L 2900 3500 
L 3475 3500 
L 3475 0 
L 2900 0 
L 2900 538 
Q 2691 219 2414 64 
Q 2138 -91 1772 -91 
Q 1169 -91 856 284 
Q 544 659 544 1381 
z
M 1991 3584 
L 1991 3584 
z
" transform="scale(0.015625)"/>
       <path id="DejaVuSans-6c" d="M 603 4863 
L 1178 4863 
L 1178 0 
L 603 0 
L 603 4863 
z
" transform="scale(0.015625)"/>
       <path id="DejaVuSans-6f" d="M 1959 3097 
Q 1497 3097 1228 2736 
Q 959 2375 959 1747 
Q 959 1119 1226 758 
Q 1494 397 1959 397 
Q 2419 397 2687 759 
Q 2956 1122 2956 1747 
Q 2956 2369 2687 2733 
Q 2419 3097 1959 3097 
z
M 1959 3584 
Q 2709 3584 3137 3096 
Q 3566 2609 3566 1747 
Q 3566 888 3137 398 
Q 2709 -91 1959 -91 
Q 1206 -91 779 398 
Q 353 888 353 1747 
Q 353 2609 779 3096 
Q 1206 3584 1959 3584 
z
" transform="scale(0.015625)"/>
      </defs>
      <use xlink:href="#DejaVuSans-72"/>
      <use xlink:href="#DejaVuSans-65" transform="translate(38.863281 0)"/>
      <use xlink:href="#DejaVuSans-67" transform="translate(100.386719 0)"/>
      <use xlink:href="#DejaVuSans-69" transform="translate(163.863281 0)"/>
      <use xlink:href="#DejaVuSans-73" transform="translate(191.646484 0)"/>
      <use xlink:href="#DejaVuSans-74" transform="translate(243.746094 0)"/>
      <use xlink:href="#DejaVuSans-65" transform="translate(282.955078 0)"/>
      <use xlink:href="#DejaVuSans-72" transform="translate(344.478516 0)"/>
      <use xlink:href="#DejaVuSans-46" transform="translate(385.591797 0)"/>
      <use xlink:href="#DejaVuSans-61" transform="translate(433.986328 0)"/>
      <use xlink:href="#DejaVuSans-75" transform="translate(495.265625 0)"/>
      <use xlink:href="#DejaVuSans-6c" transform="translate(558.644531 0)"/>
      <use xlink:href="#DejaVuSans-74" transform="translate(586.427734 0)"/>
      <use xlink:href="#DejaVuSans-6c" transform="translate(625.636719 0)"/>
      <use xlink:href="#DejaVuSans-6f" transform="translate(653.419922 0)"/>
      <use xlink:href="#DejaVuSans-61" transform="translate(714.601562 0)"/>
      <use xlink:href="#DejaVuSans-64" transform="translate(775.880859 0)"/>
     </g>
    </g>
   </g>
  </g>
 </g>
 <defs>
  <clipPath id="p0262fa59e1">
   <rect x="90" y="51.84" width="558" height="332.64"/>
  </clipPath>
 </defs>
</svg>
