<?xml version="1.0" encoding="utf-8" standalone="no"?>
<!DOCTYPE svg PUBLIC "-//W3C//DTD SVG 1.1//EN"
  "http://www.w3.org/Graphics/SVG/1.1/DTD/svg11.dtd">
<svg xmlns:xlink="http://www.w3.org/1999/xlink" width="720pt" height="432pt" viewBox="0 0 720 432" xmlns="http://www.w3.org/2000/svg" version="1.1">
 <metadata>
  <rdf:RDF xmlns:dc="http://purl.org/dc/elements/1.1/" xmlns:cc="http://creativecommons.org/ns#" xmlns:rdf="http://www.w3.org/1999/02/22-rdf-syntax-ns#">
   <cc:Work>
    <dc:type rdf:resource="http://purl.org/dc/dcmitype/StillImage"/>
    <dc:date>2025-09-30T20:45:50.858173</dc:date>
    <dc:format>image/svg+xml</dc:format>
    <dc:creator>
     <cc:Agent>
      <dc:title>Matplotlib v3.10.3, https://matplotlib.org/</dc:title>
     </cc:Agent>
    </dc:creator>
   </cc:Work>
  </rdf:RDF>
 </metadata>
 <defs>
  <style type="text/css">*{stroke-linejoin: round; stroke-linecap: butt}</style>
 </defs>
 <g id="figure_1">
  <g id="patch_1">
   <path d="M 0 432 
L 720 432 
L 720 0 
L 0 0 
z
" style="fill: #ffffff"/>
  </g>
  <g id="axes_1">
   <g id="patch_2">
    <path d="M 90 384.48 
L 648 384.48 
L 648 51.84 
L 90 51.84 
z
" style="fill: #ffffff"/>
   </g>
   <g id="matplotlib.axis_1">
    <g id="xtick_1">
     <g id="line2d_1">
      <defs>
       <path id="m63fc91c729" d="M 0 0 
L 0 3.5 
" style="stroke: #000000; stroke-width: 0.8"/>
      </defs>
      <g>
       <use xlink:href="#m63fc91c729" x="115.363636" y="384.48" style="stroke: #000000; stroke-width: 0.8"/>
      </g>
     </g>
     <g id="text_1">
      <!-- 0 -->
      <g transform="translate(112.182386 399.078438) scale(0.1 -0.1)">
       <defs>
        <path id="DejaVuSans-30" d="M 2034 4250 
Q 1547 4250 1301 3770 
Q 1056 3291 1056 2328 
Q 1056 1369 1301 889 
Q 1547 409 2034 409 
Q 2525 409 2770 889 
Q 3016 1369 3016 2328 
Q 3016 3291 2770 3770 
Q 2525 4250 2034 4250 
z
M 2034 4750 
Q 2819 4750 3233 4129 
Q 3647 3509 3647 2328 
Q 3647 1150 3233 529 
Q 2819 -91 2034 -91 
Q 1250 -91 836 529 
Q 422 1150 422 2328 
Q 422 3509 836 4129 
Q 1250 4750 2034 4750 
z
" transform="scale(0.015625)"/>
       </defs>
       <use xlink:href="#DejaVuSans-30"/>
      </g>
     </g>
    </g>
    <g id="xtick_2">
     <g id="line2d_2">
      <g>
       <use xlink:href="#m63fc91c729" x="198.707549" y="384.48" style="stroke: #000000; stroke-width: 0.8"/>
      </g>
     </g>
     <g id="text_2">
      <!-- 2000 -->
      <g transform="translate(185.982549 399.078438) scale(0.1 -0.1)">
       <defs>
        <path id="DejaVuSans-32" d="M 1228 531 
L 3431 531 
L 3431 0 
L 469 0 
L 469 531 
Q 828 903 1448 1529 
Q 2069 2156 2228 2338 
Q 2531 2678 2651 2914 
Q 2772 3150 2772 3378 
Q 2772 3750 2511 3984 
Q 2250 4219 1831 4219 
Q 1534 4219 1204 4116 
Q 875 4013 500 3803 
L 500 4441 
Q 881 4594 1212 4672 
Q 1544 4750 1819 4750 
Q 2544 4750 2975 4387 
Q 3406 4025 3406 3419 
Q 3406 3131 3298 2873 
Q 3191 2616 2906 2266 
Q 2828 2175 2409 1742 
Q 1991 1309 1228 531 
z
" transform="scale(0.015625)"/>
       </defs>
       <use xlink:href="#DejaVuSans-32"/>
       <use xlink:href="#DejaVuSans-30" transform="translate(63.623047 0)"/>
       <use xlink:href="#DejaVuSans-30" transform="translate(127.246094 0)"/>
       <use xlink:href="#DejaVuSans-30" transform="translate(190.869141 0)"/>
      </g>
     </g>
    </g>
    <g id="xtick_3">
     <g id="line2d_3">
      <g>
       <use xlink:href="#m63fc91c729" x="282.051463" y="384.48" style="stroke: #000000; stroke-width: 0.8"/>
      </g>
     </g>
     <g id="text_3">
      <!-- 4000 -->
      <g transform="translate(269.326463 399.078438) scale(0.1 -0.1)">
       <defs>
        <path id="DejaVuSans-34" d="M 2419 4116 
L 825 1625 
L 2419 1625 
L 2419 4116 
z
M 2253 4666 
L 3047 4666 
L 3047 1625 
L 3713 1625 
L 3713 1100 
L 3047 1100 
L 3047 0 
L 2419 0 
L 2419 1100 
L 313 1100 
L 313 1709 
L 2253 4666 
z
" transform="scale(0.015625)"/>
       </defs>
       <use xlink:href="#DejaVuSans-34"/>
       <use xlink:href="#DejaVuSans-30" transform="translate(63.623047 0)"/>
       <use xlink:href="#DejaVuSans-30" transform="translate(127.246094 0)"/>
       <use xlink:href="#DejaVuSans-30" transform="translate(190.869141 0)"/>
      </g>
     </g>
    </g>
    <g id="xtick_4">
     <g id="line2d_4">
      <g>
       <use xlink:href="#m63fc91c729" x="365.395376" y="384.48" style="stroke: #000000; stroke-width: 0.8"/>
      </g>
     </g>
     <g id="text_4">
      <!-- 6000 -->
      <g transform="translate(352.670376 399.078438) scale(0.1 -0.1)">
       <defs>
        <path id="DejaVuSans-36" d="M 2113 2584 
Q 1688 2584 1439 2293 
Q 1191 2003 1191 1497 
Q 1191 994 1439 701 
Q 1688 409 2113 409 
Q 2538 409 2786 701 
Q 3034 994 3034 1497 
Q 3034 2003 2786 2293 
Q 2538 2584 2113 2584 
z
M 3366 4563 
L 3366 3988 
Q 3128 4100 2886 4159 
Q 2644 4219 2406 4219 
Q 1781 4219 1451 3797 
Q 1122 3375 1075 2522 
Q 1259 2794 1537 2939 
Q 1816 3084 2150 3084 
Q 2853 3084 3261 2657 
Q 3669 2231 3669 1497 
Q 3669 778 3244 343 
Q 2819 -91 2113 -91 
Q 1303 -91 875 529 
Q 447 1150 447 2328 
Q 447 3434 972 4092 
Q 1497 4750 2381 4750 
Q 2619 4750 2861 4703 
Q 3103 4656 3366 4563 
z
" transform="scale(0.015625)"/>
       </defs>
       <use xlink:href="#DejaVuSans-36"/>
       <use xlink:href="#DejaVuSans-30" transform="translate(63.623047 0)"/>
       <use xlink:href="#DejaVuSans-30" transform="translate(127.246094 0)"/>
       <use xlink:href="#DejaVuSans-30" transform="translate(190.869141 0)"/>
      </g>
     </g>
    </g>
    <g id="xtick_5">
     <g id="line2d_5">
      <g>
       <use xlink:href="#m63fc91c729" x="448.739289" y="384.48" style="stroke: #000000; stroke-width: 0.8"/>
      </g>
     </g>
     <g id="text_5">
      <!-- 8000 -->
      <g transform="translate(436.014289 399.078438) scale(0.1 -0.1)">
       <defs>
        <path id="DejaVuSans-38" d="M 2034 2216 
Q 1584 2216 1326 1975 
Q 1069 1734 1069 1313 
Q 1069 891 1326 650 
Q 1584 409 2034 409 
Q 2484 409 2743 651 
Q 3003 894 3003 1313 
Q 3003 1734 2745 1975 
Q 2488 2216 2034 2216 
z
M 1403 2484 
Q 997 2584 770 2862 
Q 544 3141 544 3541 
Q 544 4100 942 4425 
Q 1341 4750 2034 4750 
Q 2731 4750 3128 4425 
Q 3525 4100 3525 3541 
Q 3525 3141 3298 2862 
Q 3072 2584 2669 2484 
Q 3125 2378 3379 2068 
Q 3634 1759 3634 1313 
Q 3634 634 3220 271 
Q 2806 -91 2034 -91 
Q 1263 -91 848 271 
Q 434 634 434 1313 
Q 434 1759 690 2068 
Q 947 2378 1403 2484 
z
M 1172 3481 
Q 1172 3119 1398 2916 
Q 1625 2713 2034 2713 
Q 2441 2713 2670 2916 
Q 2900 3119 2900 3481 
Q 2900 3844 2670 4047 
Q 2441 4250 2034 4250 
Q 1625 4250 1398 4047 
Q 1172 3844 1172 3481 
z
" transform="scale(0.015625)"/>
       </defs>
       <use xlink:href="#DejaVuSans-38"/>
       <use xlink:href="#DejaVuSans-30" transform="translate(63.623047 0)"/>
       <use xlink:href="#DejaVuSans-30" transform="translate(127.246094 0)"/>
       <use xlink:href="#DejaVuSans-30" transform="translate(190.869141 0)"/>
      </g>
     </g>
    </g>
    <g id="xtick_6">
     <g id="line2d_6">
      <g>
       <use xlink:href="#m63fc91c729" x="532.083202" y="384.48" style="stroke: #000000; stroke-width: 0.8"/>
      </g>
     </g>
     <g id="text_6">
      <!-- 10000 -->
      <g transform="translate(516.176952 399.078438) scale(0.1 -0.1)">
       <defs>
        <path id="DejaVuSans-31" d="M 794 531 
L 1825 531 
L 1825 4091 
L 703 3866 
L 703 4441 
L 1819 4666 
L 2450 4666 
L 2450 531 
L 3481 531 
L 3481 0 
L 794 0 
L 794 531 
z
" transform="scale(0.015625)"/>
       </defs>
       <use xlink:href="#DejaVuSans-31"/>
       <use xlink:href="#DejaVuSans-30" transform="translate(63.623047 0)"/>
       <use xlink:href="#DejaVuSans-30" transform="translate(127.246094 0)"/>
       <use xlink:href="#DejaVuSans-30" transform="translate(190.869141 0)"/>
       <use xlink:href="#DejaVuSans-30" transform="translate(254.492188 0)"/>
      </g>
     </g>
    </g>
    <g id="xtick_7">
     <g id="line2d_7">
      <g>
       <use xlink:href="#m63fc91c729" x="615.427115" y="384.48" style="stroke: #000000; stroke-width: 0.8"/>
      </g>
     </g>
     <g id="text_7">
      <!-- 12000 -->
      <g transform="translate(599.520865 399.078438) scale(0.1 -0.1)">
       <use xlink:href="#DejaVuSans-31"/>
       <use xlink:href="#DejaVuSans-32" transform="translate(63.623047 0)"/>
       <use xlink:href="#DejaVuSans-30" transform="translate(127.246094 0)"/>
       <use xlink:href="#DejaVuSans-30" transform="translate(190.869141 0)"/>
       <use xlink:href="#DejaVuSans-30" transform="translate(254.492188 0)"/>
      </g>
     </g>
    </g>
    <g id="text_8">
     <!-- Index -->
     <g transform="translate(355.233594 412.756563) scale(0.1 -0.1)">
      <defs>
       <path id="DejaVuSans-49" d="M 628 4666 
L 1259 4666 
L 1259 0 
L 628 0 
L 628 4666 
z
" transform="scale(0.015625)"/>
       <path id="DejaVuSans-6e" d="M 3513 2113 
L 3513 0 
L 2938 0 
L 2938 2094 
Q 2938 2591 2744 2837 
Q 2550 3084 2163 3084 
Q 1697 3084 1428 2787 
Q 1159 2491 1159 1978 
L 1159 0 
L 581 0 
L 581 3500 
L 1159 3500 
L 1159 2956 
Q 1366 3272 1645 3428 
Q 1925 3584 2291 3584 
Q 2894 3584 3203 3211 
Q 3513 2838 3513 2113 
z
" transform="scale(0.015625)"/>
       <path id="DejaVuSans-64" d="M 2906 2969 
L 2906 4863 
L 3481 4863 
L 3481 0 
L 2906 0 
L 2906 525 
Q 2725 213 2448 61 
Q 2172 -91 1784 -91 
Q 1150 -91 751 415 
Q 353 922 353 1747 
Q 353 2572 751 3078 
Q 1150 3584 1784 3584 
Q 2172 3584 2448 3432 
Q 2725 3281 2906 2969 
z
M 947 1747 
Q 947 1113 1208 752 
Q 1469 391 1925 391 
Q 2381 391 2643 752 
Q 2906 1113 2906 1747 
Q 2906 2381 2643 2742 
Q 2381 3103 1925 3103 
Q 1469 3103 1208 2742 
Q 947 2381 947 1747 
z
" transform="scale(0.015625)"/>
       <path id="DejaVuSans-65" d="M 3597 1894 
L 3597 1613 
L 953 1613 
Q 991 1019 1311 708 
Q 1631 397 2203 397 
Q 2534 397 2845 478 
Q 3156 559 3463 722 
L 3463 178 
Q 3153 47 2828 -22 
Q 2503 -91 2169 -91 
Q 1331 -91 842 396 
Q 353 884 353 1716 
Q 353 2575 817 3079 
Q 1281 3584 2069 3584 
Q 2775 3584 3186 3129 
Q 3597 2675 3597 1894 
z
M 3022 2063 
Q 3016 2534 2758 2815 
Q 2500 3097 2075 3097 
Q 1594 3097 1305 2825 
Q 1016 2553 972 2059 
L 3022 2063 
z
" transform="scale(0.015625)"/>
       <path id="DejaVuSans-78" d="M 3513 3500 
L 2247 1797 
L 3578 0 
L 2900 0 
L 1881 1375 
L 863 0 
L 184 0 
L 1544 1831 
L 300 3500 
L 978 3500 
L 1906 2253 
L 2834 3500 
L 3513 3500 
z
" transform="scale(0.015625)"/>
      </defs>
      <use xlink:href="#DejaVuSans-49"/>
      <use xlink:href="#DejaVuSans-6e" transform="translate(29.492188 0)"/>
      <use xlink:href="#DejaVuSans-64" transform="translate(92.871094 0)"/>
      <use xlink:href="#DejaVuSans-65" transform="translate(156.347656 0)"/>
      <use xlink:href="#DejaVuSans-78" transform="translate(216.121094 0)"/>
     </g>
    </g>
   </g>
   <g id="matplotlib.axis_2">
    <g id="ytick_1">
     <g id="line2d_8">
      <defs>
       <path id="meb9f40572d" d="M 0 0 
L -3.5 0 
" style="stroke: #000000; stroke-width: 0.8"/>
      </defs>
      <g>
       <use xlink:href="#meb9f40572d" x="90" y="384.48" style="stroke: #000000; stroke-width: 0.8"/>
      </g>
     </g>
     <g id="text_9">
      <!-- 0 -->
      <g transform="translate(76.6375 388.279219) scale(0.1 -0.1)">
       <use xlink:href="#DejaVuSans-30"/>
      </g>
     </g>
    </g>
    <g id="ytick_2">
     <g id="line2d_9">
      <g>
       <use xlink:href="#meb9f40572d" x="90" y="324.350574" style="stroke: #000000; stroke-width: 0.8"/>
      </g>
     </g>
     <g id="text_10">
      <!-- 20000 -->
      <g transform="translate(51.1875 328.149793) scale(0.1 -0.1)">
       <use xlink:href="#DejaVuSans-32"/>
       <use xlink:href="#DejaVuSans-30" transform="translate(63.623047 0)"/>
       <use xlink:href="#DejaVuSans-30" transform="translate(127.246094 0)"/>
       <use xlink:href="#DejaVuSans-30" transform="translate(190.869141 0)"/>
       <use xlink:href="#DejaVuSans-30" transform="translate(254.492188 0)"/>
      </g>
     </g>
    </g>
    <g id="ytick_3">
     <g id="line2d_10">
      <g>
       <use xlink:href="#meb9f40572d" x="90" y="264.221149" style="stroke: #000000; stroke-width: 0.8"/>
      </g>
     </g>
     <g id="text_11">
      <!-- 40000 -->
      <g transform="translate(51.1875 268.020367) scale(0.1 -0.1)">
       <use xlink:href="#DejaVuSans-34"/>
       <use xlink:href="#DejaVuSans-30" transform="translate(63.623047 0)"/>
       <use xlink:href="#DejaVuSans-30" transform="translate(127.246094 0)"/>
       <use xlink:href="#DejaVuSans-30" transform="translate(190.869141 0)"/>
       <use xlink:href="#DejaVuSans-30" transform="translate(254.492188 0)"/>
      </g>
     </g>
    </g>
    <g id="ytick_4">
     <g id="line2d_11">
      <g>
       <use xlink:href="#meb9f40572d" x="90" y="204.091723" style="stroke: #000000; stroke-width: 0.8"/>
      </g>
     </g>
     <g id="text_12">
      <!-- 60000 -->
      <g transform="translate(51.1875 207.890942) scale(0.1 -0.1)">
       <use xlink:href="#DejaVuSans-36"/>
       <use xlink:href="#DejaVuSans-30" transform="translate(63.623047 0)"/>
       <use xlink:href="#DejaVuSans-30" transform="translate(127.246094 0)"/>
       <use xlink:href="#DejaVuSans-30" transform="translate(190.869141 0)"/>
       <use xlink:href="#DejaVuSans-30" transform="translate(254.492188 0)"/>
      </g>
     </g>
    </g>
    <g id="ytick_5">
     <g id="line2d_12">
      <g>
       <use xlink:href="#meb9f40572d" x="90" y="143.962297" style="stroke: #000000; stroke-width: 0.8"/>
      </g>
     </g>
     <g id="text_13">
      <!-- 80000 -->
      <g transform="translate(51.1875 147.761516) scale(0.1 -0.1)">
       <use xlink:href="#DejaVuSans-38"/>
       <use xlink:href="#DejaVuSans-30" transform="translate(63.623047 0)"/>
       <use xlink:href="#DejaVuSans-30" transform="translate(127.246094 0)"/>
       <use xlink:href="#DejaVuSans-30" transform="translate(190.869141 0)"/>
       <use xlink:href="#DejaVuSans-30" transform="translate(254.492188 0)"/>
      </g>
     </g>
    </g>
    <g id="ytick_6">
     <g id="line2d_13">
      <g>
       <use xlink:href="#meb9f40572d" x="90" y="83.832872" style="stroke: #000000; stroke-width: 0.8"/>
      </g>
     </g>
     <g id="text_14">
      <!-- 100000 -->
      <g transform="translate(44.825 87.63209) scale(0.1 -0.1)">
       <use xlink:href="#DejaVuSans-31"/>
       <use xlink:href="#DejaVuSans-30" transform="translate(63.623047 0)"/>
       <use xlink:href="#DejaVuSans-30" transform="translate(127.246094 0)"/>
       <use xlink:href="#DejaVuSans-30" transform="translate(190.869141 0)"/>
       <use xlink:href="#DejaVuSans-30" transform="translate(254.492188 0)"/>
       <use xlink:href="#DejaVuSans-30" transform="translate(318.115234 0)"/>
      </g>
     </g>
    </g>
    <g id="text_15">
     <!-- Average time (ms) -->
     <g transform="translate(38.745312 264.543594) rotate(-90) scale(0.1 -0.1)">
      <defs>
       <path id="DejaVuSans-41" d="M 2188 4044 
L 1331 1722 
L 3047 1722 
L 2188 4044 
z
M 1831 4666 
L 2547 4666 
L 4325 0 
L 3669 0 
L 3244 1197 
L 1141 1197 
L 716 0 
L 50 0 
L 1831 4666 
z
" transform="scale(0.015625)"/>
       <path id="DejaVuSans-76" d="M 191 3500 
L 800 3500 
L 1894 563 
L 2988 3500 
L 3597 3500 
L 2284 0 
L 1503 0 
L 191 3500 
z
" transform="scale(0.015625)"/>
       <path id="DejaVuSans-72" d="M 2631 2963 
Q 2534 3019 2420 3045 
Q 2306 3072 2169 3072 
Q 1681 3072 1420 2755 
Q 1159 2438 1159 1844 
L 1159 0 
L 581 0 
L 581 3500 
L 1159 3500 
L 1159 2956 
Q 1341 3275 1631 3429 
Q 1922 3584 2338 3584 
Q 2397 3584 2469 3576 
Q 2541 3569 2628 3553 
L 2631 2963 
z
" transform="scale(0.015625)"/>
       <path id="DejaVuSans-61" d="M 2194 1759 
Q 1497 1759 1228 1600 
Q 959 1441 959 1056 
Q 959 750 1161 570 
Q 1363 391 1709 391 
Q 2188 391 2477 730 
Q 2766 1069 2766 1631 
L 2766 1759 
L 2194 1759 
z
M 3341 1997 
L 3341 0 
L 2766 0 
L 2766 531 
Q 2569 213 2275 61 
Q 1981 -91 1556 -91 
Q 1019 -91 701 211 
Q 384 513 384 1019 
Q 384 1609 779 1909 
Q 1175 2209 1959 2209 
L 2766 2209 
L 2766 2266 
Q 2766 2663 2505 2880 
Q 2244 3097 1772 3097 
Q 1472 3097 1187 3025 
Q 903 2953 641 2809 
L 641 3341 
Q 956 3463 1253 3523 
Q 1550 3584 1831 3584 
Q 2591 3584 2966 3190 
Q 3341 2797 3341 1997 
z
" transform="scale(0.015625)"/>
       <path id="DejaVuSans-67" d="M 2906 1791 
Q 2906 2416 2648 2759 
Q 2391 3103 1925 3103 
Q 1463 3103 1205 2759 
Q 947 2416 947 1791 
Q 947 1169 1205 825 
Q 1463 481 1925 481 
Q 2391 481 2648 825 
Q 2906 1169 2906 1791 
z
M 3481 434 
Q 3481 -459 3084 -895 
Q 2688 -1331 1869 -1331 
Q 1566 -1331 1297 -1286 
Q 1028 -1241 775 -1147 
L 775 -588 
Q 1028 -725 1275 -790 
Q 1522 -856 1778 -856 
Q 2344 -856 2625 -561 
Q 2906 -266 2906 331 
L 2906 616 
Q 2728 306 2450 153 
Q 2172 0 1784 0 
Q 1141 0 747 490 
Q 353 981 353 1791 
Q 353 2603 747 3093 
Q 1141 3584 1784 3584 
Q 2172 3584 2450 3431 
Q 2728 3278 2906 2969 
L 2906 3500 
L 3481 3500 
L 3481 434 
z
" transform="scale(0.015625)"/>
       <path id="DejaVuSans-20" transform="scale(0.015625)"/>
       <path id="DejaVuSans-74" d="M 1172 4494 
L 1172 3500 
L 2356 3500 
L 2356 3053 
L 1172 3053 
L 1172 1153 
Q 1172 725 1289 603 
Q 1406 481 1766 481 
L 2356 481 
L 2356 0 
L 1766 0 
Q 1100 0 847 248 
Q 594 497 594 1153 
L 594 3053 
L 172 3053 
L 172 3500 
L 594 3500 
L 594 4494 
L 1172 4494 
z
" transform="scale(0.015625)"/>
       <path id="DejaVuSans-69" d="M 603 3500 
L 1178 3500 
L 1178 0 
L 603 0 
L 603 3500 
z
M 603 4863 
L 1178 4863 
L 1178 4134 
L 603 4134 
L 603 4863 
z
" transform="scale(0.015625)"/>
       <path id="DejaVuSans-6d" d="M 3328 2828 
Q 3544 3216 3844 3400 
Q 4144 3584 4550 3584 
Q 5097 3584 5394 3201 
Q 5691 2819 5691 2113 
L 5691 0 
L 5113 0 
L 5113 2094 
Q 5113 2597 4934 2840 
Q 4756 3084 4391 3084 
Q 3944 3084 3684 2787 
Q 3425 2491 3425 1978 
L 3425 0 
L 2847 0 
L 2847 2094 
Q 2847 2600 2669 2842 
Q 2491 3084 2119 3084 
Q 1678 3084 1418 2786 
Q 1159 2488 1159 1978 
L 1159 0 
L 581 0 
L 581 3500 
L 1159 3500 
L 1159 2956 
Q 1356 3278 1631 3431 
Q 1906 3584 2284 3584 
Q 2666 3584 2933 3390 
Q 3200 3197 3328 2828 
z
" transform="scale(0.015625)"/>
       <path id="DejaVuSans-28" d="M 1984 4856 
Q 1566 4138 1362 3434 
Q 1159 2731 1159 2009 
Q 1159 1288 1364 580 
Q 1569 -128 1984 -844 
L 1484 -844 
Q 1016 -109 783 600 
Q 550 1309 550 2009 
Q 550 2706 781 3412 
Q 1013 4119 1484 4856 
L 1984 4856 
z
" transform="scale(0.015625)"/>
       <path id="DejaVuSans-73" d="M 2834 3397 
L 2834 2853 
Q 2591 2978 2328 3040 
Q 2066 3103 1784 3103 
Q 1356 3103 1142 2972 
Q 928 2841 928 2578 
Q 928 2378 1081 2264 
Q 1234 2150 1697 2047 
L 1894 2003 
Q 2506 1872 2764 1633 
Q 3022 1394 3022 966 
Q 3022 478 2636 193 
Q 2250 -91 1575 -91 
Q 1294 -91 989 -36 
Q 684 19 347 128 
L 347 722 
Q 666 556 975 473 
Q 1284 391 1588 391 
Q 1994 391 2212 530 
Q 2431 669 2431 922 
Q 2431 1156 2273 1281 
Q 2116 1406 1581 1522 
L 1381 1569 
Q 847 1681 609 1914 
Q 372 2147 372 2553 
Q 372 3047 722 3315 
Q 1072 3584 1716 3584 
Q 2034 3584 2315 3537 
Q 2597 3491 2834 3397 
z
" transform="scale(0.015625)"/>
       <path id="DejaVuSans-29" d="M 513 4856 
L 1013 4856 
Q 1481 4119 1714 3412 
Q 1947 2706 1947 2009 
Q 1947 1309 1714 600 
Q 1481 -109 1013 -844 
L 513 -844 
Q 928 -128 1133 580 
Q 1338 1288 1338 2009 
Q 1338 2731 1133 3434 
Q 928 4138 513 4856 
z
" transform="scale(0.015625)"/>
      </defs>
      <use xlink:href="#DejaVuSans-41"/>
      <use xlink:href="#DejaVuSans-76" transform="translate(62.533203 0)"/>
      <use xlink:href="#DejaVuSans-65" transform="translate(121.712891 0)"/>
      <use xlink:href="#DejaVuSans-72" transform="translate(183.236328 0)"/>
      <use xlink:href="#DejaVuSans-61" transform="translate(224.349609 0)"/>
      <use xlink:href="#DejaVuSans-67" transform="translate(285.628906 0)"/>
      <use xlink:href="#DejaVuSans-65" transform="translate(349.105469 0)"/>
      <use xlink:href="#DejaVuSans-20" transform="translate(410.628906 0)"/>
      <use xlink:href="#DejaVuSans-74" transform="translate(442.416016 0)"/>
      <use xlink:href="#DejaVuSans-69" transform="translate(481.625 0)"/>
      <use xlink:href="#DejaVuSans-6d" transform="translate(509.408203 0)"/>
      <use xlink:href="#DejaVuSans-65" transform="translate(606.820312 0)"/>
      <use xlink:href="#DejaVuSans-20" transform="translate(668.34375 0)"/>
      <use xlink:href="#DejaVuSans-28" transform="translate(700.130859 0)"/>
      <use xlink:href="#DejaVuSans-6d" transform="translate(739.144531 0)"/>
      <use xlink:href="#DejaVuSans-73" transform="translate(836.556641 0)"/>
      <use xlink:href="#DejaVuSans-29" transform="translate(888.65625 0)"/>
     </g>
    </g>
   </g>
   <g id="line2d_14">
    <path d="M 115.363636 384.473021 
L 116.405435 384.478716 
L 123.864716 384.470583 
L 123.906387 384.049077 
L 123.948059 384.457998 
L 125.406578 384.470776 
L 127.57352 384.437677 
L 127.781879 384.47093 
L 128.531975 384.470126 
L 128.573647 384.245837 
L 128.615319 384.471045 
L 133.199234 384.470837 
L 133.240906 384.240735 
L 133.282578 384.46951 
L 136.53299 384.471252 
L 136.574662 384.358787 
L 136.616334 384.470534 
L 137.866493 384.468054 
L 137.908165 384.255537 
L 137.949837 384.465488 
L 138.783276 384.470675 
L 142.533752 384.46696 
L 142.575424 384.251418 
L 142.617096 384.469283 
L 145.200757 384.470321 
L 145.242429 384.234913 
L 145.284101 384.470848 
L 146.53426 384.468342 
L 146.575932 384.163042 
L 146.617604 384.470994 
L 149.201265 384.469985 
L 149.242937 384.242966 
L 149.284609 384.470205 
L 150.534768 384.470468 
L 150.57644 384.198183 
L 150.618112 384.47121 
L 152.868397 384.470806 
L 153.201773 384.470229 
L 153.243445 384.231246 
L 153.285117 384.469896 
L 154.535276 384.469704 
L 154.576947 384.191388 
L 154.618619 384.45762 
L 154.993667 384.469682 
L 157.202281 384.468057 
L 157.243953 384.213419 
L 157.285625 384.467001 
L 158.535783 384.469454 
L 158.577455 384.147825 
L 158.619127 384.468721 
L 159.869286 384.466381 
L 159.910958 384.059709 
L 159.95263 384.466538 
L 160.869413 384.46778 
L 160.911085 384.391744 
L 160.994429 384.46265 
L 161.202789 384.465783 
L 161.244461 384.068493 
L 161.286132 384.465672 
L 162.536291 384.46555 
L 162.577963 384.055766 
L 162.619635 384.467101 
L 163.869794 384.464129 
L 163.911466 384.111704 
L 163.953138 384.466057 
L 166.536799 384.467784 
L 166.578471 384.343834 
L 166.620143 384.466483 
L 167.870302 384.467651 
L 167.911974 384.198502 
L 167.953646 384.468009 
L 170.537307 384.467673 
L 170.578979 384.332974 
L 170.620651 384.466758 
L 171.870809 384.467219 
L 171.912481 384.188312 
L 171.954153 384.465278 
L 174.537815 384.467513 
L 174.579487 384.333931 
L 174.621159 384.46637 
L 175.871317 384.464808 
L 175.912989 384.178202 
L 175.954661 384.467273 
L 176.454725 384.467254 
L 177.288164 384.467564 
L 178.538323 384.466788 
L 178.579994 384.341427 
L 178.621666 384.464419 
L 179.830153 384.464098 
L 179.871825 384.465827 
L 179.913497 384.153401 
L 179.955169 384.465359 
L 181.205328 384.464976 
L 181.247 384.128402 
L 181.288672 384.465789 
L 182.53883 384.466918 
L 182.580502 384.140706 
L 182.622174 384.464414 
L 183.872333 384.467031 
L 183.914005 384.142978 
L 183.955677 384.467063 
L 185.205836 384.466256 
L 185.247508 384.157056 
L 185.289179 384.460704 
L 185.914259 384.468625 
L 189.206343 384.467095 
L 189.248015 384.201148 
L 189.289687 384.46837 
L 191.873349 384.467926 
L 191.915021 384.34366 
L 191.956693 384.46604 
L 192.456756 384.465908 
L 193.206851 384.46708 
L 193.248523 384.201141 
L 193.290195 384.465793 
L 195.165433 384.467876 
L 196.498936 384.457423 
L 196.873983 384.467437 
L 196.998999 384.465721 
L 197.207359 384.465103 
L 197.249031 384.198688 
L 197.290703 384.465547 
L 199.874364 384.466763 
L 199.916036 384.32839 
L 199.957708 384.459474 
L 200.541116 384.466878 
L 200.666131 384.466024 
L 201.207867 384.467014 
L 201.249539 384.132099 
L 201.291211 384.465059 
L 202.541369 384.467267 
L 202.583041 384.135798 
L 202.624713 384.46538 
L 203.874872 384.467267 
L 203.916544 384.138107 
L 203.958216 384.467418 
L 205.208375 384.464664 
L 205.250047 384.127163 
L 205.291719 384.464953 
L 206.541877 384.467118 
L 206.583549 384.187807 
L 206.625221 384.466554 
L 208.875507 384.468605 
L 209.208883 384.466832 
L 209.250555 384.310635 
L 209.292226 384.466811 
L 210.542385 384.466875 
L 210.584057 384.193471 
L 210.625729 384.468511 
L 214.542893 384.467318 
L 214.584565 384.205554 
L 214.626237 384.467794 
L 216.584819 384.46802 
L 217.209898 384.466945 
L 217.25157 384.327071 
L 217.293242 384.46553 
L 218.543401 384.467132 
L 218.585073 384.20394 
L 218.626745 384.465531 
L 221.210406 384.462914 
L 221.252078 384.319921 
L 221.29375 384.465248 
L 222.543909 384.467276 
L 222.585581 384.093256 
L 222.627253 384.464927 
L 223.877411 384.467421 
L 223.919083 384.104699 
L 223.960755 384.467413 
L 225.210914 384.467386 
L 225.252586 384.155154 
L 225.294258 384.4676 
L 226.544416 384.464379 
L 226.586088 384.105995 
L 226.62776 384.466376 
L 227.877919 384.466634 
L 227.919591 384.197017 
L 227.961263 384.468715 
L 230.544924 384.467849 
L 230.586596 384.317583 
L 230.628268 384.466409 
L 231.878427 384.467195 
L 231.920099 384.20258 
L 231.961771 384.46545 
L 234.545432 384.465466 
L 234.587104 384.322417 
L 234.628776 384.466389 
L 235.878935 384.466369 
L 235.920607 384.196878 
L 235.962279 384.46746 
L 238.54594 384.467454 
L 238.587612 384.340176 
L 238.629284 384.46592 
L 239.879443 384.467523 
L 239.921115 384.18709 
L 239.962786 384.468312 
L 242.546448 384.466017 
L 242.58812 384.343093 
L 242.629792 384.464232 
L 243.87995 384.466861 
L 243.921622 384.154381 
L 243.963294 384.467738 
L 245.213453 384.464002 
L 245.255125 384.162613 
L 245.296797 384.465634 
L 246.546956 384.466775 
L 246.588628 384.143562 
L 246.6303 384.467354 
L 247.880458 384.466316 
L 247.92213 384.15115 
L 247.963802 384.452677 
L 248.213834 384.466673 
L 248.33885 384.467592 
L 249.213961 384.466972 
L 249.255633 383.899066 
L 249.297305 384.466535 
L 250.547463 384.464156 
L 250.589135 383.794679 
L 250.630807 384.46404 
L 251.880966 384.46581 
L 251.922638 383.801691 
L 251.96431 384.465888 
L 253.214469 384.463154 
L 253.256141 383.802264 
L 253.297813 384.4657 
L 254.547971 384.466127 
L 254.589643 384.049461 
L 254.631315 384.465025 
L 255.173051 384.453749 
L 255.214723 384.459512 
L 255.256395 384.159347 
L 255.298067 384.45909 
L 255.714786 384.465873 
L 255.756458 384.391698 
L 255.839802 384.464984 
L 255.881474 384.464491 
L 255.923146 384.161735 
L 255.964818 384.465959 
L 256.548225 384.464709 
L 256.589897 384.159093 
L 256.631569 384.460892 
L 257.048289 384.466004 
L 257.089961 384.391506 
L 257.173305 384.462814 
L 257.214977 384.462807 
L 257.256648 383.902371 
L 257.29832 384.465795 
L 258.548479 384.464176 
L 258.590151 383.814814 
L 258.631823 384.465338 
L 259.881982 384.464615 
L 259.923654 383.798783 
L 259.965326 384.462811 
L 260.882109 384.465897 
L 260.923781 384.381926 
L 260.965453 384.457579 
L 261.215484 384.465803 
L 261.257156 383.748957 
L 261.298828 384.465276 
L 262.548987 384.465605 
L 262.590659 384.029546 
L 262.632331 384.465392 
L 263.215738 384.464529 
L 263.25741 384.152287 
L 263.299082 384.464831 
L 263.88249 384.46235 
L 263.924162 384.137448 
L 263.965833 384.461465 
L 264.549241 384.464755 
L 264.590913 384.135854 
L 264.632585 384.465205 
L 265.215992 384.465091 
L 265.257664 383.922467 
L 265.299336 384.464456 
L 266.549495 384.464107 
L 266.591167 383.734167 
L 266.632839 384.462201 
L 267.882997 384.462073 
L 267.924669 383.739141 
L 267.966341 384.465206 
L 269.2165 384.465115 
L 269.258172 383.742081 
L 269.299844 384.464471 
L 270.550003 384.464597 
L 270.591675 384.023206 
L 270.633347 384.461602 
L 271.216754 384.461921 
L 271.258426 384.151562 
L 271.300098 384.458957 
L 271.883505 384.46223 
L 271.925177 384.098074 
L 271.966849 384.462613 
L 272.550257 384.461484 
L 272.591928 384.104898 
L 272.6336 384.464789 
L 273.217008 384.464405 
L 273.25868 383.889065 
L 273.300352 384.463607 
L 274.55051 384.465416 
L 274.592182 383.729233 
L 274.633854 384.463963 
L 275.884013 384.464406 
L 275.925685 383.671167 
L 275.967357 384.462418 
L 277.217516 384.45918 
L 277.259188 383.704758 
L 277.30086 384.461403 
L 277.884267 384.460227 
L 277.925939 384.388247 
L 278.009283 384.465125 
L 278.551018 384.464685 
L 278.59269 383.986073 
L 278.634362 384.463592 
L 279.21777 384.448222 
L 279.259442 384.135825 
L 279.301113 384.458664 
L 279.884521 384.459638 
L 279.926193 384.143262 
L 279.967865 384.463998 
L 280.551272 384.462495 
L 280.592944 384.111862 
L 280.634616 384.463587 
L 281.218023 384.461396 
L 281.259695 374.020066 
L 281.301367 384.462387 
L 282.551526 384.464337 
L 282.593198 383.984511 
L 282.63487 384.461758 
L 283.885029 384.465873 
L 283.926701 384.041386 
L 283.968373 384.462918 
L 285.218531 384.463638 
L 285.260203 384.0572 
L 285.301875 384.461846 
L 286.552034 384.4656 
L 286.593706 384.129305 
L 286.635378 384.460646 
L 287.218785 384.464403 
L 287.260457 384.257356 
L 287.302129 384.464849 
L 287.885537 384.466183 
L 287.927209 384.255263 
L 287.96888 384.466043 
L 288.552288 384.464956 
L 288.59396 384.265453 
L 288.635632 384.463248 
L 289.219039 384.465797 
L 289.260711 384.12417 
L 289.302383 384.463311 
L 290.552542 384.463117 
L 290.594214 384.007463 
L 290.635886 384.458806 
L 291.552669 384.466056 
L 291.677685 384.464356 
L 291.886044 384.462715 
L 291.927716 384.041681 
L 291.969388 384.459239 
L 293.219547 384.465437 
L 293.261219 384.030205 
L 293.302891 384.462907 
L 294.469706 384.46194 
L 294.55305 384.466047 
L 294.594722 384.144139 
L 294.636394 384.46518 
L 295.219801 384.462678 
L 295.261473 384.259299 
L 295.303145 384.462759 
L 295.886552 384.464586 
L 295.928224 384.248769 
L 295.969896 384.463952 
L 296.553304 384.465579 
L 296.594975 384.23077 
L 296.636647 384.464578 
L 297.220055 384.463158 
L 297.261727 384.166812 
L 297.303399 384.463736 
L 298.553557 384.461041 
L 298.595229 384.009741 
L 298.636901 384.4639 
L 299.88706 384.465569 
L 299.928732 384.048864 
L 299.970404 384.462211 
L 301.220563 384.465336 
L 301.262235 384.000385 
L 301.303907 384.46168 
L 302.554065 384.465391 
L 302.595737 384.079504 
L 302.637409 384.464451 
L 303.220817 384.46445 
L 303.262489 384.260005 
L 303.30416 384.462561 
L 303.762552 384.415434 
L 303.887568 384.462046 
L 303.92924 384.255467 
L 303.970912 384.452156 
L 304.387631 384.464303 
L 304.512647 384.46509 
L 304.554319 384.465001 
L 304.595991 384.206484 
L 304.637663 384.464365 
L 305.22107 384.465039 
L 305.262742 384.122113 
L 305.304414 384.460818 
L 306.221197 384.464282 
L 306.346213 384.464435 
L 306.554573 384.465272 
L 306.596245 384.02703 
L 306.637917 384.459467 
L 307.888076 384.464715 
L 307.929748 384.042273 
L 307.97142 384.46113 
L 309.221578 384.465067 
L 309.26325 384.000845 
L 309.304922 384.462938 
L 310.555081 384.461754 
L 310.596753 384.13861 
L 310.638425 384.462915 
L 311.221832 384.462748 
L 311.263504 384.214602 
L 311.305176 384.460913 
L 311.888584 384.460005 
L 311.930255 384.255342 
L 311.971927 384.461481 
L 312.555335 384.463295 
L 312.597007 384.231931 
L 312.638679 384.459487 
L 313.222086 384.464767 
L 313.263758 376.807744 
L 313.30543 384.462142 
L 314.555589 384.462905 
L 314.597261 384.008101 
L 314.638933 384.463171 
L 315.889091 384.464558 
L 315.930763 384.004443 
L 315.972435 384.460787 
L 317.222594 384.458622 
L 317.264266 383.994552 
L 317.305938 384.461392 
L 318.556097 384.462486 
L 318.597769 384.12158 
L 318.63944 384.462382 
L 319.222848 384.465812 
L 319.26452 384.255569 
L 319.306192 384.462685 
L 319.889599 384.465064 
L 319.931271 384.252418 
L 319.972943 384.462609 
L 320.55635 384.463267 
L 320.598022 384.2233 
L 320.639694 384.465783 
L 321.223102 384.464704 
L 321.264774 384.178642 
L 321.306446 384.460402 
L 322.223229 384.465753 
L 322.348245 384.463919 
L 322.556604 384.465847 
L 322.598276 383.99043 
L 322.639948 384.463009 
L 323.890107 384.465668 
L 323.931779 384.036974 
L 323.973451 384.46162 
L 325.22361 384.463768 
L 325.265282 384.051244 
L 325.306954 384.460977 
L 326.557112 384.464447 
L 326.598784 384.079263 
L 326.640456 384.465554 
L 327.223864 384.46449 
L 327.265535 384.206 
L 327.307207 384.458898 
L 327.890615 384.46285 
L 327.932287 384.227075 
L 327.973959 384.46251 
L 328.557366 384.465195 
L 328.599038 384.244643 
L 328.64071 384.46427 
L 329.224117 384.463671 
L 329.265789 384.170874 
L 329.307461 384.46065 
L 330.224244 384.464611 
L 330.34926 384.463253 
L 330.55762 384.464167 
L 330.599292 384.048296 
L 330.640964 384.463426 
L 331.016012 384.464113 
L 331.891123 384.465263 
L 331.932795 384.011336 
L 331.974467 384.450264 
L 332.432858 384.464303 
L 333.224625 384.464785 
L 333.266297 384.003966 
L 333.307969 384.460077 
L 334.224752 384.464987 
L 334.349768 384.463794 
L 334.558128 384.465841 
L 334.5998 384.126764 
L 334.641472 384.465156 
L 335.224879 384.462338 
L 335.266551 384.231481 
L 335.308223 384.463519 
L 335.891631 384.46451 
L 335.933302 384.240832 
L 335.974974 384.464127 
L 336.558382 384.460382 
L 336.600054 384.195104 
L 336.641726 384.448329 
L 336.891757 384.465025 
L 337.016773 384.457148 
L 337.225133 384.464939 
L 337.266805 384.168124 
L 337.308477 384.459436 
L 338.558636 384.464362 
L 338.600308 384.026062 
L 338.64198 384.462542 
L 339.892138 384.464311 
L 339.93381 384.055575 
L 339.975482 384.462889 
L 341.225641 384.460891 
L 341.267313 384.045353 
L 341.308985 384.460626 
L 342.559144 384.464034 
L 342.600816 384.110586 
L 342.642487 384.46202 
L 343.225895 384.463786 
L 343.267567 384.229534 
L 343.309239 384.459332 
L 343.892646 384.462311 
L 343.934318 384.255547 
L 343.97599 384.463683 
L 344.559397 384.461639 
L 344.601069 384.24813 
L 344.642741 384.460387 
L 345.226149 384.463866 
L 345.267821 376.721278 
L 345.309493 384.461171 
L 346.559651 384.463405 
L 346.601323 384.057226 
L 346.642995 384.462794 
L 347.893154 384.466461 
L 347.934826 384.047462 
L 347.976498 384.460288 
L 349.226657 384.465964 
L 349.268329 384.039485 
L 349.310001 384.462784 
L 350.560159 384.46567 
L 350.601831 384.093477 
L 350.643503 384.46529 
L 351.226911 384.465557 
L 351.268582 384.254301 
L 351.310254 384.465782 
L 351.893662 384.462337 
L 351.935334 384.229519 
L 351.977006 384.46556 
L 352.560413 384.463557 
L 352.602085 384.23807 
L 352.643757 384.465146 
L 353.227164 384.465077 
L 353.268836 384.150711 
L 353.310508 384.463721 
L 354.560667 384.465662 
L 354.602339 383.951148 
L 354.644011 384.463677 
L 355.89417 384.457966 
L 355.935842 384.045295 
L 355.977514 384.459825 
L 357.227672 384.465993 
L 357.269344 384.038183 
L 357.311016 384.462498 
L 358.561175 384.461407 
L 358.602847 384.089737 
L 358.644519 384.464833 
L 359.227926 384.464831 
L 359.269598 384.191058 
L 359.31127 384.46102 
L 359.894677 384.463305 
L 359.936349 384.252506 
L 359.978021 384.462657 
L 360.561429 384.463677 
L 360.603101 384.233504 
L 360.644773 384.464101 
L 361.22818 384.465418 
L 361.269852 384.170487 
L 361.311524 384.460585 
L 362.228307 384.461919 
L 362.353323 384.4636 
L 362.561683 384.46326 
L 362.603355 383.95838 
L 362.645027 384.462693 
L 363.895185 384.46294 
L 363.936857 383.906936 
L 363.978529 384.459966 
L 365.228688 384.465398 
L 365.27036 384.022034 
L 365.312032 384.460986 
L 366.562191 384.460234 
L 366.603862 384.110221 
L 366.645534 384.464243 
L 367.228942 384.464202 
L 367.270614 384.237037 
L 367.312286 384.464018 
L 367.895693 384.460187 
L 367.937365 384.221565 
L 367.979037 384.4619 
L 368.562444 384.461971 
L 368.604116 384.254227 
L 368.645788 384.465431 
L 369.229196 384.464581 
L 369.270868 384.094254 
L 369.31254 384.462027 
L 370.562698 384.464373 
L 370.60437 384.051002 
L 370.646042 384.462812 
L 371.896201 384.462979 
L 371.937873 384.020426 
L 371.979545 384.460279 
L 373.229704 384.461912 
L 373.271376 384.038998 
L 373.313048 384.459823 
L 374.563206 384.46327 
L 374.604878 384.128552 
L 374.64655 384.464008 
L 375.229958 384.453876 
L 375.271629 384.248349 
L 375.313301 384.46274 
L 375.896709 384.461015 
L 375.938381 384.181972 
L 375.980053 384.452904 
L 376.396772 384.463588 
L 376.521788 384.464383 
L 376.56346 384.464603 
L 376.605132 384.233528 
L 376.646804 384.463305 
L 377.230211 384.46482 
L 377.271883 376.763271 
L 377.313555 384.460247 
L 378.563714 384.466404 
L 378.605386 384.043662 
L 378.647058 384.463059 
L 379.897217 384.463677 
L 379.938889 383.961795 
L 379.980561 384.462651 
L 381.230719 384.463605 
L 381.272391 384.024751 
L 381.314063 384.4613 
L 382.564222 384.462991 
L 382.605894 384.128011 
L 382.647566 384.464046 
L 383.147629 384.465825 
L 383.230973 384.466174 
L 383.272645 384.24904 
L 383.314317 384.463751 
L 383.897724 384.465405 
L 383.939396 384.254579 
L 383.981068 384.462867 
L 384.564476 384.463945 
L 384.606148 384.207165 
L 384.64782 384.465454 
L 385.231227 384.46432 
L 385.272899 384.178158 
L 385.314571 384.460831 
L 386.56473 384.463447 
L 386.606402 384.024051 
L 386.648074 384.457228 
L 387.231481 384.46543 
L 387.356497 384.460657 
L 387.898232 384.451995 
L 387.939904 384.04892 
L 387.981576 384.462887 
L 389.231735 384.464941 
L 389.273407 383.985833 
L 389.315079 384.456526 
L 390.565238 384.463323 
L 390.606909 384.103447 
L 390.648581 384.461763 
L 391.231989 384.462374 
L 391.273661 384.242119 
L 391.315333 384.464868 
L 391.89874 384.461517 
L 391.940412 384.259823 
L 391.982084 384.463272 
L 392.565491 384.464711 
L 392.607163 384.232723 
L 392.648835 384.46438 
L 393.232243 384.465721 
L 393.273915 384.128822 
L 393.315587 384.461332 
L 394.565745 384.46265 
L 394.607417 384.031292 
L 394.649089 384.460003 
L 395.899248 384.465303 
L 395.94092 384.03316 
L 395.982592 384.463305 
L 397.232751 384.463287 
L 397.274423 384.004904 
L 397.316094 384.460168 
L 398.566253 384.461936 
L 398.607925 384.111294 
L 398.649597 384.464571 
L 399.233004 384.463583 
L 399.274676 384.249021 
L 399.316348 384.461459 
L 399.899756 384.46483 
L 399.941428 384.245281 
L 399.9831 384.460988 
L 400.566507 384.464437 
L 400.608179 384.251881 
L 400.649851 384.464413 
L 400.983227 384.465351 
L 401.233258 384.46224 
L 401.27493 384.160183 
L 401.316602 384.461709 
L 402.566761 384.463238 
L 402.608433 384.020804 
L 402.650105 384.462388 
L 403.900264 384.461848 
L 403.941936 384.033593 
L 403.983608 384.461055 
L 405.233766 384.45944 
L 405.275438 384.047042 
L 405.31711 384.462869 
L 405.650486 384.461151 
L 406.567269 384.461274 
L 406.608941 384.115168 
L 406.650613 384.462756 
L 407.23402 384.464272 
L 407.275692 384.237894 
L 407.317364 384.460148 
L 407.900771 384.462809 
L 407.942443 384.230881 
L 407.984115 384.464106 
L 408.567523 384.462831 
L 408.609195 384.219499 
L 408.650867 384.461124 
L 409.234274 384.463717 
L 409.275946 376.734878 
L 409.317618 384.460894 
L 409.901025 384.453448 
L 409.942697 384.148534 
L 409.984369 384.461648 
L 410.567777 384.461845 
L 410.609449 384.142536 
L 410.651121 384.461742 
L 411.234528 384.462295 
L 411.2762 384.040619 
L 411.317872 384.45874 
L 411.901279 384.462325 
L 411.942951 384.139361 
L 411.984623 384.456651 
L 412.568031 384.459537 
L 412.609703 384.122849 
L 412.651375 384.460487 
L 413.234782 384.461739 
L 413.276454 384.109385 
L 413.318126 384.459808 
L 413.901533 384.462567 
L 413.943205 384.088213 
L 413.984877 384.46133 
L 414.568285 384.459205 
L 414.609956 384.143854 
L 414.651628 384.459237 
L 415.235036 384.461219 
L 415.276708 384.119173 
L 415.31838 384.459921 
L 415.901787 384.46133 
L 415.943459 384.135633 
L 415.985131 384.461067 
L 416.568538 384.461668 
L 416.61021 384.138864 
L 416.651882 384.461376 
L 417.23529 384.458017 
L 417.276962 384.131034 
L 417.318634 384.456975 
L 417.735353 384.458253 
L 417.777025 384.379098 
L 417.860369 384.454536 
L 417.902041 384.460538 
L 417.943713 384.144526 
L 417.985385 384.458384 
L 418.568792 384.461486 
L 418.610464 384.129591 
L 418.652136 384.459638 
L 419.235544 384.45171 
L 419.277216 384.14627 
L 419.318888 384.457863 
L 419.902295 384.461665 
L 419.943967 380.088095 
L 419.985639 384.461152 
L 420.569046 384.460984 
L 420.610718 384.13264 
L 420.65239 384.461275 
L 421.235798 384.461654 
L 421.27747 384.129876 
L 421.319141 384.46096 
L 421.902549 384.46192 
L 421.944221 384.111721 
L 421.985893 384.462291 
L 422.5693 384.459026 
L 422.610972 384.138851 
L 422.652644 384.46052 
L 423.236051 384.458074 
L 423.277723 384.115349 
L 423.319395 384.457554 
L 423.902803 384.460903 
L 423.944475 384.087765 
L 423.986147 384.460006 
L 424.569554 384.461024 
L 424.611226 384.080485 
L 424.652898 384.454381 
L 425.236305 384.461159 
L 425.277977 384.140944 
L 425.319649 384.456442 
L 425.903057 384.461797 
L 425.944729 384.07565 
L 425.986401 384.45702 
L 426.569808 384.456933 
L 426.61148 384.139265 
L 426.653152 384.455672 
L 427.236559 384.458367 
L 427.278231 384.0573 
L 427.319903 384.459556 
L 427.903311 384.461998 
L 427.944983 384.09761 
L 427.986655 384.459598 
L 428.570062 384.457764 
L 428.611734 384.129047 
L 428.653406 384.457585 
L 428.903438 384.461455 
L 428.94511 384.364212 
L 428.986781 384.460624 
L 429.236813 384.457988 
L 429.278485 384.144447 
L 429.320157 384.457096 
L 429.736877 384.462349 
L 429.778549 384.380548 
L 429.861893 384.459102 
L 429.903565 384.460894 
L 429.945236 384.131952 
L 429.986908 384.45964 
L 430.570316 384.459486 
L 430.611988 379.96835 
L 430.65366 384.459718 
L 431.237067 384.457464 
L 431.278739 384.130225 
L 431.320411 384.459287 
L 431.903818 384.456149 
L 431.94549 384.127728 
L 431.987162 384.457645 
L 432.57057 384.460654 
L 432.612242 384.131353 
L 432.653914 384.4608 
L 433.237321 384.460997 
L 433.278993 384.128199 
L 433.320665 384.457792 
L 433.904072 384.458589 
L 433.945744 384.125782 
L 433.987416 384.457616 
L 434.570824 384.459491 
L 434.612496 384.127916 
L 434.654168 384.455821 
L 435.237575 384.454589 
L 435.279247 384.100518 
L 435.320919 384.45972 
L 435.904326 384.459281 
L 435.945998 384.120198 
L 435.98767 384.453146 
L 436.40439 384.459575 
L 436.446062 384.383745 
L 436.529406 384.45557 
L 436.571078 384.457915 
L 436.61275 384.128576 
L 436.654421 384.458256 
L 437.237829 384.45886 
L 437.279501 384.122866 
L 437.321173 384.454934 
L 437.90458 384.454923 
L 437.946252 384.118796 
L 437.987924 384.458325 
L 438.571331 384.457726 
L 438.613003 384.119522 
L 438.654675 384.457942 
L 439.238083 384.45819 
L 439.279755 384.117902 
L 439.321427 384.457635 
L 439.904834 384.455836 
L 439.946506 384.062513 
L 439.988178 384.450175 
L 440.404898 384.460558 
L 440.44657 384.385561 
L 440.529913 384.456145 
L 440.571585 384.460235 
L 440.613257 384.125427 
L 440.654929 384.456535 
L 441.238337 384.458476 
L 441.280009 379.673124 
L 441.321681 384.447068 
L 441.571712 384.448908 
L 441.613384 384.366839 
L 441.655056 384.454585 
L 441.905088 384.452174 
L 441.94676 384.081141 
L 441.988432 384.452558 
L 442.571839 384.458122 
L 442.613511 384.099312 
L 442.655183 384.458431 
L 443.238591 384.458378 
L 443.280263 384.119422 
L 443.321935 384.454709 
L 443.738654 384.454078 
L 443.780326 384.375218 
L 443.86367 384.450996 
L 443.905342 384.457112 
L 443.947014 384.099748 
L 443.988686 384.449752 
L 444.447077 384.380608 
L 444.572093 384.457179 
L 444.613765 384.134572 
L 444.655437 384.456079 
L 445.238845 384.457257 
L 445.280516 384.103956 
L 445.322188 384.443158 
L 445.57222 384.457045 
L 445.613892 384.371304 
L 445.655564 384.454211 
L 445.905596 384.454594 
L 445.947268 384.130679 
L 445.98894 384.454147 
L 446.572347 384.458485 
L 446.614019 384.108274 
L 446.655691 384.451832 
L 447.239098 384.450205 
L 447.28077 384.118274 
L 447.322442 384.446059 
L 447.572474 384.448877 
L 447.614146 384.372815 
L 447.69749 384.44328 
L 447.739162 384.457436 
L 447.780834 384.353262 
L 447.822506 384.453987 
L 447.90585 384.450821 
L 447.947522 384.00831 
L 447.989194 384.448745 
L 448.572601 384.458166 
L 448.614273 384.106372 
L 448.655945 384.458018 
L 449.239352 384.452931 
L 449.281024 384.097153 
L 449.322696 384.455343 
L 449.906104 384.449974 
L 449.947776 384.034711 
L 449.989448 384.449739 
L 450.572855 384.452116 
L 450.614527 384.090669 
L 450.656199 384.45547 
L 451.239606 384.455132 
L 451.281278 384.113042 
L 451.32295 384.456557 
L 451.906358 384.451178 
L 451.94803 379.921421 
L 451.989702 384.460871 
L 452.573109 384.461956 
L 452.614781 384.248268 
L 452.656453 384.458812 
L 453.23986 384.460379 
L 453.281532 384.244378 
L 453.323204 384.459636 
L 453.906612 384.459622 
L 453.948283 384.253221 
L 453.989955 384.46208 
L 454.573363 384.459135 
L 454.615035 384.251142 
L 454.656707 384.457631 
L 455.240114 384.460219 
L 455.281786 384.241868 
L 455.323458 384.45924 
L 455.906865 384.45218 
L 455.948537 384.25585 
L 455.990209 384.450087 
L 456.406929 384.453062 
L 456.531945 384.458763 
L 456.573617 384.452912 
L 456.615289 384.217569 
L 456.656961 384.457249 
L 457.240368 384.461418 
L 457.28204 384.218572 
L 457.323712 384.447772 
L 457.740432 384.458667 
L 457.865447 384.458775 
L 457.907119 384.457424 
L 457.948791 384.229972 
L 457.990463 384.44617 
L 458.240495 384.454359 
L 458.365511 384.456413 
L 458.573871 384.453372 
L 458.615543 384.193465 
L 458.657215 384.455491 
L 459.240622 384.458511 
L 459.282294 384.22751 
L 459.323966 384.461299 
L 459.907373 384.458589 
L 459.949045 384.247586 
L 459.990717 384.454867 
L 460.574125 384.460536 
L 460.615797 384.199588 
L 460.657468 384.460029 
L 461.240876 384.450199 
L 461.282548 384.233905 
L 461.32422 384.460567 
L 461.907627 384.460632 
L 461.949299 384.205255 
L 461.990971 384.458742 
L 462.574378 384.46045 
L 462.61605 381.522333 
L 462.657722 384.455092 
L 463.24113 384.460841 
L 463.282802 384.241647 
L 463.324474 384.461181 
L 463.907881 384.461779 
L 463.949553 384.255454 
L 463.991225 384.45989 
L 464.574632 384.46077 
L 464.616304 384.249543 
L 464.657976 384.457585 
L 465.241384 384.45915 
L 465.283056 384.18837 
L 465.324728 384.454668 
L 465.908135 384.460989 
L 465.949807 384.218948 
L 465.991479 384.459103 
L 466.574886 384.45802 
L 466.616558 384.224877 
L 466.65823 384.45862 
L 467.241638 384.459664 
L 467.28331 384.237485 
L 467.324982 384.456205 
L 467.908389 384.458414 
L 467.950061 384.174795 
L 467.991733 384.456705 
L 468.57514 384.452439 
L 468.616812 384.219753 
L 468.658484 384.456379 
L 469.241892 384.454865 
L 469.283563 384.212671 
L 469.325235 384.459134 
L 469.908643 384.458391 
L 469.950315 384.219942 
L 469.991987 384.461545 
L 470.575394 384.456366 
L 470.617066 384.240236 
L 470.658738 384.451074 
L 471.242145 384.460126 
L 471.283817 384.226734 
L 471.325489 384.457201 
L 471.908897 384.453773 
L 471.950569 384.235673 
L 471.992241 384.452165 
L 472.575648 384.456292 
L 472.61732 384.233194 
L 472.658992 384.458565 
L 473.242399 384.462009 
L 473.284071 381.250002 
L 473.325743 384.457815 
L 473.909151 384.449983 
L 473.950823 384.193689 
L 473.992495 384.445594 
L 474.575902 384.452302 
L 474.617574 384.175239 
L 474.659246 384.447066 
L 474.909278 384.460572 
L 475.034293 384.461026 
L 475.242653 384.460802 
L 475.284325 384.230839 
L 475.325997 384.456812 
L 475.909405 384.459572 
L 475.951077 384.222444 
L 475.992748 384.45636 
L 476.576156 384.450594 
L 476.617828 384.237297 
L 476.6595 384.454233 
L 477.242907 384.454492 
L 477.284579 384.215666 
L 477.326251 384.455973 
L 477.909658 384.460102 
L 477.95133 384.203991 
L 477.993002 384.45387 
L 478.57641 384.455541 
L 478.618082 384.191122 
L 478.659754 384.452864 
L 479.243161 384.457485 
L 479.284833 384.239028 
L 479.326505 384.457942 
L 479.909912 384.459172 
L 479.951584 384.186173 
L 479.993256 384.457366 
L 480.576664 384.460521 
L 480.618336 384.237496 
L 480.660008 384.460047 
L 481.243415 384.444209 
L 481.285087 384.202772 
L 481.326759 384.451814 
L 481.910166 384.457222 
L 481.951838 384.212714 
L 481.99351 384.450375 
L 482.576918 384.454485 
L 482.61859 384.176703 
L 482.660262 384.450062 
L 483.243669 384.459837 
L 483.285341 384.2237 
L 483.327013 384.457344 
L 483.91042 384.459291 
L 483.952092 381.367606 
L 483.993764 384.455649 
L 484.577172 384.454197 
L 484.618843 384.228712 
L 484.660515 384.455891 
L 485.243923 384.456751 
L 485.285595 384.219702 
L 485.327267 384.458817 
L 485.910674 384.445911 
L 485.952346 384.193208 
L 485.994018 384.454875 
L 486.410738 384.454632 
L 486.45241 384.378267 
L 486.535753 384.453099 
L 486.577425 384.446509 
L 486.619097 384.176065 
L 486.660769 384.448672 
L 487.244177 384.45722 
L 487.285849 384.187144 
L 487.327521 384.452365 
L 487.910928 384.444705 
L 487.9526 384.215444 
L 487.994272 384.45724 
L 488.577679 384.455058 
L 488.619351 384.189659 
L 488.661023 384.453844 
L 489.244431 384.453483 
L 489.286103 384.223306 
L 489.327775 384.451174 
L 489.911182 384.456353 
L 489.952854 384.208908 
L 489.994526 384.454835 
L 490.577933 384.451496 
L 490.619605 384.214376 
L 490.661277 384.456369 
L 491.244685 384.458679 
L 491.286357 384.231112 
L 491.328028 384.451591 
L 491.911436 384.452835 
L 491.953108 384.217636 
L 491.99478 384.452563 
L 492.578187 384.449591 
L 492.619859 384.175488 
L 492.661531 384.450611 
L 493.244939 384.454457 
L 493.28661 384.232091 
L 493.328282 384.455672 
L 493.91169 384.444602 
L 493.953362 384.175644 
L 493.995034 384.452344 
L 494.578441 384.458832 
L 494.620113 381.420816 
L 494.661785 384.461626 
L 495.245192 384.462331 
L 495.286864 384.228277 
L 495.328536 384.460914 
L 495.911944 384.462334 
L 495.953616 384.2537 
L 495.995288 384.461474 
L 496.578695 384.463102 
L 496.620367 384.199356 
L 496.662039 384.457743 
L 497.245446 384.462646 
L 497.287118 384.247235 
L 497.32879 384.447487 
L 497.74551 384.459794 
L 497.870526 384.455964 
L 497.912198 384.458495 
L 497.95387 384.241943 
L 497.995542 384.459175 
L 498.578949 384.460693 
L 498.620621 384.19373 
L 498.662293 384.457477 
L 499.2457 384.460713 
L 499.287372 384.220031 
L 499.329044 384.459069 
L 499.912452 384.461804 
L 499.954124 384.242395 
L 499.995795 384.459585 
L 500.579203 384.461568 
L 500.620875 384.214856 
L 500.662547 384.458983 
L 501.245954 384.450736 
L 501.287626 384.165513 
L 501.329298 384.454446 
L 501.954377 384.247345 
L 502.079393 384.457583 
L 502.121065 384.399222 
L 502.204409 384.461028 
L 502.579457 384.458831 
L 502.621129 384.223767 
L 502.662801 384.456927 
L 503.246208 384.45916 
L 503.28788 384.221551 
L 503.329552 384.459417 
L 503.912959 384.457148 
L 503.954631 384.244741 
L 503.996303 384.46062 
L 504.579711 384.460813 
L 504.621383 384.243705 
L 504.663055 384.46023 
L 505.246462 384.461199 
L 505.288134 381.351428 
L 505.329806 384.460754 
L 505.913213 384.459557 
L 505.954885 384.241654 
L 505.996557 384.454643 
L 506.579965 384.453806 
L 506.621637 384.221538 
L 506.663309 384.45922 
L 507.246716 384.462206 
L 507.288388 384.232385 
L 507.33006 384.448069 
L 507.913467 384.462672 
L 507.955139 384.23457 
L 507.996811 384.461157 
L 508.538547 384.458612 
L 508.580219 384.460082 
L 508.62189 384.222407 
L 508.663562 384.457899 
L 509.24697 384.461454 
L 509.288642 384.216233 
L 509.330314 384.458314 
L 509.913721 384.458334 
L 509.955393 384.241475 
L 509.997065 384.454283 
L 510.580472 384.458007 
L 510.622144 384.231902 
L 510.663816 384.456733 
L 511.247224 384.460003 
L 511.288896 384.218287 
L 511.330568 384.452101 
L 511.747287 384.458013 
L 511.788959 384.379888 
L 511.872303 384.458275 
L 511.913975 384.461093 
L 511.955647 384.208651 
L 511.997319 384.450714 
L 512.580726 384.460847 
L 512.622398 384.178185 
L 512.66407 384.461449 
L 513.247478 384.459048 
L 513.28915 384.24196 
L 513.330822 384.451841 
L 513.914229 384.451201 
L 513.955901 384.231992 
L 513.997573 384.453465 
L 514.58098 384.456853 
L 514.622652 384.178819 
L 514.664324 384.456465 
L 515.247732 384.459315 
L 515.289404 384.218886 
L 515.331075 384.456597 
L 515.914483 384.460951 
L 515.956155 381.128722 
L 515.997827 384.458998 
L 516.581234 384.456704 
L 516.622906 384.191166 
L 516.664578 384.45502 
L 517.247985 384.453 
L 517.289657 384.230437 
L 517.331329 384.460089 
L 517.623033 384.409463 
L 517.748049 384.458135 
L 517.873065 384.443938 
L 517.914737 384.457866 
L 517.956409 384.231002 
L 517.998081 384.459777 
L 518.581488 384.44727 
L 518.62316 384.227219 
L 518.664832 384.456892 
L 519.248239 384.45771 
L 519.289911 384.197061 
L 519.331583 384.447097 
L 519.581615 384.456334 
L 519.706631 384.452575 
L 519.914991 384.457851 
L 519.956663 384.215646 
L 519.998335 384.452958 
L 520.581742 384.456065 
L 520.623414 384.206333 
L 520.665086 384.456938 
L 521.248493 384.455198 
L 521.290165 384.217615 
L 521.331837 384.450226 
L 521.915245 384.455343 
L 521.956917 384.20536 
L 521.998589 384.446136 
L 522.415308 384.451903 
L 522.540324 384.448175 
L 522.581996 384.448272 
L 522.623668 384.136617 
L 522.66534 384.448867 
L 523.248747 384.453662 
L 523.290419 384.207682 
L 523.332091 384.444176 
L 523.582123 384.454671 
L 523.707139 384.458958 
L 523.915499 384.460234 
L 523.95717 384.20096 
L 523.998842 384.456856 
L 524.58225 384.456236 
L 524.623922 384.211992 
L 524.665594 384.450777 
L 525.249001 384.454108 
L 525.290673 384.203368 
L 525.332345 384.45272 
L 525.915752 384.45465 
L 525.957424 384.222012 
L 525.999096 384.457788 
L 526.582504 384.456254 
L 526.624176 380.980343 
L 526.665848 384.441449 
L 526.915879 384.449173 
L 526.957551 384.388451 
L 527.040895 384.44825 
L 527.249255 384.445723 
L 527.290927 384.179939 
L 527.332599 384.443275 
L 527.749319 384.459289 
L 527.79099 384.396054 
L 527.874334 384.456977 
L 527.916006 384.453727 
L 527.957678 384.22836 
L 527.99935 384.449542 
L 528.582758 384.45718 
L 528.62443 384.226994 
L 528.666102 384.444594 
L 528.916133 384.454935 
L 529.041149 384.455822 
L 529.249509 384.454755 
L 529.291181 384.232567 
L 529.332853 384.452352 
L 529.832916 384.452524 
L 529.91626 384.454643 
L 529.957932 384.21848 
L 529.999604 384.454707 
L 530.583012 384.45045 
L 530.624684 384.184424 
L 530.666355 384.454862 
L 531.249763 384.45775 
L 531.291435 384.2092 
L 531.333107 384.45616 
L 531.916514 384.457587 
L 531.958186 384.206632 
L 531.999858 384.453865 
L 532.583265 384.454034 
L 532.624937 384.224656 
L 532.666609 384.454221 
L 533.250017 384.452989 
L 533.291689 384.189857 
L 533.333361 384.452469 
L 533.916768 384.45109 
L 533.95844 384.174794 
L 534.000112 384.450404 
L 534.583519 384.447198 
L 534.625191 384.173233 
L 534.666863 384.447906 
L 535.250271 384.450488 
L 535.291943 384.170266 
L 535.333615 384.450088 
L 535.917022 384.453033 
L 535.958694 384.099879 
L 536.000366 384.453083 
L 536.583773 384.457967 
L 536.625445 384.167603 
L 536.667117 384.453316 
L 537.083837 384.458574 
L 537.125509 384.391503 
L 537.208853 384.451883 
L 537.250525 384.453506 
L 537.292197 381.109045 
L 537.333869 384.455244 
L 537.917276 384.456402 
L 537.958948 384.205764 
L 538.00062 384.460611 
L 538.584027 384.459797 
L 538.625699 384.225956 
L 538.667371 384.462418 
L 539.250779 384.459116 
L 539.292451 384.188923 
L 539.334122 384.46108 
L 539.91753 384.460738 
L 539.959202 384.226858 
L 540.000874 384.459377 
L 540.584281 384.450459 
L 540.625953 384.246802 
L 540.667625 384.46128 
L 541.251032 384.458944 
L 541.292704 384.187491 
L 541.334376 384.461295 
L 541.917784 384.46177 
L 541.959456 384.209769 
L 542.001128 384.455025 
L 542.417847 384.461047 
L 542.542863 384.455248 
L 542.584535 384.453937 
L 542.626207 384.211384 
L 542.667879 384.456559 
L 543.251286 384.455642 
L 543.292958 384.216039 
L 543.33463 384.460186 
L 543.918038 384.461057 
L 543.95971 384.184063 
L 544.001382 384.458645 
L 544.584789 384.454587 
L 544.626461 384.205728 
L 544.668133 384.451015 
L 545.25154 384.459809 
L 545.293212 384.226767 
L 545.334884 384.455878 
L 545.918292 384.454633 
L 545.959964 384.198065 
L 546.001636 384.455198 
L 546.585043 384.447665 
L 546.626715 384.233297 
L 546.668387 384.460186 
L 547.043434 384.459727 
L 547.251794 384.461749 
L 547.293466 384.210663 
L 547.335138 384.459489 
L 547.918546 384.461428 
L 547.960217 381.190229 
L 548.001889 384.434572 
L 548.626969 384.240973 
L 548.751985 384.458385 
L 548.877001 384.458483 
L 549.252048 384.460969 
L 549.29372 384.235178 
L 549.335392 384.45912 
L 549.877127 384.455408 
L 549.918799 384.459341 
L 549.960471 384.229684 
L 550.002143 384.459245 
L 550.585551 384.455999 
L 550.627223 384.227883 
L 550.668895 384.457677 
L 551.252302 384.453294 
L 551.293974 384.228062 
L 551.335646 384.461161 
L 551.919053 384.457038 
L 551.960725 384.122909 
L 552.002397 384.461623 
L 552.585805 384.45699 
L 552.627477 384.225217 
L 552.669149 384.455112 
L 553.085868 384.455748 
L 553.210884 384.455851 
L 553.252556 384.45945 
L 553.294228 384.213818 
L 553.3359 384.453851 
L 553.919307 384.457968 
L 553.960979 384.203241 
L 554.002651 384.452321 
L 554.419371 384.456713 
L 554.461043 384.39285 
L 554.544387 384.460073 
L 554.586059 384.450789 
L 554.627731 384.209481 
L 554.669402 384.46042 
L 555.25281 384.461536 
L 555.294482 384.145554 
L 555.336154 384.457816 
L 555.919561 384.456459 
L 555.961233 384.229272 
L 556.002905 384.458247 
L 556.586312 384.46014 
L 556.627984 384.222289 
L 556.669656 384.4555 
L 557.253064 384.458426 
L 557.294736 384.183992 
L 557.336408 384.46085 
L 557.919815 384.453952 
L 557.961487 384.232766 
L 558.003159 384.460691 
L 558.586566 384.456921 
L 558.628238 381.249398 
L 558.66991 384.452838 
L 559.253318 384.452826 
L 559.29499 384.219457 
L 559.336662 384.454972 
L 559.920069 384.458873 
L 559.961741 384.185758 
L 560.003413 384.459651 
L 560.58682 384.457008 
L 560.628492 384.219534 
L 560.670164 384.460657 
L 561.253572 384.457833 
L 561.295244 384.146887 
L 561.336916 384.455251 
L 561.920323 384.455228 
L 561.961995 384.224174 
L 562.003667 384.449806 
L 562.587074 384.45906 
L 562.628746 384.196731 
L 562.670418 384.452012 
L 563.253826 384.460628 
L 563.295497 384.198763 
L 563.337169 384.460124 
L 563.920577 384.459991 
L 563.962249 384.191058 
L 564.003921 384.456874 
L 564.587328 384.453413 
L 564.629 384.167345 
L 564.670672 384.453297 
L 565.254079 384.4596 
L 565.295751 384.138532 
L 565.337423 384.451954 
L 565.920831 384.457853 
L 565.962503 384.196311 
L 566.004175 384.455483 
L 566.587582 384.455972 
L 566.629254 384.219588 
L 566.670926 384.455443 
L 567.254333 384.458173 
L 567.296005 384.203657 
L 567.337677 384.455614 
L 567.921085 384.448105 
L 567.962757 384.175753 
L 568.004429 384.454141 
L 568.46282 384.403018 
L 568.587836 384.459279 
L 568.629508 384.196342 
L 568.67118 384.451046 
L 569.087899 384.459918 
L 569.129571 384.392546 
L 569.212915 384.455965 
L 569.254587 384.459031 
L 569.296259 381.039622 
L 569.337931 384.456552 
L 569.921339 384.457619 
L 569.963011 384.213477 
L 570.004682 384.455477 
L 570.58809 384.458227 
L 570.629762 384.21533 
L 570.671434 384.457697 
L 571.254841 384.453653 
L 571.296513 384.202178 
L 571.338185 384.448637 
L 571.588217 384.459411 
L 571.713233 384.456851 
L 571.921592 384.457401 
L 571.963264 384.223822 
L 572.004936 384.455894 
L 572.588344 384.454583 
L 572.630016 384.198063 
L 572.671688 384.450859 
L 573.255095 384.456475 
L 573.296767 384.167601 
L 573.338439 384.449653 
L 573.921846 384.458312 
L 573.963518 384.198591 
L 574.00519 384.449394 
L 574.588598 384.458273 
L 574.63027 384.201471 
L 574.671942 384.452488 
L 575.088661 384.458793 
L 575.130333 384.386019 
L 575.213677 384.458484 
L 575.255349 384.454825 
L 575.297021 384.11614 
L 575.338693 384.455634 
L 575.9221 384.453031 
L 575.963772 384.208144 
L 576.005444 384.451955 
L 576.588852 384.451913 
L 576.630524 384.214873 
L 576.672196 384.456958 
L 577.255603 384.459075 
L 577.297275 384.189287 
L 577.338947 384.451832 
L 577.922354 384.457522 
L 577.964026 384.206272 
L 578.005698 384.454533 
L 578.589106 384.450268 
L 578.630778 384.208981 
L 578.672449 384.437693 
L 578.922481 384.457501 
L 579.047497 384.455652 
L 579.255857 384.454752 
L 579.297529 384.166716 
L 579.339201 384.457617 
L 579.922608 384.452125 
L 579.96428 380.97392 
L 580.005952 384.462303 
L 580.589359 384.457977 
L 580.631031 384.205065 
L 580.672703 384.457278 
L 581.089423 384.46257 
L 581.131095 384.395324 
L 581.214439 384.455647 
L 581.256111 384.461993 
L 581.297783 384.235631 
L 581.339455 384.458423 
L 581.922862 384.460574 
L 581.964534 384.193639 
L 582.006206 384.458086 
L 582.589613 384.462269 
L 582.631285 384.176022 
L 582.672957 384.456438 
L 583.256365 384.460539 
L 583.298037 384.170081 
L 583.339709 384.459656 
L 583.923116 384.461265 
L 583.964788 384.220526 
L 584.00646 384.458303 
L 584.589867 384.462118 
L 584.631539 384.233549 
L 584.673211 384.460793 
L 585.256619 384.458721 
L 585.298291 384.211268 
L 585.339963 384.457241 
L 585.92337 384.460231 
L 585.965042 384.224005 
L 586.006714 384.460671 
L 586.590121 384.457237 
L 586.631793 384.205392 
L 586.673465 384.460934 
L 587.256873 384.461751 
L 587.298544 384.210351 
L 587.340216 384.458448 
L 587.923624 384.457789 
L 587.965296 384.233387 
L 588.006968 384.457077 
L 588.590375 384.460388 
L 588.632047 384.173383 
L 588.673719 384.458282 
L 589.257126 384.450792 
L 589.298798 384.17984 
L 589.34047 384.459582 
L 589.923878 384.461016 
L 589.96555 384.223418 
L 590.007222 384.460157 
L 590.590629 384.459219 
L 590.632301 381.081876 
L 590.673973 384.457548 
L 591.25738 384.457155 
L 591.299052 384.168879 
L 591.340724 384.46179 
L 591.924132 384.457979 
L 591.965804 384.230448 
L 592.007476 384.461806 
L 592.590883 384.460907 
L 592.632555 384.206445 
L 592.674227 384.462465 
L 593.257634 384.463217 
L 593.299306 384.230539 
L 593.340978 384.456464 
L 593.924386 384.453528 
L 593.966058 384.203843 
L 594.007729 384.4446 
L 594.257761 384.460914 
L 594.382777 384.456673 
L 594.591137 384.460866 
L 594.632809 384.203802 
L 594.674481 384.456162 
L 595.257888 384.461825 
L 595.29956 384.221061 
L 595.341232 384.456629 
L 595.924639 384.459154 
L 595.966311 384.222231 
L 596.007983 384.459858 
L 596.591391 384.459357 
L 596.633063 384.208821 
L 596.674735 384.458207 
L 597.258142 384.448871 
L 597.299814 384.192049 
L 597.341486 384.458719 
L 597.924893 384.461144 
L 597.966565 384.233905 
L 598.008237 384.455361 
L 598.591645 384.461596 
L 598.633317 384.224739 
L 598.674989 384.459057 
L 599.258396 384.45593 
L 599.300068 384.216693 
L 599.34174 384.458984 
L 599.925147 384.451413 
L 599.966819 384.226094 
L 600.008491 384.456395 
L 600.591899 384.459587 
L 600.633571 384.226758 
L 600.675243 384.460183 
L 601.25865 384.4614 
L 601.300322 381.270528 
L 601.341994 384.458961 
L 601.925401 384.454107 
L 601.967073 384.211699 
L 602.008745 384.458998 
L 602.592153 384.456724 
L 602.633824 384.214977 
L 602.675496 384.453566 
L 603.258904 384.455074 
L 603.300576 384.224514 
L 603.342248 384.460237 
L 603.925655 384.4607 
L 603.967327 384.186756 
L 604.008999 384.448006 
L 604.425719 384.457817 
L 604.467391 384.397569 
L 604.550734 384.458586 
L 604.592406 384.441381 
L 604.634078 384.122532 
L 604.67575 384.449949 
L 605.09247 384.458304 
L 605.217486 384.456222 
L 605.259158 384.456982 
L 605.30083 384.164569 
L 605.342502 384.450694 
L 605.759221 384.448386 
L 605.884237 384.45248 
L 605.925909 384.457784 
L 605.967581 384.204503 
L 606.009253 384.459519 
L 606.59266 384.459606 
L 606.634332 384.197232 
L 606.676004 384.452805 
L 607.259412 384.445237 
L 607.301084 384.189085 
L 607.342756 384.452539 
L 607.926163 384.454527 
L 607.967835 384.135695 
L 608.009507 384.448264 
L 608.592914 384.45657 
L 608.634586 384.173558 
L 608.676258 384.459578 
L 609.259666 384.456307 
L 609.301338 384.180358 
L 609.343009 384.457898 
L 609.926417 384.459357 
L 609.968089 384.186184 
L 610.009761 384.456025 
L 610.593168 384.454859 
L 610.63484 384.187563 
L 610.676512 384.457194 
L 611.259919 384.454083 
L 611.301591 384.199842 
L 611.343263 384.453656 
L 611.926671 384.4608 
L 611.968343 381.097572 
L 612.010015 384.457074 
L 612.593422 384.456276 
L 612.635094 384.194033 
L 612.676766 384.457038 
L 613.260173 384.458424 
L 613.301845 384.181384 
L 613.343517 384.454864 
L 613.926925 384.458778 
L 613.968597 384.204002 
L 614.010269 384.458402 
L 614.593676 384.457986 
L 614.635348 384.215508 
L 614.67702 384.443245 
L 614.927052 384.446025 
L 615.052068 384.433635 
L 615.260427 384.453423 
L 615.302099 384.024443 
L 615.343771 384.455953 
L 615.927179 384.456545 
L 615.968851 384.1868 
L 616.010523 384.452604 
L 616.59393 384.453484 
L 616.635602 384.150036 
L 616.677274 384.457508 
L 617.052321 384.457475 
L 617.260681 384.459457 
L 617.302353 384.150454 
L 617.344025 384.449347 
L 617.760745 384.458056 
L 617.802417 384.381813 
L 617.885761 384.456849 
L 617.927433 384.455851 
L 617.969105 384.183482 
L 618.010776 384.45459 
L 618.594184 384.457653 
L 618.635856 384.191337 
L 618.677528 384.453398 
L 619.260935 384.456355 
L 619.302607 384.17789 
L 619.344279 384.45787 
L 619.927686 384.45326 
L 619.969358 384.115334 
L 620.01103 384.446034 
L 620.42775 384.458403 
L 620.469422 384.380733 
L 620.552766 384.45141 
L 620.594438 384.455382 
L 620.63611 384.188998 
L 620.677782 384.448959 
L 620.927813 384.451995 
L 620.969485 384.38492 
L 621.052829 384.450492 
L 621.261189 384.456063 
L 621.302861 384.189867 
L 621.344533 384.457028 
L 621.92794 384.453839 
L 621.969612 384.219935 
L 622.011284 384.448315 
L 622.261316 384.453184 
L 622.386332 384.45681 
L 622.594692 384.458748 
L 622.636364 67.679939 
L 622.636364 67.679939 
" clip-path="url(#p049eb15da5)" style="fill: none; stroke: #1f77b4; stroke-width: 1.5; stroke-linecap: square"/>
   </g>
   <g id="patch_3">
    <path d="M 90 384.48 
L 90 51.84 
" style="fill: none; stroke: #000000; stroke-width: 0.8; stroke-linejoin: miter; stroke-linecap: square"/>
   </g>
   <g id="patch_4">
    <path d="M 648 384.48 
L 648 51.84 
" style="fill: none; stroke: #000000; stroke-width: 0.8; stroke-linejoin: miter; stroke-linecap: square"/>
   </g>
   <g id="patch_5">
    <path d="M 90 384.48 
L 648 384.48 
" style="fill: none; stroke: #000000; stroke-width: 0.8; stroke-linejoin: miter; stroke-linecap: square"/>
   </g>
   <g id="patch_6">
    <path d="M 90 51.84 
L 648 51.84 
" style="fill: none; stroke: #000000; stroke-width: 0.8; stroke-linejoin: miter; stroke-linecap: square"/>
   </g>
   <g id="text_16">
    <!-- Average time per index -->
    <g transform="translate(298.700625 45.84) scale(0.12 -0.12)">
     <defs>
      <path id="DejaVuSans-70" d="M 1159 525 
L 1159 -1331 
L 581 -1331 
L 581 3500 
L 1159 3500 
L 1159 2969 
Q 1341 3281 1617 3432 
Q 1894 3584 2278 3584 
Q 2916 3584 3314 3078 
Q 3713 2572 3713 1747 
Q 3713 922 3314 415 
Q 2916 -91 2278 -91 
Q 1894 -91 1617 61 
Q 1341 213 1159 525 
z
M 3116 1747 
Q 3116 2381 2855 2742 
Q 2594 3103 2138 3103 
Q 1681 3103 1420 2742 
Q 1159 2381 1159 1747 
Q 1159 1113 1420 752 
Q 1681 391 2138 391 
Q 2594 391 2855 752 
Q 3116 1113 3116 1747 
z
" transform="scale(0.015625)"/>
     </defs>
     <use xlink:href="#DejaVuSans-41"/>
     <use xlink:href="#DejaVuSans-76" transform="translate(62.533203 0)"/>
     <use xlink:href="#DejaVuSans-65" transform="translate(121.712891 0)"/>
     <use xlink:href="#DejaVuSans-72" transform="translate(183.236328 0)"/>
     <use xlink:href="#DejaVuSans-61" transform="translate(224.349609 0)"/>
     <use xlink:href="#DejaVuSans-67" transform="translate(285.628906 0)"/>
     <use xlink:href="#DejaVuSans-65" transform="translate(349.105469 0)"/>
     <use xlink:href="#DejaVuSans-20" transform="translate(410.628906 0)"/>
     <use xlink:href="#DejaVuSans-74" transform="translate(442.416016 0)"/>
     <use xlink:href="#DejaVuSans-69" transform="translate(481.625 0)"/>
     <use xlink:href="#DejaVuSans-6d" transform="translate(509.408203 0)"/>
     <use xlink:href="#DejaVuSans-65" transform="translate(606.820312 0)"/>
     <use xlink:href="#DejaVuSans-20" transform="translate(668.34375 0)"/>
     <use xlink:href="#DejaVuSans-70" transform="translate(700.130859 0)"/>
     <use xlink:href="#DejaVuSans-65" transform="translate(763.607422 0)"/>
     <use xlink:href="#DejaVuSans-72" transform="translate(825.130859 0)"/>
     <use xlink:href="#DejaVuSans-20" transform="translate(866.244141 0)"/>
     <use xlink:href="#DejaVuSans-69" transform="translate(898.03125 0)"/>
     <use xlink:href="#DejaVuSans-6e" transform="translate(925.814453 0)"/>
     <use xlink:href="#DejaVuSans-64" transform="translate(989.193359 0)"/>
     <use xlink:href="#DejaVuSans-65" transform="translate(1052.669922 0)"/>
     <use xlink:href="#DejaVuSans-78" transform="translate(1112.443359 0)"/>
    </g>
   </g>
   <g id="legend_1">
    <g id="patch_7">
     <path d="M 97 74.518125 
L 196.53125 74.518125 
Q 198.53125 74.518125 198.53125 72.518125 
L 198.53125 58.84 
Q 198.53125 56.84 196.53125 56.84 
L 97 56.84 
Q 95 56.84 95 58.84 
L 95 72.518125 
Q 95 74.518125 97 74.518125 
z
" style="fill: #ffffff; opacity: 0.8; stroke: #cccccc; stroke-linejoin: miter"/>
    </g>
    <g id="line2d_15">
     <path d="M 99 64.938438 
L 109 64.938438 
L 119 64.938438 
" style="fill: none; stroke: #1f77b4; stroke-width: 1.5; stroke-linecap: square"/>
    </g>
    <g id="text_17">
     <!-- nextFaultload -->
     <g transform="translate(127 68.438438) scale(0.1 -0.1)">
      <defs>
       <path id="DejaVuSans-46" d="M 628 4666 
L 3309 4666 
L 3309 4134 
L 1259 4134 
L 1259 2759 
L 3109 2759 
L 3109 2228 
L 1259 2228 
L 1259 0 
L 628 0 
L 628 4666 
z
" transform="scale(0.015625)"/>
       <path id="DejaVuSans-75" d="M 544 1381 
L 544 3500 
L 1119 3500 
L 1119 1403 
Q 1119 906 1312 657 
Q 1506 409 1894 409 
Q 2359 409 2629 706 
Q 2900 1003 2900 1516 
L 2900 3500 
L 3475 3500 
L 3475 0 
L 2900 0 
L 2900 538 
Q 2691 219 2414 64 
Q 2138 -91 1772 -91 
Q 1169 -91 856 284 
Q 544 659 544 1381 
z
M 1991 3584 
L 1991 3584 
z
" transform="scale(0.015625)"/>
       <path id="DejaVuSans-6c" d="M 603 4863 
L 1178 4863 
L 1178 0 
L 603 0 
L 603 4863 
z
" transform="scale(0.015625)"/>
       <path id="DejaVuSans-6f" d="M 1959 3097 
Q 1497 3097 1228 2736 
Q 959 2375 959 1747 
Q 959 1119 1226 758 
Q 1494 397 1959 397 
Q 2419 397 2687 759 
Q 2956 1122 2956 1747 
Q 2956 2369 2687 2733 
Q 2419 3097 1959 3097 
z
M 1959 3584 
Q 2709 3584 3137 3096 
Q 3566 2609 3566 1747 
Q 3566 888 3137 398 
Q 2709 -91 1959 -91 
Q 1206 -91 779 398 
Q 353 888 353 1747 
Q 353 2609 779 3096 
Q 1206 3584 1959 3584 
z
" transform="scale(0.015625)"/>
      </defs>
      <use xlink:href="#DejaVuSans-6e"/>
      <use xlink:href="#DejaVuSans-65" transform="translate(63.378906 0)"/>
      <use xlink:href="#DejaVuSans-78" transform="translate(123.152344 0)"/>
      <use xlink:href="#DejaVuSans-74" transform="translate(182.332031 0)"/>
      <use xlink:href="#DejaVuSans-46" transform="translate(221.541016 0)"/>
      <use xlink:href="#DejaVuSans-61" transform="translate(269.935547 0)"/>
      <use xlink:href="#DejaVuSans-75" transform="translate(331.214844 0)"/>
      <use xlink:href="#DejaVuSans-6c" transform="translate(394.59375 0)"/>
      <use xlink:href="#DejaVuSans-74" transform="translate(422.376953 0)"/>
      <use xlink:href="#DejaVuSans-6c" transform="translate(461.585938 0)"/>
      <use xlink:href="#DejaVuSans-6f" transform="translate(489.369141 0)"/>
      <use xlink:href="#DejaVuSans-61" transform="translate(550.550781 0)"/>
      <use xlink:href="#DejaVuSans-64" transform="translate(611.830078 0)"/>
     </g>
    </g>
   </g>
  </g>
 </g>
 <defs>
  <clipPath id="p049eb15da5">
   <rect x="90" y="51.84" width="558" height="332.64"/>
  </clipPath>
 </defs>
</svg>
