<?xml version="1.0" encoding="utf-8" standalone="no"?>
<!DOCTYPE svg PUBLIC "-//W3C//DTD SVG 1.1//EN"
  "http://www.w3.org/Graphics/SVG/1.1/DTD/svg11.dtd">
<svg xmlns:xlink="http://www.w3.org/1999/xlink" width="720pt" height="432pt" viewBox="0 0 720 432" xmlns="http://www.w3.org/2000/svg" version="1.1">
 <metadata>
  <rdf:RDF xmlns:dc="http://purl.org/dc/elements/1.1/" xmlns:cc="http://creativecommons.org/ns#" xmlns:rdf="http://www.w3.org/1999/02/22-rdf-syntax-ns#">
   <cc:Work>
    <dc:type rdf:resource="http://purl.org/dc/dcmitype/StillImage"/>
    <dc:date>2025-09-30T20:45:48.992491</dc:date>
    <dc:format>image/svg+xml</dc:format>
    <dc:creator>
     <cc:Agent>
      <dc:title>Matplotlib v3.10.3, https://matplotlib.org/</dc:title>
     </cc:Agent>
    </dc:creator>
   </cc:Work>
  </rdf:RDF>
 </metadata>
 <defs>
  <style type="text/css">*{stroke-linejoin: round; stroke-linecap: butt}</style>
 </defs>
 <g id="figure_1">
  <g id="patch_1">
   <path d="M 0 432 
L 720 432 
L 720 0 
L 0 0 
z
" style="fill: #ffffff"/>
  </g>
  <g id="axes_1">
   <g id="patch_2">
    <path d="M 90 384.48 
L 648 384.48 
L 648 51.84 
L 90 51.84 
z
" style="fill: #ffffff"/>
   </g>
   <g id="matplotlib.axis_1">
    <g id="xtick_1">
     <g id="line2d_1">
      <defs>
       <path id="m5547d2ac8c" d="M 0 0 
L 0 3.5 
" style="stroke: #000000; stroke-width: 0.8"/>
      </defs>
      <g>
       <use xlink:href="#m5547d2ac8c" x="115.363636" y="384.48" style="stroke: #000000; stroke-width: 0.8"/>
      </g>
     </g>
     <g id="text_1">
      <!-- 0 -->
      <g transform="translate(112.182386 399.078438) scale(0.1 -0.1)">
       <defs>
        <path id="DejaVuSans-30" d="M 2034 4250 
Q 1547 4250 1301 3770 
Q 1056 3291 1056 2328 
Q 1056 1369 1301 889 
Q 1547 409 2034 409 
Q 2525 409 2770 889 
Q 3016 1369 3016 2328 
Q 3016 3291 2770 3770 
Q 2525 4250 2034 4250 
z
M 2034 4750 
Q 2819 4750 3233 4129 
Q 3647 3509 3647 2328 
Q 3647 1150 3233 529 
Q 2819 -91 2034 -91 
Q 1250 -91 836 529 
Q 422 1150 422 2328 
Q 422 3509 836 4129 
Q 1250 4750 2034 4750 
z
" transform="scale(0.015625)"/>
       </defs>
       <use xlink:href="#DejaVuSans-30"/>
      </g>
     </g>
    </g>
    <g id="xtick_2">
     <g id="line2d_2">
      <g>
       <use xlink:href="#m5547d2ac8c" x="198.714397" y="384.48" style="stroke: #000000; stroke-width: 0.8"/>
      </g>
     </g>
     <g id="text_2">
      <!-- 2000 -->
      <g transform="translate(185.989397 399.078438) scale(0.1 -0.1)">
       <defs>
        <path id="DejaVuSans-32" d="M 1228 531 
L 3431 531 
L 3431 0 
L 469 0 
L 469 531 
Q 828 903 1448 1529 
Q 2069 2156 2228 2338 
Q 2531 2678 2651 2914 
Q 2772 3150 2772 3378 
Q 2772 3750 2511 3984 
Q 2250 4219 1831 4219 
Q 1534 4219 1204 4116 
Q 875 4013 500 3803 
L 500 4441 
Q 881 4594 1212 4672 
Q 1544 4750 1819 4750 
Q 2544 4750 2975 4387 
Q 3406 4025 3406 3419 
Q 3406 3131 3298 2873 
Q 3191 2616 2906 2266 
Q 2828 2175 2409 1742 
Q 1991 1309 1228 531 
z
" transform="scale(0.015625)"/>
       </defs>
       <use xlink:href="#DejaVuSans-32"/>
       <use xlink:href="#DejaVuSans-30" transform="translate(63.623047 0)"/>
       <use xlink:href="#DejaVuSans-30" transform="translate(127.246094 0)"/>
       <use xlink:href="#DejaVuSans-30" transform="translate(190.869141 0)"/>
      </g>
     </g>
    </g>
    <g id="xtick_3">
     <g id="line2d_3">
      <g>
       <use xlink:href="#m5547d2ac8c" x="282.065157" y="384.48" style="stroke: #000000; stroke-width: 0.8"/>
      </g>
     </g>
     <g id="text_3">
      <!-- 4000 -->
      <g transform="translate(269.340157 399.078438) scale(0.1 -0.1)">
       <defs>
        <path id="DejaVuSans-34" d="M 2419 4116 
L 825 1625 
L 2419 1625 
L 2419 4116 
z
M 2253 4666 
L 3047 4666 
L 3047 1625 
L 3713 1625 
L 3713 1100 
L 3047 1100 
L 3047 0 
L 2419 0 
L 2419 1100 
L 313 1100 
L 313 1709 
L 2253 4666 
z
" transform="scale(0.015625)"/>
       </defs>
       <use xlink:href="#DejaVuSans-34"/>
       <use xlink:href="#DejaVuSans-30" transform="translate(63.623047 0)"/>
       <use xlink:href="#DejaVuSans-30" transform="translate(127.246094 0)"/>
       <use xlink:href="#DejaVuSans-30" transform="translate(190.869141 0)"/>
      </g>
     </g>
    </g>
    <g id="xtick_4">
     <g id="line2d_4">
      <g>
       <use xlink:href="#m5547d2ac8c" x="365.415917" y="384.48" style="stroke: #000000; stroke-width: 0.8"/>
      </g>
     </g>
     <g id="text_4">
      <!-- 6000 -->
      <g transform="translate(352.690917 399.078438) scale(0.1 -0.1)">
       <defs>
        <path id="DejaVuSans-36" d="M 2113 2584 
Q 1688 2584 1439 2293 
Q 1191 2003 1191 1497 
Q 1191 994 1439 701 
Q 1688 409 2113 409 
Q 2538 409 2786 701 
Q 3034 994 3034 1497 
Q 3034 2003 2786 2293 
Q 2538 2584 2113 2584 
z
M 3366 4563 
L 3366 3988 
Q 3128 4100 2886 4159 
Q 2644 4219 2406 4219 
Q 1781 4219 1451 3797 
Q 1122 3375 1075 2522 
Q 1259 2794 1537 2939 
Q 1816 3084 2150 3084 
Q 2853 3084 3261 2657 
Q 3669 2231 3669 1497 
Q 3669 778 3244 343 
Q 2819 -91 2113 -91 
Q 1303 -91 875 529 
Q 447 1150 447 2328 
Q 447 3434 972 4092 
Q 1497 4750 2381 4750 
Q 2619 4750 2861 4703 
Q 3103 4656 3366 4563 
z
" transform="scale(0.015625)"/>
       </defs>
       <use xlink:href="#DejaVuSans-36"/>
       <use xlink:href="#DejaVuSans-30" transform="translate(63.623047 0)"/>
       <use xlink:href="#DejaVuSans-30" transform="translate(127.246094 0)"/>
       <use xlink:href="#DejaVuSans-30" transform="translate(190.869141 0)"/>
      </g>
     </g>
    </g>
    <g id="xtick_5">
     <g id="line2d_5">
      <g>
       <use xlink:href="#m5547d2ac8c" x="448.766678" y="384.48" style="stroke: #000000; stroke-width: 0.8"/>
      </g>
     </g>
     <g id="text_5">
      <!-- 8000 -->
      <g transform="translate(436.041678 399.078438) scale(0.1 -0.1)">
       <defs>
        <path id="DejaVuSans-38" d="M 2034 2216 
Q 1584 2216 1326 1975 
Q 1069 1734 1069 1313 
Q 1069 891 1326 650 
Q 1584 409 2034 409 
Q 2484 409 2743 651 
Q 3003 894 3003 1313 
Q 3003 1734 2745 1975 
Q 2488 2216 2034 2216 
z
M 1403 2484 
Q 997 2584 770 2862 
Q 544 3141 544 3541 
Q 544 4100 942 4425 
Q 1341 4750 2034 4750 
Q 2731 4750 3128 4425 
Q 3525 4100 3525 3541 
Q 3525 3141 3298 2862 
Q 3072 2584 2669 2484 
Q 3125 2378 3379 2068 
Q 3634 1759 3634 1313 
Q 3634 634 3220 271 
Q 2806 -91 2034 -91 
Q 1263 -91 848 271 
Q 434 634 434 1313 
Q 434 1759 690 2068 
Q 947 2378 1403 2484 
z
M 1172 3481 
Q 1172 3119 1398 2916 
Q 1625 2713 2034 2713 
Q 2441 2713 2670 2916 
Q 2900 3119 2900 3481 
Q 2900 3844 2670 4047 
Q 2441 4250 2034 4250 
Q 1625 4250 1398 4047 
Q 1172 3844 1172 3481 
z
" transform="scale(0.015625)"/>
       </defs>
       <use xlink:href="#DejaVuSans-38"/>
       <use xlink:href="#DejaVuSans-30" transform="translate(63.623047 0)"/>
       <use xlink:href="#DejaVuSans-30" transform="translate(127.246094 0)"/>
       <use xlink:href="#DejaVuSans-30" transform="translate(190.869141 0)"/>
      </g>
     </g>
    </g>
    <g id="xtick_6">
     <g id="line2d_6">
      <g>
       <use xlink:href="#m5547d2ac8c" x="532.117438" y="384.48" style="stroke: #000000; stroke-width: 0.8"/>
      </g>
     </g>
     <g id="text_6">
      <!-- 10000 -->
      <g transform="translate(516.211188 399.078438) scale(0.1 -0.1)">
       <defs>
        <path id="DejaVuSans-31" d="M 794 531 
L 1825 531 
L 1825 4091 
L 703 3866 
L 703 4441 
L 1819 4666 
L 2450 4666 
L 2450 531 
L 3481 531 
L 3481 0 
L 794 0 
L 794 531 
z
" transform="scale(0.015625)"/>
       </defs>
       <use xlink:href="#DejaVuSans-31"/>
       <use xlink:href="#DejaVuSans-30" transform="translate(63.623047 0)"/>
       <use xlink:href="#DejaVuSans-30" transform="translate(127.246094 0)"/>
       <use xlink:href="#DejaVuSans-30" transform="translate(190.869141 0)"/>
       <use xlink:href="#DejaVuSans-30" transform="translate(254.492188 0)"/>
      </g>
     </g>
    </g>
    <g id="xtick_7">
     <g id="line2d_7">
      <g>
       <use xlink:href="#m5547d2ac8c" x="615.468198" y="384.48" style="stroke: #000000; stroke-width: 0.8"/>
      </g>
     </g>
     <g id="text_7">
      <!-- 12000 -->
      <g transform="translate(599.561948 399.078438) scale(0.1 -0.1)">
       <use xlink:href="#DejaVuSans-31"/>
       <use xlink:href="#DejaVuSans-32" transform="translate(63.623047 0)"/>
       <use xlink:href="#DejaVuSans-30" transform="translate(127.246094 0)"/>
       <use xlink:href="#DejaVuSans-30" transform="translate(190.869141 0)"/>
       <use xlink:href="#DejaVuSans-30" transform="translate(254.492188 0)"/>
      </g>
     </g>
    </g>
    <g id="text_8">
     <!-- Index -->
     <g transform="translate(355.233594 412.756563) scale(0.1 -0.1)">
      <defs>
       <path id="DejaVuSans-49" d="M 628 4666 
L 1259 4666 
L 1259 0 
L 628 0 
L 628 4666 
z
" transform="scale(0.015625)"/>
       <path id="DejaVuSans-6e" d="M 3513 2113 
L 3513 0 
L 2938 0 
L 2938 2094 
Q 2938 2591 2744 2837 
Q 2550 3084 2163 3084 
Q 1697 3084 1428 2787 
Q 1159 2491 1159 1978 
L 1159 0 
L 581 0 
L 581 3500 
L 1159 3500 
L 1159 2956 
Q 1366 3272 1645 3428 
Q 1925 3584 2291 3584 
Q 2894 3584 3203 3211 
Q 3513 2838 3513 2113 
z
" transform="scale(0.015625)"/>
       <path id="DejaVuSans-64" d="M 2906 2969 
L 2906 4863 
L 3481 4863 
L 3481 0 
L 2906 0 
L 2906 525 
Q 2725 213 2448 61 
Q 2172 -91 1784 -91 
Q 1150 -91 751 415 
Q 353 922 353 1747 
Q 353 2572 751 3078 
Q 1150 3584 1784 3584 
Q 2172 3584 2448 3432 
Q 2725 3281 2906 2969 
z
M 947 1747 
Q 947 1113 1208 752 
Q 1469 391 1925 391 
Q 2381 391 2643 752 
Q 2906 1113 2906 1747 
Q 2906 2381 2643 2742 
Q 2381 3103 1925 3103 
Q 1469 3103 1208 2742 
Q 947 2381 947 1747 
z
" transform="scale(0.015625)"/>
       <path id="DejaVuSans-65" d="M 3597 1894 
L 3597 1613 
L 953 1613 
Q 991 1019 1311 708 
Q 1631 397 2203 397 
Q 2534 397 2845 478 
Q 3156 559 3463 722 
L 3463 178 
Q 3153 47 2828 -22 
Q 2503 -91 2169 -91 
Q 1331 -91 842 396 
Q 353 884 353 1716 
Q 353 2575 817 3079 
Q 1281 3584 2069 3584 
Q 2775 3584 3186 3129 
Q 3597 2675 3597 1894 
z
M 3022 2063 
Q 3016 2534 2758 2815 
Q 2500 3097 2075 3097 
Q 1594 3097 1305 2825 
Q 1016 2553 972 2059 
L 3022 2063 
z
" transform="scale(0.015625)"/>
       <path id="DejaVuSans-78" d="M 3513 3500 
L 2247 1797 
L 3578 0 
L 2900 0 
L 1881 1375 
L 863 0 
L 184 0 
L 1544 1831 
L 300 3500 
L 978 3500 
L 1906 2253 
L 2834 3500 
L 3513 3500 
z
" transform="scale(0.015625)"/>
      </defs>
      <use xlink:href="#DejaVuSans-49"/>
      <use xlink:href="#DejaVuSans-6e" transform="translate(29.492188 0)"/>
      <use xlink:href="#DejaVuSans-64" transform="translate(92.871094 0)"/>
      <use xlink:href="#DejaVuSans-65" transform="translate(156.347656 0)"/>
      <use xlink:href="#DejaVuSans-78" transform="translate(216.121094 0)"/>
     </g>
    </g>
   </g>
   <g id="matplotlib.axis_2">
    <g id="ytick_1">
     <g id="line2d_8">
      <defs>
       <path id="mb1b8f350e4" d="M 0 0 
L -3.5 0 
" style="stroke: #000000; stroke-width: 0.8"/>
      </defs>
      <g>
       <use xlink:href="#mb1b8f350e4" x="90" y="369.36" style="stroke: #000000; stroke-width: 0.8"/>
      </g>
     </g>
     <g id="text_9">
      <!-- 0 -->
      <g transform="translate(76.6375 373.159219) scale(0.1 -0.1)">
       <use xlink:href="#DejaVuSans-30"/>
      </g>
     </g>
    </g>
    <g id="ytick_2">
     <g id="line2d_9">
      <g>
       <use xlink:href="#mb1b8f350e4" x="90" y="303.032574" style="stroke: #000000; stroke-width: 0.8"/>
      </g>
     </g>
     <g id="text_10">
      <!-- 10000 -->
      <g transform="translate(51.1875 306.831793) scale(0.1 -0.1)">
       <use xlink:href="#DejaVuSans-31"/>
       <use xlink:href="#DejaVuSans-30" transform="translate(63.623047 0)"/>
       <use xlink:href="#DejaVuSans-30" transform="translate(127.246094 0)"/>
       <use xlink:href="#DejaVuSans-30" transform="translate(190.869141 0)"/>
       <use xlink:href="#DejaVuSans-30" transform="translate(254.492188 0)"/>
      </g>
     </g>
    </g>
    <g id="ytick_3">
     <g id="line2d_10">
      <g>
       <use xlink:href="#mb1b8f350e4" x="90" y="236.705148" style="stroke: #000000; stroke-width: 0.8"/>
      </g>
     </g>
     <g id="text_11">
      <!-- 20000 -->
      <g transform="translate(51.1875 240.504367) scale(0.1 -0.1)">
       <use xlink:href="#DejaVuSans-32"/>
       <use xlink:href="#DejaVuSans-30" transform="translate(63.623047 0)"/>
       <use xlink:href="#DejaVuSans-30" transform="translate(127.246094 0)"/>
       <use xlink:href="#DejaVuSans-30" transform="translate(190.869141 0)"/>
       <use xlink:href="#DejaVuSans-30" transform="translate(254.492188 0)"/>
      </g>
     </g>
    </g>
    <g id="ytick_4">
     <g id="line2d_11">
      <g>
       <use xlink:href="#mb1b8f350e4" x="90" y="170.377722" style="stroke: #000000; stroke-width: 0.8"/>
      </g>
     </g>
     <g id="text_12">
      <!-- 30000 -->
      <g transform="translate(51.1875 174.176941) scale(0.1 -0.1)">
       <defs>
        <path id="DejaVuSans-33" d="M 2597 2516 
Q 3050 2419 3304 2112 
Q 3559 1806 3559 1356 
Q 3559 666 3084 287 
Q 2609 -91 1734 -91 
Q 1441 -91 1130 -33 
Q 819 25 488 141 
L 488 750 
Q 750 597 1062 519 
Q 1375 441 1716 441 
Q 2309 441 2620 675 
Q 2931 909 2931 1356 
Q 2931 1769 2642 2001 
Q 2353 2234 1838 2234 
L 1294 2234 
L 1294 2753 
L 1863 2753 
Q 2328 2753 2575 2939 
Q 2822 3125 2822 3475 
Q 2822 3834 2567 4026 
Q 2313 4219 1838 4219 
Q 1578 4219 1281 4162 
Q 984 4106 628 3988 
L 628 4550 
Q 988 4650 1302 4700 
Q 1616 4750 1894 4750 
Q 2613 4750 3031 4423 
Q 3450 4097 3450 3541 
Q 3450 3153 3228 2886 
Q 3006 2619 2597 2516 
z
" transform="scale(0.015625)"/>
       </defs>
       <use xlink:href="#DejaVuSans-33"/>
       <use xlink:href="#DejaVuSans-30" transform="translate(63.623047 0)"/>
       <use xlink:href="#DejaVuSans-30" transform="translate(127.246094 0)"/>
       <use xlink:href="#DejaVuSans-30" transform="translate(190.869141 0)"/>
       <use xlink:href="#DejaVuSans-30" transform="translate(254.492188 0)"/>
      </g>
     </g>
    </g>
    <g id="ytick_5">
     <g id="line2d_12">
      <g>
       <use xlink:href="#mb1b8f350e4" x="90" y="104.050297" style="stroke: #000000; stroke-width: 0.8"/>
      </g>
     </g>
     <g id="text_13">
      <!-- 40000 -->
      <g transform="translate(51.1875 107.849515) scale(0.1 -0.1)">
       <use xlink:href="#DejaVuSans-34"/>
       <use xlink:href="#DejaVuSans-30" transform="translate(63.623047 0)"/>
       <use xlink:href="#DejaVuSans-30" transform="translate(127.246094 0)"/>
       <use xlink:href="#DejaVuSans-30" transform="translate(190.869141 0)"/>
       <use xlink:href="#DejaVuSans-30" transform="translate(254.492188 0)"/>
      </g>
     </g>
    </g>
    <g id="text_14">
     <!-- Queue Size -->
     <g transform="translate(45.107812 246.439687) rotate(-90) scale(0.1 -0.1)">
      <defs>
       <path id="DejaVuSans-51" d="M 2522 4238 
Q 1834 4238 1429 3725 
Q 1025 3213 1025 2328 
Q 1025 1447 1429 934 
Q 1834 422 2522 422 
Q 3209 422 3611 934 
Q 4013 1447 4013 2328 
Q 4013 3213 3611 3725 
Q 3209 4238 2522 4238 
z
M 3406 84 
L 4238 -825 
L 3475 -825 
L 2784 -78 
Q 2681 -84 2626 -87 
Q 2572 -91 2522 -91 
Q 1538 -91 948 567 
Q 359 1225 359 2328 
Q 359 3434 948 4092 
Q 1538 4750 2522 4750 
Q 3503 4750 4090 4092 
Q 4678 3434 4678 2328 
Q 4678 1516 4351 937 
Q 4025 359 3406 84 
z
" transform="scale(0.015625)"/>
       <path id="DejaVuSans-75" d="M 544 1381 
L 544 3500 
L 1119 3500 
L 1119 1403 
Q 1119 906 1312 657 
Q 1506 409 1894 409 
Q 2359 409 2629 706 
Q 2900 1003 2900 1516 
L 2900 3500 
L 3475 3500 
L 3475 0 
L 2900 0 
L 2900 538 
Q 2691 219 2414 64 
Q 2138 -91 1772 -91 
Q 1169 -91 856 284 
Q 544 659 544 1381 
z
M 1991 3584 
L 1991 3584 
z
" transform="scale(0.015625)"/>
       <path id="DejaVuSans-20" transform="scale(0.015625)"/>
       <path id="DejaVuSans-53" d="M 3425 4513 
L 3425 3897 
Q 3066 4069 2747 4153 
Q 2428 4238 2131 4238 
Q 1616 4238 1336 4038 
Q 1056 3838 1056 3469 
Q 1056 3159 1242 3001 
Q 1428 2844 1947 2747 
L 2328 2669 
Q 3034 2534 3370 2195 
Q 3706 1856 3706 1288 
Q 3706 609 3251 259 
Q 2797 -91 1919 -91 
Q 1588 -91 1214 -16 
Q 841 59 441 206 
L 441 856 
Q 825 641 1194 531 
Q 1563 422 1919 422 
Q 2459 422 2753 634 
Q 3047 847 3047 1241 
Q 3047 1584 2836 1778 
Q 2625 1972 2144 2069 
L 1759 2144 
Q 1053 2284 737 2584 
Q 422 2884 422 3419 
Q 422 4038 858 4394 
Q 1294 4750 2059 4750 
Q 2388 4750 2728 4690 
Q 3069 4631 3425 4513 
z
" transform="scale(0.015625)"/>
       <path id="DejaVuSans-69" d="M 603 3500 
L 1178 3500 
L 1178 0 
L 603 0 
L 603 3500 
z
M 603 4863 
L 1178 4863 
L 1178 4134 
L 603 4134 
L 603 4863 
z
" transform="scale(0.015625)"/>
       <path id="DejaVuSans-7a" d="M 353 3500 
L 3084 3500 
L 3084 2975 
L 922 459 
L 3084 459 
L 3084 0 
L 275 0 
L 275 525 
L 2438 3041 
L 353 3041 
L 353 3500 
z
" transform="scale(0.015625)"/>
      </defs>
      <use xlink:href="#DejaVuSans-51"/>
      <use xlink:href="#DejaVuSans-75" transform="translate(78.710938 0)"/>
      <use xlink:href="#DejaVuSans-65" transform="translate(142.089844 0)"/>
      <use xlink:href="#DejaVuSans-75" transform="translate(203.613281 0)"/>
      <use xlink:href="#DejaVuSans-65" transform="translate(266.992188 0)"/>
      <use xlink:href="#DejaVuSans-20" transform="translate(328.515625 0)"/>
      <use xlink:href="#DejaVuSans-53" transform="translate(360.302734 0)"/>
      <use xlink:href="#DejaVuSans-69" transform="translate(423.779297 0)"/>
      <use xlink:href="#DejaVuSans-7a" transform="translate(451.5625 0)"/>
      <use xlink:href="#DejaVuSans-65" transform="translate(504.052734 0)"/>
     </g>
    </g>
   </g>
   <g id="line2d_13">
    <path d="M 115.363636 369.180916 
L 115.613689 368.796217 
L 115.697039 368.809482 
L 115.988767 368.059982 
L 116.113793 367.761509 
L 116.405521 367.118133 
L 116.530547 367.138031 
L 116.822275 366.574248 
L 116.905625 366.454859 
L 117.489081 365.300762 
L 117.572432 365.181372 
L 118.155887 364.027275 
L 118.239238 363.907886 
L 118.822693 362.753788 
L 118.906044 362.634399 
L 119.489499 361.506833 
L 119.697876 361.301218 
L 120.281331 359.881811 
L 120.531384 359.656298 
L 121.114839 358.236891 
L 121.364891 358.011377 
L 121.948346 356.591971 
L 122.198399 356.366457 
L 122.490126 355.563895 
L 122.531802 355.756245 
L 122.573477 355.630223 
L 123.156932 354.131223 
L 123.240283 353.985303 
L 123.823739 352.486303 
L 123.865414 352.811307 
L 123.948765 352.612325 
L 124.115466 352.426608 
L 124.365518 352.360281 
L 124.907298 351.279144 
L 125.199026 351.219449 
L 125.740806 350.138312 
L 126.032534 350.078617 
L 126.574314 348.99748 
L 126.866041 348.937786 
L 127.366146 348.009202 
L 128.783109 345.740804 
L 129.033161 345.674476 
L 129.574941 344.593339 
L 129.866669 344.533644 
L 130.408449 343.452507 
L 130.700176 343.392813 
L 131.241956 342.311676 
L 131.533684 342.251981 
L 132.033788 341.323397 
L 133.450751 339.054999 
L 133.700804 338.988672 
L 134.242584 337.907535 
L 134.534311 337.84784 
L 135.076091 336.766703 
L 135.367819 336.707008 
L 135.909599 335.625871 
L 136.201326 335.566177 
L 136.701431 334.637593 
L 138.118394 332.369195 
L 138.368446 332.302867 
L 138.910226 331.22173 
L 139.201954 331.162035 
L 139.743734 330.080898 
L 140.035461 330.021204 
L 140.577241 328.940067 
L 140.868969 328.880372 
L 141.369074 327.951788 
L 142.494309 325.822678 
L 142.535984 326.09462 
L 142.869387 325.82931 
L 143.286141 324.913992 
L 143.536193 324.688479 
L 143.952947 323.77316 
L 144.202999 323.547647 
L 144.619753 322.632328 
L 144.869806 322.406815 
L 145.161533 321.604253 
L 145.203209 321.902727 
L 145.286559 321.703745 
L 145.828339 320.675669 
L 145.91169 320.582811 
L 146.495145 319.455245 
L 146.536821 319.833311 
L 146.620171 319.793515 
L 146.870224 319.568001 
L 147.286978 318.652683 
L 147.53703 318.42717 
L 147.953784 317.511851 
L 148.203836 317.286338 
L 148.62059 316.371019 
L 148.870642 316.145506 
L 149.16237 315.342944 
L 149.204045 315.641418 
L 149.287396 315.442436 
L 149.829176 314.41436 
L 149.912527 314.321502 
L 150.495982 313.193936 
L 150.537657 313.572002 
L 150.621008 313.532206 
L 150.87106 313.306692 
L 151.287814 312.391374 
L 151.537866 312.165861 
L 151.95462 311.250542 
L 152.204672 311.025029 
L 152.621426 310.10971 
L 152.871479 309.884197 
L 153.163206 309.081635 
L 153.204882 309.380109 
L 153.288232 309.181127 
L 153.830012 308.153051 
L 153.913363 308.060193 
L 154.496818 306.932627 
L 154.538494 307.310693 
L 154.621844 307.270897 
L 154.871897 307.045383 
L 155.288651 306.130065 
L 155.538703 305.904552 
L 155.955457 304.989233 
L 156.205509 304.76372 
L 156.622263 303.848401 
L 156.872315 303.622888 
L 157.164043 302.820326 
L 157.205718 303.1188 
L 157.289069 302.919818 
L 157.830849 301.891742 
L 157.9142 301.798884 
L 158.497655 300.671318 
L 158.53933 301.102446 
L 158.622681 300.956526 
L 159.831267 298.681495 
L 159.872942 299.086092 
L 159.956293 298.940172 
L 161.164879 296.665141 
L 161.206555 297.069739 
L 161.289905 296.923818 
L 162.498491 294.648788 
L 162.540167 295.053385 
L 162.623517 294.907464 
L 163.832103 292.632434 
L 163.95713 292.970704 
L 164.207182 292.904376 
L 164.58226 292.221204 
L 164.873988 292.161509 
L 165.249066 291.478337 
L 165.540794 291.418642 
L 165.915872 290.735469 
L 166.2076 290.675775 
L 166.499328 290.05893 
L 166.541003 290.145155 
L 167.124459 289.335961 
L 167.83294 288.44054 
L 167.957966 288.725748 
L 168.208018 288.659421 
L 168.583097 287.976248 
L 168.874824 287.916554 
L 169.249903 287.233381 
L 169.541631 287.173687 
L 169.916709 286.490514 
L 170.208437 286.430819 
L 170.500164 285.813974 
L 170.54184 285.9002 
L 171.125295 285.091005 
L 171.833776 284.195585 
L 171.958803 284.480793 
L 172.208855 284.414466 
L 172.583933 283.731293 
L 172.875661 283.671599 
L 173.250739 282.988426 
L 173.542467 282.928731 
L 173.917545 282.245559 
L 174.209273 282.185864 
L 174.501001 281.569019 
L 174.542676 281.655245 
L 175.126132 280.84605 
L 175.834613 279.95063 
L 175.959639 280.235838 
L 176.209691 280.16951 
L 176.58477 279.486338 
L 176.876497 279.426643 
L 177.251576 278.743471 
L 177.543304 278.683776 
L 177.918382 278.000604 
L 178.21011 277.940909 
L 178.501837 277.324064 
L 178.543513 277.41029 
L 179.126968 276.601095 
L 179.835449 275.705675 
L 179.877125 276.030679 
L 179.960476 275.937821 
L 180.793983 274.850051 
L 181.169062 274.352595 
L 181.210737 274.651069 
L 181.294088 274.55821 
L 182.127595 273.47044 
L 182.502674 272.972985 
L 182.544349 273.271458 
L 182.6277 273.1786 
L 183.461208 272.09083 
L 183.836286 271.593374 
L 183.877961 271.891848 
L 183.961312 271.798989 
L 184.79482 270.71122 
L 185.169898 270.213764 
L 185.294924 270.472441 
L 185.544977 270.406113 
L 185.920055 269.722941 
L 186.211783 269.663246 
L 186.586861 268.980074 
L 186.878589 268.920379 
L 187.253667 268.237207 
L 187.545395 268.177512 
L 187.837122 267.560667 
L 187.878798 267.646892 
L 188.462253 266.837698 
L 189.170735 265.942278 
L 189.295761 266.227486 
L 189.545813 266.161158 
L 189.920891 265.477986 
L 190.212619 265.418291 
L 190.587698 264.735118 
L 190.879425 264.675424 
L 191.254504 263.992251 
L 191.546231 263.932557 
L 191.837959 263.315712 
L 191.879634 263.401937 
L 192.46309 262.592743 
L 193.171571 261.697322 
L 193.296597 261.98253 
L 193.54665 261.916203 
L 193.921728 261.23303 
L 194.213456 261.173336 
L 194.588534 260.490163 
L 194.880262 260.430469 
L 195.25534 259.747296 
L 195.547068 259.687601 
L 195.838795 259.070756 
L 195.880471 259.156982 
L 196.463926 258.347787 
L 197.172408 257.452367 
L 197.297434 257.737575 
L 197.547486 257.671248 
L 197.922564 256.988075 
L 198.214292 256.92838 
L 198.589371 256.245208 
L 198.881098 256.185513 
L 199.256177 255.502341 
L 199.547904 255.442646 
L 199.839632 254.825801 
L 199.881307 254.912027 
L 200.464763 254.102832 
L 201.173244 253.207412 
L 201.214919 253.532416 
L 201.29827 253.439558 
L 202.131778 252.351788 
L 202.506856 251.854332 
L 202.548532 252.152806 
L 202.631882 252.059947 
L 203.46539 250.972178 
L 203.840468 250.474722 
L 203.882144 250.773195 
L 203.965495 250.680337 
L 204.799002 249.592567 
L 205.174081 249.095111 
L 205.215756 249.393585 
L 205.299107 249.300726 
L 206.132614 248.212957 
L 206.507693 247.715501 
L 206.632719 247.974178 
L 206.882771 247.907851 
L 207.25785 247.224678 
L 207.549577 247.164983 
L 207.924656 246.481811 
L 208.216383 246.422116 
L 208.591462 245.738944 
L 208.883189 245.679249 
L 209.174917 245.062404 
L 209.216592 245.14863 
L 209.800048 244.339435 
L 210.508529 243.444015 
L 210.633555 243.729223 
L 210.883608 243.662895 
L 211.258686 242.979723 
L 211.550414 242.920028 
L 211.925492 242.236856 
L 212.21722 242.177161 
L 212.592298 241.493988 
L 212.884026 241.434294 
L 213.175754 240.817449 
L 213.217429 240.903674 
L 213.800884 240.09448 
L 214.509366 239.199059 
L 214.634392 239.484267 
L 214.884444 239.41794 
L 215.259523 238.734768 
L 215.55125 238.675073 
L 215.926329 237.9919 
L 216.218056 237.932206 
L 216.593135 237.249033 
L 216.884862 237.189338 
L 217.17659 236.572493 
L 217.218265 236.658719 
L 217.801721 235.849524 
L 218.510202 234.954104 
L 218.635228 235.239312 
L 218.885281 235.172985 
L 219.260359 234.489812 
L 219.552087 234.430118 
L 219.927165 233.746945 
L 220.218893 233.68725 
L 220.593971 233.004078 
L 220.885699 232.944383 
L 221.177427 232.327538 
L 221.219102 232.413764 
L 221.802557 231.604569 
L 222.511039 230.709149 
L 222.552714 231.034153 
L 222.636065 230.941295 
L 223.469572 229.853525 
L 223.844651 229.356069 
L 223.886326 229.654543 
L 223.969677 229.561685 
L 224.803185 228.473915 
L 225.178263 227.976459 
L 225.219938 228.274932 
L 225.303289 228.182074 
L 226.136797 227.094304 
L 226.511875 226.596849 
L 226.553551 226.895322 
L 226.636901 226.802464 
L 227.470409 225.714694 
L 227.845487 225.217238 
L 227.970514 225.475915 
L 228.220566 225.409588 
L 228.595644 224.726415 
L 228.887372 224.66672 
L 229.26245 223.983548 
L 229.554178 223.923853 
L 229.929256 223.240681 
L 230.220984 223.180986 
L 230.512712 222.564141 
L 230.554387 222.650367 
L 231.137842 221.841172 
L 231.846324 220.945752 
L 231.97135 221.23096 
L 232.221402 221.164632 
L 232.596481 220.48146 
L 232.888208 220.421765 
L 233.263287 219.738593 
L 233.555014 219.678898 
L 233.930093 218.995726 
L 234.221821 218.936031 
L 234.513548 218.319186 
L 234.555224 218.405411 
L 235.138679 217.596217 
L 235.84716 216.700797 
L 235.972187 216.986005 
L 236.222239 216.919677 
L 236.597317 216.236505 
L 236.889045 216.17681 
L 237.264123 215.493637 
L 237.555851 215.433943 
L 237.930929 214.75077 
L 238.222657 214.691076 
L 238.514385 214.074231 
L 238.55606 214.160456 
L 239.139515 213.351262 
L 239.847997 212.455841 
L 239.973023 212.741049 
L 240.223075 212.674722 
L 240.598154 211.991549 
L 240.889881 211.931855 
L 241.26496 211.248682 
L 241.556687 211.188988 
L 241.931766 210.505815 
L 242.223494 210.44612 
L 242.515221 209.829275 
L 242.556897 209.915501 
L 243.140352 209.106306 
L 243.848833 208.210886 
L 243.890509 208.535891 
L 243.97386 208.443032 
L 244.807367 207.355262 
L 245.182446 206.857807 
L 245.224121 207.15628 
L 245.307472 207.063422 
L 246.140979 205.975652 
L 246.516058 205.478196 
L 246.557733 205.77667 
L 246.641084 205.683811 
L 247.474591 204.596041 
L 247.84967 204.098586 
L 247.891345 204.397059 
L 247.974696 204.304201 
L 248.808204 203.216431 
L 249.183282 202.718975 
L 249.224957 203.362351 
L 249.308308 203.163369 
L 249.850088 202.135294 
L 249.933439 202.042436 
L 250.516894 200.914869 
L 250.55857 201.664369 
L 250.64192 201.465387 
L 251.1837 200.437312 
L 251.267051 200.344453 
L 251.850506 199.216887 
L 251.892182 199.966387 
L 251.975533 199.767405 
L 252.517312 198.73933 
L 252.600663 198.646471 
L 253.184119 197.518905 
L 253.225794 198.268405 
L 253.309145 198.069423 
L 253.850925 197.041348 
L 253.934275 196.948489 
L 254.517731 195.820923 
L 254.559406 196.252051 
L 254.642757 196.106131 
L 255.017835 195.608675 
L 255.101186 195.542348 
L 255.184537 195.396427 
L 255.226212 195.721432 
L 255.309563 195.575511 
L 255.684641 195.078056 
L 255.767992 195.011728 
L 255.851343 194.865808 
L 255.893018 195.190812 
L 255.976369 195.044892 
L 256.351447 194.547436 
L 256.434798 194.481109 
L 256.518149 194.335189 
L 256.559824 194.660193 
L 256.643175 194.514273 
L 257.018254 194.016817 
L 257.101604 193.95049 
L 257.184955 193.804569 
L 257.22663 194.447945 
L 257.309981 194.248963 
L 257.851761 193.220888 
L 257.935112 193.128029 
L 258.518567 192.000463 
L 258.560243 192.749963 
L 258.643593 192.550981 
L 259.185373 191.522906 
L 259.268724 191.430047 
L 259.852179 190.302481 
L 259.893855 191.051981 
L 259.977206 190.852999 
L 260.518985 189.824924 
L 260.602336 189.732065 
L 261.185792 188.604499 
L 261.227467 189.353999 
L 261.310818 189.155017 
L 261.852598 188.126942 
L 261.935948 188.034083 
L 262.519404 186.906517 
L 262.561079 187.337645 
L 262.64443 187.191725 
L 263.019508 186.694269 
L 263.102859 186.627942 
L 263.18621 186.482021 
L 263.227885 186.807026 
L 263.311236 186.661105 
L 263.686314 186.16365 
L 263.769665 186.097322 
L 263.853016 185.951402 
L 263.894691 186.276406 
L 263.978042 186.130486 
L 264.35312 185.63303 
L 264.436471 185.566703 
L 264.519822 185.420783 
L 264.561497 185.745787 
L 264.644848 185.599867 
L 265.019927 185.102411 
L 265.103277 185.036084 
L 265.186628 184.890163 
L 265.228303 185.533539 
L 265.311654 185.334557 
L 265.853434 184.306482 
L 265.936785 184.213623 
L 266.52024 183.086057 
L 266.561916 183.835557 
L 266.645266 183.636575 
L 267.187046 182.6085 
L 267.270397 182.515641 
L 267.853852 181.388075 
L 267.895528 182.137575 
L 267.978878 181.938593 
L 268.520658 180.910518 
L 268.604009 180.817659 
L 269.187465 179.690093 
L 269.22914 180.439593 
L 269.312491 180.240611 
L 269.854271 179.212536 
L 269.937621 179.119677 
L 270.521077 177.992111 
L 270.562752 178.423239 
L 270.646103 178.277319 
L 271.021181 177.779863 
L 271.104532 177.713536 
L 271.187883 177.567615 
L 271.229558 177.89262 
L 271.312909 177.746699 
L 271.687987 177.249244 
L 271.771338 177.182916 
L 271.854689 177.036996 
L 271.896364 177.362 
L 271.979715 177.21608 
L 272.354793 176.718624 
L 272.438144 176.652297 
L 272.521495 176.506377 
L 272.56317 176.831381 
L 272.646521 176.685461 
L 273.021599 176.188005 
L 273.10495 176.121677 
L 273.188301 175.975757 
L 273.229976 176.619133 
L 273.313327 176.420151 
L 273.855107 175.392076 
L 273.938458 175.299217 
L 274.521913 174.171651 
L 274.563589 174.921151 
L 274.646939 174.722169 
L 275.188719 173.694094 
L 275.27207 173.601235 
L 275.855525 172.473669 
L 275.897201 173.223169 
L 275.980551 173.024187 
L 276.522331 171.996112 
L 276.605682 171.903253 
L 277.189138 170.775687 
L 277.230813 171.525187 
L 277.314164 171.326205 
L 277.855944 170.298129 
L 277.939294 170.205271 
L 278.52275 169.077705 
L 278.564425 169.508833 
L 278.647776 169.362913 
L 279.022854 168.865457 
L 279.106205 168.79913 
L 279.189556 168.653209 
L 279.231231 168.978214 
L 279.314582 168.832293 
L 279.68966 168.334838 
L 279.773011 168.26851 
L 279.856362 168.12259 
L 279.898037 168.447594 
L 279.981388 168.301674 
L 280.356466 167.804218 
L 280.439817 167.737891 
L 280.523168 167.591971 
L 280.564843 167.916975 
L 280.648194 167.771055 
L 281.023272 167.273599 
L 281.106623 167.207271 
L 281.189974 167.061351 
L 281.231649 179.351823 
L 281.315 179.205903 
L 281.815105 178.542629 
L 282.523586 177.647208 
L 282.565262 178.078337 
L 282.648612 177.932416 
L 283.148717 177.269142 
L 283.857198 176.373722 
L 283.898874 176.80485 
L 283.982224 176.65893 
L 284.482329 175.995655 
L 285.190811 175.100235 
L 285.232486 175.531363 
L 285.315837 175.385443 
L 285.815941 174.722169 
L 286.524423 173.826749 
L 286.566098 174.151753 
L 286.649449 174.058895 
L 287.191229 173.614501 
L 287.232904 173.833381 
L 287.316255 173.740523 
L 287.858035 173.296129 
L 287.89971 173.51501 
L 287.983061 173.422151 
L 288.524841 172.977758 
L 288.566516 173.196638 
L 288.649867 173.10378 
L 289.191647 172.659386 
L 289.233322 172.98439 
L 289.316673 172.83847 
L 289.816778 172.175196 
L 290.525259 171.279775 
L 290.566935 171.710904 
L 290.650285 171.564983 
L 291.15039 170.901709 
L 291.858871 170.006289 
L 291.900547 170.437417 
L 291.983897 170.291497 
L 292.484002 169.628222 
L 293.192483 168.732802 
L 293.234159 169.163931 
L 293.31751 169.01801 
L 293.817614 168.354736 
L 294.526096 167.459316 
L 294.567771 167.78432 
L 294.651122 167.691462 
L 295.192902 167.247068 
L 295.234577 167.465948 
L 295.317928 167.37309 
L 295.859708 166.928696 
L 295.901383 167.147577 
L 295.984734 167.054718 
L 296.526514 166.610325 
L 296.568189 166.829205 
L 296.65154 166.736347 
L 297.19332 166.291953 
L 297.234995 166.616957 
L 297.318346 166.471037 
L 297.818451 165.807763 
L 298.526932 164.912343 
L 298.568608 165.343471 
L 298.651958 165.19755 
L 299.152063 164.534276 
L 299.860544 163.638856 
L 299.90222 164.069984 
L 299.98557 163.924064 
L 300.485675 163.26079 
L 301.194156 162.365369 
L 301.235832 162.796498 
L 301.319183 162.650577 
L 301.819287 161.987303 
L 302.527769 161.091883 
L 302.569444 161.416887 
L 302.652795 161.324029 
L 303.194575 160.879635 
L 303.23625 161.098516 
L 303.319601 161.005657 
L 303.861381 160.561263 
L 303.903056 160.780144 
L 303.986407 160.687285 
L 304.528187 160.242892 
L 304.569862 160.461772 
L 304.653213 160.368914 
L 305.194993 159.92452 
L 305.236668 160.249524 
L 305.320019 160.103604 
L 305.820124 159.44033 
L 306.528605 158.54491 
L 306.570281 158.976038 
L 306.653631 158.830118 
L 307.153736 158.166843 
L 307.862217 157.271423 
L 307.903893 157.702551 
L 307.987243 157.556631 
L 308.487348 156.893357 
L 309.195829 155.997936 
L 309.237505 156.429065 
L 309.320856 156.283144 
L 309.82096 155.61987 
L 310.529442 154.72445 
L 310.571117 155.049454 
L 310.654468 154.956596 
L 311.196248 154.512202 
L 311.237923 154.731083 
L 311.321274 154.638224 
L 311.863054 154.19383 
L 311.904729 154.412711 
L 311.98808 154.319853 
L 312.52986 153.875459 
L 312.571535 154.094339 
L 312.654886 154.001481 
L 313.196666 153.557087 
L 313.238341 162.372002 
L 313.321692 162.226082 
L 313.821797 161.562808 
L 314.530278 160.667387 
L 314.571954 161.098516 
L 314.655304 160.952595 
L 315.155409 160.289321 
L 315.86389 159.393901 
L 315.905566 159.825029 
L 315.988916 159.679109 
L 316.489021 159.015834 
L 317.197502 158.120414 
L 317.239178 158.551542 
L 317.322529 158.405622 
L 317.822633 157.742348 
L 318.531115 156.846928 
L 318.57279 157.171932 
L 318.656141 157.079074 
L 319.197921 156.63468 
L 319.239596 156.85356 
L 319.322947 156.760702 
L 319.864727 156.316308 
L 319.906402 156.535189 
L 319.989753 156.44233 
L 320.531533 155.997936 
L 320.573208 156.216817 
L 320.656559 156.123959 
L 321.198339 155.679565 
L 321.240014 156.004569 
L 321.323365 155.858649 
L 321.82347 155.195375 
L 322.531951 154.299954 
L 322.573627 154.731083 
L 322.656977 154.585162 
L 323.157082 153.921888 
L 323.865563 153.026468 
L 323.907239 153.457596 
L 323.990589 153.311676 
L 324.490694 152.648401 
L 325.199175 151.752981 
L 325.240851 152.184109 
L 325.324202 152.038189 
L 325.824306 151.374915 
L 326.532788 150.479495 
L 326.574463 150.804499 
L 326.657814 150.711641 
L 327.199594 150.267247 
L 327.241269 150.486127 
L 327.32462 150.393269 
L 327.8664 149.948875 
L 327.908075 150.167756 
L 327.991426 150.074897 
L 328.533206 149.630504 
L 328.574881 149.849384 
L 328.658232 149.756526 
L 329.200012 149.312132 
L 329.241687 149.637136 
L 329.325038 149.491216 
L 329.825143 148.827942 
L 330.533624 147.932521 
L 330.575299 148.36365 
L 330.65865 148.217729 
L 331.158755 147.554455 
L 331.867236 146.659035 
L 331.908912 147.090163 
L 331.992262 146.944243 
L 332.492367 146.280969 
L 333.200848 145.385548 
L 333.242524 145.816677 
L 333.325875 145.670756 
L 333.825979 145.007482 
L 334.534461 144.112062 
L 334.576136 144.437066 
L 334.659487 144.344208 
L 335.201267 143.899814 
L 335.242942 144.118695 
L 335.326293 144.025836 
L 335.868073 143.581442 
L 335.909748 143.800323 
L 335.993099 143.707464 
L 336.534879 143.263071 
L 336.576554 143.481951 
L 336.659905 143.389093 
L 337.201685 142.944699 
L 337.24336 143.269703 
L 337.326711 143.123783 
L 337.826816 142.460509 
L 338.535297 141.565089 
L 338.576972 141.996217 
L 338.660323 141.850297 
L 339.160428 141.187022 
L 339.868909 140.291602 
L 339.910585 140.72273 
L 339.993935 140.57681 
L 340.49404 139.913536 
L 341.202521 139.018115 
L 341.244197 139.449244 
L 341.327548 139.303323 
L 341.827652 138.640049 
L 342.536134 137.744629 
L 342.577809 138.069633 
L 342.66116 137.976775 
L 343.20294 137.532381 
L 343.244615 137.751262 
L 343.327966 137.658403 
L 343.869746 137.214009 
L 343.911421 137.43289 
L 343.994772 137.340032 
L 344.536552 136.895638 
L 344.578227 137.114518 
L 344.661578 137.02166 
L 345.203358 136.577266 
L 345.245033 145.392181 
L 345.328384 145.246261 
L 345.828489 144.582986 
L 346.53697 143.687566 
L 346.578645 144.118695 
L 346.661996 143.972774 
L 347.162101 143.3095 
L 347.870582 142.41408 
L 347.912258 142.845208 
L 347.995608 142.699288 
L 348.495713 142.036013 
L 349.204194 141.140593 
L 349.24587 141.571721 
L 349.329221 141.425801 
L 349.829325 140.762527 
L 350.537807 139.867107 
L 350.579482 140.192111 
L 350.662833 140.099253 
L 351.204613 139.654859 
L 351.246288 139.873739 
L 351.329639 139.780881 
L 351.871419 139.336487 
L 351.913094 139.555368 
L 351.996445 139.462509 
L 352.538225 139.018115 
L 352.5799 139.236996 
L 352.663251 139.144138 
L 353.205031 138.699744 
L 353.246706 139.024748 
L 353.330057 138.878828 
L 353.830162 138.215554 
L 354.538643 137.320133 
L 354.580318 137.751262 
L 354.663669 137.605341 
L 355.163774 136.942067 
L 355.872255 136.046647 
L 355.913931 136.477775 
L 355.997281 136.331855 
L 356.497386 135.66858 
L 357.205867 134.77316 
L 357.247543 135.204288 
L 357.330894 135.058368 
L 357.830998 134.395094 
L 358.53948 133.499674 
L 358.581155 133.824678 
L 358.664506 133.73182 
L 359.206286 133.287426 
L 359.247961 133.506306 
L 359.331312 133.413448 
L 359.873092 132.969054 
L 359.914767 133.187935 
L 359.998118 133.095076 
L 360.539898 132.650683 
L 360.581573 132.869563 
L 360.664924 132.776705 
L 361.206704 132.332311 
L 361.248379 132.657315 
L 361.33173 132.511395 
L 361.831835 131.848121 
L 362.540316 130.9527 
L 362.581991 131.383829 
L 362.665342 131.237908 
L 363.165447 130.574634 
L 363.873928 129.679214 
L 363.915604 130.110342 
L 363.998954 129.964422 
L 364.499059 129.301148 
L 365.20754 128.405727 
L 365.249216 128.836856 
L 365.332567 128.690935 
L 365.832671 128.027661 
L 366.541153 127.132241 
L 366.582828 127.457245 
L 366.666179 127.364387 
L 367.207959 126.919993 
L 367.249634 127.138873 
L 367.332985 127.046015 
L 367.874765 126.601621 
L 367.91644 126.820502 
L 367.999791 126.727643 
L 368.541571 126.28325 
L 368.583246 126.50213 
L 368.666597 126.409272 
L 369.208377 125.964878 
L 369.250052 126.289882 
L 369.333403 126.143962 
L 369.833508 125.480688 
L 370.541989 124.585268 
L 370.583664 125.016396 
L 370.667015 124.870476 
L 371.16712 124.207201 
L 371.875601 123.311781 
L 371.917277 123.742909 
L 372.000627 123.596989 
L 372.500732 122.933715 
L 373.209213 122.038294 
L 373.250889 122.469423 
L 373.33424 122.323502 
L 373.834344 121.660228 
L 374.542826 120.764808 
L 374.584501 121.089812 
L 374.667852 120.996954 
L 375.209632 120.55256 
L 375.251307 120.771441 
L 375.334658 120.678582 
L 375.876438 120.234188 
L 375.918113 120.453069 
L 376.001464 120.360211 
L 376.543244 119.915817 
L 376.584919 120.134697 
L 376.66827 120.041839 
L 377.21005 119.597445 
L 377.251725 128.41236 
L 377.335076 128.26644 
L 377.835181 127.603165 
L 378.543662 126.707745 
L 378.585337 127.138873 
L 378.668688 126.992953 
L 379.168793 126.329679 
L 379.877274 125.434259 
L 379.91895 125.865387 
L 380.0023 125.719467 
L 380.502405 125.056192 
L 381.210886 124.160772 
L 381.252562 124.5919 
L 381.335913 124.44598 
L 381.836017 123.782706 
L 382.544499 122.887285 
L 382.586174 123.21229 
L 382.669525 123.119431 
L 383.211305 122.675038 
L 383.25298 122.893918 
L 383.336331 122.80106 
L 383.878111 122.356666 
L 383.919786 122.575547 
L 384.003137 122.482688 
L 384.544917 122.038294 
L 384.586592 122.257175 
L 384.669943 122.164317 
L 385.211723 121.719923 
L 385.253398 122.044927 
L 385.336749 121.899007 
L 385.836854 121.235733 
L 386.545335 120.340312 
L 386.58701 120.771441 
L 386.670361 120.62552 
L 387.170466 119.962246 
L 387.878947 119.066826 
L 387.920623 119.497954 
L 388.003973 119.352034 
L 388.504078 118.688759 
L 389.212559 117.793339 
L 389.254235 118.224467 
L 389.337586 118.078547 
L 389.83769 117.415273 
L 390.546172 116.519853 
L 390.587847 116.844857 
L 390.671198 116.751999 
L 391.212978 116.307605 
L 391.254653 116.526485 
L 391.338004 116.433627 
L 391.879784 115.989233 
L 391.921459 116.208114 
L 392.00481 116.115255 
L 392.54659 115.670862 
L 392.588265 115.889742 
L 392.671616 115.796884 
L 393.213396 115.35249 
L 393.255071 115.677494 
L 393.338422 115.531574 
L 393.838527 114.8683 
L 394.547008 113.972879 
L 394.588683 114.404008 
L 394.672034 114.258087 
L 395.172139 113.594813 
L 395.88062 112.699393 
L 395.922296 113.130521 
L 396.005646 112.984601 
L 396.505751 112.321327 
L 397.214232 111.425906 
L 397.255908 111.857035 
L 397.339259 111.711114 
L 397.839363 111.04784 
L 398.547845 110.15242 
L 398.58952 110.477424 
L 398.672871 110.384566 
L 399.214651 109.940172 
L 399.256326 110.159052 
L 399.339677 110.066194 
L 399.881457 109.6218 
L 399.923132 109.840681 
L 400.006483 109.747822 
L 400.548263 109.303429 
L 400.589938 109.522309 
L 400.673289 109.429451 
L 401.215069 108.985057 
L 401.256744 109.310061 
L 401.340095 109.164141 
L 401.8402 108.500867 
L 402.548681 107.605447 
L 402.590356 108.036575 
L 402.673707 107.890655 
L 403.173812 107.22738 
L 403.882293 106.33196 
L 403.923969 106.763088 
L 404.007319 106.617168 
L 404.507424 105.953894 
L 405.215905 105.058473 
L 405.257581 105.489602 
L 405.340931 105.343681 
L 405.841036 104.680407 
L 406.549518 103.784987 
L 406.591193 104.109991 
L 406.674544 104.017133 
L 407.216324 103.572739 
L 407.257999 103.79162 
L 407.34135 103.698761 
L 407.88313 103.254367 
L 407.924805 103.473248 
L 408.008156 103.38039 
L 408.549936 102.935996 
L 408.591611 103.154876 
L 408.674962 103.062018 
L 409.216742 102.617624 
L 409.258417 111.352946 
L 409.341768 111.207026 
L 409.716846 110.70957 
L 409.800197 110.643243 
L 409.883548 110.497322 
L 409.925223 110.822327 
L 410.008574 110.676406 
L 410.383652 110.178951 
L 410.467003 110.112623 
L 410.550354 109.966703 
L 410.592029 110.291707 
L 410.67538 110.145787 
L 411.050459 109.648331 
L 411.133809 109.582004 
L 411.21716 109.436084 
L 411.258835 109.761088 
L 411.342186 109.615168 
L 411.717265 109.117712 
L 411.800615 109.051384 
L 411.883966 108.905464 
L 411.925642 109.230469 
L 412.008992 109.084548 
L 412.384071 108.587092 
L 412.467422 108.520765 
L 412.550772 108.374845 
L 412.592448 108.699849 
L 412.675798 108.553929 
L 413.050877 108.056473 
L 413.134228 107.990146 
L 413.217578 107.844225 
L 413.259254 108.16923 
L 413.342604 108.023309 
L 413.717683 107.525854 
L 413.801034 107.459526 
L 413.884384 107.313606 
L 413.92606 107.63861 
L 414.009411 107.49269 
L 414.384489 106.995234 
L 414.46784 106.928907 
L 414.551191 106.782986 
L 414.592866 107.107991 
L 414.676217 106.962071 
L 415.051295 106.464615 
L 415.134646 106.398287 
L 415.217997 106.252367 
L 415.259672 106.577371 
L 415.343023 106.431451 
L 415.718101 105.933995 
L 415.801452 105.867668 
L 415.884803 105.721748 
L 415.926478 106.046752 
L 416.009829 105.900832 
L 416.384907 105.403376 
L 416.468258 105.337049 
L 416.551609 105.191128 
L 416.593284 105.516133 
L 416.676635 105.370212 
L 417.051713 104.872757 
L 417.135064 104.806429 
L 417.218415 104.660509 
L 417.26009 104.985513 
L 417.343441 104.839593 
L 417.718519 104.342137 
L 417.80187 104.27581 
L 417.885221 104.129889 
L 417.926896 104.454894 
L 418.010247 104.308974 
L 418.385325 103.811518 
L 418.468676 103.74519 
L 418.552027 103.59927 
L 418.593702 103.924274 
L 418.677053 103.778354 
L 419.052132 103.280898 
L 419.135482 103.214571 
L 419.218833 103.068651 
L 419.260508 103.393655 
L 419.343859 103.247735 
L 419.718938 102.750279 
L 419.802288 102.683952 
L 419.885639 102.538031 
L 419.927315 107.956982 
L 420.010665 107.811062 
L 420.385744 107.313606 
L 420.469094 107.247278 
L 420.552445 107.101358 
L 420.594121 107.426363 
L 420.677471 107.280442 
L 421.05255 106.782986 
L 421.135901 106.716659 
L 421.219251 106.570739 
L 421.260927 106.895743 
L 421.344277 106.749823 
L 421.719356 106.252367 
L 421.802707 106.18604 
L 421.886057 106.040119 
L 421.927733 106.365124 
L 422.011084 106.219203 
L 422.386162 105.721748 
L 422.469513 105.65542 
L 422.552864 105.5095 
L 422.594539 105.834504 
L 422.67789 105.688584 
L 423.052968 105.191128 
L 423.136319 105.124801 
L 423.21967 104.978881 
L 423.261345 105.303885 
L 423.344696 105.157965 
L 423.719774 104.660509 
L 423.803125 104.594181 
L 423.886476 104.448261 
L 423.928151 104.773265 
L 424.011502 104.627345 
L 424.38658 104.129889 
L 424.469931 104.063562 
L 424.553282 103.917642 
L 424.594957 104.242646 
L 424.678308 104.096726 
L 425.053386 103.59927 
L 425.136737 103.532943 
L 425.220088 103.387022 
L 425.261763 103.712027 
L 425.345114 103.566106 
L 425.720192 103.068651 
L 425.803543 103.002323 
L 425.886894 102.856403 
L 425.928569 103.181407 
L 426.01192 103.035487 
L 426.386998 102.538031 
L 426.470349 102.471704 
L 426.5537 102.325783 
L 426.595375 102.650788 
L 426.678726 102.504868 
L 427.053805 102.007412 
L 427.137155 101.941084 
L 427.220506 101.795164 
L 427.262181 102.120168 
L 427.345532 101.974248 
L 427.720611 101.476792 
L 427.803961 101.410465 
L 427.887312 101.264545 
L 427.928988 101.589549 
L 428.012338 101.443629 
L 428.387417 100.946173 
L 428.470767 100.879846 
L 428.554118 100.733925 
L 428.595794 101.05893 
L 428.679144 100.913009 
L 429.054223 100.415554 
L 429.137574 100.349226 
L 429.220924 100.203306 
L 429.2626 100.52831 
L 429.34595 100.38239 
L 429.721029 99.884934 
L 429.80438 99.818607 
L 429.88773 99.672686 
L 429.929406 99.997691 
L 430.012757 99.85177 
L 430.387835 99.354315 
L 430.471186 99.287987 
L 430.554536 99.142067 
L 430.596212 104.561018 
L 430.679563 104.415097 
L 431.054641 103.917642 
L 431.137992 103.851314 
L 431.221343 103.705394 
L 431.263018 104.030398 
L 431.346369 103.884478 
L 431.721447 103.387022 
L 431.804798 103.320695 
L 431.888149 103.174775 
L 431.929824 103.499779 
L 432.013175 103.353859 
L 432.388253 102.856403 
L 432.471604 102.790075 
L 432.554955 102.644155 
L 432.59663 102.96916 
L 432.679981 102.823239 
L 433.055059 102.325783 
L 433.13841 102.259456 
L 433.221761 102.113536 
L 433.263436 102.43854 
L 433.346787 102.29262 
L 433.721865 101.795164 
L 433.805216 101.728837 
L 433.888567 101.582916 
L 433.930242 101.907921 
L 434.013593 101.762 
L 434.388671 101.264545 
L 434.472022 101.198217 
L 434.555373 101.052297 
L 434.597048 101.377301 
L 434.680399 101.231381 
L 435.055478 100.733925 
L 435.138828 100.667598 
L 435.222179 100.521677 
L 435.263854 100.846682 
L 435.347205 100.700762 
L 435.722284 100.203306 
L 435.805634 100.136978 
L 435.888985 99.991058 
L 435.930661 100.316062 
L 436.014011 100.170142 
L 436.38909 99.672686 
L 436.47244 99.606359 
L 436.555791 99.460439 
L 436.597467 99.785443 
L 436.680817 99.639523 
L 437.055896 99.142067 
L 437.139247 99.07574 
L 437.222597 98.929819 
L 437.264273 99.254824 
L 437.347623 99.108903 
L 437.722702 98.611448 
L 437.806053 98.54512 
L 437.889403 98.3992 
L 437.931079 98.724204 
L 438.01443 98.578284 
L 438.389508 98.080828 
L 438.472859 98.014501 
L 438.556209 97.86858 
L 438.597885 98.193585 
L 438.681236 98.047665 
L 439.056314 97.550209 
L 439.139665 97.483881 
L 439.223016 97.337961 
L 439.264691 97.662965 
L 439.348042 97.517045 
L 439.72312 97.019589 
L 439.806471 96.953262 
L 439.889822 96.807342 
L 439.931497 97.132346 
L 440.014848 96.986426 
L 440.389926 96.48897 
L 440.473277 96.422643 
L 440.556628 96.276722 
L 440.598303 96.601727 
L 440.681654 96.455806 
L 441.056732 95.958351 
L 441.140083 95.892023 
L 441.223434 95.746103 
L 441.265109 101.165054 
L 441.34846 101.019133 
L 441.723538 100.521677 
L 441.806889 100.45535 
L 441.89024 100.30943 
L 441.931915 100.634434 
L 442.015266 100.488514 
L 442.390344 99.991058 
L 442.473695 99.924731 
L 442.557046 99.77881 
L 442.598721 100.103815 
L 442.682072 99.957894 
L 443.057151 99.460439 
L 443.140501 99.394111 
L 443.223852 99.248191 
L 443.265527 99.573195 
L 443.348878 99.427275 
L 443.723957 98.929819 
L 443.807307 98.863492 
L 443.890658 98.717572 
L 443.932334 99.042576 
L 444.015684 98.896656 
L 444.390763 98.3992 
L 444.474113 98.332872 
L 444.557464 98.186952 
L 444.59914 98.511956 
L 444.68249 98.366036 
L 445.057569 97.86858 
L 445.14092 97.802253 
L 445.22427 97.656333 
L 445.265946 97.981337 
L 445.349296 97.835417 
L 445.724375 97.337961 
L 445.807726 97.271634 
L 445.891076 97.125713 
L 445.932752 97.450718 
L 446.016103 97.304797 
L 446.391181 96.807342 
L 446.474532 96.741014 
L 446.557882 96.595094 
L 446.599558 96.920098 
L 446.682909 96.774178 
L 447.057987 96.276722 
L 447.141338 96.210395 
L 447.224689 96.064474 
L 447.266364 96.389479 
L 447.349715 96.243559 
L 447.724793 95.746103 
L 447.808144 95.679775 
L 447.891495 95.533855 
L 447.93317 95.858859 
L 448.016521 95.712939 
L 448.391599 95.215483 
L 448.47495 95.149156 
L 448.558301 95.003236 
L 448.599976 95.32824 
L 448.683327 95.18232 
L 449.058405 94.684864 
L 449.141756 94.618537 
L 449.225107 94.472616 
L 449.266782 94.797621 
L 449.350133 94.6517 
L 449.725211 94.154245 
L 449.808562 94.087917 
L 449.891913 93.941997 
L 449.933588 94.267001 
L 450.016939 94.121081 
L 450.392017 93.623625 
L 450.475368 93.557298 
L 450.558719 93.411377 
L 450.600394 93.736382 
L 450.683745 93.590461 
L 451.058824 93.093006 
L 451.142174 93.026678 
L 451.225525 92.880758 
L 451.2672 93.205762 
L 451.350551 93.059842 
L 451.72563 92.562386 
L 451.80898 92.496059 
L 451.892331 92.350139 
L 451.934007 97.742558 
L 452.017357 97.6497 
L 452.559137 97.205306 
L 452.600813 97.424187 
L 452.684163 97.331328 
L 453.225943 96.886935 
L 453.267619 97.105815 
L 453.350969 97.012957 
L 453.892749 96.568563 
L 453.934425 96.787443 
L 454.017776 96.694585 
L 454.559555 96.250191 
L 454.601231 96.469072 
L 454.684582 96.376213 
L 455.226362 95.93182 
L 455.268037 96.1507 
L 455.351388 96.057842 
L 455.893168 95.613448 
L 455.934843 95.832328 
L 456.018194 95.73947 
L 456.559974 95.295076 
L 456.601649 95.513957 
L 456.685 95.421098 
L 457.22678 94.976705 
L 457.268455 95.195585 
L 457.351806 95.102727 
L 457.893586 94.658333 
L 457.935261 94.877214 
L 458.018612 94.784355 
L 458.560392 94.339961 
L 458.602067 94.558842 
L 458.685418 94.465984 
L 459.227198 94.02159 
L 459.268873 94.24047 
L 459.352224 94.147612 
L 459.894004 93.703218 
L 459.93568 93.922099 
L 460.01903 93.82924 
L 460.56081 93.384846 
L 460.602486 93.603727 
L 460.685836 93.510869 
L 461.227616 93.066475 
L 461.269292 93.285355 
L 461.352642 93.192497 
L 461.894422 92.748103 
L 461.936098 92.966984 
L 462.019449 92.874125 
L 462.561228 92.429732 
L 462.602904 96.044576 
L 462.686255 95.951718 
L 463.228035 95.507324 
L 463.26971 95.726205 
L 463.353061 95.633346 
L 463.894841 95.188952 
L 463.936516 95.407833 
L 464.019867 95.314975 
L 464.561647 94.870581 
L 464.603322 95.089461 
L 464.686673 94.996603 
L 465.228453 94.552209 
L 465.270128 94.77109 
L 465.353479 94.678231 
L 465.895259 94.233838 
L 465.936934 94.452718 
L 466.020285 94.35986 
L 466.562065 93.915466 
L 466.60374 94.134346 
L 466.687091 94.041488 
L 467.228871 93.597094 
L 467.270546 93.815975 
L 467.353897 93.723116 
L 467.895677 93.278723 
L 467.937352 93.497603 
L 468.020703 93.404745 
L 468.562483 92.960351 
L 468.604159 93.179231 
L 468.687509 93.086373 
L 469.229289 92.641979 
L 469.270965 92.86086 
L 469.354315 92.768001 
L 469.896095 92.323608 
L 469.937771 92.542488 
L 470.021122 92.44963 
L 470.562901 92.005236 
L 470.604577 92.224117 
L 470.687928 92.131258 
L 471.229708 91.686864 
L 471.271383 91.905745 
L 471.354734 91.812886 
L 471.896514 91.368493 
L 471.938189 91.587373 
L 472.02154 91.494515 
L 472.56332 91.050121 
L 472.604995 91.269002 
L 472.688346 91.176143 
L 473.230126 90.731749 
L 473.271801 94.346594 
L 473.355152 94.253736 
L 473.896932 93.809342 
L 473.938607 94.028222 
L 474.021958 93.935364 
L 474.563738 93.49097 
L 474.605413 93.709851 
L 474.688764 93.616992 
L 475.230544 93.172599 
L 475.272219 93.391479 
L 475.35557 93.298621 
L 475.89735 92.854227 
L 475.939025 93.073108 
L 476.022376 92.980249 
L 476.564156 92.535855 
L 476.605832 92.754736 
L 476.689182 92.661878 
L 477.230962 92.217484 
L 477.272638 92.436364 
L 477.355988 92.343506 
L 477.897768 91.899112 
L 477.939444 92.117993 
L 478.022794 92.025134 
L 478.564574 91.58074 
L 478.60625 91.799621 
L 478.689601 91.706763 
L 479.231381 91.262369 
L 479.273056 91.481249 
L 479.356407 91.388391 
L 479.898187 90.943997 
L 479.939862 91.162878 
L 480.023213 91.070019 
L 480.564993 90.625626 
L 480.606668 90.844506 
L 480.690019 90.751648 
L 481.231799 90.307254 
L 481.273474 90.526134 
L 481.356825 90.433276 
L 481.898605 89.988882 
L 481.94028 90.207763 
L 482.023631 90.114904 
L 482.565411 89.670511 
L 482.607086 89.889391 
L 482.690437 89.796533 
L 483.232217 89.352139 
L 483.273892 89.571019 
L 483.357243 89.478161 
L 483.899023 89.033767 
L 483.940698 92.648612 
L 484.024049 92.555754 
L 484.565829 92.11136 
L 484.607505 92.33024 
L 484.690855 92.237382 
L 485.232635 91.792988 
L 485.274311 92.011869 
L 485.357661 91.91901 
L 485.899441 91.474617 
L 485.941117 91.693497 
L 486.024467 91.600639 
L 486.566247 91.156245 
L 486.607923 91.375125 
L 486.691274 91.282267 
L 487.233054 90.837873 
L 487.274729 91.056754 
L 487.35808 90.963895 
L 487.89986 90.519502 
L 487.941535 90.738382 
L 488.024886 90.645524 
L 488.566666 90.20113 
L 488.608341 90.420011 
L 488.691692 90.327152 
L 489.233472 89.882758 
L 489.275147 90.101639 
L 489.358498 90.00878 
L 489.900278 89.564387 
L 489.941953 89.783267 
L 490.025304 89.690409 
L 490.567084 89.246015 
L 490.608759 89.464896 
L 490.69211 89.372037 
L 491.23389 88.927643 
L 491.275565 89.146524 
L 491.358916 89.053666 
L 491.900696 88.609272 
L 491.942371 88.828152 
L 492.025722 88.735294 
L 492.567502 88.2909 
L 492.609178 88.509781 
L 492.692528 88.416922 
L 493.234308 87.972529 
L 493.275984 88.191409 
L 493.359334 88.098551 
L 493.901114 87.654157 
L 493.94279 87.873037 
L 494.02614 87.780179 
L 494.56792 87.335785 
L 494.609596 90.95063 
L 494.692947 90.857772 
L 495.234726 90.413378 
L 495.276402 90.632258 
L 495.359753 90.5394 
L 495.901533 90.095006 
L 495.943208 90.313887 
L 496.026559 90.221028 
L 496.568339 89.776634 
L 496.610014 89.995515 
L 496.693365 89.902657 
L 497.235145 89.458263 
L 497.27682 89.677143 
L 497.360171 89.584285 
L 497.901951 89.139891 
L 497.943626 89.358772 
L 498.026977 89.265913 
L 498.568757 88.82152 
L 498.610432 89.0404 
L 498.693783 88.947542 
L 499.235563 88.503148 
L 499.277238 88.722028 
L 499.360589 88.62917 
L 499.902369 88.184776 
L 499.944044 88.403657 
L 500.027395 88.310798 
L 500.569175 87.866405 
L 500.610851 88.085285 
L 500.694201 87.992427 
L 501.235981 87.548033 
L 501.277657 87.766913 
L 501.361007 87.674055 
L 501.902787 87.229661 
L 501.944463 87.448542 
L 502.027813 87.355683 
L 502.569593 86.91129 
L 502.611269 87.13017 
L 502.69462 87.037312 
L 503.236399 86.592918 
L 503.278075 86.811799 
L 503.361426 86.71894 
L 503.903206 86.274546 
L 503.944881 86.493427 
L 504.028232 86.400569 
L 504.570012 85.956175 
L 504.611687 86.175055 
L 504.695038 86.082197 
L 505.236818 85.637803 
L 505.278493 89.252648 
L 505.361844 89.159789 
L 505.903624 88.715396 
L 505.945299 88.934276 
L 506.02865 88.841418 
L 506.57043 88.397024 
L 506.612105 88.615905 
L 506.695456 88.523046 
L 507.237236 88.078652 
L 507.278911 88.297533 
L 507.362262 88.204675 
L 507.904042 87.760281 
L 507.945717 87.979161 
L 508.029068 87.886303 
L 508.570848 87.441909 
L 508.612524 87.66079 
L 508.695874 87.567931 
L 509.237654 87.123537 
L 509.27933 87.342418 
L 509.36268 87.24956 
L 509.90446 86.805166 
L 509.946136 87.024046 
L 510.029486 86.931188 
L 510.571266 86.486794 
L 510.612942 86.705675 
L 510.696293 86.612816 
L 511.238072 86.168423 
L 511.279748 86.387303 
L 511.363099 86.294445 
L 511.904879 85.850051 
L 511.946554 86.068931 
L 512.029905 85.976073 
L 512.571685 85.531679 
L 512.61336 85.75056 
L 512.696711 85.657701 
L 513.238491 85.213308 
L 513.280166 85.432188 
L 513.363517 85.33933 
L 513.905297 84.894936 
L 513.946972 85.113816 
L 514.030323 85.020958 
L 514.572103 84.576564 
L 514.613778 84.795445 
L 514.697129 84.702586 
L 515.238909 84.258193 
L 515.280584 84.477073 
L 515.363935 84.384215 
L 515.905715 83.939821 
L 515.94739 87.554666 
L 516.030741 87.461807 
L 516.572521 87.017414 
L 516.614197 87.236294 
L 516.697547 87.143436 
L 517.239327 86.699042 
L 517.281003 86.917922 
L 517.364353 86.825064 
L 517.906133 86.38067 
L 517.947809 86.599551 
L 518.031159 86.506692 
L 518.572939 86.062299 
L 518.614615 86.281179 
L 518.697966 86.188321 
L 519.239745 85.743927 
L 519.281421 85.962808 
L 519.364772 85.869949 
L 519.906552 85.425555 
L 519.948227 85.644436 
L 520.031578 85.551577 
L 520.573358 85.107184 
L 520.615033 85.326064 
L 520.698384 85.233206 
L 521.240164 84.788812 
L 521.281839 85.007693 
L 521.36519 84.914834 
L 521.90697 84.47044 
L 521.948645 84.689321 
L 522.031996 84.596463 
L 522.573776 84.152069 
L 522.615451 84.370949 
L 522.698802 84.278091 
L 523.240582 83.833697 
L 523.282257 84.052578 
L 523.365608 83.959719 
L 523.907388 83.515325 
L 523.949063 83.734206 
L 524.032414 83.641348 
L 524.574194 83.196954 
L 524.61587 83.415834 
L 524.69922 83.322976 
L 525.241 82.878582 
L 525.282676 83.097463 
L 525.366026 83.004604 
L 525.907806 82.560211 
L 525.949482 82.779091 
L 526.032832 82.686233 
L 526.574612 82.241839 
L 526.616288 85.856684 
L 526.699639 85.763825 
L 527.241418 85.319431 
L 527.283094 85.538312 
L 527.366445 85.445454 
L 527.908225 85.00106 
L 527.9499 85.21994 
L 528.033251 85.127082 
L 528.575031 84.682688 
L 528.616706 84.901569 
L 528.700057 84.80871 
L 529.241837 84.364317 
L 529.283512 84.583197 
L 529.366863 84.490339 
L 529.908643 84.045945 
L 529.950318 84.264825 
L 530.033669 84.171967 
L 530.575449 83.727573 
L 530.617124 83.946454 
L 530.700475 83.853595 
L 531.242255 83.409202 
L 531.28393 83.628082 
L 531.367281 83.535224 
L 531.909061 83.09083 
L 531.950736 83.30971 
L 532.034087 83.216852 
L 532.575867 82.772458 
L 532.617542 82.991339 
L 532.700893 82.89848 
L 533.242673 82.454087 
L 533.284349 82.672967 
L 533.367699 82.580109 
L 533.909479 82.135715 
L 533.951155 82.354596 
L 534.034505 82.261737 
L 534.576285 81.817343 
L 534.617961 82.036224 
L 534.701312 81.943366 
L 535.243091 81.498972 
L 535.284767 81.717852 
L 535.368118 81.624994 
L 535.909898 81.1806 
L 535.951573 81.399481 
L 536.034924 81.306622 
L 536.576704 80.862228 
L 536.618379 81.081109 
L 536.70173 80.988251 
L 537.24351 80.543857 
L 537.285185 84.158702 
L 537.368536 84.065843 
L 537.910316 83.621449 
L 537.951991 83.84033 
L 538.035342 83.747471 
L 538.577122 83.303078 
L 538.618797 83.521958 
L 538.702148 83.4291 
L 539.243928 82.984706 
L 539.285603 83.203587 
L 539.368954 83.110728 
L 539.910734 82.666334 
L 539.952409 82.885215 
L 540.03576 82.792357 
L 540.57754 82.347963 
L 540.619215 82.566843 
L 540.702566 82.473985 
L 541.244346 82.029591 
L 541.286022 82.248472 
L 541.369372 82.155613 
L 541.911152 81.71122 
L 541.952828 81.9301 
L 542.036178 81.837242 
L 542.577958 81.392848 
L 542.619634 81.611728 
L 542.702984 81.51887 
L 543.244764 81.074476 
L 543.28644 81.293357 
L 543.369791 81.200498 
L 543.911571 80.756105 
L 543.953246 80.974985 
L 544.036597 80.882127 
L 544.578377 80.437733 
L 544.620052 80.656613 
L 544.703403 80.563755 
L 545.245183 80.119361 
L 545.286858 80.338242 
L 545.370209 80.245383 
L 545.911989 79.80099 
L 545.953664 80.01987 
L 546.037015 79.927012 
L 546.578795 79.482618 
L 546.62047 79.701499 
L 546.703821 79.60864 
L 547.245601 79.164246 
L 547.287276 79.383127 
L 547.370627 79.290268 
L 547.912407 78.845875 
L 547.954082 82.460719 
L 548.037433 82.367861 
L 548.579213 81.923467 
L 548.620888 82.142348 
L 548.704239 82.049489 
L 549.246019 81.605096 
L 549.287695 81.823976 
L 549.371045 81.731118 
L 549.912825 81.286724 
L 549.954501 81.505604 
L 550.037851 81.412746 
L 550.579631 80.968352 
L 550.621307 81.187233 
L 550.704657 81.094374 
L 551.246437 80.649981 
L 551.288113 80.868861 
L 551.371464 80.776003 
L 551.913244 80.331609 
L 551.954919 80.55049 
L 552.03827 80.457631 
L 552.58005 80.013237 
L 552.621725 80.232118 
L 552.705076 80.13926 
L 553.246856 79.694866 
L 553.288531 79.913746 
L 553.371882 79.820888 
L 553.913662 79.376494 
L 553.955337 79.595375 
L 554.038688 79.502516 
L 554.580468 79.058122 
L 554.622143 79.277003 
L 554.705494 79.184145 
L 555.247274 78.739751 
L 555.288949 78.958631 
L 555.3723 78.865773 
L 555.91408 78.421379 
L 555.955755 78.64026 
L 556.039106 78.547401 
L 556.580886 78.103008 
L 556.622561 78.321888 
L 556.705912 78.22903 
L 557.247692 77.784636 
L 557.289368 78.003516 
L 557.372718 77.910658 
L 557.914498 77.466264 
L 557.956174 77.685145 
L 558.039524 77.592286 
L 558.581304 77.147893 
L 558.62298 80.762737 
L 558.70633 80.669879 
L 559.24811 80.225485 
L 559.289786 80.444366 
L 559.373137 80.351507 
L 559.914916 79.907114 
L 559.956592 80.125994 
L 560.039943 80.033136 
L 560.581723 79.588742 
L 560.623398 79.807622 
L 560.706749 79.714764 
L 561.248529 79.27037 
L 561.290204 79.489251 
L 561.373555 79.396392 
L 561.915335 78.951999 
L 561.95701 79.170879 
L 562.040361 79.078021 
L 562.582141 78.633627 
L 562.623816 78.852507 
L 562.707167 78.759649 
L 563.248947 78.315255 
L 563.290622 78.534136 
L 563.373973 78.441277 
L 563.915753 77.996884 
L 563.957428 78.215764 
L 564.040779 78.122906 
L 564.582559 77.678512 
L 564.624234 77.897393 
L 564.707585 77.804534 
L 565.249365 77.36014 
L 565.291041 77.579021 
L 565.374391 77.486162 
L 565.916171 77.041769 
L 565.957847 77.260649 
L 566.041197 77.167791 
L 566.582977 76.723397 
L 566.624653 76.942278 
L 566.708003 76.849419 
L 567.249783 76.405025 
L 567.291459 76.623906 
L 567.37481 76.531048 
L 567.916589 76.086654 
L 567.958265 76.305534 
L 568.041616 76.212676 
L 568.583396 75.768282 
L 568.625071 75.987163 
L 568.708422 75.894304 
L 569.250202 75.449911 
L 569.291877 79.064755 
L 569.375228 78.971897 
L 569.917008 78.527503 
L 569.958683 78.746384 
L 570.042034 78.653525 
L 570.583814 78.209131 
L 570.625489 78.428012 
L 570.70884 78.335154 
L 571.25062 77.89076 
L 571.292295 78.10964 
L 571.375646 78.016782 
L 571.917426 77.572388 
L 571.959101 77.791269 
L 572.042452 77.69841 
L 572.584232 77.254016 
L 572.625907 77.472897 
L 572.709258 77.380039 
L 573.251038 76.935645 
L 573.292714 77.154525 
L 573.376064 77.061667 
L 573.917844 76.617273 
L 573.95952 76.836154 
L 574.04287 76.743295 
L 574.58465 76.298902 
L 574.626326 76.517782 
L 574.709676 76.424924 
L 575.251456 75.98053 
L 575.293132 76.19941 
L 575.376483 76.106552 
L 575.918262 75.662158 
L 575.959938 75.881039 
L 576.043289 75.78818 
L 576.585069 75.343787 
L 576.626744 75.562667 
L 576.710095 75.469809 
L 577.251875 75.025415 
L 577.29355 75.244295 
L 577.376901 75.151437 
L 577.918681 74.707043 
L 577.960356 74.925924 
L 578.043707 74.833065 
L 578.585487 74.388672 
L 578.627162 74.607552 
L 578.710513 74.514694 
L 579.252293 74.0703 
L 579.293968 74.289181 
L 579.377319 74.196322 
L 579.919099 73.751928 
L 579.960774 77.366773 
L 580.044125 77.273915 
L 580.585905 76.829521 
L 580.62758 77.048401 
L 580.710931 76.955543 
L 581.252711 76.511149 
L 581.294387 76.73003 
L 581.377737 76.637171 
L 581.919517 76.192778 
L 581.961193 76.411658 
L 582.044543 76.3188 
L 582.586323 75.874406 
L 582.627999 76.093287 
L 582.711349 76.000428 
L 583.253129 75.556034 
L 583.294805 75.774915 
L 583.378156 75.682057 
L 583.919935 75.237663 
L 583.961611 75.456543 
L 584.044962 75.363685 
L 584.586742 74.919291 
L 584.628417 75.138172 
L 584.711768 75.045313 
L 585.253548 74.600919 
L 585.295223 74.8198 
L 585.378574 74.726942 
L 585.920354 74.282548 
L 585.962029 74.501428 
L 586.04538 74.40857 
L 586.58716 73.964176 
L 586.628835 74.183057 
L 586.712186 74.090198 
L 587.253966 73.645805 
L 587.295641 73.864685 
L 587.378992 73.771827 
L 587.920772 73.327433 
L 587.962447 73.546313 
L 588.045798 73.453455 
L 588.587578 73.009061 
L 588.629253 73.227942 
L 588.712604 73.135083 
L 589.254384 72.69069 
L 589.29606 72.90957 
L 589.37941 72.816712 
L 589.92119 72.372318 
L 589.962866 72.591198 
L 590.046216 72.49834 
L 590.587996 72.053946 
L 590.629672 75.668791 
L 590.713022 75.575933 
L 591.254802 75.131539 
L 591.296478 75.350419 
L 591.379829 75.257561 
L 591.921608 74.813167 
L 591.963284 75.032048 
L 592.046635 74.939189 
L 592.588415 74.494796 
L 592.63009 74.713676 
L 592.713441 74.620818 
L 593.255221 74.176424 
L 593.296896 74.395304 
L 593.380247 74.302446 
L 593.922027 73.858052 
L 593.963702 74.076933 
L 594.047053 73.984074 
L 594.588833 73.539681 
L 594.630508 73.758561 
L 594.713859 73.665703 
L 595.255639 73.221309 
L 595.297314 73.44019 
L 595.380665 73.347331 
L 595.922445 72.902937 
L 595.96412 73.121818 
L 596.047471 73.028959 
L 596.589251 72.584566 
L 596.630926 72.803446 
L 596.714277 72.710588 
L 597.256057 72.266194 
L 597.297733 72.485075 
L 597.381083 72.392216 
L 597.922863 71.947822 
L 597.964539 72.166703 
L 598.047889 72.073845 
L 598.589669 71.629451 
L 598.631345 71.848331 
L 598.714695 71.755473 
L 599.256475 71.311079 
L 599.298151 71.52996 
L 599.381502 71.437101 
L 599.923281 70.992707 
L 599.964957 71.211588 
L 600.048308 71.11873 
L 600.590088 70.674336 
L 600.631763 70.893216 
L 600.715114 70.800358 
L 601.256894 70.355964 
L 601.298569 73.970809 
L 601.38192 73.877951 
L 601.9237 73.433557 
L 601.965375 73.652437 
L 602.048726 73.559579 
L 602.590506 73.115185 
L 602.632181 73.334066 
L 602.715532 73.241207 
L 603.257312 72.796813 
L 603.298987 73.015694 
L 603.382338 72.922836 
L 603.924118 72.478442 
L 603.965793 72.697322 
L 604.049144 72.604464 
L 604.590924 72.16007 
L 604.632599 72.378951 
L 604.71595 72.286092 
L 605.25773 71.841699 
L 605.299405 72.060579 
L 605.382756 71.967721 
L 605.924536 71.523327 
L 605.966212 71.742207 
L 606.049562 71.649349 
L 606.591342 71.204955 
L 606.633018 71.423836 
L 606.716368 71.330977 
L 607.258148 70.886584 
L 607.299824 71.105464 
L 607.383174 71.012606 
L 607.924954 70.568212 
L 607.96663 70.787092 
L 608.049981 70.694234 
L 608.591761 70.24984 
L 608.633436 70.468721 
L 608.716787 70.375862 
L 609.258567 69.931469 
L 609.300242 70.150349 
L 609.383593 70.057491 
L 609.925373 69.613097 
L 609.967048 69.831978 
L 610.050399 69.739119 
L 610.592179 69.294725 
L 610.633854 69.513606 
L 610.717205 69.420747 
L 611.258985 68.976354 
L 611.30066 69.195234 
L 611.384011 69.102376 
L 611.925791 68.657982 
L 611.967466 72.272827 
L 612.050817 72.179968 
L 612.592597 71.735575 
L 612.634272 71.954455 
L 612.717623 71.861597 
L 613.259403 71.417203 
L 613.301078 71.636084 
L 613.384429 71.543225 
L 613.926209 71.098831 
L 613.967885 71.317712 
L 614.051235 71.224853 
L 614.593015 70.78046 
L 614.634691 70.99934 
L 614.718041 70.906482 
L 615.259821 70.462088 
L 615.301497 70.680969 
L 615.384847 70.58811 
L 615.926627 70.143716 
L 615.968303 70.362597 
L 616.051654 70.269739 
L 616.593434 69.825345 
L 616.635109 70.044225 
L 616.71846 69.951367 
L 617.26024 69.506973 
L 617.301915 69.725854 
L 617.385266 69.632995 
L 617.927046 69.188602 
L 617.968721 69.407482 
L 618.052072 69.314624 
L 618.593852 68.87023 
L 618.635527 69.08911 
L 618.718878 68.996252 
L 619.260658 68.551858 
L 619.302333 68.770739 
L 619.385684 68.67788 
L 619.927464 68.233487 
L 619.969139 68.452367 
L 620.05249 68.359509 
L 620.59427 67.915115 
L 620.635945 68.133995 
L 620.719296 68.041137 
L 621.261076 67.596743 
L 621.302751 67.815624 
L 621.386102 67.722765 
L 621.927882 67.278372 
L 621.969558 67.497252 
L 622.052908 67.404394 
L 622.594688 66.96 
L 622.636364 369.36 
L 622.636364 369.36 
" clip-path="url(#p44ecf66cf2)" style="fill: none; stroke: #1f77b4; stroke-width: 1.5; stroke-linecap: square"/>
   </g>
   <g id="patch_3">
    <path d="M 90 384.48 
L 90 51.84 
" style="fill: none; stroke: #000000; stroke-width: 0.8; stroke-linejoin: miter; stroke-linecap: square"/>
   </g>
   <g id="patch_4">
    <path d="M 648 384.48 
L 648 51.84 
" style="fill: none; stroke: #000000; stroke-width: 0.8; stroke-linejoin: miter; stroke-linecap: square"/>
   </g>
   <g id="patch_5">
    <path d="M 90 384.48 
L 648 384.48 
" style="fill: none; stroke: #000000; stroke-width: 0.8; stroke-linejoin: miter; stroke-linecap: square"/>
   </g>
   <g id="patch_6">
    <path d="M 90 51.84 
L 648 51.84 
" style="fill: none; stroke: #000000; stroke-width: 0.8; stroke-linejoin: miter; stroke-linecap: square"/>
   </g>
   <g id="text_15">
    <!-- Queue size over time -->
    <g transform="translate(304.997813 45.84) scale(0.12 -0.12)">
     <defs>
      <path id="DejaVuSans-73" d="M 2834 3397 
L 2834 2853 
Q 2591 2978 2328 3040 
Q 2066 3103 1784 3103 
Q 1356 3103 1142 2972 
Q 928 2841 928 2578 
Q 928 2378 1081 2264 
Q 1234 2150 1697 2047 
L 1894 2003 
Q 2506 1872 2764 1633 
Q 3022 1394 3022 966 
Q 3022 478 2636 193 
Q 2250 -91 1575 -91 
Q 1294 -91 989 -36 
Q 684 19 347 128 
L 347 722 
Q 666 556 975 473 
Q 1284 391 1588 391 
Q 1994 391 2212 530 
Q 2431 669 2431 922 
Q 2431 1156 2273 1281 
Q 2116 1406 1581 1522 
L 1381 1569 
Q 847 1681 609 1914 
Q 372 2147 372 2553 
Q 372 3047 722 3315 
Q 1072 3584 1716 3584 
Q 2034 3584 2315 3537 
Q 2597 3491 2834 3397 
z
" transform="scale(0.015625)"/>
      <path id="DejaVuSans-6f" d="M 1959 3097 
Q 1497 3097 1228 2736 
Q 959 2375 959 1747 
Q 959 1119 1226 758 
Q 1494 397 1959 397 
Q 2419 397 2687 759 
Q 2956 1122 2956 1747 
Q 2956 2369 2687 2733 
Q 2419 3097 1959 3097 
z
M 1959 3584 
Q 2709 3584 3137 3096 
Q 3566 2609 3566 1747 
Q 3566 888 3137 398 
Q 2709 -91 1959 -91 
Q 1206 -91 779 398 
Q 353 888 353 1747 
Q 353 2609 779 3096 
Q 1206 3584 1959 3584 
z
" transform="scale(0.015625)"/>
      <path id="DejaVuSans-76" d="M 191 3500 
L 800 3500 
L 1894 563 
L 2988 3500 
L 3597 3500 
L 2284 0 
L 1503 0 
L 191 3500 
z
" transform="scale(0.015625)"/>
      <path id="DejaVuSans-72" d="M 2631 2963 
Q 2534 3019 2420 3045 
Q 2306 3072 2169 3072 
Q 1681 3072 1420 2755 
Q 1159 2438 1159 1844 
L 1159 0 
L 581 0 
L 581 3500 
L 1159 3500 
L 1159 2956 
Q 1341 3275 1631 3429 
Q 1922 3584 2338 3584 
Q 2397 3584 2469 3576 
Q 2541 3569 2628 3553 
L 2631 2963 
z
" transform="scale(0.015625)"/>
      <path id="DejaVuSans-74" d="M 1172 4494 
L 1172 3500 
L 2356 3500 
L 2356 3053 
L 1172 3053 
L 1172 1153 
Q 1172 725 1289 603 
Q 1406 481 1766 481 
L 2356 481 
L 2356 0 
L 1766 0 
Q 1100 0 847 248 
Q 594 497 594 1153 
L 594 3053 
L 172 3053 
L 172 3500 
L 594 3500 
L 594 4494 
L 1172 4494 
z
" transform="scale(0.015625)"/>
      <path id="DejaVuSans-6d" d="M 3328 2828 
Q 3544 3216 3844 3400 
Q 4144 3584 4550 3584 
Q 5097 3584 5394 3201 
Q 5691 2819 5691 2113 
L 5691 0 
L 5113 0 
L 5113 2094 
Q 5113 2597 4934 2840 
Q 4756 3084 4391 3084 
Q 3944 3084 3684 2787 
Q 3425 2491 3425 1978 
L 3425 0 
L 2847 0 
L 2847 2094 
Q 2847 2600 2669 2842 
Q 2491 3084 2119 3084 
Q 1678 3084 1418 2786 
Q 1159 2488 1159 1978 
L 1159 0 
L 581 0 
L 581 3500 
L 1159 3500 
L 1159 2956 
Q 1356 3278 1631 3431 
Q 1906 3584 2284 3584 
Q 2666 3584 2933 3390 
Q 3200 3197 3328 2828 
z
" transform="scale(0.015625)"/>
     </defs>
     <use xlink:href="#DejaVuSans-51"/>
     <use xlink:href="#DejaVuSans-75" transform="translate(78.710938 0)"/>
     <use xlink:href="#DejaVuSans-65" transform="translate(142.089844 0)"/>
     <use xlink:href="#DejaVuSans-75" transform="translate(203.613281 0)"/>
     <use xlink:href="#DejaVuSans-65" transform="translate(266.992188 0)"/>
     <use xlink:href="#DejaVuSans-20" transform="translate(328.515625 0)"/>
     <use xlink:href="#DejaVuSans-73" transform="translate(360.302734 0)"/>
     <use xlink:href="#DejaVuSans-69" transform="translate(412.402344 0)"/>
     <use xlink:href="#DejaVuSans-7a" transform="translate(440.185547 0)"/>
     <use xlink:href="#DejaVuSans-65" transform="translate(492.675781 0)"/>
     <use xlink:href="#DejaVuSans-20" transform="translate(554.199219 0)"/>
     <use xlink:href="#DejaVuSans-6f" transform="translate(585.986328 0)"/>
     <use xlink:href="#DejaVuSans-76" transform="translate(647.167969 0)"/>
     <use xlink:href="#DejaVuSans-65" transform="translate(706.347656 0)"/>
     <use xlink:href="#DejaVuSans-72" transform="translate(767.871094 0)"/>
     <use xlink:href="#DejaVuSans-20" transform="translate(808.984375 0)"/>
     <use xlink:href="#DejaVuSans-74" transform="translate(840.771484 0)"/>
     <use xlink:href="#DejaVuSans-69" transform="translate(879.980469 0)"/>
     <use xlink:href="#DejaVuSans-6d" transform="translate(907.763672 0)"/>
     <use xlink:href="#DejaVuSans-65" transform="translate(1005.175781 0)"/>
    </g>
   </g>
   <g id="legend_1">
    <g id="patch_7">
     <path d="M 97 74.518125 
L 185.559375 74.518125 
Q 187.559375 74.518125 187.559375 72.518125 
L 187.559375 58.84 
Q 187.559375 56.84 185.559375 56.84 
L 97 56.84 
Q 95 56.84 95 58.84 
L 95 72.518125 
Q 95 74.518125 97 74.518125 
z
" style="fill: #ffffff; opacity: 0.8; stroke: #cccccc; stroke-linejoin: miter"/>
    </g>
    <g id="line2d_14">
     <path d="M 99 64.938438 
L 109 64.938438 
L 119 64.938438 
" style="fill: none; stroke: #1f77b4; stroke-width: 1.5; stroke-linecap: square"/>
    </g>
    <g id="text_16">
     <!-- Queue Size -->
     <g transform="translate(127 68.438438) scale(0.1 -0.1)">
      <use xlink:href="#DejaVuSans-51"/>
      <use xlink:href="#DejaVuSans-75" transform="translate(78.710938 0)"/>
      <use xlink:href="#DejaVuSans-65" transform="translate(142.089844 0)"/>
      <use xlink:href="#DejaVuSans-75" transform="translate(203.613281 0)"/>
      <use xlink:href="#DejaVuSans-65" transform="translate(266.992188 0)"/>
      <use xlink:href="#DejaVuSans-20" transform="translate(328.515625 0)"/>
      <use xlink:href="#DejaVuSans-53" transform="translate(360.302734 0)"/>
      <use xlink:href="#DejaVuSans-69" transform="translate(423.779297 0)"/>
      <use xlink:href="#DejaVuSans-7a" transform="translate(451.5625 0)"/>
      <use xlink:href="#DejaVuSans-65" transform="translate(504.052734 0)"/>
     </g>
    </g>
   </g>
  </g>
 </g>
 <defs>
  <clipPath id="p44ecf66cf2">
   <rect x="90" y="51.84" width="558" height="332.64"/>
  </clipPath>
 </defs>
</svg>
