<?xml version="1.0" encoding="utf-8" standalone="no"?>
<!DOCTYPE svg PUBLIC "-//W3C//DTD SVG 1.1//EN"
  "http://www.w3.org/Graphics/SVG/1.1/DTD/svg11.dtd">
<svg xmlns:xlink="http://www.w3.org/1999/xlink" width="576pt" height="432pt" viewBox="0 0 576 432" xmlns="http://www.w3.org/2000/svg" version="1.1">
 <metadata>
  <rdf:RDF xmlns:dc="http://purl.org/dc/elements/1.1/" xmlns:cc="http://creativecommons.org/ns#" xmlns:rdf="http://www.w3.org/1999/02/22-rdf-syntax-ns#">
   <cc:Work>
    <dc:type rdf:resource="http://purl.org/dc/dcmitype/StillImage"/>
    <dc:date>2025-09-30T20:45:51.979133</dc:date>
    <dc:format>image/svg+xml</dc:format>
    <dc:creator>
     <cc:Agent>
      <dc:title>Matplotlib v3.10.3, https://matplotlib.org/</dc:title>
     </cc:Agent>
    </dc:creator>
   </cc:Work>
  </rdf:RDF>
 </metadata>
 <defs>
  <style type="text/css">*{stroke-linejoin: round; stroke-linecap: butt}</style>
 </defs>
 <g id="figure_1">
  <g id="patch_1">
   <path d="M 0 432 
L 576 432 
L 576 0 
L 0 0 
z
" style="fill: #ffffff"/>
  </g>
  <g id="axes_1">
   <g id="patch_2">
    <path d="M 72 384.48 
L 518.4 384.48 
L 518.4 51.84 
L 72 51.84 
z
" style="fill: #ffffff"/>
   </g>
   <g id="FillBetweenPolyCollection_1">
    <path d="M 295.37631 361.308658 
L 295.02369 361.308658 
L 295.030871 358.331566 
L 295.064879 355.354475 
L 295.068889 352.377383 
L 295.038349 349.400292 
L 295.010134 346.4232 
L 295.01021 343.446109 
L 294.952382 340.469017 
L 294.43921 337.491926 
L 292.527185 334.514835 
L 288.143582 331.537743 
L 281.840155 328.560652 
L 276.439745 325.58356 
L 273.784894 322.606469 
L 272.536186 319.629377 
L 271.525855 316.652286 
L 271.683565 313.675194 
L 272.832779 310.698103 
L 272.725019 307.721011 
L 269.790289 304.74392 
L 264.232239 301.766828 
L 257.429554 298.789737 
L 251.178453 295.812646 
L 246.222621 292.835554 
L 241.807617 289.858463 
L 237.654803 286.881371 
L 234.636828 283.90428 
L 231.730372 280.927188 
L 225.179623 277.950097 
L 213.531317 274.973005 
L 201.230021 271.995914 
L 194.314713 269.018822 
L 193.224789 266.041731 
L 192.639452 263.064639 
L 188.85453 260.087548 
L 184.358413 257.110456 
L 183.6 254.133365 
L 187.05461 251.156274 
L 192.189022 248.179182 
L 196.873476 245.202091 
L 199.409607 242.224999 
L 198.879535 239.247908 
L 196.91803 236.270816 
L 197.513221 233.293725 
L 204.317507 230.316633 
L 217.573022 227.339542 
L 233.838344 224.36245 
L 249.26602 221.385359 
L 261.849662 218.408267 
L 271.002671 215.431176 
L 277.116424 212.454085 
L 281.227526 209.476993 
L 284.291068 206.499902 
L 286.796373 203.52281 
L 288.843835 200.545719 
L 290.350747 197.568627 
L 291.33015 194.591536 
L 291.970721 191.614444 
L 292.471656 188.637353 
L 292.942628 185.660261 
L 293.362446 182.68317 
L 293.651814 179.706078 
L 293.823796 176.728987 
L 293.949505 173.751895 
L 294.046193 170.774804 
L 294.081994 167.797713 
L 294.091791 164.820621 
L 294.204362 161.84353 
L 294.443778 158.866438 
L 294.678516 155.889347 
L 294.833792 152.912255 
L 294.937565 149.935164 
L 295.018402 146.958072 
L 295.084744 143.980981 
L 295.129797 141.003889 
L 295.139945 138.026798 
L 295.123756 135.049706 
L 295.108026 132.072615 
L 295.107631 129.095523 
L 295.11709 126.118432 
L 295.114793 123.141341 
L 295.080922 120.164249 
L 295.025879 117.187158 
L 294.995985 114.210066 
L 295.03166 111.232975 
L 295.108314 108.255883 
L 295.168071 105.278792 
L 295.192992 102.3017 
L 295.199037 99.324609 
L 295.199917 96.347517 
L 295.199996 93.370426 
L 295.2 90.393334 
L 295.199999 87.416243 
L 295.199988 84.439152 
L 295.19984 81.46206 
L 295.198662 78.484969 
L 295.193008 75.507877 
L 295.177217 72.530786 
L 295.153716 69.553694 
L 295.141382 66.576603 
L 295.258618 66.576603 
L 295.258618 66.576603 
L 295.246284 69.553694 
L 295.222783 72.530786 
L 295.206992 75.507877 
L 295.201338 78.484969 
L 295.20016 81.46206 
L 295.200012 84.439152 
L 295.200001 87.416243 
L 295.2 90.393334 
L 295.200004 93.370426 
L 295.200083 96.347517 
L 295.200963 99.324609 
L 295.207008 102.3017 
L 295.231929 105.278792 
L 295.291686 108.255883 
L 295.36834 111.232975 
L 295.404015 114.210066 
L 295.374121 117.187158 
L 295.319078 120.164249 
L 295.285207 123.141341 
L 295.28291 126.118432 
L 295.292369 129.095523 
L 295.291974 132.072615 
L 295.276244 135.049706 
L 295.260055 138.026798 
L 295.270203 141.003889 
L 295.315256 143.980981 
L 295.381598 146.958072 
L 295.462435 149.935164 
L 295.566208 152.912255 
L 295.721484 155.889347 
L 295.956222 158.866438 
L 296.195638 161.84353 
L 296.308209 164.820621 
L 296.318006 167.797713 
L 296.353807 170.774804 
L 296.450495 173.751895 
L 296.576204 176.728987 
L 296.748186 179.706078 
L 297.037554 182.68317 
L 297.457372 185.660261 
L 297.928344 188.637353 
L 298.429279 191.614444 
L 299.06985 194.591536 
L 300.049253 197.568627 
L 301.556165 200.545719 
L 303.603627 203.52281 
L 306.108932 206.499902 
L 309.172474 209.476993 
L 313.283576 212.454085 
L 319.397329 215.431176 
L 328.550338 218.408267 
L 341.13398 221.385359 
L 356.561656 224.36245 
L 372.826978 227.339542 
L 386.082493 230.316633 
L 392.886779 233.293725 
L 393.48197 236.270816 
L 391.520465 239.247908 
L 390.990393 242.224999 
L 393.526524 245.202091 
L 398.210978 248.179182 
L 403.34539 251.156274 
L 406.8 254.133365 
L 406.041587 257.110456 
L 401.54547 260.087548 
L 397.760548 263.064639 
L 397.175211 266.041731 
L 396.085287 269.018822 
L 389.169979 271.995914 
L 376.868683 274.973005 
L 365.220377 277.950097 
L 358.669628 280.927188 
L 355.763172 283.90428 
L 352.745197 286.881371 
L 348.592383 289.858463 
L 344.177379 292.835554 
L 339.221547 295.812646 
L 332.970446 298.789737 
L 326.167761 301.766828 
L 320.609711 304.74392 
L 317.674981 307.721011 
L 317.567221 310.698103 
L 318.716435 313.675194 
L 318.874145 316.652286 
L 317.863814 319.629377 
L 316.615106 322.606469 
L 313.960255 325.58356 
L 308.559845 328.560652 
L 302.256418 331.537743 
L 297.872815 334.514835 
L 295.96079 337.491926 
L 295.447618 340.469017 
L 295.38979 343.446109 
L 295.389866 346.4232 
L 295.361651 349.400292 
L 295.331111 352.377383 
L 295.335121 355.354475 
L 295.369129 358.331566 
L 295.37631 361.308658 
z
" clip-path="url(#pd07e7607d4)" style="fill: #1f77b4; fill-opacity: 0.3"/>
   </g>
   <g id="matplotlib.axis_1">
    <g id="xtick_1">
     <g id="line2d_1">
      <defs>
       <path id="mbbf936efc3" d="M 0 0 
L 0 3.5 
" style="stroke: #000000; stroke-width: 0.8"/>
      </defs>
      <g>
       <use xlink:href="#mbbf936efc3" x="295.2" y="384.48" style="stroke: #000000; stroke-width: 0.8"/>
      </g>
     </g>
     <g id="text_1">
      <!-- 1 -->
      <g transform="translate(292.01875 399.078438) scale(0.1 -0.1)">
       <defs>
        <path id="DejaVuSans-31" d="M 794 531 
L 1825 531 
L 1825 4091 
L 703 3866 
L 703 4441 
L 1819 4666 
L 2450 4666 
L 2450 531 
L 3481 531 
L 3481 0 
L 794 0 
L 794 531 
z
" transform="scale(0.015625)"/>
       </defs>
       <use xlink:href="#DejaVuSans-31"/>
      </g>
     </g>
    </g>
   </g>
   <g id="matplotlib.axis_2">
    <g id="ytick_1">
     <g id="line2d_2">
      <defs>
       <path id="m557fadfb69" d="M 0 0 
L -3.5 0 
" style="stroke: #000000; stroke-width: 0.8"/>
      </defs>
      <g>
       <use xlink:href="#m557fadfb69" x="72" y="384.48" style="stroke: #000000; stroke-width: 0.8"/>
      </g>
     </g>
     <g id="text_2">
      <!-- 0 -->
      <g transform="translate(58.6375 388.279219) scale(0.1 -0.1)">
       <defs>
        <path id="DejaVuSans-30" d="M 2034 4250 
Q 1547 4250 1301 3770 
Q 1056 3291 1056 2328 
Q 1056 1369 1301 889 
Q 1547 409 2034 409 
Q 2525 409 2770 889 
Q 3016 1369 3016 2328 
Q 3016 3291 2770 3770 
Q 2525 4250 2034 4250 
z
M 2034 4750 
Q 2819 4750 3233 4129 
Q 3647 3509 3647 2328 
Q 3647 1150 3233 529 
Q 2819 -91 2034 -91 
Q 1250 -91 836 529 
Q 422 1150 422 2328 
Q 422 3509 836 4129 
Q 1250 4750 2034 4750 
z
" transform="scale(0.015625)"/>
       </defs>
       <use xlink:href="#DejaVuSans-30"/>
      </g>
     </g>
    </g>
    <g id="ytick_2">
     <g id="line2d_3">
      <g>
       <use xlink:href="#m557fadfb69" x="72" y="345.053202" style="stroke: #000000; stroke-width: 0.8"/>
      </g>
     </g>
     <g id="text_3">
      <!-- 25 -->
      <g transform="translate(52.275 348.85242) scale(0.1 -0.1)">
       <defs>
        <path id="DejaVuSans-32" d="M 1228 531 
L 3431 531 
L 3431 0 
L 469 0 
L 469 531 
Q 828 903 1448 1529 
Q 2069 2156 2228 2338 
Q 2531 2678 2651 2914 
Q 2772 3150 2772 3378 
Q 2772 3750 2511 3984 
Q 2250 4219 1831 4219 
Q 1534 4219 1204 4116 
Q 875 4013 500 3803 
L 500 4441 
Q 881 4594 1212 4672 
Q 1544 4750 1819 4750 
Q 2544 4750 2975 4387 
Q 3406 4025 3406 3419 
Q 3406 3131 3298 2873 
Q 3191 2616 2906 2266 
Q 2828 2175 2409 1742 
Q 1991 1309 1228 531 
z
" transform="scale(0.015625)"/>
        <path id="DejaVuSans-35" d="M 691 4666 
L 3169 4666 
L 3169 4134 
L 1269 4134 
L 1269 2991 
Q 1406 3038 1543 3061 
Q 1681 3084 1819 3084 
Q 2600 3084 3056 2656 
Q 3513 2228 3513 1497 
Q 3513 744 3044 326 
Q 2575 -91 1722 -91 
Q 1428 -91 1123 -41 
Q 819 9 494 109 
L 494 744 
Q 775 591 1075 516 
Q 1375 441 1709 441 
Q 2250 441 2565 725 
Q 2881 1009 2881 1497 
Q 2881 1984 2565 2268 
Q 2250 2553 1709 2553 
Q 1456 2553 1204 2497 
Q 953 2441 691 2322 
L 691 4666 
z
" transform="scale(0.015625)"/>
       </defs>
       <use xlink:href="#DejaVuSans-32"/>
       <use xlink:href="#DejaVuSans-35" transform="translate(63.623047 0)"/>
      </g>
     </g>
    </g>
    <g id="ytick_3">
     <g id="line2d_4">
      <g>
       <use xlink:href="#m557fadfb69" x="72" y="305.626403" style="stroke: #000000; stroke-width: 0.8"/>
      </g>
     </g>
     <g id="text_4">
      <!-- 50 -->
      <g transform="translate(52.275 309.425622) scale(0.1 -0.1)">
       <use xlink:href="#DejaVuSans-35"/>
       <use xlink:href="#DejaVuSans-30" transform="translate(63.623047 0)"/>
      </g>
     </g>
    </g>
    <g id="ytick_4">
     <g id="line2d_5">
      <g>
       <use xlink:href="#m557fadfb69" x="72" y="266.199605" style="stroke: #000000; stroke-width: 0.8"/>
      </g>
     </g>
     <g id="text_5">
      <!-- 75 -->
      <g transform="translate(52.275 269.998824) scale(0.1 -0.1)">
       <defs>
        <path id="DejaVuSans-37" d="M 525 4666 
L 3525 4666 
L 3525 4397 
L 1831 0 
L 1172 0 
L 2766 4134 
L 525 4134 
L 525 4666 
z
" transform="scale(0.015625)"/>
       </defs>
       <use xlink:href="#DejaVuSans-37"/>
       <use xlink:href="#DejaVuSans-35" transform="translate(63.623047 0)"/>
      </g>
     </g>
    </g>
    <g id="ytick_5">
     <g id="line2d_6">
      <g>
       <use xlink:href="#m557fadfb69" x="72" y="226.772807" style="stroke: #000000; stroke-width: 0.8"/>
      </g>
     </g>
     <g id="text_6">
      <!-- 100 -->
      <g transform="translate(45.9125 230.572025) scale(0.1 -0.1)">
       <use xlink:href="#DejaVuSans-31"/>
       <use xlink:href="#DejaVuSans-30" transform="translate(63.623047 0)"/>
       <use xlink:href="#DejaVuSans-30" transform="translate(127.246094 0)"/>
      </g>
     </g>
    </g>
    <g id="ytick_6">
     <g id="line2d_7">
      <g>
       <use xlink:href="#m557fadfb69" x="72" y="187.346008" style="stroke: #000000; stroke-width: 0.8"/>
      </g>
     </g>
     <g id="text_7">
      <!-- 125 -->
      <g transform="translate(45.9125 191.145227) scale(0.1 -0.1)">
       <use xlink:href="#DejaVuSans-31"/>
       <use xlink:href="#DejaVuSans-32" transform="translate(63.623047 0)"/>
       <use xlink:href="#DejaVuSans-35" transform="translate(127.246094 0)"/>
      </g>
     </g>
    </g>
    <g id="ytick_7">
     <g id="line2d_8">
      <g>
       <use xlink:href="#m557fadfb69" x="72" y="147.91921" style="stroke: #000000; stroke-width: 0.8"/>
      </g>
     </g>
     <g id="text_8">
      <!-- 150 -->
      <g transform="translate(45.9125 151.718429) scale(0.1 -0.1)">
       <use xlink:href="#DejaVuSans-31"/>
       <use xlink:href="#DejaVuSans-35" transform="translate(63.623047 0)"/>
       <use xlink:href="#DejaVuSans-30" transform="translate(127.246094 0)"/>
      </g>
     </g>
    </g>
    <g id="ytick_8">
     <g id="line2d_9">
      <g>
       <use xlink:href="#m557fadfb69" x="72" y="108.492412" style="stroke: #000000; stroke-width: 0.8"/>
      </g>
     </g>
     <g id="text_9">
      <!-- 175 -->
      <g transform="translate(45.9125 112.29163) scale(0.1 -0.1)">
       <use xlink:href="#DejaVuSans-31"/>
       <use xlink:href="#DejaVuSans-37" transform="translate(63.623047 0)"/>
       <use xlink:href="#DejaVuSans-35" transform="translate(127.246094 0)"/>
      </g>
     </g>
    </g>
    <g id="ytick_9">
     <g id="line2d_10">
      <g>
       <use xlink:href="#m557fadfb69" x="72" y="69.065613" style="stroke: #000000; stroke-width: 0.8"/>
      </g>
     </g>
     <g id="text_10">
      <!-- 200 -->
      <g transform="translate(45.9125 72.864832) scale(0.1 -0.1)">
       <use xlink:href="#DejaVuSans-32"/>
       <use xlink:href="#DejaVuSans-30" transform="translate(63.623047 0)"/>
       <use xlink:href="#DejaVuSans-30" transform="translate(127.246094 0)"/>
      </g>
     </g>
    </g>
    <g id="text_11">
     <!-- Time (ms) -->
     <g transform="translate(39.832812 243.359219) rotate(-90) scale(0.1 -0.1)">
      <defs>
       <path id="DejaVuSans-54" d="M -19 4666 
L 3928 4666 
L 3928 4134 
L 2272 4134 
L 2272 0 
L 1638 0 
L 1638 4134 
L -19 4134 
L -19 4666 
z
" transform="scale(0.015625)"/>
       <path id="DejaVuSans-69" d="M 603 3500 
L 1178 3500 
L 1178 0 
L 603 0 
L 603 3500 
z
M 603 4863 
L 1178 4863 
L 1178 4134 
L 603 4134 
L 603 4863 
z
" transform="scale(0.015625)"/>
       <path id="DejaVuSans-6d" d="M 3328 2828 
Q 3544 3216 3844 3400 
Q 4144 3584 4550 3584 
Q 5097 3584 5394 3201 
Q 5691 2819 5691 2113 
L 5691 0 
L 5113 0 
L 5113 2094 
Q 5113 2597 4934 2840 
Q 4756 3084 4391 3084 
Q 3944 3084 3684 2787 
Q 3425 2491 3425 1978 
L 3425 0 
L 2847 0 
L 2847 2094 
Q 2847 2600 2669 2842 
Q 2491 3084 2119 3084 
Q 1678 3084 1418 2786 
Q 1159 2488 1159 1978 
L 1159 0 
L 581 0 
L 581 3500 
L 1159 3500 
L 1159 2956 
Q 1356 3278 1631 3431 
Q 1906 3584 2284 3584 
Q 2666 3584 2933 3390 
Q 3200 3197 3328 2828 
z
" transform="scale(0.015625)"/>
       <path id="DejaVuSans-65" d="M 3597 1894 
L 3597 1613 
L 953 1613 
Q 991 1019 1311 708 
Q 1631 397 2203 397 
Q 2534 397 2845 478 
Q 3156 559 3463 722 
L 3463 178 
Q 3153 47 2828 -22 
Q 2503 -91 2169 -91 
Q 1331 -91 842 396 
Q 353 884 353 1716 
Q 353 2575 817 3079 
Q 1281 3584 2069 3584 
Q 2775 3584 3186 3129 
Q 3597 2675 3597 1894 
z
M 3022 2063 
Q 3016 2534 2758 2815 
Q 2500 3097 2075 3097 
Q 1594 3097 1305 2825 
Q 1016 2553 972 2059 
L 3022 2063 
z
" transform="scale(0.015625)"/>
       <path id="DejaVuSans-20" transform="scale(0.015625)"/>
       <path id="DejaVuSans-28" d="M 1984 4856 
Q 1566 4138 1362 3434 
Q 1159 2731 1159 2009 
Q 1159 1288 1364 580 
Q 1569 -128 1984 -844 
L 1484 -844 
Q 1016 -109 783 600 
Q 550 1309 550 2009 
Q 550 2706 781 3412 
Q 1013 4119 1484 4856 
L 1984 4856 
z
" transform="scale(0.015625)"/>
       <path id="DejaVuSans-73" d="M 2834 3397 
L 2834 2853 
Q 2591 2978 2328 3040 
Q 2066 3103 1784 3103 
Q 1356 3103 1142 2972 
Q 928 2841 928 2578 
Q 928 2378 1081 2264 
Q 1234 2150 1697 2047 
L 1894 2003 
Q 2506 1872 2764 1633 
Q 3022 1394 3022 966 
Q 3022 478 2636 193 
Q 2250 -91 1575 -91 
Q 1294 -91 989 -36 
Q 684 19 347 128 
L 347 722 
Q 666 556 975 473 
Q 1284 391 1588 391 
Q 1994 391 2212 530 
Q 2431 669 2431 922 
Q 2431 1156 2273 1281 
Q 2116 1406 1581 1522 
L 1381 1569 
Q 847 1681 609 1914 
Q 372 2147 372 2553 
Q 372 3047 722 3315 
Q 1072 3584 1716 3584 
Q 2034 3584 2315 3537 
Q 2597 3491 2834 3397 
z
" transform="scale(0.015625)"/>
       <path id="DejaVuSans-29" d="M 513 4856 
L 1013 4856 
Q 1481 4119 1714 3412 
Q 1947 2706 1947 2009 
Q 1947 1309 1714 600 
Q 1481 -109 1013 -844 
L 513 -844 
Q 928 -128 1133 580 
Q 1338 1288 1338 2009 
Q 1338 2731 1133 3434 
Q 928 4138 513 4856 
z
" transform="scale(0.015625)"/>
      </defs>
      <use xlink:href="#DejaVuSans-54"/>
      <use xlink:href="#DejaVuSans-69" transform="translate(57.958984 0)"/>
      <use xlink:href="#DejaVuSans-6d" transform="translate(85.742188 0)"/>
      <use xlink:href="#DejaVuSans-65" transform="translate(183.154297 0)"/>
      <use xlink:href="#DejaVuSans-20" transform="translate(244.677734 0)"/>
      <use xlink:href="#DejaVuSans-28" transform="translate(276.464844 0)"/>
      <use xlink:href="#DejaVuSans-6d" transform="translate(315.478516 0)"/>
      <use xlink:href="#DejaVuSans-73" transform="translate(412.890625 0)"/>
      <use xlink:href="#DejaVuSans-29" transform="translate(464.990234 0)"/>
     </g>
    </g>
   </g>
   <g id="LineCollection_1">
    <path d="M 239.4 259.464007 
L 351 259.464007 
" clip-path="url(#pd07e7607d4)" style="fill: none; stroke: #1f77b4; stroke-width: 1.5"/>
   </g>
   <g id="LineCollection_2">
    <path d="M 239.4 66.576603 
L 351 66.576603 
" clip-path="url(#pd07e7607d4)" style="fill: none; stroke: #1f77b4; stroke-width: 1.5"/>
   </g>
   <g id="LineCollection_3">
    <path d="M 239.4 361.308658 
L 351 361.308658 
" clip-path="url(#pd07e7607d4)" style="fill: none; stroke: #1f77b4; stroke-width: 1.5"/>
   </g>
   <g id="LineCollection_4">
    <path d="M 295.2 361.308658 
L 295.2 66.576603 
" clip-path="url(#pd07e7607d4)" style="fill: none; stroke: #1f77b4; stroke-width: 1.5"/>
   </g>
   <g id="patch_3">
    <path d="M 250.56 276.683254 
L 339.84 276.683254 
L 339.84 238.52356 
L 250.56 238.52356 
L 250.56 276.683254 
z
" clip-path="url(#pd07e7607d4)" style="fill: #1f77b4; stroke: #000000; stroke-linejoin: miter"/>
   </g>
   <g id="line2d_11">
    <path d="M 295.2 276.683254 
L 295.2 331.648526 
" clip-path="url(#pd07e7607d4)" style="fill: none; stroke: #000000; stroke-linecap: square"/>
   </g>
   <g id="line2d_12">
    <path d="M 295.2 238.52356 
L 295.2 182.72175 
" clip-path="url(#pd07e7607d4)" style="fill: none; stroke: #000000; stroke-linecap: square"/>
   </g>
   <g id="line2d_13">
    <path d="M 272.88 331.648526 
L 317.52 331.648526 
" clip-path="url(#pd07e7607d4)" style="fill: none; stroke: #000000; stroke-linecap: square"/>
   </g>
   <g id="line2d_14">
    <path d="M 272.88 182.72175 
L 317.52 182.72175 
" clip-path="url(#pd07e7607d4)" style="fill: none; stroke: #000000; stroke-linecap: square"/>
   </g>
   <g id="line2d_15">
    <defs>
     <path id="mf2ec46dbce" d="M 0 3 
C 0.795609 3 1.55874 2.683901 2.12132 2.12132 
C 2.683901 1.55874 3 0.795609 3 0 
C 3 -0.795609 2.683901 -1.55874 2.12132 -2.12132 
C 1.55874 -2.683901 0.795609 -3 0 -3 
C -0.795609 -3 -1.55874 -2.683901 -2.12132 -2.12132 
C -2.683901 -1.55874 -3 -0.795609 -3 0 
C -3 0.795609 -2.683901 1.55874 -2.12132 2.12132 
C -1.55874 2.683901 -0.795609 3 0 3 
z
" style="stroke: #000000"/>
    </defs>
    <g clip-path="url(#pd07e7607d4)">
     <use xlink:href="#mf2ec46dbce" x="295.2" y="343.543548" style="fill-opacity: 0; stroke: #000000"/>
     <use xlink:href="#mf2ec46dbce" x="295.2" y="344.291683" style="fill-opacity: 0; stroke: #000000"/>
     <use xlink:href="#mf2ec46dbce" x="295.2" y="346.987518" style="fill-opacity: 0; stroke: #000000"/>
     <use xlink:href="#mf2ec46dbce" x="295.2" y="334.510708" style="fill-opacity: 0; stroke: #000000"/>
     <use xlink:href="#mf2ec46dbce" x="295.2" y="351.510543" style="fill-opacity: 0; stroke: #000000"/>
     <use xlink:href="#mf2ec46dbce" x="295.2" y="359.611981" style="fill-opacity: 0; stroke: #000000"/>
     <use xlink:href="#mf2ec46dbce" x="295.2" y="361.308658" style="fill-opacity: 0; stroke: #000000"/>
     <use xlink:href="#mf2ec46dbce" x="295.2" y="361.154859" style="fill-opacity: 0; stroke: #000000"/>
     <use xlink:href="#mf2ec46dbce" x="295.2" y="119.022583" style="fill-opacity: 0; stroke: #000000"/>
     <use xlink:href="#mf2ec46dbce" x="295.2" y="164.917779" style="fill-opacity: 0; stroke: #000000"/>
     <use xlink:href="#mf2ec46dbce" x="295.2" y="165.901718" style="fill-opacity: 0; stroke: #000000"/>
     <use xlink:href="#mf2ec46dbce" x="295.2" y="162.850623" style="fill-opacity: 0; stroke: #000000"/>
     <use xlink:href="#mf2ec46dbce" x="295.2" y="162.411118" style="fill-opacity: 0; stroke: #000000"/>
     <use xlink:href="#mf2ec46dbce" x="295.2" y="178.565343" style="fill-opacity: 0; stroke: #000000"/>
     <use xlink:href="#mf2ec46dbce" x="295.2" y="180.524313" style="fill-opacity: 0; stroke: #000000"/>
     <use xlink:href="#mf2ec46dbce" x="295.2" y="152.228278" style="fill-opacity: 0; stroke: #000000"/>
     <use xlink:href="#mf2ec46dbce" x="295.2" y="170.654262" style="fill-opacity: 0; stroke: #000000"/>
     <use xlink:href="#mf2ec46dbce" x="295.2" y="180.219083" style="fill-opacity: 0; stroke: #000000"/>
     <use xlink:href="#mf2ec46dbce" x="295.2" y="179.469927" style="fill-opacity: 0; stroke: #000000"/>
     <use xlink:href="#mf2ec46dbce" x="295.2" y="127.926981" style="fill-opacity: 0; stroke: #000000"/>
     <use xlink:href="#mf2ec46dbce" x="295.2" y="176.290651" style="fill-opacity: 0; stroke: #000000"/>
     <use xlink:href="#mf2ec46dbce" x="295.2" y="171.337771" style="fill-opacity: 0; stroke: #000000"/>
     <use xlink:href="#mf2ec46dbce" x="295.2" y="177.924358" style="fill-opacity: 0; stroke: #000000"/>
     <use xlink:href="#mf2ec46dbce" x="295.2" y="175.146297" style="fill-opacity: 0; stroke: #000000"/>
     <use xlink:href="#mf2ec46dbce" x="295.2" y="176.925931" style="fill-opacity: 0; stroke: #000000"/>
     <use xlink:href="#mf2ec46dbce" x="295.2" y="171.101967" style="fill-opacity: 0; stroke: #000000"/>
     <use xlink:href="#mf2ec46dbce" x="295.2" y="162.421401" style="fill-opacity: 0; stroke: #000000"/>
     <use xlink:href="#mf2ec46dbce" x="295.2" y="179.562591" style="fill-opacity: 0; stroke: #000000"/>
     <use xlink:href="#mf2ec46dbce" x="295.2" y="175.514853" style="fill-opacity: 0; stroke: #000000"/>
     <use xlink:href="#mf2ec46dbce" x="295.2" y="66.576603" style="fill-opacity: 0; stroke: #000000"/>
     <use xlink:href="#mf2ec46dbce" x="295.2" y="171.376961" style="fill-opacity: 0; stroke: #000000"/>
     <use xlink:href="#mf2ec46dbce" x="295.2" y="163.222242" style="fill-opacity: 0; stroke: #000000"/>
     <use xlink:href="#mf2ec46dbce" x="295.2" y="179.133318" style="fill-opacity: 0; stroke: #000000"/>
     <use xlink:href="#mf2ec46dbce" x="295.2" y="166.754909" style="fill-opacity: 0; stroke: #000000"/>
     <use xlink:href="#mf2ec46dbce" x="295.2" y="180.22421" style="fill-opacity: 0; stroke: #000000"/>
     <use xlink:href="#mf2ec46dbce" x="295.2" y="156.652367" style="fill-opacity: 0; stroke: #000000"/>
     <use xlink:href="#mf2ec46dbce" x="295.2" y="145.137883" style="fill-opacity: 0; stroke: #000000"/>
     <use xlink:href="#mf2ec46dbce" x="295.2" y="156.502235" style="fill-opacity: 0; stroke: #000000"/>
     <use xlink:href="#mf2ec46dbce" x="295.2" y="113.516439" style="fill-opacity: 0; stroke: #000000"/>
     <use xlink:href="#mf2ec46dbce" x="295.2" y="162.402547" style="fill-opacity: 0; stroke: #000000"/>
     <use xlink:href="#mf2ec46dbce" x="295.2" y="161.280832" style="fill-opacity: 0; stroke: #000000"/>
     <use xlink:href="#mf2ec46dbce" x="295.2" y="174.41425" style="fill-opacity: 0; stroke: #000000"/>
     <use xlink:href="#mf2ec46dbce" x="295.2" y="171.027615" style="fill-opacity: 0; stroke: #000000"/>
     <use xlink:href="#mf2ec46dbce" x="295.2" y="162.242157" style="fill-opacity: 0; stroke: #000000"/>
     <use xlink:href="#mf2ec46dbce" x="295.2" y="161.235553" style="fill-opacity: 0; stroke: #000000"/>
     <use xlink:href="#mf2ec46dbce" x="295.2" y="148.459733" style="fill-opacity: 0; stroke: #000000"/>
     <use xlink:href="#mf2ec46dbce" x="295.2" y="174.574525" style="fill-opacity: 0; stroke: #000000"/>
     <use xlink:href="#mf2ec46dbce" x="295.2" y="161.971506" style="fill-opacity: 0; stroke: #000000"/>
     <use xlink:href="#mf2ec46dbce" x="295.2" y="173.424483" style="fill-opacity: 0; stroke: #000000"/>
     <use xlink:href="#mf2ec46dbce" x="295.2" y="163.217685" style="fill-opacity: 0; stroke: #000000"/>
     <use xlink:href="#mf2ec46dbce" x="295.2" y="113.221382" style="fill-opacity: 0; stroke: #000000"/>
     <use xlink:href="#mf2ec46dbce" x="295.2" y="174.594885" style="fill-opacity: 0; stroke: #000000"/>
     <use xlink:href="#mf2ec46dbce" x="295.2" y="168.837812" style="fill-opacity: 0; stroke: #000000"/>
     <use xlink:href="#mf2ec46dbce" x="295.2" y="153.059061" style="fill-opacity: 0; stroke: #000000"/>
     <use xlink:href="#mf2ec46dbce" x="295.2" y="178.839822" style="fill-opacity: 0; stroke: #000000"/>
     <use xlink:href="#mf2ec46dbce" x="295.2" y="133.906424" style="fill-opacity: 0; stroke: #000000"/>
     <use xlink:href="#mf2ec46dbce" x="295.2" y="166.052301" style="fill-opacity: 0; stroke: #000000"/>
     <use xlink:href="#mf2ec46dbce" x="295.2" y="166.02905" style="fill-opacity: 0; stroke: #000000"/>
     <use xlink:href="#mf2ec46dbce" x="295.2" y="113.193769" style="fill-opacity: 0; stroke: #000000"/>
     <use xlink:href="#mf2ec46dbce" x="295.2" y="176.586082" style="fill-opacity: 0; stroke: #000000"/>
     <use xlink:href="#mf2ec46dbce" x="295.2" y="161.788082" style="fill-opacity: 0; stroke: #000000"/>
     <use xlink:href="#mf2ec46dbce" x="295.2" y="167.332939" style="fill-opacity: 0; stroke: #000000"/>
     <use xlink:href="#mf2ec46dbce" x="295.2" y="170.665894" style="fill-opacity: 0; stroke: #000000"/>
     <use xlink:href="#mf2ec46dbce" x="295.2" y="154.874146" style="fill-opacity: 0; stroke: #000000"/>
     <use xlink:href="#mf2ec46dbce" x="295.2" y="172.289564" style="fill-opacity: 0; stroke: #000000"/>
     <use xlink:href="#mf2ec46dbce" x="295.2" y="180.181306" style="fill-opacity: 0; stroke: #000000"/>
    </g>
   </g>
   <g id="line2d_16">
    <path d="M 250.56 257.207934 
L 339.84 257.207934 
" clip-path="url(#pd07e7607d4)" style="fill: none; stroke: #ff7f0e"/>
   </g>
   <g id="patch_4">
    <path d="M 72 384.48 
L 72 51.84 
" style="fill: none; stroke: #000000; stroke-width: 0.8; stroke-linejoin: miter; stroke-linecap: square"/>
   </g>
   <g id="patch_5">
    <path d="M 518.4 384.48 
L 518.4 51.84 
" style="fill: none; stroke: #000000; stroke-width: 0.8; stroke-linejoin: miter; stroke-linecap: square"/>
   </g>
   <g id="patch_6">
    <path d="M 72 384.48 
L 518.4 384.48 
" style="fill: none; stroke: #000000; stroke-width: 0.8; stroke-linejoin: miter; stroke-linecap: square"/>
   </g>
   <g id="patch_7">
    <path d="M 72 51.84 
L 518.4 51.84 
" style="fill: none; stroke: #000000; stroke-width: 0.8; stroke-linejoin: miter; stroke-linecap: square"/>
   </g>
   <g id="text_12">
    <!-- Test Method -->
    <g transform="translate(258.975 45.84) scale(0.12 -0.12)">
     <defs>
      <path id="DejaVuSans-74" d="M 1172 4494 
L 1172 3500 
L 2356 3500 
L 2356 3053 
L 1172 3053 
L 1172 1153 
Q 1172 725 1289 603 
Q 1406 481 1766 481 
L 2356 481 
L 2356 0 
L 1766 0 
Q 1100 0 847 248 
Q 594 497 594 1153 
L 594 3053 
L 172 3053 
L 172 3500 
L 594 3500 
L 594 4494 
L 1172 4494 
z
" transform="scale(0.015625)"/>
      <path id="DejaVuSans-4d" d="M 628 4666 
L 1569 4666 
L 2759 1491 
L 3956 4666 
L 4897 4666 
L 4897 0 
L 4281 0 
L 4281 4097 
L 3078 897 
L 2444 897 
L 1241 4097 
L 1241 0 
L 628 0 
L 628 4666 
z
" transform="scale(0.015625)"/>
      <path id="DejaVuSans-68" d="M 3513 2113 
L 3513 0 
L 2938 0 
L 2938 2094 
Q 2938 2591 2744 2837 
Q 2550 3084 2163 3084 
Q 1697 3084 1428 2787 
Q 1159 2491 1159 1978 
L 1159 0 
L 581 0 
L 581 4863 
L 1159 4863 
L 1159 2956 
Q 1366 3272 1645 3428 
Q 1925 3584 2291 3584 
Q 2894 3584 3203 3211 
Q 3513 2838 3513 2113 
z
" transform="scale(0.015625)"/>
      <path id="DejaVuSans-6f" d="M 1959 3097 
Q 1497 3097 1228 2736 
Q 959 2375 959 1747 
Q 959 1119 1226 758 
Q 1494 397 1959 397 
Q 2419 397 2687 759 
Q 2956 1122 2956 1747 
Q 2956 2369 2687 2733 
Q 2419 3097 1959 3097 
z
M 1959 3584 
Q 2709 3584 3137 3096 
Q 3566 2609 3566 1747 
Q 3566 888 3137 398 
Q 2709 -91 1959 -91 
Q 1206 -91 779 398 
Q 353 888 353 1747 
Q 353 2609 779 3096 
Q 1206 3584 1959 3584 
z
" transform="scale(0.015625)"/>
      <path id="DejaVuSans-64" d="M 2906 2969 
L 2906 4863 
L 3481 4863 
L 3481 0 
L 2906 0 
L 2906 525 
Q 2725 213 2448 61 
Q 2172 -91 1784 -91 
Q 1150 -91 751 415 
Q 353 922 353 1747 
Q 353 2572 751 3078 
Q 1150 3584 1784 3584 
Q 2172 3584 2448 3432 
Q 2725 3281 2906 2969 
z
M 947 1747 
Q 947 1113 1208 752 
Q 1469 391 1925 391 
Q 2381 391 2643 752 
Q 2906 1113 2906 1747 
Q 2906 2381 2643 2742 
Q 2381 3103 1925 3103 
Q 1469 3103 1208 2742 
Q 947 2381 947 1747 
z
" transform="scale(0.015625)"/>
     </defs>
     <use xlink:href="#DejaVuSans-54"/>
     <use xlink:href="#DejaVuSans-65" transform="translate(44.083984 0)"/>
     <use xlink:href="#DejaVuSans-73" transform="translate(105.607422 0)"/>
     <use xlink:href="#DejaVuSans-74" transform="translate(157.707031 0)"/>
     <use xlink:href="#DejaVuSans-20" transform="translate(196.916016 0)"/>
     <use xlink:href="#DejaVuSans-4d" transform="translate(228.703125 0)"/>
     <use xlink:href="#DejaVuSans-65" transform="translate(314.982422 0)"/>
     <use xlink:href="#DejaVuSans-74" transform="translate(376.505859 0)"/>
     <use xlink:href="#DejaVuSans-68" transform="translate(415.714844 0)"/>
     <use xlink:href="#DejaVuSans-6f" transform="translate(479.09375 0)"/>
     <use xlink:href="#DejaVuSans-64" transform="translate(540.275391 0)"/>
    </g>
   </g>
  </g>
 </g>
 <defs>
  <clipPath id="pd07e7607d4">
   <rect x="72" y="51.84" width="446.4" height="332.64"/>
  </clipPath>
 </defs>
</svg>
