<?xml version="1.0" encoding="utf-8" standalone="no"?>
<!DOCTYPE svg PUBLIC "-//W3C//DTD SVG 1.1//EN"
  "http://www.w3.org/Graphics/SVG/1.1/DTD/svg11.dtd">
<svg xmlns:xlink="http://www.w3.org/1999/xlink" width="720pt" height="432pt" viewBox="0 0 720 432" xmlns="http://www.w3.org/2000/svg" version="1.1">
 <metadata>
  <rdf:RDF xmlns:dc="http://purl.org/dc/elements/1.1/" xmlns:cc="http://creativecommons.org/ns#" xmlns:rdf="http://www.w3.org/1999/02/22-rdf-syntax-ns#">
   <cc:Work>
    <dc:type rdf:resource="http://purl.org/dc/dcmitype/StillImage"/>
    <dc:date>2025-06-10T03:16:13.084250</dc:date>
    <dc:format>image/svg+xml</dc:format>
    <dc:creator>
     <cc:Agent>
      <dc:title>Matplotlib v3.10.3, https://matplotlib.org/</dc:title>
     </cc:Agent>
    </dc:creator>
   </cc:Work>
  </rdf:RDF>
 </metadata>
 <defs>
  <style type="text/css">*{stroke-linejoin: round; stroke-linecap: butt}</style>
 </defs>
 <g id="figure_1">
  <g id="patch_1">
   <path d="M 0 432 
L 720 432 
L 720 0 
L 0 0 
z
" style="fill: #ffffff"/>
  </g>
  <g id="axes_1">
   <g id="patch_2">
    <path d="M 90 384.48 
L 648 384.48 
L 648 51.84 
L 90 51.84 
z
" style="fill: #ffffff"/>
   </g>
   <g id="matplotlib.axis_1">
    <g id="xtick_1">
     <g id="line2d_1">
      <defs>
       <path id="m585260ea05" d="M 0 0 
L 0 3.5 
" style="stroke: #000000; stroke-width: 0.8"/>
      </defs>
      <g>
       <use xlink:href="#m585260ea05" x="115.363636" y="384.48" style="stroke: #000000; stroke-width: 0.8"/>
      </g>
     </g>
     <g id="text_1">
      <!-- 0 -->
      <g transform="translate(112.182386 399.078438) scale(0.1 -0.1)">
       <defs>
        <path id="DejaVuSans-30" d="M 2034 4250 
Q 1547 4250 1301 3770 
Q 1056 3291 1056 2328 
Q 1056 1369 1301 889 
Q 1547 409 2034 409 
Q 2525 409 2770 889 
Q 3016 1369 3016 2328 
Q 3016 3291 2770 3770 
Q 2525 4250 2034 4250 
z
M 2034 4750 
Q 2819 4750 3233 4129 
Q 3647 3509 3647 2328 
Q 3647 1150 3233 529 
Q 2819 -91 2034 -91 
Q 1250 -91 836 529 
Q 422 1150 422 2328 
Q 422 3509 836 4129 
Q 1250 4750 2034 4750 
z
" transform="scale(0.015625)"/>
       </defs>
       <use xlink:href="#DejaVuSans-30"/>
      </g>
     </g>
    </g>
    <g id="xtick_2">
     <g id="line2d_2">
      <g>
       <use xlink:href="#m585260ea05" x="219.185316" y="384.48" style="stroke: #000000; stroke-width: 0.8"/>
      </g>
     </g>
     <g id="text_2">
      <!-- 500 -->
      <g transform="translate(209.641566 399.078438) scale(0.1 -0.1)">
       <defs>
        <path id="DejaVuSans-35" d="M 691 4666 
L 3169 4666 
L 3169 4134 
L 1269 4134 
L 1269 2991 
Q 1406 3038 1543 3061 
Q 1681 3084 1819 3084 
Q 2600 3084 3056 2656 
Q 3513 2228 3513 1497 
Q 3513 744 3044 326 
Q 2575 -91 1722 -91 
Q 1428 -91 1123 -41 
Q 819 9 494 109 
L 494 744 
Q 775 591 1075 516 
Q 1375 441 1709 441 
Q 2250 441 2565 725 
Q 2881 1009 2881 1497 
Q 2881 1984 2565 2268 
Q 2250 2553 1709 2553 
Q 1456 2553 1204 2497 
Q 953 2441 691 2322 
L 691 4666 
z
" transform="scale(0.015625)"/>
       </defs>
       <use xlink:href="#DejaVuSans-35"/>
       <use xlink:href="#DejaVuSans-30" transform="translate(63.623047 0)"/>
       <use xlink:href="#DejaVuSans-30" transform="translate(127.246094 0)"/>
      </g>
     </g>
    </g>
    <g id="xtick_3">
     <g id="line2d_3">
      <g>
       <use xlink:href="#m585260ea05" x="323.006996" y="384.48" style="stroke: #000000; stroke-width: 0.8"/>
      </g>
     </g>
     <g id="text_3">
      <!-- 1000 -->
      <g transform="translate(310.281996 399.078438) scale(0.1 -0.1)">
       <defs>
        <path id="DejaVuSans-31" d="M 794 531 
L 1825 531 
L 1825 4091 
L 703 3866 
L 703 4441 
L 1819 4666 
L 2450 4666 
L 2450 531 
L 3481 531 
L 3481 0 
L 794 0 
L 794 531 
z
" transform="scale(0.015625)"/>
       </defs>
       <use xlink:href="#DejaVuSans-31"/>
       <use xlink:href="#DejaVuSans-30" transform="translate(63.623047 0)"/>
       <use xlink:href="#DejaVuSans-30" transform="translate(127.246094 0)"/>
       <use xlink:href="#DejaVuSans-30" transform="translate(190.869141 0)"/>
      </g>
     </g>
    </g>
    <g id="xtick_4">
     <g id="line2d_4">
      <g>
       <use xlink:href="#m585260ea05" x="426.828676" y="384.48" style="stroke: #000000; stroke-width: 0.8"/>
      </g>
     </g>
     <g id="text_4">
      <!-- 1500 -->
      <g transform="translate(414.103676 399.078438) scale(0.1 -0.1)">
       <use xlink:href="#DejaVuSans-31"/>
       <use xlink:href="#DejaVuSans-35" transform="translate(63.623047 0)"/>
       <use xlink:href="#DejaVuSans-30" transform="translate(127.246094 0)"/>
       <use xlink:href="#DejaVuSans-30" transform="translate(190.869141 0)"/>
      </g>
     </g>
    </g>
    <g id="xtick_5">
     <g id="line2d_5">
      <g>
       <use xlink:href="#m585260ea05" x="530.650355" y="384.48" style="stroke: #000000; stroke-width: 0.8"/>
      </g>
     </g>
     <g id="text_5">
      <!-- 2000 -->
      <g transform="translate(517.925355 399.078438) scale(0.1 -0.1)">
       <defs>
        <path id="DejaVuSans-32" d="M 1228 531 
L 3431 531 
L 3431 0 
L 469 0 
L 469 531 
Q 828 903 1448 1529 
Q 2069 2156 2228 2338 
Q 2531 2678 2651 2914 
Q 2772 3150 2772 3378 
Q 2772 3750 2511 3984 
Q 2250 4219 1831 4219 
Q 1534 4219 1204 4116 
Q 875 4013 500 3803 
L 500 4441 
Q 881 4594 1212 4672 
Q 1544 4750 1819 4750 
Q 2544 4750 2975 4387 
Q 3406 4025 3406 3419 
Q 3406 3131 3298 2873 
Q 3191 2616 2906 2266 
Q 2828 2175 2409 1742 
Q 1991 1309 1228 531 
z
" transform="scale(0.015625)"/>
       </defs>
       <use xlink:href="#DejaVuSans-32"/>
       <use xlink:href="#DejaVuSans-30" transform="translate(63.623047 0)"/>
       <use xlink:href="#DejaVuSans-30" transform="translate(127.246094 0)"/>
       <use xlink:href="#DejaVuSans-30" transform="translate(190.869141 0)"/>
      </g>
     </g>
    </g>
    <g id="xtick_6">
     <g id="line2d_6">
      <g>
       <use xlink:href="#m585260ea05" x="634.472035" y="384.48" style="stroke: #000000; stroke-width: 0.8"/>
      </g>
     </g>
     <g id="text_6">
      <!-- 2500 -->
      <g transform="translate(621.747035 399.078438) scale(0.1 -0.1)">
       <use xlink:href="#DejaVuSans-32"/>
       <use xlink:href="#DejaVuSans-35" transform="translate(63.623047 0)"/>
       <use xlink:href="#DejaVuSans-30" transform="translate(127.246094 0)"/>
       <use xlink:href="#DejaVuSans-30" transform="translate(190.869141 0)"/>
      </g>
     </g>
    </g>
    <g id="text_7">
     <!-- Index -->
     <g transform="translate(355.233594 412.756563) scale(0.1 -0.1)">
      <defs>
       <path id="DejaVuSans-49" d="M 628 4666 
L 1259 4666 
L 1259 0 
L 628 0 
L 628 4666 
z
" transform="scale(0.015625)"/>
       <path id="DejaVuSans-6e" d="M 3513 2113 
L 3513 0 
L 2938 0 
L 2938 2094 
Q 2938 2591 2744 2837 
Q 2550 3084 2163 3084 
Q 1697 3084 1428 2787 
Q 1159 2491 1159 1978 
L 1159 0 
L 581 0 
L 581 3500 
L 1159 3500 
L 1159 2956 
Q 1366 3272 1645 3428 
Q 1925 3584 2291 3584 
Q 2894 3584 3203 3211 
Q 3513 2838 3513 2113 
z
" transform="scale(0.015625)"/>
       <path id="DejaVuSans-64" d="M 2906 2969 
L 2906 4863 
L 3481 4863 
L 3481 0 
L 2906 0 
L 2906 525 
Q 2725 213 2448 61 
Q 2172 -91 1784 -91 
Q 1150 -91 751 415 
Q 353 922 353 1747 
Q 353 2572 751 3078 
Q 1150 3584 1784 3584 
Q 2172 3584 2448 3432 
Q 2725 3281 2906 2969 
z
M 947 1747 
Q 947 1113 1208 752 
Q 1469 391 1925 391 
Q 2381 391 2643 752 
Q 2906 1113 2906 1747 
Q 2906 2381 2643 2742 
Q 2381 3103 1925 3103 
Q 1469 3103 1208 2742 
Q 947 2381 947 1747 
z
" transform="scale(0.015625)"/>
       <path id="DejaVuSans-65" d="M 3597 1894 
L 3597 1613 
L 953 1613 
Q 991 1019 1311 708 
Q 1631 397 2203 397 
Q 2534 397 2845 478 
Q 3156 559 3463 722 
L 3463 178 
Q 3153 47 2828 -22 
Q 2503 -91 2169 -91 
Q 1331 -91 842 396 
Q 353 884 353 1716 
Q 353 2575 817 3079 
Q 1281 3584 2069 3584 
Q 2775 3584 3186 3129 
Q 3597 2675 3597 1894 
z
M 3022 2063 
Q 3016 2534 2758 2815 
Q 2500 3097 2075 3097 
Q 1594 3097 1305 2825 
Q 1016 2553 972 2059 
L 3022 2063 
z
" transform="scale(0.015625)"/>
       <path id="DejaVuSans-78" d="M 3513 3500 
L 2247 1797 
L 3578 0 
L 2900 0 
L 1881 1375 
L 863 0 
L 184 0 
L 1544 1831 
L 300 3500 
L 978 3500 
L 1906 2253 
L 2834 3500 
L 3513 3500 
z
" transform="scale(0.015625)"/>
      </defs>
      <use xlink:href="#DejaVuSans-49"/>
      <use xlink:href="#DejaVuSans-6e" transform="translate(29.492188 0)"/>
      <use xlink:href="#DejaVuSans-64" transform="translate(92.871094 0)"/>
      <use xlink:href="#DejaVuSans-65" transform="translate(156.347656 0)"/>
      <use xlink:href="#DejaVuSans-78" transform="translate(216.121094 0)"/>
     </g>
    </g>
   </g>
   <g id="matplotlib.axis_2">
    <g id="ytick_1">
     <g id="line2d_7">
      <defs>
       <path id="md63db99de8" d="M 0 0 
L -3.5 0 
" style="stroke: #000000; stroke-width: 0.8"/>
      </defs>
      <g>
       <use xlink:href="#md63db99de8" x="90" y="384.48" style="stroke: #000000; stroke-width: 0.8"/>
      </g>
     </g>
     <g id="text_8">
      <!-- 0 -->
      <g transform="translate(76.6375 388.279219) scale(0.1 -0.1)">
       <use xlink:href="#DejaVuSans-30"/>
      </g>
     </g>
    </g>
    <g id="ytick_2">
     <g id="line2d_8">
      <g>
       <use xlink:href="#md63db99de8" x="90" y="326.817763" style="stroke: #000000; stroke-width: 0.8"/>
      </g>
     </g>
     <g id="text_9">
      <!-- 5 -->
      <g transform="translate(76.6375 330.616982) scale(0.1 -0.1)">
       <use xlink:href="#DejaVuSans-35"/>
      </g>
     </g>
    </g>
    <g id="ytick_3">
     <g id="line2d_9">
      <g>
       <use xlink:href="#md63db99de8" x="90" y="269.155527" style="stroke: #000000; stroke-width: 0.8"/>
      </g>
     </g>
     <g id="text_10">
      <!-- 10 -->
      <g transform="translate(70.275 272.954745) scale(0.1 -0.1)">
       <use xlink:href="#DejaVuSans-31"/>
       <use xlink:href="#DejaVuSans-30" transform="translate(63.623047 0)"/>
      </g>
     </g>
    </g>
    <g id="ytick_4">
     <g id="line2d_10">
      <g>
       <use xlink:href="#md63db99de8" x="90" y="211.49329" style="stroke: #000000; stroke-width: 0.8"/>
      </g>
     </g>
     <g id="text_11">
      <!-- 15 -->
      <g transform="translate(70.275 215.292509) scale(0.1 -0.1)">
       <use xlink:href="#DejaVuSans-31"/>
       <use xlink:href="#DejaVuSans-35" transform="translate(63.623047 0)"/>
      </g>
     </g>
    </g>
    <g id="ytick_5">
     <g id="line2d_11">
      <g>
       <use xlink:href="#md63db99de8" x="90" y="153.831053" style="stroke: #000000; stroke-width: 0.8"/>
      </g>
     </g>
     <g id="text_12">
      <!-- 20 -->
      <g transform="translate(70.275 157.630272) scale(0.1 -0.1)">
       <use xlink:href="#DejaVuSans-32"/>
       <use xlink:href="#DejaVuSans-30" transform="translate(63.623047 0)"/>
      </g>
     </g>
    </g>
    <g id="ytick_6">
     <g id="line2d_12">
      <g>
       <use xlink:href="#md63db99de8" x="90" y="96.168816" style="stroke: #000000; stroke-width: 0.8"/>
      </g>
     </g>
     <g id="text_13">
      <!-- 25 -->
      <g transform="translate(70.275 99.968035) scale(0.1 -0.1)">
       <use xlink:href="#DejaVuSans-32"/>
       <use xlink:href="#DejaVuSans-35" transform="translate(63.623047 0)"/>
      </g>
     </g>
    </g>
    <g id="text_14">
     <!-- Average time (ms) -->
     <g transform="translate(64.195312 264.543594) rotate(-90) scale(0.1 -0.1)">
      <defs>
       <path id="DejaVuSans-41" d="M 2188 4044 
L 1331 1722 
L 3047 1722 
L 2188 4044 
z
M 1831 4666 
L 2547 4666 
L 4325 0 
L 3669 0 
L 3244 1197 
L 1141 1197 
L 716 0 
L 50 0 
L 1831 4666 
z
" transform="scale(0.015625)"/>
       <path id="DejaVuSans-76" d="M 191 3500 
L 800 3500 
L 1894 563 
L 2988 3500 
L 3597 3500 
L 2284 0 
L 1503 0 
L 191 3500 
z
" transform="scale(0.015625)"/>
       <path id="DejaVuSans-72" d="M 2631 2963 
Q 2534 3019 2420 3045 
Q 2306 3072 2169 3072 
Q 1681 3072 1420 2755 
Q 1159 2438 1159 1844 
L 1159 0 
L 581 0 
L 581 3500 
L 1159 3500 
L 1159 2956 
Q 1341 3275 1631 3429 
Q 1922 3584 2338 3584 
Q 2397 3584 2469 3576 
Q 2541 3569 2628 3553 
L 2631 2963 
z
" transform="scale(0.015625)"/>
       <path id="DejaVuSans-61" d="M 2194 1759 
Q 1497 1759 1228 1600 
Q 959 1441 959 1056 
Q 959 750 1161 570 
Q 1363 391 1709 391 
Q 2188 391 2477 730 
Q 2766 1069 2766 1631 
L 2766 1759 
L 2194 1759 
z
M 3341 1997 
L 3341 0 
L 2766 0 
L 2766 531 
Q 2569 213 2275 61 
Q 1981 -91 1556 -91 
Q 1019 -91 701 211 
Q 384 513 384 1019 
Q 384 1609 779 1909 
Q 1175 2209 1959 2209 
L 2766 2209 
L 2766 2266 
Q 2766 2663 2505 2880 
Q 2244 3097 1772 3097 
Q 1472 3097 1187 3025 
Q 903 2953 641 2809 
L 641 3341 
Q 956 3463 1253 3523 
Q 1550 3584 1831 3584 
Q 2591 3584 2966 3190 
Q 3341 2797 3341 1997 
z
" transform="scale(0.015625)"/>
       <path id="DejaVuSans-67" d="M 2906 1791 
Q 2906 2416 2648 2759 
Q 2391 3103 1925 3103 
Q 1463 3103 1205 2759 
Q 947 2416 947 1791 
Q 947 1169 1205 825 
Q 1463 481 1925 481 
Q 2391 481 2648 825 
Q 2906 1169 2906 1791 
z
M 3481 434 
Q 3481 -459 3084 -895 
Q 2688 -1331 1869 -1331 
Q 1566 -1331 1297 -1286 
Q 1028 -1241 775 -1147 
L 775 -588 
Q 1028 -725 1275 -790 
Q 1522 -856 1778 -856 
Q 2344 -856 2625 -561 
Q 2906 -266 2906 331 
L 2906 616 
Q 2728 306 2450 153 
Q 2172 0 1784 0 
Q 1141 0 747 490 
Q 353 981 353 1791 
Q 353 2603 747 3093 
Q 1141 3584 1784 3584 
Q 2172 3584 2450 3431 
Q 2728 3278 2906 2969 
L 2906 3500 
L 3481 3500 
L 3481 434 
z
" transform="scale(0.015625)"/>
       <path id="DejaVuSans-20" transform="scale(0.015625)"/>
       <path id="DejaVuSans-74" d="M 1172 4494 
L 1172 3500 
L 2356 3500 
L 2356 3053 
L 1172 3053 
L 1172 1153 
Q 1172 725 1289 603 
Q 1406 481 1766 481 
L 2356 481 
L 2356 0 
L 1766 0 
Q 1100 0 847 248 
Q 594 497 594 1153 
L 594 3053 
L 172 3053 
L 172 3500 
L 594 3500 
L 594 4494 
L 1172 4494 
z
" transform="scale(0.015625)"/>
       <path id="DejaVuSans-69" d="M 603 3500 
L 1178 3500 
L 1178 0 
L 603 0 
L 603 3500 
z
M 603 4863 
L 1178 4863 
L 1178 4134 
L 603 4134 
L 603 4863 
z
" transform="scale(0.015625)"/>
       <path id="DejaVuSans-6d" d="M 3328 2828 
Q 3544 3216 3844 3400 
Q 4144 3584 4550 3584 
Q 5097 3584 5394 3201 
Q 5691 2819 5691 2113 
L 5691 0 
L 5113 0 
L 5113 2094 
Q 5113 2597 4934 2840 
Q 4756 3084 4391 3084 
Q 3944 3084 3684 2787 
Q 3425 2491 3425 1978 
L 3425 0 
L 2847 0 
L 2847 2094 
Q 2847 2600 2669 2842 
Q 2491 3084 2119 3084 
Q 1678 3084 1418 2786 
Q 1159 2488 1159 1978 
L 1159 0 
L 581 0 
L 581 3500 
L 1159 3500 
L 1159 2956 
Q 1356 3278 1631 3431 
Q 1906 3584 2284 3584 
Q 2666 3584 2933 3390 
Q 3200 3197 3328 2828 
z
" transform="scale(0.015625)"/>
       <path id="DejaVuSans-28" d="M 1984 4856 
Q 1566 4138 1362 3434 
Q 1159 2731 1159 2009 
Q 1159 1288 1364 580 
Q 1569 -128 1984 -844 
L 1484 -844 
Q 1016 -109 783 600 
Q 550 1309 550 2009 
Q 550 2706 781 3412 
Q 1013 4119 1484 4856 
L 1984 4856 
z
" transform="scale(0.015625)"/>
       <path id="DejaVuSans-73" d="M 2834 3397 
L 2834 2853 
Q 2591 2978 2328 3040 
Q 2066 3103 1784 3103 
Q 1356 3103 1142 2972 
Q 928 2841 928 2578 
Q 928 2378 1081 2264 
Q 1234 2150 1697 2047 
L 1894 2003 
Q 2506 1872 2764 1633 
Q 3022 1394 3022 966 
Q 3022 478 2636 193 
Q 2250 -91 1575 -91 
Q 1294 -91 989 -36 
Q 684 19 347 128 
L 347 722 
Q 666 556 975 473 
Q 1284 391 1588 391 
Q 1994 391 2212 530 
Q 2431 669 2431 922 
Q 2431 1156 2273 1281 
Q 2116 1406 1581 1522 
L 1381 1569 
Q 847 1681 609 1914 
Q 372 2147 372 2553 
Q 372 3047 722 3315 
Q 1072 3584 1716 3584 
Q 2034 3584 2315 3537 
Q 2597 3491 2834 3397 
z
" transform="scale(0.015625)"/>
       <path id="DejaVuSans-29" d="M 513 4856 
L 1013 4856 
Q 1481 4119 1714 3412 
Q 1947 2706 1947 2009 
Q 1947 1309 1714 600 
Q 1481 -109 1013 -844 
L 513 -844 
Q 928 -128 1133 580 
Q 1338 1288 1338 2009 
Q 1338 2731 1133 3434 
Q 928 4138 513 4856 
z
" transform="scale(0.015625)"/>
      </defs>
      <use xlink:href="#DejaVuSans-41"/>
      <use xlink:href="#DejaVuSans-76" transform="translate(62.533203 0)"/>
      <use xlink:href="#DejaVuSans-65" transform="translate(121.712891 0)"/>
      <use xlink:href="#DejaVuSans-72" transform="translate(183.236328 0)"/>
      <use xlink:href="#DejaVuSans-61" transform="translate(224.349609 0)"/>
      <use xlink:href="#DejaVuSans-67" transform="translate(285.628906 0)"/>
      <use xlink:href="#DejaVuSans-65" transform="translate(349.105469 0)"/>
      <use xlink:href="#DejaVuSans-20" transform="translate(410.628906 0)"/>
      <use xlink:href="#DejaVuSans-74" transform="translate(442.416016 0)"/>
      <use xlink:href="#DejaVuSans-69" transform="translate(481.625 0)"/>
      <use xlink:href="#DejaVuSans-6d" transform="translate(509.408203 0)"/>
      <use xlink:href="#DejaVuSans-65" transform="translate(606.820312 0)"/>
      <use xlink:href="#DejaVuSans-20" transform="translate(668.34375 0)"/>
      <use xlink:href="#DejaVuSans-28" transform="translate(700.130859 0)"/>
      <use xlink:href="#DejaVuSans-6d" transform="translate(739.144531 0)"/>
      <use xlink:href="#DejaVuSans-73" transform="translate(836.556641 0)"/>
      <use xlink:href="#DejaVuSans-29" transform="translate(888.65625 0)"/>
     </g>
    </g>
   </g>
   <g id="line2d_13">
    <path d="M 115.363636 67.283541 
L 115.57128 286.468544 
L 115.778923 338.615196 
L 115.986566 347.035694 
L 116.19421 347.477405 
L 116.401853 302.009228 
L 116.609497 335.809426 
L 116.81714 334.358468 
L 117.024783 335.503976 
L 117.232427 276.406941 
L 117.44007 296.649495 
L 117.647713 281.583842 
L 118.063 329.165842 
L 118.478287 332.13291 
L 118.68593 347.619632 
L 119.101217 348.214829 
L 119.30886 342.789407 
L 119.93179 359.411741 
L 120.139434 357.198873 
L 120.347077 357.643815 
L 120.55472 374.593159 
L 120.762364 373.555197 
L 120.970007 376.154361 
L 121.17765 361.860864 
L 121.385294 363.090572 
L 121.592937 363.22113 
L 121.800581 360.055745 
L 122.008224 350.725106 
L 122.631154 357.678187 
L 122.838797 349.007664 
L 123.046441 355.27854 
L 123.254084 351.863375 
L 123.461727 355.50077 
L 123.669371 352.328318 
L 123.877014 351.835843 
L 124.084657 349.014231 
L 124.292301 350.630204 
L 124.707588 356.582695 
L 124.915231 357.954532 
L 125.122874 357.65046 
L 125.330518 361.899959 
L 125.538161 356.739531 
L 125.745804 361.966311 
L 126.161091 351.292843 
L 126.784021 356.113996 
L 126.991664 355.759878 
L 127.199308 355.836355 
L 127.406951 356.158761 
L 127.614595 355.351163 
L 127.822238 352.997796 
L 128.237525 341.049137 
L 128.445168 348.134011 
L 128.652811 350.206906 
L 128.860455 355.562276 
L 129.068098 354.696958 
L 129.275741 355.680882 
L 129.483385 351.824437 
L 129.691028 356.816741 
L 130.106315 357.940912 
L 130.313958 354.515796 
L 130.521602 354.549536 
L 130.729245 353.798521 
L 130.936888 342.02625 
L 131.144532 343.159967 
L 131.352175 352.046106 
L 131.559818 350.877198 
L 131.767462 351.255028 
L 131.975105 350.231133 
L 132.182748 348.289461 
L 132.390392 338.02582 
L 132.598035 347.451326 
L 132.805679 350.976807 
L 133.220965 349.378774 
L 133.428609 346.157582 
L 133.636252 355.781345 
L 133.843895 353.416764 
L 134.051539 352.493851 
L 134.466825 341.636899 
L 134.674469 347.706297 
L 134.882112 348.320599 
L 135.089756 346.994845 
L 135.297399 347.229236 
L 135.505042 336.055373 
L 135.712686 346.522917 
L 136.127972 344.810295 
L 136.543259 332.078684 
L 136.750902 341.261008 
L 136.958546 345.127157 
L 137.166189 344.79997 
L 137.373832 334.063604 
L 137.581476 343.296044 
L 137.996763 346.126019 
L 138.204406 344.167604 
L 138.412049 338.557916 
L 138.619693 344.268826 
L 138.827336 344.169719 
L 139.034979 340.254758 
L 139.242623 333.804301 
L 139.450266 337.940078 
L 139.657909 339.42804 
L 140.073196 335.142253 
L 140.28084 335.467132 
L 140.488483 327.393758 
L 140.696126 326.718217 
L 140.90377 320.973055 
L 141.111413 323.758422 
L 141.319056 320.923641 
L 141.5267 320.93391 
L 141.734343 318.407988 
L 141.941986 337.076466 
L 142.14963 340.439284 
L 142.357273 339.255947 
L 142.564916 339.835422 
L 142.980203 332.770694 
L 143.187847 333.206563 
L 143.603133 338.522537 
L 143.810777 336.850498 
L 144.01842 336.157551 
L 144.226063 337.179073 
L 144.433707 343.799053 
L 144.64135 344.844852 
L 144.848993 343.935259 
L 145.056637 332.153753 
L 145.26428 340.152533 
L 145.471923 341.534745 
L 145.679567 342.138146 
L 145.88721 343.454916 
L 146.094854 342.188486 
L 146.302497 342.388531 
L 146.51014 341.998314 
L 147.13307 334.580145 
L 147.340714 337.501311 
L 147.548357 337.221311 
L 147.756 343.166059 
L 147.963644 344.468638 
L 148.171287 343.987717 
L 148.378931 344.303371 
L 148.586574 341.971034 
L 148.794217 333.643951 
L 149.209504 341.391958 
L 149.417147 340.157376 
L 149.624791 339.786246 
L 150.040077 341.574184 
L 150.247721 339.91789 
L 150.455364 335.544747 
L 150.663007 338.331895 
L 150.870651 328.289265 
L 151.078294 343.696299 
L 151.285938 342.562509 
L 151.493581 343.739263 
L 151.701224 343.645383 
L 151.908868 342.276488 
L 152.116511 338.748744 
L 152.324154 342.11226 
L 152.531798 339.814851 
L 152.739441 339.641734 
L 153.154728 340.491835 
L 153.362371 340.301128 
L 153.570015 337.59655 
L 153.777658 337.88528 
L 154.192945 336.197325 
L 154.400588 344.04504 
L 154.608231 342.916207 
L 154.815875 342.998093 
L 155.023518 341.958582 
L 155.231161 339.620005 
L 155.438805 341.73149 
L 155.646448 336.81798 
L 155.854091 337.423279 
L 156.061735 331.792141 
L 156.269378 336.759665 
L 156.477022 339.000074 
L 157.099952 336.791815 
L 157.307595 336.176825 
L 157.515238 335.182197 
L 157.722882 340.968343 
L 157.930525 335.48494 
L 158.138168 339.059427 
L 158.345812 339.632672 
L 158.553455 334.763241 
L 158.761099 335.481976 
L 158.968742 333.444923 
L 159.176385 334.070754 
L 159.384029 340.793443 
L 159.591672 339.184147 
L 159.799315 339.256969 
L 160.006959 339.022571 
L 160.214602 334.260421 
L 160.422245 333.629821 
L 160.629889 330.558209 
L 160.837532 333.790784 
L 161.045175 339.657149 
L 161.252819 340.73738 
L 161.460462 339.42973 
L 161.668106 339.263371 
L 162.083392 328.617044 
L 162.291036 331.911216 
L 162.498679 326.38479 
L 162.706322 338.757702 
L 162.913966 338.410333 
L 163.121609 338.950016 
L 163.329252 337.432406 
L 163.536896 323.466268 
L 163.744539 328.484562 
L 163.952182 330.796837 
L 164.159826 331.370083 
L 164.367469 343.365768 
L 164.575113 343.391952 
L 164.782756 343.957176 
L 164.990399 343.194506 
L 165.198043 342.915529 
L 165.405686 342.191038 
L 166.028616 337.542059 
L 166.236259 337.828134 
L 166.443903 335.487497 
L 166.651546 339.102656 
L 166.85919 335.502723 
L 167.066833 338.64446 
L 167.274476 337.117093 
L 167.48212 338.530742 
L 167.689763 343.229628 
L 167.897406 330.368619 
L 168.10505 340.019322 
L 168.312693 341.384704 
L 168.520336 336.831518 
L 168.72798 340.679639 
L 168.935623 341.515886 
L 169.143266 341.415664 
L 169.35091 337.489863 
L 169.766197 340.503127 
L 169.97384 325.611406 
L 170.181483 333.220552 
L 170.389127 336.520646 
L 170.59677 336.588635 
L 170.804413 336.309885 
L 171.012057 342.413329 
L 171.2197 343.013495 
L 171.427343 342.267826 
L 171.634987 342.632152 
L 171.84263 341.80997 
L 172.257917 339.617476 
L 172.46556 338.873241 
L 172.673204 339.016087 
L 172.880847 340.023572 
L 173.08849 336.804751 
L 173.296134 338.723696 
L 173.503777 335.562823 
L 173.919064 336.702278 
L 174.126707 336.387894 
L 174.541994 343.187155 
L 174.957281 342.16356 
L 175.164924 333.671926 
L 175.372567 336.495211 
L 175.580211 335.066388 
L 175.787854 338.70317 
L 175.995497 338.214522 
L 176.203141 328.436655 
L 176.410784 335.422308 
L 176.618427 334.835051 
L 176.826071 335.277387 
L 177.033714 332.166497 
L 177.241357 324.968214 
L 177.656644 339.165642 
L 177.864288 334.672375 
L 178.071931 333.334276 
L 178.279574 330.350481 
L 178.487218 332.085834 
L 178.694861 332.85467 
L 178.902504 332.442842 
L 179.110148 332.434304 
L 179.317791 339.34285 
L 179.733078 334.933404 
L 179.940721 338.234935 
L 180.148365 330.480977 
L 180.356008 332.205133 
L 180.563651 326.184286 
L 180.771295 327.569912 
L 180.978938 337.497234 
L 181.186581 339.035435 
L 181.809511 328.827162 
L 182.017155 330.678185 
L 182.224798 330.143068 
L 182.847728 334.026531 
L 183.055372 336.167265 
L 183.263015 334.370267 
L 183.470658 329.660642 
L 183.678302 329.960905 
L 183.885945 329.369791 
L 184.093588 326.800319 
L 184.301232 343.169456 
L 184.508875 340.735219 
L 184.716518 343.104638 
L 184.924162 340.417718 
L 185.131805 340.299346 
L 185.339449 335.006042 
L 185.754735 338.421731 
L 185.962379 337.734078 
L 186.170022 339.070053 
L 186.792952 331.137928 
L 187.000595 333.098505 
L 187.208239 333.465306 
L 187.415882 335.597101 
L 187.623525 342.412281 
L 187.831169 341.918723 
L 188.038812 339.148936 
L 188.246456 340.660555 
L 188.454099 337.453717 
L 188.661742 338.839979 
L 188.869386 334.569008 
L 189.077029 332.887323 
L 189.284672 335.677721 
L 189.699959 336.640196 
L 189.907602 336.030971 
L 190.322889 331.985699 
L 190.530533 331.844876 
L 190.738176 332.010157 
L 190.945819 342.093172 
L 191.153463 340.997257 
L 191.361106 341.881308 
L 191.984036 338.069916 
L 192.191679 337.466814 
L 192.399323 335.021542 
L 192.606966 336.19404 
L 192.814609 336.725014 
L 193.022253 333.412372 
L 193.229896 335.264949 
L 193.43754 332.542152 
L 193.645183 331.339922 
L 193.852826 331.608968 
L 194.06047 330.467379 
L 194.268113 340.99068 
L 194.475756 341.321963 
L 194.6834 337.885175 
L 194.891043 337.544661 
L 195.098686 335.691776 
L 195.30633 335.946841 
L 195.513973 334.839152 
L 195.721616 336.509178 
L 195.92926 333.217923 
L 196.136903 334.985794 
L 196.344547 334.70025 
L 196.55219 332.748635 
L 196.759833 332.139713 
L 196.967477 332.417071 
L 197.17512 330.747524 
L 197.382763 331.068652 
L 197.590407 337.26329 
L 197.79805 333.853937 
L 198.005693 334.724275 
L 198.213337 332.462358 
L 198.42098 326.53631 
L 198.628624 329.713614 
L 198.836267 327.089794 
L 199.04391 326.612814 
L 199.459197 333.128873 
L 199.66684 336.856117 
L 199.874484 335.523843 
L 200.082127 324.770727 
L 200.28977 327.891228 
L 200.497414 328.249845 
L 200.705057 323.630013 
L 200.9127 333.896665 
L 201.120344 333.560939 
L 201.327987 334.366116 
L 201.535631 331.969192 
L 201.743274 327.63277 
L 201.950917 326.169082 
L 202.366204 325.170034 
L 202.573847 332.847581 
L 202.781491 331.883655 
L 202.989134 332.848561 
L 203.404421 324.683999 
L 203.612064 323.882054 
L 203.819708 324.345671 
L 204.027351 324.338761 
L 204.234994 340.75485 
L 204.442638 339.777331 
L 204.650281 340.055498 
L 204.857924 337.314499 
L 205.065568 336.52766 
L 205.273211 333.984548 
L 205.480854 330.018571 
L 205.688498 330.635612 
L 205.896141 329.944283 
L 206.103784 323.914429 
L 206.311428 323.836645 
L 206.519071 324.964384 
L 206.726715 321.538325 
L 206.934358 331.014096 
L 207.142001 329.832325 
L 207.349645 332.0084 
L 207.557288 337.232268 
L 207.764931 339.074049 
L 207.972575 339.357058 
L 208.180218 340.580362 
L 208.387861 336.413597 
L 208.595505 336.533376 
L 208.803148 336.25496 
L 209.010792 334.958235 
L 209.218435 332.497065 
L 209.426078 332.479049 
L 209.633722 328.704223 
L 209.841365 332.677533 
L 210.049008 325.878423 
L 210.256652 311.215446 
L 210.464295 331.1229 
L 210.671938 330.240576 
L 210.879582 340.945621 
L 211.087225 338.476957 
L 211.294868 340.415229 
L 211.502512 338.683331 
L 211.917799 332.009094 
L 212.125442 332.952061 
L 212.333085 332.014176 
L 212.540729 332.332254 
L 212.748372 334.357432 
L 213.163659 330.130735 
L 213.371302 330.215388 
L 213.578945 330.517145 
L 213.786589 328.753627 
L 213.994232 325.037731 
L 214.201875 338.074246 
L 214.617162 337.269155 
L 214.824806 339.076347 
L 215.240092 332.466812 
L 215.447736 335.219597 
L 215.655379 335.323155 
L 215.863022 332.727698 
L 216.070666 332.055478 
L 216.278309 329.92896 
L 216.485952 330.470031 
L 216.693596 319.967612 
L 216.901239 328.457833 
L 217.108883 328.852031 
L 217.316526 327.43125 
L 217.524169 330.564778 
L 217.731813 331.866786 
L 217.939456 330.660205 
L 218.147099 331.673029 
L 218.354743 317.127248 
L 218.562386 324.749065 
L 218.977673 321.229473 
L 219.185316 333.425832 
L 219.392959 329.617592 
L 219.600603 333.0281 
L 219.808246 329.071298 
L 220.01589 320.830898 
L 220.223533 325.207068 
L 220.431176 320.222162 
L 220.63882 320.945471 
L 220.846463 329.636893 
L 221.054106 327.10587 
L 221.26175 330.478696 
L 221.469393 327.873442 
L 221.677036 321.532516 
L 222.092323 319.445228 
L 222.299967 319.081912 
L 222.50761 331.37059 
L 222.715253 328.917129 
L 222.922897 330.240316 
L 223.13054 329.842806 
L 223.338183 320.049752 
L 223.545827 321.49304 
L 223.75347 320.57706 
L 223.961113 315.993711 
L 224.168757 331.555221 
L 224.3764 330.773477 
L 224.584043 330.56846 
L 224.791687 328.120144 
L 224.99933 329.184347 
L 225.206974 327.909805 
L 225.414617 329.032596 
L 225.62226 325.351893 
L 225.829904 331.158023 
L 226.24519 328.830428 
L 226.452834 329.703976 
L 226.660477 326.664085 
L 226.86812 326.719997 
L 227.075764 326.202959 
L 227.283407 327.43674 
L 227.49105 326.79212 
L 227.698694 328.608952 
L 227.906337 327.223741 
L 228.113981 327.032702 
L 228.321624 324.451923 
L 228.736911 324.051939 
L 228.944554 324.058971 
L 229.152197 327.180146 
L 229.359841 326.629865 
L 229.567484 325.637168 
L 229.775127 323.553148 
L 229.982771 318.913378 
L 230.190414 324.068633 
L 230.398058 321.09193 
L 230.813344 325.572914 
L 231.020988 324.830254 
L 231.436274 319.99404 
L 231.643918 322.811163 
L 231.851561 322.332555 
L 232.059204 321.532681 
L 232.266848 316.881751 
L 232.474491 316.087095 
L 232.889778 322.682982 
L 233.305065 318.749087 
L 233.720351 319.594454 
L 233.927995 320.030999 
L 234.135638 322.775767 
L 234.343281 320.821523 
L 234.550925 320.571765 
L 234.758568 320.7481 
L 235.173855 314.609306 
L 235.381498 320.380415 
L 235.589142 316.741506 
L 235.796785 322.439972 
L 236.212072 317.732352 
L 236.419715 317.578687 
L 236.627358 302.549794 
L 236.835002 316.417108 
L 237.042645 318.460529 
L 237.250288 319.364759 
L 237.457932 316.331933 
L 237.665575 315.704379 
L 238.288505 302.506656 
L 238.496149 300.872316 
L 238.703792 307.407569 
L 238.911435 306.525756 
L 239.119079 318.717091 
L 239.326722 317.27415 
L 239.534365 316.683258 
L 239.742009 315.592472 
L 239.949652 312.513247 
L 240.157295 315.586994 
L 240.364939 313.651942 
L 240.572582 315.438432 
L 240.780226 313.798258 
L 240.987869 316.30376 
L 241.195512 313.073174 
L 241.403156 313.802458 
L 241.610799 313.408392 
L 241.818442 312.401527 
L 242.026086 312.867246 
L 242.233729 311.77917 
L 242.649016 315.007259 
L 242.856659 314.209085 
L 243.064302 314.118073 
L 243.271946 311.852033 
L 243.479589 313.050702 
L 243.687233 312.788951 
L 244.102519 313.367076 
L 244.310163 312.812147 
L 244.725449 306.289979 
L 244.933093 309.525679 
L 245.140736 308.235389 
L 245.348379 303.806938 
L 245.763666 310.879352 
L 245.971309 310.097187 
L 246.178953 306.963129 
L 246.386596 308.611214 
L 246.59424 306.273896 
L 246.801883 309.045827 
L 247.21717 307.709642 
L 247.424813 310.625662 
L 247.632456 302.705448 
L 247.8401 308.443519 
L 248.047743 307.303723 
L 248.255386 303.964334 
L 248.46303 306.425379 
L 248.878317 304.283902 
L 249.08596 310.647271 
L 249.293603 310.475663 
L 249.501247 306.301275 
L 249.70889 306.01958 
L 249.916533 304.202307 
L 250.124177 300.803213 
L 250.33182 306.824654 
L 250.539463 302.468289 
L 250.747107 315.132408 
L 251.162393 309.572435 
L 251.370037 314.398771 
L 251.57768 306.906641 
L 251.785324 304.377477 
L 251.992967 303.430101 
L 252.20061 301.728481 
L 252.408254 317.701213 
L 252.615897 313.016029 
L 252.82354 316.754561 
L 253.031184 315.190885 
L 253.238827 306.157065 
L 253.44647 307.783563 
L 253.861757 302.632748 
L 254.069401 314.479457 
L 254.277044 315.562853 
L 254.484687 313.917016 
L 254.692331 316.061342 
L 254.899974 307.129027 
L 255.107617 305.969059 
L 255.522904 303.059263 
L 255.938191 314.86394 
L 256.145834 310.894773 
L 256.353477 310.194349 
L 256.561121 303.358785 
L 256.768764 300.247698 
L 256.976408 304.347838 
L 257.184051 302.031764 
L 257.391694 308.772505 
L 257.599338 302.370409 
L 258.014624 310.966645 
L 258.222268 305.506996 
L 258.637554 305.296643 
L 258.845198 304.198801 
L 259.052841 306.401597 
L 259.260485 315.176219 
L 259.468128 313.304658 
L 259.675771 313.73325 
L 259.883415 303.810279 
L 260.091058 305.227205 
L 260.506345 302.124931 
L 260.713988 314.770864 
L 260.921631 316.758974 
L 261.129275 314.16282 
L 261.336918 314.493141 
L 261.544561 305.900519 
L 261.752205 303.265343 
L 261.959848 306.001026 
L 262.167492 302.55649 
L 262.375135 311.258189 
L 262.582778 314.010252 
L 262.790422 313.061843 
L 262.998065 313.255494 
L 263.205708 303.368927 
L 263.413352 300.895464 
L 263.620995 303.902326 
L 263.828638 302.80413 
L 264.036282 314.040757 
L 264.243925 312.749989 
L 264.451568 313.965031 
L 264.659212 312.011498 
L 264.866855 303.377501 
L 265.074499 303.198619 
L 265.282142 304.261815 
L 265.489785 302.465986 
L 265.697429 315.47687 
L 265.905072 312.168394 
L 266.112715 312.244998 
L 266.320359 313.416883 
L 266.528002 301.760847 
L 266.735645 304.613375 
L 266.943289 300.221884 
L 267.150932 301.39285 
L 267.358576 312.861689 
L 267.566219 312.822357 
L 267.773862 311.685812 
L 267.981506 312.376156 
L 268.189149 302.525139 
L 268.396792 298.683091 
L 268.604436 301.020001 
L 268.812079 299.943888 
L 269.019722 312.83243 
L 269.227366 312.050782 
L 269.435009 308.987793 
L 269.642652 309.40313 
L 269.850296 302.244343 
L 270.057939 300.341384 
L 270.265583 300.542975 
L 270.473226 297.906731 
L 270.680869 308.567267 
L 270.888513 309.193553 
L 271.096156 311.436813 
L 271.303799 310.963167 
L 271.511443 294.544477 
L 271.719086 295.143743 
L 271.926729 294.953292 
L 272.134373 291.18553 
L 272.342016 305.909086 
L 272.54966 308.495997 
L 272.757303 308.838816 
L 272.964946 306.494217 
L 273.380233 293.675893 
L 273.587876 297.711698 
L 273.79552 296.727316 
L 274.003163 310.627223 
L 274.210806 312.928878 
L 274.41845 309.274234 
L 274.626093 308.842144 
L 274.833736 299.555279 
L 275.04138 296.221984 
L 275.249023 297.458085 
L 275.456667 296.684328 
L 275.66431 308.872573 
L 275.871953 309.621803 
L 276.28724 302.654266 
L 276.494883 294.683193 
L 276.702527 293.802043 
L 276.91017 295.977597 
L 277.117813 295.141815 
L 277.325457 300.000045 
L 277.5331 302.177213 
L 277.740743 299.073193 
L 277.948387 298.071465 
L 278.15603 300.27839 
L 278.363674 300.880972 
L 278.571317 294.970855 
L 278.77896 299.964212 
L 278.986604 299.627097 
L 279.194247 301.707564 
L 279.609534 298.699208 
L 279.817177 299.742872 
L 280.02482 297.29865 
L 280.232464 299.66139 
L 280.440107 298.404831 
L 280.647751 297.992882 
L 280.855394 300.611239 
L 281.063037 295.994167 
L 281.270681 298.848567 
L 281.478324 299.675606 
L 281.685967 297.994907 
L 281.893611 297.939157 
L 282.101254 299.124028 
L 282.516541 296.516974 
L 282.724184 297.847576 
L 282.931827 297.93857 
L 283.139471 295.690752 
L 283.347114 295.248525 
L 283.554758 296.164637 
L 283.762401 294.082303 
L 283.970044 296.570376 
L 284.177688 292.511061 
L 284.385331 292.951467 
L 284.800618 297.113625 
L 285.008261 293.795263 
L 285.215904 298.887093 
L 285.423548 298.862589 
L 285.631191 296.456364 
L 285.838835 289.997497 
L 286.254121 295.341795 
L 286.461765 297.34641 
L 286.877051 288.152324 
L 287.084695 292.237246 
L 287.292338 293.843879 
L 287.707625 292.850282 
L 287.915268 290.694063 
L 288.122911 295.287549 
L 288.330555 294.12943 
L 288.538198 294.601986 
L 288.745842 294.283739 
L 288.953485 289.38534 
L 289.161128 292.152687 
L 289.368772 291.373437 
L 289.576415 292.684776 
L 289.784058 292.702261 
L 289.991702 288.479971 
L 290.199345 290.415119 
L 290.406988 289.439515 
L 290.614632 311.732317 
L 290.822275 310.170334 
L 291.029919 314.300781 
L 291.237562 310.009914 
L 291.445205 298.633567 
L 291.652849 304.225083 
L 292.068135 301.499486 
L 292.275779 314.881916 
L 292.483422 308.226762 
L 292.691065 310.491385 
L 292.898709 307.904715 
L 293.106352 299.494147 
L 293.313995 304.560665 
L 293.521639 302.452798 
L 293.729282 293.171659 
L 293.936926 307.906383 
L 294.144569 305.052865 
L 294.352212 308.935892 
L 294.559856 307.332902 
L 294.767499 295.240563 
L 294.975142 292.01291 
L 295.182786 294.929508 
L 295.390429 295.062606 
L 295.598072 309.320675 
L 295.805716 304.444043 
L 296.013359 307.462202 
L 296.221002 306.655489 
L 296.428646 294.827101 
L 296.636289 294.422013 
L 296.843933 297.638959 
L 297.051576 297.185675 
L 297.259219 308.215636 
L 297.466863 309.292854 
L 297.674506 308.554732 
L 297.882149 308.258373 
L 298.089793 298.300054 
L 298.297436 294.716141 
L 298.505079 298.706706 
L 298.712723 297.849297 
L 298.920366 307.576346 
L 299.12801 308.518054 
L 299.335653 308.554906 
L 299.543296 305.91181 
L 299.75094 295.522496 
L 299.958583 297.412392 
L 300.166226 296.676524 
L 300.37387 293.102161 
L 300.789156 310.792334 
L 300.9968 307.026984 
L 301.204443 306.148078 
L 301.61973 293.989029 
L 302.035017 297.574302 
L 302.450303 309.654981 
L 302.86559 305.902185 
L 303.073233 297.466304 
L 303.280877 294.677242 
L 303.48852 295.774778 
L 303.696163 292.72071 
L 303.903807 311.57148 
L 304.11145 307.225333 
L 304.319094 311.167014 
L 304.73438 291.662416 
L 304.942024 298.266309 
L 305.149667 295.583354 
L 305.35731 294.661198 
L 305.564954 306.394289 
L 305.772597 303.850765 
L 305.98024 311.072012 
L 306.187884 308.360649 
L 306.395527 290.393516 
L 306.60317 299.725646 
L 306.810814 296.758881 
L 307.018457 296.591938 
L 307.433744 308.097902 
L 307.641387 305.701523 
L 307.849031 306.604088 
L 308.056674 295.888013 
L 308.471961 291.276434 
L 308.679604 292.224588 
L 308.887247 304.838963 
L 309.094891 303.81817 
L 309.302534 305.838279 
L 309.510178 304.912333 
L 309.717821 291.541117 
L 309.925464 295.982539 
L 310.340751 291.813635 
L 310.548394 305.581389 
L 310.756038 301.885374 
L 310.963681 304.347207 
L 311.171324 304.031464 
L 311.378968 292.32979 
L 311.586611 295.534736 
L 311.794254 291.215882 
L 312.001898 292.860081 
L 312.209541 308.15357 
L 312.417185 300.799392 
L 312.624828 305.479612 
L 312.832471 303.040489 
L 313.040115 288.300186 
L 313.247758 294.000291 
L 313.455401 293.247533 
L 313.663045 290.598238 
L 314.078331 305.227359 
L 314.493618 303.063515 
L 314.908905 287.700381 
L 315.116548 291.755408 
L 315.324192 288.61592 
L 315.531835 300.573353 
L 315.739478 300.756093 
L 315.947122 293.658519 
L 316.154765 293.045565 
L 316.362408 276.786437 
L 316.570052 276.255645 
L 316.777695 282.959888 
L 316.985338 276.649623 
L 317.400625 294.956581 
L 317.608269 296.758354 
L 317.815912 282.650969 
L 318.023555 286.455911 
L 318.231199 285.168183 
L 318.438842 282.922493 
L 318.646485 289.40483 
L 318.854129 285.222245 
L 319.061772 295.046522 
L 319.269415 281.369438 
L 319.477059 291.040896 
L 319.684702 277.429406 
L 319.892345 292.830757 
L 320.099989 292.034542 
L 320.307632 282.334688 
L 320.515276 290.46584 
L 320.722919 290.164927 
L 320.930562 287.028706 
L 321.138206 292.241327 
L 321.345849 289.844898 
L 321.553492 289.297983 
L 321.968779 282.224766 
L 322.176422 285.055774 
L 322.384066 292.87357 
L 322.591709 289.567768 
L 322.799353 280.17586 
L 323.006996 282.760884 
L 323.214639 280.042675 
L 323.422283 289.284434 
L 323.837569 288.574945 
L 324.045213 287.140602 
L 324.252856 287.819224 
L 324.460499 287.725679 
L 324.668143 292.279208 
L 324.875786 289.722797 
L 325.083429 289.430629 
L 325.291073 291.447509 
L 325.498716 283.508083 
L 325.70636 286.613412 
L 325.914003 283.727834 
L 326.121646 284.26196 
L 326.32929 289.100829 
L 326.536933 281.460204 
L 326.744576 282.18846 
L 326.95222 281.929945 
L 327.159863 282.791048 
L 327.367506 288.761241 
L 327.57515 288.771739 
L 327.782793 280.90131 
L 327.990436 277.999209 
L 328.19808 282.635739 
L 328.613367 281.186237 
L 328.82101 281.747729 
L 329.236297 286.851112 
L 329.44394 280.224378 
L 329.651583 285.047968 
L 330.274513 281.978647 
L 330.482157 308.836804 
L 330.6898 301.127166 
L 330.897444 306.811995 
L 331.105087 305.423966 
L 331.31273 283.739446 
L 331.520374 291.193386 
L 331.93566 288.766733 
L 332.143304 305.086078 
L 332.350947 300.476207 
L 332.55859 307.171627 
L 332.766234 307.083279 
L 332.973877 277.446285 
L 333.18152 290.858131 
L 333.389164 291.649717 
L 333.596807 286.098797 
L 333.804451 294.239053 
L 334.012094 297.299805 
L 334.219737 290.593837 
L 334.427381 292.683578 
L 334.635024 273.687586 
L 335.050311 271.54447 
L 335.257954 268.496198 
L 335.465597 301.915296 
L 335.673241 285.99903 
L 335.880884 295.79124 
L 336.088528 296.182058 
L 336.296171 262.097181 
L 336.711458 279.008186 
L 336.919101 269.117327 
L 337.126744 298.209526 
L 337.334388 297.597164 
L 337.542031 285.759997 
L 337.749674 285.679784 
L 337.957318 277.392779 
L 338.164961 276.559471 
L 338.372604 274.442155 
L 338.580248 270.921681 
L 338.787891 293.615108 
L 338.995535 291.305724 
L 339.203178 292.668363 
L 339.410821 289.281651 
L 339.618465 269.511886 
L 339.826108 276.78785 
L 340.033751 277.900704 
L 340.241395 273.494354 
L 340.656681 301.32038 
L 341.071968 290.516637 
L 341.279612 278.751515 
L 341.487255 275.726259 
L 341.694898 277.885111 
L 341.902542 275.181844 
L 342.317828 295.084604 
L 342.525472 294.743152 
L 342.733115 289.767418 
L 342.940758 273.226105 
L 343.148402 269.38399 
L 343.356045 270.424473 
L 343.563688 268.059514 
L 343.771332 295.401771 
L 343.978975 293.741726 
L 344.186619 294.67051 
L 344.394262 294.091794 
L 344.601905 260.585387 
L 345.017192 285.358532 
L 345.224835 282.636831 
L 345.432479 307.029429 
L 345.640122 297.670207 
L 345.847765 303.193347 
L 346.055409 299.61746 
L 346.263052 281.002571 
L 346.470695 285.982561 
L 346.678339 283.982403 
L 346.885982 279.68986 
L 347.093626 294.205143 
L 347.301269 297.826609 
L 347.508912 293.355175 
L 347.716556 292.556569 
L 347.924199 280.343452 
L 348.131842 275.166297 
L 348.547129 280.708764 
L 348.754772 298.073857 
L 348.962416 291.239792 
L 349.170059 296.462589 
L 349.377703 297.329918 
L 349.585346 278.231001 
L 349.792989 284.908465 
L 350.000633 284.501642 
L 350.208276 280.19198 
L 350.415919 301.055669 
L 350.623563 296.460027 
L 350.831206 298.621724 
L 351.038849 297.094702 
L 351.246493 279.766317 
L 351.454136 282.948627 
L 351.661779 280.695401 
L 351.869423 275.895664 
L 352.077066 301.430087 
L 352.28471 292.781941 
L 352.492353 300.5047 
L 352.699996 293.211406 
L 352.90764 272.229436 
L 353.115283 282.881022 
L 353.322926 282.20583 
L 353.53057 278.407274 
L 353.945856 302.09445 
L 354.1535 295.669622 
L 354.361143 293.962765 
L 354.77643 259.891271 
L 354.984073 274.615254 
L 355.191717 279.009975 
L 355.39936 295.717643 
L 355.607003 291.356898 
L 355.814647 295.76721 
L 356.02229 292.709457 
L 356.229933 273.038612 
L 356.437577 276.814648 
L 356.64522 277.927858 
L 356.852863 273.743028 
L 357.26815 287.07625 
L 357.475794 285.516837 
L 357.683437 277.66369 
L 357.89108 284.019134 
L 358.306367 281.50038 
L 358.51401 282.772575 
L 358.721654 280.618593 
L 358.929297 287.138261 
L 359.13694 284.853955 
L 359.344584 284.548495 
L 359.552227 278.333151 
L 359.759871 284.200736 
L 359.967514 283.616594 
L 360.175157 279.340849 
L 360.382801 272.455425 
L 360.590444 288.040923 
L 360.798087 287.731505 
L 361.213374 275.440933 
L 361.421017 279.016863 
L 361.628661 277.383574 
L 361.836304 279.009055 
L 362.043947 277.750707 
L 362.251591 282.883929 
L 362.459234 284.488262 
L 362.666878 281.910807 
L 362.874521 271.178504 
L 363.082164 282.305611 
L 363.705094 273.500012 
L 363.912738 276.447517 
L 364.328024 269.766517 
L 364.535668 283.401021 
L 364.743311 274.418643 
L 364.950954 274.138509 
L 365.158598 275.393799 
L 365.366241 275.371254 
L 365.573885 271.880691 
L 365.781528 270.380213 
L 366.196815 280.543185 
L 366.404458 274.039062 
L 366.612101 271.232742 
L 366.819745 275.217314 
L 367.027388 269.430961 
L 367.235031 275.674034 
L 367.442675 266.428724 
L 367.650318 265.883914 
L 367.857962 278.8486 
L 368.273248 262.379579 
L 368.480892 272.691137 
L 368.688535 267.261432 
L 368.896178 278.58816 
L 369.103822 271.301805 
L 369.311465 270.349684 
L 369.519108 270.945655 
L 369.726752 273.696103 
L 369.934395 270.741974 
L 370.142038 272.690769 
L 370.349682 302.221073 
L 370.557325 293.248578 
L 370.764969 300.759844 
L 370.972612 299.100901 
L 371.180255 262.937437 
L 371.387899 281.54087 
L 371.803185 273.385513 
L 372.010829 302.794007 
L 372.218472 296.115332 
L 372.426115 301.247282 
L 372.633759 297.340703 
L 372.841402 270.570164 
L 373.049046 279.982194 
L 373.256689 277.21598 
L 373.464332 276.825132 
L 373.671976 295.081369 
L 373.879619 290.155783 
L 374.087262 290.310388 
L 374.294906 290.764432 
L 374.502549 262.931161 
L 374.917836 271.351449 
L 375.125479 267.739643 
L 375.333122 297.821652 
L 375.540766 289.482889 
L 375.748409 296.063375 
L 375.956053 290.892123 
L 376.163696 258.098854 
L 376.371339 275.680384 
L 376.578983 273.126339 
L 376.786626 271.970972 
L 376.994269 289.558115 
L 377.201913 294.565646 
L 377.409556 289.892955 
L 377.617199 289.774634 
L 377.824843 268.235489 
L 378.240129 263.481152 
L 378.447773 265.896825 
L 378.655416 293.357914 
L 378.86306 290.60171 
L 379.070703 290.630206 
L 379.278346 288.043923 
L 379.48599 264.982896 
L 379.901276 273.523124 
L 380.10892 268.877084 
L 380.524206 301.081981 
L 380.73185 291.645493 
L 380.939493 296.350617 
L 381.35478 270.119655 
L 381.770067 275.411182 
L 382.185353 292.120504 
L 382.392997 290.486289 
L 382.60064 290.565564 
L 382.808283 272.369187 
L 383.015927 269.022648 
L 383.22357 267.673401 
L 383.431213 260.771656 
L 383.638857 300.052932 
L 383.8465 287.745421 
L 384.054144 297.345817 
L 384.261787 291.217351 
L 384.46943 268.726246 
L 384.677074 277.115824 
L 385.09236 273.317354 
L 385.300004 299.572249 
L 385.507647 289.661032 
L 385.71529 297.443041 
L 385.922934 295.105456 
L 386.130577 268.366016 
L 386.338221 279.442398 
L 386.545864 272.395263 
L 386.753507 272.276676 
L 386.961151 287.876047 
L 387.168794 294.221534 
L 387.376437 288.707963 
L 387.584081 288.579835 
L 387.791724 269.897129 
L 387.999367 269.447702 
L 388.207011 264.525876 
L 388.414654 263.466971 
L 388.622297 291.70638 
L 388.829941 289.668534 
L 389.245228 288.741003 
L 389.452871 261.956494 
L 389.868158 268.656033 
L 390.075801 265.909942 
L 390.283444 289.991629 
L 390.491088 287.617939 
L 390.698731 292.366657 
L 390.906374 288.587984 
L 391.114018 262.083033 
L 391.321661 266.320172 
L 391.529305 263.977327 
L 391.736948 263.923263 
L 391.944591 294.699666 
L 392.152235 282.895784 
L 392.359878 293.839084 
L 392.567521 287.391934 
L 392.775165 259.473029 
L 392.982808 270.522376 
L 393.190451 268.661537 
L 393.398095 263.435771 
L 393.605738 286.244515 
L 393.813381 292.581169 
L 394.228668 278.552075 
L 394.436312 256.659099 
L 394.643955 247.570844 
L 394.851598 262.564804 
L 395.059242 263.352644 
L 395.266885 283.79759 
L 395.474528 285.666547 
L 395.682172 285.378899 
L 395.889815 285.790646 
L 396.097458 261.339662 
L 396.305102 267.657888 
L 396.720388 259.569734 
L 397.135675 278.61945 
L 397.343319 274.036018 
L 397.550962 264.332853 
L 397.758605 271.078357 
L 397.966249 268.221361 
L 398.173892 268.751364 
L 398.381535 263.672291 
L 398.589179 265.288833 
L 398.796822 274.669937 
L 399.004465 270.507152 
L 399.212109 271.941855 
L 399.419752 261.06638 
L 399.627396 270.436878 
L 400.042682 259.070003 
L 400.457969 273.538777 
L 400.665612 271.153878 
L 400.873256 266.926338 
L 401.080899 265.025096 
L 401.288542 265.422148 
L 401.496186 266.138633 
L 401.703829 262.348122 
L 401.911472 264.659673 
L 402.119116 273.056215 
L 402.326759 274.89681 
L 402.534403 266.104937 
L 402.742046 262.267134 
L 402.949689 272.844583 
L 403.157333 266.329831 
L 403.364976 264.954759 
L 403.572619 255.437671 
L 403.780263 260.393302 
L 403.987906 260.444483 
L 404.195549 255.649252 
L 404.403193 275.164765 
L 404.610836 263.355238 
L 404.81848 266.645168 
L 405.026123 267.427064 
L 405.233766 260.47679 
L 405.44141 264.150353 
L 405.649053 258.841082 
L 405.856696 258.539277 
L 406.06434 266.298514 
L 406.271983 258.487553 
L 406.479626 262.200374 
L 406.68727 261.135873 
L 406.894913 255.925448 
L 407.102556 267.525845 
L 407.3102 264.489711 
L 407.517843 259.694283 
L 407.725487 264.068344 
L 407.93313 261.560028 
L 408.140773 261.625535 
L 408.55606 251.990205 
L 408.763703 265.466212 
L 408.971347 259.26182 
L 409.17899 261.875 
L 409.386633 255.956124 
L 409.594277 261.967312 
L 410.009564 257.322383 
L 410.217207 280.959882 
L 410.42485 278.982647 
L 410.632494 275.541823 
L 410.840137 279.64082 
L 411.04778 279.037505 
L 411.255424 275.987631 
L 411.463067 280.408153 
L 411.67071 281.067283 
L 411.878354 275.161552 
L 412.085997 276.916725 
L 412.29364 281.275289 
L 412.501284 276.054727 
L 412.708927 275.056557 
L 412.916571 281.886534 
L 413.124214 277.889299 
L 413.331857 278.019348 
L 413.539501 278.728545 
L 413.747144 280.321521 
L 413.954787 279.765185 
L 414.162431 275.62063 
L 414.370074 277.651945 
L 414.577717 277.18992 
L 414.993004 269.272684 
L 415.200647 275.343894 
L 415.408291 274.28531 
L 415.615934 276.143939 
L 415.823578 272.597885 
L 416.031221 271.243869 
L 416.238864 269.083058 
L 416.446508 276.905409 
L 416.654151 273.475644 
L 416.861794 272.309526 
L 417.069438 272.14971 
L 417.277081 269.633989 
L 417.692368 274.785585 
L 417.900011 274.507697 
L 418.107655 274.639654 
L 418.315298 270.100472 
L 418.522941 277.705284 
L 418.730585 274.649879 
L 418.938228 273.239753 
L 419.145871 274.548168 
L 419.353515 273.325921 
L 419.561158 270.597999 
L 419.768801 272.433652 
L 420.184088 267.353881 
L 420.391731 271.320556 
L 420.599375 267.687372 
L 420.807018 268.589113 
L 421.014662 275.409344 
L 421.222305 271.209451 
L 421.429948 270.099377 
L 421.637592 274.788997 
L 421.845235 266.358872 
L 422.052878 264.820769 
L 422.468165 268.845978 
L 422.675808 269.937874 
L 423.091095 270.167013 
L 423.298739 264.246195 
L 423.506382 278.328766 
L 424.129312 269.217856 
L 424.336955 280.665937 
L 424.544599 275.39686 
L 424.752242 280.718271 
L 424.959885 279.112922 
L 425.167529 278.905186 
L 425.375172 273.30545 
L 425.582815 275.521903 
L 425.790459 271.833187 
L 425.998102 280.823045 
L 426.205746 273.343916 
L 426.413389 271.736743 
L 426.621032 266.647337 
L 426.828676 265.371288 
L 427.243962 269.70217 
L 427.451606 262.69922 
L 427.659249 278.175558 
L 428.074536 267.72798 
L 428.282179 267.14627 
L 428.489822 269.207243 
L 428.697466 267.740704 
L 428.905109 269.578666 
L 429.112753 269.45184 
L 429.320396 270.589383 
L 429.528039 265.923198 
L 429.735683 265.278132 
L 430.150969 273.638956 
L 430.358613 264.933003 
L 430.566256 269.124746 
L 430.773899 267.727969 
L 430.981543 281.200356 
L 431.189186 276.392684 
L 431.39683 280.467934 
L 431.604473 272.317156 
L 431.812116 278.054709 
L 432.01976 269.741735 
L 432.227403 271.126125 
L 432.64269 278.849636 
L 432.850333 267.336113 
L 433.26562 273.194775 
L 433.473263 267.102167 
L 433.680906 265.0924 
L 433.88855 261.458974 
L 434.096193 262.65118 
L 434.303837 276.985248 
L 434.51148 267.901128 
L 434.719123 272.183867 
L 434.926767 272.721701 
L 435.342053 262.165412 
L 435.549697 261.52924 
L 435.75734 264.663555 
L 435.964983 273.410441 
L 436.172627 257.157926 
L 436.38027 263.119474 
L 436.587914 265.649844 
L 436.795557 258.130455 
L 437.0032 263.003714 
L 437.210844 259.380817 
L 437.418487 249.260814 
L 437.62613 270.229218 
L 437.833774 264.398986 
L 438.041417 267.374409 
L 438.24906 267.567938 
L 438.456704 266.5816 
L 438.664347 263.789309 
L 438.87199 267.393854 
L 439.079634 266.30371 
L 439.287277 261.991691 
L 439.494921 253.745067 
L 439.702564 264.520672 
L 440.117851 257.492827 
L 440.325494 266.705854 
L 440.533137 259.768106 
L 440.948424 263.58158 
L 441.156067 253.384764 
L 441.363711 254.637152 
L 441.571354 261.096705 
L 441.778998 256.499673 
L 442.194284 264.739407 
L 442.609571 258.742335 
L 442.817214 262.199181 
L 443.024858 257.313077 
L 443.232501 259.335117 
L 443.647788 253.250895 
L 443.855431 249.504111 
L 444.063074 254.680178 
L 444.270718 270.893825 
L 444.478361 261.95679 
L 444.893648 268.561379 
L 445.101291 260.46116 
L 445.308935 257.000321 
L 445.516578 259.895298 
L 445.724221 259.32217 
L 445.931865 261.287151 
L 446.139508 257.387724 
L 446.347151 259.492012 
L 446.554795 259.776529 
L 446.762438 249.79667 
L 446.970081 258.285537 
L 447.177725 250.847616 
L 447.385368 249.152677 
L 447.593012 262.879433 
L 447.800655 251.531122 
L 448.008298 258.857443 
L 448.215942 257.303506 
L 448.423585 251.197108 
L 448.631228 250.894095 
L 448.838872 256.889443 
L 449.046515 252.275794 
L 449.254158 254.087909 
L 449.461802 250.540251 
L 449.669445 250.461637 
L 449.877089 253.40536 
L 450.084732 248.150264 
L 450.292375 254.113554 
L 450.707662 249.515942 
L 450.915305 261.298825 
L 451.122949 247.736852 
L 451.330592 255.261186 
L 451.538235 255.645827 
L 451.745879 255.706057 
L 451.953522 256.749151 
L 452.368809 247.262207 
L 452.576452 255.925373 
L 452.784096 248.340542 
L 452.991739 246.286419 
L 453.199382 248.443395 
L 453.407026 245.770319 
L 453.614669 258.934327 
L 454.029956 246.697667 
L 454.237599 249.795397 
L 454.445242 250.304164 
L 454.652886 248.635928 
L 454.860529 250.543239 
L 455.068173 247.175428 
L 455.275816 258.052904 
L 455.483459 249.337454 
L 455.691103 251.351161 
L 455.898746 249.450359 
L 456.106389 250.812392 
L 456.314033 246.2982 
L 456.521676 246.054684 
L 456.729319 245.224843 
L 457.144606 240.661023 
L 457.352249 241.987761 
L 457.559893 265.208561 
L 457.767536 252.814074 
L 457.97518 259.082943 
L 458.182823 261.464264 
L 458.390466 255.47234 
L 458.59811 242.506535 
L 458.805753 248.81447 
L 459.013396 250.220163 
L 459.22104 257.558842 
L 459.428683 245.918781 
L 459.636326 245.523726 
L 459.84397 249.820308 
L 460.051613 238.391891 
L 460.259257 246.99832 
L 460.4669 230.255975 
L 460.674543 230.192357 
L 460.882187 247.528165 
L 461.08983 242.407587 
L 461.297473 250.326757 
L 461.505117 249.875583 
L 461.920403 240.284421 
L 462.128047 239.96858 
L 462.33569 240.666398 
L 462.543333 247.827214 
L 462.750977 236.850587 
L 462.95862 238.176942 
L 463.166264 240.378747 
L 463.58155 271.080214 
L 463.789194 264.491292 
L 463.996837 269.703938 
L 464.20448 253.077683 
L 464.412124 256.147622 
L 464.619767 250.32814 
L 464.82741 252.634154 
L 465.035054 259.096717 
L 465.242697 269.794725 
L 465.45034 271.211538 
L 465.865627 255.122142 
L 466.073271 267.873806 
L 466.280914 261.103378 
L 466.488557 262.123349 
L 466.696201 258.057033 
L 466.903844 268.725585 
L 467.111487 265.345075 
L 467.319131 265.203088 
L 467.526774 248.880152 
L 467.734417 258.420367 
L 467.942061 257.453573 
L 468.149704 248.773014 
L 468.357348 253.514291 
L 468.564991 264.76728 
L 468.772634 264.818528 
L 468.980278 262.242255 
L 469.187921 248.167747 
L 469.395564 264.644086 
L 469.603208 266.564553 
L 470.018494 243.784302 
L 470.226138 254.047707 
L 470.433781 245.5493 
L 470.641424 247.105772 
L 470.849068 252.166458 
L 471.264355 242.701473 
L 471.679641 246.583402 
L 471.887285 255.239796 
L 472.094928 247.85505 
L 472.302571 249.035632 
L 472.510215 244.432456 
L 472.717858 250.322385 
L 473.340788 241.079067 
L 473.548432 262.537225 
L 473.756075 255.795847 
L 473.963718 254.841629 
L 474.171362 242.474141 
L 474.379005 246.141989 
L 474.586648 235.897617 
L 474.794292 241.745548 
L 475.001935 242.736373 
L 475.209578 257.977018 
L 475.417222 252.010373 
L 475.624865 252.934325 
L 475.832508 232.326529 
L 476.040152 251.10911 
L 476.247795 250.512746 
L 476.455439 244.098934 
L 476.870725 251.678803 
L 477.078369 251.312434 
L 477.286012 247.310743 
L 477.493655 265.4192 
L 477.701299 243.491919 
L 477.908942 252.495799 
L 478.116585 252.486061 
L 478.324229 251.945865 
L 478.531872 245.897259 
L 478.739515 244.474723 
L 478.947159 245.534252 
L 479.154802 257.370783 
L 479.362446 245.169979 
L 479.570089 240.884009 
L 479.777732 245.86834 
L 479.985376 236.932062 
L 480.193019 252.92314 
L 480.608306 242.729389 
L 480.815949 254.322652 
L 481.023592 241.312169 
L 481.231236 242.698706 
L 481.438879 242.184489 
L 481.646523 241.983879 
L 481.854166 242.489867 
L 482.061809 241.123825 
L 482.269453 238.431268 
L 482.477096 242.762289 
L 482.684739 241.062627 
L 482.892383 237.125056 
L 483.100026 239.612581 
L 483.307669 248.529337 
L 483.515313 228.349065 
L 483.722956 237.308262 
L 483.930599 240.389678 
L 484.138243 269.572457 
L 484.345886 244.544036 
L 484.761173 260.447465 
L 484.968816 254.33389 
L 485.17646 237.324439 
L 485.384103 230.054607 
L 485.79939 257.694323 
L 486.007033 227.331811 
L 486.214676 232.494281 
L 486.42232 250.302685 
L 486.629963 231.659713 
L 486.837607 235.894947 
L 487.04525 234.707676 
L 487.252893 220.876201 
L 487.460537 252.212403 
L 487.66818 216.496696 
L 487.875823 239.584601 
L 488.083467 249.988258 
L 488.498753 236.164573 
L 488.706397 238.312982 
L 488.91404 238.520099 
L 489.121683 245.826005 
L 489.329327 229.99086 
L 489.53697 234.955501 
L 489.744614 229.779695 
L 489.952257 237.653607 
L 490.1599 254.782187 
L 490.367544 254.943883 
L 490.575187 250.736733 
L 490.78283 240.135636 
L 490.990474 240.79415 
L 491.198117 239.505294 
L 491.40576 241.258238 
L 491.613404 241.474121 
L 491.821047 255.809982 
L 492.028691 254.813298 
L 492.236334 249.759053 
L 492.443977 226.429138 
L 492.651621 251.074003 
L 492.859264 248.130408 
L 493.066907 238.474178 
L 493.274551 239.062014 
L 493.482194 258.673565 
L 493.689837 252.224676 
L 493.897481 249.512168 
L 494.105124 226.058091 
L 494.312767 241.500375 
L 494.520411 238.991151 
L 494.728054 225.315464 
L 494.935698 231.583879 
L 495.143341 258.460701 
L 495.350984 249.684612 
L 495.558628 249.785548 
L 495.766271 231.595338 
L 495.973914 237.908542 
L 496.181558 233.241813 
L 496.389201 234.510779 
L 496.596844 230.389367 
L 496.804488 235.681057 
L 497.012131 229.190839 
L 497.219774 228.295303 
L 497.427418 252.813198 
L 497.635061 233.702001 
L 497.842705 233.343656 
L 498.050348 245.692972 
L 498.257991 233.445449 
L 498.465635 231.067772 
L 498.673278 232.82101 
L 498.880921 228.487588 
L 499.088565 238.670106 
L 499.296208 226.497677 
L 499.503851 231.488843 
L 499.711495 232.304596 
L 499.919138 221.929583 
L 500.126782 246.238361 
L 500.542068 235.873379 
L 500.749712 241.132802 
L 500.957355 223.984207 
L 501.164998 222.24174 
L 501.372642 231.914485 
L 501.580285 229.359256 
L 501.787928 237.199814 
L 501.995572 233.438773 
L 502.203215 231.850302 
L 502.410858 229.227103 
L 502.618502 231.996739 
L 503.241432 218.757072 
L 503.449075 245.06694 
L 503.656719 231.090871 
L 503.864362 226.980552 
L 504.072005 240.326925 
L 504.279649 210.23774 
L 504.487292 222.324827 
L 504.694935 216.927716 
L 504.902579 218.197573 
L 505.110222 225.212805 
L 505.317866 224.077688 
L 505.525509 230.484084 
L 505.733152 226.561965 
L 505.940796 227.621427 
L 506.148439 223.379201 
L 506.356082 221.438186 
L 506.563726 217.626735 
L 506.771369 249.388961 
L 507.186656 234.772547 
L 508.017229 208.791587 
L 508.224873 213.556066 
L 508.432516 241.189158 
L 508.640159 236.644759 
L 509.055446 215.872051 
L 509.263089 230.806377 
L 509.470733 226.355299 
L 509.678376 217.264959 
L 509.886019 221.218821 
L 510.093663 217.805204 
L 510.301306 209.091609 
L 510.50895 192.423391 
L 510.716593 249.513296 
L 510.924236 220.227095 
L 511.339523 237.158439 
L 511.75481 213.394777 
L 511.962453 217.252104 
L 512.170096 217.302608 
L 512.37774 237.189325 
L 512.585383 212.576405 
L 512.793026 218.36339 
L 513.00067 215.428918 
L 513.208313 198.589091 
L 513.415957 220.302403 
L 513.6236 209.30836 
L 513.831243 213.9949 
L 514.038887 231.287973 
L 514.24653 212.196959 
L 514.454173 213.602241 
L 514.661817 219.534297 
L 514.86946 215.931177 
L 515.077103 222.975874 
L 515.284747 217.046639 
L 515.907677 210.339324 
L 516.11532 214.844242 
L 516.322964 213.47801 
L 516.530607 206.096955 
L 516.73825 229.666144 
L 516.945894 238.504465 
L 517.153537 235.313038 
L 517.36118 209.361589 
L 517.568824 226.015135 
L 517.776467 204.282021 
L 517.98411 215.664525 
L 518.191754 212.417387 
L 518.399397 245.342044 
L 519.022327 209.900607 
L 519.229971 230.41598 
L 519.437614 228.621564 
L 519.645257 223.311918 
L 519.852901 210.570334 
L 520.060544 240.37776 
L 520.268187 238.634037 
L 520.475831 226.889033 
L 520.683474 193.764235 
L 520.891117 224.153683 
L 521.306404 209.861324 
L 521.514048 205.554721 
L 521.721691 244.328963 
L 521.929334 236.457013 
L 522.136978 235.566653 
L 522.344621 206.749556 
L 522.552264 226.447053 
L 522.759908 224.55793 
L 522.967551 227.077454 
L 523.175194 192.714512 
L 523.382838 214.934172 
L 523.590481 211.852643 
L 523.798125 206.393483 
L 524.005768 218.317925 
L 524.213411 205.180573 
L 524.421055 205.324024 
L 524.628698 209.056699 
L 524.836341 203.005075 
L 525.043985 205.721649 
L 525.251628 203.69501 
L 525.459271 194.411736 
L 525.666915 199.38234 
L 525.874558 200.589365 
L 526.082201 206.198823 
L 526.289845 199.749117 
L 526.497488 179.1975 
L 526.705132 227.86986 
L 526.912775 219.751201 
L 527.120418 192.917632 
L 527.328062 204.151831 
L 527.535705 201.323482 
L 527.743348 201.646427 
L 527.950992 189.709936 
L 528.158635 193.791151 
L 528.366278 220.913567 
L 528.573922 223.999188 
L 528.781565 216.187036 
L 528.989208 188.164784 
L 529.196852 196.457183 
L 529.404495 212.314788 
L 529.612139 202.423435 
L 529.819782 198.738292 
L 530.027425 212.316516 
L 530.235069 201.976287 
L 530.442712 199.071225 
L 530.650355 230.147441 
L 530.857999 203.626697 
L 531.273285 221.789937 
L 531.480929 210.335175 
L 531.688572 215.485013 
L 531.896216 212.33331 
L 532.103859 205.596286 
L 532.311502 211.902345 
L 532.519146 204.931012 
L 532.726789 211.105618 
L 532.934432 207.521992 
L 533.142076 188.112943 
L 533.349719 214.505884 
L 533.557362 212.676327 
L 533.765006 197.301342 
L 533.972649 218.891948 
L 534.180292 196.009151 
L 534.387936 198.739399 
L 534.595579 206.689994 
L 534.803223 198.977126 
L 535.010866 210.22631 
L 535.218509 198.199517 
L 535.633796 201.380875 
L 535.841439 191.56546 
L 536.049083 199.223479 
L 536.256726 199.151319 
L 536.464369 198.487622 
L 536.672013 183.003454 
L 536.879656 193.823881 
L 537.0873 187.756327 
L 537.294943 235.618238 
L 537.502586 211.35528 
L 537.917873 238.340674 
L 538.33316 189.09021 
L 538.540803 196.792601 
L 538.748446 210.672421 
L 538.95609 234.441016 
L 539.163733 200.615046 
L 539.371376 196.455435 
L 539.57902 220.319934 
L 539.786663 187.011032 
L 539.994307 194.721753 
L 540.20195 195.444315 
L 540.409593 190.474344 
L 540.617237 229.85535 
L 540.82488 194.916412 
L 541.032523 212.576018 
L 541.240167 210.911575 
L 541.655453 194.364703 
L 542.07074 202.98545 
L 542.278384 211.807235 
L 542.486027 192.588816 
L 542.901314 204.363681 
L 543.108957 188.540962 
L 543.3166 222.944579 
L 543.524244 222.491032 
L 543.731887 205.864376 
L 543.93953 202.579018 
L 544.147174 196.617595 
L 544.354817 203.066208 
L 544.770104 192.683563 
L 544.977747 216.445847 
L 545.185391 218.449713 
L 545.393034 210.590297 
L 545.600677 193.409819 
L 545.808321 216.610795 
L 546.015964 206.594892 
L 546.223607 202.869521 
L 546.431251 176.457899 
L 546.638894 230.215883 
L 546.846537 219.511159 
L 547.054181 221.194676 
L 547.261824 187.007229 
L 547.469467 203.354768 
L 547.677111 193.472964 
L 547.884754 191.41739 
L 548.092398 166.660078 
L 548.300041 221.670617 
L 548.507684 221.283887 
L 548.715328 211.144676 
L 548.922971 191.039625 
L 549.130614 223.542054 
L 549.338258 210.832069 
L 549.545901 205.559445 
L 549.753544 173.984056 
L 549.961188 192.927998 
L 550.168831 171.00137 
L 550.376475 180.174926 
L 550.584118 205.379812 
L 550.791761 181.174367 
L 551.207048 211.039356 
L 551.414691 193.894212 
L 551.829978 181.882178 
L 552.037621 181.322393 
L 552.245265 201.855394 
L 552.452908 180.983443 
L 552.660551 183.94145 
L 552.868195 188.97221 
L 553.075838 150.704665 
L 553.283482 200.659135 
L 553.491125 207.167496 
L 553.698768 182.625711 
L 553.906412 193.872891 
L 554.114055 175.778072 
L 554.321698 187.627419 
L 554.529342 192.229538 
L 554.736985 184.084681 
L 554.944628 202.198958 
L 555.152272 201.356274 
L 555.359915 198.829 
L 555.567559 182.378063 
L 555.775202 197.408413 
L 556.190489 183.819554 
L 556.398132 158.921707 
L 556.605775 209.396027 
L 556.813419 206.624588 
L 557.021062 195.021306 
L 557.228705 199.908977 
L 557.436349 175.852267 
L 557.643992 179.283612 
L 557.851635 187.086569 
L 558.059279 181.645924 
L 558.266922 209.302752 
L 558.474566 199.929975 
L 558.682209 196.406724 
L 558.889852 179.694921 
L 559.097496 195.774239 
L 559.512782 181.434245 
L 559.720426 166.746506 
L 559.928069 217.750528 
L 560.758643 164.249754 
L 560.966286 168.423011 
L 561.173929 166.611867 
L 561.381573 171.379874 
L 561.589216 219.063592 
L 561.796859 194.387547 
L 562.004503 192.360671 
L 562.212146 169.88471 
L 562.419789 205.333355 
L 562.835076 178.040162 
L 563.250363 165.818012 
L 563.458006 169.269929 
L 563.66565 163.736332 
L 563.873293 225.247546 
L 564.080936 178.047061 
L 564.496223 203.952665 
L 564.703866 193.721156 
L 564.91151 160.119149 
L 565.53444 195.554862 
L 565.742083 163.85625 
L 565.949726 174.367829 
L 566.15737 179.010916 
L 566.365013 151.479514 
L 566.572657 185.328058 
L 566.7803 170.198879 
L 566.987943 146.836393 
L 567.195587 198.520643 
L 567.40323 158.604509 
L 567.610873 177.512112 
L 567.818517 176.001673 
L 568.02616 167.293816 
L 568.441447 186.068048 
L 568.64909 173.589009 
L 568.856734 175.37544 
L 569.064377 180.967962 
L 569.27202 172.784422 
L 569.479664 177.448072 
L 569.687307 159.390669 
L 569.89495 203.972224 
L 570.102594 200.515892 
L 570.310237 194.021822 
L 570.51788 150.297742 
L 570.725524 183.674193 
L 571.14081 159.567714 
L 571.348454 165.577806 
L 571.556097 202.721807 
L 571.763741 198.645461 
L 571.971384 185.14065 
L 572.179027 148.144652 
L 572.386671 198.513632 
L 572.594314 181.348803 
L 572.801957 180.269126 
L 573.009601 158.391497 
L 573.217244 209.067049 
L 573.632531 188.10649 
L 573.840174 149.809482 
L 574.047818 192.922987 
L 574.255461 173.03036 
L 574.670748 160.852784 
L 574.878391 206.984335 
L 575.293678 190.823493 
L 575.501321 141.821582 
L 575.708964 200.510745 
L 575.916608 184.227283 
L 576.124251 181.359805 
L 576.331894 126.595709 
L 576.539538 174.476387 
L 576.954825 146.689274 
L 577.162468 167.901124 
L 577.370111 155.308965 
L 577.577755 151.797499 
L 577.785398 156.237834 
L 577.993041 129.129305 
L 578.200685 170.079684 
L 578.615971 144.837941 
L 578.823615 138.295468 
L 579.031258 147.964964 
L 579.238901 141.199219 
L 579.446545 146.15439 
L 579.654188 126.652542 
L 579.861832 192.007912 
L 580.069475 174.887926 
L 580.277118 168.293117 
L 580.484762 147.547269 
L 580.692405 162.994604 
L 580.900048 151.852129 
L 581.107692 153.327769 
L 581.315335 136.584809 
L 581.522978 196.369334 
L 581.938265 172.307035 
L 582.145909 138.172684 
L 582.353552 178.892435 
L 582.561195 159.5297 
L 582.768839 154.100453 
L 582.976482 121.939725 
L 583.184125 163.071606 
L 583.599412 148.989105 
L 583.807055 185.396473 
L 584.014699 148.468597 
L 584.429985 181.669887 
L 584.637629 160.388923 
L 584.845272 167.945418 
L 585.052916 161.448436 
L 585.260559 144.044908 
L 585.468202 166.621996 
L 585.675846 154.242805 
L 585.883489 149.978786 
L 586.091132 156.928748 
L 586.298776 139.215592 
L 586.506419 175.785151 
L 586.714062 157.339384 
L 586.921706 156.926823 
L 587.129349 174.092422 
L 587.336993 138.575282 
L 587.544636 155.309547 
L 587.752279 161.744136 
L 587.959923 147.045123 
L 588.167566 170.431791 
L 588.582853 151.478388 
L 588.998139 162.780824 
L 589.413426 149.356457 
L 589.621069 167.310446 
L 590.036356 134.500008 
L 590.244 146.375756 
L 590.451643 218.337544 
L 590.659286 180.154058 
L 591.074573 201.70182 
L 591.48986 155.059963 
L 591.697503 155.563788 
L 591.905146 166.505164 
L 592.11279 195.618121 
L 592.320433 157.83939 
L 592.528077 151.316428 
L 592.73572 181.867001 
L 592.943363 138.884215 
L 593.151007 152.67225 
L 593.35865 145.56025 
L 593.566293 145.416678 
L 593.773937 193.911002 
L 593.98158 148.813592 
L 594.396867 181.804868 
L 594.60451 154.398811 
L 594.812153 157.3941 
L 595.019797 133.796117 
L 595.22744 144.963224 
L 595.435084 170.776173 
L 595.642727 150.098948 
L 595.85037 143.592271 
L 596.058014 143.485085 
L 596.265657 137.81058 
L 596.4733 179.207167 
L 596.680944 189.709436 
L 597.09623 143.609302 
L 597.303874 150.803783 
L 597.511517 145.898493 
L 597.71916 136.638685 
L 597.926804 142.447992 
L 598.134447 196.696137 
L 598.342091 190.532897 
L 598.757377 142.662444 
L 598.965021 180.689704 
L 599.587951 143.379653 
L 599.795594 198.162628 
L 600.003237 186.973478 
L 600.210881 165.038487 
L 600.418524 130.524365 
L 600.626168 164.929472 
L 601.249098 139.239371 
L 601.456741 200.556119 
L 601.664384 192.464093 
L 601.872028 176.389235 
L 602.079671 139.337906 
L 602.287314 170.700707 
L 602.494958 153.73554 
L 602.702601 161.35721 
L 602.910244 125.870272 
L 603.117888 151.571761 
L 603.325531 144.512789 
L 603.533175 130.604637 
L 603.740818 171.780625 
L 603.948461 125.604229 
L 604.363748 153.219919 
L 604.571391 122.442696 
L 604.779035 151.019726 
L 605.194321 136.689388 
L 605.401965 157.253592 
L 605.609608 135.760444 
L 605.817252 143.400173 
L 606.024895 142.895282 
L 606.232538 106.053878 
L 606.440182 166.002279 
L 606.647825 150.974095 
L 606.855468 145.831617 
L 607.063112 145.632519 
L 607.270755 95.620236 
L 607.478398 143.680923 
L 607.686042 136.863021 
L 607.893685 121.374042 
L 608.101328 165.162662 
L 608.308972 166.471158 
L 608.516615 125.044776 
L 608.724259 123.198316 
L 608.931902 161.716434 
L 609.139545 143.057505 
L 609.347189 143.540547 
L 609.554832 116.878497 
L 609.762475 166.444666 
L 609.970119 153.113959 
L 610.177762 132.519587 
L 610.385405 143.307125 
L 610.593049 121.092579 
L 610.800692 133.898296 
L 611.008336 129.107611 
L 611.215979 105.09943 
L 611.423622 169.570588 
L 612.046552 104.726666 
L 612.254196 146.302071 
L 612.461839 134.675027 
L 612.669482 112.027165 
L 612.877126 113.541748 
L 613.084769 175.561442 
L 613.292412 156.796853 
L 613.500056 153.390183 
L 613.707699 122.023264 
L 613.915343 133.585454 
L 614.122986 118.373687 
L 614.330629 127.689743 
L 614.538273 107.248398 
L 614.745916 164.287141 
L 614.953559 163.057227 
L 615.368846 105.735779 
L 615.576489 168.202894 
L 615.991776 134.511571 
L 616.199419 117.98697 
L 616.407063 122.883742 
L 616.614706 109.103603 
L 616.82235 105.398123 
L 617.029993 174.995305 
L 617.237636 131.859662 
L 617.652923 159.179456 
L 617.860566 125.66956 
L 618.06821 123.691888 
L 618.275853 119.800952 
L 618.483496 119.952391 
L 618.69114 146.246576 
L 618.898783 116.725166 
L 619.106427 121.565284 
L 619.31407 133.882977 
L 619.521713 87.948166 
L 619.729357 148.635127 
L 619.937 128.273071 
L 620.144643 119.110341 
L 620.352287 99.974706 
L 620.975217 137.590729 
L 621.18286 113.993035 
L 621.390503 137.254163 
L 621.598147 136.892683 
L 621.80579 127.922369 
L 622.013434 127.340038 
L 622.221077 134.110727 
L 622.636364 119.043217 
L 622.636364 119.043217 
" clip-path="url(#p8273bb9a26)" style="fill: none; stroke: #1f77b4; stroke-width: 1.5; stroke-linecap: square"/>
   </g>
   <g id="patch_3">
    <path d="M 90 384.48 
L 90 51.84 
" style="fill: none; stroke: #000000; stroke-width: 0.8; stroke-linejoin: miter; stroke-linecap: square"/>
   </g>
   <g id="patch_4">
    <path d="M 648 384.48 
L 648 51.84 
" style="fill: none; stroke: #000000; stroke-width: 0.8; stroke-linejoin: miter; stroke-linecap: square"/>
   </g>
   <g id="patch_5">
    <path d="M 90 384.48 
L 648 384.48 
" style="fill: none; stroke: #000000; stroke-width: 0.8; stroke-linejoin: miter; stroke-linecap: square"/>
   </g>
   <g id="patch_6">
    <path d="M 90 51.84 
L 648 51.84 
" style="fill: none; stroke: #000000; stroke-width: 0.8; stroke-linejoin: miter; stroke-linecap: square"/>
   </g>
   <g id="text_15">
    <!-- Average time per index -->
    <g transform="translate(298.700625 45.84) scale(0.12 -0.12)">
     <defs>
      <path id="DejaVuSans-70" d="M 1159 525 
L 1159 -1331 
L 581 -1331 
L 581 3500 
L 1159 3500 
L 1159 2969 
Q 1341 3281 1617 3432 
Q 1894 3584 2278 3584 
Q 2916 3584 3314 3078 
Q 3713 2572 3713 1747 
Q 3713 922 3314 415 
Q 2916 -91 2278 -91 
Q 1894 -91 1617 61 
Q 1341 213 1159 525 
z
M 3116 1747 
Q 3116 2381 2855 2742 
Q 2594 3103 2138 3103 
Q 1681 3103 1420 2742 
Q 1159 2381 1159 1747 
Q 1159 1113 1420 752 
Q 1681 391 2138 391 
Q 2594 391 2855 752 
Q 3116 1113 3116 1747 
z
" transform="scale(0.015625)"/>
     </defs>
     <use xlink:href="#DejaVuSans-41"/>
     <use xlink:href="#DejaVuSans-76" transform="translate(62.533203 0)"/>
     <use xlink:href="#DejaVuSans-65" transform="translate(121.712891 0)"/>
     <use xlink:href="#DejaVuSans-72" transform="translate(183.236328 0)"/>
     <use xlink:href="#DejaVuSans-61" transform="translate(224.349609 0)"/>
     <use xlink:href="#DejaVuSans-67" transform="translate(285.628906 0)"/>
     <use xlink:href="#DejaVuSans-65" transform="translate(349.105469 0)"/>
     <use xlink:href="#DejaVuSans-20" transform="translate(410.628906 0)"/>
     <use xlink:href="#DejaVuSans-74" transform="translate(442.416016 0)"/>
     <use xlink:href="#DejaVuSans-69" transform="translate(481.625 0)"/>
     <use xlink:href="#DejaVuSans-6d" transform="translate(509.408203 0)"/>
     <use xlink:href="#DejaVuSans-65" transform="translate(606.820312 0)"/>
     <use xlink:href="#DejaVuSans-20" transform="translate(668.34375 0)"/>
     <use xlink:href="#DejaVuSans-70" transform="translate(700.130859 0)"/>
     <use xlink:href="#DejaVuSans-65" transform="translate(763.607422 0)"/>
     <use xlink:href="#DejaVuSans-72" transform="translate(825.130859 0)"/>
     <use xlink:href="#DejaVuSans-20" transform="translate(866.244141 0)"/>
     <use xlink:href="#DejaVuSans-69" transform="translate(898.03125 0)"/>
     <use xlink:href="#DejaVuSans-6e" transform="translate(925.814453 0)"/>
     <use xlink:href="#DejaVuSans-64" transform="translate(989.193359 0)"/>
     <use xlink:href="#DejaVuSans-65" transform="translate(1052.669922 0)"/>
     <use xlink:href="#DejaVuSans-78" transform="translate(1112.443359 0)"/>
    </g>
   </g>
   <g id="legend_1">
    <g id="patch_7">
     <path d="M 544.020313 74.518125 
L 641 74.518125 
Q 643 74.518125 643 72.518125 
L 643 58.84 
Q 643 56.84 641 56.84 
L 544.020313 56.84 
Q 542.020313 56.84 542.020313 58.84 
L 542.020313 72.518125 
Q 542.020313 74.518125 544.020313 74.518125 
z
" style="fill: #ffffff; opacity: 0.8; stroke: #cccccc; stroke-linejoin: miter"/>
    </g>
    <g id="line2d_14">
     <path d="M 546.020313 64.938438 
L 556.020313 64.938438 
L 566.020313 64.938438 
" style="fill: none; stroke: #1f77b4; stroke-width: 1.5; stroke-linecap: square"/>
    </g>
    <g id="text_16">
     <!-- handleResult -->
     <g transform="translate(574.020313 68.438438) scale(0.1 -0.1)">
      <defs>
       <path id="DejaVuSans-68" d="M 3513 2113 
L 3513 0 
L 2938 0 
L 2938 2094 
Q 2938 2591 2744 2837 
Q 2550 3084 2163 3084 
Q 1697 3084 1428 2787 
Q 1159 2491 1159 1978 
L 1159 0 
L 581 0 
L 581 4863 
L 1159 4863 
L 1159 2956 
Q 1366 3272 1645 3428 
Q 1925 3584 2291 3584 
Q 2894 3584 3203 3211 
Q 3513 2838 3513 2113 
z
" transform="scale(0.015625)"/>
       <path id="DejaVuSans-6c" d="M 603 4863 
L 1178 4863 
L 1178 0 
L 603 0 
L 603 4863 
z
" transform="scale(0.015625)"/>
       <path id="DejaVuSans-52" d="M 2841 2188 
Q 3044 2119 3236 1894 
Q 3428 1669 3622 1275 
L 4263 0 
L 3584 0 
L 2988 1197 
Q 2756 1666 2539 1819 
Q 2322 1972 1947 1972 
L 1259 1972 
L 1259 0 
L 628 0 
L 628 4666 
L 2053 4666 
Q 2853 4666 3247 4331 
Q 3641 3997 3641 3322 
Q 3641 2881 3436 2590 
Q 3231 2300 2841 2188 
z
M 1259 4147 
L 1259 2491 
L 2053 2491 
Q 2509 2491 2742 2702 
Q 2975 2913 2975 3322 
Q 2975 3731 2742 3939 
Q 2509 4147 2053 4147 
L 1259 4147 
z
" transform="scale(0.015625)"/>
       <path id="DejaVuSans-75" d="M 544 1381 
L 544 3500 
L 1119 3500 
L 1119 1403 
Q 1119 906 1312 657 
Q 1506 409 1894 409 
Q 2359 409 2629 706 
Q 2900 1003 2900 1516 
L 2900 3500 
L 3475 3500 
L 3475 0 
L 2900 0 
L 2900 538 
Q 2691 219 2414 64 
Q 2138 -91 1772 -91 
Q 1169 -91 856 284 
Q 544 659 544 1381 
z
M 1991 3584 
L 1991 3584 
z
" transform="scale(0.015625)"/>
      </defs>
      <use xlink:href="#DejaVuSans-68"/>
      <use xlink:href="#DejaVuSans-61" transform="translate(63.378906 0)"/>
      <use xlink:href="#DejaVuSans-6e" transform="translate(124.658203 0)"/>
      <use xlink:href="#DejaVuSans-64" transform="translate(188.037109 0)"/>
      <use xlink:href="#DejaVuSans-6c" transform="translate(251.513672 0)"/>
      <use xlink:href="#DejaVuSans-65" transform="translate(279.296875 0)"/>
      <use xlink:href="#DejaVuSans-52" transform="translate(340.820312 0)"/>
      <use xlink:href="#DejaVuSans-65" transform="translate(405.802734 0)"/>
      <use xlink:href="#DejaVuSans-73" transform="translate(467.326172 0)"/>
      <use xlink:href="#DejaVuSans-75" transform="translate(519.425781 0)"/>
      <use xlink:href="#DejaVuSans-6c" transform="translate(582.804688 0)"/>
      <use xlink:href="#DejaVuSans-74" transform="translate(610.587891 0)"/>
     </g>
    </g>
   </g>
  </g>
 </g>
 <defs>
  <clipPath id="p8273bb9a26">
   <rect x="90" y="51.84" width="558" height="332.64"/>
  </clipPath>
 </defs>
</svg>
