<?xml version="1.0" encoding="utf-8" standalone="no"?>
<!DOCTYPE svg PUBLIC "-//W3C//DTD SVG 1.1//EN"
  "http://www.w3.org/Graphics/SVG/1.1/DTD/svg11.dtd">
<svg xmlns:xlink="http://www.w3.org/1999/xlink" width="720pt" height="432pt" viewBox="0 0 720 432" xmlns="http://www.w3.org/2000/svg" version="1.1">
 <metadata>
  <rdf:RDF xmlns:dc="http://purl.org/dc/elements/1.1/" xmlns:cc="http://creativecommons.org/ns#" xmlns:rdf="http://www.w3.org/1999/02/22-rdf-syntax-ns#">
   <cc:Work>
    <dc:type rdf:resource="http://purl.org/dc/dcmitype/StillImage"/>
    <dc:date>2025-06-10T03:16:12.886840</dc:date>
    <dc:format>image/svg+xml</dc:format>
    <dc:creator>
     <cc:Agent>
      <dc:title>Matplotlib v3.10.3, https://matplotlib.org/</dc:title>
     </cc:Agent>
    </dc:creator>
   </cc:Work>
  </rdf:RDF>
 </metadata>
 <defs>
  <style type="text/css">*{stroke-linejoin: round; stroke-linecap: butt}</style>
 </defs>
 <g id="figure_1">
  <g id="patch_1">
   <path d="M 0 432 
L 720 432 
L 720 0 
L 0 0 
z
" style="fill: #ffffff"/>
  </g>
  <g id="axes_1">
   <g id="patch_2">
    <path d="M 90 384.48 
L 648 384.48 
L 648 51.84 
L 90 51.84 
z
" style="fill: #ffffff"/>
   </g>
   <g id="matplotlib.axis_1">
    <g id="xtick_1">
     <g id="line2d_1">
      <defs>
       <path id="m2eda060aa0" d="M 0 0 
L 0 3.5 
" style="stroke: #000000; stroke-width: 0.8"/>
      </defs>
      <g>
       <use xlink:href="#m2eda060aa0" x="115.363636" y="384.48" style="stroke: #000000; stroke-width: 0.8"/>
      </g>
     </g>
     <g id="text_1">
      <!-- 0 -->
      <g transform="translate(112.182386 399.078438) scale(0.1 -0.1)">
       <defs>
        <path id="DejaVuSans-30" d="M 2034 4250 
Q 1547 4250 1301 3770 
Q 1056 3291 1056 2328 
Q 1056 1369 1301 889 
Q 1547 409 2034 409 
Q 2525 409 2770 889 
Q 3016 1369 3016 2328 
Q 3016 3291 2770 3770 
Q 2525 4250 2034 4250 
z
M 2034 4750 
Q 2819 4750 3233 4129 
Q 3647 3509 3647 2328 
Q 3647 1150 3233 529 
Q 2819 -91 2034 -91 
Q 1250 -91 836 529 
Q 422 1150 422 2328 
Q 422 3509 836 4129 
Q 1250 4750 2034 4750 
z
" transform="scale(0.015625)"/>
       </defs>
       <use xlink:href="#DejaVuSans-30"/>
      </g>
     </g>
    </g>
    <g id="xtick_2">
     <g id="line2d_2">
      <g>
       <use xlink:href="#m2eda060aa0" x="219.142836" y="384.48" style="stroke: #000000; stroke-width: 0.8"/>
      </g>
     </g>
     <g id="text_2">
      <!-- 500 -->
      <g transform="translate(209.599086 399.078438) scale(0.1 -0.1)">
       <defs>
        <path id="DejaVuSans-35" d="M 691 4666 
L 3169 4666 
L 3169 4134 
L 1269 4134 
L 1269 2991 
Q 1406 3038 1543 3061 
Q 1681 3084 1819 3084 
Q 2600 3084 3056 2656 
Q 3513 2228 3513 1497 
Q 3513 744 3044 326 
Q 2575 -91 1722 -91 
Q 1428 -91 1123 -41 
Q 819 9 494 109 
L 494 744 
Q 775 591 1075 516 
Q 1375 441 1709 441 
Q 2250 441 2565 725 
Q 2881 1009 2881 1497 
Q 2881 1984 2565 2268 
Q 2250 2553 1709 2553 
Q 1456 2553 1204 2497 
Q 953 2441 691 2322 
L 691 4666 
z
" transform="scale(0.015625)"/>
       </defs>
       <use xlink:href="#DejaVuSans-35"/>
       <use xlink:href="#DejaVuSans-30" transform="translate(63.623047 0)"/>
       <use xlink:href="#DejaVuSans-30" transform="translate(127.246094 0)"/>
      </g>
     </g>
    </g>
    <g id="xtick_3">
     <g id="line2d_3">
      <g>
       <use xlink:href="#m2eda060aa0" x="322.922035" y="384.48" style="stroke: #000000; stroke-width: 0.8"/>
      </g>
     </g>
     <g id="text_3">
      <!-- 1000 -->
      <g transform="translate(310.197035 399.078438) scale(0.1 -0.1)">
       <defs>
        <path id="DejaVuSans-31" d="M 794 531 
L 1825 531 
L 1825 4091 
L 703 3866 
L 703 4441 
L 1819 4666 
L 2450 4666 
L 2450 531 
L 3481 531 
L 3481 0 
L 794 0 
L 794 531 
z
" transform="scale(0.015625)"/>
       </defs>
       <use xlink:href="#DejaVuSans-31"/>
       <use xlink:href="#DejaVuSans-30" transform="translate(63.623047 0)"/>
       <use xlink:href="#DejaVuSans-30" transform="translate(127.246094 0)"/>
       <use xlink:href="#DejaVuSans-30" transform="translate(190.869141 0)"/>
      </g>
     </g>
    </g>
    <g id="xtick_4">
     <g id="line2d_4">
      <g>
       <use xlink:href="#m2eda060aa0" x="426.701235" y="384.48" style="stroke: #000000; stroke-width: 0.8"/>
      </g>
     </g>
     <g id="text_4">
      <!-- 1500 -->
      <g transform="translate(413.976235 399.078438) scale(0.1 -0.1)">
       <use xlink:href="#DejaVuSans-31"/>
       <use xlink:href="#DejaVuSans-35" transform="translate(63.623047 0)"/>
       <use xlink:href="#DejaVuSans-30" transform="translate(127.246094 0)"/>
       <use xlink:href="#DejaVuSans-30" transform="translate(190.869141 0)"/>
      </g>
     </g>
    </g>
    <g id="xtick_5">
     <g id="line2d_5">
      <g>
       <use xlink:href="#m2eda060aa0" x="530.480434" y="384.48" style="stroke: #000000; stroke-width: 0.8"/>
      </g>
     </g>
     <g id="text_5">
      <!-- 2000 -->
      <g transform="translate(517.755434 399.078438) scale(0.1 -0.1)">
       <defs>
        <path id="DejaVuSans-32" d="M 1228 531 
L 3431 531 
L 3431 0 
L 469 0 
L 469 531 
Q 828 903 1448 1529 
Q 2069 2156 2228 2338 
Q 2531 2678 2651 2914 
Q 2772 3150 2772 3378 
Q 2772 3750 2511 3984 
Q 2250 4219 1831 4219 
Q 1534 4219 1204 4116 
Q 875 4013 500 3803 
L 500 4441 
Q 881 4594 1212 4672 
Q 1544 4750 1819 4750 
Q 2544 4750 2975 4387 
Q 3406 4025 3406 3419 
Q 3406 3131 3298 2873 
Q 3191 2616 2906 2266 
Q 2828 2175 2409 1742 
Q 1991 1309 1228 531 
z
" transform="scale(0.015625)"/>
       </defs>
       <use xlink:href="#DejaVuSans-32"/>
       <use xlink:href="#DejaVuSans-30" transform="translate(63.623047 0)"/>
       <use xlink:href="#DejaVuSans-30" transform="translate(127.246094 0)"/>
       <use xlink:href="#DejaVuSans-30" transform="translate(190.869141 0)"/>
      </g>
     </g>
    </g>
    <g id="xtick_6">
     <g id="line2d_6">
      <g>
       <use xlink:href="#m2eda060aa0" x="634.259634" y="384.48" style="stroke: #000000; stroke-width: 0.8"/>
      </g>
     </g>
     <g id="text_6">
      <!-- 2500 -->
      <g transform="translate(621.534634 399.078438) scale(0.1 -0.1)">
       <use xlink:href="#DejaVuSans-32"/>
       <use xlink:href="#DejaVuSans-35" transform="translate(63.623047 0)"/>
       <use xlink:href="#DejaVuSans-30" transform="translate(127.246094 0)"/>
       <use xlink:href="#DejaVuSans-30" transform="translate(190.869141 0)"/>
      </g>
     </g>
    </g>
    <g id="text_7">
     <!-- Index -->
     <g transform="translate(355.233594 412.756563) scale(0.1 -0.1)">
      <defs>
       <path id="DejaVuSans-49" d="M 628 4666 
L 1259 4666 
L 1259 0 
L 628 0 
L 628 4666 
z
" transform="scale(0.015625)"/>
       <path id="DejaVuSans-6e" d="M 3513 2113 
L 3513 0 
L 2938 0 
L 2938 2094 
Q 2938 2591 2744 2837 
Q 2550 3084 2163 3084 
Q 1697 3084 1428 2787 
Q 1159 2491 1159 1978 
L 1159 0 
L 581 0 
L 581 3500 
L 1159 3500 
L 1159 2956 
Q 1366 3272 1645 3428 
Q 1925 3584 2291 3584 
Q 2894 3584 3203 3211 
Q 3513 2838 3513 2113 
z
" transform="scale(0.015625)"/>
       <path id="DejaVuSans-64" d="M 2906 2969 
L 2906 4863 
L 3481 4863 
L 3481 0 
L 2906 0 
L 2906 525 
Q 2725 213 2448 61 
Q 2172 -91 1784 -91 
Q 1150 -91 751 415 
Q 353 922 353 1747 
Q 353 2572 751 3078 
Q 1150 3584 1784 3584 
Q 2172 3584 2448 3432 
Q 2725 3281 2906 2969 
z
M 947 1747 
Q 947 1113 1208 752 
Q 1469 391 1925 391 
Q 2381 391 2643 752 
Q 2906 1113 2906 1747 
Q 2906 2381 2643 2742 
Q 2381 3103 1925 3103 
Q 1469 3103 1208 2742 
Q 947 2381 947 1747 
z
" transform="scale(0.015625)"/>
       <path id="DejaVuSans-65" d="M 3597 1894 
L 3597 1613 
L 953 1613 
Q 991 1019 1311 708 
Q 1631 397 2203 397 
Q 2534 397 2845 478 
Q 3156 559 3463 722 
L 3463 178 
Q 3153 47 2828 -22 
Q 2503 -91 2169 -91 
Q 1331 -91 842 396 
Q 353 884 353 1716 
Q 353 2575 817 3079 
Q 1281 3584 2069 3584 
Q 2775 3584 3186 3129 
Q 3597 2675 3597 1894 
z
M 3022 2063 
Q 3016 2534 2758 2815 
Q 2500 3097 2075 3097 
Q 1594 3097 1305 2825 
Q 1016 2553 972 2059 
L 3022 2063 
z
" transform="scale(0.015625)"/>
       <path id="DejaVuSans-78" d="M 3513 3500 
L 2247 1797 
L 3578 0 
L 2900 0 
L 1881 1375 
L 863 0 
L 184 0 
L 1544 1831 
L 300 3500 
L 978 3500 
L 1906 2253 
L 2834 3500 
L 3513 3500 
z
" transform="scale(0.015625)"/>
      </defs>
      <use xlink:href="#DejaVuSans-49"/>
      <use xlink:href="#DejaVuSans-6e" transform="translate(29.492188 0)"/>
      <use xlink:href="#DejaVuSans-64" transform="translate(92.871094 0)"/>
      <use xlink:href="#DejaVuSans-65" transform="translate(156.347656 0)"/>
      <use xlink:href="#DejaVuSans-78" transform="translate(216.121094 0)"/>
     </g>
    </g>
   </g>
   <g id="matplotlib.axis_2">
    <g id="ytick_1">
     <g id="line2d_7">
      <defs>
       <path id="m122895d94f" d="M 0 0 
L -3.5 0 
" style="stroke: #000000; stroke-width: 0.8"/>
      </defs>
      <g>
       <use xlink:href="#m122895d94f" x="90" y="384.48" style="stroke: #000000; stroke-width: 0.8"/>
      </g>
     </g>
     <g id="text_8">
      <!-- 0 -->
      <g transform="translate(76.6375 388.279219) scale(0.1 -0.1)">
       <use xlink:href="#DejaVuSans-30"/>
      </g>
     </g>
    </g>
    <g id="ytick_2">
     <g id="line2d_8">
      <g>
       <use xlink:href="#m122895d94f" x="90" y="318.126828" style="stroke: #000000; stroke-width: 0.8"/>
      </g>
     </g>
     <g id="text_9">
      <!-- 20000 -->
      <g transform="translate(51.1875 321.926047) scale(0.1 -0.1)">
       <use xlink:href="#DejaVuSans-32"/>
       <use xlink:href="#DejaVuSans-30" transform="translate(63.623047 0)"/>
       <use xlink:href="#DejaVuSans-30" transform="translate(127.246094 0)"/>
       <use xlink:href="#DejaVuSans-30" transform="translate(190.869141 0)"/>
       <use xlink:href="#DejaVuSans-30" transform="translate(254.492188 0)"/>
      </g>
     </g>
    </g>
    <g id="ytick_3">
     <g id="line2d_9">
      <g>
       <use xlink:href="#m122895d94f" x="90" y="251.773657" style="stroke: #000000; stroke-width: 0.8"/>
      </g>
     </g>
     <g id="text_10">
      <!-- 40000 -->
      <g transform="translate(51.1875 255.572876) scale(0.1 -0.1)">
       <defs>
        <path id="DejaVuSans-34" d="M 2419 4116 
L 825 1625 
L 2419 1625 
L 2419 4116 
z
M 2253 4666 
L 3047 4666 
L 3047 1625 
L 3713 1625 
L 3713 1100 
L 3047 1100 
L 3047 0 
L 2419 0 
L 2419 1100 
L 313 1100 
L 313 1709 
L 2253 4666 
z
" transform="scale(0.015625)"/>
       </defs>
       <use xlink:href="#DejaVuSans-34"/>
       <use xlink:href="#DejaVuSans-30" transform="translate(63.623047 0)"/>
       <use xlink:href="#DejaVuSans-30" transform="translate(127.246094 0)"/>
       <use xlink:href="#DejaVuSans-30" transform="translate(190.869141 0)"/>
       <use xlink:href="#DejaVuSans-30" transform="translate(254.492188 0)"/>
      </g>
     </g>
    </g>
    <g id="ytick_4">
     <g id="line2d_10">
      <g>
       <use xlink:href="#m122895d94f" x="90" y="185.420485" style="stroke: #000000; stroke-width: 0.8"/>
      </g>
     </g>
     <g id="text_11">
      <!-- 60000 -->
      <g transform="translate(51.1875 189.219704) scale(0.1 -0.1)">
       <defs>
        <path id="DejaVuSans-36" d="M 2113 2584 
Q 1688 2584 1439 2293 
Q 1191 2003 1191 1497 
Q 1191 994 1439 701 
Q 1688 409 2113 409 
Q 2538 409 2786 701 
Q 3034 994 3034 1497 
Q 3034 2003 2786 2293 
Q 2538 2584 2113 2584 
z
M 3366 4563 
L 3366 3988 
Q 3128 4100 2886 4159 
Q 2644 4219 2406 4219 
Q 1781 4219 1451 3797 
Q 1122 3375 1075 2522 
Q 1259 2794 1537 2939 
Q 1816 3084 2150 3084 
Q 2853 3084 3261 2657 
Q 3669 2231 3669 1497 
Q 3669 778 3244 343 
Q 2819 -91 2113 -91 
Q 1303 -91 875 529 
Q 447 1150 447 2328 
Q 447 3434 972 4092 
Q 1497 4750 2381 4750 
Q 2619 4750 2861 4703 
Q 3103 4656 3366 4563 
z
" transform="scale(0.015625)"/>
       </defs>
       <use xlink:href="#DejaVuSans-36"/>
       <use xlink:href="#DejaVuSans-30" transform="translate(63.623047 0)"/>
       <use xlink:href="#DejaVuSans-30" transform="translate(127.246094 0)"/>
       <use xlink:href="#DejaVuSans-30" transform="translate(190.869141 0)"/>
       <use xlink:href="#DejaVuSans-30" transform="translate(254.492188 0)"/>
      </g>
     </g>
    </g>
    <g id="ytick_5">
     <g id="line2d_11">
      <g>
       <use xlink:href="#m122895d94f" x="90" y="119.067314" style="stroke: #000000; stroke-width: 0.8"/>
      </g>
     </g>
     <g id="text_12">
      <!-- 80000 -->
      <g transform="translate(51.1875 122.866533) scale(0.1 -0.1)">
       <defs>
        <path id="DejaVuSans-38" d="M 2034 2216 
Q 1584 2216 1326 1975 
Q 1069 1734 1069 1313 
Q 1069 891 1326 650 
Q 1584 409 2034 409 
Q 2484 409 2743 651 
Q 3003 894 3003 1313 
Q 3003 1734 2745 1975 
Q 2488 2216 2034 2216 
z
M 1403 2484 
Q 997 2584 770 2862 
Q 544 3141 544 3541 
Q 544 4100 942 4425 
Q 1341 4750 2034 4750 
Q 2731 4750 3128 4425 
Q 3525 4100 3525 3541 
Q 3525 3141 3298 2862 
Q 3072 2584 2669 2484 
Q 3125 2378 3379 2068 
Q 3634 1759 3634 1313 
Q 3634 634 3220 271 
Q 2806 -91 2034 -91 
Q 1263 -91 848 271 
Q 434 634 434 1313 
Q 434 1759 690 2068 
Q 947 2378 1403 2484 
z
M 1172 3481 
Q 1172 3119 1398 2916 
Q 1625 2713 2034 2713 
Q 2441 2713 2670 2916 
Q 2900 3119 2900 3481 
Q 2900 3844 2670 4047 
Q 2441 4250 2034 4250 
Q 1625 4250 1398 4047 
Q 1172 3844 1172 3481 
z
" transform="scale(0.015625)"/>
       </defs>
       <use xlink:href="#DejaVuSans-38"/>
       <use xlink:href="#DejaVuSans-30" transform="translate(63.623047 0)"/>
       <use xlink:href="#DejaVuSans-30" transform="translate(127.246094 0)"/>
       <use xlink:href="#DejaVuSans-30" transform="translate(190.869141 0)"/>
       <use xlink:href="#DejaVuSans-30" transform="translate(254.492188 0)"/>
      </g>
     </g>
    </g>
    <g id="ytick_6">
     <g id="line2d_12">
      <g>
       <use xlink:href="#m122895d94f" x="90" y="52.714142" style="stroke: #000000; stroke-width: 0.8"/>
      </g>
     </g>
     <g id="text_13">
      <!-- 100000 -->
      <g transform="translate(44.825 56.513361) scale(0.1 -0.1)">
       <use xlink:href="#DejaVuSans-31"/>
       <use xlink:href="#DejaVuSans-30" transform="translate(63.623047 0)"/>
       <use xlink:href="#DejaVuSans-30" transform="translate(127.246094 0)"/>
       <use xlink:href="#DejaVuSans-30" transform="translate(190.869141 0)"/>
       <use xlink:href="#DejaVuSans-30" transform="translate(254.492188 0)"/>
       <use xlink:href="#DejaVuSans-30" transform="translate(318.115234 0)"/>
      </g>
     </g>
    </g>
    <g id="text_14">
     <!-- Average time (ms) -->
     <g transform="translate(38.745312 264.543594) rotate(-90) scale(0.1 -0.1)">
      <defs>
       <path id="DejaVuSans-41" d="M 2188 4044 
L 1331 1722 
L 3047 1722 
L 2188 4044 
z
M 1831 4666 
L 2547 4666 
L 4325 0 
L 3669 0 
L 3244 1197 
L 1141 1197 
L 716 0 
L 50 0 
L 1831 4666 
z
" transform="scale(0.015625)"/>
       <path id="DejaVuSans-76" d="M 191 3500 
L 800 3500 
L 1894 563 
L 2988 3500 
L 3597 3500 
L 2284 0 
L 1503 0 
L 191 3500 
z
" transform="scale(0.015625)"/>
       <path id="DejaVuSans-72" d="M 2631 2963 
Q 2534 3019 2420 3045 
Q 2306 3072 2169 3072 
Q 1681 3072 1420 2755 
Q 1159 2438 1159 1844 
L 1159 0 
L 581 0 
L 581 3500 
L 1159 3500 
L 1159 2956 
Q 1341 3275 1631 3429 
Q 1922 3584 2338 3584 
Q 2397 3584 2469 3576 
Q 2541 3569 2628 3553 
L 2631 2963 
z
" transform="scale(0.015625)"/>
       <path id="DejaVuSans-61" d="M 2194 1759 
Q 1497 1759 1228 1600 
Q 959 1441 959 1056 
Q 959 750 1161 570 
Q 1363 391 1709 391 
Q 2188 391 2477 730 
Q 2766 1069 2766 1631 
L 2766 1759 
L 2194 1759 
z
M 3341 1997 
L 3341 0 
L 2766 0 
L 2766 531 
Q 2569 213 2275 61 
Q 1981 -91 1556 -91 
Q 1019 -91 701 211 
Q 384 513 384 1019 
Q 384 1609 779 1909 
Q 1175 2209 1959 2209 
L 2766 2209 
L 2766 2266 
Q 2766 2663 2505 2880 
Q 2244 3097 1772 3097 
Q 1472 3097 1187 3025 
Q 903 2953 641 2809 
L 641 3341 
Q 956 3463 1253 3523 
Q 1550 3584 1831 3584 
Q 2591 3584 2966 3190 
Q 3341 2797 3341 1997 
z
" transform="scale(0.015625)"/>
       <path id="DejaVuSans-67" d="M 2906 1791 
Q 2906 2416 2648 2759 
Q 2391 3103 1925 3103 
Q 1463 3103 1205 2759 
Q 947 2416 947 1791 
Q 947 1169 1205 825 
Q 1463 481 1925 481 
Q 2391 481 2648 825 
Q 2906 1169 2906 1791 
z
M 3481 434 
Q 3481 -459 3084 -895 
Q 2688 -1331 1869 -1331 
Q 1566 -1331 1297 -1286 
Q 1028 -1241 775 -1147 
L 775 -588 
Q 1028 -725 1275 -790 
Q 1522 -856 1778 -856 
Q 2344 -856 2625 -561 
Q 2906 -266 2906 331 
L 2906 616 
Q 2728 306 2450 153 
Q 2172 0 1784 0 
Q 1141 0 747 490 
Q 353 981 353 1791 
Q 353 2603 747 3093 
Q 1141 3584 1784 3584 
Q 2172 3584 2450 3431 
Q 2728 3278 2906 2969 
L 2906 3500 
L 3481 3500 
L 3481 434 
z
" transform="scale(0.015625)"/>
       <path id="DejaVuSans-20" transform="scale(0.015625)"/>
       <path id="DejaVuSans-74" d="M 1172 4494 
L 1172 3500 
L 2356 3500 
L 2356 3053 
L 1172 3053 
L 1172 1153 
Q 1172 725 1289 603 
Q 1406 481 1766 481 
L 2356 481 
L 2356 0 
L 1766 0 
Q 1100 0 847 248 
Q 594 497 594 1153 
L 594 3053 
L 172 3053 
L 172 3500 
L 594 3500 
L 594 4494 
L 1172 4494 
z
" transform="scale(0.015625)"/>
       <path id="DejaVuSans-69" d="M 603 3500 
L 1178 3500 
L 1178 0 
L 603 0 
L 603 3500 
z
M 603 4863 
L 1178 4863 
L 1178 4134 
L 603 4134 
L 603 4863 
z
" transform="scale(0.015625)"/>
       <path id="DejaVuSans-6d" d="M 3328 2828 
Q 3544 3216 3844 3400 
Q 4144 3584 4550 3584 
Q 5097 3584 5394 3201 
Q 5691 2819 5691 2113 
L 5691 0 
L 5113 0 
L 5113 2094 
Q 5113 2597 4934 2840 
Q 4756 3084 4391 3084 
Q 3944 3084 3684 2787 
Q 3425 2491 3425 1978 
L 3425 0 
L 2847 0 
L 2847 2094 
Q 2847 2600 2669 2842 
Q 2491 3084 2119 3084 
Q 1678 3084 1418 2786 
Q 1159 2488 1159 1978 
L 1159 0 
L 581 0 
L 581 3500 
L 1159 3500 
L 1159 2956 
Q 1356 3278 1631 3431 
Q 1906 3584 2284 3584 
Q 2666 3584 2933 3390 
Q 3200 3197 3328 2828 
z
" transform="scale(0.015625)"/>
       <path id="DejaVuSans-28" d="M 1984 4856 
Q 1566 4138 1362 3434 
Q 1159 2731 1159 2009 
Q 1159 1288 1364 580 
Q 1569 -128 1984 -844 
L 1484 -844 
Q 1016 -109 783 600 
Q 550 1309 550 2009 
Q 550 2706 781 3412 
Q 1013 4119 1484 4856 
L 1984 4856 
z
" transform="scale(0.015625)"/>
       <path id="DejaVuSans-73" d="M 2834 3397 
L 2834 2853 
Q 2591 2978 2328 3040 
Q 2066 3103 1784 3103 
Q 1356 3103 1142 2972 
Q 928 2841 928 2578 
Q 928 2378 1081 2264 
Q 1234 2150 1697 2047 
L 1894 2003 
Q 2506 1872 2764 1633 
Q 3022 1394 3022 966 
Q 3022 478 2636 193 
Q 2250 -91 1575 -91 
Q 1294 -91 989 -36 
Q 684 19 347 128 
L 347 722 
Q 666 556 975 473 
Q 1284 391 1588 391 
Q 1994 391 2212 530 
Q 2431 669 2431 922 
Q 2431 1156 2273 1281 
Q 2116 1406 1581 1522 
L 1381 1569 
Q 847 1681 609 1914 
Q 372 2147 372 2553 
Q 372 3047 722 3315 
Q 1072 3584 1716 3584 
Q 2034 3584 2315 3537 
Q 2597 3491 2834 3397 
z
" transform="scale(0.015625)"/>
       <path id="DejaVuSans-29" d="M 513 4856 
L 1013 4856 
Q 1481 4119 1714 3412 
Q 1947 2706 1947 2009 
Q 1947 1309 1714 600 
Q 1481 -109 1013 -844 
L 513 -844 
Q 928 -128 1133 580 
Q 1338 1288 1338 2009 
Q 1338 2731 1133 3434 
Q 928 4138 513 4856 
z
" transform="scale(0.015625)"/>
      </defs>
      <use xlink:href="#DejaVuSans-41"/>
      <use xlink:href="#DejaVuSans-76" transform="translate(62.533203 0)"/>
      <use xlink:href="#DejaVuSans-65" transform="translate(121.712891 0)"/>
      <use xlink:href="#DejaVuSans-72" transform="translate(183.236328 0)"/>
      <use xlink:href="#DejaVuSans-61" transform="translate(224.349609 0)"/>
      <use xlink:href="#DejaVuSans-67" transform="translate(285.628906 0)"/>
      <use xlink:href="#DejaVuSans-65" transform="translate(349.105469 0)"/>
      <use xlink:href="#DejaVuSans-20" transform="translate(410.628906 0)"/>
      <use xlink:href="#DejaVuSans-74" transform="translate(442.416016 0)"/>
      <use xlink:href="#DejaVuSans-69" transform="translate(481.625 0)"/>
      <use xlink:href="#DejaVuSans-6d" transform="translate(509.408203 0)"/>
      <use xlink:href="#DejaVuSans-65" transform="translate(606.820312 0)"/>
      <use xlink:href="#DejaVuSans-20" transform="translate(668.34375 0)"/>
      <use xlink:href="#DejaVuSans-28" transform="translate(700.130859 0)"/>
      <use xlink:href="#DejaVuSans-6d" transform="translate(739.144531 0)"/>
      <use xlink:href="#DejaVuSans-73" transform="translate(836.556641 0)"/>
      <use xlink:href="#DejaVuSans-29" transform="translate(888.65625 0)"/>
     </g>
    </g>
   </g>
   <g id="line2d_13">
    <path d="M 115.363636 384.473194 
L 116.816545 384.466804 
L 120.967713 384.476864 
L 121.175272 384.321676 
L 121.38283 384.472632 
L 137.572385 384.458348 
L 137.779943 384.145674 
L 137.987502 384.461723 
L 140.893319 384.450538 
L 141.100878 384.312183 
L 141.308436 384.450724 
L 144.214254 384.457045 
L 144.421812 383.802274 
L 144.629371 384.459618 
L 157.497991 384.456709 
L 157.70555 383.61618 
L 157.913108 384.457653 
L 159.158459 384.456224 
L 159.366017 384.308108 
L 159.573575 384.453068 
L 160.818926 384.454414 
L 161.026484 384.305966 
L 161.234043 384.457095 
L 162.479393 384.456106 
L 162.686951 384.309787 
L 162.89451 384.456255 
L 164.13986 384.455381 
L 164.347419 383.661597 
L 164.554977 384.456876 
L 170.781729 384.456934 
L 170.989287 384.387012 
L 171.404404 384.45758 
L 177.423598 384.45584 
L 177.631156 383.614702 
L 177.838714 384.453514 
L 179.084065 384.455745 
L 179.291623 384.304668 
L 179.499182 384.456002 
L 180.744532 384.454432 
L 180.95209 384.308329 
L 181.159649 384.456307 
L 182.404999 384.454993 
L 182.612558 384.306927 
L 182.820116 384.454908 
L 184.065466 384.455028 
L 184.273025 383.64484 
L 184.480583 384.457619 
L 197.349204 384.455264 
L 197.556762 383.604585 
L 197.764321 384.454472 
L 199.009671 384.452936 
L 199.21723 384.304938 
L 199.424788 384.451998 
L 200.670138 384.452331 
L 200.877697 384.301365 
L 201.085255 384.452916 
L 202.330606 384.449513 
L 202.538164 384.299539 
L 202.745722 384.451437 
L 203.991073 384.452394 
L 204.198631 383.607239 
L 204.40619 384.455997 
L 213.953876 384.453586 
L 214.161434 384.377714 
L 214.576551 384.453437 
L 217.27481 384.454266 
L 217.482369 383.579408 
L 217.689927 384.451979 
L 218.935277 384.451034 
L 219.142836 384.300805 
L 219.350394 384.450634 
L 220.595745 384.451052 
L 220.803303 384.301136 
L 221.010861 384.452615 
L 222.256212 384.451899 
L 222.46377 384.297157 
L 222.671329 384.452208 
L 223.916679 384.450548 
L 224.124237 383.543355 
L 224.331796 384.451354 
L 225.577146 384.449481 
L 225.784705 384.275408 
L 225.992263 384.451024 
L 227.237613 384.448589 
L 227.445172 384.284898 
L 227.65273 384.449927 
L 228.898081 384.447358 
L 229.105639 384.278348 
L 229.313197 384.449417 
L 230.558548 384.447865 
L 230.766106 383.413795 
L 230.973665 384.448102 
L 232.219015 384.446178 
L 232.426573 384.244676 
L 232.634132 384.441939 
L 233.879482 384.446972 
L 234.087041 384.264762 
L 234.294599 384.446398 
L 235.539949 384.446544 
L 235.747508 384.258847 
L 235.955066 384.446412 
L 237.200417 384.445006 
L 237.407975 383.313612 
L 237.615533 384.44286 
L 238.860884 384.43976 
L 239.068442 384.240052 
L 239.276001 384.441171 
L 240.521351 384.442977 
L 240.728909 384.245452 
L 240.936468 384.444344 
L 242.181818 384.443782 
L 242.389377 384.242454 
L 242.596935 384.44201 
L 243.842285 384.441179 
L 244.049844 383.222983 
L 244.257402 384.442896 
L 245.502753 384.441105 
L 245.710311 384.229716 
L 245.917869 384.440321 
L 247.16322 384.440637 
L 247.370778 384.227069 
L 247.578337 384.44031 
L 248.823687 384.439367 
L 249.031245 384.213818 
L 249.238804 384.439934 
L 250.484154 384.440637 
L 250.691713 382.006553 
L 250.899271 384.439717 
L 252.144621 384.438642 
L 252.35218 384.219919 
L 252.559738 384.442293 
L 253.805089 384.440852 
L 254.012647 384.225794 
L 254.220205 384.439351 
L 255.465556 384.44076 
L 255.673114 384.219805 
L 255.880673 384.440408 
L 257.126023 384.440881 
L 257.333581 382.108192 
L 257.54114 384.436925 
L 258.78649 384.438835 
L 258.994049 384.204954 
L 259.201607 384.441615 
L 260.446957 384.440646 
L 260.654516 384.213209 
L 260.862074 384.442197 
L 262.107424 384.441556 
L 262.314983 384.216558 
L 262.522541 384.44108 
L 263.767892 384.44108 
L 263.97545 382.119429 
L 264.183008 384.441705 
L 265.428359 384.440981 
L 265.635917 384.218238 
L 265.843476 384.441316 
L 267.088826 384.439716 
L 267.296384 384.222027 
L 267.503943 384.441002 
L 268.749293 384.437729 
L 268.956852 384.22275 
L 269.16441 384.441451 
L 270.40976 384.439095 
L 270.617319 382.051858 
L 270.824877 384.439495 
L 272.070228 384.437778 
L 272.277786 384.188862 
L 272.485344 384.438386 
L 273.730695 384.438573 
L 273.938253 384.219514 
L 274.145812 384.441346 
L 275.391162 384.43974 
L 275.59872 384.21989 
L 275.806279 384.439158 
L 277.051629 384.43594 
L 277.259188 383.107286 
L 277.466746 384.435639 
L 277.881863 384.437584 
L 278.089421 384.205012 
L 278.29698 384.438442 
L 278.712096 384.435505 
L 278.919655 384.213182 
L 279.127213 384.43526 
L 279.54233 384.436998 
L 279.749888 384.220808 
L 279.957447 384.437548 
L 280.372564 384.438002 
L 280.580122 383.398287 
L 280.78768 384.435926 
L 281.202797 384.436646 
L 281.410356 384.223603 
L 281.617914 384.43577 
L 282.033031 384.437474 
L 282.240589 384.220277 
L 282.448148 384.436867 
L 282.863264 384.43692 
L 283.070823 384.215475 
L 283.278381 384.435371 
L 283.693498 384.436549 
L 283.901056 383.387951 
L 284.108615 384.436162 
L 284.523732 384.436777 
L 284.73129 384.214512 
L 284.938848 384.437674 
L 285.353965 384.436863 
L 285.561524 384.218137 
L 285.769082 384.437144 
L 286.184199 384.433674 
L 286.391757 384.217575 
L 286.599316 384.436006 
L 287.014432 384.436187 
L 287.221991 383.39152 
L 287.429549 384.436657 
L 287.844666 384.436857 
L 288.052224 384.214652 
L 288.259783 384.435419 
L 288.6749 384.436621 
L 288.882458 384.218123 
L 289.090016 384.433317 
L 289.505133 384.434623 
L 289.712692 384.216774 
L 289.92025 384.435782 
L 290.335367 384.436026 
L 290.542925 382.355928 
L 290.750484 384.437915 
L 291.995834 384.439046 
L 292.203392 384.22273 
L 292.410951 384.440343 
L 293.656301 384.438902 
L 293.86386 384.212183 
L 294.071418 384.437061 
L 295.316768 384.437773 
L 295.524327 384.216828 
L 295.731885 384.438774 
L 296.977236 384.438923 
L 297.184794 382.103185 
L 297.392352 384.439733 
L 298.637703 384.439382 
L 298.845261 384.218473 
L 299.05282 384.437945 
L 300.29817 384.438279 
L 300.505728 384.217422 
L 300.713287 384.43952 
L 301.958637 384.438537 
L 302.166196 384.21741 
L 302.373754 384.439675 
L 303.619104 384.439066 
L 303.826663 382.066679 
L 304.034221 384.439414 
L 305.279571 384.437588 
L 305.48713 384.215199 
L 305.694688 384.437116 
L 306.940039 384.438123 
L 307.147597 384.213482 
L 307.355155 384.438598 
L 308.600506 384.437855 
L 308.808064 384.217789 
L 309.015623 384.435694 
L 310.260973 384.43651 
L 310.468531 382.077185 
L 310.67609 384.437904 
L 311.92144 384.436614 
L 312.128999 384.213981 
L 312.336557 384.437443 
L 313.581907 384.436436 
L 313.789466 384.209691 
L 313.997024 384.437415 
L 315.242375 384.437894 
L 315.449933 384.21269 
L 315.657491 384.437256 
L 316.902842 384.43303 
L 317.1104 383.050091 
L 317.317959 384.432268 
L 317.733075 384.433806 
L 317.940634 384.206854 
L 318.148192 384.428541 
L 318.563309 384.43216 
L 318.770867 384.213069 
L 318.978426 384.431314 
L 319.393543 384.427892 
L 319.601101 384.206916 
L 319.808659 384.434814 
L 320.223776 384.433176 
L 320.431335 383.338409 
L 320.638893 384.433212 
L 321.05401 384.434085 
L 321.261568 384.208798 
L 321.469127 384.432022 
L 321.884243 384.432206 
L 322.091802 384.203605 
L 322.29936 384.433981 
L 322.714477 384.431795 
L 322.922035 384.201546 
L 323.129594 384.431665 
L 323.544711 384.433508 
L 323.752269 383.361371 
L 323.959827 384.433891 
L 324.374944 384.434822 
L 324.582503 384.208666 
L 324.790061 384.434113 
L 325.205178 384.433771 
L 325.412736 384.212135 
L 325.620295 384.431841 
L 326.035411 384.432019 
L 326.24297 384.212332 
L 326.450528 384.432492 
L 326.865645 384.432729 
L 327.073203 383.346839 
L 327.280762 384.432423 
L 327.695879 384.433313 
L 327.903437 384.188237 
L 328.110995 384.430863 
L 328.526112 384.431908 
L 328.733671 384.200435 
L 328.941229 384.428952 
L 329.356346 384.432923 
L 329.563904 384.207303 
L 329.771463 384.433391 
L 330.186579 384.433507 
L 330.394138 382.328236 
L 330.601696 384.435469 
L 331.847047 384.435507 
L 332.054605 384.20646 
L 332.262163 384.432563 
L 333.507514 384.433771 
L 333.715072 384.209031 
L 333.922631 384.429892 
L 335.167981 384.42625 
L 335.375539 384.167733 
L 335.583098 384.428845 
L 336.828448 384.428321 
L 337.036007 381.683112 
L 337.243565 384.43397 
L 338.488915 384.423288 
L 338.696474 384.164612 
L 338.904032 384.431473 
L 340.149383 384.428281 
L 340.356941 384.164668 
L 340.564499 384.429448 
L 341.80985 384.428659 
L 342.017408 384.195899 
L 342.224967 384.430718 
L 343.470317 384.427527 
L 343.677875 381.806085 
L 343.885434 384.429646 
L 345.130784 384.432828 
L 345.338343 384.201018 
L 345.545901 384.43231 
L 346.791251 384.430644 
L 346.99881 384.204298 
L 347.206368 384.432263 
L 348.451718 384.432684 
L 348.659277 384.203462 
L 348.866835 384.432287 
L 350.112186 384.431999 
L 350.319744 381.976528 
L 350.527302 384.433634 
L 351.772653 384.432502 
L 351.980211 384.190877 
L 352.18777 384.434766 
L 353.43312 384.432067 
L 353.640678 384.201174 
L 353.848237 384.434587 
L 355.093587 384.430337 
L 355.301146 384.204334 
L 355.508704 384.433865 
L 356.754054 384.431666 
L 356.961613 383.056889 
L 357.169171 384.429882 
L 357.584288 384.430779 
L 357.791846 384.204248 
L 357.999405 384.43022 
L 358.414522 384.431365 
L 358.62208 384.210276 
L 358.829638 384.430728 
L 359.244755 384.431719 
L 359.452314 384.207274 
L 359.659872 384.432379 
L 360.074989 384.431516 
L 360.282547 383.355152 
L 360.490106 384.429332 
L 360.905222 384.430426 
L 361.112781 384.199813 
L 361.320339 384.430633 
L 361.735456 384.430217 
L 361.943014 384.207409 
L 362.150573 384.430248 
L 362.56569 384.429801 
L 362.773248 384.197566 
L 362.980806 384.427411 
L 363.395923 384.430815 
L 363.603482 383.350293 
L 363.81104 384.428412 
L 364.226157 384.428673 
L 364.433715 384.197865 
L 364.641274 384.429265 
L 365.05639 384.427228 
L 365.263949 384.199581 
L 365.471507 384.428483 
L 365.886624 384.426591 
L 366.094182 384.201867 
L 366.301741 384.43025 
L 366.716858 384.425281 
L 366.924416 383.336727 
L 367.131974 384.425712 
L 367.547091 384.418188 
L 367.75465 384.19222 
L 367.962208 384.428362 
L 368.377325 384.427479 
L 368.584883 384.195738 
L 368.792442 384.427113 
L 369.207558 384.427657 
L 369.415117 384.195718 
L 369.622675 384.428817 
L 370.037792 384.427021 
L 370.24535 382.284395 
L 370.452909 384.433471 
L 371.698259 384.431498 
L 371.905818 384.1964 
L 372.113376 384.4314 
L 373.358726 384.430821 
L 373.566285 384.190181 
L 373.773843 384.432538 
L 375.019194 384.43029 
L 375.226752 384.193737 
L 375.43431 384.432494 
L 376.679661 384.430107 
L 376.887219 381.950337 
L 377.094778 384.430229 
L 378.340128 384.428733 
L 378.547686 384.189309 
L 378.755245 384.431958 
L 380.000595 384.431012 
L 380.208154 384.196721 
L 380.415712 384.432102 
L 381.661062 384.427665 
L 381.868621 384.195933 
L 382.076179 384.431424 
L 383.32153 384.429121 
L 383.529088 381.935376 
L 383.736646 384.43217 
L 384.981997 384.430163 
L 385.189555 384.192756 
L 385.397114 384.430458 
L 386.642464 384.427104 
L 386.850022 384.191036 
L 387.057581 384.426542 
L 388.302931 384.429132 
L 388.51049 384.194908 
L 388.718048 384.428774 
L 389.963398 384.427233 
L 390.170957 381.929496 
L 390.378515 384.429919 
L 391.623865 384.425606 
L 391.831424 384.195015 
L 392.038982 384.429058 
L 393.284333 384.428924 
L 393.491891 384.189738 
L 393.699449 384.431056 
L 394.9448 384.427229 
L 395.152358 384.19072 
L 395.359917 384.426107 
L 396.605267 384.429018 
L 396.812825 382.987461 
L 397.020384 384.426566 
L 397.435501 384.426413 
L 397.643059 384.196326 
L 397.850617 384.427113 
L 398.265734 384.42523 
L 398.473293 384.186985 
L 398.680851 384.427275 
L 399.095968 384.42816 
L 399.303526 384.199068 
L 399.511085 384.427439 
L 399.926201 384.424429 
L 400.13376 383.300897 
L 400.341318 384.425157 
L 400.756435 384.424251 
L 400.963993 384.190154 
L 401.171552 384.424089 
L 401.586669 384.42577 
L 401.794227 384.194316 
L 402.001785 384.425577 
L 402.416902 384.427182 
L 402.624461 384.193745 
L 402.832019 384.425286 
L 403.247136 384.42413 
L 403.454694 383.320597 
L 403.662253 384.424824 
L 404.077369 384.424341 
L 404.284928 384.189917 
L 404.492486 384.425844 
L 404.907603 384.424393 
L 405.115161 384.195669 
L 405.32272 384.425641 
L 405.737837 384.424775 
L 405.945395 384.188636 
L 406.152953 384.424078 
L 406.56807 384.423618 
L 406.775629 383.310136 
L 406.983187 384.425834 
L 407.398304 384.424157 
L 407.605862 384.188248 
L 407.813421 384.42211 
L 408.228537 384.42257 
L 408.436096 384.179422 
L 408.643654 384.425407 
L 409.058771 384.422525 
L 409.266329 384.185225 
L 409.473888 384.425922 
L 409.889005 384.424497 
L 410.096563 350.838403 
L 410.304121 384.423458 
L 410.719238 384.42335 
L 410.926797 384.193373 
L 411.134355 384.425936 
L 411.549472 384.42646 
L 411.75703 384.191372 
L 411.964589 384.423308 
L 412.379705 384.423901 
L 412.587264 384.191863 
L 412.794822 384.425187 
L 413.209939 384.425696 
L 413.417497 383.311586 
L 413.625056 384.424538 
L 414.040173 384.42704 
L 414.247731 384.194046 
L 414.455289 384.425483 
L 414.870406 384.424849 
L 415.077965 384.194283 
L 415.285523 384.425743 
L 415.70064 384.424126 
L 415.908198 384.188514 
L 416.115757 384.423477 
L 416.530873 384.42561 
L 416.738432 383.307642 
L 416.94599 384.424627 
L 417.361107 384.423939 
L 417.568665 384.19629 
L 417.776224 384.424509 
L 418.191341 384.424262 
L 418.398899 384.182419 
L 418.606457 384.425457 
L 419.021574 384.425687 
L 419.229133 384.195789 
L 419.436691 384.422071 
L 419.851808 384.423753 
L 420.059366 383.30421 
L 420.266925 384.423074 
L 420.682041 384.423178 
L 420.8896 384.188714 
L 421.097158 384.42503 
L 421.512275 384.424952 
L 421.719833 384.189875 
L 421.927392 384.417864 
L 422.342509 384.422728 
L 422.550067 384.186599 
L 422.757625 384.421619 
L 423.172742 384.423652 
L 423.380301 383.306462 
L 423.587859 384.425323 
L 424.002976 384.417135 
L 424.210534 384.18773 
L 424.418093 384.423101 
L 424.833209 384.425342 
L 425.040768 384.192197 
L 425.248326 384.425759 
L 425.663443 384.425673 
L 425.871001 384.192038 
L 426.07856 384.424604 
L 426.493677 384.423316 
L 426.701235 383.303785 
L 426.908793 384.424465 
L 427.32391 384.423071 
L 427.531469 384.187873 
L 427.739027 384.42345 
L 428.154144 384.423216 
L 428.361702 384.187557 
L 428.569261 384.423024 
L 428.984377 384.423023 
L 429.191936 384.192358 
L 429.399494 384.422538 
L 429.814611 384.421963 
L 430.022169 383.313699 
L 430.229728 384.421798 
L 430.644845 384.419501 
L 430.852403 384.195731 
L 431.059961 384.422817 
L 431.475078 384.42522 
L 431.682637 384.180648 
L 431.890195 384.423566 
L 432.305312 384.424183 
L 432.51287 384.191231 
L 432.720429 384.421604 
L 433.135545 384.420333 
L 433.343104 383.31777 
L 433.550662 384.421615 
L 433.965779 384.418411 
L 434.173337 384.189514 
L 434.380896 384.422924 
L 434.796012 384.423585 
L 435.003571 384.190065 
L 435.211129 384.422152 
L 435.626246 384.421738 
L 435.833804 384.187807 
L 436.041363 384.422605 
L 436.45648 384.423171 
L 436.664038 383.296333 
L 436.871596 384.419407 
L 437.286713 384.416974 
L 437.494272 384.180488 
L 437.70183 384.423001 
L 438.116947 384.420599 
L 438.324505 384.187057 
L 438.532064 384.421499 
L 438.94718 384.418608 
L 439.154739 384.182741 
L 439.362297 384.41851 
L 439.777414 384.422297 
L 439.984972 383.304816 
L 440.192531 384.418704 
L 440.607648 384.418788 
L 440.815206 384.186503 
L 441.022764 384.419839 
L 441.437881 384.417754 
L 441.64544 384.184742 
L 441.852998 384.420236 
L 442.268115 384.422133 
L 442.475673 384.171723 
L 442.683232 384.41766 
L 443.098348 384.417515 
L 443.305907 383.292272 
L 443.513465 384.420967 
L 443.928582 384.417478 
L 444.13614 384.186363 
L 444.343699 384.420631 
L 444.758816 384.420273 
L 444.966374 384.181478 
L 445.173932 384.420891 
L 445.589049 384.423466 
L 445.796608 384.174958 
L 446.004166 384.419724 
L 446.419283 384.417249 
L 446.626841 383.29014 
L 446.8344 384.419203 
L 447.249516 384.416401 
L 447.457075 384.169619 
L 447.664633 384.416564 
L 448.07975 384.421846 
L 448.287308 384.177206 
L 448.494867 384.417572 
L 448.909984 384.420651 
L 449.117542 384.177468 
L 449.3251 384.418501 
L 449.740217 384.419721 
L 449.947776 383.289011 
L 450.155334 384.418678 
L 450.570451 384.417578 
L 450.778009 384.180491 
L 450.985568 384.417704 
L 451.400684 384.418411 
L 451.608243 384.177445 
L 451.815801 384.420948 
L 452.230918 384.419428 
L 452.438476 384.178528 
L 452.646035 384.420545 
L 453.061152 384.418775 
L 453.26871 383.289662 
L 453.476268 384.417441 
L 453.891385 384.415955 
L 454.098944 384.151761 
L 454.306502 384.417868 
L 454.721619 384.416809 
L 454.929177 384.177042 
L 455.136736 384.419958 
L 455.551852 384.417104 
L 455.759411 384.171501 
L 455.966969 384.418472 
L 456.382086 384.41699 
L 456.589644 383.277098 
L 456.797203 384.413922 
L 457.21232 384.416293 
L 457.419878 384.175193 
L 457.627436 384.409391 
L 458.042553 384.417603 
L 458.250112 384.16917 
L 458.45767 384.414794 
L 458.872787 384.420455 
L 459.080345 384.179296 
L 459.287904 384.418583 
L 459.70302 384.418559 
L 459.910579 383.260545 
L 460.118137 384.414066 
L 460.533254 384.413981 
L 460.740812 384.147304 
L 460.948371 384.412509 
L 461.363488 384.41876 
L 461.571046 384.170366 
L 461.778604 384.416186 
L 462.193721 384.418312 
L 462.40128 384.170733 
L 462.608838 384.415202 
L 463.023955 384.417446 
L 463.231513 368.995972 
L 463.439072 384.418714 
L 463.854188 384.416677 
L 464.061747 384.183685 
L 464.269305 384.420716 
L 464.684422 384.417153 
L 464.89198 384.174641 
L 465.099539 384.422343 
L 465.514656 384.421461 
L 465.722214 384.175197 
L 465.929772 384.417577 
L 466.344889 384.418071 
L 466.552448 383.285598 
L 466.760006 384.418915 
L 467.175123 384.419223 
L 467.382681 384.180581 
L 467.59024 384.41785 
L 468.005356 384.417735 
L 468.212915 384.173851 
L 468.420473 384.418737 
L 468.83559 384.416288 
L 469.043148 384.178473 
L 469.250707 384.419229 
L 469.665824 384.419454 
L 469.873382 383.264794 
L 470.08094 384.414313 
L 470.496057 384.415013 
L 470.703616 384.162892 
L 470.911174 384.417102 
L 471.326291 384.419191 
L 471.533849 384.172187 
L 471.741408 384.418279 
L 472.156524 384.413312 
L 472.364083 384.167595 
L 472.571641 384.413056 
L 472.986758 384.41642 
L 473.194316 383.261222 
L 473.401875 384.416074 
L 473.816992 384.415248 
L 474.02455 384.170581 
L 474.232108 384.416609 
L 474.647225 384.416325 
L 474.854784 384.171037 
L 475.062342 384.417269 
L 475.477459 384.417673 
L 475.685017 384.173025 
L 475.892576 384.414691 
L 476.307692 384.415846 
L 476.515251 383.259586 
L 476.722809 384.419129 
L 477.137926 384.418153 
L 477.345484 384.176428 
L 477.553043 384.418394 
L 477.96816 384.418768 
L 478.175718 384.17781 
L 478.383276 384.419498 
L 478.798393 384.416855 
L 479.005951 384.17725 
L 479.21351 384.418538 
L 479.628627 384.417019 
L 479.836185 383.265798 
L 480.043743 384.415983 
L 480.45886 384.416004 
L 480.666419 384.173907 
L 480.873977 384.418558 
L 481.289094 384.418473 
L 481.496652 384.17306 
L 481.704211 384.416309 
L 482.119327 384.417331 
L 482.326886 384.140291 
L 482.534444 384.415598 
L 482.949561 384.416395 
L 483.157119 383.254474 
L 483.364678 384.41621 
L 483.779795 384.415928 
L 483.987353 384.177348 
L 484.194911 384.417422 
L 484.610028 384.419097 
L 484.817587 384.173376 
L 485.025145 384.413622 
L 485.440262 384.415872 
L 485.64782 384.168255 
L 485.855379 384.415227 
L 486.270495 384.413809 
L 486.478054 383.255967 
L 486.685612 384.410354 
L 487.100729 384.413897 
L 487.308287 384.161473 
L 487.515846 384.404078 
L 487.930963 384.414154 
L 488.138521 384.172848 
L 488.346079 384.414909 
L 488.761196 384.417046 
L 488.968755 384.173276 
L 489.176313 384.416224 
L 489.59143 384.415078 
L 489.798988 383.260936 
L 490.006547 384.412728 
L 490.421663 384.41293 
L 490.629222 384.16964 
L 490.83678 384.416764 
L 491.251897 384.414215 
L 491.459455 384.171727 
L 491.667014 384.41692 
L 492.082131 384.418261 
L 492.289689 384.176368 
L 492.497247 384.411274 
L 492.912364 384.41718 
L 493.119923 383.267069 
L 493.327481 384.414524 
L 493.742598 384.414995 
L 493.950156 384.165793 
L 494.157715 384.412033 
L 494.572831 384.416113 
L 494.78039 384.159196 
L 494.987948 384.412946 
L 495.403065 384.414892 
L 495.610623 384.168265 
L 495.818182 384.414196 
L 496.233299 384.409954 
L 496.440857 383.233326 
L 496.648415 384.412682 
L 497.063532 384.412059 
L 497.271091 384.168391 
L 497.478649 384.410969 
L 497.893766 384.413157 
L 498.101324 384.170781 
L 498.308883 384.411849 
L 498.723999 384.413138 
L 498.931558 384.166452 
L 499.139116 384.412899 
L 499.554233 384.41409 
L 499.761791 383.246419 
L 499.96935 384.412227 
L 500.384467 384.41005 
L 500.592025 384.164921 
L 500.799583 384.412446 
L 501.2147 384.410975 
L 501.422259 384.16707 
L 501.629817 384.412573 
L 502.044934 384.41374 
L 502.252492 384.16926 
L 502.460051 384.41245 
L 502.875167 384.412707 
L 503.082726 383.248625 
L 503.290284 384.411036 
L 503.705401 384.410568 
L 503.912959 384.162138 
L 504.120518 384.414064 
L 504.535635 384.410891 
L 504.743193 384.163696 
L 504.950751 384.410917 
L 505.365868 384.412796 
L 505.573427 384.160382 
L 505.780985 384.413422 
L 506.196102 384.413714 
L 506.40366 383.224146 
L 506.611219 384.411288 
L 507.026335 384.409476 
L 507.233894 384.140669 
L 507.441452 384.412668 
L 507.856569 384.409366 
L 508.064127 384.154878 
L 508.271686 384.411928 
L 508.686803 384.413204 
L 508.894361 384.153816 
L 509.101919 384.412599 
L 509.517036 384.41228 
L 509.724595 383.227989 
L 509.932153 384.410502 
L 510.34727 384.405201 
L 510.554828 384.143833 
L 510.762387 384.409798 
L 511.177503 384.410636 
L 511.385062 384.157032 
L 511.59262 384.408666 
L 512.007737 384.412171 
L 512.215295 384.150645 
L 512.422854 384.41051 
L 512.837971 384.411336 
L 513.045529 383.229856 
L 513.253087 384.409244 
L 513.668204 384.407407 
L 513.875763 384.126843 
L 514.083321 384.410933 
L 514.498438 384.408739 
L 514.705996 384.154354 
L 514.913555 384.410759 
L 515.328671 384.410107 
L 515.53623 384.158178 
L 515.743788 384.409079 
L 516.158905 384.411719 
L 516.366463 368.637511 
L 516.574022 384.404843 
L 516.989139 384.404557 
L 517.196697 384.142757 
L 517.404255 384.406916 
L 517.819372 384.402635 
L 518.026931 384.147793 
L 518.234489 384.40788 
L 518.649606 384.408278 
L 518.857164 384.140531 
L 519.064723 384.408478 
L 519.479839 384.407327 
L 519.687398 383.20391 
L 519.894956 384.401776 
L 520.310073 384.404058 
L 520.517631 384.131888 
L 520.72519 384.402874 
L 521.140307 384.402989 
L 521.347865 384.142495 
L 521.555423 384.402675 
L 521.97054 384.402591 
L 522.178098 384.145215 
L 522.385657 384.405707 
L 522.800774 384.404027 
L 523.008332 383.196124 
L 523.21589 384.403259 
L 523.631007 384.403039 
L 523.838566 384.139024 
L 524.046124 384.405803 
L 524.461241 384.401905 
L 524.668799 384.132878 
L 524.876358 384.404144 
L 525.291474 384.403759 
L 525.499033 384.129726 
L 525.706591 384.402503 
L 526.121708 384.405545 
L 526.329266 383.184301 
L 526.536825 384.400398 
L 526.951942 384.403015 
L 527.1595 384.106289 
L 527.367058 384.404572 
L 527.782175 384.40394 
L 527.989734 384.137183 
L 528.197292 384.403031 
L 528.612409 384.405204 
L 528.819967 384.137245 
L 529.027526 384.405134 
L 529.442642 384.403511 
L 529.650201 383.191527 
L 529.857759 384.405035 
L 530.272876 384.398915 
L 530.480434 384.148973 
L 530.687993 384.402086 
L 531.10311 384.406548 
L 531.310668 384.151089 
L 531.518226 384.406097 
L 531.933343 384.407644 
L 532.140902 384.14046 
L 532.34846 384.401943 
L 532.763577 384.40899 
L 532.971135 383.185864 
L 533.178694 384.401616 
L 533.59381 384.402693 
L 533.801369 384.131192 
L 534.008927 384.403264 
L 534.424044 384.401423 
L 534.631602 384.14128 
L 534.839161 384.403871 
L 535.254278 384.402755 
L 535.461836 384.131544 
L 535.669394 384.403237 
L 536.084511 384.403313 
L 536.29207 383.1612 
L 536.499628 384.397654 
L 536.914745 384.400865 
L 537.122303 384.13917 
L 537.329862 384.400843 
L 537.744978 384.403316 
L 537.952537 384.144527 
L 538.160095 384.401414 
L 538.575212 384.400582 
L 538.78277 384.134243 
L 538.990329 384.403901 
L 539.405446 384.405931 
L 539.613004 383.190118 
L 539.820562 384.400723 
L 540.235679 384.402912 
L 540.443238 384.14127 
L 540.650796 384.403603 
L 541.065913 384.406304 
L 541.273471 384.132718 
L 541.48103 384.401344 
L 541.896146 384.403679 
L 542.103705 384.144492 
L 542.311263 384.400685 
L 542.72638 384.405665 
L 542.933938 383.180301 
L 543.141497 384.401886 
L 543.556614 384.401854 
L 543.764172 384.138368 
L 543.97173 384.403055 
L 544.386847 384.404793 
L 544.594406 384.141996 
L 544.801964 384.403755 
L 545.217081 384.405453 
L 545.424639 384.137814 
L 545.632198 384.403472 
L 546.047314 384.406158 
L 546.254873 383.187423 
L 546.462431 384.400864 
L 546.877548 384.396416 
L 547.085106 384.127182 
L 547.292665 384.404241 
L 547.707782 384.401921 
L 547.91534 384.133197 
L 548.122898 384.40041 
L 548.538015 384.401944 
L 548.745574 384.132315 
L 548.953132 384.404086 
L 549.368249 384.403397 
L 549.575807 383.170165 
L 549.783366 384.397371 
L 550.198482 384.396054 
L 550.406041 384.132641 
L 550.613599 384.396553 
L 551.028716 384.400638 
L 551.236274 384.135105 
L 551.443833 384.402288 
L 551.85895 384.402194 
L 552.066508 384.127277 
L 552.274066 384.398905 
L 552.689183 384.403123 
L 552.896742 383.156712 
L 553.1043 384.397394 
L 553.519417 384.398169 
L 553.726975 384.119811 
L 553.934534 384.399895 
L 554.34965 384.40398 
L 554.557209 384.134912 
L 554.764767 384.402026 
L 555.179884 384.398239 
L 555.387442 384.1272 
L 555.595001 384.402417 
L 556.010118 384.399038 
L 556.217676 383.151195 
L 556.425234 384.396463 
L 556.840351 384.398108 
L 557.04791 384.132821 
L 557.255468 384.400312 
L 557.670585 384.398177 
L 557.878143 384.12499 
L 558.085702 384.402557 
L 558.500818 384.401606 
L 558.708377 384.123923 
L 558.915935 384.400446 
L 559.331052 384.400456 
L 559.53861 383.14238 
L 559.746169 384.397194 
L 560.161286 384.395906 
L 560.368844 384.111175 
L 560.576402 384.392492 
L 560.991519 384.395151 
L 561.199078 384.118197 
L 561.406636 384.40116 
L 561.821753 384.398637 
L 562.029311 384.118824 
L 562.23687 384.401212 
L 562.651986 384.398898 
L 562.859545 383.123983 
L 563.067103 384.394667 
L 563.48222 384.394416 
L 563.689778 384.12809 
L 563.897337 384.400109 
L 564.312454 384.397076 
L 564.520012 384.120377 
L 564.72757 384.397057 
L 565.142687 384.400697 
L 565.350245 384.123135 
L 565.557804 384.393614 
L 565.972921 384.39784 
L 566.180479 383.117329 
L 566.388037 384.393797 
L 566.803154 384.3945 
L 567.010713 384.082953 
L 567.218271 384.393314 
L 567.633388 384.396013 
L 567.840946 384.120711 
L 568.048505 384.393801 
L 568.463621 384.402302 
L 568.67118 384.129361 
L 568.878738 384.395658 
L 569.293855 384.399132 
L 569.501413 367.876232 
L 569.708972 384.391005 
L 570.124089 384.392214 
L 570.331647 384.101004 
L 570.539205 384.391892 
L 570.954322 384.393062 
L 571.161881 384.104459 
L 571.369439 384.396702 
L 571.784556 384.392041 
L 571.992114 384.095342 
L 572.199673 384.391231 
L 572.614789 384.395434 
L 572.822348 383.111461 
L 573.029906 384.392242 
L 573.445023 384.391176 
L 573.652581 384.095367 
L 573.86014 384.392234 
L 574.275257 384.393365 
L 574.482815 384.099955 
L 574.690373 384.393344 
L 575.10549 384.392738 
L 575.313049 384.097349 
L 575.520607 384.390791 
L 575.935724 384.390269 
L 576.143282 383.119336 
L 576.350841 384.389147 
L 576.765957 384.387047 
L 576.973516 384.103115 
L 577.181074 384.392438 
L 577.596191 384.393842 
L 577.803749 384.090505 
L 578.011308 384.390494 
L 578.426425 384.391874 
L 578.633983 384.097826 
L 578.841541 384.392296 
L 579.256658 384.389472 
L 579.464217 383.073243 
L 579.671775 384.390754 
L 580.086892 384.38849 
L 580.29445 384.089795 
L 580.502009 384.388099 
L 580.917125 384.390578 
L 581.124684 384.098065 
L 581.332242 384.391489 
L 581.747359 384.393448 
L 581.954917 384.09619 
L 582.162476 384.39228 
L 582.577593 384.390611 
L 582.785151 383.110686 
L 582.992709 384.387239 
L 583.407826 384.392753 
L 583.615385 384.103792 
L 583.822943 384.394022 
L 584.23806 384.393645 
L 584.445618 384.109776 
L 584.653177 384.396139 
L 585.068293 384.394292 
L 585.275852 384.101171 
L 585.48341 384.393226 
L 585.898527 384.393949 
L 586.106085 383.107174 
L 586.313644 384.393447 
L 586.728761 384.390378 
L 586.936319 384.110508 
L 587.143877 384.394105 
L 587.558994 384.393759 
L 587.766553 384.095943 
L 587.974111 384.393821 
L 588.389228 384.39419 
L 588.596786 384.103798 
L 588.804345 384.393306 
L 589.219461 384.392608 
L 589.42702 383.102551 
L 589.634578 384.38942 
L 590.049695 384.388442 
L 590.257253 384.101926 
L 590.464812 384.394337 
L 590.879929 384.394589 
L 591.087487 384.099036 
L 591.295045 384.389524 
L 591.710162 384.395017 
L 591.917721 384.102772 
L 592.125279 384.395134 
L 592.540396 384.389133 
L 592.747954 383.097535 
L 592.955513 384.388888 
L 593.370629 384.391183 
L 593.578188 384.102997 
L 593.785746 384.393398 
L 594.200863 384.394893 
L 594.408421 384.097649 
L 594.61598 384.390507 
L 595.031097 384.389762 
L 595.238655 384.106086 
L 595.446213 384.394201 
L 595.86133 384.391298 
L 596.068889 383.083813 
L 596.276447 384.389385 
L 596.691564 384.39294 
L 596.899122 384.101916 
L 597.106681 384.393228 
L 597.521797 384.388418 
L 597.729356 384.103279 
L 597.936914 384.391615 
L 598.352031 384.394862 
L 598.559589 384.096771 
L 598.767148 384.394995 
L 599.182265 384.39199 
L 599.389823 383.103447 
L 599.597381 384.385881 
L 600.012498 384.387103 
L 600.220057 384.092523 
L 600.427615 384.391829 
L 600.842732 384.391929 
L 601.05029 384.100845 
L 601.257849 384.389915 
L 601.672965 384.392721 
L 601.880524 384.097191 
L 602.088082 384.391545 
L 602.503199 384.38429 
L 602.710757 383.07665 
L 602.918316 384.387904 
L 603.333433 384.387837 
L 603.540991 384.087267 
L 603.748549 384.390023 
L 604.163666 384.388022 
L 604.371225 384.090054 
L 604.578783 384.390267 
L 604.9939 384.392968 
L 605.201458 384.093702 
L 605.409017 384.389428 
L 605.824133 384.391824 
L 606.031692 383.081519 
L 606.23925 384.386459 
L 606.654367 384.386935 
L 606.861925 384.07846 
L 607.069484 384.387809 
L 607.484601 384.390447 
L 607.692159 384.088872 
L 607.899717 384.388066 
L 608.314834 384.391949 
L 608.522393 384.080613 
L 608.729951 384.386049 
L 609.145068 384.388207 
L 609.352626 383.071305 
L 609.560184 384.382709 
L 609.975301 384.383334 
L 610.18286 384.082886 
L 610.390418 384.38932 
L 610.805535 384.388124 
L 611.013093 384.085934 
L 611.220652 384.387924 
L 611.635768 384.38941 
L 611.843327 384.07826 
L 612.050885 384.388798 
L 612.466002 384.387731 
L 612.67356 383.048992 
L 612.881119 384.386374 
L 613.296236 384.384063 
L 613.503794 384.084755 
L 613.711352 384.385935 
L 614.126469 384.387575 
L 614.334028 384.086222 
L 614.541586 384.383776 
L 614.956703 384.386543 
L 615.164261 384.070174 
L 615.37182 384.386513 
L 615.786936 384.388542 
L 615.994495 383.050017 
L 616.202053 384.384447 
L 616.61717 384.382974 
L 616.824728 384.071726 
L 617.032287 384.387107 
L 617.447404 384.388802 
L 617.654962 384.075713 
L 617.86252 384.383212 
L 618.277637 384.387431 
L 618.485196 384.080315 
L 618.692754 384.388612 
L 619.107871 384.384747 
L 619.315429 383.030718 
L 619.522988 384.383439 
L 619.938104 384.384156 
L 620.145663 383.99289 
L 620.353221 384.380487 
L 620.768338 384.387135 
L 620.975896 384.076733 
L 621.183455 384.386233 
L 621.598572 384.389707 
L 621.80613 384.079676 
L 622.013688 384.38882 
L 622.428805 384.387949 
L 622.636364 67.679851 
L 622.636364 67.679851 
" clip-path="url(#p4278f83d75)" style="fill: none; stroke: #1f77b4; stroke-width: 1.5; stroke-linecap: square"/>
   </g>
   <g id="patch_3">
    <path d="M 90 384.48 
L 90 51.84 
" style="fill: none; stroke: #000000; stroke-width: 0.8; stroke-linejoin: miter; stroke-linecap: square"/>
   </g>
   <g id="patch_4">
    <path d="M 648 384.48 
L 648 51.84 
" style="fill: none; stroke: #000000; stroke-width: 0.8; stroke-linejoin: miter; stroke-linecap: square"/>
   </g>
   <g id="patch_5">
    <path d="M 90 384.48 
L 648 384.48 
" style="fill: none; stroke: #000000; stroke-width: 0.8; stroke-linejoin: miter; stroke-linecap: square"/>
   </g>
   <g id="patch_6">
    <path d="M 90 51.84 
L 648 51.84 
" style="fill: none; stroke: #000000; stroke-width: 0.8; stroke-linejoin: miter; stroke-linecap: square"/>
   </g>
   <g id="text_15">
    <!-- Average time per index -->
    <g transform="translate(298.700625 45.84) scale(0.12 -0.12)">
     <defs>
      <path id="DejaVuSans-70" d="M 1159 525 
L 1159 -1331 
L 581 -1331 
L 581 3500 
L 1159 3500 
L 1159 2969 
Q 1341 3281 1617 3432 
Q 1894 3584 2278 3584 
Q 2916 3584 3314 3078 
Q 3713 2572 3713 1747 
Q 3713 922 3314 415 
Q 2916 -91 2278 -91 
Q 1894 -91 1617 61 
Q 1341 213 1159 525 
z
M 3116 1747 
Q 3116 2381 2855 2742 
Q 2594 3103 2138 3103 
Q 1681 3103 1420 2742 
Q 1159 2381 1159 1747 
Q 1159 1113 1420 752 
Q 1681 391 2138 391 
Q 2594 391 2855 752 
Q 3116 1113 3116 1747 
z
" transform="scale(0.015625)"/>
     </defs>
     <use xlink:href="#DejaVuSans-41"/>
     <use xlink:href="#DejaVuSans-76" transform="translate(62.533203 0)"/>
     <use xlink:href="#DejaVuSans-65" transform="translate(121.712891 0)"/>
     <use xlink:href="#DejaVuSans-72" transform="translate(183.236328 0)"/>
     <use xlink:href="#DejaVuSans-61" transform="translate(224.349609 0)"/>
     <use xlink:href="#DejaVuSans-67" transform="translate(285.628906 0)"/>
     <use xlink:href="#DejaVuSans-65" transform="translate(349.105469 0)"/>
     <use xlink:href="#DejaVuSans-20" transform="translate(410.628906 0)"/>
     <use xlink:href="#DejaVuSans-74" transform="translate(442.416016 0)"/>
     <use xlink:href="#DejaVuSans-69" transform="translate(481.625 0)"/>
     <use xlink:href="#DejaVuSans-6d" transform="translate(509.408203 0)"/>
     <use xlink:href="#DejaVuSans-65" transform="translate(606.820312 0)"/>
     <use xlink:href="#DejaVuSans-20" transform="translate(668.34375 0)"/>
     <use xlink:href="#DejaVuSans-70" transform="translate(700.130859 0)"/>
     <use xlink:href="#DejaVuSans-65" transform="translate(763.607422 0)"/>
     <use xlink:href="#DejaVuSans-72" transform="translate(825.130859 0)"/>
     <use xlink:href="#DejaVuSans-20" transform="translate(866.244141 0)"/>
     <use xlink:href="#DejaVuSans-69" transform="translate(898.03125 0)"/>
     <use xlink:href="#DejaVuSans-6e" transform="translate(925.814453 0)"/>
     <use xlink:href="#DejaVuSans-64" transform="translate(989.193359 0)"/>
     <use xlink:href="#DejaVuSans-65" transform="translate(1052.669922 0)"/>
     <use xlink:href="#DejaVuSans-78" transform="translate(1112.443359 0)"/>
    </g>
   </g>
   <g id="legend_1">
    <g id="patch_7">
     <path d="M 97 74.518125 
L 196.53125 74.518125 
Q 198.53125 74.518125 198.53125 72.518125 
L 198.53125 58.84 
Q 198.53125 56.84 196.53125 56.84 
L 97 56.84 
Q 95 56.84 95 58.84 
L 95 72.518125 
Q 95 74.518125 97 74.518125 
z
" style="fill: #ffffff; opacity: 0.8; stroke: #cccccc; stroke-linejoin: miter"/>
    </g>
    <g id="line2d_14">
     <path d="M 99 64.938438 
L 109 64.938438 
L 119 64.938438 
" style="fill: none; stroke: #1f77b4; stroke-width: 1.5; stroke-linecap: square"/>
    </g>
    <g id="text_16">
     <!-- nextFaultload -->
     <g transform="translate(127 68.438438) scale(0.1 -0.1)">
      <defs>
       <path id="DejaVuSans-46" d="M 628 4666 
L 3309 4666 
L 3309 4134 
L 1259 4134 
L 1259 2759 
L 3109 2759 
L 3109 2228 
L 1259 2228 
L 1259 0 
L 628 0 
L 628 4666 
z
" transform="scale(0.015625)"/>
       <path id="DejaVuSans-75" d="M 544 1381 
L 544 3500 
L 1119 3500 
L 1119 1403 
Q 1119 906 1312 657 
Q 1506 409 1894 409 
Q 2359 409 2629 706 
Q 2900 1003 2900 1516 
L 2900 3500 
L 3475 3500 
L 3475 0 
L 2900 0 
L 2900 538 
Q 2691 219 2414 64 
Q 2138 -91 1772 -91 
Q 1169 -91 856 284 
Q 544 659 544 1381 
z
M 1991 3584 
L 1991 3584 
z
" transform="scale(0.015625)"/>
       <path id="DejaVuSans-6c" d="M 603 4863 
L 1178 4863 
L 1178 0 
L 603 0 
L 603 4863 
z
" transform="scale(0.015625)"/>
       <path id="DejaVuSans-6f" d="M 1959 3097 
Q 1497 3097 1228 2736 
Q 959 2375 959 1747 
Q 959 1119 1226 758 
Q 1494 397 1959 397 
Q 2419 397 2687 759 
Q 2956 1122 2956 1747 
Q 2956 2369 2687 2733 
Q 2419 3097 1959 3097 
z
M 1959 3584 
Q 2709 3584 3137 3096 
Q 3566 2609 3566 1747 
Q 3566 888 3137 398 
Q 2709 -91 1959 -91 
Q 1206 -91 779 398 
Q 353 888 353 1747 
Q 353 2609 779 3096 
Q 1206 3584 1959 3584 
z
" transform="scale(0.015625)"/>
      </defs>
      <use xlink:href="#DejaVuSans-6e"/>
      <use xlink:href="#DejaVuSans-65" transform="translate(63.378906 0)"/>
      <use xlink:href="#DejaVuSans-78" transform="translate(123.152344 0)"/>
      <use xlink:href="#DejaVuSans-74" transform="translate(182.332031 0)"/>
      <use xlink:href="#DejaVuSans-46" transform="translate(221.541016 0)"/>
      <use xlink:href="#DejaVuSans-61" transform="translate(269.935547 0)"/>
      <use xlink:href="#DejaVuSans-75" transform="translate(331.214844 0)"/>
      <use xlink:href="#DejaVuSans-6c" transform="translate(394.59375 0)"/>
      <use xlink:href="#DejaVuSans-74" transform="translate(422.376953 0)"/>
      <use xlink:href="#DejaVuSans-6c" transform="translate(461.585938 0)"/>
      <use xlink:href="#DejaVuSans-6f" transform="translate(489.369141 0)"/>
      <use xlink:href="#DejaVuSans-61" transform="translate(550.550781 0)"/>
      <use xlink:href="#DejaVuSans-64" transform="translate(611.830078 0)"/>
     </g>
    </g>
   </g>
  </g>
 </g>
 <defs>
  <clipPath id="p4278f83d75">
   <rect x="90" y="51.84" width="558" height="332.64"/>
  </clipPath>
 </defs>
</svg>
