<?xml version="1.0" encoding="utf-8" standalone="no"?>
<!DOCTYPE svg PUBLIC "-//W3C//DTD SVG 1.1//EN"
  "http://www.w3.org/Graphics/SVG/1.1/DTD/svg11.dtd">
<svg xmlns:xlink="http://www.w3.org/1999/xlink" width="720pt" height="432pt" viewBox="0 0 720 432" xmlns="http://www.w3.org/2000/svg" version="1.1">
 <metadata>
  <rdf:RDF xmlns:dc="http://purl.org/dc/elements/1.1/" xmlns:cc="http://creativecommons.org/ns#" xmlns:rdf="http://www.w3.org/1999/02/22-rdf-syntax-ns#">
   <cc:Work>
    <dc:type rdf:resource="http://purl.org/dc/dcmitype/StillImage"/>
    <dc:date>2025-06-10T03:16:12.144777</dc:date>
    <dc:format>image/svg+xml</dc:format>
    <dc:creator>
     <cc:Agent>
      <dc:title>Matplotlib v3.10.3, https://matplotlib.org/</dc:title>
     </cc:Agent>
    </dc:creator>
   </cc:Work>
  </rdf:RDF>
 </metadata>
 <defs>
  <style type="text/css">*{stroke-linejoin: round; stroke-linecap: butt}</style>
 </defs>
 <g id="figure_1">
  <g id="patch_1">
   <path d="M 0 432 
L 720 432 
L 720 0 
L 0 0 
z
" style="fill: #ffffff"/>
  </g>
  <g id="axes_1">
   <g id="patch_2">
    <path d="M 90 384.48 
L 648 384.48 
L 648 51.84 
L 90 51.84 
z
" style="fill: #ffffff"/>
   </g>
   <g id="matplotlib.axis_1">
    <g id="xtick_1">
     <g id="line2d_1">
      <defs>
       <path id="m8befe00420" d="M 0 0 
L 0 3.5 
" style="stroke: #000000; stroke-width: 0.8"/>
      </defs>
      <g>
       <use xlink:href="#m8befe00420" x="115.363636" y="384.48" style="stroke: #000000; stroke-width: 0.8"/>
      </g>
     </g>
     <g id="text_1">
      <!-- 0 -->
      <g transform="translate(112.182386 399.078438) scale(0.1 -0.1)">
       <defs>
        <path id="DejaVuSans-30" d="M 2034 4250 
Q 1547 4250 1301 3770 
Q 1056 3291 1056 2328 
Q 1056 1369 1301 889 
Q 1547 409 2034 409 
Q 2525 409 2770 889 
Q 3016 1369 3016 2328 
Q 3016 3291 2770 3770 
Q 2525 4250 2034 4250 
z
M 2034 4750 
Q 2819 4750 3233 4129 
Q 3647 3509 3647 2328 
Q 3647 1150 3233 529 
Q 2819 -91 2034 -91 
Q 1250 -91 836 529 
Q 422 1150 422 2328 
Q 422 3509 836 4129 
Q 1250 4750 2034 4750 
z
" transform="scale(0.015625)"/>
       </defs>
       <use xlink:href="#DejaVuSans-30"/>
      </g>
     </g>
    </g>
    <g id="xtick_2">
     <g id="line2d_2">
      <g>
       <use xlink:href="#m8befe00420" x="219.185316" y="384.48" style="stroke: #000000; stroke-width: 0.8"/>
      </g>
     </g>
     <g id="text_2">
      <!-- 500 -->
      <g transform="translate(209.641566 399.078438) scale(0.1 -0.1)">
       <defs>
        <path id="DejaVuSans-35" d="M 691 4666 
L 3169 4666 
L 3169 4134 
L 1269 4134 
L 1269 2991 
Q 1406 3038 1543 3061 
Q 1681 3084 1819 3084 
Q 2600 3084 3056 2656 
Q 3513 2228 3513 1497 
Q 3513 744 3044 326 
Q 2575 -91 1722 -91 
Q 1428 -91 1123 -41 
Q 819 9 494 109 
L 494 744 
Q 775 591 1075 516 
Q 1375 441 1709 441 
Q 2250 441 2565 725 
Q 2881 1009 2881 1497 
Q 2881 1984 2565 2268 
Q 2250 2553 1709 2553 
Q 1456 2553 1204 2497 
Q 953 2441 691 2322 
L 691 4666 
z
" transform="scale(0.015625)"/>
       </defs>
       <use xlink:href="#DejaVuSans-35"/>
       <use xlink:href="#DejaVuSans-30" transform="translate(63.623047 0)"/>
       <use xlink:href="#DejaVuSans-30" transform="translate(127.246094 0)"/>
      </g>
     </g>
    </g>
    <g id="xtick_3">
     <g id="line2d_3">
      <g>
       <use xlink:href="#m8befe00420" x="323.006996" y="384.48" style="stroke: #000000; stroke-width: 0.8"/>
      </g>
     </g>
     <g id="text_3">
      <!-- 1000 -->
      <g transform="translate(310.281996 399.078438) scale(0.1 -0.1)">
       <defs>
        <path id="DejaVuSans-31" d="M 794 531 
L 1825 531 
L 1825 4091 
L 703 3866 
L 703 4441 
L 1819 4666 
L 2450 4666 
L 2450 531 
L 3481 531 
L 3481 0 
L 794 0 
L 794 531 
z
" transform="scale(0.015625)"/>
       </defs>
       <use xlink:href="#DejaVuSans-31"/>
       <use xlink:href="#DejaVuSans-30" transform="translate(63.623047 0)"/>
       <use xlink:href="#DejaVuSans-30" transform="translate(127.246094 0)"/>
       <use xlink:href="#DejaVuSans-30" transform="translate(190.869141 0)"/>
      </g>
     </g>
    </g>
    <g id="xtick_4">
     <g id="line2d_4">
      <g>
       <use xlink:href="#m8befe00420" x="426.828676" y="384.48" style="stroke: #000000; stroke-width: 0.8"/>
      </g>
     </g>
     <g id="text_4">
      <!-- 1500 -->
      <g transform="translate(414.103676 399.078438) scale(0.1 -0.1)">
       <use xlink:href="#DejaVuSans-31"/>
       <use xlink:href="#DejaVuSans-35" transform="translate(63.623047 0)"/>
       <use xlink:href="#DejaVuSans-30" transform="translate(127.246094 0)"/>
       <use xlink:href="#DejaVuSans-30" transform="translate(190.869141 0)"/>
      </g>
     </g>
    </g>
    <g id="xtick_5">
     <g id="line2d_5">
      <g>
       <use xlink:href="#m8befe00420" x="530.650355" y="384.48" style="stroke: #000000; stroke-width: 0.8"/>
      </g>
     </g>
     <g id="text_5">
      <!-- 2000 -->
      <g transform="translate(517.925355 399.078438) scale(0.1 -0.1)">
       <defs>
        <path id="DejaVuSans-32" d="M 1228 531 
L 3431 531 
L 3431 0 
L 469 0 
L 469 531 
Q 828 903 1448 1529 
Q 2069 2156 2228 2338 
Q 2531 2678 2651 2914 
Q 2772 3150 2772 3378 
Q 2772 3750 2511 3984 
Q 2250 4219 1831 4219 
Q 1534 4219 1204 4116 
Q 875 4013 500 3803 
L 500 4441 
Q 881 4594 1212 4672 
Q 1544 4750 1819 4750 
Q 2544 4750 2975 4387 
Q 3406 4025 3406 3419 
Q 3406 3131 3298 2873 
Q 3191 2616 2906 2266 
Q 2828 2175 2409 1742 
Q 1991 1309 1228 531 
z
" transform="scale(0.015625)"/>
       </defs>
       <use xlink:href="#DejaVuSans-32"/>
       <use xlink:href="#DejaVuSans-30" transform="translate(63.623047 0)"/>
       <use xlink:href="#DejaVuSans-30" transform="translate(127.246094 0)"/>
       <use xlink:href="#DejaVuSans-30" transform="translate(190.869141 0)"/>
      </g>
     </g>
    </g>
    <g id="xtick_6">
     <g id="line2d_6">
      <g>
       <use xlink:href="#m8befe00420" x="634.472035" y="384.48" style="stroke: #000000; stroke-width: 0.8"/>
      </g>
     </g>
     <g id="text_6">
      <!-- 2500 -->
      <g transform="translate(621.747035 399.078438) scale(0.1 -0.1)">
       <use xlink:href="#DejaVuSans-32"/>
       <use xlink:href="#DejaVuSans-35" transform="translate(63.623047 0)"/>
       <use xlink:href="#DejaVuSans-30" transform="translate(127.246094 0)"/>
       <use xlink:href="#DejaVuSans-30" transform="translate(190.869141 0)"/>
      </g>
     </g>
    </g>
    <g id="text_7">
     <!-- Index -->
     <g transform="translate(355.233594 412.756563) scale(0.1 -0.1)">
      <defs>
       <path id="DejaVuSans-49" d="M 628 4666 
L 1259 4666 
L 1259 0 
L 628 0 
L 628 4666 
z
" transform="scale(0.015625)"/>
       <path id="DejaVuSans-6e" d="M 3513 2113 
L 3513 0 
L 2938 0 
L 2938 2094 
Q 2938 2591 2744 2837 
Q 2550 3084 2163 3084 
Q 1697 3084 1428 2787 
Q 1159 2491 1159 1978 
L 1159 0 
L 581 0 
L 581 3500 
L 1159 3500 
L 1159 2956 
Q 1366 3272 1645 3428 
Q 1925 3584 2291 3584 
Q 2894 3584 3203 3211 
Q 3513 2838 3513 2113 
z
" transform="scale(0.015625)"/>
       <path id="DejaVuSans-64" d="M 2906 2969 
L 2906 4863 
L 3481 4863 
L 3481 0 
L 2906 0 
L 2906 525 
Q 2725 213 2448 61 
Q 2172 -91 1784 -91 
Q 1150 -91 751 415 
Q 353 922 353 1747 
Q 353 2572 751 3078 
Q 1150 3584 1784 3584 
Q 2172 3584 2448 3432 
Q 2725 3281 2906 2969 
z
M 947 1747 
Q 947 1113 1208 752 
Q 1469 391 1925 391 
Q 2381 391 2643 752 
Q 2906 1113 2906 1747 
Q 2906 2381 2643 2742 
Q 2381 3103 1925 3103 
Q 1469 3103 1208 2742 
Q 947 2381 947 1747 
z
" transform="scale(0.015625)"/>
       <path id="DejaVuSans-65" d="M 3597 1894 
L 3597 1613 
L 953 1613 
Q 991 1019 1311 708 
Q 1631 397 2203 397 
Q 2534 397 2845 478 
Q 3156 559 3463 722 
L 3463 178 
Q 3153 47 2828 -22 
Q 2503 -91 2169 -91 
Q 1331 -91 842 396 
Q 353 884 353 1716 
Q 353 2575 817 3079 
Q 1281 3584 2069 3584 
Q 2775 3584 3186 3129 
Q 3597 2675 3597 1894 
z
M 3022 2063 
Q 3016 2534 2758 2815 
Q 2500 3097 2075 3097 
Q 1594 3097 1305 2825 
Q 1016 2553 972 2059 
L 3022 2063 
z
" transform="scale(0.015625)"/>
       <path id="DejaVuSans-78" d="M 3513 3500 
L 2247 1797 
L 3578 0 
L 2900 0 
L 1881 1375 
L 863 0 
L 184 0 
L 1544 1831 
L 300 3500 
L 978 3500 
L 1906 2253 
L 2834 3500 
L 3513 3500 
z
" transform="scale(0.015625)"/>
      </defs>
      <use xlink:href="#DejaVuSans-49"/>
      <use xlink:href="#DejaVuSans-6e" transform="translate(29.492188 0)"/>
      <use xlink:href="#DejaVuSans-64" transform="translate(92.871094 0)"/>
      <use xlink:href="#DejaVuSans-65" transform="translate(156.347656 0)"/>
      <use xlink:href="#DejaVuSans-78" transform="translate(216.121094 0)"/>
     </g>
    </g>
   </g>
   <g id="matplotlib.axis_2">
    <g id="ytick_1">
     <g id="line2d_7">
      <defs>
       <path id="mcad2a5ed8e" d="M 0 0 
L -3.5 0 
" style="stroke: #000000; stroke-width: 0.8"/>
      </defs>
      <g>
       <use xlink:href="#mcad2a5ed8e" x="90" y="369.36" style="stroke: #000000; stroke-width: 0.8"/>
      </g>
     </g>
     <g id="text_8">
      <!-- 0 -->
      <g transform="translate(76.6375 373.159219) scale(0.1 -0.1)">
       <use xlink:href="#DejaVuSans-30"/>
      </g>
     </g>
    </g>
    <g id="ytick_2">
     <g id="line2d_8">
      <g>
       <use xlink:href="#mcad2a5ed8e" x="90" y="326.051109" style="stroke: #000000; stroke-width: 0.8"/>
      </g>
     </g>
     <g id="text_9">
      <!-- 2500 -->
      <g transform="translate(57.55 329.850328) scale(0.1 -0.1)">
       <use xlink:href="#DejaVuSans-32"/>
       <use xlink:href="#DejaVuSans-35" transform="translate(63.623047 0)"/>
       <use xlink:href="#DejaVuSans-30" transform="translate(127.246094 0)"/>
       <use xlink:href="#DejaVuSans-30" transform="translate(190.869141 0)"/>
      </g>
     </g>
    </g>
    <g id="ytick_3">
     <g id="line2d_9">
      <g>
       <use xlink:href="#mcad2a5ed8e" x="90" y="282.742218" style="stroke: #000000; stroke-width: 0.8"/>
      </g>
     </g>
     <g id="text_10">
      <!-- 5000 -->
      <g transform="translate(57.55 286.541437) scale(0.1 -0.1)">
       <use xlink:href="#DejaVuSans-35"/>
       <use xlink:href="#DejaVuSans-30" transform="translate(63.623047 0)"/>
       <use xlink:href="#DejaVuSans-30" transform="translate(127.246094 0)"/>
       <use xlink:href="#DejaVuSans-30" transform="translate(190.869141 0)"/>
      </g>
     </g>
    </g>
    <g id="ytick_4">
     <g id="line2d_10">
      <g>
       <use xlink:href="#mcad2a5ed8e" x="90" y="239.433327" style="stroke: #000000; stroke-width: 0.8"/>
      </g>
     </g>
     <g id="text_11">
      <!-- 7500 -->
      <g transform="translate(57.55 243.232546) scale(0.1 -0.1)">
       <defs>
        <path id="DejaVuSans-37" d="M 525 4666 
L 3525 4666 
L 3525 4397 
L 1831 0 
L 1172 0 
L 2766 4134 
L 525 4134 
L 525 4666 
z
" transform="scale(0.015625)"/>
       </defs>
       <use xlink:href="#DejaVuSans-37"/>
       <use xlink:href="#DejaVuSans-35" transform="translate(63.623047 0)"/>
       <use xlink:href="#DejaVuSans-30" transform="translate(127.246094 0)"/>
       <use xlink:href="#DejaVuSans-30" transform="translate(190.869141 0)"/>
      </g>
     </g>
    </g>
    <g id="ytick_5">
     <g id="line2d_11">
      <g>
       <use xlink:href="#mcad2a5ed8e" x="90" y="196.124436" style="stroke: #000000; stroke-width: 0.8"/>
      </g>
     </g>
     <g id="text_12">
      <!-- 10000 -->
      <g transform="translate(51.1875 199.923655) scale(0.1 -0.1)">
       <use xlink:href="#DejaVuSans-31"/>
       <use xlink:href="#DejaVuSans-30" transform="translate(63.623047 0)"/>
       <use xlink:href="#DejaVuSans-30" transform="translate(127.246094 0)"/>
       <use xlink:href="#DejaVuSans-30" transform="translate(190.869141 0)"/>
       <use xlink:href="#DejaVuSans-30" transform="translate(254.492188 0)"/>
      </g>
     </g>
    </g>
    <g id="ytick_6">
     <g id="line2d_12">
      <g>
       <use xlink:href="#mcad2a5ed8e" x="90" y="152.815545" style="stroke: #000000; stroke-width: 0.8"/>
      </g>
     </g>
     <g id="text_13">
      <!-- 12500 -->
      <g transform="translate(51.1875 156.614764) scale(0.1 -0.1)">
       <use xlink:href="#DejaVuSans-31"/>
       <use xlink:href="#DejaVuSans-32" transform="translate(63.623047 0)"/>
       <use xlink:href="#DejaVuSans-35" transform="translate(127.246094 0)"/>
       <use xlink:href="#DejaVuSans-30" transform="translate(190.869141 0)"/>
       <use xlink:href="#DejaVuSans-30" transform="translate(254.492188 0)"/>
      </g>
     </g>
    </g>
    <g id="ytick_7">
     <g id="line2d_13">
      <g>
       <use xlink:href="#mcad2a5ed8e" x="90" y="109.506654" style="stroke: #000000; stroke-width: 0.8"/>
      </g>
     </g>
     <g id="text_14">
      <!-- 15000 -->
      <g transform="translate(51.1875 113.305873) scale(0.1 -0.1)">
       <use xlink:href="#DejaVuSans-31"/>
       <use xlink:href="#DejaVuSans-35" transform="translate(63.623047 0)"/>
       <use xlink:href="#DejaVuSans-30" transform="translate(127.246094 0)"/>
       <use xlink:href="#DejaVuSans-30" transform="translate(190.869141 0)"/>
       <use xlink:href="#DejaVuSans-30" transform="translate(254.492188 0)"/>
      </g>
     </g>
    </g>
    <g id="ytick_8">
     <g id="line2d_14">
      <g>
       <use xlink:href="#mcad2a5ed8e" x="90" y="66.197764" style="stroke: #000000; stroke-width: 0.8"/>
      </g>
     </g>
     <g id="text_15">
      <!-- 17500 -->
      <g transform="translate(51.1875 69.996982) scale(0.1 -0.1)">
       <use xlink:href="#DejaVuSans-31"/>
       <use xlink:href="#DejaVuSans-37" transform="translate(63.623047 0)"/>
       <use xlink:href="#DejaVuSans-35" transform="translate(127.246094 0)"/>
       <use xlink:href="#DejaVuSans-30" transform="translate(190.869141 0)"/>
       <use xlink:href="#DejaVuSans-30" transform="translate(254.492188 0)"/>
      </g>
     </g>
    </g>
    <g id="text_16">
     <!-- Queue Size -->
     <g transform="translate(45.107812 246.439687) rotate(-90) scale(0.1 -0.1)">
      <defs>
       <path id="DejaVuSans-51" d="M 2522 4238 
Q 1834 4238 1429 3725 
Q 1025 3213 1025 2328 
Q 1025 1447 1429 934 
Q 1834 422 2522 422 
Q 3209 422 3611 934 
Q 4013 1447 4013 2328 
Q 4013 3213 3611 3725 
Q 3209 4238 2522 4238 
z
M 3406 84 
L 4238 -825 
L 3475 -825 
L 2784 -78 
Q 2681 -84 2626 -87 
Q 2572 -91 2522 -91 
Q 1538 -91 948 567 
Q 359 1225 359 2328 
Q 359 3434 948 4092 
Q 1538 4750 2522 4750 
Q 3503 4750 4090 4092 
Q 4678 3434 4678 2328 
Q 4678 1516 4351 937 
Q 4025 359 3406 84 
z
" transform="scale(0.015625)"/>
       <path id="DejaVuSans-75" d="M 544 1381 
L 544 3500 
L 1119 3500 
L 1119 1403 
Q 1119 906 1312 657 
Q 1506 409 1894 409 
Q 2359 409 2629 706 
Q 2900 1003 2900 1516 
L 2900 3500 
L 3475 3500 
L 3475 0 
L 2900 0 
L 2900 538 
Q 2691 219 2414 64 
Q 2138 -91 1772 -91 
Q 1169 -91 856 284 
Q 544 659 544 1381 
z
M 1991 3584 
L 1991 3584 
z
" transform="scale(0.015625)"/>
       <path id="DejaVuSans-20" transform="scale(0.015625)"/>
       <path id="DejaVuSans-53" d="M 3425 4513 
L 3425 3897 
Q 3066 4069 2747 4153 
Q 2428 4238 2131 4238 
Q 1616 4238 1336 4038 
Q 1056 3838 1056 3469 
Q 1056 3159 1242 3001 
Q 1428 2844 1947 2747 
L 2328 2669 
Q 3034 2534 3370 2195 
Q 3706 1856 3706 1288 
Q 3706 609 3251 259 
Q 2797 -91 1919 -91 
Q 1588 -91 1214 -16 
Q 841 59 441 206 
L 441 856 
Q 825 641 1194 531 
Q 1563 422 1919 422 
Q 2459 422 2753 634 
Q 3047 847 3047 1241 
Q 3047 1584 2836 1778 
Q 2625 1972 2144 2069 
L 1759 2144 
Q 1053 2284 737 2584 
Q 422 2884 422 3419 
Q 422 4038 858 4394 
Q 1294 4750 2059 4750 
Q 2388 4750 2728 4690 
Q 3069 4631 3425 4513 
z
" transform="scale(0.015625)"/>
       <path id="DejaVuSans-69" d="M 603 3500 
L 1178 3500 
L 1178 0 
L 603 0 
L 603 3500 
z
M 603 4863 
L 1178 4863 
L 1178 4134 
L 603 4134 
L 603 4863 
z
" transform="scale(0.015625)"/>
       <path id="DejaVuSans-7a" d="M 353 3500 
L 3084 3500 
L 3084 2975 
L 922 459 
L 3084 459 
L 3084 0 
L 275 0 
L 275 525 
L 2438 3041 
L 353 3041 
L 353 3500 
z
" transform="scale(0.015625)"/>
      </defs>
      <use xlink:href="#DejaVuSans-51"/>
      <use xlink:href="#DejaVuSans-75" transform="translate(78.710938 0)"/>
      <use xlink:href="#DejaVuSans-65" transform="translate(142.089844 0)"/>
      <use xlink:href="#DejaVuSans-75" transform="translate(203.613281 0)"/>
      <use xlink:href="#DejaVuSans-65" transform="translate(266.992188 0)"/>
      <use xlink:href="#DejaVuSans-20" transform="translate(328.515625 0)"/>
      <use xlink:href="#DejaVuSans-53" transform="translate(360.302734 0)"/>
      <use xlink:href="#DejaVuSans-69" transform="translate(423.779297 0)"/>
      <use xlink:href="#DejaVuSans-7a" transform="translate(451.5625 0)"/>
      <use xlink:href="#DejaVuSans-65" transform="translate(504.052734 0)"/>
     </g>
    </g>
   </g>
   <g id="line2d_15">
    <path d="M 115.363636 368.892264 
L 116.19421 367.575674 
L 117.024783 367.644968 
L 117.855357 366.051201 
L 118.68593 365.566141 
L 120.139434 363.469991 
L 120.347077 363.210137 
L 120.762364 363.262108 
L 120.970007 364.73461 
L 121.800581 363.140843 
L 122.838797 362.465225 
L 123.461727 361.893547 
L 124.915231 359.312337 
L 125.330518 358.654042 
L 125.953448 357.458717 
L 126.991664 356.783098 
L 127.614595 356.211421 
L 129.068098 353.630211 
L 129.483385 352.971916 
L 130.106315 351.77659 
L 131.144532 351.100972 
L 131.767462 350.529294 
L 133.220965 347.948084 
L 133.636252 347.289789 
L 134.259182 346.094464 
L 135.297399 345.418845 
L 135.920329 344.847168 
L 137.373832 342.265958 
L 137.581476 342.699047 
L 139.034979 340.117837 
L 139.242623 339.996572 
L 140.696126 337.415362 
L 140.90377 337.294097 
L 142.357273 334.712887 
L 142.564916 334.591622 
L 144.01842 332.010412 
L 144.226063 332.928561 
L 145.26428 332.252942 
L 145.88721 331.681265 
L 147.340714 329.100055 
L 147.963644 328.666966 
L 148.586574 328.233877 
L 149.209504 327.6622 
L 150.663007 325.08099 
L 151.285938 324.647901 
L 151.908868 324.214812 
L 152.531798 323.643135 
L 153.985301 321.061925 
L 154.608231 320.628836 
L 155.231161 320.195747 
L 155.854091 319.62407 
L 157.307595 317.04286 
L 157.515238 318.376774 
L 158.968742 316.280623 
L 159.176385 316.297947 
L 160.629889 314.201797 
L 160.837532 314.21912 
L 162.291036 312.12297 
L 162.498679 312.140293 
L 163.952182 310.044143 
L 164.159826 311.308763 
L 165.198043 310.633144 
L 165.820973 310.061467 
L 167.274476 307.480257 
L 167.897406 307.047168 
L 168.520336 306.614079 
L 169.143266 306.042401 
L 170.59677 303.461192 
L 171.2197 303.028103 
L 171.84263 302.595014 
L 172.46556 302.023336 
L 173.919064 299.442126 
L 174.541994 299.009038 
L 175.164924 298.575949 
L 175.787854 298.004271 
L 177.241357 295.423061 
L 177.449001 296.756975 
L 178.902504 294.660825 
L 179.110148 294.678148 
L 180.563651 292.581998 
L 180.771295 292.599322 
L 182.224798 290.503171 
L 182.432441 290.520495 
L 183.885945 288.424345 
L 184.093588 289.688964 
L 185.131805 289.013346 
L 185.754735 288.441668 
L 187.208239 285.860458 
L 187.831169 285.427369 
L 188.454099 284.99428 
L 189.077029 284.422603 
L 190.530533 281.841393 
L 191.153463 281.408304 
L 191.776393 280.975215 
L 192.399323 280.403538 
L 193.852826 277.822328 
L 194.475756 277.389239 
L 195.098686 276.95615 
L 195.721616 276.384473 
L 197.17512 273.803263 
L 197.382763 275.137177 
L 198.836267 273.041027 
L 199.04391 273.05835 
L 200.497414 270.9622 
L 200.705057 270.979523 
L 202.158561 268.883373 
L 202.366204 268.900697 
L 203.819708 266.804546 
L 204.027351 268.069166 
L 205.065568 267.393547 
L 205.688498 266.82187 
L 207.142001 264.24066 
L 207.764931 263.807571 
L 208.387861 263.374482 
L 209.010792 262.802805 
L 210.464295 260.221595 
L 211.087225 259.788506 
L 211.710155 259.355417 
L 212.333085 258.78374 
L 213.786589 256.20253 
L 214.409519 255.769441 
L 215.032449 255.336352 
L 215.655379 254.764675 
L 217.108883 252.183465 
L 217.316526 253.517379 
L 218.770029 251.421228 
L 218.977673 251.438552 
L 220.431176 249.342401 
L 220.63882 249.359725 
L 222.092323 247.263575 
L 222.299967 247.280898 
L 223.75347 245.184748 
L 223.961113 246.587956 
L 225.206974 244.890247 
L 225.414617 244.5611 
L 225.62226 244.509129 
L 226.86812 242.811421 
L 227.075764 242.482273 
L 227.283407 242.430302 
L 228.529267 240.732594 
L 228.736911 240.403446 
L 228.944554 240.351476 
L 230.190414 238.653767 
L 230.398058 238.32462 
L 230.605701 239.658533 
L 231.851561 237.960825 
L 232.059204 237.631677 
L 232.266848 237.579707 
L 233.512708 235.881998 
L 233.720351 235.552851 
L 233.927995 235.50088 
L 235.173855 233.803171 
L 235.381498 233.474024 
L 235.589142 233.422053 
L 236.835002 231.724345 
L 237.042645 231.395197 
L 237.250288 232.729111 
L 238.496149 231.031402 
L 238.703792 230.702255 
L 238.911435 230.650284 
L 240.157295 228.952576 
L 240.364939 228.623428 
L 240.572582 228.571457 
L 241.818442 226.873749 
L 242.026086 226.544601 
L 242.233729 226.492631 
L 243.479589 224.794922 
L 243.687233 224.465775 
L 243.894876 225.799688 
L 245.140736 224.10198 
L 245.348379 223.772832 
L 245.556023 223.720862 
L 246.801883 222.023153 
L 247.009526 221.694005 
L 247.21717 221.642035 
L 248.46303 219.944326 
L 248.670673 219.615179 
L 248.878317 219.563208 
L 250.124177 217.8655 
L 250.33182 217.536352 
L 250.539463 220.25615 
L 251.992967 218.16 
L 252.20061 218.177324 
L 253.654114 216.081173 
L 253.861757 216.098497 
L 255.315261 214.002346 
L 255.522904 214.01967 
L 256.976408 211.92352 
L 257.184051 214.712612 
L 258.637554 212.616462 
L 258.845198 212.633786 
L 260.298701 210.537635 
L 260.506345 210.554959 
L 261.959848 208.458808 
L 262.167492 208.476132 
L 263.620995 206.379982 
L 263.828638 209.169074 
L 265.282142 207.072924 
L 265.489785 207.090247 
L 266.943289 204.994097 
L 267.150932 205.011421 
L 268.604436 202.91527 
L 268.812079 202.932594 
L 270.265583 200.836444 
L 270.473226 203.625536 
L 271.926729 201.529386 
L 272.134373 201.546709 
L 273.587876 199.450559 
L 273.79552 199.467883 
L 275.249023 197.371732 
L 275.456667 197.389056 
L 276.91017 195.292906 
L 277.117813 196.696114 
L 277.740743 195.916554 
L 277.948387 195.933877 
L 278.571317 195.154317 
L 278.77896 195.171641 
L 279.40189 194.392081 
L 279.609534 194.409404 
L 280.232464 193.629844 
L 280.440107 194.755875 
L 281.063037 193.976315 
L 281.270681 193.993639 
L 281.893611 193.214079 
L 282.101254 193.231402 
L 282.724184 192.451842 
L 282.931827 192.469166 
L 283.554758 191.689606 
L 283.762401 192.815637 
L 284.385331 192.036077 
L 284.592974 192.053401 
L 285.215904 191.273841 
L 285.423548 191.291164 
L 286.046478 190.511604 
L 286.254121 190.528928 
L 286.877051 189.749368 
L 287.084695 190.875399 
L 287.707625 190.095839 
L 287.915268 190.113162 
L 288.538198 189.333602 
L 288.745842 189.350926 
L 289.368772 188.571366 
L 289.576415 188.588689 
L 290.199345 187.809129 
L 290.406988 190.321045 
L 291.860492 188.224895 
L 292.068135 188.242218 
L 293.521639 186.146068 
L 293.729282 186.163391 
L 295.182786 184.067241 
L 295.390429 184.084565 
L 296.843933 181.988414 
L 297.051576 184.777507 
L 298.505079 182.681357 
L 298.712723 182.69868 
L 300.166226 180.60253 
L 300.37387 180.619853 
L 301.827373 178.523703 
L 302.035017 178.541027 
L 303.48852 176.444876 
L 303.696163 179.233969 
L 305.149667 177.137819 
L 305.35731 177.155142 
L 306.810814 175.058992 
L 307.018457 175.076315 
L 308.471961 172.980165 
L 308.679604 172.997489 
L 310.133108 170.901338 
L 310.340751 173.690431 
L 311.794254 171.59428 
L 312.001898 171.611604 
L 313.455401 169.515454 
L 313.663045 169.532777 
L 315.116548 167.436627 
L 315.324192 167.453951 
L 316.777695 165.3578 
L 316.985338 166.761008 
L 317.608269 165.981448 
L 317.815912 165.998772 
L 318.438842 165.219212 
L 318.646485 165.236535 
L 319.269415 164.456975 
L 319.477059 164.474299 
L 320.099989 163.694739 
L 320.307632 164.82077 
L 320.930562 164.04121 
L 321.138206 164.058533 
L 321.761136 163.278973 
L 321.968779 163.296297 
L 322.591709 162.516737 
L 322.799353 162.53406 
L 323.422283 161.7545 
L 323.629926 162.880532 
L 324.252856 162.100972 
L 324.460499 162.118295 
L 325.083429 161.338735 
L 325.291073 161.356059 
L 325.914003 160.576499 
L 326.121646 160.593822 
L 326.744576 159.814262 
L 326.95222 160.940293 
L 327.57515 160.160733 
L 327.782793 160.178057 
L 328.405723 159.398497 
L 328.613367 159.41582 
L 329.236297 158.63626 
L 329.44394 158.653584 
L 330.06687 157.874024 
L 330.274513 160.38594 
L 331.728017 158.289789 
L 331.93566 158.307113 
L 333.389164 156.210962 
L 333.596807 156.228286 
L 335.050311 154.132136 
L 335.257954 154.149459 
L 336.711458 152.053309 
L 336.919101 154.842401 
L 338.372604 152.746251 
L 338.580248 152.763575 
L 340.033751 150.667424 
L 340.241395 150.684748 
L 341.694898 148.588598 
L 341.902542 148.605921 
L 343.356045 146.509771 
L 343.563688 149.298863 
L 345.017192 147.202713 
L 345.224835 147.220037 
L 346.678339 145.123886 
L 346.885982 145.14121 
L 348.339486 143.04506 
L 348.547129 143.062383 
L 350.000633 140.966233 
L 350.208276 143.755325 
L 351.661779 141.659175 
L 351.869423 141.676499 
L 353.322926 139.580348 
L 353.53057 139.597672 
L 354.984073 137.501522 
L 355.191717 137.518845 
L 356.64522 135.422695 
L 356.852863 136.825903 
L 357.475794 136.046343 
L 357.683437 136.063666 
L 358.306367 135.284106 
L 358.51401 135.30143 
L 359.13694 134.52187 
L 359.344584 134.539193 
L 359.967514 133.759633 
L 360.175157 134.885665 
L 360.798087 134.106104 
L 361.005731 134.123428 
L 361.628661 133.343868 
L 361.836304 133.361192 
L 362.459234 132.581632 
L 362.666878 132.598955 
L 363.289808 131.819395 
L 363.497451 132.945426 
L 364.120381 132.165866 
L 364.328024 132.18319 
L 364.950954 131.40363 
L 365.158598 131.420953 
L 365.781528 130.641393 
L 365.989171 130.658717 
L 366.612101 129.879157 
L 366.819745 131.005188 
L 367.442675 130.225628 
L 367.650318 130.242951 
L 368.273248 129.463391 
L 368.480892 129.480715 
L 369.103822 128.701155 
L 369.311465 128.718478 
L 369.934395 127.938918 
L 370.142038 130.450834 
L 371.595542 128.354684 
L 371.803185 128.372007 
L 373.256689 126.275857 
L 373.464332 126.293181 
L 374.917836 124.19703 
L 375.125479 124.214354 
L 376.578983 122.118203 
L 376.786626 124.907296 
L 378.240129 122.811146 
L 378.447773 122.828469 
L 379.901276 120.732319 
L 380.10892 120.749643 
L 381.562423 118.653492 
L 381.770067 118.670816 
L 383.22357 116.574665 
L 383.431213 119.363758 
L 384.884717 117.267608 
L 385.09236 117.284931 
L 386.545864 115.188781 
L 386.753507 115.206104 
L 388.207011 113.109954 
L 388.414654 113.127278 
L 389.868158 111.031127 
L 390.075801 113.82022 
L 391.529305 111.72407 
L 391.736948 111.741393 
L 393.190451 109.645243 
L 393.398095 109.662566 
L 394.851598 107.566416 
L 395.059242 107.58374 
L 396.512745 105.487589 
L 396.720388 106.890797 
L 397.343319 106.111237 
L 397.550962 106.128561 
L 398.173892 105.349001 
L 398.381535 105.366324 
L 399.004465 104.586764 
L 399.212109 104.604088 
L 399.835039 103.824528 
L 400.042682 104.950559 
L 400.665612 104.170999 
L 400.873256 104.188323 
L 401.496186 103.408763 
L 401.703829 103.426086 
L 402.326759 102.646526 
L 402.534403 102.66385 
L 403.157333 101.88429 
L 403.364976 103.010321 
L 403.987906 102.230761 
L 404.195549 102.248084 
L 404.81848 101.468524 
L 405.026123 101.485848 
L 405.649053 100.706288 
L 405.856696 100.723611 
L 406.479626 99.944051 
L 406.68727 101.070082 
L 407.3102 100.290522 
L 407.517843 100.307846 
L 408.140773 99.528286 
L 408.348417 99.54561 
L 408.971347 98.766049 
L 409.17899 98.783373 
L 409.80192 98.003813 
L 410.009564 139.043318 
L 410.632494 138.263758 
L 410.840137 138.281082 
L 411.463067 137.501522 
L 411.67071 137.518845 
L 412.29364 136.739285 
L 412.501284 136.756609 
L 413.124214 135.977049 
L 413.331857 137.10308 
L 413.954787 136.32352 
L 414.162431 136.340843 
L 414.785361 135.561283 
L 414.993004 135.578607 
L 415.615934 134.799047 
L 415.823578 134.81637 
L 416.446508 134.03681 
L 416.654151 135.162841 
L 417.277081 134.383281 
L 417.484724 134.400605 
L 418.107655 133.621045 
L 418.315298 133.638368 
L 418.938228 132.858808 
L 419.145871 132.876132 
L 419.768801 132.096572 
L 419.976445 133.222603 
L 420.599375 132.443043 
L 420.807018 132.460367 
L 421.429948 131.680807 
L 421.637592 131.69813 
L 422.260522 130.91857 
L 422.468165 130.935894 
L 423.091095 130.156334 
L 423.298739 131.282365 
L 423.921669 130.502805 
L 424.129312 130.520128 
L 424.752242 129.740568 
L 424.959885 129.757892 
L 425.582815 128.978332 
L 425.790459 128.995655 
L 426.413389 128.216095 
L 426.621032 129.342126 
L 427.243962 128.562566 
L 427.451606 128.57989 
L 428.074536 127.80033 
L 428.282179 127.817654 
L 428.905109 127.038093 
L 429.112753 127.055417 
L 429.735683 126.275857 
L 429.943326 127.401888 
L 430.566256 126.622328 
L 430.773899 126.639652 
L 431.39683 125.860092 
L 431.604473 125.877415 
L 432.227403 125.097855 
L 432.435046 125.115179 
L 433.057976 124.335619 
L 433.26562 125.46165 
L 433.88855 124.68209 
L 434.096193 124.699413 
L 434.719123 123.919853 
L 434.926767 123.937177 
L 435.549697 123.157617 
L 435.75734 123.17494 
L 436.38027 122.39538 
L 436.587914 123.521412 
L 437.210844 122.741852 
L 437.418487 122.759175 
L 438.041417 121.979615 
L 438.24906 121.996939 
L 438.87199 121.217379 
L 439.079634 121.234702 
L 439.702564 120.455142 
L 439.910207 121.581173 
L 440.533137 120.801613 
L 440.740781 120.818937 
L 441.363711 120.039377 
L 441.571354 120.0567 
L 442.194284 119.27714 
L 442.401928 119.294464 
L 443.024858 118.514904 
L 443.232501 119.640935 
L 443.855431 118.861375 
L 444.063074 118.878698 
L 444.686005 118.099138 
L 444.893648 118.116462 
L 445.516578 117.336902 
L 445.724221 117.354225 
L 446.347151 116.574665 
L 446.554795 117.700697 
L 447.177725 116.921137 
L 447.385368 116.93846 
L 448.008298 116.1589 
L 448.215942 116.176224 
L 448.838872 115.396664 
L 449.046515 115.413987 
L 449.669445 114.634427 
L 449.877089 115.760458 
L 450.500019 114.980898 
L 450.707662 114.998222 
L 451.330592 114.218662 
L 451.538235 114.235985 
L 452.161165 113.456425 
L 452.368809 113.473749 
L 452.991739 112.694189 
L 453.199382 113.82022 
L 453.822312 113.04066 
L 454.029956 113.057984 
L 454.652886 112.278423 
L 454.860529 112.295747 
L 455.483459 111.516187 
L 455.691103 111.533511 
L 456.314033 110.753951 
L 456.521676 111.879982 
L 457.144606 111.100422 
L 457.352249 111.117745 
L 457.97518 110.338185 
L 458.182823 110.355509 
L 458.805753 109.575949 
L 459.013396 109.593272 
L 459.636326 108.813712 
L 459.84397 109.939743 
L 460.4669 109.160183 
L 460.674543 109.177507 
L 461.297473 108.397947 
L 461.505117 108.41527 
L 462.128047 107.63571 
L 462.33569 107.653034 
L 462.95862 106.873474 
L 463.166264 125.738827 
L 463.789194 124.959267 
L 463.996837 124.97659 
L 464.619767 124.19703 
L 464.82741 124.214354 
L 465.45034 123.434794 
L 465.657984 123.452117 
L 466.280914 122.672557 
L 466.488557 123.798588 
L 467.111487 123.019028 
L 467.319131 123.036352 
L 467.942061 122.256792 
L 468.149704 122.274115 
L 468.772634 121.494555 
L 468.980278 121.511879 
L 469.603208 120.732319 
L 469.810851 121.85835 
L 470.433781 121.07879 
L 470.641424 121.096114 
L 471.264355 120.316554 
L 471.471998 120.333877 
L 472.094928 119.554317 
L 472.302571 119.571641 
L 472.925501 118.792081 
L 473.133145 119.918112 
L 473.756075 119.138552 
L 473.963718 119.155875 
L 474.586648 118.376315 
L 474.794292 118.393639 
L 475.417222 117.614079 
L 475.624865 117.631402 
L 476.247795 116.851842 
L 476.455439 117.977874 
L 477.078369 117.198313 
L 477.286012 117.215637 
L 477.908942 116.436077 
L 478.116585 116.453401 
L 478.739515 115.673841 
L 478.947159 115.691164 
L 479.570089 114.911604 
L 479.777732 116.037635 
L 480.400662 115.258075 
L 480.608306 115.275399 
L 481.231236 114.495839 
L 481.438879 114.513162 
L 482.061809 113.733602 
L 482.269453 113.750926 
L 482.892383 112.971366 
L 483.100026 114.097397 
L 483.722956 113.317837 
L 483.930599 113.33516 
L 484.55353 112.5556 
L 484.761173 112.572924 
L 485.384103 111.793364 
L 485.591746 111.810687 
L 486.214676 111.031127 
L 486.42232 112.157159 
L 487.04525 111.377599 
L 487.252893 111.394922 
L 487.875823 110.615362 
L 488.083467 110.632686 
L 488.706397 109.853126 
L 488.91404 109.870449 
L 489.53697 109.090889 
L 489.744614 110.21692 
L 490.367544 109.43736 
L 490.575187 109.454684 
L 491.198117 108.675124 
L 491.40576 108.692447 
L 492.028691 107.912887 
L 492.236334 107.930211 
L 492.859264 107.150651 
L 493.066907 108.276682 
L 493.689837 107.497122 
L 493.897481 107.514445 
L 494.520411 106.734885 
L 494.728054 106.752209 
L 495.350984 105.972649 
L 495.558628 105.989973 
L 496.181558 105.210412 
L 496.389201 106.336444 
L 497.012131 105.556884 
L 497.219774 105.574207 
L 497.842705 104.794647 
L 498.050348 104.811971 
L 498.673278 104.032411 
L 498.880921 104.049734 
L 499.503851 103.270174 
L 499.711495 104.396205 
L 500.334425 103.616645 
L 500.542068 103.633969 
L 501.164998 102.854409 
L 501.372642 102.871732 
L 501.995572 102.092172 
L 502.203215 102.109496 
L 502.826145 101.329936 
L 503.033789 102.455967 
L 503.656719 101.676407 
L 503.864362 101.693731 
L 504.487292 100.91417 
L 504.694935 100.931494 
L 505.317866 100.151934 
L 505.525509 100.169258 
L 506.148439 99.389698 
L 506.356082 100.515729 
L 506.979012 99.736169 
L 507.186656 99.753492 
L 507.809586 98.973932 
L 508.017229 98.991256 
L 508.640159 98.211696 
L 508.847803 98.229019 
L 509.470733 97.449459 
L 509.678376 98.57549 
L 510.301306 97.79593 
L 510.50895 97.813254 
L 511.13188 97.033694 
L 511.339523 97.051017 
L 511.962453 96.271457 
L 512.170096 96.288781 
L 512.793026 95.509221 
L 513.00067 96.635252 
L 513.6236 95.855692 
L 513.831243 95.873016 
L 514.454173 95.093456 
L 514.661817 95.110779 
L 515.284747 94.331219 
L 515.49239 94.348543 
L 516.11532 93.568983 
L 516.322964 112.434335 
L 516.945894 111.654775 
L 517.153537 111.672099 
L 517.776467 110.892539 
L 517.98411 110.909863 
L 518.607041 110.130302 
L 518.814684 110.147626 
L 519.437614 109.368066 
L 519.645257 110.494097 
L 520.268187 109.714537 
L 520.475831 109.731861 
L 521.098761 108.952301 
L 521.306404 108.969624 
L 521.929334 108.190064 
L 522.136978 108.207388 
L 522.759908 107.427828 
L 522.967551 108.553859 
L 523.590481 107.774299 
L 523.798125 107.791622 
L 524.421055 107.012062 
L 524.628698 107.029386 
L 525.251628 106.249826 
L 525.459271 106.267149 
L 526.082201 105.487589 
L 526.289845 106.613621 
L 526.912775 105.83406 
L 527.120418 105.851384 
L 527.743348 105.071824 
L 527.950992 105.089148 
L 528.573922 104.309588 
L 528.781565 104.326911 
L 529.404495 103.547351 
L 529.612139 104.673382 
L 530.235069 103.893822 
L 530.442712 103.911146 
L 531.065642 103.131586 
L 531.273285 103.148909 
L 531.896216 102.369349 
L 532.103859 102.386673 
L 532.726789 101.607113 
L 532.934432 102.733144 
L 533.557362 101.953584 
L 533.765006 101.970907 
L 534.387936 101.191347 
L 534.595579 101.208671 
L 535.218509 100.429111 
L 535.426153 100.446434 
L 536.049083 99.666874 
L 536.256726 100.792906 
L 536.879656 100.013346 
L 537.0873 100.030669 
L 537.71023 99.251109 
L 537.917873 99.268433 
L 538.540803 98.488873 
L 538.748446 98.506196 
L 539.371376 97.726636 
L 539.57902 98.852667 
L 540.20195 98.073107 
L 540.409593 98.090431 
L 541.032523 97.310871 
L 541.240167 97.328194 
L 541.863097 96.548634 
L 542.07074 96.565958 
L 542.69367 95.786398 
L 542.901314 96.912429 
L 543.524244 96.132869 
L 543.731887 96.150192 
L 544.354817 95.370632 
L 544.56246 95.387956 
L 545.185391 94.608396 
L 545.393034 94.62572 
L 546.015964 93.846159 
L 546.223607 94.972191 
L 546.846537 94.192631 
L 547.054181 94.209954 
L 547.677111 93.430394 
L 547.884754 93.447718 
L 548.507684 92.668158 
L 548.715328 92.685481 
L 549.338258 91.905921 
L 549.545901 93.031952 
L 550.168831 92.252392 
L 550.376475 92.269716 
L 550.999405 91.490156 
L 551.207048 91.507479 
L 551.829978 90.727919 
L 552.037621 90.745243 
L 552.660551 89.965683 
L 552.868195 91.091714 
L 553.491125 90.312154 
L 553.698768 90.329478 
L 554.321698 89.549918 
L 554.529342 89.567241 
L 555.152272 88.787681 
L 555.359915 88.805005 
L 555.982845 88.025445 
L 556.190489 89.151476 
L 556.813419 88.371916 
L 557.021062 88.389239 
L 557.643992 87.609679 
L 557.851635 87.627003 
L 558.474566 86.847443 
L 558.682209 86.864766 
L 559.305139 86.085206 
L 559.512782 87.211237 
L 560.135712 86.431677 
L 560.343356 86.449001 
L 560.966286 85.669441 
L 561.173929 85.686764 
L 561.796859 84.907204 
L 562.004503 84.924528 
L 562.627433 84.144968 
L 562.835076 85.270999 
L 563.458006 84.491439 
L 563.66565 84.508763 
L 564.28858 83.729203 
L 564.496223 83.746526 
L 565.119153 82.966966 
L 565.326796 82.98429 
L 565.949726 82.20473 
L 566.15737 83.330761 
L 566.7803 82.551201 
L 566.987943 82.568524 
L 567.610873 81.788964 
L 567.818517 81.806288 
L 568.441447 81.026728 
L 568.64909 81.044051 
L 569.27202 80.264491 
L 569.479664 99.129844 
L 570.102594 98.350284 
L 570.310237 98.367608 
L 570.933167 97.588048 
L 571.14081 97.605371 
L 571.763741 96.825811 
L 571.971384 96.843135 
L 572.594314 96.063575 
L 572.801957 97.189606 
L 573.424887 96.410046 
L 573.632531 96.427369 
L 574.255461 95.647809 
L 574.463104 95.665133 
L 575.086034 94.885573 
L 575.293678 94.902896 
L 575.916608 94.123336 
L 576.124251 95.249368 
L 576.747181 94.469808 
L 576.954825 94.487131 
L 577.577755 93.707571 
L 577.785398 93.724895 
L 578.408328 92.945335 
L 578.615971 92.962658 
L 579.238901 92.183098 
L 579.446545 93.309129 
L 580.069475 92.529569 
L 580.277118 92.546893 
L 580.900048 91.767333 
L 581.107692 91.784656 
L 581.730622 91.005096 
L 581.938265 91.02242 
L 582.561195 90.24286 
L 582.768839 91.368891 
L 583.391769 90.589331 
L 583.599412 90.606654 
L 584.222342 89.827094 
L 584.429985 89.844418 
L 585.052916 89.064858 
L 585.260559 89.082181 
L 585.883489 88.302621 
L 586.091132 89.428653 
L 586.714062 88.649093 
L 586.921706 88.666416 
L 587.544636 87.886856 
L 587.752279 87.90418 
L 588.375209 87.12462 
L 588.582853 87.141943 
L 589.205783 86.362383 
L 589.413426 87.488414 
L 590.036356 86.708854 
L 590.244 86.726178 
L 590.86693 85.946618 
L 591.074573 85.963941 
L 591.697503 85.184381 
L 591.905146 85.201705 
L 592.528077 84.422145 
L 592.73572 85.548176 
L 593.35865 84.768616 
L 593.566293 84.78594 
L 594.189223 84.006379 
L 594.396867 84.023703 
L 595.019797 83.244143 
L 595.22744 83.261467 
L 595.85037 82.481907 
L 596.058014 83.607938 
L 596.680944 82.828378 
L 596.888587 82.845701 
L 597.511517 82.066141 
L 597.71916 82.083465 
L 598.342091 81.303905 
L 598.549734 81.321228 
L 599.172664 80.541668 
L 599.380307 81.667699 
L 600.003237 80.888139 
L 600.210881 80.905463 
L 600.833811 80.125903 
L 601.041454 80.143226 
L 601.664384 79.363666 
L 601.872028 79.38099 
L 602.494958 78.60143 
L 602.702601 79.727461 
L 603.325531 78.947901 
L 603.533175 78.965225 
L 604.156105 78.185665 
L 604.363748 78.202988 
L 604.986678 77.423428 
L 605.194321 77.440752 
L 605.817252 76.661192 
L 606.024895 77.787223 
L 606.647825 77.007663 
L 606.855468 77.024986 
L 607.478398 76.245426 
L 607.686042 76.26275 
L 608.308972 75.48319 
L 608.516615 75.500513 
L 609.139545 74.720953 
L 609.347189 75.846984 
L 609.970119 75.067424 
L 610.177762 75.084748 
L 610.800692 74.305188 
L 611.008336 74.322511 
L 611.631266 73.542951 
L 611.838909 73.560275 
L 612.461839 72.780715 
L 612.669482 73.906746 
L 613.292412 73.127186 
L 613.500056 73.14451 
L 614.122986 72.36495 
L 614.330629 72.382273 
L 614.953559 71.602713 
L 615.161203 71.620037 
L 615.784133 70.840477 
L 615.991776 71.966508 
L 616.614706 71.186948 
L 616.82235 71.204271 
L 617.44528 70.424711 
L 617.652923 70.442035 
L 618.275853 69.662475 
L 618.483496 69.679798 
L 619.106427 68.900238 
L 619.31407 70.026269 
L 619.937 69.246709 
L 620.144643 69.264033 
L 620.767573 68.484473 
L 620.975217 68.501797 
L 621.598147 67.722236 
L 621.80579 67.73956 
L 622.42872 66.96 
L 622.636364 369.36 
L 622.636364 369.36 
" clip-path="url(#p259ab3dad1)" style="fill: none; stroke: #1f77b4; stroke-width: 1.5; stroke-linecap: square"/>
   </g>
   <g id="patch_3">
    <path d="M 90 384.48 
L 90 51.84 
" style="fill: none; stroke: #000000; stroke-width: 0.8; stroke-linejoin: miter; stroke-linecap: square"/>
   </g>
   <g id="patch_4">
    <path d="M 648 384.48 
L 648 51.84 
" style="fill: none; stroke: #000000; stroke-width: 0.8; stroke-linejoin: miter; stroke-linecap: square"/>
   </g>
   <g id="patch_5">
    <path d="M 90 384.48 
L 648 384.48 
" style="fill: none; stroke: #000000; stroke-width: 0.8; stroke-linejoin: miter; stroke-linecap: square"/>
   </g>
   <g id="patch_6">
    <path d="M 90 51.84 
L 648 51.84 
" style="fill: none; stroke: #000000; stroke-width: 0.8; stroke-linejoin: miter; stroke-linecap: square"/>
   </g>
   <g id="text_17">
    <!-- Queue size over time -->
    <g transform="translate(304.997813 45.84) scale(0.12 -0.12)">
     <defs>
      <path id="DejaVuSans-73" d="M 2834 3397 
L 2834 2853 
Q 2591 2978 2328 3040 
Q 2066 3103 1784 3103 
Q 1356 3103 1142 2972 
Q 928 2841 928 2578 
Q 928 2378 1081 2264 
Q 1234 2150 1697 2047 
L 1894 2003 
Q 2506 1872 2764 1633 
Q 3022 1394 3022 966 
Q 3022 478 2636 193 
Q 2250 -91 1575 -91 
Q 1294 -91 989 -36 
Q 684 19 347 128 
L 347 722 
Q 666 556 975 473 
Q 1284 391 1588 391 
Q 1994 391 2212 530 
Q 2431 669 2431 922 
Q 2431 1156 2273 1281 
Q 2116 1406 1581 1522 
L 1381 1569 
Q 847 1681 609 1914 
Q 372 2147 372 2553 
Q 372 3047 722 3315 
Q 1072 3584 1716 3584 
Q 2034 3584 2315 3537 
Q 2597 3491 2834 3397 
z
" transform="scale(0.015625)"/>
      <path id="DejaVuSans-6f" d="M 1959 3097 
Q 1497 3097 1228 2736 
Q 959 2375 959 1747 
Q 959 1119 1226 758 
Q 1494 397 1959 397 
Q 2419 397 2687 759 
Q 2956 1122 2956 1747 
Q 2956 2369 2687 2733 
Q 2419 3097 1959 3097 
z
M 1959 3584 
Q 2709 3584 3137 3096 
Q 3566 2609 3566 1747 
Q 3566 888 3137 398 
Q 2709 -91 1959 -91 
Q 1206 -91 779 398 
Q 353 888 353 1747 
Q 353 2609 779 3096 
Q 1206 3584 1959 3584 
z
" transform="scale(0.015625)"/>
      <path id="DejaVuSans-76" d="M 191 3500 
L 800 3500 
L 1894 563 
L 2988 3500 
L 3597 3500 
L 2284 0 
L 1503 0 
L 191 3500 
z
" transform="scale(0.015625)"/>
      <path id="DejaVuSans-72" d="M 2631 2963 
Q 2534 3019 2420 3045 
Q 2306 3072 2169 3072 
Q 1681 3072 1420 2755 
Q 1159 2438 1159 1844 
L 1159 0 
L 581 0 
L 581 3500 
L 1159 3500 
L 1159 2956 
Q 1341 3275 1631 3429 
Q 1922 3584 2338 3584 
Q 2397 3584 2469 3576 
Q 2541 3569 2628 3553 
L 2631 2963 
z
" transform="scale(0.015625)"/>
      <path id="DejaVuSans-74" d="M 1172 4494 
L 1172 3500 
L 2356 3500 
L 2356 3053 
L 1172 3053 
L 1172 1153 
Q 1172 725 1289 603 
Q 1406 481 1766 481 
L 2356 481 
L 2356 0 
L 1766 0 
Q 1100 0 847 248 
Q 594 497 594 1153 
L 594 3053 
L 172 3053 
L 172 3500 
L 594 3500 
L 594 4494 
L 1172 4494 
z
" transform="scale(0.015625)"/>
      <path id="DejaVuSans-6d" d="M 3328 2828 
Q 3544 3216 3844 3400 
Q 4144 3584 4550 3584 
Q 5097 3584 5394 3201 
Q 5691 2819 5691 2113 
L 5691 0 
L 5113 0 
L 5113 2094 
Q 5113 2597 4934 2840 
Q 4756 3084 4391 3084 
Q 3944 3084 3684 2787 
Q 3425 2491 3425 1978 
L 3425 0 
L 2847 0 
L 2847 2094 
Q 2847 2600 2669 2842 
Q 2491 3084 2119 3084 
Q 1678 3084 1418 2786 
Q 1159 2488 1159 1978 
L 1159 0 
L 581 0 
L 581 3500 
L 1159 3500 
L 1159 2956 
Q 1356 3278 1631 3431 
Q 1906 3584 2284 3584 
Q 2666 3584 2933 3390 
Q 3200 3197 3328 2828 
z
" transform="scale(0.015625)"/>
     </defs>
     <use xlink:href="#DejaVuSans-51"/>
     <use xlink:href="#DejaVuSans-75" transform="translate(78.710938 0)"/>
     <use xlink:href="#DejaVuSans-65" transform="translate(142.089844 0)"/>
     <use xlink:href="#DejaVuSans-75" transform="translate(203.613281 0)"/>
     <use xlink:href="#DejaVuSans-65" transform="translate(266.992188 0)"/>
     <use xlink:href="#DejaVuSans-20" transform="translate(328.515625 0)"/>
     <use xlink:href="#DejaVuSans-73" transform="translate(360.302734 0)"/>
     <use xlink:href="#DejaVuSans-69" transform="translate(412.402344 0)"/>
     <use xlink:href="#DejaVuSans-7a" transform="translate(440.185547 0)"/>
     <use xlink:href="#DejaVuSans-65" transform="translate(492.675781 0)"/>
     <use xlink:href="#DejaVuSans-20" transform="translate(554.199219 0)"/>
     <use xlink:href="#DejaVuSans-6f" transform="translate(585.986328 0)"/>
     <use xlink:href="#DejaVuSans-76" transform="translate(647.167969 0)"/>
     <use xlink:href="#DejaVuSans-65" transform="translate(706.347656 0)"/>
     <use xlink:href="#DejaVuSans-72" transform="translate(767.871094 0)"/>
     <use xlink:href="#DejaVuSans-20" transform="translate(808.984375 0)"/>
     <use xlink:href="#DejaVuSans-74" transform="translate(840.771484 0)"/>
     <use xlink:href="#DejaVuSans-69" transform="translate(879.980469 0)"/>
     <use xlink:href="#DejaVuSans-6d" transform="translate(907.763672 0)"/>
     <use xlink:href="#DejaVuSans-65" transform="translate(1005.175781 0)"/>
    </g>
   </g>
   <g id="legend_1">
    <g id="patch_7">
     <path d="M 97 74.518125 
L 185.559375 74.518125 
Q 187.559375 74.518125 187.559375 72.518125 
L 187.559375 58.84 
Q 187.559375 56.84 185.559375 56.84 
L 97 56.84 
Q 95 56.84 95 58.84 
L 95 72.518125 
Q 95 74.518125 97 74.518125 
z
" style="fill: #ffffff; opacity: 0.8; stroke: #cccccc; stroke-linejoin: miter"/>
    </g>
    <g id="line2d_16">
     <path d="M 99 64.938438 
L 109 64.938438 
L 119 64.938438 
" style="fill: none; stroke: #1f77b4; stroke-width: 1.5; stroke-linecap: square"/>
    </g>
    <g id="text_18">
     <!-- Queue Size -->
     <g transform="translate(127 68.438438) scale(0.1 -0.1)">
      <use xlink:href="#DejaVuSans-51"/>
      <use xlink:href="#DejaVuSans-75" transform="translate(78.710938 0)"/>
      <use xlink:href="#DejaVuSans-65" transform="translate(142.089844 0)"/>
      <use xlink:href="#DejaVuSans-75" transform="translate(203.613281 0)"/>
      <use xlink:href="#DejaVuSans-65" transform="translate(266.992188 0)"/>
      <use xlink:href="#DejaVuSans-20" transform="translate(328.515625 0)"/>
      <use xlink:href="#DejaVuSans-53" transform="translate(360.302734 0)"/>
      <use xlink:href="#DejaVuSans-69" transform="translate(423.779297 0)"/>
      <use xlink:href="#DejaVuSans-7a" transform="translate(451.5625 0)"/>
      <use xlink:href="#DejaVuSans-65" transform="translate(504.052734 0)"/>
     </g>
    </g>
   </g>
  </g>
 </g>
 <defs>
  <clipPath id="p259ab3dad1">
   <rect x="90" y="51.84" width="558" height="332.64"/>
  </clipPath>
 </defs>
</svg>
