<?xml version="1.0" encoding="utf-8" standalone="no"?>
<!DOCTYPE svg PUBLIC "-//W3C//DTD SVG 1.1//EN"
  "http://www.w3.org/Graphics/SVG/1.1/DTD/svg11.dtd">
<svg xmlns:xlink="http://www.w3.org/1999/xlink" width="576pt" height="432pt" viewBox="0 0 576 432" xmlns="http://www.w3.org/2000/svg" version="1.1">
 <metadata>
  <rdf:RDF xmlns:dc="http://purl.org/dc/elements/1.1/" xmlns:cc="http://creativecommons.org/ns#" xmlns:rdf="http://www.w3.org/1999/02/22-rdf-syntax-ns#">
   <cc:Work>
    <dc:type rdf:resource="http://purl.org/dc/dcmitype/StillImage"/>
    <dc:date>2025-09-30T20:43:07.279204</dc:date>
    <dc:format>image/svg+xml</dc:format>
    <dc:creator>
     <cc:Agent>
      <dc:title>Matplotlib v3.10.3, https://matplotlib.org/</dc:title>
     </cc:Agent>
    </dc:creator>
   </cc:Work>
  </rdf:RDF>
 </metadata>
 <defs>
  <style type="text/css">*{stroke-linejoin: round; stroke-linecap: butt}</style>
 </defs>
 <g id="figure_1">
  <g id="patch_1">
   <path d="M 0 432 
L 576 432 
L 576 0 
L 0 0 
z
" style="fill: #ffffff"/>
  </g>
  <g id="axes_1">
   <g id="patch_2">
    <path d="M 72 384.48 
L 518.4 384.48 
L 518.4 51.84 
L 72 51.84 
z
" style="fill: #ffffff"/>
   </g>
   <g id="FillBetweenPolyCollection_1">
    <path d="M 399.65443 348.312739 
L 190.74557 348.312739 
L 188.136249 345.460668 
L 186.094732 342.608597 
L 184.648773 339.756527 
L 183.815292 336.904456 
L 183.6 334.052386 
L 183.997397 331.200315 
L 184.991121 328.348244 
L 186.554634 325.496174 
L 188.65222 322.644103 
L 191.240233 319.792033 
L 194.26854 316.939962 
L 197.682108 314.087891 
L 201.42264 311.235821 
L 205.430228 308.38375 
L 209.644914 305.53168 
L 214.008152 302.679609 
L 218.464081 299.827538 
L 222.960595 296.975468 
L 227.450192 294.123397 
L 231.890573 291.271327 
L 236.245008 288.419256 
L 240.482475 285.567185 
L 244.577604 282.715115 
L 248.510436 279.863044 
L 252.266056 277.010974 
L 255.834118 274.158903 
L 259.208298 271.306832 
L 262.38573 268.454762 
L 265.366422 265.602691 
L 268.152709 262.750621 
L 270.748742 259.89855 
L 273.160038 257.046479 
L 275.393092 254.194409 
L 277.45506 251.342338 
L 279.353504 248.490268 
L 281.096204 245.638197 
L 282.691018 242.786127 
L 284.145789 239.934056 
L 285.468284 237.081985 
L 286.666164 234.229915 
L 287.746957 231.377844 
L 288.718053 228.525774 
L 289.586688 225.673703 
L 290.359938 222.821632 
L 291.044694 219.969562 
L 291.647642 217.117491 
L 292.175226 214.265421 
L 292.633615 211.41335 
L 293.028653 208.561279 
L 293.365816 205.709209 
L 293.650165 202.857138 
L 293.886297 200.005068 
L 294.078306 197.152997 
L 294.229746 194.300926 
L 294.343598 191.448856 
L 294.42225 188.596785 
L 294.467487 185.744715 
L 294.480486 182.892644 
L 294.461831 180.040573 
L 294.41153 177.188503 
L 294.329059 174.336432 
L 294.213402 171.484362 
L 294.063126 168.632291 
L 293.876449 165.78022 
L 293.651341 162.92815 
L 293.385628 160.076079 
L 293.077113 157.224009 
L 292.723708 154.371938 
L 292.323573 151.519867 
L 291.875268 148.667797 
L 291.377898 145.815726 
L 290.831262 142.963656 
L 290.235993 140.111585 
L 289.593685 137.259514 
L 288.906997 134.407444 
L 288.179739 131.555373 
L 287.416923 128.703303 
L 286.624774 125.851232 
L 285.810706 122.999161 
L 284.983258 120.147091 
L 284.151976 117.29502 
L 283.327261 114.44295 
L 282.520169 111.590879 
L 281.742183 108.738808 
L 281.004946 105.886738 
L 280.319978 103.034667 
L 279.698381 100.182597 
L 279.150539 97.330526 
L 278.68583 94.478455 
L 278.312365 91.626385 
L 278.036745 88.774314 
L 277.863871 85.922244 
L 277.796802 83.070173 
L 277.83666 80.218102 
L 277.982603 77.366032 
L 278.231855 74.513961 
L 278.57979 71.661891 
L 279.020078 68.80982 
L 279.544877 65.957749 
L 310.855123 65.957749 
L 310.855123 65.957749 
L 311.379922 68.80982 
L 311.82021 71.661891 
L 312.168145 74.513961 
L 312.417397 77.366032 
L 312.56334 80.218102 
L 312.603198 83.070173 
L 312.536129 85.922244 
L 312.363255 88.774314 
L 312.087635 91.626385 
L 311.71417 94.478455 
L 311.249461 97.330526 
L 310.701619 100.182597 
L 310.080022 103.034667 
L 309.395054 105.886738 
L 308.657817 108.738808 
L 307.879831 111.590879 
L 307.072739 114.44295 
L 306.248024 117.29502 
L 305.416742 120.147091 
L 304.589294 122.999161 
L 303.775226 125.851232 
L 302.983077 128.703303 
L 302.220261 131.555373 
L 301.493003 134.407444 
L 300.806315 137.259514 
L 300.164007 140.111585 
L 299.568738 142.963656 
L 299.022102 145.815726 
L 298.524732 148.667797 
L 298.076427 151.519867 
L 297.676292 154.371938 
L 297.322887 157.224009 
L 297.014372 160.076079 
L 296.748659 162.92815 
L 296.523551 165.78022 
L 296.336874 168.632291 
L 296.186598 171.484362 
L 296.070941 174.336432 
L 295.98847 177.188503 
L 295.938169 180.040573 
L 295.919514 182.892644 
L 295.932513 185.744715 
L 295.97775 188.596785 
L 296.056402 191.448856 
L 296.170254 194.300926 
L 296.321694 197.152997 
L 296.513703 200.005068 
L 296.749835 202.857138 
L 297.034184 205.709209 
L 297.371347 208.561279 
L 297.766385 211.41335 
L 298.224774 214.265421 
L 298.752358 217.117491 
L 299.355306 219.969562 
L 300.040062 222.821632 
L 300.813312 225.673703 
L 301.681947 228.525774 
L 302.653043 231.377844 
L 303.733836 234.229915 
L 304.931716 237.081985 
L 306.254211 239.934056 
L 307.708982 242.786127 
L 309.303796 245.638197 
L 311.046496 248.490268 
L 312.94494 251.342338 
L 315.006908 254.194409 
L 317.239962 257.046479 
L 319.651258 259.89855 
L 322.247291 262.750621 
L 325.033578 265.602691 
L 328.01427 268.454762 
L 331.191702 271.306832 
L 334.565882 274.158903 
L 338.133944 277.010974 
L 341.889564 279.863044 
L 345.822396 282.715115 
L 349.917525 285.567185 
L 354.154992 288.419256 
L 358.509427 291.271327 
L 362.949808 294.123397 
L 367.439405 296.975468 
L 371.935919 299.827538 
L 376.391848 302.679609 
L 380.755086 305.53168 
L 384.969772 308.38375 
L 388.97736 311.235821 
L 392.717892 314.087891 
L 396.13146 316.939962 
L 399.159767 319.792033 
L 401.74778 322.644103 
L 403.845366 325.496174 
L 405.408879 328.348244 
L 406.402603 331.200315 
L 406.8 334.052386 
L 406.584708 336.904456 
L 405.751227 339.756527 
L 404.305268 342.608597 
L 402.263751 345.460668 
L 399.65443 348.312739 
z
" clip-path="url(#pfa0d4ae894)" style="fill: #1f77b4; fill-opacity: 0.3"/>
   </g>
   <g id="matplotlib.axis_1">
    <g id="xtick_1">
     <g id="line2d_1">
      <defs>
       <path id="mbcb87334c1" d="M 0 0 
L 0 3.5 
" style="stroke: #000000; stroke-width: 0.8"/>
      </defs>
      <g>
       <use xlink:href="#mbcb87334c1" x="295.2" y="384.48" style="stroke: #000000; stroke-width: 0.8"/>
      </g>
     </g>
     <g id="text_1">
      <!-- 1 -->
      <g transform="translate(292.01875 399.078438) scale(0.1 -0.1)">
       <defs>
        <path id="DejaVuSans-31" d="M 794 531 
L 1825 531 
L 1825 4091 
L 703 3866 
L 703 4441 
L 1819 4666 
L 2450 4666 
L 2450 531 
L 3481 531 
L 3481 0 
L 794 0 
L 794 531 
z
" transform="scale(0.015625)"/>
       </defs>
       <use xlink:href="#DejaVuSans-31"/>
      </g>
     </g>
    </g>
   </g>
   <g id="matplotlib.axis_2">
    <g id="ytick_1">
     <g id="line2d_2">
      <defs>
       <path id="m718c77ec9b" d="M 0 0 
L -3.5 0 
" style="stroke: #000000; stroke-width: 0.8"/>
      </defs>
      <g>
       <use xlink:href="#m718c77ec9b" x="72" y="384.48" style="stroke: #000000; stroke-width: 0.8"/>
      </g>
     </g>
     <g id="text_2">
      <!-- 0 -->
      <g transform="translate(58.6375 388.279219) scale(0.1 -0.1)">
       <defs>
        <path id="DejaVuSans-30" d="M 2034 4250 
Q 1547 4250 1301 3770 
Q 1056 3291 1056 2328 
Q 1056 1369 1301 889 
Q 1547 409 2034 409 
Q 2525 409 2770 889 
Q 3016 1369 3016 2328 
Q 3016 3291 2770 3770 
Q 2525 4250 2034 4250 
z
M 2034 4750 
Q 2819 4750 3233 4129 
Q 3647 3509 3647 2328 
Q 3647 1150 3233 529 
Q 2819 -91 2034 -91 
Q 1250 -91 836 529 
Q 422 1150 422 2328 
Q 422 3509 836 4129 
Q 1250 4750 2034 4750 
z
" transform="scale(0.015625)"/>
       </defs>
       <use xlink:href="#DejaVuSans-30"/>
      </g>
     </g>
    </g>
    <g id="ytick_2">
     <g id="line2d_3">
      <g>
       <use xlink:href="#m718c77ec9b" x="72" y="324.03432" style="stroke: #000000; stroke-width: 0.8"/>
      </g>
     </g>
     <g id="text_3">
      <!-- 20 -->
      <g transform="translate(52.275 327.833539) scale(0.1 -0.1)">
       <defs>
        <path id="DejaVuSans-32" d="M 1228 531 
L 3431 531 
L 3431 0 
L 469 0 
L 469 531 
Q 828 903 1448 1529 
Q 2069 2156 2228 2338 
Q 2531 2678 2651 2914 
Q 2772 3150 2772 3378 
Q 2772 3750 2511 3984 
Q 2250 4219 1831 4219 
Q 1534 4219 1204 4116 
Q 875 4013 500 3803 
L 500 4441 
Q 881 4594 1212 4672 
Q 1544 4750 1819 4750 
Q 2544 4750 2975 4387 
Q 3406 4025 3406 3419 
Q 3406 3131 3298 2873 
Q 3191 2616 2906 2266 
Q 2828 2175 2409 1742 
Q 1991 1309 1228 531 
z
" transform="scale(0.015625)"/>
       </defs>
       <use xlink:href="#DejaVuSans-32"/>
       <use xlink:href="#DejaVuSans-30" transform="translate(63.623047 0)"/>
      </g>
     </g>
    </g>
    <g id="ytick_3">
     <g id="line2d_4">
      <g>
       <use xlink:href="#m718c77ec9b" x="72" y="263.588641" style="stroke: #000000; stroke-width: 0.8"/>
      </g>
     </g>
     <g id="text_4">
      <!-- 40 -->
      <g transform="translate(52.275 267.387859) scale(0.1 -0.1)">
       <defs>
        <path id="DejaVuSans-34" d="M 2419 4116 
L 825 1625 
L 2419 1625 
L 2419 4116 
z
M 2253 4666 
L 3047 4666 
L 3047 1625 
L 3713 1625 
L 3713 1100 
L 3047 1100 
L 3047 0 
L 2419 0 
L 2419 1100 
L 313 1100 
L 313 1709 
L 2253 4666 
z
" transform="scale(0.015625)"/>
       </defs>
       <use xlink:href="#DejaVuSans-34"/>
       <use xlink:href="#DejaVuSans-30" transform="translate(63.623047 0)"/>
      </g>
     </g>
    </g>
    <g id="ytick_4">
     <g id="line2d_5">
      <g>
       <use xlink:href="#m718c77ec9b" x="72" y="203.142961" style="stroke: #000000; stroke-width: 0.8"/>
      </g>
     </g>
     <g id="text_5">
      <!-- 60 -->
      <g transform="translate(52.275 206.94218) scale(0.1 -0.1)">
       <defs>
        <path id="DejaVuSans-36" d="M 2113 2584 
Q 1688 2584 1439 2293 
Q 1191 2003 1191 1497 
Q 1191 994 1439 701 
Q 1688 409 2113 409 
Q 2538 409 2786 701 
Q 3034 994 3034 1497 
Q 3034 2003 2786 2293 
Q 2538 2584 2113 2584 
z
M 3366 4563 
L 3366 3988 
Q 3128 4100 2886 4159 
Q 2644 4219 2406 4219 
Q 1781 4219 1451 3797 
Q 1122 3375 1075 2522 
Q 1259 2794 1537 2939 
Q 1816 3084 2150 3084 
Q 2853 3084 3261 2657 
Q 3669 2231 3669 1497 
Q 3669 778 3244 343 
Q 2819 -91 2113 -91 
Q 1303 -91 875 529 
Q 447 1150 447 2328 
Q 447 3434 972 4092 
Q 1497 4750 2381 4750 
Q 2619 4750 2861 4703 
Q 3103 4656 3366 4563 
z
" transform="scale(0.015625)"/>
       </defs>
       <use xlink:href="#DejaVuSans-36"/>
       <use xlink:href="#DejaVuSans-30" transform="translate(63.623047 0)"/>
      </g>
     </g>
    </g>
    <g id="ytick_5">
     <g id="line2d_6">
      <g>
       <use xlink:href="#m718c77ec9b" x="72" y="142.697281" style="stroke: #000000; stroke-width: 0.8"/>
      </g>
     </g>
     <g id="text_6">
      <!-- 80 -->
      <g transform="translate(52.275 146.4965) scale(0.1 -0.1)">
       <defs>
        <path id="DejaVuSans-38" d="M 2034 2216 
Q 1584 2216 1326 1975 
Q 1069 1734 1069 1313 
Q 1069 891 1326 650 
Q 1584 409 2034 409 
Q 2484 409 2743 651 
Q 3003 894 3003 1313 
Q 3003 1734 2745 1975 
Q 2488 2216 2034 2216 
z
M 1403 2484 
Q 997 2584 770 2862 
Q 544 3141 544 3541 
Q 544 4100 942 4425 
Q 1341 4750 2034 4750 
Q 2731 4750 3128 4425 
Q 3525 4100 3525 3541 
Q 3525 3141 3298 2862 
Q 3072 2584 2669 2484 
Q 3125 2378 3379 2068 
Q 3634 1759 3634 1313 
Q 3634 634 3220 271 
Q 2806 -91 2034 -91 
Q 1263 -91 848 271 
Q 434 634 434 1313 
Q 434 1759 690 2068 
Q 947 2378 1403 2484 
z
M 1172 3481 
Q 1172 3119 1398 2916 
Q 1625 2713 2034 2713 
Q 2441 2713 2670 2916 
Q 2900 3119 2900 3481 
Q 2900 3844 2670 4047 
Q 2441 4250 2034 4250 
Q 1625 4250 1398 4047 
Q 1172 3844 1172 3481 
z
" transform="scale(0.015625)"/>
       </defs>
       <use xlink:href="#DejaVuSans-38"/>
       <use xlink:href="#DejaVuSans-30" transform="translate(63.623047 0)"/>
      </g>
     </g>
    </g>
    <g id="ytick_6">
     <g id="line2d_7">
      <g>
       <use xlink:href="#m718c77ec9b" x="72" y="82.251602" style="stroke: #000000; stroke-width: 0.8"/>
      </g>
     </g>
     <g id="text_7">
      <!-- 100 -->
      <g transform="translate(45.9125 86.05082) scale(0.1 -0.1)">
       <use xlink:href="#DejaVuSans-31"/>
       <use xlink:href="#DejaVuSans-30" transform="translate(63.623047 0)"/>
       <use xlink:href="#DejaVuSans-30" transform="translate(127.246094 0)"/>
      </g>
     </g>
    </g>
    <g id="text_8">
     <!-- Time (ms) -->
     <g transform="translate(39.832812 243.359219) rotate(-90) scale(0.1 -0.1)">
      <defs>
       <path id="DejaVuSans-54" d="M -19 4666 
L 3928 4666 
L 3928 4134 
L 2272 4134 
L 2272 0 
L 1638 0 
L 1638 4134 
L -19 4134 
L -19 4666 
z
" transform="scale(0.015625)"/>
       <path id="DejaVuSans-69" d="M 603 3500 
L 1178 3500 
L 1178 0 
L 603 0 
L 603 3500 
z
M 603 4863 
L 1178 4863 
L 1178 4134 
L 603 4134 
L 603 4863 
z
" transform="scale(0.015625)"/>
       <path id="DejaVuSans-6d" d="M 3328 2828 
Q 3544 3216 3844 3400 
Q 4144 3584 4550 3584 
Q 5097 3584 5394 3201 
Q 5691 2819 5691 2113 
L 5691 0 
L 5113 0 
L 5113 2094 
Q 5113 2597 4934 2840 
Q 4756 3084 4391 3084 
Q 3944 3084 3684 2787 
Q 3425 2491 3425 1978 
L 3425 0 
L 2847 0 
L 2847 2094 
Q 2847 2600 2669 2842 
Q 2491 3084 2119 3084 
Q 1678 3084 1418 2786 
Q 1159 2488 1159 1978 
L 1159 0 
L 581 0 
L 581 3500 
L 1159 3500 
L 1159 2956 
Q 1356 3278 1631 3431 
Q 1906 3584 2284 3584 
Q 2666 3584 2933 3390 
Q 3200 3197 3328 2828 
z
" transform="scale(0.015625)"/>
       <path id="DejaVuSans-65" d="M 3597 1894 
L 3597 1613 
L 953 1613 
Q 991 1019 1311 708 
Q 1631 397 2203 397 
Q 2534 397 2845 478 
Q 3156 559 3463 722 
L 3463 178 
Q 3153 47 2828 -22 
Q 2503 -91 2169 -91 
Q 1331 -91 842 396 
Q 353 884 353 1716 
Q 353 2575 817 3079 
Q 1281 3584 2069 3584 
Q 2775 3584 3186 3129 
Q 3597 2675 3597 1894 
z
M 3022 2063 
Q 3016 2534 2758 2815 
Q 2500 3097 2075 3097 
Q 1594 3097 1305 2825 
Q 1016 2553 972 2059 
L 3022 2063 
z
" transform="scale(0.015625)"/>
       <path id="DejaVuSans-20" transform="scale(0.015625)"/>
       <path id="DejaVuSans-28" d="M 1984 4856 
Q 1566 4138 1362 3434 
Q 1159 2731 1159 2009 
Q 1159 1288 1364 580 
Q 1569 -128 1984 -844 
L 1484 -844 
Q 1016 -109 783 600 
Q 550 1309 550 2009 
Q 550 2706 781 3412 
Q 1013 4119 1484 4856 
L 1984 4856 
z
" transform="scale(0.015625)"/>
       <path id="DejaVuSans-73" d="M 2834 3397 
L 2834 2853 
Q 2591 2978 2328 3040 
Q 2066 3103 1784 3103 
Q 1356 3103 1142 2972 
Q 928 2841 928 2578 
Q 928 2378 1081 2264 
Q 1234 2150 1697 2047 
L 1894 2003 
Q 2506 1872 2764 1633 
Q 3022 1394 3022 966 
Q 3022 478 2636 193 
Q 2250 -91 1575 -91 
Q 1294 -91 989 -36 
Q 684 19 347 128 
L 347 722 
Q 666 556 975 473 
Q 1284 391 1588 391 
Q 1994 391 2212 530 
Q 2431 669 2431 922 
Q 2431 1156 2273 1281 
Q 2116 1406 1581 1522 
L 1381 1569 
Q 847 1681 609 1914 
Q 372 2147 372 2553 
Q 372 3047 722 3315 
Q 1072 3584 1716 3584 
Q 2034 3584 2315 3537 
Q 2597 3491 2834 3397 
z
" transform="scale(0.015625)"/>
       <path id="DejaVuSans-29" d="M 513 4856 
L 1013 4856 
Q 1481 4119 1714 3412 
Q 1947 2706 1947 2009 
Q 1947 1309 1714 600 
Q 1481 -109 1013 -844 
L 513 -844 
Q 928 -128 1133 580 
Q 1338 1288 1338 2009 
Q 1338 2731 1133 3434 
Q 928 4138 513 4856 
z
" transform="scale(0.015625)"/>
      </defs>
      <use xlink:href="#DejaVuSans-54"/>
      <use xlink:href="#DejaVuSans-69" transform="translate(57.958984 0)"/>
      <use xlink:href="#DejaVuSans-6d" transform="translate(85.742188 0)"/>
      <use xlink:href="#DejaVuSans-65" transform="translate(183.154297 0)"/>
      <use xlink:href="#DejaVuSans-20" transform="translate(244.677734 0)"/>
      <use xlink:href="#DejaVuSans-28" transform="translate(276.464844 0)"/>
      <use xlink:href="#DejaVuSans-6d" transform="translate(315.478516 0)"/>
      <use xlink:href="#DejaVuSans-73" transform="translate(412.890625 0)"/>
      <use xlink:href="#DejaVuSans-29" transform="translate(464.990234 0)"/>
     </g>
    </g>
   </g>
   <g id="LineCollection_1">
    <path d="M 239.4 298.927446 
L 351 298.927446 
" clip-path="url(#pfa0d4ae894)" style="fill: none; stroke: #1f77b4; stroke-width: 1.5"/>
   </g>
   <g id="LineCollection_2">
    <path d="M 239.4 65.957749 
L 351 65.957749 
" clip-path="url(#pfa0d4ae894)" style="fill: none; stroke: #1f77b4; stroke-width: 1.5"/>
   </g>
   <g id="LineCollection_3">
    <path d="M 239.4 348.312739 
L 351 348.312739 
" clip-path="url(#pfa0d4ae894)" style="fill: none; stroke: #1f77b4; stroke-width: 1.5"/>
   </g>
   <g id="LineCollection_4">
    <path d="M 295.2 348.312739 
L 295.2 65.957749 
" clip-path="url(#pfa0d4ae894)" style="fill: none; stroke: #1f77b4; stroke-width: 1.5"/>
   </g>
   <g id="patch_3">
    <path d="M 250.56 342.538203 
L 339.84 342.538203 
L 339.84 312.103168 
L 250.56 312.103168 
L 250.56 342.538203 
z
" clip-path="url(#pfa0d4ae894)" style="fill: #1f77b4; stroke: #000000; stroke-linejoin: miter"/>
   </g>
   <g id="line2d_8">
    <path d="M 295.2 342.538203 
L 295.2 348.312739 
" clip-path="url(#pfa0d4ae894)" style="fill: none; stroke: #000000; stroke-linecap: square"/>
   </g>
   <g id="line2d_9">
    <path d="M 295.2 312.103168 
L 295.2 269.680323 
" clip-path="url(#pfa0d4ae894)" style="fill: none; stroke: #000000; stroke-linecap: square"/>
   </g>
   <g id="line2d_10">
    <path d="M 272.88 348.312739 
L 317.52 348.312739 
" clip-path="url(#pfa0d4ae894)" style="fill: none; stroke: #000000; stroke-linecap: square"/>
   </g>
   <g id="line2d_11">
    <path d="M 272.88 269.680323 
L 317.52 269.680323 
" clip-path="url(#pfa0d4ae894)" style="fill: none; stroke: #000000; stroke-linecap: square"/>
   </g>
   <g id="line2d_12">
    <defs>
     <path id="m8eef29df46" d="M 0 3 
C 0.795609 3 1.55874 2.683901 2.12132 2.12132 
C 2.683901 1.55874 3 0.795609 3 0 
C 3 -0.795609 2.683901 -1.55874 2.12132 -2.12132 
C 1.55874 -2.683901 0.795609 -3 0 -3 
C -0.795609 -3 -1.55874 -2.683901 -2.12132 -2.12132 
C -2.683901 -1.55874 -3 -0.795609 -3 0 
C -3 0.795609 -2.683901 1.55874 -2.12132 2.12132 
C -1.55874 2.683901 -0.795609 3 0 3 
z
" style="stroke: #000000"/>
    </defs>
    <g clip-path="url(#pfa0d4ae894)">
     <use xlink:href="#m8eef29df46" x="295.2" y="88.893572" style="fill-opacity: 0; stroke: #000000"/>
     <use xlink:href="#m8eef29df46" x="295.2" y="82.125288" style="fill-opacity: 0; stroke: #000000"/>
     <use xlink:href="#m8eef29df46" x="295.2" y="81.739669" style="fill-opacity: 0; stroke: #000000"/>
     <use xlink:href="#m8eef29df46" x="295.2" y="90.845134" style="fill-opacity: 0; stroke: #000000"/>
     <use xlink:href="#m8eef29df46" x="295.2" y="68.602877" style="fill-opacity: 0; stroke: #000000"/>
     <use xlink:href="#m8eef29df46" x="295.2" y="65.957749" style="fill-opacity: 0; stroke: #000000"/>
     <use xlink:href="#m8eef29df46" x="295.2" y="90.797889" style="fill-opacity: 0; stroke: #000000"/>
     <use xlink:href="#m8eef29df46" x="295.2" y="75.780571" style="fill-opacity: 0; stroke: #000000"/>
     <use xlink:href="#m8eef29df46" x="295.2" y="89.733263" style="fill-opacity: 0; stroke: #000000"/>
     <use xlink:href="#m8eef29df46" x="295.2" y="90.423371" style="fill-opacity: 0; stroke: #000000"/>
    </g>
   </g>
   <g id="line2d_13">
    <path d="M 250.56 332.910847 
L 339.84 332.910847 
" clip-path="url(#pfa0d4ae894)" style="fill: none; stroke: #ff7f0e"/>
   </g>
   <g id="patch_4">
    <path d="M 72 384.48 
L 72 51.84 
" style="fill: none; stroke: #000000; stroke-width: 0.8; stroke-linejoin: miter; stroke-linecap: square"/>
   </g>
   <g id="patch_5">
    <path d="M 518.4 384.48 
L 518.4 51.84 
" style="fill: none; stroke: #000000; stroke-width: 0.8; stroke-linejoin: miter; stroke-linecap: square"/>
   </g>
   <g id="patch_6">
    <path d="M 72 384.48 
L 518.4 384.48 
" style="fill: none; stroke: #000000; stroke-width: 0.8; stroke-linejoin: miter; stroke-linecap: square"/>
   </g>
   <g id="patch_7">
    <path d="M 72 51.84 
L 518.4 51.84 
" style="fill: none; stroke: #000000; stroke-width: 0.8; stroke-linejoin: miter; stroke-linecap: square"/>
   </g>
   <g id="text_9">
    <!-- Get Trace With Delay -->
    <g transform="translate(232.04625 45.84) scale(0.12 -0.12)">
     <defs>
      <path id="DejaVuSans-47" d="M 3809 666 
L 3809 1919 
L 2778 1919 
L 2778 2438 
L 4434 2438 
L 4434 434 
Q 4069 175 3628 42 
Q 3188 -91 2688 -91 
Q 1594 -91 976 548 
Q 359 1188 359 2328 
Q 359 3472 976 4111 
Q 1594 4750 2688 4750 
Q 3144 4750 3555 4637 
Q 3966 4525 4313 4306 
L 4313 3634 
Q 3963 3931 3569 4081 
Q 3175 4231 2741 4231 
Q 1884 4231 1454 3753 
Q 1025 3275 1025 2328 
Q 1025 1384 1454 906 
Q 1884 428 2741 428 
Q 3075 428 3337 486 
Q 3600 544 3809 666 
z
" transform="scale(0.015625)"/>
      <path id="DejaVuSans-74" d="M 1172 4494 
L 1172 3500 
L 2356 3500 
L 2356 3053 
L 1172 3053 
L 1172 1153 
Q 1172 725 1289 603 
Q 1406 481 1766 481 
L 2356 481 
L 2356 0 
L 1766 0 
Q 1100 0 847 248 
Q 594 497 594 1153 
L 594 3053 
L 172 3053 
L 172 3500 
L 594 3500 
L 594 4494 
L 1172 4494 
z
" transform="scale(0.015625)"/>
      <path id="DejaVuSans-72" d="M 2631 2963 
Q 2534 3019 2420 3045 
Q 2306 3072 2169 3072 
Q 1681 3072 1420 2755 
Q 1159 2438 1159 1844 
L 1159 0 
L 581 0 
L 581 3500 
L 1159 3500 
L 1159 2956 
Q 1341 3275 1631 3429 
Q 1922 3584 2338 3584 
Q 2397 3584 2469 3576 
Q 2541 3569 2628 3553 
L 2631 2963 
z
" transform="scale(0.015625)"/>
      <path id="DejaVuSans-61" d="M 2194 1759 
Q 1497 1759 1228 1600 
Q 959 1441 959 1056 
Q 959 750 1161 570 
Q 1363 391 1709 391 
Q 2188 391 2477 730 
Q 2766 1069 2766 1631 
L 2766 1759 
L 2194 1759 
z
M 3341 1997 
L 3341 0 
L 2766 0 
L 2766 531 
Q 2569 213 2275 61 
Q 1981 -91 1556 -91 
Q 1019 -91 701 211 
Q 384 513 384 1019 
Q 384 1609 779 1909 
Q 1175 2209 1959 2209 
L 2766 2209 
L 2766 2266 
Q 2766 2663 2505 2880 
Q 2244 3097 1772 3097 
Q 1472 3097 1187 3025 
Q 903 2953 641 2809 
L 641 3341 
Q 956 3463 1253 3523 
Q 1550 3584 1831 3584 
Q 2591 3584 2966 3190 
Q 3341 2797 3341 1997 
z
" transform="scale(0.015625)"/>
      <path id="DejaVuSans-63" d="M 3122 3366 
L 3122 2828 
Q 2878 2963 2633 3030 
Q 2388 3097 2138 3097 
Q 1578 3097 1268 2742 
Q 959 2388 959 1747 
Q 959 1106 1268 751 
Q 1578 397 2138 397 
Q 2388 397 2633 464 
Q 2878 531 3122 666 
L 3122 134 
Q 2881 22 2623 -34 
Q 2366 -91 2075 -91 
Q 1284 -91 818 406 
Q 353 903 353 1747 
Q 353 2603 823 3093 
Q 1294 3584 2113 3584 
Q 2378 3584 2631 3529 
Q 2884 3475 3122 3366 
z
" transform="scale(0.015625)"/>
      <path id="DejaVuSans-57" d="M 213 4666 
L 850 4666 
L 1831 722 
L 2809 4666 
L 3519 4666 
L 4500 722 
L 5478 4666 
L 6119 4666 
L 4947 0 
L 4153 0 
L 3169 4050 
L 2175 0 
L 1381 0 
L 213 4666 
z
" transform="scale(0.015625)"/>
      <path id="DejaVuSans-68" d="M 3513 2113 
L 3513 0 
L 2938 0 
L 2938 2094 
Q 2938 2591 2744 2837 
Q 2550 3084 2163 3084 
Q 1697 3084 1428 2787 
Q 1159 2491 1159 1978 
L 1159 0 
L 581 0 
L 581 4863 
L 1159 4863 
L 1159 2956 
Q 1366 3272 1645 3428 
Q 1925 3584 2291 3584 
Q 2894 3584 3203 3211 
Q 3513 2838 3513 2113 
z
" transform="scale(0.015625)"/>
      <path id="DejaVuSans-44" d="M 1259 4147 
L 1259 519 
L 2022 519 
Q 2988 519 3436 956 
Q 3884 1394 3884 2338 
Q 3884 3275 3436 3711 
Q 2988 4147 2022 4147 
L 1259 4147 
z
M 628 4666 
L 1925 4666 
Q 3281 4666 3915 4102 
Q 4550 3538 4550 2338 
Q 4550 1131 3912 565 
Q 3275 0 1925 0 
L 628 0 
L 628 4666 
z
" transform="scale(0.015625)"/>
      <path id="DejaVuSans-6c" d="M 603 4863 
L 1178 4863 
L 1178 0 
L 603 0 
L 603 4863 
z
" transform="scale(0.015625)"/>
      <path id="DejaVuSans-79" d="M 2059 -325 
Q 1816 -950 1584 -1140 
Q 1353 -1331 966 -1331 
L 506 -1331 
L 506 -850 
L 844 -850 
Q 1081 -850 1212 -737 
Q 1344 -625 1503 -206 
L 1606 56 
L 191 3500 
L 800 3500 
L 1894 763 
L 2988 3500 
L 3597 3500 
L 2059 -325 
z
" transform="scale(0.015625)"/>
     </defs>
     <use xlink:href="#DejaVuSans-47"/>
     <use xlink:href="#DejaVuSans-65" transform="translate(77.490234 0)"/>
     <use xlink:href="#DejaVuSans-74" transform="translate(139.013672 0)"/>
     <use xlink:href="#DejaVuSans-20" transform="translate(178.222656 0)"/>
     <use xlink:href="#DejaVuSans-54" transform="translate(210.009766 0)"/>
     <use xlink:href="#DejaVuSans-72" transform="translate(256.34375 0)"/>
     <use xlink:href="#DejaVuSans-61" transform="translate(297.457031 0)"/>
     <use xlink:href="#DejaVuSans-63" transform="translate(358.736328 0)"/>
     <use xlink:href="#DejaVuSans-65" transform="translate(413.716797 0)"/>
     <use xlink:href="#DejaVuSans-20" transform="translate(475.240234 0)"/>
     <use xlink:href="#DejaVuSans-57" transform="translate(507.027344 0)"/>
     <use xlink:href="#DejaVuSans-69" transform="translate(603.654297 0)"/>
     <use xlink:href="#DejaVuSans-74" transform="translate(631.4375 0)"/>
     <use xlink:href="#DejaVuSans-68" transform="translate(670.646484 0)"/>
     <use xlink:href="#DejaVuSans-20" transform="translate(734.025391 0)"/>
     <use xlink:href="#DejaVuSans-44" transform="translate(765.8125 0)"/>
     <use xlink:href="#DejaVuSans-65" transform="translate(842.814453 0)"/>
     <use xlink:href="#DejaVuSans-6c" transform="translate(904.337891 0)"/>
     <use xlink:href="#DejaVuSans-61" transform="translate(932.121094 0)"/>
     <use xlink:href="#DejaVuSans-79" transform="translate(993.400391 0)"/>
    </g>
   </g>
  </g>
 </g>
 <defs>
  <clipPath id="pfa0d4ae894">
   <rect x="72" y="51.84" width="446.4" height="332.64"/>
  </clipPath>
 </defs>
</svg>
