<?xml version="1.0" encoding="utf-8" standalone="no"?>
<!DOCTYPE svg PUBLIC "-//W3C//DTD SVG 1.1//EN"
  "http://www.w3.org/Graphics/SVG/1.1/DTD/svg11.dtd">
<svg xmlns:xlink="http://www.w3.org/1999/xlink" width="576pt" height="432pt" viewBox="0 0 576 432" xmlns="http://www.w3.org/2000/svg" version="1.1">
 <metadata>
  <rdf:RDF xmlns:dc="http://purl.org/dc/elements/1.1/" xmlns:cc="http://creativecommons.org/ns#" xmlns:rdf="http://www.w3.org/1999/02/22-rdf-syntax-ns#">
   <cc:Work>
    <dc:type rdf:resource="http://purl.org/dc/dcmitype/StillImage"/>
    <dc:date>2025-06-10T03:16:54.260813</dc:date>
    <dc:format>image/svg+xml</dc:format>
    <dc:creator>
     <cc:Agent>
      <dc:title>Matplotlib v3.10.3, https://matplotlib.org/</dc:title>
     </cc:Agent>
    </dc:creator>
   </cc:Work>
  </rdf:RDF>
 </metadata>
 <defs>
  <style type="text/css">*{stroke-linejoin: round; stroke-linecap: butt}</style>
 </defs>
 <g id="figure_1">
  <g id="patch_1">
   <path d="M 0 432 
L 576 432 
L 576 0 
L 0 0 
z
" style="fill: #ffffff"/>
  </g>
  <g id="axes_1">
   <g id="patch_2">
    <path d="M 72 384.48 
L 518.4 384.48 
L 518.4 51.84 
L 72 51.84 
z
" style="fill: #ffffff"/>
   </g>
   <g id="FillBetweenPolyCollection_1">
    <path d="M 364.446052 379.915929 
L 225.953948 379.915929 
L 200.781361 376.759835 
L 186.648797 373.603742 
L 183.6 370.447648 
L 189.423754 367.291554 
L 202.446314 364.135461 
L 218.836439 360.979367 
L 233.040989 357.823274 
L 242.072176 354.66718 
L 246.810993 351.511086 
L 249.532834 348.354993 
L 252.070684 345.198899 
L 255.62328 342.042806 
L 260.460805 338.886712 
L 265.826631 335.730619 
L 270.727833 332.574525 
L 274.644178 329.418431 
L 277.554672 326.262338 
L 279.705238 323.106244 
L 281.374283 319.950151 
L 282.783248 316.794057 
L 284.206116 313.637963 
L 285.902727 310.48187 
L 287.836031 307.325776 
L 289.645566 304.169683 
L 290.947296 301.013589 
L 291.602659 297.857495 
L 291.762107 294.701402 
L 291.766155 291.545308 
L 291.947453 288.389215 
L 292.375974 285.233121 
L 292.869525 282.077027 
L 293.285553 278.920934 
L 293.636028 275.76484 
L 293.962713 272.608747 
L 294.26696 269.452653 
L 294.529735 266.29656 
L 294.724615 263.140466 
L 294.830026 259.984372 
L 294.841346 256.828279 
L 294.765884 253.672185 
L 294.643174 250.516092 
L 294.564048 247.359998 
L 294.598605 244.203904 
L 294.711788 241.047811 
L 294.811182 237.891717 
L 294.85586 234.735624 
L 294.869551 231.57953 
L 294.881686 228.423436 
L 294.900618 225.267343 
L 294.9246 222.111249 
L 294.947947 218.955156 
L 294.968386 215.799062 
L 295.001096 212.642968 
L 295.059107 209.486875 
L 295.12489 206.330781 
L 295.171165 203.174688 
L 295.192167 200.018594 
L 295.198504 196.862501 
L 295.1998 193.706407 
L 295.199981 190.550313 
L 295.199999 187.39422 
L 295.2 184.238126 
L 295.2 181.082033 
L 295.2 177.925939 
L 295.2 174.769845 
L 295.199999 171.613752 
L 295.19999 168.457658 
L 295.199885 165.301565 
L 295.19906 162.145471 
L 295.194636 158.989377 
L 295.178563 155.833284 
L 295.139988 152.67719 
L 295.082324 149.521097 
L 295.038378 146.365003 
L 295.044518 143.208909 
L 295.095232 140.052816 
L 295.150552 136.896722 
L 295.183653 133.740629 
L 295.196215 130.584535 
L 295.199386 127.428442 
L 295.19993 124.272348 
L 295.199994 121.116254 
L 295.2 117.960161 
L 295.2 114.804067 
L 295.2 111.647974 
L 295.2 108.49188 
L 295.2 105.335786 
L 295.2 102.179693 
L 295.2 99.023599 
L 295.2 95.867506 
L 295.199998 92.711412 
L 295.199973 89.555318 
L 295.199727 86.399225 
L 295.198062 83.243131 
L 295.190378 80.087038 
L 295.166543 76.930944 
L 295.118517 73.77485 
L 295.060999 70.618757 
L 295.033914 67.462663 
L 295.366086 67.462663 
L 295.366086 67.462663 
L 295.339001 70.618757 
L 295.281483 73.77485 
L 295.233457 76.930944 
L 295.209622 80.087038 
L 295.201938 83.243131 
L 295.200273 86.399225 
L 295.200027 89.555318 
L 295.200002 92.711412 
L 295.2 95.867506 
L 295.2 99.023599 
L 295.2 102.179693 
L 295.2 105.335786 
L 295.2 108.49188 
L 295.2 111.647974 
L 295.2 114.804067 
L 295.2 117.960161 
L 295.200006 121.116254 
L 295.20007 124.272348 
L 295.200614 127.428442 
L 295.203785 130.584535 
L 295.216347 133.740629 
L 295.249448 136.896722 
L 295.304768 140.052816 
L 295.355482 143.208909 
L 295.361622 146.365003 
L 295.317676 149.521097 
L 295.260012 152.67719 
L 295.221437 155.833284 
L 295.205364 158.989377 
L 295.20094 162.145471 
L 295.200115 165.301565 
L 295.20001 168.457658 
L 295.200001 171.613752 
L 295.2 174.769845 
L 295.2 177.925939 
L 295.2 181.082033 
L 295.2 184.238126 
L 295.200001 187.39422 
L 295.200019 190.550313 
L 295.2002 193.706407 
L 295.201496 196.862501 
L 295.207833 200.018594 
L 295.228835 203.174688 
L 295.27511 206.330781 
L 295.340893 209.486875 
L 295.398904 212.642968 
L 295.431614 215.799062 
L 295.452053 218.955156 
L 295.4754 222.111249 
L 295.499382 225.267343 
L 295.518314 228.423436 
L 295.530449 231.57953 
L 295.54414 234.735624 
L 295.588818 237.891717 
L 295.688212 241.047811 
L 295.801395 244.203904 
L 295.835952 247.359998 
L 295.756826 250.516092 
L 295.634116 253.672185 
L 295.558654 256.828279 
L 295.569974 259.984372 
L 295.675385 263.140466 
L 295.870265 266.29656 
L 296.13304 269.452653 
L 296.437287 272.608747 
L 296.763972 275.76484 
L 297.114447 278.920934 
L 297.530475 282.077027 
L 298.024026 285.233121 
L 298.452547 288.389215 
L 298.633845 291.545308 
L 298.637893 294.701402 
L 298.797341 297.857495 
L 299.452704 301.013589 
L 300.754434 304.169683 
L 302.563969 307.325776 
L 304.497273 310.48187 
L 306.193884 313.637963 
L 307.616752 316.794057 
L 309.025717 319.950151 
L 310.694762 323.106244 
L 312.845328 326.262338 
L 315.755822 329.418431 
L 319.672167 332.574525 
L 324.573369 335.730619 
L 329.939195 338.886712 
L 334.77672 342.042806 
L 338.329316 345.198899 
L 340.867166 348.354993 
L 343.589007 351.511086 
L 348.327824 354.66718 
L 357.359011 357.823274 
L 371.563561 360.979367 
L 387.953686 364.135461 
L 400.976246 367.291554 
L 406.8 370.447648 
L 403.751203 373.603742 
L 389.618639 376.759835 
L 364.446052 379.915929 
z
" clip-path="url(#p082e7ede7b)" style="fill: #1f77b4; fill-opacity: 0.3"/>
   </g>
   <g id="matplotlib.axis_1">
    <g id="xtick_1">
     <g id="line2d_1">
      <defs>
       <path id="m80865b1a63" d="M 0 0 
L 0 3.5 
" style="stroke: #000000; stroke-width: 0.8"/>
      </defs>
      <g>
       <use xlink:href="#m80865b1a63" x="295.2" y="384.48" style="stroke: #000000; stroke-width: 0.8"/>
      </g>
     </g>
     <g id="text_1">
      <!-- 1 -->
      <g transform="translate(292.01875 399.078438) scale(0.1 -0.1)">
       <defs>
        <path id="DejaVuSans-31" d="M 794 531 
L 1825 531 
L 1825 4091 
L 703 3866 
L 703 4441 
L 1819 4666 
L 2450 4666 
L 2450 531 
L 3481 531 
L 3481 0 
L 794 0 
L 794 531 
z
" transform="scale(0.015625)"/>
       </defs>
       <use xlink:href="#DejaVuSans-31"/>
      </g>
     </g>
    </g>
   </g>
   <g id="matplotlib.axis_2">
    <g id="ytick_1">
     <g id="line2d_2">
      <defs>
       <path id="m0651036900" d="M 0 0 
L -3.5 0 
" style="stroke: #000000; stroke-width: 0.8"/>
      </defs>
      <g>
       <use xlink:href="#m0651036900" x="72" y="384.48" style="stroke: #000000; stroke-width: 0.8"/>
      </g>
     </g>
     <g id="text_2">
      <!-- 0.0 -->
      <g transform="translate(49.096875 388.279219) scale(0.1 -0.1)">
       <defs>
        <path id="DejaVuSans-30" d="M 2034 4250 
Q 1547 4250 1301 3770 
Q 1056 3291 1056 2328 
Q 1056 1369 1301 889 
Q 1547 409 2034 409 
Q 2525 409 2770 889 
Q 3016 1369 3016 2328 
Q 3016 3291 2770 3770 
Q 2525 4250 2034 4250 
z
M 2034 4750 
Q 2819 4750 3233 4129 
Q 3647 3509 3647 2328 
Q 3647 1150 3233 529 
Q 2819 -91 2034 -91 
Q 1250 -91 836 529 
Q 422 1150 422 2328 
Q 422 3509 836 4129 
Q 1250 4750 2034 4750 
z
" transform="scale(0.015625)"/>
        <path id="DejaVuSans-2e" d="M 684 794 
L 1344 794 
L 1344 0 
L 684 0 
L 684 794 
z
" transform="scale(0.015625)"/>
       </defs>
       <use xlink:href="#DejaVuSans-30"/>
       <use xlink:href="#DejaVuSans-2e" transform="translate(63.623047 0)"/>
       <use xlink:href="#DejaVuSans-30" transform="translate(95.410156 0)"/>
      </g>
     </g>
    </g>
    <g id="ytick_2">
     <g id="line2d_3">
      <g>
       <use xlink:href="#m0651036900" x="72" y="317.952229" style="stroke: #000000; stroke-width: 0.8"/>
      </g>
     </g>
     <g id="text_3">
      <!-- 0.5 -->
      <g transform="translate(49.096875 321.751448) scale(0.1 -0.1)">
       <defs>
        <path id="DejaVuSans-35" d="M 691 4666 
L 3169 4666 
L 3169 4134 
L 1269 4134 
L 1269 2991 
Q 1406 3038 1543 3061 
Q 1681 3084 1819 3084 
Q 2600 3084 3056 2656 
Q 3513 2228 3513 1497 
Q 3513 744 3044 326 
Q 2575 -91 1722 -91 
Q 1428 -91 1123 -41 
Q 819 9 494 109 
L 494 744 
Q 775 591 1075 516 
Q 1375 441 1709 441 
Q 2250 441 2565 725 
Q 2881 1009 2881 1497 
Q 2881 1984 2565 2268 
Q 2250 2553 1709 2553 
Q 1456 2553 1204 2497 
Q 953 2441 691 2322 
L 691 4666 
z
" transform="scale(0.015625)"/>
       </defs>
       <use xlink:href="#DejaVuSans-30"/>
       <use xlink:href="#DejaVuSans-2e" transform="translate(63.623047 0)"/>
       <use xlink:href="#DejaVuSans-35" transform="translate(95.410156 0)"/>
      </g>
     </g>
    </g>
    <g id="ytick_3">
     <g id="line2d_4">
      <g>
       <use xlink:href="#m0651036900" x="72" y="251.424458" style="stroke: #000000; stroke-width: 0.8"/>
      </g>
     </g>
     <g id="text_4">
      <!-- 1.0 -->
      <g transform="translate(49.096875 255.223676) scale(0.1 -0.1)">
       <use xlink:href="#DejaVuSans-31"/>
       <use xlink:href="#DejaVuSans-2e" transform="translate(63.623047 0)"/>
       <use xlink:href="#DejaVuSans-30" transform="translate(95.410156 0)"/>
      </g>
     </g>
    </g>
    <g id="ytick_4">
     <g id="line2d_5">
      <g>
       <use xlink:href="#m0651036900" x="72" y="184.896687" style="stroke: #000000; stroke-width: 0.8"/>
      </g>
     </g>
     <g id="text_5">
      <!-- 1.5 -->
      <g transform="translate(49.096875 188.695905) scale(0.1 -0.1)">
       <use xlink:href="#DejaVuSans-31"/>
       <use xlink:href="#DejaVuSans-2e" transform="translate(63.623047 0)"/>
       <use xlink:href="#DejaVuSans-35" transform="translate(95.410156 0)"/>
      </g>
     </g>
    </g>
    <g id="ytick_5">
     <g id="line2d_6">
      <g>
       <use xlink:href="#m0651036900" x="72" y="118.368915" style="stroke: #000000; stroke-width: 0.8"/>
      </g>
     </g>
     <g id="text_6">
      <!-- 2.0 -->
      <g transform="translate(49.096875 122.168134) scale(0.1 -0.1)">
       <defs>
        <path id="DejaVuSans-32" d="M 1228 531 
L 3431 531 
L 3431 0 
L 469 0 
L 469 531 
Q 828 903 1448 1529 
Q 2069 2156 2228 2338 
Q 2531 2678 2651 2914 
Q 2772 3150 2772 3378 
Q 2772 3750 2511 3984 
Q 2250 4219 1831 4219 
Q 1534 4219 1204 4116 
Q 875 4013 500 3803 
L 500 4441 
Q 881 4594 1212 4672 
Q 1544 4750 1819 4750 
Q 2544 4750 2975 4387 
Q 3406 4025 3406 3419 
Q 3406 3131 3298 2873 
Q 3191 2616 2906 2266 
Q 2828 2175 2409 1742 
Q 1991 1309 1228 531 
z
" transform="scale(0.015625)"/>
       </defs>
       <use xlink:href="#DejaVuSans-32"/>
       <use xlink:href="#DejaVuSans-2e" transform="translate(63.623047 0)"/>
       <use xlink:href="#DejaVuSans-30" transform="translate(95.410156 0)"/>
      </g>
     </g>
    </g>
    <g id="ytick_6">
     <g id="line2d_7">
      <g>
       <use xlink:href="#m0651036900" x="72" y="51.841144" style="stroke: #000000; stroke-width: 0.8"/>
      </g>
     </g>
     <g id="text_7">
      <!-- 2.5 -->
      <g transform="translate(49.096875 55.640363) scale(0.1 -0.1)">
       <use xlink:href="#DejaVuSans-32"/>
       <use xlink:href="#DejaVuSans-2e" transform="translate(63.623047 0)"/>
       <use xlink:href="#DejaVuSans-35" transform="translate(95.410156 0)"/>
      </g>
     </g>
    </g>
    <g id="text_8">
     <!-- Time (ms) -->
     <g transform="translate(43.017187 243.359219) rotate(-90) scale(0.1 -0.1)">
      <defs>
       <path id="DejaVuSans-54" d="M -19 4666 
L 3928 4666 
L 3928 4134 
L 2272 4134 
L 2272 0 
L 1638 0 
L 1638 4134 
L -19 4134 
L -19 4666 
z
" transform="scale(0.015625)"/>
       <path id="DejaVuSans-69" d="M 603 3500 
L 1178 3500 
L 1178 0 
L 603 0 
L 603 3500 
z
M 603 4863 
L 1178 4863 
L 1178 4134 
L 603 4134 
L 603 4863 
z
" transform="scale(0.015625)"/>
       <path id="DejaVuSans-6d" d="M 3328 2828 
Q 3544 3216 3844 3400 
Q 4144 3584 4550 3584 
Q 5097 3584 5394 3201 
Q 5691 2819 5691 2113 
L 5691 0 
L 5113 0 
L 5113 2094 
Q 5113 2597 4934 2840 
Q 4756 3084 4391 3084 
Q 3944 3084 3684 2787 
Q 3425 2491 3425 1978 
L 3425 0 
L 2847 0 
L 2847 2094 
Q 2847 2600 2669 2842 
Q 2491 3084 2119 3084 
Q 1678 3084 1418 2786 
Q 1159 2488 1159 1978 
L 1159 0 
L 581 0 
L 581 3500 
L 1159 3500 
L 1159 2956 
Q 1356 3278 1631 3431 
Q 1906 3584 2284 3584 
Q 2666 3584 2933 3390 
Q 3200 3197 3328 2828 
z
" transform="scale(0.015625)"/>
       <path id="DejaVuSans-65" d="M 3597 1894 
L 3597 1613 
L 953 1613 
Q 991 1019 1311 708 
Q 1631 397 2203 397 
Q 2534 397 2845 478 
Q 3156 559 3463 722 
L 3463 178 
Q 3153 47 2828 -22 
Q 2503 -91 2169 -91 
Q 1331 -91 842 396 
Q 353 884 353 1716 
Q 353 2575 817 3079 
Q 1281 3584 2069 3584 
Q 2775 3584 3186 3129 
Q 3597 2675 3597 1894 
z
M 3022 2063 
Q 3016 2534 2758 2815 
Q 2500 3097 2075 3097 
Q 1594 3097 1305 2825 
Q 1016 2553 972 2059 
L 3022 2063 
z
" transform="scale(0.015625)"/>
       <path id="DejaVuSans-20" transform="scale(0.015625)"/>
       <path id="DejaVuSans-28" d="M 1984 4856 
Q 1566 4138 1362 3434 
Q 1159 2731 1159 2009 
Q 1159 1288 1364 580 
Q 1569 -128 1984 -844 
L 1484 -844 
Q 1016 -109 783 600 
Q 550 1309 550 2009 
Q 550 2706 781 3412 
Q 1013 4119 1484 4856 
L 1984 4856 
z
" transform="scale(0.015625)"/>
       <path id="DejaVuSans-73" d="M 2834 3397 
L 2834 2853 
Q 2591 2978 2328 3040 
Q 2066 3103 1784 3103 
Q 1356 3103 1142 2972 
Q 928 2841 928 2578 
Q 928 2378 1081 2264 
Q 1234 2150 1697 2047 
L 1894 2003 
Q 2506 1872 2764 1633 
Q 3022 1394 3022 966 
Q 3022 478 2636 193 
Q 2250 -91 1575 -91 
Q 1294 -91 989 -36 
Q 684 19 347 128 
L 347 722 
Q 666 556 975 473 
Q 1284 391 1588 391 
Q 1994 391 2212 530 
Q 2431 669 2431 922 
Q 2431 1156 2273 1281 
Q 2116 1406 1581 1522 
L 1381 1569 
Q 847 1681 609 1914 
Q 372 2147 372 2553 
Q 372 3047 722 3315 
Q 1072 3584 1716 3584 
Q 2034 3584 2315 3537 
Q 2597 3491 2834 3397 
z
" transform="scale(0.015625)"/>
       <path id="DejaVuSans-29" d="M 513 4856 
L 1013 4856 
Q 1481 4119 1714 3412 
Q 1947 2706 1947 2009 
Q 1947 1309 1714 600 
Q 1481 -109 1013 -844 
L 513 -844 
Q 928 -128 1133 580 
Q 1338 1288 1338 2009 
Q 1338 2731 1133 3434 
Q 928 4138 513 4856 
z
" transform="scale(0.015625)"/>
      </defs>
      <use xlink:href="#DejaVuSans-54"/>
      <use xlink:href="#DejaVuSans-69" transform="translate(57.958984 0)"/>
      <use xlink:href="#DejaVuSans-6d" transform="translate(85.742188 0)"/>
      <use xlink:href="#DejaVuSans-65" transform="translate(183.154297 0)"/>
      <use xlink:href="#DejaVuSans-20" transform="translate(244.677734 0)"/>
      <use xlink:href="#DejaVuSans-28" transform="translate(276.464844 0)"/>
      <use xlink:href="#DejaVuSans-6d" transform="translate(315.478516 0)"/>
      <use xlink:href="#DejaVuSans-73" transform="translate(412.890625 0)"/>
      <use xlink:href="#DejaVuSans-29" transform="translate(464.990234 0)"/>
     </g>
    </g>
   </g>
   <g id="LineCollection_1">
    <path d="M 239.4 356.659887 
L 351 356.659887 
" clip-path="url(#p082e7ede7b)" style="fill: none; stroke: #1f77b4; stroke-width: 1.5"/>
   </g>
   <g id="LineCollection_2">
    <path d="M 239.4 67.462663 
L 351 67.462663 
" clip-path="url(#p082e7ede7b)" style="fill: none; stroke: #1f77b4; stroke-width: 1.5"/>
   </g>
   <g id="LineCollection_3">
    <path d="M 239.4 379.915929 
L 351 379.915929 
" clip-path="url(#p082e7ede7b)" style="fill: none; stroke: #1f77b4; stroke-width: 1.5"/>
   </g>
   <g id="LineCollection_4">
    <path d="M 295.2 379.915929 
L 295.2 67.462663 
" clip-path="url(#p082e7ede7b)" style="fill: none; stroke: #1f77b4; stroke-width: 1.5"/>
   </g>
   <g id="patch_3">
    <path d="M 250.56 372.507762 
L 339.84 372.507762 
L 339.84 346.045177 
L 250.56 346.045177 
L 250.56 372.507762 
z
" clip-path="url(#p082e7ede7b)" style="fill: #1f77b4; stroke: #000000; stroke-linejoin: miter"/>
   </g>
   <g id="line2d_8">
    <path d="M 295.2 372.507762 
L 295.2 379.915929 
" clip-path="url(#p082e7ede7b)" style="fill: none; stroke: #000000; stroke-linecap: square"/>
   </g>
   <g id="line2d_9">
    <path d="M 295.2 346.045177 
L 295.2 306.479781 
" clip-path="url(#p082e7ede7b)" style="fill: none; stroke: #000000; stroke-linecap: square"/>
   </g>
   <g id="line2d_10">
    <path d="M 272.88 379.915929 
L 317.52 379.915929 
" clip-path="url(#p082e7ede7b)" style="fill: none; stroke: #000000; stroke-linecap: square"/>
   </g>
   <g id="line2d_11">
    <path d="M 272.88 306.479781 
L 317.52 306.479781 
" clip-path="url(#p082e7ede7b)" style="fill: none; stroke: #000000; stroke-linecap: square"/>
   </g>
   <g id="line2d_12">
    <defs>
     <path id="m81bb7ca81d" d="M 0 3 
C 0.795609 3 1.55874 2.683901 2.12132 2.12132 
C 2.683901 1.55874 3 0.795609 3 0 
C 3 -0.795609 2.683901 -1.55874 2.12132 -2.12132 
C 1.55874 -2.683901 0.795609 -3 0 -3 
C -0.795609 -3 -1.55874 -2.683901 -2.12132 -2.12132 
C -2.683901 -1.55874 -3 -0.795609 -3 0 
C -3 0.795609 -2.683901 1.55874 -2.12132 2.12132 
C -1.55874 2.683901 -0.795609 3 0 3 
z
" style="stroke: #000000"/>
    </defs>
    <g clip-path="url(#p082e7ede7b)">
     <use xlink:href="#m81bb7ca81d" x="295.2" y="288.276984" style="fill-opacity: 0; stroke: #000000"/>
     <use xlink:href="#m81bb7ca81d" x="295.2" y="287.106096" style="fill-opacity: 0; stroke: #000000"/>
     <use xlink:href="#m81bb7ca81d" x="295.2" y="243.59507" style="fill-opacity: 0; stroke: #000000"/>
     <use xlink:href="#m81bb7ca81d" x="295.2" y="285.429596" style="fill-opacity: 0; stroke: #000000"/>
     <use xlink:href="#m81bb7ca81d" x="295.2" y="273.759959" style="fill-opacity: 0; stroke: #000000"/>
     <use xlink:href="#m81bb7ca81d" x="295.2" y="247.613614" style="fill-opacity: 0; stroke: #000000"/>
     <use xlink:href="#m81bb7ca81d" x="295.2" y="278.736503" style="fill-opacity: 0; stroke: #000000"/>
     <use xlink:href="#m81bb7ca81d" x="295.2" y="289.967056" style="fill-opacity: 0; stroke: #000000"/>
     <use xlink:href="#m81bb7ca81d" x="295.2" y="297.112271" style="fill-opacity: 0; stroke: #000000"/>
     <use xlink:href="#m81bb7ca81d" x="295.2" y="222.21238" style="fill-opacity: 0; stroke: #000000"/>
     <use xlink:href="#m81bb7ca81d" x="295.2" y="300.891182" style="fill-opacity: 0; stroke: #000000"/>
     <use xlink:href="#m81bb7ca81d" x="295.2" y="280.599413" style="fill-opacity: 0; stroke: #000000"/>
     <use xlink:href="#m81bb7ca81d" x="295.2" y="289.926474" style="fill-opacity: 0; stroke: #000000"/>
     <use xlink:href="#m81bb7ca81d" x="295.2" y="300.132233" style="fill-opacity: 0; stroke: #000000"/>
     <use xlink:href="#m81bb7ca81d" x="295.2" y="268.516906" style="fill-opacity: 0; stroke: #000000"/>
     <use xlink:href="#m81bb7ca81d" x="295.2" y="303.139421" style="fill-opacity: 0; stroke: #000000"/>
     <use xlink:href="#m81bb7ca81d" x="295.2" y="265.749883" style="fill-opacity: 0; stroke: #000000"/>
     <use xlink:href="#m81bb7ca81d" x="295.2" y="289.767339" style="fill-opacity: 0; stroke: #000000"/>
     <use xlink:href="#m81bb7ca81d" x="295.2" y="298.269988" style="fill-opacity: 0; stroke: #000000"/>
     <use xlink:href="#m81bb7ca81d" x="295.2" y="305.694753" style="fill-opacity: 0; stroke: #000000"/>
     <use xlink:href="#m81bb7ca81d" x="295.2" y="67.462663" style="fill-opacity: 0; stroke: #000000"/>
     <use xlink:href="#m81bb7ca81d" x="295.2" y="292.787833" style="fill-opacity: 0; stroke: #000000"/>
     <use xlink:href="#m81bb7ca81d" x="295.2" y="280.213552" style="fill-opacity: 0; stroke: #000000"/>
     <use xlink:href="#m81bb7ca81d" x="295.2" y="293.466417" style="fill-opacity: 0; stroke: #000000"/>
     <use xlink:href="#m81bb7ca81d" x="295.2" y="290.499278" style="fill-opacity: 0; stroke: #000000"/>
     <use xlink:href="#m81bb7ca81d" x="295.2" y="213.097676" style="fill-opacity: 0; stroke: #000000"/>
     <use xlink:href="#m81bb7ca81d" x="295.2" y="250.075408" style="fill-opacity: 0; stroke: #000000"/>
     <use xlink:href="#m81bb7ca81d" x="295.2" y="304.018253" style="fill-opacity: 0; stroke: #000000"/>
     <use xlink:href="#m81bb7ca81d" x="295.2" y="245.83067" style="fill-opacity: 0; stroke: #000000"/>
     <use xlink:href="#m81bb7ca81d" x="295.2" y="286.094873" style="fill-opacity: 0; stroke: #000000"/>
     <use xlink:href="#m81bb7ca81d" x="295.2" y="235.637285" style="fill-opacity: 0; stroke: #000000"/>
     <use xlink:href="#m81bb7ca81d" x="295.2" y="258.11143" style="fill-opacity: 0; stroke: #000000"/>
     <use xlink:href="#m81bb7ca81d" x="295.2" y="282.834347" style="fill-opacity: 0; stroke: #000000"/>
     <use xlink:href="#m81bb7ca81d" x="295.2" y="298.256549" style="fill-opacity: 0; stroke: #000000"/>
     <use xlink:href="#m81bb7ca81d" x="295.2" y="289.301645" style="fill-opacity: 0; stroke: #000000"/>
     <use xlink:href="#m81bb7ca81d" x="295.2" y="278.523747" style="fill-opacity: 0; stroke: #000000"/>
     <use xlink:href="#m81bb7ca81d" x="295.2" y="276.035475" style="fill-opacity: 0; stroke: #000000"/>
     <use xlink:href="#m81bb7ca81d" x="295.2" y="303.499204" style="fill-opacity: 0; stroke: #000000"/>
     <use xlink:href="#m81bb7ca81d" x="295.2" y="279.867475" style="fill-opacity: 0; stroke: #000000"/>
     <use xlink:href="#m81bb7ca81d" x="295.2" y="284.325102" style="fill-opacity: 0; stroke: #000000"/>
     <use xlink:href="#m81bb7ca81d" x="295.2" y="289.541145" style="fill-opacity: 0; stroke: #000000"/>
     <use xlink:href="#m81bb7ca81d" x="295.2" y="273.853231" style="fill-opacity: 0; stroke: #000000"/>
     <use xlink:href="#m81bb7ca81d" x="295.2" y="145.130244" style="fill-opacity: 0; stroke: #000000"/>
     <use xlink:href="#m81bb7ca81d" x="295.2" y="303.033376" style="fill-opacity: 0; stroke: #000000"/>
     <use xlink:href="#m81bb7ca81d" x="295.2" y="298.52266" style="fill-opacity: 0; stroke: #000000"/>
     <use xlink:href="#m81bb7ca81d" x="295.2" y="290.206423" style="fill-opacity: 0; stroke: #000000"/>
     <use xlink:href="#m81bb7ca81d" x="295.2" y="296.580049" style="fill-opacity: 0; stroke: #000000"/>
     <use xlink:href="#m81bb7ca81d" x="295.2" y="288.356818" style="fill-opacity: 0; stroke: #000000"/>
     <use xlink:href="#m81bb7ca81d" x="295.2" y="303.206481" style="fill-opacity: 0; stroke: #000000"/>
     <use xlink:href="#m81bb7ca81d" x="295.2" y="298.549404" style="fill-opacity: 0; stroke: #000000"/>
     <use xlink:href="#m81bb7ca81d" x="295.2" y="305.348809" style="fill-opacity: 0; stroke: #000000"/>
     <use xlink:href="#m81bb7ca81d" x="295.2" y="294.330745" style="fill-opacity: 0; stroke: #000000"/>
     <use xlink:href="#m81bb7ca81d" x="295.2" y="229.409886" style="fill-opacity: 0; stroke: #000000"/>
     <use xlink:href="#m81bb7ca81d" x="295.2" y="296.446861" style="fill-opacity: 0; stroke: #000000"/>
     <use xlink:href="#m81bb7ca81d" x="295.2" y="291.28404" style="fill-opacity: 0; stroke: #000000"/>
     <use xlink:href="#m81bb7ca81d" x="295.2" y="291.057845" style="fill-opacity: 0; stroke: #000000"/>
     <use xlink:href="#m81bb7ca81d" x="295.2" y="271.138765" style="fill-opacity: 0; stroke: #000000"/>
    </g>
   </g>
   <g id="line2d_13">
    <path d="M 250.56 364.547481 
L 339.84 364.547481 
" clip-path="url(#p082e7ede7b)" style="fill: none; stroke: #ff7f0e"/>
   </g>
   <g id="patch_4">
    <path d="M 72 384.48 
L 72 51.84 
" style="fill: none; stroke: #000000; stroke-width: 0.8; stroke-linejoin: miter; stroke-linecap: square"/>
   </g>
   <g id="patch_5">
    <path d="M 518.4 384.48 
L 518.4 51.84 
" style="fill: none; stroke: #000000; stroke-width: 0.8; stroke-linejoin: miter; stroke-linecap: square"/>
   </g>
   <g id="patch_6">
    <path d="M 72 384.48 
L 518.4 384.48 
" style="fill: none; stroke: #000000; stroke-width: 0.8; stroke-linejoin: miter; stroke-linecap: square"/>
   </g>
   <g id="patch_7">
    <path d="M 72 51.84 
L 518.4 51.84 
" style="fill: none; stroke: #000000; stroke-width: 0.8; stroke-linejoin: miter; stroke-linecap: square"/>
   </g>
   <g id="text_9">
    <!-- getExpectedBehaviours -->
    <g transform="translate(223.779375 45.84) scale(0.12 -0.12)">
     <defs>
      <path id="DejaVuSans-67" d="M 2906 1791 
Q 2906 2416 2648 2759 
Q 2391 3103 1925 3103 
Q 1463 3103 1205 2759 
Q 947 2416 947 1791 
Q 947 1169 1205 825 
Q 1463 481 1925 481 
Q 2391 481 2648 825 
Q 2906 1169 2906 1791 
z
M 3481 434 
Q 3481 -459 3084 -895 
Q 2688 -1331 1869 -1331 
Q 1566 -1331 1297 -1286 
Q 1028 -1241 775 -1147 
L 775 -588 
Q 1028 -725 1275 -790 
Q 1522 -856 1778 -856 
Q 2344 -856 2625 -561 
Q 2906 -266 2906 331 
L 2906 616 
Q 2728 306 2450 153 
Q 2172 0 1784 0 
Q 1141 0 747 490 
Q 353 981 353 1791 
Q 353 2603 747 3093 
Q 1141 3584 1784 3584 
Q 2172 3584 2450 3431 
Q 2728 3278 2906 2969 
L 2906 3500 
L 3481 3500 
L 3481 434 
z
" transform="scale(0.015625)"/>
      <path id="DejaVuSans-74" d="M 1172 4494 
L 1172 3500 
L 2356 3500 
L 2356 3053 
L 1172 3053 
L 1172 1153 
Q 1172 725 1289 603 
Q 1406 481 1766 481 
L 2356 481 
L 2356 0 
L 1766 0 
Q 1100 0 847 248 
Q 594 497 594 1153 
L 594 3053 
L 172 3053 
L 172 3500 
L 594 3500 
L 594 4494 
L 1172 4494 
z
" transform="scale(0.015625)"/>
      <path id="DejaVuSans-45" d="M 628 4666 
L 3578 4666 
L 3578 4134 
L 1259 4134 
L 1259 2753 
L 3481 2753 
L 3481 2222 
L 1259 2222 
L 1259 531 
L 3634 531 
L 3634 0 
L 628 0 
L 628 4666 
z
" transform="scale(0.015625)"/>
      <path id="DejaVuSans-78" d="M 3513 3500 
L 2247 1797 
L 3578 0 
L 2900 0 
L 1881 1375 
L 863 0 
L 184 0 
L 1544 1831 
L 300 3500 
L 978 3500 
L 1906 2253 
L 2834 3500 
L 3513 3500 
z
" transform="scale(0.015625)"/>
      <path id="DejaVuSans-70" d="M 1159 525 
L 1159 -1331 
L 581 -1331 
L 581 3500 
L 1159 3500 
L 1159 2969 
Q 1341 3281 1617 3432 
Q 1894 3584 2278 3584 
Q 2916 3584 3314 3078 
Q 3713 2572 3713 1747 
Q 3713 922 3314 415 
Q 2916 -91 2278 -91 
Q 1894 -91 1617 61 
Q 1341 213 1159 525 
z
M 3116 1747 
Q 3116 2381 2855 2742 
Q 2594 3103 2138 3103 
Q 1681 3103 1420 2742 
Q 1159 2381 1159 1747 
Q 1159 1113 1420 752 
Q 1681 391 2138 391 
Q 2594 391 2855 752 
Q 3116 1113 3116 1747 
z
" transform="scale(0.015625)"/>
      <path id="DejaVuSans-63" d="M 3122 3366 
L 3122 2828 
Q 2878 2963 2633 3030 
Q 2388 3097 2138 3097 
Q 1578 3097 1268 2742 
Q 959 2388 959 1747 
Q 959 1106 1268 751 
Q 1578 397 2138 397 
Q 2388 397 2633 464 
Q 2878 531 3122 666 
L 3122 134 
Q 2881 22 2623 -34 
Q 2366 -91 2075 -91 
Q 1284 -91 818 406 
Q 353 903 353 1747 
Q 353 2603 823 3093 
Q 1294 3584 2113 3584 
Q 2378 3584 2631 3529 
Q 2884 3475 3122 3366 
z
" transform="scale(0.015625)"/>
      <path id="DejaVuSans-64" d="M 2906 2969 
L 2906 4863 
L 3481 4863 
L 3481 0 
L 2906 0 
L 2906 525 
Q 2725 213 2448 61 
Q 2172 -91 1784 -91 
Q 1150 -91 751 415 
Q 353 922 353 1747 
Q 353 2572 751 3078 
Q 1150 3584 1784 3584 
Q 2172 3584 2448 3432 
Q 2725 3281 2906 2969 
z
M 947 1747 
Q 947 1113 1208 752 
Q 1469 391 1925 391 
Q 2381 391 2643 752 
Q 2906 1113 2906 1747 
Q 2906 2381 2643 2742 
Q 2381 3103 1925 3103 
Q 1469 3103 1208 2742 
Q 947 2381 947 1747 
z
" transform="scale(0.015625)"/>
      <path id="DejaVuSans-42" d="M 1259 2228 
L 1259 519 
L 2272 519 
Q 2781 519 3026 730 
Q 3272 941 3272 1375 
Q 3272 1813 3026 2020 
Q 2781 2228 2272 2228 
L 1259 2228 
z
M 1259 4147 
L 1259 2741 
L 2194 2741 
Q 2656 2741 2882 2914 
Q 3109 3088 3109 3444 
Q 3109 3797 2882 3972 
Q 2656 4147 2194 4147 
L 1259 4147 
z
M 628 4666 
L 2241 4666 
Q 2963 4666 3353 4366 
Q 3744 4066 3744 3513 
Q 3744 3084 3544 2831 
Q 3344 2578 2956 2516 
Q 3422 2416 3680 2098 
Q 3938 1781 3938 1306 
Q 3938 681 3513 340 
Q 3088 0 2303 0 
L 628 0 
L 628 4666 
z
" transform="scale(0.015625)"/>
      <path id="DejaVuSans-68" d="M 3513 2113 
L 3513 0 
L 2938 0 
L 2938 2094 
Q 2938 2591 2744 2837 
Q 2550 3084 2163 3084 
Q 1697 3084 1428 2787 
Q 1159 2491 1159 1978 
L 1159 0 
L 581 0 
L 581 4863 
L 1159 4863 
L 1159 2956 
Q 1366 3272 1645 3428 
Q 1925 3584 2291 3584 
Q 2894 3584 3203 3211 
Q 3513 2838 3513 2113 
z
" transform="scale(0.015625)"/>
      <path id="DejaVuSans-61" d="M 2194 1759 
Q 1497 1759 1228 1600 
Q 959 1441 959 1056 
Q 959 750 1161 570 
Q 1363 391 1709 391 
Q 2188 391 2477 730 
Q 2766 1069 2766 1631 
L 2766 1759 
L 2194 1759 
z
M 3341 1997 
L 3341 0 
L 2766 0 
L 2766 531 
Q 2569 213 2275 61 
Q 1981 -91 1556 -91 
Q 1019 -91 701 211 
Q 384 513 384 1019 
Q 384 1609 779 1909 
Q 1175 2209 1959 2209 
L 2766 2209 
L 2766 2266 
Q 2766 2663 2505 2880 
Q 2244 3097 1772 3097 
Q 1472 3097 1187 3025 
Q 903 2953 641 2809 
L 641 3341 
Q 956 3463 1253 3523 
Q 1550 3584 1831 3584 
Q 2591 3584 2966 3190 
Q 3341 2797 3341 1997 
z
" transform="scale(0.015625)"/>
      <path id="DejaVuSans-76" d="M 191 3500 
L 800 3500 
L 1894 563 
L 2988 3500 
L 3597 3500 
L 2284 0 
L 1503 0 
L 191 3500 
z
" transform="scale(0.015625)"/>
      <path id="DejaVuSans-6f" d="M 1959 3097 
Q 1497 3097 1228 2736 
Q 959 2375 959 1747 
Q 959 1119 1226 758 
Q 1494 397 1959 397 
Q 2419 397 2687 759 
Q 2956 1122 2956 1747 
Q 2956 2369 2687 2733 
Q 2419 3097 1959 3097 
z
M 1959 3584 
Q 2709 3584 3137 3096 
Q 3566 2609 3566 1747 
Q 3566 888 3137 398 
Q 2709 -91 1959 -91 
Q 1206 -91 779 398 
Q 353 888 353 1747 
Q 353 2609 779 3096 
Q 1206 3584 1959 3584 
z
" transform="scale(0.015625)"/>
      <path id="DejaVuSans-75" d="M 544 1381 
L 544 3500 
L 1119 3500 
L 1119 1403 
Q 1119 906 1312 657 
Q 1506 409 1894 409 
Q 2359 409 2629 706 
Q 2900 1003 2900 1516 
L 2900 3500 
L 3475 3500 
L 3475 0 
L 2900 0 
L 2900 538 
Q 2691 219 2414 64 
Q 2138 -91 1772 -91 
Q 1169 -91 856 284 
Q 544 659 544 1381 
z
M 1991 3584 
L 1991 3584 
z
" transform="scale(0.015625)"/>
      <path id="DejaVuSans-72" d="M 2631 2963 
Q 2534 3019 2420 3045 
Q 2306 3072 2169 3072 
Q 1681 3072 1420 2755 
Q 1159 2438 1159 1844 
L 1159 0 
L 581 0 
L 581 3500 
L 1159 3500 
L 1159 2956 
Q 1341 3275 1631 3429 
Q 1922 3584 2338 3584 
Q 2397 3584 2469 3576 
Q 2541 3569 2628 3553 
L 2631 2963 
z
" transform="scale(0.015625)"/>
     </defs>
     <use xlink:href="#DejaVuSans-67"/>
     <use xlink:href="#DejaVuSans-65" transform="translate(63.476562 0)"/>
     <use xlink:href="#DejaVuSans-74" transform="translate(125 0)"/>
     <use xlink:href="#DejaVuSans-45" transform="translate(164.208984 0)"/>
     <use xlink:href="#DejaVuSans-78" transform="translate(227.392578 0)"/>
     <use xlink:href="#DejaVuSans-70" transform="translate(286.572266 0)"/>
     <use xlink:href="#DejaVuSans-65" transform="translate(350.048828 0)"/>
     <use xlink:href="#DejaVuSans-63" transform="translate(411.572266 0)"/>
     <use xlink:href="#DejaVuSans-74" transform="translate(466.552734 0)"/>
     <use xlink:href="#DejaVuSans-65" transform="translate(505.761719 0)"/>
     <use xlink:href="#DejaVuSans-64" transform="translate(567.285156 0)"/>
     <use xlink:href="#DejaVuSans-42" transform="translate(630.761719 0)"/>
     <use xlink:href="#DejaVuSans-65" transform="translate(699.365234 0)"/>
     <use xlink:href="#DejaVuSans-68" transform="translate(760.888672 0)"/>
     <use xlink:href="#DejaVuSans-61" transform="translate(824.267578 0)"/>
     <use xlink:href="#DejaVuSans-76" transform="translate(885.546875 0)"/>
     <use xlink:href="#DejaVuSans-69" transform="translate(944.726562 0)"/>
     <use xlink:href="#DejaVuSans-6f" transform="translate(972.509766 0)"/>
     <use xlink:href="#DejaVuSans-75" transform="translate(1033.691406 0)"/>
     <use xlink:href="#DejaVuSans-72" transform="translate(1097.070312 0)"/>
     <use xlink:href="#DejaVuSans-73" transform="translate(1138.183594 0)"/>
    </g>
   </g>
  </g>
 </g>
 <defs>
  <clipPath id="p082e7ede7b">
   <rect x="72" y="51.84" width="446.4" height="332.64"/>
  </clipPath>
 </defs>
</svg>
