<?xml version="1.0" encoding="utf-8" standalone="no"?>
<!DOCTYPE svg PUBLIC "-//W3C//DTD SVG 1.1//EN"
  "http://www.w3.org/Graphics/SVG/1.1/DTD/svg11.dtd">
<svg xmlns:xlink="http://www.w3.org/1999/xlink" width="576pt" height="432pt" viewBox="0 0 576 432" xmlns="http://www.w3.org/2000/svg" version="1.1">
 <metadata>
  <rdf:RDF xmlns:dc="http://purl.org/dc/elements/1.1/" xmlns:cc="http://creativecommons.org/ns#" xmlns:rdf="http://www.w3.org/1999/02/22-rdf-syntax-ns#">
   <cc:Work>
    <dc:type rdf:resource="http://purl.org/dc/dcmitype/StillImage"/>
    <dc:date>2025-06-10T03:16:54.155224</dc:date>
    <dc:format>image/svg+xml</dc:format>
    <dc:creator>
     <cc:Agent>
      <dc:title>Matplotlib v3.10.3, https://matplotlib.org/</dc:title>
     </cc:Agent>
    </dc:creator>
   </cc:Work>
  </rdf:RDF>
 </metadata>
 <defs>
  <style type="text/css">*{stroke-linejoin: round; stroke-linecap: butt}</style>
 </defs>
 <g id="figure_1">
  <g id="patch_1">
   <path d="M 0 432 
L 576 432 
L 576 0 
L 0 0 
z
" style="fill: #ffffff"/>
  </g>
  <g id="axes_1">
   <g id="patch_2">
    <path d="M 72 384.48 
L 518.4 384.48 
L 518.4 51.84 
L 72 51.84 
z
" style="fill: #ffffff"/>
   </g>
   <g id="FillBetweenPolyCollection_1">
    <path d="M 372.236264 373.577771 
L 218.163736 373.577771 
L 207.092105 370.482651 
L 197.679446 367.387531 
L 190.44902 364.29241 
L 185.716666 361.19729 
L 183.6 358.102169 
L 184.0536 355.007049 
L 186.908707 351.911928 
L 191.903425 348.816808 
L 198.701333 345.721687 
L 206.905357 342.626567 
L 216.07551 339.531446 
L 225.754893 336.436326 
L 235.502092 333.341206 
L 244.924023 330.246085 
L 253.702635 327.150965 
L 261.611023 324.055844 
L 268.517468 320.960724 
L 274.378486 317.865603 
L 279.223575 314.770483 
L 283.135155 311.675362 
L 286.227341 308.580242 
L 288.626747 305.485121 
L 290.457529 302.390001 
L 291.831565 299.294881 
L 292.84342 296.19976 
L 293.568841 293.10464 
L 294.065321 290.009519 
L 294.373512 286.914399 
L 294.518953 283.819278 
L 294.514234 280.724158 
L 294.362179 277.629037 
L 294.060672 274.533917 
L 293.609263 271.438796 
L 293.016858 268.343676 
L 292.30886 265.248555 
L 291.531469 262.153435 
L 290.751024 259.058315 
L 290.047283 255.963194 
L 289.501363 252.868074 
L 289.181007 249.772953 
L 289.12708 246.677833 
L 289.3452 243.582712 
L 289.804985 240.487592 
L 290.447036 237.392471 
L 291.195508 234.297351 
L 291.97261 231.20223 
L 292.711301 228.10711 
L 293.36352 225.01199 
L 293.902983 221.916869 
L 294.323252 218.821749 
L 294.632756 215.726628 
L 294.848757 212.631508 
L 294.991838 209.536387 
L 295.081841 206.441267 
L 295.135478 203.346146 
L 295.165368 200.251026 
L 295.179991 197.155905 
L 295.184059 194.060785 
L 295.178856 190.965665 
L 295.162337 187.870544 
L 295.128914 184.775424 
L 295.069098 181.680303 
L 294.969353 178.585183 
L 294.812679 175.490062 
L 294.580437 172.394942 
L 294.255737 169.299821 
L 293.82821 166.204701 
L 293.299332 163.10958 
L 292.686817 160.01446 
L 292.026355 156.91934 
L 291.369333 153.824219 
L 290.77623 150.729099 
L 290.306759 147.633978 
L 290.009147 144.538858 
L 289.911379 141.443737 
L 290.016789 138.348617 
L 290.305 135.253496 
L 290.737532 132.158376 
L 291.266113 129.063255 
L 291.841261 125.968135 
L 292.419099 122.873014 
L 292.965388 119.777894 
L 293.456791 116.682774 
L 293.880112 113.587653 
L 294.230446 110.492533 
L 294.509028 107.397412 
L 294.721198 104.302292 
L 294.874667 101.207171 
L 294.978111 98.112051 
L 295.040119 95.01693 
L 295.068575 91.92181 
L 295.07048 88.826689 
L 295.052192 85.731569 
L 295.019872 82.636449 
L 294.979894 79.541328 
L 294.938946 76.446208 
L 294.903659 73.351087 
L 294.879839 70.255967 
L 294.871525 67.160846 
L 295.528475 67.160846 
L 295.528475 67.160846 
L 295.520161 70.255967 
L 295.496341 73.351087 
L 295.461054 76.446208 
L 295.420106 79.541328 
L 295.380128 82.636449 
L 295.347808 85.731569 
L 295.32952 88.826689 
L 295.331425 91.92181 
L 295.359881 95.01693 
L 295.421889 98.112051 
L 295.525333 101.207171 
L 295.678802 104.302292 
L 295.890972 107.397412 
L 296.169554 110.492533 
L 296.519888 113.587653 
L 296.943209 116.682774 
L 297.434612 119.777894 
L 297.980901 122.873014 
L 298.558739 125.968135 
L 299.133887 129.063255 
L 299.662468 132.158376 
L 300.095 135.253496 
L 300.383211 138.348617 
L 300.488621 141.443737 
L 300.390853 144.538858 
L 300.093241 147.633978 
L 299.62377 150.729099 
L 299.030667 153.824219 
L 298.373645 156.91934 
L 297.713183 160.01446 
L 297.100668 163.10958 
L 296.57179 166.204701 
L 296.144263 169.299821 
L 295.819563 172.394942 
L 295.587321 175.490062 
L 295.430647 178.585183 
L 295.330902 181.680303 
L 295.271086 184.775424 
L 295.237663 187.870544 
L 295.221144 190.965665 
L 295.215941 194.060785 
L 295.220009 197.155905 
L 295.234632 200.251026 
L 295.264522 203.346146 
L 295.318159 206.441267 
L 295.408162 209.536387 
L 295.551243 212.631508 
L 295.767244 215.726628 
L 296.076748 218.821749 
L 296.497017 221.916869 
L 297.03648 225.01199 
L 297.688699 228.10711 
L 298.42739 231.20223 
L 299.204492 234.297351 
L 299.952964 237.392471 
L 300.595015 240.487592 
L 301.0548 243.582712 
L 301.27292 246.677833 
L 301.218993 249.772953 
L 300.898637 252.868074 
L 300.352717 255.963194 
L 299.648976 259.058315 
L 298.868531 262.153435 
L 298.09114 265.248555 
L 297.383142 268.343676 
L 296.790737 271.438796 
L 296.339328 274.533917 
L 296.037821 277.629037 
L 295.885766 280.724158 
L 295.881047 283.819278 
L 296.026488 286.914399 
L 296.334679 290.009519 
L 296.831159 293.10464 
L 297.55658 296.19976 
L 298.568435 299.294881 
L 299.942471 302.390001 
L 301.773253 305.485121 
L 304.172659 308.580242 
L 307.264845 311.675362 
L 311.176425 314.770483 
L 316.021514 317.865603 
L 321.882532 320.960724 
L 328.788977 324.055844 
L 336.697365 327.150965 
L 345.475977 330.246085 
L 354.897908 333.341206 
L 364.645107 336.436326 
L 374.32449 339.531446 
L 383.494643 342.626567 
L 391.698667 345.721687 
L 398.496575 348.816808 
L 403.491293 351.911928 
L 406.3464 355.007049 
L 406.8 358.102169 
L 404.683334 361.19729 
L 399.95098 364.29241 
L 392.720554 367.387531 
L 383.307895 370.482651 
L 372.236264 373.577771 
z
" clip-path="url(#p65c4d018b1)" style="fill: #1f77b4; fill-opacity: 0.3"/>
   </g>
   <g id="matplotlib.axis_1">
    <g id="xtick_1">
     <g id="line2d_1">
      <defs>
       <path id="m70575ed454" d="M 0 0 
L 0 3.5 
" style="stroke: #000000; stroke-width: 0.8"/>
      </defs>
      <g>
       <use xlink:href="#m70575ed454" x="295.2" y="384.48" style="stroke: #000000; stroke-width: 0.8"/>
      </g>
     </g>
     <g id="text_1">
      <!-- 1 -->
      <g transform="translate(292.01875 399.078438) scale(0.1 -0.1)">
       <defs>
        <path id="DejaVuSans-31" d="M 794 531 
L 1825 531 
L 1825 4091 
L 703 3866 
L 703 4441 
L 1819 4666 
L 2450 4666 
L 2450 531 
L 3481 531 
L 3481 0 
L 794 0 
L 794 531 
z
" transform="scale(0.015625)"/>
       </defs>
       <use xlink:href="#DejaVuSans-31"/>
      </g>
     </g>
    </g>
   </g>
   <g id="matplotlib.axis_2">
    <g id="ytick_1">
     <g id="line2d_2">
      <defs>
       <path id="m86f6a5efac" d="M 0 0 
L -3.5 0 
" style="stroke: #000000; stroke-width: 0.8"/>
      </defs>
      <g>
       <use xlink:href="#m86f6a5efac" x="72" y="384.48" style="stroke: #000000; stroke-width: 0.8"/>
      </g>
     </g>
     <g id="text_2">
      <!-- 0 -->
      <g transform="translate(58.6375 388.279219) scale(0.1 -0.1)">
       <defs>
        <path id="DejaVuSans-30" d="M 2034 4250 
Q 1547 4250 1301 3770 
Q 1056 3291 1056 2328 
Q 1056 1369 1301 889 
Q 1547 409 2034 409 
Q 2525 409 2770 889 
Q 3016 1369 3016 2328 
Q 3016 3291 2770 3770 
Q 2525 4250 2034 4250 
z
M 2034 4750 
Q 2819 4750 3233 4129 
Q 3647 3509 3647 2328 
Q 3647 1150 3233 529 
Q 2819 -91 2034 -91 
Q 1250 -91 836 529 
Q 422 1150 422 2328 
Q 422 3509 836 4129 
Q 1250 4750 2034 4750 
z
" transform="scale(0.015625)"/>
       </defs>
       <use xlink:href="#DejaVuSans-30"/>
      </g>
     </g>
    </g>
    <g id="ytick_2">
     <g id="line2d_3">
      <g>
       <use xlink:href="#m86f6a5efac" x="72" y="327.474228" style="stroke: #000000; stroke-width: 0.8"/>
      </g>
     </g>
     <g id="text_3">
      <!-- 5 -->
      <g transform="translate(58.6375 331.273447) scale(0.1 -0.1)">
       <defs>
        <path id="DejaVuSans-35" d="M 691 4666 
L 3169 4666 
L 3169 4134 
L 1269 4134 
L 1269 2991 
Q 1406 3038 1543 3061 
Q 1681 3084 1819 3084 
Q 2600 3084 3056 2656 
Q 3513 2228 3513 1497 
Q 3513 744 3044 326 
Q 2575 -91 1722 -91 
Q 1428 -91 1123 -41 
Q 819 9 494 109 
L 494 744 
Q 775 591 1075 516 
Q 1375 441 1709 441 
Q 2250 441 2565 725 
Q 2881 1009 2881 1497 
Q 2881 1984 2565 2268 
Q 2250 2553 1709 2553 
Q 1456 2553 1204 2497 
Q 953 2441 691 2322 
L 691 4666 
z
" transform="scale(0.015625)"/>
       </defs>
       <use xlink:href="#DejaVuSans-35"/>
      </g>
     </g>
    </g>
    <g id="ytick_3">
     <g id="line2d_4">
      <g>
       <use xlink:href="#m86f6a5efac" x="72" y="270.468456" style="stroke: #000000; stroke-width: 0.8"/>
      </g>
     </g>
     <g id="text_4">
      <!-- 10 -->
      <g transform="translate(52.275 274.267674) scale(0.1 -0.1)">
       <use xlink:href="#DejaVuSans-31"/>
       <use xlink:href="#DejaVuSans-30" transform="translate(63.623047 0)"/>
      </g>
     </g>
    </g>
    <g id="ytick_4">
     <g id="line2d_5">
      <g>
       <use xlink:href="#m86f6a5efac" x="72" y="213.462683" style="stroke: #000000; stroke-width: 0.8"/>
      </g>
     </g>
     <g id="text_5">
      <!-- 15 -->
      <g transform="translate(52.275 217.261902) scale(0.1 -0.1)">
       <use xlink:href="#DejaVuSans-31"/>
       <use xlink:href="#DejaVuSans-35" transform="translate(63.623047 0)"/>
      </g>
     </g>
    </g>
    <g id="ytick_5">
     <g id="line2d_6">
      <g>
       <use xlink:href="#m86f6a5efac" x="72" y="156.456911" style="stroke: #000000; stroke-width: 0.8"/>
      </g>
     </g>
     <g id="text_6">
      <!-- 20 -->
      <g transform="translate(52.275 160.25613) scale(0.1 -0.1)">
       <defs>
        <path id="DejaVuSans-32" d="M 1228 531 
L 3431 531 
L 3431 0 
L 469 0 
L 469 531 
Q 828 903 1448 1529 
Q 2069 2156 2228 2338 
Q 2531 2678 2651 2914 
Q 2772 3150 2772 3378 
Q 2772 3750 2511 3984 
Q 2250 4219 1831 4219 
Q 1534 4219 1204 4116 
Q 875 4013 500 3803 
L 500 4441 
Q 881 4594 1212 4672 
Q 1544 4750 1819 4750 
Q 2544 4750 2975 4387 
Q 3406 4025 3406 3419 
Q 3406 3131 3298 2873 
Q 3191 2616 2906 2266 
Q 2828 2175 2409 1742 
Q 1991 1309 1228 531 
z
" transform="scale(0.015625)"/>
       </defs>
       <use xlink:href="#DejaVuSans-32"/>
       <use xlink:href="#DejaVuSans-30" transform="translate(63.623047 0)"/>
      </g>
     </g>
    </g>
    <g id="ytick_6">
     <g id="line2d_7">
      <g>
       <use xlink:href="#m86f6a5efac" x="72" y="99.451139" style="stroke: #000000; stroke-width: 0.8"/>
      </g>
     </g>
     <g id="text_7">
      <!-- 25 -->
      <g transform="translate(52.275 103.250358) scale(0.1 -0.1)">
       <use xlink:href="#DejaVuSans-32"/>
       <use xlink:href="#DejaVuSans-35" transform="translate(63.623047 0)"/>
      </g>
     </g>
    </g>
    <g id="text_8">
     <!-- Time (ms) -->
     <g transform="translate(46.195312 243.359219) rotate(-90) scale(0.1 -0.1)">
      <defs>
       <path id="DejaVuSans-54" d="M -19 4666 
L 3928 4666 
L 3928 4134 
L 2272 4134 
L 2272 0 
L 1638 0 
L 1638 4134 
L -19 4134 
L -19 4666 
z
" transform="scale(0.015625)"/>
       <path id="DejaVuSans-69" d="M 603 3500 
L 1178 3500 
L 1178 0 
L 603 0 
L 603 3500 
z
M 603 4863 
L 1178 4863 
L 1178 4134 
L 603 4134 
L 603 4863 
z
" transform="scale(0.015625)"/>
       <path id="DejaVuSans-6d" d="M 3328 2828 
Q 3544 3216 3844 3400 
Q 4144 3584 4550 3584 
Q 5097 3584 5394 3201 
Q 5691 2819 5691 2113 
L 5691 0 
L 5113 0 
L 5113 2094 
Q 5113 2597 4934 2840 
Q 4756 3084 4391 3084 
Q 3944 3084 3684 2787 
Q 3425 2491 3425 1978 
L 3425 0 
L 2847 0 
L 2847 2094 
Q 2847 2600 2669 2842 
Q 2491 3084 2119 3084 
Q 1678 3084 1418 2786 
Q 1159 2488 1159 1978 
L 1159 0 
L 581 0 
L 581 3500 
L 1159 3500 
L 1159 2956 
Q 1356 3278 1631 3431 
Q 1906 3584 2284 3584 
Q 2666 3584 2933 3390 
Q 3200 3197 3328 2828 
z
" transform="scale(0.015625)"/>
       <path id="DejaVuSans-65" d="M 3597 1894 
L 3597 1613 
L 953 1613 
Q 991 1019 1311 708 
Q 1631 397 2203 397 
Q 2534 397 2845 478 
Q 3156 559 3463 722 
L 3463 178 
Q 3153 47 2828 -22 
Q 2503 -91 2169 -91 
Q 1331 -91 842 396 
Q 353 884 353 1716 
Q 353 2575 817 3079 
Q 1281 3584 2069 3584 
Q 2775 3584 3186 3129 
Q 3597 2675 3597 1894 
z
M 3022 2063 
Q 3016 2534 2758 2815 
Q 2500 3097 2075 3097 
Q 1594 3097 1305 2825 
Q 1016 2553 972 2059 
L 3022 2063 
z
" transform="scale(0.015625)"/>
       <path id="DejaVuSans-20" transform="scale(0.015625)"/>
       <path id="DejaVuSans-28" d="M 1984 4856 
Q 1566 4138 1362 3434 
Q 1159 2731 1159 2009 
Q 1159 1288 1364 580 
Q 1569 -128 1984 -844 
L 1484 -844 
Q 1016 -109 783 600 
Q 550 1309 550 2009 
Q 550 2706 781 3412 
Q 1013 4119 1484 4856 
L 1984 4856 
z
" transform="scale(0.015625)"/>
       <path id="DejaVuSans-73" d="M 2834 3397 
L 2834 2853 
Q 2591 2978 2328 3040 
Q 2066 3103 1784 3103 
Q 1356 3103 1142 2972 
Q 928 2841 928 2578 
Q 928 2378 1081 2264 
Q 1234 2150 1697 2047 
L 1894 2003 
Q 2506 1872 2764 1633 
Q 3022 1394 3022 966 
Q 3022 478 2636 193 
Q 2250 -91 1575 -91 
Q 1294 -91 989 -36 
Q 684 19 347 128 
L 347 722 
Q 666 556 975 473 
Q 1284 391 1588 391 
Q 1994 391 2212 530 
Q 2431 669 2431 922 
Q 2431 1156 2273 1281 
Q 2116 1406 1581 1522 
L 1381 1569 
Q 847 1681 609 1914 
Q 372 2147 372 2553 
Q 372 3047 722 3315 
Q 1072 3584 1716 3584 
Q 2034 3584 2315 3537 
Q 2597 3491 2834 3397 
z
" transform="scale(0.015625)"/>
       <path id="DejaVuSans-29" d="M 513 4856 
L 1013 4856 
Q 1481 4119 1714 3412 
Q 1947 2706 1947 2009 
Q 1947 1309 1714 600 
Q 1481 -109 1013 -844 
L 513 -844 
Q 928 -128 1133 580 
Q 1338 1288 1338 2009 
Q 1338 2731 1133 3434 
Q 928 4138 513 4856 
z
" transform="scale(0.015625)"/>
      </defs>
      <use xlink:href="#DejaVuSans-54"/>
      <use xlink:href="#DejaVuSans-69" transform="translate(57.958984 0)"/>
      <use xlink:href="#DejaVuSans-6d" transform="translate(85.742188 0)"/>
      <use xlink:href="#DejaVuSans-65" transform="translate(183.154297 0)"/>
      <use xlink:href="#DejaVuSans-20" transform="translate(244.677734 0)"/>
      <use xlink:href="#DejaVuSans-28" transform="translate(276.464844 0)"/>
      <use xlink:href="#DejaVuSans-6d" transform="translate(315.478516 0)"/>
      <use xlink:href="#DejaVuSans-73" transform="translate(412.890625 0)"/>
      <use xlink:href="#DejaVuSans-29" transform="translate(464.990234 0)"/>
     </g>
    </g>
   </g>
   <g id="LineCollection_1">
    <path d="M 239.4 342.145484 
L 351 342.145484 
" clip-path="url(#p65c4d018b1)" style="fill: none; stroke: #1f77b4; stroke-width: 1.5"/>
   </g>
   <g id="LineCollection_2">
    <path d="M 239.4 67.160846 
L 351 67.160846 
" clip-path="url(#p65c4d018b1)" style="fill: none; stroke: #1f77b4; stroke-width: 1.5"/>
   </g>
   <g id="LineCollection_3">
    <path d="M 239.4 373.577771 
L 351 373.577771 
" clip-path="url(#p65c4d018b1)" style="fill: none; stroke: #1f77b4; stroke-width: 1.5"/>
   </g>
   <g id="LineCollection_4">
    <path d="M 295.2 373.577771 
L 295.2 67.160846 
" clip-path="url(#p65c4d018b1)" style="fill: none; stroke: #1f77b4; stroke-width: 1.5"/>
   </g>
   <g id="patch_3">
    <path d="M 250.56 367.347927 
L 339.84 367.347927 
L 339.84 341.118571 
L 250.56 341.118571 
L 250.56 367.347927 
z
" clip-path="url(#p65c4d018b1)" style="fill: #1f77b4; stroke: #000000; stroke-linejoin: miter"/>
   </g>
   <g id="line2d_8">
    <path d="M 295.2 367.347927 
L 295.2 373.577771 
" clip-path="url(#p65c4d018b1)" style="fill: none; stroke: #000000; stroke-linecap: square"/>
   </g>
   <g id="line2d_9">
    <path d="M 295.2 341.118571 
L 295.2 302.608504 
" clip-path="url(#p65c4d018b1)" style="fill: none; stroke: #000000; stroke-linecap: square"/>
   </g>
   <g id="line2d_10">
    <path d="M 272.88 373.577771 
L 317.52 373.577771 
" clip-path="url(#p65c4d018b1)" style="fill: none; stroke: #000000; stroke-linecap: square"/>
   </g>
   <g id="line2d_11">
    <path d="M 272.88 302.608504 
L 317.52 302.608504 
" clip-path="url(#p65c4d018b1)" style="fill: none; stroke: #000000; stroke-linecap: square"/>
   </g>
   <g id="line2d_12">
    <defs>
     <path id="mc34dca8448" d="M 0 3 
C 0.795609 3 1.55874 2.683901 2.12132 2.12132 
C 2.683901 1.55874 3 0.795609 3 0 
C 3 -0.795609 2.683901 -1.55874 2.12132 -2.12132 
C 1.55874 -2.683901 0.795609 -3 0 -3 
C -0.795609 -3 -1.55874 -2.683901 -2.12132 -2.12132 
C -2.683901 -1.55874 -3 -0.795609 -3 0 
C -3 0.795609 -2.683901 1.55874 -2.12132 2.12132 
C -1.55874 2.683901 -0.795609 3 0 3 
z
" style="stroke: #000000"/>
    </defs>
    <g clip-path="url(#p65c4d018b1)">
     <use xlink:href="#mc34dca8448" x="295.2" y="145.228644" style="fill-opacity: 0; stroke: #000000"/>
     <use xlink:href="#mc34dca8448" x="295.2" y="244.251615" style="fill-opacity: 0; stroke: #000000"/>
     <use xlink:href="#mc34dca8448" x="295.2" y="147.657318" style="fill-opacity: 0; stroke: #000000"/>
     <use xlink:href="#mc34dca8448" x="295.2" y="253.086791" style="fill-opacity: 0; stroke: #000000"/>
     <use xlink:href="#mc34dca8448" x="295.2" y="67.160846" style="fill-opacity: 0; stroke: #000000"/>
     <use xlink:href="#mc34dca8448" x="295.2" y="234.751865" style="fill-opacity: 0; stroke: #000000"/>
     <use xlink:href="#mc34dca8448" x="295.2" y="140.699695" style="fill-opacity: 0; stroke: #000000"/>
     <use xlink:href="#mc34dca8448" x="295.2" y="247.811568" style="fill-opacity: 0; stroke: #000000"/>
     <use xlink:href="#mc34dca8448" x="295.2" y="135.366189" style="fill-opacity: 0; stroke: #000000"/>
     <use xlink:href="#mc34dca8448" x="295.2" y="238.820994" style="fill-opacity: 0; stroke: #000000"/>
     <use xlink:href="#mc34dca8448" x="295.2" y="148.704092" style="fill-opacity: 0; stroke: #000000"/>
     <use xlink:href="#mc34dca8448" x="295.2" y="256.926917" style="fill-opacity: 0; stroke: #000000"/>
     <use xlink:href="#mc34dca8448" x="295.2" y="138.846232" style="fill-opacity: 0; stroke: #000000"/>
     <use xlink:href="#mc34dca8448" x="295.2" y="253.158664" style="fill-opacity: 0; stroke: #000000"/>
     <use xlink:href="#mc34dca8448" x="295.2" y="149.361859" style="fill-opacity: 0; stroke: #000000"/>
     <use xlink:href="#mc34dca8448" x="295.2" y="253.062849" style="fill-opacity: 0; stroke: #000000"/>
     <use xlink:href="#mc34dca8448" x="295.2" y="133.731389" style="fill-opacity: 0; stroke: #000000"/>
     <use xlink:href="#mc34dca8448" x="295.2" y="246.034892" style="fill-opacity: 0; stroke: #000000"/>
     <use xlink:href="#mc34dca8448" x="295.2" y="150.922722" style="fill-opacity: 0; stroke: #000000"/>
     <use xlink:href="#mc34dca8448" x="295.2" y="239.384337" style="fill-opacity: 0; stroke: #000000"/>
     <use xlink:href="#mc34dca8448" x="295.2" y="145.516911" style="fill-opacity: 0; stroke: #000000"/>
     <use xlink:href="#mc34dca8448" x="295.2" y="247.339538" style="fill-opacity: 0; stroke: #000000"/>
     <use xlink:href="#mc34dca8448" x="295.2" y="136.418641" style="fill-opacity: 0; stroke: #000000"/>
     <use xlink:href="#mc34dca8448" x="295.2" y="249.583023" style="fill-opacity: 0; stroke: #000000"/>
     <use xlink:href="#mc34dca8448" x="295.2" y="139.367219" style="fill-opacity: 0; stroke: #000000"/>
     <use xlink:href="#mc34dca8448" x="295.2" y="250.105287" style="fill-opacity: 0; stroke: #000000"/>
     <use xlink:href="#mc34dca8448" x="295.2" y="141.078453" style="fill-opacity: 0; stroke: #000000"/>
     <use xlink:href="#mc34dca8448" x="295.2" y="253.874577" style="fill-opacity: 0; stroke: #000000"/>
     <use xlink:href="#mc34dca8448" x="295.2" y="146.058807" style="fill-opacity: 0; stroke: #000000"/>
     <use xlink:href="#mc34dca8448" x="295.2" y="247.184186" style="fill-opacity: 0; stroke: #000000"/>
     <use xlink:href="#mc34dca8448" x="295.2" y="119.954861" style="fill-opacity: 0; stroke: #000000"/>
     <use xlink:href="#mc34dca8448" x="295.2" y="245.103395" style="fill-opacity: 0; stroke: #000000"/>
     <use xlink:href="#mc34dca8448" x="295.2" y="126.473129" style="fill-opacity: 0; stroke: #000000"/>
     <use xlink:href="#mc34dca8448" x="295.2" y="245.394136" style="fill-opacity: 0; stroke: #000000"/>
     <use xlink:href="#mc34dca8448" x="295.2" y="143.547555" style="fill-opacity: 0; stroke: #000000"/>
     <use xlink:href="#mc34dca8448" x="295.2" y="247.225367" style="fill-opacity: 0; stroke: #000000"/>
     <use xlink:href="#mc34dca8448" x="295.2" y="125.88679" style="fill-opacity: 0; stroke: #000000"/>
     <use xlink:href="#mc34dca8448" x="295.2" y="251.382102" style="fill-opacity: 0; stroke: #000000"/>
     <use xlink:href="#mc34dca8448" x="295.2" y="147.534151" style="fill-opacity: 0; stroke: #000000"/>
     <use xlink:href="#mc34dca8448" x="295.2" y="243.890244" style="fill-opacity: 0; stroke: #000000"/>
    </g>
   </g>
   <g id="line2d_13">
    <path d="M 250.56 353.115333 
L 339.84 353.115333 
" clip-path="url(#p65c4d018b1)" style="fill: none; stroke: #ff7f0e"/>
   </g>
   <g id="patch_4">
    <path d="M 72 384.48 
L 72 51.84 
" style="fill: none; stroke: #000000; stroke-width: 0.8; stroke-linejoin: miter; stroke-linecap: square"/>
   </g>
   <g id="patch_5">
    <path d="M 518.4 384.48 
L 518.4 51.84 
" style="fill: none; stroke: #000000; stroke-width: 0.8; stroke-linejoin: miter; stroke-linecap: square"/>
   </g>
   <g id="patch_6">
    <path d="M 72 384.48 
L 518.4 384.48 
" style="fill: none; stroke: #000000; stroke-width: 0.8; stroke-linejoin: miter; stroke-linecap: square"/>
   </g>
   <g id="patch_7">
    <path d="M 72 51.84 
L 518.4 51.84 
" style="fill: none; stroke: #000000; stroke-width: 0.8; stroke-linejoin: miter; stroke-linecap: square"/>
   </g>
   <g id="text_9">
    <!-- Handle Result -->
    <g transform="translate(253.595625 45.84) scale(0.12 -0.12)">
     <defs>
      <path id="DejaVuSans-48" d="M 628 4666 
L 1259 4666 
L 1259 2753 
L 3553 2753 
L 3553 4666 
L 4184 4666 
L 4184 0 
L 3553 0 
L 3553 2222 
L 1259 2222 
L 1259 0 
L 628 0 
L 628 4666 
z
" transform="scale(0.015625)"/>
      <path id="DejaVuSans-61" d="M 2194 1759 
Q 1497 1759 1228 1600 
Q 959 1441 959 1056 
Q 959 750 1161 570 
Q 1363 391 1709 391 
Q 2188 391 2477 730 
Q 2766 1069 2766 1631 
L 2766 1759 
L 2194 1759 
z
M 3341 1997 
L 3341 0 
L 2766 0 
L 2766 531 
Q 2569 213 2275 61 
Q 1981 -91 1556 -91 
Q 1019 -91 701 211 
Q 384 513 384 1019 
Q 384 1609 779 1909 
Q 1175 2209 1959 2209 
L 2766 2209 
L 2766 2266 
Q 2766 2663 2505 2880 
Q 2244 3097 1772 3097 
Q 1472 3097 1187 3025 
Q 903 2953 641 2809 
L 641 3341 
Q 956 3463 1253 3523 
Q 1550 3584 1831 3584 
Q 2591 3584 2966 3190 
Q 3341 2797 3341 1997 
z
" transform="scale(0.015625)"/>
      <path id="DejaVuSans-6e" d="M 3513 2113 
L 3513 0 
L 2938 0 
L 2938 2094 
Q 2938 2591 2744 2837 
Q 2550 3084 2163 3084 
Q 1697 3084 1428 2787 
Q 1159 2491 1159 1978 
L 1159 0 
L 581 0 
L 581 3500 
L 1159 3500 
L 1159 2956 
Q 1366 3272 1645 3428 
Q 1925 3584 2291 3584 
Q 2894 3584 3203 3211 
Q 3513 2838 3513 2113 
z
" transform="scale(0.015625)"/>
      <path id="DejaVuSans-64" d="M 2906 2969 
L 2906 4863 
L 3481 4863 
L 3481 0 
L 2906 0 
L 2906 525 
Q 2725 213 2448 61 
Q 2172 -91 1784 -91 
Q 1150 -91 751 415 
Q 353 922 353 1747 
Q 353 2572 751 3078 
Q 1150 3584 1784 3584 
Q 2172 3584 2448 3432 
Q 2725 3281 2906 2969 
z
M 947 1747 
Q 947 1113 1208 752 
Q 1469 391 1925 391 
Q 2381 391 2643 752 
Q 2906 1113 2906 1747 
Q 2906 2381 2643 2742 
Q 2381 3103 1925 3103 
Q 1469 3103 1208 2742 
Q 947 2381 947 1747 
z
" transform="scale(0.015625)"/>
      <path id="DejaVuSans-6c" d="M 603 4863 
L 1178 4863 
L 1178 0 
L 603 0 
L 603 4863 
z
" transform="scale(0.015625)"/>
      <path id="DejaVuSans-52" d="M 2841 2188 
Q 3044 2119 3236 1894 
Q 3428 1669 3622 1275 
L 4263 0 
L 3584 0 
L 2988 1197 
Q 2756 1666 2539 1819 
Q 2322 1972 1947 1972 
L 1259 1972 
L 1259 0 
L 628 0 
L 628 4666 
L 2053 4666 
Q 2853 4666 3247 4331 
Q 3641 3997 3641 3322 
Q 3641 2881 3436 2590 
Q 3231 2300 2841 2188 
z
M 1259 4147 
L 1259 2491 
L 2053 2491 
Q 2509 2491 2742 2702 
Q 2975 2913 2975 3322 
Q 2975 3731 2742 3939 
Q 2509 4147 2053 4147 
L 1259 4147 
z
" transform="scale(0.015625)"/>
      <path id="DejaVuSans-75" d="M 544 1381 
L 544 3500 
L 1119 3500 
L 1119 1403 
Q 1119 906 1312 657 
Q 1506 409 1894 409 
Q 2359 409 2629 706 
Q 2900 1003 2900 1516 
L 2900 3500 
L 3475 3500 
L 3475 0 
L 2900 0 
L 2900 538 
Q 2691 219 2414 64 
Q 2138 -91 1772 -91 
Q 1169 -91 856 284 
Q 544 659 544 1381 
z
M 1991 3584 
L 1991 3584 
z
" transform="scale(0.015625)"/>
      <path id="DejaVuSans-74" d="M 1172 4494 
L 1172 3500 
L 2356 3500 
L 2356 3053 
L 1172 3053 
L 1172 1153 
Q 1172 725 1289 603 
Q 1406 481 1766 481 
L 2356 481 
L 2356 0 
L 1766 0 
Q 1100 0 847 248 
Q 594 497 594 1153 
L 594 3053 
L 172 3053 
L 172 3500 
L 594 3500 
L 594 4494 
L 1172 4494 
z
" transform="scale(0.015625)"/>
     </defs>
     <use xlink:href="#DejaVuSans-48"/>
     <use xlink:href="#DejaVuSans-61" transform="translate(75.195312 0)"/>
     <use xlink:href="#DejaVuSans-6e" transform="translate(136.474609 0)"/>
     <use xlink:href="#DejaVuSans-64" transform="translate(199.853516 0)"/>
     <use xlink:href="#DejaVuSans-6c" transform="translate(263.330078 0)"/>
     <use xlink:href="#DejaVuSans-65" transform="translate(291.113281 0)"/>
     <use xlink:href="#DejaVuSans-20" transform="translate(352.636719 0)"/>
     <use xlink:href="#DejaVuSans-52" transform="translate(384.423828 0)"/>
     <use xlink:href="#DejaVuSans-65" transform="translate(449.40625 0)"/>
     <use xlink:href="#DejaVuSans-73" transform="translate(510.929688 0)"/>
     <use xlink:href="#DejaVuSans-75" transform="translate(563.029297 0)"/>
     <use xlink:href="#DejaVuSans-6c" transform="translate(626.408203 0)"/>
     <use xlink:href="#DejaVuSans-74" transform="translate(654.191406 0)"/>
    </g>
   </g>
  </g>
 </g>
 <defs>
  <clipPath id="p65c4d018b1">
   <rect x="72" y="51.84" width="446.4" height="332.64"/>
  </clipPath>
 </defs>
</svg>
