<?xml version="1.0" encoding="utf-8" standalone="no"?>
<!DOCTYPE svg PUBLIC "-//W3C//DTD SVG 1.1//EN"
  "http://www.w3.org/Graphics/SVG/1.1/DTD/svg11.dtd">
<svg xmlns:xlink="http://www.w3.org/1999/xlink" width="576pt" height="432pt" viewBox="0 0 576 432" xmlns="http://www.w3.org/2000/svg" version="1.1">
 <metadata>
  <rdf:RDF xmlns:dc="http://purl.org/dc/elements/1.1/" xmlns:cc="http://creativecommons.org/ns#" xmlns:rdf="http://www.w3.org/1999/02/22-rdf-syntax-ns#">
   <cc:Work>
    <dc:type rdf:resource="http://purl.org/dc/dcmitype/StillImage"/>
    <dc:date>2025-09-30T20:46:00.379838</dc:date>
    <dc:format>image/svg+xml</dc:format>
    <dc:creator>
     <cc:Agent>
      <dc:title>Matplotlib v3.10.3, https://matplotlib.org/</dc:title>
     </cc:Agent>
    </dc:creator>
   </cc:Work>
  </rdf:RDF>
 </metadata>
 <defs>
  <style type="text/css">*{stroke-linejoin: round; stroke-linecap: butt}</style>
 </defs>
 <g id="figure_1">
  <g id="patch_1">
   <path d="M 0 432 
L 576 432 
L 576 0 
L 0 0 
z
" style="fill: #ffffff"/>
  </g>
  <g id="axes_1">
   <g id="patch_2">
    <path d="M 72 384.48 
L 518.4 384.48 
L 518.4 51.84 
L 72 51.84 
z
" style="fill: #ffffff"/>
   </g>
   <g id="FillBetweenPolyCollection_1">
    <path d="M 296.15414 364.041247 
L 294.24586 364.041247 
L 294.228745 361.037868 
L 294.168251 358.034489 
L 293.296542 355.03111 
L 289.879812 352.027731 
L 280.986209 349.024352 
L 263.549027 346.020973 
L 237.454823 343.017594 
L 208.601556 340.014215 
L 187.672815 337.010836 
L 183.6 334.007457 
L 197.148032 331.004078 
L 220.901834 328.000699 
L 245.181067 324.99732 
L 263.852344 321.993941 
L 275.769347 318.990562 
L 282.679159 315.987183 
L 286.724733 312.983804 
L 289.31989 309.980425 
L 291.145675 306.977046 
L 292.436398 303.973667 
L 293.213069 300.970288 
L 293.486836 297.966909 
L 293.404291 294.96353 
L 293.237691 291.960151 
L 293.233661 288.956772 
L 293.467537 285.953393 
L 293.83527 282.950014 
L 294.171544 279.946635 
L 294.373827 276.943256 
L 294.444695 273.939877 
L 294.45916 270.936498 
L 294.496587 267.933119 
L 294.571651 264.92974 
L 294.616 261.926361 
L 294.543951 258.922982 
L 294.347423 255.919603 
L 294.121254 252.916224 
L 293.994844 249.912845 
L 294.040071 246.909466 
L 294.229921 243.906087 
L 294.465938 240.902708 
L 294.647198 237.899329 
L 294.730346 234.89595 
L 294.735416 231.892571 
L 294.703244 228.889192 
L 294.656937 225.885813 
L 294.600644 222.882434 
L 294.541973 219.879055 
L 294.508557 216.875676 
L 294.538663 213.872297 
L 294.64921 210.868918 
L 294.812846 207.865539 
L 294.972171 204.86216 
L 295.076195 201.858781 
L 295.099654 198.855402 
L 295.038711 195.852023 
L 294.913178 192.848644 
L 294.780445 189.845265 
L 294.719594 186.841886 
L 294.772066 183.838507 
L 294.903167 180.835128 
L 295.037138 177.831749 
L 295.119767 174.82837 
L 295.138241 171.824991 
L 295.103033 168.821612 
L 295.036845 165.818233 
L 294.976763 162.814854 
L 294.961417 159.811475 
L 295.001752 156.808096 
L 295.071986 153.804717 
L 295.135767 150.801338 
L 295.174956 147.797959 
L 295.192413 144.79458 
L 295.198214 141.791201 
L 295.199673 138.787822 
L 295.199954 135.784443 
L 295.199995 132.781064 
L 295.2 129.777685 
L 295.2 126.774306 
L 295.2 123.770927 
L 295.2 120.767548 
L 295.2 117.764169 
L 295.2 114.76079 
L 295.2 111.757411 
L 295.2 108.754032 
L 295.2 105.750653 
L 295.2 102.747274 
L 295.2 99.743895 
L 295.199999 96.740516 
L 295.199991 93.737137 
L 295.199925 90.733758 
L 295.199503 87.730379 
L 295.197437 84.727 
L 295.189739 81.723621 
L 295.168071 78.720242 
L 295.1228 75.716863 
L 295.054957 72.713484 
L 294.98825 69.710105 
L 294.959785 66.706726 
L 295.440215 66.706726 
L 295.440215 66.706726 
L 295.41175 69.710105 
L 295.345043 72.713484 
L 295.2772 75.716863 
L 295.231929 78.720242 
L 295.210261 81.723621 
L 295.202563 84.727 
L 295.200497 87.730379 
L 295.200075 90.733758 
L 295.200009 93.737137 
L 295.200001 96.740516 
L 295.2 99.743895 
L 295.2 102.747274 
L 295.2 105.750653 
L 295.2 108.754032 
L 295.2 111.757411 
L 295.2 114.76079 
L 295.2 117.764169 
L 295.2 120.767548 
L 295.2 123.770927 
L 295.2 126.774306 
L 295.2 129.777685 
L 295.200005 132.781064 
L 295.200046 135.784443 
L 295.200327 138.787822 
L 295.201786 141.791201 
L 295.207587 144.79458 
L 295.225044 147.797959 
L 295.264233 150.801338 
L 295.328014 153.804717 
L 295.398248 156.808096 
L 295.438583 159.811475 
L 295.423237 162.814854 
L 295.363155 165.818233 
L 295.296967 168.821612 
L 295.261759 171.824991 
L 295.280233 174.82837 
L 295.362862 177.831749 
L 295.496833 180.835128 
L 295.627934 183.838507 
L 295.680406 186.841886 
L 295.619555 189.845265 
L 295.486822 192.848644 
L 295.361289 195.852023 
L 295.300346 198.855402 
L 295.323805 201.858781 
L 295.427829 204.86216 
L 295.587154 207.865539 
L 295.75079 210.868918 
L 295.861337 213.872297 
L 295.891443 216.875676 
L 295.858027 219.879055 
L 295.799356 222.882434 
L 295.743063 225.885813 
L 295.696756 228.889192 
L 295.664584 231.892571 
L 295.669654 234.89595 
L 295.752802 237.899329 
L 295.934062 240.902708 
L 296.170079 243.906087 
L 296.359929 246.909466 
L 296.405156 249.912845 
L 296.278746 252.916224 
L 296.052577 255.919603 
L 295.856049 258.922982 
L 295.784 261.926361 
L 295.828349 264.92974 
L 295.903413 267.933119 
L 295.94084 270.936498 
L 295.955305 273.939877 
L 296.026173 276.943256 
L 296.228456 279.946635 
L 296.56473 282.950014 
L 296.932463 285.953393 
L 297.166339 288.956772 
L 297.162309 291.960151 
L 296.995709 294.96353 
L 296.913164 297.966909 
L 297.186931 300.970288 
L 297.963602 303.973667 
L 299.254325 306.977046 
L 301.08011 309.980425 
L 303.675267 312.983804 
L 307.720841 315.987183 
L 314.630653 318.990562 
L 326.547656 321.993941 
L 345.218933 324.99732 
L 369.498166 328.000699 
L 393.251968 331.004078 
L 406.8 334.007457 
L 402.727185 337.010836 
L 381.798444 340.014215 
L 352.945177 343.017594 
L 326.850973 346.020973 
L 309.413791 349.024352 
L 300.520188 352.027731 
L 297.103458 355.03111 
L 296.231749 358.034489 
L 296.171255 361.037868 
L 296.15414 364.041247 
z
" clip-path="url(#p66638257bd)" style="fill: #1f77b4; fill-opacity: 0.3"/>
   </g>
   <g id="matplotlib.axis_1">
    <g id="xtick_1">
     <g id="line2d_1">
      <defs>
       <path id="mb3c4a524f8" d="M 0 0 
L 0 3.5 
" style="stroke: #000000; stroke-width: 0.8"/>
      </defs>
      <g>
       <use xlink:href="#mb3c4a524f8" x="295.2" y="384.48" style="stroke: #000000; stroke-width: 0.8"/>
      </g>
     </g>
     <g id="text_1">
      <!-- 1 -->
      <g transform="translate(292.01875 399.078438) scale(0.1 -0.1)">
       <defs>
        <path id="DejaVuSans-31" d="M 794 531 
L 1825 531 
L 1825 4091 
L 703 3866 
L 703 4441 
L 1819 4666 
L 2450 4666 
L 2450 531 
L 3481 531 
L 3481 0 
L 794 0 
L 794 531 
z
" transform="scale(0.015625)"/>
       </defs>
       <use xlink:href="#DejaVuSans-31"/>
      </g>
     </g>
    </g>
   </g>
   <g id="matplotlib.axis_2">
    <g id="ytick_1">
     <g id="line2d_2">
      <defs>
       <path id="m6144a0315f" d="M 0 0 
L -3.5 0 
" style="stroke: #000000; stroke-width: 0.8"/>
      </defs>
      <g>
       <use xlink:href="#m6144a0315f" x="72" y="384.48" style="stroke: #000000; stroke-width: 0.8"/>
      </g>
     </g>
     <g id="text_2">
      <!-- 0 -->
      <g transform="translate(58.6375 388.279219) scale(0.1 -0.1)">
       <defs>
        <path id="DejaVuSans-30" d="M 2034 4250 
Q 1547 4250 1301 3770 
Q 1056 3291 1056 2328 
Q 1056 1369 1301 889 
Q 1547 409 2034 409 
Q 2525 409 2770 889 
Q 3016 1369 3016 2328 
Q 3016 3291 2770 3770 
Q 2525 4250 2034 4250 
z
M 2034 4750 
Q 2819 4750 3233 4129 
Q 3647 3509 3647 2328 
Q 3647 1150 3233 529 
Q 2819 -91 2034 -91 
Q 1250 -91 836 529 
Q 422 1150 422 2328 
Q 422 3509 836 4129 
Q 1250 4750 2034 4750 
z
" transform="scale(0.015625)"/>
       </defs>
       <use xlink:href="#DejaVuSans-30"/>
      </g>
     </g>
    </g>
    <g id="ytick_2">
     <g id="line2d_3">
      <g>
       <use xlink:href="#m6144a0315f" x="72" y="343.333238" style="stroke: #000000; stroke-width: 0.8"/>
      </g>
     </g>
     <g id="text_3">
      <!-- 20 -->
      <g transform="translate(52.275 347.132457) scale(0.1 -0.1)">
       <defs>
        <path id="DejaVuSans-32" d="M 1228 531 
L 3431 531 
L 3431 0 
L 469 0 
L 469 531 
Q 828 903 1448 1529 
Q 2069 2156 2228 2338 
Q 2531 2678 2651 2914 
Q 2772 3150 2772 3378 
Q 2772 3750 2511 3984 
Q 2250 4219 1831 4219 
Q 1534 4219 1204 4116 
Q 875 4013 500 3803 
L 500 4441 
Q 881 4594 1212 4672 
Q 1544 4750 1819 4750 
Q 2544 4750 2975 4387 
Q 3406 4025 3406 3419 
Q 3406 3131 3298 2873 
Q 3191 2616 2906 2266 
Q 2828 2175 2409 1742 
Q 1991 1309 1228 531 
z
" transform="scale(0.015625)"/>
       </defs>
       <use xlink:href="#DejaVuSans-32"/>
       <use xlink:href="#DejaVuSans-30" transform="translate(63.623047 0)"/>
      </g>
     </g>
    </g>
    <g id="ytick_3">
     <g id="line2d_4">
      <g>
       <use xlink:href="#m6144a0315f" x="72" y="302.186477" style="stroke: #000000; stroke-width: 0.8"/>
      </g>
     </g>
     <g id="text_4">
      <!-- 40 -->
      <g transform="translate(52.275 305.985695) scale(0.1 -0.1)">
       <defs>
        <path id="DejaVuSans-34" d="M 2419 4116 
L 825 1625 
L 2419 1625 
L 2419 4116 
z
M 2253 4666 
L 3047 4666 
L 3047 1625 
L 3713 1625 
L 3713 1100 
L 3047 1100 
L 3047 0 
L 2419 0 
L 2419 1100 
L 313 1100 
L 313 1709 
L 2253 4666 
z
" transform="scale(0.015625)"/>
       </defs>
       <use xlink:href="#DejaVuSans-34"/>
       <use xlink:href="#DejaVuSans-30" transform="translate(63.623047 0)"/>
      </g>
     </g>
    </g>
    <g id="ytick_4">
     <g id="line2d_5">
      <g>
       <use xlink:href="#m6144a0315f" x="72" y="261.039715" style="stroke: #000000; stroke-width: 0.8"/>
      </g>
     </g>
     <g id="text_5">
      <!-- 60 -->
      <g transform="translate(52.275 264.838934) scale(0.1 -0.1)">
       <defs>
        <path id="DejaVuSans-36" d="M 2113 2584 
Q 1688 2584 1439 2293 
Q 1191 2003 1191 1497 
Q 1191 994 1439 701 
Q 1688 409 2113 409 
Q 2538 409 2786 701 
Q 3034 994 3034 1497 
Q 3034 2003 2786 2293 
Q 2538 2584 2113 2584 
z
M 3366 4563 
L 3366 3988 
Q 3128 4100 2886 4159 
Q 2644 4219 2406 4219 
Q 1781 4219 1451 3797 
Q 1122 3375 1075 2522 
Q 1259 2794 1537 2939 
Q 1816 3084 2150 3084 
Q 2853 3084 3261 2657 
Q 3669 2231 3669 1497 
Q 3669 778 3244 343 
Q 2819 -91 2113 -91 
Q 1303 -91 875 529 
Q 447 1150 447 2328 
Q 447 3434 972 4092 
Q 1497 4750 2381 4750 
Q 2619 4750 2861 4703 
Q 3103 4656 3366 4563 
z
" transform="scale(0.015625)"/>
       </defs>
       <use xlink:href="#DejaVuSans-36"/>
       <use xlink:href="#DejaVuSans-30" transform="translate(63.623047 0)"/>
      </g>
     </g>
    </g>
    <g id="ytick_5">
     <g id="line2d_6">
      <g>
       <use xlink:href="#m6144a0315f" x="72" y="219.892953" style="stroke: #000000; stroke-width: 0.8"/>
      </g>
     </g>
     <g id="text_6">
      <!-- 80 -->
      <g transform="translate(52.275 223.692172) scale(0.1 -0.1)">
       <defs>
        <path id="DejaVuSans-38" d="M 2034 2216 
Q 1584 2216 1326 1975 
Q 1069 1734 1069 1313 
Q 1069 891 1326 650 
Q 1584 409 2034 409 
Q 2484 409 2743 651 
Q 3003 894 3003 1313 
Q 3003 1734 2745 1975 
Q 2488 2216 2034 2216 
z
M 1403 2484 
Q 997 2584 770 2862 
Q 544 3141 544 3541 
Q 544 4100 942 4425 
Q 1341 4750 2034 4750 
Q 2731 4750 3128 4425 
Q 3525 4100 3525 3541 
Q 3525 3141 3298 2862 
Q 3072 2584 2669 2484 
Q 3125 2378 3379 2068 
Q 3634 1759 3634 1313 
Q 3634 634 3220 271 
Q 2806 -91 2034 -91 
Q 1263 -91 848 271 
Q 434 634 434 1313 
Q 434 1759 690 2068 
Q 947 2378 1403 2484 
z
M 1172 3481 
Q 1172 3119 1398 2916 
Q 1625 2713 2034 2713 
Q 2441 2713 2670 2916 
Q 2900 3119 2900 3481 
Q 2900 3844 2670 4047 
Q 2441 4250 2034 4250 
Q 1625 4250 1398 4047 
Q 1172 3844 1172 3481 
z
" transform="scale(0.015625)"/>
       </defs>
       <use xlink:href="#DejaVuSans-38"/>
       <use xlink:href="#DejaVuSans-30" transform="translate(63.623047 0)"/>
      </g>
     </g>
    </g>
    <g id="ytick_6">
     <g id="line2d_7">
      <g>
       <use xlink:href="#m6144a0315f" x="72" y="178.746192" style="stroke: #000000; stroke-width: 0.8"/>
      </g>
     </g>
     <g id="text_7">
      <!-- 100 -->
      <g transform="translate(45.9125 182.545411) scale(0.1 -0.1)">
       <use xlink:href="#DejaVuSans-31"/>
       <use xlink:href="#DejaVuSans-30" transform="translate(63.623047 0)"/>
       <use xlink:href="#DejaVuSans-30" transform="translate(127.246094 0)"/>
      </g>
     </g>
    </g>
    <g id="ytick_7">
     <g id="line2d_8">
      <g>
       <use xlink:href="#m6144a0315f" x="72" y="137.59943" style="stroke: #000000; stroke-width: 0.8"/>
      </g>
     </g>
     <g id="text_8">
      <!-- 120 -->
      <g transform="translate(45.9125 141.398649) scale(0.1 -0.1)">
       <use xlink:href="#DejaVuSans-31"/>
       <use xlink:href="#DejaVuSans-32" transform="translate(63.623047 0)"/>
       <use xlink:href="#DejaVuSans-30" transform="translate(127.246094 0)"/>
      </g>
     </g>
    </g>
    <g id="ytick_8">
     <g id="line2d_9">
      <g>
       <use xlink:href="#m6144a0315f" x="72" y="96.452668" style="stroke: #000000; stroke-width: 0.8"/>
      </g>
     </g>
     <g id="text_9">
      <!-- 140 -->
      <g transform="translate(45.9125 100.251887) scale(0.1 -0.1)">
       <use xlink:href="#DejaVuSans-31"/>
       <use xlink:href="#DejaVuSans-34" transform="translate(63.623047 0)"/>
       <use xlink:href="#DejaVuSans-30" transform="translate(127.246094 0)"/>
      </g>
     </g>
    </g>
    <g id="ytick_9">
     <g id="line2d_10">
      <g>
       <use xlink:href="#m6144a0315f" x="72" y="55.305907" style="stroke: #000000; stroke-width: 0.8"/>
      </g>
     </g>
     <g id="text_10">
      <!-- 160 -->
      <g transform="translate(45.9125 59.105126) scale(0.1 -0.1)">
       <use xlink:href="#DejaVuSans-31"/>
       <use xlink:href="#DejaVuSans-36" transform="translate(63.623047 0)"/>
       <use xlink:href="#DejaVuSans-30" transform="translate(127.246094 0)"/>
      </g>
     </g>
    </g>
    <g id="text_11">
     <!-- Time (ms) -->
     <g transform="translate(39.832812 243.359219) rotate(-90) scale(0.1 -0.1)">
      <defs>
       <path id="DejaVuSans-54" d="M -19 4666 
L 3928 4666 
L 3928 4134 
L 2272 4134 
L 2272 0 
L 1638 0 
L 1638 4134 
L -19 4134 
L -19 4666 
z
" transform="scale(0.015625)"/>
       <path id="DejaVuSans-69" d="M 603 3500 
L 1178 3500 
L 1178 0 
L 603 0 
L 603 3500 
z
M 603 4863 
L 1178 4863 
L 1178 4134 
L 603 4134 
L 603 4863 
z
" transform="scale(0.015625)"/>
       <path id="DejaVuSans-6d" d="M 3328 2828 
Q 3544 3216 3844 3400 
Q 4144 3584 4550 3584 
Q 5097 3584 5394 3201 
Q 5691 2819 5691 2113 
L 5691 0 
L 5113 0 
L 5113 2094 
Q 5113 2597 4934 2840 
Q 4756 3084 4391 3084 
Q 3944 3084 3684 2787 
Q 3425 2491 3425 1978 
L 3425 0 
L 2847 0 
L 2847 2094 
Q 2847 2600 2669 2842 
Q 2491 3084 2119 3084 
Q 1678 3084 1418 2786 
Q 1159 2488 1159 1978 
L 1159 0 
L 581 0 
L 581 3500 
L 1159 3500 
L 1159 2956 
Q 1356 3278 1631 3431 
Q 1906 3584 2284 3584 
Q 2666 3584 2933 3390 
Q 3200 3197 3328 2828 
z
" transform="scale(0.015625)"/>
       <path id="DejaVuSans-65" d="M 3597 1894 
L 3597 1613 
L 953 1613 
Q 991 1019 1311 708 
Q 1631 397 2203 397 
Q 2534 397 2845 478 
Q 3156 559 3463 722 
L 3463 178 
Q 3153 47 2828 -22 
Q 2503 -91 2169 -91 
Q 1331 -91 842 396 
Q 353 884 353 1716 
Q 353 2575 817 3079 
Q 1281 3584 2069 3584 
Q 2775 3584 3186 3129 
Q 3597 2675 3597 1894 
z
M 3022 2063 
Q 3016 2534 2758 2815 
Q 2500 3097 2075 3097 
Q 1594 3097 1305 2825 
Q 1016 2553 972 2059 
L 3022 2063 
z
" transform="scale(0.015625)"/>
       <path id="DejaVuSans-20" transform="scale(0.015625)"/>
       <path id="DejaVuSans-28" d="M 1984 4856 
Q 1566 4138 1362 3434 
Q 1159 2731 1159 2009 
Q 1159 1288 1364 580 
Q 1569 -128 1984 -844 
L 1484 -844 
Q 1016 -109 783 600 
Q 550 1309 550 2009 
Q 550 2706 781 3412 
Q 1013 4119 1484 4856 
L 1984 4856 
z
" transform="scale(0.015625)"/>
       <path id="DejaVuSans-73" d="M 2834 3397 
L 2834 2853 
Q 2591 2978 2328 3040 
Q 2066 3103 1784 3103 
Q 1356 3103 1142 2972 
Q 928 2841 928 2578 
Q 928 2378 1081 2264 
Q 1234 2150 1697 2047 
L 1894 2003 
Q 2506 1872 2764 1633 
Q 3022 1394 3022 966 
Q 3022 478 2636 193 
Q 2250 -91 1575 -91 
Q 1294 -91 989 -36 
Q 684 19 347 128 
L 347 722 
Q 666 556 975 473 
Q 1284 391 1588 391 
Q 1994 391 2212 530 
Q 2431 669 2431 922 
Q 2431 1156 2273 1281 
Q 2116 1406 1581 1522 
L 1381 1569 
Q 847 1681 609 1914 
Q 372 2147 372 2553 
Q 372 3047 722 3315 
Q 1072 3584 1716 3584 
Q 2034 3584 2315 3537 
Q 2597 3491 2834 3397 
z
" transform="scale(0.015625)"/>
       <path id="DejaVuSans-29" d="M 513 4856 
L 1013 4856 
Q 1481 4119 1714 3412 
Q 1947 2706 1947 2009 
Q 1947 1309 1714 600 
Q 1481 -109 1013 -844 
L 513 -844 
Q 928 -128 1133 580 
Q 1338 1288 1338 2009 
Q 1338 2731 1133 3434 
Q 928 4138 513 4856 
z
" transform="scale(0.015625)"/>
      </defs>
      <use xlink:href="#DejaVuSans-54"/>
      <use xlink:href="#DejaVuSans-69" transform="translate(57.958984 0)"/>
      <use xlink:href="#DejaVuSans-6d" transform="translate(85.742188 0)"/>
      <use xlink:href="#DejaVuSans-65" transform="translate(183.154297 0)"/>
      <use xlink:href="#DejaVuSans-20" transform="translate(244.677734 0)"/>
      <use xlink:href="#DejaVuSans-28" transform="translate(276.464844 0)"/>
      <use xlink:href="#DejaVuSans-6d" transform="translate(315.478516 0)"/>
      <use xlink:href="#DejaVuSans-73" transform="translate(412.890625 0)"/>
      <use xlink:href="#DejaVuSans-29" transform="translate(464.990234 0)"/>
     </g>
    </g>
   </g>
   <g id="LineCollection_1">
    <path d="M 239.4 329.575087 
L 351 329.575087 
" clip-path="url(#p66638257bd)" style="fill: none; stroke: #1f77b4; stroke-width: 1.5"/>
   </g>
   <g id="LineCollection_2">
    <path d="M 239.4 66.706726 
L 351 66.706726 
" clip-path="url(#p66638257bd)" style="fill: none; stroke: #1f77b4; stroke-width: 1.5"/>
   </g>
   <g id="LineCollection_3">
    <path d="M 239.4 364.041247 
L 351 364.041247 
" clip-path="url(#p66638257bd)" style="fill: none; stroke: #1f77b4; stroke-width: 1.5"/>
   </g>
   <g id="LineCollection_4">
    <path d="M 295.2 364.041247 
L 295.2 66.706726 
" clip-path="url(#p66638257bd)" style="fill: none; stroke: #1f77b4; stroke-width: 1.5"/>
   </g>
   <g id="patch_3">
    <path d="M 250.56 337.196366 
L 339.84 337.196366 
L 339.84 330.450426 
L 250.56 330.450426 
L 250.56 337.196366 
z
" clip-path="url(#p66638257bd)" style="fill: #1f77b4; stroke: #000000; stroke-linejoin: miter"/>
   </g>
   <g id="line2d_11">
    <path d="M 295.2 337.196366 
L 295.2 344.533767 
" clip-path="url(#p66638257bd)" style="fill: none; stroke: #000000; stroke-linecap: square"/>
   </g>
   <g id="line2d_12">
    <path d="M 295.2 330.450426 
L 295.2 320.759226 
" clip-path="url(#p66638257bd)" style="fill: none; stroke: #000000; stroke-linecap: square"/>
   </g>
   <g id="line2d_13">
    <path d="M 272.88 344.533767 
L 317.52 344.533767 
" clip-path="url(#p66638257bd)" style="fill: none; stroke: #000000; stroke-linecap: square"/>
   </g>
   <g id="line2d_14">
    <path d="M 272.88 320.759226 
L 317.52 320.759226 
" clip-path="url(#p66638257bd)" style="fill: none; stroke: #000000; stroke-linecap: square"/>
   </g>
   <g id="line2d_15">
    <defs>
     <path id="m1d81ba8b08" d="M 0 3 
C 0.795609 3 1.55874 2.683901 2.12132 2.12132 
C 2.683901 1.55874 3 0.795609 3 0 
C 3 -0.795609 2.683901 -1.55874 2.12132 -2.12132 
C 1.55874 -2.683901 0.795609 -3 0 -3 
C -0.795609 -3 -1.55874 -2.683901 -2.12132 -2.12132 
C -2.683901 -1.55874 -3 -0.795609 -3 0 
C -3 0.795609 -2.683901 1.55874 -2.12132 2.12132 
C -1.55874 2.683901 -0.795609 3 0 3 
z
" style="stroke: #000000"/>
    </defs>
    <g clip-path="url(#p66638257bd)">
     <use xlink:href="#m1d81ba8b08" x="295.2" y="364.041247" style="fill-opacity: 0; stroke: #000000"/>
     <use xlink:href="#m1d81ba8b08" x="295.2" y="362.998302" style="fill-opacity: 0; stroke: #000000"/>
     <use xlink:href="#m1d81ba8b08" x="295.2" y="362.354975" style="fill-opacity: 0; stroke: #000000"/>
     <use xlink:href="#m1d81ba8b08" x="295.2" y="362.907181" style="fill-opacity: 0; stroke: #000000"/>
     <use xlink:href="#m1d81ba8b08" x="295.2" y="66.706726" style="fill-opacity: 0; stroke: #000000"/>
     <use xlink:href="#m1d81ba8b08" x="295.2" y="292.582098" style="fill-opacity: 0; stroke: #000000"/>
     <use xlink:href="#m1d81ba8b08" x="295.2" y="309.031059" style="fill-opacity: 0; stroke: #000000"/>
     <use xlink:href="#m1d81ba8b08" x="295.2" y="318.889622" style="fill-opacity: 0; stroke: #000000"/>
     <use xlink:href="#m1d81ba8b08" x="295.2" y="311.01106" style="fill-opacity: 0; stroke: #000000"/>
     <use xlink:href="#m1d81ba8b08" x="295.2" y="318.646914" style="fill-opacity: 0; stroke: #000000"/>
     <use xlink:href="#m1d81ba8b08" x="295.2" y="306.248888" style="fill-opacity: 0; stroke: #000000"/>
     <use xlink:href="#m1d81ba8b08" x="295.2" y="316.318723" style="fill-opacity: 0; stroke: #000000"/>
     <use xlink:href="#m1d81ba8b08" x="295.2" y="312.429451" style="fill-opacity: 0; stroke: #000000"/>
     <use xlink:href="#m1d81ba8b08" x="295.2" y="267.689349" style="fill-opacity: 0; stroke: #000000"/>
     <use xlink:href="#m1d81ba8b08" x="295.2" y="248.401619" style="fill-opacity: 0; stroke: #000000"/>
     <use xlink:href="#m1d81ba8b08" x="295.2" y="315.597206" style="fill-opacity: 0; stroke: #000000"/>
     <use xlink:href="#m1d81ba8b08" x="295.2" y="312.533293" style="fill-opacity: 0; stroke: #000000"/>
     <use xlink:href="#m1d81ba8b08" x="295.2" y="253.061257" style="fill-opacity: 0; stroke: #000000"/>
     <use xlink:href="#m1d81ba8b08" x="295.2" y="186.757674" style="fill-opacity: 0; stroke: #000000"/>
     <use xlink:href="#m1d81ba8b08" x="295.2" y="316.967786" style="fill-opacity: 0; stroke: #000000"/>
     <use xlink:href="#m1d81ba8b08" x="295.2" y="310.495337" style="fill-opacity: 0; stroke: #000000"/>
     <use xlink:href="#m1d81ba8b08" x="295.2" y="314.778054" style="fill-opacity: 0; stroke: #000000"/>
     <use xlink:href="#m1d81ba8b08" x="295.2" y="253.89593" style="fill-opacity: 0; stroke: #000000"/>
     <use xlink:href="#m1d81ba8b08" x="295.2" y="320.279732" style="fill-opacity: 0; stroke: #000000"/>
     <use xlink:href="#m1d81ba8b08" x="295.2" y="317.42712" style="fill-opacity: 0; stroke: #000000"/>
     <use xlink:href="#m1d81ba8b08" x="295.2" y="273.483543" style="fill-opacity: 0; stroke: #000000"/>
     <use xlink:href="#m1d81ba8b08" x="295.2" y="319.374417" style="fill-opacity: 0; stroke: #000000"/>
     <use xlink:href="#m1d81ba8b08" x="295.2" y="310.996196" style="fill-opacity: 0; stroke: #000000"/>
     <use xlink:href="#m1d81ba8b08" x="295.2" y="319.849432" style="fill-opacity: 0; stroke: #000000"/>
     <use xlink:href="#m1d81ba8b08" x="295.2" y="320.318719" style="fill-opacity: 0; stroke: #000000"/>
     <use xlink:href="#m1d81ba8b08" x="295.2" y="290.107602" style="fill-opacity: 0; stroke: #000000"/>
     <use xlink:href="#m1d81ba8b08" x="295.2" y="280.019976" style="fill-opacity: 0; stroke: #000000"/>
     <use xlink:href="#m1d81ba8b08" x="295.2" y="243.049108" style="fill-opacity: 0; stroke: #000000"/>
     <use xlink:href="#m1d81ba8b08" x="295.2" y="186.679804" style="fill-opacity: 0; stroke: #000000"/>
     <use xlink:href="#m1d81ba8b08" x="295.2" y="308.192694" style="fill-opacity: 0; stroke: #000000"/>
     <use xlink:href="#m1d81ba8b08" x="295.2" y="288.193029" style="fill-opacity: 0; stroke: #000000"/>
     <use xlink:href="#m1d81ba8b08" x="295.2" y="287.058942" style="fill-opacity: 0; stroke: #000000"/>
     <use xlink:href="#m1d81ba8b08" x="295.2" y="319.523163" style="fill-opacity: 0; stroke: #000000"/>
     <use xlink:href="#m1d81ba8b08" x="295.2" y="306.908043" style="fill-opacity: 0; stroke: #000000"/>
     <use xlink:href="#m1d81ba8b08" x="295.2" y="319.543181" style="fill-opacity: 0; stroke: #000000"/>
     <use xlink:href="#m1d81ba8b08" x="295.2" y="225.448388" style="fill-opacity: 0; stroke: #000000"/>
     <use xlink:href="#m1d81ba8b08" x="295.2" y="246.122514" style="fill-opacity: 0; stroke: #000000"/>
     <use xlink:href="#m1d81ba8b08" x="295.2" y="249.691934" style="fill-opacity: 0; stroke: #000000"/>
     <use xlink:href="#m1d81ba8b08" x="295.2" y="317.606501" style="fill-opacity: 0; stroke: #000000"/>
     <use xlink:href="#m1d81ba8b08" x="295.2" y="292.248801" style="fill-opacity: 0; stroke: #000000"/>
     <use xlink:href="#m1d81ba8b08" x="295.2" y="314.255949" style="fill-opacity: 0; stroke: #000000"/>
     <use xlink:href="#m1d81ba8b08" x="295.2" y="310.211688" style="fill-opacity: 0; stroke: #000000"/>
     <use xlink:href="#m1d81ba8b08" x="295.2" y="320.191265" style="fill-opacity: 0; stroke: #000000"/>
     <use xlink:href="#m1d81ba8b08" x="295.2" y="303.496859" style="fill-opacity: 0; stroke: #000000"/>
     <use xlink:href="#m1d81ba8b08" x="295.2" y="316.092899" style="fill-opacity: 0; stroke: #000000"/>
     <use xlink:href="#m1d81ba8b08" x="295.2" y="319.251604" style="fill-opacity: 0; stroke: #000000"/>
     <use xlink:href="#m1d81ba8b08" x="295.2" y="316.857083" style="fill-opacity: 0; stroke: #000000"/>
     <use xlink:href="#m1d81ba8b08" x="295.2" y="313.808129" style="fill-opacity: 0; stroke: #000000"/>
     <use xlink:href="#m1d81ba8b08" x="295.2" y="292.902121" style="fill-opacity: 0; stroke: #000000"/>
     <use xlink:href="#m1d81ba8b08" x="295.2" y="305.990176" style="fill-opacity: 0; stroke: #000000"/>
     <use xlink:href="#m1d81ba8b08" x="295.2" y="285.199812" style="fill-opacity: 0; stroke: #000000"/>
     <use xlink:href="#m1d81ba8b08" x="295.2" y="160.513907" style="fill-opacity: 0; stroke: #000000"/>
     <use xlink:href="#m1d81ba8b08" x="295.2" y="211.019144" style="fill-opacity: 0; stroke: #000000"/>
     <use xlink:href="#m1d81ba8b08" x="295.2" y="319.806191" style="fill-opacity: 0; stroke: #000000"/>
     <use xlink:href="#m1d81ba8b08" x="295.2" y="267.379205" style="fill-opacity: 0; stroke: #000000"/>
     <use xlink:href="#m1d81ba8b08" x="295.2" y="296.324162" style="fill-opacity: 0; stroke: #000000"/>
     <use xlink:href="#m1d81ba8b08" x="295.2" y="320.048261" style="fill-opacity: 0; stroke: #000000"/>
     <use xlink:href="#m1d81ba8b08" x="295.2" y="218.870218" style="fill-opacity: 0; stroke: #000000"/>
     <use xlink:href="#m1d81ba8b08" x="295.2" y="232.610055" style="fill-opacity: 0; stroke: #000000"/>
     <use xlink:href="#m1d81ba8b08" x="295.2" y="214.500862" style="fill-opacity: 0; stroke: #000000"/>
     <use xlink:href="#m1d81ba8b08" x="295.2" y="317.876617" style="fill-opacity: 0; stroke: #000000"/>
     <use xlink:href="#m1d81ba8b08" x="295.2" y="288.628209" style="fill-opacity: 0; stroke: #000000"/>
     <use xlink:href="#m1d81ba8b08" x="295.2" y="314.123405" style="fill-opacity: 0; stroke: #000000"/>
    </g>
   </g>
   <g id="line2d_16">
    <path d="M 250.56 334.337927 
L 339.84 334.337927 
" clip-path="url(#p66638257bd)" style="fill: none; stroke: #ff7f0e"/>
   </g>
   <g id="patch_4">
    <path d="M 72 384.48 
L 72 51.84 
" style="fill: none; stroke: #000000; stroke-width: 0.8; stroke-linejoin: miter; stroke-linecap: square"/>
   </g>
   <g id="patch_5">
    <path d="M 518.4 384.48 
L 518.4 51.84 
" style="fill: none; stroke: #000000; stroke-width: 0.8; stroke-linejoin: miter; stroke-linecap: square"/>
   </g>
   <g id="patch_6">
    <path d="M 72 384.48 
L 518.4 384.48 
" style="fill: none; stroke: #000000; stroke-width: 0.8; stroke-linejoin: miter; stroke-linecap: square"/>
   </g>
   <g id="patch_7">
    <path d="M 72 51.84 
L 518.4 51.84 
" style="fill: none; stroke: #000000; stroke-width: 0.8; stroke-linejoin: miter; stroke-linecap: square"/>
   </g>
   <g id="text_12">
    <!-- Test Method -->
    <g transform="translate(258.975 45.84) scale(0.12 -0.12)">
     <defs>
      <path id="DejaVuSans-74" d="M 1172 4494 
L 1172 3500 
L 2356 3500 
L 2356 3053 
L 1172 3053 
L 1172 1153 
Q 1172 725 1289 603 
Q 1406 481 1766 481 
L 2356 481 
L 2356 0 
L 1766 0 
Q 1100 0 847 248 
Q 594 497 594 1153 
L 594 3053 
L 172 3053 
L 172 3500 
L 594 3500 
L 594 4494 
L 1172 4494 
z
" transform="scale(0.015625)"/>
      <path id="DejaVuSans-4d" d="M 628 4666 
L 1569 4666 
L 2759 1491 
L 3956 4666 
L 4897 4666 
L 4897 0 
L 4281 0 
L 4281 4097 
L 3078 897 
L 2444 897 
L 1241 4097 
L 1241 0 
L 628 0 
L 628 4666 
z
" transform="scale(0.015625)"/>
      <path id="DejaVuSans-68" d="M 3513 2113 
L 3513 0 
L 2938 0 
L 2938 2094 
Q 2938 2591 2744 2837 
Q 2550 3084 2163 3084 
Q 1697 3084 1428 2787 
Q 1159 2491 1159 1978 
L 1159 0 
L 581 0 
L 581 4863 
L 1159 4863 
L 1159 2956 
Q 1366 3272 1645 3428 
Q 1925 3584 2291 3584 
Q 2894 3584 3203 3211 
Q 3513 2838 3513 2113 
z
" transform="scale(0.015625)"/>
      <path id="DejaVuSans-6f" d="M 1959 3097 
Q 1497 3097 1228 2736 
Q 959 2375 959 1747 
Q 959 1119 1226 758 
Q 1494 397 1959 397 
Q 2419 397 2687 759 
Q 2956 1122 2956 1747 
Q 2956 2369 2687 2733 
Q 2419 3097 1959 3097 
z
M 1959 3584 
Q 2709 3584 3137 3096 
Q 3566 2609 3566 1747 
Q 3566 888 3137 398 
Q 2709 -91 1959 -91 
Q 1206 -91 779 398 
Q 353 888 353 1747 
Q 353 2609 779 3096 
Q 1206 3584 1959 3584 
z
" transform="scale(0.015625)"/>
      <path id="DejaVuSans-64" d="M 2906 2969 
L 2906 4863 
L 3481 4863 
L 3481 0 
L 2906 0 
L 2906 525 
Q 2725 213 2448 61 
Q 2172 -91 1784 -91 
Q 1150 -91 751 415 
Q 353 922 353 1747 
Q 353 2572 751 3078 
Q 1150 3584 1784 3584 
Q 2172 3584 2448 3432 
Q 2725 3281 2906 2969 
z
M 947 1747 
Q 947 1113 1208 752 
Q 1469 391 1925 391 
Q 2381 391 2643 752 
Q 2906 1113 2906 1747 
Q 2906 2381 2643 2742 
Q 2381 3103 1925 3103 
Q 1469 3103 1208 2742 
Q 947 2381 947 1747 
z
" transform="scale(0.015625)"/>
     </defs>
     <use xlink:href="#DejaVuSans-54"/>
     <use xlink:href="#DejaVuSans-65" transform="translate(44.083984 0)"/>
     <use xlink:href="#DejaVuSans-73" transform="translate(105.607422 0)"/>
     <use xlink:href="#DejaVuSans-74" transform="translate(157.707031 0)"/>
     <use xlink:href="#DejaVuSans-20" transform="translate(196.916016 0)"/>
     <use xlink:href="#DejaVuSans-4d" transform="translate(228.703125 0)"/>
     <use xlink:href="#DejaVuSans-65" transform="translate(314.982422 0)"/>
     <use xlink:href="#DejaVuSans-74" transform="translate(376.505859 0)"/>
     <use xlink:href="#DejaVuSans-68" transform="translate(415.714844 0)"/>
     <use xlink:href="#DejaVuSans-6f" transform="translate(479.09375 0)"/>
     <use xlink:href="#DejaVuSans-64" transform="translate(540.275391 0)"/>
    </g>
   </g>
  </g>
 </g>
 <defs>
  <clipPath id="p66638257bd">
   <rect x="72" y="51.84" width="446.4" height="332.64"/>
  </clipPath>
 </defs>
</svg>
