<?xml version="1.0" encoding="utf-8" standalone="no"?>
<!DOCTYPE svg PUBLIC "-//W3C//DTD SVG 1.1//EN"
  "http://www.w3.org/Graphics/SVG/1.1/DTD/svg11.dtd">
<svg xmlns:xlink="http://www.w3.org/1999/xlink" width="720pt" height="432pt" viewBox="0 0 720 432" xmlns="http://www.w3.org/2000/svg" version="1.1">
 <metadata>
  <rdf:RDF xmlns:dc="http://purl.org/dc/elements/1.1/" xmlns:cc="http://creativecommons.org/ns#" xmlns:rdf="http://www.w3.org/1999/02/22-rdf-syntax-ns#">
   <cc:Work>
    <dc:type rdf:resource="http://purl.org/dc/dcmitype/StillImage"/>
    <dc:date>2025-09-30T20:43:05.226877</dc:date>
    <dc:format>image/svg+xml</dc:format>
    <dc:creator>
     <cc:Agent>
      <dc:title>Matplotlib v3.10.3, https://matplotlib.org/</dc:title>
     </cc:Agent>
    </dc:creator>
   </cc:Work>
  </rdf:RDF>
 </metadata>
 <defs>
  <style type="text/css">*{stroke-linejoin: round; stroke-linecap: butt}</style>
 </defs>
 <g id="figure_1">
  <g id="patch_1">
   <path d="M 0 432 
L 720 432 
L 720 0 
L 0 0 
z
" style="fill: #ffffff"/>
  </g>
  <g id="axes_1">
   <g id="patch_2">
    <path d="M 90 384.48 
L 648 384.48 
L 648 51.84 
L 90 51.84 
z
" style="fill: #ffffff"/>
   </g>
   <g id="matplotlib.axis_1">
    <g id="xtick_1">
     <g id="line2d_1">
      <defs>
       <path id="m5f527c42c9" d="M 0 0 
L 0 3.5 
" style="stroke: #000000; stroke-width: 0.8"/>
      </defs>
      <g>
       <use xlink:href="#m5f527c42c9" x="115.363636" y="384.48" style="stroke: #000000; stroke-width: 0.8"/>
      </g>
     </g>
     <g id="text_1">
      <!-- 0 -->
      <g transform="translate(112.182386 399.078438) scale(0.1 -0.1)">
       <defs>
        <path id="DejaVuSans-30" d="M 2034 4250 
Q 1547 4250 1301 3770 
Q 1056 3291 1056 2328 
Q 1056 1369 1301 889 
Q 1547 409 2034 409 
Q 2525 409 2770 889 
Q 3016 1369 3016 2328 
Q 3016 3291 2770 3770 
Q 2525 4250 2034 4250 
z
M 2034 4750 
Q 2819 4750 3233 4129 
Q 3647 3509 3647 2328 
Q 3647 1150 3233 529 
Q 2819 -91 2034 -91 
Q 1250 -91 836 529 
Q 422 1150 422 2328 
Q 422 3509 836 4129 
Q 1250 4750 2034 4750 
z
" transform="scale(0.015625)"/>
       </defs>
       <use xlink:href="#DejaVuSans-30"/>
      </g>
     </g>
    </g>
    <g id="xtick_2">
     <g id="line2d_2">
      <g>
       <use xlink:href="#m5f527c42c9" x="185.916171" y="384.48" style="stroke: #000000; stroke-width: 0.8"/>
      </g>
     </g>
     <g id="text_2">
      <!-- 200 -->
      <g transform="translate(176.372421 399.078438) scale(0.1 -0.1)">
       <defs>
        <path id="DejaVuSans-32" d="M 1228 531 
L 3431 531 
L 3431 0 
L 469 0 
L 469 531 
Q 828 903 1448 1529 
Q 2069 2156 2228 2338 
Q 2531 2678 2651 2914 
Q 2772 3150 2772 3378 
Q 2772 3750 2511 3984 
Q 2250 4219 1831 4219 
Q 1534 4219 1204 4116 
Q 875 4013 500 3803 
L 500 4441 
Q 881 4594 1212 4672 
Q 1544 4750 1819 4750 
Q 2544 4750 2975 4387 
Q 3406 4025 3406 3419 
Q 3406 3131 3298 2873 
Q 3191 2616 2906 2266 
Q 2828 2175 2409 1742 
Q 1991 1309 1228 531 
z
" transform="scale(0.015625)"/>
       </defs>
       <use xlink:href="#DejaVuSans-32"/>
       <use xlink:href="#DejaVuSans-30" transform="translate(63.623047 0)"/>
       <use xlink:href="#DejaVuSans-30" transform="translate(127.246094 0)"/>
      </g>
     </g>
    </g>
    <g id="xtick_3">
     <g id="line2d_3">
      <g>
       <use xlink:href="#m5f527c42c9" x="256.468707" y="384.48" style="stroke: #000000; stroke-width: 0.8"/>
      </g>
     </g>
     <g id="text_3">
      <!-- 400 -->
      <g transform="translate(246.924957 399.078438) scale(0.1 -0.1)">
       <defs>
        <path id="DejaVuSans-34" d="M 2419 4116 
L 825 1625 
L 2419 1625 
L 2419 4116 
z
M 2253 4666 
L 3047 4666 
L 3047 1625 
L 3713 1625 
L 3713 1100 
L 3047 1100 
L 3047 0 
L 2419 0 
L 2419 1100 
L 313 1100 
L 313 1709 
L 2253 4666 
z
" transform="scale(0.015625)"/>
       </defs>
       <use xlink:href="#DejaVuSans-34"/>
       <use xlink:href="#DejaVuSans-30" transform="translate(63.623047 0)"/>
       <use xlink:href="#DejaVuSans-30" transform="translate(127.246094 0)"/>
      </g>
     </g>
    </g>
    <g id="xtick_4">
     <g id="line2d_4">
      <g>
       <use xlink:href="#m5f527c42c9" x="327.021242" y="384.48" style="stroke: #000000; stroke-width: 0.8"/>
      </g>
     </g>
     <g id="text_4">
      <!-- 600 -->
      <g transform="translate(317.477492 399.078438) scale(0.1 -0.1)">
       <defs>
        <path id="DejaVuSans-36" d="M 2113 2584 
Q 1688 2584 1439 2293 
Q 1191 2003 1191 1497 
Q 1191 994 1439 701 
Q 1688 409 2113 409 
Q 2538 409 2786 701 
Q 3034 994 3034 1497 
Q 3034 2003 2786 2293 
Q 2538 2584 2113 2584 
z
M 3366 4563 
L 3366 3988 
Q 3128 4100 2886 4159 
Q 2644 4219 2406 4219 
Q 1781 4219 1451 3797 
Q 1122 3375 1075 2522 
Q 1259 2794 1537 2939 
Q 1816 3084 2150 3084 
Q 2853 3084 3261 2657 
Q 3669 2231 3669 1497 
Q 3669 778 3244 343 
Q 2819 -91 2113 -91 
Q 1303 -91 875 529 
Q 447 1150 447 2328 
Q 447 3434 972 4092 
Q 1497 4750 2381 4750 
Q 2619 4750 2861 4703 
Q 3103 4656 3366 4563 
z
" transform="scale(0.015625)"/>
       </defs>
       <use xlink:href="#DejaVuSans-36"/>
       <use xlink:href="#DejaVuSans-30" transform="translate(63.623047 0)"/>
       <use xlink:href="#DejaVuSans-30" transform="translate(127.246094 0)"/>
      </g>
     </g>
    </g>
    <g id="xtick_5">
     <g id="line2d_5">
      <g>
       <use xlink:href="#m5f527c42c9" x="397.573777" y="384.48" style="stroke: #000000; stroke-width: 0.8"/>
      </g>
     </g>
     <g id="text_5">
      <!-- 800 -->
      <g transform="translate(388.030027 399.078438) scale(0.1 -0.1)">
       <defs>
        <path id="DejaVuSans-38" d="M 2034 2216 
Q 1584 2216 1326 1975 
Q 1069 1734 1069 1313 
Q 1069 891 1326 650 
Q 1584 409 2034 409 
Q 2484 409 2743 651 
Q 3003 894 3003 1313 
Q 3003 1734 2745 1975 
Q 2488 2216 2034 2216 
z
M 1403 2484 
Q 997 2584 770 2862 
Q 544 3141 544 3541 
Q 544 4100 942 4425 
Q 1341 4750 2034 4750 
Q 2731 4750 3128 4425 
Q 3525 4100 3525 3541 
Q 3525 3141 3298 2862 
Q 3072 2584 2669 2484 
Q 3125 2378 3379 2068 
Q 3634 1759 3634 1313 
Q 3634 634 3220 271 
Q 2806 -91 2034 -91 
Q 1263 -91 848 271 
Q 434 634 434 1313 
Q 434 1759 690 2068 
Q 947 2378 1403 2484 
z
M 1172 3481 
Q 1172 3119 1398 2916 
Q 1625 2713 2034 2713 
Q 2441 2713 2670 2916 
Q 2900 3119 2900 3481 
Q 2900 3844 2670 4047 
Q 2441 4250 2034 4250 
Q 1625 4250 1398 4047 
Q 1172 3844 1172 3481 
z
" transform="scale(0.015625)"/>
       </defs>
       <use xlink:href="#DejaVuSans-38"/>
       <use xlink:href="#DejaVuSans-30" transform="translate(63.623047 0)"/>
       <use xlink:href="#DejaVuSans-30" transform="translate(127.246094 0)"/>
      </g>
     </g>
    </g>
    <g id="xtick_6">
     <g id="line2d_6">
      <g>
       <use xlink:href="#m5f527c42c9" x="468.126312" y="384.48" style="stroke: #000000; stroke-width: 0.8"/>
      </g>
     </g>
     <g id="text_6">
      <!-- 1000 -->
      <g transform="translate(455.401312 399.078438) scale(0.1 -0.1)">
       <defs>
        <path id="DejaVuSans-31" d="M 794 531 
L 1825 531 
L 1825 4091 
L 703 3866 
L 703 4441 
L 1819 4666 
L 2450 4666 
L 2450 531 
L 3481 531 
L 3481 0 
L 794 0 
L 794 531 
z
" transform="scale(0.015625)"/>
       </defs>
       <use xlink:href="#DejaVuSans-31"/>
       <use xlink:href="#DejaVuSans-30" transform="translate(63.623047 0)"/>
       <use xlink:href="#DejaVuSans-30" transform="translate(127.246094 0)"/>
       <use xlink:href="#DejaVuSans-30" transform="translate(190.869141 0)"/>
      </g>
     </g>
    </g>
    <g id="xtick_7">
     <g id="line2d_7">
      <g>
       <use xlink:href="#m5f527c42c9" x="538.678847" y="384.48" style="stroke: #000000; stroke-width: 0.8"/>
      </g>
     </g>
     <g id="text_7">
      <!-- 1200 -->
      <g transform="translate(525.953847 399.078438) scale(0.1 -0.1)">
       <use xlink:href="#DejaVuSans-31"/>
       <use xlink:href="#DejaVuSans-32" transform="translate(63.623047 0)"/>
       <use xlink:href="#DejaVuSans-30" transform="translate(127.246094 0)"/>
       <use xlink:href="#DejaVuSans-30" transform="translate(190.869141 0)"/>
      </g>
     </g>
    </g>
    <g id="xtick_8">
     <g id="line2d_8">
      <g>
       <use xlink:href="#m5f527c42c9" x="609.231382" y="384.48" style="stroke: #000000; stroke-width: 0.8"/>
      </g>
     </g>
     <g id="text_8">
      <!-- 1400 -->
      <g transform="translate(596.506382 399.078438) scale(0.1 -0.1)">
       <use xlink:href="#DejaVuSans-31"/>
       <use xlink:href="#DejaVuSans-34" transform="translate(63.623047 0)"/>
       <use xlink:href="#DejaVuSans-30" transform="translate(127.246094 0)"/>
       <use xlink:href="#DejaVuSans-30" transform="translate(190.869141 0)"/>
      </g>
     </g>
    </g>
    <g id="text_9">
     <!-- Index -->
     <g transform="translate(355.233594 412.756563) scale(0.1 -0.1)">
      <defs>
       <path id="DejaVuSans-49" d="M 628 4666 
L 1259 4666 
L 1259 0 
L 628 0 
L 628 4666 
z
" transform="scale(0.015625)"/>
       <path id="DejaVuSans-6e" d="M 3513 2113 
L 3513 0 
L 2938 0 
L 2938 2094 
Q 2938 2591 2744 2837 
Q 2550 3084 2163 3084 
Q 1697 3084 1428 2787 
Q 1159 2491 1159 1978 
L 1159 0 
L 581 0 
L 581 3500 
L 1159 3500 
L 1159 2956 
Q 1366 3272 1645 3428 
Q 1925 3584 2291 3584 
Q 2894 3584 3203 3211 
Q 3513 2838 3513 2113 
z
" transform="scale(0.015625)"/>
       <path id="DejaVuSans-64" d="M 2906 2969 
L 2906 4863 
L 3481 4863 
L 3481 0 
L 2906 0 
L 2906 525 
Q 2725 213 2448 61 
Q 2172 -91 1784 -91 
Q 1150 -91 751 415 
Q 353 922 353 1747 
Q 353 2572 751 3078 
Q 1150 3584 1784 3584 
Q 2172 3584 2448 3432 
Q 2725 3281 2906 2969 
z
M 947 1747 
Q 947 1113 1208 752 
Q 1469 391 1925 391 
Q 2381 391 2643 752 
Q 2906 1113 2906 1747 
Q 2906 2381 2643 2742 
Q 2381 3103 1925 3103 
Q 1469 3103 1208 2742 
Q 947 2381 947 1747 
z
" transform="scale(0.015625)"/>
       <path id="DejaVuSans-65" d="M 3597 1894 
L 3597 1613 
L 953 1613 
Q 991 1019 1311 708 
Q 1631 397 2203 397 
Q 2534 397 2845 478 
Q 3156 559 3463 722 
L 3463 178 
Q 3153 47 2828 -22 
Q 2503 -91 2169 -91 
Q 1331 -91 842 396 
Q 353 884 353 1716 
Q 353 2575 817 3079 
Q 1281 3584 2069 3584 
Q 2775 3584 3186 3129 
Q 3597 2675 3597 1894 
z
M 3022 2063 
Q 3016 2534 2758 2815 
Q 2500 3097 2075 3097 
Q 1594 3097 1305 2825 
Q 1016 2553 972 2059 
L 3022 2063 
z
" transform="scale(0.015625)"/>
       <path id="DejaVuSans-78" d="M 3513 3500 
L 2247 1797 
L 3578 0 
L 2900 0 
L 1881 1375 
L 863 0 
L 184 0 
L 1544 1831 
L 300 3500 
L 978 3500 
L 1906 2253 
L 2834 3500 
L 3513 3500 
z
" transform="scale(0.015625)"/>
      </defs>
      <use xlink:href="#DejaVuSans-49"/>
      <use xlink:href="#DejaVuSans-6e" transform="translate(29.492188 0)"/>
      <use xlink:href="#DejaVuSans-64" transform="translate(92.871094 0)"/>
      <use xlink:href="#DejaVuSans-65" transform="translate(156.347656 0)"/>
      <use xlink:href="#DejaVuSans-78" transform="translate(216.121094 0)"/>
     </g>
    </g>
   </g>
   <g id="matplotlib.axis_2">
    <g id="ytick_1">
     <g id="line2d_9">
      <defs>
       <path id="m1189d16c1e" d="M 0 0 
L -3.5 0 
" style="stroke: #000000; stroke-width: 0.8"/>
      </defs>
      <g>
       <use xlink:href="#m1189d16c1e" x="90" y="384.48" style="stroke: #000000; stroke-width: 0.8"/>
      </g>
     </g>
     <g id="text_10">
      <!-- 0.0 -->
      <g transform="translate(67.096875 388.279219) scale(0.1 -0.1)">
       <defs>
        <path id="DejaVuSans-2e" d="M 684 794 
L 1344 794 
L 1344 0 
L 684 0 
L 684 794 
z
" transform="scale(0.015625)"/>
       </defs>
       <use xlink:href="#DejaVuSans-30"/>
       <use xlink:href="#DejaVuSans-2e" transform="translate(63.623047 0)"/>
       <use xlink:href="#DejaVuSans-30" transform="translate(95.410156 0)"/>
      </g>
     </g>
    </g>
    <g id="ytick_2">
     <g id="line2d_10">
      <g>
       <use xlink:href="#m1189d16c1e" x="90" y="324.0063" style="stroke: #000000; stroke-width: 0.8"/>
      </g>
     </g>
     <g id="text_11">
      <!-- 0.2 -->
      <g transform="translate(67.096875 327.805518) scale(0.1 -0.1)">
       <use xlink:href="#DejaVuSans-30"/>
       <use xlink:href="#DejaVuSans-2e" transform="translate(63.623047 0)"/>
       <use xlink:href="#DejaVuSans-32" transform="translate(95.410156 0)"/>
      </g>
     </g>
    </g>
    <g id="ytick_3">
     <g id="line2d_11">
      <g>
       <use xlink:href="#m1189d16c1e" x="90" y="263.532599" style="stroke: #000000; stroke-width: 0.8"/>
      </g>
     </g>
     <g id="text_12">
      <!-- 0.4 -->
      <g transform="translate(67.096875 267.331818) scale(0.1 -0.1)">
       <use xlink:href="#DejaVuSans-30"/>
       <use xlink:href="#DejaVuSans-2e" transform="translate(63.623047 0)"/>
       <use xlink:href="#DejaVuSans-34" transform="translate(95.410156 0)"/>
      </g>
     </g>
    </g>
    <g id="ytick_4">
     <g id="line2d_12">
      <g>
       <use xlink:href="#m1189d16c1e" x="90" y="203.058899" style="stroke: #000000; stroke-width: 0.8"/>
      </g>
     </g>
     <g id="text_13">
      <!-- 0.6 -->
      <g transform="translate(67.096875 206.858118) scale(0.1 -0.1)">
       <use xlink:href="#DejaVuSans-30"/>
       <use xlink:href="#DejaVuSans-2e" transform="translate(63.623047 0)"/>
       <use xlink:href="#DejaVuSans-36" transform="translate(95.410156 0)"/>
      </g>
     </g>
    </g>
    <g id="ytick_5">
     <g id="line2d_13">
      <g>
       <use xlink:href="#m1189d16c1e" x="90" y="142.585199" style="stroke: #000000; stroke-width: 0.8"/>
      </g>
     </g>
     <g id="text_14">
      <!-- 0.8 -->
      <g transform="translate(67.096875 146.384418) scale(0.1 -0.1)">
       <use xlink:href="#DejaVuSans-30"/>
       <use xlink:href="#DejaVuSans-2e" transform="translate(63.623047 0)"/>
       <use xlink:href="#DejaVuSans-38" transform="translate(95.410156 0)"/>
      </g>
     </g>
    </g>
    <g id="ytick_6">
     <g id="line2d_14">
      <g>
       <use xlink:href="#m1189d16c1e" x="90" y="82.111499" style="stroke: #000000; stroke-width: 0.8"/>
      </g>
     </g>
     <g id="text_15">
      <!-- 1.0 -->
      <g transform="translate(67.096875 85.910717) scale(0.1 -0.1)">
       <use xlink:href="#DejaVuSans-31"/>
       <use xlink:href="#DejaVuSans-2e" transform="translate(63.623047 0)"/>
       <use xlink:href="#DejaVuSans-30" transform="translate(95.410156 0)"/>
      </g>
     </g>
    </g>
    <g id="text_16">
     <!-- Average time (ms) -->
     <g transform="translate(61.017187 264.543594) rotate(-90) scale(0.1 -0.1)">
      <defs>
       <path id="DejaVuSans-41" d="M 2188 4044 
L 1331 1722 
L 3047 1722 
L 2188 4044 
z
M 1831 4666 
L 2547 4666 
L 4325 0 
L 3669 0 
L 3244 1197 
L 1141 1197 
L 716 0 
L 50 0 
L 1831 4666 
z
" transform="scale(0.015625)"/>
       <path id="DejaVuSans-76" d="M 191 3500 
L 800 3500 
L 1894 563 
L 2988 3500 
L 3597 3500 
L 2284 0 
L 1503 0 
L 191 3500 
z
" transform="scale(0.015625)"/>
       <path id="DejaVuSans-72" d="M 2631 2963 
Q 2534 3019 2420 3045 
Q 2306 3072 2169 3072 
Q 1681 3072 1420 2755 
Q 1159 2438 1159 1844 
L 1159 0 
L 581 0 
L 581 3500 
L 1159 3500 
L 1159 2956 
Q 1341 3275 1631 3429 
Q 1922 3584 2338 3584 
Q 2397 3584 2469 3576 
Q 2541 3569 2628 3553 
L 2631 2963 
z
" transform="scale(0.015625)"/>
       <path id="DejaVuSans-61" d="M 2194 1759 
Q 1497 1759 1228 1600 
Q 959 1441 959 1056 
Q 959 750 1161 570 
Q 1363 391 1709 391 
Q 2188 391 2477 730 
Q 2766 1069 2766 1631 
L 2766 1759 
L 2194 1759 
z
M 3341 1997 
L 3341 0 
L 2766 0 
L 2766 531 
Q 2569 213 2275 61 
Q 1981 -91 1556 -91 
Q 1019 -91 701 211 
Q 384 513 384 1019 
Q 384 1609 779 1909 
Q 1175 2209 1959 2209 
L 2766 2209 
L 2766 2266 
Q 2766 2663 2505 2880 
Q 2244 3097 1772 3097 
Q 1472 3097 1187 3025 
Q 903 2953 641 2809 
L 641 3341 
Q 956 3463 1253 3523 
Q 1550 3584 1831 3584 
Q 2591 3584 2966 3190 
Q 3341 2797 3341 1997 
z
" transform="scale(0.015625)"/>
       <path id="DejaVuSans-67" d="M 2906 1791 
Q 2906 2416 2648 2759 
Q 2391 3103 1925 3103 
Q 1463 3103 1205 2759 
Q 947 2416 947 1791 
Q 947 1169 1205 825 
Q 1463 481 1925 481 
Q 2391 481 2648 825 
Q 2906 1169 2906 1791 
z
M 3481 434 
Q 3481 -459 3084 -895 
Q 2688 -1331 1869 -1331 
Q 1566 -1331 1297 -1286 
Q 1028 -1241 775 -1147 
L 775 -588 
Q 1028 -725 1275 -790 
Q 1522 -856 1778 -856 
Q 2344 -856 2625 -561 
Q 2906 -266 2906 331 
L 2906 616 
Q 2728 306 2450 153 
Q 2172 0 1784 0 
Q 1141 0 747 490 
Q 353 981 353 1791 
Q 353 2603 747 3093 
Q 1141 3584 1784 3584 
Q 2172 3584 2450 3431 
Q 2728 3278 2906 2969 
L 2906 3500 
L 3481 3500 
L 3481 434 
z
" transform="scale(0.015625)"/>
       <path id="DejaVuSans-20" transform="scale(0.015625)"/>
       <path id="DejaVuSans-74" d="M 1172 4494 
L 1172 3500 
L 2356 3500 
L 2356 3053 
L 1172 3053 
L 1172 1153 
Q 1172 725 1289 603 
Q 1406 481 1766 481 
L 2356 481 
L 2356 0 
L 1766 0 
Q 1100 0 847 248 
Q 594 497 594 1153 
L 594 3053 
L 172 3053 
L 172 3500 
L 594 3500 
L 594 4494 
L 1172 4494 
z
" transform="scale(0.015625)"/>
       <path id="DejaVuSans-69" d="M 603 3500 
L 1178 3500 
L 1178 0 
L 603 0 
L 603 3500 
z
M 603 4863 
L 1178 4863 
L 1178 4134 
L 603 4134 
L 603 4863 
z
" transform="scale(0.015625)"/>
       <path id="DejaVuSans-6d" d="M 3328 2828 
Q 3544 3216 3844 3400 
Q 4144 3584 4550 3584 
Q 5097 3584 5394 3201 
Q 5691 2819 5691 2113 
L 5691 0 
L 5113 0 
L 5113 2094 
Q 5113 2597 4934 2840 
Q 4756 3084 4391 3084 
Q 3944 3084 3684 2787 
Q 3425 2491 3425 1978 
L 3425 0 
L 2847 0 
L 2847 2094 
Q 2847 2600 2669 2842 
Q 2491 3084 2119 3084 
Q 1678 3084 1418 2786 
Q 1159 2488 1159 1978 
L 1159 0 
L 581 0 
L 581 3500 
L 1159 3500 
L 1159 2956 
Q 1356 3278 1631 3431 
Q 1906 3584 2284 3584 
Q 2666 3584 2933 3390 
Q 3200 3197 3328 2828 
z
" transform="scale(0.015625)"/>
       <path id="DejaVuSans-28" d="M 1984 4856 
Q 1566 4138 1362 3434 
Q 1159 2731 1159 2009 
Q 1159 1288 1364 580 
Q 1569 -128 1984 -844 
L 1484 -844 
Q 1016 -109 783 600 
Q 550 1309 550 2009 
Q 550 2706 781 3412 
Q 1013 4119 1484 4856 
L 1984 4856 
z
" transform="scale(0.015625)"/>
       <path id="DejaVuSans-73" d="M 2834 3397 
L 2834 2853 
Q 2591 2978 2328 3040 
Q 2066 3103 1784 3103 
Q 1356 3103 1142 2972 
Q 928 2841 928 2578 
Q 928 2378 1081 2264 
Q 1234 2150 1697 2047 
L 1894 2003 
Q 2506 1872 2764 1633 
Q 3022 1394 3022 966 
Q 3022 478 2636 193 
Q 2250 -91 1575 -91 
Q 1294 -91 989 -36 
Q 684 19 347 128 
L 347 722 
Q 666 556 975 473 
Q 1284 391 1588 391 
Q 1994 391 2212 530 
Q 2431 669 2431 922 
Q 2431 1156 2273 1281 
Q 2116 1406 1581 1522 
L 1381 1569 
Q 847 1681 609 1914 
Q 372 2147 372 2553 
Q 372 3047 722 3315 
Q 1072 3584 1716 3584 
Q 2034 3584 2315 3537 
Q 2597 3491 2834 3397 
z
" transform="scale(0.015625)"/>
       <path id="DejaVuSans-29" d="M 513 4856 
L 1013 4856 
Q 1481 4119 1714 3412 
Q 1947 2706 1947 2009 
Q 1947 1309 1714 600 
Q 1481 -109 1013 -844 
L 513 -844 
Q 928 -128 1133 580 
Q 1338 1288 1338 2009 
Q 1338 2731 1133 3434 
Q 928 4138 513 4856 
z
" transform="scale(0.015625)"/>
      </defs>
      <use xlink:href="#DejaVuSans-41"/>
      <use xlink:href="#DejaVuSans-76" transform="translate(62.533203 0)"/>
      <use xlink:href="#DejaVuSans-65" transform="translate(121.712891 0)"/>
      <use xlink:href="#DejaVuSans-72" transform="translate(183.236328 0)"/>
      <use xlink:href="#DejaVuSans-61" transform="translate(224.349609 0)"/>
      <use xlink:href="#DejaVuSans-67" transform="translate(285.628906 0)"/>
      <use xlink:href="#DejaVuSans-65" transform="translate(349.105469 0)"/>
      <use xlink:href="#DejaVuSans-20" transform="translate(410.628906 0)"/>
      <use xlink:href="#DejaVuSans-74" transform="translate(442.416016 0)"/>
      <use xlink:href="#DejaVuSans-69" transform="translate(481.625 0)"/>
      <use xlink:href="#DejaVuSans-6d" transform="translate(509.408203 0)"/>
      <use xlink:href="#DejaVuSans-65" transform="translate(606.820312 0)"/>
      <use xlink:href="#DejaVuSans-20" transform="translate(668.34375 0)"/>
      <use xlink:href="#DejaVuSans-28" transform="translate(700.130859 0)"/>
      <use xlink:href="#DejaVuSans-6d" transform="translate(739.144531 0)"/>
      <use xlink:href="#DejaVuSans-73" transform="translate(836.556641 0)"/>
      <use xlink:href="#DejaVuSans-29" transform="translate(888.65625 0)"/>
     </g>
    </g>
   </g>
   <g id="line2d_15">
    <path d="M 115.363636 67.154689 
L 115.716399 239.979726 
L 116.069162 140.008324 
L 116.421924 193.385345 
L 116.774687 105.126761 
L 117.12745 199.155654 
L 117.832975 231.022241 
L 118.185738 228.798834 
L 118.5385 157.679434 
L 118.891263 114.331372 
L 119.244026 268.727653 
L 119.596788 115.318575 
L 119.949551 216.122398 
L 120.302314 181.405142 
L 120.655076 263.467288 
L 121.007839 165.552959 
L 121.360602 264.886696 
L 121.713365 196.636834 
L 122.066127 260.831965 
L 122.41889 210.670361 
L 122.771653 142.865948 
L 123.829941 356.664124 
L 124.182703 372.102545 
L 124.535466 372.768572 
L 124.888229 357.739044 
L 125.240991 361.795106 
L 125.593754 351.251879 
L 125.946517 373.448478 
L 126.299279 243.444688 
L 126.652042 285.695152 
L 127.004805 253.991996 
L 127.357567 318.645911 
L 127.71033 316.998154 
L 128.063093 303.084032 
L 128.415855 247.933106 
L 128.768618 284.292767 
L 129.121381 223.929976 
L 129.474143 288.784875 
L 129.826906 272.691523 
L 130.179669 323.442322 
L 130.532431 270.325792 
L 130.885194 310.392914 
L 131.237957 306.741905 
L 131.590719 336.697069 
L 131.943482 153.515276 
L 132.296245 335.366526 
L 132.649007 308.847025 
L 133.00177 195.040812 
L 133.354533 304.129562 
L 133.707295 332.659693 
L 134.060058 310.990243 
L 134.412821 337.323123 
L 134.765584 306.603269 
L 135.118346 330.423527 
L 135.471109 315.10315 
L 135.823872 336.024903 
L 136.176634 310.162902 
L 136.529397 348.776872 
L 137.234922 324.430069 
L 137.587685 330.774184 
L 137.940448 334.295386 
L 138.29321 309.849527 
L 138.645973 345.192051 
L 138.998736 287.475891 
L 139.351498 331.467484 
L 139.704261 321.488901 
L 140.057024 328.411839 
L 140.409786 327.304838 
L 140.762549 355.844856 
L 141.115312 321.634763 
L 141.468074 350.215541 
L 141.820837 296.811942 
L 142.1736 336.309704 
L 142.526362 311.857859 
L 142.879125 345.014561 
L 143.231888 276.436689 
L 143.58465 322.335381 
L 143.937413 312.217829 
L 144.290176 343.116291 
L 144.642938 316.830944 
L 144.995701 351.419482 
L 145.348464 308.185926 
L 145.701226 341.854659 
L 146.053989 307.67704 
L 146.406752 308.869884 
L 146.759514 346.759288 
L 147.112277 347.595669 
L 147.817803 352.950071 
L 148.170565 323.673332 
L 148.523328 350.909356 
L 148.876091 315.054287 
L 149.228853 349.160517 
L 149.581616 319.821792 
L 149.934379 339.020317 
L 150.287141 322.607785 
L 150.639904 343.152303 
L 150.992667 318.503344 
L 151.345429 336.016074 
L 151.698192 320.632714 
L 152.050955 211.653149 
L 152.75648 347.201501 
L 153.109243 319.214908 
L 153.462005 320.527762 
L 153.814768 327.546249 
L 154.167531 352.950252 
L 154.520293 313.874143 
L 154.873056 355.331888 
L 155.225819 325.430848 
L 155.578581 353.793135 
L 155.931344 326.345422 
L 156.284107 350.13502 
L 156.636869 355.671811 
L 156.989632 352.973172 
L 157.342395 348.676516 
L 157.695157 352.491106 
L 158.04792 318.147759 
L 158.400683 355.494441 
L 158.753445 326.158589 
L 159.106208 356.676339 
L 159.458971 325.235458 
L 159.811733 355.234042 
L 160.164496 310.050844 
L 160.517259 349.766977 
L 160.870021 324.108289 
L 161.222784 343.590587 
L 161.575547 318.253164 
L 161.92831 352.807716 
L 162.281072 271.684091 
L 162.633835 349.019159 
L 162.986598 317.763902 
L 163.33936 350.980473 
L 163.692123 320.232529 
L 164.044886 354.139951 
L 164.397648 321.58197 
L 164.750411 352.580909 
L 165.103174 318.799877 
L 165.455936 349.82089 
L 165.808699 331.58057 
L 166.161462 356.647312 
L 166.514224 354.102276 
L 166.866987 335.347931 
L 167.21975 356.985421 
L 167.572512 355.726177 
L 167.925275 359.749069 
L 168.278038 358.621264 
L 168.6308 348.510364 
L 168.983563 358.077213 
L 169.336326 359.568978 
L 169.689088 351.393145 
L 170.041851 355.935476 
L 170.394614 358.234777 
L 170.747376 356.555997 
L 171.100139 359.325783 
L 171.452902 361.079581 
L 171.805664 358.736376 
L 172.158427 358.869237 
L 172.51119 346.931819 
L 173.216715 356.154996 
L 173.569478 328.861159 
L 173.92224 355.448995 
L 174.275003 326.886299 
L 174.627766 354.849006 
L 174.980529 294.908562 
L 175.333291 353.055537 
L 175.686054 324.873765 
L 176.038817 354.435366 
L 176.391579 323.09227 
L 176.744342 344.348534 
L 177.097105 313.064551 
L 177.449867 352.045173 
L 177.80263 330.491923 
L 178.155393 355.586573 
L 178.508155 332.279344 
L 178.860918 358.925508 
L 179.213681 356.21429 
L 179.566443 357.126657 
L 179.919206 337.60617 
L 180.271969 336.705898 
L 180.624731 333.448452 
L 180.977494 359.139222 
L 181.330257 331.241041 
L 181.683019 359.947755 
L 182.035782 321.956634 
L 182.388545 356.484608 
L 182.741307 326.887932 
L 183.09407 356.474297 
L 183.446833 327.533096 
L 183.799595 357.048434 
L 184.152358 328.835608 
L 184.505121 355.639578 
L 184.857883 324.717924 
L 185.210646 353.334805 
L 185.563409 338.530238 
L 185.916171 359.24493 
L 186.268934 358.32833 
L 186.621697 361.126055 
L 186.974459 348.596962 
L 187.327222 351.688438 
L 187.679985 336.008606 
L 188.032748 359.103572 
L 188.38551 328.02895 
L 188.738273 358.449368 
L 189.091036 328.167979 
L 189.443798 356.011885 
L 189.796561 322.082208 
L 190.149324 352.282562 
L 190.502086 320.920055 
L 190.854849 357.667836 
L 191.207612 323.823941 
L 191.560374 355.609976 
L 191.913137 323.740064 
L 192.2659 355.445125 
L 192.618662 336.866244 
L 192.971425 358.665743 
L 193.324188 358.406734 
L 193.67695 355.704467 
L 194.029713 346.731107 
L 194.382476 357.868216 
L 194.735238 327.481965 
L 195.088001 356.306059 
L 195.440764 322.039241 
L 195.793526 358.644365 
L 196.146289 315.231354 
L 196.499052 357.677542 
L 196.851814 321.449653 
L 197.204577 352.333058 
L 197.55734 232.951745 
L 197.910102 183.648202 
L 198.96839 326.02334 
L 199.321153 346.745439 
L 199.673916 338.23301 
L 200.379441 362.105487 
L 201.084966 356.928031 
L 201.437729 360.787009 
L 201.790492 363.17702 
L 202.143255 358.87474 
L 202.496017 362.619544 
L 202.84878 362.651292 
L 203.201543 362.311672 
L 203.554305 363.249165 
L 203.907068 361.918532 
L 204.259831 362.722802 
L 204.612593 362.613315 
L 204.965356 359.811629 
L 205.318119 359.966169 
L 205.670881 362.594568 
L 206.023644 363.250677 
L 206.376407 363.350489 
L 206.729169 361.338348 
L 207.081932 361.512391 
L 207.434695 360.280088 
L 207.787457 361.308564 
L 208.14022 362.879429 
L 208.492983 362.289599 
L 208.845745 360.133772 
L 209.198508 360.900609 
L 209.551271 361.098207 
L 209.904033 353.82821 
L 210.256796 360.896436 
L 210.609559 360.232888 
L 210.962321 361.725742 
L 211.315084 361.041966 
L 211.667847 361.878408 
L 212.020609 361.955784 
L 212.373372 361.650029 
L 212.726135 359.834578 
L 213.078897 361.223266 
L 213.43166 360.691219 
L 213.784423 360.765117 
L 214.137185 363.324546 
L 214.489948 363.348191 
L 214.842711 362.952119 
L 215.548236 360.438529 
L 215.900999 359.805309 
L 216.253762 359.464056 
L 216.606524 361.958899 
L 216.959287 358.303989 
L 217.31205 361.652418 
L 217.664812 361.919046 
L 218.017575 350.83071 
L 218.370338 356.886667 
L 218.7231 324.728477 
L 219.075863 357.206815 
L 219.428626 326.25961 
L 219.781388 352.522703 
L 220.134151 325.631742 
L 220.486914 358.091847 
L 220.839676 322.100199 
L 221.192439 356.70322 
L 221.545202 317.495429 
L 221.897964 354.117123 
L 222.250727 326.890472 
L 222.60349 356.982276 
L 222.956252 324.189293 
L 223.309015 355.780331 
L 223.661778 342.511433 
L 224.01454 356.149251 
L 224.367303 362.85273 
L 224.720066 352.990165 
L 225.072828 330.949376 
L 225.425591 353.954509 
L 225.778354 327.071742 
L 226.131116 359.324785 
L 226.483879 328.119388 
L 226.836642 359.442679 
L 227.189404 316.759011 
L 227.542167 358.380881 
L 227.89493 320.986031 
L 228.247693 357.155019 
L 228.600455 312.594368 
L 228.953218 346.776734 
L 229.305981 233.970515 
L 229.658743 352.457906 
L 230.011506 319.911384 
L 230.364269 358.6131 
L 230.717031 340.109116 
L 231.069794 363.559063 
L 231.422557 363.815744 
L 231.775319 360.108282 
L 232.128082 347.981612 
L 232.480845 353.410336 
L 232.833607 328.330653 
L 233.18637 358.543465 
L 233.539133 327.568957 
L 233.891895 357.950036 
L 234.244658 327.342362 
L 234.597421 360.122161 
L 234.950183 330.618978 
L 235.302946 358.437696 
L 235.655709 323.968292 
L 236.008471 354.845105 
L 236.361234 324.50297 
L 236.713997 349.40223 
L 237.066759 329.490418 
L 237.419522 357.233211 
L 237.772285 339.36024 
L 238.125047 360.456671 
L 238.47781 362.903861 
L 238.830573 362.836342 
L 239.183335 340.716181 
L 239.536098 355.970611 
L 239.888861 332.332047 
L 240.241623 359.595647 
L 240.594386 327.120635 
L 240.947149 358.602245 
L 241.299911 324.432458 
L 241.652674 356.81177 
L 242.005437 321.859121 
L 242.3582 355.094136 
L 242.710962 320.201899 
L 243.063725 354.902464 
L 243.416488 323.078391 
L 243.76925 357.974045 
L 244.122013 320.078593 
L 244.474776 354.435486 
L 244.827538 338.156148 
L 245.180301 363.142067 
L 245.533064 362.516164 
L 245.885826 361.442151 
L 246.238589 362.473258 
L 246.591352 359.716171 
L 247.296877 364.652941 
L 247.64964 364.097793 
L 248.355165 365.01276 
L 248.707928 363.52801 
L 249.06069 359.862033 
L 249.413453 363.36851 
L 249.766216 360.615626 
L 250.118978 360.321996 
L 250.471741 362.30756 
L 250.824504 361.1471 
L 251.177266 363.593593 
L 251.882792 360.934535 
L 252.235554 360.716013 
L 252.94108 357.531649 
L 253.293842 360.333003 
L 253.646605 364.130177 
L 253.999368 363.03149 
L 254.35213 363.82938 
L 254.704893 361.441969 
L 255.057656 362.484475 
L 255.410419 157.948421 
L 255.763181 355.625155 
L 256.115944 362.424727 
L 256.468707 364.185812 
L 256.821469 362.724254 
L 257.174232 363.589844 
L 257.526995 360.994222 
L 257.879757 360.784923 
L 258.23252 361.680296 
L 258.585283 252.41708 
L 258.938045 256.713101 
L 259.290808 363.274292 
L 259.643571 363.448033 
L 259.996333 362.941475 
L 260.349096 361.378563 
L 260.701859 361.640716 
L 261.054621 360.761066 
L 261.407384 359.17599 
L 261.760147 362.952784 
L 262.112909 364.259893 
L 262.465672 363.953926 
L 262.818435 364.497857 
L 263.171197 349.553838 
L 263.52396 359.394844 
L 263.876723 323.045705 
L 264.229485 357.988951 
L 264.582248 322.55484 
L 264.935011 358.132969 
L 265.287773 304.474383 
L 265.640536 357.604974 
L 265.993299 321.744795 
L 266.346061 357.346086 
L 266.698824 320.169092 
L 267.051587 357.072926 
L 267.404349 313.928962 
L 267.757112 354.977361 
L 268.109875 322.513174 
L 268.462638 354.910931 
L 268.8154 343.37787 
L 269.168163 364.203682 
L 269.520926 363.72848 
L 269.873688 362.003014 
L 270.226451 341.978207 
L 270.579214 355.236068 
L 270.931976 330.491771 
L 271.284739 359.305827 
L 271.637502 321.322023 
L 271.990264 355.69086 
L 272.343027 327.807979 
L 272.69579 346.617719 
L 273.048552 319.614065 
L 273.401315 354.709251 
L 273.754078 315.738124 
L 274.10684 354.944675 
L 274.459603 312.547471 
L 274.812366 354.358927 
L 275.165128 320.133171 
L 275.517891 354.851757 
L 275.870654 343.093644 
L 276.223416 362.506911 
L 276.576179 364.489421 
L 276.928942 362.875892 
L 277.281704 337.906875 
L 277.634467 346.194705 
L 277.98723 322.541143 
L 278.339992 357.202461 
L 278.692755 320.974511 
L 279.045518 358.320045 
L 279.39828 318.799484 
L 279.751043 354.961003 
L 280.103806 319.837394 
L 280.456568 356.532593 
L 280.809331 318.943925 
L 281.162094 172.750146 
L 281.514856 319.970708 
L 281.867619 356.852741 
L 282.220382 323.588638 
L 282.573145 352.776028 
L 282.925907 249.795091 
L 283.27867 364.36802 
L 283.631433 365.157897 
L 283.984195 363.220229 
L 284.336958 340.871991 
L 284.689721 353.606755 
L 285.042483 324.834578 
L 285.395246 356.454885 
L 285.748009 326.944808 
L 286.100771 358.41774 
L 286.453534 321.57695 
L 286.806297 351.679156 
L 287.159059 318.095328 
L 287.511822 341.950328 
L 287.864585 319.529311 
L 288.217347 352.532137 
L 288.57011 319.373107 
L 288.922873 339.974773 
L 289.275635 320.62839 
L 289.628398 341.590873 
L 289.981161 337.256118 
L 290.333923 363.503427 
L 290.686686 364.319187 
L 291.039449 360.997548 
L 291.744974 365.269017 
L 292.097737 362.072619 
L 293.156025 365.515236 
L 293.508787 365.115686 
L 293.86155 365.778024 
L 294.214313 366.061374 
L 294.567075 364.59531 
L 294.919838 365.99316 
L 295.272601 365.927001 
L 295.625364 361.971749 
L 295.978126 365.676519 
L 296.330889 363.925201 
L 296.683652 363.731867 
L 297.036414 358.663717 
L 297.389177 361.099114 
L 297.74194 361.361146 
L 298.094702 358.758933 
L 298.447465 364.436657 
L 298.800228 363.501159 
L 299.15299 363.983649 
L 299.505753 364.057064 
L 299.858516 359.02801 
L 300.211278 359.731713 
L 300.564041 361.42159 
L 300.916804 360.712505 
L 301.269566 363.694494 
L 301.622329 364.947116 
L 301.975092 364.458428 
L 302.327854 364.645231 
L 302.680617 360.988719 
L 303.03338 361.616224 
L 303.386142 363.201815 
L 303.738905 360.484882 
L 304.091668 365.506528 
L 304.44443 363.899893 
L 304.797193 364.607677 
L 305.149956 364.227721 
L 305.502718 362.202849 
L 305.855481 362.328302 
L 306.208244 360.887093 
L 306.561006 356.499393 
L 306.913769 362.676812 
L 307.619294 365.432054 
L 307.972057 365.854433 
L 308.32482 345.528436 
L 308.677583 354.410511 
L 309.030345 319.484167 
L 309.383108 356.655597 
L 309.735871 314.73547 
L 310.088633 351.294029 
L 310.441396 313.379891 
L 310.794159 355.150497 
L 311.146921 317.081849 
L 311.499684 356.205824 
L 311.852447 316.490961 
L 312.205209 354.187998 
L 312.557972 315.881507 
L 312.910735 342.459668 
L 313.263497 319.726576 
L 313.61626 260.224748 
L 313.969023 342.443612 
L 314.321785 363.52042 
L 314.674548 360.465138 
L 315.027311 364.140155 
L 315.380073 339.089559 
L 315.732836 353.647968 
L 316.085599 319.625343 
L 316.438361 354.481144 
L 316.791124 321.663942 
L 317.143887 356.709993 
L 317.496649 314.6678 
L 317.849412 356.415335 
L 318.202175 320.936201 
L 318.554937 354.186153 
L 318.9077 315.075967 
L 319.260463 354.079296 
L 319.613225 316.777697 
L 319.965988 352.104709 
L 320.318751 312.314224 
L 320.671513 345.006941 
L 321.024276 343.499302 
L 321.377039 363.127946 
L 321.729801 364.718767 
L 322.082564 364.109132 
L 322.435327 333.68829 
L 322.78809 353.561158 
L 323.140852 320.682363 
L 323.493615 352.741558 
L 323.846378 323.023451 
L 324.19914 355.583822 
L 324.551903 318.056595 
L 324.904666 356.164369 
L 325.257428 326.183383 
L 325.610191 354.727665 
L 325.962954 320.068192 
L 326.315716 348.271916 
L 326.668479 319.393124 
L 327.021242 353.712886 
L 327.374004 319.521812 
L 327.726767 352.442969 
L 328.07953 343.538882 
L 328.432292 364.665883 
L 328.785055 363.603299 
L 329.137818 362.041868 
L 329.49058 336.153077 
L 329.843343 352.554512 
L 330.196106 320.068857 
L 330.548868 350.266762 
L 330.901631 321.429304 
L 331.254394 356.318819 
L 331.607156 321.68547 
L 331.959919 356.4492 
L 332.312682 314.690931 
L 332.665444 355.658537 
L 333.018207 218.115913 
L 333.723732 318.1952 
L 334.076495 353.390894 
L 334.429258 315.515943 
L 334.78202 352.456212 
L 335.134783 343.549555 
L 335.487546 363.685604 
L 335.840309 365.576738 
L 336.193071 364.551225 
L 336.545834 365.724475 
L 336.898597 364.557181 
L 337.251359 362.758966 
L 337.604122 364.834423 
L 338.309647 366.683195 
L 338.66241 363.525802 
L 339.015173 366.347989 
L 339.367935 366.201461 
L 339.720698 364.991413 
L 340.426223 365.884428 
L 340.778986 366.573344 
L 341.131749 365.583118 
L 341.484511 365.833388 
L 341.837274 365.161223 
L 342.190037 358.149842 
L 342.542799 360.34156 
L 342.895562 361.56845 
L 343.248325 361.046018 
L 343.601087 365.883188 
L 343.95385 366.609356 
L 344.306613 366.142167 
L 344.659375 366.084052 
L 345.012138 361.857635 
L 345.364901 362.434494 
L 345.717663 361.772972 
L 346.070426 360.769986 
L 346.423189 365.527482 
L 346.775951 365.796922 
L 347.128714 361.319298 
L 347.481477 364.815555 
L 347.834239 362.157313 
L 348.187002 362.251863 
L 348.539765 361.649183 
L 348.892528 359.182491 
L 349.24529 365.318122 
L 349.598053 365.418599 
L 349.950816 365.746911 
L 350.303578 365.144562 
L 350.656341 361.911034 
L 351.009104 361.522641 
L 351.361866 360.264032 
L 351.714629 361.616829 
L 352.067392 363.431252 
L 352.420154 364.321092 
L 352.772917 366.273999 
L 353.12568 366.610596 
L 353.478442 364.682513 
L 353.831205 366.665899 
L 354.183968 364.966074 
L 354.53673 366.488983 
L 354.889493 366.988224 
L 355.242256 366.977702 
L 355.595018 365.259735 
L 355.947781 364.707821 
L 356.300544 366.02255 
L 356.653306 365.837682 
L 357.358832 366.506521 
L 357.711594 366.05702 
L 358.064357 366.708261 
L 358.41712 363.253731 
L 358.769882 366.052061 
L 359.122645 362.564452 
L 359.82817 363.796846 
L 360.180933 363.893876 
L 360.533696 362.517615 
L 360.886458 366.198982 
L 361.239221 364.915579 
L 361.591984 365.018444 
L 361.944746 363.357292 
L 362.297509 364.062174 
L 362.650272 359.433124 
L 363.355797 364.147321 
L 363.70856 362.395367 
L 364.061323 364.720974 
L 364.414085 362.350103 
L 364.766848 361.488776 
L 365.119611 362.497114 
L 365.472373 361.348144 
L 365.825136 357.703667 
L 366.177899 364.073664 
L 366.530661 365.561529 
L 366.883424 365.396163 
L 367.236187 364.685386 
L 368.294475 361.871968 
L 368.647237 361.620246 
L 369 366.214251 
L 369.352763 365.877594 
L 369.705525 366.406225 
L 370.058288 365.802002 
L 370.411051 365.481522 
L 370.763813 357.0543 
L 371.116576 363.360256 
L 371.822101 366.052847 
L 372.174864 365.663578 
L 372.527627 273.283621 
L 372.880389 366.58813 
L 373.233152 287.871177 
L 373.585915 364.524979 
L 373.938677 366.805019 
L 374.29144 366.974043 
L 374.644203 367.273327 
L 374.996965 365.941364 
L 375.349728 366.846202 
L 375.702491 364.34377 
L 376.055254 351.258833 
L 376.408016 360.854891 
L 376.760779 362.69952 
L 377.113542 358.733504 
L 377.466304 365.835595 
L 377.819067 366.902442 
L 378.17183 366.672582 
L 378.524592 366.866097 
L 378.877355 363.947153 
L 379.230118 364.262735 
L 379.58288 363.0633 
L 379.935643 362.729394 
L 380.288406 281.575261 
L 380.641168 365.463682 
L 380.993931 365.122248 
L 381.346694 363.745201 
L 381.699456 361.237387 
L 382.052219 362.362923 
L 382.404982 360.39272 
L 382.757744 363.867539 
L 383.110507 287.134457 
L 383.46327 362.882181 
L 383.816032 365.747939 
L 384.168795 365.305301 
L 384.521558 359.310181 
L 384.87432 361.871272 
L 385.227083 362.272213 
L 385.579846 361.688642 
L 385.932608 362.032162 
L 386.285371 365.594517 
L 386.638134 366.60987 
L 386.990896 366.18722 
L 387.343659 361.063132 
L 387.696422 365.134917 
L 388.049184 365.255562 
L 388.401947 365.586353 
L 388.75471 366.968389 
L 389.107472 365.568513 
L 389.460235 365.810831 
L 389.812998 365.830485 
L 390.165761 364.878387 
L 390.518523 367.25198 
L 390.871286 367.118243 
L 391.224049 366.740675 
L 391.576811 367.181165 
L 392.282337 365.557386 
L 392.635099 366.312098 
L 392.987862 360.38752 
L 393.340625 363.699332 
L 393.693387 363.06342 
L 394.04615 361.495851 
L 394.398913 365.798767 
L 394.751675 366.684072 
L 395.104438 365.877685 
L 395.457201 366.808617 
L 395.809963 362.505702 
L 396.162726 364.208641 
L 396.515489 363.670607 
L 396.868251 359.979352 
L 397.221014 365.050314 
L 397.573777 367.285241 
L 397.926539 366.802026 
L 398.279302 366.601223 
L 398.984827 361.481096 
L 399.33759 363.035693 
L 399.690353 363.017219 
L 400.395878 365.94469 
L 400.748641 367.100161 
L 401.454166 363.982167 
L 401.806929 364.161411 
L 402.159691 363.487492 
L 402.512454 364.116721 
L 402.865217 366.716455 
L 403.21798 364.904542 
L 403.570742 364.935142 
L 403.923505 365.400215 
L 404.62903 365.642533 
L 404.981793 366.572709 
L 405.334556 367.143732 
L 405.687318 367.177295 
L 406.040081 365.353862 
L 406.392844 366.267982 
L 406.745606 366.257672 
L 407.098369 365.950193 
L 407.451132 366.902079 
L 407.803894 363.980988 
L 408.156657 366.84221 
L 408.50942 364.779785 
L 408.862182 364.479442 
L 409.214945 366.941417 
L 409.567708 365.590284 
L 409.92047 360.410167 
L 410.273233 361.990617 
L 410.625996 360.625363 
L 410.978758 362.079271 
L 411.331521 366.56772 
L 411.684284 365.205732 
L 412.037046 365.675733 
L 413.095334 360.797592 
L 413.448097 361.392623 
L 413.80086 361.139419 
L 414.153622 366.327912 
L 414.506385 366.995541 
L 414.859148 366.53328 
L 415.21191 365.74038 
L 415.564673 363.387045 
L 415.917436 363.953805 
L 416.270199 360.983428 
L 416.622961 362.431863 
L 416.975724 366.398847 
L 417.328487 364.975357 
L 417.681249 365.790028 
L 418.034012 365.997907 
L 418.386775 355.655876 
L 418.739537 359.942433 
L 419.0923 361.391958 
L 419.445063 356.64196 
L 419.797825 362.882695 
L 420.150588 366.612108 
L 420.503351 366.185194 
L 420.856113 367.161874 
L 421.208876 365.640991 
L 421.561639 366.460742 
L 421.914401 364.99622 
L 422.267164 364.764334 
L 422.619927 367.218115 
L 422.972689 364.89021 
L 423.325452 365.49658 
L 423.678215 366.908429 
L 424.030977 366.841364 
L 424.38374 366.473321 
L 424.736503 366.344784 
L 425.089265 366.938968 
L 425.442028 285.972303 
L 425.794791 365.113812 
L 426.147553 366.529924 
L 426.500316 366.596778 
L 426.853079 357.404927 
L 427.205841 361.853553 
L 427.911367 360.651457 
L 428.264129 366.306746 
L 428.616892 366.707656 
L 428.969655 364.528608 
L 429.322417 365.473328 
L 429.67518 362.466515 
L 430.027943 362.180504 
L 430.380706 362.689693 
L 430.733468 277.997395 
L 431.086231 362.971621 
L 431.438994 365.077558 
L 432.144519 364.9489 
L 432.497282 360.002544 
L 432.850044 357.042266 
L 433.202807 358.988249 
L 433.55557 355.852113 
L 433.908332 364.533324 
L 434.261095 364.76893 
L 434.613858 360.261039 
L 434.96662 281.633164 
L 435.319383 359.623858 
L 435.672146 361.138815 
L 436.024908 361.812613 
L 436.377671 358.708105 
L 436.730434 266.796002 
L 437.083196 365.20549 
L 437.435959 365.764357 
L 437.788722 288.309098 
L 438.141484 365.313133 
L 438.494247 365.45709 
L 438.84701 365.902177 
L 439.199772 365.143202 
L 439.552535 365.767683 
L 439.905298 365.66518 
L 440.25806 366.405953 
L 440.610823 363.991057 
L 440.963586 363.260928 
L 441.316348 366.50516 
L 441.669111 365.012216 
L 442.021874 365.405658 
L 442.374636 366.619093 
L 442.727399 365.190976 
L 443.080162 364.310539 
L 443.432925 365.268352 
L 443.785687 357.8267 
L 444.13845 361.035374 
L 444.491213 359.936265 
L 444.843975 354.798329 
L 445.196738 364.172901 
L 445.549501 364.481317 
L 445.902263 362.978485 
L 446.255026 364.934023 
L 446.607789 359.748948 
L 446.960551 358.529647 
L 447.313314 361.387089 
L 447.666077 359.764792 
L 448.018839 365.224146 
L 448.371602 364.644022 
L 448.724365 365.124092 
L 449.077127 364.878387 
L 449.42989 360.230832 
L 449.782653 357.148155 
L 450.135415 360.653816 
L 450.488178 360.112243 
L 450.840941 364.031846 
L 451.193703 363.278646 
L 451.546466 365.181542 
L 451.899229 365.370008 
L 452.251991 360.630231 
L 452.604754 358.589667 
L 452.957517 358.757542 
L 453.310279 359.692828 
L 453.663042 364.620286 
L 454.015805 365.105073 
L 454.368567 366.027297 
L 455.074093 362.881606 
L 455.426855 366.527203 
L 455.779618 366.386329 
L 456.485144 364.853472 
L 457.190669 365.30772 
L 457.543432 361.870002 
L 457.896194 364.368594 
L 458.248957 365.336143 
L 458.60172 364.571725 
L 458.954482 365.092374 
L 459.307245 364.101814 
L 459.660008 365.338592 
L 460.01277 363.353604 
L 460.365533 363.034907 
L 460.718296 357.221238 
L 461.071058 360.310658 
L 461.423821 358.519366 
L 461.776584 360.508134 
L 462.129346 365.575891 
L 462.482109 365.963316 
L 463.187634 360.158052 
L 463.540397 361.581815 
L 463.89316 357.962978 
L 464.245922 360.606918 
L 464.598685 360.243471 
L 464.951448 364.988147 
L 465.30421 365.90517 
L 465.656973 363.141855 
L 466.009736 365.347089 
L 466.362498 354.759051 
L 466.715261 359.060878 
L 467.068024 361.842215 
L 467.420786 359.985732 
L 467.773549 364.215535 
L 468.126312 366.321562 
L 468.479074 365.656956 
L 468.831837 365.765748 
L 469.1846 359.932969 
L 469.537362 361.418596 
L 469.890125 360.080253 
L 470.242888 361.505588 
L 470.595651 365.902449 
L 470.948413 366.462496 
L 471.301176 364.91706 
L 471.653939 364.703014 
L 472.006701 365.927273 
L 472.359464 365.142234 
L 473.064989 364.964502 
L 473.417752 365.96262 
L 473.770515 365.674221 
L 474.123277 363.940471 
L 474.828803 365.918807 
L 475.181565 366.100863 
L 475.534328 364.436264 
L 475.887091 366.392921 
L 476.239853 363.432915 
L 476.945379 365.363084 
L 477.298141 363.258206 
L 477.650904 356.744735 
L 478.356429 358.319652 
L 478.709192 359.614091 
L 479.061955 365.907982 
L 479.76748 366.255101 
L 480.120243 366.010153 
L 480.473005 359.687234 
L 480.825768 358.3449 
L 481.178531 360.761791 
L 481.531293 278.79728 
L 481.884056 359.204715 
L 482.236819 363.516127 
L 482.589581 365.938159 
L 482.942344 364.457097 
L 483.295107 359.885255 
L 483.64787 360.208245 
L 484.353395 357.200919 
L 484.706158 365.200349 
L 485.05892 365.780564 
L 485.411683 365.91911 
L 485.764446 303.709149 
L 486.117208 358.657307 
L 486.822734 359.480293 
L 487.175496 360.331733 
L 487.528259 364.92338 
L 487.881022 364.523256 
L 488.233784 365.479163 
L 488.586547 363.370385 
L 488.93931 364.86469 
L 489.292072 299.674525 
L 489.644835 364.161955 
L 489.997598 364.792666 
L 490.35036 366.090008 
L 490.703123 366.433499 
L 491.055886 365.719153 
L 491.408648 366.247814 
L 491.761411 362.688846 
L 492.114174 366.349743 
L 492.466936 362.178479 
L 492.819699 364.129904 
L 493.172462 363.598552 
L 493.525224 363.430949 
L 493.877987 365.369645 
L 494.23075 365.741982 
L 494.583512 353.701457 
L 494.936275 357.985172 
L 495.289038 357.931229 
L 495.6418 280.109318 
L 495.994563 365.729524 
L 496.347326 366.023306 
L 496.700089 266.737917 
L 497.052851 365.461596 
L 497.405614 358.019974 
L 497.758377 356.94064 
L 498.111139 354.827961 
L 498.463902 356.938372 
L 498.816665 364.36678 
L 499.169427 364.801223 
L 499.52219 365.476654 
L 499.874953 364.695999 
L 500.227715 358.635052 
L 500.580478 358.583771 
L 500.933241 356.966311 
L 501.286003 357.13981 
L 501.638766 364.258381 
L 501.991529 365.465466 
L 502.344291 365.261639 
L 502.697054 364.120047 
L 503.049817 358.865125 
L 503.402579 359.433033 
L 503.755342 358.771723 
L 504.108105 359.038745 
L 504.460867 365.753109 
L 504.81363 365.393291 
L 505.166393 365.61916 
L 505.519155 365.111211 
L 505.871918 363.943676 
L 506.224681 365.664545 
L 506.577443 364.379782 
L 506.930206 364.886854 
L 507.282969 361.048769 
L 507.988494 365.108036 
L 508.341257 365.127993 
L 509.046782 365.852649 
L 509.752307 363.486797 
L 510.10507 363.670425 
L 510.457833 365.532531 
L 510.810596 365.758219 
L 511.163358 365.668416 
L 511.516121 354.990998 
L 511.868884 356.157777 
L 512.221646 358.585162 
L 512.574409 356.087507 
L 512.927172 364.388399 
L 513.279934 365.826887 
L 513.632697 360.499577 
L 513.98546 361.976194 
L 514.338222 358.36407 
L 514.690985 359.534931 
L 515.043748 358.718173 
L 515.39651 359.23344 
L 515.749273 364.773677 
L 516.102036 364.678582 
L 516.454798 365.156234 
L 516.807561 365.171655 
L 517.160324 359.142064 
L 517.513086 359.640881 
L 517.865849 358.615489 
L 518.218612 358.012083 
L 518.571374 363.611101 
L 518.924137 365.726622 
L 519.2769 364.57995 
L 519.629662 364.524012 
L 519.982425 357.765652 
L 520.68795 359.554313 
L 521.040713 357.18063 
L 521.393476 360.177857 
L 521.746238 364.126276 
L 522.099001 364.400524 
L 522.451764 364.353748 
L 522.804526 365.941878 
L 523.157289 365.36 
L 523.510052 362.888379 
L 523.862815 363.11697 
L 524.215577 365.916388 
L 524.56834 365.761031 
L 525.273865 365.073627 
L 525.626628 365.87953 
L 525.979391 365.735542 
L 526.684916 363.732592 
L 527.037679 365.925369 
L 527.743204 364.444247 
L 528.095967 365.700195 
L 528.448729 353.882243 
L 528.801492 357.924456 
L 529.154255 356.508011 
L 529.507017 356.740139 
L 529.85978 365.127479 
L 530.212543 364.38716 
L 530.565305 365.915783 
L 530.918068 364.48558 
L 531.270831 356.428911 
L 531.976356 357.958956 
L 532.329119 355.906781 
L 532.681881 364.654907 
L 533.034644 363.066081 
L 533.387407 365.272676 
L 533.740169 365.259916 
L 534.092932 357.824281 
L 534.445695 358.450275 
L 534.798457 359.676349 
L 535.15122 358.77774 
L 535.503983 365.695629 
L 535.856745 366.528049 
L 536.209508 365.533529 
L 536.915034 355.938137 
L 537.267796 357.403203 
L 537.620559 353.996931 
L 537.973322 358.112439 
L 538.326084 363.981774 
L 538.678847 364.381112 
L 539.03161 364.493593 
L 539.384372 362.823945 
L 539.737135 362.979634 
L 540.089898 365.590344 
L 540.44266 365.536613 
L 540.795423 364.54684 
L 541.148186 365.976862 
L 541.500948 364.443067 
L 541.853711 364.586904 
L 542.206474 365.859059 
L 542.911999 363.725275 
L 543.264762 365.094399 
L 543.617524 363.195132 
L 543.970287 365.916872 
L 544.675812 364.643659 
L 545.028575 365.961623 
L 545.381338 353.712221 
L 545.7341 292.427508 
L 546.086863 352.784192 
L 546.439626 356.424497 
L 546.792388 363.684213 
L 547.145151 364.420783 
L 547.497914 364.643901 
L 547.850676 365.244042 
L 548.203439 357.687278 
L 548.556202 358.601127 
L 548.908964 353.830931 
L 549.261727 356.419024 
L 549.61449 364.794359 
L 549.967252 365.567636 
L 550.320015 363.99656 
L 550.672778 365.38806 
L 551.025541 357.220028 
L 551.378303 356.543297 
L 551.731066 281.505081 
L 552.083829 355.594253 
L 552.436591 290.614023 
L 552.789354 364.490993 
L 553.142117 364.58515 
L 553.494879 365.20425 
L 553.847642 283.373174 
L 554.200405 358.145094 
L 554.553167 354.694012 
L 554.90593 356.544114 
L 555.258693 362.733748 
L 555.611455 365.255955 
L 555.964218 365.261337 
L 556.316981 364.597034 
L 556.669743 365.189434 
L 557.375269 364.076627 
L 557.728031 365.601502 
L 558.080794 364.612485 
L 558.433557 365.994883 
L 558.786319 365.629834 
L 559.139082 362.269431 
L 559.491845 364.889726 
L 560.19737 363.609619 
L 560.550133 364.699204 
L 560.902895 362.727156 
L 561.255658 365.418538 
L 561.608421 363.436543 
L 561.961183 365.439855 
L 562.313946 353.321047 
L 562.666709 355.528246 
L 563.019471 352.075924 
L 563.372234 355.078231 
L 563.724997 362.879399 
L 564.07776 365.216647 
L 564.430522 364.454074 
L 564.783285 364.092048 
L 565.136048 355.153854 
L 565.48881 356.29348 
L 565.841573 353.428116 
L 566.194336 355.73679 
L 566.899861 364.253482 
L 567.252624 364.254662 
L 567.605386 364.857403 
L 567.958149 356.832966 
L 568.310912 354.520392 
L 568.663674 355.967013 
L 569.016437 354.499498 
L 569.3692 363.785446 
L 569.721962 365.326014 
L 570.074725 364.421055 
L 570.427488 363.993083 
L 570.78025 354.567833 
L 571.133013 356.68275 
L 571.485776 354.107719 
L 571.838538 356.580731 
L 572.191301 364.040766 
L 572.544064 365.534678 
L 572.896826 363.817769 
L 573.602352 365.511487 
L 573.955114 363.510805 
L 574.66064 364.769898 
L 575.013402 366.375958 
L 575.366165 364.343618 
L 575.718928 365.064495 
L 576.07169 364.700111 
L 576.424453 365.616953 
L 576.777216 364.861908 
L 577.129979 365.14683 
L 577.482741 364.312535 
L 577.835504 365.901542 
L 578.188267 366.002775 
L 578.541029 363.752488 
L 578.893792 364.103931 
L 579.246555 350.690653 
L 579.599317 354.701752 
L 579.95208 356.39296 
L 580.304843 355.692342 
L 580.657605 364.336966 
L 581.010368 363.995985 
L 581.363131 365.463289 
L 581.715893 363.704411 
L 582.068656 356.033655 
L 582.421419 353.77717 
L 582.774181 356.739807 
L 583.126944 355.848152 
L 583.479707 362.962943 
L 583.832469 365.169417 
L 584.185232 365.355041 
L 584.537995 364.044606 
L 584.890757 355.624037 
L 585.24352 356.090591 
L 585.596283 355.595342 
L 585.949045 345.968412 
L 586.301808 363.69785 
L 586.654571 365.005866 
L 587.360096 362.882362 
L 587.712859 352.26309 
L 588.065621 354.787353 
L 588.418384 356.254142 
L 588.771147 354.744084 
L 589.123909 363.966293 
L 589.476672 364.239604 
L 590.182197 365.794413 
L 590.53496 364.575354 
L 590.887723 361.921012 
L 591.240486 363.882295 
L 591.946011 209.236681 
L 592.298774 364.312414 
L 592.651536 363.732018 
L 593.004299 363.991299 
L 593.357062 364.520232 
L 593.709824 364.839866 
L 594.062587 364.50333 
L 594.41535 362.714245 
L 594.768112 364.158508 
L 595.120875 364.716409 
L 595.473638 363.277407 
L 595.8264 278.055086 
L 596.179163 348.112326 
L 596.531926 352.522975 
L 596.884688 355.333944 
L 597.237451 354.464967 
L 597.590214 364.190922 
L 598.295739 361.84415 
L 598.648502 364.16383 
L 599.001264 355.868955 
L 599.354027 357.090191 
L 599.70679 355.101846 
L 600.059552 356.822897 
L 600.412315 364.48425 
L 600.765078 365.137094 
L 601.11784 364.557484 
L 601.470603 364.666306 
L 601.823366 351.59416 
L 602.176128 350.639008 
L 602.528891 356.45304 
L 602.881654 356.063136 
L 603.234416 365.545201 
L 603.587179 365.804724 
L 603.939942 365.767472 
L 604.292705 364.491174 
L 604.645467 354.915103 
L 604.99823 354.99511 
L 605.350993 355.96529 
L 605.703755 357.60322 
L 606.056518 366.301817 
L 606.409281 365.437709 
L 606.762043 365.470546 
L 607.114806 365.092283 
L 607.467569 366.209051 
L 607.820331 365.697715 
L 608.173094 273.498575 
L 608.525857 365.223269 
L 608.878619 366.289753 
L 609.231382 364.370257 
L 609.584145 365.566457 
L 609.936907 365.063074 
L 610.28967 365.34851 
L 610.642433 364.279335 
L 610.995195 364.10632 
L 611.347958 363.787684 
L 611.700721 364.209488 
L 612.053483 361.4765 
L 612.406246 363.781848 
L 612.759009 362.393342 
L 613.111771 346.400709 
L 613.464534 282.809166 
L 613.817297 349.354033 
L 614.170059 277.898762 
L 614.522822 360.895378 
L 614.875585 363.684183 
L 615.228347 362.239557 
L 615.58111 363.089847 
L 615.933873 350.573424 
L 616.286635 354.385203 
L 616.639398 353.660123 
L 616.992161 351.423019 
L 617.344924 271.573636 
L 617.697686 363.276046 
L 618.050449 359.370654 
L 618.403212 362.755277 
L 618.755974 349.01414 
L 619.4615 353.836978 
L 619.814262 353.270642 
L 620.167025 361.725591 
L 620.519788 360.891417 
L 620.87255 363.787321 
L 621.225313 363.577961 
L 621.578076 352.645556 
L 621.930838 353.218151 
L 622.283601 351.909712 
L 622.636364 354.180257 
L 622.636364 354.180257 
" clip-path="url(#pb40ab4f3dc)" style="fill: none; stroke: #1f77b4; stroke-width: 1.5; stroke-linecap: square"/>
   </g>
   <g id="patch_3">
    <path d="M 90 384.48 
L 90 51.84 
" style="fill: none; stroke: #000000; stroke-width: 0.8; stroke-linejoin: miter; stroke-linecap: square"/>
   </g>
   <g id="patch_4">
    <path d="M 648 384.48 
L 648 51.84 
" style="fill: none; stroke: #000000; stroke-width: 0.8; stroke-linejoin: miter; stroke-linecap: square"/>
   </g>
   <g id="patch_5">
    <path d="M 90 384.48 
L 648 384.48 
" style="fill: none; stroke: #000000; stroke-width: 0.8; stroke-linejoin: miter; stroke-linecap: square"/>
   </g>
   <g id="patch_6">
    <path d="M 90 51.84 
L 648 51.84 
" style="fill: none; stroke: #000000; stroke-width: 0.8; stroke-linejoin: miter; stroke-linecap: square"/>
   </g>
   <g id="text_17">
    <!-- Average time per index -->
    <g transform="translate(298.700625 45.84) scale(0.12 -0.12)">
     <defs>
      <path id="DejaVuSans-70" d="M 1159 525 
L 1159 -1331 
L 581 -1331 
L 581 3500 
L 1159 3500 
L 1159 2969 
Q 1341 3281 1617 3432 
Q 1894 3584 2278 3584 
Q 2916 3584 3314 3078 
Q 3713 2572 3713 1747 
Q 3713 922 3314 415 
Q 2916 -91 2278 -91 
Q 1894 -91 1617 61 
Q 1341 213 1159 525 
z
M 3116 1747 
Q 3116 2381 2855 2742 
Q 2594 3103 2138 3103 
Q 1681 3103 1420 2742 
Q 1159 2381 1159 1747 
Q 1159 1113 1420 752 
Q 1681 391 2138 391 
Q 2594 391 2855 752 
Q 3116 1113 3116 1747 
z
" transform="scale(0.015625)"/>
     </defs>
     <use xlink:href="#DejaVuSans-41"/>
     <use xlink:href="#DejaVuSans-76" transform="translate(62.533203 0)"/>
     <use xlink:href="#DejaVuSans-65" transform="translate(121.712891 0)"/>
     <use xlink:href="#DejaVuSans-72" transform="translate(183.236328 0)"/>
     <use xlink:href="#DejaVuSans-61" transform="translate(224.349609 0)"/>
     <use xlink:href="#DejaVuSans-67" transform="translate(285.628906 0)"/>
     <use xlink:href="#DejaVuSans-65" transform="translate(349.105469 0)"/>
     <use xlink:href="#DejaVuSans-20" transform="translate(410.628906 0)"/>
     <use xlink:href="#DejaVuSans-74" transform="translate(442.416016 0)"/>
     <use xlink:href="#DejaVuSans-69" transform="translate(481.625 0)"/>
     <use xlink:href="#DejaVuSans-6d" transform="translate(509.408203 0)"/>
     <use xlink:href="#DejaVuSans-65" transform="translate(606.820312 0)"/>
     <use xlink:href="#DejaVuSans-20" transform="translate(668.34375 0)"/>
     <use xlink:href="#DejaVuSans-70" transform="translate(700.130859 0)"/>
     <use xlink:href="#DejaVuSans-65" transform="translate(763.607422 0)"/>
     <use xlink:href="#DejaVuSans-72" transform="translate(825.130859 0)"/>
     <use xlink:href="#DejaVuSans-20" transform="translate(866.244141 0)"/>
     <use xlink:href="#DejaVuSans-69" transform="translate(898.03125 0)"/>
     <use xlink:href="#DejaVuSans-6e" transform="translate(925.814453 0)"/>
     <use xlink:href="#DejaVuSans-64" transform="translate(989.193359 0)"/>
     <use xlink:href="#DejaVuSans-65" transform="translate(1052.669922 0)"/>
     <use xlink:href="#DejaVuSans-78" transform="translate(1112.443359 0)"/>
    </g>
   </g>
   <g id="legend_1">
    <g id="patch_7">
     <path d="M 515.8875 74.518125 
L 641 74.518125 
Q 643 74.518125 643 72.518125 
L 643 58.84 
Q 643 56.84 641 56.84 
L 515.8875 56.84 
Q 513.8875 56.84 513.8875 58.84 
L 513.8875 72.518125 
Q 513.8875 74.518125 515.8875 74.518125 
z
" style="fill: #ffffff; opacity: 0.8; stroke: #cccccc; stroke-linejoin: miter"/>
    </g>
    <g id="line2d_16">
     <path d="M 517.8875 64.938438 
L 527.8875 64.938438 
L 537.8875 64.938438 
" style="fill: none; stroke: #1f77b4; stroke-width: 1.5; stroke-linecap: square"/>
    </g>
    <g id="text_18">
     <!-- getExpectedPoints -->
     <g transform="translate(545.8875 68.438438) scale(0.1 -0.1)">
      <defs>
       <path id="DejaVuSans-45" d="M 628 4666 
L 3578 4666 
L 3578 4134 
L 1259 4134 
L 1259 2753 
L 3481 2753 
L 3481 2222 
L 1259 2222 
L 1259 531 
L 3634 531 
L 3634 0 
L 628 0 
L 628 4666 
z
" transform="scale(0.015625)"/>
       <path id="DejaVuSans-63" d="M 3122 3366 
L 3122 2828 
Q 2878 2963 2633 3030 
Q 2388 3097 2138 3097 
Q 1578 3097 1268 2742 
Q 959 2388 959 1747 
Q 959 1106 1268 751 
Q 1578 397 2138 397 
Q 2388 397 2633 464 
Q 2878 531 3122 666 
L 3122 134 
Q 2881 22 2623 -34 
Q 2366 -91 2075 -91 
Q 1284 -91 818 406 
Q 353 903 353 1747 
Q 353 2603 823 3093 
Q 1294 3584 2113 3584 
Q 2378 3584 2631 3529 
Q 2884 3475 3122 3366 
z
" transform="scale(0.015625)"/>
       <path id="DejaVuSans-50" d="M 1259 4147 
L 1259 2394 
L 2053 2394 
Q 2494 2394 2734 2622 
Q 2975 2850 2975 3272 
Q 2975 3691 2734 3919 
Q 2494 4147 2053 4147 
L 1259 4147 
z
M 628 4666 
L 2053 4666 
Q 2838 4666 3239 4311 
Q 3641 3956 3641 3272 
Q 3641 2581 3239 2228 
Q 2838 1875 2053 1875 
L 1259 1875 
L 1259 0 
L 628 0 
L 628 4666 
z
" transform="scale(0.015625)"/>
       <path id="DejaVuSans-6f" d="M 1959 3097 
Q 1497 3097 1228 2736 
Q 959 2375 959 1747 
Q 959 1119 1226 758 
Q 1494 397 1959 397 
Q 2419 397 2687 759 
Q 2956 1122 2956 1747 
Q 2956 2369 2687 2733 
Q 2419 3097 1959 3097 
z
M 1959 3584 
Q 2709 3584 3137 3096 
Q 3566 2609 3566 1747 
Q 3566 888 3137 398 
Q 2709 -91 1959 -91 
Q 1206 -91 779 398 
Q 353 888 353 1747 
Q 353 2609 779 3096 
Q 1206 3584 1959 3584 
z
" transform="scale(0.015625)"/>
      </defs>
      <use xlink:href="#DejaVuSans-67"/>
      <use xlink:href="#DejaVuSans-65" transform="translate(63.476562 0)"/>
      <use xlink:href="#DejaVuSans-74" transform="translate(125 0)"/>
      <use xlink:href="#DejaVuSans-45" transform="translate(164.208984 0)"/>
      <use xlink:href="#DejaVuSans-78" transform="translate(227.392578 0)"/>
      <use xlink:href="#DejaVuSans-70" transform="translate(286.572266 0)"/>
      <use xlink:href="#DejaVuSans-65" transform="translate(350.048828 0)"/>
      <use xlink:href="#DejaVuSans-63" transform="translate(411.572266 0)"/>
      <use xlink:href="#DejaVuSans-74" transform="translate(466.552734 0)"/>
      <use xlink:href="#DejaVuSans-65" transform="translate(505.761719 0)"/>
      <use xlink:href="#DejaVuSans-64" transform="translate(567.285156 0)"/>
      <use xlink:href="#DejaVuSans-50" transform="translate(630.761719 0)"/>
      <use xlink:href="#DejaVuSans-6f" transform="translate(687.439453 0)"/>
      <use xlink:href="#DejaVuSans-69" transform="translate(748.621094 0)"/>
      <use xlink:href="#DejaVuSans-6e" transform="translate(776.404297 0)"/>
      <use xlink:href="#DejaVuSans-74" transform="translate(839.783203 0)"/>
      <use xlink:href="#DejaVuSans-73" transform="translate(878.992188 0)"/>
     </g>
    </g>
   </g>
  </g>
 </g>
 <defs>
  <clipPath id="pb40ab4f3dc">
   <rect x="90" y="51.84" width="558" height="332.64"/>
  </clipPath>
 </defs>
</svg>
