<?xml version="1.0" encoding="utf-8" standalone="no"?>
<!DOCTYPE svg PUBLIC "-//W3C//DTD SVG 1.1//EN"
  "http://www.w3.org/Graphics/SVG/1.1/DTD/svg11.dtd">
<svg xmlns:xlink="http://www.w3.org/1999/xlink" width="576pt" height="432pt" viewBox="0 0 576 432" xmlns="http://www.w3.org/2000/svg" version="1.1">
 <metadata>
  <rdf:RDF xmlns:dc="http://purl.org/dc/elements/1.1/" xmlns:cc="http://creativecommons.org/ns#" xmlns:rdf="http://www.w3.org/1999/02/22-rdf-syntax-ns#">
   <cc:Work>
    <dc:type rdf:resource="http://purl.org/dc/dcmitype/StillImage"/>
    <dc:date>2025-09-30T20:43:05.619748</dc:date>
    <dc:format>image/svg+xml</dc:format>
    <dc:creator>
     <cc:Agent>
      <dc:title>Matplotlib v3.10.3, https://matplotlib.org/</dc:title>
     </cc:Agent>
    </dc:creator>
   </cc:Work>
  </rdf:RDF>
 </metadata>
 <defs>
  <style type="text/css">*{stroke-linejoin: round; stroke-linecap: butt}</style>
 </defs>
 <g id="figure_1">
  <g id="patch_1">
   <path d="M 0 432 
L 576 432 
L 576 0 
L 0 0 
z
" style="fill: #ffffff"/>
  </g>
  <g id="axes_1">
   <g id="patch_2">
    <path d="M 72 384.48 
L 518.4 384.48 
L 518.4 51.84 
L 72 51.84 
z
" style="fill: #ffffff"/>
   </g>
   <g id="FillBetweenPolyCollection_1">
    <path d="M 374.897966 371.342984 
L 215.502034 371.342984 
L 185.725457 368.269362 
L 183.6 365.19574 
L 207.203985 362.122119 
L 237.815365 359.048497 
L 261.297878 355.974875 
L 275.259346 352.901253 
L 282.563574 349.827631 
L 286.036284 346.75401 
L 287.583646 343.680388 
L 288.550435 340.606766 
L 289.680987 337.533144 
L 291.019139 334.459523 
L 292.226283 331.385901 
L 293.048036 328.312279 
L 293.520036 325.238657 
L 293.848576 322.165035 
L 294.189764 319.091414 
L 294.553671 316.017792 
L 294.861446 312.94417 
L 295.049395 309.870548 
L 295.119643 306.796927 
L 295.123145 303.723305 
L 295.118142 300.649683 
L 295.132594 297.576061 
L 295.152188 294.502439 
L 295.143709 291.428818 
L 295.086822 288.355196 
L 294.99673 285.281574 
L 294.926174 282.207952 
L 294.925235 279.134331 
L 294.992215 276.060709 
L 295.076403 272.987087 
L 295.126649 269.913465 
L 295.131513 266.839843 
L 295.118585 263.766222 
L 295.118189 260.6926 
L 295.127263 257.618978 
L 295.11841 254.545356 
L 295.083201 251.471735 
L 295.048006 248.398113 
L 295.040537 245.324491 
L 295.056976 242.250869 
L 295.078622 239.177247 
L 295.103511 236.103626 
L 295.136613 233.030004 
L 295.169086 229.956382 
L 295.189367 226.88276 
L 295.197471 223.809139 
L 295.199587 220.735517 
L 295.199954 217.661895 
L 295.199996 214.588273 
L 295.2 211.514651 
L 295.2 208.44103 
L 295.2 205.367408 
L 295.2 202.293786 
L 295.2 199.220164 
L 295.2 196.146543 
L 295.2 193.072921 
L 295.2 189.999299 
L 295.2 186.925677 
L 295.2 183.852055 
L 295.2 180.778434 
L 295.2 177.704812 
L 295.2 174.63119 
L 295.2 171.557568 
L 295.2 168.483947 
L 295.2 165.410325 
L 295.2 162.336703 
L 295.2 159.263081 
L 295.2 156.189459 
L 295.2 153.115838 
L 295.2 150.042216 
L 295.2 146.968594 
L 295.2 143.894972 
L 295.2 140.82135 
L 295.2 137.747729 
L 295.2 134.674107 
L 295.2 131.600485 
L 295.2 128.526863 
L 295.2 125.453242 
L 295.2 122.37962 
L 295.199999 119.305998 
L 295.199989 116.232376 
L 295.199855 113.158754 
L 295.198733 110.085133 
L 295.192281 107.011511 
L 295.166989 103.937889 
L 295.099722 100.864267 
L 294.979784 97.790646 
L 294.8413 94.717024 
L 294.750337 91.643402 
L 294.744545 88.56978 
L 294.808877 85.496158 
L 294.909513 82.422537 
L 295.01334 79.348915 
L 295.080673 76.275293 
L 295.085932 73.201671 
L 295.052987 70.12805 
L 295.040179 67.054428 
L 295.359821 67.054428 
L 295.359821 67.054428 
L 295.347013 70.12805 
L 295.314068 73.201671 
L 295.319327 76.275293 
L 295.38666 79.348915 
L 295.490487 82.422537 
L 295.591123 85.496158 
L 295.655455 88.56978 
L 295.649663 91.643402 
L 295.5587 94.717024 
L 295.420216 97.790646 
L 295.300278 100.864267 
L 295.233011 103.937889 
L 295.207719 107.011511 
L 295.201267 110.085133 
L 295.200145 113.158754 
L 295.200011 116.232376 
L 295.200001 119.305998 
L 295.2 122.37962 
L 295.2 125.453242 
L 295.2 128.526863 
L 295.2 131.600485 
L 295.2 134.674107 
L 295.2 137.747729 
L 295.2 140.82135 
L 295.2 143.894972 
L 295.2 146.968594 
L 295.2 150.042216 
L 295.2 153.115838 
L 295.2 156.189459 
L 295.2 159.263081 
L 295.2 162.336703 
L 295.2 165.410325 
L 295.2 168.483947 
L 295.2 171.557568 
L 295.2 174.63119 
L 295.2 177.704812 
L 295.2 180.778434 
L 295.2 183.852055 
L 295.2 186.925677 
L 295.2 189.999299 
L 295.2 193.072921 
L 295.2 196.146543 
L 295.2 199.220164 
L 295.2 202.293786 
L 295.2 205.367408 
L 295.2 208.44103 
L 295.2 211.514651 
L 295.200004 214.588273 
L 295.200046 217.661895 
L 295.200413 220.735517 
L 295.202529 223.809139 
L 295.210633 226.88276 
L 295.230914 229.956382 
L 295.263387 233.030004 
L 295.296489 236.103626 
L 295.321378 239.177247 
L 295.343024 242.250869 
L 295.359463 245.324491 
L 295.351994 248.398113 
L 295.316799 251.471735 
L 295.28159 254.545356 
L 295.272737 257.618978 
L 295.281811 260.6926 
L 295.281415 263.766222 
L 295.268487 266.839843 
L 295.273351 269.913465 
L 295.323597 272.987087 
L 295.407785 276.060709 
L 295.474765 279.134331 
L 295.473826 282.207952 
L 295.40327 285.281574 
L 295.313178 288.355196 
L 295.256291 291.428818 
L 295.247812 294.502439 
L 295.267406 297.576061 
L 295.281858 300.649683 
L 295.276855 303.723305 
L 295.280357 306.796927 
L 295.350605 309.870548 
L 295.538554 312.94417 
L 295.846329 316.017792 
L 296.210236 319.091414 
L 296.551424 322.165035 
L 296.879964 325.238657 
L 297.351964 328.312279 
L 298.173717 331.385901 
L 299.380861 334.459523 
L 300.719013 337.533144 
L 301.849565 340.606766 
L 302.816354 343.680388 
L 304.363716 346.75401 
L 307.836426 349.827631 
L 315.140654 352.901253 
L 329.102122 355.974875 
L 352.584635 359.048497 
L 383.196015 362.122119 
L 406.8 365.19574 
L 404.674543 368.269362 
L 374.897966 371.342984 
z
" clip-path="url(#p44ba5d48f7)" style="fill: #1f77b4; fill-opacity: 0.3"/>
   </g>
   <g id="matplotlib.axis_1">
    <g id="xtick_1">
     <g id="line2d_1">
      <defs>
       <path id="m31a59756d6" d="M 0 0 
L 0 3.5 
" style="stroke: #000000; stroke-width: 0.8"/>
      </defs>
      <g>
       <use xlink:href="#m31a59756d6" x="295.2" y="384.48" style="stroke: #000000; stroke-width: 0.8"/>
      </g>
     </g>
     <g id="text_1">
      <!-- 1 -->
      <g transform="translate(292.01875 399.078438) scale(0.1 -0.1)">
       <defs>
        <path id="DejaVuSans-31" d="M 794 531 
L 1825 531 
L 1825 4091 
L 703 3866 
L 703 4441 
L 1819 4666 
L 2450 4666 
L 2450 531 
L 3481 531 
L 3481 0 
L 794 0 
L 794 531 
z
" transform="scale(0.015625)"/>
       </defs>
       <use xlink:href="#DejaVuSans-31"/>
      </g>
     </g>
    </g>
   </g>
   <g id="matplotlib.axis_2">
    <g id="ytick_1">
     <g id="line2d_2">
      <defs>
       <path id="mfd085e2d19" d="M 0 0 
L -3.5 0 
" style="stroke: #000000; stroke-width: 0.8"/>
      </defs>
      <g>
       <use xlink:href="#mfd085e2d19" x="72" y="384.48" style="stroke: #000000; stroke-width: 0.8"/>
      </g>
     </g>
     <g id="text_2">
      <!-- 0 -->
      <g transform="translate(58.6375 388.279219) scale(0.1 -0.1)">
       <defs>
        <path id="DejaVuSans-30" d="M 2034 4250 
Q 1547 4250 1301 3770 
Q 1056 3291 1056 2328 
Q 1056 1369 1301 889 
Q 1547 409 2034 409 
Q 2525 409 2770 889 
Q 3016 1369 3016 2328 
Q 3016 3291 2770 3770 
Q 2525 4250 2034 4250 
z
M 2034 4750 
Q 2819 4750 3233 4129 
Q 3647 3509 3647 2328 
Q 3647 1150 3233 529 
Q 2819 -91 2034 -91 
Q 1250 -91 836 529 
Q 422 1150 422 2328 
Q 422 3509 836 4129 
Q 1250 4750 2034 4750 
z
" transform="scale(0.015625)"/>
       </defs>
       <use xlink:href="#DejaVuSans-30"/>
      </g>
     </g>
    </g>
    <g id="ytick_2">
     <g id="line2d_3">
      <g>
       <use xlink:href="#mfd085e2d19" x="72" y="328.646954" style="stroke: #000000; stroke-width: 0.8"/>
      </g>
     </g>
     <g id="text_3">
      <!-- 20 -->
      <g transform="translate(52.275 332.446172) scale(0.1 -0.1)">
       <defs>
        <path id="DejaVuSans-32" d="M 1228 531 
L 3431 531 
L 3431 0 
L 469 0 
L 469 531 
Q 828 903 1448 1529 
Q 2069 2156 2228 2338 
Q 2531 2678 2651 2914 
Q 2772 3150 2772 3378 
Q 2772 3750 2511 3984 
Q 2250 4219 1831 4219 
Q 1534 4219 1204 4116 
Q 875 4013 500 3803 
L 500 4441 
Q 881 4594 1212 4672 
Q 1544 4750 1819 4750 
Q 2544 4750 2975 4387 
Q 3406 4025 3406 3419 
Q 3406 3131 3298 2873 
Q 3191 2616 2906 2266 
Q 2828 2175 2409 1742 
Q 1991 1309 1228 531 
z
" transform="scale(0.015625)"/>
       </defs>
       <use xlink:href="#DejaVuSans-32"/>
       <use xlink:href="#DejaVuSans-30" transform="translate(63.623047 0)"/>
      </g>
     </g>
    </g>
    <g id="ytick_3">
     <g id="line2d_4">
      <g>
       <use xlink:href="#mfd085e2d19" x="72" y="272.813907" style="stroke: #000000; stroke-width: 0.8"/>
      </g>
     </g>
     <g id="text_4">
      <!-- 40 -->
      <g transform="translate(52.275 276.613126) scale(0.1 -0.1)">
       <defs>
        <path id="DejaVuSans-34" d="M 2419 4116 
L 825 1625 
L 2419 1625 
L 2419 4116 
z
M 2253 4666 
L 3047 4666 
L 3047 1625 
L 3713 1625 
L 3713 1100 
L 3047 1100 
L 3047 0 
L 2419 0 
L 2419 1100 
L 313 1100 
L 313 1709 
L 2253 4666 
z
" transform="scale(0.015625)"/>
       </defs>
       <use xlink:href="#DejaVuSans-34"/>
       <use xlink:href="#DejaVuSans-30" transform="translate(63.623047 0)"/>
      </g>
     </g>
    </g>
    <g id="ytick_4">
     <g id="line2d_5">
      <g>
       <use xlink:href="#mfd085e2d19" x="72" y="216.980861" style="stroke: #000000; stroke-width: 0.8"/>
      </g>
     </g>
     <g id="text_5">
      <!-- 60 -->
      <g transform="translate(52.275 220.78008) scale(0.1 -0.1)">
       <defs>
        <path id="DejaVuSans-36" d="M 2113 2584 
Q 1688 2584 1439 2293 
Q 1191 2003 1191 1497 
Q 1191 994 1439 701 
Q 1688 409 2113 409 
Q 2538 409 2786 701 
Q 3034 994 3034 1497 
Q 3034 2003 2786 2293 
Q 2538 2584 2113 2584 
z
M 3366 4563 
L 3366 3988 
Q 3128 4100 2886 4159 
Q 2644 4219 2406 4219 
Q 1781 4219 1451 3797 
Q 1122 3375 1075 2522 
Q 1259 2794 1537 2939 
Q 1816 3084 2150 3084 
Q 2853 3084 3261 2657 
Q 3669 2231 3669 1497 
Q 3669 778 3244 343 
Q 2819 -91 2113 -91 
Q 1303 -91 875 529 
Q 447 1150 447 2328 
Q 447 3434 972 4092 
Q 1497 4750 2381 4750 
Q 2619 4750 2861 4703 
Q 3103 4656 3366 4563 
z
" transform="scale(0.015625)"/>
       </defs>
       <use xlink:href="#DejaVuSans-36"/>
       <use xlink:href="#DejaVuSans-30" transform="translate(63.623047 0)"/>
      </g>
     </g>
    </g>
    <g id="ytick_5">
     <g id="line2d_6">
      <g>
       <use xlink:href="#mfd085e2d19" x="72" y="161.147815" style="stroke: #000000; stroke-width: 0.8"/>
      </g>
     </g>
     <g id="text_6">
      <!-- 80 -->
      <g transform="translate(52.275 164.947033) scale(0.1 -0.1)">
       <defs>
        <path id="DejaVuSans-38" d="M 2034 2216 
Q 1584 2216 1326 1975 
Q 1069 1734 1069 1313 
Q 1069 891 1326 650 
Q 1584 409 2034 409 
Q 2484 409 2743 651 
Q 3003 894 3003 1313 
Q 3003 1734 2745 1975 
Q 2488 2216 2034 2216 
z
M 1403 2484 
Q 997 2584 770 2862 
Q 544 3141 544 3541 
Q 544 4100 942 4425 
Q 1341 4750 2034 4750 
Q 2731 4750 3128 4425 
Q 3525 4100 3525 3541 
Q 3525 3141 3298 2862 
Q 3072 2584 2669 2484 
Q 3125 2378 3379 2068 
Q 3634 1759 3634 1313 
Q 3634 634 3220 271 
Q 2806 -91 2034 -91 
Q 1263 -91 848 271 
Q 434 634 434 1313 
Q 434 1759 690 2068 
Q 947 2378 1403 2484 
z
M 1172 3481 
Q 1172 3119 1398 2916 
Q 1625 2713 2034 2713 
Q 2441 2713 2670 2916 
Q 2900 3119 2900 3481 
Q 2900 3844 2670 4047 
Q 2441 4250 2034 4250 
Q 1625 4250 1398 4047 
Q 1172 3844 1172 3481 
z
" transform="scale(0.015625)"/>
       </defs>
       <use xlink:href="#DejaVuSans-38"/>
       <use xlink:href="#DejaVuSans-30" transform="translate(63.623047 0)"/>
      </g>
     </g>
    </g>
    <g id="ytick_6">
     <g id="line2d_7">
      <g>
       <use xlink:href="#mfd085e2d19" x="72" y="105.314768" style="stroke: #000000; stroke-width: 0.8"/>
      </g>
     </g>
     <g id="text_7">
      <!-- 100 -->
      <g transform="translate(45.9125 109.113987) scale(0.1 -0.1)">
       <use xlink:href="#DejaVuSans-31"/>
       <use xlink:href="#DejaVuSans-30" transform="translate(63.623047 0)"/>
       <use xlink:href="#DejaVuSans-30" transform="translate(127.246094 0)"/>
      </g>
     </g>
    </g>
    <g id="text_8">
     <!-- Time (ms) -->
     <g transform="translate(39.832812 243.359219) rotate(-90) scale(0.1 -0.1)">
      <defs>
       <path id="DejaVuSans-54" d="M -19 4666 
L 3928 4666 
L 3928 4134 
L 2272 4134 
L 2272 0 
L 1638 0 
L 1638 4134 
L -19 4134 
L -19 4666 
z
" transform="scale(0.015625)"/>
       <path id="DejaVuSans-69" d="M 603 3500 
L 1178 3500 
L 1178 0 
L 603 0 
L 603 3500 
z
M 603 4863 
L 1178 4863 
L 1178 4134 
L 603 4134 
L 603 4863 
z
" transform="scale(0.015625)"/>
       <path id="DejaVuSans-6d" d="M 3328 2828 
Q 3544 3216 3844 3400 
Q 4144 3584 4550 3584 
Q 5097 3584 5394 3201 
Q 5691 2819 5691 2113 
L 5691 0 
L 5113 0 
L 5113 2094 
Q 5113 2597 4934 2840 
Q 4756 3084 4391 3084 
Q 3944 3084 3684 2787 
Q 3425 2491 3425 1978 
L 3425 0 
L 2847 0 
L 2847 2094 
Q 2847 2600 2669 2842 
Q 2491 3084 2119 3084 
Q 1678 3084 1418 2786 
Q 1159 2488 1159 1978 
L 1159 0 
L 581 0 
L 581 3500 
L 1159 3500 
L 1159 2956 
Q 1356 3278 1631 3431 
Q 1906 3584 2284 3584 
Q 2666 3584 2933 3390 
Q 3200 3197 3328 2828 
z
" transform="scale(0.015625)"/>
       <path id="DejaVuSans-65" d="M 3597 1894 
L 3597 1613 
L 953 1613 
Q 991 1019 1311 708 
Q 1631 397 2203 397 
Q 2534 397 2845 478 
Q 3156 559 3463 722 
L 3463 178 
Q 3153 47 2828 -22 
Q 2503 -91 2169 -91 
Q 1331 -91 842 396 
Q 353 884 353 1716 
Q 353 2575 817 3079 
Q 1281 3584 2069 3584 
Q 2775 3584 3186 3129 
Q 3597 2675 3597 1894 
z
M 3022 2063 
Q 3016 2534 2758 2815 
Q 2500 3097 2075 3097 
Q 1594 3097 1305 2825 
Q 1016 2553 972 2059 
L 3022 2063 
z
" transform="scale(0.015625)"/>
       <path id="DejaVuSans-20" transform="scale(0.015625)"/>
       <path id="DejaVuSans-28" d="M 1984 4856 
Q 1566 4138 1362 3434 
Q 1159 2731 1159 2009 
Q 1159 1288 1364 580 
Q 1569 -128 1984 -844 
L 1484 -844 
Q 1016 -109 783 600 
Q 550 1309 550 2009 
Q 550 2706 781 3412 
Q 1013 4119 1484 4856 
L 1984 4856 
z
" transform="scale(0.015625)"/>
       <path id="DejaVuSans-73" d="M 2834 3397 
L 2834 2853 
Q 2591 2978 2328 3040 
Q 2066 3103 1784 3103 
Q 1356 3103 1142 2972 
Q 928 2841 928 2578 
Q 928 2378 1081 2264 
Q 1234 2150 1697 2047 
L 1894 2003 
Q 2506 1872 2764 1633 
Q 3022 1394 3022 966 
Q 3022 478 2636 193 
Q 2250 -91 1575 -91 
Q 1294 -91 989 -36 
Q 684 19 347 128 
L 347 722 
Q 666 556 975 473 
Q 1284 391 1588 391 
Q 1994 391 2212 530 
Q 2431 669 2431 922 
Q 2431 1156 2273 1281 
Q 2116 1406 1581 1522 
L 1381 1569 
Q 847 1681 609 1914 
Q 372 2147 372 2553 
Q 372 3047 722 3315 
Q 1072 3584 1716 3584 
Q 2034 3584 2315 3537 
Q 2597 3491 2834 3397 
z
" transform="scale(0.015625)"/>
       <path id="DejaVuSans-29" d="M 513 4856 
L 1013 4856 
Q 1481 4119 1714 3412 
Q 1947 2706 1947 2009 
Q 1947 1309 1714 600 
Q 1481 -109 1013 -844 
L 513 -844 
Q 928 -128 1133 580 
Q 1338 1288 1338 2009 
Q 1338 2731 1133 3434 
Q 928 4138 513 4856 
z
" transform="scale(0.015625)"/>
      </defs>
      <use xlink:href="#DejaVuSans-54"/>
      <use xlink:href="#DejaVuSans-69" transform="translate(57.958984 0)"/>
      <use xlink:href="#DejaVuSans-6d" transform="translate(85.742188 0)"/>
      <use xlink:href="#DejaVuSans-65" transform="translate(183.154297 0)"/>
      <use xlink:href="#DejaVuSans-20" transform="translate(244.677734 0)"/>
      <use xlink:href="#DejaVuSans-28" transform="translate(276.464844 0)"/>
      <use xlink:href="#DejaVuSans-6d" transform="translate(315.478516 0)"/>
      <use xlink:href="#DejaVuSans-73" transform="translate(412.890625 0)"/>
      <use xlink:href="#DejaVuSans-29" transform="translate(464.990234 0)"/>
     </g>
    </g>
   </g>
   <g id="LineCollection_1">
    <path d="M 239.4 361.565295 
L 351 361.565295 
" clip-path="url(#p44ba5d48f7)" style="fill: none; stroke: #1f77b4; stroke-width: 1.5"/>
   </g>
   <g id="LineCollection_2">
    <path d="M 239.4 67.054428 
L 351 67.054428 
" clip-path="url(#p44ba5d48f7)" style="fill: none; stroke: #1f77b4; stroke-width: 1.5"/>
   </g>
   <g id="LineCollection_3">
    <path d="M 239.4 371.342984 
L 351 371.342984 
" clip-path="url(#p44ba5d48f7)" style="fill: none; stroke: #1f77b4; stroke-width: 1.5"/>
   </g>
   <g id="LineCollection_4">
    <path d="M 295.2 371.342984 
L 295.2 67.054428 
" clip-path="url(#p44ba5d48f7)" style="fill: none; stroke: #1f77b4; stroke-width: 1.5"/>
   </g>
   <g id="patch_3">
    <path d="M 250.56 368.117874 
L 339.84 368.117874 
L 339.84 362.353194 
L 250.56 362.353194 
L 250.56 368.117874 
z
" clip-path="url(#p44ba5d48f7)" style="fill: #1f77b4; stroke: #000000; stroke-linejoin: miter"/>
   </g>
   <g id="line2d_8">
    <path d="M 295.2 368.117874 
L 295.2 371.342984 
" clip-path="url(#p44ba5d48f7)" style="fill: none; stroke: #000000; stroke-linecap: square"/>
   </g>
   <g id="line2d_9">
    <path d="M 295.2 362.353194 
L 295.2 353.784429 
" clip-path="url(#p44ba5d48f7)" style="fill: none; stroke: #000000; stroke-linecap: square"/>
   </g>
   <g id="line2d_10">
    <path d="M 272.88 371.342984 
L 317.52 371.342984 
" clip-path="url(#p44ba5d48f7)" style="fill: none; stroke: #000000; stroke-linecap: square"/>
   </g>
   <g id="line2d_11">
    <path d="M 272.88 353.784429 
L 317.52 353.784429 
" clip-path="url(#p44ba5d48f7)" style="fill: none; stroke: #000000; stroke-linecap: square"/>
   </g>
   <g id="line2d_12">
    <defs>
     <path id="m2d057e00eb" d="M 0 3 
C 0.795609 3 1.55874 2.683901 2.12132 2.12132 
C 2.683901 1.55874 3 0.795609 3 0 
C 3 -0.795609 2.683901 -1.55874 2.12132 -2.12132 
C 1.55874 -2.683901 0.795609 -3 0 -3 
C -0.795609 -3 -1.55874 -2.683901 -2.12132 -2.12132 
C -2.683901 -1.55874 -3 -0.795609 -3 0 
C -3 0.795609 -2.683901 1.55874 -2.12132 2.12132 
C -1.55874 2.683901 -0.795609 3 0 3 
z
" style="stroke: #000000"/>
    </defs>
    <g clip-path="url(#p44ba5d48f7)">
     <use xlink:href="#m2d057e00eb" x="295.2" y="91.303901" style="fill-opacity: 0; stroke: #000000"/>
     <use xlink:href="#m2d057e00eb" x="295.2" y="315.42259" style="fill-opacity: 0; stroke: #000000"/>
     <use xlink:href="#m2d057e00eb" x="295.2" y="339.817714" style="fill-opacity: 0; stroke: #000000"/>
     <use xlink:href="#m2d057e00eb" x="295.2" y="339.67556" style="fill-opacity: 0; stroke: #000000"/>
     <use xlink:href="#m2d057e00eb" x="295.2" y="339.802751" style="fill-opacity: 0; stroke: #000000"/>
     <use xlink:href="#m2d057e00eb" x="295.2" y="332.219733" style="fill-opacity: 0; stroke: #000000"/>
     <use xlink:href="#m2d057e00eb" x="295.2" y="338.834223" style="fill-opacity: 0; stroke: #000000"/>
     <use xlink:href="#m2d057e00eb" x="295.2" y="336.963607" style="fill-opacity: 0; stroke: #000000"/>
     <use xlink:href="#m2d057e00eb" x="295.2" y="335.928219" style="fill-opacity: 0; stroke: #000000"/>
     <use xlink:href="#m2d057e00eb" x="295.2" y="300.797369" style="fill-opacity: 0; stroke: #000000"/>
     <use xlink:href="#m2d057e00eb" x="295.2" y="345.928716" style="fill-opacity: 0; stroke: #000000"/>
     <use xlink:href="#m2d057e00eb" x="295.2" y="347.563349" style="fill-opacity: 0; stroke: #000000"/>
     <use xlink:href="#m2d057e00eb" x="295.2" y="351.158936" style="fill-opacity: 0; stroke: #000000"/>
     <use xlink:href="#m2d057e00eb" x="295.2" y="352.091102" style="fill-opacity: 0; stroke: #000000"/>
     <use xlink:href="#m2d057e00eb" x="295.2" y="349.942532" style="fill-opacity: 0; stroke: #000000"/>
     <use xlink:href="#m2d057e00eb" x="295.2" y="353.182978" style="fill-opacity: 0; stroke: #000000"/>
     <use xlink:href="#m2d057e00eb" x="295.2" y="350.358552" style="fill-opacity: 0; stroke: #000000"/>
     <use xlink:href="#m2d057e00eb" x="295.2" y="341.014456" style="fill-opacity: 0; stroke: #000000"/>
     <use xlink:href="#m2d057e00eb" x="295.2" y="342.00728" style="fill-opacity: 0; stroke: #000000"/>
     <use xlink:href="#m2d057e00eb" x="295.2" y="353.059587" style="fill-opacity: 0; stroke: #000000"/>
     <use xlink:href="#m2d057e00eb" x="295.2" y="353.063499" style="fill-opacity: 0; stroke: #000000"/>
     <use xlink:href="#m2d057e00eb" x="295.2" y="344.139535" style="fill-opacity: 0; stroke: #000000"/>
     <use xlink:href="#m2d057e00eb" x="295.2" y="68.044605" style="fill-opacity: 0; stroke: #000000"/>
     <use xlink:href="#m2d057e00eb" x="295.2" y="321.01856" style="fill-opacity: 0; stroke: #000000"/>
     <use xlink:href="#m2d057e00eb" x="295.2" y="335.188233" style="fill-opacity: 0; stroke: #000000"/>
     <use xlink:href="#m2d057e00eb" x="295.2" y="340.706392" style="fill-opacity: 0; stroke: #000000"/>
     <use xlink:href="#m2d057e00eb" x="295.2" y="341.740758" style="fill-opacity: 0; stroke: #000000"/>
     <use xlink:href="#m2d057e00eb" x="295.2" y="324.96903" style="fill-opacity: 0; stroke: #000000"/>
     <use xlink:href="#m2d057e00eb" x="295.2" y="334.122808" style="fill-opacity: 0; stroke: #000000"/>
     <use xlink:href="#m2d057e00eb" x="295.2" y="329.665896" style="fill-opacity: 0; stroke: #000000"/>
     <use xlink:href="#m2d057e00eb" x="295.2" y="342.588005" style="fill-opacity: 0; stroke: #000000"/>
     <use xlink:href="#m2d057e00eb" x="295.2" y="277.115567" style="fill-opacity: 0; stroke: #000000"/>
     <use xlink:href="#m2d057e00eb" x="295.2" y="348.801014" style="fill-opacity: 0; stroke: #000000"/>
     <use xlink:href="#m2d057e00eb" x="295.2" y="347.674485" style="fill-opacity: 0; stroke: #000000"/>
     <use xlink:href="#m2d057e00eb" x="295.2" y="346.032485" style="fill-opacity: 0; stroke: #000000"/>
     <use xlink:href="#m2d057e00eb" x="295.2" y="350.885264" style="fill-opacity: 0; stroke: #000000"/>
     <use xlink:href="#m2d057e00eb" x="295.2" y="347.439606" style="fill-opacity: 0; stroke: #000000"/>
     <use xlink:href="#m2d057e00eb" x="295.2" y="345.582716" style="fill-opacity: 0; stroke: #000000"/>
     <use xlink:href="#m2d057e00eb" x="295.2" y="351.0115" style="fill-opacity: 0; stroke: #000000"/>
     <use xlink:href="#m2d057e00eb" x="295.2" y="334.622527" style="fill-opacity: 0; stroke: #000000"/>
     <use xlink:href="#m2d057e00eb" x="295.2" y="343.552828" style="fill-opacity: 0; stroke: #000000"/>
     <use xlink:href="#m2d057e00eb" x="295.2" y="340.928722" style="fill-opacity: 0; stroke: #000000"/>
     <use xlink:href="#m2d057e00eb" x="295.2" y="353.660278" style="fill-opacity: 0; stroke: #000000"/>
     <use xlink:href="#m2d057e00eb" x="295.2" y="87.647783" style="fill-opacity: 0; stroke: #000000"/>
     <use xlink:href="#m2d057e00eb" x="295.2" y="323.20128" style="fill-opacity: 0; stroke: #000000"/>
     <use xlink:href="#m2d057e00eb" x="295.2" y="334.552141" style="fill-opacity: 0; stroke: #000000"/>
     <use xlink:href="#m2d057e00eb" x="295.2" y="333.323384" style="fill-opacity: 0; stroke: #000000"/>
     <use xlink:href="#m2d057e00eb" x="295.2" y="341.746958" style="fill-opacity: 0; stroke: #000000"/>
     <use xlink:href="#m2d057e00eb" x="295.2" y="325.133542" style="fill-opacity: 0; stroke: #000000"/>
     <use xlink:href="#m2d057e00eb" x="295.2" y="337.52452" style="fill-opacity: 0; stroke: #000000"/>
     <use xlink:href="#m2d057e00eb" x="295.2" y="338.726868" style="fill-opacity: 0; stroke: #000000"/>
     <use xlink:href="#m2d057e00eb" x="295.2" y="342.767932" style="fill-opacity: 0; stroke: #000000"/>
     <use xlink:href="#m2d057e00eb" x="295.2" y="283.227251" style="fill-opacity: 0; stroke: #000000"/>
     <use xlink:href="#m2d057e00eb" x="295.2" y="350.189074" style="fill-opacity: 0; stroke: #000000"/>
     <use xlink:href="#m2d057e00eb" x="295.2" y="349.387026" style="fill-opacity: 0; stroke: #000000"/>
     <use xlink:href="#m2d057e00eb" x="295.2" y="350.960519" style="fill-opacity: 0; stroke: #000000"/>
     <use xlink:href="#m2d057e00eb" x="295.2" y="353.107347" style="fill-opacity: 0; stroke: #000000"/>
     <use xlink:href="#m2d057e00eb" x="295.2" y="351.844088" style="fill-opacity: 0; stroke: #000000"/>
     <use xlink:href="#m2d057e00eb" x="295.2" y="342.601664" style="fill-opacity: 0; stroke: #000000"/>
     <use xlink:href="#m2d057e00eb" x="295.2" y="328.763913" style="fill-opacity: 0; stroke: #000000"/>
     <use xlink:href="#m2d057e00eb" x="295.2" y="352.385814" style="fill-opacity: 0; stroke: #000000"/>
     <use xlink:href="#m2d057e00eb" x="295.2" y="88.133092" style="fill-opacity: 0; stroke: #000000"/>
     <use xlink:href="#m2d057e00eb" x="295.2" y="323.952947" style="fill-opacity: 0; stroke: #000000"/>
     <use xlink:href="#m2d057e00eb" x="295.2" y="339.733786" style="fill-opacity: 0; stroke: #000000"/>
     <use xlink:href="#m2d057e00eb" x="295.2" y="340.410251" style="fill-opacity: 0; stroke: #000000"/>
     <use xlink:href="#m2d057e00eb" x="295.2" y="342.341131" style="fill-opacity: 0; stroke: #000000"/>
     <use xlink:href="#m2d057e00eb" x="295.2" y="329.332165" style="fill-opacity: 0; stroke: #000000"/>
     <use xlink:href="#m2d057e00eb" x="295.2" y="343.327706" style="fill-opacity: 0; stroke: #000000"/>
     <use xlink:href="#m2d057e00eb" x="295.2" y="333.417349" style="fill-opacity: 0; stroke: #000000"/>
     <use xlink:href="#m2d057e00eb" x="295.2" y="340.548753" style="fill-opacity: 0; stroke: #000000"/>
     <use xlink:href="#m2d057e00eb" x="295.2" y="282.519377" style="fill-opacity: 0; stroke: #000000"/>
     <use xlink:href="#m2d057e00eb" x="295.2" y="347.262922" style="fill-opacity: 0; stroke: #000000"/>
     <use xlink:href="#m2d057e00eb" x="295.2" y="340.467893" style="fill-opacity: 0; stroke: #000000"/>
     <use xlink:href="#m2d057e00eb" x="295.2" y="347.896558" style="fill-opacity: 0; stroke: #000000"/>
     <use xlink:href="#m2d057e00eb" x="295.2" y="353.199005" style="fill-opacity: 0; stroke: #000000"/>
     <use xlink:href="#m2d057e00eb" x="295.2" y="353.114254" style="fill-opacity: 0; stroke: #000000"/>
     <use xlink:href="#m2d057e00eb" x="295.2" y="352.629165" style="fill-opacity: 0; stroke: #000000"/>
     <use xlink:href="#m2d057e00eb" x="295.2" y="353.352596" style="fill-opacity: 0; stroke: #000000"/>
     <use xlink:href="#m2d057e00eb" x="295.2" y="348.244749" style="fill-opacity: 0; stroke: #000000"/>
     <use xlink:href="#m2d057e00eb" x="295.2" y="351.30107" style="fill-opacity: 0; stroke: #000000"/>
     <use xlink:href="#m2d057e00eb" x="295.2" y="338.59597" style="fill-opacity: 0; stroke: #000000"/>
     <use xlink:href="#m2d057e00eb" x="295.2" y="94.421085" style="fill-opacity: 0; stroke: #000000"/>
     <use xlink:href="#m2d057e00eb" x="295.2" y="319.160322" style="fill-opacity: 0; stroke: #000000"/>
     <use xlink:href="#m2d057e00eb" x="295.2" y="337.234925" style="fill-opacity: 0; stroke: #000000"/>
     <use xlink:href="#m2d057e00eb" x="295.2" y="343.336028" style="fill-opacity: 0; stroke: #000000"/>
     <use xlink:href="#m2d057e00eb" x="295.2" y="344.492942" style="fill-opacity: 0; stroke: #000000"/>
     <use xlink:href="#m2d057e00eb" x="295.2" y="327.425648" style="fill-opacity: 0; stroke: #000000"/>
     <use xlink:href="#m2d057e00eb" x="295.2" y="342.267587" style="fill-opacity: 0; stroke: #000000"/>
     <use xlink:href="#m2d057e00eb" x="295.2" y="339.790024" style="fill-opacity: 0; stroke: #000000"/>
     <use xlink:href="#m2d057e00eb" x="295.2" y="341.457922" style="fill-opacity: 0; stroke: #000000"/>
     <use xlink:href="#m2d057e00eb" x="295.2" y="262.448636" style="fill-opacity: 0; stroke: #000000"/>
     <use xlink:href="#m2d057e00eb" x="295.2" y="351.196793" style="fill-opacity: 0; stroke: #000000"/>
     <use xlink:href="#m2d057e00eb" x="295.2" y="343.96834" style="fill-opacity: 0; stroke: #000000"/>
     <use xlink:href="#m2d057e00eb" x="295.2" y="350.599438" style="fill-opacity: 0; stroke: #000000"/>
     <use xlink:href="#m2d057e00eb" x="295.2" y="327.69964" style="fill-opacity: 0; stroke: #000000"/>
     <use xlink:href="#m2d057e00eb" x="295.2" y="350.893865" style="fill-opacity: 0; stroke: #000000"/>
     <use xlink:href="#m2d057e00eb" x="295.2" y="350.656299" style="fill-opacity: 0; stroke: #000000"/>
     <use xlink:href="#m2d057e00eb" x="295.2" y="339.116278" style="fill-opacity: 0; stroke: #000000"/>
     <use xlink:href="#m2d057e00eb" x="295.2" y="353.280404" style="fill-opacity: 0; stroke: #000000"/>
     <use xlink:href="#m2d057e00eb" x="295.2" y="343.296892" style="fill-opacity: 0; stroke: #000000"/>
     <use xlink:href="#m2d057e00eb" x="295.2" y="352.901203" style="fill-opacity: 0; stroke: #000000"/>
     <use xlink:href="#m2d057e00eb" x="295.2" y="91.41265" style="fill-opacity: 0; stroke: #000000"/>
     <use xlink:href="#m2d057e00eb" x="295.2" y="317.62486" style="fill-opacity: 0; stroke: #000000"/>
     <use xlink:href="#m2d057e00eb" x="295.2" y="339.711115" style="fill-opacity: 0; stroke: #000000"/>
     <use xlink:href="#m2d057e00eb" x="295.2" y="341.975522" style="fill-opacity: 0; stroke: #000000"/>
     <use xlink:href="#m2d057e00eb" x="295.2" y="341.086704" style="fill-opacity: 0; stroke: #000000"/>
     <use xlink:href="#m2d057e00eb" x="295.2" y="323.701773" style="fill-opacity: 0; stroke: #000000"/>
     <use xlink:href="#m2d057e00eb" x="295.2" y="336.890064" style="fill-opacity: 0; stroke: #000000"/>
     <use xlink:href="#m2d057e00eb" x="295.2" y="331.878903" style="fill-opacity: 0; stroke: #000000"/>
     <use xlink:href="#m2d057e00eb" x="295.2" y="342.614386" style="fill-opacity: 0; stroke: #000000"/>
     <use xlink:href="#m2d057e00eb" x="295.2" y="245.252094" style="fill-opacity: 0; stroke: #000000"/>
     <use xlink:href="#m2d057e00eb" x="295.2" y="343.422078" style="fill-opacity: 0; stroke: #000000"/>
     <use xlink:href="#m2d057e00eb" x="295.2" y="344.341902" style="fill-opacity: 0; stroke: #000000"/>
     <use xlink:href="#m2d057e00eb" x="295.2" y="345.942049" style="fill-opacity: 0; stroke: #000000"/>
     <use xlink:href="#m2d057e00eb" x="295.2" y="344.266419" style="fill-opacity: 0; stroke: #000000"/>
     <use xlink:href="#m2d057e00eb" x="295.2" y="344.374612" style="fill-opacity: 0; stroke: #000000"/>
     <use xlink:href="#m2d057e00eb" x="295.2" y="351.358519" style="fill-opacity: 0; stroke: #000000"/>
     <use xlink:href="#m2d057e00eb" x="295.2" y="337.651917" style="fill-opacity: 0; stroke: #000000"/>
     <use xlink:href="#m2d057e00eb" x="295.2" y="342.977865" style="fill-opacity: 0; stroke: #000000"/>
     <use xlink:href="#m2d057e00eb" x="295.2" y="351.01997" style="fill-opacity: 0; stroke: #000000"/>
     <use xlink:href="#m2d057e00eb" x="295.2" y="352.148967" style="fill-opacity: 0; stroke: #000000"/>
     <use xlink:href="#m2d057e00eb" x="295.2" y="94.306532" style="fill-opacity: 0; stroke: #000000"/>
     <use xlink:href="#m2d057e00eb" x="295.2" y="320.07164" style="fill-opacity: 0; stroke: #000000"/>
     <use xlink:href="#m2d057e00eb" x="295.2" y="336.671483" style="fill-opacity: 0; stroke: #000000"/>
     <use xlink:href="#m2d057e00eb" x="295.2" y="335.892737" style="fill-opacity: 0; stroke: #000000"/>
     <use xlink:href="#m2d057e00eb" x="295.2" y="344.253731" style="fill-opacity: 0; stroke: #000000"/>
     <use xlink:href="#m2d057e00eb" x="295.2" y="328.865124" style="fill-opacity: 0; stroke: #000000"/>
     <use xlink:href="#m2d057e00eb" x="295.2" y="335.092432" style="fill-opacity: 0; stroke: #000000"/>
     <use xlink:href="#m2d057e00eb" x="295.2" y="333.934765" style="fill-opacity: 0; stroke: #000000"/>
     <use xlink:href="#m2d057e00eb" x="295.2" y="343.197319" style="fill-opacity: 0; stroke: #000000"/>
     <use xlink:href="#m2d057e00eb" x="295.2" y="236.930232" style="fill-opacity: 0; stroke: #000000"/>
     <use xlink:href="#m2d057e00eb" x="295.2" y="344.608081" style="fill-opacity: 0; stroke: #000000"/>
     <use xlink:href="#m2d057e00eb" x="295.2" y="348.136659" style="fill-opacity: 0; stroke: #000000"/>
     <use xlink:href="#m2d057e00eb" x="295.2" y="349.091974" style="fill-opacity: 0; stroke: #000000"/>
     <use xlink:href="#m2d057e00eb" x="295.2" y="351.685533" style="fill-opacity: 0; stroke: #000000"/>
     <use xlink:href="#m2d057e00eb" x="295.2" y="352.76329" style="fill-opacity: 0; stroke: #000000"/>
     <use xlink:href="#m2d057e00eb" x="295.2" y="350.138743" style="fill-opacity: 0; stroke: #000000"/>
     <use xlink:href="#m2d057e00eb" x="295.2" y="337.476018" style="fill-opacity: 0; stroke: #000000"/>
     <use xlink:href="#m2d057e00eb" x="295.2" y="342.011224" style="fill-opacity: 0; stroke: #000000"/>
     <use xlink:href="#m2d057e00eb" x="295.2" y="353.34696" style="fill-opacity: 0; stroke: #000000"/>
     <use xlink:href="#m2d057e00eb" x="295.2" y="353.633403" style="fill-opacity: 0; stroke: #000000"/>
     <use xlink:href="#m2d057e00eb" x="295.2" y="351.132524" style="fill-opacity: 0; stroke: #000000"/>
     <use xlink:href="#m2d057e00eb" x="295.2" y="82.1762" style="fill-opacity: 0; stroke: #000000"/>
     <use xlink:href="#m2d057e00eb" x="295.2" y="318.473165" style="fill-opacity: 0; stroke: #000000"/>
     <use xlink:href="#m2d057e00eb" x="295.2" y="339.798407" style="fill-opacity: 0; stroke: #000000"/>
     <use xlink:href="#m2d057e00eb" x="295.2" y="339.38931" style="fill-opacity: 0; stroke: #000000"/>
     <use xlink:href="#m2d057e00eb" x="295.2" y="341.247277" style="fill-opacity: 0; stroke: #000000"/>
     <use xlink:href="#m2d057e00eb" x="295.2" y="329.048449" style="fill-opacity: 0; stroke: #000000"/>
     <use xlink:href="#m2d057e00eb" x="295.2" y="333.96535" style="fill-opacity: 0; stroke: #000000"/>
     <use xlink:href="#m2d057e00eb" x="295.2" y="335.320583" style="fill-opacity: 0; stroke: #000000"/>
     <use xlink:href="#m2d057e00eb" x="295.2" y="335.168267" style="fill-opacity: 0; stroke: #000000"/>
     <use xlink:href="#m2d057e00eb" x="295.2" y="279.347973" style="fill-opacity: 0; stroke: #000000"/>
     <use xlink:href="#m2d057e00eb" x="295.2" y="347.246611" style="fill-opacity: 0; stroke: #000000"/>
     <use xlink:href="#m2d057e00eb" x="295.2" y="350.526283" style="fill-opacity: 0; stroke: #000000"/>
     <use xlink:href="#m2d057e00eb" x="295.2" y="349.126814" style="fill-opacity: 0; stroke: #000000"/>
     <use xlink:href="#m2d057e00eb" x="295.2" y="351.493222" style="fill-opacity: 0; stroke: #000000"/>
     <use xlink:href="#m2d057e00eb" x="295.2" y="349.85228" style="fill-opacity: 0; stroke: #000000"/>
     <use xlink:href="#m2d057e00eb" x="295.2" y="350.554953" style="fill-opacity: 0; stroke: #000000"/>
     <use xlink:href="#m2d057e00eb" x="295.2" y="351.683775" style="fill-opacity: 0; stroke: #000000"/>
     <use xlink:href="#m2d057e00eb" x="295.2" y="345.816137" style="fill-opacity: 0; stroke: #000000"/>
     <use xlink:href="#m2d057e00eb" x="295.2" y="334.920366" style="fill-opacity: 0; stroke: #000000"/>
     <use xlink:href="#m2d057e00eb" x="295.2" y="349.292459" style="fill-opacity: 0; stroke: #000000"/>
     <use xlink:href="#m2d057e00eb" x="295.2" y="352.390113" style="fill-opacity: 0; stroke: #000000"/>
     <use xlink:href="#m2d057e00eb" x="295.2" y="348.06313" style="fill-opacity: 0; stroke: #000000"/>
     <use xlink:href="#m2d057e00eb" x="295.2" y="83.04092" style="fill-opacity: 0; stroke: #000000"/>
     <use xlink:href="#m2d057e00eb" x="295.2" y="323.044264" style="fill-opacity: 0; stroke: #000000"/>
     <use xlink:href="#m2d057e00eb" x="295.2" y="338.861445" style="fill-opacity: 0; stroke: #000000"/>
     <use xlink:href="#m2d057e00eb" x="295.2" y="337.899316" style="fill-opacity: 0; stroke: #000000"/>
     <use xlink:href="#m2d057e00eb" x="295.2" y="347.175499" style="fill-opacity: 0; stroke: #000000"/>
     <use xlink:href="#m2d057e00eb" x="295.2" y="326.984357" style="fill-opacity: 0; stroke: #000000"/>
     <use xlink:href="#m2d057e00eb" x="295.2" y="344.346374" style="fill-opacity: 0; stroke: #000000"/>
     <use xlink:href="#m2d057e00eb" x="295.2" y="342.633609" style="fill-opacity: 0; stroke: #000000"/>
     <use xlink:href="#m2d057e00eb" x="295.2" y="347.994067" style="fill-opacity: 0; stroke: #000000"/>
     <use xlink:href="#m2d057e00eb" x="295.2" y="323.282637" style="fill-opacity: 0; stroke: #000000"/>
     <use xlink:href="#m2d057e00eb" x="295.2" y="350.69364" style="fill-opacity: 0; stroke: #000000"/>
     <use xlink:href="#m2d057e00eb" x="295.2" y="350.0636" style="fill-opacity: 0; stroke: #000000"/>
     <use xlink:href="#m2d057e00eb" x="295.2" y="349.697659" style="fill-opacity: 0; stroke: #000000"/>
     <use xlink:href="#m2d057e00eb" x="295.2" y="351.67162" style="fill-opacity: 0; stroke: #000000"/>
     <use xlink:href="#m2d057e00eb" x="295.2" y="339.274425" style="fill-opacity: 0; stroke: #000000"/>
     <use xlink:href="#m2d057e00eb" x="295.2" y="341.902721" style="fill-opacity: 0; stroke: #000000"/>
     <use xlink:href="#m2d057e00eb" x="295.2" y="352.418032" style="fill-opacity: 0; stroke: #000000"/>
     <use xlink:href="#m2d057e00eb" x="295.2" y="67.054428" style="fill-opacity: 0; stroke: #000000"/>
     <use xlink:href="#m2d057e00eb" x="295.2" y="320.85184" style="fill-opacity: 0; stroke: #000000"/>
     <use xlink:href="#m2d057e00eb" x="295.2" y="337.220687" style="fill-opacity: 0; stroke: #000000"/>
     <use xlink:href="#m2d057e00eb" x="295.2" y="339.456597" style="fill-opacity: 0; stroke: #000000"/>
     <use xlink:href="#m2d057e00eb" x="295.2" y="344.884758" style="fill-opacity: 0; stroke: #000000"/>
     <use xlink:href="#m2d057e00eb" x="295.2" y="332.585989" style="fill-opacity: 0; stroke: #000000"/>
     <use xlink:href="#m2d057e00eb" x="295.2" y="341.919532" style="fill-opacity: 0; stroke: #000000"/>
     <use xlink:href="#m2d057e00eb" x="295.2" y="336.764155" style="fill-opacity: 0; stroke: #000000"/>
     <use xlink:href="#m2d057e00eb" x="295.2" y="345.952856" style="fill-opacity: 0; stroke: #000000"/>
     <use xlink:href="#m2d057e00eb" x="295.2" y="249.136718" style="fill-opacity: 0; stroke: #000000"/>
     <use xlink:href="#m2d057e00eb" x="295.2" y="350.659601" style="fill-opacity: 0; stroke: #000000"/>
     <use xlink:href="#m2d057e00eb" x="295.2" y="348.593173" style="fill-opacity: 0; stroke: #000000"/>
     <use xlink:href="#m2d057e00eb" x="295.2" y="350.454577" style="fill-opacity: 0; stroke: #000000"/>
     <use xlink:href="#m2d057e00eb" x="295.2" y="350.724448" style="fill-opacity: 0; stroke: #000000"/>
     <use xlink:href="#m2d057e00eb" x="295.2" y="349.475458" style="fill-opacity: 0; stroke: #000000"/>
     <use xlink:href="#m2d057e00eb" x="295.2" y="346.895069" style="fill-opacity: 0; stroke: #000000"/>
     <use xlink:href="#m2d057e00eb" x="295.2" y="352.874241" style="fill-opacity: 0; stroke: #000000"/>
     <use xlink:href="#m2d057e00eb" x="295.2" y="336.316949" style="fill-opacity: 0; stroke: #000000"/>
     <use xlink:href="#m2d057e00eb" x="295.2" y="344.592902" style="fill-opacity: 0; stroke: #000000"/>
    </g>
   </g>
   <g id="line2d_13">
    <path d="M 250.56 366.387054 
L 339.84 366.387054 
" clip-path="url(#p44ba5d48f7)" style="fill: none; stroke: #ff7f0e"/>
   </g>
   <g id="patch_4">
    <path d="M 72 384.48 
L 72 51.84 
" style="fill: none; stroke: #000000; stroke-width: 0.8; stroke-linejoin: miter; stroke-linecap: square"/>
   </g>
   <g id="patch_5">
    <path d="M 518.4 384.48 
L 518.4 51.84 
" style="fill: none; stroke: #000000; stroke-width: 0.8; stroke-linejoin: miter; stroke-linecap: square"/>
   </g>
   <g id="patch_6">
    <path d="M 72 384.48 
L 518.4 384.48 
" style="fill: none; stroke: #000000; stroke-width: 0.8; stroke-linejoin: miter; stroke-linecap: square"/>
   </g>
   <g id="patch_7">
    <path d="M 72 51.84 
L 518.4 51.84 
" style="fill: none; stroke: #000000; stroke-width: 0.8; stroke-linejoin: miter; stroke-linecap: square"/>
   </g>
   <g id="text_9">
    <!-- Get Trace With Delay -->
    <g transform="translate(232.04625 45.84) scale(0.12 -0.12)">
     <defs>
      <path id="DejaVuSans-47" d="M 3809 666 
L 3809 1919 
L 2778 1919 
L 2778 2438 
L 4434 2438 
L 4434 434 
Q 4069 175 3628 42 
Q 3188 -91 2688 -91 
Q 1594 -91 976 548 
Q 359 1188 359 2328 
Q 359 3472 976 4111 
Q 1594 4750 2688 4750 
Q 3144 4750 3555 4637 
Q 3966 4525 4313 4306 
L 4313 3634 
Q 3963 3931 3569 4081 
Q 3175 4231 2741 4231 
Q 1884 4231 1454 3753 
Q 1025 3275 1025 2328 
Q 1025 1384 1454 906 
Q 1884 428 2741 428 
Q 3075 428 3337 486 
Q 3600 544 3809 666 
z
" transform="scale(0.015625)"/>
      <path id="DejaVuSans-74" d="M 1172 4494 
L 1172 3500 
L 2356 3500 
L 2356 3053 
L 1172 3053 
L 1172 1153 
Q 1172 725 1289 603 
Q 1406 481 1766 481 
L 2356 481 
L 2356 0 
L 1766 0 
Q 1100 0 847 248 
Q 594 497 594 1153 
L 594 3053 
L 172 3053 
L 172 3500 
L 594 3500 
L 594 4494 
L 1172 4494 
z
" transform="scale(0.015625)"/>
      <path id="DejaVuSans-72" d="M 2631 2963 
Q 2534 3019 2420 3045 
Q 2306 3072 2169 3072 
Q 1681 3072 1420 2755 
Q 1159 2438 1159 1844 
L 1159 0 
L 581 0 
L 581 3500 
L 1159 3500 
L 1159 2956 
Q 1341 3275 1631 3429 
Q 1922 3584 2338 3584 
Q 2397 3584 2469 3576 
Q 2541 3569 2628 3553 
L 2631 2963 
z
" transform="scale(0.015625)"/>
      <path id="DejaVuSans-61" d="M 2194 1759 
Q 1497 1759 1228 1600 
Q 959 1441 959 1056 
Q 959 750 1161 570 
Q 1363 391 1709 391 
Q 2188 391 2477 730 
Q 2766 1069 2766 1631 
L 2766 1759 
L 2194 1759 
z
M 3341 1997 
L 3341 0 
L 2766 0 
L 2766 531 
Q 2569 213 2275 61 
Q 1981 -91 1556 -91 
Q 1019 -91 701 211 
Q 384 513 384 1019 
Q 384 1609 779 1909 
Q 1175 2209 1959 2209 
L 2766 2209 
L 2766 2266 
Q 2766 2663 2505 2880 
Q 2244 3097 1772 3097 
Q 1472 3097 1187 3025 
Q 903 2953 641 2809 
L 641 3341 
Q 956 3463 1253 3523 
Q 1550 3584 1831 3584 
Q 2591 3584 2966 3190 
Q 3341 2797 3341 1997 
z
" transform="scale(0.015625)"/>
      <path id="DejaVuSans-63" d="M 3122 3366 
L 3122 2828 
Q 2878 2963 2633 3030 
Q 2388 3097 2138 3097 
Q 1578 3097 1268 2742 
Q 959 2388 959 1747 
Q 959 1106 1268 751 
Q 1578 397 2138 397 
Q 2388 397 2633 464 
Q 2878 531 3122 666 
L 3122 134 
Q 2881 22 2623 -34 
Q 2366 -91 2075 -91 
Q 1284 -91 818 406 
Q 353 903 353 1747 
Q 353 2603 823 3093 
Q 1294 3584 2113 3584 
Q 2378 3584 2631 3529 
Q 2884 3475 3122 3366 
z
" transform="scale(0.015625)"/>
      <path id="DejaVuSans-57" d="M 213 4666 
L 850 4666 
L 1831 722 
L 2809 4666 
L 3519 4666 
L 4500 722 
L 5478 4666 
L 6119 4666 
L 4947 0 
L 4153 0 
L 3169 4050 
L 2175 0 
L 1381 0 
L 213 4666 
z
" transform="scale(0.015625)"/>
      <path id="DejaVuSans-68" d="M 3513 2113 
L 3513 0 
L 2938 0 
L 2938 2094 
Q 2938 2591 2744 2837 
Q 2550 3084 2163 3084 
Q 1697 3084 1428 2787 
Q 1159 2491 1159 1978 
L 1159 0 
L 581 0 
L 581 4863 
L 1159 4863 
L 1159 2956 
Q 1366 3272 1645 3428 
Q 1925 3584 2291 3584 
Q 2894 3584 3203 3211 
Q 3513 2838 3513 2113 
z
" transform="scale(0.015625)"/>
      <path id="DejaVuSans-44" d="M 1259 4147 
L 1259 519 
L 2022 519 
Q 2988 519 3436 956 
Q 3884 1394 3884 2338 
Q 3884 3275 3436 3711 
Q 2988 4147 2022 4147 
L 1259 4147 
z
M 628 4666 
L 1925 4666 
Q 3281 4666 3915 4102 
Q 4550 3538 4550 2338 
Q 4550 1131 3912 565 
Q 3275 0 1925 0 
L 628 0 
L 628 4666 
z
" transform="scale(0.015625)"/>
      <path id="DejaVuSans-6c" d="M 603 4863 
L 1178 4863 
L 1178 0 
L 603 0 
L 603 4863 
z
" transform="scale(0.015625)"/>
      <path id="DejaVuSans-79" d="M 2059 -325 
Q 1816 -950 1584 -1140 
Q 1353 -1331 966 -1331 
L 506 -1331 
L 506 -850 
L 844 -850 
Q 1081 -850 1212 -737 
Q 1344 -625 1503 -206 
L 1606 56 
L 191 3500 
L 800 3500 
L 1894 763 
L 2988 3500 
L 3597 3500 
L 2059 -325 
z
" transform="scale(0.015625)"/>
     </defs>
     <use xlink:href="#DejaVuSans-47"/>
     <use xlink:href="#DejaVuSans-65" transform="translate(77.490234 0)"/>
     <use xlink:href="#DejaVuSans-74" transform="translate(139.013672 0)"/>
     <use xlink:href="#DejaVuSans-20" transform="translate(178.222656 0)"/>
     <use xlink:href="#DejaVuSans-54" transform="translate(210.009766 0)"/>
     <use xlink:href="#DejaVuSans-72" transform="translate(256.34375 0)"/>
     <use xlink:href="#DejaVuSans-61" transform="translate(297.457031 0)"/>
     <use xlink:href="#DejaVuSans-63" transform="translate(358.736328 0)"/>
     <use xlink:href="#DejaVuSans-65" transform="translate(413.716797 0)"/>
     <use xlink:href="#DejaVuSans-20" transform="translate(475.240234 0)"/>
     <use xlink:href="#DejaVuSans-57" transform="translate(507.027344 0)"/>
     <use xlink:href="#DejaVuSans-69" transform="translate(603.654297 0)"/>
     <use xlink:href="#DejaVuSans-74" transform="translate(631.4375 0)"/>
     <use xlink:href="#DejaVuSans-68" transform="translate(670.646484 0)"/>
     <use xlink:href="#DejaVuSans-20" transform="translate(734.025391 0)"/>
     <use xlink:href="#DejaVuSans-44" transform="translate(765.8125 0)"/>
     <use xlink:href="#DejaVuSans-65" transform="translate(842.814453 0)"/>
     <use xlink:href="#DejaVuSans-6c" transform="translate(904.337891 0)"/>
     <use xlink:href="#DejaVuSans-61" transform="translate(932.121094 0)"/>
     <use xlink:href="#DejaVuSans-79" transform="translate(993.400391 0)"/>
    </g>
   </g>
  </g>
 </g>
 <defs>
  <clipPath id="p44ba5d48f7">
   <rect x="72" y="51.84" width="446.4" height="332.64"/>
  </clipPath>
 </defs>
</svg>
