<?xml version="1.0" encoding="utf-8" standalone="no"?>
<!DOCTYPE svg PUBLIC "-//W3C//DTD SVG 1.1//EN"
  "http://www.w3.org/Graphics/SVG/1.1/DTD/svg11.dtd">
<svg xmlns:xlink="http://www.w3.org/1999/xlink" width="576pt" height="432pt" viewBox="0 0 576 432" xmlns="http://www.w3.org/2000/svg" version="1.1">
 <metadata>
  <rdf:RDF xmlns:dc="http://purl.org/dc/elements/1.1/" xmlns:cc="http://creativecommons.org/ns#" xmlns:rdf="http://www.w3.org/1999/02/22-rdf-syntax-ns#">
   <cc:Work>
    <dc:type rdf:resource="http://purl.org/dc/dcmitype/StillImage"/>
    <dc:date>2025-09-30T20:43:05.559505</dc:date>
    <dc:format>image/svg+xml</dc:format>
    <dc:creator>
     <cc:Agent>
      <dc:title>Matplotlib v3.10.3, https://matplotlib.org/</dc:title>
     </cc:Agent>
    </dc:creator>
   </cc:Work>
  </rdf:RDF>
 </metadata>
 <defs>
  <style type="text/css">*{stroke-linejoin: round; stroke-linecap: butt}</style>
 </defs>
 <g id="figure_1">
  <g id="patch_1">
   <path d="M 0 432 
L 576 432 
L 576 0 
L 0 0 
z
" style="fill: #ffffff"/>
  </g>
  <g id="axes_1">
   <g id="patch_2">
    <path d="M 72 384.48 
L 518.4 384.48 
L 518.4 51.84 
L 72 51.84 
z
" style="fill: #ffffff"/>
   </g>
   <g id="FillBetweenPolyCollection_1">
    <path d="M 300.264346 342.172109 
L 290.135654 342.172109 
L 289.272682 339.379111 
L 289.46803 336.586113 
L 290.569618 333.793115 
L 291.952282 331.000118 
L 292.92504 328.20712 
L 293.040256 325.414122 
L 292.163966 322.621125 
L 290.494391 319.828127 
L 288.60506 317.035129 
L 287.303217 314.242132 
L 287.201573 311.449134 
L 288.324395 308.656136 
L 290.143794 305.863139 
L 291.990814 303.070141 
L 293.430927 300.277143 
L 294.352388 297.484146 
L 294.848315 294.691148 
L 295.069549 291.89815 
L 295.126878 289.105153 
L 295.02052 286.312155 
L 294.524631 283.519157 
L 292.96142 280.72616 
L 288.939023 277.933162 
L 280.431563 275.140164 
L 265.741927 272.347167 
L 245.282074 269.554169 
L 222.776922 266.761171 
L 204.081064 263.968174 
L 193.799307 261.175176 
L 192.557124 258.382178 
L 197.376704 255.589181 
L 204.215404 252.796183 
L 209.800398 250.003185 
L 211.799919 247.210188 
L 208.882058 244.41719 
L 201.631913 241.624192 
L 192.934028 238.831194 
L 186.340087 236.038197 
L 183.6 233.245199 
L 183.985564 230.452201 
L 185.996892 227.659204 
L 189.326678 224.866206 
L 195.031399 222.073208 
L 204.125081 219.280211 
L 216.317375 216.487213 
L 230.062197 213.694215 
L 243.56796 210.901218 
L 255.635113 208.10822 
L 265.734074 205.315222 
L 273.706415 202.522225 
L 279.630281 199.729227 
L 283.822534 196.936229 
L 286.710321 194.143232 
L 288.631247 191.350234 
L 289.797975 188.557236 
L 290.416227 185.764239 
L 290.741546 182.971241 
L 290.992469 180.178243 
L 291.250359 177.385246 
L 291.473948 174.592248 
L 291.607698 171.79925 
L 291.682379 169.006253 
L 291.82802 166.213255 
L 292.178293 163.420257 
L 292.738327 160.62726 
L 293.350769 157.834262 
L 293.807695 155.041264 
L 294.001056 152.248266 
L 293.981908 149.455269 
L 293.902681 146.662271 
L 293.903839 143.869273 
L 294.029422 141.076276 
L 294.226011 138.283278 
L 294.407944 135.49028 
L 294.523103 132.697283 
L 294.57726 129.904285 
L 294.618163 127.111287 
L 294.694608 124.31829 
L 294.816276 121.525292 
L 294.947876 118.732294 
L 295.041196 115.939297 
L 295.070529 113.146299 
L 295.044581 110.353301 
L 294.997445 107.560304 
L 294.967601 104.767306 
L 294.972376 101.974308 
L 294.996076 99.181311 
L 295.007403 96.388313 
L 294.99253 93.595315 
L 294.969901 90.802318 
L 294.971155 88.00932 
L 295.009348 85.216322 
L 295.067716 82.423325 
L 295.115697 79.630327 
L 295.130184 76.837329 
L 295.104825 74.044332 
L 295.051281 71.251334 
L 294.997242 68.458336 
L 294.974524 65.665339 
L 295.425476 65.665339 
L 295.425476 65.665339 
L 295.402758 68.458336 
L 295.348719 71.251334 
L 295.295175 74.044332 
L 295.269816 76.837329 
L 295.284303 79.630327 
L 295.332284 82.423325 
L 295.390652 85.216322 
L 295.428845 88.00932 
L 295.430099 90.802318 
L 295.40747 93.595315 
L 295.392597 96.388313 
L 295.403924 99.181311 
L 295.427624 101.974308 
L 295.432399 104.767306 
L 295.402555 107.560304 
L 295.355419 110.353301 
L 295.329471 113.146299 
L 295.358804 115.939297 
L 295.452124 118.732294 
L 295.583724 121.525292 
L 295.705392 124.31829 
L 295.781837 127.111287 
L 295.82274 129.904285 
L 295.876897 132.697283 
L 295.992056 135.49028 
L 296.173989 138.283278 
L 296.370578 141.076276 
L 296.496161 143.869273 
L 296.497319 146.662271 
L 296.418092 149.455269 
L 296.398944 152.248266 
L 296.592305 155.041264 
L 297.049231 157.834262 
L 297.661673 160.62726 
L 298.221707 163.420257 
L 298.57198 166.213255 
L 298.717621 169.006253 
L 298.792302 171.79925 
L 298.926052 174.592248 
L 299.149641 177.385246 
L 299.407531 180.178243 
L 299.658454 182.971241 
L 299.983773 185.764239 
L 300.602025 188.557236 
L 301.768753 191.350234 
L 303.689679 194.143232 
L 306.577466 196.936229 
L 310.769719 199.729227 
L 316.693585 202.522225 
L 324.665926 205.315222 
L 334.764887 208.10822 
L 346.83204 210.901218 
L 360.337803 213.694215 
L 374.082625 216.487213 
L 386.274919 219.280211 
L 395.368601 222.073208 
L 401.073322 224.866206 
L 404.403108 227.659204 
L 406.414436 230.452201 
L 406.8 233.245199 
L 404.059913 236.038197 
L 397.465972 238.831194 
L 388.768087 241.624192 
L 381.517942 244.41719 
L 378.600081 247.210188 
L 380.599602 250.003185 
L 386.184596 252.796183 
L 393.023296 255.589181 
L 397.842876 258.382178 
L 396.600693 261.175176 
L 386.318936 263.968174 
L 367.623078 266.761171 
L 345.117926 269.554169 
L 324.658073 272.347167 
L 309.968437 275.140164 
L 301.460977 277.933162 
L 297.43858 280.72616 
L 295.875369 283.519157 
L 295.37948 286.312155 
L 295.273122 289.105153 
L 295.330451 291.89815 
L 295.551685 294.691148 
L 296.047612 297.484146 
L 296.969073 300.277143 
L 298.409186 303.070141 
L 300.256206 305.863139 
L 302.075605 308.656136 
L 303.198427 311.449134 
L 303.096783 314.242132 
L 301.79494 317.035129 
L 299.905609 319.828127 
L 298.236034 322.621125 
L 297.359744 325.414122 
L 297.47496 328.20712 
L 298.447718 331.000118 
L 299.830382 333.793115 
L 300.93197 336.586113 
L 301.127318 339.379111 
L 300.264346 342.172109 
z
" clip-path="url(#pdf01909b7d)" style="fill: #1f77b4; fill-opacity: 0.3"/>
   </g>
   <g id="matplotlib.axis_1">
    <g id="xtick_1">
     <g id="line2d_1">
      <defs>
       <path id="mb42f68852e" d="M 0 0 
L 0 3.5 
" style="stroke: #000000; stroke-width: 0.8"/>
      </defs>
      <g>
       <use xlink:href="#mb42f68852e" x="295.2" y="384.48" style="stroke: #000000; stroke-width: 0.8"/>
      </g>
     </g>
     <g id="text_1">
      <!-- 1 -->
      <g transform="translate(292.01875 399.078438) scale(0.1 -0.1)">
       <defs>
        <path id="DejaVuSans-31" d="M 794 531 
L 1825 531 
L 1825 4091 
L 703 3866 
L 703 4441 
L 1819 4666 
L 2450 4666 
L 2450 531 
L 3481 531 
L 3481 0 
L 794 0 
L 794 531 
z
" transform="scale(0.015625)"/>
       </defs>
       <use xlink:href="#DejaVuSans-31"/>
      </g>
     </g>
    </g>
   </g>
   <g id="matplotlib.axis_2">
    <g id="ytick_1">
     <g id="line2d_2">
      <defs>
       <path id="m675fd89b32" d="M 0 0 
L -3.5 0 
" style="stroke: #000000; stroke-width: 0.8"/>
      </defs>
      <g>
       <use xlink:href="#m675fd89b32" x="72" y="384.48" style="stroke: #000000; stroke-width: 0.8"/>
      </g>
     </g>
     <g id="text_2">
      <!-- 0 -->
      <g transform="translate(58.6375 388.279219) scale(0.1 -0.1)">
       <defs>
        <path id="DejaVuSans-30" d="M 2034 4250 
Q 1547 4250 1301 3770 
Q 1056 3291 1056 2328 
Q 1056 1369 1301 889 
Q 1547 409 2034 409 
Q 2525 409 2770 889 
Q 3016 1369 3016 2328 
Q 3016 3291 2770 3770 
Q 2525 4250 2034 4250 
z
M 2034 4750 
Q 2819 4750 3233 4129 
Q 3647 3509 3647 2328 
Q 3647 1150 3233 529 
Q 2819 -91 2034 -91 
Q 1250 -91 836 529 
Q 422 1150 422 2328 
Q 422 3509 836 4129 
Q 1250 4750 2034 4750 
z
" transform="scale(0.015625)"/>
       </defs>
       <use xlink:href="#DejaVuSans-30"/>
      </g>
     </g>
    </g>
    <g id="ytick_2">
     <g id="line2d_3">
      <g>
       <use xlink:href="#m675fd89b32" x="72" y="341.300544" style="stroke: #000000; stroke-width: 0.8"/>
      </g>
     </g>
     <g id="text_3">
      <!-- 10 -->
      <g transform="translate(52.275 345.099763) scale(0.1 -0.1)">
       <use xlink:href="#DejaVuSans-31"/>
       <use xlink:href="#DejaVuSans-30" transform="translate(63.623047 0)"/>
      </g>
     </g>
    </g>
    <g id="ytick_3">
     <g id="line2d_4">
      <g>
       <use xlink:href="#m675fd89b32" x="72" y="298.121088" style="stroke: #000000; stroke-width: 0.8"/>
      </g>
     </g>
     <g id="text_4">
      <!-- 20 -->
      <g transform="translate(52.275 301.920307) scale(0.1 -0.1)">
       <defs>
        <path id="DejaVuSans-32" d="M 1228 531 
L 3431 531 
L 3431 0 
L 469 0 
L 469 531 
Q 828 903 1448 1529 
Q 2069 2156 2228 2338 
Q 2531 2678 2651 2914 
Q 2772 3150 2772 3378 
Q 2772 3750 2511 3984 
Q 2250 4219 1831 4219 
Q 1534 4219 1204 4116 
Q 875 4013 500 3803 
L 500 4441 
Q 881 4594 1212 4672 
Q 1544 4750 1819 4750 
Q 2544 4750 2975 4387 
Q 3406 4025 3406 3419 
Q 3406 3131 3298 2873 
Q 3191 2616 2906 2266 
Q 2828 2175 2409 1742 
Q 1991 1309 1228 531 
z
" transform="scale(0.015625)"/>
       </defs>
       <use xlink:href="#DejaVuSans-32"/>
       <use xlink:href="#DejaVuSans-30" transform="translate(63.623047 0)"/>
      </g>
     </g>
    </g>
    <g id="ytick_4">
     <g id="line2d_5">
      <g>
       <use xlink:href="#m675fd89b32" x="72" y="254.941633" style="stroke: #000000; stroke-width: 0.8"/>
      </g>
     </g>
     <g id="text_5">
      <!-- 30 -->
      <g transform="translate(52.275 258.740851) scale(0.1 -0.1)">
       <defs>
        <path id="DejaVuSans-33" d="M 2597 2516 
Q 3050 2419 3304 2112 
Q 3559 1806 3559 1356 
Q 3559 666 3084 287 
Q 2609 -91 1734 -91 
Q 1441 -91 1130 -33 
Q 819 25 488 141 
L 488 750 
Q 750 597 1062 519 
Q 1375 441 1716 441 
Q 2309 441 2620 675 
Q 2931 909 2931 1356 
Q 2931 1769 2642 2001 
Q 2353 2234 1838 2234 
L 1294 2234 
L 1294 2753 
L 1863 2753 
Q 2328 2753 2575 2939 
Q 2822 3125 2822 3475 
Q 2822 3834 2567 4026 
Q 2313 4219 1838 4219 
Q 1578 4219 1281 4162 
Q 984 4106 628 3988 
L 628 4550 
Q 988 4650 1302 4700 
Q 1616 4750 1894 4750 
Q 2613 4750 3031 4423 
Q 3450 4097 3450 3541 
Q 3450 3153 3228 2886 
Q 3006 2619 2597 2516 
z
" transform="scale(0.015625)"/>
       </defs>
       <use xlink:href="#DejaVuSans-33"/>
       <use xlink:href="#DejaVuSans-30" transform="translate(63.623047 0)"/>
      </g>
     </g>
    </g>
    <g id="ytick_5">
     <g id="line2d_6">
      <g>
       <use xlink:href="#m675fd89b32" x="72" y="211.762177" style="stroke: #000000; stroke-width: 0.8"/>
      </g>
     </g>
     <g id="text_6">
      <!-- 40 -->
      <g transform="translate(52.275 215.561395) scale(0.1 -0.1)">
       <defs>
        <path id="DejaVuSans-34" d="M 2419 4116 
L 825 1625 
L 2419 1625 
L 2419 4116 
z
M 2253 4666 
L 3047 4666 
L 3047 1625 
L 3713 1625 
L 3713 1100 
L 3047 1100 
L 3047 0 
L 2419 0 
L 2419 1100 
L 313 1100 
L 313 1709 
L 2253 4666 
z
" transform="scale(0.015625)"/>
       </defs>
       <use xlink:href="#DejaVuSans-34"/>
       <use xlink:href="#DejaVuSans-30" transform="translate(63.623047 0)"/>
      </g>
     </g>
    </g>
    <g id="ytick_6">
     <g id="line2d_7">
      <g>
       <use xlink:href="#m675fd89b32" x="72" y="168.582721" style="stroke: #000000; stroke-width: 0.8"/>
      </g>
     </g>
     <g id="text_7">
      <!-- 50 -->
      <g transform="translate(52.275 172.38194) scale(0.1 -0.1)">
       <defs>
        <path id="DejaVuSans-35" d="M 691 4666 
L 3169 4666 
L 3169 4134 
L 1269 4134 
L 1269 2991 
Q 1406 3038 1543 3061 
Q 1681 3084 1819 3084 
Q 2600 3084 3056 2656 
Q 3513 2228 3513 1497 
Q 3513 744 3044 326 
Q 2575 -91 1722 -91 
Q 1428 -91 1123 -41 
Q 819 9 494 109 
L 494 744 
Q 775 591 1075 516 
Q 1375 441 1709 441 
Q 2250 441 2565 725 
Q 2881 1009 2881 1497 
Q 2881 1984 2565 2268 
Q 2250 2553 1709 2553 
Q 1456 2553 1204 2497 
Q 953 2441 691 2322 
L 691 4666 
z
" transform="scale(0.015625)"/>
       </defs>
       <use xlink:href="#DejaVuSans-35"/>
       <use xlink:href="#DejaVuSans-30" transform="translate(63.623047 0)"/>
      </g>
     </g>
    </g>
    <g id="ytick_7">
     <g id="line2d_8">
      <g>
       <use xlink:href="#m675fd89b32" x="72" y="125.403265" style="stroke: #000000; stroke-width: 0.8"/>
      </g>
     </g>
     <g id="text_8">
      <!-- 60 -->
      <g transform="translate(52.275 129.202484) scale(0.1 -0.1)">
       <defs>
        <path id="DejaVuSans-36" d="M 2113 2584 
Q 1688 2584 1439 2293 
Q 1191 2003 1191 1497 
Q 1191 994 1439 701 
Q 1688 409 2113 409 
Q 2538 409 2786 701 
Q 3034 994 3034 1497 
Q 3034 2003 2786 2293 
Q 2538 2584 2113 2584 
z
M 3366 4563 
L 3366 3988 
Q 3128 4100 2886 4159 
Q 2644 4219 2406 4219 
Q 1781 4219 1451 3797 
Q 1122 3375 1075 2522 
Q 1259 2794 1537 2939 
Q 1816 3084 2150 3084 
Q 2853 3084 3261 2657 
Q 3669 2231 3669 1497 
Q 3669 778 3244 343 
Q 2819 -91 2113 -91 
Q 1303 -91 875 529 
Q 447 1150 447 2328 
Q 447 3434 972 4092 
Q 1497 4750 2381 4750 
Q 2619 4750 2861 4703 
Q 3103 4656 3366 4563 
z
" transform="scale(0.015625)"/>
       </defs>
       <use xlink:href="#DejaVuSans-36"/>
       <use xlink:href="#DejaVuSans-30" transform="translate(63.623047 0)"/>
      </g>
     </g>
    </g>
    <g id="ytick_8">
     <g id="line2d_9">
      <g>
       <use xlink:href="#m675fd89b32" x="72" y="82.223809" style="stroke: #000000; stroke-width: 0.8"/>
      </g>
     </g>
     <g id="text_9">
      <!-- 70 -->
      <g transform="translate(52.275 86.023028) scale(0.1 -0.1)">
       <defs>
        <path id="DejaVuSans-37" d="M 525 4666 
L 3525 4666 
L 3525 4397 
L 1831 0 
L 1172 0 
L 2766 4134 
L 525 4134 
L 525 4666 
z
" transform="scale(0.015625)"/>
       </defs>
       <use xlink:href="#DejaVuSans-37"/>
       <use xlink:href="#DejaVuSans-30" transform="translate(63.623047 0)"/>
      </g>
     </g>
    </g>
    <g id="text_10">
     <!-- Time (ms) -->
     <g transform="translate(46.195312 243.359219) rotate(-90) scale(0.1 -0.1)">
      <defs>
       <path id="DejaVuSans-54" d="M -19 4666 
L 3928 4666 
L 3928 4134 
L 2272 4134 
L 2272 0 
L 1638 0 
L 1638 4134 
L -19 4134 
L -19 4666 
z
" transform="scale(0.015625)"/>
       <path id="DejaVuSans-69" d="M 603 3500 
L 1178 3500 
L 1178 0 
L 603 0 
L 603 3500 
z
M 603 4863 
L 1178 4863 
L 1178 4134 
L 603 4134 
L 603 4863 
z
" transform="scale(0.015625)"/>
       <path id="DejaVuSans-6d" d="M 3328 2828 
Q 3544 3216 3844 3400 
Q 4144 3584 4550 3584 
Q 5097 3584 5394 3201 
Q 5691 2819 5691 2113 
L 5691 0 
L 5113 0 
L 5113 2094 
Q 5113 2597 4934 2840 
Q 4756 3084 4391 3084 
Q 3944 3084 3684 2787 
Q 3425 2491 3425 1978 
L 3425 0 
L 2847 0 
L 2847 2094 
Q 2847 2600 2669 2842 
Q 2491 3084 2119 3084 
Q 1678 3084 1418 2786 
Q 1159 2488 1159 1978 
L 1159 0 
L 581 0 
L 581 3500 
L 1159 3500 
L 1159 2956 
Q 1356 3278 1631 3431 
Q 1906 3584 2284 3584 
Q 2666 3584 2933 3390 
Q 3200 3197 3328 2828 
z
" transform="scale(0.015625)"/>
       <path id="DejaVuSans-65" d="M 3597 1894 
L 3597 1613 
L 953 1613 
Q 991 1019 1311 708 
Q 1631 397 2203 397 
Q 2534 397 2845 478 
Q 3156 559 3463 722 
L 3463 178 
Q 3153 47 2828 -22 
Q 2503 -91 2169 -91 
Q 1331 -91 842 396 
Q 353 884 353 1716 
Q 353 2575 817 3079 
Q 1281 3584 2069 3584 
Q 2775 3584 3186 3129 
Q 3597 2675 3597 1894 
z
M 3022 2063 
Q 3016 2534 2758 2815 
Q 2500 3097 2075 3097 
Q 1594 3097 1305 2825 
Q 1016 2553 972 2059 
L 3022 2063 
z
" transform="scale(0.015625)"/>
       <path id="DejaVuSans-20" transform="scale(0.015625)"/>
       <path id="DejaVuSans-28" d="M 1984 4856 
Q 1566 4138 1362 3434 
Q 1159 2731 1159 2009 
Q 1159 1288 1364 580 
Q 1569 -128 1984 -844 
L 1484 -844 
Q 1016 -109 783 600 
Q 550 1309 550 2009 
Q 550 2706 781 3412 
Q 1013 4119 1484 4856 
L 1984 4856 
z
" transform="scale(0.015625)"/>
       <path id="DejaVuSans-73" d="M 2834 3397 
L 2834 2853 
Q 2591 2978 2328 3040 
Q 2066 3103 1784 3103 
Q 1356 3103 1142 2972 
Q 928 2841 928 2578 
Q 928 2378 1081 2264 
Q 1234 2150 1697 2047 
L 1894 2003 
Q 2506 1872 2764 1633 
Q 3022 1394 3022 966 
Q 3022 478 2636 193 
Q 2250 -91 1575 -91 
Q 1294 -91 989 -36 
Q 684 19 347 128 
L 347 722 
Q 666 556 975 473 
Q 1284 391 1588 391 
Q 1994 391 2212 530 
Q 2431 669 2431 922 
Q 2431 1156 2273 1281 
Q 2116 1406 1581 1522 
L 1381 1569 
Q 847 1681 609 1914 
Q 372 2147 372 2553 
Q 372 3047 722 3315 
Q 1072 3584 1716 3584 
Q 2034 3584 2315 3537 
Q 2597 3491 2834 3397 
z
" transform="scale(0.015625)"/>
       <path id="DejaVuSans-29" d="M 513 4856 
L 1013 4856 
Q 1481 4119 1714 3412 
Q 1947 2706 1947 2009 
Q 1947 1309 1714 600 
Q 1481 -109 1013 -844 
L 513 -844 
Q 928 -128 1133 580 
Q 1338 1288 1338 2009 
Q 1338 2731 1133 3434 
Q 928 4138 513 4856 
z
" transform="scale(0.015625)"/>
      </defs>
      <use xlink:href="#DejaVuSans-54"/>
      <use xlink:href="#DejaVuSans-69" transform="translate(57.958984 0)"/>
      <use xlink:href="#DejaVuSans-6d" transform="translate(85.742188 0)"/>
      <use xlink:href="#DejaVuSans-65" transform="translate(183.154297 0)"/>
      <use xlink:href="#DejaVuSans-20" transform="translate(244.677734 0)"/>
      <use xlink:href="#DejaVuSans-28" transform="translate(276.464844 0)"/>
      <use xlink:href="#DejaVuSans-6d" transform="translate(315.478516 0)"/>
      <use xlink:href="#DejaVuSans-73" transform="translate(412.890625 0)"/>
      <use xlink:href="#DejaVuSans-29" transform="translate(464.990234 0)"/>
     </g>
    </g>
   </g>
   <g id="LineCollection_1">
    <path d="M 239.4 239.797483 
L 351 239.797483 
" clip-path="url(#pdf01909b7d)" style="fill: none; stroke: #1f77b4; stroke-width: 1.5"/>
   </g>
   <g id="LineCollection_2">
    <path d="M 239.4 65.665339 
L 351 65.665339 
" clip-path="url(#pdf01909b7d)" style="fill: none; stroke: #1f77b4; stroke-width: 1.5"/>
   </g>
   <g id="LineCollection_3">
    <path d="M 239.4 342.172109 
L 351 342.172109 
" clip-path="url(#pdf01909b7d)" style="fill: none; stroke: #1f77b4; stroke-width: 1.5"/>
   </g>
   <g id="LineCollection_4">
    <path d="M 295.2 342.172109 
L 295.2 65.665339 
" clip-path="url(#pdf01909b7d)" style="fill: none; stroke: #1f77b4; stroke-width: 1.5"/>
   </g>
   <g id="patch_3">
    <path d="M 250.56 256.910482 
L 339.84 256.910482 
L 339.84 223.73323 
L 250.56 223.73323 
L 250.56 256.910482 
z
" clip-path="url(#pdf01909b7d)" style="fill: #1f77b4; stroke: #000000; stroke-linejoin: miter"/>
   </g>
   <g id="line2d_10">
    <path d="M 295.2 256.910482 
L 295.2 306.126991 
" clip-path="url(#pdf01909b7d)" style="fill: none; stroke: #000000; stroke-linecap: square"/>
   </g>
   <g id="line2d_11">
    <path d="M 295.2 223.73323 
L 295.2 174.250124 
" clip-path="url(#pdf01909b7d)" style="fill: none; stroke: #000000; stroke-linecap: square"/>
   </g>
   <g id="line2d_12">
    <path d="M 272.88 306.126991 
L 317.52 306.126991 
" clip-path="url(#pdf01909b7d)" style="fill: none; stroke: #000000; stroke-linecap: square"/>
   </g>
   <g id="line2d_13">
    <path d="M 272.88 174.250124 
L 317.52 174.250124 
" clip-path="url(#pdf01909b7d)" style="fill: none; stroke: #000000; stroke-linecap: square"/>
   </g>
   <g id="line2d_14">
    <defs>
     <path id="mbe4e498273" d="M 0 3 
C 0.795609 3 1.55874 2.683901 2.12132 2.12132 
C 2.683901 1.55874 3 0.795609 3 0 
C 3 -0.795609 2.683901 -1.55874 2.12132 -2.12132 
C 1.55874 -2.683901 0.795609 -3 0 -3 
C -0.795609 -3 -1.55874 -2.683901 -2.12132 -2.12132 
C -2.683901 -1.55874 -3 -0.795609 -3 0 
C -3 0.795609 -2.683901 1.55874 -2.12132 2.12132 
C -1.55874 2.683901 -0.795609 3 0 3 
z
" style="stroke: #000000"/>
    </defs>
    <g clip-path="url(#pdf01909b7d)">
     <use xlink:href="#mbe4e498273" x="295.2" y="308.603052" style="fill-opacity: 0; stroke: #000000"/>
     <use xlink:href="#mbe4e498273" x="295.2" y="314.226689" style="fill-opacity: 0; stroke: #000000"/>
     <use xlink:href="#mbe4e498273" x="295.2" y="315.200791" style="fill-opacity: 0; stroke: #000000"/>
     <use xlink:href="#mbe4e498273" x="295.2" y="314.84719" style="fill-opacity: 0; stroke: #000000"/>
     <use xlink:href="#mbe4e498273" x="295.2" y="339.546927" style="fill-opacity: 0; stroke: #000000"/>
     <use xlink:href="#mbe4e498273" x="295.2" y="339.389922" style="fill-opacity: 0; stroke: #000000"/>
     <use xlink:href="#mbe4e498273" x="295.2" y="340.399372" style="fill-opacity: 0; stroke: #000000"/>
     <use xlink:href="#mbe4e498273" x="295.2" y="312.398786" style="fill-opacity: 0; stroke: #000000"/>
     <use xlink:href="#mbe4e498273" x="295.2" y="315.162292" style="fill-opacity: 0; stroke: #000000"/>
     <use xlink:href="#mbe4e498273" x="295.2" y="310.925731" style="fill-opacity: 0; stroke: #000000"/>
     <use xlink:href="#mbe4e498273" x="295.2" y="312.652452" style="fill-opacity: 0; stroke: #000000"/>
     <use xlink:href="#mbe4e498273" x="295.2" y="337.167484" style="fill-opacity: 0; stroke: #000000"/>
     <use xlink:href="#mbe4e498273" x="295.2" y="340.951555" style="fill-opacity: 0; stroke: #000000"/>
     <use xlink:href="#mbe4e498273" x="295.2" y="339.604611" style="fill-opacity: 0; stroke: #000000"/>
     <use xlink:href="#mbe4e498273" x="295.2" y="306.879933" style="fill-opacity: 0; stroke: #000000"/>
     <use xlink:href="#mbe4e498273" x="295.2" y="313.268722" style="fill-opacity: 0; stroke: #000000"/>
     <use xlink:href="#mbe4e498273" x="295.2" y="308.448081" style="fill-opacity: 0; stroke: #000000"/>
     <use xlink:href="#mbe4e498273" x="295.2" y="314.820346" style="fill-opacity: 0; stroke: #000000"/>
     <use xlink:href="#mbe4e498273" x="295.2" y="338.199922" style="fill-opacity: 0; stroke: #000000"/>
     <use xlink:href="#mbe4e498273" x="295.2" y="337.267756" style="fill-opacity: 0; stroke: #000000"/>
     <use xlink:href="#mbe4e498273" x="295.2" y="338.517766" style="fill-opacity: 0; stroke: #000000"/>
     <use xlink:href="#mbe4e498273" x="295.2" y="313.055066" style="fill-opacity: 0; stroke: #000000"/>
     <use xlink:href="#mbe4e498273" x="295.2" y="310.90194" style="fill-opacity: 0; stroke: #000000"/>
     <use xlink:href="#mbe4e498273" x="295.2" y="314.013874" style="fill-opacity: 0; stroke: #000000"/>
     <use xlink:href="#mbe4e498273" x="295.2" y="315.529167" style="fill-opacity: 0; stroke: #000000"/>
     <use xlink:href="#mbe4e498273" x="295.2" y="339.388187" style="fill-opacity: 0; stroke: #000000"/>
     <use xlink:href="#mbe4e498273" x="295.2" y="338.227303" style="fill-opacity: 0; stroke: #000000"/>
     <use xlink:href="#mbe4e498273" x="295.2" y="334.95009" style="fill-opacity: 0; stroke: #000000"/>
     <use xlink:href="#mbe4e498273" x="295.2" y="310.736256" style="fill-opacity: 0; stroke: #000000"/>
     <use xlink:href="#mbe4e498273" x="295.2" y="314.206835" style="fill-opacity: 0; stroke: #000000"/>
     <use xlink:href="#mbe4e498273" x="295.2" y="312.832916" style="fill-opacity: 0; stroke: #000000"/>
     <use xlink:href="#mbe4e498273" x="295.2" y="315.148233" style="fill-opacity: 0; stroke: #000000"/>
     <use xlink:href="#mbe4e498273" x="295.2" y="338.32877" style="fill-opacity: 0; stroke: #000000"/>
     <use xlink:href="#mbe4e498273" x="295.2" y="336.441983" style="fill-opacity: 0; stroke: #000000"/>
     <use xlink:href="#mbe4e498273" x="295.2" y="338.110105" style="fill-opacity: 0; stroke: #000000"/>
     <use xlink:href="#mbe4e498273" x="295.2" y="311.207758" style="fill-opacity: 0; stroke: #000000"/>
     <use xlink:href="#mbe4e498273" x="295.2" y="317.182543" style="fill-opacity: 0; stroke: #000000"/>
     <use xlink:href="#mbe4e498273" x="295.2" y="312.49695" style="fill-opacity: 0; stroke: #000000"/>
     <use xlink:href="#mbe4e498273" x="295.2" y="315.705468" style="fill-opacity: 0; stroke: #000000"/>
     <use xlink:href="#mbe4e498273" x="295.2" y="340.246167" style="fill-opacity: 0; stroke: #000000"/>
     <use xlink:href="#mbe4e498273" x="295.2" y="341.143544" style="fill-opacity: 0; stroke: #000000"/>
     <use xlink:href="#mbe4e498273" x="295.2" y="340.365864" style="fill-opacity: 0; stroke: #000000"/>
     <use xlink:href="#mbe4e498273" x="295.2" y="310.642107" style="fill-opacity: 0; stroke: #000000"/>
     <use xlink:href="#mbe4e498273" x="295.2" y="310.708172" style="fill-opacity: 0; stroke: #000000"/>
     <use xlink:href="#mbe4e498273" x="295.2" y="310.916495" style="fill-opacity: 0; stroke: #000000"/>
     <use xlink:href="#mbe4e498273" x="295.2" y="340.193833" style="fill-opacity: 0; stroke: #000000"/>
     <use xlink:href="#mbe4e498273" x="295.2" y="337.873602" style="fill-opacity: 0; stroke: #000000"/>
     <use xlink:href="#mbe4e498273" x="295.2" y="339.605336" style="fill-opacity: 0; stroke: #000000"/>
     <use xlink:href="#mbe4e498273" x="295.2" y="311.99976" style="fill-opacity: 0; stroke: #000000"/>
     <use xlink:href="#mbe4e498273" x="295.2" y="314.257834" style="fill-opacity: 0; stroke: #000000"/>
     <use xlink:href="#mbe4e498273" x="295.2" y="312.682786" style="fill-opacity: 0; stroke: #000000"/>
     <use xlink:href="#mbe4e498273" x="295.2" y="313.251865" style="fill-opacity: 0; stroke: #000000"/>
     <use xlink:href="#mbe4e498273" x="295.2" y="312.855939" style="fill-opacity: 0; stroke: #000000"/>
     <use xlink:href="#mbe4e498273" x="295.2" y="333.825718" style="fill-opacity: 0; stroke: #000000"/>
     <use xlink:href="#mbe4e498273" x="295.2" y="335.956447" style="fill-opacity: 0; stroke: #000000"/>
     <use xlink:href="#mbe4e498273" x="295.2" y="310.892354" style="fill-opacity: 0; stroke: #000000"/>
     <use xlink:href="#mbe4e498273" x="295.2" y="325.489458" style="fill-opacity: 0; stroke: #000000"/>
     <use xlink:href="#mbe4e498273" x="295.2" y="336.988657" style="fill-opacity: 0; stroke: #000000"/>
     <use xlink:href="#mbe4e498273" x="295.2" y="335.040477" style="fill-opacity: 0; stroke: #000000"/>
     <use xlink:href="#mbe4e498273" x="295.2" y="316.172458" style="fill-opacity: 0; stroke: #000000"/>
     <use xlink:href="#mbe4e498273" x="295.2" y="316.063733" style="fill-opacity: 0; stroke: #000000"/>
     <use xlink:href="#mbe4e498273" x="295.2" y="311.797469" style="fill-opacity: 0; stroke: #000000"/>
     <use xlink:href="#mbe4e498273" x="295.2" y="318.642941" style="fill-opacity: 0; stroke: #000000"/>
     <use xlink:href="#mbe4e498273" x="295.2" y="336.858099" style="fill-opacity: 0; stroke: #000000"/>
     <use xlink:href="#mbe4e498273" x="295.2" y="342.172109" style="fill-opacity: 0; stroke: #000000"/>
     <use xlink:href="#mbe4e498273" x="295.2" y="341.329837" style="fill-opacity: 0; stroke: #000000"/>
     <use xlink:href="#mbe4e498273" x="295.2" y="156.384866" style="fill-opacity: 0; stroke: #000000"/>
     <use xlink:href="#mbe4e498273" x="295.2" y="126.286505" style="fill-opacity: 0; stroke: #000000"/>
     <use xlink:href="#mbe4e498273" x="295.2" y="134.297296" style="fill-opacity: 0; stroke: #000000"/>
     <use xlink:href="#mbe4e498273" x="295.2" y="171.480386" style="fill-opacity: 0; stroke: #000000"/>
     <use xlink:href="#mbe4e498273" x="295.2" y="145.297111" style="fill-opacity: 0; stroke: #000000"/>
     <use xlink:href="#mbe4e498273" x="295.2" y="162.866162" style="fill-opacity: 0; stroke: #000000"/>
     <use xlink:href="#mbe4e498273" x="295.2" y="173.330121" style="fill-opacity: 0; stroke: #000000"/>
     <use xlink:href="#mbe4e498273" x="295.2" y="165.564706" style="fill-opacity: 0; stroke: #000000"/>
     <use xlink:href="#mbe4e498273" x="295.2" y="149.537234" style="fill-opacity: 0; stroke: #000000"/>
     <use xlink:href="#mbe4e498273" x="295.2" y="166.202782" style="fill-opacity: 0; stroke: #000000"/>
     <use xlink:href="#mbe4e498273" x="295.2" y="168.814521" style="fill-opacity: 0; stroke: #000000"/>
     <use xlink:href="#mbe4e498273" x="295.2" y="173.697215" style="fill-opacity: 0; stroke: #000000"/>
     <use xlink:href="#mbe4e498273" x="295.2" y="165.914395" style="fill-opacity: 0; stroke: #000000"/>
     <use xlink:href="#mbe4e498273" x="295.2" y="163.170418" style="fill-opacity: 0; stroke: #000000"/>
     <use xlink:href="#mbe4e498273" x="295.2" y="146.407859" style="fill-opacity: 0; stroke: #000000"/>
     <use xlink:href="#mbe4e498273" x="295.2" y="144.290892" style="fill-opacity: 0; stroke: #000000"/>
     <use xlink:href="#mbe4e498273" x="295.2" y="164.202744" style="fill-opacity: 0; stroke: #000000"/>
     <use xlink:href="#mbe4e498273" x="295.2" y="143.927938" style="fill-opacity: 0; stroke: #000000"/>
     <use xlink:href="#mbe4e498273" x="295.2" y="164.058209" style="fill-opacity: 0; stroke: #000000"/>
     <use xlink:href="#mbe4e498273" x="295.2" y="163.231685" style="fill-opacity: 0; stroke: #000000"/>
     <use xlink:href="#mbe4e498273" x="295.2" y="65.665339" style="fill-opacity: 0; stroke: #000000"/>
     <use xlink:href="#mbe4e498273" x="295.2" y="164.194997" style="fill-opacity: 0; stroke: #000000"/>
     <use xlink:href="#mbe4e498273" x="295.2" y="139.608917" style="fill-opacity: 0; stroke: #000000"/>
     <use xlink:href="#mbe4e498273" x="295.2" y="125.019767" style="fill-opacity: 0; stroke: #000000"/>
     <use xlink:href="#mbe4e498273" x="295.2" y="161.349583" style="fill-opacity: 0; stroke: #000000"/>
     <use xlink:href="#mbe4e498273" x="295.2" y="104.403692" style="fill-opacity: 0; stroke: #000000"/>
     <use xlink:href="#mbe4e498273" x="295.2" y="88.802618" style="fill-opacity: 0; stroke: #000000"/>
     <use xlink:href="#mbe4e498273" x="295.2" y="172.299254" style="fill-opacity: 0; stroke: #000000"/>
     <use xlink:href="#mbe4e498273" x="295.2" y="168.779062" style="fill-opacity: 0; stroke: #000000"/>
    </g>
   </g>
   <g id="line2d_15">
    <path d="M 250.56 237.695203 
L 339.84 237.695203 
" clip-path="url(#pdf01909b7d)" style="fill: none; stroke: #ff7f0e"/>
   </g>
   <g id="patch_4">
    <path d="M 72 384.48 
L 72 51.84 
" style="fill: none; stroke: #000000; stroke-width: 0.8; stroke-linejoin: miter; stroke-linecap: square"/>
   </g>
   <g id="patch_5">
    <path d="M 518.4 384.48 
L 518.4 51.84 
" style="fill: none; stroke: #000000; stroke-width: 0.8; stroke-linejoin: miter; stroke-linecap: square"/>
   </g>
   <g id="patch_6">
    <path d="M 72 384.48 
L 518.4 384.48 
" style="fill: none; stroke: #000000; stroke-width: 0.8; stroke-linejoin: miter; stroke-linecap: square"/>
   </g>
   <g id="patch_7">
    <path d="M 72 51.84 
L 518.4 51.84 
" style="fill: none; stroke: #000000; stroke-width: 0.8; stroke-linejoin: miter; stroke-linecap: square"/>
   </g>
   <g id="text_11">
    <!-- Test Method -->
    <g transform="translate(258.975 45.84) scale(0.12 -0.12)">
     <defs>
      <path id="DejaVuSans-74" d="M 1172 4494 
L 1172 3500 
L 2356 3500 
L 2356 3053 
L 1172 3053 
L 1172 1153 
Q 1172 725 1289 603 
Q 1406 481 1766 481 
L 2356 481 
L 2356 0 
L 1766 0 
Q 1100 0 847 248 
Q 594 497 594 1153 
L 594 3053 
L 172 3053 
L 172 3500 
L 594 3500 
L 594 4494 
L 1172 4494 
z
" transform="scale(0.015625)"/>
      <path id="DejaVuSans-4d" d="M 628 4666 
L 1569 4666 
L 2759 1491 
L 3956 4666 
L 4897 4666 
L 4897 0 
L 4281 0 
L 4281 4097 
L 3078 897 
L 2444 897 
L 1241 4097 
L 1241 0 
L 628 0 
L 628 4666 
z
" transform="scale(0.015625)"/>
      <path id="DejaVuSans-68" d="M 3513 2113 
L 3513 0 
L 2938 0 
L 2938 2094 
Q 2938 2591 2744 2837 
Q 2550 3084 2163 3084 
Q 1697 3084 1428 2787 
Q 1159 2491 1159 1978 
L 1159 0 
L 581 0 
L 581 4863 
L 1159 4863 
L 1159 2956 
Q 1366 3272 1645 3428 
Q 1925 3584 2291 3584 
Q 2894 3584 3203 3211 
Q 3513 2838 3513 2113 
z
" transform="scale(0.015625)"/>
      <path id="DejaVuSans-6f" d="M 1959 3097 
Q 1497 3097 1228 2736 
Q 959 2375 959 1747 
Q 959 1119 1226 758 
Q 1494 397 1959 397 
Q 2419 397 2687 759 
Q 2956 1122 2956 1747 
Q 2956 2369 2687 2733 
Q 2419 3097 1959 3097 
z
M 1959 3584 
Q 2709 3584 3137 3096 
Q 3566 2609 3566 1747 
Q 3566 888 3137 398 
Q 2709 -91 1959 -91 
Q 1206 -91 779 398 
Q 353 888 353 1747 
Q 353 2609 779 3096 
Q 1206 3584 1959 3584 
z
" transform="scale(0.015625)"/>
      <path id="DejaVuSans-64" d="M 2906 2969 
L 2906 4863 
L 3481 4863 
L 3481 0 
L 2906 0 
L 2906 525 
Q 2725 213 2448 61 
Q 2172 -91 1784 -91 
Q 1150 -91 751 415 
Q 353 922 353 1747 
Q 353 2572 751 3078 
Q 1150 3584 1784 3584 
Q 2172 3584 2448 3432 
Q 2725 3281 2906 2969 
z
M 947 1747 
Q 947 1113 1208 752 
Q 1469 391 1925 391 
Q 2381 391 2643 752 
Q 2906 1113 2906 1747 
Q 2906 2381 2643 2742 
Q 2381 3103 1925 3103 
Q 1469 3103 1208 2742 
Q 947 2381 947 1747 
z
" transform="scale(0.015625)"/>
     </defs>
     <use xlink:href="#DejaVuSans-54"/>
     <use xlink:href="#DejaVuSans-65" transform="translate(44.083984 0)"/>
     <use xlink:href="#DejaVuSans-73" transform="translate(105.607422 0)"/>
     <use xlink:href="#DejaVuSans-74" transform="translate(157.707031 0)"/>
     <use xlink:href="#DejaVuSans-20" transform="translate(196.916016 0)"/>
     <use xlink:href="#DejaVuSans-4d" transform="translate(228.703125 0)"/>
     <use xlink:href="#DejaVuSans-65" transform="translate(314.982422 0)"/>
     <use xlink:href="#DejaVuSans-74" transform="translate(376.505859 0)"/>
     <use xlink:href="#DejaVuSans-68" transform="translate(415.714844 0)"/>
     <use xlink:href="#DejaVuSans-6f" transform="translate(479.09375 0)"/>
     <use xlink:href="#DejaVuSans-64" transform="translate(540.275391 0)"/>
    </g>
   </g>
  </g>
 </g>
 <defs>
  <clipPath id="pdf01909b7d">
   <rect x="72" y="51.84" width="446.4" height="332.64"/>
  </clipPath>
 </defs>
</svg>
