<?xml version="1.0" encoding="utf-8" standalone="no"?>
<!DOCTYPE svg PUBLIC "-//W3C//DTD SVG 1.1//EN"
  "http://www.w3.org/Graphics/SVG/1.1/DTD/svg11.dtd">
<svg xmlns:xlink="http://www.w3.org/1999/xlink" width="576pt" height="432pt" viewBox="0 0 576 432" xmlns="http://www.w3.org/2000/svg" version="1.1">
 <metadata>
  <rdf:RDF xmlns:dc="http://purl.org/dc/elements/1.1/" xmlns:cc="http://creativecommons.org/ns#" xmlns:rdf="http://www.w3.org/1999/02/22-rdf-syntax-ns#">
   <cc:Work>
    <dc:type rdf:resource="http://purl.org/dc/dcmitype/StillImage"/>
    <dc:date>2025-09-30T20:43:05.498268</dc:date>
    <dc:format>image/svg+xml</dc:format>
    <dc:creator>
     <cc:Agent>
      <dc:title>Matplotlib v3.10.3, https://matplotlib.org/</dc:title>
     </cc:Agent>
    </dc:creator>
   </cc:Work>
  </rdf:RDF>
 </metadata>
 <defs>
  <style type="text/css">*{stroke-linejoin: round; stroke-linecap: butt}</style>
 </defs>
 <g id="figure_1">
  <g id="patch_1">
   <path d="M 0 432 
L 576 432 
L 576 0 
L 0 0 
z
" style="fill: #ffffff"/>
  </g>
  <g id="axes_1">
   <g id="patch_2">
    <path d="M 72 384.48 
L 518.4 384.48 
L 518.4 51.84 
L 72 51.84 
z
" style="fill: #ffffff"/>
   </g>
   <g id="FillBetweenPolyCollection_1">
    <path d="M 300.875949 337.405706 
L 289.524051 337.405706 
L 279.797949 334.658562 
L 262.075402 331.911417 
L 236.580208 329.164272 
L 209.035798 326.417127 
L 189.412862 323.669982 
L 183.6 320.922837 
L 189.006841 318.175692 
L 201.787252 315.428548 
L 219.570825 312.681403 
L 238.468573 309.934258 
L 254.848441 307.187113 
L 267.814264 304.439968 
L 277.285728 301.692823 
L 283.005619 298.945679 
L 286.085272 296.198534 
L 287.763753 293.451389 
L 288.87917 290.704244 
L 290.209603 287.957099 
L 291.455842 285.209954 
L 292.120461 282.46281 
L 292.324031 279.715665 
L 292.40588 276.96852 
L 292.653595 274.221375 
L 293.190772 271.47423 
L 293.901356 268.727085 
L 294.424459 265.97994 
L 294.500134 263.232796 
L 294.230467 260.485651 
L 293.924828 257.738506 
L 294.024709 254.991361 
L 294.537763 252.244216 
L 294.933959 249.497071 
L 294.972893 246.749927 
L 294.822249 244.002782 
L 294.653042 241.255637 
L 294.580455 238.508492 
L 294.670101 235.761347 
L 294.876844 233.014202 
L 295.072765 230.267058 
L 295.170965 227.519913 
L 295.194842 224.772768 
L 295.184428 222.025623 
L 295.131884 219.278478 
L 295.054897 216.531333 
L 295.05148 213.784188 
L 295.126963 211.037044 
L 295.182699 208.289899 
L 295.197033 205.542754 
L 295.189206 202.795609 
L 295.145588 200.048464 
L 295.066915 197.301319 
L 295.043605 194.554175 
L 295.1117 191.80703 
L 295.176048 189.059885 
L 295.196879 186.31274 
L 295.199805 183.565595 
L 295.199994 180.81845 
L 295.2 178.071306 
L 295.2 175.324161 
L 295.2 172.577016 
L 295.2 169.829871 
L 295.2 167.082726 
L 295.2 164.335581 
L 295.2 161.588436 
L 295.2 158.841292 
L 295.2 156.094147 
L 295.2 153.347002 
L 295.2 150.599857 
L 295.2 147.852712 
L 295.2 145.105567 
L 295.2 142.358423 
L 295.2 139.611278 
L 295.2 136.864133 
L 295.199999 134.116988 
L 295.199974 131.369843 
L 295.199356 128.622698 
L 295.192322 125.875554 
L 295.156013 123.128409 
L 295.078922 120.381264 
L 295.039881 117.634119 
L 295.098267 114.886974 
L 295.168946 112.139829 
L 295.195446 109.392684 
L 295.199679 106.64554 
L 295.199989 103.898395 
L 295.2 101.15125 
L 295.2 98.404105 
L 295.2 95.65696 
L 295.2 92.909815 
L 295.2 90.162671 
L 295.2 87.415526 
L 295.2 84.668381 
L 295.2 81.921236 
L 295.199983 79.174091 
L 295.199543 76.426946 
L 295.194056 73.679801 
L 295.162849 70.932657 
L 295.08844 68.185512 
L 295.039052 65.438367 
L 295.360948 65.438367 
L 295.360948 65.438367 
L 295.31156 68.185512 
L 295.237151 70.932657 
L 295.205944 73.679801 
L 295.200457 76.426946 
L 295.200017 79.174091 
L 295.2 81.921236 
L 295.2 84.668381 
L 295.2 87.415526 
L 295.2 90.162671 
L 295.2 92.909815 
L 295.2 95.65696 
L 295.2 98.404105 
L 295.2 101.15125 
L 295.200011 103.898395 
L 295.200321 106.64554 
L 295.204554 109.392684 
L 295.231054 112.139829 
L 295.301733 114.886974 
L 295.360119 117.634119 
L 295.321078 120.381264 
L 295.243987 123.128409 
L 295.207678 125.875554 
L 295.200644 128.622698 
L 295.200026 131.369843 
L 295.200001 134.116988 
L 295.2 136.864133 
L 295.2 139.611278 
L 295.2 142.358423 
L 295.2 145.105567 
L 295.2 147.852712 
L 295.2 150.599857 
L 295.2 153.347002 
L 295.2 156.094147 
L 295.2 158.841292 
L 295.2 161.588436 
L 295.2 164.335581 
L 295.2 167.082726 
L 295.2 169.829871 
L 295.2 172.577016 
L 295.2 175.324161 
L 295.2 178.071306 
L 295.200006 180.81845 
L 295.200195 183.565595 
L 295.203121 186.31274 
L 295.223952 189.059885 
L 295.2883 191.80703 
L 295.356395 194.554175 
L 295.333085 197.301319 
L 295.254412 200.048464 
L 295.210794 202.795609 
L 295.202967 205.542754 
L 295.217301 208.289899 
L 295.273037 211.037044 
L 295.34852 213.784188 
L 295.345103 216.531333 
L 295.268116 219.278478 
L 295.215572 222.025623 
L 295.205158 224.772768 
L 295.229035 227.519913 
L 295.327235 230.267058 
L 295.523156 233.014202 
L 295.729899 235.761347 
L 295.819545 238.508492 
L 295.746958 241.255637 
L 295.577751 244.002782 
L 295.427107 246.749927 
L 295.466041 249.497071 
L 295.862237 252.244216 
L 296.375291 254.991361 
L 296.475172 257.738506 
L 296.169533 260.485651 
L 295.899866 263.232796 
L 295.975541 265.97994 
L 296.498644 268.727085 
L 297.209228 271.47423 
L 297.746405 274.221375 
L 297.99412 276.96852 
L 298.075969 279.715665 
L 298.279539 282.46281 
L 298.944158 285.209954 
L 300.190397 287.957099 
L 301.52083 290.704244 
L 302.636247 293.451389 
L 304.314728 296.198534 
L 307.394381 298.945679 
L 313.114272 301.692823 
L 322.585736 304.439968 
L 335.551559 307.187113 
L 351.931427 309.934258 
L 370.829175 312.681403 
L 388.612748 315.428548 
L 401.393159 318.175692 
L 406.8 320.922837 
L 400.987138 323.669982 
L 381.364202 326.417127 
L 353.819792 329.164272 
L 328.324598 331.911417 
L 310.602051 334.658562 
L 300.875949 337.405706 
z
" clip-path="url(#p0576aceef6)" style="fill: #1f77b4; fill-opacity: 0.3"/>
   </g>
   <g id="matplotlib.axis_1">
    <g id="xtick_1">
     <g id="line2d_1">
      <defs>
       <path id="ma9bdc5c9be" d="M 0 0 
L 0 3.5 
" style="stroke: #000000; stroke-width: 0.8"/>
      </defs>
      <g>
       <use xlink:href="#ma9bdc5c9be" x="295.2" y="384.48" style="stroke: #000000; stroke-width: 0.8"/>
      </g>
     </g>
     <g id="text_1">
      <!-- 1 -->
      <g transform="translate(292.01875 399.078438) scale(0.1 -0.1)">
       <defs>
        <path id="DejaVuSans-31" d="M 794 531 
L 1825 531 
L 1825 4091 
L 703 3866 
L 703 4441 
L 1819 4666 
L 2450 4666 
L 2450 531 
L 3481 531 
L 3481 0 
L 794 0 
L 794 531 
z
" transform="scale(0.015625)"/>
       </defs>
       <use xlink:href="#DejaVuSans-31"/>
      </g>
     </g>
    </g>
   </g>
   <g id="matplotlib.axis_2">
    <g id="ytick_1">
     <g id="line2d_2">
      <defs>
       <path id="m7a44bcd2b6" d="M 0 0 
L -3.5 0 
" style="stroke: #000000; stroke-width: 0.8"/>
      </defs>
      <g>
       <use xlink:href="#m7a44bcd2b6" x="72" y="384.48" style="stroke: #000000; stroke-width: 0.8"/>
      </g>
     </g>
     <g id="text_2">
      <!-- 0 -->
      <g transform="translate(58.6375 388.279219) scale(0.1 -0.1)">
       <defs>
        <path id="DejaVuSans-30" d="M 2034 4250 
Q 1547 4250 1301 3770 
Q 1056 3291 1056 2328 
Q 1056 1369 1301 889 
Q 1547 409 2034 409 
Q 2525 409 2770 889 
Q 3016 1369 3016 2328 
Q 3016 3291 2770 3770 
Q 2525 4250 2034 4250 
z
M 2034 4750 
Q 2819 4750 3233 4129 
Q 3647 3509 3647 2328 
Q 3647 1150 3233 529 
Q 2819 -91 2034 -91 
Q 1250 -91 836 529 
Q 422 1150 422 2328 
Q 422 3509 836 4129 
Q 1250 4750 2034 4750 
z
" transform="scale(0.015625)"/>
       </defs>
       <use xlink:href="#DejaVuSans-30"/>
      </g>
     </g>
    </g>
    <g id="ytick_2">
     <g id="line2d_3">
      <g>
       <use xlink:href="#m7a44bcd2b6" x="72" y="336.016799" style="stroke: #000000; stroke-width: 0.8"/>
      </g>
     </g>
     <g id="text_3">
      <!-- 2 -->
      <g transform="translate(58.6375 339.816018) scale(0.1 -0.1)">
       <defs>
        <path id="DejaVuSans-32" d="M 1228 531 
L 3431 531 
L 3431 0 
L 469 0 
L 469 531 
Q 828 903 1448 1529 
Q 2069 2156 2228 2338 
Q 2531 2678 2651 2914 
Q 2772 3150 2772 3378 
Q 2772 3750 2511 3984 
Q 2250 4219 1831 4219 
Q 1534 4219 1204 4116 
Q 875 4013 500 3803 
L 500 4441 
Q 881 4594 1212 4672 
Q 1544 4750 1819 4750 
Q 2544 4750 2975 4387 
Q 3406 4025 3406 3419 
Q 3406 3131 3298 2873 
Q 3191 2616 2906 2266 
Q 2828 2175 2409 1742 
Q 1991 1309 1228 531 
z
" transform="scale(0.015625)"/>
       </defs>
       <use xlink:href="#DejaVuSans-32"/>
      </g>
     </g>
    </g>
    <g id="ytick_3">
     <g id="line2d_4">
      <g>
       <use xlink:href="#m7a44bcd2b6" x="72" y="287.553599" style="stroke: #000000; stroke-width: 0.8"/>
      </g>
     </g>
     <g id="text_4">
      <!-- 4 -->
      <g transform="translate(58.6375 291.352818) scale(0.1 -0.1)">
       <defs>
        <path id="DejaVuSans-34" d="M 2419 4116 
L 825 1625 
L 2419 1625 
L 2419 4116 
z
M 2253 4666 
L 3047 4666 
L 3047 1625 
L 3713 1625 
L 3713 1100 
L 3047 1100 
L 3047 0 
L 2419 0 
L 2419 1100 
L 313 1100 
L 313 1709 
L 2253 4666 
z
" transform="scale(0.015625)"/>
       </defs>
       <use xlink:href="#DejaVuSans-34"/>
      </g>
     </g>
    </g>
    <g id="ytick_4">
     <g id="line2d_5">
      <g>
       <use xlink:href="#m7a44bcd2b6" x="72" y="239.090398" style="stroke: #000000; stroke-width: 0.8"/>
      </g>
     </g>
     <g id="text_5">
      <!-- 6 -->
      <g transform="translate(58.6375 242.889617) scale(0.1 -0.1)">
       <defs>
        <path id="DejaVuSans-36" d="M 2113 2584 
Q 1688 2584 1439 2293 
Q 1191 2003 1191 1497 
Q 1191 994 1439 701 
Q 1688 409 2113 409 
Q 2538 409 2786 701 
Q 3034 994 3034 1497 
Q 3034 2003 2786 2293 
Q 2538 2584 2113 2584 
z
M 3366 4563 
L 3366 3988 
Q 3128 4100 2886 4159 
Q 2644 4219 2406 4219 
Q 1781 4219 1451 3797 
Q 1122 3375 1075 2522 
Q 1259 2794 1537 2939 
Q 1816 3084 2150 3084 
Q 2853 3084 3261 2657 
Q 3669 2231 3669 1497 
Q 3669 778 3244 343 
Q 2819 -91 2113 -91 
Q 1303 -91 875 529 
Q 447 1150 447 2328 
Q 447 3434 972 4092 
Q 1497 4750 2381 4750 
Q 2619 4750 2861 4703 
Q 3103 4656 3366 4563 
z
" transform="scale(0.015625)"/>
       </defs>
       <use xlink:href="#DejaVuSans-36"/>
      </g>
     </g>
    </g>
    <g id="ytick_5">
     <g id="line2d_6">
      <g>
       <use xlink:href="#m7a44bcd2b6" x="72" y="190.627198" style="stroke: #000000; stroke-width: 0.8"/>
      </g>
     </g>
     <g id="text_6">
      <!-- 8 -->
      <g transform="translate(58.6375 194.426417) scale(0.1 -0.1)">
       <defs>
        <path id="DejaVuSans-38" d="M 2034 2216 
Q 1584 2216 1326 1975 
Q 1069 1734 1069 1313 
Q 1069 891 1326 650 
Q 1584 409 2034 409 
Q 2484 409 2743 651 
Q 3003 894 3003 1313 
Q 3003 1734 2745 1975 
Q 2488 2216 2034 2216 
z
M 1403 2484 
Q 997 2584 770 2862 
Q 544 3141 544 3541 
Q 544 4100 942 4425 
Q 1341 4750 2034 4750 
Q 2731 4750 3128 4425 
Q 3525 4100 3525 3541 
Q 3525 3141 3298 2862 
Q 3072 2584 2669 2484 
Q 3125 2378 3379 2068 
Q 3634 1759 3634 1313 
Q 3634 634 3220 271 
Q 2806 -91 2034 -91 
Q 1263 -91 848 271 
Q 434 634 434 1313 
Q 434 1759 690 2068 
Q 947 2378 1403 2484 
z
M 1172 3481 
Q 1172 3119 1398 2916 
Q 1625 2713 2034 2713 
Q 2441 2713 2670 2916 
Q 2900 3119 2900 3481 
Q 2900 3844 2670 4047 
Q 2441 4250 2034 4250 
Q 1625 4250 1398 4047 
Q 1172 3844 1172 3481 
z
" transform="scale(0.015625)"/>
       </defs>
       <use xlink:href="#DejaVuSans-38"/>
      </g>
     </g>
    </g>
    <g id="ytick_6">
     <g id="line2d_7">
      <g>
       <use xlink:href="#m7a44bcd2b6" x="72" y="142.163997" style="stroke: #000000; stroke-width: 0.8"/>
      </g>
     </g>
     <g id="text_7">
      <!-- 10 -->
      <g transform="translate(52.275 145.963216) scale(0.1 -0.1)">
       <use xlink:href="#DejaVuSans-31"/>
       <use xlink:href="#DejaVuSans-30" transform="translate(63.623047 0)"/>
      </g>
     </g>
    </g>
    <g id="ytick_7">
     <g id="line2d_8">
      <g>
       <use xlink:href="#m7a44bcd2b6" x="72" y="93.700797" style="stroke: #000000; stroke-width: 0.8"/>
      </g>
     </g>
     <g id="text_8">
      <!-- 12 -->
      <g transform="translate(52.275 97.500016) scale(0.1 -0.1)">
       <use xlink:href="#DejaVuSans-31"/>
       <use xlink:href="#DejaVuSans-32" transform="translate(63.623047 0)"/>
      </g>
     </g>
    </g>
    <g id="text_9">
     <!-- Time (ms) -->
     <g transform="translate(46.195312 243.359219) rotate(-90) scale(0.1 -0.1)">
      <defs>
       <path id="DejaVuSans-54" d="M -19 4666 
L 3928 4666 
L 3928 4134 
L 2272 4134 
L 2272 0 
L 1638 0 
L 1638 4134 
L -19 4134 
L -19 4666 
z
" transform="scale(0.015625)"/>
       <path id="DejaVuSans-69" d="M 603 3500 
L 1178 3500 
L 1178 0 
L 603 0 
L 603 3500 
z
M 603 4863 
L 1178 4863 
L 1178 4134 
L 603 4134 
L 603 4863 
z
" transform="scale(0.015625)"/>
       <path id="DejaVuSans-6d" d="M 3328 2828 
Q 3544 3216 3844 3400 
Q 4144 3584 4550 3584 
Q 5097 3584 5394 3201 
Q 5691 2819 5691 2113 
L 5691 0 
L 5113 0 
L 5113 2094 
Q 5113 2597 4934 2840 
Q 4756 3084 4391 3084 
Q 3944 3084 3684 2787 
Q 3425 2491 3425 1978 
L 3425 0 
L 2847 0 
L 2847 2094 
Q 2847 2600 2669 2842 
Q 2491 3084 2119 3084 
Q 1678 3084 1418 2786 
Q 1159 2488 1159 1978 
L 1159 0 
L 581 0 
L 581 3500 
L 1159 3500 
L 1159 2956 
Q 1356 3278 1631 3431 
Q 1906 3584 2284 3584 
Q 2666 3584 2933 3390 
Q 3200 3197 3328 2828 
z
" transform="scale(0.015625)"/>
       <path id="DejaVuSans-65" d="M 3597 1894 
L 3597 1613 
L 953 1613 
Q 991 1019 1311 708 
Q 1631 397 2203 397 
Q 2534 397 2845 478 
Q 3156 559 3463 722 
L 3463 178 
Q 3153 47 2828 -22 
Q 2503 -91 2169 -91 
Q 1331 -91 842 396 
Q 353 884 353 1716 
Q 353 2575 817 3079 
Q 1281 3584 2069 3584 
Q 2775 3584 3186 3129 
Q 3597 2675 3597 1894 
z
M 3022 2063 
Q 3016 2534 2758 2815 
Q 2500 3097 2075 3097 
Q 1594 3097 1305 2825 
Q 1016 2553 972 2059 
L 3022 2063 
z
" transform="scale(0.015625)"/>
       <path id="DejaVuSans-20" transform="scale(0.015625)"/>
       <path id="DejaVuSans-28" d="M 1984 4856 
Q 1566 4138 1362 3434 
Q 1159 2731 1159 2009 
Q 1159 1288 1364 580 
Q 1569 -128 1984 -844 
L 1484 -844 
Q 1016 -109 783 600 
Q 550 1309 550 2009 
Q 550 2706 781 3412 
Q 1013 4119 1484 4856 
L 1984 4856 
z
" transform="scale(0.015625)"/>
       <path id="DejaVuSans-73" d="M 2834 3397 
L 2834 2853 
Q 2591 2978 2328 3040 
Q 2066 3103 1784 3103 
Q 1356 3103 1142 2972 
Q 928 2841 928 2578 
Q 928 2378 1081 2264 
Q 1234 2150 1697 2047 
L 1894 2003 
Q 2506 1872 2764 1633 
Q 3022 1394 3022 966 
Q 3022 478 2636 193 
Q 2250 -91 1575 -91 
Q 1294 -91 989 -36 
Q 684 19 347 128 
L 347 722 
Q 666 556 975 473 
Q 1284 391 1588 391 
Q 1994 391 2212 530 
Q 2431 669 2431 922 
Q 2431 1156 2273 1281 
Q 2116 1406 1581 1522 
L 1381 1569 
Q 847 1681 609 1914 
Q 372 2147 372 2553 
Q 372 3047 722 3315 
Q 1072 3584 1716 3584 
Q 2034 3584 2315 3537 
Q 2597 3491 2834 3397 
z
" transform="scale(0.015625)"/>
       <path id="DejaVuSans-29" d="M 513 4856 
L 1013 4856 
Q 1481 4119 1714 3412 
Q 1947 2706 1947 2009 
Q 1947 1309 1714 600 
Q 1481 -109 1013 -844 
L 513 -844 
Q 928 -128 1133 580 
Q 1338 1288 1338 2009 
Q 1338 2731 1133 3434 
Q 928 4138 513 4856 
z
" transform="scale(0.015625)"/>
      </defs>
      <use xlink:href="#DejaVuSans-54"/>
      <use xlink:href="#DejaVuSans-69" transform="translate(57.958984 0)"/>
      <use xlink:href="#DejaVuSans-6d" transform="translate(85.742188 0)"/>
      <use xlink:href="#DejaVuSans-65" transform="translate(183.154297 0)"/>
      <use xlink:href="#DejaVuSans-20" transform="translate(244.677734 0)"/>
      <use xlink:href="#DejaVuSans-28" transform="translate(276.464844 0)"/>
      <use xlink:href="#DejaVuSans-6d" transform="translate(315.478516 0)"/>
      <use xlink:href="#DejaVuSans-73" transform="translate(412.890625 0)"/>
      <use xlink:href="#DejaVuSans-29" transform="translate(464.990234 0)"/>
     </g>
    </g>
   </g>
   <g id="LineCollection_1">
    <path d="M 239.4 316.28038 
L 351 316.28038 
" clip-path="url(#p0576aceef6)" style="fill: none; stroke: #1f77b4; stroke-width: 1.5"/>
   </g>
   <g id="LineCollection_2">
    <path d="M 239.4 65.438367 
L 351 65.438367 
" clip-path="url(#p0576aceef6)" style="fill: none; stroke: #1f77b4; stroke-width: 1.5"/>
   </g>
   <g id="LineCollection_3">
    <path d="M 239.4 337.405706 
L 351 337.405706 
" clip-path="url(#p0576aceef6)" style="fill: none; stroke: #1f77b4; stroke-width: 1.5"/>
   </g>
   <g id="LineCollection_4">
    <path d="M 295.2 337.405706 
L 295.2 65.438367 
" clip-path="url(#p0576aceef6)" style="fill: none; stroke: #1f77b4; stroke-width: 1.5"/>
   </g>
   <g id="patch_3">
    <path d="M 250.56 324.015306 
L 339.84 324.015306 
L 339.84 312.418522 
L 250.56 312.418522 
L 250.56 324.015306 
z
" clip-path="url(#p0576aceef6)" style="fill: #1f77b4; stroke: #000000; stroke-linejoin: miter"/>
   </g>
   <g id="line2d_9">
    <path d="M 295.2 324.015306 
L 295.2 337.405706 
" clip-path="url(#p0576aceef6)" style="fill: none; stroke: #000000; stroke-linecap: square"/>
   </g>
   <g id="line2d_10">
    <path d="M 295.2 312.418522 
L 295.2 295.273302 
" clip-path="url(#p0576aceef6)" style="fill: none; stroke: #000000; stroke-linecap: square"/>
   </g>
   <g id="line2d_11">
    <path d="M 272.88 337.405706 
L 317.52 337.405706 
" clip-path="url(#p0576aceef6)" style="fill: none; stroke: #000000; stroke-linecap: square"/>
   </g>
   <g id="line2d_12">
    <path d="M 272.88 295.273302 
L 317.52 295.273302 
" clip-path="url(#p0576aceef6)" style="fill: none; stroke: #000000; stroke-linecap: square"/>
   </g>
   <g id="line2d_13">
    <defs>
     <path id="md881ad126b" d="M 0 3 
C 0.795609 3 1.55874 2.683901 2.12132 2.12132 
C 2.683901 1.55874 3 0.795609 3 0 
C 3 -0.795609 2.683901 -1.55874 2.12132 -2.12132 
C 1.55874 -2.683901 0.795609 -3 0 -3 
C -0.795609 -3 -1.55874 -2.683901 -2.12132 -2.12132 
C -2.683901 -1.55874 -3 -0.795609 -3 0 
C -3 0.795609 -2.683901 1.55874 -2.12132 2.12132 
C -1.55874 2.683901 -0.795609 3 0 3 
z
" style="stroke: #000000"/>
    </defs>
    <g clip-path="url(#p0576aceef6)">
     <use xlink:href="#md881ad126b" x="295.2" y="289.820732" style="fill-opacity: 0; stroke: #000000"/>
     <use xlink:href="#md881ad126b" x="295.2" y="290.664379" style="fill-opacity: 0; stroke: #000000"/>
     <use xlink:href="#md881ad126b" x="295.2" y="276.149336" style="fill-opacity: 0; stroke: #000000"/>
     <use xlink:href="#md881ad126b" x="295.2" y="280.108561" style="fill-opacity: 0; stroke: #000000"/>
     <use xlink:href="#md881ad126b" x="295.2" y="292.16022" style="fill-opacity: 0; stroke: #000000"/>
     <use xlink:href="#md881ad126b" x="295.2" y="283.632151" style="fill-opacity: 0; stroke: #000000"/>
     <use xlink:href="#md881ad126b" x="295.2" y="258.890451" style="fill-opacity: 0; stroke: #000000"/>
     <use xlink:href="#md881ad126b" x="295.2" y="288.879334" style="fill-opacity: 0; stroke: #000000"/>
     <use xlink:href="#md881ad126b" x="295.2" y="281.725415" style="fill-opacity: 0; stroke: #000000"/>
     <use xlink:href="#md881ad126b" x="295.2" y="117.960312" style="fill-opacity: 0; stroke: #000000"/>
     <use xlink:href="#md881ad126b" x="295.2" y="275.319573" style="fill-opacity: 0; stroke: #000000"/>
     <use xlink:href="#md881ad126b" x="295.2" y="291.62887" style="fill-opacity: 0; stroke: #000000"/>
     <use xlink:href="#md881ad126b" x="295.2" y="291.799097" style="fill-opacity: 0; stroke: #000000"/>
     <use xlink:href="#md881ad126b" x="295.2" y="286.327432" style="fill-opacity: 0; stroke: #000000"/>
     <use xlink:href="#md881ad126b" x="295.2" y="282.62351" style="fill-opacity: 0; stroke: #000000"/>
     <use xlink:href="#md881ad126b" x="295.2" y="292.591373" style="fill-opacity: 0; stroke: #000000"/>
     <use xlink:href="#md881ad126b" x="295.2" y="263.060176" style="fill-opacity: 0; stroke: #000000"/>
     <use xlink:href="#md881ad126b" x="295.2" y="289.681691" style="fill-opacity: 0; stroke: #000000"/>
     <use xlink:href="#md881ad126b" x="295.2" y="268.517787" style="fill-opacity: 0; stroke: #000000"/>
     <use xlink:href="#md881ad126b" x="295.2" y="284.904722" style="fill-opacity: 0; stroke: #000000"/>
     <use xlink:href="#md881ad126b" x="295.2" y="278.238972" style="fill-opacity: 0; stroke: #000000"/>
     <use xlink:href="#md881ad126b" x="295.2" y="272.493175" style="fill-opacity: 0; stroke: #000000"/>
     <use xlink:href="#md881ad126b" x="295.2" y="291.581109" style="fill-opacity: 0; stroke: #000000"/>
     <use xlink:href="#md881ad126b" x="295.2" y="287.39842" style="fill-opacity: 0; stroke: #000000"/>
     <use xlink:href="#md881ad126b" x="295.2" y="270.664198" style="fill-opacity: 0; stroke: #000000"/>
     <use xlink:href="#md881ad126b" x="295.2" y="257.684057" style="fill-opacity: 0; stroke: #000000"/>
     <use xlink:href="#md881ad126b" x="295.2" y="294.249275" style="fill-opacity: 0; stroke: #000000"/>
     <use xlink:href="#md881ad126b" x="295.2" y="280.700539" style="fill-opacity: 0; stroke: #000000"/>
     <use xlink:href="#md881ad126b" x="295.2" y="241.03765" style="fill-opacity: 0; stroke: #000000"/>
     <use xlink:href="#md881ad126b" x="295.2" y="294.225916" style="fill-opacity: 0; stroke: #000000"/>
     <use xlink:href="#md881ad126b" x="295.2" y="233.738704" style="fill-opacity: 0; stroke: #000000"/>
     <use xlink:href="#md881ad126b" x="295.2" y="237.564559" style="fill-opacity: 0; stroke: #000000"/>
     <use xlink:href="#md881ad126b" x="295.2" y="291.734495" style="fill-opacity: 0; stroke: #000000"/>
     <use xlink:href="#md881ad126b" x="295.2" y="240.270938" style="fill-opacity: 0; stroke: #000000"/>
     <use xlink:href="#md881ad126b" x="295.2" y="255.178969" style="fill-opacity: 0; stroke: #000000"/>
     <use xlink:href="#md881ad126b" x="295.2" y="274.734452" style="fill-opacity: 0; stroke: #000000"/>
     <use xlink:href="#md881ad126b" x="295.2" y="288.535245" style="fill-opacity: 0; stroke: #000000"/>
     <use xlink:href="#md881ad126b" x="295.2" y="259.335634" style="fill-opacity: 0; stroke: #000000"/>
     <use xlink:href="#md881ad126b" x="295.2" y="286.210199" style="fill-opacity: 0; stroke: #000000"/>
     <use xlink:href="#md881ad126b" x="295.2" y="271.210451" style="fill-opacity: 0; stroke: #000000"/>
     <use xlink:href="#md881ad126b" x="295.2" y="273.703858" style="fill-opacity: 0; stroke: #000000"/>
     <use xlink:href="#md881ad126b" x="295.2" y="291.557168" style="fill-opacity: 0; stroke: #000000"/>
     <use xlink:href="#md881ad126b" x="295.2" y="275.005338" style="fill-opacity: 0; stroke: #000000"/>
     <use xlink:href="#md881ad126b" x="295.2" y="253.721754" style="fill-opacity: 0; stroke: #000000"/>
     <use xlink:href="#md881ad126b" x="295.2" y="287.481001" style="fill-opacity: 0; stroke: #000000"/>
     <use xlink:href="#md881ad126b" x="295.2" y="65.438367" style="fill-opacity: 0; stroke: #000000"/>
     <use xlink:href="#md881ad126b" x="295.2" y="195.322894" style="fill-opacity: 0; stroke: #000000"/>
     <use xlink:href="#md881ad126b" x="295.2" y="283.438177" style="fill-opacity: 0; stroke: #000000"/>
     <use xlink:href="#md881ad126b" x="295.2" y="276.404082" style="fill-opacity: 0; stroke: #000000"/>
     <use xlink:href="#md881ad126b" x="295.2" y="290.008817" style="fill-opacity: 0; stroke: #000000"/>
     <use xlink:href="#md881ad126b" x="295.2" y="269.817958" style="fill-opacity: 0; stroke: #000000"/>
     <use xlink:href="#md881ad126b" x="295.2" y="282.043454" style="fill-opacity: 0; stroke: #000000"/>
     <use xlink:href="#md881ad126b" x="295.2" y="278.752197" style="fill-opacity: 0; stroke: #000000"/>
     <use xlink:href="#md881ad126b" x="295.2" y="290.739037" style="fill-opacity: 0; stroke: #000000"/>
     <use xlink:href="#md881ad126b" x="295.2" y="286.607137" style="fill-opacity: 0; stroke: #000000"/>
     <use xlink:href="#md881ad126b" x="295.2" y="286.851973" style="fill-opacity: 0; stroke: #000000"/>
     <use xlink:href="#md881ad126b" x="295.2" y="283.229252" style="fill-opacity: 0; stroke: #000000"/>
     <use xlink:href="#md881ad126b" x="295.2" y="288.387554" style="fill-opacity: 0; stroke: #000000"/>
     <use xlink:href="#md881ad126b" x="295.2" y="277.510255" style="fill-opacity: 0; stroke: #000000"/>
     <use xlink:href="#md881ad126b" x="295.2" y="293.270342" style="fill-opacity: 0; stroke: #000000"/>
     <use xlink:href="#md881ad126b" x="295.2" y="290.493958" style="fill-opacity: 0; stroke: #000000"/>
     <use xlink:href="#md881ad126b" x="295.2" y="294.845178" style="fill-opacity: 0; stroke: #000000"/>
     <use xlink:href="#md881ad126b" x="295.2" y="293.652959" style="fill-opacity: 0; stroke: #000000"/>
     <use xlink:href="#md881ad126b" x="295.2" y="274.654512" style="fill-opacity: 0; stroke: #000000"/>
     <use xlink:href="#md881ad126b" x="295.2" y="293.929442" style="fill-opacity: 0; stroke: #000000"/>
     <use xlink:href="#md881ad126b" x="295.2" y="291.636599" style="fill-opacity: 0; stroke: #000000"/>
     <use xlink:href="#md881ad126b" x="295.2" y="290.653257" style="fill-opacity: 0; stroke: #000000"/>
     <use xlink:href="#md881ad126b" x="295.2" y="291.514327" style="fill-opacity: 0; stroke: #000000"/>
     <use xlink:href="#md881ad126b" x="295.2" y="277.160108" style="fill-opacity: 0; stroke: #000000"/>
     <use xlink:href="#md881ad126b" x="295.2" y="215.070534" style="fill-opacity: 0; stroke: #000000"/>
     <use xlink:href="#md881ad126b" x="295.2" y="292.557667" style="fill-opacity: 0; stroke: #000000"/>
     <use xlink:href="#md881ad126b" x="295.2" y="290.393664" style="fill-opacity: 0; stroke: #000000"/>
     <use xlink:href="#md881ad126b" x="295.2" y="292.641242" style="fill-opacity: 0; stroke: #000000"/>
     <use xlink:href="#md881ad126b" x="295.2" y="271.652678" style="fill-opacity: 0; stroke: #000000"/>
     <use xlink:href="#md881ad126b" x="295.2" y="268.461982" style="fill-opacity: 0; stroke: #000000"/>
     <use xlink:href="#md881ad126b" x="295.2" y="262.883261" style="fill-opacity: 0; stroke: #000000"/>
     <use xlink:href="#md881ad126b" x="295.2" y="273.305248" style="fill-opacity: 0; stroke: #000000"/>
     <use xlink:href="#md881ad126b" x="295.2" y="287.80568" style="fill-opacity: 0; stroke: #000000"/>
     <use xlink:href="#md881ad126b" x="295.2" y="272.794907" style="fill-opacity: 0; stroke: #000000"/>
     <use xlink:href="#md881ad126b" x="295.2" y="294.660412" style="fill-opacity: 0; stroke: #000000"/>
     <use xlink:href="#md881ad126b" x="295.2" y="285.39672" style="fill-opacity: 0; stroke: #000000"/>
     <use xlink:href="#md881ad126b" x="295.2" y="236.550684" style="fill-opacity: 0; stroke: #000000"/>
     <use xlink:href="#md881ad126b" x="295.2" y="280.777038" style="fill-opacity: 0; stroke: #000000"/>
     <use xlink:href="#md881ad126b" x="295.2" y="293.978996" style="fill-opacity: 0; stroke: #000000"/>
     <use xlink:href="#md881ad126b" x="295.2" y="278.857871" style="fill-opacity: 0; stroke: #000000"/>
     <use xlink:href="#md881ad126b" x="295.2" y="283.450365" style="fill-opacity: 0; stroke: #000000"/>
     <use xlink:href="#md881ad126b" x="295.2" y="256.198611" style="fill-opacity: 0; stroke: #000000"/>
     <use xlink:href="#md881ad126b" x="295.2" y="289.713919" style="fill-opacity: 0; stroke: #000000"/>
     <use xlink:href="#md881ad126b" x="295.2" y="291.588742" style="fill-opacity: 0; stroke: #000000"/>
     <use xlink:href="#md881ad126b" x="295.2" y="255.347452" style="fill-opacity: 0; stroke: #000000"/>
     <use xlink:href="#md881ad126b" x="295.2" y="291.254588" style="fill-opacity: 0; stroke: #000000"/>
     <use xlink:href="#md881ad126b" x="295.2" y="279.383067" style="fill-opacity: 0; stroke: #000000"/>
     <use xlink:href="#md881ad126b" x="295.2" y="257.266328" style="fill-opacity: 0; stroke: #000000"/>
     <use xlink:href="#md881ad126b" x="295.2" y="244.901718" style="fill-opacity: 0; stroke: #000000"/>
     <use xlink:href="#md881ad126b" x="295.2" y="289.251919" style="fill-opacity: 0; stroke: #000000"/>
     <use xlink:href="#md881ad126b" x="295.2" y="289.004951" style="fill-opacity: 0; stroke: #000000"/>
     <use xlink:href="#md881ad126b" x="295.2" y="277.969153" style="fill-opacity: 0; stroke: #000000"/>
     <use xlink:href="#md881ad126b" x="295.2" y="255.256317" style="fill-opacity: 0; stroke: #000000"/>
     <use xlink:href="#md881ad126b" x="295.2" y="285.165308" style="fill-opacity: 0; stroke: #000000"/>
    </g>
   </g>
   <g id="line2d_14">
    <path d="M 250.56 318.738069 
L 339.84 318.738069 
" clip-path="url(#p0576aceef6)" style="fill: none; stroke: #ff7f0e"/>
   </g>
   <g id="patch_4">
    <path d="M 72 384.48 
L 72 51.84 
" style="fill: none; stroke: #000000; stroke-width: 0.8; stroke-linejoin: miter; stroke-linecap: square"/>
   </g>
   <g id="patch_5">
    <path d="M 518.4 384.48 
L 518.4 51.84 
" style="fill: none; stroke: #000000; stroke-width: 0.8; stroke-linejoin: miter; stroke-linecap: square"/>
   </g>
   <g id="patch_6">
    <path d="M 72 384.48 
L 518.4 384.48 
" style="fill: none; stroke: #000000; stroke-width: 0.8; stroke-linejoin: miter; stroke-linecap: square"/>
   </g>
   <g id="patch_7">
    <path d="M 72 51.84 
L 518.4 51.84 
" style="fill: none; stroke: #000000; stroke-width: 0.8; stroke-linejoin: miter; stroke-linecap: square"/>
   </g>
   <g id="text_10">
    <!-- Unregister Faultload -->
    <g transform="translate(234.737812 45.84) scale(0.12 -0.12)">
     <defs>
      <path id="DejaVuSans-55" d="M 556 4666 
L 1191 4666 
L 1191 1831 
Q 1191 1081 1462 751 
Q 1734 422 2344 422 
Q 2950 422 3222 751 
Q 3494 1081 3494 1831 
L 3494 4666 
L 4128 4666 
L 4128 1753 
Q 4128 841 3676 375 
Q 3225 -91 2344 -91 
Q 1459 -91 1007 375 
Q 556 841 556 1753 
L 556 4666 
z
" transform="scale(0.015625)"/>
      <path id="DejaVuSans-6e" d="M 3513 2113 
L 3513 0 
L 2938 0 
L 2938 2094 
Q 2938 2591 2744 2837 
Q 2550 3084 2163 3084 
Q 1697 3084 1428 2787 
Q 1159 2491 1159 1978 
L 1159 0 
L 581 0 
L 581 3500 
L 1159 3500 
L 1159 2956 
Q 1366 3272 1645 3428 
Q 1925 3584 2291 3584 
Q 2894 3584 3203 3211 
Q 3513 2838 3513 2113 
z
" transform="scale(0.015625)"/>
      <path id="DejaVuSans-72" d="M 2631 2963 
Q 2534 3019 2420 3045 
Q 2306 3072 2169 3072 
Q 1681 3072 1420 2755 
Q 1159 2438 1159 1844 
L 1159 0 
L 581 0 
L 581 3500 
L 1159 3500 
L 1159 2956 
Q 1341 3275 1631 3429 
Q 1922 3584 2338 3584 
Q 2397 3584 2469 3576 
Q 2541 3569 2628 3553 
L 2631 2963 
z
" transform="scale(0.015625)"/>
      <path id="DejaVuSans-67" d="M 2906 1791 
Q 2906 2416 2648 2759 
Q 2391 3103 1925 3103 
Q 1463 3103 1205 2759 
Q 947 2416 947 1791 
Q 947 1169 1205 825 
Q 1463 481 1925 481 
Q 2391 481 2648 825 
Q 2906 1169 2906 1791 
z
M 3481 434 
Q 3481 -459 3084 -895 
Q 2688 -1331 1869 -1331 
Q 1566 -1331 1297 -1286 
Q 1028 -1241 775 -1147 
L 775 -588 
Q 1028 -725 1275 -790 
Q 1522 -856 1778 -856 
Q 2344 -856 2625 -561 
Q 2906 -266 2906 331 
L 2906 616 
Q 2728 306 2450 153 
Q 2172 0 1784 0 
Q 1141 0 747 490 
Q 353 981 353 1791 
Q 353 2603 747 3093 
Q 1141 3584 1784 3584 
Q 2172 3584 2450 3431 
Q 2728 3278 2906 2969 
L 2906 3500 
L 3481 3500 
L 3481 434 
z
" transform="scale(0.015625)"/>
      <path id="DejaVuSans-74" d="M 1172 4494 
L 1172 3500 
L 2356 3500 
L 2356 3053 
L 1172 3053 
L 1172 1153 
Q 1172 725 1289 603 
Q 1406 481 1766 481 
L 2356 481 
L 2356 0 
L 1766 0 
Q 1100 0 847 248 
Q 594 497 594 1153 
L 594 3053 
L 172 3053 
L 172 3500 
L 594 3500 
L 594 4494 
L 1172 4494 
z
" transform="scale(0.015625)"/>
      <path id="DejaVuSans-46" d="M 628 4666 
L 3309 4666 
L 3309 4134 
L 1259 4134 
L 1259 2759 
L 3109 2759 
L 3109 2228 
L 1259 2228 
L 1259 0 
L 628 0 
L 628 4666 
z
" transform="scale(0.015625)"/>
      <path id="DejaVuSans-61" d="M 2194 1759 
Q 1497 1759 1228 1600 
Q 959 1441 959 1056 
Q 959 750 1161 570 
Q 1363 391 1709 391 
Q 2188 391 2477 730 
Q 2766 1069 2766 1631 
L 2766 1759 
L 2194 1759 
z
M 3341 1997 
L 3341 0 
L 2766 0 
L 2766 531 
Q 2569 213 2275 61 
Q 1981 -91 1556 -91 
Q 1019 -91 701 211 
Q 384 513 384 1019 
Q 384 1609 779 1909 
Q 1175 2209 1959 2209 
L 2766 2209 
L 2766 2266 
Q 2766 2663 2505 2880 
Q 2244 3097 1772 3097 
Q 1472 3097 1187 3025 
Q 903 2953 641 2809 
L 641 3341 
Q 956 3463 1253 3523 
Q 1550 3584 1831 3584 
Q 2591 3584 2966 3190 
Q 3341 2797 3341 1997 
z
" transform="scale(0.015625)"/>
      <path id="DejaVuSans-75" d="M 544 1381 
L 544 3500 
L 1119 3500 
L 1119 1403 
Q 1119 906 1312 657 
Q 1506 409 1894 409 
Q 2359 409 2629 706 
Q 2900 1003 2900 1516 
L 2900 3500 
L 3475 3500 
L 3475 0 
L 2900 0 
L 2900 538 
Q 2691 219 2414 64 
Q 2138 -91 1772 -91 
Q 1169 -91 856 284 
Q 544 659 544 1381 
z
M 1991 3584 
L 1991 3584 
z
" transform="scale(0.015625)"/>
      <path id="DejaVuSans-6c" d="M 603 4863 
L 1178 4863 
L 1178 0 
L 603 0 
L 603 4863 
z
" transform="scale(0.015625)"/>
      <path id="DejaVuSans-6f" d="M 1959 3097 
Q 1497 3097 1228 2736 
Q 959 2375 959 1747 
Q 959 1119 1226 758 
Q 1494 397 1959 397 
Q 2419 397 2687 759 
Q 2956 1122 2956 1747 
Q 2956 2369 2687 2733 
Q 2419 3097 1959 3097 
z
M 1959 3584 
Q 2709 3584 3137 3096 
Q 3566 2609 3566 1747 
Q 3566 888 3137 398 
Q 2709 -91 1959 -91 
Q 1206 -91 779 398 
Q 353 888 353 1747 
Q 353 2609 779 3096 
Q 1206 3584 1959 3584 
z
" transform="scale(0.015625)"/>
      <path id="DejaVuSans-64" d="M 2906 2969 
L 2906 4863 
L 3481 4863 
L 3481 0 
L 2906 0 
L 2906 525 
Q 2725 213 2448 61 
Q 2172 -91 1784 -91 
Q 1150 -91 751 415 
Q 353 922 353 1747 
Q 353 2572 751 3078 
Q 1150 3584 1784 3584 
Q 2172 3584 2448 3432 
Q 2725 3281 2906 2969 
z
M 947 1747 
Q 947 1113 1208 752 
Q 1469 391 1925 391 
Q 2381 391 2643 752 
Q 2906 1113 2906 1747 
Q 2906 2381 2643 2742 
Q 2381 3103 1925 3103 
Q 1469 3103 1208 2742 
Q 947 2381 947 1747 
z
" transform="scale(0.015625)"/>
     </defs>
     <use xlink:href="#DejaVuSans-55"/>
     <use xlink:href="#DejaVuSans-6e" transform="translate(73.193359 0)"/>
     <use xlink:href="#DejaVuSans-72" transform="translate(136.572266 0)"/>
     <use xlink:href="#DejaVuSans-65" transform="translate(175.435547 0)"/>
     <use xlink:href="#DejaVuSans-67" transform="translate(236.958984 0)"/>
     <use xlink:href="#DejaVuSans-69" transform="translate(300.435547 0)"/>
     <use xlink:href="#DejaVuSans-73" transform="translate(328.21875 0)"/>
     <use xlink:href="#DejaVuSans-74" transform="translate(380.318359 0)"/>
     <use xlink:href="#DejaVuSans-65" transform="translate(419.527344 0)"/>
     <use xlink:href="#DejaVuSans-72" transform="translate(481.050781 0)"/>
     <use xlink:href="#DejaVuSans-20" transform="translate(522.164062 0)"/>
     <use xlink:href="#DejaVuSans-46" transform="translate(553.951172 0)"/>
     <use xlink:href="#DejaVuSans-61" transform="translate(602.345703 0)"/>
     <use xlink:href="#DejaVuSans-75" transform="translate(663.625 0)"/>
     <use xlink:href="#DejaVuSans-6c" transform="translate(727.003906 0)"/>
     <use xlink:href="#DejaVuSans-74" transform="translate(754.787109 0)"/>
     <use xlink:href="#DejaVuSans-6c" transform="translate(793.996094 0)"/>
     <use xlink:href="#DejaVuSans-6f" transform="translate(821.779297 0)"/>
     <use xlink:href="#DejaVuSans-61" transform="translate(882.960938 0)"/>
     <use xlink:href="#DejaVuSans-64" transform="translate(944.240234 0)"/>
    </g>
   </g>
  </g>
 </g>
 <defs>
  <clipPath id="p0576aceef6">
   <rect x="72" y="51.84" width="446.4" height="332.64"/>
  </clipPath>
 </defs>
</svg>
