<?xml version="1.0" encoding="utf-8" standalone="no"?>
<!DOCTYPE svg PUBLIC "-//W3C//DTD SVG 1.1//EN"
  "http://www.w3.org/Graphics/SVG/1.1/DTD/svg11.dtd">
<svg xmlns:xlink="http://www.w3.org/1999/xlink" width="576pt" height="432pt" viewBox="0 0 576 432" xmlns="http://www.w3.org/2000/svg" version="1.1">
 <metadata>
  <rdf:RDF xmlns:dc="http://purl.org/dc/elements/1.1/" xmlns:cc="http://creativecommons.org/ns#" xmlns:rdf="http://www.w3.org/1999/02/22-rdf-syntax-ns#">
   <cc:Work>
    <dc:type rdf:resource="http://purl.org/dc/dcmitype/StillImage"/>
    <dc:date>2025-06-10T01:38:28.289323</dc:date>
    <dc:format>image/svg+xml</dc:format>
    <dc:creator>
     <cc:Agent>
      <dc:title>Matplotlib v3.10.3, https://matplotlib.org/</dc:title>
     </cc:Agent>
    </dc:creator>
   </cc:Work>
  </rdf:RDF>
 </metadata>
 <defs>
  <style type="text/css">*{stroke-linejoin: round; stroke-linecap: butt}</style>
 </defs>
 <g id="figure_1">
  <g id="patch_1">
   <path d="M 0 432 
L 576 432 
L 576 0 
L 0 0 
z
" style="fill: #ffffff"/>
  </g>
  <g id="axes_1">
   <g id="patch_2">
    <path d="M 72 384.48 
L 518.4 384.48 
L 518.4 51.84 
L 72 51.84 
z
" style="fill: #ffffff"/>
   </g>
   <g id="FillBetweenPolyCollection_1">
    <path d="M 343.008333 375.854024 
L 247.391667 375.854024 
L 183.6 372.737006 
L 212.757891 369.619988 
L 266.971231 366.50297 
L 285.318276 363.385952 
L 290.323067 360.268934 
L 292.402596 357.151916 
L 293.351637 354.034898 
L 293.760551 350.91788 
L 294.210793 347.800862 
L 294.423486 344.683844 
L 294.625725 341.566826 
L 294.768572 338.449808 
L 294.853795 335.332789 
L 294.843737 332.215771 
L 294.760236 329.098753 
L 294.882849 325.981735 
L 295.030644 322.864717 
L 295.049056 319.747699 
L 295.027008 316.630681 
L 295.018842 313.513663 
L 295.064071 310.396645 
L 295.092199 307.279627 
L 295.136816 304.162609 
L 295.187919 301.045591 
L 295.199468 297.928573 
L 295.199995 294.811555 
L 295.199997 291.694537 
L 295.199671 288.577519 
L 295.191124 285.460501 
L 295.148907 282.343483 
L 295.129457 279.226465 
L 295.133349 276.109447 
L 295.13742 272.992429 
L 295.184049 269.875411 
L 295.199125 266.758393 
L 295.19999 263.641375 
L 295.2 260.524357 
L 295.2 257.407339 
L 295.2 254.290321 
L 295.2 251.173303 
L 295.2 248.056285 
L 295.2 244.939267 
L 295.2 241.822249 
L 295.2 238.705231 
L 295.2 235.588213 
L 295.2 232.471195 
L 295.2 229.354177 
L 295.2 226.237159 
L 295.2 223.120141 
L 295.2 220.003123 
L 295.2 216.886104 
L 295.2 213.769086 
L 295.2 210.652068 
L 295.2 207.53505 
L 295.2 204.418032 
L 295.2 201.301014 
L 295.2 198.183996 
L 295.2 195.066978 
L 295.2 191.94996 
L 295.2 188.832942 
L 295.2 185.715924 
L 295.2 182.598906 
L 295.2 179.481888 
L 295.2 176.36487 
L 295.2 173.247852 
L 295.2 170.130834 
L 295.2 167.013816 
L 295.2 163.896798 
L 295.2 160.77978 
L 295.2 157.662762 
L 295.2 154.545744 
L 295.199964 151.428726 
L 295.1979 148.311708 
L 295.174075 145.19469 
L 295.132014 142.077672 
L 295.160746 138.960654 
L 295.174613 135.843636 
L 295.134122 132.726618 
L 295.156074 129.6096 
L 295.193769 126.492582 
L 295.199812 123.375564 
L 295.199999 120.258546 
L 295.2 117.141528 
L 295.2 114.02451 
L 295.2 110.907492 
L 295.2 107.790474 
L 295.2 104.673456 
L 295.2 101.556438 
L 295.2 98.439419 
L 295.2 95.322401 
L 295.2 92.205383 
L 295.2 89.088365 
L 295.2 85.971347 
L 295.2 82.854329 
L 295.2 79.737311 
L 295.199936 76.620293 
L 295.196899 73.503275 
L 295.168315 70.386257 
L 295.131246 67.269239 
L 295.268754 67.269239 
L 295.268754 67.269239 
L 295.231685 70.386257 
L 295.203101 73.503275 
L 295.200064 76.620293 
L 295.2 79.737311 
L 295.2 82.854329 
L 295.2 85.971347 
L 295.2 89.088365 
L 295.2 92.205383 
L 295.2 95.322401 
L 295.2 98.439419 
L 295.2 101.556438 
L 295.2 104.673456 
L 295.2 107.790474 
L 295.2 110.907492 
L 295.2 114.02451 
L 295.2 117.141528 
L 295.200001 120.258546 
L 295.200188 123.375564 
L 295.206231 126.492582 
L 295.243926 129.6096 
L 295.265878 132.726618 
L 295.225387 135.843636 
L 295.239254 138.960654 
L 295.267986 142.077672 
L 295.225925 145.19469 
L 295.2021 148.311708 
L 295.200036 151.428726 
L 295.2 154.545744 
L 295.2 157.662762 
L 295.2 160.77978 
L 295.2 163.896798 
L 295.2 167.013816 
L 295.2 170.130834 
L 295.2 173.247852 
L 295.2 176.36487 
L 295.2 179.481888 
L 295.2 182.598906 
L 295.2 185.715924 
L 295.2 188.832942 
L 295.2 191.94996 
L 295.2 195.066978 
L 295.2 198.183996 
L 295.2 201.301014 
L 295.2 204.418032 
L 295.2 207.53505 
L 295.2 210.652068 
L 295.2 213.769086 
L 295.2 216.886104 
L 295.2 220.003123 
L 295.2 223.120141 
L 295.2 226.237159 
L 295.2 229.354177 
L 295.2 232.471195 
L 295.2 235.588213 
L 295.2 238.705231 
L 295.2 241.822249 
L 295.2 244.939267 
L 295.2 248.056285 
L 295.2 251.173303 
L 295.2 254.290321 
L 295.2 257.407339 
L 295.2 260.524357 
L 295.20001 263.641375 
L 295.200875 266.758393 
L 295.215951 269.875411 
L 295.26258 272.992429 
L 295.266651 276.109447 
L 295.270543 279.226465 
L 295.251093 282.343483 
L 295.208876 285.460501 
L 295.200329 288.577519 
L 295.200003 291.694537 
L 295.200005 294.811555 
L 295.200532 297.928573 
L 295.212081 301.045591 
L 295.263184 304.162609 
L 295.307801 307.279627 
L 295.335929 310.396645 
L 295.381158 313.513663 
L 295.372992 316.630681 
L 295.350944 319.747699 
L 295.369356 322.864717 
L 295.517151 325.981735 
L 295.639764 329.098753 
L 295.556263 332.215771 
L 295.546205 335.332789 
L 295.631428 338.449808 
L 295.774275 341.566826 
L 295.976514 344.683844 
L 296.189207 347.800862 
L 296.639449 350.91788 
L 297.048363 354.034898 
L 297.997404 357.151916 
L 300.076933 360.268934 
L 305.081724 363.385952 
L 323.428769 366.50297 
L 377.642109 369.619988 
L 406.8 372.737006 
L 343.008333 375.854024 
z
" clip-path="url(#p1fe390acf5)" style="fill: #1f77b4; fill-opacity: 0.3"/>
   </g>
   <g id="matplotlib.axis_1">
    <g id="xtick_1">
     <g id="line2d_1">
      <defs>
       <path id="ma1da478032" d="M 0 0 
L 0 3.5 
" style="stroke: #000000; stroke-width: 0.8"/>
      </defs>
      <g>
       <use xlink:href="#ma1da478032" x="295.2" y="384.48" style="stroke: #000000; stroke-width: 0.8"/>
      </g>
     </g>
     <g id="text_1">
      <!-- 1 -->
      <g transform="translate(292.01875 399.078438) scale(0.1 -0.1)">
       <defs>
        <path id="DejaVuSans-31" d="M 794 531 
L 1825 531 
L 1825 4091 
L 703 3866 
L 703 4441 
L 1819 4666 
L 2450 4666 
L 2450 531 
L 3481 531 
L 3481 0 
L 794 0 
L 794 531 
z
" transform="scale(0.015625)"/>
       </defs>
       <use xlink:href="#DejaVuSans-31"/>
      </g>
     </g>
    </g>
   </g>
   <g id="matplotlib.axis_2">
    <g id="ytick_1">
     <g id="line2d_2">
      <defs>
       <path id="m616d0fc1d4" d="M 0 0 
L -3.5 0 
" style="stroke: #000000; stroke-width: 0.8"/>
      </defs>
      <g>
       <use xlink:href="#m616d0fc1d4" x="72" y="384.48" style="stroke: #000000; stroke-width: 0.8"/>
      </g>
     </g>
     <g id="text_2">
      <!-- 0 -->
      <g transform="translate(58.6375 388.279219) scale(0.1 -0.1)">
       <defs>
        <path id="DejaVuSans-30" d="M 2034 4250 
Q 1547 4250 1301 3770 
Q 1056 3291 1056 2328 
Q 1056 1369 1301 889 
Q 1547 409 2034 409 
Q 2525 409 2770 889 
Q 3016 1369 3016 2328 
Q 3016 3291 2770 3770 
Q 2525 4250 2034 4250 
z
M 2034 4750 
Q 2819 4750 3233 4129 
Q 3647 3509 3647 2328 
Q 3647 1150 3233 529 
Q 2819 -91 2034 -91 
Q 1250 -91 836 529 
Q 422 1150 422 2328 
Q 422 3509 836 4129 
Q 1250 4750 2034 4750 
z
" transform="scale(0.015625)"/>
       </defs>
       <use xlink:href="#DejaVuSans-30"/>
      </g>
     </g>
    </g>
    <g id="ytick_2">
     <g id="line2d_3">
      <g>
       <use xlink:href="#m616d0fc1d4" x="72" y="343.752992" style="stroke: #000000; stroke-width: 0.8"/>
      </g>
     </g>
     <g id="text_3">
      <!-- 20 -->
      <g transform="translate(52.275 347.552211) scale(0.1 -0.1)">
       <defs>
        <path id="DejaVuSans-32" d="M 1228 531 
L 3431 531 
L 3431 0 
L 469 0 
L 469 531 
Q 828 903 1448 1529 
Q 2069 2156 2228 2338 
Q 2531 2678 2651 2914 
Q 2772 3150 2772 3378 
Q 2772 3750 2511 3984 
Q 2250 4219 1831 4219 
Q 1534 4219 1204 4116 
Q 875 4013 500 3803 
L 500 4441 
Q 881 4594 1212 4672 
Q 1544 4750 1819 4750 
Q 2544 4750 2975 4387 
Q 3406 4025 3406 3419 
Q 3406 3131 3298 2873 
Q 3191 2616 2906 2266 
Q 2828 2175 2409 1742 
Q 1991 1309 1228 531 
z
" transform="scale(0.015625)"/>
       </defs>
       <use xlink:href="#DejaVuSans-32"/>
       <use xlink:href="#DejaVuSans-30" transform="translate(63.623047 0)"/>
      </g>
     </g>
    </g>
    <g id="ytick_3">
     <g id="line2d_4">
      <g>
       <use xlink:href="#m616d0fc1d4" x="72" y="303.025985" style="stroke: #000000; stroke-width: 0.8"/>
      </g>
     </g>
     <g id="text_4">
      <!-- 40 -->
      <g transform="translate(52.275 306.825203) scale(0.1 -0.1)">
       <defs>
        <path id="DejaVuSans-34" d="M 2419 4116 
L 825 1625 
L 2419 1625 
L 2419 4116 
z
M 2253 4666 
L 3047 4666 
L 3047 1625 
L 3713 1625 
L 3713 1100 
L 3047 1100 
L 3047 0 
L 2419 0 
L 2419 1100 
L 313 1100 
L 313 1709 
L 2253 4666 
z
" transform="scale(0.015625)"/>
       </defs>
       <use xlink:href="#DejaVuSans-34"/>
       <use xlink:href="#DejaVuSans-30" transform="translate(63.623047 0)"/>
      </g>
     </g>
    </g>
    <g id="ytick_4">
     <g id="line2d_5">
      <g>
       <use xlink:href="#m616d0fc1d4" x="72" y="262.298977" style="stroke: #000000; stroke-width: 0.8"/>
      </g>
     </g>
     <g id="text_5">
      <!-- 60 -->
      <g transform="translate(52.275 266.098196) scale(0.1 -0.1)">
       <defs>
        <path id="DejaVuSans-36" d="M 2113 2584 
Q 1688 2584 1439 2293 
Q 1191 2003 1191 1497 
Q 1191 994 1439 701 
Q 1688 409 2113 409 
Q 2538 409 2786 701 
Q 3034 994 3034 1497 
Q 3034 2003 2786 2293 
Q 2538 2584 2113 2584 
z
M 3366 4563 
L 3366 3988 
Q 3128 4100 2886 4159 
Q 2644 4219 2406 4219 
Q 1781 4219 1451 3797 
Q 1122 3375 1075 2522 
Q 1259 2794 1537 2939 
Q 1816 3084 2150 3084 
Q 2853 3084 3261 2657 
Q 3669 2231 3669 1497 
Q 3669 778 3244 343 
Q 2819 -91 2113 -91 
Q 1303 -91 875 529 
Q 447 1150 447 2328 
Q 447 3434 972 4092 
Q 1497 4750 2381 4750 
Q 2619 4750 2861 4703 
Q 3103 4656 3366 4563 
z
" transform="scale(0.015625)"/>
       </defs>
       <use xlink:href="#DejaVuSans-36"/>
       <use xlink:href="#DejaVuSans-30" transform="translate(63.623047 0)"/>
      </g>
     </g>
    </g>
    <g id="ytick_5">
     <g id="line2d_6">
      <g>
       <use xlink:href="#m616d0fc1d4" x="72" y="221.571969" style="stroke: #000000; stroke-width: 0.8"/>
      </g>
     </g>
     <g id="text_6">
      <!-- 80 -->
      <g transform="translate(52.275 225.371188) scale(0.1 -0.1)">
       <defs>
        <path id="DejaVuSans-38" d="M 2034 2216 
Q 1584 2216 1326 1975 
Q 1069 1734 1069 1313 
Q 1069 891 1326 650 
Q 1584 409 2034 409 
Q 2484 409 2743 651 
Q 3003 894 3003 1313 
Q 3003 1734 2745 1975 
Q 2488 2216 2034 2216 
z
M 1403 2484 
Q 997 2584 770 2862 
Q 544 3141 544 3541 
Q 544 4100 942 4425 
Q 1341 4750 2034 4750 
Q 2731 4750 3128 4425 
Q 3525 4100 3525 3541 
Q 3525 3141 3298 2862 
Q 3072 2584 2669 2484 
Q 3125 2378 3379 2068 
Q 3634 1759 3634 1313 
Q 3634 634 3220 271 
Q 2806 -91 2034 -91 
Q 1263 -91 848 271 
Q 434 634 434 1313 
Q 434 1759 690 2068 
Q 947 2378 1403 2484 
z
M 1172 3481 
Q 1172 3119 1398 2916 
Q 1625 2713 2034 2713 
Q 2441 2713 2670 2916 
Q 2900 3119 2900 3481 
Q 2900 3844 2670 4047 
Q 2441 4250 2034 4250 
Q 1625 4250 1398 4047 
Q 1172 3844 1172 3481 
z
" transform="scale(0.015625)"/>
       </defs>
       <use xlink:href="#DejaVuSans-38"/>
       <use xlink:href="#DejaVuSans-30" transform="translate(63.623047 0)"/>
      </g>
     </g>
    </g>
    <g id="ytick_6">
     <g id="line2d_7">
      <g>
       <use xlink:href="#m616d0fc1d4" x="72" y="180.844961" style="stroke: #000000; stroke-width: 0.8"/>
      </g>
     </g>
     <g id="text_7">
      <!-- 100 -->
      <g transform="translate(45.9125 184.64418) scale(0.1 -0.1)">
       <use xlink:href="#DejaVuSans-31"/>
       <use xlink:href="#DejaVuSans-30" transform="translate(63.623047 0)"/>
       <use xlink:href="#DejaVuSans-30" transform="translate(127.246094 0)"/>
      </g>
     </g>
    </g>
    <g id="ytick_7">
     <g id="line2d_8">
      <g>
       <use xlink:href="#m616d0fc1d4" x="72" y="140.117954" style="stroke: #000000; stroke-width: 0.8"/>
      </g>
     </g>
     <g id="text_8">
      <!-- 120 -->
      <g transform="translate(45.9125 143.917172) scale(0.1 -0.1)">
       <use xlink:href="#DejaVuSans-31"/>
       <use xlink:href="#DejaVuSans-32" transform="translate(63.623047 0)"/>
       <use xlink:href="#DejaVuSans-30" transform="translate(127.246094 0)"/>
      </g>
     </g>
    </g>
    <g id="ytick_8">
     <g id="line2d_9">
      <g>
       <use xlink:href="#m616d0fc1d4" x="72" y="99.390946" style="stroke: #000000; stroke-width: 0.8"/>
      </g>
     </g>
     <g id="text_9">
      <!-- 140 -->
      <g transform="translate(45.9125 103.190165) scale(0.1 -0.1)">
       <use xlink:href="#DejaVuSans-31"/>
       <use xlink:href="#DejaVuSans-34" transform="translate(63.623047 0)"/>
       <use xlink:href="#DejaVuSans-30" transform="translate(127.246094 0)"/>
      </g>
     </g>
    </g>
    <g id="ytick_9">
     <g id="line2d_10">
      <g>
       <use xlink:href="#m616d0fc1d4" x="72" y="58.663938" style="stroke: #000000; stroke-width: 0.8"/>
      </g>
     </g>
     <g id="text_10">
      <!-- 160 -->
      <g transform="translate(45.9125 62.463157) scale(0.1 -0.1)">
       <use xlink:href="#DejaVuSans-31"/>
       <use xlink:href="#DejaVuSans-36" transform="translate(63.623047 0)"/>
       <use xlink:href="#DejaVuSans-30" transform="translate(127.246094 0)"/>
      </g>
     </g>
    </g>
    <g id="text_11">
     <!-- Time (ms) -->
     <g transform="translate(39.832812 243.359219) rotate(-90) scale(0.1 -0.1)">
      <defs>
       <path id="DejaVuSans-54" d="M -19 4666 
L 3928 4666 
L 3928 4134 
L 2272 4134 
L 2272 0 
L 1638 0 
L 1638 4134 
L -19 4134 
L -19 4666 
z
" transform="scale(0.015625)"/>
       <path id="DejaVuSans-69" d="M 603 3500 
L 1178 3500 
L 1178 0 
L 603 0 
L 603 3500 
z
M 603 4863 
L 1178 4863 
L 1178 4134 
L 603 4134 
L 603 4863 
z
" transform="scale(0.015625)"/>
       <path id="DejaVuSans-6d" d="M 3328 2828 
Q 3544 3216 3844 3400 
Q 4144 3584 4550 3584 
Q 5097 3584 5394 3201 
Q 5691 2819 5691 2113 
L 5691 0 
L 5113 0 
L 5113 2094 
Q 5113 2597 4934 2840 
Q 4756 3084 4391 3084 
Q 3944 3084 3684 2787 
Q 3425 2491 3425 1978 
L 3425 0 
L 2847 0 
L 2847 2094 
Q 2847 2600 2669 2842 
Q 2491 3084 2119 3084 
Q 1678 3084 1418 2786 
Q 1159 2488 1159 1978 
L 1159 0 
L 581 0 
L 581 3500 
L 1159 3500 
L 1159 2956 
Q 1356 3278 1631 3431 
Q 1906 3584 2284 3584 
Q 2666 3584 2933 3390 
Q 3200 3197 3328 2828 
z
" transform="scale(0.015625)"/>
       <path id="DejaVuSans-65" d="M 3597 1894 
L 3597 1613 
L 953 1613 
Q 991 1019 1311 708 
Q 1631 397 2203 397 
Q 2534 397 2845 478 
Q 3156 559 3463 722 
L 3463 178 
Q 3153 47 2828 -22 
Q 2503 -91 2169 -91 
Q 1331 -91 842 396 
Q 353 884 353 1716 
Q 353 2575 817 3079 
Q 1281 3584 2069 3584 
Q 2775 3584 3186 3129 
Q 3597 2675 3597 1894 
z
M 3022 2063 
Q 3016 2534 2758 2815 
Q 2500 3097 2075 3097 
Q 1594 3097 1305 2825 
Q 1016 2553 972 2059 
L 3022 2063 
z
" transform="scale(0.015625)"/>
       <path id="DejaVuSans-20" transform="scale(0.015625)"/>
       <path id="DejaVuSans-28" d="M 1984 4856 
Q 1566 4138 1362 3434 
Q 1159 2731 1159 2009 
Q 1159 1288 1364 580 
Q 1569 -128 1984 -844 
L 1484 -844 
Q 1016 -109 783 600 
Q 550 1309 550 2009 
Q 550 2706 781 3412 
Q 1013 4119 1484 4856 
L 1984 4856 
z
" transform="scale(0.015625)"/>
       <path id="DejaVuSans-73" d="M 2834 3397 
L 2834 2853 
Q 2591 2978 2328 3040 
Q 2066 3103 1784 3103 
Q 1356 3103 1142 2972 
Q 928 2841 928 2578 
Q 928 2378 1081 2264 
Q 1234 2150 1697 2047 
L 1894 2003 
Q 2506 1872 2764 1633 
Q 3022 1394 3022 966 
Q 3022 478 2636 193 
Q 2250 -91 1575 -91 
Q 1294 -91 989 -36 
Q 684 19 347 128 
L 347 722 
Q 666 556 975 473 
Q 1284 391 1588 391 
Q 1994 391 2212 530 
Q 2431 669 2431 922 
Q 2431 1156 2273 1281 
Q 2116 1406 1581 1522 
L 1381 1569 
Q 847 1681 609 1914 
Q 372 2147 372 2553 
Q 372 3047 722 3315 
Q 1072 3584 1716 3584 
Q 2034 3584 2315 3537 
Q 2597 3491 2834 3397 
z
" transform="scale(0.015625)"/>
       <path id="DejaVuSans-29" d="M 513 4856 
L 1013 4856 
Q 1481 4119 1714 3412 
Q 1947 2706 1947 2009 
Q 1947 1309 1714 600 
Q 1481 -109 1013 -844 
L 513 -844 
Q 928 -128 1133 580 
Q 1338 1288 1338 2009 
Q 1338 2731 1133 3434 
Q 928 4138 513 4856 
z
" transform="scale(0.015625)"/>
      </defs>
      <use xlink:href="#DejaVuSans-54"/>
      <use xlink:href="#DejaVuSans-69" transform="translate(57.958984 0)"/>
      <use xlink:href="#DejaVuSans-6d" transform="translate(85.742188 0)"/>
      <use xlink:href="#DejaVuSans-65" transform="translate(183.154297 0)"/>
      <use xlink:href="#DejaVuSans-20" transform="translate(244.677734 0)"/>
      <use xlink:href="#DejaVuSans-28" transform="translate(276.464844 0)"/>
      <use xlink:href="#DejaVuSans-6d" transform="translate(315.478516 0)"/>
      <use xlink:href="#DejaVuSans-73" transform="translate(412.890625 0)"/>
      <use xlink:href="#DejaVuSans-29" transform="translate(464.990234 0)"/>
     </g>
    </g>
   </g>
   <g id="LineCollection_1">
    <path d="M 239.4 369.959016 
L 351 369.959016 
" clip-path="url(#p1fe390acf5)" style="fill: none; stroke: #1f77b4; stroke-width: 1.5"/>
   </g>
   <g id="LineCollection_2">
    <path d="M 239.4 67.269239 
L 351 67.269239 
" clip-path="url(#p1fe390acf5)" style="fill: none; stroke: #1f77b4; stroke-width: 1.5"/>
   </g>
   <g id="LineCollection_3">
    <path d="M 239.4 375.854024 
L 351 375.854024 
" clip-path="url(#p1fe390acf5)" style="fill: none; stroke: #1f77b4; stroke-width: 1.5"/>
   </g>
   <g id="LineCollection_4">
    <path d="M 295.2 375.854024 
L 295.2 67.269239 
" clip-path="url(#p1fe390acf5)" style="fill: none; stroke: #1f77b4; stroke-width: 1.5"/>
   </g>
   <g id="patch_3">
    <path d="M 250.56 372.929965 
L 339.84 372.929965 
L 339.84 370.355518 
L 250.56 370.355518 
L 250.56 372.929965 
z
" clip-path="url(#p1fe390acf5)" style="fill: #1f77b4; stroke: #000000; stroke-linejoin: miter"/>
   </g>
   <g id="line2d_11">
    <path d="M 295.2 372.929965 
L 295.2 375.854024 
" clip-path="url(#p1fe390acf5)" style="fill: none; stroke: #000000; stroke-linecap: square"/>
   </g>
   <g id="line2d_12">
    <path d="M 295.2 370.355518 
L 295.2 366.532192 
" clip-path="url(#p1fe390acf5)" style="fill: none; stroke: #000000; stroke-linecap: square"/>
   </g>
   <g id="line2d_13">
    <path d="M 272.88 375.854024 
L 317.52 375.854024 
" clip-path="url(#p1fe390acf5)" style="fill: none; stroke: #000000; stroke-linecap: square"/>
   </g>
   <g id="line2d_14">
    <path d="M 272.88 366.532192 
L 317.52 366.532192 
" clip-path="url(#p1fe390acf5)" style="fill: none; stroke: #000000; stroke-linecap: square"/>
   </g>
   <g id="line2d_15">
    <defs>
     <path id="m51c0aee2db" d="M 0 3 
C 0.795609 3 1.55874 2.683901 2.12132 2.12132 
C 2.683901 1.55874 3 0.795609 3 0 
C 3 -0.795609 2.683901 -1.55874 2.12132 -2.12132 
C 1.55874 -2.683901 0.795609 -3 0 -3 
C -0.795609 -3 -1.55874 -2.683901 -2.12132 -2.12132 
C -2.683901 -1.55874 -3 -0.795609 -3 0 
C -3 0.795609 -2.683901 1.55874 -2.12132 2.12132 
C -1.55874 2.683901 -0.795609 3 0 3 
z
" style="stroke: #000000"/>
    </defs>
    <g clip-path="url(#p1fe390acf5)">
     <use xlink:href="#m51c0aee2db" x="295.2" y="67.269239" style="fill-opacity: 0; stroke: #000000"/>
     <use xlink:href="#m51c0aee2db" x="295.2" y="314.496905" style="fill-opacity: 0; stroke: #000000"/>
     <use xlink:href="#m51c0aee2db" x="295.2" y="316.947156" style="fill-opacity: 0; stroke: #000000"/>
     <use xlink:href="#m51c0aee2db" x="295.2" y="329.054442" style="fill-opacity: 0; stroke: #000000"/>
     <use xlink:href="#m51c0aee2db" x="295.2" y="339.955539" style="fill-opacity: 0; stroke: #000000"/>
     <use xlink:href="#m51c0aee2db" x="295.2" y="305.738963" style="fill-opacity: 0; stroke: #000000"/>
     <use xlink:href="#m51c0aee2db" x="295.2" y="335.10269" style="fill-opacity: 0; stroke: #000000"/>
     <use xlink:href="#m51c0aee2db" x="295.2" y="345.502618" style="fill-opacity: 0; stroke: #000000"/>
     <use xlink:href="#m51c0aee2db" x="295.2" y="344.767869" style="fill-opacity: 0; stroke: #000000"/>
     <use xlink:href="#m51c0aee2db" x="295.2" y="338.915933" style="fill-opacity: 0; stroke: #000000"/>
     <use xlink:href="#m51c0aee2db" x="295.2" y="333.162972" style="fill-opacity: 0; stroke: #000000"/>
     <use xlink:href="#m51c0aee2db" x="295.2" y="350.159359" style="fill-opacity: 0; stroke: #000000"/>
     <use xlink:href="#m51c0aee2db" x="295.2" y="334.542054" style="fill-opacity: 0; stroke: #000000"/>
     <use xlink:href="#m51c0aee2db" x="295.2" y="329.163391" style="fill-opacity: 0; stroke: #000000"/>
     <use xlink:href="#m51c0aee2db" x="295.2" y="346.609426" style="fill-opacity: 0; stroke: #000000"/>
     <use xlink:href="#m51c0aee2db" x="295.2" y="339.638261" style="fill-opacity: 0; stroke: #000000"/>
     <use xlink:href="#m51c0aee2db" x="295.2" y="354.636487" style="fill-opacity: 0; stroke: #000000"/>
     <use xlink:href="#m51c0aee2db" x="295.2" y="358.028187" style="fill-opacity: 0; stroke: #000000"/>
     <use xlink:href="#m51c0aee2db" x="295.2" y="356.766" style="fill-opacity: 0; stroke: #000000"/>
     <use xlink:href="#m51c0aee2db" x="295.2" y="355.851712" style="fill-opacity: 0; stroke: #000000"/>
     <use xlink:href="#m51c0aee2db" x="295.2" y="350.893553" style="fill-opacity: 0; stroke: #000000"/>
     <use xlink:href="#m51c0aee2db" x="295.2" y="356.328446" style="fill-opacity: 0; stroke: #000000"/>
     <use xlink:href="#m51c0aee2db" x="295.2" y="341.732965" style="fill-opacity: 0; stroke: #000000"/>
     <use xlink:href="#m51c0aee2db" x="295.2" y="345.175185" style="fill-opacity: 0; stroke: #000000"/>
     <use xlink:href="#m51c0aee2db" x="295.2" y="358.49442" style="fill-opacity: 0; stroke: #000000"/>
     <use xlink:href="#m51c0aee2db" x="295.2" y="352.657531" style="fill-opacity: 0; stroke: #000000"/>
     <use xlink:href="#m51c0aee2db" x="295.2" y="359.394126" style="fill-opacity: 0; stroke: #000000"/>
     <use xlink:href="#m51c0aee2db" x="295.2" y="359.553784" style="fill-opacity: 0; stroke: #000000"/>
     <use xlink:href="#m51c0aee2db" x="295.2" y="352.339029" style="fill-opacity: 0; stroke: #000000"/>
     <use xlink:href="#m51c0aee2db" x="295.2" y="329.126492" style="fill-opacity: 0; stroke: #000000"/>
     <use xlink:href="#m51c0aee2db" x="295.2" y="361.103934" style="fill-opacity: 0; stroke: #000000"/>
     <use xlink:href="#m51c0aee2db" x="295.2" y="352.442277" style="fill-opacity: 0; stroke: #000000"/>
     <use xlink:href="#m51c0aee2db" x="295.2" y="362.516827" style="fill-opacity: 0; stroke: #000000"/>
     <use xlink:href="#m51c0aee2db" x="295.2" y="350.970938" style="fill-opacity: 0; stroke: #000000"/>
     <use xlink:href="#m51c0aee2db" x="295.2" y="352.721069" style="fill-opacity: 0; stroke: #000000"/>
     <use xlink:href="#m51c0aee2db" x="295.2" y="363.019017" style="fill-opacity: 0; stroke: #000000"/>
     <use xlink:href="#m51c0aee2db" x="295.2" y="361.766393" style="fill-opacity: 0; stroke: #000000"/>
     <use xlink:href="#m51c0aee2db" x="295.2" y="349.302674" style="fill-opacity: 0; stroke: #000000"/>
     <use xlink:href="#m51c0aee2db" x="295.2" y="356.387502" style="fill-opacity: 0; stroke: #000000"/>
     <use xlink:href="#m51c0aee2db" x="295.2" y="359.55521" style="fill-opacity: 0; stroke: #000000"/>
     <use xlink:href="#m51c0aee2db" x="295.2" y="363.619568" style="fill-opacity: 0; stroke: #000000"/>
     <use xlink:href="#m51c0aee2db" x="295.2" y="356.696025" style="fill-opacity: 0; stroke: #000000"/>
     <use xlink:href="#m51c0aee2db" x="295.2" y="362.74715" style="fill-opacity: 0; stroke: #000000"/>
     <use xlink:href="#m51c0aee2db" x="295.2" y="366.47875" style="fill-opacity: 0; stroke: #000000"/>
     <use xlink:href="#m51c0aee2db" x="295.2" y="363.705098" style="fill-opacity: 0; stroke: #000000"/>
     <use xlink:href="#m51c0aee2db" x="295.2" y="364.619874" style="fill-opacity: 0; stroke: #000000"/>
     <use xlink:href="#m51c0aee2db" x="295.2" y="366.11952" style="fill-opacity: 0; stroke: #000000"/>
     <use xlink:href="#m51c0aee2db" x="295.2" y="358.869536" style="fill-opacity: 0; stroke: #000000"/>
     <use xlink:href="#m51c0aee2db" x="295.2" y="365.60674" style="fill-opacity: 0; stroke: #000000"/>
     <use xlink:href="#m51c0aee2db" x="295.2" y="359.020234" style="fill-opacity: 0; stroke: #000000"/>
     <use xlink:href="#m51c0aee2db" x="295.2" y="361.818322" style="fill-opacity: 0; stroke: #000000"/>
     <use xlink:href="#m51c0aee2db" x="295.2" y="365.94744" style="fill-opacity: 0; stroke: #000000"/>
     <use xlink:href="#m51c0aee2db" x="295.2" y="359.396163" style="fill-opacity: 0; stroke: #000000"/>
     <use xlink:href="#m51c0aee2db" x="295.2" y="365.478853" style="fill-opacity: 0; stroke: #000000"/>
     <use xlink:href="#m51c0aee2db" x="295.2" y="364.745117" style="fill-opacity: 0; stroke: #000000"/>
     <use xlink:href="#m51c0aee2db" x="295.2" y="352.383424" style="fill-opacity: 0; stroke: #000000"/>
     <use xlink:href="#m51c0aee2db" x="295.2" y="366.457776" style="fill-opacity: 0; stroke: #000000"/>
     <use xlink:href="#m51c0aee2db" x="295.2" y="362.222965" style="fill-opacity: 0; stroke: #000000"/>
     <use xlink:href="#m51c0aee2db" x="295.2" y="358.634323" style="fill-opacity: 0; stroke: #000000"/>
     <use xlink:href="#m51c0aee2db" x="295.2" y="362.56733" style="fill-opacity: 0; stroke: #000000"/>
     <use xlink:href="#m51c0aee2db" x="295.2" y="361.594311" style="fill-opacity: 0; stroke: #000000"/>
     <use xlink:href="#m51c0aee2db" x="295.2" y="365.011486" style="fill-opacity: 0; stroke: #000000"/>
     <use xlink:href="#m51c0aee2db" x="295.2" y="362.684427" style="fill-opacity: 0; stroke: #000000"/>
     <use xlink:href="#m51c0aee2db" x="295.2" y="363.981242" style="fill-opacity: 0; stroke: #000000"/>
     <use xlink:href="#m51c0aee2db" x="295.2" y="366.373263" style="fill-opacity: 0; stroke: #000000"/>
     <use xlink:href="#m51c0aee2db" x="295.2" y="365.36542" style="fill-opacity: 0; stroke: #000000"/>
     <use xlink:href="#m51c0aee2db" x="295.2" y="365.444641" style="fill-opacity: 0; stroke: #000000"/>
     <use xlink:href="#m51c0aee2db" x="295.2" y="366.488728" style="fill-opacity: 0; stroke: #000000"/>
     <use xlink:href="#m51c0aee2db" x="295.2" y="366.279992" style="fill-opacity: 0; stroke: #000000"/>
     <use xlink:href="#m51c0aee2db" x="295.2" y="365.656227" style="fill-opacity: 0; stroke: #000000"/>
     <use xlink:href="#m51c0aee2db" x="295.2" y="366.166358" style="fill-opacity: 0; stroke: #000000"/>
     <use xlink:href="#m51c0aee2db" x="295.2" y="360.97299" style="fill-opacity: 0; stroke: #000000"/>
     <use xlink:href="#m51c0aee2db" x="295.2" y="359.460921" style="fill-opacity: 0; stroke: #000000"/>
     <use xlink:href="#m51c0aee2db" x="295.2" y="361.655609" style="fill-opacity: 0; stroke: #000000"/>
     <use xlink:href="#m51c0aee2db" x="295.2" y="365.162793" style="fill-opacity: 0; stroke: #000000"/>
     <use xlink:href="#m51c0aee2db" x="295.2" y="363.453393" style="fill-opacity: 0; stroke: #000000"/>
     <use xlink:href="#m51c0aee2db" x="295.2" y="364.310943" style="fill-opacity: 0; stroke: #000000"/>
     <use xlink:href="#m51c0aee2db" x="295.2" y="365.880643" style="fill-opacity: 0; stroke: #000000"/>
     <use xlink:href="#m51c0aee2db" x="295.2" y="365.119824" style="fill-opacity: 0; stroke: #000000"/>
     <use xlink:href="#m51c0aee2db" x="295.2" y="365.260341" style="fill-opacity: 0; stroke: #000000"/>
     <use xlink:href="#m51c0aee2db" x="295.2" y="366.450038" style="fill-opacity: 0; stroke: #000000"/>
     <use xlink:href="#m51c0aee2db" x="295.2" y="363.795111" style="fill-opacity: 0; stroke: #000000"/>
     <use xlink:href="#m51c0aee2db" x="295.2" y="363.442193" style="fill-opacity: 0; stroke: #000000"/>
     <use xlink:href="#m51c0aee2db" x="295.2" y="362.675467" style="fill-opacity: 0; stroke: #000000"/>
     <use xlink:href="#m51c0aee2db" x="295.2" y="366.076349" style="fill-opacity: 0; stroke: #000000"/>
     <use xlink:href="#m51c0aee2db" x="295.2" y="364.403603" style="fill-opacity: 0; stroke: #000000"/>
     <use xlink:href="#m51c0aee2db" x="295.2" y="362.20138" style="fill-opacity: 0; stroke: #000000"/>
     <use xlink:href="#m51c0aee2db" x="295.2" y="366.085307" style="fill-opacity: 0; stroke: #000000"/>
     <use xlink:href="#m51c0aee2db" x="295.2" y="365.570287" style="fill-opacity: 0; stroke: #000000"/>
     <use xlink:href="#m51c0aee2db" x="295.2" y="365.39108" style="fill-opacity: 0; stroke: #000000"/>
     <use xlink:href="#m51c0aee2db" x="295.2" y="362.494834" style="fill-opacity: 0; stroke: #000000"/>
     <use xlink:href="#m51c0aee2db" x="295.2" y="365.371328" style="fill-opacity: 0; stroke: #000000"/>
     <use xlink:href="#m51c0aee2db" x="295.2" y="364.965257" style="fill-opacity: 0; stroke: #000000"/>
     <use xlink:href="#m51c0aee2db" x="295.2" y="359.504704" style="fill-opacity: 0; stroke: #000000"/>
     <use xlink:href="#m51c0aee2db" x="295.2" y="360.992134" style="fill-opacity: 0; stroke: #000000"/>
     <use xlink:href="#m51c0aee2db" x="295.2" y="365.191712" style="fill-opacity: 0; stroke: #000000"/>
     <use xlink:href="#m51c0aee2db" x="295.2" y="366.444804" style="fill-opacity: 0; stroke: #000000"/>
     <use xlink:href="#m51c0aee2db" x="295.2" y="359.690108" style="fill-opacity: 0; stroke: #000000"/>
     <use xlink:href="#m51c0aee2db" x="295.2" y="360.976735" style="fill-opacity: 0; stroke: #000000"/>
     <use xlink:href="#m51c0aee2db" x="295.2" y="364.307754" style="fill-opacity: 0; stroke: #000000"/>
     <use xlink:href="#m51c0aee2db" x="295.2" y="358.115323" style="fill-opacity: 0; stroke: #000000"/>
     <use xlink:href="#m51c0aee2db" x="295.2" y="365.105321" style="fill-opacity: 0; stroke: #000000"/>
     <use xlink:href="#m51c0aee2db" x="295.2" y="362.865238" style="fill-opacity: 0; stroke: #000000"/>
     <use xlink:href="#m51c0aee2db" x="295.2" y="366.474215" style="fill-opacity: 0; stroke: #000000"/>
     <use xlink:href="#m51c0aee2db" x="295.2" y="365.084754" style="fill-opacity: 0; stroke: #000000"/>
     <use xlink:href="#m51c0aee2db" x="295.2" y="362.744886" style="fill-opacity: 0; stroke: #000000"/>
     <use xlink:href="#m51c0aee2db" x="295.2" y="141.697251" style="fill-opacity: 0; stroke: #000000"/>
     <use xlink:href="#m51c0aee2db" x="295.2" y="309.574065" style="fill-opacity: 0; stroke: #000000"/>
     <use xlink:href="#m51c0aee2db" x="295.2" y="313.104658" style="fill-opacity: 0; stroke: #000000"/>
     <use xlink:href="#m51c0aee2db" x="295.2" y="336.263169" style="fill-opacity: 0; stroke: #000000"/>
     <use xlink:href="#m51c0aee2db" x="295.2" y="274.156936" style="fill-opacity: 0; stroke: #000000"/>
     <use xlink:href="#m51c0aee2db" x="295.2" y="328.004551" style="fill-opacity: 0; stroke: #000000"/>
     <use xlink:href="#m51c0aee2db" x="295.2" y="322.791644" style="fill-opacity: 0; stroke: #000000"/>
     <use xlink:href="#m51c0aee2db" x="295.2" y="326.341178" style="fill-opacity: 0; stroke: #000000"/>
     <use xlink:href="#m51c0aee2db" x="295.2" y="345.642858" style="fill-opacity: 0; stroke: #000000"/>
     <use xlink:href="#m51c0aee2db" x="295.2" y="327.21787" style="fill-opacity: 0; stroke: #000000"/>
     <use xlink:href="#m51c0aee2db" x="295.2" y="343.093019" style="fill-opacity: 0; stroke: #000000"/>
     <use xlink:href="#m51c0aee2db" x="295.2" y="341.786839" style="fill-opacity: 0; stroke: #000000"/>
     <use xlink:href="#m51c0aee2db" x="295.2" y="349.230064" style="fill-opacity: 0; stroke: #000000"/>
     <use xlink:href="#m51c0aee2db" x="295.2" y="352.835396" style="fill-opacity: 0; stroke: #000000"/>
     <use xlink:href="#m51c0aee2db" x="295.2" y="359.171812" style="fill-opacity: 0; stroke: #000000"/>
     <use xlink:href="#m51c0aee2db" x="295.2" y="362.338693" style="fill-opacity: 0; stroke: #000000"/>
     <use xlink:href="#m51c0aee2db" x="295.2" y="360.576553" style="fill-opacity: 0; stroke: #000000"/>
     <use xlink:href="#m51c0aee2db" x="295.2" y="361.636934" style="fill-opacity: 0; stroke: #000000"/>
     <use xlink:href="#m51c0aee2db" x="295.2" y="362.371686" style="fill-opacity: 0; stroke: #000000"/>
     <use xlink:href="#m51c0aee2db" x="295.2" y="361.322913" style="fill-opacity: 0; stroke: #000000"/>
     <use xlink:href="#m51c0aee2db" x="295.2" y="360.889353" style="fill-opacity: 0; stroke: #000000"/>
     <use xlink:href="#m51c0aee2db" x="295.2" y="362.080268" style="fill-opacity: 0; stroke: #000000"/>
     <use xlink:href="#m51c0aee2db" x="295.2" y="363.001356" style="fill-opacity: 0; stroke: #000000"/>
     <use xlink:href="#m51c0aee2db" x="295.2" y="364.195733" style="fill-opacity: 0; stroke: #000000"/>
     <use xlink:href="#m51c0aee2db" x="295.2" y="362.265993" style="fill-opacity: 0; stroke: #000000"/>
     <use xlink:href="#m51c0aee2db" x="295.2" y="364.524212" style="fill-opacity: 0; stroke: #000000"/>
     <use xlink:href="#m51c0aee2db" x="295.2" y="364.073955" style="fill-opacity: 0; stroke: #000000"/>
     <use xlink:href="#m51c0aee2db" x="295.2" y="353.323124" style="fill-opacity: 0; stroke: #000000"/>
     <use xlink:href="#m51c0aee2db" x="295.2" y="362.92336" style="fill-opacity: 0; stroke: #000000"/>
     <use xlink:href="#m51c0aee2db" x="295.2" y="365.183821" style="fill-opacity: 0; stroke: #000000"/>
     <use xlink:href="#m51c0aee2db" x="295.2" y="365.990254" style="fill-opacity: 0; stroke: #000000"/>
     <use xlink:href="#m51c0aee2db" x="295.2" y="364.909917" style="fill-opacity: 0; stroke: #000000"/>
     <use xlink:href="#m51c0aee2db" x="295.2" y="365.777038" style="fill-opacity: 0; stroke: #000000"/>
     <use xlink:href="#m51c0aee2db" x="295.2" y="364.239109" style="fill-opacity: 0; stroke: #000000"/>
     <use xlink:href="#m51c0aee2db" x="295.2" y="366.372903" style="fill-opacity: 0; stroke: #000000"/>
     <use xlink:href="#m51c0aee2db" x="295.2" y="364.178918" style="fill-opacity: 0; stroke: #000000"/>
     <use xlink:href="#m51c0aee2db" x="295.2" y="363.540292" style="fill-opacity: 0; stroke: #000000"/>
     <use xlink:href="#m51c0aee2db" x="295.2" y="364.883528" style="fill-opacity: 0; stroke: #000000"/>
     <use xlink:href="#m51c0aee2db" x="295.2" y="280.393005" style="fill-opacity: 0; stroke: #000000"/>
     <use xlink:href="#m51c0aee2db" x="295.2" y="356.787451" style="fill-opacity: 0; stroke: #000000"/>
     <use xlink:href="#m51c0aee2db" x="295.2" y="365.649638" style="fill-opacity: 0; stroke: #000000"/>
     <use xlink:href="#m51c0aee2db" x="295.2" y="366.075864" style="fill-opacity: 0; stroke: #000000"/>
     <use xlink:href="#m51c0aee2db" x="295.2" y="362.871932" style="fill-opacity: 0; stroke: #000000"/>
     <use xlink:href="#m51c0aee2db" x="295.2" y="360.707399" style="fill-opacity: 0; stroke: #000000"/>
     <use xlink:href="#m51c0aee2db" x="295.2" y="363.12608" style="fill-opacity: 0; stroke: #000000"/>
     <use xlink:href="#m51c0aee2db" x="295.2" y="356.988795" style="fill-opacity: 0; stroke: #000000"/>
     <use xlink:href="#m51c0aee2db" x="295.2" y="359.657151" style="fill-opacity: 0; stroke: #000000"/>
     <use xlink:href="#m51c0aee2db" x="295.2" y="364.744193" style="fill-opacity: 0; stroke: #000000"/>
     <use xlink:href="#m51c0aee2db" x="295.2" y="364.228768" style="fill-opacity: 0; stroke: #000000"/>
     <use xlink:href="#m51c0aee2db" x="295.2" y="365.03968" style="fill-opacity: 0; stroke: #000000"/>
     <use xlink:href="#m51c0aee2db" x="295.2" y="361.821077" style="fill-opacity: 0; stroke: #000000"/>
     <use xlink:href="#m51c0aee2db" x="295.2" y="352.031272" style="fill-opacity: 0; stroke: #000000"/>
     <use xlink:href="#m51c0aee2db" x="295.2" y="355.141308" style="fill-opacity: 0; stroke: #000000"/>
     <use xlink:href="#m51c0aee2db" x="295.2" y="366.22162" style="fill-opacity: 0; stroke: #000000"/>
     <use xlink:href="#m51c0aee2db" x="295.2" y="364.076832" style="fill-opacity: 0; stroke: #000000"/>
     <use xlink:href="#m51c0aee2db" x="295.2" y="131.980105" style="fill-opacity: 0; stroke: #000000"/>
     <use xlink:href="#m51c0aee2db" x="295.2" y="320.070691" style="fill-opacity: 0; stroke: #000000"/>
     <use xlink:href="#m51c0aee2db" x="295.2" y="339.806087" style="fill-opacity: 0; stroke: #000000"/>
     <use xlink:href="#m51c0aee2db" x="295.2" y="345.964707" style="fill-opacity: 0; stroke: #000000"/>
     <use xlink:href="#m51c0aee2db" x="295.2" y="348.13678" style="fill-opacity: 0; stroke: #000000"/>
     <use xlink:href="#m51c0aee2db" x="295.2" y="351.831705" style="fill-opacity: 0; stroke: #000000"/>
     <use xlink:href="#m51c0aee2db" x="295.2" y="355.5081" style="fill-opacity: 0; stroke: #000000"/>
     <use xlink:href="#m51c0aee2db" x="295.2" y="352.554033" style="fill-opacity: 0; stroke: #000000"/>
     <use xlink:href="#m51c0aee2db" x="295.2" y="350.503129" style="fill-opacity: 0; stroke: #000000"/>
     <use xlink:href="#m51c0aee2db" x="295.2" y="355.740663" style="fill-opacity: 0; stroke: #000000"/>
     <use xlink:href="#m51c0aee2db" x="295.2" y="351.183505" style="fill-opacity: 0; stroke: #000000"/>
     <use xlink:href="#m51c0aee2db" x="295.2" y="358.237752" style="fill-opacity: 0; stroke: #000000"/>
     <use xlink:href="#m51c0aee2db" x="295.2" y="356.615113" style="fill-opacity: 0; stroke: #000000"/>
     <use xlink:href="#m51c0aee2db" x="295.2" y="359.687296" style="fill-opacity: 0; stroke: #000000"/>
     <use xlink:href="#m51c0aee2db" x="295.2" y="357.34355" style="fill-opacity: 0; stroke: #000000"/>
     <use xlink:href="#m51c0aee2db" x="295.2" y="359.026264" style="fill-opacity: 0; stroke: #000000"/>
     <use xlink:href="#m51c0aee2db" x="295.2" y="360.918324" style="fill-opacity: 0; stroke: #000000"/>
     <use xlink:href="#m51c0aee2db" x="295.2" y="362.73402" style="fill-opacity: 0; stroke: #000000"/>
     <use xlink:href="#m51c0aee2db" x="295.2" y="344.925712" style="fill-opacity: 0; stroke: #000000"/>
     <use xlink:href="#m51c0aee2db" x="295.2" y="360.53466" style="fill-opacity: 0; stroke: #000000"/>
     <use xlink:href="#m51c0aee2db" x="295.2" y="355.959988" style="fill-opacity: 0; stroke: #000000"/>
     <use xlink:href="#m51c0aee2db" x="295.2" y="362.216355" style="fill-opacity: 0; stroke: #000000"/>
     <use xlink:href="#m51c0aee2db" x="295.2" y="348.46872" style="fill-opacity: 0; stroke: #000000"/>
     <use xlink:href="#m51c0aee2db" x="295.2" y="362.683924" style="fill-opacity: 0; stroke: #000000"/>
     <use xlink:href="#m51c0aee2db" x="295.2" y="360.564189" style="fill-opacity: 0; stroke: #000000"/>
     <use xlink:href="#m51c0aee2db" x="295.2" y="358.770691" style="fill-opacity: 0; stroke: #000000"/>
     <use xlink:href="#m51c0aee2db" x="295.2" y="360.032064" style="fill-opacity: 0; stroke: #000000"/>
     <use xlink:href="#m51c0aee2db" x="295.2" y="350.316386" style="fill-opacity: 0; stroke: #000000"/>
     <use xlink:href="#m51c0aee2db" x="295.2" y="356.429389" style="fill-opacity: 0; stroke: #000000"/>
     <use xlink:href="#m51c0aee2db" x="295.2" y="357.486304" style="fill-opacity: 0; stroke: #000000"/>
     <use xlink:href="#m51c0aee2db" x="295.2" y="360.947446" style="fill-opacity: 0; stroke: #000000"/>
     <use xlink:href="#m51c0aee2db" x="295.2" y="352.485808" style="fill-opacity: 0; stroke: #000000"/>
     <use xlink:href="#m51c0aee2db" x="295.2" y="358.941747" style="fill-opacity: 0; stroke: #000000"/>
     <use xlink:href="#m51c0aee2db" x="295.2" y="331.176849" style="fill-opacity: 0; stroke: #000000"/>
     <use xlink:href="#m51c0aee2db" x="295.2" y="345.634389" style="fill-opacity: 0; stroke: #000000"/>
     <use xlink:href="#m51c0aee2db" x="295.2" y="363.576698" style="fill-opacity: 0; stroke: #000000"/>
     <use xlink:href="#m51c0aee2db" x="295.2" y="365.386692" style="fill-opacity: 0; stroke: #000000"/>
     <use xlink:href="#m51c0aee2db" x="295.2" y="365.595019" style="fill-opacity: 0; stroke: #000000"/>
     <use xlink:href="#m51c0aee2db" x="295.2" y="363.907418" style="fill-opacity: 0; stroke: #000000"/>
     <use xlink:href="#m51c0aee2db" x="295.2" y="366.201473" style="fill-opacity: 0; stroke: #000000"/>
     <use xlink:href="#m51c0aee2db" x="295.2" y="366.461121" style="fill-opacity: 0; stroke: #000000"/>
     <use xlink:href="#m51c0aee2db" x="295.2" y="365.636766" style="fill-opacity: 0; stroke: #000000"/>
     <use xlink:href="#m51c0aee2db" x="295.2" y="366.415505" style="fill-opacity: 0; stroke: #000000"/>
     <use xlink:href="#m51c0aee2db" x="295.2" y="365.871366" style="fill-opacity: 0; stroke: #000000"/>
     <use xlink:href="#m51c0aee2db" x="295.2" y="365.37651" style="fill-opacity: 0; stroke: #000000"/>
     <use xlink:href="#m51c0aee2db" x="295.2" y="366.324474" style="fill-opacity: 0; stroke: #000000"/>
     <use xlink:href="#m51c0aee2db" x="295.2" y="365.043143" style="fill-opacity: 0; stroke: #000000"/>
     <use xlink:href="#m51c0aee2db" x="295.2" y="354.031062" style="fill-opacity: 0; stroke: #000000"/>
     <use xlink:href="#m51c0aee2db" x="295.2" y="365.343519" style="fill-opacity: 0; stroke: #000000"/>
     <use xlink:href="#m51c0aee2db" x="295.2" y="364.183765" style="fill-opacity: 0; stroke: #000000"/>
     <use xlink:href="#m51c0aee2db" x="295.2" y="365.428032" style="fill-opacity: 0; stroke: #000000"/>
     <use xlink:href="#m51c0aee2db" x="295.2" y="365.777893" style="fill-opacity: 0; stroke: #000000"/>
     <use xlink:href="#m51c0aee2db" x="295.2" y="364.575781" style="fill-opacity: 0; stroke: #000000"/>
     <use xlink:href="#m51c0aee2db" x="295.2" y="363.708255" style="fill-opacity: 0; stroke: #000000"/>
     <use xlink:href="#m51c0aee2db" x="295.2" y="365.527206" style="fill-opacity: 0; stroke: #000000"/>
     <use xlink:href="#m51c0aee2db" x="295.2" y="366.114111" style="fill-opacity: 0; stroke: #000000"/>
     <use xlink:href="#m51c0aee2db" x="295.2" y="364.50919" style="fill-opacity: 0; stroke: #000000"/>
     <use xlink:href="#m51c0aee2db" x="295.2" y="364.760282" style="fill-opacity: 0; stroke: #000000"/>
     <use xlink:href="#m51c0aee2db" x="295.2" y="364.232841" style="fill-opacity: 0; stroke: #000000"/>
     <use xlink:href="#m51c0aee2db" x="295.2" y="364.806306" style="fill-opacity: 0; stroke: #000000"/>
     <use xlink:href="#m51c0aee2db" x="295.2" y="364.663551" style="fill-opacity: 0; stroke: #000000"/>
    </g>
   </g>
   <g id="line2d_16">
    <path d="M 250.56 371.955698 
L 339.84 371.955698 
" clip-path="url(#p1fe390acf5)" style="fill: none; stroke: #ff7f0e"/>
   </g>
   <g id="patch_4">
    <path d="M 72 384.48 
L 72 51.84 
" style="fill: none; stroke: #000000; stroke-width: 0.8; stroke-linejoin: miter; stroke-linecap: square"/>
   </g>
   <g id="patch_5">
    <path d="M 518.4 384.48 
L 518.4 51.84 
" style="fill: none; stroke: #000000; stroke-width: 0.8; stroke-linejoin: miter; stroke-linecap: square"/>
   </g>
   <g id="patch_6">
    <path d="M 72 384.48 
L 518.4 384.48 
" style="fill: none; stroke: #000000; stroke-width: 0.8; stroke-linejoin: miter; stroke-linecap: square"/>
   </g>
   <g id="patch_7">
    <path d="M 72 51.84 
L 518.4 51.84 
" style="fill: none; stroke: #000000; stroke-width: 0.8; stroke-linejoin: miter; stroke-linecap: square"/>
   </g>
   <g id="text_12">
    <!-- Get Trace With Delay -->
    <g transform="translate(232.04625 45.84) scale(0.12 -0.12)">
     <defs>
      <path id="DejaVuSans-47" d="M 3809 666 
L 3809 1919 
L 2778 1919 
L 2778 2438 
L 4434 2438 
L 4434 434 
Q 4069 175 3628 42 
Q 3188 -91 2688 -91 
Q 1594 -91 976 548 
Q 359 1188 359 2328 
Q 359 3472 976 4111 
Q 1594 4750 2688 4750 
Q 3144 4750 3555 4637 
Q 3966 4525 4313 4306 
L 4313 3634 
Q 3963 3931 3569 4081 
Q 3175 4231 2741 4231 
Q 1884 4231 1454 3753 
Q 1025 3275 1025 2328 
Q 1025 1384 1454 906 
Q 1884 428 2741 428 
Q 3075 428 3337 486 
Q 3600 544 3809 666 
z
" transform="scale(0.015625)"/>
      <path id="DejaVuSans-74" d="M 1172 4494 
L 1172 3500 
L 2356 3500 
L 2356 3053 
L 1172 3053 
L 1172 1153 
Q 1172 725 1289 603 
Q 1406 481 1766 481 
L 2356 481 
L 2356 0 
L 1766 0 
Q 1100 0 847 248 
Q 594 497 594 1153 
L 594 3053 
L 172 3053 
L 172 3500 
L 594 3500 
L 594 4494 
L 1172 4494 
z
" transform="scale(0.015625)"/>
      <path id="DejaVuSans-72" d="M 2631 2963 
Q 2534 3019 2420 3045 
Q 2306 3072 2169 3072 
Q 1681 3072 1420 2755 
Q 1159 2438 1159 1844 
L 1159 0 
L 581 0 
L 581 3500 
L 1159 3500 
L 1159 2956 
Q 1341 3275 1631 3429 
Q 1922 3584 2338 3584 
Q 2397 3584 2469 3576 
Q 2541 3569 2628 3553 
L 2631 2963 
z
" transform="scale(0.015625)"/>
      <path id="DejaVuSans-61" d="M 2194 1759 
Q 1497 1759 1228 1600 
Q 959 1441 959 1056 
Q 959 750 1161 570 
Q 1363 391 1709 391 
Q 2188 391 2477 730 
Q 2766 1069 2766 1631 
L 2766 1759 
L 2194 1759 
z
M 3341 1997 
L 3341 0 
L 2766 0 
L 2766 531 
Q 2569 213 2275 61 
Q 1981 -91 1556 -91 
Q 1019 -91 701 211 
Q 384 513 384 1019 
Q 384 1609 779 1909 
Q 1175 2209 1959 2209 
L 2766 2209 
L 2766 2266 
Q 2766 2663 2505 2880 
Q 2244 3097 1772 3097 
Q 1472 3097 1187 3025 
Q 903 2953 641 2809 
L 641 3341 
Q 956 3463 1253 3523 
Q 1550 3584 1831 3584 
Q 2591 3584 2966 3190 
Q 3341 2797 3341 1997 
z
" transform="scale(0.015625)"/>
      <path id="DejaVuSans-63" d="M 3122 3366 
L 3122 2828 
Q 2878 2963 2633 3030 
Q 2388 3097 2138 3097 
Q 1578 3097 1268 2742 
Q 959 2388 959 1747 
Q 959 1106 1268 751 
Q 1578 397 2138 397 
Q 2388 397 2633 464 
Q 2878 531 3122 666 
L 3122 134 
Q 2881 22 2623 -34 
Q 2366 -91 2075 -91 
Q 1284 -91 818 406 
Q 353 903 353 1747 
Q 353 2603 823 3093 
Q 1294 3584 2113 3584 
Q 2378 3584 2631 3529 
Q 2884 3475 3122 3366 
z
" transform="scale(0.015625)"/>
      <path id="DejaVuSans-57" d="M 213 4666 
L 850 4666 
L 1831 722 
L 2809 4666 
L 3519 4666 
L 4500 722 
L 5478 4666 
L 6119 4666 
L 4947 0 
L 4153 0 
L 3169 4050 
L 2175 0 
L 1381 0 
L 213 4666 
z
" transform="scale(0.015625)"/>
      <path id="DejaVuSans-68" d="M 3513 2113 
L 3513 0 
L 2938 0 
L 2938 2094 
Q 2938 2591 2744 2837 
Q 2550 3084 2163 3084 
Q 1697 3084 1428 2787 
Q 1159 2491 1159 1978 
L 1159 0 
L 581 0 
L 581 4863 
L 1159 4863 
L 1159 2956 
Q 1366 3272 1645 3428 
Q 1925 3584 2291 3584 
Q 2894 3584 3203 3211 
Q 3513 2838 3513 2113 
z
" transform="scale(0.015625)"/>
      <path id="DejaVuSans-44" d="M 1259 4147 
L 1259 519 
L 2022 519 
Q 2988 519 3436 956 
Q 3884 1394 3884 2338 
Q 3884 3275 3436 3711 
Q 2988 4147 2022 4147 
L 1259 4147 
z
M 628 4666 
L 1925 4666 
Q 3281 4666 3915 4102 
Q 4550 3538 4550 2338 
Q 4550 1131 3912 565 
Q 3275 0 1925 0 
L 628 0 
L 628 4666 
z
" transform="scale(0.015625)"/>
      <path id="DejaVuSans-6c" d="M 603 4863 
L 1178 4863 
L 1178 0 
L 603 0 
L 603 4863 
z
" transform="scale(0.015625)"/>
      <path id="DejaVuSans-79" d="M 2059 -325 
Q 1816 -950 1584 -1140 
Q 1353 -1331 966 -1331 
L 506 -1331 
L 506 -850 
L 844 -850 
Q 1081 -850 1212 -737 
Q 1344 -625 1503 -206 
L 1606 56 
L 191 3500 
L 800 3500 
L 1894 763 
L 2988 3500 
L 3597 3500 
L 2059 -325 
z
" transform="scale(0.015625)"/>
     </defs>
     <use xlink:href="#DejaVuSans-47"/>
     <use xlink:href="#DejaVuSans-65" transform="translate(77.490234 0)"/>
     <use xlink:href="#DejaVuSans-74" transform="translate(139.013672 0)"/>
     <use xlink:href="#DejaVuSans-20" transform="translate(178.222656 0)"/>
     <use xlink:href="#DejaVuSans-54" transform="translate(210.009766 0)"/>
     <use xlink:href="#DejaVuSans-72" transform="translate(256.34375 0)"/>
     <use xlink:href="#DejaVuSans-61" transform="translate(297.457031 0)"/>
     <use xlink:href="#DejaVuSans-63" transform="translate(358.736328 0)"/>
     <use xlink:href="#DejaVuSans-65" transform="translate(413.716797 0)"/>
     <use xlink:href="#DejaVuSans-20" transform="translate(475.240234 0)"/>
     <use xlink:href="#DejaVuSans-57" transform="translate(507.027344 0)"/>
     <use xlink:href="#DejaVuSans-69" transform="translate(603.654297 0)"/>
     <use xlink:href="#DejaVuSans-74" transform="translate(631.4375 0)"/>
     <use xlink:href="#DejaVuSans-68" transform="translate(670.646484 0)"/>
     <use xlink:href="#DejaVuSans-20" transform="translate(734.025391 0)"/>
     <use xlink:href="#DejaVuSans-44" transform="translate(765.8125 0)"/>
     <use xlink:href="#DejaVuSans-65" transform="translate(842.814453 0)"/>
     <use xlink:href="#DejaVuSans-6c" transform="translate(904.337891 0)"/>
     <use xlink:href="#DejaVuSans-61" transform="translate(932.121094 0)"/>
     <use xlink:href="#DejaVuSans-79" transform="translate(993.400391 0)"/>
    </g>
   </g>
  </g>
 </g>
 <defs>
  <clipPath id="p1fe390acf5">
   <rect x="72" y="51.84" width="446.4" height="332.64"/>
  </clipPath>
 </defs>
</svg>
