<?xml version="1.0" encoding="utf-8" standalone="no"?>
<!DOCTYPE svg PUBLIC "-//W3C//DTD SVG 1.1//EN"
  "http://www.w3.org/Graphics/SVG/1.1/DTD/svg11.dtd">
<svg xmlns:xlink="http://www.w3.org/1999/xlink" width="576pt" height="432pt" viewBox="0 0 576 432" xmlns="http://www.w3.org/2000/svg" version="1.1">
 <metadata>
  <rdf:RDF xmlns:dc="http://purl.org/dc/elements/1.1/" xmlns:cc="http://creativecommons.org/ns#" xmlns:rdf="http://www.w3.org/1999/02/22-rdf-syntax-ns#">
   <cc:Work>
    <dc:type rdf:resource="http://purl.org/dc/dcmitype/StillImage"/>
    <dc:date>2025-06-10T01:38:28.394838</dc:date>
    <dc:format>image/svg+xml</dc:format>
    <dc:creator>
     <cc:Agent>
      <dc:title>Matplotlib v3.10.3, https://matplotlib.org/</dc:title>
     </cc:Agent>
    </dc:creator>
   </cc:Work>
  </rdf:RDF>
 </metadata>
 <defs>
  <style type="text/css">*{stroke-linejoin: round; stroke-linecap: butt}</style>
 </defs>
 <g id="figure_1">
  <g id="patch_1">
   <path d="M 0 432 
L 576 432 
L 576 0 
L 0 0 
z
" style="fill: #ffffff"/>
  </g>
  <g id="axes_1">
   <g id="patch_2">
    <path d="M 72 384.48 
L 518.4 384.48 
L 518.4 51.84 
L 72 51.84 
z
" style="fill: #ffffff"/>
   </g>
   <g id="FillBetweenPolyCollection_1">
    <path d="M 341.621391 380.581384 
L 248.778609 380.581384 
L 186.867106 377.418888 
L 183.6 374.256393 
L 237.12877 371.093898 
L 280.228716 367.931403 
L 291.166147 364.768907 
L 292.943174 361.606412 
L 293.798929 358.443917 
L 294.065965 355.281421 
L 294.013289 352.118926 
L 294.165539 348.956431 
L 294.665313 345.793936 
L 294.796713 342.63144 
L 294.793751 339.468945 
L 294.921116 336.30645 
L 294.99564 333.143955 
L 295.017064 329.981459 
L 295.064382 326.818964 
L 295.048515 323.656469 
L 295.015993 320.493973 
L 295.061023 317.331478 
L 295.164171 314.168983 
L 295.198011 311.006488 
L 295.199763 307.843992 
L 295.190901 304.681497 
L 295.135848 301.519002 
L 295.124043 298.356507 
L 295.182846 295.194011 
L 295.166304 292.031516 
L 295.096419 288.869021 
L 295.041596 285.706525 
L 295.040081 282.54403 
L 295.16174 279.381535 
L 295.161007 276.21904 
L 295.052878 273.056544 
L 295.078244 269.894049 
L 295.178978 266.731554 
L 295.1993 263.569059 
L 295.199996 260.406563 
L 295.2 257.244068 
L 295.2 254.081573 
L 295.2 250.919077 
L 295.2 247.756582 
L 295.2 244.594087 
L 295.199992 241.431592 
L 295.198924 238.269096 
L 295.17678 235.106601 
L 295.115837 231.944106 
L 295.148782 228.781611 
L 295.194767 225.619115 
L 295.19991 222.45662 
L 295.2 219.294125 
L 295.2 216.131629 
L 295.2 212.969134 
L 295.2 209.806639 
L 295.2 206.644144 
L 295.2 203.481648 
L 295.2 200.319153 
L 295.2 197.156658 
L 295.2 193.994163 
L 295.2 190.831667 
L 295.2 187.669172 
L 295.2 184.506677 
L 295.2 181.344181 
L 295.199967 178.181686 
L 295.197262 175.019191 
L 295.162142 171.856696 
L 295.112128 168.6942 
L 295.165756 165.531705 
L 295.197759 162.36921 
L 295.199975 159.206715 
L 295.2 156.044219 
L 295.2 152.881724 
L 295.2 149.719229 
L 295.2 146.556733 
L 295.2 143.394238 
L 295.2 140.231743 
L 295.2 137.069248 
L 295.2 133.906752 
L 295.2 130.744257 
L 295.2 127.581762 
L 295.2 124.419267 
L 295.2 121.256771 
L 295.2 118.094276 
L 295.2 114.931781 
L 295.2 111.769285 
L 295.2 108.60679 
L 295.2 105.444295 
L 295.2 102.2818 
L 295.2 99.119304 
L 295.2 95.956809 
L 295.2 92.794314 
L 295.2 89.631819 
L 295.2 86.469323 
L 295.2 83.306828 
L 295.2 80.144333 
L 295.199971 76.981837 
L 295.197521 73.819342 
L 295.163969 70.656847 
L 295.112066 67.494352 
L 295.287934 67.494352 
L 295.287934 67.494352 
L 295.236031 70.656847 
L 295.202479 73.819342 
L 295.200029 76.981837 
L 295.2 80.144333 
L 295.2 83.306828 
L 295.2 86.469323 
L 295.2 89.631819 
L 295.2 92.794314 
L 295.2 95.956809 
L 295.2 99.119304 
L 295.2 102.2818 
L 295.2 105.444295 
L 295.2 108.60679 
L 295.2 111.769285 
L 295.2 114.931781 
L 295.2 118.094276 
L 295.2 121.256771 
L 295.2 124.419267 
L 295.2 127.581762 
L 295.2 130.744257 
L 295.2 133.906752 
L 295.2 137.069248 
L 295.2 140.231743 
L 295.2 143.394238 
L 295.2 146.556733 
L 295.2 149.719229 
L 295.2 152.881724 
L 295.2 156.044219 
L 295.200025 159.206715 
L 295.202241 162.36921 
L 295.234244 165.531705 
L 295.287872 168.6942 
L 295.237858 171.856696 
L 295.202738 175.019191 
L 295.200033 178.181686 
L 295.2 181.344181 
L 295.2 184.506677 
L 295.2 187.669172 
L 295.2 190.831667 
L 295.2 193.994163 
L 295.2 197.156658 
L 295.2 200.319153 
L 295.2 203.481648 
L 295.2 206.644144 
L 295.2 209.806639 
L 295.2 212.969134 
L 295.2 216.131629 
L 295.2 219.294125 
L 295.20009 222.45662 
L 295.205233 225.619115 
L 295.251218 228.781611 
L 295.284163 231.944106 
L 295.22322 235.106601 
L 295.201076 238.269096 
L 295.200008 241.431592 
L 295.2 244.594087 
L 295.2 247.756582 
L 295.2 250.919077 
L 295.2 254.081573 
L 295.2 257.244068 
L 295.200004 260.406563 
L 295.2007 263.569059 
L 295.221022 266.731554 
L 295.321756 269.894049 
L 295.347122 273.056544 
L 295.238993 276.21904 
L 295.23826 279.381535 
L 295.359919 282.54403 
L 295.358404 285.706525 
L 295.303581 288.869021 
L 295.233696 292.031516 
L 295.217154 295.194011 
L 295.275957 298.356507 
L 295.264152 301.519002 
L 295.209099 304.681497 
L 295.200237 307.843992 
L 295.201989 311.006488 
L 295.235829 314.168983 
L 295.338977 317.331478 
L 295.384007 320.493973 
L 295.351485 323.656469 
L 295.335618 326.818964 
L 295.382936 329.981459 
L 295.40436 333.143955 
L 295.478884 336.30645 
L 295.606249 339.468945 
L 295.603287 342.63144 
L 295.734687 345.793936 
L 296.234461 348.956431 
L 296.386711 352.118926 
L 296.334035 355.281421 
L 296.601071 358.443917 
L 297.456826 361.606412 
L 299.233853 364.768907 
L 310.171284 367.931403 
L 353.27123 371.093898 
L 406.8 374.256393 
L 403.532894 377.418888 
L 341.621391 380.581384 
z
" clip-path="url(#p935b6d2737)" style="fill: #1f77b4; fill-opacity: 0.3"/>
   </g>
   <g id="matplotlib.axis_1">
    <g id="xtick_1">
     <g id="line2d_1">
      <defs>
       <path id="mfd4630888a" d="M 0 0 
L 0 3.5 
" style="stroke: #000000; stroke-width: 0.8"/>
      </defs>
      <g>
       <use xlink:href="#mfd4630888a" x="295.2" y="384.48" style="stroke: #000000; stroke-width: 0.8"/>
      </g>
     </g>
     <g id="text_1">
      <!-- 1 -->
      <g transform="translate(292.01875 399.078438) scale(0.1 -0.1)">
       <defs>
        <path id="DejaVuSans-31" d="M 794 531 
L 1825 531 
L 1825 4091 
L 703 3866 
L 703 4441 
L 1819 4666 
L 2450 4666 
L 2450 531 
L 3481 531 
L 3481 0 
L 794 0 
L 794 531 
z
" transform="scale(0.015625)"/>
       </defs>
       <use xlink:href="#DejaVuSans-31"/>
      </g>
     </g>
    </g>
   </g>
   <g id="matplotlib.axis_2">
    <g id="ytick_1">
     <g id="line2d_2">
      <defs>
       <path id="m86b1b7ef7b" d="M 0 0 
L -3.5 0 
" style="stroke: #000000; stroke-width: 0.8"/>
      </defs>
      <g>
       <use xlink:href="#m86b1b7ef7b" x="72" y="384.48" style="stroke: #000000; stroke-width: 0.8"/>
      </g>
     </g>
     <g id="text_2">
      <!-- 0 -->
      <g transform="translate(58.6375 388.279219) scale(0.1 -0.1)">
       <defs>
        <path id="DejaVuSans-30" d="M 2034 4250 
Q 1547 4250 1301 3770 
Q 1056 3291 1056 2328 
Q 1056 1369 1301 889 
Q 1547 409 2034 409 
Q 2525 409 2770 889 
Q 3016 1369 3016 2328 
Q 3016 3291 2770 3770 
Q 2525 4250 2034 4250 
z
M 2034 4750 
Q 2819 4750 3233 4129 
Q 3647 3509 3647 2328 
Q 3647 1150 3233 529 
Q 2819 -91 2034 -91 
Q 1250 -91 836 529 
Q 422 1150 422 2328 
Q 422 3509 836 4129 
Q 1250 4750 2034 4750 
z
" transform="scale(0.015625)"/>
       </defs>
       <use xlink:href="#DejaVuSans-30"/>
      </g>
     </g>
    </g>
    <g id="ytick_2">
     <g id="line2d_3">
      <g>
       <use xlink:href="#m86b1b7ef7b" x="72" y="319.168448" style="stroke: #000000; stroke-width: 0.8"/>
      </g>
     </g>
     <g id="text_3">
      <!-- 10 -->
      <g transform="translate(52.275 322.967666) scale(0.1 -0.1)">
       <use xlink:href="#DejaVuSans-31"/>
       <use xlink:href="#DejaVuSans-30" transform="translate(63.623047 0)"/>
      </g>
     </g>
    </g>
    <g id="ytick_3">
     <g id="line2d_4">
      <g>
       <use xlink:href="#m86b1b7ef7b" x="72" y="253.856895" style="stroke: #000000; stroke-width: 0.8"/>
      </g>
     </g>
     <g id="text_4">
      <!-- 20 -->
      <g transform="translate(52.275 257.656114) scale(0.1 -0.1)">
       <defs>
        <path id="DejaVuSans-32" d="M 1228 531 
L 3431 531 
L 3431 0 
L 469 0 
L 469 531 
Q 828 903 1448 1529 
Q 2069 2156 2228 2338 
Q 2531 2678 2651 2914 
Q 2772 3150 2772 3378 
Q 2772 3750 2511 3984 
Q 2250 4219 1831 4219 
Q 1534 4219 1204 4116 
Q 875 4013 500 3803 
L 500 4441 
Q 881 4594 1212 4672 
Q 1544 4750 1819 4750 
Q 2544 4750 2975 4387 
Q 3406 4025 3406 3419 
Q 3406 3131 3298 2873 
Q 3191 2616 2906 2266 
Q 2828 2175 2409 1742 
Q 1991 1309 1228 531 
z
" transform="scale(0.015625)"/>
       </defs>
       <use xlink:href="#DejaVuSans-32"/>
       <use xlink:href="#DejaVuSans-30" transform="translate(63.623047 0)"/>
      </g>
     </g>
    </g>
    <g id="ytick_4">
     <g id="line2d_5">
      <g>
       <use xlink:href="#m86b1b7ef7b" x="72" y="188.545343" style="stroke: #000000; stroke-width: 0.8"/>
      </g>
     </g>
     <g id="text_5">
      <!-- 30 -->
      <g transform="translate(52.275 192.344562) scale(0.1 -0.1)">
       <defs>
        <path id="DejaVuSans-33" d="M 2597 2516 
Q 3050 2419 3304 2112 
Q 3559 1806 3559 1356 
Q 3559 666 3084 287 
Q 2609 -91 1734 -91 
Q 1441 -91 1130 -33 
Q 819 25 488 141 
L 488 750 
Q 750 597 1062 519 
Q 1375 441 1716 441 
Q 2309 441 2620 675 
Q 2931 909 2931 1356 
Q 2931 1769 2642 2001 
Q 2353 2234 1838 2234 
L 1294 2234 
L 1294 2753 
L 1863 2753 
Q 2328 2753 2575 2939 
Q 2822 3125 2822 3475 
Q 2822 3834 2567 4026 
Q 2313 4219 1838 4219 
Q 1578 4219 1281 4162 
Q 984 4106 628 3988 
L 628 4550 
Q 988 4650 1302 4700 
Q 1616 4750 1894 4750 
Q 2613 4750 3031 4423 
Q 3450 4097 3450 3541 
Q 3450 3153 3228 2886 
Q 3006 2619 2597 2516 
z
" transform="scale(0.015625)"/>
       </defs>
       <use xlink:href="#DejaVuSans-33"/>
       <use xlink:href="#DejaVuSans-30" transform="translate(63.623047 0)"/>
      </g>
     </g>
    </g>
    <g id="ytick_5">
     <g id="line2d_6">
      <g>
       <use xlink:href="#m86b1b7ef7b" x="72" y="123.233791" style="stroke: #000000; stroke-width: 0.8"/>
      </g>
     </g>
     <g id="text_6">
      <!-- 40 -->
      <g transform="translate(52.275 127.033009) scale(0.1 -0.1)">
       <defs>
        <path id="DejaVuSans-34" d="M 2419 4116 
L 825 1625 
L 2419 1625 
L 2419 4116 
z
M 2253 4666 
L 3047 4666 
L 3047 1625 
L 3713 1625 
L 3713 1100 
L 3047 1100 
L 3047 0 
L 2419 0 
L 2419 1100 
L 313 1100 
L 313 1709 
L 2253 4666 
z
" transform="scale(0.015625)"/>
       </defs>
       <use xlink:href="#DejaVuSans-34"/>
       <use xlink:href="#DejaVuSans-30" transform="translate(63.623047 0)"/>
      </g>
     </g>
    </g>
    <g id="ytick_6">
     <g id="line2d_7">
      <g>
       <use xlink:href="#m86b1b7ef7b" x="72" y="57.922238" style="stroke: #000000; stroke-width: 0.8"/>
      </g>
     </g>
     <g id="text_7">
      <!-- 50 -->
      <g transform="translate(52.275 61.721457) scale(0.1 -0.1)">
       <defs>
        <path id="DejaVuSans-35" d="M 691 4666 
L 3169 4666 
L 3169 4134 
L 1269 4134 
L 1269 2991 
Q 1406 3038 1543 3061 
Q 1681 3084 1819 3084 
Q 2600 3084 3056 2656 
Q 3513 2228 3513 1497 
Q 3513 744 3044 326 
Q 2575 -91 1722 -91 
Q 1428 -91 1123 -41 
Q 819 9 494 109 
L 494 744 
Q 775 591 1075 516 
Q 1375 441 1709 441 
Q 2250 441 2565 725 
Q 2881 1009 2881 1497 
Q 2881 1984 2565 2268 
Q 2250 2553 1709 2553 
Q 1456 2553 1204 2497 
Q 953 2441 691 2322 
L 691 4666 
z
" transform="scale(0.015625)"/>
       </defs>
       <use xlink:href="#DejaVuSans-35"/>
       <use xlink:href="#DejaVuSans-30" transform="translate(63.623047 0)"/>
      </g>
     </g>
    </g>
    <g id="text_8">
     <!-- Time (ms) -->
     <g transform="translate(46.195312 243.359219) rotate(-90) scale(0.1 -0.1)">
      <defs>
       <path id="DejaVuSans-54" d="M -19 4666 
L 3928 4666 
L 3928 4134 
L 2272 4134 
L 2272 0 
L 1638 0 
L 1638 4134 
L -19 4134 
L -19 4666 
z
" transform="scale(0.015625)"/>
       <path id="DejaVuSans-69" d="M 603 3500 
L 1178 3500 
L 1178 0 
L 603 0 
L 603 3500 
z
M 603 4863 
L 1178 4863 
L 1178 4134 
L 603 4134 
L 603 4863 
z
" transform="scale(0.015625)"/>
       <path id="DejaVuSans-6d" d="M 3328 2828 
Q 3544 3216 3844 3400 
Q 4144 3584 4550 3584 
Q 5097 3584 5394 3201 
Q 5691 2819 5691 2113 
L 5691 0 
L 5113 0 
L 5113 2094 
Q 5113 2597 4934 2840 
Q 4756 3084 4391 3084 
Q 3944 3084 3684 2787 
Q 3425 2491 3425 1978 
L 3425 0 
L 2847 0 
L 2847 2094 
Q 2847 2600 2669 2842 
Q 2491 3084 2119 3084 
Q 1678 3084 1418 2786 
Q 1159 2488 1159 1978 
L 1159 0 
L 581 0 
L 581 3500 
L 1159 3500 
L 1159 2956 
Q 1356 3278 1631 3431 
Q 1906 3584 2284 3584 
Q 2666 3584 2933 3390 
Q 3200 3197 3328 2828 
z
" transform="scale(0.015625)"/>
       <path id="DejaVuSans-65" d="M 3597 1894 
L 3597 1613 
L 953 1613 
Q 991 1019 1311 708 
Q 1631 397 2203 397 
Q 2534 397 2845 478 
Q 3156 559 3463 722 
L 3463 178 
Q 3153 47 2828 -22 
Q 2503 -91 2169 -91 
Q 1331 -91 842 396 
Q 353 884 353 1716 
Q 353 2575 817 3079 
Q 1281 3584 2069 3584 
Q 2775 3584 3186 3129 
Q 3597 2675 3597 1894 
z
M 3022 2063 
Q 3016 2534 2758 2815 
Q 2500 3097 2075 3097 
Q 1594 3097 1305 2825 
Q 1016 2553 972 2059 
L 3022 2063 
z
" transform="scale(0.015625)"/>
       <path id="DejaVuSans-20" transform="scale(0.015625)"/>
       <path id="DejaVuSans-28" d="M 1984 4856 
Q 1566 4138 1362 3434 
Q 1159 2731 1159 2009 
Q 1159 1288 1364 580 
Q 1569 -128 1984 -844 
L 1484 -844 
Q 1016 -109 783 600 
Q 550 1309 550 2009 
Q 550 2706 781 3412 
Q 1013 4119 1484 4856 
L 1984 4856 
z
" transform="scale(0.015625)"/>
       <path id="DejaVuSans-73" d="M 2834 3397 
L 2834 2853 
Q 2591 2978 2328 3040 
Q 2066 3103 1784 3103 
Q 1356 3103 1142 2972 
Q 928 2841 928 2578 
Q 928 2378 1081 2264 
Q 1234 2150 1697 2047 
L 1894 2003 
Q 2506 1872 2764 1633 
Q 3022 1394 3022 966 
Q 3022 478 2636 193 
Q 2250 -91 1575 -91 
Q 1294 -91 989 -36 
Q 684 19 347 128 
L 347 722 
Q 666 556 975 473 
Q 1284 391 1588 391 
Q 1994 391 2212 530 
Q 2431 669 2431 922 
Q 2431 1156 2273 1281 
Q 2116 1406 1581 1522 
L 1381 1569 
Q 847 1681 609 1914 
Q 372 2147 372 2553 
Q 372 3047 722 3315 
Q 1072 3584 1716 3584 
Q 2034 3584 2315 3537 
Q 2597 3491 2834 3397 
z
" transform="scale(0.015625)"/>
       <path id="DejaVuSans-29" d="M 513 4856 
L 1013 4856 
Q 1481 4119 1714 3412 
Q 1947 2706 1947 2009 
Q 1947 1309 1714 600 
Q 1481 -109 1013 -844 
L 513 -844 
Q 928 -128 1133 580 
Q 1338 1288 1338 2009 
Q 1338 2731 1133 3434 
Q 928 4138 513 4856 
z
" transform="scale(0.015625)"/>
      </defs>
      <use xlink:href="#DejaVuSans-54"/>
      <use xlink:href="#DejaVuSans-69" transform="translate(57.958984 0)"/>
      <use xlink:href="#DejaVuSans-6d" transform="translate(85.742188 0)"/>
      <use xlink:href="#DejaVuSans-65" transform="translate(183.154297 0)"/>
      <use xlink:href="#DejaVuSans-20" transform="translate(244.677734 0)"/>
      <use xlink:href="#DejaVuSans-28" transform="translate(276.464844 0)"/>
      <use xlink:href="#DejaVuSans-6d" transform="translate(315.478516 0)"/>
      <use xlink:href="#DejaVuSans-73" transform="translate(412.890625 0)"/>
      <use xlink:href="#DejaVuSans-29" transform="translate(464.990234 0)"/>
     </g>
    </g>
   </g>
   <g id="LineCollection_1">
    <path d="M 239.4 374.127597 
L 351 374.127597 
" clip-path="url(#p935b6d2737)" style="fill: none; stroke: #1f77b4; stroke-width: 1.5"/>
   </g>
   <g id="LineCollection_2">
    <path d="M 239.4 67.494352 
L 351 67.494352 
" clip-path="url(#p935b6d2737)" style="fill: none; stroke: #1f77b4; stroke-width: 1.5"/>
   </g>
   <g id="LineCollection_3">
    <path d="M 239.4 380.581384 
L 351 380.581384 
" clip-path="url(#p935b6d2737)" style="fill: none; stroke: #1f77b4; stroke-width: 1.5"/>
   </g>
   <g id="LineCollection_4">
    <path d="M 295.2 380.581384 
L 295.2 67.494352 
" clip-path="url(#p935b6d2737)" style="fill: none; stroke: #1f77b4; stroke-width: 1.5"/>
   </g>
   <g id="patch_3">
    <path d="M 250.56 377.479914 
L 339.84 377.479914 
L 339.84 373.244898 
L 250.56 373.244898 
L 250.56 377.479914 
z
" clip-path="url(#p935b6d2737)" style="fill: #1f77b4; stroke: #000000; stroke-linejoin: miter"/>
   </g>
   <g id="line2d_8">
    <path d="M 295.2 377.479914 
L 295.2 380.581384 
" clip-path="url(#p935b6d2737)" style="fill: none; stroke: #000000; stroke-linecap: square"/>
   </g>
   <g id="line2d_9">
    <path d="M 295.2 373.244898 
L 295.2 366.903146 
" clip-path="url(#p935b6d2737)" style="fill: none; stroke: #000000; stroke-linecap: square"/>
   </g>
   <g id="line2d_10">
    <path d="M 272.88 380.581384 
L 317.52 380.581384 
" clip-path="url(#p935b6d2737)" style="fill: none; stroke: #000000; stroke-linecap: square"/>
   </g>
   <g id="line2d_11">
    <path d="M 272.88 366.903146 
L 317.52 366.903146 
" clip-path="url(#p935b6d2737)" style="fill: none; stroke: #000000; stroke-linecap: square"/>
   </g>
   <g id="line2d_12">
    <defs>
     <path id="mbe0d92c350" d="M 0 3 
C 0.795609 3 1.55874 2.683901 2.12132 2.12132 
C 2.683901 1.55874 3 0.795609 3 0 
C 3 -0.795609 2.683901 -1.55874 2.12132 -2.12132 
C 1.55874 -2.683901 0.795609 -3 0 -3 
C -0.795609 -3 -1.55874 -2.683901 -2.12132 -2.12132 
C -2.683901 -1.55874 -3 -0.795609 -3 0 
C -3 0.795609 -2.683901 1.55874 -2.12132 2.12132 
C -1.55874 2.683901 -0.795609 3 0 3 
z
" style="stroke: #000000"/>
    </defs>
    <g clip-path="url(#p935b6d2737)">
     <use xlink:href="#mbe0d92c350" x="295.2" y="67.494352" style="fill-opacity: 0; stroke: #000000"/>
     <use xlink:href="#mbe0d92c350" x="295.2" y="272.741025" style="fill-opacity: 0; stroke: #000000"/>
     <use xlink:href="#mbe0d92c350" x="295.2" y="299.638896" style="fill-opacity: 0; stroke: #000000"/>
     <use xlink:href="#mbe0d92c350" x="295.2" y="336.109285" style="fill-opacity: 0; stroke: #000000"/>
     <use xlink:href="#mbe0d92c350" x="295.2" y="349.642478" style="fill-opacity: 0; stroke: #000000"/>
     <use xlink:href="#mbe0d92c350" x="295.2" y="337.31826" style="fill-opacity: 0; stroke: #000000"/>
     <use xlink:href="#mbe0d92c350" x="295.2" y="340.631019" style="fill-opacity: 0; stroke: #000000"/>
     <use xlink:href="#mbe0d92c350" x="295.2" y="359.113757" style="fill-opacity: 0; stroke: #000000"/>
     <use xlink:href="#mbe0d92c350" x="295.2" y="349.596754" style="fill-opacity: 0; stroke: #000000"/>
     <use xlink:href="#mbe0d92c350" x="295.2" y="345.050861" style="fill-opacity: 0; stroke: #000000"/>
     <use xlink:href="#mbe0d92c350" x="295.2" y="331.536614" style="fill-opacity: 0; stroke: #000000"/>
     <use xlink:href="#mbe0d92c350" x="295.2" y="361.280239" style="fill-opacity: 0; stroke: #000000"/>
     <use xlink:href="#mbe0d92c350" x="295.2" y="322.817757" style="fill-opacity: 0; stroke: #000000"/>
     <use xlink:href="#mbe0d92c350" x="295.2" y="357.642216" style="fill-opacity: 0; stroke: #000000"/>
     <use xlink:href="#mbe0d92c350" x="295.2" y="354.746165" style="fill-opacity: 0; stroke: #000000"/>
     <use xlink:href="#mbe0d92c350" x="295.2" y="366.492349" style="fill-opacity: 0; stroke: #000000"/>
     <use xlink:href="#mbe0d92c350" x="295.2" y="360.295295" style="fill-opacity: 0; stroke: #000000"/>
     <use xlink:href="#mbe0d92c350" x="295.2" y="363.154119" style="fill-opacity: 0; stroke: #000000"/>
     <use xlink:href="#mbe0d92c350" x="295.2" y="360.587147" style="fill-opacity: 0; stroke: #000000"/>
     <use xlink:href="#mbe0d92c350" x="295.2" y="363.486477" style="fill-opacity: 0; stroke: #000000"/>
     <use xlink:href="#mbe0d92c350" x="295.2" y="365.346641" style="fill-opacity: 0; stroke: #000000"/>
     <use xlink:href="#mbe0d92c350" x="295.2" y="352.832961" style="fill-opacity: 0; stroke: #000000"/>
     <use xlink:href="#mbe0d92c350" x="295.2" y="362.410084" style="fill-opacity: 0; stroke: #000000"/>
     <use xlink:href="#mbe0d92c350" x="295.2" y="360.014985" style="fill-opacity: 0; stroke: #000000"/>
     <use xlink:href="#mbe0d92c350" x="295.2" y="353.159532" style="fill-opacity: 0; stroke: #000000"/>
     <use xlink:href="#mbe0d92c350" x="295.2" y="361.760932" style="fill-opacity: 0; stroke: #000000"/>
     <use xlink:href="#mbe0d92c350" x="295.2" y="339.13592" style="fill-opacity: 0; stroke: #000000"/>
     <use xlink:href="#mbe0d92c350" x="295.2" y="365.504865" style="fill-opacity: 0; stroke: #000000"/>
     <use xlink:href="#mbe0d92c350" x="295.2" y="364.793589" style="fill-opacity: 0; stroke: #000000"/>
     <use xlink:href="#mbe0d92c350" x="295.2" y="365.949656" style="fill-opacity: 0; stroke: #000000"/>
     <use xlink:href="#mbe0d92c350" x="295.2" y="364.341614" style="fill-opacity: 0; stroke: #000000"/>
     <use xlink:href="#mbe0d92c350" x="295.2" y="342.387488" style="fill-opacity: 0; stroke: #000000"/>
     <use xlink:href="#mbe0d92c350" x="295.2" y="231.243097" style="fill-opacity: 0; stroke: #000000"/>
     <use xlink:href="#mbe0d92c350" x="295.2" y="283.24409" style="fill-opacity: 0; stroke: #000000"/>
     <use xlink:href="#mbe0d92c350" x="295.2" y="284.001083" style="fill-opacity: 0; stroke: #000000"/>
     <use xlink:href="#mbe0d92c350" x="295.2" y="348.069639" style="fill-opacity: 0; stroke: #000000"/>
     <use xlink:href="#mbe0d92c350" x="295.2" y="270.98451" style="fill-opacity: 0; stroke: #000000"/>
     <use xlink:href="#mbe0d92c350" x="295.2" y="365.907746" style="fill-opacity: 0; stroke: #000000"/>
     <use xlink:href="#mbe0d92c350" x="295.2" y="358.258084" style="fill-opacity: 0; stroke: #000000"/>
     <use xlink:href="#mbe0d92c350" x="295.2" y="331.448985" style="fill-opacity: 0; stroke: #000000"/>
     <use xlink:href="#mbe0d92c350" x="295.2" y="363.014953" style="fill-opacity: 0; stroke: #000000"/>
     <use xlink:href="#mbe0d92c350" x="295.2" y="317.550008" style="fill-opacity: 0; stroke: #000000"/>
     <use xlink:href="#mbe0d92c350" x="295.2" y="360.781847" style="fill-opacity: 0; stroke: #000000"/>
     <use xlink:href="#mbe0d92c350" x="295.2" y="349.964419" style="fill-opacity: 0; stroke: #000000"/>
     <use xlink:href="#mbe0d92c350" x="295.2" y="361.504878" style="fill-opacity: 0; stroke: #000000"/>
     <use xlink:href="#mbe0d92c350" x="295.2" y="359.96476" style="fill-opacity: 0; stroke: #000000"/>
     <use xlink:href="#mbe0d92c350" x="295.2" y="365.266354" style="fill-opacity: 0; stroke: #000000"/>
     <use xlink:href="#mbe0d92c350" x="295.2" y="366.728105" style="fill-opacity: 0; stroke: #000000"/>
     <use xlink:href="#mbe0d92c350" x="295.2" y="364.442083" style="fill-opacity: 0; stroke: #000000"/>
     <use xlink:href="#mbe0d92c350" x="295.2" y="366.639274" style="fill-opacity: 0; stroke: #000000"/>
     <use xlink:href="#mbe0d92c350" x="295.2" y="340.057015" style="fill-opacity: 0; stroke: #000000"/>
     <use xlink:href="#mbe0d92c350" x="295.2" y="346.762121" style="fill-opacity: 0; stroke: #000000"/>
     <use xlink:href="#mbe0d92c350" x="295.2" y="364.674651" style="fill-opacity: 0; stroke: #000000"/>
     <use xlink:href="#mbe0d92c350" x="295.2" y="366.645192" style="fill-opacity: 0; stroke: #000000"/>
     <use xlink:href="#mbe0d92c350" x="295.2" y="357.091601" style="fill-opacity: 0; stroke: #000000"/>
     <use xlink:href="#mbe0d92c350" x="295.2" y="361.881778" style="fill-opacity: 0; stroke: #000000"/>
     <use xlink:href="#mbe0d92c350" x="295.2" y="363.553832" style="fill-opacity: 0; stroke: #000000"/>
     <use xlink:href="#mbe0d92c350" x="295.2" y="168.783093" style="fill-opacity: 0; stroke: #000000"/>
     <use xlink:href="#mbe0d92c350" x="295.2" y="288.707891" style="fill-opacity: 0; stroke: #000000"/>
     <use xlink:href="#mbe0d92c350" x="295.2" y="349.06903" style="fill-opacity: 0; stroke: #000000"/>
     <use xlink:href="#mbe0d92c350" x="295.2" y="343.725644" style="fill-opacity: 0; stroke: #000000"/>
     <use xlink:href="#mbe0d92c350" x="295.2" y="355.330089" style="fill-opacity: 0; stroke: #000000"/>
     <use xlink:href="#mbe0d92c350" x="295.2" y="358.082449" style="fill-opacity: 0; stroke: #000000"/>
     <use xlink:href="#mbe0d92c350" x="295.2" y="362.898745" style="fill-opacity: 0; stroke: #000000"/>
     <use xlink:href="#mbe0d92c350" x="295.2" y="362.077086" style="fill-opacity: 0; stroke: #000000"/>
     <use xlink:href="#mbe0d92c350" x="295.2" y="355.545637" style="fill-opacity: 0; stroke: #000000"/>
     <use xlink:href="#mbe0d92c350" x="295.2" y="365.705319" style="fill-opacity: 0; stroke: #000000"/>
     <use xlink:href="#mbe0d92c350" x="295.2" y="355.973441" style="fill-opacity: 0; stroke: #000000"/>
     <use xlink:href="#mbe0d92c350" x="295.2" y="364.872558" style="fill-opacity: 0; stroke: #000000"/>
     <use xlink:href="#mbe0d92c350" x="295.2" y="362.642717" style="fill-opacity: 0; stroke: #000000"/>
     <use xlink:href="#mbe0d92c350" x="295.2" y="366.709203" style="fill-opacity: 0; stroke: #000000"/>
     <use xlink:href="#mbe0d92c350" x="295.2" y="365.353923" style="fill-opacity: 0; stroke: #000000"/>
     <use xlink:href="#mbe0d92c350" x="295.2" y="362.992153" style="fill-opacity: 0; stroke: #000000"/>
     <use xlink:href="#mbe0d92c350" x="295.2" y="355.377773" style="fill-opacity: 0; stroke: #000000"/>
     <use xlink:href="#mbe0d92c350" x="295.2" y="361.045118" style="fill-opacity: 0; stroke: #000000"/>
     <use xlink:href="#mbe0d92c350" x="295.2" y="364.870598" style="fill-opacity: 0; stroke: #000000"/>
     <use xlink:href="#mbe0d92c350" x="295.2" y="352.261615" style="fill-opacity: 0; stroke: #000000"/>
     <use xlink:href="#mbe0d92c350" x="295.2" y="360.198641" style="fill-opacity: 0; stroke: #000000"/>
     <use xlink:href="#mbe0d92c350" x="295.2" y="320.05432" style="fill-opacity: 0; stroke: #000000"/>
     <use xlink:href="#mbe0d92c350" x="295.2" y="326.75364" style="fill-opacity: 0; stroke: #000000"/>
     <use xlink:href="#mbe0d92c350" x="295.2" y="354.081274" style="fill-opacity: 0; stroke: #000000"/>
     <use xlink:href="#mbe0d92c350" x="295.2" y="352.296224" style="fill-opacity: 0; stroke: #000000"/>
     <use xlink:href="#mbe0d92c350" x="295.2" y="350.358345" style="fill-opacity: 0; stroke: #000000"/>
     <use xlink:href="#mbe0d92c350" x="295.2" y="353.40266" style="fill-opacity: 0; stroke: #000000"/>
     <use xlink:href="#mbe0d92c350" x="295.2" y="351.4295" style="fill-opacity: 0; stroke: #000000"/>
     <use xlink:href="#mbe0d92c350" x="295.2" y="349.601345" style="fill-opacity: 0; stroke: #000000"/>
     <use xlink:href="#mbe0d92c350" x="295.2" y="365.664819" style="fill-opacity: 0; stroke: #000000"/>
     <use xlink:href="#mbe0d92c350" x="295.2" y="349.501418" style="fill-opacity: 0; stroke: #000000"/>
     <use xlink:href="#mbe0d92c350" x="295.2" y="349.101039" style="fill-opacity: 0; stroke: #000000"/>
    </g>
   </g>
   <g id="line2d_13">
    <path d="M 250.56 375.439804 
L 339.84 375.439804 
" clip-path="url(#p935b6d2737)" style="fill: none; stroke: #ff7f0e"/>
   </g>
   <g id="patch_4">
    <path d="M 72 384.48 
L 72 51.84 
" style="fill: none; stroke: #000000; stroke-width: 0.8; stroke-linejoin: miter; stroke-linecap: square"/>
   </g>
   <g id="patch_5">
    <path d="M 518.4 384.48 
L 518.4 51.84 
" style="fill: none; stroke: #000000; stroke-width: 0.8; stroke-linejoin: miter; stroke-linecap: square"/>
   </g>
   <g id="patch_6">
    <path d="M 72 384.48 
L 518.4 384.48 
" style="fill: none; stroke: #000000; stroke-width: 0.8; stroke-linejoin: miter; stroke-linecap: square"/>
   </g>
   <g id="patch_7">
    <path d="M 72 51.84 
L 518.4 51.84 
" style="fill: none; stroke: #000000; stroke-width: 0.8; stroke-linejoin: miter; stroke-linecap: square"/>
   </g>
   <g id="text_9">
    <!-- Handle Result -->
    <g transform="translate(253.595625 45.84) scale(0.12 -0.12)">
     <defs>
      <path id="DejaVuSans-48" d="M 628 4666 
L 1259 4666 
L 1259 2753 
L 3553 2753 
L 3553 4666 
L 4184 4666 
L 4184 0 
L 3553 0 
L 3553 2222 
L 1259 2222 
L 1259 0 
L 628 0 
L 628 4666 
z
" transform="scale(0.015625)"/>
      <path id="DejaVuSans-61" d="M 2194 1759 
Q 1497 1759 1228 1600 
Q 959 1441 959 1056 
Q 959 750 1161 570 
Q 1363 391 1709 391 
Q 2188 391 2477 730 
Q 2766 1069 2766 1631 
L 2766 1759 
L 2194 1759 
z
M 3341 1997 
L 3341 0 
L 2766 0 
L 2766 531 
Q 2569 213 2275 61 
Q 1981 -91 1556 -91 
Q 1019 -91 701 211 
Q 384 513 384 1019 
Q 384 1609 779 1909 
Q 1175 2209 1959 2209 
L 2766 2209 
L 2766 2266 
Q 2766 2663 2505 2880 
Q 2244 3097 1772 3097 
Q 1472 3097 1187 3025 
Q 903 2953 641 2809 
L 641 3341 
Q 956 3463 1253 3523 
Q 1550 3584 1831 3584 
Q 2591 3584 2966 3190 
Q 3341 2797 3341 1997 
z
" transform="scale(0.015625)"/>
      <path id="DejaVuSans-6e" d="M 3513 2113 
L 3513 0 
L 2938 0 
L 2938 2094 
Q 2938 2591 2744 2837 
Q 2550 3084 2163 3084 
Q 1697 3084 1428 2787 
Q 1159 2491 1159 1978 
L 1159 0 
L 581 0 
L 581 3500 
L 1159 3500 
L 1159 2956 
Q 1366 3272 1645 3428 
Q 1925 3584 2291 3584 
Q 2894 3584 3203 3211 
Q 3513 2838 3513 2113 
z
" transform="scale(0.015625)"/>
      <path id="DejaVuSans-64" d="M 2906 2969 
L 2906 4863 
L 3481 4863 
L 3481 0 
L 2906 0 
L 2906 525 
Q 2725 213 2448 61 
Q 2172 -91 1784 -91 
Q 1150 -91 751 415 
Q 353 922 353 1747 
Q 353 2572 751 3078 
Q 1150 3584 1784 3584 
Q 2172 3584 2448 3432 
Q 2725 3281 2906 2969 
z
M 947 1747 
Q 947 1113 1208 752 
Q 1469 391 1925 391 
Q 2381 391 2643 752 
Q 2906 1113 2906 1747 
Q 2906 2381 2643 2742 
Q 2381 3103 1925 3103 
Q 1469 3103 1208 2742 
Q 947 2381 947 1747 
z
" transform="scale(0.015625)"/>
      <path id="DejaVuSans-6c" d="M 603 4863 
L 1178 4863 
L 1178 0 
L 603 0 
L 603 4863 
z
" transform="scale(0.015625)"/>
      <path id="DejaVuSans-52" d="M 2841 2188 
Q 3044 2119 3236 1894 
Q 3428 1669 3622 1275 
L 4263 0 
L 3584 0 
L 2988 1197 
Q 2756 1666 2539 1819 
Q 2322 1972 1947 1972 
L 1259 1972 
L 1259 0 
L 628 0 
L 628 4666 
L 2053 4666 
Q 2853 4666 3247 4331 
Q 3641 3997 3641 3322 
Q 3641 2881 3436 2590 
Q 3231 2300 2841 2188 
z
M 1259 4147 
L 1259 2491 
L 2053 2491 
Q 2509 2491 2742 2702 
Q 2975 2913 2975 3322 
Q 2975 3731 2742 3939 
Q 2509 4147 2053 4147 
L 1259 4147 
z
" transform="scale(0.015625)"/>
      <path id="DejaVuSans-75" d="M 544 1381 
L 544 3500 
L 1119 3500 
L 1119 1403 
Q 1119 906 1312 657 
Q 1506 409 1894 409 
Q 2359 409 2629 706 
Q 2900 1003 2900 1516 
L 2900 3500 
L 3475 3500 
L 3475 0 
L 2900 0 
L 2900 538 
Q 2691 219 2414 64 
Q 2138 -91 1772 -91 
Q 1169 -91 856 284 
Q 544 659 544 1381 
z
M 1991 3584 
L 1991 3584 
z
" transform="scale(0.015625)"/>
      <path id="DejaVuSans-74" d="M 1172 4494 
L 1172 3500 
L 2356 3500 
L 2356 3053 
L 1172 3053 
L 1172 1153 
Q 1172 725 1289 603 
Q 1406 481 1766 481 
L 2356 481 
L 2356 0 
L 1766 0 
Q 1100 0 847 248 
Q 594 497 594 1153 
L 594 3053 
L 172 3053 
L 172 3500 
L 594 3500 
L 594 4494 
L 1172 4494 
z
" transform="scale(0.015625)"/>
     </defs>
     <use xlink:href="#DejaVuSans-48"/>
     <use xlink:href="#DejaVuSans-61" transform="translate(75.195312 0)"/>
     <use xlink:href="#DejaVuSans-6e" transform="translate(136.474609 0)"/>
     <use xlink:href="#DejaVuSans-64" transform="translate(199.853516 0)"/>
     <use xlink:href="#DejaVuSans-6c" transform="translate(263.330078 0)"/>
     <use xlink:href="#DejaVuSans-65" transform="translate(291.113281 0)"/>
     <use xlink:href="#DejaVuSans-20" transform="translate(352.636719 0)"/>
     <use xlink:href="#DejaVuSans-52" transform="translate(384.423828 0)"/>
     <use xlink:href="#DejaVuSans-65" transform="translate(449.40625 0)"/>
     <use xlink:href="#DejaVuSans-73" transform="translate(510.929688 0)"/>
     <use xlink:href="#DejaVuSans-75" transform="translate(563.029297 0)"/>
     <use xlink:href="#DejaVuSans-6c" transform="translate(626.408203 0)"/>
     <use xlink:href="#DejaVuSans-74" transform="translate(654.191406 0)"/>
    </g>
   </g>
  </g>
 </g>
 <defs>
  <clipPath id="p935b6d2737">
   <rect x="72" y="51.84" width="446.4" height="332.64"/>
  </clipPath>
 </defs>
</svg>
