<?xml version="1.0" encoding="utf-8" standalone="no"?>
<!DOCTYPE svg PUBLIC "-//W3C//DTD SVG 1.1//EN"
  "http://www.w3.org/Graphics/SVG/1.1/DTD/svg11.dtd">
<svg xmlns:xlink="http://www.w3.org/1999/xlink" width="576pt" height="432pt" viewBox="0 0 576 432" xmlns="http://www.w3.org/2000/svg" version="1.1">
 <metadata>
  <rdf:RDF xmlns:dc="http://purl.org/dc/elements/1.1/" xmlns:cc="http://creativecommons.org/ns#" xmlns:rdf="http://www.w3.org/1999/02/22-rdf-syntax-ns#">
   <cc:Work>
    <dc:type rdf:resource="http://purl.org/dc/dcmitype/StillImage"/>
    <dc:date>2025-06-10T01:38:28.198936</dc:date>
    <dc:format>image/svg+xml</dc:format>
    <dc:creator>
     <cc:Agent>
      <dc:title>Matplotlib v3.10.3, https://matplotlib.org/</dc:title>
     </cc:Agent>
    </dc:creator>
   </cc:Work>
  </rdf:RDF>
 </metadata>
 <defs>
  <style type="text/css">*{stroke-linejoin: round; stroke-linecap: butt}</style>
 </defs>
 <g id="figure_1">
  <g id="patch_1">
   <path d="M 0 432 
L 576 432 
L 576 0 
L 0 0 
z
" style="fill: #ffffff"/>
  </g>
  <g id="axes_1">
   <g id="patch_2">
    <path d="M 72 384.48 
L 518.4 384.48 
L 518.4 51.84 
L 72 51.84 
z
" style="fill: #ffffff"/>
   </g>
   <g id="FillBetweenPolyCollection_1">
    <path d="M 317.162348 361.556521 
L 273.237652 361.556521 
L 225.061028 358.577046 
L 183.6 355.59757 
L 199.026072 352.618094 
L 241.672879 349.638618 
L 270.387951 346.659142 
L 283.228531 343.679666 
L 288.603255 340.70019 
L 290.827651 337.720714 
L 292.338785 334.741238 
L 293.528942 331.761762 
L 294.062639 328.782286 
L 294.183116 325.80281 
L 294.30898 322.823335 
L 294.611925 319.843859 
L 294.845012 316.864383 
L 294.928764 313.884907 
L 294.911906 310.905431 
L 294.868104 307.925955 
L 294.743608 304.946479 
L 294.575462 301.967003 
L 294.648216 298.987527 
L 294.811905 296.008051 
L 294.833044 293.028575 
L 294.890509 290.049099 
L 294.963084 287.069624 
L 294.985871 284.090148 
L 295.040061 281.110672 
L 295.091518 278.131196 
L 295.144062 275.15172 
L 295.183871 272.172244 
L 295.164507 269.192768 
L 295.120426 266.213292 
L 295.142241 263.233816 
L 295.186706 260.25434 
L 295.19903 257.274864 
L 295.199978 254.295388 
L 295.199996 251.315913 
L 295.199751 248.336437 
L 295.194613 245.356961 
L 295.163043 242.377485 
L 295.119623 239.398009 
L 295.144578 236.418533 
L 295.187885 233.439057 
L 295.19916 230.459581 
L 295.199982 227.480105 
L 295.2 224.500629 
L 295.2 221.521153 
L 295.2 218.541678 
L 295.2 215.562202 
L 295.2 212.582726 
L 295.2 209.60325 
L 295.2 206.623774 
L 295.2 203.644298 
L 295.2 200.664822 
L 295.2 197.685346 
L 295.2 194.70587 
L 295.2 191.726394 
L 295.2 188.746918 
L 295.2 185.767442 
L 295.2 182.787967 
L 295.2 179.808491 
L 295.2 176.829015 
L 295.2 173.849539 
L 295.2 170.870063 
L 295.2 167.890587 
L 295.2 164.911111 
L 295.2 161.931635 
L 295.2 158.952159 
L 295.2 155.972683 
L 295.2 152.993207 
L 295.2 150.013731 
L 295.2 147.034256 
L 295.2 144.05478 
L 295.2 141.075304 
L 295.2 138.095828 
L 295.2 135.116352 
L 295.2 132.136876 
L 295.2 129.1574 
L 295.2 126.177924 
L 295.2 123.198448 
L 295.199994 120.218972 
L 295.199642 117.239496 
L 295.193103 114.26002 
L 295.157877 111.280545 
L 295.118439 108.301069 
L 295.149933 105.321593 
L 295.190256 102.342117 
L 295.199399 99.362641 
L 295.199988 96.383165 
L 295.199993 93.403689 
L 295.199592 90.424213 
L 295.192475 87.444737 
L 295.155948 84.465261 
L 295.118242 81.485785 
L 295.151886 78.506309 
L 295.190561 75.526834 
L 295.191245 72.547358 
L 295.153917 69.567882 
L 295.118173 66.588406 
L 295.281827 66.588406 
L 295.281827 66.588406 
L 295.246083 69.567882 
L 295.208755 72.547358 
L 295.209439 75.526834 
L 295.248114 78.506309 
L 295.281758 81.485785 
L 295.244052 84.465261 
L 295.207525 87.444737 
L 295.200408 90.424213 
L 295.200007 93.403689 
L 295.200012 96.383165 
L 295.200601 99.362641 
L 295.209744 102.342117 
L 295.250067 105.321593 
L 295.281561 108.301069 
L 295.242123 111.280545 
L 295.206897 114.26002 
L 295.200358 117.239496 
L 295.200006 120.218972 
L 295.2 123.198448 
L 295.2 126.177924 
L 295.2 129.1574 
L 295.2 132.136876 
L 295.2 135.116352 
L 295.2 138.095828 
L 295.2 141.075304 
L 295.2 144.05478 
L 295.2 147.034256 
L 295.2 150.013731 
L 295.2 152.993207 
L 295.2 155.972683 
L 295.2 158.952159 
L 295.2 161.931635 
L 295.2 164.911111 
L 295.2 167.890587 
L 295.2 170.870063 
L 295.2 173.849539 
L 295.2 176.829015 
L 295.2 179.808491 
L 295.2 182.787967 
L 295.2 185.767442 
L 295.2 188.746918 
L 295.2 191.726394 
L 295.2 194.70587 
L 295.2 197.685346 
L 295.2 200.664822 
L 295.2 203.644298 
L 295.2 206.623774 
L 295.2 209.60325 
L 295.2 212.582726 
L 295.2 215.562202 
L 295.2 218.541678 
L 295.2 221.521153 
L 295.2 224.500629 
L 295.200018 227.480105 
L 295.20084 230.459581 
L 295.212115 233.439057 
L 295.255422 236.418533 
L 295.280377 239.398009 
L 295.236957 242.377485 
L 295.205387 245.356961 
L 295.200249 248.336437 
L 295.200004 251.315913 
L 295.200022 254.295388 
L 295.20097 257.274864 
L 295.213294 260.25434 
L 295.257759 263.233816 
L 295.279574 266.213292 
L 295.235493 269.192768 
L 295.216129 272.172244 
L 295.255938 275.15172 
L 295.308482 278.131196 
L 295.359939 281.110672 
L 295.414129 284.090148 
L 295.436916 287.069624 
L 295.509491 290.049099 
L 295.566956 293.028575 
L 295.588095 296.008051 
L 295.751784 298.987527 
L 295.824538 301.967003 
L 295.656392 304.946479 
L 295.531896 307.925955 
L 295.488094 310.905431 
L 295.471236 313.884907 
L 295.554988 316.864383 
L 295.788075 319.843859 
L 296.09102 322.823335 
L 296.216884 325.80281 
L 296.337361 328.782286 
L 296.871058 331.761762 
L 298.061215 334.741238 
L 299.572349 337.720714 
L 301.796745 340.70019 
L 307.171469 343.679666 
L 320.012049 346.659142 
L 348.727121 349.638618 
L 391.373928 352.618094 
L 406.8 355.59757 
L 365.338972 358.577046 
L 317.162348 361.556521 
z
" clip-path="url(#p3c2f9172ff)" style="fill: #1f77b4; fill-opacity: 0.3"/>
   </g>
   <g id="matplotlib.axis_1">
    <g id="xtick_1">
     <g id="line2d_1">
      <defs>
       <path id="m6d0ed4cb84" d="M 0 0 
L 0 3.5 
" style="stroke: #000000; stroke-width: 0.8"/>
      </defs>
      <g>
       <use xlink:href="#m6d0ed4cb84" x="295.2" y="384.48" style="stroke: #000000; stroke-width: 0.8"/>
      </g>
     </g>
     <g id="text_1">
      <!-- 1 -->
      <g transform="translate(292.01875 399.078438) scale(0.1 -0.1)">
       <defs>
        <path id="DejaVuSans-31" d="M 794 531 
L 1825 531 
L 1825 4091 
L 703 3866 
L 703 4441 
L 1819 4666 
L 2450 4666 
L 2450 531 
L 3481 531 
L 3481 0 
L 794 0 
L 794 531 
z
" transform="scale(0.015625)"/>
       </defs>
       <use xlink:href="#DejaVuSans-31"/>
      </g>
     </g>
    </g>
   </g>
   <g id="matplotlib.axis_2">
    <g id="ytick_1">
     <g id="line2d_2">
      <defs>
       <path id="m37c0f07cf0" d="M 0 0 
L -3.5 0 
" style="stroke: #000000; stroke-width: 0.8"/>
      </defs>
      <g>
       <use xlink:href="#m37c0f07cf0" x="72" y="384.48" style="stroke: #000000; stroke-width: 0.8"/>
      </g>
     </g>
     <g id="text_2">
      <!-- 0 -->
      <g transform="translate(58.6375 388.279219) scale(0.1 -0.1)">
       <defs>
        <path id="DejaVuSans-30" d="M 2034 4250 
Q 1547 4250 1301 3770 
Q 1056 3291 1056 2328 
Q 1056 1369 1301 889 
Q 1547 409 2034 409 
Q 2525 409 2770 889 
Q 3016 1369 3016 2328 
Q 3016 3291 2770 3770 
Q 2525 4250 2034 4250 
z
M 2034 4750 
Q 2819 4750 3233 4129 
Q 3647 3509 3647 2328 
Q 3647 1150 3233 529 
Q 2819 -91 2034 -91 
Q 1250 -91 836 529 
Q 422 1150 422 2328 
Q 422 3509 836 4129 
Q 1250 4750 2034 4750 
z
" transform="scale(0.015625)"/>
       </defs>
       <use xlink:href="#DejaVuSans-30"/>
      </g>
     </g>
    </g>
    <g id="ytick_2">
     <g id="line2d_3">
      <g>
       <use xlink:href="#m37c0f07cf0" x="72" y="339.152643" style="stroke: #000000; stroke-width: 0.8"/>
      </g>
     </g>
     <g id="text_3">
      <!-- 25 -->
      <g transform="translate(52.275 342.951862) scale(0.1 -0.1)">
       <defs>
        <path id="DejaVuSans-32" d="M 1228 531 
L 3431 531 
L 3431 0 
L 469 0 
L 469 531 
Q 828 903 1448 1529 
Q 2069 2156 2228 2338 
Q 2531 2678 2651 2914 
Q 2772 3150 2772 3378 
Q 2772 3750 2511 3984 
Q 2250 4219 1831 4219 
Q 1534 4219 1204 4116 
Q 875 4013 500 3803 
L 500 4441 
Q 881 4594 1212 4672 
Q 1544 4750 1819 4750 
Q 2544 4750 2975 4387 
Q 3406 4025 3406 3419 
Q 3406 3131 3298 2873 
Q 3191 2616 2906 2266 
Q 2828 2175 2409 1742 
Q 1991 1309 1228 531 
z
" transform="scale(0.015625)"/>
        <path id="DejaVuSans-35" d="M 691 4666 
L 3169 4666 
L 3169 4134 
L 1269 4134 
L 1269 2991 
Q 1406 3038 1543 3061 
Q 1681 3084 1819 3084 
Q 2600 3084 3056 2656 
Q 3513 2228 3513 1497 
Q 3513 744 3044 326 
Q 2575 -91 1722 -91 
Q 1428 -91 1123 -41 
Q 819 9 494 109 
L 494 744 
Q 775 591 1075 516 
Q 1375 441 1709 441 
Q 2250 441 2565 725 
Q 2881 1009 2881 1497 
Q 2881 1984 2565 2268 
Q 2250 2553 1709 2553 
Q 1456 2553 1204 2497 
Q 953 2441 691 2322 
L 691 4666 
z
" transform="scale(0.015625)"/>
       </defs>
       <use xlink:href="#DejaVuSans-32"/>
       <use xlink:href="#DejaVuSans-35" transform="translate(63.623047 0)"/>
      </g>
     </g>
    </g>
    <g id="ytick_3">
     <g id="line2d_4">
      <g>
       <use xlink:href="#m37c0f07cf0" x="72" y="293.825286" style="stroke: #000000; stroke-width: 0.8"/>
      </g>
     </g>
     <g id="text_4">
      <!-- 50 -->
      <g transform="translate(52.275 297.624505) scale(0.1 -0.1)">
       <use xlink:href="#DejaVuSans-35"/>
       <use xlink:href="#DejaVuSans-30" transform="translate(63.623047 0)"/>
      </g>
     </g>
    </g>
    <g id="ytick_4">
     <g id="line2d_5">
      <g>
       <use xlink:href="#m37c0f07cf0" x="72" y="248.497929" style="stroke: #000000; stroke-width: 0.8"/>
      </g>
     </g>
     <g id="text_5">
      <!-- 75 -->
      <g transform="translate(52.275 252.297148) scale(0.1 -0.1)">
       <defs>
        <path id="DejaVuSans-37" d="M 525 4666 
L 3525 4666 
L 3525 4397 
L 1831 0 
L 1172 0 
L 2766 4134 
L 525 4134 
L 525 4666 
z
" transform="scale(0.015625)"/>
       </defs>
       <use xlink:href="#DejaVuSans-37"/>
       <use xlink:href="#DejaVuSans-35" transform="translate(63.623047 0)"/>
      </g>
     </g>
    </g>
    <g id="ytick_5">
     <g id="line2d_6">
      <g>
       <use xlink:href="#m37c0f07cf0" x="72" y="203.170573" style="stroke: #000000; stroke-width: 0.8"/>
      </g>
     </g>
     <g id="text_6">
      <!-- 100 -->
      <g transform="translate(45.9125 206.969791) scale(0.1 -0.1)">
       <use xlink:href="#DejaVuSans-31"/>
       <use xlink:href="#DejaVuSans-30" transform="translate(63.623047 0)"/>
       <use xlink:href="#DejaVuSans-30" transform="translate(127.246094 0)"/>
      </g>
     </g>
    </g>
    <g id="ytick_6">
     <g id="line2d_7">
      <g>
       <use xlink:href="#m37c0f07cf0" x="72" y="157.843216" style="stroke: #000000; stroke-width: 0.8"/>
      </g>
     </g>
     <g id="text_7">
      <!-- 125 -->
      <g transform="translate(45.9125 161.642434) scale(0.1 -0.1)">
       <use xlink:href="#DejaVuSans-31"/>
       <use xlink:href="#DejaVuSans-32" transform="translate(63.623047 0)"/>
       <use xlink:href="#DejaVuSans-35" transform="translate(127.246094 0)"/>
      </g>
     </g>
    </g>
    <g id="ytick_7">
     <g id="line2d_8">
      <g>
       <use xlink:href="#m37c0f07cf0" x="72" y="112.515859" style="stroke: #000000; stroke-width: 0.8"/>
      </g>
     </g>
     <g id="text_8">
      <!-- 150 -->
      <g transform="translate(45.9125 116.315078) scale(0.1 -0.1)">
       <use xlink:href="#DejaVuSans-31"/>
       <use xlink:href="#DejaVuSans-35" transform="translate(63.623047 0)"/>
       <use xlink:href="#DejaVuSans-30" transform="translate(127.246094 0)"/>
      </g>
     </g>
    </g>
    <g id="ytick_8">
     <g id="line2d_9">
      <g>
       <use xlink:href="#m37c0f07cf0" x="72" y="67.188502" style="stroke: #000000; stroke-width: 0.8"/>
      </g>
     </g>
     <g id="text_9">
      <!-- 175 -->
      <g transform="translate(45.9125 70.987721) scale(0.1 -0.1)">
       <use xlink:href="#DejaVuSans-31"/>
       <use xlink:href="#DejaVuSans-37" transform="translate(63.623047 0)"/>
       <use xlink:href="#DejaVuSans-35" transform="translate(127.246094 0)"/>
      </g>
     </g>
    </g>
    <g id="text_10">
     <!-- Time (ms) -->
     <g transform="translate(39.832812 243.359219) rotate(-90) scale(0.1 -0.1)">
      <defs>
       <path id="DejaVuSans-54" d="M -19 4666 
L 3928 4666 
L 3928 4134 
L 2272 4134 
L 2272 0 
L 1638 0 
L 1638 4134 
L -19 4134 
L -19 4666 
z
" transform="scale(0.015625)"/>
       <path id="DejaVuSans-69" d="M 603 3500 
L 1178 3500 
L 1178 0 
L 603 0 
L 603 3500 
z
M 603 4863 
L 1178 4863 
L 1178 4134 
L 603 4134 
L 603 4863 
z
" transform="scale(0.015625)"/>
       <path id="DejaVuSans-6d" d="M 3328 2828 
Q 3544 3216 3844 3400 
Q 4144 3584 4550 3584 
Q 5097 3584 5394 3201 
Q 5691 2819 5691 2113 
L 5691 0 
L 5113 0 
L 5113 2094 
Q 5113 2597 4934 2840 
Q 4756 3084 4391 3084 
Q 3944 3084 3684 2787 
Q 3425 2491 3425 1978 
L 3425 0 
L 2847 0 
L 2847 2094 
Q 2847 2600 2669 2842 
Q 2491 3084 2119 3084 
Q 1678 3084 1418 2786 
Q 1159 2488 1159 1978 
L 1159 0 
L 581 0 
L 581 3500 
L 1159 3500 
L 1159 2956 
Q 1356 3278 1631 3431 
Q 1906 3584 2284 3584 
Q 2666 3584 2933 3390 
Q 3200 3197 3328 2828 
z
" transform="scale(0.015625)"/>
       <path id="DejaVuSans-65" d="M 3597 1894 
L 3597 1613 
L 953 1613 
Q 991 1019 1311 708 
Q 1631 397 2203 397 
Q 2534 397 2845 478 
Q 3156 559 3463 722 
L 3463 178 
Q 3153 47 2828 -22 
Q 2503 -91 2169 -91 
Q 1331 -91 842 396 
Q 353 884 353 1716 
Q 353 2575 817 3079 
Q 1281 3584 2069 3584 
Q 2775 3584 3186 3129 
Q 3597 2675 3597 1894 
z
M 3022 2063 
Q 3016 2534 2758 2815 
Q 2500 3097 2075 3097 
Q 1594 3097 1305 2825 
Q 1016 2553 972 2059 
L 3022 2063 
z
" transform="scale(0.015625)"/>
       <path id="DejaVuSans-20" transform="scale(0.015625)"/>
       <path id="DejaVuSans-28" d="M 1984 4856 
Q 1566 4138 1362 3434 
Q 1159 2731 1159 2009 
Q 1159 1288 1364 580 
Q 1569 -128 1984 -844 
L 1484 -844 
Q 1016 -109 783 600 
Q 550 1309 550 2009 
Q 550 2706 781 3412 
Q 1013 4119 1484 4856 
L 1984 4856 
z
" transform="scale(0.015625)"/>
       <path id="DejaVuSans-73" d="M 2834 3397 
L 2834 2853 
Q 2591 2978 2328 3040 
Q 2066 3103 1784 3103 
Q 1356 3103 1142 2972 
Q 928 2841 928 2578 
Q 928 2378 1081 2264 
Q 1234 2150 1697 2047 
L 1894 2003 
Q 2506 1872 2764 1633 
Q 3022 1394 3022 966 
Q 3022 478 2636 193 
Q 2250 -91 1575 -91 
Q 1294 -91 989 -36 
Q 684 19 347 128 
L 347 722 
Q 666 556 975 473 
Q 1284 391 1588 391 
Q 1994 391 2212 530 
Q 2431 669 2431 922 
Q 2431 1156 2273 1281 
Q 2116 1406 1581 1522 
L 1381 1569 
Q 847 1681 609 1914 
Q 372 2147 372 2553 
Q 372 3047 722 3315 
Q 1072 3584 1716 3584 
Q 2034 3584 2315 3537 
Q 2597 3491 2834 3397 
z
" transform="scale(0.015625)"/>
       <path id="DejaVuSans-29" d="M 513 4856 
L 1013 4856 
Q 1481 4119 1714 3412 
Q 1947 2706 1947 2009 
Q 1947 1309 1714 600 
Q 1481 -109 1013 -844 
L 513 -844 
Q 928 -128 1133 580 
Q 1338 1288 1338 2009 
Q 1338 2731 1133 3434 
Q 928 4138 513 4856 
z
" transform="scale(0.015625)"/>
      </defs>
      <use xlink:href="#DejaVuSans-54"/>
      <use xlink:href="#DejaVuSans-69" transform="translate(57.958984 0)"/>
      <use xlink:href="#DejaVuSans-6d" transform="translate(85.742188 0)"/>
      <use xlink:href="#DejaVuSans-65" transform="translate(183.154297 0)"/>
      <use xlink:href="#DejaVuSans-20" transform="translate(244.677734 0)"/>
      <use xlink:href="#DejaVuSans-28" transform="translate(276.464844 0)"/>
      <use xlink:href="#DejaVuSans-6d" transform="translate(315.478516 0)"/>
      <use xlink:href="#DejaVuSans-73" transform="translate(412.890625 0)"/>
      <use xlink:href="#DejaVuSans-29" transform="translate(464.990234 0)"/>
     </g>
    </g>
   </g>
   <g id="LineCollection_1">
    <path d="M 239.4 352.144966 
L 351 352.144966 
" clip-path="url(#p3c2f9172ff)" style="fill: none; stroke: #1f77b4; stroke-width: 1.5"/>
   </g>
   <g id="LineCollection_2">
    <path d="M 239.4 66.588406 
L 351 66.588406 
" clip-path="url(#p3c2f9172ff)" style="fill: none; stroke: #1f77b4; stroke-width: 1.5"/>
   </g>
   <g id="LineCollection_3">
    <path d="M 239.4 361.556521 
L 351 361.556521 
" clip-path="url(#p3c2f9172ff)" style="fill: none; stroke: #1f77b4; stroke-width: 1.5"/>
   </g>
   <g id="LineCollection_4">
    <path d="M 295.2 361.556521 
L 295.2 66.588406 
" clip-path="url(#p3c2f9172ff)" style="fill: none; stroke: #1f77b4; stroke-width: 1.5"/>
   </g>
   <g id="patch_3">
    <path d="M 250.56 356.241081 
L 339.84 356.241081 
L 339.84 351.639258 
L 250.56 351.639258 
L 250.56 356.241081 
z
" clip-path="url(#p3c2f9172ff)" style="fill: #1f77b4; stroke: #000000; stroke-linejoin: miter"/>
   </g>
   <g id="line2d_10">
    <path d="M 295.2 356.241081 
L 295.2 361.556521 
" clip-path="url(#p3c2f9172ff)" style="fill: none; stroke: #000000; stroke-linecap: square"/>
   </g>
   <g id="line2d_11">
    <path d="M 295.2 351.639258 
L 295.2 344.745439 
" clip-path="url(#p3c2f9172ff)" style="fill: none; stroke: #000000; stroke-linecap: square"/>
   </g>
   <g id="line2d_12">
    <path d="M 272.88 361.556521 
L 317.52 361.556521 
" clip-path="url(#p3c2f9172ff)" style="fill: none; stroke: #000000; stroke-linecap: square"/>
   </g>
   <g id="line2d_13">
    <path d="M 272.88 344.745439 
L 317.52 344.745439 
" clip-path="url(#p3c2f9172ff)" style="fill: none; stroke: #000000; stroke-linecap: square"/>
   </g>
   <g id="line2d_14">
    <defs>
     <path id="m918c403d65" d="M 0 3 
C 0.795609 3 1.55874 2.683901 2.12132 2.12132 
C 2.683901 1.55874 3 0.795609 3 0 
C 3 -0.795609 2.683901 -1.55874 2.12132 -2.12132 
C 1.55874 -2.683901 0.795609 -3 0 -3 
C -0.795609 -3 -1.55874 -2.683901 -2.12132 -2.12132 
C -2.683901 -1.55874 -3 -0.795609 -3 0 
C -3 0.795609 -2.683901 1.55874 -2.12132 2.12132 
C -1.55874 2.683901 -0.795609 3 0 3 
z
" style="stroke: #000000"/>
    </defs>
    <g clip-path="url(#p3c2f9172ff)">
     <use xlink:href="#m918c403d65" x="295.2" y="66.588406" style="fill-opacity: 0; stroke: #000000"/>
     <use xlink:href="#m918c403d65" x="295.2" y="331.900322" style="fill-opacity: 0; stroke: #000000"/>
     <use xlink:href="#m918c403d65" x="295.2" y="321.172461" style="fill-opacity: 0; stroke: #000000"/>
     <use xlink:href="#m918c403d65" x="295.2" y="323.008669" style="fill-opacity: 0; stroke: #000000"/>
     <use xlink:href="#m918c403d65" x="295.2" y="324.913596" style="fill-opacity: 0; stroke: #000000"/>
     <use xlink:href="#m918c403d65" x="295.2" y="305.527983" style="fill-opacity: 0; stroke: #000000"/>
     <use xlink:href="#m918c403d65" x="295.2" y="324.95131" style="fill-opacity: 0; stroke: #000000"/>
     <use xlink:href="#m918c403d65" x="295.2" y="335.676813" style="fill-opacity: 0; stroke: #000000"/>
     <use xlink:href="#m918c403d65" x="295.2" y="335.26631" style="fill-opacity: 0; stroke: #000000"/>
     <use xlink:href="#m918c403d65" x="295.2" y="332.368304" style="fill-opacity: 0; stroke: #000000"/>
     <use xlink:href="#m918c403d65" x="295.2" y="318.661208" style="fill-opacity: 0; stroke: #000000"/>
     <use xlink:href="#m918c403d65" x="295.2" y="335.92812" style="fill-opacity: 0; stroke: #000000"/>
     <use xlink:href="#m918c403d65" x="295.2" y="329.800297" style="fill-opacity: 0; stroke: #000000"/>
     <use xlink:href="#m918c403d65" x="295.2" y="302.449748" style="fill-opacity: 0; stroke: #000000"/>
     <use xlink:href="#m918c403d65" x="295.2" y="337.875476" style="fill-opacity: 0; stroke: #000000"/>
     <use xlink:href="#m918c403d65" x="295.2" y="302.889443" style="fill-opacity: 0; stroke: #000000"/>
     <use xlink:href="#m918c403d65" x="295.2" y="330.427839" style="fill-opacity: 0; stroke: #000000"/>
     <use xlink:href="#m918c403d65" x="295.2" y="344.068029" style="fill-opacity: 0; stroke: #000000"/>
     <use xlink:href="#m918c403d65" x="295.2" y="343.042129" style="fill-opacity: 0; stroke: #000000"/>
     <use xlink:href="#m918c403d65" x="295.2" y="341.154963" style="fill-opacity: 0; stroke: #000000"/>
     <use xlink:href="#m918c403d65" x="295.2" y="322.8026" style="fill-opacity: 0; stroke: #000000"/>
     <use xlink:href="#m918c403d65" x="295.2" y="337.001311" style="fill-opacity: 0; stroke: #000000"/>
     <use xlink:href="#m918c403d65" x="295.2" y="340.676643" style="fill-opacity: 0; stroke: #000000"/>
     <use xlink:href="#m918c403d65" x="295.2" y="335.053948" style="fill-opacity: 0; stroke: #000000"/>
     <use xlink:href="#m918c403d65" x="295.2" y="342.421656" style="fill-opacity: 0; stroke: #000000"/>
     <use xlink:href="#m918c403d65" x="295.2" y="341.066116" style="fill-opacity: 0; stroke: #000000"/>
     <use xlink:href="#m918c403d65" x="295.2" y="325.367172" style="fill-opacity: 0; stroke: #000000"/>
     <use xlink:href="#m918c403d65" x="295.2" y="337.202575" style="fill-opacity: 0; stroke: #000000"/>
     <use xlink:href="#m918c403d65" x="295.2" y="340.140303" style="fill-opacity: 0; stroke: #000000"/>
     <use xlink:href="#m918c403d65" x="295.2" y="340.652529" style="fill-opacity: 0; stroke: #000000"/>
     <use xlink:href="#m918c403d65" x="295.2" y="337.931477" style="fill-opacity: 0; stroke: #000000"/>
     <use xlink:href="#m918c403d65" x="295.2" y="330.021808" style="fill-opacity: 0; stroke: #000000"/>
     <use xlink:href="#m918c403d65" x="295.2" y="342.735337" style="fill-opacity: 0; stroke: #000000"/>
     <use xlink:href="#m918c403d65" x="295.2" y="344.548524" style="fill-opacity: 0; stroke: #000000"/>
     <use xlink:href="#m918c403d65" x="295.2" y="333.867216" style="fill-opacity: 0; stroke: #000000"/>
     <use xlink:href="#m918c403d65" x="295.2" y="336.397519" style="fill-opacity: 0; stroke: #000000"/>
     <use xlink:href="#m918c403d65" x="295.2" y="324.578074" style="fill-opacity: 0; stroke: #000000"/>
     <use xlink:href="#m918c403d65" x="295.2" y="342.205341" style="fill-opacity: 0; stroke: #000000"/>
     <use xlink:href="#m918c403d65" x="295.2" y="342.825998" style="fill-opacity: 0; stroke: #000000"/>
     <use xlink:href="#m918c403d65" x="295.2" y="341.740986" style="fill-opacity: 0; stroke: #000000"/>
     <use xlink:href="#m918c403d65" x="295.2" y="337.193691" style="fill-opacity: 0; stroke: #000000"/>
     <use xlink:href="#m918c403d65" x="295.2" y="343.635765" style="fill-opacity: 0; stroke: #000000"/>
     <use xlink:href="#m918c403d65" x="295.2" y="337.272383" style="fill-opacity: 0; stroke: #000000"/>
     <use xlink:href="#m918c403d65" x="295.2" y="336.850454" style="fill-opacity: 0; stroke: #000000"/>
     <use xlink:href="#m918c403d65" x="295.2" y="265.554092" style="fill-opacity: 0; stroke: #000000"/>
     <use xlink:href="#m918c403d65" x="295.2" y="343.214564" style="fill-opacity: 0; stroke: #000000"/>
     <use xlink:href="#m918c403d65" x="295.2" y="338.424301" style="fill-opacity: 0; stroke: #000000"/>
     <use xlink:href="#m918c403d65" x="295.2" y="336.31085" style="fill-opacity: 0; stroke: #000000"/>
     <use xlink:href="#m918c403d65" x="295.2" y="344.218706" style="fill-opacity: 0; stroke: #000000"/>
     <use xlink:href="#m918c403d65" x="295.2" y="341.473177" style="fill-opacity: 0; stroke: #000000"/>
     <use xlink:href="#m918c403d65" x="295.2" y="341.856123" style="fill-opacity: 0; stroke: #000000"/>
     <use xlink:href="#m918c403d65" x="295.2" y="343.931316" style="fill-opacity: 0; stroke: #000000"/>
     <use xlink:href="#m918c403d65" x="295.2" y="343.172679" style="fill-opacity: 0; stroke: #000000"/>
     <use xlink:href="#m918c403d65" x="295.2" y="343.42725" style="fill-opacity: 0; stroke: #000000"/>
     <use xlink:href="#m918c403d65" x="295.2" y="343.801493" style="fill-opacity: 0; stroke: #000000"/>
     <use xlink:href="#m918c403d65" x="295.2" y="336.461525" style="fill-opacity: 0; stroke: #000000"/>
     <use xlink:href="#m918c403d65" x="295.2" y="338.842241" style="fill-opacity: 0; stroke: #000000"/>
     <use xlink:href="#m918c403d65" x="295.2" y="325.846943" style="fill-opacity: 0; stroke: #000000"/>
     <use xlink:href="#m918c403d65" x="295.2" y="337.373015" style="fill-opacity: 0; stroke: #000000"/>
     <use xlink:href="#m918c403d65" x="295.2" y="339.944117" style="fill-opacity: 0; stroke: #000000"/>
     <use xlink:href="#m918c403d65" x="295.2" y="341.596837" style="fill-opacity: 0; stroke: #000000"/>
     <use xlink:href="#m918c403d65" x="295.2" y="343.380289" style="fill-opacity: 0; stroke: #000000"/>
     <use xlink:href="#m918c403d65" x="295.2" y="301.348598" style="fill-opacity: 0; stroke: #000000"/>
     <use xlink:href="#m918c403d65" x="295.2" y="342.448129" style="fill-opacity: 0; stroke: #000000"/>
     <use xlink:href="#m918c403d65" x="295.2" y="332.237523" style="fill-opacity: 0; stroke: #000000"/>
     <use xlink:href="#m918c403d65" x="295.2" y="342.353117" style="fill-opacity: 0; stroke: #000000"/>
     <use xlink:href="#m918c403d65" x="295.2" y="343.598778" style="fill-opacity: 0; stroke: #000000"/>
     <use xlink:href="#m918c403d65" x="295.2" y="343.655167" style="fill-opacity: 0; stroke: #000000"/>
     <use xlink:href="#m918c403d65" x="295.2" y="344.6167" style="fill-opacity: 0; stroke: #000000"/>
     <use xlink:href="#m918c403d65" x="295.2" y="342.464084" style="fill-opacity: 0; stroke: #000000"/>
     <use xlink:href="#m918c403d65" x="295.2" y="316.125354" style="fill-opacity: 0; stroke: #000000"/>
     <use xlink:href="#m918c403d65" x="295.2" y="321.068467" style="fill-opacity: 0; stroke: #000000"/>
     <use xlink:href="#m918c403d65" x="295.2" y="338.645874" style="fill-opacity: 0; stroke: #000000"/>
     <use xlink:href="#m918c403d65" x="295.2" y="341.495081" style="fill-opacity: 0; stroke: #000000"/>
     <use xlink:href="#m918c403d65" x="295.2" y="341.729888" style="fill-opacity: 0; stroke: #000000"/>
     <use xlink:href="#m918c403d65" x="295.2" y="341.271518" style="fill-opacity: 0; stroke: #000000"/>
     <use xlink:href="#m918c403d65" x="295.2" y="344.152483" style="fill-opacity: 0; stroke: #000000"/>
     <use xlink:href="#m918c403d65" x="295.2" y="340.405905" style="fill-opacity: 0; stroke: #000000"/>
     <use xlink:href="#m918c403d65" x="295.2" y="342.637931" style="fill-opacity: 0; stroke: #000000"/>
     <use xlink:href="#m918c403d65" x="295.2" y="338.462717" style="fill-opacity: 0; stroke: #000000"/>
     <use xlink:href="#m918c403d65" x="295.2" y="344.506413" style="fill-opacity: 0; stroke: #000000"/>
     <use xlink:href="#m918c403d65" x="295.2" y="344.599432" style="fill-opacity: 0; stroke: #000000"/>
     <use xlink:href="#m918c403d65" x="295.2" y="283.864009" style="fill-opacity: 0; stroke: #000000"/>
     <use xlink:href="#m918c403d65" x="295.2" y="341.627444" style="fill-opacity: 0; stroke: #000000"/>
     <use xlink:href="#m918c403d65" x="295.2" y="343.012897" style="fill-opacity: 0; stroke: #000000"/>
     <use xlink:href="#m918c403d65" x="295.2" y="295.747601" style="fill-opacity: 0; stroke: #000000"/>
     <use xlink:href="#m918c403d65" x="295.2" y="343.482889" style="fill-opacity: 0; stroke: #000000"/>
     <use xlink:href="#m918c403d65" x="295.2" y="342.546748" style="fill-opacity: 0; stroke: #000000"/>
     <use xlink:href="#m918c403d65" x="295.2" y="327.680362" style="fill-opacity: 0; stroke: #000000"/>
     <use xlink:href="#m918c403d65" x="295.2" y="339.406152" style="fill-opacity: 0; stroke: #000000"/>
     <use xlink:href="#m918c403d65" x="295.2" y="340.976179" style="fill-opacity: 0; stroke: #000000"/>
     <use xlink:href="#m918c403d65" x="295.2" y="343.971539" style="fill-opacity: 0; stroke: #000000"/>
     <use xlink:href="#m918c403d65" x="295.2" y="344.044248" style="fill-opacity: 0; stroke: #000000"/>
     <use xlink:href="#m918c403d65" x="295.2" y="81.371617" style="fill-opacity: 0; stroke: #000000"/>
     <use xlink:href="#m918c403d65" x="295.2" y="315.788461" style="fill-opacity: 0; stroke: #000000"/>
     <use xlink:href="#m918c403d65" x="295.2" y="310.474385" style="fill-opacity: 0; stroke: #000000"/>
     <use xlink:href="#m918c403d65" x="295.2" y="299.404901" style="fill-opacity: 0; stroke: #000000"/>
     <use xlink:href="#m918c403d65" x="295.2" y="238.872504" style="fill-opacity: 0; stroke: #000000"/>
     <use xlink:href="#m918c403d65" x="295.2" y="293.46709" style="fill-opacity: 0; stroke: #000000"/>
     <use xlink:href="#m918c403d65" x="295.2" y="311.754673" style="fill-opacity: 0; stroke: #000000"/>
     <use xlink:href="#m918c403d65" x="295.2" y="300.236971" style="fill-opacity: 0; stroke: #000000"/>
     <use xlink:href="#m918c403d65" x="295.2" y="287.561731" style="fill-opacity: 0; stroke: #000000"/>
     <use xlink:href="#m918c403d65" x="295.2" y="292.120619" style="fill-opacity: 0; stroke: #000000"/>
     <use xlink:href="#m918c403d65" x="295.2" y="329.561583" style="fill-opacity: 0; stroke: #000000"/>
     <use xlink:href="#m918c403d65" x="295.2" y="342.069283" style="fill-opacity: 0; stroke: #000000"/>
     <use xlink:href="#m918c403d65" x="295.2" y="342.872523" style="fill-opacity: 0; stroke: #000000"/>
     <use xlink:href="#m918c403d65" x="295.2" y="342.330742" style="fill-opacity: 0; stroke: #000000"/>
     <use xlink:href="#m918c403d65" x="295.2" y="300.480126" style="fill-opacity: 0; stroke: #000000"/>
     <use xlink:href="#m918c403d65" x="295.2" y="343.55319" style="fill-opacity: 0; stroke: #000000"/>
     <use xlink:href="#m918c403d65" x="295.2" y="277.708095" style="fill-opacity: 0; stroke: #000000"/>
     <use xlink:href="#m918c403d65" x="295.2" y="344.673912" style="fill-opacity: 0; stroke: #000000"/>
     <use xlink:href="#m918c403d65" x="295.2" y="344.302213" style="fill-opacity: 0; stroke: #000000"/>
     <use xlink:href="#m918c403d65" x="295.2" y="283.008185" style="fill-opacity: 0; stroke: #000000"/>
     <use xlink:href="#m918c403d65" x="295.2" y="344.705462" style="fill-opacity: 0; stroke: #000000"/>
     <use xlink:href="#m918c403d65" x="295.2" y="331.094137" style="fill-opacity: 0; stroke: #000000"/>
     <use xlink:href="#m918c403d65" x="295.2" y="322.645829" style="fill-opacity: 0; stroke: #000000"/>
     <use xlink:href="#m918c403d65" x="295.2" y="339.768549" style="fill-opacity: 0; stroke: #000000"/>
     <use xlink:href="#m918c403d65" x="295.2" y="344.586155" style="fill-opacity: 0; stroke: #000000"/>
     <use xlink:href="#m918c403d65" x="295.2" y="343.039426" style="fill-opacity: 0; stroke: #000000"/>
     <use xlink:href="#m918c403d65" x="295.2" y="334.052222" style="fill-opacity: 0; stroke: #000000"/>
     <use xlink:href="#m918c403d65" x="295.2" y="341.009933" style="fill-opacity: 0; stroke: #000000"/>
     <use xlink:href="#m918c403d65" x="295.2" y="341.790688" style="fill-opacity: 0; stroke: #000000"/>
     <use xlink:href="#m918c403d65" x="295.2" y="334.704603" style="fill-opacity: 0; stroke: #000000"/>
     <use xlink:href="#m918c403d65" x="295.2" y="335.43894" style="fill-opacity: 0; stroke: #000000"/>
     <use xlink:href="#m918c403d65" x="295.2" y="289.645103" style="fill-opacity: 0; stroke: #000000"/>
     <use xlink:href="#m918c403d65" x="295.2" y="337.42818" style="fill-opacity: 0; stroke: #000000"/>
     <use xlink:href="#m918c403d65" x="295.2" y="306.044584" style="fill-opacity: 0; stroke: #000000"/>
     <use xlink:href="#m918c403d65" x="295.2" y="344.303031" style="fill-opacity: 0; stroke: #000000"/>
     <use xlink:href="#m918c403d65" x="295.2" y="339.105914" style="fill-opacity: 0; stroke: #000000"/>
     <use xlink:href="#m918c403d65" x="295.2" y="344.592051" style="fill-opacity: 0; stroke: #000000"/>
     <use xlink:href="#m918c403d65" x="295.2" y="344.092306" style="fill-opacity: 0; stroke: #000000"/>
     <use xlink:href="#m918c403d65" x="295.2" y="327.79308" style="fill-opacity: 0; stroke: #000000"/>
     <use xlink:href="#m918c403d65" x="295.2" y="328.037858" style="fill-opacity: 0; stroke: #000000"/>
     <use xlink:href="#m918c403d65" x="295.2" y="334.916522" style="fill-opacity: 0; stroke: #000000"/>
     <use xlink:href="#m918c403d65" x="295.2" y="343.187164" style="fill-opacity: 0; stroke: #000000"/>
     <use xlink:href="#m918c403d65" x="295.2" y="339.116394" style="fill-opacity: 0; stroke: #000000"/>
     <use xlink:href="#m918c403d65" x="295.2" y="108.077007" style="fill-opacity: 0; stroke: #000000"/>
     <use xlink:href="#m918c403d65" x="295.2" y="331.361835" style="fill-opacity: 0; stroke: #000000"/>
     <use xlink:href="#m918c403d65" x="295.2" y="337.877855" style="fill-opacity: 0; stroke: #000000"/>
     <use xlink:href="#m918c403d65" x="295.2" y="338.596962" style="fill-opacity: 0; stroke: #000000"/>
     <use xlink:href="#m918c403d65" x="295.2" y="333.765929" style="fill-opacity: 0; stroke: #000000"/>
     <use xlink:href="#m918c403d65" x="295.2" y="342.498923" style="fill-opacity: 0; stroke: #000000"/>
     <use xlink:href="#m918c403d65" x="295.2" y="338.059355" style="fill-opacity: 0; stroke: #000000"/>
     <use xlink:href="#m918c403d65" x="295.2" y="337.065006" style="fill-opacity: 0; stroke: #000000"/>
     <use xlink:href="#m918c403d65" x="295.2" y="341.402858" style="fill-opacity: 0; stroke: #000000"/>
     <use xlink:href="#m918c403d65" x="295.2" y="335.267603" style="fill-opacity: 0; stroke: #000000"/>
     <use xlink:href="#m918c403d65" x="295.2" y="338.700677" style="fill-opacity: 0; stroke: #000000"/>
     <use xlink:href="#m918c403d65" x="295.2" y="343.704507" style="fill-opacity: 0; stroke: #000000"/>
     <use xlink:href="#m918c403d65" x="295.2" y="338.052646" style="fill-opacity: 0; stroke: #000000"/>
     <use xlink:href="#m918c403d65" x="295.2" y="338.10359" style="fill-opacity: 0; stroke: #000000"/>
     <use xlink:href="#m918c403d65" x="295.2" y="337.686379" style="fill-opacity: 0; stroke: #000000"/>
     <use xlink:href="#m918c403d65" x="295.2" y="338.441386" style="fill-opacity: 0; stroke: #000000"/>
     <use xlink:href="#m918c403d65" x="295.2" y="333.746159" style="fill-opacity: 0; stroke: #000000"/>
     <use xlink:href="#m918c403d65" x="295.2" y="298.43522" style="fill-opacity: 0; stroke: #000000"/>
     <use xlink:href="#m918c403d65" x="295.2" y="308.859368" style="fill-opacity: 0; stroke: #000000"/>
     <use xlink:href="#m918c403d65" x="295.2" y="320.851735" style="fill-opacity: 0; stroke: #000000"/>
     <use xlink:href="#m918c403d65" x="295.2" y="337.074975" style="fill-opacity: 0; stroke: #000000"/>
     <use xlink:href="#m918c403d65" x="295.2" y="301.829129" style="fill-opacity: 0; stroke: #000000"/>
     <use xlink:href="#m918c403d65" x="295.2" y="337.507416" style="fill-opacity: 0; stroke: #000000"/>
     <use xlink:href="#m918c403d65" x="295.2" y="333.627035" style="fill-opacity: 0; stroke: #000000"/>
     <use xlink:href="#m918c403d65" x="295.2" y="342.665733" style="fill-opacity: 0; stroke: #000000"/>
     <use xlink:href="#m918c403d65" x="295.2" y="292.712469" style="fill-opacity: 0; stroke: #000000"/>
     <use xlink:href="#m918c403d65" x="295.2" y="325.052873" style="fill-opacity: 0; stroke: #000000"/>
    </g>
   </g>
   <g id="line2d_15">
    <path d="M 250.56 354.465461 
L 339.84 354.465461 
" clip-path="url(#p3c2f9172ff)" style="fill: none; stroke: #ff7f0e"/>
   </g>
   <g id="patch_4">
    <path d="M 72 384.48 
L 72 51.84 
" style="fill: none; stroke: #000000; stroke-width: 0.8; stroke-linejoin: miter; stroke-linecap: square"/>
   </g>
   <g id="patch_5">
    <path d="M 518.4 384.48 
L 518.4 51.84 
" style="fill: none; stroke: #000000; stroke-width: 0.8; stroke-linejoin: miter; stroke-linecap: square"/>
   </g>
   <g id="patch_6">
    <path d="M 72 384.48 
L 518.4 384.48 
" style="fill: none; stroke: #000000; stroke-width: 0.8; stroke-linejoin: miter; stroke-linecap: square"/>
   </g>
   <g id="patch_7">
    <path d="M 72 51.84 
L 518.4 51.84 
" style="fill: none; stroke: #000000; stroke-width: 0.8; stroke-linejoin: miter; stroke-linecap: square"/>
   </g>
   <g id="text_11">
    <!-- Test Method -->
    <g transform="translate(258.975 45.84) scale(0.12 -0.12)">
     <defs>
      <path id="DejaVuSans-74" d="M 1172 4494 
L 1172 3500 
L 2356 3500 
L 2356 3053 
L 1172 3053 
L 1172 1153 
Q 1172 725 1289 603 
Q 1406 481 1766 481 
L 2356 481 
L 2356 0 
L 1766 0 
Q 1100 0 847 248 
Q 594 497 594 1153 
L 594 3053 
L 172 3053 
L 172 3500 
L 594 3500 
L 594 4494 
L 1172 4494 
z
" transform="scale(0.015625)"/>
      <path id="DejaVuSans-4d" d="M 628 4666 
L 1569 4666 
L 2759 1491 
L 3956 4666 
L 4897 4666 
L 4897 0 
L 4281 0 
L 4281 4097 
L 3078 897 
L 2444 897 
L 1241 4097 
L 1241 0 
L 628 0 
L 628 4666 
z
" transform="scale(0.015625)"/>
      <path id="DejaVuSans-68" d="M 3513 2113 
L 3513 0 
L 2938 0 
L 2938 2094 
Q 2938 2591 2744 2837 
Q 2550 3084 2163 3084 
Q 1697 3084 1428 2787 
Q 1159 2491 1159 1978 
L 1159 0 
L 581 0 
L 581 4863 
L 1159 4863 
L 1159 2956 
Q 1366 3272 1645 3428 
Q 1925 3584 2291 3584 
Q 2894 3584 3203 3211 
Q 3513 2838 3513 2113 
z
" transform="scale(0.015625)"/>
      <path id="DejaVuSans-6f" d="M 1959 3097 
Q 1497 3097 1228 2736 
Q 959 2375 959 1747 
Q 959 1119 1226 758 
Q 1494 397 1959 397 
Q 2419 397 2687 759 
Q 2956 1122 2956 1747 
Q 2956 2369 2687 2733 
Q 2419 3097 1959 3097 
z
M 1959 3584 
Q 2709 3584 3137 3096 
Q 3566 2609 3566 1747 
Q 3566 888 3137 398 
Q 2709 -91 1959 -91 
Q 1206 -91 779 398 
Q 353 888 353 1747 
Q 353 2609 779 3096 
Q 1206 3584 1959 3584 
z
" transform="scale(0.015625)"/>
      <path id="DejaVuSans-64" d="M 2906 2969 
L 2906 4863 
L 3481 4863 
L 3481 0 
L 2906 0 
L 2906 525 
Q 2725 213 2448 61 
Q 2172 -91 1784 -91 
Q 1150 -91 751 415 
Q 353 922 353 1747 
Q 353 2572 751 3078 
Q 1150 3584 1784 3584 
Q 2172 3584 2448 3432 
Q 2725 3281 2906 2969 
z
M 947 1747 
Q 947 1113 1208 752 
Q 1469 391 1925 391 
Q 2381 391 2643 752 
Q 2906 1113 2906 1747 
Q 2906 2381 2643 2742 
Q 2381 3103 1925 3103 
Q 1469 3103 1208 2742 
Q 947 2381 947 1747 
z
" transform="scale(0.015625)"/>
     </defs>
     <use xlink:href="#DejaVuSans-54"/>
     <use xlink:href="#DejaVuSans-65" transform="translate(44.083984 0)"/>
     <use xlink:href="#DejaVuSans-73" transform="translate(105.607422 0)"/>
     <use xlink:href="#DejaVuSans-74" transform="translate(157.707031 0)"/>
     <use xlink:href="#DejaVuSans-20" transform="translate(196.916016 0)"/>
     <use xlink:href="#DejaVuSans-4d" transform="translate(228.703125 0)"/>
     <use xlink:href="#DejaVuSans-65" transform="translate(314.982422 0)"/>
     <use xlink:href="#DejaVuSans-74" transform="translate(376.505859 0)"/>
     <use xlink:href="#DejaVuSans-68" transform="translate(415.714844 0)"/>
     <use xlink:href="#DejaVuSans-6f" transform="translate(479.09375 0)"/>
     <use xlink:href="#DejaVuSans-64" transform="translate(540.275391 0)"/>
    </g>
   </g>
  </g>
 </g>
 <defs>
  <clipPath id="p3c2f9172ff">
   <rect x="72" y="51.84" width="446.4" height="332.64"/>
  </clipPath>
 </defs>
</svg>
