<?xml version="1.0" encoding="utf-8" standalone="no"?>
<!DOCTYPE svg PUBLIC "-//W3C//DTD SVG 1.1//EN"
  "http://www.w3.org/Graphics/SVG/1.1/DTD/svg11.dtd">
<svg xmlns:xlink="http://www.w3.org/1999/xlink" width="576pt" height="432pt" viewBox="0 0 576 432" xmlns="http://www.w3.org/2000/svg" version="1.1">
 <metadata>
  <rdf:RDF xmlns:dc="http://purl.org/dc/elements/1.1/" xmlns:cc="http://creativecommons.org/ns#" xmlns:rdf="http://www.w3.org/1999/02/22-rdf-syntax-ns#">
   <cc:Work>
    <dc:type rdf:resource="http://purl.org/dc/dcmitype/StillImage"/>
    <dc:date>2025-06-10T01:38:32.537326</dc:date>
    <dc:format>image/svg+xml</dc:format>
    <dc:creator>
     <cc:Agent>
      <dc:title>Matplotlib v3.10.3, https://matplotlib.org/</dc:title>
     </cc:Agent>
    </dc:creator>
   </cc:Work>
  </rdf:RDF>
 </metadata>
 <defs>
  <style type="text/css">*{stroke-linejoin: round; stroke-linecap: butt}</style>
 </defs>
 <g id="figure_1">
  <g id="patch_1">
   <path d="M 0 432 
L 576 432 
L 576 0 
L 0 0 
z
" style="fill: #ffffff"/>
  </g>
  <g id="axes_1">
   <g id="patch_2">
    <path d="M 72 384.48 
L 518.4 384.48 
L 518.4 51.84 
L 72 51.84 
z
" style="fill: #ffffff"/>
   </g>
   <g id="FillBetweenPolyCollection_1">
    <path d="M 317.928464 368.57772 
L 272.471536 368.57772 
L 267.953691 365.5307 
L 262.987393 362.48368 
L 257.385782 359.43666 
L 250.918684 356.38964 
L 243.392435 353.34262 
L 234.747261 350.2956 
L 225.144242 347.24858 
L 215.012652 344.20156 
L 205.036618 341.15454 
L 196.075677 338.107521 
L 189.032412 335.060501 
L 184.696188 332.013481 
L 183.6 328.966461 
L 185.924656 325.919441 
L 191.471911 322.872421 
L 199.70975 319.825401 
L 209.874843 316.778381 
L 221.104585 313.731361 
L 232.567338 310.684341 
L 243.564523 307.637321 
L 253.589427 304.590302 
L 262.34089 301.543282 
L 269.701183 298.496262 
L 275.693343 295.449242 
L 280.433422 292.402222 
L 284.088588 289.355202 
L 286.845885 286.308182 
L 288.89125 283.261162 
L 290.395904 280.214142 
L 291.507379 277.167122 
L 292.343972 274.120102 
L 292.992734 271.073083 
L 293.511405 268.026063 
L 293.933894 264.979043 
L 294.277854 261.932023 
L 294.552347 258.885003 
L 294.763803 255.837983 
L 294.919417 252.790963 
L 295.028117 249.743943 
L 295.099925 246.696923 
L 295.144698 243.649903 
L 295.171023 240.602883 
L 295.185613 237.555864 
L 295.193234 234.508844 
L 295.196988 231.461824 
L 295.19873 228.414804 
L 295.199493 225.367784 
L 295.199808 222.320764 
L 295.199929 219.273744 
L 295.199968 216.226724 
L 295.199966 213.179704 
L 295.199922 210.132684 
L 295.19979 207.085664 
L 295.199456 204.038645 
L 295.198662 200.991625 
L 295.196882 197.944605 
L 295.193117 194.897585 
L 295.1856 191.850565 
L 295.171443 188.803545 
L 295.146285 185.756525 
L 295.104111 182.709505 
L 295.03743 179.662485 
L 294.938012 176.615465 
L 294.798281 173.568445 
L 294.613238 170.521426 
L 294.382537 167.474406 
L 294.112114 164.427386 
L 293.814762 161.380366 
L 293.509215 158.333346 
L 293.217696 155.286326 
L 292.962329 152.239306 
L 292.761163 149.192286 
L 292.624743 146.145266 
L 292.554162 143.098246 
L 292.541259 140.051226 
L 292.571214 137.004206 
L 292.627057 133.957187 
L 292.694897 130.910167 
L 292.768131 127.863147 
L 292.849007 124.816127 
L 292.946722 121.769107 
L 293.072575 118.722087 
L 293.234012 115.675067 
L 293.429887 112.628047 
L 293.648861 109.581027 
L 293.871517 106.534007 
L 294.075304 103.486987 
L 294.240404 100.439968 
L 294.354481 97.392948 
L 294.41493 94.345928 
L 294.42832 91.298908 
L 294.407696 88.251888 
L 294.368949 85.204868 
L 294.3275 82.157848 
L 294.29606 79.110828 
L 294.283656 76.063808 
L 294.295589 73.016788 
L 294.333798 69.969768 
L 294.397221 66.922749 
L 296.002779 66.922749 
L 296.002779 66.922749 
L 296.066202 69.969768 
L 296.104411 73.016788 
L 296.116344 76.063808 
L 296.10394 79.110828 
L 296.0725 82.157848 
L 296.031051 85.204868 
L 295.992304 88.251888 
L 295.97168 91.298908 
L 295.98507 94.345928 
L 296.045519 97.392948 
L 296.159596 100.439968 
L 296.324696 103.486987 
L 296.528483 106.534007 
L 296.751139 109.581027 
L 296.970113 112.628047 
L 297.165988 115.675067 
L 297.327425 118.722087 
L 297.453278 121.769107 
L 297.550993 124.816127 
L 297.631869 127.863147 
L 297.705103 130.910167 
L 297.772943 133.957187 
L 297.828786 137.004206 
L 297.858741 140.051226 
L 297.845838 143.098246 
L 297.775257 146.145266 
L 297.638837 149.192286 
L 297.437671 152.239306 
L 297.182304 155.286326 
L 296.890785 158.333346 
L 296.585238 161.380366 
L 296.287886 164.427386 
L 296.017463 167.474406 
L 295.786762 170.521426 
L 295.601719 173.568445 
L 295.461988 176.615465 
L 295.36257 179.662485 
L 295.295889 182.709505 
L 295.253715 185.756525 
L 295.228557 188.803545 
L 295.2144 191.850565 
L 295.206883 194.897585 
L 295.203118 197.944605 
L 295.201338 200.991625 
L 295.200544 204.038645 
L 295.20021 207.085664 
L 295.200078 210.132684 
L 295.200034 213.179704 
L 295.200032 216.226724 
L 295.200071 219.273744 
L 295.200192 222.320764 
L 295.200507 225.367784 
L 295.20127 228.414804 
L 295.203012 231.461824 
L 295.206766 234.508844 
L 295.214387 237.555864 
L 295.228977 240.602883 
L 295.255302 243.649903 
L 295.300075 246.696923 
L 295.371883 249.743943 
L 295.480583 252.790963 
L 295.636197 255.837983 
L 295.847653 258.885003 
L 296.122146 261.932023 
L 296.466106 264.979043 
L 296.888595 268.026063 
L 297.407266 271.073083 
L 298.056028 274.120102 
L 298.892621 277.167122 
L 300.004096 280.214142 
L 301.50875 283.261162 
L 303.554115 286.308182 
L 306.311412 289.355202 
L 309.966578 292.402222 
L 314.706657 295.449242 
L 320.698817 298.496262 
L 328.05911 301.543282 
L 336.810573 304.590302 
L 346.835477 307.637321 
L 357.832662 310.684341 
L 369.295415 313.731361 
L 380.525157 316.778381 
L 390.69025 319.825401 
L 398.928089 322.872421 
L 404.475344 325.919441 
L 406.8 328.966461 
L 405.703812 332.013481 
L 401.367588 335.060501 
L 394.324323 338.107521 
L 385.363382 341.15454 
L 375.387348 344.20156 
L 365.255758 347.24858 
L 355.652739 350.2956 
L 347.007565 353.34262 
L 339.481316 356.38964 
L 333.014218 359.43666 
L 327.412607 362.48368 
L 322.446309 365.5307 
L 317.928464 368.57772 
z
" clip-path="url(#pf1a26da75c)" style="fill: #1f77b4; fill-opacity: 0.3"/>
   </g>
   <g id="matplotlib.axis_1">
    <g id="xtick_1">
     <g id="line2d_1">
      <defs>
       <path id="m98feca904e" d="M 0 0 
L 0 3.5 
" style="stroke: #000000; stroke-width: 0.8"/>
      </defs>
      <g>
       <use xlink:href="#m98feca904e" x="295.2" y="384.48" style="stroke: #000000; stroke-width: 0.8"/>
      </g>
     </g>
     <g id="text_1">
      <!-- 1 -->
      <g transform="translate(292.01875 399.078438) scale(0.1 -0.1)">
       <defs>
        <path id="DejaVuSans-31" d="M 794 531 
L 1825 531 
L 1825 4091 
L 703 3866 
L 703 4441 
L 1819 4666 
L 2450 4666 
L 2450 531 
L 3481 531 
L 3481 0 
L 794 0 
L 794 531 
z
" transform="scale(0.015625)"/>
       </defs>
       <use xlink:href="#DejaVuSans-31"/>
      </g>
     </g>
    </g>
   </g>
   <g id="matplotlib.axis_2">
    <g id="ytick_1">
     <g id="line2d_2">
      <defs>
       <path id="mdba4026b3b" d="M 0 0 
L -3.5 0 
" style="stroke: #000000; stroke-width: 0.8"/>
      </defs>
      <g>
       <use xlink:href="#mdba4026b3b" x="72" y="384.48" style="stroke: #000000; stroke-width: 0.8"/>
      </g>
     </g>
     <g id="text_2">
      <!-- 0 -->
      <g transform="translate(58.6375 388.279219) scale(0.1 -0.1)">
       <defs>
        <path id="DejaVuSans-30" d="M 2034 4250 
Q 1547 4250 1301 3770 
Q 1056 3291 1056 2328 
Q 1056 1369 1301 889 
Q 1547 409 2034 409 
Q 2525 409 2770 889 
Q 3016 1369 3016 2328 
Q 3016 3291 2770 3770 
Q 2525 4250 2034 4250 
z
M 2034 4750 
Q 2819 4750 3233 4129 
Q 3647 3509 3647 2328 
Q 3647 1150 3233 529 
Q 2819 -91 2034 -91 
Q 1250 -91 836 529 
Q 422 1150 422 2328 
Q 422 3509 836 4129 
Q 1250 4750 2034 4750 
z
" transform="scale(0.015625)"/>
       </defs>
       <use xlink:href="#DejaVuSans-30"/>
      </g>
     </g>
    </g>
    <g id="ytick_2">
     <g id="line2d_3">
      <g>
       <use xlink:href="#mdba4026b3b" x="72" y="344.64771" style="stroke: #000000; stroke-width: 0.8"/>
      </g>
     </g>
     <g id="text_3">
      <!-- 25 -->
      <g transform="translate(52.275 348.446928) scale(0.1 -0.1)">
       <defs>
        <path id="DejaVuSans-32" d="M 1228 531 
L 3431 531 
L 3431 0 
L 469 0 
L 469 531 
Q 828 903 1448 1529 
Q 2069 2156 2228 2338 
Q 2531 2678 2651 2914 
Q 2772 3150 2772 3378 
Q 2772 3750 2511 3984 
Q 2250 4219 1831 4219 
Q 1534 4219 1204 4116 
Q 875 4013 500 3803 
L 500 4441 
Q 881 4594 1212 4672 
Q 1544 4750 1819 4750 
Q 2544 4750 2975 4387 
Q 3406 4025 3406 3419 
Q 3406 3131 3298 2873 
Q 3191 2616 2906 2266 
Q 2828 2175 2409 1742 
Q 1991 1309 1228 531 
z
" transform="scale(0.015625)"/>
        <path id="DejaVuSans-35" d="M 691 4666 
L 3169 4666 
L 3169 4134 
L 1269 4134 
L 1269 2991 
Q 1406 3038 1543 3061 
Q 1681 3084 1819 3084 
Q 2600 3084 3056 2656 
Q 3513 2228 3513 1497 
Q 3513 744 3044 326 
Q 2575 -91 1722 -91 
Q 1428 -91 1123 -41 
Q 819 9 494 109 
L 494 744 
Q 775 591 1075 516 
Q 1375 441 1709 441 
Q 2250 441 2565 725 
Q 2881 1009 2881 1497 
Q 2881 1984 2565 2268 
Q 2250 2553 1709 2553 
Q 1456 2553 1204 2497 
Q 953 2441 691 2322 
L 691 4666 
z
" transform="scale(0.015625)"/>
       </defs>
       <use xlink:href="#DejaVuSans-32"/>
       <use xlink:href="#DejaVuSans-35" transform="translate(63.623047 0)"/>
      </g>
     </g>
    </g>
    <g id="ytick_3">
     <g id="line2d_4">
      <g>
       <use xlink:href="#mdba4026b3b" x="72" y="304.815419" style="stroke: #000000; stroke-width: 0.8"/>
      </g>
     </g>
     <g id="text_4">
      <!-- 50 -->
      <g transform="translate(52.275 308.614638) scale(0.1 -0.1)">
       <use xlink:href="#DejaVuSans-35"/>
       <use xlink:href="#DejaVuSans-30" transform="translate(63.623047 0)"/>
      </g>
     </g>
    </g>
    <g id="ytick_4">
     <g id="line2d_5">
      <g>
       <use xlink:href="#mdba4026b3b" x="72" y="264.983129" style="stroke: #000000; stroke-width: 0.8"/>
      </g>
     </g>
     <g id="text_5">
      <!-- 75 -->
      <g transform="translate(52.275 268.782348) scale(0.1 -0.1)">
       <defs>
        <path id="DejaVuSans-37" d="M 525 4666 
L 3525 4666 
L 3525 4397 
L 1831 0 
L 1172 0 
L 2766 4134 
L 525 4134 
L 525 4666 
z
" transform="scale(0.015625)"/>
       </defs>
       <use xlink:href="#DejaVuSans-37"/>
       <use xlink:href="#DejaVuSans-35" transform="translate(63.623047 0)"/>
      </g>
     </g>
    </g>
    <g id="ytick_5">
     <g id="line2d_6">
      <g>
       <use xlink:href="#mdba4026b3b" x="72" y="225.150839" style="stroke: #000000; stroke-width: 0.8"/>
      </g>
     </g>
     <g id="text_6">
      <!-- 100 -->
      <g transform="translate(45.9125 228.950057) scale(0.1 -0.1)">
       <use xlink:href="#DejaVuSans-31"/>
       <use xlink:href="#DejaVuSans-30" transform="translate(63.623047 0)"/>
       <use xlink:href="#DejaVuSans-30" transform="translate(127.246094 0)"/>
      </g>
     </g>
    </g>
    <g id="ytick_6">
     <g id="line2d_7">
      <g>
       <use xlink:href="#mdba4026b3b" x="72" y="185.318548" style="stroke: #000000; stroke-width: 0.8"/>
      </g>
     </g>
     <g id="text_7">
      <!-- 125 -->
      <g transform="translate(45.9125 189.117767) scale(0.1 -0.1)">
       <use xlink:href="#DejaVuSans-31"/>
       <use xlink:href="#DejaVuSans-32" transform="translate(63.623047 0)"/>
       <use xlink:href="#DejaVuSans-35" transform="translate(127.246094 0)"/>
      </g>
     </g>
    </g>
    <g id="ytick_7">
     <g id="line2d_8">
      <g>
       <use xlink:href="#mdba4026b3b" x="72" y="145.486258" style="stroke: #000000; stroke-width: 0.8"/>
      </g>
     </g>
     <g id="text_8">
      <!-- 150 -->
      <g transform="translate(45.9125 149.285477) scale(0.1 -0.1)">
       <use xlink:href="#DejaVuSans-31"/>
       <use xlink:href="#DejaVuSans-35" transform="translate(63.623047 0)"/>
       <use xlink:href="#DejaVuSans-30" transform="translate(127.246094 0)"/>
      </g>
     </g>
    </g>
    <g id="ytick_8">
     <g id="line2d_9">
      <g>
       <use xlink:href="#mdba4026b3b" x="72" y="105.653968" style="stroke: #000000; stroke-width: 0.8"/>
      </g>
     </g>
     <g id="text_9">
      <!-- 175 -->
      <g transform="translate(45.9125 109.453186) scale(0.1 -0.1)">
       <use xlink:href="#DejaVuSans-31"/>
       <use xlink:href="#DejaVuSans-37" transform="translate(63.623047 0)"/>
       <use xlink:href="#DejaVuSans-35" transform="translate(127.246094 0)"/>
      </g>
     </g>
    </g>
    <g id="ytick_9">
     <g id="line2d_10">
      <g>
       <use xlink:href="#mdba4026b3b" x="72" y="65.821677" style="stroke: #000000; stroke-width: 0.8"/>
      </g>
     </g>
     <g id="text_10">
      <!-- 200 -->
      <g transform="translate(45.9125 69.620896) scale(0.1 -0.1)">
       <use xlink:href="#DejaVuSans-32"/>
       <use xlink:href="#DejaVuSans-30" transform="translate(63.623047 0)"/>
       <use xlink:href="#DejaVuSans-30" transform="translate(127.246094 0)"/>
      </g>
     </g>
    </g>
    <g id="text_11">
     <!-- Time (ms) -->
     <g transform="translate(39.832812 243.359219) rotate(-90) scale(0.1 -0.1)">
      <defs>
       <path id="DejaVuSans-54" d="M -19 4666 
L 3928 4666 
L 3928 4134 
L 2272 4134 
L 2272 0 
L 1638 0 
L 1638 4134 
L -19 4134 
L -19 4666 
z
" transform="scale(0.015625)"/>
       <path id="DejaVuSans-69" d="M 603 3500 
L 1178 3500 
L 1178 0 
L 603 0 
L 603 3500 
z
M 603 4863 
L 1178 4863 
L 1178 4134 
L 603 4134 
L 603 4863 
z
" transform="scale(0.015625)"/>
       <path id="DejaVuSans-6d" d="M 3328 2828 
Q 3544 3216 3844 3400 
Q 4144 3584 4550 3584 
Q 5097 3584 5394 3201 
Q 5691 2819 5691 2113 
L 5691 0 
L 5113 0 
L 5113 2094 
Q 5113 2597 4934 2840 
Q 4756 3084 4391 3084 
Q 3944 3084 3684 2787 
Q 3425 2491 3425 1978 
L 3425 0 
L 2847 0 
L 2847 2094 
Q 2847 2600 2669 2842 
Q 2491 3084 2119 3084 
Q 1678 3084 1418 2786 
Q 1159 2488 1159 1978 
L 1159 0 
L 581 0 
L 581 3500 
L 1159 3500 
L 1159 2956 
Q 1356 3278 1631 3431 
Q 1906 3584 2284 3584 
Q 2666 3584 2933 3390 
Q 3200 3197 3328 2828 
z
" transform="scale(0.015625)"/>
       <path id="DejaVuSans-65" d="M 3597 1894 
L 3597 1613 
L 953 1613 
Q 991 1019 1311 708 
Q 1631 397 2203 397 
Q 2534 397 2845 478 
Q 3156 559 3463 722 
L 3463 178 
Q 3153 47 2828 -22 
Q 2503 -91 2169 -91 
Q 1331 -91 842 396 
Q 353 884 353 1716 
Q 353 2575 817 3079 
Q 1281 3584 2069 3584 
Q 2775 3584 3186 3129 
Q 3597 2675 3597 1894 
z
M 3022 2063 
Q 3016 2534 2758 2815 
Q 2500 3097 2075 3097 
Q 1594 3097 1305 2825 
Q 1016 2553 972 2059 
L 3022 2063 
z
" transform="scale(0.015625)"/>
       <path id="DejaVuSans-20" transform="scale(0.015625)"/>
       <path id="DejaVuSans-28" d="M 1984 4856 
Q 1566 4138 1362 3434 
Q 1159 2731 1159 2009 
Q 1159 1288 1364 580 
Q 1569 -128 1984 -844 
L 1484 -844 
Q 1016 -109 783 600 
Q 550 1309 550 2009 
Q 550 2706 781 3412 
Q 1013 4119 1484 4856 
L 1984 4856 
z
" transform="scale(0.015625)"/>
       <path id="DejaVuSans-73" d="M 2834 3397 
L 2834 2853 
Q 2591 2978 2328 3040 
Q 2066 3103 1784 3103 
Q 1356 3103 1142 2972 
Q 928 2841 928 2578 
Q 928 2378 1081 2264 
Q 1234 2150 1697 2047 
L 1894 2003 
Q 2506 1872 2764 1633 
Q 3022 1394 3022 966 
Q 3022 478 2636 193 
Q 2250 -91 1575 -91 
Q 1294 -91 989 -36 
Q 684 19 347 128 
L 347 722 
Q 666 556 975 473 
Q 1284 391 1588 391 
Q 1994 391 2212 530 
Q 2431 669 2431 922 
Q 2431 1156 2273 1281 
Q 2116 1406 1581 1522 
L 1381 1569 
Q 847 1681 609 1914 
Q 372 2147 372 2553 
Q 372 3047 722 3315 
Q 1072 3584 1716 3584 
Q 2034 3584 2315 3537 
Q 2597 3491 2834 3397 
z
" transform="scale(0.015625)"/>
       <path id="DejaVuSans-29" d="M 513 4856 
L 1013 4856 
Q 1481 4119 1714 3412 
Q 1947 2706 1947 2009 
Q 1947 1309 1714 600 
Q 1481 -109 1013 -844 
L 513 -844 
Q 928 -128 1133 580 
Q 1338 1288 1338 2009 
Q 1338 2731 1133 3434 
Q 928 4138 513 4856 
z
" transform="scale(0.015625)"/>
      </defs>
      <use xlink:href="#DejaVuSans-54"/>
      <use xlink:href="#DejaVuSans-69" transform="translate(57.958984 0)"/>
      <use xlink:href="#DejaVuSans-6d" transform="translate(85.742188 0)"/>
      <use xlink:href="#DejaVuSans-65" transform="translate(183.154297 0)"/>
      <use xlink:href="#DejaVuSans-20" transform="translate(244.677734 0)"/>
      <use xlink:href="#DejaVuSans-28" transform="translate(276.464844 0)"/>
      <use xlink:href="#DejaVuSans-6d" transform="translate(315.478516 0)"/>
      <use xlink:href="#DejaVuSans-73" transform="translate(412.890625 0)"/>
      <use xlink:href="#DejaVuSans-29" transform="translate(464.990234 0)"/>
     </g>
    </g>
   </g>
   <g id="LineCollection_1">
    <path d="M 239.4 324.759687 
L 351 324.759687 
" clip-path="url(#pf1a26da75c)" style="fill: none; stroke: #1f77b4; stroke-width: 1.5"/>
   </g>
   <g id="LineCollection_2">
    <path d="M 239.4 66.922749 
L 351 66.922749 
" clip-path="url(#pf1a26da75c)" style="fill: none; stroke: #1f77b4; stroke-width: 1.5"/>
   </g>
   <g id="LineCollection_3">
    <path d="M 239.4 368.57772 
L 351 368.57772 
" clip-path="url(#pf1a26da75c)" style="fill: none; stroke: #1f77b4; stroke-width: 1.5"/>
   </g>
   <g id="LineCollection_4">
    <path d="M 295.2 368.57772 
L 295.2 66.922749 
" clip-path="url(#pf1a26da75c)" style="fill: none; stroke: #1f77b4; stroke-width: 1.5"/>
   </g>
   <g id="patch_3">
    <path d="M 250.56 338.933174 
L 339.84 338.933174 
L 339.84 320.770977 
L 250.56 320.770977 
L 250.56 338.933174 
z
" clip-path="url(#pf1a26da75c)" style="fill: #1f77b4; stroke: #000000; stroke-linejoin: miter"/>
   </g>
   <g id="line2d_11">
    <path d="M 295.2 338.933174 
L 295.2 366.142238 
" clip-path="url(#pf1a26da75c)" style="fill: none; stroke: #000000; stroke-linecap: square"/>
   </g>
   <g id="line2d_12">
    <path d="M 295.2 320.770977 
L 295.2 294.346772 
" clip-path="url(#pf1a26da75c)" style="fill: none; stroke: #000000; stroke-linecap: square"/>
   </g>
   <g id="line2d_13">
    <path d="M 272.88 366.142238 
L 317.52 366.142238 
" clip-path="url(#pf1a26da75c)" style="fill: none; stroke: #000000; stroke-linecap: square"/>
   </g>
   <g id="line2d_14">
    <path d="M 272.88 294.346772 
L 317.52 294.346772 
" clip-path="url(#pf1a26da75c)" style="fill: none; stroke: #000000; stroke-linecap: square"/>
   </g>
   <g id="line2d_15">
    <defs>
     <path id="m5bc7823756" d="M 0 3 
C 0.795609 3 1.55874 2.683901 2.12132 2.12132 
C 2.683901 1.55874 3 0.795609 3 0 
C 3 -0.795609 2.683901 -1.55874 2.12132 -2.12132 
C 1.55874 -2.683901 0.795609 -3 0 -3 
C -0.795609 -3 -1.55874 -2.683901 -2.12132 -2.12132 
C -2.683901 -1.55874 -3 -0.795609 -3 0 
C -3 0.795609 -2.683901 1.55874 -2.12132 2.12132 
C -1.55874 2.683901 -0.795609 3 0 3 
z
" style="stroke: #000000"/>
    </defs>
    <g clip-path="url(#pf1a26da75c)">
     <use xlink:href="#m5bc7823756" x="295.2" y="367.244103" style="fill-opacity: 0; stroke: #000000"/>
     <use xlink:href="#m5bc7823756" x="295.2" y="367.492666" style="fill-opacity: 0; stroke: #000000"/>
     <use xlink:href="#m5bc7823756" x="295.2" y="367.067402" style="fill-opacity: 0; stroke: #000000"/>
     <use xlink:href="#m5bc7823756" x="295.2" y="367.84814" style="fill-opacity: 0; stroke: #000000"/>
     <use xlink:href="#m5bc7823756" x="295.2" y="366.66733" style="fill-opacity: 0; stroke: #000000"/>
     <use xlink:href="#m5bc7823756" x="295.2" y="368.57772" style="fill-opacity: 0; stroke: #000000"/>
     <use xlink:href="#m5bc7823756" x="295.2" y="367.536803" style="fill-opacity: 0; stroke: #000000"/>
     <use xlink:href="#m5bc7823756" x="295.2" y="144.016176" style="fill-opacity: 0; stroke: #000000"/>
     <use xlink:href="#m5bc7823756" x="295.2" y="136.769411" style="fill-opacity: 0; stroke: #000000"/>
     <use xlink:href="#m5bc7823756" x="295.2" y="139.931736" style="fill-opacity: 0; stroke: #000000"/>
     <use xlink:href="#m5bc7823756" x="295.2" y="276.881378" style="fill-opacity: 0; stroke: #000000"/>
     <use xlink:href="#m5bc7823756" x="295.2" y="120.351651" style="fill-opacity: 0; stroke: #000000"/>
     <use xlink:href="#m5bc7823756" x="295.2" y="117.184872" style="fill-opacity: 0; stroke: #000000"/>
     <use xlink:href="#m5bc7823756" x="295.2" y="275.98153" style="fill-opacity: 0; stroke: #000000"/>
     <use xlink:href="#m5bc7823756" x="295.2" y="66.922749" style="fill-opacity: 0; stroke: #000000"/>
     <use xlink:href="#m5bc7823756" x="295.2" y="279.94154" style="fill-opacity: 0; stroke: #000000"/>
     <use xlink:href="#m5bc7823756" x="295.2" y="152.524495" style="fill-opacity: 0; stroke: #000000"/>
     <use xlink:href="#m5bc7823756" x="295.2" y="115.6023" style="fill-opacity: 0; stroke: #000000"/>
     <use xlink:href="#m5bc7823756" x="295.2" y="154.501062" style="fill-opacity: 0; stroke: #000000"/>
     <use xlink:href="#m5bc7823756" x="295.2" y="83.504928" style="fill-opacity: 0; stroke: #000000"/>
    </g>
   </g>
   <g id="line2d_16">
    <path d="M 250.56 330.199196 
L 339.84 330.199196 
" clip-path="url(#pf1a26da75c)" style="fill: none; stroke: #ff7f0e"/>
   </g>
   <g id="patch_4">
    <path d="M 72 384.48 
L 72 51.84 
" style="fill: none; stroke: #000000; stroke-width: 0.8; stroke-linejoin: miter; stroke-linecap: square"/>
   </g>
   <g id="patch_5">
    <path d="M 518.4 384.48 
L 518.4 51.84 
" style="fill: none; stroke: #000000; stroke-width: 0.8; stroke-linejoin: miter; stroke-linecap: square"/>
   </g>
   <g id="patch_6">
    <path d="M 72 384.48 
L 518.4 384.48 
" style="fill: none; stroke: #000000; stroke-width: 0.8; stroke-linejoin: miter; stroke-linecap: square"/>
   </g>
   <g id="patch_7">
    <path d="M 72 51.84 
L 518.4 51.84 
" style="fill: none; stroke: #000000; stroke-width: 0.8; stroke-linejoin: miter; stroke-linecap: square"/>
   </g>
   <g id="text_12">
    <!-- Test Method -->
    <g transform="translate(258.975 45.84) scale(0.12 -0.12)">
     <defs>
      <path id="DejaVuSans-74" d="M 1172 4494 
L 1172 3500 
L 2356 3500 
L 2356 3053 
L 1172 3053 
L 1172 1153 
Q 1172 725 1289 603 
Q 1406 481 1766 481 
L 2356 481 
L 2356 0 
L 1766 0 
Q 1100 0 847 248 
Q 594 497 594 1153 
L 594 3053 
L 172 3053 
L 172 3500 
L 594 3500 
L 594 4494 
L 1172 4494 
z
" transform="scale(0.015625)"/>
      <path id="DejaVuSans-4d" d="M 628 4666 
L 1569 4666 
L 2759 1491 
L 3956 4666 
L 4897 4666 
L 4897 0 
L 4281 0 
L 4281 4097 
L 3078 897 
L 2444 897 
L 1241 4097 
L 1241 0 
L 628 0 
L 628 4666 
z
" transform="scale(0.015625)"/>
      <path id="DejaVuSans-68" d="M 3513 2113 
L 3513 0 
L 2938 0 
L 2938 2094 
Q 2938 2591 2744 2837 
Q 2550 3084 2163 3084 
Q 1697 3084 1428 2787 
Q 1159 2491 1159 1978 
L 1159 0 
L 581 0 
L 581 4863 
L 1159 4863 
L 1159 2956 
Q 1366 3272 1645 3428 
Q 1925 3584 2291 3584 
Q 2894 3584 3203 3211 
Q 3513 2838 3513 2113 
z
" transform="scale(0.015625)"/>
      <path id="DejaVuSans-6f" d="M 1959 3097 
Q 1497 3097 1228 2736 
Q 959 2375 959 1747 
Q 959 1119 1226 758 
Q 1494 397 1959 397 
Q 2419 397 2687 759 
Q 2956 1122 2956 1747 
Q 2956 2369 2687 2733 
Q 2419 3097 1959 3097 
z
M 1959 3584 
Q 2709 3584 3137 3096 
Q 3566 2609 3566 1747 
Q 3566 888 3137 398 
Q 2709 -91 1959 -91 
Q 1206 -91 779 398 
Q 353 888 353 1747 
Q 353 2609 779 3096 
Q 1206 3584 1959 3584 
z
" transform="scale(0.015625)"/>
      <path id="DejaVuSans-64" d="M 2906 2969 
L 2906 4863 
L 3481 4863 
L 3481 0 
L 2906 0 
L 2906 525 
Q 2725 213 2448 61 
Q 2172 -91 1784 -91 
Q 1150 -91 751 415 
Q 353 922 353 1747 
Q 353 2572 751 3078 
Q 1150 3584 1784 3584 
Q 2172 3584 2448 3432 
Q 2725 3281 2906 2969 
z
M 947 1747 
Q 947 1113 1208 752 
Q 1469 391 1925 391 
Q 2381 391 2643 752 
Q 2906 1113 2906 1747 
Q 2906 2381 2643 2742 
Q 2381 3103 1925 3103 
Q 1469 3103 1208 2742 
Q 947 2381 947 1747 
z
" transform="scale(0.015625)"/>
     </defs>
     <use xlink:href="#DejaVuSans-54"/>
     <use xlink:href="#DejaVuSans-65" transform="translate(44.083984 0)"/>
     <use xlink:href="#DejaVuSans-73" transform="translate(105.607422 0)"/>
     <use xlink:href="#DejaVuSans-74" transform="translate(157.707031 0)"/>
     <use xlink:href="#DejaVuSans-20" transform="translate(196.916016 0)"/>
     <use xlink:href="#DejaVuSans-4d" transform="translate(228.703125 0)"/>
     <use xlink:href="#DejaVuSans-65" transform="translate(314.982422 0)"/>
     <use xlink:href="#DejaVuSans-74" transform="translate(376.505859 0)"/>
     <use xlink:href="#DejaVuSans-68" transform="translate(415.714844 0)"/>
     <use xlink:href="#DejaVuSans-6f" transform="translate(479.09375 0)"/>
     <use xlink:href="#DejaVuSans-64" transform="translate(540.275391 0)"/>
    </g>
   </g>
  </g>
 </g>
 <defs>
  <clipPath id="pf1a26da75c">
   <rect x="72" y="51.84" width="446.4" height="332.64"/>
  </clipPath>
 </defs>
</svg>
