<?xml version="1.0" encoding="utf-8" standalone="no"?>
<!DOCTYPE svg PUBLIC "-//W3C//DTD SVG 1.1//EN"
  "http://www.w3.org/Graphics/SVG/1.1/DTD/svg11.dtd">
<svg xmlns:xlink="http://www.w3.org/1999/xlink" width="576pt" height="432pt" viewBox="0 0 576 432" xmlns="http://www.w3.org/2000/svg" version="1.1">
 <metadata>
  <rdf:RDF xmlns:dc="http://purl.org/dc/elements/1.1/" xmlns:cc="http://creativecommons.org/ns#" xmlns:rdf="http://www.w3.org/1999/02/22-rdf-syntax-ns#">
   <cc:Work>
    <dc:type rdf:resource="http://purl.org/dc/dcmitype/StillImage"/>
    <dc:date>2025-09-30T20:43:17.935171</dc:date>
    <dc:format>image/svg+xml</dc:format>
    <dc:creator>
     <cc:Agent>
      <dc:title>Matplotlib v3.10.3, https://matplotlib.org/</dc:title>
     </cc:Agent>
    </dc:creator>
   </cc:Work>
  </rdf:RDF>
 </metadata>
 <defs>
  <style type="text/css">*{stroke-linejoin: round; stroke-linecap: butt}</style>
 </defs>
 <g id="figure_1">
  <g id="patch_1">
   <path d="M 0 432 
L 576 432 
L 576 0 
L 0 0 
z
" style="fill: #ffffff"/>
  </g>
  <g id="axes_1">
   <g id="patch_2">
    <path d="M 72 384.48 
L 518.4 384.48 
L 518.4 51.84 
L 72 51.84 
z
" style="fill: #ffffff"/>
   </g>
   <g id="FillBetweenPolyCollection_1">
    <path d="M 381.79087 369.028796 
L 208.60913 369.028796 
L 197.691047 365.977436 
L 189.426364 362.926077 
L 184.590312 359.874718 
L 183.6 356.823359 
L 186.451846 353.771999 
L 192.737157 350.72064 
L 201.728824 347.669281 
L 212.514861 344.617922 
L 224.145677 341.566562 
L 235.763374 338.515203 
L 246.691044 335.463844 
L 256.473533 332.412485 
L 264.87387 329.361125 
L 271.837999 326.309766 
L 277.443494 323.258407 
L 281.846423 320.207047 
L 285.236182 317.155688 
L 287.803085 314.104329 
L 289.719196 311.05297 
L 291.130147 308.00161 
L 292.154418 304.950251 
L 292.886632 301.898892 
L 293.402124 298.847533 
L 293.761064 295.796173 
L 294.011368 292.744814 
L 294.190375 289.693455 
L 294.325697 286.642096 
L 294.435792 283.590736 
L 294.530749 280.539377 
L 294.613528 277.488018 
L 294.68166 274.436658 
L 294.7292 271.385299 
L 294.748657 268.33394 
L 294.732679 265.282581 
L 294.67536 262.231221 
L 294.573213 259.179862 
L 294.42587 256.128503 
L 294.236617 253.077144 
L 294.012751 250.025784 
L 293.765654 246.974425 
L 293.510393 243.923066 
L 293.264645 240.871707 
L 293.04687 237.820347 
L 292.873829 234.768988 
L 292.757808 231.717629 
L 292.704078 228.666269 
L 292.709238 225.61491 
L 292.760976 222.563551 
L 292.839559 219.512192 
L 292.920968 216.460832 
L 292.981192 213.409473 
L 293.00087 210.358114 
L 292.96929 207.306755 
L 292.886819 204.255395 
L 292.765142 201.204036 
L 292.625164 198.152677 
L 292.492989 195.101318 
L 292.39485 192.049958 
L 292.352168 188.998599 
L 292.377827 185.94724 
L 292.474476 182.89588 
L 292.63506 179.844521 
L 292.845235 176.793162 
L 293.086855 173.741803 
L 293.341537 170.690443 
L 293.593437 167.639084 
L 293.830732 164.587725 
L 294.04575 161.536366 
L 294.234062 158.485006 
L 294.393073 155.433647 
L 294.520646 152.382288 
L 294.614146 149.330929 
L 294.670062 146.279569 
L 294.684207 143.22821 
L 294.652365 140.176851 
L 294.571253 137.125491 
L 294.439653 134.074132 
L 294.259611 131.022773 
L 294.037513 127.971414 
L 293.784818 124.920054 
L 293.518118 121.868695 
L 293.258251 118.817336 
L 293.028346 115.765977 
L 292.850929 112.714617 
L 292.744574 109.663258 
L 292.720806 106.611899 
L 292.781995 103.56054 
L 292.920833 100.50918 
L 293.121555 97.457821 
L 293.362663 94.406462 
L 293.620514 91.355102 
L 293.873004 88.303743 
L 294.102577 85.252384 
L 294.298068 82.201025 
L 294.455169 79.149665 
L 294.575637 76.098306 
L 294.665593 73.046947 
L 294.733391 69.995588 
L 294.787543 66.944228 
L 295.612457 66.944228 
L 295.612457 66.944228 
L 295.666609 69.995588 
L 295.734407 73.046947 
L 295.824363 76.098306 
L 295.944831 79.149665 
L 296.101932 82.201025 
L 296.297423 85.252384 
L 296.526996 88.303743 
L 296.779486 91.355102 
L 297.037337 94.406462 
L 297.278445 97.457821 
L 297.479167 100.50918 
L 297.618005 103.56054 
L 297.679194 106.611899 
L 297.655426 109.663258 
L 297.549071 112.714617 
L 297.371654 115.765977 
L 297.141749 118.817336 
L 296.881882 121.868695 
L 296.615182 124.920054 
L 296.362487 127.971414 
L 296.140389 131.022773 
L 295.960347 134.074132 
L 295.828747 137.125491 
L 295.747635 140.176851 
L 295.715793 143.22821 
L 295.729938 146.279569 
L 295.785854 149.330929 
L 295.879354 152.382288 
L 296.006927 155.433647 
L 296.165938 158.485006 
L 296.35425 161.536366 
L 296.569268 164.587725 
L 296.806563 167.639084 
L 297.058463 170.690443 
L 297.313145 173.741803 
L 297.554765 176.793162 
L 297.76494 179.844521 
L 297.925524 182.89588 
L 298.022173 185.94724 
L 298.047832 188.998599 
L 298.00515 192.049958 
L 297.907011 195.101318 
L 297.774836 198.152677 
L 297.634858 201.204036 
L 297.513181 204.255395 
L 297.43071 207.306755 
L 297.39913 210.358114 
L 297.418808 213.409473 
L 297.479032 216.460832 
L 297.560441 219.512192 
L 297.639024 222.563551 
L 297.690762 225.61491 
L 297.695922 228.666269 
L 297.642192 231.717629 
L 297.526171 234.768988 
L 297.35313 237.820347 
L 297.135355 240.871707 
L 296.889607 243.923066 
L 296.634346 246.974425 
L 296.387249 250.025784 
L 296.163383 253.077144 
L 295.97413 256.128503 
L 295.826787 259.179862 
L 295.72464 262.231221 
L 295.667321 265.282581 
L 295.651343 268.33394 
L 295.6708 271.385299 
L 295.71834 274.436658 
L 295.786472 277.488018 
L 295.869251 280.539377 
L 295.964208 283.590736 
L 296.074303 286.642096 
L 296.209625 289.693455 
L 296.388632 292.744814 
L 296.638936 295.796173 
L 296.997876 298.847533 
L 297.513368 301.898892 
L 298.245582 304.950251 
L 299.269853 308.00161 
L 300.680804 311.05297 
L 302.596915 314.104329 
L 305.163818 317.155688 
L 308.553577 320.207047 
L 312.956506 323.258407 
L 318.562001 326.309766 
L 325.52613 329.361125 
L 333.926467 332.412485 
L 343.708956 335.463844 
L 354.636626 338.515203 
L 366.254323 341.566562 
L 377.885139 344.617922 
L 388.671176 347.669281 
L 397.662843 350.72064 
L 403.948154 353.771999 
L 406.8 356.823359 
L 405.809688 359.874718 
L 400.973636 362.926077 
L 392.708953 365.977436 
L 381.79087 369.028796 
z
" clip-path="url(#pd873c147ee)" style="fill: #1f77b4; fill-opacity: 0.3"/>
   </g>
   <g id="matplotlib.axis_1">
    <g id="xtick_1">
     <g id="line2d_1">
      <defs>
       <path id="m561d18be3c" d="M 0 0 
L 0 3.5 
" style="stroke: #000000; stroke-width: 0.8"/>
      </defs>
      <g>
       <use xlink:href="#m561d18be3c" x="295.2" y="384.48" style="stroke: #000000; stroke-width: 0.8"/>
      </g>
     </g>
     <g id="text_1">
      <!-- 1 -->
      <g transform="translate(292.01875 399.078438) scale(0.1 -0.1)">
       <defs>
        <path id="DejaVuSans-31" d="M 794 531 
L 1825 531 
L 1825 4091 
L 703 3866 
L 703 4441 
L 1819 4666 
L 2450 4666 
L 2450 531 
L 3481 531 
L 3481 0 
L 794 0 
L 794 531 
z
" transform="scale(0.015625)"/>
       </defs>
       <use xlink:href="#DejaVuSans-31"/>
      </g>
     </g>
    </g>
   </g>
   <g id="matplotlib.axis_2">
    <g id="ytick_1">
     <g id="line2d_2">
      <defs>
       <path id="mccbc8ef2d1" d="M 0 0 
L -3.5 0 
" style="stroke: #000000; stroke-width: 0.8"/>
      </defs>
      <g>
       <use xlink:href="#mccbc8ef2d1" x="72" y="384.48" style="stroke: #000000; stroke-width: 0.8"/>
      </g>
     </g>
     <g id="text_2">
      <!-- 0.0 -->
      <g transform="translate(49.096875 388.279219) scale(0.1 -0.1)">
       <defs>
        <path id="DejaVuSans-30" d="M 2034 4250 
Q 1547 4250 1301 3770 
Q 1056 3291 1056 2328 
Q 1056 1369 1301 889 
Q 1547 409 2034 409 
Q 2525 409 2770 889 
Q 3016 1369 3016 2328 
Q 3016 3291 2770 3770 
Q 2525 4250 2034 4250 
z
M 2034 4750 
Q 2819 4750 3233 4129 
Q 3647 3509 3647 2328 
Q 3647 1150 3233 529 
Q 2819 -91 2034 -91 
Q 1250 -91 836 529 
Q 422 1150 422 2328 
Q 422 3509 836 4129 
Q 1250 4750 2034 4750 
z
" transform="scale(0.015625)"/>
        <path id="DejaVuSans-2e" d="M 684 794 
L 1344 794 
L 1344 0 
L 684 0 
L 684 794 
z
" transform="scale(0.015625)"/>
       </defs>
       <use xlink:href="#DejaVuSans-30"/>
       <use xlink:href="#DejaVuSans-2e" transform="translate(63.623047 0)"/>
       <use xlink:href="#DejaVuSans-30" transform="translate(95.410156 0)"/>
      </g>
     </g>
    </g>
    <g id="ytick_2">
     <g id="line2d_3">
      <g>
       <use xlink:href="#mccbc8ef2d1" x="72" y="346.830133" style="stroke: #000000; stroke-width: 0.8"/>
      </g>
     </g>
     <g id="text_3">
      <!-- 2.5 -->
      <g transform="translate(49.096875 350.629352) scale(0.1 -0.1)">
       <defs>
        <path id="DejaVuSans-32" d="M 1228 531 
L 3431 531 
L 3431 0 
L 469 0 
L 469 531 
Q 828 903 1448 1529 
Q 2069 2156 2228 2338 
Q 2531 2678 2651 2914 
Q 2772 3150 2772 3378 
Q 2772 3750 2511 3984 
Q 2250 4219 1831 4219 
Q 1534 4219 1204 4116 
Q 875 4013 500 3803 
L 500 4441 
Q 881 4594 1212 4672 
Q 1544 4750 1819 4750 
Q 2544 4750 2975 4387 
Q 3406 4025 3406 3419 
Q 3406 3131 3298 2873 
Q 3191 2616 2906 2266 
Q 2828 2175 2409 1742 
Q 1991 1309 1228 531 
z
" transform="scale(0.015625)"/>
        <path id="DejaVuSans-35" d="M 691 4666 
L 3169 4666 
L 3169 4134 
L 1269 4134 
L 1269 2991 
Q 1406 3038 1543 3061 
Q 1681 3084 1819 3084 
Q 2600 3084 3056 2656 
Q 3513 2228 3513 1497 
Q 3513 744 3044 326 
Q 2575 -91 1722 -91 
Q 1428 -91 1123 -41 
Q 819 9 494 109 
L 494 744 
Q 775 591 1075 516 
Q 1375 441 1709 441 
Q 2250 441 2565 725 
Q 2881 1009 2881 1497 
Q 2881 1984 2565 2268 
Q 2250 2553 1709 2553 
Q 1456 2553 1204 2497 
Q 953 2441 691 2322 
L 691 4666 
z
" transform="scale(0.015625)"/>
       </defs>
       <use xlink:href="#DejaVuSans-32"/>
       <use xlink:href="#DejaVuSans-2e" transform="translate(63.623047 0)"/>
       <use xlink:href="#DejaVuSans-35" transform="translate(95.410156 0)"/>
      </g>
     </g>
    </g>
    <g id="ytick_3">
     <g id="line2d_4">
      <g>
       <use xlink:href="#mccbc8ef2d1" x="72" y="309.180266" style="stroke: #000000; stroke-width: 0.8"/>
      </g>
     </g>
     <g id="text_4">
      <!-- 5.0 -->
      <g transform="translate(49.096875 312.979484) scale(0.1 -0.1)">
       <use xlink:href="#DejaVuSans-35"/>
       <use xlink:href="#DejaVuSans-2e" transform="translate(63.623047 0)"/>
       <use xlink:href="#DejaVuSans-30" transform="translate(95.410156 0)"/>
      </g>
     </g>
    </g>
    <g id="ytick_4">
     <g id="line2d_5">
      <g>
       <use xlink:href="#mccbc8ef2d1" x="72" y="271.530399" style="stroke: #000000; stroke-width: 0.8"/>
      </g>
     </g>
     <g id="text_5">
      <!-- 7.5 -->
      <g transform="translate(49.096875 275.329617) scale(0.1 -0.1)">
       <defs>
        <path id="DejaVuSans-37" d="M 525 4666 
L 3525 4666 
L 3525 4397 
L 1831 0 
L 1172 0 
L 2766 4134 
L 525 4134 
L 525 4666 
z
" transform="scale(0.015625)"/>
       </defs>
       <use xlink:href="#DejaVuSans-37"/>
       <use xlink:href="#DejaVuSans-2e" transform="translate(63.623047 0)"/>
       <use xlink:href="#DejaVuSans-35" transform="translate(95.410156 0)"/>
      </g>
     </g>
    </g>
    <g id="ytick_5">
     <g id="line2d_6">
      <g>
       <use xlink:href="#mccbc8ef2d1" x="72" y="233.880531" style="stroke: #000000; stroke-width: 0.8"/>
      </g>
     </g>
     <g id="text_6">
      <!-- 10.0 -->
      <g transform="translate(42.734375 237.67975) scale(0.1 -0.1)">
       <use xlink:href="#DejaVuSans-31"/>
       <use xlink:href="#DejaVuSans-30" transform="translate(63.623047 0)"/>
       <use xlink:href="#DejaVuSans-2e" transform="translate(127.246094 0)"/>
       <use xlink:href="#DejaVuSans-30" transform="translate(159.033203 0)"/>
      </g>
     </g>
    </g>
    <g id="ytick_6">
     <g id="line2d_7">
      <g>
       <use xlink:href="#mccbc8ef2d1" x="72" y="196.230664" style="stroke: #000000; stroke-width: 0.8"/>
      </g>
     </g>
     <g id="text_7">
      <!-- 12.5 -->
      <g transform="translate(42.734375 200.029883) scale(0.1 -0.1)">
       <use xlink:href="#DejaVuSans-31"/>
       <use xlink:href="#DejaVuSans-32" transform="translate(63.623047 0)"/>
       <use xlink:href="#DejaVuSans-2e" transform="translate(127.246094 0)"/>
       <use xlink:href="#DejaVuSans-35" transform="translate(159.033203 0)"/>
      </g>
     </g>
    </g>
    <g id="ytick_7">
     <g id="line2d_8">
      <g>
       <use xlink:href="#mccbc8ef2d1" x="72" y="158.580797" style="stroke: #000000; stroke-width: 0.8"/>
      </g>
     </g>
     <g id="text_8">
      <!-- 15.0 -->
      <g transform="translate(42.734375 162.380016) scale(0.1 -0.1)">
       <use xlink:href="#DejaVuSans-31"/>
       <use xlink:href="#DejaVuSans-35" transform="translate(63.623047 0)"/>
       <use xlink:href="#DejaVuSans-2e" transform="translate(127.246094 0)"/>
       <use xlink:href="#DejaVuSans-30" transform="translate(159.033203 0)"/>
      </g>
     </g>
    </g>
    <g id="ytick_8">
     <g id="line2d_9">
      <g>
       <use xlink:href="#mccbc8ef2d1" x="72" y="120.93093" style="stroke: #000000; stroke-width: 0.8"/>
      </g>
     </g>
     <g id="text_9">
      <!-- 17.5 -->
      <g transform="translate(42.734375 124.730149) scale(0.1 -0.1)">
       <use xlink:href="#DejaVuSans-31"/>
       <use xlink:href="#DejaVuSans-37" transform="translate(63.623047 0)"/>
       <use xlink:href="#DejaVuSans-2e" transform="translate(127.246094 0)"/>
       <use xlink:href="#DejaVuSans-35" transform="translate(159.033203 0)"/>
      </g>
     </g>
    </g>
    <g id="ytick_9">
     <g id="line2d_10">
      <g>
       <use xlink:href="#mccbc8ef2d1" x="72" y="83.281063" style="stroke: #000000; stroke-width: 0.8"/>
      </g>
     </g>
     <g id="text_10">
      <!-- 20.0 -->
      <g transform="translate(42.734375 87.080282) scale(0.1 -0.1)">
       <use xlink:href="#DejaVuSans-32"/>
       <use xlink:href="#DejaVuSans-30" transform="translate(63.623047 0)"/>
       <use xlink:href="#DejaVuSans-2e" transform="translate(127.246094 0)"/>
       <use xlink:href="#DejaVuSans-30" transform="translate(159.033203 0)"/>
      </g>
     </g>
    </g>
    <g id="text_11">
     <!-- Time (ms) -->
     <g transform="translate(36.654687 243.359219) rotate(-90) scale(0.1 -0.1)">
      <defs>
       <path id="DejaVuSans-54" d="M -19 4666 
L 3928 4666 
L 3928 4134 
L 2272 4134 
L 2272 0 
L 1638 0 
L 1638 4134 
L -19 4134 
L -19 4666 
z
" transform="scale(0.015625)"/>
       <path id="DejaVuSans-69" d="M 603 3500 
L 1178 3500 
L 1178 0 
L 603 0 
L 603 3500 
z
M 603 4863 
L 1178 4863 
L 1178 4134 
L 603 4134 
L 603 4863 
z
" transform="scale(0.015625)"/>
       <path id="DejaVuSans-6d" d="M 3328 2828 
Q 3544 3216 3844 3400 
Q 4144 3584 4550 3584 
Q 5097 3584 5394 3201 
Q 5691 2819 5691 2113 
L 5691 0 
L 5113 0 
L 5113 2094 
Q 5113 2597 4934 2840 
Q 4756 3084 4391 3084 
Q 3944 3084 3684 2787 
Q 3425 2491 3425 1978 
L 3425 0 
L 2847 0 
L 2847 2094 
Q 2847 2600 2669 2842 
Q 2491 3084 2119 3084 
Q 1678 3084 1418 2786 
Q 1159 2488 1159 1978 
L 1159 0 
L 581 0 
L 581 3500 
L 1159 3500 
L 1159 2956 
Q 1356 3278 1631 3431 
Q 1906 3584 2284 3584 
Q 2666 3584 2933 3390 
Q 3200 3197 3328 2828 
z
" transform="scale(0.015625)"/>
       <path id="DejaVuSans-65" d="M 3597 1894 
L 3597 1613 
L 953 1613 
Q 991 1019 1311 708 
Q 1631 397 2203 397 
Q 2534 397 2845 478 
Q 3156 559 3463 722 
L 3463 178 
Q 3153 47 2828 -22 
Q 2503 -91 2169 -91 
Q 1331 -91 842 396 
Q 353 884 353 1716 
Q 353 2575 817 3079 
Q 1281 3584 2069 3584 
Q 2775 3584 3186 3129 
Q 3597 2675 3597 1894 
z
M 3022 2063 
Q 3016 2534 2758 2815 
Q 2500 3097 2075 3097 
Q 1594 3097 1305 2825 
Q 1016 2553 972 2059 
L 3022 2063 
z
" transform="scale(0.015625)"/>
       <path id="DejaVuSans-20" transform="scale(0.015625)"/>
       <path id="DejaVuSans-28" d="M 1984 4856 
Q 1566 4138 1362 3434 
Q 1159 2731 1159 2009 
Q 1159 1288 1364 580 
Q 1569 -128 1984 -844 
L 1484 -844 
Q 1016 -109 783 600 
Q 550 1309 550 2009 
Q 550 2706 781 3412 
Q 1013 4119 1484 4856 
L 1984 4856 
z
" transform="scale(0.015625)"/>
       <path id="DejaVuSans-73" d="M 2834 3397 
L 2834 2853 
Q 2591 2978 2328 3040 
Q 2066 3103 1784 3103 
Q 1356 3103 1142 2972 
Q 928 2841 928 2578 
Q 928 2378 1081 2264 
Q 1234 2150 1697 2047 
L 1894 2003 
Q 2506 1872 2764 1633 
Q 3022 1394 3022 966 
Q 3022 478 2636 193 
Q 2250 -91 1575 -91 
Q 1294 -91 989 -36 
Q 684 19 347 128 
L 347 722 
Q 666 556 975 473 
Q 1284 391 1588 391 
Q 1994 391 2212 530 
Q 2431 669 2431 922 
Q 2431 1156 2273 1281 
Q 2116 1406 1581 1522 
L 1381 1569 
Q 847 1681 609 1914 
Q 372 2147 372 2553 
Q 372 3047 722 3315 
Q 1072 3584 1716 3584 
Q 2034 3584 2315 3537 
Q 2597 3491 2834 3397 
z
" transform="scale(0.015625)"/>
       <path id="DejaVuSans-29" d="M 513 4856 
L 1013 4856 
Q 1481 4119 1714 3412 
Q 1947 2706 1947 2009 
Q 1947 1309 1714 600 
Q 1481 -109 1013 -844 
L 513 -844 
Q 928 -128 1133 580 
Q 1338 1288 1338 2009 
Q 1338 2731 1133 3434 
Q 928 4138 513 4856 
z
" transform="scale(0.015625)"/>
      </defs>
      <use xlink:href="#DejaVuSans-54"/>
      <use xlink:href="#DejaVuSans-69" transform="translate(57.958984 0)"/>
      <use xlink:href="#DejaVuSans-6d" transform="translate(85.742188 0)"/>
      <use xlink:href="#DejaVuSans-65" transform="translate(183.154297 0)"/>
      <use xlink:href="#DejaVuSans-20" transform="translate(244.677734 0)"/>
      <use xlink:href="#DejaVuSans-28" transform="translate(276.464844 0)"/>
      <use xlink:href="#DejaVuSans-6d" transform="translate(315.478516 0)"/>
      <use xlink:href="#DejaVuSans-73" transform="translate(412.890625 0)"/>
      <use xlink:href="#DejaVuSans-29" transform="translate(464.990234 0)"/>
     </g>
    </g>
   </g>
   <g id="LineCollection_1">
    <path d="M 239.4 343.169167 
L 351 343.169167 
" clip-path="url(#pd873c147ee)" style="fill: none; stroke: #1f77b4; stroke-width: 1.5"/>
   </g>
   <g id="LineCollection_2">
    <path d="M 239.4 66.944228 
L 351 66.944228 
" clip-path="url(#pd873c147ee)" style="fill: none; stroke: #1f77b4; stroke-width: 1.5"/>
   </g>
   <g id="LineCollection_3">
    <path d="M 239.4 369.028796 
L 351 369.028796 
" clip-path="url(#pd873c147ee)" style="fill: none; stroke: #1f77b4; stroke-width: 1.5"/>
   </g>
   <g id="LineCollection_4">
    <path d="M 295.2 369.028796 
L 295.2 66.944228 
" clip-path="url(#pd873c147ee)" style="fill: none; stroke: #1f77b4; stroke-width: 1.5"/>
   </g>
   <g id="patch_3">
    <path d="M 250.56 362.194453 
L 339.84 362.194453 
L 339.84 348.495891 
L 250.56 348.495891 
L 250.56 362.194453 
z
" clip-path="url(#pd873c147ee)" style="fill: #1f77b4; stroke: #000000; stroke-linejoin: miter"/>
   </g>
   <g id="line2d_11">
    <path d="M 295.2 362.194453 
L 295.2 369.028796 
" clip-path="url(#pd873c147ee)" style="fill: none; stroke: #000000; stroke-linecap: square"/>
   </g>
   <g id="line2d_12">
    <path d="M 295.2 348.495891 
L 295.2 329.573377 
" clip-path="url(#pd873c147ee)" style="fill: none; stroke: #000000; stroke-linecap: square"/>
   </g>
   <g id="line2d_13">
    <path d="M 272.88 369.028796 
L 317.52 369.028796 
" clip-path="url(#pd873c147ee)" style="fill: none; stroke: #000000; stroke-linecap: square"/>
   </g>
   <g id="line2d_14">
    <path d="M 272.88 329.573377 
L 317.52 329.573377 
" clip-path="url(#pd873c147ee)" style="fill: none; stroke: #000000; stroke-linecap: square"/>
   </g>
   <g id="line2d_15">
    <defs>
     <path id="mbb5d110649" d="M 0 3 
C 0.795609 3 1.55874 2.683901 2.12132 2.12132 
C 2.683901 1.55874 3 0.795609 3 0 
C 3 -0.795609 2.683901 -1.55874 2.12132 -2.12132 
C 1.55874 -2.683901 0.795609 -3 0 -3 
C -0.795609 -3 -1.55874 -2.683901 -2.12132 -2.12132 
C -2.683901 -1.55874 -3 -0.795609 -3 0 
C -3 0.795609 -2.683901 1.55874 -2.12132 2.12132 
C -1.55874 2.683901 -0.795609 3 0 3 
z
" style="stroke: #000000"/>
    </defs>
    <g clip-path="url(#pd873c147ee)">
     <use xlink:href="#mbb5d110649" x="295.2" y="111.465633" style="fill-opacity: 0; stroke: #000000"/>
     <use xlink:href="#mbb5d110649" x="295.2" y="235.243095" style="fill-opacity: 0; stroke: #000000"/>
     <use xlink:href="#mbb5d110649" x="295.2" y="318.856492" style="fill-opacity: 0; stroke: #000000"/>
     <use xlink:href="#mbb5d110649" x="295.2" y="180.802682" style="fill-opacity: 0; stroke: #000000"/>
     <use xlink:href="#mbb5d110649" x="295.2" y="66.944228" style="fill-opacity: 0; stroke: #000000"/>
     <use xlink:href="#mbb5d110649" x="295.2" y="227.704191" style="fill-opacity: 0; stroke: #000000"/>
     <use xlink:href="#mbb5d110649" x="295.2" y="324.870998" style="fill-opacity: 0; stroke: #000000"/>
     <use xlink:href="#mbb5d110649" x="295.2" y="191.571403" style="fill-opacity: 0; stroke: #000000"/>
     <use xlink:href="#mbb5d110649" x="295.2" y="99.662701" style="fill-opacity: 0; stroke: #000000"/>
     <use xlink:href="#mbb5d110649" x="295.2" y="217.294696" style="fill-opacity: 0; stroke: #000000"/>
     <use xlink:href="#mbb5d110649" x="295.2" y="312.827454" style="fill-opacity: 0; stroke: #000000"/>
     <use xlink:href="#mbb5d110649" x="295.2" y="158.65938" style="fill-opacity: 0; stroke: #000000"/>
     <use xlink:href="#mbb5d110649" x="295.2" y="105.133347" style="fill-opacity: 0; stroke: #000000"/>
     <use xlink:href="#mbb5d110649" x="295.2" y="223.195153" style="fill-opacity: 0; stroke: #000000"/>
     <use xlink:href="#mbb5d110649" x="295.2" y="324.449019" style="fill-opacity: 0; stroke: #000000"/>
     <use xlink:href="#mbb5d110649" x="295.2" y="181.309811" style="fill-opacity: 0; stroke: #000000"/>
     <use xlink:href="#mbb5d110649" x="295.2" y="109.653229" style="fill-opacity: 0; stroke: #000000"/>
     <use xlink:href="#mbb5d110649" x="295.2" y="230.365344" style="fill-opacity: 0; stroke: #000000"/>
     <use xlink:href="#mbb5d110649" x="295.2" y="325.121611" style="fill-opacity: 0; stroke: #000000"/>
     <use xlink:href="#mbb5d110649" x="295.2" y="327.180788" style="fill-opacity: 0; stroke: #000000"/>
     <use xlink:href="#mbb5d110649" x="295.2" y="310.930759" style="fill-opacity: 0; stroke: #000000"/>
     <use xlink:href="#mbb5d110649" x="295.2" y="184.63693" style="fill-opacity: 0; stroke: #000000"/>
     <use xlink:href="#mbb5d110649" x="295.2" y="108.326477" style="fill-opacity: 0; stroke: #000000"/>
     <use xlink:href="#mbb5d110649" x="295.2" y="236.46643" style="fill-opacity: 0; stroke: #000000"/>
     <use xlink:href="#mbb5d110649" x="295.2" y="326.990084" style="fill-opacity: 0; stroke: #000000"/>
     <use xlink:href="#mbb5d110649" x="295.2" y="189.431008" style="fill-opacity: 0; stroke: #000000"/>
     <use xlink:href="#mbb5d110649" x="295.2" y="107.070975" style="fill-opacity: 0; stroke: #000000"/>
     <use xlink:href="#mbb5d110649" x="295.2" y="197.246503" style="fill-opacity: 0; stroke: #000000"/>
     <use xlink:href="#mbb5d110649" x="295.2" y="326.50818" style="fill-opacity: 0; stroke: #000000"/>
     <use xlink:href="#mbb5d110649" x="295.2" y="168.301842" style="fill-opacity: 0; stroke: #000000"/>
     <use xlink:href="#mbb5d110649" x="295.2" y="94.919872" style="fill-opacity: 0; stroke: #000000"/>
     <use xlink:href="#mbb5d110649" x="295.2" y="222.638643" style="fill-opacity: 0; stroke: #000000"/>
     <use xlink:href="#mbb5d110649" x="295.2" y="325.689446" style="fill-opacity: 0; stroke: #000000"/>
     <use xlink:href="#mbb5d110649" x="295.2" y="187.64163" style="fill-opacity: 0; stroke: #000000"/>
     <use xlink:href="#mbb5d110649" x="295.2" y="109.630428" style="fill-opacity: 0; stroke: #000000"/>
     <use xlink:href="#mbb5d110649" x="295.2" y="231.249348" style="fill-opacity: 0; stroke: #000000"/>
     <use xlink:href="#mbb5d110649" x="295.2" y="326.992237" style="fill-opacity: 0; stroke: #000000"/>
     <use xlink:href="#mbb5d110649" x="295.2" y="189.355844" style="fill-opacity: 0; stroke: #000000"/>
     <use xlink:href="#mbb5d110649" x="295.2" y="289.272673" style="fill-opacity: 0; stroke: #000000"/>
     <use xlink:href="#mbb5d110649" x="295.2" y="123.734279" style="fill-opacity: 0; stroke: #000000"/>
     <use xlink:href="#mbb5d110649" x="295.2" y="246.716501" style="fill-opacity: 0; stroke: #000000"/>
     <use xlink:href="#mbb5d110649" x="295.2" y="195.776486" style="fill-opacity: 0; stroke: #000000"/>
     <use xlink:href="#mbb5d110649" x="295.2" y="285.634867" style="fill-opacity: 0; stroke: #000000"/>
    </g>
   </g>
   <g id="line2d_16">
    <path d="M 250.56 357.340402 
L 339.84 357.340402 
" clip-path="url(#pd873c147ee)" style="fill: none; stroke: #ff7f0e"/>
   </g>
   <g id="patch_4">
    <path d="M 72 384.48 
L 72 51.84 
" style="fill: none; stroke: #000000; stroke-width: 0.8; stroke-linejoin: miter; stroke-linecap: square"/>
   </g>
   <g id="patch_5">
    <path d="M 518.4 384.48 
L 518.4 51.84 
" style="fill: none; stroke: #000000; stroke-width: 0.8; stroke-linejoin: miter; stroke-linecap: square"/>
   </g>
   <g id="patch_6">
    <path d="M 72 384.48 
L 518.4 384.48 
" style="fill: none; stroke: #000000; stroke-width: 0.8; stroke-linejoin: miter; stroke-linecap: square"/>
   </g>
   <g id="patch_7">
    <path d="M 72 51.84 
L 518.4 51.84 
" style="fill: none; stroke: #000000; stroke-width: 0.8; stroke-linejoin: miter; stroke-linecap: square"/>
   </g>
   <g id="text_12">
    <!-- Handle Result -->
    <g transform="translate(253.595625 45.84) scale(0.12 -0.12)">
     <defs>
      <path id="DejaVuSans-48" d="M 628 4666 
L 1259 4666 
L 1259 2753 
L 3553 2753 
L 3553 4666 
L 4184 4666 
L 4184 0 
L 3553 0 
L 3553 2222 
L 1259 2222 
L 1259 0 
L 628 0 
L 628 4666 
z
" transform="scale(0.015625)"/>
      <path id="DejaVuSans-61" d="M 2194 1759 
Q 1497 1759 1228 1600 
Q 959 1441 959 1056 
Q 959 750 1161 570 
Q 1363 391 1709 391 
Q 2188 391 2477 730 
Q 2766 1069 2766 1631 
L 2766 1759 
L 2194 1759 
z
M 3341 1997 
L 3341 0 
L 2766 0 
L 2766 531 
Q 2569 213 2275 61 
Q 1981 -91 1556 -91 
Q 1019 -91 701 211 
Q 384 513 384 1019 
Q 384 1609 779 1909 
Q 1175 2209 1959 2209 
L 2766 2209 
L 2766 2266 
Q 2766 2663 2505 2880 
Q 2244 3097 1772 3097 
Q 1472 3097 1187 3025 
Q 903 2953 641 2809 
L 641 3341 
Q 956 3463 1253 3523 
Q 1550 3584 1831 3584 
Q 2591 3584 2966 3190 
Q 3341 2797 3341 1997 
z
" transform="scale(0.015625)"/>
      <path id="DejaVuSans-6e" d="M 3513 2113 
L 3513 0 
L 2938 0 
L 2938 2094 
Q 2938 2591 2744 2837 
Q 2550 3084 2163 3084 
Q 1697 3084 1428 2787 
Q 1159 2491 1159 1978 
L 1159 0 
L 581 0 
L 581 3500 
L 1159 3500 
L 1159 2956 
Q 1366 3272 1645 3428 
Q 1925 3584 2291 3584 
Q 2894 3584 3203 3211 
Q 3513 2838 3513 2113 
z
" transform="scale(0.015625)"/>
      <path id="DejaVuSans-64" d="M 2906 2969 
L 2906 4863 
L 3481 4863 
L 3481 0 
L 2906 0 
L 2906 525 
Q 2725 213 2448 61 
Q 2172 -91 1784 -91 
Q 1150 -91 751 415 
Q 353 922 353 1747 
Q 353 2572 751 3078 
Q 1150 3584 1784 3584 
Q 2172 3584 2448 3432 
Q 2725 3281 2906 2969 
z
M 947 1747 
Q 947 1113 1208 752 
Q 1469 391 1925 391 
Q 2381 391 2643 752 
Q 2906 1113 2906 1747 
Q 2906 2381 2643 2742 
Q 2381 3103 1925 3103 
Q 1469 3103 1208 2742 
Q 947 2381 947 1747 
z
" transform="scale(0.015625)"/>
      <path id="DejaVuSans-6c" d="M 603 4863 
L 1178 4863 
L 1178 0 
L 603 0 
L 603 4863 
z
" transform="scale(0.015625)"/>
      <path id="DejaVuSans-52" d="M 2841 2188 
Q 3044 2119 3236 1894 
Q 3428 1669 3622 1275 
L 4263 0 
L 3584 0 
L 2988 1197 
Q 2756 1666 2539 1819 
Q 2322 1972 1947 1972 
L 1259 1972 
L 1259 0 
L 628 0 
L 628 4666 
L 2053 4666 
Q 2853 4666 3247 4331 
Q 3641 3997 3641 3322 
Q 3641 2881 3436 2590 
Q 3231 2300 2841 2188 
z
M 1259 4147 
L 1259 2491 
L 2053 2491 
Q 2509 2491 2742 2702 
Q 2975 2913 2975 3322 
Q 2975 3731 2742 3939 
Q 2509 4147 2053 4147 
L 1259 4147 
z
" transform="scale(0.015625)"/>
      <path id="DejaVuSans-75" d="M 544 1381 
L 544 3500 
L 1119 3500 
L 1119 1403 
Q 1119 906 1312 657 
Q 1506 409 1894 409 
Q 2359 409 2629 706 
Q 2900 1003 2900 1516 
L 2900 3500 
L 3475 3500 
L 3475 0 
L 2900 0 
L 2900 538 
Q 2691 219 2414 64 
Q 2138 -91 1772 -91 
Q 1169 -91 856 284 
Q 544 659 544 1381 
z
M 1991 3584 
L 1991 3584 
z
" transform="scale(0.015625)"/>
      <path id="DejaVuSans-74" d="M 1172 4494 
L 1172 3500 
L 2356 3500 
L 2356 3053 
L 1172 3053 
L 1172 1153 
Q 1172 725 1289 603 
Q 1406 481 1766 481 
L 2356 481 
L 2356 0 
L 1766 0 
Q 1100 0 847 248 
Q 594 497 594 1153 
L 594 3053 
L 172 3053 
L 172 3500 
L 594 3500 
L 594 4494 
L 1172 4494 
z
" transform="scale(0.015625)"/>
     </defs>
     <use xlink:href="#DejaVuSans-48"/>
     <use xlink:href="#DejaVuSans-61" transform="translate(75.195312 0)"/>
     <use xlink:href="#DejaVuSans-6e" transform="translate(136.474609 0)"/>
     <use xlink:href="#DejaVuSans-64" transform="translate(199.853516 0)"/>
     <use xlink:href="#DejaVuSans-6c" transform="translate(263.330078 0)"/>
     <use xlink:href="#DejaVuSans-65" transform="translate(291.113281 0)"/>
     <use xlink:href="#DejaVuSans-20" transform="translate(352.636719 0)"/>
     <use xlink:href="#DejaVuSans-52" transform="translate(384.423828 0)"/>
     <use xlink:href="#DejaVuSans-65" transform="translate(449.40625 0)"/>
     <use xlink:href="#DejaVuSans-73" transform="translate(510.929688 0)"/>
     <use xlink:href="#DejaVuSans-75" transform="translate(563.029297 0)"/>
     <use xlink:href="#DejaVuSans-6c" transform="translate(626.408203 0)"/>
     <use xlink:href="#DejaVuSans-74" transform="translate(654.191406 0)"/>
    </g>
   </g>
  </g>
 </g>
 <defs>
  <clipPath id="pd873c147ee">
   <rect x="72" y="51.84" width="446.4" height="332.64"/>
  </clipPath>
 </defs>
</svg>
