<?xml version="1.0" encoding="utf-8" standalone="no"?>
<!DOCTYPE svg PUBLIC "-//W3C//DTD SVG 1.1//EN"
  "http://www.w3.org/Graphics/SVG/1.1/DTD/svg11.dtd">
<svg xmlns:xlink="http://www.w3.org/1999/xlink" width="720pt" height="432pt" viewBox="0 0 720 432" xmlns="http://www.w3.org/2000/svg" version="1.1">
 <metadata>
  <rdf:RDF xmlns:dc="http://purl.org/dc/elements/1.1/" xmlns:cc="http://creativecommons.org/ns#" xmlns:rdf="http://www.w3.org/1999/02/22-rdf-syntax-ns#">
   <cc:Work>
    <dc:type rdf:resource="http://purl.org/dc/dcmitype/StillImage"/>
    <dc:date>2025-06-08T23:57:25.289640</dc:date>
    <dc:format>image/svg+xml</dc:format>
    <dc:creator>
     <cc:Agent>
      <dc:title>Matplotlib v3.10.3, https://matplotlib.org/</dc:title>
     </cc:Agent>
    </dc:creator>
   </cc:Work>
  </rdf:RDF>
 </metadata>
 <defs>
  <style type="text/css">*{stroke-linejoin: round; stroke-linecap: butt}</style>
 </defs>
 <g id="figure_1">
  <g id="patch_1">
   <path d="M 0 432 
L 720 432 
L 720 0 
L 0 0 
z
" style="fill: #ffffff"/>
  </g>
  <g id="axes_1">
   <g id="patch_2">
    <path d="M 90 384.48 
L 648 384.48 
L 648 51.84 
L 90 51.84 
z
" style="fill: #ffffff"/>
   </g>
   <g id="matplotlib.axis_1">
    <g id="xtick_1">
     <g id="line2d_1">
      <defs>
       <path id="mca7d06de7e" d="M 0 0 
L 0 3.5 
" style="stroke: #000000; stroke-width: 0.8"/>
      </defs>
      <g>
       <use xlink:href="#mca7d06de7e" x="115.363636" y="384.48" style="stroke: #000000; stroke-width: 0.8"/>
      </g>
     </g>
     <g id="text_1">
      <!-- 0 -->
      <g transform="translate(112.182386 399.078438) scale(0.1 -0.1)">
       <defs>
        <path id="DejaVuSans-30" d="M 2034 4250 
Q 1547 4250 1301 3770 
Q 1056 3291 1056 2328 
Q 1056 1369 1301 889 
Q 1547 409 2034 409 
Q 2525 409 2770 889 
Q 3016 1369 3016 2328 
Q 3016 3291 2770 3770 
Q 2525 4250 2034 4250 
z
M 2034 4750 
Q 2819 4750 3233 4129 
Q 3647 3509 3647 2328 
Q 3647 1150 3233 529 
Q 2819 -91 2034 -91 
Q 1250 -91 836 529 
Q 422 1150 422 2328 
Q 422 3509 836 4129 
Q 1250 4750 2034 4750 
z
" transform="scale(0.015625)"/>
       </defs>
       <use xlink:href="#DejaVuSans-30"/>
      </g>
     </g>
    </g>
    <g id="xtick_2">
     <g id="line2d_2">
      <g>
       <use xlink:href="#mca7d06de7e" x="208.784028" y="384.48" style="stroke: #000000; stroke-width: 0.8"/>
      </g>
     </g>
     <g id="text_2">
      <!-- 100 -->
      <g transform="translate(199.240278 399.078438) scale(0.1 -0.1)">
       <defs>
        <path id="DejaVuSans-31" d="M 794 531 
L 1825 531 
L 1825 4091 
L 703 3866 
L 703 4441 
L 1819 4666 
L 2450 4666 
L 2450 531 
L 3481 531 
L 3481 0 
L 794 0 
L 794 531 
z
" transform="scale(0.015625)"/>
       </defs>
       <use xlink:href="#DejaVuSans-31"/>
       <use xlink:href="#DejaVuSans-30" transform="translate(63.623047 0)"/>
       <use xlink:href="#DejaVuSans-30" transform="translate(127.246094 0)"/>
      </g>
     </g>
    </g>
    <g id="xtick_3">
     <g id="line2d_3">
      <g>
       <use xlink:href="#mca7d06de7e" x="302.20442" y="384.48" style="stroke: #000000; stroke-width: 0.8"/>
      </g>
     </g>
     <g id="text_3">
      <!-- 200 -->
      <g transform="translate(292.66067 399.078438) scale(0.1 -0.1)">
       <defs>
        <path id="DejaVuSans-32" d="M 1228 531 
L 3431 531 
L 3431 0 
L 469 0 
L 469 531 
Q 828 903 1448 1529 
Q 2069 2156 2228 2338 
Q 2531 2678 2651 2914 
Q 2772 3150 2772 3378 
Q 2772 3750 2511 3984 
Q 2250 4219 1831 4219 
Q 1534 4219 1204 4116 
Q 875 4013 500 3803 
L 500 4441 
Q 881 4594 1212 4672 
Q 1544 4750 1819 4750 
Q 2544 4750 2975 4387 
Q 3406 4025 3406 3419 
Q 3406 3131 3298 2873 
Q 3191 2616 2906 2266 
Q 2828 2175 2409 1742 
Q 1991 1309 1228 531 
z
" transform="scale(0.015625)"/>
       </defs>
       <use xlink:href="#DejaVuSans-32"/>
       <use xlink:href="#DejaVuSans-30" transform="translate(63.623047 0)"/>
       <use xlink:href="#DejaVuSans-30" transform="translate(127.246094 0)"/>
      </g>
     </g>
    </g>
    <g id="xtick_4">
     <g id="line2d_4">
      <g>
       <use xlink:href="#mca7d06de7e" x="395.624812" y="384.48" style="stroke: #000000; stroke-width: 0.8"/>
      </g>
     </g>
     <g id="text_4">
      <!-- 300 -->
      <g transform="translate(386.081062 399.078438) scale(0.1 -0.1)">
       <defs>
        <path id="DejaVuSans-33" d="M 2597 2516 
Q 3050 2419 3304 2112 
Q 3559 1806 3559 1356 
Q 3559 666 3084 287 
Q 2609 -91 1734 -91 
Q 1441 -91 1130 -33 
Q 819 25 488 141 
L 488 750 
Q 750 597 1062 519 
Q 1375 441 1716 441 
Q 2309 441 2620 675 
Q 2931 909 2931 1356 
Q 2931 1769 2642 2001 
Q 2353 2234 1838 2234 
L 1294 2234 
L 1294 2753 
L 1863 2753 
Q 2328 2753 2575 2939 
Q 2822 3125 2822 3475 
Q 2822 3834 2567 4026 
Q 2313 4219 1838 4219 
Q 1578 4219 1281 4162 
Q 984 4106 628 3988 
L 628 4550 
Q 988 4650 1302 4700 
Q 1616 4750 1894 4750 
Q 2613 4750 3031 4423 
Q 3450 4097 3450 3541 
Q 3450 3153 3228 2886 
Q 3006 2619 2597 2516 
z
" transform="scale(0.015625)"/>
       </defs>
       <use xlink:href="#DejaVuSans-33"/>
       <use xlink:href="#DejaVuSans-30" transform="translate(63.623047 0)"/>
       <use xlink:href="#DejaVuSans-30" transform="translate(127.246094 0)"/>
      </g>
     </g>
    </g>
    <g id="xtick_5">
     <g id="line2d_5">
      <g>
       <use xlink:href="#mca7d06de7e" x="489.045203" y="384.48" style="stroke: #000000; stroke-width: 0.8"/>
      </g>
     </g>
     <g id="text_5">
      <!-- 400 -->
      <g transform="translate(479.501453 399.078438) scale(0.1 -0.1)">
       <defs>
        <path id="DejaVuSans-34" d="M 2419 4116 
L 825 1625 
L 2419 1625 
L 2419 4116 
z
M 2253 4666 
L 3047 4666 
L 3047 1625 
L 3713 1625 
L 3713 1100 
L 3047 1100 
L 3047 0 
L 2419 0 
L 2419 1100 
L 313 1100 
L 313 1709 
L 2253 4666 
z
" transform="scale(0.015625)"/>
       </defs>
       <use xlink:href="#DejaVuSans-34"/>
       <use xlink:href="#DejaVuSans-30" transform="translate(63.623047 0)"/>
       <use xlink:href="#DejaVuSans-30" transform="translate(127.246094 0)"/>
      </g>
     </g>
    </g>
    <g id="xtick_6">
     <g id="line2d_6">
      <g>
       <use xlink:href="#mca7d06de7e" x="582.465595" y="384.48" style="stroke: #000000; stroke-width: 0.8"/>
      </g>
     </g>
     <g id="text_6">
      <!-- 500 -->
      <g transform="translate(572.921845 399.078438) scale(0.1 -0.1)">
       <defs>
        <path id="DejaVuSans-35" d="M 691 4666 
L 3169 4666 
L 3169 4134 
L 1269 4134 
L 1269 2991 
Q 1406 3038 1543 3061 
Q 1681 3084 1819 3084 
Q 2600 3084 3056 2656 
Q 3513 2228 3513 1497 
Q 3513 744 3044 326 
Q 2575 -91 1722 -91 
Q 1428 -91 1123 -41 
Q 819 9 494 109 
L 494 744 
Q 775 591 1075 516 
Q 1375 441 1709 441 
Q 2250 441 2565 725 
Q 2881 1009 2881 1497 
Q 2881 1984 2565 2268 
Q 2250 2553 1709 2553 
Q 1456 2553 1204 2497 
Q 953 2441 691 2322 
L 691 4666 
z
" transform="scale(0.015625)"/>
       </defs>
       <use xlink:href="#DejaVuSans-35"/>
       <use xlink:href="#DejaVuSans-30" transform="translate(63.623047 0)"/>
       <use xlink:href="#DejaVuSans-30" transform="translate(127.246094 0)"/>
      </g>
     </g>
    </g>
    <g id="text_7">
     <!-- Index -->
     <g transform="translate(355.233594 412.756563) scale(0.1 -0.1)">
      <defs>
       <path id="DejaVuSans-49" d="M 628 4666 
L 1259 4666 
L 1259 0 
L 628 0 
L 628 4666 
z
" transform="scale(0.015625)"/>
       <path id="DejaVuSans-6e" d="M 3513 2113 
L 3513 0 
L 2938 0 
L 2938 2094 
Q 2938 2591 2744 2837 
Q 2550 3084 2163 3084 
Q 1697 3084 1428 2787 
Q 1159 2491 1159 1978 
L 1159 0 
L 581 0 
L 581 3500 
L 1159 3500 
L 1159 2956 
Q 1366 3272 1645 3428 
Q 1925 3584 2291 3584 
Q 2894 3584 3203 3211 
Q 3513 2838 3513 2113 
z
" transform="scale(0.015625)"/>
       <path id="DejaVuSans-64" d="M 2906 2969 
L 2906 4863 
L 3481 4863 
L 3481 0 
L 2906 0 
L 2906 525 
Q 2725 213 2448 61 
Q 2172 -91 1784 -91 
Q 1150 -91 751 415 
Q 353 922 353 1747 
Q 353 2572 751 3078 
Q 1150 3584 1784 3584 
Q 2172 3584 2448 3432 
Q 2725 3281 2906 2969 
z
M 947 1747 
Q 947 1113 1208 752 
Q 1469 391 1925 391 
Q 2381 391 2643 752 
Q 2906 1113 2906 1747 
Q 2906 2381 2643 2742 
Q 2381 3103 1925 3103 
Q 1469 3103 1208 2742 
Q 947 2381 947 1747 
z
" transform="scale(0.015625)"/>
       <path id="DejaVuSans-65" d="M 3597 1894 
L 3597 1613 
L 953 1613 
Q 991 1019 1311 708 
Q 1631 397 2203 397 
Q 2534 397 2845 478 
Q 3156 559 3463 722 
L 3463 178 
Q 3153 47 2828 -22 
Q 2503 -91 2169 -91 
Q 1331 -91 842 396 
Q 353 884 353 1716 
Q 353 2575 817 3079 
Q 1281 3584 2069 3584 
Q 2775 3584 3186 3129 
Q 3597 2675 3597 1894 
z
M 3022 2063 
Q 3016 2534 2758 2815 
Q 2500 3097 2075 3097 
Q 1594 3097 1305 2825 
Q 1016 2553 972 2059 
L 3022 2063 
z
" transform="scale(0.015625)"/>
       <path id="DejaVuSans-78" d="M 3513 3500 
L 2247 1797 
L 3578 0 
L 2900 0 
L 1881 1375 
L 863 0 
L 184 0 
L 1544 1831 
L 300 3500 
L 978 3500 
L 1906 2253 
L 2834 3500 
L 3513 3500 
z
" transform="scale(0.015625)"/>
      </defs>
      <use xlink:href="#DejaVuSans-49"/>
      <use xlink:href="#DejaVuSans-6e" transform="translate(29.492188 0)"/>
      <use xlink:href="#DejaVuSans-64" transform="translate(92.871094 0)"/>
      <use xlink:href="#DejaVuSans-65" transform="translate(156.347656 0)"/>
      <use xlink:href="#DejaVuSans-78" transform="translate(216.121094 0)"/>
     </g>
    </g>
   </g>
   <g id="matplotlib.axis_2">
    <g id="ytick_1">
     <g id="line2d_7">
      <defs>
       <path id="mcb998e84dd" d="M 0 0 
L -3.5 0 
" style="stroke: #000000; stroke-width: 0.8"/>
      </defs>
      <g>
       <use xlink:href="#mcb998e84dd" x="90" y="384.48" style="stroke: #000000; stroke-width: 0.8"/>
      </g>
     </g>
     <g id="text_8">
      <!-- 0 -->
      <g transform="translate(76.6375 388.279219) scale(0.1 -0.1)">
       <use xlink:href="#DejaVuSans-30"/>
      </g>
     </g>
    </g>
    <g id="ytick_2">
     <g id="line2d_8">
      <g>
       <use xlink:href="#mcb998e84dd" x="90" y="317.490901" style="stroke: #000000; stroke-width: 0.8"/>
      </g>
     </g>
     <g id="text_9">
      <!-- 200 -->
      <g transform="translate(63.9125 321.29012) scale(0.1 -0.1)">
       <use xlink:href="#DejaVuSans-32"/>
       <use xlink:href="#DejaVuSans-30" transform="translate(63.623047 0)"/>
       <use xlink:href="#DejaVuSans-30" transform="translate(127.246094 0)"/>
      </g>
     </g>
    </g>
    <g id="ytick_3">
     <g id="line2d_9">
      <g>
       <use xlink:href="#mcb998e84dd" x="90" y="250.501802" style="stroke: #000000; stroke-width: 0.8"/>
      </g>
     </g>
     <g id="text_10">
      <!-- 400 -->
      <g transform="translate(63.9125 254.30102) scale(0.1 -0.1)">
       <use xlink:href="#DejaVuSans-34"/>
       <use xlink:href="#DejaVuSans-30" transform="translate(63.623047 0)"/>
       <use xlink:href="#DejaVuSans-30" transform="translate(127.246094 0)"/>
      </g>
     </g>
    </g>
    <g id="ytick_4">
     <g id="line2d_10">
      <g>
       <use xlink:href="#mcb998e84dd" x="90" y="183.512702" style="stroke: #000000; stroke-width: 0.8"/>
      </g>
     </g>
     <g id="text_11">
      <!-- 600 -->
      <g transform="translate(63.9125 187.311921) scale(0.1 -0.1)">
       <defs>
        <path id="DejaVuSans-36" d="M 2113 2584 
Q 1688 2584 1439 2293 
Q 1191 2003 1191 1497 
Q 1191 994 1439 701 
Q 1688 409 2113 409 
Q 2538 409 2786 701 
Q 3034 994 3034 1497 
Q 3034 2003 2786 2293 
Q 2538 2584 2113 2584 
z
M 3366 4563 
L 3366 3988 
Q 3128 4100 2886 4159 
Q 2644 4219 2406 4219 
Q 1781 4219 1451 3797 
Q 1122 3375 1075 2522 
Q 1259 2794 1537 2939 
Q 1816 3084 2150 3084 
Q 2853 3084 3261 2657 
Q 3669 2231 3669 1497 
Q 3669 778 3244 343 
Q 2819 -91 2113 -91 
Q 1303 -91 875 529 
Q 447 1150 447 2328 
Q 447 3434 972 4092 
Q 1497 4750 2381 4750 
Q 2619 4750 2861 4703 
Q 3103 4656 3366 4563 
z
" transform="scale(0.015625)"/>
       </defs>
       <use xlink:href="#DejaVuSans-36"/>
       <use xlink:href="#DejaVuSans-30" transform="translate(63.623047 0)"/>
       <use xlink:href="#DejaVuSans-30" transform="translate(127.246094 0)"/>
      </g>
     </g>
    </g>
    <g id="ytick_5">
     <g id="line2d_11">
      <g>
       <use xlink:href="#mcb998e84dd" x="90" y="116.523603" style="stroke: #000000; stroke-width: 0.8"/>
      </g>
     </g>
     <g id="text_12">
      <!-- 800 -->
      <g transform="translate(63.9125 120.322822) scale(0.1 -0.1)">
       <defs>
        <path id="DejaVuSans-38" d="M 2034 2216 
Q 1584 2216 1326 1975 
Q 1069 1734 1069 1313 
Q 1069 891 1326 650 
Q 1584 409 2034 409 
Q 2484 409 2743 651 
Q 3003 894 3003 1313 
Q 3003 1734 2745 1975 
Q 2488 2216 2034 2216 
z
M 1403 2484 
Q 997 2584 770 2862 
Q 544 3141 544 3541 
Q 544 4100 942 4425 
Q 1341 4750 2034 4750 
Q 2731 4750 3128 4425 
Q 3525 4100 3525 3541 
Q 3525 3141 3298 2862 
Q 3072 2584 2669 2484 
Q 3125 2378 3379 2068 
Q 3634 1759 3634 1313 
Q 3634 634 3220 271 
Q 2806 -91 2034 -91 
Q 1263 -91 848 271 
Q 434 634 434 1313 
Q 434 1759 690 2068 
Q 947 2378 1403 2484 
z
M 1172 3481 
Q 1172 3119 1398 2916 
Q 1625 2713 2034 2713 
Q 2441 2713 2670 2916 
Q 2900 3119 2900 3481 
Q 2900 3844 2670 4047 
Q 2441 4250 2034 4250 
Q 1625 4250 1398 4047 
Q 1172 3844 1172 3481 
z
" transform="scale(0.015625)"/>
       </defs>
       <use xlink:href="#DejaVuSans-38"/>
       <use xlink:href="#DejaVuSans-30" transform="translate(63.623047 0)"/>
       <use xlink:href="#DejaVuSans-30" transform="translate(127.246094 0)"/>
      </g>
     </g>
    </g>
    <g id="text_13">
     <!-- Average time (ms) -->
     <g transform="translate(57.832812 264.543594) rotate(-90) scale(0.1 -0.1)">
      <defs>
       <path id="DejaVuSans-41" d="M 2188 4044 
L 1331 1722 
L 3047 1722 
L 2188 4044 
z
M 1831 4666 
L 2547 4666 
L 4325 0 
L 3669 0 
L 3244 1197 
L 1141 1197 
L 716 0 
L 50 0 
L 1831 4666 
z
" transform="scale(0.015625)"/>
       <path id="DejaVuSans-76" d="M 191 3500 
L 800 3500 
L 1894 563 
L 2988 3500 
L 3597 3500 
L 2284 0 
L 1503 0 
L 191 3500 
z
" transform="scale(0.015625)"/>
       <path id="DejaVuSans-72" d="M 2631 2963 
Q 2534 3019 2420 3045 
Q 2306 3072 2169 3072 
Q 1681 3072 1420 2755 
Q 1159 2438 1159 1844 
L 1159 0 
L 581 0 
L 581 3500 
L 1159 3500 
L 1159 2956 
Q 1341 3275 1631 3429 
Q 1922 3584 2338 3584 
Q 2397 3584 2469 3576 
Q 2541 3569 2628 3553 
L 2631 2963 
z
" transform="scale(0.015625)"/>
       <path id="DejaVuSans-61" d="M 2194 1759 
Q 1497 1759 1228 1600 
Q 959 1441 959 1056 
Q 959 750 1161 570 
Q 1363 391 1709 391 
Q 2188 391 2477 730 
Q 2766 1069 2766 1631 
L 2766 1759 
L 2194 1759 
z
M 3341 1997 
L 3341 0 
L 2766 0 
L 2766 531 
Q 2569 213 2275 61 
Q 1981 -91 1556 -91 
Q 1019 -91 701 211 
Q 384 513 384 1019 
Q 384 1609 779 1909 
Q 1175 2209 1959 2209 
L 2766 2209 
L 2766 2266 
Q 2766 2663 2505 2880 
Q 2244 3097 1772 3097 
Q 1472 3097 1187 3025 
Q 903 2953 641 2809 
L 641 3341 
Q 956 3463 1253 3523 
Q 1550 3584 1831 3584 
Q 2591 3584 2966 3190 
Q 3341 2797 3341 1997 
z
" transform="scale(0.015625)"/>
       <path id="DejaVuSans-67" d="M 2906 1791 
Q 2906 2416 2648 2759 
Q 2391 3103 1925 3103 
Q 1463 3103 1205 2759 
Q 947 2416 947 1791 
Q 947 1169 1205 825 
Q 1463 481 1925 481 
Q 2391 481 2648 825 
Q 2906 1169 2906 1791 
z
M 3481 434 
Q 3481 -459 3084 -895 
Q 2688 -1331 1869 -1331 
Q 1566 -1331 1297 -1286 
Q 1028 -1241 775 -1147 
L 775 -588 
Q 1028 -725 1275 -790 
Q 1522 -856 1778 -856 
Q 2344 -856 2625 -561 
Q 2906 -266 2906 331 
L 2906 616 
Q 2728 306 2450 153 
Q 2172 0 1784 0 
Q 1141 0 747 490 
Q 353 981 353 1791 
Q 353 2603 747 3093 
Q 1141 3584 1784 3584 
Q 2172 3584 2450 3431 
Q 2728 3278 2906 2969 
L 2906 3500 
L 3481 3500 
L 3481 434 
z
" transform="scale(0.015625)"/>
       <path id="DejaVuSans-20" transform="scale(0.015625)"/>
       <path id="DejaVuSans-74" d="M 1172 4494 
L 1172 3500 
L 2356 3500 
L 2356 3053 
L 1172 3053 
L 1172 1153 
Q 1172 725 1289 603 
Q 1406 481 1766 481 
L 2356 481 
L 2356 0 
L 1766 0 
Q 1100 0 847 248 
Q 594 497 594 1153 
L 594 3053 
L 172 3053 
L 172 3500 
L 594 3500 
L 594 4494 
L 1172 4494 
z
" transform="scale(0.015625)"/>
       <path id="DejaVuSans-69" d="M 603 3500 
L 1178 3500 
L 1178 0 
L 603 0 
L 603 3500 
z
M 603 4863 
L 1178 4863 
L 1178 4134 
L 603 4134 
L 603 4863 
z
" transform="scale(0.015625)"/>
       <path id="DejaVuSans-6d" d="M 3328 2828 
Q 3544 3216 3844 3400 
Q 4144 3584 4550 3584 
Q 5097 3584 5394 3201 
Q 5691 2819 5691 2113 
L 5691 0 
L 5113 0 
L 5113 2094 
Q 5113 2597 4934 2840 
Q 4756 3084 4391 3084 
Q 3944 3084 3684 2787 
Q 3425 2491 3425 1978 
L 3425 0 
L 2847 0 
L 2847 2094 
Q 2847 2600 2669 2842 
Q 2491 3084 2119 3084 
Q 1678 3084 1418 2786 
Q 1159 2488 1159 1978 
L 1159 0 
L 581 0 
L 581 3500 
L 1159 3500 
L 1159 2956 
Q 1356 3278 1631 3431 
Q 1906 3584 2284 3584 
Q 2666 3584 2933 3390 
Q 3200 3197 3328 2828 
z
" transform="scale(0.015625)"/>
       <path id="DejaVuSans-28" d="M 1984 4856 
Q 1566 4138 1362 3434 
Q 1159 2731 1159 2009 
Q 1159 1288 1364 580 
Q 1569 -128 1984 -844 
L 1484 -844 
Q 1016 -109 783 600 
Q 550 1309 550 2009 
Q 550 2706 781 3412 
Q 1013 4119 1484 4856 
L 1984 4856 
z
" transform="scale(0.015625)"/>
       <path id="DejaVuSans-73" d="M 2834 3397 
L 2834 2853 
Q 2591 2978 2328 3040 
Q 2066 3103 1784 3103 
Q 1356 3103 1142 2972 
Q 928 2841 928 2578 
Q 928 2378 1081 2264 
Q 1234 2150 1697 2047 
L 1894 2003 
Q 2506 1872 2764 1633 
Q 3022 1394 3022 966 
Q 3022 478 2636 193 
Q 2250 -91 1575 -91 
Q 1294 -91 989 -36 
Q 684 19 347 128 
L 347 722 
Q 666 556 975 473 
Q 1284 391 1588 391 
Q 1994 391 2212 530 
Q 2431 669 2431 922 
Q 2431 1156 2273 1281 
Q 2116 1406 1581 1522 
L 1381 1569 
Q 847 1681 609 1914 
Q 372 2147 372 2553 
Q 372 3047 722 3315 
Q 1072 3584 1716 3584 
Q 2034 3584 2315 3537 
Q 2597 3491 2834 3397 
z
" transform="scale(0.015625)"/>
       <path id="DejaVuSans-29" d="M 513 4856 
L 1013 4856 
Q 1481 4119 1714 3412 
Q 1947 2706 1947 2009 
Q 1947 1309 1714 600 
Q 1481 -109 1013 -844 
L 513 -844 
Q 928 -128 1133 580 
Q 1338 1288 1338 2009 
Q 1338 2731 1133 3434 
Q 928 4138 513 4856 
z
" transform="scale(0.015625)"/>
      </defs>
      <use xlink:href="#DejaVuSans-41"/>
      <use xlink:href="#DejaVuSans-76" transform="translate(62.533203 0)"/>
      <use xlink:href="#DejaVuSans-65" transform="translate(121.712891 0)"/>
      <use xlink:href="#DejaVuSans-72" transform="translate(183.236328 0)"/>
      <use xlink:href="#DejaVuSans-61" transform="translate(224.349609 0)"/>
      <use xlink:href="#DejaVuSans-67" transform="translate(285.628906 0)"/>
      <use xlink:href="#DejaVuSans-65" transform="translate(349.105469 0)"/>
      <use xlink:href="#DejaVuSans-20" transform="translate(410.628906 0)"/>
      <use xlink:href="#DejaVuSans-74" transform="translate(442.416016 0)"/>
      <use xlink:href="#DejaVuSans-69" transform="translate(481.625 0)"/>
      <use xlink:href="#DejaVuSans-6d" transform="translate(509.408203 0)"/>
      <use xlink:href="#DejaVuSans-65" transform="translate(606.820312 0)"/>
      <use xlink:href="#DejaVuSans-20" transform="translate(668.34375 0)"/>
      <use xlink:href="#DejaVuSans-28" transform="translate(700.130859 0)"/>
      <use xlink:href="#DejaVuSans-6d" transform="translate(739.144531 0)"/>
      <use xlink:href="#DejaVuSans-73" transform="translate(836.556641 0)"/>
      <use xlink:href="#DejaVuSans-29" transform="translate(888.65625 0)"/>
     </g>
    </g>
   </g>
   <g id="line2d_12">
    <path d="M 115.363636 383.972855 
L 116.29784 382.310081 
L 117.232044 382.125583 
L 118.166248 382.451274 
L 120.96886 382.843132 
L 121.903064 383.099366 
L 122.837268 383.476485 
L 125.639879 383.643009 
L 128.442491 383.789003 
L 129.376695 383.776576 
L 130.310899 383.907101 
L 132.179307 383.835302 
L 133.113511 383.885237 
L 134.047715 383.795706 
L 134.981919 383.92051 
L 135.916123 383.698153 
L 136.850326 383.689305 
L 137.78453 383.010845 
L 138.718734 383.773036 
L 141.521346 383.83265 
L 145.258162 383.95605 
L 146.192366 383.803993 
L 148.060773 383.923269 
L 149.929181 383.794007 
L 150.863385 383.892657 
L 151.797589 382.639171 
L 152.731793 383.949112 
L 153.665997 383.469018 
L 154.600201 383.781882 
L 155.534405 383.816701 
L 156.468609 383.65824 
L 157.402813 383.702973 
L 158.337017 383.986163 
L 159.27122 382.776436 
L 160.205424 383.984199 
L 162.073832 383.749093 
L 163.008036 383.885722 
L 163.94224 383.423067 
L 165.810648 383.881209 
L 166.744852 382.598565 
L 167.679056 383.94611 
L 170.481668 383.888932 
L 171.415871 383.462209 
L 172.350075 383.845786 
L 173.284279 383.900258 
L 174.218483 371.281564 
L 175.152687 383.503208 
L 176.086891 383.917244 
L 177.021095 383.835191 
L 177.955299 382.627476 
L 178.889503 383.5203 
L 179.823707 384.019312 
L 180.757911 383.871617 
L 181.692115 382.850812 
L 183.560522 384.006077 
L 184.494726 383.83466 
L 185.42893 382.584597 
L 186.363134 382.953755 
L 187.297338 384.003351 
L 188.231542 383.77539 
L 189.165746 382.903909 
L 190.09995 383.952974 
L 191.968358 383.902341 
L 192.902562 377.743855 
L 193.836765 383.988439 
L 194.770969 384.017357 
L 195.705173 383.926383 
L 196.639377 382.880212 
L 197.573581 384.017758 
L 198.507785 383.99012 
L 199.441989 383.824024 
L 200.376193 382.873529 
L 201.310397 383.724202 
L 202.244601 383.9958 
L 203.178805 383.980597 
L 204.113009 377.0458 
L 205.047212 383.177657 
L 205.981416 383.913357 
L 206.91562 384.01415 
L 207.849824 383.451947 
L 208.784028 383.403404 
L 209.718232 383.832053 
L 211.58664 383.315826 
L 213.455048 383.880363 
L 214.389252 383.942003 
L 215.323456 383.441923 
L 216.257659 383.556661 
L 217.191863 383.890433 
L 218.126067 383.927761 
L 219.060271 383.496231 
L 219.994475 384.013031 
L 221.862883 383.980794 
L 222.797087 380.354064 
L 223.731291 383.888298 
L 225.599699 383.999828 
L 226.533903 383.227516 
L 227.468106 383.93142 
L 228.40231 383.90921 
L 229.336514 384.029326 
L 230.270718 383.534145 
L 231.204922 383.982065 
L 233.07333 384.007705 
L 234.007534 383.375225 
L 236.810146 384.01912 
L 237.74435 383.508102 
L 238.678553 383.62764 
L 240.546961 384.047224 
L 241.481165 383.526489 
L 242.415369 383.56955 
L 243.349573 383.855302 
L 244.283777 384.009739 
L 245.217981 383.454934 
L 246.152185 383.23016 
L 247.086389 383.771915 
L 248.020593 383.906547 
L 248.954797 383.018751 
L 249.889001 384.010228 
L 251.757408 383.969401 
L 252.691612 382.957983 
L 253.625816 383.991277 
L 255.494224 383.994109 
L 256.428428 382.880002 
L 257.362632 383.954506 
L 259.23104 383.945666 
L 260.165244 382.960043 
L 261.099448 383.852749 
L 262.033651 383.983235 
L 262.967855 383.993759 
L 264.836263 382.866454 
L 265.770467 383.62154 
L 266.704671 383.999734 
L 267.638875 383.478871 
L 268.573079 383.5851 
L 269.507283 383.888997 
L 270.441487 384.031365 
L 271.375691 383.48775 
L 272.309895 383.595698 
L 273.244098 383.920634 
L 274.178302 384.035006 
L 275.112506 383.366205 
L 276.04671 383.54475 
L 276.980914 383.855487 
L 277.915118 383.986612 
L 278.849322 382.671967 
L 279.783526 383.985741 
L 281.651934 383.989974 
L 282.586138 382.442785 
L 283.520342 383.868663 
L 284.454545 383.973458 
L 285.388749 383.956411 
L 286.322953 382.971475 
L 287.257157 384.000161 
L 289.125565 383.980005 
L 290.059769 382.964848 
L 290.993973 383.987652 
L 292.862381 383.906155 
L 293.796585 383.378518 
L 294.730789 383.416856 
L 295.664992 383.853331 
L 296.599196 383.997096 
L 297.5334 383.117427 
L 298.467604 383.54913 
L 299.401808 383.842487 
L 300.336012 384.012074 
L 301.270216 382.853641 
L 302.20442 383.420296 
L 303.138624 383.853454 
L 304.072828 383.990067 
L 305.007032 383.443589 
L 305.941236 383.547474 
L 306.875439 383.872815 
L 307.809643 383.990726 
L 308.743847 382.826836 
L 309.678051 383.989502 
L 311.546459 383.924683 
L 312.480663 382.753482 
L 313.414867 383.95475 
L 314.349071 383.79449 
L 315.283275 383.946254 
L 316.217479 382.809216 
L 317.151683 383.906239 
L 318.085886 383.980418 
L 319.02009 383.666172 
L 319.954294 382.587411 
L 320.888498 383.965597 
L 322.756906 383.963945 
L 323.69111 383.09584 
L 324.625314 383.993377 
L 326.493722 384.020672 
L 327.427926 383.11062 
L 328.36213 384.002031 
L 330.230537 383.950595 
L 331.164741 383.145564 
L 332.098945 384.007523 
L 333.033149 383.927935 
L 333.967353 383.995788 
L 334.901557 383.112746 
L 335.835761 383.987233 
L 336.769965 383.994428 
L 337.704169 383.858739 
L 338.638373 382.918043 
L 339.572577 383.999399 
L 341.440984 383.97643 
L 342.375188 382.965803 
L 343.309392 383.806369 
L 344.243596 383.98179 
L 345.1778 383.954285 
L 346.112004 383.157681 
L 347.046208 383.937096 
L 348.914616 383.914696 
L 349.84882 382.892621 
L 350.783024 383.997881 
L 351.717228 383.995436 
L 352.651431 383.867593 
L 353.585635 383.035031 
L 354.519839 383.77192 
L 356.388247 384.010003 
L 357.322451 383.134055 
L 358.256655 383.982499 
L 360.125063 383.976836 
L 361.059267 382.973134 
L 361.993471 383.943161 
L 363.861878 383.929397 
L 364.796082 382.796071 
L 365.730286 383.95432 
L 366.66449 383.771715 
L 367.598694 383.970023 
L 368.532898 382.83452 
L 369.467102 383.929295 
L 371.33551 383.922022 
L 372.269714 382.843903 
L 373.203918 383.850224 
L 374.138122 383.727408 
L 375.072325 383.957439 
L 376.006529 383.046356 
L 376.940733 383.931473 
L 378.809141 383.922119 
L 379.743345 382.862962 
L 380.677549 383.929554 
L 381.611753 383.896543 
L 382.545957 383.97758 
L 383.480161 359.259153 
L 384.414365 383.770352 
L 385.348569 383.893908 
L 386.282772 383.762935 
L 387.216976 383.297431 
L 388.15118 383.871534 
L 390.019588 383.899164 
L 390.953792 383.343722 
L 391.887996 383.925774 
L 393.756404 383.872416 
L 394.690608 383.14386 
L 395.624812 383.825141 
L 397.493219 383.893437 
L 398.427423 383.085045 
L 399.361627 383.799766 
L 401.230035 383.835993 
L 402.164239 383.18375 
L 403.098443 383.851948 
L 404.032647 383.754837 
L 404.966851 383.870923 
L 405.901055 383.24253 
L 406.835259 383.861216 
L 407.769463 383.867363 
L 408.703666 383.725132 
L 409.63787 383.272485 
L 410.572074 383.695931 
L 411.506278 383.870948 
L 412.440482 383.885716 
L 413.374686 383.232912 
L 414.30889 383.863391 
L 416.177298 383.821399 
L 417.111502 383.273787 
L 418.045706 383.721045 
L 419.914114 383.885021 
L 420.848317 383.230143 
L 421.782521 383.566262 
L 423.650929 383.840131 
L 424.585133 382.808346 
L 425.519337 383.806074 
L 427.387745 383.811326 
L 428.321949 383.167766 
L 429.256153 383.81008 
L 431.124561 383.860673 
L 432.058764 382.944668 
L 432.992968 383.80424 
L 434.861376 383.857636 
L 435.79558 383.182868 
L 436.729784 383.773664 
L 438.598192 383.883337 
L 439.532396 383.166539 
L 440.4666 383.635873 
L 441.400804 383.727248 
L 442.335008 383.687504 
L 443.269211 362.919744 
L 444.203415 383.812845 
L 446.071823 383.826784 
L 447.006027 383.097938 
L 447.940231 383.678048 
L 448.874435 383.814617 
L 449.808639 383.779595 
L 450.742843 383.163221 
L 451.677047 383.834645 
L 453.545455 383.830313 
L 454.479658 383.138902 
L 455.413862 383.666262 
L 456.348066 383.602455 
L 457.28227 383.676322 
L 458.216474 382.714139 
L 459.150678 383.788234 
L 460.084882 383.840854 
L 461.019086 383.67596 
L 461.95329 383.016574 
L 462.887494 383.794801 
L 464.755902 383.824913 
L 465.690105 382.87126 
L 466.624309 383.777873 
L 468.492717 383.819018 
L 469.426921 383.099242 
L 470.361125 383.82764 
L 472.229533 383.78499 
L 473.163737 383.017413 
L 474.097941 383.754387 
L 475.032145 383.726696 
L 475.966349 383.831311 
L 476.900552 383.146057 
L 477.834756 383.824418 
L 478.76896 383.767464 
L 479.703164 383.833481 
L 480.637368 383.163893 
L 481.571572 383.769985 
L 483.43998 383.801192 
L 484.374184 382.863581 
L 485.308388 383.781824 
L 487.176796 383.757744 
L 488.110999 383.039677 
L 489.045203 383.804532 
L 490.913611 383.761515 
L 491.847815 382.922189 
L 492.782019 383.72378 
L 493.716223 383.7566 
L 494.650427 383.57534 
L 495.584631 383.080615 
L 496.518835 383.776606 
L 498.387243 383.792792 
L 499.321447 383.065374 
L 500.25565 383.782567 
L 501.189854 383.774946 
L 502.124058 383.646729 
L 503.058262 361.212869 
L 503.992466 383.803087 
L 505.860874 383.826647 
L 506.795078 382.489983 
L 507.729282 383.761334 
L 508.663486 383.535839 
L 509.59769 383.68512 
L 510.531894 383.007766 
L 511.466097 383.715318 
L 512.400301 383.682216 
L 513.334505 383.788081 
L 514.268709 382.929949 
L 515.202913 383.714696 
L 517.071321 383.669049 
L 518.005525 382.905981 
L 518.939729 383.678785 
L 520.808137 383.674694 
L 521.742341 383.024475 
L 522.676544 383.69221 
L 523.610748 383.79332 
L 524.544952 383.55535 
L 525.479156 382.926323 
L 526.41336 383.694006 
L 527.347564 383.800936 
L 528.281768 383.788929 
L 529.215972 383.119892 
L 530.150176 383.736525 
L 531.08438 383.616333 
L 532.018584 383.702721 
L 532.952788 383.005922 
L 533.886991 383.723148 
L 535.755399 383.795822 
L 536.689603 383.026883 
L 537.623807 383.789885 
L 539.492215 383.789119 
L 540.426419 382.621968 
L 541.360623 383.645938 
L 542.294827 383.775219 
L 543.229031 383.735645 
L 544.163235 383.058125 
L 545.097438 383.70765 
L 546.031642 383.778873 
L 546.965846 383.737926 
L 547.90005 382.7909 
L 548.834254 383.698838 
L 549.768458 383.707944 
L 550.702662 383.603409 
L 551.636866 382.963399 
L 552.57107 383.761743 
L 554.439478 383.775714 
L 555.373682 383.011946 
L 556.307885 383.729727 
L 557.242089 383.495033 
L 558.176293 383.645221 
L 559.110497 382.777841 
L 560.044701 383.728444 
L 561.913109 383.623726 
L 562.847313 360.825504 
L 563.781517 383.742513 
L 565.649925 383.751121 
L 566.584129 382.985417 
L 567.518332 383.732206 
L 569.38674 383.597672 
L 570.320944 382.890343 
L 571.255148 383.62597 
L 572.189352 383.721692 
L 573.123556 383.635576 
L 574.05776 382.882591 
L 574.991964 383.664863 
L 576.860372 383.69882 
L 577.794576 382.961533 
L 578.72878 383.639413 
L 580.597187 383.663113 
L 581.531391 382.924818 
L 582.465595 383.724805 
L 584.334003 383.710874 
L 585.268207 382.391061 
L 586.202411 383.711365 
L 588.070819 383.765174 
L 589.005023 382.940764 
L 589.939227 383.650855 
L 590.87343 383.751456 
L 591.807634 383.732351 
L 592.741838 382.773155 
L 593.676042 383.508999 
L 594.610246 383.668937 
L 595.54445 383.654206 
L 596.478654 382.803068 
L 597.412858 383.636933 
L 599.281266 383.676268 
L 600.21547 382.635022 
L 601.149674 383.596201 
L 602.083877 383.706706 
L 603.018081 383.604435 
L 603.952285 382.720997 
L 604.886489 383.672043 
L 605.820693 383.609714 
L 606.754897 383.701748 
L 607.689101 382.704159 
L 608.623305 383.565231 
L 610.491713 383.647103 
L 611.425917 382.812234 
L 612.360121 383.628766 
L 614.228528 383.703262 
L 615.162732 382.645161 
L 616.096936 383.325302 
L 617.965344 383.688791 
L 618.899548 382.538678 
L 619.833752 383.688895 
L 621.70216 383.579771 
L 622.636364 67.659392 
L 622.636364 67.659392 
" clip-path="url(#pce10836b63)" style="fill: none; stroke: #1f77b4; stroke-width: 1.5; stroke-linecap: square"/>
   </g>
   <g id="patch_3">
    <path d="M 90 384.48 
L 90 51.84 
" style="fill: none; stroke: #000000; stroke-width: 0.8; stroke-linejoin: miter; stroke-linecap: square"/>
   </g>
   <g id="patch_4">
    <path d="M 648 384.48 
L 648 51.84 
" style="fill: none; stroke: #000000; stroke-width: 0.8; stroke-linejoin: miter; stroke-linecap: square"/>
   </g>
   <g id="patch_5">
    <path d="M 90 384.48 
L 648 384.48 
" style="fill: none; stroke: #000000; stroke-width: 0.8; stroke-linejoin: miter; stroke-linecap: square"/>
   </g>
   <g id="patch_6">
    <path d="M 90 51.84 
L 648 51.84 
" style="fill: none; stroke: #000000; stroke-width: 0.8; stroke-linejoin: miter; stroke-linecap: square"/>
   </g>
   <g id="text_14">
    <!-- Average time per index -->
    <g transform="translate(298.700625 45.84) scale(0.12 -0.12)">
     <defs>
      <path id="DejaVuSans-70" d="M 1159 525 
L 1159 -1331 
L 581 -1331 
L 581 3500 
L 1159 3500 
L 1159 2969 
Q 1341 3281 1617 3432 
Q 1894 3584 2278 3584 
Q 2916 3584 3314 3078 
Q 3713 2572 3713 1747 
Q 3713 922 3314 415 
Q 2916 -91 2278 -91 
Q 1894 -91 1617 61 
Q 1341 213 1159 525 
z
M 3116 1747 
Q 3116 2381 2855 2742 
Q 2594 3103 2138 3103 
Q 1681 3103 1420 2742 
Q 1159 2381 1159 1747 
Q 1159 1113 1420 752 
Q 1681 391 2138 391 
Q 2594 391 2855 752 
Q 3116 1113 3116 1747 
z
" transform="scale(0.015625)"/>
     </defs>
     <use xlink:href="#DejaVuSans-41"/>
     <use xlink:href="#DejaVuSans-76" transform="translate(62.533203 0)"/>
     <use xlink:href="#DejaVuSans-65" transform="translate(121.712891 0)"/>
     <use xlink:href="#DejaVuSans-72" transform="translate(183.236328 0)"/>
     <use xlink:href="#DejaVuSans-61" transform="translate(224.349609 0)"/>
     <use xlink:href="#DejaVuSans-67" transform="translate(285.628906 0)"/>
     <use xlink:href="#DejaVuSans-65" transform="translate(349.105469 0)"/>
     <use xlink:href="#DejaVuSans-20" transform="translate(410.628906 0)"/>
     <use xlink:href="#DejaVuSans-74" transform="translate(442.416016 0)"/>
     <use xlink:href="#DejaVuSans-69" transform="translate(481.625 0)"/>
     <use xlink:href="#DejaVuSans-6d" transform="translate(509.408203 0)"/>
     <use xlink:href="#DejaVuSans-65" transform="translate(606.820312 0)"/>
     <use xlink:href="#DejaVuSans-20" transform="translate(668.34375 0)"/>
     <use xlink:href="#DejaVuSans-70" transform="translate(700.130859 0)"/>
     <use xlink:href="#DejaVuSans-65" transform="translate(763.607422 0)"/>
     <use xlink:href="#DejaVuSans-72" transform="translate(825.130859 0)"/>
     <use xlink:href="#DejaVuSans-20" transform="translate(866.244141 0)"/>
     <use xlink:href="#DejaVuSans-69" transform="translate(898.03125 0)"/>
     <use xlink:href="#DejaVuSans-6e" transform="translate(925.814453 0)"/>
     <use xlink:href="#DejaVuSans-64" transform="translate(989.193359 0)"/>
     <use xlink:href="#DejaVuSans-65" transform="translate(1052.669922 0)"/>
     <use xlink:href="#DejaVuSans-78" transform="translate(1112.443359 0)"/>
    </g>
   </g>
   <g id="legend_1">
    <g id="patch_7">
     <path d="M 97 74.518125 
L 196.53125 74.518125 
Q 198.53125 74.518125 198.53125 72.518125 
L 198.53125 58.84 
Q 198.53125 56.84 196.53125 56.84 
L 97 56.84 
Q 95 56.84 95 58.84 
L 95 72.518125 
Q 95 74.518125 97 74.518125 
z
" style="fill: #ffffff; opacity: 0.8; stroke: #cccccc; stroke-linejoin: miter"/>
    </g>
    <g id="line2d_13">
     <path d="M 99 64.938438 
L 109 64.938438 
L 119 64.938438 
" style="fill: none; stroke: #1f77b4; stroke-width: 1.5; stroke-linecap: square"/>
    </g>
    <g id="text_15">
     <!-- nextFaultload -->
     <g transform="translate(127 68.438438) scale(0.1 -0.1)">
      <defs>
       <path id="DejaVuSans-46" d="M 628 4666 
L 3309 4666 
L 3309 4134 
L 1259 4134 
L 1259 2759 
L 3109 2759 
L 3109 2228 
L 1259 2228 
L 1259 0 
L 628 0 
L 628 4666 
z
" transform="scale(0.015625)"/>
       <path id="DejaVuSans-75" d="M 544 1381 
L 544 3500 
L 1119 3500 
L 1119 1403 
Q 1119 906 1312 657 
Q 1506 409 1894 409 
Q 2359 409 2629 706 
Q 2900 1003 2900 1516 
L 2900 3500 
L 3475 3500 
L 3475 0 
L 2900 0 
L 2900 538 
Q 2691 219 2414 64 
Q 2138 -91 1772 -91 
Q 1169 -91 856 284 
Q 544 659 544 1381 
z
M 1991 3584 
L 1991 3584 
z
" transform="scale(0.015625)"/>
       <path id="DejaVuSans-6c" d="M 603 4863 
L 1178 4863 
L 1178 0 
L 603 0 
L 603 4863 
z
" transform="scale(0.015625)"/>
       <path id="DejaVuSans-6f" d="M 1959 3097 
Q 1497 3097 1228 2736 
Q 959 2375 959 1747 
Q 959 1119 1226 758 
Q 1494 397 1959 397 
Q 2419 397 2687 759 
Q 2956 1122 2956 1747 
Q 2956 2369 2687 2733 
Q 2419 3097 1959 3097 
z
M 1959 3584 
Q 2709 3584 3137 3096 
Q 3566 2609 3566 1747 
Q 3566 888 3137 398 
Q 2709 -91 1959 -91 
Q 1206 -91 779 398 
Q 353 888 353 1747 
Q 353 2609 779 3096 
Q 1206 3584 1959 3584 
z
" transform="scale(0.015625)"/>
      </defs>
      <use xlink:href="#DejaVuSans-6e"/>
      <use xlink:href="#DejaVuSans-65" transform="translate(63.378906 0)"/>
      <use xlink:href="#DejaVuSans-78" transform="translate(123.152344 0)"/>
      <use xlink:href="#DejaVuSans-74" transform="translate(182.332031 0)"/>
      <use xlink:href="#DejaVuSans-46" transform="translate(221.541016 0)"/>
      <use xlink:href="#DejaVuSans-61" transform="translate(269.935547 0)"/>
      <use xlink:href="#DejaVuSans-75" transform="translate(331.214844 0)"/>
      <use xlink:href="#DejaVuSans-6c" transform="translate(394.59375 0)"/>
      <use xlink:href="#DejaVuSans-74" transform="translate(422.376953 0)"/>
      <use xlink:href="#DejaVuSans-6c" transform="translate(461.585938 0)"/>
      <use xlink:href="#DejaVuSans-6f" transform="translate(489.369141 0)"/>
      <use xlink:href="#DejaVuSans-61" transform="translate(550.550781 0)"/>
      <use xlink:href="#DejaVuSans-64" transform="translate(611.830078 0)"/>
     </g>
    </g>
   </g>
  </g>
 </g>
 <defs>
  <clipPath id="pce10836b63">
   <rect x="90" y="51.84" width="558" height="332.64"/>
  </clipPath>
 </defs>
</svg>
