<?xml version="1.0" encoding="utf-8" standalone="no"?>
<!DOCTYPE svg PUBLIC "-//W3C//DTD SVG 1.1//EN"
  "http://www.w3.org/Graphics/SVG/1.1/DTD/svg11.dtd">
<svg xmlns:xlink="http://www.w3.org/1999/xlink" width="720pt" height="432pt" viewBox="0 0 720 432" xmlns="http://www.w3.org/2000/svg" version="1.1">
 <metadata>
  <rdf:RDF xmlns:dc="http://purl.org/dc/elements/1.1/" xmlns:cc="http://creativecommons.org/ns#" xmlns:rdf="http://www.w3.org/1999/02/22-rdf-syntax-ns#">
   <cc:Work>
    <dc:type rdf:resource="http://purl.org/dc/dcmitype/StillImage"/>
    <dc:date>2025-06-08T23:57:25.409728</dc:date>
    <dc:format>image/svg+xml</dc:format>
    <dc:creator>
     <cc:Agent>
      <dc:title>Matplotlib v3.10.3, https://matplotlib.org/</dc:title>
     </cc:Agent>
    </dc:creator>
   </cc:Work>
  </rdf:RDF>
 </metadata>
 <defs>
  <style type="text/css">*{stroke-linejoin: round; stroke-linecap: butt}</style>
 </defs>
 <g id="figure_1">
  <g id="patch_1">
   <path d="M 0 432 
L 720 432 
L 720 0 
L 0 0 
z
" style="fill: #ffffff"/>
  </g>
  <g id="axes_1">
   <g id="patch_2">
    <path d="M 90 384.48 
L 648 384.48 
L 648 51.84 
L 90 51.84 
z
" style="fill: #ffffff"/>
   </g>
   <g id="matplotlib.axis_1">
    <g id="xtick_1">
     <g id="line2d_1">
      <defs>
       <path id="mc3abd32a9c" d="M 0 0 
L 0 3.5 
" style="stroke: #000000; stroke-width: 0.8"/>
      </defs>
      <g>
       <use xlink:href="#mc3abd32a9c" x="115.363636" y="384.48" style="stroke: #000000; stroke-width: 0.8"/>
      </g>
     </g>
     <g id="text_1">
      <!-- 0 -->
      <g transform="translate(112.182386 399.078438) scale(0.1 -0.1)">
       <defs>
        <path id="DejaVuSans-30" d="M 2034 4250 
Q 1547 4250 1301 3770 
Q 1056 3291 1056 2328 
Q 1056 1369 1301 889 
Q 1547 409 2034 409 
Q 2525 409 2770 889 
Q 3016 1369 3016 2328 
Q 3016 3291 2770 3770 
Q 2525 4250 2034 4250 
z
M 2034 4750 
Q 2819 4750 3233 4129 
Q 3647 3509 3647 2328 
Q 3647 1150 3233 529 
Q 2819 -91 2034 -91 
Q 1250 -91 836 529 
Q 422 1150 422 2328 
Q 422 3509 836 4129 
Q 1250 4750 2034 4750 
z
" transform="scale(0.015625)"/>
       </defs>
       <use xlink:href="#DejaVuSans-30"/>
      </g>
     </g>
    </g>
    <g id="xtick_2">
     <g id="line2d_2">
      <g>
       <use xlink:href="#mc3abd32a9c" x="208.95639" y="384.48" style="stroke: #000000; stroke-width: 0.8"/>
      </g>
     </g>
     <g id="text_2">
      <!-- 100 -->
      <g transform="translate(199.41264 399.078438) scale(0.1 -0.1)">
       <defs>
        <path id="DejaVuSans-31" d="M 794 531 
L 1825 531 
L 1825 4091 
L 703 3866 
L 703 4441 
L 1819 4666 
L 2450 4666 
L 2450 531 
L 3481 531 
L 3481 0 
L 794 0 
L 794 531 
z
" transform="scale(0.015625)"/>
       </defs>
       <use xlink:href="#DejaVuSans-31"/>
       <use xlink:href="#DejaVuSans-30" transform="translate(63.623047 0)"/>
       <use xlink:href="#DejaVuSans-30" transform="translate(127.246094 0)"/>
      </g>
     </g>
    </g>
    <g id="xtick_3">
     <g id="line2d_3">
      <g>
       <use xlink:href="#mc3abd32a9c" x="302.549145" y="384.48" style="stroke: #000000; stroke-width: 0.8"/>
      </g>
     </g>
     <g id="text_3">
      <!-- 200 -->
      <g transform="translate(293.005395 399.078438) scale(0.1 -0.1)">
       <defs>
        <path id="DejaVuSans-32" d="M 1228 531 
L 3431 531 
L 3431 0 
L 469 0 
L 469 531 
Q 828 903 1448 1529 
Q 2069 2156 2228 2338 
Q 2531 2678 2651 2914 
Q 2772 3150 2772 3378 
Q 2772 3750 2511 3984 
Q 2250 4219 1831 4219 
Q 1534 4219 1204 4116 
Q 875 4013 500 3803 
L 500 4441 
Q 881 4594 1212 4672 
Q 1544 4750 1819 4750 
Q 2544 4750 2975 4387 
Q 3406 4025 3406 3419 
Q 3406 3131 3298 2873 
Q 3191 2616 2906 2266 
Q 2828 2175 2409 1742 
Q 1991 1309 1228 531 
z
" transform="scale(0.015625)"/>
       </defs>
       <use xlink:href="#DejaVuSans-32"/>
       <use xlink:href="#DejaVuSans-30" transform="translate(63.623047 0)"/>
       <use xlink:href="#DejaVuSans-30" transform="translate(127.246094 0)"/>
      </g>
     </g>
    </g>
    <g id="xtick_4">
     <g id="line2d_4">
      <g>
       <use xlink:href="#mc3abd32a9c" x="396.141899" y="384.48" style="stroke: #000000; stroke-width: 0.8"/>
      </g>
     </g>
     <g id="text_4">
      <!-- 300 -->
      <g transform="translate(386.598149 399.078438) scale(0.1 -0.1)">
       <defs>
        <path id="DejaVuSans-33" d="M 2597 2516 
Q 3050 2419 3304 2112 
Q 3559 1806 3559 1356 
Q 3559 666 3084 287 
Q 2609 -91 1734 -91 
Q 1441 -91 1130 -33 
Q 819 25 488 141 
L 488 750 
Q 750 597 1062 519 
Q 1375 441 1716 441 
Q 2309 441 2620 675 
Q 2931 909 2931 1356 
Q 2931 1769 2642 2001 
Q 2353 2234 1838 2234 
L 1294 2234 
L 1294 2753 
L 1863 2753 
Q 2328 2753 2575 2939 
Q 2822 3125 2822 3475 
Q 2822 3834 2567 4026 
Q 2313 4219 1838 4219 
Q 1578 4219 1281 4162 
Q 984 4106 628 3988 
L 628 4550 
Q 988 4650 1302 4700 
Q 1616 4750 1894 4750 
Q 2613 4750 3031 4423 
Q 3450 4097 3450 3541 
Q 3450 3153 3228 2886 
Q 3006 2619 2597 2516 
z
" transform="scale(0.015625)"/>
       </defs>
       <use xlink:href="#DejaVuSans-33"/>
       <use xlink:href="#DejaVuSans-30" transform="translate(63.623047 0)"/>
       <use xlink:href="#DejaVuSans-30" transform="translate(127.246094 0)"/>
      </g>
     </g>
    </g>
    <g id="xtick_5">
     <g id="line2d_5">
      <g>
       <use xlink:href="#mc3abd32a9c" x="489.734653" y="384.48" style="stroke: #000000; stroke-width: 0.8"/>
      </g>
     </g>
     <g id="text_5">
      <!-- 400 -->
      <g transform="translate(480.190903 399.078438) scale(0.1 -0.1)">
       <defs>
        <path id="DejaVuSans-34" d="M 2419 4116 
L 825 1625 
L 2419 1625 
L 2419 4116 
z
M 2253 4666 
L 3047 4666 
L 3047 1625 
L 3713 1625 
L 3713 1100 
L 3047 1100 
L 3047 0 
L 2419 0 
L 2419 1100 
L 313 1100 
L 313 1709 
L 2253 4666 
z
" transform="scale(0.015625)"/>
       </defs>
       <use xlink:href="#DejaVuSans-34"/>
       <use xlink:href="#DejaVuSans-30" transform="translate(63.623047 0)"/>
       <use xlink:href="#DejaVuSans-30" transform="translate(127.246094 0)"/>
      </g>
     </g>
    </g>
    <g id="xtick_6">
     <g id="line2d_6">
      <g>
       <use xlink:href="#mc3abd32a9c" x="583.327407" y="384.48" style="stroke: #000000; stroke-width: 0.8"/>
      </g>
     </g>
     <g id="text_6">
      <!-- 500 -->
      <g transform="translate(573.783657 399.078438) scale(0.1 -0.1)">
       <defs>
        <path id="DejaVuSans-35" d="M 691 4666 
L 3169 4666 
L 3169 4134 
L 1269 4134 
L 1269 2991 
Q 1406 3038 1543 3061 
Q 1681 3084 1819 3084 
Q 2600 3084 3056 2656 
Q 3513 2228 3513 1497 
Q 3513 744 3044 326 
Q 2575 -91 1722 -91 
Q 1428 -91 1123 -41 
Q 819 9 494 109 
L 494 744 
Q 775 591 1075 516 
Q 1375 441 1709 441 
Q 2250 441 2565 725 
Q 2881 1009 2881 1497 
Q 2881 1984 2565 2268 
Q 2250 2553 1709 2553 
Q 1456 2553 1204 2497 
Q 953 2441 691 2322 
L 691 4666 
z
" transform="scale(0.015625)"/>
       </defs>
       <use xlink:href="#DejaVuSans-35"/>
       <use xlink:href="#DejaVuSans-30" transform="translate(63.623047 0)"/>
       <use xlink:href="#DejaVuSans-30" transform="translate(127.246094 0)"/>
      </g>
     </g>
    </g>
    <g id="text_7">
     <!-- Index -->
     <g transform="translate(355.233594 412.756563) scale(0.1 -0.1)">
      <defs>
       <path id="DejaVuSans-49" d="M 628 4666 
L 1259 4666 
L 1259 0 
L 628 0 
L 628 4666 
z
" transform="scale(0.015625)"/>
       <path id="DejaVuSans-6e" d="M 3513 2113 
L 3513 0 
L 2938 0 
L 2938 2094 
Q 2938 2591 2744 2837 
Q 2550 3084 2163 3084 
Q 1697 3084 1428 2787 
Q 1159 2491 1159 1978 
L 1159 0 
L 581 0 
L 581 3500 
L 1159 3500 
L 1159 2956 
Q 1366 3272 1645 3428 
Q 1925 3584 2291 3584 
Q 2894 3584 3203 3211 
Q 3513 2838 3513 2113 
z
" transform="scale(0.015625)"/>
       <path id="DejaVuSans-64" d="M 2906 2969 
L 2906 4863 
L 3481 4863 
L 3481 0 
L 2906 0 
L 2906 525 
Q 2725 213 2448 61 
Q 2172 -91 1784 -91 
Q 1150 -91 751 415 
Q 353 922 353 1747 
Q 353 2572 751 3078 
Q 1150 3584 1784 3584 
Q 2172 3584 2448 3432 
Q 2725 3281 2906 2969 
z
M 947 1747 
Q 947 1113 1208 752 
Q 1469 391 1925 391 
Q 2381 391 2643 752 
Q 2906 1113 2906 1747 
Q 2906 2381 2643 2742 
Q 2381 3103 1925 3103 
Q 1469 3103 1208 2742 
Q 947 2381 947 1747 
z
" transform="scale(0.015625)"/>
       <path id="DejaVuSans-65" d="M 3597 1894 
L 3597 1613 
L 953 1613 
Q 991 1019 1311 708 
Q 1631 397 2203 397 
Q 2534 397 2845 478 
Q 3156 559 3463 722 
L 3463 178 
Q 3153 47 2828 -22 
Q 2503 -91 2169 -91 
Q 1331 -91 842 396 
Q 353 884 353 1716 
Q 353 2575 817 3079 
Q 1281 3584 2069 3584 
Q 2775 3584 3186 3129 
Q 3597 2675 3597 1894 
z
M 3022 2063 
Q 3016 2534 2758 2815 
Q 2500 3097 2075 3097 
Q 1594 3097 1305 2825 
Q 1016 2553 972 2059 
L 3022 2063 
z
" transform="scale(0.015625)"/>
       <path id="DejaVuSans-78" d="M 3513 3500 
L 2247 1797 
L 3578 0 
L 2900 0 
L 1881 1375 
L 863 0 
L 184 0 
L 1544 1831 
L 300 3500 
L 978 3500 
L 1906 2253 
L 2834 3500 
L 3513 3500 
z
" transform="scale(0.015625)"/>
      </defs>
      <use xlink:href="#DejaVuSans-49"/>
      <use xlink:href="#DejaVuSans-6e" transform="translate(29.492188 0)"/>
      <use xlink:href="#DejaVuSans-64" transform="translate(92.871094 0)"/>
      <use xlink:href="#DejaVuSans-65" transform="translate(156.347656 0)"/>
      <use xlink:href="#DejaVuSans-78" transform="translate(216.121094 0)"/>
     </g>
    </g>
   </g>
   <g id="matplotlib.axis_2">
    <g id="ytick_1">
     <g id="line2d_7">
      <defs>
       <path id="m75615ea846" d="M 0 0 
L -3.5 0 
" style="stroke: #000000; stroke-width: 0.8"/>
      </defs>
      <g>
       <use xlink:href="#m75615ea846" x="90" y="384.48" style="stroke: #000000; stroke-width: 0.8"/>
      </g>
     </g>
     <g id="text_8">
      <!-- 0 -->
      <g transform="translate(76.6375 388.279219) scale(0.1 -0.1)">
       <use xlink:href="#DejaVuSans-30"/>
      </g>
     </g>
    </g>
    <g id="ytick_2">
     <g id="line2d_8">
      <g>
       <use xlink:href="#m75615ea846" x="90" y="328.441521" style="stroke: #000000; stroke-width: 0.8"/>
      </g>
     </g>
     <g id="text_9">
      <!-- 10 -->
      <g transform="translate(70.275 332.24074) scale(0.1 -0.1)">
       <use xlink:href="#DejaVuSans-31"/>
       <use xlink:href="#DejaVuSans-30" transform="translate(63.623047 0)"/>
      </g>
     </g>
    </g>
    <g id="ytick_3">
     <g id="line2d_9">
      <g>
       <use xlink:href="#m75615ea846" x="90" y="272.403042" style="stroke: #000000; stroke-width: 0.8"/>
      </g>
     </g>
     <g id="text_10">
      <!-- 20 -->
      <g transform="translate(70.275 276.20226) scale(0.1 -0.1)">
       <use xlink:href="#DejaVuSans-32"/>
       <use xlink:href="#DejaVuSans-30" transform="translate(63.623047 0)"/>
      </g>
     </g>
    </g>
    <g id="ytick_4">
     <g id="line2d_10">
      <g>
       <use xlink:href="#m75615ea846" x="90" y="216.364563" style="stroke: #000000; stroke-width: 0.8"/>
      </g>
     </g>
     <g id="text_11">
      <!-- 30 -->
      <g transform="translate(70.275 220.163781) scale(0.1 -0.1)">
       <use xlink:href="#DejaVuSans-33"/>
       <use xlink:href="#DejaVuSans-30" transform="translate(63.623047 0)"/>
      </g>
     </g>
    </g>
    <g id="ytick_5">
     <g id="line2d_11">
      <g>
       <use xlink:href="#m75615ea846" x="90" y="160.326083" style="stroke: #000000; stroke-width: 0.8"/>
      </g>
     </g>
     <g id="text_12">
      <!-- 40 -->
      <g transform="translate(70.275 164.125302) scale(0.1 -0.1)">
       <use xlink:href="#DejaVuSans-34"/>
       <use xlink:href="#DejaVuSans-30" transform="translate(63.623047 0)"/>
      </g>
     </g>
    </g>
    <g id="ytick_6">
     <g id="line2d_12">
      <g>
       <use xlink:href="#m75615ea846" x="90" y="104.287604" style="stroke: #000000; stroke-width: 0.8"/>
      </g>
     </g>
     <g id="text_13">
      <!-- 50 -->
      <g transform="translate(70.275 108.086823) scale(0.1 -0.1)">
       <use xlink:href="#DejaVuSans-35"/>
       <use xlink:href="#DejaVuSans-30" transform="translate(63.623047 0)"/>
      </g>
     </g>
    </g>
    <g id="text_14">
     <!-- Average time (ms) -->
     <g transform="translate(64.195312 264.543594) rotate(-90) scale(0.1 -0.1)">
      <defs>
       <path id="DejaVuSans-41" d="M 2188 4044 
L 1331 1722 
L 3047 1722 
L 2188 4044 
z
M 1831 4666 
L 2547 4666 
L 4325 0 
L 3669 0 
L 3244 1197 
L 1141 1197 
L 716 0 
L 50 0 
L 1831 4666 
z
" transform="scale(0.015625)"/>
       <path id="DejaVuSans-76" d="M 191 3500 
L 800 3500 
L 1894 563 
L 2988 3500 
L 3597 3500 
L 2284 0 
L 1503 0 
L 191 3500 
z
" transform="scale(0.015625)"/>
       <path id="DejaVuSans-72" d="M 2631 2963 
Q 2534 3019 2420 3045 
Q 2306 3072 2169 3072 
Q 1681 3072 1420 2755 
Q 1159 2438 1159 1844 
L 1159 0 
L 581 0 
L 581 3500 
L 1159 3500 
L 1159 2956 
Q 1341 3275 1631 3429 
Q 1922 3584 2338 3584 
Q 2397 3584 2469 3576 
Q 2541 3569 2628 3553 
L 2631 2963 
z
" transform="scale(0.015625)"/>
       <path id="DejaVuSans-61" d="M 2194 1759 
Q 1497 1759 1228 1600 
Q 959 1441 959 1056 
Q 959 750 1161 570 
Q 1363 391 1709 391 
Q 2188 391 2477 730 
Q 2766 1069 2766 1631 
L 2766 1759 
L 2194 1759 
z
M 3341 1997 
L 3341 0 
L 2766 0 
L 2766 531 
Q 2569 213 2275 61 
Q 1981 -91 1556 -91 
Q 1019 -91 701 211 
Q 384 513 384 1019 
Q 384 1609 779 1909 
Q 1175 2209 1959 2209 
L 2766 2209 
L 2766 2266 
Q 2766 2663 2505 2880 
Q 2244 3097 1772 3097 
Q 1472 3097 1187 3025 
Q 903 2953 641 2809 
L 641 3341 
Q 956 3463 1253 3523 
Q 1550 3584 1831 3584 
Q 2591 3584 2966 3190 
Q 3341 2797 3341 1997 
z
" transform="scale(0.015625)"/>
       <path id="DejaVuSans-67" d="M 2906 1791 
Q 2906 2416 2648 2759 
Q 2391 3103 1925 3103 
Q 1463 3103 1205 2759 
Q 947 2416 947 1791 
Q 947 1169 1205 825 
Q 1463 481 1925 481 
Q 2391 481 2648 825 
Q 2906 1169 2906 1791 
z
M 3481 434 
Q 3481 -459 3084 -895 
Q 2688 -1331 1869 -1331 
Q 1566 -1331 1297 -1286 
Q 1028 -1241 775 -1147 
L 775 -588 
Q 1028 -725 1275 -790 
Q 1522 -856 1778 -856 
Q 2344 -856 2625 -561 
Q 2906 -266 2906 331 
L 2906 616 
Q 2728 306 2450 153 
Q 2172 0 1784 0 
Q 1141 0 747 490 
Q 353 981 353 1791 
Q 353 2603 747 3093 
Q 1141 3584 1784 3584 
Q 2172 3584 2450 3431 
Q 2728 3278 2906 2969 
L 2906 3500 
L 3481 3500 
L 3481 434 
z
" transform="scale(0.015625)"/>
       <path id="DejaVuSans-20" transform="scale(0.015625)"/>
       <path id="DejaVuSans-74" d="M 1172 4494 
L 1172 3500 
L 2356 3500 
L 2356 3053 
L 1172 3053 
L 1172 1153 
Q 1172 725 1289 603 
Q 1406 481 1766 481 
L 2356 481 
L 2356 0 
L 1766 0 
Q 1100 0 847 248 
Q 594 497 594 1153 
L 594 3053 
L 172 3053 
L 172 3500 
L 594 3500 
L 594 4494 
L 1172 4494 
z
" transform="scale(0.015625)"/>
       <path id="DejaVuSans-69" d="M 603 3500 
L 1178 3500 
L 1178 0 
L 603 0 
L 603 3500 
z
M 603 4863 
L 1178 4863 
L 1178 4134 
L 603 4134 
L 603 4863 
z
" transform="scale(0.015625)"/>
       <path id="DejaVuSans-6d" d="M 3328 2828 
Q 3544 3216 3844 3400 
Q 4144 3584 4550 3584 
Q 5097 3584 5394 3201 
Q 5691 2819 5691 2113 
L 5691 0 
L 5113 0 
L 5113 2094 
Q 5113 2597 4934 2840 
Q 4756 3084 4391 3084 
Q 3944 3084 3684 2787 
Q 3425 2491 3425 1978 
L 3425 0 
L 2847 0 
L 2847 2094 
Q 2847 2600 2669 2842 
Q 2491 3084 2119 3084 
Q 1678 3084 1418 2786 
Q 1159 2488 1159 1978 
L 1159 0 
L 581 0 
L 581 3500 
L 1159 3500 
L 1159 2956 
Q 1356 3278 1631 3431 
Q 1906 3584 2284 3584 
Q 2666 3584 2933 3390 
Q 3200 3197 3328 2828 
z
" transform="scale(0.015625)"/>
       <path id="DejaVuSans-28" d="M 1984 4856 
Q 1566 4138 1362 3434 
Q 1159 2731 1159 2009 
Q 1159 1288 1364 580 
Q 1569 -128 1984 -844 
L 1484 -844 
Q 1016 -109 783 600 
Q 550 1309 550 2009 
Q 550 2706 781 3412 
Q 1013 4119 1484 4856 
L 1984 4856 
z
" transform="scale(0.015625)"/>
       <path id="DejaVuSans-73" d="M 2834 3397 
L 2834 2853 
Q 2591 2978 2328 3040 
Q 2066 3103 1784 3103 
Q 1356 3103 1142 2972 
Q 928 2841 928 2578 
Q 928 2378 1081 2264 
Q 1234 2150 1697 2047 
L 1894 2003 
Q 2506 1872 2764 1633 
Q 3022 1394 3022 966 
Q 3022 478 2636 193 
Q 2250 -91 1575 -91 
Q 1294 -91 989 -36 
Q 684 19 347 128 
L 347 722 
Q 666 556 975 473 
Q 1284 391 1588 391 
Q 1994 391 2212 530 
Q 2431 669 2431 922 
Q 2431 1156 2273 1281 
Q 2116 1406 1581 1522 
L 1381 1569 
Q 847 1681 609 1914 
Q 372 2147 372 2553 
Q 372 3047 722 3315 
Q 1072 3584 1716 3584 
Q 2034 3584 2315 3537 
Q 2597 3491 2834 3397 
z
" transform="scale(0.015625)"/>
       <path id="DejaVuSans-29" d="M 513 4856 
L 1013 4856 
Q 1481 4119 1714 3412 
Q 1947 2706 1947 2009 
Q 1947 1309 1714 600 
Q 1481 -109 1013 -844 
L 513 -844 
Q 928 -128 1133 580 
Q 1338 1288 1338 2009 
Q 1338 2731 1133 3434 
Q 928 4138 513 4856 
z
" transform="scale(0.015625)"/>
      </defs>
      <use xlink:href="#DejaVuSans-41"/>
      <use xlink:href="#DejaVuSans-76" transform="translate(62.533203 0)"/>
      <use xlink:href="#DejaVuSans-65" transform="translate(121.712891 0)"/>
      <use xlink:href="#DejaVuSans-72" transform="translate(183.236328 0)"/>
      <use xlink:href="#DejaVuSans-61" transform="translate(224.349609 0)"/>
      <use xlink:href="#DejaVuSans-67" transform="translate(285.628906 0)"/>
      <use xlink:href="#DejaVuSans-65" transform="translate(349.105469 0)"/>
      <use xlink:href="#DejaVuSans-20" transform="translate(410.628906 0)"/>
      <use xlink:href="#DejaVuSans-74" transform="translate(442.416016 0)"/>
      <use xlink:href="#DejaVuSans-69" transform="translate(481.625 0)"/>
      <use xlink:href="#DejaVuSans-6d" transform="translate(509.408203 0)"/>
      <use xlink:href="#DejaVuSans-65" transform="translate(606.820312 0)"/>
      <use xlink:href="#DejaVuSans-20" transform="translate(668.34375 0)"/>
      <use xlink:href="#DejaVuSans-28" transform="translate(700.130859 0)"/>
      <use xlink:href="#DejaVuSans-6d" transform="translate(739.144531 0)"/>
      <use xlink:href="#DejaVuSans-73" transform="translate(836.556641 0)"/>
      <use xlink:href="#DejaVuSans-29" transform="translate(888.65625 0)"/>
     </g>
    </g>
   </g>
   <g id="line2d_13">
    <path d="M 115.363636 66.974609 
L 116.299564 254.045807 
L 117.235491 328.862927 
L 118.171419 342.976394 
L 119.107347 338.994758 
L 121.915129 356.585461 
L 122.851057 357.855707 
L 123.786984 354.891722 
L 124.722912 358.377294 
L 125.658839 361.407906 
L 126.594767 362.054303 
L 127.530694 359.029287 
L 128.466622 362.085297 
L 129.402549 361.831027 
L 130.338477 359.79266 
L 131.274405 361.251396 
L 132.210332 359.932887 
L 133.14626 363.854364 
L 134.082187 363.707291 
L 135.018115 359.254232 
L 135.954042 361.726991 
L 136.88997 359.235959 
L 137.825897 360.456315 
L 138.761825 361.200492 
L 139.697752 359.482528 
L 140.63368 355.443046 
L 141.569608 359.640978 
L 142.505535 359.942321 
L 143.441463 364.1097 
L 144.37739 362.707314 
L 145.313318 357.816991 
L 146.249245 359.597598 
L 147.185173 359.908369 
L 149.057028 363.727346 
L 149.992955 361.935334 
L 150.928883 359.111022 
L 151.86481 360.52718 
L 152.800738 362.466253 
L 153.736666 363.328655 
L 154.672593 362.904973 
L 155.608521 363.97112 
L 156.544448 364.476438 
L 157.480376 365.656131 
L 158.416303 366.493444 
L 159.352231 360.633551 
L 160.288158 363.829917 
L 161.224086 363.862435 
L 162.160013 363.443911 
L 163.095941 362.410179 
L 164.031869 361.774595 
L 164.967796 363.366316 
L 165.903724 360.638814 
L 166.839651 363.594105 
L 167.775579 363.368363 
L 168.711506 362.806283 
L 169.647434 363.335363 
L 170.583361 363.053333 
L 171.519289 362.895024 
L 172.455216 363.993773 
L 173.391144 364.203579 
L 174.327071 359.842008 
L 175.262999 360.506294 
L 176.198927 359.860804 
L 177.134854 363.137306 
L 178.070782 360.58073 
L 179.006709 361.862594 
L 179.942637 363.64603 
L 180.878564 364.87771 
L 181.814492 363.331275 
L 182.750419 363.053294 
L 183.686347 362.480883 
L 184.622274 363.2089 
L 185.558202 359.483616 
L 186.494129 362.198408 
L 187.430057 364.423667 
L 189.301912 364.795182 
L 190.23784 363.452613 
L 191.173767 365.7078 
L 192.109695 363.459613 
L 193.045622 366.146832 
L 194.917477 362.254393 
L 195.853405 364.291474 
L 196.789332 362.29002 
L 197.72526 365.139118 
L 198.661188 363.367966 
L 199.597115 364.281321 
L 200.533043 362.209947 
L 201.46897 357.453521 
L 202.404898 355.619025 
L 203.340825 361.848133 
L 204.276753 362.06431 
L 205.21268 355.930195 
L 206.148608 363.820895 
L 207.084535 360.030621 
L 208.020463 361.933066 
L 208.95639 360.955597 
L 209.892318 362.155976 
L 210.828246 360.541456 
L 211.764173 353.844118 
L 212.700101 358.027115 
L 213.636028 360.081727 
L 214.571956 355.843154 
L 215.507883 360.432842 
L 216.443811 361.020887 
L 217.379738 364.958319 
L 218.315666 364.004806 
L 219.251593 363.953968 
L 220.187521 363.182546 
L 221.123449 359.141232 
L 222.059376 365.449429 
L 222.995304 360.796161 
L 223.931231 364.238678 
L 224.867159 364.934657 
L 225.803086 362.360933 
L 226.739014 362.084533 
L 227.674941 364.782372 
L 228.610869 364.813693 
L 229.546796 363.692179 
L 230.482724 363.144286 
L 231.418651 365.807332 
L 232.354579 360.506405 
L 233.290507 365.937058 
L 234.226434 360.903573 
L 235.162362 364.45421 
L 236.098289 363.165597 
L 237.034217 361.259634 
L 237.970144 363.178245 
L 238.906072 361.674853 
L 239.841999 363.589786 
L 240.777927 365.032219 
L 241.713854 363.084118 
L 242.649782 365.445604 
L 243.585709 363.797811 
L 244.521637 361.854877 
L 245.457565 364.542658 
L 246.393492 364.907333 
L 247.32942 364.136371 
L 248.265347 365.997422 
L 249.201275 364.782963 
L 250.137202 366.07938 
L 251.07313 365.553665 
L 252.009057 362.75927 
L 252.944985 363.668591 
L 253.880912 364.10929 
L 254.81684 365.083746 
L 255.752768 364.82982 
L 256.688695 363.477866 
L 257.624623 363.143058 
L 258.56055 365.006853 
L 259.496478 363.292687 
L 260.432405 361.938061 
L 261.368333 362.871186 
L 262.30426 361.403017 
L 263.240188 365.015413 
L 264.176115 365.337029 
L 265.112043 363.247161 
L 266.04797 363.366339 
L 266.983898 366.223654 
L 267.919826 365.199069 
L 268.855753 364.948637 
L 269.791681 366.465627 
L 270.727608 366.59183 
L 271.663536 362.96859 
L 272.599463 364.475462 
L 273.535391 367.145164 
L 274.471318 364.529354 
L 275.407246 365.315672 
L 276.343173 364.974054 
L 277.279101 363.636823 
L 278.215029 364.390575 
L 279.150956 363.490171 
L 280.086884 364.549519 
L 281.022811 365.224703 
L 281.958739 364.131433 
L 282.894666 365.037568 
L 283.830594 366.334027 
L 284.766521 360.878918 
L 285.702449 363.921952 
L 286.638376 365.561801 
L 287.574304 366.265304 
L 288.510231 366.212335 
L 289.446159 365.303981 
L 290.382087 365.199879 
L 291.318014 364.339639 
L 293.189869 363.331555 
L 294.125797 364.191335 
L 295.061724 362.876444 
L 295.997652 358.595202 
L 296.933579 363.864206 
L 297.869507 361.598246 
L 298.805434 362.828682 
L 299.741362 367.675447 
L 300.67729 366.661613 
L 301.613217 366.162533 
L 302.549145 365.400461 
L 303.485072 366.593519 
L 304.421 366.954101 
L 305.356927 366.718434 
L 306.292855 366.366345 
L 307.228782 368.244363 
L 308.16471 366.888782 
L 309.100637 364.296295 
L 310.036565 364.553162 
L 310.972492 365.322962 
L 311.90842 364.199186 
L 312.844348 364.760129 
L 313.780275 366.476077 
L 314.716203 362.575661 
L 315.65213 363.336239 
L 316.588058 361.894457 
L 317.523985 366.962235 
L 318.459913 365.427421 
L 319.39584 366.978089 
L 320.331768 367.054691 
L 321.267695 368.024042 
L 322.203623 365.219006 
L 323.13955 365.810383 
L 324.075478 365.334523 
L 325.011406 363.834296 
L 325.947333 365.359239 
L 326.883261 367.664052 
L 328.755116 363.090945 
L 329.691043 365.492454 
L 330.626971 362.622081 
L 331.562898 365.97373 
L 332.498826 365.553221 
L 333.434753 365.89902 
L 334.370681 363.341085 
L 335.306609 365.502161 
L 336.242536 365.852764 
L 337.178464 367.125915 
L 338.114391 364.00804 
L 339.050319 365.746136 
L 339.986246 363.590398 
L 340.922174 366.863172 
L 341.858101 366.86059 
L 342.794029 365.432455 
L 343.729956 364.56237 
L 344.665884 368.139268 
L 345.601811 362.149652 
L 346.537739 366.171385 
L 347.473667 365.070665 
L 348.409594 366.761442 
L 349.345522 364.80245 
L 350.281449 365.56287 
L 351.217377 365.558878 
L 352.153304 363.350847 
L 353.089232 365.589077 
L 354.025159 360.87939 
L 355.897014 366.746811 
L 356.832942 365.701448 
L 357.76887 365.825742 
L 358.704797 364.566599 
L 359.640725 363.8086 
L 360.576652 363.713451 
L 361.51258 363.480395 
L 362.448507 364.791087 
L 363.384435 364.822036 
L 364.320362 361.813485 
L 365.25629 363.620356 
L 366.192217 366.228684 
L 367.128145 360.430926 
L 368.064072 366.424244 
L 369 365.321098 
L 369.935928 365.753068 
L 370.871855 360.664938 
L 371.807783 366.415896 
L 372.74371 366.013231 
L 373.679638 365.818095 
L 375.551493 366.539094 
L 376.48742 364.436514 
L 377.423348 364.753633 
L 378.359275 366.323886 
L 379.295203 365.361382 
L 380.23113 365.761544 
L 381.167058 366.62298 
L 382.102986 364.797832 
L 383.038913 367.043668 
L 383.974841 363.714567 
L 384.910768 365.093011 
L 385.846696 363.827908 
L 386.782623 366.218686 
L 387.718551 367.525721 
L 388.654478 367.070139 
L 389.590406 367.550155 
L 390.526333 365.842905 
L 391.462261 366.205525 
L 392.398189 366.410577 
L 393.334116 364.330068 
L 394.270044 364.507553 
L 395.205971 361.751054 
L 396.141899 364.855784 
L 397.077826 366.704555 
L 398.013754 366.730172 
L 398.949681 364.711277 
L 399.885609 364.976646 
L 400.821536 366.571794 
L 401.757464 364.589043 
L 402.693391 363.623187 
L 403.629319 366.040815 
L 404.565247 367.962049 
L 405.501174 366.001834 
L 406.437102 367.1812 
L 407.373029 366.14102 
L 408.308957 367.389696 
L 409.244884 364.614239 
L 410.180812 366.92003 
L 411.116739 364.741697 
L 412.052667 366.85766 
L 412.988594 365.76346 
L 413.924522 365.006023 
L 414.86045 364.610676 
L 415.796377 366.443238 
L 416.732305 366.086992 
L 417.668232 366.137496 
L 418.60416 367.543973 
L 420.476015 365.083188 
L 422.34787 367.245156 
L 423.283797 366.655959 
L 424.219725 365.828454 
L 425.155652 365.688722 
L 426.09158 366.542373 
L 427.027508 365.73762 
L 427.963435 366.307346 
L 430.771218 367.190812 
L 431.707145 365.262845 
L 432.643073 367.064376 
L 433.579 366.426232 
L 434.514928 366.833491 
L 435.450855 367.389702 
L 436.386783 366.328965 
L 437.32271 367.453291 
L 438.258638 367.447583 
L 439.194566 368.432211 
L 440.130493 367.840346 
L 441.066421 365.648475 
L 442.002348 367.602068 
L 442.938276 366.444469 
L 443.874203 366.353536 
L 444.810131 364.722005 
L 445.746058 365.836493 
L 446.681986 367.567545 
L 447.617913 365.883325 
L 448.553841 365.620843 
L 449.489769 365.813838 
L 450.425696 365.638175 
L 451.361624 366.588555 
L 452.297551 365.714737 
L 453.233479 365.310302 
L 456.041261 367.706692 
L 456.977189 365.98605 
L 457.913116 364.716405 
L 458.849044 367.533801 
L 459.784971 362.63569 
L 460.720899 368.513346 
L 461.656827 367.050467 
L 463.528682 365.362835 
L 464.464609 365.140007 
L 465.400537 361.122702 
L 466.336464 362.896795 
L 467.272392 365.866801 
L 468.208319 368.110399 
L 469.144247 368.268963 
L 470.080174 366.847426 
L 471.016102 367.670757 
L 471.95203 367.974244 
L 474.759812 364.071451 
L 475.69574 367.138525 
L 476.631667 367.128898 
L 477.567595 367.949929 
L 478.503522 366.376854 
L 479.43945 366.134267 
L 480.375377 368.269438 
L 481.311305 366.19346 
L 482.247232 365.906803 
L 483.18316 366.96748 
L 484.119088 368.232631 
L 485.055015 366.604316 
L 485.990943 366.209405 
L 486.92687 369.344339 
L 487.862798 368.085994 
L 488.798725 366.470148 
L 489.734653 366.685223 
L 490.67058 366.304794 
L 491.606508 366.394259 
L 492.542435 367.945981 
L 493.478363 367.182479 
L 494.414291 367.752832 
L 495.350218 368.179582 
L 496.286146 367.680811 
L 497.222073 368.025426 
L 498.158001 368.553322 
L 500.029856 367.624066 
L 500.965783 368.916639 
L 501.901711 367.82811 
L 504.709493 365.960467 
L 505.645421 368.350358 
L 506.581349 367.266803 
L 507.517276 366.57398 
L 509.389131 367.434331 
L 510.325059 366.317885 
L 511.260986 366.076165 
L 512.196914 365.499318 
L 514.068769 363.79283 
L 515.004696 366.371117 
L 515.940624 364.006176 
L 516.876551 364.322887 
L 517.812479 362.734449 
L 518.748407 363.048306 
L 519.684334 363.505224 
L 520.620262 366.38589 
L 521.556189 366.018003 
L 522.492117 366.022497 
L 523.428044 367.976601 
L 524.363972 368.041444 
L 525.299899 367.638408 
L 527.171754 365.814007 
L 528.107682 366.138013 
L 529.04361 368.160829 
L 529.979537 368.66864 
L 530.915465 367.56145 
L 531.851392 365.934006 
L 532.78732 367.18218 
L 533.723247 364.49667 
L 534.659175 366.854171 
L 535.595102 368.464596 
L 536.53103 366.891466 
L 537.466957 366.430152 
L 538.402885 368.629703 
L 539.338812 366.287283 
L 541.210668 366.792828 
L 542.146595 367.681431 
L 543.082523 368.837907 
L 544.01845 368.739199 
L 544.954378 367.80398 
L 545.890305 367.68834 
L 546.826233 365.635198 
L 547.76216 367.550527 
L 549.634015 366.662456 
L 550.569943 368.245825 
L 551.505871 369.057484 
L 552.441798 367.975233 
L 553.377726 367.871748 
L 554.313653 369.242601 
L 555.249581 368.724016 
L 556.185508 369.075206 
L 557.121436 368.154289 
L 558.057363 367.756741 
L 558.993291 366.250663 
L 559.929218 368.039862 
L 560.865146 365.603824 
L 562.737001 365.599884 
L 563.672929 367.09298 
L 564.608856 367.608071 
L 565.544784 368.746268 
L 566.480711 367.40186 
L 567.416639 368.640337 
L 568.352566 369.663927 
L 569.288494 368.421788 
L 570.224421 368.217452 
L 571.160349 367.618513 
L 572.096276 368.575319 
L 573.032204 367.780783 
L 573.968131 368.283351 
L 574.904059 367.839884 
L 575.839987 365.681558 
L 576.775914 365.825067 
L 577.711842 366.838515 
L 578.647769 365.505467 
L 579.583697 367.052513 
L 580.519624 367.842053 
L 581.455552 367.251949 
L 582.391479 367.886982 
L 583.327407 367.383305 
L 584.263334 367.837352 
L 585.199262 366.702396 
L 586.13519 366.67743 
L 587.071117 369.080992 
L 588.007045 368.911518 
L 589.8789 368.865295 
L 590.814827 365.369711 
L 591.750755 365.409388 
L 592.686682 365.120592 
L 593.62261 363.837358 
L 594.558537 365.615234 
L 595.494465 367.744291 
L 596.430392 366.007848 
L 597.36632 366.205011 
L 598.302248 367.668472 
L 599.238175 367.28033 
L 600.174103 367.470544 
L 601.11003 366.979677 
L 602.045958 368.132962 
L 602.981885 367.306967 
L 604.85374 367.986996 
L 605.789668 368.708473 
L 606.725595 368.942086 
L 607.661523 368.095617 
L 608.597451 367.541399 
L 609.533378 364.156097 
L 610.469306 369.666785 
L 611.405233 368.419933 
L 612.341161 368.238812 
L 613.277088 367.014613 
L 614.213016 368.091155 
L 615.148943 368.148953 
L 616.084871 365.450079 
L 617.020798 366.107083 
L 617.956726 362.265245 
L 618.892653 367.584628 
L 619.828581 366.645305 
L 620.764509 368.297115 
L 621.700436 368.514549 
L 622.636364 368.328654 
L 622.636364 368.328654 
" clip-path="url(#pcf41f70f88)" style="fill: none; stroke: #1f77b4; stroke-width: 1.5; stroke-linecap: square"/>
   </g>
   <g id="patch_3">
    <path d="M 90 384.48 
L 90 51.84 
" style="fill: none; stroke: #000000; stroke-width: 0.8; stroke-linejoin: miter; stroke-linecap: square"/>
   </g>
   <g id="patch_4">
    <path d="M 648 384.48 
L 648 51.84 
" style="fill: none; stroke: #000000; stroke-width: 0.8; stroke-linejoin: miter; stroke-linecap: square"/>
   </g>
   <g id="patch_5">
    <path d="M 90 384.48 
L 648 384.48 
" style="fill: none; stroke: #000000; stroke-width: 0.8; stroke-linejoin: miter; stroke-linecap: square"/>
   </g>
   <g id="patch_6">
    <path d="M 90 51.84 
L 648 51.84 
" style="fill: none; stroke: #000000; stroke-width: 0.8; stroke-linejoin: miter; stroke-linecap: square"/>
   </g>
   <g id="text_15">
    <!-- Average time per index -->
    <g transform="translate(298.700625 45.84) scale(0.12 -0.12)">
     <defs>
      <path id="DejaVuSans-70" d="M 1159 525 
L 1159 -1331 
L 581 -1331 
L 581 3500 
L 1159 3500 
L 1159 2969 
Q 1341 3281 1617 3432 
Q 1894 3584 2278 3584 
Q 2916 3584 3314 3078 
Q 3713 2572 3713 1747 
Q 3713 922 3314 415 
Q 2916 -91 2278 -91 
Q 1894 -91 1617 61 
Q 1341 213 1159 525 
z
M 3116 1747 
Q 3116 2381 2855 2742 
Q 2594 3103 2138 3103 
Q 1681 3103 1420 2742 
Q 1159 2381 1159 1747 
Q 1159 1113 1420 752 
Q 1681 391 2138 391 
Q 2594 391 2855 752 
Q 3116 1113 3116 1747 
z
" transform="scale(0.015625)"/>
     </defs>
     <use xlink:href="#DejaVuSans-41"/>
     <use xlink:href="#DejaVuSans-76" transform="translate(62.533203 0)"/>
     <use xlink:href="#DejaVuSans-65" transform="translate(121.712891 0)"/>
     <use xlink:href="#DejaVuSans-72" transform="translate(183.236328 0)"/>
     <use xlink:href="#DejaVuSans-61" transform="translate(224.349609 0)"/>
     <use xlink:href="#DejaVuSans-67" transform="translate(285.628906 0)"/>
     <use xlink:href="#DejaVuSans-65" transform="translate(349.105469 0)"/>
     <use xlink:href="#DejaVuSans-20" transform="translate(410.628906 0)"/>
     <use xlink:href="#DejaVuSans-74" transform="translate(442.416016 0)"/>
     <use xlink:href="#DejaVuSans-69" transform="translate(481.625 0)"/>
     <use xlink:href="#DejaVuSans-6d" transform="translate(509.408203 0)"/>
     <use xlink:href="#DejaVuSans-65" transform="translate(606.820312 0)"/>
     <use xlink:href="#DejaVuSans-20" transform="translate(668.34375 0)"/>
     <use xlink:href="#DejaVuSans-70" transform="translate(700.130859 0)"/>
     <use xlink:href="#DejaVuSans-65" transform="translate(763.607422 0)"/>
     <use xlink:href="#DejaVuSans-72" transform="translate(825.130859 0)"/>
     <use xlink:href="#DejaVuSans-20" transform="translate(866.244141 0)"/>
     <use xlink:href="#DejaVuSans-69" transform="translate(898.03125 0)"/>
     <use xlink:href="#DejaVuSans-6e" transform="translate(925.814453 0)"/>
     <use xlink:href="#DejaVuSans-64" transform="translate(989.193359 0)"/>
     <use xlink:href="#DejaVuSans-65" transform="translate(1052.669922 0)"/>
     <use xlink:href="#DejaVuSans-78" transform="translate(1112.443359 0)"/>
    </g>
   </g>
   <g id="legend_1">
    <g id="patch_7">
     <path d="M 525.064062 74.518125 
L 641 74.518125 
Q 643 74.518125 643 72.518125 
L 643 58.84 
Q 643 56.84 641 56.84 
L 525.064062 56.84 
Q 523.064062 56.84 523.064062 58.84 
L 523.064062 72.518125 
Q 523.064062 74.518125 525.064062 74.518125 
z
" style="fill: #ffffff; opacity: 0.8; stroke: #cccccc; stroke-linejoin: miter"/>
    </g>
    <g id="line2d_14">
     <path d="M 527.064062 64.938438 
L 537.064062 64.938438 
L 547.064062 64.938438 
" style="fill: none; stroke: #1f77b4; stroke-width: 1.5; stroke-linecap: square"/>
    </g>
    <g id="text_16">
     <!-- registerFaultload -->
     <g transform="translate(555.064062 68.438438) scale(0.1 -0.1)">
      <defs>
       <path id="DejaVuSans-46" d="M 628 4666 
L 3309 4666 
L 3309 4134 
L 1259 4134 
L 1259 2759 
L 3109 2759 
L 3109 2228 
L 1259 2228 
L 1259 0 
L 628 0 
L 628 4666 
z
" transform="scale(0.015625)"/>
       <path id="DejaVuSans-75" d="M 544 1381 
L 544 3500 
L 1119 3500 
L 1119 1403 
Q 1119 906 1312 657 
Q 1506 409 1894 409 
Q 2359 409 2629 706 
Q 2900 1003 2900 1516 
L 2900 3500 
L 3475 3500 
L 3475 0 
L 2900 0 
L 2900 538 
Q 2691 219 2414 64 
Q 2138 -91 1772 -91 
Q 1169 -91 856 284 
Q 544 659 544 1381 
z
M 1991 3584 
L 1991 3584 
z
" transform="scale(0.015625)"/>
       <path id="DejaVuSans-6c" d="M 603 4863 
L 1178 4863 
L 1178 0 
L 603 0 
L 603 4863 
z
" transform="scale(0.015625)"/>
       <path id="DejaVuSans-6f" d="M 1959 3097 
Q 1497 3097 1228 2736 
Q 959 2375 959 1747 
Q 959 1119 1226 758 
Q 1494 397 1959 397 
Q 2419 397 2687 759 
Q 2956 1122 2956 1747 
Q 2956 2369 2687 2733 
Q 2419 3097 1959 3097 
z
M 1959 3584 
Q 2709 3584 3137 3096 
Q 3566 2609 3566 1747 
Q 3566 888 3137 398 
Q 2709 -91 1959 -91 
Q 1206 -91 779 398 
Q 353 888 353 1747 
Q 353 2609 779 3096 
Q 1206 3584 1959 3584 
z
" transform="scale(0.015625)"/>
      </defs>
      <use xlink:href="#DejaVuSans-72"/>
      <use xlink:href="#DejaVuSans-65" transform="translate(38.863281 0)"/>
      <use xlink:href="#DejaVuSans-67" transform="translate(100.386719 0)"/>
      <use xlink:href="#DejaVuSans-69" transform="translate(163.863281 0)"/>
      <use xlink:href="#DejaVuSans-73" transform="translate(191.646484 0)"/>
      <use xlink:href="#DejaVuSans-74" transform="translate(243.746094 0)"/>
      <use xlink:href="#DejaVuSans-65" transform="translate(282.955078 0)"/>
      <use xlink:href="#DejaVuSans-72" transform="translate(344.478516 0)"/>
      <use xlink:href="#DejaVuSans-46" transform="translate(385.591797 0)"/>
      <use xlink:href="#DejaVuSans-61" transform="translate(433.986328 0)"/>
      <use xlink:href="#DejaVuSans-75" transform="translate(495.265625 0)"/>
      <use xlink:href="#DejaVuSans-6c" transform="translate(558.644531 0)"/>
      <use xlink:href="#DejaVuSans-74" transform="translate(586.427734 0)"/>
      <use xlink:href="#DejaVuSans-6c" transform="translate(625.636719 0)"/>
      <use xlink:href="#DejaVuSans-6f" transform="translate(653.419922 0)"/>
      <use xlink:href="#DejaVuSans-61" transform="translate(714.601562 0)"/>
      <use xlink:href="#DejaVuSans-64" transform="translate(775.880859 0)"/>
     </g>
    </g>
   </g>
  </g>
 </g>
 <defs>
  <clipPath id="pcf41f70f88">
   <rect x="90" y="51.84" width="558" height="332.64"/>
  </clipPath>
 </defs>
</svg>
