<?xml version="1.0" encoding="utf-8" standalone="no"?>
<!DOCTYPE svg PUBLIC "-//W3C//DTD SVG 1.1//EN"
  "http://www.w3.org/Graphics/SVG/1.1/DTD/svg11.dtd">
<svg xmlns:xlink="http://www.w3.org/1999/xlink" width="576pt" height="432pt" viewBox="0 0 576 432" xmlns="http://www.w3.org/2000/svg" version="1.1">
 <metadata>
  <rdf:RDF xmlns:dc="http://purl.org/dc/elements/1.1/" xmlns:cc="http://creativecommons.org/ns#" xmlns:rdf="http://www.w3.org/1999/02/22-rdf-syntax-ns#">
   <cc:Work>
    <dc:type rdf:resource="http://purl.org/dc/dcmitype/StillImage"/>
    <dc:date>2025-06-08T23:57:25.982521</dc:date>
    <dc:format>image/svg+xml</dc:format>
    <dc:creator>
     <cc:Agent>
      <dc:title>Matplotlib v3.10.3, https://matplotlib.org/</dc:title>
     </cc:Agent>
    </dc:creator>
   </cc:Work>
  </rdf:RDF>
 </metadata>
 <defs>
  <style type="text/css">*{stroke-linejoin: round; stroke-linecap: butt}</style>
 </defs>
 <g id="figure_1">
  <g id="patch_1">
   <path d="M 0 432 
L 576 432 
L 576 0 
L 0 0 
z
" style="fill: #ffffff"/>
  </g>
  <g id="axes_1">
   <g id="patch_2">
    <path d="M 72 384.48 
L 518.4 384.48 
L 518.4 51.84 
L 72 51.84 
z
" style="fill: #ffffff"/>
   </g>
   <g id="FillBetweenPolyCollection_1">
    <path d="M 328.855074 369.627002 
L 261.544926 369.627002 
L 188.549787 366.569888 
L 183.6 363.512774 
L 211.068547 360.45566 
L 244.561783 357.398546 
L 270.927076 354.341432 
L 283.902339 351.284318 
L 289.376939 348.227204 
L 292.744261 345.17009 
L 293.863959 342.112976 
L 294.301618 339.055862 
L 294.330683 335.998748 
L 294.364874 332.941634 
L 294.525655 329.88452 
L 294.887108 326.827406 
L 294.914132 323.770292 
L 295.04375 320.713178 
L 295.093874 317.656064 
L 295.121739 314.59895 
L 295.071778 311.541836 
L 295.025773 308.484722 
L 294.978124 305.427608 
L 295.077918 302.370494 
L 295.11124 299.31338 
L 295.181315 296.256266 
L 295.148915 293.199152 
L 295.127487 290.142038 
L 295.114559 287.084924 
L 295.174296 284.02781 
L 295.199095 280.970696 
L 295.199997 277.913582 
L 295.2 274.856468 
L 295.2 271.799354 
L 295.2 268.74224 
L 295.2 265.685126 
L 295.2 262.628012 
L 295.2 259.570898 
L 295.2 256.513784 
L 295.2 253.45667 
L 295.2 250.399556 
L 295.2 247.342442 
L 295.2 244.285328 
L 295.2 241.228214 
L 295.2 238.171099 
L 295.2 235.113985 
L 295.2 232.056871 
L 295.19998 228.999757 
L 295.196992 225.942643 
L 295.162753 222.885529 
L 295.162461 219.828415 
L 295.196691 216.771301 
L 295.187995 213.714187 
L 295.149202 210.657073 
L 295.182435 207.599959 
L 295.194899 204.542845 
L 295.157153 201.485731 
L 295.152768 198.428617 
L 295.146919 195.371503 
L 295.186149 192.314389 
L 295.199695 189.257275 
L 295.199999 186.200161 
L 295.2 183.143047 
L 295.2 180.085933 
L 295.199982 177.028819 
L 295.197112 173.971705 
L 295.163259 170.914591 
L 295.161962 167.857477 
L 295.19676 164.800363 
L 295.195754 161.743249 
L 295.158566 158.686135 
L 295.16597 155.629021 
L 295.17404 152.571907 
L 295.151813 149.514793 
L 295.192015 146.457679 
L 295.194603 143.400565 
L 295.155933 140.343451 
L 295.170125 137.286337 
L 295.198351 134.229223 
L 295.199993 131.172109 
L 295.2 128.114995 
L 295.2 125.057881 
L 295.2 122.000767 
L 295.2 118.943653 
L 295.2 115.886539 
L 295.199995 112.829425 
L 295.19867 109.772311 
L 295.172616 106.715197 
L 295.154094 103.658083 
L 295.193736 100.600969 
L 295.19993 97.543855 
L 295.2 94.486741 
L 295.2 91.429627 
L 295.2 88.372513 
L 295.2 85.315399 
L 295.2 82.258284 
L 295.2 79.20117 
L 295.199999 76.144056 
L 295.199661 73.086942 
L 295.185403 70.029828 
L 295.148836 66.972714 
L 295.251164 66.972714 
L 295.251164 66.972714 
L 295.214597 70.029828 
L 295.200339 73.086942 
L 295.200001 76.144056 
L 295.2 79.20117 
L 295.2 82.258284 
L 295.2 85.315399 
L 295.2 88.372513 
L 295.2 91.429627 
L 295.2 94.486741 
L 295.20007 97.543855 
L 295.206264 100.600969 
L 295.245906 103.658083 
L 295.227384 106.715197 
L 295.20133 109.772311 
L 295.200005 112.829425 
L 295.2 115.886539 
L 295.2 118.943653 
L 295.2 122.000767 
L 295.2 125.057881 
L 295.2 128.114995 
L 295.200007 131.172109 
L 295.201649 134.229223 
L 295.229875 137.286337 
L 295.244067 140.343451 
L 295.205397 143.400565 
L 295.207985 146.457679 
L 295.248187 149.514793 
L 295.22596 152.571907 
L 295.23403 155.629021 
L 295.241434 158.686135 
L 295.204246 161.743249 
L 295.20324 164.800363 
L 295.238038 167.857477 
L 295.236741 170.914591 
L 295.202888 173.971705 
L 295.200018 177.028819 
L 295.2 180.085933 
L 295.2 183.143047 
L 295.200001 186.200161 
L 295.200305 189.257275 
L 295.213851 192.314389 
L 295.253081 195.371503 
L 295.247232 198.428617 
L 295.242847 201.485731 
L 295.205101 204.542845 
L 295.217565 207.599959 
L 295.250798 210.657073 
L 295.212005 213.714187 
L 295.203309 216.771301 
L 295.237539 219.828415 
L 295.237247 222.885529 
L 295.203008 225.942643 
L 295.20002 228.999757 
L 295.2 232.056871 
L 295.2 235.113985 
L 295.2 238.171099 
L 295.2 241.228214 
L 295.2 244.285328 
L 295.2 247.342442 
L 295.2 250.399556 
L 295.2 253.45667 
L 295.2 256.513784 
L 295.2 259.570898 
L 295.2 262.628012 
L 295.2 265.685126 
L 295.2 268.74224 
L 295.2 271.799354 
L 295.2 274.856468 
L 295.200003 277.913582 
L 295.200905 280.970696 
L 295.225704 284.02781 
L 295.285441 287.084924 
L 295.272513 290.142038 
L 295.251085 293.199152 
L 295.218685 296.256266 
L 295.28876 299.31338 
L 295.322082 302.370494 
L 295.421876 305.427608 
L 295.374227 308.484722 
L 295.328222 311.541836 
L 295.278261 314.59895 
L 295.306126 317.656064 
L 295.35625 320.713178 
L 295.485868 323.770292 
L 295.512892 326.827406 
L 295.874345 329.88452 
L 296.035126 332.941634 
L 296.069317 335.998748 
L 296.098382 339.055862 
L 296.536041 342.112976 
L 297.655739 345.17009 
L 301.023061 348.227204 
L 306.497661 351.284318 
L 319.472924 354.341432 
L 345.838217 357.398546 
L 379.331453 360.45566 
L 406.8 363.512774 
L 401.850213 366.569888 
L 328.855074 369.627002 
z
" clip-path="url(#p4bf701b58f)" style="fill: #1f77b4; fill-opacity: 0.3"/>
   </g>
   <g id="matplotlib.axis_1">
    <g id="xtick_1">
     <g id="line2d_1">
      <defs>
       <path id="ma3099ff9e3" d="M 0 0 
L 0 3.5 
" style="stroke: #000000; stroke-width: 0.8"/>
      </defs>
      <g>
       <use xlink:href="#ma3099ff9e3" x="295.2" y="384.48" style="stroke: #000000; stroke-width: 0.8"/>
      </g>
     </g>
     <g id="text_1">
      <!-- 1 -->
      <g transform="translate(292.01875 399.078438) scale(0.1 -0.1)">
       <defs>
        <path id="DejaVuSans-31" d="M 794 531 
L 1825 531 
L 1825 4091 
L 703 3866 
L 703 4441 
L 1819 4666 
L 2450 4666 
L 2450 531 
L 3481 531 
L 3481 0 
L 794 0 
L 794 531 
z
" transform="scale(0.015625)"/>
       </defs>
       <use xlink:href="#DejaVuSans-31"/>
      </g>
     </g>
    </g>
   </g>
   <g id="matplotlib.axis_2">
    <g id="ytick_1">
     <g id="line2d_2">
      <defs>
       <path id="m3114b46398" d="M 0 0 
L -3.5 0 
" style="stroke: #000000; stroke-width: 0.8"/>
      </defs>
      <g>
       <use xlink:href="#m3114b46398" x="72" y="384.48" style="stroke: #000000; stroke-width: 0.8"/>
      </g>
     </g>
     <g id="text_2">
      <!-- 0 -->
      <g transform="translate(58.6375 388.279219) scale(0.1 -0.1)">
       <defs>
        <path id="DejaVuSans-30" d="M 2034 4250 
Q 1547 4250 1301 3770 
Q 1056 3291 1056 2328 
Q 1056 1369 1301 889 
Q 1547 409 2034 409 
Q 2525 409 2770 889 
Q 3016 1369 3016 2328 
Q 3016 3291 2770 3770 
Q 2525 4250 2034 4250 
z
M 2034 4750 
Q 2819 4750 3233 4129 
Q 3647 3509 3647 2328 
Q 3647 1150 3233 529 
Q 2819 -91 2034 -91 
Q 1250 -91 836 529 
Q 422 1150 422 2328 
Q 422 3509 836 4129 
Q 1250 4750 2034 4750 
z
" transform="scale(0.015625)"/>
       </defs>
       <use xlink:href="#DejaVuSans-30"/>
      </g>
     </g>
    </g>
    <g id="ytick_2">
     <g id="line2d_3">
      <g>
       <use xlink:href="#m3114b46398" x="72" y="340.654393" style="stroke: #000000; stroke-width: 0.8"/>
      </g>
     </g>
     <g id="text_3">
      <!-- 50 -->
      <g transform="translate(52.275 344.453612) scale(0.1 -0.1)">
       <defs>
        <path id="DejaVuSans-35" d="M 691 4666 
L 3169 4666 
L 3169 4134 
L 1269 4134 
L 1269 2991 
Q 1406 3038 1543 3061 
Q 1681 3084 1819 3084 
Q 2600 3084 3056 2656 
Q 3513 2228 3513 1497 
Q 3513 744 3044 326 
Q 2575 -91 1722 -91 
Q 1428 -91 1123 -41 
Q 819 9 494 109 
L 494 744 
Q 775 591 1075 516 
Q 1375 441 1709 441 
Q 2250 441 2565 725 
Q 2881 1009 2881 1497 
Q 2881 1984 2565 2268 
Q 2250 2553 1709 2553 
Q 1456 2553 1204 2497 
Q 953 2441 691 2322 
L 691 4666 
z
" transform="scale(0.015625)"/>
       </defs>
       <use xlink:href="#DejaVuSans-35"/>
       <use xlink:href="#DejaVuSans-30" transform="translate(63.623047 0)"/>
      </g>
     </g>
    </g>
    <g id="ytick_3">
     <g id="line2d_4">
      <g>
       <use xlink:href="#m3114b46398" x="72" y="296.828787" style="stroke: #000000; stroke-width: 0.8"/>
      </g>
     </g>
     <g id="text_4">
      <!-- 100 -->
      <g transform="translate(45.9125 300.628006) scale(0.1 -0.1)">
       <use xlink:href="#DejaVuSans-31"/>
       <use xlink:href="#DejaVuSans-30" transform="translate(63.623047 0)"/>
       <use xlink:href="#DejaVuSans-30" transform="translate(127.246094 0)"/>
      </g>
     </g>
    </g>
    <g id="ytick_4">
     <g id="line2d_5">
      <g>
       <use xlink:href="#m3114b46398" x="72" y="253.00318" style="stroke: #000000; stroke-width: 0.8"/>
      </g>
     </g>
     <g id="text_5">
      <!-- 150 -->
      <g transform="translate(45.9125 256.802399) scale(0.1 -0.1)">
       <use xlink:href="#DejaVuSans-31"/>
       <use xlink:href="#DejaVuSans-35" transform="translate(63.623047 0)"/>
       <use xlink:href="#DejaVuSans-30" transform="translate(127.246094 0)"/>
      </g>
     </g>
    </g>
    <g id="ytick_5">
     <g id="line2d_6">
      <g>
       <use xlink:href="#m3114b46398" x="72" y="209.177574" style="stroke: #000000; stroke-width: 0.8"/>
      </g>
     </g>
     <g id="text_6">
      <!-- 200 -->
      <g transform="translate(45.9125 212.976792) scale(0.1 -0.1)">
       <defs>
        <path id="DejaVuSans-32" d="M 1228 531 
L 3431 531 
L 3431 0 
L 469 0 
L 469 531 
Q 828 903 1448 1529 
Q 2069 2156 2228 2338 
Q 2531 2678 2651 2914 
Q 2772 3150 2772 3378 
Q 2772 3750 2511 3984 
Q 2250 4219 1831 4219 
Q 1534 4219 1204 4116 
Q 875 4013 500 3803 
L 500 4441 
Q 881 4594 1212 4672 
Q 1544 4750 1819 4750 
Q 2544 4750 2975 4387 
Q 3406 4025 3406 3419 
Q 3406 3131 3298 2873 
Q 3191 2616 2906 2266 
Q 2828 2175 2409 1742 
Q 1991 1309 1228 531 
z
" transform="scale(0.015625)"/>
       </defs>
       <use xlink:href="#DejaVuSans-32"/>
       <use xlink:href="#DejaVuSans-30" transform="translate(63.623047 0)"/>
       <use xlink:href="#DejaVuSans-30" transform="translate(127.246094 0)"/>
      </g>
     </g>
    </g>
    <g id="ytick_6">
     <g id="line2d_7">
      <g>
       <use xlink:href="#m3114b46398" x="72" y="165.351967" style="stroke: #000000; stroke-width: 0.8"/>
      </g>
     </g>
     <g id="text_7">
      <!-- 250 -->
      <g transform="translate(45.9125 169.151186) scale(0.1 -0.1)">
       <use xlink:href="#DejaVuSans-32"/>
       <use xlink:href="#DejaVuSans-35" transform="translate(63.623047 0)"/>
       <use xlink:href="#DejaVuSans-30" transform="translate(127.246094 0)"/>
      </g>
     </g>
    </g>
    <g id="ytick_7">
     <g id="line2d_8">
      <g>
       <use xlink:href="#m3114b46398" x="72" y="121.526361" style="stroke: #000000; stroke-width: 0.8"/>
      </g>
     </g>
     <g id="text_8">
      <!-- 300 -->
      <g transform="translate(45.9125 125.325579) scale(0.1 -0.1)">
       <defs>
        <path id="DejaVuSans-33" d="M 2597 2516 
Q 3050 2419 3304 2112 
Q 3559 1806 3559 1356 
Q 3559 666 3084 287 
Q 2609 -91 1734 -91 
Q 1441 -91 1130 -33 
Q 819 25 488 141 
L 488 750 
Q 750 597 1062 519 
Q 1375 441 1716 441 
Q 2309 441 2620 675 
Q 2931 909 2931 1356 
Q 2931 1769 2642 2001 
Q 2353 2234 1838 2234 
L 1294 2234 
L 1294 2753 
L 1863 2753 
Q 2328 2753 2575 2939 
Q 2822 3125 2822 3475 
Q 2822 3834 2567 4026 
Q 2313 4219 1838 4219 
Q 1578 4219 1281 4162 
Q 984 4106 628 3988 
L 628 4550 
Q 988 4650 1302 4700 
Q 1616 4750 1894 4750 
Q 2613 4750 3031 4423 
Q 3450 4097 3450 3541 
Q 3450 3153 3228 2886 
Q 3006 2619 2597 2516 
z
" transform="scale(0.015625)"/>
       </defs>
       <use xlink:href="#DejaVuSans-33"/>
       <use xlink:href="#DejaVuSans-30" transform="translate(63.623047 0)"/>
       <use xlink:href="#DejaVuSans-30" transform="translate(127.246094 0)"/>
      </g>
     </g>
    </g>
    <g id="ytick_8">
     <g id="line2d_9">
      <g>
       <use xlink:href="#m3114b46398" x="72" y="77.700754" style="stroke: #000000; stroke-width: 0.8"/>
      </g>
     </g>
     <g id="text_9">
      <!-- 350 -->
      <g transform="translate(45.9125 81.499973) scale(0.1 -0.1)">
       <use xlink:href="#DejaVuSans-33"/>
       <use xlink:href="#DejaVuSans-35" transform="translate(63.623047 0)"/>
       <use xlink:href="#DejaVuSans-30" transform="translate(127.246094 0)"/>
      </g>
     </g>
    </g>
    <g id="text_10">
     <!-- Time (ms) -->
     <g transform="translate(39.832812 243.359219) rotate(-90) scale(0.1 -0.1)">
      <defs>
       <path id="DejaVuSans-54" d="M -19 4666 
L 3928 4666 
L 3928 4134 
L 2272 4134 
L 2272 0 
L 1638 0 
L 1638 4134 
L -19 4134 
L -19 4666 
z
" transform="scale(0.015625)"/>
       <path id="DejaVuSans-69" d="M 603 3500 
L 1178 3500 
L 1178 0 
L 603 0 
L 603 3500 
z
M 603 4863 
L 1178 4863 
L 1178 4134 
L 603 4134 
L 603 4863 
z
" transform="scale(0.015625)"/>
       <path id="DejaVuSans-6d" d="M 3328 2828 
Q 3544 3216 3844 3400 
Q 4144 3584 4550 3584 
Q 5097 3584 5394 3201 
Q 5691 2819 5691 2113 
L 5691 0 
L 5113 0 
L 5113 2094 
Q 5113 2597 4934 2840 
Q 4756 3084 4391 3084 
Q 3944 3084 3684 2787 
Q 3425 2491 3425 1978 
L 3425 0 
L 2847 0 
L 2847 2094 
Q 2847 2600 2669 2842 
Q 2491 3084 2119 3084 
Q 1678 3084 1418 2786 
Q 1159 2488 1159 1978 
L 1159 0 
L 581 0 
L 581 3500 
L 1159 3500 
L 1159 2956 
Q 1356 3278 1631 3431 
Q 1906 3584 2284 3584 
Q 2666 3584 2933 3390 
Q 3200 3197 3328 2828 
z
" transform="scale(0.015625)"/>
       <path id="DejaVuSans-65" d="M 3597 1894 
L 3597 1613 
L 953 1613 
Q 991 1019 1311 708 
Q 1631 397 2203 397 
Q 2534 397 2845 478 
Q 3156 559 3463 722 
L 3463 178 
Q 3153 47 2828 -22 
Q 2503 -91 2169 -91 
Q 1331 -91 842 396 
Q 353 884 353 1716 
Q 353 2575 817 3079 
Q 1281 3584 2069 3584 
Q 2775 3584 3186 3129 
Q 3597 2675 3597 1894 
z
M 3022 2063 
Q 3016 2534 2758 2815 
Q 2500 3097 2075 3097 
Q 1594 3097 1305 2825 
Q 1016 2553 972 2059 
L 3022 2063 
z
" transform="scale(0.015625)"/>
       <path id="DejaVuSans-20" transform="scale(0.015625)"/>
       <path id="DejaVuSans-28" d="M 1984 4856 
Q 1566 4138 1362 3434 
Q 1159 2731 1159 2009 
Q 1159 1288 1364 580 
Q 1569 -128 1984 -844 
L 1484 -844 
Q 1016 -109 783 600 
Q 550 1309 550 2009 
Q 550 2706 781 3412 
Q 1013 4119 1484 4856 
L 1984 4856 
z
" transform="scale(0.015625)"/>
       <path id="DejaVuSans-73" d="M 2834 3397 
L 2834 2853 
Q 2591 2978 2328 3040 
Q 2066 3103 1784 3103 
Q 1356 3103 1142 2972 
Q 928 2841 928 2578 
Q 928 2378 1081 2264 
Q 1234 2150 1697 2047 
L 1894 2003 
Q 2506 1872 2764 1633 
Q 3022 1394 3022 966 
Q 3022 478 2636 193 
Q 2250 -91 1575 -91 
Q 1294 -91 989 -36 
Q 684 19 347 128 
L 347 722 
Q 666 556 975 473 
Q 1284 391 1588 391 
Q 1994 391 2212 530 
Q 2431 669 2431 922 
Q 2431 1156 2273 1281 
Q 2116 1406 1581 1522 
L 1381 1569 
Q 847 1681 609 1914 
Q 372 2147 372 2553 
Q 372 3047 722 3315 
Q 1072 3584 1716 3584 
Q 2034 3584 2315 3537 
Q 2597 3491 2834 3397 
z
" transform="scale(0.015625)"/>
       <path id="DejaVuSans-29" d="M 513 4856 
L 1013 4856 
Q 1481 4119 1714 3412 
Q 1947 2706 1947 2009 
Q 1947 1309 1714 600 
Q 1481 -109 1013 -844 
L 513 -844 
Q 928 -128 1133 580 
Q 1338 1288 1338 2009 
Q 1338 2731 1133 3434 
Q 928 4138 513 4856 
z
" transform="scale(0.015625)"/>
      </defs>
      <use xlink:href="#DejaVuSans-54"/>
      <use xlink:href="#DejaVuSans-69" transform="translate(57.958984 0)"/>
      <use xlink:href="#DejaVuSans-6d" transform="translate(85.742188 0)"/>
      <use xlink:href="#DejaVuSans-65" transform="translate(183.154297 0)"/>
      <use xlink:href="#DejaVuSans-20" transform="translate(244.677734 0)"/>
      <use xlink:href="#DejaVuSans-28" transform="translate(276.464844 0)"/>
      <use xlink:href="#DejaVuSans-6d" transform="translate(315.478516 0)"/>
      <use xlink:href="#DejaVuSans-73" transform="translate(412.890625 0)"/>
      <use xlink:href="#DejaVuSans-29" transform="translate(464.990234 0)"/>
     </g>
    </g>
   </g>
   <g id="LineCollection_1">
    <path d="M 239.4 361.469271 
L 351 361.469271 
" clip-path="url(#p4bf701b58f)" style="fill: none; stroke: #1f77b4; stroke-width: 1.5"/>
   </g>
   <g id="LineCollection_2">
    <path d="M 239.4 66.972714 
L 351 66.972714 
" clip-path="url(#p4bf701b58f)" style="fill: none; stroke: #1f77b4; stroke-width: 1.5"/>
   </g>
   <g id="LineCollection_3">
    <path d="M 239.4 369.627002 
L 351 369.627002 
" clip-path="url(#p4bf701b58f)" style="fill: none; stroke: #1f77b4; stroke-width: 1.5"/>
   </g>
   <g id="LineCollection_4">
    <path d="M 295.2 369.627002 
L 295.2 66.972714 
" clip-path="url(#p4bf701b58f)" style="fill: none; stroke: #1f77b4; stroke-width: 1.5"/>
   </g>
   <g id="patch_3">
    <path d="M 250.56 365.907941 
L 339.84 365.907941 
L 339.84 359.462507 
L 250.56 359.462507 
L 250.56 365.907941 
z
" clip-path="url(#p4bf701b58f)" style="fill: #1f77b4; stroke: #000000; stroke-linejoin: miter"/>
   </g>
   <g id="line2d_10">
    <path d="M 295.2 365.907941 
L 295.2 369.627002 
" clip-path="url(#p4bf701b58f)" style="fill: none; stroke: #000000; stroke-linecap: square"/>
   </g>
   <g id="line2d_11">
    <path d="M 295.2 359.462507 
L 295.2 349.794955 
" clip-path="url(#p4bf701b58f)" style="fill: none; stroke: #000000; stroke-linecap: square"/>
   </g>
   <g id="line2d_12">
    <path d="M 272.88 369.627002 
L 317.52 369.627002 
" clip-path="url(#p4bf701b58f)" style="fill: none; stroke: #000000; stroke-linecap: square"/>
   </g>
   <g id="line2d_13">
    <path d="M 272.88 349.794955 
L 317.52 349.794955 
" clip-path="url(#p4bf701b58f)" style="fill: none; stroke: #000000; stroke-linecap: square"/>
   </g>
   <g id="line2d_14">
    <defs>
     <path id="m29296b29ee" d="M 0 3 
C 0.795609 3 1.55874 2.683901 2.12132 2.12132 
C 2.683901 1.55874 3 0.795609 3 0 
C 3 -0.795609 2.683901 -1.55874 2.12132 -2.12132 
C 1.55874 -2.683901 0.795609 -3 0 -3 
C -0.795609 -3 -1.55874 -2.683901 -2.12132 -2.12132 
C -2.683901 -1.55874 -3 -0.795609 -3 0 
C -3 0.795609 -2.683901 1.55874 -2.12132 2.12132 
C -1.55874 2.683901 -0.795609 3 0 3 
z
" style="stroke: #000000"/>
    </defs>
    <g clip-path="url(#p4bf701b58f)">
     <use xlink:href="#m29296b29ee" x="295.2" y="104.556988" style="fill-opacity: 0; stroke: #000000"/>
     <use xlink:href="#m29296b29ee" x="295.2" y="323.289762" style="fill-opacity: 0; stroke: #000000"/>
     <use xlink:href="#m29296b29ee" x="295.2" y="342.923445" style="fill-opacity: 0; stroke: #000000"/>
     <use xlink:href="#m29296b29ee" x="295.2" y="343.47374" style="fill-opacity: 0; stroke: #000000"/>
     <use xlink:href="#m29296b29ee" x="295.2" y="348.863978" style="fill-opacity: 0; stroke: #000000"/>
     <use xlink:href="#m29296b29ee" x="295.2" y="348.719698" style="fill-opacity: 0; stroke: #000000"/>
     <use xlink:href="#m29296b29ee" x="295.2" y="343.232778" style="fill-opacity: 0; stroke: #000000"/>
     <use xlink:href="#m29296b29ee" x="295.2" y="349.729129" style="fill-opacity: 0; stroke: #000000"/>
     <use xlink:href="#m29296b29ee" x="295.2" y="347.888031" style="fill-opacity: 0; stroke: #000000"/>
     <use xlink:href="#m29296b29ee" x="295.2" y="309.73607" style="fill-opacity: 0; stroke: #000000"/>
     <use xlink:href="#m29296b29ee" x="295.2" y="348.80034" style="fill-opacity: 0; stroke: #000000"/>
     <use xlink:href="#m29296b29ee" x="295.2" y="347.88654" style="fill-opacity: 0; stroke: #000000"/>
     <use xlink:href="#m29296b29ee" x="295.2" y="331.079896" style="fill-opacity: 0; stroke: #000000"/>
     <use xlink:href="#m29296b29ee" x="295.2" y="329.931077" style="fill-opacity: 0; stroke: #000000"/>
     <use xlink:href="#m29296b29ee" x="295.2" y="342.494979" style="fill-opacity: 0; stroke: #000000"/>
     <use xlink:href="#m29296b29ee" x="295.2" y="348.206834" style="fill-opacity: 0; stroke: #000000"/>
     <use xlink:href="#m29296b29ee" x="295.2" y="348.295975" style="fill-opacity: 0; stroke: #000000"/>
     <use xlink:href="#m29296b29ee" x="295.2" y="347.03652" style="fill-opacity: 0; stroke: #000000"/>
     <use xlink:href="#m29296b29ee" x="295.2" y="345.637554" style="fill-opacity: 0; stroke: #000000"/>
     <use xlink:href="#m29296b29ee" x="295.2" y="349.676687" style="fill-opacity: 0; stroke: #000000"/>
     <use xlink:href="#m29296b29ee" x="295.2" y="139.288573" style="fill-opacity: 0; stroke: #000000"/>
     <use xlink:href="#m29296b29ee" x="295.2" y="335.05259" style="fill-opacity: 0; stroke: #000000"/>
     <use xlink:href="#m29296b29ee" x="295.2" y="346.058899" style="fill-opacity: 0; stroke: #000000"/>
     <use xlink:href="#m29296b29ee" x="295.2" y="336.453559" style="fill-opacity: 0; stroke: #000000"/>
     <use xlink:href="#m29296b29ee" x="295.2" y="349.134029" style="fill-opacity: 0; stroke: #000000"/>
     <use xlink:href="#m29296b29ee" x="295.2" y="306.950766" style="fill-opacity: 0; stroke: #000000"/>
     <use xlink:href="#m29296b29ee" x="295.2" y="344.765932" style="fill-opacity: 0; stroke: #000000"/>
     <use xlink:href="#m29296b29ee" x="295.2" y="349.691524" style="fill-opacity: 0; stroke: #000000"/>
     <use xlink:href="#m29296b29ee" x="295.2" y="337.304616" style="fill-opacity: 0; stroke: #000000"/>
     <use xlink:href="#m29296b29ee" x="295.2" y="343.197671" style="fill-opacity: 0; stroke: #000000"/>
     <use xlink:href="#m29296b29ee" x="295.2" y="345.672408" style="fill-opacity: 0; stroke: #000000"/>
     <use xlink:href="#m29296b29ee" x="295.2" y="221.347456" style="fill-opacity: 0; stroke: #000000"/>
     <use xlink:href="#m29296b29ee" x="295.2" y="337.822127" style="fill-opacity: 0; stroke: #000000"/>
     <use xlink:href="#m29296b29ee" x="295.2" y="348.774178" style="fill-opacity: 0; stroke: #000000"/>
     <use xlink:href="#m29296b29ee" x="295.2" y="340.831945" style="fill-opacity: 0; stroke: #000000"/>
     <use xlink:href="#m29296b29ee" x="295.2" y="337.469655" style="fill-opacity: 0; stroke: #000000"/>
     <use xlink:href="#m29296b29ee" x="295.2" y="349.434943" style="fill-opacity: 0; stroke: #000000"/>
     <use xlink:href="#m29296b29ee" x="295.2" y="348.450458" style="fill-opacity: 0; stroke: #000000"/>
     <use xlink:href="#m29296b29ee" x="295.2" y="349.120163" style="fill-opacity: 0; stroke: #000000"/>
     <use xlink:href="#m29296b29ee" x="295.2" y="313.070286" style="fill-opacity: 0; stroke: #000000"/>
     <use xlink:href="#m29296b29ee" x="295.2" y="332.06003" style="fill-opacity: 0; stroke: #000000"/>
     <use xlink:href="#m29296b29ee" x="295.2" y="348.854824" style="fill-opacity: 0; stroke: #000000"/>
     <use xlink:href="#m29296b29ee" x="295.2" y="349.369638" style="fill-opacity: 0; stroke: #000000"/>
     <use xlink:href="#m29296b29ee" x="295.2" y="329.379017" style="fill-opacity: 0; stroke: #000000"/>
     <use xlink:href="#m29296b29ee" x="295.2" y="341.489203" style="fill-opacity: 0; stroke: #000000"/>
     <use xlink:href="#m29296b29ee" x="295.2" y="345.868585" style="fill-opacity: 0; stroke: #000000"/>
     <use xlink:href="#m29296b29ee" x="295.2" y="336.228333" style="fill-opacity: 0; stroke: #000000"/>
     <use xlink:href="#m29296b29ee" x="295.2" y="347.324932" style="fill-opacity: 0; stroke: #000000"/>
     <use xlink:href="#m29296b29ee" x="295.2" y="342.366833" style="fill-opacity: 0; stroke: #000000"/>
     <use xlink:href="#m29296b29ee" x="295.2" y="349.464309" style="fill-opacity: 0; stroke: #000000"/>
     <use xlink:href="#m29296b29ee" x="295.2" y="331.200633" style="fill-opacity: 0; stroke: #000000"/>
     <use xlink:href="#m29296b29ee" x="295.2" y="347.18937" style="fill-opacity: 0; stroke: #000000"/>
     <use xlink:href="#m29296b29ee" x="295.2" y="338.784751" style="fill-opacity: 0; stroke: #000000"/>
     <use xlink:href="#m29296b29ee" x="295.2" y="347.854604" style="fill-opacity: 0; stroke: #000000"/>
     <use xlink:href="#m29296b29ee" x="295.2" y="336.601023" style="fill-opacity: 0; stroke: #000000"/>
     <use xlink:href="#m29296b29ee" x="295.2" y="349.198659" style="fill-opacity: 0; stroke: #000000"/>
     <use xlink:href="#m29296b29ee" x="295.2" y="345.090757" style="fill-opacity: 0; stroke: #000000"/>
     <use xlink:href="#m29296b29ee" x="295.2" y="66.972714" style="fill-opacity: 0; stroke: #000000"/>
     <use xlink:href="#m29296b29ee" x="295.2" y="286.466474" style="fill-opacity: 0; stroke: #000000"/>
     <use xlink:href="#m29296b29ee" x="295.2" y="345.757167" style="fill-opacity: 0; stroke: #000000"/>
     <use xlink:href="#m29296b29ee" x="295.2" y="322.983288" style="fill-opacity: 0; stroke: #000000"/>
     <use xlink:href="#m29296b29ee" x="295.2" y="341.85458" style="fill-opacity: 0; stroke: #000000"/>
     <use xlink:href="#m29296b29ee" x="295.2" y="345.550388" style="fill-opacity: 0; stroke: #000000"/>
     <use xlink:href="#m29296b29ee" x="295.2" y="348.368152" style="fill-opacity: 0; stroke: #000000"/>
     <use xlink:href="#m29296b29ee" x="295.2" y="345.797225" style="fill-opacity: 0; stroke: #000000"/>
     <use xlink:href="#m29296b29ee" x="295.2" y="322.410064" style="fill-opacity: 0; stroke: #000000"/>
     <use xlink:href="#m29296b29ee" x="295.2" y="345.80184" style="fill-opacity: 0; stroke: #000000"/>
     <use xlink:href="#m29296b29ee" x="295.2" y="288.719475" style="fill-opacity: 0; stroke: #000000"/>
     <use xlink:href="#m29296b29ee" x="295.2" y="345.337317" style="fill-opacity: 0; stroke: #000000"/>
     <use xlink:href="#m29296b29ee" x="295.2" y="333.496289" style="fill-opacity: 0; stroke: #000000"/>
     <use xlink:href="#m29296b29ee" x="295.2" y="347.953894" style="fill-opacity: 0; stroke: #000000"/>
     <use xlink:href="#m29296b29ee" x="295.2" y="348.362125" style="fill-opacity: 0; stroke: #000000"/>
     <use xlink:href="#m29296b29ee" x="295.2" y="347.363493" style="fill-opacity: 0; stroke: #000000"/>
     <use xlink:href="#m29296b29ee" x="295.2" y="169.343748" style="fill-opacity: 0; stroke: #000000"/>
     <use xlink:href="#m29296b29ee" x="295.2" y="327.870249" style="fill-opacity: 0; stroke: #000000"/>
     <use xlink:href="#m29296b29ee" x="295.2" y="333.344511" style="fill-opacity: 0; stroke: #000000"/>
     <use xlink:href="#m29296b29ee" x="295.2" y="348.133174" style="fill-opacity: 0; stroke: #000000"/>
     <use xlink:href="#m29296b29ee" x="295.2" y="340.182212" style="fill-opacity: 0; stroke: #000000"/>
     <use xlink:href="#m29296b29ee" x="295.2" y="347.299894" style="fill-opacity: 0; stroke: #000000"/>
     <use xlink:href="#m29296b29ee" x="295.2" y="348.649394" style="fill-opacity: 0; stroke: #000000"/>
     <use xlink:href="#m29296b29ee" x="295.2" y="334.056034" style="fill-opacity: 0; stroke: #000000"/>
     <use xlink:href="#m29296b29ee" x="295.2" y="300.852198" style="fill-opacity: 0; stroke: #000000"/>
     <use xlink:href="#m29296b29ee" x="295.2" y="349.517211" style="fill-opacity: 0; stroke: #000000"/>
     <use xlink:href="#m29296b29ee" x="295.2" y="330.366846" style="fill-opacity: 0; stroke: #000000"/>
     <use xlink:href="#m29296b29ee" x="295.2" y="339.919676" style="fill-opacity: 0; stroke: #000000"/>
     <use xlink:href="#m29296b29ee" x="295.2" y="335.90729" style="fill-opacity: 0; stroke: #000000"/>
     <use xlink:href="#m29296b29ee" x="295.2" y="335.050957" style="fill-opacity: 0; stroke: #000000"/>
     <use xlink:href="#m29296b29ee" x="295.2" y="337.295269" style="fill-opacity: 0; stroke: #000000"/>
     <use xlink:href="#m29296b29ee" x="295.2" y="341.153096" style="fill-opacity: 0; stroke: #000000"/>
     <use xlink:href="#m29296b29ee" x="295.2" y="150.184551" style="fill-opacity: 0; stroke: #000000"/>
     <use xlink:href="#m29296b29ee" x="295.2" y="324.144651" style="fill-opacity: 0; stroke: #000000"/>
     <use xlink:href="#m29296b29ee" x="295.2" y="342.814573" style="fill-opacity: 0; stroke: #000000"/>
     <use xlink:href="#m29296b29ee" x="295.2" y="348.54377" style="fill-opacity: 0; stroke: #000000"/>
     <use xlink:href="#m29296b29ee" x="295.2" y="347.694222" style="fill-opacity: 0; stroke: #000000"/>
     <use xlink:href="#m29296b29ee" x="295.2" y="346.483622" style="fill-opacity: 0; stroke: #000000"/>
     <use xlink:href="#m29296b29ee" x="295.2" y="346.303667" style="fill-opacity: 0; stroke: #000000"/>
     <use xlink:href="#m29296b29ee" x="295.2" y="327.590655" style="fill-opacity: 0; stroke: #000000"/>
     <use xlink:href="#m29296b29ee" x="295.2" y="329.885082" style="fill-opacity: 0; stroke: #000000"/>
     <use xlink:href="#m29296b29ee" x="295.2" y="348.81807" style="fill-opacity: 0; stroke: #000000"/>
     <use xlink:href="#m29296b29ee" x="295.2" y="348.878375" style="fill-opacity: 0; stroke: #000000"/>
     <use xlink:href="#m29296b29ee" x="295.2" y="292.441241" style="fill-opacity: 0; stroke: #000000"/>
     <use xlink:href="#m29296b29ee" x="295.2" y="349.02388" style="fill-opacity: 0; stroke: #000000"/>
     <use xlink:href="#m29296b29ee" x="295.2" y="334.58629" style="fill-opacity: 0; stroke: #000000"/>
     <use xlink:href="#m29296b29ee" x="295.2" y="349.35749" style="fill-opacity: 0; stroke: #000000"/>
     <use xlink:href="#m29296b29ee" x="295.2" y="349.685928" style="fill-opacity: 0; stroke: #000000"/>
     <use xlink:href="#m29296b29ee" x="295.2" y="347.232855" style="fill-opacity: 0; stroke: #000000"/>
     <use xlink:href="#m29296b29ee" x="295.2" y="345.497316" style="fill-opacity: 0; stroke: #000000"/>
     <use xlink:href="#m29296b29ee" x="295.2" y="348.53381" style="fill-opacity: 0; stroke: #000000"/>
     <use xlink:href="#m29296b29ee" x="295.2" y="329.951001" style="fill-opacity: 0; stroke: #000000"/>
     <use xlink:href="#m29296b29ee" x="295.2" y="348.905105" style="fill-opacity: 0; stroke: #000000"/>
     <use xlink:href="#m29296b29ee" x="295.2" y="157.432195" style="fill-opacity: 0; stroke: #000000"/>
     <use xlink:href="#m29296b29ee" x="295.2" y="299.927345" style="fill-opacity: 0; stroke: #000000"/>
     <use xlink:href="#m29296b29ee" x="295.2" y="329.026704" style="fill-opacity: 0; stroke: #000000"/>
     <use xlink:href="#m29296b29ee" x="295.2" y="305.370239" style="fill-opacity: 0; stroke: #000000"/>
     <use xlink:href="#m29296b29ee" x="295.2" y="333.862485" style="fill-opacity: 0; stroke: #000000"/>
     <use xlink:href="#m29296b29ee" x="295.2" y="333.374147" style="fill-opacity: 0; stroke: #000000"/>
     <use xlink:href="#m29296b29ee" x="295.2" y="330.327798" style="fill-opacity: 0; stroke: #000000"/>
     <use xlink:href="#m29296b29ee" x="295.2" y="336.537341" style="fill-opacity: 0; stroke: #000000"/>
     <use xlink:href="#m29296b29ee" x="295.2" y="347.732295" style="fill-opacity: 0; stroke: #000000"/>
     <use xlink:href="#m29296b29ee" x="295.2" y="339.77969" style="fill-opacity: 0; stroke: #000000"/>
     <use xlink:href="#m29296b29ee" x="295.2" y="349.787328" style="fill-opacity: 0; stroke: #000000"/>
     <use xlink:href="#m29296b29ee" x="295.2" y="347.680315" style="fill-opacity: 0; stroke: #000000"/>
     <use xlink:href="#m29296b29ee" x="295.2" y="349.272518" style="fill-opacity: 0; stroke: #000000"/>
     <use xlink:href="#m29296b29ee" x="295.2" y="332.021685" style="fill-opacity: 0; stroke: #000000"/>
     <use xlink:href="#m29296b29ee" x="295.2" y="349.628932" style="fill-opacity: 0; stroke: #000000"/>
     <use xlink:href="#m29296b29ee" x="295.2" y="304.114901" style="fill-opacity: 0; stroke: #000000"/>
     <use xlink:href="#m29296b29ee" x="295.2" y="311.945662" style="fill-opacity: 0; stroke: #000000"/>
     <use xlink:href="#m29296b29ee" x="295.2" y="346.88018" style="fill-opacity: 0; stroke: #000000"/>
     <use xlink:href="#m29296b29ee" x="295.2" y="337.659391" style="fill-opacity: 0; stroke: #000000"/>
     <use xlink:href="#m29296b29ee" x="295.2" y="342.339934" style="fill-opacity: 0; stroke: #000000"/>
     <use xlink:href="#m29296b29ee" x="295.2" y="342.754379" style="fill-opacity: 0; stroke: #000000"/>
     <use xlink:href="#m29296b29ee" x="295.2" y="195.435588" style="fill-opacity: 0; stroke: #000000"/>
     <use xlink:href="#m29296b29ee" x="295.2" y="338.168413" style="fill-opacity: 0; stroke: #000000"/>
     <use xlink:href="#m29296b29ee" x="295.2" y="347.315851" style="fill-opacity: 0; stroke: #000000"/>
     <use xlink:href="#m29296b29ee" x="295.2" y="349.340404" style="fill-opacity: 0; stroke: #000000"/>
     <use xlink:href="#m29296b29ee" x="295.2" y="348.839723" style="fill-opacity: 0; stroke: #000000"/>
     <use xlink:href="#m29296b29ee" x="295.2" y="341.511377" style="fill-opacity: 0; stroke: #000000"/>
     <use xlink:href="#m29296b29ee" x="295.2" y="345.235023" style="fill-opacity: 0; stroke: #000000"/>
     <use xlink:href="#m29296b29ee" x="295.2" y="331.118107" style="fill-opacity: 0; stroke: #000000"/>
     <use xlink:href="#m29296b29ee" x="295.2" y="347.733887" style="fill-opacity: 0; stroke: #000000"/>
     <use xlink:href="#m29296b29ee" x="295.2" y="344.988283" style="fill-opacity: 0; stroke: #000000"/>
     <use xlink:href="#m29296b29ee" x="295.2" y="349.424744" style="fill-opacity: 0; stroke: #000000"/>
     <use xlink:href="#m29296b29ee" x="295.2" y="306.790611" style="fill-opacity: 0; stroke: #000000"/>
     <use xlink:href="#m29296b29ee" x="295.2" y="347.196652" style="fill-opacity: 0; stroke: #000000"/>
     <use xlink:href="#m29296b29ee" x="295.2" y="332.825071" style="fill-opacity: 0; stroke: #000000"/>
     <use xlink:href="#m29296b29ee" x="295.2" y="341.900388" style="fill-opacity: 0; stroke: #000000"/>
     <use xlink:href="#m29296b29ee" x="295.2" y="343.784019" style="fill-opacity: 0; stroke: #000000"/>
     <use xlink:href="#m29296b29ee" x="295.2" y="349.158808" style="fill-opacity: 0; stroke: #000000"/>
     <use xlink:href="#m29296b29ee" x="295.2" y="200.30762" style="fill-opacity: 0; stroke: #000000"/>
     <use xlink:href="#m29296b29ee" x="295.2" y="325.71146" style="fill-opacity: 0; stroke: #000000"/>
     <use xlink:href="#m29296b29ee" x="295.2" y="347.68106" style="fill-opacity: 0; stroke: #000000"/>
     <use xlink:href="#m29296b29ee" x="295.2" y="348.094362" style="fill-opacity: 0; stroke: #000000"/>
     <use xlink:href="#m29296b29ee" x="295.2" y="349.068842" style="fill-opacity: 0; stroke: #000000"/>
     <use xlink:href="#m29296b29ee" x="295.2" y="345.40584" style="fill-opacity: 0; stroke: #000000"/>
     <use xlink:href="#m29296b29ee" x="295.2" y="344.297244" style="fill-opacity: 0; stroke: #000000"/>
     <use xlink:href="#m29296b29ee" x="295.2" y="348.744776" style="fill-opacity: 0; stroke: #000000"/>
     <use xlink:href="#m29296b29ee" x="295.2" y="317.874959" style="fill-opacity: 0; stroke: #000000"/>
     <use xlink:href="#m29296b29ee" x="295.2" y="339.438561" style="fill-opacity: 0; stroke: #000000"/>
     <use xlink:href="#m29296b29ee" x="295.2" y="306.456336" style="fill-opacity: 0; stroke: #000000"/>
     <use xlink:href="#m29296b29ee" x="295.2" y="347.863198" style="fill-opacity: 0; stroke: #000000"/>
     <use xlink:href="#m29296b29ee" x="295.2" y="348.673843" style="fill-opacity: 0; stroke: #000000"/>
     <use xlink:href="#m29296b29ee" x="295.2" y="339.161567" style="fill-opacity: 0; stroke: #000000"/>
     <use xlink:href="#m29296b29ee" x="295.2" y="347.302374" style="fill-opacity: 0; stroke: #000000"/>
     <use xlink:href="#m29296b29ee" x="295.2" y="342.860746" style="fill-opacity: 0; stroke: #000000"/>
     <use xlink:href="#m29296b29ee" x="295.2" y="344.154237" style="fill-opacity: 0; stroke: #000000"/>
     <use xlink:href="#m29296b29ee" x="295.2" y="348.072132" style="fill-opacity: 0; stroke: #000000"/>
     <use xlink:href="#m29296b29ee" x="295.2" y="348.922947" style="fill-opacity: 0; stroke: #000000"/>
     <use xlink:href="#m29296b29ee" x="295.2" y="210.42557" style="fill-opacity: 0; stroke: #000000"/>
     <use xlink:href="#m29296b29ee" x="295.2" y="332.524873" style="fill-opacity: 0; stroke: #000000"/>
     <use xlink:href="#m29296b29ee" x="295.2" y="346.066033" style="fill-opacity: 0; stroke: #000000"/>
     <use xlink:href="#m29296b29ee" x="295.2" y="348.962846" style="fill-opacity: 0; stroke: #000000"/>
     <use xlink:href="#m29296b29ee" x="295.2" y="345.315972" style="fill-opacity: 0; stroke: #000000"/>
     <use xlink:href="#m29296b29ee" x="295.2" y="323.463483" style="fill-opacity: 0; stroke: #000000"/>
     <use xlink:href="#m29296b29ee" x="295.2" y="318.497494" style="fill-opacity: 0; stroke: #000000"/>
     <use xlink:href="#m29296b29ee" x="295.2" y="347.455886" style="fill-opacity: 0; stroke: #000000"/>
     <use xlink:href="#m29296b29ee" x="295.2" y="349.244184" style="fill-opacity: 0; stroke: #000000"/>
     <use xlink:href="#m29296b29ee" x="295.2" y="334.64239" style="fill-opacity: 0; stroke: #000000"/>
     <use xlink:href="#m29296b29ee" x="295.2" y="348.703091" style="fill-opacity: 0; stroke: #000000"/>
     <use xlink:href="#m29296b29ee" x="295.2" y="348.966845" style="fill-opacity: 0; stroke: #000000"/>
     <use xlink:href="#m29296b29ee" x="295.2" y="342.413073" style="fill-opacity: 0; stroke: #000000"/>
     <use xlink:href="#m29296b29ee" x="295.2" y="342.075077" style="fill-opacity: 0; stroke: #000000"/>
     <use xlink:href="#m29296b29ee" x="295.2" y="346.423535" style="fill-opacity: 0; stroke: #000000"/>
     <use xlink:href="#m29296b29ee" x="295.2" y="348.176719" style="fill-opacity: 0; stroke: #000000"/>
     <use xlink:href="#m29296b29ee" x="295.2" y="347.527207" style="fill-opacity: 0; stroke: #000000"/>
    </g>
   </g>
   <g id="line2d_15">
    <path d="M 250.56 363.095394 
L 339.84 363.095394 
" clip-path="url(#p4bf701b58f)" style="fill: none; stroke: #ff7f0e"/>
   </g>
   <g id="patch_4">
    <path d="M 72 384.48 
L 72 51.84 
" style="fill: none; stroke: #000000; stroke-width: 0.8; stroke-linejoin: miter; stroke-linecap: square"/>
   </g>
   <g id="patch_5">
    <path d="M 518.4 384.48 
L 518.4 51.84 
" style="fill: none; stroke: #000000; stroke-width: 0.8; stroke-linejoin: miter; stroke-linecap: square"/>
   </g>
   <g id="patch_6">
    <path d="M 72 384.48 
L 518.4 384.48 
" style="fill: none; stroke: #000000; stroke-width: 0.8; stroke-linejoin: miter; stroke-linecap: square"/>
   </g>
   <g id="patch_7">
    <path d="M 72 51.84 
L 518.4 51.84 
" style="fill: none; stroke: #000000; stroke-width: 0.8; stroke-linejoin: miter; stroke-linecap: square"/>
   </g>
   <g id="text_11">
    <!-- Test Method -->
    <g transform="translate(258.975 45.84) scale(0.12 -0.12)">
     <defs>
      <path id="DejaVuSans-74" d="M 1172 4494 
L 1172 3500 
L 2356 3500 
L 2356 3053 
L 1172 3053 
L 1172 1153 
Q 1172 725 1289 603 
Q 1406 481 1766 481 
L 2356 481 
L 2356 0 
L 1766 0 
Q 1100 0 847 248 
Q 594 497 594 1153 
L 594 3053 
L 172 3053 
L 172 3500 
L 594 3500 
L 594 4494 
L 1172 4494 
z
" transform="scale(0.015625)"/>
      <path id="DejaVuSans-4d" d="M 628 4666 
L 1569 4666 
L 2759 1491 
L 3956 4666 
L 4897 4666 
L 4897 0 
L 4281 0 
L 4281 4097 
L 3078 897 
L 2444 897 
L 1241 4097 
L 1241 0 
L 628 0 
L 628 4666 
z
" transform="scale(0.015625)"/>
      <path id="DejaVuSans-68" d="M 3513 2113 
L 3513 0 
L 2938 0 
L 2938 2094 
Q 2938 2591 2744 2837 
Q 2550 3084 2163 3084 
Q 1697 3084 1428 2787 
Q 1159 2491 1159 1978 
L 1159 0 
L 581 0 
L 581 4863 
L 1159 4863 
L 1159 2956 
Q 1366 3272 1645 3428 
Q 1925 3584 2291 3584 
Q 2894 3584 3203 3211 
Q 3513 2838 3513 2113 
z
" transform="scale(0.015625)"/>
      <path id="DejaVuSans-6f" d="M 1959 3097 
Q 1497 3097 1228 2736 
Q 959 2375 959 1747 
Q 959 1119 1226 758 
Q 1494 397 1959 397 
Q 2419 397 2687 759 
Q 2956 1122 2956 1747 
Q 2956 2369 2687 2733 
Q 2419 3097 1959 3097 
z
M 1959 3584 
Q 2709 3584 3137 3096 
Q 3566 2609 3566 1747 
Q 3566 888 3137 398 
Q 2709 -91 1959 -91 
Q 1206 -91 779 398 
Q 353 888 353 1747 
Q 353 2609 779 3096 
Q 1206 3584 1959 3584 
z
" transform="scale(0.015625)"/>
      <path id="DejaVuSans-64" d="M 2906 2969 
L 2906 4863 
L 3481 4863 
L 3481 0 
L 2906 0 
L 2906 525 
Q 2725 213 2448 61 
Q 2172 -91 1784 -91 
Q 1150 -91 751 415 
Q 353 922 353 1747 
Q 353 2572 751 3078 
Q 1150 3584 1784 3584 
Q 2172 3584 2448 3432 
Q 2725 3281 2906 2969 
z
M 947 1747 
Q 947 1113 1208 752 
Q 1469 391 1925 391 
Q 2381 391 2643 752 
Q 2906 1113 2906 1747 
Q 2906 2381 2643 2742 
Q 2381 3103 1925 3103 
Q 1469 3103 1208 2742 
Q 947 2381 947 1747 
z
" transform="scale(0.015625)"/>
     </defs>
     <use xlink:href="#DejaVuSans-54"/>
     <use xlink:href="#DejaVuSans-65" transform="translate(44.083984 0)"/>
     <use xlink:href="#DejaVuSans-73" transform="translate(105.607422 0)"/>
     <use xlink:href="#DejaVuSans-74" transform="translate(157.707031 0)"/>
     <use xlink:href="#DejaVuSans-20" transform="translate(196.916016 0)"/>
     <use xlink:href="#DejaVuSans-4d" transform="translate(228.703125 0)"/>
     <use xlink:href="#DejaVuSans-65" transform="translate(314.982422 0)"/>
     <use xlink:href="#DejaVuSans-74" transform="translate(376.505859 0)"/>
     <use xlink:href="#DejaVuSans-68" transform="translate(415.714844 0)"/>
     <use xlink:href="#DejaVuSans-6f" transform="translate(479.09375 0)"/>
     <use xlink:href="#DejaVuSans-64" transform="translate(540.275391 0)"/>
    </g>
   </g>
  </g>
 </g>
 <defs>
  <clipPath id="p4bf701b58f">
   <rect x="72" y="51.84" width="446.4" height="332.64"/>
  </clipPath>
 </defs>
</svg>
