<?xml version="1.0" encoding="utf-8" standalone="no"?>
<!DOCTYPE svg PUBLIC "-//W3C//DTD SVG 1.1//EN"
  "http://www.w3.org/Graphics/SVG/1.1/DTD/svg11.dtd">
<svg xmlns:xlink="http://www.w3.org/1999/xlink" width="720pt" height="432pt" viewBox="0 0 720 432" xmlns="http://www.w3.org/2000/svg" version="1.1">
 <metadata>
  <rdf:RDF xmlns:dc="http://purl.org/dc/elements/1.1/" xmlns:cc="http://creativecommons.org/ns#" xmlns:rdf="http://www.w3.org/1999/02/22-rdf-syntax-ns#">
   <cc:Work>
    <dc:type rdf:resource="http://purl.org/dc/dcmitype/StillImage"/>
    <dc:date>2025-09-30T20:43:02.463307</dc:date>
    <dc:format>image/svg+xml</dc:format>
    <dc:creator>
     <cc:Agent>
      <dc:title>Matplotlib v3.10.3, https://matplotlib.org/</dc:title>
     </cc:Agent>
    </dc:creator>
   </cc:Work>
  </rdf:RDF>
 </metadata>
 <defs>
  <style type="text/css">*{stroke-linejoin: round; stroke-linecap: butt}</style>
 </defs>
 <g id="figure_1">
  <g id="patch_1">
   <path d="M 0 432 
L 720 432 
L 720 0 
L 0 0 
z
" style="fill: #ffffff"/>
  </g>
  <g id="axes_1">
   <g id="patch_2">
    <path d="M 90 384.48 
L 648 384.48 
L 648 51.84 
L 90 51.84 
z
" style="fill: #ffffff"/>
   </g>
   <g id="matplotlib.axis_1">
    <g id="xtick_1">
     <g id="line2d_1">
      <defs>
       <path id="mcce1f6032a" d="M 0 0 
L 0 3.5 
" style="stroke: #000000; stroke-width: 0.8"/>
      </defs>
      <g>
       <use xlink:href="#mcce1f6032a" x="115.363636" y="384.48" style="stroke: #000000; stroke-width: 0.8"/>
      </g>
     </g>
     <g id="text_1">
      <!-- 0 -->
      <g transform="translate(112.182386 399.078438) scale(0.1 -0.1)">
       <defs>
        <path id="DejaVuSans-30" d="M 2034 4250 
Q 1547 4250 1301 3770 
Q 1056 3291 1056 2328 
Q 1056 1369 1301 889 
Q 1547 409 2034 409 
Q 2525 409 2770 889 
Q 3016 1369 3016 2328 
Q 3016 3291 2770 3770 
Q 2525 4250 2034 4250 
z
M 2034 4750 
Q 2819 4750 3233 4129 
Q 3647 3509 3647 2328 
Q 3647 1150 3233 529 
Q 2819 -91 2034 -91 
Q 1250 -91 836 529 
Q 422 1150 422 2328 
Q 422 3509 836 4129 
Q 1250 4750 2034 4750 
z
" transform="scale(0.015625)"/>
       </defs>
       <use xlink:href="#DejaVuSans-30"/>
      </g>
     </g>
    </g>
    <g id="xtick_2">
     <g id="line2d_2">
      <g>
       <use xlink:href="#mcce1f6032a" x="195.375108" y="384.48" style="stroke: #000000; stroke-width: 0.8"/>
      </g>
     </g>
     <g id="text_2">
      <!-- 100 -->
      <g transform="translate(185.831358 399.078438) scale(0.1 -0.1)">
       <defs>
        <path id="DejaVuSans-31" d="M 794 531 
L 1825 531 
L 1825 4091 
L 703 3866 
L 703 4441 
L 1819 4666 
L 2450 4666 
L 2450 531 
L 3481 531 
L 3481 0 
L 794 0 
L 794 531 
z
" transform="scale(0.015625)"/>
       </defs>
       <use xlink:href="#DejaVuSans-31"/>
       <use xlink:href="#DejaVuSans-30" transform="translate(63.623047 0)"/>
       <use xlink:href="#DejaVuSans-30" transform="translate(127.246094 0)"/>
      </g>
     </g>
    </g>
    <g id="xtick_3">
     <g id="line2d_3">
      <g>
       <use xlink:href="#mcce1f6032a" x="275.386579" y="384.48" style="stroke: #000000; stroke-width: 0.8"/>
      </g>
     </g>
     <g id="text_3">
      <!-- 200 -->
      <g transform="translate(265.842829 399.078438) scale(0.1 -0.1)">
       <defs>
        <path id="DejaVuSans-32" d="M 1228 531 
L 3431 531 
L 3431 0 
L 469 0 
L 469 531 
Q 828 903 1448 1529 
Q 2069 2156 2228 2338 
Q 2531 2678 2651 2914 
Q 2772 3150 2772 3378 
Q 2772 3750 2511 3984 
Q 2250 4219 1831 4219 
Q 1534 4219 1204 4116 
Q 875 4013 500 3803 
L 500 4441 
Q 881 4594 1212 4672 
Q 1544 4750 1819 4750 
Q 2544 4750 2975 4387 
Q 3406 4025 3406 3419 
Q 3406 3131 3298 2873 
Q 3191 2616 2906 2266 
Q 2828 2175 2409 1742 
Q 1991 1309 1228 531 
z
" transform="scale(0.015625)"/>
       </defs>
       <use xlink:href="#DejaVuSans-32"/>
       <use xlink:href="#DejaVuSans-30" transform="translate(63.623047 0)"/>
       <use xlink:href="#DejaVuSans-30" transform="translate(127.246094 0)"/>
      </g>
     </g>
    </g>
    <g id="xtick_4">
     <g id="line2d_4">
      <g>
       <use xlink:href="#mcce1f6032a" x="355.39805" y="384.48" style="stroke: #000000; stroke-width: 0.8"/>
      </g>
     </g>
     <g id="text_4">
      <!-- 300 -->
      <g transform="translate(345.8543 399.078438) scale(0.1 -0.1)">
       <defs>
        <path id="DejaVuSans-33" d="M 2597 2516 
Q 3050 2419 3304 2112 
Q 3559 1806 3559 1356 
Q 3559 666 3084 287 
Q 2609 -91 1734 -91 
Q 1441 -91 1130 -33 
Q 819 25 488 141 
L 488 750 
Q 750 597 1062 519 
Q 1375 441 1716 441 
Q 2309 441 2620 675 
Q 2931 909 2931 1356 
Q 2931 1769 2642 2001 
Q 2353 2234 1838 2234 
L 1294 2234 
L 1294 2753 
L 1863 2753 
Q 2328 2753 2575 2939 
Q 2822 3125 2822 3475 
Q 2822 3834 2567 4026 
Q 2313 4219 1838 4219 
Q 1578 4219 1281 4162 
Q 984 4106 628 3988 
L 628 4550 
Q 988 4650 1302 4700 
Q 1616 4750 1894 4750 
Q 2613 4750 3031 4423 
Q 3450 4097 3450 3541 
Q 3450 3153 3228 2886 
Q 3006 2619 2597 2516 
z
" transform="scale(0.015625)"/>
       </defs>
       <use xlink:href="#DejaVuSans-33"/>
       <use xlink:href="#DejaVuSans-30" transform="translate(63.623047 0)"/>
       <use xlink:href="#DejaVuSans-30" transform="translate(127.246094 0)"/>
      </g>
     </g>
    </g>
    <g id="xtick_5">
     <g id="line2d_5">
      <g>
       <use xlink:href="#mcce1f6032a" x="435.409521" y="384.48" style="stroke: #000000; stroke-width: 0.8"/>
      </g>
     </g>
     <g id="text_5">
      <!-- 400 -->
      <g transform="translate(425.865771 399.078438) scale(0.1 -0.1)">
       <defs>
        <path id="DejaVuSans-34" d="M 2419 4116 
L 825 1625 
L 2419 1625 
L 2419 4116 
z
M 2253 4666 
L 3047 4666 
L 3047 1625 
L 3713 1625 
L 3713 1100 
L 3047 1100 
L 3047 0 
L 2419 0 
L 2419 1100 
L 313 1100 
L 313 1709 
L 2253 4666 
z
" transform="scale(0.015625)"/>
       </defs>
       <use xlink:href="#DejaVuSans-34"/>
       <use xlink:href="#DejaVuSans-30" transform="translate(63.623047 0)"/>
       <use xlink:href="#DejaVuSans-30" transform="translate(127.246094 0)"/>
      </g>
     </g>
    </g>
    <g id="xtick_6">
     <g id="line2d_6">
      <g>
       <use xlink:href="#mcce1f6032a" x="515.420992" y="384.48" style="stroke: #000000; stroke-width: 0.8"/>
      </g>
     </g>
     <g id="text_6">
      <!-- 500 -->
      <g transform="translate(505.877242 399.078438) scale(0.1 -0.1)">
       <defs>
        <path id="DejaVuSans-35" d="M 691 4666 
L 3169 4666 
L 3169 4134 
L 1269 4134 
L 1269 2991 
Q 1406 3038 1543 3061 
Q 1681 3084 1819 3084 
Q 2600 3084 3056 2656 
Q 3513 2228 3513 1497 
Q 3513 744 3044 326 
Q 2575 -91 1722 -91 
Q 1428 -91 1123 -41 
Q 819 9 494 109 
L 494 744 
Q 775 591 1075 516 
Q 1375 441 1709 441 
Q 2250 441 2565 725 
Q 2881 1009 2881 1497 
Q 2881 1984 2565 2268 
Q 2250 2553 1709 2553 
Q 1456 2553 1204 2497 
Q 953 2441 691 2322 
L 691 4666 
z
" transform="scale(0.015625)"/>
       </defs>
       <use xlink:href="#DejaVuSans-35"/>
       <use xlink:href="#DejaVuSans-30" transform="translate(63.623047 0)"/>
       <use xlink:href="#DejaVuSans-30" transform="translate(127.246094 0)"/>
      </g>
     </g>
    </g>
    <g id="xtick_7">
     <g id="line2d_7">
      <g>
       <use xlink:href="#mcce1f6032a" x="595.432463" y="384.48" style="stroke: #000000; stroke-width: 0.8"/>
      </g>
     </g>
     <g id="text_7">
      <!-- 600 -->
      <g transform="translate(585.888713 399.078438) scale(0.1 -0.1)">
       <defs>
        <path id="DejaVuSans-36" d="M 2113 2584 
Q 1688 2584 1439 2293 
Q 1191 2003 1191 1497 
Q 1191 994 1439 701 
Q 1688 409 2113 409 
Q 2538 409 2786 701 
Q 3034 994 3034 1497 
Q 3034 2003 2786 2293 
Q 2538 2584 2113 2584 
z
M 3366 4563 
L 3366 3988 
Q 3128 4100 2886 4159 
Q 2644 4219 2406 4219 
Q 1781 4219 1451 3797 
Q 1122 3375 1075 2522 
Q 1259 2794 1537 2939 
Q 1816 3084 2150 3084 
Q 2853 3084 3261 2657 
Q 3669 2231 3669 1497 
Q 3669 778 3244 343 
Q 2819 -91 2113 -91 
Q 1303 -91 875 529 
Q 447 1150 447 2328 
Q 447 3434 972 4092 
Q 1497 4750 2381 4750 
Q 2619 4750 2861 4703 
Q 3103 4656 3366 4563 
z
" transform="scale(0.015625)"/>
       </defs>
       <use xlink:href="#DejaVuSans-36"/>
       <use xlink:href="#DejaVuSans-30" transform="translate(63.623047 0)"/>
       <use xlink:href="#DejaVuSans-30" transform="translate(127.246094 0)"/>
      </g>
     </g>
    </g>
    <g id="text_8">
     <!-- Index -->
     <g transform="translate(355.233594 412.756563) scale(0.1 -0.1)">
      <defs>
       <path id="DejaVuSans-49" d="M 628 4666 
L 1259 4666 
L 1259 0 
L 628 0 
L 628 4666 
z
" transform="scale(0.015625)"/>
       <path id="DejaVuSans-6e" d="M 3513 2113 
L 3513 0 
L 2938 0 
L 2938 2094 
Q 2938 2591 2744 2837 
Q 2550 3084 2163 3084 
Q 1697 3084 1428 2787 
Q 1159 2491 1159 1978 
L 1159 0 
L 581 0 
L 581 3500 
L 1159 3500 
L 1159 2956 
Q 1366 3272 1645 3428 
Q 1925 3584 2291 3584 
Q 2894 3584 3203 3211 
Q 3513 2838 3513 2113 
z
" transform="scale(0.015625)"/>
       <path id="DejaVuSans-64" d="M 2906 2969 
L 2906 4863 
L 3481 4863 
L 3481 0 
L 2906 0 
L 2906 525 
Q 2725 213 2448 61 
Q 2172 -91 1784 -91 
Q 1150 -91 751 415 
Q 353 922 353 1747 
Q 353 2572 751 3078 
Q 1150 3584 1784 3584 
Q 2172 3584 2448 3432 
Q 2725 3281 2906 2969 
z
M 947 1747 
Q 947 1113 1208 752 
Q 1469 391 1925 391 
Q 2381 391 2643 752 
Q 2906 1113 2906 1747 
Q 2906 2381 2643 2742 
Q 2381 3103 1925 3103 
Q 1469 3103 1208 2742 
Q 947 2381 947 1747 
z
" transform="scale(0.015625)"/>
       <path id="DejaVuSans-65" d="M 3597 1894 
L 3597 1613 
L 953 1613 
Q 991 1019 1311 708 
Q 1631 397 2203 397 
Q 2534 397 2845 478 
Q 3156 559 3463 722 
L 3463 178 
Q 3153 47 2828 -22 
Q 2503 -91 2169 -91 
Q 1331 -91 842 396 
Q 353 884 353 1716 
Q 353 2575 817 3079 
Q 1281 3584 2069 3584 
Q 2775 3584 3186 3129 
Q 3597 2675 3597 1894 
z
M 3022 2063 
Q 3016 2534 2758 2815 
Q 2500 3097 2075 3097 
Q 1594 3097 1305 2825 
Q 1016 2553 972 2059 
L 3022 2063 
z
" transform="scale(0.015625)"/>
       <path id="DejaVuSans-78" d="M 3513 3500 
L 2247 1797 
L 3578 0 
L 2900 0 
L 1881 1375 
L 863 0 
L 184 0 
L 1544 1831 
L 300 3500 
L 978 3500 
L 1906 2253 
L 2834 3500 
L 3513 3500 
z
" transform="scale(0.015625)"/>
      </defs>
      <use xlink:href="#DejaVuSans-49"/>
      <use xlink:href="#DejaVuSans-6e" transform="translate(29.492188 0)"/>
      <use xlink:href="#DejaVuSans-64" transform="translate(92.871094 0)"/>
      <use xlink:href="#DejaVuSans-65" transform="translate(156.347656 0)"/>
      <use xlink:href="#DejaVuSans-78" transform="translate(216.121094 0)"/>
     </g>
    </g>
   </g>
   <g id="matplotlib.axis_2">
    <g id="ytick_1">
     <g id="line2d_8">
      <defs>
       <path id="m2a31e1e6e3" d="M 0 0 
L -3.5 0 
" style="stroke: #000000; stroke-width: 0.8"/>
      </defs>
      <g>
       <use xlink:href="#m2a31e1e6e3" x="90" y="384.48" style="stroke: #000000; stroke-width: 0.8"/>
      </g>
     </g>
     <g id="text_9">
      <!-- 0 -->
      <g transform="translate(76.6375 388.279219) scale(0.1 -0.1)">
       <use xlink:href="#DejaVuSans-30"/>
      </g>
     </g>
    </g>
    <g id="ytick_2">
     <g id="line2d_9">
      <g>
       <use xlink:href="#m2a31e1e6e3" x="90" y="315.773334" style="stroke: #000000; stroke-width: 0.8"/>
      </g>
     </g>
     <g id="text_10">
      <!-- 5 -->
      <g transform="translate(76.6375 319.572552) scale(0.1 -0.1)">
       <use xlink:href="#DejaVuSans-35"/>
      </g>
     </g>
    </g>
    <g id="ytick_3">
     <g id="line2d_10">
      <g>
       <use xlink:href="#m2a31e1e6e3" x="90" y="247.066667" style="stroke: #000000; stroke-width: 0.8"/>
      </g>
     </g>
     <g id="text_11">
      <!-- 10 -->
      <g transform="translate(70.275 250.865886) scale(0.1 -0.1)">
       <use xlink:href="#DejaVuSans-31"/>
       <use xlink:href="#DejaVuSans-30" transform="translate(63.623047 0)"/>
      </g>
     </g>
    </g>
    <g id="ytick_4">
     <g id="line2d_11">
      <g>
       <use xlink:href="#m2a31e1e6e3" x="90" y="178.360001" style="stroke: #000000; stroke-width: 0.8"/>
      </g>
     </g>
     <g id="text_12">
      <!-- 15 -->
      <g transform="translate(70.275 182.15922) scale(0.1 -0.1)">
       <use xlink:href="#DejaVuSans-31"/>
       <use xlink:href="#DejaVuSans-35" transform="translate(63.623047 0)"/>
      </g>
     </g>
    </g>
    <g id="ytick_5">
     <g id="line2d_12">
      <g>
       <use xlink:href="#m2a31e1e6e3" x="90" y="109.653335" style="stroke: #000000; stroke-width: 0.8"/>
      </g>
     </g>
     <g id="text_13">
      <!-- 20 -->
      <g transform="translate(70.275 113.452553) scale(0.1 -0.1)">
       <use xlink:href="#DejaVuSans-32"/>
       <use xlink:href="#DejaVuSans-30" transform="translate(63.623047 0)"/>
      </g>
     </g>
    </g>
    <g id="text_14">
     <!-- Average time (ms) -->
     <g transform="translate(64.195312 264.543594) rotate(-90) scale(0.1 -0.1)">
      <defs>
       <path id="DejaVuSans-41" d="M 2188 4044 
L 1331 1722 
L 3047 1722 
L 2188 4044 
z
M 1831 4666 
L 2547 4666 
L 4325 0 
L 3669 0 
L 3244 1197 
L 1141 1197 
L 716 0 
L 50 0 
L 1831 4666 
z
" transform="scale(0.015625)"/>
       <path id="DejaVuSans-76" d="M 191 3500 
L 800 3500 
L 1894 563 
L 2988 3500 
L 3597 3500 
L 2284 0 
L 1503 0 
L 191 3500 
z
" transform="scale(0.015625)"/>
       <path id="DejaVuSans-72" d="M 2631 2963 
Q 2534 3019 2420 3045 
Q 2306 3072 2169 3072 
Q 1681 3072 1420 2755 
Q 1159 2438 1159 1844 
L 1159 0 
L 581 0 
L 581 3500 
L 1159 3500 
L 1159 2956 
Q 1341 3275 1631 3429 
Q 1922 3584 2338 3584 
Q 2397 3584 2469 3576 
Q 2541 3569 2628 3553 
L 2631 2963 
z
" transform="scale(0.015625)"/>
       <path id="DejaVuSans-61" d="M 2194 1759 
Q 1497 1759 1228 1600 
Q 959 1441 959 1056 
Q 959 750 1161 570 
Q 1363 391 1709 391 
Q 2188 391 2477 730 
Q 2766 1069 2766 1631 
L 2766 1759 
L 2194 1759 
z
M 3341 1997 
L 3341 0 
L 2766 0 
L 2766 531 
Q 2569 213 2275 61 
Q 1981 -91 1556 -91 
Q 1019 -91 701 211 
Q 384 513 384 1019 
Q 384 1609 779 1909 
Q 1175 2209 1959 2209 
L 2766 2209 
L 2766 2266 
Q 2766 2663 2505 2880 
Q 2244 3097 1772 3097 
Q 1472 3097 1187 3025 
Q 903 2953 641 2809 
L 641 3341 
Q 956 3463 1253 3523 
Q 1550 3584 1831 3584 
Q 2591 3584 2966 3190 
Q 3341 2797 3341 1997 
z
" transform="scale(0.015625)"/>
       <path id="DejaVuSans-67" d="M 2906 1791 
Q 2906 2416 2648 2759 
Q 2391 3103 1925 3103 
Q 1463 3103 1205 2759 
Q 947 2416 947 1791 
Q 947 1169 1205 825 
Q 1463 481 1925 481 
Q 2391 481 2648 825 
Q 2906 1169 2906 1791 
z
M 3481 434 
Q 3481 -459 3084 -895 
Q 2688 -1331 1869 -1331 
Q 1566 -1331 1297 -1286 
Q 1028 -1241 775 -1147 
L 775 -588 
Q 1028 -725 1275 -790 
Q 1522 -856 1778 -856 
Q 2344 -856 2625 -561 
Q 2906 -266 2906 331 
L 2906 616 
Q 2728 306 2450 153 
Q 2172 0 1784 0 
Q 1141 0 747 490 
Q 353 981 353 1791 
Q 353 2603 747 3093 
Q 1141 3584 1784 3584 
Q 2172 3584 2450 3431 
Q 2728 3278 2906 2969 
L 2906 3500 
L 3481 3500 
L 3481 434 
z
" transform="scale(0.015625)"/>
       <path id="DejaVuSans-20" transform="scale(0.015625)"/>
       <path id="DejaVuSans-74" d="M 1172 4494 
L 1172 3500 
L 2356 3500 
L 2356 3053 
L 1172 3053 
L 1172 1153 
Q 1172 725 1289 603 
Q 1406 481 1766 481 
L 2356 481 
L 2356 0 
L 1766 0 
Q 1100 0 847 248 
Q 594 497 594 1153 
L 594 3053 
L 172 3053 
L 172 3500 
L 594 3500 
L 594 4494 
L 1172 4494 
z
" transform="scale(0.015625)"/>
       <path id="DejaVuSans-69" d="M 603 3500 
L 1178 3500 
L 1178 0 
L 603 0 
L 603 3500 
z
M 603 4863 
L 1178 4863 
L 1178 4134 
L 603 4134 
L 603 4863 
z
" transform="scale(0.015625)"/>
       <path id="DejaVuSans-6d" d="M 3328 2828 
Q 3544 3216 3844 3400 
Q 4144 3584 4550 3584 
Q 5097 3584 5394 3201 
Q 5691 2819 5691 2113 
L 5691 0 
L 5113 0 
L 5113 2094 
Q 5113 2597 4934 2840 
Q 4756 3084 4391 3084 
Q 3944 3084 3684 2787 
Q 3425 2491 3425 1978 
L 3425 0 
L 2847 0 
L 2847 2094 
Q 2847 2600 2669 2842 
Q 2491 3084 2119 3084 
Q 1678 3084 1418 2786 
Q 1159 2488 1159 1978 
L 1159 0 
L 581 0 
L 581 3500 
L 1159 3500 
L 1159 2956 
Q 1356 3278 1631 3431 
Q 1906 3584 2284 3584 
Q 2666 3584 2933 3390 
Q 3200 3197 3328 2828 
z
" transform="scale(0.015625)"/>
       <path id="DejaVuSans-28" d="M 1984 4856 
Q 1566 4138 1362 3434 
Q 1159 2731 1159 2009 
Q 1159 1288 1364 580 
Q 1569 -128 1984 -844 
L 1484 -844 
Q 1016 -109 783 600 
Q 550 1309 550 2009 
Q 550 2706 781 3412 
Q 1013 4119 1484 4856 
L 1984 4856 
z
" transform="scale(0.015625)"/>
       <path id="DejaVuSans-73" d="M 2834 3397 
L 2834 2853 
Q 2591 2978 2328 3040 
Q 2066 3103 1784 3103 
Q 1356 3103 1142 2972 
Q 928 2841 928 2578 
Q 928 2378 1081 2264 
Q 1234 2150 1697 2047 
L 1894 2003 
Q 2506 1872 2764 1633 
Q 3022 1394 3022 966 
Q 3022 478 2636 193 
Q 2250 -91 1575 -91 
Q 1294 -91 989 -36 
Q 684 19 347 128 
L 347 722 
Q 666 556 975 473 
Q 1284 391 1588 391 
Q 1994 391 2212 530 
Q 2431 669 2431 922 
Q 2431 1156 2273 1281 
Q 2116 1406 1581 1522 
L 1381 1569 
Q 847 1681 609 1914 
Q 372 2147 372 2553 
Q 372 3047 722 3315 
Q 1072 3584 1716 3584 
Q 2034 3584 2315 3537 
Q 2597 3491 2834 3397 
z
" transform="scale(0.015625)"/>
       <path id="DejaVuSans-29" d="M 513 4856 
L 1013 4856 
Q 1481 4119 1714 3412 
Q 1947 2706 1947 2009 
Q 1947 1309 1714 600 
Q 1481 -109 1013 -844 
L 513 -844 
Q 928 -128 1133 580 
Q 1338 1288 1338 2009 
Q 1338 2731 1133 3434 
Q 928 4138 513 4856 
z
" transform="scale(0.015625)"/>
      </defs>
      <use xlink:href="#DejaVuSans-41"/>
      <use xlink:href="#DejaVuSans-76" transform="translate(62.533203 0)"/>
      <use xlink:href="#DejaVuSans-65" transform="translate(121.712891 0)"/>
      <use xlink:href="#DejaVuSans-72" transform="translate(183.236328 0)"/>
      <use xlink:href="#DejaVuSans-61" transform="translate(224.349609 0)"/>
      <use xlink:href="#DejaVuSans-67" transform="translate(285.628906 0)"/>
      <use xlink:href="#DejaVuSans-65" transform="translate(349.105469 0)"/>
      <use xlink:href="#DejaVuSans-20" transform="translate(410.628906 0)"/>
      <use xlink:href="#DejaVuSans-74" transform="translate(442.416016 0)"/>
      <use xlink:href="#DejaVuSans-69" transform="translate(481.625 0)"/>
      <use xlink:href="#DejaVuSans-6d" transform="translate(509.408203 0)"/>
      <use xlink:href="#DejaVuSans-65" transform="translate(606.820312 0)"/>
      <use xlink:href="#DejaVuSans-20" transform="translate(668.34375 0)"/>
      <use xlink:href="#DejaVuSans-28" transform="translate(700.130859 0)"/>
      <use xlink:href="#DejaVuSans-6d" transform="translate(739.144531 0)"/>
      <use xlink:href="#DejaVuSans-73" transform="translate(836.556641 0)"/>
      <use xlink:href="#DejaVuSans-29" transform="translate(888.65625 0)"/>
     </g>
    </g>
   </g>
   <g id="line2d_13">
    <path d="M 115.363636 67.162631 
L 116.163751 255.24735 
L 116.963866 338.773756 
L 117.76398 329.052391 
L 118.564095 331.146799 
L 119.36421 353.537098 
L 120.164325 354.835896 
L 120.964439 355.082498 
L 121.764554 337.391394 
L 122.564669 345.024719 
L 123.364783 344.32046 
L 124.164898 348.340765 
L 124.965013 350.227128 
L 125.765128 351.485178 
L 126.565242 349.552411 
L 127.365357 346.946393 
L 128.165472 356.74324 
L 128.965586 359.924651 
L 129.765701 364.115435 
L 130.565816 363.875666 
L 131.365931 366.837589 
L 132.166045 368.682375 
L 132.96616 367.579978 
L 133.766275 365.59579 
L 134.566389 240.394303 
L 135.366504 373.615254 
L 136.166619 373.455511 
L 136.966734 365.783435 
L 137.766848 362.372615 
L 138.566963 366.624865 
L 139.367078 368.023405 
L 140.167192 366.472815 
L 140.967307 369.43783 
L 141.767422 370.265039 
L 142.567537 368.023577 
L 143.367651 369.518673 
L 144.167766 367.131969 
L 144.967881 371.190862 
L 145.767995 369.643187 
L 146.56811 365.656439 
L 147.368225 368.734977 
L 148.16834 364.864226 
L 148.968454 367.949676 
L 149.768569 366.607753 
L 150.568684 366.515842 
L 151.368798 370.818169 
L 152.168913 369.671905 
L 152.969028 369.976058 
L 153.769143 371.683781 
L 154.569257 372.12574 
L 155.369372 371.129026 
L 156.169487 368.144348 
L 156.969601 370.209966 
L 157.769716 371.466713 
L 158.569831 369.845223 
L 159.369946 366.884624 
L 160.17006 370.121888 
L 160.970175 370.846496 
L 161.77029 371.120618 
L 162.570404 372.066122 
L 163.370519 370.631761 
L 164.170634 371.43469 
L 164.970748 371.173396 
L 165.770863 365.56782 
L 166.570978 365.620897 
L 167.371093 367.62323 
L 168.171207 367.580184 
L 168.971322 367.784871 
L 169.771437 368.210209 
L 170.571551 357.821218 
L 171.371666 361.869209 
L 172.171781 371.005222 
L 172.971896 371.793649 
L 173.77201 373.104898 
L 174.572125 369.481421 
L 175.37224 370.850656 
L 176.172354 370.272238 
L 176.972469 370.839859 
L 177.772584 368.43622 
L 178.572699 371.966756 
L 179.372813 370.340006 
L 180.172928 370.994357 
L 180.973043 371.430918 
L 181.773157 370.904247 
L 182.573272 371.518621 
L 183.373387 370.690315 
L 184.173502 370.106629 
L 184.973616 371.812658 
L 185.773731 370.937906 
L 186.573846 372.236883 
L 187.37396 372.625331 
L 188.97419 366.631808 
L 189.774305 361.064639 
L 190.574419 370.969762 
L 191.374534 371.984073 
L 192.174649 370.089839 
L 192.974763 371.750095 
L 193.774878 372.202296 
L 194.574993 370.218956 
L 195.375108 371.045068 
L 196.175222 371.112764 
L 196.975337 370.888032 
L 197.775452 371.448369 
L 198.575566 372.651939 
L 199.375681 372.600406 
L 200.175796 371.8982 
L 200.975911 372.643338 
L 201.776025 372.279175 
L 202.57614 371.254202 
L 203.376255 371.98476 
L 204.176369 371.855121 
L 204.976484 372.590619 
L 205.776599 372.272598 
L 206.576714 372.872914 
L 207.376828 366.508924 
L 208.176943 362.106216 
L 208.977058 373.193821 
L 209.777172 373.0425 
L 210.577287 371.384361 
L 211.377402 371.228617 
L 212.177516 372.939822 
L 212.977631 372.623641 
L 213.777746 371.371623 
L 215.377975 371.682742 
L 216.17809 370.786451 
L 216.978205 371.693397 
L 217.778319 370.942447 
L 218.578434 371.204429 
L 219.378549 372.198256 
L 220.178664 368.582518 
L 220.978778 371.15327 
L 221.778893 370.341063 
L 222.579008 370.928606 
L 223.379122 366.088479 
L 224.179237 368.045967 
L 224.979352 372.673822 
L 225.779467 372.301372 
L 226.579581 370.688536 
L 227.379696 371.252918 
L 228.179811 371.03872 
L 228.979925 372.036857 
L 229.78004 371.796124 
L 230.580155 372.190436 
L 231.38027 372.2556 
L 232.180384 371.589097 
L 232.980499 369.774348 
L 233.780614 370.765156 
L 234.580728 370.218431 
L 236.180958 370.973971 
L 236.981073 370.942787 
L 237.781187 369.643297 
L 238.581302 368.022258 
L 239.381417 372.274464 
L 240.181531 371.795412 
L 240.981646 367.081168 
L 241.781761 358.176185 
L 242.581876 372.438188 
L 243.38199 371.490472 
L 244.98222 371.833046 
L 245.782334 371.445276 
L 246.582449 371.286005 
L 248.182679 371.736543 
L 248.982793 370.136686 
L 249.782908 370.700737 
L 250.583023 370.165564 
L 251.383137 370.677684 
L 252.183252 368.839051 
L 253.783482 369.139919 
L 254.583596 364.922683 
L 255.383711 358.610585 
L 256.183826 365.176248 
L 256.98394 370.259757 
L 257.784055 369.256617 
L 258.58417 367.710967 
L 259.384284 369.822263 
L 260.184399 368.858528 
L 260.984514 370.253907 
L 261.784629 368.636851 
L 262.584743 369.455179 
L 263.384858 371.301932 
L 264.184973 371.113352 
L 264.985087 368.321749 
L 265.785202 370.191885 
L 266.585317 369.403034 
L 267.385432 370.354416 
L 268.185546 368.602838 
L 268.985661 368.224155 
L 269.785776 370.721552 
L 270.58589 371.257527 
L 271.386005 355.614033 
L 272.18612 360.701293 
L 272.986235 369.08769 
L 273.786349 365.538996 
L 274.586464 368.991245 
L 275.386579 369.626168 
L 276.186693 371.049397 
L 276.986808 371.07347 
L 277.786923 369.900018 
L 278.587038 369.04707 
L 279.387152 369.529844 
L 280.187267 369.552476 
L 280.987382 369.175629 
L 281.787496 370.234991 
L 282.587611 370.952149 
L 284.187841 368.41684 
L 284.987955 369.877209 
L 285.78807 370.14071 
L 286.588185 368.507473 
L 287.388299 364.924559 
L 288.188414 364.674087 
L 288.988529 366.168057 
L 289.788644 371.419063 
L 291.388873 363.749935 
L 292.188988 368.046287 
L 292.989102 367.604814 
L 293.789217 369.139067 
L 294.589332 368.462327 
L 295.389447 368.022224 
L 296.189561 368.245016 
L 296.989676 366.864083 
L 297.789791 367.71414 
L 299.39002 367.837583 
L 300.190135 358.833411 
L 300.990249 368.422961 
L 301.790364 368.269397 
L 302.590479 368.531361 
L 303.390594 365.938453 
L 304.190708 367.71448 
L 305.790938 368.403214 
L 306.591052 367.583323 
L 307.391167 365.999405 
L 308.191282 368.908592 
L 308.991397 369.055932 
L 309.791511 365.914527 
L 310.591626 366.29612 
L 311.391741 362.535834 
L 312.191855 366.605641 
L 312.99197 366.97523 
L 313.792085 366.485958 
L 314.5922 366.886546 
L 315.392314 362.206896 
L 316.192429 362.701522 
L 316.992544 367.712993 
L 317.792658 367.384558 
L 318.592773 366.793379 
L 320.193003 363.80396 
L 320.993117 366.517747 
L 321.793232 367.710644 
L 322.593347 366.934359 
L 323.393461 367.522292 
L 324.193576 367.166714 
L 324.993691 360.934488 
L 325.793806 364.752451 
L 326.59392 366.343772 
L 327.394035 364.260094 
L 328.19415 368.644239 
L 328.994264 365.956075 
L 329.794379 364.117422 
L 330.594494 361.244374 
L 331.394609 364.713383 
L 332.194723 366.45139 
L 332.994838 365.932069 
L 333.794953 366.616193 
L 334.595067 365.965517 
L 335.395182 363.898958 
L 336.195297 365.570532 
L 336.995412 366.24145 
L 337.795526 365.844361 
L 338.595641 360.330173 
L 339.395756 353.277875 
L 340.19587 367.421415 
L 340.995985 367.664034 
L 341.7961 364.184008 
L 342.596215 367.283561 
L 343.396329 366.613918 
L 344.196444 367.643945 
L 344.996559 364.782674 
L 345.796673 366.225746 
L 346.596788 368.002433 
L 347.396903 366.893369 
L 348.197017 363.62719 
L 348.997132 365.146947 
L 350.597362 366.503411 
L 351.397476 364.137491 
L 352.197591 364.69118 
L 352.997706 359.938016 
L 353.79782 363.032997 
L 354.597935 365.485633 
L 355.39805 364.733102 
L 356.198165 365.827436 
L 356.998279 366.114789 
L 357.798394 364.706274 
L 360.198738 367.661962 
L 360.998853 364.653372 
L 361.798968 366.005107 
L 362.599082 363.079746 
L 363.399197 362.318509 
L 364.199312 355.265684 
L 364.999426 361.99928 
L 365.799541 367.687542 
L 366.599656 367.570398 
L 367.399771 367.288171 
L 368.199885 365.747077 
L 369 366.326183 
L 369.800115 367.619504 
L 371.400344 365.168422 
L 372.200459 362.97949 
L 373.000574 367.457893 
L 373.800688 366.13298 
L 374.600803 365.544375 
L 375.400918 362.208734 
L 376.201032 361.240547 
L 377.001147 365.772395 
L 377.801262 365.236457 
L 378.601377 366.283934 
L 379.401491 365.792716 
L 380.201606 364.801742 
L 381.001721 364.044229 
L 381.801835 361.197196 
L 382.60195 365.114637 
L 383.402065 364.430267 
L 384.20218 355.481534 
L 385.002294 362.048836 
L 385.802409 362.091413 
L 387.402638 365.857283 
L 388.202753 366.805484 
L 389.002868 366.346574 
L 389.802983 364.125448 
L 390.603097 366.029042 
L 391.403212 366.487642 
L 392.203327 362.712523 
L 393.003441 365.247565 
L 393.803556 360.252885 
L 394.603671 364.810786 
L 395.403785 365.314769 
L 396.2039 364.644156 
L 397.004015 365.079197 
L 397.80413 367.522457 
L 398.604244 366.408134 
L 399.404359 363.113501 
L 400.204474 365.378092 
L 401.004588 366.217991 
L 401.804703 365.636354 
L 402.604818 359.072838 
L 403.404933 365.307348 
L 404.205047 363.076307 
L 405.005162 367.159585 
L 405.805277 364.50501 
L 406.605391 363.008686 
L 407.405506 364.248078 
L 409.005736 362.370099 
L 409.80585 364.695735 
L 410.605965 366.000538 
L 411.40608 361.121877 
L 412.206194 359.357359 
L 413.006309 364.701034 
L 413.806424 365.660242 
L 414.606539 363.926362 
L 415.406653 362.658592 
L 416.206768 362.579449 
L 417.006883 365.78121 
L 417.806997 365.37049 
L 418.607112 364.685689 
L 419.407227 358.424894 
L 420.207342 365.146447 
L 421.007456 364.724965 
L 421.807571 363.043321 
L 422.607686 358.738545 
L 423.4078 364.464745 
L 424.207915 365.695802 
L 425.00803 364.586324 
L 425.808145 362.986102 
L 426.608259 362.574484 
L 427.408374 364.503781 
L 428.208489 363.764353 
L 429.008603 354.158503 
L 429.808718 365.064521 
L 430.608833 364.240065 
L 431.408948 362.310614 
L 432.209062 363.014878 
L 433.009177 362.879168 
L 433.809292 363.27875 
L 434.609406 362.01785 
L 435.409521 363.093533 
L 436.209636 361.936858 
L 437.009751 363.537205 
L 437.809865 362.67112 
L 438.60998 362.782587 
L 439.410095 359.310653 
L 440.210209 363.249099 
L 441.010324 361.533708 
L 441.810439 363.015775 
L 442.610553 357.752137 
L 443.410668 364.559145 
L 444.210783 362.181247 
L 445.010898 361.04329 
L 445.811012 362.460216 
L 446.611127 360.061654 
L 447.411242 361.111376 
L 448.211356 356.80086 
L 449.011471 361.300501 
L 449.811586 356.915601 
L 450.611701 361.275097 
L 451.411815 362.673388 
L 452.21193 362.7976 
L 453.012045 363.49394 
L 453.812159 361.991077 
L 454.612274 361.814411 
L 455.412389 364.598702 
L 456.212504 364.416015 
L 457.012618 355.030462 
L 457.812733 358.992047 
L 458.612848 359.564719 
L 459.412962 361.287581 
L 460.213077 359.471598 
L 461.013192 358.694543 
L 461.813307 361.486415 
L 462.613421 361.609141 
L 463.413536 359.895324 
L 465.013765 359.353117 
L 465.81388 360.229398 
L 466.613995 360.030296 
L 467.41411 360.382027 
L 468.214224 354.606072 
L 469.014339 362.575444 
L 469.814454 361.512649 
L 470.614568 355.292288 
L 471.414683 360.701244 
L 472.214798 360.93971 
L 473.014913 355.251706 
L 473.815027 359.334745 
L 474.615142 354.602591 
L 475.415257 360.254656 
L 476.215371 357.515045 
L 477.015486 358.493697 
L 477.815601 359.858844 
L 478.615716 359.044218 
L 479.41583 353.655368 
L 480.215945 357.382636 
L 481.01606 317.115061 
L 481.816174 358.824025 
L 482.616289 355.92506 
L 483.416404 355.538637 
L 484.216518 354.311299 
L 485.016633 356.286503 
L 485.816748 354.69249 
L 486.616863 356.907124 
L 487.416977 355.123404 
L 488.217092 349.784465 
L 489.017207 348.737014 
L 489.817321 355.727608 
L 490.617436 358.323669 
L 491.417551 358.417559 
L 492.217666 350.847611 
L 493.817895 358.185378 
L 494.61801 358.116518 
L 495.418124 350.368351 
L 496.218239 351.706923 
L 497.018354 352.746128 
L 497.818469 349.64732 
L 498.618583 347.18946 
L 499.418698 357.245704 
L 500.218813 357.70189 
L 501.018927 357.409426 
L 501.819042 350.1721 
L 502.619157 354.530624 
L 503.419272 353.436358 
L 504.219386 354.522107 
L 505.019501 349.840024 
L 505.819616 353.66355 
L 506.61973 358.475922 
L 507.419845 357.497539 
L 508.21996 350.029178 
L 509.020075 349.537944 
L 509.820189 350.187946 
L 510.620304 349.033886 
L 511.420419 349.762939 
L 513.020648 355.538354 
L 513.820763 355.063156 
L 514.620878 351.45572 
L 515.420992 353.682325 
L 516.221107 358.496852 
L 517.021222 356.703919 
L 517.821336 353.099722 
L 518.621451 357.187309 
L 519.421566 360.684069 
L 520.221681 358.421771 
L 521.021795 357.795665 
L 521.82191 353.607752 
L 522.622025 354.380641 
L 523.422139 356.732058 
L 524.222254 352.238561 
L 525.022369 352.681249 
L 525.822484 354.360843 
L 526.622598 352.803588 
L 527.422713 354.653349 
L 528.222828 353.157671 
L 529.022942 354.996064 
L 529.823057 352.369203 
L 530.623172 353.571684 
L 531.423286 354.514681 
L 532.223401 354.348724 
L 533.023516 349.595251 
L 533.823631 355.466215 
L 534.623745 353.292333 
L 535.42386 352.608548 
L 536.223975 354.062025 
L 537.024089 352.543557 
L 537.824204 355.31899 
L 538.624319 354.880285 
L 539.424434 356.234349 
L 540.224548 351.771671 
L 541.024663 354.737795 
L 541.824778 355.228036 
L 542.624892 355.992665 
L 543.425007 352.145572 
L 544.225122 353.926926 
L 545.025237 358.072689 
L 545.825351 358.233332 
L 546.625466 351.978235 
L 547.425581 351.934969 
L 548.225695 353.111691 
L 549.02581 352.462742 
L 549.825925 351.040978 
L 550.62604 352.435319 
L 551.426154 357.957218 
L 552.226269 357.183531 
L 553.026384 351.493858 
L 553.826498 352.954404 
L 554.626613 357.882273 
L 555.426728 355.253419 
L 556.226843 351.218762 
L 557.026957 356.203201 
L 557.827072 359.428197 
L 558.627187 354.869004 
L 559.427301 352.861481 
L 560.227416 351.828444 
L 561.027531 351.339285 
L 561.827646 352.576764 
L 562.62776 348.815085 
L 563.427875 353.058206 
L 564.22799 355.722883 
L 565.028104 355.316329 
L 565.828219 346.673523 
L 566.628334 352.1787 
L 567.428449 353.805132 
L 568.228563 352.475874 
L 569.028678 349.385632 
L 570.628907 357.020521 
L 572.229137 355.113461 
L 573.029252 350.264307 
L 573.829366 349.779924 
L 574.629481 351.043223 
L 575.429596 349.639517 
L 576.22971 347.955724 
L 577.82994 351.142915 
L 578.630054 347.921265 
L 579.430169 348.536448 
L 580.230284 350.058871 
L 581.030399 349.790265 
L 581.830513 347.492444 
L 582.630628 348.250649 
L 583.430743 350.820076 
L 584.230857 350.506571 
L 585.030972 349.025293 
L 585.831087 346.302623 
L 586.631202 348.334375 
L 587.431316 346.934095 
L 588.231431 346.99469 
L 589.031546 350.430474 
L 589.83166 353.325133 
L 590.631775 353.31415 
L 591.43189 348.080552 
L 592.232005 350.309541 
L 593.032119 353.35793 
L 593.832234 353.607795 
L 594.632349 347.344617 
L 596.232578 357.022075 
L 597.032693 354.908284 
L 597.832808 347.453082 
L 598.632922 346.607488 
L 599.433037 349.651387 
L 600.233152 350.28272 
L 601.033266 337.934177 
L 601.833381 345.276152 
L 602.633496 356.774783 
L 603.433611 354.175317 
L 604.233725 347.0602 
L 605.03384 350.979161 
L 605.833955 356.135969 
L 606.634069 354.649713 
L 607.434184 349.690539 
L 608.234299 352.11455 
L 609.034414 358.874129 
L 609.834528 356.416593 
L 610.634643 347.121619 
L 611.434758 345.418853 
L 612.234872 347.65495 
L 613.034987 346.810022 
L 613.835102 345.592866 
L 614.635217 347.680165 
L 615.435331 355.35268 
L 616.235446 353.469385 
L 617.035561 346.829967 
L 617.835675 349.18853 
L 618.63579 355.0682 
L 619.435905 353.531655 
L 620.23602 347.455107 
L 621.036134 351.306149 
L 621.836249 358.098437 
L 622.636364 354.826458 
L 622.636364 354.826458 
" clip-path="url(#p03297582b0)" style="fill: none; stroke: #1f77b4; stroke-width: 1.5; stroke-linecap: square"/>
   </g>
   <g id="patch_3">
    <path d="M 90 384.48 
L 90 51.84 
" style="fill: none; stroke: #000000; stroke-width: 0.8; stroke-linejoin: miter; stroke-linecap: square"/>
   </g>
   <g id="patch_4">
    <path d="M 648 384.48 
L 648 51.84 
" style="fill: none; stroke: #000000; stroke-width: 0.8; stroke-linejoin: miter; stroke-linecap: square"/>
   </g>
   <g id="patch_5">
    <path d="M 90 384.48 
L 648 384.48 
" style="fill: none; stroke: #000000; stroke-width: 0.8; stroke-linejoin: miter; stroke-linecap: square"/>
   </g>
   <g id="patch_6">
    <path d="M 90 51.84 
L 648 51.84 
" style="fill: none; stroke: #000000; stroke-width: 0.8; stroke-linejoin: miter; stroke-linecap: square"/>
   </g>
   <g id="text_15">
    <!-- Average time per index -->
    <g transform="translate(298.700625 45.84) scale(0.12 -0.12)">
     <defs>
      <path id="DejaVuSans-70" d="M 1159 525 
L 1159 -1331 
L 581 -1331 
L 581 3500 
L 1159 3500 
L 1159 2969 
Q 1341 3281 1617 3432 
Q 1894 3584 2278 3584 
Q 2916 3584 3314 3078 
Q 3713 2572 3713 1747 
Q 3713 922 3314 415 
Q 2916 -91 2278 -91 
Q 1894 -91 1617 61 
Q 1341 213 1159 525 
z
M 3116 1747 
Q 3116 2381 2855 2742 
Q 2594 3103 2138 3103 
Q 1681 3103 1420 2742 
Q 1159 2381 1159 1747 
Q 1159 1113 1420 752 
Q 1681 391 2138 391 
Q 2594 391 2855 752 
Q 3116 1113 3116 1747 
z
" transform="scale(0.015625)"/>
     </defs>
     <use xlink:href="#DejaVuSans-41"/>
     <use xlink:href="#DejaVuSans-76" transform="translate(62.533203 0)"/>
     <use xlink:href="#DejaVuSans-65" transform="translate(121.712891 0)"/>
     <use xlink:href="#DejaVuSans-72" transform="translate(183.236328 0)"/>
     <use xlink:href="#DejaVuSans-61" transform="translate(224.349609 0)"/>
     <use xlink:href="#DejaVuSans-67" transform="translate(285.628906 0)"/>
     <use xlink:href="#DejaVuSans-65" transform="translate(349.105469 0)"/>
     <use xlink:href="#DejaVuSans-20" transform="translate(410.628906 0)"/>
     <use xlink:href="#DejaVuSans-74" transform="translate(442.416016 0)"/>
     <use xlink:href="#DejaVuSans-69" transform="translate(481.625 0)"/>
     <use xlink:href="#DejaVuSans-6d" transform="translate(509.408203 0)"/>
     <use xlink:href="#DejaVuSans-65" transform="translate(606.820312 0)"/>
     <use xlink:href="#DejaVuSans-20" transform="translate(668.34375 0)"/>
     <use xlink:href="#DejaVuSans-70" transform="translate(700.130859 0)"/>
     <use xlink:href="#DejaVuSans-65" transform="translate(763.607422 0)"/>
     <use xlink:href="#DejaVuSans-72" transform="translate(825.130859 0)"/>
     <use xlink:href="#DejaVuSans-20" transform="translate(866.244141 0)"/>
     <use xlink:href="#DejaVuSans-69" transform="translate(898.03125 0)"/>
     <use xlink:href="#DejaVuSans-6e" transform="translate(925.814453 0)"/>
     <use xlink:href="#DejaVuSans-64" transform="translate(989.193359 0)"/>
     <use xlink:href="#DejaVuSans-65" transform="translate(1052.669922 0)"/>
     <use xlink:href="#DejaVuSans-78" transform="translate(1112.443359 0)"/>
    </g>
   </g>
   <g id="legend_1">
    <g id="patch_7">
     <path d="M 544.020313 74.518125 
L 641 74.518125 
Q 643 74.518125 643 72.518125 
L 643 58.84 
Q 643 56.84 641 56.84 
L 544.020313 56.84 
Q 542.020313 56.84 542.020313 58.84 
L 542.020313 72.518125 
Q 542.020313 74.518125 544.020313 74.518125 
z
" style="fill: #ffffff; opacity: 0.8; stroke: #cccccc; stroke-linejoin: miter"/>
    </g>
    <g id="line2d_14">
     <path d="M 546.020313 64.938438 
L 556.020313 64.938438 
L 566.020313 64.938438 
" style="fill: none; stroke: #1f77b4; stroke-width: 1.5; stroke-linecap: square"/>
    </g>
    <g id="text_16">
     <!-- handleResult -->
     <g transform="translate(574.020313 68.438438) scale(0.1 -0.1)">
      <defs>
       <path id="DejaVuSans-68" d="M 3513 2113 
L 3513 0 
L 2938 0 
L 2938 2094 
Q 2938 2591 2744 2837 
Q 2550 3084 2163 3084 
Q 1697 3084 1428 2787 
Q 1159 2491 1159 1978 
L 1159 0 
L 581 0 
L 581 4863 
L 1159 4863 
L 1159 2956 
Q 1366 3272 1645 3428 
Q 1925 3584 2291 3584 
Q 2894 3584 3203 3211 
Q 3513 2838 3513 2113 
z
" transform="scale(0.015625)"/>
       <path id="DejaVuSans-6c" d="M 603 4863 
L 1178 4863 
L 1178 0 
L 603 0 
L 603 4863 
z
" transform="scale(0.015625)"/>
       <path id="DejaVuSans-52" d="M 2841 2188 
Q 3044 2119 3236 1894 
Q 3428 1669 3622 1275 
L 4263 0 
L 3584 0 
L 2988 1197 
Q 2756 1666 2539 1819 
Q 2322 1972 1947 1972 
L 1259 1972 
L 1259 0 
L 628 0 
L 628 4666 
L 2053 4666 
Q 2853 4666 3247 4331 
Q 3641 3997 3641 3322 
Q 3641 2881 3436 2590 
Q 3231 2300 2841 2188 
z
M 1259 4147 
L 1259 2491 
L 2053 2491 
Q 2509 2491 2742 2702 
Q 2975 2913 2975 3322 
Q 2975 3731 2742 3939 
Q 2509 4147 2053 4147 
L 1259 4147 
z
" transform="scale(0.015625)"/>
       <path id="DejaVuSans-75" d="M 544 1381 
L 544 3500 
L 1119 3500 
L 1119 1403 
Q 1119 906 1312 657 
Q 1506 409 1894 409 
Q 2359 409 2629 706 
Q 2900 1003 2900 1516 
L 2900 3500 
L 3475 3500 
L 3475 0 
L 2900 0 
L 2900 538 
Q 2691 219 2414 64 
Q 2138 -91 1772 -91 
Q 1169 -91 856 284 
Q 544 659 544 1381 
z
M 1991 3584 
L 1991 3584 
z
" transform="scale(0.015625)"/>
      </defs>
      <use xlink:href="#DejaVuSans-68"/>
      <use xlink:href="#DejaVuSans-61" transform="translate(63.378906 0)"/>
      <use xlink:href="#DejaVuSans-6e" transform="translate(124.658203 0)"/>
      <use xlink:href="#DejaVuSans-64" transform="translate(188.037109 0)"/>
      <use xlink:href="#DejaVuSans-6c" transform="translate(251.513672 0)"/>
      <use xlink:href="#DejaVuSans-65" transform="translate(279.296875 0)"/>
      <use xlink:href="#DejaVuSans-52" transform="translate(340.820312 0)"/>
      <use xlink:href="#DejaVuSans-65" transform="translate(405.802734 0)"/>
      <use xlink:href="#DejaVuSans-73" transform="translate(467.326172 0)"/>
      <use xlink:href="#DejaVuSans-75" transform="translate(519.425781 0)"/>
      <use xlink:href="#DejaVuSans-6c" transform="translate(582.804688 0)"/>
      <use xlink:href="#DejaVuSans-74" transform="translate(610.587891 0)"/>
     </g>
    </g>
   </g>
  </g>
 </g>
 <defs>
  <clipPath id="p03297582b0">
   <rect x="90" y="51.84" width="558" height="332.64"/>
  </clipPath>
 </defs>
</svg>
