<?xml version="1.0" encoding="utf-8" standalone="no"?>
<!DOCTYPE svg PUBLIC "-//W3C//DTD SVG 1.1//EN"
  "http://www.w3.org/Graphics/SVG/1.1/DTD/svg11.dtd">
<svg xmlns:xlink="http://www.w3.org/1999/xlink" width="576pt" height="432pt" viewBox="0 0 576 432" xmlns="http://www.w3.org/2000/svg" version="1.1">
 <metadata>
  <rdf:RDF xmlns:dc="http://purl.org/dc/elements/1.1/" xmlns:cc="http://creativecommons.org/ns#" xmlns:rdf="http://www.w3.org/1999/02/22-rdf-syntax-ns#">
   <cc:Work>
    <dc:type rdf:resource="http://purl.org/dc/dcmitype/StillImage"/>
    <dc:date>2025-09-30T20:43:03.180868</dc:date>
    <dc:format>image/svg+xml</dc:format>
    <dc:creator>
     <cc:Agent>
      <dc:title>Matplotlib v3.10.3, https://matplotlib.org/</dc:title>
     </cc:Agent>
    </dc:creator>
   </cc:Work>
  </rdf:RDF>
 </metadata>
 <defs>
  <style type="text/css">*{stroke-linejoin: round; stroke-linecap: butt}</style>
 </defs>
 <g id="figure_1">
  <g id="patch_1">
   <path d="M 0 432 
L 576 432 
L 576 0 
L 0 0 
z
" style="fill: #ffffff"/>
  </g>
  <g id="axes_1">
   <g id="patch_2">
    <path d="M 72 384.48 
L 518.4 384.48 
L 518.4 51.84 
L 72 51.84 
z
" style="fill: #ffffff"/>
   </g>
   <g id="FillBetweenPolyCollection_1">
    <path d="M 325.618544 378.043266 
L 264.781456 378.043266 
L 199.113751 374.905187 
L 183.6 371.767109 
L 219.906212 368.62903 
L 245.101652 365.490952 
L 249.244798 362.352873 
L 262.81349 359.214794 
L 280.560492 356.076716 
L 290.724944 352.938637 
L 293.854572 349.800559 
L 293.860607 346.66248 
L 292.964674 343.524402 
L 293.050694 340.386323 
L 294.092007 337.248245 
L 294.746045 334.110166 
L 294.904881 330.972087 
L 294.987342 327.834009 
L 295.106439 324.69593 
L 295.111045 321.557852 
L 295.107245 318.419773 
L 295.151337 315.281695 
L 295.157238 312.143616 
L 295.173321 309.005538 
L 295.196891 305.867459 
L 295.170955 302.72938 
L 295.062065 299.591302 
L 295.030833 296.453223 
L 295.048791 293.315145 
L 295.030252 290.177066 
L 295.018933 287.038988 
L 294.975389 283.900909 
L 294.968325 280.762831 
L 295.058863 277.624752 
L 295.147787 274.486673 
L 295.193397 271.348595 
L 295.199879 268.210516 
L 295.2 265.072438 
L 295.2 261.934359 
L 295.2 258.796281 
L 295.2 255.658202 
L 295.2 252.520124 
L 295.2 249.382045 
L 295.2 246.243966 
L 295.2 243.105888 
L 295.2 239.967809 
L 295.2 236.829731 
L 295.2 233.691652 
L 295.2 230.553574 
L 295.2 227.415495 
L 295.2 224.277417 
L 295.2 221.139338 
L 295.2 218.001259 
L 295.2 214.863181 
L 295.2 211.725102 
L 295.2 208.587024 
L 295.2 205.448945 
L 295.2 202.310867 
L 295.2 199.172788 
L 295.2 196.03471 
L 295.199818 192.896631 
L 295.188993 189.758552 
L 295.114986 186.620474 
L 295.093311 183.482395 
L 295.133055 180.344317 
L 295.101898 177.206238 
L 295.129463 174.06816 
L 295.182801 170.930081 
L 295.159975 167.792003 
L 295.174231 164.653924 
L 295.198077 161.515845 
L 295.199982 158.377767 
L 295.199651 155.239688 
L 295.188569 152.10161 
L 295.156786 148.963531 
L 295.181158 145.825453 
L 295.199052 142.687374 
L 295.199995 139.549296 
L 295.2 136.411217 
L 295.2 133.273138 
L 295.199998 130.13506 
L 295.199578 126.996981 
L 295.187368 123.858903 
L 295.156412 120.720824 
L 295.182652 117.582746 
L 295.199204 114.444667 
L 295.199996 111.306589 
L 295.2 108.16851 
L 295.2 105.030432 
L 295.2 101.892353 
L 295.2 98.754274 
L 295.2 95.616196 
L 295.2 92.478117 
L 295.2 89.340039 
L 295.199926 86.20196 
L 295.195211 83.063882 
L 295.164158 79.925803 
L 295.169055 76.787725 
L 295.196336 73.649646 
L 295.185075 70.511567 
L 295.156157 67.373489 
L 295.243843 67.373489 
L 295.243843 67.373489 
L 295.214925 70.511567 
L 295.203664 73.649646 
L 295.230945 76.787725 
L 295.235842 79.925803 
L 295.204789 83.063882 
L 295.200074 86.20196 
L 295.2 89.340039 
L 295.2 92.478117 
L 295.2 95.616196 
L 295.2 98.754274 
L 295.2 101.892353 
L 295.2 105.030432 
L 295.2 108.16851 
L 295.200004 111.306589 
L 295.200796 114.444667 
L 295.217348 117.582746 
L 295.243588 120.720824 
L 295.212632 123.858903 
L 295.200422 126.996981 
L 295.200002 130.13506 
L 295.2 133.273138 
L 295.2 136.411217 
L 295.200005 139.549296 
L 295.200948 142.687374 
L 295.218842 145.825453 
L 295.243214 148.963531 
L 295.211431 152.10161 
L 295.200349 155.239688 
L 295.200018 158.377767 
L 295.201923 161.515845 
L 295.225769 164.653924 
L 295.240025 167.792003 
L 295.217199 170.930081 
L 295.270537 174.06816 
L 295.298102 177.206238 
L 295.266945 180.344317 
L 295.306689 183.482395 
L 295.285014 186.620474 
L 295.211007 189.758552 
L 295.200182 192.896631 
L 295.2 196.03471 
L 295.2 199.172788 
L 295.2 202.310867 
L 295.2 205.448945 
L 295.2 208.587024 
L 295.2 211.725102 
L 295.2 214.863181 
L 295.2 218.001259 
L 295.2 221.139338 
L 295.2 224.277417 
L 295.2 227.415495 
L 295.2 230.553574 
L 295.2 233.691652 
L 295.2 236.829731 
L 295.2 239.967809 
L 295.2 243.105888 
L 295.2 246.243966 
L 295.2 249.382045 
L 295.2 252.520124 
L 295.2 255.658202 
L 295.2 258.796281 
L 295.2 261.934359 
L 295.2 265.072438 
L 295.200121 268.210516 
L 295.206603 271.348595 
L 295.252213 274.486673 
L 295.341137 277.624752 
L 295.431675 280.762831 
L 295.424611 283.900909 
L 295.381067 287.038988 
L 295.369748 290.177066 
L 295.351209 293.315145 
L 295.369167 296.453223 
L 295.337935 299.591302 
L 295.229045 302.72938 
L 295.203109 305.867459 
L 295.226679 309.005538 
L 295.242762 312.143616 
L 295.248663 315.281695 
L 295.292755 318.419773 
L 295.288955 321.557852 
L 295.293561 324.69593 
L 295.412658 327.834009 
L 295.495119 330.972087 
L 295.653955 334.110166 
L 296.307993 337.248245 
L 297.349306 340.386323 
L 297.435326 343.524402 
L 296.539393 346.66248 
L 296.545428 349.800559 
L 299.675056 352.938637 
L 309.839508 356.076716 
L 327.58651 359.214794 
L 341.155202 362.352873 
L 345.298348 365.490952 
L 370.493788 368.62903 
L 406.8 371.767109 
L 391.286249 374.905187 
L 325.618544 378.043266 
z
" clip-path="url(#pf6c3760ce4)" style="fill: #1f77b4; fill-opacity: 0.3"/>
   </g>
   <g id="matplotlib.axis_1">
    <g id="xtick_1">
     <g id="line2d_1">
      <defs>
       <path id="me109668c44" d="M 0 0 
L 0 3.5 
" style="stroke: #000000; stroke-width: 0.8"/>
      </defs>
      <g>
       <use xlink:href="#me109668c44" x="295.2" y="384.48" style="stroke: #000000; stroke-width: 0.8"/>
      </g>
     </g>
     <g id="text_1">
      <!-- 1 -->
      <g transform="translate(292.01875 399.078438) scale(0.1 -0.1)">
       <defs>
        <path id="DejaVuSans-31" d="M 794 531 
L 1825 531 
L 1825 4091 
L 703 3866 
L 703 4441 
L 1819 4666 
L 2450 4666 
L 2450 531 
L 3481 531 
L 3481 0 
L 794 0 
L 794 531 
z
" transform="scale(0.015625)"/>
       </defs>
       <use xlink:href="#DejaVuSans-31"/>
      </g>
     </g>
    </g>
   </g>
   <g id="matplotlib.axis_2">
    <g id="ytick_1">
     <g id="line2d_2">
      <defs>
       <path id="m6ea2246cdc" d="M 0 0 
L -3.5 0 
" style="stroke: #000000; stroke-width: 0.8"/>
      </defs>
      <g>
       <use xlink:href="#m6ea2246cdc" x="72" y="384.48" style="stroke: #000000; stroke-width: 0.8"/>
      </g>
     </g>
     <g id="text_2">
      <!-- 0 -->
      <g transform="translate(58.6375 388.279219) scale(0.1 -0.1)">
       <defs>
        <path id="DejaVuSans-30" d="M 2034 4250 
Q 1547 4250 1301 3770 
Q 1056 3291 1056 2328 
Q 1056 1369 1301 889 
Q 1547 409 2034 409 
Q 2525 409 2770 889 
Q 3016 1369 3016 2328 
Q 3016 3291 2770 3770 
Q 2525 4250 2034 4250 
z
M 2034 4750 
Q 2819 4750 3233 4129 
Q 3647 3509 3647 2328 
Q 3647 1150 3233 529 
Q 2819 -91 2034 -91 
Q 1250 -91 836 529 
Q 422 1150 422 2328 
Q 422 3509 836 4129 
Q 1250 4750 2034 4750 
z
" transform="scale(0.015625)"/>
       </defs>
       <use xlink:href="#DejaVuSans-30"/>
      </g>
     </g>
    </g>
    <g id="ytick_2">
     <g id="line2d_3">
      <g>
       <use xlink:href="#m6ea2246cdc" x="72" y="335.83751" style="stroke: #000000; stroke-width: 0.8"/>
      </g>
     </g>
     <g id="text_3">
      <!-- 5 -->
      <g transform="translate(58.6375 339.636729) scale(0.1 -0.1)">
       <defs>
        <path id="DejaVuSans-35" d="M 691 4666 
L 3169 4666 
L 3169 4134 
L 1269 4134 
L 1269 2991 
Q 1406 3038 1543 3061 
Q 1681 3084 1819 3084 
Q 2600 3084 3056 2656 
Q 3513 2228 3513 1497 
Q 3513 744 3044 326 
Q 2575 -91 1722 -91 
Q 1428 -91 1123 -41 
Q 819 9 494 109 
L 494 744 
Q 775 591 1075 516 
Q 1375 441 1709 441 
Q 2250 441 2565 725 
Q 2881 1009 2881 1497 
Q 2881 1984 2565 2268 
Q 2250 2553 1709 2553 
Q 1456 2553 1204 2497 
Q 953 2441 691 2322 
L 691 4666 
z
" transform="scale(0.015625)"/>
       </defs>
       <use xlink:href="#DejaVuSans-35"/>
      </g>
     </g>
    </g>
    <g id="ytick_3">
     <g id="line2d_4">
      <g>
       <use xlink:href="#m6ea2246cdc" x="72" y="287.19502" style="stroke: #000000; stroke-width: 0.8"/>
      </g>
     </g>
     <g id="text_4">
      <!-- 10 -->
      <g transform="translate(52.275 290.994239) scale(0.1 -0.1)">
       <use xlink:href="#DejaVuSans-31"/>
       <use xlink:href="#DejaVuSans-30" transform="translate(63.623047 0)"/>
      </g>
     </g>
    </g>
    <g id="ytick_4">
     <g id="line2d_5">
      <g>
       <use xlink:href="#m6ea2246cdc" x="72" y="238.55253" style="stroke: #000000; stroke-width: 0.8"/>
      </g>
     </g>
     <g id="text_5">
      <!-- 15 -->
      <g transform="translate(52.275 242.351749) scale(0.1 -0.1)">
       <use xlink:href="#DejaVuSans-31"/>
       <use xlink:href="#DejaVuSans-35" transform="translate(63.623047 0)"/>
      </g>
     </g>
    </g>
    <g id="ytick_5">
     <g id="line2d_6">
      <g>
       <use xlink:href="#m6ea2246cdc" x="72" y="189.91004" style="stroke: #000000; stroke-width: 0.8"/>
      </g>
     </g>
     <g id="text_6">
      <!-- 20 -->
      <g transform="translate(52.275 193.709259) scale(0.1 -0.1)">
       <defs>
        <path id="DejaVuSans-32" d="M 1228 531 
L 3431 531 
L 3431 0 
L 469 0 
L 469 531 
Q 828 903 1448 1529 
Q 2069 2156 2228 2338 
Q 2531 2678 2651 2914 
Q 2772 3150 2772 3378 
Q 2772 3750 2511 3984 
Q 2250 4219 1831 4219 
Q 1534 4219 1204 4116 
Q 875 4013 500 3803 
L 500 4441 
Q 881 4594 1212 4672 
Q 1544 4750 1819 4750 
Q 2544 4750 2975 4387 
Q 3406 4025 3406 3419 
Q 3406 3131 3298 2873 
Q 3191 2616 2906 2266 
Q 2828 2175 2409 1742 
Q 1991 1309 1228 531 
z
" transform="scale(0.015625)"/>
       </defs>
       <use xlink:href="#DejaVuSans-32"/>
       <use xlink:href="#DejaVuSans-30" transform="translate(63.623047 0)"/>
      </g>
     </g>
    </g>
    <g id="ytick_6">
     <g id="line2d_7">
      <g>
       <use xlink:href="#m6ea2246cdc" x="72" y="141.26755" style="stroke: #000000; stroke-width: 0.8"/>
      </g>
     </g>
     <g id="text_7">
      <!-- 25 -->
      <g transform="translate(52.275 145.066769) scale(0.1 -0.1)">
       <use xlink:href="#DejaVuSans-32"/>
       <use xlink:href="#DejaVuSans-35" transform="translate(63.623047 0)"/>
      </g>
     </g>
    </g>
    <g id="ytick_7">
     <g id="line2d_8">
      <g>
       <use xlink:href="#m6ea2246cdc" x="72" y="92.62506" style="stroke: #000000; stroke-width: 0.8"/>
      </g>
     </g>
     <g id="text_8">
      <!-- 30 -->
      <g transform="translate(52.275 96.424279) scale(0.1 -0.1)">
       <defs>
        <path id="DejaVuSans-33" d="M 2597 2516 
Q 3050 2419 3304 2112 
Q 3559 1806 3559 1356 
Q 3559 666 3084 287 
Q 2609 -91 1734 -91 
Q 1441 -91 1130 -33 
Q 819 25 488 141 
L 488 750 
Q 750 597 1062 519 
Q 1375 441 1716 441 
Q 2309 441 2620 675 
Q 2931 909 2931 1356 
Q 2931 1769 2642 2001 
Q 2353 2234 1838 2234 
L 1294 2234 
L 1294 2753 
L 1863 2753 
Q 2328 2753 2575 2939 
Q 2822 3125 2822 3475 
Q 2822 3834 2567 4026 
Q 2313 4219 1838 4219 
Q 1578 4219 1281 4162 
Q 984 4106 628 3988 
L 628 4550 
Q 988 4650 1302 4700 
Q 1616 4750 1894 4750 
Q 2613 4750 3031 4423 
Q 3450 4097 3450 3541 
Q 3450 3153 3228 2886 
Q 3006 2619 2597 2516 
z
" transform="scale(0.015625)"/>
       </defs>
       <use xlink:href="#DejaVuSans-33"/>
       <use xlink:href="#DejaVuSans-30" transform="translate(63.623047 0)"/>
      </g>
     </g>
    </g>
    <g id="text_9">
     <!-- Time (ms) -->
     <g transform="translate(46.195312 243.359219) rotate(-90) scale(0.1 -0.1)">
      <defs>
       <path id="DejaVuSans-54" d="M -19 4666 
L 3928 4666 
L 3928 4134 
L 2272 4134 
L 2272 0 
L 1638 0 
L 1638 4134 
L -19 4134 
L -19 4666 
z
" transform="scale(0.015625)"/>
       <path id="DejaVuSans-69" d="M 603 3500 
L 1178 3500 
L 1178 0 
L 603 0 
L 603 3500 
z
M 603 4863 
L 1178 4863 
L 1178 4134 
L 603 4134 
L 603 4863 
z
" transform="scale(0.015625)"/>
       <path id="DejaVuSans-6d" d="M 3328 2828 
Q 3544 3216 3844 3400 
Q 4144 3584 4550 3584 
Q 5097 3584 5394 3201 
Q 5691 2819 5691 2113 
L 5691 0 
L 5113 0 
L 5113 2094 
Q 5113 2597 4934 2840 
Q 4756 3084 4391 3084 
Q 3944 3084 3684 2787 
Q 3425 2491 3425 1978 
L 3425 0 
L 2847 0 
L 2847 2094 
Q 2847 2600 2669 2842 
Q 2491 3084 2119 3084 
Q 1678 3084 1418 2786 
Q 1159 2488 1159 1978 
L 1159 0 
L 581 0 
L 581 3500 
L 1159 3500 
L 1159 2956 
Q 1356 3278 1631 3431 
Q 1906 3584 2284 3584 
Q 2666 3584 2933 3390 
Q 3200 3197 3328 2828 
z
" transform="scale(0.015625)"/>
       <path id="DejaVuSans-65" d="M 3597 1894 
L 3597 1613 
L 953 1613 
Q 991 1019 1311 708 
Q 1631 397 2203 397 
Q 2534 397 2845 478 
Q 3156 559 3463 722 
L 3463 178 
Q 3153 47 2828 -22 
Q 2503 -91 2169 -91 
Q 1331 -91 842 396 
Q 353 884 353 1716 
Q 353 2575 817 3079 
Q 1281 3584 2069 3584 
Q 2775 3584 3186 3129 
Q 3597 2675 3597 1894 
z
M 3022 2063 
Q 3016 2534 2758 2815 
Q 2500 3097 2075 3097 
Q 1594 3097 1305 2825 
Q 1016 2553 972 2059 
L 3022 2063 
z
" transform="scale(0.015625)"/>
       <path id="DejaVuSans-20" transform="scale(0.015625)"/>
       <path id="DejaVuSans-28" d="M 1984 4856 
Q 1566 4138 1362 3434 
Q 1159 2731 1159 2009 
Q 1159 1288 1364 580 
Q 1569 -128 1984 -844 
L 1484 -844 
Q 1016 -109 783 600 
Q 550 1309 550 2009 
Q 550 2706 781 3412 
Q 1013 4119 1484 4856 
L 1984 4856 
z
" transform="scale(0.015625)"/>
       <path id="DejaVuSans-73" d="M 2834 3397 
L 2834 2853 
Q 2591 2978 2328 3040 
Q 2066 3103 1784 3103 
Q 1356 3103 1142 2972 
Q 928 2841 928 2578 
Q 928 2378 1081 2264 
Q 1234 2150 1697 2047 
L 1894 2003 
Q 2506 1872 2764 1633 
Q 3022 1394 3022 966 
Q 3022 478 2636 193 
Q 2250 -91 1575 -91 
Q 1294 -91 989 -36 
Q 684 19 347 128 
L 347 722 
Q 666 556 975 473 
Q 1284 391 1588 391 
Q 1994 391 2212 530 
Q 2431 669 2431 922 
Q 2431 1156 2273 1281 
Q 2116 1406 1581 1522 
L 1381 1569 
Q 847 1681 609 1914 
Q 372 2147 372 2553 
Q 372 3047 722 3315 
Q 1072 3584 1716 3584 
Q 2034 3584 2315 3537 
Q 2597 3491 2834 3397 
z
" transform="scale(0.015625)"/>
       <path id="DejaVuSans-29" d="M 513 4856 
L 1013 4856 
Q 1481 4119 1714 3412 
Q 1947 2706 1947 2009 
Q 1947 1309 1714 600 
Q 1481 -109 1013 -844 
L 513 -844 
Q 928 -128 1133 580 
Q 1338 1288 1338 2009 
Q 1338 2731 1133 3434 
Q 928 4138 513 4856 
z
" transform="scale(0.015625)"/>
      </defs>
      <use xlink:href="#DejaVuSans-54"/>
      <use xlink:href="#DejaVuSans-69" transform="translate(57.958984 0)"/>
      <use xlink:href="#DejaVuSans-6d" transform="translate(85.742188 0)"/>
      <use xlink:href="#DejaVuSans-65" transform="translate(183.154297 0)"/>
      <use xlink:href="#DejaVuSans-20" transform="translate(244.677734 0)"/>
      <use xlink:href="#DejaVuSans-28" transform="translate(276.464844 0)"/>
      <use xlink:href="#DejaVuSans-6d" transform="translate(315.478516 0)"/>
      <use xlink:href="#DejaVuSans-73" transform="translate(412.890625 0)"/>
      <use xlink:href="#DejaVuSans-29" transform="translate(464.990234 0)"/>
     </g>
    </g>
   </g>
   <g id="LineCollection_1">
    <path d="M 239.4 367.996429 
L 351 367.996429 
" clip-path="url(#pf6c3760ce4)" style="fill: none; stroke: #1f77b4; stroke-width: 1.5"/>
   </g>
   <g id="LineCollection_2">
    <path d="M 239.4 67.373489 
L 351 67.373489 
" clip-path="url(#pf6c3760ce4)" style="fill: none; stroke: #1f77b4; stroke-width: 1.5"/>
   </g>
   <g id="LineCollection_3">
    <path d="M 239.4 378.043266 
L 351 378.043266 
" clip-path="url(#pf6c3760ce4)" style="fill: none; stroke: #1f77b4; stroke-width: 1.5"/>
   </g>
   <g id="LineCollection_4">
    <path d="M 295.2 378.043266 
L 295.2 67.373489 
" clip-path="url(#pf6c3760ce4)" style="fill: none; stroke: #1f77b4; stroke-width: 1.5"/>
   </g>
   <g id="patch_3">
    <path d="M 250.56 373.598254 
L 339.84 373.598254 
L 339.84 364.410607 
L 250.56 364.410607 
L 250.56 373.598254 
z
" clip-path="url(#pf6c3760ce4)" style="fill: #1f77b4; stroke: #000000; stroke-linejoin: miter"/>
   </g>
   <g id="line2d_9">
    <path d="M 295.2 373.598254 
L 295.2 378.043266 
" clip-path="url(#pf6c3760ce4)" style="fill: none; stroke: #000000; stroke-linecap: square"/>
   </g>
   <g id="line2d_10">
    <path d="M 295.2 364.410607 
L 295.2 350.728747 
" clip-path="url(#pf6c3760ce4)" style="fill: none; stroke: #000000; stroke-linecap: square"/>
   </g>
   <g id="line2d_11">
    <path d="M 272.88 378.043266 
L 317.52 378.043266 
" clip-path="url(#pf6c3760ce4)" style="fill: none; stroke: #000000; stroke-linecap: square"/>
   </g>
   <g id="line2d_12">
    <path d="M 272.88 350.728747 
L 317.52 350.728747 
" clip-path="url(#pf6c3760ce4)" style="fill: none; stroke: #000000; stroke-linecap: square"/>
   </g>
   <g id="line2d_13">
    <defs>
     <path id="m5cd3b6d194" d="M 0 3 
C 0.795609 3 1.55874 2.683901 2.12132 2.12132 
C 2.683901 1.55874 3 0.795609 3 0 
C 3 -0.795609 2.683901 -1.55874 2.12132 -2.12132 
C 1.55874 -2.683901 0.795609 -3 0 -3 
C -0.795609 -3 -1.55874 -2.683901 -2.12132 -2.12132 
C -2.683901 -1.55874 -3 -0.795609 -3 0 
C -3 0.795609 -2.683901 1.55874 -2.12132 2.12132 
C -1.55874 2.683901 -0.795609 3 0 3 
z
" style="stroke: #000000"/>
    </defs>
    <g clip-path="url(#pf6c3760ce4)">
     <use xlink:href="#m5cd3b6d194" x="295.2" y="185.189734" style="fill-opacity: 0; stroke: #000000"/>
     <use xlink:href="#m5cd3b6d194" x="295.2" y="294.725082" style="fill-opacity: 0; stroke: #000000"/>
     <use xlink:href="#m5cd3b6d194" x="295.2" y="340.894811" style="fill-opacity: 0; stroke: #000000"/>
     <use xlink:href="#m5cd3b6d194" x="295.2" y="341.16863" style="fill-opacity: 0; stroke: #000000"/>
     <use xlink:href="#m5cd3b6d194" x="295.2" y="343.163857" style="fill-opacity: 0; stroke: #000000"/>
     <use xlink:href="#m5cd3b6d194" x="295.2" y="287.119683" style="fill-opacity: 0; stroke: #000000"/>
     <use xlink:href="#m5cd3b6d194" x="295.2" y="339.162137" style="fill-opacity: 0; stroke: #000000"/>
     <use xlink:href="#m5cd3b6d194" x="295.2" y="345.276235" style="fill-opacity: 0; stroke: #000000"/>
     <use xlink:href="#m5cd3b6d194" x="295.2" y="339.222726" style="fill-opacity: 0; stroke: #000000"/>
     <use xlink:href="#m5cd3b6d194" x="295.2" y="343.602272" style="fill-opacity: 0; stroke: #000000"/>
     <use xlink:href="#m5cd3b6d194" x="295.2" y="339.822235" style="fill-opacity: 0; stroke: #000000"/>
     <use xlink:href="#m5cd3b6d194" x="295.2" y="166.855358" style="fill-opacity: 0; stroke: #000000"/>
     <use xlink:href="#m5cd3b6d194" x="295.2" y="293.50005" style="fill-opacity: 0; stroke: #000000"/>
     <use xlink:href="#m5cd3b6d194" x="295.2" y="348.885303" style="fill-opacity: 0; stroke: #000000"/>
     <use xlink:href="#m5cd3b6d194" x="295.2" y="340.303387" style="fill-opacity: 0; stroke: #000000"/>
     <use xlink:href="#m5cd3b6d194" x="295.2" y="348.835785" style="fill-opacity: 0; stroke: #000000"/>
     <use xlink:href="#m5cd3b6d194" x="295.2" y="282.431023" style="fill-opacity: 0; stroke: #000000"/>
     <use xlink:href="#m5cd3b6d194" x="295.2" y="343.658201" style="fill-opacity: 0; stroke: #000000"/>
     <use xlink:href="#m5cd3b6d194" x="295.2" y="343.771149" style="fill-opacity: 0; stroke: #000000"/>
     <use xlink:href="#m5cd3b6d194" x="295.2" y="345.401956" style="fill-opacity: 0; stroke: #000000"/>
     <use xlink:href="#m5cd3b6d194" x="295.2" y="328.729704" style="fill-opacity: 0; stroke: #000000"/>
     <use xlink:href="#m5cd3b6d194" x="295.2" y="333.006721" style="fill-opacity: 0; stroke: #000000"/>
     <use xlink:href="#m5cd3b6d194" x="295.2" y="350.619904" style="fill-opacity: 0; stroke: #000000"/>
     <use xlink:href="#m5cd3b6d194" x="295.2" y="335.239198" style="fill-opacity: 0; stroke: #000000"/>
     <use xlink:href="#m5cd3b6d194" x="295.2" y="332.551895" style="fill-opacity: 0; stroke: #000000"/>
     <use xlink:href="#m5cd3b6d194" x="295.2" y="336.521073" style="fill-opacity: 0; stroke: #000000"/>
     <use xlink:href="#m5cd3b6d194" x="295.2" y="148.600493" style="fill-opacity: 0; stroke: #000000"/>
     <use xlink:href="#m5cd3b6d194" x="295.2" y="286.632217" style="fill-opacity: 0; stroke: #000000"/>
     <use xlink:href="#m5cd3b6d194" x="295.2" y="347.213675" style="fill-opacity: 0; stroke: #000000"/>
     <use xlink:href="#m5cd3b6d194" x="295.2" y="340.856024" style="fill-opacity: 0; stroke: #000000"/>
     <use xlink:href="#m5cd3b6d194" x="295.2" y="339.773806" style="fill-opacity: 0; stroke: #000000"/>
     <use xlink:href="#m5cd3b6d194" x="295.2" y="284.927745" style="fill-opacity: 0; stroke: #000000"/>
     <use xlink:href="#m5cd3b6d194" x="295.2" y="345.74903" style="fill-opacity: 0; stroke: #000000"/>
     <use xlink:href="#m5cd3b6d194" x="295.2" y="341.619487" style="fill-opacity: 0; stroke: #000000"/>
     <use xlink:href="#m5cd3b6d194" x="295.2" y="343.444339" style="fill-opacity: 0; stroke: #000000"/>
     <use xlink:href="#m5cd3b6d194" x="295.2" y="338.650058" style="fill-opacity: 0; stroke: #000000"/>
     <use xlink:href="#m5cd3b6d194" x="295.2" y="341.385828" style="fill-opacity: 0; stroke: #000000"/>
     <use xlink:href="#m5cd3b6d194" x="295.2" y="336.506617" style="fill-opacity: 0; stroke: #000000"/>
     <use xlink:href="#m5cd3b6d194" x="295.2" y="78.570299" style="fill-opacity: 0; stroke: #000000"/>
     <use xlink:href="#m5cd3b6d194" x="295.2" y="291.140578" style="fill-opacity: 0; stroke: #000000"/>
     <use xlink:href="#m5cd3b6d194" x="295.2" y="343.396281" style="fill-opacity: 0; stroke: #000000"/>
     <use xlink:href="#m5cd3b6d194" x="295.2" y="344.971188" style="fill-opacity: 0; stroke: #000000"/>
     <use xlink:href="#m5cd3b6d194" x="295.2" y="342.996566" style="fill-opacity: 0; stroke: #000000"/>
     <use xlink:href="#m5cd3b6d194" x="295.2" y="278.48997" style="fill-opacity: 0; stroke: #000000"/>
     <use xlink:href="#m5cd3b6d194" x="295.2" y="346.259154" style="fill-opacity: 0; stroke: #000000"/>
     <use xlink:href="#m5cd3b6d194" x="295.2" y="343.537577" style="fill-opacity: 0; stroke: #000000"/>
     <use xlink:href="#m5cd3b6d194" x="295.2" y="343.527635" style="fill-opacity: 0; stroke: #000000"/>
     <use xlink:href="#m5cd3b6d194" x="295.2" y="340.402939" style="fill-opacity: 0; stroke: #000000"/>
     <use xlink:href="#m5cd3b6d194" x="295.2" y="336.229053" style="fill-opacity: 0; stroke: #000000"/>
     <use xlink:href="#m5cd3b6d194" x="295.2" y="344.197491" style="fill-opacity: 0; stroke: #000000"/>
     <use xlink:href="#m5cd3b6d194" x="295.2" y="340.040202" style="fill-opacity: 0; stroke: #000000"/>
     <use xlink:href="#m5cd3b6d194" x="295.2" y="339.345713" style="fill-opacity: 0; stroke: #000000"/>
     <use xlink:href="#m5cd3b6d194" x="295.2" y="338.493555" style="fill-opacity: 0; stroke: #000000"/>
     <use xlink:href="#m5cd3b6d194" x="295.2" y="342.07984" style="fill-opacity: 0; stroke: #000000"/>
     <use xlink:href="#m5cd3b6d194" x="295.2" y="343.492155" style="fill-opacity: 0; stroke: #000000"/>
     <use xlink:href="#m5cd3b6d194" x="295.2" y="344.727986" style="fill-opacity: 0; stroke: #000000"/>
     <use xlink:href="#m5cd3b6d194" x="295.2" y="328.196505" style="fill-opacity: 0; stroke: #000000"/>
     <use xlink:href="#m5cd3b6d194" x="295.2" y="185.538306" style="fill-opacity: 0; stroke: #000000"/>
     <use xlink:href="#m5cd3b6d194" x="295.2" y="297.510331" style="fill-opacity: 0; stroke: #000000"/>
     <use xlink:href="#m5cd3b6d194" x="295.2" y="343.472883" style="fill-opacity: 0; stroke: #000000"/>
     <use xlink:href="#m5cd3b6d194" x="295.2" y="279.173679" style="fill-opacity: 0; stroke: #000000"/>
     <use xlink:href="#m5cd3b6d194" x="295.2" y="341.788267" style="fill-opacity: 0; stroke: #000000"/>
     <use xlink:href="#m5cd3b6d194" x="295.2" y="339.010732" style="fill-opacity: 0; stroke: #000000"/>
     <use xlink:href="#m5cd3b6d194" x="295.2" y="337.818388" style="fill-opacity: 0; stroke: #000000"/>
     <use xlink:href="#m5cd3b6d194" x="295.2" y="343.294949" style="fill-opacity: 0; stroke: #000000"/>
     <use xlink:href="#m5cd3b6d194" x="295.2" y="340.99661" style="fill-opacity: 0; stroke: #000000"/>
     <use xlink:href="#m5cd3b6d194" x="295.2" y="340.763233" style="fill-opacity: 0; stroke: #000000"/>
     <use xlink:href="#m5cd3b6d194" x="295.2" y="329.967081" style="fill-opacity: 0; stroke: #000000"/>
     <use xlink:href="#m5cd3b6d194" x="295.2" y="318.96381" style="fill-opacity: 0; stroke: #000000"/>
     <use xlink:href="#m5cd3b6d194" x="295.2" y="339.938451" style="fill-opacity: 0; stroke: #000000"/>
     <use xlink:href="#m5cd3b6d194" x="295.2" y="345.499387" style="fill-opacity: 0; stroke: #000000"/>
     <use xlink:href="#m5cd3b6d194" x="295.2" y="311.137369" style="fill-opacity: 0; stroke: #000000"/>
     <use xlink:href="#m5cd3b6d194" x="295.2" y="174.844264" style="fill-opacity: 0; stroke: #000000"/>
     <use xlink:href="#m5cd3b6d194" x="295.2" y="297.123079" style="fill-opacity: 0; stroke: #000000"/>
     <use xlink:href="#m5cd3b6d194" x="295.2" y="348.542267" style="fill-opacity: 0; stroke: #000000"/>
     <use xlink:href="#m5cd3b6d194" x="295.2" y="340.163073" style="fill-opacity: 0; stroke: #000000"/>
     <use xlink:href="#m5cd3b6d194" x="295.2" y="338.75104" style="fill-opacity: 0; stroke: #000000"/>
     <use xlink:href="#m5cd3b6d194" x="295.2" y="348.738092" style="fill-opacity: 0; stroke: #000000"/>
     <use xlink:href="#m5cd3b6d194" x="295.2" y="281.762958" style="fill-opacity: 0; stroke: #000000"/>
     <use xlink:href="#m5cd3b6d194" x="295.2" y="340.713404" style="fill-opacity: 0; stroke: #000000"/>
     <use xlink:href="#m5cd3b6d194" x="295.2" y="338.805373" style="fill-opacity: 0; stroke: #000000"/>
     <use xlink:href="#m5cd3b6d194" x="295.2" y="339.464352" style="fill-opacity: 0; stroke: #000000"/>
     <use xlink:href="#m5cd3b6d194" x="295.2" y="335.64938" style="fill-opacity: 0; stroke: #000000"/>
     <use xlink:href="#m5cd3b6d194" x="295.2" y="342.74381" style="fill-opacity: 0; stroke: #000000"/>
     <use xlink:href="#m5cd3b6d194" x="295.2" y="337.063962" style="fill-opacity: 0; stroke: #000000"/>
     <use xlink:href="#m5cd3b6d194" x="295.2" y="342.841318" style="fill-opacity: 0; stroke: #000000"/>
     <use xlink:href="#m5cd3b6d194" x="295.2" y="328.916316" style="fill-opacity: 0; stroke: #000000"/>
     <use xlink:href="#m5cd3b6d194" x="295.2" y="336.877097" style="fill-opacity: 0; stroke: #000000"/>
     <use xlink:href="#m5cd3b6d194" x="295.2" y="344.063753" style="fill-opacity: 0; stroke: #000000"/>
     <use xlink:href="#m5cd3b6d194" x="295.2" y="348.555225" style="fill-opacity: 0; stroke: #000000"/>
     <use xlink:href="#m5cd3b6d194" x="295.2" y="120.490329" style="fill-opacity: 0; stroke: #000000"/>
     <use xlink:href="#m5cd3b6d194" x="295.2" y="279.949964" style="fill-opacity: 0; stroke: #000000"/>
     <use xlink:href="#m5cd3b6d194" x="295.2" y="347.00315" style="fill-opacity: 0; stroke: #000000"/>
     <use xlink:href="#m5cd3b6d194" x="295.2" y="348.94956" style="fill-opacity: 0; stroke: #000000"/>
     <use xlink:href="#m5cd3b6d194" x="295.2" y="275.542128" style="fill-opacity: 0; stroke: #000000"/>
     <use xlink:href="#m5cd3b6d194" x="295.2" y="342.411436" style="fill-opacity: 0; stroke: #000000"/>
     <use xlink:href="#m5cd3b6d194" x="295.2" y="345.423213" style="fill-opacity: 0; stroke: #000000"/>
     <use xlink:href="#m5cd3b6d194" x="295.2" y="342.027238" style="fill-opacity: 0; stroke: #000000"/>
     <use xlink:href="#m5cd3b6d194" x="295.2" y="345.685318" style="fill-opacity: 0; stroke: #000000"/>
     <use xlink:href="#m5cd3b6d194" x="295.2" y="346.257782" style="fill-opacity: 0; stroke: #000000"/>
     <use xlink:href="#m5cd3b6d194" x="295.2" y="343.39989" style="fill-opacity: 0; stroke: #000000"/>
     <use xlink:href="#m5cd3b6d194" x="295.2" y="343.719675" style="fill-opacity: 0; stroke: #000000"/>
     <use xlink:href="#m5cd3b6d194" x="295.2" y="341.490166" style="fill-opacity: 0; stroke: #000000"/>
     <use xlink:href="#m5cd3b6d194" x="295.2" y="343.10714" style="fill-opacity: 0; stroke: #000000"/>
     <use xlink:href="#m5cd3b6d194" x="295.2" y="345.229383" style="fill-opacity: 0; stroke: #000000"/>
     <use xlink:href="#m5cd3b6d194" x="295.2" y="317.012419" style="fill-opacity: 0; stroke: #000000"/>
     <use xlink:href="#m5cd3b6d194" x="295.2" y="176.288518" style="fill-opacity: 0; stroke: #000000"/>
     <use xlink:href="#m5cd3b6d194" x="295.2" y="299.845541" style="fill-opacity: 0; stroke: #000000"/>
     <use xlink:href="#m5cd3b6d194" x="295.2" y="343.838558" style="fill-opacity: 0; stroke: #000000"/>
     <use xlink:href="#m5cd3b6d194" x="295.2" y="348.918264" style="fill-opacity: 0; stroke: #000000"/>
     <use xlink:href="#m5cd3b6d194" x="295.2" y="350.227564" style="fill-opacity: 0; stroke: #000000"/>
     <use xlink:href="#m5cd3b6d194" x="295.2" y="283.849127" style="fill-opacity: 0; stroke: #000000"/>
     <use xlink:href="#m5cd3b6d194" x="295.2" y="339.660119" style="fill-opacity: 0; stroke: #000000"/>
     <use xlink:href="#m5cd3b6d194" x="295.2" y="344.257574" style="fill-opacity: 0; stroke: #000000"/>
     <use xlink:href="#m5cd3b6d194" x="295.2" y="324.327996" style="fill-opacity: 0; stroke: #000000"/>
     <use xlink:href="#m5cd3b6d194" x="295.2" y="343.368525" style="fill-opacity: 0; stroke: #000000"/>
     <use xlink:href="#m5cd3b6d194" x="295.2" y="345.03348" style="fill-opacity: 0; stroke: #000000"/>
     <use xlink:href="#m5cd3b6d194" x="295.2" y="343.033631" style="fill-opacity: 0; stroke: #000000"/>
     <use xlink:href="#m5cd3b6d194" x="295.2" y="332.212652" style="fill-opacity: 0; stroke: #000000"/>
     <use xlink:href="#m5cd3b6d194" x="295.2" y="67.373489" style="fill-opacity: 0; stroke: #000000"/>
     <use xlink:href="#m5cd3b6d194" x="295.2" y="341.821023" style="fill-opacity: 0; stroke: #000000"/>
     <use xlink:href="#m5cd3b6d194" x="295.2" y="333.388049" style="fill-opacity: 0; stroke: #000000"/>
     <use xlink:href="#m5cd3b6d194" x="295.2" y="340.088475" style="fill-opacity: 0; stroke: #000000"/>
     <use xlink:href="#m5cd3b6d194" x="295.2" y="183.112972" style="fill-opacity: 0; stroke: #000000"/>
     <use xlink:href="#m5cd3b6d194" x="295.2" y="290.684165" style="fill-opacity: 0; stroke: #000000"/>
     <use xlink:href="#m5cd3b6d194" x="295.2" y="341.964022" style="fill-opacity: 0; stroke: #000000"/>
     <use xlink:href="#m5cd3b6d194" x="295.2" y="282.153615" style="fill-opacity: 0; stroke: #000000"/>
     <use xlink:href="#m5cd3b6d194" x="295.2" y="341.396082" style="fill-opacity: 0; stroke: #000000"/>
     <use xlink:href="#m5cd3b6d194" x="295.2" y="345.457603" style="fill-opacity: 0; stroke: #000000"/>
     <use xlink:href="#m5cd3b6d194" x="295.2" y="341.630899" style="fill-opacity: 0; stroke: #000000"/>
     <use xlink:href="#m5cd3b6d194" x="295.2" y="340.156866" style="fill-opacity: 0; stroke: #000000"/>
     <use xlink:href="#m5cd3b6d194" x="295.2" y="340.317483" style="fill-opacity: 0; stroke: #000000"/>
     <use xlink:href="#m5cd3b6d194" x="295.2" y="341.020027" style="fill-opacity: 0; stroke: #000000"/>
     <use xlink:href="#m5cd3b6d194" x="295.2" y="338.652081" style="fill-opacity: 0; stroke: #000000"/>
     <use xlink:href="#m5cd3b6d194" x="295.2" y="178.787264" style="fill-opacity: 0; stroke: #000000"/>
     <use xlink:href="#m5cd3b6d194" x="295.2" y="298.75625" style="fill-opacity: 0; stroke: #000000"/>
     <use xlink:href="#m5cd3b6d194" x="295.2" y="340.050533" style="fill-opacity: 0; stroke: #000000"/>
     <use xlink:href="#m5cd3b6d194" x="295.2" y="289.261713" style="fill-opacity: 0; stroke: #000000"/>
     <use xlink:href="#m5cd3b6d194" x="295.2" y="345.578305" style="fill-opacity: 0; stroke: #000000"/>
     <use xlink:href="#m5cd3b6d194" x="295.2" y="337.674202" style="fill-opacity: 0; stroke: #000000"/>
     <use xlink:href="#m5cd3b6d194" x="295.2" y="344.680345" style="fill-opacity: 0; stroke: #000000"/>
     <use xlink:href="#m5cd3b6d194" x="295.2" y="339.329895" style="fill-opacity: 0; stroke: #000000"/>
     <use xlink:href="#m5cd3b6d194" x="295.2" y="343.499286" style="fill-opacity: 0; stroke: #000000"/>
     <use xlink:href="#m5cd3b6d194" x="295.2" y="340.762679" style="fill-opacity: 0; stroke: #000000"/>
     <use xlink:href="#m5cd3b6d194" x="295.2" y="321.651852" style="fill-opacity: 0; stroke: #000000"/>
     <use xlink:href="#m5cd3b6d194" x="295.2" y="333.96171" style="fill-opacity: 0; stroke: #000000"/>
     <use xlink:href="#m5cd3b6d194" x="295.2" y="346.987672" style="fill-opacity: 0; stroke: #000000"/>
     <use xlink:href="#m5cd3b6d194" x="295.2" y="328.961758" style="fill-opacity: 0; stroke: #000000"/>
    </g>
   </g>
   <g id="line2d_14">
    <path d="M 250.56 370.593445 
L 339.84 370.593445 
" clip-path="url(#pf6c3760ce4)" style="fill: none; stroke: #ff7f0e"/>
   </g>
   <g id="patch_4">
    <path d="M 72 384.48 
L 72 51.84 
" style="fill: none; stroke: #000000; stroke-width: 0.8; stroke-linejoin: miter; stroke-linecap: square"/>
   </g>
   <g id="patch_5">
    <path d="M 518.4 384.48 
L 518.4 51.84 
" style="fill: none; stroke: #000000; stroke-width: 0.8; stroke-linejoin: miter; stroke-linecap: square"/>
   </g>
   <g id="patch_6">
    <path d="M 72 384.48 
L 518.4 384.48 
" style="fill: none; stroke: #000000; stroke-width: 0.8; stroke-linejoin: miter; stroke-linecap: square"/>
   </g>
   <g id="patch_7">
    <path d="M 72 51.84 
L 518.4 51.84 
" style="fill: none; stroke: #000000; stroke-width: 0.8; stroke-linejoin: miter; stroke-linecap: square"/>
   </g>
   <g id="text_10">
    <!-- Handle Result -->
    <g transform="translate(253.595625 45.84) scale(0.12 -0.12)">
     <defs>
      <path id="DejaVuSans-48" d="M 628 4666 
L 1259 4666 
L 1259 2753 
L 3553 2753 
L 3553 4666 
L 4184 4666 
L 4184 0 
L 3553 0 
L 3553 2222 
L 1259 2222 
L 1259 0 
L 628 0 
L 628 4666 
z
" transform="scale(0.015625)"/>
      <path id="DejaVuSans-61" d="M 2194 1759 
Q 1497 1759 1228 1600 
Q 959 1441 959 1056 
Q 959 750 1161 570 
Q 1363 391 1709 391 
Q 2188 391 2477 730 
Q 2766 1069 2766 1631 
L 2766 1759 
L 2194 1759 
z
M 3341 1997 
L 3341 0 
L 2766 0 
L 2766 531 
Q 2569 213 2275 61 
Q 1981 -91 1556 -91 
Q 1019 -91 701 211 
Q 384 513 384 1019 
Q 384 1609 779 1909 
Q 1175 2209 1959 2209 
L 2766 2209 
L 2766 2266 
Q 2766 2663 2505 2880 
Q 2244 3097 1772 3097 
Q 1472 3097 1187 3025 
Q 903 2953 641 2809 
L 641 3341 
Q 956 3463 1253 3523 
Q 1550 3584 1831 3584 
Q 2591 3584 2966 3190 
Q 3341 2797 3341 1997 
z
" transform="scale(0.015625)"/>
      <path id="DejaVuSans-6e" d="M 3513 2113 
L 3513 0 
L 2938 0 
L 2938 2094 
Q 2938 2591 2744 2837 
Q 2550 3084 2163 3084 
Q 1697 3084 1428 2787 
Q 1159 2491 1159 1978 
L 1159 0 
L 581 0 
L 581 3500 
L 1159 3500 
L 1159 2956 
Q 1366 3272 1645 3428 
Q 1925 3584 2291 3584 
Q 2894 3584 3203 3211 
Q 3513 2838 3513 2113 
z
" transform="scale(0.015625)"/>
      <path id="DejaVuSans-64" d="M 2906 2969 
L 2906 4863 
L 3481 4863 
L 3481 0 
L 2906 0 
L 2906 525 
Q 2725 213 2448 61 
Q 2172 -91 1784 -91 
Q 1150 -91 751 415 
Q 353 922 353 1747 
Q 353 2572 751 3078 
Q 1150 3584 1784 3584 
Q 2172 3584 2448 3432 
Q 2725 3281 2906 2969 
z
M 947 1747 
Q 947 1113 1208 752 
Q 1469 391 1925 391 
Q 2381 391 2643 752 
Q 2906 1113 2906 1747 
Q 2906 2381 2643 2742 
Q 2381 3103 1925 3103 
Q 1469 3103 1208 2742 
Q 947 2381 947 1747 
z
" transform="scale(0.015625)"/>
      <path id="DejaVuSans-6c" d="M 603 4863 
L 1178 4863 
L 1178 0 
L 603 0 
L 603 4863 
z
" transform="scale(0.015625)"/>
      <path id="DejaVuSans-52" d="M 2841 2188 
Q 3044 2119 3236 1894 
Q 3428 1669 3622 1275 
L 4263 0 
L 3584 0 
L 2988 1197 
Q 2756 1666 2539 1819 
Q 2322 1972 1947 1972 
L 1259 1972 
L 1259 0 
L 628 0 
L 628 4666 
L 2053 4666 
Q 2853 4666 3247 4331 
Q 3641 3997 3641 3322 
Q 3641 2881 3436 2590 
Q 3231 2300 2841 2188 
z
M 1259 4147 
L 1259 2491 
L 2053 2491 
Q 2509 2491 2742 2702 
Q 2975 2913 2975 3322 
Q 2975 3731 2742 3939 
Q 2509 4147 2053 4147 
L 1259 4147 
z
" transform="scale(0.015625)"/>
      <path id="DejaVuSans-75" d="M 544 1381 
L 544 3500 
L 1119 3500 
L 1119 1403 
Q 1119 906 1312 657 
Q 1506 409 1894 409 
Q 2359 409 2629 706 
Q 2900 1003 2900 1516 
L 2900 3500 
L 3475 3500 
L 3475 0 
L 2900 0 
L 2900 538 
Q 2691 219 2414 64 
Q 2138 -91 1772 -91 
Q 1169 -91 856 284 
Q 544 659 544 1381 
z
M 1991 3584 
L 1991 3584 
z
" transform="scale(0.015625)"/>
      <path id="DejaVuSans-74" d="M 1172 4494 
L 1172 3500 
L 2356 3500 
L 2356 3053 
L 1172 3053 
L 1172 1153 
Q 1172 725 1289 603 
Q 1406 481 1766 481 
L 2356 481 
L 2356 0 
L 1766 0 
Q 1100 0 847 248 
Q 594 497 594 1153 
L 594 3053 
L 172 3053 
L 172 3500 
L 594 3500 
L 594 4494 
L 1172 4494 
z
" transform="scale(0.015625)"/>
     </defs>
     <use xlink:href="#DejaVuSans-48"/>
     <use xlink:href="#DejaVuSans-61" transform="translate(75.195312 0)"/>
     <use xlink:href="#DejaVuSans-6e" transform="translate(136.474609 0)"/>
     <use xlink:href="#DejaVuSans-64" transform="translate(199.853516 0)"/>
     <use xlink:href="#DejaVuSans-6c" transform="translate(263.330078 0)"/>
     <use xlink:href="#DejaVuSans-65" transform="translate(291.113281 0)"/>
     <use xlink:href="#DejaVuSans-20" transform="translate(352.636719 0)"/>
     <use xlink:href="#DejaVuSans-52" transform="translate(384.423828 0)"/>
     <use xlink:href="#DejaVuSans-65" transform="translate(449.40625 0)"/>
     <use xlink:href="#DejaVuSans-73" transform="translate(510.929688 0)"/>
     <use xlink:href="#DejaVuSans-75" transform="translate(563.029297 0)"/>
     <use xlink:href="#DejaVuSans-6c" transform="translate(626.408203 0)"/>
     <use xlink:href="#DejaVuSans-74" transform="translate(654.191406 0)"/>
    </g>
   </g>
  </g>
 </g>
 <defs>
  <clipPath id="pf6c3760ce4">
   <rect x="72" y="51.84" width="446.4" height="332.64"/>
  </clipPath>
 </defs>
</svg>
