<?xml version="1.0" encoding="utf-8" standalone="no"?>
<!DOCTYPE svg PUBLIC "-//W3C//DTD SVG 1.1//EN"
  "http://www.w3.org/Graphics/SVG/1.1/DTD/svg11.dtd">
<svg xmlns:xlink="http://www.w3.org/1999/xlink" width="720pt" height="432pt" viewBox="0 0 720 432" xmlns="http://www.w3.org/2000/svg" version="1.1">
 <metadata>
  <rdf:RDF xmlns:dc="http://purl.org/dc/elements/1.1/" xmlns:cc="http://creativecommons.org/ns#" xmlns:rdf="http://www.w3.org/1999/02/22-rdf-syntax-ns#">
   <cc:Work>
    <dc:type rdf:resource="http://purl.org/dc/dcmitype/StillImage"/>
    <dc:date>2025-09-30T20:43:12.593141</dc:date>
    <dc:format>image/svg+xml</dc:format>
    <dc:creator>
     <cc:Agent>
      <dc:title>Matplotlib v3.10.3, https://matplotlib.org/</dc:title>
     </cc:Agent>
    </dc:creator>
   </cc:Work>
  </rdf:RDF>
 </metadata>
 <defs>
  <style type="text/css">*{stroke-linejoin: round; stroke-linecap: butt}</style>
 </defs>
 <g id="figure_1">
  <g id="patch_1">
   <path d="M 0 432 
L 720 432 
L 720 0 
L 0 0 
z
" style="fill: #ffffff"/>
  </g>
  <g id="axes_1">
   <g id="patch_2">
    <path d="M 90 384.48 
L 648 384.48 
L 648 51.84 
L 90 51.84 
z
" style="fill: #ffffff"/>
   </g>
   <g id="matplotlib.axis_1">
    <g id="xtick_1">
     <g id="line2d_1">
      <defs>
       <path id="m34fd32eccd" d="M 0 0 
L 0 3.5 
" style="stroke: #000000; stroke-width: 0.8"/>
      </defs>
      <g>
       <use xlink:href="#m34fd32eccd" x="115.363636" y="384.48" style="stroke: #000000; stroke-width: 0.8"/>
      </g>
     </g>
     <g id="text_1">
      <!-- 0 -->
      <g transform="translate(112.182386 399.078438) scale(0.1 -0.1)">
       <defs>
        <path id="DejaVuSans-30" d="M 2034 4250 
Q 1547 4250 1301 3770 
Q 1056 3291 1056 2328 
Q 1056 1369 1301 889 
Q 1547 409 2034 409 
Q 2525 409 2770 889 
Q 3016 1369 3016 2328 
Q 3016 3291 2770 3770 
Q 2525 4250 2034 4250 
z
M 2034 4750 
Q 2819 4750 3233 4129 
Q 3647 3509 3647 2328 
Q 3647 1150 3233 529 
Q 2819 -91 2034 -91 
Q 1250 -91 836 529 
Q 422 1150 422 2328 
Q 422 3509 836 4129 
Q 1250 4750 2034 4750 
z
" transform="scale(0.015625)"/>
       </defs>
       <use xlink:href="#DejaVuSans-30"/>
      </g>
     </g>
    </g>
    <g id="xtick_2">
     <g id="line2d_2">
      <g>
       <use xlink:href="#m34fd32eccd" x="180.440317" y="384.48" style="stroke: #000000; stroke-width: 0.8"/>
      </g>
     </g>
     <g id="text_2">
      <!-- 200 -->
      <g transform="translate(170.896567 399.078438) scale(0.1 -0.1)">
       <defs>
        <path id="DejaVuSans-32" d="M 1228 531 
L 3431 531 
L 3431 0 
L 469 0 
L 469 531 
Q 828 903 1448 1529 
Q 2069 2156 2228 2338 
Q 2531 2678 2651 2914 
Q 2772 3150 2772 3378 
Q 2772 3750 2511 3984 
Q 2250 4219 1831 4219 
Q 1534 4219 1204 4116 
Q 875 4013 500 3803 
L 500 4441 
Q 881 4594 1212 4672 
Q 1544 4750 1819 4750 
Q 2544 4750 2975 4387 
Q 3406 4025 3406 3419 
Q 3406 3131 3298 2873 
Q 3191 2616 2906 2266 
Q 2828 2175 2409 1742 
Q 1991 1309 1228 531 
z
" transform="scale(0.015625)"/>
       </defs>
       <use xlink:href="#DejaVuSans-32"/>
       <use xlink:href="#DejaVuSans-30" transform="translate(63.623047 0)"/>
       <use xlink:href="#DejaVuSans-30" transform="translate(127.246094 0)"/>
      </g>
     </g>
    </g>
    <g id="xtick_3">
     <g id="line2d_3">
      <g>
       <use xlink:href="#m34fd32eccd" x="245.516998" y="384.48" style="stroke: #000000; stroke-width: 0.8"/>
      </g>
     </g>
     <g id="text_3">
      <!-- 400 -->
      <g transform="translate(235.973248 399.078438) scale(0.1 -0.1)">
       <defs>
        <path id="DejaVuSans-34" d="M 2419 4116 
L 825 1625 
L 2419 1625 
L 2419 4116 
z
M 2253 4666 
L 3047 4666 
L 3047 1625 
L 3713 1625 
L 3713 1100 
L 3047 1100 
L 3047 0 
L 2419 0 
L 2419 1100 
L 313 1100 
L 313 1709 
L 2253 4666 
z
" transform="scale(0.015625)"/>
       </defs>
       <use xlink:href="#DejaVuSans-34"/>
       <use xlink:href="#DejaVuSans-30" transform="translate(63.623047 0)"/>
       <use xlink:href="#DejaVuSans-30" transform="translate(127.246094 0)"/>
      </g>
     </g>
    </g>
    <g id="xtick_4">
     <g id="line2d_4">
      <g>
       <use xlink:href="#m34fd32eccd" x="310.593679" y="384.48" style="stroke: #000000; stroke-width: 0.8"/>
      </g>
     </g>
     <g id="text_4">
      <!-- 600 -->
      <g transform="translate(301.049929 399.078438) scale(0.1 -0.1)">
       <defs>
        <path id="DejaVuSans-36" d="M 2113 2584 
Q 1688 2584 1439 2293 
Q 1191 2003 1191 1497 
Q 1191 994 1439 701 
Q 1688 409 2113 409 
Q 2538 409 2786 701 
Q 3034 994 3034 1497 
Q 3034 2003 2786 2293 
Q 2538 2584 2113 2584 
z
M 3366 4563 
L 3366 3988 
Q 3128 4100 2886 4159 
Q 2644 4219 2406 4219 
Q 1781 4219 1451 3797 
Q 1122 3375 1075 2522 
Q 1259 2794 1537 2939 
Q 1816 3084 2150 3084 
Q 2853 3084 3261 2657 
Q 3669 2231 3669 1497 
Q 3669 778 3244 343 
Q 2819 -91 2113 -91 
Q 1303 -91 875 529 
Q 447 1150 447 2328 
Q 447 3434 972 4092 
Q 1497 4750 2381 4750 
Q 2619 4750 2861 4703 
Q 3103 4656 3366 4563 
z
" transform="scale(0.015625)"/>
       </defs>
       <use xlink:href="#DejaVuSans-36"/>
       <use xlink:href="#DejaVuSans-30" transform="translate(63.623047 0)"/>
       <use xlink:href="#DejaVuSans-30" transform="translate(127.246094 0)"/>
      </g>
     </g>
    </g>
    <g id="xtick_5">
     <g id="line2d_5">
      <g>
       <use xlink:href="#m34fd32eccd" x="375.67036" y="384.48" style="stroke: #000000; stroke-width: 0.8"/>
      </g>
     </g>
     <g id="text_5">
      <!-- 800 -->
      <g transform="translate(366.12661 399.078438) scale(0.1 -0.1)">
       <defs>
        <path id="DejaVuSans-38" d="M 2034 2216 
Q 1584 2216 1326 1975 
Q 1069 1734 1069 1313 
Q 1069 891 1326 650 
Q 1584 409 2034 409 
Q 2484 409 2743 651 
Q 3003 894 3003 1313 
Q 3003 1734 2745 1975 
Q 2488 2216 2034 2216 
z
M 1403 2484 
Q 997 2584 770 2862 
Q 544 3141 544 3541 
Q 544 4100 942 4425 
Q 1341 4750 2034 4750 
Q 2731 4750 3128 4425 
Q 3525 4100 3525 3541 
Q 3525 3141 3298 2862 
Q 3072 2584 2669 2484 
Q 3125 2378 3379 2068 
Q 3634 1759 3634 1313 
Q 3634 634 3220 271 
Q 2806 -91 2034 -91 
Q 1263 -91 848 271 
Q 434 634 434 1313 
Q 434 1759 690 2068 
Q 947 2378 1403 2484 
z
M 1172 3481 
Q 1172 3119 1398 2916 
Q 1625 2713 2034 2713 
Q 2441 2713 2670 2916 
Q 2900 3119 2900 3481 
Q 2900 3844 2670 4047 
Q 2441 4250 2034 4250 
Q 1625 4250 1398 4047 
Q 1172 3844 1172 3481 
z
" transform="scale(0.015625)"/>
       </defs>
       <use xlink:href="#DejaVuSans-38"/>
       <use xlink:href="#DejaVuSans-30" transform="translate(63.623047 0)"/>
       <use xlink:href="#DejaVuSans-30" transform="translate(127.246094 0)"/>
      </g>
     </g>
    </g>
    <g id="xtick_6">
     <g id="line2d_6">
      <g>
       <use xlink:href="#m34fd32eccd" x="440.747041" y="384.48" style="stroke: #000000; stroke-width: 0.8"/>
      </g>
     </g>
     <g id="text_6">
      <!-- 1000 -->
      <g transform="translate(428.022041 399.078438) scale(0.1 -0.1)">
       <defs>
        <path id="DejaVuSans-31" d="M 794 531 
L 1825 531 
L 1825 4091 
L 703 3866 
L 703 4441 
L 1819 4666 
L 2450 4666 
L 2450 531 
L 3481 531 
L 3481 0 
L 794 0 
L 794 531 
z
" transform="scale(0.015625)"/>
       </defs>
       <use xlink:href="#DejaVuSans-31"/>
       <use xlink:href="#DejaVuSans-30" transform="translate(63.623047 0)"/>
       <use xlink:href="#DejaVuSans-30" transform="translate(127.246094 0)"/>
       <use xlink:href="#DejaVuSans-30" transform="translate(190.869141 0)"/>
      </g>
     </g>
    </g>
    <g id="xtick_7">
     <g id="line2d_7">
      <g>
       <use xlink:href="#m34fd32eccd" x="505.823721" y="384.48" style="stroke: #000000; stroke-width: 0.8"/>
      </g>
     </g>
     <g id="text_7">
      <!-- 1200 -->
      <g transform="translate(493.098721 399.078438) scale(0.1 -0.1)">
       <use xlink:href="#DejaVuSans-31"/>
       <use xlink:href="#DejaVuSans-32" transform="translate(63.623047 0)"/>
       <use xlink:href="#DejaVuSans-30" transform="translate(127.246094 0)"/>
       <use xlink:href="#DejaVuSans-30" transform="translate(190.869141 0)"/>
      </g>
     </g>
    </g>
    <g id="xtick_8">
     <g id="line2d_8">
      <g>
       <use xlink:href="#m34fd32eccd" x="570.900402" y="384.48" style="stroke: #000000; stroke-width: 0.8"/>
      </g>
     </g>
     <g id="text_8">
      <!-- 1400 -->
      <g transform="translate(558.175402 399.078438) scale(0.1 -0.1)">
       <use xlink:href="#DejaVuSans-31"/>
       <use xlink:href="#DejaVuSans-34" transform="translate(63.623047 0)"/>
       <use xlink:href="#DejaVuSans-30" transform="translate(127.246094 0)"/>
       <use xlink:href="#DejaVuSans-30" transform="translate(190.869141 0)"/>
      </g>
     </g>
    </g>
    <g id="xtick_9">
     <g id="line2d_9">
      <g>
       <use xlink:href="#m34fd32eccd" x="635.977083" y="384.48" style="stroke: #000000; stroke-width: 0.8"/>
      </g>
     </g>
     <g id="text_9">
      <!-- 1600 -->
      <g transform="translate(623.252083 399.078438) scale(0.1 -0.1)">
       <use xlink:href="#DejaVuSans-31"/>
       <use xlink:href="#DejaVuSans-36" transform="translate(63.623047 0)"/>
       <use xlink:href="#DejaVuSans-30" transform="translate(127.246094 0)"/>
       <use xlink:href="#DejaVuSans-30" transform="translate(190.869141 0)"/>
      </g>
     </g>
    </g>
    <g id="text_10">
     <!-- Index -->
     <g transform="translate(355.233594 412.756563) scale(0.1 -0.1)">
      <defs>
       <path id="DejaVuSans-49" d="M 628 4666 
L 1259 4666 
L 1259 0 
L 628 0 
L 628 4666 
z
" transform="scale(0.015625)"/>
       <path id="DejaVuSans-6e" d="M 3513 2113 
L 3513 0 
L 2938 0 
L 2938 2094 
Q 2938 2591 2744 2837 
Q 2550 3084 2163 3084 
Q 1697 3084 1428 2787 
Q 1159 2491 1159 1978 
L 1159 0 
L 581 0 
L 581 3500 
L 1159 3500 
L 1159 2956 
Q 1366 3272 1645 3428 
Q 1925 3584 2291 3584 
Q 2894 3584 3203 3211 
Q 3513 2838 3513 2113 
z
" transform="scale(0.015625)"/>
       <path id="DejaVuSans-64" d="M 2906 2969 
L 2906 4863 
L 3481 4863 
L 3481 0 
L 2906 0 
L 2906 525 
Q 2725 213 2448 61 
Q 2172 -91 1784 -91 
Q 1150 -91 751 415 
Q 353 922 353 1747 
Q 353 2572 751 3078 
Q 1150 3584 1784 3584 
Q 2172 3584 2448 3432 
Q 2725 3281 2906 2969 
z
M 947 1747 
Q 947 1113 1208 752 
Q 1469 391 1925 391 
Q 2381 391 2643 752 
Q 2906 1113 2906 1747 
Q 2906 2381 2643 2742 
Q 2381 3103 1925 3103 
Q 1469 3103 1208 2742 
Q 947 2381 947 1747 
z
" transform="scale(0.015625)"/>
       <path id="DejaVuSans-65" d="M 3597 1894 
L 3597 1613 
L 953 1613 
Q 991 1019 1311 708 
Q 1631 397 2203 397 
Q 2534 397 2845 478 
Q 3156 559 3463 722 
L 3463 178 
Q 3153 47 2828 -22 
Q 2503 -91 2169 -91 
Q 1331 -91 842 396 
Q 353 884 353 1716 
Q 353 2575 817 3079 
Q 1281 3584 2069 3584 
Q 2775 3584 3186 3129 
Q 3597 2675 3597 1894 
z
M 3022 2063 
Q 3016 2534 2758 2815 
Q 2500 3097 2075 3097 
Q 1594 3097 1305 2825 
Q 1016 2553 972 2059 
L 3022 2063 
z
" transform="scale(0.015625)"/>
       <path id="DejaVuSans-78" d="M 3513 3500 
L 2247 1797 
L 3578 0 
L 2900 0 
L 1881 1375 
L 863 0 
L 184 0 
L 1544 1831 
L 300 3500 
L 978 3500 
L 1906 2253 
L 2834 3500 
L 3513 3500 
z
" transform="scale(0.015625)"/>
      </defs>
      <use xlink:href="#DejaVuSans-49"/>
      <use xlink:href="#DejaVuSans-6e" transform="translate(29.492188 0)"/>
      <use xlink:href="#DejaVuSans-64" transform="translate(92.871094 0)"/>
      <use xlink:href="#DejaVuSans-65" transform="translate(156.347656 0)"/>
      <use xlink:href="#DejaVuSans-78" transform="translate(216.121094 0)"/>
     </g>
    </g>
   </g>
   <g id="matplotlib.axis_2">
    <g id="ytick_1">
     <g id="line2d_10">
      <defs>
       <path id="m1427893294" d="M 0 0 
L -3.5 0 
" style="stroke: #000000; stroke-width: 0.8"/>
      </defs>
      <g>
       <use xlink:href="#m1427893294" x="90" y="384.48" style="stroke: #000000; stroke-width: 0.8"/>
      </g>
     </g>
     <g id="text_11">
      <!-- 0 -->
      <g transform="translate(76.6375 388.279219) scale(0.1 -0.1)">
       <use xlink:href="#DejaVuSans-30"/>
      </g>
     </g>
    </g>
    <g id="ytick_2">
     <g id="line2d_11">
      <g>
       <use xlink:href="#m1427893294" x="90" y="342.420107" style="stroke: #000000; stroke-width: 0.8"/>
      </g>
     </g>
     <g id="text_12">
      <!-- 1 -->
      <g transform="translate(76.6375 346.219326) scale(0.1 -0.1)">
       <use xlink:href="#DejaVuSans-31"/>
      </g>
     </g>
    </g>
    <g id="ytick_3">
     <g id="line2d_12">
      <g>
       <use xlink:href="#m1427893294" x="90" y="300.360215" style="stroke: #000000; stroke-width: 0.8"/>
      </g>
     </g>
     <g id="text_13">
      <!-- 2 -->
      <g transform="translate(76.6375 304.159433) scale(0.1 -0.1)">
       <use xlink:href="#DejaVuSans-32"/>
      </g>
     </g>
    </g>
    <g id="ytick_4">
     <g id="line2d_13">
      <g>
       <use xlink:href="#m1427893294" x="90" y="258.300322" style="stroke: #000000; stroke-width: 0.8"/>
      </g>
     </g>
     <g id="text_14">
      <!-- 3 -->
      <g transform="translate(76.6375 262.099541) scale(0.1 -0.1)">
       <defs>
        <path id="DejaVuSans-33" d="M 2597 2516 
Q 3050 2419 3304 2112 
Q 3559 1806 3559 1356 
Q 3559 666 3084 287 
Q 2609 -91 1734 -91 
Q 1441 -91 1130 -33 
Q 819 25 488 141 
L 488 750 
Q 750 597 1062 519 
Q 1375 441 1716 441 
Q 2309 441 2620 675 
Q 2931 909 2931 1356 
Q 2931 1769 2642 2001 
Q 2353 2234 1838 2234 
L 1294 2234 
L 1294 2753 
L 1863 2753 
Q 2328 2753 2575 2939 
Q 2822 3125 2822 3475 
Q 2822 3834 2567 4026 
Q 2313 4219 1838 4219 
Q 1578 4219 1281 4162 
Q 984 4106 628 3988 
L 628 4550 
Q 988 4650 1302 4700 
Q 1616 4750 1894 4750 
Q 2613 4750 3031 4423 
Q 3450 4097 3450 3541 
Q 3450 3153 3228 2886 
Q 3006 2619 2597 2516 
z
" transform="scale(0.015625)"/>
       </defs>
       <use xlink:href="#DejaVuSans-33"/>
      </g>
     </g>
    </g>
    <g id="ytick_5">
     <g id="line2d_14">
      <g>
       <use xlink:href="#m1427893294" x="90" y="216.240429" style="stroke: #000000; stroke-width: 0.8"/>
      </g>
     </g>
     <g id="text_15">
      <!-- 4 -->
      <g transform="translate(76.6375 220.039648) scale(0.1 -0.1)">
       <use xlink:href="#DejaVuSans-34"/>
      </g>
     </g>
    </g>
    <g id="ytick_6">
     <g id="line2d_15">
      <g>
       <use xlink:href="#m1427893294" x="90" y="174.180537" style="stroke: #000000; stroke-width: 0.8"/>
      </g>
     </g>
     <g id="text_16">
      <!-- 5 -->
      <g transform="translate(76.6375 177.979756) scale(0.1 -0.1)">
       <defs>
        <path id="DejaVuSans-35" d="M 691 4666 
L 3169 4666 
L 3169 4134 
L 1269 4134 
L 1269 2991 
Q 1406 3038 1543 3061 
Q 1681 3084 1819 3084 
Q 2600 3084 3056 2656 
Q 3513 2228 3513 1497 
Q 3513 744 3044 326 
Q 2575 -91 1722 -91 
Q 1428 -91 1123 -41 
Q 819 9 494 109 
L 494 744 
Q 775 591 1075 516 
Q 1375 441 1709 441 
Q 2250 441 2565 725 
Q 2881 1009 2881 1497 
Q 2881 1984 2565 2268 
Q 2250 2553 1709 2553 
Q 1456 2553 1204 2497 
Q 953 2441 691 2322 
L 691 4666 
z
" transform="scale(0.015625)"/>
       </defs>
       <use xlink:href="#DejaVuSans-35"/>
      </g>
     </g>
    </g>
    <g id="ytick_7">
     <g id="line2d_16">
      <g>
       <use xlink:href="#m1427893294" x="90" y="132.120644" style="stroke: #000000; stroke-width: 0.8"/>
      </g>
     </g>
     <g id="text_17">
      <!-- 6 -->
      <g transform="translate(76.6375 135.919863) scale(0.1 -0.1)">
       <use xlink:href="#DejaVuSans-36"/>
      </g>
     </g>
    </g>
    <g id="ytick_8">
     <g id="line2d_17">
      <g>
       <use xlink:href="#m1427893294" x="90" y="90.060751" style="stroke: #000000; stroke-width: 0.8"/>
      </g>
     </g>
     <g id="text_18">
      <!-- 7 -->
      <g transform="translate(76.6375 93.85997) scale(0.1 -0.1)">
       <defs>
        <path id="DejaVuSans-37" d="M 525 4666 
L 3525 4666 
L 3525 4397 
L 1831 0 
L 1172 0 
L 2766 4134 
L 525 4134 
L 525 4666 
z
" transform="scale(0.015625)"/>
       </defs>
       <use xlink:href="#DejaVuSans-37"/>
      </g>
     </g>
    </g>
    <g id="text_19">
     <!-- Average time (ms) -->
     <g transform="translate(70.557812 264.543594) rotate(-90) scale(0.1 -0.1)">
      <defs>
       <path id="DejaVuSans-41" d="M 2188 4044 
L 1331 1722 
L 3047 1722 
L 2188 4044 
z
M 1831 4666 
L 2547 4666 
L 4325 0 
L 3669 0 
L 3244 1197 
L 1141 1197 
L 716 0 
L 50 0 
L 1831 4666 
z
" transform="scale(0.015625)"/>
       <path id="DejaVuSans-76" d="M 191 3500 
L 800 3500 
L 1894 563 
L 2988 3500 
L 3597 3500 
L 2284 0 
L 1503 0 
L 191 3500 
z
" transform="scale(0.015625)"/>
       <path id="DejaVuSans-72" d="M 2631 2963 
Q 2534 3019 2420 3045 
Q 2306 3072 2169 3072 
Q 1681 3072 1420 2755 
Q 1159 2438 1159 1844 
L 1159 0 
L 581 0 
L 581 3500 
L 1159 3500 
L 1159 2956 
Q 1341 3275 1631 3429 
Q 1922 3584 2338 3584 
Q 2397 3584 2469 3576 
Q 2541 3569 2628 3553 
L 2631 2963 
z
" transform="scale(0.015625)"/>
       <path id="DejaVuSans-61" d="M 2194 1759 
Q 1497 1759 1228 1600 
Q 959 1441 959 1056 
Q 959 750 1161 570 
Q 1363 391 1709 391 
Q 2188 391 2477 730 
Q 2766 1069 2766 1631 
L 2766 1759 
L 2194 1759 
z
M 3341 1997 
L 3341 0 
L 2766 0 
L 2766 531 
Q 2569 213 2275 61 
Q 1981 -91 1556 -91 
Q 1019 -91 701 211 
Q 384 513 384 1019 
Q 384 1609 779 1909 
Q 1175 2209 1959 2209 
L 2766 2209 
L 2766 2266 
Q 2766 2663 2505 2880 
Q 2244 3097 1772 3097 
Q 1472 3097 1187 3025 
Q 903 2953 641 2809 
L 641 3341 
Q 956 3463 1253 3523 
Q 1550 3584 1831 3584 
Q 2591 3584 2966 3190 
Q 3341 2797 3341 1997 
z
" transform="scale(0.015625)"/>
       <path id="DejaVuSans-67" d="M 2906 1791 
Q 2906 2416 2648 2759 
Q 2391 3103 1925 3103 
Q 1463 3103 1205 2759 
Q 947 2416 947 1791 
Q 947 1169 1205 825 
Q 1463 481 1925 481 
Q 2391 481 2648 825 
Q 2906 1169 2906 1791 
z
M 3481 434 
Q 3481 -459 3084 -895 
Q 2688 -1331 1869 -1331 
Q 1566 -1331 1297 -1286 
Q 1028 -1241 775 -1147 
L 775 -588 
Q 1028 -725 1275 -790 
Q 1522 -856 1778 -856 
Q 2344 -856 2625 -561 
Q 2906 -266 2906 331 
L 2906 616 
Q 2728 306 2450 153 
Q 2172 0 1784 0 
Q 1141 0 747 490 
Q 353 981 353 1791 
Q 353 2603 747 3093 
Q 1141 3584 1784 3584 
Q 2172 3584 2450 3431 
Q 2728 3278 2906 2969 
L 2906 3500 
L 3481 3500 
L 3481 434 
z
" transform="scale(0.015625)"/>
       <path id="DejaVuSans-20" transform="scale(0.015625)"/>
       <path id="DejaVuSans-74" d="M 1172 4494 
L 1172 3500 
L 2356 3500 
L 2356 3053 
L 1172 3053 
L 1172 1153 
Q 1172 725 1289 603 
Q 1406 481 1766 481 
L 2356 481 
L 2356 0 
L 1766 0 
Q 1100 0 847 248 
Q 594 497 594 1153 
L 594 3053 
L 172 3053 
L 172 3500 
L 594 3500 
L 594 4494 
L 1172 4494 
z
" transform="scale(0.015625)"/>
       <path id="DejaVuSans-69" d="M 603 3500 
L 1178 3500 
L 1178 0 
L 603 0 
L 603 3500 
z
M 603 4863 
L 1178 4863 
L 1178 4134 
L 603 4134 
L 603 4863 
z
" transform="scale(0.015625)"/>
       <path id="DejaVuSans-6d" d="M 3328 2828 
Q 3544 3216 3844 3400 
Q 4144 3584 4550 3584 
Q 5097 3584 5394 3201 
Q 5691 2819 5691 2113 
L 5691 0 
L 5113 0 
L 5113 2094 
Q 5113 2597 4934 2840 
Q 4756 3084 4391 3084 
Q 3944 3084 3684 2787 
Q 3425 2491 3425 1978 
L 3425 0 
L 2847 0 
L 2847 2094 
Q 2847 2600 2669 2842 
Q 2491 3084 2119 3084 
Q 1678 3084 1418 2786 
Q 1159 2488 1159 1978 
L 1159 0 
L 581 0 
L 581 3500 
L 1159 3500 
L 1159 2956 
Q 1356 3278 1631 3431 
Q 1906 3584 2284 3584 
Q 2666 3584 2933 3390 
Q 3200 3197 3328 2828 
z
" transform="scale(0.015625)"/>
       <path id="DejaVuSans-28" d="M 1984 4856 
Q 1566 4138 1362 3434 
Q 1159 2731 1159 2009 
Q 1159 1288 1364 580 
Q 1569 -128 1984 -844 
L 1484 -844 
Q 1016 -109 783 600 
Q 550 1309 550 2009 
Q 550 2706 781 3412 
Q 1013 4119 1484 4856 
L 1984 4856 
z
" transform="scale(0.015625)"/>
       <path id="DejaVuSans-73" d="M 2834 3397 
L 2834 2853 
Q 2591 2978 2328 3040 
Q 2066 3103 1784 3103 
Q 1356 3103 1142 2972 
Q 928 2841 928 2578 
Q 928 2378 1081 2264 
Q 1234 2150 1697 2047 
L 1894 2003 
Q 2506 1872 2764 1633 
Q 3022 1394 3022 966 
Q 3022 478 2636 193 
Q 2250 -91 1575 -91 
Q 1294 -91 989 -36 
Q 684 19 347 128 
L 347 722 
Q 666 556 975 473 
Q 1284 391 1588 391 
Q 1994 391 2212 530 
Q 2431 669 2431 922 
Q 2431 1156 2273 1281 
Q 2116 1406 1581 1522 
L 1381 1569 
Q 847 1681 609 1914 
Q 372 2147 372 2553 
Q 372 3047 722 3315 
Q 1072 3584 1716 3584 
Q 2034 3584 2315 3537 
Q 2597 3491 2834 3397 
z
" transform="scale(0.015625)"/>
       <path id="DejaVuSans-29" d="M 513 4856 
L 1013 4856 
Q 1481 4119 1714 3412 
Q 1947 2706 1947 2009 
Q 1947 1309 1714 600 
Q 1481 -109 1013 -844 
L 513 -844 
Q 928 -128 1133 580 
Q 1338 1288 1338 2009 
Q 1338 2731 1133 3434 
Q 928 4138 513 4856 
z
" transform="scale(0.015625)"/>
      </defs>
      <use xlink:href="#DejaVuSans-41"/>
      <use xlink:href="#DejaVuSans-76" transform="translate(62.533203 0)"/>
      <use xlink:href="#DejaVuSans-65" transform="translate(121.712891 0)"/>
      <use xlink:href="#DejaVuSans-72" transform="translate(183.236328 0)"/>
      <use xlink:href="#DejaVuSans-61" transform="translate(224.349609 0)"/>
      <use xlink:href="#DejaVuSans-67" transform="translate(285.628906 0)"/>
      <use xlink:href="#DejaVuSans-65" transform="translate(349.105469 0)"/>
      <use xlink:href="#DejaVuSans-20" transform="translate(410.628906 0)"/>
      <use xlink:href="#DejaVuSans-74" transform="translate(442.416016 0)"/>
      <use xlink:href="#DejaVuSans-69" transform="translate(481.625 0)"/>
      <use xlink:href="#DejaVuSans-6d" transform="translate(509.408203 0)"/>
      <use xlink:href="#DejaVuSans-65" transform="translate(606.820312 0)"/>
      <use xlink:href="#DejaVuSans-20" transform="translate(668.34375 0)"/>
      <use xlink:href="#DejaVuSans-28" transform="translate(700.130859 0)"/>
      <use xlink:href="#DejaVuSans-6d" transform="translate(739.144531 0)"/>
      <use xlink:href="#DejaVuSans-73" transform="translate(836.556641 0)"/>
      <use xlink:href="#DejaVuSans-29" transform="translate(888.65625 0)"/>
     </g>
    </g>
   </g>
   <g id="line2d_18">
    <path d="M 115.363636 343.525896 
L 115.68902 355.414473 
L 116.014403 286.065841 
L 116.339787 319.520447 
L 116.66517 303.342173 
L 116.990553 310.103708 
L 117.64132 332.905689 
L 117.966704 335.845381 
L 118.292087 344.733986 
L 118.61747 328.665879 
L 119.268237 343.84349 
L 119.593621 348.571341 
L 119.919004 339.552376 
L 120.244387 342.117533 
L 120.569771 327.691246 
L 121.220538 67.667728 
L 121.545921 359.1311 
L 121.871304 354.567181 
L 122.196688 360.866739 
L 122.522071 354.687683 
L 122.847455 358.5165 
L 123.172838 339.415155 
L 123.498221 353.066093 
L 123.823605 354.148845 
L 124.148988 356.3042 
L 124.474372 352.508892 
L 124.799755 344.657879 
L 125.125138 348.923887 
L 125.450522 355.050811 
L 125.775905 354.119689 
L 126.101289 362.248672 
L 126.426672 356.402839 
L 126.752056 343.594756 
L 127.077439 358.847015 
L 127.402822 361.54522 
L 127.728206 356.532459 
L 128.053589 354.883858 
L 128.378973 356.940284 
L 128.704356 346.782522 
L 129.029739 355.484802 
L 129.355123 354.08099 
L 129.680506 355.168469 
L 130.00589 351.837595 
L 130.331273 354.612059 
L 130.656656 346.872097 
L 130.98204 349.247786 
L 131.632807 339.171355 
L 131.95819 352.149646 
L 132.283573 352.841295 
L 132.608957 347.869871 
L 132.93434 349.943722 
L 133.585107 345.123785 
L 133.91049 340.79043 
L 134.235874 339.330501 
L 134.561257 345.050184 
L 134.886641 347.097903 
L 135.212024 303.19869 
L 135.537407 334.975397 
L 135.862791 341.79106 
L 136.188174 345.38771 
L 136.513558 327.865971 
L 136.838941 324.168465 
L 137.164324 341.419675 
L 137.489708 345.960877 
L 137.815091 342.466933 
L 138.140475 347.296439 
L 138.465858 322.928603 
L 138.791241 347.184046 
L 139.116625 322.994426 
L 139.442008 346.041847 
L 139.767392 337.309132 
L 140.092775 347.101521 
L 140.418158 342.254446 
L 140.743542 348.99867 
L 141.068925 383.595459 
L 141.394309 383.675541 
L 141.719692 383.535781 
L 142.370459 383.569008 
L 142.695842 383.48522 
L 143.021226 348.508794 
L 143.346609 348.772678 
L 143.671993 347.355781 
L 143.997376 336.008308 
L 144.322759 348.573314 
L 144.648143 305.203176 
L 144.973526 347.373779 
L 145.29891 347.396747 
L 145.624293 384.179688 
L 145.949676 384.222291 
L 146.27506 384.149485 
L 146.600443 384.212486 
L 146.925827 384.132316 
L 147.25121 384.211763 
L 147.576593 384.057925 
L 147.901977 351.54138 
L 148.22736 356.139106 
L 148.552744 355.428155 
L 148.878127 355.247601 
L 149.20351 355.587663 
L 149.854277 355.751693 
L 150.179661 355.679934 
L 150.505044 356.023101 
L 150.830427 356.167678 
L 151.155811 345.411045 
L 151.481194 354.598305 
L 151.806578 348.109982 
L 152.131961 356.278375 
L 152.457344 356.073291 
L 152.782728 356.022302 
L 153.108111 318.176091 
L 153.433495 344.501004 
L 153.758878 355.138943 
L 154.084261 355.431318 
L 154.409645 354.327305 
L 154.735028 355.482976 
L 155.060412 354.305728 
L 155.385795 352.638617 
L 155.711178 355.352628 
L 156.036562 355.79006 
L 156.361945 356.019661 
L 156.687329 355.152415 
L 157.012712 355.452508 
L 157.338096 355.048325 
L 157.663479 353.671835 
L 157.988862 354.521714 
L 158.314246 356.656086 
L 158.639629 356.917496 
L 158.965013 356.082927 
L 159.290396 355.790686 
L 159.615779 347.204681 
L 159.941163 355.164818 
L 160.266546 354.321379 
L 160.59193 355.254246 
L 160.917313 356.6536 
L 161.242696 354.782637 
L 161.56808 354.08361 
L 161.893463 354.242702 
L 162.218847 353.78048 
L 162.54423 353.872713 
L 162.869613 354.489972 
L 163.194997 354.076468 
L 163.52038 356.287338 
L 163.845764 356.28288 
L 164.171147 355.081086 
L 164.49653 354.692229 
L 164.821914 355.04319 
L 165.147297 354.970758 
L 165.472681 353.274748 
L 165.798064 354.369668 
L 166.123447 353.363242 
L 166.448831 353.968404 
L 166.774214 353.517143 
L 167.099598 353.451984 
L 167.424981 356.636313 
L 167.750364 354.634102 
L 168.075748 355.671741 
L 168.401131 311.826507 
L 168.726515 354.980684 
L 169.051898 354.746457 
L 169.377281 353.405769 
L 169.702665 353.892818 
L 170.028048 354.937144 
L 170.353432 350.344082 
L 170.678815 337.248112 
L 171.329582 329.257106 
L 171.654965 329.593228 
L 172.305732 327.633986 
L 172.631116 328.060402 
L 172.956499 327.568082 
L 173.281882 317.036579 
L 173.607266 325.067617 
L 173.932649 324.553162 
L 174.258033 323.414415 
L 174.583416 324.4245 
L 174.908799 324.421977 
L 175.234183 328.401225 
L 175.559566 326.715553 
L 175.88495 326.423687 
L 176.210333 327.102387 
L 176.535716 325.590674 
L 176.8611 327.06751 
L 177.186483 325.690318 
L 177.511867 324.913152 
L 177.83725 328.574815 
L 178.162633 329.061284 
L 178.488017 327.127505 
L 178.8134 327.517745 
L 179.138784 330.71595 
L 179.464167 330.674432 
L 179.78955 328.038732 
L 180.114934 328.371863 
L 180.765701 325.354159 
L 181.091084 319.715046 
L 181.416467 324.887508 
L 181.741851 327.901806 
L 182.067234 326.793091 
L 182.392618 323.057474 
L 182.718001 325.567503 
L 183.043384 329.406785 
L 183.368768 327.880213 
L 183.694151 317.938238 
L 184.019535 328.337702 
L 184.344918 329.237208 
L 184.995685 328.395951 
L 185.321068 328.25842 
L 185.646452 328.569873 
L 186.297218 325.307691 
L 186.622602 326.307972 
L 186.947985 330.594464 
L 187.273369 329.781219 
L 187.598752 329.966762 
L 187.924136 329.606334 
L 188.249519 329.588963 
L 188.574902 329.169693 
L 188.900286 327.527271 
L 189.225669 329.281001 
L 189.551053 327.865858 
L 189.876436 327.230837 
L 190.201819 282.562357 
L 190.527203 333.54923 
L 190.852586 347.323992 
L 191.17797 355.418107 
L 191.503353 354.266983 
L 191.828736 354.690799 
L 192.15412 351.904659 
L 192.479503 352.674486 
L 192.804887 353.041643 
L 193.13027 353.110188 
L 193.455653 353.445932 
L 193.781037 351.922274 
L 194.10642 352.596923 
L 194.431804 351.114577 
L 194.757187 351.830075 
L 195.08257 350.083634 
L 195.407954 350.713208 
L 195.733337 352.846944 
L 196.058721 351.305201 
L 196.384104 342.26833 
L 196.709487 350.70239 
L 197.360254 355.703951 
L 198.336404 352.7317 
L 198.661788 353.010519 
L 198.987171 352.221232 
L 199.312555 352.956417 
L 199.637938 352.671626 
L 199.963321 342.981434 
L 200.288705 353.481539 
L 200.614088 352.623375 
L 200.939472 354.138023 
L 201.264855 351.883945 
L 201.590238 352.209724 
L 201.915622 350.907348 
L 202.241005 351.845931 
L 202.566389 353.15907 
L 202.891772 352.028185 
L 203.217156 352.749861 
L 203.542539 352.610635 
L 203.867922 354.71267 
L 204.193306 354.959562 
L 204.518689 355.680006 
L 204.844073 355.632705 
L 205.169456 354.298368 
L 205.820223 353.748132 
L 206.47099 351.156591 
L 207.121756 349.056721 
L 207.44714 349.927117 
L 207.772523 348.778789 
L 208.097907 348.71649 
L 208.42329 348.994796 
L 209.074057 350.128474 
L 209.39944 349.922129 
L 209.724824 348.792568 
L 210.050207 346.08617 
L 210.37559 351.043714 
L 210.700974 351.309112 
L 211.677124 347.850372 
L 212.327891 348.457267 
L 212.653274 347.132775 
L 212.978658 347.062035 
L 213.304041 347.91209 
L 213.629424 346.380366 
L 213.954808 345.870869 
L 214.280191 346.960494 
L 214.930958 346.455056 
L 215.256341 345.263516 
L 215.581725 346.958101 
L 215.907108 346.584188 
L 216.232492 346.746451 
L 216.557875 346.156725 
L 216.883258 349.030808 
L 217.208642 350.5813 
L 217.534025 350.389414 
L 217.859409 348.880103 
L 218.184792 348.66026 
L 218.510176 349.380641 
L 218.835559 348.021152 
L 219.160942 347.905567 
L 219.486326 347.639185 
L 219.811709 347.80668 
L 220.137093 346.502466 
L 220.462476 345.808044 
L 220.787859 345.864817 
L 221.113243 346.156468 
L 221.76401 345.922649 
L 222.414776 347.280914 
L 222.74016 346.004666 
L 223.065543 347.479315 
L 223.390927 344.112947 
L 223.71631 344.140538 
L 224.041693 344.802619 
L 224.367077 344.052166 
L 224.69246 350.874289 
L 225.017844 350.438843 
L 225.343227 353.124922 
L 225.66861 353.393563 
L 225.993994 352.021447 
L 226.319377 351.79159 
L 226.644761 350.733977 
L 226.970144 350.339232 
L 227.295527 350.160141 
L 227.620911 350.653352 
L 227.946294 350.266305 
L 228.271678 350.817016 
L 228.597061 349.790763 
L 228.922444 349.467608 
L 229.247828 343.453027 
L 229.573211 353.149439 
L 229.898595 352.770008 
L 230.549361 353.338961 
L 230.874745 352.869774 
L 231.200128 350.049137 
L 231.525512 349.781426 
L 231.850895 350.667442 
L 232.176279 351.915082 
L 232.501662 324.787393 
L 232.827045 347.337367 
L 233.152429 355.264467 
L 233.477812 354.485328 
L 233.803196 346.183732 
L 234.128579 355.538697 
L 234.453962 352.507298 
L 234.779346 353.14649 
L 235.430113 352.393648 
L 236.080879 353.758142 
L 236.406263 352.554956 
L 237.05703 352.039524 
L 237.382413 351.337208 
L 237.707796 352.051953 
L 238.03318 351.936532 
L 238.358563 351.582969 
L 239.00933 349.276947 
L 239.334713 350.799801 
L 239.660097 350.7405 
L 239.98548 348.783706 
L 240.310864 354.695295 
L 240.636247 354.46098 
L 240.96163 355.035981 
L 241.287014 355.137686 
L 241.612397 354.744169 
L 242.263164 353.448783 
L 242.588547 353.615382 
L 243.239314 352.353396 
L 243.564698 352.82763 
L 243.890081 351.788318 
L 244.215464 352.074661 
L 244.540848 350.688203 
L 244.866231 350.712438 
L 245.516998 351.769424 
L 245.842381 352.0133 
L 246.167765 350.513331 
L 246.493148 351.521061 
L 247.469299 350.202201 
L 247.794682 350.724795 
L 248.120065 356.486576 
L 248.445449 355.279011 
L 248.770832 354.80087 
L 249.096216 354.574117 
L 249.746982 354.346097 
L 250.397749 353.367052 
L 250.723133 353.321968 
L 251.373899 353.646456 
L 251.699283 351.88148 
L 252.024666 352.257083 
L 252.35005 351.333461 
L 252.675433 351.320304 
L 253.000816 352.20034 
L 253.3262 352.389749 
L 253.651583 307.479491 
L 253.976967 342.615665 
L 254.30235 352.414299 
L 254.627733 349.744842 
L 254.953117 329.984743 
L 255.2785 349.813513 
L 255.603884 337.294251 
L 255.929267 332.947109 
L 256.25465 333.751858 
L 256.580034 332.599106 
L 256.905417 322.475925 
L 257.230801 332.677959 
L 257.556184 333.49639 
L 257.881567 333.350893 
L 258.532334 332.392625 
L 258.857718 331.318016 
L 259.183101 330.712375 
L 259.508484 330.859294 
L 259.833868 330.617042 
L 260.159251 328.714244 
L 260.484635 328.765266 
L 260.810018 327.279063 
L 261.135401 328.470258 
L 261.460785 328.755563 
L 261.786168 329.538685 
L 262.111552 329.398066 
L 262.436935 330.226284 
L 263.087702 327.029501 
L 263.413085 328.379914 
L 263.738469 323.910743 
L 264.063852 338.434705 
L 264.389236 341.181313 
L 264.714619 341.148136 
L 265.040002 342.391692 
L 265.365386 342.442349 
L 265.690769 349.622864 
L 266.016153 349.399471 
L 266.341536 356.233497 
L 266.666919 356.170449 
L 266.992303 355.796604 
L 267.317686 355.187956 
L 267.64307 356.012439 
L 267.968453 353.696562 
L 268.293836 354.495217 
L 268.61922 354.620004 
L 269.269987 353.686771 
L 269.920753 353.646381 
L 270.246137 353.252906 
L 270.57152 352.473948 
L 270.896904 352.667933 
L 271.222287 341.673553 
L 271.54767 353.106256 
L 271.873054 352.938971 
L 272.198437 353.100367 
L 272.523821 353.42422 
L 272.849204 351.039416 
L 273.174587 350.310051 
L 273.499971 350.59989 
L 273.825354 350.633996 
L 274.150738 351.317642 
L 274.476121 341.215941 
L 274.801504 341.472426 
L 275.452271 357.255452 
L 275.777655 356.194297 
L 276.103038 356.483598 
L 276.428421 353.193673 
L 276.753805 348.717386 
L 277.079188 347.711137 
L 278.055339 346.29302 
L 278.380722 346.21391 
L 278.706105 346.265643 
L 279.031489 345.538495 
L 279.356872 345.504254 
L 279.682256 320.379163 
L 280.007639 344.245338 
L 280.333022 343.773788 
L 280.658406 345.307582 
L 280.983789 344.424547 
L 281.309173 344.826821 
L 281.634556 338.323398 
L 281.959939 343.547077 
L 282.285323 343.6119 
L 282.610706 343.202392 
L 282.93609 342.987836 
L 283.261473 343.446478 
L 283.586856 343.106626 
L 283.91224 342.959576 
L 284.237623 343.056309 
L 284.563007 350.261102 
L 285.213773 356.324309 
L 285.539157 355.524309 
L 285.86454 356.285058 
L 286.189924 354.409503 
L 286.515307 354.326805 
L 286.84069 354.909923 
L 287.166074 354.443058 
L 287.491457 352.982082 
L 287.816841 353.706951 
L 288.142224 344.49003 
L 288.467607 352.16967 
L 288.792991 351.31042 
L 289.118374 352.246808 
L 289.443758 352.241059 
L 289.769141 352.493502 
L 290.094524 349.834972 
L 290.419908 349.465005 
L 290.745291 350.221136 
L 291.070675 347.765751 
L 291.396058 348.077003 
L 291.721441 346.812144 
L 292.046825 339.088758 
L 292.372208 346.295737 
L 292.697592 344.571622 
L 293.022975 346.150875 
L 293.348359 346.540151 
L 293.673742 346.093719 
L 293.999125 340.438472 
L 294.324509 340.793517 
L 294.649892 341.402102 
L 294.975276 341.373333 
L 295.300659 340.654429 
L 295.626042 337.108708 
L 295.951426 339.91743 
L 296.276809 337.628972 
L 296.602193 341.82255 
L 296.927576 336.930967 
L 297.252959 338.717192 
L 297.578343 336.293394 
L 297.903726 340.816322 
L 298.22911 340.059138 
L 298.554493 340.397304 
L 298.879876 348.165156 
L 299.20526 347.994448 
L 299.530643 352.056533 
L 299.856027 352.825527 
L 300.18141 350.763465 
L 300.506793 350.502732 
L 301.15756 347.381257 
L 301.482944 348.798848 
L 301.808327 348.450297 
L 302.13371 348.85941 
L 302.459094 348.791739 
L 302.784477 347.307421 
L 303.109861 349.096135 
L 303.435244 348.212356 
L 303.760627 340.607658 
L 304.086011 353.172744 
L 304.411394 352.444919 
L 304.736778 353.694114 
L 305.062161 354.133152 
L 305.387544 334.11107 
L 305.712928 348.736561 
L 306.038311 348.78811 
L 306.363695 350.673608 
L 306.689078 351.251999 
L 307.014461 349.277418 
L 307.665228 350.619402 
L 307.990612 350.342648 
L 308.315995 349.475309 
L 308.641379 349.710643 
L 308.966762 349.599769 
L 309.292145 349.319852 
L 309.617529 348.304854 
L 309.942912 342.612304 
L 310.268296 348.802044 
L 310.593679 337.935215 
L 310.919062 345.82894 
L 311.244446 339.631621 
L 311.569829 345.674702 
L 311.895213 341.212029 
L 312.220596 347.059141 
L 312.545979 339.75685 
L 313.196746 356.285147 
L 313.52213 346.815783 
L 313.847513 354.244026 
L 314.49828 354.907912 
L 315.149047 354.229512 
L 315.47443 353.437377 
L 315.799813 354.693066 
L 316.125197 353.349312 
L 316.45058 352.804956 
L 316.775964 353.154898 
L 317.101347 351.124764 
L 317.752114 351.722355 
L 318.077497 352.094265 
L 318.402881 353.281797 
L 318.728264 351.486815 
L 319.053647 353.752758 
L 319.379031 353.40285 
L 319.704414 351.73528 
L 320.029798 351.896407 
L 320.355181 352.224988 
L 320.680564 351.823311 
L 321.005948 342.191802 
L 321.331331 339.784193 
L 321.656715 350.551391 
L 322.632865 348.911501 
L 322.958248 350.364603 
L 323.283632 350.784398 
L 323.609015 348.913982 
L 323.934399 348.883893 
L 324.259782 333.253335 
L 324.585165 346.264979 
L 324.910549 344.345601 
L 325.235932 348.643722 
L 325.561316 341.119653 
L 325.886699 347.61188 
L 326.537466 327.580877 
L 326.862849 348.521328 
L 327.188233 348.591913 
L 327.513616 356.127506 
L 327.838999 356.87277 
L 328.164383 355.986227 
L 328.489766 355.99143 
L 329.140533 354.407429 
L 329.465916 354.596783 
L 329.7913 354.036541 
L 330.442067 352.2633 
L 330.76745 352.352627 
L 331.092833 352.805263 
L 331.7436 351.111166 
L 332.068984 352.053329 
L 332.71975 352.925415 
L 333.045134 352.121213 
L 333.695901 351.355748 
L 334.021284 349.83231 
L 334.346667 350.770355 
L 334.672051 351.051231 
L 334.997434 349.694521 
L 335.322818 349.440774 
L 335.648201 342.108793 
L 335.973584 348.732338 
L 336.298968 348.902437 
L 336.624351 348.35165 
L 336.949735 349.253523 
L 337.275118 349.014405 
L 337.600501 347.768738 
L 337.925885 348.183659 
L 338.251268 348.794465 
L 338.576652 342.038994 
L 338.902035 348.521913 
L 339.227419 330.776381 
L 339.552802 347.785448 
L 339.878185 327.39321 
L 340.203569 347.407052 
L 340.528952 334.980061 
L 340.854336 335.260626 
L 341.179719 347.223465 
L 341.505102 346.320658 
L 341.830486 356.291536 
L 342.155869 356.138009 
L 342.481253 354.677748 
L 343.132019 354.155095 
L 343.457403 354.542298 
L 343.782786 354.561028 
L 344.10817 354.920307 
L 344.433553 353.149502 
L 344.758936 353.230009 
L 345.08432 352.842873 
L 345.409703 352.703507 
L 345.735087 351.94211 
L 346.06047 341.796876 
L 346.385853 351.046696 
L 346.711237 351.826121 
L 347.03662 352.921924 
L 347.362004 352.294963 
L 347.687387 351.180026 
L 348.01277 342.010154 
L 348.338154 350.619313 
L 348.988921 350.851442 
L 349.314304 349.548906 
L 349.639687 349.965517 
L 350.290454 349.480172 
L 350.615838 349.296925 
L 350.941221 349.450818 
L 351.266604 349.427736 
L 351.917371 347.708411 
L 352.242755 348.074505 
L 352.568138 347.17004 
L 352.893521 348.749541 
L 353.218905 347.801532 
L 353.544288 355.464541 
L 353.869672 356.482328 
L 354.195055 354.241709 
L 354.520439 354.669302 
L 354.845822 355.283928 
L 355.171205 354.43603 
L 355.496589 354.556851 
L 355.821972 353.489068 
L 356.147356 352.916705 
L 356.472739 353.834645 
L 356.798122 352.885071 
L 357.123506 352.723132 
L 357.448889 351.554915 
L 357.774273 352.275914 
L 358.099656 351.857195 
L 358.425039 351.203475 
L 358.750423 344.54719 
L 359.075806 352.551486 
L 359.40119 353.002305 
L 359.726573 352.362351 
L 360.051956 352.632418 
L 360.37734 351.104815 
L 360.702723 352.131985 
L 361.028107 350.759793 
L 361.35349 351.337881 
L 362.004257 350.051698 
L 362.32964 350.797853 
L 362.655024 350.285883 
L 362.980407 350.433224 
L 363.631174 348.943079 
L 364.281941 349.955961 
L 364.607324 348.920346 
L 364.932707 350.505609 
L 365.258091 357.429479 
L 365.583474 356.746628 
L 366.234241 356.266889 
L 366.559624 355.5368 
L 366.885008 355.276521 
L 367.210391 354.796235 
L 367.535775 354.663868 
L 367.861158 354.238596 
L 368.186541 354.317202 
L 368.511925 353.78194 
L 368.837308 354.000609 
L 369.162692 353.635693 
L 369.488075 353.060339 
L 369.813459 345.376522 
L 370.138842 350.223088 
L 370.464225 352.358313 
L 370.789609 353.265554 
L 371.114992 344.191262 
L 371.440376 351.602514 
L 371.765759 350.090095 
L 372.091142 352.058035 
L 372.416526 349.962228 
L 373.067293 350.581072 
L 373.392676 341.700244 
L 373.718059 349.886226 
L 374.043443 350.210344 
L 374.368826 348.438117 
L 374.69421 349.568417 
L 375.019593 347.715898 
L 375.344976 339.639048 
L 375.67036 347.077534 
L 375.995743 348.512533 
L 376.321127 346.619918 
L 376.64651 348.197572 
L 376.971893 356.808241 
L 377.297277 354.506905 
L 377.62266 356.104087 
L 377.948044 354.754835 
L 378.924194 353.721365 
L 379.574961 353.550568 
L 380.876494 351.842899 
L 381.201878 352.174167 
L 381.527261 351.703462 
L 381.852644 350.116836 
L 382.178028 352.291047 
L 382.503411 351.545569 
L 382.828795 352.577483 
L 383.154178 353.998725 
L 383.479561 351.5774 
L 383.804945 350.58691 
L 384.130328 352.2802 
L 384.455712 350.971729 
L 384.781095 351.341663 
L 385.106479 351.221237 
L 385.431862 350.960129 
L 385.757245 349.097511 
L 386.082629 349.761935 
L 386.408012 348.92557 
L 386.733396 349.895484 
L 387.058779 347.825199 
L 387.384162 348.33671 
L 387.709546 349.77637 
L 388.034929 349.294851 
L 388.360313 349.805055 
L 388.685696 356.851908 
L 389.011079 356.998285 
L 389.336463 356.592642 
L 389.661846 356.710208 
L 389.98723 355.707471 
L 390.312613 356.045464 
L 390.637996 355.07791 
L 390.96338 354.591395 
L 391.288763 353.55607 
L 391.614147 354.898184 
L 391.93953 354.318296 
L 392.264913 353.412275 
L 392.590297 353.808648 
L 392.91568 353.977346 
L 393.241064 353.128977 
L 393.566447 353.033686 
L 394.217214 354.397419 
L 394.867981 353.915017 
L 395.193364 352.479913 
L 395.518747 353.138663 
L 395.844131 352.240243 
L 396.169514 343.778305 
L 396.494898 350.672262 
L 396.820281 351.640372 
L 397.145664 351.718931 
L 397.796431 351.249829 
L 398.121815 350.865696 
L 398.447198 349.752648 
L 398.772581 350.392859 
L 399.097965 383.809427 
L 399.423348 383.961183 
L 399.748732 383.818175 
L 400.074115 383.994124 
L 400.399499 356.391045 
L 400.724882 356.271549 
L 401.050265 355.708821 
L 401.375649 356.376997 
L 401.701032 348.213096 
L 402.026416 352.74486 
L 402.351799 347.361316 
L 402.677182 355.472024 
L 403.002566 355.023939 
L 403.327949 354.186266 
L 403.653333 354.972512 
L 403.978716 353.912119 
L 404.629483 353.442634 
L 404.954866 353.711813 
L 405.28025 354.524856 
L 405.605633 354.180344 
L 405.931016 353.639104 
L 406.2564 353.846796 
L 406.581783 354.213773 
L 407.23255 351.733156 
L 407.557933 351.838983 
L 407.883317 352.537577 
L 408.534084 351.215142 
L 409.18485 351.063302 
L 409.835617 351.298131 
L 410.486384 349.6713 
L 410.811767 383.919035 
L 411.787918 384.005598 
L 412.113301 357.459135 
L 412.438684 357.620304 
L 412.764068 356.701498 
L 413.089451 356.125353 
L 413.414835 356.190209 
L 413.740218 355.923629 
L 414.065601 355.361659 
L 414.390985 355.455663 
L 414.716368 355.152899 
L 415.041752 354.501769 
L 415.367135 354.52558 
L 415.692519 354.792029 
L 416.017902 353.643386 
L 416.343285 353.095846 
L 416.668669 353.796656 
L 416.994052 353.903484 
L 417.644819 353.608262 
L 417.970202 353.779029 
L 418.295586 354.561751 
L 418.620969 352.200113 
L 418.946353 351.259562 
L 419.271736 351.93795 
L 419.597119 352.073896 
L 419.922503 351.838268 
L 420.247886 351.048631 
L 420.57327 351.488948 
L 420.898653 350.731146 
L 421.54942 350.519026 
L 421.874803 350.647191 
L 422.200187 349.762902 
L 422.52557 383.826881 
L 422.850953 383.982343 
L 423.50172 384.001001 
L 423.827104 357.221404 
L 424.152487 356.60762 
L 424.803254 354.385154 
L 425.128637 356.205061 
L 425.454021 355.50139 
L 425.779404 337.946966 
L 426.104787 354.425128 
L 426.430171 355.104277 
L 427.080938 352.880979 
L 427.406321 353.316009 
L 427.731704 352.24174 
L 428.057088 351.739415 
L 428.382471 353.325148 
L 428.707855 353.792488 
L 429.033238 344.444538 
L 429.358621 352.439901 
L 429.684005 352.396924 
L 430.009388 353.149514 
L 430.334772 351.028047 
L 430.660155 351.212816 
L 430.985539 350.186454 
L 431.310922 343.944009 
L 431.636305 350.638101 
L 431.961689 348.626848 
L 432.287072 349.655868 
L 432.612456 346.835029 
L 433.263222 350.642106 
L 433.588606 349.639507 
L 433.913989 349.306006 
L 434.239373 383.898892 
L 434.564756 383.975399 
L 435.215523 383.944228 
L 435.540906 356.388862 
L 435.86629 354.754158 
L 436.191673 348.104649 
L 436.517056 355.199892 
L 436.84244 354.018863 
L 437.167823 355.407954 
L 437.493207 355.947805 
L 437.81859 354.920985 
L 438.143973 354.697554 
L 438.469357 355.413136 
L 438.79474 354.687001 
L 439.120124 353.032756 
L 439.445507 353.17626 
L 439.77089 354.255496 
L 440.096274 353.989728 
L 440.421657 353.018489 
L 440.747041 347.375255 
L 441.072424 353.461136 
L 441.397807 351.794648 
L 441.723191 353.589633 
L 442.048574 350.734557 
L 442.373958 351.967657 
L 442.699341 351.811139 
L 443.350108 350.379349 
L 443.675491 350.60442 
L 444.326258 349.212847 
L 444.651641 348.964543 
L 444.977025 348.302608 
L 445.627792 349.262171 
L 445.953175 349.388187 
L 446.278559 349.231261 
L 446.603942 349.587475 
L 446.929325 348.718248 
L 447.254709 356.293083 
L 447.580092 356.835715 
L 447.905476 353.952438 
L 448.230859 356.241644 
L 449.207009 354.007301 
L 449.857776 347.618121 
L 450.183159 347.977405 
L 450.508543 347.709778 
L 450.833926 346.17691 
L 451.15931 345.774136 
L 451.484693 346.322311 
L 451.810076 345.705494 
L 452.13546 343.453515 
L 452.460843 345.220527 
L 452.786227 328.987385 
L 453.11161 346.812489 
L 453.436993 346.982201 
L 453.762377 345.125559 
L 454.08776 345.291069 
L 454.413144 343.897171 
L 454.738527 335.951801 
L 455.06391 332.478764 
L 455.389294 332.364268 
L 455.714677 331.760141 
L 456.040061 332.1114 
L 456.365444 331.721673 
L 456.690827 330.68411 
L 457.341594 330.66038 
L 457.666978 330.0363 
L 457.992361 327.003125 
L 458.317744 327.023743 
L 458.643128 313.873936 
L 458.968511 342.793309 
L 459.293895 343.228292 
L 459.944661 341.901437 
L 460.270045 341.409362 
L 460.595428 338.034796 
L 460.920812 335.858911 
L 461.571579 332.866926 
L 461.896962 333.112977 
L 462.222345 332.695482 
L 462.873112 330.989713 
L 463.198496 331.172207 
L 463.523879 332.795336 
L 463.849262 342.150768 
L 464.174646 342.879595 
L 464.825413 342.069631 
L 465.150796 343.057163 
L 465.476179 341.187736 
L 465.801563 340.245283 
L 466.126946 341.010495 
L 466.45233 339.994147 
L 466.777713 332.227885 
L 467.103096 340.134241 
L 467.42848 344.165849 
L 467.753863 343.124674 
L 468.079247 340.747823 
L 468.40463 340.155493 
L 468.730013 338.438857 
L 469.055397 338.5295 
L 469.38078 337.74515 
L 469.706164 343.392061 
L 470.031547 346.179723 
L 470.35693 345.825995 
L 470.682314 353.293406 
L 471.007697 353.873298 
L 471.333081 353.501093 
L 471.658464 352.492236 
L 471.983847 352.418333 
L 472.309231 352.65232 
L 472.634614 351.760924 
L 472.959998 351.705905 
L 473.285381 351.04186 
L 473.610764 350.773505 
L 473.936148 350.345831 
L 474.261531 351.023606 
L 474.586915 350.105539 
L 474.912298 349.80397 
L 475.237681 349.164213 
L 475.563065 350.068854 
L 475.888448 349.627566 
L 476.213832 348.661169 
L 476.539215 349.321025 
L 476.864599 348.536642 
L 477.189982 350.842483 
L 477.515365 351.603355 
L 477.840749 351.817659 
L 478.166132 351.797882 
L 478.491516 342.843444 
L 478.816899 344.282561 
L 479.142282 350.12042 
L 479.467666 350.98187 
L 480.118433 349.740825 
L 480.443816 349.006245 
L 480.769199 350.247659 
L 481.094583 348.98752 
L 481.419966 349.270377 
L 481.74535 349.02028 
L 482.070733 348.475171 
L 482.396116 356.403865 
L 482.7215 357.200719 
L 483.046883 356.011909 
L 483.372267 356.389611 
L 484.023033 354.936379 
L 484.348417 355.720013 
L 484.999184 353.845114 
L 485.324567 354.213857 
L 485.975334 353.873588 
L 486.300717 352.235624 
L 486.626101 353.683427 
L 486.951484 352.471114 
L 487.276867 353.619748 
L 487.602251 352.876378 
L 487.927634 353.715228 
L 488.253018 353.613696 
L 488.578401 354.307957 
L 488.903784 351.224219 
L 489.229168 351.333284 
L 489.554551 351.83953 
L 489.879935 351.767018 
L 490.205318 351.524741 
L 490.530701 343.537878 
L 490.856085 350.440878 
L 491.181468 350.171699 
L 491.506852 350.337327 
L 491.832235 349.423109 
L 492.157619 350.104778 
L 492.808385 349.332407 
L 493.133769 349.852625 
L 493.459152 349.373297 
L 493.784536 347.879591 
L 494.109919 357.733917 
L 494.435302 356.621584 
L 494.760686 356.988195 
L 495.086069 355.98327 
L 495.411453 355.798064 
L 495.736836 354.178098 
L 496.062219 355.754793 
L 496.387603 355.37132 
L 497.03837 354.208805 
L 497.363753 345.204329 
L 497.689136 353.930117 
L 498.339903 352.889711 
L 498.665287 351.877463 
L 499.316053 353.83107 
L 499.641437 350.447822 
L 500.292204 353.991238 
L 500.617587 352.114908 
L 500.94297 350.918317 
L 501.268354 351.272428 
L 501.593737 350.921812 
L 502.244504 352.19102 
L 502.895271 350.769211 
L 503.220654 350.819472 
L 503.546038 349.563967 
L 503.871421 350.763663 
L 504.196804 349.982892 
L 504.522188 349.516221 
L 504.847571 349.711976 
L 505.172955 348.82731 
L 505.498338 349.333761 
L 505.823721 357.24863 
L 506.149105 356.630408 
L 506.474488 356.287153 
L 506.799872 356.809806 
L 507.125255 354.528103 
L 507.450639 355.161357 
L 507.776022 355.53667 
L 508.101405 351.321427 
L 508.426789 354.905591 
L 508.752172 354.644731 
L 509.077556 354.20616 
L 509.402939 354.098655 
L 509.728322 352.888188 
L 510.053706 352.706527 
L 510.379089 353.999675 
L 510.704473 353.495798 
L 511.029856 353.211174 
L 511.355239 354.155267 
L 511.680623 353.577516 
L 512.006006 353.850876 
L 512.33139 352.036715 
L 512.656773 352.006932 
L 512.982156 352.670953 
L 513.30754 351.569291 
L 513.632923 351.764701 
L 513.958307 351.394111 
L 514.28369 350.841347 
L 514.609073 337.537778 
L 514.934457 350.7494 
L 515.585224 349.764009 
L 515.910607 350.572034 
L 516.23599 349.696372 
L 516.561374 350.163321 
L 516.886757 350.164717 
L 517.212141 349.864532 
L 517.537524 356.817251 
L 517.862907 356.856947 
L 518.513674 356.142349 
L 518.839058 356.178563 
L 519.164441 355.49281 
L 519.489824 355.335872 
L 519.815208 355.372464 
L 520.140591 355.194294 
L 520.465975 354.365323 
L 520.791358 354.314334 
L 521.116742 354.635776 
L 521.442125 353.393546 
L 521.767508 353.658628 
L 522.092892 346.095713 
L 522.418275 353.096654 
L 522.743659 353.608947 
L 523.069042 353.711363 
L 523.394425 353.440064 
L 523.719809 353.928354 
L 524.045192 351.583936 
L 524.370576 352.659761 
L 524.695959 351.981869 
L 525.021342 351.650382 
L 525.346726 351.549018 
L 525.672109 352.149902 
L 525.997493 350.988309 
L 526.648259 350.983632 
L 526.973643 350.48375 
L 527.299026 350.683947 
L 527.62441 350.483153 
L 527.949793 346.049918 
L 528.275176 346.075478 
L 528.60056 345.509053 
L 528.925943 346.36898 
L 529.251327 353.890875 
L 529.902093 353.476446 
L 530.227477 352.927649 
L 530.55286 352.658621 
L 530.878244 352.008573 
L 531.52901 351.636662 
L 531.854394 351.400252 
L 532.179777 349.978131 
L 532.505161 354.14026 
L 532.830544 352.630155 
L 533.155927 348.523023 
L 533.481311 349.776791 
L 533.806694 349.372969 
L 534.132078 350.029322 
L 534.457461 350.323451 
L 534.782844 350.18221 
L 535.108228 349.775281 
L 535.433611 350.149492 
L 535.758995 352.686006 
L 536.084378 352.634811 
L 536.409762 351.521262 
L 536.735145 351.915153 
L 537.060528 348.0245 
L 537.385912 348.104956 
L 537.711295 347.588574 
L 538.036679 347.572474 
L 538.362062 346.420264 
L 538.687445 345.803186 
L 539.012829 346.105732 
L 539.338212 346.856934 
L 539.663596 346.474256 
L 539.988979 347.645397 
L 540.314362 343.175175 
L 540.639746 342.732612 
L 540.965129 357.114959 
L 541.290513 356.665448 
L 541.615896 356.652494 
L 542.266663 356.023774 
L 542.592046 356.055744 
L 542.91743 355.496334 
L 543.242813 355.353171 
L 543.89358 354.909877 
L 544.86973 353.455542 
L 545.195113 353.756401 
L 545.520497 338.576313 
L 545.84588 353.446327 
L 546.171264 353.993 
L 546.496647 354.065478 
L 547.147414 353.201677 
L 548.448947 350.99209 
L 548.774331 350.874739 
L 549.099714 351.28476 
L 549.425098 350.991165 
L 549.750481 350.969138 
L 550.075864 351.11125 
L 550.401248 342.84013 
L 550.726631 350.773379 
L 551.052015 349.926696 
L 551.702782 349.502085 
L 552.028165 350.695097 
L 552.353548 349.762154 
L 552.678932 356.98205 
L 553.004315 357.271136 
L 553.329699 356.877468 
L 553.655082 349.852208 
L 553.980465 355.685575 
L 554.305849 356.243028 
L 554.956616 355.069157 
L 555.281999 354.955125 
L 555.932766 354.132471 
L 556.258149 354.332802 
L 556.583533 353.757255 
L 556.908916 352.759232 
L 557.234299 353.525908 
L 557.559683 353.291088 
L 558.21045 353.948573 
L 558.535833 353.638713 
L 558.861216 353.806877 
L 559.1866 345.289673 
L 559.511983 352.289381 
L 559.837367 352.894072 
L 560.16275 351.878313 
L 560.488133 351.401093 
L 560.813517 351.453193 
L 561.1389 350.971186 
L 561.464284 351.055445 
L 561.789667 350.697191 
L 562.11505 351.051277 
L 562.440434 350.102553 
L 562.765817 349.871043 
L 563.091201 349.967284 
L 563.416584 349.938936 
L 563.741967 349.61796 
L 564.067351 349.754158 
L 564.392734 357.646272 
L 564.718118 356.92198 
L 565.043501 356.590161 
L 565.368884 356.437324 
L 565.694268 356.59374 
L 566.345035 354.825555 
L 566.670418 355.814396 
L 566.995802 354.61314 
L 567.321185 354.236275 
L 567.646568 355.002917 
L 568.297335 353.621649 
L 568.948102 353.110315 
L 569.598869 354.337395 
L 570.249636 352.495172 
L 570.575019 353.240276 
L 570.900402 353.066825 
L 571.551169 351.437181 
L 571.876553 351.841763 
L 572.201936 351.535887 
L 572.527319 351.513561 
L 572.852703 351.138076 
L 573.178086 351.426329 
L 573.50347 350.564206 
L 573.828853 350.499396 
L 574.154236 350.567651 
L 574.47962 350.302333 
L 575.130387 349.566104 
L 575.45577 349.60662 
L 575.781153 349.846656 
L 576.106537 356.534133 
L 576.43192 342.705875 
L 576.757304 355.935482 
L 577.082687 355.72472 
L 577.40807 354.426566 
L 578.058837 355.797315 
L 578.709604 354.843128 
L 579.685754 354.60228 
L 580.011138 353.170372 
L 580.336521 352.926887 
L 580.661904 354.007166 
L 580.987288 353.384133 
L 581.312671 351.922375 
L 581.638055 353.145468 
L 581.963438 346.571431 
L 582.288822 354.125195 
L 582.614205 351.801587 
L 582.939588 352.501859 
L 583.264972 352.010798 
L 583.590355 351.998016 
L 584.566505 351.295863 
L 584.891889 351.251692 
L 585.217272 343.1605 
L 585.542656 350.449505 
L 585.868039 350.335312 
L 586.193422 350.77438 
L 586.518806 349.578663 
L 586.844189 349.565982 
L 587.169573 349.862328 
L 587.494956 349.298973 
L 587.820339 354.034349 
L 588.145723 356.386137 
L 588.471106 357.129264 
L 588.79649 355.875054 
L 589.447256 356.149495 
L 589.77264 355.141463 
L 590.098023 348.398 
L 590.423407 355.055972 
L 590.74879 354.208772 
L 591.074173 353.894824 
L 591.399557 354.562121 
L 591.72494 353.212558 
L 592.050324 353.098576 
L 592.375707 353.591063 
L 592.70109 352.561761 
L 593.026474 354.105548 
L 593.351857 352.993052 
L 594.002624 354.444232 
L 594.328007 352.582152 
L 594.653391 352.030991 
L 595.304158 352.181489 
L 595.954924 351.467918 
L 596.280308 351.497499 
L 596.605691 351.002609 
L 596.931075 348.617776 
L 597.256458 350.791788 
L 597.581842 350.132659 
L 597.907225 350.116592 
L 598.232608 349.405763 
L 598.557992 349.776997 
L 598.883375 350.540093 
L 599.208759 349.407702 
L 599.534142 357.235717 
L 599.859525 356.813045 
L 600.184909 357.212832 
L 600.835676 355.626977 
L 601.161059 356.134564 
L 601.486442 347.706476 
L 601.811826 354.913111 
L 602.137209 355.11973 
L 602.787976 354.318422 
L 603.113359 354.107319 
L 603.438743 352.583123 
L 603.764126 353.28083 
L 604.08951 353.18863 
L 604.414893 352.884445 
L 604.740276 353.913541 
L 605.06566 353.889184 
L 605.391043 353.344454 
L 605.716427 354.168096 
L 606.04181 351.62775 
L 606.367193 352.76613 
L 607.01796 351.66814 
L 607.343344 345.040043 
L 607.668727 351.782118 
L 607.99411 351.419461 
L 608.319494 351.272125 
L 608.644877 350.721304 
L 608.970261 350.975018 
L 609.295644 348.703107 
L 609.621027 349.293552 
L 610.271794 347.14607 
L 610.597178 348.079392 
L 610.922561 347.60457 
L 611.247944 355.668414 
L 611.573328 354.940715 
L 611.898711 354.743366 
L 612.224095 354.694315 
L 612.549478 356.369389 
L 612.874862 355.847413 
L 613.200245 348.740086 
L 613.525628 355.67874 
L 613.851012 353.698581 
L 614.176395 353.672163 
L 614.501779 354.665467 
L 614.827162 353.923766 
L 615.152545 352.883149 
L 615.477929 352.535007 
L 615.803312 352.877215 
L 616.128696 353.653691 
L 616.454079 353.970667 
L 616.779462 346.631304 
L 617.104846 353.063153 
L 617.430229 353.369113 
L 617.755613 352.483736 
L 618.080996 351.934038 
L 618.406379 351.648923 
L 619.057146 352.1626 
L 619.38253 351.826024 
L 620.033296 350.943099 
L 620.35868 349.97157 
L 620.684063 350.667514 
L 621.009447 341.840581 
L 621.33483 349.594709 
L 621.660213 350.166614 
L 621.985597 350.031463 
L 622.31098 349.531577 
L 622.636364 349.873411 
L 622.636364 349.873411 
" clip-path="url(#pe718215d85)" style="fill: none; stroke: #1f77b4; stroke-width: 1.5; stroke-linecap: square"/>
   </g>
   <g id="patch_3">
    <path d="M 90 384.48 
L 90 51.84 
" style="fill: none; stroke: #000000; stroke-width: 0.8; stroke-linejoin: miter; stroke-linecap: square"/>
   </g>
   <g id="patch_4">
    <path d="M 648 384.48 
L 648 51.84 
" style="fill: none; stroke: #000000; stroke-width: 0.8; stroke-linejoin: miter; stroke-linecap: square"/>
   </g>
   <g id="patch_5">
    <path d="M 90 384.48 
L 648 384.48 
" style="fill: none; stroke: #000000; stroke-width: 0.8; stroke-linejoin: miter; stroke-linecap: square"/>
   </g>
   <g id="patch_6">
    <path d="M 90 51.84 
L 648 51.84 
" style="fill: none; stroke: #000000; stroke-width: 0.8; stroke-linejoin: miter; stroke-linecap: square"/>
   </g>
   <g id="text_20">
    <!-- Average time per index -->
    <g transform="translate(298.700625 45.84) scale(0.12 -0.12)">
     <defs>
      <path id="DejaVuSans-70" d="M 1159 525 
L 1159 -1331 
L 581 -1331 
L 581 3500 
L 1159 3500 
L 1159 2969 
Q 1341 3281 1617 3432 
Q 1894 3584 2278 3584 
Q 2916 3584 3314 3078 
Q 3713 2572 3713 1747 
Q 3713 922 3314 415 
Q 2916 -91 2278 -91 
Q 1894 -91 1617 61 
Q 1341 213 1159 525 
z
M 3116 1747 
Q 3116 2381 2855 2742 
Q 2594 3103 2138 3103 
Q 1681 3103 1420 2742 
Q 1159 2381 1159 1747 
Q 1159 1113 1420 752 
Q 1681 391 2138 391 
Q 2594 391 2855 752 
Q 3116 1113 3116 1747 
z
" transform="scale(0.015625)"/>
     </defs>
     <use xlink:href="#DejaVuSans-41"/>
     <use xlink:href="#DejaVuSans-76" transform="translate(62.533203 0)"/>
     <use xlink:href="#DejaVuSans-65" transform="translate(121.712891 0)"/>
     <use xlink:href="#DejaVuSans-72" transform="translate(183.236328 0)"/>
     <use xlink:href="#DejaVuSans-61" transform="translate(224.349609 0)"/>
     <use xlink:href="#DejaVuSans-67" transform="translate(285.628906 0)"/>
     <use xlink:href="#DejaVuSans-65" transform="translate(349.105469 0)"/>
     <use xlink:href="#DejaVuSans-20" transform="translate(410.628906 0)"/>
     <use xlink:href="#DejaVuSans-74" transform="translate(442.416016 0)"/>
     <use xlink:href="#DejaVuSans-69" transform="translate(481.625 0)"/>
     <use xlink:href="#DejaVuSans-6d" transform="translate(509.408203 0)"/>
     <use xlink:href="#DejaVuSans-65" transform="translate(606.820312 0)"/>
     <use xlink:href="#DejaVuSans-20" transform="translate(668.34375 0)"/>
     <use xlink:href="#DejaVuSans-70" transform="translate(700.130859 0)"/>
     <use xlink:href="#DejaVuSans-65" transform="translate(763.607422 0)"/>
     <use xlink:href="#DejaVuSans-72" transform="translate(825.130859 0)"/>
     <use xlink:href="#DejaVuSans-20" transform="translate(866.244141 0)"/>
     <use xlink:href="#DejaVuSans-69" transform="translate(898.03125 0)"/>
     <use xlink:href="#DejaVuSans-6e" transform="translate(925.814453 0)"/>
     <use xlink:href="#DejaVuSans-64" transform="translate(989.193359 0)"/>
     <use xlink:href="#DejaVuSans-65" transform="translate(1052.669922 0)"/>
     <use xlink:href="#DejaVuSans-78" transform="translate(1112.443359 0)"/>
    </g>
   </g>
   <g id="legend_1">
    <g id="patch_7">
     <path d="M 489.965625 74.518125 
L 641 74.518125 
Q 643 74.518125 643 72.518125 
L 643 58.84 
Q 643 56.84 641 56.84 
L 489.965625 56.84 
Q 487.965625 56.84 487.965625 58.84 
L 487.965625 72.518125 
Q 487.965625 74.518125 489.965625 74.518125 
z
" style="fill: #ffffff; opacity: 0.8; stroke: #cccccc; stroke-linejoin: miter"/>
    </g>
    <g id="line2d_19">
     <path d="M 491.965625 64.938438 
L 501.965625 64.938438 
L 511.965625 64.938438 
" style="fill: none; stroke: #1f77b4; stroke-width: 1.5; stroke-linecap: square"/>
    </g>
    <g id="text_21">
     <!-- getExpectedBehaviours -->
     <g transform="translate(519.965625 68.438438) scale(0.1 -0.1)">
      <defs>
       <path id="DejaVuSans-45" d="M 628 4666 
L 3578 4666 
L 3578 4134 
L 1259 4134 
L 1259 2753 
L 3481 2753 
L 3481 2222 
L 1259 2222 
L 1259 531 
L 3634 531 
L 3634 0 
L 628 0 
L 628 4666 
z
" transform="scale(0.015625)"/>
       <path id="DejaVuSans-63" d="M 3122 3366 
L 3122 2828 
Q 2878 2963 2633 3030 
Q 2388 3097 2138 3097 
Q 1578 3097 1268 2742 
Q 959 2388 959 1747 
Q 959 1106 1268 751 
Q 1578 397 2138 397 
Q 2388 397 2633 464 
Q 2878 531 3122 666 
L 3122 134 
Q 2881 22 2623 -34 
Q 2366 -91 2075 -91 
Q 1284 -91 818 406 
Q 353 903 353 1747 
Q 353 2603 823 3093 
Q 1294 3584 2113 3584 
Q 2378 3584 2631 3529 
Q 2884 3475 3122 3366 
z
" transform="scale(0.015625)"/>
       <path id="DejaVuSans-42" d="M 1259 2228 
L 1259 519 
L 2272 519 
Q 2781 519 3026 730 
Q 3272 941 3272 1375 
Q 3272 1813 3026 2020 
Q 2781 2228 2272 2228 
L 1259 2228 
z
M 1259 4147 
L 1259 2741 
L 2194 2741 
Q 2656 2741 2882 2914 
Q 3109 3088 3109 3444 
Q 3109 3797 2882 3972 
Q 2656 4147 2194 4147 
L 1259 4147 
z
M 628 4666 
L 2241 4666 
Q 2963 4666 3353 4366 
Q 3744 4066 3744 3513 
Q 3744 3084 3544 2831 
Q 3344 2578 2956 2516 
Q 3422 2416 3680 2098 
Q 3938 1781 3938 1306 
Q 3938 681 3513 340 
Q 3088 0 2303 0 
L 628 0 
L 628 4666 
z
" transform="scale(0.015625)"/>
       <path id="DejaVuSans-68" d="M 3513 2113 
L 3513 0 
L 2938 0 
L 2938 2094 
Q 2938 2591 2744 2837 
Q 2550 3084 2163 3084 
Q 1697 3084 1428 2787 
Q 1159 2491 1159 1978 
L 1159 0 
L 581 0 
L 581 4863 
L 1159 4863 
L 1159 2956 
Q 1366 3272 1645 3428 
Q 1925 3584 2291 3584 
Q 2894 3584 3203 3211 
Q 3513 2838 3513 2113 
z
" transform="scale(0.015625)"/>
       <path id="DejaVuSans-6f" d="M 1959 3097 
Q 1497 3097 1228 2736 
Q 959 2375 959 1747 
Q 959 1119 1226 758 
Q 1494 397 1959 397 
Q 2419 397 2687 759 
Q 2956 1122 2956 1747 
Q 2956 2369 2687 2733 
Q 2419 3097 1959 3097 
z
M 1959 3584 
Q 2709 3584 3137 3096 
Q 3566 2609 3566 1747 
Q 3566 888 3137 398 
Q 2709 -91 1959 -91 
Q 1206 -91 779 398 
Q 353 888 353 1747 
Q 353 2609 779 3096 
Q 1206 3584 1959 3584 
z
" transform="scale(0.015625)"/>
       <path id="DejaVuSans-75" d="M 544 1381 
L 544 3500 
L 1119 3500 
L 1119 1403 
Q 1119 906 1312 657 
Q 1506 409 1894 409 
Q 2359 409 2629 706 
Q 2900 1003 2900 1516 
L 2900 3500 
L 3475 3500 
L 3475 0 
L 2900 0 
L 2900 538 
Q 2691 219 2414 64 
Q 2138 -91 1772 -91 
Q 1169 -91 856 284 
Q 544 659 544 1381 
z
M 1991 3584 
L 1991 3584 
z
" transform="scale(0.015625)"/>
      </defs>
      <use xlink:href="#DejaVuSans-67"/>
      <use xlink:href="#DejaVuSans-65" transform="translate(63.476562 0)"/>
      <use xlink:href="#DejaVuSans-74" transform="translate(125 0)"/>
      <use xlink:href="#DejaVuSans-45" transform="translate(164.208984 0)"/>
      <use xlink:href="#DejaVuSans-78" transform="translate(227.392578 0)"/>
      <use xlink:href="#DejaVuSans-70" transform="translate(286.572266 0)"/>
      <use xlink:href="#DejaVuSans-65" transform="translate(350.048828 0)"/>
      <use xlink:href="#DejaVuSans-63" transform="translate(411.572266 0)"/>
      <use xlink:href="#DejaVuSans-74" transform="translate(466.552734 0)"/>
      <use xlink:href="#DejaVuSans-65" transform="translate(505.761719 0)"/>
      <use xlink:href="#DejaVuSans-64" transform="translate(567.285156 0)"/>
      <use xlink:href="#DejaVuSans-42" transform="translate(630.761719 0)"/>
      <use xlink:href="#DejaVuSans-65" transform="translate(699.365234 0)"/>
      <use xlink:href="#DejaVuSans-68" transform="translate(760.888672 0)"/>
      <use xlink:href="#DejaVuSans-61" transform="translate(824.267578 0)"/>
      <use xlink:href="#DejaVuSans-76" transform="translate(885.546875 0)"/>
      <use xlink:href="#DejaVuSans-69" transform="translate(944.726562 0)"/>
      <use xlink:href="#DejaVuSans-6f" transform="translate(972.509766 0)"/>
      <use xlink:href="#DejaVuSans-75" transform="translate(1033.691406 0)"/>
      <use xlink:href="#DejaVuSans-72" transform="translate(1097.070312 0)"/>
      <use xlink:href="#DejaVuSans-73" transform="translate(1138.183594 0)"/>
     </g>
    </g>
   </g>
  </g>
 </g>
 <defs>
  <clipPath id="pe718215d85">
   <rect x="90" y="51.84" width="558" height="332.64"/>
  </clipPath>
 </defs>
</svg>
