<?xml version="1.0" encoding="utf-8" standalone="no"?>
<!DOCTYPE svg PUBLIC "-//W3C//DTD SVG 1.1//EN"
  "http://www.w3.org/Graphics/SVG/1.1/DTD/svg11.dtd">
<svg xmlns:xlink="http://www.w3.org/1999/xlink" width="720pt" height="432pt" viewBox="0 0 720 432" xmlns="http://www.w3.org/2000/svg" version="1.1">
 <metadata>
  <rdf:RDF xmlns:dc="http://purl.org/dc/elements/1.1/" xmlns:cc="http://creativecommons.org/ns#" xmlns:rdf="http://www.w3.org/1999/02/22-rdf-syntax-ns#">
   <cc:Work>
    <dc:type rdf:resource="http://purl.org/dc/dcmitype/StillImage"/>
    <dc:date>2025-09-30T20:43:12.685256</dc:date>
    <dc:format>image/svg+xml</dc:format>
    <dc:creator>
     <cc:Agent>
      <dc:title>Matplotlib v3.10.3, https://matplotlib.org/</dc:title>
     </cc:Agent>
    </dc:creator>
   </cc:Work>
  </rdf:RDF>
 </metadata>
 <defs>
  <style type="text/css">*{stroke-linejoin: round; stroke-linecap: butt}</style>
 </defs>
 <g id="figure_1">
  <g id="patch_1">
   <path d="M 0 432 
L 720 432 
L 720 0 
L 0 0 
z
" style="fill: #ffffff"/>
  </g>
  <g id="axes_1">
   <g id="patch_2">
    <path d="M 90 384.48 
L 648 384.48 
L 648 51.84 
L 90 51.84 
z
" style="fill: #ffffff"/>
   </g>
   <g id="matplotlib.axis_1">
    <g id="xtick_1">
     <g id="line2d_1">
      <defs>
       <path id="m4136bae8d4" d="M 0 0 
L 0 3.5 
" style="stroke: #000000; stroke-width: 0.8"/>
      </defs>
      <g>
       <use xlink:href="#m4136bae8d4" x="115.363636" y="384.48" style="stroke: #000000; stroke-width: 0.8"/>
      </g>
     </g>
     <g id="text_1">
      <!-- 0 -->
      <g transform="translate(112.182386 399.078438) scale(0.1 -0.1)">
       <defs>
        <path id="DejaVuSans-30" d="M 2034 4250 
Q 1547 4250 1301 3770 
Q 1056 3291 1056 2328 
Q 1056 1369 1301 889 
Q 1547 409 2034 409 
Q 2525 409 2770 889 
Q 3016 1369 3016 2328 
Q 3016 3291 2770 3770 
Q 2525 4250 2034 4250 
z
M 2034 4750 
Q 2819 4750 3233 4129 
Q 3647 3509 3647 2328 
Q 3647 1150 3233 529 
Q 2819 -91 2034 -91 
Q 1250 -91 836 529 
Q 422 1150 422 2328 
Q 422 3509 836 4129 
Q 1250 4750 2034 4750 
z
" transform="scale(0.015625)"/>
       </defs>
       <use xlink:href="#DejaVuSans-30"/>
      </g>
     </g>
    </g>
    <g id="xtick_2">
     <g id="line2d_2">
      <g>
       <use xlink:href="#m4136bae8d4" x="180.440317" y="384.48" style="stroke: #000000; stroke-width: 0.8"/>
      </g>
     </g>
     <g id="text_2">
      <!-- 200 -->
      <g transform="translate(170.896567 399.078438) scale(0.1 -0.1)">
       <defs>
        <path id="DejaVuSans-32" d="M 1228 531 
L 3431 531 
L 3431 0 
L 469 0 
L 469 531 
Q 828 903 1448 1529 
Q 2069 2156 2228 2338 
Q 2531 2678 2651 2914 
Q 2772 3150 2772 3378 
Q 2772 3750 2511 3984 
Q 2250 4219 1831 4219 
Q 1534 4219 1204 4116 
Q 875 4013 500 3803 
L 500 4441 
Q 881 4594 1212 4672 
Q 1544 4750 1819 4750 
Q 2544 4750 2975 4387 
Q 3406 4025 3406 3419 
Q 3406 3131 3298 2873 
Q 3191 2616 2906 2266 
Q 2828 2175 2409 1742 
Q 1991 1309 1228 531 
z
" transform="scale(0.015625)"/>
       </defs>
       <use xlink:href="#DejaVuSans-32"/>
       <use xlink:href="#DejaVuSans-30" transform="translate(63.623047 0)"/>
       <use xlink:href="#DejaVuSans-30" transform="translate(127.246094 0)"/>
      </g>
     </g>
    </g>
    <g id="xtick_3">
     <g id="line2d_3">
      <g>
       <use xlink:href="#m4136bae8d4" x="245.516998" y="384.48" style="stroke: #000000; stroke-width: 0.8"/>
      </g>
     </g>
     <g id="text_3">
      <!-- 400 -->
      <g transform="translate(235.973248 399.078438) scale(0.1 -0.1)">
       <defs>
        <path id="DejaVuSans-34" d="M 2419 4116 
L 825 1625 
L 2419 1625 
L 2419 4116 
z
M 2253 4666 
L 3047 4666 
L 3047 1625 
L 3713 1625 
L 3713 1100 
L 3047 1100 
L 3047 0 
L 2419 0 
L 2419 1100 
L 313 1100 
L 313 1709 
L 2253 4666 
z
" transform="scale(0.015625)"/>
       </defs>
       <use xlink:href="#DejaVuSans-34"/>
       <use xlink:href="#DejaVuSans-30" transform="translate(63.623047 0)"/>
       <use xlink:href="#DejaVuSans-30" transform="translate(127.246094 0)"/>
      </g>
     </g>
    </g>
    <g id="xtick_4">
     <g id="line2d_4">
      <g>
       <use xlink:href="#m4136bae8d4" x="310.593679" y="384.48" style="stroke: #000000; stroke-width: 0.8"/>
      </g>
     </g>
     <g id="text_4">
      <!-- 600 -->
      <g transform="translate(301.049929 399.078438) scale(0.1 -0.1)">
       <defs>
        <path id="DejaVuSans-36" d="M 2113 2584 
Q 1688 2584 1439 2293 
Q 1191 2003 1191 1497 
Q 1191 994 1439 701 
Q 1688 409 2113 409 
Q 2538 409 2786 701 
Q 3034 994 3034 1497 
Q 3034 2003 2786 2293 
Q 2538 2584 2113 2584 
z
M 3366 4563 
L 3366 3988 
Q 3128 4100 2886 4159 
Q 2644 4219 2406 4219 
Q 1781 4219 1451 3797 
Q 1122 3375 1075 2522 
Q 1259 2794 1537 2939 
Q 1816 3084 2150 3084 
Q 2853 3084 3261 2657 
Q 3669 2231 3669 1497 
Q 3669 778 3244 343 
Q 2819 -91 2113 -91 
Q 1303 -91 875 529 
Q 447 1150 447 2328 
Q 447 3434 972 4092 
Q 1497 4750 2381 4750 
Q 2619 4750 2861 4703 
Q 3103 4656 3366 4563 
z
" transform="scale(0.015625)"/>
       </defs>
       <use xlink:href="#DejaVuSans-36"/>
       <use xlink:href="#DejaVuSans-30" transform="translate(63.623047 0)"/>
       <use xlink:href="#DejaVuSans-30" transform="translate(127.246094 0)"/>
      </g>
     </g>
    </g>
    <g id="xtick_5">
     <g id="line2d_5">
      <g>
       <use xlink:href="#m4136bae8d4" x="375.67036" y="384.48" style="stroke: #000000; stroke-width: 0.8"/>
      </g>
     </g>
     <g id="text_5">
      <!-- 800 -->
      <g transform="translate(366.12661 399.078438) scale(0.1 -0.1)">
       <defs>
        <path id="DejaVuSans-38" d="M 2034 2216 
Q 1584 2216 1326 1975 
Q 1069 1734 1069 1313 
Q 1069 891 1326 650 
Q 1584 409 2034 409 
Q 2484 409 2743 651 
Q 3003 894 3003 1313 
Q 3003 1734 2745 1975 
Q 2488 2216 2034 2216 
z
M 1403 2484 
Q 997 2584 770 2862 
Q 544 3141 544 3541 
Q 544 4100 942 4425 
Q 1341 4750 2034 4750 
Q 2731 4750 3128 4425 
Q 3525 4100 3525 3541 
Q 3525 3141 3298 2862 
Q 3072 2584 2669 2484 
Q 3125 2378 3379 2068 
Q 3634 1759 3634 1313 
Q 3634 634 3220 271 
Q 2806 -91 2034 -91 
Q 1263 -91 848 271 
Q 434 634 434 1313 
Q 434 1759 690 2068 
Q 947 2378 1403 2484 
z
M 1172 3481 
Q 1172 3119 1398 2916 
Q 1625 2713 2034 2713 
Q 2441 2713 2670 2916 
Q 2900 3119 2900 3481 
Q 2900 3844 2670 4047 
Q 2441 4250 2034 4250 
Q 1625 4250 1398 4047 
Q 1172 3844 1172 3481 
z
" transform="scale(0.015625)"/>
       </defs>
       <use xlink:href="#DejaVuSans-38"/>
       <use xlink:href="#DejaVuSans-30" transform="translate(63.623047 0)"/>
       <use xlink:href="#DejaVuSans-30" transform="translate(127.246094 0)"/>
      </g>
     </g>
    </g>
    <g id="xtick_6">
     <g id="line2d_6">
      <g>
       <use xlink:href="#m4136bae8d4" x="440.747041" y="384.48" style="stroke: #000000; stroke-width: 0.8"/>
      </g>
     </g>
     <g id="text_6">
      <!-- 1000 -->
      <g transform="translate(428.022041 399.078438) scale(0.1 -0.1)">
       <defs>
        <path id="DejaVuSans-31" d="M 794 531 
L 1825 531 
L 1825 4091 
L 703 3866 
L 703 4441 
L 1819 4666 
L 2450 4666 
L 2450 531 
L 3481 531 
L 3481 0 
L 794 0 
L 794 531 
z
" transform="scale(0.015625)"/>
       </defs>
       <use xlink:href="#DejaVuSans-31"/>
       <use xlink:href="#DejaVuSans-30" transform="translate(63.623047 0)"/>
       <use xlink:href="#DejaVuSans-30" transform="translate(127.246094 0)"/>
       <use xlink:href="#DejaVuSans-30" transform="translate(190.869141 0)"/>
      </g>
     </g>
    </g>
    <g id="xtick_7">
     <g id="line2d_7">
      <g>
       <use xlink:href="#m4136bae8d4" x="505.823721" y="384.48" style="stroke: #000000; stroke-width: 0.8"/>
      </g>
     </g>
     <g id="text_7">
      <!-- 1200 -->
      <g transform="translate(493.098721 399.078438) scale(0.1 -0.1)">
       <use xlink:href="#DejaVuSans-31"/>
       <use xlink:href="#DejaVuSans-32" transform="translate(63.623047 0)"/>
       <use xlink:href="#DejaVuSans-30" transform="translate(127.246094 0)"/>
       <use xlink:href="#DejaVuSans-30" transform="translate(190.869141 0)"/>
      </g>
     </g>
    </g>
    <g id="xtick_8">
     <g id="line2d_8">
      <g>
       <use xlink:href="#m4136bae8d4" x="570.900402" y="384.48" style="stroke: #000000; stroke-width: 0.8"/>
      </g>
     </g>
     <g id="text_8">
      <!-- 1400 -->
      <g transform="translate(558.175402 399.078438) scale(0.1 -0.1)">
       <use xlink:href="#DejaVuSans-31"/>
       <use xlink:href="#DejaVuSans-34" transform="translate(63.623047 0)"/>
       <use xlink:href="#DejaVuSans-30" transform="translate(127.246094 0)"/>
       <use xlink:href="#DejaVuSans-30" transform="translate(190.869141 0)"/>
      </g>
     </g>
    </g>
    <g id="xtick_9">
     <g id="line2d_9">
      <g>
       <use xlink:href="#m4136bae8d4" x="635.977083" y="384.48" style="stroke: #000000; stroke-width: 0.8"/>
      </g>
     </g>
     <g id="text_9">
      <!-- 1600 -->
      <g transform="translate(623.252083 399.078438) scale(0.1 -0.1)">
       <use xlink:href="#DejaVuSans-31"/>
       <use xlink:href="#DejaVuSans-36" transform="translate(63.623047 0)"/>
       <use xlink:href="#DejaVuSans-30" transform="translate(127.246094 0)"/>
       <use xlink:href="#DejaVuSans-30" transform="translate(190.869141 0)"/>
      </g>
     </g>
    </g>
    <g id="text_10">
     <!-- Index -->
     <g transform="translate(355.233594 412.756563) scale(0.1 -0.1)">
      <defs>
       <path id="DejaVuSans-49" d="M 628 4666 
L 1259 4666 
L 1259 0 
L 628 0 
L 628 4666 
z
" transform="scale(0.015625)"/>
       <path id="DejaVuSans-6e" d="M 3513 2113 
L 3513 0 
L 2938 0 
L 2938 2094 
Q 2938 2591 2744 2837 
Q 2550 3084 2163 3084 
Q 1697 3084 1428 2787 
Q 1159 2491 1159 1978 
L 1159 0 
L 581 0 
L 581 3500 
L 1159 3500 
L 1159 2956 
Q 1366 3272 1645 3428 
Q 1925 3584 2291 3584 
Q 2894 3584 3203 3211 
Q 3513 2838 3513 2113 
z
" transform="scale(0.015625)"/>
       <path id="DejaVuSans-64" d="M 2906 2969 
L 2906 4863 
L 3481 4863 
L 3481 0 
L 2906 0 
L 2906 525 
Q 2725 213 2448 61 
Q 2172 -91 1784 -91 
Q 1150 -91 751 415 
Q 353 922 353 1747 
Q 353 2572 751 3078 
Q 1150 3584 1784 3584 
Q 2172 3584 2448 3432 
Q 2725 3281 2906 2969 
z
M 947 1747 
Q 947 1113 1208 752 
Q 1469 391 1925 391 
Q 2381 391 2643 752 
Q 2906 1113 2906 1747 
Q 2906 2381 2643 2742 
Q 2381 3103 1925 3103 
Q 1469 3103 1208 2742 
Q 947 2381 947 1747 
z
" transform="scale(0.015625)"/>
       <path id="DejaVuSans-65" d="M 3597 1894 
L 3597 1613 
L 953 1613 
Q 991 1019 1311 708 
Q 1631 397 2203 397 
Q 2534 397 2845 478 
Q 3156 559 3463 722 
L 3463 178 
Q 3153 47 2828 -22 
Q 2503 -91 2169 -91 
Q 1331 -91 842 396 
Q 353 884 353 1716 
Q 353 2575 817 3079 
Q 1281 3584 2069 3584 
Q 2775 3584 3186 3129 
Q 3597 2675 3597 1894 
z
M 3022 2063 
Q 3016 2534 2758 2815 
Q 2500 3097 2075 3097 
Q 1594 3097 1305 2825 
Q 1016 2553 972 2059 
L 3022 2063 
z
" transform="scale(0.015625)"/>
       <path id="DejaVuSans-78" d="M 3513 3500 
L 2247 1797 
L 3578 0 
L 2900 0 
L 1881 1375 
L 863 0 
L 184 0 
L 1544 1831 
L 300 3500 
L 978 3500 
L 1906 2253 
L 2834 3500 
L 3513 3500 
z
" transform="scale(0.015625)"/>
      </defs>
      <use xlink:href="#DejaVuSans-49"/>
      <use xlink:href="#DejaVuSans-6e" transform="translate(29.492188 0)"/>
      <use xlink:href="#DejaVuSans-64" transform="translate(92.871094 0)"/>
      <use xlink:href="#DejaVuSans-65" transform="translate(156.347656 0)"/>
      <use xlink:href="#DejaVuSans-78" transform="translate(216.121094 0)"/>
     </g>
    </g>
   </g>
   <g id="matplotlib.axis_2">
    <g id="ytick_1">
     <g id="line2d_10">
      <defs>
       <path id="m624188cbd2" d="M 0 0 
L -3.5 0 
" style="stroke: #000000; stroke-width: 0.8"/>
      </defs>
      <g>
       <use xlink:href="#m624188cbd2" x="90" y="384.48" style="stroke: #000000; stroke-width: 0.8"/>
      </g>
     </g>
     <g id="text_11">
      <!-- 0.0 -->
      <g transform="translate(67.096875 388.279219) scale(0.1 -0.1)">
       <defs>
        <path id="DejaVuSans-2e" d="M 684 794 
L 1344 794 
L 1344 0 
L 684 0 
L 684 794 
z
" transform="scale(0.015625)"/>
       </defs>
       <use xlink:href="#DejaVuSans-30"/>
       <use xlink:href="#DejaVuSans-2e" transform="translate(63.623047 0)"/>
       <use xlink:href="#DejaVuSans-30" transform="translate(95.410156 0)"/>
      </g>
     </g>
    </g>
    <g id="ytick_2">
     <g id="line2d_11">
      <g>
       <use xlink:href="#m624188cbd2" x="90" y="332.738147" style="stroke: #000000; stroke-width: 0.8"/>
      </g>
     </g>
     <g id="text_12">
      <!-- 0.5 -->
      <g transform="translate(67.096875 336.537365) scale(0.1 -0.1)">
       <defs>
        <path id="DejaVuSans-35" d="M 691 4666 
L 3169 4666 
L 3169 4134 
L 1269 4134 
L 1269 2991 
Q 1406 3038 1543 3061 
Q 1681 3084 1819 3084 
Q 2600 3084 3056 2656 
Q 3513 2228 3513 1497 
Q 3513 744 3044 326 
Q 2575 -91 1722 -91 
Q 1428 -91 1123 -41 
Q 819 9 494 109 
L 494 744 
Q 775 591 1075 516 
Q 1375 441 1709 441 
Q 2250 441 2565 725 
Q 2881 1009 2881 1497 
Q 2881 1984 2565 2268 
Q 2250 2553 1709 2553 
Q 1456 2553 1204 2497 
Q 953 2441 691 2322 
L 691 4666 
z
" transform="scale(0.015625)"/>
       </defs>
       <use xlink:href="#DejaVuSans-30"/>
       <use xlink:href="#DejaVuSans-2e" transform="translate(63.623047 0)"/>
       <use xlink:href="#DejaVuSans-35" transform="translate(95.410156 0)"/>
      </g>
     </g>
    </g>
    <g id="ytick_3">
     <g id="line2d_12">
      <g>
       <use xlink:href="#m624188cbd2" x="90" y="280.996293" style="stroke: #000000; stroke-width: 0.8"/>
      </g>
     </g>
     <g id="text_13">
      <!-- 1.0 -->
      <g transform="translate(67.096875 284.795512) scale(0.1 -0.1)">
       <use xlink:href="#DejaVuSans-31"/>
       <use xlink:href="#DejaVuSans-2e" transform="translate(63.623047 0)"/>
       <use xlink:href="#DejaVuSans-30" transform="translate(95.410156 0)"/>
      </g>
     </g>
    </g>
    <g id="ytick_4">
     <g id="line2d_13">
      <g>
       <use xlink:href="#m624188cbd2" x="90" y="229.25444" style="stroke: #000000; stroke-width: 0.8"/>
      </g>
     </g>
     <g id="text_14">
      <!-- 1.5 -->
      <g transform="translate(67.096875 233.053659) scale(0.1 -0.1)">
       <use xlink:href="#DejaVuSans-31"/>
       <use xlink:href="#DejaVuSans-2e" transform="translate(63.623047 0)"/>
       <use xlink:href="#DejaVuSans-35" transform="translate(95.410156 0)"/>
      </g>
     </g>
    </g>
    <g id="ytick_5">
     <g id="line2d_14">
      <g>
       <use xlink:href="#m624188cbd2" x="90" y="177.512587" style="stroke: #000000; stroke-width: 0.8"/>
      </g>
     </g>
     <g id="text_15">
      <!-- 2.0 -->
      <g transform="translate(67.096875 181.311806) scale(0.1 -0.1)">
       <use xlink:href="#DejaVuSans-32"/>
       <use xlink:href="#DejaVuSans-2e" transform="translate(63.623047 0)"/>
       <use xlink:href="#DejaVuSans-30" transform="translate(95.410156 0)"/>
      </g>
     </g>
    </g>
    <g id="ytick_6">
     <g id="line2d_15">
      <g>
       <use xlink:href="#m624188cbd2" x="90" y="125.770733" style="stroke: #000000; stroke-width: 0.8"/>
      </g>
     </g>
     <g id="text_16">
      <!-- 2.5 -->
      <g transform="translate(67.096875 129.569952) scale(0.1 -0.1)">
       <use xlink:href="#DejaVuSans-32"/>
       <use xlink:href="#DejaVuSans-2e" transform="translate(63.623047 0)"/>
       <use xlink:href="#DejaVuSans-35" transform="translate(95.410156 0)"/>
      </g>
     </g>
    </g>
    <g id="ytick_7">
     <g id="line2d_16">
      <g>
       <use xlink:href="#m624188cbd2" x="90" y="74.02888" style="stroke: #000000; stroke-width: 0.8"/>
      </g>
     </g>
     <g id="text_17">
      <!-- 3.0 -->
      <g transform="translate(67.096875 77.828099) scale(0.1 -0.1)">
       <defs>
        <path id="DejaVuSans-33" d="M 2597 2516 
Q 3050 2419 3304 2112 
Q 3559 1806 3559 1356 
Q 3559 666 3084 287 
Q 2609 -91 1734 -91 
Q 1441 -91 1130 -33 
Q 819 25 488 141 
L 488 750 
Q 750 597 1062 519 
Q 1375 441 1716 441 
Q 2309 441 2620 675 
Q 2931 909 2931 1356 
Q 2931 1769 2642 2001 
Q 2353 2234 1838 2234 
L 1294 2234 
L 1294 2753 
L 1863 2753 
Q 2328 2753 2575 2939 
Q 2822 3125 2822 3475 
Q 2822 3834 2567 4026 
Q 2313 4219 1838 4219 
Q 1578 4219 1281 4162 
Q 984 4106 628 3988 
L 628 4550 
Q 988 4650 1302 4700 
Q 1616 4750 1894 4750 
Q 2613 4750 3031 4423 
Q 3450 4097 3450 3541 
Q 3450 3153 3228 2886 
Q 3006 2619 2597 2516 
z
" transform="scale(0.015625)"/>
       </defs>
       <use xlink:href="#DejaVuSans-33"/>
       <use xlink:href="#DejaVuSans-2e" transform="translate(63.623047 0)"/>
       <use xlink:href="#DejaVuSans-30" transform="translate(95.410156 0)"/>
      </g>
     </g>
    </g>
    <g id="text_18">
     <!-- Average time (ms) -->
     <g transform="translate(61.017187 264.543594) rotate(-90) scale(0.1 -0.1)">
      <defs>
       <path id="DejaVuSans-41" d="M 2188 4044 
L 1331 1722 
L 3047 1722 
L 2188 4044 
z
M 1831 4666 
L 2547 4666 
L 4325 0 
L 3669 0 
L 3244 1197 
L 1141 1197 
L 716 0 
L 50 0 
L 1831 4666 
z
" transform="scale(0.015625)"/>
       <path id="DejaVuSans-76" d="M 191 3500 
L 800 3500 
L 1894 563 
L 2988 3500 
L 3597 3500 
L 2284 0 
L 1503 0 
L 191 3500 
z
" transform="scale(0.015625)"/>
       <path id="DejaVuSans-72" d="M 2631 2963 
Q 2534 3019 2420 3045 
Q 2306 3072 2169 3072 
Q 1681 3072 1420 2755 
Q 1159 2438 1159 1844 
L 1159 0 
L 581 0 
L 581 3500 
L 1159 3500 
L 1159 2956 
Q 1341 3275 1631 3429 
Q 1922 3584 2338 3584 
Q 2397 3584 2469 3576 
Q 2541 3569 2628 3553 
L 2631 2963 
z
" transform="scale(0.015625)"/>
       <path id="DejaVuSans-61" d="M 2194 1759 
Q 1497 1759 1228 1600 
Q 959 1441 959 1056 
Q 959 750 1161 570 
Q 1363 391 1709 391 
Q 2188 391 2477 730 
Q 2766 1069 2766 1631 
L 2766 1759 
L 2194 1759 
z
M 3341 1997 
L 3341 0 
L 2766 0 
L 2766 531 
Q 2569 213 2275 61 
Q 1981 -91 1556 -91 
Q 1019 -91 701 211 
Q 384 513 384 1019 
Q 384 1609 779 1909 
Q 1175 2209 1959 2209 
L 2766 2209 
L 2766 2266 
Q 2766 2663 2505 2880 
Q 2244 3097 1772 3097 
Q 1472 3097 1187 3025 
Q 903 2953 641 2809 
L 641 3341 
Q 956 3463 1253 3523 
Q 1550 3584 1831 3584 
Q 2591 3584 2966 3190 
Q 3341 2797 3341 1997 
z
" transform="scale(0.015625)"/>
       <path id="DejaVuSans-67" d="M 2906 1791 
Q 2906 2416 2648 2759 
Q 2391 3103 1925 3103 
Q 1463 3103 1205 2759 
Q 947 2416 947 1791 
Q 947 1169 1205 825 
Q 1463 481 1925 481 
Q 2391 481 2648 825 
Q 2906 1169 2906 1791 
z
M 3481 434 
Q 3481 -459 3084 -895 
Q 2688 -1331 1869 -1331 
Q 1566 -1331 1297 -1286 
Q 1028 -1241 775 -1147 
L 775 -588 
Q 1028 -725 1275 -790 
Q 1522 -856 1778 -856 
Q 2344 -856 2625 -561 
Q 2906 -266 2906 331 
L 2906 616 
Q 2728 306 2450 153 
Q 2172 0 1784 0 
Q 1141 0 747 490 
Q 353 981 353 1791 
Q 353 2603 747 3093 
Q 1141 3584 1784 3584 
Q 2172 3584 2450 3431 
Q 2728 3278 2906 2969 
L 2906 3500 
L 3481 3500 
L 3481 434 
z
" transform="scale(0.015625)"/>
       <path id="DejaVuSans-20" transform="scale(0.015625)"/>
       <path id="DejaVuSans-74" d="M 1172 4494 
L 1172 3500 
L 2356 3500 
L 2356 3053 
L 1172 3053 
L 1172 1153 
Q 1172 725 1289 603 
Q 1406 481 1766 481 
L 2356 481 
L 2356 0 
L 1766 0 
Q 1100 0 847 248 
Q 594 497 594 1153 
L 594 3053 
L 172 3053 
L 172 3500 
L 594 3500 
L 594 4494 
L 1172 4494 
z
" transform="scale(0.015625)"/>
       <path id="DejaVuSans-69" d="M 603 3500 
L 1178 3500 
L 1178 0 
L 603 0 
L 603 3500 
z
M 603 4863 
L 1178 4863 
L 1178 4134 
L 603 4134 
L 603 4863 
z
" transform="scale(0.015625)"/>
       <path id="DejaVuSans-6d" d="M 3328 2828 
Q 3544 3216 3844 3400 
Q 4144 3584 4550 3584 
Q 5097 3584 5394 3201 
Q 5691 2819 5691 2113 
L 5691 0 
L 5113 0 
L 5113 2094 
Q 5113 2597 4934 2840 
Q 4756 3084 4391 3084 
Q 3944 3084 3684 2787 
Q 3425 2491 3425 1978 
L 3425 0 
L 2847 0 
L 2847 2094 
Q 2847 2600 2669 2842 
Q 2491 3084 2119 3084 
Q 1678 3084 1418 2786 
Q 1159 2488 1159 1978 
L 1159 0 
L 581 0 
L 581 3500 
L 1159 3500 
L 1159 2956 
Q 1356 3278 1631 3431 
Q 1906 3584 2284 3584 
Q 2666 3584 2933 3390 
Q 3200 3197 3328 2828 
z
" transform="scale(0.015625)"/>
       <path id="DejaVuSans-28" d="M 1984 4856 
Q 1566 4138 1362 3434 
Q 1159 2731 1159 2009 
Q 1159 1288 1364 580 
Q 1569 -128 1984 -844 
L 1484 -844 
Q 1016 -109 783 600 
Q 550 1309 550 2009 
Q 550 2706 781 3412 
Q 1013 4119 1484 4856 
L 1984 4856 
z
" transform="scale(0.015625)"/>
       <path id="DejaVuSans-73" d="M 2834 3397 
L 2834 2853 
Q 2591 2978 2328 3040 
Q 2066 3103 1784 3103 
Q 1356 3103 1142 2972 
Q 928 2841 928 2578 
Q 928 2378 1081 2264 
Q 1234 2150 1697 2047 
L 1894 2003 
Q 2506 1872 2764 1633 
Q 3022 1394 3022 966 
Q 3022 478 2636 193 
Q 2250 -91 1575 -91 
Q 1294 -91 989 -36 
Q 684 19 347 128 
L 347 722 
Q 666 556 975 473 
Q 1284 391 1588 391 
Q 1994 391 2212 530 
Q 2431 669 2431 922 
Q 2431 1156 2273 1281 
Q 2116 1406 1581 1522 
L 1381 1569 
Q 847 1681 609 1914 
Q 372 2147 372 2553 
Q 372 3047 722 3315 
Q 1072 3584 1716 3584 
Q 2034 3584 2315 3537 
Q 2597 3491 2834 3397 
z
" transform="scale(0.015625)"/>
       <path id="DejaVuSans-29" d="M 513 4856 
L 1013 4856 
Q 1481 4119 1714 3412 
Q 1947 2706 1947 2009 
Q 1947 1309 1714 600 
Q 1481 -109 1013 -844 
L 513 -844 
Q 928 -128 1133 580 
Q 1338 1288 1338 2009 
Q 1338 2731 1133 3434 
Q 928 4138 513 4856 
z
" transform="scale(0.015625)"/>
      </defs>
      <use xlink:href="#DejaVuSans-41"/>
      <use xlink:href="#DejaVuSans-76" transform="translate(62.533203 0)"/>
      <use xlink:href="#DejaVuSans-65" transform="translate(121.712891 0)"/>
      <use xlink:href="#DejaVuSans-72" transform="translate(183.236328 0)"/>
      <use xlink:href="#DejaVuSans-61" transform="translate(224.349609 0)"/>
      <use xlink:href="#DejaVuSans-67" transform="translate(285.628906 0)"/>
      <use xlink:href="#DejaVuSans-65" transform="translate(349.105469 0)"/>
      <use xlink:href="#DejaVuSans-20" transform="translate(410.628906 0)"/>
      <use xlink:href="#DejaVuSans-74" transform="translate(442.416016 0)"/>
      <use xlink:href="#DejaVuSans-69" transform="translate(481.625 0)"/>
      <use xlink:href="#DejaVuSans-6d" transform="translate(509.408203 0)"/>
      <use xlink:href="#DejaVuSans-65" transform="translate(606.820312 0)"/>
      <use xlink:href="#DejaVuSans-20" transform="translate(668.34375 0)"/>
      <use xlink:href="#DejaVuSans-28" transform="translate(700.130859 0)"/>
      <use xlink:href="#DejaVuSans-6d" transform="translate(739.144531 0)"/>
      <use xlink:href="#DejaVuSans-73" transform="translate(836.556641 0)"/>
      <use xlink:href="#DejaVuSans-29" transform="translate(888.65625 0)"/>
     </g>
    </g>
   </g>
   <g id="line2d_17">
    <path d="M 115.363636 288.430956 
L 115.68902 317.273852 
L 116.014403 67.631331 
L 116.339787 203.077947 
L 116.66517 144.878338 
L 116.990553 184.518879 
L 117.315937 175.530356 
L 117.64132 229.278779 
L 117.966704 224.030665 
L 118.292087 273.653793 
L 118.61747 216.247376 
L 118.942854 249.124274 
L 119.268237 248.737142 
L 119.593621 290.429692 
L 119.919004 239.523387 
L 120.244387 274.710527 
L 120.569771 267.733615 
L 120.895154 274.421156 
L 121.220538 266.235429 
L 121.545921 229.761086 
L 121.871304 296.966013 
L 122.196688 318.851399 
L 122.522071 290.929198 
L 122.847455 312.87625 
L 123.172838 258.963453 
L 123.498221 307.843196 
L 123.823605 290.899808 
L 124.148988 311.01018 
L 124.474372 276.640323 
L 125.125138 303.77819 
L 125.775905 309.765064 
L 126.101289 321.263252 
L 126.752056 179.833126 
L 127.077439 308.063161 
L 127.402822 319.78298 
L 127.728206 308.552721 
L 128.053589 312.15145 
L 128.378973 314.277367 
L 128.704356 298.989275 
L 129.029739 305.721128 
L 129.355123 297.411562 
L 129.680506 311.975497 
L 130.00589 294.861868 
L 130.331273 311.3818 
L 130.656656 292.016408 
L 130.98204 303.270375 
L 131.307423 163.262394 
L 131.632807 279.128609 
L 131.95819 279.227953 
L 132.283573 297.600523 
L 132.608957 279.629046 
L 132.93434 300.416646 
L 133.259724 278.344037 
L 133.585107 298.650893 
L 133.91049 247.698393 
L 134.235874 278.010147 
L 134.561257 263.623252 
L 134.886641 279.042593 
L 135.212024 216.877696 
L 135.537407 285.944201 
L 135.862791 266.568026 
L 136.188174 288.917433 
L 136.513558 199.71099 
L 136.838941 259.147075 
L 137.164324 266.637163 
L 137.489708 284.73726 
L 137.815091 273.764728 
L 138.140475 279.848587 
L 138.791241 271.91535 
L 139.116625 245.23427 
L 139.442008 291.184088 
L 139.767392 230.501098 
L 140.092775 284.695836 
L 140.418158 271.621249 
L 140.743542 289.952498 
L 141.068925 374.494433 
L 141.394309 381.904146 
L 141.719692 375.444775 
L 142.045076 381.670966 
L 142.370459 380.217009 
L 142.695842 373.06792 
L 143.021226 284.394409 
L 143.671993 275.649435 
L 143.997376 293.949132 
L 144.322759 284.262757 
L 144.648143 298.010836 
L 144.973526 270.414143 
L 145.29891 293.461506 
L 145.624293 379.930753 
L 145.949676 383.457954 
L 146.27506 379.840836 
L 146.600443 382.619653 
L 146.925827 378.959765 
L 147.25121 383.457581 
L 147.576593 372.68532 
L 147.901977 302.70228 
L 148.22736 304.653942 
L 148.552744 313.975899 
L 148.878127 311.672103 
L 149.20351 311.030825 
L 149.528894 312.39621 
L 149.854277 311.704794 
L 150.179661 312.365661 
L 150.505044 312.292136 
L 150.830427 305.575071 
L 151.155811 314.284084 
L 151.481194 307.313918 
L 151.806578 316.237463 
L 152.131961 313.623112 
L 152.457344 313.14241 
L 152.782728 310.243697 
L 153.108111 293.506563 
L 153.433495 314.781851 
L 153.758878 268.479815 
L 154.084261 311.950391 
L 154.409645 310.912481 
L 154.735028 308.268896 
L 155.060412 306.88208 
L 155.385795 300.696011 
L 155.711178 313.203269 
L 156.036562 314.660868 
L 156.361945 313.788179 
L 156.687329 313.381581 
L 157.012712 310.64481 
L 157.338096 310.755734 
L 157.663479 310.211006 
L 157.988862 310.19092 
L 158.314246 313.780842 
L 158.639629 290.51072 
L 158.965013 314.451117 
L 159.290396 312.7503 
L 159.615779 309.77979 
L 159.941163 313.618352 
L 160.266546 311.603928 
L 160.59193 308.644729 
L 160.917313 212.16095 
L 161.242696 288.98298 
L 161.56808 269.154208 
L 161.893463 302.379484 
L 162.218847 307.662761 
L 162.54423 309.652691 
L 162.869613 308.182788 
L 163.845764 313.389674 
L 164.171147 312.988571 
L 164.49653 302.836695 
L 165.147297 310.625872 
L 165.472681 303.953109 
L 165.798064 287.678712 
L 166.123447 307.205394 
L 166.448831 305.963766 
L 166.774214 308.367082 
L 167.099598 305.359907 
L 167.424981 292.67859 
L 167.750364 312.848433 
L 168.075748 308.815684 
L 168.401131 313.662136 
L 168.726515 284.858595 
L 169.051898 283.242211 
L 169.377281 258.183672 
L 169.702665 305.906281 
L 170.028048 305.451356 
L 170.353432 306.603399 
L 170.678815 270.020791 
L 171.004198 256.851599 
L 172.305732 243.081353 
L 172.631116 243.752083 
L 172.956499 242.845742 
L 173.281882 241.234262 
L 173.607266 236.684405 
L 173.932649 236.142533 
L 174.258033 236.905239 
L 174.583416 236.21106 
L 174.908799 235.825366 
L 175.234183 246.43049 
L 175.559566 223.193368 
L 175.88495 241.435217 
L 176.210333 243.010788 
L 176.535716 242.638443 
L 176.8611 241.161907 
L 177.186483 240.306334 
L 177.511867 240.722753 
L 177.83725 245.671085 
L 178.162633 243.697133 
L 178.488017 239.516526 
L 178.8134 240.569255 
L 179.464167 247.947499 
L 179.78955 242.924814 
L 180.440317 237.768076 
L 180.765701 240.805084 
L 181.091084 236.522939 
L 181.416467 241.59541 
L 181.741851 243.062851 
L 182.067234 242.128889 
L 182.392618 234.541588 
L 182.718001 223.125266 
L 183.043384 242.829288 
L 183.368768 243.673322 
L 183.694151 245.117778 
L 184.019535 241.949552 
L 184.344918 242.628084 
L 184.670301 246.095378 
L 184.995685 247.180209 
L 185.321068 245.037754 
L 185.646452 243.637775 
L 185.971835 237.190626 
L 186.297218 243.724743 
L 186.622602 234.985057 
L 186.947985 251.589318 
L 187.273369 252.360468 
L 187.598752 251.438542 
L 188.249519 245.986296 
L 188.574902 245.529219 
L 188.900286 227.747883 
L 189.225669 244.846827 
L 189.551053 243.027935 
L 189.876436 242.617736 
L 190.201819 242.469154 
L 190.527203 275.854136 
L 190.852586 294.390779 
L 191.17797 251.643688 
L 191.503353 307.443862 
L 191.828736 308.059518 
L 192.15412 277.820503 
L 192.479503 300.281962 
L 192.804887 303.541026 
L 193.13027 305.58961 
L 193.455653 305.491932 
L 193.781037 307.476273 
L 194.10642 302.716882 
L 194.431804 307.26112 
L 194.757187 300.433659 
L 195.08257 300.967034 
L 195.407954 300.278971 
L 195.733337 301.822741 
L 196.058721 303.916537 
L 196.384104 304.465539 
L 196.709487 304.46082 
L 197.034871 304.714831 
L 197.360254 311.145164 
L 197.685638 311.319638 
L 198.011021 310.244742 
L 198.336404 306.316821 
L 198.661788 305.295934 
L 198.987171 305.833987 
L 199.312555 302.579228 
L 199.637938 306.670115 
L 199.963321 303.370278 
L 200.288705 306.152882 
L 200.614088 304.654211 
L 200.939472 305.171846 
L 201.264855 301.778326 
L 201.590238 306.66196 
L 201.915622 304.166678 
L 202.241005 302.842666 
L 202.566389 304.384222 
L 202.891772 304.829709 
L 203.217156 305.532591 
L 203.542539 304.027731 
L 203.867922 312.993093 
L 204.193306 252.504321 
L 204.518689 311.824038 
L 204.844073 311.778453 
L 205.169456 309.64344 
L 205.494839 309.379887 
L 205.820223 308.8735 
L 206.145606 301.603687 
L 206.47099 305.108721 
L 206.796373 297.868422 
L 207.121756 298.916557 
L 207.44714 295.936174 
L 207.772523 297.438675 
L 208.097907 270.413698 
L 208.42329 296.005073 
L 208.748673 298.715488 
L 209.074057 300.187875 
L 209.39944 295.480214 
L 209.724824 294.638023 
L 210.050207 293.091345 
L 210.37559 301.440659 
L 211.026357 298.467841 
L 211.351741 300.597349 
L 211.677124 164.663067 
L 212.002507 269.636421 
L 212.327891 292.661142 
L 212.653274 240.470956 
L 212.978658 289.73571 
L 213.304041 293.209213 
L 213.629424 289.302548 
L 213.954808 288.663712 
L 214.280191 286.59202 
L 214.605575 292.408125 
L 214.930958 287.472107 
L 215.256341 287.536329 
L 215.581725 291.0769 
L 215.907108 292.361785 
L 216.232492 288.484064 
L 216.557875 292.547434 
L 216.883258 298.717237 
L 217.208642 298.929068 
L 217.859409 297.426691 
L 218.184792 297.408354 
L 218.510176 296.173234 
L 218.835559 293.87453 
L 219.160942 294.741527 
L 219.486326 292.206145 
L 219.811709 292.322575 
L 220.137093 289.674054 
L 220.462476 289.738814 
L 220.787859 288.055631 
L 221.438626 290.01999 
L 221.76401 287.846584 
L 222.74016 291.622466 
L 223.065543 292.18699 
L 223.390927 285.268049 
L 223.71631 284.007369 
L 224.041693 285.998023 
L 224.367077 284.885252 
L 224.69246 300.59886 
L 225.017844 299.413692 
L 225.343227 280.671696 
L 225.66861 306.247001 
L 226.319377 303.712592 
L 226.644761 303.513085 
L 226.970144 300.444121 
L 227.620911 300.689274 
L 227.946294 301.106023 
L 228.271678 300.691043 
L 228.597061 298.252088 
L 228.922444 297.515594 
L 229.247828 298.864639 
L 229.573211 307.250058 
L 229.898595 307.687898 
L 230.223978 305.245123 
L 230.549361 305.801659 
L 230.874745 305.838695 
L 231.200128 298.99717 
L 231.525512 301.392684 
L 231.850895 298.279811 
L 232.176279 300.001697 
L 232.501662 312.413678 
L 232.827045 311.329562 
L 233.152429 307.925362 
L 233.477812 311.504273 
L 233.803196 292.180636 
L 234.128579 308.496643 
L 234.453962 309.827247 
L 234.779346 308.725539 
L 235.104729 309.597948 
L 235.755496 305.119711 
L 236.080879 308.181846 
L 236.406263 303.649146 
L 236.731646 303.659008 
L 237.05703 300.514252 
L 237.382413 304.111345 
L 238.03318 306.22885 
L 238.358563 299.787807 
L 238.683947 305.58693 
L 239.00933 299.846575 
L 239.334713 298.265323 
L 239.660097 298.699644 
L 239.98548 296.476669 
L 240.310864 309.941804 
L 240.636247 311.339817 
L 240.96163 312.142737 
L 241.287014 310.98195 
L 241.612397 307.35291 
L 241.937781 311.751372 
L 242.263164 309.634881 
L 242.588547 306.21758 
L 242.913931 306.824823 
L 243.239314 306.416983 
L 243.564698 305.507765 
L 243.890081 303.818145 
L 244.215464 300.762633 
L 244.540848 303.584272 
L 244.866231 301.837053 
L 245.191615 302.589576 
L 245.516998 303.82096 
L 245.842381 302.735374 
L 246.167765 302.079608 
L 246.493148 277.70041 
L 246.818532 298.357796 
L 247.143915 294.625822 
L 247.794682 300.715021 
L 248.120065 314.526049 
L 248.445449 311.523811 
L 248.770832 313.228405 
L 249.096216 311.596746 
L 249.421599 309.202019 
L 249.746982 310.555069 
L 250.072366 308.756605 
L 250.397749 282.770087 
L 250.723133 306.967651 
L 251.048516 306.122789 
L 251.373899 306.008222 
L 251.699283 305.422091 
L 252.024666 303.450157 
L 252.35005 302.686002 
L 252.675433 303.919073 
L 253.000816 303.44964 
L 253.3262 305.537661 
L 253.651583 306.85444 
L 253.976967 301.82241 
L 254.30235 304.392086 
L 254.953117 292.552381 
L 255.2785 297.304239 
L 255.603884 292.327107 
L 255.929267 261.799497 
L 256.25465 256.199248 
L 256.580034 253.472494 
L 256.905417 238.711744 
L 257.230801 254.559932 
L 257.556184 259.524459 
L 257.881567 254.184689 
L 258.206951 253.881617 
L 258.532334 252.800357 
L 258.857718 252.197885 
L 259.183101 249.980881 
L 259.508484 252.535252 
L 259.833868 248.545262 
L 260.159251 248.609329 
L 260.810018 242.800033 
L 261.135401 240.770231 
L 261.460785 246.958826 
L 261.786168 247.039533 
L 262.111552 244.944443 
L 262.436935 252.823734 
L 263.087702 243.031536 
L 263.413085 248.329892 
L 263.738469 238.459647 
L 264.063852 254.136083 
L 264.389236 263.14495 
L 264.714619 275.748252 
L 265.040002 274.076027 
L 265.365386 276.931133 
L 265.690769 281.664767 
L 266.341536 314.645469 
L 266.666919 313.360264 
L 266.992303 312.927195 
L 267.317686 292.496707 
L 267.64307 310.72354 
L 268.293836 310.303593 
L 268.61922 310.124784 
L 269.920753 306.15341 
L 270.246137 305.840889 
L 270.896904 303.746348 
L 271.222287 304.629581 
L 271.54767 307.561647 
L 271.873054 306.753988 
L 272.198437 303.799963 
L 272.523821 307.667646 
L 272.849204 301.325605 
L 273.174587 303.626483 
L 273.499971 302.250025 
L 273.825354 300.302234 
L 274.476121 298.812545 
L 274.801504 302.689562 
L 275.126888 298.086089 
L 275.452271 315.086103 
L 275.777655 314.167654 
L 276.103038 315.787422 
L 276.428421 312.603901 
L 277.079188 293.464269 
L 277.404572 290.46617 
L 277.729955 292.161896 
L 278.055339 289.44402 
L 278.706105 291.032009 
L 279.356872 286.292734 
L 279.682256 288.138045 
L 280.007639 285.093503 
L 280.333022 265.042728 
L 280.658406 285.640104 
L 280.983789 287.571069 
L 281.309173 285.833598 
L 281.634556 270.168462 
L 281.959939 281.857309 
L 282.285323 282.972874 
L 282.610706 283.640478 
L 282.93609 283.943282 
L 283.261473 276.223842 
L 283.586856 282.134438 
L 283.91224 281.654667 
L 284.237623 281.561946 
L 284.563007 297.913334 
L 285.213773 313.838079 
L 285.539157 315.621942 
L 285.86454 311.548337 
L 286.515307 309.524371 
L 286.84069 309.748517 
L 287.166074 311.31941 
L 287.491457 309.9919 
L 287.816841 307.666094 
L 288.142224 308.399038 
L 288.467607 303.639884 
L 288.792991 303.92227 
L 289.118374 301.447188 
L 289.443758 303.17934 
L 289.769141 303.317791 
L 290.094524 303.601968 
L 290.419908 295.374765 
L 290.745291 298.843911 
L 291.070675 291.164033 
L 291.396058 293.58579 
L 291.721441 292.773132 
L 292.046825 293.090538 
L 292.697592 284.571562 
L 293.022975 288.944359 
L 293.348359 290.454104 
L 293.673742 287.352439 
L 293.999125 276.937021 
L 294.324509 277.141091 
L 294.649892 278.344927 
L 294.975276 276.009144 
L 295.300659 276.777035 
L 295.626042 256.822489 
L 295.951426 269.382141 
L 296.276809 260.679544 
L 296.602193 274.438251 
L 296.927576 266.070518 
L 297.252959 268.449422 
L 297.578343 262.849629 
L 297.903726 245.16476 
L 298.554493 278.91804 
L 298.879876 295.873525 
L 299.20526 294.684508 
L 299.856027 303.626711 
L 300.18141 301.320845 
L 300.506793 302.133089 
L 300.832177 299.019212 
L 301.15756 297.973489 
L 301.482944 294.469324 
L 301.808327 295.225262 
L 302.13371 296.881622 
L 302.459094 295.220884 
L 302.784477 289.059444 
L 303.109861 229.068552 
L 303.435244 292.245666 
L 303.760627 291.991282 
L 304.086011 304.579506 
L 304.411394 307.092152 
L 304.736778 303.124287 
L 305.062161 305.190484 
L 305.387544 301.329724 
L 305.712928 303.530243 
L 306.038311 300.615076 
L 306.363695 302.645582 
L 307.014461 297.927335 
L 307.339845 300.529805 
L 307.665228 299.411426 
L 307.990612 297.285343 
L 308.315995 298.931448 
L 308.641379 299.432133 
L 309.292145 296.070092 
L 309.617529 296.880577 
L 309.942912 277.793162 
L 310.268296 289.10538 
L 310.593679 269.657335 
L 310.919062 281.885291 
L 311.244446 275.676889 
L 311.569829 280.99323 
L 311.895213 269.721775 
L 312.220596 276.972329 
L 312.545979 291.69802 
L 312.871363 292.687034 
L 313.196746 314.343369 
L 313.52213 312.484481 
L 313.847513 312.647572 
L 314.172896 308.762534 
L 314.49828 310.923171 
L 314.823663 311.528147 
L 315.149047 310.869897 
L 315.47443 309.266169 
L 315.799813 309.767661 
L 316.45058 303.421699 
L 316.775964 304.625763 
L 317.101347 302.241157 
L 317.752114 304.123753 
L 318.077497 298.219087 
L 318.402881 306.140495 
L 318.728264 303.349954 
L 319.053647 306.262616 
L 319.704414 302.300029 
L 320.355181 298.665702 
L 320.680564 301.61745 
L 321.005948 302.034676 
L 321.656715 300.333476 
L 321.982098 297.574538 
L 322.632865 299.585796 
L 322.958248 299.82 
L 323.283632 301.006648 
L 323.609015 292.693253 
L 323.934399 298.674715 
L 324.259782 264.428417 
L 324.585165 283.663803 
L 324.910549 214.159489 
L 325.235932 289.830108 
L 325.561316 236.763197 
L 325.886699 287.571151 
L 326.212082 272.155008 
L 326.537466 284.199011 
L 327.188233 296.25003 
L 327.513616 311.319493 
L 327.838999 314.581827 
L 328.164383 313.802139 
L 328.489766 310.188095 
L 328.81515 311.022236 
L 329.140533 308.824594 
L 329.465916 310.362568 
L 330.442067 306.205255 
L 330.76745 307.870039 
L 331.092833 307.477308 
L 331.418217 304.208289 
L 332.068984 305.592208 
L 332.394367 300.610388 
L 332.71975 304.278875 
L 333.045134 304.538299 
L 333.370517 302.955298 
L 333.695901 306.093493 
L 334.021284 299.527121 
L 334.346667 301.426895 
L 334.672051 300.129096 
L 334.997434 297.642858 
L 335.322818 299.152189 
L 336.298968 295.198428 
L 336.624351 296.460009 
L 336.949735 295.069777 
L 337.600501 295.910914 
L 337.925885 294.777343 
L 338.251268 294.08781 
L 338.576652 281.414906 
L 338.902035 287.639482 
L 339.227419 261.091906 
L 339.552802 281.785181 
L 339.878185 266.112584 
L 340.203569 286.906807 
L 340.528952 267.809106 
L 340.854336 284.544212 
L 341.179719 294.56577 
L 341.505102 290.0301 
L 341.830486 310.044667 
L 342.155869 313.75078 
L 342.806636 311.153484 
L 343.132019 310.116194 
L 343.457403 309.638379 
L 343.782786 311.31733 
L 344.10817 309.091261 
L 344.433553 311.232463 
L 344.758936 310.1018 
L 345.409703 305.82813 
L 345.735087 306.35242 
L 346.06047 300.027123 
L 346.385853 248.406501 
L 346.711237 304.55825 
L 347.03662 303.785103 
L 347.362004 306.428046 
L 347.687387 302.844229 
L 348.01277 305.946795 
L 348.338154 298.781479 
L 348.663537 298.984618 
L 348.988921 300.546642 
L 349.314304 301.296175 
L 349.639687 297.050869 
L 349.965071 249.395112 
L 350.290454 293.483962 
L 351.266604 298.956791 
L 351.591988 294.708712 
L 351.917371 295.915984 
L 352.242755 292.044969 
L 352.568138 291.727999 
L 352.893521 290.337902 
L 353.218905 296.5165 
L 353.544288 313.036639 
L 353.869672 311.258023 
L 354.195055 312.762314 
L 354.520439 312.03709 
L 354.845822 312.027042 
L 355.496589 310.126129 
L 355.821972 308.594094 
L 356.147356 308.197638 
L 356.472739 307.273228 
L 356.798122 306.919096 
L 357.123506 306.337187 
L 357.448889 301.338075 
L 357.774273 304.864479 
L 358.099656 302.747875 
L 358.425039 305.722483 
L 358.750423 305.19511 
L 359.075806 302.489363 
L 359.40119 308.269248 
L 359.726573 306.992653 
L 360.051956 301.995652 
L 360.37734 302.95208 
L 360.702723 298.975915 
L 361.028107 301.974717 
L 361.35349 301.033347 
L 361.678873 301.942927 
L 362.004257 299.778245 
L 362.32964 300.739225 
L 362.655024 298.027373 
L 362.980407 300.335432 
L 363.30579 295.100202 
L 363.956557 298.056741 
L 364.281941 297.658257 
L 364.607324 297.716487 
L 364.932707 297.898629 
L 365.258091 315.631245 
L 365.583474 314.752337 
L 365.908858 316.462747 
L 366.234241 313.660739 
L 366.559624 291.776119 
L 366.885008 312.14551 
L 367.210391 310.830201 
L 367.535775 312.031388 
L 367.861158 309.494133 
L 368.186541 308.158811 
L 368.511925 309.846764 
L 368.837308 309.339094 
L 369.488075 306.029613 
L 369.813459 306.470019 
L 370.138842 305.608765 
L 370.464225 291.198421 
L 370.789609 305.032723 
L 371.114992 306.389032 
L 371.440376 258.054359 
L 371.765759 300.10485 
L 372.091142 300.19219 
L 372.416526 300.81839 
L 372.741909 302.094282 
L 373.392676 299.42402 
L 373.718059 296.231092 
L 374.043443 296.034846 
L 374.368826 294.575498 
L 374.69421 297.801354 
L 375.344976 294.528713 
L 375.67036 294.625294 
L 375.995743 294.361173 
L 376.321127 292.531457 
L 376.64651 292.203806 
L 376.971893 313.300947 
L 377.297277 312.624143 
L 377.62266 311.58112 
L 377.948044 312.844066 
L 378.273427 311.160159 
L 378.59881 310.484803 
L 378.924194 307.355177 
L 379.249577 308.147583 
L 379.574961 309.977485 
L 379.900344 308.321932 
L 380.225727 304.964651 
L 380.551111 305.854839 
L 380.876494 304.925452 
L 381.201878 303.248622 
L 381.527261 302.26739 
L 382.178028 303.836534 
L 382.503411 300.792333 
L 382.828795 302.408231 
L 383.154178 307.588512 
L 383.479561 305.392763 
L 383.804945 305.382094 
L 384.130328 302.690431 
L 384.455712 282.630663 
L 384.781095 301.448492 
L 385.106479 301.848498 
L 385.431862 299.288239 
L 385.757245 300.097813 
L 386.082629 298.662566 
L 386.408012 298.986387 
L 386.733396 296.820898 
L 387.058779 299.531001 
L 387.384162 294.610962 
L 387.709546 299.489629 
L 388.034929 297.344805 
L 388.360313 300.169962 
L 388.685696 315.799499 
L 389.011079 315.067352 
L 389.336463 315.969109 
L 389.98723 313.109502 
L 390.312613 307.778249 
L 390.637996 311.352173 
L 390.96338 311.710558 
L 391.288763 291.475167 
L 391.614147 291.719503 
L 391.93953 309.470839 
L 392.91568 307.407022 
L 393.241064 307.361375 
L 393.566447 308.008583 
L 393.89183 309.702943 
L 394.217214 307.817118 
L 394.542597 307.199423 
L 394.867981 311.294864 
L 395.193364 305.577585 
L 395.844131 304.061539 
L 396.169514 304.354211 
L 396.494898 263.941195 
L 396.820281 304.13198 
L 397.145664 302.28997 
L 397.796431 300.458267 
L 398.447198 301.868357 
L 398.772581 300.194239 
L 399.097965 381.938916 
L 399.423348 382.676952 
L 399.748732 382.718149 
L 400.074115 383.032139 
L 400.399499 315.96083 
L 400.724882 311.985224 
L 401.050265 314.415477 
L 401.375649 314.720557 
L 401.701032 311.668999 
L 402.026416 301.083919 
L 402.351799 312.437158 
L 402.677182 291.534608 
L 403.002566 310.718449 
L 403.327949 312.320832 
L 403.653333 310.039989 
L 403.978716 309.162447 
L 404.304099 307.524662 
L 404.629483 307.850129 
L 404.954866 307.685807 
L 405.28025 308.007869 
L 405.605633 309.062275 
L 405.931016 308.310238 
L 406.2564 308.790423 
L 406.581783 308.50872 
L 406.907167 303.628635 
L 407.23255 305.720403 
L 407.557933 304.120607 
L 407.883317 304.481465 
L 408.2087 301.839992 
L 408.534084 302.213165 
L 408.859467 304.61737 
L 409.510234 301.328679 
L 409.835617 299.964226 
L 410.161001 301.090873 
L 410.486384 299.166025 
L 410.811767 382.538718 
L 411.137151 383.022711 
L 411.462534 382.941994 
L 411.787918 383.006765 
L 412.113301 317.588763 
L 412.438684 301.279338 
L 412.764068 314.913751 
L 413.089451 315.014782 
L 413.414835 314.636953 
L 414.065601 311.570244 
L 414.390985 313.52292 
L 414.716368 309.239977 
L 415.041752 310.335145 
L 415.367135 308.439686 
L 415.692519 309.456041 
L 416.017902 308.20572 
L 416.343285 308.957425 
L 416.668669 307.853461 
L 416.994052 307.293935 
L 417.970202 308.359383 
L 418.295586 308.310756 
L 418.620969 304.596777 
L 418.946353 302.70048 
L 419.271736 298.812338 
L 419.597119 285.448328 
L 419.922503 284.283981 
L 420.247886 302.672953 
L 420.57327 302.219674 
L 420.898653 302.097791 
L 421.224036 299.885899 
L 421.54942 301.873738 
L 421.874803 300.652941 
L 422.200187 297.40704 
L 422.52557 381.947505 
L 422.850953 382.919435 
L 423.50172 382.973153 
L 423.827104 316.291171 
L 424.152487 315.627385 
L 424.47787 312.585129 
L 424.803254 314.004967 
L 425.128637 312.708461 
L 425.454021 307.849787 
L 425.779404 293.818411 
L 426.104787 313.666338 
L 426.430171 310.659784 
L 426.755554 308.853911 
L 427.080938 308.340321 
L 427.406321 308.966739 
L 427.731704 308.684611 
L 428.057088 308.002726 
L 428.707855 308.159359 
L 429.033238 309.118146 
L 429.358621 305.324702 
L 429.684005 304.250169 
L 430.009388 305.308404 
L 430.334772 301.579917 
L 430.985539 300.54035 
L 431.310922 298.356047 
L 431.636305 297.885155 
L 431.961689 296.085025 
L 432.287072 298.388728 
L 432.612456 297.96995 
L 432.937839 296.159637 
L 433.263222 297.86957 
L 433.588606 297.631341 
L 433.913989 296.67006 
L 434.239373 381.935977 
L 434.564756 382.970556 
L 434.890139 382.935247 
L 435.215523 383.078065 
L 435.540906 315.723231 
L 436.191673 305.070257 
L 436.517056 310.764706 
L 436.84244 309.248628 
L 437.167823 310.12557 
L 437.493207 312.380739 
L 437.81859 312.142385 
L 438.143973 311.399299 
L 438.469357 311.241456 
L 438.79474 307.949277 
L 439.120124 310.807683 
L 439.445507 305.937098 
L 439.77089 307.924637 
L 440.096274 307.070566 
L 440.421657 307.074715 
L 440.747041 309.593053 
L 441.397807 305.635443 
L 441.723191 305.595933 
L 442.048574 300.298902 
L 442.373958 297.758098 
L 442.699341 300.38737 
L 443.350108 296.506876 
L 443.675491 300.406122 
L 444.000875 301.022253 
L 444.326258 301.208721 
L 444.651641 300.161683 
L 444.977025 298.253609 
L 445.302408 300.416346 
L 445.627792 295.533985 
L 445.953175 298.956687 
L 446.278559 298.707157 
L 446.603942 295.917847 
L 446.929325 296.99564 
L 447.254709 311.793148 
L 447.580092 289.39203 
L 447.905476 290.333132 
L 448.230859 313.760228 
L 448.556242 310.619901 
L 448.881626 309.917713 
L 449.207009 312.407013 
L 449.532393 307.224911 
L 449.857776 299.860866 
L 450.183159 289.596876 
L 450.508543 290.8357 
L 450.833926 291.596181 
L 451.484693 287.864507 
L 451.810076 288.619234 
L 452.13546 290.472255 
L 452.460843 290.664631 
L 452.786227 269.690026 
L 453.11161 289.373858 
L 453.436993 291.827705 
L 453.762377 285.409604 
L 454.08776 287.032384 
L 454.413144 285.730093 
L 454.738527 265.349288 
L 455.389294 256.20079 
L 456.040061 255.242303 
L 456.365444 231.895541 
L 456.690827 251.911918 
L 457.016211 250.875301 
L 457.341594 249.235881 
L 457.666978 251.804616 
L 457.992361 249.222232 
L 458.317744 240.61098 
L 458.643128 251.117008 
L 458.968511 282.233327 
L 459.293895 281.479552 
L 459.619278 281.321305 
L 460.270045 277.913845 
L 460.595428 279.102666 
L 460.920812 266.283032 
L 461.246195 262.923216 
L 461.571579 257.722104 
L 461.896962 255.994433 
L 462.222345 255.188264 
L 462.547729 254.838479 
L 462.873112 251.489881 
L 463.198496 251.418467 
L 463.523879 252.777559 
L 463.849262 274.749986 
L 464.174646 281.815926 
L 464.825413 280.213977 
L 465.150796 282.404541 
L 465.476179 270.807702 
L 465.801563 276.65986 
L 466.126946 275.540767 
L 466.45233 258.641246 
L 466.777713 274.511363 
L 467.103096 275.519035 
L 467.42848 282.105163 
L 467.753863 282.192596 
L 468.079247 280.463756 
L 468.40463 276.567211 
L 468.730013 270.16126 
L 469.055397 268.473088 
L 469.38078 269.9281 
L 469.706164 270.313494 
L 470.031547 288.761276 
L 470.35693 287.585649 
L 470.682314 308.451514 
L 471.007697 308.413732 
L 471.333081 307.409102 
L 471.658464 307.631261 
L 471.983847 304.671689 
L 472.309231 303.694679 
L 472.634614 304.554742 
L 472.959998 304.590754 
L 473.610764 300.11199 
L 473.936148 301.679085 
L 474.261531 300.533055 
L 474.586915 296.439001 
L 474.912298 299.074462 
L 475.237681 299.185697 
L 475.563065 298.56584 
L 475.888448 298.749316 
L 476.213832 296.964181 
L 476.539215 297.483876 
L 476.864599 299.013086 
L 477.189982 290.111863 
L 477.515365 305.316506 
L 477.840749 304.077361 
L 478.166132 303.937865 
L 478.491516 302.826326 
L 478.816899 300.27892 
L 479.142282 300.438305 
L 479.467666 300.333849 
L 479.793049 300.753723 
L 480.443816 296.949683 
L 480.769199 295.512563 
L 481.094583 297.817735 
L 481.419966 295.142195 
L 481.74535 298.179111 
L 482.070733 297.261914 
L 482.396116 314.71261 
L 482.7215 315.256096 
L 483.046883 313.490312 
L 483.372267 313.551802 
L 483.69765 277.241894 
L 484.023033 312.54208 
L 484.348417 312.662318 
L 484.6738 309.642715 
L 484.999184 308.710834 
L 485.324567 310.36381 
L 485.64995 307.574024 
L 485.975334 307.317705 
L 486.300717 306.395448 
L 486.626101 307.393228 
L 486.951484 306.040675 
L 487.276867 305.638134 
L 487.602251 308.112802 
L 487.927634 306.016905 
L 488.253018 306.380029 
L 488.578401 309.35441 
L 489.229168 301.203909 
L 489.554551 302.717037 
L 489.879935 302.165759 
L 490.205318 301.269083 
L 490.530701 281.840431 
L 490.856085 300.735076 
L 491.506852 299.079626 
L 491.832235 299.183203 
L 492.157619 299.06607 
L 492.483002 298.47434 
L 492.808385 299.217259 
L 493.133769 297.523914 
L 493.459152 299.327263 
L 493.784536 279.899904 
L 494.109919 314.571644 
L 494.435302 316.348594 
L 494.760686 316.689252 
L 495.086069 314.351555 
L 495.736836 312.333053 
L 496.062219 310.73214 
L 496.387603 311.957822 
L 496.712986 311.195726 
L 497.03837 309.155297 
L 497.363753 292.793488 
L 497.689136 306.267118 
L 498.01452 304.127975 
L 498.339903 306.049926 
L 498.665287 305.942904 
L 498.99067 307.945168 
L 499.316053 306.696482 
L 499.641437 304.587464 
L 500.292204 307.767787 
L 500.617587 301.691213 
L 500.94297 302.711966 
L 501.268354 303.167201 
L 501.593737 303.256518 
L 501.919121 301.220642 
L 502.244504 300.674134 
L 502.895271 302.061488 
L 503.220654 301.223529 
L 503.546038 297.99074 
L 503.871421 298.735636 
L 504.196804 297.854762 
L 504.522188 299.088402 
L 504.847571 299.614016 
L 505.172955 298.765864 
L 505.498338 298.729448 
L 505.823721 316.167591 
L 506.149105 315.144551 
L 506.799872 316.02468 
L 507.125255 313.162682 
L 507.450639 312.057704 
L 507.776022 312.496434 
L 508.101405 307.212483 
L 508.426789 308.493704 
L 508.752172 310.685965 
L 509.077556 309.20529 
L 509.402939 309.758741 
L 509.728322 289.031037 
L 510.053706 289.79633 
L 510.379089 305.95378 
L 510.704473 307.722658 
L 511.029856 308.258683 
L 511.355239 309.035866 
L 511.680623 306.761574 
L 512.006006 309.481995 
L 512.33139 305.41998 
L 512.656773 303.90681 
L 512.982156 304.556191 
L 513.30754 302.721911 
L 513.632923 302.302895 
L 513.958307 303.652944 
L 514.28369 302.520211 
L 514.609073 284.196206 
L 514.934457 299.445027 
L 515.25984 300.261193 
L 515.585224 300.635007 
L 515.910607 300.255305 
L 516.23599 297.932664 
L 516.886757 297.446395 
L 517.212141 298.814273 
L 517.537524 318.228841 
L 518.188291 315.159038 
L 518.513674 316.273247 
L 518.839058 312.488145 
L 519.164441 295.961507 
L 519.489824 313.087367 
L 520.140591 310.259178 
L 520.465975 310.381692 
L 521.116742 309.039095 
L 521.442125 307.961809 
L 521.767508 308.497026 
L 522.092892 289.507383 
L 522.418275 307.36687 
L 522.743659 308.864807 
L 523.069042 306.456804 
L 523.394425 306.732898 
L 523.719809 310.049209 
L 524.045192 304.893537 
L 524.370576 303.962484 
L 524.695959 303.955551 
L 525.021342 304.587857 
L 525.346726 303.63353 
L 525.672109 301.981878 
L 526.322876 301.825608 
L 526.648259 301.578706 
L 526.973643 300.125132 
L 527.299026 300.019175 
L 527.62441 299.176383 
L 527.949793 270.177475 
L 528.275176 287.133239 
L 528.60056 287.906056 
L 528.925943 289.145811 
L 529.251327 308.109087 
L 529.57671 306.039257 
L 529.902093 307.572296 
L 530.227477 306.413723 
L 530.878244 303.300168 
L 531.203627 303.425393 
L 531.854394 302.023065 
L 532.179777 301.776877 
L 532.505161 300.222945 
L 532.830544 306.861601 
L 533.155927 295.518359 
L 533.806694 299.111178 
L 534.132078 298.63267 
L 534.457461 299.550063 
L 534.782844 297.931981 
L 535.108228 299.083124 
L 535.433611 300.873951 
L 535.758995 294.496353 
L 536.084378 303.62669 
L 536.409762 304.167258 
L 536.735145 303.824447 
L 537.060528 302.490718 
L 537.385912 292.658545 
L 538.036679 291.395195 
L 538.362062 291.386078 
L 538.687445 292.16262 
L 539.338212 290.452324 
L 539.663596 286.855675 
L 539.988979 288.611225 
L 540.314362 298.763784 
L 540.639746 299.01379 
L 540.965129 315.526395 
L 541.290513 315.590959 
L 541.615896 316.294462 
L 541.941279 314.285191 
L 542.266663 313.972484 
L 542.592046 313.500971 
L 542.91743 313.324955 
L 543.242813 312.942976 
L 543.89358 310.374034 
L 544.218963 310.848321 
L 544.86973 307.752885 
L 545.195113 307.130307 
L 545.520497 307.23409 
L 545.84588 290.94382 
L 546.171264 308.513884 
L 546.496647 306.987065 
L 546.82203 307.737756 
L 547.147414 308.793818 
L 547.472797 304.903389 
L 547.798181 302.876288 
L 548.448947 300.792333 
L 548.774331 301.19147 
L 549.099714 301.902196 
L 549.425098 302.345737 
L 549.750481 301.158438 
L 550.401248 300.037368 
L 550.726631 299.042372 
L 551.052015 298.927702 
L 551.377398 299.017815 
L 552.028165 297.526387 
L 552.353548 297.868122 
L 552.678932 316.130874 
L 553.004315 316.539966 
L 553.329699 315.873831 
L 553.655082 297.166047 
L 553.980465 313.202834 
L 554.305849 312.228225 
L 554.631232 311.741303 
L 554.956616 312.208552 
L 555.281999 309.549911 
L 555.607382 310.588049 
L 555.932766 309.512864 
L 556.258149 309.134093 
L 556.583533 308.024427 
L 557.234299 306.980462 
L 557.559683 308.297624 
L 557.885066 308.871047 
L 558.21045 308.638002 
L 558.535833 306.880611 
L 558.861216 308.106675 
L 559.1866 305.158808 
L 559.511983 304.97262 
L 559.837367 303.948203 
L 560.16275 302.362398 
L 560.488133 302.983828 
L 560.813517 303.166581 
L 561.1389 301.910382 
L 561.464284 302.450225 
L 561.789667 300.729684 
L 562.11505 300.074136 
L 562.440434 300.206884 
L 563.091201 298.428279 
L 563.741967 299.328908 
L 564.067351 298.670534 
L 564.392734 316.699114 
L 564.718118 298.023347 
L 565.043501 314.960764 
L 565.368884 316.083055 
L 565.694268 312.833201 
L 566.019651 313.000337 
L 566.345035 313.750791 
L 566.995802 310.783344 
L 567.321185 310.863978 
L 567.646568 310.815103 
L 568.297335 306.20213 
L 568.622719 307.743437 
L 568.948102 308.366213 
L 569.273485 307.186912 
L 569.598869 307.716014 
L 569.924252 306.825537 
L 570.575019 309.535185 
L 570.900402 302.519073 
L 571.225786 303.949155 
L 571.551169 285.929237 
L 571.876553 285.815664 
L 572.201936 301.93024 
L 572.527319 303.238378 
L 572.852703 302.630225 
L 573.178086 301.255412 
L 573.828853 300.380447 
L 574.154236 300.224818 
L 574.47962 299.164058 
L 574.805003 297.689302 
L 575.130387 298.478148 
L 575.45577 298.139042 
L 575.781153 299.158874 
L 576.106537 316.145041 
L 576.43192 295.803477 
L 576.757304 315.465464 
L 577.082687 312.295065 
L 577.40807 310.399512 
L 577.733454 312.637409 
L 578.058837 312.558958 
L 578.384221 310.882791 
L 578.709604 309.918085 
L 579.034987 311.509706 
L 579.360371 308.178193 
L 579.685754 309.097346 
L 580.011138 307.871985 
L 580.336521 307.750919 
L 580.661904 306.715523 
L 580.987288 306.742833 
L 581.638055 308.571969 
L 581.963438 307.30775 
L 582.288822 308.974635 
L 582.614205 304.70945 
L 582.939588 304.623145 
L 583.264972 304.171532 
L 583.590355 303.155373 
L 583.915739 303.574824 
L 584.241122 302.594016 
L 584.566505 301.996977 
L 584.891889 300.58876 
L 585.217272 300.819022 
L 585.542656 300.837245 
L 585.868039 299.893753 
L 586.193422 299.711808 
L 586.518806 297.559626 
L 586.844189 297.625308 
L 587.169573 298.190266 
L 587.494956 298.231763 
L 587.820339 316.022724 
L 588.145723 312.763225 
L 588.79649 316.053789 
L 589.447256 311.691217 
L 589.77264 312.747092 
L 590.423407 309.452802 
L 591.074173 310.326349 
L 591.399557 309.509407 
L 591.72494 306.648455 
L 592.050324 307.954441 
L 592.375707 308.049356 
L 592.70109 305.705408 
L 593.026474 307.238954 
L 593.677241 308.139594 
L 594.002624 309.738034 
L 594.328007 302.859658 
L 594.653391 305.693497 
L 594.978774 304.923279 
L 595.304158 303.323783 
L 595.629541 302.578348 
L 595.954924 302.19609 
L 596.280308 302.185731 
L 597.256458 301.251066 
L 597.907225 298.213033 
L 598.557992 299.564747 
L 598.883375 299.090896 
L 599.208759 297.301414 
L 599.534142 315.782434 
L 599.859525 317.087478 
L 600.510292 314.665918 
L 600.835676 315.218417 
L 601.486442 311.906783 
L 601.811826 311.91412 
L 602.137209 311.589285 
L 602.462593 292.380536 
L 602.787976 290.377298 
L 603.113359 310.293741 
L 603.438743 306.457652 
L 603.764126 307.155526 
L 604.08951 306.124021 
L 604.740276 308.782548 
L 605.06566 308.182839 
L 605.391043 305.882873 
L 605.716427 309.387007 
L 606.04181 305.408814 
L 606.692577 303.696231 
L 607.01796 303.164418 
L 607.343344 303.808086 
L 607.668727 265.988869 
L 607.99411 300.870225 
L 608.319494 300.30418 
L 608.644877 300.553069 
L 608.970261 298.728185 
L 609.295644 298.983469 
L 609.621027 299.436873 
L 609.946411 293.113066 
L 610.271794 295.251381 
L 610.597178 293.897059 
L 610.922561 294.264529 
L 611.247944 312.297238 
L 611.573328 310.448895 
L 611.898711 311.058921 
L 612.549478 311.490882 
L 612.874862 313.598152 
L 613.200245 312.689131 
L 613.525628 311.276071 
L 613.851012 308.39405 
L 614.176395 310.18974 
L 614.501779 308.556426 
L 614.827162 309.195872 
L 615.152545 307.132273 
L 615.477929 307.051421 
L 616.454079 307.623179 
L 616.779462 308.1781 
L 617.104846 289.627766 
L 617.430229 307.301551 
L 617.755613 302.594916 
L 618.080996 304.15931 
L 618.406379 303.290451 
L 618.731763 303.785217 
L 619.057146 303.14547 
L 619.707913 300.996786 
L 620.033296 301.485757 
L 620.35868 297.134691 
L 620.684063 299.211257 
L 621.009447 299.327159 
L 621.660213 296.022335 
L 622.31098 299.670094 
L 622.636364 297.675725 
L 622.636364 297.675725 
" clip-path="url(#p610e5b5474)" style="fill: none; stroke: #1f77b4; stroke-width: 1.5; stroke-linecap: square"/>
   </g>
   <g id="patch_3">
    <path d="M 90 384.48 
L 90 51.84 
" style="fill: none; stroke: #000000; stroke-width: 0.8; stroke-linejoin: miter; stroke-linecap: square"/>
   </g>
   <g id="patch_4">
    <path d="M 648 384.48 
L 648 51.84 
" style="fill: none; stroke: #000000; stroke-width: 0.8; stroke-linejoin: miter; stroke-linecap: square"/>
   </g>
   <g id="patch_5">
    <path d="M 90 384.48 
L 648 384.48 
" style="fill: none; stroke: #000000; stroke-width: 0.8; stroke-linejoin: miter; stroke-linecap: square"/>
   </g>
   <g id="patch_6">
    <path d="M 90 51.84 
L 648 51.84 
" style="fill: none; stroke: #000000; stroke-width: 0.8; stroke-linejoin: miter; stroke-linecap: square"/>
   </g>
   <g id="text_19">
    <!-- Average time per index -->
    <g transform="translate(298.700625 45.84) scale(0.12 -0.12)">
     <defs>
      <path id="DejaVuSans-70" d="M 1159 525 
L 1159 -1331 
L 581 -1331 
L 581 3500 
L 1159 3500 
L 1159 2969 
Q 1341 3281 1617 3432 
Q 1894 3584 2278 3584 
Q 2916 3584 3314 3078 
Q 3713 2572 3713 1747 
Q 3713 922 3314 415 
Q 2916 -91 2278 -91 
Q 1894 -91 1617 61 
Q 1341 213 1159 525 
z
M 3116 1747 
Q 3116 2381 2855 2742 
Q 2594 3103 2138 3103 
Q 1681 3103 1420 2742 
Q 1159 2381 1159 1747 
Q 1159 1113 1420 752 
Q 1681 391 2138 391 
Q 2594 391 2855 752 
Q 3116 1113 3116 1747 
z
" transform="scale(0.015625)"/>
     </defs>
     <use xlink:href="#DejaVuSans-41"/>
     <use xlink:href="#DejaVuSans-76" transform="translate(62.533203 0)"/>
     <use xlink:href="#DejaVuSans-65" transform="translate(121.712891 0)"/>
     <use xlink:href="#DejaVuSans-72" transform="translate(183.236328 0)"/>
     <use xlink:href="#DejaVuSans-61" transform="translate(224.349609 0)"/>
     <use xlink:href="#DejaVuSans-67" transform="translate(285.628906 0)"/>
     <use xlink:href="#DejaVuSans-65" transform="translate(349.105469 0)"/>
     <use xlink:href="#DejaVuSans-20" transform="translate(410.628906 0)"/>
     <use xlink:href="#DejaVuSans-74" transform="translate(442.416016 0)"/>
     <use xlink:href="#DejaVuSans-69" transform="translate(481.625 0)"/>
     <use xlink:href="#DejaVuSans-6d" transform="translate(509.408203 0)"/>
     <use xlink:href="#DejaVuSans-65" transform="translate(606.820312 0)"/>
     <use xlink:href="#DejaVuSans-20" transform="translate(668.34375 0)"/>
     <use xlink:href="#DejaVuSans-70" transform="translate(700.130859 0)"/>
     <use xlink:href="#DejaVuSans-65" transform="translate(763.607422 0)"/>
     <use xlink:href="#DejaVuSans-72" transform="translate(825.130859 0)"/>
     <use xlink:href="#DejaVuSans-20" transform="translate(866.244141 0)"/>
     <use xlink:href="#DejaVuSans-69" transform="translate(898.03125 0)"/>
     <use xlink:href="#DejaVuSans-6e" transform="translate(925.814453 0)"/>
     <use xlink:href="#DejaVuSans-64" transform="translate(989.193359 0)"/>
     <use xlink:href="#DejaVuSans-65" transform="translate(1052.669922 0)"/>
     <use xlink:href="#DejaVuSans-78" transform="translate(1112.443359 0)"/>
    </g>
   </g>
   <g id="legend_1">
    <g id="patch_7">
     <path d="M 515.8875 74.518125 
L 641 74.518125 
Q 643 74.518125 643 72.518125 
L 643 58.84 
Q 643 56.84 641 56.84 
L 515.8875 56.84 
Q 513.8875 56.84 513.8875 58.84 
L 513.8875 72.518125 
Q 513.8875 74.518125 515.8875 74.518125 
z
" style="fill: #ffffff; opacity: 0.8; stroke: #cccccc; stroke-linejoin: miter"/>
    </g>
    <g id="line2d_18">
     <path d="M 517.8875 64.938438 
L 527.8875 64.938438 
L 537.8875 64.938438 
" style="fill: none; stroke: #1f77b4; stroke-width: 1.5; stroke-linecap: square"/>
    </g>
    <g id="text_20">
     <!-- getExpectedPoints -->
     <g transform="translate(545.8875 68.438438) scale(0.1 -0.1)">
      <defs>
       <path id="DejaVuSans-45" d="M 628 4666 
L 3578 4666 
L 3578 4134 
L 1259 4134 
L 1259 2753 
L 3481 2753 
L 3481 2222 
L 1259 2222 
L 1259 531 
L 3634 531 
L 3634 0 
L 628 0 
L 628 4666 
z
" transform="scale(0.015625)"/>
       <path id="DejaVuSans-63" d="M 3122 3366 
L 3122 2828 
Q 2878 2963 2633 3030 
Q 2388 3097 2138 3097 
Q 1578 3097 1268 2742 
Q 959 2388 959 1747 
Q 959 1106 1268 751 
Q 1578 397 2138 397 
Q 2388 397 2633 464 
Q 2878 531 3122 666 
L 3122 134 
Q 2881 22 2623 -34 
Q 2366 -91 2075 -91 
Q 1284 -91 818 406 
Q 353 903 353 1747 
Q 353 2603 823 3093 
Q 1294 3584 2113 3584 
Q 2378 3584 2631 3529 
Q 2884 3475 3122 3366 
z
" transform="scale(0.015625)"/>
       <path id="DejaVuSans-50" d="M 1259 4147 
L 1259 2394 
L 2053 2394 
Q 2494 2394 2734 2622 
Q 2975 2850 2975 3272 
Q 2975 3691 2734 3919 
Q 2494 4147 2053 4147 
L 1259 4147 
z
M 628 4666 
L 2053 4666 
Q 2838 4666 3239 4311 
Q 3641 3956 3641 3272 
Q 3641 2581 3239 2228 
Q 2838 1875 2053 1875 
L 1259 1875 
L 1259 0 
L 628 0 
L 628 4666 
z
" transform="scale(0.015625)"/>
       <path id="DejaVuSans-6f" d="M 1959 3097 
Q 1497 3097 1228 2736 
Q 959 2375 959 1747 
Q 959 1119 1226 758 
Q 1494 397 1959 397 
Q 2419 397 2687 759 
Q 2956 1122 2956 1747 
Q 2956 2369 2687 2733 
Q 2419 3097 1959 3097 
z
M 1959 3584 
Q 2709 3584 3137 3096 
Q 3566 2609 3566 1747 
Q 3566 888 3137 398 
Q 2709 -91 1959 -91 
Q 1206 -91 779 398 
Q 353 888 353 1747 
Q 353 2609 779 3096 
Q 1206 3584 1959 3584 
z
" transform="scale(0.015625)"/>
      </defs>
      <use xlink:href="#DejaVuSans-67"/>
      <use xlink:href="#DejaVuSans-65" transform="translate(63.476562 0)"/>
      <use xlink:href="#DejaVuSans-74" transform="translate(125 0)"/>
      <use xlink:href="#DejaVuSans-45" transform="translate(164.208984 0)"/>
      <use xlink:href="#DejaVuSans-78" transform="translate(227.392578 0)"/>
      <use xlink:href="#DejaVuSans-70" transform="translate(286.572266 0)"/>
      <use xlink:href="#DejaVuSans-65" transform="translate(350.048828 0)"/>
      <use xlink:href="#DejaVuSans-63" transform="translate(411.572266 0)"/>
      <use xlink:href="#DejaVuSans-74" transform="translate(466.552734 0)"/>
      <use xlink:href="#DejaVuSans-65" transform="translate(505.761719 0)"/>
      <use xlink:href="#DejaVuSans-64" transform="translate(567.285156 0)"/>
      <use xlink:href="#DejaVuSans-50" transform="translate(630.761719 0)"/>
      <use xlink:href="#DejaVuSans-6f" transform="translate(687.439453 0)"/>
      <use xlink:href="#DejaVuSans-69" transform="translate(748.621094 0)"/>
      <use xlink:href="#DejaVuSans-6e" transform="translate(776.404297 0)"/>
      <use xlink:href="#DejaVuSans-74" transform="translate(839.783203 0)"/>
      <use xlink:href="#DejaVuSans-73" transform="translate(878.992188 0)"/>
     </g>
    </g>
   </g>
  </g>
 </g>
 <defs>
  <clipPath id="p610e5b5474">
   <rect x="90" y="51.84" width="558" height="332.64"/>
  </clipPath>
 </defs>
</svg>
