<?xml version="1.0" encoding="utf-8" standalone="no"?>
<!DOCTYPE svg PUBLIC "-//W3C//DTD SVG 1.1//EN"
  "http://www.w3.org/Graphics/SVG/1.1/DTD/svg11.dtd">
<svg xmlns:xlink="http://www.w3.org/1999/xlink" width="576pt" height="432pt" viewBox="0 0 576 432" xmlns="http://www.w3.org/2000/svg" version="1.1">
 <metadata>
  <rdf:RDF xmlns:dc="http://purl.org/dc/elements/1.1/" xmlns:cc="http://creativecommons.org/ns#" xmlns:rdf="http://www.w3.org/1999/02/22-rdf-syntax-ns#">
   <cc:Work>
    <dc:type rdf:resource="http://purl.org/dc/dcmitype/StillImage"/>
    <dc:date>2025-09-30T20:43:13.325232</dc:date>
    <dc:format>image/svg+xml</dc:format>
    <dc:creator>
     <cc:Agent>
      <dc:title>Matplotlib v3.10.3, https://matplotlib.org/</dc:title>
     </cc:Agent>
    </dc:creator>
   </cc:Work>
  </rdf:RDF>
 </metadata>
 <defs>
  <style type="text/css">*{stroke-linejoin: round; stroke-linecap: butt}</style>
 </defs>
 <g id="figure_1">
  <g id="patch_1">
   <path d="M 0 432 
L 576 432 
L 576 0 
L 0 0 
z
" style="fill: #ffffff"/>
  </g>
  <g id="axes_1">
   <g id="patch_2">
    <path d="M 72 384.48 
L 518.4 384.48 
L 518.4 51.84 
L 72 51.84 
z
" style="fill: #ffffff"/>
   </g>
   <g id="FillBetweenPolyCollection_1">
    <path d="M 309.195843 379.626743 
L 281.204157 379.626743 
L 279.086269 376.473431 
L 276.380738 373.32012 
L 272.361898 370.166808 
L 266.217185 367.013496 
L 257.314869 363.860185 
L 245.507256 360.706873 
L 231.363161 357.553562 
L 216.221592 354.40025 
L 202.002911 351.246938 
L 190.797979 348.093627 
L 184.349681 344.940315 
L 183.6 341.787003 
L 188.463561 338.633692 
L 197.903729 335.48038 
L 210.268404 332.327069 
L 223.747912 329.173757 
L 236.79024 326.020445 
L 248.35354 322.867134 
L 257.959827 319.713822 
L 265.591637 316.56051 
L 271.513478 313.407199 
L 276.096762 310.253887 
L 279.696283 307.100576 
L 282.59021 303.947264 
L 284.970191 300.793952 
L 286.95851 297.640641 
L 288.632141 294.487329 
L 290.042065 291.334018 
L 291.224677 288.180706 
L 292.20722 285.027394 
L 293.010629 281.874083 
L 293.652122 278.720771 
L 294.14803 275.567459 
L 294.516137 272.414148 
L 294.776613 269.260836 
L 294.951291 266.107525 
L 295.061806 262.954213 
L 295.127549 259.800901 
L 295.164234 256.64759 
L 295.183402 253.494278 
L 295.192768 250.340966 
L 295.197045 247.187655 
L 295.198869 244.034343 
L 295.199594 240.881032 
L 295.199864 237.72772 
L 295.199957 234.574408 
L 295.199987 231.421097 
L 295.199997 228.267785 
L 295.199999 225.114474 
L 295.2 221.961162 
L 295.2 218.80785 
L 295.2 215.654539 
L 295.2 212.501227 
L 295.2 209.347915 
L 295.199998 206.194604 
L 295.199994 203.041292 
L 295.199978 199.887981 
L 295.199931 196.734669 
L 295.199797 193.581357 
L 295.19944 190.428046 
L 295.198562 187.274734 
L 295.196554 184.121422 
L 295.192297 180.968111 
L 295.183933 177.814799 
L 295.168706 174.661488 
L 295.143028 171.508176 
L 295.102917 168.354864 
L 295.044847 165.201553 
L 294.966798 162.048241 
L 294.869052 158.894929 
L 294.754221 155.741618 
L 294.626233 152.588306 
L 294.488637 149.434995 
L 294.343097 146.281683 
L 294.189093 143.128371 
L 294.025286 139.97506 
L 293.852063 136.821748 
L 293.67402 133.668437 
L 293.50104 130.515125 
L 293.347199 127.361813 
L 293.227611 124.208502 
L 293.154108 121.05519 
L 293.131093 117.901878 
L 293.153041 114.748567 
L 293.204915 111.595255 
L 293.265945 108.441944 
L 293.315969 105.288632 
L 293.342261 102.13532 
L 293.344191 98.982009 
L 293.333707 95.828697 
L 293.331284 92.675385 
L 293.358841 89.522074 
L 293.432374 86.368762 
L 293.557038 83.215451 
L 293.726281 80.062139 
L 293.924864 76.908827 
L 294.134092 73.755516 
L 294.336975 70.602204 
L 294.521476 67.448893 
L 295.878524 67.448893 
L 295.878524 67.448893 
L 296.063025 70.602204 
L 296.265908 73.755516 
L 296.475136 76.908827 
L 296.673719 80.062139 
L 296.842962 83.215451 
L 296.967626 86.368762 
L 297.041159 89.522074 
L 297.068716 92.675385 
L 297.066293 95.828697 
L 297.055809 98.982009 
L 297.057739 102.13532 
L 297.084031 105.288632 
L 297.134055 108.441944 
L 297.195085 111.595255 
L 297.246959 114.748567 
L 297.268907 117.901878 
L 297.245892 121.05519 
L 297.172389 124.208502 
L 297.052801 127.361813 
L 296.89896 130.515125 
L 296.72598 133.668437 
L 296.547937 136.821748 
L 296.374714 139.97506 
L 296.210907 143.128371 
L 296.056903 146.281683 
L 295.911363 149.434995 
L 295.773767 152.588306 
L 295.645779 155.741618 
L 295.530948 158.894929 
L 295.433202 162.048241 
L 295.355153 165.201553 
L 295.297083 168.354864 
L 295.256972 171.508176 
L 295.231294 174.661488 
L 295.216067 177.814799 
L 295.207703 180.968111 
L 295.203446 184.121422 
L 295.201438 187.274734 
L 295.20056 190.428046 
L 295.200203 193.581357 
L 295.200069 196.734669 
L 295.200022 199.887981 
L 295.200006 203.041292 
L 295.200002 206.194604 
L 295.2 209.347915 
L 295.2 212.501227 
L 295.2 215.654539 
L 295.2 218.80785 
L 295.2 221.961162 
L 295.200001 225.114474 
L 295.200003 228.267785 
L 295.200013 231.421097 
L 295.200043 234.574408 
L 295.200136 237.72772 
L 295.200406 240.881032 
L 295.201131 244.034343 
L 295.202955 247.187655 
L 295.207232 250.340966 
L 295.216598 253.494278 
L 295.235766 256.64759 
L 295.272451 259.800901 
L 295.338194 262.954213 
L 295.448709 266.107525 
L 295.623387 269.260836 
L 295.883863 272.414148 
L 296.25197 275.567459 
L 296.747878 278.720771 
L 297.389371 281.874083 
L 298.19278 285.027394 
L 299.175323 288.180706 
L 300.357935 291.334018 
L 301.767859 294.487329 
L 303.44149 297.640641 
L 305.429809 300.793952 
L 307.80979 303.947264 
L 310.703717 307.100576 
L 314.303238 310.253887 
L 318.886522 313.407199 
L 324.808363 316.56051 
L 332.440173 319.713822 
L 342.04646 322.867134 
L 353.60976 326.020445 
L 366.652088 329.173757 
L 380.131596 332.327069 
L 392.496271 335.48038 
L 401.936439 338.633692 
L 406.8 341.787003 
L 406.050319 344.940315 
L 399.602021 348.093627 
L 388.397089 351.246938 
L 374.178408 354.40025 
L 359.036839 357.553562 
L 344.892744 360.706873 
L 333.085131 363.860185 
L 324.182815 367.013496 
L 318.038102 370.166808 
L 314.019262 373.32012 
L 311.313731 376.473431 
L 309.195843 379.626743 
z
" clip-path="url(#p7500353344)" style="fill: #1f77b4; fill-opacity: 0.3"/>
   </g>
   <g id="matplotlib.axis_1">
    <g id="xtick_1">
     <g id="line2d_1">
      <defs>
       <path id="m70b0d68cfb" d="M 0 0 
L 0 3.5 
" style="stroke: #000000; stroke-width: 0.8"/>
      </defs>
      <g>
       <use xlink:href="#m70b0d68cfb" x="295.2" y="384.48" style="stroke: #000000; stroke-width: 0.8"/>
      </g>
     </g>
     <g id="text_1">
      <!-- 1 -->
      <g transform="translate(292.01875 399.078438) scale(0.1 -0.1)">
       <defs>
        <path id="DejaVuSans-31" d="M 794 531 
L 1825 531 
L 1825 4091 
L 703 3866 
L 703 4441 
L 1819 4666 
L 2450 4666 
L 2450 531 
L 3481 531 
L 3481 0 
L 794 0 
L 794 531 
z
" transform="scale(0.015625)"/>
       </defs>
       <use xlink:href="#DejaVuSans-31"/>
      </g>
     </g>
    </g>
   </g>
   <g id="matplotlib.axis_2">
    <g id="ytick_1">
     <g id="line2d_2">
      <defs>
       <path id="m6edd44db2e" d="M 0 0 
L -3.5 0 
" style="stroke: #000000; stroke-width: 0.8"/>
      </defs>
      <g>
       <use xlink:href="#m6edd44db2e" x="72" y="384.48" style="stroke: #000000; stroke-width: 0.8"/>
      </g>
     </g>
     <g id="text_2">
      <!-- 0 -->
      <g transform="translate(58.6375 388.279219) scale(0.1 -0.1)">
       <defs>
        <path id="DejaVuSans-30" d="M 2034 4250 
Q 1547 4250 1301 3770 
Q 1056 3291 1056 2328 
Q 1056 1369 1301 889 
Q 1547 409 2034 409 
Q 2525 409 2770 889 
Q 3016 1369 3016 2328 
Q 3016 3291 2770 3770 
Q 2525 4250 2034 4250 
z
M 2034 4750 
Q 2819 4750 3233 4129 
Q 3647 3509 3647 2328 
Q 3647 1150 3233 529 
Q 2819 -91 2034 -91 
Q 1250 -91 836 529 
Q 422 1150 422 2328 
Q 422 3509 836 4129 
Q 1250 4750 2034 4750 
z
" transform="scale(0.015625)"/>
       </defs>
       <use xlink:href="#DejaVuSans-30"/>
      </g>
     </g>
    </g>
    <g id="ytick_2">
     <g id="line2d_3">
      <g>
       <use xlink:href="#m6edd44db2e" x="72" y="325.785114" style="stroke: #000000; stroke-width: 0.8"/>
      </g>
     </g>
     <g id="text_3">
      <!-- 5 -->
      <g transform="translate(58.6375 329.584332) scale(0.1 -0.1)">
       <defs>
        <path id="DejaVuSans-35" d="M 691 4666 
L 3169 4666 
L 3169 4134 
L 1269 4134 
L 1269 2991 
Q 1406 3038 1543 3061 
Q 1681 3084 1819 3084 
Q 2600 3084 3056 2656 
Q 3513 2228 3513 1497 
Q 3513 744 3044 326 
Q 2575 -91 1722 -91 
Q 1428 -91 1123 -41 
Q 819 9 494 109 
L 494 744 
Q 775 591 1075 516 
Q 1375 441 1709 441 
Q 2250 441 2565 725 
Q 2881 1009 2881 1497 
Q 2881 1984 2565 2268 
Q 2250 2553 1709 2553 
Q 1456 2553 1204 2497 
Q 953 2441 691 2322 
L 691 4666 
z
" transform="scale(0.015625)"/>
       </defs>
       <use xlink:href="#DejaVuSans-35"/>
      </g>
     </g>
    </g>
    <g id="ytick_3">
     <g id="line2d_4">
      <g>
       <use xlink:href="#m6edd44db2e" x="72" y="267.090227" style="stroke: #000000; stroke-width: 0.8"/>
      </g>
     </g>
     <g id="text_4">
      <!-- 10 -->
      <g transform="translate(52.275 270.889446) scale(0.1 -0.1)">
       <use xlink:href="#DejaVuSans-31"/>
       <use xlink:href="#DejaVuSans-30" transform="translate(63.623047 0)"/>
      </g>
     </g>
    </g>
    <g id="ytick_4">
     <g id="line2d_5">
      <g>
       <use xlink:href="#m6edd44db2e" x="72" y="208.395341" style="stroke: #000000; stroke-width: 0.8"/>
      </g>
     </g>
     <g id="text_5">
      <!-- 15 -->
      <g transform="translate(52.275 212.19456) scale(0.1 -0.1)">
       <use xlink:href="#DejaVuSans-31"/>
       <use xlink:href="#DejaVuSans-35" transform="translate(63.623047 0)"/>
      </g>
     </g>
    </g>
    <g id="ytick_5">
     <g id="line2d_6">
      <g>
       <use xlink:href="#m6edd44db2e" x="72" y="149.700455" style="stroke: #000000; stroke-width: 0.8"/>
      </g>
     </g>
     <g id="text_6">
      <!-- 20 -->
      <g transform="translate(52.275 153.499674) scale(0.1 -0.1)">
       <defs>
        <path id="DejaVuSans-32" d="M 1228 531 
L 3431 531 
L 3431 0 
L 469 0 
L 469 531 
Q 828 903 1448 1529 
Q 2069 2156 2228 2338 
Q 2531 2678 2651 2914 
Q 2772 3150 2772 3378 
Q 2772 3750 2511 3984 
Q 2250 4219 1831 4219 
Q 1534 4219 1204 4116 
Q 875 4013 500 3803 
L 500 4441 
Q 881 4594 1212 4672 
Q 1544 4750 1819 4750 
Q 2544 4750 2975 4387 
Q 3406 4025 3406 3419 
Q 3406 3131 3298 2873 
Q 3191 2616 2906 2266 
Q 2828 2175 2409 1742 
Q 1991 1309 1228 531 
z
" transform="scale(0.015625)"/>
       </defs>
       <use xlink:href="#DejaVuSans-32"/>
       <use xlink:href="#DejaVuSans-30" transform="translate(63.623047 0)"/>
      </g>
     </g>
    </g>
    <g id="ytick_6">
     <g id="line2d_7">
      <g>
       <use xlink:href="#m6edd44db2e" x="72" y="91.005569" style="stroke: #000000; stroke-width: 0.8"/>
      </g>
     </g>
     <g id="text_7">
      <!-- 25 -->
      <g transform="translate(52.275 94.804787) scale(0.1 -0.1)">
       <use xlink:href="#DejaVuSans-32"/>
       <use xlink:href="#DejaVuSans-35" transform="translate(63.623047 0)"/>
      </g>
     </g>
    </g>
    <g id="text_8">
     <!-- Time (ms) -->
     <g transform="translate(46.195312 243.359219) rotate(-90) scale(0.1 -0.1)">
      <defs>
       <path id="DejaVuSans-54" d="M -19 4666 
L 3928 4666 
L 3928 4134 
L 2272 4134 
L 2272 0 
L 1638 0 
L 1638 4134 
L -19 4134 
L -19 4666 
z
" transform="scale(0.015625)"/>
       <path id="DejaVuSans-69" d="M 603 3500 
L 1178 3500 
L 1178 0 
L 603 0 
L 603 3500 
z
M 603 4863 
L 1178 4863 
L 1178 4134 
L 603 4134 
L 603 4863 
z
" transform="scale(0.015625)"/>
       <path id="DejaVuSans-6d" d="M 3328 2828 
Q 3544 3216 3844 3400 
Q 4144 3584 4550 3584 
Q 5097 3584 5394 3201 
Q 5691 2819 5691 2113 
L 5691 0 
L 5113 0 
L 5113 2094 
Q 5113 2597 4934 2840 
Q 4756 3084 4391 3084 
Q 3944 3084 3684 2787 
Q 3425 2491 3425 1978 
L 3425 0 
L 2847 0 
L 2847 2094 
Q 2847 2600 2669 2842 
Q 2491 3084 2119 3084 
Q 1678 3084 1418 2786 
Q 1159 2488 1159 1978 
L 1159 0 
L 581 0 
L 581 3500 
L 1159 3500 
L 1159 2956 
Q 1356 3278 1631 3431 
Q 1906 3584 2284 3584 
Q 2666 3584 2933 3390 
Q 3200 3197 3328 2828 
z
" transform="scale(0.015625)"/>
       <path id="DejaVuSans-65" d="M 3597 1894 
L 3597 1613 
L 953 1613 
Q 991 1019 1311 708 
Q 1631 397 2203 397 
Q 2534 397 2845 478 
Q 3156 559 3463 722 
L 3463 178 
Q 3153 47 2828 -22 
Q 2503 -91 2169 -91 
Q 1331 -91 842 396 
Q 353 884 353 1716 
Q 353 2575 817 3079 
Q 1281 3584 2069 3584 
Q 2775 3584 3186 3129 
Q 3597 2675 3597 1894 
z
M 3022 2063 
Q 3016 2534 2758 2815 
Q 2500 3097 2075 3097 
Q 1594 3097 1305 2825 
Q 1016 2553 972 2059 
L 3022 2063 
z
" transform="scale(0.015625)"/>
       <path id="DejaVuSans-20" transform="scale(0.015625)"/>
       <path id="DejaVuSans-28" d="M 1984 4856 
Q 1566 4138 1362 3434 
Q 1159 2731 1159 2009 
Q 1159 1288 1364 580 
Q 1569 -128 1984 -844 
L 1484 -844 
Q 1016 -109 783 600 
Q 550 1309 550 2009 
Q 550 2706 781 3412 
Q 1013 4119 1484 4856 
L 1984 4856 
z
" transform="scale(0.015625)"/>
       <path id="DejaVuSans-73" d="M 2834 3397 
L 2834 2853 
Q 2591 2978 2328 3040 
Q 2066 3103 1784 3103 
Q 1356 3103 1142 2972 
Q 928 2841 928 2578 
Q 928 2378 1081 2264 
Q 1234 2150 1697 2047 
L 1894 2003 
Q 2506 1872 2764 1633 
Q 3022 1394 3022 966 
Q 3022 478 2636 193 
Q 2250 -91 1575 -91 
Q 1294 -91 989 -36 
Q 684 19 347 128 
L 347 722 
Q 666 556 975 473 
Q 1284 391 1588 391 
Q 1994 391 2212 530 
Q 2431 669 2431 922 
Q 2431 1156 2273 1281 
Q 2116 1406 1581 1522 
L 1381 1569 
Q 847 1681 609 1914 
Q 372 2147 372 2553 
Q 372 3047 722 3315 
Q 1072 3584 1716 3584 
Q 2034 3584 2315 3537 
Q 2597 3491 2834 3397 
z
" transform="scale(0.015625)"/>
       <path id="DejaVuSans-29" d="M 513 4856 
L 1013 4856 
Q 1481 4119 1714 3412 
Q 1947 2706 1947 2009 
Q 1947 1309 1714 600 
Q 1481 -109 1013 -844 
L 513 -844 
Q 928 -128 1133 580 
Q 1338 1288 1338 2009 
Q 1338 2731 1133 3434 
Q 928 4138 513 4856 
z
" transform="scale(0.015625)"/>
      </defs>
      <use xlink:href="#DejaVuSans-54"/>
      <use xlink:href="#DejaVuSans-69" transform="translate(57.958984 0)"/>
      <use xlink:href="#DejaVuSans-6d" transform="translate(85.742188 0)"/>
      <use xlink:href="#DejaVuSans-65" transform="translate(183.154297 0)"/>
      <use xlink:href="#DejaVuSans-20" transform="translate(244.677734 0)"/>
      <use xlink:href="#DejaVuSans-28" transform="translate(276.464844 0)"/>
      <use xlink:href="#DejaVuSans-6d" transform="translate(315.478516 0)"/>
      <use xlink:href="#DejaVuSans-73" transform="translate(412.890625 0)"/>
      <use xlink:href="#DejaVuSans-29" transform="translate(464.990234 0)"/>
     </g>
    </g>
   </g>
   <g id="LineCollection_1">
    <path d="M 239.4 334.889098 
L 351 334.889098 
" clip-path="url(#p7500353344)" style="fill: none; stroke: #1f77b4; stroke-width: 1.5"/>
   </g>
   <g id="LineCollection_2">
    <path d="M 239.4 67.448893 
L 351 67.448893 
" clip-path="url(#p7500353344)" style="fill: none; stroke: #1f77b4; stroke-width: 1.5"/>
   </g>
   <g id="LineCollection_3">
    <path d="M 239.4 379.626743 
L 351 379.626743 
" clip-path="url(#p7500353344)" style="fill: none; stroke: #1f77b4; stroke-width: 1.5"/>
   </g>
   <g id="LineCollection_4">
    <path d="M 295.2 379.626743 
L 295.2 67.448893 
" clip-path="url(#p7500353344)" style="fill: none; stroke: #1f77b4; stroke-width: 1.5"/>
   </g>
   <g id="patch_3">
    <path d="M 250.56 347.015224 
L 339.84 347.015224 
L 339.84 335.939655 
L 250.56 335.939655 
L 250.56 347.015224 
z
" clip-path="url(#p7500353344)" style="fill: #1f77b4; stroke: #000000; stroke-linejoin: miter"/>
   </g>
   <g id="line2d_8">
    <path d="M 295.2 347.015224 
L 295.2 354.379173 
" clip-path="url(#p7500353344)" style="fill: none; stroke: #000000; stroke-linecap: square"/>
   </g>
   <g id="line2d_9">
    <path d="M 295.2 335.939655 
L 295.2 319.551259 
" clip-path="url(#p7500353344)" style="fill: none; stroke: #000000; stroke-linecap: square"/>
   </g>
   <g id="line2d_10">
    <path d="M 272.88 354.379173 
L 317.52 354.379173 
" clip-path="url(#p7500353344)" style="fill: none; stroke: #000000; stroke-linecap: square"/>
   </g>
   <g id="line2d_11">
    <path d="M 272.88 319.551259 
L 317.52 319.551259 
" clip-path="url(#p7500353344)" style="fill: none; stroke: #000000; stroke-linecap: square"/>
   </g>
   <g id="line2d_12">
    <defs>
     <path id="m5b89e86955" d="M 0 3 
C 0.795609 3 1.55874 2.683901 2.12132 2.12132 
C 2.683901 1.55874 3 0.795609 3 0 
C 3 -0.795609 2.683901 -1.55874 2.12132 -2.12132 
C 1.55874 -2.683901 0.795609 -3 0 -3 
C -0.795609 -3 -1.55874 -2.683901 -2.12132 -2.12132 
C -2.683901 -1.55874 -3 -0.795609 -3 0 
C -3 0.795609 -2.683901 1.55874 -2.12132 2.12132 
C -1.55874 2.683901 -0.795609 3 0 3 
z
" style="stroke: #000000"/>
    </defs>
    <g clip-path="url(#p7500353344)">
     <use xlink:href="#m5b89e86955" x="295.2" y="378.362819" style="fill-opacity: 0; stroke: #000000"/>
     <use xlink:href="#m5b89e86955" x="295.2" y="379.365703" style="fill-opacity: 0; stroke: #000000"/>
     <use xlink:href="#m5b89e86955" x="295.2" y="376.669084" style="fill-opacity: 0; stroke: #000000"/>
     <use xlink:href="#m5b89e86955" x="295.2" y="377.559615" style="fill-opacity: 0; stroke: #000000"/>
     <use xlink:href="#m5b89e86955" x="295.2" y="378.406018" style="fill-opacity: 0; stroke: #000000"/>
     <use xlink:href="#m5b89e86955" x="295.2" y="378.22336" style="fill-opacity: 0; stroke: #000000"/>
     <use xlink:href="#m5b89e86955" x="295.2" y="377.80908" style="fill-opacity: 0; stroke: #000000"/>
     <use xlink:href="#m5b89e86955" x="295.2" y="375.011036" style="fill-opacity: 0; stroke: #000000"/>
     <use xlink:href="#m5b89e86955" x="295.2" y="378.087892" style="fill-opacity: 0; stroke: #000000"/>
     <use xlink:href="#m5b89e86955" x="295.2" y="377.544706" style="fill-opacity: 0; stroke: #000000"/>
     <use xlink:href="#m5b89e86955" x="295.2" y="377.145698" style="fill-opacity: 0; stroke: #000000"/>
     <use xlink:href="#m5b89e86955" x="295.2" y="378.793886" style="fill-opacity: 0; stroke: #000000"/>
     <use xlink:href="#m5b89e86955" x="295.2" y="375.223053" style="fill-opacity: 0; stroke: #000000"/>
     <use xlink:href="#m5b89e86955" x="295.2" y="378.061832" style="fill-opacity: 0; stroke: #000000"/>
     <use xlink:href="#m5b89e86955" x="295.2" y="376.87076" style="fill-opacity: 0; stroke: #000000"/>
     <use xlink:href="#m5b89e86955" x="295.2" y="378.216622" style="fill-opacity: 0; stroke: #000000"/>
     <use xlink:href="#m5b89e86955" x="295.2" y="379.626743" style="fill-opacity: 0; stroke: #000000"/>
     <use xlink:href="#m5b89e86955" x="295.2" y="374.936775" style="fill-opacity: 0; stroke: #000000"/>
     <use xlink:href="#m5b89e86955" x="295.2" y="377.347797" style="fill-opacity: 0; stroke: #000000"/>
     <use xlink:href="#m5b89e86955" x="295.2" y="378.386849" style="fill-opacity: 0; stroke: #000000"/>
     <use xlink:href="#m5b89e86955" x="295.2" y="378.491361" style="fill-opacity: 0; stroke: #000000"/>
     <use xlink:href="#m5b89e86955" x="295.2" y="378.138252" style="fill-opacity: 0; stroke: #000000"/>
     <use xlink:href="#m5b89e86955" x="295.2" y="376.607936" style="fill-opacity: 0; stroke: #000000"/>
     <use xlink:href="#m5b89e86955" x="295.2" y="377.330247" style="fill-opacity: 0; stroke: #000000"/>
     <use xlink:href="#m5b89e86955" x="295.2" y="378.371975" style="fill-opacity: 0; stroke: #000000"/>
     <use xlink:href="#m5b89e86955" x="295.2" y="378.378068" style="fill-opacity: 0; stroke: #000000"/>
     <use xlink:href="#m5b89e86955" x="295.2" y="379.610801" style="fill-opacity: 0; stroke: #000000"/>
     <use xlink:href="#m5b89e86955" x="295.2" y="375.88843" style="fill-opacity: 0; stroke: #000000"/>
     <use xlink:href="#m5b89e86955" x="295.2" y="377.823401" style="fill-opacity: 0; stroke: #000000"/>
     <use xlink:href="#m5b89e86955" x="295.2" y="378.268555" style="fill-opacity: 0; stroke: #000000"/>
     <use xlink:href="#m5b89e86955" x="295.2" y="377.462662" style="fill-opacity: 0; stroke: #000000"/>
     <use xlink:href="#m5b89e86955" x="295.2" y="378.989809" style="fill-opacity: 0; stroke: #000000"/>
     <use xlink:href="#m5b89e86955" x="295.2" y="374.10501" style="fill-opacity: 0; stroke: #000000"/>
     <use xlink:href="#m5b89e86955" x="295.2" y="378.176157" style="fill-opacity: 0; stroke: #000000"/>
     <use xlink:href="#m5b89e86955" x="295.2" y="378.157269" style="fill-opacity: 0; stroke: #000000"/>
     <use xlink:href="#m5b89e86955" x="295.2" y="378.188284" style="fill-opacity: 0; stroke: #000000"/>
     <use xlink:href="#m5b89e86955" x="295.2" y="378.220449" style="fill-opacity: 0; stroke: #000000"/>
     <use xlink:href="#m5b89e86955" x="295.2" y="376.496216" style="fill-opacity: 0; stroke: #000000"/>
     <use xlink:href="#m5b89e86955" x="295.2" y="378.025464" style="fill-opacity: 0; stroke: #000000"/>
     <use xlink:href="#m5b89e86955" x="295.2" y="378.064907" style="fill-opacity: 0; stroke: #000000"/>
     <use xlink:href="#m5b89e86955" x="295.2" y="377.26884" style="fill-opacity: 0; stroke: #000000"/>
     <use xlink:href="#m5b89e86955" x="295.2" y="379.54707" style="fill-opacity: 0; stroke: #000000"/>
     <use xlink:href="#m5b89e86955" x="295.2" y="376.222756" style="fill-opacity: 0; stroke: #000000"/>
     <use xlink:href="#m5b89e86955" x="295.2" y="377.325422" style="fill-opacity: 0; stroke: #000000"/>
     <use xlink:href="#m5b89e86955" x="295.2" y="378.260338" style="fill-opacity: 0; stroke: #000000"/>
     <use xlink:href="#m5b89e86955" x="295.2" y="376.931579" style="fill-opacity: 0; stroke: #000000"/>
     <use xlink:href="#m5b89e86955" x="295.2" y="378.080485" style="fill-opacity: 0; stroke: #000000"/>
     <use xlink:href="#m5b89e86955" x="295.2" y="374.7779" style="fill-opacity: 0; stroke: #000000"/>
     <use xlink:href="#m5b89e86955" x="295.2" y="375.381072" style="fill-opacity: 0; stroke: #000000"/>
     <use xlink:href="#m5b89e86955" x="295.2" y="377.98858" style="fill-opacity: 0; stroke: #000000"/>
     <use xlink:href="#m5b89e86955" x="295.2" y="102.389958" style="fill-opacity: 0; stroke: #000000"/>
     <use xlink:href="#m5b89e86955" x="295.2" y="147.053046" style="fill-opacity: 0; stroke: #000000"/>
     <use xlink:href="#m5b89e86955" x="295.2" y="316.970879" style="fill-opacity: 0; stroke: #000000"/>
     <use xlink:href="#m5b89e86955" x="295.2" y="307.125563" style="fill-opacity: 0; stroke: #000000"/>
     <use xlink:href="#m5b89e86955" x="295.2" y="307.801752" style="fill-opacity: 0; stroke: #000000"/>
     <use xlink:href="#m5b89e86955" x="295.2" y="313.936424" style="fill-opacity: 0; stroke: #000000"/>
     <use xlink:href="#m5b89e86955" x="295.2" y="316.854194" style="fill-opacity: 0; stroke: #000000"/>
     <use xlink:href="#m5b89e86955" x="295.2" y="80.20382" style="fill-opacity: 0; stroke: #000000"/>
     <use xlink:href="#m5b89e86955" x="295.2" y="116.557871" style="fill-opacity: 0; stroke: #000000"/>
     <use xlink:href="#m5b89e86955" x="295.2" y="314.209343" style="fill-opacity: 0; stroke: #000000"/>
     <use xlink:href="#m5b89e86955" x="295.2" y="314.108388" style="fill-opacity: 0; stroke: #000000"/>
     <use xlink:href="#m5b89e86955" x="295.2" y="289.553547" style="fill-opacity: 0; stroke: #000000"/>
     <use xlink:href="#m5b89e86955" x="295.2" y="300.34837" style="fill-opacity: 0; stroke: #000000"/>
     <use xlink:href="#m5b89e86955" x="295.2" y="292.943494" style="fill-opacity: 0; stroke: #000000"/>
     <use xlink:href="#m5b89e86955" x="295.2" y="316.88718" style="fill-opacity: 0; stroke: #000000"/>
     <use xlink:href="#m5b89e86955" x="295.2" y="312.281533" style="fill-opacity: 0; stroke: #000000"/>
     <use xlink:href="#m5b89e86955" x="295.2" y="310.210977" style="fill-opacity: 0; stroke: #000000"/>
     <use xlink:href="#m5b89e86955" x="295.2" y="313.952201" style="fill-opacity: 0; stroke: #000000"/>
     <use xlink:href="#m5b89e86955" x="295.2" y="85.159523" style="fill-opacity: 0; stroke: #000000"/>
     <use xlink:href="#m5b89e86955" x="295.2" y="126.043281" style="fill-opacity: 0; stroke: #000000"/>
     <use xlink:href="#m5b89e86955" x="295.2" y="288.013886" style="fill-opacity: 0; stroke: #000000"/>
     <use xlink:href="#m5b89e86955" x="295.2" y="293.15132" style="fill-opacity: 0; stroke: #000000"/>
     <use xlink:href="#m5b89e86955" x="295.2" y="314.23909" style="fill-opacity: 0; stroke: #000000"/>
     <use xlink:href="#m5b89e86955" x="295.2" y="84.881227" style="fill-opacity: 0; stroke: #000000"/>
     <use xlink:href="#m5b89e86955" x="295.2" y="131.770588" style="fill-opacity: 0; stroke: #000000"/>
     <use xlink:href="#m5b89e86955" x="295.2" y="291.082572" style="fill-opacity: 0; stroke: #000000"/>
     <use xlink:href="#m5b89e86955" x="295.2" y="305.202484" style="fill-opacity: 0; stroke: #000000"/>
     <use xlink:href="#m5b89e86955" x="295.2" y="305.070526" style="fill-opacity: 0; stroke: #000000"/>
     <use xlink:href="#m5b89e86955" x="295.2" y="317.936199" style="fill-opacity: 0; stroke: #000000"/>
     <use xlink:href="#m5b89e86955" x="295.2" y="317.575096" style="fill-opacity: 0; stroke: #000000"/>
     <use xlink:href="#m5b89e86955" x="295.2" y="317.89253" style="fill-opacity: 0; stroke: #000000"/>
     <use xlink:href="#m5b89e86955" x="295.2" y="116.538102" style="fill-opacity: 0; stroke: #000000"/>
     <use xlink:href="#m5b89e86955" x="295.2" y="129.732537" style="fill-opacity: 0; stroke: #000000"/>
     <use xlink:href="#m5b89e86955" x="295.2" y="312.832678" style="fill-opacity: 0; stroke: #000000"/>
     <use xlink:href="#m5b89e86955" x="295.2" y="318.556721" style="fill-opacity: 0; stroke: #000000"/>
     <use xlink:href="#m5b89e86955" x="295.2" y="305.742982" style="fill-opacity: 0; stroke: #000000"/>
     <use xlink:href="#m5b89e86955" x="295.2" y="297.056221" style="fill-opacity: 0; stroke: #000000"/>
     <use xlink:href="#m5b89e86955" x="295.2" y="313.836572" style="fill-opacity: 0; stroke: #000000"/>
     <use xlink:href="#m5b89e86955" x="295.2" y="296.10264" style="fill-opacity: 0; stroke: #000000"/>
     <use xlink:href="#m5b89e86955" x="295.2" y="314.039187" style="fill-opacity: 0; stroke: #000000"/>
     <use xlink:href="#m5b89e86955" x="295.2" y="313.369819" style="fill-opacity: 0; stroke: #000000"/>
     <use xlink:href="#m5b89e86955" x="295.2" y="316.494089" style="fill-opacity: 0; stroke: #000000"/>
     <use xlink:href="#m5b89e86955" x="295.2" y="316.077696" style="fill-opacity: 0; stroke: #000000"/>
     <use xlink:href="#m5b89e86955" x="295.2" y="95.344647" style="fill-opacity: 0; stroke: #000000"/>
     <use xlink:href="#m5b89e86955" x="295.2" y="146.454616" style="fill-opacity: 0; stroke: #000000"/>
     <use xlink:href="#m5b89e86955" x="295.2" y="311.786865" style="fill-opacity: 0; stroke: #000000"/>
     <use xlink:href="#m5b89e86955" x="295.2" y="310.525617" style="fill-opacity: 0; stroke: #000000"/>
     <use xlink:href="#m5b89e86955" x="295.2" y="305.673323" style="fill-opacity: 0; stroke: #000000"/>
     <use xlink:href="#m5b89e86955" x="295.2" y="316.327748" style="fill-opacity: 0; stroke: #000000"/>
     <use xlink:href="#m5b89e86955" x="295.2" y="67.448893" style="fill-opacity: 0; stroke: #000000"/>
     <use xlink:href="#m5b89e86955" x="295.2" y="114.1505" style="fill-opacity: 0; stroke: #000000"/>
     <use xlink:href="#m5b89e86955" x="295.2" y="302.288999" style="fill-opacity: 0; stroke: #000000"/>
     <use xlink:href="#m5b89e86955" x="295.2" y="301.585236" style="fill-opacity: 0; stroke: #000000"/>
     <use xlink:href="#m5b89e86955" x="295.2" y="310.036419" style="fill-opacity: 0; stroke: #000000"/>
     <use xlink:href="#m5b89e86955" x="295.2" y="87.261281" style="fill-opacity: 0; stroke: #000000"/>
     <use xlink:href="#m5b89e86955" x="295.2" y="115.999812" style="fill-opacity: 0; stroke: #000000"/>
     <use xlink:href="#m5b89e86955" x="295.2" y="302.726652" style="fill-opacity: 0; stroke: #000000"/>
     <use xlink:href="#m5b89e86955" x="295.2" y="309.455715" style="fill-opacity: 0; stroke: #000000"/>
     <use xlink:href="#m5b89e86955" x="295.2" y="310.698638" style="fill-opacity: 0; stroke: #000000"/>
     <use xlink:href="#m5b89e86955" x="295.2" y="317.984869" style="fill-opacity: 0; stroke: #000000"/>
     <use xlink:href="#m5b89e86955" x="295.2" y="317.50384" style="fill-opacity: 0; stroke: #000000"/>
     <use xlink:href="#m5b89e86955" x="295.2" y="95.13986" style="fill-opacity: 0; stroke: #000000"/>
     <use xlink:href="#m5b89e86955" x="295.2" y="127.030952" style="fill-opacity: 0; stroke: #000000"/>
     <use xlink:href="#m5b89e86955" x="295.2" y="307.16206" style="fill-opacity: 0; stroke: #000000"/>
     <use xlink:href="#m5b89e86955" x="295.2" y="315.064082" style="fill-opacity: 0; stroke: #000000"/>
     <use xlink:href="#m5b89e86955" x="295.2" y="300.52969" style="fill-opacity: 0; stroke: #000000"/>
     <use xlink:href="#m5b89e86955" x="295.2" y="89.696485" style="fill-opacity: 0; stroke: #000000"/>
     <use xlink:href="#m5b89e86955" x="295.2" y="113.974955" style="fill-opacity: 0; stroke: #000000"/>
     <use xlink:href="#m5b89e86955" x="295.2" y="300.39596" style="fill-opacity: 0; stroke: #000000"/>
     <use xlink:href="#m5b89e86955" x="295.2" y="285.831939" style="fill-opacity: 0; stroke: #000000"/>
     <use xlink:href="#m5b89e86955" x="295.2" y="306.031244" style="fill-opacity: 0; stroke: #000000"/>
    </g>
   </g>
   <g id="line2d_13">
    <path d="M 250.56 343.514421 
L 339.84 343.514421 
" clip-path="url(#p7500353344)" style="fill: none; stroke: #ff7f0e"/>
   </g>
   <g id="patch_4">
    <path d="M 72 384.48 
L 72 51.84 
" style="fill: none; stroke: #000000; stroke-width: 0.8; stroke-linejoin: miter; stroke-linecap: square"/>
   </g>
   <g id="patch_5">
    <path d="M 518.4 384.48 
L 518.4 51.84 
" style="fill: none; stroke: #000000; stroke-width: 0.8; stroke-linejoin: miter; stroke-linecap: square"/>
   </g>
   <g id="patch_6">
    <path d="M 72 384.48 
L 518.4 384.48 
" style="fill: none; stroke: #000000; stroke-width: 0.8; stroke-linejoin: miter; stroke-linecap: square"/>
   </g>
   <g id="patch_7">
    <path d="M 72 51.84 
L 518.4 51.84 
" style="fill: none; stroke: #000000; stroke-width: 0.8; stroke-linejoin: miter; stroke-linecap: square"/>
   </g>
   <g id="text_9">
    <!-- Handle Result -->
    <g transform="translate(253.595625 45.84) scale(0.12 -0.12)">
     <defs>
      <path id="DejaVuSans-48" d="M 628 4666 
L 1259 4666 
L 1259 2753 
L 3553 2753 
L 3553 4666 
L 4184 4666 
L 4184 0 
L 3553 0 
L 3553 2222 
L 1259 2222 
L 1259 0 
L 628 0 
L 628 4666 
z
" transform="scale(0.015625)"/>
      <path id="DejaVuSans-61" d="M 2194 1759 
Q 1497 1759 1228 1600 
Q 959 1441 959 1056 
Q 959 750 1161 570 
Q 1363 391 1709 391 
Q 2188 391 2477 730 
Q 2766 1069 2766 1631 
L 2766 1759 
L 2194 1759 
z
M 3341 1997 
L 3341 0 
L 2766 0 
L 2766 531 
Q 2569 213 2275 61 
Q 1981 -91 1556 -91 
Q 1019 -91 701 211 
Q 384 513 384 1019 
Q 384 1609 779 1909 
Q 1175 2209 1959 2209 
L 2766 2209 
L 2766 2266 
Q 2766 2663 2505 2880 
Q 2244 3097 1772 3097 
Q 1472 3097 1187 3025 
Q 903 2953 641 2809 
L 641 3341 
Q 956 3463 1253 3523 
Q 1550 3584 1831 3584 
Q 2591 3584 2966 3190 
Q 3341 2797 3341 1997 
z
" transform="scale(0.015625)"/>
      <path id="DejaVuSans-6e" d="M 3513 2113 
L 3513 0 
L 2938 0 
L 2938 2094 
Q 2938 2591 2744 2837 
Q 2550 3084 2163 3084 
Q 1697 3084 1428 2787 
Q 1159 2491 1159 1978 
L 1159 0 
L 581 0 
L 581 3500 
L 1159 3500 
L 1159 2956 
Q 1366 3272 1645 3428 
Q 1925 3584 2291 3584 
Q 2894 3584 3203 3211 
Q 3513 2838 3513 2113 
z
" transform="scale(0.015625)"/>
      <path id="DejaVuSans-64" d="M 2906 2969 
L 2906 4863 
L 3481 4863 
L 3481 0 
L 2906 0 
L 2906 525 
Q 2725 213 2448 61 
Q 2172 -91 1784 -91 
Q 1150 -91 751 415 
Q 353 922 353 1747 
Q 353 2572 751 3078 
Q 1150 3584 1784 3584 
Q 2172 3584 2448 3432 
Q 2725 3281 2906 2969 
z
M 947 1747 
Q 947 1113 1208 752 
Q 1469 391 1925 391 
Q 2381 391 2643 752 
Q 2906 1113 2906 1747 
Q 2906 2381 2643 2742 
Q 2381 3103 1925 3103 
Q 1469 3103 1208 2742 
Q 947 2381 947 1747 
z
" transform="scale(0.015625)"/>
      <path id="DejaVuSans-6c" d="M 603 4863 
L 1178 4863 
L 1178 0 
L 603 0 
L 603 4863 
z
" transform="scale(0.015625)"/>
      <path id="DejaVuSans-52" d="M 2841 2188 
Q 3044 2119 3236 1894 
Q 3428 1669 3622 1275 
L 4263 0 
L 3584 0 
L 2988 1197 
Q 2756 1666 2539 1819 
Q 2322 1972 1947 1972 
L 1259 1972 
L 1259 0 
L 628 0 
L 628 4666 
L 2053 4666 
Q 2853 4666 3247 4331 
Q 3641 3997 3641 3322 
Q 3641 2881 3436 2590 
Q 3231 2300 2841 2188 
z
M 1259 4147 
L 1259 2491 
L 2053 2491 
Q 2509 2491 2742 2702 
Q 2975 2913 2975 3322 
Q 2975 3731 2742 3939 
Q 2509 4147 2053 4147 
L 1259 4147 
z
" transform="scale(0.015625)"/>
      <path id="DejaVuSans-75" d="M 544 1381 
L 544 3500 
L 1119 3500 
L 1119 1403 
Q 1119 906 1312 657 
Q 1506 409 1894 409 
Q 2359 409 2629 706 
Q 2900 1003 2900 1516 
L 2900 3500 
L 3475 3500 
L 3475 0 
L 2900 0 
L 2900 538 
Q 2691 219 2414 64 
Q 2138 -91 1772 -91 
Q 1169 -91 856 284 
Q 544 659 544 1381 
z
M 1991 3584 
L 1991 3584 
z
" transform="scale(0.015625)"/>
      <path id="DejaVuSans-74" d="M 1172 4494 
L 1172 3500 
L 2356 3500 
L 2356 3053 
L 1172 3053 
L 1172 1153 
Q 1172 725 1289 603 
Q 1406 481 1766 481 
L 2356 481 
L 2356 0 
L 1766 0 
Q 1100 0 847 248 
Q 594 497 594 1153 
L 594 3053 
L 172 3053 
L 172 3500 
L 594 3500 
L 594 4494 
L 1172 4494 
z
" transform="scale(0.015625)"/>
     </defs>
     <use xlink:href="#DejaVuSans-48"/>
     <use xlink:href="#DejaVuSans-61" transform="translate(75.195312 0)"/>
     <use xlink:href="#DejaVuSans-6e" transform="translate(136.474609 0)"/>
     <use xlink:href="#DejaVuSans-64" transform="translate(199.853516 0)"/>
     <use xlink:href="#DejaVuSans-6c" transform="translate(263.330078 0)"/>
     <use xlink:href="#DejaVuSans-65" transform="translate(291.113281 0)"/>
     <use xlink:href="#DejaVuSans-20" transform="translate(352.636719 0)"/>
     <use xlink:href="#DejaVuSans-52" transform="translate(384.423828 0)"/>
     <use xlink:href="#DejaVuSans-65" transform="translate(449.40625 0)"/>
     <use xlink:href="#DejaVuSans-73" transform="translate(510.929688 0)"/>
     <use xlink:href="#DejaVuSans-75" transform="translate(563.029297 0)"/>
     <use xlink:href="#DejaVuSans-6c" transform="translate(626.408203 0)"/>
     <use xlink:href="#DejaVuSans-74" transform="translate(654.191406 0)"/>
    </g>
   </g>
  </g>
 </g>
 <defs>
  <clipPath id="p7500353344">
   <rect x="72" y="51.84" width="446.4" height="332.64"/>
  </clipPath>
 </defs>
</svg>
