<?xml version="1.0" encoding="utf-8" standalone="no"?>
<!DOCTYPE svg PUBLIC "-//W3C//DTD SVG 1.1//EN"
  "http://www.w3.org/Graphics/SVG/1.1/DTD/svg11.dtd">
<svg xmlns:xlink="http://www.w3.org/1999/xlink" width="576pt" height="432pt" viewBox="0 0 576 432" xmlns="http://www.w3.org/2000/svg" version="1.1">
 <metadata>
  <rdf:RDF xmlns:dc="http://purl.org/dc/elements/1.1/" xmlns:cc="http://creativecommons.org/ns#" xmlns:rdf="http://www.w3.org/1999/02/22-rdf-syntax-ns#">
   <cc:Work>
    <dc:type rdf:resource="http://purl.org/dc/dcmitype/StillImage"/>
    <dc:date>2025-09-30T20:43:12.815824</dc:date>
    <dc:format>image/svg+xml</dc:format>
    <dc:creator>
     <cc:Agent>
      <dc:title>Matplotlib v3.10.3, https://matplotlib.org/</dc:title>
     </cc:Agent>
    </dc:creator>
   </cc:Work>
  </rdf:RDF>
 </metadata>
 <defs>
  <style type="text/css">*{stroke-linejoin: round; stroke-linecap: butt}</style>
 </defs>
 <g id="figure_1">
  <g id="patch_1">
   <path d="M 0 432 
L 576 432 
L 576 0 
L 0 0 
z
" style="fill: #ffffff"/>
  </g>
  <g id="axes_1">
   <g id="patch_2">
    <path d="M 72 384.48 
L 518.4 384.48 
L 518.4 51.84 
L 72 51.84 
z
" style="fill: #ffffff"/>
   </g>
   <g id="FillBetweenPolyCollection_1">
    <path d="M 406.8 384.395778 
L 183.6 384.395778 
L 184.423987 381.196588 
L 192.747246 377.997398 
L 206.832877 374.798208 
L 224.036481 371.599019 
L 241.61066 368.399829 
L 257.392461 365.200639 
L 270.152115 362.001449 
L 279.573496 358.80226 
L 285.990797 355.60307 
L 290.055746 352.40388 
L 292.467126 349.20469 
L 293.815139 346.0055 
L 294.529109 342.806311 
L 294.888913 339.607121 
L 295.06192 336.407931 
L 295.141388 333.208741 
L 295.176248 330.009552 
L 295.190831 326.810362 
L 295.196635 323.611172 
L 295.198829 320.411982 
L 295.199614 317.212792 
L 295.19988 314.013603 
L 295.199965 310.814413 
L 295.19999 307.615223 
L 295.199997 304.416033 
L 295.199999 301.216843 
L 295.2 298.017654 
L 295.2 294.818464 
L 295.2 291.619274 
L 295.2 288.420084 
L 295.2 285.220895 
L 295.2 282.021705 
L 295.2 278.822515 
L 295.2 275.623325 
L 295.2 272.424135 
L 295.2 269.224946 
L 295.2 266.025756 
L 295.199999 262.826566 
L 295.199995 259.627376 
L 295.199981 256.428187 
L 295.199934 253.228997 
L 295.199791 250.029807 
L 295.199381 246.830617 
L 295.198294 243.631427 
L 295.195617 240.432238 
L 295.189509 237.233048 
L 295.176597 234.033858 
L 295.151331 230.834668 
L 295.105605 227.635479 
L 295.029189 224.436289 
L 294.911509 221.237099 
L 294.74504 218.037909 
L 294.529772 214.838719 
L 294.277299 211.63953 
L 294.012422 208.44034 
L 293.770478 205.24115 
L 293.590119 202.04196 
L 293.503328 198.84277 
L 293.526203 195.643581 
L 293.654111 192.444391 
L 293.863216 189.245201 
L 294.117684 186.046011 
L 294.3796 182.846822 
L 294.617882 179.647632 
L 294.81344 176.448442 
L 294.959826 173.249252 
L 295.060428 170.050062 
L 295.124164 166.850873 
L 295.161487 163.651683 
L 295.181727 160.452493 
L 295.191903 157.253303 
L 295.196651 154.054114 
L 295.198707 150.854924 
L 295.199533 147.655734 
L 295.19984 144.456544 
L 295.199937 141.257354 
L 295.199937 138.058165 
L 295.199842 134.858975 
L 295.199545 131.659785 
L 295.198754 128.460595 
L 295.196808 125.261405 
L 295.192363 122.062216 
L 295.182927 118.863026 
L 295.164329 115.663836 
L 295.130311 112.464646 
L 295.072635 109.265457 
L 294.982132 106.066267 
L 294.850995 102.867077 
L 294.676122 99.667887 
L 294.462626 96.468697 
L 294.22605 93.269508 
L 293.991779 90.070318 
L 293.790951 86.871128 
L 293.653599 83.671938 
L 293.601133 80.472749 
L 293.640841 77.273559 
L 293.764354 74.074369 
L 293.950484 70.875179 
L 294.171118 67.675989 
L 296.228882 67.675989 
L 296.228882 67.675989 
L 296.449516 70.875179 
L 296.635646 74.074369 
L 296.759159 77.273559 
L 296.798867 80.472749 
L 296.746401 83.671938 
L 296.609049 86.871128 
L 296.408221 90.070318 
L 296.17395 93.269508 
L 295.937374 96.468697 
L 295.723878 99.667887 
L 295.549005 102.867077 
L 295.417868 106.066267 
L 295.327365 109.265457 
L 295.269689 112.464646 
L 295.235671 115.663836 
L 295.217073 118.863026 
L 295.207637 122.062216 
L 295.203192 125.261405 
L 295.201246 128.460595 
L 295.200455 131.659785 
L 295.200158 134.858975 
L 295.200063 138.058165 
L 295.200063 141.257354 
L 295.20016 144.456544 
L 295.200467 147.655734 
L 295.201293 150.854924 
L 295.203349 154.054114 
L 295.208097 157.253303 
L 295.218273 160.452493 
L 295.238513 163.651683 
L 295.275836 166.850873 
L 295.339572 170.050062 
L 295.440174 173.249252 
L 295.58656 176.448442 
L 295.782118 179.647632 
L 296.0204 182.846822 
L 296.282316 186.046011 
L 296.536784 189.245201 
L 296.745889 192.444391 
L 296.873797 195.643581 
L 296.896672 198.84277 
L 296.809881 202.04196 
L 296.629522 205.24115 
L 296.387578 208.44034 
L 296.122701 211.63953 
L 295.870228 214.838719 
L 295.65496 218.037909 
L 295.488491 221.237099 
L 295.370811 224.436289 
L 295.294395 227.635479 
L 295.248669 230.834668 
L 295.223403 234.033858 
L 295.210491 237.233048 
L 295.204383 240.432238 
L 295.201706 243.631427 
L 295.200619 246.830617 
L 295.200209 250.029807 
L 295.200066 253.228997 
L 295.200019 256.428187 
L 295.200005 259.627376 
L 295.200001 262.826566 
L 295.2 266.025756 
L 295.2 269.224946 
L 295.2 272.424135 
L 295.2 275.623325 
L 295.2 278.822515 
L 295.2 282.021705 
L 295.2 285.220895 
L 295.2 288.420084 
L 295.2 291.619274 
L 295.2 294.818464 
L 295.2 298.017654 
L 295.200001 301.216843 
L 295.200003 304.416033 
L 295.20001 307.615223 
L 295.200035 310.814413 
L 295.20012 314.013603 
L 295.200386 317.212792 
L 295.201171 320.411982 
L 295.203365 323.611172 
L 295.209169 326.810362 
L 295.223752 330.009552 
L 295.258612 333.208741 
L 295.33808 336.407931 
L 295.511087 339.607121 
L 295.870891 342.806311 
L 296.584861 346.0055 
L 297.932874 349.20469 
L 300.344254 352.40388 
L 304.409203 355.60307 
L 310.826504 358.80226 
L 320.247885 362.001449 
L 333.007539 365.200639 
L 348.78934 368.399829 
L 366.363519 371.599019 
L 383.567123 374.798208 
L 397.652754 377.997398 
L 405.976013 381.196588 
L 406.8 384.395778 
z
" clip-path="url(#p761a56f5c6)" style="fill: #1f77b4; fill-opacity: 0.3"/>
   </g>
   <g id="matplotlib.axis_1">
    <g id="xtick_1">
     <g id="line2d_1">
      <defs>
       <path id="m345006730b" d="M 0 0 
L 0 3.5 
" style="stroke: #000000; stroke-width: 0.8"/>
      </defs>
      <g>
       <use xlink:href="#m345006730b" x="295.2" y="384.48" style="stroke: #000000; stroke-width: 0.8"/>
      </g>
     </g>
     <g id="text_1">
      <!-- 1 -->
      <g transform="translate(292.01875 399.078438) scale(0.1 -0.1)">
       <defs>
        <path id="DejaVuSans-31" d="M 794 531 
L 1825 531 
L 1825 4091 
L 703 3866 
L 703 4441 
L 1819 4666 
L 2450 4666 
L 2450 531 
L 3481 531 
L 3481 0 
L 794 0 
L 794 531 
z
" transform="scale(0.015625)"/>
       </defs>
       <use xlink:href="#DejaVuSans-31"/>
      </g>
     </g>
    </g>
   </g>
   <g id="matplotlib.axis_2">
    <g id="ytick_1">
     <g id="line2d_2">
      <defs>
       <path id="m2bb20c3a46" d="M 0 0 
L -3.5 0 
" style="stroke: #000000; stroke-width: 0.8"/>
      </defs>
      <g>
       <use xlink:href="#m2bb20c3a46" x="72" y="384.48" style="stroke: #000000; stroke-width: 0.8"/>
      </g>
     </g>
     <g id="text_2">
      <!-- 0 -->
      <g transform="translate(58.6375 388.279219) scale(0.1 -0.1)">
       <defs>
        <path id="DejaVuSans-30" d="M 2034 4250 
Q 1547 4250 1301 3770 
Q 1056 3291 1056 2328 
Q 1056 1369 1301 889 
Q 1547 409 2034 409 
Q 2525 409 2770 889 
Q 3016 1369 3016 2328 
Q 3016 3291 2770 3770 
Q 2525 4250 2034 4250 
z
M 2034 4750 
Q 2819 4750 3233 4129 
Q 3647 3509 3647 2328 
Q 3647 1150 3233 529 
Q 2819 -91 2034 -91 
Q 1250 -91 836 529 
Q 422 1150 422 2328 
Q 422 3509 836 4129 
Q 1250 4750 2034 4750 
z
" transform="scale(0.015625)"/>
       </defs>
       <use xlink:href="#DejaVuSans-30"/>
      </g>
     </g>
    </g>
    <g id="ytick_2">
     <g id="line2d_3">
      <g>
       <use xlink:href="#m2bb20c3a46" x="72" y="341.306522" style="stroke: #000000; stroke-width: 0.8"/>
      </g>
     </g>
     <g id="text_3">
      <!-- 200 -->
      <g transform="translate(45.9125 345.105741) scale(0.1 -0.1)">
       <defs>
        <path id="DejaVuSans-32" d="M 1228 531 
L 3431 531 
L 3431 0 
L 469 0 
L 469 531 
Q 828 903 1448 1529 
Q 2069 2156 2228 2338 
Q 2531 2678 2651 2914 
Q 2772 3150 2772 3378 
Q 2772 3750 2511 3984 
Q 2250 4219 1831 4219 
Q 1534 4219 1204 4116 
Q 875 4013 500 3803 
L 500 4441 
Q 881 4594 1212 4672 
Q 1544 4750 1819 4750 
Q 2544 4750 2975 4387 
Q 3406 4025 3406 3419 
Q 3406 3131 3298 2873 
Q 3191 2616 2906 2266 
Q 2828 2175 2409 1742 
Q 1991 1309 1228 531 
z
" transform="scale(0.015625)"/>
       </defs>
       <use xlink:href="#DejaVuSans-32"/>
       <use xlink:href="#DejaVuSans-30" transform="translate(63.623047 0)"/>
       <use xlink:href="#DejaVuSans-30" transform="translate(127.246094 0)"/>
      </g>
     </g>
    </g>
    <g id="ytick_3">
     <g id="line2d_4">
      <g>
       <use xlink:href="#m2bb20c3a46" x="72" y="298.133045" style="stroke: #000000; stroke-width: 0.8"/>
      </g>
     </g>
     <g id="text_4">
      <!-- 400 -->
      <g transform="translate(45.9125 301.932263) scale(0.1 -0.1)">
       <defs>
        <path id="DejaVuSans-34" d="M 2419 4116 
L 825 1625 
L 2419 1625 
L 2419 4116 
z
M 2253 4666 
L 3047 4666 
L 3047 1625 
L 3713 1625 
L 3713 1100 
L 3047 1100 
L 3047 0 
L 2419 0 
L 2419 1100 
L 313 1100 
L 313 1709 
L 2253 4666 
z
" transform="scale(0.015625)"/>
       </defs>
       <use xlink:href="#DejaVuSans-34"/>
       <use xlink:href="#DejaVuSans-30" transform="translate(63.623047 0)"/>
       <use xlink:href="#DejaVuSans-30" transform="translate(127.246094 0)"/>
      </g>
     </g>
    </g>
    <g id="ytick_4">
     <g id="line2d_5">
      <g>
       <use xlink:href="#m2bb20c3a46" x="72" y="254.959567" style="stroke: #000000; stroke-width: 0.8"/>
      </g>
     </g>
     <g id="text_5">
      <!-- 600 -->
      <g transform="translate(45.9125 258.758786) scale(0.1 -0.1)">
       <defs>
        <path id="DejaVuSans-36" d="M 2113 2584 
Q 1688 2584 1439 2293 
Q 1191 2003 1191 1497 
Q 1191 994 1439 701 
Q 1688 409 2113 409 
Q 2538 409 2786 701 
Q 3034 994 3034 1497 
Q 3034 2003 2786 2293 
Q 2538 2584 2113 2584 
z
M 3366 4563 
L 3366 3988 
Q 3128 4100 2886 4159 
Q 2644 4219 2406 4219 
Q 1781 4219 1451 3797 
Q 1122 3375 1075 2522 
Q 1259 2794 1537 2939 
Q 1816 3084 2150 3084 
Q 2853 3084 3261 2657 
Q 3669 2231 3669 1497 
Q 3669 778 3244 343 
Q 2819 -91 2113 -91 
Q 1303 -91 875 529 
Q 447 1150 447 2328 
Q 447 3434 972 4092 
Q 1497 4750 2381 4750 
Q 2619 4750 2861 4703 
Q 3103 4656 3366 4563 
z
" transform="scale(0.015625)"/>
       </defs>
       <use xlink:href="#DejaVuSans-36"/>
       <use xlink:href="#DejaVuSans-30" transform="translate(63.623047 0)"/>
       <use xlink:href="#DejaVuSans-30" transform="translate(127.246094 0)"/>
      </g>
     </g>
    </g>
    <g id="ytick_5">
     <g id="line2d_6">
      <g>
       <use xlink:href="#m2bb20c3a46" x="72" y="211.786089" style="stroke: #000000; stroke-width: 0.8"/>
      </g>
     </g>
     <g id="text_6">
      <!-- 800 -->
      <g transform="translate(45.9125 215.585308) scale(0.1 -0.1)">
       <defs>
        <path id="DejaVuSans-38" d="M 2034 2216 
Q 1584 2216 1326 1975 
Q 1069 1734 1069 1313 
Q 1069 891 1326 650 
Q 1584 409 2034 409 
Q 2484 409 2743 651 
Q 3003 894 3003 1313 
Q 3003 1734 2745 1975 
Q 2488 2216 2034 2216 
z
M 1403 2484 
Q 997 2584 770 2862 
Q 544 3141 544 3541 
Q 544 4100 942 4425 
Q 1341 4750 2034 4750 
Q 2731 4750 3128 4425 
Q 3525 4100 3525 3541 
Q 3525 3141 3298 2862 
Q 3072 2584 2669 2484 
Q 3125 2378 3379 2068 
Q 3634 1759 3634 1313 
Q 3634 634 3220 271 
Q 2806 -91 2034 -91 
Q 1263 -91 848 271 
Q 434 634 434 1313 
Q 434 1759 690 2068 
Q 947 2378 1403 2484 
z
M 1172 3481 
Q 1172 3119 1398 2916 
Q 1625 2713 2034 2713 
Q 2441 2713 2670 2916 
Q 2900 3119 2900 3481 
Q 2900 3844 2670 4047 
Q 2441 4250 2034 4250 
Q 1625 4250 1398 4047 
Q 1172 3844 1172 3481 
z
" transform="scale(0.015625)"/>
       </defs>
       <use xlink:href="#DejaVuSans-38"/>
       <use xlink:href="#DejaVuSans-30" transform="translate(63.623047 0)"/>
       <use xlink:href="#DejaVuSans-30" transform="translate(127.246094 0)"/>
      </g>
     </g>
    </g>
    <g id="ytick_6">
     <g id="line2d_7">
      <g>
       <use xlink:href="#m2bb20c3a46" x="72" y="168.612612" style="stroke: #000000; stroke-width: 0.8"/>
      </g>
     </g>
     <g id="text_7">
      <!-- 1000 -->
      <g transform="translate(39.55 172.411831) scale(0.1 -0.1)">
       <use xlink:href="#DejaVuSans-31"/>
       <use xlink:href="#DejaVuSans-30" transform="translate(63.623047 0)"/>
       <use xlink:href="#DejaVuSans-30" transform="translate(127.246094 0)"/>
       <use xlink:href="#DejaVuSans-30" transform="translate(190.869141 0)"/>
      </g>
     </g>
    </g>
    <g id="ytick_7">
     <g id="line2d_8">
      <g>
       <use xlink:href="#m2bb20c3a46" x="72" y="125.439134" style="stroke: #000000; stroke-width: 0.8"/>
      </g>
     </g>
     <g id="text_8">
      <!-- 1200 -->
      <g transform="translate(39.55 129.238353) scale(0.1 -0.1)">
       <use xlink:href="#DejaVuSans-31"/>
       <use xlink:href="#DejaVuSans-32" transform="translate(63.623047 0)"/>
       <use xlink:href="#DejaVuSans-30" transform="translate(127.246094 0)"/>
       <use xlink:href="#DejaVuSans-30" transform="translate(190.869141 0)"/>
      </g>
     </g>
    </g>
    <g id="ytick_8">
     <g id="line2d_9">
      <g>
       <use xlink:href="#m2bb20c3a46" x="72" y="82.265656" style="stroke: #000000; stroke-width: 0.8"/>
      </g>
     </g>
     <g id="text_9">
      <!-- 1400 -->
      <g transform="translate(39.55 86.064875) scale(0.1 -0.1)">
       <use xlink:href="#DejaVuSans-31"/>
       <use xlink:href="#DejaVuSans-34" transform="translate(63.623047 0)"/>
       <use xlink:href="#DejaVuSans-30" transform="translate(127.246094 0)"/>
       <use xlink:href="#DejaVuSans-30" transform="translate(190.869141 0)"/>
      </g>
     </g>
    </g>
    <g id="text_10">
     <!-- Time (ms) -->
     <g transform="translate(33.470312 243.359219) rotate(-90) scale(0.1 -0.1)">
      <defs>
       <path id="DejaVuSans-54" d="M -19 4666 
L 3928 4666 
L 3928 4134 
L 2272 4134 
L 2272 0 
L 1638 0 
L 1638 4134 
L -19 4134 
L -19 4666 
z
" transform="scale(0.015625)"/>
       <path id="DejaVuSans-69" d="M 603 3500 
L 1178 3500 
L 1178 0 
L 603 0 
L 603 3500 
z
M 603 4863 
L 1178 4863 
L 1178 4134 
L 603 4134 
L 603 4863 
z
" transform="scale(0.015625)"/>
       <path id="DejaVuSans-6d" d="M 3328 2828 
Q 3544 3216 3844 3400 
Q 4144 3584 4550 3584 
Q 5097 3584 5394 3201 
Q 5691 2819 5691 2113 
L 5691 0 
L 5113 0 
L 5113 2094 
Q 5113 2597 4934 2840 
Q 4756 3084 4391 3084 
Q 3944 3084 3684 2787 
Q 3425 2491 3425 1978 
L 3425 0 
L 2847 0 
L 2847 2094 
Q 2847 2600 2669 2842 
Q 2491 3084 2119 3084 
Q 1678 3084 1418 2786 
Q 1159 2488 1159 1978 
L 1159 0 
L 581 0 
L 581 3500 
L 1159 3500 
L 1159 2956 
Q 1356 3278 1631 3431 
Q 1906 3584 2284 3584 
Q 2666 3584 2933 3390 
Q 3200 3197 3328 2828 
z
" transform="scale(0.015625)"/>
       <path id="DejaVuSans-65" d="M 3597 1894 
L 3597 1613 
L 953 1613 
Q 991 1019 1311 708 
Q 1631 397 2203 397 
Q 2534 397 2845 478 
Q 3156 559 3463 722 
L 3463 178 
Q 3153 47 2828 -22 
Q 2503 -91 2169 -91 
Q 1331 -91 842 396 
Q 353 884 353 1716 
Q 353 2575 817 3079 
Q 1281 3584 2069 3584 
Q 2775 3584 3186 3129 
Q 3597 2675 3597 1894 
z
M 3022 2063 
Q 3016 2534 2758 2815 
Q 2500 3097 2075 3097 
Q 1594 3097 1305 2825 
Q 1016 2553 972 2059 
L 3022 2063 
z
" transform="scale(0.015625)"/>
       <path id="DejaVuSans-20" transform="scale(0.015625)"/>
       <path id="DejaVuSans-28" d="M 1984 4856 
Q 1566 4138 1362 3434 
Q 1159 2731 1159 2009 
Q 1159 1288 1364 580 
Q 1569 -128 1984 -844 
L 1484 -844 
Q 1016 -109 783 600 
Q 550 1309 550 2009 
Q 550 2706 781 3412 
Q 1013 4119 1484 4856 
L 1984 4856 
z
" transform="scale(0.015625)"/>
       <path id="DejaVuSans-73" d="M 2834 3397 
L 2834 2853 
Q 2591 2978 2328 3040 
Q 2066 3103 1784 3103 
Q 1356 3103 1142 2972 
Q 928 2841 928 2578 
Q 928 2378 1081 2264 
Q 1234 2150 1697 2047 
L 1894 2003 
Q 2506 1872 2764 1633 
Q 3022 1394 3022 966 
Q 3022 478 2636 193 
Q 2250 -91 1575 -91 
Q 1294 -91 989 -36 
Q 684 19 347 128 
L 347 722 
Q 666 556 975 473 
Q 1284 391 1588 391 
Q 1994 391 2212 530 
Q 2431 669 2431 922 
Q 2431 1156 2273 1281 
Q 2116 1406 1581 1522 
L 1381 1569 
Q 847 1681 609 1914 
Q 372 2147 372 2553 
Q 372 3047 722 3315 
Q 1072 3584 1716 3584 
Q 2034 3584 2315 3537 
Q 2597 3491 2834 3397 
z
" transform="scale(0.015625)"/>
       <path id="DejaVuSans-29" d="M 513 4856 
L 1013 4856 
Q 1481 4119 1714 3412 
Q 1947 2706 1947 2009 
Q 1947 1309 1714 600 
Q 1481 -109 1013 -844 
L 513 -844 
Q 928 -128 1133 580 
Q 1338 1288 1338 2009 
Q 1338 2731 1133 3434 
Q 928 4138 513 4856 
z
" transform="scale(0.015625)"/>
      </defs>
      <use xlink:href="#DejaVuSans-54"/>
      <use xlink:href="#DejaVuSans-69" transform="translate(57.958984 0)"/>
      <use xlink:href="#DejaVuSans-6d" transform="translate(85.742188 0)"/>
      <use xlink:href="#DejaVuSans-65" transform="translate(183.154297 0)"/>
      <use xlink:href="#DejaVuSans-20" transform="translate(244.677734 0)"/>
      <use xlink:href="#DejaVuSans-28" transform="translate(276.464844 0)"/>
      <use xlink:href="#DejaVuSans-6d" transform="translate(315.478516 0)"/>
      <use xlink:href="#DejaVuSans-73" transform="translate(412.890625 0)"/>
      <use xlink:href="#DejaVuSans-29" transform="translate(464.990234 0)"/>
     </g>
    </g>
   </g>
   <g id="LineCollection_1">
    <path d="M 239.4 375.461806 
L 351 375.461806 
" clip-path="url(#p761a56f5c6)" style="fill: none; stroke: #1f77b4; stroke-width: 1.5"/>
   </g>
   <g id="LineCollection_2">
    <path d="M 239.4 67.675989 
L 351 67.675989 
" clip-path="url(#p761a56f5c6)" style="fill: none; stroke: #1f77b4; stroke-width: 1.5"/>
   </g>
   <g id="LineCollection_3">
    <path d="M 239.4 384.395778 
L 351 384.395778 
" clip-path="url(#p761a56f5c6)" style="fill: none; stroke: #1f77b4; stroke-width: 1.5"/>
   </g>
   <g id="LineCollection_4">
    <path d="M 295.2 384.395778 
L 295.2 67.675989 
" clip-path="url(#p761a56f5c6)" style="fill: none; stroke: #1f77b4; stroke-width: 1.5"/>
   </g>
   <g id="patch_3">
    <path d="M 250.56 383.645831 
L 339.84 383.645831 
L 339.84 383.207728 
L 250.56 383.207728 
L 250.56 383.645831 
z
" clip-path="url(#p761a56f5c6)" style="fill: #1f77b4; stroke: #000000; stroke-linejoin: miter"/>
   </g>
   <g id="line2d_10">
    <path d="M 295.2 383.645831 
L 295.2 384.289344 
" clip-path="url(#p761a56f5c6)" style="fill: none; stroke: #000000; stroke-linecap: square"/>
   </g>
   <g id="line2d_11">
    <path d="M 295.2 383.207728 
L 295.2 382.603124 
" clip-path="url(#p761a56f5c6)" style="fill: none; stroke: #000000; stroke-linecap: square"/>
   </g>
   <g id="line2d_12">
    <path d="M 272.88 384.289344 
L 317.52 384.289344 
" clip-path="url(#p761a56f5c6)" style="fill: none; stroke: #000000; stroke-linecap: square"/>
   </g>
   <g id="line2d_13">
    <path d="M 272.88 382.603124 
L 317.52 382.603124 
" clip-path="url(#p761a56f5c6)" style="fill: none; stroke: #000000; stroke-linecap: square"/>
   </g>
   <g id="line2d_14">
    <defs>
     <path id="m881ac95d46" d="M 0 3 
C 0.795609 3 1.55874 2.683901 2.12132 2.12132 
C 2.683901 1.55874 3 0.795609 3 0 
C 3 -0.795609 2.683901 -1.55874 2.12132 -2.12132 
C 1.55874 -2.683901 0.795609 -3 0 -3 
C -0.795609 -3 -1.55874 -2.683901 -2.12132 -2.12132 
C -2.683901 -1.55874 -3 -0.795609 -3 0 
C -3 0.795609 -2.683901 1.55874 -2.12132 2.12132 
C -1.55874 2.683901 -0.795609 3 0 3 
z
" style="stroke: #000000"/>
    </defs>
    <g clip-path="url(#p761a56f5c6)">
     <use xlink:href="#m881ac95d46" x="295.2" y="384.368224" style="fill-opacity: 0; stroke: #000000"/>
     <use xlink:href="#m881ac95d46" x="295.2" y="384.328529" style="fill-opacity: 0; stroke: #000000"/>
     <use xlink:href="#m881ac95d46" x="295.2" y="384.372088" style="fill-opacity: 0; stroke: #000000"/>
     <use xlink:href="#m881ac95d46" x="295.2" y="384.379281" style="fill-opacity: 0; stroke: #000000"/>
     <use xlink:href="#m881ac95d46" x="295.2" y="384.38634" style="fill-opacity: 0; stroke: #000000"/>
     <use xlink:href="#m881ac95d46" x="295.2" y="384.348223" style="fill-opacity: 0; stroke: #000000"/>
     <use xlink:href="#m881ac95d46" x="295.2" y="384.33414" style="fill-opacity: 0; stroke: #000000"/>
     <use xlink:href="#m881ac95d46" x="295.2" y="384.389951" style="fill-opacity: 0; stroke: #000000"/>
     <use xlink:href="#m881ac95d46" x="295.2" y="384.385513" style="fill-opacity: 0; stroke: #000000"/>
     <use xlink:href="#m881ac95d46" x="295.2" y="384.381303" style="fill-opacity: 0; stroke: #000000"/>
     <use xlink:href="#m881ac95d46" x="295.2" y="384.373046" style="fill-opacity: 0; stroke: #000000"/>
     <use xlink:href="#m881ac95d46" x="295.2" y="384.326783" style="fill-opacity: 0; stroke: #000000"/>
     <use xlink:href="#m881ac95d46" x="295.2" y="384.394826" style="fill-opacity: 0; stroke: #000000"/>
     <use xlink:href="#m881ac95d46" x="295.2" y="384.393999" style="fill-opacity: 0; stroke: #000000"/>
     <use xlink:href="#m881ac95d46" x="295.2" y="384.393453" style="fill-opacity: 0; stroke: #000000"/>
     <use xlink:href="#m881ac95d46" x="295.2" y="384.372126" style="fill-opacity: 0; stroke: #000000"/>
     <use xlink:href="#m881ac95d46" x="295.2" y="384.336822" style="fill-opacity: 0; stroke: #000000"/>
     <use xlink:href="#m881ac95d46" x="295.2" y="384.386777" style="fill-opacity: 0; stroke: #000000"/>
     <use xlink:href="#m881ac95d46" x="295.2" y="384.391203" style="fill-opacity: 0; stroke: #000000"/>
     <use xlink:href="#m881ac95d46" x="295.2" y="384.377942" style="fill-opacity: 0; stroke: #000000"/>
     <use xlink:href="#m881ac95d46" x="295.2" y="384.356219" style="fill-opacity: 0; stroke: #000000"/>
     <use xlink:href="#m881ac95d46" x="295.2" y="384.337805" style="fill-opacity: 0; stroke: #000000"/>
     <use xlink:href="#m881ac95d46" x="295.2" y="384.378016" style="fill-opacity: 0; stroke: #000000"/>
     <use xlink:href="#m881ac95d46" x="295.2" y="384.392863" style="fill-opacity: 0; stroke: #000000"/>
     <use xlink:href="#m881ac95d46" x="295.2" y="384.390105" style="fill-opacity: 0; stroke: #000000"/>
     <use xlink:href="#m881ac95d46" x="295.2" y="384.374145" style="fill-opacity: 0; stroke: #000000"/>
     <use xlink:href="#m881ac95d46" x="295.2" y="384.330759" style="fill-opacity: 0; stroke: #000000"/>
     <use xlink:href="#m881ac95d46" x="295.2" y="384.38931" style="fill-opacity: 0; stroke: #000000"/>
     <use xlink:href="#m881ac95d46" x="295.2" y="384.394441" style="fill-opacity: 0; stroke: #000000"/>
     <use xlink:href="#m881ac95d46" x="295.2" y="384.385131" style="fill-opacity: 0; stroke: #000000"/>
     <use xlink:href="#m881ac95d46" x="295.2" y="384.373131" style="fill-opacity: 0; stroke: #000000"/>
     <use xlink:href="#m881ac95d46" x="295.2" y="384.331694" style="fill-opacity: 0; stroke: #000000"/>
     <use xlink:href="#m881ac95d46" x="295.2" y="384.392673" style="fill-opacity: 0; stroke: #000000"/>
     <use xlink:href="#m881ac95d46" x="295.2" y="384.388265" style="fill-opacity: 0; stroke: #000000"/>
     <use xlink:href="#m881ac95d46" x="295.2" y="384.394083" style="fill-opacity: 0; stroke: #000000"/>
     <use xlink:href="#m881ac95d46" x="295.2" y="384.369133" style="fill-opacity: 0; stroke: #000000"/>
     <use xlink:href="#m881ac95d46" x="295.2" y="384.337049" style="fill-opacity: 0; stroke: #000000"/>
     <use xlink:href="#m881ac95d46" x="295.2" y="384.389479" style="fill-opacity: 0; stroke: #000000"/>
     <use xlink:href="#m881ac95d46" x="295.2" y="384.369178" style="fill-opacity: 0; stroke: #000000"/>
     <use xlink:href="#m881ac95d46" x="295.2" y="384.382651" style="fill-opacity: 0; stroke: #000000"/>
     <use xlink:href="#m881ac95d46" x="295.2" y="384.372174" style="fill-opacity: 0; stroke: #000000"/>
     <use xlink:href="#m881ac95d46" x="295.2" y="384.391121" style="fill-opacity: 0; stroke: #000000"/>
     <use xlink:href="#m881ac95d46" x="295.2" y="384.395778" style="fill-opacity: 0; stroke: #000000"/>
     <use xlink:href="#m881ac95d46" x="295.2" y="384.394103" style="fill-opacity: 0; stroke: #000000"/>
     <use xlink:href="#m881ac95d46" x="295.2" y="384.372755" style="fill-opacity: 0; stroke: #000000"/>
     <use xlink:href="#m881ac95d46" x="295.2" y="384.326759" style="fill-opacity: 0; stroke: #000000"/>
     <use xlink:href="#m881ac95d46" x="295.2" y="384.388814" style="fill-opacity: 0; stroke: #000000"/>
     <use xlink:href="#m881ac95d46" x="295.2" y="384.390152" style="fill-opacity: 0; stroke: #000000"/>
     <use xlink:href="#m881ac95d46" x="295.2" y="384.383814" style="fill-opacity: 0; stroke: #000000"/>
     <use xlink:href="#m881ac95d46" x="295.2" y="382.365251" style="fill-opacity: 0; stroke: #000000"/>
     <use xlink:href="#m881ac95d46" x="295.2" y="381.687407" style="fill-opacity: 0; stroke: #000000"/>
     <use xlink:href="#m881ac95d46" x="295.2" y="378.295363" style="fill-opacity: 0; stroke: #000000"/>
     <use xlink:href="#m881ac95d46" x="295.2" y="196.815345" style="fill-opacity: 0; stroke: #000000"/>
     <use xlink:href="#m881ac95d46" x="295.2" y="370.824639" style="fill-opacity: 0; stroke: #000000"/>
     <use xlink:href="#m881ac95d46" x="295.2" y="370.962134" style="fill-opacity: 0; stroke: #000000"/>
     <use xlink:href="#m881ac95d46" x="295.2" y="371.163368" style="fill-opacity: 0; stroke: #000000"/>
     <use xlink:href="#m881ac95d46" x="295.2" y="77.491193" style="fill-opacity: 0; stroke: #000000"/>
     <use xlink:href="#m881ac95d46" x="295.2" y="382.485813" style="fill-opacity: 0; stroke: #000000"/>
     <use xlink:href="#m881ac95d46" x="295.2" y="382.266153" style="fill-opacity: 0; stroke: #000000"/>
     <use xlink:href="#m881ac95d46" x="295.2" y="382.477899" style="fill-opacity: 0; stroke: #000000"/>
     <use xlink:href="#m881ac95d46" x="295.2" y="382.30283" style="fill-opacity: 0; stroke: #000000"/>
     <use xlink:href="#m881ac95d46" x="295.2" y="382.518303" style="fill-opacity: 0; stroke: #000000"/>
     <use xlink:href="#m881ac95d46" x="295.2" y="198.214915" style="fill-opacity: 0; stroke: #000000"/>
     <use xlink:href="#m881ac95d46" x="295.2" y="361.203219" style="fill-opacity: 0; stroke: #000000"/>
     <use xlink:href="#m881ac95d46" x="295.2" y="368.638342" style="fill-opacity: 0; stroke: #000000"/>
     <use xlink:href="#m881ac95d46" x="295.2" y="369.151866" style="fill-opacity: 0; stroke: #000000"/>
     <use xlink:href="#m881ac95d46" x="295.2" y="83.943678" style="fill-opacity: 0; stroke: #000000"/>
     <use xlink:href="#m881ac95d46" x="295.2" y="382.471871" style="fill-opacity: 0; stroke: #000000"/>
     <use xlink:href="#m881ac95d46" x="295.2" y="382.189774" style="fill-opacity: 0; stroke: #000000"/>
     <use xlink:href="#m881ac95d46" x="295.2" y="382.387001" style="fill-opacity: 0; stroke: #000000"/>
     <use xlink:href="#m881ac95d46" x="295.2" y="192.543402" style="fill-opacity: 0; stroke: #000000"/>
     <use xlink:href="#m881ac95d46" x="295.2" y="370.620602" style="fill-opacity: 0; stroke: #000000"/>
     <use xlink:href="#m881ac95d46" x="295.2" y="368.775895" style="fill-opacity: 0; stroke: #000000"/>
     <use xlink:href="#m881ac95d46" x="295.2" y="371.252845" style="fill-opacity: 0; stroke: #000000"/>
     <use xlink:href="#m881ac95d46" x="295.2" y="67.675989" style="fill-opacity: 0; stroke: #000000"/>
     <use xlink:href="#m881ac95d46" x="295.2" y="382.364355" style="fill-opacity: 0; stroke: #000000"/>
     <use xlink:href="#m881ac95d46" x="295.2" y="382.404622" style="fill-opacity: 0; stroke: #000000"/>
     <use xlink:href="#m881ac95d46" x="295.2" y="201.496633" style="fill-opacity: 0; stroke: #000000"/>
     <use xlink:href="#m881ac95d46" x="295.2" y="371.19148" style="fill-opacity: 0; stroke: #000000"/>
     <use xlink:href="#m881ac95d46" x="295.2" y="371.897085" style="fill-opacity: 0; stroke: #000000"/>
     <use xlink:href="#m881ac95d46" x="295.2" y="371.833471" style="fill-opacity: 0; stroke: #000000"/>
     <use xlink:href="#m881ac95d46" x="295.2" y="84.724386" style="fill-opacity: 0; stroke: #000000"/>
     <use xlink:href="#m881ac95d46" x="295.2" y="382.200436" style="fill-opacity: 0; stroke: #000000"/>
     <use xlink:href="#m881ac95d46" x="295.2" y="382.47773" style="fill-opacity: 0; stroke: #000000"/>
     <use xlink:href="#m881ac95d46" x="295.2" y="202.197035" style="fill-opacity: 0; stroke: #000000"/>
     <use xlink:href="#m881ac95d46" x="295.2" y="369.326254" style="fill-opacity: 0; stroke: #000000"/>
     <use xlink:href="#m881ac95d46" x="295.2" y="370.674969" style="fill-opacity: 0; stroke: #000000"/>
     <use xlink:href="#m881ac95d46" x="295.2" y="370.598449" style="fill-opacity: 0; stroke: #000000"/>
     <use xlink:href="#m881ac95d46" x="295.2" y="72.853436" style="fill-opacity: 0; stroke: #000000"/>
     <use xlink:href="#m881ac95d46" x="295.2" y="382.353516" style="fill-opacity: 0; stroke: #000000"/>
     <use xlink:href="#m881ac95d46" x="295.2" y="382.007575" style="fill-opacity: 0; stroke: #000000"/>
     <use xlink:href="#m881ac95d46" x="295.2" y="194.869474" style="fill-opacity: 0; stroke: #000000"/>
     <use xlink:href="#m881ac95d46" x="295.2" y="368.851234" style="fill-opacity: 0; stroke: #000000"/>
     <use xlink:href="#m881ac95d46" x="295.2" y="371.316043" style="fill-opacity: 0; stroke: #000000"/>
     <use xlink:href="#m881ac95d46" x="295.2" y="370.858288" style="fill-opacity: 0; stroke: #000000"/>
     <use xlink:href="#m881ac95d46" x="295.2" y="80.638642" style="fill-opacity: 0; stroke: #000000"/>
     <use xlink:href="#m881ac95d46" x="295.2" y="382.386376" style="fill-opacity: 0; stroke: #000000"/>
     <use xlink:href="#m881ac95d46" x="295.2" y="382.24907" style="fill-opacity: 0; stroke: #000000"/>
     <use xlink:href="#m881ac95d46" x="295.2" y="378.941605" style="fill-opacity: 0; stroke: #000000"/>
     <use xlink:href="#m881ac95d46" x="295.2" y="202.501126" style="fill-opacity: 0; stroke: #000000"/>
     <use xlink:href="#m881ac95d46" x="295.2" y="370.049303" style="fill-opacity: 0; stroke: #000000"/>
     <use xlink:href="#m881ac95d46" x="295.2" y="371.71552" style="fill-opacity: 0; stroke: #000000"/>
     <use xlink:href="#m881ac95d46" x="295.2" y="367.944286" style="fill-opacity: 0; stroke: #000000"/>
     <use xlink:href="#m881ac95d46" x="295.2" y="84.398297" style="fill-opacity: 0; stroke: #000000"/>
     <use xlink:href="#m881ac95d46" x="295.2" y="382.159097" style="fill-opacity: 0; stroke: #000000"/>
     <use xlink:href="#m881ac95d46" x="295.2" y="382.392779" style="fill-opacity: 0; stroke: #000000"/>
     <use xlink:href="#m881ac95d46" x="295.2" y="382.315893" style="fill-opacity: 0; stroke: #000000"/>
     <use xlink:href="#m881ac95d46" x="295.2" y="191.482419" style="fill-opacity: 0; stroke: #000000"/>
     <use xlink:href="#m881ac95d46" x="295.2" y="370.873136" style="fill-opacity: 0; stroke: #000000"/>
     <use xlink:href="#m881ac95d46" x="295.2" y="370.725932" style="fill-opacity: 0; stroke: #000000"/>
     <use xlink:href="#m881ac95d46" x="295.2" y="371.003461" style="fill-opacity: 0; stroke: #000000"/>
     <use xlink:href="#m881ac95d46" x="295.2" y="77.094648" style="fill-opacity: 0; stroke: #000000"/>
     <use xlink:href="#m881ac95d46" x="295.2" y="382.194583" style="fill-opacity: 0; stroke: #000000"/>
     <use xlink:href="#m881ac95d46" x="295.2" y="382.465135" style="fill-opacity: 0; stroke: #000000"/>
     <use xlink:href="#m881ac95d46" x="295.2" y="382.289007" style="fill-opacity: 0; stroke: #000000"/>
     <use xlink:href="#m881ac95d46" x="295.2" y="196.67798" style="fill-opacity: 0; stroke: #000000"/>
     <use xlink:href="#m881ac95d46" x="295.2" y="371.238244" style="fill-opacity: 0; stroke: #000000"/>
     <use xlink:href="#m881ac95d46" x="295.2" y="371.342308" style="fill-opacity: 0; stroke: #000000"/>
     <use xlink:href="#m881ac95d46" x="295.2" y="371.067241" style="fill-opacity: 0; stroke: #000000"/>
     <use xlink:href="#m881ac95d46" x="295.2" y="88.756214" style="fill-opacity: 0; stroke: #000000"/>
     <use xlink:href="#m881ac95d46" x="295.2" y="382.191859" style="fill-opacity: 0; stroke: #000000"/>
     <use xlink:href="#m881ac95d46" x="295.2" y="382.150044" style="fill-opacity: 0; stroke: #000000"/>
     <use xlink:href="#m881ac95d46" x="295.2" y="382.245486" style="fill-opacity: 0; stroke: #000000"/>
     <use xlink:href="#m881ac95d46" x="295.2" y="201.659046" style="fill-opacity: 0; stroke: #000000"/>
     <use xlink:href="#m881ac95d46" x="295.2" y="371.04243" style="fill-opacity: 0; stroke: #000000"/>
     <use xlink:href="#m881ac95d46" x="295.2" y="371.409187" style="fill-opacity: 0; stroke: #000000"/>
     <use xlink:href="#m881ac95d46" x="295.2" y="371.715623" style="fill-opacity: 0; stroke: #000000"/>
     <use xlink:href="#m881ac95d46" x="295.2" y="80.710888" style="fill-opacity: 0; stroke: #000000"/>
    </g>
   </g>
   <g id="line2d_15">
    <path d="M 250.56 383.518931 
L 339.84 383.518931 
" clip-path="url(#p761a56f5c6)" style="fill: none; stroke: #ff7f0e"/>
   </g>
   <g id="patch_4">
    <path d="M 72 384.48 
L 72 51.84 
" style="fill: none; stroke: #000000; stroke-width: 0.8; stroke-linejoin: miter; stroke-linecap: square"/>
   </g>
   <g id="patch_5">
    <path d="M 518.4 384.48 
L 518.4 51.84 
" style="fill: none; stroke: #000000; stroke-width: 0.8; stroke-linejoin: miter; stroke-linecap: square"/>
   </g>
   <g id="patch_6">
    <path d="M 72 384.48 
L 518.4 384.48 
" style="fill: none; stroke: #000000; stroke-width: 0.8; stroke-linejoin: miter; stroke-linecap: square"/>
   </g>
   <g id="patch_7">
    <path d="M 72 51.84 
L 518.4 51.84 
" style="fill: none; stroke: #000000; stroke-width: 0.8; stroke-linejoin: miter; stroke-linecap: square"/>
   </g>
   <g id="text_11">
    <!-- Next Faultload -->
    <g transform="translate(252.088125 45.84) scale(0.12 -0.12)">
     <defs>
      <path id="DejaVuSans-4e" d="M 628 4666 
L 1478 4666 
L 3547 763 
L 3547 4666 
L 4159 4666 
L 4159 0 
L 3309 0 
L 1241 3903 
L 1241 0 
L 628 0 
L 628 4666 
z
" transform="scale(0.015625)"/>
      <path id="DejaVuSans-78" d="M 3513 3500 
L 2247 1797 
L 3578 0 
L 2900 0 
L 1881 1375 
L 863 0 
L 184 0 
L 1544 1831 
L 300 3500 
L 978 3500 
L 1906 2253 
L 2834 3500 
L 3513 3500 
z
" transform="scale(0.015625)"/>
      <path id="DejaVuSans-74" d="M 1172 4494 
L 1172 3500 
L 2356 3500 
L 2356 3053 
L 1172 3053 
L 1172 1153 
Q 1172 725 1289 603 
Q 1406 481 1766 481 
L 2356 481 
L 2356 0 
L 1766 0 
Q 1100 0 847 248 
Q 594 497 594 1153 
L 594 3053 
L 172 3053 
L 172 3500 
L 594 3500 
L 594 4494 
L 1172 4494 
z
" transform="scale(0.015625)"/>
      <path id="DejaVuSans-46" d="M 628 4666 
L 3309 4666 
L 3309 4134 
L 1259 4134 
L 1259 2759 
L 3109 2759 
L 3109 2228 
L 1259 2228 
L 1259 0 
L 628 0 
L 628 4666 
z
" transform="scale(0.015625)"/>
      <path id="DejaVuSans-61" d="M 2194 1759 
Q 1497 1759 1228 1600 
Q 959 1441 959 1056 
Q 959 750 1161 570 
Q 1363 391 1709 391 
Q 2188 391 2477 730 
Q 2766 1069 2766 1631 
L 2766 1759 
L 2194 1759 
z
M 3341 1997 
L 3341 0 
L 2766 0 
L 2766 531 
Q 2569 213 2275 61 
Q 1981 -91 1556 -91 
Q 1019 -91 701 211 
Q 384 513 384 1019 
Q 384 1609 779 1909 
Q 1175 2209 1959 2209 
L 2766 2209 
L 2766 2266 
Q 2766 2663 2505 2880 
Q 2244 3097 1772 3097 
Q 1472 3097 1187 3025 
Q 903 2953 641 2809 
L 641 3341 
Q 956 3463 1253 3523 
Q 1550 3584 1831 3584 
Q 2591 3584 2966 3190 
Q 3341 2797 3341 1997 
z
" transform="scale(0.015625)"/>
      <path id="DejaVuSans-75" d="M 544 1381 
L 544 3500 
L 1119 3500 
L 1119 1403 
Q 1119 906 1312 657 
Q 1506 409 1894 409 
Q 2359 409 2629 706 
Q 2900 1003 2900 1516 
L 2900 3500 
L 3475 3500 
L 3475 0 
L 2900 0 
L 2900 538 
Q 2691 219 2414 64 
Q 2138 -91 1772 -91 
Q 1169 -91 856 284 
Q 544 659 544 1381 
z
M 1991 3584 
L 1991 3584 
z
" transform="scale(0.015625)"/>
      <path id="DejaVuSans-6c" d="M 603 4863 
L 1178 4863 
L 1178 0 
L 603 0 
L 603 4863 
z
" transform="scale(0.015625)"/>
      <path id="DejaVuSans-6f" d="M 1959 3097 
Q 1497 3097 1228 2736 
Q 959 2375 959 1747 
Q 959 1119 1226 758 
Q 1494 397 1959 397 
Q 2419 397 2687 759 
Q 2956 1122 2956 1747 
Q 2956 2369 2687 2733 
Q 2419 3097 1959 3097 
z
M 1959 3584 
Q 2709 3584 3137 3096 
Q 3566 2609 3566 1747 
Q 3566 888 3137 398 
Q 2709 -91 1959 -91 
Q 1206 -91 779 398 
Q 353 888 353 1747 
Q 353 2609 779 3096 
Q 1206 3584 1959 3584 
z
" transform="scale(0.015625)"/>
      <path id="DejaVuSans-64" d="M 2906 2969 
L 2906 4863 
L 3481 4863 
L 3481 0 
L 2906 0 
L 2906 525 
Q 2725 213 2448 61 
Q 2172 -91 1784 -91 
Q 1150 -91 751 415 
Q 353 922 353 1747 
Q 353 2572 751 3078 
Q 1150 3584 1784 3584 
Q 2172 3584 2448 3432 
Q 2725 3281 2906 2969 
z
M 947 1747 
Q 947 1113 1208 752 
Q 1469 391 1925 391 
Q 2381 391 2643 752 
Q 2906 1113 2906 1747 
Q 2906 2381 2643 2742 
Q 2381 3103 1925 3103 
Q 1469 3103 1208 2742 
Q 947 2381 947 1747 
z
" transform="scale(0.015625)"/>
     </defs>
     <use xlink:href="#DejaVuSans-4e"/>
     <use xlink:href="#DejaVuSans-65" transform="translate(74.804688 0)"/>
     <use xlink:href="#DejaVuSans-78" transform="translate(134.578125 0)"/>
     <use xlink:href="#DejaVuSans-74" transform="translate(193.757812 0)"/>
     <use xlink:href="#DejaVuSans-20" transform="translate(232.966797 0)"/>
     <use xlink:href="#DejaVuSans-46" transform="translate(264.753906 0)"/>
     <use xlink:href="#DejaVuSans-61" transform="translate(313.148438 0)"/>
     <use xlink:href="#DejaVuSans-75" transform="translate(374.427734 0)"/>
     <use xlink:href="#DejaVuSans-6c" transform="translate(437.806641 0)"/>
     <use xlink:href="#DejaVuSans-74" transform="translate(465.589844 0)"/>
     <use xlink:href="#DejaVuSans-6c" transform="translate(504.798828 0)"/>
     <use xlink:href="#DejaVuSans-6f" transform="translate(532.582031 0)"/>
     <use xlink:href="#DejaVuSans-61" transform="translate(593.763672 0)"/>
     <use xlink:href="#DejaVuSans-64" transform="translate(655.042969 0)"/>
    </g>
   </g>
  </g>
 </g>
 <defs>
  <clipPath id="p761a56f5c6">
   <rect x="72" y="51.84" width="446.4" height="332.64"/>
  </clipPath>
 </defs>
</svg>
