<?xml version="1.0" encoding="utf-8" standalone="no"?>
<!DOCTYPE svg PUBLIC "-//W3C//DTD SVG 1.1//EN"
  "http://www.w3.org/Graphics/SVG/1.1/DTD/svg11.dtd">
<svg xmlns:xlink="http://www.w3.org/1999/xlink" width="576pt" height="432pt" viewBox="0 0 576 432" xmlns="http://www.w3.org/2000/svg" version="1.1">
 <metadata>
  <rdf:RDF xmlns:dc="http://purl.org/dc/elements/1.1/" xmlns:cc="http://creativecommons.org/ns#" xmlns:rdf="http://www.w3.org/1999/02/22-rdf-syntax-ns#">
   <cc:Work>
    <dc:type rdf:resource="http://purl.org/dc/dcmitype/StillImage"/>
    <dc:date>2025-09-30T20:43:12.960645</dc:date>
    <dc:format>image/svg+xml</dc:format>
    <dc:creator>
     <cc:Agent>
      <dc:title>Matplotlib v3.10.3, https://matplotlib.org/</dc:title>
     </cc:Agent>
    </dc:creator>
   </cc:Work>
  </rdf:RDF>
 </metadata>
 <defs>
  <style type="text/css">*{stroke-linejoin: round; stroke-linecap: butt}</style>
 </defs>
 <g id="figure_1">
  <g id="patch_1">
   <path d="M 0 432 
L 576 432 
L 576 0 
L 0 0 
z
" style="fill: #ffffff"/>
  </g>
  <g id="axes_1">
   <g id="patch_2">
    <path d="M 72 384.48 
L 518.4 384.48 
L 518.4 51.84 
L 72 51.84 
z
" style="fill: #ffffff"/>
   </g>
   <g id="FillBetweenPolyCollection_1">
    <path d="M 388.2773 369.820255 
L 202.1227 369.820255 
L 188.889341 366.761282 
L 183.6 363.702309 
L 187.38988 360.643335 
L 199.210588 357.584362 
L 216.287242 354.525389 
L 235.167979 351.466416 
L 252.828303 348.407443 
L 267.364322 345.34847 
L 278.11504 342.289497 
L 285.356741 339.230524 
L 289.843445 336.171551 
L 292.41833 333.112577 
L 293.791243 330.053604 
L 294.467709 326.994631 
L 294.767547 323.935658 
L 294.874883 320.876685 
L 294.885803 317.817712 
L 294.842821 314.758739 
L 294.75792 311.699766 
L 294.629313 308.640793 
L 294.454976 305.581819 
L 294.242756 302.522846 
L 294.014982 299.463873 
L 293.80609 296.4049 
L 293.65417 293.345927 
L 293.589836 290.286954 
L 293.626969 287.227981 
L 293.759004 284.169008 
L 293.961867 281.110035 
L 294.201835 278.051061 
L 294.444886 274.992088 
L 294.664149 271.933115 
L 294.843646 268.874142 
L 294.978265 265.815169 
L 295.071185 262.756196 
L 295.130311 259.697223 
L 295.164988 256.63825 
L 295.18371 253.579277 
L 295.193 250.520303 
L 295.197229 247.46133 
L 295.198991 244.402357 
L 295.199663 241.343384 
L 295.199897 238.284411 
L 295.199971 235.225438 
L 295.199993 232.166465 
L 295.199998 229.107492 
L 295.2 226.048519 
L 295.2 222.989546 
L 295.2 219.930572 
L 295.2 216.871599 
L 295.2 213.812626 
L 295.2 210.753653 
L 295.2 207.69468 
L 295.2 204.635707 
L 295.2 201.576734 
L 295.2 198.517761 
L 295.2 195.458788 
L 295.2 192.399814 
L 295.2 189.340841 
L 295.2 186.281868 
L 295.2 183.222895 
L 295.2 180.163922 
L 295.2 177.104949 
L 295.2 174.045976 
L 295.2 170.987003 
L 295.2 167.92803 
L 295.2 164.869056 
L 295.2 161.810083 
L 295.2 158.75111 
L 295.2 155.692137 
L 295.2 152.633164 
L 295.2 149.574191 
L 295.2 146.515218 
L 295.2 143.456245 
L 295.199999 140.397272 
L 295.199997 137.338298 
L 295.199987 134.279325 
L 295.19995 131.220352 
L 295.199816 128.161379 
L 295.199384 125.102406 
L 295.198124 122.043433 
L 295.194791 118.98446 
L 295.1868 115.925487 
L 295.169465 112.866514 
L 295.135473 109.80754 
L 295.075315 106.748567 
L 294.979412 103.689594 
L 294.842013 100.630621 
L 294.66566 97.571648 
L 294.463704 94.512675 
L 294.258581 91.453702 
L 294.075647 88.394729 
L 293.935489 85.335756 
L 293.849074 82.276782 
L 293.818303 79.217809 
L 293.840523 76.158836 
L 293.912683 73.099863 
L 294.031643 70.04089 
L 294.19094 66.981917 
L 296.20906 66.981917 
L 296.20906 66.981917 
L 296.368357 70.04089 
L 296.487317 73.099863 
L 296.559477 76.158836 
L 296.581697 79.217809 
L 296.550926 82.276782 
L 296.464511 85.335756 
L 296.324353 88.394729 
L 296.141419 91.453702 
L 295.936296 94.512675 
L 295.73434 97.571648 
L 295.557987 100.630621 
L 295.420588 103.689594 
L 295.324685 106.748567 
L 295.264527 109.80754 
L 295.230535 112.866514 
L 295.2132 115.925487 
L 295.205209 118.98446 
L 295.201876 122.043433 
L 295.200616 125.102406 
L 295.200184 128.161379 
L 295.20005 131.220352 
L 295.200013 134.279325 
L 295.200003 137.338298 
L 295.200001 140.397272 
L 295.2 143.456245 
L 295.2 146.515218 
L 295.2 149.574191 
L 295.2 152.633164 
L 295.2 155.692137 
L 295.2 158.75111 
L 295.2 161.810083 
L 295.2 164.869056 
L 295.2 167.92803 
L 295.2 170.987003 
L 295.2 174.045976 
L 295.2 177.104949 
L 295.2 180.163922 
L 295.2 183.222895 
L 295.2 186.281868 
L 295.2 189.340841 
L 295.2 192.399814 
L 295.2 195.458788 
L 295.2 198.517761 
L 295.2 201.576734 
L 295.2 204.635707 
L 295.2 207.69468 
L 295.2 210.753653 
L 295.2 213.812626 
L 295.2 216.871599 
L 295.2 219.930572 
L 295.2 222.989546 
L 295.2 226.048519 
L 295.200002 229.107492 
L 295.200007 232.166465 
L 295.200029 235.225438 
L 295.200103 238.284411 
L 295.200337 241.343384 
L 295.201009 244.402357 
L 295.202771 247.46133 
L 295.207 250.520303 
L 295.21629 253.579277 
L 295.235012 256.63825 
L 295.269689 259.697223 
L 295.328815 262.756196 
L 295.421735 265.815169 
L 295.556354 268.874142 
L 295.735851 271.933115 
L 295.955114 274.992088 
L 296.198165 278.051061 
L 296.438133 281.110035 
L 296.640996 284.169008 
L 296.773031 287.227981 
L 296.810164 290.286954 
L 296.74583 293.345927 
L 296.59391 296.4049 
L 296.385018 299.463873 
L 296.157244 302.522846 
L 295.945024 305.581819 
L 295.770687 308.640793 
L 295.64208 311.699766 
L 295.557179 314.758739 
L 295.514197 317.817712 
L 295.525117 320.876685 
L 295.632453 323.935658 
L 295.932291 326.994631 
L 296.608757 330.053604 
L 297.98167 333.112577 
L 300.556555 336.171551 
L 305.043259 339.230524 
L 312.28496 342.289497 
L 323.035678 345.34847 
L 337.571697 348.407443 
L 355.232021 351.466416 
L 374.112758 354.525389 
L 391.189412 357.584362 
L 403.01012 360.643335 
L 406.8 363.702309 
L 401.510659 366.761282 
L 388.2773 369.820255 
z
" clip-path="url(#p57a5913c9d)" style="fill: #1f77b4; fill-opacity: 0.3"/>
   </g>
   <g id="matplotlib.axis_1">
    <g id="xtick_1">
     <g id="line2d_1">
      <defs>
       <path id="m8b1c57048b" d="M 0 0 
L 0 3.5 
" style="stroke: #000000; stroke-width: 0.8"/>
      </defs>
      <g>
       <use xlink:href="#m8b1c57048b" x="295.2" y="384.48" style="stroke: #000000; stroke-width: 0.8"/>
      </g>
     </g>
     <g id="text_1">
      <!-- 1 -->
      <g transform="translate(292.01875 399.078438) scale(0.1 -0.1)">
       <defs>
        <path id="DejaVuSans-31" d="M 794 531 
L 1825 531 
L 1825 4091 
L 703 3866 
L 703 4441 
L 1819 4666 
L 2450 4666 
L 2450 531 
L 3481 531 
L 3481 0 
L 794 0 
L 794 531 
z
" transform="scale(0.015625)"/>
       </defs>
       <use xlink:href="#DejaVuSans-31"/>
      </g>
     </g>
    </g>
   </g>
   <g id="matplotlib.axis_2">
    <g id="ytick_1">
     <g id="line2d_2">
      <defs>
       <path id="me27db4c84d" d="M 0 0 
L -3.5 0 
" style="stroke: #000000; stroke-width: 0.8"/>
      </defs>
      <g>
       <use xlink:href="#me27db4c84d" x="72" y="384.48" style="stroke: #000000; stroke-width: 0.8"/>
      </g>
     </g>
     <g id="text_2">
      <!-- 0 -->
      <g transform="translate(58.6375 388.279219) scale(0.1 -0.1)">
       <defs>
        <path id="DejaVuSans-30" d="M 2034 4250 
Q 1547 4250 1301 3770 
Q 1056 3291 1056 2328 
Q 1056 1369 1301 889 
Q 1547 409 2034 409 
Q 2525 409 2770 889 
Q 3016 1369 3016 2328 
Q 3016 3291 2770 3770 
Q 2525 4250 2034 4250 
z
M 2034 4750 
Q 2819 4750 3233 4129 
Q 3647 3509 3647 2328 
Q 3647 1150 3233 529 
Q 2819 -91 2034 -91 
Q 1250 -91 836 529 
Q 422 1150 422 2328 
Q 422 3509 836 4129 
Q 1250 4750 2034 4750 
z
" transform="scale(0.015625)"/>
       </defs>
       <use xlink:href="#DejaVuSans-30"/>
      </g>
     </g>
    </g>
    <g id="ytick_2">
     <g id="line2d_3">
      <g>
       <use xlink:href="#me27db4c84d" x="72" y="339.981894" style="stroke: #000000; stroke-width: 0.8"/>
      </g>
     </g>
     <g id="text_3">
      <!-- 10 -->
      <g transform="translate(52.275 343.781113) scale(0.1 -0.1)">
       <use xlink:href="#DejaVuSans-31"/>
       <use xlink:href="#DejaVuSans-30" transform="translate(63.623047 0)"/>
      </g>
     </g>
    </g>
    <g id="ytick_3">
     <g id="line2d_4">
      <g>
       <use xlink:href="#me27db4c84d" x="72" y="295.483788" style="stroke: #000000; stroke-width: 0.8"/>
      </g>
     </g>
     <g id="text_4">
      <!-- 20 -->
      <g transform="translate(52.275 299.283007) scale(0.1 -0.1)">
       <defs>
        <path id="DejaVuSans-32" d="M 1228 531 
L 3431 531 
L 3431 0 
L 469 0 
L 469 531 
Q 828 903 1448 1529 
Q 2069 2156 2228 2338 
Q 2531 2678 2651 2914 
Q 2772 3150 2772 3378 
Q 2772 3750 2511 3984 
Q 2250 4219 1831 4219 
Q 1534 4219 1204 4116 
Q 875 4013 500 3803 
L 500 4441 
Q 881 4594 1212 4672 
Q 1544 4750 1819 4750 
Q 2544 4750 2975 4387 
Q 3406 4025 3406 3419 
Q 3406 3131 3298 2873 
Q 3191 2616 2906 2266 
Q 2828 2175 2409 1742 
Q 1991 1309 1228 531 
z
" transform="scale(0.015625)"/>
       </defs>
       <use xlink:href="#DejaVuSans-32"/>
       <use xlink:href="#DejaVuSans-30" transform="translate(63.623047 0)"/>
      </g>
     </g>
    </g>
    <g id="ytick_4">
     <g id="line2d_5">
      <g>
       <use xlink:href="#me27db4c84d" x="72" y="250.985683" style="stroke: #000000; stroke-width: 0.8"/>
      </g>
     </g>
     <g id="text_5">
      <!-- 30 -->
      <g transform="translate(52.275 254.784901) scale(0.1 -0.1)">
       <defs>
        <path id="DejaVuSans-33" d="M 2597 2516 
Q 3050 2419 3304 2112 
Q 3559 1806 3559 1356 
Q 3559 666 3084 287 
Q 2609 -91 1734 -91 
Q 1441 -91 1130 -33 
Q 819 25 488 141 
L 488 750 
Q 750 597 1062 519 
Q 1375 441 1716 441 
Q 2309 441 2620 675 
Q 2931 909 2931 1356 
Q 2931 1769 2642 2001 
Q 2353 2234 1838 2234 
L 1294 2234 
L 1294 2753 
L 1863 2753 
Q 2328 2753 2575 2939 
Q 2822 3125 2822 3475 
Q 2822 3834 2567 4026 
Q 2313 4219 1838 4219 
Q 1578 4219 1281 4162 
Q 984 4106 628 3988 
L 628 4550 
Q 988 4650 1302 4700 
Q 1616 4750 1894 4750 
Q 2613 4750 3031 4423 
Q 3450 4097 3450 3541 
Q 3450 3153 3228 2886 
Q 3006 2619 2597 2516 
z
" transform="scale(0.015625)"/>
       </defs>
       <use xlink:href="#DejaVuSans-33"/>
       <use xlink:href="#DejaVuSans-30" transform="translate(63.623047 0)"/>
      </g>
     </g>
    </g>
    <g id="ytick_5">
     <g id="line2d_6">
      <g>
       <use xlink:href="#me27db4c84d" x="72" y="206.487577" style="stroke: #000000; stroke-width: 0.8"/>
      </g>
     </g>
     <g id="text_6">
      <!-- 40 -->
      <g transform="translate(52.275 210.286796) scale(0.1 -0.1)">
       <defs>
        <path id="DejaVuSans-34" d="M 2419 4116 
L 825 1625 
L 2419 1625 
L 2419 4116 
z
M 2253 4666 
L 3047 4666 
L 3047 1625 
L 3713 1625 
L 3713 1100 
L 3047 1100 
L 3047 0 
L 2419 0 
L 2419 1100 
L 313 1100 
L 313 1709 
L 2253 4666 
z
" transform="scale(0.015625)"/>
       </defs>
       <use xlink:href="#DejaVuSans-34"/>
       <use xlink:href="#DejaVuSans-30" transform="translate(63.623047 0)"/>
      </g>
     </g>
    </g>
    <g id="ytick_6">
     <g id="line2d_7">
      <g>
       <use xlink:href="#me27db4c84d" x="72" y="161.989471" style="stroke: #000000; stroke-width: 0.8"/>
      </g>
     </g>
     <g id="text_7">
      <!-- 50 -->
      <g transform="translate(52.275 165.78869) scale(0.1 -0.1)">
       <defs>
        <path id="DejaVuSans-35" d="M 691 4666 
L 3169 4666 
L 3169 4134 
L 1269 4134 
L 1269 2991 
Q 1406 3038 1543 3061 
Q 1681 3084 1819 3084 
Q 2600 3084 3056 2656 
Q 3513 2228 3513 1497 
Q 3513 744 3044 326 
Q 2575 -91 1722 -91 
Q 1428 -91 1123 -41 
Q 819 9 494 109 
L 494 744 
Q 775 591 1075 516 
Q 1375 441 1709 441 
Q 2250 441 2565 725 
Q 2881 1009 2881 1497 
Q 2881 1984 2565 2268 
Q 2250 2553 1709 2553 
Q 1456 2553 1204 2497 
Q 953 2441 691 2322 
L 691 4666 
z
" transform="scale(0.015625)"/>
       </defs>
       <use xlink:href="#DejaVuSans-35"/>
       <use xlink:href="#DejaVuSans-30" transform="translate(63.623047 0)"/>
      </g>
     </g>
    </g>
    <g id="ytick_7">
     <g id="line2d_8">
      <g>
       <use xlink:href="#me27db4c84d" x="72" y="117.491365" style="stroke: #000000; stroke-width: 0.8"/>
      </g>
     </g>
     <g id="text_8">
      <!-- 60 -->
      <g transform="translate(52.275 121.290584) scale(0.1 -0.1)">
       <defs>
        <path id="DejaVuSans-36" d="M 2113 2584 
Q 1688 2584 1439 2293 
Q 1191 2003 1191 1497 
Q 1191 994 1439 701 
Q 1688 409 2113 409 
Q 2538 409 2786 701 
Q 3034 994 3034 1497 
Q 3034 2003 2786 2293 
Q 2538 2584 2113 2584 
z
M 3366 4563 
L 3366 3988 
Q 3128 4100 2886 4159 
Q 2644 4219 2406 4219 
Q 1781 4219 1451 3797 
Q 1122 3375 1075 2522 
Q 1259 2794 1537 2939 
Q 1816 3084 2150 3084 
Q 2853 3084 3261 2657 
Q 3669 2231 3669 1497 
Q 3669 778 3244 343 
Q 2819 -91 2113 -91 
Q 1303 -91 875 529 
Q 447 1150 447 2328 
Q 447 3434 972 4092 
Q 1497 4750 2381 4750 
Q 2619 4750 2861 4703 
Q 3103 4656 3366 4563 
z
" transform="scale(0.015625)"/>
       </defs>
       <use xlink:href="#DejaVuSans-36"/>
       <use xlink:href="#DejaVuSans-30" transform="translate(63.623047 0)"/>
      </g>
     </g>
    </g>
    <g id="ytick_8">
     <g id="line2d_9">
      <g>
       <use xlink:href="#me27db4c84d" x="72" y="72.993259" style="stroke: #000000; stroke-width: 0.8"/>
      </g>
     </g>
     <g id="text_9">
      <!-- 70 -->
      <g transform="translate(52.275 76.792478) scale(0.1 -0.1)">
       <defs>
        <path id="DejaVuSans-37" d="M 525 4666 
L 3525 4666 
L 3525 4397 
L 1831 0 
L 1172 0 
L 2766 4134 
L 525 4134 
L 525 4666 
z
" transform="scale(0.015625)"/>
       </defs>
       <use xlink:href="#DejaVuSans-37"/>
       <use xlink:href="#DejaVuSans-30" transform="translate(63.623047 0)"/>
      </g>
     </g>
    </g>
    <g id="text_10">
     <!-- Time (ms) -->
     <g transform="translate(46.195312 243.359219) rotate(-90) scale(0.1 -0.1)">
      <defs>
       <path id="DejaVuSans-54" d="M -19 4666 
L 3928 4666 
L 3928 4134 
L 2272 4134 
L 2272 0 
L 1638 0 
L 1638 4134 
L -19 4134 
L -19 4666 
z
" transform="scale(0.015625)"/>
       <path id="DejaVuSans-69" d="M 603 3500 
L 1178 3500 
L 1178 0 
L 603 0 
L 603 3500 
z
M 603 4863 
L 1178 4863 
L 1178 4134 
L 603 4134 
L 603 4863 
z
" transform="scale(0.015625)"/>
       <path id="DejaVuSans-6d" d="M 3328 2828 
Q 3544 3216 3844 3400 
Q 4144 3584 4550 3584 
Q 5097 3584 5394 3201 
Q 5691 2819 5691 2113 
L 5691 0 
L 5113 0 
L 5113 2094 
Q 5113 2597 4934 2840 
Q 4756 3084 4391 3084 
Q 3944 3084 3684 2787 
Q 3425 2491 3425 1978 
L 3425 0 
L 2847 0 
L 2847 2094 
Q 2847 2600 2669 2842 
Q 2491 3084 2119 3084 
Q 1678 3084 1418 2786 
Q 1159 2488 1159 1978 
L 1159 0 
L 581 0 
L 581 3500 
L 1159 3500 
L 1159 2956 
Q 1356 3278 1631 3431 
Q 1906 3584 2284 3584 
Q 2666 3584 2933 3390 
Q 3200 3197 3328 2828 
z
" transform="scale(0.015625)"/>
       <path id="DejaVuSans-65" d="M 3597 1894 
L 3597 1613 
L 953 1613 
Q 991 1019 1311 708 
Q 1631 397 2203 397 
Q 2534 397 2845 478 
Q 3156 559 3463 722 
L 3463 178 
Q 3153 47 2828 -22 
Q 2503 -91 2169 -91 
Q 1331 -91 842 396 
Q 353 884 353 1716 
Q 353 2575 817 3079 
Q 1281 3584 2069 3584 
Q 2775 3584 3186 3129 
Q 3597 2675 3597 1894 
z
M 3022 2063 
Q 3016 2534 2758 2815 
Q 2500 3097 2075 3097 
Q 1594 3097 1305 2825 
Q 1016 2553 972 2059 
L 3022 2063 
z
" transform="scale(0.015625)"/>
       <path id="DejaVuSans-20" transform="scale(0.015625)"/>
       <path id="DejaVuSans-28" d="M 1984 4856 
Q 1566 4138 1362 3434 
Q 1159 2731 1159 2009 
Q 1159 1288 1364 580 
Q 1569 -128 1984 -844 
L 1484 -844 
Q 1016 -109 783 600 
Q 550 1309 550 2009 
Q 550 2706 781 3412 
Q 1013 4119 1484 4856 
L 1984 4856 
z
" transform="scale(0.015625)"/>
       <path id="DejaVuSans-73" d="M 2834 3397 
L 2834 2853 
Q 2591 2978 2328 3040 
Q 2066 3103 1784 3103 
Q 1356 3103 1142 2972 
Q 928 2841 928 2578 
Q 928 2378 1081 2264 
Q 1234 2150 1697 2047 
L 1894 2003 
Q 2506 1872 2764 1633 
Q 3022 1394 3022 966 
Q 3022 478 2636 193 
Q 2250 -91 1575 -91 
Q 1294 -91 989 -36 
Q 684 19 347 128 
L 347 722 
Q 666 556 975 473 
Q 1284 391 1588 391 
Q 1994 391 2212 530 
Q 2431 669 2431 922 
Q 2431 1156 2273 1281 
Q 2116 1406 1581 1522 
L 1381 1569 
Q 847 1681 609 1914 
Q 372 2147 372 2553 
Q 372 3047 722 3315 
Q 1072 3584 1716 3584 
Q 2034 3584 2315 3537 
Q 2597 3491 2834 3397 
z
" transform="scale(0.015625)"/>
       <path id="DejaVuSans-29" d="M 513 4856 
L 1013 4856 
Q 1481 4119 1714 3412 
Q 1947 2706 1947 2009 
Q 1947 1309 1714 600 
Q 1481 -109 1013 -844 
L 513 -844 
Q 928 -128 1133 580 
Q 1338 1288 1338 2009 
Q 1338 2731 1133 3434 
Q 928 4138 513 4856 
z
" transform="scale(0.015625)"/>
      </defs>
      <use xlink:href="#DejaVuSans-54"/>
      <use xlink:href="#DejaVuSans-69" transform="translate(57.958984 0)"/>
      <use xlink:href="#DejaVuSans-6d" transform="translate(85.742188 0)"/>
      <use xlink:href="#DejaVuSans-65" transform="translate(183.154297 0)"/>
      <use xlink:href="#DejaVuSans-20" transform="translate(244.677734 0)"/>
      <use xlink:href="#DejaVuSans-28" transform="translate(276.464844 0)"/>
      <use xlink:href="#DejaVuSans-6d" transform="translate(315.478516 0)"/>
      <use xlink:href="#DejaVuSans-73" transform="translate(412.890625 0)"/>
      <use xlink:href="#DejaVuSans-29" transform="translate(464.990234 0)"/>
     </g>
    </g>
   </g>
   <g id="LineCollection_1">
    <path d="M 239.4 357.501854 
L 351 357.501854 
" clip-path="url(#p57a5913c9d)" style="fill: none; stroke: #1f77b4; stroke-width: 1.5"/>
   </g>
   <g id="LineCollection_2">
    <path d="M 239.4 66.981917 
L 351 66.981917 
" clip-path="url(#p57a5913c9d)" style="fill: none; stroke: #1f77b4; stroke-width: 1.5"/>
   </g>
   <g id="LineCollection_3">
    <path d="M 239.4 369.820255 
L 351 369.820255 
" clip-path="url(#p57a5913c9d)" style="fill: none; stroke: #1f77b4; stroke-width: 1.5"/>
   </g>
   <g id="LineCollection_4">
    <path d="M 295.2 369.820255 
L 295.2 66.981917 
" clip-path="url(#p57a5913c9d)" style="fill: none; stroke: #1f77b4; stroke-width: 1.5"/>
   </g>
   <g id="patch_3">
    <path d="M 250.56 365.832837 
L 339.84 365.832837 
L 339.84 360.809102 
L 250.56 360.809102 
L 250.56 365.832837 
z
" clip-path="url(#p57a5913c9d)" style="fill: #1f77b4; stroke: #000000; stroke-linejoin: miter"/>
   </g>
   <g id="line2d_10">
    <path d="M 295.2 365.832837 
L 295.2 369.820255 
" clip-path="url(#p57a5913c9d)" style="fill: none; stroke: #000000; stroke-linecap: square"/>
   </g>
   <g id="line2d_11">
    <path d="M 295.2 360.809102 
L 295.2 353.389245 
" clip-path="url(#p57a5913c9d)" style="fill: none; stroke: #000000; stroke-linecap: square"/>
   </g>
   <g id="line2d_12">
    <path d="M 272.88 369.820255 
L 317.52 369.820255 
" clip-path="url(#p57a5913c9d)" style="fill: none; stroke: #000000; stroke-linecap: square"/>
   </g>
   <g id="line2d_13">
    <path d="M 272.88 353.389245 
L 317.52 353.389245 
" clip-path="url(#p57a5913c9d)" style="fill: none; stroke: #000000; stroke-linecap: square"/>
   </g>
   <g id="line2d_14">
    <defs>
     <path id="m79e7a27beb" d="M 0 3 
C 0.795609 3 1.55874 2.683901 2.12132 2.12132 
C 2.683901 1.55874 3 0.795609 3 0 
C 3 -0.795609 2.683901 -1.55874 2.12132 -2.12132 
C 1.55874 -2.683901 0.795609 -3 0 -3 
C -0.795609 -3 -1.55874 -2.683901 -2.12132 -2.12132 
C -2.683901 -1.55874 -3 -0.795609 -3 0 
C -3 0.795609 -2.683901 1.55874 -2.12132 2.12132 
C -1.55874 2.683901 -0.795609 3 0 3 
z
" style="stroke: #000000"/>
    </defs>
    <g clip-path="url(#p57a5913c9d)">
     <use xlink:href="#m79e7a27beb" x="295.2" y="85.298979" style="fill-opacity: 0; stroke: #000000"/>
     <use xlink:href="#m79e7a27beb" x="295.2" y="298.258481" style="fill-opacity: 0; stroke: #000000"/>
     <use xlink:href="#m79e7a27beb" x="295.2" y="350.492044" style="fill-opacity: 0; stroke: #000000"/>
     <use xlink:href="#m79e7a27beb" x="295.2" y="350.455551" style="fill-opacity: 0; stroke: #000000"/>
     <use xlink:href="#m79e7a27beb" x="295.2" y="349.139493" style="fill-opacity: 0; stroke: #000000"/>
     <use xlink:href="#m79e7a27beb" x="295.2" y="87.587512" style="fill-opacity: 0; stroke: #000000"/>
     <use xlink:href="#m79e7a27beb" x="295.2" y="291.276323" style="fill-opacity: 0; stroke: #000000"/>
     <use xlink:href="#m79e7a27beb" x="295.2" y="352.129895" style="fill-opacity: 0; stroke: #000000"/>
     <use xlink:href="#m79e7a27beb" x="295.2" y="67.644013" style="fill-opacity: 0; stroke: #000000"/>
     <use xlink:href="#m79e7a27beb" x="295.2" y="277.216622" style="fill-opacity: 0; stroke: #000000"/>
     <use xlink:href="#m79e7a27beb" x="295.2" y="345.08111" style="fill-opacity: 0; stroke: #000000"/>
     <use xlink:href="#m79e7a27beb" x="295.2" y="87.172096" style="fill-opacity: 0; stroke: #000000"/>
     <use xlink:href="#m79e7a27beb" x="295.2" y="288.928065" style="fill-opacity: 0; stroke: #000000"/>
     <use xlink:href="#m79e7a27beb" x="295.2" y="347.261112" style="fill-opacity: 0; stroke: #000000"/>
     <use xlink:href="#m79e7a27beb" x="295.2" y="88.753768" style="fill-opacity: 0; stroke: #000000"/>
     <use xlink:href="#m79e7a27beb" x="295.2" y="289.151392" style="fill-opacity: 0; stroke: #000000"/>
     <use xlink:href="#m79e7a27beb" x="295.2" y="346.591269" style="fill-opacity: 0; stroke: #000000"/>
     <use xlink:href="#m79e7a27beb" x="295.2" y="351.838713" style="fill-opacity: 0; stroke: #000000"/>
     <use xlink:href="#m79e7a27beb" x="295.2" y="82.220271" style="fill-opacity: 0; stroke: #000000"/>
     <use xlink:href="#m79e7a27beb" x="295.2" y="297.977854" style="fill-opacity: 0; stroke: #000000"/>
     <use xlink:href="#m79e7a27beb" x="295.2" y="351.82207" style="fill-opacity: 0; stroke: #000000"/>
     <use xlink:href="#m79e7a27beb" x="295.2" y="351.674684" style="fill-opacity: 0; stroke: #000000"/>
     <use xlink:href="#m79e7a27beb" x="295.2" y="316.273637" style="fill-opacity: 0; stroke: #000000"/>
     <use xlink:href="#m79e7a27beb" x="295.2" y="74.766536" style="fill-opacity: 0; stroke: #000000"/>
     <use xlink:href="#m79e7a27beb" x="295.2" y="293.902023" style="fill-opacity: 0; stroke: #000000"/>
     <use xlink:href="#m79e7a27beb" x="295.2" y="352.317343" style="fill-opacity: 0; stroke: #000000"/>
     <use xlink:href="#m79e7a27beb" x="295.2" y="73.960804" style="fill-opacity: 0; stroke: #000000"/>
     <use xlink:href="#m79e7a27beb" x="295.2" y="284.067256" style="fill-opacity: 0; stroke: #000000"/>
     <use xlink:href="#m79e7a27beb" x="295.2" y="346.156042" style="fill-opacity: 0; stroke: #000000"/>
     <use xlink:href="#m79e7a27beb" x="295.2" y="351.091309" style="fill-opacity: 0; stroke: #000000"/>
     <use xlink:href="#m79e7a27beb" x="295.2" y="351.884982" style="fill-opacity: 0; stroke: #000000"/>
     <use xlink:href="#m79e7a27beb" x="295.2" y="66.981917" style="fill-opacity: 0; stroke: #000000"/>
     <use xlink:href="#m79e7a27beb" x="295.2" y="283.586468" style="fill-opacity: 0; stroke: #000000"/>
     <use xlink:href="#m79e7a27beb" x="295.2" y="346.79653" style="fill-opacity: 0; stroke: #000000"/>
     <use xlink:href="#m79e7a27beb" x="295.2" y="353.019399" style="fill-opacity: 0; stroke: #000000"/>
     <use xlink:href="#m79e7a27beb" x="295.2" y="70.091547" style="fill-opacity: 0; stroke: #000000"/>
     <use xlink:href="#m79e7a27beb" x="295.2" y="289.5985" style="fill-opacity: 0; stroke: #000000"/>
     <use xlink:href="#m79e7a27beb" x="295.2" y="341.38285" style="fill-opacity: 0; stroke: #000000"/>
    </g>
   </g>
   <g id="line2d_15">
    <path d="M 250.56 364.06244 
L 339.84 364.06244 
" clip-path="url(#p57a5913c9d)" style="fill: none; stroke: #ff7f0e"/>
   </g>
   <g id="patch_4">
    <path d="M 72 384.48 
L 72 51.84 
" style="fill: none; stroke: #000000; stroke-width: 0.8; stroke-linejoin: miter; stroke-linecap: square"/>
   </g>
   <g id="patch_5">
    <path d="M 518.4 384.48 
L 518.4 51.84 
" style="fill: none; stroke: #000000; stroke-width: 0.8; stroke-linejoin: miter; stroke-linecap: square"/>
   </g>
   <g id="patch_6">
    <path d="M 72 384.48 
L 518.4 384.48 
" style="fill: none; stroke: #000000; stroke-width: 0.8; stroke-linejoin: miter; stroke-linecap: square"/>
   </g>
   <g id="patch_7">
    <path d="M 72 51.84 
L 518.4 51.84 
" style="fill: none; stroke: #000000; stroke-width: 0.8; stroke-linejoin: miter; stroke-linecap: square"/>
   </g>
   <g id="text_11">
    <!-- Register Faultload -->
    <g transform="translate(241.364062 45.84) scale(0.12 -0.12)">
     <defs>
      <path id="DejaVuSans-52" d="M 2841 2188 
Q 3044 2119 3236 1894 
Q 3428 1669 3622 1275 
L 4263 0 
L 3584 0 
L 2988 1197 
Q 2756 1666 2539 1819 
Q 2322 1972 1947 1972 
L 1259 1972 
L 1259 0 
L 628 0 
L 628 4666 
L 2053 4666 
Q 2853 4666 3247 4331 
Q 3641 3997 3641 3322 
Q 3641 2881 3436 2590 
Q 3231 2300 2841 2188 
z
M 1259 4147 
L 1259 2491 
L 2053 2491 
Q 2509 2491 2742 2702 
Q 2975 2913 2975 3322 
Q 2975 3731 2742 3939 
Q 2509 4147 2053 4147 
L 1259 4147 
z
" transform="scale(0.015625)"/>
      <path id="DejaVuSans-67" d="M 2906 1791 
Q 2906 2416 2648 2759 
Q 2391 3103 1925 3103 
Q 1463 3103 1205 2759 
Q 947 2416 947 1791 
Q 947 1169 1205 825 
Q 1463 481 1925 481 
Q 2391 481 2648 825 
Q 2906 1169 2906 1791 
z
M 3481 434 
Q 3481 -459 3084 -895 
Q 2688 -1331 1869 -1331 
Q 1566 -1331 1297 -1286 
Q 1028 -1241 775 -1147 
L 775 -588 
Q 1028 -725 1275 -790 
Q 1522 -856 1778 -856 
Q 2344 -856 2625 -561 
Q 2906 -266 2906 331 
L 2906 616 
Q 2728 306 2450 153 
Q 2172 0 1784 0 
Q 1141 0 747 490 
Q 353 981 353 1791 
Q 353 2603 747 3093 
Q 1141 3584 1784 3584 
Q 2172 3584 2450 3431 
Q 2728 3278 2906 2969 
L 2906 3500 
L 3481 3500 
L 3481 434 
z
" transform="scale(0.015625)"/>
      <path id="DejaVuSans-74" d="M 1172 4494 
L 1172 3500 
L 2356 3500 
L 2356 3053 
L 1172 3053 
L 1172 1153 
Q 1172 725 1289 603 
Q 1406 481 1766 481 
L 2356 481 
L 2356 0 
L 1766 0 
Q 1100 0 847 248 
Q 594 497 594 1153 
L 594 3053 
L 172 3053 
L 172 3500 
L 594 3500 
L 594 4494 
L 1172 4494 
z
" transform="scale(0.015625)"/>
      <path id="DejaVuSans-72" d="M 2631 2963 
Q 2534 3019 2420 3045 
Q 2306 3072 2169 3072 
Q 1681 3072 1420 2755 
Q 1159 2438 1159 1844 
L 1159 0 
L 581 0 
L 581 3500 
L 1159 3500 
L 1159 2956 
Q 1341 3275 1631 3429 
Q 1922 3584 2338 3584 
Q 2397 3584 2469 3576 
Q 2541 3569 2628 3553 
L 2631 2963 
z
" transform="scale(0.015625)"/>
      <path id="DejaVuSans-46" d="M 628 4666 
L 3309 4666 
L 3309 4134 
L 1259 4134 
L 1259 2759 
L 3109 2759 
L 3109 2228 
L 1259 2228 
L 1259 0 
L 628 0 
L 628 4666 
z
" transform="scale(0.015625)"/>
      <path id="DejaVuSans-61" d="M 2194 1759 
Q 1497 1759 1228 1600 
Q 959 1441 959 1056 
Q 959 750 1161 570 
Q 1363 391 1709 391 
Q 2188 391 2477 730 
Q 2766 1069 2766 1631 
L 2766 1759 
L 2194 1759 
z
M 3341 1997 
L 3341 0 
L 2766 0 
L 2766 531 
Q 2569 213 2275 61 
Q 1981 -91 1556 -91 
Q 1019 -91 701 211 
Q 384 513 384 1019 
Q 384 1609 779 1909 
Q 1175 2209 1959 2209 
L 2766 2209 
L 2766 2266 
Q 2766 2663 2505 2880 
Q 2244 3097 1772 3097 
Q 1472 3097 1187 3025 
Q 903 2953 641 2809 
L 641 3341 
Q 956 3463 1253 3523 
Q 1550 3584 1831 3584 
Q 2591 3584 2966 3190 
Q 3341 2797 3341 1997 
z
" transform="scale(0.015625)"/>
      <path id="DejaVuSans-75" d="M 544 1381 
L 544 3500 
L 1119 3500 
L 1119 1403 
Q 1119 906 1312 657 
Q 1506 409 1894 409 
Q 2359 409 2629 706 
Q 2900 1003 2900 1516 
L 2900 3500 
L 3475 3500 
L 3475 0 
L 2900 0 
L 2900 538 
Q 2691 219 2414 64 
Q 2138 -91 1772 -91 
Q 1169 -91 856 284 
Q 544 659 544 1381 
z
M 1991 3584 
L 1991 3584 
z
" transform="scale(0.015625)"/>
      <path id="DejaVuSans-6c" d="M 603 4863 
L 1178 4863 
L 1178 0 
L 603 0 
L 603 4863 
z
" transform="scale(0.015625)"/>
      <path id="DejaVuSans-6f" d="M 1959 3097 
Q 1497 3097 1228 2736 
Q 959 2375 959 1747 
Q 959 1119 1226 758 
Q 1494 397 1959 397 
Q 2419 397 2687 759 
Q 2956 1122 2956 1747 
Q 2956 2369 2687 2733 
Q 2419 3097 1959 3097 
z
M 1959 3584 
Q 2709 3584 3137 3096 
Q 3566 2609 3566 1747 
Q 3566 888 3137 398 
Q 2709 -91 1959 -91 
Q 1206 -91 779 398 
Q 353 888 353 1747 
Q 353 2609 779 3096 
Q 1206 3584 1959 3584 
z
" transform="scale(0.015625)"/>
      <path id="DejaVuSans-64" d="M 2906 2969 
L 2906 4863 
L 3481 4863 
L 3481 0 
L 2906 0 
L 2906 525 
Q 2725 213 2448 61 
Q 2172 -91 1784 -91 
Q 1150 -91 751 415 
Q 353 922 353 1747 
Q 353 2572 751 3078 
Q 1150 3584 1784 3584 
Q 2172 3584 2448 3432 
Q 2725 3281 2906 2969 
z
M 947 1747 
Q 947 1113 1208 752 
Q 1469 391 1925 391 
Q 2381 391 2643 752 
Q 2906 1113 2906 1747 
Q 2906 2381 2643 2742 
Q 2381 3103 1925 3103 
Q 1469 3103 1208 2742 
Q 947 2381 947 1747 
z
" transform="scale(0.015625)"/>
     </defs>
     <use xlink:href="#DejaVuSans-52"/>
     <use xlink:href="#DejaVuSans-65" transform="translate(64.982422 0)"/>
     <use xlink:href="#DejaVuSans-67" transform="translate(126.505859 0)"/>
     <use xlink:href="#DejaVuSans-69" transform="translate(189.982422 0)"/>
     <use xlink:href="#DejaVuSans-73" transform="translate(217.765625 0)"/>
     <use xlink:href="#DejaVuSans-74" transform="translate(269.865234 0)"/>
     <use xlink:href="#DejaVuSans-65" transform="translate(309.074219 0)"/>
     <use xlink:href="#DejaVuSans-72" transform="translate(370.597656 0)"/>
     <use xlink:href="#DejaVuSans-20" transform="translate(411.710938 0)"/>
     <use xlink:href="#DejaVuSans-46" transform="translate(443.498047 0)"/>
     <use xlink:href="#DejaVuSans-61" transform="translate(491.892578 0)"/>
     <use xlink:href="#DejaVuSans-75" transform="translate(553.171875 0)"/>
     <use xlink:href="#DejaVuSans-6c" transform="translate(616.550781 0)"/>
     <use xlink:href="#DejaVuSans-74" transform="translate(644.333984 0)"/>
     <use xlink:href="#DejaVuSans-6c" transform="translate(683.542969 0)"/>
     <use xlink:href="#DejaVuSans-6f" transform="translate(711.326172 0)"/>
     <use xlink:href="#DejaVuSans-61" transform="translate(772.507812 0)"/>
     <use xlink:href="#DejaVuSans-64" transform="translate(833.787109 0)"/>
    </g>
   </g>
  </g>
 </g>
 <defs>
  <clipPath id="p57a5913c9d">
   <rect x="72" y="51.84" width="446.4" height="332.64"/>
  </clipPath>
 </defs>
</svg>
