<?xml version="1.0" encoding="utf-8" standalone="no"?>
<!DOCTYPE svg PUBLIC "-//W3C//DTD SVG 1.1//EN"
  "http://www.w3.org/Graphics/SVG/1.1/DTD/svg11.dtd">
<svg xmlns:xlink="http://www.w3.org/1999/xlink" width="720pt" height="432pt" viewBox="0 0 720 432" xmlns="http://www.w3.org/2000/svg" version="1.1">
 <metadata>
  <rdf:RDF xmlns:dc="http://purl.org/dc/elements/1.1/" xmlns:cc="http://creativecommons.org/ns#" xmlns:rdf="http://www.w3.org/1999/02/22-rdf-syntax-ns#">
   <cc:Work>
    <dc:type rdf:resource="http://purl.org/dc/dcmitype/StillImage"/>
    <dc:date>2025-09-30T20:42:59.878754</dc:date>
    <dc:format>image/svg+xml</dc:format>
    <dc:creator>
     <cc:Agent>
      <dc:title>Matplotlib v3.10.3, https://matplotlib.org/</dc:title>
     </cc:Agent>
    </dc:creator>
   </cc:Work>
  </rdf:RDF>
 </metadata>
 <defs>
  <style type="text/css">*{stroke-linejoin: round; stroke-linecap: butt}</style>
 </defs>
 <g id="figure_1">
  <g id="patch_1">
   <path d="M 0 432 
L 720 432 
L 720 0 
L 0 0 
z
" style="fill: #ffffff"/>
  </g>
  <g id="axes_1">
   <g id="patch_2">
    <path d="M 90 384.48 
L 648 384.48 
L 648 51.84 
L 90 51.84 
z
" style="fill: #ffffff"/>
   </g>
   <g id="matplotlib.axis_1">
    <g id="xtick_1">
     <g id="line2d_1">
      <defs>
       <path id="md8f0562471" d="M 0 0 
L 0 3.5 
" style="stroke: #000000; stroke-width: 0.8"/>
      </defs>
      <g>
       <use xlink:href="#md8f0562471" x="115.363636" y="384.48" style="stroke: #000000; stroke-width: 0.8"/>
      </g>
     </g>
     <g id="text_1">
      <!-- 0 -->
      <g transform="translate(112.182386 399.078438) scale(0.1 -0.1)">
       <defs>
        <path id="DejaVuSans-30" d="M 2034 4250 
Q 1547 4250 1301 3770 
Q 1056 3291 1056 2328 
Q 1056 1369 1301 889 
Q 1547 409 2034 409 
Q 2525 409 2770 889 
Q 3016 1369 3016 2328 
Q 3016 3291 2770 3770 
Q 2525 4250 2034 4250 
z
M 2034 4750 
Q 2819 4750 3233 4129 
Q 3647 3509 3647 2328 
Q 3647 1150 3233 529 
Q 2819 -91 2034 -91 
Q 1250 -91 836 529 
Q 422 1150 422 2328 
Q 422 3509 836 4129 
Q 1250 4750 2034 4750 
z
" transform="scale(0.015625)"/>
       </defs>
       <use xlink:href="#DejaVuSans-30"/>
      </g>
     </g>
    </g>
    <g id="xtick_2">
     <g id="line2d_2">
      <g>
       <use xlink:href="#md8f0562471" x="208.95639" y="384.48" style="stroke: #000000; stroke-width: 0.8"/>
      </g>
     </g>
     <g id="text_2">
      <!-- 100 -->
      <g transform="translate(199.41264 399.078438) scale(0.1 -0.1)">
       <defs>
        <path id="DejaVuSans-31" d="M 794 531 
L 1825 531 
L 1825 4091 
L 703 3866 
L 703 4441 
L 1819 4666 
L 2450 4666 
L 2450 531 
L 3481 531 
L 3481 0 
L 794 0 
L 794 531 
z
" transform="scale(0.015625)"/>
       </defs>
       <use xlink:href="#DejaVuSans-31"/>
       <use xlink:href="#DejaVuSans-30" transform="translate(63.623047 0)"/>
       <use xlink:href="#DejaVuSans-30" transform="translate(127.246094 0)"/>
      </g>
     </g>
    </g>
    <g id="xtick_3">
     <g id="line2d_3">
      <g>
       <use xlink:href="#md8f0562471" x="302.549145" y="384.48" style="stroke: #000000; stroke-width: 0.8"/>
      </g>
     </g>
     <g id="text_3">
      <!-- 200 -->
      <g transform="translate(293.005395 399.078438) scale(0.1 -0.1)">
       <defs>
        <path id="DejaVuSans-32" d="M 1228 531 
L 3431 531 
L 3431 0 
L 469 0 
L 469 531 
Q 828 903 1448 1529 
Q 2069 2156 2228 2338 
Q 2531 2678 2651 2914 
Q 2772 3150 2772 3378 
Q 2772 3750 2511 3984 
Q 2250 4219 1831 4219 
Q 1534 4219 1204 4116 
Q 875 4013 500 3803 
L 500 4441 
Q 881 4594 1212 4672 
Q 1544 4750 1819 4750 
Q 2544 4750 2975 4387 
Q 3406 4025 3406 3419 
Q 3406 3131 3298 2873 
Q 3191 2616 2906 2266 
Q 2828 2175 2409 1742 
Q 1991 1309 1228 531 
z
" transform="scale(0.015625)"/>
       </defs>
       <use xlink:href="#DejaVuSans-32"/>
       <use xlink:href="#DejaVuSans-30" transform="translate(63.623047 0)"/>
       <use xlink:href="#DejaVuSans-30" transform="translate(127.246094 0)"/>
      </g>
     </g>
    </g>
    <g id="xtick_4">
     <g id="line2d_4">
      <g>
       <use xlink:href="#md8f0562471" x="396.141899" y="384.48" style="stroke: #000000; stroke-width: 0.8"/>
      </g>
     </g>
     <g id="text_4">
      <!-- 300 -->
      <g transform="translate(386.598149 399.078438) scale(0.1 -0.1)">
       <defs>
        <path id="DejaVuSans-33" d="M 2597 2516 
Q 3050 2419 3304 2112 
Q 3559 1806 3559 1356 
Q 3559 666 3084 287 
Q 2609 -91 1734 -91 
Q 1441 -91 1130 -33 
Q 819 25 488 141 
L 488 750 
Q 750 597 1062 519 
Q 1375 441 1716 441 
Q 2309 441 2620 675 
Q 2931 909 2931 1356 
Q 2931 1769 2642 2001 
Q 2353 2234 1838 2234 
L 1294 2234 
L 1294 2753 
L 1863 2753 
Q 2328 2753 2575 2939 
Q 2822 3125 2822 3475 
Q 2822 3834 2567 4026 
Q 2313 4219 1838 4219 
Q 1578 4219 1281 4162 
Q 984 4106 628 3988 
L 628 4550 
Q 988 4650 1302 4700 
Q 1616 4750 1894 4750 
Q 2613 4750 3031 4423 
Q 3450 4097 3450 3541 
Q 3450 3153 3228 2886 
Q 3006 2619 2597 2516 
z
" transform="scale(0.015625)"/>
       </defs>
       <use xlink:href="#DejaVuSans-33"/>
       <use xlink:href="#DejaVuSans-30" transform="translate(63.623047 0)"/>
       <use xlink:href="#DejaVuSans-30" transform="translate(127.246094 0)"/>
      </g>
     </g>
    </g>
    <g id="xtick_5">
     <g id="line2d_5">
      <g>
       <use xlink:href="#md8f0562471" x="489.734653" y="384.48" style="stroke: #000000; stroke-width: 0.8"/>
      </g>
     </g>
     <g id="text_5">
      <!-- 400 -->
      <g transform="translate(480.190903 399.078438) scale(0.1 -0.1)">
       <defs>
        <path id="DejaVuSans-34" d="M 2419 4116 
L 825 1625 
L 2419 1625 
L 2419 4116 
z
M 2253 4666 
L 3047 4666 
L 3047 1625 
L 3713 1625 
L 3713 1100 
L 3047 1100 
L 3047 0 
L 2419 0 
L 2419 1100 
L 313 1100 
L 313 1709 
L 2253 4666 
z
" transform="scale(0.015625)"/>
       </defs>
       <use xlink:href="#DejaVuSans-34"/>
       <use xlink:href="#DejaVuSans-30" transform="translate(63.623047 0)"/>
       <use xlink:href="#DejaVuSans-30" transform="translate(127.246094 0)"/>
      </g>
     </g>
    </g>
    <g id="xtick_6">
     <g id="line2d_6">
      <g>
       <use xlink:href="#md8f0562471" x="583.327407" y="384.48" style="stroke: #000000; stroke-width: 0.8"/>
      </g>
     </g>
     <g id="text_6">
      <!-- 500 -->
      <g transform="translate(573.783657 399.078438) scale(0.1 -0.1)">
       <defs>
        <path id="DejaVuSans-35" d="M 691 4666 
L 3169 4666 
L 3169 4134 
L 1269 4134 
L 1269 2991 
Q 1406 3038 1543 3061 
Q 1681 3084 1819 3084 
Q 2600 3084 3056 2656 
Q 3513 2228 3513 1497 
Q 3513 744 3044 326 
Q 2575 -91 1722 -91 
Q 1428 -91 1123 -41 
Q 819 9 494 109 
L 494 744 
Q 775 591 1075 516 
Q 1375 441 1709 441 
Q 2250 441 2565 725 
Q 2881 1009 2881 1497 
Q 2881 1984 2565 2268 
Q 2250 2553 1709 2553 
Q 1456 2553 1204 2497 
Q 953 2441 691 2322 
L 691 4666 
z
" transform="scale(0.015625)"/>
       </defs>
       <use xlink:href="#DejaVuSans-35"/>
       <use xlink:href="#DejaVuSans-30" transform="translate(63.623047 0)"/>
       <use xlink:href="#DejaVuSans-30" transform="translate(127.246094 0)"/>
      </g>
     </g>
    </g>
    <g id="text_7">
     <!-- Index -->
     <g transform="translate(355.233594 412.756563) scale(0.1 -0.1)">
      <defs>
       <path id="DejaVuSans-49" d="M 628 4666 
L 1259 4666 
L 1259 0 
L 628 0 
L 628 4666 
z
" transform="scale(0.015625)"/>
       <path id="DejaVuSans-6e" d="M 3513 2113 
L 3513 0 
L 2938 0 
L 2938 2094 
Q 2938 2591 2744 2837 
Q 2550 3084 2163 3084 
Q 1697 3084 1428 2787 
Q 1159 2491 1159 1978 
L 1159 0 
L 581 0 
L 581 3500 
L 1159 3500 
L 1159 2956 
Q 1366 3272 1645 3428 
Q 1925 3584 2291 3584 
Q 2894 3584 3203 3211 
Q 3513 2838 3513 2113 
z
" transform="scale(0.015625)"/>
       <path id="DejaVuSans-64" d="M 2906 2969 
L 2906 4863 
L 3481 4863 
L 3481 0 
L 2906 0 
L 2906 525 
Q 2725 213 2448 61 
Q 2172 -91 1784 -91 
Q 1150 -91 751 415 
Q 353 922 353 1747 
Q 353 2572 751 3078 
Q 1150 3584 1784 3584 
Q 2172 3584 2448 3432 
Q 2725 3281 2906 2969 
z
M 947 1747 
Q 947 1113 1208 752 
Q 1469 391 1925 391 
Q 2381 391 2643 752 
Q 2906 1113 2906 1747 
Q 2906 2381 2643 2742 
Q 2381 3103 1925 3103 
Q 1469 3103 1208 2742 
Q 947 2381 947 1747 
z
" transform="scale(0.015625)"/>
       <path id="DejaVuSans-65" d="M 3597 1894 
L 3597 1613 
L 953 1613 
Q 991 1019 1311 708 
Q 1631 397 2203 397 
Q 2534 397 2845 478 
Q 3156 559 3463 722 
L 3463 178 
Q 3153 47 2828 -22 
Q 2503 -91 2169 -91 
Q 1331 -91 842 396 
Q 353 884 353 1716 
Q 353 2575 817 3079 
Q 1281 3584 2069 3584 
Q 2775 3584 3186 3129 
Q 3597 2675 3597 1894 
z
M 3022 2063 
Q 3016 2534 2758 2815 
Q 2500 3097 2075 3097 
Q 1594 3097 1305 2825 
Q 1016 2553 972 2059 
L 3022 2063 
z
" transform="scale(0.015625)"/>
       <path id="DejaVuSans-78" d="M 3513 3500 
L 2247 1797 
L 3578 0 
L 2900 0 
L 1881 1375 
L 863 0 
L 184 0 
L 1544 1831 
L 300 3500 
L 978 3500 
L 1906 2253 
L 2834 3500 
L 3513 3500 
z
" transform="scale(0.015625)"/>
      </defs>
      <use xlink:href="#DejaVuSans-49"/>
      <use xlink:href="#DejaVuSans-6e" transform="translate(29.492188 0)"/>
      <use xlink:href="#DejaVuSans-64" transform="translate(92.871094 0)"/>
      <use xlink:href="#DejaVuSans-65" transform="translate(156.347656 0)"/>
      <use xlink:href="#DejaVuSans-78" transform="translate(216.121094 0)"/>
     </g>
    </g>
   </g>
   <g id="matplotlib.axis_2">
    <g id="ytick_1">
     <g id="line2d_7">
      <defs>
       <path id="m5b7b5fbd77" d="M 0 0 
L -3.5 0 
" style="stroke: #000000; stroke-width: 0.8"/>
      </defs>
      <g>
       <use xlink:href="#m5b7b5fbd77" x="90" y="384.48" style="stroke: #000000; stroke-width: 0.8"/>
      </g>
     </g>
     <g id="text_8">
      <!-- 0 -->
      <g transform="translate(76.6375 388.279219) scale(0.1 -0.1)">
       <use xlink:href="#DejaVuSans-30"/>
      </g>
     </g>
    </g>
    <g id="ytick_2">
     <g id="line2d_8">
      <g>
       <use xlink:href="#m5b7b5fbd77" x="90" y="346.163547" style="stroke: #000000; stroke-width: 0.8"/>
      </g>
     </g>
     <g id="text_9">
      <!-- 5 -->
      <g transform="translate(76.6375 349.962765) scale(0.1 -0.1)">
       <use xlink:href="#DejaVuSans-35"/>
      </g>
     </g>
    </g>
    <g id="ytick_3">
     <g id="line2d_9">
      <g>
       <use xlink:href="#m5b7b5fbd77" x="90" y="307.847093" style="stroke: #000000; stroke-width: 0.8"/>
      </g>
     </g>
     <g id="text_10">
      <!-- 10 -->
      <g transform="translate(70.275 311.646312) scale(0.1 -0.1)">
       <use xlink:href="#DejaVuSans-31"/>
       <use xlink:href="#DejaVuSans-30" transform="translate(63.623047 0)"/>
      </g>
     </g>
    </g>
    <g id="ytick_4">
     <g id="line2d_10">
      <g>
       <use xlink:href="#m5b7b5fbd77" x="90" y="269.53064" style="stroke: #000000; stroke-width: 0.8"/>
      </g>
     </g>
     <g id="text_11">
      <!-- 15 -->
      <g transform="translate(70.275 273.329859) scale(0.1 -0.1)">
       <use xlink:href="#DejaVuSans-31"/>
       <use xlink:href="#DejaVuSans-35" transform="translate(63.623047 0)"/>
      </g>
     </g>
    </g>
    <g id="ytick_5">
     <g id="line2d_11">
      <g>
       <use xlink:href="#m5b7b5fbd77" x="90" y="231.214187" style="stroke: #000000; stroke-width: 0.8"/>
      </g>
     </g>
     <g id="text_12">
      <!-- 20 -->
      <g transform="translate(70.275 235.013405) scale(0.1 -0.1)">
       <use xlink:href="#DejaVuSans-32"/>
       <use xlink:href="#DejaVuSans-30" transform="translate(63.623047 0)"/>
      </g>
     </g>
    </g>
    <g id="ytick_6">
     <g id="line2d_12">
      <g>
       <use xlink:href="#m5b7b5fbd77" x="90" y="192.897733" style="stroke: #000000; stroke-width: 0.8"/>
      </g>
     </g>
     <g id="text_13">
      <!-- 25 -->
      <g transform="translate(70.275 196.696952) scale(0.1 -0.1)">
       <use xlink:href="#DejaVuSans-32"/>
       <use xlink:href="#DejaVuSans-35" transform="translate(63.623047 0)"/>
      </g>
     </g>
    </g>
    <g id="ytick_7">
     <g id="line2d_13">
      <g>
       <use xlink:href="#m5b7b5fbd77" x="90" y="154.58128" style="stroke: #000000; stroke-width: 0.8"/>
      </g>
     </g>
     <g id="text_14">
      <!-- 30 -->
      <g transform="translate(70.275 158.380499) scale(0.1 -0.1)">
       <use xlink:href="#DejaVuSans-33"/>
       <use xlink:href="#DejaVuSans-30" transform="translate(63.623047 0)"/>
      </g>
     </g>
    </g>
    <g id="ytick_8">
     <g id="line2d_14">
      <g>
       <use xlink:href="#m5b7b5fbd77" x="90" y="116.264826" style="stroke: #000000; stroke-width: 0.8"/>
      </g>
     </g>
     <g id="text_15">
      <!-- 35 -->
      <g transform="translate(70.275 120.064045) scale(0.1 -0.1)">
       <use xlink:href="#DejaVuSans-33"/>
       <use xlink:href="#DejaVuSans-35" transform="translate(63.623047 0)"/>
      </g>
     </g>
    </g>
    <g id="ytick_9">
     <g id="line2d_15">
      <g>
       <use xlink:href="#m5b7b5fbd77" x="90" y="77.948373" style="stroke: #000000; stroke-width: 0.8"/>
      </g>
     </g>
     <g id="text_16">
      <!-- 40 -->
      <g transform="translate(70.275 81.747592) scale(0.1 -0.1)">
       <use xlink:href="#DejaVuSans-34"/>
       <use xlink:href="#DejaVuSans-30" transform="translate(63.623047 0)"/>
      </g>
     </g>
    </g>
    <g id="text_17">
     <!-- Average time (ms) -->
     <g transform="translate(64.195312 264.543594) rotate(-90) scale(0.1 -0.1)">
      <defs>
       <path id="DejaVuSans-41" d="M 2188 4044 
L 1331 1722 
L 3047 1722 
L 2188 4044 
z
M 1831 4666 
L 2547 4666 
L 4325 0 
L 3669 0 
L 3244 1197 
L 1141 1197 
L 716 0 
L 50 0 
L 1831 4666 
z
" transform="scale(0.015625)"/>
       <path id="DejaVuSans-76" d="M 191 3500 
L 800 3500 
L 1894 563 
L 2988 3500 
L 3597 3500 
L 2284 0 
L 1503 0 
L 191 3500 
z
" transform="scale(0.015625)"/>
       <path id="DejaVuSans-72" d="M 2631 2963 
Q 2534 3019 2420 3045 
Q 2306 3072 2169 3072 
Q 1681 3072 1420 2755 
Q 1159 2438 1159 1844 
L 1159 0 
L 581 0 
L 581 3500 
L 1159 3500 
L 1159 2956 
Q 1341 3275 1631 3429 
Q 1922 3584 2338 3584 
Q 2397 3584 2469 3576 
Q 2541 3569 2628 3553 
L 2631 2963 
z
" transform="scale(0.015625)"/>
       <path id="DejaVuSans-61" d="M 2194 1759 
Q 1497 1759 1228 1600 
Q 959 1441 959 1056 
Q 959 750 1161 570 
Q 1363 391 1709 391 
Q 2188 391 2477 730 
Q 2766 1069 2766 1631 
L 2766 1759 
L 2194 1759 
z
M 3341 1997 
L 3341 0 
L 2766 0 
L 2766 531 
Q 2569 213 2275 61 
Q 1981 -91 1556 -91 
Q 1019 -91 701 211 
Q 384 513 384 1019 
Q 384 1609 779 1909 
Q 1175 2209 1959 2209 
L 2766 2209 
L 2766 2266 
Q 2766 2663 2505 2880 
Q 2244 3097 1772 3097 
Q 1472 3097 1187 3025 
Q 903 2953 641 2809 
L 641 3341 
Q 956 3463 1253 3523 
Q 1550 3584 1831 3584 
Q 2591 3584 2966 3190 
Q 3341 2797 3341 1997 
z
" transform="scale(0.015625)"/>
       <path id="DejaVuSans-67" d="M 2906 1791 
Q 2906 2416 2648 2759 
Q 2391 3103 1925 3103 
Q 1463 3103 1205 2759 
Q 947 2416 947 1791 
Q 947 1169 1205 825 
Q 1463 481 1925 481 
Q 2391 481 2648 825 
Q 2906 1169 2906 1791 
z
M 3481 434 
Q 3481 -459 3084 -895 
Q 2688 -1331 1869 -1331 
Q 1566 -1331 1297 -1286 
Q 1028 -1241 775 -1147 
L 775 -588 
Q 1028 -725 1275 -790 
Q 1522 -856 1778 -856 
Q 2344 -856 2625 -561 
Q 2906 -266 2906 331 
L 2906 616 
Q 2728 306 2450 153 
Q 2172 0 1784 0 
Q 1141 0 747 490 
Q 353 981 353 1791 
Q 353 2603 747 3093 
Q 1141 3584 1784 3584 
Q 2172 3584 2450 3431 
Q 2728 3278 2906 2969 
L 2906 3500 
L 3481 3500 
L 3481 434 
z
" transform="scale(0.015625)"/>
       <path id="DejaVuSans-20" transform="scale(0.015625)"/>
       <path id="DejaVuSans-74" d="M 1172 4494 
L 1172 3500 
L 2356 3500 
L 2356 3053 
L 1172 3053 
L 1172 1153 
Q 1172 725 1289 603 
Q 1406 481 1766 481 
L 2356 481 
L 2356 0 
L 1766 0 
Q 1100 0 847 248 
Q 594 497 594 1153 
L 594 3053 
L 172 3053 
L 172 3500 
L 594 3500 
L 594 4494 
L 1172 4494 
z
" transform="scale(0.015625)"/>
       <path id="DejaVuSans-69" d="M 603 3500 
L 1178 3500 
L 1178 0 
L 603 0 
L 603 3500 
z
M 603 4863 
L 1178 4863 
L 1178 4134 
L 603 4134 
L 603 4863 
z
" transform="scale(0.015625)"/>
       <path id="DejaVuSans-6d" d="M 3328 2828 
Q 3544 3216 3844 3400 
Q 4144 3584 4550 3584 
Q 5097 3584 5394 3201 
Q 5691 2819 5691 2113 
L 5691 0 
L 5113 0 
L 5113 2094 
Q 5113 2597 4934 2840 
Q 4756 3084 4391 3084 
Q 3944 3084 3684 2787 
Q 3425 2491 3425 1978 
L 3425 0 
L 2847 0 
L 2847 2094 
Q 2847 2600 2669 2842 
Q 2491 3084 2119 3084 
Q 1678 3084 1418 2786 
Q 1159 2488 1159 1978 
L 1159 0 
L 581 0 
L 581 3500 
L 1159 3500 
L 1159 2956 
Q 1356 3278 1631 3431 
Q 1906 3584 2284 3584 
Q 2666 3584 2933 3390 
Q 3200 3197 3328 2828 
z
" transform="scale(0.015625)"/>
       <path id="DejaVuSans-28" d="M 1984 4856 
Q 1566 4138 1362 3434 
Q 1159 2731 1159 2009 
Q 1159 1288 1364 580 
Q 1569 -128 1984 -844 
L 1484 -844 
Q 1016 -109 783 600 
Q 550 1309 550 2009 
Q 550 2706 781 3412 
Q 1013 4119 1484 4856 
L 1984 4856 
z
" transform="scale(0.015625)"/>
       <path id="DejaVuSans-73" d="M 2834 3397 
L 2834 2853 
Q 2591 2978 2328 3040 
Q 2066 3103 1784 3103 
Q 1356 3103 1142 2972 
Q 928 2841 928 2578 
Q 928 2378 1081 2264 
Q 1234 2150 1697 2047 
L 1894 2003 
Q 2506 1872 2764 1633 
Q 3022 1394 3022 966 
Q 3022 478 2636 193 
Q 2250 -91 1575 -91 
Q 1294 -91 989 -36 
Q 684 19 347 128 
L 347 722 
Q 666 556 975 473 
Q 1284 391 1588 391 
Q 1994 391 2212 530 
Q 2431 669 2431 922 
Q 2431 1156 2273 1281 
Q 2116 1406 1581 1522 
L 1381 1569 
Q 847 1681 609 1914 
Q 372 2147 372 2553 
Q 372 3047 722 3315 
Q 1072 3584 1716 3584 
Q 2034 3584 2315 3537 
Q 2597 3491 2834 3397 
z
" transform="scale(0.015625)"/>
       <path id="DejaVuSans-29" d="M 513 4856 
L 1013 4856 
Q 1481 4119 1714 3412 
Q 1947 2706 1947 2009 
Q 1947 1309 1714 600 
Q 1481 -109 1013 -844 
L 513 -844 
Q 928 -128 1133 580 
Q 1338 1288 1338 2009 
Q 1338 2731 1133 3434 
Q 928 4138 513 4856 
z
" transform="scale(0.015625)"/>
      </defs>
      <use xlink:href="#DejaVuSans-41"/>
      <use xlink:href="#DejaVuSans-76" transform="translate(62.533203 0)"/>
      <use xlink:href="#DejaVuSans-65" transform="translate(121.712891 0)"/>
      <use xlink:href="#DejaVuSans-72" transform="translate(183.236328 0)"/>
      <use xlink:href="#DejaVuSans-61" transform="translate(224.349609 0)"/>
      <use xlink:href="#DejaVuSans-67" transform="translate(285.628906 0)"/>
      <use xlink:href="#DejaVuSans-65" transform="translate(349.105469 0)"/>
      <use xlink:href="#DejaVuSans-20" transform="translate(410.628906 0)"/>
      <use xlink:href="#DejaVuSans-74" transform="translate(442.416016 0)"/>
      <use xlink:href="#DejaVuSans-69" transform="translate(481.625 0)"/>
      <use xlink:href="#DejaVuSans-6d" transform="translate(509.408203 0)"/>
      <use xlink:href="#DejaVuSans-65" transform="translate(606.820312 0)"/>
      <use xlink:href="#DejaVuSans-20" transform="translate(668.34375 0)"/>
      <use xlink:href="#DejaVuSans-28" transform="translate(700.130859 0)"/>
      <use xlink:href="#DejaVuSans-6d" transform="translate(739.144531 0)"/>
      <use xlink:href="#DejaVuSans-73" transform="translate(836.556641 0)"/>
      <use xlink:href="#DejaVuSans-29" transform="translate(888.65625 0)"/>
     </g>
    </g>
   </g>
   <g id="line2d_16">
    <path d="M 115.363636 66.730891 
L 117.235491 338.233323 
L 118.171419 349.913304 
L 119.107347 339.767439 
L 120.043274 350.635433 
L 120.979202 340.584257 
L 121.915129 345.823695 
L 122.851057 343.326623 
L 123.786984 339.279531 
L 124.722912 342.969212 
L 125.658839 347.441591 
L 126.594767 349.740942 
L 127.530694 348.56859 
L 128.466622 345.964351 
L 129.402549 346.782393 
L 130.338477 342.281865 
L 131.274405 350.645282 
L 132.210332 343.655303 
L 133.14626 347.329993 
L 134.082187 344.764011 
L 135.018115 341.734196 
L 135.954042 341.880266 
L 136.88997 348.070044 
L 137.825897 326.599191 
L 138.761825 334.530337 
L 139.697752 337.22202 
L 140.63368 312.964079 
L 141.569608 285.410468 
L 142.505535 301.803486 
L 143.441463 322.61533 
L 144.37739 286.860062 
L 145.313318 267.327139 
L 146.249245 233.52871 
L 147.185173 255.972238 
L 148.1211 240.591475 
L 149.057028 275.643302 
L 149.992955 230.149217 
L 150.928883 266.753268 
L 151.86481 281.84061 
L 152.800738 266.44723 
L 153.736666 283.841316 
L 154.672593 239.15208 
L 155.608521 247.312368 
L 156.544448 289.673443 
L 157.480376 253.673555 
L 158.416303 257.599934 
L 159.352231 281.979704 
L 160.288158 256.389234 
L 161.224086 291.212013 
L 162.160013 273.828068 
L 163.095941 249.02266 
L 164.031869 249.872399 
L 164.967796 278.792189 
L 165.903724 285.080121 
L 166.839651 275.275608 
L 168.711506 250.550084 
L 169.647434 275.549467 
L 171.519289 242.92187 
L 172.455216 280.81293 
L 173.391144 282.349749 
L 174.327071 231.110173 
L 175.262999 234.211858 
L 176.198927 257.303844 
L 177.134854 271.358984 
L 178.070782 238.551073 
L 179.006709 292.268823 
L 179.942637 223.788097 
L 180.878564 248.43367 
L 181.814492 208.226651 
L 182.750419 246.460668 
L 183.686347 245.414194 
L 184.622274 215.061413 
L 185.558202 273.927642 
L 186.494129 272.704263 
L 187.430057 262.576259 
L 189.301912 319.144807 
L 190.23784 307.512584 
L 191.173767 322.916724 
L 192.109695 324.203402 
L 193.045622 319.05276 
L 193.98155 329.821157 
L 194.917477 316.350258 
L 195.853405 327.871698 
L 196.789332 332.090226 
L 197.72526 335.057204 
L 198.661188 341.664673 
L 199.597115 341.293763 
L 200.533043 334.326026 
L 201.46897 322.307855 
L 202.404898 316.600352 
L 203.340825 322.062179 
L 204.276753 335.31635 
L 205.21268 339.338135 
L 206.148608 341.454615 
L 207.084535 332.796123 
L 208.020463 335.750954 
L 208.95639 339.790271 
L 209.892318 339.150895 
L 210.828246 327.633816 
L 211.764173 337.951098 
L 212.700101 339.434462 
L 213.636028 339.368073 
L 214.571956 340.233951 
L 215.507883 350.2481 
L 216.443811 339.494936 
L 217.379738 335.279871 
L 218.315666 339.963062 
L 220.187521 350.177146 
L 221.123449 346.149417 
L 222.059376 355.031537 
L 223.931231 344.225908 
L 224.867159 348.584346 
L 225.803086 327.753506 
L 226.739014 350.427936 
L 227.674941 344.595097 
L 228.610869 350.338126 
L 229.546796 353.136258 
L 230.482724 354.29249 
L 231.418651 358.606931 
L 232.354579 353.398475 
L 233.290507 356.316178 
L 234.226434 351.445372 
L 235.162362 357.352597 
L 236.098289 356.963808 
L 237.034217 355.341778 
L 237.970144 358.424506 
L 238.906072 356.228608 
L 239.841999 359.585557 
L 240.777927 358.326676 
L 241.713854 359.734372 
L 242.649782 360.94095 
L 243.585709 359.152547 
L 244.521637 359.064972 
L 245.457565 357.433012 
L 246.393492 361.243192 
L 247.32942 361.0141 
L 248.265347 358.945418 
L 249.201275 358.563038 
L 250.137202 360.894789 
L 251.07313 358.859402 
L 252.009057 359.375458 
L 252.944985 359.255213 
L 253.880912 357.306224 
L 254.81684 357.136275 
L 255.752768 359.347345 
L 256.688695 356.799015 
L 257.624623 359.221486 
L 258.56055 359.120193 
L 259.496478 354.481262 
L 260.432405 358.741742 
L 261.368333 359.37089 
L 262.30426 356.484328 
L 263.240188 360.834647 
L 264.176115 357.224073 
L 265.112043 354.967512 
L 266.04797 356.276637 
L 266.983898 354.86312 
L 267.919826 354.015268 
L 268.855753 357.191325 
L 269.791681 357.418881 
L 270.727608 359.485643 
L 271.663536 358.032162 
L 272.599463 360.729848 
L 273.535391 362.001731 
L 274.471318 358.387015 
L 275.407246 360.356305 
L 276.343173 359.407807 
L 277.279101 358.810507 
L 278.215029 361.07166 
L 279.150956 359.004306 
L 280.086884 360.622346 
L 281.022811 360.738484 
L 281.958739 356.656067 
L 282.894666 359.995909 
L 283.830594 360.39255 
L 284.766521 362.129368 
L 285.702449 358.938357 
L 286.638376 360.987185 
L 287.574304 359.689711 
L 288.510231 361.550507 
L 289.446159 360.531226 
L 290.382087 360.678108 
L 291.318014 359.164022 
L 292.253942 359.65598 
L 293.189869 358.250238 
L 294.125797 357.709282 
L 295.061724 356.475414 
L 295.997652 357.249113 
L 296.933579 355.350775 
L 297.869507 359.335964 
L 298.805434 362.284125 
L 299.741362 359.397859 
L 300.67729 358.695732 
L 301.613217 360.106595 
L 302.549145 359.810647 
L 303.485072 360.256868 
L 304.421 359.535792 
L 305.356927 358.005827 
L 306.292855 360.149275 
L 307.228782 360.138901 
L 308.16471 357.473216 
L 309.100637 352.771962 
L 310.036565 357.569044 
L 310.972492 358.889266 
L 311.90842 356.897039 
L 312.844348 360.053652 
L 313.780275 360.689726 
L 314.716203 360.305494 
L 315.65213 360.947155 
L 316.588058 360.471004 
L 317.523985 361.299372 
L 318.459913 359.456264 
L 319.39584 362.997917 
L 320.331768 362.21635 
L 321.267695 360.299127 
L 322.203623 358.03655 
L 323.13955 359.797282 
L 324.075478 360.349462 
L 325.011406 356.940518 
L 325.947333 355.149463 
L 326.883261 361.454561 
L 327.819188 360.407783 
L 328.755116 361.494641 
L 329.691043 359.305873 
L 330.626971 361.108234 
L 331.562898 363.234645 
L 332.498826 361.870177 
L 333.434753 359.299011 
L 334.370681 359.559779 
L 335.306609 359.478703 
L 336.242536 360.311191 
L 337.178464 354.306939 
L 338.114391 359.247689 
L 339.050319 360.233411 
L 339.986246 360.912006 
L 340.922174 361.06886 
L 341.858101 359.738205 
L 342.794029 361.371244 
L 343.729956 359.816242 
L 344.665884 360.811978 
L 345.601811 358.596658 
L 347.473667 361.575012 
L 348.409594 360.135355 
L 349.345522 358.468378 
L 350.281449 359.813237 
L 351.217377 358.134604 
L 352.153304 360.160372 
L 353.089232 359.865742 
L 354.025159 358.135143 
L 354.961087 354.349449 
L 355.897014 354.013658 
L 356.832942 359.181331 
L 357.76887 356.797901 
L 358.704797 357.395897 
L 359.640725 358.202464 
L 360.576652 360.239786 
L 361.51258 359.596527 
L 362.448507 360.982684 
L 363.384435 361.033259 
L 364.320362 360.103879 
L 365.25629 360.554322 
L 366.192217 361.700731 
L 367.128145 360.027313 
L 369 359.196071 
L 369.935928 359.681256 
L 370.871855 359.621346 
L 371.807783 359.874246 
L 372.74371 359.578821 
L 373.679638 360.633952 
L 374.615565 358.004158 
L 375.551493 361.45171 
L 376.48742 356.453176 
L 377.423348 360.802201 
L 378.359275 362.03796 
L 379.295203 361.944804 
L 380.23113 359.160714 
L 381.167058 359.494145 
L 382.102986 361.33457 
L 383.038913 362.3118 
L 383.974841 360.753398 
L 384.910768 357.460995 
L 385.846696 360.279756 
L 386.782623 356.27645 
L 387.718551 359.573117 
L 389.590406 361.237828 
L 390.526333 361.830939 
L 391.462261 361.234852 
L 392.398189 360.261885 
L 393.334116 360.424949 
L 394.270044 356.706057 
L 395.205971 358.257576 
L 396.141899 358.230576 
L 397.077826 359.967585 
L 398.013754 362.427493 
L 398.949681 358.606483 
L 399.885609 360.041604 
L 400.821536 360.373794 
L 401.757464 357.961251 
L 402.693391 361.378037 
L 403.629319 362.291763 
L 404.565247 363.84492 
L 405.501174 361.914698 
L 406.437102 360.419325 
L 407.373029 361.216725 
L 408.308957 362.476146 
L 409.244884 360.116115 
L 410.180812 361.624178 
L 411.116739 360.166532 
L 412.052667 361.418494 
L 412.988594 361.382309 
L 413.924522 358.389608 
L 414.86045 357.382003 
L 415.796377 361.315226 
L 416.732305 360.525627 
L 417.668232 360.865715 
L 418.60416 360.678557 
L 419.540087 361.501906 
L 420.476015 363.484273 
L 421.411942 362.086833 
L 422.34787 359.046874 
L 423.283797 360.110479 
L 424.219725 363.211747 
L 425.155652 361.413933 
L 426.09158 360.915833 
L 427.027508 359.720741 
L 427.963435 360.880768 
L 428.899363 361.15122 
L 429.83529 360.233842 
L 431.707145 361.491561 
L 432.643073 362.284551 
L 433.579 359.437719 
L 434.514928 362.45678 
L 435.450855 361.044454 
L 436.386783 360.667848 
L 437.32271 359.23199 
L 438.258638 362.425089 
L 439.194566 361.662373 
L 440.130493 362.964826 
L 441.066421 361.450303 
L 442.002348 361.679662 
L 442.938276 360.500549 
L 443.874203 359.745204 
L 445.746058 363.604301 
L 448.553841 357.47097 
L 449.489769 359.352137 
L 450.425696 359.194434 
L 451.361624 360.18077 
L 452.297551 360.197335 
L 453.233479 357.264716 
L 454.169406 357.7081 
L 455.105334 362.283216 
L 456.041261 359.28894 
L 456.977189 361.253448 
L 457.913116 360.528606 
L 459.784971 360.83476 
L 460.720899 358.6063 
L 461.656827 363.588148 
L 462.592754 358.985767 
L 463.528682 359.757455 
L 464.464609 360.777903 
L 465.400537 361.546507 
L 466.336464 361.172124 
L 467.272392 361.002612 
L 468.208319 362.674492 
L 469.144247 362.191798 
L 470.080174 362.260189 
L 471.016102 358.919194 
L 471.95203 361.915811 
L 472.887957 361.37377 
L 473.823885 357.418436 
L 474.759812 360.087746 
L 475.69574 360.666615 
L 476.631667 357.179757 
L 477.567595 358.790605 
L 478.503522 361.457116 
L 479.43945 361.492852 
L 480.375377 362.157969 
L 481.311305 362.543622 
L 482.247232 360.763925 
L 483.18316 362.969529 
L 484.119088 360.681584 
L 485.055015 362.08308 
L 485.990943 360.547513 
L 486.92687 363.386894 
L 487.862798 361.915856 
L 488.798725 362.455208 
L 489.734653 363.905011 
L 490.67058 361.171046 
L 491.606508 361.241078 
L 492.542435 358.423453 
L 493.478363 361.847994 
L 494.414291 362.429365 
L 495.350218 362.576157 
L 496.286146 363.509012 
L 497.222073 362.996426 
L 498.158001 363.633637 
L 499.093928 363.09285 
L 500.965783 363.524735 
L 501.901711 361.746208 
L 502.837638 360.84769 
L 503.773566 359.38238 
L 504.709493 361.138585 
L 506.581349 361.408663 
L 507.517276 361.092803 
L 508.453204 361.903757 
L 509.389131 361.536928 
L 510.325059 360.762725 
L 511.260986 361.967971 
L 512.196914 361.532954 
L 513.132841 358.06658 
L 514.068769 361.654401 
L 515.004696 360.869675 
L 515.940624 361.025869 
L 516.876551 362.137347 
L 517.812479 359.254698 
L 518.748407 360.550916 
L 519.684334 361.325242 
L 520.620262 361.914341 
L 521.556189 360.876599 
L 522.492117 357.421268 
L 523.428044 361.312529 
L 524.363972 360.372399 
L 525.299899 356.003396 
L 526.235827 361.223921 
L 527.171754 360.76835 
L 528.107682 362.630927 
L 529.04361 363.220307 
L 529.979537 361.706854 
L 530.915465 352.127414 
L 531.851392 362.26272 
L 532.78732 362.591481 
L 533.723247 358.812921 
L 535.595102 358.918202 
L 536.53103 361.443967 
L 537.466957 360.200168 
L 538.402885 362.188085 
L 539.338812 363.01781 
L 540.27474 362.77735 
L 541.210668 361.828311 
L 543.082523 363.143566 
L 544.954378 363.28341 
L 545.890305 363.874644 
L 546.826233 360.776202 
L 547.76216 363.344894 
L 548.698088 364.548713 
L 549.634015 362.794826 
L 550.569943 362.447712 
L 551.505871 363.368413 
L 552.441798 361.142584 
L 553.377726 361.546806 
L 554.313653 364.415785 
L 555.249581 362.288712 
L 556.185508 363.223666 
L 557.121436 363.34914 
L 558.057363 363.607703 
L 558.993291 361.605264 
L 559.929218 362.865896 
L 560.865146 362.477201 
L 561.801073 358.993836 
L 562.737001 362.118957 
L 563.672929 360.707978 
L 564.608856 362.630492 
L 565.544784 362.025381 
L 566.480711 363.840694 
L 567.416639 363.002249 
L 568.352566 362.703119 
L 569.288494 361.741895 
L 570.224421 359.462612 
L 571.160349 361.123121 
L 572.096276 361.865962 
L 573.032204 363.74729 
L 573.968131 362.26392 
L 574.904059 360.108178 
L 575.839987 362.356904 
L 576.775914 360.452453 
L 577.711842 363.088415 
L 578.647769 362.060875 
L 579.583697 363.022293 
L 581.455552 363.671733 
L 582.391479 362.93695 
L 583.327407 363.046904 
L 584.263334 359.310629 
L 585.199262 362.157617 
L 586.13519 359.89801 
L 587.071117 361.491935 
L 588.007045 362.686928 
L 588.942972 360.395478 
L 589.8789 362.101093 
L 590.814827 361.82966 
L 591.750755 360.473651 
L 592.686682 361.409994 
L 593.62261 355.008317 
L 594.558537 361.685563 
L 595.494465 363.521095 
L 596.430392 360.912685 
L 597.36632 359.200514 
L 598.302248 362.535966 
L 599.238175 363.421346 
L 600.174103 363.029137 
L 601.11003 361.718499 
L 602.045958 362.756329 
L 602.981885 363.116885 
L 603.917813 363.169204 
L 604.85374 363.432356 
L 605.789668 362.578652 
L 606.725595 359.524822 
L 607.661523 360.784428 
L 608.597451 361.655659 
L 609.533378 359.133209 
L 612.341161 363.047283 
L 613.277088 361.941667 
L 614.213016 361.853139 
L 615.148943 362.695252 
L 616.084871 360.638377 
L 617.020798 359.81246 
L 617.956726 361.145078 
L 618.892653 363.28684 
L 619.828581 361.029445 
L 620.764509 363.310967 
L 621.700436 360.813741 
L 622.636364 362.958255 
L 622.636364 362.958255 
" clip-path="url(#p74b1719ad5)" style="fill: none; stroke: #1f77b4; stroke-width: 1.5; stroke-linecap: square"/>
   </g>
   <g id="patch_3">
    <path d="M 90 384.48 
L 90 51.84 
" style="fill: none; stroke: #000000; stroke-width: 0.8; stroke-linejoin: miter; stroke-linecap: square"/>
   </g>
   <g id="patch_4">
    <path d="M 648 384.48 
L 648 51.84 
" style="fill: none; stroke: #000000; stroke-width: 0.8; stroke-linejoin: miter; stroke-linecap: square"/>
   </g>
   <g id="patch_5">
    <path d="M 90 384.48 
L 648 384.48 
" style="fill: none; stroke: #000000; stroke-width: 0.8; stroke-linejoin: miter; stroke-linecap: square"/>
   </g>
   <g id="patch_6">
    <path d="M 90 51.84 
L 648 51.84 
" style="fill: none; stroke: #000000; stroke-width: 0.8; stroke-linejoin: miter; stroke-linecap: square"/>
   </g>
   <g id="text_18">
    <!-- Average time per index -->
    <g transform="translate(298.700625 45.84) scale(0.12 -0.12)">
     <defs>
      <path id="DejaVuSans-70" d="M 1159 525 
L 1159 -1331 
L 581 -1331 
L 581 3500 
L 1159 3500 
L 1159 2969 
Q 1341 3281 1617 3432 
Q 1894 3584 2278 3584 
Q 2916 3584 3314 3078 
Q 3713 2572 3713 1747 
Q 3713 922 3314 415 
Q 2916 -91 2278 -91 
Q 1894 -91 1617 61 
Q 1341 213 1159 525 
z
M 3116 1747 
Q 3116 2381 2855 2742 
Q 2594 3103 2138 3103 
Q 1681 3103 1420 2742 
Q 1159 2381 1159 1747 
Q 1159 1113 1420 752 
Q 1681 391 2138 391 
Q 2594 391 2855 752 
Q 3116 1113 3116 1747 
z
" transform="scale(0.015625)"/>
     </defs>
     <use xlink:href="#DejaVuSans-41"/>
     <use xlink:href="#DejaVuSans-76" transform="translate(62.533203 0)"/>
     <use xlink:href="#DejaVuSans-65" transform="translate(121.712891 0)"/>
     <use xlink:href="#DejaVuSans-72" transform="translate(183.236328 0)"/>
     <use xlink:href="#DejaVuSans-61" transform="translate(224.349609 0)"/>
     <use xlink:href="#DejaVuSans-67" transform="translate(285.628906 0)"/>
     <use xlink:href="#DejaVuSans-65" transform="translate(349.105469 0)"/>
     <use xlink:href="#DejaVuSans-20" transform="translate(410.628906 0)"/>
     <use xlink:href="#DejaVuSans-74" transform="translate(442.416016 0)"/>
     <use xlink:href="#DejaVuSans-69" transform="translate(481.625 0)"/>
     <use xlink:href="#DejaVuSans-6d" transform="translate(509.408203 0)"/>
     <use xlink:href="#DejaVuSans-65" transform="translate(606.820312 0)"/>
     <use xlink:href="#DejaVuSans-20" transform="translate(668.34375 0)"/>
     <use xlink:href="#DejaVuSans-70" transform="translate(700.130859 0)"/>
     <use xlink:href="#DejaVuSans-65" transform="translate(763.607422 0)"/>
     <use xlink:href="#DejaVuSans-72" transform="translate(825.130859 0)"/>
     <use xlink:href="#DejaVuSans-20" transform="translate(866.244141 0)"/>
     <use xlink:href="#DejaVuSans-69" transform="translate(898.03125 0)"/>
     <use xlink:href="#DejaVuSans-6e" transform="translate(925.814453 0)"/>
     <use xlink:href="#DejaVuSans-64" transform="translate(989.193359 0)"/>
     <use xlink:href="#DejaVuSans-65" transform="translate(1052.669922 0)"/>
     <use xlink:href="#DejaVuSans-78" transform="translate(1112.443359 0)"/>
    </g>
   </g>
   <g id="legend_1">
    <g id="patch_7">
     <path d="M 525.064062 74.518125 
L 641 74.518125 
Q 643 74.518125 643 72.518125 
L 643 58.84 
Q 643 56.84 641 56.84 
L 525.064062 56.84 
Q 523.064062 56.84 523.064062 58.84 
L 523.064062 72.518125 
Q 523.064062 74.518125 525.064062 74.518125 
z
" style="fill: #ffffff; opacity: 0.8; stroke: #cccccc; stroke-linejoin: miter"/>
    </g>
    <g id="line2d_17">
     <path d="M 527.064062 64.938438 
L 537.064062 64.938438 
L 547.064062 64.938438 
" style="fill: none; stroke: #1f77b4; stroke-width: 1.5; stroke-linecap: square"/>
    </g>
    <g id="text_19">
     <!-- registerFaultload -->
     <g transform="translate(555.064062 68.438438) scale(0.1 -0.1)">
      <defs>
       <path id="DejaVuSans-46" d="M 628 4666 
L 3309 4666 
L 3309 4134 
L 1259 4134 
L 1259 2759 
L 3109 2759 
L 3109 2228 
L 1259 2228 
L 1259 0 
L 628 0 
L 628 4666 
z
" transform="scale(0.015625)"/>
       <path id="DejaVuSans-75" d="M 544 1381 
L 544 3500 
L 1119 3500 
L 1119 1403 
Q 1119 906 1312 657 
Q 1506 409 1894 409 
Q 2359 409 2629 706 
Q 2900 1003 2900 1516 
L 2900 3500 
L 3475 3500 
L 3475 0 
L 2900 0 
L 2900 538 
Q 2691 219 2414 64 
Q 2138 -91 1772 -91 
Q 1169 -91 856 284 
Q 544 659 544 1381 
z
M 1991 3584 
L 1991 3584 
z
" transform="scale(0.015625)"/>
       <path id="DejaVuSans-6c" d="M 603 4863 
L 1178 4863 
L 1178 0 
L 603 0 
L 603 4863 
z
" transform="scale(0.015625)"/>
       <path id="DejaVuSans-6f" d="M 1959 3097 
Q 1497 3097 1228 2736 
Q 959 2375 959 1747 
Q 959 1119 1226 758 
Q 1494 397 1959 397 
Q 2419 397 2687 759 
Q 2956 1122 2956 1747 
Q 2956 2369 2687 2733 
Q 2419 3097 1959 3097 
z
M 1959 3584 
Q 2709 3584 3137 3096 
Q 3566 2609 3566 1747 
Q 3566 888 3137 398 
Q 2709 -91 1959 -91 
Q 1206 -91 779 398 
Q 353 888 353 1747 
Q 353 2609 779 3096 
Q 1206 3584 1959 3584 
z
" transform="scale(0.015625)"/>
      </defs>
      <use xlink:href="#DejaVuSans-72"/>
      <use xlink:href="#DejaVuSans-65" transform="translate(38.863281 0)"/>
      <use xlink:href="#DejaVuSans-67" transform="translate(100.386719 0)"/>
      <use xlink:href="#DejaVuSans-69" transform="translate(163.863281 0)"/>
      <use xlink:href="#DejaVuSans-73" transform="translate(191.646484 0)"/>
      <use xlink:href="#DejaVuSans-74" transform="translate(243.746094 0)"/>
      <use xlink:href="#DejaVuSans-65" transform="translate(282.955078 0)"/>
      <use xlink:href="#DejaVuSans-72" transform="translate(344.478516 0)"/>
      <use xlink:href="#DejaVuSans-46" transform="translate(385.591797 0)"/>
      <use xlink:href="#DejaVuSans-61" transform="translate(433.986328 0)"/>
      <use xlink:href="#DejaVuSans-75" transform="translate(495.265625 0)"/>
      <use xlink:href="#DejaVuSans-6c" transform="translate(558.644531 0)"/>
      <use xlink:href="#DejaVuSans-74" transform="translate(586.427734 0)"/>
      <use xlink:href="#DejaVuSans-6c" transform="translate(625.636719 0)"/>
      <use xlink:href="#DejaVuSans-6f" transform="translate(653.419922 0)"/>
      <use xlink:href="#DejaVuSans-61" transform="translate(714.601562 0)"/>
      <use xlink:href="#DejaVuSans-64" transform="translate(775.880859 0)"/>
     </g>
    </g>
   </g>
  </g>
 </g>
 <defs>
  <clipPath id="p74b1719ad5">
   <rect x="90" y="51.84" width="558" height="332.64"/>
  </clipPath>
 </defs>
</svg>
