<?xml version="1.0" encoding="utf-8" standalone="no"?>
<!DOCTYPE svg PUBLIC "-//W3C//DTD SVG 1.1//EN"
  "http://www.w3.org/Graphics/SVG/1.1/DTD/svg11.dtd">
<svg xmlns:xlink="http://www.w3.org/1999/xlink" width="576pt" height="432pt" viewBox="0 0 576 432" xmlns="http://www.w3.org/2000/svg" version="1.1">
 <metadata>
  <rdf:RDF xmlns:dc="http://purl.org/dc/elements/1.1/" xmlns:cc="http://creativecommons.org/ns#" xmlns:rdf="http://www.w3.org/1999/02/22-rdf-syntax-ns#">
   <cc:Work>
    <dc:type rdf:resource="http://purl.org/dc/dcmitype/StillImage"/>
    <dc:date>2025-06-10T03:16:25.278727</dc:date>
    <dc:format>image/svg+xml</dc:format>
    <dc:creator>
     <cc:Agent>
      <dc:title>Matplotlib v3.10.3, https://matplotlib.org/</dc:title>
     </cc:Agent>
    </dc:creator>
   </cc:Work>
  </rdf:RDF>
 </metadata>
 <defs>
  <style type="text/css">*{stroke-linejoin: round; stroke-linecap: butt}</style>
 </defs>
 <g id="figure_1">
  <g id="patch_1">
   <path d="M 0 432 
L 576 432 
L 576 0 
L 0 0 
z
" style="fill: #ffffff"/>
  </g>
  <g id="axes_1">
   <g id="patch_2">
    <path d="M 72 384.48 
L 518.4 384.48 
L 518.4 51.84 
L 72 51.84 
z
" style="fill: #ffffff"/>
   </g>
   <g id="FillBetweenPolyCollection_1">
    <path d="M 390.847663 362.057748 
L 199.552337 362.057748 
L 195.135666 359.07345 
L 191.338591 356.089153 
L 188.235796 353.104855 
L 185.886746 350.120557 
L 184.333643 347.136259 
L 183.6 344.151962 
L 183.689922 341.167664 
L 184.588085 338.183366 
L 186.26042 335.199069 
L 188.655451 332.214771 
L 191.706218 329.230473 
L 195.332703 326.246175 
L 199.444641 323.261878 
L 203.944609 320.27758 
L 208.731257 317.293282 
L 213.702576 314.308984 
L 218.759058 311.324687 
L 223.806648 308.340389 
L 228.759378 305.356091 
L 233.541599 302.371794 
L 238.089719 299.387496 
L 242.353421 296.403198 
L 246.29631 293.4189 
L 249.895993 290.434603 
L 253.143607 287.450305 
L 256.042847 284.466007 
L 258.608547 281.48171 
L 260.864918 278.497412 
L 262.843522 275.513114 
L 264.581114 272.528816 
L 266.117441 269.544519 
L 267.493122 266.560221 
L 268.747704 263.575923 
L 269.917967 260.591626 
L 271.036551 257.607328 
L 272.130943 254.62303 
L 273.222835 251.638732 
L 274.327857 248.654435 
L 275.455648 245.670137 
L 276.610232 242.685839 
L 277.790629 239.701541 
L 278.991651 236.717244 
L 280.204807 233.732946 
L 281.419246 230.748648 
L 282.622692 227.764351 
L 283.802305 224.780053 
L 284.945435 221.795755 
L 286.04024 218.811457 
L 287.07615 215.82716 
L 288.044174 212.842862 
L 288.937054 209.858564 
L 289.749286 206.874267 
L 290.477025 203.889969 
L 291.11789 200.905671 
L 291.670718 197.921373 
L 292.135276 194.937076 
L 292.511957 191.952778 
L 292.801508 188.96848 
L 293.004772 185.984183 
L 293.122505 182.999885 
L 293.155243 180.015587 
L 293.103249 177.031289 
L 292.966543 174.046992 
L 292.745 171.062694 
L 292.438524 168.078396 
L 292.047283 165.094098 
L 291.571979 162.109801 
L 291.014154 159.125503 
L 290.376496 156.141205 
L 289.663124 153.156908 
L 288.879831 150.17261 
L 288.034262 147.188312 
L 287.13601 144.204014 
L 286.196607 141.219717 
L 285.229411 138.235419 
L 284.249385 135.251121 
L 283.272766 132.266824 
L 282.316647 129.282526 
L 281.398489 126.298228 
L 280.535581 123.31393 
L 279.74449 120.329633 
L 279.040521 117.345335 
L 278.43722 114.361037 
L 277.945946 111.37674 
L 277.575538 108.392442 
L 277.33208 105.408144 
L 277.218787 102.423846 
L 277.235998 99.439549 
L 277.381281 96.455251 
L 277.649627 93.470953 
L 278.03372 90.486655 
L 278.524272 87.502358 
L 279.110383 84.51806 
L 279.779929 81.533762 
L 280.519943 78.549465 
L 281.316986 75.565167 
L 282.157491 72.580869 
L 283.028075 69.596571 
L 283.915813 66.612274 
L 306.484187 66.612274 
L 306.484187 66.612274 
L 307.371925 69.596571 
L 308.242509 72.580869 
L 309.083014 75.565167 
L 309.880057 78.549465 
L 310.620071 81.533762 
L 311.289617 84.51806 
L 311.875728 87.502358 
L 312.36628 90.486655 
L 312.750373 93.470953 
L 313.018719 96.455251 
L 313.164002 99.439549 
L 313.181213 102.423846 
L 313.06792 105.408144 
L 312.824462 108.392442 
L 312.454054 111.37674 
L 311.96278 114.361037 
L 311.359479 117.345335 
L 310.65551 120.329633 
L 309.864419 123.31393 
L 309.001511 126.298228 
L 308.083353 129.282526 
L 307.127234 132.266824 
L 306.150615 135.251121 
L 305.170589 138.235419 
L 304.203393 141.219717 
L 303.26399 144.204014 
L 302.365738 147.188312 
L 301.520169 150.17261 
L 300.736876 153.156908 
L 300.023504 156.141205 
L 299.385846 159.125503 
L 298.828021 162.109801 
L 298.352717 165.094098 
L 297.961476 168.078396 
L 297.655 171.062694 
L 297.433457 174.046992 
L 297.296751 177.031289 
L 297.244757 180.015587 
L 297.277495 182.999885 
L 297.395228 185.984183 
L 297.598492 188.96848 
L 297.888043 191.952778 
L 298.264724 194.937076 
L 298.729282 197.921373 
L 299.28211 200.905671 
L 299.922975 203.889969 
L 300.650714 206.874267 
L 301.462946 209.858564 
L 302.355826 212.842862 
L 303.32385 215.82716 
L 304.35976 218.811457 
L 305.454565 221.795755 
L 306.597695 224.780053 
L 307.777308 227.764351 
L 308.980754 230.748648 
L 310.195193 233.732946 
L 311.408349 236.717244 
L 312.609371 239.701541 
L 313.789768 242.685839 
L 314.944352 245.670137 
L 316.072143 248.654435 
L 317.177165 251.638732 
L 318.269057 254.62303 
L 319.363449 257.607328 
L 320.482033 260.591626 
L 321.652296 263.575923 
L 322.906878 266.560221 
L 324.282559 269.544519 
L 325.818886 272.528816 
L 327.556478 275.513114 
L 329.535082 278.497412 
L 331.791453 281.48171 
L 334.357153 284.466007 
L 337.256393 287.450305 
L 340.504007 290.434603 
L 344.10369 293.4189 
L 348.046579 296.403198 
L 352.310281 299.387496 
L 356.858401 302.371794 
L 361.640622 305.356091 
L 366.593352 308.340389 
L 371.640942 311.324687 
L 376.697424 314.308984 
L 381.668743 317.293282 
L 386.455391 320.27758 
L 390.955359 323.261878 
L 395.067297 326.246175 
L 398.693782 329.230473 
L 401.744549 332.214771 
L 404.13958 335.199069 
L 405.811915 338.183366 
L 406.710078 341.167664 
L 406.8 344.151962 
L 406.066357 347.136259 
L 404.513254 350.120557 
L 402.164204 353.104855 
L 399.061409 356.089153 
L 395.264334 359.07345 
L 390.847663 362.057748 
z
" clip-path="url(#pc39788e088)" style="fill: #1f77b4; fill-opacity: 0.3"/>
   </g>
   <g id="matplotlib.axis_1">
    <g id="xtick_1">
     <g id="line2d_1">
      <defs>
       <path id="m6030186030" d="M 0 0 
L 0 3.5 
" style="stroke: #000000; stroke-width: 0.8"/>
      </defs>
      <g>
       <use xlink:href="#m6030186030" x="295.2" y="384.48" style="stroke: #000000; stroke-width: 0.8"/>
      </g>
     </g>
     <g id="text_1">
      <!-- 1 -->
      <g transform="translate(292.01875 399.078438) scale(0.1 -0.1)">
       <defs>
        <path id="DejaVuSans-31" d="M 794 531 
L 1825 531 
L 1825 4091 
L 703 3866 
L 703 4441 
L 1819 4666 
L 2450 4666 
L 2450 531 
L 3481 531 
L 3481 0 
L 794 0 
L 794 531 
z
" transform="scale(0.015625)"/>
       </defs>
       <use xlink:href="#DejaVuSans-31"/>
      </g>
     </g>
    </g>
   </g>
   <g id="matplotlib.axis_2">
    <g id="ytick_1">
     <g id="line2d_2">
      <defs>
       <path id="m23912e9bdb" d="M 0 0 
L -3.5 0 
" style="stroke: #000000; stroke-width: 0.8"/>
      </defs>
      <g>
       <use xlink:href="#m23912e9bdb" x="72" y="384.48" style="stroke: #000000; stroke-width: 0.8"/>
      </g>
     </g>
     <g id="text_2">
      <!-- 0 -->
      <g transform="translate(58.6375 388.279219) scale(0.1 -0.1)">
       <defs>
        <path id="DejaVuSans-30" d="M 2034 4250 
Q 1547 4250 1301 3770 
Q 1056 3291 1056 2328 
Q 1056 1369 1301 889 
Q 1547 409 2034 409 
Q 2525 409 2770 889 
Q 3016 1369 3016 2328 
Q 3016 3291 2770 3770 
Q 2525 4250 2034 4250 
z
M 2034 4750 
Q 2819 4750 3233 4129 
Q 3647 3509 3647 2328 
Q 3647 1150 3233 529 
Q 2819 -91 2034 -91 
Q 1250 -91 836 529 
Q 422 1150 422 2328 
Q 422 3509 836 4129 
Q 1250 4750 2034 4750 
z
" transform="scale(0.015625)"/>
       </defs>
       <use xlink:href="#DejaVuSans-30"/>
      </g>
     </g>
    </g>
    <g id="ytick_2">
     <g id="line2d_3">
      <g>
       <use xlink:href="#m23912e9bdb" x="72" y="311.594722" style="stroke: #000000; stroke-width: 0.8"/>
      </g>
     </g>
     <g id="text_3">
      <!-- 5 -->
      <g transform="translate(58.6375 315.393941) scale(0.1 -0.1)">
       <defs>
        <path id="DejaVuSans-35" d="M 691 4666 
L 3169 4666 
L 3169 4134 
L 1269 4134 
L 1269 2991 
Q 1406 3038 1543 3061 
Q 1681 3084 1819 3084 
Q 2600 3084 3056 2656 
Q 3513 2228 3513 1497 
Q 3513 744 3044 326 
Q 2575 -91 1722 -91 
Q 1428 -91 1123 -41 
Q 819 9 494 109 
L 494 744 
Q 775 591 1075 516 
Q 1375 441 1709 441 
Q 2250 441 2565 725 
Q 2881 1009 2881 1497 
Q 2881 1984 2565 2268 
Q 2250 2553 1709 2553 
Q 1456 2553 1204 2497 
Q 953 2441 691 2322 
L 691 4666 
z
" transform="scale(0.015625)"/>
       </defs>
       <use xlink:href="#DejaVuSans-35"/>
      </g>
     </g>
    </g>
    <g id="ytick_3">
     <g id="line2d_4">
      <g>
       <use xlink:href="#m23912e9bdb" x="72" y="238.709444" style="stroke: #000000; stroke-width: 0.8"/>
      </g>
     </g>
     <g id="text_4">
      <!-- 10 -->
      <g transform="translate(52.275 242.508663) scale(0.1 -0.1)">
       <use xlink:href="#DejaVuSans-31"/>
       <use xlink:href="#DejaVuSans-30" transform="translate(63.623047 0)"/>
      </g>
     </g>
    </g>
    <g id="ytick_4">
     <g id="line2d_5">
      <g>
       <use xlink:href="#m23912e9bdb" x="72" y="165.824166" style="stroke: #000000; stroke-width: 0.8"/>
      </g>
     </g>
     <g id="text_5">
      <!-- 15 -->
      <g transform="translate(52.275 169.623385) scale(0.1 -0.1)">
       <use xlink:href="#DejaVuSans-31"/>
       <use xlink:href="#DejaVuSans-35" transform="translate(63.623047 0)"/>
      </g>
     </g>
    </g>
    <g id="ytick_5">
     <g id="line2d_6">
      <g>
       <use xlink:href="#m23912e9bdb" x="72" y="92.938888" style="stroke: #000000; stroke-width: 0.8"/>
      </g>
     </g>
     <g id="text_6">
      <!-- 20 -->
      <g transform="translate(52.275 96.738107) scale(0.1 -0.1)">
       <defs>
        <path id="DejaVuSans-32" d="M 1228 531 
L 3431 531 
L 3431 0 
L 469 0 
L 469 531 
Q 828 903 1448 1529 
Q 2069 2156 2228 2338 
Q 2531 2678 2651 2914 
Q 2772 3150 2772 3378 
Q 2772 3750 2511 3984 
Q 2250 4219 1831 4219 
Q 1534 4219 1204 4116 
Q 875 4013 500 3803 
L 500 4441 
Q 881 4594 1212 4672 
Q 1544 4750 1819 4750 
Q 2544 4750 2975 4387 
Q 3406 4025 3406 3419 
Q 3406 3131 3298 2873 
Q 3191 2616 2906 2266 
Q 2828 2175 2409 1742 
Q 1991 1309 1228 531 
z
" transform="scale(0.015625)"/>
       </defs>
       <use xlink:href="#DejaVuSans-32"/>
       <use xlink:href="#DejaVuSans-30" transform="translate(63.623047 0)"/>
      </g>
     </g>
    </g>
    <g id="text_7">
     <!-- Time (ms) -->
     <g transform="translate(46.195312 243.359219) rotate(-90) scale(0.1 -0.1)">
      <defs>
       <path id="DejaVuSans-54" d="M -19 4666 
L 3928 4666 
L 3928 4134 
L 2272 4134 
L 2272 0 
L 1638 0 
L 1638 4134 
L -19 4134 
L -19 4666 
z
" transform="scale(0.015625)"/>
       <path id="DejaVuSans-69" d="M 603 3500 
L 1178 3500 
L 1178 0 
L 603 0 
L 603 3500 
z
M 603 4863 
L 1178 4863 
L 1178 4134 
L 603 4134 
L 603 4863 
z
" transform="scale(0.015625)"/>
       <path id="DejaVuSans-6d" d="M 3328 2828 
Q 3544 3216 3844 3400 
Q 4144 3584 4550 3584 
Q 5097 3584 5394 3201 
Q 5691 2819 5691 2113 
L 5691 0 
L 5113 0 
L 5113 2094 
Q 5113 2597 4934 2840 
Q 4756 3084 4391 3084 
Q 3944 3084 3684 2787 
Q 3425 2491 3425 1978 
L 3425 0 
L 2847 0 
L 2847 2094 
Q 2847 2600 2669 2842 
Q 2491 3084 2119 3084 
Q 1678 3084 1418 2786 
Q 1159 2488 1159 1978 
L 1159 0 
L 581 0 
L 581 3500 
L 1159 3500 
L 1159 2956 
Q 1356 3278 1631 3431 
Q 1906 3584 2284 3584 
Q 2666 3584 2933 3390 
Q 3200 3197 3328 2828 
z
" transform="scale(0.015625)"/>
       <path id="DejaVuSans-65" d="M 3597 1894 
L 3597 1613 
L 953 1613 
Q 991 1019 1311 708 
Q 1631 397 2203 397 
Q 2534 397 2845 478 
Q 3156 559 3463 722 
L 3463 178 
Q 3153 47 2828 -22 
Q 2503 -91 2169 -91 
Q 1331 -91 842 396 
Q 353 884 353 1716 
Q 353 2575 817 3079 
Q 1281 3584 2069 3584 
Q 2775 3584 3186 3129 
Q 3597 2675 3597 1894 
z
M 3022 2063 
Q 3016 2534 2758 2815 
Q 2500 3097 2075 3097 
Q 1594 3097 1305 2825 
Q 1016 2553 972 2059 
L 3022 2063 
z
" transform="scale(0.015625)"/>
       <path id="DejaVuSans-20" transform="scale(0.015625)"/>
       <path id="DejaVuSans-28" d="M 1984 4856 
Q 1566 4138 1362 3434 
Q 1159 2731 1159 2009 
Q 1159 1288 1364 580 
Q 1569 -128 1984 -844 
L 1484 -844 
Q 1016 -109 783 600 
Q 550 1309 550 2009 
Q 550 2706 781 3412 
Q 1013 4119 1484 4856 
L 1984 4856 
z
" transform="scale(0.015625)"/>
       <path id="DejaVuSans-73" d="M 2834 3397 
L 2834 2853 
Q 2591 2978 2328 3040 
Q 2066 3103 1784 3103 
Q 1356 3103 1142 2972 
Q 928 2841 928 2578 
Q 928 2378 1081 2264 
Q 1234 2150 1697 2047 
L 1894 2003 
Q 2506 1872 2764 1633 
Q 3022 1394 3022 966 
Q 3022 478 2636 193 
Q 2250 -91 1575 -91 
Q 1294 -91 989 -36 
Q 684 19 347 128 
L 347 722 
Q 666 556 975 473 
Q 1284 391 1588 391 
Q 1994 391 2212 530 
Q 2431 669 2431 922 
Q 2431 1156 2273 1281 
Q 2116 1406 1581 1522 
L 1381 1569 
Q 847 1681 609 1914 
Q 372 2147 372 2553 
Q 372 3047 722 3315 
Q 1072 3584 1716 3584 
Q 2034 3584 2315 3537 
Q 2597 3491 2834 3397 
z
" transform="scale(0.015625)"/>
       <path id="DejaVuSans-29" d="M 513 4856 
L 1013 4856 
Q 1481 4119 1714 3412 
Q 1947 2706 1947 2009 
Q 1947 1309 1714 600 
Q 1481 -109 1013 -844 
L 513 -844 
Q 928 -128 1133 580 
Q 1338 1288 1338 2009 
Q 1338 2731 1133 3434 
Q 928 4138 513 4856 
z
" transform="scale(0.015625)"/>
      </defs>
      <use xlink:href="#DejaVuSans-54"/>
      <use xlink:href="#DejaVuSans-69" transform="translate(57.958984 0)"/>
      <use xlink:href="#DejaVuSans-6d" transform="translate(85.742188 0)"/>
      <use xlink:href="#DejaVuSans-65" transform="translate(183.154297 0)"/>
      <use xlink:href="#DejaVuSans-20" transform="translate(244.677734 0)"/>
      <use xlink:href="#DejaVuSans-28" transform="translate(276.464844 0)"/>
      <use xlink:href="#DejaVuSans-6d" transform="translate(315.478516 0)"/>
      <use xlink:href="#DejaVuSans-73" transform="translate(412.890625 0)"/>
      <use xlink:href="#DejaVuSans-29" transform="translate(464.990234 0)"/>
     </g>
    </g>
   </g>
   <g id="LineCollection_1">
    <path d="M 239.4 301.712598 
L 351 301.712598 
" clip-path="url(#pc39788e088)" style="fill: none; stroke: #1f77b4; stroke-width: 1.5"/>
   </g>
   <g id="LineCollection_2">
    <path d="M 239.4 66.612274 
L 351 66.612274 
" clip-path="url(#pc39788e088)" style="fill: none; stroke: #1f77b4; stroke-width: 1.5"/>
   </g>
   <g id="LineCollection_3">
    <path d="M 239.4 362.057748 
L 351 362.057748 
" clip-path="url(#pc39788e088)" style="fill: none; stroke: #1f77b4; stroke-width: 1.5"/>
   </g>
   <g id="LineCollection_4">
    <path d="M 295.2 362.057748 
L 295.2 66.612274 
" clip-path="url(#pc39788e088)" style="fill: none; stroke: #1f77b4; stroke-width: 1.5"/>
   </g>
   <g id="patch_3">
    <path d="M 250.56 354.800371 
L 339.84 354.800371 
L 339.84 305.152421 
L 250.56 305.152421 
L 250.56 354.800371 
z
" clip-path="url(#pc39788e088)" style="fill: #1f77b4; stroke: #000000; stroke-linejoin: miter"/>
   </g>
   <g id="line2d_7">
    <path d="M 295.2 354.800371 
L 295.2 362.057748 
" clip-path="url(#pc39788e088)" style="fill: none; stroke: #000000; stroke-linecap: square"/>
   </g>
   <g id="line2d_8">
    <path d="M 295.2 305.152421 
L 295.2 232.628582 
" clip-path="url(#pc39788e088)" style="fill: none; stroke: #000000; stroke-linecap: square"/>
   </g>
   <g id="line2d_9">
    <path d="M 272.88 362.057748 
L 317.52 362.057748 
" clip-path="url(#pc39788e088)" style="fill: none; stroke: #000000; stroke-linecap: square"/>
   </g>
   <g id="line2d_10">
    <path d="M 272.88 232.628582 
L 317.52 232.628582 
" clip-path="url(#pc39788e088)" style="fill: none; stroke: #000000; stroke-linecap: square"/>
   </g>
   <g id="line2d_11">
    <defs>
     <path id="ma5b63d1dd8" d="M 0 3 
C 0.795609 3 1.55874 2.683901 2.12132 2.12132 
C 2.683901 1.55874 3 0.795609 3 0 
C 3 -0.795609 2.683901 -1.55874 2.12132 -2.12132 
C 1.55874 -2.683901 0.795609 -3 0 -3 
C -0.795609 -3 -1.55874 -2.683901 -2.12132 -2.12132 
C -2.683901 -1.55874 -3 -0.795609 -3 0 
C -3 0.795609 -2.683901 1.55874 -2.12132 2.12132 
C -1.55874 2.683901 -0.795609 3 0 3 
z
" style="stroke: #000000"/>
    </defs>
    <g clip-path="url(#pc39788e088)">
     <use xlink:href="#ma5b63d1dd8" x="295.2" y="109.048153" style="fill-opacity: 0; stroke: #000000"/>
     <use xlink:href="#ma5b63d1dd8" x="295.2" y="113.821963" style="fill-opacity: 0; stroke: #000000"/>
     <use xlink:href="#ma5b63d1dd8" x="295.2" y="79.720341" style="fill-opacity: 0; stroke: #000000"/>
     <use xlink:href="#ma5b63d1dd8" x="295.2" y="84.583582" style="fill-opacity: 0; stroke: #000000"/>
     <use xlink:href="#ma5b63d1dd8" x="295.2" y="84.588188" style="fill-opacity: 0; stroke: #000000"/>
     <use xlink:href="#ma5b63d1dd8" x="295.2" y="112.365336" style="fill-opacity: 0; stroke: #000000"/>
     <use xlink:href="#ma5b63d1dd8" x="295.2" y="111.729092" style="fill-opacity: 0; stroke: #000000"/>
     <use xlink:href="#ma5b63d1dd8" x="295.2" y="78.113964" style="fill-opacity: 0; stroke: #000000"/>
     <use xlink:href="#ma5b63d1dd8" x="295.2" y="111.710346" style="fill-opacity: 0; stroke: #000000"/>
     <use xlink:href="#ma5b63d1dd8" x="295.2" y="107.105191" style="fill-opacity: 0; stroke: #000000"/>
     <use xlink:href="#ma5b63d1dd8" x="295.2" y="66.612274" style="fill-opacity: 0; stroke: #000000"/>
     <use xlink:href="#ma5b63d1dd8" x="295.2" y="96.950188" style="fill-opacity: 0; stroke: #000000"/>
     <use xlink:href="#ma5b63d1dd8" x="295.2" y="115.802635" style="fill-opacity: 0; stroke: #000000"/>
     <use xlink:href="#ma5b63d1dd8" x="295.2" y="112.899717" style="fill-opacity: 0; stroke: #000000"/>
     <use xlink:href="#ma5b63d1dd8" x="295.2" y="71.05313" style="fill-opacity: 0; stroke: #000000"/>
     <use xlink:href="#ma5b63d1dd8" x="295.2" y="112.753742" style="fill-opacity: 0; stroke: #000000"/>
     <use xlink:href="#ma5b63d1dd8" x="295.2" y="114.622841" style="fill-opacity: 0; stroke: #000000"/>
     <use xlink:href="#ma5b63d1dd8" x="295.2" y="109.051389" style="fill-opacity: 0; stroke: #000000"/>
     <use xlink:href="#ma5b63d1dd8" x="295.2" y="114.098155" style="fill-opacity: 0; stroke: #000000"/>
     <use xlink:href="#ma5b63d1dd8" x="295.2" y="78.776637" style="fill-opacity: 0; stroke: #000000"/>
    </g>
   </g>
   <g id="line2d_12">
    <path d="M 250.56 333.742371 
L 339.84 333.742371 
" clip-path="url(#pc39788e088)" style="fill: none; stroke: #ff7f0e"/>
   </g>
   <g id="patch_4">
    <path d="M 72 384.48 
L 72 51.84 
" style="fill: none; stroke: #000000; stroke-width: 0.8; stroke-linejoin: miter; stroke-linecap: square"/>
   </g>
   <g id="patch_5">
    <path d="M 518.4 384.48 
L 518.4 51.84 
" style="fill: none; stroke: #000000; stroke-width: 0.8; stroke-linejoin: miter; stroke-linecap: square"/>
   </g>
   <g id="patch_6">
    <path d="M 72 384.48 
L 518.4 384.48 
" style="fill: none; stroke: #000000; stroke-width: 0.8; stroke-linejoin: miter; stroke-linecap: square"/>
   </g>
   <g id="patch_7">
    <path d="M 72 51.84 
L 518.4 51.84 
" style="fill: none; stroke: #000000; stroke-width: 0.8; stroke-linejoin: miter; stroke-linecap: square"/>
   </g>
   <g id="text_8">
    <!-- Handle Result -->
    <g transform="translate(253.595625 45.84) scale(0.12 -0.12)">
     <defs>
      <path id="DejaVuSans-48" d="M 628 4666 
L 1259 4666 
L 1259 2753 
L 3553 2753 
L 3553 4666 
L 4184 4666 
L 4184 0 
L 3553 0 
L 3553 2222 
L 1259 2222 
L 1259 0 
L 628 0 
L 628 4666 
z
" transform="scale(0.015625)"/>
      <path id="DejaVuSans-61" d="M 2194 1759 
Q 1497 1759 1228 1600 
Q 959 1441 959 1056 
Q 959 750 1161 570 
Q 1363 391 1709 391 
Q 2188 391 2477 730 
Q 2766 1069 2766 1631 
L 2766 1759 
L 2194 1759 
z
M 3341 1997 
L 3341 0 
L 2766 0 
L 2766 531 
Q 2569 213 2275 61 
Q 1981 -91 1556 -91 
Q 1019 -91 701 211 
Q 384 513 384 1019 
Q 384 1609 779 1909 
Q 1175 2209 1959 2209 
L 2766 2209 
L 2766 2266 
Q 2766 2663 2505 2880 
Q 2244 3097 1772 3097 
Q 1472 3097 1187 3025 
Q 903 2953 641 2809 
L 641 3341 
Q 956 3463 1253 3523 
Q 1550 3584 1831 3584 
Q 2591 3584 2966 3190 
Q 3341 2797 3341 1997 
z
" transform="scale(0.015625)"/>
      <path id="DejaVuSans-6e" d="M 3513 2113 
L 3513 0 
L 2938 0 
L 2938 2094 
Q 2938 2591 2744 2837 
Q 2550 3084 2163 3084 
Q 1697 3084 1428 2787 
Q 1159 2491 1159 1978 
L 1159 0 
L 581 0 
L 581 3500 
L 1159 3500 
L 1159 2956 
Q 1366 3272 1645 3428 
Q 1925 3584 2291 3584 
Q 2894 3584 3203 3211 
Q 3513 2838 3513 2113 
z
" transform="scale(0.015625)"/>
      <path id="DejaVuSans-64" d="M 2906 2969 
L 2906 4863 
L 3481 4863 
L 3481 0 
L 2906 0 
L 2906 525 
Q 2725 213 2448 61 
Q 2172 -91 1784 -91 
Q 1150 -91 751 415 
Q 353 922 353 1747 
Q 353 2572 751 3078 
Q 1150 3584 1784 3584 
Q 2172 3584 2448 3432 
Q 2725 3281 2906 2969 
z
M 947 1747 
Q 947 1113 1208 752 
Q 1469 391 1925 391 
Q 2381 391 2643 752 
Q 2906 1113 2906 1747 
Q 2906 2381 2643 2742 
Q 2381 3103 1925 3103 
Q 1469 3103 1208 2742 
Q 947 2381 947 1747 
z
" transform="scale(0.015625)"/>
      <path id="DejaVuSans-6c" d="M 603 4863 
L 1178 4863 
L 1178 0 
L 603 0 
L 603 4863 
z
" transform="scale(0.015625)"/>
      <path id="DejaVuSans-52" d="M 2841 2188 
Q 3044 2119 3236 1894 
Q 3428 1669 3622 1275 
L 4263 0 
L 3584 0 
L 2988 1197 
Q 2756 1666 2539 1819 
Q 2322 1972 1947 1972 
L 1259 1972 
L 1259 0 
L 628 0 
L 628 4666 
L 2053 4666 
Q 2853 4666 3247 4331 
Q 3641 3997 3641 3322 
Q 3641 2881 3436 2590 
Q 3231 2300 2841 2188 
z
M 1259 4147 
L 1259 2491 
L 2053 2491 
Q 2509 2491 2742 2702 
Q 2975 2913 2975 3322 
Q 2975 3731 2742 3939 
Q 2509 4147 2053 4147 
L 1259 4147 
z
" transform="scale(0.015625)"/>
      <path id="DejaVuSans-75" d="M 544 1381 
L 544 3500 
L 1119 3500 
L 1119 1403 
Q 1119 906 1312 657 
Q 1506 409 1894 409 
Q 2359 409 2629 706 
Q 2900 1003 2900 1516 
L 2900 3500 
L 3475 3500 
L 3475 0 
L 2900 0 
L 2900 538 
Q 2691 219 2414 64 
Q 2138 -91 1772 -91 
Q 1169 -91 856 284 
Q 544 659 544 1381 
z
M 1991 3584 
L 1991 3584 
z
" transform="scale(0.015625)"/>
      <path id="DejaVuSans-74" d="M 1172 4494 
L 1172 3500 
L 2356 3500 
L 2356 3053 
L 1172 3053 
L 1172 1153 
Q 1172 725 1289 603 
Q 1406 481 1766 481 
L 2356 481 
L 2356 0 
L 1766 0 
Q 1100 0 847 248 
Q 594 497 594 1153 
L 594 3053 
L 172 3053 
L 172 3500 
L 594 3500 
L 594 4494 
L 1172 4494 
z
" transform="scale(0.015625)"/>
     </defs>
     <use xlink:href="#DejaVuSans-48"/>
     <use xlink:href="#DejaVuSans-61" transform="translate(75.195312 0)"/>
     <use xlink:href="#DejaVuSans-6e" transform="translate(136.474609 0)"/>
     <use xlink:href="#DejaVuSans-64" transform="translate(199.853516 0)"/>
     <use xlink:href="#DejaVuSans-6c" transform="translate(263.330078 0)"/>
     <use xlink:href="#DejaVuSans-65" transform="translate(291.113281 0)"/>
     <use xlink:href="#DejaVuSans-20" transform="translate(352.636719 0)"/>
     <use xlink:href="#DejaVuSans-52" transform="translate(384.423828 0)"/>
     <use xlink:href="#DejaVuSans-65" transform="translate(449.40625 0)"/>
     <use xlink:href="#DejaVuSans-73" transform="translate(510.929688 0)"/>
     <use xlink:href="#DejaVuSans-75" transform="translate(563.029297 0)"/>
     <use xlink:href="#DejaVuSans-6c" transform="translate(626.408203 0)"/>
     <use xlink:href="#DejaVuSans-74" transform="translate(654.191406 0)"/>
    </g>
   </g>
  </g>
 </g>
 <defs>
  <clipPath id="pc39788e088">
   <rect x="72" y="51.84" width="446.4" height="332.64"/>
  </clipPath>
 </defs>
</svg>
