<?xml version="1.0" encoding="utf-8" standalone="no"?>
<!DOCTYPE svg PUBLIC "-//W3C//DTD SVG 1.1//EN"
  "http://www.w3.org/Graphics/SVG/1.1/DTD/svg11.dtd">
<svg xmlns:xlink="http://www.w3.org/1999/xlink" width="576pt" height="432pt" viewBox="0 0 576 432" xmlns="http://www.w3.org/2000/svg" version="1.1">
 <metadata>
  <rdf:RDF xmlns:dc="http://purl.org/dc/elements/1.1/" xmlns:cc="http://creativecommons.org/ns#" xmlns:rdf="http://www.w3.org/1999/02/22-rdf-syntax-ns#">
   <cc:Work>
    <dc:type rdf:resource="http://purl.org/dc/dcmitype/StillImage"/>
    <dc:date>2025-06-10T03:16:24.974530</dc:date>
    <dc:format>image/svg+xml</dc:format>
    <dc:creator>
     <cc:Agent>
      <dc:title>Matplotlib v3.10.3, https://matplotlib.org/</dc:title>
     </cc:Agent>
    </dc:creator>
   </cc:Work>
  </rdf:RDF>
 </metadata>
 <defs>
  <style type="text/css">*{stroke-linejoin: round; stroke-linecap: butt}</style>
 </defs>
 <g id="figure_1">
  <g id="patch_1">
   <path d="M 0 432 
L 576 432 
L 576 0 
L 0 0 
z
" style="fill: #ffffff"/>
  </g>
  <g id="axes_1">
   <g id="patch_2">
    <path d="M 72 384.48 
L 518.4 384.48 
L 518.4 51.84 
L 72 51.84 
z
" style="fill: #ffffff"/>
   </g>
   <g id="FillBetweenPolyCollection_1">
    <path d="M 315.47303 356.952319 
L 274.92697 356.952319 
L 274.082552 354.017135 
L 273.574325 351.081952 
L 273.420784 348.146769 
L 273.620146 345.211585 
L 274.149886 342.276402 
L 274.967814 339.341218 
L 276.014527 336.406035 
L 277.216878 333.470851 
L 278.492018 330.535668 
L 279.751581 327.600484 
L 280.90556 324.665301 
L 281.865583 321.730118 
L 282.547393 318.794934 
L 282.872521 315.859751 
L 282.769265 312.924567 
L 282.173223 309.989384 
L 281.027697 307.0542 
L 279.284285 304.119017 
L 276.903963 301.183833 
L 273.858829 298.24865 
L 270.134556 295.313467 
L 265.733416 292.378283 
L 260.677589 289.4431 
L 255.012307 286.507916 
L 248.808301 283.572733 
L 242.163025 280.637549 
L 235.200166 277.702366 
L 228.067143 274.767183 
L 220.930485 271.831999 
L 213.969273 268.896816 
L 207.367039 265.961632 
L 201.302783 263.026449 
L 195.941868 260.091265 
L 191.427607 257.156082 
L 187.874288 254.220898 
L 185.362218 251.285715 
L 183.935125 248.350532 
L 183.6 245.415348 
L 184.32918 242.480165 
L 186.064288 239.544981 
L 188.721455 236.609798 
L 192.197241 233.674614 
L 196.374657 230.739431 
L 201.128812 227.804247 
L 206.33184 224.869064 
L 211.856938 221.933881 
L 217.581475 218.998697 
L 223.389266 216.063514 
L 229.172194 213.12833 
L 234.83135 210.193147 
L 240.277906 207.257963 
L 245.433849 204.32278 
L 250.232685 201.387596 
L 254.620141 198.452413 
L 258.554854 195.51723 
L 262.008992 192.582046 
L 264.968717 189.646863 
L 267.434393 186.711679 
L 269.420419 183.776496 
L 270.954579 180.841312 
L 272.076824 177.906129 
L 272.837448 174.970945 
L 273.294647 172.035762 
L 273.511564 169.100579 
L 273.552971 166.165395 
L 273.481833 163.230212 
L 273.356031 160.295028 
L 273.225566 157.359845 
L 273.130506 154.424661 
L 273.099892 151.489478 
L 273.151689 148.554294 
L 273.293748 145.619111 
L 273.525608 142.683928 
L 273.840861 139.748744 
L 274.22974 136.813561 
L 274.681569 133.878377 
L 275.186774 130.943194 
L 275.738224 128.00801 
L 276.331802 125.072827 
L 276.966231 122.137643 
L 277.642283 119.20246 
L 278.361597 116.267277 
L 279.125346 113.332093 
L 279.933027 110.39691 
L 280.781563 107.461726 
L 281.664859 104.526543 
L 282.573863 101.591359 
L 283.497093 98.656176 
L 284.421515 95.720992 
L 285.333627 92.785809 
L 286.220575 89.850626 
L 287.071135 86.915442 
L 287.876453 83.980259 
L 288.630439 81.045075 
L 289.329836 78.109892 
L 289.973965 75.174708 
L 290.564242 72.239525 
L 291.103552 69.304341 
L 291.595598 66.369158 
L 298.804402 66.369158 
L 298.804402 66.369158 
L 299.296448 69.304341 
L 299.835758 72.239525 
L 300.426035 75.174708 
L 301.070164 78.109892 
L 301.769561 81.045075 
L 302.523547 83.980259 
L 303.328865 86.915442 
L 304.179425 89.850626 
L 305.066373 92.785809 
L 305.978485 95.720992 
L 306.902907 98.656176 
L 307.826137 101.591359 
L 308.735141 104.526543 
L 309.618437 107.461726 
L 310.466973 110.39691 
L 311.274654 113.332093 
L 312.038403 116.267277 
L 312.757717 119.20246 
L 313.433769 122.137643 
L 314.068198 125.072827 
L 314.661776 128.00801 
L 315.213226 130.943194 
L 315.718431 133.878377 
L 316.17026 136.813561 
L 316.559139 139.748744 
L 316.874392 142.683928 
L 317.106252 145.619111 
L 317.248311 148.554294 
L 317.300108 151.489478 
L 317.269494 154.424661 
L 317.174434 157.359845 
L 317.043969 160.295028 
L 316.918167 163.230212 
L 316.847029 166.165395 
L 316.888436 169.100579 
L 317.105353 172.035762 
L 317.562552 174.970945 
L 318.323176 177.906129 
L 319.445421 180.841312 
L 320.979581 183.776496 
L 322.965607 186.711679 
L 325.431283 189.646863 
L 328.391008 192.582046 
L 331.845146 195.51723 
L 335.779859 198.452413 
L 340.167315 201.387596 
L 344.966151 204.32278 
L 350.122094 207.257963 
L 355.56865 210.193147 
L 361.227806 213.12833 
L 367.010734 216.063514 
L 372.818525 218.998697 
L 378.543062 221.933881 
L 384.06816 224.869064 
L 389.271188 227.804247 
L 394.025343 230.739431 
L 398.202759 233.674614 
L 401.678545 236.609798 
L 404.335712 239.544981 
L 406.07082 242.480165 
L 406.8 245.415348 
L 406.464875 248.350532 
L 405.037782 251.285715 
L 402.525712 254.220898 
L 398.972393 257.156082 
L 394.458132 260.091265 
L 389.097217 263.026449 
L 383.032961 265.961632 
L 376.430727 268.896816 
L 369.469515 271.831999 
L 362.332857 274.767183 
L 355.199834 277.702366 
L 348.236975 280.637549 
L 341.591699 283.572733 
L 335.387693 286.507916 
L 329.722411 289.4431 
L 324.666584 292.378283 
L 320.265444 295.313467 
L 316.541171 298.24865 
L 313.496037 301.183833 
L 311.115715 304.119017 
L 309.372303 307.0542 
L 308.226777 309.989384 
L 307.630735 312.924567 
L 307.527479 315.859751 
L 307.852607 318.794934 
L 308.534417 321.730118 
L 309.49444 324.665301 
L 310.648419 327.600484 
L 311.907982 330.535668 
L 313.183122 333.470851 
L 314.385473 336.406035 
L 315.432186 339.341218 
L 316.250114 342.276402 
L 316.779854 345.211585 
L 316.979216 348.146769 
L 316.825675 351.081952 
L 316.317448 354.017135 
L 315.47303 356.952319 
z
" clip-path="url(#p13c12da7a9)" style="fill: #1f77b4; fill-opacity: 0.3"/>
   </g>
   <g id="matplotlib.axis_1">
    <g id="xtick_1">
     <g id="line2d_1">
      <defs>
       <path id="mdf7bac2fef" d="M 0 0 
L 0 3.5 
" style="stroke: #000000; stroke-width: 0.8"/>
      </defs>
      <g>
       <use xlink:href="#mdf7bac2fef" x="295.2" y="384.48" style="stroke: #000000; stroke-width: 0.8"/>
      </g>
     </g>
     <g id="text_1">
      <!-- 1 -->
      <g transform="translate(292.01875 399.078438) scale(0.1 -0.1)">
       <defs>
        <path id="DejaVuSans-31" d="M 794 531 
L 1825 531 
L 1825 4091 
L 703 3866 
L 703 4441 
L 1819 4666 
L 2450 4666 
L 2450 531 
L 3481 531 
L 3481 0 
L 794 0 
L 794 531 
z
" transform="scale(0.015625)"/>
       </defs>
       <use xlink:href="#DejaVuSans-31"/>
      </g>
     </g>
    </g>
   </g>
   <g id="matplotlib.axis_2">
    <g id="ytick_1">
     <g id="line2d_2">
      <defs>
       <path id="ma19605f265" d="M 0 0 
L -3.5 0 
" style="stroke: #000000; stroke-width: 0.8"/>
      </defs>
      <g>
       <use xlink:href="#ma19605f265" x="72" y="384.48" style="stroke: #000000; stroke-width: 0.8"/>
      </g>
     </g>
     <g id="text_2">
      <!-- 0 -->
      <g transform="translate(58.6375 388.279219) scale(0.1 -0.1)">
       <defs>
        <path id="DejaVuSans-30" d="M 2034 4250 
Q 1547 4250 1301 3770 
Q 1056 3291 1056 2328 
Q 1056 1369 1301 889 
Q 1547 409 2034 409 
Q 2525 409 2770 889 
Q 3016 1369 3016 2328 
Q 3016 3291 2770 3770 
Q 2525 4250 2034 4250 
z
M 2034 4750 
Q 2819 4750 3233 4129 
Q 3647 3509 3647 2328 
Q 3647 1150 3233 529 
Q 2819 -91 2034 -91 
Q 1250 -91 836 529 
Q 422 1150 422 2328 
Q 422 3509 836 4129 
Q 1250 4750 2034 4750 
z
" transform="scale(0.015625)"/>
       </defs>
       <use xlink:href="#DejaVuSans-30"/>
      </g>
     </g>
    </g>
    <g id="ytick_2">
     <g id="line2d_3">
      <g>
       <use xlink:href="#ma19605f265" x="72" y="319.804553" style="stroke: #000000; stroke-width: 0.8"/>
      </g>
     </g>
     <g id="text_3">
      <!-- 1 -->
      <g transform="translate(58.6375 323.603772) scale(0.1 -0.1)">
       <use xlink:href="#DejaVuSans-31"/>
      </g>
     </g>
    </g>
    <g id="ytick_3">
     <g id="line2d_4">
      <g>
       <use xlink:href="#ma19605f265" x="72" y="255.129106" style="stroke: #000000; stroke-width: 0.8"/>
      </g>
     </g>
     <g id="text_4">
      <!-- 2 -->
      <g transform="translate(58.6375 258.928325) scale(0.1 -0.1)">
       <defs>
        <path id="DejaVuSans-32" d="M 1228 531 
L 3431 531 
L 3431 0 
L 469 0 
L 469 531 
Q 828 903 1448 1529 
Q 2069 2156 2228 2338 
Q 2531 2678 2651 2914 
Q 2772 3150 2772 3378 
Q 2772 3750 2511 3984 
Q 2250 4219 1831 4219 
Q 1534 4219 1204 4116 
Q 875 4013 500 3803 
L 500 4441 
Q 881 4594 1212 4672 
Q 1544 4750 1819 4750 
Q 2544 4750 2975 4387 
Q 3406 4025 3406 3419 
Q 3406 3131 3298 2873 
Q 3191 2616 2906 2266 
Q 2828 2175 2409 1742 
Q 1991 1309 1228 531 
z
" transform="scale(0.015625)"/>
       </defs>
       <use xlink:href="#DejaVuSans-32"/>
      </g>
     </g>
    </g>
    <g id="ytick_4">
     <g id="line2d_5">
      <g>
       <use xlink:href="#ma19605f265" x="72" y="190.453659" style="stroke: #000000; stroke-width: 0.8"/>
      </g>
     </g>
     <g id="text_5">
      <!-- 3 -->
      <g transform="translate(58.6375 194.252878) scale(0.1 -0.1)">
       <defs>
        <path id="DejaVuSans-33" d="M 2597 2516 
Q 3050 2419 3304 2112 
Q 3559 1806 3559 1356 
Q 3559 666 3084 287 
Q 2609 -91 1734 -91 
Q 1441 -91 1130 -33 
Q 819 25 488 141 
L 488 750 
Q 750 597 1062 519 
Q 1375 441 1716 441 
Q 2309 441 2620 675 
Q 2931 909 2931 1356 
Q 2931 1769 2642 2001 
Q 2353 2234 1838 2234 
L 1294 2234 
L 1294 2753 
L 1863 2753 
Q 2328 2753 2575 2939 
Q 2822 3125 2822 3475 
Q 2822 3834 2567 4026 
Q 2313 4219 1838 4219 
Q 1578 4219 1281 4162 
Q 984 4106 628 3988 
L 628 4550 
Q 988 4650 1302 4700 
Q 1616 4750 1894 4750 
Q 2613 4750 3031 4423 
Q 3450 4097 3450 3541 
Q 3450 3153 3228 2886 
Q 3006 2619 2597 2516 
z
" transform="scale(0.015625)"/>
       </defs>
       <use xlink:href="#DejaVuSans-33"/>
      </g>
     </g>
    </g>
    <g id="ytick_5">
     <g id="line2d_6">
      <g>
       <use xlink:href="#ma19605f265" x="72" y="125.778213" style="stroke: #000000; stroke-width: 0.8"/>
      </g>
     </g>
     <g id="text_6">
      <!-- 4 -->
      <g transform="translate(58.6375 129.577431) scale(0.1 -0.1)">
       <defs>
        <path id="DejaVuSans-34" d="M 2419 4116 
L 825 1625 
L 2419 1625 
L 2419 4116 
z
M 2253 4666 
L 3047 4666 
L 3047 1625 
L 3713 1625 
L 3713 1100 
L 3047 1100 
L 3047 0 
L 2419 0 
L 2419 1100 
L 313 1100 
L 313 1709 
L 2253 4666 
z
" transform="scale(0.015625)"/>
       </defs>
       <use xlink:href="#DejaVuSans-34"/>
      </g>
     </g>
    </g>
    <g id="ytick_6">
     <g id="line2d_7">
      <g>
       <use xlink:href="#ma19605f265" x="72" y="61.102766" style="stroke: #000000; stroke-width: 0.8"/>
      </g>
     </g>
     <g id="text_7">
      <!-- 5 -->
      <g transform="translate(58.6375 64.901985) scale(0.1 -0.1)">
       <defs>
        <path id="DejaVuSans-35" d="M 691 4666 
L 3169 4666 
L 3169 4134 
L 1269 4134 
L 1269 2991 
Q 1406 3038 1543 3061 
Q 1681 3084 1819 3084 
Q 2600 3084 3056 2656 
Q 3513 2228 3513 1497 
Q 3513 744 3044 326 
Q 2575 -91 1722 -91 
Q 1428 -91 1123 -41 
Q 819 9 494 109 
L 494 744 
Q 775 591 1075 516 
Q 1375 441 1709 441 
Q 2250 441 2565 725 
Q 2881 1009 2881 1497 
Q 2881 1984 2565 2268 
Q 2250 2553 1709 2553 
Q 1456 2553 1204 2497 
Q 953 2441 691 2322 
L 691 4666 
z
" transform="scale(0.015625)"/>
       </defs>
       <use xlink:href="#DejaVuSans-35"/>
      </g>
     </g>
    </g>
    <g id="text_8">
     <!-- Time (ms) -->
     <g transform="translate(52.557812 243.359219) rotate(-90) scale(0.1 -0.1)">
      <defs>
       <path id="DejaVuSans-54" d="M -19 4666 
L 3928 4666 
L 3928 4134 
L 2272 4134 
L 2272 0 
L 1638 0 
L 1638 4134 
L -19 4134 
L -19 4666 
z
" transform="scale(0.015625)"/>
       <path id="DejaVuSans-69" d="M 603 3500 
L 1178 3500 
L 1178 0 
L 603 0 
L 603 3500 
z
M 603 4863 
L 1178 4863 
L 1178 4134 
L 603 4134 
L 603 4863 
z
" transform="scale(0.015625)"/>
       <path id="DejaVuSans-6d" d="M 3328 2828 
Q 3544 3216 3844 3400 
Q 4144 3584 4550 3584 
Q 5097 3584 5394 3201 
Q 5691 2819 5691 2113 
L 5691 0 
L 5113 0 
L 5113 2094 
Q 5113 2597 4934 2840 
Q 4756 3084 4391 3084 
Q 3944 3084 3684 2787 
Q 3425 2491 3425 1978 
L 3425 0 
L 2847 0 
L 2847 2094 
Q 2847 2600 2669 2842 
Q 2491 3084 2119 3084 
Q 1678 3084 1418 2786 
Q 1159 2488 1159 1978 
L 1159 0 
L 581 0 
L 581 3500 
L 1159 3500 
L 1159 2956 
Q 1356 3278 1631 3431 
Q 1906 3584 2284 3584 
Q 2666 3584 2933 3390 
Q 3200 3197 3328 2828 
z
" transform="scale(0.015625)"/>
       <path id="DejaVuSans-65" d="M 3597 1894 
L 3597 1613 
L 953 1613 
Q 991 1019 1311 708 
Q 1631 397 2203 397 
Q 2534 397 2845 478 
Q 3156 559 3463 722 
L 3463 178 
Q 3153 47 2828 -22 
Q 2503 -91 2169 -91 
Q 1331 -91 842 396 
Q 353 884 353 1716 
Q 353 2575 817 3079 
Q 1281 3584 2069 3584 
Q 2775 3584 3186 3129 
Q 3597 2675 3597 1894 
z
M 3022 2063 
Q 3016 2534 2758 2815 
Q 2500 3097 2075 3097 
Q 1594 3097 1305 2825 
Q 1016 2553 972 2059 
L 3022 2063 
z
" transform="scale(0.015625)"/>
       <path id="DejaVuSans-20" transform="scale(0.015625)"/>
       <path id="DejaVuSans-28" d="M 1984 4856 
Q 1566 4138 1362 3434 
Q 1159 2731 1159 2009 
Q 1159 1288 1364 580 
Q 1569 -128 1984 -844 
L 1484 -844 
Q 1016 -109 783 600 
Q 550 1309 550 2009 
Q 550 2706 781 3412 
Q 1013 4119 1484 4856 
L 1984 4856 
z
" transform="scale(0.015625)"/>
       <path id="DejaVuSans-73" d="M 2834 3397 
L 2834 2853 
Q 2591 2978 2328 3040 
Q 2066 3103 1784 3103 
Q 1356 3103 1142 2972 
Q 928 2841 928 2578 
Q 928 2378 1081 2264 
Q 1234 2150 1697 2047 
L 1894 2003 
Q 2506 1872 2764 1633 
Q 3022 1394 3022 966 
Q 3022 478 2636 193 
Q 2250 -91 1575 -91 
Q 1294 -91 989 -36 
Q 684 19 347 128 
L 347 722 
Q 666 556 975 473 
Q 1284 391 1588 391 
Q 1994 391 2212 530 
Q 2431 669 2431 922 
Q 2431 1156 2273 1281 
Q 2116 1406 1581 1522 
L 1381 1569 
Q 847 1681 609 1914 
Q 372 2147 372 2553 
Q 372 3047 722 3315 
Q 1072 3584 1716 3584 
Q 2034 3584 2315 3537 
Q 2597 3491 2834 3397 
z
" transform="scale(0.015625)"/>
       <path id="DejaVuSans-29" d="M 513 4856 
L 1013 4856 
Q 1481 4119 1714 3412 
Q 1947 2706 1947 2009 
Q 1947 1309 1714 600 
Q 1481 -109 1013 -844 
L 513 -844 
Q 928 -128 1133 580 
Q 1338 1288 1338 2009 
Q 1338 2731 1133 3434 
Q 928 4138 513 4856 
z
" transform="scale(0.015625)"/>
      </defs>
      <use xlink:href="#DejaVuSans-54"/>
      <use xlink:href="#DejaVuSans-69" transform="translate(57.958984 0)"/>
      <use xlink:href="#DejaVuSans-6d" transform="translate(85.742188 0)"/>
      <use xlink:href="#DejaVuSans-65" transform="translate(183.154297 0)"/>
      <use xlink:href="#DejaVuSans-20" transform="translate(244.677734 0)"/>
      <use xlink:href="#DejaVuSans-28" transform="translate(276.464844 0)"/>
      <use xlink:href="#DejaVuSans-6d" transform="translate(315.478516 0)"/>
      <use xlink:href="#DejaVuSans-73" transform="translate(412.890625 0)"/>
      <use xlink:href="#DejaVuSans-29" transform="translate(464.990234 0)"/>
     </g>
    </g>
   </g>
   <g id="LineCollection_1">
    <path d="M 239.4 236.39334 
L 351 236.39334 
" clip-path="url(#p13c12da7a9)" style="fill: none; stroke: #1f77b4; stroke-width: 1.5"/>
   </g>
   <g id="LineCollection_2">
    <path d="M 239.4 66.369158 
L 351 66.369158 
" clip-path="url(#p13c12da7a9)" style="fill: none; stroke: #1f77b4; stroke-width: 1.5"/>
   </g>
   <g id="LineCollection_3">
    <path d="M 239.4 356.952319 
L 351 356.952319 
" clip-path="url(#p13c12da7a9)" style="fill: none; stroke: #1f77b4; stroke-width: 1.5"/>
   </g>
   <g id="LineCollection_4">
    <path d="M 295.2 356.952319 
L 295.2 66.369158 
" clip-path="url(#p13c12da7a9)" style="fill: none; stroke: #1f77b4; stroke-width: 1.5"/>
   </g>
   <g id="patch_3">
    <path d="M 250.56 261.358419 
L 339.84 261.358419 
L 339.84 215.974817 
L 250.56 215.974817 
L 250.56 261.358419 
z
" clip-path="url(#p13c12da7a9)" style="fill: #1f77b4; stroke: #000000; stroke-linejoin: miter"/>
   </g>
   <g id="line2d_8">
    <path d="M 295.2 261.358419 
L 295.2 293.12716 
" clip-path="url(#p13c12da7a9)" style="fill: none; stroke: #000000; stroke-linecap: square"/>
   </g>
   <g id="line2d_9">
    <path d="M 295.2 215.974817 
L 295.2 148.213737 
" clip-path="url(#p13c12da7a9)" style="fill: none; stroke: #000000; stroke-linecap: square"/>
   </g>
   <g id="line2d_10">
    <path d="M 272.88 293.12716 
L 317.52 293.12716 
" clip-path="url(#p13c12da7a9)" style="fill: none; stroke: #000000; stroke-linecap: square"/>
   </g>
   <g id="line2d_11">
    <path d="M 272.88 148.213737 
L 317.52 148.213737 
" clip-path="url(#p13c12da7a9)" style="fill: none; stroke: #000000; stroke-linecap: square"/>
   </g>
   <g id="line2d_12">
    <defs>
     <path id="meea701b90d" d="M 0 3 
C 0.795609 3 1.55874 2.683901 2.12132 2.12132 
C 2.683901 1.55874 3 0.795609 3 0 
C 3 -0.795609 2.683901 -1.55874 2.12132 -2.12132 
C 1.55874 -2.683901 0.795609 -3 0 -3 
C -0.795609 -3 -1.55874 -2.683901 -2.12132 -2.12132 
C -2.683901 -1.55874 -3 -0.795609 -3 0 
C -3 0.795609 -2.683901 1.55874 -2.12132 2.12132 
C -1.55874 2.683901 -0.795609 3 0 3 
z
" style="stroke: #000000"/>
    </defs>
    <g clip-path="url(#p13c12da7a9)">
     <use xlink:href="#meea701b90d" x="295.2" y="349.566189" style="fill-opacity: 0; stroke: #000000"/>
     <use xlink:href="#meea701b90d" x="295.2" y="356.467447" style="fill-opacity: 0; stroke: #000000"/>
     <use xlink:href="#meea701b90d" x="295.2" y="335.384157" style="fill-opacity: 0; stroke: #000000"/>
     <use xlink:href="#meea701b90d" x="295.2" y="354.119599" style="fill-opacity: 0; stroke: #000000"/>
     <use xlink:href="#meea701b90d" x="295.2" y="356.351096" style="fill-opacity: 0; stroke: #000000"/>
     <use xlink:href="#meea701b90d" x="295.2" y="356.952319" style="fill-opacity: 0; stroke: #000000"/>
     <use xlink:href="#meea701b90d" x="295.2" y="351.247815" style="fill-opacity: 0; stroke: #000000"/>
     <use xlink:href="#meea701b90d" x="295.2" y="352.534986" style="fill-opacity: 0; stroke: #000000"/>
     <use xlink:href="#meea701b90d" x="295.2" y="342.542112" style="fill-opacity: 0; stroke: #000000"/>
     <use xlink:href="#meea701b90d" x="295.2" y="351.008257" style="fill-opacity: 0; stroke: #000000"/>
     <use xlink:href="#meea701b90d" x="295.2" y="349.559721" style="fill-opacity: 0; stroke: #000000"/>
     <use xlink:href="#meea701b90d" x="295.2" y="350.232605" style="fill-opacity: 0; stroke: #000000"/>
     <use xlink:href="#meea701b90d" x="295.2" y="353.738014" style="fill-opacity: 0; stroke: #000000"/>
     <use xlink:href="#meea701b90d" x="295.2" y="353.550261" style="fill-opacity: 0; stroke: #000000"/>
     <use xlink:href="#meea701b90d" x="295.2" y="343.311491" style="fill-opacity: 0; stroke: #000000"/>
     <use xlink:href="#meea701b90d" x="295.2" y="337.885868" style="fill-opacity: 0; stroke: #000000"/>
     <use xlink:href="#meea701b90d" x="295.2" y="352.761415" style="fill-opacity: 0; stroke: #000000"/>
     <use xlink:href="#meea701b90d" x="295.2" y="339.515107" style="fill-opacity: 0; stroke: #000000"/>
     <use xlink:href="#meea701b90d" x="295.2" y="331.436562" style="fill-opacity: 0; stroke: #000000"/>
     <use xlink:href="#meea701b90d" x="295.2" y="140.122127" style="fill-opacity: 0; stroke: #000000"/>
     <use xlink:href="#meea701b90d" x="295.2" y="98.351619" style="fill-opacity: 0; stroke: #000000"/>
     <use xlink:href="#meea701b90d" x="295.2" y="66.369158" style="fill-opacity: 0; stroke: #000000"/>
     <use xlink:href="#meea701b90d" x="295.2" y="108.914478" style="fill-opacity: 0; stroke: #000000"/>
     <use xlink:href="#meea701b90d" x="295.2" y="120.472627" style="fill-opacity: 0; stroke: #000000"/>
     <use xlink:href="#meea701b90d" x="295.2" y="80.552807" style="fill-opacity: 0; stroke: #000000"/>
     <use xlink:href="#meea701b90d" x="295.2" y="113.118641" style="fill-opacity: 0; stroke: #000000"/>
     <use xlink:href="#meea701b90d" x="295.2" y="109.975479" style="fill-opacity: 0; stroke: #000000"/>
     <use xlink:href="#meea701b90d" x="295.2" y="132.839413" style="fill-opacity: 0; stroke: #000000"/>
     <use xlink:href="#meea701b90d" x="295.2" y="127.239942" style="fill-opacity: 0; stroke: #000000"/>
     <use xlink:href="#meea701b90d" x="295.2" y="111.973756" style="fill-opacity: 0; stroke: #000000"/>
     <use xlink:href="#meea701b90d" x="295.2" y="115.076496" style="fill-opacity: 0; stroke: #000000"/>
     <use xlink:href="#meea701b90d" x="295.2" y="127.753918" style="fill-opacity: 0; stroke: #000000"/>
     <use xlink:href="#meea701b90d" x="295.2" y="99.851055" style="fill-opacity: 0; stroke: #000000"/>
     <use xlink:href="#meea701b90d" x="295.2" y="127.535056" style="fill-opacity: 0; stroke: #000000"/>
     <use xlink:href="#meea701b90d" x="295.2" y="145.296034" style="fill-opacity: 0; stroke: #000000"/>
    </g>
   </g>
   <g id="line2d_13">
    <path d="M 250.56 243.673532 
L 339.84 243.673532 
" clip-path="url(#p13c12da7a9)" style="fill: none; stroke: #ff7f0e"/>
   </g>
   <g id="patch_4">
    <path d="M 72 384.48 
L 72 51.84 
" style="fill: none; stroke: #000000; stroke-width: 0.8; stroke-linejoin: miter; stroke-linecap: square"/>
   </g>
   <g id="patch_5">
    <path d="M 518.4 384.48 
L 518.4 51.84 
" style="fill: none; stroke: #000000; stroke-width: 0.8; stroke-linejoin: miter; stroke-linecap: square"/>
   </g>
   <g id="patch_6">
    <path d="M 72 384.48 
L 518.4 384.48 
" style="fill: none; stroke: #000000; stroke-width: 0.8; stroke-linejoin: miter; stroke-linecap: square"/>
   </g>
   <g id="patch_7">
    <path d="M 72 51.84 
L 518.4 51.84 
" style="fill: none; stroke: #000000; stroke-width: 0.8; stroke-linejoin: miter; stroke-linecap: square"/>
   </g>
   <g id="text_9">
    <!-- Next Faultload -->
    <g transform="translate(252.088125 45.84) scale(0.12 -0.12)">
     <defs>
      <path id="DejaVuSans-4e" d="M 628 4666 
L 1478 4666 
L 3547 763 
L 3547 4666 
L 4159 4666 
L 4159 0 
L 3309 0 
L 1241 3903 
L 1241 0 
L 628 0 
L 628 4666 
z
" transform="scale(0.015625)"/>
      <path id="DejaVuSans-78" d="M 3513 3500 
L 2247 1797 
L 3578 0 
L 2900 0 
L 1881 1375 
L 863 0 
L 184 0 
L 1544 1831 
L 300 3500 
L 978 3500 
L 1906 2253 
L 2834 3500 
L 3513 3500 
z
" transform="scale(0.015625)"/>
      <path id="DejaVuSans-74" d="M 1172 4494 
L 1172 3500 
L 2356 3500 
L 2356 3053 
L 1172 3053 
L 1172 1153 
Q 1172 725 1289 603 
Q 1406 481 1766 481 
L 2356 481 
L 2356 0 
L 1766 0 
Q 1100 0 847 248 
Q 594 497 594 1153 
L 594 3053 
L 172 3053 
L 172 3500 
L 594 3500 
L 594 4494 
L 1172 4494 
z
" transform="scale(0.015625)"/>
      <path id="DejaVuSans-46" d="M 628 4666 
L 3309 4666 
L 3309 4134 
L 1259 4134 
L 1259 2759 
L 3109 2759 
L 3109 2228 
L 1259 2228 
L 1259 0 
L 628 0 
L 628 4666 
z
" transform="scale(0.015625)"/>
      <path id="DejaVuSans-61" d="M 2194 1759 
Q 1497 1759 1228 1600 
Q 959 1441 959 1056 
Q 959 750 1161 570 
Q 1363 391 1709 391 
Q 2188 391 2477 730 
Q 2766 1069 2766 1631 
L 2766 1759 
L 2194 1759 
z
M 3341 1997 
L 3341 0 
L 2766 0 
L 2766 531 
Q 2569 213 2275 61 
Q 1981 -91 1556 -91 
Q 1019 -91 701 211 
Q 384 513 384 1019 
Q 384 1609 779 1909 
Q 1175 2209 1959 2209 
L 2766 2209 
L 2766 2266 
Q 2766 2663 2505 2880 
Q 2244 3097 1772 3097 
Q 1472 3097 1187 3025 
Q 903 2953 641 2809 
L 641 3341 
Q 956 3463 1253 3523 
Q 1550 3584 1831 3584 
Q 2591 3584 2966 3190 
Q 3341 2797 3341 1997 
z
" transform="scale(0.015625)"/>
      <path id="DejaVuSans-75" d="M 544 1381 
L 544 3500 
L 1119 3500 
L 1119 1403 
Q 1119 906 1312 657 
Q 1506 409 1894 409 
Q 2359 409 2629 706 
Q 2900 1003 2900 1516 
L 2900 3500 
L 3475 3500 
L 3475 0 
L 2900 0 
L 2900 538 
Q 2691 219 2414 64 
Q 2138 -91 1772 -91 
Q 1169 -91 856 284 
Q 544 659 544 1381 
z
M 1991 3584 
L 1991 3584 
z
" transform="scale(0.015625)"/>
      <path id="DejaVuSans-6c" d="M 603 4863 
L 1178 4863 
L 1178 0 
L 603 0 
L 603 4863 
z
" transform="scale(0.015625)"/>
      <path id="DejaVuSans-6f" d="M 1959 3097 
Q 1497 3097 1228 2736 
Q 959 2375 959 1747 
Q 959 1119 1226 758 
Q 1494 397 1959 397 
Q 2419 397 2687 759 
Q 2956 1122 2956 1747 
Q 2956 2369 2687 2733 
Q 2419 3097 1959 3097 
z
M 1959 3584 
Q 2709 3584 3137 3096 
Q 3566 2609 3566 1747 
Q 3566 888 3137 398 
Q 2709 -91 1959 -91 
Q 1206 -91 779 398 
Q 353 888 353 1747 
Q 353 2609 779 3096 
Q 1206 3584 1959 3584 
z
" transform="scale(0.015625)"/>
      <path id="DejaVuSans-64" d="M 2906 2969 
L 2906 4863 
L 3481 4863 
L 3481 0 
L 2906 0 
L 2906 525 
Q 2725 213 2448 61 
Q 2172 -91 1784 -91 
Q 1150 -91 751 415 
Q 353 922 353 1747 
Q 353 2572 751 3078 
Q 1150 3584 1784 3584 
Q 2172 3584 2448 3432 
Q 2725 3281 2906 2969 
z
M 947 1747 
Q 947 1113 1208 752 
Q 1469 391 1925 391 
Q 2381 391 2643 752 
Q 2906 1113 2906 1747 
Q 2906 2381 2643 2742 
Q 2381 3103 1925 3103 
Q 1469 3103 1208 2742 
Q 947 2381 947 1747 
z
" transform="scale(0.015625)"/>
     </defs>
     <use xlink:href="#DejaVuSans-4e"/>
     <use xlink:href="#DejaVuSans-65" transform="translate(74.804688 0)"/>
     <use xlink:href="#DejaVuSans-78" transform="translate(134.578125 0)"/>
     <use xlink:href="#DejaVuSans-74" transform="translate(193.757812 0)"/>
     <use xlink:href="#DejaVuSans-20" transform="translate(232.966797 0)"/>
     <use xlink:href="#DejaVuSans-46" transform="translate(264.753906 0)"/>
     <use xlink:href="#DejaVuSans-61" transform="translate(313.148438 0)"/>
     <use xlink:href="#DejaVuSans-75" transform="translate(374.427734 0)"/>
     <use xlink:href="#DejaVuSans-6c" transform="translate(437.806641 0)"/>
     <use xlink:href="#DejaVuSans-74" transform="translate(465.589844 0)"/>
     <use xlink:href="#DejaVuSans-6c" transform="translate(504.798828 0)"/>
     <use xlink:href="#DejaVuSans-6f" transform="translate(532.582031 0)"/>
     <use xlink:href="#DejaVuSans-61" transform="translate(593.763672 0)"/>
     <use xlink:href="#DejaVuSans-64" transform="translate(655.042969 0)"/>
    </g>
   </g>
  </g>
 </g>
 <defs>
  <clipPath id="p13c12da7a9">
   <rect x="72" y="51.84" width="446.4" height="332.64"/>
  </clipPath>
 </defs>
</svg>
