<?xml version="1.0" encoding="utf-8" standalone="no"?>
<!DOCTYPE svg PUBLIC "-//W3C//DTD SVG 1.1//EN"
  "http://www.w3.org/Graphics/SVG/1.1/DTD/svg11.dtd">
<svg xmlns:xlink="http://www.w3.org/1999/xlink" width="576pt" height="432pt" viewBox="0 0 576 432" xmlns="http://www.w3.org/2000/svg" version="1.1">
 <metadata>
  <rdf:RDF xmlns:dc="http://purl.org/dc/elements/1.1/" xmlns:cc="http://creativecommons.org/ns#" xmlns:rdf="http://www.w3.org/1999/02/22-rdf-syntax-ns#">
   <cc:Work>
    <dc:type rdf:resource="http://purl.org/dc/dcmitype/StillImage"/>
    <dc:date>2025-06-10T03:16:25.070872</dc:date>
    <dc:format>image/svg+xml</dc:format>
    <dc:creator>
     <cc:Agent>
      <dc:title>Matplotlib v3.10.3, https://matplotlib.org/</dc:title>
     </cc:Agent>
    </dc:creator>
   </cc:Work>
  </rdf:RDF>
 </metadata>
 <defs>
  <style type="text/css">*{stroke-linejoin: round; stroke-linecap: butt}</style>
 </defs>
 <g id="figure_1">
  <g id="patch_1">
   <path d="M 0 432 
L 576 432 
L 576 0 
L 0 0 
z
" style="fill: #ffffff"/>
  </g>
  <g id="axes_1">
   <g id="patch_2">
    <path d="M 72 384.48 
L 518.4 384.48 
L 518.4 51.84 
L 72 51.84 
z
" style="fill: #ffffff"/>
   </g>
   <g id="FillBetweenPolyCollection_1">
    <path d="M 405.462096 377.935048 
L 184.937904 377.935048 
L 183.841636 374.798011 
L 183.6 371.660973 
L 184.210633 368.523936 
L 185.651233 365.386898 
L 187.880728 362.249861 
L 190.84117 359.112823 
L 194.460211 355.975786 
L 198.654039 352.838748 
L 203.330588 349.701711 
L 208.392861 346.564673 
L 213.742202 343.427636 
L 219.281359 340.290598 
L 224.917226 337.153561 
L 230.563155 334.016523 
L 236.14079 330.879486 
L 241.581385 327.742448 
L 246.826617 324.605411 
L 251.828922 321.468373 
L 256.551401 318.331336 
L 260.967369 315.194298 
L 265.059625 312.057261 
L 268.819507 308.920223 
L 272.245822 305.783186 
L 275.343704 302.646148 
L 278.123477 299.509111 
L 280.599545 296.372073 
L 282.789364 293.235036 
L 284.712514 290.097998 
L 286.389883 286.960961 
L 287.842965 283.823923 
L 289.093282 280.686886 
L 290.161915 277.549848 
L 291.069138 274.412811 
L 291.834144 271.275773 
L 292.474853 268.138736 
L 293.007787 265.001698 
L 293.448004 261.864661 
L 293.809079 258.727623 
L 294.103122 255.590586 
L 294.34083 252.453548 
L 294.531553 249.316511 
L 294.683385 246.179473 
L 294.803258 243.042436 
L 294.897048 239.905398 
L 294.969671 236.768361 
L 295.025191 233.631323 
L 295.06691 230.494286 
L 295.097454 227.357248 
L 295.118856 224.220211 
L 295.132614 221.083173 
L 295.139753 217.946136 
L 295.140862 214.809098 
L 295.13613 211.672061 
L 295.125359 208.535023 
L 295.107983 205.397986 
L 295.083061 202.260948 
L 295.049278 199.123911 
L 295.004939 195.986873 
L 294.947954 192.849836 
L 294.875841 189.712798 
L 294.785723 186.575761 
L 294.674342 183.438723 
L 294.538091 180.301686 
L 294.373055 177.164648 
L 294.175091 174.027611 
L 293.939916 170.890573 
L 293.663233 167.753536 
L 293.340888 164.616498 
L 292.96904 161.479461 
L 292.544367 158.342423 
L 292.064285 155.205386 
L 291.527171 152.068348 
L 290.932592 148.931311 
L 290.28152 145.794273 
L 289.57652 142.657236 
L 288.821898 139.520198 
L 288.023799 136.383161 
L 287.190241 133.246123 
L 286.331071 130.109086 
L 285.457842 126.972048 
L 284.583607 123.835011 
L 283.72263 120.697973 
L 282.890022 117.560936 
L 282.101311 114.423898 
L 281.371969 111.286861 
L 280.716909 108.149823 
L 280.149976 105.012786 
L 279.683458 101.875748 
L 279.327644 98.738711 
L 279.090446 95.601673 
L 278.977102 92.464636 
L 278.989991 89.327598 
L 279.128544 86.190561 
L 279.389284 83.053523 
L 279.765966 79.916486 
L 280.24983 76.779448 
L 280.829936 73.642411 
L 281.493573 70.505373 
L 282.226723 67.368336 
L 308.173277 67.368336 
L 308.173277 67.368336 
L 308.906427 70.505373 
L 309.570064 73.642411 
L 310.15017 76.779448 
L 310.634034 79.916486 
L 311.010716 83.053523 
L 311.271456 86.190561 
L 311.410009 89.327598 
L 311.422898 92.464636 
L 311.309554 95.601673 
L 311.072356 98.738711 
L 310.716542 101.875748 
L 310.250024 105.012786 
L 309.683091 108.149823 
L 309.028031 111.286861 
L 308.298689 114.423898 
L 307.509978 117.560936 
L 306.67737 120.697973 
L 305.816393 123.835011 
L 304.942158 126.972048 
L 304.068929 130.109086 
L 303.209759 133.246123 
L 302.376201 136.383161 
L 301.578102 139.520198 
L 300.82348 142.657236 
L 300.11848 145.794273 
L 299.467408 148.931311 
L 298.872829 152.068348 
L 298.335715 155.205386 
L 297.855633 158.342423 
L 297.43096 161.479461 
L 297.059112 164.616498 
L 296.736767 167.753536 
L 296.460084 170.890573 
L 296.224909 174.027611 
L 296.026945 177.164648 
L 295.861909 180.301686 
L 295.725658 183.438723 
L 295.614277 186.575761 
L 295.524159 189.712798 
L 295.452046 192.849836 
L 295.395061 195.986873 
L 295.350722 199.123911 
L 295.316939 202.260948 
L 295.292017 205.397986 
L 295.274641 208.535023 
L 295.26387 211.672061 
L 295.259138 214.809098 
L 295.260247 217.946136 
L 295.267386 221.083173 
L 295.281144 224.220211 
L 295.302546 227.357248 
L 295.33309 230.494286 
L 295.374809 233.631323 
L 295.430329 236.768361 
L 295.502952 239.905398 
L 295.596742 243.042436 
L 295.716615 246.179473 
L 295.868447 249.316511 
L 296.05917 252.453548 
L 296.296878 255.590586 
L 296.590921 258.727623 
L 296.951996 261.864661 
L 297.392213 265.001698 
L 297.925147 268.138736 
L 298.565856 271.275773 
L 299.330862 274.412811 
L 300.238085 277.549848 
L 301.306718 280.686886 
L 302.557035 283.823923 
L 304.010117 286.960961 
L 305.687486 290.097998 
L 307.610636 293.235036 
L 309.800455 296.372073 
L 312.276523 299.509111 
L 315.056296 302.646148 
L 318.154178 305.783186 
L 321.580493 308.920223 
L 325.340375 312.057261 
L 329.432631 315.194298 
L 333.848599 318.331336 
L 338.571078 321.468373 
L 343.573383 324.605411 
L 348.818615 327.742448 
L 354.25921 330.879486 
L 359.836845 334.016523 
L 365.482774 337.153561 
L 371.118641 340.290598 
L 376.657798 343.427636 
L 382.007139 346.564673 
L 387.069412 349.701711 
L 391.745961 352.838748 
L 395.939789 355.975786 
L 399.55883 359.112823 
L 402.519272 362.249861 
L 404.748767 365.386898 
L 406.189367 368.523936 
L 406.8 371.660973 
L 406.558364 374.798011 
L 405.462096 377.935048 
z
" clip-path="url(#p4a6a815fef)" style="fill: #1f77b4; fill-opacity: 0.3"/>
   </g>
   <g id="matplotlib.axis_1">
    <g id="xtick_1">
     <g id="line2d_1">
      <defs>
       <path id="mf6512e9c6e" d="M 0 0 
L 0 3.5 
" style="stroke: #000000; stroke-width: 0.8"/>
      </defs>
      <g>
       <use xlink:href="#mf6512e9c6e" x="295.2" y="384.48" style="stroke: #000000; stroke-width: 0.8"/>
      </g>
     </g>
     <g id="text_1">
      <!-- 1 -->
      <g transform="translate(292.01875 399.078438) scale(0.1 -0.1)">
       <defs>
        <path id="DejaVuSans-31" d="M 794 531 
L 1825 531 
L 1825 4091 
L 703 3866 
L 703 4441 
L 1819 4666 
L 2450 4666 
L 2450 531 
L 3481 531 
L 3481 0 
L 794 0 
L 794 531 
z
" transform="scale(0.015625)"/>
       </defs>
       <use xlink:href="#DejaVuSans-31"/>
      </g>
     </g>
    </g>
   </g>
   <g id="matplotlib.axis_2">
    <g id="ytick_1">
     <g id="line2d_2">
      <defs>
       <path id="mbb90de303a" d="M 0 0 
L -3.5 0 
" style="stroke: #000000; stroke-width: 0.8"/>
      </defs>
      <g>
       <use xlink:href="#mbb90de303a" x="72" y="384.48" style="stroke: #000000; stroke-width: 0.8"/>
      </g>
     </g>
     <g id="text_2">
      <!-- 0 -->
      <g transform="translate(58.6375 388.279219) scale(0.1 -0.1)">
       <defs>
        <path id="DejaVuSans-30" d="M 2034 4250 
Q 1547 4250 1301 3770 
Q 1056 3291 1056 2328 
Q 1056 1369 1301 889 
Q 1547 409 2034 409 
Q 2525 409 2770 889 
Q 3016 1369 3016 2328 
Q 3016 3291 2770 3770 
Q 2525 4250 2034 4250 
z
M 2034 4750 
Q 2819 4750 3233 4129 
Q 3647 3509 3647 2328 
Q 3647 1150 3233 529 
Q 2819 -91 2034 -91 
Q 1250 -91 836 529 
Q 422 1150 422 2328 
Q 422 3509 836 4129 
Q 1250 4750 2034 4750 
z
" transform="scale(0.015625)"/>
       </defs>
       <use xlink:href="#DejaVuSans-30"/>
      </g>
     </g>
    </g>
    <g id="ytick_2">
     <g id="line2d_3">
      <g>
       <use xlink:href="#mbb90de303a" x="72" y="332.133493" style="stroke: #000000; stroke-width: 0.8"/>
      </g>
     </g>
     <g id="text_3">
      <!-- 20 -->
      <g transform="translate(52.275 335.932712) scale(0.1 -0.1)">
       <defs>
        <path id="DejaVuSans-32" d="M 1228 531 
L 3431 531 
L 3431 0 
L 469 0 
L 469 531 
Q 828 903 1448 1529 
Q 2069 2156 2228 2338 
Q 2531 2678 2651 2914 
Q 2772 3150 2772 3378 
Q 2772 3750 2511 3984 
Q 2250 4219 1831 4219 
Q 1534 4219 1204 4116 
Q 875 4013 500 3803 
L 500 4441 
Q 881 4594 1212 4672 
Q 1544 4750 1819 4750 
Q 2544 4750 2975 4387 
Q 3406 4025 3406 3419 
Q 3406 3131 3298 2873 
Q 3191 2616 2906 2266 
Q 2828 2175 2409 1742 
Q 1991 1309 1228 531 
z
" transform="scale(0.015625)"/>
       </defs>
       <use xlink:href="#DejaVuSans-32"/>
       <use xlink:href="#DejaVuSans-30" transform="translate(63.623047 0)"/>
      </g>
     </g>
    </g>
    <g id="ytick_3">
     <g id="line2d_4">
      <g>
       <use xlink:href="#mbb90de303a" x="72" y="279.786986" style="stroke: #000000; stroke-width: 0.8"/>
      </g>
     </g>
     <g id="text_4">
      <!-- 40 -->
      <g transform="translate(52.275 283.586204) scale(0.1 -0.1)">
       <defs>
        <path id="DejaVuSans-34" d="M 2419 4116 
L 825 1625 
L 2419 1625 
L 2419 4116 
z
M 2253 4666 
L 3047 4666 
L 3047 1625 
L 3713 1625 
L 3713 1100 
L 3047 1100 
L 3047 0 
L 2419 0 
L 2419 1100 
L 313 1100 
L 313 1709 
L 2253 4666 
z
" transform="scale(0.015625)"/>
       </defs>
       <use xlink:href="#DejaVuSans-34"/>
       <use xlink:href="#DejaVuSans-30" transform="translate(63.623047 0)"/>
      </g>
     </g>
    </g>
    <g id="ytick_4">
     <g id="line2d_5">
      <g>
       <use xlink:href="#mbb90de303a" x="72" y="227.440479" style="stroke: #000000; stroke-width: 0.8"/>
      </g>
     </g>
     <g id="text_5">
      <!-- 60 -->
      <g transform="translate(52.275 231.239697) scale(0.1 -0.1)">
       <defs>
        <path id="DejaVuSans-36" d="M 2113 2584 
Q 1688 2584 1439 2293 
Q 1191 2003 1191 1497 
Q 1191 994 1439 701 
Q 1688 409 2113 409 
Q 2538 409 2786 701 
Q 3034 994 3034 1497 
Q 3034 2003 2786 2293 
Q 2538 2584 2113 2584 
z
M 3366 4563 
L 3366 3988 
Q 3128 4100 2886 4159 
Q 2644 4219 2406 4219 
Q 1781 4219 1451 3797 
Q 1122 3375 1075 2522 
Q 1259 2794 1537 2939 
Q 1816 3084 2150 3084 
Q 2853 3084 3261 2657 
Q 3669 2231 3669 1497 
Q 3669 778 3244 343 
Q 2819 -91 2113 -91 
Q 1303 -91 875 529 
Q 447 1150 447 2328 
Q 447 3434 972 4092 
Q 1497 4750 2381 4750 
Q 2619 4750 2861 4703 
Q 3103 4656 3366 4563 
z
" transform="scale(0.015625)"/>
       </defs>
       <use xlink:href="#DejaVuSans-36"/>
       <use xlink:href="#DejaVuSans-30" transform="translate(63.623047 0)"/>
      </g>
     </g>
    </g>
    <g id="ytick_5">
     <g id="line2d_6">
      <g>
       <use xlink:href="#mbb90de303a" x="72" y="175.093971" style="stroke: #000000; stroke-width: 0.8"/>
      </g>
     </g>
     <g id="text_6">
      <!-- 80 -->
      <g transform="translate(52.275 178.89319) scale(0.1 -0.1)">
       <defs>
        <path id="DejaVuSans-38" d="M 2034 2216 
Q 1584 2216 1326 1975 
Q 1069 1734 1069 1313 
Q 1069 891 1326 650 
Q 1584 409 2034 409 
Q 2484 409 2743 651 
Q 3003 894 3003 1313 
Q 3003 1734 2745 1975 
Q 2488 2216 2034 2216 
z
M 1403 2484 
Q 997 2584 770 2862 
Q 544 3141 544 3541 
Q 544 4100 942 4425 
Q 1341 4750 2034 4750 
Q 2731 4750 3128 4425 
Q 3525 4100 3525 3541 
Q 3525 3141 3298 2862 
Q 3072 2584 2669 2484 
Q 3125 2378 3379 2068 
Q 3634 1759 3634 1313 
Q 3634 634 3220 271 
Q 2806 -91 2034 -91 
Q 1263 -91 848 271 
Q 434 634 434 1313 
Q 434 1759 690 2068 
Q 947 2378 1403 2484 
z
M 1172 3481 
Q 1172 3119 1398 2916 
Q 1625 2713 2034 2713 
Q 2441 2713 2670 2916 
Q 2900 3119 2900 3481 
Q 2900 3844 2670 4047 
Q 2441 4250 2034 4250 
Q 1625 4250 1398 4047 
Q 1172 3844 1172 3481 
z
" transform="scale(0.015625)"/>
       </defs>
       <use xlink:href="#DejaVuSans-38"/>
       <use xlink:href="#DejaVuSans-30" transform="translate(63.623047 0)"/>
      </g>
     </g>
    </g>
    <g id="ytick_6">
     <g id="line2d_7">
      <g>
       <use xlink:href="#mbb90de303a" x="72" y="122.747464" style="stroke: #000000; stroke-width: 0.8"/>
      </g>
     </g>
     <g id="text_7">
      <!-- 100 -->
      <g transform="translate(45.9125 126.546683) scale(0.1 -0.1)">
       <use xlink:href="#DejaVuSans-31"/>
       <use xlink:href="#DejaVuSans-30" transform="translate(63.623047 0)"/>
       <use xlink:href="#DejaVuSans-30" transform="translate(127.246094 0)"/>
      </g>
     </g>
    </g>
    <g id="ytick_7">
     <g id="line2d_8">
      <g>
       <use xlink:href="#mbb90de303a" x="72" y="70.400957" style="stroke: #000000; stroke-width: 0.8"/>
      </g>
     </g>
     <g id="text_8">
      <!-- 120 -->
      <g transform="translate(45.9125 74.200176) scale(0.1 -0.1)">
       <use xlink:href="#DejaVuSans-31"/>
       <use xlink:href="#DejaVuSans-32" transform="translate(63.623047 0)"/>
       <use xlink:href="#DejaVuSans-30" transform="translate(127.246094 0)"/>
      </g>
     </g>
    </g>
    <g id="text_9">
     <!-- Time (ms) -->
     <g transform="translate(39.832812 243.359219) rotate(-90) scale(0.1 -0.1)">
      <defs>
       <path id="DejaVuSans-54" d="M -19 4666 
L 3928 4666 
L 3928 4134 
L 2272 4134 
L 2272 0 
L 1638 0 
L 1638 4134 
L -19 4134 
L -19 4666 
z
" transform="scale(0.015625)"/>
       <path id="DejaVuSans-69" d="M 603 3500 
L 1178 3500 
L 1178 0 
L 603 0 
L 603 3500 
z
M 603 4863 
L 1178 4863 
L 1178 4134 
L 603 4134 
L 603 4863 
z
" transform="scale(0.015625)"/>
       <path id="DejaVuSans-6d" d="M 3328 2828 
Q 3544 3216 3844 3400 
Q 4144 3584 4550 3584 
Q 5097 3584 5394 3201 
Q 5691 2819 5691 2113 
L 5691 0 
L 5113 0 
L 5113 2094 
Q 5113 2597 4934 2840 
Q 4756 3084 4391 3084 
Q 3944 3084 3684 2787 
Q 3425 2491 3425 1978 
L 3425 0 
L 2847 0 
L 2847 2094 
Q 2847 2600 2669 2842 
Q 2491 3084 2119 3084 
Q 1678 3084 1418 2786 
Q 1159 2488 1159 1978 
L 1159 0 
L 581 0 
L 581 3500 
L 1159 3500 
L 1159 2956 
Q 1356 3278 1631 3431 
Q 1906 3584 2284 3584 
Q 2666 3584 2933 3390 
Q 3200 3197 3328 2828 
z
" transform="scale(0.015625)"/>
       <path id="DejaVuSans-65" d="M 3597 1894 
L 3597 1613 
L 953 1613 
Q 991 1019 1311 708 
Q 1631 397 2203 397 
Q 2534 397 2845 478 
Q 3156 559 3463 722 
L 3463 178 
Q 3153 47 2828 -22 
Q 2503 -91 2169 -91 
Q 1331 -91 842 396 
Q 353 884 353 1716 
Q 353 2575 817 3079 
Q 1281 3584 2069 3584 
Q 2775 3584 3186 3129 
Q 3597 2675 3597 1894 
z
M 3022 2063 
Q 3016 2534 2758 2815 
Q 2500 3097 2075 3097 
Q 1594 3097 1305 2825 
Q 1016 2553 972 2059 
L 3022 2063 
z
" transform="scale(0.015625)"/>
       <path id="DejaVuSans-20" transform="scale(0.015625)"/>
       <path id="DejaVuSans-28" d="M 1984 4856 
Q 1566 4138 1362 3434 
Q 1159 2731 1159 2009 
Q 1159 1288 1364 580 
Q 1569 -128 1984 -844 
L 1484 -844 
Q 1016 -109 783 600 
Q 550 1309 550 2009 
Q 550 2706 781 3412 
Q 1013 4119 1484 4856 
L 1984 4856 
z
" transform="scale(0.015625)"/>
       <path id="DejaVuSans-73" d="M 2834 3397 
L 2834 2853 
Q 2591 2978 2328 3040 
Q 2066 3103 1784 3103 
Q 1356 3103 1142 2972 
Q 928 2841 928 2578 
Q 928 2378 1081 2264 
Q 1234 2150 1697 2047 
L 1894 2003 
Q 2506 1872 2764 1633 
Q 3022 1394 3022 966 
Q 3022 478 2636 193 
Q 2250 -91 1575 -91 
Q 1294 -91 989 -36 
Q 684 19 347 128 
L 347 722 
Q 666 556 975 473 
Q 1284 391 1588 391 
Q 1994 391 2212 530 
Q 2431 669 2431 922 
Q 2431 1156 2273 1281 
Q 2116 1406 1581 1522 
L 1381 1569 
Q 847 1681 609 1914 
Q 372 2147 372 2553 
Q 372 3047 722 3315 
Q 1072 3584 1716 3584 
Q 2034 3584 2315 3537 
Q 2597 3491 2834 3397 
z
" transform="scale(0.015625)"/>
       <path id="DejaVuSans-29" d="M 513 4856 
L 1013 4856 
Q 1481 4119 1714 3412 
Q 1947 2706 1947 2009 
Q 1947 1309 1714 600 
Q 1481 -109 1013 -844 
L 513 -844 
Q 928 -128 1133 580 
Q 1338 1288 1338 2009 
Q 1338 2731 1133 3434 
Q 928 4138 513 4856 
z
" transform="scale(0.015625)"/>
      </defs>
      <use xlink:href="#DejaVuSans-54"/>
      <use xlink:href="#DejaVuSans-69" transform="translate(57.958984 0)"/>
      <use xlink:href="#DejaVuSans-6d" transform="translate(85.742188 0)"/>
      <use xlink:href="#DejaVuSans-65" transform="translate(183.154297 0)"/>
      <use xlink:href="#DejaVuSans-20" transform="translate(244.677734 0)"/>
      <use xlink:href="#DejaVuSans-28" transform="translate(276.464844 0)"/>
      <use xlink:href="#DejaVuSans-6d" transform="translate(315.478516 0)"/>
      <use xlink:href="#DejaVuSans-73" transform="translate(412.890625 0)"/>
      <use xlink:href="#DejaVuSans-29" transform="translate(464.990234 0)"/>
     </g>
    </g>
   </g>
   <g id="LineCollection_1">
    <path d="M 239.4 335.449977 
L 351 335.449977 
" clip-path="url(#p4a6a815fef)" style="fill: none; stroke: #1f77b4; stroke-width: 1.5"/>
   </g>
   <g id="LineCollection_2">
    <path d="M 239.4 67.368336 
L 351 67.368336 
" clip-path="url(#p4a6a815fef)" style="fill: none; stroke: #1f77b4; stroke-width: 1.5"/>
   </g>
   <g id="LineCollection_3">
    <path d="M 239.4 377.935048 
L 351 377.935048 
" clip-path="url(#p4a6a815fef)" style="fill: none; stroke: #1f77b4; stroke-width: 1.5"/>
   </g>
   <g id="LineCollection_4">
    <path d="M 295.2 377.935048 
L 295.2 67.368336 
" clip-path="url(#p4a6a815fef)" style="fill: none; stroke: #1f77b4; stroke-width: 1.5"/>
   </g>
   <g id="patch_3">
    <path d="M 250.56 376.377935 
L 339.84 376.377935 
L 339.84 365.17626 
L 250.56 365.17626 
L 250.56 376.377935 
z
" clip-path="url(#p4a6a815fef)" style="fill: #1f77b4; stroke: #000000; stroke-linejoin: miter"/>
   </g>
   <g id="line2d_9">
    <path d="M 295.2 376.377935 
L 295.2 377.935048 
" clip-path="url(#p4a6a815fef)" style="fill: none; stroke: #000000; stroke-linecap: square"/>
   </g>
   <g id="line2d_10">
    <path d="M 295.2 365.17626 
L 295.2 365.17626 
" clip-path="url(#p4a6a815fef)" style="fill: none; stroke: #000000; stroke-linecap: square"/>
   </g>
   <g id="line2d_11">
    <path d="M 272.88 377.935048 
L 317.52 377.935048 
" clip-path="url(#p4a6a815fef)" style="fill: none; stroke: #000000; stroke-linecap: square"/>
   </g>
   <g id="line2d_12">
    <path d="M 272.88 365.17626 
L 317.52 365.17626 
" clip-path="url(#p4a6a815fef)" style="fill: none; stroke: #000000; stroke-linecap: square"/>
   </g>
   <g id="line2d_13">
    <defs>
     <path id="m2f5a096888" d="M 0 3 
C 0.795609 3 1.55874 2.683901 2.12132 2.12132 
C 2.683901 1.55874 3 0.795609 3 0 
C 3 -0.795609 2.683901 -1.55874 2.12132 -2.12132 
C 1.55874 -2.683901 0.795609 -3 0 -3 
C -0.795609 -3 -1.55874 -2.683901 -2.12132 -2.12132 
C -2.683901 -1.55874 -3 -0.795609 -3 0 
C -3 0.795609 -2.683901 1.55874 -2.12132 2.12132 
C -1.55874 2.683901 -0.795609 3 0 3 
z
" style="stroke: #000000"/>
    </defs>
    <g clip-path="url(#p4a6a815fef)">
     <use xlink:href="#m2f5a096888" x="295.2" y="98.008301" style="fill-opacity: 0; stroke: #000000"/>
     <use xlink:href="#m2f5a096888" x="295.2" y="342.707958" style="fill-opacity: 0; stroke: #000000"/>
     <use xlink:href="#m2f5a096888" x="295.2" y="76.778926" style="fill-opacity: 0; stroke: #000000"/>
     <use xlink:href="#m2f5a096888" x="295.2" y="342.147223" style="fill-opacity: 0; stroke: #000000"/>
     <use xlink:href="#m2f5a096888" x="295.2" y="100.867454" style="fill-opacity: 0; stroke: #000000"/>
     <use xlink:href="#m2f5a096888" x="295.2" y="339.487782" style="fill-opacity: 0; stroke: #000000"/>
     <use xlink:href="#m2f5a096888" x="295.2" y="93.543387" style="fill-opacity: 0; stroke: #000000"/>
     <use xlink:href="#m2f5a096888" x="295.2" y="336.932505" style="fill-opacity: 0; stroke: #000000"/>
     <use xlink:href="#m2f5a096888" x="295.2" y="98.578582" style="fill-opacity: 0; stroke: #000000"/>
     <use xlink:href="#m2f5a096888" x="295.2" y="331.757012" style="fill-opacity: 0; stroke: #000000"/>
     <use xlink:href="#m2f5a096888" x="295.2" y="69.647421" style="fill-opacity: 0; stroke: #000000"/>
     <use xlink:href="#m2f5a096888" x="295.2" y="340.787949" style="fill-opacity: 0; stroke: #000000"/>
     <use xlink:href="#m2f5a096888" x="295.2" y="100.014316" style="fill-opacity: 0; stroke: #000000"/>
     <use xlink:href="#m2f5a096888" x="295.2" y="331.221962" style="fill-opacity: 0; stroke: #000000"/>
     <use xlink:href="#m2f5a096888" x="295.2" y="97.01054" style="fill-opacity: 0; stroke: #000000"/>
     <use xlink:href="#m2f5a096888" x="295.2" y="338.519751" style="fill-opacity: 0; stroke: #000000"/>
     <use xlink:href="#m2f5a096888" x="295.2" y="92.816478" style="fill-opacity: 0; stroke: #000000"/>
     <use xlink:href="#m2f5a096888" x="295.2" y="340.664537" style="fill-opacity: 0; stroke: #000000"/>
     <use xlink:href="#m2f5a096888" x="295.2" y="97.022807" style="fill-opacity: 0; stroke: #000000"/>
     <use xlink:href="#m2f5a096888" x="295.2" y="336.6325" style="fill-opacity: 0; stroke: #000000"/>
     <use xlink:href="#m2f5a096888" x="295.2" y="97.150268" style="fill-opacity: 0; stroke: #000000"/>
     <use xlink:href="#m2f5a096888" x="295.2" y="336.326346" style="fill-opacity: 0; stroke: #000000"/>
     <use xlink:href="#m2f5a096888" x="295.2" y="92.326959" style="fill-opacity: 0; stroke: #000000"/>
     <use xlink:href="#m2f5a096888" x="295.2" y="339.972992" style="fill-opacity: 0; stroke: #000000"/>
     <use xlink:href="#m2f5a096888" x="295.2" y="81.472741" style="fill-opacity: 0; stroke: #000000"/>
     <use xlink:href="#m2f5a096888" x="295.2" y="339.800013" style="fill-opacity: 0; stroke: #000000"/>
     <use xlink:href="#m2f5a096888" x="295.2" y="92.234937" style="fill-opacity: 0; stroke: #000000"/>
     <use xlink:href="#m2f5a096888" x="295.2" y="339.006335" style="fill-opacity: 0; stroke: #000000"/>
     <use xlink:href="#m2f5a096888" x="295.2" y="84.891858" style="fill-opacity: 0; stroke: #000000"/>
     <use xlink:href="#m2f5a096888" x="295.2" y="330.902256" style="fill-opacity: 0; stroke: #000000"/>
     <use xlink:href="#m2f5a096888" x="295.2" y="80.827183" style="fill-opacity: 0; stroke: #000000"/>
     <use xlink:href="#m2f5a096888" x="295.2" y="339.910142" style="fill-opacity: 0; stroke: #000000"/>
     <use xlink:href="#m2f5a096888" x="295.2" y="67.368336" style="fill-opacity: 0; stroke: #000000"/>
     <use xlink:href="#m2f5a096888" x="295.2" y="338.654512" style="fill-opacity: 0; stroke: #000000"/>
     <use xlink:href="#m2f5a096888" x="295.2" y="93.581098" style="fill-opacity: 0; stroke: #000000"/>
     <use xlink:href="#m2f5a096888" x="295.2" y="341.452404" style="fill-opacity: 0; stroke: #000000"/>
     <use xlink:href="#m2f5a096888" x="295.2" y="109.409116" style="fill-opacity: 0; stroke: #000000"/>
     <use xlink:href="#m2f5a096888" x="295.2" y="338.178454" style="fill-opacity: 0; stroke: #000000"/>
     <use xlink:href="#m2f5a096888" x="295.2" y="93.072745" style="fill-opacity: 0; stroke: #000000"/>
     <use xlink:href="#m2f5a096888" x="295.2" y="338.26524" style="fill-opacity: 0; stroke: #000000"/>
    </g>
   </g>
   <g id="line2d_14">
    <path d="M 250.56 375.330586 
L 339.84 375.330586 
" clip-path="url(#p4a6a815fef)" style="fill: none; stroke: #ff7f0e"/>
   </g>
   <g id="patch_4">
    <path d="M 72 384.48 
L 72 51.84 
" style="fill: none; stroke: #000000; stroke-width: 0.8; stroke-linejoin: miter; stroke-linecap: square"/>
   </g>
   <g id="patch_5">
    <path d="M 518.4 384.48 
L 518.4 51.84 
" style="fill: none; stroke: #000000; stroke-width: 0.8; stroke-linejoin: miter; stroke-linecap: square"/>
   </g>
   <g id="patch_6">
    <path d="M 72 384.48 
L 518.4 384.48 
" style="fill: none; stroke: #000000; stroke-width: 0.8; stroke-linejoin: miter; stroke-linecap: square"/>
   </g>
   <g id="patch_7">
    <path d="M 72 51.84 
L 518.4 51.84 
" style="fill: none; stroke: #000000; stroke-width: 0.8; stroke-linejoin: miter; stroke-linecap: square"/>
   </g>
   <g id="text_10">
    <!-- Register Faultload -->
    <g transform="translate(241.364062 45.84) scale(0.12 -0.12)">
     <defs>
      <path id="DejaVuSans-52" d="M 2841 2188 
Q 3044 2119 3236 1894 
Q 3428 1669 3622 1275 
L 4263 0 
L 3584 0 
L 2988 1197 
Q 2756 1666 2539 1819 
Q 2322 1972 1947 1972 
L 1259 1972 
L 1259 0 
L 628 0 
L 628 4666 
L 2053 4666 
Q 2853 4666 3247 4331 
Q 3641 3997 3641 3322 
Q 3641 2881 3436 2590 
Q 3231 2300 2841 2188 
z
M 1259 4147 
L 1259 2491 
L 2053 2491 
Q 2509 2491 2742 2702 
Q 2975 2913 2975 3322 
Q 2975 3731 2742 3939 
Q 2509 4147 2053 4147 
L 1259 4147 
z
" transform="scale(0.015625)"/>
      <path id="DejaVuSans-67" d="M 2906 1791 
Q 2906 2416 2648 2759 
Q 2391 3103 1925 3103 
Q 1463 3103 1205 2759 
Q 947 2416 947 1791 
Q 947 1169 1205 825 
Q 1463 481 1925 481 
Q 2391 481 2648 825 
Q 2906 1169 2906 1791 
z
M 3481 434 
Q 3481 -459 3084 -895 
Q 2688 -1331 1869 -1331 
Q 1566 -1331 1297 -1286 
Q 1028 -1241 775 -1147 
L 775 -588 
Q 1028 -725 1275 -790 
Q 1522 -856 1778 -856 
Q 2344 -856 2625 -561 
Q 2906 -266 2906 331 
L 2906 616 
Q 2728 306 2450 153 
Q 2172 0 1784 0 
Q 1141 0 747 490 
Q 353 981 353 1791 
Q 353 2603 747 3093 
Q 1141 3584 1784 3584 
Q 2172 3584 2450 3431 
Q 2728 3278 2906 2969 
L 2906 3500 
L 3481 3500 
L 3481 434 
z
" transform="scale(0.015625)"/>
      <path id="DejaVuSans-74" d="M 1172 4494 
L 1172 3500 
L 2356 3500 
L 2356 3053 
L 1172 3053 
L 1172 1153 
Q 1172 725 1289 603 
Q 1406 481 1766 481 
L 2356 481 
L 2356 0 
L 1766 0 
Q 1100 0 847 248 
Q 594 497 594 1153 
L 594 3053 
L 172 3053 
L 172 3500 
L 594 3500 
L 594 4494 
L 1172 4494 
z
" transform="scale(0.015625)"/>
      <path id="DejaVuSans-72" d="M 2631 2963 
Q 2534 3019 2420 3045 
Q 2306 3072 2169 3072 
Q 1681 3072 1420 2755 
Q 1159 2438 1159 1844 
L 1159 0 
L 581 0 
L 581 3500 
L 1159 3500 
L 1159 2956 
Q 1341 3275 1631 3429 
Q 1922 3584 2338 3584 
Q 2397 3584 2469 3576 
Q 2541 3569 2628 3553 
L 2631 2963 
z
" transform="scale(0.015625)"/>
      <path id="DejaVuSans-46" d="M 628 4666 
L 3309 4666 
L 3309 4134 
L 1259 4134 
L 1259 2759 
L 3109 2759 
L 3109 2228 
L 1259 2228 
L 1259 0 
L 628 0 
L 628 4666 
z
" transform="scale(0.015625)"/>
      <path id="DejaVuSans-61" d="M 2194 1759 
Q 1497 1759 1228 1600 
Q 959 1441 959 1056 
Q 959 750 1161 570 
Q 1363 391 1709 391 
Q 2188 391 2477 730 
Q 2766 1069 2766 1631 
L 2766 1759 
L 2194 1759 
z
M 3341 1997 
L 3341 0 
L 2766 0 
L 2766 531 
Q 2569 213 2275 61 
Q 1981 -91 1556 -91 
Q 1019 -91 701 211 
Q 384 513 384 1019 
Q 384 1609 779 1909 
Q 1175 2209 1959 2209 
L 2766 2209 
L 2766 2266 
Q 2766 2663 2505 2880 
Q 2244 3097 1772 3097 
Q 1472 3097 1187 3025 
Q 903 2953 641 2809 
L 641 3341 
Q 956 3463 1253 3523 
Q 1550 3584 1831 3584 
Q 2591 3584 2966 3190 
Q 3341 2797 3341 1997 
z
" transform="scale(0.015625)"/>
      <path id="DejaVuSans-75" d="M 544 1381 
L 544 3500 
L 1119 3500 
L 1119 1403 
Q 1119 906 1312 657 
Q 1506 409 1894 409 
Q 2359 409 2629 706 
Q 2900 1003 2900 1516 
L 2900 3500 
L 3475 3500 
L 3475 0 
L 2900 0 
L 2900 538 
Q 2691 219 2414 64 
Q 2138 -91 1772 -91 
Q 1169 -91 856 284 
Q 544 659 544 1381 
z
M 1991 3584 
L 1991 3584 
z
" transform="scale(0.015625)"/>
      <path id="DejaVuSans-6c" d="M 603 4863 
L 1178 4863 
L 1178 0 
L 603 0 
L 603 4863 
z
" transform="scale(0.015625)"/>
      <path id="DejaVuSans-6f" d="M 1959 3097 
Q 1497 3097 1228 2736 
Q 959 2375 959 1747 
Q 959 1119 1226 758 
Q 1494 397 1959 397 
Q 2419 397 2687 759 
Q 2956 1122 2956 1747 
Q 2956 2369 2687 2733 
Q 2419 3097 1959 3097 
z
M 1959 3584 
Q 2709 3584 3137 3096 
Q 3566 2609 3566 1747 
Q 3566 888 3137 398 
Q 2709 -91 1959 -91 
Q 1206 -91 779 398 
Q 353 888 353 1747 
Q 353 2609 779 3096 
Q 1206 3584 1959 3584 
z
" transform="scale(0.015625)"/>
      <path id="DejaVuSans-64" d="M 2906 2969 
L 2906 4863 
L 3481 4863 
L 3481 0 
L 2906 0 
L 2906 525 
Q 2725 213 2448 61 
Q 2172 -91 1784 -91 
Q 1150 -91 751 415 
Q 353 922 353 1747 
Q 353 2572 751 3078 
Q 1150 3584 1784 3584 
Q 2172 3584 2448 3432 
Q 2725 3281 2906 2969 
z
M 947 1747 
Q 947 1113 1208 752 
Q 1469 391 1925 391 
Q 2381 391 2643 752 
Q 2906 1113 2906 1747 
Q 2906 2381 2643 2742 
Q 2381 3103 1925 3103 
Q 1469 3103 1208 2742 
Q 947 2381 947 1747 
z
" transform="scale(0.015625)"/>
     </defs>
     <use xlink:href="#DejaVuSans-52"/>
     <use xlink:href="#DejaVuSans-65" transform="translate(64.982422 0)"/>
     <use xlink:href="#DejaVuSans-67" transform="translate(126.505859 0)"/>
     <use xlink:href="#DejaVuSans-69" transform="translate(189.982422 0)"/>
     <use xlink:href="#DejaVuSans-73" transform="translate(217.765625 0)"/>
     <use xlink:href="#DejaVuSans-74" transform="translate(269.865234 0)"/>
     <use xlink:href="#DejaVuSans-65" transform="translate(309.074219 0)"/>
     <use xlink:href="#DejaVuSans-72" transform="translate(370.597656 0)"/>
     <use xlink:href="#DejaVuSans-20" transform="translate(411.710938 0)"/>
     <use xlink:href="#DejaVuSans-46" transform="translate(443.498047 0)"/>
     <use xlink:href="#DejaVuSans-61" transform="translate(491.892578 0)"/>
     <use xlink:href="#DejaVuSans-75" transform="translate(553.171875 0)"/>
     <use xlink:href="#DejaVuSans-6c" transform="translate(616.550781 0)"/>
     <use xlink:href="#DejaVuSans-74" transform="translate(644.333984 0)"/>
     <use xlink:href="#DejaVuSans-6c" transform="translate(683.542969 0)"/>
     <use xlink:href="#DejaVuSans-6f" transform="translate(711.326172 0)"/>
     <use xlink:href="#DejaVuSans-61" transform="translate(772.507812 0)"/>
     <use xlink:href="#DejaVuSans-64" transform="translate(833.787109 0)"/>
    </g>
   </g>
  </g>
 </g>
 <defs>
  <clipPath id="p4a6a815fef">
   <rect x="72" y="51.84" width="446.4" height="332.64"/>
  </clipPath>
 </defs>
</svg>
