<?xml version="1.0" encoding="utf-8" standalone="no"?>
<!DOCTYPE svg PUBLIC "-//W3C//DTD SVG 1.1//EN"
  "http://www.w3.org/Graphics/SVG/1.1/DTD/svg11.dtd">
<svg xmlns:xlink="http://www.w3.org/1999/xlink" width="576pt" height="432pt" viewBox="0 0 576 432" xmlns="http://www.w3.org/2000/svg" version="1.1">
 <metadata>
  <rdf:RDF xmlns:dc="http://purl.org/dc/elements/1.1/" xmlns:cc="http://creativecommons.org/ns#" xmlns:rdf="http://www.w3.org/1999/02/22-rdf-syntax-ns#">
   <cc:Work>
    <dc:type rdf:resource="http://purl.org/dc/dcmitype/StillImage"/>
    <dc:date>2025-09-30T20:46:07.886907</dc:date>
    <dc:format>image/svg+xml</dc:format>
    <dc:creator>
     <cc:Agent>
      <dc:title>Matplotlib v3.10.3, https://matplotlib.org/</dc:title>
     </cc:Agent>
    </dc:creator>
   </cc:Work>
  </rdf:RDF>
 </metadata>
 <defs>
  <style type="text/css">*{stroke-linejoin: round; stroke-linecap: butt}</style>
 </defs>
 <g id="figure_1">
  <g id="patch_1">
   <path d="M 0 432 
L 576 432 
L 576 0 
L 0 0 
z
" style="fill: #ffffff"/>
  </g>
  <g id="axes_1">
   <g id="patch_2">
    <path d="M 72 384.48 
L 518.4 384.48 
L 518.4 51.84 
L 72 51.84 
z
" style="fill: #ffffff"/>
   </g>
   <g id="FillBetweenPolyCollection_1">
    <path d="M 298.806059 382.537417 
L 291.593941 382.537417 
L 286.091779 379.356105 
L 274.796724 376.174793 
L 255.872359 372.99348 
L 231.248786 369.812168 
L 207.884873 366.630856 
L 192.905222 363.449543 
L 186.746624 360.268231 
L 184.514647 357.086919 
L 183.6 353.905606 
L 185.627437 350.724294 
L 191.942092 347.542982 
L 201.423683 344.361669 
L 212.273191 341.180357 
L 223.046926 337.999045 
L 232.175751 334.817732 
L 238.439486 331.63642 
L 242.03695 328.455108 
L 244.220671 325.273795 
L 245.936273 322.092483 
L 247.396622 318.911171 
L 248.754524 315.729858 
L 250.384013 312.548546 
L 252.364849 309.367234 
L 254.452573 306.185921 
L 256.803641 303.004609 
L 259.974113 299.823297 
L 263.992642 296.641984 
L 268.166926 293.460672 
L 271.943158 290.27936 
L 275.370535 287.098047 
L 278.688942 283.916735 
L 281.915501 280.735423 
L 284.893894 277.55411 
L 287.456877 274.372798 
L 289.466642 271.191486 
L 290.872749 268.010173 
L 291.76526 264.828861 
L 292.286315 261.647549 
L 292.543698 258.466236 
L 292.64737 255.284924 
L 292.725441 252.103612 
L 292.870455 248.922299 
L 293.127685 245.740987 
L 293.508671 242.559675 
L 293.960247 239.378362 
L 294.373125 236.19705 
L 294.673606 233.015738 
L 294.87166 229.834425 
L 295.009265 226.653113 
L 295.105825 223.471801 
L 295.163222 220.290488 
L 295.188972 217.109176 
L 295.196625 213.927864 
L 295.194519 210.746551 
L 295.180577 207.565239 
L 295.146178 204.383927 
L 295.090403 201.202614 
L 295.034004 198.021302 
L 295.004886 194.83999 
L 295.002944 191.658677 
L 295.003596 188.477365 
L 295.002919 185.296052 
L 295.024894 182.11474 
L 295.077336 178.933428 
L 295.135722 175.752115 
L 295.175259 172.570803 
L 295.193045 169.389491 
L 295.198574 166.208178 
L 295.199787 163.026866 
L 295.199977 159.845554 
L 295.199998 156.664241 
L 295.2 153.482929 
L 295.2 150.301617 
L 295.2 147.120304 
L 295.2 143.938992 
L 295.2 140.75768 
L 295.2 137.576367 
L 295.2 134.395055 
L 295.2 131.213743 
L 295.2 128.03243 
L 295.2 124.851118 
L 295.2 121.669806 
L 295.2 118.488493 
L 295.2 115.307181 
L 295.2 112.125869 
L 295.2 108.944556 
L 295.2 105.763244 
L 295.2 102.581932 
L 295.2 99.400619 
L 295.2 96.219307 
L 295.199993 93.037995 
L 295.199926 89.856682 
L 295.199424 86.67537 
L 295.196711 83.494058 
L 295.186318 80.312745 
L 295.158541 77.131433 
L 295.108478 73.950121 
L 295.052814 70.768808 
L 295.027556 67.587496 
L 295.372444 67.587496 
L 295.372444 67.587496 
L 295.347186 70.768808 
L 295.291522 73.950121 
L 295.241459 77.131433 
L 295.213682 80.312745 
L 295.203289 83.494058 
L 295.200576 86.67537 
L 295.200074 89.856682 
L 295.200007 93.037995 
L 295.2 96.219307 
L 295.2 99.400619 
L 295.2 102.581932 
L 295.2 105.763244 
L 295.2 108.944556 
L 295.2 112.125869 
L 295.2 115.307181 
L 295.2 118.488493 
L 295.2 121.669806 
L 295.2 124.851118 
L 295.2 128.03243 
L 295.2 131.213743 
L 295.2 134.395055 
L 295.2 137.576367 
L 295.2 140.75768 
L 295.2 143.938992 
L 295.2 147.120304 
L 295.2 150.301617 
L 295.2 153.482929 
L 295.200002 156.664241 
L 295.200023 159.845554 
L 295.200213 163.026866 
L 295.201426 166.208178 
L 295.206955 169.389491 
L 295.224741 172.570803 
L 295.264278 175.752115 
L 295.322664 178.933428 
L 295.375106 182.11474 
L 295.397081 185.296052 
L 295.396404 188.477365 
L 295.397056 191.658677 
L 295.395114 194.83999 
L 295.365996 198.021302 
L 295.309597 201.202614 
L 295.253822 204.383927 
L 295.219423 207.565239 
L 295.205481 210.746551 
L 295.203375 213.927864 
L 295.211028 217.109176 
L 295.236778 220.290488 
L 295.294175 223.471801 
L 295.390735 226.653113 
L 295.52834 229.834425 
L 295.726394 233.015738 
L 296.026875 236.19705 
L 296.439753 239.378362 
L 296.891329 242.559675 
L 297.272315 245.740987 
L 297.529545 248.922299 
L 297.674559 252.103612 
L 297.75263 255.284924 
L 297.856302 258.466236 
L 298.113685 261.647549 
L 298.63474 264.828861 
L 299.527251 268.010173 
L 300.933358 271.191486 
L 302.943123 274.372798 
L 305.506106 277.55411 
L 308.484499 280.735423 
L 311.711058 283.916735 
L 315.029465 287.098047 
L 318.456842 290.27936 
L 322.233074 293.460672 
L 326.407358 296.641984 
L 330.425887 299.823297 
L 333.596359 303.004609 
L 335.947427 306.185921 
L 338.035151 309.367234 
L 340.015987 312.548546 
L 341.645476 315.729858 
L 343.003378 318.911171 
L 344.463727 322.092483 
L 346.179329 325.273795 
L 348.36305 328.455108 
L 351.960514 331.63642 
L 358.224249 334.817732 
L 367.353074 337.999045 
L 378.126809 341.180357 
L 388.976317 344.361669 
L 398.457908 347.542982 
L 404.772563 350.724294 
L 406.8 353.905606 
L 405.885353 357.086919 
L 403.653376 360.268231 
L 397.494778 363.449543 
L 382.515127 366.630856 
L 359.151214 369.812168 
L 334.527641 372.99348 
L 315.603276 376.174793 
L 304.308221 379.356105 
L 298.806059 382.537417 
z
" clip-path="url(#pa40467c2d5)" style="fill: #1f77b4; fill-opacity: 0.3"/>
   </g>
   <g id="matplotlib.axis_1">
    <g id="xtick_1">
     <g id="line2d_1">
      <defs>
       <path id="m9df9aaba93" d="M 0 0 
L 0 3.5 
" style="stroke: #000000; stroke-width: 0.8"/>
      </defs>
      <g>
       <use xlink:href="#m9df9aaba93" x="295.2" y="384.48" style="stroke: #000000; stroke-width: 0.8"/>
      </g>
     </g>
     <g id="text_1">
      <!-- 1 -->
      <g transform="translate(292.01875 399.078438) scale(0.1 -0.1)">
       <defs>
        <path id="DejaVuSans-31" d="M 794 531 
L 1825 531 
L 1825 4091 
L 703 3866 
L 703 4441 
L 1819 4666 
L 2450 4666 
L 2450 531 
L 3481 531 
L 3481 0 
L 794 0 
L 794 531 
z
" transform="scale(0.015625)"/>
       </defs>
       <use xlink:href="#DejaVuSans-31"/>
      </g>
     </g>
    </g>
   </g>
   <g id="matplotlib.axis_2">
    <g id="ytick_1">
     <g id="line2d_2">
      <defs>
       <path id="m836a72d446" d="M 0 0 
L -3.5 0 
" style="stroke: #000000; stroke-width: 0.8"/>
      </defs>
      <g>
       <use xlink:href="#m836a72d446" x="72" y="384.48" style="stroke: #000000; stroke-width: 0.8"/>
      </g>
     </g>
     <g id="text_2">
      <!-- 0 -->
      <g transform="translate(58.6375 388.279219) scale(0.1 -0.1)">
       <defs>
        <path id="DejaVuSans-30" d="M 2034 4250 
Q 1547 4250 1301 3770 
Q 1056 3291 1056 2328 
Q 1056 1369 1301 889 
Q 1547 409 2034 409 
Q 2525 409 2770 889 
Q 3016 1369 3016 2328 
Q 3016 3291 2770 3770 
Q 2525 4250 2034 4250 
z
M 2034 4750 
Q 2819 4750 3233 4129 
Q 3647 3509 3647 2328 
Q 3647 1150 3233 529 
Q 2819 -91 2034 -91 
Q 1250 -91 836 529 
Q 422 1150 422 2328 
Q 422 3509 836 4129 
Q 1250 4750 2034 4750 
z
" transform="scale(0.015625)"/>
       </defs>
       <use xlink:href="#DejaVuSans-30"/>
      </g>
     </g>
    </g>
    <g id="ytick_2">
     <g id="line2d_3">
      <g>
       <use xlink:href="#m836a72d446" x="72" y="334.314916" style="stroke: #000000; stroke-width: 0.8"/>
      </g>
     </g>
     <g id="text_3">
      <!-- 10 -->
      <g transform="translate(52.275 338.114135) scale(0.1 -0.1)">
       <use xlink:href="#DejaVuSans-31"/>
       <use xlink:href="#DejaVuSans-30" transform="translate(63.623047 0)"/>
      </g>
     </g>
    </g>
    <g id="ytick_3">
     <g id="line2d_4">
      <g>
       <use xlink:href="#m836a72d446" x="72" y="284.149832" style="stroke: #000000; stroke-width: 0.8"/>
      </g>
     </g>
     <g id="text_4">
      <!-- 20 -->
      <g transform="translate(52.275 287.949051) scale(0.1 -0.1)">
       <defs>
        <path id="DejaVuSans-32" d="M 1228 531 
L 3431 531 
L 3431 0 
L 469 0 
L 469 531 
Q 828 903 1448 1529 
Q 2069 2156 2228 2338 
Q 2531 2678 2651 2914 
Q 2772 3150 2772 3378 
Q 2772 3750 2511 3984 
Q 2250 4219 1831 4219 
Q 1534 4219 1204 4116 
Q 875 4013 500 3803 
L 500 4441 
Q 881 4594 1212 4672 
Q 1544 4750 1819 4750 
Q 2544 4750 2975 4387 
Q 3406 4025 3406 3419 
Q 3406 3131 3298 2873 
Q 3191 2616 2906 2266 
Q 2828 2175 2409 1742 
Q 1991 1309 1228 531 
z
" transform="scale(0.015625)"/>
       </defs>
       <use xlink:href="#DejaVuSans-32"/>
       <use xlink:href="#DejaVuSans-30" transform="translate(63.623047 0)"/>
      </g>
     </g>
    </g>
    <g id="ytick_4">
     <g id="line2d_5">
      <g>
       <use xlink:href="#m836a72d446" x="72" y="233.984748" style="stroke: #000000; stroke-width: 0.8"/>
      </g>
     </g>
     <g id="text_5">
      <!-- 30 -->
      <g transform="translate(52.275 237.783967) scale(0.1 -0.1)">
       <defs>
        <path id="DejaVuSans-33" d="M 2597 2516 
Q 3050 2419 3304 2112 
Q 3559 1806 3559 1356 
Q 3559 666 3084 287 
Q 2609 -91 1734 -91 
Q 1441 -91 1130 -33 
Q 819 25 488 141 
L 488 750 
Q 750 597 1062 519 
Q 1375 441 1716 441 
Q 2309 441 2620 675 
Q 2931 909 2931 1356 
Q 2931 1769 2642 2001 
Q 2353 2234 1838 2234 
L 1294 2234 
L 1294 2753 
L 1863 2753 
Q 2328 2753 2575 2939 
Q 2822 3125 2822 3475 
Q 2822 3834 2567 4026 
Q 2313 4219 1838 4219 
Q 1578 4219 1281 4162 
Q 984 4106 628 3988 
L 628 4550 
Q 988 4650 1302 4700 
Q 1616 4750 1894 4750 
Q 2613 4750 3031 4423 
Q 3450 4097 3450 3541 
Q 3450 3153 3228 2886 
Q 3006 2619 2597 2516 
z
" transform="scale(0.015625)"/>
       </defs>
       <use xlink:href="#DejaVuSans-33"/>
       <use xlink:href="#DejaVuSans-30" transform="translate(63.623047 0)"/>
      </g>
     </g>
    </g>
    <g id="ytick_5">
     <g id="line2d_6">
      <g>
       <use xlink:href="#m836a72d446" x="72" y="183.819664" style="stroke: #000000; stroke-width: 0.8"/>
      </g>
     </g>
     <g id="text_6">
      <!-- 40 -->
      <g transform="translate(52.275 187.618883) scale(0.1 -0.1)">
       <defs>
        <path id="DejaVuSans-34" d="M 2419 4116 
L 825 1625 
L 2419 1625 
L 2419 4116 
z
M 2253 4666 
L 3047 4666 
L 3047 1625 
L 3713 1625 
L 3713 1100 
L 3047 1100 
L 3047 0 
L 2419 0 
L 2419 1100 
L 313 1100 
L 313 1709 
L 2253 4666 
z
" transform="scale(0.015625)"/>
       </defs>
       <use xlink:href="#DejaVuSans-34"/>
       <use xlink:href="#DejaVuSans-30" transform="translate(63.623047 0)"/>
      </g>
     </g>
    </g>
    <g id="ytick_6">
     <g id="line2d_7">
      <g>
       <use xlink:href="#m836a72d446" x="72" y="133.65458" style="stroke: #000000; stroke-width: 0.8"/>
      </g>
     </g>
     <g id="text_7">
      <!-- 50 -->
      <g transform="translate(52.275 137.453799) scale(0.1 -0.1)">
       <defs>
        <path id="DejaVuSans-35" d="M 691 4666 
L 3169 4666 
L 3169 4134 
L 1269 4134 
L 1269 2991 
Q 1406 3038 1543 3061 
Q 1681 3084 1819 3084 
Q 2600 3084 3056 2656 
Q 3513 2228 3513 1497 
Q 3513 744 3044 326 
Q 2575 -91 1722 -91 
Q 1428 -91 1123 -41 
Q 819 9 494 109 
L 494 744 
Q 775 591 1075 516 
Q 1375 441 1709 441 
Q 2250 441 2565 725 
Q 2881 1009 2881 1497 
Q 2881 1984 2565 2268 
Q 2250 2553 1709 2553 
Q 1456 2553 1204 2497 
Q 953 2441 691 2322 
L 691 4666 
z
" transform="scale(0.015625)"/>
       </defs>
       <use xlink:href="#DejaVuSans-35"/>
       <use xlink:href="#DejaVuSans-30" transform="translate(63.623047 0)"/>
      </g>
     </g>
    </g>
    <g id="ytick_7">
     <g id="line2d_8">
      <g>
       <use xlink:href="#m836a72d446" x="72" y="83.489497" style="stroke: #000000; stroke-width: 0.8"/>
      </g>
     </g>
     <g id="text_8">
      <!-- 60 -->
      <g transform="translate(52.275 87.288715) scale(0.1 -0.1)">
       <defs>
        <path id="DejaVuSans-36" d="M 2113 2584 
Q 1688 2584 1439 2293 
Q 1191 2003 1191 1497 
Q 1191 994 1439 701 
Q 1688 409 2113 409 
Q 2538 409 2786 701 
Q 3034 994 3034 1497 
Q 3034 2003 2786 2293 
Q 2538 2584 2113 2584 
z
M 3366 4563 
L 3366 3988 
Q 3128 4100 2886 4159 
Q 2644 4219 2406 4219 
Q 1781 4219 1451 3797 
Q 1122 3375 1075 2522 
Q 1259 2794 1537 2939 
Q 1816 3084 2150 3084 
Q 2853 3084 3261 2657 
Q 3669 2231 3669 1497 
Q 3669 778 3244 343 
Q 2819 -91 2113 -91 
Q 1303 -91 875 529 
Q 447 1150 447 2328 
Q 447 3434 972 4092 
Q 1497 4750 2381 4750 
Q 2619 4750 2861 4703 
Q 3103 4656 3366 4563 
z
" transform="scale(0.015625)"/>
       </defs>
       <use xlink:href="#DejaVuSans-36"/>
       <use xlink:href="#DejaVuSans-30" transform="translate(63.623047 0)"/>
      </g>
     </g>
    </g>
    <g id="text_9">
     <!-- Time (ms) -->
     <g transform="translate(46.195312 243.359219) rotate(-90) scale(0.1 -0.1)">
      <defs>
       <path id="DejaVuSans-54" d="M -19 4666 
L 3928 4666 
L 3928 4134 
L 2272 4134 
L 2272 0 
L 1638 0 
L 1638 4134 
L -19 4134 
L -19 4666 
z
" transform="scale(0.015625)"/>
       <path id="DejaVuSans-69" d="M 603 3500 
L 1178 3500 
L 1178 0 
L 603 0 
L 603 3500 
z
M 603 4863 
L 1178 4863 
L 1178 4134 
L 603 4134 
L 603 4863 
z
" transform="scale(0.015625)"/>
       <path id="DejaVuSans-6d" d="M 3328 2828 
Q 3544 3216 3844 3400 
Q 4144 3584 4550 3584 
Q 5097 3584 5394 3201 
Q 5691 2819 5691 2113 
L 5691 0 
L 5113 0 
L 5113 2094 
Q 5113 2597 4934 2840 
Q 4756 3084 4391 3084 
Q 3944 3084 3684 2787 
Q 3425 2491 3425 1978 
L 3425 0 
L 2847 0 
L 2847 2094 
Q 2847 2600 2669 2842 
Q 2491 3084 2119 3084 
Q 1678 3084 1418 2786 
Q 1159 2488 1159 1978 
L 1159 0 
L 581 0 
L 581 3500 
L 1159 3500 
L 1159 2956 
Q 1356 3278 1631 3431 
Q 1906 3584 2284 3584 
Q 2666 3584 2933 3390 
Q 3200 3197 3328 2828 
z
" transform="scale(0.015625)"/>
       <path id="DejaVuSans-65" d="M 3597 1894 
L 3597 1613 
L 953 1613 
Q 991 1019 1311 708 
Q 1631 397 2203 397 
Q 2534 397 2845 478 
Q 3156 559 3463 722 
L 3463 178 
Q 3153 47 2828 -22 
Q 2503 -91 2169 -91 
Q 1331 -91 842 396 
Q 353 884 353 1716 
Q 353 2575 817 3079 
Q 1281 3584 2069 3584 
Q 2775 3584 3186 3129 
Q 3597 2675 3597 1894 
z
M 3022 2063 
Q 3016 2534 2758 2815 
Q 2500 3097 2075 3097 
Q 1594 3097 1305 2825 
Q 1016 2553 972 2059 
L 3022 2063 
z
" transform="scale(0.015625)"/>
       <path id="DejaVuSans-20" transform="scale(0.015625)"/>
       <path id="DejaVuSans-28" d="M 1984 4856 
Q 1566 4138 1362 3434 
Q 1159 2731 1159 2009 
Q 1159 1288 1364 580 
Q 1569 -128 1984 -844 
L 1484 -844 
Q 1016 -109 783 600 
Q 550 1309 550 2009 
Q 550 2706 781 3412 
Q 1013 4119 1484 4856 
L 1984 4856 
z
" transform="scale(0.015625)"/>
       <path id="DejaVuSans-73" d="M 2834 3397 
L 2834 2853 
Q 2591 2978 2328 3040 
Q 2066 3103 1784 3103 
Q 1356 3103 1142 2972 
Q 928 2841 928 2578 
Q 928 2378 1081 2264 
Q 1234 2150 1697 2047 
L 1894 2003 
Q 2506 1872 2764 1633 
Q 3022 1394 3022 966 
Q 3022 478 2636 193 
Q 2250 -91 1575 -91 
Q 1294 -91 989 -36 
Q 684 19 347 128 
L 347 722 
Q 666 556 975 473 
Q 1284 391 1588 391 
Q 1994 391 2212 530 
Q 2431 669 2431 922 
Q 2431 1156 2273 1281 
Q 2116 1406 1581 1522 
L 1381 1569 
Q 847 1681 609 1914 
Q 372 2147 372 2553 
Q 372 3047 722 3315 
Q 1072 3584 1716 3584 
Q 2034 3584 2315 3537 
Q 2597 3491 2834 3397 
z
" transform="scale(0.015625)"/>
       <path id="DejaVuSans-29" d="M 513 4856 
L 1013 4856 
Q 1481 4119 1714 3412 
Q 1947 2706 1947 2009 
Q 1947 1309 1714 600 
Q 1481 -109 1013 -844 
L 513 -844 
Q 928 -128 1133 580 
Q 1338 1288 1338 2009 
Q 1338 2731 1133 3434 
Q 928 4138 513 4856 
z
" transform="scale(0.015625)"/>
      </defs>
      <use xlink:href="#DejaVuSans-54"/>
      <use xlink:href="#DejaVuSans-69" transform="translate(57.958984 0)"/>
      <use xlink:href="#DejaVuSans-6d" transform="translate(85.742188 0)"/>
      <use xlink:href="#DejaVuSans-65" transform="translate(183.154297 0)"/>
      <use xlink:href="#DejaVuSans-20" transform="translate(244.677734 0)"/>
      <use xlink:href="#DejaVuSans-28" transform="translate(276.464844 0)"/>
      <use xlink:href="#DejaVuSans-6d" transform="translate(315.478516 0)"/>
      <use xlink:href="#DejaVuSans-73" transform="translate(412.890625 0)"/>
      <use xlink:href="#DejaVuSans-29" transform="translate(464.990234 0)"/>
     </g>
    </g>
   </g>
   <g id="LineCollection_1">
    <path d="M 239.4 337.018567 
L 351 337.018567 
" clip-path="url(#pa40467c2d5)" style="fill: none; stroke: #1f77b4; stroke-width: 1.5"/>
   </g>
   <g id="LineCollection_2">
    <path d="M 239.4 67.587496 
L 351 67.587496 
" clip-path="url(#pa40467c2d5)" style="fill: none; stroke: #1f77b4; stroke-width: 1.5"/>
   </g>
   <g id="LineCollection_3">
    <path d="M 239.4 382.537417 
L 351 382.537417 
" clip-path="url(#pa40467c2d5)" style="fill: none; stroke: #1f77b4; stroke-width: 1.5"/>
   </g>
   <g id="LineCollection_4">
    <path d="M 295.2 382.537417 
L 295.2 67.587496 
" clip-path="url(#pa40467c2d5)" style="fill: none; stroke: #1f77b4; stroke-width: 1.5"/>
   </g>
   <g id="patch_3">
    <path d="M 250.56 357.164841 
L 339.84 357.164841 
L 339.84 319.86667 
L 250.56 319.86667 
L 250.56 357.164841 
z
" clip-path="url(#pa40467c2d5)" style="fill: #1f77b4; stroke: #000000; stroke-linejoin: miter"/>
   </g>
   <g id="line2d_9">
    <path d="M 295.2 357.164841 
L 295.2 382.537417 
" clip-path="url(#pa40467c2d5)" style="fill: none; stroke: #000000; stroke-linecap: square"/>
   </g>
   <g id="line2d_10">
    <path d="M 295.2 319.86667 
L 295.2 264.505702 
" clip-path="url(#pa40467c2d5)" style="fill: none; stroke: #000000; stroke-linecap: square"/>
   </g>
   <g id="line2d_11">
    <path d="M 272.88 382.537417 
L 317.52 382.537417 
" clip-path="url(#pa40467c2d5)" style="fill: none; stroke: #000000; stroke-linecap: square"/>
   </g>
   <g id="line2d_12">
    <path d="M 272.88 264.505702 
L 317.52 264.505702 
" clip-path="url(#pa40467c2d5)" style="fill: none; stroke: #000000; stroke-linecap: square"/>
   </g>
   <g id="line2d_13">
    <defs>
     <path id="mfdbfffa6d3" d="M 0 3 
C 0.795609 3 1.55874 2.683901 2.12132 2.12132 
C 2.683901 1.55874 3 0.795609 3 0 
C 3 -0.795609 2.683901 -1.55874 2.12132 -2.12132 
C 1.55874 -2.683901 0.795609 -3 0 -3 
C -0.795609 -3 -1.55874 -2.683901 -2.12132 -2.12132 
C -2.683901 -1.55874 -3 -0.795609 -3 0 
C -3 0.795609 -2.683901 1.55874 -2.12132 2.12132 
C -1.55874 2.683901 -0.795609 3 0 3 
z
" style="stroke: #000000"/>
    </defs>
    <g clip-path="url(#pa40467c2d5)">
     <use xlink:href="#mfdbfffa6d3" x="295.2" y="195.742771" style="fill-opacity: 0; stroke: #000000"/>
     <use xlink:href="#mfdbfffa6d3" x="295.2" y="183.714207" style="fill-opacity: 0; stroke: #000000"/>
     <use xlink:href="#mfdbfffa6d3" x="295.2" y="261.315002" style="fill-opacity: 0; stroke: #000000"/>
     <use xlink:href="#mfdbfffa6d3" x="295.2" y="67.587496" style="fill-opacity: 0; stroke: #000000"/>
     <use xlink:href="#mfdbfffa6d3" x="295.2" y="257.917346" style="fill-opacity: 0; stroke: #000000"/>
     <use xlink:href="#mfdbfffa6d3" x="295.2" y="240.091479" style="fill-opacity: 0; stroke: #000000"/>
     <use xlink:href="#mfdbfffa6d3" x="295.2" y="244.098571" style="fill-opacity: 0; stroke: #000000"/>
     <use xlink:href="#mfdbfffa6d3" x="295.2" y="250.52528" style="fill-opacity: 0; stroke: #000000"/>
     <use xlink:href="#mfdbfffa6d3" x="295.2" y="244.588403" style="fill-opacity: 0; stroke: #000000"/>
     <use xlink:href="#mfdbfffa6d3" x="295.2" y="248.735019" style="fill-opacity: 0; stroke: #000000"/>
     <use xlink:href="#mfdbfffa6d3" x="295.2" y="254.90722" style="fill-opacity: 0; stroke: #000000"/>
     <use xlink:href="#mfdbfffa6d3" x="295.2" y="249.537204" style="fill-opacity: 0; stroke: #000000"/>
     <use xlink:href="#mfdbfffa6d3" x="295.2" y="258.484568" style="fill-opacity: 0; stroke: #000000"/>
     <use xlink:href="#mfdbfffa6d3" x="295.2" y="253.064903" style="fill-opacity: 0; stroke: #000000"/>
     <use xlink:href="#mfdbfffa6d3" x="295.2" y="258.303286" style="fill-opacity: 0; stroke: #000000"/>
     <use xlink:href="#mfdbfffa6d3" x="295.2" y="263.390743" style="fill-opacity: 0; stroke: #000000"/>
     <use xlink:href="#mfdbfffa6d3" x="295.2" y="252.066592" style="fill-opacity: 0; stroke: #000000"/>
     <use xlink:href="#mfdbfffa6d3" x="295.2" y="230.501119" style="fill-opacity: 0; stroke: #000000"/>
     <use xlink:href="#mfdbfffa6d3" x="295.2" y="246.150865" style="fill-opacity: 0; stroke: #000000"/>
     <use xlink:href="#mfdbfffa6d3" x="295.2" y="236.729501" style="fill-opacity: 0; stroke: #000000"/>
     <use xlink:href="#mfdbfffa6d3" x="295.2" y="256.637364" style="fill-opacity: 0; stroke: #000000"/>
     <use xlink:href="#mfdbfffa6d3" x="295.2" y="244.127005" style="fill-opacity: 0; stroke: #000000"/>
     <use xlink:href="#mfdbfffa6d3" x="295.2" y="243.681298" style="fill-opacity: 0; stroke: #000000"/>
     <use xlink:href="#mfdbfffa6d3" x="295.2" y="252.849193" style="fill-opacity: 0; stroke: #000000"/>
     <use xlink:href="#mfdbfffa6d3" x="295.2" y="261.581574" style="fill-opacity: 0; stroke: #000000"/>
     <use xlink:href="#mfdbfffa6d3" x="295.2" y="251.628039" style="fill-opacity: 0; stroke: #000000"/>
     <use xlink:href="#mfdbfffa6d3" x="295.2" y="255.454727" style="fill-opacity: 0; stroke: #000000"/>
     <use xlink:href="#mfdbfffa6d3" x="295.2" y="243.520052" style="fill-opacity: 0; stroke: #000000"/>
    </g>
   </g>
   <g id="line2d_14">
    <path d="M 250.56 344.129218 
L 339.84 344.129218 
" clip-path="url(#pa40467c2d5)" style="fill: none; stroke: #ff7f0e"/>
   </g>
   <g id="patch_4">
    <path d="M 72 384.48 
L 72 51.84 
" style="fill: none; stroke: #000000; stroke-width: 0.8; stroke-linejoin: miter; stroke-linecap: square"/>
   </g>
   <g id="patch_5">
    <path d="M 518.4 384.48 
L 518.4 51.84 
" style="fill: none; stroke: #000000; stroke-width: 0.8; stroke-linejoin: miter; stroke-linecap: square"/>
   </g>
   <g id="patch_6">
    <path d="M 72 384.48 
L 518.4 384.48 
" style="fill: none; stroke: #000000; stroke-width: 0.8; stroke-linejoin: miter; stroke-linecap: square"/>
   </g>
   <g id="patch_7">
    <path d="M 72 51.84 
L 518.4 51.84 
" style="fill: none; stroke: #000000; stroke-width: 0.8; stroke-linejoin: miter; stroke-linecap: square"/>
   </g>
   <g id="text_10">
    <!-- Handle Result -->
    <g transform="translate(253.595625 45.84) scale(0.12 -0.12)">
     <defs>
      <path id="DejaVuSans-48" d="M 628 4666 
L 1259 4666 
L 1259 2753 
L 3553 2753 
L 3553 4666 
L 4184 4666 
L 4184 0 
L 3553 0 
L 3553 2222 
L 1259 2222 
L 1259 0 
L 628 0 
L 628 4666 
z
" transform="scale(0.015625)"/>
      <path id="DejaVuSans-61" d="M 2194 1759 
Q 1497 1759 1228 1600 
Q 959 1441 959 1056 
Q 959 750 1161 570 
Q 1363 391 1709 391 
Q 2188 391 2477 730 
Q 2766 1069 2766 1631 
L 2766 1759 
L 2194 1759 
z
M 3341 1997 
L 3341 0 
L 2766 0 
L 2766 531 
Q 2569 213 2275 61 
Q 1981 -91 1556 -91 
Q 1019 -91 701 211 
Q 384 513 384 1019 
Q 384 1609 779 1909 
Q 1175 2209 1959 2209 
L 2766 2209 
L 2766 2266 
Q 2766 2663 2505 2880 
Q 2244 3097 1772 3097 
Q 1472 3097 1187 3025 
Q 903 2953 641 2809 
L 641 3341 
Q 956 3463 1253 3523 
Q 1550 3584 1831 3584 
Q 2591 3584 2966 3190 
Q 3341 2797 3341 1997 
z
" transform="scale(0.015625)"/>
      <path id="DejaVuSans-6e" d="M 3513 2113 
L 3513 0 
L 2938 0 
L 2938 2094 
Q 2938 2591 2744 2837 
Q 2550 3084 2163 3084 
Q 1697 3084 1428 2787 
Q 1159 2491 1159 1978 
L 1159 0 
L 581 0 
L 581 3500 
L 1159 3500 
L 1159 2956 
Q 1366 3272 1645 3428 
Q 1925 3584 2291 3584 
Q 2894 3584 3203 3211 
Q 3513 2838 3513 2113 
z
" transform="scale(0.015625)"/>
      <path id="DejaVuSans-64" d="M 2906 2969 
L 2906 4863 
L 3481 4863 
L 3481 0 
L 2906 0 
L 2906 525 
Q 2725 213 2448 61 
Q 2172 -91 1784 -91 
Q 1150 -91 751 415 
Q 353 922 353 1747 
Q 353 2572 751 3078 
Q 1150 3584 1784 3584 
Q 2172 3584 2448 3432 
Q 2725 3281 2906 2969 
z
M 947 1747 
Q 947 1113 1208 752 
Q 1469 391 1925 391 
Q 2381 391 2643 752 
Q 2906 1113 2906 1747 
Q 2906 2381 2643 2742 
Q 2381 3103 1925 3103 
Q 1469 3103 1208 2742 
Q 947 2381 947 1747 
z
" transform="scale(0.015625)"/>
      <path id="DejaVuSans-6c" d="M 603 4863 
L 1178 4863 
L 1178 0 
L 603 0 
L 603 4863 
z
" transform="scale(0.015625)"/>
      <path id="DejaVuSans-52" d="M 2841 2188 
Q 3044 2119 3236 1894 
Q 3428 1669 3622 1275 
L 4263 0 
L 3584 0 
L 2988 1197 
Q 2756 1666 2539 1819 
Q 2322 1972 1947 1972 
L 1259 1972 
L 1259 0 
L 628 0 
L 628 4666 
L 2053 4666 
Q 2853 4666 3247 4331 
Q 3641 3997 3641 3322 
Q 3641 2881 3436 2590 
Q 3231 2300 2841 2188 
z
M 1259 4147 
L 1259 2491 
L 2053 2491 
Q 2509 2491 2742 2702 
Q 2975 2913 2975 3322 
Q 2975 3731 2742 3939 
Q 2509 4147 2053 4147 
L 1259 4147 
z
" transform="scale(0.015625)"/>
      <path id="DejaVuSans-75" d="M 544 1381 
L 544 3500 
L 1119 3500 
L 1119 1403 
Q 1119 906 1312 657 
Q 1506 409 1894 409 
Q 2359 409 2629 706 
Q 2900 1003 2900 1516 
L 2900 3500 
L 3475 3500 
L 3475 0 
L 2900 0 
L 2900 538 
Q 2691 219 2414 64 
Q 2138 -91 1772 -91 
Q 1169 -91 856 284 
Q 544 659 544 1381 
z
M 1991 3584 
L 1991 3584 
z
" transform="scale(0.015625)"/>
      <path id="DejaVuSans-74" d="M 1172 4494 
L 1172 3500 
L 2356 3500 
L 2356 3053 
L 1172 3053 
L 1172 1153 
Q 1172 725 1289 603 
Q 1406 481 1766 481 
L 2356 481 
L 2356 0 
L 1766 0 
Q 1100 0 847 248 
Q 594 497 594 1153 
L 594 3053 
L 172 3053 
L 172 3500 
L 594 3500 
L 594 4494 
L 1172 4494 
z
" transform="scale(0.015625)"/>
     </defs>
     <use xlink:href="#DejaVuSans-48"/>
     <use xlink:href="#DejaVuSans-61" transform="translate(75.195312 0)"/>
     <use xlink:href="#DejaVuSans-6e" transform="translate(136.474609 0)"/>
     <use xlink:href="#DejaVuSans-64" transform="translate(199.853516 0)"/>
     <use xlink:href="#DejaVuSans-6c" transform="translate(263.330078 0)"/>
     <use xlink:href="#DejaVuSans-65" transform="translate(291.113281 0)"/>
     <use xlink:href="#DejaVuSans-20" transform="translate(352.636719 0)"/>
     <use xlink:href="#DejaVuSans-52" transform="translate(384.423828 0)"/>
     <use xlink:href="#DejaVuSans-65" transform="translate(449.40625 0)"/>
     <use xlink:href="#DejaVuSans-73" transform="translate(510.929688 0)"/>
     <use xlink:href="#DejaVuSans-75" transform="translate(563.029297 0)"/>
     <use xlink:href="#DejaVuSans-6c" transform="translate(626.408203 0)"/>
     <use xlink:href="#DejaVuSans-74" transform="translate(654.191406 0)"/>
    </g>
   </g>
  </g>
 </g>
 <defs>
  <clipPath id="pa40467c2d5">
   <rect x="72" y="51.84" width="446.4" height="332.64"/>
  </clipPath>
 </defs>
</svg>
