<?xml version="1.0" encoding="utf-8" standalone="no"?>
<!DOCTYPE svg PUBLIC "-//W3C//DTD SVG 1.1//EN"
  "http://www.w3.org/Graphics/SVG/1.1/DTD/svg11.dtd">
<svg xmlns:xlink="http://www.w3.org/1999/xlink" width="720pt" height="432pt" viewBox="0 0 720 432" xmlns="http://www.w3.org/2000/svg" version="1.1">
 <metadata>
  <rdf:RDF xmlns:dc="http://purl.org/dc/elements/1.1/" xmlns:cc="http://creativecommons.org/ns#" xmlns:rdf="http://www.w3.org/1999/02/22-rdf-syntax-ns#">
   <cc:Work>
    <dc:type rdf:resource="http://purl.org/dc/dcmitype/StillImage"/>
    <dc:date>2025-09-30T20:46:06.193425</dc:date>
    <dc:format>image/svg+xml</dc:format>
    <dc:creator>
     <cc:Agent>
      <dc:title>Matplotlib v3.10.3, https://matplotlib.org/</dc:title>
     </cc:Agent>
    </dc:creator>
   </cc:Work>
  </rdf:RDF>
 </metadata>
 <defs>
  <style type="text/css">*{stroke-linejoin: round; stroke-linecap: butt}</style>
 </defs>
 <g id="figure_1">
  <g id="patch_1">
   <path d="M 0 432 
L 720 432 
L 720 0 
L 0 0 
z
" style="fill: #ffffff"/>
  </g>
  <g id="axes_1">
   <g id="patch_2">
    <path d="M 90 384.48 
L 648 384.48 
L 648 51.84 
L 90 51.84 
z
" style="fill: #ffffff"/>
   </g>
   <g id="matplotlib.axis_1">
    <g id="xtick_1">
     <g id="line2d_1">
      <defs>
       <path id="m7ed91cc442" d="M 0 0 
L 0 3.5 
" style="stroke: #000000; stroke-width: 0.8"/>
      </defs>
      <g>
       <use xlink:href="#m7ed91cc442" x="115.363636" y="384.48" style="stroke: #000000; stroke-width: 0.8"/>
      </g>
     </g>
     <g id="text_1">
      <!-- 0 -->
      <g transform="translate(112.182386 399.078438) scale(0.1 -0.1)">
       <defs>
        <path id="DejaVuSans-30" d="M 2034 4250 
Q 1547 4250 1301 3770 
Q 1056 3291 1056 2328 
Q 1056 1369 1301 889 
Q 1547 409 2034 409 
Q 2525 409 2770 889 
Q 3016 1369 3016 2328 
Q 3016 3291 2770 3770 
Q 2525 4250 2034 4250 
z
M 2034 4750 
Q 2819 4750 3233 4129 
Q 3647 3509 3647 2328 
Q 3647 1150 3233 529 
Q 2819 -91 2034 -91 
Q 1250 -91 836 529 
Q 422 1150 422 2328 
Q 422 3509 836 4129 
Q 1250 4750 2034 4750 
z
" transform="scale(0.015625)"/>
       </defs>
       <use xlink:href="#DejaVuSans-30"/>
      </g>
     </g>
    </g>
    <g id="xtick_2">
     <g id="line2d_2">
      <g>
       <use xlink:href="#m7ed91cc442" x="219.312966" y="384.48" style="stroke: #000000; stroke-width: 0.8"/>
      </g>
     </g>
     <g id="text_2">
      <!-- 500 -->
      <g transform="translate(209.769216 399.078438) scale(0.1 -0.1)">
       <defs>
        <path id="DejaVuSans-35" d="M 691 4666 
L 3169 4666 
L 3169 4134 
L 1269 4134 
L 1269 2991 
Q 1406 3038 1543 3061 
Q 1681 3084 1819 3084 
Q 2600 3084 3056 2656 
Q 3513 2228 3513 1497 
Q 3513 744 3044 326 
Q 2575 -91 1722 -91 
Q 1428 -91 1123 -41 
Q 819 9 494 109 
L 494 744 
Q 775 591 1075 516 
Q 1375 441 1709 441 
Q 2250 441 2565 725 
Q 2881 1009 2881 1497 
Q 2881 1984 2565 2268 
Q 2250 2553 1709 2553 
Q 1456 2553 1204 2497 
Q 953 2441 691 2322 
L 691 4666 
z
" transform="scale(0.015625)"/>
       </defs>
       <use xlink:href="#DejaVuSans-35"/>
       <use xlink:href="#DejaVuSans-30" transform="translate(63.623047 0)"/>
       <use xlink:href="#DejaVuSans-30" transform="translate(127.246094 0)"/>
      </g>
     </g>
    </g>
    <g id="xtick_3">
     <g id="line2d_3">
      <g>
       <use xlink:href="#m7ed91cc442" x="323.262295" y="384.48" style="stroke: #000000; stroke-width: 0.8"/>
      </g>
     </g>
     <g id="text_3">
      <!-- 1000 -->
      <g transform="translate(310.537295 399.078438) scale(0.1 -0.1)">
       <defs>
        <path id="DejaVuSans-31" d="M 794 531 
L 1825 531 
L 1825 4091 
L 703 3866 
L 703 4441 
L 1819 4666 
L 2450 4666 
L 2450 531 
L 3481 531 
L 3481 0 
L 794 0 
L 794 531 
z
" transform="scale(0.015625)"/>
       </defs>
       <use xlink:href="#DejaVuSans-31"/>
       <use xlink:href="#DejaVuSans-30" transform="translate(63.623047 0)"/>
       <use xlink:href="#DejaVuSans-30" transform="translate(127.246094 0)"/>
       <use xlink:href="#DejaVuSans-30" transform="translate(190.869141 0)"/>
      </g>
     </g>
    </g>
    <g id="xtick_4">
     <g id="line2d_4">
      <g>
       <use xlink:href="#m7ed91cc442" x="427.211624" y="384.48" style="stroke: #000000; stroke-width: 0.8"/>
      </g>
     </g>
     <g id="text_4">
      <!-- 1500 -->
      <g transform="translate(414.486624 399.078438) scale(0.1 -0.1)">
       <use xlink:href="#DejaVuSans-31"/>
       <use xlink:href="#DejaVuSans-35" transform="translate(63.623047 0)"/>
       <use xlink:href="#DejaVuSans-30" transform="translate(127.246094 0)"/>
       <use xlink:href="#DejaVuSans-30" transform="translate(190.869141 0)"/>
      </g>
     </g>
    </g>
    <g id="xtick_5">
     <g id="line2d_5">
      <g>
       <use xlink:href="#m7ed91cc442" x="531.160954" y="384.48" style="stroke: #000000; stroke-width: 0.8"/>
      </g>
     </g>
     <g id="text_5">
      <!-- 2000 -->
      <g transform="translate(518.435954 399.078438) scale(0.1 -0.1)">
       <defs>
        <path id="DejaVuSans-32" d="M 1228 531 
L 3431 531 
L 3431 0 
L 469 0 
L 469 531 
Q 828 903 1448 1529 
Q 2069 2156 2228 2338 
Q 2531 2678 2651 2914 
Q 2772 3150 2772 3378 
Q 2772 3750 2511 3984 
Q 2250 4219 1831 4219 
Q 1534 4219 1204 4116 
Q 875 4013 500 3803 
L 500 4441 
Q 881 4594 1212 4672 
Q 1544 4750 1819 4750 
Q 2544 4750 2975 4387 
Q 3406 4025 3406 3419 
Q 3406 3131 3298 2873 
Q 3191 2616 2906 2266 
Q 2828 2175 2409 1742 
Q 1991 1309 1228 531 
z
" transform="scale(0.015625)"/>
       </defs>
       <use xlink:href="#DejaVuSans-32"/>
       <use xlink:href="#DejaVuSans-30" transform="translate(63.623047 0)"/>
       <use xlink:href="#DejaVuSans-30" transform="translate(127.246094 0)"/>
       <use xlink:href="#DejaVuSans-30" transform="translate(190.869141 0)"/>
      </g>
     </g>
    </g>
    <g id="xtick_6">
     <g id="line2d_6">
      <g>
       <use xlink:href="#m7ed91cc442" x="635.110283" y="384.48" style="stroke: #000000; stroke-width: 0.8"/>
      </g>
     </g>
     <g id="text_6">
      <!-- 2500 -->
      <g transform="translate(622.385283 399.078438) scale(0.1 -0.1)">
       <use xlink:href="#DejaVuSans-32"/>
       <use xlink:href="#DejaVuSans-35" transform="translate(63.623047 0)"/>
       <use xlink:href="#DejaVuSans-30" transform="translate(127.246094 0)"/>
       <use xlink:href="#DejaVuSans-30" transform="translate(190.869141 0)"/>
      </g>
     </g>
    </g>
    <g id="text_7">
     <!-- Index -->
     <g transform="translate(355.233594 412.756563) scale(0.1 -0.1)">
      <defs>
       <path id="DejaVuSans-49" d="M 628 4666 
L 1259 4666 
L 1259 0 
L 628 0 
L 628 4666 
z
" transform="scale(0.015625)"/>
       <path id="DejaVuSans-6e" d="M 3513 2113 
L 3513 0 
L 2938 0 
L 2938 2094 
Q 2938 2591 2744 2837 
Q 2550 3084 2163 3084 
Q 1697 3084 1428 2787 
Q 1159 2491 1159 1978 
L 1159 0 
L 581 0 
L 581 3500 
L 1159 3500 
L 1159 2956 
Q 1366 3272 1645 3428 
Q 1925 3584 2291 3584 
Q 2894 3584 3203 3211 
Q 3513 2838 3513 2113 
z
" transform="scale(0.015625)"/>
       <path id="DejaVuSans-64" d="M 2906 2969 
L 2906 4863 
L 3481 4863 
L 3481 0 
L 2906 0 
L 2906 525 
Q 2725 213 2448 61 
Q 2172 -91 1784 -91 
Q 1150 -91 751 415 
Q 353 922 353 1747 
Q 353 2572 751 3078 
Q 1150 3584 1784 3584 
Q 2172 3584 2448 3432 
Q 2725 3281 2906 2969 
z
M 947 1747 
Q 947 1113 1208 752 
Q 1469 391 1925 391 
Q 2381 391 2643 752 
Q 2906 1113 2906 1747 
Q 2906 2381 2643 2742 
Q 2381 3103 1925 3103 
Q 1469 3103 1208 2742 
Q 947 2381 947 1747 
z
" transform="scale(0.015625)"/>
       <path id="DejaVuSans-65" d="M 3597 1894 
L 3597 1613 
L 953 1613 
Q 991 1019 1311 708 
Q 1631 397 2203 397 
Q 2534 397 2845 478 
Q 3156 559 3463 722 
L 3463 178 
Q 3153 47 2828 -22 
Q 2503 -91 2169 -91 
Q 1331 -91 842 396 
Q 353 884 353 1716 
Q 353 2575 817 3079 
Q 1281 3584 2069 3584 
Q 2775 3584 3186 3129 
Q 3597 2675 3597 1894 
z
M 3022 2063 
Q 3016 2534 2758 2815 
Q 2500 3097 2075 3097 
Q 1594 3097 1305 2825 
Q 1016 2553 972 2059 
L 3022 2063 
z
" transform="scale(0.015625)"/>
       <path id="DejaVuSans-78" d="M 3513 3500 
L 2247 1797 
L 3578 0 
L 2900 0 
L 1881 1375 
L 863 0 
L 184 0 
L 1544 1831 
L 300 3500 
L 978 3500 
L 1906 2253 
L 2834 3500 
L 3513 3500 
z
" transform="scale(0.015625)"/>
      </defs>
      <use xlink:href="#DejaVuSans-49"/>
      <use xlink:href="#DejaVuSans-6e" transform="translate(29.492188 0)"/>
      <use xlink:href="#DejaVuSans-64" transform="translate(92.871094 0)"/>
      <use xlink:href="#DejaVuSans-65" transform="translate(156.347656 0)"/>
      <use xlink:href="#DejaVuSans-78" transform="translate(216.121094 0)"/>
     </g>
    </g>
   </g>
   <g id="matplotlib.axis_2">
    <g id="ytick_1">
     <g id="line2d_7">
      <defs>
       <path id="m622c7791fe" d="M 0 0 
L -3.5 0 
" style="stroke: #000000; stroke-width: 0.8"/>
      </defs>
      <g>
       <use xlink:href="#m622c7791fe" x="90" y="369.36" style="stroke: #000000; stroke-width: 0.8"/>
      </g>
     </g>
     <g id="text_8">
      <!-- 0 -->
      <g transform="translate(76.6375 373.159219) scale(0.1 -0.1)">
       <use xlink:href="#DejaVuSans-30"/>
      </g>
     </g>
    </g>
    <g id="ytick_2">
     <g id="line2d_8">
      <g>
       <use xlink:href="#m622c7791fe" x="90" y="323.16385" style="stroke: #000000; stroke-width: 0.8"/>
      </g>
     </g>
     <g id="text_9">
      <!-- 2000 -->
      <g transform="translate(57.55 326.963068) scale(0.1 -0.1)">
       <use xlink:href="#DejaVuSans-32"/>
       <use xlink:href="#DejaVuSans-30" transform="translate(63.623047 0)"/>
       <use xlink:href="#DejaVuSans-30" transform="translate(127.246094 0)"/>
       <use xlink:href="#DejaVuSans-30" transform="translate(190.869141 0)"/>
      </g>
     </g>
    </g>
    <g id="ytick_3">
     <g id="line2d_9">
      <g>
       <use xlink:href="#m622c7791fe" x="90" y="276.967699" style="stroke: #000000; stroke-width: 0.8"/>
      </g>
     </g>
     <g id="text_10">
      <!-- 4000 -->
      <g transform="translate(57.55 280.766918) scale(0.1 -0.1)">
       <defs>
        <path id="DejaVuSans-34" d="M 2419 4116 
L 825 1625 
L 2419 1625 
L 2419 4116 
z
M 2253 4666 
L 3047 4666 
L 3047 1625 
L 3713 1625 
L 3713 1100 
L 3047 1100 
L 3047 0 
L 2419 0 
L 2419 1100 
L 313 1100 
L 313 1709 
L 2253 4666 
z
" transform="scale(0.015625)"/>
       </defs>
       <use xlink:href="#DejaVuSans-34"/>
       <use xlink:href="#DejaVuSans-30" transform="translate(63.623047 0)"/>
       <use xlink:href="#DejaVuSans-30" transform="translate(127.246094 0)"/>
       <use xlink:href="#DejaVuSans-30" transform="translate(190.869141 0)"/>
      </g>
     </g>
    </g>
    <g id="ytick_4">
     <g id="line2d_10">
      <g>
       <use xlink:href="#m622c7791fe" x="90" y="230.771549" style="stroke: #000000; stroke-width: 0.8"/>
      </g>
     </g>
     <g id="text_11">
      <!-- 6000 -->
      <g transform="translate(57.55 234.570768) scale(0.1 -0.1)">
       <defs>
        <path id="DejaVuSans-36" d="M 2113 2584 
Q 1688 2584 1439 2293 
Q 1191 2003 1191 1497 
Q 1191 994 1439 701 
Q 1688 409 2113 409 
Q 2538 409 2786 701 
Q 3034 994 3034 1497 
Q 3034 2003 2786 2293 
Q 2538 2584 2113 2584 
z
M 3366 4563 
L 3366 3988 
Q 3128 4100 2886 4159 
Q 2644 4219 2406 4219 
Q 1781 4219 1451 3797 
Q 1122 3375 1075 2522 
Q 1259 2794 1537 2939 
Q 1816 3084 2150 3084 
Q 2853 3084 3261 2657 
Q 3669 2231 3669 1497 
Q 3669 778 3244 343 
Q 2819 -91 2113 -91 
Q 1303 -91 875 529 
Q 447 1150 447 2328 
Q 447 3434 972 4092 
Q 1497 4750 2381 4750 
Q 2619 4750 2861 4703 
Q 3103 4656 3366 4563 
z
" transform="scale(0.015625)"/>
       </defs>
       <use xlink:href="#DejaVuSans-36"/>
       <use xlink:href="#DejaVuSans-30" transform="translate(63.623047 0)"/>
       <use xlink:href="#DejaVuSans-30" transform="translate(127.246094 0)"/>
       <use xlink:href="#DejaVuSans-30" transform="translate(190.869141 0)"/>
      </g>
     </g>
    </g>
    <g id="ytick_5">
     <g id="line2d_11">
      <g>
       <use xlink:href="#m622c7791fe" x="90" y="184.575399" style="stroke: #000000; stroke-width: 0.8"/>
      </g>
     </g>
     <g id="text_12">
      <!-- 8000 -->
      <g transform="translate(57.55 188.374617) scale(0.1 -0.1)">
       <defs>
        <path id="DejaVuSans-38" d="M 2034 2216 
Q 1584 2216 1326 1975 
Q 1069 1734 1069 1313 
Q 1069 891 1326 650 
Q 1584 409 2034 409 
Q 2484 409 2743 651 
Q 3003 894 3003 1313 
Q 3003 1734 2745 1975 
Q 2488 2216 2034 2216 
z
M 1403 2484 
Q 997 2584 770 2862 
Q 544 3141 544 3541 
Q 544 4100 942 4425 
Q 1341 4750 2034 4750 
Q 2731 4750 3128 4425 
Q 3525 4100 3525 3541 
Q 3525 3141 3298 2862 
Q 3072 2584 2669 2484 
Q 3125 2378 3379 2068 
Q 3634 1759 3634 1313 
Q 3634 634 3220 271 
Q 2806 -91 2034 -91 
Q 1263 -91 848 271 
Q 434 634 434 1313 
Q 434 1759 690 2068 
Q 947 2378 1403 2484 
z
M 1172 3481 
Q 1172 3119 1398 2916 
Q 1625 2713 2034 2713 
Q 2441 2713 2670 2916 
Q 2900 3119 2900 3481 
Q 2900 3844 2670 4047 
Q 2441 4250 2034 4250 
Q 1625 4250 1398 4047 
Q 1172 3844 1172 3481 
z
" transform="scale(0.015625)"/>
       </defs>
       <use xlink:href="#DejaVuSans-38"/>
       <use xlink:href="#DejaVuSans-30" transform="translate(63.623047 0)"/>
       <use xlink:href="#DejaVuSans-30" transform="translate(127.246094 0)"/>
       <use xlink:href="#DejaVuSans-30" transform="translate(190.869141 0)"/>
      </g>
     </g>
    </g>
    <g id="ytick_6">
     <g id="line2d_12">
      <g>
       <use xlink:href="#m622c7791fe" x="90" y="138.379248" style="stroke: #000000; stroke-width: 0.8"/>
      </g>
     </g>
     <g id="text_13">
      <!-- 10000 -->
      <g transform="translate(51.1875 142.178467) scale(0.1 -0.1)">
       <use xlink:href="#DejaVuSans-31"/>
       <use xlink:href="#DejaVuSans-30" transform="translate(63.623047 0)"/>
       <use xlink:href="#DejaVuSans-30" transform="translate(127.246094 0)"/>
       <use xlink:href="#DejaVuSans-30" transform="translate(190.869141 0)"/>
       <use xlink:href="#DejaVuSans-30" transform="translate(254.492188 0)"/>
      </g>
     </g>
    </g>
    <g id="ytick_7">
     <g id="line2d_13">
      <g>
       <use xlink:href="#m622c7791fe" x="90" y="92.183098" style="stroke: #000000; stroke-width: 0.8"/>
      </g>
     </g>
     <g id="text_14">
      <!-- 12000 -->
      <g transform="translate(51.1875 95.982317) scale(0.1 -0.1)">
       <use xlink:href="#DejaVuSans-31"/>
       <use xlink:href="#DejaVuSans-32" transform="translate(63.623047 0)"/>
       <use xlink:href="#DejaVuSans-30" transform="translate(127.246094 0)"/>
       <use xlink:href="#DejaVuSans-30" transform="translate(190.869141 0)"/>
       <use xlink:href="#DejaVuSans-30" transform="translate(254.492188 0)"/>
      </g>
     </g>
    </g>
    <g id="text_15">
     <!-- Queue Size -->
     <g transform="translate(45.107812 246.439687) rotate(-90) scale(0.1 -0.1)">
      <defs>
       <path id="DejaVuSans-51" d="M 2522 4238 
Q 1834 4238 1429 3725 
Q 1025 3213 1025 2328 
Q 1025 1447 1429 934 
Q 1834 422 2522 422 
Q 3209 422 3611 934 
Q 4013 1447 4013 2328 
Q 4013 3213 3611 3725 
Q 3209 4238 2522 4238 
z
M 3406 84 
L 4238 -825 
L 3475 -825 
L 2784 -78 
Q 2681 -84 2626 -87 
Q 2572 -91 2522 -91 
Q 1538 -91 948 567 
Q 359 1225 359 2328 
Q 359 3434 948 4092 
Q 1538 4750 2522 4750 
Q 3503 4750 4090 4092 
Q 4678 3434 4678 2328 
Q 4678 1516 4351 937 
Q 4025 359 3406 84 
z
" transform="scale(0.015625)"/>
       <path id="DejaVuSans-75" d="M 544 1381 
L 544 3500 
L 1119 3500 
L 1119 1403 
Q 1119 906 1312 657 
Q 1506 409 1894 409 
Q 2359 409 2629 706 
Q 2900 1003 2900 1516 
L 2900 3500 
L 3475 3500 
L 3475 0 
L 2900 0 
L 2900 538 
Q 2691 219 2414 64 
Q 2138 -91 1772 -91 
Q 1169 -91 856 284 
Q 544 659 544 1381 
z
M 1991 3584 
L 1991 3584 
z
" transform="scale(0.015625)"/>
       <path id="DejaVuSans-20" transform="scale(0.015625)"/>
       <path id="DejaVuSans-53" d="M 3425 4513 
L 3425 3897 
Q 3066 4069 2747 4153 
Q 2428 4238 2131 4238 
Q 1616 4238 1336 4038 
Q 1056 3838 1056 3469 
Q 1056 3159 1242 3001 
Q 1428 2844 1947 2747 
L 2328 2669 
Q 3034 2534 3370 2195 
Q 3706 1856 3706 1288 
Q 3706 609 3251 259 
Q 2797 -91 1919 -91 
Q 1588 -91 1214 -16 
Q 841 59 441 206 
L 441 856 
Q 825 641 1194 531 
Q 1563 422 1919 422 
Q 2459 422 2753 634 
Q 3047 847 3047 1241 
Q 3047 1584 2836 1778 
Q 2625 1972 2144 2069 
L 1759 2144 
Q 1053 2284 737 2584 
Q 422 2884 422 3419 
Q 422 4038 858 4394 
Q 1294 4750 2059 4750 
Q 2388 4750 2728 4690 
Q 3069 4631 3425 4513 
z
" transform="scale(0.015625)"/>
       <path id="DejaVuSans-69" d="M 603 3500 
L 1178 3500 
L 1178 0 
L 603 0 
L 603 3500 
z
M 603 4863 
L 1178 4863 
L 1178 4134 
L 603 4134 
L 603 4863 
z
" transform="scale(0.015625)"/>
       <path id="DejaVuSans-7a" d="M 353 3500 
L 3084 3500 
L 3084 2975 
L 922 459 
L 3084 459 
L 3084 0 
L 275 0 
L 275 525 
L 2438 3041 
L 353 3041 
L 353 3500 
z
" transform="scale(0.015625)"/>
      </defs>
      <use xlink:href="#DejaVuSans-51"/>
      <use xlink:href="#DejaVuSans-75" transform="translate(78.710938 0)"/>
      <use xlink:href="#DejaVuSans-65" transform="translate(142.089844 0)"/>
      <use xlink:href="#DejaVuSans-75" transform="translate(203.613281 0)"/>
      <use xlink:href="#DejaVuSans-65" transform="translate(266.992188 0)"/>
      <use xlink:href="#DejaVuSans-20" transform="translate(328.515625 0)"/>
      <use xlink:href="#DejaVuSans-53" transform="translate(360.302734 0)"/>
      <use xlink:href="#DejaVuSans-69" transform="translate(423.779297 0)"/>
      <use xlink:href="#DejaVuSans-7a" transform="translate(451.5625 0)"/>
      <use xlink:href="#DejaVuSans-65" transform="translate(504.052734 0)"/>
     </g>
    </g>
   </g>
   <g id="line2d_14">
    <path d="M 115.363636 368.828744 
L 116.195231 368.921137 
L 117.026826 366.796114 
L 117.85842 366.149368 
L 119.105812 363.700972 
L 119.52161 363.008029 
L 120.353204 363.192814 
L 121.184799 361.43736 
L 122.224292 360.998497 
L 122.847988 360.513437 
L 124.09538 358.065041 
L 125.134873 356.147901 
L 125.342772 355.709038 
L 126.382265 355.270174 
L 127.005961 354.785115 
L 128.253353 352.336719 
L 129.292846 350.419578 
L 129.500745 349.980715 
L 130.540238 349.541852 
L 131.163934 349.056792 
L 132.411326 346.608396 
L 133.45082 344.691256 
L 133.658718 344.252392 
L 134.698212 343.813529 
L 135.321908 343.328469 
L 136.5693 340.880073 
L 136.777198 340.533602 
L 136.985097 341.203446 
L 138.232489 338.75505 
L 138.440387 338.408579 
L 138.648286 338.339285 
L 139.895678 335.890889 
L 140.103577 335.544418 
L 140.311475 335.475124 
L 141.558867 333.026728 
L 141.766766 332.680257 
L 141.974665 332.610962 
L 143.222057 330.162566 
L 143.429955 329.816095 
L 143.637854 331.040293 
L 144.677347 330.60143 
L 145.301043 330.11637 
L 146.548435 327.667974 
L 146.964232 327.067424 
L 148.003726 326.628561 
L 148.627422 326.143501 
L 149.874814 323.695105 
L 150.290611 323.094555 
L 151.330104 322.655692 
L 151.9538 322.170632 
L 153.201192 319.722236 
L 153.61699 319.121687 
L 154.656483 318.682823 
L 155.280179 318.197764 
L 156.527571 315.749368 
L 156.735469 315.402896 
L 156.943368 316.44231 
L 158.19076 314.548268 
L 158.398659 314.294189 
L 158.606557 314.317287 
L 159.853949 312.423245 
L 160.061848 312.169166 
L 160.269747 312.192264 
L 161.517139 310.298222 
L 161.725037 310.044143 
L 161.932936 310.067241 
L 163.180328 308.173199 
L 163.388227 307.91912 
L 163.596125 309.23571 
L 164.635618 308.796847 
L 165.259314 308.311787 
L 166.506706 305.863391 
L 166.922504 305.262841 
L 167.961997 304.823978 
L 168.585693 304.338918 
L 169.833085 301.890522 
L 170.248882 301.289973 
L 171.288376 300.851109 
L 171.912072 300.366049 
L 173.159463 297.917654 
L 173.575261 297.317104 
L 174.614754 296.87824 
L 175.23845 296.393181 
L 176.485842 293.944785 
L 176.693741 293.598313 
L 176.901639 294.637727 
L 178.149031 292.743685 
L 178.35693 292.489606 
L 178.564829 292.512704 
L 179.812221 290.618662 
L 180.020119 290.364583 
L 180.228018 290.387681 
L 181.47541 288.493639 
L 181.683308 288.23956 
L 181.891207 288.262658 
L 183.138599 286.368616 
L 183.346498 286.114537 
L 183.554396 287.431127 
L 184.59389 286.992264 
L 185.217586 286.507204 
L 186.464978 284.058808 
L 186.880775 283.458258 
L 187.920268 283.019395 
L 188.543964 282.534335 
L 189.791356 280.08594 
L 190.207154 279.48539 
L 191.246647 279.046526 
L 191.870343 278.561467 
L 193.117735 276.113071 
L 193.533532 275.512521 
L 194.573025 275.073657 
L 195.196721 274.588598 
L 196.444113 272.140202 
L 196.652012 271.793731 
L 196.859911 272.833144 
L 198.107303 270.939102 
L 198.315201 270.685023 
L 198.5231 270.708121 
L 199.770492 268.814079 
L 199.97839 268.56 
L 200.186289 268.583098 
L 201.433681 266.689056 
L 201.64158 266.434977 
L 201.849478 266.458075 
L 203.09687 264.564033 
L 203.304769 264.309954 
L 203.512668 265.626544 
L 204.552161 265.187681 
L 205.175857 264.702621 
L 206.423249 262.254225 
L 206.839046 261.653676 
L 207.878539 261.214812 
L 208.502235 260.729753 
L 209.749627 258.281357 
L 210.165425 257.680807 
L 211.204918 257.241943 
L 211.828614 256.756884 
L 213.076006 254.308488 
L 213.491803 253.707938 
L 214.531297 253.269074 
L 215.154993 252.784015 
L 216.402385 250.335619 
L 216.610283 249.989148 
L 216.818182 251.028561 
L 218.065574 249.134519 
L 218.273472 248.88044 
L 218.481371 248.903538 
L 219.728763 247.009496 
L 219.936662 246.755417 
L 220.14456 246.778515 
L 221.391952 244.884473 
L 221.599851 244.630394 
L 221.80775 244.653492 
L 223.055142 242.75945 
L 223.26304 242.505371 
L 223.470939 244.006746 
L 224.510432 242.64396 
L 224.92623 241.951017 
L 225.134128 241.881723 
L 226.173621 240.518937 
L 226.589419 239.825995 
L 226.797317 239.7567 
L 227.836811 238.393914 
L 228.252608 237.700972 
L 228.460507 237.631677 
L 229.5 236.268891 
L 229.915797 235.575949 
L 230.123696 236.984931 
L 231.163189 235.622145 
L 231.578987 234.929203 
L 231.786885 234.859908 
L 232.826379 233.497122 
L 233.242176 232.80418 
L 233.450075 232.734885 
L 234.489568 231.372099 
L 234.905365 230.679157 
L 235.113264 230.609863 
L 236.152757 229.247076 
L 236.568554 228.554134 
L 236.776453 229.963116 
L 237.815946 228.60033 
L 238.231744 227.907388 
L 238.439642 227.838093 
L 239.479136 226.475307 
L 239.894933 225.782365 
L 240.102832 225.713071 
L 241.142325 224.350284 
L 241.558122 223.657342 
L 241.766021 223.588048 
L 242.805514 222.225261 
L 243.221311 221.532319 
L 243.42921 222.941302 
L 244.468703 221.578515 
L 244.884501 220.885573 
L 245.092399 220.816279 
L 246.131893 219.453492 
L 246.54769 218.76055 
L 246.755589 218.691256 
L 247.795082 217.328469 
L 248.210879 216.635527 
L 248.418778 216.566233 
L 249.458271 215.203446 
L 249.874069 214.510504 
L 250.081967 217.028194 
L 251.329359 215.134152 
L 251.537258 214.880073 
L 251.745156 214.903171 
L 252.992548 213.009129 
L 253.200447 212.75505 
L 253.408346 212.778148 
L 254.655738 210.884106 
L 254.863636 210.630027 
L 255.071535 210.653126 
L 256.318927 208.759083 
L 256.526826 208.505005 
L 256.734724 211.115087 
L 257.982116 209.221045 
L 258.190015 208.966966 
L 258.397914 208.990064 
L 259.645306 207.096022 
L 259.853204 206.841943 
L 260.061103 206.865041 
L 261.308495 204.970999 
L 261.516393 204.71692 
L 261.724292 204.740018 
L 262.971684 202.845976 
L 263.179583 202.591897 
L 263.387481 205.20198 
L 264.634873 203.307938 
L 264.842772 203.053859 
L 265.050671 203.076957 
L 266.298063 201.182915 
L 266.505961 200.928836 
L 266.71386 200.951934 
L 267.961252 199.057892 
L 268.169151 198.803813 
L 268.377049 198.826911 
L 269.624441 196.932869 
L 269.83234 196.67879 
L 270.040238 199.288873 
L 271.28763 197.39483 
L 271.495529 197.140752 
L 271.703428 197.16385 
L 272.95082 195.269808 
L 273.158718 195.015729 
L 273.366617 195.038827 
L 274.614009 193.144785 
L 274.821908 192.890706 
L 275.029806 192.913804 
L 276.277198 191.019762 
L 276.485097 190.765683 
L 276.692996 192.267058 
L 277.316692 191.504821 
L 277.52459 191.527919 
L 278.148286 190.765683 
L 278.356185 190.788781 
L 278.979881 190.026544 
L 279.187779 190.049643 
L 279.811475 189.287406 
L 280.019374 190.419212 
L 280.64307 189.656975 
L 280.850969 189.680073 
L 281.474665 188.917837 
L 281.682563 188.940935 
L 282.306259 188.178698 
L 282.514158 188.201797 
L 283.137854 187.43956 
L 283.345753 188.571366 
L 283.969449 187.809129 
L 284.177347 187.832227 
L 284.801043 187.069991 
L 285.008942 187.093089 
L 285.632638 186.330852 
L 285.840537 186.353951 
L 286.464232 185.591714 
L 286.672131 186.72352 
L 287.295827 185.961283 
L 287.503726 185.984381 
L 288.127422 185.222145 
L 288.33532 185.245243 
L 288.959016 184.483006 
L 289.166915 184.506104 
L 289.790611 183.743868 
L 289.99851 185.984381 
L 291.245902 184.090339 
L 291.4538 183.83626 
L 291.661699 183.859358 
L 292.909091 181.965316 
L 293.11699 181.711237 
L 293.324888 181.734335 
L 294.57228 179.840293 
L 294.780179 179.586214 
L 294.988077 179.609313 
L 296.235469 177.71527 
L 296.443368 177.461192 
L 296.651267 180.071274 
L 297.898659 178.177232 
L 298.106557 177.923153 
L 298.314456 177.946251 
L 299.561848 176.052209 
L 299.769747 175.79813 
L 299.977645 175.821228 
L 301.225037 173.927186 
L 301.432936 173.673107 
L 301.640835 173.696205 
L 302.888227 171.802163 
L 303.096125 171.548084 
L 303.304024 174.158167 
L 304.551416 172.264125 
L 304.759314 172.010046 
L 304.967213 172.033144 
L 306.214605 170.139102 
L 306.422504 169.885023 
L 306.630402 169.908121 
L 307.877794 168.014079 
L 308.085693 167.76 
L 308.293592 167.783098 
L 309.540984 165.889056 
L 309.748882 165.634977 
L 309.956781 168.24506 
L 311.204173 166.351017 
L 311.412072 166.096939 
L 311.61997 166.120037 
L 312.867362 164.225995 
L 313.075261 163.971916 
L 313.283159 163.995014 
L 314.530551 162.100972 
L 314.73845 161.846893 
L 314.946349 161.869991 
L 316.193741 159.975949 
L 316.401639 159.72187 
L 316.609538 161.223245 
L 317.233234 160.461008 
L 317.441133 160.484106 
L 318.064829 159.72187 
L 318.272727 159.744968 
L 318.896423 158.982731 
L 319.104322 159.00583 
L 319.728018 158.243593 
L 319.935917 159.375399 
L 320.559613 158.613162 
L 320.767511 158.63626 
L 321.391207 157.874024 
L 321.599106 157.897122 
L 322.222802 157.134885 
L 322.4307 157.157984 
L 323.054396 156.395747 
L 323.262295 157.527553 
L 323.885991 156.765316 
L 324.09389 156.788414 
L 324.717586 156.026178 
L 324.925484 156.049276 
L 325.54918 155.287039 
L 325.757079 155.310137 
L 326.380775 154.547901 
L 326.588674 155.679707 
L 327.21237 154.91747 
L 327.420268 154.940568 
L 328.043964 154.178332 
L 328.251863 154.20143 
L 328.875559 153.439193 
L 329.083458 153.462291 
L 329.707154 152.700055 
L 329.915052 154.940568 
L 331.162444 153.046526 
L 331.370343 152.792447 
L 331.578241 152.815545 
L 332.825633 150.921503 
L 333.033532 150.667424 
L 333.241431 150.690522 
L 334.488823 148.79648 
L 334.696721 148.542401 
L 334.90462 148.5655 
L 336.152012 146.671457 
L 336.359911 146.417379 
L 336.567809 149.027461 
L 337.815201 147.133419 
L 338.0231 146.87934 
L 338.230999 146.902438 
L 339.47839 145.008396 
L 339.686289 144.754317 
L 339.894188 144.777415 
L 341.14158 142.883373 
L 341.349478 142.629294 
L 341.557377 142.652392 
L 342.804769 140.75835 
L 343.012668 140.504271 
L 343.220566 143.114354 
L 344.467958 141.220312 
L 344.675857 140.966233 
L 344.883756 140.989331 
L 346.131148 139.095289 
L 346.339046 138.84121 
L 346.546945 138.864308 
L 347.794337 136.970266 
L 348.002235 136.716187 
L 348.210134 136.739285 
L 349.457526 134.845243 
L 349.665425 134.591164 
L 349.873323 137.201247 
L 351.120715 135.307204 
L 351.328614 135.053126 
L 351.536513 135.076224 
L 352.783905 133.182181 
L 352.991803 132.928103 
L 353.199702 132.951201 
L 354.447094 131.057159 
L 354.654993 130.80308 
L 354.862891 130.826178 
L 356.110283 128.932136 
L 356.318182 128.678057 
L 356.52608 130.179432 
L 357.149776 129.417195 
L 357.357675 129.440293 
L 357.981371 128.678057 
L 358.18927 128.701155 
L 358.812966 127.938918 
L 359.020864 127.962016 
L 359.64456 127.19978 
L 359.852459 128.331586 
L 360.476155 127.569349 
L 360.684054 127.592447 
L 361.30775 126.830211 
L 361.515648 126.853309 
L 362.139344 126.091072 
L 362.347243 126.11417 
L 362.970939 125.351934 
L 363.178838 126.48374 
L 363.802534 125.721503 
L 364.010432 125.744601 
L 364.634128 124.982365 
L 364.842027 125.005463 
L 365.465723 124.243226 
L 365.673621 124.266324 
L 366.297317 123.504088 
L 366.505216 124.635894 
L 367.128912 123.873657 
L 367.336811 123.896755 
L 367.960507 123.134519 
L 368.168405 123.157617 
L 368.792101 122.39538 
L 369 122.418478 
L 369.623696 121.656242 
L 369.831595 123.896755 
L 371.078987 122.002713 
L 371.286885 121.748634 
L 371.494784 121.771732 
L 372.742176 119.87769 
L 372.950075 119.623611 
L 373.157973 119.646709 
L 374.405365 117.752667 
L 374.613264 117.498588 
L 374.821162 117.521687 
L 376.068554 115.627644 
L 376.276453 115.373566 
L 376.484352 117.983648 
L 377.731744 116.089606 
L 377.939642 115.835527 
L 378.147541 115.858625 
L 379.394933 113.964583 
L 379.602832 113.710504 
L 379.81073 113.733602 
L 381.058122 111.83956 
L 381.266021 111.585481 
L 381.47392 111.608579 
L 382.721311 109.714537 
L 382.92921 109.460458 
L 383.137109 112.070541 
L 384.384501 110.176499 
L 384.592399 109.92242 
L 384.800298 109.945518 
L 386.04769 108.051476 
L 386.255589 107.797397 
L 386.463487 107.820495 
L 387.710879 105.926453 
L 387.918778 105.672374 
L 388.126677 105.695472 
L 389.374069 103.80143 
L 389.581967 103.547351 
L 389.789866 106.157434 
L 391.037258 104.263391 
L 391.245156 104.009313 
L 391.453055 104.032411 
L 392.700447 102.138368 
L 392.908346 101.88429 
L 393.116244 101.907388 
L 394.363636 100.013346 
L 394.571535 99.759267 
L 394.779434 99.782365 
L 396.026826 97.888323 
L 396.234724 97.634244 
L 396.442623 99.135619 
L 397.066319 98.373382 
L 397.274218 98.39648 
L 397.897914 97.634244 
L 398.105812 97.657342 
L 398.729508 96.895105 
L 398.937407 96.918203 
L 399.561103 96.155967 
L 399.769001 97.287773 
L 400.392697 96.525536 
L 400.600596 96.548634 
L 401.224292 95.786398 
L 401.432191 95.809496 
L 402.055887 95.047259 
L 402.263785 95.070357 
L 402.887481 94.308121 
L 403.09538 95.439927 
L 403.719076 94.67769 
L 403.926975 94.700788 
L 404.550671 93.938552 
L 404.758569 93.96165 
L 405.382265 93.199413 
L 405.590164 93.222511 
L 406.21386 92.460275 
L 406.421759 93.592081 
L 407.045455 92.829844 
L 407.253353 92.852942 
L 407.877049 92.090706 
L 408.084948 92.113804 
L 408.708644 91.351567 
L 408.916542 91.374665 
L 409.540238 90.612429 
L 409.748137 133.135985 
L 410.371833 132.373749 
L 410.579732 132.396847 
L 411.203428 131.63461 
L 411.411326 131.657709 
L 412.035022 130.895472 
L 412.242921 130.91857 
L 412.866617 130.156334 
L 413.074516 131.288139 
L 413.698212 130.525903 
L 413.90611 130.549001 
L 414.529806 129.786764 
L 414.737705 129.809863 
L 415.361401 129.047626 
L 415.5693 129.070724 
L 416.192996 128.308488 
L 416.400894 129.440293 
L 417.02459 128.678057 
L 417.232489 128.701155 
L 417.856185 127.938918 
L 418.064083 127.962016 
L 418.687779 127.19978 
L 418.895678 127.222878 
L 419.519374 126.460642 
L 419.727273 127.592447 
L 420.350969 126.830211 
L 420.558867 126.853309 
L 421.182563 126.091072 
L 421.390462 126.11417 
L 422.014158 125.351934 
L 422.222057 125.375032 
L 422.845753 124.612796 
L 423.053651 125.744601 
L 423.677347 124.982365 
L 423.885246 125.005463 
L 424.508942 124.243226 
L 424.716841 124.266324 
L 425.340537 123.504088 
L 425.548435 123.527186 
L 426.172131 122.76495 
L 426.38003 123.896755 
L 427.003726 123.134519 
L 427.211624 123.157617 
L 427.83532 122.39538 
L 428.043219 122.418478 
L 428.666915 121.656242 
L 428.874814 121.67934 
L 429.49851 120.917104 
L 429.706408 122.048909 
L 430.330104 121.286673 
L 430.538003 121.309771 
L 431.161699 120.547534 
L 431.369598 120.570632 
L 431.993294 119.808396 
L 432.201192 119.831494 
L 432.824888 119.069258 
L 433.032787 120.201063 
L 433.656483 119.438827 
L 433.864382 119.461925 
L 434.488077 118.699688 
L 434.695976 118.722786 
L 435.319672 117.96055 
L 435.527571 117.983648 
L 436.151267 117.221412 
L 436.359165 118.353217 
L 436.982861 117.590981 
L 437.19076 117.614079 
L 437.814456 116.851842 
L 438.022355 116.87494 
L 438.646051 116.112704 
L 438.853949 116.135802 
L 439.477645 115.373566 
L 439.685544 116.505371 
L 440.30924 115.743135 
L 440.517139 115.766233 
L 441.140835 115.003996 
L 441.348733 115.027094 
L 441.972429 114.264858 
L 442.180328 114.287956 
L 442.804024 113.52572 
L 443.011923 114.657525 
L 443.635618 113.895289 
L 443.843517 113.918387 
L 444.467213 113.15615 
L 444.675112 113.179248 
L 445.298808 112.417012 
L 445.506706 112.44011 
L 446.130402 111.677874 
L 446.338301 112.809679 
L 446.961997 112.047443 
L 447.169896 112.070541 
L 447.793592 111.308304 
L 448.00149 111.331402 
L 448.625186 110.569166 
L 448.833085 110.592264 
L 449.456781 109.830027 
L 449.66468 110.961833 
L 450.288376 110.199597 
L 450.496274 110.222695 
L 451.11997 109.460458 
L 451.327869 109.483556 
L 451.951565 108.72132 
L 452.159463 108.744418 
L 452.783159 107.982181 
L 452.991058 109.113987 
L 453.614754 108.351751 
L 453.822653 108.374849 
L 454.446349 107.612612 
L 454.654247 107.63571 
L 455.277943 106.873474 
L 455.485842 106.896572 
L 456.109538 106.134335 
L 456.317437 107.266141 
L 456.941133 106.503905 
L 457.149031 106.527003 
L 457.772727 105.764766 
L 457.980626 105.787864 
L 458.604322 105.025628 
L 458.812221 105.048726 
L 459.435917 104.286489 
L 459.643815 105.418295 
L 460.267511 104.656059 
L 460.47541 104.679157 
L 461.099106 103.91692 
L 461.307004 103.940018 
L 461.9307 103.177782 
L 462.138599 103.20088 
L 462.762295 102.438643 
L 462.970194 121.309771 
L 463.59389 120.547534 
L 463.801788 120.570632 
L 464.425484 119.808396 
L 464.633383 119.831494 
L 465.257079 119.069258 
L 465.464978 119.092356 
L 466.088674 118.330119 
L 466.296572 119.461925 
L 466.920268 118.699688 
L 467.128167 118.722786 
L 467.751863 117.96055 
L 467.959762 117.983648 
L 468.583458 117.221412 
L 468.791356 117.24451 
L 469.415052 116.482273 
L 469.622951 117.614079 
L 470.246647 116.851842 
L 470.454545 116.87494 
L 471.078241 116.112704 
L 471.28614 116.135802 
L 471.909836 115.373566 
L 472.117735 115.396664 
L 472.741431 114.634427 
L 472.949329 115.766233 
L 473.573025 115.003996 
L 473.780924 115.027094 
L 474.40462 114.264858 
L 474.612519 114.287956 
L 475.236215 113.52572 
L 475.444113 113.548818 
L 476.067809 112.786581 
L 476.275708 113.918387 
L 476.899404 113.15615 
L 477.107303 113.179248 
L 477.730999 112.417012 
L 477.938897 112.44011 
L 478.562593 111.677874 
L 478.770492 111.700972 
L 479.394188 110.938735 
L 479.602086 112.070541 
L 480.225782 111.308304 
L 480.433681 111.331402 
L 481.057377 110.569166 
L 481.265276 110.592264 
L 481.888972 109.830027 
L 482.09687 109.853126 
L 482.720566 109.090889 
L 482.928465 110.222695 
L 483.552161 109.460458 
L 483.76006 109.483556 
L 484.383756 108.72132 
L 484.591654 108.744418 
L 485.21535 107.982181 
L 485.423249 108.00528 
L 486.046945 107.243043 
L 486.254844 108.374849 
L 486.878539 107.612612 
L 487.086438 107.63571 
L 487.710134 106.873474 
L 487.918033 106.896572 
L 488.541729 106.134335 
L 488.749627 106.157434 
L 489.373323 105.395197 
L 489.581222 106.527003 
L 490.204918 105.764766 
L 490.412817 105.787864 
L 491.036513 105.025628 
L 491.244411 105.048726 
L 491.868107 104.286489 
L 492.076006 104.309588 
L 492.699702 103.547351 
L 492.907601 104.679157 
L 493.531297 103.91692 
L 493.739195 103.940018 
L 494.362891 103.177782 
L 494.57079 103.20088 
L 495.194486 102.438643 
L 495.402385 102.461742 
L 496.02608 101.699505 
L 496.233979 102.831311 
L 496.857675 102.069074 
L 497.065574 102.092172 
L 497.68927 101.329936 
L 497.897168 101.353034 
L 498.520864 100.590797 
L 498.728763 100.613896 
L 499.352459 99.851659 
L 499.560358 100.983465 
L 500.184054 100.221228 
L 500.391952 100.244326 
L 501.015648 99.48209 
L 501.223547 99.505188 
L 501.847243 98.742951 
L 502.055142 98.766049 
L 502.678838 98.003813 
L 502.886736 99.135619 
L 503.510432 98.373382 
L 503.718331 98.39648 
L 504.342027 97.634244 
L 504.549925 97.657342 
L 505.173621 96.895105 
L 505.38152 96.918203 
L 506.005216 96.155967 
L 506.213115 97.287773 
L 506.836811 96.525536 
L 507.044709 96.548634 
L 507.668405 95.786398 
L 507.876304 95.809496 
L 508.5 95.047259 
L 508.707899 95.070357 
L 509.331595 94.308121 
L 509.539493 95.439927 
L 510.163189 94.67769 
L 510.371088 94.700788 
L 510.994784 93.938552 
L 511.202683 93.96165 
L 511.826379 93.199413 
L 512.034277 93.222511 
L 512.657973 92.460275 
L 512.865872 93.592081 
L 513.489568 92.829844 
L 513.697466 92.852942 
L 514.321162 92.090706 
L 514.529061 92.113804 
L 515.152757 91.351567 
L 515.360656 91.374665 
L 515.984352 90.612429 
L 516.19225 109.483556 
L 516.815946 108.72132 
L 517.023845 108.744418 
L 517.647541 107.982181 
L 517.85544 108.00528 
L 518.479136 107.243043 
L 518.687034 107.266141 
L 519.31073 106.503905 
L 519.518629 107.63571 
L 520.142325 106.873474 
L 520.350224 106.896572 
L 520.97392 106.134335 
L 521.181818 106.157434 
L 521.805514 105.395197 
L 522.013413 105.418295 
L 522.637109 104.656059 
L 522.845007 105.787864 
L 523.468703 105.025628 
L 523.676602 105.048726 
L 524.300298 104.286489 
L 524.508197 104.309588 
L 525.131893 103.547351 
L 525.339791 103.570449 
L 525.963487 102.808213 
L 526.171386 103.940018 
L 526.795082 103.177782 
L 527.002981 103.20088 
L 527.626677 102.438643 
L 527.834575 102.461742 
L 528.458271 101.699505 
L 528.66617 101.722603 
L 529.289866 100.960367 
L 529.497765 102.092172 
L 530.121461 101.329936 
L 530.329359 101.353034 
L 530.953055 100.590797 
L 531.160954 100.613896 
L 531.78465 99.851659 
L 531.992548 99.874757 
L 532.616244 99.112521 
L 532.824143 100.244326 
L 533.447839 99.48209 
L 533.655738 99.505188 
L 534.279434 98.742951 
L 534.487332 98.766049 
L 535.111028 98.003813 
L 535.318927 98.026911 
L 535.942623 97.264675 
L 536.150522 98.39648 
L 536.774218 97.634244 
L 536.982116 97.657342 
L 537.605812 96.895105 
L 537.813711 96.918203 
L 538.437407 96.155967 
L 538.645306 96.179065 
L 539.269001 95.416829 
L 539.4769 96.548634 
L 540.100596 95.786398 
L 540.308495 95.809496 
L 540.932191 95.047259 
L 541.140089 95.070357 
L 541.763785 94.308121 
L 541.971684 94.331219 
L 542.59538 93.568983 
L 542.803279 94.700788 
L 543.426975 93.938552 
L 543.634873 93.96165 
L 544.258569 93.199413 
L 544.466468 93.222511 
L 545.090164 92.460275 
L 545.298063 92.483373 
L 545.921759 91.721137 
L 546.129657 92.852942 
L 546.753353 92.090706 
L 546.961252 92.113804 
L 547.584948 91.351567 
L 547.792846 91.374665 
L 548.416542 90.612429 
L 548.624441 90.635527 
L 549.248137 89.873291 
L 549.456036 91.005096 
L 550.079732 90.24286 
L 550.28763 90.265958 
L 550.911326 89.503721 
L 551.119225 89.526819 
L 551.742921 88.764583 
L 551.95082 88.787681 
L 552.574516 88.025445 
L 552.782414 89.15725 
L 553.40611 88.395014 
L 553.614009 88.418112 
L 554.237705 87.655875 
L 554.445604 87.678973 
L 555.0693 86.916737 
L 555.277198 86.939835 
L 555.900894 86.177599 
L 556.108793 87.309404 
L 556.732489 86.547168 
L 556.940387 86.570266 
L 557.564083 85.808029 
L 557.771982 85.831127 
L 558.395678 85.068891 
L 558.603577 85.091989 
L 559.227273 84.329753 
L 559.435171 85.461558 
L 560.058867 84.699322 
L 560.266766 84.72242 
L 560.890462 83.960183 
L 561.098361 83.983281 
L 561.722057 83.221045 
L 561.929955 83.244143 
L 562.553651 82.481907 
L 562.76155 83.613712 
L 563.385246 82.851476 
L 563.593145 82.874574 
L 564.216841 82.112337 
L 564.424739 82.135435 
L 565.048435 81.373199 
L 565.256334 81.396297 
L 565.88003 80.63406 
L 566.087928 81.765866 
L 566.711624 81.00363 
L 566.919523 81.026728 
L 567.543219 80.264491 
L 567.751118 80.287589 
L 568.374814 79.525353 
L 568.582712 79.548451 
L 569.206408 78.786214 
L 569.414307 97.657342 
L 570.038003 96.895105 
L 570.245902 96.918203 
L 570.869598 96.155967 
L 571.077496 96.179065 
L 571.701192 95.416829 
L 571.909091 95.439927 
L 572.532787 94.67769 
L 572.740686 95.809496 
L 573.364382 95.047259 
L 573.57228 95.070357 
L 574.195976 94.308121 
L 574.403875 94.331219 
L 575.027571 93.568983 
L 575.235469 93.592081 
L 575.859165 92.829844 
L 576.067064 93.96165 
L 576.69076 93.199413 
L 576.898659 93.222511 
L 577.522355 92.460275 
L 577.730253 92.483373 
L 578.353949 91.721137 
L 578.561848 91.744235 
L 579.185544 90.981998 
L 579.393443 92.113804 
L 580.017139 91.351567 
L 580.225037 91.374665 
L 580.848733 90.612429 
L 581.056632 90.635527 
L 581.680328 89.873291 
L 581.888227 89.896389 
L 582.511923 89.134152 
L 582.719821 90.265958 
L 583.343517 89.503721 
L 583.551416 89.526819 
L 584.175112 88.764583 
L 584.38301 88.787681 
L 585.006706 88.025445 
L 585.214605 88.048543 
L 585.838301 87.286306 
L 586.0462 88.418112 
L 586.669896 87.655875 
L 586.877794 87.678973 
L 587.50149 86.916737 
L 587.709389 86.939835 
L 588.333085 86.177599 
L 588.540984 86.200697 
L 589.16468 85.43846 
L 589.372578 86.570266 
L 589.996274 85.808029 
L 590.204173 85.831127 
L 590.827869 85.068891 
L 591.035768 85.091989 
L 591.659463 84.329753 
L 591.867362 84.352851 
L 592.491058 83.590614 
L 592.698957 84.72242 
L 593.322653 83.960183 
L 593.530551 83.983281 
L 594.154247 83.221045 
L 594.362146 83.244143 
L 594.985842 82.481907 
L 595.193741 82.505005 
L 595.817437 81.742768 
L 596.025335 82.874574 
L 596.649031 82.112337 
L 596.85693 82.135435 
L 597.480626 81.373199 
L 597.688525 81.396297 
L 598.312221 80.63406 
L 598.520119 80.657159 
L 599.143815 79.894922 
L 599.351714 81.026728 
L 599.97541 80.264491 
L 600.183308 80.287589 
L 600.807004 79.525353 
L 601.014903 79.548451 
L 601.638599 78.786214 
L 601.846498 78.809313 
L 602.470194 78.047076 
L 602.678092 79.178882 
L 603.301788 78.416645 
L 603.509687 78.439743 
L 604.133383 77.677507 
L 604.341282 77.700605 
L 604.964978 76.938368 
L 605.172876 76.961467 
L 605.796572 76.19923 
L 606.004471 77.331036 
L 606.628167 76.568799 
L 606.836066 76.591897 
L 607.459762 75.829661 
L 607.66766 75.852759 
L 608.291356 75.090522 
L 608.499255 75.113621 
L 609.122951 74.351384 
L 609.330849 75.48319 
L 609.954545 74.720953 
L 610.162444 74.744051 
L 610.78614 73.981815 
L 610.994039 74.004913 
L 611.617735 73.242676 
L 611.825633 73.265775 
L 612.449329 72.503538 
L 612.657228 73.635344 
L 613.280924 72.873107 
L 613.488823 72.896205 
L 614.112519 72.133969 
L 614.320417 72.157067 
L 614.944113 71.39483 
L 615.152012 71.417929 
L 615.775708 70.655692 
L 615.983607 71.787498 
L 616.607303 71.025261 
L 616.815201 71.048359 
L 617.438897 70.286123 
L 617.646796 70.309221 
L 618.270492 69.546984 
L 618.47839 69.570082 
L 619.102086 68.807846 
L 619.309985 69.939652 
L 619.933681 69.177415 
L 620.14158 69.200513 
L 620.765276 68.438277 
L 620.973174 68.461375 
L 621.59687 67.699138 
L 621.804769 67.722236 
L 622.428465 66.96 
L 622.636364 369.36 
L 622.636364 369.36 
" clip-path="url(#pa082790c26)" style="fill: none; stroke: #1f77b4; stroke-width: 1.5; stroke-linecap: square"/>
   </g>
   <g id="patch_3">
    <path d="M 90 384.48 
L 90 51.84 
" style="fill: none; stroke: #000000; stroke-width: 0.8; stroke-linejoin: miter; stroke-linecap: square"/>
   </g>
   <g id="patch_4">
    <path d="M 648 384.48 
L 648 51.84 
" style="fill: none; stroke: #000000; stroke-width: 0.8; stroke-linejoin: miter; stroke-linecap: square"/>
   </g>
   <g id="patch_5">
    <path d="M 90 384.48 
L 648 384.48 
" style="fill: none; stroke: #000000; stroke-width: 0.8; stroke-linejoin: miter; stroke-linecap: square"/>
   </g>
   <g id="patch_6">
    <path d="M 90 51.84 
L 648 51.84 
" style="fill: none; stroke: #000000; stroke-width: 0.8; stroke-linejoin: miter; stroke-linecap: square"/>
   </g>
   <g id="text_16">
    <!-- Queue size over time -->
    <g transform="translate(304.997813 45.84) scale(0.12 -0.12)">
     <defs>
      <path id="DejaVuSans-73" d="M 2834 3397 
L 2834 2853 
Q 2591 2978 2328 3040 
Q 2066 3103 1784 3103 
Q 1356 3103 1142 2972 
Q 928 2841 928 2578 
Q 928 2378 1081 2264 
Q 1234 2150 1697 2047 
L 1894 2003 
Q 2506 1872 2764 1633 
Q 3022 1394 3022 966 
Q 3022 478 2636 193 
Q 2250 -91 1575 -91 
Q 1294 -91 989 -36 
Q 684 19 347 128 
L 347 722 
Q 666 556 975 473 
Q 1284 391 1588 391 
Q 1994 391 2212 530 
Q 2431 669 2431 922 
Q 2431 1156 2273 1281 
Q 2116 1406 1581 1522 
L 1381 1569 
Q 847 1681 609 1914 
Q 372 2147 372 2553 
Q 372 3047 722 3315 
Q 1072 3584 1716 3584 
Q 2034 3584 2315 3537 
Q 2597 3491 2834 3397 
z
" transform="scale(0.015625)"/>
      <path id="DejaVuSans-6f" d="M 1959 3097 
Q 1497 3097 1228 2736 
Q 959 2375 959 1747 
Q 959 1119 1226 758 
Q 1494 397 1959 397 
Q 2419 397 2687 759 
Q 2956 1122 2956 1747 
Q 2956 2369 2687 2733 
Q 2419 3097 1959 3097 
z
M 1959 3584 
Q 2709 3584 3137 3096 
Q 3566 2609 3566 1747 
Q 3566 888 3137 398 
Q 2709 -91 1959 -91 
Q 1206 -91 779 398 
Q 353 888 353 1747 
Q 353 2609 779 3096 
Q 1206 3584 1959 3584 
z
" transform="scale(0.015625)"/>
      <path id="DejaVuSans-76" d="M 191 3500 
L 800 3500 
L 1894 563 
L 2988 3500 
L 3597 3500 
L 2284 0 
L 1503 0 
L 191 3500 
z
" transform="scale(0.015625)"/>
      <path id="DejaVuSans-72" d="M 2631 2963 
Q 2534 3019 2420 3045 
Q 2306 3072 2169 3072 
Q 1681 3072 1420 2755 
Q 1159 2438 1159 1844 
L 1159 0 
L 581 0 
L 581 3500 
L 1159 3500 
L 1159 2956 
Q 1341 3275 1631 3429 
Q 1922 3584 2338 3584 
Q 2397 3584 2469 3576 
Q 2541 3569 2628 3553 
L 2631 2963 
z
" transform="scale(0.015625)"/>
      <path id="DejaVuSans-74" d="M 1172 4494 
L 1172 3500 
L 2356 3500 
L 2356 3053 
L 1172 3053 
L 1172 1153 
Q 1172 725 1289 603 
Q 1406 481 1766 481 
L 2356 481 
L 2356 0 
L 1766 0 
Q 1100 0 847 248 
Q 594 497 594 1153 
L 594 3053 
L 172 3053 
L 172 3500 
L 594 3500 
L 594 4494 
L 1172 4494 
z
" transform="scale(0.015625)"/>
      <path id="DejaVuSans-6d" d="M 3328 2828 
Q 3544 3216 3844 3400 
Q 4144 3584 4550 3584 
Q 5097 3584 5394 3201 
Q 5691 2819 5691 2113 
L 5691 0 
L 5113 0 
L 5113 2094 
Q 5113 2597 4934 2840 
Q 4756 3084 4391 3084 
Q 3944 3084 3684 2787 
Q 3425 2491 3425 1978 
L 3425 0 
L 2847 0 
L 2847 2094 
Q 2847 2600 2669 2842 
Q 2491 3084 2119 3084 
Q 1678 3084 1418 2786 
Q 1159 2488 1159 1978 
L 1159 0 
L 581 0 
L 581 3500 
L 1159 3500 
L 1159 2956 
Q 1356 3278 1631 3431 
Q 1906 3584 2284 3584 
Q 2666 3584 2933 3390 
Q 3200 3197 3328 2828 
z
" transform="scale(0.015625)"/>
     </defs>
     <use xlink:href="#DejaVuSans-51"/>
     <use xlink:href="#DejaVuSans-75" transform="translate(78.710938 0)"/>
     <use xlink:href="#DejaVuSans-65" transform="translate(142.089844 0)"/>
     <use xlink:href="#DejaVuSans-75" transform="translate(203.613281 0)"/>
     <use xlink:href="#DejaVuSans-65" transform="translate(266.992188 0)"/>
     <use xlink:href="#DejaVuSans-20" transform="translate(328.515625 0)"/>
     <use xlink:href="#DejaVuSans-73" transform="translate(360.302734 0)"/>
     <use xlink:href="#DejaVuSans-69" transform="translate(412.402344 0)"/>
     <use xlink:href="#DejaVuSans-7a" transform="translate(440.185547 0)"/>
     <use xlink:href="#DejaVuSans-65" transform="translate(492.675781 0)"/>
     <use xlink:href="#DejaVuSans-20" transform="translate(554.199219 0)"/>
     <use xlink:href="#DejaVuSans-6f" transform="translate(585.986328 0)"/>
     <use xlink:href="#DejaVuSans-76" transform="translate(647.167969 0)"/>
     <use xlink:href="#DejaVuSans-65" transform="translate(706.347656 0)"/>
     <use xlink:href="#DejaVuSans-72" transform="translate(767.871094 0)"/>
     <use xlink:href="#DejaVuSans-20" transform="translate(808.984375 0)"/>
     <use xlink:href="#DejaVuSans-74" transform="translate(840.771484 0)"/>
     <use xlink:href="#DejaVuSans-69" transform="translate(879.980469 0)"/>
     <use xlink:href="#DejaVuSans-6d" transform="translate(907.763672 0)"/>
     <use xlink:href="#DejaVuSans-65" transform="translate(1005.175781 0)"/>
    </g>
   </g>
   <g id="legend_1">
    <g id="patch_7">
     <path d="M 97 74.518125 
L 185.559375 74.518125 
Q 187.559375 74.518125 187.559375 72.518125 
L 187.559375 58.84 
Q 187.559375 56.84 185.559375 56.84 
L 97 56.84 
Q 95 56.84 95 58.84 
L 95 72.518125 
Q 95 74.518125 97 74.518125 
z
" style="fill: #ffffff; opacity: 0.8; stroke: #cccccc; stroke-linejoin: miter"/>
    </g>
    <g id="line2d_15">
     <path d="M 99 64.938438 
L 109 64.938438 
L 119 64.938438 
" style="fill: none; stroke: #1f77b4; stroke-width: 1.5; stroke-linecap: square"/>
    </g>
    <g id="text_17">
     <!-- Queue Size -->
     <g transform="translate(127 68.438438) scale(0.1 -0.1)">
      <use xlink:href="#DejaVuSans-51"/>
      <use xlink:href="#DejaVuSans-75" transform="translate(78.710938 0)"/>
      <use xlink:href="#DejaVuSans-65" transform="translate(142.089844 0)"/>
      <use xlink:href="#DejaVuSans-75" transform="translate(203.613281 0)"/>
      <use xlink:href="#DejaVuSans-65" transform="translate(266.992188 0)"/>
      <use xlink:href="#DejaVuSans-20" transform="translate(328.515625 0)"/>
      <use xlink:href="#DejaVuSans-53" transform="translate(360.302734 0)"/>
      <use xlink:href="#DejaVuSans-69" transform="translate(423.779297 0)"/>
      <use xlink:href="#DejaVuSans-7a" transform="translate(451.5625 0)"/>
      <use xlink:href="#DejaVuSans-65" transform="translate(504.052734 0)"/>
     </g>
    </g>
   </g>
  </g>
 </g>
 <defs>
  <clipPath id="pa082790c26">
   <rect x="90" y="51.84" width="558" height="332.64"/>
  </clipPath>
 </defs>
</svg>
