<?xml version="1.0" encoding="utf-8" standalone="no"?>
<!DOCTYPE svg PUBLIC "-//W3C//DTD SVG 1.1//EN"
  "http://www.w3.org/Graphics/SVG/1.1/DTD/svg11.dtd">
<svg xmlns:xlink="http://www.w3.org/1999/xlink" width="720pt" height="432pt" viewBox="0 0 720 432" xmlns="http://www.w3.org/2000/svg" version="1.1">
 <metadata>
  <rdf:RDF xmlns:dc="http://purl.org/dc/elements/1.1/" xmlns:cc="http://creativecommons.org/ns#" xmlns:rdf="http://www.w3.org/1999/02/22-rdf-syntax-ns#">
   <cc:Work>
    <dc:type rdf:resource="http://purl.org/dc/dcmitype/StillImage"/>
    <dc:date>2025-09-30T20:46:07.072277</dc:date>
    <dc:format>image/svg+xml</dc:format>
    <dc:creator>
     <cc:Agent>
      <dc:title>Matplotlib v3.10.3, https://matplotlib.org/</dc:title>
     </cc:Agent>
    </dc:creator>
   </cc:Work>
  </rdf:RDF>
 </metadata>
 <defs>
  <style type="text/css">*{stroke-linejoin: round; stroke-linecap: butt}</style>
 </defs>
 <g id="figure_1">
  <g id="patch_1">
   <path d="M 0 432 
L 720 432 
L 720 0 
L 0 0 
z
" style="fill: #ffffff"/>
  </g>
  <g id="axes_1">
   <g id="patch_2">
    <path d="M 90 384.48 
L 648 384.48 
L 648 51.84 
L 90 51.84 
z
" style="fill: #ffffff"/>
   </g>
   <g id="matplotlib.axis_1">
    <g id="xtick_1">
     <g id="line2d_1">
      <defs>
       <path id="mb58cc2aa51" d="M 0 0 
L 0 3.5 
" style="stroke: #000000; stroke-width: 0.8"/>
      </defs>
      <g>
       <use xlink:href="#mb58cc2aa51" x="115.363636" y="384.48" style="stroke: #000000; stroke-width: 0.8"/>
      </g>
     </g>
     <g id="text_1">
      <!-- 0 -->
      <g transform="translate(112.182386 399.078438) scale(0.1 -0.1)">
       <defs>
        <path id="DejaVuSans-30" d="M 2034 4250 
Q 1547 4250 1301 3770 
Q 1056 3291 1056 2328 
Q 1056 1369 1301 889 
Q 1547 409 2034 409 
Q 2525 409 2770 889 
Q 3016 1369 3016 2328 
Q 3016 3291 2770 3770 
Q 2525 4250 2034 4250 
z
M 2034 4750 
Q 2819 4750 3233 4129 
Q 3647 3509 3647 2328 
Q 3647 1150 3233 529 
Q 2819 -91 2034 -91 
Q 1250 -91 836 529 
Q 422 1150 422 2328 
Q 422 3509 836 4129 
Q 1250 4750 2034 4750 
z
" transform="scale(0.015625)"/>
       </defs>
       <use xlink:href="#DejaVuSans-30"/>
      </g>
     </g>
    </g>
    <g id="xtick_2">
     <g id="line2d_2">
      <g>
       <use xlink:href="#mb58cc2aa51" x="219.312966" y="384.48" style="stroke: #000000; stroke-width: 0.8"/>
      </g>
     </g>
     <g id="text_2">
      <!-- 500 -->
      <g transform="translate(209.769216 399.078438) scale(0.1 -0.1)">
       <defs>
        <path id="DejaVuSans-35" d="M 691 4666 
L 3169 4666 
L 3169 4134 
L 1269 4134 
L 1269 2991 
Q 1406 3038 1543 3061 
Q 1681 3084 1819 3084 
Q 2600 3084 3056 2656 
Q 3513 2228 3513 1497 
Q 3513 744 3044 326 
Q 2575 -91 1722 -91 
Q 1428 -91 1123 -41 
Q 819 9 494 109 
L 494 744 
Q 775 591 1075 516 
Q 1375 441 1709 441 
Q 2250 441 2565 725 
Q 2881 1009 2881 1497 
Q 2881 1984 2565 2268 
Q 2250 2553 1709 2553 
Q 1456 2553 1204 2497 
Q 953 2441 691 2322 
L 691 4666 
z
" transform="scale(0.015625)"/>
       </defs>
       <use xlink:href="#DejaVuSans-35"/>
       <use xlink:href="#DejaVuSans-30" transform="translate(63.623047 0)"/>
       <use xlink:href="#DejaVuSans-30" transform="translate(127.246094 0)"/>
      </g>
     </g>
    </g>
    <g id="xtick_3">
     <g id="line2d_3">
      <g>
       <use xlink:href="#mb58cc2aa51" x="323.262295" y="384.48" style="stroke: #000000; stroke-width: 0.8"/>
      </g>
     </g>
     <g id="text_3">
      <!-- 1000 -->
      <g transform="translate(310.537295 399.078438) scale(0.1 -0.1)">
       <defs>
        <path id="DejaVuSans-31" d="M 794 531 
L 1825 531 
L 1825 4091 
L 703 3866 
L 703 4441 
L 1819 4666 
L 2450 4666 
L 2450 531 
L 3481 531 
L 3481 0 
L 794 0 
L 794 531 
z
" transform="scale(0.015625)"/>
       </defs>
       <use xlink:href="#DejaVuSans-31"/>
       <use xlink:href="#DejaVuSans-30" transform="translate(63.623047 0)"/>
       <use xlink:href="#DejaVuSans-30" transform="translate(127.246094 0)"/>
       <use xlink:href="#DejaVuSans-30" transform="translate(190.869141 0)"/>
      </g>
     </g>
    </g>
    <g id="xtick_4">
     <g id="line2d_4">
      <g>
       <use xlink:href="#mb58cc2aa51" x="427.211624" y="384.48" style="stroke: #000000; stroke-width: 0.8"/>
      </g>
     </g>
     <g id="text_4">
      <!-- 1500 -->
      <g transform="translate(414.486624 399.078438) scale(0.1 -0.1)">
       <use xlink:href="#DejaVuSans-31"/>
       <use xlink:href="#DejaVuSans-35" transform="translate(63.623047 0)"/>
       <use xlink:href="#DejaVuSans-30" transform="translate(127.246094 0)"/>
       <use xlink:href="#DejaVuSans-30" transform="translate(190.869141 0)"/>
      </g>
     </g>
    </g>
    <g id="xtick_5">
     <g id="line2d_5">
      <g>
       <use xlink:href="#mb58cc2aa51" x="531.160954" y="384.48" style="stroke: #000000; stroke-width: 0.8"/>
      </g>
     </g>
     <g id="text_5">
      <!-- 2000 -->
      <g transform="translate(518.435954 399.078438) scale(0.1 -0.1)">
       <defs>
        <path id="DejaVuSans-32" d="M 1228 531 
L 3431 531 
L 3431 0 
L 469 0 
L 469 531 
Q 828 903 1448 1529 
Q 2069 2156 2228 2338 
Q 2531 2678 2651 2914 
Q 2772 3150 2772 3378 
Q 2772 3750 2511 3984 
Q 2250 4219 1831 4219 
Q 1534 4219 1204 4116 
Q 875 4013 500 3803 
L 500 4441 
Q 881 4594 1212 4672 
Q 1544 4750 1819 4750 
Q 2544 4750 2975 4387 
Q 3406 4025 3406 3419 
Q 3406 3131 3298 2873 
Q 3191 2616 2906 2266 
Q 2828 2175 2409 1742 
Q 1991 1309 1228 531 
z
" transform="scale(0.015625)"/>
       </defs>
       <use xlink:href="#DejaVuSans-32"/>
       <use xlink:href="#DejaVuSans-30" transform="translate(63.623047 0)"/>
       <use xlink:href="#DejaVuSans-30" transform="translate(127.246094 0)"/>
       <use xlink:href="#DejaVuSans-30" transform="translate(190.869141 0)"/>
      </g>
     </g>
    </g>
    <g id="xtick_6">
     <g id="line2d_6">
      <g>
       <use xlink:href="#mb58cc2aa51" x="635.110283" y="384.48" style="stroke: #000000; stroke-width: 0.8"/>
      </g>
     </g>
     <g id="text_6">
      <!-- 2500 -->
      <g transform="translate(622.385283 399.078438) scale(0.1 -0.1)">
       <use xlink:href="#DejaVuSans-32"/>
       <use xlink:href="#DejaVuSans-35" transform="translate(63.623047 0)"/>
       <use xlink:href="#DejaVuSans-30" transform="translate(127.246094 0)"/>
       <use xlink:href="#DejaVuSans-30" transform="translate(190.869141 0)"/>
      </g>
     </g>
    </g>
    <g id="text_7">
     <!-- Index -->
     <g transform="translate(355.233594 412.756563) scale(0.1 -0.1)">
      <defs>
       <path id="DejaVuSans-49" d="M 628 4666 
L 1259 4666 
L 1259 0 
L 628 0 
L 628 4666 
z
" transform="scale(0.015625)"/>
       <path id="DejaVuSans-6e" d="M 3513 2113 
L 3513 0 
L 2938 0 
L 2938 2094 
Q 2938 2591 2744 2837 
Q 2550 3084 2163 3084 
Q 1697 3084 1428 2787 
Q 1159 2491 1159 1978 
L 1159 0 
L 581 0 
L 581 3500 
L 1159 3500 
L 1159 2956 
Q 1366 3272 1645 3428 
Q 1925 3584 2291 3584 
Q 2894 3584 3203 3211 
Q 3513 2838 3513 2113 
z
" transform="scale(0.015625)"/>
       <path id="DejaVuSans-64" d="M 2906 2969 
L 2906 4863 
L 3481 4863 
L 3481 0 
L 2906 0 
L 2906 525 
Q 2725 213 2448 61 
Q 2172 -91 1784 -91 
Q 1150 -91 751 415 
Q 353 922 353 1747 
Q 353 2572 751 3078 
Q 1150 3584 1784 3584 
Q 2172 3584 2448 3432 
Q 2725 3281 2906 2969 
z
M 947 1747 
Q 947 1113 1208 752 
Q 1469 391 1925 391 
Q 2381 391 2643 752 
Q 2906 1113 2906 1747 
Q 2906 2381 2643 2742 
Q 2381 3103 1925 3103 
Q 1469 3103 1208 2742 
Q 947 2381 947 1747 
z
" transform="scale(0.015625)"/>
       <path id="DejaVuSans-65" d="M 3597 1894 
L 3597 1613 
L 953 1613 
Q 991 1019 1311 708 
Q 1631 397 2203 397 
Q 2534 397 2845 478 
Q 3156 559 3463 722 
L 3463 178 
Q 3153 47 2828 -22 
Q 2503 -91 2169 -91 
Q 1331 -91 842 396 
Q 353 884 353 1716 
Q 353 2575 817 3079 
Q 1281 3584 2069 3584 
Q 2775 3584 3186 3129 
Q 3597 2675 3597 1894 
z
M 3022 2063 
Q 3016 2534 2758 2815 
Q 2500 3097 2075 3097 
Q 1594 3097 1305 2825 
Q 1016 2553 972 2059 
L 3022 2063 
z
" transform="scale(0.015625)"/>
       <path id="DejaVuSans-78" d="M 3513 3500 
L 2247 1797 
L 3578 0 
L 2900 0 
L 1881 1375 
L 863 0 
L 184 0 
L 1544 1831 
L 300 3500 
L 978 3500 
L 1906 2253 
L 2834 3500 
L 3513 3500 
z
" transform="scale(0.015625)"/>
      </defs>
      <use xlink:href="#DejaVuSans-49"/>
      <use xlink:href="#DejaVuSans-6e" transform="translate(29.492188 0)"/>
      <use xlink:href="#DejaVuSans-64" transform="translate(92.871094 0)"/>
      <use xlink:href="#DejaVuSans-65" transform="translate(156.347656 0)"/>
      <use xlink:href="#DejaVuSans-78" transform="translate(216.121094 0)"/>
     </g>
    </g>
   </g>
   <g id="matplotlib.axis_2">
    <g id="ytick_1">
     <g id="line2d_7">
      <defs>
       <path id="m97cd7f8863" d="M 0 0 
L -3.5 0 
" style="stroke: #000000; stroke-width: 0.8"/>
      </defs>
      <g>
       <use xlink:href="#m97cd7f8863" x="90" y="384.48" style="stroke: #000000; stroke-width: 0.8"/>
      </g>
     </g>
     <g id="text_8">
      <!-- 0 -->
      <g transform="translate(76.6375 388.279219) scale(0.1 -0.1)">
       <use xlink:href="#DejaVuSans-30"/>
      </g>
     </g>
    </g>
    <g id="ytick_2">
     <g id="line2d_8">
      <g>
       <use xlink:href="#m97cd7f8863" x="90" y="331.489843" style="stroke: #000000; stroke-width: 0.8"/>
      </g>
     </g>
     <g id="text_9">
      <!-- 20 -->
      <g transform="translate(70.275 335.289062) scale(0.1 -0.1)">
       <use xlink:href="#DejaVuSans-32"/>
       <use xlink:href="#DejaVuSans-30" transform="translate(63.623047 0)"/>
      </g>
     </g>
    </g>
    <g id="ytick_3">
     <g id="line2d_9">
      <g>
       <use xlink:href="#m97cd7f8863" x="90" y="278.499686" style="stroke: #000000; stroke-width: 0.8"/>
      </g>
     </g>
     <g id="text_10">
      <!-- 40 -->
      <g transform="translate(70.275 282.298905) scale(0.1 -0.1)">
       <defs>
        <path id="DejaVuSans-34" d="M 2419 4116 
L 825 1625 
L 2419 1625 
L 2419 4116 
z
M 2253 4666 
L 3047 4666 
L 3047 1625 
L 3713 1625 
L 3713 1100 
L 3047 1100 
L 3047 0 
L 2419 0 
L 2419 1100 
L 313 1100 
L 313 1709 
L 2253 4666 
z
" transform="scale(0.015625)"/>
       </defs>
       <use xlink:href="#DejaVuSans-34"/>
       <use xlink:href="#DejaVuSans-30" transform="translate(63.623047 0)"/>
      </g>
     </g>
    </g>
    <g id="ytick_4">
     <g id="line2d_10">
      <g>
       <use xlink:href="#m97cd7f8863" x="90" y="225.509529" style="stroke: #000000; stroke-width: 0.8"/>
      </g>
     </g>
     <g id="text_11">
      <!-- 60 -->
      <g transform="translate(70.275 229.308748) scale(0.1 -0.1)">
       <defs>
        <path id="DejaVuSans-36" d="M 2113 2584 
Q 1688 2584 1439 2293 
Q 1191 2003 1191 1497 
Q 1191 994 1439 701 
Q 1688 409 2113 409 
Q 2538 409 2786 701 
Q 3034 994 3034 1497 
Q 3034 2003 2786 2293 
Q 2538 2584 2113 2584 
z
M 3366 4563 
L 3366 3988 
Q 3128 4100 2886 4159 
Q 2644 4219 2406 4219 
Q 1781 4219 1451 3797 
Q 1122 3375 1075 2522 
Q 1259 2794 1537 2939 
Q 1816 3084 2150 3084 
Q 2853 3084 3261 2657 
Q 3669 2231 3669 1497 
Q 3669 778 3244 343 
Q 2819 -91 2113 -91 
Q 1303 -91 875 529 
Q 447 1150 447 2328 
Q 447 3434 972 4092 
Q 1497 4750 2381 4750 
Q 2619 4750 2861 4703 
Q 3103 4656 3366 4563 
z
" transform="scale(0.015625)"/>
       </defs>
       <use xlink:href="#DejaVuSans-36"/>
       <use xlink:href="#DejaVuSans-30" transform="translate(63.623047 0)"/>
      </g>
     </g>
    </g>
    <g id="ytick_5">
     <g id="line2d_11">
      <g>
       <use xlink:href="#m97cd7f8863" x="90" y="172.519372" style="stroke: #000000; stroke-width: 0.8"/>
      </g>
     </g>
     <g id="text_12">
      <!-- 80 -->
      <g transform="translate(70.275 176.318591) scale(0.1 -0.1)">
       <defs>
        <path id="DejaVuSans-38" d="M 2034 2216 
Q 1584 2216 1326 1975 
Q 1069 1734 1069 1313 
Q 1069 891 1326 650 
Q 1584 409 2034 409 
Q 2484 409 2743 651 
Q 3003 894 3003 1313 
Q 3003 1734 2745 1975 
Q 2488 2216 2034 2216 
z
M 1403 2484 
Q 997 2584 770 2862 
Q 544 3141 544 3541 
Q 544 4100 942 4425 
Q 1341 4750 2034 4750 
Q 2731 4750 3128 4425 
Q 3525 4100 3525 3541 
Q 3525 3141 3298 2862 
Q 3072 2584 2669 2484 
Q 3125 2378 3379 2068 
Q 3634 1759 3634 1313 
Q 3634 634 3220 271 
Q 2806 -91 2034 -91 
Q 1263 -91 848 271 
Q 434 634 434 1313 
Q 434 1759 690 2068 
Q 947 2378 1403 2484 
z
M 1172 3481 
Q 1172 3119 1398 2916 
Q 1625 2713 2034 2713 
Q 2441 2713 2670 2916 
Q 2900 3119 2900 3481 
Q 2900 3844 2670 4047 
Q 2441 4250 2034 4250 
Q 1625 4250 1398 4047 
Q 1172 3844 1172 3481 
z
" transform="scale(0.015625)"/>
       </defs>
       <use xlink:href="#DejaVuSans-38"/>
       <use xlink:href="#DejaVuSans-30" transform="translate(63.623047 0)"/>
      </g>
     </g>
    </g>
    <g id="ytick_6">
     <g id="line2d_12">
      <g>
       <use xlink:href="#m97cd7f8863" x="90" y="119.529215" style="stroke: #000000; stroke-width: 0.8"/>
      </g>
     </g>
     <g id="text_13">
      <!-- 100 -->
      <g transform="translate(63.9125 123.328434) scale(0.1 -0.1)">
       <use xlink:href="#DejaVuSans-31"/>
       <use xlink:href="#DejaVuSans-30" transform="translate(63.623047 0)"/>
       <use xlink:href="#DejaVuSans-30" transform="translate(127.246094 0)"/>
      </g>
     </g>
    </g>
    <g id="ytick_7">
     <g id="line2d_13">
      <g>
       <use xlink:href="#m97cd7f8863" x="90" y="66.539058" style="stroke: #000000; stroke-width: 0.8"/>
      </g>
     </g>
     <g id="text_14">
      <!-- 120 -->
      <g transform="translate(63.9125 70.338277) scale(0.1 -0.1)">
       <use xlink:href="#DejaVuSans-31"/>
       <use xlink:href="#DejaVuSans-32" transform="translate(63.623047 0)"/>
       <use xlink:href="#DejaVuSans-30" transform="translate(127.246094 0)"/>
      </g>
     </g>
    </g>
    <g id="text_15">
     <!-- Average time (ms) -->
     <g transform="translate(57.832812 264.543594) rotate(-90) scale(0.1 -0.1)">
      <defs>
       <path id="DejaVuSans-41" d="M 2188 4044 
L 1331 1722 
L 3047 1722 
L 2188 4044 
z
M 1831 4666 
L 2547 4666 
L 4325 0 
L 3669 0 
L 3244 1197 
L 1141 1197 
L 716 0 
L 50 0 
L 1831 4666 
z
" transform="scale(0.015625)"/>
       <path id="DejaVuSans-76" d="M 191 3500 
L 800 3500 
L 1894 563 
L 2988 3500 
L 3597 3500 
L 2284 0 
L 1503 0 
L 191 3500 
z
" transform="scale(0.015625)"/>
       <path id="DejaVuSans-72" d="M 2631 2963 
Q 2534 3019 2420 3045 
Q 2306 3072 2169 3072 
Q 1681 3072 1420 2755 
Q 1159 2438 1159 1844 
L 1159 0 
L 581 0 
L 581 3500 
L 1159 3500 
L 1159 2956 
Q 1341 3275 1631 3429 
Q 1922 3584 2338 3584 
Q 2397 3584 2469 3576 
Q 2541 3569 2628 3553 
L 2631 2963 
z
" transform="scale(0.015625)"/>
       <path id="DejaVuSans-61" d="M 2194 1759 
Q 1497 1759 1228 1600 
Q 959 1441 959 1056 
Q 959 750 1161 570 
Q 1363 391 1709 391 
Q 2188 391 2477 730 
Q 2766 1069 2766 1631 
L 2766 1759 
L 2194 1759 
z
M 3341 1997 
L 3341 0 
L 2766 0 
L 2766 531 
Q 2569 213 2275 61 
Q 1981 -91 1556 -91 
Q 1019 -91 701 211 
Q 384 513 384 1019 
Q 384 1609 779 1909 
Q 1175 2209 1959 2209 
L 2766 2209 
L 2766 2266 
Q 2766 2663 2505 2880 
Q 2244 3097 1772 3097 
Q 1472 3097 1187 3025 
Q 903 2953 641 2809 
L 641 3341 
Q 956 3463 1253 3523 
Q 1550 3584 1831 3584 
Q 2591 3584 2966 3190 
Q 3341 2797 3341 1997 
z
" transform="scale(0.015625)"/>
       <path id="DejaVuSans-67" d="M 2906 1791 
Q 2906 2416 2648 2759 
Q 2391 3103 1925 3103 
Q 1463 3103 1205 2759 
Q 947 2416 947 1791 
Q 947 1169 1205 825 
Q 1463 481 1925 481 
Q 2391 481 2648 825 
Q 2906 1169 2906 1791 
z
M 3481 434 
Q 3481 -459 3084 -895 
Q 2688 -1331 1869 -1331 
Q 1566 -1331 1297 -1286 
Q 1028 -1241 775 -1147 
L 775 -588 
Q 1028 -725 1275 -790 
Q 1522 -856 1778 -856 
Q 2344 -856 2625 -561 
Q 2906 -266 2906 331 
L 2906 616 
Q 2728 306 2450 153 
Q 2172 0 1784 0 
Q 1141 0 747 490 
Q 353 981 353 1791 
Q 353 2603 747 3093 
Q 1141 3584 1784 3584 
Q 2172 3584 2450 3431 
Q 2728 3278 2906 2969 
L 2906 3500 
L 3481 3500 
L 3481 434 
z
" transform="scale(0.015625)"/>
       <path id="DejaVuSans-20" transform="scale(0.015625)"/>
       <path id="DejaVuSans-74" d="M 1172 4494 
L 1172 3500 
L 2356 3500 
L 2356 3053 
L 1172 3053 
L 1172 1153 
Q 1172 725 1289 603 
Q 1406 481 1766 481 
L 2356 481 
L 2356 0 
L 1766 0 
Q 1100 0 847 248 
Q 594 497 594 1153 
L 594 3053 
L 172 3053 
L 172 3500 
L 594 3500 
L 594 4494 
L 1172 4494 
z
" transform="scale(0.015625)"/>
       <path id="DejaVuSans-69" d="M 603 3500 
L 1178 3500 
L 1178 0 
L 603 0 
L 603 3500 
z
M 603 4863 
L 1178 4863 
L 1178 4134 
L 603 4134 
L 603 4863 
z
" transform="scale(0.015625)"/>
       <path id="DejaVuSans-6d" d="M 3328 2828 
Q 3544 3216 3844 3400 
Q 4144 3584 4550 3584 
Q 5097 3584 5394 3201 
Q 5691 2819 5691 2113 
L 5691 0 
L 5113 0 
L 5113 2094 
Q 5113 2597 4934 2840 
Q 4756 3084 4391 3084 
Q 3944 3084 3684 2787 
Q 3425 2491 3425 1978 
L 3425 0 
L 2847 0 
L 2847 2094 
Q 2847 2600 2669 2842 
Q 2491 3084 2119 3084 
Q 1678 3084 1418 2786 
Q 1159 2488 1159 1978 
L 1159 0 
L 581 0 
L 581 3500 
L 1159 3500 
L 1159 2956 
Q 1356 3278 1631 3431 
Q 1906 3584 2284 3584 
Q 2666 3584 2933 3390 
Q 3200 3197 3328 2828 
z
" transform="scale(0.015625)"/>
       <path id="DejaVuSans-28" d="M 1984 4856 
Q 1566 4138 1362 3434 
Q 1159 2731 1159 2009 
Q 1159 1288 1364 580 
Q 1569 -128 1984 -844 
L 1484 -844 
Q 1016 -109 783 600 
Q 550 1309 550 2009 
Q 550 2706 781 3412 
Q 1013 4119 1484 4856 
L 1984 4856 
z
" transform="scale(0.015625)"/>
       <path id="DejaVuSans-73" d="M 2834 3397 
L 2834 2853 
Q 2591 2978 2328 3040 
Q 2066 3103 1784 3103 
Q 1356 3103 1142 2972 
Q 928 2841 928 2578 
Q 928 2378 1081 2264 
Q 1234 2150 1697 2047 
L 1894 2003 
Q 2506 1872 2764 1633 
Q 3022 1394 3022 966 
Q 3022 478 2636 193 
Q 2250 -91 1575 -91 
Q 1294 -91 989 -36 
Q 684 19 347 128 
L 347 722 
Q 666 556 975 473 
Q 1284 391 1588 391 
Q 1994 391 2212 530 
Q 2431 669 2431 922 
Q 2431 1156 2273 1281 
Q 2116 1406 1581 1522 
L 1381 1569 
Q 847 1681 609 1914 
Q 372 2147 372 2553 
Q 372 3047 722 3315 
Q 1072 3584 1716 3584 
Q 2034 3584 2315 3537 
Q 2597 3491 2834 3397 
z
" transform="scale(0.015625)"/>
       <path id="DejaVuSans-29" d="M 513 4856 
L 1013 4856 
Q 1481 4119 1714 3412 
Q 1947 2706 1947 2009 
Q 1947 1309 1714 600 
Q 1481 -109 1013 -844 
L 513 -844 
Q 928 -128 1133 580 
Q 1338 1288 1338 2009 
Q 1338 2731 1133 3434 
Q 928 4138 513 4856 
z
" transform="scale(0.015625)"/>
      </defs>
      <use xlink:href="#DejaVuSans-41"/>
      <use xlink:href="#DejaVuSans-76" transform="translate(62.533203 0)"/>
      <use xlink:href="#DejaVuSans-65" transform="translate(121.712891 0)"/>
      <use xlink:href="#DejaVuSans-72" transform="translate(183.236328 0)"/>
      <use xlink:href="#DejaVuSans-61" transform="translate(224.349609 0)"/>
      <use xlink:href="#DejaVuSans-67" transform="translate(285.628906 0)"/>
      <use xlink:href="#DejaVuSans-65" transform="translate(349.105469 0)"/>
      <use xlink:href="#DejaVuSans-20" transform="translate(410.628906 0)"/>
      <use xlink:href="#DejaVuSans-74" transform="translate(442.416016 0)"/>
      <use xlink:href="#DejaVuSans-69" transform="translate(481.625 0)"/>
      <use xlink:href="#DejaVuSans-6d" transform="translate(509.408203 0)"/>
      <use xlink:href="#DejaVuSans-65" transform="translate(606.820312 0)"/>
      <use xlink:href="#DejaVuSans-20" transform="translate(668.34375 0)"/>
      <use xlink:href="#DejaVuSans-28" transform="translate(700.130859 0)"/>
      <use xlink:href="#DejaVuSans-6d" transform="translate(739.144531 0)"/>
      <use xlink:href="#DejaVuSans-73" transform="translate(836.556641 0)"/>
      <use xlink:href="#DejaVuSans-29" transform="translate(888.65625 0)"/>
     </g>
    </g>
   </g>
   <g id="line2d_14">
    <path d="M 115.363636 67.345968 
L 115.571535 324.23211 
L 115.779434 369.237601 
L 115.987332 370.220823 
L 116.195231 373.467095 
L 116.40313 369.042317 
L 116.818927 369.336616 
L 117.026826 372.711098 
L 117.234724 368.15918 
L 117.442623 353.234176 
L 117.650522 367.838131 
L 117.85842 373.394947 
L 118.066319 370.619529 
L 118.274218 371.941962 
L 118.482116 369.795548 
L 118.690015 369.928161 
L 118.897914 370.944059 
L 119.105812 373.528802 
L 119.313711 373.315589 
L 119.52161 374.030773 
L 119.937407 367.139133 
L 120.145306 373.679726 
L 120.353204 374.455537 
L 120.769001 366.695637 
L 120.9769 371.267871 
L 121.392697 373.296827 
L 121.808495 372.312143 
L 122.016393 372.090899 
L 122.224292 370.256904 
L 122.432191 371.315483 
L 122.640089 371.237532 
L 122.847988 373.219218 
L 123.055887 373.381273 
L 123.263785 374.74326 
L 123.471684 374.123174 
L 123.679583 372.707145 
L 124.09538 374.773989 
L 124.303279 374.55975 
L 124.511177 373.322528 
L 124.719076 371.150464 
L 124.926975 371.29789 
L 125.134873 371.678331 
L 125.550671 375.14974 
L 125.966468 372.121712 
L 126.174367 374.28082 
L 126.382265 371.843186 
L 126.590164 374.924206 
L 126.798063 358.118581 
L 127.005961 371.150413 
L 127.21386 368.30418 
L 127.421759 373.257056 
L 127.629657 375.380008 
L 127.837556 375.135644 
L 128.045455 373.933639 
L 128.253353 371.663586 
L 128.461252 372.55327 
L 128.669151 371.984465 
L 128.877049 375.139012 
L 129.292846 371.991237 
L 129.708644 369.881424 
L 130.124441 374.863383 
L 130.33234 370.539289 
L 130.540238 374.836811 
L 130.748137 374.216199 
L 130.956036 374.1713 
L 131.163934 369.324683 
L 131.579732 375.635209 
L 131.78763 374.931553 
L 131.995529 372.807487 
L 132.203428 373.01239 
L 132.411326 376.215263 
L 132.619225 373.857927 
L 132.827124 374.257057 
L 133.035022 369.734845 
L 133.242921 375.257609 
L 133.45082 375.495145 
L 133.658718 375.116753 
L 133.866617 375.126689 
L 134.282414 370.836693 
L 134.490313 374.469428 
L 134.698212 373.991984 
L 134.90611 372.928774 
L 135.114009 370.51008 
L 135.321908 370.986745 
L 135.529806 368.086748 
L 135.737705 375.331901 
L 135.945604 373.696818 
L 136.153502 374.790609 
L 136.361401 373.768379 
L 136.5693 370.955955 
L 136.777198 373.652349 
L 137.192996 373.644854 
L 137.400894 370.630037 
L 137.608793 371.146595 
L 138.232489 376.027805 
L 138.440387 370.665053 
L 138.648286 374.566848 
L 138.856185 372.624139 
L 139.064083 374.567831 
L 139.271982 372.518021 
L 139.479881 375.548035 
L 139.687779 374.520028 
L 139.895678 376.348091 
L 140.103577 374.631398 
L 140.311475 374.657095 
L 140.519374 374.827814 
L 140.727273 375.599491 
L 140.935171 373.990556 
L 141.14307 374.09177 
L 141.350969 375.137843 
L 141.558867 374.369505 
L 141.766766 374.331752 
L 141.974665 371.764487 
L 142.182563 373.860402 
L 142.390462 374.231137 
L 142.598361 375.027727 
L 142.806259 374.91366 
L 143.014158 373.910477 
L 143.222057 370.253711 
L 143.429955 374.354055 
L 143.637854 374.309938 
L 143.845753 372.492848 
L 144.053651 374.568536 
L 144.26155 371.83958 
L 144.469449 371.83086 
L 144.885246 373.429358 
L 145.093145 372.079281 
L 145.301043 372.938887 
L 145.508942 371.2168 
L 145.716841 373.759506 
L 145.924739 374.93745 
L 146.132638 374.236147 
L 146.340537 372.128389 
L 146.548435 374.630712 
L 146.756334 374.297568 
L 146.964232 373.662232 
L 147.172131 374.769495 
L 147.38003 374.790019 
L 147.587928 375.033527 
L 147.795827 373.873119 
L 148.211624 375.3208 
L 148.419523 372.550745 
L 149.043219 374.874548 
L 149.251118 371.079078 
L 149.459016 375.914666 
L 149.666915 372.547496 
L 149.874814 372.203956 
L 150.082712 375.509863 
L 150.290611 374.595304 
L 150.49851 375.207422 
L 150.706408 374.483807 
L 150.914307 374.817195 
L 151.122206 374.819783 
L 151.330104 371.747824 
L 151.538003 374.485529 
L 151.745902 374.254005 
L 151.9538 376.459879 
L 152.161699 374.022607 
L 152.369598 375.506196 
L 152.577496 374.729692 
L 152.785395 371.978128 
L 153.201192 375.978222 
L 153.409091 374.173444 
L 153.61699 373.785368 
L 153.824888 375.474347 
L 154.032787 373.782636 
L 154.240686 374.808014 
L 154.448584 374.609823 
L 154.656483 376.303788 
L 154.864382 375.01405 
L 155.07228 372.724269 
L 155.488077 374.668483 
L 155.695976 374.838104 
L 155.903875 375.368997 
L 156.319672 374.638681 
L 156.527571 375.908331 
L 156.735469 374.939702 
L 156.943368 371.35353 
L 157.151267 372.009651 
L 157.359165 374.242519 
L 157.567064 373.881184 
L 157.774963 371.749329 
L 157.982861 375.255646 
L 158.19076 374.405909 
L 158.814456 374.197647 
L 159.022355 374.870852 
L 159.230253 374.967604 
L 159.438152 375.437913 
L 159.646051 374.96461 
L 159.853949 373.583888 
L 160.061848 374.729244 
L 160.269747 374.936033 
L 160.477645 371.184234 
L 160.685544 375.054217 
L 160.893443 375.124514 
L 161.101341 374.976663 
L 161.30924 375.109944 
L 161.517139 374.954911 
L 162.140835 373.633487 
L 162.348733 375.504933 
L 162.556632 374.968903 
L 162.764531 375.718777 
L 162.972429 374.295334 
L 163.180328 371.655272 
L 163.388227 375.729243 
L 163.596125 374.638387 
L 163.804024 374.224017 
L 164.011923 369.527563 
L 164.219821 374.966068 
L 164.42772 375.114498 
L 164.843517 374.558743 
L 165.051416 371.617161 
L 165.259314 375.382883 
L 165.467213 374.74628 
L 165.88301 375.659653 
L 166.090909 375.477847 
L 166.298808 373.634245 
L 166.506706 376.525398 
L 166.714605 375.479884 
L 166.922504 373.629235 
L 167.130402 373.993449 
L 167.338301 372.620445 
L 167.754098 374.757337 
L 167.961997 375.407791 
L 168.169896 375.617425 
L 168.377794 375.634385 
L 168.585693 374.088492 
L 168.793592 375.118134 
L 169.00149 375.203631 
L 169.209389 374.265684 
L 169.417288 375.155121 
L 169.625186 374.897504 
L 169.833085 374.986763 
L 170.040984 376.164732 
L 170.248882 374.990003 
L 170.456781 376.036199 
L 170.66468 375.072718 
L 170.872578 365.91506 
L 171.080477 375.102764 
L 171.288376 373.528972 
L 171.496274 375.776504 
L 171.704173 373.563323 
L 171.912072 374.235628 
L 172.11997 370.215439 
L 172.327869 372.818051 
L 172.535768 372.741904 
L 172.743666 371.593827 
L 172.951565 371.950491 
L 173.367362 374.630285 
L 173.575261 373.498397 
L 173.783159 374.595921 
L 173.991058 369.260784 
L 174.198957 371.126192 
L 174.406855 374.957009 
L 174.614754 374.815827 
L 174.822653 375.468693 
L 175.030551 374.506153 
L 175.23845 374.442109 
L 175.446349 371.17055 
L 175.654247 373.718025 
L 175.862146 374.879561 
L 176.070045 375.371705 
L 176.277943 373.834471 
L 176.485842 374.250409 
L 176.693741 375.218065 
L 176.901639 374.545212 
L 177.109538 372.035145 
L 177.317437 373.321086 
L 177.525335 373.156992 
L 177.733234 374.663883 
L 178.149031 375.180768 
L 178.772727 373.274005 
L 178.980626 374.157146 
L 179.188525 374.403983 
L 179.396423 375.185646 
L 179.604322 375.244814 
L 179.812221 374.902032 
L 180.020119 373.042999 
L 180.228018 368.985575 
L 180.435917 373.773506 
L 180.643815 373.77062 
L 180.851714 375.772959 
L 181.059613 374.581325 
L 181.267511 375.297659 
L 181.47541 373.76773 
L 181.683308 374.2086 
L 181.891207 373.616067 
L 182.099106 375.425808 
L 182.307004 375.432034 
L 182.514903 375.619786 
L 182.722802 374.980515 
L 182.9307 371.496688 
L 183.138599 375.284186 
L 183.346498 374.927523 
L 183.554396 374.349178 
L 183.762295 374.577467 
L 183.970194 376.024888 
L 184.178092 374.611262 
L 184.385991 375.199336 
L 184.59389 374.383976 
L 184.801788 375.110378 
L 185.009687 371.234482 
L 185.425484 375.062176 
L 185.633383 373.306609 
L 185.841282 375.154138 
L 186.257079 373.640124 
L 186.464978 373.879807 
L 186.672876 373.738053 
L 186.880775 374.869793 
L 187.296572 374.47647 
L 187.504471 375.142618 
L 187.71237 372.054757 
L 187.920268 373.363929 
L 188.336066 373.776958 
L 188.543964 375.413294 
L 188.751863 374.138555 
L 188.959762 374.233693 
L 189.16766 374.523242 
L 189.375559 373.816006 
L 189.583458 373.762002 
L 189.999255 374.259942 
L 190.207154 375.450861 
L 190.415052 375.911084 
L 190.622951 375.78728 
L 190.830849 375.10629 
L 191.038748 375.595032 
L 191.454545 373.617834 
L 191.662444 371.064087 
L 191.870343 371.642615 
L 192.078241 373.990527 
L 192.28614 373.260958 
L 192.494039 374.903166 
L 192.701937 373.771248 
L 192.909836 373.436682 
L 193.117735 375.560911 
L 193.325633 376.289603 
L 193.533532 375.658066 
L 193.741431 371.723542 
L 193.949329 372.674731 
L 194.157228 372.717555 
L 194.365127 373.951155 
L 194.573025 373.313183 
L 194.780924 373.576528 
L 194.988823 373.457136 
L 195.196721 370.875797 
L 195.40462 375.656453 
L 195.612519 374.367385 
L 195.820417 374.190949 
L 196.028316 375.826079 
L 196.444113 373.489518 
L 196.652012 374.864083 
L 196.859911 374.851922 
L 197.067809 374.429415 
L 197.275708 374.899721 
L 197.483607 374.64348 
L 197.691505 375.124832 
L 197.899404 376.00893 
L 198.107303 372.468642 
L 198.315201 374.008149 
L 198.5231 374.532137 
L 198.730999 373.895357 
L 198.938897 375.585758 
L 199.146796 375.08599 
L 199.354694 375.484545 
L 199.562593 372.918761 
L 199.770492 373.735353 
L 199.97839 374.039996 
L 200.186289 373.52096 
L 200.394188 375.686209 
L 200.602086 373.743428 
L 200.809985 374.652702 
L 201.017884 374.607679 
L 201.225782 373.4585 
L 201.433681 368.690867 
L 201.64158 375.797171 
L 202.057377 373.427554 
L 202.265276 363.159524 
L 202.473174 375.609162 
L 202.681073 376.215841 
L 202.888972 371.29434 
L 203.09687 372.788405 
L 203.304769 376.802969 
L 203.512668 373.223889 
L 203.720566 375.382056 
L 203.928465 375.557459 
L 204.136364 370.570749 
L 204.344262 372.199173 
L 204.552161 372.382549 
L 204.76006 375.139089 
L 204.967958 376.298158 
L 205.175857 372.51509 
L 205.383756 374.720949 
L 205.591654 375.072591 
L 205.799553 374.921238 
L 206.007452 377.371257 
L 206.21535 376.250721 
L 206.423249 368.6369 
L 206.631148 374.115872 
L 207.046945 375.121761 
L 207.254844 371.391018 
L 207.462742 374.188403 
L 207.670641 373.452102 
L 207.878539 373.807494 
L 208.086438 375.746695 
L 208.294337 373.737517 
L 208.710134 375.302198 
L 208.918033 373.420358 
L 209.125931 374.95729 
L 209.33383 375.246394 
L 209.541729 375.985431 
L 209.749627 373.253837 
L 209.957526 376.011871 
L 210.165425 374.880963 
L 210.373323 375.000034 
L 210.581222 373.175933 
L 210.789121 365.471185 
L 210.997019 374.288639 
L 211.204918 375.781358 
L 211.620715 373.065968 
L 212.036513 375.836375 
L 212.244411 375.582984 
L 212.45231 372.867782 
L 212.660209 373.428497 
L 212.868107 373.401298 
L 213.076006 373.028994 
L 213.283905 374.103714 
L 213.491803 371.404862 
L 213.699702 373.043757 
L 213.907601 369.650254 
L 214.115499 374.156548 
L 214.323398 375.151825 
L 214.739195 370.795721 
L 214.947094 374.633128 
L 215.154993 373.165616 
L 215.362891 374.726041 
L 215.57079 374.453277 
L 215.778689 370.384359 
L 215.986587 373.469496 
L 216.194486 374.743491 
L 216.402385 375.022468 
L 216.610283 372.990473 
L 216.818182 375.742734 
L 217.02608 373.214232 
L 217.233979 375.603743 
L 217.441878 372.136105 
L 217.649776 376.416014 
L 217.857675 369.871475 
L 218.065574 374.643763 
L 218.273472 375.253757 
L 218.68927 374.763044 
L 218.897168 374.076421 
L 219.105067 374.279278 
L 219.312966 374.695699 
L 219.520864 376.438455 
L 219.728763 376.193945 
L 219.936662 375.410825 
L 220.14456 373.181884 
L 220.352459 375.970955 
L 220.560358 376.014115 
L 220.768256 373.881171 
L 220.976155 375.397522 
L 221.184054 374.373439 
L 221.391952 374.266876 
L 221.599851 372.36042 
L 221.80775 376.137508 
L 222.015648 375.740172 
L 222.223547 376.551006 
L 222.431446 374.86691 
L 222.639344 374.525982 
L 222.847243 376.189626 
L 223.055142 375.660806 
L 223.26304 375.776761 
L 223.470939 372.523693 
L 223.678838 374.439118 
L 223.886736 374.61554 
L 224.094635 374.165447 
L 224.302534 367.497569 
L 224.510432 373.723782 
L 224.718331 374.495195 
L 224.92623 374.740112 
L 225.134128 376.412461 
L 225.342027 376.132503 
L 225.549925 375.301419 
L 225.757824 373.681509 
L 225.965723 374.456231 
L 226.173621 370.050025 
L 226.38152 363.094036 
L 226.797317 374.405824 
L 227.005216 369.717504 
L 227.213115 375.174608 
L 227.421013 375.288145 
L 227.628912 374.675311 
L 227.836811 372.451422 
L 228.044709 372.533788 
L 228.252608 374.453266 
L 228.460507 371.444416 
L 228.668405 373.402143 
L 228.876304 372.804019 
L 229.084203 375.275154 
L 229.292101 375.150974 
L 229.5 376.608053 
L 229.707899 375.417793 
L 229.915797 371.780019 
L 230.123696 362.896531 
L 230.331595 375.3936 
L 230.539493 374.487484 
L 230.747392 375.444526 
L 230.955291 374.428742 
L 231.163189 374.876952 
L 231.371088 374.955168 
L 231.578987 371.652495 
L 231.786885 375.364694 
L 231.994784 375.84195 
L 232.202683 374.071493 
L 232.410581 375.571231 
L 232.61848 373.891425 
L 232.826379 370.320638 
L 233.034277 373.427226 
L 233.242176 374.162302 
L 233.450075 375.489224 
L 233.657973 373.915694 
L 233.865872 374.973931 
L 234.07377 372.787566 
L 234.281669 372.314779 
L 234.905365 374.538623 
L 235.113264 372.765469 
L 235.321162 373.760539 
L 235.529061 374.161391 
L 235.73696 376.150016 
L 235.944858 374.132593 
L 236.152757 374.60672 
L 236.360656 372.99065 
L 236.568554 372.641766 
L 236.776453 375.120664 
L 237.400149 374.080517 
L 237.608048 375.999945 
L 238.023845 374.179948 
L 238.231744 374.769061 
L 238.439642 374.572616 
L 238.647541 365.186655 
L 238.85544 372.526078 
L 239.063338 375.150964 
L 239.271237 373.276182 
L 239.479136 374.946639 
L 239.687034 372.387874 
L 239.894933 373.462178 
L 240.102832 371.764877 
L 240.518629 373.561103 
L 240.726528 373.187371 
L 240.934426 369.342135 
L 241.142325 375.134126 
L 241.350224 372.788098 
L 241.766021 374.283014 
L 241.97392 373.903941 
L 242.181818 375.503104 
L 242.389717 375.503165 
L 242.597615 374.674047 
L 242.805514 365.228652 
L 243.013413 375.143794 
L 243.221311 370.477534 
L 243.42921 374.348618 
L 243.637109 375.332701 
L 243.845007 375.048157 
L 244.052906 374.227239 
L 244.260805 376.751998 
L 244.468703 375.292932 
L 244.676602 376.066761 
L 244.884501 375.135135 
L 245.092399 375.411487 
L 245.508197 371.573884 
L 245.923994 375.30495 
L 246.339791 373.996695 
L 246.54769 372.90762 
L 246.963487 375.728477 
L 247.171386 375.914944 
L 247.379285 375.798784 
L 247.587183 372.700953 
L 248.002981 375.357103 
L 248.418778 374.536026 
L 248.626677 374.396021 
L 248.834575 373.325098 
L 249.042474 373.336387 
L 249.250373 373.83052 
L 249.458271 376.163319 
L 249.66617 375.948023 
L 249.874069 376.825431 
L 250.081967 373.750786 
L 250.289866 373.928282 
L 250.497765 371.269122 
L 250.705663 373.46616 
L 250.913562 372.95264 
L 251.121461 374.696541 
L 251.329359 372.858286 
L 251.745156 375.944565 
L 251.953055 372.188647 
L 252.160954 375.508796 
L 252.368852 374.409851 
L 252.576751 375.69876 
L 252.78465 375.131079 
L 252.992548 368.692979 
L 253.200447 375.358839 
L 253.408346 372.452127 
L 253.824143 373.974821 
L 254.23994 371.941954 
L 254.447839 369.357227 
L 254.655738 376.12394 
L 254.863636 373.446427 
L 255.071535 375.407486 
L 255.279434 373.721512 
L 255.695231 375.629033 
L 255.90313 374.954431 
L 256.111028 375.129315 
L 256.734724 373.816078 
L 256.942623 374.42109 
L 257.150522 374.478534 
L 257.35842 373.706608 
L 257.566319 375.130178 
L 257.982116 373.859424 
L 258.190015 374.848445 
L 258.397914 374.188562 
L 258.605812 374.999057 
L 258.813711 370.335971 
L 259.02161 372.704087 
L 259.229508 373.672787 
L 259.437407 372.770511 
L 259.645306 375.284252 
L 259.853204 373.55136 
L 260.061103 374.453126 
L 260.4769 374.063232 
L 260.684799 367.776255 
L 260.892697 372.533798 
L 261.100596 372.303855 
L 261.308495 372.904345 
L 261.516393 374.45927 
L 261.724292 372.234762 
L 262.140089 375.31854 
L 262.347988 373.115066 
L 262.555887 373.917769 
L 262.763785 372.32604 
L 262.971684 374.535221 
L 263.179583 374.937143 
L 263.387481 374.605417 
L 263.59538 373.046581 
L 263.803279 372.653267 
L 264.011177 374.657676 
L 264.219076 372.364593 
L 264.426975 372.915818 
L 264.634873 375.69624 
L 264.842772 376.241347 
L 265.050671 374.283308 
L 265.258569 375.001778 
L 265.674367 369.636122 
L 265.882265 375.191093 
L 266.298063 371.974092 
L 266.505961 373.544294 
L 266.71386 373.022267 
L 266.921759 375.858003 
L 267.129657 375.174481 
L 267.337556 376.335673 
L 267.545455 375.79317 
L 267.753353 376.7975 
L 267.961252 374.620418 
L 268.169151 375.406824 
L 268.377049 375.520755 
L 268.584948 375.086543 
L 268.792846 371.064638 
L 269.000745 375.28576 
L 269.208644 373.755876 
L 269.416542 366.318784 
L 269.624441 373.141672 
L 269.83234 375.032517 
L 270.040238 375.638031 
L 270.248137 374.863442 
L 270.456036 373.643296 
L 270.663934 374.169925 
L 270.871833 373.866657 
L 271.079732 374.545453 
L 271.28763 374.249845 
L 271.495529 374.821182 
L 271.703428 372.397539 
L 272.119225 375.132401 
L 272.327124 374.59293 
L 272.535022 367.04277 
L 272.742921 374.373187 
L 273.158718 374.597378 
L 273.366617 371.870049 
L 273.782414 375.572357 
L 273.990313 374.420383 
L 274.198212 372.017314 
L 274.40611 374.309766 
L 274.614009 374.347389 
L 274.821908 373.9022 
L 275.029806 375.52926 
L 275.237705 375.484235 
L 275.445604 375.028074 
L 275.653502 368.437222 
L 275.861401 375.968898 
L 276.0693 374.83648 
L 276.277198 375.546429 
L 276.692996 373.421587 
L 277.108793 369.155543 
L 277.316692 375.24474 
L 277.52459 374.906271 
L 277.732489 375.554738 
L 277.940387 373.440714 
L 278.148286 367.421059 
L 278.356185 372.200668 
L 278.564083 372.916859 
L 278.771982 375.334712 
L 278.979881 373.447497 
L 279.187779 375.184506 
L 279.395678 375.187209 
L 279.603577 374.538787 
L 279.811475 376.161579 
L 280.019374 375.484947 
L 280.435171 372.808754 
L 280.64307 373.693287 
L 280.850969 376.456829 
L 281.058867 376.105645 
L 281.266766 375.29688 
L 281.474665 375.926718 
L 281.682563 375.235594 
L 281.890462 375.658948 
L 282.098361 375.145135 
L 282.514158 372.629493 
L 282.929955 376.813678 
L 283.137854 375.524089 
L 283.345753 376.173756 
L 283.553651 375.173802 
L 283.76155 375.159813 
L 283.969449 374.09917 
L 284.177347 372.439608 
L 284.385246 373.260474 
L 284.801043 375.867791 
L 285.008942 373.23937 
L 285.216841 372.591393 
L 285.424739 368.198051 
L 285.632638 374.393994 
L 285.840537 375.57355 
L 286.048435 373.983013 
L 286.256334 375.317546 
L 286.464232 375.731707 
L 286.88003 373.072769 
L 287.087928 373.749104 
L 287.295827 375.297807 
L 287.503726 371.802269 
L 287.711624 372.864841 
L 287.919523 374.946228 
L 288.127422 375.103217 
L 288.33532 371.611285 
L 288.543219 374.122441 
L 288.751118 375.092714 
L 289.166915 373.118388 
L 289.374814 374.698926 
L 289.790611 371.316728 
L 289.99851 373.71577 
L 290.206408 373.418644 
L 290.414307 373.771238 
L 290.622206 374.922772 
L 290.830104 375.203662 
L 291.038003 373.875085 
L 291.245902 375.821281 
L 291.4538 375.716143 
L 291.661699 373.421442 
L 291.869598 374.970119 
L 292.077496 373.527292 
L 292.285395 362.772651 
L 292.493294 373.480293 
L 292.701192 376.26067 
L 292.909091 374.31577 
L 293.11699 374.598663 
L 293.324888 376.114621 
L 293.532787 373.230298 
L 293.740686 374.22326 
L 293.948584 350.28453 
L 294.156483 374.85809 
L 294.364382 374.556075 
L 294.57228 373.242963 
L 294.780179 373.039316 
L 294.988077 375.307603 
L 295.195976 374.873913 
L 295.403875 373.244078 
L 295.611773 362.751905 
L 295.819672 374.512475 
L 296.027571 375.071674 
L 296.443368 371.720609 
L 296.651267 375.415575 
L 296.859165 375.049501 
L 297.067064 372.866163 
L 297.482861 375.069399 
L 297.69076 375.582606 
L 297.898659 374.585765 
L 298.106557 374.731902 
L 298.314456 375.948969 
L 298.522355 375.020754 
L 298.730253 374.883037 
L 298.938152 371.537112 
L 299.146051 374.102233 
L 299.353949 372.964306 
L 299.561848 373.20476 
L 299.769747 376.507506 
L 299.977645 373.988145 
L 300.185544 374.685949 
L 300.393443 372.716063 
L 300.601341 367.123246 
L 300.80924 375.925235 
L 301.017139 375.97921 
L 301.225037 374.982625 
L 301.432936 372.058183 
L 301.848733 375.237573 
L 302.056632 375.133866 
L 302.264531 372.775441 
L 302.472429 375.168681 
L 302.680328 370.788862 
L 302.888227 372.432131 
L 303.096125 375.956729 
L 303.304024 373.079804 
L 303.511923 373.938308 
L 303.719821 374.075128 
L 304.135618 375.326335 
L 304.343517 373.538351 
L 304.551416 374.508368 
L 304.759314 376.123577 
L 305.175112 373.961883 
L 305.590909 376.484835 
L 305.798808 375.112829 
L 306.006706 375.875691 
L 306.214605 374.681895 
L 306.422504 376.472294 
L 306.630402 375.334312 
L 306.838301 375.185744 
L 307.0462 373.922064 
L 307.461997 374.575697 
L 307.669896 372.71725 
L 307.877794 373.318718 
L 308.293592 376.000663 
L 308.709389 375.911767 
L 308.917288 373.299546 
L 309.125186 373.537766 
L 309.540984 375.865562 
L 309.748882 375.359589 
L 309.956781 373.003548 
L 310.16468 375.365447 
L 310.372578 375.045052 
L 310.580477 373.039796 
L 310.788376 373.43027 
L 310.996274 370.863159 
L 311.204173 373.549426 
L 311.412072 372.396874 
L 311.827869 376.290692 
L 312.035768 370.562996 
L 312.243666 375.923663 
L 312.451565 374.977543 
L 312.659463 375.408665 
L 312.867362 371.509509 
L 313.075261 370.710439 
L 313.283159 371.171048 
L 313.698957 375.911982 
L 313.906855 375.777461 
L 314.322653 374.017891 
L 314.530551 376.334539 
L 314.73845 375.104139 
L 314.946349 375.457676 
L 315.154247 374.949249 
L 315.362146 374.853697 
L 315.570045 375.316455 
L 315.777943 374.089974 
L 315.985842 376.639084 
L 316.193741 374.595868 
L 316.401639 374.980113 
L 316.609538 370.634923 
L 316.817437 375.68936 
L 317.025335 373.623639 
L 317.233234 374.043867 
L 317.441133 375.368737 
L 317.649031 368.619964 
L 317.85693 375.72786 
L 318.064829 374.326665 
L 318.272727 371.846966 
L 318.480626 375.268673 
L 318.688525 372.968996 
L 319.104322 372.338235 
L 319.312221 366.695062 
L 319.520119 373.916714 
L 319.728018 373.903544 
L 319.935917 374.149723 
L 320.143815 373.296139 
L 320.351714 369.662328 
L 320.559613 370.699732 
L 320.97541 374.378134 
L 321.183308 374.135315 
L 321.391207 374.836104 
L 321.599106 373.587372 
L 321.807004 374.149137 
L 322.014903 374.114275 
L 322.222802 372.90917 
L 322.4307 374.464301 
L 322.638599 368.28744 
L 322.846498 373.216791 
L 323.054396 373.178291 
L 323.470194 374.949935 
L 323.678092 366.29363 
L 323.885991 374.115406 
L 324.09389 375.168922 
L 324.301788 374.855869 
L 324.509687 373.162394 
L 324.717586 374.601321 
L 324.925484 372.906256 
L 325.133383 375.199776 
L 325.341282 374.271974 
L 325.54918 372.5072 
L 325.757079 373.372709 
L 325.964978 372.38134 
L 326.172876 369.036909 
L 326.380775 375.741078 
L 326.588674 374.832766 
L 326.796572 372.185505 
L 327.004471 374.884113 
L 327.21237 374.345895 
L 327.420268 371.381329 
L 327.836066 374.80293 
L 328.043964 371.668011 
L 328.251863 372.32795 
L 328.459762 373.735189 
L 328.66766 376.462324 
L 328.875559 361.363847 
L 329.083458 374.302573 
L 329.291356 375.335221 
L 329.499255 371.676648 
L 329.915052 375.534406 
L 330.122951 373.83313 
L 330.330849 375.241386 
L 330.538748 373.093025 
L 330.746647 375.786382 
L 330.954545 375.815397 
L 331.162444 375.203442 
L 331.370343 375.642455 
L 331.78614 373.462597 
L 331.994039 374.738366 
L 332.201937 374.999981 
L 332.409836 373.251232 
L 332.825633 375.463833 
L 333.033532 374.671633 
L 333.241431 370.235019 
L 333.449329 375.704573 
L 333.657228 374.383335 
L 333.865127 376.166364 
L 334.073025 373.949963 
L 334.280924 375.962664 
L 334.696721 373.18306 
L 334.90462 374.876125 
L 335.112519 374.153498 
L 335.320417 369.757321 
L 335.528316 375.483397 
L 335.736215 375.298067 
L 335.944113 375.737178 
L 336.152012 374.764928 
L 336.567809 376.201335 
L 336.775708 372.385341 
L 336.983607 375.229172 
L 337.191505 362.458621 
L 337.399404 374.311054 
L 337.607303 375.457859 
L 337.815201 375.97806 
L 338.230999 374.084865 
L 338.438897 375.651816 
L 338.646796 369.933166 
L 338.854694 373.62769 
L 339.062593 372.669246 
L 339.270492 375.414616 
L 339.686289 373.134943 
L 339.894188 373.830624 
L 340.102086 375.189821 
L 340.725782 370.334066 
L 340.933681 371.243965 
L 341.14158 375.87044 
L 341.349478 374.553092 
L 341.557377 365.139446 
L 341.765276 374.213361 
L 341.973174 374.341285 
L 342.181073 375.392225 
L 342.59687 375.002877 
L 342.804769 375.097089 
L 343.012668 376.08473 
L 343.220566 375.562175 
L 343.428465 374.261622 
L 343.636364 375.594579 
L 344.26006 372.366882 
L 344.467958 372.759889 
L 344.675857 375.035538 
L 344.883756 374.149214 
L 345.091654 375.059065 
L 345.299553 363.649919 
L 345.507452 374.396291 
L 345.71535 374.991185 
L 346.131148 374.302414 
L 346.339046 374.706919 
L 346.546945 375.897698 
L 346.754844 372.504013 
L 346.962742 374.478776 
L 347.170641 375.347904 
L 347.378539 373.395874 
L 347.586438 375.942448 
L 347.794337 374.998008 
L 348.210134 375.850304 
L 348.418033 375.771812 
L 348.625931 372.258591 
L 348.83383 375.605047 
L 349.873323 375.475968 
L 350.081222 375.82919 
L 350.289121 373.547383 
L 350.497019 375.31486 
L 350.704918 375.282631 
L 350.912817 374.352521 
L 351.120715 376.271342 
L 351.328614 376.325096 
L 351.536513 364.925334 
L 351.744411 375.54874 
L 351.95231 375.586975 
L 352.160209 373.79459 
L 352.368107 374.614226 
L 352.576006 374.142619 
L 352.783905 374.503336 
L 352.991803 373.737703 
L 353.407601 375.525297 
L 353.615499 373.497382 
L 354.031297 376.01921 
L 354.239195 376.432923 
L 354.447094 374.661547 
L 354.654993 375.375483 
L 354.862891 369.590092 
L 355.278689 375.045847 
L 355.486587 375.368332 
L 355.694486 371.007499 
L 355.902385 374.85685 
L 356.110283 375.373525 
L 356.318182 373.210316 
L 356.52608 376.315735 
L 356.733979 360.742434 
L 356.941878 375.115982 
L 357.149776 374.059605 
L 357.357675 375.875175 
L 357.565574 375.87062 
L 357.773472 376.116781 
L 357.981371 373.006102 
L 358.18927 373.531033 
L 358.397168 370.757409 
L 358.605067 370.706218 
L 358.812966 364.718291 
L 359.020864 370.865753 
L 359.228763 364.134233 
L 359.436662 373.194082 
L 359.852459 374.052743 
L 360.060358 373.085137 
L 360.268256 374.067262 
L 360.476155 373.920469 
L 360.684054 371.617498 
L 360.891952 375.482134 
L 361.099851 374.242439 
L 361.30775 371.320798 
L 361.515648 374.166889 
L 361.723547 373.758292 
L 361.931446 374.628984 
L 362.139344 372.44557 
L 362.347243 373.506819 
L 362.555142 373.093862 
L 362.76304 371.405911 
L 363.178838 375.754439 
L 363.386736 373.828735 
L 363.594635 372.943327 
L 364.010432 374.520246 
L 364.218331 372.203815 
L 364.42623 372.265846 
L 364.634128 374.666925 
L 364.842027 371.920729 
L 365.049925 374.592076 
L 365.257824 375.0976 
L 365.465723 375.220911 
L 365.88152 373.871673 
L 366.089419 371.291995 
L 366.297317 375.202255 
L 366.505216 375.286065 
L 367.128912 372.842585 
L 367.336811 374.602754 
L 367.544709 373.660907 
L 367.752608 374.819651 
L 368.168405 373.891706 
L 368.376304 374.883644 
L 368.584203 373.547007 
L 368.792101 371.22926 
L 369.207899 374.973221 
L 369.415797 371.585873 
L 369.623696 374.408919 
L 369.831595 375.510036 
L 370.039493 373.955005 
L 370.247392 374.560677 
L 370.663189 375.025104 
L 370.871088 373.744435 
L 371.078987 375.946796 
L 371.286885 375.083711 
L 371.494784 374.849964 
L 371.702683 374.947203 
L 371.910581 376.029572 
L 372.11848 374.587517 
L 372.326379 375.926459 
L 372.534277 373.969442 
L 372.742176 364.992533 
L 372.950075 376.194748 
L 373.57377 373.459293 
L 373.989568 375.55961 
L 374.197466 373.865179 
L 374.405365 374.888514 
L 374.613264 374.602624 
L 374.821162 375.21655 
L 375.029061 371.551329 
L 375.23696 375.462477 
L 375.652757 373.467344 
L 375.860656 376.383244 
L 376.068554 375.792192 
L 376.276453 374.338291 
L 376.484352 375.487615 
L 376.69225 375.722105 
L 376.900149 372.849394 
L 377.315946 376.706347 
L 377.731744 372.096145 
L 378.147541 374.987725 
L 378.35544 375.131699 
L 378.563338 375.544771 
L 378.771237 374.132498 
L 378.979136 375.575534 
L 379.187034 375.888428 
L 379.394933 375.353521 
L 379.602832 374.453762 
L 379.81073 371.943377 
L 380.018629 375.663113 
L 380.226528 375.242822 
L 380.434426 376.197101 
L 380.642325 375.947165 
L 380.850224 374.442615 
L 381.058122 376.166904 
L 381.47392 373.280763 
L 381.681818 375.743129 
L 382.097615 372.616164 
L 382.305514 373.237704 
L 382.513413 375.734454 
L 382.721311 374.703337 
L 382.92921 374.839787 
L 383.137109 375.870536 
L 383.552906 374.751587 
L 383.760805 374.846734 
L 383.968703 374.362014 
L 384.176602 374.90134 
L 384.384501 374.989627 
L 384.592399 367.268336 
L 384.800298 373.242992 
L 385.008197 373.064447 
L 385.216095 376.446191 
L 385.423994 374.701798 
L 385.631893 375.51565 
L 385.839791 374.76771 
L 386.04769 374.957915 
L 386.255589 376.279373 
L 386.463487 373.429597 
L 386.671386 375.064211 
L 386.879285 375.64972 
L 387.087183 375.039801 
L 387.295082 375.163779 
L 387.502981 374.882515 
L 387.710879 375.259196 
L 387.918778 377.465333 
L 388.126677 373.184213 
L 388.334575 375.273132 
L 388.542474 375.160526 
L 388.750373 375.334098 
L 388.958271 373.894225 
L 389.16617 375.967539 
L 389.374069 375.947485 
L 389.581967 373.975528 
L 389.789866 374.847513 
L 389.997765 358.948081 
L 390.205663 374.938383 
L 390.413562 375.217122 
L 390.621461 373.239958 
L 390.829359 372.818711 
L 391.245156 374.210272 
L 391.453055 374.74928 
L 391.660954 373.258653 
L 392.076751 375.533828 
L 392.28465 375.513183 
L 392.492548 374.307726 
L 392.700447 376.077632 
L 392.908346 375.368955 
L 393.532042 375.677532 
L 393.73994 376.29066 
L 393.947839 372.816077 
L 394.155738 375.841012 
L 394.363636 374.988589 
L 394.571535 374.805129 
L 394.779434 375.121096 
L 394.987332 375.001097 
L 395.195231 342.69165 
L 395.40313 374.513248 
L 395.611028 374.51364 
L 395.818927 374.755896 
L 396.026826 373.50372 
L 396.234724 375.974137 
L 396.442623 376.040305 
L 396.650522 375.301432 
L 396.85842 371.396762 
L 397.066319 374.600155 
L 397.274218 374.49038 
L 397.690015 375.692807 
L 397.897914 374.443116 
L 398.105812 374.871231 
L 398.313711 374.064705 
L 398.52161 376.024716 
L 398.729508 375.692836 
L 399.145306 373.129728 
L 399.353204 373.271843 
L 399.561103 374.72585 
L 399.769001 374.739548 
L 399.9769 372.996797 
L 400.184799 374.354381 
L 400.392697 374.913199 
L 400.600596 372.255399 
L 400.808495 374.349281 
L 401.016393 374.648845 
L 401.224292 375.359782 
L 401.432191 374.781808 
L 401.640089 375.150905 
L 401.847988 374.0239 
L 402.055887 374.564508 
L 402.263785 374.614489 
L 402.679583 375.573338 
L 402.887481 374.901065 
L 403.09538 375.143262 
L 403.303279 374.663372 
L 403.511177 375.743296 
L 403.719076 374.783874 
L 403.926975 369.795013 
L 404.134873 375.057309 
L 404.550671 372.235713 
L 404.758569 369.899878 
L 404.966468 371.570514 
L 405.174367 371.077989 
L 405.382265 371.091488 
L 405.798063 374.750464 
L 406.21386 374.866727 
L 406.421759 370.425225 
L 406.629657 374.876051 
L 406.837556 375.488129 
L 407.045455 375.648401 
L 407.253353 372.482014 
L 407.461252 375.205215 
L 407.669151 375.816117 
L 407.877049 375.846695 
L 408.292846 369.570011 
L 408.500745 375.158902 
L 408.708644 371.708318 
L 409.124441 370.841166 
L 409.33234 374.962602 
L 409.540238 368.281903 
L 409.748137 373.329901 
L 409.956036 365.459339 
L 410.163934 365.413288 
L 410.371833 372.89078 
L 410.579732 373.874688 
L 410.78763 359.93001 
L 411.203428 368.493407 
L 411.411326 368.709205 
L 411.619225 369.622161 
L 411.827124 373.979653 
L 412.035022 373.801747 
L 412.242921 375.627883 
L 412.45082 374.658553 
L 412.658718 371.203955 
L 412.866617 375.288685 
L 413.282414 375.439476 
L 413.698212 370.100808 
L 414.114009 372.320632 
L 414.529806 369.664016 
L 414.945604 375.189827 
L 415.153502 376.057101 
L 415.5693 374.139305 
L 415.777198 370.794055 
L 415.985097 374.605531 
L 416.400894 366.342598 
L 416.608793 366.550057 
L 416.816692 374.748744 
L 417.02459 374.348089 
L 417.232489 368.937179 
L 417.440387 369.778133 
L 417.648286 371.549013 
L 417.856185 374.784357 
L 418.064083 375.577953 
L 418.271982 374.484967 
L 418.479881 374.122006 
L 418.687779 374.87063 
L 419.103577 373.697695 
L 419.311475 373.775384 
L 419.519374 369.860153 
L 419.727273 375.445358 
L 419.935171 375.008171 
L 420.14307 374.925838 
L 420.350969 372.503483 
L 420.766766 374.116132 
L 420.974665 374.826017 
L 421.182563 372.860928 
L 421.390462 368.780569 
L 421.598361 373.529611 
L 421.806259 374.015104 
L 422.014158 375.850768 
L 422.222057 374.431066 
L 422.429955 374.938653 
L 422.637854 374.960647 
L 422.845753 371.005907 
L 423.053651 374.967504 
L 423.26155 375.288057 
L 423.469449 374.680382 
L 423.677347 371.810507 
L 424.301043 375.648668 
L 424.508942 372.475994 
L 424.716841 372.656431 
L 424.924739 375.514389 
L 425.132638 372.010028 
L 425.340537 375.224405 
L 425.548435 376.021473 
L 425.756334 374.162191 
L 425.964232 375.88515 
L 426.172131 374.792925 
L 426.38003 369.934613 
L 426.587928 371.040724 
L 426.795827 370.982511 
L 427.003726 369.864795 
L 427.211624 373.553395 
L 427.419523 374.896431 
L 427.83532 371.548438 
L 428.043219 375.110018 
L 428.251118 374.443052 
L 428.459016 375.165761 
L 428.666915 374.31284 
L 428.874814 371.254518 
L 429.082712 374.154712 
L 429.290611 374.26136 
L 429.49851 372.898434 
L 429.706408 365.936291 
L 429.914307 373.818447 
L 430.122206 374.632238 
L 430.330104 372.670873 
L 430.538003 372.917921 
L 430.9538 372.606276 
L 431.161699 369.480471 
L 431.369598 375.456579 
L 431.577496 355.414743 
L 431.785395 374.799125 
L 431.993294 374.732545 
L 432.201192 374.95561 
L 432.409091 374.618765 
L 432.61699 376.459134 
L 433.032787 370.312827 
L 433.240686 375.60533 
L 433.448584 373.088372 
L 433.656483 376.040178 
L 433.864382 374.758585 
L 434.07228 375.422665 
L 434.280179 375.211905 
L 434.488077 372.181223 
L 434.695976 375.265399 
L 434.903875 371.648945 
L 435.111773 373.356902 
L 435.319672 371.940454 
L 435.527571 371.94986 
L 435.735469 367.925838 
L 435.943368 373.092148 
L 436.151267 374.524119 
L 436.359165 375.056813 
L 436.567064 375.159074 
L 436.774963 369.780891 
L 437.398659 375.127304 
L 437.606557 373.250935 
L 437.814456 375.7273 
L 438.022355 375.447136 
L 438.230253 374.417355 
L 438.438152 371.823873 
L 438.646051 374.759581 
L 438.853949 375.709973 
L 439.269747 373.553567 
L 439.477645 373.467877 
L 439.685544 373.617248 
L 440.101341 353.723739 
L 440.30924 358.515605 
L 440.517139 359.892459 
L 440.725037 318.57142 
L 440.932936 367.728932 
L 441.348733 363.96316 
L 441.556632 354.547956 
L 441.764531 367.98263 
L 441.972429 369.073247 
L 442.180328 369.15508 
L 442.388227 372.199748 
L 442.596125 372.918743 
L 442.804024 360.073902 
L 443.011923 360.0588 
L 443.219821 369.733971 
L 443.42772 374.054444 
L 443.635618 371.56366 
L 443.843517 370.730421 
L 444.051416 372.599241 
L 444.259314 371.286487 
L 444.467213 371.025134 
L 444.675112 374.559837 
L 444.88301 371.695261 
L 445.090909 373.246686 
L 445.298808 373.686096 
L 445.506706 371.33935 
L 445.714605 372.33472 
L 445.922504 373.943162 
L 446.130402 371.404247 
L 446.338301 373.908011 
L 446.5462 373.853047 
L 446.754098 372.953655 
L 446.961997 375.369718 
L 447.169896 373.775943 
L 447.377794 373.318341 
L 447.585693 373.62786 
L 447.793592 362.883077 
L 448.00149 360.163617 
L 448.209389 361.817771 
L 448.417288 372.396215 
L 448.625186 371.731904 
L 449.040984 374.263903 
L 449.248882 371.825728 
L 449.456781 363.68214 
L 449.66468 362.199184 
L 449.872578 371.429192 
L 450.080477 372.438888 
L 450.288376 370.744149 
L 450.496274 371.540681 
L 450.704173 373.13915 
L 450.912072 372.811819 
L 451.11997 371.417153 
L 451.327869 372.99064 
L 451.535768 364.758211 
L 451.743666 371.980973 
L 451.951565 372.605544 
L 452.159463 371.928277 
L 452.367362 372.81524 
L 452.575261 372.765723 
L 452.783159 372.268008 
L 452.991058 372.437404 
L 453.198957 374.429762 
L 453.406855 374.552244 
L 453.614754 373.053968 
L 454.030551 371.73907 
L 454.23845 373.443327 
L 454.446349 369.147666 
L 454.862146 373.192617 
L 455.277943 373.836948 
L 455.693741 369.218837 
L 455.901639 371.683913 
L 456.109538 371.490642 
L 456.317437 367.183825 
L 456.525335 358.815632 
L 456.733234 363.810765 
L 456.941133 342.760251 
L 457.149031 367.706702 
L 457.35693 367.656094 
L 457.772727 372.786461 
L 457.980626 366.909304 
L 458.188525 373.383888 
L 458.604322 367.584348 
L 458.812221 372.062008 
L 459.020119 366.761771 
L 459.228018 344.91372 
L 459.435917 364.386318 
L 459.643815 371.260951 
L 459.851714 346.824211 
L 460.267511 371.687002 
L 460.47541 372.715003 
L 460.683308 360.188265 
L 460.891207 359.869119 
L 461.099106 367.479934 
L 461.307004 362.873277 
L 461.514903 374.953485 
L 461.722802 373.274627 
L 461.9307 375.314271 
L 462.138599 375.684503 
L 462.346498 374.531021 
L 462.554396 371.573495 
L 462.762295 374.11866 
L 462.970194 372.997213 
L 463.385991 375.633622 
L 463.59389 375.001081 
L 464.009687 374.411966 
L 464.217586 374.485129 
L 464.425484 362.970503 
L 464.633383 359.812388 
L 464.841282 363.885866 
L 465.04918 373.044708 
L 465.257079 361.070411 
L 465.464978 371.961152 
L 465.672876 372.569768 
L 465.880775 375.90203 
L 466.088674 376.191476 
L 466.296572 375.61835 
L 466.504471 372.483362 
L 466.71237 373.136707 
L 467.128167 374.959455 
L 467.336066 375.632403 
L 467.543964 372.938436 
L 467.959762 373.807218 
L 468.16766 365.854956 
L 468.375559 365.140116 
L 468.583458 351.984218 
L 468.791356 370.761911 
L 468.999255 373.005376 
L 469.207154 371.547532 
L 469.415052 373.201093 
L 469.622951 373.57329 
L 469.830849 375.429551 
L 470.246647 374.435051 
L 470.454545 374.521287 
L 470.662444 374.879015 
L 470.870343 374.81255 
L 471.078241 375.662981 
L 471.28614 374.359797 
L 471.494039 370.688013 
L 471.701937 375.190102 
L 471.909836 370.564456 
L 472.325633 374.467478 
L 472.533532 369.655717 
L 472.741431 375.349693 
L 472.949329 375.011282 
L 473.157228 375.240631 
L 473.365127 373.572541 
L 473.573025 374.257918 
L 473.780924 373.401562 
L 474.196721 376.039208 
L 474.40462 376.324431 
L 474.612519 374.652803 
L 474.820417 375.229863 
L 475.028316 372.586963 
L 475.236215 373.932129 
L 475.652012 374.907524 
L 475.859911 372.96782 
L 476.067809 372.565198 
L 476.275708 361.503508 
L 476.483607 372.574108 
L 476.691505 373.638516 
L 477.107303 370.382446 
L 477.315201 369.566697 
L 477.5231 344.838177 
L 477.730999 368.140498 
L 477.938897 374.109887 
L 478.146796 371.352706 
L 478.562593 375.8338 
L 478.770492 374.11423 
L 479.186289 374.535348 
L 479.602086 375.663763 
L 479.809985 375.468754 
L 480.017884 374.908587 
L 480.225782 372.694883 
L 480.433681 372.263315 
L 480.849478 368.990513 
L 481.057377 374.515193 
L 481.265276 373.849695 
L 481.473174 369.372533 
L 481.681073 370.935488 
L 481.888972 367.052443 
L 482.09687 353.431843 
L 482.304769 349.78372 
L 482.512668 369.203502 
L 482.720566 372.281229 
L 482.928465 367.600682 
L 483.136364 373.943093 
L 483.344262 374.189953 
L 483.552161 375.900957 
L 483.967958 374.675284 
L 484.175857 366.781052 
L 484.383756 369.375606 
L 484.591654 374.866332 
L 484.799553 374.494371 
L 485.007452 375.911839 
L 485.21535 375.74186 
L 485.423249 370.560408 
L 485.631148 373.838766 
L 486.046945 376.172479 
L 486.254844 373.20623 
L 486.670641 375.682405 
L 486.878539 350.888236 
L 487.086438 373.503998 
L 487.294337 372.093262 
L 487.502235 372.147081 
L 487.710134 370.791135 
L 487.918033 374.176867 
L 488.125931 373.07855 
L 488.33383 373.776852 
L 488.749627 367.238905 
L 489.165425 374.780274 
L 489.373323 369.848837 
L 489.581222 373.450054 
L 489.789121 373.917522 
L 489.997019 368.27114 
L 490.204918 356.539072 
L 490.412817 372.313635 
L 490.620715 375.039554 
L 490.828614 374.067776 
L 491.244411 362.935922 
L 491.45231 374.383751 
L 491.660209 373.286863 
L 491.868107 374.885271 
L 492.076006 372.27194 
L 492.283905 366.857387 
L 492.491803 372.933749 
L 492.699702 370.008998 
L 492.907601 368.887058 
L 493.115499 374.815054 
L 493.531297 373.286412 
L 493.739195 368.594897 
L 493.947094 372.503578 
L 494.154993 373.332296 
L 494.362891 356.914094 
L 494.57079 352.844391 
L 494.778689 370.614378 
L 495.402385 374.828927 
L 495.610283 373.267407 
L 495.818182 375.187288 
L 496.02608 375.077911 
L 496.233979 371.819552 
L 496.441878 374.079537 
L 496.649776 373.591612 
L 496.857675 372.377973 
L 497.065574 374.051643 
L 497.273472 354.932076 
L 497.481371 367.823861 
L 497.897168 372.652062 
L 498.105067 373.759916 
L 498.312966 346.582788 
L 498.520864 371.988681 
L 498.728763 355.407051 
L 499.14456 372.287792 
L 499.352459 371.244482 
L 499.560358 354.511345 
L 499.768256 373.505079 
L 499.976155 375.019596 
L 500.391952 366.279911 
L 500.599851 337.415679 
L 500.80775 367.702853 
L 501.015648 373.100642 
L 501.223547 374.778135 
L 501.431446 374.225133 
L 501.639344 375.555339 
L 501.847243 357.575066 
L 502.055142 370.909094 
L 502.26304 374.786778 
L 502.470939 374.837829 
L 502.678838 375.490485 
L 502.886736 372.946459 
L 503.302534 372.316396 
L 503.510432 375.489012 
L 503.718331 374.830651 
L 503.92623 370.763267 
L 504.134128 369.788233 
L 504.342027 375.50826 
L 504.549925 374.13714 
L 504.757824 373.842083 
L 504.965723 373.083447 
L 505.38152 376.400384 
L 505.589419 374.317209 
L 505.797317 374.461297 
L 506.005216 370.496971 
L 506.213115 375.43781 
L 506.421013 374.056036 
L 506.836811 376.353986 
L 507.044709 374.566697 
L 507.252608 350.0542 
L 507.460507 370.043547 
L 507.668405 373.58361 
L 507.876304 371.082194 
L 508.084203 371.95186 
L 508.292101 368.00145 
L 508.5 375.441978 
L 508.707899 370.829264 
L 508.915797 371.6652 
L 509.123696 374.987362 
L 509.331595 375.048968 
L 509.539493 374.827194 
L 509.747392 371.677454 
L 509.955291 374.074511 
L 510.163189 359.736903 
L 510.371088 357.221712 
L 510.578987 372.784659 
L 510.786885 373.948768 
L 510.994784 373.132428 
L 511.202683 369.141816 
L 511.61848 374.984847 
L 511.826379 373.880408 
L 512.034277 374.097286 
L 512.242176 372.424207 
L 512.450075 369.62688 
L 512.657973 371.548592 
L 512.865872 375.600508 
L 513.07377 374.375861 
L 513.281669 369.139895 
L 513.489568 369.072712 
L 513.905365 353.705185 
L 514.529061 374.422916 
L 514.73696 372.801433 
L 514.944858 373.708662 
L 515.152757 370.305422 
L 515.360656 357.379414 
L 515.568554 360.196166 
L 515.776453 373.72657 
L 516.19225 370.831704 
L 516.400149 373.591858 
L 516.608048 374.826929 
L 516.815946 374.242498 
L 517.023845 374.650225 
L 517.231744 373.656013 
L 517.439642 371.252796 
L 517.647541 373.356184 
L 518.063338 372.463608 
L 518.271237 370.494893 
L 518.479136 374.725821 
L 518.687034 372.122415 
L 518.894933 372.352402 
L 519.102832 375.521863 
L 519.31073 373.596847 
L 519.518629 374.817049 
L 519.726528 372.999796 
L 519.934426 375.630511 
L 520.142325 373.528323 
L 520.350224 374.398721 
L 520.558122 374.452031 
L 520.766021 372.845174 
L 520.97392 375.835652 
L 521.181818 375.376667 
L 521.597615 373.808453 
L 522.013413 375.537365 
L 522.221311 374.826457 
L 522.42921 372.502097 
L 522.845007 375.480846 
L 523.052906 373.265187 
L 523.260805 375.77983 
L 523.468703 373.61409 
L 523.676602 375.543062 
L 523.884501 375.579919 
L 524.092399 374.334359 
L 524.300298 372.038256 
L 524.508197 374.769138 
L 524.716095 375.328285 
L 524.923994 374.643172 
L 525.339791 376.015071 
L 525.54769 375.554534 
L 525.755589 373.739179 
L 525.963487 361.877857 
L 526.171386 375.237401 
L 526.379285 373.074494 
L 526.587183 375.540913 
L 526.795082 376.13024 
L 527.002981 361.905936 
L 527.210879 374.195811 
L 527.626677 375.822648 
L 527.834575 376.160328 
L 528.042474 374.422564 
L 528.250373 374.196945 
L 528.458271 373.407683 
L 528.66617 375.122635 
L 529.081967 373.848238 
L 529.289866 374.792827 
L 529.497765 374.946027 
L 529.705663 372.995592 
L 529.913562 375.163782 
L 530.121461 375.43711 
L 530.329359 375.226008 
L 530.537258 369.54439 
L 530.745156 372.030961 
L 530.953055 366.033008 
L 531.160954 373.368033 
L 531.368852 373.393325 
L 531.576751 375.735819 
L 531.78465 374.206173 
L 531.992548 375.620851 
L 532.200447 375.679986 
L 532.824143 372.425526 
L 533.23994 375.896721 
L 533.447839 374.861603 
L 533.655738 374.593997 
L 533.863636 374.56999 
L 534.071535 373.224594 
L 534.487332 375.297148 
L 534.695231 371.993529 
L 534.90313 375.428068 
L 535.111028 374.026475 
L 535.318927 374.586656 
L 535.526826 374.680517 
L 535.734724 374.646058 
L 535.942623 376.393559 
L 536.35842 373.675556 
L 536.566319 374.374449 
L 536.982116 368.615563 
L 537.190015 374.658934 
L 537.397914 375.623832 
L 537.605812 375.092656 
L 537.813711 373.342939 
L 538.02161 364.786894 
L 538.229508 373.179218 
L 538.437407 373.481156 
L 538.645306 347.259004 
L 538.853204 371.469144 
L 539.061103 373.436645 
L 539.269001 353.082911 
L 539.4769 375.820054 
L 539.684799 372.988806 
L 540.100596 373.769039 
L 540.308495 371.387536 
L 540.516393 373.530546 
L 540.724292 373.022028 
L 540.932191 375.15227 
L 541.140089 373.773919 
L 541.347988 374.087947 
L 541.555887 371.809277 
L 541.763785 375.078343 
L 541.971684 375.34455 
L 542.179583 373.28225 
L 542.387481 375.69096 
L 542.59538 376.173162 
L 542.803279 372.550795 
L 543.219076 374.475874 
L 543.426975 375.744114 
L 543.634873 372.857067 
L 543.842772 376.917735 
L 544.050671 376.312065 
L 544.258569 376.812173 
L 544.466468 375.065944 
L 544.674367 375.728321 
L 545.090164 373.950697 
L 545.298063 376.013344 
L 545.505961 372.368397 
L 545.71386 374.409849 
L 545.921759 374.728913 
L 546.129657 373.048264 
L 546.337556 375.193565 
L 546.545455 367.676991 
L 546.753353 371.716301 
L 547.169151 374.58859 
L 547.377049 373.342319 
L 547.584948 364.302148 
L 547.792846 373.968525 
L 548.208644 376.905123 
L 548.624441 374.952926 
L 548.83234 372.154097 
L 549.040238 362.152883 
L 549.248137 367.783236 
L 549.456036 369.514761 
L 549.663934 360.62509 
L 549.871833 369.899038 
L 550.28763 373.015479 
L 550.495529 371.778175 
L 550.703428 374.967223 
L 550.911326 374.007584 
L 551.119225 374.47185 
L 551.327124 374.345826 
L 551.535022 373.425734 
L 551.742921 374.528894 
L 551.95082 373.765199 
L 552.158718 372.043695 
L 552.366617 373.143442 
L 552.990313 374.477827 
L 553.198212 375.45221 
L 553.40611 375.859882 
L 553.614009 374.141647 
L 553.821908 373.674978 
L 554.029806 374.190011 
L 554.237705 372.589724 
L 554.445604 373.351349 
L 554.653502 375.344664 
L 555.0693 375.498897 
L 555.277198 373.080061 
L 555.485097 376.545413 
L 555.692996 373.800759 
L 555.900894 372.781109 
L 556.108793 376.284558 
L 556.316692 372.21515 
L 556.52459 361.187827 
L 556.732489 372.477327 
L 557.148286 375.958123 
L 557.356185 374.084688 
L 557.771982 375.032512 
L 557.979881 374.994913 
L 558.187779 374.551234 
L 558.395678 374.73382 
L 558.603577 374.059809 
L 559.019374 376.422921 
L 559.227273 357.288178 
L 559.435171 376.293222 
L 559.64307 367.066311 
L 559.850969 375.300597 
L 560.058867 373.619967 
L 560.474665 375.511416 
L 560.682563 374.355216 
L 560.890462 374.944148 
L 561.098361 374.17263 
L 561.306259 374.370026 
L 561.514158 374.403585 
L 561.722057 372.662776 
L 561.929955 371.959859 
L 562.137854 375.643404 
L 562.345753 375.899863 
L 562.553651 367.159897 
L 562.76155 374.642409 
L 562.969449 375.115336 
L 563.177347 373.461555 
L 563.385246 374.601207 
L 563.593145 374.090122 
L 563.801043 374.995257 
L 564.008942 371.867704 
L 564.216841 375.196535 
L 564.424739 370.15041 
L 564.632638 370.37836 
L 564.840537 375.91695 
L 565.048435 368.506721 
L 565.464232 373.885214 
L 565.672131 373.815959 
L 565.88003 375.225815 
L 566.087928 373.264095 
L 566.295827 372.757729 
L 566.503726 371.570859 
L 566.711624 374.27254 
L 566.919523 371.996868 
L 567.127422 375.4535 
L 567.33532 372.914893 
L 567.543219 372.847185 
L 567.751118 373.07229 
L 567.959016 369.095058 
L 568.166915 375.05179 
L 568.374814 376.052154 
L 568.582712 373.814467 
L 568.790611 375.415159 
L 568.99851 375.509961 
L 569.206408 375.478326 
L 569.414307 375.288722 
L 569.622206 353.605362 
L 569.830104 374.557434 
L 570.038003 375.211643 
L 570.245902 375.260632 
L 570.4538 374.875341 
L 570.661699 375.021771 
L 570.869598 376.138184 
L 571.077496 375.617823 
L 571.285395 372.557919 
L 571.493294 374.501278 
L 571.701192 372.247702 
L 571.909091 372.210818 
L 572.11699 375.581739 
L 572.324888 373.75785 
L 572.532787 373.74173 
L 572.740686 375.301824 
L 572.948584 375.388344 
L 573.156483 368.893224 
L 573.364382 373.909463 
L 573.57228 373.800907 
L 573.780179 370.530328 
L 574.403875 375.057253 
L 574.611773 372.124653 
L 575.027571 374.588137 
L 575.235469 372.346189 
L 575.443368 375.111171 
L 575.859165 376.161746 
L 576.067064 377.085001 
L 576.274963 375.121422 
L 576.482861 375.50236 
L 576.69076 374.318618 
L 576.898659 375.864799 
L 577.314456 373.135907 
L 577.522355 375.144435 
L 577.730253 375.296745 
L 577.938152 373.539806 
L 578.146051 375.691275 
L 578.353949 367.40664 
L 578.561848 373.826551 
L 578.769747 372.010351 
L 578.977645 375.377295 
L 579.185544 370.419639 
L 579.393443 375.37499 
L 579.601341 376.291786 
L 579.80924 374.366336 
L 580.017139 374.51683 
L 580.225037 351.533849 
L 580.432936 374.982529 
L 580.640835 375.505908 
L 580.848733 374.43096 
L 581.056632 368.601563 
L 581.264531 376.183175 
L 581.472429 374.513283 
L 581.680328 374.290266 
L 581.888227 374.769951 
L 582.096125 373.873215 
L 582.304024 365.103383 
L 582.511923 372.578053 
L 582.719821 375.037856 
L 582.92772 374.933802 
L 583.135618 375.971238 
L 583.551416 371.663711 
L 583.759314 374.555296 
L 583.967213 365.372081 
L 584.175112 368.216285 
L 584.38301 374.499479 
L 584.590909 371.063057 
L 585.006706 375.509749 
L 585.214605 374.683018 
L 585.422504 372.330223 
L 585.630402 375.96698 
L 585.838301 374.276568 
L 586.0462 373.784615 
L 586.254098 376.034161 
L 586.461997 374.728004 
L 586.669896 376.153967 
L 586.877794 376.190434 
L 587.085693 365.964193 
L 587.293592 373.805652 
L 587.50149 375.097364 
L 587.709389 375.434556 
L 587.917288 375.05742 
L 588.125186 371.198772 
L 588.333085 374.305768 
L 588.748882 375.91869 
L 588.956781 371.193012 
L 589.16468 369.999581 
L 589.372578 371.121849 
L 589.580477 374.27683 
L 589.788376 374.160962 
L 589.996274 375.992381 
L 590.204173 374.305421 
L 590.412072 373.529928 
L 590.61997 374.474348 
L 591.035768 372.262367 
L 591.243666 373.857106 
L 591.451565 373.410248 
L 591.659463 374.427995 
L 591.867362 373.576976 
L 592.075261 374.401601 
L 592.283159 368.749347 
L 592.491058 375.855105 
L 592.698957 375.413355 
L 592.906855 374.412654 
L 593.114754 374.023821 
L 593.322653 372.664199 
L 593.530551 375.701399 
L 593.73845 373.160235 
L 593.946349 374.455924 
L 594.154247 372.19593 
L 594.362146 373.681756 
L 594.985842 375.200329 
L 595.193741 372.418288 
L 595.401639 367.277371 
L 595.609538 373.558919 
L 595.817437 375.179239 
L 596.025335 374.230877 
L 596.233234 371.823447 
L 596.441133 374.146805 
L 596.649031 374.100579 
L 596.85693 373.682018 
L 597.064829 374.144275 
L 597.272727 372.594302 
L 597.480626 373.360622 
L 597.688525 376.25199 
L 597.896423 374.669111 
L 598.104322 375.68285 
L 598.312221 375.569477 
L 598.520119 373.291971 
L 598.728018 375.980456 
L 599.143815 371.59423 
L 599.351714 374.338725 
L 599.559613 370.232817 
L 599.767511 373.960256 
L 599.97541 375.547219 
L 600.183308 375.899537 
L 600.391207 375.147074 
L 600.599106 375.233687 
L 600.807004 374.302032 
L 601.014903 367.030323 
L 601.4307 375.399236 
L 601.638599 373.375036 
L 601.846498 374.389217 
L 602.054396 374.586921 
L 602.262295 374.165045 
L 602.470194 372.043859 
L 602.678092 375.379497 
L 602.885991 371.972341 
L 603.09389 375.61171 
L 603.301788 374.135844 
L 603.509687 370.900427 
L 603.717586 375.420805 
L 603.925484 376.025206 
L 604.133383 375.740866 
L 604.341282 373.392075 
L 604.54918 373.659103 
L 604.757079 372.315455 
L 605.172876 376.070589 
L 605.588674 373.566611 
L 605.796572 374.42161 
L 606.004471 376.350134 
L 606.21237 373.880053 
L 606.420268 374.769636 
L 606.836066 372.95613 
L 607.043964 374.279615 
L 607.251863 373.416927 
L 607.875559 375.531693 
L 608.083458 372.621471 
L 608.499255 374.628046 
L 608.707154 375.271344 
L 608.915052 372.685273 
L 609.122951 375.971368 
L 609.538748 368.960079 
L 609.746647 375.258202 
L 609.954545 374.922788 
L 610.162444 371.039789 
L 610.370343 375.167743 
L 610.578241 376.060821 
L 610.78614 373.488636 
L 610.994039 372.634003 
L 611.201937 374.301084 
L 611.409836 375.008712 
L 611.617735 374.94067 
L 611.825633 373.093237 
L 612.033532 374.531599 
L 612.657228 375.044803 
L 612.865127 371.923352 
L 613.073025 374.656656 
L 613.280924 372.601401 
L 613.488823 375.18107 
L 613.90462 369.947834 
L 614.112519 374.614849 
L 614.320417 374.82035 
L 614.528316 374.093325 
L 614.736215 372.632763 
L 614.944113 370.280254 
L 615.152012 375.122728 
L 615.359911 372.996336 
L 615.567809 374.705679 
L 615.775708 374.183546 
L 615.983607 370.925192 
L 616.191505 374.547204 
L 616.399404 374.27793 
L 616.607303 375.579863 
L 616.815201 374.365626 
L 617.0231 375.301654 
L 617.230999 375.600662 
L 617.438897 375.162179 
L 617.646796 373.60988 
L 617.854694 373.896459 
L 618.062593 373.459277 
L 618.270492 361.908938 
L 618.47839 375.177599 
L 618.686289 371.780935 
L 618.894188 372.629212 
L 619.102086 375.458272 
L 619.725782 373.047135 
L 619.933681 375.627324 
L 620.14158 374.928773 
L 620.349478 373.298685 
L 620.557377 370.50037 
L 620.765276 373.770713 
L 620.973174 374.80125 
L 621.181073 371.27232 
L 621.388972 370.317803 
L 621.59687 371.849298 
L 621.804769 374.740915 
L 622.012668 375.552783 
L 622.220566 366.232659 
L 622.428465 375.279234 
L 622.636364 373.372988 
L 622.636364 373.372988 
" clip-path="url(#pd1b588e77c)" style="fill: none; stroke: #1f77b4; stroke-width: 1.5; stroke-linecap: square"/>
   </g>
   <g id="patch_3">
    <path d="M 90 384.48 
L 90 51.84 
" style="fill: none; stroke: #000000; stroke-width: 0.8; stroke-linejoin: miter; stroke-linecap: square"/>
   </g>
   <g id="patch_4">
    <path d="M 648 384.48 
L 648 51.84 
" style="fill: none; stroke: #000000; stroke-width: 0.8; stroke-linejoin: miter; stroke-linecap: square"/>
   </g>
   <g id="patch_5">
    <path d="M 90 384.48 
L 648 384.48 
" style="fill: none; stroke: #000000; stroke-width: 0.8; stroke-linejoin: miter; stroke-linecap: square"/>
   </g>
   <g id="patch_6">
    <path d="M 90 51.84 
L 648 51.84 
" style="fill: none; stroke: #000000; stroke-width: 0.8; stroke-linejoin: miter; stroke-linecap: square"/>
   </g>
   <g id="text_16">
    <!-- Average time per index -->
    <g transform="translate(298.700625 45.84) scale(0.12 -0.12)">
     <defs>
      <path id="DejaVuSans-70" d="M 1159 525 
L 1159 -1331 
L 581 -1331 
L 581 3500 
L 1159 3500 
L 1159 2969 
Q 1341 3281 1617 3432 
Q 1894 3584 2278 3584 
Q 2916 3584 3314 3078 
Q 3713 2572 3713 1747 
Q 3713 922 3314 415 
Q 2916 -91 2278 -91 
Q 1894 -91 1617 61 
Q 1341 213 1159 525 
z
M 3116 1747 
Q 3116 2381 2855 2742 
Q 2594 3103 2138 3103 
Q 1681 3103 1420 2742 
Q 1159 2381 1159 1747 
Q 1159 1113 1420 752 
Q 1681 391 2138 391 
Q 2594 391 2855 752 
Q 3116 1113 3116 1747 
z
" transform="scale(0.015625)"/>
     </defs>
     <use xlink:href="#DejaVuSans-41"/>
     <use xlink:href="#DejaVuSans-76" transform="translate(62.533203 0)"/>
     <use xlink:href="#DejaVuSans-65" transform="translate(121.712891 0)"/>
     <use xlink:href="#DejaVuSans-72" transform="translate(183.236328 0)"/>
     <use xlink:href="#DejaVuSans-61" transform="translate(224.349609 0)"/>
     <use xlink:href="#DejaVuSans-67" transform="translate(285.628906 0)"/>
     <use xlink:href="#DejaVuSans-65" transform="translate(349.105469 0)"/>
     <use xlink:href="#DejaVuSans-20" transform="translate(410.628906 0)"/>
     <use xlink:href="#DejaVuSans-74" transform="translate(442.416016 0)"/>
     <use xlink:href="#DejaVuSans-69" transform="translate(481.625 0)"/>
     <use xlink:href="#DejaVuSans-6d" transform="translate(509.408203 0)"/>
     <use xlink:href="#DejaVuSans-65" transform="translate(606.820312 0)"/>
     <use xlink:href="#DejaVuSans-20" transform="translate(668.34375 0)"/>
     <use xlink:href="#DejaVuSans-70" transform="translate(700.130859 0)"/>
     <use xlink:href="#DejaVuSans-65" transform="translate(763.607422 0)"/>
     <use xlink:href="#DejaVuSans-72" transform="translate(825.130859 0)"/>
     <use xlink:href="#DejaVuSans-20" transform="translate(866.244141 0)"/>
     <use xlink:href="#DejaVuSans-69" transform="translate(898.03125 0)"/>
     <use xlink:href="#DejaVuSans-6e" transform="translate(925.814453 0)"/>
     <use xlink:href="#DejaVuSans-64" transform="translate(989.193359 0)"/>
     <use xlink:href="#DejaVuSans-65" transform="translate(1052.669922 0)"/>
     <use xlink:href="#DejaVuSans-78" transform="translate(1112.443359 0)"/>
    </g>
   </g>
   <g id="legend_1">
    <g id="patch_7">
     <path d="M 525.064062 74.518125 
L 641 74.518125 
Q 643 74.518125 643 72.518125 
L 643 58.84 
Q 643 56.84 641 56.84 
L 525.064062 56.84 
Q 523.064062 56.84 523.064062 58.84 
L 523.064062 72.518125 
Q 523.064062 74.518125 525.064062 74.518125 
z
" style="fill: #ffffff; opacity: 0.8; stroke: #cccccc; stroke-linejoin: miter"/>
    </g>
    <g id="line2d_15">
     <path d="M 527.064062 64.938438 
L 537.064062 64.938438 
L 547.064062 64.938438 
" style="fill: none; stroke: #1f77b4; stroke-width: 1.5; stroke-linecap: square"/>
    </g>
    <g id="text_17">
     <!-- registerFaultload -->
     <g transform="translate(555.064062 68.438438) scale(0.1 -0.1)">
      <defs>
       <path id="DejaVuSans-46" d="M 628 4666 
L 3309 4666 
L 3309 4134 
L 1259 4134 
L 1259 2759 
L 3109 2759 
L 3109 2228 
L 1259 2228 
L 1259 0 
L 628 0 
L 628 4666 
z
" transform="scale(0.015625)"/>
       <path id="DejaVuSans-75" d="M 544 1381 
L 544 3500 
L 1119 3500 
L 1119 1403 
Q 1119 906 1312 657 
Q 1506 409 1894 409 
Q 2359 409 2629 706 
Q 2900 1003 2900 1516 
L 2900 3500 
L 3475 3500 
L 3475 0 
L 2900 0 
L 2900 538 
Q 2691 219 2414 64 
Q 2138 -91 1772 -91 
Q 1169 -91 856 284 
Q 544 659 544 1381 
z
M 1991 3584 
L 1991 3584 
z
" transform="scale(0.015625)"/>
       <path id="DejaVuSans-6c" d="M 603 4863 
L 1178 4863 
L 1178 0 
L 603 0 
L 603 4863 
z
" transform="scale(0.015625)"/>
       <path id="DejaVuSans-6f" d="M 1959 3097 
Q 1497 3097 1228 2736 
Q 959 2375 959 1747 
Q 959 1119 1226 758 
Q 1494 397 1959 397 
Q 2419 397 2687 759 
Q 2956 1122 2956 1747 
Q 2956 2369 2687 2733 
Q 2419 3097 1959 3097 
z
M 1959 3584 
Q 2709 3584 3137 3096 
Q 3566 2609 3566 1747 
Q 3566 888 3137 398 
Q 2709 -91 1959 -91 
Q 1206 -91 779 398 
Q 353 888 353 1747 
Q 353 2609 779 3096 
Q 1206 3584 1959 3584 
z
" transform="scale(0.015625)"/>
      </defs>
      <use xlink:href="#DejaVuSans-72"/>
      <use xlink:href="#DejaVuSans-65" transform="translate(38.863281 0)"/>
      <use xlink:href="#DejaVuSans-67" transform="translate(100.386719 0)"/>
      <use xlink:href="#DejaVuSans-69" transform="translate(163.863281 0)"/>
      <use xlink:href="#DejaVuSans-73" transform="translate(191.646484 0)"/>
      <use xlink:href="#DejaVuSans-74" transform="translate(243.746094 0)"/>
      <use xlink:href="#DejaVuSans-65" transform="translate(282.955078 0)"/>
      <use xlink:href="#DejaVuSans-72" transform="translate(344.478516 0)"/>
      <use xlink:href="#DejaVuSans-46" transform="translate(385.591797 0)"/>
      <use xlink:href="#DejaVuSans-61" transform="translate(433.986328 0)"/>
      <use xlink:href="#DejaVuSans-75" transform="translate(495.265625 0)"/>
      <use xlink:href="#DejaVuSans-6c" transform="translate(558.644531 0)"/>
      <use xlink:href="#DejaVuSans-74" transform="translate(586.427734 0)"/>
      <use xlink:href="#DejaVuSans-6c" transform="translate(625.636719 0)"/>
      <use xlink:href="#DejaVuSans-6f" transform="translate(653.419922 0)"/>
      <use xlink:href="#DejaVuSans-61" transform="translate(714.601562 0)"/>
      <use xlink:href="#DejaVuSans-64" transform="translate(775.880859 0)"/>
     </g>
    </g>
   </g>
  </g>
 </g>
 <defs>
  <clipPath id="pd1b588e77c">
   <rect x="90" y="51.84" width="558" height="332.64"/>
  </clipPath>
 </defs>
</svg>
