<?xml version="1.0" encoding="utf-8" standalone="no"?>
<!DOCTYPE svg PUBLIC "-//W3C//DTD SVG 1.1//EN"
  "http://www.w3.org/Graphics/SVG/1.1/DTD/svg11.dtd">
<svg xmlns:xlink="http://www.w3.org/1999/xlink" width="576pt" height="432pt" viewBox="0 0 576 432" xmlns="http://www.w3.org/2000/svg" version="1.1">
 <metadata>
  <rdf:RDF xmlns:dc="http://purl.org/dc/elements/1.1/" xmlns:cc="http://creativecommons.org/ns#" xmlns:rdf="http://www.w3.org/1999/02/22-rdf-syntax-ns#">
   <cc:Work>
    <dc:type rdf:resource="http://purl.org/dc/dcmitype/StillImage"/>
    <dc:date>2025-06-10T03:16:31.858965</dc:date>
    <dc:format>image/svg+xml</dc:format>
    <dc:creator>
     <cc:Agent>
      <dc:title>Matplotlib v3.10.3, https://matplotlib.org/</dc:title>
     </cc:Agent>
    </dc:creator>
   </cc:Work>
  </rdf:RDF>
 </metadata>
 <defs>
  <style type="text/css">*{stroke-linejoin: round; stroke-linecap: butt}</style>
 </defs>
 <g id="figure_1">
  <g id="patch_1">
   <path d="M 0 432 
L 576 432 
L 576 0 
L 0 0 
z
" style="fill: #ffffff"/>
  </g>
  <g id="axes_1">
   <g id="patch_2">
    <path d="M 72 384.48 
L 518.4 384.48 
L 518.4 51.84 
L 72 51.84 
z
" style="fill: #ffffff"/>
   </g>
   <g id="FillBetweenPolyCollection_1">
    <path d="M 397.17515 350.154836 
L 193.22485 350.154836 
L 189.514715 347.285044 
L 186.640574 344.415252 
L 184.6713 341.545461 
L 183.651609 338.675669 
L 183.6 335.805878 
L 184.507866 332.936086 
L 186.339832 330.066294 
L 189.03531 327.196503 
L 192.511169 324.326711 
L 196.665368 321.45692 
L 201.381337 318.587128 
L 206.532843 315.717336 
L 211.989088 312.847545 
L 217.619746 309.977753 
L 223.299696 307.107962 
L 228.913232 304.23817 
L 234.357561 301.368379 
L 239.545483 298.498587 
L 244.407175 295.628795 
L 248.891072 292.759004 
L 252.963885 289.889212 
L 256.609838 287.019421 
L 259.829235 284.149629 
L 262.636502 281.279837 
L 265.057844 278.410046 
L 267.128674 275.540254 
L 268.890958 272.670463 
L 270.390601 269.800671 
L 271.674996 266.930879 
L 272.790826 264.061088 
L 273.782178 261.191296 
L 274.689028 258.321505 
L 275.54611 255.451713 
L 276.382173 252.581922 
L 277.219619 249.71213 
L 278.074469 246.842338 
L 278.956643 243.972547 
L 279.870479 241.102755 
L 280.815437 238.232964 
L 281.786945 235.363172 
L 282.777303 232.49338 
L 283.776616 229.623589 
L 284.773683 226.753797 
L 285.75683 223.884006 
L 286.714621 221.014214 
L 287.636461 218.144423 
L 288.513052 215.274631 
L 289.336711 212.404839 
L 290.101555 209.535048 
L 290.80356 206.665256 
L 291.440519 203.795465 
L 292.011905 200.925673 
L 292.518672 198.055881 
L 292.963012 195.18609 
L 293.348083 192.316298 
L 293.677731 189.446507 
L 293.956219 186.576715 
L 294.187965 183.706923 
L 294.377314 180.837132 
L 294.528335 177.96734 
L 294.644643 175.097549 
L 294.729262 172.227757 
L 294.784514 169.357966 
L 294.811931 166.488174 
L 294.812206 163.618382 
L 294.785159 160.748591 
L 294.729739 157.878799 
L 294.644043 155.009008 
L 294.525375 152.139216 
L 294.370326 149.269424 
L 294.174903 146.399633 
L 293.934682 143.529841 
L 293.645009 140.66005 
L 293.30124 137.790258 
L 292.899015 134.920466 
L 292.434574 132.050675 
L 291.905083 129.180883 
L 291.308981 126.311092 
L 290.646322 123.4413 
L 289.919083 120.571509 
L 289.131434 117.701717 
L 288.289939 114.831925 
L 287.403662 111.962134 
L 286.484166 109.092342 
L 285.54539 106.222551 
L 284.603395 103.352759 
L 283.675971 100.482967 
L 282.782132 97.613176 
L 281.941495 94.743384 
L 281.173584 91.873593 
L 280.497091 89.003801 
L 279.929116 86.134009 
L 279.484462 83.264218 
L 279.174986 80.394426 
L 279.009081 77.524635 
L 278.991291 74.654843 
L 279.12211 71.785052 
L 279.397957 68.91526 
L 279.811338 66.045468 
L 310.588662 66.045468 
L 310.588662 66.045468 
L 311.002043 68.91526 
L 311.27789 71.785052 
L 311.408709 74.654843 
L 311.390919 77.524635 
L 311.225014 80.394426 
L 310.915538 83.264218 
L 310.470884 86.134009 
L 309.902909 89.003801 
L 309.226416 91.873593 
L 308.458505 94.743384 
L 307.617868 97.613176 
L 306.724029 100.482967 
L 305.796605 103.352759 
L 304.85461 106.222551 
L 303.915834 109.092342 
L 302.996338 111.962134 
L 302.110061 114.831925 
L 301.268566 117.701717 
L 300.480917 120.571509 
L 299.753678 123.4413 
L 299.091019 126.311092 
L 298.494917 129.180883 
L 297.965426 132.050675 
L 297.500985 134.920466 
L 297.09876 137.790258 
L 296.754991 140.66005 
L 296.465318 143.529841 
L 296.225097 146.399633 
L 296.029674 149.269424 
L 295.874625 152.139216 
L 295.755957 155.009008 
L 295.670261 157.878799 
L 295.614841 160.748591 
L 295.587794 163.618382 
L 295.588069 166.488174 
L 295.615486 169.357966 
L 295.670738 172.227757 
L 295.755357 175.097549 
L 295.871665 177.96734 
L 296.022686 180.837132 
L 296.212035 183.706923 
L 296.443781 186.576715 
L 296.722269 189.446507 
L 297.051917 192.316298 
L 297.436988 195.18609 
L 297.881328 198.055881 
L 298.388095 200.925673 
L 298.959481 203.795465 
L 299.59644 206.665256 
L 300.298445 209.535048 
L 301.063289 212.404839 
L 301.886948 215.274631 
L 302.763539 218.144423 
L 303.685379 221.014214 
L 304.64317 223.884006 
L 305.626317 226.753797 
L 306.623384 229.623589 
L 307.622697 232.49338 
L 308.613055 235.363172 
L 309.584563 238.232964 
L 310.529521 241.102755 
L 311.443357 243.972547 
L 312.325531 246.842338 
L 313.180381 249.71213 
L 314.017827 252.581922 
L 314.85389 255.451713 
L 315.710972 258.321505 
L 316.617822 261.191296 
L 317.609174 264.061088 
L 318.725004 266.930879 
L 320.009399 269.800671 
L 321.509042 272.670463 
L 323.271326 275.540254 
L 325.342156 278.410046 
L 327.763498 281.279837 
L 330.570765 284.149629 
L 333.790162 287.019421 
L 337.436115 289.889212 
L 341.508928 292.759004 
L 345.992825 295.628795 
L 350.854517 298.498587 
L 356.042439 301.368379 
L 361.486768 304.23817 
L 367.100304 307.107962 
L 372.780254 309.977753 
L 378.410912 312.847545 
L 383.867157 315.717336 
L 389.018663 318.587128 
L 393.734632 321.45692 
L 397.888831 324.326711 
L 401.36469 327.196503 
L 404.060168 330.066294 
L 405.892134 332.936086 
L 406.8 335.805878 
L 406.748391 338.675669 
L 405.7287 341.545461 
L 403.759426 344.415252 
L 400.885285 347.285044 
L 397.17515 350.154836 
z
" clip-path="url(#pff1546d596)" style="fill: #1f77b4; fill-opacity: 0.3"/>
   </g>
   <g id="matplotlib.axis_1">
    <g id="xtick_1">
     <g id="line2d_1">
      <defs>
       <path id="m446a9f2aad" d="M 0 0 
L 0 3.5 
" style="stroke: #000000; stroke-width: 0.8"/>
      </defs>
      <g>
       <use xlink:href="#m446a9f2aad" x="295.2" y="384.48" style="stroke: #000000; stroke-width: 0.8"/>
      </g>
     </g>
     <g id="text_1">
      <!-- 1 -->
      <g transform="translate(292.01875 399.078438) scale(0.1 -0.1)">
       <defs>
        <path id="DejaVuSans-31" d="M 794 531 
L 1825 531 
L 1825 4091 
L 703 3866 
L 703 4441 
L 1819 4666 
L 2450 4666 
L 2450 531 
L 3481 531 
L 3481 0 
L 794 0 
L 794 531 
z
" transform="scale(0.015625)"/>
       </defs>
       <use xlink:href="#DejaVuSans-31"/>
      </g>
     </g>
    </g>
   </g>
   <g id="matplotlib.axis_2">
    <g id="ytick_1">
     <g id="line2d_2">
      <defs>
       <path id="mfaae2b5fbf" d="M 0 0 
L -3.5 0 
" style="stroke: #000000; stroke-width: 0.8"/>
      </defs>
      <g>
       <use xlink:href="#mfaae2b5fbf" x="72" y="384.48" style="stroke: #000000; stroke-width: 0.8"/>
      </g>
     </g>
     <g id="text_2">
      <!-- 0 -->
      <g transform="translate(58.6375 388.279219) scale(0.1 -0.1)">
       <defs>
        <path id="DejaVuSans-30" d="M 2034 4250 
Q 1547 4250 1301 3770 
Q 1056 3291 1056 2328 
Q 1056 1369 1301 889 
Q 1547 409 2034 409 
Q 2525 409 2770 889 
Q 3016 1369 3016 2328 
Q 3016 3291 2770 3770 
Q 2525 4250 2034 4250 
z
M 2034 4750 
Q 2819 4750 3233 4129 
Q 3647 3509 3647 2328 
Q 3647 1150 3233 529 
Q 2819 -91 2034 -91 
Q 1250 -91 836 529 
Q 422 1150 422 2328 
Q 422 3509 836 4129 
Q 1250 4750 2034 4750 
z
" transform="scale(0.015625)"/>
       </defs>
       <use xlink:href="#DejaVuSans-30"/>
      </g>
     </g>
    </g>
    <g id="ytick_2">
     <g id="line2d_3">
      <g>
       <use xlink:href="#mfaae2b5fbf" x="72" y="311.490938" style="stroke: #000000; stroke-width: 0.8"/>
      </g>
     </g>
     <g id="text_3">
      <!-- 5 -->
      <g transform="translate(58.6375 315.290157) scale(0.1 -0.1)">
       <defs>
        <path id="DejaVuSans-35" d="M 691 4666 
L 3169 4666 
L 3169 4134 
L 1269 4134 
L 1269 2991 
Q 1406 3038 1543 3061 
Q 1681 3084 1819 3084 
Q 2600 3084 3056 2656 
Q 3513 2228 3513 1497 
Q 3513 744 3044 326 
Q 2575 -91 1722 -91 
Q 1428 -91 1123 -41 
Q 819 9 494 109 
L 494 744 
Q 775 591 1075 516 
Q 1375 441 1709 441 
Q 2250 441 2565 725 
Q 2881 1009 2881 1497 
Q 2881 1984 2565 2268 
Q 2250 2553 1709 2553 
Q 1456 2553 1204 2497 
Q 953 2441 691 2322 
L 691 4666 
z
" transform="scale(0.015625)"/>
       </defs>
       <use xlink:href="#DejaVuSans-35"/>
      </g>
     </g>
    </g>
    <g id="ytick_3">
     <g id="line2d_4">
      <g>
       <use xlink:href="#mfaae2b5fbf" x="72" y="238.501877" style="stroke: #000000; stroke-width: 0.8"/>
      </g>
     </g>
     <g id="text_4">
      <!-- 10 -->
      <g transform="translate(52.275 242.301096) scale(0.1 -0.1)">
       <use xlink:href="#DejaVuSans-31"/>
       <use xlink:href="#DejaVuSans-30" transform="translate(63.623047 0)"/>
      </g>
     </g>
    </g>
    <g id="ytick_4">
     <g id="line2d_5">
      <g>
       <use xlink:href="#mfaae2b5fbf" x="72" y="165.512815" style="stroke: #000000; stroke-width: 0.8"/>
      </g>
     </g>
     <g id="text_5">
      <!-- 15 -->
      <g transform="translate(52.275 169.312034) scale(0.1 -0.1)">
       <use xlink:href="#DejaVuSans-31"/>
       <use xlink:href="#DejaVuSans-35" transform="translate(63.623047 0)"/>
      </g>
     </g>
    </g>
    <g id="ytick_5">
     <g id="line2d_6">
      <g>
       <use xlink:href="#mfaae2b5fbf" x="72" y="92.523754" style="stroke: #000000; stroke-width: 0.8"/>
      </g>
     </g>
     <g id="text_6">
      <!-- 20 -->
      <g transform="translate(52.275 96.322973) scale(0.1 -0.1)">
       <defs>
        <path id="DejaVuSans-32" d="M 1228 531 
L 3431 531 
L 3431 0 
L 469 0 
L 469 531 
Q 828 903 1448 1529 
Q 2069 2156 2228 2338 
Q 2531 2678 2651 2914 
Q 2772 3150 2772 3378 
Q 2772 3750 2511 3984 
Q 2250 4219 1831 4219 
Q 1534 4219 1204 4116 
Q 875 4013 500 3803 
L 500 4441 
Q 881 4594 1212 4672 
Q 1544 4750 1819 4750 
Q 2544 4750 2975 4387 
Q 3406 4025 3406 3419 
Q 3406 3131 3298 2873 
Q 3191 2616 2906 2266 
Q 2828 2175 2409 1742 
Q 1991 1309 1228 531 
z
" transform="scale(0.015625)"/>
       </defs>
       <use xlink:href="#DejaVuSans-32"/>
       <use xlink:href="#DejaVuSans-30" transform="translate(63.623047 0)"/>
      </g>
     </g>
    </g>
    <g id="text_7">
     <!-- Time (ms) -->
     <g transform="translate(46.195312 243.359219) rotate(-90) scale(0.1 -0.1)">
      <defs>
       <path id="DejaVuSans-54" d="M -19 4666 
L 3928 4666 
L 3928 4134 
L 2272 4134 
L 2272 0 
L 1638 0 
L 1638 4134 
L -19 4134 
L -19 4666 
z
" transform="scale(0.015625)"/>
       <path id="DejaVuSans-69" d="M 603 3500 
L 1178 3500 
L 1178 0 
L 603 0 
L 603 3500 
z
M 603 4863 
L 1178 4863 
L 1178 4134 
L 603 4134 
L 603 4863 
z
" transform="scale(0.015625)"/>
       <path id="DejaVuSans-6d" d="M 3328 2828 
Q 3544 3216 3844 3400 
Q 4144 3584 4550 3584 
Q 5097 3584 5394 3201 
Q 5691 2819 5691 2113 
L 5691 0 
L 5113 0 
L 5113 2094 
Q 5113 2597 4934 2840 
Q 4756 3084 4391 3084 
Q 3944 3084 3684 2787 
Q 3425 2491 3425 1978 
L 3425 0 
L 2847 0 
L 2847 2094 
Q 2847 2600 2669 2842 
Q 2491 3084 2119 3084 
Q 1678 3084 1418 2786 
Q 1159 2488 1159 1978 
L 1159 0 
L 581 0 
L 581 3500 
L 1159 3500 
L 1159 2956 
Q 1356 3278 1631 3431 
Q 1906 3584 2284 3584 
Q 2666 3584 2933 3390 
Q 3200 3197 3328 2828 
z
" transform="scale(0.015625)"/>
       <path id="DejaVuSans-65" d="M 3597 1894 
L 3597 1613 
L 953 1613 
Q 991 1019 1311 708 
Q 1631 397 2203 397 
Q 2534 397 2845 478 
Q 3156 559 3463 722 
L 3463 178 
Q 3153 47 2828 -22 
Q 2503 -91 2169 -91 
Q 1331 -91 842 396 
Q 353 884 353 1716 
Q 353 2575 817 3079 
Q 1281 3584 2069 3584 
Q 2775 3584 3186 3129 
Q 3597 2675 3597 1894 
z
M 3022 2063 
Q 3016 2534 2758 2815 
Q 2500 3097 2075 3097 
Q 1594 3097 1305 2825 
Q 1016 2553 972 2059 
L 3022 2063 
z
" transform="scale(0.015625)"/>
       <path id="DejaVuSans-20" transform="scale(0.015625)"/>
       <path id="DejaVuSans-28" d="M 1984 4856 
Q 1566 4138 1362 3434 
Q 1159 2731 1159 2009 
Q 1159 1288 1364 580 
Q 1569 -128 1984 -844 
L 1484 -844 
Q 1016 -109 783 600 
Q 550 1309 550 2009 
Q 550 2706 781 3412 
Q 1013 4119 1484 4856 
L 1984 4856 
z
" transform="scale(0.015625)"/>
       <path id="DejaVuSans-73" d="M 2834 3397 
L 2834 2853 
Q 2591 2978 2328 3040 
Q 2066 3103 1784 3103 
Q 1356 3103 1142 2972 
Q 928 2841 928 2578 
Q 928 2378 1081 2264 
Q 1234 2150 1697 2047 
L 1894 2003 
Q 2506 1872 2764 1633 
Q 3022 1394 3022 966 
Q 3022 478 2636 193 
Q 2250 -91 1575 -91 
Q 1294 -91 989 -36 
Q 684 19 347 128 
L 347 722 
Q 666 556 975 473 
Q 1284 391 1588 391 
Q 1994 391 2212 530 
Q 2431 669 2431 922 
Q 2431 1156 2273 1281 
Q 2116 1406 1581 1522 
L 1381 1569 
Q 847 1681 609 1914 
Q 372 2147 372 2553 
Q 372 3047 722 3315 
Q 1072 3584 1716 3584 
Q 2034 3584 2315 3537 
Q 2597 3491 2834 3397 
z
" transform="scale(0.015625)"/>
       <path id="DejaVuSans-29" d="M 513 4856 
L 1013 4856 
Q 1481 4119 1714 3412 
Q 1947 2706 1947 2009 
Q 1947 1309 1714 600 
Q 1481 -109 1013 -844 
L 513 -844 
Q 928 -128 1133 580 
Q 1338 1288 1338 2009 
Q 1338 2731 1133 3434 
Q 928 4138 513 4856 
z
" transform="scale(0.015625)"/>
      </defs>
      <use xlink:href="#DejaVuSans-54"/>
      <use xlink:href="#DejaVuSans-69" transform="translate(57.958984 0)"/>
      <use xlink:href="#DejaVuSans-6d" transform="translate(85.742188 0)"/>
      <use xlink:href="#DejaVuSans-65" transform="translate(183.154297 0)"/>
      <use xlink:href="#DejaVuSans-20" transform="translate(244.677734 0)"/>
      <use xlink:href="#DejaVuSans-28" transform="translate(276.464844 0)"/>
      <use xlink:href="#DejaVuSans-6d" transform="translate(315.478516 0)"/>
      <use xlink:href="#DejaVuSans-73" transform="translate(412.890625 0)"/>
      <use xlink:href="#DejaVuSans-29" transform="translate(464.990234 0)"/>
     </g>
    </g>
   </g>
   <g id="LineCollection_1">
    <path d="M 239.4 298.735438 
L 351 298.735438 
" clip-path="url(#pff1546d596)" style="fill: none; stroke: #1f77b4; stroke-width: 1.5"/>
   </g>
   <g id="LineCollection_2">
    <path d="M 239.4 66.045468 
L 351 66.045468 
" clip-path="url(#pff1546d596)" style="fill: none; stroke: #1f77b4; stroke-width: 1.5"/>
   </g>
   <g id="LineCollection_3">
    <path d="M 239.4 350.154836 
L 351 350.154836 
" clip-path="url(#pff1546d596)" style="fill: none; stroke: #1f77b4; stroke-width: 1.5"/>
   </g>
   <g id="LineCollection_4">
    <path d="M 295.2 350.154836 
L 295.2 66.045468 
" clip-path="url(#pff1546d596)" style="fill: none; stroke: #1f77b4; stroke-width: 1.5"/>
   </g>
   <g id="patch_3">
    <path d="M 250.56 340.504839 
L 339.84 340.504839 
L 339.84 319.426703 
L 250.56 319.426703 
L 250.56 340.504839 
z
" clip-path="url(#pff1546d596)" style="fill: #1f77b4; stroke: #000000; stroke-linejoin: miter"/>
   </g>
   <g id="line2d_7">
    <path d="M 295.2 340.504839 
L 295.2 350.154836 
" clip-path="url(#pff1546d596)" style="fill: none; stroke: #000000; stroke-linecap: square"/>
   </g>
   <g id="line2d_8">
    <path d="M 295.2 319.426703 
L 295.2 296.910162 
" clip-path="url(#pff1546d596)" style="fill: none; stroke: #000000; stroke-linecap: square"/>
   </g>
   <g id="line2d_9">
    <path d="M 272.88 350.154836 
L 317.52 350.154836 
" clip-path="url(#pff1546d596)" style="fill: none; stroke: #000000; stroke-linecap: square"/>
   </g>
   <g id="line2d_10">
    <path d="M 272.88 296.910162 
L 317.52 296.910162 
" clip-path="url(#pff1546d596)" style="fill: none; stroke: #000000; stroke-linecap: square"/>
   </g>
   <g id="line2d_11">
    <defs>
     <path id="m8ee138350a" d="M 0 3 
C 0.795609 3 1.55874 2.683901 2.12132 2.12132 
C 2.683901 1.55874 3 0.795609 3 0 
C 3 -0.795609 2.683901 -1.55874 2.12132 -2.12132 
C 1.55874 -2.683901 0.795609 -3 0 -3 
C -0.795609 -3 -1.55874 -2.683901 -2.12132 -2.12132 
C -2.683901 -1.55874 -3 -0.795609 -3 0 
C -3 0.795609 -2.683901 1.55874 -2.12132 2.12132 
C -1.55874 2.683901 -0.795609 3 0 3 
z
" style="stroke: #000000"/>
    </defs>
    <g clip-path="url(#pff1546d596)">
     <use xlink:href="#m8ee138350a" x="295.2" y="76.520917" style="fill-opacity: 0; stroke: #000000"/>
     <use xlink:href="#m8ee138350a" x="295.2" y="263.108606" style="fill-opacity: 0; stroke: #000000"/>
     <use xlink:href="#m8ee138350a" x="295.2" y="76.372326" style="fill-opacity: 0; stroke: #000000"/>
     <use xlink:href="#m8ee138350a" x="295.2" y="256.271152" style="fill-opacity: 0; stroke: #000000"/>
     <use xlink:href="#m8ee138350a" x="295.2" y="75.379631" style="fill-opacity: 0; stroke: #000000"/>
     <use xlink:href="#m8ee138350a" x="295.2" y="260.844821" style="fill-opacity: 0; stroke: #000000"/>
     <use xlink:href="#m8ee138350a" x="295.2" y="69.270213" style="fill-opacity: 0; stroke: #000000"/>
     <use xlink:href="#m8ee138350a" x="295.2" y="242.623117" style="fill-opacity: 0; stroke: #000000"/>
     <use xlink:href="#m8ee138350a" x="295.2" y="82.691996" style="fill-opacity: 0; stroke: #000000"/>
     <use xlink:href="#m8ee138350a" x="295.2" y="254.479942" style="fill-opacity: 0; stroke: #000000"/>
     <use xlink:href="#m8ee138350a" x="295.2" y="76.617715" style="fill-opacity: 0; stroke: #000000"/>
     <use xlink:href="#m8ee138350a" x="295.2" y="259.212771" style="fill-opacity: 0; stroke: #000000"/>
     <use xlink:href="#m8ee138350a" x="295.2" y="74.365083" style="fill-opacity: 0; stroke: #000000"/>
     <use xlink:href="#m8ee138350a" x="295.2" y="259.19959" style="fill-opacity: 0; stroke: #000000"/>
     <use xlink:href="#m8ee138350a" x="295.2" y="84.122552" style="fill-opacity: 0; stroke: #000000"/>
     <use xlink:href="#m8ee138350a" x="295.2" y="266.526494" style="fill-opacity: 0; stroke: #000000"/>
     <use xlink:href="#m8ee138350a" x="295.2" y="70.214764" style="fill-opacity: 0; stroke: #000000"/>
     <use xlink:href="#m8ee138350a" x="295.2" y="261.361613" style="fill-opacity: 0; stroke: #000000"/>
     <use xlink:href="#m8ee138350a" x="295.2" y="75.628012" style="fill-opacity: 0; stroke: #000000"/>
     <use xlink:href="#m8ee138350a" x="295.2" y="256.687277" style="fill-opacity: 0; stroke: #000000"/>
     <use xlink:href="#m8ee138350a" x="295.2" y="75.849724" style="fill-opacity: 0; stroke: #000000"/>
     <use xlink:href="#m8ee138350a" x="295.2" y="258.570395" style="fill-opacity: 0; stroke: #000000"/>
     <use xlink:href="#m8ee138350a" x="295.2" y="66.045468" style="fill-opacity: 0; stroke: #000000"/>
     <use xlink:href="#m8ee138350a" x="295.2" y="261.987874" style="fill-opacity: 0; stroke: #000000"/>
     <use xlink:href="#m8ee138350a" x="295.2" y="77.992727" style="fill-opacity: 0; stroke: #000000"/>
     <use xlink:href="#m8ee138350a" x="295.2" y="255.022966" style="fill-opacity: 0; stroke: #000000"/>
     <use xlink:href="#m8ee138350a" x="295.2" y="85.366009" style="fill-opacity: 0; stroke: #000000"/>
     <use xlink:href="#m8ee138350a" x="295.2" y="255.396349" style="fill-opacity: 0; stroke: #000000"/>
     <use xlink:href="#m8ee138350a" x="295.2" y="75.528674" style="fill-opacity: 0; stroke: #000000"/>
     <use xlink:href="#m8ee138350a" x="295.2" y="250.682934" style="fill-opacity: 0; stroke: #000000"/>
     <use xlink:href="#m8ee138350a" x="295.2" y="75.816806" style="fill-opacity: 0; stroke: #000000"/>
     <use xlink:href="#m8ee138350a" x="295.2" y="252.654164" style="fill-opacity: 0; stroke: #000000"/>
     <use xlink:href="#m8ee138350a" x="295.2" y="69.568008" style="fill-opacity: 0; stroke: #000000"/>
     <use xlink:href="#m8ee138350a" x="295.2" y="237.10345" style="fill-opacity: 0; stroke: #000000"/>
     <use xlink:href="#m8ee138350a" x="295.2" y="285.161346" style="fill-opacity: 0; stroke: #000000"/>
     <use xlink:href="#m8ee138350a" x="295.2" y="79.427794" style="fill-opacity: 0; stroke: #000000"/>
     <use xlink:href="#m8ee138350a" x="295.2" y="265.243317" style="fill-opacity: 0; stroke: #000000"/>
     <use xlink:href="#m8ee138350a" x="295.2" y="70.92159" style="fill-opacity: 0; stroke: #000000"/>
     <use xlink:href="#m8ee138350a" x="295.2" y="245.106424" style="fill-opacity: 0; stroke: #000000"/>
     <use xlink:href="#m8ee138350a" x="295.2" y="77.34019" style="fill-opacity: 0; stroke: #000000"/>
     <use xlink:href="#m8ee138350a" x="295.2" y="251.405496" style="fill-opacity: 0; stroke: #000000"/>
    </g>
   </g>
   <g id="line2d_12">
    <path d="M 250.56 337.236706 
L 339.84 337.236706 
" clip-path="url(#pff1546d596)" style="fill: none; stroke: #ff7f0e"/>
   </g>
   <g id="patch_4">
    <path d="M 72 384.48 
L 72 51.84 
" style="fill: none; stroke: #000000; stroke-width: 0.8; stroke-linejoin: miter; stroke-linecap: square"/>
   </g>
   <g id="patch_5">
    <path d="M 518.4 384.48 
L 518.4 51.84 
" style="fill: none; stroke: #000000; stroke-width: 0.8; stroke-linejoin: miter; stroke-linecap: square"/>
   </g>
   <g id="patch_6">
    <path d="M 72 384.48 
L 518.4 384.48 
" style="fill: none; stroke: #000000; stroke-width: 0.8; stroke-linejoin: miter; stroke-linecap: square"/>
   </g>
   <g id="patch_7">
    <path d="M 72 51.84 
L 518.4 51.84 
" style="fill: none; stroke: #000000; stroke-width: 0.8; stroke-linejoin: miter; stroke-linecap: square"/>
   </g>
   <g id="text_8">
    <!-- Handle Result -->
    <g transform="translate(253.595625 45.84) scale(0.12 -0.12)">
     <defs>
      <path id="DejaVuSans-48" d="M 628 4666 
L 1259 4666 
L 1259 2753 
L 3553 2753 
L 3553 4666 
L 4184 4666 
L 4184 0 
L 3553 0 
L 3553 2222 
L 1259 2222 
L 1259 0 
L 628 0 
L 628 4666 
z
" transform="scale(0.015625)"/>
      <path id="DejaVuSans-61" d="M 2194 1759 
Q 1497 1759 1228 1600 
Q 959 1441 959 1056 
Q 959 750 1161 570 
Q 1363 391 1709 391 
Q 2188 391 2477 730 
Q 2766 1069 2766 1631 
L 2766 1759 
L 2194 1759 
z
M 3341 1997 
L 3341 0 
L 2766 0 
L 2766 531 
Q 2569 213 2275 61 
Q 1981 -91 1556 -91 
Q 1019 -91 701 211 
Q 384 513 384 1019 
Q 384 1609 779 1909 
Q 1175 2209 1959 2209 
L 2766 2209 
L 2766 2266 
Q 2766 2663 2505 2880 
Q 2244 3097 1772 3097 
Q 1472 3097 1187 3025 
Q 903 2953 641 2809 
L 641 3341 
Q 956 3463 1253 3523 
Q 1550 3584 1831 3584 
Q 2591 3584 2966 3190 
Q 3341 2797 3341 1997 
z
" transform="scale(0.015625)"/>
      <path id="DejaVuSans-6e" d="M 3513 2113 
L 3513 0 
L 2938 0 
L 2938 2094 
Q 2938 2591 2744 2837 
Q 2550 3084 2163 3084 
Q 1697 3084 1428 2787 
Q 1159 2491 1159 1978 
L 1159 0 
L 581 0 
L 581 3500 
L 1159 3500 
L 1159 2956 
Q 1366 3272 1645 3428 
Q 1925 3584 2291 3584 
Q 2894 3584 3203 3211 
Q 3513 2838 3513 2113 
z
" transform="scale(0.015625)"/>
      <path id="DejaVuSans-64" d="M 2906 2969 
L 2906 4863 
L 3481 4863 
L 3481 0 
L 2906 0 
L 2906 525 
Q 2725 213 2448 61 
Q 2172 -91 1784 -91 
Q 1150 -91 751 415 
Q 353 922 353 1747 
Q 353 2572 751 3078 
Q 1150 3584 1784 3584 
Q 2172 3584 2448 3432 
Q 2725 3281 2906 2969 
z
M 947 1747 
Q 947 1113 1208 752 
Q 1469 391 1925 391 
Q 2381 391 2643 752 
Q 2906 1113 2906 1747 
Q 2906 2381 2643 2742 
Q 2381 3103 1925 3103 
Q 1469 3103 1208 2742 
Q 947 2381 947 1747 
z
" transform="scale(0.015625)"/>
      <path id="DejaVuSans-6c" d="M 603 4863 
L 1178 4863 
L 1178 0 
L 603 0 
L 603 4863 
z
" transform="scale(0.015625)"/>
      <path id="DejaVuSans-52" d="M 2841 2188 
Q 3044 2119 3236 1894 
Q 3428 1669 3622 1275 
L 4263 0 
L 3584 0 
L 2988 1197 
Q 2756 1666 2539 1819 
Q 2322 1972 1947 1972 
L 1259 1972 
L 1259 0 
L 628 0 
L 628 4666 
L 2053 4666 
Q 2853 4666 3247 4331 
Q 3641 3997 3641 3322 
Q 3641 2881 3436 2590 
Q 3231 2300 2841 2188 
z
M 1259 4147 
L 1259 2491 
L 2053 2491 
Q 2509 2491 2742 2702 
Q 2975 2913 2975 3322 
Q 2975 3731 2742 3939 
Q 2509 4147 2053 4147 
L 1259 4147 
z
" transform="scale(0.015625)"/>
      <path id="DejaVuSans-75" d="M 544 1381 
L 544 3500 
L 1119 3500 
L 1119 1403 
Q 1119 906 1312 657 
Q 1506 409 1894 409 
Q 2359 409 2629 706 
Q 2900 1003 2900 1516 
L 2900 3500 
L 3475 3500 
L 3475 0 
L 2900 0 
L 2900 538 
Q 2691 219 2414 64 
Q 2138 -91 1772 -91 
Q 1169 -91 856 284 
Q 544 659 544 1381 
z
M 1991 3584 
L 1991 3584 
z
" transform="scale(0.015625)"/>
      <path id="DejaVuSans-74" d="M 1172 4494 
L 1172 3500 
L 2356 3500 
L 2356 3053 
L 1172 3053 
L 1172 1153 
Q 1172 725 1289 603 
Q 1406 481 1766 481 
L 2356 481 
L 2356 0 
L 1766 0 
Q 1100 0 847 248 
Q 594 497 594 1153 
L 594 3053 
L 172 3053 
L 172 3500 
L 594 3500 
L 594 4494 
L 1172 4494 
z
" transform="scale(0.015625)"/>
     </defs>
     <use xlink:href="#DejaVuSans-48"/>
     <use xlink:href="#DejaVuSans-61" transform="translate(75.195312 0)"/>
     <use xlink:href="#DejaVuSans-6e" transform="translate(136.474609 0)"/>
     <use xlink:href="#DejaVuSans-64" transform="translate(199.853516 0)"/>
     <use xlink:href="#DejaVuSans-6c" transform="translate(263.330078 0)"/>
     <use xlink:href="#DejaVuSans-65" transform="translate(291.113281 0)"/>
     <use xlink:href="#DejaVuSans-20" transform="translate(352.636719 0)"/>
     <use xlink:href="#DejaVuSans-52" transform="translate(384.423828 0)"/>
     <use xlink:href="#DejaVuSans-65" transform="translate(449.40625 0)"/>
     <use xlink:href="#DejaVuSans-73" transform="translate(510.929688 0)"/>
     <use xlink:href="#DejaVuSans-75" transform="translate(563.029297 0)"/>
     <use xlink:href="#DejaVuSans-6c" transform="translate(626.408203 0)"/>
     <use xlink:href="#DejaVuSans-74" transform="translate(654.191406 0)"/>
    </g>
   </g>
  </g>
 </g>
 <defs>
  <clipPath id="pff1546d596">
   <rect x="72" y="51.84" width="446.4" height="332.64"/>
  </clipPath>
 </defs>
</svg>
