<?xml version="1.0" encoding="utf-8" standalone="no"?>
<!DOCTYPE svg PUBLIC "-//W3C//DTD SVG 1.1//EN"
  "http://www.w3.org/Graphics/SVG/1.1/DTD/svg11.dtd">
<svg xmlns:xlink="http://www.w3.org/1999/xlink" width="576pt" height="432pt" viewBox="0 0 576 432" xmlns="http://www.w3.org/2000/svg" version="1.1">
 <metadata>
  <rdf:RDF xmlns:dc="http://purl.org/dc/elements/1.1/" xmlns:cc="http://creativecommons.org/ns#" xmlns:rdf="http://www.w3.org/1999/02/22-rdf-syntax-ns#">
   <cc:Work>
    <dc:type rdf:resource="http://purl.org/dc/dcmitype/StillImage"/>
    <dc:date>2025-06-10T03:16:31.749945</dc:date>
    <dc:format>image/svg+xml</dc:format>
    <dc:creator>
     <cc:Agent>
      <dc:title>Matplotlib v3.10.3, https://matplotlib.org/</dc:title>
     </cc:Agent>
    </dc:creator>
   </cc:Work>
  </rdf:RDF>
 </metadata>
 <defs>
  <style type="text/css">*{stroke-linejoin: round; stroke-linecap: butt}</style>
 </defs>
 <g id="figure_1">
  <g id="patch_1">
   <path d="M 0 432 
L 576 432 
L 576 0 
L 0 0 
z
" style="fill: #ffffff"/>
  </g>
  <g id="axes_1">
   <g id="patch_2">
    <path d="M 72 384.48 
L 518.4 384.48 
L 518.4 51.84 
L 72 51.84 
z
" style="fill: #ffffff"/>
   </g>
   <g id="FillBetweenPolyCollection_1">
    <path d="M 396.291797 335.615785 
L 194.108203 335.615785 
L 189.991851 332.885859 
L 186.810844 330.155933 
L 184.658731 327.426007 
L 183.6 324.696081 
L 183.666868 321.966156 
L 184.857657 319.23623 
L 187.136861 316.506304 
L 190.436894 313.776378 
L 194.661423 311.046453 
L 199.690026 308.316527 
L 205.383889 305.586601 
L 211.592147 302.856675 
L 218.158473 300.126749 
L 224.927529 297.396824 
L 231.750884 294.666898 
L 238.492134 291.936972 
L 245.030968 289.207046 
L 251.26607 286.477121 
L 257.116797 283.747195 
L 262.523684 281.017269 
L 267.447891 278.287343 
L 271.869758 275.557417 
L 275.786678 272.827492 
L 279.210501 270.097566 
L 282.164694 267.36764 
L 284.681447 264.637714 
L 286.7989 261.907789 
L 288.558613 259.177863 
L 290.003381 256.447937 
L 291.175429 253.718011 
L 292.115022 250.988085 
L 292.859464 248.25816 
L 293.442454 245.528234 
L 293.893758 242.798308 
L 294.239133 240.068382 
L 294.500442 237.338457 
L 294.695916 234.608531 
L 294.840498 231.878605 
L 294.946242 229.148679 
L 295.022716 226.418753 
L 295.077404 223.688828 
L 295.116072 220.958902 
L 295.143096 218.228976 
L 295.161754 215.49905 
L 295.174458 212.769125 
L 295.182956 210.039199 
L 295.188489 207.309273 
L 295.191914 204.579347 
L 295.193794 201.849421 
L 295.194464 199.119496 
L 295.194081 196.38957 
L 295.19264 193.659644 
L 295.189997 190.929718 
L 295.185853 188.199793 
L 295.179751 185.469867 
L 295.171042 182.739941 
L 295.158856 180.010015 
L 295.142057 177.280089 
L 295.119198 174.550164 
L 295.08847 171.820238 
L 295.047648 169.090312 
L 294.99405 166.360386 
L 294.924501 163.630461 
L 294.835312 160.900535 
L 294.722288 158.170609 
L 294.580762 155.440683 
L 294.405676 152.710757 
L 294.191702 149.980832 
L 293.933411 147.250906 
L 293.625506 144.52098 
L 293.263093 141.791054 
L 292.842004 139.061129 
L 292.359151 136.331203 
L 291.812894 133.601277 
L 291.203409 130.871351 
L 290.533016 128.141425 
L 289.806458 125.4115 
L 289.031083 122.681574 
L 288.216916 119.951648 
L 287.376598 117.221722 
L 286.525162 114.491797 
L 285.679672 111.761871 
L 284.858693 109.031945 
L 284.081646 106.302019 
L 283.368054 103.572093 
L 282.736723 100.842168 
L 282.204921 98.112242 
L 281.787583 95.382316 
L 281.496605 92.65239 
L 281.340279 89.922465 
L 281.322898 87.192539 
L 281.444555 84.462613 
L 281.701166 81.732687 
L 282.084687 79.002761 
L 282.583541 76.272836 
L 283.183191 73.54291 
L 283.866846 70.812984 
L 284.616234 68.083058 
L 285.412408 65.353133 
L 304.987592 65.353133 
L 304.987592 65.353133 
L 305.783766 68.083058 
L 306.533154 70.812984 
L 307.216809 73.54291 
L 307.816459 76.272836 
L 308.315313 79.002761 
L 308.698834 81.732687 
L 308.955445 84.462613 
L 309.077102 87.192539 
L 309.059721 89.922465 
L 308.903395 92.65239 
L 308.612417 95.382316 
L 308.195079 98.112242 
L 307.663277 100.842168 
L 307.031946 103.572093 
L 306.318354 106.302019 
L 305.541307 109.031945 
L 304.720328 111.761871 
L 303.874838 114.491797 
L 303.023402 117.221722 
L 302.183084 119.951648 
L 301.368917 122.681574 
L 300.593542 125.4115 
L 299.866984 128.141425 
L 299.196591 130.871351 
L 298.587106 133.601277 
L 298.040849 136.331203 
L 297.557996 139.061129 
L 297.136907 141.791054 
L 296.774494 144.52098 
L 296.466589 147.250906 
L 296.208298 149.980832 
L 295.994324 152.710757 
L 295.819238 155.440683 
L 295.677712 158.170609 
L 295.564688 160.900535 
L 295.475499 163.630461 
L 295.40595 166.360386 
L 295.352352 169.090312 
L 295.31153 171.820238 
L 295.280802 174.550164 
L 295.257943 177.280089 
L 295.241144 180.010015 
L 295.228958 182.739941 
L 295.220249 185.469867 
L 295.214147 188.199793 
L 295.210003 190.929718 
L 295.20736 193.659644 
L 295.205919 196.38957 
L 295.205536 199.119496 
L 295.206206 201.849421 
L 295.208086 204.579347 
L 295.211511 207.309273 
L 295.217044 210.039199 
L 295.225542 212.769125 
L 295.238246 215.49905 
L 295.256904 218.228976 
L 295.283928 220.958902 
L 295.322596 223.688828 
L 295.377284 226.418753 
L 295.453758 229.148679 
L 295.559502 231.878605 
L 295.704084 234.608531 
L 295.899558 237.338457 
L 296.160867 240.068382 
L 296.506242 242.798308 
L 296.957546 245.528234 
L 297.540536 248.25816 
L 298.284978 250.988085 
L 299.224571 253.718011 
L 300.396619 256.447937 
L 301.841387 259.177863 
L 303.6011 261.907789 
L 305.718553 264.637714 
L 308.235306 267.36764 
L 311.189499 270.097566 
L 314.613322 272.827492 
L 318.530242 275.557417 
L 322.952109 278.287343 
L 327.876316 281.017269 
L 333.283203 283.747195 
L 339.13393 286.477121 
L 345.369032 289.207046 
L 351.907866 291.936972 
L 358.649116 294.666898 
L 365.472471 297.396824 
L 372.241527 300.126749 
L 378.807853 302.856675 
L 385.016111 305.586601 
L 390.709974 308.316527 
L 395.738577 311.046453 
L 399.963106 313.776378 
L 403.263139 316.506304 
L 405.542343 319.23623 
L 406.733132 321.966156 
L 406.8 324.696081 
L 405.741269 327.426007 
L 403.589156 330.155933 
L 400.408149 332.885859 
L 396.291797 335.615785 
z
" clip-path="url(#p076af56536)" style="fill: #1f77b4; fill-opacity: 0.3"/>
   </g>
   <g id="matplotlib.axis_1">
    <g id="xtick_1">
     <g id="line2d_1">
      <defs>
       <path id="m0955b69edf" d="M 0 0 
L 0 3.5 
" style="stroke: #000000; stroke-width: 0.8"/>
      </defs>
      <g>
       <use xlink:href="#m0955b69edf" x="295.2" y="384.48" style="stroke: #000000; stroke-width: 0.8"/>
      </g>
     </g>
     <g id="text_1">
      <!-- 1 -->
      <g transform="translate(292.01875 399.078438) scale(0.1 -0.1)">
       <defs>
        <path id="DejaVuSans-31" d="M 794 531 
L 1825 531 
L 1825 4091 
L 703 3866 
L 703 4441 
L 1819 4666 
L 2450 4666 
L 2450 531 
L 3481 531 
L 3481 0 
L 794 0 
L 794 531 
z
" transform="scale(0.015625)"/>
       </defs>
       <use xlink:href="#DejaVuSans-31"/>
      </g>
     </g>
    </g>
   </g>
   <g id="matplotlib.axis_2">
    <g id="ytick_1">
     <g id="line2d_2">
      <defs>
       <path id="m89a0bc9e7a" d="M 0 0 
L -3.5 0 
" style="stroke: #000000; stroke-width: 0.8"/>
      </defs>
      <g>
       <use xlink:href="#m89a0bc9e7a" x="72" y="384.48" style="stroke: #000000; stroke-width: 0.8"/>
      </g>
     </g>
     <g id="text_2">
      <!-- 0 -->
      <g transform="translate(58.6375 388.279219) scale(0.1 -0.1)">
       <defs>
        <path id="DejaVuSans-30" d="M 2034 4250 
Q 1547 4250 1301 3770 
Q 1056 3291 1056 2328 
Q 1056 1369 1301 889 
Q 1547 409 2034 409 
Q 2525 409 2770 889 
Q 3016 1369 3016 2328 
Q 3016 3291 2770 3770 
Q 2525 4250 2034 4250 
z
M 2034 4750 
Q 2819 4750 3233 4129 
Q 3647 3509 3647 2328 
Q 3647 1150 3233 529 
Q 2819 -91 2034 -91 
Q 1250 -91 836 529 
Q 422 1150 422 2328 
Q 422 3509 836 4129 
Q 1250 4750 2034 4750 
z
" transform="scale(0.015625)"/>
       </defs>
       <use xlink:href="#DejaVuSans-30"/>
      </g>
     </g>
    </g>
    <g id="ytick_2">
     <g id="line2d_3">
      <g>
       <use xlink:href="#m89a0bc9e7a" x="72" y="325.588844" style="stroke: #000000; stroke-width: 0.8"/>
      </g>
     </g>
     <g id="text_3">
      <!-- 20 -->
      <g transform="translate(52.275 329.388063) scale(0.1 -0.1)">
       <defs>
        <path id="DejaVuSans-32" d="M 1228 531 
L 3431 531 
L 3431 0 
L 469 0 
L 469 531 
Q 828 903 1448 1529 
Q 2069 2156 2228 2338 
Q 2531 2678 2651 2914 
Q 2772 3150 2772 3378 
Q 2772 3750 2511 3984 
Q 2250 4219 1831 4219 
Q 1534 4219 1204 4116 
Q 875 4013 500 3803 
L 500 4441 
Q 881 4594 1212 4672 
Q 1544 4750 1819 4750 
Q 2544 4750 2975 4387 
Q 3406 4025 3406 3419 
Q 3406 3131 3298 2873 
Q 3191 2616 2906 2266 
Q 2828 2175 2409 1742 
Q 1991 1309 1228 531 
z
" transform="scale(0.015625)"/>
       </defs>
       <use xlink:href="#DejaVuSans-32"/>
       <use xlink:href="#DejaVuSans-30" transform="translate(63.623047 0)"/>
      </g>
     </g>
    </g>
    <g id="ytick_3">
     <g id="line2d_4">
      <g>
       <use xlink:href="#m89a0bc9e7a" x="72" y="266.697688" style="stroke: #000000; stroke-width: 0.8"/>
      </g>
     </g>
     <g id="text_4">
      <!-- 40 -->
      <g transform="translate(52.275 270.496906) scale(0.1 -0.1)">
       <defs>
        <path id="DejaVuSans-34" d="M 2419 4116 
L 825 1625 
L 2419 1625 
L 2419 4116 
z
M 2253 4666 
L 3047 4666 
L 3047 1625 
L 3713 1625 
L 3713 1100 
L 3047 1100 
L 3047 0 
L 2419 0 
L 2419 1100 
L 313 1100 
L 313 1709 
L 2253 4666 
z
" transform="scale(0.015625)"/>
       </defs>
       <use xlink:href="#DejaVuSans-34"/>
       <use xlink:href="#DejaVuSans-30" transform="translate(63.623047 0)"/>
      </g>
     </g>
    </g>
    <g id="ytick_4">
     <g id="line2d_5">
      <g>
       <use xlink:href="#m89a0bc9e7a" x="72" y="207.806531" style="stroke: #000000; stroke-width: 0.8"/>
      </g>
     </g>
     <g id="text_5">
      <!-- 60 -->
      <g transform="translate(52.275 211.60575) scale(0.1 -0.1)">
       <defs>
        <path id="DejaVuSans-36" d="M 2113 2584 
Q 1688 2584 1439 2293 
Q 1191 2003 1191 1497 
Q 1191 994 1439 701 
Q 1688 409 2113 409 
Q 2538 409 2786 701 
Q 3034 994 3034 1497 
Q 3034 2003 2786 2293 
Q 2538 2584 2113 2584 
z
M 3366 4563 
L 3366 3988 
Q 3128 4100 2886 4159 
Q 2644 4219 2406 4219 
Q 1781 4219 1451 3797 
Q 1122 3375 1075 2522 
Q 1259 2794 1537 2939 
Q 1816 3084 2150 3084 
Q 2853 3084 3261 2657 
Q 3669 2231 3669 1497 
Q 3669 778 3244 343 
Q 2819 -91 2113 -91 
Q 1303 -91 875 529 
Q 447 1150 447 2328 
Q 447 3434 972 4092 
Q 1497 4750 2381 4750 
Q 2619 4750 2861 4703 
Q 3103 4656 3366 4563 
z
" transform="scale(0.015625)"/>
       </defs>
       <use xlink:href="#DejaVuSans-36"/>
       <use xlink:href="#DejaVuSans-30" transform="translate(63.623047 0)"/>
      </g>
     </g>
    </g>
    <g id="ytick_5">
     <g id="line2d_6">
      <g>
       <use xlink:href="#m89a0bc9e7a" x="72" y="148.915375" style="stroke: #000000; stroke-width: 0.8"/>
      </g>
     </g>
     <g id="text_6">
      <!-- 80 -->
      <g transform="translate(52.275 152.714594) scale(0.1 -0.1)">
       <defs>
        <path id="DejaVuSans-38" d="M 2034 2216 
Q 1584 2216 1326 1975 
Q 1069 1734 1069 1313 
Q 1069 891 1326 650 
Q 1584 409 2034 409 
Q 2484 409 2743 651 
Q 3003 894 3003 1313 
Q 3003 1734 2745 1975 
Q 2488 2216 2034 2216 
z
M 1403 2484 
Q 997 2584 770 2862 
Q 544 3141 544 3541 
Q 544 4100 942 4425 
Q 1341 4750 2034 4750 
Q 2731 4750 3128 4425 
Q 3525 4100 3525 3541 
Q 3525 3141 3298 2862 
Q 3072 2584 2669 2484 
Q 3125 2378 3379 2068 
Q 3634 1759 3634 1313 
Q 3634 634 3220 271 
Q 2806 -91 2034 -91 
Q 1263 -91 848 271 
Q 434 634 434 1313 
Q 434 1759 690 2068 
Q 947 2378 1403 2484 
z
M 1172 3481 
Q 1172 3119 1398 2916 
Q 1625 2713 2034 2713 
Q 2441 2713 2670 2916 
Q 2900 3119 2900 3481 
Q 2900 3844 2670 4047 
Q 2441 4250 2034 4250 
Q 1625 4250 1398 4047 
Q 1172 3844 1172 3481 
z
" transform="scale(0.015625)"/>
       </defs>
       <use xlink:href="#DejaVuSans-38"/>
       <use xlink:href="#DejaVuSans-30" transform="translate(63.623047 0)"/>
      </g>
     </g>
    </g>
    <g id="ytick_6">
     <g id="line2d_7">
      <g>
       <use xlink:href="#m89a0bc9e7a" x="72" y="90.024219" style="stroke: #000000; stroke-width: 0.8"/>
      </g>
     </g>
     <g id="text_7">
      <!-- 100 -->
      <g transform="translate(45.9125 93.823438) scale(0.1 -0.1)">
       <use xlink:href="#DejaVuSans-31"/>
       <use xlink:href="#DejaVuSans-30" transform="translate(63.623047 0)"/>
       <use xlink:href="#DejaVuSans-30" transform="translate(127.246094 0)"/>
      </g>
     </g>
    </g>
    <g id="text_8">
     <!-- Time (ms) -->
     <g transform="translate(39.832812 243.359219) rotate(-90) scale(0.1 -0.1)">
      <defs>
       <path id="DejaVuSans-54" d="M -19 4666 
L 3928 4666 
L 3928 4134 
L 2272 4134 
L 2272 0 
L 1638 0 
L 1638 4134 
L -19 4134 
L -19 4666 
z
" transform="scale(0.015625)"/>
       <path id="DejaVuSans-69" d="M 603 3500 
L 1178 3500 
L 1178 0 
L 603 0 
L 603 3500 
z
M 603 4863 
L 1178 4863 
L 1178 4134 
L 603 4134 
L 603 4863 
z
" transform="scale(0.015625)"/>
       <path id="DejaVuSans-6d" d="M 3328 2828 
Q 3544 3216 3844 3400 
Q 4144 3584 4550 3584 
Q 5097 3584 5394 3201 
Q 5691 2819 5691 2113 
L 5691 0 
L 5113 0 
L 5113 2094 
Q 5113 2597 4934 2840 
Q 4756 3084 4391 3084 
Q 3944 3084 3684 2787 
Q 3425 2491 3425 1978 
L 3425 0 
L 2847 0 
L 2847 2094 
Q 2847 2600 2669 2842 
Q 2491 3084 2119 3084 
Q 1678 3084 1418 2786 
Q 1159 2488 1159 1978 
L 1159 0 
L 581 0 
L 581 3500 
L 1159 3500 
L 1159 2956 
Q 1356 3278 1631 3431 
Q 1906 3584 2284 3584 
Q 2666 3584 2933 3390 
Q 3200 3197 3328 2828 
z
" transform="scale(0.015625)"/>
       <path id="DejaVuSans-65" d="M 3597 1894 
L 3597 1613 
L 953 1613 
Q 991 1019 1311 708 
Q 1631 397 2203 397 
Q 2534 397 2845 478 
Q 3156 559 3463 722 
L 3463 178 
Q 3153 47 2828 -22 
Q 2503 -91 2169 -91 
Q 1331 -91 842 396 
Q 353 884 353 1716 
Q 353 2575 817 3079 
Q 1281 3584 2069 3584 
Q 2775 3584 3186 3129 
Q 3597 2675 3597 1894 
z
M 3022 2063 
Q 3016 2534 2758 2815 
Q 2500 3097 2075 3097 
Q 1594 3097 1305 2825 
Q 1016 2553 972 2059 
L 3022 2063 
z
" transform="scale(0.015625)"/>
       <path id="DejaVuSans-20" transform="scale(0.015625)"/>
       <path id="DejaVuSans-28" d="M 1984 4856 
Q 1566 4138 1362 3434 
Q 1159 2731 1159 2009 
Q 1159 1288 1364 580 
Q 1569 -128 1984 -844 
L 1484 -844 
Q 1016 -109 783 600 
Q 550 1309 550 2009 
Q 550 2706 781 3412 
Q 1013 4119 1484 4856 
L 1984 4856 
z
" transform="scale(0.015625)"/>
       <path id="DejaVuSans-73" d="M 2834 3397 
L 2834 2853 
Q 2591 2978 2328 3040 
Q 2066 3103 1784 3103 
Q 1356 3103 1142 2972 
Q 928 2841 928 2578 
Q 928 2378 1081 2264 
Q 1234 2150 1697 2047 
L 1894 2003 
Q 2506 1872 2764 1633 
Q 3022 1394 3022 966 
Q 3022 478 2636 193 
Q 2250 -91 1575 -91 
Q 1294 -91 989 -36 
Q 684 19 347 128 
L 347 722 
Q 666 556 975 473 
Q 1284 391 1588 391 
Q 1994 391 2212 530 
Q 2431 669 2431 922 
Q 2431 1156 2273 1281 
Q 2116 1406 1581 1522 
L 1381 1569 
Q 847 1681 609 1914 
Q 372 2147 372 2553 
Q 372 3047 722 3315 
Q 1072 3584 1716 3584 
Q 2034 3584 2315 3537 
Q 2597 3491 2834 3397 
z
" transform="scale(0.015625)"/>
       <path id="DejaVuSans-29" d="M 513 4856 
L 1013 4856 
Q 1481 4119 1714 3412 
Q 1947 2706 1947 2009 
Q 1947 1309 1714 600 
Q 1481 -109 1013 -844 
L 513 -844 
Q 928 -128 1133 580 
Q 1338 1288 1338 2009 
Q 1338 2731 1133 3434 
Q 928 4138 513 4856 
z
" transform="scale(0.015625)"/>
      </defs>
      <use xlink:href="#DejaVuSans-54"/>
      <use xlink:href="#DejaVuSans-69" transform="translate(57.958984 0)"/>
      <use xlink:href="#DejaVuSans-6d" transform="translate(85.742188 0)"/>
      <use xlink:href="#DejaVuSans-65" transform="translate(183.154297 0)"/>
      <use xlink:href="#DejaVuSans-20" transform="translate(244.677734 0)"/>
      <use xlink:href="#DejaVuSans-28" transform="translate(276.464844 0)"/>
      <use xlink:href="#DejaVuSans-6d" transform="translate(315.478516 0)"/>
      <use xlink:href="#DejaVuSans-73" transform="translate(412.890625 0)"/>
      <use xlink:href="#DejaVuSans-29" transform="translate(464.990234 0)"/>
     </g>
    </g>
   </g>
   <g id="LineCollection_1">
    <path d="M 239.4 297.335758 
L 351 297.335758 
" clip-path="url(#p076af56536)" style="fill: none; stroke: #1f77b4; stroke-width: 1.5"/>
   </g>
   <g id="LineCollection_2">
    <path d="M 239.4 65.353133 
L 351 65.353133 
" clip-path="url(#p076af56536)" style="fill: none; stroke: #1f77b4; stroke-width: 1.5"/>
   </g>
   <g id="LineCollection_3">
    <path d="M 239.4 335.615785 
L 351 335.615785 
" clip-path="url(#p076af56536)" style="fill: none; stroke: #1f77b4; stroke-width: 1.5"/>
   </g>
   <g id="LineCollection_4">
    <path d="M 295.2 335.615785 
L 295.2 65.353133 
" clip-path="url(#p076af56536)" style="fill: none; stroke: #1f77b4; stroke-width: 1.5"/>
   </g>
   <g id="patch_3">
    <path d="M 250.56 328.905212 
L 339.84 328.905212 
L 339.84 317.597047 
L 250.56 317.597047 
L 250.56 328.905212 
z
" clip-path="url(#p076af56536)" style="fill: #1f77b4; stroke: #000000; stroke-linejoin: miter"/>
   </g>
   <g id="line2d_8">
    <path d="M 295.2 328.905212 
L 295.2 335.615785 
" clip-path="url(#p076af56536)" style="fill: none; stroke: #000000; stroke-linecap: square"/>
   </g>
   <g id="line2d_9">
    <path d="M 295.2 317.597047 
L 295.2 307.99093 
" clip-path="url(#p076af56536)" style="fill: none; stroke: #000000; stroke-linecap: square"/>
   </g>
   <g id="line2d_10">
    <path d="M 272.88 335.615785 
L 317.52 335.615785 
" clip-path="url(#p076af56536)" style="fill: none; stroke: #000000; stroke-linecap: square"/>
   </g>
   <g id="line2d_11">
    <path d="M 272.88 307.99093 
L 317.52 307.99093 
" clip-path="url(#p076af56536)" style="fill: none; stroke: #000000; stroke-linecap: square"/>
   </g>
   <g id="line2d_12">
    <defs>
     <path id="m6996bf2e87" d="M 0 3 
C 0.795609 3 1.55874 2.683901 2.12132 2.12132 
C 2.683901 1.55874 3 0.795609 3 0 
C 3 -0.795609 2.683901 -1.55874 2.12132 -2.12132 
C 1.55874 -2.683901 0.795609 -3 0 -3 
C -0.795609 -3 -1.55874 -2.683901 -2.12132 -2.12132 
C -2.683901 -1.55874 -3 -0.795609 -3 0 
C -3 0.795609 -2.683901 1.55874 -2.12132 2.12132 
C -1.55874 2.683901 -0.795609 3 0 3 
z
" style="stroke: #000000"/>
    </defs>
    <g clip-path="url(#p076af56536)">
     <use xlink:href="#m6996bf2e87" x="295.2" y="92.413289" style="fill-opacity: 0; stroke: #000000"/>
     <use xlink:href="#m6996bf2e87" x="295.2" y="88.585376" style="fill-opacity: 0; stroke: #000000"/>
     <use xlink:href="#m6996bf2e87" x="295.2" y="92.261506" style="fill-opacity: 0; stroke: #000000"/>
     <use xlink:href="#m6996bf2e87" x="295.2" y="86.379534" style="fill-opacity: 0; stroke: #000000"/>
     <use xlink:href="#m6996bf2e87" x="295.2" y="90.558341" style="fill-opacity: 0; stroke: #000000"/>
     <use xlink:href="#m6996bf2e87" x="295.2" y="95.281698" style="fill-opacity: 0; stroke: #000000"/>
     <use xlink:href="#m6996bf2e87" x="295.2" y="91.875795" style="fill-opacity: 0; stroke: #000000"/>
     <use xlink:href="#m6996bf2e87" x="295.2" y="93.600399" style="fill-opacity: 0; stroke: #000000"/>
     <use xlink:href="#m6996bf2e87" x="295.2" y="65.353133" style="fill-opacity: 0; stroke: #000000"/>
     <use xlink:href="#m6996bf2e87" x="295.2" y="86.007513" style="fill-opacity: 0; stroke: #000000"/>
     <use xlink:href="#m6996bf2e87" x="295.2" y="91.848393" style="fill-opacity: 0; stroke: #000000"/>
     <use xlink:href="#m6996bf2e87" x="295.2" y="87.357489" style="fill-opacity: 0; stroke: #000000"/>
     <use xlink:href="#m6996bf2e87" x="295.2" y="92.6817" style="fill-opacity: 0; stroke: #000000"/>
     <use xlink:href="#m6996bf2e87" x="295.2" y="89.871762" style="fill-opacity: 0; stroke: #000000"/>
     <use xlink:href="#m6996bf2e87" x="295.2" y="89.299007" style="fill-opacity: 0; stroke: #000000"/>
     <use xlink:href="#m6996bf2e87" x="295.2" y="73.969592" style="fill-opacity: 0; stroke: #000000"/>
     <use xlink:href="#m6996bf2e87" x="295.2" y="93.413759" style="fill-opacity: 0; stroke: #000000"/>
     <use xlink:href="#m6996bf2e87" x="295.2" y="81.950171" style="fill-opacity: 0; stroke: #000000"/>
     <use xlink:href="#m6996bf2e87" x="295.2" y="89.242324" style="fill-opacity: 0; stroke: #000000"/>
     <use xlink:href="#m6996bf2e87" x="295.2" y="83.780847" style="fill-opacity: 0; stroke: #000000"/>
    </g>
   </g>
   <g id="line2d_13">
    <path d="M 250.56 320.073238 
L 339.84 320.073238 
" clip-path="url(#p076af56536)" style="fill: none; stroke: #ff7f0e"/>
   </g>
   <g id="patch_4">
    <path d="M 72 384.48 
L 72 51.84 
" style="fill: none; stroke: #000000; stroke-width: 0.8; stroke-linejoin: miter; stroke-linecap: square"/>
   </g>
   <g id="patch_5">
    <path d="M 518.4 384.48 
L 518.4 51.84 
" style="fill: none; stroke: #000000; stroke-width: 0.8; stroke-linejoin: miter; stroke-linecap: square"/>
   </g>
   <g id="patch_6">
    <path d="M 72 384.48 
L 518.4 384.48 
" style="fill: none; stroke: #000000; stroke-width: 0.8; stroke-linejoin: miter; stroke-linecap: square"/>
   </g>
   <g id="patch_7">
    <path d="M 72 51.84 
L 518.4 51.84 
" style="fill: none; stroke: #000000; stroke-width: 0.8; stroke-linejoin: miter; stroke-linecap: square"/>
   </g>
   <g id="text_9">
    <!-- Test Method -->
    <g transform="translate(258.975 45.84) scale(0.12 -0.12)">
     <defs>
      <path id="DejaVuSans-74" d="M 1172 4494 
L 1172 3500 
L 2356 3500 
L 2356 3053 
L 1172 3053 
L 1172 1153 
Q 1172 725 1289 603 
Q 1406 481 1766 481 
L 2356 481 
L 2356 0 
L 1766 0 
Q 1100 0 847 248 
Q 594 497 594 1153 
L 594 3053 
L 172 3053 
L 172 3500 
L 594 3500 
L 594 4494 
L 1172 4494 
z
" transform="scale(0.015625)"/>
      <path id="DejaVuSans-4d" d="M 628 4666 
L 1569 4666 
L 2759 1491 
L 3956 4666 
L 4897 4666 
L 4897 0 
L 4281 0 
L 4281 4097 
L 3078 897 
L 2444 897 
L 1241 4097 
L 1241 0 
L 628 0 
L 628 4666 
z
" transform="scale(0.015625)"/>
      <path id="DejaVuSans-68" d="M 3513 2113 
L 3513 0 
L 2938 0 
L 2938 2094 
Q 2938 2591 2744 2837 
Q 2550 3084 2163 3084 
Q 1697 3084 1428 2787 
Q 1159 2491 1159 1978 
L 1159 0 
L 581 0 
L 581 4863 
L 1159 4863 
L 1159 2956 
Q 1366 3272 1645 3428 
Q 1925 3584 2291 3584 
Q 2894 3584 3203 3211 
Q 3513 2838 3513 2113 
z
" transform="scale(0.015625)"/>
      <path id="DejaVuSans-6f" d="M 1959 3097 
Q 1497 3097 1228 2736 
Q 959 2375 959 1747 
Q 959 1119 1226 758 
Q 1494 397 1959 397 
Q 2419 397 2687 759 
Q 2956 1122 2956 1747 
Q 2956 2369 2687 2733 
Q 2419 3097 1959 3097 
z
M 1959 3584 
Q 2709 3584 3137 3096 
Q 3566 2609 3566 1747 
Q 3566 888 3137 398 
Q 2709 -91 1959 -91 
Q 1206 -91 779 398 
Q 353 888 353 1747 
Q 353 2609 779 3096 
Q 1206 3584 1959 3584 
z
" transform="scale(0.015625)"/>
      <path id="DejaVuSans-64" d="M 2906 2969 
L 2906 4863 
L 3481 4863 
L 3481 0 
L 2906 0 
L 2906 525 
Q 2725 213 2448 61 
Q 2172 -91 1784 -91 
Q 1150 -91 751 415 
Q 353 922 353 1747 
Q 353 2572 751 3078 
Q 1150 3584 1784 3584 
Q 2172 3584 2448 3432 
Q 2725 3281 2906 2969 
z
M 947 1747 
Q 947 1113 1208 752 
Q 1469 391 1925 391 
Q 2381 391 2643 752 
Q 2906 1113 2906 1747 
Q 2906 2381 2643 2742 
Q 2381 3103 1925 3103 
Q 1469 3103 1208 2742 
Q 947 2381 947 1747 
z
" transform="scale(0.015625)"/>
     </defs>
     <use xlink:href="#DejaVuSans-54"/>
     <use xlink:href="#DejaVuSans-65" transform="translate(44.083984 0)"/>
     <use xlink:href="#DejaVuSans-73" transform="translate(105.607422 0)"/>
     <use xlink:href="#DejaVuSans-74" transform="translate(157.707031 0)"/>
     <use xlink:href="#DejaVuSans-20" transform="translate(196.916016 0)"/>
     <use xlink:href="#DejaVuSans-4d" transform="translate(228.703125 0)"/>
     <use xlink:href="#DejaVuSans-65" transform="translate(314.982422 0)"/>
     <use xlink:href="#DejaVuSans-74" transform="translate(376.505859 0)"/>
     <use xlink:href="#DejaVuSans-68" transform="translate(415.714844 0)"/>
     <use xlink:href="#DejaVuSans-6f" transform="translate(479.09375 0)"/>
     <use xlink:href="#DejaVuSans-64" transform="translate(540.275391 0)"/>
    </g>
   </g>
  </g>
 </g>
 <defs>
  <clipPath id="p076af56536">
   <rect x="72" y="51.84" width="446.4" height="332.64"/>
  </clipPath>
 </defs>
</svg>
