<?xml version="1.0" encoding="utf-8" standalone="no"?>
<!DOCTYPE svg PUBLIC "-//W3C//DTD SVG 1.1//EN"
  "http://www.w3.org/Graphics/SVG/1.1/DTD/svg11.dtd">
<svg xmlns:xlink="http://www.w3.org/1999/xlink" width="576pt" height="432pt" viewBox="0 0 576 432" xmlns="http://www.w3.org/2000/svg" version="1.1">
 <metadata>
  <rdf:RDF xmlns:dc="http://purl.org/dc/elements/1.1/" xmlns:cc="http://creativecommons.org/ns#" xmlns:rdf="http://www.w3.org/1999/02/22-rdf-syntax-ns#">
   <cc:Work>
    <dc:type rdf:resource="http://purl.org/dc/dcmitype/StillImage"/>
    <dc:date>2025-09-30T20:43:38.369017</dc:date>
    <dc:format>image/svg+xml</dc:format>
    <dc:creator>
     <cc:Agent>
      <dc:title>Matplotlib v3.10.3, https://matplotlib.org/</dc:title>
     </cc:Agent>
    </dc:creator>
   </cc:Work>
  </rdf:RDF>
 </metadata>
 <defs>
  <style type="text/css">*{stroke-linejoin: round; stroke-linecap: butt}</style>
 </defs>
 <g id="figure_1">
  <g id="patch_1">
   <path d="M 0 432 
L 576 432 
L 576 0 
L 0 0 
z
" style="fill: #ffffff"/>
  </g>
  <g id="axes_1">
   <g id="patch_2">
    <path d="M 72 384.48 
L 518.4 384.48 
L 518.4 51.84 
L 72 51.84 
z
" style="fill: #ffffff"/>
   </g>
   <g id="FillBetweenPolyCollection_1">
    <path d="M 352.189848 379.108815 
L 238.210152 379.108815 
L 220.598428 375.960486 
L 204.428935 372.812157 
L 191.932207 369.663828 
L 184.779572 366.515498 
L 183.6 363.367169 
L 187.782959 360.21884 
L 195.748418 357.070511 
L 205.590594 353.922182 
L 215.729183 350.773853 
L 225.226639 347.625523 
L 233.723047 344.477194 
L 241.194258 341.328865 
L 247.746195 338.180536 
L 253.505989 335.032207 
L 258.567854 331.883878 
L 262.969988 328.735549 
L 266.72054 325.587219 
L 269.865553 322.43889 
L 272.538389 319.290561 
L 274.936753 316.142232 
L 277.242528 312.993903 
L 279.549969 309.845574 
L 281.848922 306.697245 
L 284.056588 303.548915 
L 286.063541 300.400586 
L 287.770702 297.252257 
L 289.115146 294.103928 
L 290.088783 290.955599 
L 290.74597 287.80727 
L 291.189967 284.658941 
L 291.535796 281.510611 
L 291.864731 278.362282 
L 292.196641 275.213953 
L 292.497656 272.065624 
L 292.717446 268.917295 
L 292.831618 265.768966 
L 292.863212 262.620636 
L 292.872305 259.472307 
L 292.923699 256.323978 
L 293.055781 253.175649 
L 293.268848 250.02732 
L 293.533677 246.878991 
L 293.808325 243.730662 
L 294.05339 240.582332 
L 294.244143 237.434003 
L 294.378857 234.285674 
L 294.478123 231.137345 
L 294.571748 227.989016 
L 294.679868 224.840687 
L 294.801499 221.692358 
L 294.917776 218.544028 
L 295.004937 215.395699 
L 295.046413 212.24737 
L 295.03782 209.099041 
L 294.985791 205.950712 
L 294.903865 202.802383 
L 294.807233 199.654054 
L 294.707689 196.505724 
L 294.611506 193.357395 
L 294.522137 190.209066 
L 294.445288 187.060737 
L 294.390524 183.912408 
L 294.366217 180.764079 
L 294.372042 177.615749 
L 294.397399 174.46742 
L 294.429012 171.319091 
L 294.460921 168.170762 
L 294.496764 165.022433 
L 294.542499 161.874104 
L 294.598075 158.725775 
L 294.656567 155.577445 
L 294.709733 152.429116 
L 294.752783 149.280787 
L 294.784902 146.132458 
L 294.808504 142.984129 
L 294.82973 139.8358 
L 294.857884 136.687471 
L 294.900954 133.539141 
L 294.959731 130.390812 
L 295.026221 127.242483 
L 295.088285 124.094154 
L 295.136415 120.945825 
L 295.167218 117.797496 
L 295.182058 114.649167 
L 295.183234 111.500837 
L 295.170962 108.352508 
L 295.143055 105.204179 
L 295.097439 102.05585 
L 295.035953 98.907521 
L 294.966367 95.759192 
L 294.899921 92.610862 
L 294.845203 89.462533 
L 294.803336 86.314204 
L 294.769375 83.165875 
L 294.739163 80.017546 
L 294.715498 76.869217 
L 294.708138 73.720888 
L 294.727851 70.572558 
L 294.779182 67.424229 
L 295.620818 67.424229 
L 295.620818 67.424229 
L 295.672149 70.572558 
L 295.691862 73.720888 
L 295.684502 76.869217 
L 295.660837 80.017546 
L 295.630625 83.165875 
L 295.596664 86.314204 
L 295.554797 89.462533 
L 295.500079 92.610862 
L 295.433633 95.759192 
L 295.364047 98.907521 
L 295.302561 102.05585 
L 295.256945 105.204179 
L 295.229038 108.352508 
L 295.216766 111.500837 
L 295.217942 114.649167 
L 295.232782 117.797496 
L 295.263585 120.945825 
L 295.311715 124.094154 
L 295.373779 127.242483 
L 295.440269 130.390812 
L 295.499046 133.539141 
L 295.542116 136.687471 
L 295.57027 139.8358 
L 295.591496 142.984129 
L 295.615098 146.132458 
L 295.647217 149.280787 
L 295.690267 152.429116 
L 295.743433 155.577445 
L 295.801925 158.725775 
L 295.857501 161.874104 
L 295.903236 165.022433 
L 295.939079 168.170762 
L 295.970988 171.319091 
L 296.002601 174.46742 
L 296.027958 177.615749 
L 296.033783 180.764079 
L 296.009476 183.912408 
L 295.954712 187.060737 
L 295.877863 190.209066 
L 295.788494 193.357395 
L 295.692311 196.505724 
L 295.592767 199.654054 
L 295.496135 202.802383 
L 295.414209 205.950712 
L 295.36218 209.099041 
L 295.353587 212.24737 
L 295.395063 215.395699 
L 295.482224 218.544028 
L 295.598501 221.692358 
L 295.720132 224.840687 
L 295.828252 227.989016 
L 295.921877 231.137345 
L 296.021143 234.285674 
L 296.155857 237.434003 
L 296.34661 240.582332 
L 296.591675 243.730662 
L 296.866323 246.878991 
L 297.131152 250.02732 
L 297.344219 253.175649 
L 297.476301 256.323978 
L 297.527695 259.472307 
L 297.536788 262.620636 
L 297.568382 265.768966 
L 297.682554 268.917295 
L 297.902344 272.065624 
L 298.203359 275.213953 
L 298.535269 278.362282 
L 298.864204 281.510611 
L 299.210033 284.658941 
L 299.65403 287.80727 
L 300.311217 290.955599 
L 301.284854 294.103928 
L 302.629298 297.252257 
L 304.336459 300.400586 
L 306.343412 303.548915 
L 308.551078 306.697245 
L 310.850031 309.845574 
L 313.157472 312.993903 
L 315.463247 316.142232 
L 317.861611 319.290561 
L 320.534447 322.43889 
L 323.67946 325.587219 
L 327.430012 328.735549 
L 331.832146 331.883878 
L 336.894011 335.032207 
L 342.653805 338.180536 
L 349.205742 341.328865 
L 356.676953 344.477194 
L 365.173361 347.625523 
L 374.670817 350.773853 
L 384.809406 353.922182 
L 394.651582 357.070511 
L 402.617041 360.21884 
L 406.8 363.367169 
L 405.620428 366.515498 
L 398.467793 369.663828 
L 385.971065 372.812157 
L 369.801572 375.960486 
L 352.189848 379.108815 
z
" clip-path="url(#p50dd002c8c)" style="fill: #1f77b4; fill-opacity: 0.3"/>
   </g>
   <g id="matplotlib.axis_1">
    <g id="xtick_1">
     <g id="line2d_1">
      <defs>
       <path id="m85ffde6aac" d="M 0 0 
L 0 3.5 
" style="stroke: #000000; stroke-width: 0.8"/>
      </defs>
      <g>
       <use xlink:href="#m85ffde6aac" x="295.2" y="384.48" style="stroke: #000000; stroke-width: 0.8"/>
      </g>
     </g>
     <g id="text_1">
      <!-- 1 -->
      <g transform="translate(292.01875 399.078438) scale(0.1 -0.1)">
       <defs>
        <path id="DejaVuSans-31" d="M 794 531 
L 1825 531 
L 1825 4091 
L 703 3866 
L 703 4441 
L 1819 4666 
L 2450 4666 
L 2450 531 
L 3481 531 
L 3481 0 
L 794 0 
L 794 531 
z
" transform="scale(0.015625)"/>
       </defs>
       <use xlink:href="#DejaVuSans-31"/>
      </g>
     </g>
    </g>
   </g>
   <g id="matplotlib.axis_2">
    <g id="ytick_1">
     <g id="line2d_2">
      <defs>
       <path id="m9f72731d4f" d="M 0 0 
L -3.5 0 
" style="stroke: #000000; stroke-width: 0.8"/>
      </defs>
      <g>
       <use xlink:href="#m9f72731d4f" x="72" y="384.48" style="stroke: #000000; stroke-width: 0.8"/>
      </g>
     </g>
     <g id="text_2">
      <!-- 0.0 -->
      <g transform="translate(49.096875 388.279219) scale(0.1 -0.1)">
       <defs>
        <path id="DejaVuSans-30" d="M 2034 4250 
Q 1547 4250 1301 3770 
Q 1056 3291 1056 2328 
Q 1056 1369 1301 889 
Q 1547 409 2034 409 
Q 2525 409 2770 889 
Q 3016 1369 3016 2328 
Q 3016 3291 2770 3770 
Q 2525 4250 2034 4250 
z
M 2034 4750 
Q 2819 4750 3233 4129 
Q 3647 3509 3647 2328 
Q 3647 1150 3233 529 
Q 2819 -91 2034 -91 
Q 1250 -91 836 529 
Q 422 1150 422 2328 
Q 422 3509 836 4129 
Q 1250 4750 2034 4750 
z
" transform="scale(0.015625)"/>
        <path id="DejaVuSans-2e" d="M 684 794 
L 1344 794 
L 1344 0 
L 684 0 
L 684 794 
z
" transform="scale(0.015625)"/>
       </defs>
       <use xlink:href="#DejaVuSans-30"/>
       <use xlink:href="#DejaVuSans-2e" transform="translate(63.623047 0)"/>
       <use xlink:href="#DejaVuSans-30" transform="translate(95.410156 0)"/>
      </g>
     </g>
    </g>
    <g id="ytick_2">
     <g id="line2d_3">
      <g>
       <use xlink:href="#m9f72731d4f" x="72" y="320.81472" style="stroke: #000000; stroke-width: 0.8"/>
      </g>
     </g>
     <g id="text_3">
      <!-- 0.5 -->
      <g transform="translate(49.096875 324.613938) scale(0.1 -0.1)">
       <defs>
        <path id="DejaVuSans-35" d="M 691 4666 
L 3169 4666 
L 3169 4134 
L 1269 4134 
L 1269 2991 
Q 1406 3038 1543 3061 
Q 1681 3084 1819 3084 
Q 2600 3084 3056 2656 
Q 3513 2228 3513 1497 
Q 3513 744 3044 326 
Q 2575 -91 1722 -91 
Q 1428 -91 1123 -41 
Q 819 9 494 109 
L 494 744 
Q 775 591 1075 516 
Q 1375 441 1709 441 
Q 2250 441 2565 725 
Q 2881 1009 2881 1497 
Q 2881 1984 2565 2268 
Q 2250 2553 1709 2553 
Q 1456 2553 1204 2497 
Q 953 2441 691 2322 
L 691 4666 
z
" transform="scale(0.015625)"/>
       </defs>
       <use xlink:href="#DejaVuSans-30"/>
       <use xlink:href="#DejaVuSans-2e" transform="translate(63.623047 0)"/>
       <use xlink:href="#DejaVuSans-35" transform="translate(95.410156 0)"/>
      </g>
     </g>
    </g>
    <g id="ytick_3">
     <g id="line2d_4">
      <g>
       <use xlink:href="#m9f72731d4f" x="72" y="257.149439" style="stroke: #000000; stroke-width: 0.8"/>
      </g>
     </g>
     <g id="text_4">
      <!-- 1.0 -->
      <g transform="translate(49.096875 260.948658) scale(0.1 -0.1)">
       <use xlink:href="#DejaVuSans-31"/>
       <use xlink:href="#DejaVuSans-2e" transform="translate(63.623047 0)"/>
       <use xlink:href="#DejaVuSans-30" transform="translate(95.410156 0)"/>
      </g>
     </g>
    </g>
    <g id="ytick_4">
     <g id="line2d_5">
      <g>
       <use xlink:href="#m9f72731d4f" x="72" y="193.484159" style="stroke: #000000; stroke-width: 0.8"/>
      </g>
     </g>
     <g id="text_5">
      <!-- 1.5 -->
      <g transform="translate(49.096875 197.283377) scale(0.1 -0.1)">
       <use xlink:href="#DejaVuSans-31"/>
       <use xlink:href="#DejaVuSans-2e" transform="translate(63.623047 0)"/>
       <use xlink:href="#DejaVuSans-35" transform="translate(95.410156 0)"/>
      </g>
     </g>
    </g>
    <g id="ytick_5">
     <g id="line2d_6">
      <g>
       <use xlink:href="#m9f72731d4f" x="72" y="129.818878" style="stroke: #000000; stroke-width: 0.8"/>
      </g>
     </g>
     <g id="text_6">
      <!-- 2.0 -->
      <g transform="translate(49.096875 133.618097) scale(0.1 -0.1)">
       <defs>
        <path id="DejaVuSans-32" d="M 1228 531 
L 3431 531 
L 3431 0 
L 469 0 
L 469 531 
Q 828 903 1448 1529 
Q 2069 2156 2228 2338 
Q 2531 2678 2651 2914 
Q 2772 3150 2772 3378 
Q 2772 3750 2511 3984 
Q 2250 4219 1831 4219 
Q 1534 4219 1204 4116 
Q 875 4013 500 3803 
L 500 4441 
Q 881 4594 1212 4672 
Q 1544 4750 1819 4750 
Q 2544 4750 2975 4387 
Q 3406 4025 3406 3419 
Q 3406 3131 3298 2873 
Q 3191 2616 2906 2266 
Q 2828 2175 2409 1742 
Q 1991 1309 1228 531 
z
" transform="scale(0.015625)"/>
       </defs>
       <use xlink:href="#DejaVuSans-32"/>
       <use xlink:href="#DejaVuSans-2e" transform="translate(63.623047 0)"/>
       <use xlink:href="#DejaVuSans-30" transform="translate(95.410156 0)"/>
      </g>
     </g>
    </g>
    <g id="ytick_6">
     <g id="line2d_7">
      <g>
       <use xlink:href="#m9f72731d4f" x="72" y="66.153598" style="stroke: #000000; stroke-width: 0.8"/>
      </g>
     </g>
     <g id="text_7">
      <!-- 2.5 -->
      <g transform="translate(49.096875 69.952816) scale(0.1 -0.1)">
       <use xlink:href="#DejaVuSans-32"/>
       <use xlink:href="#DejaVuSans-2e" transform="translate(63.623047 0)"/>
       <use xlink:href="#DejaVuSans-35" transform="translate(95.410156 0)"/>
      </g>
     </g>
    </g>
    <g id="text_8">
     <!-- Time (ms) -->
     <g transform="translate(43.017187 243.359219) rotate(-90) scale(0.1 -0.1)">
      <defs>
       <path id="DejaVuSans-54" d="M -19 4666 
L 3928 4666 
L 3928 4134 
L 2272 4134 
L 2272 0 
L 1638 0 
L 1638 4134 
L -19 4134 
L -19 4666 
z
" transform="scale(0.015625)"/>
       <path id="DejaVuSans-69" d="M 603 3500 
L 1178 3500 
L 1178 0 
L 603 0 
L 603 3500 
z
M 603 4863 
L 1178 4863 
L 1178 4134 
L 603 4134 
L 603 4863 
z
" transform="scale(0.015625)"/>
       <path id="DejaVuSans-6d" d="M 3328 2828 
Q 3544 3216 3844 3400 
Q 4144 3584 4550 3584 
Q 5097 3584 5394 3201 
Q 5691 2819 5691 2113 
L 5691 0 
L 5113 0 
L 5113 2094 
Q 5113 2597 4934 2840 
Q 4756 3084 4391 3084 
Q 3944 3084 3684 2787 
Q 3425 2491 3425 1978 
L 3425 0 
L 2847 0 
L 2847 2094 
Q 2847 2600 2669 2842 
Q 2491 3084 2119 3084 
Q 1678 3084 1418 2786 
Q 1159 2488 1159 1978 
L 1159 0 
L 581 0 
L 581 3500 
L 1159 3500 
L 1159 2956 
Q 1356 3278 1631 3431 
Q 1906 3584 2284 3584 
Q 2666 3584 2933 3390 
Q 3200 3197 3328 2828 
z
" transform="scale(0.015625)"/>
       <path id="DejaVuSans-65" d="M 3597 1894 
L 3597 1613 
L 953 1613 
Q 991 1019 1311 708 
Q 1631 397 2203 397 
Q 2534 397 2845 478 
Q 3156 559 3463 722 
L 3463 178 
Q 3153 47 2828 -22 
Q 2503 -91 2169 -91 
Q 1331 -91 842 396 
Q 353 884 353 1716 
Q 353 2575 817 3079 
Q 1281 3584 2069 3584 
Q 2775 3584 3186 3129 
Q 3597 2675 3597 1894 
z
M 3022 2063 
Q 3016 2534 2758 2815 
Q 2500 3097 2075 3097 
Q 1594 3097 1305 2825 
Q 1016 2553 972 2059 
L 3022 2063 
z
" transform="scale(0.015625)"/>
       <path id="DejaVuSans-20" transform="scale(0.015625)"/>
       <path id="DejaVuSans-28" d="M 1984 4856 
Q 1566 4138 1362 3434 
Q 1159 2731 1159 2009 
Q 1159 1288 1364 580 
Q 1569 -128 1984 -844 
L 1484 -844 
Q 1016 -109 783 600 
Q 550 1309 550 2009 
Q 550 2706 781 3412 
Q 1013 4119 1484 4856 
L 1984 4856 
z
" transform="scale(0.015625)"/>
       <path id="DejaVuSans-73" d="M 2834 3397 
L 2834 2853 
Q 2591 2978 2328 3040 
Q 2066 3103 1784 3103 
Q 1356 3103 1142 2972 
Q 928 2841 928 2578 
Q 928 2378 1081 2264 
Q 1234 2150 1697 2047 
L 1894 2003 
Q 2506 1872 2764 1633 
Q 3022 1394 3022 966 
Q 3022 478 2636 193 
Q 2250 -91 1575 -91 
Q 1294 -91 989 -36 
Q 684 19 347 128 
L 347 722 
Q 666 556 975 473 
Q 1284 391 1588 391 
Q 1994 391 2212 530 
Q 2431 669 2431 922 
Q 2431 1156 2273 1281 
Q 2116 1406 1581 1522 
L 1381 1569 
Q 847 1681 609 1914 
Q 372 2147 372 2553 
Q 372 3047 722 3315 
Q 1072 3584 1716 3584 
Q 2034 3584 2315 3537 
Q 2597 3491 2834 3397 
z
" transform="scale(0.015625)"/>
       <path id="DejaVuSans-29" d="M 513 4856 
L 1013 4856 
Q 1481 4119 1714 3412 
Q 1947 2706 1947 2009 
Q 1947 1309 1714 600 
Q 1481 -109 1013 -844 
L 513 -844 
Q 928 -128 1133 580 
Q 1338 1288 1338 2009 
Q 1338 2731 1133 3434 
Q 928 4138 513 4856 
z
" transform="scale(0.015625)"/>
      </defs>
      <use xlink:href="#DejaVuSans-54"/>
      <use xlink:href="#DejaVuSans-69" transform="translate(57.958984 0)"/>
      <use xlink:href="#DejaVuSans-6d" transform="translate(85.742188 0)"/>
      <use xlink:href="#DejaVuSans-65" transform="translate(183.154297 0)"/>
      <use xlink:href="#DejaVuSans-20" transform="translate(244.677734 0)"/>
      <use xlink:href="#DejaVuSans-28" transform="translate(276.464844 0)"/>
      <use xlink:href="#DejaVuSans-6d" transform="translate(315.478516 0)"/>
      <use xlink:href="#DejaVuSans-73" transform="translate(412.890625 0)"/>
      <use xlink:href="#DejaVuSans-29" transform="translate(464.990234 0)"/>
     </g>
    </g>
   </g>
   <g id="LineCollection_1">
    <path d="M 239.4 349.103112 
L 351 349.103112 
" clip-path="url(#p50dd002c8c)" style="fill: none; stroke: #1f77b4; stroke-width: 1.5"/>
   </g>
   <g id="LineCollection_2">
    <path d="M 239.4 67.424229 
L 351 67.424229 
" clip-path="url(#p50dd002c8c)" style="fill: none; stroke: #1f77b4; stroke-width: 1.5"/>
   </g>
   <g id="LineCollection_3">
    <path d="M 239.4 379.108815 
L 351 379.108815 
" clip-path="url(#p50dd002c8c)" style="fill: none; stroke: #1f77b4; stroke-width: 1.5"/>
   </g>
   <g id="LineCollection_4">
    <path d="M 295.2 379.108815 
L 295.2 67.424229 
" clip-path="url(#p50dd002c8c)" style="fill: none; stroke: #1f77b4; stroke-width: 1.5"/>
   </g>
   <g id="patch_3">
    <path d="M 250.56 367.240652 
L 339.84 367.240652 
L 339.84 341.163416 
L 250.56 341.163416 
L 250.56 367.240652 
z
" clip-path="url(#p50dd002c8c)" style="fill: #1f77b4; stroke: #000000; stroke-linejoin: miter"/>
   </g>
   <g id="line2d_8">
    <path d="M 295.2 367.240652 
L 295.2 379.108815 
" clip-path="url(#p50dd002c8c)" style="fill: none; stroke: #000000; stroke-linecap: square"/>
   </g>
   <g id="line2d_9">
    <path d="M 295.2 341.163416 
L 295.2 303.514698 
" clip-path="url(#p50dd002c8c)" style="fill: none; stroke: #000000; stroke-linecap: square"/>
   </g>
   <g id="line2d_10">
    <path d="M 272.88 379.108815 
L 317.52 379.108815 
" clip-path="url(#p50dd002c8c)" style="fill: none; stroke: #000000; stroke-linecap: square"/>
   </g>
   <g id="line2d_11">
    <path d="M 272.88 303.514698 
L 317.52 303.514698 
" clip-path="url(#p50dd002c8c)" style="fill: none; stroke: #000000; stroke-linecap: square"/>
   </g>
   <g id="line2d_12">
    <defs>
     <path id="m43c5ae6060" d="M 0 3 
C 0.795609 3 1.55874 2.683901 2.12132 2.12132 
C 2.683901 1.55874 3 0.795609 3 0 
C 3 -0.795609 2.683901 -1.55874 2.12132 -2.12132 
C 1.55874 -2.683901 0.795609 -3 0 -3 
C -0.795609 -3 -1.55874 -2.683901 -2.12132 -2.12132 
C -2.683901 -1.55874 -3 -0.795609 -3 0 
C -3 0.795609 -2.683901 1.55874 -2.12132 2.12132 
C -1.55874 2.683901 -0.795609 3 0 3 
z
" style="stroke: #000000"/>
    </defs>
    <g clip-path="url(#p50dd002c8c)">
     <use xlink:href="#m43c5ae6060" x="295.2" y="149.980781" style="fill-opacity: 0; stroke: #000000"/>
     <use xlink:href="#m43c5ae6060" x="295.2" y="178.388611" style="fill-opacity: 0; stroke: #000000"/>
     <use xlink:href="#m43c5ae6060" x="295.2" y="257.92259" style="fill-opacity: 0; stroke: #000000"/>
     <use xlink:href="#m43c5ae6060" x="295.2" y="260.590293" style="fill-opacity: 0; stroke: #000000"/>
     <use xlink:href="#m43c5ae6060" x="295.2" y="180.420807" style="fill-opacity: 0; stroke: #000000"/>
     <use xlink:href="#m43c5ae6060" x="295.2" y="257.625783" style="fill-opacity: 0; stroke: #000000"/>
     <use xlink:href="#m43c5ae6060" x="295.2" y="284.738661" style="fill-opacity: 0; stroke: #000000"/>
     <use xlink:href="#m43c5ae6060" x="295.2" y="226.955161" style="fill-opacity: 0; stroke: #000000"/>
     <use xlink:href="#m43c5ae6060" x="295.2" y="90.136818" style="fill-opacity: 0; stroke: #000000"/>
     <use xlink:href="#m43c5ae6060" x="295.2" y="281.879963" style="fill-opacity: 0; stroke: #000000"/>
     <use xlink:href="#m43c5ae6060" x="295.2" y="278.250787" style="fill-opacity: 0; stroke: #000000"/>
     <use xlink:href="#m43c5ae6060" x="295.2" y="263.207572" style="fill-opacity: 0; stroke: #000000"/>
     <use xlink:href="#m43c5ae6060" x="295.2" y="292.522124" style="fill-opacity: 0; stroke: #000000"/>
     <use xlink:href="#m43c5ae6060" x="295.2" y="279.772514" style="fill-opacity: 0; stroke: #000000"/>
     <use xlink:href="#m43c5ae6060" x="295.2" y="166.668342" style="fill-opacity: 0; stroke: #000000"/>
     <use xlink:href="#m43c5ae6060" x="295.2" y="257.363482" style="fill-opacity: 0; stroke: #000000"/>
     <use xlink:href="#m43c5ae6060" x="295.2" y="301.88092" style="fill-opacity: 0; stroke: #000000"/>
     <use xlink:href="#m43c5ae6060" x="295.2" y="287.858514" style="fill-opacity: 0; stroke: #000000"/>
     <use xlink:href="#m43c5ae6060" x="295.2" y="298.982749" style="fill-opacity: 0; stroke: #000000"/>
     <use xlink:href="#m43c5ae6060" x="295.2" y="245.383586" style="fill-opacity: 0; stroke: #000000"/>
     <use xlink:href="#m43c5ae6060" x="295.2" y="294.636702" style="fill-opacity: 0; stroke: #000000"/>
     <use xlink:href="#m43c5ae6060" x="295.2" y="197.678809" style="fill-opacity: 0; stroke: #000000"/>
     <use xlink:href="#m43c5ae6060" x="295.2" y="250.700528" style="fill-opacity: 0; stroke: #000000"/>
     <use xlink:href="#m43c5ae6060" x="295.2" y="242.739949" style="fill-opacity: 0; stroke: #000000"/>
     <use xlink:href="#m43c5ae6060" x="295.2" y="292.85382" style="fill-opacity: 0; stroke: #000000"/>
     <use xlink:href="#m43c5ae6060" x="295.2" y="281.948721" style="fill-opacity: 0; stroke: #000000"/>
     <use xlink:href="#m43c5ae6060" x="295.2" y="76.485199" style="fill-opacity: 0; stroke: #000000"/>
     <use xlink:href="#m43c5ae6060" x="295.2" y="279.126821" style="fill-opacity: 0; stroke: #000000"/>
     <use xlink:href="#m43c5ae6060" x="295.2" y="279.087476" style="fill-opacity: 0; stroke: #000000"/>
     <use xlink:href="#m43c5ae6060" x="295.2" y="292.061951" style="fill-opacity: 0; stroke: #000000"/>
     <use xlink:href="#m43c5ae6060" x="295.2" y="301.349824" style="fill-opacity: 0; stroke: #000000"/>
     <use xlink:href="#m43c5ae6060" x="295.2" y="162.471145" style="fill-opacity: 0; stroke: #000000"/>
     <use xlink:href="#m43c5ae6060" x="295.2" y="249.474844" style="fill-opacity: 0; stroke: #000000"/>
     <use xlink:href="#m43c5ae6060" x="295.2" y="270.95169" style="fill-opacity: 0; stroke: #000000"/>
     <use xlink:href="#m43c5ae6060" x="295.2" y="283.243673" style="fill-opacity: 0; stroke: #000000"/>
     <use xlink:href="#m43c5ae6060" x="295.2" y="297.07521" style="fill-opacity: 0; stroke: #000000"/>
     <use xlink:href="#m43c5ae6060" x="295.2" y="135.437594" style="fill-opacity: 0; stroke: #000000"/>
     <use xlink:href="#m43c5ae6060" x="295.2" y="256.616433" style="fill-opacity: 0; stroke: #000000"/>
     <use xlink:href="#m43c5ae6060" x="295.2" y="300.785877" style="fill-opacity: 0; stroke: #000000"/>
     <use xlink:href="#m43c5ae6060" x="295.2" y="270.236219" style="fill-opacity: 0; stroke: #000000"/>
     <use xlink:href="#m43c5ae6060" x="295.2" y="296.363432" style="fill-opacity: 0; stroke: #000000"/>
     <use xlink:href="#m43c5ae6060" x="295.2" y="287.043471" style="fill-opacity: 0; stroke: #000000"/>
     <use xlink:href="#m43c5ae6060" x="295.2" y="67.424229" style="fill-opacity: 0; stroke: #000000"/>
     <use xlink:href="#m43c5ae6060" x="295.2" y="272.552362" style="fill-opacity: 0; stroke: #000000"/>
     <use xlink:href="#m43c5ae6060" x="295.2" y="300.729851" style="fill-opacity: 0; stroke: #000000"/>
     <use xlink:href="#m43c5ae6060" x="295.2" y="300.012598" style="fill-opacity: 0; stroke: #000000"/>
     <use xlink:href="#m43c5ae6060" x="295.2" y="187.872828" style="fill-opacity: 0; stroke: #000000"/>
     <use xlink:href="#m43c5ae6060" x="295.2" y="299.637355" style="fill-opacity: 0; stroke: #000000"/>
     <use xlink:href="#m43c5ae6060" x="295.2" y="230.477634" style="fill-opacity: 0; stroke: #000000"/>
    </g>
   </g>
   <g id="line2d_13">
    <path d="M 250.56 358.443893 
L 339.84 358.443893 
" clip-path="url(#p50dd002c8c)" style="fill: none; stroke: #ff7f0e"/>
   </g>
   <g id="patch_4">
    <path d="M 72 384.48 
L 72 51.84 
" style="fill: none; stroke: #000000; stroke-width: 0.8; stroke-linejoin: miter; stroke-linecap: square"/>
   </g>
   <g id="patch_5">
    <path d="M 518.4 384.48 
L 518.4 51.84 
" style="fill: none; stroke: #000000; stroke-width: 0.8; stroke-linejoin: miter; stroke-linecap: square"/>
   </g>
   <g id="patch_6">
    <path d="M 72 384.48 
L 518.4 384.48 
" style="fill: none; stroke: #000000; stroke-width: 0.8; stroke-linejoin: miter; stroke-linecap: square"/>
   </g>
   <g id="patch_7">
    <path d="M 72 51.84 
L 518.4 51.84 
" style="fill: none; stroke: #000000; stroke-width: 0.8; stroke-linejoin: miter; stroke-linecap: square"/>
   </g>
   <g id="text_9">
    <!-- getExpectedPoints -->
    <g transform="translate(239.3325 45.84) scale(0.12 -0.12)">
     <defs>
      <path id="DejaVuSans-67" d="M 2906 1791 
Q 2906 2416 2648 2759 
Q 2391 3103 1925 3103 
Q 1463 3103 1205 2759 
Q 947 2416 947 1791 
Q 947 1169 1205 825 
Q 1463 481 1925 481 
Q 2391 481 2648 825 
Q 2906 1169 2906 1791 
z
M 3481 434 
Q 3481 -459 3084 -895 
Q 2688 -1331 1869 -1331 
Q 1566 -1331 1297 -1286 
Q 1028 -1241 775 -1147 
L 775 -588 
Q 1028 -725 1275 -790 
Q 1522 -856 1778 -856 
Q 2344 -856 2625 -561 
Q 2906 -266 2906 331 
L 2906 616 
Q 2728 306 2450 153 
Q 2172 0 1784 0 
Q 1141 0 747 490 
Q 353 981 353 1791 
Q 353 2603 747 3093 
Q 1141 3584 1784 3584 
Q 2172 3584 2450 3431 
Q 2728 3278 2906 2969 
L 2906 3500 
L 3481 3500 
L 3481 434 
z
" transform="scale(0.015625)"/>
      <path id="DejaVuSans-74" d="M 1172 4494 
L 1172 3500 
L 2356 3500 
L 2356 3053 
L 1172 3053 
L 1172 1153 
Q 1172 725 1289 603 
Q 1406 481 1766 481 
L 2356 481 
L 2356 0 
L 1766 0 
Q 1100 0 847 248 
Q 594 497 594 1153 
L 594 3053 
L 172 3053 
L 172 3500 
L 594 3500 
L 594 4494 
L 1172 4494 
z
" transform="scale(0.015625)"/>
      <path id="DejaVuSans-45" d="M 628 4666 
L 3578 4666 
L 3578 4134 
L 1259 4134 
L 1259 2753 
L 3481 2753 
L 3481 2222 
L 1259 2222 
L 1259 531 
L 3634 531 
L 3634 0 
L 628 0 
L 628 4666 
z
" transform="scale(0.015625)"/>
      <path id="DejaVuSans-78" d="M 3513 3500 
L 2247 1797 
L 3578 0 
L 2900 0 
L 1881 1375 
L 863 0 
L 184 0 
L 1544 1831 
L 300 3500 
L 978 3500 
L 1906 2253 
L 2834 3500 
L 3513 3500 
z
" transform="scale(0.015625)"/>
      <path id="DejaVuSans-70" d="M 1159 525 
L 1159 -1331 
L 581 -1331 
L 581 3500 
L 1159 3500 
L 1159 2969 
Q 1341 3281 1617 3432 
Q 1894 3584 2278 3584 
Q 2916 3584 3314 3078 
Q 3713 2572 3713 1747 
Q 3713 922 3314 415 
Q 2916 -91 2278 -91 
Q 1894 -91 1617 61 
Q 1341 213 1159 525 
z
M 3116 1747 
Q 3116 2381 2855 2742 
Q 2594 3103 2138 3103 
Q 1681 3103 1420 2742 
Q 1159 2381 1159 1747 
Q 1159 1113 1420 752 
Q 1681 391 2138 391 
Q 2594 391 2855 752 
Q 3116 1113 3116 1747 
z
" transform="scale(0.015625)"/>
      <path id="DejaVuSans-63" d="M 3122 3366 
L 3122 2828 
Q 2878 2963 2633 3030 
Q 2388 3097 2138 3097 
Q 1578 3097 1268 2742 
Q 959 2388 959 1747 
Q 959 1106 1268 751 
Q 1578 397 2138 397 
Q 2388 397 2633 464 
Q 2878 531 3122 666 
L 3122 134 
Q 2881 22 2623 -34 
Q 2366 -91 2075 -91 
Q 1284 -91 818 406 
Q 353 903 353 1747 
Q 353 2603 823 3093 
Q 1294 3584 2113 3584 
Q 2378 3584 2631 3529 
Q 2884 3475 3122 3366 
z
" transform="scale(0.015625)"/>
      <path id="DejaVuSans-64" d="M 2906 2969 
L 2906 4863 
L 3481 4863 
L 3481 0 
L 2906 0 
L 2906 525 
Q 2725 213 2448 61 
Q 2172 -91 1784 -91 
Q 1150 -91 751 415 
Q 353 922 353 1747 
Q 353 2572 751 3078 
Q 1150 3584 1784 3584 
Q 2172 3584 2448 3432 
Q 2725 3281 2906 2969 
z
M 947 1747 
Q 947 1113 1208 752 
Q 1469 391 1925 391 
Q 2381 391 2643 752 
Q 2906 1113 2906 1747 
Q 2906 2381 2643 2742 
Q 2381 3103 1925 3103 
Q 1469 3103 1208 2742 
Q 947 2381 947 1747 
z
" transform="scale(0.015625)"/>
      <path id="DejaVuSans-50" d="M 1259 4147 
L 1259 2394 
L 2053 2394 
Q 2494 2394 2734 2622 
Q 2975 2850 2975 3272 
Q 2975 3691 2734 3919 
Q 2494 4147 2053 4147 
L 1259 4147 
z
M 628 4666 
L 2053 4666 
Q 2838 4666 3239 4311 
Q 3641 3956 3641 3272 
Q 3641 2581 3239 2228 
Q 2838 1875 2053 1875 
L 1259 1875 
L 1259 0 
L 628 0 
L 628 4666 
z
" transform="scale(0.015625)"/>
      <path id="DejaVuSans-6f" d="M 1959 3097 
Q 1497 3097 1228 2736 
Q 959 2375 959 1747 
Q 959 1119 1226 758 
Q 1494 397 1959 397 
Q 2419 397 2687 759 
Q 2956 1122 2956 1747 
Q 2956 2369 2687 2733 
Q 2419 3097 1959 3097 
z
M 1959 3584 
Q 2709 3584 3137 3096 
Q 3566 2609 3566 1747 
Q 3566 888 3137 398 
Q 2709 -91 1959 -91 
Q 1206 -91 779 398 
Q 353 888 353 1747 
Q 353 2609 779 3096 
Q 1206 3584 1959 3584 
z
" transform="scale(0.015625)"/>
      <path id="DejaVuSans-6e" d="M 3513 2113 
L 3513 0 
L 2938 0 
L 2938 2094 
Q 2938 2591 2744 2837 
Q 2550 3084 2163 3084 
Q 1697 3084 1428 2787 
Q 1159 2491 1159 1978 
L 1159 0 
L 581 0 
L 581 3500 
L 1159 3500 
L 1159 2956 
Q 1366 3272 1645 3428 
Q 1925 3584 2291 3584 
Q 2894 3584 3203 3211 
Q 3513 2838 3513 2113 
z
" transform="scale(0.015625)"/>
     </defs>
     <use xlink:href="#DejaVuSans-67"/>
     <use xlink:href="#DejaVuSans-65" transform="translate(63.476562 0)"/>
     <use xlink:href="#DejaVuSans-74" transform="translate(125 0)"/>
     <use xlink:href="#DejaVuSans-45" transform="translate(164.208984 0)"/>
     <use xlink:href="#DejaVuSans-78" transform="translate(227.392578 0)"/>
     <use xlink:href="#DejaVuSans-70" transform="translate(286.572266 0)"/>
     <use xlink:href="#DejaVuSans-65" transform="translate(350.048828 0)"/>
     <use xlink:href="#DejaVuSans-63" transform="translate(411.572266 0)"/>
     <use xlink:href="#DejaVuSans-74" transform="translate(466.552734 0)"/>
     <use xlink:href="#DejaVuSans-65" transform="translate(505.761719 0)"/>
     <use xlink:href="#DejaVuSans-64" transform="translate(567.285156 0)"/>
     <use xlink:href="#DejaVuSans-50" transform="translate(630.761719 0)"/>
     <use xlink:href="#DejaVuSans-6f" transform="translate(687.439453 0)"/>
     <use xlink:href="#DejaVuSans-69" transform="translate(748.621094 0)"/>
     <use xlink:href="#DejaVuSans-6e" transform="translate(776.404297 0)"/>
     <use xlink:href="#DejaVuSans-74" transform="translate(839.783203 0)"/>
     <use xlink:href="#DejaVuSans-73" transform="translate(878.992188 0)"/>
    </g>
   </g>
  </g>
 </g>
 <defs>
  <clipPath id="p50dd002c8c">
   <rect x="72" y="51.84" width="446.4" height="332.64"/>
  </clipPath>
 </defs>
</svg>
