<?xml version="1.0" encoding="utf-8" standalone="no"?>
<!DOCTYPE svg PUBLIC "-//W3C//DTD SVG 1.1//EN"
  "http://www.w3.org/Graphics/SVG/1.1/DTD/svg11.dtd">
<svg xmlns:xlink="http://www.w3.org/1999/xlink" width="720pt" height="432pt" viewBox="0 0 720 432" xmlns="http://www.w3.org/2000/svg" version="1.1">
 <metadata>
  <rdf:RDF xmlns:dc="http://purl.org/dc/elements/1.1/" xmlns:cc="http://creativecommons.org/ns#" xmlns:rdf="http://www.w3.org/1999/02/22-rdf-syntax-ns#">
   <cc:Work>
    <dc:type rdf:resource="http://purl.org/dc/dcmitype/StillImage"/>
    <dc:date>2025-09-30T20:43:24.275557</dc:date>
    <dc:format>image/svg+xml</dc:format>
    <dc:creator>
     <cc:Agent>
      <dc:title>Matplotlib v3.10.3, https://matplotlib.org/</dc:title>
     </cc:Agent>
    </dc:creator>
   </cc:Work>
  </rdf:RDF>
 </metadata>
 <defs>
  <style type="text/css">*{stroke-linejoin: round; stroke-linecap: butt}</style>
 </defs>
 <g id="figure_1">
  <g id="patch_1">
   <path d="M 0 432 
L 720 432 
L 720 0 
L 0 0 
z
" style="fill: #ffffff"/>
  </g>
  <g id="axes_1">
   <g id="patch_2">
    <path d="M 90 384.48 
L 648 384.48 
L 648 51.84 
L 90 51.84 
z
" style="fill: #ffffff"/>
   </g>
   <g id="matplotlib.axis_1">
    <g id="xtick_1">
     <g id="line2d_1">
      <defs>
       <path id="mb0e6113ecd" d="M 0 0 
L 0 3.5 
" style="stroke: #000000; stroke-width: 0.8"/>
      </defs>
      <g>
       <use xlink:href="#mb0e6113ecd" x="115.363636" y="384.48" style="stroke: #000000; stroke-width: 0.8"/>
      </g>
     </g>
     <g id="text_1">
      <!-- 0 -->
      <g transform="translate(112.182386 399.078438) scale(0.1 -0.1)">
       <defs>
        <path id="DejaVuSans-30" d="M 2034 4250 
Q 1547 4250 1301 3770 
Q 1056 3291 1056 2328 
Q 1056 1369 1301 889 
Q 1547 409 2034 409 
Q 2525 409 2770 889 
Q 3016 1369 3016 2328 
Q 3016 3291 2770 3770 
Q 2525 4250 2034 4250 
z
M 2034 4750 
Q 2819 4750 3233 4129 
Q 3647 3509 3647 2328 
Q 3647 1150 3233 529 
Q 2819 -91 2034 -91 
Q 1250 -91 836 529 
Q 422 1150 422 2328 
Q 422 3509 836 4129 
Q 1250 4750 2034 4750 
z
" transform="scale(0.015625)"/>
       </defs>
       <use xlink:href="#DejaVuSans-30"/>
      </g>
     </g>
    </g>
    <g id="xtick_2">
     <g id="line2d_2">
      <g>
       <use xlink:href="#mb0e6113ecd" x="219.355585" y="384.48" style="stroke: #000000; stroke-width: 0.8"/>
      </g>
     </g>
     <g id="text_2">
      <!-- 500 -->
      <g transform="translate(209.811835 399.078438) scale(0.1 -0.1)">
       <defs>
        <path id="DejaVuSans-35" d="M 691 4666 
L 3169 4666 
L 3169 4134 
L 1269 4134 
L 1269 2991 
Q 1406 3038 1543 3061 
Q 1681 3084 1819 3084 
Q 2600 3084 3056 2656 
Q 3513 2228 3513 1497 
Q 3513 744 3044 326 
Q 2575 -91 1722 -91 
Q 1428 -91 1123 -41 
Q 819 9 494 109 
L 494 744 
Q 775 591 1075 516 
Q 1375 441 1709 441 
Q 2250 441 2565 725 
Q 2881 1009 2881 1497 
Q 2881 1984 2565 2268 
Q 2250 2553 1709 2553 
Q 1456 2553 1204 2497 
Q 953 2441 691 2322 
L 691 4666 
z
" transform="scale(0.015625)"/>
       </defs>
       <use xlink:href="#DejaVuSans-35"/>
       <use xlink:href="#DejaVuSans-30" transform="translate(63.623047 0)"/>
       <use xlink:href="#DejaVuSans-30" transform="translate(127.246094 0)"/>
      </g>
     </g>
    </g>
    <g id="xtick_3">
     <g id="line2d_3">
      <g>
       <use xlink:href="#mb0e6113ecd" x="323.347534" y="384.48" style="stroke: #000000; stroke-width: 0.8"/>
      </g>
     </g>
     <g id="text_3">
      <!-- 1000 -->
      <g transform="translate(310.622534 399.078438) scale(0.1 -0.1)">
       <defs>
        <path id="DejaVuSans-31" d="M 794 531 
L 1825 531 
L 1825 4091 
L 703 3866 
L 703 4441 
L 1819 4666 
L 2450 4666 
L 2450 531 
L 3481 531 
L 3481 0 
L 794 0 
L 794 531 
z
" transform="scale(0.015625)"/>
       </defs>
       <use xlink:href="#DejaVuSans-31"/>
       <use xlink:href="#DejaVuSans-30" transform="translate(63.623047 0)"/>
       <use xlink:href="#DejaVuSans-30" transform="translate(127.246094 0)"/>
       <use xlink:href="#DejaVuSans-30" transform="translate(190.869141 0)"/>
      </g>
     </g>
    </g>
    <g id="xtick_4">
     <g id="line2d_4">
      <g>
       <use xlink:href="#mb0e6113ecd" x="427.339483" y="384.48" style="stroke: #000000; stroke-width: 0.8"/>
      </g>
     </g>
     <g id="text_4">
      <!-- 1500 -->
      <g transform="translate(414.614483 399.078438) scale(0.1 -0.1)">
       <use xlink:href="#DejaVuSans-31"/>
       <use xlink:href="#DejaVuSans-35" transform="translate(63.623047 0)"/>
       <use xlink:href="#DejaVuSans-30" transform="translate(127.246094 0)"/>
       <use xlink:href="#DejaVuSans-30" transform="translate(190.869141 0)"/>
      </g>
     </g>
    </g>
    <g id="xtick_5">
     <g id="line2d_5">
      <g>
       <use xlink:href="#mb0e6113ecd" x="531.331432" y="384.48" style="stroke: #000000; stroke-width: 0.8"/>
      </g>
     </g>
     <g id="text_5">
      <!-- 2000 -->
      <g transform="translate(518.606432 399.078438) scale(0.1 -0.1)">
       <defs>
        <path id="DejaVuSans-32" d="M 1228 531 
L 3431 531 
L 3431 0 
L 469 0 
L 469 531 
Q 828 903 1448 1529 
Q 2069 2156 2228 2338 
Q 2531 2678 2651 2914 
Q 2772 3150 2772 3378 
Q 2772 3750 2511 3984 
Q 2250 4219 1831 4219 
Q 1534 4219 1204 4116 
Q 875 4013 500 3803 
L 500 4441 
Q 881 4594 1212 4672 
Q 1544 4750 1819 4750 
Q 2544 4750 2975 4387 
Q 3406 4025 3406 3419 
Q 3406 3131 3298 2873 
Q 3191 2616 2906 2266 
Q 2828 2175 2409 1742 
Q 1991 1309 1228 531 
z
" transform="scale(0.015625)"/>
       </defs>
       <use xlink:href="#DejaVuSans-32"/>
       <use xlink:href="#DejaVuSans-30" transform="translate(63.623047 0)"/>
       <use xlink:href="#DejaVuSans-30" transform="translate(127.246094 0)"/>
       <use xlink:href="#DejaVuSans-30" transform="translate(190.869141 0)"/>
      </g>
     </g>
    </g>
    <g id="xtick_6">
     <g id="line2d_6">
      <g>
       <use xlink:href="#mb0e6113ecd" x="635.323381" y="384.48" style="stroke: #000000; stroke-width: 0.8"/>
      </g>
     </g>
     <g id="text_6">
      <!-- 2500 -->
      <g transform="translate(622.598381 399.078438) scale(0.1 -0.1)">
       <use xlink:href="#DejaVuSans-32"/>
       <use xlink:href="#DejaVuSans-35" transform="translate(63.623047 0)"/>
       <use xlink:href="#DejaVuSans-30" transform="translate(127.246094 0)"/>
       <use xlink:href="#DejaVuSans-30" transform="translate(190.869141 0)"/>
      </g>
     </g>
    </g>
    <g id="text_7">
     <!-- Index -->
     <g transform="translate(355.233594 412.756563) scale(0.1 -0.1)">
      <defs>
       <path id="DejaVuSans-49" d="M 628 4666 
L 1259 4666 
L 1259 0 
L 628 0 
L 628 4666 
z
" transform="scale(0.015625)"/>
       <path id="DejaVuSans-6e" d="M 3513 2113 
L 3513 0 
L 2938 0 
L 2938 2094 
Q 2938 2591 2744 2837 
Q 2550 3084 2163 3084 
Q 1697 3084 1428 2787 
Q 1159 2491 1159 1978 
L 1159 0 
L 581 0 
L 581 3500 
L 1159 3500 
L 1159 2956 
Q 1366 3272 1645 3428 
Q 1925 3584 2291 3584 
Q 2894 3584 3203 3211 
Q 3513 2838 3513 2113 
z
" transform="scale(0.015625)"/>
       <path id="DejaVuSans-64" d="M 2906 2969 
L 2906 4863 
L 3481 4863 
L 3481 0 
L 2906 0 
L 2906 525 
Q 2725 213 2448 61 
Q 2172 -91 1784 -91 
Q 1150 -91 751 415 
Q 353 922 353 1747 
Q 353 2572 751 3078 
Q 1150 3584 1784 3584 
Q 2172 3584 2448 3432 
Q 2725 3281 2906 2969 
z
M 947 1747 
Q 947 1113 1208 752 
Q 1469 391 1925 391 
Q 2381 391 2643 752 
Q 2906 1113 2906 1747 
Q 2906 2381 2643 2742 
Q 2381 3103 1925 3103 
Q 1469 3103 1208 2742 
Q 947 2381 947 1747 
z
" transform="scale(0.015625)"/>
       <path id="DejaVuSans-65" d="M 3597 1894 
L 3597 1613 
L 953 1613 
Q 991 1019 1311 708 
Q 1631 397 2203 397 
Q 2534 397 2845 478 
Q 3156 559 3463 722 
L 3463 178 
Q 3153 47 2828 -22 
Q 2503 -91 2169 -91 
Q 1331 -91 842 396 
Q 353 884 353 1716 
Q 353 2575 817 3079 
Q 1281 3584 2069 3584 
Q 2775 3584 3186 3129 
Q 3597 2675 3597 1894 
z
M 3022 2063 
Q 3016 2534 2758 2815 
Q 2500 3097 2075 3097 
Q 1594 3097 1305 2825 
Q 1016 2553 972 2059 
L 3022 2063 
z
" transform="scale(0.015625)"/>
       <path id="DejaVuSans-78" d="M 3513 3500 
L 2247 1797 
L 3578 0 
L 2900 0 
L 1881 1375 
L 863 0 
L 184 0 
L 1544 1831 
L 300 3500 
L 978 3500 
L 1906 2253 
L 2834 3500 
L 3513 3500 
z
" transform="scale(0.015625)"/>
      </defs>
      <use xlink:href="#DejaVuSans-49"/>
      <use xlink:href="#DejaVuSans-6e" transform="translate(29.492188 0)"/>
      <use xlink:href="#DejaVuSans-64" transform="translate(92.871094 0)"/>
      <use xlink:href="#DejaVuSans-65" transform="translate(156.347656 0)"/>
      <use xlink:href="#DejaVuSans-78" transform="translate(216.121094 0)"/>
     </g>
    </g>
   </g>
   <g id="matplotlib.axis_2">
    <g id="ytick_1">
     <g id="line2d_7">
      <defs>
       <path id="mec1f8012a2" d="M 0 0 
L -3.5 0 
" style="stroke: #000000; stroke-width: 0.8"/>
      </defs>
      <g>
       <use xlink:href="#mec1f8012a2" x="90" y="384.48" style="stroke: #000000; stroke-width: 0.8"/>
      </g>
     </g>
     <g id="text_8">
      <!-- 0 -->
      <g transform="translate(76.6375 388.279219) scale(0.1 -0.1)">
       <use xlink:href="#DejaVuSans-30"/>
      </g>
     </g>
    </g>
    <g id="ytick_2">
     <g id="line2d_8">
      <g>
       <use xlink:href="#mec1f8012a2" x="90" y="311.183297" style="stroke: #000000; stroke-width: 0.8"/>
      </g>
     </g>
     <g id="text_9">
      <!-- 5 -->
      <g transform="translate(76.6375 314.982516) scale(0.1 -0.1)">
       <use xlink:href="#DejaVuSans-35"/>
      </g>
     </g>
    </g>
    <g id="ytick_3">
     <g id="line2d_9">
      <g>
       <use xlink:href="#mec1f8012a2" x="90" y="237.886594" style="stroke: #000000; stroke-width: 0.8"/>
      </g>
     </g>
     <g id="text_10">
      <!-- 10 -->
      <g transform="translate(70.275 241.685812) scale(0.1 -0.1)">
       <use xlink:href="#DejaVuSans-31"/>
       <use xlink:href="#DejaVuSans-30" transform="translate(63.623047 0)"/>
      </g>
     </g>
    </g>
    <g id="ytick_4">
     <g id="line2d_10">
      <g>
       <use xlink:href="#mec1f8012a2" x="90" y="164.589891" style="stroke: #000000; stroke-width: 0.8"/>
      </g>
     </g>
     <g id="text_11">
      <!-- 15 -->
      <g transform="translate(70.275 168.389109) scale(0.1 -0.1)">
       <use xlink:href="#DejaVuSans-31"/>
       <use xlink:href="#DejaVuSans-35" transform="translate(63.623047 0)"/>
      </g>
     </g>
    </g>
    <g id="ytick_5">
     <g id="line2d_11">
      <g>
       <use xlink:href="#mec1f8012a2" x="90" y="91.293187" style="stroke: #000000; stroke-width: 0.8"/>
      </g>
     </g>
     <g id="text_12">
      <!-- 20 -->
      <g transform="translate(70.275 95.092406) scale(0.1 -0.1)">
       <use xlink:href="#DejaVuSans-32"/>
       <use xlink:href="#DejaVuSans-30" transform="translate(63.623047 0)"/>
      </g>
     </g>
    </g>
    <g id="text_13">
     <!-- Average time (ms) -->
     <g transform="translate(64.195312 264.543594) rotate(-90) scale(0.1 -0.1)">
      <defs>
       <path id="DejaVuSans-41" d="M 2188 4044 
L 1331 1722 
L 3047 1722 
L 2188 4044 
z
M 1831 4666 
L 2547 4666 
L 4325 0 
L 3669 0 
L 3244 1197 
L 1141 1197 
L 716 0 
L 50 0 
L 1831 4666 
z
" transform="scale(0.015625)"/>
       <path id="DejaVuSans-76" d="M 191 3500 
L 800 3500 
L 1894 563 
L 2988 3500 
L 3597 3500 
L 2284 0 
L 1503 0 
L 191 3500 
z
" transform="scale(0.015625)"/>
       <path id="DejaVuSans-72" d="M 2631 2963 
Q 2534 3019 2420 3045 
Q 2306 3072 2169 3072 
Q 1681 3072 1420 2755 
Q 1159 2438 1159 1844 
L 1159 0 
L 581 0 
L 581 3500 
L 1159 3500 
L 1159 2956 
Q 1341 3275 1631 3429 
Q 1922 3584 2338 3584 
Q 2397 3584 2469 3576 
Q 2541 3569 2628 3553 
L 2631 2963 
z
" transform="scale(0.015625)"/>
       <path id="DejaVuSans-61" d="M 2194 1759 
Q 1497 1759 1228 1600 
Q 959 1441 959 1056 
Q 959 750 1161 570 
Q 1363 391 1709 391 
Q 2188 391 2477 730 
Q 2766 1069 2766 1631 
L 2766 1759 
L 2194 1759 
z
M 3341 1997 
L 3341 0 
L 2766 0 
L 2766 531 
Q 2569 213 2275 61 
Q 1981 -91 1556 -91 
Q 1019 -91 701 211 
Q 384 513 384 1019 
Q 384 1609 779 1909 
Q 1175 2209 1959 2209 
L 2766 2209 
L 2766 2266 
Q 2766 2663 2505 2880 
Q 2244 3097 1772 3097 
Q 1472 3097 1187 3025 
Q 903 2953 641 2809 
L 641 3341 
Q 956 3463 1253 3523 
Q 1550 3584 1831 3584 
Q 2591 3584 2966 3190 
Q 3341 2797 3341 1997 
z
" transform="scale(0.015625)"/>
       <path id="DejaVuSans-67" d="M 2906 1791 
Q 2906 2416 2648 2759 
Q 2391 3103 1925 3103 
Q 1463 3103 1205 2759 
Q 947 2416 947 1791 
Q 947 1169 1205 825 
Q 1463 481 1925 481 
Q 2391 481 2648 825 
Q 2906 1169 2906 1791 
z
M 3481 434 
Q 3481 -459 3084 -895 
Q 2688 -1331 1869 -1331 
Q 1566 -1331 1297 -1286 
Q 1028 -1241 775 -1147 
L 775 -588 
Q 1028 -725 1275 -790 
Q 1522 -856 1778 -856 
Q 2344 -856 2625 -561 
Q 2906 -266 2906 331 
L 2906 616 
Q 2728 306 2450 153 
Q 2172 0 1784 0 
Q 1141 0 747 490 
Q 353 981 353 1791 
Q 353 2603 747 3093 
Q 1141 3584 1784 3584 
Q 2172 3584 2450 3431 
Q 2728 3278 2906 2969 
L 2906 3500 
L 3481 3500 
L 3481 434 
z
" transform="scale(0.015625)"/>
       <path id="DejaVuSans-20" transform="scale(0.015625)"/>
       <path id="DejaVuSans-74" d="M 1172 4494 
L 1172 3500 
L 2356 3500 
L 2356 3053 
L 1172 3053 
L 1172 1153 
Q 1172 725 1289 603 
Q 1406 481 1766 481 
L 2356 481 
L 2356 0 
L 1766 0 
Q 1100 0 847 248 
Q 594 497 594 1153 
L 594 3053 
L 172 3053 
L 172 3500 
L 594 3500 
L 594 4494 
L 1172 4494 
z
" transform="scale(0.015625)"/>
       <path id="DejaVuSans-69" d="M 603 3500 
L 1178 3500 
L 1178 0 
L 603 0 
L 603 3500 
z
M 603 4863 
L 1178 4863 
L 1178 4134 
L 603 4134 
L 603 4863 
z
" transform="scale(0.015625)"/>
       <path id="DejaVuSans-6d" d="M 3328 2828 
Q 3544 3216 3844 3400 
Q 4144 3584 4550 3584 
Q 5097 3584 5394 3201 
Q 5691 2819 5691 2113 
L 5691 0 
L 5113 0 
L 5113 2094 
Q 5113 2597 4934 2840 
Q 4756 3084 4391 3084 
Q 3944 3084 3684 2787 
Q 3425 2491 3425 1978 
L 3425 0 
L 2847 0 
L 2847 2094 
Q 2847 2600 2669 2842 
Q 2491 3084 2119 3084 
Q 1678 3084 1418 2786 
Q 1159 2488 1159 1978 
L 1159 0 
L 581 0 
L 581 3500 
L 1159 3500 
L 1159 2956 
Q 1356 3278 1631 3431 
Q 1906 3584 2284 3584 
Q 2666 3584 2933 3390 
Q 3200 3197 3328 2828 
z
" transform="scale(0.015625)"/>
       <path id="DejaVuSans-28" d="M 1984 4856 
Q 1566 4138 1362 3434 
Q 1159 2731 1159 2009 
Q 1159 1288 1364 580 
Q 1569 -128 1984 -844 
L 1484 -844 
Q 1016 -109 783 600 
Q 550 1309 550 2009 
Q 550 2706 781 3412 
Q 1013 4119 1484 4856 
L 1984 4856 
z
" transform="scale(0.015625)"/>
       <path id="DejaVuSans-73" d="M 2834 3397 
L 2834 2853 
Q 2591 2978 2328 3040 
Q 2066 3103 1784 3103 
Q 1356 3103 1142 2972 
Q 928 2841 928 2578 
Q 928 2378 1081 2264 
Q 1234 2150 1697 2047 
L 1894 2003 
Q 2506 1872 2764 1633 
Q 3022 1394 3022 966 
Q 3022 478 2636 193 
Q 2250 -91 1575 -91 
Q 1294 -91 989 -36 
Q 684 19 347 128 
L 347 722 
Q 666 556 975 473 
Q 1284 391 1588 391 
Q 1994 391 2212 530 
Q 2431 669 2431 922 
Q 2431 1156 2273 1281 
Q 2116 1406 1581 1522 
L 1381 1569 
Q 847 1681 609 1914 
Q 372 2147 372 2553 
Q 372 3047 722 3315 
Q 1072 3584 1716 3584 
Q 2034 3584 2315 3537 
Q 2597 3491 2834 3397 
z
" transform="scale(0.015625)"/>
       <path id="DejaVuSans-29" d="M 513 4856 
L 1013 4856 
Q 1481 4119 1714 3412 
Q 1947 2706 1947 2009 
Q 1947 1309 1714 600 
Q 1481 -109 1013 -844 
L 513 -844 
Q 928 -128 1133 580 
Q 1338 1288 1338 2009 
Q 1338 2731 1133 3434 
Q 928 4138 513 4856 
z
" transform="scale(0.015625)"/>
      </defs>
      <use xlink:href="#DejaVuSans-41"/>
      <use xlink:href="#DejaVuSans-76" transform="translate(62.533203 0)"/>
      <use xlink:href="#DejaVuSans-65" transform="translate(121.712891 0)"/>
      <use xlink:href="#DejaVuSans-72" transform="translate(183.236328 0)"/>
      <use xlink:href="#DejaVuSans-61" transform="translate(224.349609 0)"/>
      <use xlink:href="#DejaVuSans-67" transform="translate(285.628906 0)"/>
      <use xlink:href="#DejaVuSans-65" transform="translate(349.105469 0)"/>
      <use xlink:href="#DejaVuSans-20" transform="translate(410.628906 0)"/>
      <use xlink:href="#DejaVuSans-74" transform="translate(442.416016 0)"/>
      <use xlink:href="#DejaVuSans-69" transform="translate(481.625 0)"/>
      <use xlink:href="#DejaVuSans-6d" transform="translate(509.408203 0)"/>
      <use xlink:href="#DejaVuSans-65" transform="translate(606.820312 0)"/>
      <use xlink:href="#DejaVuSans-20" transform="translate(668.34375 0)"/>
      <use xlink:href="#DejaVuSans-28" transform="translate(700.130859 0)"/>
      <use xlink:href="#DejaVuSans-6d" transform="translate(739.144531 0)"/>
      <use xlink:href="#DejaVuSans-73" transform="translate(836.556641 0)"/>
      <use xlink:href="#DejaVuSans-29" transform="translate(888.65625 0)"/>
     </g>
    </g>
   </g>
   <g id="line2d_12">
    <path d="M 115.363636 70.592359 
L 115.57162 83.761272 
L 115.779604 316.157022 
L 115.987588 330.970341 
L 116.195572 322.881644 
L 116.403556 250.091392 
L 116.819524 308.79275 
L 117.027508 306.963688 
L 117.235491 342.684379 
L 117.443475 330.896523 
L 117.651459 311.669094 
L 117.859443 343.883425 
L 118.067427 315.214161 
L 118.275411 341.265028 
L 118.483395 336.98528 
L 118.899363 350.530968 
L 119.107347 350.677553 
L 119.31533 348.90952 
L 119.523314 354.05987 
L 119.731298 378.74721 
L 119.939282 378.667785 
L 120.147266 368.758436 
L 120.35525 351.560107 
L 120.771218 352.520249 
L 120.979202 356.342049 
L 121.187186 354.710553 
L 121.395169 349.273128 
L 121.603153 348.975512 
L 121.811137 346.895965 
L 122.019121 347.75834 
L 122.227105 354.411294 
L 122.435089 348.843531 
L 122.643073 350.841205 
L 122.851057 350.264857 
L 123.475008 345.260231 
L 123.682992 344.906767 
L 123.890976 343.639436 
L 124.306944 350.13829 
L 124.514928 353.101555 
L 124.722912 346.573834 
L 124.930896 352.819737 
L 125.13888 353.925724 
L 125.346863 349.054355 
L 125.554847 346.820686 
L 125.762831 346.494592 
L 125.970815 350.659806 
L 126.386783 352.292855 
L 126.594767 345.833311 
L 126.802751 345.232794 
L 127.010735 343.882847 
L 127.218719 343.974329 
L 127.426702 326.95736 
L 127.634686 330.279835 
L 127.84267 344.067476 
L 128.466622 347.295442 
L 128.88259 340.410521 
L 129.090574 347.826504 
L 129.298558 349.494812 
L 129.506541 346.123791 
L 129.714525 346.647184 
L 129.922509 342.665527 
L 130.130493 331.926041 
L 130.338477 331.435994 
L 130.546461 271.031571 
L 130.754445 342.876656 
L 130.962429 343.109816 
L 131.378397 338.265773 
L 131.58638 337.269869 
L 131.794364 334.974366 
L 132.002348 339.008913 
L 132.210332 333.581938 
L 132.418316 334.353817 
L 132.834284 338.739634 
L 133.042268 339.269427 
L 133.250252 343.376679 
L 133.458235 336.50189 
L 133.666219 341.239862 
L 134.082187 327.754957 
L 134.290171 337.086059 
L 134.498155 339.610073 
L 134.706139 333.275713 
L 134.914123 336.949524 
L 135.122107 321.30726 
L 135.538074 335.844006 
L 135.746058 328.934204 
L 135.954042 329.807903 
L 136.162026 321.409398 
L 136.37001 332.490071 
L 136.577994 326.074624 
L 136.785978 330.010534 
L 136.993962 328.496484 
L 137.201946 328.541177 
L 137.40993 319.24605 
L 137.617913 331.074536 
L 137.825897 331.564266 
L 138.033881 329.410334 
L 138.241865 324.204886 
L 138.657833 326.655746 
L 138.865817 320.271084 
L 139.073801 318.974415 
L 139.281785 319.729015 
L 139.489769 318.196915 
L 139.697752 310.272615 
L 139.905736 314.676295 
L 140.11372 302.517593 
L 140.529688 313.563393 
L 140.737672 307.450039 
L 140.945656 319.233354 
L 141.15364 318.715188 
L 141.361624 315.903789 
L 141.569608 306.973466 
L 141.777591 311.574936 
L 141.985575 305.566892 
L 142.193559 304.294758 
L 142.401543 298.545016 
L 142.817511 302.352517 
L 143.025495 318.737802 
L 143.233479 316.917984 
L 143.441463 317.443795 
L 143.649446 328.439758 
L 144.065414 330.94698 
L 144.273398 330.756214 
L 144.481382 329.909892 
L 144.689366 325.353652 
L 144.89735 327.53091 
L 145.105334 326.212396 
L 145.313318 326.742341 
L 145.521302 321.370227 
L 145.729285 324.935742 
L 146.145253 321.750978 
L 146.353237 324.175252 
L 146.561221 320.919619 
L 146.977189 329.064731 
L 147.185173 330.197457 
L 147.393157 325.465221 
L 147.601141 330.478185 
L 147.809124 327.374342 
L 148.017108 328.274298 
L 148.225092 326.247426 
L 148.433076 328.491146 
L 148.64106 324.576973 
L 148.849044 323.324699 
L 149.057028 322.918718 
L 149.265012 326.840993 
L 149.472996 317.620945 
L 149.68098 317.471944 
L 149.888963 322.628225 
L 150.096947 323.063785 
L 150.304931 331.652402 
L 150.512915 330.025415 
L 150.720899 329.693758 
L 150.928883 321.719381 
L 151.136867 325.096251 
L 151.344851 325.471201 
L 151.552835 327.16456 
L 151.760819 320.134702 
L 151.968802 327.09315 
L 152.176786 324.472467 
L 152.38477 326.114771 
L 152.592754 323.224812 
L 152.800738 312.824208 
L 153.008722 322.988389 
L 153.216706 322.544239 
L 153.42469 321.80163 
L 153.632674 329.645974 
L 153.840657 330.496956 
L 154.464609 324.825169 
L 154.672593 328.031963 
L 154.880577 326.756816 
L 155.088561 317.059816 
L 155.504529 320.189283 
L 155.712513 320.402505 
L 155.920496 321.712444 
L 156.12848 320.048054 
L 156.336464 319.972796 
L 156.544448 321.412724 
L 156.752432 319.081415 
L 156.960416 328.347202 
L 157.376384 328.11727 
L 157.584368 324.717665 
L 157.792352 323.156513 
L 158.000335 323.006553 
L 158.416303 319.258066 
L 158.624287 327.256701 
L 158.832271 326.565388 
L 159.040255 326.632409 
L 159.248239 325.967116 
L 159.456223 322.646513 
L 159.664207 323.874313 
L 159.872191 320.128772 
L 160.080174 319.281363 
L 160.288158 327.188138 
L 160.704126 322.213971 
L 160.91211 322.962476 
L 161.328078 318.120727 
L 161.536062 323.053082 
L 161.744046 319.585305 
L 161.95203 326.908328 
L 162.160013 321.005404 
L 162.367997 321.559765 
L 162.575981 320.126565 
L 162.783965 319.647783 
L 162.991949 318.658984 
L 163.199933 320.140194 
L 163.407917 318.743037 
L 163.615901 330.246556 
L 163.823885 331.094317 
L 164.031869 331.378674 
L 164.239852 331.420385 
L 164.447836 324.764598 
L 164.65582 323.920931 
L 164.863804 327.465004 
L 165.071788 324.681694 
L 165.279772 324.436902 
L 165.487756 325.746459 
L 165.69574 325.996736 
L 166.111707 320.98475 
L 166.319691 325.596948 
L 166.735659 323.005859 
L 166.943643 329.566717 
L 167.151627 328.928103 
L 167.359611 329.461328 
L 167.567595 327.38932 
L 167.775579 324.07777 
L 168.191546 327.496541 
L 168.39953 324.465944 
L 168.607514 319.077655 
L 168.815498 318.528603 
L 169.023482 319.793329 
L 169.231466 315.537112 
L 169.43945 321.061794 
L 169.647434 321.572153 
L 170.063402 323.909421 
L 170.271385 327.525662 
L 170.479369 324.72401 
L 170.687353 329.953413 
L 170.895337 330.047782 
L 171.103321 327.523598 
L 171.311305 327.30637 
L 171.519289 326.316918 
L 171.727273 327.974051 
L 171.935257 323.472832 
L 172.143241 322.765659 
L 172.351224 325.194146 
L 172.559208 324.731292 
L 172.767192 320.841171 
L 172.975176 321.396055 
L 173.391144 313.729885 
L 173.599128 330.953007 
L 173.807112 330.113204 
L 174.22308 327.289838 
L 174.431063 323.24801 
L 174.639047 327.768113 
L 174.847031 321.792561 
L 175.055015 323.259736 
L 175.262999 313.052627 
L 175.470983 314.013048 
L 175.678967 322.73063 
L 175.886951 320.126075 
L 176.302918 313.488969 
L 176.510902 317.69986 
L 176.718886 314.934948 
L 176.92687 324.333359 
L 177.134854 319.83902 
L 177.342838 320.071067 
L 177.550822 322.084185 
L 177.758806 312.943431 
L 177.96679 318.347312 
L 178.174774 318.88546 
L 178.382757 313.356886 
L 178.590741 324.048391 
L 178.798725 322.815195 
L 179.006709 320.319979 
L 179.214693 323.136168 
L 179.422677 313.811189 
L 179.630661 318.547557 
L 179.838645 318.955225 
L 180.046629 317.130821 
L 180.254613 324.960572 
L 180.462596 316.863822 
L 180.67058 317.489562 
L 180.878564 316.919567 
L 181.086548 299.637005 
L 181.294532 317.571552 
L 181.502516 320.666885 
L 181.7105 320.297087 
L 181.918484 326.520572 
L 182.126468 320.806717 
L 182.334452 319.399007 
L 182.542435 321.821577 
L 182.750419 318.574209 
L 182.958403 319.475165 
L 183.166387 319.751092 
L 183.374371 317.996879 
L 183.582355 328.725348 
L 183.790339 326.171032 
L 183.998323 329.749331 
L 184.206307 329.366582 
L 184.622274 323.690067 
L 185.038242 327.06238 
L 185.246226 324.329129 
L 185.45421 323.802419 
L 185.662194 325.096921 
L 185.870178 324.662908 
L 186.494129 313.465489 
L 186.702113 314.058576 
L 186.910097 330.620439 
L 187.118081 329.81631 
L 187.326065 329.927184 
L 187.742033 327.450213 
L 187.950017 324.974183 
L 188.158001 325.863679 
L 188.365985 320.528722 
L 188.573968 324.35235 
L 188.781952 320.855797 
L 188.989936 322.541329 
L 189.19792 321.262269 
L 189.405904 321.140446 
L 189.613888 308.280958 
L 189.821872 319.433012 
L 190.029856 314.626884 
L 190.23784 326.4011 
L 190.653807 322.336224 
L 190.861791 324.363495 
L 191.069775 324.845149 
L 191.485743 322.815501 
L 191.693727 320.748131 
L 191.901711 321.77677 
L 192.109695 319.906595 
L 192.317679 313.291278 
L 192.525663 312.304181 
L 192.733646 317.138978 
L 192.94163 315.702311 
L 193.149614 317.216804 
L 193.357598 316.287819 
L 193.565582 325.997041 
L 193.773566 326.571707 
L 193.98155 328.404606 
L 194.397518 313.409702 
L 194.605502 318.213355 
L 194.813485 316.589178 
L 195.021469 316.465762 
L 195.229453 316.49795 
L 195.437437 319.763268 
L 195.645421 311.116324 
L 195.853405 318.873056 
L 196.061389 316.136625 
L 196.269373 316.178834 
L 196.477357 308.962892 
L 196.68534 312.31902 
L 196.893324 320.565141 
L 197.101308 320.062854 
L 197.517276 317.17117 
L 197.72526 317.279096 
L 197.933244 317.651112 
L 198.141228 316.368825 
L 198.349212 316.601866 
L 198.557196 322.694792 
L 198.765179 320.352777 
L 198.973163 322.393468 
L 199.181147 322.089965 
L 199.389131 315.762626 
L 199.597115 317.530418 
L 200.013083 315.092921 
L 200.221067 322.314638 
L 200.429051 317.389415 
L 200.637035 320.932327 
L 200.845018 321.060887 
L 201.053002 311.803605 
L 201.260986 312.548042 
L 201.46897 312.444355 
L 201.676954 311.671362 
L 201.884938 322.697501 
L 202.092922 317.037711 
L 202.50889 321.012976 
L 202.716874 315.398142 
L 202.924857 314.429573 
L 203.132841 315.744508 
L 203.340825 310.216861 
L 203.548809 329.543766 
L 203.756793 324.539856 
L 203.964777 327.892183 
L 204.172761 327.448664 
L 204.380745 323.245142 
L 204.588729 324.559321 
L 204.796713 323.999274 
L 205.004696 321.856373 
L 205.21268 321.864887 
L 205.420664 320.292511 
L 205.628648 312.047242 
L 205.836632 320.712339 
L 206.044616 316.764266 
L 206.2526 317.389663 
L 206.460584 318.48198 
L 206.668568 318.904606 
L 206.876551 325.721611 
L 207.084535 328.095491 
L 207.292519 328.2745 
L 207.500503 317.93318 
L 207.708487 320.292237 
L 207.916471 320.086363 
L 208.124455 319.230769 
L 208.332439 322.078576 
L 208.540423 320.334588 
L 208.748407 321.408389 
L 208.95639 319.544872 
L 209.164374 318.790523 
L 209.372358 319.034928 
L 209.580342 313.220821 
L 209.788326 312.642876 
L 209.99631 315.612798 
L 210.204294 327.144097 
L 210.412278 327.356176 
L 210.620262 322.29441 
L 210.828246 328.019547 
L 211.036229 322.091673 
L 211.244213 322.348396 
L 211.452197 321.37122 
L 211.660181 323.437783 
L 211.868165 314.540325 
L 212.076149 319.699472 
L 212.492117 318.325501 
L 212.700101 305.261029 
L 212.908085 312.330974 
L 213.116068 315.269692 
L 213.324052 316.026347 
L 213.532036 322.567757 
L 213.74002 322.543308 
L 213.948004 327.807275 
L 214.155988 327.370534 
L 214.571956 321.101945 
L 214.77994 323.817102 
L 214.987924 316.856629 
L 215.195907 318.780402 
L 215.403891 314.770964 
L 215.611875 315.178353 
L 215.819859 316.403793 
L 216.027843 315.858071 
L 216.235827 316.333582 
L 216.443811 312.649021 
L 216.859779 320.243457 
L 217.067762 317.3767 
L 217.275746 320.69355 
L 217.48373 320.388598 
L 217.691714 308.330056 
L 217.899698 312.984773 
L 218.107682 309.198016 
L 218.315666 309.296446 
L 218.52365 320.30474 
L 218.731634 321.969978 
L 218.939618 318.831255 
L 219.147601 319.852337 
L 219.355585 313.577865 
L 219.563569 303.609123 
L 219.771553 311.871562 
L 219.979537 308.729628 
L 220.187521 320.263355 
L 220.395505 319.73617 
L 220.603489 319.667736 
L 220.811473 315.892808 
L 221.019457 308.813251 
L 221.22744 308.454899 
L 221.435424 314.059329 
L 221.643408 311.316895 
L 221.851392 320.600207 
L 222.059376 316.415827 
L 222.26736 315.506385 
L 222.475344 319.486509 
L 222.683328 309.359317 
L 223.099296 313.601642 
L 223.307279 312.889182 
L 223.515263 318.745111 
L 223.723247 317.305018 
L 223.931231 311.866535 
L 224.139215 317.909306 
L 224.347199 313.562805 
L 224.555183 311.585381 
L 224.763167 315.958772 
L 225.179135 308.870952 
L 225.387118 316.708675 
L 225.595102 308.018665 
L 225.803086 311.448723 
L 226.01107 312.129324 
L 226.219054 313.788556 
L 226.427038 312.434212 
L 226.843006 313.71701 
L 227.05099 312.020156 
L 227.258973 312.200618 
L 227.466957 308.584914 
L 227.674941 312.455368 
L 227.882925 308.959117 
L 228.090909 307.343961 
L 228.298893 301.311154 
L 228.506877 310.483812 
L 228.714861 311.381012 
L 228.922845 305.680346 
L 229.130829 311.508429 
L 229.546796 305.945136 
L 229.75478 309.692997 
L 229.962764 308.554427 
L 230.170748 312.584379 
L 230.378732 309.792026 
L 230.586716 314.444019 
L 230.7947 313.645744 
L 231.002684 309.646708 
L 231.210668 312.668361 
L 231.418651 312.287264 
L 231.626635 309.932741 
L 231.834619 311.924343 
L 232.042603 310.429068 
L 232.250587 311.627913 
L 232.666555 307.234802 
L 232.874539 308.824094 
L 233.082523 308.851309 
L 233.290507 306.024467 
L 233.49849 310.065641 
L 233.706474 309.603776 
L 233.914458 304.479627 
L 234.330426 306.763528 
L 234.53841 306.164943 
L 234.746394 309.004252 
L 234.954378 308.110409 
L 235.162362 308.318697 
L 235.370346 307.01499 
L 235.578329 303.85826 
L 235.786313 307.328076 
L 236.202281 302.10852 
L 236.410265 304.744425 
L 236.618249 305.00206 
L 236.826233 310.330139 
L 237.242201 306.839498 
L 237.450185 307.188911 
L 237.866152 293.090913 
L 238.074136 299.046745 
L 238.490104 304.302362 
L 238.698088 304.974695 
L 238.906072 302.488194 
L 239.114056 305.345266 
L 239.32204 296.641608 
L 239.530023 303.790618 
L 239.738007 302.175556 
L 240.153975 306.224064 
L 240.569943 299.327439 
L 240.777927 302.919173 
L 240.985911 298.508973 
L 241.193895 301.407526 
L 241.609862 297.675475 
L 241.817846 302.035695 
L 242.02583 298.266453 
L 242.233814 302.382038 
L 242.441798 299.10825 
L 242.649782 298.21779 
L 242.857766 300.119184 
L 243.06575 299.515416 
L 243.273734 300.183879 
L 243.481718 298.461814 
L 243.689701 301.162169 
L 244.105669 297.461144 
L 244.313653 292.750869 
L 244.521637 294.987036 
L 244.937605 275.597129 
L 245.145589 298.153664 
L 245.561557 300.928389 
L 245.76954 289.336454 
L 245.977524 293.890843 
L 246.185508 293.277456 
L 246.393492 293.299263 
L 246.601476 298.048177 
L 246.80946 299.655785 
L 247.017444 285.020807 
L 247.225428 296.106992 
L 247.433412 285.127276 
L 247.641396 294.10166 
L 247.849379 291.016344 
L 248.057363 289.734244 
L 248.265347 291.481567 
L 248.473331 287.77111 
L 248.681315 296.31756 
L 249.097283 297.680763 
L 249.513251 288.398545 
L 249.929218 294.713897 
L 250.137202 305.447937 
L 250.345186 302.23599 
L 250.55317 302.437816 
L 250.761154 305.546506 
L 250.969138 296.224028 
L 251.177122 292.134085 
L 251.385106 294.283195 
L 251.59309 286.876929 
L 251.801073 306.949675 
L 252.009057 303.32665 
L 252.217041 305.558905 
L 252.425025 305.35357 
L 252.840993 293.070132 
L 253.048977 296.120216 
L 253.256961 294.983158 
L 253.464945 303.099773 
L 253.672929 305.023826 
L 253.880912 305.084469 
L 254.088896 301.894215 
L 254.29688 295.178177 
L 254.504864 294.174917 
L 254.712848 296.553407 
L 254.920832 294.197821 
L 255.128816 306.673915 
L 255.3368 304.435535 
L 255.544784 304.567566 
L 255.752768 304.453312 
L 256.168735 288.882373 
L 256.376719 294.882482 
L 256.584703 292.542478 
L 256.792687 305.449777 
L 257.000671 307.257064 
L 257.208655 302.503676 
L 257.416639 305.560185 
L 257.624623 291.169783 
L 258.04059 293.852967 
L 258.248574 295.645634 
L 258.664542 306.747294 
L 258.872526 304.9866 
L 259.08051 305.432467 
L 259.288494 296.846152 
L 259.496478 294.691426 
L 259.704462 294.367419 
L 259.912445 295.342515 
L 260.120429 303.502082 
L 260.328413 304.896971 
L 260.536397 303.747729 
L 260.744381 301.197684 
L 260.952365 293.683885 
L 261.160349 290.859177 
L 261.368333 293.994836 
L 261.576317 292.963997 
L 261.784301 303.309261 
L 261.992284 297.467137 
L 262.200268 301.05703 
L 262.408252 301.989879 
L 262.616236 276.50498 
L 262.82422 291.530969 
L 263.032204 294.055999 
L 263.240188 292.369575 
L 263.448172 295.391373 
L 263.656156 295.763887 
L 263.86414 292.739835 
L 264.072123 297.401243 
L 264.280107 280.864116 
L 264.488091 284.77571 
L 264.696075 277.803688 
L 265.112043 293.255328 
L 265.320027 298.849624 
L 265.528011 294.034149 
L 265.735995 297.531774 
L 265.943979 291.173017 
L 266.151962 292.148147 
L 266.359946 286.548273 
L 266.56793 292.248866 
L 266.775914 301.925478 
L 266.983898 297.587944 
L 267.191882 300.625873 
L 267.399866 299.653344 
L 267.60785 288.327698 
L 267.815834 288.052657 
L 268.023818 291.525397 
L 268.231801 285.51806 
L 268.439785 299.623301 
L 268.647769 293.831496 
L 268.855753 300.178697 
L 269.063737 296.917558 
L 269.271721 284.074063 
L 269.687689 292.862459 
L 269.895673 290.513914 
L 270.31164 298.694742 
L 270.727608 297.394466 
L 270.935592 278.718816 
L 271.143576 272.083824 
L 271.35156 276.688688 
L 271.559544 278.132352 
L 271.767528 298.182498 
L 271.975512 297.266412 
L 272.391479 299.29602 
L 272.599463 289.466186 
L 272.807447 288.807207 
L 273.015431 284.286072 
L 273.223415 284.370041 
L 273.431399 297.373254 
L 273.639383 298.302795 
L 273.847367 298.507371 
L 274.055351 298.156747 
L 274.263334 282.905571 
L 274.679302 289.805973 
L 274.887286 287.067598 
L 275.09527 301.259432 
L 275.303254 294.466074 
L 275.511238 299.638351 
L 275.719222 298.354146 
L 275.927206 285.903372 
L 276.13519 287.882725 
L 276.343173 291.201367 
L 276.551157 284.594306 
L 276.759141 290.202975 
L 276.967125 292.365748 
L 277.175109 292.308606 
L 277.383093 288.653648 
L 277.591077 291.692727 
L 278.007045 289.613486 
L 278.215029 286.677784 
L 278.423012 289.320925 
L 278.630996 288.07791 
L 278.83898 289.927962 
L 279.046964 288.558603 
L 279.462932 283.988571 
L 279.670916 287.527698 
L 280.086884 289.793681 
L 280.294867 286.477265 
L 280.502851 287.549684 
L 280.710835 290.467608 
L 280.918819 291.167567 
L 281.126803 291.129358 
L 281.334787 288.298241 
L 281.542771 290.868057 
L 281.750755 285.540938 
L 282.166723 288.849371 
L 282.58269 288.191681 
L 282.790674 285.627466 
L 282.998658 285.618663 
L 283.414626 288.657099 
L 283.62261 289.428174 
L 283.830594 292.037987 
L 284.038578 290.913453 
L 284.454545 286.12098 
L 284.662529 287.044517 
L 284.870513 283.953932 
L 285.078497 285.209392 
L 285.286481 284.617952 
L 285.494465 280.756185 
L 285.702449 285.318298 
L 286.118417 280.822921 
L 286.326401 285.750506 
L 286.534384 280.260771 
L 286.742368 287.703086 
L 286.950352 287.405151 
L 287.158336 292.155574 
L 287.36632 290.029965 
L 287.574304 283.54731 
L 287.782288 281.857031 
L 287.990272 287.471539 
L 288.198256 285.935413 
L 288.40624 283.041582 
L 288.614223 277.914051 
L 288.822207 285.855164 
L 289.030191 286.408014 
L 289.238175 276.392207 
L 289.446159 282.791312 
L 289.654143 284.642912 
L 289.862127 278.125312 
L 290.070111 304.579853 
L 290.278095 300.443717 
L 290.486078 302.683355 
L 290.902046 277.463537 
L 291.11003 286.768087 
L 291.318014 288.979823 
L 291.525998 286.891101 
L 291.733982 303.490641 
L 291.941966 299.282032 
L 292.14995 298.888092 
L 292.357934 296.323746 
L 292.773901 281.438279 
L 292.981885 289.569773 
L 293.189869 289.200192 
L 293.397853 303.841726 
L 293.605837 296.469931 
L 293.813821 302.462772 
L 294.021805 301.366391 
L 294.229789 287.683815 
L 294.437773 286.292043 
L 294.645756 293.509348 
L 294.85374 284.72655 
L 295.061724 306.238571 
L 295.269708 299.927676 
L 295.477692 301.312763 
L 295.685676 298.098059 
L 295.89366 288.212501 
L 296.309628 294.151292 
L 296.517612 291.434865 
L 296.725595 298.729379 
L 296.933579 297.643969 
L 297.141563 297.597051 
L 297.349547 296.171213 
L 297.557531 271.610949 
L 297.765515 268.786936 
L 297.973499 273.938111 
L 298.181483 274.01934 
L 298.389467 298.340413 
L 298.805434 284.853489 
L 299.013418 290.277843 
L 299.221402 278.486668 
L 299.429386 280.205067 
L 299.63737 285.618688 
L 299.845354 285.406561 
L 300.053338 292.064261 
L 300.469306 295.964793 
L 300.67729 293.279571 
L 300.885273 279.096231 
L 301.301241 286.645477 
L 301.509225 284.448036 
L 301.717209 301.021503 
L 301.925193 292.532313 
L 302.133177 296.74758 
L 302.341161 291.733102 
L 302.549145 283.463533 
L 302.757128 285.343645 
L 302.965112 284.976036 
L 303.173096 285.021134 
L 303.38108 297.729589 
L 303.589064 292.087917 
L 303.797048 295.675113 
L 304.005032 295.499387 
L 304.213016 280.213704 
L 304.421 283.187343 
L 304.628984 281.789646 
L 304.836967 284.267192 
L 305.044951 289.015863 
L 305.252935 287.308368 
L 305.460919 294.687176 
L 305.668903 290.30784 
L 305.876887 278.17635 
L 306.292855 282.840948 
L 306.500839 280.922488 
L 306.708823 294.230256 
L 306.916806 278.887301 
L 307.12479 295.089182 
L 307.332774 291.124559 
L 307.540758 280.261866 
L 307.748742 282.136156 
L 307.956726 287.018752 
L 308.16471 281.766893 
L 308.372694 299.724389 
L 308.580678 292.452667 
L 308.996645 288.469965 
L 309.204629 280.172404 
L 309.620597 290.292269 
L 309.828581 286.772173 
L 310.036565 297.03804 
L 310.244549 292.812076 
L 310.660517 289.916779 
L 310.868501 277.396368 
L 311.076484 275.072703 
L 311.284468 284.217545 
L 311.492452 282.503294 
L 311.700436 289.773268 
L 311.90842 286.81388 
L 312.116404 281.16014 
L 312.324388 283.004391 
L 312.532372 269.898788 
L 312.740356 264.476491 
L 312.948339 279.540704 
L 313.156323 278.122883 
L 313.364307 297.419034 
L 313.572291 290.985775 
L 313.780275 288.978527 
L 313.988259 292.774342 
L 314.196243 275.304602 
L 314.404227 276.857949 
L 314.612211 286.824064 
L 314.820195 280.730194 
L 315.028178 301.715839 
L 315.236162 284.208329 
L 315.444146 298.450774 
L 315.65213 293.984069 
L 315.860114 277.536925 
L 316.068098 276.519319 
L 316.276082 288.878145 
L 316.484066 284.287231 
L 316.69205 282.647983 
L 316.900034 284.403527 
L 317.108017 289.296061 
L 317.316001 282.167091 
L 317.523985 280.540024 
L 317.939953 282.925689 
L 318.147937 281.514776 
L 318.355921 272.246201 
L 318.563905 277.004544 
L 318.771889 285.438512 
L 319.187856 278.868037 
L 319.603824 282.436946 
L 320.019792 280.978543 
L 320.227776 275.048082 
L 320.43576 286.940131 
L 320.851728 277.607581 
L 321.059712 280.261721 
L 321.267695 281.438718 
L 321.475679 280.522842 
L 321.683663 270.125794 
L 321.891647 270.219539 
L 322.099631 278.385148 
L 322.307615 280.38002 
L 322.515599 273.463353 
L 322.723583 272.517066 
L 323.347534 281.74641 
L 323.555518 277.819668 
L 323.763502 287.402401 
L 323.971486 287.048267 
L 324.17947 276.487525 
L 324.387454 277.958724 
L 324.595438 280.298101 
L 324.803422 274.978379 
L 325.011406 276.348257 
L 325.219389 279.522499 
L 325.427373 285.465974 
L 325.635357 281.750893 
L 325.843341 272.294431 
L 326.259309 282.278824 
L 326.467293 278.417567 
L 326.883261 286.069601 
L 327.091245 283.700167 
L 327.299228 283.995075 
L 327.507212 273.138496 
L 327.715196 274.761526 
L 327.92318 282.421024 
L 328.339148 275.616063 
L 328.755116 286.943548 
L 328.9631 282.044814 
L 329.171084 271.659025 
L 329.379067 271.297144 
L 329.587051 283.421696 
L 329.795035 279.739112 
L 330.003019 292.850123 
L 330.211003 291.263707 
L 330.418987 290.99626 
L 330.626971 290.179959 
L 330.834955 272.665501 
L 331.042939 276.761887 
L 331.250923 277.880046 
L 331.458906 277.641493 
L 331.66689 287.164816 
L 331.874874 291.218168 
L 332.082858 283.887247 
L 332.290842 287.345116 
L 332.498826 272.254351 
L 332.70681 269.873106 
L 332.914794 274.17333 
L 333.122778 264.868657 
L 333.330761 290.674906 
L 333.538745 285.162132 
L 333.746729 289.842905 
L 333.954713 286.485625 
L 334.162697 273.052832 
L 334.370681 274.624879 
L 334.578665 279.985725 
L 334.786649 274.866616 
L 334.994633 298.18557 
L 335.202617 289.095017 
L 335.4106 291.698019 
L 335.618584 291.585616 
L 335.826568 273.874088 
L 336.034552 277.431751 
L 336.242536 274.575723 
L 336.45052 278.539084 
L 336.866488 294.166953 
L 337.074472 284.178359 
L 337.282456 291.447343 
L 337.490439 273.708645 
L 337.698423 273.730779 
L 337.906407 273.375362 
L 338.114391 276.08453 
L 338.322375 289.598778 
L 338.530359 289.526197 
L 338.738343 283.027742 
L 338.946327 282.876874 
L 339.154311 266.402032 
L 339.362295 273.724092 
L 339.570278 272.84158 
L 339.778262 278.099128 
L 339.986246 287.957573 
L 340.19423 292.416119 
L 340.402214 289.689259 
L 340.610198 290.813757 
L 340.818182 271.037057 
L 341.026166 271.028866 
L 341.23415 269.178616 
L 341.442134 266.148902 
L 341.650117 289.914661 
L 341.858101 287.512568 
L 342.066085 286.61842 
L 342.274069 282.536622 
L 342.690037 266.748862 
L 342.898021 275.774101 
L 343.106005 272.232554 
L 343.313989 286.70003 
L 343.521972 290.305857 
L 343.729956 287.502762 
L 343.93794 290.236789 
L 344.145924 272.470316 
L 344.353908 271.539023 
L 344.561892 258.954656 
L 345.185844 292.671014 
L 345.601811 282.994043 
L 345.809795 272.826491 
L 346.017779 273.80304 
L 346.225763 268.491719 
L 346.433747 272.353974 
L 346.849715 287.443084 
L 347.057699 285.476617 
L 347.265683 285.647266 
L 347.473667 270.07419 
L 347.68165 268.587632 
L 348.097618 272.183379 
L 348.305602 290.5257 
L 348.513586 285.218421 
L 348.72157 287.004177 
L 348.929554 285.587858 
L 349.137538 268.687547 
L 349.345522 265.506845 
L 349.553506 272.905268 
L 349.761489 274.492526 
L 349.969473 285.902402 
L 350.177457 286.959927 
L 350.385441 284.65722 
L 350.593425 284.996418 
L 350.801409 268.023505 
L 351.009393 270.196878 
L 351.425361 265.743893 
L 351.633345 268.996878 
L 351.841328 281.180029 
L 352.049312 275.114162 
L 352.257296 273.705687 
L 352.46528 257.638412 
L 352.673264 264.249905 
L 352.881248 266.00267 
L 353.089232 264.409834 
L 353.297216 288.40603 
L 353.713183 281.175564 
L 353.921167 285.182533 
L 354.129151 263.077177 
L 354.337135 269.520712 
L 354.545119 268.444111 
L 354.753103 269.158666 
L 354.961087 291.284635 
L 355.169071 282.178641 
L 355.377055 286.819501 
L 355.585039 284.948 
L 355.793022 265.461611 
L 356.001006 268.268076 
L 356.20899 277.013432 
L 356.416974 269.348432 
L 356.624958 268.377999 
L 356.832942 271.629976 
L 357.040926 270.647844 
L 357.24891 273.49064 
L 357.456894 272.572621 
L 358.080845 264.112477 
L 358.288829 269.178792 
L 358.704797 265.210734 
L 358.912781 270.176731 
L 359.120765 269.536173 
L 359.328749 271.280258 
L 359.536733 270.718122 
L 359.744717 271.526264 
L 359.9527 266.977497 
L 360.368668 270.820818 
L 360.576652 265.719787 
L 360.784636 273.22978 
L 360.99262 274.481477 
L 361.200604 266.957413 
L 361.408588 272.288913 
L 361.616572 263.181774 
L 361.824556 269.369278 
L 362.032539 264.265086 
L 362.240523 269.354482 
L 362.448507 270.537739 
L 362.656491 270.538824 
L 362.864475 267.122891 
L 363.072459 268.70431 
L 363.280443 266.038491 
L 363.488427 268.011386 
L 363.696411 276.454596 
L 364.528346 263.004831 
L 364.73633 269.489697 
L 364.944314 266.524719 
L 365.152298 268.015639 
L 365.360282 271.676345 
L 365.77625 267.46965 
L 365.984233 268.688547 
L 366.192217 268.249806 
L 366.400201 265.079245 
L 367.024153 277.662614 
L 367.232137 273.312478 
L 367.648105 261.493637 
L 368.064072 266.211416 
L 368.272056 262.161609 
L 368.688024 274.204739 
L 368.896008 263.065084 
L 369.103992 261.249672 
L 369.51996 270.26702 
L 369.727944 261.186864 
L 369.935928 285.082904 
L 370.143911 278.745907 
L 370.351895 282.61413 
L 370.559879 276.35437 
L 370.767863 250.742734 
L 370.975847 256.007996 
L 371.183831 270.455205 
L 371.391815 263.710021 
L 371.599799 283.946235 
L 371.807783 277.429532 
L 372.015767 275.656888 
L 372.22375 276.689473 
L 372.431734 256.281839 
L 372.847702 264.255389 
L 373.055686 262.794575 
L 373.26367 287.579209 
L 373.471654 277.197696 
L 373.679638 283.833946 
L 373.887622 281.295396 
L 374.095606 260.607714 
L 374.303589 265.101758 
L 374.511573 273.864679 
L 374.719557 264.777308 
L 374.927541 291.354008 
L 375.135525 281.339895 
L 375.343509 280.61194 
L 375.551493 285.961862 
L 375.759477 265.520439 
L 375.967461 264.045246 
L 376.175444 279.490578 
L 376.383428 273.497331 
L 377.00738 279.803833 
L 377.215364 282.129052 
L 377.423348 261.974309 
L 377.631332 264.225987 
L 377.839316 260.45108 
L 378.0473 265.027346 
L 378.463267 288.904211 
L 378.671251 278.881012 
L 378.879235 285.435322 
L 379.087219 265.078296 
L 379.295203 266.408834 
L 379.503187 260.853547 
L 379.711171 263.783945 
L 379.919155 274.412069 
L 380.335122 277.306623 
L 380.543106 276.633532 
L 380.75109 260.913037 
L 381.167058 256.402607 
L 381.375042 256.191724 
L 381.583026 282.027538 
L 381.998994 276.431597 
L 382.206978 275.986224 
L 382.414961 253.706632 
L 382.622945 248.23077 
L 382.830929 267.562168 
L 383.038913 261.92529 
L 383.246897 275.407478 
L 383.454881 270.676526 
L 383.662865 276.914477 
L 383.870849 278.692535 
L 384.078833 257.615071 
L 384.286817 261.035123 
L 384.702784 259.454895 
L 385.118752 284.925177 
L 385.326736 277.7609 
L 385.53472 278.443007 
L 385.950688 252.242379 
L 386.158672 246.991954 
L 386.366655 258.529528 
L 386.574639 281.300634 
L 386.782623 276.321926 
L 386.990607 275.962642 
L 387.198591 276.352862 
L 387.406575 248.089143 
L 387.614559 260.346109 
L 387.822543 264.730767 
L 388.030527 259.540933 
L 388.238511 282.850425 
L 388.446494 275.826322 
L 388.654478 281.206624 
L 388.862462 275.949406 
L 389.27843 241.15101 
L 389.486414 267.208444 
L 389.694398 262.761643 
L 389.902382 277.036172 
L 390.110366 270.134389 
L 390.31835 270.502128 
L 390.526333 274.367009 
L 390.734317 248.855368 
L 390.942301 256.255519 
L 391.150285 259.634551 
L 391.358269 257.69808 
L 391.566253 274.88681 
L 391.774237 279.325281 
L 391.982221 269.520439 
L 392.190205 268.314925 
L 392.398189 257.502548 
L 392.814156 251.476379 
L 393.02214 258.16842 
L 393.230124 282.415058 
L 393.438108 274.471418 
L 393.646092 275.906029 
L 393.854076 273.667109 
L 394.06206 254.171427 
L 394.270044 256.56458 
L 394.478028 264.697897 
L 394.686011 248.890488 
L 394.893995 282.451439 
L 395.101979 272.143149 
L 395.309963 279.506419 
L 395.517947 276.176643 
L 395.725931 252.627515 
L 395.933915 256.307363 
L 396.141899 262.594895 
L 396.349883 263.930468 
L 396.557866 253.997807 
L 396.76585 253.553658 
L 396.973834 266.551583 
L 397.181818 264.021301 
L 397.389802 255.387005 
L 397.597786 257.95984 
L 397.80577 256.479513 
L 398.013754 260.818659 
L 398.429722 250.885497 
L 398.637705 253.04372 
L 398.845689 260.399013 
L 399.053673 254.755697 
L 399.261657 257.469053 
L 399.469641 257.457332 
L 399.677625 259.793172 
L 399.885609 245.32777 
L 400.093593 245.415996 
L 400.301577 255.111454 
L 400.509561 256.346893 
L 400.717544 262.360467 
L 401.133512 241.739118 
L 401.341496 258.052949 
L 401.54948 245.89453 
L 401.757464 243.577125 
L 401.965448 257.239819 
L 402.173432 257.081866 
L 402.381416 253.118861 
L 402.5894 255.976519 
L 402.797383 253.735314 
L 403.005367 256.79802 
L 403.213351 255.201144 
L 403.421335 259.351414 
L 403.629319 269.152717 
L 403.837303 266.946178 
L 404.045287 256.636559 
L 404.253271 254.944761 
L 404.461255 249.607874 
L 404.669239 253.035855 
L 404.877222 252.967288 
L 405.085206 250.352828 
L 405.501174 257.804913 
L 405.709158 252.078057 
L 405.917142 252.516693 
L 406.125126 259.928032 
L 406.33311 258.532138 
L 406.541094 259.20406 
L 406.749077 264.668865 
L 406.957061 275.798086 
L 407.165045 267.877305 
L 407.373029 249.864398 
L 407.581013 248.582878 
L 407.788997 261.100489 
L 407.996981 252.98212 
L 408.204965 251.909706 
L 408.620933 260.321628 
L 408.828916 263.618222 
L 409.0369 250.327577 
L 409.244884 252.577609 
L 409.452868 262.292845 
L 409.660852 252.077936 
L 410.284804 260.21337 
L 410.492788 258.169659 
L 410.700772 229.021117 
L 410.908755 258.669283 
L 411.324723 244.826919 
L 411.532707 247.77707 
L 411.948675 260.614542 
L 412.156659 260.561201 
L 412.364643 250.856483 
L 412.572627 255.548346 
L 412.780611 255.740529 
L 412.988594 260.505159 
L 413.196578 257.38886 
L 413.404562 251.249569 
L 413.612546 262.683811 
L 413.82053 261.289774 
L 414.236498 254.606011 
L 414.444482 260.565806 
L 414.652466 256.633881 
L 414.86045 247.872494 
L 415.068433 250.888168 
L 415.276417 258.026238 
L 415.484401 256.864419 
L 415.692385 243.963994 
L 415.900369 252.88301 
L 416.316337 258.421879 
L 416.524321 257.122752 
L 416.732305 257.204372 
L 416.940288 264.692362 
L 417.148272 263.622026 
L 417.356256 250.087756 
L 417.980208 260.285187 
L 418.188192 248.331715 
L 418.396176 252.035349 
L 418.60416 261.559199 
L 418.812144 257.678449 
L 419.020127 251.610906 
L 419.228111 252.59981 
L 419.436095 256.740691 
L 419.852063 258.643106 
L 420.060047 261.440577 
L 420.268031 266.600344 
L 420.476015 266.541144 
L 420.891983 248.767249 
L 421.099966 245.340196 
L 421.30795 258.553118 
L 421.723918 248.343241 
L 421.931902 261.625612 
L 422.139886 258.733872 
L 422.34787 248.700968 
L 422.555854 250.08958 
L 422.763838 260.243283 
L 422.971822 255.969471 
L 423.179805 248.675366 
L 423.387789 248.936312 
L 423.803757 252.8921 
L 424.011741 252.273965 
L 424.219725 255.184491 
L 424.427709 235.517471 
L 424.635693 252.996463 
L 424.843677 239.130041 
L 425.051661 249.692256 
L 425.259644 244.994772 
L 425.467628 246.356614 
L 425.675612 249.349843 
L 426.09158 244.288707 
L 426.299564 255.753877 
L 426.507548 249.086815 
L 426.715532 248.169522 
L 427.131499 254.310023 
L 427.339483 255.167077 
L 427.547467 254.220579 
L 427.755451 250.601549 
L 427.963435 260.924542 
L 428.171419 249.200781 
L 428.587387 251.006588 
L 428.795371 251.450763 
L 429.003355 250.002847 
L 429.211338 243.980442 
L 429.419322 242.970635 
L 429.627306 253.934643 
L 429.83529 247.544205 
L 430.043274 244.792808 
L 430.251258 251.675643 
L 430.667226 249.150967 
L 430.87521 250.886207 
L 431.083194 248.3213 
L 431.291177 256.949319 
L 431.499161 245.138351 
L 431.707145 245.134305 
L 431.915129 250.532247 
L 432.123113 253.040693 
L 432.331097 246.22899 
L 432.539081 244.997473 
L 432.747065 246.693128 
L 432.955049 249.509591 
L 433.163033 247.015364 
L 433.371016 245.879991 
L 433.579 260.329398 
L 433.786984 252.701004 
L 434.202952 247.247813 
L 434.410936 241.903744 
L 434.61892 251.25609 
L 435.034888 237.040492 
L 435.242872 252.934964 
L 435.450855 241.79315 
L 435.658839 243.255083 
L 435.866823 242.384009 
L 436.074807 248.462137 
L 436.282791 245.798599 
L 436.490775 234.106998 
L 436.698759 232.872517 
L 436.906743 237.181683 
L 437.114727 237.128336 
L 437.32271 242.832221 
L 437.530694 243.700268 
L 437.738678 232.755209 
L 437.946662 243.279278 
L 438.154646 233.230048 
L 438.36263 238.931336 
L 438.570614 237.823494 
L 438.778598 243.475305 
L 438.986582 227.670574 
L 439.194566 239.563417 
L 439.402549 232.895377 
L 439.610533 239.497837 
L 440.026501 215.765388 
L 440.234485 239.900906 
L 440.442469 239.665024 
L 440.650453 244.921841 
L 441.066421 228.65118 
L 441.274405 240.557291 
L 441.690372 232.131237 
L 441.898356 231.573074 
L 442.10634 242.841704 
L 442.314324 230.605938 
L 442.522308 235.787977 
L 442.730292 226.139909 
L 442.938276 231.897586 
L 443.14626 233.929887 
L 443.354244 230.437648 
L 443.562227 248.193737 
L 443.770211 246.201741 
L 443.978195 237.487813 
L 444.186179 241.169921 
L 444.394163 229.041511 
L 444.602147 238.479708 
L 444.810131 229.709942 
L 445.018115 232.586449 
L 445.226099 243.412482 
L 445.434083 232.715535 
L 445.642066 236.995631 
L 446.058034 225.966689 
L 446.266018 241.616647 
L 446.474002 227.805466 
L 446.88997 253.561434 
L 447.097954 247.844566 
L 447.305938 235.74341 
L 447.513922 234.487161 
L 447.721905 242.991881 
L 447.929889 227.779908 
L 448.345857 236.81046 
L 448.553841 232.783213 
L 448.761825 238.030252 
L 448.969809 228.649967 
L 449.177793 227.217552 
L 449.385777 239.912702 
L 449.59376 233.09577 
L 449.801744 207.724857 
L 450.009728 207.964843 
L 450.217712 232.099167 
L 450.425696 227.407473 
L 450.63368 225.691364 
L 450.841664 227.037654 
L 451.049648 225.90501 
L 451.257632 233.388623 
L 451.465616 219.653193 
L 451.673599 218.997457 
L 451.881583 228.783039 
L 452.089567 219.211623 
L 452.297551 222.562041 
L 452.505535 219.954856 
L 452.713519 223.141707 
L 452.921503 230.697883 
L 453.129487 223.354905 
L 453.337471 220.357464 
L 453.545455 228.382873 
L 453.961422 233.624698 
L 454.169406 233.709157 
L 454.37739 222.43363 
L 454.585374 225.707543 
L 454.793358 215.753424 
L 455.001342 225.618128 
L 455.209326 219.448216 
L 455.41731 224.577808 
L 455.625294 224.122059 
L 455.833277 223.191637 
L 456.041261 216.724834 
L 456.249245 226.507327 
L 456.457229 225.746313 
L 456.665213 222.895779 
L 456.873197 245.289391 
L 457.081181 241.905846 
L 457.289165 225.241186 
L 457.497149 219.662189 
L 457.705133 227.459972 
L 458.1211 225.130497 
L 458.329084 219.563769 
L 458.537068 237.140904 
L 458.745052 233.770927 
L 458.953036 223.172401 
L 459.16102 220.91961 
L 459.369004 221.797964 
L 459.576988 229.673376 
L 459.784971 232.196376 
L 459.992955 227.849846 
L 460.200939 252.208189 
L 460.408923 249.47713 
L 460.616907 218.694214 
L 460.824891 219.276152 
L 461.032875 228.667978 
L 461.240859 223.003324 
L 461.448843 220.995346 
L 461.656827 228.030433 
L 461.86481 245.894559 
L 462.072794 238.916213 
L 462.280778 207.851729 
L 462.488762 218.950443 
L 462.696746 237.694333 
L 462.90473 227.954477 
L 463.528682 255.20901 
L 463.736666 254.783798 
L 463.944649 225.651254 
L 464.360617 241.032475 
L 464.568601 239.265085 
L 464.776585 232.754297 
L 465.192553 252.97804 
L 465.400537 246.604174 
L 465.608521 223.883118 
L 466.024488 249.916864 
L 466.232472 239.231635 
L 466.440456 237.477479 
L 466.64844 243.280016 
L 466.856424 252.440998 
L 467.064408 252.177557 
L 467.272392 228.406794 
L 467.480376 225.662963 
L 467.68836 242.473147 
L 467.896344 239.259605 
L 468.104327 227.43987 
L 468.520295 247.461261 
L 469.144247 220.742188 
L 469.352231 235.644637 
L 469.768199 240.00364 
L 470.184166 261.623178 
L 470.39215 259.845584 
L 470.600134 226.311118 
L 471.016102 244.621489 
L 471.43207 229.369023 
L 471.848038 256.231735 
L 472.056021 251.411467 
L 472.264005 222.163749 
L 472.679973 251.840267 
L 472.887957 246.652969 
L 473.095941 245.128808 
L 473.511909 265.070369 
L 473.719893 253.449656 
L 473.927877 234.582875 
L 474.13586 239.439398 
L 474.343844 252.715723 
L 474.551828 238.60576 
L 474.759812 234.942941 
L 475.17578 255.0945 
L 475.383764 254.446977 
L 475.591748 235.511704 
L 476.007716 251.768558 
L 476.215699 250.914013 
L 476.423683 216.456101 
L 476.631667 221.744398 
L 476.839651 237.571995 
L 477.047635 224.240977 
L 477.255619 224.441829 
L 477.463603 223.374563 
L 477.671587 226.744637 
L 477.879571 228.290642 
L 478.087555 218.476238 
L 478.295538 219.921711 
L 478.503522 218.865709 
L 478.711506 218.532467 
L 478.91949 220.348526 
L 479.127474 212.378859 
L 479.335458 223.886752 
L 479.543442 225.15525 
L 479.751426 221.349009 
L 479.95941 220.776677 
L 480.167393 235.59801 
L 480.375377 231.860699 
L 480.583361 220.783145 
L 480.791345 231.02441 
L 480.999329 225.471274 
L 481.207313 227.437816 
L 481.415297 217.234563 
L 481.623281 223.82201 
L 481.831265 223.531971 
L 482.039249 215.096678 
L 482.247232 223.703907 
L 482.455216 221.52836 
L 482.6632 220.795965 
L 482.871184 220.813081 
L 483.287152 227.284686 
L 483.495136 233.877109 
L 483.70312 236.029487 
L 483.911104 219.100534 
L 484.119088 221.256805 
L 484.327071 226.9575 
L 484.743039 216.68682 
L 484.951023 219.65448 
L 485.159007 232.314536 
L 485.574975 211.53787 
L 485.990943 224.849418 
L 486.198927 225.273178 
L 486.40691 227.175685 
L 486.614894 236.145957 
L 486.822878 251.620637 
L 487.030862 244.633334 
L 487.238846 221.618143 
L 487.44683 214.198627 
L 487.654814 234.440436 
L 487.862798 210.898759 
L 488.070782 208.37544 
L 488.278766 208.740548 
L 488.486749 241.471343 
L 488.694733 235.414797 
L 488.902717 208.687257 
L 489.110701 211.025404 
L 489.318685 236.571098 
L 489.734653 205.105206 
L 490.150621 229.185214 
L 490.566588 205.691505 
L 490.774572 210.197719 
L 490.982556 210.313585 
L 491.19054 205.687415 
L 491.398524 206.562025 
L 491.814492 225.870518 
L 492.23046 210.367766 
L 492.438443 214.421156 
L 492.646427 223.089004 
L 492.854411 220.545127 
L 493.062395 207.52922 
L 493.270379 210.935427 
L 493.478363 227.400669 
L 493.894331 218.374891 
L 494.102315 199.794213 
L 494.310299 212.362094 
L 494.518282 217.123263 
L 494.726266 209.063433 
L 494.93425 208.266472 
L 495.142234 220.296709 
L 495.350218 216.630323 
L 495.558202 207.737889 
L 495.766186 211.425132 
L 495.97417 211.633625 
L 496.182154 209.848102 
L 496.390138 211.012677 
L 496.598121 217.777728 
L 496.806105 238.434393 
L 497.014089 237.218428 
L 497.222073 194.826191 
L 497.430057 211.938077 
L 497.638041 216.937544 
L 497.846025 218.660393 
L 498.054009 208.622419 
L 498.261993 206.460626 
L 498.469977 229.621187 
L 498.67796 226.386288 
L 498.885944 201.083579 
L 499.301912 225.827175 
L 499.509896 218.942408 
L 499.71788 222.648002 
L 499.925864 221.813546 
L 500.133848 243.76828 
L 500.341832 245.683931 
L 500.549815 208.467046 
L 500.757799 213.205436 
L 500.965783 223.148062 
L 501.381751 210.944041 
L 501.797719 237.863875 
L 502.005703 233.595555 
L 502.213687 207.31884 
L 502.421671 206.301553 
L 502.629654 235.814163 
L 502.837638 224.63766 
L 503.045622 197.643143 
L 503.253606 191.392819 
L 503.46159 232.025335 
L 503.669574 219.556189 
L 503.877558 199.217276 
L 504.085542 198.629529 
L 504.293526 203.769676 
L 504.50151 203.017882 
L 504.709493 192.895088 
L 504.917477 201.543406 
L 505.125461 216.33956 
L 505.333445 211.918617 
L 505.541429 192.233852 
L 505.749413 197.095206 
L 505.957397 211.383937 
L 506.165381 206.660162 
L 506.373365 193.706145 
L 506.581349 199.556408 
L 506.789332 212.808264 
L 506.997316 205.367775 
L 507.2053 206.828256 
L 507.413284 185.514334 
L 507.621268 205.7858 
L 507.829252 206.55214 
L 508.24522 187.494399 
L 508.453204 211.036944 
L 508.661188 204.697643 
L 508.869171 188.492854 
L 509.077155 188.38046 
L 509.285139 188.696128 
L 509.493123 190.863204 
L 509.701107 197.808295 
L 509.909091 219.418122 
L 510.117075 225.797644 
L 510.325059 228.075031 
L 510.533043 200.343056 
L 510.741027 190.455127 
L 510.94901 214.076903 
L 511.156994 209.956857 
L 511.364978 192.454482 
L 511.780946 231.678803 
L 511.98893 221.100803 
L 512.196914 189.866517 
L 512.404898 189.082101 
L 512.612882 212.674835 
L 512.820865 213.256471 
L 513.028849 214.412229 
L 513.236833 233.950742 
L 513.444817 242.967124 
L 513.652801 245.705443 
L 513.860785 192.166195 
L 514.068769 192.362071 
L 514.276753 223.33335 
L 514.484737 206.516458 
L 514.692721 206.36942 
L 515.108688 238.845536 
L 515.316672 232.782846 
L 515.524656 194.530245 
L 515.73264 204.790422 
L 515.940624 231.763302 
L 516.356592 187.521337 
L 516.77256 227.109388 
L 517.188527 196.275762 
L 517.396511 196.903211 
L 517.812479 202.843921 
L 518.020463 193.382296 
L 518.228447 175.441337 
L 518.436431 214.495473 
L 518.644415 208.589041 
L 518.852399 183.525126 
L 519.060382 202.959788 
L 519.268366 200.135182 
L 519.47635 203.090849 
L 519.684334 192.144408 
L 519.892318 188.739011 
L 520.100302 215.640948 
L 520.308286 203.414213 
L 520.51627 204.407465 
L 520.724254 196.660362 
L 520.932238 198.863043 
L 521.140221 202.579457 
L 521.348205 194.263935 
L 521.556189 194.331315 
L 521.764173 202.515625 
L 521.972157 199.547616 
L 522.388125 178.592887 
L 522.596109 198.038224 
L 522.804093 201.58338 
L 523.012076 195.933594 
L 523.428044 232.65756 
L 523.636028 225.589518 
L 523.844012 193.479162 
L 524.051996 197.185373 
L 524.25998 196.289343 
L 524.467964 201.367642 
L 524.675948 193.237759 
L 524.883932 202.553485 
L 525.091915 219.988458 
L 525.299899 209.199418 
L 525.507883 191.158258 
L 525.923851 209.75923 
L 526.131835 208.636908 
L 526.339819 213.080651 
L 526.755787 246.824432 
L 526.963771 232.271659 
L 527.171754 186.204965 
L 527.379738 196.114611 
L 527.587722 220.214961 
L 527.795706 204.162004 
L 528.00369 197.173465 
L 528.419658 236.228345 
L 528.627642 223.044281 
L 528.835626 194.357844 
L 529.04361 203.710263 
L 529.251593 225.952803 
L 529.459577 212.984569 
L 529.875545 165.054024 
L 530.499497 215.238682 
L 530.707481 211.811119 
L 530.915465 196.501031 
L 531.123449 215.97097 
L 531.331432 199.211427 
L 531.539416 196.782021 
L 531.955384 178.0849 
L 532.163368 206.498505 
L 532.371352 202.398308 
L 532.579336 186.926801 
L 532.78732 200.352217 
L 533.203287 190.713554 
L 533.411271 187.215385 
L 533.619255 191.430013 
L 533.827239 221.721273 
L 534.035223 222.942762 
L 534.243207 204.729276 
L 534.451191 214.335972 
L 534.659175 200.954515 
L 534.867159 206.847351 
L 535.075143 183.824105 
L 535.49111 211.693228 
L 535.699094 195.289853 
L 535.907078 196.778274 
L 536.115062 207.570223 
L 536.323046 186.557289 
L 536.53103 186.492101 
L 536.739014 200.292715 
L 536.946998 197.227076 
L 537.154982 208.897528 
L 537.362965 211.308223 
L 537.570949 185.549546 
L 537.778933 206.839262 
L 537.986917 185.435018 
L 538.194901 196.313571 
L 538.402885 193.824307 
L 538.610869 198.342931 
L 538.818853 195.418655 
L 539.026837 200.662281 
L 539.234821 187.854777 
L 539.442804 199.140241 
L 539.650788 185.720553 
L 539.858772 196.090538 
L 540.066756 217.465015 
L 540.27474 203.310761 
L 540.482724 199.415031 
L 540.690708 198.164944 
L 540.898692 182.359332 
L 541.106676 194.562034 
L 541.31466 184.112508 
L 541.522643 188.528522 
L 541.730627 197.954037 
L 541.938611 193.449475 
L 542.146595 185.612835 
L 542.354579 184.934585 
L 542.562563 187.961839 
L 542.770547 183.900918 
L 542.978531 159.797131 
L 543.394498 192.357745 
L 543.602482 186.463685 
L 544.01845 201.769796 
L 544.226434 167.880322 
L 544.434418 193.981511 
L 544.642402 185.312513 
L 544.850386 182.79251 
L 545.05837 182.374787 
L 545.266354 183.143528 
L 545.474337 183.133999 
L 545.682321 195.545423 
L 545.890305 183.23206 
L 546.098289 185.531215 
L 546.306273 163.151179 
L 546.722241 180.787214 
L 546.930225 173.982045 
L 547.346193 201.398895 
L 547.554176 185.070438 
L 547.76216 205.575951 
L 547.970144 185.92743 
L 548.178128 181.708303 
L 548.386112 172.161116 
L 548.594096 186.037186 
L 548.80208 190.638542 
L 549.010064 192.196274 
L 549.218048 173.744502 
L 549.426032 178.651788 
L 549.634015 173.155258 
L 549.841999 183.668483 
L 550.049983 203.220115 
L 550.257967 185.504473 
L 550.465951 182.347355 
L 550.673935 189.884652 
L 550.881919 174.428831 
L 551.089903 190.869029 
L 551.505871 172.142604 
L 551.921838 188.532152 
L 552.129822 186.896484 
L 552.337806 158.636981 
L 552.54579 185.219991 
L 552.753774 187.384752 
L 552.961758 171.800103 
L 553.169742 186.60716 
L 553.377726 220.007802 
L 553.585709 201.053265 
L 553.793693 167.141233 
L 554.209661 186.562848 
L 554.625629 162.124169 
L 554.833613 176.354019 
L 555.041597 205.989475 
L 555.457565 170.995539 
L 555.665548 176.087804 
L 555.873532 187.677987 
L 556.081516 181.945575 
L 556.2895 155.175634 
L 556.705468 184.731226 
L 556.913452 173.806344 
L 557.121436 179.666931 
L 557.537404 163.683238 
L 557.745387 172.839698 
L 557.953371 159.482934 
L 558.161355 164.139393 
L 558.369339 173.115767 
L 558.577323 162.356984 
L 558.785307 168.927711 
L 558.993291 171.245165 
L 559.201275 162.388141 
L 559.409259 170.021109 
L 559.617243 145.601403 
L 559.825226 148.980554 
L 560.03321 165.939045 
L 560.241194 162.24961 
L 560.449178 190.239013 
L 560.657162 180.546744 
L 560.865146 147.049274 
L 561.07313 185.346013 
L 561.281114 169.237696 
L 561.489098 167.997734 
L 561.697082 150.319024 
L 562.113049 175.782309 
L 562.321033 161.215947 
L 562.529017 155.072913 
L 562.737001 176.126627 
L 562.944985 161.832114 
L 563.152969 173.310901 
L 563.360953 206.722284 
L 563.77692 165.774836 
L 563.984904 166.469542 
L 564.192888 161.637565 
L 564.400872 173.044118 
L 564.608856 160.756687 
L 565.024824 177.911854 
L 565.232808 178.09752 
L 565.440792 155.250332 
L 565.648776 169.202234 
L 565.856759 169.564316 
L 566.064743 171.264061 
L 566.272727 166.493489 
L 566.688695 219.817699 
L 567.104663 155.745026 
L 567.520631 170.952229 
L 567.728615 165.413188 
L 567.936598 148.756161 
L 568.352566 190.061329 
L 568.56055 189.686312 
L 568.768534 140.4933 
L 569.184502 197.192504 
L 569.60047 154.675752 
L 570.224421 199.155097 
L 570.432405 150.87606 
L 570.640389 146.277567 
L 570.848373 160.425387 
L 571.056357 163.067056 
L 571.264341 131.891243 
L 571.680309 185.258863 
L 571.888293 174.426818 
L 572.096276 127.27458 
L 572.30426 159.16676 
L 572.512244 156.888169 
L 572.720228 165.563771 
L 572.928212 152.529985 
L 573.136196 162.309856 
L 573.34418 190.535018 
L 573.552164 168.96264 
L 573.760148 164.883542 
L 573.968131 152.407049 
L 574.176115 169.747708 
L 574.384099 169.347282 
L 574.800067 133.55962 
L 575.008051 184.768858 
L 575.216035 173.162849 
L 575.424019 146.511895 
L 575.632003 149.212314 
L 575.839987 161.851943 
L 576.04797 153.080531 
L 576.255954 167.818826 
L 576.463938 172.559975 
L 576.671922 220.452932 
L 576.879906 211.970133 
L 577.08789 153.924846 
L 577.295874 148.642882 
L 577.503858 184.758339 
L 577.711842 174.22209 
L 577.919826 147.892985 
L 578.127809 171.748667 
L 578.335793 211.894917 
L 578.751761 145.124728 
L 578.959745 152.578829 
L 579.167729 194.656098 
L 579.375713 172.525575 
L 579.999665 234.822525 
L 580.207648 229.819616 
L 580.415632 144.680363 
L 580.8316 198.293872 
L 581.247568 166.886575 
L 581.663536 225.676408 
L 581.87152 209.048072 
L 582.079504 160.412273 
L 582.287487 163.744085 
L 582.495471 208.985797 
L 582.703455 199.038028 
L 582.911439 131.777944 
L 583.119423 136.869417 
L 583.327407 158.818965 
L 583.535391 151.145239 
L 583.743375 179.659473 
L 583.951359 167.995011 
L 584.159343 149.526005 
L 584.367326 179.174105 
L 584.57531 142.048771 
L 584.783294 148.282756 
L 584.991278 137.945485 
L 585.199262 160.822896 
L 585.407246 155.53688 
L 585.61523 162.023708 
L 585.823214 148.808719 
L 586.031198 166.69411 
L 586.447165 139.983119 
L 586.655149 155.169722 
L 586.863133 161.209058 
L 587.071117 192.268703 
L 587.279101 188.474137 
L 587.487085 152.575378 
L 587.695069 192.672907 
L 587.903053 168.686021 
L 588.111037 160.431373 
L 588.31902 138.076343 
L 588.734988 180.607739 
L 588.942972 173.78686 
L 589.150956 129.179643 
L 589.35894 166.782665 
L 589.566924 136.592354 
L 589.774908 143.590376 
L 589.982892 168.168658 
L 590.190876 159.300321 
L 590.398859 184.50368 
L 590.606843 173.378486 
L 590.814827 144.987149 
L 591.022811 174.993874 
L 591.438779 141.171525 
L 591.854747 156.341143 
L 592.062731 165.244325 
L 592.270715 153.648836 
L 592.478698 150.989997 
L 592.686682 157.447313 
L 592.894666 146.630457 
L 593.10265 148.558348 
L 593.310634 204.353824 
L 593.518618 167.86934 
L 593.934586 146.293362 
L 594.14257 157.762826 
L 594.350554 151.251811 
L 594.558537 136.680126 
L 594.766521 139.930785 
L 594.974505 181.633991 
L 595.390473 140.31705 
L 595.598457 143.610719 
L 595.806441 162.425184 
L 596.014425 153.261517 
L 596.222409 110.697984 
L 596.430392 124.176828 
L 596.638376 153.17984 
L 596.84636 142.804795 
L 597.054344 144.380496 
L 597.262328 152.302208 
L 597.470312 136.768511 
L 597.678296 151.368174 
L 597.88628 133.145932 
L 598.094264 135.628985 
L 598.510231 148.302951 
L 598.718215 144.443279 
L 598.926199 147.208499 
L 599.134183 133.916635 
L 599.342167 153.376556 
L 599.550151 123.864224 
L 599.758135 128.351568 
L 599.966119 143.525271 
L 600.174103 140.108811 
L 600.382087 163.228362 
L 600.59007 169.495956 
L 600.798054 140.764094 
L 601.006038 169.773139 
L 601.422006 129.164685 
L 601.62999 137.398318 
L 601.837974 129.759879 
L 602.045958 162.783807 
L 602.461926 127.870909 
L 602.669909 129.972306 
L 602.877893 124.146882 
L 603.085877 142.914871 
L 603.293861 180.917775 
L 603.917813 141.408882 
L 604.125797 138.081336 
L 604.333781 144.535484 
L 604.541765 136.669125 
L 604.749748 140.442336 
L 604.957732 155.370984 
L 605.165716 144.229696 
L 605.789668 148.313267 
L 605.997652 142.210773 
L 606.205636 148.954588 
L 606.41362 168.733781 
L 606.621603 207.991802 
L 606.829587 184.70385 
L 607.037571 122.040632 
L 607.245555 124.178554 
L 607.453539 155.965849 
L 607.869507 116.442623 
L 608.077491 140.050459 
L 608.285475 188.677143 
L 608.493459 166.377733 
L 608.701442 129.35348 
L 608.909426 142.593692 
L 609.11741 171.520795 
L 609.325394 150.525098 
L 609.533378 95.542445 
L 609.741362 115.000352 
L 609.949346 167.832178 
L 610.573298 105.816356 
L 610.781281 102.632124 
L 610.989265 131.745147 
L 611.197249 108.507497 
L 611.405233 116.817405 
L 611.613217 134.875724 
L 611.821201 135.749258 
L 612.029185 114.905829 
L 612.237169 129.203567 
L 612.445153 122.336369 
L 612.653137 128.558707 
L 612.86112 108.358291 
L 613.069104 114.770154 
L 613.277088 150.146352 
L 613.485072 125.040489 
L 613.693056 159.683374 
L 613.90104 145.302614 
L 614.109024 113.498405 
L 614.317008 135.165287 
L 614.524992 118.205997 
L 614.732976 118.559885 
L 614.940959 130.705295 
L 615.148943 124.331905 
L 615.356927 136.098151 
L 615.772895 118.548525 
L 615.980879 128.908317 
L 616.188863 117.940466 
L 616.396847 140.669913 
L 616.604831 189.672371 
L 617.020798 131.339466 
L 617.228782 123.988022 
L 617.64475 138.288307 
L 617.852734 117.732557 
L 618.060718 120.02408 
L 618.268702 161.565594 
L 618.476686 145.761502 
L 618.68467 108.950051 
L 618.892653 114.527004 
L 619.100637 127.611532 
L 619.308621 127.222544 
L 619.516605 141.195283 
L 619.724589 166.927841 
L 619.932573 212.323974 
L 620.140557 200.071262 
L 620.348541 120.964462 
L 620.556525 122.48199 
L 620.764509 152.104222 
L 620.972492 142.136224 
L 621.180476 67.40701 
L 621.596444 193.64467 
L 621.804428 166.880396 
L 622.012412 111.299377 
L 622.220396 116.765969 
L 622.42838 177.729933 
L 622.636364 151.546623 
L 622.636364 151.546623 
" clip-path="url(#p5a2c8471d0)" style="fill: none; stroke: #1f77b4; stroke-width: 1.5; stroke-linecap: square"/>
   </g>
   <g id="patch_3">
    <path d="M 90 384.48 
L 90 51.84 
" style="fill: none; stroke: #000000; stroke-width: 0.8; stroke-linejoin: miter; stroke-linecap: square"/>
   </g>
   <g id="patch_4">
    <path d="M 648 384.48 
L 648 51.84 
" style="fill: none; stroke: #000000; stroke-width: 0.8; stroke-linejoin: miter; stroke-linecap: square"/>
   </g>
   <g id="patch_5">
    <path d="M 90 384.48 
L 648 384.48 
" style="fill: none; stroke: #000000; stroke-width: 0.8; stroke-linejoin: miter; stroke-linecap: square"/>
   </g>
   <g id="patch_6">
    <path d="M 90 51.84 
L 648 51.84 
" style="fill: none; stroke: #000000; stroke-width: 0.8; stroke-linejoin: miter; stroke-linecap: square"/>
   </g>
   <g id="text_14">
    <!-- Average time per index -->
    <g transform="translate(298.700625 45.84) scale(0.12 -0.12)">
     <defs>
      <path id="DejaVuSans-70" d="M 1159 525 
L 1159 -1331 
L 581 -1331 
L 581 3500 
L 1159 3500 
L 1159 2969 
Q 1341 3281 1617 3432 
Q 1894 3584 2278 3584 
Q 2916 3584 3314 3078 
Q 3713 2572 3713 1747 
Q 3713 922 3314 415 
Q 2916 -91 2278 -91 
Q 1894 -91 1617 61 
Q 1341 213 1159 525 
z
M 3116 1747 
Q 3116 2381 2855 2742 
Q 2594 3103 2138 3103 
Q 1681 3103 1420 2742 
Q 1159 2381 1159 1747 
Q 1159 1113 1420 752 
Q 1681 391 2138 391 
Q 2594 391 2855 752 
Q 3116 1113 3116 1747 
z
" transform="scale(0.015625)"/>
     </defs>
     <use xlink:href="#DejaVuSans-41"/>
     <use xlink:href="#DejaVuSans-76" transform="translate(62.533203 0)"/>
     <use xlink:href="#DejaVuSans-65" transform="translate(121.712891 0)"/>
     <use xlink:href="#DejaVuSans-72" transform="translate(183.236328 0)"/>
     <use xlink:href="#DejaVuSans-61" transform="translate(224.349609 0)"/>
     <use xlink:href="#DejaVuSans-67" transform="translate(285.628906 0)"/>
     <use xlink:href="#DejaVuSans-65" transform="translate(349.105469 0)"/>
     <use xlink:href="#DejaVuSans-20" transform="translate(410.628906 0)"/>
     <use xlink:href="#DejaVuSans-74" transform="translate(442.416016 0)"/>
     <use xlink:href="#DejaVuSans-69" transform="translate(481.625 0)"/>
     <use xlink:href="#DejaVuSans-6d" transform="translate(509.408203 0)"/>
     <use xlink:href="#DejaVuSans-65" transform="translate(606.820312 0)"/>
     <use xlink:href="#DejaVuSans-20" transform="translate(668.34375 0)"/>
     <use xlink:href="#DejaVuSans-70" transform="translate(700.130859 0)"/>
     <use xlink:href="#DejaVuSans-65" transform="translate(763.607422 0)"/>
     <use xlink:href="#DejaVuSans-72" transform="translate(825.130859 0)"/>
     <use xlink:href="#DejaVuSans-20" transform="translate(866.244141 0)"/>
     <use xlink:href="#DejaVuSans-69" transform="translate(898.03125 0)"/>
     <use xlink:href="#DejaVuSans-6e" transform="translate(925.814453 0)"/>
     <use xlink:href="#DejaVuSans-64" transform="translate(989.193359 0)"/>
     <use xlink:href="#DejaVuSans-65" transform="translate(1052.669922 0)"/>
     <use xlink:href="#DejaVuSans-78" transform="translate(1112.443359 0)"/>
    </g>
   </g>
   <g id="legend_1">
    <g id="patch_7">
     <path d="M 544.020313 379.48 
L 641 379.48 
Q 643 379.48 643 377.48 
L 643 363.801875 
Q 643 361.801875 641 361.801875 
L 544.020313 361.801875 
Q 542.020313 361.801875 542.020313 363.801875 
L 542.020313 377.48 
Q 542.020313 379.48 544.020313 379.48 
z
" style="fill: #ffffff; opacity: 0.8; stroke: #cccccc; stroke-linejoin: miter"/>
    </g>
    <g id="line2d_13">
     <path d="M 546.020313 369.900312 
L 556.020313 369.900312 
L 566.020313 369.900312 
" style="fill: none; stroke: #1f77b4; stroke-width: 1.5; stroke-linecap: square"/>
    </g>
    <g id="text_15">
     <!-- handleResult -->
     <g transform="translate(574.020313 373.400312) scale(0.1 -0.1)">
      <defs>
       <path id="DejaVuSans-68" d="M 3513 2113 
L 3513 0 
L 2938 0 
L 2938 2094 
Q 2938 2591 2744 2837 
Q 2550 3084 2163 3084 
Q 1697 3084 1428 2787 
Q 1159 2491 1159 1978 
L 1159 0 
L 581 0 
L 581 4863 
L 1159 4863 
L 1159 2956 
Q 1366 3272 1645 3428 
Q 1925 3584 2291 3584 
Q 2894 3584 3203 3211 
Q 3513 2838 3513 2113 
z
" transform="scale(0.015625)"/>
       <path id="DejaVuSans-6c" d="M 603 4863 
L 1178 4863 
L 1178 0 
L 603 0 
L 603 4863 
z
" transform="scale(0.015625)"/>
       <path id="DejaVuSans-52" d="M 2841 2188 
Q 3044 2119 3236 1894 
Q 3428 1669 3622 1275 
L 4263 0 
L 3584 0 
L 2988 1197 
Q 2756 1666 2539 1819 
Q 2322 1972 1947 1972 
L 1259 1972 
L 1259 0 
L 628 0 
L 628 4666 
L 2053 4666 
Q 2853 4666 3247 4331 
Q 3641 3997 3641 3322 
Q 3641 2881 3436 2590 
Q 3231 2300 2841 2188 
z
M 1259 4147 
L 1259 2491 
L 2053 2491 
Q 2509 2491 2742 2702 
Q 2975 2913 2975 3322 
Q 2975 3731 2742 3939 
Q 2509 4147 2053 4147 
L 1259 4147 
z
" transform="scale(0.015625)"/>
       <path id="DejaVuSans-75" d="M 544 1381 
L 544 3500 
L 1119 3500 
L 1119 1403 
Q 1119 906 1312 657 
Q 1506 409 1894 409 
Q 2359 409 2629 706 
Q 2900 1003 2900 1516 
L 2900 3500 
L 3475 3500 
L 3475 0 
L 2900 0 
L 2900 538 
Q 2691 219 2414 64 
Q 2138 -91 1772 -91 
Q 1169 -91 856 284 
Q 544 659 544 1381 
z
M 1991 3584 
L 1991 3584 
z
" transform="scale(0.015625)"/>
      </defs>
      <use xlink:href="#DejaVuSans-68"/>
      <use xlink:href="#DejaVuSans-61" transform="translate(63.378906 0)"/>
      <use xlink:href="#DejaVuSans-6e" transform="translate(124.658203 0)"/>
      <use xlink:href="#DejaVuSans-64" transform="translate(188.037109 0)"/>
      <use xlink:href="#DejaVuSans-6c" transform="translate(251.513672 0)"/>
      <use xlink:href="#DejaVuSans-65" transform="translate(279.296875 0)"/>
      <use xlink:href="#DejaVuSans-52" transform="translate(340.820312 0)"/>
      <use xlink:href="#DejaVuSans-65" transform="translate(405.802734 0)"/>
      <use xlink:href="#DejaVuSans-73" transform="translate(467.326172 0)"/>
      <use xlink:href="#DejaVuSans-75" transform="translate(519.425781 0)"/>
      <use xlink:href="#DejaVuSans-6c" transform="translate(582.804688 0)"/>
      <use xlink:href="#DejaVuSans-74" transform="translate(610.587891 0)"/>
     </g>
    </g>
   </g>
  </g>
 </g>
 <defs>
  <clipPath id="p5a2c8471d0">
   <rect x="90" y="51.84" width="558" height="332.64"/>
  </clipPath>
 </defs>
</svg>
