<?xml version="1.0" encoding="utf-8" standalone="no"?>
<!DOCTYPE svg PUBLIC "-//W3C//DTD SVG 1.1//EN"
  "http://www.w3.org/Graphics/SVG/1.1/DTD/svg11.dtd">
<svg xmlns:xlink="http://www.w3.org/1999/xlink" width="576pt" height="432pt" viewBox="0 0 576 432" xmlns="http://www.w3.org/2000/svg" version="1.1">
 <metadata>
  <rdf:RDF xmlns:dc="http://purl.org/dc/elements/1.1/" xmlns:cc="http://creativecommons.org/ns#" xmlns:rdf="http://www.w3.org/1999/02/22-rdf-syntax-ns#">
   <cc:Work>
    <dc:type rdf:resource="http://purl.org/dc/dcmitype/StillImage"/>
    <dc:date>2025-09-30T20:43:26.259667</dc:date>
    <dc:format>image/svg+xml</dc:format>
    <dc:creator>
     <cc:Agent>
      <dc:title>Matplotlib v3.10.3, https://matplotlib.org/</dc:title>
     </cc:Agent>
    </dc:creator>
   </cc:Work>
  </rdf:RDF>
 </metadata>
 <defs>
  <style type="text/css">*{stroke-linejoin: round; stroke-linecap: butt}</style>
 </defs>
 <g id="figure_1">
  <g id="patch_1">
   <path d="M 0 432 
L 576 432 
L 576 0 
L 0 0 
z
" style="fill: #ffffff"/>
  </g>
  <g id="axes_1">
   <g id="patch_2">
    <path d="M 72 384.48 
L 518.4 384.48 
L 518.4 51.84 
L 72 51.84 
z
" style="fill: #ffffff"/>
   </g>
   <g id="FillBetweenPolyCollection_1">
    <path d="M 295.922158 381.126951 
L 294.477842 381.126951 
L 294.27645 377.959208 
L 293.78994 374.791464 
L 292.340665 371.62372 
L 289.279493 368.455977 
L 284.714467 365.288233 
L 279.608602 362.120489 
L 274.331381 358.952746 
L 266.768671 355.785002 
L 252.932893 352.617258 
L 231.547665 349.449515 
L 208.572405 346.281771 
L 194.351525 343.114028 
L 194.108921 339.946284 
L 202.939794 336.77854 
L 211.103684 333.610797 
L 212.192368 330.443053 
L 205.872546 327.275309 
L 195.76165 324.107566 
L 186.874118 320.939822 
L 183.6 317.772078 
L 187.355349 314.604335 
L 195.702635 311.436591 
L 204.400794 308.268847 
L 210.241041 305.101104 
L 212.602231 301.93336 
L 213.606309 298.765617 
L 216.398341 295.597873 
L 222.075026 292.430129 
L 228.583807 289.262386 
L 233.197069 286.094642 
L 235.31894 282.926898 
L 236.421184 279.759155 
L 238.107372 276.591411 
L 240.749798 273.423667 
L 243.485176 270.255924 
L 245.21692 267.08818 
L 245.731642 263.920437 
L 245.853563 260.752693 
L 246.656757 257.584949 
L 248.697458 254.417206 
L 251.760826 251.249462 
L 255.080478 248.081718 
L 257.925446 244.913975 
L 260.071977 241.746231 
L 261.688331 238.578487 
L 262.967052 235.410744 
L 264.019726 232.243 
L 265.021086 229.075257 
L 266.348099 225.907513 
L 268.429366 222.739769 
L 271.31087 219.572026 
L 274.487868 216.404282 
L 277.365761 213.236538 
L 279.843242 210.068795 
L 282.262482 206.901051 
L 284.82218 203.733307 
L 287.261618 200.565564 
L 289.167134 197.39782 
L 290.416168 194.230077 
L 291.214297 191.062333 
L 291.809984 187.894589 
L 292.309926 184.726846 
L 292.714456 181.559102 
L 293.013152 178.391358 
L 293.229253 175.223615 
L 293.403379 172.055871 
L 293.56693 168.888127 
L 293.73669 165.720384 
L 293.907807 162.55264 
L 294.060598 159.384897 
L 294.194049 156.217153 
L 294.330404 153.049409 
L 294.484476 149.881666 
L 294.647654 146.713922 
L 294.797634 143.546178 
L 294.917112 140.378435 
L 295.001578 137.210691 
L 295.053876 134.042947 
L 295.083272 130.875204 
L 295.10507 127.70746 
L 295.128856 124.539716 
L 295.150357 121.371973 
L 295.160484 118.204229 
L 295.158634 115.036486 
L 295.153311 111.868742 
L 295.153082 108.700998 
L 295.160979 105.533255 
L 295.174324 102.365511 
L 295.187181 99.197767 
L 295.195297 96.030024 
L 295.198755 92.86228 
L 295.199751 89.694536 
L 295.199832 86.526793 
L 295.199108 83.359049 
L 295.195898 80.191306 
L 295.186634 77.023562 
L 295.169224 73.855818 
L 295.14993 70.688075 
L 295.142439 67.520331 
L 295.257561 67.520331 
L 295.257561 67.520331 
L 295.25007 70.688075 
L 295.230776 73.855818 
L 295.213366 77.023562 
L 295.204102 80.191306 
L 295.200892 83.359049 
L 295.200168 86.526793 
L 295.200249 89.694536 
L 295.201245 92.86228 
L 295.204703 96.030024 
L 295.212819 99.197767 
L 295.225676 102.365511 
L 295.239021 105.533255 
L 295.246918 108.700998 
L 295.246689 111.868742 
L 295.241366 115.036486 
L 295.239516 118.204229 
L 295.249643 121.371973 
L 295.271144 124.539716 
L 295.29493 127.70746 
L 295.316728 130.875204 
L 295.346124 134.042947 
L 295.398422 137.210691 
L 295.482888 140.378435 
L 295.602366 143.546178 
L 295.752346 146.713922 
L 295.915524 149.881666 
L 296.069596 153.049409 
L 296.205951 156.217153 
L 296.339402 159.384897 
L 296.492193 162.55264 
L 296.66331 165.720384 
L 296.83307 168.888127 
L 296.996621 172.055871 
L 297.170747 175.223615 
L 297.386848 178.391358 
L 297.685544 181.559102 
L 298.090074 184.726846 
L 298.590016 187.894589 
L 299.185703 191.062333 
L 299.983832 194.230077 
L 301.232866 197.39782 
L 303.138382 200.565564 
L 305.57782 203.733307 
L 308.137518 206.901051 
L 310.556758 210.068795 
L 313.034239 213.236538 
L 315.912132 216.404282 
L 319.08913 219.572026 
L 321.970634 222.739769 
L 324.051901 225.907513 
L 325.378914 229.075257 
L 326.380274 232.243 
L 327.432948 235.410744 
L 328.711669 238.578487 
L 330.328023 241.746231 
L 332.474554 244.913975 
L 335.319522 248.081718 
L 338.639174 251.249462 
L 341.702542 254.417206 
L 343.743243 257.584949 
L 344.546437 260.752693 
L 344.668358 263.920437 
L 345.18308 267.08818 
L 346.914824 270.255924 
L 349.650202 273.423667 
L 352.292628 276.591411 
L 353.978816 279.759155 
L 355.08106 282.926898 
L 357.202931 286.094642 
L 361.816193 289.262386 
L 368.324974 292.430129 
L 374.001659 295.597873 
L 376.793691 298.765617 
L 377.797769 301.93336 
L 380.158959 305.101104 
L 385.999206 308.268847 
L 394.697365 311.436591 
L 403.044651 314.604335 
L 406.8 317.772078 
L 403.525882 320.939822 
L 394.63835 324.107566 
L 384.527454 327.275309 
L 378.207632 330.443053 
L 379.296316 333.610797 
L 387.460206 336.77854 
L 396.291079 339.946284 
L 396.048475 343.114028 
L 381.827595 346.281771 
L 358.852335 349.449515 
L 337.467107 352.617258 
L 323.631329 355.785002 
L 316.068619 358.952746 
L 310.791398 362.120489 
L 305.685533 365.288233 
L 301.120507 368.455977 
L 298.059335 371.62372 
L 296.61006 374.791464 
L 296.12355 377.959208 
L 295.922158 381.126951 
z
" clip-path="url(#p44153cd2ed)" style="fill: #1f77b4; fill-opacity: 0.3"/>
   </g>
   <g id="matplotlib.axis_1">
    <g id="xtick_1">
     <g id="line2d_1">
      <defs>
       <path id="m220fb48243" d="M 0 0 
L 0 3.5 
" style="stroke: #000000; stroke-width: 0.8"/>
      </defs>
      <g>
       <use xlink:href="#m220fb48243" x="295.2" y="384.48" style="stroke: #000000; stroke-width: 0.8"/>
      </g>
     </g>
     <g id="text_1">
      <!-- 1 -->
      <g transform="translate(292.01875 399.078438) scale(0.1 -0.1)">
       <defs>
        <path id="DejaVuSans-31" d="M 794 531 
L 1825 531 
L 1825 4091 
L 703 3866 
L 703 4441 
L 1819 4666 
L 2450 4666 
L 2450 531 
L 3481 531 
L 3481 0 
L 794 0 
L 794 531 
z
" transform="scale(0.015625)"/>
       </defs>
       <use xlink:href="#DejaVuSans-31"/>
      </g>
     </g>
    </g>
   </g>
   <g id="matplotlib.axis_2">
    <g id="ytick_1">
     <g id="line2d_2">
      <defs>
       <path id="mf01289f9ef" d="M 0 0 
L -3.5 0 
" style="stroke: #000000; stroke-width: 0.8"/>
      </defs>
      <g>
       <use xlink:href="#mf01289f9ef" x="72" y="384.48" style="stroke: #000000; stroke-width: 0.8"/>
      </g>
     </g>
     <g id="text_2">
      <!-- 0 -->
      <g transform="translate(58.6375 388.279219) scale(0.1 -0.1)">
       <defs>
        <path id="DejaVuSans-30" d="M 2034 4250 
Q 1547 4250 1301 3770 
Q 1056 3291 1056 2328 
Q 1056 1369 1301 889 
Q 1547 409 2034 409 
Q 2525 409 2770 889 
Q 3016 1369 3016 2328 
Q 3016 3291 2770 3770 
Q 2525 4250 2034 4250 
z
M 2034 4750 
Q 2819 4750 3233 4129 
Q 3647 3509 3647 2328 
Q 3647 1150 3233 529 
Q 2819 -91 2034 -91 
Q 1250 -91 836 529 
Q 422 1150 422 2328 
Q 422 3509 836 4129 
Q 1250 4750 2034 4750 
z
" transform="scale(0.015625)"/>
       </defs>
       <use xlink:href="#DejaVuSans-30"/>
      </g>
     </g>
    </g>
    <g id="ytick_2">
     <g id="line2d_3">
      <g>
       <use xlink:href="#mf01289f9ef" x="72" y="334.018147" style="stroke: #000000; stroke-width: 0.8"/>
      </g>
     </g>
     <g id="text_3">
      <!-- 5 -->
      <g transform="translate(58.6375 337.817366) scale(0.1 -0.1)">
       <defs>
        <path id="DejaVuSans-35" d="M 691 4666 
L 3169 4666 
L 3169 4134 
L 1269 4134 
L 1269 2991 
Q 1406 3038 1543 3061 
Q 1681 3084 1819 3084 
Q 2600 3084 3056 2656 
Q 3513 2228 3513 1497 
Q 3513 744 3044 326 
Q 2575 -91 1722 -91 
Q 1428 -91 1123 -41 
Q 819 9 494 109 
L 494 744 
Q 775 591 1075 516 
Q 1375 441 1709 441 
Q 2250 441 2565 725 
Q 2881 1009 2881 1497 
Q 2881 1984 2565 2268 
Q 2250 2553 1709 2553 
Q 1456 2553 1204 2497 
Q 953 2441 691 2322 
L 691 4666 
z
" transform="scale(0.015625)"/>
       </defs>
       <use xlink:href="#DejaVuSans-35"/>
      </g>
     </g>
    </g>
    <g id="ytick_3">
     <g id="line2d_4">
      <g>
       <use xlink:href="#mf01289f9ef" x="72" y="283.556294" style="stroke: #000000; stroke-width: 0.8"/>
      </g>
     </g>
     <g id="text_4">
      <!-- 10 -->
      <g transform="translate(52.275 287.355513) scale(0.1 -0.1)">
       <use xlink:href="#DejaVuSans-31"/>
       <use xlink:href="#DejaVuSans-30" transform="translate(63.623047 0)"/>
      </g>
     </g>
    </g>
    <g id="ytick_4">
     <g id="line2d_5">
      <g>
       <use xlink:href="#mf01289f9ef" x="72" y="233.094441" style="stroke: #000000; stroke-width: 0.8"/>
      </g>
     </g>
     <g id="text_5">
      <!-- 15 -->
      <g transform="translate(52.275 236.89366) scale(0.1 -0.1)">
       <use xlink:href="#DejaVuSans-31"/>
       <use xlink:href="#DejaVuSans-35" transform="translate(63.623047 0)"/>
      </g>
     </g>
    </g>
    <g id="ytick_5">
     <g id="line2d_6">
      <g>
       <use xlink:href="#mf01289f9ef" x="72" y="182.632588" style="stroke: #000000; stroke-width: 0.8"/>
      </g>
     </g>
     <g id="text_6">
      <!-- 20 -->
      <g transform="translate(52.275 186.431807) scale(0.1 -0.1)">
       <defs>
        <path id="DejaVuSans-32" d="M 1228 531 
L 3431 531 
L 3431 0 
L 469 0 
L 469 531 
Q 828 903 1448 1529 
Q 2069 2156 2228 2338 
Q 2531 2678 2651 2914 
Q 2772 3150 2772 3378 
Q 2772 3750 2511 3984 
Q 2250 4219 1831 4219 
Q 1534 4219 1204 4116 
Q 875 4013 500 3803 
L 500 4441 
Q 881 4594 1212 4672 
Q 1544 4750 1819 4750 
Q 2544 4750 2975 4387 
Q 3406 4025 3406 3419 
Q 3406 3131 3298 2873 
Q 3191 2616 2906 2266 
Q 2828 2175 2409 1742 
Q 1991 1309 1228 531 
z
" transform="scale(0.015625)"/>
       </defs>
       <use xlink:href="#DejaVuSans-32"/>
       <use xlink:href="#DejaVuSans-30" transform="translate(63.623047 0)"/>
      </g>
     </g>
    </g>
    <g id="ytick_6">
     <g id="line2d_7">
      <g>
       <use xlink:href="#mf01289f9ef" x="72" y="132.170735" style="stroke: #000000; stroke-width: 0.8"/>
      </g>
     </g>
     <g id="text_7">
      <!-- 25 -->
      <g transform="translate(52.275 135.969954) scale(0.1 -0.1)">
       <use xlink:href="#DejaVuSans-32"/>
       <use xlink:href="#DejaVuSans-35" transform="translate(63.623047 0)"/>
      </g>
     </g>
    </g>
    <g id="ytick_7">
     <g id="line2d_8">
      <g>
       <use xlink:href="#mf01289f9ef" x="72" y="81.708882" style="stroke: #000000; stroke-width: 0.8"/>
      </g>
     </g>
     <g id="text_8">
      <!-- 30 -->
      <g transform="translate(52.275 85.508101) scale(0.1 -0.1)">
       <defs>
        <path id="DejaVuSans-33" d="M 2597 2516 
Q 3050 2419 3304 2112 
Q 3559 1806 3559 1356 
Q 3559 666 3084 287 
Q 2609 -91 1734 -91 
Q 1441 -91 1130 -33 
Q 819 25 488 141 
L 488 750 
Q 750 597 1062 519 
Q 1375 441 1716 441 
Q 2309 441 2620 675 
Q 2931 909 2931 1356 
Q 2931 1769 2642 2001 
Q 2353 2234 1838 2234 
L 1294 2234 
L 1294 2753 
L 1863 2753 
Q 2328 2753 2575 2939 
Q 2822 3125 2822 3475 
Q 2822 3834 2567 4026 
Q 2313 4219 1838 4219 
Q 1578 4219 1281 4162 
Q 984 4106 628 3988 
L 628 4550 
Q 988 4650 1302 4700 
Q 1616 4750 1894 4750 
Q 2613 4750 3031 4423 
Q 3450 4097 3450 3541 
Q 3450 3153 3228 2886 
Q 3006 2619 2597 2516 
z
" transform="scale(0.015625)"/>
       </defs>
       <use xlink:href="#DejaVuSans-33"/>
       <use xlink:href="#DejaVuSans-30" transform="translate(63.623047 0)"/>
      </g>
     </g>
    </g>
    <g id="text_9">
     <!-- Time (ms) -->
     <g transform="translate(46.195312 243.359219) rotate(-90) scale(0.1 -0.1)">
      <defs>
       <path id="DejaVuSans-54" d="M -19 4666 
L 3928 4666 
L 3928 4134 
L 2272 4134 
L 2272 0 
L 1638 0 
L 1638 4134 
L -19 4134 
L -19 4666 
z
" transform="scale(0.015625)"/>
       <path id="DejaVuSans-69" d="M 603 3500 
L 1178 3500 
L 1178 0 
L 603 0 
L 603 3500 
z
M 603 4863 
L 1178 4863 
L 1178 4134 
L 603 4134 
L 603 4863 
z
" transform="scale(0.015625)"/>
       <path id="DejaVuSans-6d" d="M 3328 2828 
Q 3544 3216 3844 3400 
Q 4144 3584 4550 3584 
Q 5097 3584 5394 3201 
Q 5691 2819 5691 2113 
L 5691 0 
L 5113 0 
L 5113 2094 
Q 5113 2597 4934 2840 
Q 4756 3084 4391 3084 
Q 3944 3084 3684 2787 
Q 3425 2491 3425 1978 
L 3425 0 
L 2847 0 
L 2847 2094 
Q 2847 2600 2669 2842 
Q 2491 3084 2119 3084 
Q 1678 3084 1418 2786 
Q 1159 2488 1159 1978 
L 1159 0 
L 581 0 
L 581 3500 
L 1159 3500 
L 1159 2956 
Q 1356 3278 1631 3431 
Q 1906 3584 2284 3584 
Q 2666 3584 2933 3390 
Q 3200 3197 3328 2828 
z
" transform="scale(0.015625)"/>
       <path id="DejaVuSans-65" d="M 3597 1894 
L 3597 1613 
L 953 1613 
Q 991 1019 1311 708 
Q 1631 397 2203 397 
Q 2534 397 2845 478 
Q 3156 559 3463 722 
L 3463 178 
Q 3153 47 2828 -22 
Q 2503 -91 2169 -91 
Q 1331 -91 842 396 
Q 353 884 353 1716 
Q 353 2575 817 3079 
Q 1281 3584 2069 3584 
Q 2775 3584 3186 3129 
Q 3597 2675 3597 1894 
z
M 3022 2063 
Q 3016 2534 2758 2815 
Q 2500 3097 2075 3097 
Q 1594 3097 1305 2825 
Q 1016 2553 972 2059 
L 3022 2063 
z
" transform="scale(0.015625)"/>
       <path id="DejaVuSans-20" transform="scale(0.015625)"/>
       <path id="DejaVuSans-28" d="M 1984 4856 
Q 1566 4138 1362 3434 
Q 1159 2731 1159 2009 
Q 1159 1288 1364 580 
Q 1569 -128 1984 -844 
L 1484 -844 
Q 1016 -109 783 600 
Q 550 1309 550 2009 
Q 550 2706 781 3412 
Q 1013 4119 1484 4856 
L 1984 4856 
z
" transform="scale(0.015625)"/>
       <path id="DejaVuSans-73" d="M 2834 3397 
L 2834 2853 
Q 2591 2978 2328 3040 
Q 2066 3103 1784 3103 
Q 1356 3103 1142 2972 
Q 928 2841 928 2578 
Q 928 2378 1081 2264 
Q 1234 2150 1697 2047 
L 1894 2003 
Q 2506 1872 2764 1633 
Q 3022 1394 3022 966 
Q 3022 478 2636 193 
Q 2250 -91 1575 -91 
Q 1294 -91 989 -36 
Q 684 19 347 128 
L 347 722 
Q 666 556 975 473 
Q 1284 391 1588 391 
Q 1994 391 2212 530 
Q 2431 669 2431 922 
Q 2431 1156 2273 1281 
Q 2116 1406 1581 1522 
L 1381 1569 
Q 847 1681 609 1914 
Q 372 2147 372 2553 
Q 372 3047 722 3315 
Q 1072 3584 1716 3584 
Q 2034 3584 2315 3537 
Q 2597 3491 2834 3397 
z
" transform="scale(0.015625)"/>
       <path id="DejaVuSans-29" d="M 513 4856 
L 1013 4856 
Q 1481 4119 1714 3412 
Q 1947 2706 1947 2009 
Q 1947 1309 1714 600 
Q 1481 -109 1013 -844 
L 513 -844 
Q 928 -128 1133 580 
Q 1338 1288 1338 2009 
Q 1338 2731 1133 3434 
Q 928 4138 513 4856 
z
" transform="scale(0.015625)"/>
      </defs>
      <use xlink:href="#DejaVuSans-54"/>
      <use xlink:href="#DejaVuSans-69" transform="translate(57.958984 0)"/>
      <use xlink:href="#DejaVuSans-6d" transform="translate(85.742188 0)"/>
      <use xlink:href="#DejaVuSans-65" transform="translate(183.154297 0)"/>
      <use xlink:href="#DejaVuSans-20" transform="translate(244.677734 0)"/>
      <use xlink:href="#DejaVuSans-28" transform="translate(276.464844 0)"/>
      <use xlink:href="#DejaVuSans-6d" transform="translate(315.478516 0)"/>
      <use xlink:href="#DejaVuSans-73" transform="translate(412.890625 0)"/>
      <use xlink:href="#DejaVuSans-29" transform="translate(464.990234 0)"/>
     </g>
    </g>
   </g>
   <g id="LineCollection_1">
    <path d="M 239.4 297.014651 
L 351 297.014651 
" clip-path="url(#p44153cd2ed)" style="fill: none; stroke: #1f77b4; stroke-width: 1.5"/>
   </g>
   <g id="LineCollection_2">
    <path d="M 239.4 67.520331 
L 351 67.520331 
" clip-path="url(#p44153cd2ed)" style="fill: none; stroke: #1f77b4; stroke-width: 1.5"/>
   </g>
   <g id="LineCollection_3">
    <path d="M 239.4 381.126951 
L 351 381.126951 
" clip-path="url(#p44153cd2ed)" style="fill: none; stroke: #1f77b4; stroke-width: 1.5"/>
   </g>
   <g id="LineCollection_4">
    <path d="M 295.2 381.126951 
L 295.2 67.520331 
" clip-path="url(#p44153cd2ed)" style="fill: none; stroke: #1f77b4; stroke-width: 1.5"/>
   </g>
   <g id="patch_3">
    <path d="M 250.56 328.098162 
L 339.84 328.098162 
L 339.84 269.923699 
L 250.56 269.923699 
L 250.56 328.098162 
z
" clip-path="url(#p44153cd2ed)" style="fill: #1f77b4; stroke: #000000; stroke-linejoin: miter"/>
   </g>
   <g id="line2d_9">
    <path d="M 295.2 328.098162 
L 295.2 381.126951 
" clip-path="url(#p44153cd2ed)" style="fill: none; stroke: #000000; stroke-linecap: square"/>
   </g>
   <g id="line2d_10">
    <path d="M 295.2 269.923699 
L 295.2 182.8065 
" clip-path="url(#p44153cd2ed)" style="fill: none; stroke: #000000; stroke-linecap: square"/>
   </g>
   <g id="line2d_11">
    <path d="M 272.88 381.126951 
L 317.52 381.126951 
" clip-path="url(#p44153cd2ed)" style="fill: none; stroke: #000000; stroke-linecap: square"/>
   </g>
   <g id="line2d_12">
    <path d="M 272.88 182.8065 
L 317.52 182.8065 
" clip-path="url(#p44153cd2ed)" style="fill: none; stroke: #000000; stroke-linecap: square"/>
   </g>
   <g id="line2d_13">
    <defs>
     <path id="mafbfce1d4b" d="M 0 3 
C 0.795609 3 1.55874 2.683901 2.12132 2.12132 
C 2.683901 1.55874 3 0.795609 3 0 
C 3 -0.795609 2.683901 -1.55874 2.12132 -2.12132 
C 1.55874 -2.683901 0.795609 -3 0 -3 
C -0.795609 -3 -1.55874 -2.683901 -2.12132 -2.12132 
C -2.683901 -1.55874 -3 -0.795609 -3 0 
C -3 0.795609 -2.683901 1.55874 -2.12132 2.12132 
C -1.55874 2.683901 -0.795609 3 0 3 
z
" style="stroke: #000000"/>
    </defs>
    <g clip-path="url(#p44153cd2ed)">
     <use xlink:href="#mafbfce1d4b" x="295.2" y="148.826245" style="fill-opacity: 0; stroke: #000000"/>
     <use xlink:href="#mafbfce1d4b" x="295.2" y="162.383276" style="fill-opacity: 0; stroke: #000000"/>
     <use xlink:href="#mafbfce1d4b" x="295.2" y="162.81749" style="fill-opacity: 0; stroke: #000000"/>
     <use xlink:href="#mafbfce1d4b" x="295.2" y="149.224217" style="fill-opacity: 0; stroke: #000000"/>
     <use xlink:href="#mafbfce1d4b" x="295.2" y="177.853346" style="fill-opacity: 0; stroke: #000000"/>
     <use xlink:href="#mafbfce1d4b" x="295.2" y="165.895279" style="fill-opacity: 0; stroke: #000000"/>
     <use xlink:href="#mafbfce1d4b" x="295.2" y="165.908511" style="fill-opacity: 0; stroke: #000000"/>
     <use xlink:href="#mafbfce1d4b" x="295.2" y="180.498324" style="fill-opacity: 0; stroke: #000000"/>
     <use xlink:href="#mafbfce1d4b" x="295.2" y="148.084809" style="fill-opacity: 0; stroke: #000000"/>
     <use xlink:href="#mafbfce1d4b" x="295.2" y="149.804539" style="fill-opacity: 0; stroke: #000000"/>
     <use xlink:href="#mafbfce1d4b" x="295.2" y="175.612708" style="fill-opacity: 0; stroke: #000000"/>
     <use xlink:href="#mafbfce1d4b" x="295.2" y="161.961748" style="fill-opacity: 0; stroke: #000000"/>
     <use xlink:href="#mafbfce1d4b" x="295.2" y="175.613808" style="fill-opacity: 0; stroke: #000000"/>
     <use xlink:href="#mafbfce1d4b" x="295.2" y="178.223847" style="fill-opacity: 0; stroke: #000000"/>
     <use xlink:href="#mafbfce1d4b" x="295.2" y="173.157992" style="fill-opacity: 0; stroke: #000000"/>
     <use xlink:href="#mafbfce1d4b" x="295.2" y="157.908409" style="fill-opacity: 0; stroke: #000000"/>
     <use xlink:href="#mafbfce1d4b" x="295.2" y="181.420383" style="fill-opacity: 0; stroke: #000000"/>
     <use xlink:href="#mafbfce1d4b" x="295.2" y="166.643356" style="fill-opacity: 0; stroke: #000000"/>
     <use xlink:href="#mafbfce1d4b" x="295.2" y="155.863594" style="fill-opacity: 0; stroke: #000000"/>
     <use xlink:href="#mafbfce1d4b" x="295.2" y="67.520331" style="fill-opacity: 0; stroke: #000000"/>
     <use xlink:href="#mafbfce1d4b" x="295.2" y="160.208885" style="fill-opacity: 0; stroke: #000000"/>
     <use xlink:href="#mafbfce1d4b" x="295.2" y="180.897265" style="fill-opacity: 0; stroke: #000000"/>
     <use xlink:href="#mafbfce1d4b" x="295.2" y="172.332971" style="fill-opacity: 0; stroke: #000000"/>
     <use xlink:href="#mafbfce1d4b" x="295.2" y="163.635941" style="fill-opacity: 0; stroke: #000000"/>
     <use xlink:href="#mafbfce1d4b" x="295.2" y="173.882382" style="fill-opacity: 0; stroke: #000000"/>
     <use xlink:href="#mafbfce1d4b" x="295.2" y="171.003977" style="fill-opacity: 0; stroke: #000000"/>
     <use xlink:href="#mafbfce1d4b" x="295.2" y="176.664455" style="fill-opacity: 0; stroke: #000000"/>
     <use xlink:href="#mafbfce1d4b" x="295.2" y="173.373544" style="fill-opacity: 0; stroke: #000000"/>
     <use xlink:href="#mafbfce1d4b" x="295.2" y="155.317062" style="fill-opacity: 0; stroke: #000000"/>
     <use xlink:href="#mafbfce1d4b" x="295.2" y="167.653885" style="fill-opacity: 0; stroke: #000000"/>
     <use xlink:href="#mafbfce1d4b" x="295.2" y="172.812651" style="fill-opacity: 0; stroke: #000000"/>
     <use xlink:href="#mafbfce1d4b" x="295.2" y="167.517053" style="fill-opacity: 0; stroke: #000000"/>
     <use xlink:href="#mafbfce1d4b" x="295.2" y="169.478364" style="fill-opacity: 0; stroke: #000000"/>
     <use xlink:href="#mafbfce1d4b" x="295.2" y="125.064374" style="fill-opacity: 0; stroke: #000000"/>
     <use xlink:href="#mafbfce1d4b" x="295.2" y="158.822375" style="fill-opacity: 0; stroke: #000000"/>
     <use xlink:href="#mafbfce1d4b" x="295.2" y="162.566977" style="fill-opacity: 0; stroke: #000000"/>
     <use xlink:href="#mafbfce1d4b" x="295.2" y="170.793137" style="fill-opacity: 0; stroke: #000000"/>
     <use xlink:href="#mafbfce1d4b" x="295.2" y="174.381298" style="fill-opacity: 0; stroke: #000000"/>
     <use xlink:href="#mafbfce1d4b" x="295.2" y="173.013731" style="fill-opacity: 0; stroke: #000000"/>
     <use xlink:href="#mafbfce1d4b" x="295.2" y="130.633717" style="fill-opacity: 0; stroke: #000000"/>
     <use xlink:href="#mafbfce1d4b" x="295.2" y="145.026891" style="fill-opacity: 0; stroke: #000000"/>
     <use xlink:href="#mafbfce1d4b" x="295.2" y="113.187208" style="fill-opacity: 0; stroke: #000000"/>
     <use xlink:href="#mafbfce1d4b" x="295.2" y="174.609486" style="fill-opacity: 0; stroke: #000000"/>
     <use xlink:href="#mafbfce1d4b" x="295.2" y="152.603849" style="fill-opacity: 0; stroke: #000000"/>
     <use xlink:href="#mafbfce1d4b" x="295.2" y="167.476381" style="fill-opacity: 0; stroke: #000000"/>
     <use xlink:href="#mafbfce1d4b" x="295.2" y="141.00713" style="fill-opacity: 0; stroke: #000000"/>
     <use xlink:href="#mafbfce1d4b" x="295.2" y="157.135122" style="fill-opacity: 0; stroke: #000000"/>
     <use xlink:href="#mafbfce1d4b" x="295.2" y="155.01969" style="fill-opacity: 0; stroke: #000000"/>
     <use xlink:href="#mafbfce1d4b" x="295.2" y="156.888323" style="fill-opacity: 0; stroke: #000000"/>
     <use xlink:href="#mafbfce1d4b" x="295.2" y="166.396436" style="fill-opacity: 0; stroke: #000000"/>
     <use xlink:href="#mafbfce1d4b" x="295.2" y="170.1641" style="fill-opacity: 0; stroke: #000000"/>
     <use xlink:href="#mafbfce1d4b" x="295.2" y="168.414234" style="fill-opacity: 0; stroke: #000000"/>
     <use xlink:href="#mafbfce1d4b" x="295.2" y="153.621302" style="fill-opacity: 0; stroke: #000000"/>
     <use xlink:href="#mafbfce1d4b" x="295.2" y="179.371471" style="fill-opacity: 0; stroke: #000000"/>
     <use xlink:href="#mafbfce1d4b" x="295.2" y="180.805435" style="fill-opacity: 0; stroke: #000000"/>
     <use xlink:href="#mafbfce1d4b" x="295.2" y="180.727724" style="fill-opacity: 0; stroke: #000000"/>
     <use xlink:href="#mafbfce1d4b" x="295.2" y="173.274881" style="fill-opacity: 0; stroke: #000000"/>
     <use xlink:href="#mafbfce1d4b" x="295.2" y="157.860198" style="fill-opacity: 0; stroke: #000000"/>
     <use xlink:href="#mafbfce1d4b" x="295.2" y="157.325494" style="fill-opacity: 0; stroke: #000000"/>
     <use xlink:href="#mafbfce1d4b" x="295.2" y="180.723596" style="fill-opacity: 0; stroke: #000000"/>
     <use xlink:href="#mafbfce1d4b" x="295.2" y="176.751552" style="fill-opacity: 0; stroke: #000000"/>
     <use xlink:href="#mafbfce1d4b" x="295.2" y="155.075067" style="fill-opacity: 0; stroke: #000000"/>
     <use xlink:href="#mafbfce1d4b" x="295.2" y="148.480167" style="fill-opacity: 0; stroke: #000000"/>
     <use xlink:href="#mafbfce1d4b" x="295.2" y="144.077815" style="fill-opacity: 0; stroke: #000000"/>
     <use xlink:href="#mafbfce1d4b" x="295.2" y="172.782465" style="fill-opacity: 0; stroke: #000000"/>
     <use xlink:href="#mafbfce1d4b" x="295.2" y="68.144655" style="fill-opacity: 0; stroke: #000000"/>
     <use xlink:href="#mafbfce1d4b" x="295.2" y="173.102918" style="fill-opacity: 0; stroke: #000000"/>
     <use xlink:href="#mafbfce1d4b" x="295.2" y="166.098409" style="fill-opacity: 0; stroke: #000000"/>
     <use xlink:href="#mafbfce1d4b" x="295.2" y="167.44132" style="fill-opacity: 0; stroke: #000000"/>
     <use xlink:href="#mafbfce1d4b" x="295.2" y="157.837147" style="fill-opacity: 0; stroke: #000000"/>
     <use xlink:href="#mafbfce1d4b" x="295.2" y="165.373998" style="fill-opacity: 0; stroke: #000000"/>
     <use xlink:href="#mafbfce1d4b" x="295.2" y="166.296169" style="fill-opacity: 0; stroke: #000000"/>
     <use xlink:href="#mafbfce1d4b" x="295.2" y="159.405219" style="fill-opacity: 0; stroke: #000000"/>
     <use xlink:href="#mafbfce1d4b" x="295.2" y="177.621423" style="fill-opacity: 0; stroke: #000000"/>
     <use xlink:href="#mafbfce1d4b" x="295.2" y="143.164647" style="fill-opacity: 0; stroke: #000000"/>
     <use xlink:href="#mafbfce1d4b" x="295.2" y="165.676093" style="fill-opacity: 0; stroke: #000000"/>
     <use xlink:href="#mafbfce1d4b" x="295.2" y="179.652149" style="fill-opacity: 0; stroke: #000000"/>
     <use xlink:href="#mafbfce1d4b" x="295.2" y="157.941351" style="fill-opacity: 0; stroke: #000000"/>
     <use xlink:href="#mafbfce1d4b" x="295.2" y="178.032385" style="fill-opacity: 0; stroke: #000000"/>
     <use xlink:href="#mafbfce1d4b" x="295.2" y="139.529143" style="fill-opacity: 0; stroke: #000000"/>
     <use xlink:href="#mafbfce1d4b" x="295.2" y="174.346106" style="fill-opacity: 0; stroke: #000000"/>
     <use xlink:href="#mafbfce1d4b" x="295.2" y="177.259501" style="fill-opacity: 0; stroke: #000000"/>
     <use xlink:href="#mafbfce1d4b" x="295.2" y="175.41731" style="fill-opacity: 0; stroke: #000000"/>
     <use xlink:href="#mafbfce1d4b" x="295.2" y="180.125078" style="fill-opacity: 0; stroke: #000000"/>
     <use xlink:href="#mafbfce1d4b" x="295.2" y="147.807551" style="fill-opacity: 0; stroke: #000000"/>
     <use xlink:href="#mafbfce1d4b" x="295.2" y="151.707617" style="fill-opacity: 0; stroke: #000000"/>
     <use xlink:href="#mafbfce1d4b" x="295.2" y="171.255549" style="fill-opacity: 0; stroke: #000000"/>
     <use xlink:href="#mafbfce1d4b" x="295.2" y="180.3351" style="fill-opacity: 0; stroke: #000000"/>
     <use xlink:href="#mafbfce1d4b" x="295.2" y="181.881998" style="fill-opacity: 0; stroke: #000000"/>
     <use xlink:href="#mafbfce1d4b" x="295.2" y="157.061922" style="fill-opacity: 0; stroke: #000000"/>
     <use xlink:href="#mafbfce1d4b" x="295.2" y="164.381969" style="fill-opacity: 0; stroke: #000000"/>
     <use xlink:href="#mafbfce1d4b" x="295.2" y="177.378137" style="fill-opacity: 0; stroke: #000000"/>
     <use xlink:href="#mafbfce1d4b" x="295.2" y="179.327246" style="fill-opacity: 0; stroke: #000000"/>
     <use xlink:href="#mafbfce1d4b" x="295.2" y="154.180691" style="fill-opacity: 0; stroke: #000000"/>
     <use xlink:href="#mafbfce1d4b" x="295.2" y="181.747598" style="fill-opacity: 0; stroke: #000000"/>
     <use xlink:href="#mafbfce1d4b" x="295.2" y="177.913012" style="fill-opacity: 0; stroke: #000000"/>
     <use xlink:href="#mafbfce1d4b" x="295.2" y="151.851171" style="fill-opacity: 0; stroke: #000000"/>
     <use xlink:href="#mafbfce1d4b" x="295.2" y="175.867198" style="fill-opacity: 0; stroke: #000000"/>
     <use xlink:href="#mafbfce1d4b" x="295.2" y="166.725932" style="fill-opacity: 0; stroke: #000000"/>
     <use xlink:href="#mafbfce1d4b" x="295.2" y="139.741517" style="fill-opacity: 0; stroke: #000000"/>
     <use xlink:href="#mafbfce1d4b" x="295.2" y="170.831741" style="fill-opacity: 0; stroke: #000000"/>
     <use xlink:href="#mafbfce1d4b" x="295.2" y="175.841694" style="fill-opacity: 0; stroke: #000000"/>
     <use xlink:href="#mafbfce1d4b" x="295.2" y="150.099064" style="fill-opacity: 0; stroke: #000000"/>
     <use xlink:href="#mafbfce1d4b" x="295.2" y="152.913786" style="fill-opacity: 0; stroke: #000000"/>
     <use xlink:href="#mafbfce1d4b" x="295.2" y="173.905755" style="fill-opacity: 0; stroke: #000000"/>
     <use xlink:href="#mafbfce1d4b" x="295.2" y="165.465133" style="fill-opacity: 0; stroke: #000000"/>
     <use xlink:href="#mafbfce1d4b" x="295.2" y="158.865984" style="fill-opacity: 0; stroke: #000000"/>
     <use xlink:href="#mafbfce1d4b" x="295.2" y="167.388314" style="fill-opacity: 0; stroke: #000000"/>
     <use xlink:href="#mafbfce1d4b" x="295.2" y="181.506249" style="fill-opacity: 0; stroke: #000000"/>
     <use xlink:href="#mafbfce1d4b" x="295.2" y="136.010135" style="fill-opacity: 0; stroke: #000000"/>
     <use xlink:href="#mafbfce1d4b" x="295.2" y="176.409229" style="fill-opacity: 0; stroke: #000000"/>
     <use xlink:href="#mafbfce1d4b" x="295.2" y="165.471178" style="fill-opacity: 0; stroke: #000000"/>
     <use xlink:href="#mafbfce1d4b" x="295.2" y="169.683643" style="fill-opacity: 0; stroke: #000000"/>
     <use xlink:href="#mafbfce1d4b" x="295.2" y="160.067067" style="fill-opacity: 0; stroke: #000000"/>
     <use xlink:href="#mafbfce1d4b" x="295.2" y="178.28969" style="fill-opacity: 0; stroke: #000000"/>
     <use xlink:href="#mafbfce1d4b" x="295.2" y="171.944646" style="fill-opacity: 0; stroke: #000000"/>
     <use xlink:href="#mafbfce1d4b" x="295.2" y="168.435499" style="fill-opacity: 0; stroke: #000000"/>
     <use xlink:href="#mafbfce1d4b" x="295.2" y="160.766175" style="fill-opacity: 0; stroke: #000000"/>
     <use xlink:href="#mafbfce1d4b" x="295.2" y="169.55554" style="fill-opacity: 0; stroke: #000000"/>
     <use xlink:href="#mafbfce1d4b" x="295.2" y="160.793919" style="fill-opacity: 0; stroke: #000000"/>
     <use xlink:href="#mafbfce1d4b" x="295.2" y="176.34278" style="fill-opacity: 0; stroke: #000000"/>
     <use xlink:href="#mafbfce1d4b" x="295.2" y="146.458696" style="fill-opacity: 0; stroke: #000000"/>
     <use xlink:href="#mafbfce1d4b" x="295.2" y="176.011428" style="fill-opacity: 0; stroke: #000000"/>
     <use xlink:href="#mafbfce1d4b" x="295.2" y="165.264375" style="fill-opacity: 0; stroke: #000000"/>
     <use xlink:href="#mafbfce1d4b" x="295.2" y="176.526865" style="fill-opacity: 0; stroke: #000000"/>
     <use xlink:href="#mafbfce1d4b" x="295.2" y="172.882874" style="fill-opacity: 0; stroke: #000000"/>
     <use xlink:href="#mafbfce1d4b" x="295.2" y="150.683796" style="fill-opacity: 0; stroke: #000000"/>
     <use xlink:href="#mafbfce1d4b" x="295.2" y="164.257994" style="fill-opacity: 0; stroke: #000000"/>
     <use xlink:href="#mafbfce1d4b" x="295.2" y="151.223728" style="fill-opacity: 0; stroke: #000000"/>
     <use xlink:href="#mafbfce1d4b" x="295.2" y="178.579744" style="fill-opacity: 0; stroke: #000000"/>
     <use xlink:href="#mafbfce1d4b" x="295.2" y="177.016254" style="fill-opacity: 0; stroke: #000000"/>
     <use xlink:href="#mafbfce1d4b" x="295.2" y="181.936769" style="fill-opacity: 0; stroke: #000000"/>
     <use xlink:href="#mafbfce1d4b" x="295.2" y="181.497469" style="fill-opacity: 0; stroke: #000000"/>
     <use xlink:href="#mafbfce1d4b" x="295.2" y="182.360629" style="fill-opacity: 0; stroke: #000000"/>
     <use xlink:href="#mafbfce1d4b" x="295.2" y="129.256593" style="fill-opacity: 0; stroke: #000000"/>
     <use xlink:href="#mafbfce1d4b" x="295.2" y="179.302893" style="fill-opacity: 0; stroke: #000000"/>
     <use xlink:href="#mafbfce1d4b" x="295.2" y="178.383448" style="fill-opacity: 0; stroke: #000000"/>
     <use xlink:href="#mafbfce1d4b" x="295.2" y="171.08522" style="fill-opacity: 0; stroke: #000000"/>
     <use xlink:href="#mafbfce1d4b" x="295.2" y="164.317065" style="fill-opacity: 0; stroke: #000000"/>
     <use xlink:href="#mafbfce1d4b" x="295.2" y="106.359396" style="fill-opacity: 0; stroke: #000000"/>
     <use xlink:href="#mafbfce1d4b" x="295.2" y="169.761788" style="fill-opacity: 0; stroke: #000000"/>
     <use xlink:href="#mafbfce1d4b" x="295.2" y="155.442329" style="fill-opacity: 0; stroke: #000000"/>
     <use xlink:href="#mafbfce1d4b" x="295.2" y="164.283185" style="fill-opacity: 0; stroke: #000000"/>
     <use xlink:href="#mafbfce1d4b" x="295.2" y="169.726596" style="fill-opacity: 0; stroke: #000000"/>
     <use xlink:href="#mafbfce1d4b" x="295.2" y="173.573979" style="fill-opacity: 0; stroke: #000000"/>
    </g>
   </g>
   <g id="line2d_14">
    <path d="M 250.56 305.183735 
L 339.84 305.183735 
" clip-path="url(#p44153cd2ed)" style="fill: none; stroke: #ff7f0e"/>
   </g>
   <g id="patch_4">
    <path d="M 72 384.48 
L 72 51.84 
" style="fill: none; stroke: #000000; stroke-width: 0.8; stroke-linejoin: miter; stroke-linecap: square"/>
   </g>
   <g id="patch_5">
    <path d="M 518.4 384.48 
L 518.4 51.84 
" style="fill: none; stroke: #000000; stroke-width: 0.8; stroke-linejoin: miter; stroke-linecap: square"/>
   </g>
   <g id="patch_6">
    <path d="M 72 384.48 
L 518.4 384.48 
" style="fill: none; stroke: #000000; stroke-width: 0.8; stroke-linejoin: miter; stroke-linecap: square"/>
   </g>
   <g id="patch_7">
    <path d="M 72 51.84 
L 518.4 51.84 
" style="fill: none; stroke: #000000; stroke-width: 0.8; stroke-linejoin: miter; stroke-linecap: square"/>
   </g>
   <g id="text_10">
    <!-- Handle Result -->
    <g transform="translate(253.595625 45.84) scale(0.12 -0.12)">
     <defs>
      <path id="DejaVuSans-48" d="M 628 4666 
L 1259 4666 
L 1259 2753 
L 3553 2753 
L 3553 4666 
L 4184 4666 
L 4184 0 
L 3553 0 
L 3553 2222 
L 1259 2222 
L 1259 0 
L 628 0 
L 628 4666 
z
" transform="scale(0.015625)"/>
      <path id="DejaVuSans-61" d="M 2194 1759 
Q 1497 1759 1228 1600 
Q 959 1441 959 1056 
Q 959 750 1161 570 
Q 1363 391 1709 391 
Q 2188 391 2477 730 
Q 2766 1069 2766 1631 
L 2766 1759 
L 2194 1759 
z
M 3341 1997 
L 3341 0 
L 2766 0 
L 2766 531 
Q 2569 213 2275 61 
Q 1981 -91 1556 -91 
Q 1019 -91 701 211 
Q 384 513 384 1019 
Q 384 1609 779 1909 
Q 1175 2209 1959 2209 
L 2766 2209 
L 2766 2266 
Q 2766 2663 2505 2880 
Q 2244 3097 1772 3097 
Q 1472 3097 1187 3025 
Q 903 2953 641 2809 
L 641 3341 
Q 956 3463 1253 3523 
Q 1550 3584 1831 3584 
Q 2591 3584 2966 3190 
Q 3341 2797 3341 1997 
z
" transform="scale(0.015625)"/>
      <path id="DejaVuSans-6e" d="M 3513 2113 
L 3513 0 
L 2938 0 
L 2938 2094 
Q 2938 2591 2744 2837 
Q 2550 3084 2163 3084 
Q 1697 3084 1428 2787 
Q 1159 2491 1159 1978 
L 1159 0 
L 581 0 
L 581 3500 
L 1159 3500 
L 1159 2956 
Q 1366 3272 1645 3428 
Q 1925 3584 2291 3584 
Q 2894 3584 3203 3211 
Q 3513 2838 3513 2113 
z
" transform="scale(0.015625)"/>
      <path id="DejaVuSans-64" d="M 2906 2969 
L 2906 4863 
L 3481 4863 
L 3481 0 
L 2906 0 
L 2906 525 
Q 2725 213 2448 61 
Q 2172 -91 1784 -91 
Q 1150 -91 751 415 
Q 353 922 353 1747 
Q 353 2572 751 3078 
Q 1150 3584 1784 3584 
Q 2172 3584 2448 3432 
Q 2725 3281 2906 2969 
z
M 947 1747 
Q 947 1113 1208 752 
Q 1469 391 1925 391 
Q 2381 391 2643 752 
Q 2906 1113 2906 1747 
Q 2906 2381 2643 2742 
Q 2381 3103 1925 3103 
Q 1469 3103 1208 2742 
Q 947 2381 947 1747 
z
" transform="scale(0.015625)"/>
      <path id="DejaVuSans-6c" d="M 603 4863 
L 1178 4863 
L 1178 0 
L 603 0 
L 603 4863 
z
" transform="scale(0.015625)"/>
      <path id="DejaVuSans-52" d="M 2841 2188 
Q 3044 2119 3236 1894 
Q 3428 1669 3622 1275 
L 4263 0 
L 3584 0 
L 2988 1197 
Q 2756 1666 2539 1819 
Q 2322 1972 1947 1972 
L 1259 1972 
L 1259 0 
L 628 0 
L 628 4666 
L 2053 4666 
Q 2853 4666 3247 4331 
Q 3641 3997 3641 3322 
Q 3641 2881 3436 2590 
Q 3231 2300 2841 2188 
z
M 1259 4147 
L 1259 2491 
L 2053 2491 
Q 2509 2491 2742 2702 
Q 2975 2913 2975 3322 
Q 2975 3731 2742 3939 
Q 2509 4147 2053 4147 
L 1259 4147 
z
" transform="scale(0.015625)"/>
      <path id="DejaVuSans-75" d="M 544 1381 
L 544 3500 
L 1119 3500 
L 1119 1403 
Q 1119 906 1312 657 
Q 1506 409 1894 409 
Q 2359 409 2629 706 
Q 2900 1003 2900 1516 
L 2900 3500 
L 3475 3500 
L 3475 0 
L 2900 0 
L 2900 538 
Q 2691 219 2414 64 
Q 2138 -91 1772 -91 
Q 1169 -91 856 284 
Q 544 659 544 1381 
z
M 1991 3584 
L 1991 3584 
z
" transform="scale(0.015625)"/>
      <path id="DejaVuSans-74" d="M 1172 4494 
L 1172 3500 
L 2356 3500 
L 2356 3053 
L 1172 3053 
L 1172 1153 
Q 1172 725 1289 603 
Q 1406 481 1766 481 
L 2356 481 
L 2356 0 
L 1766 0 
Q 1100 0 847 248 
Q 594 497 594 1153 
L 594 3053 
L 172 3053 
L 172 3500 
L 594 3500 
L 594 4494 
L 1172 4494 
z
" transform="scale(0.015625)"/>
     </defs>
     <use xlink:href="#DejaVuSans-48"/>
     <use xlink:href="#DejaVuSans-61" transform="translate(75.195312 0)"/>
     <use xlink:href="#DejaVuSans-6e" transform="translate(136.474609 0)"/>
     <use xlink:href="#DejaVuSans-64" transform="translate(199.853516 0)"/>
     <use xlink:href="#DejaVuSans-6c" transform="translate(263.330078 0)"/>
     <use xlink:href="#DejaVuSans-65" transform="translate(291.113281 0)"/>
     <use xlink:href="#DejaVuSans-20" transform="translate(352.636719 0)"/>
     <use xlink:href="#DejaVuSans-52" transform="translate(384.423828 0)"/>
     <use xlink:href="#DejaVuSans-65" transform="translate(449.40625 0)"/>
     <use xlink:href="#DejaVuSans-73" transform="translate(510.929688 0)"/>
     <use xlink:href="#DejaVuSans-75" transform="translate(563.029297 0)"/>
     <use xlink:href="#DejaVuSans-6c" transform="translate(626.408203 0)"/>
     <use xlink:href="#DejaVuSans-74" transform="translate(654.191406 0)"/>
    </g>
   </g>
  </g>
 </g>
 <defs>
  <clipPath id="p44153cd2ed">
   <rect x="72" y="51.84" width="446.4" height="332.64"/>
  </clipPath>
 </defs>
</svg>
