<?xml version="1.0" encoding="utf-8" standalone="no"?>
<!DOCTYPE svg PUBLIC "-//W3C//DTD SVG 1.1//EN"
  "http://www.w3.org/Graphics/SVG/1.1/DTD/svg11.dtd">
<svg xmlns:xlink="http://www.w3.org/1999/xlink" width="720pt" height="432pt" viewBox="0 0 720 432" xmlns="http://www.w3.org/2000/svg" version="1.1">
 <metadata>
  <rdf:RDF xmlns:dc="http://purl.org/dc/elements/1.1/" xmlns:cc="http://creativecommons.org/ns#" xmlns:rdf="http://www.w3.org/1999/02/22-rdf-syntax-ns#">
   <cc:Work>
    <dc:type rdf:resource="http://purl.org/dc/dcmitype/StillImage"/>
    <dc:date>2025-09-30T20:43:24.007326</dc:date>
    <dc:format>image/svg+xml</dc:format>
    <dc:creator>
     <cc:Agent>
      <dc:title>Matplotlib v3.10.3, https://matplotlib.org/</dc:title>
     </cc:Agent>
    </dc:creator>
   </cc:Work>
  </rdf:RDF>
 </metadata>
 <defs>
  <style type="text/css">*{stroke-linejoin: round; stroke-linecap: butt}</style>
 </defs>
 <g id="figure_1">
  <g id="patch_1">
   <path d="M 0 432 
L 720 432 
L 720 0 
L 0 0 
z
" style="fill: #ffffff"/>
  </g>
  <g id="axes_1">
   <g id="patch_2">
    <path d="M 90 384.48 
L 648 384.48 
L 648 51.84 
L 90 51.84 
z
" style="fill: #ffffff"/>
   </g>
   <g id="matplotlib.axis_1">
    <g id="xtick_1">
     <g id="line2d_1">
      <defs>
       <path id="mb8e2e909d1" d="M 0 0 
L 0 3.5 
" style="stroke: #000000; stroke-width: 0.8"/>
      </defs>
      <g>
       <use xlink:href="#mb8e2e909d1" x="115.363636" y="384.48" style="stroke: #000000; stroke-width: 0.8"/>
      </g>
     </g>
     <g id="text_1">
      <!-- 0 -->
      <g transform="translate(112.182386 399.078438) scale(0.1 -0.1)">
       <defs>
        <path id="DejaVuSans-30" d="M 2034 4250 
Q 1547 4250 1301 3770 
Q 1056 3291 1056 2328 
Q 1056 1369 1301 889 
Q 1547 409 2034 409 
Q 2525 409 2770 889 
Q 3016 1369 3016 2328 
Q 3016 3291 2770 3770 
Q 2525 4250 2034 4250 
z
M 2034 4750 
Q 2819 4750 3233 4129 
Q 3647 3509 3647 2328 
Q 3647 1150 3233 529 
Q 2819 -91 2034 -91 
Q 1250 -91 836 529 
Q 422 1150 422 2328 
Q 422 3509 836 4129 
Q 1250 4750 2034 4750 
z
" transform="scale(0.015625)"/>
       </defs>
       <use xlink:href="#DejaVuSans-30"/>
      </g>
     </g>
    </g>
    <g id="xtick_2">
     <g id="line2d_2">
      <g>
       <use xlink:href="#mb8e2e909d1" x="219.312966" y="384.48" style="stroke: #000000; stroke-width: 0.8"/>
      </g>
     </g>
     <g id="text_2">
      <!-- 500 -->
      <g transform="translate(209.769216 399.078438) scale(0.1 -0.1)">
       <defs>
        <path id="DejaVuSans-35" d="M 691 4666 
L 3169 4666 
L 3169 4134 
L 1269 4134 
L 1269 2991 
Q 1406 3038 1543 3061 
Q 1681 3084 1819 3084 
Q 2600 3084 3056 2656 
Q 3513 2228 3513 1497 
Q 3513 744 3044 326 
Q 2575 -91 1722 -91 
Q 1428 -91 1123 -41 
Q 819 9 494 109 
L 494 744 
Q 775 591 1075 516 
Q 1375 441 1709 441 
Q 2250 441 2565 725 
Q 2881 1009 2881 1497 
Q 2881 1984 2565 2268 
Q 2250 2553 1709 2553 
Q 1456 2553 1204 2497 
Q 953 2441 691 2322 
L 691 4666 
z
" transform="scale(0.015625)"/>
       </defs>
       <use xlink:href="#DejaVuSans-35"/>
       <use xlink:href="#DejaVuSans-30" transform="translate(63.623047 0)"/>
       <use xlink:href="#DejaVuSans-30" transform="translate(127.246094 0)"/>
      </g>
     </g>
    </g>
    <g id="xtick_3">
     <g id="line2d_3">
      <g>
       <use xlink:href="#mb8e2e909d1" x="323.262295" y="384.48" style="stroke: #000000; stroke-width: 0.8"/>
      </g>
     </g>
     <g id="text_3">
      <!-- 1000 -->
      <g transform="translate(310.537295 399.078438) scale(0.1 -0.1)">
       <defs>
        <path id="DejaVuSans-31" d="M 794 531 
L 1825 531 
L 1825 4091 
L 703 3866 
L 703 4441 
L 1819 4666 
L 2450 4666 
L 2450 531 
L 3481 531 
L 3481 0 
L 794 0 
L 794 531 
z
" transform="scale(0.015625)"/>
       </defs>
       <use xlink:href="#DejaVuSans-31"/>
       <use xlink:href="#DejaVuSans-30" transform="translate(63.623047 0)"/>
       <use xlink:href="#DejaVuSans-30" transform="translate(127.246094 0)"/>
       <use xlink:href="#DejaVuSans-30" transform="translate(190.869141 0)"/>
      </g>
     </g>
    </g>
    <g id="xtick_4">
     <g id="line2d_4">
      <g>
       <use xlink:href="#mb8e2e909d1" x="427.211624" y="384.48" style="stroke: #000000; stroke-width: 0.8"/>
      </g>
     </g>
     <g id="text_4">
      <!-- 1500 -->
      <g transform="translate(414.486624 399.078438) scale(0.1 -0.1)">
       <use xlink:href="#DejaVuSans-31"/>
       <use xlink:href="#DejaVuSans-35" transform="translate(63.623047 0)"/>
       <use xlink:href="#DejaVuSans-30" transform="translate(127.246094 0)"/>
       <use xlink:href="#DejaVuSans-30" transform="translate(190.869141 0)"/>
      </g>
     </g>
    </g>
    <g id="xtick_5">
     <g id="line2d_5">
      <g>
       <use xlink:href="#mb8e2e909d1" x="531.160954" y="384.48" style="stroke: #000000; stroke-width: 0.8"/>
      </g>
     </g>
     <g id="text_5">
      <!-- 2000 -->
      <g transform="translate(518.435954 399.078438) scale(0.1 -0.1)">
       <defs>
        <path id="DejaVuSans-32" d="M 1228 531 
L 3431 531 
L 3431 0 
L 469 0 
L 469 531 
Q 828 903 1448 1529 
Q 2069 2156 2228 2338 
Q 2531 2678 2651 2914 
Q 2772 3150 2772 3378 
Q 2772 3750 2511 3984 
Q 2250 4219 1831 4219 
Q 1534 4219 1204 4116 
Q 875 4013 500 3803 
L 500 4441 
Q 881 4594 1212 4672 
Q 1544 4750 1819 4750 
Q 2544 4750 2975 4387 
Q 3406 4025 3406 3419 
Q 3406 3131 3298 2873 
Q 3191 2616 2906 2266 
Q 2828 2175 2409 1742 
Q 1991 1309 1228 531 
z
" transform="scale(0.015625)"/>
       </defs>
       <use xlink:href="#DejaVuSans-32"/>
       <use xlink:href="#DejaVuSans-30" transform="translate(63.623047 0)"/>
       <use xlink:href="#DejaVuSans-30" transform="translate(127.246094 0)"/>
       <use xlink:href="#DejaVuSans-30" transform="translate(190.869141 0)"/>
      </g>
     </g>
    </g>
    <g id="xtick_6">
     <g id="line2d_6">
      <g>
       <use xlink:href="#mb8e2e909d1" x="635.110283" y="384.48" style="stroke: #000000; stroke-width: 0.8"/>
      </g>
     </g>
     <g id="text_6">
      <!-- 2500 -->
      <g transform="translate(622.385283 399.078438) scale(0.1 -0.1)">
       <use xlink:href="#DejaVuSans-32"/>
       <use xlink:href="#DejaVuSans-35" transform="translate(63.623047 0)"/>
       <use xlink:href="#DejaVuSans-30" transform="translate(127.246094 0)"/>
       <use xlink:href="#DejaVuSans-30" transform="translate(190.869141 0)"/>
      </g>
     </g>
    </g>
    <g id="text_7">
     <!-- Index -->
     <g transform="translate(355.233594 412.756563) scale(0.1 -0.1)">
      <defs>
       <path id="DejaVuSans-49" d="M 628 4666 
L 1259 4666 
L 1259 0 
L 628 0 
L 628 4666 
z
" transform="scale(0.015625)"/>
       <path id="DejaVuSans-6e" d="M 3513 2113 
L 3513 0 
L 2938 0 
L 2938 2094 
Q 2938 2591 2744 2837 
Q 2550 3084 2163 3084 
Q 1697 3084 1428 2787 
Q 1159 2491 1159 1978 
L 1159 0 
L 581 0 
L 581 3500 
L 1159 3500 
L 1159 2956 
Q 1366 3272 1645 3428 
Q 1925 3584 2291 3584 
Q 2894 3584 3203 3211 
Q 3513 2838 3513 2113 
z
" transform="scale(0.015625)"/>
       <path id="DejaVuSans-64" d="M 2906 2969 
L 2906 4863 
L 3481 4863 
L 3481 0 
L 2906 0 
L 2906 525 
Q 2725 213 2448 61 
Q 2172 -91 1784 -91 
Q 1150 -91 751 415 
Q 353 922 353 1747 
Q 353 2572 751 3078 
Q 1150 3584 1784 3584 
Q 2172 3584 2448 3432 
Q 2725 3281 2906 2969 
z
M 947 1747 
Q 947 1113 1208 752 
Q 1469 391 1925 391 
Q 2381 391 2643 752 
Q 2906 1113 2906 1747 
Q 2906 2381 2643 2742 
Q 2381 3103 1925 3103 
Q 1469 3103 1208 2742 
Q 947 2381 947 1747 
z
" transform="scale(0.015625)"/>
       <path id="DejaVuSans-65" d="M 3597 1894 
L 3597 1613 
L 953 1613 
Q 991 1019 1311 708 
Q 1631 397 2203 397 
Q 2534 397 2845 478 
Q 3156 559 3463 722 
L 3463 178 
Q 3153 47 2828 -22 
Q 2503 -91 2169 -91 
Q 1331 -91 842 396 
Q 353 884 353 1716 
Q 353 2575 817 3079 
Q 1281 3584 2069 3584 
Q 2775 3584 3186 3129 
Q 3597 2675 3597 1894 
z
M 3022 2063 
Q 3016 2534 2758 2815 
Q 2500 3097 2075 3097 
Q 1594 3097 1305 2825 
Q 1016 2553 972 2059 
L 3022 2063 
z
" transform="scale(0.015625)"/>
       <path id="DejaVuSans-78" d="M 3513 3500 
L 2247 1797 
L 3578 0 
L 2900 0 
L 1881 1375 
L 863 0 
L 184 0 
L 1544 1831 
L 300 3500 
L 978 3500 
L 1906 2253 
L 2834 3500 
L 3513 3500 
z
" transform="scale(0.015625)"/>
      </defs>
      <use xlink:href="#DejaVuSans-49"/>
      <use xlink:href="#DejaVuSans-6e" transform="translate(29.492188 0)"/>
      <use xlink:href="#DejaVuSans-64" transform="translate(92.871094 0)"/>
      <use xlink:href="#DejaVuSans-65" transform="translate(156.347656 0)"/>
      <use xlink:href="#DejaVuSans-78" transform="translate(216.121094 0)"/>
     </g>
    </g>
   </g>
   <g id="matplotlib.axis_2">
    <g id="ytick_1">
     <g id="line2d_7">
      <defs>
       <path id="m4de15fd0dc" d="M 0 0 
L -3.5 0 
" style="stroke: #000000; stroke-width: 0.8"/>
      </defs>
      <g>
       <use xlink:href="#m4de15fd0dc" x="90" y="384.48" style="stroke: #000000; stroke-width: 0.8"/>
      </g>
     </g>
     <g id="text_8">
      <!-- 0 -->
      <g transform="translate(76.6375 388.279219) scale(0.1 -0.1)">
       <use xlink:href="#DejaVuSans-30"/>
      </g>
     </g>
    </g>
    <g id="ytick_2">
     <g id="line2d_8">
      <g>
       <use xlink:href="#m4de15fd0dc" x="90" y="321.88902" style="stroke: #000000; stroke-width: 0.8"/>
      </g>
     </g>
     <g id="text_9">
      <!-- 10000 -->
      <g transform="translate(51.1875 325.688239) scale(0.1 -0.1)">
       <use xlink:href="#DejaVuSans-31"/>
       <use xlink:href="#DejaVuSans-30" transform="translate(63.623047 0)"/>
       <use xlink:href="#DejaVuSans-30" transform="translate(127.246094 0)"/>
       <use xlink:href="#DejaVuSans-30" transform="translate(190.869141 0)"/>
       <use xlink:href="#DejaVuSans-30" transform="translate(254.492188 0)"/>
      </g>
     </g>
    </g>
    <g id="ytick_3">
     <g id="line2d_9">
      <g>
       <use xlink:href="#m4de15fd0dc" x="90" y="259.298041" style="stroke: #000000; stroke-width: 0.8"/>
      </g>
     </g>
     <g id="text_10">
      <!-- 20000 -->
      <g transform="translate(51.1875 263.097259) scale(0.1 -0.1)">
       <use xlink:href="#DejaVuSans-32"/>
       <use xlink:href="#DejaVuSans-30" transform="translate(63.623047 0)"/>
       <use xlink:href="#DejaVuSans-30" transform="translate(127.246094 0)"/>
       <use xlink:href="#DejaVuSans-30" transform="translate(190.869141 0)"/>
       <use xlink:href="#DejaVuSans-30" transform="translate(254.492188 0)"/>
      </g>
     </g>
    </g>
    <g id="ytick_4">
     <g id="line2d_10">
      <g>
       <use xlink:href="#m4de15fd0dc" x="90" y="196.707061" style="stroke: #000000; stroke-width: 0.8"/>
      </g>
     </g>
     <g id="text_11">
      <!-- 30000 -->
      <g transform="translate(51.1875 200.50628) scale(0.1 -0.1)">
       <defs>
        <path id="DejaVuSans-33" d="M 2597 2516 
Q 3050 2419 3304 2112 
Q 3559 1806 3559 1356 
Q 3559 666 3084 287 
Q 2609 -91 1734 -91 
Q 1441 -91 1130 -33 
Q 819 25 488 141 
L 488 750 
Q 750 597 1062 519 
Q 1375 441 1716 441 
Q 2309 441 2620 675 
Q 2931 909 2931 1356 
Q 2931 1769 2642 2001 
Q 2353 2234 1838 2234 
L 1294 2234 
L 1294 2753 
L 1863 2753 
Q 2328 2753 2575 2939 
Q 2822 3125 2822 3475 
Q 2822 3834 2567 4026 
Q 2313 4219 1838 4219 
Q 1578 4219 1281 4162 
Q 984 4106 628 3988 
L 628 4550 
Q 988 4650 1302 4700 
Q 1616 4750 1894 4750 
Q 2613 4750 3031 4423 
Q 3450 4097 3450 3541 
Q 3450 3153 3228 2886 
Q 3006 2619 2597 2516 
z
" transform="scale(0.015625)"/>
       </defs>
       <use xlink:href="#DejaVuSans-33"/>
       <use xlink:href="#DejaVuSans-30" transform="translate(63.623047 0)"/>
       <use xlink:href="#DejaVuSans-30" transform="translate(127.246094 0)"/>
       <use xlink:href="#DejaVuSans-30" transform="translate(190.869141 0)"/>
       <use xlink:href="#DejaVuSans-30" transform="translate(254.492188 0)"/>
      </g>
     </g>
    </g>
    <g id="ytick_5">
     <g id="line2d_11">
      <g>
       <use xlink:href="#m4de15fd0dc" x="90" y="134.116081" style="stroke: #000000; stroke-width: 0.8"/>
      </g>
     </g>
     <g id="text_12">
      <!-- 40000 -->
      <g transform="translate(51.1875 137.9153) scale(0.1 -0.1)">
       <defs>
        <path id="DejaVuSans-34" d="M 2419 4116 
L 825 1625 
L 2419 1625 
L 2419 4116 
z
M 2253 4666 
L 3047 4666 
L 3047 1625 
L 3713 1625 
L 3713 1100 
L 3047 1100 
L 3047 0 
L 2419 0 
L 2419 1100 
L 313 1100 
L 313 1709 
L 2253 4666 
z
" transform="scale(0.015625)"/>
       </defs>
       <use xlink:href="#DejaVuSans-34"/>
       <use xlink:href="#DejaVuSans-30" transform="translate(63.623047 0)"/>
       <use xlink:href="#DejaVuSans-30" transform="translate(127.246094 0)"/>
       <use xlink:href="#DejaVuSans-30" transform="translate(190.869141 0)"/>
       <use xlink:href="#DejaVuSans-30" transform="translate(254.492188 0)"/>
      </g>
     </g>
    </g>
    <g id="ytick_6">
     <g id="line2d_12">
      <g>
       <use xlink:href="#m4de15fd0dc" x="90" y="71.525101" style="stroke: #000000; stroke-width: 0.8"/>
      </g>
     </g>
     <g id="text_13">
      <!-- 50000 -->
      <g transform="translate(51.1875 75.32432) scale(0.1 -0.1)">
       <use xlink:href="#DejaVuSans-35"/>
       <use xlink:href="#DejaVuSans-30" transform="translate(63.623047 0)"/>
       <use xlink:href="#DejaVuSans-30" transform="translate(127.246094 0)"/>
       <use xlink:href="#DejaVuSans-30" transform="translate(190.869141 0)"/>
       <use xlink:href="#DejaVuSans-30" transform="translate(254.492188 0)"/>
      </g>
     </g>
    </g>
    <g id="text_14">
     <!-- Average time (ms) -->
     <g transform="translate(45.107812 264.543594) rotate(-90) scale(0.1 -0.1)">
      <defs>
       <path id="DejaVuSans-41" d="M 2188 4044 
L 1331 1722 
L 3047 1722 
L 2188 4044 
z
M 1831 4666 
L 2547 4666 
L 4325 0 
L 3669 0 
L 3244 1197 
L 1141 1197 
L 716 0 
L 50 0 
L 1831 4666 
z
" transform="scale(0.015625)"/>
       <path id="DejaVuSans-76" d="M 191 3500 
L 800 3500 
L 1894 563 
L 2988 3500 
L 3597 3500 
L 2284 0 
L 1503 0 
L 191 3500 
z
" transform="scale(0.015625)"/>
       <path id="DejaVuSans-72" d="M 2631 2963 
Q 2534 3019 2420 3045 
Q 2306 3072 2169 3072 
Q 1681 3072 1420 2755 
Q 1159 2438 1159 1844 
L 1159 0 
L 581 0 
L 581 3500 
L 1159 3500 
L 1159 2956 
Q 1341 3275 1631 3429 
Q 1922 3584 2338 3584 
Q 2397 3584 2469 3576 
Q 2541 3569 2628 3553 
L 2631 2963 
z
" transform="scale(0.015625)"/>
       <path id="DejaVuSans-61" d="M 2194 1759 
Q 1497 1759 1228 1600 
Q 959 1441 959 1056 
Q 959 750 1161 570 
Q 1363 391 1709 391 
Q 2188 391 2477 730 
Q 2766 1069 2766 1631 
L 2766 1759 
L 2194 1759 
z
M 3341 1997 
L 3341 0 
L 2766 0 
L 2766 531 
Q 2569 213 2275 61 
Q 1981 -91 1556 -91 
Q 1019 -91 701 211 
Q 384 513 384 1019 
Q 384 1609 779 1909 
Q 1175 2209 1959 2209 
L 2766 2209 
L 2766 2266 
Q 2766 2663 2505 2880 
Q 2244 3097 1772 3097 
Q 1472 3097 1187 3025 
Q 903 2953 641 2809 
L 641 3341 
Q 956 3463 1253 3523 
Q 1550 3584 1831 3584 
Q 2591 3584 2966 3190 
Q 3341 2797 3341 1997 
z
" transform="scale(0.015625)"/>
       <path id="DejaVuSans-67" d="M 2906 1791 
Q 2906 2416 2648 2759 
Q 2391 3103 1925 3103 
Q 1463 3103 1205 2759 
Q 947 2416 947 1791 
Q 947 1169 1205 825 
Q 1463 481 1925 481 
Q 2391 481 2648 825 
Q 2906 1169 2906 1791 
z
M 3481 434 
Q 3481 -459 3084 -895 
Q 2688 -1331 1869 -1331 
Q 1566 -1331 1297 -1286 
Q 1028 -1241 775 -1147 
L 775 -588 
Q 1028 -725 1275 -790 
Q 1522 -856 1778 -856 
Q 2344 -856 2625 -561 
Q 2906 -266 2906 331 
L 2906 616 
Q 2728 306 2450 153 
Q 2172 0 1784 0 
Q 1141 0 747 490 
Q 353 981 353 1791 
Q 353 2603 747 3093 
Q 1141 3584 1784 3584 
Q 2172 3584 2450 3431 
Q 2728 3278 2906 2969 
L 2906 3500 
L 3481 3500 
L 3481 434 
z
" transform="scale(0.015625)"/>
       <path id="DejaVuSans-20" transform="scale(0.015625)"/>
       <path id="DejaVuSans-74" d="M 1172 4494 
L 1172 3500 
L 2356 3500 
L 2356 3053 
L 1172 3053 
L 1172 1153 
Q 1172 725 1289 603 
Q 1406 481 1766 481 
L 2356 481 
L 2356 0 
L 1766 0 
Q 1100 0 847 248 
Q 594 497 594 1153 
L 594 3053 
L 172 3053 
L 172 3500 
L 594 3500 
L 594 4494 
L 1172 4494 
z
" transform="scale(0.015625)"/>
       <path id="DejaVuSans-69" d="M 603 3500 
L 1178 3500 
L 1178 0 
L 603 0 
L 603 3500 
z
M 603 4863 
L 1178 4863 
L 1178 4134 
L 603 4134 
L 603 4863 
z
" transform="scale(0.015625)"/>
       <path id="DejaVuSans-6d" d="M 3328 2828 
Q 3544 3216 3844 3400 
Q 4144 3584 4550 3584 
Q 5097 3584 5394 3201 
Q 5691 2819 5691 2113 
L 5691 0 
L 5113 0 
L 5113 2094 
Q 5113 2597 4934 2840 
Q 4756 3084 4391 3084 
Q 3944 3084 3684 2787 
Q 3425 2491 3425 1978 
L 3425 0 
L 2847 0 
L 2847 2094 
Q 2847 2600 2669 2842 
Q 2491 3084 2119 3084 
Q 1678 3084 1418 2786 
Q 1159 2488 1159 1978 
L 1159 0 
L 581 0 
L 581 3500 
L 1159 3500 
L 1159 2956 
Q 1356 3278 1631 3431 
Q 1906 3584 2284 3584 
Q 2666 3584 2933 3390 
Q 3200 3197 3328 2828 
z
" transform="scale(0.015625)"/>
       <path id="DejaVuSans-28" d="M 1984 4856 
Q 1566 4138 1362 3434 
Q 1159 2731 1159 2009 
Q 1159 1288 1364 580 
Q 1569 -128 1984 -844 
L 1484 -844 
Q 1016 -109 783 600 
Q 550 1309 550 2009 
Q 550 2706 781 3412 
Q 1013 4119 1484 4856 
L 1984 4856 
z
" transform="scale(0.015625)"/>
       <path id="DejaVuSans-73" d="M 2834 3397 
L 2834 2853 
Q 2591 2978 2328 3040 
Q 2066 3103 1784 3103 
Q 1356 3103 1142 2972 
Q 928 2841 928 2578 
Q 928 2378 1081 2264 
Q 1234 2150 1697 2047 
L 1894 2003 
Q 2506 1872 2764 1633 
Q 3022 1394 3022 966 
Q 3022 478 2636 193 
Q 2250 -91 1575 -91 
Q 1294 -91 989 -36 
Q 684 19 347 128 
L 347 722 
Q 666 556 975 473 
Q 1284 391 1588 391 
Q 1994 391 2212 530 
Q 2431 669 2431 922 
Q 2431 1156 2273 1281 
Q 2116 1406 1581 1522 
L 1381 1569 
Q 847 1681 609 1914 
Q 372 2147 372 2553 
Q 372 3047 722 3315 
Q 1072 3584 1716 3584 
Q 2034 3584 2315 3537 
Q 2597 3491 2834 3397 
z
" transform="scale(0.015625)"/>
       <path id="DejaVuSans-29" d="M 513 4856 
L 1013 4856 
Q 1481 4119 1714 3412 
Q 1947 2706 1947 2009 
Q 1947 1309 1714 600 
Q 1481 -109 1013 -844 
L 513 -844 
Q 928 -128 1133 580 
Q 1338 1288 1338 2009 
Q 1338 2731 1133 3434 
Q 928 4138 513 4856 
z
" transform="scale(0.015625)"/>
      </defs>
      <use xlink:href="#DejaVuSans-41"/>
      <use xlink:href="#DejaVuSans-76" transform="translate(62.533203 0)"/>
      <use xlink:href="#DejaVuSans-65" transform="translate(121.712891 0)"/>
      <use xlink:href="#DejaVuSans-72" transform="translate(183.236328 0)"/>
      <use xlink:href="#DejaVuSans-61" transform="translate(224.349609 0)"/>
      <use xlink:href="#DejaVuSans-67" transform="translate(285.628906 0)"/>
      <use xlink:href="#DejaVuSans-65" transform="translate(349.105469 0)"/>
      <use xlink:href="#DejaVuSans-20" transform="translate(410.628906 0)"/>
      <use xlink:href="#DejaVuSans-74" transform="translate(442.416016 0)"/>
      <use xlink:href="#DejaVuSans-69" transform="translate(481.625 0)"/>
      <use xlink:href="#DejaVuSans-6d" transform="translate(509.408203 0)"/>
      <use xlink:href="#DejaVuSans-65" transform="translate(606.820312 0)"/>
      <use xlink:href="#DejaVuSans-20" transform="translate(668.34375 0)"/>
      <use xlink:href="#DejaVuSans-28" transform="translate(700.130859 0)"/>
      <use xlink:href="#DejaVuSans-6d" transform="translate(739.144531 0)"/>
      <use xlink:href="#DejaVuSans-73" transform="translate(836.556641 0)"/>
      <use xlink:href="#DejaVuSans-29" transform="translate(888.65625 0)"/>
     </g>
    </g>
   </g>
   <g id="line2d_13">
    <path d="M 115.363636 384.467326 
L 116.40313 384.453763 
L 136.777198 384.44772 
L 136.985097 383.812906 
L 137.192996 384.444148 
L 138.440387 384.431198 
L 138.648286 384.229263 
L 138.856185 384.440129 
L 140.103577 384.432135 
L 140.311475 384.182198 
L 140.519374 384.430551 
L 141.766766 384.429055 
L 141.974665 384.157119 
L 142.182563 384.428519 
L 143.429955 384.433401 
L 143.637854 383.192235 
L 143.845753 384.441453 
L 153.61699 384.364236 
L 154.032787 384.439286 
L 156.735469 384.437619 
L 156.943368 383.371966 
L 157.151267 384.439427 
L 158.398659 384.437414 
L 158.606557 384.230881 
L 158.814456 384.439127 
L 160.061848 384.43515 
L 160.269747 384.230781 
L 160.477645 384.436793 
L 161.725037 384.437985 
L 161.932936 384.226562 
L 162.140835 384.43757 
L 163.388227 384.437272 
L 163.596125 383.233454 
L 163.804024 384.440074 
L 173.367362 384.435865 
L 173.575261 384.368581 
L 173.991058 384.439429 
L 176.693741 384.434674 
L 176.901639 383.337088 
L 177.109538 384.436388 
L 178.35693 384.435558 
L 178.564829 384.226191 
L 178.772727 384.435952 
L 180.020119 384.435394 
L 180.228018 384.227192 
L 180.435917 384.436781 
L 181.683308 384.435183 
L 181.891207 384.230633 
L 182.099106 384.430478 
L 183.346498 384.435161 
L 183.554396 383.231659 
L 183.762295 384.439566 
L 196.652012 384.430874 
L 196.859911 383.382697 
L 197.067809 384.433525 
L 198.315201 384.436108 
L 198.5231 384.221984 
L 198.730999 384.433051 
L 199.97839 384.43361 
L 200.186289 384.216575 
L 200.394188 384.433479 
L 201.64158 384.432495 
L 201.849478 384.193184 
L 202.057377 384.432192 
L 203.304769 384.431969 
L 203.512668 383.213628 
L 203.720566 384.434326 
L 209.957526 384.432787 
L 210.165425 384.365877 
L 210.581222 384.43535 
L 216.610283 384.428087 
L 216.818182 383.379625 
L 217.02608 384.432827 
L 218.273472 384.428605 
L 218.481371 384.219589 
L 218.68927 384.43285 
L 219.936662 384.430833 
L 220.14456 384.224911 
L 220.352459 384.432984 
L 221.599851 384.429872 
L 221.80775 384.222184 
L 222.015648 384.430277 
L 223.26304 384.431182 
L 223.470939 383.042555 
L 223.678838 384.430278 
L 224.92623 384.430784 
L 225.134128 384.187282 
L 225.342027 384.423179 
L 226.589419 384.428329 
L 226.797317 384.171637 
L 227.005216 384.429437 
L 228.252608 384.427981 
L 228.460507 384.176147 
L 228.668405 384.425421 
L 229.915797 384.42217 
L 230.123696 382.850026 
L 230.331595 384.424512 
L 231.578987 384.428515 
L 231.786885 384.177206 
L 231.994784 384.423909 
L 233.242176 384.427807 
L 233.450075 384.168961 
L 233.657973 384.427582 
L 234.905365 384.422883 
L 235.113264 384.171583 
L 235.321162 384.425173 
L 236.568554 384.425487 
L 236.776453 382.772894 
L 236.984352 384.424792 
L 238.231744 384.421565 
L 238.439642 384.157769 
L 238.647541 384.424917 
L 239.894933 384.423676 
L 240.102832 384.156346 
L 240.31073 384.422721 
L 241.558122 384.418755 
L 241.766021 384.152328 
L 241.97392 384.423017 
L 243.221311 384.417805 
L 243.42921 382.664613 
L 243.637109 384.41684 
L 244.884501 384.403826 
L 245.092399 384.088491 
L 245.300298 384.420169 
L 246.54769 384.416722 
L 246.755589 384.140715 
L 246.963487 384.419035 
L 248.210879 384.414402 
L 248.418778 384.124676 
L 248.626677 384.418602 
L 249.874069 384.417002 
L 250.081967 381.463822 
L 250.289866 384.41792 
L 251.537258 384.412029 
L 251.745156 384.109119 
L 251.953055 384.414854 
L 253.200447 384.4157 
L 253.408346 384.13633 
L 253.616244 384.416845 
L 254.863636 384.411451 
L 255.071535 384.139909 
L 255.279434 384.411376 
L 256.526826 384.411398 
L 256.734724 381.38666 
L 256.942623 384.414596 
L 258.190015 384.416994 
L 258.397914 384.137931 
L 258.605812 384.413992 
L 259.853204 384.416219 
L 260.061103 384.136121 
L 260.269001 384.412493 
L 261.516393 384.415821 
L 261.724292 384.122859 
L 261.932191 384.412938 
L 263.179583 384.413879 
L 263.387481 381.485703 
L 263.59538 384.409414 
L 264.842772 384.403607 
L 265.050671 384.098947 
L 265.258569 384.409353 
L 266.505961 384.415018 
L 266.71386 384.137459 
L 266.921759 384.413189 
L 268.169151 384.415486 
L 268.377049 384.135177 
L 268.584948 384.413892 
L 269.83234 384.411825 
L 270.040238 381.472252 
L 270.248137 384.412195 
L 271.495529 384.404319 
L 271.703428 384.114054 
L 271.911326 384.412024 
L 273.158718 384.413702 
L 273.366617 384.131667 
L 273.574516 384.414621 
L 274.821908 384.40867 
L 275.029806 384.133038 
L 275.237705 384.409716 
L 276.485097 384.409468 
L 276.692996 382.560966 
L 276.900894 384.41157 
L 277.316692 384.410793 
L 277.52459 384.138365 
L 277.732489 384.40911 
L 278.148286 384.40078 
L 278.356185 384.12943 
L 278.564083 384.409776 
L 278.979881 384.409254 
L 279.187779 384.1309 
L 279.395678 384.40765 
L 279.811475 384.408749 
L 280.019374 383.044792 
L 280.227273 384.411321 
L 280.64307 384.410554 
L 280.850969 384.130496 
L 281.058867 384.40952 
L 281.474665 384.409122 
L 281.682563 384.137454 
L 281.890462 384.40095 
L 282.306259 384.409266 
L 282.514158 384.133394 
L 282.722057 384.411218 
L 283.137854 384.410161 
L 283.345753 383.02629 
L 283.553651 384.409863 
L 283.969449 384.411235 
L 284.177347 384.13643 
L 284.385246 384.409225 
L 284.801043 384.407761 
L 285.008942 384.131022 
L 285.216841 384.405595 
L 285.632638 384.406255 
L 285.840537 384.133894 
L 286.048435 384.407349 
L 286.464232 384.403921 
L 286.672131 383.043569 
L 286.88003 384.406108 
L 287.295827 384.410221 
L 287.503726 384.137786 
L 287.711624 384.409471 
L 288.127422 384.408365 
L 288.33532 384.137394 
L 288.543219 384.409557 
L 288.959016 384.408792 
L 289.166915 384.134521 
L 289.374814 384.403056 
L 289.790611 384.401937 
L 289.99851 381.947616 
L 290.206408 384.412799 
L 291.4538 384.407623 
L 291.661699 384.129572 
L 291.869598 384.412757 
L 293.11699 384.406066 
L 293.324888 384.130422 
L 293.532787 384.411441 
L 294.780179 384.411817 
L 294.988077 384.130054 
L 295.195976 384.409275 
L 296.443368 384.409975 
L 296.651267 381.465021 
L 296.859165 384.412009 
L 298.106557 384.402653 
L 298.314456 384.11186 
L 298.522355 384.404329 
L 299.769747 384.411321 
L 299.977645 384.118814 
L 300.185544 384.405766 
L 301.432936 384.407142 
L 301.640835 384.126818 
L 301.848733 384.409041 
L 303.096125 384.408655 
L 303.304024 381.447931 
L 303.511923 384.408606 
L 304.759314 384.41007 
L 304.967213 384.10356 
L 305.175112 384.405357 
L 306.422504 384.408233 
L 306.630402 384.126559 
L 306.838301 384.409913 
L 308.085693 384.406452 
L 308.293592 384.123668 
L 308.50149 384.405668 
L 309.748882 384.406264 
L 309.956781 381.449058 
L 310.16468 384.410179 
L 311.412072 384.410042 
L 311.61997 384.127223 
L 311.827869 384.409341 
L 313.075261 384.401217 
L 313.283159 384.122966 
L 313.491058 384.407501 
L 314.73845 384.406679 
L 314.946349 384.117601 
L 315.154247 384.407343 
L 316.401639 384.407767 
L 316.609538 382.523968 
L 316.817437 384.40573 
L 317.233234 384.40804 
L 317.441133 384.132282 
L 317.649031 384.407343 
L 318.064829 384.403508 
L 318.272727 384.12955 
L 318.480626 384.399867 
L 318.896423 384.402758 
L 319.104322 384.122524 
L 319.312221 384.407518 
L 319.728018 384.392258 
L 319.935917 383.03197 
L 320.143815 384.403158 
L 320.559613 384.404276 
L 320.767511 384.133267 
L 320.97541 384.402611 
L 321.391207 384.405128 
L 321.599106 384.101392 
L 321.807004 384.399985 
L 322.222802 384.402434 
L 322.4307 384.135029 
L 322.638599 384.401729 
L 323.054396 384.405804 
L 323.262295 383.047004 
L 323.470194 384.403595 
L 323.885991 384.40489 
L 324.09389 384.12696 
L 324.301788 384.404337 
L 324.717586 384.4037 
L 324.925484 384.129237 
L 325.133383 384.4065 
L 325.54918 384.403547 
L 325.757079 384.132458 
L 325.964978 384.405155 
L 326.380775 384.403524 
L 326.588674 383.032457 
L 326.796572 384.404252 
L 327.21237 384.402604 
L 327.420268 384.13185 
L 327.628167 384.403343 
L 328.043964 384.400745 
L 328.251863 384.126598 
L 328.459762 384.401249 
L 328.875559 384.406606 
L 329.083458 384.129326 
L 329.291356 384.402029 
L 329.707154 384.404176 
L 329.915052 381.933375 
L 330.122951 384.40709 
L 331.370343 384.405149 
L 331.578241 384.118766 
L 331.78614 384.404978 
L 333.033532 384.400282 
L 333.241431 384.110685 
L 333.449329 384.393639 
L 334.696721 384.403348 
L 334.90462 384.116792 
L 335.112519 384.397713 
L 336.359911 384.397522 
L 336.567809 381.40954 
L 336.775708 384.404249 
L 338.0231 384.403347 
L 338.230999 384.120907 
L 338.438897 384.399534 
L 339.686289 384.399977 
L 339.894188 384.117085 
L 340.102086 384.406465 
L 341.349478 384.406572 
L 341.557377 384.113831 
L 341.765276 384.403 
L 343.012668 384.405897 
L 343.220566 381.416289 
L 343.428465 384.403505 
L 344.675857 384.403207 
L 344.883756 384.119885 
L 345.091654 384.40457 
L 346.339046 384.40395 
L 346.546945 384.104993 
L 346.754844 384.404311 
L 348.002235 384.403601 
L 348.210134 384.1171 
L 348.418033 384.402326 
L 349.665425 384.401424 
L 349.873323 381.402519 
L 350.081222 384.399975 
L 351.328614 384.399361 
L 351.536513 384.098636 
L 351.744411 384.395328 
L 352.991803 384.401883 
L 353.199702 384.117604 
L 353.407601 384.40391 
L 354.654993 384.403984 
L 354.862891 384.115197 
L 355.07079 384.403121 
L 356.318182 384.40209 
L 356.52608 382.48803 
L 356.733979 384.395938 
L 357.149776 384.396957 
L 357.357675 384.120875 
L 357.565574 384.395238 
L 357.981371 384.400645 
L 358.18927 384.120215 
L 358.397168 384.400317 
L 358.812966 384.392492 
L 359.020864 384.125802 
L 359.228763 384.398404 
L 359.64456 384.397882 
L 359.852459 383.011425 
L 360.060358 384.396716 
L 360.476155 384.401682 
L 360.684054 384.120914 
L 360.891952 384.399252 
L 361.30775 384.401464 
L 361.515648 384.118924 
L 361.723547 384.39605 
L 362.139344 384.394091 
L 362.347243 384.114821 
L 362.555142 384.397977 
L 362.970939 384.397835 
L 363.178838 383.025389 
L 363.386736 384.399775 
L 363.802534 384.396194 
L 364.010432 384.121088 
L 364.218331 384.398716 
L 364.634128 384.400816 
L 364.842027 384.126 
L 365.049925 384.399496 
L 365.465723 384.40018 
L 365.673621 384.11796 
L 365.88152 384.395894 
L 366.297317 384.40101 
L 366.505216 383.026995 
L 366.713115 384.399403 
L 367.128912 384.394325 
L 367.336811 384.120055 
L 367.544709 384.395998 
L 367.960507 384.396176 
L 368.168405 384.123539 
L 368.376304 384.395187 
L 368.792101 384.396776 
L 369 384.117155 
L 369.207899 384.395732 
L 369.623696 384.396454 
L 369.831595 381.911574 
L 370.039493 384.393321 
L 371.286885 384.396872 
L 371.494784 384.111244 
L 371.702683 384.396111 
L 372.950075 384.398962 
L 373.157973 384.107627 
L 373.365872 384.380568 
L 374.613264 384.397378 
L 374.821162 384.107732 
L 375.029061 384.388185 
L 376.276453 384.399986 
L 376.484352 381.354714 
L 376.69225 384.397403 
L 377.939642 384.397266 
L 378.147541 384.108262 
L 378.35544 384.401099 
L 379.602832 384.401669 
L 379.81073 384.112017 
L 380.018629 384.393367 
L 381.266021 384.397114 
L 381.47392 384.107762 
L 381.681818 384.397651 
L 382.92921 384.395494 
L 383.137109 381.351511 
L 383.345007 384.397932 
L 384.592399 384.385201 
L 384.800298 384.108179 
L 385.008197 384.396033 
L 386.255589 384.387458 
L 386.463487 384.109135 
L 386.671386 384.397919 
L 387.918778 384.398177 
L 388.126677 384.109834 
L 388.334575 384.393647 
L 389.581967 384.389885 
L 389.789866 381.306298 
L 389.997765 384.394416 
L 391.245156 384.397111 
L 391.453055 384.10312 
L 391.660954 384.399584 
L 392.908346 384.395921 
L 393.116244 384.108865 
L 393.324143 384.398705 
L 394.571535 384.396551 
L 394.779434 384.10344 
L 394.987332 384.392143 
L 396.234724 384.40098 
L 396.442623 382.455144 
L 396.650522 384.391366 
L 397.066319 384.39357 
L 397.274218 384.099459 
L 397.482116 384.393538 
L 397.897914 384.391967 
L 398.105812 384.111591 
L 398.313711 384.393709 
L 398.729508 384.393566 
L 398.937407 384.116216 
L 399.145306 384.391077 
L 399.561103 384.389829 
L 399.769001 383.010442 
L 399.9769 384.386099 
L 400.392697 384.385635 
L 400.600596 384.112507 
L 400.808495 384.391677 
L 401.224292 384.390766 
L 401.432191 384.08025 
L 401.640089 384.382301 
L 402.055887 384.390426 
L 402.263785 384.110069 
L 402.471684 384.390486 
L 402.887481 384.395139 
L 403.09538 383.004142 
L 403.303279 384.393139 
L 403.719076 384.393648 
L 403.926975 384.114759 
L 404.134873 384.381571 
L 404.550671 384.391398 
L 404.758569 384.118935 
L 404.966468 384.395469 
L 405.382265 384.395824 
L 405.590164 384.114715 
L 405.798063 384.392359 
L 406.21386 384.392237 
L 406.421759 383.013429 
L 406.629657 384.390493 
L 407.045455 384.391752 
L 407.253353 384.112468 
L 407.461252 384.386703 
L 407.877049 384.391589 
L 408.084948 384.109549 
L 408.292846 384.390487 
L 408.708644 384.395756 
L 408.916542 384.113325 
L 409.124441 384.392302 
L 409.540238 384.391396 
L 409.748137 339.456791 
L 409.956036 384.383716 
L 410.371833 384.389639 
L 410.579732 384.106678 
L 410.78763 384.385753 
L 411.203428 384.383719 
L 411.411326 384.103737 
L 411.619225 384.384653 
L 412.035022 384.387594 
L 412.242921 384.112401 
L 412.45082 384.386869 
L 412.866617 384.386396 
L 413.074516 383.017385 
L 413.282414 384.386517 
L 413.698212 384.387463 
L 413.90611 384.114753 
L 414.114009 384.383612 
L 414.529806 384.386227 
L 414.737705 384.104737 
L 414.945604 384.385269 
L 415.361401 384.389849 
L 415.5693 384.108427 
L 415.777198 384.381856 
L 416.192996 384.388223 
L 416.400894 383.01755 
L 416.608793 384.38833 
L 417.02459 384.38717 
L 417.232489 384.112268 
L 417.440387 384.377833 
L 417.856185 384.380776 
L 418.064083 384.113544 
L 418.271982 384.383938 
L 418.687779 384.38907 
L 418.895678 384.110779 
L 419.103577 384.380396 
L 419.519374 384.38825 
L 419.727273 383.019279 
L 419.935171 384.385856 
L 420.350969 384.389654 
L 420.558867 384.110791 
L 420.766766 384.386522 
L 421.182563 384.376335 
L 421.390462 384.115021 
L 421.598361 384.384995 
L 422.014158 384.387001 
L 422.222057 384.107037 
L 422.429955 384.379658 
L 422.845753 384.380165 
L 423.053651 383.014879 
L 423.26155 384.381741 
L 423.677347 384.38719 
L 423.885246 384.107183 
L 424.093145 384.379704 
L 424.508942 384.380221 
L 424.716841 384.104991 
L 424.924739 384.381477 
L 425.340537 384.384059 
L 425.548435 384.104165 
L 425.756334 384.383911 
L 426.172131 384.381336 
L 426.38003 383.01263 
L 426.587928 384.38229 
L 427.003726 384.383331 
L 427.211624 384.110468 
L 427.419523 384.377838 
L 427.83532 384.388613 
L 428.043219 384.108198 
L 428.251118 384.378746 
L 428.666915 384.386533 
L 428.874814 384.111689 
L 429.082712 384.383367 
L 429.49851 384.380788 
L 429.706408 383.00143 
L 429.914307 384.377241 
L 430.330104 384.386035 
L 430.538003 384.103841 
L 430.745902 384.381289 
L 431.161699 384.387066 
L 431.369598 384.112009 
L 431.577496 384.378309 
L 431.993294 384.386074 
L 432.201192 384.100087 
L 432.409091 384.382309 
L 432.824888 384.38429 
L 433.032787 382.999561 
L 433.240686 384.384256 
L 433.656483 384.387771 
L 433.864382 384.101675 
L 434.07228 384.377968 
L 434.488077 384.381886 
L 434.695976 384.10298 
L 434.903875 384.384955 
L 435.319672 384.383423 
L 435.527571 384.100145 
L 435.735469 384.3753 
L 436.151267 384.377818 
L 436.359165 382.994517 
L 436.567064 384.376866 
L 436.982861 384.379047 
L 437.19076 384.094568 
L 437.398659 384.380755 
L 437.814456 384.384169 
L 438.022355 384.099197 
L 438.230253 384.377952 
L 438.646051 384.376555 
L 438.853949 384.09738 
L 439.061848 384.375743 
L 439.477645 384.380832 
L 439.685544 382.981104 
L 439.893443 384.374325 
L 440.30924 384.382917 
L 440.517139 384.096049 
L 440.725037 384.376297 
L 441.140835 384.383066 
L 441.348733 384.091104 
L 441.556632 384.37181 
L 441.972429 384.372977 
L 442.180328 384.094529 
L 442.388227 384.372024 
L 442.804024 384.381346 
L 443.011923 382.994096 
L 443.219821 384.375855 
L 443.635618 384.378725 
L 443.843517 384.100241 
L 444.051416 384.377967 
L 444.467213 384.378588 
L 444.675112 384.102143 
L 444.88301 384.381958 
L 445.298808 384.37818 
L 445.506706 384.092156 
L 445.714605 384.376878 
L 446.130402 384.381053 
L 446.338301 382.982342 
L 446.5462 384.38175 
L 446.961997 384.372968 
L 447.169896 384.089051 
L 447.377794 384.369429 
L 447.793592 384.375598 
L 448.00149 384.088854 
L 448.209389 384.375566 
L 448.625186 384.360621 
L 448.833085 384.100525 
L 449.040984 384.375869 
L 449.456781 384.375506 
L 449.66468 382.955504 
L 449.872578 384.375904 
L 450.288376 384.37176 
L 450.496274 384.082651 
L 450.704173 384.373303 
L 451.11997 384.37685 
L 451.327869 384.094941 
L 451.535768 384.374976 
L 451.951565 384.375014 
L 452.159463 384.08022 
L 452.367362 384.370559 
L 452.783159 384.368124 
L 452.991058 382.987835 
L 453.198957 384.372422 
L 453.614754 384.378629 
L 453.822653 384.09408 
L 454.030551 384.374753 
L 454.446349 384.373419 
L 454.654247 384.095974 
L 454.862146 384.36733 
L 455.277943 384.3766 
L 455.485842 384.092571 
L 455.693741 384.361616 
L 456.109538 384.374948 
L 456.317437 382.989039 
L 456.525335 384.374495 
L 456.941133 384.378269 
L 457.149031 384.097522 
L 457.35693 384.379604 
L 457.772727 384.38261 
L 457.980626 384.100694 
L 458.188525 384.376718 
L 458.604322 384.378287 
L 458.812221 384.09623 
L 459.020119 384.373389 
L 459.435917 384.374742 
L 459.643815 382.987598 
L 459.851714 384.371747 
L 460.267511 384.380063 
L 460.47541 384.098979 
L 460.683308 384.374835 
L 461.099106 384.374463 
L 461.307004 384.077947 
L 461.514903 384.362371 
L 461.9307 384.376922 
L 462.138599 384.092194 
L 462.346498 384.372179 
L 462.762295 384.373758 
L 462.970194 365.677674 
L 463.178092 384.376422 
L 463.59389 384.376901 
L 463.801788 384.092236 
L 464.009687 384.374982 
L 464.425484 384.370944 
L 464.633383 384.093888 
L 464.841282 384.377185 
L 465.257079 384.375718 
L 465.464978 384.091544 
L 465.672876 384.373518 
L 466.088674 384.381748 
L 466.296572 382.979224 
L 466.504471 384.374808 
L 466.920268 384.378287 
L 467.128167 384.099782 
L 467.336066 384.374092 
L 467.751863 384.373698 
L 467.959762 384.099597 
L 468.16766 384.375347 
L 468.583458 384.368848 
L 468.791356 384.097073 
L 468.999255 384.375878 
L 469.415052 384.373809 
L 469.622951 382.975044 
L 469.830849 384.378183 
L 470.246647 384.381965 
L 470.454545 384.095663 
L 470.662444 384.376102 
L 471.078241 384.380233 
L 471.28614 384.097569 
L 471.494039 384.374598 
L 471.909836 384.377492 
L 472.117735 384.097875 
L 472.325633 384.376319 
L 472.741431 384.377687 
L 472.949329 382.97432 
L 473.157228 384.371664 
L 473.573025 384.381619 
L 473.780924 384.093536 
L 473.988823 384.372731 
L 474.40462 384.37987 
L 474.612519 384.099198 
L 474.820417 384.377129 
L 475.236215 384.382732 
L 475.444113 384.092663 
L 475.652012 384.377685 
L 476.067809 384.382259 
L 476.275708 382.972014 
L 476.483607 384.368896 
L 476.899404 384.372054 
L 477.107303 384.088718 
L 477.315201 384.366357 
L 477.730999 384.376208 
L 477.938897 384.089893 
L 478.146796 384.372751 
L 478.562593 384.36843 
L 478.770492 384.089223 
L 478.97839 384.368652 
L 479.394188 384.37455 
L 479.602086 382.967971 
L 479.809985 384.369732 
L 480.225782 384.377068 
L 480.433681 384.087404 
L 480.64158 384.37418 
L 481.057377 384.378623 
L 481.265276 384.084842 
L 481.473174 384.365625 
L 481.888972 384.375809 
L 482.09687 384.077197 
L 482.304769 384.370631 
L 482.720566 384.370888 
L 482.928465 382.958426 
L 483.136364 384.370705 
L 483.552161 384.375076 
L 483.76006 384.074903 
L 483.967958 384.363251 
L 484.383756 384.37653 
L 484.591654 384.076658 
L 484.799553 384.368092 
L 485.21535 384.372571 
L 485.423249 384.065206 
L 485.631148 384.36724 
L 486.046945 384.367783 
L 486.254844 382.96109 
L 486.462742 384.369142 
L 486.878539 384.377482 
L 487.086438 384.093687 
L 487.294337 384.376557 
L 487.710134 384.375577 
L 487.918033 384.086156 
L 488.125931 384.354847 
L 488.541729 384.378149 
L 488.749627 384.082806 
L 488.957526 384.371394 
L 489.373323 384.372063 
L 489.581222 382.949748 
L 489.789121 384.368537 
L 490.204918 384.362754 
L 490.412817 384.064372 
L 490.620715 384.356701 
L 491.036513 384.362957 
L 491.244411 384.071769 
L 491.45231 384.367798 
L 491.868107 384.373119 
L 492.076006 384.087354 
L 492.283905 384.370679 
L 492.699702 384.369204 
L 492.907601 382.949779 
L 493.115499 384.348848 
L 493.531297 384.373014 
L 493.739195 384.076871 
L 493.947094 384.36312 
L 494.362891 384.367441 
L 494.57079 384.079374 
L 494.778689 384.367526 
L 495.194486 384.374291 
L 495.402385 384.083977 
L 495.610283 384.368046 
L 496.02608 384.373184 
L 496.233979 382.943883 
L 496.441878 384.370285 
L 496.857675 384.368937 
L 497.065574 384.086389 
L 497.273472 384.364858 
L 497.68927 384.369299 
L 497.897168 384.085515 
L 498.105067 384.370785 
L 498.520864 384.368886 
L 498.728763 384.081627 
L 498.936662 384.367876 
L 499.352459 384.3687 
L 499.560358 382.954655 
L 499.768256 384.370431 
L 500.184054 384.371448 
L 500.391952 384.082876 
L 500.599851 384.371115 
L 501.015648 384.372041 
L 501.223547 384.08737 
L 501.431446 384.370001 
L 501.847243 384.374788 
L 502.055142 384.078462 
L 502.26304 384.370269 
L 502.678838 384.373073 
L 502.886736 382.953033 
L 503.094635 384.364553 
L 503.510432 384.367215 
L 503.718331 384.063511 
L 503.92623 384.365387 
L 504.342027 384.360873 
L 504.549925 384.072681 
L 504.757824 384.364534 
L 505.173621 384.368911 
L 505.38152 384.074536 
L 505.589419 384.364127 
L 506.005216 384.365856 
L 506.213115 382.947225 
L 506.421013 384.363657 
L 506.836811 384.366443 
L 507.044709 384.073223 
L 507.252608 384.364263 
L 507.668405 384.370312 
L 507.876304 384.076553 
L 508.084203 384.360888 
L 508.5 384.367875 
L 508.707899 384.074961 
L 508.915797 384.363157 
L 509.331595 384.354558 
L 509.539493 382.913725 
L 509.747392 384.361132 
L 510.163189 384.367522 
L 510.371088 384.079486 
L 510.578987 384.352284 
L 510.994784 384.362598 
L 511.202683 384.08277 
L 511.410581 384.361427 
L 511.826379 384.373026 
L 512.034277 384.067396 
L 512.242176 384.3544 
L 512.657973 384.360657 
L 512.865872 382.92432 
L 513.07377 384.363332 
L 513.489568 384.368741 
L 513.697466 384.087091 
L 513.905365 384.357826 
L 514.321162 384.364065 
L 514.529061 384.069362 
L 514.73696 384.367155 
L 515.152757 384.366783 
L 515.360656 384.075886 
L 515.568554 384.366858 
L 515.984352 384.367612 
L 516.19225 365.549648 
L 516.400149 384.363413 
L 516.815946 384.366906 
L 517.023845 384.070339 
L 517.231744 384.357568 
L 517.647541 384.357424 
L 517.85544 384.074526 
L 518.063338 384.365685 
L 518.479136 384.363882 
L 518.687034 384.067748 
L 518.894933 384.359065 
L 519.31073 384.358774 
L 519.518629 382.918047 
L 519.726528 384.341623 
L 520.142325 384.361361 
L 520.350224 384.07129 
L 520.558122 384.363226 
L 520.97392 384.363706 
L 521.181818 384.067881 
L 521.389717 384.3557 
L 521.805514 384.367811 
L 522.013413 384.071917 
L 522.221311 384.356443 
L 522.637109 384.361637 
L 522.845007 382.928278 
L 523.052906 384.366191 
L 523.468703 384.366006 
L 523.676602 384.067344 
L 523.884501 384.360436 
L 524.300298 384.358939 
L 524.508197 384.074191 
L 524.716095 384.364009 
L 525.131893 384.361203 
L 525.339791 384.077242 
L 525.54769 384.362735 
L 525.963487 384.366094 
L 526.171386 382.938264 
L 526.379285 384.366999 
L 526.795082 384.372187 
L 527.002981 384.077089 
L 527.210879 384.362358 
L 527.626677 384.362112 
L 527.834575 384.07161 
L 528.042474 384.365905 
L 528.458271 384.365493 
L 528.66617 384.075494 
L 528.874069 384.359611 
L 529.289866 384.36273 
L 529.497765 382.909555 
L 529.705663 384.350945 
L 530.121461 384.353856 
L 530.329359 384.061662 
L 530.537258 384.354457 
L 530.953055 384.359415 
L 531.160954 384.07312 
L 531.368852 384.357098 
L 531.78465 384.363598 
L 531.992548 384.058475 
L 532.200447 384.354562 
L 532.616244 384.354211 
L 532.824143 382.914225 
L 533.032042 384.350185 
L 533.447839 384.350425 
L 533.655738 384.073482 
L 533.863636 384.359938 
L 534.279434 384.364239 
L 534.487332 384.063593 
L 534.695231 384.351218 
L 535.111028 384.350396 
L 535.318927 384.061574 
L 535.526826 384.349941 
L 535.942623 384.34818 
L 536.150522 382.928801 
L 536.35842 384.355894 
L 536.774218 384.360958 
L 536.982116 384.069776 
L 537.190015 384.362315 
L 537.605812 384.361946 
L 537.813711 384.070619 
L 538.02161 384.347753 
L 538.437407 384.361686 
L 538.645306 384.057256 
L 538.853204 384.36324 
L 539.269001 384.363 
L 539.4769 382.923981 
L 539.684799 384.360599 
L 540.100596 384.359456 
L 540.308495 384.069701 
L 540.516393 384.358586 
L 540.932191 384.354737 
L 541.140089 384.070261 
L 541.347988 384.359193 
L 541.763785 384.357095 
L 541.971684 384.061746 
L 542.179583 384.357073 
L 542.59538 384.361134 
L 542.803279 382.889621 
L 543.011177 384.349586 
L 543.426975 384.360712 
L 543.634873 384.064253 
L 543.842772 384.35185 
L 544.258569 384.355839 
L 544.466468 384.065182 
L 544.674367 384.351133 
L 545.090164 384.357735 
L 545.298063 384.049764 
L 545.505961 384.355795 
L 545.921759 384.354898 
L 546.129657 382.887831 
L 546.337556 384.33787 
L 546.753353 384.355559 
L 546.961252 384.070239 
L 547.169151 384.35151 
L 547.584948 384.35174 
L 547.792846 384.063672 
L 548.000745 384.352149 
L 548.416542 384.356662 
L 548.624441 384.068411 
L 548.83234 384.344026 
L 549.248137 384.357997 
L 549.456036 382.906645 
L 549.663934 384.352951 
L 550.079732 384.361857 
L 550.28763 384.063015 
L 550.495529 384.346579 
L 550.911326 384.356294 
L 551.119225 384.067831 
L 551.327124 384.350067 
L 551.742921 384.356642 
L 551.95082 384.064793 
L 552.158718 384.356422 
L 552.574516 384.354412 
L 552.782414 382.905689 
L 552.990313 384.352354 
L 553.40611 384.355835 
L 553.614009 384.047842 
L 553.821908 384.348131 
L 554.237705 384.350786 
L 554.445604 384.067147 
L 554.653502 384.357641 
L 555.0693 384.357464 
L 555.277198 384.06335 
L 555.485097 384.345929 
L 555.900894 384.350353 
L 556.108793 382.900676 
L 556.316692 384.352757 
L 556.732489 384.35659 
L 556.940387 384.055316 
L 557.148286 384.34176 
L 557.564083 384.353153 
L 557.771982 384.046926 
L 557.979881 384.34978 
L 558.395678 384.355299 
L 558.603577 384.04085 
L 558.811475 384.35032 
L 559.227273 384.349381 
L 559.435171 382.880517 
L 559.64307 384.34773 
L 560.058867 384.343386 
L 560.266766 384.038454 
L 560.474665 384.343093 
L 560.890462 384.348562 
L 561.098361 384.041709 
L 561.306259 384.341632 
L 561.722057 384.354367 
L 561.929955 384.051861 
L 562.137854 384.347754 
L 562.553651 384.347199 
L 562.76155 382.895853 
L 562.969449 384.350874 
L 563.385246 384.353092 
L 563.593145 384.061512 
L 563.801043 384.348369 
L 564.216841 384.354194 
L 564.424739 384.053927 
L 564.632638 384.354419 
L 565.048435 384.357033 
L 565.256334 384.057382 
L 565.464232 384.342888 
L 565.88003 384.352836 
L 566.087928 382.886958 
L 566.295827 384.347533 
L 566.711624 384.352107 
L 566.919523 384.047855 
L 567.127422 384.340904 
L 567.543219 384.349055 
L 567.751118 384.026856 
L 567.959016 384.347298 
L 568.374814 384.356491 
L 568.582712 384.057175 
L 568.790611 384.347857 
L 569.206408 384.352751 
L 569.414307 365.226074 
L 569.622206 384.346058 
L 570.038003 384.341139 
L 570.245902 384.048503 
L 570.4538 384.342031 
L 570.869598 384.344978 
L 571.077496 384.047597 
L 571.285395 384.345085 
L 571.701192 384.351659 
L 571.909091 384.053462 
L 572.11699 384.347285 
L 572.532787 384.349733 
L 572.740686 382.878293 
L 572.948584 384.340588 
L 573.364382 384.35204 
L 573.57228 384.024992 
L 573.780179 384.341974 
L 574.195976 384.355946 
L 574.403875 384.049511 
L 574.611773 384.338711 
L 575.027571 384.354393 
L 575.235469 384.048325 
L 575.443368 384.34182 
L 575.859165 384.348667 
L 576.067064 382.879669 
L 576.274963 384.346502 
L 576.69076 384.353694 
L 576.898659 384.053583 
L 577.106557 384.346352 
L 577.522355 384.349984 
L 577.730253 384.059133 
L 577.938152 384.350259 
L 578.353949 384.360378 
L 578.561848 384.05226 
L 578.769747 384.350051 
L 579.185544 384.352095 
L 579.393443 382.878378 
L 579.601341 384.351138 
L 580.017139 384.355826 
L 580.225037 384.05457 
L 580.432936 384.347142 
L 580.848733 384.34978 
L 581.056632 384.051332 
L 581.264531 384.345881 
L 581.680328 384.359701 
L 581.888227 384.060476 
L 582.096125 384.353298 
L 582.511923 384.355419 
L 582.719821 382.868279 
L 582.92772 384.335046 
L 583.343517 384.346925 
L 583.551416 384.047748 
L 583.759314 384.336851 
L 584.175112 384.343937 
L 584.38301 384.047764 
L 584.590909 384.329287 
L 585.006706 384.348603 
L 585.214605 384.032023 
L 585.422504 384.340237 
L 585.838301 384.34622 
L 586.0462 382.883146 
L 586.254098 384.337192 
L 586.669896 384.350555 
L 586.877794 384.049129 
L 587.085693 384.327884 
L 587.50149 384.34296 
L 587.709389 384.04855 
L 587.917288 384.331502 
L 588.333085 384.337997 
L 588.540984 384.028275 
L 588.748882 384.33434 
L 589.16468 384.347035 
L 589.372578 382.858232 
L 589.580477 384.333484 
L 589.996274 384.345954 
L 590.204173 384.049547 
L 590.412072 384.341149 
L 590.827869 384.347675 
L 591.035768 384.057775 
L 591.243666 384.345139 
L 591.659463 384.352787 
L 591.867362 384.05016 
L 592.075261 384.343383 
L 592.491058 384.352047 
L 592.698957 382.879421 
L 592.906855 384.342879 
L 593.322653 384.340782 
L 593.530551 384.055944 
L 593.73845 384.344444 
L 594.154247 384.348231 
L 594.362146 384.055033 
L 594.570045 384.339348 
L 594.985842 384.352957 
L 595.193741 384.039455 
L 595.401639 384.340024 
L 595.817437 384.352357 
L 596.025335 382.859804 
L 596.233234 384.331367 
L 596.649031 384.343663 
L 596.85693 384.028066 
L 597.064829 384.329147 
L 597.480626 384.341122 
L 597.688525 384.019591 
L 597.896423 384.342368 
L 598.312221 384.344012 
L 598.520119 384.047109 
L 598.728018 384.340155 
L 599.143815 384.346679 
L 599.351714 382.81605 
L 599.559613 384.322796 
L 599.97541 384.339883 
L 600.183308 384.04576 
L 600.391207 384.326503 
L 600.807004 384.345609 
L 601.014903 384.040251 
L 601.222802 384.334874 
L 601.638599 384.341382 
L 601.846498 384.029013 
L 602.054396 384.336013 
L 602.470194 384.344606 
L 602.678092 382.840486 
L 602.885991 384.336966 
L 603.301788 384.345453 
L 603.509687 384.030061 
L 603.717586 384.336027 
L 604.133383 384.336003 
L 604.341282 384.041668 
L 604.54918 384.342238 
L 604.964978 384.350566 
L 605.172876 384.047456 
L 605.380775 384.340788 
L 605.796572 384.349624 
L 606.004471 382.83368 
L 606.21237 384.344265 
L 606.628167 384.343652 
L 606.836066 384.039341 
L 607.043964 384.336125 
L 607.459762 384.342769 
L 607.66766 384.040151 
L 607.875559 384.324339 
L 608.291356 384.349676 
L 608.499255 384.040672 
L 608.707154 384.345382 
L 609.122951 384.345699 
L 609.330849 382.850318 
L 609.538748 384.336593 
L 609.954545 384.341048 
L 610.162444 384.022152 
L 610.370343 384.329047 
L 610.78614 384.331347 
L 610.994039 384.019361 
L 611.201937 384.332977 
L 611.617735 384.335711 
L 611.825633 384.022741 
L 612.033532 384.335216 
L 612.449329 384.342219 
L 612.657228 382.842094 
L 612.865127 384.327033 
L 613.280924 384.340441 
L 613.488823 384.036316 
L 613.696721 384.332754 
L 614.112519 384.337258 
L 614.320417 384.028965 
L 614.528316 384.327956 
L 614.944113 384.329576 
L 615.152012 384.025598 
L 615.359911 384.331125 
L 615.775708 384.339363 
L 615.983607 382.856849 
L 616.191505 384.332379 
L 616.607303 384.349166 
L 616.815201 384.045493 
L 617.0231 384.330194 
L 617.438897 384.343163 
L 617.646796 384.037038 
L 617.854694 384.33833 
L 618.270492 384.350879 
L 618.47839 384.031699 
L 618.686289 384.34003 
L 619.102086 384.34865 
L 619.309985 382.833009 
L 619.517884 384.334824 
L 619.933681 384.347207 
L 620.14158 384.038546 
L 620.349478 384.329295 
L 620.765276 384.335974 
L 620.973174 383.998292 
L 621.181073 384.332272 
L 621.59687 384.345264 
L 621.804769 384.033357 
L 622.012668 384.333708 
L 622.428465 384.34146 
L 622.636364 67.679799 
L 622.636364 67.679799 
" clip-path="url(#p47bff0148c)" style="fill: none; stroke: #1f77b4; stroke-width: 1.5; stroke-linecap: square"/>
   </g>
   <g id="patch_3">
    <path d="M 90 384.48 
L 90 51.84 
" style="fill: none; stroke: #000000; stroke-width: 0.8; stroke-linejoin: miter; stroke-linecap: square"/>
   </g>
   <g id="patch_4">
    <path d="M 648 384.48 
L 648 51.84 
" style="fill: none; stroke: #000000; stroke-width: 0.8; stroke-linejoin: miter; stroke-linecap: square"/>
   </g>
   <g id="patch_5">
    <path d="M 90 384.48 
L 648 384.48 
" style="fill: none; stroke: #000000; stroke-width: 0.8; stroke-linejoin: miter; stroke-linecap: square"/>
   </g>
   <g id="patch_6">
    <path d="M 90 51.84 
L 648 51.84 
" style="fill: none; stroke: #000000; stroke-width: 0.8; stroke-linejoin: miter; stroke-linecap: square"/>
   </g>
   <g id="text_15">
    <!-- Average time per index -->
    <g transform="translate(298.700625 45.84) scale(0.12 -0.12)">
     <defs>
      <path id="DejaVuSans-70" d="M 1159 525 
L 1159 -1331 
L 581 -1331 
L 581 3500 
L 1159 3500 
L 1159 2969 
Q 1341 3281 1617 3432 
Q 1894 3584 2278 3584 
Q 2916 3584 3314 3078 
Q 3713 2572 3713 1747 
Q 3713 922 3314 415 
Q 2916 -91 2278 -91 
Q 1894 -91 1617 61 
Q 1341 213 1159 525 
z
M 3116 1747 
Q 3116 2381 2855 2742 
Q 2594 3103 2138 3103 
Q 1681 3103 1420 2742 
Q 1159 2381 1159 1747 
Q 1159 1113 1420 752 
Q 1681 391 2138 391 
Q 2594 391 2855 752 
Q 3116 1113 3116 1747 
z
" transform="scale(0.015625)"/>
     </defs>
     <use xlink:href="#DejaVuSans-41"/>
     <use xlink:href="#DejaVuSans-76" transform="translate(62.533203 0)"/>
     <use xlink:href="#DejaVuSans-65" transform="translate(121.712891 0)"/>
     <use xlink:href="#DejaVuSans-72" transform="translate(183.236328 0)"/>
     <use xlink:href="#DejaVuSans-61" transform="translate(224.349609 0)"/>
     <use xlink:href="#DejaVuSans-67" transform="translate(285.628906 0)"/>
     <use xlink:href="#DejaVuSans-65" transform="translate(349.105469 0)"/>
     <use xlink:href="#DejaVuSans-20" transform="translate(410.628906 0)"/>
     <use xlink:href="#DejaVuSans-74" transform="translate(442.416016 0)"/>
     <use xlink:href="#DejaVuSans-69" transform="translate(481.625 0)"/>
     <use xlink:href="#DejaVuSans-6d" transform="translate(509.408203 0)"/>
     <use xlink:href="#DejaVuSans-65" transform="translate(606.820312 0)"/>
     <use xlink:href="#DejaVuSans-20" transform="translate(668.34375 0)"/>
     <use xlink:href="#DejaVuSans-70" transform="translate(700.130859 0)"/>
     <use xlink:href="#DejaVuSans-65" transform="translate(763.607422 0)"/>
     <use xlink:href="#DejaVuSans-72" transform="translate(825.130859 0)"/>
     <use xlink:href="#DejaVuSans-20" transform="translate(866.244141 0)"/>
     <use xlink:href="#DejaVuSans-69" transform="translate(898.03125 0)"/>
     <use xlink:href="#DejaVuSans-6e" transform="translate(925.814453 0)"/>
     <use xlink:href="#DejaVuSans-64" transform="translate(989.193359 0)"/>
     <use xlink:href="#DejaVuSans-65" transform="translate(1052.669922 0)"/>
     <use xlink:href="#DejaVuSans-78" transform="translate(1112.443359 0)"/>
    </g>
   </g>
   <g id="legend_1">
    <g id="patch_7">
     <path d="M 97 74.518125 
L 196.53125 74.518125 
Q 198.53125 74.518125 198.53125 72.518125 
L 198.53125 58.84 
Q 198.53125 56.84 196.53125 56.84 
L 97 56.84 
Q 95 56.84 95 58.84 
L 95 72.518125 
Q 95 74.518125 97 74.518125 
z
" style="fill: #ffffff; opacity: 0.8; stroke: #cccccc; stroke-linejoin: miter"/>
    </g>
    <g id="line2d_14">
     <path d="M 99 64.938438 
L 109 64.938438 
L 119 64.938438 
" style="fill: none; stroke: #1f77b4; stroke-width: 1.5; stroke-linecap: square"/>
    </g>
    <g id="text_16">
     <!-- nextFaultload -->
     <g transform="translate(127 68.438438) scale(0.1 -0.1)">
      <defs>
       <path id="DejaVuSans-46" d="M 628 4666 
L 3309 4666 
L 3309 4134 
L 1259 4134 
L 1259 2759 
L 3109 2759 
L 3109 2228 
L 1259 2228 
L 1259 0 
L 628 0 
L 628 4666 
z
" transform="scale(0.015625)"/>
       <path id="DejaVuSans-75" d="M 544 1381 
L 544 3500 
L 1119 3500 
L 1119 1403 
Q 1119 906 1312 657 
Q 1506 409 1894 409 
Q 2359 409 2629 706 
Q 2900 1003 2900 1516 
L 2900 3500 
L 3475 3500 
L 3475 0 
L 2900 0 
L 2900 538 
Q 2691 219 2414 64 
Q 2138 -91 1772 -91 
Q 1169 -91 856 284 
Q 544 659 544 1381 
z
M 1991 3584 
L 1991 3584 
z
" transform="scale(0.015625)"/>
       <path id="DejaVuSans-6c" d="M 603 4863 
L 1178 4863 
L 1178 0 
L 603 0 
L 603 4863 
z
" transform="scale(0.015625)"/>
       <path id="DejaVuSans-6f" d="M 1959 3097 
Q 1497 3097 1228 2736 
Q 959 2375 959 1747 
Q 959 1119 1226 758 
Q 1494 397 1959 397 
Q 2419 397 2687 759 
Q 2956 1122 2956 1747 
Q 2956 2369 2687 2733 
Q 2419 3097 1959 3097 
z
M 1959 3584 
Q 2709 3584 3137 3096 
Q 3566 2609 3566 1747 
Q 3566 888 3137 398 
Q 2709 -91 1959 -91 
Q 1206 -91 779 398 
Q 353 888 353 1747 
Q 353 2609 779 3096 
Q 1206 3584 1959 3584 
z
" transform="scale(0.015625)"/>
      </defs>
      <use xlink:href="#DejaVuSans-6e"/>
      <use xlink:href="#DejaVuSans-65" transform="translate(63.378906 0)"/>
      <use xlink:href="#DejaVuSans-78" transform="translate(123.152344 0)"/>
      <use xlink:href="#DejaVuSans-74" transform="translate(182.332031 0)"/>
      <use xlink:href="#DejaVuSans-46" transform="translate(221.541016 0)"/>
      <use xlink:href="#DejaVuSans-61" transform="translate(269.935547 0)"/>
      <use xlink:href="#DejaVuSans-75" transform="translate(331.214844 0)"/>
      <use xlink:href="#DejaVuSans-6c" transform="translate(394.59375 0)"/>
      <use xlink:href="#DejaVuSans-74" transform="translate(422.376953 0)"/>
      <use xlink:href="#DejaVuSans-6c" transform="translate(461.585938 0)"/>
      <use xlink:href="#DejaVuSans-6f" transform="translate(489.369141 0)"/>
      <use xlink:href="#DejaVuSans-61" transform="translate(550.550781 0)"/>
      <use xlink:href="#DejaVuSans-64" transform="translate(611.830078 0)"/>
     </g>
    </g>
   </g>
  </g>
 </g>
 <defs>
  <clipPath id="p47bff0148c">
   <rect x="90" y="51.84" width="558" height="332.64"/>
  </clipPath>
 </defs>
</svg>
