<?xml version="1.0" encoding="utf-8" standalone="no"?>
<!DOCTYPE svg PUBLIC "-//W3C//DTD SVG 1.1//EN"
  "http://www.w3.org/Graphics/SVG/1.1/DTD/svg11.dtd">
<svg xmlns:xlink="http://www.w3.org/1999/xlink" width="720pt" height="432pt" viewBox="0 0 720 432" xmlns="http://www.w3.org/2000/svg" version="1.1">
 <metadata>
  <rdf:RDF xmlns:dc="http://purl.org/dc/elements/1.1/" xmlns:cc="http://creativecommons.org/ns#" xmlns:rdf="http://www.w3.org/1999/02/22-rdf-syntax-ns#">
   <cc:Work>
    <dc:type rdf:resource="http://purl.org/dc/dcmitype/StillImage"/>
    <dc:date>2025-09-30T20:43:24.187178</dc:date>
    <dc:format>image/svg+xml</dc:format>
    <dc:creator>
     <cc:Agent>
      <dc:title>Matplotlib v3.10.3, https://matplotlib.org/</dc:title>
     </cc:Agent>
    </dc:creator>
   </cc:Work>
  </rdf:RDF>
 </metadata>
 <defs>
  <style type="text/css">*{stroke-linejoin: round; stroke-linecap: butt}</style>
 </defs>
 <g id="figure_1">
  <g id="patch_1">
   <path d="M 0 432 
L 720 432 
L 720 0 
L 0 0 
z
" style="fill: #ffffff"/>
  </g>
  <g id="axes_1">
   <g id="patch_2">
    <path d="M 90 384.48 
L 648 384.48 
L 648 51.84 
L 90 51.84 
z
" style="fill: #ffffff"/>
   </g>
   <g id="matplotlib.axis_1">
    <g id="xtick_1">
     <g id="line2d_1">
      <defs>
       <path id="m591855752d" d="M 0 0 
L 0 3.5 
" style="stroke: #000000; stroke-width: 0.8"/>
      </defs>
      <g>
       <use xlink:href="#m591855752d" x="115.363636" y="384.48" style="stroke: #000000; stroke-width: 0.8"/>
      </g>
     </g>
     <g id="text_1">
      <!-- 0 -->
      <g transform="translate(112.182386 399.078438) scale(0.1 -0.1)">
       <defs>
        <path id="DejaVuSans-30" d="M 2034 4250 
Q 1547 4250 1301 3770 
Q 1056 3291 1056 2328 
Q 1056 1369 1301 889 
Q 1547 409 2034 409 
Q 2525 409 2770 889 
Q 3016 1369 3016 2328 
Q 3016 3291 2770 3770 
Q 2525 4250 2034 4250 
z
M 2034 4750 
Q 2819 4750 3233 4129 
Q 3647 3509 3647 2328 
Q 3647 1150 3233 529 
Q 2819 -91 2034 -91 
Q 1250 -91 836 529 
Q 422 1150 422 2328 
Q 422 3509 836 4129 
Q 1250 4750 2034 4750 
z
" transform="scale(0.015625)"/>
       </defs>
       <use xlink:href="#DejaVuSans-30"/>
      </g>
     </g>
    </g>
    <g id="xtick_2">
     <g id="line2d_2">
      <g>
       <use xlink:href="#m591855752d" x="219.355585" y="384.48" style="stroke: #000000; stroke-width: 0.8"/>
      </g>
     </g>
     <g id="text_2">
      <!-- 500 -->
      <g transform="translate(209.811835 399.078438) scale(0.1 -0.1)">
       <defs>
        <path id="DejaVuSans-35" d="M 691 4666 
L 3169 4666 
L 3169 4134 
L 1269 4134 
L 1269 2991 
Q 1406 3038 1543 3061 
Q 1681 3084 1819 3084 
Q 2600 3084 3056 2656 
Q 3513 2228 3513 1497 
Q 3513 744 3044 326 
Q 2575 -91 1722 -91 
Q 1428 -91 1123 -41 
Q 819 9 494 109 
L 494 744 
Q 775 591 1075 516 
Q 1375 441 1709 441 
Q 2250 441 2565 725 
Q 2881 1009 2881 1497 
Q 2881 1984 2565 2268 
Q 2250 2553 1709 2553 
Q 1456 2553 1204 2497 
Q 953 2441 691 2322 
L 691 4666 
z
" transform="scale(0.015625)"/>
       </defs>
       <use xlink:href="#DejaVuSans-35"/>
       <use xlink:href="#DejaVuSans-30" transform="translate(63.623047 0)"/>
       <use xlink:href="#DejaVuSans-30" transform="translate(127.246094 0)"/>
      </g>
     </g>
    </g>
    <g id="xtick_3">
     <g id="line2d_3">
      <g>
       <use xlink:href="#m591855752d" x="323.347534" y="384.48" style="stroke: #000000; stroke-width: 0.8"/>
      </g>
     </g>
     <g id="text_3">
      <!-- 1000 -->
      <g transform="translate(310.622534 399.078438) scale(0.1 -0.1)">
       <defs>
        <path id="DejaVuSans-31" d="M 794 531 
L 1825 531 
L 1825 4091 
L 703 3866 
L 703 4441 
L 1819 4666 
L 2450 4666 
L 2450 531 
L 3481 531 
L 3481 0 
L 794 0 
L 794 531 
z
" transform="scale(0.015625)"/>
       </defs>
       <use xlink:href="#DejaVuSans-31"/>
       <use xlink:href="#DejaVuSans-30" transform="translate(63.623047 0)"/>
       <use xlink:href="#DejaVuSans-30" transform="translate(127.246094 0)"/>
       <use xlink:href="#DejaVuSans-30" transform="translate(190.869141 0)"/>
      </g>
     </g>
    </g>
    <g id="xtick_4">
     <g id="line2d_4">
      <g>
       <use xlink:href="#m591855752d" x="427.339483" y="384.48" style="stroke: #000000; stroke-width: 0.8"/>
      </g>
     </g>
     <g id="text_4">
      <!-- 1500 -->
      <g transform="translate(414.614483 399.078438) scale(0.1 -0.1)">
       <use xlink:href="#DejaVuSans-31"/>
       <use xlink:href="#DejaVuSans-35" transform="translate(63.623047 0)"/>
       <use xlink:href="#DejaVuSans-30" transform="translate(127.246094 0)"/>
       <use xlink:href="#DejaVuSans-30" transform="translate(190.869141 0)"/>
      </g>
     </g>
    </g>
    <g id="xtick_5">
     <g id="line2d_5">
      <g>
       <use xlink:href="#m591855752d" x="531.331432" y="384.48" style="stroke: #000000; stroke-width: 0.8"/>
      </g>
     </g>
     <g id="text_5">
      <!-- 2000 -->
      <g transform="translate(518.606432 399.078438) scale(0.1 -0.1)">
       <defs>
        <path id="DejaVuSans-32" d="M 1228 531 
L 3431 531 
L 3431 0 
L 469 0 
L 469 531 
Q 828 903 1448 1529 
Q 2069 2156 2228 2338 
Q 2531 2678 2651 2914 
Q 2772 3150 2772 3378 
Q 2772 3750 2511 3984 
Q 2250 4219 1831 4219 
Q 1534 4219 1204 4116 
Q 875 4013 500 3803 
L 500 4441 
Q 881 4594 1212 4672 
Q 1544 4750 1819 4750 
Q 2544 4750 2975 4387 
Q 3406 4025 3406 3419 
Q 3406 3131 3298 2873 
Q 3191 2616 2906 2266 
Q 2828 2175 2409 1742 
Q 1991 1309 1228 531 
z
" transform="scale(0.015625)"/>
       </defs>
       <use xlink:href="#DejaVuSans-32"/>
       <use xlink:href="#DejaVuSans-30" transform="translate(63.623047 0)"/>
       <use xlink:href="#DejaVuSans-30" transform="translate(127.246094 0)"/>
       <use xlink:href="#DejaVuSans-30" transform="translate(190.869141 0)"/>
      </g>
     </g>
    </g>
    <g id="xtick_6">
     <g id="line2d_6">
      <g>
       <use xlink:href="#m591855752d" x="635.323381" y="384.48" style="stroke: #000000; stroke-width: 0.8"/>
      </g>
     </g>
     <g id="text_6">
      <!-- 2500 -->
      <g transform="translate(622.598381 399.078438) scale(0.1 -0.1)">
       <use xlink:href="#DejaVuSans-32"/>
       <use xlink:href="#DejaVuSans-35" transform="translate(63.623047 0)"/>
       <use xlink:href="#DejaVuSans-30" transform="translate(127.246094 0)"/>
       <use xlink:href="#DejaVuSans-30" transform="translate(190.869141 0)"/>
      </g>
     </g>
    </g>
    <g id="text_7">
     <!-- Index -->
     <g transform="translate(355.233594 412.756563) scale(0.1 -0.1)">
      <defs>
       <path id="DejaVuSans-49" d="M 628 4666 
L 1259 4666 
L 1259 0 
L 628 0 
L 628 4666 
z
" transform="scale(0.015625)"/>
       <path id="DejaVuSans-6e" d="M 3513 2113 
L 3513 0 
L 2938 0 
L 2938 2094 
Q 2938 2591 2744 2837 
Q 2550 3084 2163 3084 
Q 1697 3084 1428 2787 
Q 1159 2491 1159 1978 
L 1159 0 
L 581 0 
L 581 3500 
L 1159 3500 
L 1159 2956 
Q 1366 3272 1645 3428 
Q 1925 3584 2291 3584 
Q 2894 3584 3203 3211 
Q 3513 2838 3513 2113 
z
" transform="scale(0.015625)"/>
       <path id="DejaVuSans-64" d="M 2906 2969 
L 2906 4863 
L 3481 4863 
L 3481 0 
L 2906 0 
L 2906 525 
Q 2725 213 2448 61 
Q 2172 -91 1784 -91 
Q 1150 -91 751 415 
Q 353 922 353 1747 
Q 353 2572 751 3078 
Q 1150 3584 1784 3584 
Q 2172 3584 2448 3432 
Q 2725 3281 2906 2969 
z
M 947 1747 
Q 947 1113 1208 752 
Q 1469 391 1925 391 
Q 2381 391 2643 752 
Q 2906 1113 2906 1747 
Q 2906 2381 2643 2742 
Q 2381 3103 1925 3103 
Q 1469 3103 1208 2742 
Q 947 2381 947 1747 
z
" transform="scale(0.015625)"/>
       <path id="DejaVuSans-65" d="M 3597 1894 
L 3597 1613 
L 953 1613 
Q 991 1019 1311 708 
Q 1631 397 2203 397 
Q 2534 397 2845 478 
Q 3156 559 3463 722 
L 3463 178 
Q 3153 47 2828 -22 
Q 2503 -91 2169 -91 
Q 1331 -91 842 396 
Q 353 884 353 1716 
Q 353 2575 817 3079 
Q 1281 3584 2069 3584 
Q 2775 3584 3186 3129 
Q 3597 2675 3597 1894 
z
M 3022 2063 
Q 3016 2534 2758 2815 
Q 2500 3097 2075 3097 
Q 1594 3097 1305 2825 
Q 1016 2553 972 2059 
L 3022 2063 
z
" transform="scale(0.015625)"/>
       <path id="DejaVuSans-78" d="M 3513 3500 
L 2247 1797 
L 3578 0 
L 2900 0 
L 1881 1375 
L 863 0 
L 184 0 
L 1544 1831 
L 300 3500 
L 978 3500 
L 1906 2253 
L 2834 3500 
L 3513 3500 
z
" transform="scale(0.015625)"/>
      </defs>
      <use xlink:href="#DejaVuSans-49"/>
      <use xlink:href="#DejaVuSans-6e" transform="translate(29.492188 0)"/>
      <use xlink:href="#DejaVuSans-64" transform="translate(92.871094 0)"/>
      <use xlink:href="#DejaVuSans-65" transform="translate(156.347656 0)"/>
      <use xlink:href="#DejaVuSans-78" transform="translate(216.121094 0)"/>
     </g>
    </g>
   </g>
   <g id="matplotlib.axis_2">
    <g id="ytick_1">
     <g id="line2d_7">
      <defs>
       <path id="m2a86a434f2" d="M 0 0 
L -3.5 0 
" style="stroke: #000000; stroke-width: 0.8"/>
      </defs>
      <g>
       <use xlink:href="#m2a86a434f2" x="90" y="384.48" style="stroke: #000000; stroke-width: 0.8"/>
      </g>
     </g>
     <g id="text_8">
      <!-- 0 -->
      <g transform="translate(76.6375 388.279219) scale(0.1 -0.1)">
       <use xlink:href="#DejaVuSans-30"/>
      </g>
     </g>
    </g>
    <g id="ytick_2">
     <g id="line2d_8">
      <g>
       <use xlink:href="#m2a86a434f2" x="90" y="331.563209" style="stroke: #000000; stroke-width: 0.8"/>
      </g>
     </g>
     <g id="text_9">
      <!-- 20 -->
      <g transform="translate(70.275 335.362428) scale(0.1 -0.1)">
       <use xlink:href="#DejaVuSans-32"/>
       <use xlink:href="#DejaVuSans-30" transform="translate(63.623047 0)"/>
      </g>
     </g>
    </g>
    <g id="ytick_3">
     <g id="line2d_9">
      <g>
       <use xlink:href="#m2a86a434f2" x="90" y="278.646418" style="stroke: #000000; stroke-width: 0.8"/>
      </g>
     </g>
     <g id="text_10">
      <!-- 40 -->
      <g transform="translate(70.275 282.445637) scale(0.1 -0.1)">
       <defs>
        <path id="DejaVuSans-34" d="M 2419 4116 
L 825 1625 
L 2419 1625 
L 2419 4116 
z
M 2253 4666 
L 3047 4666 
L 3047 1625 
L 3713 1625 
L 3713 1100 
L 3047 1100 
L 3047 0 
L 2419 0 
L 2419 1100 
L 313 1100 
L 313 1709 
L 2253 4666 
z
" transform="scale(0.015625)"/>
       </defs>
       <use xlink:href="#DejaVuSans-34"/>
       <use xlink:href="#DejaVuSans-30" transform="translate(63.623047 0)"/>
      </g>
     </g>
    </g>
    <g id="ytick_4">
     <g id="line2d_10">
      <g>
       <use xlink:href="#m2a86a434f2" x="90" y="225.729627" style="stroke: #000000; stroke-width: 0.8"/>
      </g>
     </g>
     <g id="text_11">
      <!-- 60 -->
      <g transform="translate(70.275 229.528846) scale(0.1 -0.1)">
       <defs>
        <path id="DejaVuSans-36" d="M 2113 2584 
Q 1688 2584 1439 2293 
Q 1191 2003 1191 1497 
Q 1191 994 1439 701 
Q 1688 409 2113 409 
Q 2538 409 2786 701 
Q 3034 994 3034 1497 
Q 3034 2003 2786 2293 
Q 2538 2584 2113 2584 
z
M 3366 4563 
L 3366 3988 
Q 3128 4100 2886 4159 
Q 2644 4219 2406 4219 
Q 1781 4219 1451 3797 
Q 1122 3375 1075 2522 
Q 1259 2794 1537 2939 
Q 1816 3084 2150 3084 
Q 2853 3084 3261 2657 
Q 3669 2231 3669 1497 
Q 3669 778 3244 343 
Q 2819 -91 2113 -91 
Q 1303 -91 875 529 
Q 447 1150 447 2328 
Q 447 3434 972 4092 
Q 1497 4750 2381 4750 
Q 2619 4750 2861 4703 
Q 3103 4656 3366 4563 
z
" transform="scale(0.015625)"/>
       </defs>
       <use xlink:href="#DejaVuSans-36"/>
       <use xlink:href="#DejaVuSans-30" transform="translate(63.623047 0)"/>
      </g>
     </g>
    </g>
    <g id="ytick_5">
     <g id="line2d_11">
      <g>
       <use xlink:href="#m2a86a434f2" x="90" y="172.812836" style="stroke: #000000; stroke-width: 0.8"/>
      </g>
     </g>
     <g id="text_12">
      <!-- 80 -->
      <g transform="translate(70.275 176.612055) scale(0.1 -0.1)">
       <defs>
        <path id="DejaVuSans-38" d="M 2034 2216 
Q 1584 2216 1326 1975 
Q 1069 1734 1069 1313 
Q 1069 891 1326 650 
Q 1584 409 2034 409 
Q 2484 409 2743 651 
Q 3003 894 3003 1313 
Q 3003 1734 2745 1975 
Q 2488 2216 2034 2216 
z
M 1403 2484 
Q 997 2584 770 2862 
Q 544 3141 544 3541 
Q 544 4100 942 4425 
Q 1341 4750 2034 4750 
Q 2731 4750 3128 4425 
Q 3525 4100 3525 3541 
Q 3525 3141 3298 2862 
Q 3072 2584 2669 2484 
Q 3125 2378 3379 2068 
Q 3634 1759 3634 1313 
Q 3634 634 3220 271 
Q 2806 -91 2034 -91 
Q 1263 -91 848 271 
Q 434 634 434 1313 
Q 434 1759 690 2068 
Q 947 2378 1403 2484 
z
M 1172 3481 
Q 1172 3119 1398 2916 
Q 1625 2713 2034 2713 
Q 2441 2713 2670 2916 
Q 2900 3119 2900 3481 
Q 2900 3844 2670 4047 
Q 2441 4250 2034 4250 
Q 1625 4250 1398 4047 
Q 1172 3844 1172 3481 
z
" transform="scale(0.015625)"/>
       </defs>
       <use xlink:href="#DejaVuSans-38"/>
       <use xlink:href="#DejaVuSans-30" transform="translate(63.623047 0)"/>
      </g>
     </g>
    </g>
    <g id="ytick_6">
     <g id="line2d_12">
      <g>
       <use xlink:href="#m2a86a434f2" x="90" y="119.896045" style="stroke: #000000; stroke-width: 0.8"/>
      </g>
     </g>
     <g id="text_13">
      <!-- 100 -->
      <g transform="translate(63.9125 123.695263) scale(0.1 -0.1)">
       <use xlink:href="#DejaVuSans-31"/>
       <use xlink:href="#DejaVuSans-30" transform="translate(63.623047 0)"/>
       <use xlink:href="#DejaVuSans-30" transform="translate(127.246094 0)"/>
      </g>
     </g>
    </g>
    <g id="ytick_7">
     <g id="line2d_13">
      <g>
       <use xlink:href="#m2a86a434f2" x="90" y="66.979254" style="stroke: #000000; stroke-width: 0.8"/>
      </g>
     </g>
     <g id="text_14">
      <!-- 120 -->
      <g transform="translate(63.9125 70.778472) scale(0.1 -0.1)">
       <use xlink:href="#DejaVuSans-31"/>
       <use xlink:href="#DejaVuSans-32" transform="translate(63.623047 0)"/>
       <use xlink:href="#DejaVuSans-30" transform="translate(127.246094 0)"/>
      </g>
     </g>
    </g>
    <g id="text_15">
     <!-- Average time (ms) -->
     <g transform="translate(57.832812 264.543594) rotate(-90) scale(0.1 -0.1)">
      <defs>
       <path id="DejaVuSans-41" d="M 2188 4044 
L 1331 1722 
L 3047 1722 
L 2188 4044 
z
M 1831 4666 
L 2547 4666 
L 4325 0 
L 3669 0 
L 3244 1197 
L 1141 1197 
L 716 0 
L 50 0 
L 1831 4666 
z
" transform="scale(0.015625)"/>
       <path id="DejaVuSans-76" d="M 191 3500 
L 800 3500 
L 1894 563 
L 2988 3500 
L 3597 3500 
L 2284 0 
L 1503 0 
L 191 3500 
z
" transform="scale(0.015625)"/>
       <path id="DejaVuSans-72" d="M 2631 2963 
Q 2534 3019 2420 3045 
Q 2306 3072 2169 3072 
Q 1681 3072 1420 2755 
Q 1159 2438 1159 1844 
L 1159 0 
L 581 0 
L 581 3500 
L 1159 3500 
L 1159 2956 
Q 1341 3275 1631 3429 
Q 1922 3584 2338 3584 
Q 2397 3584 2469 3576 
Q 2541 3569 2628 3553 
L 2631 2963 
z
" transform="scale(0.015625)"/>
       <path id="DejaVuSans-61" d="M 2194 1759 
Q 1497 1759 1228 1600 
Q 959 1441 959 1056 
Q 959 750 1161 570 
Q 1363 391 1709 391 
Q 2188 391 2477 730 
Q 2766 1069 2766 1631 
L 2766 1759 
L 2194 1759 
z
M 3341 1997 
L 3341 0 
L 2766 0 
L 2766 531 
Q 2569 213 2275 61 
Q 1981 -91 1556 -91 
Q 1019 -91 701 211 
Q 384 513 384 1019 
Q 384 1609 779 1909 
Q 1175 2209 1959 2209 
L 2766 2209 
L 2766 2266 
Q 2766 2663 2505 2880 
Q 2244 3097 1772 3097 
Q 1472 3097 1187 3025 
Q 903 2953 641 2809 
L 641 3341 
Q 956 3463 1253 3523 
Q 1550 3584 1831 3584 
Q 2591 3584 2966 3190 
Q 3341 2797 3341 1997 
z
" transform="scale(0.015625)"/>
       <path id="DejaVuSans-67" d="M 2906 1791 
Q 2906 2416 2648 2759 
Q 2391 3103 1925 3103 
Q 1463 3103 1205 2759 
Q 947 2416 947 1791 
Q 947 1169 1205 825 
Q 1463 481 1925 481 
Q 2391 481 2648 825 
Q 2906 1169 2906 1791 
z
M 3481 434 
Q 3481 -459 3084 -895 
Q 2688 -1331 1869 -1331 
Q 1566 -1331 1297 -1286 
Q 1028 -1241 775 -1147 
L 775 -588 
Q 1028 -725 1275 -790 
Q 1522 -856 1778 -856 
Q 2344 -856 2625 -561 
Q 2906 -266 2906 331 
L 2906 616 
Q 2728 306 2450 153 
Q 2172 0 1784 0 
Q 1141 0 747 490 
Q 353 981 353 1791 
Q 353 2603 747 3093 
Q 1141 3584 1784 3584 
Q 2172 3584 2450 3431 
Q 2728 3278 2906 2969 
L 2906 3500 
L 3481 3500 
L 3481 434 
z
" transform="scale(0.015625)"/>
       <path id="DejaVuSans-20" transform="scale(0.015625)"/>
       <path id="DejaVuSans-74" d="M 1172 4494 
L 1172 3500 
L 2356 3500 
L 2356 3053 
L 1172 3053 
L 1172 1153 
Q 1172 725 1289 603 
Q 1406 481 1766 481 
L 2356 481 
L 2356 0 
L 1766 0 
Q 1100 0 847 248 
Q 594 497 594 1153 
L 594 3053 
L 172 3053 
L 172 3500 
L 594 3500 
L 594 4494 
L 1172 4494 
z
" transform="scale(0.015625)"/>
       <path id="DejaVuSans-69" d="M 603 3500 
L 1178 3500 
L 1178 0 
L 603 0 
L 603 3500 
z
M 603 4863 
L 1178 4863 
L 1178 4134 
L 603 4134 
L 603 4863 
z
" transform="scale(0.015625)"/>
       <path id="DejaVuSans-6d" d="M 3328 2828 
Q 3544 3216 3844 3400 
Q 4144 3584 4550 3584 
Q 5097 3584 5394 3201 
Q 5691 2819 5691 2113 
L 5691 0 
L 5113 0 
L 5113 2094 
Q 5113 2597 4934 2840 
Q 4756 3084 4391 3084 
Q 3944 3084 3684 2787 
Q 3425 2491 3425 1978 
L 3425 0 
L 2847 0 
L 2847 2094 
Q 2847 2600 2669 2842 
Q 2491 3084 2119 3084 
Q 1678 3084 1418 2786 
Q 1159 2488 1159 1978 
L 1159 0 
L 581 0 
L 581 3500 
L 1159 3500 
L 1159 2956 
Q 1356 3278 1631 3431 
Q 1906 3584 2284 3584 
Q 2666 3584 2933 3390 
Q 3200 3197 3328 2828 
z
" transform="scale(0.015625)"/>
       <path id="DejaVuSans-28" d="M 1984 4856 
Q 1566 4138 1362 3434 
Q 1159 2731 1159 2009 
Q 1159 1288 1364 580 
Q 1569 -128 1984 -844 
L 1484 -844 
Q 1016 -109 783 600 
Q 550 1309 550 2009 
Q 550 2706 781 3412 
Q 1013 4119 1484 4856 
L 1984 4856 
z
" transform="scale(0.015625)"/>
       <path id="DejaVuSans-73" d="M 2834 3397 
L 2834 2853 
Q 2591 2978 2328 3040 
Q 2066 3103 1784 3103 
Q 1356 3103 1142 2972 
Q 928 2841 928 2578 
Q 928 2378 1081 2264 
Q 1234 2150 1697 2047 
L 1894 2003 
Q 2506 1872 2764 1633 
Q 3022 1394 3022 966 
Q 3022 478 2636 193 
Q 2250 -91 1575 -91 
Q 1294 -91 989 -36 
Q 684 19 347 128 
L 347 722 
Q 666 556 975 473 
Q 1284 391 1588 391 
Q 1994 391 2212 530 
Q 2431 669 2431 922 
Q 2431 1156 2273 1281 
Q 2116 1406 1581 1522 
L 1381 1569 
Q 847 1681 609 1914 
Q 372 2147 372 2553 
Q 372 3047 722 3315 
Q 1072 3584 1716 3584 
Q 2034 3584 2315 3537 
Q 2597 3491 2834 3397 
z
" transform="scale(0.015625)"/>
       <path id="DejaVuSans-29" d="M 513 4856 
L 1013 4856 
Q 1481 4119 1714 3412 
Q 1947 2706 1947 2009 
Q 1947 1309 1714 600 
Q 1481 -109 1013 -844 
L 513 -844 
Q 928 -128 1133 580 
Q 1338 1288 1338 2009 
Q 1338 2731 1133 3434 
Q 928 4138 513 4856 
z
" transform="scale(0.015625)"/>
      </defs>
      <use xlink:href="#DejaVuSans-41"/>
      <use xlink:href="#DejaVuSans-76" transform="translate(62.533203 0)"/>
      <use xlink:href="#DejaVuSans-65" transform="translate(121.712891 0)"/>
      <use xlink:href="#DejaVuSans-72" transform="translate(183.236328 0)"/>
      <use xlink:href="#DejaVuSans-61" transform="translate(224.349609 0)"/>
      <use xlink:href="#DejaVuSans-67" transform="translate(285.628906 0)"/>
      <use xlink:href="#DejaVuSans-65" transform="translate(349.105469 0)"/>
      <use xlink:href="#DejaVuSans-20" transform="translate(410.628906 0)"/>
      <use xlink:href="#DejaVuSans-74" transform="translate(442.416016 0)"/>
      <use xlink:href="#DejaVuSans-69" transform="translate(481.625 0)"/>
      <use xlink:href="#DejaVuSans-6d" transform="translate(509.408203 0)"/>
      <use xlink:href="#DejaVuSans-65" transform="translate(606.820312 0)"/>
      <use xlink:href="#DejaVuSans-20" transform="translate(668.34375 0)"/>
      <use xlink:href="#DejaVuSans-28" transform="translate(700.130859 0)"/>
      <use xlink:href="#DejaVuSans-6d" transform="translate(739.144531 0)"/>
      <use xlink:href="#DejaVuSans-73" transform="translate(836.556641 0)"/>
      <use xlink:href="#DejaVuSans-29" transform="translate(888.65625 0)"/>
     </g>
    </g>
   </g>
   <g id="line2d_14">
    <path d="M 115.363636 67.297043 
L 115.57162 324.343648 
L 115.779604 371.608753 
L 115.987588 372.362718 
L 116.195572 372.647343 
L 116.403556 369.055641 
L 117.027508 372.632141 
L 117.235491 372.888377 
L 117.443475 374.361239 
L 117.651459 371.13345 
L 118.275411 372.315786 
L 118.691379 372.08874 
L 118.899363 373.600552 
L 119.31533 372.757507 
L 119.731298 373.734542 
L 119.939282 373.9804 
L 120.147266 373.980573 
L 120.35525 371.671157 
L 121.395169 373.220248 
L 121.603153 373.208477 
L 121.811137 373.003901 
L 122.019121 373.154617 
L 122.643073 374.104443 
L 122.851057 372.781424 
L 123.059041 374.23733 
L 123.267024 373.990583 
L 123.475008 372.689019 
L 123.682992 372.452747 
L 124.09896 374.39694 
L 124.306944 374.166926 
L 124.514928 374.778391 
L 124.930896 372.570524 
L 125.13888 374.009337 
L 125.554847 372.504696 
L 125.762831 373.975188 
L 125.970815 373.025377 
L 126.178799 374.011622 
L 126.386783 373.477085 
L 126.594767 374.567963 
L 126.802751 373.53545 
L 127.010735 373.348198 
L 127.218719 373.440484 
L 127.426702 372.987168 
L 127.634686 374.203779 
L 127.84267 373.829908 
L 128.050654 372.988468 
L 128.258638 373.816923 
L 128.466622 372.646123 
L 128.674606 373.899966 
L 128.88259 373.446921 
L 129.298558 374.828165 
L 129.506541 374.647079 
L 129.714525 372.59379 
L 129.922509 373.890374 
L 130.338477 373.846491 
L 130.754445 374.639684 
L 130.962429 374.428179 
L 131.170413 371.600219 
L 131.378397 374.246689 
L 131.58638 374.705829 
L 132.002348 373.657244 
L 132.210332 374.305563 
L 132.418316 374.346005 
L 132.6263 374.217728 
L 133.250252 373.232934 
L 133.458235 374.212113 
L 133.666219 374.3907 
L 133.874203 375.200284 
L 134.290171 373.804233 
L 134.498155 374.420076 
L 134.706139 373.283388 
L 135.122107 373.996822 
L 135.330091 373.273025 
L 135.538074 374.478276 
L 135.746058 374.460319 
L 135.954042 374.786433 
L 136.162026 374.210511 
L 136.37001 374.612893 
L 136.785978 373.365778 
L 136.993962 374.655139 
L 137.201946 374.586951 
L 137.40993 374.371729 
L 137.617913 374.814406 
L 137.825897 374.795813 
L 138.033881 372.009763 
L 138.241865 374.852565 
L 138.449849 374.874668 
L 139.073801 374.372376 
L 139.281785 374.172252 
L 139.489769 373.711273 
L 139.697752 374.453231 
L 139.905736 374.703722 
L 140.11372 375.296752 
L 140.321704 373.685452 
L 140.529688 374.167963 
L 140.737672 374.123627 
L 140.945656 374.617798 
L 141.15364 374.682849 
L 141.361624 375.002217 
L 141.777591 373.959432 
L 141.985575 373.964801 
L 142.401543 374.581373 
L 142.609527 374.155863 
L 143.025495 374.722418 
L 143.233479 374.095585 
L 143.441463 371.101687 
L 143.649446 373.849962 
L 143.85743 374.417393 
L 144.065414 372.13298 
L 144.481382 374.732191 
L 144.689366 372.972071 
L 144.89735 374.613164 
L 145.105334 373.140126 
L 145.313318 374.517888 
L 145.521302 373.628136 
L 145.937269 375.148252 
L 146.145253 375.063979 
L 146.561221 374.345564 
L 146.769205 374.537381 
L 146.977189 374.494521 
L 147.185173 374.596461 
L 147.393157 374.511911 
L 147.601141 374.786866 
L 147.809124 374.745083 
L 148.017108 374.548758 
L 148.225092 375.449919 
L 148.433076 373.960276 
L 148.64106 373.666431 
L 148.849044 374.568434 
L 149.265012 373.895731 
L 149.472996 374.715194 
L 149.68098 374.569563 
L 149.888963 374.974685 
L 150.304931 373.932142 
L 150.512915 374.954252 
L 150.720899 374.322177 
L 150.928883 375.016615 
L 151.136867 374.647871 
L 151.552835 375.182152 
L 151.968802 374.723645 
L 152.176786 375.162241 
L 152.38477 374.780544 
L 152.592754 373.987005 
L 152.800738 375.329478 
L 153.008722 374.137014 
L 153.216706 374.095109 
L 153.42469 374.625203 
L 153.632674 374.822265 
L 154.048641 374.49816 
L 154.256625 374.888878 
L 154.672593 374.725429 
L 154.880577 374.612206 
L 155.088561 373.996898 
L 155.296545 374.25389 
L 155.504529 374.988554 
L 155.712513 374.556471 
L 155.920496 373.258207 
L 156.12848 374.557477 
L 156.544448 375.256919 
L 156.752432 373.836901 
L 156.960416 374.670585 
L 157.1684 374.795607 
L 157.376384 374.475886 
L 157.584368 375.420862 
L 157.792352 374.707709 
L 158.000335 375.394387 
L 158.208319 375.402462 
L 158.416303 375.603724 
L 158.624287 374.895665 
L 158.832271 375.278955 
L 159.040255 374.492366 
L 159.248239 375.019903 
L 159.456223 374.219515 
L 159.664207 374.896107 
L 159.872191 374.350419 
L 160.080174 375.174756 
L 160.288158 374.247431 
L 160.704126 374.742353 
L 160.91211 374.222599 
L 161.120094 375.20316 
L 161.328078 374.538872 
L 161.536062 374.294457 
L 161.744046 373.210377 
L 161.95203 372.991259 
L 162.367997 375.227527 
L 162.783965 375.234289 
L 162.991949 373.760753 
L 163.199933 375.014361 
L 163.407917 375.145808 
L 163.615901 374.874567 
L 163.823885 375.248365 
L 164.031869 373.641702 
L 164.239852 375.400944 
L 164.447836 375.641888 
L 164.65582 375.026158 
L 164.863804 375.396215 
L 165.279772 374.226568 
L 165.487756 375.076118 
L 165.69574 375.100485 
L 165.903724 374.814337 
L 166.111707 375.267618 
L 166.319691 374.911273 
L 166.527675 374.785857 
L 166.735659 374.191501 
L 166.943643 374.959719 
L 167.151627 374.989932 
L 167.359611 374.569721 
L 167.567595 375.264528 
L 167.775579 374.985289 
L 167.983563 373.422752 
L 168.191546 374.998026 
L 168.607514 374.269737 
L 168.815498 373.638142 
L 169.023482 374.772159 
L 169.231466 374.011001 
L 169.43945 374.58373 
L 169.647434 374.3832 
L 170.063402 375.51348 
L 170.479369 374.731937 
L 170.687353 373.850224 
L 170.895337 374.938849 
L 171.103321 374.209812 
L 171.311305 374.42138 
L 171.519289 375.886045 
L 171.727273 375.632631 
L 171.935257 375.049686 
L 172.143241 374.881009 
L 172.559208 374.130784 
L 172.767192 375.240125 
L 173.18316 374.184825 
L 173.391144 374.65763 
L 173.599128 374.302468 
L 173.807112 375.167675 
L 174.22308 374.624118 
L 174.431063 374.637369 
L 174.639047 374.004739 
L 174.847031 375.075842 
L 175.055015 374.864119 
L 175.678967 374.895678 
L 175.886951 374.26527 
L 176.094935 375.278612 
L 176.302918 375.369293 
L 176.510902 374.355839 
L 176.718886 375.335783 
L 176.92687 374.293983 
L 177.134854 375.090916 
L 177.550822 371.627342 
L 177.758806 374.865457 
L 177.96679 374.482599 
L 178.174774 374.563404 
L 178.382757 375.410468 
L 178.590741 374.758719 
L 178.798725 374.953253 
L 179.006709 375.43221 
L 179.214693 374.915506 
L 179.422677 374.728355 
L 179.630661 375.400865 
L 179.838645 374.754299 
L 180.046629 374.979388 
L 180.254613 374.764424 
L 180.462596 375.061316 
L 180.67058 374.940233 
L 180.878564 372.472813 
L 181.086548 374.918793 
L 181.294532 375.264593 
L 181.502516 374.961023 
L 181.7105 375.066172 
L 181.918484 373.610414 
L 182.126468 375.449708 
L 182.542435 374.685738 
L 182.750419 375.551598 
L 182.958403 375.485713 
L 183.166387 375.289942 
L 183.374371 375.49084 
L 183.790339 375.410851 
L 183.998323 376.086396 
L 184.206307 375.054638 
L 184.414291 374.866794 
L 184.830258 375.294427 
L 185.038242 374.2429 
L 185.246226 374.472008 
L 185.45421 375.596212 
L 185.662194 375.720005 
L 185.870178 375.696883 
L 186.078162 375.841184 
L 186.286146 375.270578 
L 186.702113 375.610814 
L 186.910097 375.564171 
L 187.118081 375.733576 
L 187.742033 375.566856 
L 188.158001 374.856381 
L 188.781952 375.18128 
L 188.989936 375.552781 
L 189.19792 375.567565 
L 189.405904 375.702186 
L 189.613888 374.319364 
L 190.029856 375.21957 
L 190.445824 374.206003 
L 190.653807 375.319169 
L 190.861791 375.404441 
L 191.069775 374.503247 
L 191.277759 375.025895 
L 191.485743 375.02061 
L 191.693727 375.444789 
L 191.901711 375.351607 
L 192.317679 373.839465 
L 192.525663 373.589062 
L 192.94163 375.731862 
L 193.149614 375.560092 
L 193.357598 375.192358 
L 193.565582 375.592789 
L 193.773566 375.487901 
L 193.98155 375.551896 
L 194.397518 374.663816 
L 194.605502 374.640181 
L 194.813485 373.899061 
L 195.021469 374.79672 
L 195.229453 374.691621 
L 195.437437 374.780523 
L 195.645421 375.591672 
L 195.853405 374.219067 
L 196.061389 374.978694 
L 196.269373 374.814346 
L 196.477357 375.522134 
L 196.68534 374.722099 
L 196.893324 374.516489 
L 197.101308 373.769527 
L 197.309292 375.095559 
L 197.517276 374.758549 
L 197.72526 375.83945 
L 198.141228 375.449898 
L 198.349212 375.725469 
L 198.557196 375.642331 
L 198.973163 375.694458 
L 199.181147 374.381686 
L 199.389131 375.949705 
L 199.597115 375.71428 
L 200.013083 375.499396 
L 200.429051 375.169232 
L 200.637035 376.049229 
L 200.845018 374.966541 
L 201.053002 375.605935 
L 201.260986 374.523285 
L 201.46897 375.019218 
L 201.676954 372.906479 
L 201.884938 374.586361 
L 202.092922 372.751022 
L 202.300906 375.068653 
L 202.50889 375.393543 
L 202.716874 375.142373 
L 203.132841 375.162216 
L 203.340825 375.443339 
L 203.548809 374.282864 
L 203.964777 375.961213 
L 204.172761 375.954324 
L 204.380745 375.462392 
L 204.588729 375.536162 
L 204.796713 374.896617 
L 205.21268 376.012558 
L 205.628648 375.296751 
L 206.044616 375.253221 
L 206.2526 375.036621 
L 206.460584 375.333358 
L 206.668568 374.720074 
L 206.876551 375.597847 
L 207.084535 374.872384 
L 207.292519 375.792114 
L 207.500503 375.302363 
L 207.708487 375.281224 
L 207.916471 375.666074 
L 208.124455 375.547559 
L 208.332439 375.666701 
L 208.540423 375.351351 
L 208.95639 375.833991 
L 209.164374 375.186056 
L 209.580342 375.448107 
L 209.788326 374.990712 
L 209.99631 375.547494 
L 210.204294 375.44159 
L 210.828246 375.635283 
L 211.244213 374.839526 
L 211.452197 375.521734 
L 211.660181 373.372227 
L 211.868165 375.606007 
L 212.284133 375.296776 
L 212.492117 375.719869 
L 212.700101 375.268318 
L 212.908085 375.801211 
L 213.116068 375.315927 
L 213.324052 375.825601 
L 213.532036 375.897384 
L 213.74002 373.278737 
L 214.155988 376.124003 
L 214.571956 375.356841 
L 214.77994 375.706002 
L 214.987924 375.832397 
L 215.195907 372.062861 
L 215.403891 375.638736 
L 215.819859 375.74652 
L 216.027843 375.716154 
L 216.235827 375.82225 
L 216.443811 375.031081 
L 217.067762 375.572704 
L 217.48373 375.629468 
L 217.691714 374.991293 
L 217.899698 375.246331 
L 218.107682 374.80249 
L 218.315666 375.562614 
L 218.52365 375.757562 
L 218.939618 375.31482 
L 219.147601 374.812131 
L 219.563569 375.761192 
L 219.771553 375.254238 
L 219.979537 375.891285 
L 220.187521 375.360391 
L 220.395505 375.542209 
L 220.603489 374.960902 
L 220.811473 375.984663 
L 221.019457 375.959507 
L 221.22744 375.470089 
L 221.435424 375.291567 
L 221.643408 374.327517 
L 221.851392 374.966591 
L 222.26736 375.084461 
L 222.475344 375.929012 
L 222.891312 374.51293 
L 223.099296 375.53005 
L 223.307279 375.719782 
L 223.515263 374.749053 
L 223.723247 375.572286 
L 223.931231 375.713367 
L 224.139215 374.749699 
L 224.347199 375.484015 
L 224.555183 374.287381 
L 224.763167 375.303039 
L 224.971151 375.255661 
L 225.179135 373.412444 
L 225.387118 375.209318 
L 225.595102 375.262097 
L 225.803086 375.005739 
L 226.01107 375.565482 
L 226.219054 375.779933 
L 226.427038 374.993377 
L 226.635022 375.57162 
L 227.05099 375.257084 
L 227.258973 375.858291 
L 227.466957 375.050519 
L 227.674941 375.376741 
L 227.882925 374.514371 
L 228.090909 374.584943 
L 228.298893 375.446239 
L 228.506877 375.602288 
L 228.922845 374.017927 
L 229.130829 374.394554 
L 229.338812 374.15805 
L 229.546796 375.31083 
L 229.75478 374.967552 
L 230.170748 375.749022 
L 230.378732 375.429965 
L 230.586716 375.413853 
L 230.7947 375.741427 
L 231.210668 375.710035 
L 231.418651 375.427049 
L 231.626635 375.780274 
L 231.834619 375.128643 
L 232.042603 375.819246 
L 232.250587 375.366397 
L 232.458571 375.584134 
L 232.874539 374.363249 
L 233.290507 375.853093 
L 234.330426 374.887937 
L 234.53841 375.735067 
L 234.746394 375.87615 
L 234.954378 375.199311 
L 235.162362 375.463508 
L 235.370346 375.461095 
L 235.578329 375.706202 
L 235.786313 375.746313 
L 235.994297 375.989056 
L 236.202281 375.968044 
L 236.410265 375.538522 
L 236.618249 375.737482 
L 236.826233 375.382439 
L 237.034217 375.491245 
L 237.242201 375.90588 
L 237.450185 375.469824 
L 237.658168 375.827629 
L 237.866152 375.300627 
L 238.074136 375.090567 
L 238.28212 375.693228 
L 238.698088 375.46641 
L 239.114056 374.474577 
L 239.530023 375.533909 
L 239.738007 375.28115 
L 239.945991 375.653923 
L 240.153975 375.205924 
L 240.361959 375.844882 
L 240.569943 375.472984 
L 240.777927 374.80912 
L 240.985911 375.699777 
L 241.193895 375.71105 
L 241.401879 374.10262 
L 241.609862 371.492675 
L 241.817846 375.215426 
L 242.02583 374.851604 
L 242.233814 375.789878 
L 242.441798 375.561842 
L 242.649782 374.834909 
L 242.857766 374.987027 
L 243.06575 374.610293 
L 243.481718 375.550617 
L 243.689701 375.161921 
L 244.105669 375.723924 
L 244.313653 375.697792 
L 244.521637 373.001154 
L 244.729621 375.386665 
L 244.937605 375.006848 
L 245.145589 375.143841 
L 245.353573 375.593747 
L 245.561557 375.496028 
L 245.76954 375.848442 
L 245.977524 375.603145 
L 246.393492 374.86731 
L 246.80946 375.430786 
L 247.017444 375.250782 
L 247.225428 374.767564 
L 247.433412 375.097562 
L 247.849379 374.060688 
L 248.265347 374.22885 
L 248.473331 375.213525 
L 248.889299 375.591363 
L 249.097283 374.745108 
L 249.305267 375.724676 
L 249.929218 375.673532 
L 250.137202 375.473127 
L 250.345186 375.86745 
L 250.55317 374.543669 
L 250.761154 375.057741 
L 250.969138 375.229606 
L 251.385106 375.927488 
L 251.801073 374.890567 
L 252.009057 375.384534 
L 252.217041 375.059871 
L 252.633009 375.663652 
L 252.840993 375.104769 
L 253.048977 375.319116 
L 253.256961 375.213639 
L 253.464945 375.69198 
L 253.672929 375.686388 
L 253.880912 375.854231 
L 254.29688 375.38128 
L 254.504864 375.915979 
L 254.712848 375.562552 
L 254.920832 376.065631 
L 255.128816 375.407905 
L 255.3368 375.21664 
L 255.544784 375.722396 
L 255.752768 375.758815 
L 255.960751 374.529918 
L 256.168735 375.449672 
L 256.584703 375.76595 
L 257.000671 375.157815 
L 257.208655 375.667941 
L 257.624623 375.020904 
L 258.04059 375.531725 
L 258.248574 375.525178 
L 258.456558 375.309009 
L 258.664542 375.510636 
L 258.872526 375.134228 
L 259.08051 375.32396 
L 259.288494 375.854625 
L 259.496478 375.438752 
L 259.704462 375.997897 
L 259.912445 374.946734 
L 260.120429 375.110609 
L 260.536397 375.769382 
L 260.744381 375.317012 
L 260.952365 372.88241 
L 261.160349 375.792651 
L 261.368333 375.177169 
L 261.576317 375.754579 
L 261.784301 374.824417 
L 261.992284 375.845807 
L 262.200268 375.537807 
L 262.408252 375.721393 
L 262.616236 375.505424 
L 262.82422 374.73675 
L 263.032204 375.520211 
L 263.240188 373.931961 
L 263.448172 375.440204 
L 263.656156 375.698379 
L 263.86414 375.198878 
L 264.072123 375.451881 
L 264.280107 375.972453 
L 264.488091 375.742581 
L 264.696075 375.192201 
L 265.112043 375.594342 
L 265.528011 375.362847 
L 265.735995 375.674453 
L 265.943979 375.697426 
L 266.359946 375.906268 
L 266.56793 375.952698 
L 266.983898 375.474374 
L 267.399866 375.739329 
L 267.60785 375.554162 
L 267.815834 375.523666 
L 268.023818 375.756944 
L 268.231801 375.207584 
L 268.647769 375.56817 
L 268.855753 372.104658 
L 269.063737 375.682029 
L 269.479705 374.600255 
L 269.687689 375.701505 
L 270.103656 375.28667 
L 270.31164 375.439195 
L 270.519624 375.267343 
L 270.727608 374.862376 
L 270.935592 375.285834 
L 271.143576 375.357057 
L 271.559544 375.655394 
L 271.767528 375.638683 
L 272.391479 375.230046 
L 272.599463 375.207134 
L 272.807447 375.93617 
L 273.015431 375.392315 
L 273.223415 375.400418 
L 273.431399 375.212486 
L 273.639383 375.887966 
L 273.847367 375.826289 
L 274.263334 375.247031 
L 274.471318 375.291494 
L 274.679302 374.864858 
L 274.887286 374.8105 
L 275.09527 375.73409 
L 275.511238 376.108049 
L 275.927206 375.656198 
L 276.343173 376.02781 
L 276.551157 375.346608 
L 276.759141 375.193181 
L 277.175109 375.822876 
L 277.383093 375.644896 
L 277.591077 375.769887 
L 277.799061 375.261115 
L 278.007045 374.077007 
L 278.215029 374.308056 
L 278.630996 375.406571 
L 278.83898 374.380631 
L 279.046964 375.465448 
L 279.254948 375.248081 
L 279.462932 375.553689 
L 279.670916 375.456908 
L 280.086884 374.962279 
L 280.294867 375.623021 
L 280.502851 373.172595 
L 280.710835 375.340659 
L 280.918819 375.309584 
L 281.126803 375.671546 
L 281.334787 374.728062 
L 281.542771 375.427454 
L 281.750755 375.13549 
L 281.958739 375.221501 
L 282.166723 375.54431 
L 282.374706 374.844456 
L 282.58269 374.937241 
L 282.790674 375.403299 
L 282.998658 375.530074 
L 283.206642 373.685952 
L 283.414626 375.138495 
L 283.830594 375.86388 
L 284.038578 375.473548 
L 284.246562 375.458171 
L 284.454545 374.855398 
L 284.662529 375.031499 
L 284.870513 375.706861 
L 285.078497 375.034492 
L 285.494465 376.048406 
L 285.702449 375.409454 
L 286.118417 375.282364 
L 286.326401 375.574821 
L 286.534384 375.157085 
L 286.742368 375.226293 
L 287.158336 375.799895 
L 287.574304 375.534266 
L 287.782288 375.786127 
L 287.990272 375.263996 
L 288.198256 375.512769 
L 288.40624 375.132857 
L 288.614223 375.808694 
L 288.822207 371.847165 
L 289.030191 375.917975 
L 289.654143 375.026984 
L 289.862127 375.636207 
L 290.070111 374.849943 
L 290.278095 375.575371 
L 290.486078 375.31168 
L 291.11003 375.916877 
L 291.318014 375.694404 
L 291.525998 375.266173 
L 291.733982 375.167845 
L 291.941966 376.211468 
L 292.14995 375.639578 
L 292.357934 375.849414 
L 292.565917 375.329666 
L 292.773901 375.918808 
L 292.981885 375.710407 
L 293.189869 376.034285 
L 293.397853 375.735377 
L 293.605837 375.834301 
L 293.813821 375.631216 
L 294.021805 374.92138 
L 294.229789 375.579119 
L 294.437773 375.432096 
L 294.85374 375.503131 
L 295.061724 375.65261 
L 295.269708 375.536021 
L 295.477692 375.673478 
L 295.685676 375.247121 
L 296.101644 375.939266 
L 296.309628 375.499215 
L 296.517612 375.931112 
L 296.725595 375.14937 
L 296.933579 375.732375 
L 297.141563 375.474038 
L 297.349547 375.498471 
L 297.765515 375.895878 
L 297.973499 375.440254 
L 298.181483 376.008487 
L 298.597451 375.583843 
L 298.805434 375.84622 
L 299.013418 375.184537 
L 299.221402 375.824075 
L 299.63737 375.565207 
L 299.845354 375.837555 
L 300.053338 374.809867 
L 300.469306 375.640806 
L 300.67729 375.277785 
L 300.885273 375.183491 
L 301.093257 376.025306 
L 301.301241 375.049159 
L 301.509225 374.621285 
L 301.717209 375.256705 
L 302.341161 375.889433 
L 302.549145 375.773881 
L 302.757128 374.974139 
L 302.965112 375.964358 
L 303.38108 375.220782 
L 303.589064 374.597247 
L 303.797048 375.71287 
L 304.005032 375.989388 
L 304.213016 375.85828 
L 304.421 375.543441 
L 304.628984 375.597707 
L 304.836967 375.891174 
L 305.044951 375.707644 
L 305.252935 375.69824 
L 305.460919 375.853313 
L 305.668903 375.735932 
L 305.876887 375.851483 
L 306.084871 375.545004 
L 306.500839 375.845639 
L 306.708823 375.609165 
L 306.916806 375.757654 
L 307.12479 375.190304 
L 307.332774 375.274438 
L 307.540758 374.521436 
L 307.748742 375.36376 
L 307.956726 375.609805 
L 308.16471 374.842567 
L 308.372694 375.61186 
L 308.580678 375.798933 
L 308.788662 375.650186 
L 308.996645 375.73455 
L 309.204629 376.271007 
L 309.412613 375.88904 
L 309.620597 375.870965 
L 309.828581 376.111469 
L 310.036565 375.099656 
L 310.244549 375.843396 
L 310.452533 375.531504 
L 310.660517 375.570823 
L 310.868501 375.91776 
L 311.284468 375.403578 
L 311.492452 372.071903 
L 311.700436 375.269139 
L 311.90842 375.88911 
L 312.116404 370.692539 
L 312.324388 375.122653 
L 312.532372 368.446193 
L 312.740356 375.63788 
L 312.948339 375.687974 
L 313.156323 374.950832 
L 313.364307 375.75418 
L 313.572291 374.919919 
L 313.780275 375.442823 
L 314.196243 375.761169 
L 314.404227 375.432644 
L 314.612211 375.856766 
L 314.820195 375.946299 
L 315.028178 375.270976 
L 315.236162 375.617483 
L 315.444146 374.292252 
L 315.65213 375.820982 
L 315.860114 375.624122 
L 316.068098 376.084414 
L 316.276082 375.261742 
L 316.484066 375.872342 
L 316.69205 375.307128 
L 317.108017 375.314241 
L 317.316001 376.025321 
L 317.523985 375.244053 
L 317.731969 375.641199 
L 317.939953 375.775813 
L 318.355921 375.472015 
L 318.563905 375.792181 
L 318.771889 373.910574 
L 318.979873 375.589902 
L 319.187856 375.553921 
L 319.39584 375.340117 
L 319.603824 375.530729 
L 319.811808 375.026636 
L 320.019792 375.254261 
L 320.227776 375.914075 
L 320.43576 373.997443 
L 320.643744 375.632378 
L 320.851728 375.775811 
L 321.059712 375.583558 
L 321.475679 375.853022 
L 321.683663 375.495213 
L 321.891647 375.650054 
L 322.099631 375.665862 
L 322.307615 375.549151 
L 322.515599 375.228658 
L 322.723583 375.79593 
L 322.931567 375.196233 
L 323.13955 375.444977 
L 323.347534 375.416828 
L 323.555518 375.730305 
L 323.763502 374.737207 
L 323.971486 375.410802 
L 324.17947 375.639202 
L 324.595438 375.293978 
L 324.803422 376.144484 
L 325.011406 375.198864 
L 325.219389 375.888417 
L 325.427373 375.713078 
L 325.635357 371.324706 
L 325.843341 375.54814 
L 326.259309 375.672778 
L 326.467293 376.016349 
L 326.675277 375.649877 
L 326.883261 375.963978 
L 327.091245 375.68956 
L 327.299228 373.860543 
L 327.507212 375.602662 
L 327.715196 375.502509 
L 327.92318 374.835475 
L 328.131164 375.53286 
L 328.339148 375.690907 
L 328.547132 375.629451 
L 328.755116 376.052818 
L 328.9631 375.956196 
L 329.171084 374.633147 
L 329.587051 375.423044 
L 330.211003 375.750014 
L 330.418987 376.126131 
L 330.626971 375.368825 
L 330.834955 375.213071 
L 331.042939 375.912191 
L 331.250923 376.039878 
L 331.458906 375.790673 
L 331.66689 376.047444 
L 332.082858 375.819801 
L 332.290842 375.870577 
L 332.70681 375.485096 
L 332.914794 375.734908 
L 333.122778 375.343007 
L 333.330761 375.686384 
L 333.538745 374.796182 
L 333.954713 375.552248 
L 334.162697 375.317405 
L 334.578665 375.870507 
L 334.994633 375.452546 
L 335.202617 375.991347 
L 335.4106 375.675919 
L 335.618584 375.833484 
L 335.826568 375.590885 
L 336.034552 375.875499 
L 336.242536 375.532222 
L 336.45052 374.215801 
L 336.658504 375.528923 
L 336.866488 375.76947 
L 337.074472 375.449055 
L 337.282456 375.606545 
L 337.490439 375.599428 
L 337.698423 375.813292 
L 337.906407 375.598611 
L 338.114391 375.880901 
L 338.322375 375.687499 
L 338.530359 375.118004 
L 338.738343 375.463606 
L 338.946327 363.993158 
L 339.154311 375.357403 
L 339.362295 375.588746 
L 339.570278 373.300487 
L 339.778262 375.740101 
L 340.19423 375.8975 
L 340.402214 375.663865 
L 340.610198 375.859569 
L 341.026166 375.448378 
L 341.23415 375.664117 
L 341.442134 375.579694 
L 341.650117 375.196289 
L 342.066085 375.996301 
L 342.274069 375.777145 
L 342.482053 376.284447 
L 342.690037 370.076247 
L 342.898021 376.036381 
L 343.313989 375.503084 
L 343.521972 375.860716 
L 343.729956 375.66799 
L 343.93794 376.046363 
L 344.145924 375.905961 
L 344.353908 374.95285 
L 344.561892 375.715894 
L 344.769876 375.745125 
L 344.97786 375.61794 
L 345.185844 376.099542 
L 345.393828 375.648189 
L 345.809795 376.019029 
L 346.017779 375.630666 
L 346.225763 375.767141 
L 346.641731 375.454626 
L 346.849715 375.646798 
L 347.057699 375.545154 
L 347.473667 375.928174 
L 347.68165 375.452906 
L 347.889634 375.45472 
L 348.097618 375.687792 
L 348.305602 375.642118 
L 348.513586 375.754506 
L 348.72157 375.545377 
L 348.929554 375.578431 
L 349.345522 375.419615 
L 349.553506 375.989816 
L 349.761489 375.401215 
L 349.969473 375.172507 
L 350.177457 375.16293 
L 350.385441 375.436057 
L 350.593425 374.824775 
L 350.801409 376.059053 
L 351.009393 375.81934 
L 351.217377 375.23975 
L 351.425361 375.139192 
L 351.633345 374.415322 
L 351.841328 375.744193 
L 352.049312 375.72563 
L 352.257296 375.507603 
L 352.46528 375.75659 
L 352.673264 375.543595 
L 352.881248 375.925862 
L 353.089232 376.0158 
L 353.297216 375.261896 
L 353.5052 375.652328 
L 353.713183 376.365037 
L 354.129151 375.666337 
L 354.337135 375.900433 
L 354.545119 375.352307 
L 354.753103 375.296578 
L 354.961087 375.732685 
L 355.169071 375.704728 
L 355.377055 376.189589 
L 355.793022 375.549266 
L 356.001006 375.794034 
L 356.20899 374.851945 
L 356.416974 376.138529 
L 356.624958 375.70563 
L 357.24891 375.317681 
L 357.456894 375.601741 
L 357.664878 375.300499 
L 358.080845 375.896524 
L 358.288829 375.392502 
L 358.496813 375.874462 
L 358.704797 375.749317 
L 358.912781 374.745695 
L 359.328749 375.963431 
L 359.744717 375.651649 
L 359.9527 374.822666 
L 360.160684 375.825673 
L 360.368668 375.636081 
L 360.576652 375.785468 
L 360.784636 375.751344 
L 360.99262 375.110543 
L 361.200604 375.563967 
L 361.616572 375.475474 
L 361.824556 375.905027 
L 362.032539 375.510715 
L 362.240523 375.977702 
L 362.448507 375.284248 
L 362.656491 375.654918 
L 362.864475 375.714118 
L 363.072459 376.052793 
L 363.280443 375.290191 
L 363.488427 375.676442 
L 363.696411 375.760267 
L 363.904394 375.546183 
L 364.320362 375.825664 
L 364.528346 376.127119 
L 364.944314 375.918105 
L 365.152298 376.004632 
L 365.360282 375.468574 
L 365.77625 375.92251 
L 365.984233 375.692556 
L 366.192217 376.137848 
L 366.608185 375.585928 
L 366.816169 375.749205 
L 367.024153 373.031264 
L 367.232137 374.788287 
L 367.440121 375.573661 
L 367.648105 375.535237 
L 367.856089 375.878149 
L 368.064072 375.748677 
L 368.272056 375.93584 
L 368.48004 375.030901 
L 368.896008 375.552027 
L 369.103992 375.306867 
L 369.311976 375.821903 
L 369.727944 375.056451 
L 369.935928 375.324151 
L 370.143911 372.983089 
L 370.351895 375.610768 
L 370.559879 375.453849 
L 370.767863 375.812476 
L 371.183831 375.65911 
L 371.391815 375.790189 
L 371.599799 375.182529 
L 371.807783 375.829008 
L 372.015767 374.952755 
L 372.22375 375.417805 
L 372.847702 375.811402 
L 373.471654 375.136824 
L 374.303589 375.836904 
L 374.511573 375.514662 
L 374.719557 368.802725 
L 374.927541 375.381369 
L 375.135525 373.875941 
L 375.343509 375.546541 
L 375.551493 375.316969 
L 375.759477 375.403392 
L 375.967461 375.211498 
L 376.383428 375.569313 
L 376.799396 375.641109 
L 377.00738 375.445461 
L 377.215364 374.181465 
L 377.423348 375.560131 
L 377.631332 375.844079 
L 377.839316 375.645295 
L 378.0473 375.636501 
L 378.671251 376.055202 
L 378.879235 375.604664 
L 379.087219 375.902041 
L 379.295203 375.967486 
L 379.503187 375.858378 
L 379.711171 375.885193 
L 379.919155 375.495537 
L 380.127139 375.73515 
L 380.543106 375.828005 
L 380.75109 375.581692 
L 380.959074 375.774622 
L 381.167058 375.682721 
L 381.375042 375.77871 
L 381.583026 375.281276 
L 381.79101 375.739376 
L 381.998994 374.884663 
L 382.206978 375.942866 
L 382.414961 375.359332 
L 382.622945 373.757716 
L 382.830929 375.577652 
L 383.246897 374.824656 
L 383.454881 375.759787 
L 383.662865 375.620779 
L 383.870849 374.1937 
L 384.078833 376.031553 
L 384.702784 375.489095 
L 384.910768 375.799833 
L 385.118752 375.764422 
L 385.326736 376.145118 
L 385.53472 375.547078 
L 385.742704 375.591153 
L 385.950688 375.75106 
L 386.158672 375.766771 
L 386.366655 374.820601 
L 386.782623 375.889074 
L 387.198591 375.956635 
L 387.406575 375.97487 
L 387.614559 375.405707 
L 387.822543 375.631923 
L 388.030527 375.097454 
L 388.238511 375.452077 
L 388.446494 375.487501 
L 388.654478 376.108389 
L 388.862462 375.084881 
L 389.27843 376.381249 
L 389.694398 375.399223 
L 389.902382 375.60619 
L 390.110366 375.272726 
L 390.31835 375.911685 
L 390.526333 375.990468 
L 390.734317 375.511776 
L 390.942301 375.693646 
L 391.150285 375.58486 
L 391.358269 376.047591 
L 391.566253 375.531162 
L 391.774237 375.550567 
L 391.982221 375.872919 
L 392.190205 375.888105 
L 392.398189 375.743114 
L 392.606172 376.003304 
L 392.814156 375.422982 
L 393.02214 375.758588 
L 393.438108 375.783367 
L 393.646092 374.818582 
L 393.854076 375.726692 
L 394.06206 375.237062 
L 394.270044 375.990958 
L 394.478028 374.19239 
L 394.686011 375.478613 
L 394.893995 375.503132 
L 395.101979 374.799044 
L 395.309963 375.849083 
L 395.517947 375.736235 
L 395.725931 375.915541 
L 396.141899 375.676278 
L 396.349883 375.745354 
L 396.557866 375.511355 
L 396.76585 375.527093 
L 396.973834 373.983868 
L 397.181818 375.755587 
L 397.389802 374.791641 
L 397.597786 375.954783 
L 397.80577 373.349216 
L 398.013754 375.703916 
L 398.429722 375.873054 
L 398.845689 375.732621 
L 399.053673 375.267571 
L 399.261657 373.831065 
L 399.469641 375.766591 
L 399.885609 375.558378 
L 400.093593 374.932974 
L 400.301577 372.199423 
L 400.509561 375.25859 
L 400.717544 373.80939 
L 400.925528 375.379442 
L 401.133512 374.247511 
L 401.341496 375.502173 
L 401.54948 375.157679 
L 401.757464 375.620267 
L 401.965448 375.348429 
L 402.173432 375.499118 
L 402.381416 375.344966 
L 402.5894 376.043493 
L 402.797383 374.217691 
L 403.005367 375.648027 
L 403.213351 375.512658 
L 403.421335 375.592339 
L 403.629319 375.278336 
L 403.837303 375.705361 
L 404.045287 375.781896 
L 404.253271 372.49012 
L 404.461255 375.011392 
L 404.669239 375.705002 
L 404.877222 375.830606 
L 405.085206 375.20385 
L 405.29319 373.922826 
L 405.501174 375.639199 
L 405.917142 375.722993 
L 406.541094 375.411517 
L 407.165045 375.555799 
L 407.373029 375.3379 
L 407.581013 375.677966 
L 407.788997 375.536286 
L 407.996981 375.853921 
L 408.204965 375.173506 
L 408.412949 375.933728 
L 408.620933 375.995716 
L 408.828916 375.702542 
L 409.0369 375.952954 
L 409.244884 375.685395 
L 409.452868 375.663701 
L 409.660852 372.864238 
L 409.868836 375.400377 
L 410.07682 375.072751 
L 410.284804 375.809599 
L 410.700772 375.440809 
L 410.908755 375.687649 
L 411.324723 375.379802 
L 411.532707 375.441065 
L 411.740691 375.770242 
L 411.948675 375.648933 
L 412.572627 375.84069 
L 412.780611 375.570008 
L 413.196578 375.570189 
L 413.404562 374.516701 
L 413.612546 375.593375 
L 413.82053 375.414426 
L 414.028514 375.5083 
L 414.236498 375.896193 
L 414.444482 372.720361 
L 414.652466 375.372789 
L 415.068433 375.633384 
L 415.276417 375.448392 
L 415.484401 375.686627 
L 415.692385 375.741943 
L 415.900369 375.665385 
L 416.108353 375.89185 
L 416.316337 374.980913 
L 416.524321 375.858172 
L 416.732305 375.753552 
L 416.940288 375.415425 
L 417.148272 376.159035 
L 417.356256 375.418072 
L 417.56424 375.613329 
L 417.772224 375.591689 
L 417.980208 375.075363 
L 418.188192 375.509856 
L 419.020127 375.807683 
L 419.228111 375.553838 
L 419.436095 375.513988 
L 419.644079 375.926195 
L 419.852063 375.72549 
L 420.060047 375.17765 
L 420.268031 375.878039 
L 420.683999 375.654585 
L 420.891983 376.167561 
L 421.099966 373.881955 
L 421.515934 375.827238 
L 421.723918 376.026261 
L 421.931902 375.92572 
L 422.139886 375.232984 
L 422.34787 375.549477 
L 422.763838 375.356522 
L 422.971822 376.175288 
L 423.179805 374.627883 
L 423.595773 375.966377 
L 423.803757 375.880904 
L 424.011741 375.182252 
L 424.219725 375.810559 
L 424.427709 375.70128 
L 424.635693 374.358811 
L 424.843677 375.369615 
L 425.051661 375.825287 
L 425.259644 375.782376 
L 425.467628 374.982028 
L 425.675612 375.937576 
L 425.883596 374.584612 
L 426.299564 375.972936 
L 426.507548 375.854652 
L 426.715532 374.38585 
L 426.923516 375.784652 
L 427.131499 375.661318 
L 427.339483 375.810346 
L 427.547467 375.783731 
L 427.755451 376.007267 
L 427.963435 376.062619 
L 428.171419 375.45874 
L 428.379403 375.558643 
L 428.587387 373.899932 
L 428.795371 375.729901 
L 429.003355 376.111745 
L 429.419322 375.966561 
L 429.627306 375.782361 
L 429.83529 375.413795 
L 430.043274 375.417326 
L 430.251258 374.285051 
L 430.459242 376.01025 
L 430.667226 373.895532 
L 430.87521 375.652799 
L 431.083194 375.674909 
L 431.291177 374.569889 
L 431.915129 376.000563 
L 432.123113 375.118872 
L 432.539081 376.013784 
L 432.747065 375.229649 
L 432.955049 375.708464 
L 433.163033 375.167806 
L 433.371016 375.682429 
L 433.579 374.588074 
L 433.786984 376.030287 
L 433.994968 375.355446 
L 434.202952 375.142403 
L 434.410936 375.75355 
L 434.826904 375.263191 
L 435.034888 375.960398 
L 435.242872 375.673903 
L 435.450855 376.174084 
L 435.658839 375.515583 
L 435.866823 376.074534 
L 436.074807 375.741631 
L 436.282791 375.838715 
L 436.490775 375.49572 
L 436.698759 374.680491 
L 436.906743 375.532857 
L 437.114727 375.766681 
L 437.530694 375.240823 
L 437.738678 375.862254 
L 437.946662 375.937622 
L 438.154646 375.318708 
L 438.36263 375.621992 
L 438.570614 375.429413 
L 438.778598 375.868065 
L 438.986582 375.658538 
L 439.402549 376.071403 
L 439.610533 375.578226 
L 439.818517 373.061162 
L 440.026501 375.544707 
L 440.442469 376.117072 
L 440.858437 375.645238 
L 441.066421 375.789411 
L 441.274405 375.692546 
L 441.690372 375.146258 
L 441.898356 375.670459 
L 442.10634 375.590614 
L 442.314324 375.085347 
L 442.522308 375.368672 
L 442.730292 375.914808 
L 443.14626 375.539142 
L 443.354244 375.78303 
L 443.562227 375.477378 
L 443.770211 375.884312 
L 444.186179 375.788925 
L 444.394163 375.844133 
L 444.602147 375.668395 
L 444.810131 375.653651 
L 445.018115 375.866246 
L 445.226099 375.443277 
L 445.434083 375.993523 
L 445.642066 371.302441 
L 445.85005 375.74172 
L 446.058034 375.54891 
L 446.681986 375.807572 
L 447.513922 375.271852 
L 447.721905 374.094909 
L 447.929889 375.685697 
L 448.137873 375.310155 
L 448.553841 375.613096 
L 448.761825 373.087787 
L 448.969809 375.257099 
L 449.177793 375.652873 
L 449.385777 375.377417 
L 449.59376 375.964374 
L 449.801744 375.419954 
L 450.009728 375.753213 
L 450.217712 375.500629 
L 450.425696 375.547196 
L 450.63368 375.370553 
L 451.049648 375.620534 
L 451.465616 375.984454 
L 451.673599 375.720889 
L 451.881583 375.131027 
L 452.089567 375.622154 
L 452.297551 374.951929 
L 452.505535 375.658597 
L 452.713519 374.929213 
L 453.129487 375.13067 
L 453.337471 375.822877 
L 453.545455 375.664756 
L 453.961422 375.6518 
L 454.169406 375.908121 
L 454.585374 375.523651 
L 454.793358 375.067444 
L 455.001342 375.62348 
L 455.41731 375.730305 
L 455.625294 375.302961 
L 455.833277 375.188886 
L 456.041261 376.043479 
L 456.457229 375.486237 
L 456.665213 376.054065 
L 456.873197 375.473655 
L 457.081181 375.805341 
L 457.289165 375.463106 
L 457.497149 375.735907 
L 457.913116 375.780675 
L 458.1211 375.594836 
L 458.329084 375.835802 
L 458.537068 375.607439 
L 458.745052 375.816125 
L 458.953036 374.853309 
L 459.16102 375.874127 
L 459.576988 376.089373 
L 459.784971 375.604095 
L 459.992955 375.605364 
L 460.408923 375.910515 
L 460.616907 375.572017 
L 460.824891 375.863733 
L 461.032875 375.513525 
L 461.240859 375.665756 
L 461.656827 372.634391 
L 461.86481 376.046732 
L 462.280778 375.828201 
L 462.488762 375.375135 
L 462.696746 375.662461 
L 463.112714 375.310261 
L 463.320698 375.776568 
L 463.528682 375.242098 
L 463.736666 375.937046 
L 463.944649 375.70085 
L 464.152633 375.789838 
L 464.360617 375.575016 
L 464.776585 375.600111 
L 464.984569 375.970722 
L 465.192553 375.639155 
L 465.400537 375.690661 
L 465.608521 375.177792 
L 465.816505 375.701784 
L 466.024488 375.586422 
L 466.232472 375.883606 
L 466.440456 375.241987 
L 466.856424 375.595496 
L 467.064408 376.190544 
L 467.272392 375.62371 
L 467.480376 375.86861 
L 467.68836 375.228919 
L 467.896344 375.135227 
L 468.104327 375.700437 
L 468.312311 375.431142 
L 468.520295 375.721508 
L 469.144247 375.62193 
L 469.352231 373.280709 
L 469.768199 374.946151 
L 469.976182 375.626143 
L 470.600134 375.517597 
L 470.808118 375.864297 
L 471.016102 373.776058 
L 471.224086 375.955284 
L 471.43207 375.430748 
L 471.640054 375.669302 
L 471.848038 375.601908 
L 472.056021 375.25576 
L 472.264005 375.129835 
L 472.471989 375.880299 
L 472.679973 375.488018 
L 472.887957 375.746786 
L 473.095941 375.629006 
L 473.303925 372.948888 
L 473.511909 375.97388 
L 473.719893 375.803225 
L 473.927877 375.403398 
L 474.13586 375.85817 
L 474.551828 376.053859 
L 474.759812 375.24566 
L 474.967796 375.823455 
L 475.383764 375.335485 
L 475.591748 375.542458 
L 475.799732 375.360436 
L 476.215699 376.130841 
L 476.423683 375.607124 
L 476.631667 375.777633 
L 476.839651 375.42883 
L 477.047635 375.869047 
L 477.255619 375.413948 
L 477.463603 376.009462 
L 477.879571 375.988157 
L 478.087555 375.398148 
L 478.295538 376.053743 
L 478.503522 375.579296 
L 478.711506 374.762495 
L 478.91949 375.937306 
L 479.127474 375.768479 
L 479.335458 370.921399 
L 479.543442 375.622976 
L 479.95941 375.23527 
L 480.375377 376.073541 
L 480.583361 375.191954 
L 480.791345 376.184609 
L 480.999329 375.750511 
L 481.207313 373.597044 
L 481.415297 375.736537 
L 481.623281 375.803396 
L 481.831265 376.129852 
L 482.039249 375.462622 
L 482.247232 375.57354 
L 482.455216 375.536904 
L 482.6632 375.716931 
L 482.871184 375.35114 
L 483.287152 375.694986 
L 483.495136 376.033411 
L 483.70312 375.194922 
L 483.911104 375.658266 
L 484.327071 375.512922 
L 484.535055 375.156409 
L 484.743039 375.058995 
L 484.951023 375.774082 
L 485.366991 375.369463 
L 485.574975 373.830807 
L 485.782959 375.702739 
L 485.990943 375.825177 
L 486.198927 375.775596 
L 486.40691 375.37726 
L 486.614894 375.589893 
L 486.822878 375.405877 
L 487.030862 376.113773 
L 487.238846 375.499242 
L 487.44683 375.398938 
L 487.654814 375.496524 
L 487.862798 375.432141 
L 488.070782 374.805685 
L 488.486749 375.078414 
L 488.694733 375.656622 
L 488.902717 375.433506 
L 489.318685 375.908585 
L 489.526669 375.383856 
L 490.358604 375.967153 
L 490.566588 375.612425 
L 490.774572 375.744579 
L 490.982556 374.695332 
L 491.19054 375.961963 
L 491.398524 375.472555 
L 491.606508 376.057197 
L 491.814492 375.968235 
L 492.022476 375.614295 
L 492.438443 376.261724 
L 492.646427 375.485813 
L 492.854411 375.810333 
L 493.062395 375.575981 
L 493.478363 375.81281 
L 493.686347 375.719645 
L 493.894331 375.297415 
L 494.102315 376.076895 
L 494.310299 375.349993 
L 494.93425 375.951072 
L 495.142234 375.950645 
L 495.350218 375.576185 
L 495.558202 375.581228 
L 495.766186 376.060189 
L 495.97417 375.707479 
L 496.182154 375.768828 
L 496.390138 375.542925 
L 496.598121 375.88209 
L 496.806105 375.405868 
L 497.222073 375.830762 
L 497.846025 375.821337 
L 498.261993 375.952113 
L 498.469977 375.520695 
L 498.67796 376.06071 
L 498.885944 375.78596 
L 499.301912 375.840925 
L 499.509896 375.316275 
L 499.71788 375.24465 
L 499.925864 375.720781 
L 500.133848 374.797492 
L 500.341832 375.538017 
L 500.549815 375.502779 
L 500.757799 375.801714 
L 500.965783 375.468845 
L 501.173767 375.835162 
L 501.381751 375.726611 
L 501.589735 375.976295 
L 501.797719 375.860494 
L 502.005703 372.87926 
L 502.213687 375.752032 
L 502.421671 375.762932 
L 502.629654 375.13545 
L 502.837638 375.84077 
L 503.045622 375.709894 
L 503.253606 375.426459 
L 503.46159 375.840015 
L 503.669574 375.328374 
L 503.877558 375.718582 
L 504.085542 375.84732 
L 504.293526 375.517247 
L 504.50151 375.851247 
L 504.709493 375.457633 
L 505.125461 375.595772 
L 505.333445 375.979847 
L 505.541429 375.543966 
L 505.749413 375.373495 
L 505.957397 374.677522 
L 506.165381 374.773649 
L 506.373365 375.621786 
L 506.581349 375.392167 
L 506.789332 375.764384 
L 507.2053 375.41466 
L 507.413284 375.846723 
L 508.24522 375.602028 
L 508.453204 375.680544 
L 508.661188 375.984263 
L 508.869171 375.632031 
L 509.077155 375.928355 
L 509.285139 375.842437 
L 509.493123 373.918889 
L 509.701107 375.255608 
L 509.909091 375.64082 
L 510.117075 373.99141 
L 510.325059 375.224191 
L 510.533043 375.631183 
L 510.741027 375.5825 
L 510.94901 375.710731 
L 511.156994 376.007895 
L 511.364978 375.685387 
L 511.572962 375.59489 
L 511.780946 375.963554 
L 511.98893 375.908528 
L 512.404898 375.215734 
L 512.612882 375.765297 
L 512.820865 375.816129 
L 513.236833 375.37123 
L 513.444817 375.982317 
L 514.068769 375.705635 
L 514.276753 375.093395 
L 514.484737 375.423447 
L 514.692721 374.929061 
L 514.900704 375.929982 
L 515.108688 375.895522 
L 515.316672 376.005905 
L 515.524656 375.764228 
L 515.940624 375.890484 
L 516.148608 375.241248 
L 516.564576 375.686095 
L 516.77256 375.756723 
L 516.980543 375.666607 
L 517.188527 375.84202 
L 517.812479 375.319083 
L 518.020463 375.539176 
L 518.228447 375.262445 
L 518.436431 375.186564 
L 518.644415 375.404694 
L 518.852399 375.973084 
L 519.060382 375.855786 
L 519.268366 375.966766 
L 519.47635 374.94399 
L 519.684334 375.331563 
L 519.892318 373.47626 
L 520.100302 375.235881 
L 520.308286 375.299087 
L 520.51627 375.567488 
L 520.724254 376.146192 
L 520.932238 375.541044 
L 521.140221 375.4841 
L 521.348205 375.155651 
L 521.556189 375.532605 
L 521.764173 375.625578 
L 521.972157 376.000868 
L 522.180141 375.756877 
L 522.388125 375.902893 
L 523.012076 375.250358 
L 523.428044 375.856167 
L 523.636028 375.849136 
L 523.844012 375.054787 
L 524.25998 375.814781 
L 524.467964 375.8948 
L 524.675948 375.547198 
L 525.091915 375.990099 
L 525.507883 375.653883 
L 525.715867 375.994663 
L 525.923851 375.955714 
L 526.131835 375.736922 
L 526.339819 376.014143 
L 526.547803 375.948856 
L 526.755787 376.226161 
L 526.963771 375.928906 
L 527.171754 372.893184 
L 527.379738 375.700332 
L 527.587722 375.988075 
L 528.211674 375.851945 
L 528.419658 375.977367 
L 528.835626 375.783536 
L 529.04361 375.059014 
L 529.251593 375.533118 
L 529.667561 375.556494 
L 530.083529 375.963147 
L 530.291513 371.31094 
L 530.707481 376.047062 
L 530.915465 376.167463 
L 531.123449 376.068028 
L 531.331432 376.108862 
L 531.539416 375.725277 
L 531.955384 375.868349 
L 532.163368 373.795294 
L 532.371352 375.966711 
L 532.579336 376.031437 
L 532.995304 375.75564 
L 533.411271 375.498078 
L 533.619255 375.897671 
L 533.827239 375.585038 
L 534.243207 376.068941 
L 534.451191 375.733901 
L 534.867159 375.599783 
L 535.075143 375.882885 
L 535.283126 375.501738 
L 535.49111 375.421838 
L 535.907078 375.939104 
L 536.115062 375.318653 
L 536.323046 375.939302 
L 536.739014 376.03198 
L 536.946998 375.488134 
L 537.154982 375.869265 
L 537.362965 375.727104 
L 537.570949 376.294281 
L 537.778933 374.721081 
L 538.194901 375.964631 
L 538.818853 375.972783 
L 539.234821 376.026556 
L 539.442804 376.097027 
L 539.650788 375.640673 
L 539.858772 375.828462 
L 540.066756 375.827312 
L 540.27474 375.688127 
L 540.482724 375.827828 
L 540.690708 375.749722 
L 540.898692 376.040845 
L 541.106676 375.830607 
L 541.31466 375.140866 
L 541.730627 375.993624 
L 541.938611 375.339251 
L 542.146595 375.774641 
L 542.354579 375.885771 
L 542.562563 375.616057 
L 542.770547 375.133991 
L 542.978531 375.454569 
L 543.186515 375.542953 
L 543.394498 376.116786 
L 543.602482 375.785315 
L 544.01845 376.043144 
L 544.226434 375.597957 
L 544.434418 375.995457 
L 544.850386 375.398319 
L 545.05837 374.895303 
L 545.266354 376.05668 
L 545.474337 375.475686 
L 545.890305 375.926708 
L 546.098289 375.580834 
L 546.306273 375.552125 
L 546.514257 373.215095 
L 546.722241 375.999348 
L 546.930225 375.492465 
L 547.138209 375.932654 
L 547.346193 375.819522 
L 547.554176 375.429946 
L 547.76216 376.081689 
L 547.970144 375.352938 
L 548.80208 375.933205 
L 549.010064 375.7183 
L 549.218048 376.009792 
L 549.426032 376.05273 
L 549.634015 375.391534 
L 549.841999 375.731821 
L 550.049983 375.648538 
L 550.257967 375.795483 
L 550.465951 375.760606 
L 550.673935 375.96548 
L 550.881919 375.617934 
L 551.089903 375.505661 
L 551.297887 375.909817 
L 551.713854 375.359402 
L 551.921838 375.290123 
L 552.129822 375.627603 
L 552.337806 375.574153 
L 552.54579 375.822889 
L 552.753774 375.693963 
L 552.961758 375.255112 
L 553.169742 375.93134 
L 553.377726 375.968377 
L 553.793693 375.473239 
L 554.001677 375.727492 
L 554.209661 374.991242 
L 554.417645 375.843829 
L 554.833613 375.565148 
L 555.041597 376.026153 
L 555.249581 374.966344 
L 555.457565 375.669722 
L 555.665548 375.919857 
L 556.2895 375.614803 
L 556.497484 376.43791 
L 556.913452 375.515759 
L 557.121436 375.560642 
L 557.32942 375.748581 
L 557.537404 372.444002 
L 557.745387 373.223914 
L 557.953371 373.137687 
L 558.161355 375.801409 
L 558.369339 375.77079 
L 558.577323 376.032943 
L 558.785307 375.290932 
L 559.201275 375.753759 
L 559.409259 375.635342 
L 559.617243 375.223632 
L 559.825226 375.617595 
L 560.03321 375.378127 
L 560.241194 374.778328 
L 560.449178 374.909111 
L 560.657162 375.545088 
L 560.865146 375.590462 
L 561.07313 375.493028 
L 561.281114 375.54222 
L 561.489098 375.817584 
L 561.697082 375.763191 
L 561.905065 375.933373 
L 562.113049 375.75159 
L 562.321033 375.2332 
L 562.529017 376.091989 
L 562.737001 375.588468 
L 563.152969 375.940673 
L 563.360953 375.858693 
L 563.568937 375.981947 
L 564.192888 375.787304 
L 564.400872 375.927577 
L 564.608856 375.790047 
L 564.81684 376.152527 
L 565.232808 375.798468 
L 565.856759 376.052267 
L 566.272727 375.466943 
L 566.688695 375.685475 
L 566.896679 375.326265 
L 567.104663 375.324015 
L 567.312647 375.685323 
L 567.520631 375.692498 
L 567.728615 369.773195 
L 567.936598 375.022472 
L 568.144582 375.752284 
L 568.352566 375.786499 
L 568.56055 375.428844 
L 568.976518 375.838981 
L 569.184502 375.477761 
L 569.392486 376.247283 
L 569.60047 375.502856 
L 569.808454 376.089708 
L 570.016437 375.847819 
L 570.224421 375.28041 
L 570.432405 375.757959 
L 570.640389 375.914887 
L 570.848373 375.885147 
L 571.056357 375.631936 
L 571.264341 375.621744 
L 571.472325 375.750704 
L 571.680309 375.328619 
L 571.888293 373.756619 
L 572.096276 375.984079 
L 572.30426 376.06452 
L 572.720228 375.31688 
L 573.34418 376.023465 
L 573.552164 375.813747 
L 573.760148 372.274342 
L 573.968131 375.695393 
L 574.176115 376.016601 
L 574.384099 375.737281 
L 574.592083 375.66885 
L 574.800067 376.042058 
L 575.216035 375.942773 
L 575.632003 376.107915 
L 575.839987 375.920902 
L 576.04797 375.354728 
L 576.463938 375.692077 
L 576.671922 375.412277 
L 576.879906 376.115149 
L 577.08789 375.601621 
L 577.295874 376.004001 
L 577.919826 375.907917 
L 578.127809 375.437817 
L 578.335793 373.884643 
L 578.543777 375.928572 
L 578.751761 375.504901 
L 578.959745 376.081971 
L 579.167729 375.918253 
L 579.375713 375.568735 
L 579.583697 375.78707 
L 579.791681 375.832187 
L 579.999665 375.628879 
L 580.207648 375.878265 
L 580.415632 375.669906 
L 580.623616 375.675671 
L 580.8316 375.851046 
L 581.039584 375.631843 
L 581.247568 375.977679 
L 581.455552 375.581908 
L 582.079504 375.974976 
L 582.287487 375.897766 
L 582.495471 375.510558 
L 582.703455 375.743028 
L 582.911439 375.483865 
L 583.119423 374.317022 
L 583.327407 375.503549 
L 583.535391 375.844354 
L 584.159343 375.48941 
L 584.367326 374.418603 
L 584.57531 375.547318 
L 584.783294 375.880732 
L 585.407246 375.637134 
L 585.61523 375.943256 
L 585.823214 375.673977 
L 586.031198 376.043819 
L 586.239181 375.830759 
L 586.447165 376.159074 
L 586.655149 375.777859 
L 586.863133 373.815553 
L 587.071117 376.311164 
L 587.279101 372.01948 
L 587.487085 375.928226 
L 587.695069 376.359788 
L 587.903053 375.615327 
L 588.111037 375.822168 
L 588.31902 375.578954 
L 588.527004 375.724445 
L 588.734988 375.487561 
L 588.942972 375.803115 
L 589.150956 373.970488 
L 589.35894 375.883686 
L 589.566924 375.06042 
L 589.774908 375.756496 
L 589.982892 375.522481 
L 590.398859 375.903176 
L 590.606843 375.861603 
L 590.814827 371.278939 
L 591.022811 376.134735 
L 591.230795 375.753426 
L 591.646763 376.14382 
L 591.854747 375.48153 
L 592.686682 375.973702 
L 593.10265 375.881553 
L 593.310634 375.549621 
L 593.518618 375.459072 
L 593.726602 375.789026 
L 593.934586 375.893323 
L 594.14257 375.750118 
L 594.350554 374.606273 
L 594.558537 375.760519 
L 594.766521 375.820622 
L 595.182489 375.667012 
L 595.390473 375.771238 
L 595.598457 375.695304 
L 595.806441 375.877962 
L 596.014425 375.869859 
L 596.222409 375.131336 
L 596.430392 371.421828 
L 596.638376 375.603032 
L 596.84636 375.499395 
L 597.054344 375.753515 
L 597.262328 375.784582 
L 597.470312 375.660397 
L 597.678296 375.984217 
L 597.88628 375.656612 
L 598.302248 376.083061 
L 598.718215 375.504223 
L 598.926199 376.041071 
L 599.134183 375.223722 
L 599.342167 375.849631 
L 599.550151 375.556339 
L 599.758135 376.065313 
L 599.966119 375.573111 
L 600.174103 375.866402 
L 600.382087 375.946572 
L 600.59007 375.851496 
L 600.798054 375.920517 
L 601.006038 375.549227 
L 601.214022 375.645119 
L 601.422006 375.987378 
L 601.62999 375.767021 
L 601.837974 375.882556 
L 602.045958 375.657609 
L 602.253942 375.943773 
L 602.461926 375.745189 
L 602.877893 375.565612 
L 603.085877 376.071749 
L 603.293861 375.390016 
L 603.501845 376.071158 
L 603.917813 373.956459 
L 604.125797 375.808897 
L 604.333781 374.851602 
L 604.541765 375.711113 
L 604.749748 375.959331 
L 604.957732 375.849517 
L 605.165716 376.234141 
L 605.581684 375.825197 
L 605.789668 375.884976 
L 605.997652 373.512436 
L 606.205636 375.660207 
L 606.41362 376.103602 
L 606.621603 376.260227 
L 606.829587 375.387587 
L 607.037571 375.609016 
L 607.245555 376.089962 
L 607.661523 375.736343 
L 607.869507 375.688278 
L 608.077491 375.111797 
L 608.493459 375.861297 
L 608.701442 375.647065 
L 608.909426 376.186322 
L 609.11741 375.987409 
L 609.325394 376.091948 
L 609.533378 375.24714 
L 609.741362 375.408427 
L 610.15733 376.263416 
L 610.365314 375.730066 
L 610.573298 375.885132 
L 610.781281 375.109457 
L 610.989265 375.800897 
L 611.197249 375.527283 
L 611.405233 375.792705 
L 611.613217 375.257591 
L 611.821201 375.752282 
L 612.237169 375.891813 
L 612.445153 375.614208 
L 612.653137 375.728527 
L 612.86112 375.056682 
L 613.069104 375.288829 
L 613.277088 376.104237 
L 613.485072 375.87061 
L 613.693056 376.013477 
L 613.90104 375.71615 
L 614.109024 376.078782 
L 614.524992 375.57995 
L 614.732976 375.738784 
L 614.940959 375.27076 
L 615.356927 376.029213 
L 615.564911 375.717059 
L 615.772895 375.974953 
L 615.980879 375.503544 
L 616.188863 375.960732 
L 616.396847 376.148476 
L 616.604831 375.784653 
L 616.812814 376.024754 
L 617.228782 375.225351 
L 617.436766 376.054695 
L 617.64475 375.93274 
L 617.852734 376.192596 
L 618.268702 375.479263 
L 618.476686 375.914098 
L 618.892653 375.880296 
L 619.100637 375.894342 
L 619.308621 375.273207 
L 619.724589 375.958497 
L 619.932573 375.764557 
L 620.140557 375.237269 
L 620.556525 375.594431 
L 620.764509 375.362761 
L 620.972492 375.686194 
L 621.180476 374.221393 
L 621.596444 375.831609 
L 621.804428 375.991182 
L 622.012412 375.580712 
L 622.42838 376.143897 
L 622.636364 375.595815 
L 622.636364 375.595815 
" clip-path="url(#p9cfa163e3a)" style="fill: none; stroke: #1f77b4; stroke-width: 1.5; stroke-linecap: square"/>
   </g>
   <g id="patch_3">
    <path d="M 90 384.48 
L 90 51.84 
" style="fill: none; stroke: #000000; stroke-width: 0.8; stroke-linejoin: miter; stroke-linecap: square"/>
   </g>
   <g id="patch_4">
    <path d="M 648 384.48 
L 648 51.84 
" style="fill: none; stroke: #000000; stroke-width: 0.8; stroke-linejoin: miter; stroke-linecap: square"/>
   </g>
   <g id="patch_5">
    <path d="M 90 384.48 
L 648 384.48 
" style="fill: none; stroke: #000000; stroke-width: 0.8; stroke-linejoin: miter; stroke-linecap: square"/>
   </g>
   <g id="patch_6">
    <path d="M 90 51.84 
L 648 51.84 
" style="fill: none; stroke: #000000; stroke-width: 0.8; stroke-linejoin: miter; stroke-linecap: square"/>
   </g>
   <g id="text_16">
    <!-- Average time per index -->
    <g transform="translate(298.700625 45.84) scale(0.12 -0.12)">
     <defs>
      <path id="DejaVuSans-70" d="M 1159 525 
L 1159 -1331 
L 581 -1331 
L 581 3500 
L 1159 3500 
L 1159 2969 
Q 1341 3281 1617 3432 
Q 1894 3584 2278 3584 
Q 2916 3584 3314 3078 
Q 3713 2572 3713 1747 
Q 3713 922 3314 415 
Q 2916 -91 2278 -91 
Q 1894 -91 1617 61 
Q 1341 213 1159 525 
z
M 3116 1747 
Q 3116 2381 2855 2742 
Q 2594 3103 2138 3103 
Q 1681 3103 1420 2742 
Q 1159 2381 1159 1747 
Q 1159 1113 1420 752 
Q 1681 391 2138 391 
Q 2594 391 2855 752 
Q 3116 1113 3116 1747 
z
" transform="scale(0.015625)"/>
     </defs>
     <use xlink:href="#DejaVuSans-41"/>
     <use xlink:href="#DejaVuSans-76" transform="translate(62.533203 0)"/>
     <use xlink:href="#DejaVuSans-65" transform="translate(121.712891 0)"/>
     <use xlink:href="#DejaVuSans-72" transform="translate(183.236328 0)"/>
     <use xlink:href="#DejaVuSans-61" transform="translate(224.349609 0)"/>
     <use xlink:href="#DejaVuSans-67" transform="translate(285.628906 0)"/>
     <use xlink:href="#DejaVuSans-65" transform="translate(349.105469 0)"/>
     <use xlink:href="#DejaVuSans-20" transform="translate(410.628906 0)"/>
     <use xlink:href="#DejaVuSans-74" transform="translate(442.416016 0)"/>
     <use xlink:href="#DejaVuSans-69" transform="translate(481.625 0)"/>
     <use xlink:href="#DejaVuSans-6d" transform="translate(509.408203 0)"/>
     <use xlink:href="#DejaVuSans-65" transform="translate(606.820312 0)"/>
     <use xlink:href="#DejaVuSans-20" transform="translate(668.34375 0)"/>
     <use xlink:href="#DejaVuSans-70" transform="translate(700.130859 0)"/>
     <use xlink:href="#DejaVuSans-65" transform="translate(763.607422 0)"/>
     <use xlink:href="#DejaVuSans-72" transform="translate(825.130859 0)"/>
     <use xlink:href="#DejaVuSans-20" transform="translate(866.244141 0)"/>
     <use xlink:href="#DejaVuSans-69" transform="translate(898.03125 0)"/>
     <use xlink:href="#DejaVuSans-6e" transform="translate(925.814453 0)"/>
     <use xlink:href="#DejaVuSans-64" transform="translate(989.193359 0)"/>
     <use xlink:href="#DejaVuSans-65" transform="translate(1052.669922 0)"/>
     <use xlink:href="#DejaVuSans-78" transform="translate(1112.443359 0)"/>
    </g>
   </g>
   <g id="legend_1">
    <g id="patch_7">
     <path d="M 525.064062 74.518125 
L 641 74.518125 
Q 643 74.518125 643 72.518125 
L 643 58.84 
Q 643 56.84 641 56.84 
L 525.064062 56.84 
Q 523.064062 56.84 523.064062 58.84 
L 523.064062 72.518125 
Q 523.064062 74.518125 525.064062 74.518125 
z
" style="fill: #ffffff; opacity: 0.8; stroke: #cccccc; stroke-linejoin: miter"/>
    </g>
    <g id="line2d_15">
     <path d="M 527.064062 64.938438 
L 537.064062 64.938438 
L 547.064062 64.938438 
" style="fill: none; stroke: #1f77b4; stroke-width: 1.5; stroke-linecap: square"/>
    </g>
    <g id="text_17">
     <!-- registerFaultload -->
     <g transform="translate(555.064062 68.438438) scale(0.1 -0.1)">
      <defs>
       <path id="DejaVuSans-46" d="M 628 4666 
L 3309 4666 
L 3309 4134 
L 1259 4134 
L 1259 2759 
L 3109 2759 
L 3109 2228 
L 1259 2228 
L 1259 0 
L 628 0 
L 628 4666 
z
" transform="scale(0.015625)"/>
       <path id="DejaVuSans-75" d="M 544 1381 
L 544 3500 
L 1119 3500 
L 1119 1403 
Q 1119 906 1312 657 
Q 1506 409 1894 409 
Q 2359 409 2629 706 
Q 2900 1003 2900 1516 
L 2900 3500 
L 3475 3500 
L 3475 0 
L 2900 0 
L 2900 538 
Q 2691 219 2414 64 
Q 2138 -91 1772 -91 
Q 1169 -91 856 284 
Q 544 659 544 1381 
z
M 1991 3584 
L 1991 3584 
z
" transform="scale(0.015625)"/>
       <path id="DejaVuSans-6c" d="M 603 4863 
L 1178 4863 
L 1178 0 
L 603 0 
L 603 4863 
z
" transform="scale(0.015625)"/>
       <path id="DejaVuSans-6f" d="M 1959 3097 
Q 1497 3097 1228 2736 
Q 959 2375 959 1747 
Q 959 1119 1226 758 
Q 1494 397 1959 397 
Q 2419 397 2687 759 
Q 2956 1122 2956 1747 
Q 2956 2369 2687 2733 
Q 2419 3097 1959 3097 
z
M 1959 3584 
Q 2709 3584 3137 3096 
Q 3566 2609 3566 1747 
Q 3566 888 3137 398 
Q 2709 -91 1959 -91 
Q 1206 -91 779 398 
Q 353 888 353 1747 
Q 353 2609 779 3096 
Q 1206 3584 1959 3584 
z
" transform="scale(0.015625)"/>
      </defs>
      <use xlink:href="#DejaVuSans-72"/>
      <use xlink:href="#DejaVuSans-65" transform="translate(38.863281 0)"/>
      <use xlink:href="#DejaVuSans-67" transform="translate(100.386719 0)"/>
      <use xlink:href="#DejaVuSans-69" transform="translate(163.863281 0)"/>
      <use xlink:href="#DejaVuSans-73" transform="translate(191.646484 0)"/>
      <use xlink:href="#DejaVuSans-74" transform="translate(243.746094 0)"/>
      <use xlink:href="#DejaVuSans-65" transform="translate(282.955078 0)"/>
      <use xlink:href="#DejaVuSans-72" transform="translate(344.478516 0)"/>
      <use xlink:href="#DejaVuSans-46" transform="translate(385.591797 0)"/>
      <use xlink:href="#DejaVuSans-61" transform="translate(433.986328 0)"/>
      <use xlink:href="#DejaVuSans-75" transform="translate(495.265625 0)"/>
      <use xlink:href="#DejaVuSans-6c" transform="translate(558.644531 0)"/>
      <use xlink:href="#DejaVuSans-74" transform="translate(586.427734 0)"/>
      <use xlink:href="#DejaVuSans-6c" transform="translate(625.636719 0)"/>
      <use xlink:href="#DejaVuSans-6f" transform="translate(653.419922 0)"/>
      <use xlink:href="#DejaVuSans-61" transform="translate(714.601562 0)"/>
      <use xlink:href="#DejaVuSans-64" transform="translate(775.880859 0)"/>
     </g>
    </g>
   </g>
  </g>
 </g>
 <defs>
  <clipPath id="p9cfa163e3a">
   <rect x="90" y="51.84" width="558" height="332.64"/>
  </clipPath>
 </defs>
</svg>
