<?xml version="1.0" encoding="utf-8" standalone="no"?>
<!DOCTYPE svg PUBLIC "-//W3C//DTD SVG 1.1//EN"
  "http://www.w3.org/Graphics/SVG/1.1/DTD/svg11.dtd">
<svg xmlns:xlink="http://www.w3.org/1999/xlink" width="576pt" height="432pt" viewBox="0 0 576 432" xmlns="http://www.w3.org/2000/svg" version="1.1">
 <metadata>
  <rdf:RDF xmlns:dc="http://purl.org/dc/elements/1.1/" xmlns:cc="http://creativecommons.org/ns#" xmlns:rdf="http://www.w3.org/1999/02/22-rdf-syntax-ns#">
   <cc:Work>
    <dc:type rdf:resource="http://purl.org/dc/dcmitype/StillImage"/>
    <dc:date>2025-06-10T03:16:51.657492</dc:date>
    <dc:format>image/svg+xml</dc:format>
    <dc:creator>
     <cc:Agent>
      <dc:title>Matplotlib v3.10.3, https://matplotlib.org/</dc:title>
     </cc:Agent>
    </dc:creator>
   </cc:Work>
  </rdf:RDF>
 </metadata>
 <defs>
  <style type="text/css">*{stroke-linejoin: round; stroke-linecap: butt}</style>
 </defs>
 <g id="figure_1">
  <g id="patch_1">
   <path d="M 0 432 
L 576 432 
L 576 0 
L 0 0 
z
" style="fill: #ffffff"/>
  </g>
  <g id="axes_1">
   <g id="patch_2">
    <path d="M 72 384.48 
L 518.4 384.48 
L 518.4 51.84 
L 72 51.84 
z
" style="fill: #ffffff"/>
   </g>
   <g id="FillBetweenPolyCollection_1">
    <path d="M 398.418617 353.216399 
L 191.981383 353.216399 
L 188.607983 350.317155 
L 186.049848 347.417911 
L 184.367433 344.518667 
L 183.6 341.619423 
L 183.7641 338.720179 
L 184.853006 335.820936 
L 186.837113 332.921692 
L 189.665268 330.022448 
L 193.266965 327.123204 
L 197.555249 324.22396 
L 202.430188 321.324716 
L 207.782702 318.425472 
L 213.498558 315.526229 
L 219.462319 312.626985 
L 225.561081 309.727741 
L 231.687814 306.828497 
L 237.744212 303.929253 
L 243.642927 301.030009 
L 249.309179 298.130765 
L 254.681707 295.231522 
L 259.7131 292.332278 
L 264.369565 289.433034 
L 268.630208 286.53379 
L 272.485931 283.634546 
L 275.938037 280.735302 
L 278.996661 277.836059 
L 281.679098 274.936815 
L 284.008153 272.037571 
L 286.010544 269.138327 
L 287.715446 266.239083 
L 289.153205 263.339839 
L 290.354234 260.440595 
L 291.348134 257.541352 
L 292.163002 254.642108 
L 292.824935 251.742864 
L 293.357716 248.84362 
L 293.782635 245.944376 
L 294.11845 243.045132 
L 294.381436 240.145888 
L 294.585512 237.246645 
L 294.742419 234.347401 
L 294.861927 231.448157 
L 294.95206 228.548913 
L 295.019318 225.649669 
L 295.068891 222.750425 
L 295.10486 219.851181 
L 295.130372 216.951938 
L 295.147792 214.052694 
L 295.158831 211.15345 
L 295.164651 208.254206 
L 295.165943 205.354962 
L 295.16298 202.455718 
L 295.155656 199.556474 
L 295.143502 196.657231 
L 295.125691 193.757987 
L 295.101021 190.858743 
L 295.067905 187.959499 
L 295.02434 185.060255 
L 294.967883 182.161011 
L 294.895631 179.261767 
L 294.804207 176.362524 
L 294.689765 173.46328 
L 294.548015 170.564036 
L 294.374273 167.664792 
L 294.163548 164.765548 
L 293.910662 161.866304 
L 293.610413 158.96706 
L 293.257782 156.067817 
L 292.848171 153.168573 
L 292.37768 150.269329 
L 291.843411 147.370085 
L 291.243776 144.470841 
L 290.578813 141.571597 
L 289.850463 138.672353 
L 289.062823 135.77311 
L 288.222316 132.873866 
L 287.337789 129.974622 
L 286.420501 127.075378 
L 285.483995 124.176134 
L 284.543853 121.27689 
L 283.617315 118.377646 
L 282.722798 115.478403 
L 281.879304 112.579159 
L 281.105761 109.679915 
L 280.420318 106.780671 
L 279.839633 103.881427 
L 279.3782 100.982183 
L 279.047739 98.082939 
L 278.856697 95.183696 
L 278.809886 92.284452 
L 278.908279 89.385208 
L 279.148979 86.485964 
L 279.525356 83.58672 
L 280.027352 80.687476 
L 280.641929 77.788233 
L 281.353629 74.888989 
L 282.145222 71.989745 
L 282.998395 69.090501 
L 283.894447 66.191257 
L 306.505553 66.191257 
L 306.505553 66.191257 
L 307.401605 69.090501 
L 308.254778 71.989745 
L 309.046371 74.888989 
L 309.758071 77.788233 
L 310.372648 80.687476 
L 310.874644 83.58672 
L 311.251021 86.485964 
L 311.491721 89.385208 
L 311.590114 92.284452 
L 311.543303 95.183696 
L 311.352261 98.082939 
L 311.0218 100.982183 
L 310.560367 103.881427 
L 309.979682 106.780671 
L 309.294239 109.679915 
L 308.520696 112.579159 
L 307.677202 115.478403 
L 306.782685 118.377646 
L 305.856147 121.27689 
L 304.916005 124.176134 
L 303.979499 127.075378 
L 303.062211 129.974622 
L 302.177684 132.873866 
L 301.337177 135.77311 
L 300.549537 138.672353 
L 299.821187 141.571597 
L 299.156224 144.470841 
L 298.556589 147.370085 
L 298.02232 150.269329 
L 297.551829 153.168573 
L 297.142218 156.067817 
L 296.789587 158.96706 
L 296.489338 161.866304 
L 296.236452 164.765548 
L 296.025727 167.664792 
L 295.851985 170.564036 
L 295.710235 173.46328 
L 295.595793 176.362524 
L 295.504369 179.261767 
L 295.432117 182.161011 
L 295.37566 185.060255 
L 295.332095 187.959499 
L 295.298979 190.858743 
L 295.274309 193.757987 
L 295.256498 196.657231 
L 295.244344 199.556474 
L 295.23702 202.455718 
L 295.234057 205.354962 
L 295.235349 208.254206 
L 295.241169 211.15345 
L 295.252208 214.052694 
L 295.269628 216.951938 
L 295.29514 219.851181 
L 295.331109 222.750425 
L 295.380682 225.649669 
L 295.44794 228.548913 
L 295.538073 231.448157 
L 295.657581 234.347401 
L 295.814488 237.246645 
L 296.018564 240.145888 
L 296.28155 243.045132 
L 296.617365 245.944376 
L 297.042284 248.84362 
L 297.575065 251.742864 
L 298.236998 254.642108 
L 299.051866 257.541352 
L 300.045766 260.440595 
L 301.246795 263.339839 
L 302.684554 266.239083 
L 304.389456 269.138327 
L 306.391847 272.037571 
L 308.720902 274.936815 
L 311.403339 277.836059 
L 314.461963 280.735302 
L 317.914069 283.634546 
L 321.769792 286.53379 
L 326.030435 289.433034 
L 330.6869 292.332278 
L 335.718293 295.231522 
L 341.090821 298.130765 
L 346.757073 301.030009 
L 352.655788 303.929253 
L 358.712186 306.828497 
L 364.838919 309.727741 
L 370.937681 312.626985 
L 376.901442 315.526229 
L 382.617298 318.425472 
L 387.969812 321.324716 
L 392.844751 324.22396 
L 397.133035 327.123204 
L 400.734732 330.022448 
L 403.562887 332.921692 
L 405.546994 335.820936 
L 406.6359 338.720179 
L 406.8 341.619423 
L 406.032567 344.518667 
L 404.350152 347.417911 
L 401.792017 350.317155 
L 398.418617 353.216399 
z
" clip-path="url(#pfa11477d75)" style="fill: #1f77b4; fill-opacity: 0.3"/>
   </g>
   <g id="matplotlib.axis_1">
    <g id="xtick_1">
     <g id="line2d_1">
      <defs>
       <path id="ma185b70742" d="M 0 0 
L 0 3.5 
" style="stroke: #000000; stroke-width: 0.8"/>
      </defs>
      <g>
       <use xlink:href="#ma185b70742" x="295.2" y="384.48" style="stroke: #000000; stroke-width: 0.8"/>
      </g>
     </g>
     <g id="text_1">
      <!-- 1 -->
      <g transform="translate(292.01875 399.078438) scale(0.1 -0.1)">
       <defs>
        <path id="DejaVuSans-31" d="M 794 531 
L 1825 531 
L 1825 4091 
L 703 3866 
L 703 4441 
L 1819 4666 
L 2450 4666 
L 2450 531 
L 3481 531 
L 3481 0 
L 794 0 
L 794 531 
z
" transform="scale(0.015625)"/>
       </defs>
       <use xlink:href="#DejaVuSans-31"/>
      </g>
     </g>
    </g>
   </g>
   <g id="matplotlib.axis_2">
    <g id="ytick_1">
     <g id="line2d_2">
      <defs>
       <path id="m2144c69476" d="M 0 0 
L -3.5 0 
" style="stroke: #000000; stroke-width: 0.8"/>
      </defs>
      <g>
       <use xlink:href="#m2144c69476" x="72" y="384.48" style="stroke: #000000; stroke-width: 0.8"/>
      </g>
     </g>
     <g id="text_2">
      <!-- 0 -->
      <g transform="translate(58.6375 388.279219) scale(0.1 -0.1)">
       <defs>
        <path id="DejaVuSans-30" d="M 2034 4250 
Q 1547 4250 1301 3770 
Q 1056 3291 1056 2328 
Q 1056 1369 1301 889 
Q 1547 409 2034 409 
Q 2525 409 2770 889 
Q 3016 1369 3016 2328 
Q 3016 3291 2770 3770 
Q 2525 4250 2034 4250 
z
M 2034 4750 
Q 2819 4750 3233 4129 
Q 3647 3509 3647 2328 
Q 3647 1150 3233 529 
Q 2819 -91 2034 -91 
Q 1250 -91 836 529 
Q 422 1150 422 2328 
Q 422 3509 836 4129 
Q 1250 4750 2034 4750 
z
" transform="scale(0.015625)"/>
       </defs>
       <use xlink:href="#DejaVuSans-30"/>
      </g>
     </g>
    </g>
    <g id="ytick_2">
     <g id="line2d_3">
      <g>
       <use xlink:href="#m2144c69476" x="72" y="329.184757" style="stroke: #000000; stroke-width: 0.8"/>
      </g>
     </g>
     <g id="text_3">
      <!-- 20 -->
      <g transform="translate(52.275 332.983976) scale(0.1 -0.1)">
       <defs>
        <path id="DejaVuSans-32" d="M 1228 531 
L 3431 531 
L 3431 0 
L 469 0 
L 469 531 
Q 828 903 1448 1529 
Q 2069 2156 2228 2338 
Q 2531 2678 2651 2914 
Q 2772 3150 2772 3378 
Q 2772 3750 2511 3984 
Q 2250 4219 1831 4219 
Q 1534 4219 1204 4116 
Q 875 4013 500 3803 
L 500 4441 
Q 881 4594 1212 4672 
Q 1544 4750 1819 4750 
Q 2544 4750 2975 4387 
Q 3406 4025 3406 3419 
Q 3406 3131 3298 2873 
Q 3191 2616 2906 2266 
Q 2828 2175 2409 1742 
Q 1991 1309 1228 531 
z
" transform="scale(0.015625)"/>
       </defs>
       <use xlink:href="#DejaVuSans-32"/>
       <use xlink:href="#DejaVuSans-30" transform="translate(63.623047 0)"/>
      </g>
     </g>
    </g>
    <g id="ytick_3">
     <g id="line2d_4">
      <g>
       <use xlink:href="#m2144c69476" x="72" y="273.889514" style="stroke: #000000; stroke-width: 0.8"/>
      </g>
     </g>
     <g id="text_4">
      <!-- 40 -->
      <g transform="translate(52.275 277.688733) scale(0.1 -0.1)">
       <defs>
        <path id="DejaVuSans-34" d="M 2419 4116 
L 825 1625 
L 2419 1625 
L 2419 4116 
z
M 2253 4666 
L 3047 4666 
L 3047 1625 
L 3713 1625 
L 3713 1100 
L 3047 1100 
L 3047 0 
L 2419 0 
L 2419 1100 
L 313 1100 
L 313 1709 
L 2253 4666 
z
" transform="scale(0.015625)"/>
       </defs>
       <use xlink:href="#DejaVuSans-34"/>
       <use xlink:href="#DejaVuSans-30" transform="translate(63.623047 0)"/>
      </g>
     </g>
    </g>
    <g id="ytick_4">
     <g id="line2d_5">
      <g>
       <use xlink:href="#m2144c69476" x="72" y="218.594272" style="stroke: #000000; stroke-width: 0.8"/>
      </g>
     </g>
     <g id="text_5">
      <!-- 60 -->
      <g transform="translate(52.275 222.39349) scale(0.1 -0.1)">
       <defs>
        <path id="DejaVuSans-36" d="M 2113 2584 
Q 1688 2584 1439 2293 
Q 1191 2003 1191 1497 
Q 1191 994 1439 701 
Q 1688 409 2113 409 
Q 2538 409 2786 701 
Q 3034 994 3034 1497 
Q 3034 2003 2786 2293 
Q 2538 2584 2113 2584 
z
M 3366 4563 
L 3366 3988 
Q 3128 4100 2886 4159 
Q 2644 4219 2406 4219 
Q 1781 4219 1451 3797 
Q 1122 3375 1075 2522 
Q 1259 2794 1537 2939 
Q 1816 3084 2150 3084 
Q 2853 3084 3261 2657 
Q 3669 2231 3669 1497 
Q 3669 778 3244 343 
Q 2819 -91 2113 -91 
Q 1303 -91 875 529 
Q 447 1150 447 2328 
Q 447 3434 972 4092 
Q 1497 4750 2381 4750 
Q 2619 4750 2861 4703 
Q 3103 4656 3366 4563 
z
" transform="scale(0.015625)"/>
       </defs>
       <use xlink:href="#DejaVuSans-36"/>
       <use xlink:href="#DejaVuSans-30" transform="translate(63.623047 0)"/>
      </g>
     </g>
    </g>
    <g id="ytick_5">
     <g id="line2d_6">
      <g>
       <use xlink:href="#m2144c69476" x="72" y="163.299029" style="stroke: #000000; stroke-width: 0.8"/>
      </g>
     </g>
     <g id="text_6">
      <!-- 80 -->
      <g transform="translate(52.275 167.098248) scale(0.1 -0.1)">
       <defs>
        <path id="DejaVuSans-38" d="M 2034 2216 
Q 1584 2216 1326 1975 
Q 1069 1734 1069 1313 
Q 1069 891 1326 650 
Q 1584 409 2034 409 
Q 2484 409 2743 651 
Q 3003 894 3003 1313 
Q 3003 1734 2745 1975 
Q 2488 2216 2034 2216 
z
M 1403 2484 
Q 997 2584 770 2862 
Q 544 3141 544 3541 
Q 544 4100 942 4425 
Q 1341 4750 2034 4750 
Q 2731 4750 3128 4425 
Q 3525 4100 3525 3541 
Q 3525 3141 3298 2862 
Q 3072 2584 2669 2484 
Q 3125 2378 3379 2068 
Q 3634 1759 3634 1313 
Q 3634 634 3220 271 
Q 2806 -91 2034 -91 
Q 1263 -91 848 271 
Q 434 634 434 1313 
Q 434 1759 690 2068 
Q 947 2378 1403 2484 
z
M 1172 3481 
Q 1172 3119 1398 2916 
Q 1625 2713 2034 2713 
Q 2441 2713 2670 2916 
Q 2900 3119 2900 3481 
Q 2900 3844 2670 4047 
Q 2441 4250 2034 4250 
Q 1625 4250 1398 4047 
Q 1172 3844 1172 3481 
z
" transform="scale(0.015625)"/>
       </defs>
       <use xlink:href="#DejaVuSans-38"/>
       <use xlink:href="#DejaVuSans-30" transform="translate(63.623047 0)"/>
      </g>
     </g>
    </g>
    <g id="ytick_6">
     <g id="line2d_7">
      <g>
       <use xlink:href="#m2144c69476" x="72" y="108.003786" style="stroke: #000000; stroke-width: 0.8"/>
      </g>
     </g>
     <g id="text_7">
      <!-- 100 -->
      <g transform="translate(45.9125 111.803005) scale(0.1 -0.1)">
       <use xlink:href="#DejaVuSans-31"/>
       <use xlink:href="#DejaVuSans-30" transform="translate(63.623047 0)"/>
       <use xlink:href="#DejaVuSans-30" transform="translate(127.246094 0)"/>
      </g>
     </g>
    </g>
    <g id="ytick_7">
     <g id="line2d_8">
      <g>
       <use xlink:href="#m2144c69476" x="72" y="52.708543" style="stroke: #000000; stroke-width: 0.8"/>
      </g>
     </g>
     <g id="text_8">
      <!-- 120 -->
      <g transform="translate(45.9125 56.507762) scale(0.1 -0.1)">
       <use xlink:href="#DejaVuSans-31"/>
       <use xlink:href="#DejaVuSans-32" transform="translate(63.623047 0)"/>
       <use xlink:href="#DejaVuSans-30" transform="translate(127.246094 0)"/>
      </g>
     </g>
    </g>
    <g id="text_9">
     <!-- Time (ms) -->
     <g transform="translate(39.832812 243.359219) rotate(-90) scale(0.1 -0.1)">
      <defs>
       <path id="DejaVuSans-54" d="M -19 4666 
L 3928 4666 
L 3928 4134 
L 2272 4134 
L 2272 0 
L 1638 0 
L 1638 4134 
L -19 4134 
L -19 4666 
z
" transform="scale(0.015625)"/>
       <path id="DejaVuSans-69" d="M 603 3500 
L 1178 3500 
L 1178 0 
L 603 0 
L 603 3500 
z
M 603 4863 
L 1178 4863 
L 1178 4134 
L 603 4134 
L 603 4863 
z
" transform="scale(0.015625)"/>
       <path id="DejaVuSans-6d" d="M 3328 2828 
Q 3544 3216 3844 3400 
Q 4144 3584 4550 3584 
Q 5097 3584 5394 3201 
Q 5691 2819 5691 2113 
L 5691 0 
L 5113 0 
L 5113 2094 
Q 5113 2597 4934 2840 
Q 4756 3084 4391 3084 
Q 3944 3084 3684 2787 
Q 3425 2491 3425 1978 
L 3425 0 
L 2847 0 
L 2847 2094 
Q 2847 2600 2669 2842 
Q 2491 3084 2119 3084 
Q 1678 3084 1418 2786 
Q 1159 2488 1159 1978 
L 1159 0 
L 581 0 
L 581 3500 
L 1159 3500 
L 1159 2956 
Q 1356 3278 1631 3431 
Q 1906 3584 2284 3584 
Q 2666 3584 2933 3390 
Q 3200 3197 3328 2828 
z
" transform="scale(0.015625)"/>
       <path id="DejaVuSans-65" d="M 3597 1894 
L 3597 1613 
L 953 1613 
Q 991 1019 1311 708 
Q 1631 397 2203 397 
Q 2534 397 2845 478 
Q 3156 559 3463 722 
L 3463 178 
Q 3153 47 2828 -22 
Q 2503 -91 2169 -91 
Q 1331 -91 842 396 
Q 353 884 353 1716 
Q 353 2575 817 3079 
Q 1281 3584 2069 3584 
Q 2775 3584 3186 3129 
Q 3597 2675 3597 1894 
z
M 3022 2063 
Q 3016 2534 2758 2815 
Q 2500 3097 2075 3097 
Q 1594 3097 1305 2825 
Q 1016 2553 972 2059 
L 3022 2063 
z
" transform="scale(0.015625)"/>
       <path id="DejaVuSans-20" transform="scale(0.015625)"/>
       <path id="DejaVuSans-28" d="M 1984 4856 
Q 1566 4138 1362 3434 
Q 1159 2731 1159 2009 
Q 1159 1288 1364 580 
Q 1569 -128 1984 -844 
L 1484 -844 
Q 1016 -109 783 600 
Q 550 1309 550 2009 
Q 550 2706 781 3412 
Q 1013 4119 1484 4856 
L 1984 4856 
z
" transform="scale(0.015625)"/>
       <path id="DejaVuSans-73" d="M 2834 3397 
L 2834 2853 
Q 2591 2978 2328 3040 
Q 2066 3103 1784 3103 
Q 1356 3103 1142 2972 
Q 928 2841 928 2578 
Q 928 2378 1081 2264 
Q 1234 2150 1697 2047 
L 1894 2003 
Q 2506 1872 2764 1633 
Q 3022 1394 3022 966 
Q 3022 478 2636 193 
Q 2250 -91 1575 -91 
Q 1294 -91 989 -36 
Q 684 19 347 128 
L 347 722 
Q 666 556 975 473 
Q 1284 391 1588 391 
Q 1994 391 2212 530 
Q 2431 669 2431 922 
Q 2431 1156 2273 1281 
Q 2116 1406 1581 1522 
L 1381 1569 
Q 847 1681 609 1914 
Q 372 2147 372 2553 
Q 372 3047 722 3315 
Q 1072 3584 1716 3584 
Q 2034 3584 2315 3537 
Q 2597 3491 2834 3397 
z
" transform="scale(0.015625)"/>
       <path id="DejaVuSans-29" d="M 513 4856 
L 1013 4856 
Q 1481 4119 1714 3412 
Q 1947 2706 1947 2009 
Q 1947 1309 1714 600 
Q 1481 -109 1013 -844 
L 513 -844 
Q 928 -128 1133 580 
Q 1338 1288 1338 2009 
Q 1338 2731 1133 3434 
Q 928 4138 513 4856 
z
" transform="scale(0.015625)"/>
      </defs>
      <use xlink:href="#DejaVuSans-54"/>
      <use xlink:href="#DejaVuSans-69" transform="translate(57.958984 0)"/>
      <use xlink:href="#DejaVuSans-6d" transform="translate(85.742188 0)"/>
      <use xlink:href="#DejaVuSans-65" transform="translate(183.154297 0)"/>
      <use xlink:href="#DejaVuSans-20" transform="translate(244.677734 0)"/>
      <use xlink:href="#DejaVuSans-28" transform="translate(276.464844 0)"/>
      <use xlink:href="#DejaVuSans-6d" transform="translate(315.478516 0)"/>
      <use xlink:href="#DejaVuSans-73" transform="translate(412.890625 0)"/>
      <use xlink:href="#DejaVuSans-29" transform="translate(464.990234 0)"/>
     </g>
    </g>
   </g>
   <g id="LineCollection_1">
    <path d="M 239.4 309.26722 
L 351 309.26722 
" clip-path="url(#pfa11477d75)" style="fill: none; stroke: #1f77b4; stroke-width: 1.5"/>
   </g>
   <g id="LineCollection_2">
    <path d="M 239.4 66.191257 
L 351 66.191257 
" clip-path="url(#pfa11477d75)" style="fill: none; stroke: #1f77b4; stroke-width: 1.5"/>
   </g>
   <g id="LineCollection_3">
    <path d="M 239.4 353.216399 
L 351 353.216399 
" clip-path="url(#pfa11477d75)" style="fill: none; stroke: #1f77b4; stroke-width: 1.5"/>
   </g>
   <g id="LineCollection_4">
    <path d="M 295.2 353.216399 
L 295.2 66.191257 
" clip-path="url(#pfa11477d75)" style="fill: none; stroke: #1f77b4; stroke-width: 1.5"/>
   </g>
   <g id="patch_3">
    <path d="M 250.56 349.203361 
L 339.84 349.203361 
L 339.84 327.919791 
L 250.56 327.919791 
L 250.56 349.203361 
z
" clip-path="url(#pfa11477d75)" style="fill: #1f77b4; stroke: #000000; stroke-linejoin: miter"/>
   </g>
   <g id="line2d_9">
    <path d="M 295.2 349.203361 
L 295.2 353.216399 
" clip-path="url(#pfa11477d75)" style="fill: none; stroke: #000000; stroke-linecap: square"/>
   </g>
   <g id="line2d_10">
    <path d="M 295.2 327.919791 
L 295.2 316.349144 
" clip-path="url(#pfa11477d75)" style="fill: none; stroke: #000000; stroke-linecap: square"/>
   </g>
   <g id="line2d_11">
    <path d="M 272.88 353.216399 
L 317.52 353.216399 
" clip-path="url(#pfa11477d75)" style="fill: none; stroke: #000000; stroke-linecap: square"/>
   </g>
   <g id="line2d_12">
    <path d="M 272.88 316.349144 
L 317.52 316.349144 
" clip-path="url(#pfa11477d75)" style="fill: none; stroke: #000000; stroke-linecap: square"/>
   </g>
   <g id="line2d_13">
    <defs>
     <path id="m45cf4204d2" d="M 0 3 
C 0.795609 3 1.55874 2.683901 2.12132 2.12132 
C 2.683901 1.55874 3 0.795609 3 0 
C 3 -0.795609 2.683901 -1.55874 2.12132 -2.12132 
C 1.55874 -2.683901 0.795609 -3 0 -3 
C -0.795609 -3 -1.55874 -2.683901 -2.12132 -2.12132 
C -2.683901 -1.55874 -3 -0.795609 -3 0 
C -3 0.795609 -2.683901 1.55874 -2.12132 2.12132 
C -1.55874 2.683901 -0.795609 3 0 3 
z
" style="stroke: #000000"/>
    </defs>
    <g clip-path="url(#pfa11477d75)">
     <use xlink:href="#m45cf4204d2" x="295.2" y="94.411497" style="fill-opacity: 0; stroke: #000000"/>
     <use xlink:href="#m45cf4204d2" x="295.2" y="95.975658" style="fill-opacity: 0; stroke: #000000"/>
     <use xlink:href="#m45cf4204d2" x="295.2" y="94.187117" style="fill-opacity: 0; stroke: #000000"/>
     <use xlink:href="#m45cf4204d2" x="295.2" y="89.68722" style="fill-opacity: 0; stroke: #000000"/>
     <use xlink:href="#m45cf4204d2" x="295.2" y="96.764796" style="fill-opacity: 0; stroke: #000000"/>
     <use xlink:href="#m45cf4204d2" x="295.2" y="89.703809" style="fill-opacity: 0; stroke: #000000"/>
     <use xlink:href="#m45cf4204d2" x="295.2" y="95.575332" style="fill-opacity: 0; stroke: #000000"/>
     <use xlink:href="#m45cf4204d2" x="295.2" y="92.115893" style="fill-opacity: 0; stroke: #000000"/>
     <use xlink:href="#m45cf4204d2" x="295.2" y="94.835512" style="fill-opacity: 0; stroke: #000000"/>
     <use xlink:href="#m45cf4204d2" x="295.2" y="93.977263" style="fill-opacity: 0; stroke: #000000"/>
     <use xlink:href="#m45cf4204d2" x="295.2" y="91.92798" style="fill-opacity: 0; stroke: #000000"/>
     <use xlink:href="#m45cf4204d2" x="295.2" y="96.561008" style="fill-opacity: 0; stroke: #000000"/>
     <use xlink:href="#m45cf4204d2" x="295.2" y="88.482547" style="fill-opacity: 0; stroke: #000000"/>
     <use xlink:href="#m45cf4204d2" x="295.2" y="93.455953" style="fill-opacity: 0; stroke: #000000"/>
     <use xlink:href="#m45cf4204d2" x="295.2" y="108.166888" style="fill-opacity: 0; stroke: #000000"/>
     <use xlink:href="#m45cf4204d2" x="295.2" y="66.191257" style="fill-opacity: 0; stroke: #000000"/>
     <use xlink:href="#m45cf4204d2" x="295.2" y="93.853145" style="fill-opacity: 0; stroke: #000000"/>
     <use xlink:href="#m45cf4204d2" x="295.2" y="94.843535" style="fill-opacity: 0; stroke: #000000"/>
     <use xlink:href="#m45cf4204d2" x="295.2" y="84.915399" style="fill-opacity: 0; stroke: #000000"/>
     <use xlink:href="#m45cf4204d2" x="295.2" y="93.392317" style="fill-opacity: 0; stroke: #000000"/>
    </g>
   </g>
   <g id="line2d_14">
    <path d="M 250.56 339.278352 
L 339.84 339.278352 
" clip-path="url(#pfa11477d75)" style="fill: none; stroke: #ff7f0e"/>
   </g>
   <g id="patch_4">
    <path d="M 72 384.48 
L 72 51.84 
" style="fill: none; stroke: #000000; stroke-width: 0.8; stroke-linejoin: miter; stroke-linecap: square"/>
   </g>
   <g id="patch_5">
    <path d="M 518.4 384.48 
L 518.4 51.84 
" style="fill: none; stroke: #000000; stroke-width: 0.8; stroke-linejoin: miter; stroke-linecap: square"/>
   </g>
   <g id="patch_6">
    <path d="M 72 384.48 
L 518.4 384.48 
" style="fill: none; stroke: #000000; stroke-width: 0.8; stroke-linejoin: miter; stroke-linecap: square"/>
   </g>
   <g id="patch_7">
    <path d="M 72 51.84 
L 518.4 51.84 
" style="fill: none; stroke: #000000; stroke-width: 0.8; stroke-linejoin: miter; stroke-linecap: square"/>
   </g>
   <g id="text_10">
    <!-- Get Trace With Delay -->
    <g transform="translate(232.04625 45.84) scale(0.12 -0.12)">
     <defs>
      <path id="DejaVuSans-47" d="M 3809 666 
L 3809 1919 
L 2778 1919 
L 2778 2438 
L 4434 2438 
L 4434 434 
Q 4069 175 3628 42 
Q 3188 -91 2688 -91 
Q 1594 -91 976 548 
Q 359 1188 359 2328 
Q 359 3472 976 4111 
Q 1594 4750 2688 4750 
Q 3144 4750 3555 4637 
Q 3966 4525 4313 4306 
L 4313 3634 
Q 3963 3931 3569 4081 
Q 3175 4231 2741 4231 
Q 1884 4231 1454 3753 
Q 1025 3275 1025 2328 
Q 1025 1384 1454 906 
Q 1884 428 2741 428 
Q 3075 428 3337 486 
Q 3600 544 3809 666 
z
" transform="scale(0.015625)"/>
      <path id="DejaVuSans-74" d="M 1172 4494 
L 1172 3500 
L 2356 3500 
L 2356 3053 
L 1172 3053 
L 1172 1153 
Q 1172 725 1289 603 
Q 1406 481 1766 481 
L 2356 481 
L 2356 0 
L 1766 0 
Q 1100 0 847 248 
Q 594 497 594 1153 
L 594 3053 
L 172 3053 
L 172 3500 
L 594 3500 
L 594 4494 
L 1172 4494 
z
" transform="scale(0.015625)"/>
      <path id="DejaVuSans-72" d="M 2631 2963 
Q 2534 3019 2420 3045 
Q 2306 3072 2169 3072 
Q 1681 3072 1420 2755 
Q 1159 2438 1159 1844 
L 1159 0 
L 581 0 
L 581 3500 
L 1159 3500 
L 1159 2956 
Q 1341 3275 1631 3429 
Q 1922 3584 2338 3584 
Q 2397 3584 2469 3576 
Q 2541 3569 2628 3553 
L 2631 2963 
z
" transform="scale(0.015625)"/>
      <path id="DejaVuSans-61" d="M 2194 1759 
Q 1497 1759 1228 1600 
Q 959 1441 959 1056 
Q 959 750 1161 570 
Q 1363 391 1709 391 
Q 2188 391 2477 730 
Q 2766 1069 2766 1631 
L 2766 1759 
L 2194 1759 
z
M 3341 1997 
L 3341 0 
L 2766 0 
L 2766 531 
Q 2569 213 2275 61 
Q 1981 -91 1556 -91 
Q 1019 -91 701 211 
Q 384 513 384 1019 
Q 384 1609 779 1909 
Q 1175 2209 1959 2209 
L 2766 2209 
L 2766 2266 
Q 2766 2663 2505 2880 
Q 2244 3097 1772 3097 
Q 1472 3097 1187 3025 
Q 903 2953 641 2809 
L 641 3341 
Q 956 3463 1253 3523 
Q 1550 3584 1831 3584 
Q 2591 3584 2966 3190 
Q 3341 2797 3341 1997 
z
" transform="scale(0.015625)"/>
      <path id="DejaVuSans-63" d="M 3122 3366 
L 3122 2828 
Q 2878 2963 2633 3030 
Q 2388 3097 2138 3097 
Q 1578 3097 1268 2742 
Q 959 2388 959 1747 
Q 959 1106 1268 751 
Q 1578 397 2138 397 
Q 2388 397 2633 464 
Q 2878 531 3122 666 
L 3122 134 
Q 2881 22 2623 -34 
Q 2366 -91 2075 -91 
Q 1284 -91 818 406 
Q 353 903 353 1747 
Q 353 2603 823 3093 
Q 1294 3584 2113 3584 
Q 2378 3584 2631 3529 
Q 2884 3475 3122 3366 
z
" transform="scale(0.015625)"/>
      <path id="DejaVuSans-57" d="M 213 4666 
L 850 4666 
L 1831 722 
L 2809 4666 
L 3519 4666 
L 4500 722 
L 5478 4666 
L 6119 4666 
L 4947 0 
L 4153 0 
L 3169 4050 
L 2175 0 
L 1381 0 
L 213 4666 
z
" transform="scale(0.015625)"/>
      <path id="DejaVuSans-68" d="M 3513 2113 
L 3513 0 
L 2938 0 
L 2938 2094 
Q 2938 2591 2744 2837 
Q 2550 3084 2163 3084 
Q 1697 3084 1428 2787 
Q 1159 2491 1159 1978 
L 1159 0 
L 581 0 
L 581 4863 
L 1159 4863 
L 1159 2956 
Q 1366 3272 1645 3428 
Q 1925 3584 2291 3584 
Q 2894 3584 3203 3211 
Q 3513 2838 3513 2113 
z
" transform="scale(0.015625)"/>
      <path id="DejaVuSans-44" d="M 1259 4147 
L 1259 519 
L 2022 519 
Q 2988 519 3436 956 
Q 3884 1394 3884 2338 
Q 3884 3275 3436 3711 
Q 2988 4147 2022 4147 
L 1259 4147 
z
M 628 4666 
L 1925 4666 
Q 3281 4666 3915 4102 
Q 4550 3538 4550 2338 
Q 4550 1131 3912 565 
Q 3275 0 1925 0 
L 628 0 
L 628 4666 
z
" transform="scale(0.015625)"/>
      <path id="DejaVuSans-6c" d="M 603 4863 
L 1178 4863 
L 1178 0 
L 603 0 
L 603 4863 
z
" transform="scale(0.015625)"/>
      <path id="DejaVuSans-79" d="M 2059 -325 
Q 1816 -950 1584 -1140 
Q 1353 -1331 966 -1331 
L 506 -1331 
L 506 -850 
L 844 -850 
Q 1081 -850 1212 -737 
Q 1344 -625 1503 -206 
L 1606 56 
L 191 3500 
L 800 3500 
L 1894 763 
L 2988 3500 
L 3597 3500 
L 2059 -325 
z
" transform="scale(0.015625)"/>
     </defs>
     <use xlink:href="#DejaVuSans-47"/>
     <use xlink:href="#DejaVuSans-65" transform="translate(77.490234 0)"/>
     <use xlink:href="#DejaVuSans-74" transform="translate(139.013672 0)"/>
     <use xlink:href="#DejaVuSans-20" transform="translate(178.222656 0)"/>
     <use xlink:href="#DejaVuSans-54" transform="translate(210.009766 0)"/>
     <use xlink:href="#DejaVuSans-72" transform="translate(256.34375 0)"/>
     <use xlink:href="#DejaVuSans-61" transform="translate(297.457031 0)"/>
     <use xlink:href="#DejaVuSans-63" transform="translate(358.736328 0)"/>
     <use xlink:href="#DejaVuSans-65" transform="translate(413.716797 0)"/>
     <use xlink:href="#DejaVuSans-20" transform="translate(475.240234 0)"/>
     <use xlink:href="#DejaVuSans-57" transform="translate(507.027344 0)"/>
     <use xlink:href="#DejaVuSans-69" transform="translate(603.654297 0)"/>
     <use xlink:href="#DejaVuSans-74" transform="translate(631.4375 0)"/>
     <use xlink:href="#DejaVuSans-68" transform="translate(670.646484 0)"/>
     <use xlink:href="#DejaVuSans-20" transform="translate(734.025391 0)"/>
     <use xlink:href="#DejaVuSans-44" transform="translate(765.8125 0)"/>
     <use xlink:href="#DejaVuSans-65" transform="translate(842.814453 0)"/>
     <use xlink:href="#DejaVuSans-6c" transform="translate(904.337891 0)"/>
     <use xlink:href="#DejaVuSans-61" transform="translate(932.121094 0)"/>
     <use xlink:href="#DejaVuSans-79" transform="translate(993.400391 0)"/>
    </g>
   </g>
  </g>
 </g>
 <defs>
  <clipPath id="pfa11477d75">
   <rect x="72" y="51.84" width="446.4" height="332.64"/>
  </clipPath>
 </defs>
</svg>
