<?xml version="1.0" encoding="utf-8" standalone="no"?>
<!DOCTYPE svg PUBLIC "-//W3C//DTD SVG 1.1//EN"
  "http://www.w3.org/Graphics/SVG/1.1/DTD/svg11.dtd">
<svg xmlns:xlink="http://www.w3.org/1999/xlink" width="720pt" height="432pt" viewBox="0 0 720 432" xmlns="http://www.w3.org/2000/svg" version="1.1">
 <metadata>
  <rdf:RDF xmlns:dc="http://purl.org/dc/elements/1.1/" xmlns:cc="http://creativecommons.org/ns#" xmlns:rdf="http://www.w3.org/1999/02/22-rdf-syntax-ns#">
   <cc:Work>
    <dc:type rdf:resource="http://purl.org/dc/dcmitype/StillImage"/>
    <dc:date>2025-09-30T20:42:37.030921</dc:date>
    <dc:format>image/svg+xml</dc:format>
    <dc:creator>
     <cc:Agent>
      <dc:title>Matplotlib v3.10.3, https://matplotlib.org/</dc:title>
     </cc:Agent>
    </dc:creator>
   </cc:Work>
  </rdf:RDF>
 </metadata>
 <defs>
  <style type="text/css">*{stroke-linejoin: round; stroke-linecap: butt}</style>
 </defs>
 <g id="figure_1">
  <g id="patch_1">
   <path d="M 0 432 
L 720 432 
L 720 0 
L 0 0 
z
" style="fill: #ffffff"/>
  </g>
  <g id="axes_1">
   <g id="patch_2">
    <path d="M 90 384.48 
L 648 384.48 
L 648 51.84 
L 90 51.84 
z
" style="fill: #ffffff"/>
   </g>
   <g id="matplotlib.axis_1">
    <g id="xtick_1">
     <g id="line2d_1">
      <defs>
       <path id="m3b76358cd7" d="M 0 0 
L 0 3.5 
" style="stroke: #000000; stroke-width: 0.8"/>
      </defs>
      <g>
       <use xlink:href="#m3b76358cd7" x="115.363636" y="384.48" style="stroke: #000000; stroke-width: 0.8"/>
      </g>
     </g>
     <g id="text_1">
      <!-- 0 -->
      <g transform="translate(112.182386 399.078438) scale(0.1 -0.1)">
       <defs>
        <path id="DejaVuSans-30" d="M 2034 4250 
Q 1547 4250 1301 3770 
Q 1056 3291 1056 2328 
Q 1056 1369 1301 889 
Q 1547 409 2034 409 
Q 2525 409 2770 889 
Q 3016 1369 3016 2328 
Q 3016 3291 2770 3770 
Q 2525 4250 2034 4250 
z
M 2034 4750 
Q 2819 4750 3233 4129 
Q 3647 3509 3647 2328 
Q 3647 1150 3233 529 
Q 2819 -91 2034 -91 
Q 1250 -91 836 529 
Q 422 1150 422 2328 
Q 422 3509 836 4129 
Q 1250 4750 2034 4750 
z
" transform="scale(0.015625)"/>
       </defs>
       <use xlink:href="#DejaVuSans-30"/>
      </g>
     </g>
    </g>
    <g id="xtick_2">
     <g id="line2d_2">
      <g>
       <use xlink:href="#m3b76358cd7" x="219.185316" y="384.48" style="stroke: #000000; stroke-width: 0.8"/>
      </g>
     </g>
     <g id="text_2">
      <!-- 500 -->
      <g transform="translate(209.641566 399.078438) scale(0.1 -0.1)">
       <defs>
        <path id="DejaVuSans-35" d="M 691 4666 
L 3169 4666 
L 3169 4134 
L 1269 4134 
L 1269 2991 
Q 1406 3038 1543 3061 
Q 1681 3084 1819 3084 
Q 2600 3084 3056 2656 
Q 3513 2228 3513 1497 
Q 3513 744 3044 326 
Q 2575 -91 1722 -91 
Q 1428 -91 1123 -41 
Q 819 9 494 109 
L 494 744 
Q 775 591 1075 516 
Q 1375 441 1709 441 
Q 2250 441 2565 725 
Q 2881 1009 2881 1497 
Q 2881 1984 2565 2268 
Q 2250 2553 1709 2553 
Q 1456 2553 1204 2497 
Q 953 2441 691 2322 
L 691 4666 
z
" transform="scale(0.015625)"/>
       </defs>
       <use xlink:href="#DejaVuSans-35"/>
       <use xlink:href="#DejaVuSans-30" transform="translate(63.623047 0)"/>
       <use xlink:href="#DejaVuSans-30" transform="translate(127.246094 0)"/>
      </g>
     </g>
    </g>
    <g id="xtick_3">
     <g id="line2d_3">
      <g>
       <use xlink:href="#m3b76358cd7" x="323.006996" y="384.48" style="stroke: #000000; stroke-width: 0.8"/>
      </g>
     </g>
     <g id="text_3">
      <!-- 1000 -->
      <g transform="translate(310.281996 399.078438) scale(0.1 -0.1)">
       <defs>
        <path id="DejaVuSans-31" d="M 794 531 
L 1825 531 
L 1825 4091 
L 703 3866 
L 703 4441 
L 1819 4666 
L 2450 4666 
L 2450 531 
L 3481 531 
L 3481 0 
L 794 0 
L 794 531 
z
" transform="scale(0.015625)"/>
       </defs>
       <use xlink:href="#DejaVuSans-31"/>
       <use xlink:href="#DejaVuSans-30" transform="translate(63.623047 0)"/>
       <use xlink:href="#DejaVuSans-30" transform="translate(127.246094 0)"/>
       <use xlink:href="#DejaVuSans-30" transform="translate(190.869141 0)"/>
      </g>
     </g>
    </g>
    <g id="xtick_4">
     <g id="line2d_4">
      <g>
       <use xlink:href="#m3b76358cd7" x="426.828676" y="384.48" style="stroke: #000000; stroke-width: 0.8"/>
      </g>
     </g>
     <g id="text_4">
      <!-- 1500 -->
      <g transform="translate(414.103676 399.078438) scale(0.1 -0.1)">
       <use xlink:href="#DejaVuSans-31"/>
       <use xlink:href="#DejaVuSans-35" transform="translate(63.623047 0)"/>
       <use xlink:href="#DejaVuSans-30" transform="translate(127.246094 0)"/>
       <use xlink:href="#DejaVuSans-30" transform="translate(190.869141 0)"/>
      </g>
     </g>
    </g>
    <g id="xtick_5">
     <g id="line2d_5">
      <g>
       <use xlink:href="#m3b76358cd7" x="530.650355" y="384.48" style="stroke: #000000; stroke-width: 0.8"/>
      </g>
     </g>
     <g id="text_5">
      <!-- 2000 -->
      <g transform="translate(517.925355 399.078438) scale(0.1 -0.1)">
       <defs>
        <path id="DejaVuSans-32" d="M 1228 531 
L 3431 531 
L 3431 0 
L 469 0 
L 469 531 
Q 828 903 1448 1529 
Q 2069 2156 2228 2338 
Q 2531 2678 2651 2914 
Q 2772 3150 2772 3378 
Q 2772 3750 2511 3984 
Q 2250 4219 1831 4219 
Q 1534 4219 1204 4116 
Q 875 4013 500 3803 
L 500 4441 
Q 881 4594 1212 4672 
Q 1544 4750 1819 4750 
Q 2544 4750 2975 4387 
Q 3406 4025 3406 3419 
Q 3406 3131 3298 2873 
Q 3191 2616 2906 2266 
Q 2828 2175 2409 1742 
Q 1991 1309 1228 531 
z
" transform="scale(0.015625)"/>
       </defs>
       <use xlink:href="#DejaVuSans-32"/>
       <use xlink:href="#DejaVuSans-30" transform="translate(63.623047 0)"/>
       <use xlink:href="#DejaVuSans-30" transform="translate(127.246094 0)"/>
       <use xlink:href="#DejaVuSans-30" transform="translate(190.869141 0)"/>
      </g>
     </g>
    </g>
    <g id="xtick_6">
     <g id="line2d_6">
      <g>
       <use xlink:href="#m3b76358cd7" x="634.472035" y="384.48" style="stroke: #000000; stroke-width: 0.8"/>
      </g>
     </g>
     <g id="text_6">
      <!-- 2500 -->
      <g transform="translate(621.747035 399.078438) scale(0.1 -0.1)">
       <use xlink:href="#DejaVuSans-32"/>
       <use xlink:href="#DejaVuSans-35" transform="translate(63.623047 0)"/>
       <use xlink:href="#DejaVuSans-30" transform="translate(127.246094 0)"/>
       <use xlink:href="#DejaVuSans-30" transform="translate(190.869141 0)"/>
      </g>
     </g>
    </g>
    <g id="text_7">
     <!-- Index -->
     <g transform="translate(355.233594 412.756563) scale(0.1 -0.1)">
      <defs>
       <path id="DejaVuSans-49" d="M 628 4666 
L 1259 4666 
L 1259 0 
L 628 0 
L 628 4666 
z
" transform="scale(0.015625)"/>
       <path id="DejaVuSans-6e" d="M 3513 2113 
L 3513 0 
L 2938 0 
L 2938 2094 
Q 2938 2591 2744 2837 
Q 2550 3084 2163 3084 
Q 1697 3084 1428 2787 
Q 1159 2491 1159 1978 
L 1159 0 
L 581 0 
L 581 3500 
L 1159 3500 
L 1159 2956 
Q 1366 3272 1645 3428 
Q 1925 3584 2291 3584 
Q 2894 3584 3203 3211 
Q 3513 2838 3513 2113 
z
" transform="scale(0.015625)"/>
       <path id="DejaVuSans-64" d="M 2906 2969 
L 2906 4863 
L 3481 4863 
L 3481 0 
L 2906 0 
L 2906 525 
Q 2725 213 2448 61 
Q 2172 -91 1784 -91 
Q 1150 -91 751 415 
Q 353 922 353 1747 
Q 353 2572 751 3078 
Q 1150 3584 1784 3584 
Q 2172 3584 2448 3432 
Q 2725 3281 2906 2969 
z
M 947 1747 
Q 947 1113 1208 752 
Q 1469 391 1925 391 
Q 2381 391 2643 752 
Q 2906 1113 2906 1747 
Q 2906 2381 2643 2742 
Q 2381 3103 1925 3103 
Q 1469 3103 1208 2742 
Q 947 2381 947 1747 
z
" transform="scale(0.015625)"/>
       <path id="DejaVuSans-65" d="M 3597 1894 
L 3597 1613 
L 953 1613 
Q 991 1019 1311 708 
Q 1631 397 2203 397 
Q 2534 397 2845 478 
Q 3156 559 3463 722 
L 3463 178 
Q 3153 47 2828 -22 
Q 2503 -91 2169 -91 
Q 1331 -91 842 396 
Q 353 884 353 1716 
Q 353 2575 817 3079 
Q 1281 3584 2069 3584 
Q 2775 3584 3186 3129 
Q 3597 2675 3597 1894 
z
M 3022 2063 
Q 3016 2534 2758 2815 
Q 2500 3097 2075 3097 
Q 1594 3097 1305 2825 
Q 1016 2553 972 2059 
L 3022 2063 
z
" transform="scale(0.015625)"/>
       <path id="DejaVuSans-78" d="M 3513 3500 
L 2247 1797 
L 3578 0 
L 2900 0 
L 1881 1375 
L 863 0 
L 184 0 
L 1544 1831 
L 300 3500 
L 978 3500 
L 1906 2253 
L 2834 3500 
L 3513 3500 
z
" transform="scale(0.015625)"/>
      </defs>
      <use xlink:href="#DejaVuSans-49"/>
      <use xlink:href="#DejaVuSans-6e" transform="translate(29.492188 0)"/>
      <use xlink:href="#DejaVuSans-64" transform="translate(92.871094 0)"/>
      <use xlink:href="#DejaVuSans-65" transform="translate(156.347656 0)"/>
      <use xlink:href="#DejaVuSans-78" transform="translate(216.121094 0)"/>
     </g>
    </g>
   </g>
   <g id="matplotlib.axis_2">
    <g id="ytick_1">
     <g id="line2d_7">
      <defs>
       <path id="m60149a0188" d="M 0 0 
L -3.5 0 
" style="stroke: #000000; stroke-width: 0.8"/>
      </defs>
      <g>
       <use xlink:href="#m60149a0188" x="90" y="384.48" style="stroke: #000000; stroke-width: 0.8"/>
      </g>
     </g>
     <g id="text_8">
      <!-- 0 -->
      <g transform="translate(76.6375 388.279219) scale(0.1 -0.1)">
       <use xlink:href="#DejaVuSans-30"/>
      </g>
     </g>
    </g>
    <g id="ytick_2">
     <g id="line2d_8">
      <g>
       <use xlink:href="#m60149a0188" x="90" y="333.239593" style="stroke: #000000; stroke-width: 0.8"/>
      </g>
     </g>
     <g id="text_9">
      <!-- 20 -->
      <g transform="translate(70.275 337.038812) scale(0.1 -0.1)">
       <use xlink:href="#DejaVuSans-32"/>
       <use xlink:href="#DejaVuSans-30" transform="translate(63.623047 0)"/>
      </g>
     </g>
    </g>
    <g id="ytick_3">
     <g id="line2d_9">
      <g>
       <use xlink:href="#m60149a0188" x="90" y="281.999186" style="stroke: #000000; stroke-width: 0.8"/>
      </g>
     </g>
     <g id="text_10">
      <!-- 40 -->
      <g transform="translate(70.275 285.798405) scale(0.1 -0.1)">
       <defs>
        <path id="DejaVuSans-34" d="M 2419 4116 
L 825 1625 
L 2419 1625 
L 2419 4116 
z
M 2253 4666 
L 3047 4666 
L 3047 1625 
L 3713 1625 
L 3713 1100 
L 3047 1100 
L 3047 0 
L 2419 0 
L 2419 1100 
L 313 1100 
L 313 1709 
L 2253 4666 
z
" transform="scale(0.015625)"/>
       </defs>
       <use xlink:href="#DejaVuSans-34"/>
       <use xlink:href="#DejaVuSans-30" transform="translate(63.623047 0)"/>
      </g>
     </g>
    </g>
    <g id="ytick_4">
     <g id="line2d_10">
      <g>
       <use xlink:href="#m60149a0188" x="90" y="230.758779" style="stroke: #000000; stroke-width: 0.8"/>
      </g>
     </g>
     <g id="text_11">
      <!-- 60 -->
      <g transform="translate(70.275 234.557998) scale(0.1 -0.1)">
       <defs>
        <path id="DejaVuSans-36" d="M 2113 2584 
Q 1688 2584 1439 2293 
Q 1191 2003 1191 1497 
Q 1191 994 1439 701 
Q 1688 409 2113 409 
Q 2538 409 2786 701 
Q 3034 994 3034 1497 
Q 3034 2003 2786 2293 
Q 2538 2584 2113 2584 
z
M 3366 4563 
L 3366 3988 
Q 3128 4100 2886 4159 
Q 2644 4219 2406 4219 
Q 1781 4219 1451 3797 
Q 1122 3375 1075 2522 
Q 1259 2794 1537 2939 
Q 1816 3084 2150 3084 
Q 2853 3084 3261 2657 
Q 3669 2231 3669 1497 
Q 3669 778 3244 343 
Q 2819 -91 2113 -91 
Q 1303 -91 875 529 
Q 447 1150 447 2328 
Q 447 3434 972 4092 
Q 1497 4750 2381 4750 
Q 2619 4750 2861 4703 
Q 3103 4656 3366 4563 
z
" transform="scale(0.015625)"/>
       </defs>
       <use xlink:href="#DejaVuSans-36"/>
       <use xlink:href="#DejaVuSans-30" transform="translate(63.623047 0)"/>
      </g>
     </g>
    </g>
    <g id="ytick_5">
     <g id="line2d_11">
      <g>
       <use xlink:href="#m60149a0188" x="90" y="179.518372" style="stroke: #000000; stroke-width: 0.8"/>
      </g>
     </g>
     <g id="text_12">
      <!-- 80 -->
      <g transform="translate(70.275 183.317591) scale(0.1 -0.1)">
       <defs>
        <path id="DejaVuSans-38" d="M 2034 2216 
Q 1584 2216 1326 1975 
Q 1069 1734 1069 1313 
Q 1069 891 1326 650 
Q 1584 409 2034 409 
Q 2484 409 2743 651 
Q 3003 894 3003 1313 
Q 3003 1734 2745 1975 
Q 2488 2216 2034 2216 
z
M 1403 2484 
Q 997 2584 770 2862 
Q 544 3141 544 3541 
Q 544 4100 942 4425 
Q 1341 4750 2034 4750 
Q 2731 4750 3128 4425 
Q 3525 4100 3525 3541 
Q 3525 3141 3298 2862 
Q 3072 2584 2669 2484 
Q 3125 2378 3379 2068 
Q 3634 1759 3634 1313 
Q 3634 634 3220 271 
Q 2806 -91 2034 -91 
Q 1263 -91 848 271 
Q 434 634 434 1313 
Q 434 1759 690 2068 
Q 947 2378 1403 2484 
z
M 1172 3481 
Q 1172 3119 1398 2916 
Q 1625 2713 2034 2713 
Q 2441 2713 2670 2916 
Q 2900 3119 2900 3481 
Q 2900 3844 2670 4047 
Q 2441 4250 2034 4250 
Q 1625 4250 1398 4047 
Q 1172 3844 1172 3481 
z
" transform="scale(0.015625)"/>
       </defs>
       <use xlink:href="#DejaVuSans-38"/>
       <use xlink:href="#DejaVuSans-30" transform="translate(63.623047 0)"/>
      </g>
     </g>
    </g>
    <g id="ytick_6">
     <g id="line2d_12">
      <g>
       <use xlink:href="#m60149a0188" x="90" y="128.277965" style="stroke: #000000; stroke-width: 0.8"/>
      </g>
     </g>
     <g id="text_13">
      <!-- 100 -->
      <g transform="translate(63.9125 132.077184) scale(0.1 -0.1)">
       <use xlink:href="#DejaVuSans-31"/>
       <use xlink:href="#DejaVuSans-30" transform="translate(63.623047 0)"/>
       <use xlink:href="#DejaVuSans-30" transform="translate(127.246094 0)"/>
      </g>
     </g>
    </g>
    <g id="ytick_7">
     <g id="line2d_13">
      <g>
       <use xlink:href="#m60149a0188" x="90" y="77.037558" style="stroke: #000000; stroke-width: 0.8"/>
      </g>
     </g>
     <g id="text_14">
      <!-- 120 -->
      <g transform="translate(63.9125 80.836777) scale(0.1 -0.1)">
       <use xlink:href="#DejaVuSans-31"/>
       <use xlink:href="#DejaVuSans-32" transform="translate(63.623047 0)"/>
       <use xlink:href="#DejaVuSans-30" transform="translate(127.246094 0)"/>
      </g>
     </g>
    </g>
    <g id="text_15">
     <!-- Average time (ms) -->
     <g transform="translate(57.832812 264.543594) rotate(-90) scale(0.1 -0.1)">
      <defs>
       <path id="DejaVuSans-41" d="M 2188 4044 
L 1331 1722 
L 3047 1722 
L 2188 4044 
z
M 1831 4666 
L 2547 4666 
L 4325 0 
L 3669 0 
L 3244 1197 
L 1141 1197 
L 716 0 
L 50 0 
L 1831 4666 
z
" transform="scale(0.015625)"/>
       <path id="DejaVuSans-76" d="M 191 3500 
L 800 3500 
L 1894 563 
L 2988 3500 
L 3597 3500 
L 2284 0 
L 1503 0 
L 191 3500 
z
" transform="scale(0.015625)"/>
       <path id="DejaVuSans-72" d="M 2631 2963 
Q 2534 3019 2420 3045 
Q 2306 3072 2169 3072 
Q 1681 3072 1420 2755 
Q 1159 2438 1159 1844 
L 1159 0 
L 581 0 
L 581 3500 
L 1159 3500 
L 1159 2956 
Q 1341 3275 1631 3429 
Q 1922 3584 2338 3584 
Q 2397 3584 2469 3576 
Q 2541 3569 2628 3553 
L 2631 2963 
z
" transform="scale(0.015625)"/>
       <path id="DejaVuSans-61" d="M 2194 1759 
Q 1497 1759 1228 1600 
Q 959 1441 959 1056 
Q 959 750 1161 570 
Q 1363 391 1709 391 
Q 2188 391 2477 730 
Q 2766 1069 2766 1631 
L 2766 1759 
L 2194 1759 
z
M 3341 1997 
L 3341 0 
L 2766 0 
L 2766 531 
Q 2569 213 2275 61 
Q 1981 -91 1556 -91 
Q 1019 -91 701 211 
Q 384 513 384 1019 
Q 384 1609 779 1909 
Q 1175 2209 1959 2209 
L 2766 2209 
L 2766 2266 
Q 2766 2663 2505 2880 
Q 2244 3097 1772 3097 
Q 1472 3097 1187 3025 
Q 903 2953 641 2809 
L 641 3341 
Q 956 3463 1253 3523 
Q 1550 3584 1831 3584 
Q 2591 3584 2966 3190 
Q 3341 2797 3341 1997 
z
" transform="scale(0.015625)"/>
       <path id="DejaVuSans-67" d="M 2906 1791 
Q 2906 2416 2648 2759 
Q 2391 3103 1925 3103 
Q 1463 3103 1205 2759 
Q 947 2416 947 1791 
Q 947 1169 1205 825 
Q 1463 481 1925 481 
Q 2391 481 2648 825 
Q 2906 1169 2906 1791 
z
M 3481 434 
Q 3481 -459 3084 -895 
Q 2688 -1331 1869 -1331 
Q 1566 -1331 1297 -1286 
Q 1028 -1241 775 -1147 
L 775 -588 
Q 1028 -725 1275 -790 
Q 1522 -856 1778 -856 
Q 2344 -856 2625 -561 
Q 2906 -266 2906 331 
L 2906 616 
Q 2728 306 2450 153 
Q 2172 0 1784 0 
Q 1141 0 747 490 
Q 353 981 353 1791 
Q 353 2603 747 3093 
Q 1141 3584 1784 3584 
Q 2172 3584 2450 3431 
Q 2728 3278 2906 2969 
L 2906 3500 
L 3481 3500 
L 3481 434 
z
" transform="scale(0.015625)"/>
       <path id="DejaVuSans-20" transform="scale(0.015625)"/>
       <path id="DejaVuSans-74" d="M 1172 4494 
L 1172 3500 
L 2356 3500 
L 2356 3053 
L 1172 3053 
L 1172 1153 
Q 1172 725 1289 603 
Q 1406 481 1766 481 
L 2356 481 
L 2356 0 
L 1766 0 
Q 1100 0 847 248 
Q 594 497 594 1153 
L 594 3053 
L 172 3053 
L 172 3500 
L 594 3500 
L 594 4494 
L 1172 4494 
z
" transform="scale(0.015625)"/>
       <path id="DejaVuSans-69" d="M 603 3500 
L 1178 3500 
L 1178 0 
L 603 0 
L 603 3500 
z
M 603 4863 
L 1178 4863 
L 1178 4134 
L 603 4134 
L 603 4863 
z
" transform="scale(0.015625)"/>
       <path id="DejaVuSans-6d" d="M 3328 2828 
Q 3544 3216 3844 3400 
Q 4144 3584 4550 3584 
Q 5097 3584 5394 3201 
Q 5691 2819 5691 2113 
L 5691 0 
L 5113 0 
L 5113 2094 
Q 5113 2597 4934 2840 
Q 4756 3084 4391 3084 
Q 3944 3084 3684 2787 
Q 3425 2491 3425 1978 
L 3425 0 
L 2847 0 
L 2847 2094 
Q 2847 2600 2669 2842 
Q 2491 3084 2119 3084 
Q 1678 3084 1418 2786 
Q 1159 2488 1159 1978 
L 1159 0 
L 581 0 
L 581 3500 
L 1159 3500 
L 1159 2956 
Q 1356 3278 1631 3431 
Q 1906 3584 2284 3584 
Q 2666 3584 2933 3390 
Q 3200 3197 3328 2828 
z
" transform="scale(0.015625)"/>
       <path id="DejaVuSans-28" d="M 1984 4856 
Q 1566 4138 1362 3434 
Q 1159 2731 1159 2009 
Q 1159 1288 1364 580 
Q 1569 -128 1984 -844 
L 1484 -844 
Q 1016 -109 783 600 
Q 550 1309 550 2009 
Q 550 2706 781 3412 
Q 1013 4119 1484 4856 
L 1984 4856 
z
" transform="scale(0.015625)"/>
       <path id="DejaVuSans-73" d="M 2834 3397 
L 2834 2853 
Q 2591 2978 2328 3040 
Q 2066 3103 1784 3103 
Q 1356 3103 1142 2972 
Q 928 2841 928 2578 
Q 928 2378 1081 2264 
Q 1234 2150 1697 2047 
L 1894 2003 
Q 2506 1872 2764 1633 
Q 3022 1394 3022 966 
Q 3022 478 2636 193 
Q 2250 -91 1575 -91 
Q 1294 -91 989 -36 
Q 684 19 347 128 
L 347 722 
Q 666 556 975 473 
Q 1284 391 1588 391 
Q 1994 391 2212 530 
Q 2431 669 2431 922 
Q 2431 1156 2273 1281 
Q 2116 1406 1581 1522 
L 1381 1569 
Q 847 1681 609 1914 
Q 372 2147 372 2553 
Q 372 3047 722 3315 
Q 1072 3584 1716 3584 
Q 2034 3584 2315 3537 
Q 2597 3491 2834 3397 
z
" transform="scale(0.015625)"/>
       <path id="DejaVuSans-29" d="M 513 4856 
L 1013 4856 
Q 1481 4119 1714 3412 
Q 1947 2706 1947 2009 
Q 1947 1309 1714 600 
Q 1481 -109 1013 -844 
L 513 -844 
Q 928 -128 1133 580 
Q 1338 1288 1338 2009 
Q 1338 2731 1133 3434 
Q 928 4138 513 4856 
z
" transform="scale(0.015625)"/>
      </defs>
      <use xlink:href="#DejaVuSans-41"/>
      <use xlink:href="#DejaVuSans-76" transform="translate(62.533203 0)"/>
      <use xlink:href="#DejaVuSans-65" transform="translate(121.712891 0)"/>
      <use xlink:href="#DejaVuSans-72" transform="translate(183.236328 0)"/>
      <use xlink:href="#DejaVuSans-61" transform="translate(224.349609 0)"/>
      <use xlink:href="#DejaVuSans-67" transform="translate(285.628906 0)"/>
      <use xlink:href="#DejaVuSans-65" transform="translate(349.105469 0)"/>
      <use xlink:href="#DejaVuSans-20" transform="translate(410.628906 0)"/>
      <use xlink:href="#DejaVuSans-74" transform="translate(442.416016 0)"/>
      <use xlink:href="#DejaVuSans-69" transform="translate(481.625 0)"/>
      <use xlink:href="#DejaVuSans-6d" transform="translate(509.408203 0)"/>
      <use xlink:href="#DejaVuSans-65" transform="translate(606.820312 0)"/>
      <use xlink:href="#DejaVuSans-20" transform="translate(668.34375 0)"/>
      <use xlink:href="#DejaVuSans-28" transform="translate(700.130859 0)"/>
      <use xlink:href="#DejaVuSans-6d" transform="translate(739.144531 0)"/>
      <use xlink:href="#DejaVuSans-73" transform="translate(836.556641 0)"/>
      <use xlink:href="#DejaVuSans-29" transform="translate(888.65625 0)"/>
     </g>
    </g>
   </g>
   <g id="line2d_14">
    <path d="M 115.363636 67.315528 
L 115.57128 324.992777 
L 115.778923 371.385693 
L 115.986566 372.571317 
L 116.19421 370.611798 
L 116.401853 373.611636 
L 116.609497 372.485163 
L 116.81714 373.075869 
L 117.024783 372.328577 
L 117.232427 369.666447 
L 117.44007 372.418356 
L 117.647713 370.554346 
L 117.855357 372.591733 
L 118.063 371.627346 
L 118.270643 372.920634 
L 118.478287 372.721917 
L 118.68593 371.609344 
L 118.893573 373.514259 
L 119.101217 372.295044 
L 119.30886 374.299479 
L 119.516504 373.968004 
L 119.724147 372.711963 
L 119.93179 372.605858 
L 120.139434 373.606739 
L 120.347077 373.678557 
L 120.55472 372.748008 
L 120.762364 373.547402 
L 120.970007 373.348664 
L 121.17765 368.662934 
L 121.385294 373.03368 
L 121.592937 373.697956 
L 121.800581 373.618944 
L 122.008224 371.29096 
L 122.215867 374.178881 
L 122.423511 372.475902 
L 122.631154 372.332253 
L 122.838797 374.095532 
L 123.046441 372.856466 
L 123.254084 373.268204 
L 123.461727 372.934495 
L 123.669371 372.287364 
L 124.084657 374.284432 
L 124.292301 373.368786 
L 124.499944 373.339249 
L 124.707588 373.740835 
L 124.915231 373.0413 
L 125.122874 373.721299 
L 125.330518 373.025087 
L 125.538161 374.390626 
L 125.953448 373.607079 
L 126.161091 373.478165 
L 126.368734 374.77433 
L 126.784021 374.280424 
L 126.991664 373.861921 
L 127.199308 372.45288 
L 127.406951 374.623431 
L 127.614595 374.561311 
L 127.822238 373.728011 
L 128.029881 374.164381 
L 128.237525 373.917631 
L 128.445168 374.4656 
L 128.652811 372.377403 
L 128.860455 375.142101 
L 129.068098 374.411936 
L 129.275741 374.32672 
L 129.483385 374.064248 
L 129.691028 374.417531 
L 129.898672 374.262254 
L 130.106315 373.597207 
L 130.313958 374.380842 
L 130.729245 373.93109 
L 130.936888 374.051093 
L 131.144532 373.522046 
L 131.352175 372.540905 
L 131.559818 374.532183 
L 131.767462 374.685539 
L 131.975105 374.468504 
L 132.182748 374.546856 
L 132.390392 375.237508 
L 132.598035 374.512646 
L 132.805679 370.852939 
L 133.220965 374.513323 
L 133.428609 374.37841 
L 133.636252 373.789071 
L 133.843895 374.994458 
L 134.051539 374.758116 
L 134.259182 374.159454 
L 134.466825 374.336415 
L 134.674469 373.736773 
L 134.882112 373.671387 
L 135.089756 371.44669 
L 135.297399 373.847976 
L 135.505042 372.769755 
L 135.712686 375.051354 
L 135.920329 373.65817 
L 136.127972 374.645753 
L 136.335616 375.039949 
L 136.543259 374.753751 
L 136.750902 373.492062 
L 137.166189 374.926926 
L 137.373832 374.887065 
L 137.581476 373.669668 
L 137.789119 374.789825 
L 137.996763 374.461227 
L 138.412049 374.525261 
L 138.619693 373.147935 
L 138.827336 375.650401 
L 139.034979 375.277523 
L 139.242623 375.279718 
L 139.450266 374.590532 
L 139.657909 375.331733 
L 139.865553 375.057786 
L 140.488483 375.230455 
L 140.696126 374.586467 
L 140.90377 375.037645 
L 141.111413 374.596123 
L 141.319056 374.558952 
L 141.5267 374.374572 
L 141.734343 374.557435 
L 141.941986 373.356954 
L 142.14963 373.901236 
L 142.357273 374.81595 
L 142.564916 373.113431 
L 142.77256 374.476741 
L 142.980203 374.814505 
L 143.39549 374.847449 
L 143.603133 375.35982 
L 143.810777 373.179149 
L 144.01842 375.069714 
L 144.226063 374.21221 
L 144.433707 374.775963 
L 144.64135 374.734541 
L 144.848993 374.825764 
L 145.056637 375.32477 
L 145.471923 373.787079 
L 145.88721 375.033301 
L 146.094854 374.785655 
L 146.302497 374.808859 
L 146.51014 374.71307 
L 146.717784 373.475406 
L 146.925427 374.264183 
L 147.13307 374.396205 
L 147.340714 374.789795 
L 147.548357 374.883195 
L 147.756 374.836704 
L 147.963644 375.170812 
L 148.171287 375.198201 
L 148.586574 374.04243 
L 148.794217 374.794659 
L 149.001861 374.257324 
L 149.209504 374.360667 
L 149.624791 375.107639 
L 149.832434 374.211241 
L 150.040077 375.386566 
L 150.247721 375.241511 
L 150.663007 374.550679 
L 151.078294 375.396757 
L 151.285938 375.344507 
L 151.493581 375.606334 
L 151.908868 375.386056 
L 152.116511 375.361917 
L 152.324154 375.454554 
L 152.531798 374.943194 
L 152.739441 375.362985 
L 152.947084 373.856612 
L 153.154728 375.100274 
L 153.362371 375.196636 
L 153.985301 373.199105 
L 154.192945 374.868167 
L 154.608231 374.624754 
L 154.815875 375.149513 
L 155.023518 373.87306 
L 155.438805 374.099275 
L 155.854091 375.147863 
L 156.061735 375.085007 
L 156.269378 375.466819 
L 156.477022 375.497204 
L 156.684665 374.553923 
L 157.099952 375.055304 
L 157.307595 375.366916 
L 157.515238 374.508543 
L 157.722882 375.277954 
L 158.345812 375.775396 
L 158.553455 374.850324 
L 158.968742 375.433232 
L 159.176385 375.463958 
L 159.591672 374.383955 
L 159.799315 375.798034 
L 160.006959 375.707586 
L 160.422245 373.447516 
L 160.629889 374.893918 
L 161.045175 375.449197 
L 161.252819 374.697015 
L 161.460462 375.34776 
L 161.668106 375.494453 
L 161.875749 374.164232 
L 162.083392 374.47466 
L 162.291036 372.960035 
L 162.498679 375.03139 
L 162.706322 374.582384 
L 162.913966 372.997361 
L 163.121609 375.366913 
L 163.536896 375.802002 
L 163.744539 375.730815 
L 163.952182 375.310493 
L 164.159826 375.490775 
L 164.367469 375.821722 
L 164.575113 374.888866 
L 164.990399 375.196765 
L 165.198043 375.173138 
L 165.405686 375.957737 
L 165.613329 375.17853 
L 165.820973 375.930867 
L 166.028616 375.512413 
L 166.236259 374.709591 
L 166.443903 374.657409 
L 166.651546 375.425305 
L 166.85919 375.764034 
L 167.066833 375.419206 
L 167.274476 375.332713 
L 167.48212 375.796488 
L 167.689763 375.177789 
L 167.897406 375.846116 
L 168.312693 374.690969 
L 168.520336 375.018758 
L 168.72798 375.010599 
L 168.935623 375.276453 
L 169.143266 374.971714 
L 169.35091 375.098067 
L 169.558553 374.69985 
L 169.766197 375.34531 
L 169.97384 375.444834 
L 170.389127 374.652869 
L 170.59677 375.457269 
L 170.804413 375.573323 
L 171.012057 374.350531 
L 171.2197 374.969777 
L 171.427343 374.352744 
L 171.634987 372.180026 
L 171.84263 375.342047 
L 172.050274 375.265535 
L 172.257917 374.553081 
L 172.46556 375.327101 
L 172.673204 373.867293 
L 172.880847 375.02286 
L 173.296134 374.164046 
L 173.71142 375.483122 
L 173.919064 375.459609 
L 174.126707 375.94007 
L 174.33435 375.517433 
L 174.541994 375.444809 
L 174.749637 374.487542 
L 174.957281 375.314406 
L 175.164924 374.670562 
L 175.580211 375.184161 
L 175.787854 375.000245 
L 175.995497 374.970575 
L 176.203141 374.672872 
L 176.410784 373.613288 
L 176.618427 375.380414 
L 176.826071 375.076893 
L 177.033714 375.1048 
L 177.241357 374.291396 
L 177.656644 375.310403 
L 177.864288 375.315841 
L 178.071931 375.47588 
L 178.487218 375.435332 
L 178.694861 375.189197 
L 178.902504 375.619324 
L 179.110148 375.353879 
L 179.317791 375.329509 
L 179.525434 376.119495 
L 179.733078 374.496739 
L 180.356008 376.152886 
L 180.563651 376.022042 
L 180.771295 374.96386 
L 180.978938 375.038255 
L 181.186581 376.021185 
L 181.394225 374.738569 
L 181.601868 375.594838 
L 181.809511 373.750849 
L 182.017155 375.656625 
L 182.224798 376.096367 
L 182.432441 375.315102 
L 182.640085 375.638845 
L 182.847728 375.3584 
L 183.055372 375.487156 
L 183.263015 375.838213 
L 183.470658 375.761926 
L 183.678302 375.234672 
L 183.885945 375.84564 
L 184.093588 375.261053 
L 184.301232 375.715086 
L 184.508875 375.643224 
L 184.924162 375.941827 
L 185.131805 374.344032 
L 185.339449 375.372169 
L 185.547092 375.723821 
L 185.754735 376.308641 
L 185.962379 375.774924 
L 186.170022 374.008067 
L 186.377665 375.914835 
L 186.585309 375.58179 
L 186.792952 375.623704 
L 187.000595 375.355838 
L 187.415882 375.794342 
L 187.623525 375.302418 
L 187.831169 375.920923 
L 188.038812 371.664673 
L 188.246456 375.263313 
L 188.454099 375.533434 
L 188.661742 375.429102 
L 188.869386 375.674976 
L 189.077029 375.038876 
L 189.284672 374.876784 
L 189.492316 374.998708 
L 189.699959 375.352562 
L 189.907602 374.734479 
L 190.322889 375.674675 
L 190.738176 375.869819 
L 190.945819 374.869134 
L 191.153463 374.89489 
L 191.568749 375.320521 
L 191.776393 376.069075 
L 191.984036 373.721727 
L 192.191679 375.906755 
L 192.399323 374.939946 
L 192.606966 375.36141 
L 193.022253 375.629429 
L 193.229896 371.752559 
L 193.43754 376.120927 
L 193.645183 375.254462 
L 193.852826 375.784024 
L 194.06047 374.895743 
L 194.268113 374.75888 
L 194.475756 375.151199 
L 194.6834 374.831914 
L 194.891043 375.627875 
L 195.098686 375.300986 
L 195.30633 376.080462 
L 195.721616 373.685555 
L 195.92926 375.72376 
L 196.344547 375.173684 
L 196.55219 375.893282 
L 196.759833 376.10014 
L 196.967477 376.042996 
L 197.17512 375.514433 
L 197.382763 375.798792 
L 197.79805 375.451609 
L 198.213337 376.340332 
L 198.42098 375.028701 
L 198.628624 376.006749 
L 198.836267 375.658305 
L 199.04391 375.687348 
L 199.251554 375.869534 
L 199.459197 375.761035 
L 199.66684 376.10767 
L 199.874484 375.207705 
L 200.082127 376.204137 
L 200.28977 375.508141 
L 200.497414 375.338325 
L 200.705057 375.334562 
L 200.9127 376.152703 
L 201.327987 374.930309 
L 201.535631 375.342275 
L 202.158561 375.644536 
L 202.366204 375.472871 
L 202.573847 374.60901 
L 202.781491 375.261592 
L 202.989134 374.581185 
L 203.196777 375.426295 
L 203.404421 375.684347 
L 203.612064 375.716199 
L 203.819708 375.883696 
L 204.027351 375.317818 
L 204.442638 376.022402 
L 204.650281 375.243704 
L 205.065568 375.854958 
L 205.480854 375.524557 
L 205.688498 375.999083 
L 205.896141 374.893989 
L 206.103784 376.13904 
L 206.311428 376.379944 
L 206.726715 374.919705 
L 206.934358 376.124149 
L 207.349645 375.883323 
L 207.557288 375.600947 
L 207.764931 376.083842 
L 207.972575 375.911813 
L 208.180218 375.924662 
L 208.387861 375.542944 
L 209.010792 376.457078 
L 209.218435 375.854806 
L 209.426078 376.204186 
L 209.633722 375.958237 
L 210.049008 375.954902 
L 210.256652 376.365972 
L 210.464295 375.983962 
L 210.879582 375.944859 
L 211.087225 375.695319 
L 211.294868 376.12083 
L 211.502512 376.233779 
L 211.710155 376.029052 
L 211.917799 376.147634 
L 212.125442 375.6332 
L 212.333085 376.149877 
L 212.540729 376.13687 
L 212.748372 375.970676 
L 213.163659 376.16931 
L 213.371302 375.890637 
L 213.578945 374.953282 
L 213.786589 376.095422 
L 213.994232 375.497426 
L 214.201875 376.327722 
L 214.409519 375.028927 
L 214.824806 375.94507 
L 215.032449 375.634807 
L 215.240092 376.246715 
L 215.447736 375.235734 
L 215.655379 376.023898 
L 216.070666 375.360904 
L 216.485952 375.891468 
L 216.693596 375.604394 
L 216.901239 376.122913 
L 217.108883 376.246067 
L 217.316526 376.131627 
L 217.731813 375.565479 
L 217.939456 375.110136 
L 218.147099 375.588071 
L 218.562386 375.930916 
L 218.770029 375.572193 
L 219.185316 375.274329 
L 219.392959 376.046155 
L 219.600603 376.082001 
L 220.01589 374.74533 
L 220.223533 375.768162 
L 221.054106 375.619926 
L 221.26175 374.290703 
L 221.469393 374.237849 
L 221.88468 375.945328 
L 222.092323 375.20397 
L 222.299967 375.733846 
L 222.50761 374.666464 
L 222.715253 375.976789 
L 222.922897 375.435672 
L 223.13054 375.974974 
L 223.338183 375.673703 
L 223.545827 375.887739 
L 223.75347 375.847143 
L 223.961113 376.0818 
L 224.3764 375.239952 
L 224.584043 375.863727 
L 224.791687 375.033028 
L 224.99933 375.685156 
L 225.206974 375.028608 
L 225.62226 376.143409 
L 225.829904 375.493084 
L 226.037547 376.118829 
L 226.452834 375.393661 
L 226.660477 375.416271 
L 226.86812 374.117869 
L 227.075764 375.231003 
L 227.283407 374.862286 
L 227.698694 376.034613 
L 227.906337 375.507253 
L 228.113981 375.820539 
L 228.529267 375.88695 
L 228.736911 375.744937 
L 228.944554 372.851143 
L 229.359841 376.421776 
L 229.567484 375.197152 
L 229.775127 376.251277 
L 229.982771 375.685908 
L 230.605701 376.116703 
L 230.813344 375.251208 
L 231.228631 375.917309 
L 231.436274 375.962021 
L 231.643918 375.36299 
L 231.851561 375.175466 
L 232.059204 376.013115 
L 232.266848 375.981408 
L 232.682134 375.521498 
L 232.889778 374.037391 
L 233.097421 375.112015 
L 233.512708 375.753256 
L 233.720351 375.512087 
L 233.927995 374.519165 
L 234.135638 375.571071 
L 234.343281 375.552779 
L 234.550925 376.263248 
L 234.758568 376.048783 
L 234.966211 375.481542 
L 235.589142 376.156231 
L 235.796785 375.01121 
L 236.004428 375.766679 
L 236.212072 375.628712 
L 236.419715 374.689826 
L 236.835002 375.212271 
L 237.042645 375.305727 
L 237.250288 375.878847 
L 237.457932 375.192403 
L 237.665575 376.355359 
L 237.873218 375.893548 
L 238.080862 372.309344 
L 238.288505 375.678383 
L 238.496149 375.80011 
L 238.703792 376.087138 
L 238.911435 375.383638 
L 239.119079 375.822383 
L 239.326722 375.376667 
L 239.742009 376.174191 
L 239.949652 375.428831 
L 240.157295 375.569798 
L 240.572582 375.501055 
L 240.987869 376.049378 
L 241.195512 376.060141 
L 241.403156 375.923509 
L 241.610799 375.490834 
L 241.818442 376.007645 
L 242.233729 375.838837 
L 242.441372 375.689695 
L 242.649016 376.001869 
L 242.856659 375.864337 
L 243.064302 376.346675 
L 243.271946 376.086125 
L 243.479589 376.360908 
L 243.687233 375.801161 
L 243.894876 376.306793 
L 244.102519 375.609554 
L 244.310163 376.073738 
L 244.725449 376.262654 
L 244.933093 374.522552 
L 245.140736 375.958379 
L 245.348379 375.619135 
L 245.556023 375.989249 
L 245.763666 376.022109 
L 245.971309 374.988692 
L 246.386596 375.792932 
L 246.59424 375.93568 
L 246.801883 375.245771 
L 247.009526 376.341257 
L 247.424813 374.790264 
L 247.632456 375.330659 
L 247.8401 374.840205 
L 248.047743 374.014653 
L 248.255386 375.732212 
L 248.46303 376.029144 
L 248.670673 375.956355 
L 248.878317 375.518113 
L 249.08596 375.726794 
L 249.293603 376.269149 
L 249.501247 375.49402 
L 249.916533 375.791421 
L 250.124177 375.264113 
L 250.33182 376.187204 
L 250.539463 375.903736 
L 250.747107 374.599183 
L 250.95475 374.557891 
L 251.370037 376.130236 
L 251.57768 375.932994 
L 251.785324 376.017417 
L 251.992967 375.895868 
L 252.20061 375.621721 
L 252.408254 375.76687 
L 252.615897 375.611784 
L 252.82354 376.183437 
L 253.238827 375.749315 
L 253.44647 375.762796 
L 253.654114 375.61963 
L 254.069401 375.714051 
L 254.277044 376.096998 
L 254.484687 375.998741 
L 254.692331 372.153704 
L 254.899974 375.882965 
L 255.107617 375.772891 
L 255.315261 376.133626 
L 255.730547 375.688413 
L 255.938191 376.083578 
L 256.145834 376.15867 
L 256.353477 376.472304 
L 256.561121 375.909793 
L 256.768764 376.144144 
L 257.391694 375.583984 
L 257.599338 375.868605 
L 257.806981 374.923249 
L 258.014624 374.573996 
L 258.222268 375.618946 
L 258.429911 375.948716 
L 258.845198 375.563121 
L 259.052841 375.659208 
L 259.260485 375.626065 
L 259.468128 376.057851 
L 259.675771 376.108749 
L 259.883415 375.989332 
L 260.091058 374.955183 
L 260.506345 375.825239 
L 260.713988 374.890602 
L 261.129275 376.228467 
L 261.544561 375.626975 
L 261.752205 375.609071 
L 261.959848 375.988245 
L 262.167492 375.576957 
L 262.375135 375.597252 
L 262.582778 375.856768 
L 262.790422 375.486509 
L 263.205708 373.73051 
L 263.413352 376.234364 
L 263.620995 375.900541 
L 263.828638 376.367928 
L 264.036282 375.039819 
L 264.243925 375.919257 
L 264.451568 376.068791 
L 264.866855 375.181674 
L 265.074499 375.635183 
L 265.489785 376.001133 
L 265.697429 375.452075 
L 266.320359 376.153638 
L 266.528002 376.299135 
L 266.735645 375.825573 
L 266.943289 375.951122 
L 267.566219 375.512749 
L 267.773862 376.278147 
L 267.981506 376.054858 
L 268.189149 376.384625 
L 268.396792 376.095964 
L 268.604436 375.234497 
L 269.019722 375.967505 
L 269.227366 375.760744 
L 269.435009 376.331515 
L 269.642652 376.137207 
L 269.850296 376.199099 
L 270.057939 375.839481 
L 270.265583 375.056526 
L 270.473226 375.639967 
L 270.680869 375.358829 
L 270.888513 375.447965 
L 271.303799 375.256671 
L 271.511443 376.087145 
L 271.719086 375.813149 
L 272.342016 375.665961 
L 272.54966 375.757789 
L 272.757303 376.072076 
L 272.964946 376.071884 
L 273.17259 375.744221 
L 273.587876 376.13354 
L 273.79552 375.94103 
L 274.003163 375.581296 
L 274.210806 375.95891 
L 274.41845 375.031355 
L 274.833736 376.215348 
L 275.04138 376.005037 
L 275.249023 376.28375 
L 275.456667 376.095427 
L 275.66431 375.709054 
L 275.871953 376.383816 
L 276.28724 375.888474 
L 276.494883 376.021198 
L 276.702527 375.838801 
L 276.91017 375.942786 
L 277.117813 375.89705 
L 277.325457 375.376396 
L 277.5331 375.677179 
L 277.740743 375.507295 
L 277.948387 376.120838 
L 278.15603 375.63565 
L 278.363674 376.044132 
L 278.986604 375.198579 
L 279.194247 375.733582 
L 279.40189 375.138314 
L 279.609534 375.524646 
L 279.817177 371.534742 
L 280.02482 375.217723 
L 280.232464 375.235686 
L 280.440107 376.136376 
L 280.647751 375.033856 
L 280.855394 375.306633 
L 281.063037 374.973547 
L 281.893611 375.899959 
L 282.101254 375.89587 
L 282.308897 375.44972 
L 282.516541 375.851793 
L 282.724184 375.778104 
L 282.931827 376.140383 
L 283.347114 375.110208 
L 283.554758 376.013349 
L 283.762401 376.067346 
L 283.970044 375.646082 
L 284.177688 375.958009 
L 284.385331 375.334942 
L 284.592974 373.941882 
L 285.008261 375.919445 
L 285.215904 375.865597 
L 285.423548 375.952979 
L 285.631191 375.82807 
L 285.838835 375.931188 
L 286.046478 375.392953 
L 286.254121 375.865493 
L 286.461765 375.791733 
L 286.669408 376.201729 
L 287.292338 375.710128 
L 287.499981 375.995637 
L 287.915268 376.125239 
L 288.122911 375.442881 
L 288.330555 375.7634 
L 288.538198 375.632007 
L 288.745842 375.886707 
L 288.953485 374.475981 
L 289.161128 375.983444 
L 289.368772 373.127849 
L 289.576415 376.216441 
L 289.784058 375.940377 
L 289.991702 375.859289 
L 290.199345 375.595942 
L 290.406988 375.787741 
L 290.614632 375.63905 
L 290.822275 375.219232 
L 291.029919 375.901325 
L 291.237562 376.125928 
L 291.445205 376.030214 
L 291.652849 376.187442 
L 292.068135 375.837234 
L 292.275779 376.001437 
L 292.483422 375.931823 
L 292.691065 376.173974 
L 292.898709 375.836938 
L 293.106352 376.039995 
L 293.313995 375.83346 
L 293.521639 375.96679 
L 293.729282 375.612142 
L 294.144569 376.128259 
L 294.352212 375.693432 
L 294.559856 375.884899 
L 294.767499 375.828098 
L 294.975142 376.001973 
L 295.182786 376.016383 
L 295.390429 376.300813 
L 295.598072 375.697873 
L 295.805716 376.058857 
L 296.013359 372.195558 
L 296.221002 375.869242 
L 296.428646 375.289924 
L 296.636289 375.909524 
L 296.843933 374.861405 
L 297.259219 375.717058 
L 297.466863 374.96811 
L 297.674506 375.396275 
L 297.882149 372.565828 
L 298.089793 376.08834 
L 298.297436 375.93764 
L 298.712723 376.12506 
L 298.920366 375.371976 
L 299.12801 375.296474 
L 299.335653 376.060592 
L 299.543296 376.204316 
L 299.75094 376.075186 
L 299.958583 376.248093 
L 300.166226 376.173482 
L 300.37387 375.503644 
L 300.581513 375.597453 
L 300.789156 375.486883 
L 300.9968 375.676172 
L 301.204443 375.057761 
L 301.412086 374.864561 
L 301.61973 376.22323 
L 301.827373 375.607467 
L 302.24266 375.681141 
L 302.450303 376.171927 
L 302.86559 375.893666 
L 303.073233 375.044266 
L 303.280877 376.00115 
L 303.48852 375.747188 
L 303.696163 375.897923 
L 303.903807 375.174666 
L 304.319094 376.048066 
L 304.526737 376.134662 
L 304.73438 375.935124 
L 305.149667 375.948826 
L 305.35731 375.684284 
L 305.564954 375.969821 
L 305.772597 375.841561 
L 305.98024 375.451102 
L 306.187884 376.325298 
L 306.395527 374.617727 
L 306.60317 376.396588 
L 306.810814 376.090444 
L 307.018457 376.24234 
L 307.226101 375.765607 
L 307.433744 376.102991 
L 307.641387 375.403057 
L 307.849031 376.0303 
L 308.056674 376.081345 
L 308.264317 376.519282 
L 308.471961 376.162154 
L 308.679604 374.912364 
L 309.094891 376.032381 
L 309.302534 375.808169 
L 309.510178 375.092166 
L 309.717821 376.180531 
L 309.925464 375.837826 
L 310.340751 375.529093 
L 310.548394 373.98817 
L 310.756038 375.682717 
L 310.963681 375.999751 
L 311.171324 375.996411 
L 311.378968 375.661386 
L 311.794254 375.991056 
L 312.001898 375.904979 
L 312.209541 376.043784 
L 312.417185 375.922914 
L 312.624828 375.511166 
L 313.040115 376.314618 
L 313.455401 375.255628 
L 313.663045 375.77267 
L 313.870688 375.785267 
L 314.078331 376.100767 
L 314.493618 376.158704 
L 314.701261 376.070854 
L 314.908905 375.818484 
L 315.116548 376.133422 
L 315.324192 375.888198 
L 315.531835 375.943039 
L 315.739478 372.402923 
L 315.947122 375.890364 
L 316.154765 375.928271 
L 316.362408 376.214607 
L 316.570052 375.784049 
L 316.985338 376.331875 
L 317.192982 374.982891 
L 317.400625 375.699628 
L 317.608269 374.12652 
L 317.815912 376.33694 
L 318.231199 375.531766 
L 318.438842 375.735717 
L 318.646485 374.891054 
L 318.854129 375.46229 
L 319.061772 374.110109 
L 319.269415 376.229365 
L 319.477059 376.031932 
L 320.307632 376.071561 
L 320.515276 375.884683 
L 320.722919 376.04735 
L 320.930562 375.634781 
L 321.138206 376.295119 
L 321.345849 376.005367 
L 321.553492 376.023458 
L 321.761136 375.822469 
L 321.968779 374.248432 
L 322.176422 375.828685 
L 322.591709 375.517369 
L 322.799353 375.111285 
L 323.006996 375.964442 
L 323.214639 376.321195 
L 323.629926 376.071673 
L 323.837569 375.212046 
L 324.045213 375.986142 
L 324.460499 375.776263 
L 324.668143 375.238314 
L 324.875786 376.113806 
L 325.083429 375.659759 
L 325.291073 374.934825 
L 325.498716 375.337622 
L 325.70636 376.151169 
L 325.914003 375.729529 
L 326.121646 376.280787 
L 326.32929 375.22443 
L 326.536933 376.22336 
L 326.744576 376.514885 
L 326.95222 376.434775 
L 327.159863 375.678213 
L 327.367506 376.108538 
L 327.782793 375.459431 
L 327.990436 374.813638 
L 328.19808 376.025566 
L 328.405723 376.270309 
L 328.613367 376.012248 
L 328.82101 375.364679 
L 329.44394 375.999056 
L 329.651583 375.272307 
L 329.859227 375.17542 
L 330.06687 375.889328 
L 330.274513 376.151961 
L 330.482157 375.457564 
L 330.6898 375.885871 
L 330.897444 375.880054 
L 331.105087 375.698565 
L 331.520374 376.414296 
L 331.728017 376.308361 
L 331.93566 375.84053 
L 332.143304 375.995001 
L 332.350947 375.890994 
L 332.55859 376.426917 
L 332.766234 375.147358 
L 332.973877 376.826083 
L 333.18152 375.989527 
L 333.596807 376.431705 
L 333.804451 376.081479 
L 334.012094 376.28994 
L 334.219737 372.090513 
L 334.427381 375.879662 
L 334.635024 376.152061 
L 334.842667 375.357926 
L 335.050311 376.048085 
L 335.465597 375.769071 
L 335.673241 375.953222 
L 335.880884 376.307158 
L 336.088528 375.662215 
L 336.503814 376.061563 
L 336.711458 375.96515 
L 336.919101 376.075381 
L 337.126744 374.239328 
L 337.334388 376.103572 
L 337.542031 375.609836 
L 337.749674 376.039796 
L 337.957318 375.835065 
L 338.164961 375.849994 
L 338.372604 376.128806 
L 338.580248 374.411628 
L 338.995535 375.594352 
L 339.203178 375.523616 
L 339.410821 375.96875 
L 339.826108 376.007216 
L 340.033751 375.565305 
L 340.241395 375.741724 
L 340.449038 375.236123 
L 340.656681 375.910012 
L 341.071968 376.06381 
L 341.279612 375.888213 
L 341.694898 374.681205 
L 341.902542 376.327991 
L 342.110185 376.13882 
L 343.148402 376.275853 
L 343.356045 375.901643 
L 343.563688 376.195729 
L 343.978975 374.892251 
L 344.186619 375.714379 
L 344.394262 376.060673 
L 344.601905 375.461575 
L 344.809549 376.205092 
L 345.017192 376.203072 
L 345.224835 376.477646 
L 345.432479 375.845199 
L 345.640122 376.241523 
L 345.847765 376.320425 
L 346.263052 376.273452 
L 346.470695 375.375216 
L 346.678339 376.163157 
L 346.885982 375.233185 
L 347.093626 376.09694 
L 347.508912 376.36948 
L 347.716556 376.272671 
L 348.131842 376.587435 
L 348.339486 374.93514 
L 348.547129 376.051131 
L 348.754772 375.966914 
L 348.962416 376.435642 
L 349.170059 376.586481 
L 349.585346 375.863778 
L 349.792989 376.222529 
L 350.000633 375.725589 
L 350.208276 375.947386 
L 350.415919 375.654494 
L 350.623563 376.21732 
L 351.038849 375.995081 
L 351.246493 376.210602 
L 351.454136 375.882084 
L 351.661779 375.92755 
L 351.869423 375.140122 
L 352.077066 375.9431 
L 352.28471 376.289927 
L 352.492353 375.879963 
L 352.699996 375.830343 
L 352.90764 376.291828 
L 353.322926 375.93144 
L 353.738213 375.74099 
L 353.945856 376.049838 
L 354.1535 375.863232 
L 354.361143 375.911897 
L 354.568787 375.325407 
L 354.984073 376.418298 
L 355.191717 376.494269 
L 355.39936 375.840088 
L 355.607003 376.390402 
L 355.814647 375.83947 
L 356.229933 376.359627 
L 356.437577 376.1621 
L 356.852863 376.199227 
L 357.060507 375.77892 
L 357.26815 375.025379 
L 357.475794 376.059928 
L 357.683437 376.064253 
L 357.89108 375.784393 
L 358.098724 376.233851 
L 358.51401 375.847415 
L 358.721654 376.208184 
L 358.929297 376.250675 
L 359.13694 376.485174 
L 359.759871 376.137407 
L 359.967514 376.202174 
L 360.175157 375.642229 
L 360.590444 376.226672 
L 360.798087 375.733622 
L 361.005731 376.444467 
L 361.213374 375.86727 
L 361.421017 376.121897 
L 362.043947 376.087074 
L 362.459234 376.419302 
L 362.666878 375.130616 
L 363.082164 376.344738 
L 363.497451 376.086784 
L 363.705094 375.799945 
L 364.120381 376.553727 
L 364.535668 375.937591 
L 364.743311 375.185117 
L 364.950954 376.485284 
L 365.158598 376.277945 
L 365.366241 375.815559 
L 365.573885 375.973125 
L 365.781528 375.637724 
L 365.989171 374.4385 
L 366.196815 376.034913 
L 366.404458 376.341165 
L 366.612101 375.963426 
L 366.819745 376.294079 
L 367.027388 375.802975 
L 367.235031 375.965227 
L 367.442675 375.976605 
L 367.650318 375.393386 
L 367.857962 375.429213 
L 368.480892 375.949813 
L 368.688535 375.752156 
L 368.896178 375.839913 
L 369.103822 376.535846 
L 369.311465 376.439255 
L 369.934395 375.649267 
L 370.142038 376.216342 
L 370.349682 376.110661 
L 370.557325 375.828345 
L 370.764969 376.000725 
L 370.972612 375.751626 
L 371.180255 372.86617 
L 371.387899 376.054096 
L 371.595542 376.379534 
L 371.803185 375.929293 
L 372.010829 375.839041 
L 372.218472 376.404984 
L 372.426115 376.268543 
L 372.633759 374.913609 
L 372.841402 376.227629 
L 373.049046 375.841638 
L 373.256689 376.294915 
L 373.464332 376.378422 
L 373.879619 375.733904 
L 374.294906 376.214511 
L 374.502549 376.544443 
L 374.710192 376.028533 
L 375.125479 375.647505 
L 375.540766 376.38046 
L 375.748409 376.496942 
L 376.163696 376.053988 
L 376.578983 376.261461 
L 376.786626 373.820464 
L 376.994269 375.855651 
L 377.201913 375.928956 
L 377.409556 376.152157 
L 377.617199 376.207408 
L 377.824843 375.854888 
L 378.032486 376.304055 
L 378.447773 375.915005 
L 378.655416 375.917448 
L 379.070703 376.337936 
L 379.278346 375.846324 
L 379.48599 376.435638 
L 379.693633 375.912453 
L 379.901276 376.109797 
L 380.316563 375.977867 
L 380.939493 376.437434 
L 381.147137 373.564129 
L 381.35478 375.998681 
L 381.562423 375.895984 
L 381.770067 376.159815 
L 381.97771 375.482416 
L 382.185353 376.209504 
L 382.808283 375.497661 
L 383.015927 376.384337 
L 383.22357 375.0694 
L 383.431213 376.012975 
L 383.638857 376.375321 
L 383.8465 376.235402 
L 384.054144 373.283751 
L 384.261787 375.864103 
L 384.46943 376.491203 
L 384.884717 376.466991 
L 385.09236 376.019406 
L 385.300004 376.384888 
L 385.507647 375.669704 
L 385.71529 376.007858 
L 385.922934 375.857538 
L 386.130577 375.567665 
L 386.338221 376.547666 
L 386.545864 376.02864 
L 386.753507 376.227257 
L 386.961151 376.105983 
L 387.168794 375.776208 
L 387.376437 375.85429 
L 387.584081 376.510276 
L 387.791724 375.276337 
L 387.999367 375.955649 
L 388.207011 375.599312 
L 388.622297 376.330156 
L 388.829941 376.707548 
L 389.037584 376.138345 
L 389.245228 376.633748 
L 389.452871 376.359935 
L 389.868158 376.3405 
L 390.075801 375.818173 
L 390.491088 375.748387 
L 390.698731 375.995776 
L 390.906374 374.485546 
L 391.114018 376.001802 
L 391.321661 375.619916 
L 391.529305 373.263374 
L 391.736948 376.073317 
L 391.944591 376.016032 
L 392.152235 376.18357 
L 392.359878 375.565712 
L 392.567521 375.4375 
L 392.775165 376.109283 
L 393.190451 373.18703 
L 393.605738 375.96488 
L 393.813381 376.111639 
L 394.021025 375.360484 
L 394.228668 375.28595 
L 394.436312 375.575822 
L 394.643955 376.275328 
L 395.266885 375.971711 
L 395.474528 373.847123 
L 395.682172 376.358507 
L 395.889815 376.184935 
L 396.097458 376.466761 
L 396.305102 376.135752 
L 396.512745 376.372207 
L 396.928032 375.788593 
L 397.135675 375.928683 
L 397.343319 375.224185 
L 397.550962 376.016549 
L 397.758605 375.622957 
L 397.966249 376.047561 
L 398.173892 376.2038 
L 398.381535 376.108827 
L 398.589179 375.715726 
L 398.796822 376.30507 
L 399.004465 374.815574 
L 399.212109 375.911453 
L 400.042682 376.27857 
L 400.250326 375.309419 
L 400.457969 375.738535 
L 400.665612 375.178298 
L 400.873256 376.179466 
L 401.080899 375.584383 
L 401.288542 376.264706 
L 401.496186 376.22133 
L 401.703829 375.907963 
L 402.119116 376.241189 
L 402.326759 375.628803 
L 402.534403 375.773864 
L 402.742046 375.552924 
L 403.157333 376.232249 
L 403.572619 375.035222 
L 403.987906 376.223774 
L 404.195549 375.017075 
L 404.403193 376.027993 
L 404.610836 376.38176 
L 404.81848 376.019475 
L 405.026123 376.063888 
L 405.233766 375.736406 
L 405.44141 376.094002 
L 405.649053 376.047399 
L 405.856696 375.720198 
L 406.06434 376.048983 
L 406.271983 376.000986 
L 406.479626 376.226704 
L 406.68727 376.217825 
L 406.894913 375.597758 
L 407.3102 376.437625 
L 407.517843 376.30546 
L 407.725487 375.366693 
L 407.93313 376.134986 
L 408.140773 376.133107 
L 408.348417 375.417548 
L 408.55606 375.160083 
L 408.763703 375.259113 
L 408.971347 375.920815 
L 409.17899 375.384298 
L 409.386633 375.849877 
L 409.594277 376.041459 
L 409.80192 376.409441 
L 410.009564 376.219519 
L 410.217207 375.706113 
L 410.42485 375.562452 
L 410.840137 375.870633 
L 411.04778 375.516807 
L 411.463067 375.880478 
L 411.67071 376.070053 
L 411.878354 375.710637 
L 412.085997 376.283241 
L 412.29364 375.719919 
L 412.501284 376.101955 
L 412.708927 375.76577 
L 413.124214 376.700956 
L 413.331857 373.817081 
L 413.539501 375.835797 
L 413.747144 375.795041 
L 413.954787 376.084092 
L 414.162431 376.02405 
L 414.370074 375.006595 
L 414.577717 376.042742 
L 414.785361 376.294185 
L 414.993004 376.261749 
L 415.200647 375.617377 
L 415.408291 376.173019 
L 415.615934 376.142103 
L 415.823578 375.852531 
L 416.031221 375.098465 
L 416.238864 375.269581 
L 416.446508 375.1339 
L 416.654151 375.682593 
L 416.861794 375.75783 
L 417.277081 376.049708 
L 417.484724 375.048546 
L 417.692368 375.95705 
L 417.900011 376.281993 
L 418.107655 376.026598 
L 418.522941 376.163515 
L 418.730585 376.295364 
L 418.938228 375.423317 
L 419.145871 376.011653 
L 419.353515 375.755572 
L 419.561158 375.752382 
L 419.768801 375.922533 
L 419.976445 373.87346 
L 420.184088 375.804254 
L 420.391731 371.552082 
L 420.599375 375.597721 
L 421.014662 376.15793 
L 421.222305 376.179212 
L 421.429948 375.139568 
L 421.637592 375.794382 
L 421.845235 375.830213 
L 422.052878 376.06452 
L 422.468165 375.886772 
L 422.675808 376.108528 
L 422.883452 376.496158 
L 423.091095 375.953266 
L 423.298739 376.471166 
L 423.506382 375.553511 
L 423.714025 376.04758 
L 424.129312 375.69093 
L 424.336955 376.163643 
L 424.544599 374.623812 
L 424.752242 375.860566 
L 425.167529 375.996925 
L 425.375172 375.476032 
L 425.790459 376.317735 
L 425.998102 375.734846 
L 426.205746 375.812663 
L 426.621032 376.341569 
L 426.828676 375.728426 
L 427.036319 375.826656 
L 427.243962 376.157729 
L 427.451606 376.27033 
L 427.659249 375.881844 
L 428.074536 376.11943 
L 428.697466 375.853474 
L 428.905109 376.426736 
L 429.320396 375.92879 
L 429.528039 376.655143 
L 429.735683 376.403635 
L 429.943326 376.679417 
L 430.150969 375.704014 
L 430.358613 376.152713 
L 430.566256 375.699188 
L 430.773899 375.642724 
L 430.981543 375.857224 
L 431.189186 374.133495 
L 431.39683 375.633578 
L 431.604473 375.201632 
L 432.01976 376.530711 
L 432.227403 375.786335 
L 432.64269 376.131373 
L 432.850333 376.212177 
L 433.057976 376.463161 
L 433.26562 376.071563 
L 433.473263 375.927809 
L 433.680906 376.426951 
L 433.88855 376.005738 
L 434.096193 376.349227 
L 434.303837 375.850759 
L 434.926767 376.018805 
L 435.13441 371.677554 
L 435.342053 376.29156 
L 435.549697 376.064421 
L 435.75734 376.010421 
L 435.964983 376.11121 
L 436.172627 375.941688 
L 436.38027 376.388845 
L 436.587914 375.577333 
L 436.795557 375.295201 
L 437.210844 375.740179 
L 437.418487 375.952392 
L 437.62613 375.964477 
L 437.833774 376.140429 
L 438.87199 376.064811 
L 439.079634 373.62358 
L 439.287277 375.79267 
L 439.702564 375.909088 
L 439.910207 376.107677 
L 440.117851 375.798074 
L 440.325494 376.222262 
L 440.740781 375.629852 
L 440.948424 375.967641 
L 441.363711 375.935889 
L 441.778998 376.311677 
L 441.986641 376.211424 
L 442.194284 373.872356 
L 442.401928 376.339305 
L 442.609571 376.026213 
L 442.817214 376.023408 
L 443.024858 376.316803 
L 443.232501 376.141321 
L 443.440144 375.448072 
L 443.647788 376.178625 
L 443.855431 375.913404 
L 444.063074 376.435434 
L 444.270718 375.432289 
L 444.478361 375.606988 
L 444.686005 376.207211 
L 445.101291 376.078408 
L 445.308935 375.856683 
L 445.516578 376.239557 
L 445.724221 376.076261 
L 445.931865 375.530738 
L 446.139508 375.962346 
L 446.347151 375.998104 
L 446.554795 376.287657 
L 446.762438 375.385134 
L 446.970081 375.678516 
L 447.177725 375.630569 
L 447.385368 375.785461 
L 447.593012 375.450022 
L 447.800655 376.013719 
L 448.008298 375.702509 
L 448.215942 375.743587 
L 448.423585 375.916341 
L 448.631228 375.79584 
L 448.838872 376.028584 
L 449.046515 373.453443 
L 449.254158 375.99447 
L 449.669445 376.427205 
L 449.877089 375.471858 
L 450.084732 375.658688 
L 450.292375 374.010766 
L 450.500019 375.917967 
L 450.707662 375.757481 
L 450.915305 375.82263 
L 451.330592 376.335312 
L 451.538235 376.272851 
L 451.745879 376.064197 
L 452.161165 376.32808 
L 452.368809 375.364633 
L 452.784096 376.393286 
L 452.991739 376.359748 
L 453.199382 373.002953 
L 453.407026 375.875822 
L 453.614669 376.500918 
L 453.822312 375.724804 
L 454.029956 375.993326 
L 454.237599 375.454946 
L 454.652886 376.28068 
L 454.860529 376.312296 
L 455.275816 375.85104 
L 455.691103 376.220663 
L 455.898746 375.826062 
L 456.106389 376.012966 
L 456.314033 375.67407 
L 456.521676 376.418234 
L 456.729319 375.884688 
L 456.936963 376.390386 
L 457.144606 375.619652 
L 457.352249 375.751904 
L 457.559893 376.173924 
L 457.767536 375.574854 
L 457.97518 375.418933 
L 458.390466 376.151627 
L 458.59811 376.200978 
L 459.22104 375.768392 
L 459.428683 376.033565 
L 459.636326 375.878588 
L 460.051613 376.111935 
L 460.259257 374.78346 
L 460.4669 375.898474 
L 460.674543 375.534768 
L 460.882187 375.494857 
L 461.08983 375.840265 
L 461.297473 375.907274 
L 461.505117 375.793074 
L 461.71276 375.31802 
L 461.920403 375.711572 
L 462.128047 375.85034 
L 462.33569 376.151629 
L 462.543333 375.795199 
L 462.750977 375.926917 
L 462.95862 375.825938 
L 463.166264 376.044471 
L 463.58155 375.514802 
L 463.996837 376.525497 
L 464.412124 375.405 
L 464.619767 376.411898 
L 464.82741 375.817633 
L 465.242697 375.883991 
L 465.45034 376.225708 
L 465.657984 376.34984 
L 465.865627 375.747898 
L 466.073271 376.193968 
L 466.280914 375.909396 
L 466.488557 375.230894 
L 466.696201 375.839079 
L 466.903844 375.92755 
L 467.111487 376.203542 
L 467.319131 376.270067 
L 467.734417 375.383406 
L 467.942061 376.088309 
L 468.357348 375.655093 
L 468.564991 376.194353 
L 468.772634 376.161692 
L 468.980278 376.415177 
L 469.187921 375.009168 
L 469.395564 376.254373 
L 469.603208 375.314134 
L 469.810851 376.350605 
L 470.018494 375.918195 
L 470.226138 375.956096 
L 470.641424 376.346822 
L 470.849068 375.773091 
L 471.056711 376.234946 
L 471.471998 375.941392 
L 471.679641 375.959687 
L 471.887285 376.232705 
L 472.094928 376.167289 
L 472.302571 376.510291 
L 472.510215 376.234152 
L 472.717858 375.52213 
L 472.925501 375.950074 
L 473.340788 375.887315 
L 473.548432 376.143319 
L 473.756075 375.993402 
L 473.963718 376.132499 
L 474.171362 375.325103 
L 474.379005 376.175205 
L 474.794292 375.996097 
L 475.001935 376.257358 
L 475.209578 375.865577 
L 475.417222 376.132278 
L 475.832508 375.811001 
L 476.040152 376.259192 
L 476.247795 376.00513 
L 476.455439 376.541888 
L 476.663082 375.583702 
L 476.870725 375.991131 
L 477.078369 376.018758 
L 477.286012 375.420474 
L 477.493655 372.168916 
L 477.701299 375.992574 
L 477.908942 375.858666 
L 478.116585 375.987984 
L 478.324229 375.89167 
L 478.531872 376.011539 
L 478.739515 375.92735 
L 478.947159 376.247075 
L 479.154802 375.911752 
L 479.362446 376.030786 
L 479.570089 375.711754 
L 479.777732 376.372043 
L 479.985376 375.745111 
L 480.193019 375.760104 
L 480.400662 376.293049 
L 480.815949 376.111503 
L 481.023592 376.484732 
L 481.231236 376.200414 
L 481.854166 376.245987 
L 482.061809 375.897524 
L 482.269453 376.010247 
L 482.477096 375.608952 
L 482.684739 376.321709 
L 482.892383 375.917519 
L 483.100026 376.06071 
L 483.307669 375.831041 
L 483.515313 375.934391 
L 483.722956 375.569939 
L 484.138243 376.514489 
L 484.55353 375.031438 
L 484.761173 376.492036 
L 484.968816 375.813774 
L 485.17646 376.265919 
L 485.384103 376.285851 
L 485.591746 376.153027 
L 485.79939 375.753866 
L 486.42232 376.56197 
L 486.629963 375.392932 
L 486.837607 375.357755 
L 487.04525 376.00659 
L 487.66818 375.463566 
L 488.083467 376.144287 
L 488.498753 376.339745 
L 488.706397 375.878941 
L 488.91404 375.012203 
L 489.121683 375.785526 
L 489.329327 375.648344 
L 489.53697 374.186837 
L 489.744614 376.010771 
L 489.952257 375.647608 
L 490.1599 375.959783 
L 490.367544 376.051793 
L 490.575187 375.888813 
L 490.78283 375.874649 
L 490.990474 375.579066 
L 491.198117 376.128467 
L 491.40576 376.069903 
L 492.028691 376.218024 
L 492.443977 376.047659 
L 492.651621 376.24048 
L 492.859264 375.637772 
L 493.066907 376.032072 
L 493.274551 375.744206 
L 493.482194 374.640095 
L 493.689837 375.775026 
L 494.105124 376.061372 
L 494.312767 375.913469 
L 494.520411 376.199403 
L 494.728054 376.117317 
L 494.935698 375.866087 
L 495.143341 376.225971 
L 495.558628 375.895358 
L 495.766271 376.258999 
L 495.973914 374.320373 
L 496.389201 376.186603 
L 496.596844 375.814771 
L 496.804488 376.056451 
L 497.012131 376.081723 
L 497.219774 375.665299 
L 497.427418 375.736812 
L 497.842705 375.999048 
L 498.050348 376.000359 
L 498.257991 375.703301 
L 498.465635 376.172644 
L 498.673278 375.783476 
L 498.880921 376.135239 
L 499.088565 375.832612 
L 499.296208 375.781927 
L 499.503851 376.33478 
L 499.711495 376.108834 
L 499.919138 375.463994 
L 500.126782 375.851049 
L 500.334425 375.159224 
L 500.542068 376.264724 
L 500.957355 376.218764 
L 501.164998 376.389254 
L 501.787928 375.983976 
L 501.995572 375.365301 
L 502.203215 376.064963 
L 502.410858 375.725433 
L 502.618502 375.827479 
L 502.826145 376.544148 
L 503.033789 376.424542 
L 503.241432 375.861814 
L 503.449075 376.048296 
L 503.656719 375.351262 
L 503.864362 376.191793 
L 504.072005 375.822453 
L 504.279649 376.308248 
L 504.487292 375.73628 
L 504.694935 376.062699 
L 504.902579 375.77783 
L 505.110222 376.016809 
L 505.525509 375.876965 
L 505.733152 375.70383 
L 505.940796 376.17692 
L 506.148439 375.779849 
L 506.356082 376.041428 
L 506.563726 375.965964 
L 506.771369 376.386177 
L 507.186656 376.237288 
L 507.394299 375.525147 
L 507.601942 376.178763 
L 507.809586 376.295833 
L 508.432516 375.703998 
L 508.640159 376.098433 
L 508.847803 376.010985 
L 509.055446 376.049806 
L 509.263089 376.52326 
L 509.470733 375.867914 
L 509.678376 375.788105 
L 509.886019 375.355108 
L 510.093663 375.877782 
L 510.50895 375.822996 
L 510.716593 375.651039 
L 510.924236 375.955764 
L 511.13188 375.542672 
L 511.339523 376.098475 
L 511.547166 375.759217 
L 511.962453 375.925093 
L 512.170096 376.328429 
L 512.585383 376.129211 
L 512.793026 376.216887 
L 513.00067 376.089303 
L 513.208313 375.216074 
L 513.415957 376.148348 
L 513.6236 375.741848 
L 513.831243 376.442782 
L 514.038887 375.495922 
L 514.24653 376.547386 
L 514.454173 376.127564 
L 514.661817 376.200475 
L 514.86946 376.393087 
L 515.077103 375.999782 
L 515.49239 376.45508 
L 515.700033 375.479426 
L 515.907677 375.923452 
L 516.11532 375.285768 
L 516.322964 376.198447 
L 516.530607 373.38093 
L 516.73825 376.386221 
L 516.945894 376.024855 
L 517.153537 376.08741 
L 517.36118 375.91558 
L 517.568824 376.186297 
L 517.776467 376.089599 
L 517.98411 376.268201 
L 518.191754 376.005166 
L 518.607041 376.282352 
L 518.814684 375.885661 
L 519.022327 376.29014 
L 519.229971 375.707921 
L 519.437614 375.999841 
L 519.645257 375.770757 
L 519.852901 375.74821 
L 520.060544 376.320294 
L 520.475831 375.906121 
L 520.683474 374.325994 
L 520.891117 376.262721 
L 521.306404 376.366907 
L 521.514048 375.700127 
L 521.721691 374.353608 
L 521.929334 375.803248 
L 522.136978 376.241003 
L 522.344621 376.256456 
L 522.552264 376.063407 
L 522.759908 376.078135 
L 522.967551 373.781744 
L 523.175194 376.171031 
L 523.590481 375.599044 
L 524.005768 376.055503 
L 524.213411 375.643214 
L 524.421055 375.707392 
L 524.628698 376.337004 
L 524.836341 375.842883 
L 525.043985 376.24519 
L 525.251628 376.110831 
L 525.459271 376.212256 
L 525.666915 375.468784 
L 526.289845 376.187376 
L 526.497488 375.865821 
L 526.705132 375.988296 
L 527.328062 375.867074 
L 527.535705 375.858522 
L 527.743348 375.320516 
L 528.158635 375.957595 
L 528.366278 375.926605 
L 528.573922 375.580737 
L 528.781565 375.762172 
L 528.989208 375.702664 
L 529.196852 375.955486 
L 529.404495 375.969776 
L 529.612139 375.752879 
L 530.027425 376.22752 
L 530.235069 375.818772 
L 530.442712 375.711299 
L 530.857999 376.319747 
L 531.065642 375.758337 
L 531.273285 376.009139 
L 531.480929 375.863218 
L 531.688572 375.479856 
L 531.896216 375.898883 
L 532.103859 375.250407 
L 532.311502 375.498193 
L 532.519146 376.104562 
L 532.726789 375.689812 
L 532.934432 375.632428 
L 533.349719 376.389649 
L 533.557362 376.353536 
L 533.765006 376.511293 
L 533.972649 375.708876 
L 534.387936 376.369677 
L 534.595579 376.055806 
L 534.803223 376.035921 
L 535.010866 375.85906 
L 535.218509 375.380824 
L 535.841439 376.199984 
L 536.049083 375.603785 
L 536.256726 373.735989 
L 536.464369 375.558289 
L 536.672013 376.202863 
L 536.879656 375.703971 
L 537.0873 376.208025 
L 537.294943 376.050414 
L 537.502586 376.207663 
L 537.917873 376.082853 
L 538.540803 375.367207 
L 538.748446 375.586451 
L 538.95609 375.620496 
L 539.163733 376.205571 
L 539.371376 375.532205 
L 539.57902 376.312248 
L 539.786663 376.191139 
L 539.994307 376.214575 
L 540.20195 376.350028 
L 540.617237 376.085046 
L 540.82488 376.222287 
L 541.032523 376.152169 
L 541.44781 375.744809 
L 541.655453 375.782386 
L 541.863097 376.322882 
L 542.278384 375.841187 
L 542.486027 376.304366 
L 542.901314 375.962985 
L 543.108957 375.399896 
L 543.3166 375.834538 
L 543.524244 375.931146 
L 543.731887 375.633829 
L 543.93953 375.729666 
L 544.147174 376.070557 
L 544.354817 373.275111 
L 544.56246 376.018427 
L 544.770104 375.755423 
L 545.185391 376.386938 
L 545.600677 375.67773 
L 545.808321 376.057665 
L 546.015964 373.88156 
L 546.223607 376.150357 
L 546.431251 375.565229 
L 546.638894 376.23703 
L 546.846537 375.814595 
L 547.054181 376.307724 
L 547.261824 374.177604 
L 547.469467 375.948066 
L 547.677111 376.413155 
L 548.092398 375.74021 
L 548.300041 375.108892 
L 548.507684 376.211328 
L 548.715328 376.080216 
L 548.922971 376.264207 
L 549.130614 376.083123 
L 549.338258 375.230645 
L 549.545901 375.856358 
L 549.753544 375.811855 
L 549.961188 376.030847 
L 550.168831 376.081329 
L 550.376475 376.574085 
L 550.584118 375.38494 
L 550.791761 376.31452 
L 550.999405 376.012663 
L 551.207048 376.337676 
L 551.414691 375.819369 
L 551.622335 373.707574 
L 551.829978 376.460744 
L 552.037621 375.904184 
L 552.245265 375.922566 
L 552.452908 376.270498 
L 552.660551 376.23353 
L 552.868195 375.958317 
L 553.075838 375.877704 
L 553.283482 374.679695 
L 553.491125 375.249567 
L 553.698768 376.189628 
L 553.906412 375.926102 
L 554.114055 376.054603 
L 554.529342 375.884142 
L 554.736985 376.225814 
L 554.944628 376.226526 
L 555.152272 375.535967 
L 555.359915 376.526169 
L 555.567559 376.050138 
L 555.775202 376.255127 
L 555.982845 375.986453 
L 556.190489 376.160002 
L 556.398132 376.117994 
L 556.605775 375.956487 
L 556.813419 375.106385 
L 557.021062 376.035237 
L 557.228705 375.778417 
L 557.643992 376.457069 
L 557.851635 375.744575 
L 558.059279 375.913274 
L 558.266922 375.204741 
L 558.682209 375.827241 
L 559.097496 374.831802 
L 559.305139 376.279047 
L 559.512782 376.232894 
L 559.720426 372.976338 
L 559.928069 375.558913 
L 560.135712 375.997293 
L 560.343356 375.880448 
L 560.550999 375.616364 
L 560.758643 375.564939 
L 560.966286 375.735918 
L 561.173929 376.245763 
L 561.381573 375.501094 
L 561.589216 376.108599 
L 561.796859 375.926266 
L 562.004503 375.941666 
L 562.212146 375.706158 
L 562.419789 376.189392 
L 562.627433 375.99214 
L 562.835076 373.006295 
L 563.042719 375.562234 
L 563.250363 375.861576 
L 563.458006 375.890395 
L 563.66565 376.087188 
L 563.873293 375.860877 
L 564.080936 376.027401 
L 564.28858 375.677578 
L 564.496223 376.190758 
L 564.703866 375.96831 
L 564.91151 376.097329 
L 565.119153 375.901095 
L 565.326796 376.123565 
L 565.742083 376.086437 
L 565.949726 375.059527 
L 566.15737 375.976889 
L 566.365013 375.985439 
L 566.572657 376.119728 
L 566.7803 376.058696 
L 566.987943 376.237425 
L 567.195587 375.082393 
L 567.40323 376.096493 
L 567.610873 375.977859 
L 568.233803 376.066455 
L 568.64909 376.022192 
L 568.856734 375.748051 
L 569.064377 375.980864 
L 569.479664 376.161993 
L 569.687307 375.369011 
L 570.102594 376.134834 
L 570.51788 376.202065 
L 570.933167 375.731921 
L 571.14081 376.18912 
L 571.348454 372.254659 
L 571.556097 376.287719 
L 571.971384 376.038898 
L 572.179027 375.652667 
L 572.594314 376.076545 
L 572.801957 376.24812 
L 573.009601 375.72387 
L 573.424887 376.512214 
L 573.632531 375.809236 
L 573.840174 375.650036 
L 574.047818 376.136505 
L 574.255461 375.477419 
L 574.463104 376.433666 
L 574.670748 375.823377 
L 574.878391 376.060096 
L 575.086034 375.944352 
L 575.293678 376.398016 
L 575.501321 376.179734 
L 575.708964 376.439636 
L 575.916608 375.940566 
L 576.331894 376.076725 
L 576.539538 375.824528 
L 576.747181 376.386064 
L 576.954825 375.782586 
L 577.162468 376.502307 
L 577.370111 375.891155 
L 577.577755 375.984692 
L 577.785398 375.796213 
L 577.993041 376.06939 
L 578.408328 376.083396 
L 578.823615 376.103188 
L 579.031258 376.375438 
L 579.238901 376.258485 
L 579.446545 375.942992 
L 579.654188 376.248163 
L 579.861832 376.080533 
L 580.069475 376.305034 
L 580.277118 376.179001 
L 580.484762 375.825298 
L 580.692405 375.767222 
L 580.900048 376.053764 
L 581.107692 376.119171 
L 581.522978 375.232976 
L 581.730622 376.386159 
L 581.938265 376.066925 
L 582.353552 376.213845 
L 582.561195 376.471752 
L 582.768839 376.395069 
L 582.976482 375.926183 
L 583.184125 376.305299 
L 583.391769 376.252557 
L 583.599412 376.437135 
L 583.807055 375.869633 
L 584.014699 376.08045 
L 584.637629 375.817511 
L 584.845272 375.924322 
L 585.052916 375.881967 
L 585.260559 376.46326 
L 585.468202 376.020676 
L 585.675846 376.084311 
L 585.883489 375.982977 
L 586.091132 376.499728 
L 586.506419 375.599149 
L 586.714062 376.224964 
L 586.921706 375.99568 
L 587.752279 375.904929 
L 587.959923 376.276909 
L 588.167566 376.002512 
L 588.375209 374.593362 
L 588.582853 375.023347 
L 588.790496 375.902448 
L 588.998139 373.086846 
L 589.205783 376.374629 
L 589.621069 375.880762 
L 589.828713 376.212651 
L 590.451643 375.58358 
L 590.86693 376.374638 
L 591.074573 376.103832 
L 591.282216 376.109535 
L 591.48986 376.234042 
L 591.697503 376.082347 
L 591.905146 375.68613 
L 592.11279 376.136407 
L 592.320433 375.964976 
L 592.528077 376.230038 
L 592.943363 376.15082 
L 593.151007 375.842583 
L 593.566293 376.120808 
L 593.773937 375.749985 
L 593.98158 374.246605 
L 594.189223 376.000752 
L 594.396867 374.393395 
L 594.60451 375.775806 
L 594.812153 376.010645 
L 595.22744 375.063128 
L 595.435084 376.024277 
L 595.642727 375.912085 
L 595.85037 376.083989 
L 596.265657 375.686454 
L 596.4733 376.148396 
L 596.888587 375.801055 
L 597.09623 376.032733 
L 597.303874 375.543142 
L 597.511517 375.547411 
L 597.71916 376.06441 
L 598.134447 375.776658 
L 598.342091 375.920197 
L 598.549734 375.7848 
L 598.757377 376.036127 
L 599.380307 375.988964 
L 599.587951 375.448962 
L 599.795594 376.264021 
L 600.210881 375.816625 
L 600.418524 375.738458 
L 600.626168 376.169697 
L 601.041454 376.007698 
L 601.456741 375.830275 
L 601.664384 376.245519 
L 601.872028 375.963363 
L 602.287314 376.025966 
L 602.494958 376.254526 
L 602.910244 375.713056 
L 603.325531 375.943365 
L 603.740818 375.655141 
L 603.948461 376.191286 
L 604.156105 376.385993 
L 604.571391 375.809523 
L 604.779035 371.549014 
L 604.986678 376.412379 
L 605.194321 376.139298 
L 605.401965 376.073008 
L 605.609608 376.263174 
L 605.817252 375.937965 
L 606.024895 376.136153 
L 606.232538 375.661422 
L 606.647825 376.482181 
L 606.855468 376.324205 
L 607.063112 375.981226 
L 607.270755 376.222182 
L 607.478398 376.238477 
L 607.893685 375.77657 
L 608.308972 376.295095 
L 608.516615 375.350771 
L 608.724259 375.995371 
L 608.931902 376.161179 
L 609.139545 376.472099 
L 609.347189 376.024478 
L 609.554832 376.016793 
L 609.762475 376.536276 
L 610.177762 375.702072 
L 610.385405 375.824523 
L 610.593049 376.237306 
L 611.215979 375.8261 
L 611.631266 376.277342 
L 611.838909 376.416104 
L 612.046552 376.026098 
L 612.461839 376.032017 
L 612.669482 375.703391 
L 612.877126 375.624499 
L 613.084769 376.016462 
L 613.292412 375.35934 
L 613.500056 375.76242 
L 613.915343 375.811574 
L 614.122986 376.2257 
L 614.330629 376.251674 
L 614.745916 375.514961 
L 614.953559 376.007487 
L 615.161203 376.20834 
L 615.368846 376.043874 
L 615.784133 376.241808 
L 615.991776 376.013217 
L 616.407063 375.967294 
L 616.614706 376.43051 
L 616.82235 375.892663 
L 617.029993 376.227574 
L 617.237636 376.323853 
L 617.44528 376.182775 
L 617.652923 376.49646 
L 617.860566 375.812649 
L 618.06821 375.871594 
L 618.483496 376.252035 
L 618.69114 375.729179 
L 618.898783 376.266798 
L 619.106427 375.667563 
L 619.31407 376.077052 
L 619.521713 375.571453 
L 619.729357 375.801883 
L 619.937 375.853446 
L 620.144643 376.105638 
L 620.352287 374.582818 
L 620.55993 375.059278 
L 620.767573 376.222922 
L 620.975217 376.13576 
L 621.18286 375.91584 
L 621.390503 375.263306 
L 621.598147 376.199305 
L 621.80579 375.387824 
L 622.221077 376.008931 
L 622.42872 376.097934 
L 622.636364 376.021169 
L 622.636364 376.021169 
" clip-path="url(#p5784a78745)" style="fill: none; stroke: #1f77b4; stroke-width: 1.5; stroke-linecap: square"/>
   </g>
   <g id="patch_3">
    <path d="M 90 384.48 
L 90 51.84 
" style="fill: none; stroke: #000000; stroke-width: 0.8; stroke-linejoin: miter; stroke-linecap: square"/>
   </g>
   <g id="patch_4">
    <path d="M 648 384.48 
L 648 51.84 
" style="fill: none; stroke: #000000; stroke-width: 0.8; stroke-linejoin: miter; stroke-linecap: square"/>
   </g>
   <g id="patch_5">
    <path d="M 90 384.48 
L 648 384.48 
" style="fill: none; stroke: #000000; stroke-width: 0.8; stroke-linejoin: miter; stroke-linecap: square"/>
   </g>
   <g id="patch_6">
    <path d="M 90 51.84 
L 648 51.84 
" style="fill: none; stroke: #000000; stroke-width: 0.8; stroke-linejoin: miter; stroke-linecap: square"/>
   </g>
   <g id="text_16">
    <!-- Average time per index -->
    <g transform="translate(298.700625 45.84) scale(0.12 -0.12)">
     <defs>
      <path id="DejaVuSans-70" d="M 1159 525 
L 1159 -1331 
L 581 -1331 
L 581 3500 
L 1159 3500 
L 1159 2969 
Q 1341 3281 1617 3432 
Q 1894 3584 2278 3584 
Q 2916 3584 3314 3078 
Q 3713 2572 3713 1747 
Q 3713 922 3314 415 
Q 2916 -91 2278 -91 
Q 1894 -91 1617 61 
Q 1341 213 1159 525 
z
M 3116 1747 
Q 3116 2381 2855 2742 
Q 2594 3103 2138 3103 
Q 1681 3103 1420 2742 
Q 1159 2381 1159 1747 
Q 1159 1113 1420 752 
Q 1681 391 2138 391 
Q 2594 391 2855 752 
Q 3116 1113 3116 1747 
z
" transform="scale(0.015625)"/>
     </defs>
     <use xlink:href="#DejaVuSans-41"/>
     <use xlink:href="#DejaVuSans-76" transform="translate(62.533203 0)"/>
     <use xlink:href="#DejaVuSans-65" transform="translate(121.712891 0)"/>
     <use xlink:href="#DejaVuSans-72" transform="translate(183.236328 0)"/>
     <use xlink:href="#DejaVuSans-61" transform="translate(224.349609 0)"/>
     <use xlink:href="#DejaVuSans-67" transform="translate(285.628906 0)"/>
     <use xlink:href="#DejaVuSans-65" transform="translate(349.105469 0)"/>
     <use xlink:href="#DejaVuSans-20" transform="translate(410.628906 0)"/>
     <use xlink:href="#DejaVuSans-74" transform="translate(442.416016 0)"/>
     <use xlink:href="#DejaVuSans-69" transform="translate(481.625 0)"/>
     <use xlink:href="#DejaVuSans-6d" transform="translate(509.408203 0)"/>
     <use xlink:href="#DejaVuSans-65" transform="translate(606.820312 0)"/>
     <use xlink:href="#DejaVuSans-20" transform="translate(668.34375 0)"/>
     <use xlink:href="#DejaVuSans-70" transform="translate(700.130859 0)"/>
     <use xlink:href="#DejaVuSans-65" transform="translate(763.607422 0)"/>
     <use xlink:href="#DejaVuSans-72" transform="translate(825.130859 0)"/>
     <use xlink:href="#DejaVuSans-20" transform="translate(866.244141 0)"/>
     <use xlink:href="#DejaVuSans-69" transform="translate(898.03125 0)"/>
     <use xlink:href="#DejaVuSans-6e" transform="translate(925.814453 0)"/>
     <use xlink:href="#DejaVuSans-64" transform="translate(989.193359 0)"/>
     <use xlink:href="#DejaVuSans-65" transform="translate(1052.669922 0)"/>
     <use xlink:href="#DejaVuSans-78" transform="translate(1112.443359 0)"/>
    </g>
   </g>
   <g id="legend_1">
    <g id="patch_7">
     <path d="M 525.064062 74.518125 
L 641 74.518125 
Q 643 74.518125 643 72.518125 
L 643 58.84 
Q 643 56.84 641 56.84 
L 525.064062 56.84 
Q 523.064062 56.84 523.064062 58.84 
L 523.064062 72.518125 
Q 523.064062 74.518125 525.064062 74.518125 
z
" style="fill: #ffffff; opacity: 0.8; stroke: #cccccc; stroke-linejoin: miter"/>
    </g>
    <g id="line2d_15">
     <path d="M 527.064062 64.938438 
L 537.064062 64.938438 
L 547.064062 64.938438 
" style="fill: none; stroke: #1f77b4; stroke-width: 1.5; stroke-linecap: square"/>
    </g>
    <g id="text_17">
     <!-- registerFaultload -->
     <g transform="translate(555.064062 68.438438) scale(0.1 -0.1)">
      <defs>
       <path id="DejaVuSans-46" d="M 628 4666 
L 3309 4666 
L 3309 4134 
L 1259 4134 
L 1259 2759 
L 3109 2759 
L 3109 2228 
L 1259 2228 
L 1259 0 
L 628 0 
L 628 4666 
z
" transform="scale(0.015625)"/>
       <path id="DejaVuSans-75" d="M 544 1381 
L 544 3500 
L 1119 3500 
L 1119 1403 
Q 1119 906 1312 657 
Q 1506 409 1894 409 
Q 2359 409 2629 706 
Q 2900 1003 2900 1516 
L 2900 3500 
L 3475 3500 
L 3475 0 
L 2900 0 
L 2900 538 
Q 2691 219 2414 64 
Q 2138 -91 1772 -91 
Q 1169 -91 856 284 
Q 544 659 544 1381 
z
M 1991 3584 
L 1991 3584 
z
" transform="scale(0.015625)"/>
       <path id="DejaVuSans-6c" d="M 603 4863 
L 1178 4863 
L 1178 0 
L 603 0 
L 603 4863 
z
" transform="scale(0.015625)"/>
       <path id="DejaVuSans-6f" d="M 1959 3097 
Q 1497 3097 1228 2736 
Q 959 2375 959 1747 
Q 959 1119 1226 758 
Q 1494 397 1959 397 
Q 2419 397 2687 759 
Q 2956 1122 2956 1747 
Q 2956 2369 2687 2733 
Q 2419 3097 1959 3097 
z
M 1959 3584 
Q 2709 3584 3137 3096 
Q 3566 2609 3566 1747 
Q 3566 888 3137 398 
Q 2709 -91 1959 -91 
Q 1206 -91 779 398 
Q 353 888 353 1747 
Q 353 2609 779 3096 
Q 1206 3584 1959 3584 
z
" transform="scale(0.015625)"/>
      </defs>
      <use xlink:href="#DejaVuSans-72"/>
      <use xlink:href="#DejaVuSans-65" transform="translate(38.863281 0)"/>
      <use xlink:href="#DejaVuSans-67" transform="translate(100.386719 0)"/>
      <use xlink:href="#DejaVuSans-69" transform="translate(163.863281 0)"/>
      <use xlink:href="#DejaVuSans-73" transform="translate(191.646484 0)"/>
      <use xlink:href="#DejaVuSans-74" transform="translate(243.746094 0)"/>
      <use xlink:href="#DejaVuSans-65" transform="translate(282.955078 0)"/>
      <use xlink:href="#DejaVuSans-72" transform="translate(344.478516 0)"/>
      <use xlink:href="#DejaVuSans-46" transform="translate(385.591797 0)"/>
      <use xlink:href="#DejaVuSans-61" transform="translate(433.986328 0)"/>
      <use xlink:href="#DejaVuSans-75" transform="translate(495.265625 0)"/>
      <use xlink:href="#DejaVuSans-6c" transform="translate(558.644531 0)"/>
      <use xlink:href="#DejaVuSans-74" transform="translate(586.427734 0)"/>
      <use xlink:href="#DejaVuSans-6c" transform="translate(625.636719 0)"/>
      <use xlink:href="#DejaVuSans-6f" transform="translate(653.419922 0)"/>
      <use xlink:href="#DejaVuSans-61" transform="translate(714.601562 0)"/>
      <use xlink:href="#DejaVuSans-64" transform="translate(775.880859 0)"/>
     </g>
    </g>
   </g>
  </g>
 </g>
 <defs>
  <clipPath id="p5784a78745">
   <rect x="90" y="51.84" width="558" height="332.64"/>
  </clipPath>
 </defs>
</svg>
