<?xml version="1.0" encoding="utf-8" standalone="no"?>
<!DOCTYPE svg PUBLIC "-//W3C//DTD SVG 1.1//EN"
  "http://www.w3.org/Graphics/SVG/1.1/DTD/svg11.dtd">
<svg xmlns:xlink="http://www.w3.org/1999/xlink" width="576pt" height="432pt" viewBox="0 0 576 432" xmlns="http://www.w3.org/2000/svg" version="1.1">
 <metadata>
  <rdf:RDF xmlns:dc="http://purl.org/dc/elements/1.1/" xmlns:cc="http://creativecommons.org/ns#" xmlns:rdf="http://www.w3.org/1999/02/22-rdf-syntax-ns#">
   <cc:Work>
    <dc:type rdf:resource="http://purl.org/dc/dcmitype/StillImage"/>
    <dc:date>2025-09-30T20:42:38.675413</dc:date>
    <dc:format>image/svg+xml</dc:format>
    <dc:creator>
     <cc:Agent>
      <dc:title>Matplotlib v3.10.3, https://matplotlib.org/</dc:title>
     </cc:Agent>
    </dc:creator>
   </cc:Work>
  </rdf:RDF>
 </metadata>
 <defs>
  <style type="text/css">*{stroke-linejoin: round; stroke-linecap: butt}</style>
 </defs>
 <g id="figure_1">
  <g id="patch_1">
   <path d="M 0 432 
L 576 432 
L 576 0 
L 0 0 
z
" style="fill: #ffffff"/>
  </g>
  <g id="axes_1">
   <g id="patch_2">
    <path d="M 72 384.48 
L 518.4 384.48 
L 518.4 51.84 
L 72 51.84 
z
" style="fill: #ffffff"/>
   </g>
   <g id="FillBetweenPolyCollection_1">
    <path d="M 295.560922 364.619656 
L 294.839078 364.619656 
L 294.664444 361.610712 
L 294.516543 358.601769 
L 294.357768 355.592826 
L 294.177442 352.583883 
L 294.054102 349.574939 
L 294.045825 346.565996 
L 294.047803 343.557053 
L 293.776302 340.548109 
L 292.961365 337.539166 
L 291.606712 334.530223 
L 289.961201 331.521279 
L 288.290723 328.512336 
L 286.684508 325.503393 
L 284.969291 322.49445 
L 282.931958 319.485506 
L 279.684034 316.476563 
L 271.962457 313.46762 
L 255.531993 310.458676 
L 231.777408 307.449733 
L 211.290095 304.44079 
L 203.675993 301.431847 
L 204.251438 298.422903 
L 201.308601 295.41396 
L 195.075802 292.405017 
L 196.044757 289.396073 
L 204.926878 286.38713 
L 208.954368 283.378187 
L 201.609666 280.369243 
L 193.470487 277.3603 
L 194.906588 274.351357 
L 198.75062 271.342414 
L 194.030633 268.33347 
L 185.708383 265.324527 
L 183.6 262.315584 
L 184.58459 259.30664 
L 183.706797 256.297697 
L 185.914019 253.288754 
L 191.795765 250.27981 
L 192.564256 247.270867 
L 187.614372 244.261924 
L 185.169467 241.252981 
L 185.541469 238.244037 
L 185.239686 235.235094 
L 187.882839 232.226151 
L 193.477109 229.217207 
L 195.161025 226.208264 
L 194.685094 223.199321 
L 198.944566 220.190377 
L 203.56626 217.181434 
L 201.89562 214.172491 
L 200.180854 211.163548 
L 204.17399 208.154604 
L 206.840339 205.145661 
L 205.943448 202.136718 
L 212.96474 199.127774 
L 232.792453 196.118831 
L 255.211669 193.109888 
L 270.744262 190.100945 
L 279.257893 187.092001 
L 284.156324 184.083058 
L 287.412116 181.074115 
L 289.605611 178.065171 
L 291.079367 175.056228 
L 292.197222 172.047285 
L 293.086455 169.038341 
L 293.70748 166.029398 
L 294.092877 163.020455 
L 294.35169 160.011512 
L 294.559188 157.002568 
L 294.726123 153.993625 
L 294.844581 150.984682 
L 294.921177 147.975738 
L 294.96993 144.966795 
L 295.002355 141.957852 
L 295.02578 138.948908 
L 295.043642 135.939965 
L 295.060142 132.931022 
L 295.079729 129.922079 
L 295.100795 126.913135 
L 295.116416 123.904192 
L 295.123645 120.895249 
L 295.127765 117.886305 
L 295.136238 114.877362 
L 295.150538 111.868419 
L 295.161391 108.859475 
L 295.160323 105.850532 
L 295.156124 102.841589 
L 295.163076 99.832646 
L 295.179078 96.823702 
L 295.192224 93.814759 
L 295.198113 90.805816 
L 295.1997 87.796872 
L 295.19995 84.787929 
L 295.199797 81.778986 
L 295.198625 78.770043 
L 295.193855 75.761099 
L 295.182099 72.752156 
L 295.165997 69.743213 
L 295.157889 66.734269 
L 295.242111 66.734269 
L 295.242111 66.734269 
L 295.234003 69.743213 
L 295.217901 72.752156 
L 295.206145 75.761099 
L 295.201375 78.770043 
L 295.200203 81.778986 
L 295.20005 84.787929 
L 295.2003 87.796872 
L 295.201887 90.805816 
L 295.207776 93.814759 
L 295.220922 96.823702 
L 295.236924 99.832646 
L 295.243876 102.841589 
L 295.239677 105.850532 
L 295.238609 108.859475 
L 295.249462 111.868419 
L 295.263762 114.877362 
L 295.272235 117.886305 
L 295.276355 120.895249 
L 295.283584 123.904192 
L 295.299205 126.913135 
L 295.320271 129.922079 
L 295.339858 132.931022 
L 295.356358 135.939965 
L 295.37422 138.948908 
L 295.397645 141.957852 
L 295.43007 144.966795 
L 295.478823 147.975738 
L 295.555419 150.984682 
L 295.673877 153.993625 
L 295.840812 157.002568 
L 296.04831 160.011512 
L 296.307123 163.020455 
L 296.69252 166.029398 
L 297.313545 169.038341 
L 298.202778 172.047285 
L 299.320633 175.056228 
L 300.794389 178.065171 
L 302.987884 181.074115 
L 306.243676 184.083058 
L 311.142107 187.092001 
L 319.655738 190.100945 
L 335.188331 193.109888 
L 357.607547 196.118831 
L 377.43526 199.127774 
L 384.456552 202.136718 
L 383.559661 205.145661 
L 386.22601 208.154604 
L 390.219146 211.163548 
L 388.50438 214.172491 
L 386.83374 217.181434 
L 391.455434 220.190377 
L 395.714906 223.199321 
L 395.238975 226.208264 
L 396.922891 229.217207 
L 402.517161 232.226151 
L 405.160314 235.235094 
L 404.858531 238.244037 
L 405.230533 241.252981 
L 402.785628 244.261924 
L 397.835744 247.270867 
L 398.604235 250.27981 
L 404.485981 253.288754 
L 406.693203 256.297697 
L 405.81541 259.30664 
L 406.8 262.315584 
L 404.691617 265.324527 
L 396.369367 268.33347 
L 391.64938 271.342414 
L 395.493412 274.351357 
L 396.929513 277.3603 
L 388.790334 280.369243 
L 381.445632 283.378187 
L 385.473122 286.38713 
L 394.355243 289.396073 
L 395.324198 292.405017 
L 389.091399 295.41396 
L 386.148562 298.422903 
L 386.724007 301.431847 
L 379.109905 304.44079 
L 358.622592 307.449733 
L 334.868007 310.458676 
L 318.437543 313.46762 
L 310.715966 316.476563 
L 307.468042 319.485506 
L 305.430709 322.49445 
L 303.715492 325.503393 
L 302.109277 328.512336 
L 300.438799 331.521279 
L 298.793288 334.530223 
L 297.438635 337.539166 
L 296.623698 340.548109 
L 296.352197 343.557053 
L 296.354175 346.565996 
L 296.345898 349.574939 
L 296.222558 352.583883 
L 296.042232 355.592826 
L 295.883457 358.601769 
L 295.735556 361.610712 
L 295.560922 364.619656 
z
" clip-path="url(#p2f97a52a9b)" style="fill: #1f77b4; fill-opacity: 0.3"/>
   </g>
   <g id="matplotlib.axis_1">
    <g id="xtick_1">
     <g id="line2d_1">
      <defs>
       <path id="m3b091b7d5b" d="M 0 0 
L 0 3.5 
" style="stroke: #000000; stroke-width: 0.8"/>
      </defs>
      <g>
       <use xlink:href="#m3b091b7d5b" x="295.2" y="384.48" style="stroke: #000000; stroke-width: 0.8"/>
      </g>
     </g>
     <g id="text_1">
      <!-- 1 -->
      <g transform="translate(292.01875 399.078438) scale(0.1 -0.1)">
       <defs>
        <path id="DejaVuSans-31" d="M 794 531 
L 1825 531 
L 1825 4091 
L 703 3866 
L 703 4441 
L 1819 4666 
L 2450 4666 
L 2450 531 
L 3481 531 
L 3481 0 
L 794 0 
L 794 531 
z
" transform="scale(0.015625)"/>
       </defs>
       <use xlink:href="#DejaVuSans-31"/>
      </g>
     </g>
    </g>
   </g>
   <g id="matplotlib.axis_2">
    <g id="ytick_1">
     <g id="line2d_2">
      <defs>
       <path id="m03497ac8cf" d="M 0 0 
L -3.5 0 
" style="stroke: #000000; stroke-width: 0.8"/>
      </defs>
      <g>
       <use xlink:href="#m03497ac8cf" x="72" y="384.48" style="stroke: #000000; stroke-width: 0.8"/>
      </g>
     </g>
     <g id="text_2">
      <!-- 0 -->
      <g transform="translate(58.6375 388.279219) scale(0.1 -0.1)">
       <defs>
        <path id="DejaVuSans-30" d="M 2034 4250 
Q 1547 4250 1301 3770 
Q 1056 3291 1056 2328 
Q 1056 1369 1301 889 
Q 1547 409 2034 409 
Q 2525 409 2770 889 
Q 3016 1369 3016 2328 
Q 3016 3291 2770 3770 
Q 2525 4250 2034 4250 
z
M 2034 4750 
Q 2819 4750 3233 4129 
Q 3647 3509 3647 2328 
Q 3647 1150 3233 529 
Q 2819 -91 2034 -91 
Q 1250 -91 836 529 
Q 422 1150 422 2328 
Q 422 3509 836 4129 
Q 1250 4750 2034 4750 
z
" transform="scale(0.015625)"/>
       </defs>
       <use xlink:href="#DejaVuSans-30"/>
      </g>
     </g>
    </g>
    <g id="ytick_2">
     <g id="line2d_3">
      <g>
       <use xlink:href="#m03497ac8cf" x="72" y="317.05428" style="stroke: #000000; stroke-width: 0.8"/>
      </g>
     </g>
     <g id="text_3">
      <!-- 50 -->
      <g transform="translate(52.275 320.853499) scale(0.1 -0.1)">
       <defs>
        <path id="DejaVuSans-35" d="M 691 4666 
L 3169 4666 
L 3169 4134 
L 1269 4134 
L 1269 2991 
Q 1406 3038 1543 3061 
Q 1681 3084 1819 3084 
Q 2600 3084 3056 2656 
Q 3513 2228 3513 1497 
Q 3513 744 3044 326 
Q 2575 -91 1722 -91 
Q 1428 -91 1123 -41 
Q 819 9 494 109 
L 494 744 
Q 775 591 1075 516 
Q 1375 441 1709 441 
Q 2250 441 2565 725 
Q 2881 1009 2881 1497 
Q 2881 1984 2565 2268 
Q 2250 2553 1709 2553 
Q 1456 2553 1204 2497 
Q 953 2441 691 2322 
L 691 4666 
z
" transform="scale(0.015625)"/>
       </defs>
       <use xlink:href="#DejaVuSans-35"/>
       <use xlink:href="#DejaVuSans-30" transform="translate(63.623047 0)"/>
      </g>
     </g>
    </g>
    <g id="ytick_3">
     <g id="line2d_4">
      <g>
       <use xlink:href="#m03497ac8cf" x="72" y="249.62856" style="stroke: #000000; stroke-width: 0.8"/>
      </g>
     </g>
     <g id="text_4">
      <!-- 100 -->
      <g transform="translate(45.9125 253.427779) scale(0.1 -0.1)">
       <use xlink:href="#DejaVuSans-31"/>
       <use xlink:href="#DejaVuSans-30" transform="translate(63.623047 0)"/>
       <use xlink:href="#DejaVuSans-30" transform="translate(127.246094 0)"/>
      </g>
     </g>
    </g>
    <g id="ytick_4">
     <g id="line2d_5">
      <g>
       <use xlink:href="#m03497ac8cf" x="72" y="182.20284" style="stroke: #000000; stroke-width: 0.8"/>
      </g>
     </g>
     <g id="text_5">
      <!-- 150 -->
      <g transform="translate(45.9125 186.002059) scale(0.1 -0.1)">
       <use xlink:href="#DejaVuSans-31"/>
       <use xlink:href="#DejaVuSans-35" transform="translate(63.623047 0)"/>
       <use xlink:href="#DejaVuSans-30" transform="translate(127.246094 0)"/>
      </g>
     </g>
    </g>
    <g id="ytick_5">
     <g id="line2d_6">
      <g>
       <use xlink:href="#m03497ac8cf" x="72" y="114.77712" style="stroke: #000000; stroke-width: 0.8"/>
      </g>
     </g>
     <g id="text_6">
      <!-- 200 -->
      <g transform="translate(45.9125 118.576339) scale(0.1 -0.1)">
       <defs>
        <path id="DejaVuSans-32" d="M 1228 531 
L 3431 531 
L 3431 0 
L 469 0 
L 469 531 
Q 828 903 1448 1529 
Q 2069 2156 2228 2338 
Q 2531 2678 2651 2914 
Q 2772 3150 2772 3378 
Q 2772 3750 2511 3984 
Q 2250 4219 1831 4219 
Q 1534 4219 1204 4116 
Q 875 4013 500 3803 
L 500 4441 
Q 881 4594 1212 4672 
Q 1544 4750 1819 4750 
Q 2544 4750 2975 4387 
Q 3406 4025 3406 3419 
Q 3406 3131 3298 2873 
Q 3191 2616 2906 2266 
Q 2828 2175 2409 1742 
Q 1991 1309 1228 531 
z
" transform="scale(0.015625)"/>
       </defs>
       <use xlink:href="#DejaVuSans-32"/>
       <use xlink:href="#DejaVuSans-30" transform="translate(63.623047 0)"/>
       <use xlink:href="#DejaVuSans-30" transform="translate(127.246094 0)"/>
      </g>
     </g>
    </g>
    <g id="text_7">
     <!-- Time (ms) -->
     <g transform="translate(39.832812 243.359219) rotate(-90) scale(0.1 -0.1)">
      <defs>
       <path id="DejaVuSans-54" d="M -19 4666 
L 3928 4666 
L 3928 4134 
L 2272 4134 
L 2272 0 
L 1638 0 
L 1638 4134 
L -19 4134 
L -19 4666 
z
" transform="scale(0.015625)"/>
       <path id="DejaVuSans-69" d="M 603 3500 
L 1178 3500 
L 1178 0 
L 603 0 
L 603 3500 
z
M 603 4863 
L 1178 4863 
L 1178 4134 
L 603 4134 
L 603 4863 
z
" transform="scale(0.015625)"/>
       <path id="DejaVuSans-6d" d="M 3328 2828 
Q 3544 3216 3844 3400 
Q 4144 3584 4550 3584 
Q 5097 3584 5394 3201 
Q 5691 2819 5691 2113 
L 5691 0 
L 5113 0 
L 5113 2094 
Q 5113 2597 4934 2840 
Q 4756 3084 4391 3084 
Q 3944 3084 3684 2787 
Q 3425 2491 3425 1978 
L 3425 0 
L 2847 0 
L 2847 2094 
Q 2847 2600 2669 2842 
Q 2491 3084 2119 3084 
Q 1678 3084 1418 2786 
Q 1159 2488 1159 1978 
L 1159 0 
L 581 0 
L 581 3500 
L 1159 3500 
L 1159 2956 
Q 1356 3278 1631 3431 
Q 1906 3584 2284 3584 
Q 2666 3584 2933 3390 
Q 3200 3197 3328 2828 
z
" transform="scale(0.015625)"/>
       <path id="DejaVuSans-65" d="M 3597 1894 
L 3597 1613 
L 953 1613 
Q 991 1019 1311 708 
Q 1631 397 2203 397 
Q 2534 397 2845 478 
Q 3156 559 3463 722 
L 3463 178 
Q 3153 47 2828 -22 
Q 2503 -91 2169 -91 
Q 1331 -91 842 396 
Q 353 884 353 1716 
Q 353 2575 817 3079 
Q 1281 3584 2069 3584 
Q 2775 3584 3186 3129 
Q 3597 2675 3597 1894 
z
M 3022 2063 
Q 3016 2534 2758 2815 
Q 2500 3097 2075 3097 
Q 1594 3097 1305 2825 
Q 1016 2553 972 2059 
L 3022 2063 
z
" transform="scale(0.015625)"/>
       <path id="DejaVuSans-20" transform="scale(0.015625)"/>
       <path id="DejaVuSans-28" d="M 1984 4856 
Q 1566 4138 1362 3434 
Q 1159 2731 1159 2009 
Q 1159 1288 1364 580 
Q 1569 -128 1984 -844 
L 1484 -844 
Q 1016 -109 783 600 
Q 550 1309 550 2009 
Q 550 2706 781 3412 
Q 1013 4119 1484 4856 
L 1984 4856 
z
" transform="scale(0.015625)"/>
       <path id="DejaVuSans-73" d="M 2834 3397 
L 2834 2853 
Q 2591 2978 2328 3040 
Q 2066 3103 1784 3103 
Q 1356 3103 1142 2972 
Q 928 2841 928 2578 
Q 928 2378 1081 2264 
Q 1234 2150 1697 2047 
L 1894 2003 
Q 2506 1872 2764 1633 
Q 3022 1394 3022 966 
Q 3022 478 2636 193 
Q 2250 -91 1575 -91 
Q 1294 -91 989 -36 
Q 684 19 347 128 
L 347 722 
Q 666 556 975 473 
Q 1284 391 1588 391 
Q 1994 391 2212 530 
Q 2431 669 2431 922 
Q 2431 1156 2273 1281 
Q 2116 1406 1581 1522 
L 1381 1569 
Q 847 1681 609 1914 
Q 372 2147 372 2553 
Q 372 3047 722 3315 
Q 1072 3584 1716 3584 
Q 2034 3584 2315 3537 
Q 2597 3491 2834 3397 
z
" transform="scale(0.015625)"/>
       <path id="DejaVuSans-29" d="M 513 4856 
L 1013 4856 
Q 1481 4119 1714 3412 
Q 1947 2706 1947 2009 
Q 1947 1309 1714 600 
Q 1481 -109 1013 -844 
L 513 -844 
Q 928 -128 1133 580 
Q 1338 1288 1338 2009 
Q 1338 2731 1133 3434 
Q 928 4138 513 4856 
z
" transform="scale(0.015625)"/>
      </defs>
      <use xlink:href="#DejaVuSans-54"/>
      <use xlink:href="#DejaVuSans-69" transform="translate(57.958984 0)"/>
      <use xlink:href="#DejaVuSans-6d" transform="translate(85.742188 0)"/>
      <use xlink:href="#DejaVuSans-65" transform="translate(183.154297 0)"/>
      <use xlink:href="#DejaVuSans-20" transform="translate(244.677734 0)"/>
      <use xlink:href="#DejaVuSans-28" transform="translate(276.464844 0)"/>
      <use xlink:href="#DejaVuSans-6d" transform="translate(315.478516 0)"/>
      <use xlink:href="#DejaVuSans-73" transform="translate(412.890625 0)"/>
      <use xlink:href="#DejaVuSans-29" transform="translate(464.990234 0)"/>
     </g>
    </g>
   </g>
   <g id="LineCollection_1">
    <path d="M 239.4 252.115384 
L 351 252.115384 
" clip-path="url(#p2f97a52a9b)" style="fill: none; stroke: #1f77b4; stroke-width: 1.5"/>
   </g>
   <g id="LineCollection_2">
    <path d="M 239.4 66.734269 
L 351 66.734269 
" clip-path="url(#p2f97a52a9b)" style="fill: none; stroke: #1f77b4; stroke-width: 1.5"/>
   </g>
   <g id="LineCollection_3">
    <path d="M 239.4 364.619656 
L 351 364.619656 
" clip-path="url(#p2f97a52a9b)" style="fill: none; stroke: #1f77b4; stroke-width: 1.5"/>
   </g>
   <g id="LineCollection_4">
    <path d="M 295.2 364.619656 
L 295.2 66.734269 
" clip-path="url(#p2f97a52a9b)" style="fill: none; stroke: #1f77b4; stroke-width: 1.5"/>
   </g>
   <g id="patch_3">
    <path d="M 250.56 278.865795 
L 339.84 278.865795 
L 339.84 223.426846 
L 250.56 223.426846 
L 250.56 278.865795 
z
" clip-path="url(#p2f97a52a9b)" style="fill: #1f77b4; stroke: #000000; stroke-linejoin: miter"/>
   </g>
   <g id="line2d_7">
    <path d="M 295.2 278.865795 
L 295.2 361.80887 
" clip-path="url(#p2f97a52a9b)" style="fill: none; stroke: #000000; stroke-linecap: square"/>
   </g>
   <g id="line2d_8">
    <path d="M 295.2 223.426846 
L 295.2 140.773765 
" clip-path="url(#p2f97a52a9b)" style="fill: none; stroke: #000000; stroke-linecap: square"/>
   </g>
   <g id="line2d_9">
    <path d="M 272.88 361.80887 
L 317.52 361.80887 
" clip-path="url(#p2f97a52a9b)" style="fill: none; stroke: #000000; stroke-linecap: square"/>
   </g>
   <g id="line2d_10">
    <path d="M 272.88 140.773765 
L 317.52 140.773765 
" clip-path="url(#p2f97a52a9b)" style="fill: none; stroke: #000000; stroke-linecap: square"/>
   </g>
   <g id="line2d_11">
    <defs>
     <path id="m75ed6628b4" d="M 0 3 
C 0.795609 3 1.55874 2.683901 2.12132 2.12132 
C 2.683901 1.55874 3 0.795609 3 0 
C 3 -0.795609 2.683901 -1.55874 2.12132 -2.12132 
C 1.55874 -2.683901 0.795609 -3 0 -3 
C -0.795609 -3 -1.55874 -2.683901 -2.12132 -2.12132 
C -2.683901 -1.55874 -3 -0.795609 -3 0 
C -3 0.795609 -2.683901 1.55874 -2.12132 2.12132 
C -1.55874 2.683901 -0.795609 3 0 3 
z
" style="stroke: #000000"/>
    </defs>
    <g clip-path="url(#p2f97a52a9b)">
     <use xlink:href="#m75ed6628b4" x="295.2" y="363.804852" style="fill-opacity: 0; stroke: #000000"/>
     <use xlink:href="#m75ed6628b4" x="295.2" y="364.619656" style="fill-opacity: 0; stroke: #000000"/>
     <use xlink:href="#m75ed6628b4" x="295.2" y="362.437981" style="fill-opacity: 0; stroke: #000000"/>
     <use xlink:href="#m75ed6628b4" x="295.2" y="362.882218" style="fill-opacity: 0; stroke: #000000"/>
     <use xlink:href="#m75ed6628b4" x="295.2" y="134.405606" style="fill-opacity: 0; stroke: #000000"/>
     <use xlink:href="#m75ed6628b4" x="295.2" y="127.221486" style="fill-opacity: 0; stroke: #000000"/>
     <use xlink:href="#m75ed6628b4" x="295.2" y="114.1452" style="fill-opacity: 0; stroke: #000000"/>
     <use xlink:href="#m75ed6628b4" x="295.2" y="102.272132" style="fill-opacity: 0; stroke: #000000"/>
     <use xlink:href="#m75ed6628b4" x="295.2" y="120.497098" style="fill-opacity: 0; stroke: #000000"/>
     <use xlink:href="#m75ed6628b4" x="295.2" y="131.436404" style="fill-opacity: 0; stroke: #000000"/>
     <use xlink:href="#m75ed6628b4" x="295.2" y="137.720117" style="fill-opacity: 0; stroke: #000000"/>
     <use xlink:href="#m75ed6628b4" x="295.2" y="66.734269" style="fill-opacity: 0; stroke: #000000"/>
    </g>
   </g>
   <g id="line2d_12">
    <path d="M 250.56 252.908025 
L 339.84 252.908025 
" clip-path="url(#p2f97a52a9b)" style="fill: none; stroke: #ff7f0e"/>
   </g>
   <g id="patch_4">
    <path d="M 72 384.48 
L 72 51.84 
" style="fill: none; stroke: #000000; stroke-width: 0.8; stroke-linejoin: miter; stroke-linecap: square"/>
   </g>
   <g id="patch_5">
    <path d="M 518.4 384.48 
L 518.4 51.84 
" style="fill: none; stroke: #000000; stroke-width: 0.8; stroke-linejoin: miter; stroke-linecap: square"/>
   </g>
   <g id="patch_6">
    <path d="M 72 384.48 
L 518.4 384.48 
" style="fill: none; stroke: #000000; stroke-width: 0.8; stroke-linejoin: miter; stroke-linecap: square"/>
   </g>
   <g id="patch_7">
    <path d="M 72 51.84 
L 518.4 51.84 
" style="fill: none; stroke: #000000; stroke-width: 0.8; stroke-linejoin: miter; stroke-linecap: square"/>
   </g>
   <g id="text_8">
    <!-- Test Method -->
    <g transform="translate(258.975 45.84) scale(0.12 -0.12)">
     <defs>
      <path id="DejaVuSans-74" d="M 1172 4494 
L 1172 3500 
L 2356 3500 
L 2356 3053 
L 1172 3053 
L 1172 1153 
Q 1172 725 1289 603 
Q 1406 481 1766 481 
L 2356 481 
L 2356 0 
L 1766 0 
Q 1100 0 847 248 
Q 594 497 594 1153 
L 594 3053 
L 172 3053 
L 172 3500 
L 594 3500 
L 594 4494 
L 1172 4494 
z
" transform="scale(0.015625)"/>
      <path id="DejaVuSans-4d" d="M 628 4666 
L 1569 4666 
L 2759 1491 
L 3956 4666 
L 4897 4666 
L 4897 0 
L 4281 0 
L 4281 4097 
L 3078 897 
L 2444 897 
L 1241 4097 
L 1241 0 
L 628 0 
L 628 4666 
z
" transform="scale(0.015625)"/>
      <path id="DejaVuSans-68" d="M 3513 2113 
L 3513 0 
L 2938 0 
L 2938 2094 
Q 2938 2591 2744 2837 
Q 2550 3084 2163 3084 
Q 1697 3084 1428 2787 
Q 1159 2491 1159 1978 
L 1159 0 
L 581 0 
L 581 4863 
L 1159 4863 
L 1159 2956 
Q 1366 3272 1645 3428 
Q 1925 3584 2291 3584 
Q 2894 3584 3203 3211 
Q 3513 2838 3513 2113 
z
" transform="scale(0.015625)"/>
      <path id="DejaVuSans-6f" d="M 1959 3097 
Q 1497 3097 1228 2736 
Q 959 2375 959 1747 
Q 959 1119 1226 758 
Q 1494 397 1959 397 
Q 2419 397 2687 759 
Q 2956 1122 2956 1747 
Q 2956 2369 2687 2733 
Q 2419 3097 1959 3097 
z
M 1959 3584 
Q 2709 3584 3137 3096 
Q 3566 2609 3566 1747 
Q 3566 888 3137 398 
Q 2709 -91 1959 -91 
Q 1206 -91 779 398 
Q 353 888 353 1747 
Q 353 2609 779 3096 
Q 1206 3584 1959 3584 
z
" transform="scale(0.015625)"/>
      <path id="DejaVuSans-64" d="M 2906 2969 
L 2906 4863 
L 3481 4863 
L 3481 0 
L 2906 0 
L 2906 525 
Q 2725 213 2448 61 
Q 2172 -91 1784 -91 
Q 1150 -91 751 415 
Q 353 922 353 1747 
Q 353 2572 751 3078 
Q 1150 3584 1784 3584 
Q 2172 3584 2448 3432 
Q 2725 3281 2906 2969 
z
M 947 1747 
Q 947 1113 1208 752 
Q 1469 391 1925 391 
Q 2381 391 2643 752 
Q 2906 1113 2906 1747 
Q 2906 2381 2643 2742 
Q 2381 3103 1925 3103 
Q 1469 3103 1208 2742 
Q 947 2381 947 1747 
z
" transform="scale(0.015625)"/>
     </defs>
     <use xlink:href="#DejaVuSans-54"/>
     <use xlink:href="#DejaVuSans-65" transform="translate(44.083984 0)"/>
     <use xlink:href="#DejaVuSans-73" transform="translate(105.607422 0)"/>
     <use xlink:href="#DejaVuSans-74" transform="translate(157.707031 0)"/>
     <use xlink:href="#DejaVuSans-20" transform="translate(196.916016 0)"/>
     <use xlink:href="#DejaVuSans-4d" transform="translate(228.703125 0)"/>
     <use xlink:href="#DejaVuSans-65" transform="translate(314.982422 0)"/>
     <use xlink:href="#DejaVuSans-74" transform="translate(376.505859 0)"/>
     <use xlink:href="#DejaVuSans-68" transform="translate(415.714844 0)"/>
     <use xlink:href="#DejaVuSans-6f" transform="translate(479.09375 0)"/>
     <use xlink:href="#DejaVuSans-64" transform="translate(540.275391 0)"/>
    </g>
   </g>
  </g>
 </g>
 <defs>
  <clipPath id="p2f97a52a9b">
   <rect x="72" y="51.84" width="446.4" height="332.64"/>
  </clipPath>
 </defs>
</svg>
