<?xml version="1.0" encoding="utf-8" standalone="no"?>
<!DOCTYPE svg PUBLIC "-//W3C//DTD SVG 1.1//EN"
  "http://www.w3.org/Graphics/SVG/1.1/DTD/svg11.dtd">
<svg xmlns:xlink="http://www.w3.org/1999/xlink" width="576pt" height="432pt" viewBox="0 0 576 432" xmlns="http://www.w3.org/2000/svg" version="1.1">
 <metadata>
  <rdf:RDF xmlns:dc="http://purl.org/dc/elements/1.1/" xmlns:cc="http://creativecommons.org/ns#" xmlns:rdf="http://www.w3.org/1999/02/22-rdf-syntax-ns#">
   <cc:Work>
    <dc:type rdf:resource="http://purl.org/dc/dcmitype/StillImage"/>
    <dc:date>2025-09-30T20:43:16.174123</dc:date>
    <dc:format>image/svg+xml</dc:format>
    <dc:creator>
     <cc:Agent>
      <dc:title>Matplotlib v3.10.3, https://matplotlib.org/</dc:title>
     </cc:Agent>
    </dc:creator>
   </cc:Work>
  </rdf:RDF>
 </metadata>
 <defs>
  <style type="text/css">*{stroke-linejoin: round; stroke-linecap: butt}</style>
 </defs>
 <g id="figure_1">
  <g id="patch_1">
   <path d="M 0 432 
L 576 432 
L 576 0 
L 0 0 
z
" style="fill: #ffffff"/>
  </g>
  <g id="axes_1">
   <g id="patch_2">
    <path d="M 72 384.48 
L 518.4 384.48 
L 518.4 51.84 
L 72 51.84 
z
" style="fill: #ffffff"/>
   </g>
   <g id="FillBetweenPolyCollection_1">
    <path d="M 367.018203 368.25977 
L 223.381797 368.25977 
L 197.288566 365.215809 
L 183.6 362.171848 
L 187.683379 359.127887 
L 206.350693 356.083925 
L 231.011836 353.039964 
L 253.708208 349.996003 
L 270.542778 346.952042 
L 281.289104 343.90808 
L 287.436731 340.864119 
L 290.682016 337.820158 
L 292.30292 334.776197 
L 293.091352 331.732236 
L 293.489909 328.688274 
L 293.727741 325.644313 
L 293.899293 322.600352 
L 294.023945 319.556391 
L 294.111233 316.512429 
L 294.196207 313.468468 
L 294.317027 310.424507 
L 294.476615 307.380546 
L 294.644212 304.336584 
L 294.787477 301.292623 
L 294.891543 298.248662 
L 294.955771 295.204701 
L 294.985015 292.160739 
L 294.985281 289.116778 
L 294.96703 286.072817 
L 294.951107 283.028856 
L 294.961968 279.984895 
L 295.008026 276.940933 
L 295.073103 273.896972 
L 295.131272 270.853011 
L 295.16592 267.80905 
L 295.172387 264.765088 
L 295.148454 261.721127 
L 295.08998 258.677166 
L 294.999227 255.633205 
L 294.895697 252.589243 
L 294.812089 249.545282 
L 294.772937 246.501321 
L 294.776422 243.45736 
L 294.798602 240.413398 
L 294.814306 237.369437 
L 294.814854 234.325476 
L 294.811593 231.281515 
L 294.826115 228.237554 
L 294.87366 225.193592 
L 294.950783 222.149631 
L 295.037304 219.10567 
L 295.110627 216.061709 
L 295.159165 213.017747 
L 295.184593 209.973786 
L 295.19505 206.929825 
L 295.197781 203.885864 
L 295.195819 200.841902 
L 295.187942 197.797941 
L 295.170621 194.75398 
L 295.142264 191.710019 
L 295.107936 188.666058 
L 295.078546 185.622096 
L 295.06216 182.578135 
L 295.057059 179.534174 
L 295.057187 176.490213 
L 295.062837 173.446251 
L 295.080153 170.40229 
L 295.110216 167.358329 
L 295.144455 164.314368 
L 295.172144 161.270406 
L 295.188758 158.226445 
L 295.19628 155.182484 
L 295.198501 152.138523 
L 295.197083 149.094561 
L 295.189353 146.0506 
L 295.166594 143.006639 
L 295.114852 139.962678 
L 295.023268 136.918717 
L 294.899374 133.874755 
L 294.777651 130.830794 
L 294.705961 127.786833 
L 294.715543 124.742872 
L 294.800194 121.69891 
L 294.921836 118.654949 
L 295.034689 115.610988 
L 295.106927 112.567027 
L 295.12631 109.523065 
L 295.094664 106.479104 
L 295.025084 103.435143 
L 294.943918 100.391182 
L 294.884737 97.34722 
L 294.869737 94.303259 
L 294.895869 91.259298 
L 294.94266 88.215337 
L 294.992189 85.171376 
L 295.037498 82.127414 
L 295.074562 79.083453 
L 295.095806 76.039492 
L 295.097057 72.995531 
L 295.087073 69.951569 
L 295.0837 66.907608 
L 295.3163 66.907608 
L 295.3163 66.907608 
L 295.312927 69.951569 
L 295.302943 72.995531 
L 295.304194 76.039492 
L 295.325438 79.083453 
L 295.362502 82.127414 
L 295.407811 85.171376 
L 295.45734 88.215337 
L 295.504131 91.259298 
L 295.530263 94.303259 
L 295.515263 97.34722 
L 295.456082 100.391182 
L 295.374916 103.435143 
L 295.305336 106.479104 
L 295.27369 109.523065 
L 295.293073 112.567027 
L 295.365311 115.610988 
L 295.478164 118.654949 
L 295.599806 121.69891 
L 295.684457 124.742872 
L 295.694039 127.786833 
L 295.622349 130.830794 
L 295.500626 133.874755 
L 295.376732 136.918717 
L 295.285148 139.962678 
L 295.233406 143.006639 
L 295.210647 146.0506 
L 295.202917 149.094561 
L 295.201499 152.138523 
L 295.20372 155.182484 
L 295.211242 158.226445 
L 295.227856 161.270406 
L 295.255545 164.314368 
L 295.289784 167.358329 
L 295.319847 170.40229 
L 295.337163 173.446251 
L 295.342813 176.490213 
L 295.342941 179.534174 
L 295.33784 182.578135 
L 295.321454 185.622096 
L 295.292064 188.666058 
L 295.257736 191.710019 
L 295.229379 194.75398 
L 295.212058 197.797941 
L 295.204181 200.841902 
L 295.202219 203.885864 
L 295.20495 206.929825 
L 295.215407 209.973786 
L 295.240835 213.017747 
L 295.289373 216.061709 
L 295.362696 219.10567 
L 295.449217 222.149631 
L 295.52634 225.193592 
L 295.573885 228.237554 
L 295.588407 231.281515 
L 295.585146 234.325476 
L 295.585694 237.369437 
L 295.601398 240.413398 
L 295.623578 243.45736 
L 295.627063 246.501321 
L 295.587911 249.545282 
L 295.504303 252.589243 
L 295.400773 255.633205 
L 295.31002 258.677166 
L 295.251546 261.721127 
L 295.227613 264.765088 
L 295.23408 267.80905 
L 295.268728 270.853011 
L 295.326897 273.896972 
L 295.391974 276.940933 
L 295.438032 279.984895 
L 295.448893 283.028856 
L 295.43297 286.072817 
L 295.414719 289.116778 
L 295.414985 292.160739 
L 295.444229 295.204701 
L 295.508457 298.248662 
L 295.612523 301.292623 
L 295.755788 304.336584 
L 295.923385 307.380546 
L 296.082973 310.424507 
L 296.203793 313.468468 
L 296.288767 316.512429 
L 296.376055 319.556391 
L 296.500707 322.600352 
L 296.672259 325.644313 
L 296.910091 328.688274 
L 297.308648 331.732236 
L 298.09708 334.776197 
L 299.717984 337.820158 
L 302.963269 340.864119 
L 309.110896 343.90808 
L 319.857222 346.952042 
L 336.691792 349.996003 
L 359.388164 353.039964 
L 384.049307 356.083925 
L 402.716621 359.127887 
L 406.8 362.171848 
L 393.111434 365.215809 
L 367.018203 368.25977 
z
" clip-path="url(#pd95c4ed400)" style="fill: #1f77b4; fill-opacity: 0.3"/>
   </g>
   <g id="matplotlib.axis_1">
    <g id="xtick_1">
     <g id="line2d_1">
      <defs>
       <path id="mc1dadfe695" d="M 0 0 
L 0 3.5 
" style="stroke: #000000; stroke-width: 0.8"/>
      </defs>
      <g>
       <use xlink:href="#mc1dadfe695" x="295.2" y="384.48" style="stroke: #000000; stroke-width: 0.8"/>
      </g>
     </g>
     <g id="text_1">
      <!-- 1 -->
      <g transform="translate(292.01875 399.078438) scale(0.1 -0.1)">
       <defs>
        <path id="DejaVuSans-31" d="M 794 531 
L 1825 531 
L 1825 4091 
L 703 3866 
L 703 4441 
L 1819 4666 
L 2450 4666 
L 2450 531 
L 3481 531 
L 3481 0 
L 794 0 
L 794 531 
z
" transform="scale(0.015625)"/>
       </defs>
       <use xlink:href="#DejaVuSans-31"/>
      </g>
     </g>
    </g>
   </g>
   <g id="matplotlib.axis_2">
    <g id="ytick_1">
     <g id="line2d_2">
      <defs>
       <path id="maa2dee1d97" d="M 0 0 
L -3.5 0 
" style="stroke: #000000; stroke-width: 0.8"/>
      </defs>
      <g>
       <use xlink:href="#maa2dee1d97" x="72" y="384.48" style="stroke: #000000; stroke-width: 0.8"/>
      </g>
     </g>
     <g id="text_2">
      <!-- 0 -->
      <g transform="translate(58.6375 388.279219) scale(0.1 -0.1)">
       <defs>
        <path id="DejaVuSans-30" d="M 2034 4250 
Q 1547 4250 1301 3770 
Q 1056 3291 1056 2328 
Q 1056 1369 1301 889 
Q 1547 409 2034 409 
Q 2525 409 2770 889 
Q 3016 1369 3016 2328 
Q 3016 3291 2770 3770 
Q 2525 4250 2034 4250 
z
M 2034 4750 
Q 2819 4750 3233 4129 
Q 3647 3509 3647 2328 
Q 3647 1150 3233 529 
Q 2819 -91 2034 -91 
Q 1250 -91 836 529 
Q 422 1150 422 2328 
Q 422 3509 836 4129 
Q 1250 4750 2034 4750 
z
" transform="scale(0.015625)"/>
       </defs>
       <use xlink:href="#DejaVuSans-30"/>
      </g>
     </g>
    </g>
    <g id="ytick_2">
     <g id="line2d_3">
      <g>
       <use xlink:href="#maa2dee1d97" x="72" y="313.410958" style="stroke: #000000; stroke-width: 0.8"/>
      </g>
     </g>
     <g id="text_3">
      <!-- 10 -->
      <g transform="translate(52.275 317.210177) scale(0.1 -0.1)">
       <use xlink:href="#DejaVuSans-31"/>
       <use xlink:href="#DejaVuSans-30" transform="translate(63.623047 0)"/>
      </g>
     </g>
    </g>
    <g id="ytick_3">
     <g id="line2d_4">
      <g>
       <use xlink:href="#maa2dee1d97" x="72" y="242.341916" style="stroke: #000000; stroke-width: 0.8"/>
      </g>
     </g>
     <g id="text_4">
      <!-- 20 -->
      <g transform="translate(52.275 246.141134) scale(0.1 -0.1)">
       <defs>
        <path id="DejaVuSans-32" d="M 1228 531 
L 3431 531 
L 3431 0 
L 469 0 
L 469 531 
Q 828 903 1448 1529 
Q 2069 2156 2228 2338 
Q 2531 2678 2651 2914 
Q 2772 3150 2772 3378 
Q 2772 3750 2511 3984 
Q 2250 4219 1831 4219 
Q 1534 4219 1204 4116 
Q 875 4013 500 3803 
L 500 4441 
Q 881 4594 1212 4672 
Q 1544 4750 1819 4750 
Q 2544 4750 2975 4387 
Q 3406 4025 3406 3419 
Q 3406 3131 3298 2873 
Q 3191 2616 2906 2266 
Q 2828 2175 2409 1742 
Q 1991 1309 1228 531 
z
" transform="scale(0.015625)"/>
       </defs>
       <use xlink:href="#DejaVuSans-32"/>
       <use xlink:href="#DejaVuSans-30" transform="translate(63.623047 0)"/>
      </g>
     </g>
    </g>
    <g id="ytick_4">
     <g id="line2d_5">
      <g>
       <use xlink:href="#maa2dee1d97" x="72" y="171.272873" style="stroke: #000000; stroke-width: 0.8"/>
      </g>
     </g>
     <g id="text_5">
      <!-- 30 -->
      <g transform="translate(52.275 175.072092) scale(0.1 -0.1)">
       <defs>
        <path id="DejaVuSans-33" d="M 2597 2516 
Q 3050 2419 3304 2112 
Q 3559 1806 3559 1356 
Q 3559 666 3084 287 
Q 2609 -91 1734 -91 
Q 1441 -91 1130 -33 
Q 819 25 488 141 
L 488 750 
Q 750 597 1062 519 
Q 1375 441 1716 441 
Q 2309 441 2620 675 
Q 2931 909 2931 1356 
Q 2931 1769 2642 2001 
Q 2353 2234 1838 2234 
L 1294 2234 
L 1294 2753 
L 1863 2753 
Q 2328 2753 2575 2939 
Q 2822 3125 2822 3475 
Q 2822 3834 2567 4026 
Q 2313 4219 1838 4219 
Q 1578 4219 1281 4162 
Q 984 4106 628 3988 
L 628 4550 
Q 988 4650 1302 4700 
Q 1616 4750 1894 4750 
Q 2613 4750 3031 4423 
Q 3450 4097 3450 3541 
Q 3450 3153 3228 2886 
Q 3006 2619 2597 2516 
z
" transform="scale(0.015625)"/>
       </defs>
       <use xlink:href="#DejaVuSans-33"/>
       <use xlink:href="#DejaVuSans-30" transform="translate(63.623047 0)"/>
      </g>
     </g>
    </g>
    <g id="ytick_5">
     <g id="line2d_6">
      <g>
       <use xlink:href="#maa2dee1d97" x="72" y="100.203831" style="stroke: #000000; stroke-width: 0.8"/>
      </g>
     </g>
     <g id="text_6">
      <!-- 40 -->
      <g transform="translate(52.275 104.00305) scale(0.1 -0.1)">
       <defs>
        <path id="DejaVuSans-34" d="M 2419 4116 
L 825 1625 
L 2419 1625 
L 2419 4116 
z
M 2253 4666 
L 3047 4666 
L 3047 1625 
L 3713 1625 
L 3713 1100 
L 3047 1100 
L 3047 0 
L 2419 0 
L 2419 1100 
L 313 1100 
L 313 1709 
L 2253 4666 
z
" transform="scale(0.015625)"/>
       </defs>
       <use xlink:href="#DejaVuSans-34"/>
       <use xlink:href="#DejaVuSans-30" transform="translate(63.623047 0)"/>
      </g>
     </g>
    </g>
    <g id="text_7">
     <!-- Time (ms) -->
     <g transform="translate(46.195312 243.359219) rotate(-90) scale(0.1 -0.1)">
      <defs>
       <path id="DejaVuSans-54" d="M -19 4666 
L 3928 4666 
L 3928 4134 
L 2272 4134 
L 2272 0 
L 1638 0 
L 1638 4134 
L -19 4134 
L -19 4666 
z
" transform="scale(0.015625)"/>
       <path id="DejaVuSans-69" d="M 603 3500 
L 1178 3500 
L 1178 0 
L 603 0 
L 603 3500 
z
M 603 4863 
L 1178 4863 
L 1178 4134 
L 603 4134 
L 603 4863 
z
" transform="scale(0.015625)"/>
       <path id="DejaVuSans-6d" d="M 3328 2828 
Q 3544 3216 3844 3400 
Q 4144 3584 4550 3584 
Q 5097 3584 5394 3201 
Q 5691 2819 5691 2113 
L 5691 0 
L 5113 0 
L 5113 2094 
Q 5113 2597 4934 2840 
Q 4756 3084 4391 3084 
Q 3944 3084 3684 2787 
Q 3425 2491 3425 1978 
L 3425 0 
L 2847 0 
L 2847 2094 
Q 2847 2600 2669 2842 
Q 2491 3084 2119 3084 
Q 1678 3084 1418 2786 
Q 1159 2488 1159 1978 
L 1159 0 
L 581 0 
L 581 3500 
L 1159 3500 
L 1159 2956 
Q 1356 3278 1631 3431 
Q 1906 3584 2284 3584 
Q 2666 3584 2933 3390 
Q 3200 3197 3328 2828 
z
" transform="scale(0.015625)"/>
       <path id="DejaVuSans-65" d="M 3597 1894 
L 3597 1613 
L 953 1613 
Q 991 1019 1311 708 
Q 1631 397 2203 397 
Q 2534 397 2845 478 
Q 3156 559 3463 722 
L 3463 178 
Q 3153 47 2828 -22 
Q 2503 -91 2169 -91 
Q 1331 -91 842 396 
Q 353 884 353 1716 
Q 353 2575 817 3079 
Q 1281 3584 2069 3584 
Q 2775 3584 3186 3129 
Q 3597 2675 3597 1894 
z
M 3022 2063 
Q 3016 2534 2758 2815 
Q 2500 3097 2075 3097 
Q 1594 3097 1305 2825 
Q 1016 2553 972 2059 
L 3022 2063 
z
" transform="scale(0.015625)"/>
       <path id="DejaVuSans-20" transform="scale(0.015625)"/>
       <path id="DejaVuSans-28" d="M 1984 4856 
Q 1566 4138 1362 3434 
Q 1159 2731 1159 2009 
Q 1159 1288 1364 580 
Q 1569 -128 1984 -844 
L 1484 -844 
Q 1016 -109 783 600 
Q 550 1309 550 2009 
Q 550 2706 781 3412 
Q 1013 4119 1484 4856 
L 1984 4856 
z
" transform="scale(0.015625)"/>
       <path id="DejaVuSans-73" d="M 2834 3397 
L 2834 2853 
Q 2591 2978 2328 3040 
Q 2066 3103 1784 3103 
Q 1356 3103 1142 2972 
Q 928 2841 928 2578 
Q 928 2378 1081 2264 
Q 1234 2150 1697 2047 
L 1894 2003 
Q 2506 1872 2764 1633 
Q 3022 1394 3022 966 
Q 3022 478 2636 193 
Q 2250 -91 1575 -91 
Q 1294 -91 989 -36 
Q 684 19 347 128 
L 347 722 
Q 666 556 975 473 
Q 1284 391 1588 391 
Q 1994 391 2212 530 
Q 2431 669 2431 922 
Q 2431 1156 2273 1281 
Q 2116 1406 1581 1522 
L 1381 1569 
Q 847 1681 609 1914 
Q 372 2147 372 2553 
Q 372 3047 722 3315 
Q 1072 3584 1716 3584 
Q 2034 3584 2315 3537 
Q 2597 3491 2834 3397 
z
" transform="scale(0.015625)"/>
       <path id="DejaVuSans-29" d="M 513 4856 
L 1013 4856 
Q 1481 4119 1714 3412 
Q 1947 2706 1947 2009 
Q 1947 1309 1714 600 
Q 1481 -109 1013 -844 
L 513 -844 
Q 928 -128 1133 580 
Q 1338 1288 1338 2009 
Q 1338 2731 1133 3434 
Q 928 4138 513 4856 
z
" transform="scale(0.015625)"/>
      </defs>
      <use xlink:href="#DejaVuSans-54"/>
      <use xlink:href="#DejaVuSans-69" transform="translate(57.958984 0)"/>
      <use xlink:href="#DejaVuSans-6d" transform="translate(85.742188 0)"/>
      <use xlink:href="#DejaVuSans-65" transform="translate(183.154297 0)"/>
      <use xlink:href="#DejaVuSans-20" transform="translate(244.677734 0)"/>
      <use xlink:href="#DejaVuSans-28" transform="translate(276.464844 0)"/>
      <use xlink:href="#DejaVuSans-6d" transform="translate(315.478516 0)"/>
      <use xlink:href="#DejaVuSans-73" transform="translate(412.890625 0)"/>
      <use xlink:href="#DejaVuSans-29" transform="translate(464.990234 0)"/>
     </g>
    </g>
   </g>
   <g id="LineCollection_1">
    <path d="M 239.4 356.34036 
L 351 356.34036 
" clip-path="url(#pd95c4ed400)" style="fill: none; stroke: #1f77b4; stroke-width: 1.5"/>
   </g>
   <g id="LineCollection_2">
    <path d="M 239.4 66.907608 
L 351 66.907608 
" clip-path="url(#pd95c4ed400)" style="fill: none; stroke: #1f77b4; stroke-width: 1.5"/>
   </g>
   <g id="LineCollection_3">
    <path d="M 239.4 368.25977 
L 351 368.25977 
" clip-path="url(#pd95c4ed400)" style="fill: none; stroke: #1f77b4; stroke-width: 1.5"/>
   </g>
   <g id="LineCollection_4">
    <path d="M 295.2 368.25977 
L 295.2 66.907608 
" clip-path="url(#pd95c4ed400)" style="fill: none; stroke: #1f77b4; stroke-width: 1.5"/>
   </g>
   <g id="patch_3">
    <path d="M 250.56 363.639615 
L 339.84 363.639615 
L 339.84 357.573259 
L 250.56 357.573259 
L 250.56 363.639615 
z
" clip-path="url(#pd95c4ed400)" style="fill: #1f77b4; stroke: #000000; stroke-linejoin: miter"/>
   </g>
   <g id="line2d_7">
    <path d="M 295.2 363.639615 
L 295.2 368.25977 
" clip-path="url(#pd95c4ed400)" style="fill: none; stroke: #000000; stroke-linecap: square"/>
   </g>
   <g id="line2d_8">
    <path d="M 295.2 357.573259 
L 295.2 348.79499 
" clip-path="url(#pd95c4ed400)" style="fill: none; stroke: #000000; stroke-linecap: square"/>
   </g>
   <g id="line2d_9">
    <path d="M 272.88 368.25977 
L 317.52 368.25977 
" clip-path="url(#pd95c4ed400)" style="fill: none; stroke: #000000; stroke-linecap: square"/>
   </g>
   <g id="line2d_10">
    <path d="M 272.88 348.79499 
L 317.52 348.79499 
" clip-path="url(#pd95c4ed400)" style="fill: none; stroke: #000000; stroke-linecap: square"/>
   </g>
   <g id="line2d_11">
    <defs>
     <path id="m6f03b45401" d="M 0 3 
C 0.795609 3 1.55874 2.683901 2.12132 2.12132 
C 2.683901 1.55874 3 0.795609 3 0 
C 3 -0.795609 2.683901 -1.55874 2.12132 -2.12132 
C 1.55874 -2.683901 0.795609 -3 0 -3 
C -0.795609 -3 -1.55874 -2.683901 -2.12132 -2.12132 
C -2.683901 -1.55874 -3 -0.795609 -3 0 
C -3 0.795609 -2.683901 1.55874 -2.12132 2.12132 
C -1.55874 2.683901 -0.795609 3 0 3 
z
" style="stroke: #000000"/>
    </defs>
    <g clip-path="url(#pd95c4ed400)">
     <use xlink:href="#m6f03b45401" x="295.2" y="92.212828" style="fill-opacity: 0; stroke: #000000"/>
     <use xlink:href="#m6f03b45401" x="295.2" y="249.216125" style="fill-opacity: 0; stroke: #000000"/>
     <use xlink:href="#m6f03b45401" x="295.2" y="343.977135" style="fill-opacity: 0; stroke: #000000"/>
     <use xlink:href="#m6f03b45401" x="295.2" y="341.395935" style="fill-opacity: 0; stroke: #000000"/>
     <use xlink:href="#m6f03b45401" x="295.2" y="344.4203" style="fill-opacity: 0; stroke: #000000"/>
     <use xlink:href="#m6f03b45401" x="295.2" y="346.723576" style="fill-opacity: 0; stroke: #000000"/>
     <use xlink:href="#m6f03b45401" x="295.2" y="337.528166" style="fill-opacity: 0; stroke: #000000"/>
     <use xlink:href="#m6f03b45401" x="295.2" y="345.021196" style="fill-opacity: 0; stroke: #000000"/>
     <use xlink:href="#m6f03b45401" x="295.2" y="317.925505" style="fill-opacity: 0; stroke: #000000"/>
     <use xlink:href="#m6f03b45401" x="295.2" y="122.241204" style="fill-opacity: 0; stroke: #000000"/>
     <use xlink:href="#m6f03b45401" x="295.2" y="246.272879" style="fill-opacity: 0; stroke: #000000"/>
     <use xlink:href="#m6f03b45401" x="295.2" y="344.635376" style="fill-opacity: 0; stroke: #000000"/>
     <use xlink:href="#m6f03b45401" x="295.2" y="329.249333" style="fill-opacity: 0; stroke: #000000"/>
     <use xlink:href="#m6f03b45401" x="295.2" y="129.467227" style="fill-opacity: 0; stroke: #000000"/>
     <use xlink:href="#m6f03b45401" x="295.2" y="250.546609" style="fill-opacity: 0; stroke: #000000"/>
     <use xlink:href="#m6f03b45401" x="295.2" y="336.643008" style="fill-opacity: 0; stroke: #000000"/>
     <use xlink:href="#m6f03b45401" x="295.2" y="303.215578" style="fill-opacity: 0; stroke: #000000"/>
     <use xlink:href="#m6f03b45401" x="295.2" y="344.788061" style="fill-opacity: 0; stroke: #000000"/>
     <use xlink:href="#m6f03b45401" x="295.2" y="346.990632" style="fill-opacity: 0; stroke: #000000"/>
     <use xlink:href="#m6f03b45401" x="295.2" y="346.161946" style="fill-opacity: 0; stroke: #000000"/>
     <use xlink:href="#m6f03b45401" x="295.2" y="333.621288" style="fill-opacity: 0; stroke: #000000"/>
     <use xlink:href="#m6f03b45401" x="295.2" y="98.271506" style="fill-opacity: 0; stroke: #000000"/>
     <use xlink:href="#m6f03b45401" x="295.2" y="223.554992" style="fill-opacity: 0; stroke: #000000"/>
     <use xlink:href="#m6f03b45401" x="295.2" y="345.748999" style="fill-opacity: 0; stroke: #000000"/>
     <use xlink:href="#m6f03b45401" x="295.2" y="338.824267" style="fill-opacity: 0; stroke: #000000"/>
     <use xlink:href="#m6f03b45401" x="295.2" y="328.170832" style="fill-opacity: 0; stroke: #000000"/>
     <use xlink:href="#m6f03b45401" x="295.2" y="340.018674" style="fill-opacity: 0; stroke: #000000"/>
     <use xlink:href="#m6f03b45401" x="295.2" y="341.526638" style="fill-opacity: 0; stroke: #000000"/>
     <use xlink:href="#m6f03b45401" x="295.2" y="344.101441" style="fill-opacity: 0; stroke: #000000"/>
     <use xlink:href="#m6f03b45401" x="295.2" y="346.931865" style="fill-opacity: 0; stroke: #000000"/>
     <use xlink:href="#m6f03b45401" x="295.2" y="340.644949" style="fill-opacity: 0; stroke: #000000"/>
     <use xlink:href="#m6f03b45401" x="295.2" y="324.807135" style="fill-opacity: 0; stroke: #000000"/>
     <use xlink:href="#m6f03b45401" x="295.2" y="335.872954" style="fill-opacity: 0; stroke: #000000"/>
     <use xlink:href="#m6f03b45401" x="295.2" y="83.457356" style="fill-opacity: 0; stroke: #000000"/>
     <use xlink:href="#m6f03b45401" x="295.2" y="184.200133" style="fill-opacity: 0; stroke: #000000"/>
     <use xlink:href="#m6f03b45401" x="295.2" y="303.279284" style="fill-opacity: 0; stroke: #000000"/>
     <use xlink:href="#m6f03b45401" x="295.2" y="322.804629" style="fill-opacity: 0; stroke: #000000"/>
     <use xlink:href="#m6f03b45401" x="295.2" y="311.997053" style="fill-opacity: 0; stroke: #000000"/>
     <use xlink:href="#m6f03b45401" x="295.2" y="127.573735" style="fill-opacity: 0; stroke: #000000"/>
     <use xlink:href="#m6f03b45401" x="295.2" y="236.004042" style="fill-opacity: 0; stroke: #000000"/>
     <use xlink:href="#m6f03b45401" x="295.2" y="346.613426" style="fill-opacity: 0; stroke: #000000"/>
     <use xlink:href="#m6f03b45401" x="295.2" y="280.54886" style="fill-opacity: 0; stroke: #000000"/>
     <use xlink:href="#m6f03b45401" x="295.2" y="346.830542" style="fill-opacity: 0; stroke: #000000"/>
     <use xlink:href="#m6f03b45401" x="295.2" y="129.70911" style="fill-opacity: 0; stroke: #000000"/>
     <use xlink:href="#m6f03b45401" x="295.2" y="241.638908" style="fill-opacity: 0; stroke: #000000"/>
     <use xlink:href="#m6f03b45401" x="295.2" y="310.744362" style="fill-opacity: 0; stroke: #000000"/>
     <use xlink:href="#m6f03b45401" x="295.2" y="345.914363" style="fill-opacity: 0; stroke: #000000"/>
     <use xlink:href="#m6f03b45401" x="295.2" y="348.124255" style="fill-opacity: 0; stroke: #000000"/>
     <use xlink:href="#m6f03b45401" x="295.2" y="345.10608" style="fill-opacity: 0; stroke: #000000"/>
     <use xlink:href="#m6f03b45401" x="295.2" y="339.750538" style="fill-opacity: 0; stroke: #000000"/>
     <use xlink:href="#m6f03b45401" x="295.2" y="330.059769" style="fill-opacity: 0; stroke: #000000"/>
     <use xlink:href="#m6f03b45401" x="295.2" y="327.89033" style="fill-opacity: 0; stroke: #000000"/>
     <use xlink:href="#m6f03b45401" x="295.2" y="345.028537" style="fill-opacity: 0; stroke: #000000"/>
     <use xlink:href="#m6f03b45401" x="295.2" y="66.907608" style="fill-opacity: 0; stroke: #000000"/>
     <use xlink:href="#m6f03b45401" x="295.2" y="227.65827" style="fill-opacity: 0; stroke: #000000"/>
     <use xlink:href="#m6f03b45401" x="295.2" y="322.007462" style="fill-opacity: 0; stroke: #000000"/>
     <use xlink:href="#m6f03b45401" x="295.2" y="312.70348" style="fill-opacity: 0; stroke: #000000"/>
     <use xlink:href="#m6f03b45401" x="295.2" y="312.716869" style="fill-opacity: 0; stroke: #000000"/>
     <use xlink:href="#m6f03b45401" x="295.2" y="338.075568" style="fill-opacity: 0; stroke: #000000"/>
     <use xlink:href="#m6f03b45401" x="295.2" y="281.140695" style="fill-opacity: 0; stroke: #000000"/>
     <use xlink:href="#m6f03b45401" x="295.2" y="325.652927" style="fill-opacity: 0; stroke: #000000"/>
     <use xlink:href="#m6f03b45401" x="295.2" y="292.755245" style="fill-opacity: 0; stroke: #000000"/>
     <use xlink:href="#m6f03b45401" x="295.2" y="339.417196" style="fill-opacity: 0; stroke: #000000"/>
     <use xlink:href="#m6f03b45401" x="295.2" y="323.629258" style="fill-opacity: 0; stroke: #000000"/>
     <use xlink:href="#m6f03b45401" x="295.2" y="330.903366" style="fill-opacity: 0; stroke: #000000"/>
     <use xlink:href="#m6f03b45401" x="295.2" y="314.037808" style="fill-opacity: 0; stroke: #000000"/>
     <use xlink:href="#m6f03b45401" x="295.2" y="348.13166" style="fill-opacity: 0; stroke: #000000"/>
     <use xlink:href="#m6f03b45401" x="295.2" y="96.78676" style="fill-opacity: 0; stroke: #000000"/>
     <use xlink:href="#m6f03b45401" x="295.2" y="172.028593" style="fill-opacity: 0; stroke: #000000"/>
     <use xlink:href="#m6f03b45401" x="295.2" y="345.901187" style="fill-opacity: 0; stroke: #000000"/>
     <use xlink:href="#m6f03b45401" x="295.2" y="313.839639" style="fill-opacity: 0; stroke: #000000"/>
     <use xlink:href="#m6f03b45401" x="295.2" y="338.539294" style="fill-opacity: 0; stroke: #000000"/>
     <use xlink:href="#m6f03b45401" x="295.2" y="342.86899" style="fill-opacity: 0; stroke: #000000"/>
     <use xlink:href="#m6f03b45401" x="295.2" y="123.408136" style="fill-opacity: 0; stroke: #000000"/>
     <use xlink:href="#m6f03b45401" x="295.2" y="230.349135" style="fill-opacity: 0; stroke: #000000"/>
     <use xlink:href="#m6f03b45401" x="295.2" y="345.996433" style="fill-opacity: 0; stroke: #000000"/>
     <use xlink:href="#m6f03b45401" x="295.2" y="331.731008" style="fill-opacity: 0; stroke: #000000"/>
     <use xlink:href="#m6f03b45401" x="295.2" y="345.101731" style="fill-opacity: 0; stroke: #000000"/>
    </g>
   </g>
   <g id="line2d_12">
    <path d="M 250.56 361.27713 
L 339.84 361.27713 
" clip-path="url(#pd95c4ed400)" style="fill: none; stroke: #ff7f0e"/>
   </g>
   <g id="patch_4">
    <path d="M 72 384.48 
L 72 51.84 
" style="fill: none; stroke: #000000; stroke-width: 0.8; stroke-linejoin: miter; stroke-linecap: square"/>
   </g>
   <g id="patch_5">
    <path d="M 518.4 384.48 
L 518.4 51.84 
" style="fill: none; stroke: #000000; stroke-width: 0.8; stroke-linejoin: miter; stroke-linecap: square"/>
   </g>
   <g id="patch_6">
    <path d="M 72 384.48 
L 518.4 384.48 
" style="fill: none; stroke: #000000; stroke-width: 0.8; stroke-linejoin: miter; stroke-linecap: square"/>
   </g>
   <g id="patch_7">
    <path d="M 72 51.84 
L 518.4 51.84 
" style="fill: none; stroke: #000000; stroke-width: 0.8; stroke-linejoin: miter; stroke-linecap: square"/>
   </g>
   <g id="text_8">
    <!-- Register Faultload -->
    <g transform="translate(241.364062 45.84) scale(0.12 -0.12)">
     <defs>
      <path id="DejaVuSans-52" d="M 2841 2188 
Q 3044 2119 3236 1894 
Q 3428 1669 3622 1275 
L 4263 0 
L 3584 0 
L 2988 1197 
Q 2756 1666 2539 1819 
Q 2322 1972 1947 1972 
L 1259 1972 
L 1259 0 
L 628 0 
L 628 4666 
L 2053 4666 
Q 2853 4666 3247 4331 
Q 3641 3997 3641 3322 
Q 3641 2881 3436 2590 
Q 3231 2300 2841 2188 
z
M 1259 4147 
L 1259 2491 
L 2053 2491 
Q 2509 2491 2742 2702 
Q 2975 2913 2975 3322 
Q 2975 3731 2742 3939 
Q 2509 4147 2053 4147 
L 1259 4147 
z
" transform="scale(0.015625)"/>
      <path id="DejaVuSans-67" d="M 2906 1791 
Q 2906 2416 2648 2759 
Q 2391 3103 1925 3103 
Q 1463 3103 1205 2759 
Q 947 2416 947 1791 
Q 947 1169 1205 825 
Q 1463 481 1925 481 
Q 2391 481 2648 825 
Q 2906 1169 2906 1791 
z
M 3481 434 
Q 3481 -459 3084 -895 
Q 2688 -1331 1869 -1331 
Q 1566 -1331 1297 -1286 
Q 1028 -1241 775 -1147 
L 775 -588 
Q 1028 -725 1275 -790 
Q 1522 -856 1778 -856 
Q 2344 -856 2625 -561 
Q 2906 -266 2906 331 
L 2906 616 
Q 2728 306 2450 153 
Q 2172 0 1784 0 
Q 1141 0 747 490 
Q 353 981 353 1791 
Q 353 2603 747 3093 
Q 1141 3584 1784 3584 
Q 2172 3584 2450 3431 
Q 2728 3278 2906 2969 
L 2906 3500 
L 3481 3500 
L 3481 434 
z
" transform="scale(0.015625)"/>
      <path id="DejaVuSans-74" d="M 1172 4494 
L 1172 3500 
L 2356 3500 
L 2356 3053 
L 1172 3053 
L 1172 1153 
Q 1172 725 1289 603 
Q 1406 481 1766 481 
L 2356 481 
L 2356 0 
L 1766 0 
Q 1100 0 847 248 
Q 594 497 594 1153 
L 594 3053 
L 172 3053 
L 172 3500 
L 594 3500 
L 594 4494 
L 1172 4494 
z
" transform="scale(0.015625)"/>
      <path id="DejaVuSans-72" d="M 2631 2963 
Q 2534 3019 2420 3045 
Q 2306 3072 2169 3072 
Q 1681 3072 1420 2755 
Q 1159 2438 1159 1844 
L 1159 0 
L 581 0 
L 581 3500 
L 1159 3500 
L 1159 2956 
Q 1341 3275 1631 3429 
Q 1922 3584 2338 3584 
Q 2397 3584 2469 3576 
Q 2541 3569 2628 3553 
L 2631 2963 
z
" transform="scale(0.015625)"/>
      <path id="DejaVuSans-46" d="M 628 4666 
L 3309 4666 
L 3309 4134 
L 1259 4134 
L 1259 2759 
L 3109 2759 
L 3109 2228 
L 1259 2228 
L 1259 0 
L 628 0 
L 628 4666 
z
" transform="scale(0.015625)"/>
      <path id="DejaVuSans-61" d="M 2194 1759 
Q 1497 1759 1228 1600 
Q 959 1441 959 1056 
Q 959 750 1161 570 
Q 1363 391 1709 391 
Q 2188 391 2477 730 
Q 2766 1069 2766 1631 
L 2766 1759 
L 2194 1759 
z
M 3341 1997 
L 3341 0 
L 2766 0 
L 2766 531 
Q 2569 213 2275 61 
Q 1981 -91 1556 -91 
Q 1019 -91 701 211 
Q 384 513 384 1019 
Q 384 1609 779 1909 
Q 1175 2209 1959 2209 
L 2766 2209 
L 2766 2266 
Q 2766 2663 2505 2880 
Q 2244 3097 1772 3097 
Q 1472 3097 1187 3025 
Q 903 2953 641 2809 
L 641 3341 
Q 956 3463 1253 3523 
Q 1550 3584 1831 3584 
Q 2591 3584 2966 3190 
Q 3341 2797 3341 1997 
z
" transform="scale(0.015625)"/>
      <path id="DejaVuSans-75" d="M 544 1381 
L 544 3500 
L 1119 3500 
L 1119 1403 
Q 1119 906 1312 657 
Q 1506 409 1894 409 
Q 2359 409 2629 706 
Q 2900 1003 2900 1516 
L 2900 3500 
L 3475 3500 
L 3475 0 
L 2900 0 
L 2900 538 
Q 2691 219 2414 64 
Q 2138 -91 1772 -91 
Q 1169 -91 856 284 
Q 544 659 544 1381 
z
M 1991 3584 
L 1991 3584 
z
" transform="scale(0.015625)"/>
      <path id="DejaVuSans-6c" d="M 603 4863 
L 1178 4863 
L 1178 0 
L 603 0 
L 603 4863 
z
" transform="scale(0.015625)"/>
      <path id="DejaVuSans-6f" d="M 1959 3097 
Q 1497 3097 1228 2736 
Q 959 2375 959 1747 
Q 959 1119 1226 758 
Q 1494 397 1959 397 
Q 2419 397 2687 759 
Q 2956 1122 2956 1747 
Q 2956 2369 2687 2733 
Q 2419 3097 1959 3097 
z
M 1959 3584 
Q 2709 3584 3137 3096 
Q 3566 2609 3566 1747 
Q 3566 888 3137 398 
Q 2709 -91 1959 -91 
Q 1206 -91 779 398 
Q 353 888 353 1747 
Q 353 2609 779 3096 
Q 1206 3584 1959 3584 
z
" transform="scale(0.015625)"/>
      <path id="DejaVuSans-64" d="M 2906 2969 
L 2906 4863 
L 3481 4863 
L 3481 0 
L 2906 0 
L 2906 525 
Q 2725 213 2448 61 
Q 2172 -91 1784 -91 
Q 1150 -91 751 415 
Q 353 922 353 1747 
Q 353 2572 751 3078 
Q 1150 3584 1784 3584 
Q 2172 3584 2448 3432 
Q 2725 3281 2906 2969 
z
M 947 1747 
Q 947 1113 1208 752 
Q 1469 391 1925 391 
Q 2381 391 2643 752 
Q 2906 1113 2906 1747 
Q 2906 2381 2643 2742 
Q 2381 3103 1925 3103 
Q 1469 3103 1208 2742 
Q 947 2381 947 1747 
z
" transform="scale(0.015625)"/>
     </defs>
     <use xlink:href="#DejaVuSans-52"/>
     <use xlink:href="#DejaVuSans-65" transform="translate(64.982422 0)"/>
     <use xlink:href="#DejaVuSans-67" transform="translate(126.505859 0)"/>
     <use xlink:href="#DejaVuSans-69" transform="translate(189.982422 0)"/>
     <use xlink:href="#DejaVuSans-73" transform="translate(217.765625 0)"/>
     <use xlink:href="#DejaVuSans-74" transform="translate(269.865234 0)"/>
     <use xlink:href="#DejaVuSans-65" transform="translate(309.074219 0)"/>
     <use xlink:href="#DejaVuSans-72" transform="translate(370.597656 0)"/>
     <use xlink:href="#DejaVuSans-20" transform="translate(411.710938 0)"/>
     <use xlink:href="#DejaVuSans-46" transform="translate(443.498047 0)"/>
     <use xlink:href="#DejaVuSans-61" transform="translate(491.892578 0)"/>
     <use xlink:href="#DejaVuSans-75" transform="translate(553.171875 0)"/>
     <use xlink:href="#DejaVuSans-6c" transform="translate(616.550781 0)"/>
     <use xlink:href="#DejaVuSans-74" transform="translate(644.333984 0)"/>
     <use xlink:href="#DejaVuSans-6c" transform="translate(683.542969 0)"/>
     <use xlink:href="#DejaVuSans-6f" transform="translate(711.326172 0)"/>
     <use xlink:href="#DejaVuSans-61" transform="translate(772.507812 0)"/>
     <use xlink:href="#DejaVuSans-64" transform="translate(833.787109 0)"/>
    </g>
   </g>
  </g>
 </g>
 <defs>
  <clipPath id="pd95c4ed400">
   <rect x="72" y="51.84" width="446.4" height="332.64"/>
  </clipPath>
 </defs>
</svg>
