<?xml version="1.0" encoding="utf-8" standalone="no"?>
<!DOCTYPE svg PUBLIC "-//W3C//DTD SVG 1.1//EN"
  "http://www.w3.org/Graphics/SVG/1.1/DTD/svg11.dtd">
<svg xmlns:xlink="http://www.w3.org/1999/xlink" width="576pt" height="432pt" viewBox="0 0 576 432" xmlns="http://www.w3.org/2000/svg" version="1.1">
 <metadata>
  <rdf:RDF xmlns:dc="http://purl.org/dc/elements/1.1/" xmlns:cc="http://creativecommons.org/ns#" xmlns:rdf="http://www.w3.org/1999/02/22-rdf-syntax-ns#">
   <cc:Work>
    <dc:type rdf:resource="http://purl.org/dc/dcmitype/StillImage"/>
    <dc:date>2025-09-30T20:43:16.327182</dc:date>
    <dc:format>image/svg+xml</dc:format>
    <dc:creator>
     <cc:Agent>
      <dc:title>Matplotlib v3.10.3, https://matplotlib.org/</dc:title>
     </cc:Agent>
    </dc:creator>
   </cc:Work>
  </rdf:RDF>
 </metadata>
 <defs>
  <style type="text/css">*{stroke-linejoin: round; stroke-linecap: butt}</style>
 </defs>
 <g id="figure_1">
  <g id="patch_1">
   <path d="M 0 432 
L 576 432 
L 576 0 
L 0 0 
z
" style="fill: #ffffff"/>
  </g>
  <g id="axes_1">
   <g id="patch_2">
    <path d="M 72 384.48 
L 518.4 384.48 
L 518.4 51.84 
L 72 51.84 
z
" style="fill: #ffffff"/>
   </g>
   <g id="FillBetweenPolyCollection_1">
    <path d="M 383.648497 365.236313 
L 206.751503 365.236313 
L 183.907746 362.221437 
L 183.6 359.206562 
L 203.769588 356.191686 
L 231.25624 353.176811 
L 254.242547 350.161935 
L 269.078724 347.147059 
L 277.753424 344.132184 
L 283.0744 341.117308 
L 286.644142 338.102433 
L 289.137551 335.087557 
L 290.900689 332.072682 
L 292.148952 329.057806 
L 293.003592 326.042931 
L 293.551849 323.028055 
L 293.873606 320.01318 
L 294.033152 316.998304 
L 294.091026 313.983428 
L 294.112531 310.968553 
L 294.145059 307.953677 
L 294.203204 304.938802 
L 294.289151 301.923926 
L 294.410592 298.909051 
L 294.562363 295.894175 
L 294.706715 292.8793 
L 294.796462 289.864424 
L 294.819804 286.849549 
L 294.815549 283.834673 
L 294.840321 280.819798 
L 294.917608 277.804922 
L 295.02185 274.790046 
L 295.111336 271.775171 
L 295.165457 268.760295 
L 295.189152 265.74542 
L 295.195324 262.730544 
L 295.190844 259.715669 
L 295.174429 256.700793 
L 295.143706 253.685918 
L 295.106328 250.671042 
L 295.082422 247.656167 
L 295.088682 244.641291 
L 295.120509 241.626415 
L 295.157185 238.61154 
L 295.182606 235.596664 
L 295.19467 232.581789 
L 295.198768 229.566913 
L 295.199785 226.552038 
L 295.199972 223.537162 
L 295.199997 220.522287 
L 295.2 217.507411 
L 295.2 214.492536 
L 295.2 211.47766 
L 295.2 208.462784 
L 295.2 205.447909 
L 295.2 202.433033 
L 295.2 199.418158 
L 295.2 196.403282 
L 295.2 193.388407 
L 295.2 190.373531 
L 295.2 187.358656 
L 295.2 184.34378 
L 295.2 181.328905 
L 295.2 178.314029 
L 295.2 175.299153 
L 295.2 172.284278 
L 295.2 169.269402 
L 295.2 166.254527 
L 295.199998 163.239651 
L 295.199974 160.224776 
L 295.199777 157.2099 
L 295.198554 154.195025 
L 295.192863 151.180149 
L 295.173156 148.165274 
L 295.122874 145.150398 
L 295.029811 142.135523 
L 294.907804 139.120647 
L 294.797862 136.105771 
L 294.729571 133.090896 
L 294.692989 130.07602 
L 294.672156 127.061145 
L 294.683486 124.046269 
L 294.745246 121.031394 
L 294.830709 118.016518 
L 294.891681 115.001643 
L 294.919005 111.986767 
L 294.948019 108.971892 
L 295.006194 105.957016 
L 295.081209 102.94214 
L 295.143584 99.927265 
L 295.17945 96.912389 
L 295.194281 93.897514 
L 295.198773 90.882638 
L 295.199685 87.867763 
L 295.199232 84.852887 
L 295.19649 81.838012 
L 295.18752 78.823136 
L 295.166511 75.808261 
L 295.13222 72.793385 
L 295.096528 69.778509 
L 295.080859 66.763634 
L 295.319141 66.763634 
L 295.319141 66.763634 
L 295.303472 69.778509 
L 295.26778 72.793385 
L 295.233489 75.808261 
L 295.21248 78.823136 
L 295.20351 81.838012 
L 295.200768 84.852887 
L 295.200315 87.867763 
L 295.201227 90.882638 
L 295.205719 93.897514 
L 295.22055 96.912389 
L 295.256416 99.927265 
L 295.318791 102.94214 
L 295.393806 105.957016 
L 295.451981 108.971892 
L 295.480995 111.986767 
L 295.508319 115.001643 
L 295.569291 118.016518 
L 295.654754 121.031394 
L 295.716514 124.046269 
L 295.727844 127.061145 
L 295.707011 130.07602 
L 295.670429 133.090896 
L 295.602138 136.105771 
L 295.492196 139.120647 
L 295.370189 142.135523 
L 295.277126 145.150398 
L 295.226844 148.165274 
L 295.207137 151.180149 
L 295.201446 154.195025 
L 295.200223 157.2099 
L 295.200026 160.224776 
L 295.200002 163.239651 
L 295.2 166.254527 
L 295.2 169.269402 
L 295.2 172.284278 
L 295.2 175.299153 
L 295.2 178.314029 
L 295.2 181.328905 
L 295.2 184.34378 
L 295.2 187.358656 
L 295.2 190.373531 
L 295.2 193.388407 
L 295.2 196.403282 
L 295.2 199.418158 
L 295.2 202.433033 
L 295.2 205.447909 
L 295.2 208.462784 
L 295.2 211.47766 
L 295.2 214.492536 
L 295.2 217.507411 
L 295.200003 220.522287 
L 295.200028 223.537162 
L 295.200215 226.552038 
L 295.201232 229.566913 
L 295.20533 232.581789 
L 295.217394 235.596664 
L 295.242815 238.61154 
L 295.279491 241.626415 
L 295.311318 244.641291 
L 295.317578 247.656167 
L 295.293672 250.671042 
L 295.256294 253.685918 
L 295.225571 256.700793 
L 295.209156 259.715669 
L 295.204676 262.730544 
L 295.210848 265.74542 
L 295.234543 268.760295 
L 295.288664 271.775171 
L 295.37815 274.790046 
L 295.482392 277.804922 
L 295.559679 280.819798 
L 295.584451 283.834673 
L 295.580196 286.849549 
L 295.603538 289.864424 
L 295.693285 292.8793 
L 295.837637 295.894175 
L 295.989408 298.909051 
L 296.110849 301.923926 
L 296.196796 304.938802 
L 296.254941 307.953677 
L 296.287469 310.968553 
L 296.308974 313.983428 
L 296.366848 316.998304 
L 296.526394 320.01318 
L 296.848151 323.028055 
L 297.396408 326.042931 
L 298.251048 329.057806 
L 299.499311 332.072682 
L 301.262449 335.087557 
L 303.755858 338.102433 
L 307.3256 341.117308 
L 312.646576 344.132184 
L 321.321276 347.147059 
L 336.157453 350.161935 
L 359.14376 353.176811 
L 386.630412 356.191686 
L 406.8 359.206562 
L 406.492254 362.221437 
L 383.648497 365.236313 
z
" clip-path="url(#p66547bef8b)" style="fill: #1f77b4; fill-opacity: 0.3"/>
   </g>
   <g id="matplotlib.axis_1">
    <g id="xtick_1">
     <g id="line2d_1">
      <defs>
       <path id="m32a5613f1b" d="M 0 0 
L 0 3.5 
" style="stroke: #000000; stroke-width: 0.8"/>
      </defs>
      <g>
       <use xlink:href="#m32a5613f1b" x="295.2" y="384.48" style="stroke: #000000; stroke-width: 0.8"/>
      </g>
     </g>
     <g id="text_1">
      <!-- 1 -->
      <g transform="translate(292.01875 399.078438) scale(0.1 -0.1)">
       <defs>
        <path id="DejaVuSans-31" d="M 794 531 
L 1825 531 
L 1825 4091 
L 703 3866 
L 703 4441 
L 1819 4666 
L 2450 4666 
L 2450 531 
L 3481 531 
L 3481 0 
L 794 0 
L 794 531 
z
" transform="scale(0.015625)"/>
       </defs>
       <use xlink:href="#DejaVuSans-31"/>
      </g>
     </g>
    </g>
   </g>
   <g id="matplotlib.axis_2">
    <g id="ytick_1">
     <g id="line2d_2">
      <defs>
       <path id="m2777d6986e" d="M 0 0 
L -3.5 0 
" style="stroke: #000000; stroke-width: 0.8"/>
      </defs>
      <g>
       <use xlink:href="#m2777d6986e" x="72" y="384.48" style="stroke: #000000; stroke-width: 0.8"/>
      </g>
     </g>
     <g id="text_2">
      <!-- 0 -->
      <g transform="translate(58.6375 388.279219) scale(0.1 -0.1)">
       <defs>
        <path id="DejaVuSans-30" d="M 2034 4250 
Q 1547 4250 1301 3770 
Q 1056 3291 1056 2328 
Q 1056 1369 1301 889 
Q 1547 409 2034 409 
Q 2525 409 2770 889 
Q 3016 1369 3016 2328 
Q 3016 3291 2770 3770 
Q 2525 4250 2034 4250 
z
M 2034 4750 
Q 2819 4750 3233 4129 
Q 3647 3509 3647 2328 
Q 3647 1150 3233 529 
Q 2819 -91 2034 -91 
Q 1250 -91 836 529 
Q 422 1150 422 2328 
Q 422 3509 836 4129 
Q 1250 4750 2034 4750 
z
" transform="scale(0.015625)"/>
       </defs>
       <use xlink:href="#DejaVuSans-30"/>
      </g>
     </g>
    </g>
    <g id="ytick_2">
     <g id="line2d_3">
      <g>
       <use xlink:href="#m2777d6986e" x="72" y="346.985747" style="stroke: #000000; stroke-width: 0.8"/>
      </g>
     </g>
     <g id="text_3">
      <!-- 20 -->
      <g transform="translate(52.275 350.784966) scale(0.1 -0.1)">
       <defs>
        <path id="DejaVuSans-32" d="M 1228 531 
L 3431 531 
L 3431 0 
L 469 0 
L 469 531 
Q 828 903 1448 1529 
Q 2069 2156 2228 2338 
Q 2531 2678 2651 2914 
Q 2772 3150 2772 3378 
Q 2772 3750 2511 3984 
Q 2250 4219 1831 4219 
Q 1534 4219 1204 4116 
Q 875 4013 500 3803 
L 500 4441 
Q 881 4594 1212 4672 
Q 1544 4750 1819 4750 
Q 2544 4750 2975 4387 
Q 3406 4025 3406 3419 
Q 3406 3131 3298 2873 
Q 3191 2616 2906 2266 
Q 2828 2175 2409 1742 
Q 1991 1309 1228 531 
z
" transform="scale(0.015625)"/>
       </defs>
       <use xlink:href="#DejaVuSans-32"/>
       <use xlink:href="#DejaVuSans-30" transform="translate(63.623047 0)"/>
      </g>
     </g>
    </g>
    <g id="ytick_3">
     <g id="line2d_4">
      <g>
       <use xlink:href="#m2777d6986e" x="72" y="309.491494" style="stroke: #000000; stroke-width: 0.8"/>
      </g>
     </g>
     <g id="text_4">
      <!-- 40 -->
      <g transform="translate(52.275 313.290713) scale(0.1 -0.1)">
       <defs>
        <path id="DejaVuSans-34" d="M 2419 4116 
L 825 1625 
L 2419 1625 
L 2419 4116 
z
M 2253 4666 
L 3047 4666 
L 3047 1625 
L 3713 1625 
L 3713 1100 
L 3047 1100 
L 3047 0 
L 2419 0 
L 2419 1100 
L 313 1100 
L 313 1709 
L 2253 4666 
z
" transform="scale(0.015625)"/>
       </defs>
       <use xlink:href="#DejaVuSans-34"/>
       <use xlink:href="#DejaVuSans-30" transform="translate(63.623047 0)"/>
      </g>
     </g>
    </g>
    <g id="ytick_4">
     <g id="line2d_5">
      <g>
       <use xlink:href="#m2777d6986e" x="72" y="271.997241" style="stroke: #000000; stroke-width: 0.8"/>
      </g>
     </g>
     <g id="text_5">
      <!-- 60 -->
      <g transform="translate(52.275 275.79646) scale(0.1 -0.1)">
       <defs>
        <path id="DejaVuSans-36" d="M 2113 2584 
Q 1688 2584 1439 2293 
Q 1191 2003 1191 1497 
Q 1191 994 1439 701 
Q 1688 409 2113 409 
Q 2538 409 2786 701 
Q 3034 994 3034 1497 
Q 3034 2003 2786 2293 
Q 2538 2584 2113 2584 
z
M 3366 4563 
L 3366 3988 
Q 3128 4100 2886 4159 
Q 2644 4219 2406 4219 
Q 1781 4219 1451 3797 
Q 1122 3375 1075 2522 
Q 1259 2794 1537 2939 
Q 1816 3084 2150 3084 
Q 2853 3084 3261 2657 
Q 3669 2231 3669 1497 
Q 3669 778 3244 343 
Q 2819 -91 2113 -91 
Q 1303 -91 875 529 
Q 447 1150 447 2328 
Q 447 3434 972 4092 
Q 1497 4750 2381 4750 
Q 2619 4750 2861 4703 
Q 3103 4656 3366 4563 
z
" transform="scale(0.015625)"/>
       </defs>
       <use xlink:href="#DejaVuSans-36"/>
       <use xlink:href="#DejaVuSans-30" transform="translate(63.623047 0)"/>
      </g>
     </g>
    </g>
    <g id="ytick_5">
     <g id="line2d_6">
      <g>
       <use xlink:href="#m2777d6986e" x="72" y="234.502988" style="stroke: #000000; stroke-width: 0.8"/>
      </g>
     </g>
     <g id="text_6">
      <!-- 80 -->
      <g transform="translate(52.275 238.302207) scale(0.1 -0.1)">
       <defs>
        <path id="DejaVuSans-38" d="M 2034 2216 
Q 1584 2216 1326 1975 
Q 1069 1734 1069 1313 
Q 1069 891 1326 650 
Q 1584 409 2034 409 
Q 2484 409 2743 651 
Q 3003 894 3003 1313 
Q 3003 1734 2745 1975 
Q 2488 2216 2034 2216 
z
M 1403 2484 
Q 997 2584 770 2862 
Q 544 3141 544 3541 
Q 544 4100 942 4425 
Q 1341 4750 2034 4750 
Q 2731 4750 3128 4425 
Q 3525 4100 3525 3541 
Q 3525 3141 3298 2862 
Q 3072 2584 2669 2484 
Q 3125 2378 3379 2068 
Q 3634 1759 3634 1313 
Q 3634 634 3220 271 
Q 2806 -91 2034 -91 
Q 1263 -91 848 271 
Q 434 634 434 1313 
Q 434 1759 690 2068 
Q 947 2378 1403 2484 
z
M 1172 3481 
Q 1172 3119 1398 2916 
Q 1625 2713 2034 2713 
Q 2441 2713 2670 2916 
Q 2900 3119 2900 3481 
Q 2900 3844 2670 4047 
Q 2441 4250 2034 4250 
Q 1625 4250 1398 4047 
Q 1172 3844 1172 3481 
z
" transform="scale(0.015625)"/>
       </defs>
       <use xlink:href="#DejaVuSans-38"/>
       <use xlink:href="#DejaVuSans-30" transform="translate(63.623047 0)"/>
      </g>
     </g>
    </g>
    <g id="ytick_6">
     <g id="line2d_7">
      <g>
       <use xlink:href="#m2777d6986e" x="72" y="197.008735" style="stroke: #000000; stroke-width: 0.8"/>
      </g>
     </g>
     <g id="text_7">
      <!-- 100 -->
      <g transform="translate(45.9125 200.807954) scale(0.1 -0.1)">
       <use xlink:href="#DejaVuSans-31"/>
       <use xlink:href="#DejaVuSans-30" transform="translate(63.623047 0)"/>
       <use xlink:href="#DejaVuSans-30" transform="translate(127.246094 0)"/>
      </g>
     </g>
    </g>
    <g id="ytick_7">
     <g id="line2d_8">
      <g>
       <use xlink:href="#m2777d6986e" x="72" y="159.514482" style="stroke: #000000; stroke-width: 0.8"/>
      </g>
     </g>
     <g id="text_8">
      <!-- 120 -->
      <g transform="translate(45.9125 163.313701) scale(0.1 -0.1)">
       <use xlink:href="#DejaVuSans-31"/>
       <use xlink:href="#DejaVuSans-32" transform="translate(63.623047 0)"/>
       <use xlink:href="#DejaVuSans-30" transform="translate(127.246094 0)"/>
      </g>
     </g>
    </g>
    <g id="ytick_8">
     <g id="line2d_9">
      <g>
       <use xlink:href="#m2777d6986e" x="72" y="122.020229" style="stroke: #000000; stroke-width: 0.8"/>
      </g>
     </g>
     <g id="text_9">
      <!-- 140 -->
      <g transform="translate(45.9125 125.819448) scale(0.1 -0.1)">
       <use xlink:href="#DejaVuSans-31"/>
       <use xlink:href="#DejaVuSans-34" transform="translate(63.623047 0)"/>
       <use xlink:href="#DejaVuSans-30" transform="translate(127.246094 0)"/>
      </g>
     </g>
    </g>
    <g id="ytick_9">
     <g id="line2d_10">
      <g>
       <use xlink:href="#m2777d6986e" x="72" y="84.525976" style="stroke: #000000; stroke-width: 0.8"/>
      </g>
     </g>
     <g id="text_10">
      <!-- 160 -->
      <g transform="translate(45.9125 88.325195) scale(0.1 -0.1)">
       <use xlink:href="#DejaVuSans-31"/>
       <use xlink:href="#DejaVuSans-36" transform="translate(63.623047 0)"/>
       <use xlink:href="#DejaVuSans-30" transform="translate(127.246094 0)"/>
      </g>
     </g>
    </g>
    <g id="text_11">
     <!-- Time (ms) -->
     <g transform="translate(39.832812 243.359219) rotate(-90) scale(0.1 -0.1)">
      <defs>
       <path id="DejaVuSans-54" d="M -19 4666 
L 3928 4666 
L 3928 4134 
L 2272 4134 
L 2272 0 
L 1638 0 
L 1638 4134 
L -19 4134 
L -19 4666 
z
" transform="scale(0.015625)"/>
       <path id="DejaVuSans-69" d="M 603 3500 
L 1178 3500 
L 1178 0 
L 603 0 
L 603 3500 
z
M 603 4863 
L 1178 4863 
L 1178 4134 
L 603 4134 
L 603 4863 
z
" transform="scale(0.015625)"/>
       <path id="DejaVuSans-6d" d="M 3328 2828 
Q 3544 3216 3844 3400 
Q 4144 3584 4550 3584 
Q 5097 3584 5394 3201 
Q 5691 2819 5691 2113 
L 5691 0 
L 5113 0 
L 5113 2094 
Q 5113 2597 4934 2840 
Q 4756 3084 4391 3084 
Q 3944 3084 3684 2787 
Q 3425 2491 3425 1978 
L 3425 0 
L 2847 0 
L 2847 2094 
Q 2847 2600 2669 2842 
Q 2491 3084 2119 3084 
Q 1678 3084 1418 2786 
Q 1159 2488 1159 1978 
L 1159 0 
L 581 0 
L 581 3500 
L 1159 3500 
L 1159 2956 
Q 1356 3278 1631 3431 
Q 1906 3584 2284 3584 
Q 2666 3584 2933 3390 
Q 3200 3197 3328 2828 
z
" transform="scale(0.015625)"/>
       <path id="DejaVuSans-65" d="M 3597 1894 
L 3597 1613 
L 953 1613 
Q 991 1019 1311 708 
Q 1631 397 2203 397 
Q 2534 397 2845 478 
Q 3156 559 3463 722 
L 3463 178 
Q 3153 47 2828 -22 
Q 2503 -91 2169 -91 
Q 1331 -91 842 396 
Q 353 884 353 1716 
Q 353 2575 817 3079 
Q 1281 3584 2069 3584 
Q 2775 3584 3186 3129 
Q 3597 2675 3597 1894 
z
M 3022 2063 
Q 3016 2534 2758 2815 
Q 2500 3097 2075 3097 
Q 1594 3097 1305 2825 
Q 1016 2553 972 2059 
L 3022 2063 
z
" transform="scale(0.015625)"/>
       <path id="DejaVuSans-20" transform="scale(0.015625)"/>
       <path id="DejaVuSans-28" d="M 1984 4856 
Q 1566 4138 1362 3434 
Q 1159 2731 1159 2009 
Q 1159 1288 1364 580 
Q 1569 -128 1984 -844 
L 1484 -844 
Q 1016 -109 783 600 
Q 550 1309 550 2009 
Q 550 2706 781 3412 
Q 1013 4119 1484 4856 
L 1984 4856 
z
" transform="scale(0.015625)"/>
       <path id="DejaVuSans-73" d="M 2834 3397 
L 2834 2853 
Q 2591 2978 2328 3040 
Q 2066 3103 1784 3103 
Q 1356 3103 1142 2972 
Q 928 2841 928 2578 
Q 928 2378 1081 2264 
Q 1234 2150 1697 2047 
L 1894 2003 
Q 2506 1872 2764 1633 
Q 3022 1394 3022 966 
Q 3022 478 2636 193 
Q 2250 -91 1575 -91 
Q 1294 -91 989 -36 
Q 684 19 347 128 
L 347 722 
Q 666 556 975 473 
Q 1284 391 1588 391 
Q 1994 391 2212 530 
Q 2431 669 2431 922 
Q 2431 1156 2273 1281 
Q 2116 1406 1581 1522 
L 1381 1569 
Q 847 1681 609 1914 
Q 372 2147 372 2553 
Q 372 3047 722 3315 
Q 1072 3584 1716 3584 
Q 2034 3584 2315 3537 
Q 2597 3491 2834 3397 
z
" transform="scale(0.015625)"/>
       <path id="DejaVuSans-29" d="M 513 4856 
L 1013 4856 
Q 1481 4119 1714 3412 
Q 1947 2706 1947 2009 
Q 1947 1309 1714 600 
Q 1481 -109 1013 -844 
L 513 -844 
Q 928 -128 1133 580 
Q 1338 1288 1338 2009 
Q 1338 2731 1133 3434 
Q 928 4138 513 4856 
z
" transform="scale(0.015625)"/>
      </defs>
      <use xlink:href="#DejaVuSans-54"/>
      <use xlink:href="#DejaVuSans-69" transform="translate(57.958984 0)"/>
      <use xlink:href="#DejaVuSans-6d" transform="translate(85.742188 0)"/>
      <use xlink:href="#DejaVuSans-65" transform="translate(183.154297 0)"/>
      <use xlink:href="#DejaVuSans-20" transform="translate(244.677734 0)"/>
      <use xlink:href="#DejaVuSans-28" transform="translate(276.464844 0)"/>
      <use xlink:href="#DejaVuSans-6d" transform="translate(315.478516 0)"/>
      <use xlink:href="#DejaVuSans-73" transform="translate(412.890625 0)"/>
      <use xlink:href="#DejaVuSans-29" transform="translate(464.990234 0)"/>
     </g>
    </g>
   </g>
   <g id="LineCollection_1">
    <path d="M 239.4 355.442097 
L 351 355.442097 
" clip-path="url(#p66547bef8b)" style="fill: none; stroke: #1f77b4; stroke-width: 1.5"/>
   </g>
   <g id="LineCollection_2">
    <path d="M 239.4 66.763634 
L 351 66.763634 
" clip-path="url(#p66547bef8b)" style="fill: none; stroke: #1f77b4; stroke-width: 1.5"/>
   </g>
   <g id="LineCollection_3">
    <path d="M 239.4 365.236313 
L 351 365.236313 
" clip-path="url(#p66547bef8b)" style="fill: none; stroke: #1f77b4; stroke-width: 1.5"/>
   </g>
   <g id="LineCollection_4">
    <path d="M 295.2 365.236313 
L 295.2 66.763634 
" clip-path="url(#p66547bef8b)" style="fill: none; stroke: #1f77b4; stroke-width: 1.5"/>
   </g>
   <g id="patch_3">
    <path d="M 250.56 362.417602 
L 339.84 362.417602 
L 339.84 356.813657 
L 250.56 356.813657 
L 250.56 362.417602 
z
" clip-path="url(#p66547bef8b)" style="fill: #1f77b4; stroke: #000000; stroke-linejoin: miter"/>
   </g>
   <g id="line2d_11">
    <path d="M 295.2 362.417602 
L 295.2 365.236313 
" clip-path="url(#p66547bef8b)" style="fill: none; stroke: #000000; stroke-linecap: square"/>
   </g>
   <g id="line2d_12">
    <path d="M 295.2 356.813657 
L 295.2 348.59504 
" clip-path="url(#p66547bef8b)" style="fill: none; stroke: #000000; stroke-linecap: square"/>
   </g>
   <g id="line2d_13">
    <path d="M 272.88 365.236313 
L 317.52 365.236313 
" clip-path="url(#p66547bef8b)" style="fill: none; stroke: #000000; stroke-linecap: square"/>
   </g>
   <g id="line2d_14">
    <path d="M 272.88 348.59504 
L 317.52 348.59504 
" clip-path="url(#p66547bef8b)" style="fill: none; stroke: #000000; stroke-linecap: square"/>
   </g>
   <g id="line2d_15">
    <defs>
     <path id="m4bf93945be" d="M 0 3 
C 0.795609 3 1.55874 2.683901 2.12132 2.12132 
C 2.683901 1.55874 3 0.795609 3 0 
C 3 -0.795609 2.683901 -1.55874 2.12132 -2.12132 
C 1.55874 -2.683901 0.795609 -3 0 -3 
C -0.795609 -3 -1.55874 -2.683901 -2.12132 -2.12132 
C -2.683901 -1.55874 -3 -0.795609 -3 0 
C -3 0.795609 -2.683901 1.55874 -2.12132 2.12132 
C -1.55874 2.683901 -0.795609 3 0 3 
z
" style="stroke: #000000"/>
    </defs>
    <g clip-path="url(#p66547bef8b)">
     <use xlink:href="#m4bf93945be" x="295.2" y="134.122896" style="fill-opacity: 0; stroke: #000000"/>
     <use xlink:href="#m4bf93945be" x="295.2" y="343.353218" style="fill-opacity: 0; stroke: #000000"/>
     <use xlink:href="#m4bf93945be" x="295.2" y="343.878863" style="fill-opacity: 0; stroke: #000000"/>
     <use xlink:href="#m4bf93945be" x="295.2" y="346.276933" style="fill-opacity: 0; stroke: #000000"/>
     <use xlink:href="#m4bf93945be" x="295.2" y="340.214692" style="fill-opacity: 0; stroke: #000000"/>
     <use xlink:href="#m4bf93945be" x="295.2" y="343.314392" style="fill-opacity: 0; stroke: #000000"/>
     <use xlink:href="#m4bf93945be" x="295.2" y="345.192189" style="fill-opacity: 0; stroke: #000000"/>
     <use xlink:href="#m4bf93945be" x="295.2" y="347.456879" style="fill-opacity: 0; stroke: #000000"/>
     <use xlink:href="#m4bf93945be" x="295.2" y="344.331812" style="fill-opacity: 0; stroke: #000000"/>
     <use xlink:href="#m4bf93945be" x="295.2" y="345.249609" style="fill-opacity: 0; stroke: #000000"/>
     <use xlink:href="#m4bf93945be" x="295.2" y="344.349674" style="fill-opacity: 0; stroke: #000000"/>
     <use xlink:href="#m4bf93945be" x="295.2" y="312.118967" style="fill-opacity: 0; stroke: #000000"/>
     <use xlink:href="#m4bf93945be" x="295.2" y="341.902499" style="fill-opacity: 0; stroke: #000000"/>
     <use xlink:href="#m4bf93945be" x="295.2" y="344.701685" style="fill-opacity: 0; stroke: #000000"/>
     <use xlink:href="#m4bf93945be" x="295.2" y="338.739651" style="fill-opacity: 0; stroke: #000000"/>
     <use xlink:href="#m4bf93945be" x="295.2" y="283.71591" style="fill-opacity: 0; stroke: #000000"/>
     <use xlink:href="#m4bf93945be" x="295.2" y="123.481684" style="fill-opacity: 0; stroke: #000000"/>
     <use xlink:href="#m4bf93945be" x="295.2" y="340.824509" style="fill-opacity: 0; stroke: #000000"/>
     <use xlink:href="#m4bf93945be" x="295.2" y="339.870853" style="fill-opacity: 0; stroke: #000000"/>
     <use xlink:href="#m4bf93945be" x="295.2" y="344.975892" style="fill-opacity: 0; stroke: #000000"/>
     <use xlink:href="#m4bf93945be" x="295.2" y="331.686547" style="fill-opacity: 0; stroke: #000000"/>
     <use xlink:href="#m4bf93945be" x="295.2" y="346.249947" style="fill-opacity: 0; stroke: #000000"/>
     <use xlink:href="#m4bf93945be" x="295.2" y="347.204687" style="fill-opacity: 0; stroke: #000000"/>
     <use xlink:href="#m4bf93945be" x="295.2" y="347.652157" style="fill-opacity: 0; stroke: #000000"/>
     <use xlink:href="#m4bf93945be" x="295.2" y="347.19034" style="fill-opacity: 0; stroke: #000000"/>
     <use xlink:href="#m4bf93945be" x="295.2" y="325.444641" style="fill-opacity: 0; stroke: #000000"/>
     <use xlink:href="#m4bf93945be" x="295.2" y="322.367429" style="fill-opacity: 0; stroke: #000000"/>
     <use xlink:href="#m4bf93945be" x="295.2" y="312.217922" style="fill-opacity: 0; stroke: #000000"/>
     <use xlink:href="#m4bf93945be" x="295.2" y="111.021402" style="fill-opacity: 0; stroke: #000000"/>
     <use xlink:href="#m4bf93945be" x="295.2" y="335.113726" style="fill-opacity: 0; stroke: #000000"/>
     <use xlink:href="#m4bf93945be" x="295.2" y="333.241038" style="fill-opacity: 0; stroke: #000000"/>
     <use xlink:href="#m4bf93945be" x="295.2" y="337.856273" style="fill-opacity: 0; stroke: #000000"/>
     <use xlink:href="#m4bf93945be" x="295.2" y="346.697823" style="fill-opacity: 0; stroke: #000000"/>
     <use xlink:href="#m4bf93945be" x="295.2" y="345.653314" style="fill-opacity: 0; stroke: #000000"/>
     <use xlink:href="#m4bf93945be" x="295.2" y="346.483163" style="fill-opacity: 0; stroke: #000000"/>
     <use xlink:href="#m4bf93945be" x="295.2" y="299.739394" style="fill-opacity: 0; stroke: #000000"/>
     <use xlink:href="#m4bf93945be" x="295.2" y="346.085054" style="fill-opacity: 0; stroke: #000000"/>
     <use xlink:href="#m4bf93945be" x="295.2" y="341.675232" style="fill-opacity: 0; stroke: #000000"/>
     <use xlink:href="#m4bf93945be" x="295.2" y="334.337216" style="fill-opacity: 0; stroke: #000000"/>
     <use xlink:href="#m4bf93945be" x="295.2" y="344.600213" style="fill-opacity: 0; stroke: #000000"/>
     <use xlink:href="#m4bf93945be" x="295.2" y="325.131044" style="fill-opacity: 0; stroke: #000000"/>
     <use xlink:href="#m4bf93945be" x="295.2" y="337.008131" style="fill-opacity: 0; stroke: #000000"/>
     <use xlink:href="#m4bf93945be" x="295.2" y="282.170206" style="fill-opacity: 0; stroke: #000000"/>
     <use xlink:href="#m4bf93945be" x="295.2" y="126.112607" style="fill-opacity: 0; stroke: #000000"/>
     <use xlink:href="#m4bf93945be" x="295.2" y="338.794803" style="fill-opacity: 0; stroke: #000000"/>
     <use xlink:href="#m4bf93945be" x="295.2" y="345.393349" style="fill-opacity: 0; stroke: #000000"/>
     <use xlink:href="#m4bf93945be" x="295.2" y="338.974635" style="fill-opacity: 0; stroke: #000000"/>
     <use xlink:href="#m4bf93945be" x="295.2" y="346.320843" style="fill-opacity: 0; stroke: #000000"/>
     <use xlink:href="#m4bf93945be" x="295.2" y="343.212642" style="fill-opacity: 0; stroke: #000000"/>
     <use xlink:href="#m4bf93945be" x="295.2" y="344.363935" style="fill-opacity: 0; stroke: #000000"/>
     <use xlink:href="#m4bf93945be" x="295.2" y="342.470976" style="fill-opacity: 0; stroke: #000000"/>
     <use xlink:href="#m4bf93945be" x="295.2" y="333.472057" style="fill-opacity: 0; stroke: #000000"/>
     <use xlink:href="#m4bf93945be" x="295.2" y="343.79513" style="fill-opacity: 0; stroke: #000000"/>
     <use xlink:href="#m4bf93945be" x="295.2" y="338.263849" style="fill-opacity: 0; stroke: #000000"/>
     <use xlink:href="#m4bf93945be" x="295.2" y="336.798195" style="fill-opacity: 0; stroke: #000000"/>
     <use xlink:href="#m4bf93945be" x="295.2" y="344.946875" style="fill-opacity: 0; stroke: #000000"/>
     <use xlink:href="#m4bf93945be" x="295.2" y="345.494241" style="fill-opacity: 0; stroke: #000000"/>
     <use xlink:href="#m4bf93945be" x="295.2" y="347.269882" style="fill-opacity: 0; stroke: #000000"/>
     <use xlink:href="#m4bf93945be" x="295.2" y="345.012642" style="fill-opacity: 0; stroke: #000000"/>
     <use xlink:href="#m4bf93945be" x="295.2" y="291.239852" style="fill-opacity: 0; stroke: #000000"/>
     <use xlink:href="#m4bf93945be" x="295.2" y="335.001279" style="fill-opacity: 0; stroke: #000000"/>
     <use xlink:href="#m4bf93945be" x="295.2" y="346.018943" style="fill-opacity: 0; stroke: #000000"/>
     <use xlink:href="#m4bf93945be" x="295.2" y="296.901411" style="fill-opacity: 0; stroke: #000000"/>
     <use xlink:href="#m4bf93945be" x="295.2" y="134.662944" style="fill-opacity: 0; stroke: #000000"/>
     <use xlink:href="#m4bf93945be" x="295.2" y="339.585937" style="fill-opacity: 0; stroke: #000000"/>
     <use xlink:href="#m4bf93945be" x="295.2" y="348.382715" style="fill-opacity: 0; stroke: #000000"/>
     <use xlink:href="#m4bf93945be" x="295.2" y="344.610861" style="fill-opacity: 0; stroke: #000000"/>
     <use xlink:href="#m4bf93945be" x="295.2" y="347.509021" style="fill-opacity: 0; stroke: #000000"/>
     <use xlink:href="#m4bf93945be" x="295.2" y="348.14925" style="fill-opacity: 0; stroke: #000000"/>
     <use xlink:href="#m4bf93945be" x="295.2" y="348.102345" style="fill-opacity: 0; stroke: #000000"/>
     <use xlink:href="#m4bf93945be" x="295.2" y="338.165546" style="fill-opacity: 0; stroke: #000000"/>
     <use xlink:href="#m4bf93945be" x="295.2" y="344.120721" style="fill-opacity: 0; stroke: #000000"/>
     <use xlink:href="#m4bf93945be" x="295.2" y="307.258415" style="fill-opacity: 0; stroke: #000000"/>
     <use xlink:href="#m4bf93945be" x="295.2" y="331.528647" style="fill-opacity: 0; stroke: #000000"/>
     <use xlink:href="#m4bf93945be" x="295.2" y="317.105877" style="fill-opacity: 0; stroke: #000000"/>
     <use xlink:href="#m4bf93945be" x="295.2" y="124.945274" style="fill-opacity: 0; stroke: #000000"/>
     <use xlink:href="#m4bf93945be" x="295.2" y="344.219496" style="fill-opacity: 0; stroke: #000000"/>
     <use xlink:href="#m4bf93945be" x="295.2" y="344.359747" style="fill-opacity: 0; stroke: #000000"/>
     <use xlink:href="#m4bf93945be" x="295.2" y="346.019923" style="fill-opacity: 0; stroke: #000000"/>
     <use xlink:href="#m4bf93945be" x="295.2" y="334.97544" style="fill-opacity: 0; stroke: #000000"/>
     <use xlink:href="#m4bf93945be" x="295.2" y="346.258313" style="fill-opacity: 0; stroke: #000000"/>
     <use xlink:href="#m4bf93945be" x="295.2" y="345.073538" style="fill-opacity: 0; stroke: #000000"/>
     <use xlink:href="#m4bf93945be" x="295.2" y="342.168043" style="fill-opacity: 0; stroke: #000000"/>
     <use xlink:href="#m4bf93945be" x="295.2" y="318.323689" style="fill-opacity: 0; stroke: #000000"/>
     <use xlink:href="#m4bf93945be" x="295.2" y="246.73366" style="fill-opacity: 0; stroke: #000000"/>
     <use xlink:href="#m4bf93945be" x="295.2" y="325.997207" style="fill-opacity: 0; stroke: #000000"/>
     <use xlink:href="#m4bf93945be" x="295.2" y="326.283908" style="fill-opacity: 0; stroke: #000000"/>
     <use xlink:href="#m4bf93945be" x="295.2" y="120.792789" style="fill-opacity: 0; stroke: #000000"/>
     <use xlink:href="#m4bf93945be" x="295.2" y="332.037313" style="fill-opacity: 0; stroke: #000000"/>
     <use xlink:href="#m4bf93945be" x="295.2" y="341.830141" style="fill-opacity: 0; stroke: #000000"/>
     <use xlink:href="#m4bf93945be" x="295.2" y="341.905375" style="fill-opacity: 0; stroke: #000000"/>
     <use xlink:href="#m4bf93945be" x="295.2" y="332.164113" style="fill-opacity: 0; stroke: #000000"/>
     <use xlink:href="#m4bf93945be" x="295.2" y="331.665556" style="fill-opacity: 0; stroke: #000000"/>
     <use xlink:href="#m4bf93945be" x="295.2" y="347.547553" style="fill-opacity: 0; stroke: #000000"/>
     <use xlink:href="#m4bf93945be" x="295.2" y="347.585826" style="fill-opacity: 0; stroke: #000000"/>
     <use xlink:href="#m4bf93945be" x="295.2" y="341.800689" style="fill-opacity: 0; stroke: #000000"/>
     <use xlink:href="#m4bf93945be" x="295.2" y="299.833601" style="fill-opacity: 0; stroke: #000000"/>
     <use xlink:href="#m4bf93945be" x="295.2" y="327.712259" style="fill-opacity: 0; stroke: #000000"/>
     <use xlink:href="#m4bf93945be" x="295.2" y="344.190151" style="fill-opacity: 0; stroke: #000000"/>
     <use xlink:href="#m4bf93945be" x="295.2" y="298.673886" style="fill-opacity: 0; stroke: #000000"/>
     <use xlink:href="#m4bf93945be" x="295.2" y="66.763634" style="fill-opacity: 0; stroke: #000000"/>
     <use xlink:href="#m4bf93945be" x="295.2" y="332.267108" style="fill-opacity: 0; stroke: #000000"/>
     <use xlink:href="#m4bf93945be" x="295.2" y="339.925806" style="fill-opacity: 0; stroke: #000000"/>
     <use xlink:href="#m4bf93945be" x="295.2" y="337.127404" style="fill-opacity: 0; stroke: #000000"/>
     <use xlink:href="#m4bf93945be" x="295.2" y="343.108026" style="fill-opacity: 0; stroke: #000000"/>
     <use xlink:href="#m4bf93945be" x="295.2" y="345.770283" style="fill-opacity: 0; stroke: #000000"/>
     <use xlink:href="#m4bf93945be" x="295.2" y="343.350464" style="fill-opacity: 0; stroke: #000000"/>
     <use xlink:href="#m4bf93945be" x="295.2" y="345.722039" style="fill-opacity: 0; stroke: #000000"/>
     <use xlink:href="#m4bf93945be" x="295.2" y="342.194896" style="fill-opacity: 0; stroke: #000000"/>
     <use xlink:href="#m4bf93945be" x="295.2" y="333.962" style="fill-opacity: 0; stroke: #000000"/>
     <use xlink:href="#m4bf93945be" x="295.2" y="341.165763" style="fill-opacity: 0; stroke: #000000"/>
     <use xlink:href="#m4bf93945be" x="295.2" y="347.618046" style="fill-opacity: 0; stroke: #000000"/>
     <use xlink:href="#m4bf93945be" x="295.2" y="336.880163" style="fill-opacity: 0; stroke: #000000"/>
     <use xlink:href="#m4bf93945be" x="295.2" y="336.752493" style="fill-opacity: 0; stroke: #000000"/>
     <use xlink:href="#m4bf93945be" x="295.2" y="347.89305" style="fill-opacity: 0; stroke: #000000"/>
     <use xlink:href="#m4bf93945be" x="295.2" y="330.733212" style="fill-opacity: 0; stroke: #000000"/>
     <use xlink:href="#m4bf93945be" x="295.2" y="343.419976" style="fill-opacity: 0; stroke: #000000"/>
     <use xlink:href="#m4bf93945be" x="295.2" y="340.206754" style="fill-opacity: 0; stroke: #000000"/>
     <use xlink:href="#m4bf93945be" x="295.2" y="345.460126" style="fill-opacity: 0; stroke: #000000"/>
     <use xlink:href="#m4bf93945be" x="295.2" y="345.679005" style="fill-opacity: 0; stroke: #000000"/>
     <use xlink:href="#m4bf93945be" x="295.2" y="333.338857" style="fill-opacity: 0; stroke: #000000"/>
     <use xlink:href="#m4bf93945be" x="295.2" y="316.629933" style="fill-opacity: 0; stroke: #000000"/>
     <use xlink:href="#m4bf93945be" x="295.2" y="305.675438" style="fill-opacity: 0; stroke: #000000"/>
     <use xlink:href="#m4bf93945be" x="295.2" y="345.125936" style="fill-opacity: 0; stroke: #000000"/>
     <use xlink:href="#m4bf93945be" x="295.2" y="311.714084" style="fill-opacity: 0; stroke: #000000"/>
     <use xlink:href="#m4bf93945be" x="295.2" y="136.438267" style="fill-opacity: 0; stroke: #000000"/>
     <use xlink:href="#m4bf93945be" x="295.2" y="346.114356" style="fill-opacity: 0; stroke: #000000"/>
     <use xlink:href="#m4bf93945be" x="295.2" y="334.064856" style="fill-opacity: 0; stroke: #000000"/>
     <use xlink:href="#m4bf93945be" x="295.2" y="340.683046" style="fill-opacity: 0; stroke: #000000"/>
     <use xlink:href="#m4bf93945be" x="295.2" y="341.161384" style="fill-opacity: 0; stroke: #000000"/>
     <use xlink:href="#m4bf93945be" x="295.2" y="345.7925" style="fill-opacity: 0; stroke: #000000"/>
     <use xlink:href="#m4bf93945be" x="295.2" y="347.207837" style="fill-opacity: 0; stroke: #000000"/>
     <use xlink:href="#m4bf93945be" x="295.2" y="348.199556" style="fill-opacity: 0; stroke: #000000"/>
     <use xlink:href="#m4bf93945be" x="295.2" y="337.220611" style="fill-opacity: 0; stroke: #000000"/>
     <use xlink:href="#m4bf93945be" x="295.2" y="348.19414" style="fill-opacity: 0; stroke: #000000"/>
     <use xlink:href="#m4bf93945be" x="295.2" y="279.002435" style="fill-opacity: 0; stroke: #000000"/>
     <use xlink:href="#m4bf93945be" x="295.2" y="310.996939" style="fill-opacity: 0; stroke: #000000"/>
     <use xlink:href="#m4bf93945be" x="295.2" y="303.392499" style="fill-opacity: 0; stroke: #000000"/>
     <use xlink:href="#m4bf93945be" x="295.2" y="108.451464" style="fill-opacity: 0; stroke: #000000"/>
     <use xlink:href="#m4bf93945be" x="295.2" y="338.191376" style="fill-opacity: 0; stroke: #000000"/>
     <use xlink:href="#m4bf93945be" x="295.2" y="347.143393" style="fill-opacity: 0; stroke: #000000"/>
     <use xlink:href="#m4bf93945be" x="295.2" y="348.024426" style="fill-opacity: 0; stroke: #000000"/>
     <use xlink:href="#m4bf93945be" x="295.2" y="348.18417" style="fill-opacity: 0; stroke: #000000"/>
     <use xlink:href="#m4bf93945be" x="295.2" y="323.648505" style="fill-opacity: 0; stroke: #000000"/>
     <use xlink:href="#m4bf93945be" x="295.2" y="322.349964" style="fill-opacity: 0; stroke: #000000"/>
     <use xlink:href="#m4bf93945be" x="295.2" y="306.871216" style="fill-opacity: 0; stroke: #000000"/>
    </g>
   </g>
   <g id="line2d_16">
    <path d="M 250.56 360.545335 
L 339.84 360.545335 
" clip-path="url(#p66547bef8b)" style="fill: none; stroke: #ff7f0e"/>
   </g>
   <g id="patch_4">
    <path d="M 72 384.48 
L 72 51.84 
" style="fill: none; stroke: #000000; stroke-width: 0.8; stroke-linejoin: miter; stroke-linecap: square"/>
   </g>
   <g id="patch_5">
    <path d="M 518.4 384.48 
L 518.4 51.84 
" style="fill: none; stroke: #000000; stroke-width: 0.8; stroke-linejoin: miter; stroke-linecap: square"/>
   </g>
   <g id="patch_6">
    <path d="M 72 384.48 
L 518.4 384.48 
" style="fill: none; stroke: #000000; stroke-width: 0.8; stroke-linejoin: miter; stroke-linecap: square"/>
   </g>
   <g id="patch_7">
    <path d="M 72 51.84 
L 518.4 51.84 
" style="fill: none; stroke: #000000; stroke-width: 0.8; stroke-linejoin: miter; stroke-linecap: square"/>
   </g>
   <g id="text_12">
    <!-- Test Method -->
    <g transform="translate(258.975 45.84) scale(0.12 -0.12)">
     <defs>
      <path id="DejaVuSans-74" d="M 1172 4494 
L 1172 3500 
L 2356 3500 
L 2356 3053 
L 1172 3053 
L 1172 1153 
Q 1172 725 1289 603 
Q 1406 481 1766 481 
L 2356 481 
L 2356 0 
L 1766 0 
Q 1100 0 847 248 
Q 594 497 594 1153 
L 594 3053 
L 172 3053 
L 172 3500 
L 594 3500 
L 594 4494 
L 1172 4494 
z
" transform="scale(0.015625)"/>
      <path id="DejaVuSans-4d" d="M 628 4666 
L 1569 4666 
L 2759 1491 
L 3956 4666 
L 4897 4666 
L 4897 0 
L 4281 0 
L 4281 4097 
L 3078 897 
L 2444 897 
L 1241 4097 
L 1241 0 
L 628 0 
L 628 4666 
z
" transform="scale(0.015625)"/>
      <path id="DejaVuSans-68" d="M 3513 2113 
L 3513 0 
L 2938 0 
L 2938 2094 
Q 2938 2591 2744 2837 
Q 2550 3084 2163 3084 
Q 1697 3084 1428 2787 
Q 1159 2491 1159 1978 
L 1159 0 
L 581 0 
L 581 4863 
L 1159 4863 
L 1159 2956 
Q 1366 3272 1645 3428 
Q 1925 3584 2291 3584 
Q 2894 3584 3203 3211 
Q 3513 2838 3513 2113 
z
" transform="scale(0.015625)"/>
      <path id="DejaVuSans-6f" d="M 1959 3097 
Q 1497 3097 1228 2736 
Q 959 2375 959 1747 
Q 959 1119 1226 758 
Q 1494 397 1959 397 
Q 2419 397 2687 759 
Q 2956 1122 2956 1747 
Q 2956 2369 2687 2733 
Q 2419 3097 1959 3097 
z
M 1959 3584 
Q 2709 3584 3137 3096 
Q 3566 2609 3566 1747 
Q 3566 888 3137 398 
Q 2709 -91 1959 -91 
Q 1206 -91 779 398 
Q 353 888 353 1747 
Q 353 2609 779 3096 
Q 1206 3584 1959 3584 
z
" transform="scale(0.015625)"/>
      <path id="DejaVuSans-64" d="M 2906 2969 
L 2906 4863 
L 3481 4863 
L 3481 0 
L 2906 0 
L 2906 525 
Q 2725 213 2448 61 
Q 2172 -91 1784 -91 
Q 1150 -91 751 415 
Q 353 922 353 1747 
Q 353 2572 751 3078 
Q 1150 3584 1784 3584 
Q 2172 3584 2448 3432 
Q 2725 3281 2906 2969 
z
M 947 1747 
Q 947 1113 1208 752 
Q 1469 391 1925 391 
Q 2381 391 2643 752 
Q 2906 1113 2906 1747 
Q 2906 2381 2643 2742 
Q 2381 3103 1925 3103 
Q 1469 3103 1208 2742 
Q 947 2381 947 1747 
z
" transform="scale(0.015625)"/>
     </defs>
     <use xlink:href="#DejaVuSans-54"/>
     <use xlink:href="#DejaVuSans-65" transform="translate(44.083984 0)"/>
     <use xlink:href="#DejaVuSans-73" transform="translate(105.607422 0)"/>
     <use xlink:href="#DejaVuSans-74" transform="translate(157.707031 0)"/>
     <use xlink:href="#DejaVuSans-20" transform="translate(196.916016 0)"/>
     <use xlink:href="#DejaVuSans-4d" transform="translate(228.703125 0)"/>
     <use xlink:href="#DejaVuSans-65" transform="translate(314.982422 0)"/>
     <use xlink:href="#DejaVuSans-74" transform="translate(376.505859 0)"/>
     <use xlink:href="#DejaVuSans-68" transform="translate(415.714844 0)"/>
     <use xlink:href="#DejaVuSans-6f" transform="translate(479.09375 0)"/>
     <use xlink:href="#DejaVuSans-64" transform="translate(540.275391 0)"/>
    </g>
   </g>
  </g>
 </g>
 <defs>
  <clipPath id="p66547bef8b">
   <rect x="72" y="51.84" width="446.4" height="332.64"/>
  </clipPath>
 </defs>
</svg>
