<?xml version="1.0" encoding="utf-8" standalone="no"?>
<!DOCTYPE svg PUBLIC "-//W3C//DTD SVG 1.1//EN"
  "http://www.w3.org/Graphics/SVG/1.1/DTD/svg11.dtd">
<svg xmlns:xlink="http://www.w3.org/1999/xlink" width="576pt" height="432pt" viewBox="0 0 576 432" xmlns="http://www.w3.org/2000/svg" version="1.1">
 <metadata>
  <rdf:RDF xmlns:dc="http://purl.org/dc/elements/1.1/" xmlns:cc="http://creativecommons.org/ns#" xmlns:rdf="http://www.w3.org/1999/02/22-rdf-syntax-ns#">
   <cc:Work>
    <dc:type rdf:resource="http://purl.org/dc/dcmitype/StillImage"/>
    <dc:date>2025-09-30T20:43:16.270033</dc:date>
    <dc:format>image/svg+xml</dc:format>
    <dc:creator>
     <cc:Agent>
      <dc:title>Matplotlib v3.10.3, https://matplotlib.org/</dc:title>
     </cc:Agent>
    </dc:creator>
   </cc:Work>
  </rdf:RDF>
 </metadata>
 <defs>
  <style type="text/css">*{stroke-linejoin: round; stroke-linecap: butt}</style>
 </defs>
 <g id="figure_1">
  <g id="patch_1">
   <path d="M 0 432 
L 576 432 
L 576 0 
L 0 0 
z
" style="fill: #ffffff"/>
  </g>
  <g id="axes_1">
   <g id="patch_2">
    <path d="M 72 384.48 
L 518.4 384.48 
L 518.4 51.84 
L 72 51.84 
z
" style="fill: #ffffff"/>
   </g>
   <g id="FillBetweenPolyCollection_1">
    <path d="M 309.950715 326.783524 
L 280.449285 326.783524 
L 269.036377 324.138564 
L 253.492827 321.493605 
L 235.089705 318.848646 
L 216.294438 316.203686 
L 200.035823 313.558727 
L 188.729394 310.913767 
L 183.6 308.268808 
L 184.537322 305.623849 
L 190.365444 302.978889 
L 199.34633 300.33393 
L 209.785991 297.688971 
L 220.50928 295.044011 
L 230.93413 292.399052 
L 240.773124 289.754093 
L 249.717405 287.109133 
L 257.390448 284.464174 
L 263.532133 281.819215 
L 268.186958 279.174255 
L 271.719133 276.529296 
L 274.633212 273.884337 
L 277.3296 271.239377 
L 279.961321 268.594418 
L 282.453788 265.949459 
L 284.630464 263.304499 
L 286.355731 260.65954 
L 287.624618 258.014581 
L 288.558022 255.369621 
L 289.319053 252.724662 
L 290.025406 250.079703 
L 290.724158 247.434743 
L 291.419443 244.789784 
L 292.09455 242.144825 
L 292.707789 239.499865 
L 293.199224 236.854906 
L 293.531129 234.209947 
L 293.725775 231.564987 
L 293.856441 228.920028 
L 294.000191 226.275069 
L 294.195242 223.630109 
L 294.428388 220.98515 
L 294.650087 218.340191 
L 294.804992 215.695231 
L 294.863092 213.050272 
L 294.835495 210.405313 
L 294.766519 207.760353 
L 294.708541 205.115394 
L 294.696809 202.470434 
L 294.738978 199.825475 
L 294.820098 197.180516 
L 294.913235 194.535556 
L 294.989374 191.890597 
L 295.027639 189.245638 
L 295.024879 186.600678 
L 294.997095 183.955719 
L 294.967098 181.31076 
L 294.945482 178.6658 
L 294.922316 176.020841 
L 294.879298 173.375882 
L 294.810284 170.730922 
L 294.727582 168.085963 
L 294.647412 165.441004 
L 294.572378 162.796044 
L 294.492385 160.151085 
L 294.404588 157.506126 
L 294.330767 154.861166 
L 294.31039 152.216207 
L 294.370789 149.571248 
L 294.500289 146.926288 
L 294.649662 144.281329 
L 294.761207 141.63637 
L 294.801048 138.99141 
L 294.77183 136.346451 
L 294.703137 133.701492 
L 294.631839 131.056532 
L 294.584341 128.411573 
L 294.568215 125.766614 
L 294.578176 123.121654 
L 294.610663 120.476695 
L 294.668475 117.831736 
L 294.748257 115.186776 
L 294.830865 112.541817 
L 294.893787 109.896858 
L 294.932586 107.251898 
L 294.96365 104.606939 
L 295.005076 101.96198 
L 295.059102 99.31702 
L 295.113528 96.672061 
L 295.155265 94.027101 
L 295.179322 91.382142 
L 295.187135 88.737183 
L 295.180137 86.092223 
L 295.15614 83.447264 
L 295.111573 80.802305 
L 295.047688 78.157345 
L 294.975087 75.512386 
L 294.911423 72.867427 
L 294.873654 70.222467 
L 294.871573 67.577508 
L 294.905703 64.932549 
L 295.494297 64.932549 
L 295.494297 64.932549 
L 295.528427 67.577508 
L 295.526346 70.222467 
L 295.488577 72.867427 
L 295.424913 75.512386 
L 295.352312 78.157345 
L 295.288427 80.802305 
L 295.24386 83.447264 
L 295.219863 86.092223 
L 295.212865 88.737183 
L 295.220678 91.382142 
L 295.244735 94.027101 
L 295.286472 96.672061 
L 295.340898 99.31702 
L 295.394924 101.96198 
L 295.43635 104.606939 
L 295.467414 107.251898 
L 295.506213 109.896858 
L 295.569135 112.541817 
L 295.651743 115.186776 
L 295.731525 117.831736 
L 295.789337 120.476695 
L 295.821824 123.121654 
L 295.831785 125.766614 
L 295.815659 128.411573 
L 295.768161 131.056532 
L 295.696863 133.701492 
L 295.62817 136.346451 
L 295.598952 138.99141 
L 295.638793 141.63637 
L 295.750338 144.281329 
L 295.899711 146.926288 
L 296.029211 149.571248 
L 296.08961 152.216207 
L 296.069233 154.861166 
L 295.995412 157.506126 
L 295.907615 160.151085 
L 295.827622 162.796044 
L 295.752588 165.441004 
L 295.672418 168.085963 
L 295.589716 170.730922 
L 295.520702 173.375882 
L 295.477684 176.020841 
L 295.454518 178.6658 
L 295.432902 181.31076 
L 295.402905 183.955719 
L 295.375121 186.600678 
L 295.372361 189.245638 
L 295.410626 191.890597 
L 295.486765 194.535556 
L 295.579902 197.180516 
L 295.661022 199.825475 
L 295.703191 202.470434 
L 295.691459 205.115394 
L 295.633481 207.760353 
L 295.564505 210.405313 
L 295.536908 213.050272 
L 295.595008 215.695231 
L 295.749913 218.340191 
L 295.971612 220.98515 
L 296.204758 223.630109 
L 296.399809 226.275069 
L 296.543559 228.920028 
L 296.674225 231.564987 
L 296.868871 234.209947 
L 297.200776 236.854906 
L 297.692211 239.499865 
L 298.30545 242.144825 
L 298.980557 244.789784 
L 299.675842 247.434743 
L 300.374594 250.079703 
L 301.080947 252.724662 
L 301.841978 255.369621 
L 302.775382 258.014581 
L 304.044269 260.65954 
L 305.769536 263.304499 
L 307.946212 265.949459 
L 310.438679 268.594418 
L 313.0704 271.239377 
L 315.766788 273.884337 
L 318.680867 276.529296 
L 322.213042 279.174255 
L 326.867867 281.819215 
L 333.009552 284.464174 
L 340.682595 287.109133 
L 349.626876 289.754093 
L 359.46587 292.399052 
L 369.89072 295.044011 
L 380.614009 297.688971 
L 391.05367 300.33393 
L 400.034556 302.978889 
L 405.862678 305.623849 
L 406.8 308.268808 
L 401.670606 310.913767 
L 390.364177 313.558727 
L 374.105562 316.203686 
L 355.310295 318.848646 
L 336.907173 321.493605 
L 321.363623 324.138564 
L 309.950715 326.783524 
z
" clip-path="url(#pf8ede80763)" style="fill: #1f77b4; fill-opacity: 0.3"/>
   </g>
   <g id="matplotlib.axis_1">
    <g id="xtick_1">
     <g id="line2d_1">
      <defs>
       <path id="ma9871ad229" d="M 0 0 
L 0 3.5 
" style="stroke: #000000; stroke-width: 0.8"/>
      </defs>
      <g>
       <use xlink:href="#ma9871ad229" x="295.2" y="384.48" style="stroke: #000000; stroke-width: 0.8"/>
      </g>
     </g>
     <g id="text_1">
      <!-- 1 -->
      <g transform="translate(292.01875 399.078438) scale(0.1 -0.1)">
       <defs>
        <path id="DejaVuSans-31" d="M 794 531 
L 1825 531 
L 1825 4091 
L 703 3866 
L 703 4441 
L 1819 4666 
L 2450 4666 
L 2450 531 
L 3481 531 
L 3481 0 
L 794 0 
L 794 531 
z
" transform="scale(0.015625)"/>
       </defs>
       <use xlink:href="#DejaVuSans-31"/>
      </g>
     </g>
    </g>
   </g>
   <g id="matplotlib.axis_2">
    <g id="ytick_1">
     <g id="line2d_2">
      <defs>
       <path id="m14f631eb42" d="M 0 0 
L -3.5 0 
" style="stroke: #000000; stroke-width: 0.8"/>
      </defs>
      <g>
       <use xlink:href="#m14f631eb42" x="72" y="384.48" style="stroke: #000000; stroke-width: 0.8"/>
      </g>
     </g>
     <g id="text_2">
      <!-- 0 -->
      <g transform="translate(58.6375 388.279219) scale(0.1 -0.1)">
       <defs>
        <path id="DejaVuSans-30" d="M 2034 4250 
Q 1547 4250 1301 3770 
Q 1056 3291 1056 2328 
Q 1056 1369 1301 889 
Q 1547 409 2034 409 
Q 2525 409 2770 889 
Q 3016 1369 3016 2328 
Q 3016 3291 2770 3770 
Q 2525 4250 2034 4250 
z
M 2034 4750 
Q 2819 4750 3233 4129 
Q 3647 3509 3647 2328 
Q 3647 1150 3233 529 
Q 2819 -91 2034 -91 
Q 1250 -91 836 529 
Q 422 1150 422 2328 
Q 422 3509 836 4129 
Q 1250 4750 2034 4750 
z
" transform="scale(0.015625)"/>
       </defs>
       <use xlink:href="#DejaVuSans-30"/>
      </g>
     </g>
    </g>
    <g id="ytick_2">
     <g id="line2d_3">
      <g>
       <use xlink:href="#m14f631eb42" x="72" y="329.45302" style="stroke: #000000; stroke-width: 0.8"/>
      </g>
     </g>
     <g id="text_3">
      <!-- 2 -->
      <g transform="translate(58.6375 333.252239) scale(0.1 -0.1)">
       <defs>
        <path id="DejaVuSans-32" d="M 1228 531 
L 3431 531 
L 3431 0 
L 469 0 
L 469 531 
Q 828 903 1448 1529 
Q 2069 2156 2228 2338 
Q 2531 2678 2651 2914 
Q 2772 3150 2772 3378 
Q 2772 3750 2511 3984 
Q 2250 4219 1831 4219 
Q 1534 4219 1204 4116 
Q 875 4013 500 3803 
L 500 4441 
Q 881 4594 1212 4672 
Q 1544 4750 1819 4750 
Q 2544 4750 2975 4387 
Q 3406 4025 3406 3419 
Q 3406 3131 3298 2873 
Q 3191 2616 2906 2266 
Q 2828 2175 2409 1742 
Q 1991 1309 1228 531 
z
" transform="scale(0.015625)"/>
       </defs>
       <use xlink:href="#DejaVuSans-32"/>
      </g>
     </g>
    </g>
    <g id="ytick_3">
     <g id="line2d_4">
      <g>
       <use xlink:href="#m14f631eb42" x="72" y="274.42604" style="stroke: #000000; stroke-width: 0.8"/>
      </g>
     </g>
     <g id="text_4">
      <!-- 4 -->
      <g transform="translate(58.6375 278.225259) scale(0.1 -0.1)">
       <defs>
        <path id="DejaVuSans-34" d="M 2419 4116 
L 825 1625 
L 2419 1625 
L 2419 4116 
z
M 2253 4666 
L 3047 4666 
L 3047 1625 
L 3713 1625 
L 3713 1100 
L 3047 1100 
L 3047 0 
L 2419 0 
L 2419 1100 
L 313 1100 
L 313 1709 
L 2253 4666 
z
" transform="scale(0.015625)"/>
       </defs>
       <use xlink:href="#DejaVuSans-34"/>
      </g>
     </g>
    </g>
    <g id="ytick_4">
     <g id="line2d_5">
      <g>
       <use xlink:href="#m14f631eb42" x="72" y="219.39906" style="stroke: #000000; stroke-width: 0.8"/>
      </g>
     </g>
     <g id="text_5">
      <!-- 6 -->
      <g transform="translate(58.6375 223.198278) scale(0.1 -0.1)">
       <defs>
        <path id="DejaVuSans-36" d="M 2113 2584 
Q 1688 2584 1439 2293 
Q 1191 2003 1191 1497 
Q 1191 994 1439 701 
Q 1688 409 2113 409 
Q 2538 409 2786 701 
Q 3034 994 3034 1497 
Q 3034 2003 2786 2293 
Q 2538 2584 2113 2584 
z
M 3366 4563 
L 3366 3988 
Q 3128 4100 2886 4159 
Q 2644 4219 2406 4219 
Q 1781 4219 1451 3797 
Q 1122 3375 1075 2522 
Q 1259 2794 1537 2939 
Q 1816 3084 2150 3084 
Q 2853 3084 3261 2657 
Q 3669 2231 3669 1497 
Q 3669 778 3244 343 
Q 2819 -91 2113 -91 
Q 1303 -91 875 529 
Q 447 1150 447 2328 
Q 447 3434 972 4092 
Q 1497 4750 2381 4750 
Q 2619 4750 2861 4703 
Q 3103 4656 3366 4563 
z
" transform="scale(0.015625)"/>
       </defs>
       <use xlink:href="#DejaVuSans-36"/>
      </g>
     </g>
    </g>
    <g id="ytick_5">
     <g id="line2d_6">
      <g>
       <use xlink:href="#m14f631eb42" x="72" y="164.37208" style="stroke: #000000; stroke-width: 0.8"/>
      </g>
     </g>
     <g id="text_6">
      <!-- 8 -->
      <g transform="translate(58.6375 168.171298) scale(0.1 -0.1)">
       <defs>
        <path id="DejaVuSans-38" d="M 2034 2216 
Q 1584 2216 1326 1975 
Q 1069 1734 1069 1313 
Q 1069 891 1326 650 
Q 1584 409 2034 409 
Q 2484 409 2743 651 
Q 3003 894 3003 1313 
Q 3003 1734 2745 1975 
Q 2488 2216 2034 2216 
z
M 1403 2484 
Q 997 2584 770 2862 
Q 544 3141 544 3541 
Q 544 4100 942 4425 
Q 1341 4750 2034 4750 
Q 2731 4750 3128 4425 
Q 3525 4100 3525 3541 
Q 3525 3141 3298 2862 
Q 3072 2584 2669 2484 
Q 3125 2378 3379 2068 
Q 3634 1759 3634 1313 
Q 3634 634 3220 271 
Q 2806 -91 2034 -91 
Q 1263 -91 848 271 
Q 434 634 434 1313 
Q 434 1759 690 2068 
Q 947 2378 1403 2484 
z
M 1172 3481 
Q 1172 3119 1398 2916 
Q 1625 2713 2034 2713 
Q 2441 2713 2670 2916 
Q 2900 3119 2900 3481 
Q 2900 3844 2670 4047 
Q 2441 4250 2034 4250 
Q 1625 4250 1398 4047 
Q 1172 3844 1172 3481 
z
" transform="scale(0.015625)"/>
       </defs>
       <use xlink:href="#DejaVuSans-38"/>
      </g>
     </g>
    </g>
    <g id="ytick_6">
     <g id="line2d_7">
      <g>
       <use xlink:href="#m14f631eb42" x="72" y="109.3451" style="stroke: #000000; stroke-width: 0.8"/>
      </g>
     </g>
     <g id="text_7">
      <!-- 10 -->
      <g transform="translate(52.275 113.144318) scale(0.1 -0.1)">
       <use xlink:href="#DejaVuSans-31"/>
       <use xlink:href="#DejaVuSans-30" transform="translate(63.623047 0)"/>
      </g>
     </g>
    </g>
    <g id="ytick_7">
     <g id="line2d_8">
      <g>
       <use xlink:href="#m14f631eb42" x="72" y="54.318119" style="stroke: #000000; stroke-width: 0.8"/>
      </g>
     </g>
     <g id="text_8">
      <!-- 12 -->
      <g transform="translate(52.275 58.117338) scale(0.1 -0.1)">
       <use xlink:href="#DejaVuSans-31"/>
       <use xlink:href="#DejaVuSans-32" transform="translate(63.623047 0)"/>
      </g>
     </g>
    </g>
    <g id="text_9">
     <!-- Time (ms) -->
     <g transform="translate(46.195312 243.359219) rotate(-90) scale(0.1 -0.1)">
      <defs>
       <path id="DejaVuSans-54" d="M -19 4666 
L 3928 4666 
L 3928 4134 
L 2272 4134 
L 2272 0 
L 1638 0 
L 1638 4134 
L -19 4134 
L -19 4666 
z
" transform="scale(0.015625)"/>
       <path id="DejaVuSans-69" d="M 603 3500 
L 1178 3500 
L 1178 0 
L 603 0 
L 603 3500 
z
M 603 4863 
L 1178 4863 
L 1178 4134 
L 603 4134 
L 603 4863 
z
" transform="scale(0.015625)"/>
       <path id="DejaVuSans-6d" d="M 3328 2828 
Q 3544 3216 3844 3400 
Q 4144 3584 4550 3584 
Q 5097 3584 5394 3201 
Q 5691 2819 5691 2113 
L 5691 0 
L 5113 0 
L 5113 2094 
Q 5113 2597 4934 2840 
Q 4756 3084 4391 3084 
Q 3944 3084 3684 2787 
Q 3425 2491 3425 1978 
L 3425 0 
L 2847 0 
L 2847 2094 
Q 2847 2600 2669 2842 
Q 2491 3084 2119 3084 
Q 1678 3084 1418 2786 
Q 1159 2488 1159 1978 
L 1159 0 
L 581 0 
L 581 3500 
L 1159 3500 
L 1159 2956 
Q 1356 3278 1631 3431 
Q 1906 3584 2284 3584 
Q 2666 3584 2933 3390 
Q 3200 3197 3328 2828 
z
" transform="scale(0.015625)"/>
       <path id="DejaVuSans-65" d="M 3597 1894 
L 3597 1613 
L 953 1613 
Q 991 1019 1311 708 
Q 1631 397 2203 397 
Q 2534 397 2845 478 
Q 3156 559 3463 722 
L 3463 178 
Q 3153 47 2828 -22 
Q 2503 -91 2169 -91 
Q 1331 -91 842 396 
Q 353 884 353 1716 
Q 353 2575 817 3079 
Q 1281 3584 2069 3584 
Q 2775 3584 3186 3129 
Q 3597 2675 3597 1894 
z
M 3022 2063 
Q 3016 2534 2758 2815 
Q 2500 3097 2075 3097 
Q 1594 3097 1305 2825 
Q 1016 2553 972 2059 
L 3022 2063 
z
" transform="scale(0.015625)"/>
       <path id="DejaVuSans-20" transform="scale(0.015625)"/>
       <path id="DejaVuSans-28" d="M 1984 4856 
Q 1566 4138 1362 3434 
Q 1159 2731 1159 2009 
Q 1159 1288 1364 580 
Q 1569 -128 1984 -844 
L 1484 -844 
Q 1016 -109 783 600 
Q 550 1309 550 2009 
Q 550 2706 781 3412 
Q 1013 4119 1484 4856 
L 1984 4856 
z
" transform="scale(0.015625)"/>
       <path id="DejaVuSans-73" d="M 2834 3397 
L 2834 2853 
Q 2591 2978 2328 3040 
Q 2066 3103 1784 3103 
Q 1356 3103 1142 2972 
Q 928 2841 928 2578 
Q 928 2378 1081 2264 
Q 1234 2150 1697 2047 
L 1894 2003 
Q 2506 1872 2764 1633 
Q 3022 1394 3022 966 
Q 3022 478 2636 193 
Q 2250 -91 1575 -91 
Q 1294 -91 989 -36 
Q 684 19 347 128 
L 347 722 
Q 666 556 975 473 
Q 1284 391 1588 391 
Q 1994 391 2212 530 
Q 2431 669 2431 922 
Q 2431 1156 2273 1281 
Q 2116 1406 1581 1522 
L 1381 1569 
Q 847 1681 609 1914 
Q 372 2147 372 2553 
Q 372 3047 722 3315 
Q 1072 3584 1716 3584 
Q 2034 3584 2315 3537 
Q 2597 3491 2834 3397 
z
" transform="scale(0.015625)"/>
       <path id="DejaVuSans-29" d="M 513 4856 
L 1013 4856 
Q 1481 4119 1714 3412 
Q 1947 2706 1947 2009 
Q 1947 1309 1714 600 
Q 1481 -109 1013 -844 
L 513 -844 
Q 928 -128 1133 580 
Q 1338 1288 1338 2009 
Q 1338 2731 1133 3434 
Q 928 4138 513 4856 
z
" transform="scale(0.015625)"/>
      </defs>
      <use xlink:href="#DejaVuSans-54"/>
      <use xlink:href="#DejaVuSans-69" transform="translate(57.958984 0)"/>
      <use xlink:href="#DejaVuSans-6d" transform="translate(85.742188 0)"/>
      <use xlink:href="#DejaVuSans-65" transform="translate(183.154297 0)"/>
      <use xlink:href="#DejaVuSans-20" transform="translate(244.677734 0)"/>
      <use xlink:href="#DejaVuSans-28" transform="translate(276.464844 0)"/>
      <use xlink:href="#DejaVuSans-6d" transform="translate(315.478516 0)"/>
      <use xlink:href="#DejaVuSans-73" transform="translate(412.890625 0)"/>
      <use xlink:href="#DejaVuSans-29" transform="translate(464.990234 0)"/>
     </g>
    </g>
   </g>
   <g id="LineCollection_1">
    <path d="M 239.4 297.113603 
L 351 297.113603 
" clip-path="url(#pf8ede80763)" style="fill: none; stroke: #1f77b4; stroke-width: 1.5"/>
   </g>
   <g id="LineCollection_2">
    <path d="M 239.4 64.932549 
L 351 64.932549 
" clip-path="url(#pf8ede80763)" style="fill: none; stroke: #1f77b4; stroke-width: 1.5"/>
   </g>
   <g id="LineCollection_3">
    <path d="M 239.4 326.783524 
L 351 326.783524 
" clip-path="url(#pf8ede80763)" style="fill: none; stroke: #1f77b4; stroke-width: 1.5"/>
   </g>
   <g id="LineCollection_4">
    <path d="M 295.2 326.783524 
L 295.2 64.932549 
" clip-path="url(#pf8ede80763)" style="fill: none; stroke: #1f77b4; stroke-width: 1.5"/>
   </g>
   <g id="patch_3">
    <path d="M 250.56 310.676528 
L 339.84 310.676528 
L 339.84 291.982886 
L 250.56 291.982886 
L 250.56 310.676528 
z
" clip-path="url(#pf8ede80763)" style="fill: #1f77b4; stroke: #000000; stroke-linejoin: miter"/>
   </g>
   <g id="line2d_9">
    <path d="M 295.2 310.676528 
L 295.2 326.783524 
" clip-path="url(#pf8ede80763)" style="fill: none; stroke: #000000; stroke-linecap: square"/>
   </g>
   <g id="line2d_10">
    <path d="M 295.2 291.982886 
L 295.2 264.102896 
" clip-path="url(#pf8ede80763)" style="fill: none; stroke: #000000; stroke-linecap: square"/>
   </g>
   <g id="line2d_11">
    <path d="M 272.88 326.783524 
L 317.52 326.783524 
" clip-path="url(#pf8ede80763)" style="fill: none; stroke: #000000; stroke-linecap: square"/>
   </g>
   <g id="line2d_12">
    <path d="M 272.88 264.102896 
L 317.52 264.102896 
" clip-path="url(#pf8ede80763)" style="fill: none; stroke: #000000; stroke-linecap: square"/>
   </g>
   <g id="line2d_13">
    <defs>
     <path id="mf7dc351e63" d="M 0 3 
C 0.795609 3 1.55874 2.683901 2.12132 2.12132 
C 2.683901 1.55874 3 0.795609 3 0 
C 3 -0.795609 2.683901 -1.55874 2.12132 -2.12132 
C 1.55874 -2.683901 0.795609 -3 0 -3 
C -0.795609 -3 -1.55874 -2.683901 -2.12132 -2.12132 
C -2.683901 -1.55874 -3 -0.795609 -3 0 
C -3 0.795609 -2.683901 1.55874 -2.12132 2.12132 
C -1.55874 2.683901 -0.795609 3 0 3 
z
" style="stroke: #000000"/>
    </defs>
    <g clip-path="url(#pf8ede80763)">
     <use xlink:href="#mf7dc351e63" x="295.2" y="168.363434" style="fill-opacity: 0; stroke: #000000"/>
     <use xlink:href="#mf7dc351e63" x="295.2" y="252.52632" style="fill-opacity: 0; stroke: #000000"/>
     <use xlink:href="#mf7dc351e63" x="295.2" y="226.293913" style="fill-opacity: 0; stroke: #000000"/>
     <use xlink:href="#mf7dc351e63" x="295.2" y="247.450356" style="fill-opacity: 0; stroke: #000000"/>
     <use xlink:href="#mf7dc351e63" x="295.2" y="151.411437" style="fill-opacity: 0; stroke: #000000"/>
     <use xlink:href="#mf7dc351e63" x="295.2" y="242.820028" style="fill-opacity: 0; stroke: #000000"/>
     <use xlink:href="#mf7dc351e63" x="295.2" y="263.740818" style="fill-opacity: 0; stroke: #000000"/>
     <use xlink:href="#mf7dc351e63" x="295.2" y="118.163586" style="fill-opacity: 0; stroke: #000000"/>
     <use xlink:href="#mf7dc351e63" x="295.2" y="258.282747" style="fill-opacity: 0; stroke: #000000"/>
     <use xlink:href="#mf7dc351e63" x="295.2" y="232.087924" style="fill-opacity: 0; stroke: #000000"/>
     <use xlink:href="#mf7dc351e63" x="295.2" y="241.010328" style="fill-opacity: 0; stroke: #000000"/>
     <use xlink:href="#mf7dc351e63" x="295.2" y="263.747146" style="fill-opacity: 0; stroke: #000000"/>
     <use xlink:href="#mf7dc351e63" x="295.2" y="257.405865" style="fill-opacity: 0; stroke: #000000"/>
     <use xlink:href="#mf7dc351e63" x="295.2" y="249.639687" style="fill-opacity: 0; stroke: #000000"/>
     <use xlink:href="#mf7dc351e63" x="295.2" y="261.813086" style="fill-opacity: 0; stroke: #000000"/>
     <use xlink:href="#mf7dc351e63" x="295.2" y="64.932549" style="fill-opacity: 0; stroke: #000000"/>
     <use xlink:href="#mf7dc351e63" x="295.2" y="72.574118" style="fill-opacity: 0; stroke: #000000"/>
     <use xlink:href="#mf7dc351e63" x="295.2" y="232.848259" style="fill-opacity: 0; stroke: #000000"/>
     <use xlink:href="#mf7dc351e63" x="295.2" y="239.552636" style="fill-opacity: 0; stroke: #000000"/>
     <use xlink:href="#mf7dc351e63" x="295.2" y="254.411902" style="fill-opacity: 0; stroke: #000000"/>
     <use xlink:href="#mf7dc351e63" x="295.2" y="251.140548" style="fill-opacity: 0; stroke: #000000"/>
     <use xlink:href="#mf7dc351e63" x="295.2" y="127.707933" style="fill-opacity: 0; stroke: #000000"/>
     <use xlink:href="#mf7dc351e63" x="295.2" y="254.282396" style="fill-opacity: 0; stroke: #000000"/>
     <use xlink:href="#mf7dc351e63" x="295.2" y="261.013461" style="fill-opacity: 0; stroke: #000000"/>
     <use xlink:href="#mf7dc351e63" x="295.2" y="260.554784" style="fill-opacity: 0; stroke: #000000"/>
     <use xlink:href="#mf7dc351e63" x="295.2" y="135.073872" style="fill-opacity: 0; stroke: #000000"/>
     <use xlink:href="#mf7dc351e63" x="295.2" y="244.820754" style="fill-opacity: 0; stroke: #000000"/>
     <use xlink:href="#mf7dc351e63" x="295.2" y="252.695198" style="fill-opacity: 0; stroke: #000000"/>
     <use xlink:href="#mf7dc351e63" x="295.2" y="258.35962" style="fill-opacity: 0; stroke: #000000"/>
     <use xlink:href="#mf7dc351e63" x="295.2" y="259.500769" style="fill-opacity: 0; stroke: #000000"/>
     <use xlink:href="#mf7dc351e63" x="295.2" y="203.637462" style="fill-opacity: 0; stroke: #000000"/>
     <use xlink:href="#mf7dc351e63" x="295.2" y="258.896215" style="fill-opacity: 0; stroke: #000000"/>
     <use xlink:href="#mf7dc351e63" x="295.2" y="247.529485" style="fill-opacity: 0; stroke: #000000"/>
     <use xlink:href="#mf7dc351e63" x="295.2" y="164.309569" style="fill-opacity: 0; stroke: #000000"/>
     <use xlink:href="#mf7dc351e63" x="295.2" y="158.519135" style="fill-opacity: 0; stroke: #000000"/>
     <use xlink:href="#mf7dc351e63" x="295.2" y="258.1049" style="fill-opacity: 0; stroke: #000000"/>
     <use xlink:href="#mf7dc351e63" x="295.2" y="260.358365" style="fill-opacity: 0; stroke: #000000"/>
     <use xlink:href="#mf7dc351e63" x="295.2" y="254.735185" style="fill-opacity: 0; stroke: #000000"/>
     <use xlink:href="#mf7dc351e63" x="295.2" y="263.008244" style="fill-opacity: 0; stroke: #000000"/>
     <use xlink:href="#mf7dc351e63" x="295.2" y="118.204608" style="fill-opacity: 0; stroke: #000000"/>
     <use xlink:href="#mf7dc351e63" x="295.2" y="249.02952" style="fill-opacity: 0; stroke: #000000"/>
     <use xlink:href="#mf7dc351e63" x="295.2" y="261.731948" style="fill-opacity: 0; stroke: #000000"/>
     <use xlink:href="#mf7dc351e63" x="295.2" y="245.971836" style="fill-opacity: 0; stroke: #000000"/>
     <use xlink:href="#mf7dc351e63" x="295.2" y="146.765317" style="fill-opacity: 0; stroke: #000000"/>
     <use xlink:href="#mf7dc351e63" x="295.2" y="244.478376" style="fill-opacity: 0; stroke: #000000"/>
     <use xlink:href="#mf7dc351e63" x="295.2" y="240.876475" style="fill-opacity: 0; stroke: #000000"/>
     <use xlink:href="#mf7dc351e63" x="295.2" y="104.673171" style="fill-opacity: 0; stroke: #000000"/>
     <use xlink:href="#mf7dc351e63" x="295.2" y="180.753529" style="fill-opacity: 0; stroke: #000000"/>
     <use xlink:href="#mf7dc351e63" x="295.2" y="246.957617" style="fill-opacity: 0; stroke: #000000"/>
     <use xlink:href="#mf7dc351e63" x="295.2" y="153.483919" style="fill-opacity: 0; stroke: #000000"/>
     <use xlink:href="#mf7dc351e63" x="295.2" y="222.909313" style="fill-opacity: 0; stroke: #000000"/>
     <use xlink:href="#mf7dc351e63" x="295.2" y="260.012163" style="fill-opacity: 0; stroke: #000000"/>
     <use xlink:href="#mf7dc351e63" x="295.2" y="254.12722" style="fill-opacity: 0; stroke: #000000"/>
     <use xlink:href="#mf7dc351e63" x="295.2" y="250.68586" style="fill-opacity: 0; stroke: #000000"/>
     <use xlink:href="#mf7dc351e63" x="295.2" y="206.863391" style="fill-opacity: 0; stroke: #000000"/>
     <use xlink:href="#mf7dc351e63" x="295.2" y="228.175918" style="fill-opacity: 0; stroke: #000000"/>
     <use xlink:href="#mf7dc351e63" x="295.2" y="252.549651" style="fill-opacity: 0; stroke: #000000"/>
     <use xlink:href="#mf7dc351e63" x="295.2" y="230.914226" style="fill-opacity: 0; stroke: #000000"/>
     <use xlink:href="#mf7dc351e63" x="295.2" y="241.744911" style="fill-opacity: 0; stroke: #000000"/>
     <use xlink:href="#mf7dc351e63" x="295.2" y="128.028713" style="fill-opacity: 0; stroke: #000000"/>
     <use xlink:href="#mf7dc351e63" x="295.2" y="197.594784" style="fill-opacity: 0; stroke: #000000"/>
     <use xlink:href="#mf7dc351e63" x="295.2" y="253.959828" style="fill-opacity: 0; stroke: #000000"/>
     <use xlink:href="#mf7dc351e63" x="295.2" y="222.730173" style="fill-opacity: 0; stroke: #000000"/>
     <use xlink:href="#mf7dc351e63" x="295.2" y="260.763226" style="fill-opacity: 0; stroke: #000000"/>
     <use xlink:href="#mf7dc351e63" x="295.2" y="256.484438" style="fill-opacity: 0; stroke: #000000"/>
     <use xlink:href="#mf7dc351e63" x="295.2" y="243.186535" style="fill-opacity: 0; stroke: #000000"/>
     <use xlink:href="#mf7dc351e63" x="295.2" y="254.121992" style="fill-opacity: 0; stroke: #000000"/>
     <use xlink:href="#mf7dc351e63" x="295.2" y="151.145409" style="fill-opacity: 0; stroke: #000000"/>
     <use xlink:href="#mf7dc351e63" x="295.2" y="254.752409" style="fill-opacity: 0; stroke: #000000"/>
     <use xlink:href="#mf7dc351e63" x="295.2" y="253.007476" style="fill-opacity: 0; stroke: #000000"/>
    </g>
   </g>
   <g id="line2d_14">
    <path d="M 250.56 303.310747 
L 339.84 303.310747 
" clip-path="url(#pf8ede80763)" style="fill: none; stroke: #ff7f0e"/>
   </g>
   <g id="patch_4">
    <path d="M 72 384.48 
L 72 51.84 
" style="fill: none; stroke: #000000; stroke-width: 0.8; stroke-linejoin: miter; stroke-linecap: square"/>
   </g>
   <g id="patch_5">
    <path d="M 518.4 384.48 
L 518.4 51.84 
" style="fill: none; stroke: #000000; stroke-width: 0.8; stroke-linejoin: miter; stroke-linecap: square"/>
   </g>
   <g id="patch_6">
    <path d="M 72 384.48 
L 518.4 384.48 
" style="fill: none; stroke: #000000; stroke-width: 0.8; stroke-linejoin: miter; stroke-linecap: square"/>
   </g>
   <g id="patch_7">
    <path d="M 72 51.84 
L 518.4 51.84 
" style="fill: none; stroke: #000000; stroke-width: 0.8; stroke-linejoin: miter; stroke-linecap: square"/>
   </g>
   <g id="text_10">
    <!-- Unregister Faultload -->
    <g transform="translate(234.737812 45.84) scale(0.12 -0.12)">
     <defs>
      <path id="DejaVuSans-55" d="M 556 4666 
L 1191 4666 
L 1191 1831 
Q 1191 1081 1462 751 
Q 1734 422 2344 422 
Q 2950 422 3222 751 
Q 3494 1081 3494 1831 
L 3494 4666 
L 4128 4666 
L 4128 1753 
Q 4128 841 3676 375 
Q 3225 -91 2344 -91 
Q 1459 -91 1007 375 
Q 556 841 556 1753 
L 556 4666 
z
" transform="scale(0.015625)"/>
      <path id="DejaVuSans-6e" d="M 3513 2113 
L 3513 0 
L 2938 0 
L 2938 2094 
Q 2938 2591 2744 2837 
Q 2550 3084 2163 3084 
Q 1697 3084 1428 2787 
Q 1159 2491 1159 1978 
L 1159 0 
L 581 0 
L 581 3500 
L 1159 3500 
L 1159 2956 
Q 1366 3272 1645 3428 
Q 1925 3584 2291 3584 
Q 2894 3584 3203 3211 
Q 3513 2838 3513 2113 
z
" transform="scale(0.015625)"/>
      <path id="DejaVuSans-72" d="M 2631 2963 
Q 2534 3019 2420 3045 
Q 2306 3072 2169 3072 
Q 1681 3072 1420 2755 
Q 1159 2438 1159 1844 
L 1159 0 
L 581 0 
L 581 3500 
L 1159 3500 
L 1159 2956 
Q 1341 3275 1631 3429 
Q 1922 3584 2338 3584 
Q 2397 3584 2469 3576 
Q 2541 3569 2628 3553 
L 2631 2963 
z
" transform="scale(0.015625)"/>
      <path id="DejaVuSans-67" d="M 2906 1791 
Q 2906 2416 2648 2759 
Q 2391 3103 1925 3103 
Q 1463 3103 1205 2759 
Q 947 2416 947 1791 
Q 947 1169 1205 825 
Q 1463 481 1925 481 
Q 2391 481 2648 825 
Q 2906 1169 2906 1791 
z
M 3481 434 
Q 3481 -459 3084 -895 
Q 2688 -1331 1869 -1331 
Q 1566 -1331 1297 -1286 
Q 1028 -1241 775 -1147 
L 775 -588 
Q 1028 -725 1275 -790 
Q 1522 -856 1778 -856 
Q 2344 -856 2625 -561 
Q 2906 -266 2906 331 
L 2906 616 
Q 2728 306 2450 153 
Q 2172 0 1784 0 
Q 1141 0 747 490 
Q 353 981 353 1791 
Q 353 2603 747 3093 
Q 1141 3584 1784 3584 
Q 2172 3584 2450 3431 
Q 2728 3278 2906 2969 
L 2906 3500 
L 3481 3500 
L 3481 434 
z
" transform="scale(0.015625)"/>
      <path id="DejaVuSans-74" d="M 1172 4494 
L 1172 3500 
L 2356 3500 
L 2356 3053 
L 1172 3053 
L 1172 1153 
Q 1172 725 1289 603 
Q 1406 481 1766 481 
L 2356 481 
L 2356 0 
L 1766 0 
Q 1100 0 847 248 
Q 594 497 594 1153 
L 594 3053 
L 172 3053 
L 172 3500 
L 594 3500 
L 594 4494 
L 1172 4494 
z
" transform="scale(0.015625)"/>
      <path id="DejaVuSans-46" d="M 628 4666 
L 3309 4666 
L 3309 4134 
L 1259 4134 
L 1259 2759 
L 3109 2759 
L 3109 2228 
L 1259 2228 
L 1259 0 
L 628 0 
L 628 4666 
z
" transform="scale(0.015625)"/>
      <path id="DejaVuSans-61" d="M 2194 1759 
Q 1497 1759 1228 1600 
Q 959 1441 959 1056 
Q 959 750 1161 570 
Q 1363 391 1709 391 
Q 2188 391 2477 730 
Q 2766 1069 2766 1631 
L 2766 1759 
L 2194 1759 
z
M 3341 1997 
L 3341 0 
L 2766 0 
L 2766 531 
Q 2569 213 2275 61 
Q 1981 -91 1556 -91 
Q 1019 -91 701 211 
Q 384 513 384 1019 
Q 384 1609 779 1909 
Q 1175 2209 1959 2209 
L 2766 2209 
L 2766 2266 
Q 2766 2663 2505 2880 
Q 2244 3097 1772 3097 
Q 1472 3097 1187 3025 
Q 903 2953 641 2809 
L 641 3341 
Q 956 3463 1253 3523 
Q 1550 3584 1831 3584 
Q 2591 3584 2966 3190 
Q 3341 2797 3341 1997 
z
" transform="scale(0.015625)"/>
      <path id="DejaVuSans-75" d="M 544 1381 
L 544 3500 
L 1119 3500 
L 1119 1403 
Q 1119 906 1312 657 
Q 1506 409 1894 409 
Q 2359 409 2629 706 
Q 2900 1003 2900 1516 
L 2900 3500 
L 3475 3500 
L 3475 0 
L 2900 0 
L 2900 538 
Q 2691 219 2414 64 
Q 2138 -91 1772 -91 
Q 1169 -91 856 284 
Q 544 659 544 1381 
z
M 1991 3584 
L 1991 3584 
z
" transform="scale(0.015625)"/>
      <path id="DejaVuSans-6c" d="M 603 4863 
L 1178 4863 
L 1178 0 
L 603 0 
L 603 4863 
z
" transform="scale(0.015625)"/>
      <path id="DejaVuSans-6f" d="M 1959 3097 
Q 1497 3097 1228 2736 
Q 959 2375 959 1747 
Q 959 1119 1226 758 
Q 1494 397 1959 397 
Q 2419 397 2687 759 
Q 2956 1122 2956 1747 
Q 2956 2369 2687 2733 
Q 2419 3097 1959 3097 
z
M 1959 3584 
Q 2709 3584 3137 3096 
Q 3566 2609 3566 1747 
Q 3566 888 3137 398 
Q 2709 -91 1959 -91 
Q 1206 -91 779 398 
Q 353 888 353 1747 
Q 353 2609 779 3096 
Q 1206 3584 1959 3584 
z
" transform="scale(0.015625)"/>
      <path id="DejaVuSans-64" d="M 2906 2969 
L 2906 4863 
L 3481 4863 
L 3481 0 
L 2906 0 
L 2906 525 
Q 2725 213 2448 61 
Q 2172 -91 1784 -91 
Q 1150 -91 751 415 
Q 353 922 353 1747 
Q 353 2572 751 3078 
Q 1150 3584 1784 3584 
Q 2172 3584 2448 3432 
Q 2725 3281 2906 2969 
z
M 947 1747 
Q 947 1113 1208 752 
Q 1469 391 1925 391 
Q 2381 391 2643 752 
Q 2906 1113 2906 1747 
Q 2906 2381 2643 2742 
Q 2381 3103 1925 3103 
Q 1469 3103 1208 2742 
Q 947 2381 947 1747 
z
" transform="scale(0.015625)"/>
     </defs>
     <use xlink:href="#DejaVuSans-55"/>
     <use xlink:href="#DejaVuSans-6e" transform="translate(73.193359 0)"/>
     <use xlink:href="#DejaVuSans-72" transform="translate(136.572266 0)"/>
     <use xlink:href="#DejaVuSans-65" transform="translate(175.435547 0)"/>
     <use xlink:href="#DejaVuSans-67" transform="translate(236.958984 0)"/>
     <use xlink:href="#DejaVuSans-69" transform="translate(300.435547 0)"/>
     <use xlink:href="#DejaVuSans-73" transform="translate(328.21875 0)"/>
     <use xlink:href="#DejaVuSans-74" transform="translate(380.318359 0)"/>
     <use xlink:href="#DejaVuSans-65" transform="translate(419.527344 0)"/>
     <use xlink:href="#DejaVuSans-72" transform="translate(481.050781 0)"/>
     <use xlink:href="#DejaVuSans-20" transform="translate(522.164062 0)"/>
     <use xlink:href="#DejaVuSans-46" transform="translate(553.951172 0)"/>
     <use xlink:href="#DejaVuSans-61" transform="translate(602.345703 0)"/>
     <use xlink:href="#DejaVuSans-75" transform="translate(663.625 0)"/>
     <use xlink:href="#DejaVuSans-6c" transform="translate(727.003906 0)"/>
     <use xlink:href="#DejaVuSans-74" transform="translate(754.787109 0)"/>
     <use xlink:href="#DejaVuSans-6c" transform="translate(793.996094 0)"/>
     <use xlink:href="#DejaVuSans-6f" transform="translate(821.779297 0)"/>
     <use xlink:href="#DejaVuSans-61" transform="translate(882.960938 0)"/>
     <use xlink:href="#DejaVuSans-64" transform="translate(944.240234 0)"/>
    </g>
   </g>
  </g>
 </g>
 <defs>
  <clipPath id="pf8ede80763">
   <rect x="72" y="51.84" width="446.4" height="332.64"/>
  </clipPath>
 </defs>
</svg>
