<?xml version="1.0" encoding="utf-8" standalone="no"?>
<!DOCTYPE svg PUBLIC "-//W3C//DTD SVG 1.1//EN"
  "http://www.w3.org/Graphics/SVG/1.1/DTD/svg11.dtd">
<svg xmlns:xlink="http://www.w3.org/1999/xlink" width="720pt" height="432pt" viewBox="0 0 720 432" xmlns="http://www.w3.org/2000/svg" version="1.1">
 <metadata>
  <rdf:RDF xmlns:dc="http://purl.org/dc/elements/1.1/" xmlns:cc="http://creativecommons.org/ns#" xmlns:rdf="http://www.w3.org/1999/02/22-rdf-syntax-ns#">
   <cc:Work>
    <dc:type rdf:resource="http://purl.org/dc/dcmitype/StillImage"/>
    <dc:date>2025-09-30T20:42:45.970546</dc:date>
    <dc:format>image/svg+xml</dc:format>
    <dc:creator>
     <cc:Agent>
      <dc:title>Matplotlib v3.10.3, https://matplotlib.org/</dc:title>
     </cc:Agent>
    </dc:creator>
   </cc:Work>
  </rdf:RDF>
 </metadata>
 <defs>
  <style type="text/css">*{stroke-linejoin: round; stroke-linecap: butt}</style>
 </defs>
 <g id="figure_1">
  <g id="patch_1">
   <path d="M 0 432 
L 720 432 
L 720 0 
L 0 0 
z
" style="fill: #ffffff"/>
  </g>
  <g id="axes_1">
   <g id="patch_2">
    <path d="M 90 384.48 
L 648 384.48 
L 648 51.84 
L 90 51.84 
z
" style="fill: #ffffff"/>
   </g>
   <g id="matplotlib.axis_1">
    <g id="xtick_1">
     <g id="line2d_1">
      <defs>
       <path id="m80bd80ac6d" d="M 0 0 
L 0 3.5 
" style="stroke: #000000; stroke-width: 0.8"/>
      </defs>
      <g>
       <use xlink:href="#m80bd80ac6d" x="115.363636" y="384.48" style="stroke: #000000; stroke-width: 0.8"/>
      </g>
     </g>
     <g id="text_1">
      <!-- 0 -->
      <g transform="translate(112.182386 399.078438) scale(0.1 -0.1)">
       <defs>
        <path id="DejaVuSans-30" d="M 2034 4250 
Q 1547 4250 1301 3770 
Q 1056 3291 1056 2328 
Q 1056 1369 1301 889 
Q 1547 409 2034 409 
Q 2525 409 2770 889 
Q 3016 1369 3016 2328 
Q 3016 3291 2770 3770 
Q 2525 4250 2034 4250 
z
M 2034 4750 
Q 2819 4750 3233 4129 
Q 3647 3509 3647 2328 
Q 3647 1150 3233 529 
Q 2819 -91 2034 -91 
Q 1250 -91 836 529 
Q 422 1150 422 2328 
Q 422 3509 836 4129 
Q 1250 4750 2034 4750 
z
" transform="scale(0.015625)"/>
       </defs>
       <use xlink:href="#DejaVuSans-30"/>
      </g>
     </g>
    </g>
    <g id="xtick_2">
     <g id="line2d_2">
      <g>
       <use xlink:href="#m80bd80ac6d" x="185.043956" y="384.48" style="stroke: #000000; stroke-width: 0.8"/>
      </g>
     </g>
     <g id="text_2">
      <!-- 100 -->
      <g transform="translate(175.500206 399.078438) scale(0.1 -0.1)">
       <defs>
        <path id="DejaVuSans-31" d="M 794 531 
L 1825 531 
L 1825 4091 
L 703 3866 
L 703 4441 
L 1819 4666 
L 2450 4666 
L 2450 531 
L 3481 531 
L 3481 0 
L 794 0 
L 794 531 
z
" transform="scale(0.015625)"/>
       </defs>
       <use xlink:href="#DejaVuSans-31"/>
       <use xlink:href="#DejaVuSans-30" transform="translate(63.623047 0)"/>
       <use xlink:href="#DejaVuSans-30" transform="translate(127.246094 0)"/>
      </g>
     </g>
    </g>
    <g id="xtick_3">
     <g id="line2d_3">
      <g>
       <use xlink:href="#m80bd80ac6d" x="254.724276" y="384.48" style="stroke: #000000; stroke-width: 0.8"/>
      </g>
     </g>
     <g id="text_3">
      <!-- 200 -->
      <g transform="translate(245.180526 399.078438) scale(0.1 -0.1)">
       <defs>
        <path id="DejaVuSans-32" d="M 1228 531 
L 3431 531 
L 3431 0 
L 469 0 
L 469 531 
Q 828 903 1448 1529 
Q 2069 2156 2228 2338 
Q 2531 2678 2651 2914 
Q 2772 3150 2772 3378 
Q 2772 3750 2511 3984 
Q 2250 4219 1831 4219 
Q 1534 4219 1204 4116 
Q 875 4013 500 3803 
L 500 4441 
Q 881 4594 1212 4672 
Q 1544 4750 1819 4750 
Q 2544 4750 2975 4387 
Q 3406 4025 3406 3419 
Q 3406 3131 3298 2873 
Q 3191 2616 2906 2266 
Q 2828 2175 2409 1742 
Q 1991 1309 1228 531 
z
" transform="scale(0.015625)"/>
       </defs>
       <use xlink:href="#DejaVuSans-32"/>
       <use xlink:href="#DejaVuSans-30" transform="translate(63.623047 0)"/>
       <use xlink:href="#DejaVuSans-30" transform="translate(127.246094 0)"/>
      </g>
     </g>
    </g>
    <g id="xtick_4">
     <g id="line2d_4">
      <g>
       <use xlink:href="#m80bd80ac6d" x="324.404595" y="384.48" style="stroke: #000000; stroke-width: 0.8"/>
      </g>
     </g>
     <g id="text_4">
      <!-- 300 -->
      <g transform="translate(314.860845 399.078438) scale(0.1 -0.1)">
       <defs>
        <path id="DejaVuSans-33" d="M 2597 2516 
Q 3050 2419 3304 2112 
Q 3559 1806 3559 1356 
Q 3559 666 3084 287 
Q 2609 -91 1734 -91 
Q 1441 -91 1130 -33 
Q 819 25 488 141 
L 488 750 
Q 750 597 1062 519 
Q 1375 441 1716 441 
Q 2309 441 2620 675 
Q 2931 909 2931 1356 
Q 2931 1769 2642 2001 
Q 2353 2234 1838 2234 
L 1294 2234 
L 1294 2753 
L 1863 2753 
Q 2328 2753 2575 2939 
Q 2822 3125 2822 3475 
Q 2822 3834 2567 4026 
Q 2313 4219 1838 4219 
Q 1578 4219 1281 4162 
Q 984 4106 628 3988 
L 628 4550 
Q 988 4650 1302 4700 
Q 1616 4750 1894 4750 
Q 2613 4750 3031 4423 
Q 3450 4097 3450 3541 
Q 3450 3153 3228 2886 
Q 3006 2619 2597 2516 
z
" transform="scale(0.015625)"/>
       </defs>
       <use xlink:href="#DejaVuSans-33"/>
       <use xlink:href="#DejaVuSans-30" transform="translate(63.623047 0)"/>
       <use xlink:href="#DejaVuSans-30" transform="translate(127.246094 0)"/>
      </g>
     </g>
    </g>
    <g id="xtick_5">
     <g id="line2d_5">
      <g>
       <use xlink:href="#m80bd80ac6d" x="394.084915" y="384.48" style="stroke: #000000; stroke-width: 0.8"/>
      </g>
     </g>
     <g id="text_5">
      <!-- 400 -->
      <g transform="translate(384.541165 399.078438) scale(0.1 -0.1)">
       <defs>
        <path id="DejaVuSans-34" d="M 2419 4116 
L 825 1625 
L 2419 1625 
L 2419 4116 
z
M 2253 4666 
L 3047 4666 
L 3047 1625 
L 3713 1625 
L 3713 1100 
L 3047 1100 
L 3047 0 
L 2419 0 
L 2419 1100 
L 313 1100 
L 313 1709 
L 2253 4666 
z
" transform="scale(0.015625)"/>
       </defs>
       <use xlink:href="#DejaVuSans-34"/>
       <use xlink:href="#DejaVuSans-30" transform="translate(63.623047 0)"/>
       <use xlink:href="#DejaVuSans-30" transform="translate(127.246094 0)"/>
      </g>
     </g>
    </g>
    <g id="xtick_6">
     <g id="line2d_6">
      <g>
       <use xlink:href="#m80bd80ac6d" x="463.765235" y="384.48" style="stroke: #000000; stroke-width: 0.8"/>
      </g>
     </g>
     <g id="text_6">
      <!-- 500 -->
      <g transform="translate(454.221485 399.078438) scale(0.1 -0.1)">
       <defs>
        <path id="DejaVuSans-35" d="M 691 4666 
L 3169 4666 
L 3169 4134 
L 1269 4134 
L 1269 2991 
Q 1406 3038 1543 3061 
Q 1681 3084 1819 3084 
Q 2600 3084 3056 2656 
Q 3513 2228 3513 1497 
Q 3513 744 3044 326 
Q 2575 -91 1722 -91 
Q 1428 -91 1123 -41 
Q 819 9 494 109 
L 494 744 
Q 775 591 1075 516 
Q 1375 441 1709 441 
Q 2250 441 2565 725 
Q 2881 1009 2881 1497 
Q 2881 1984 2565 2268 
Q 2250 2553 1709 2553 
Q 1456 2553 1204 2497 
Q 953 2441 691 2322 
L 691 4666 
z
" transform="scale(0.015625)"/>
       </defs>
       <use xlink:href="#DejaVuSans-35"/>
       <use xlink:href="#DejaVuSans-30" transform="translate(63.623047 0)"/>
       <use xlink:href="#DejaVuSans-30" transform="translate(127.246094 0)"/>
      </g>
     </g>
    </g>
    <g id="xtick_7">
     <g id="line2d_7">
      <g>
       <use xlink:href="#m80bd80ac6d" x="533.445554" y="384.48" style="stroke: #000000; stroke-width: 0.8"/>
      </g>
     </g>
     <g id="text_7">
      <!-- 600 -->
      <g transform="translate(523.901804 399.078438) scale(0.1 -0.1)">
       <defs>
        <path id="DejaVuSans-36" d="M 2113 2584 
Q 1688 2584 1439 2293 
Q 1191 2003 1191 1497 
Q 1191 994 1439 701 
Q 1688 409 2113 409 
Q 2538 409 2786 701 
Q 3034 994 3034 1497 
Q 3034 2003 2786 2293 
Q 2538 2584 2113 2584 
z
M 3366 4563 
L 3366 3988 
Q 3128 4100 2886 4159 
Q 2644 4219 2406 4219 
Q 1781 4219 1451 3797 
Q 1122 3375 1075 2522 
Q 1259 2794 1537 2939 
Q 1816 3084 2150 3084 
Q 2853 3084 3261 2657 
Q 3669 2231 3669 1497 
Q 3669 778 3244 343 
Q 2819 -91 2113 -91 
Q 1303 -91 875 529 
Q 447 1150 447 2328 
Q 447 3434 972 4092 
Q 1497 4750 2381 4750 
Q 2619 4750 2861 4703 
Q 3103 4656 3366 4563 
z
" transform="scale(0.015625)"/>
       </defs>
       <use xlink:href="#DejaVuSans-36"/>
       <use xlink:href="#DejaVuSans-30" transform="translate(63.623047 0)"/>
       <use xlink:href="#DejaVuSans-30" transform="translate(127.246094 0)"/>
      </g>
     </g>
    </g>
    <g id="xtick_8">
     <g id="line2d_8">
      <g>
       <use xlink:href="#m80bd80ac6d" x="603.125874" y="384.48" style="stroke: #000000; stroke-width: 0.8"/>
      </g>
     </g>
     <g id="text_8">
      <!-- 700 -->
      <g transform="translate(593.582124 399.078438) scale(0.1 -0.1)">
       <defs>
        <path id="DejaVuSans-37" d="M 525 4666 
L 3525 4666 
L 3525 4397 
L 1831 0 
L 1172 0 
L 2766 4134 
L 525 4134 
L 525 4666 
z
" transform="scale(0.015625)"/>
       </defs>
       <use xlink:href="#DejaVuSans-37"/>
       <use xlink:href="#DejaVuSans-30" transform="translate(63.623047 0)"/>
       <use xlink:href="#DejaVuSans-30" transform="translate(127.246094 0)"/>
      </g>
     </g>
    </g>
    <g id="text_9">
     <!-- Index -->
     <g transform="translate(355.233594 412.756563) scale(0.1 -0.1)">
      <defs>
       <path id="DejaVuSans-49" d="M 628 4666 
L 1259 4666 
L 1259 0 
L 628 0 
L 628 4666 
z
" transform="scale(0.015625)"/>
       <path id="DejaVuSans-6e" d="M 3513 2113 
L 3513 0 
L 2938 0 
L 2938 2094 
Q 2938 2591 2744 2837 
Q 2550 3084 2163 3084 
Q 1697 3084 1428 2787 
Q 1159 2491 1159 1978 
L 1159 0 
L 581 0 
L 581 3500 
L 1159 3500 
L 1159 2956 
Q 1366 3272 1645 3428 
Q 1925 3584 2291 3584 
Q 2894 3584 3203 3211 
Q 3513 2838 3513 2113 
z
" transform="scale(0.015625)"/>
       <path id="DejaVuSans-64" d="M 2906 2969 
L 2906 4863 
L 3481 4863 
L 3481 0 
L 2906 0 
L 2906 525 
Q 2725 213 2448 61 
Q 2172 -91 1784 -91 
Q 1150 -91 751 415 
Q 353 922 353 1747 
Q 353 2572 751 3078 
Q 1150 3584 1784 3584 
Q 2172 3584 2448 3432 
Q 2725 3281 2906 2969 
z
M 947 1747 
Q 947 1113 1208 752 
Q 1469 391 1925 391 
Q 2381 391 2643 752 
Q 2906 1113 2906 1747 
Q 2906 2381 2643 2742 
Q 2381 3103 1925 3103 
Q 1469 3103 1208 2742 
Q 947 2381 947 1747 
z
" transform="scale(0.015625)"/>
       <path id="DejaVuSans-65" d="M 3597 1894 
L 3597 1613 
L 953 1613 
Q 991 1019 1311 708 
Q 1631 397 2203 397 
Q 2534 397 2845 478 
Q 3156 559 3463 722 
L 3463 178 
Q 3153 47 2828 -22 
Q 2503 -91 2169 -91 
Q 1331 -91 842 396 
Q 353 884 353 1716 
Q 353 2575 817 3079 
Q 1281 3584 2069 3584 
Q 2775 3584 3186 3129 
Q 3597 2675 3597 1894 
z
M 3022 2063 
Q 3016 2534 2758 2815 
Q 2500 3097 2075 3097 
Q 1594 3097 1305 2825 
Q 1016 2553 972 2059 
L 3022 2063 
z
" transform="scale(0.015625)"/>
       <path id="DejaVuSans-78" d="M 3513 3500 
L 2247 1797 
L 3578 0 
L 2900 0 
L 1881 1375 
L 863 0 
L 184 0 
L 1544 1831 
L 300 3500 
L 978 3500 
L 1906 2253 
L 2834 3500 
L 3513 3500 
z
" transform="scale(0.015625)"/>
      </defs>
      <use xlink:href="#DejaVuSans-49"/>
      <use xlink:href="#DejaVuSans-6e" transform="translate(29.492188 0)"/>
      <use xlink:href="#DejaVuSans-64" transform="translate(92.871094 0)"/>
      <use xlink:href="#DejaVuSans-65" transform="translate(156.347656 0)"/>
      <use xlink:href="#DejaVuSans-78" transform="translate(216.121094 0)"/>
     </g>
    </g>
   </g>
   <g id="matplotlib.axis_2">
    <g id="ytick_1">
     <g id="line2d_9">
      <defs>
       <path id="mf6cd911f15" d="M 0 0 
L -3.5 0 
" style="stroke: #000000; stroke-width: 0.8"/>
      </defs>
      <g>
       <use xlink:href="#mf6cd911f15" x="90" y="384.48" style="stroke: #000000; stroke-width: 0.8"/>
      </g>
     </g>
     <g id="text_10">
      <!-- 0.0 -->
      <g transform="translate(67.096875 388.279219) scale(0.1 -0.1)">
       <defs>
        <path id="DejaVuSans-2e" d="M 684 794 
L 1344 794 
L 1344 0 
L 684 0 
L 684 794 
z
" transform="scale(0.015625)"/>
       </defs>
       <use xlink:href="#DejaVuSans-30"/>
       <use xlink:href="#DejaVuSans-2e" transform="translate(63.623047 0)"/>
       <use xlink:href="#DejaVuSans-30" transform="translate(95.410156 0)"/>
      </g>
     </g>
    </g>
    <g id="ytick_2">
     <g id="line2d_10">
      <g>
       <use xlink:href="#mf6cd911f15" x="90" y="339.588081" style="stroke: #000000; stroke-width: 0.8"/>
      </g>
     </g>
     <g id="text_11">
      <!-- 2.5 -->
      <g transform="translate(67.096875 343.3873) scale(0.1 -0.1)">
       <use xlink:href="#DejaVuSans-32"/>
       <use xlink:href="#DejaVuSans-2e" transform="translate(63.623047 0)"/>
       <use xlink:href="#DejaVuSans-35" transform="translate(95.410156 0)"/>
      </g>
     </g>
    </g>
    <g id="ytick_3">
     <g id="line2d_11">
      <g>
       <use xlink:href="#mf6cd911f15" x="90" y="294.696162" style="stroke: #000000; stroke-width: 0.8"/>
      </g>
     </g>
     <g id="text_12">
      <!-- 5.0 -->
      <g transform="translate(67.096875 298.49538) scale(0.1 -0.1)">
       <use xlink:href="#DejaVuSans-35"/>
       <use xlink:href="#DejaVuSans-2e" transform="translate(63.623047 0)"/>
       <use xlink:href="#DejaVuSans-30" transform="translate(95.410156 0)"/>
      </g>
     </g>
    </g>
    <g id="ytick_4">
     <g id="line2d_12">
      <g>
       <use xlink:href="#mf6cd911f15" x="90" y="249.804243" style="stroke: #000000; stroke-width: 0.8"/>
      </g>
     </g>
     <g id="text_13">
      <!-- 7.5 -->
      <g transform="translate(67.096875 253.603461) scale(0.1 -0.1)">
       <use xlink:href="#DejaVuSans-37"/>
       <use xlink:href="#DejaVuSans-2e" transform="translate(63.623047 0)"/>
       <use xlink:href="#DejaVuSans-35" transform="translate(95.410156 0)"/>
      </g>
     </g>
    </g>
    <g id="ytick_5">
     <g id="line2d_13">
      <g>
       <use xlink:href="#mf6cd911f15" x="90" y="204.912323" style="stroke: #000000; stroke-width: 0.8"/>
      </g>
     </g>
     <g id="text_14">
      <!-- 10.0 -->
      <g transform="translate(60.734375 208.711542) scale(0.1 -0.1)">
       <use xlink:href="#DejaVuSans-31"/>
       <use xlink:href="#DejaVuSans-30" transform="translate(63.623047 0)"/>
       <use xlink:href="#DejaVuSans-2e" transform="translate(127.246094 0)"/>
       <use xlink:href="#DejaVuSans-30" transform="translate(159.033203 0)"/>
      </g>
     </g>
    </g>
    <g id="ytick_6">
     <g id="line2d_14">
      <g>
       <use xlink:href="#mf6cd911f15" x="90" y="160.020404" style="stroke: #000000; stroke-width: 0.8"/>
      </g>
     </g>
     <g id="text_15">
      <!-- 12.5 -->
      <g transform="translate(60.734375 163.819623) scale(0.1 -0.1)">
       <use xlink:href="#DejaVuSans-31"/>
       <use xlink:href="#DejaVuSans-32" transform="translate(63.623047 0)"/>
       <use xlink:href="#DejaVuSans-2e" transform="translate(127.246094 0)"/>
       <use xlink:href="#DejaVuSans-35" transform="translate(159.033203 0)"/>
      </g>
     </g>
    </g>
    <g id="ytick_7">
     <g id="line2d_15">
      <g>
       <use xlink:href="#mf6cd911f15" x="90" y="115.128485" style="stroke: #000000; stroke-width: 0.8"/>
      </g>
     </g>
     <g id="text_16">
      <!-- 15.0 -->
      <g transform="translate(60.734375 118.927704) scale(0.1 -0.1)">
       <use xlink:href="#DejaVuSans-31"/>
       <use xlink:href="#DejaVuSans-35" transform="translate(63.623047 0)"/>
       <use xlink:href="#DejaVuSans-2e" transform="translate(127.246094 0)"/>
       <use xlink:href="#DejaVuSans-30" transform="translate(159.033203 0)"/>
      </g>
     </g>
    </g>
    <g id="ytick_8">
     <g id="line2d_16">
      <g>
       <use xlink:href="#mf6cd911f15" x="90" y="70.236566" style="stroke: #000000; stroke-width: 0.8"/>
      </g>
     </g>
     <g id="text_17">
      <!-- 17.5 -->
      <g transform="translate(60.734375 74.035785) scale(0.1 -0.1)">
       <use xlink:href="#DejaVuSans-31"/>
       <use xlink:href="#DejaVuSans-37" transform="translate(63.623047 0)"/>
       <use xlink:href="#DejaVuSans-2e" transform="translate(127.246094 0)"/>
       <use xlink:href="#DejaVuSans-35" transform="translate(159.033203 0)"/>
      </g>
     </g>
    </g>
    <g id="text_18">
     <!-- Average time (ms) -->
     <g transform="translate(54.654687 264.543594) rotate(-90) scale(0.1 -0.1)">
      <defs>
       <path id="DejaVuSans-41" d="M 2188 4044 
L 1331 1722 
L 3047 1722 
L 2188 4044 
z
M 1831 4666 
L 2547 4666 
L 4325 0 
L 3669 0 
L 3244 1197 
L 1141 1197 
L 716 0 
L 50 0 
L 1831 4666 
z
" transform="scale(0.015625)"/>
       <path id="DejaVuSans-76" d="M 191 3500 
L 800 3500 
L 1894 563 
L 2988 3500 
L 3597 3500 
L 2284 0 
L 1503 0 
L 191 3500 
z
" transform="scale(0.015625)"/>
       <path id="DejaVuSans-72" d="M 2631 2963 
Q 2534 3019 2420 3045 
Q 2306 3072 2169 3072 
Q 1681 3072 1420 2755 
Q 1159 2438 1159 1844 
L 1159 0 
L 581 0 
L 581 3500 
L 1159 3500 
L 1159 2956 
Q 1341 3275 1631 3429 
Q 1922 3584 2338 3584 
Q 2397 3584 2469 3576 
Q 2541 3569 2628 3553 
L 2631 2963 
z
" transform="scale(0.015625)"/>
       <path id="DejaVuSans-61" d="M 2194 1759 
Q 1497 1759 1228 1600 
Q 959 1441 959 1056 
Q 959 750 1161 570 
Q 1363 391 1709 391 
Q 2188 391 2477 730 
Q 2766 1069 2766 1631 
L 2766 1759 
L 2194 1759 
z
M 3341 1997 
L 3341 0 
L 2766 0 
L 2766 531 
Q 2569 213 2275 61 
Q 1981 -91 1556 -91 
Q 1019 -91 701 211 
Q 384 513 384 1019 
Q 384 1609 779 1909 
Q 1175 2209 1959 2209 
L 2766 2209 
L 2766 2266 
Q 2766 2663 2505 2880 
Q 2244 3097 1772 3097 
Q 1472 3097 1187 3025 
Q 903 2953 641 2809 
L 641 3341 
Q 956 3463 1253 3523 
Q 1550 3584 1831 3584 
Q 2591 3584 2966 3190 
Q 3341 2797 3341 1997 
z
" transform="scale(0.015625)"/>
       <path id="DejaVuSans-67" d="M 2906 1791 
Q 2906 2416 2648 2759 
Q 2391 3103 1925 3103 
Q 1463 3103 1205 2759 
Q 947 2416 947 1791 
Q 947 1169 1205 825 
Q 1463 481 1925 481 
Q 2391 481 2648 825 
Q 2906 1169 2906 1791 
z
M 3481 434 
Q 3481 -459 3084 -895 
Q 2688 -1331 1869 -1331 
Q 1566 -1331 1297 -1286 
Q 1028 -1241 775 -1147 
L 775 -588 
Q 1028 -725 1275 -790 
Q 1522 -856 1778 -856 
Q 2344 -856 2625 -561 
Q 2906 -266 2906 331 
L 2906 616 
Q 2728 306 2450 153 
Q 2172 0 1784 0 
Q 1141 0 747 490 
Q 353 981 353 1791 
Q 353 2603 747 3093 
Q 1141 3584 1784 3584 
Q 2172 3584 2450 3431 
Q 2728 3278 2906 2969 
L 2906 3500 
L 3481 3500 
L 3481 434 
z
" transform="scale(0.015625)"/>
       <path id="DejaVuSans-20" transform="scale(0.015625)"/>
       <path id="DejaVuSans-74" d="M 1172 4494 
L 1172 3500 
L 2356 3500 
L 2356 3053 
L 1172 3053 
L 1172 1153 
Q 1172 725 1289 603 
Q 1406 481 1766 481 
L 2356 481 
L 2356 0 
L 1766 0 
Q 1100 0 847 248 
Q 594 497 594 1153 
L 594 3053 
L 172 3053 
L 172 3500 
L 594 3500 
L 594 4494 
L 1172 4494 
z
" transform="scale(0.015625)"/>
       <path id="DejaVuSans-69" d="M 603 3500 
L 1178 3500 
L 1178 0 
L 603 0 
L 603 3500 
z
M 603 4863 
L 1178 4863 
L 1178 4134 
L 603 4134 
L 603 4863 
z
" transform="scale(0.015625)"/>
       <path id="DejaVuSans-6d" d="M 3328 2828 
Q 3544 3216 3844 3400 
Q 4144 3584 4550 3584 
Q 5097 3584 5394 3201 
Q 5691 2819 5691 2113 
L 5691 0 
L 5113 0 
L 5113 2094 
Q 5113 2597 4934 2840 
Q 4756 3084 4391 3084 
Q 3944 3084 3684 2787 
Q 3425 2491 3425 1978 
L 3425 0 
L 2847 0 
L 2847 2094 
Q 2847 2600 2669 2842 
Q 2491 3084 2119 3084 
Q 1678 3084 1418 2786 
Q 1159 2488 1159 1978 
L 1159 0 
L 581 0 
L 581 3500 
L 1159 3500 
L 1159 2956 
Q 1356 3278 1631 3431 
Q 1906 3584 2284 3584 
Q 2666 3584 2933 3390 
Q 3200 3197 3328 2828 
z
" transform="scale(0.015625)"/>
       <path id="DejaVuSans-28" d="M 1984 4856 
Q 1566 4138 1362 3434 
Q 1159 2731 1159 2009 
Q 1159 1288 1364 580 
Q 1569 -128 1984 -844 
L 1484 -844 
Q 1016 -109 783 600 
Q 550 1309 550 2009 
Q 550 2706 781 3412 
Q 1013 4119 1484 4856 
L 1984 4856 
z
" transform="scale(0.015625)"/>
       <path id="DejaVuSans-73" d="M 2834 3397 
L 2834 2853 
Q 2591 2978 2328 3040 
Q 2066 3103 1784 3103 
Q 1356 3103 1142 2972 
Q 928 2841 928 2578 
Q 928 2378 1081 2264 
Q 1234 2150 1697 2047 
L 1894 2003 
Q 2506 1872 2764 1633 
Q 3022 1394 3022 966 
Q 3022 478 2636 193 
Q 2250 -91 1575 -91 
Q 1294 -91 989 -36 
Q 684 19 347 128 
L 347 722 
Q 666 556 975 473 
Q 1284 391 1588 391 
Q 1994 391 2212 530 
Q 2431 669 2431 922 
Q 2431 1156 2273 1281 
Q 2116 1406 1581 1522 
L 1381 1569 
Q 847 1681 609 1914 
Q 372 2147 372 2553 
Q 372 3047 722 3315 
Q 1072 3584 1716 3584 
Q 2034 3584 2315 3537 
Q 2597 3491 2834 3397 
z
" transform="scale(0.015625)"/>
       <path id="DejaVuSans-29" d="M 513 4856 
L 1013 4856 
Q 1481 4119 1714 3412 
Q 1947 2706 1947 2009 
Q 1947 1309 1714 600 
Q 1481 -109 1013 -844 
L 513 -844 
Q 928 -128 1133 580 
Q 1338 1288 1338 2009 
Q 1338 2731 1133 3434 
Q 928 4138 513 4856 
z
" transform="scale(0.015625)"/>
      </defs>
      <use xlink:href="#DejaVuSans-41"/>
      <use xlink:href="#DejaVuSans-76" transform="translate(62.533203 0)"/>
      <use xlink:href="#DejaVuSans-65" transform="translate(121.712891 0)"/>
      <use xlink:href="#DejaVuSans-72" transform="translate(183.236328 0)"/>
      <use xlink:href="#DejaVuSans-61" transform="translate(224.349609 0)"/>
      <use xlink:href="#DejaVuSans-67" transform="translate(285.628906 0)"/>
      <use xlink:href="#DejaVuSans-65" transform="translate(349.105469 0)"/>
      <use xlink:href="#DejaVuSans-20" transform="translate(410.628906 0)"/>
      <use xlink:href="#DejaVuSans-74" transform="translate(442.416016 0)"/>
      <use xlink:href="#DejaVuSans-69" transform="translate(481.625 0)"/>
      <use xlink:href="#DejaVuSans-6d" transform="translate(509.408203 0)"/>
      <use xlink:href="#DejaVuSans-65" transform="translate(606.820312 0)"/>
      <use xlink:href="#DejaVuSans-20" transform="translate(668.34375 0)"/>
      <use xlink:href="#DejaVuSans-28" transform="translate(700.130859 0)"/>
      <use xlink:href="#DejaVuSans-6d" transform="translate(739.144531 0)"/>
      <use xlink:href="#DejaVuSans-73" transform="translate(836.556641 0)"/>
      <use xlink:href="#DejaVuSans-29" transform="translate(888.65625 0)"/>
     </g>
    </g>
   </g>
   <g id="line2d_17">
    <path d="M 115.363636 67.126055 
L 116.06044 190.0046 
L 116.757243 280.471972 
L 117.454046 319.339304 
L 118.150849 326.818454 
L 118.847652 331.650522 
L 119.544456 334.637642 
L 120.241259 339.821837 
L 120.938062 336.820846 
L 121.634865 337.513043 
L 122.331668 337.935681 
L 123.028472 343.189233 
L 123.725275 350.056198 
L 124.422078 345.077714 
L 125.118881 343.607344 
L 125.815684 349.984841 
L 126.512488 342.338269 
L 127.209291 350.041978 
L 127.906094 334.586821 
L 128.602897 348.356432 
L 129.2997 344.465814 
L 129.996503 354.091566 
L 130.693307 347.844488 
L 131.39011 348.135912 
L 132.086913 339.969809 
L 132.783716 353.746396 
L 133.480519 362.435175 
L 134.874126 360.821364 
L 135.570929 361.724696 
L 136.267732 363.021029 
L 136.964535 363.577443 
L 137.661339 360.433315 
L 138.358142 358.070423 
L 139.054945 361.78857 
L 140.448551 356.652927 
L 141.145355 359.352432 
L 141.842158 360.928347 
L 142.538961 364.523069 
L 143.235764 365.941306 
L 143.932567 359.852611 
L 144.629371 364.195087 
L 145.326174 363.17652 
L 146.022977 366.391196 
L 146.71978 366.907728 
L 147.416583 366.463903 
L 148.113387 365.562491 
L 148.81019 367.094678 
L 149.506993 365.360839 
L 150.203796 364.57648 
L 150.900599 361.178566 
L 151.597403 351.923845 
L 152.294206 366.338585 
L 152.991009 356.332093 
L 153.687812 366.276896 
L 154.384615 365.864591 
L 155.081419 368.129682 
L 156.475025 369.646864 
L 157.171828 367.916771 
L 157.868631 368.921729 
L 158.565435 368.999562 
L 159.959041 364.931101 
L 160.655844 361.936433 
L 161.352647 367.291529 
L 162.049451 368.476036 
L 162.746254 367.124606 
L 163.443057 369.793986 
L 164.836663 369.448006 
L 165.533467 366.811121 
L 166.23027 367.975558 
L 166.927073 368.834286 
L 167.623876 368.537702 
L 168.320679 368.533877 
L 169.017483 370.887163 
L 169.714286 370.130063 
L 170.411089 369.089228 
L 171.107892 369.318771 
L 171.804695 366.089684 
L 172.501499 368.729034 
L 173.198302 364.662987 
L 173.895105 364.812717 
L 174.591908 368.587049 
L 175.288711 369.45723 
L 175.985514 369.038435 
L 176.682318 369.344485 
L 177.379121 372.735821 
L 178.772727 371.155868 
L 179.46953 372.156066 
L 180.166334 368.264218 
L 181.55994 369.728546 
L 182.953546 368.913971 
L 183.65035 369.020121 
L 184.347153 362.636804 
L 185.043956 368.657385 
L 185.740759 364.678638 
L 186.437562 369.611096 
L 187.134366 370.556071 
L 187.831169 369.764336 
L 188.527972 372.537054 
L 189.224775 371.930574 
L 189.921578 371.911477 
L 190.618382 371.028824 
L 191.315185 369.04082 
L 192.011988 369.98898 
L 192.708791 367.698286 
L 193.405594 369.840041 
L 194.102398 370.745655 
L 194.799201 370.138993 
L 195.496004 370.215492 
L 196.192807 368.170127 
L 196.88961 370.285319 
L 197.586414 371.562093 
L 198.283217 370.563489 
L 198.98002 370.512883 
L 199.676823 369.046842 
L 200.373626 370.271146 
L 201.07043 370.845548 
L 201.767233 372.15286 
L 202.464036 369.434112 
L 203.160839 369.256933 
L 204.554446 366.980149 
L 205.251249 368.380226 
L 205.948052 365.80663 
L 206.644855 367.695398 
L 207.341658 367.790567 
L 208.038462 369.485251 
L 208.735265 369.96604 
L 209.432068 369.889162 
L 210.128871 370.150216 
L 210.825674 372.847157 
L 211.522478 372.722054 
L 212.219281 371.58649 
L 212.916084 367.290344 
L 213.612887 366.774893 
L 214.30969 370.203885 
L 215.006494 369.102514 
L 215.703297 369.364286 
L 216.4001 370.742184 
L 217.096903 368.183327 
L 217.793706 367.627401 
L 218.490509 370.053326 
L 219.187313 369.244067 
L 219.884116 370.746801 
L 220.580919 369.325276 
L 221.277722 369.791479 
L 221.974525 370.487235 
L 222.671329 370.846611 
L 223.368132 370.940947 
L 224.064935 369.107457 
L 224.761738 369.413956 
L 225.458541 370.284121 
L 226.155345 369.940463 
L 226.852148 370.341021 
L 228.245754 370.304283 
L 228.942557 369.733707 
L 229.639361 367.360939 
L 230.336164 369.023585 
L 231.032967 368.012867 
L 231.72977 368.710659 
L 232.426573 368.164389 
L 233.123377 369.87093 
L 233.82018 368.337701 
L 234.516983 368.142933 
L 235.213786 368.234302 
L 235.910589 369.02962 
L 236.607393 369.47382 
L 237.304196 369.422324 
L 238.000999 369.206372 
L 238.697802 369.570171 
L 240.091409 369.55831 
L 240.788212 368.720254 
L 241.485015 367.157713 
L 242.181818 370.246582 
L 243.575425 368.945115 
L 244.272228 369.214422 
L 244.969031 369.171638 
L 245.665834 369.784092 
L 246.362637 367.431584 
L 247.059441 367.901242 
L 247.756244 369.343201 
L 249.14985 369.504858 
L 249.846653 370.03841 
L 250.543457 368.912449 
L 251.937063 369.079068 
L 253.330669 368.525917 
L 254.027473 367.69116 
L 254.724276 367.343165 
L 255.421079 368.93075 
L 256.117882 368.661416 
L 256.814685 367.349177 
L 257.511489 368.649116 
L 258.208292 368.595127 
L 258.905095 368.956258 
L 259.601898 368.045097 
L 260.298701 368.778852 
L 260.995504 368.997537 
L 261.692308 369.068164 
L 262.389111 366.430769 
L 263.085914 369.09852 
L 263.782717 367.503993 
L 264.47952 362.11504 
L 265.176324 369.091271 
L 265.873127 369.139936 
L 266.56993 371.576513 
L 267.266733 371.974345 
L 267.963536 371.391818 
L 268.66034 372.084093 
L 269.357143 362.629903 
L 270.053946 368.408513 
L 270.750749 368.810334 
L 271.447552 367.786929 
L 272.144356 371.696629 
L 272.841159 370.019544 
L 273.537962 369.460191 
L 274.234765 371.327682 
L 274.931568 366.903587 
L 276.325175 368.075929 
L 277.021978 366.831904 
L 277.718781 370.773238 
L 278.415584 368.766144 
L 279.112388 371.286599 
L 279.809191 370.380517 
L 280.505994 367.041633 
L 281.202797 366.889757 
L 281.8996 367.418253 
L 282.596404 367.346439 
L 283.293207 370.511845 
L 283.99001 362.479753 
L 284.686813 367.427939 
L 285.383616 369.456589 
L 286.08042 366.43649 
L 286.777223 366.911774 
L 287.474026 367.014691 
L 288.170829 366.427058 
L 288.867632 366.012359 
L 289.564436 366.046909 
L 290.261239 358.40441 
L 290.958042 367.346599 
L 291.654845 365.879249 
L 292.351648 365.265777 
L 293.048452 365.357644 
L 293.745255 362.415789 
L 294.442058 366.042828 
L 295.138861 366.040193 
L 296.532468 365.776777 
L 297.229271 364.327308 
L 297.926074 365.763257 
L 298.622877 365.295406 
L 299.31968 365.001283 
L 301.41009 365.138029 
L 302.106893 363.521012 
L 302.803696 365.676932 
L 303.5005 366.513392 
L 304.197303 365.258492 
L 304.894106 366.328231 
L 305.590909 364.025848 
L 306.287712 365.156717 
L 306.984515 364.660279 
L 307.681319 364.832202 
L 308.378122 365.67246 
L 309.074925 366.065507 
L 309.771728 366.76959 
L 310.468531 365.026769 
L 311.165335 364.688442 
L 311.862138 358.663156 
L 312.558941 365.210393 
L 313.255744 362.252142 
L 313.952547 366.066436 
L 314.649351 366.385953 
L 315.346154 364.842265 
L 316.042957 362.619163 
L 316.73976 363.39461 
L 317.436563 363.591934 
L 318.133367 363.616457 
L 318.83017 363.215684 
L 319.526973 364.722779 
L 320.223776 364.282657 
L 320.920579 365.051751 
L 321.617383 364.028407 
L 322.314186 365.625082 
L 323.707792 363.901214 
L 324.404595 364.88198 
L 325.101399 364.757915 
L 325.798202 363.801751 
L 326.495005 359.196266 
L 327.191808 364.877726 
L 327.888611 358.583003 
L 328.585415 365.235847 
L 329.282218 365.167028 
L 329.979021 364.048159 
L 330.675824 364.439053 
L 331.372627 364.486924 
L 332.069431 363.689908 
L 332.766234 363.958941 
L 333.463037 370.379287 
L 334.15984 370.225094 
L 334.856643 369.556595 
L 335.553447 369.784106 
L 336.25025 364.635827 
L 336.947053 363.998162 
L 337.643856 363.937181 
L 338.340659 364.252159 
L 339.037463 369.779926 
L 339.734266 369.946615 
L 340.431069 369.625587 
L 341.127872 369.760931 
L 341.824675 364.59806 
L 342.521479 365.143537 
L 343.218282 364.873857 
L 343.915085 364.025555 
L 344.611888 370.377284 
L 345.308691 369.468496 
L 346.005495 369.882866 
L 346.702298 361.78444 
L 347.399101 364.837521 
L 348.095904 364.982021 
L 349.48951 363.904405 
L 350.186314 369.971531 
L 350.883117 369.93525 
L 351.57992 369.460889 
L 352.276723 369.482342 
L 352.973526 364.120482 
L 354.367133 365.027586 
L 355.063936 363.83317 
L 355.760739 364.659029 
L 356.457542 364.887376 
L 357.154346 364.601025 
L 357.851149 362.045222 
L 358.547952 363.111299 
L 359.244755 363.599001 
L 359.941558 363.038547 
L 360.638362 362.762696 
L 361.335165 362.920634 
L 362.031968 362.016949 
L 362.728771 362.918217 
L 363.425574 362.868021 
L 364.122378 357.183765 
L 364.819181 362.364811 
L 365.515984 361.774676 
L 366.212787 360.845933 
L 366.90959 363.269401 
L 367.606394 362.672579 
L 368.303197 363.179366 
L 369 363.097377 
L 369.696803 363.543429 
L 370.393606 362.646057 
L 371.09041 356.842303 
L 371.787213 363.486682 
L 372.484016 361.52788 
L 373.180819 362.403508 
L 373.877622 362.635558 
L 374.574426 362.582742 
L 375.271229 362.250858 
L 375.968032 362.879799 
L 376.664835 362.998014 
L 377.361638 362.953389 
L 378.058442 362.359514 
L 378.755245 361.606481 
L 379.452048 362.573404 
L 380.148851 361.816185 
L 380.845654 361.72517 
L 381.542458 360.963212 
L 382.239261 351.269307 
L 382.936064 359.80681 
L 383.632867 361.199187 
L 385.026474 362.599201 
L 385.723277 361.968732 
L 386.42008 362.60761 
L 387.116883 362.083653 
L 387.813686 362.392616 
L 388.51049 361.971229 
L 389.207293 362.352892 
L 389.904096 362.360897 
L 390.600899 362.745762 
L 391.297702 362.541301 
L 391.994505 362.746599 
L 392.691309 362.394499 
L 393.388112 362.839637 
L 394.084915 361.565222 
L 394.781718 361.158264 
L 395.478521 361.663707 
L 396.175325 361.928275 
L 396.872128 361.593252 
L 397.568931 356.332442 
L 398.265734 360.109892 
L 398.962537 361.302561 
L 399.659341 360.483752 
L 400.356144 370.064747 
L 401.052947 368.533101 
L 401.74975 369.394302 
L 402.446553 369.611602 
L 403.143357 360.865703 
L 403.84016 355.897489 
L 404.536963 360.957232 
L 405.233766 360.520452 
L 405.930569 369.365372 
L 406.627373 368.815559 
L 407.324176 368.719024 
L 408.020979 363.064649 
L 408.717782 360.497814 
L 409.414585 360.801608 
L 410.111389 359.801125 
L 410.808192 360.335127 
L 411.504995 369.470755 
L 412.201798 368.644228 
L 412.898601 369.332046 
L 413.595405 368.614334 
L 414.292208 360.097387 
L 414.989011 361.588578 
L 415.685814 361.05505 
L 416.382617 360.691165 
L 417.079421 369.662284 
L 417.776224 368.74298 
L 418.473027 369.254561 
L 419.16983 362.357584 
L 419.866633 361.965149 
L 420.563437 361.788932 
L 421.26024 360.794691 
L 421.957043 360.285893 
L 422.653846 362.639568 
L 423.350649 362.084267 
L 424.047453 361.202497 
L 424.744256 361.320837 
L 425.441059 361.138079 
L 426.137862 360.582042 
L 427.531469 359.951795 
L 428.228272 360.797825 
L 428.925075 361.290413 
L 429.621878 359.353402 
L 431.015485 360.318092 
L 431.712288 353.825294 
L 432.409091 359.703058 
L 433.105894 357.872843 
L 433.802697 360.111302 
L 434.4995 360.19162 
L 435.196304 360.564579 
L 435.893107 358.308629 
L 436.58991 360.883924 
L 437.286713 360.99634 
L 437.983516 360.138844 
L 438.68032 360.369689 
L 439.377123 359.514869 
L 440.073926 359.104139 
L 440.770729 359.356045 
L 441.467532 357.597909 
L 442.861139 360.694823 
L 443.557942 359.111555 
L 444.254745 359.918121 
L 444.951548 359.946782 
L 445.648352 359.177907 
L 446.345155 359.934734 
L 447.041958 357.890224 
L 447.738761 359.855764 
L 448.435564 360.057295 
L 449.132368 359.390637 
L 449.829171 359.451446 
L 450.525974 359.688082 
L 451.222777 359.412997 
L 451.91958 359.540183 
L 452.616384 358.447517 
L 453.313187 360.151338 
L 454.00999 359.898404 
L 454.706793 359.494456 
L 455.403596 358.58222 
L 456.1004 358.240504 
L 456.797203 359.294719 
L 457.494006 358.573568 
L 458.190809 358.757914 
L 458.887612 358.256005 
L 459.584416 352.241651 
L 460.281219 357.879735 
L 460.978022 358.111442 
L 461.674825 358.745255 
L 462.371628 358.170811 
L 463.068432 357.076466 
L 463.765235 357.900191 
L 464.462038 352.699367 
L 465.158841 357.056503 
L 465.855644 356.991674 
L 466.552448 357.72929 
L 467.249251 368.459843 
L 467.946054 367.949082 
L 468.642857 368.777995 
L 469.33966 368.645124 
L 470.036464 358.105698 
L 470.733267 358.932066 
L 471.43007 355.997 
L 472.126873 358.373219 
L 472.823676 367.811959 
L 473.52048 368.319843 
L 474.217283 367.842636 
L 474.914086 368.299774 
L 475.610889 358.037157 
L 476.307692 358.214742 
L 477.004496 357.529196 
L 477.701299 357.58655 
L 478.398102 368.541106 
L 479.094905 368.112537 
L 479.791708 368.330044 
L 480.488511 361.608804 
L 481.185315 359.009657 
L 481.882118 358.99148 
L 482.578921 358.448332 
L 483.275724 357.69459 
L 483.972527 367.843997 
L 484.669331 367.756647 
L 485.366134 361.601801 
L 486.062937 367.40206 
L 486.75974 351.802289 
L 487.456543 357.412949 
L 488.153347 357.480326 
L 488.85015 356.6314 
L 489.546953 357.534374 
L 490.243756 358.6893 
L 490.940559 356.742707 
L 491.637363 357.500134 
L 492.334166 357.621723 
L 493.030969 357.413367 
L 493.727772 357.025208 
L 494.424575 351.403126 
L 495.121379 357.427569 
L 495.818182 356.92081 
L 496.514985 356.055563 
L 497.211788 356.536646 
L 497.908591 358.244545 
L 498.605395 356.198403 
L 499.302198 354.50209 
L 499.999001 356.657569 
L 500.695804 356.22956 
L 501.392607 356.195378 
L 502.089411 356.80819 
L 502.786214 356.090081 
L 503.483017 356.718182 
L 504.17982 356.013438 
L 504.876623 356.262017 
L 505.573427 356.362744 
L 506.27023 355.460438 
L 506.967033 356.065279 
L 508.360639 355.179829 
L 509.057443 356.211569 
L 511.147852 356.542338 
L 511.844655 356.406483 
L 512.541459 355.243274 
L 513.238262 343.940442 
L 513.935065 355.51368 
L 514.631868 356.42906 
L 515.328671 350.382303 
L 516.025475 355.501517 
L 516.722278 354.0648 
L 517.419081 354.810388 
L 518.115884 355.331415 
L 518.812687 353.467123 
L 520.206294 355.257515 
L 520.903097 354.917576 
L 521.5999 349.486837 
L 522.296703 355.378232 
L 522.993506 355.148906 
L 523.69031 354.643008 
L 524.387113 354.716385 
L 525.083916 353.031697 
L 525.780719 355.3243 
L 526.477522 355.342857 
L 527.174326 354.57676 
L 527.871129 354.218203 
L 528.567932 355.943778 
L 529.961538 353.852596 
L 530.658342 354.439779 
L 531.355145 355.79098 
L 532.051948 354.486861 
L 532.748751 353.991689 
L 533.445554 352.89083 
L 534.142358 355.33197 
L 534.839161 355.197683 
L 535.535964 348.213084 
L 536.232767 354.362543 
L 536.92957 354.454289 
L 537.626374 355.211426 
L 538.323177 355.117616 
L 539.01998 354.290895 
L 540.413586 355.146979 
L 541.11039 354.229293 
L 541.807193 352.99453 
L 542.503996 353.655849 
L 543.200799 353.622491 
L 543.897602 353.109195 
L 544.594406 347.738564 
L 545.291209 354.626588 
L 545.988012 353.564079 
L 546.684815 354.748755 
L 547.381618 347.210233 
L 548.078422 354.810828 
L 548.775225 355.155372 
L 549.472028 348.535152 
L 550.168831 353.694381 
L 550.865634 353.670229 
L 551.562438 354.17638 
L 552.259241 353.764638 
L 552.956044 354.776942 
L 553.652847 354.657248 
L 554.34965 354.026446 
L 555.046454 353.96359 
L 555.743257 353.48584 
L 556.44006 349.732954 
L 557.136863 354.826217 
L 557.833666 354.93703 
L 558.53047 354.773581 
L 559.227273 353.381092 
L 559.924076 346.538544 
L 560.620879 353.171384 
L 561.317682 353.531064 
L 562.014486 354.089674 
L 562.711289 354.316206 
L 563.408092 353.886281 
L 564.104895 353.127579 
L 564.801698 353.851589 
L 565.498501 354.210912 
L 566.195305 353.922796 
L 566.892108 353.202888 
L 567.588911 355.423693 
L 568.285714 354.886967 
L 568.982517 354.683445 
L 569.679321 354.709909 
L 570.376124 352.398942 
L 571.072927 355.087919 
L 572.466533 354.137609 
L 573.163337 353.96779 
L 573.86014 355.253231 
L 574.556943 354.198048 
L 575.253746 354.779196 
L 575.950549 354.688992 
L 576.647353 354.038422 
L 577.344156 354.151998 
L 578.040959 353.955797 
L 578.737762 353.116528 
L 579.434565 345.299922 
L 580.131369 346.114908 
L 580.828172 353.430122 
L 581.524975 352.821795 
L 582.221778 352.880063 
L 582.918581 352.513953 
L 583.615385 351.277953 
L 584.312188 352.820565 
L 585.008991 352.822199 
L 585.705794 352.196486 
L 586.402597 352.424419 
L 587.099401 352.182257 
L 587.796204 352.848728 
L 589.18981 350.627304 
L 589.886613 353.573896 
L 591.28022 352.288201 
L 591.977023 334.248401 
L 592.673826 353.523786 
L 593.370629 353.252441 
L 594.067433 347.05052 
L 594.764236 352.810965 
L 595.461039 352.223921 
L 596.157842 351.315944 
L 596.854645 346.06263 
L 597.551449 352.743555 
L 598.248252 352.570296 
L 598.945055 350.3759 
L 599.641858 351.099595 
L 600.338661 350.196007 
L 601.035465 353.126264 
L 601.732268 352.764044 
L 602.429071 352.642225 
L 603.125874 352.022999 
L 603.822677 346.226793 
L 604.519481 352.383926 
L 605.216284 353.026317 
L 605.913087 351.311561 
L 606.60989 352.929061 
L 607.306693 350.836701 
L 608.003497 346.064897 
L 608.7003 349.447343 
L 609.397103 352.213405 
L 610.093906 351.756874 
L 610.790709 350.955501 
L 611.487512 350.358225 
L 612.184316 352.168757 
L 612.881119 351.655891 
L 613.577922 352.248234 
L 614.274725 351.314726 
L 614.971528 351.646221 
L 615.668332 352.589513 
L 616.365135 352.124191 
L 617.061938 345.340551 
L 617.758741 345.822214 
L 618.455544 351.579775 
L 619.152348 351.168865 
L 619.849151 351.190027 
L 620.545954 351.673463 
L 621.242757 346.179665 
L 621.93956 351.507503 
L 622.636364 350.352755 
L 622.636364 350.352755 
" clip-path="url(#pce90b2a51c)" style="fill: none; stroke: #1f77b4; stroke-width: 1.5; stroke-linecap: square"/>
   </g>
   <g id="patch_3">
    <path d="M 90 384.48 
L 90 51.84 
" style="fill: none; stroke: #000000; stroke-width: 0.8; stroke-linejoin: miter; stroke-linecap: square"/>
   </g>
   <g id="patch_4">
    <path d="M 648 384.48 
L 648 51.84 
" style="fill: none; stroke: #000000; stroke-width: 0.8; stroke-linejoin: miter; stroke-linecap: square"/>
   </g>
   <g id="patch_5">
    <path d="M 90 384.48 
L 648 384.48 
" style="fill: none; stroke: #000000; stroke-width: 0.8; stroke-linejoin: miter; stroke-linecap: square"/>
   </g>
   <g id="patch_6">
    <path d="M 90 51.84 
L 648 51.84 
" style="fill: none; stroke: #000000; stroke-width: 0.8; stroke-linejoin: miter; stroke-linecap: square"/>
   </g>
   <g id="text_19">
    <!-- Average time per index -->
    <g transform="translate(298.700625 45.84) scale(0.12 -0.12)">
     <defs>
      <path id="DejaVuSans-70" d="M 1159 525 
L 1159 -1331 
L 581 -1331 
L 581 3500 
L 1159 3500 
L 1159 2969 
Q 1341 3281 1617 3432 
Q 1894 3584 2278 3584 
Q 2916 3584 3314 3078 
Q 3713 2572 3713 1747 
Q 3713 922 3314 415 
Q 2916 -91 2278 -91 
Q 1894 -91 1617 61 
Q 1341 213 1159 525 
z
M 3116 1747 
Q 3116 2381 2855 2742 
Q 2594 3103 2138 3103 
Q 1681 3103 1420 2742 
Q 1159 2381 1159 1747 
Q 1159 1113 1420 752 
Q 1681 391 2138 391 
Q 2594 391 2855 752 
Q 3116 1113 3116 1747 
z
" transform="scale(0.015625)"/>
     </defs>
     <use xlink:href="#DejaVuSans-41"/>
     <use xlink:href="#DejaVuSans-76" transform="translate(62.533203 0)"/>
     <use xlink:href="#DejaVuSans-65" transform="translate(121.712891 0)"/>
     <use xlink:href="#DejaVuSans-72" transform="translate(183.236328 0)"/>
     <use xlink:href="#DejaVuSans-61" transform="translate(224.349609 0)"/>
     <use xlink:href="#DejaVuSans-67" transform="translate(285.628906 0)"/>
     <use xlink:href="#DejaVuSans-65" transform="translate(349.105469 0)"/>
     <use xlink:href="#DejaVuSans-20" transform="translate(410.628906 0)"/>
     <use xlink:href="#DejaVuSans-74" transform="translate(442.416016 0)"/>
     <use xlink:href="#DejaVuSans-69" transform="translate(481.625 0)"/>
     <use xlink:href="#DejaVuSans-6d" transform="translate(509.408203 0)"/>
     <use xlink:href="#DejaVuSans-65" transform="translate(606.820312 0)"/>
     <use xlink:href="#DejaVuSans-20" transform="translate(668.34375 0)"/>
     <use xlink:href="#DejaVuSans-70" transform="translate(700.130859 0)"/>
     <use xlink:href="#DejaVuSans-65" transform="translate(763.607422 0)"/>
     <use xlink:href="#DejaVuSans-72" transform="translate(825.130859 0)"/>
     <use xlink:href="#DejaVuSans-20" transform="translate(866.244141 0)"/>
     <use xlink:href="#DejaVuSans-69" transform="translate(898.03125 0)"/>
     <use xlink:href="#DejaVuSans-6e" transform="translate(925.814453 0)"/>
     <use xlink:href="#DejaVuSans-64" transform="translate(989.193359 0)"/>
     <use xlink:href="#DejaVuSans-65" transform="translate(1052.669922 0)"/>
     <use xlink:href="#DejaVuSans-78" transform="translate(1112.443359 0)"/>
    </g>
   </g>
   <g id="legend_1">
    <g id="patch_7">
     <path d="M 544.020313 74.518125 
L 641 74.518125 
Q 643 74.518125 643 72.518125 
L 643 58.84 
Q 643 56.84 641 56.84 
L 544.020313 56.84 
Q 542.020313 56.84 542.020313 58.84 
L 542.020313 72.518125 
Q 542.020313 74.518125 544.020313 74.518125 
z
" style="fill: #ffffff; opacity: 0.8; stroke: #cccccc; stroke-linejoin: miter"/>
    </g>
    <g id="line2d_18">
     <path d="M 546.020313 64.938438 
L 556.020313 64.938438 
L 566.020313 64.938438 
" style="fill: none; stroke: #1f77b4; stroke-width: 1.5; stroke-linecap: square"/>
    </g>
    <g id="text_20">
     <!-- handleResult -->
     <g transform="translate(574.020313 68.438438) scale(0.1 -0.1)">
      <defs>
       <path id="DejaVuSans-68" d="M 3513 2113 
L 3513 0 
L 2938 0 
L 2938 2094 
Q 2938 2591 2744 2837 
Q 2550 3084 2163 3084 
Q 1697 3084 1428 2787 
Q 1159 2491 1159 1978 
L 1159 0 
L 581 0 
L 581 4863 
L 1159 4863 
L 1159 2956 
Q 1366 3272 1645 3428 
Q 1925 3584 2291 3584 
Q 2894 3584 3203 3211 
Q 3513 2838 3513 2113 
z
" transform="scale(0.015625)"/>
       <path id="DejaVuSans-6c" d="M 603 4863 
L 1178 4863 
L 1178 0 
L 603 0 
L 603 4863 
z
" transform="scale(0.015625)"/>
       <path id="DejaVuSans-52" d="M 2841 2188 
Q 3044 2119 3236 1894 
Q 3428 1669 3622 1275 
L 4263 0 
L 3584 0 
L 2988 1197 
Q 2756 1666 2539 1819 
Q 2322 1972 1947 1972 
L 1259 1972 
L 1259 0 
L 628 0 
L 628 4666 
L 2053 4666 
Q 2853 4666 3247 4331 
Q 3641 3997 3641 3322 
Q 3641 2881 3436 2590 
Q 3231 2300 2841 2188 
z
M 1259 4147 
L 1259 2491 
L 2053 2491 
Q 2509 2491 2742 2702 
Q 2975 2913 2975 3322 
Q 2975 3731 2742 3939 
Q 2509 4147 2053 4147 
L 1259 4147 
z
" transform="scale(0.015625)"/>
       <path id="DejaVuSans-75" d="M 544 1381 
L 544 3500 
L 1119 3500 
L 1119 1403 
Q 1119 906 1312 657 
Q 1506 409 1894 409 
Q 2359 409 2629 706 
Q 2900 1003 2900 1516 
L 2900 3500 
L 3475 3500 
L 3475 0 
L 2900 0 
L 2900 538 
Q 2691 219 2414 64 
Q 2138 -91 1772 -91 
Q 1169 -91 856 284 
Q 544 659 544 1381 
z
M 1991 3584 
L 1991 3584 
z
" transform="scale(0.015625)"/>
      </defs>
      <use xlink:href="#DejaVuSans-68"/>
      <use xlink:href="#DejaVuSans-61" transform="translate(63.378906 0)"/>
      <use xlink:href="#DejaVuSans-6e" transform="translate(124.658203 0)"/>
      <use xlink:href="#DejaVuSans-64" transform="translate(188.037109 0)"/>
      <use xlink:href="#DejaVuSans-6c" transform="translate(251.513672 0)"/>
      <use xlink:href="#DejaVuSans-65" transform="translate(279.296875 0)"/>
      <use xlink:href="#DejaVuSans-52" transform="translate(340.820312 0)"/>
      <use xlink:href="#DejaVuSans-65" transform="translate(405.802734 0)"/>
      <use xlink:href="#DejaVuSans-73" transform="translate(467.326172 0)"/>
      <use xlink:href="#DejaVuSans-75" transform="translate(519.425781 0)"/>
      <use xlink:href="#DejaVuSans-6c" transform="translate(582.804688 0)"/>
      <use xlink:href="#DejaVuSans-74" transform="translate(610.587891 0)"/>
     </g>
    </g>
   </g>
  </g>
 </g>
 <defs>
  <clipPath id="pce90b2a51c">
   <rect x="90" y="51.84" width="558" height="332.64"/>
  </clipPath>
 </defs>
</svg>
