<?xml version="1.0" encoding="utf-8" standalone="no"?>
<!DOCTYPE svg PUBLIC "-//W3C//DTD SVG 1.1//EN"
  "http://www.w3.org/Graphics/SVG/1.1/DTD/svg11.dtd">
<svg xmlns:xlink="http://www.w3.org/1999/xlink" width="576pt" height="432pt" viewBox="0 0 576 432" xmlns="http://www.w3.org/2000/svg" version="1.1">
 <metadata>
  <rdf:RDF xmlns:dc="http://purl.org/dc/elements/1.1/" xmlns:cc="http://creativecommons.org/ns#" xmlns:rdf="http://www.w3.org/1999/02/22-rdf-syntax-ns#">
   <cc:Work>
    <dc:type rdf:resource="http://purl.org/dc/dcmitype/StillImage"/>
    <dc:date>2025-06-10T03:16:27.556608</dc:date>
    <dc:format>image/svg+xml</dc:format>
    <dc:creator>
     <cc:Agent>
      <dc:title>Matplotlib v3.10.3, https://matplotlib.org/</dc:title>
     </cc:Agent>
    </dc:creator>
   </cc:Work>
  </rdf:RDF>
 </metadata>
 <defs>
  <style type="text/css">*{stroke-linejoin: round; stroke-linecap: butt}</style>
 </defs>
 <g id="figure_1">
  <g id="patch_1">
   <path d="M 0 432 
L 576 432 
L 576 0 
L 0 0 
z
" style="fill: #ffffff"/>
  </g>
  <g id="axes_1">
   <g id="patch_2">
    <path d="M 72 384.48 
L 518.4 384.48 
L 518.4 51.84 
L 72 51.84 
z
" style="fill: #ffffff"/>
   </g>
   <g id="FillBetweenPolyCollection_1">
    <path d="M 380.720433 362.615876 
L 209.679567 362.615876 
L 196.792801 359.626209 
L 187.729952 356.636542 
L 183.6 353.646875 
L 184.779874 350.657208 
L 190.869658 347.667541 
L 200.836177 344.677874 
L 213.281955 341.688207 
L 226.746247 338.69854 
L 239.95423 335.708873 
L 251.966963 332.719206 
L 262.227123 329.729539 
L 270.525422 326.739873 
L 276.923022 323.750206 
L 281.65992 320.760539 
L 285.067763 317.770872 
L 287.496167 314.781205 
L 289.257239 311.791538 
L 290.591665 308.801871 
L 291.657723 305.812204 
L 292.540556 302.822537 
L 293.274428 299.83287 
L 293.868271 296.843203 
L 294.326127 293.853537 
L 294.658257 290.86387 
L 294.883328 287.874203 
L 295.025048 284.884536 
L 295.107183 281.894869 
L 295.149692 278.905202 
L 295.167 275.915535 
L 295.168177 272.925868 
L 295.158241 269.936201 
L 295.139837 266.946534 
L 295.114746 263.956867 
L 295.084922 260.967201 
L 295.052909 257.977534 
L 295.021667 254.987867 
L 294.994014 251.9982 
L 294.972025 249.008533 
L 294.956755 246.018866 
L 294.9484 243.029199 
L 294.946799 240.039532 
L 294.951895 237.049865 
L 294.963841 234.060198 
L 294.98268 231.070531 
L 295.007821 228.080864 
L 295.037677 225.091198 
L 295.069752 222.101531 
L 295.10115 219.111864 
L 295.129278 216.122197 
L 295.152419 213.13253 
L 295.169948 210.142863 
L 295.182203 207.153196 
L 295.190126 204.163529 
L 295.19487 201.173862 
L 295.197506 198.184195 
L 295.198865 195.194528 
L 295.199517 192.204862 
L 295.199808 189.215195 
L 295.199928 186.225528 
L 295.199975 183.235861 
L 295.199992 180.246194 
L 295.199998 177.256527 
L 295.199999 174.26686 
L 295.2 171.277193 
L 295.2 168.287526 
L 295.2 165.297859 
L 295.2 162.308192 
L 295.2 159.318525 
L 295.2 156.328859 
L 295.2 153.339192 
L 295.2 150.349525 
L 295.2 147.359858 
L 295.2 144.370191 
L 295.2 141.380524 
L 295.199999 138.390857 
L 295.199996 135.40119 
L 295.199986 132.411523 
L 295.199953 129.421856 
L 295.19985 126.432189 
L 295.199556 123.442523 
L 295.198762 120.452856 
L 295.196758 117.463189 
L 295.192027 114.473522 
L 295.181587 111.483855 
L 295.160058 108.494188 
L 295.118618 105.504521 
L 295.044248 102.514854 
L 294.92 99.525187 
L 294.727156 96.53552 
L 294.449884 93.545853 
L 294.082089 90.556187 
L 293.634788 87.56652 
L 293.141043 84.576853 
L 292.655213 81.587186 
L 292.24465 78.597519 
L 291.9749 75.607852 
L 291.892672 72.618185 
L 292.012629 69.628518 
L 292.313128 66.638851 
L 298.086872 66.638851 
L 298.086872 66.638851 
L 298.387371 69.628518 
L 298.507328 72.618185 
L 298.4251 75.607852 
L 298.15535 78.597519 
L 297.744787 81.587186 
L 297.258957 84.576853 
L 296.765212 87.56652 
L 296.317911 90.556187 
L 295.950116 93.545853 
L 295.672844 96.53552 
L 295.48 99.525187 
L 295.355752 102.514854 
L 295.281382 105.504521 
L 295.239942 108.494188 
L 295.218413 111.483855 
L 295.207973 114.473522 
L 295.203242 117.463189 
L 295.201238 120.452856 
L 295.200444 123.442523 
L 295.20015 126.432189 
L 295.200047 129.421856 
L 295.200014 132.411523 
L 295.200004 135.40119 
L 295.200001 138.390857 
L 295.2 141.380524 
L 295.2 144.370191 
L 295.2 147.359858 
L 295.2 150.349525 
L 295.2 153.339192 
L 295.2 156.328859 
L 295.2 159.318525 
L 295.2 162.308192 
L 295.2 165.297859 
L 295.2 168.287526 
L 295.2 171.277193 
L 295.200001 174.26686 
L 295.200002 177.256527 
L 295.200008 180.246194 
L 295.200025 183.235861 
L 295.200072 186.225528 
L 295.200192 189.215195 
L 295.200483 192.204862 
L 295.201135 195.194528 
L 295.202494 198.184195 
L 295.20513 201.173862 
L 295.209874 204.163529 
L 295.217797 207.153196 
L 295.230052 210.142863 
L 295.247581 213.13253 
L 295.270722 216.122197 
L 295.29885 219.111864 
L 295.330248 222.101531 
L 295.362323 225.091198 
L 295.392179 228.080864 
L 295.41732 231.070531 
L 295.436159 234.060198 
L 295.448105 237.049865 
L 295.453201 240.039532 
L 295.4516 243.029199 
L 295.443245 246.018866 
L 295.427975 249.008533 
L 295.405986 251.9982 
L 295.378333 254.987867 
L 295.347091 257.977534 
L 295.315078 260.967201 
L 295.285254 263.956867 
L 295.260163 266.946534 
L 295.241759 269.936201 
L 295.231823 272.925868 
L 295.233 275.915535 
L 295.250308 278.905202 
L 295.292817 281.894869 
L 295.374952 284.884536 
L 295.516672 287.874203 
L 295.741743 290.86387 
L 296.073873 293.853537 
L 296.531729 296.843203 
L 297.125572 299.83287 
L 297.859444 302.822537 
L 298.742277 305.812204 
L 299.808335 308.801871 
L 301.142761 311.791538 
L 302.903833 314.781205 
L 305.332237 317.770872 
L 308.74008 320.760539 
L 313.476978 323.750206 
L 319.874578 326.739873 
L 328.172877 329.729539 
L 338.433037 332.719206 
L 350.44577 335.708873 
L 363.653753 338.69854 
L 377.118045 341.688207 
L 389.563823 344.677874 
L 399.530342 347.667541 
L 405.620126 350.657208 
L 406.8 353.646875 
L 402.670048 356.636542 
L 393.607199 359.626209 
L 380.720433 362.615876 
z
" clip-path="url(#pa499a5eb9c)" style="fill: #1f77b4; fill-opacity: 0.3"/>
   </g>
   <g id="matplotlib.axis_1">
    <g id="xtick_1">
     <g id="line2d_1">
      <defs>
       <path id="m0aa04e224e" d="M 0 0 
L 0 3.5 
" style="stroke: #000000; stroke-width: 0.8"/>
      </defs>
      <g>
       <use xlink:href="#m0aa04e224e" x="295.2" y="384.48" style="stroke: #000000; stroke-width: 0.8"/>
      </g>
     </g>
     <g id="text_1">
      <!-- 1 -->
      <g transform="translate(292.01875 399.078438) scale(0.1 -0.1)">
       <defs>
        <path id="DejaVuSans-31" d="M 794 531 
L 1825 531 
L 1825 4091 
L 703 3866 
L 703 4441 
L 1819 4666 
L 2450 4666 
L 2450 531 
L 3481 531 
L 3481 0 
L 794 0 
L 794 531 
z
" transform="scale(0.015625)"/>
       </defs>
       <use xlink:href="#DejaVuSans-31"/>
      </g>
     </g>
    </g>
   </g>
   <g id="matplotlib.axis_2">
    <g id="ytick_1">
     <g id="line2d_2">
      <defs>
       <path id="mb3c33b175f" d="M 0 0 
L -3.5 0 
" style="stroke: #000000; stroke-width: 0.8"/>
      </defs>
      <g>
       <use xlink:href="#mb3c33b175f" x="72" y="384.48" style="stroke: #000000; stroke-width: 0.8"/>
      </g>
     </g>
     <g id="text_2">
      <!-- 0 -->
      <g transform="translate(58.6375 388.279219) scale(0.1 -0.1)">
       <defs>
        <path id="DejaVuSans-30" d="M 2034 4250 
Q 1547 4250 1301 3770 
Q 1056 3291 1056 2328 
Q 1056 1369 1301 889 
Q 1547 409 2034 409 
Q 2525 409 2770 889 
Q 3016 1369 3016 2328 
Q 3016 3291 2770 3770 
Q 2525 4250 2034 4250 
z
M 2034 4750 
Q 2819 4750 3233 4129 
Q 3647 3509 3647 2328 
Q 3647 1150 3233 529 
Q 2819 -91 2034 -91 
Q 1250 -91 836 529 
Q 422 1150 422 2328 
Q 422 3509 836 4129 
Q 1250 4750 2034 4750 
z
" transform="scale(0.015625)"/>
       </defs>
       <use xlink:href="#DejaVuSans-30"/>
      </g>
     </g>
    </g>
    <g id="ytick_2">
     <g id="line2d_3">
      <g>
       <use xlink:href="#mb3c33b175f" x="72" y="324.912163" style="stroke: #000000; stroke-width: 0.8"/>
      </g>
     </g>
     <g id="text_3">
      <!-- 20 -->
      <g transform="translate(52.275 328.711381) scale(0.1 -0.1)">
       <defs>
        <path id="DejaVuSans-32" d="M 1228 531 
L 3431 531 
L 3431 0 
L 469 0 
L 469 531 
Q 828 903 1448 1529 
Q 2069 2156 2228 2338 
Q 2531 2678 2651 2914 
Q 2772 3150 2772 3378 
Q 2772 3750 2511 3984 
Q 2250 4219 1831 4219 
Q 1534 4219 1204 4116 
Q 875 4013 500 3803 
L 500 4441 
Q 881 4594 1212 4672 
Q 1544 4750 1819 4750 
Q 2544 4750 2975 4387 
Q 3406 4025 3406 3419 
Q 3406 3131 3298 2873 
Q 3191 2616 2906 2266 
Q 2828 2175 2409 1742 
Q 1991 1309 1228 531 
z
" transform="scale(0.015625)"/>
       </defs>
       <use xlink:href="#DejaVuSans-32"/>
       <use xlink:href="#DejaVuSans-30" transform="translate(63.623047 0)"/>
      </g>
     </g>
    </g>
    <g id="ytick_3">
     <g id="line2d_4">
      <g>
       <use xlink:href="#mb3c33b175f" x="72" y="265.344325" style="stroke: #000000; stroke-width: 0.8"/>
      </g>
     </g>
     <g id="text_4">
      <!-- 40 -->
      <g transform="translate(52.275 269.143544) scale(0.1 -0.1)">
       <defs>
        <path id="DejaVuSans-34" d="M 2419 4116 
L 825 1625 
L 2419 1625 
L 2419 4116 
z
M 2253 4666 
L 3047 4666 
L 3047 1625 
L 3713 1625 
L 3713 1100 
L 3047 1100 
L 3047 0 
L 2419 0 
L 2419 1100 
L 313 1100 
L 313 1709 
L 2253 4666 
z
" transform="scale(0.015625)"/>
       </defs>
       <use xlink:href="#DejaVuSans-34"/>
       <use xlink:href="#DejaVuSans-30" transform="translate(63.623047 0)"/>
      </g>
     </g>
    </g>
    <g id="ytick_4">
     <g id="line2d_5">
      <g>
       <use xlink:href="#mb3c33b175f" x="72" y="205.776488" style="stroke: #000000; stroke-width: 0.8"/>
      </g>
     </g>
     <g id="text_5">
      <!-- 60 -->
      <g transform="translate(52.275 209.575707) scale(0.1 -0.1)">
       <defs>
        <path id="DejaVuSans-36" d="M 2113 2584 
Q 1688 2584 1439 2293 
Q 1191 2003 1191 1497 
Q 1191 994 1439 701 
Q 1688 409 2113 409 
Q 2538 409 2786 701 
Q 3034 994 3034 1497 
Q 3034 2003 2786 2293 
Q 2538 2584 2113 2584 
z
M 3366 4563 
L 3366 3988 
Q 3128 4100 2886 4159 
Q 2644 4219 2406 4219 
Q 1781 4219 1451 3797 
Q 1122 3375 1075 2522 
Q 1259 2794 1537 2939 
Q 1816 3084 2150 3084 
Q 2853 3084 3261 2657 
Q 3669 2231 3669 1497 
Q 3669 778 3244 343 
Q 2819 -91 2113 -91 
Q 1303 -91 875 529 
Q 447 1150 447 2328 
Q 447 3434 972 4092 
Q 1497 4750 2381 4750 
Q 2619 4750 2861 4703 
Q 3103 4656 3366 4563 
z
" transform="scale(0.015625)"/>
       </defs>
       <use xlink:href="#DejaVuSans-36"/>
       <use xlink:href="#DejaVuSans-30" transform="translate(63.623047 0)"/>
      </g>
     </g>
    </g>
    <g id="ytick_5">
     <g id="line2d_6">
      <g>
       <use xlink:href="#mb3c33b175f" x="72" y="146.208651" style="stroke: #000000; stroke-width: 0.8"/>
      </g>
     </g>
     <g id="text_6">
      <!-- 80 -->
      <g transform="translate(52.275 150.00787) scale(0.1 -0.1)">
       <defs>
        <path id="DejaVuSans-38" d="M 2034 2216 
Q 1584 2216 1326 1975 
Q 1069 1734 1069 1313 
Q 1069 891 1326 650 
Q 1584 409 2034 409 
Q 2484 409 2743 651 
Q 3003 894 3003 1313 
Q 3003 1734 2745 1975 
Q 2488 2216 2034 2216 
z
M 1403 2484 
Q 997 2584 770 2862 
Q 544 3141 544 3541 
Q 544 4100 942 4425 
Q 1341 4750 2034 4750 
Q 2731 4750 3128 4425 
Q 3525 4100 3525 3541 
Q 3525 3141 3298 2862 
Q 3072 2584 2669 2484 
Q 3125 2378 3379 2068 
Q 3634 1759 3634 1313 
Q 3634 634 3220 271 
Q 2806 -91 2034 -91 
Q 1263 -91 848 271 
Q 434 634 434 1313 
Q 434 1759 690 2068 
Q 947 2378 1403 2484 
z
M 1172 3481 
Q 1172 3119 1398 2916 
Q 1625 2713 2034 2713 
Q 2441 2713 2670 2916 
Q 2900 3119 2900 3481 
Q 2900 3844 2670 4047 
Q 2441 4250 2034 4250 
Q 1625 4250 1398 4047 
Q 1172 3844 1172 3481 
z
" transform="scale(0.015625)"/>
       </defs>
       <use xlink:href="#DejaVuSans-38"/>
       <use xlink:href="#DejaVuSans-30" transform="translate(63.623047 0)"/>
      </g>
     </g>
    </g>
    <g id="ytick_6">
     <g id="line2d_7">
      <g>
       <use xlink:href="#mb3c33b175f" x="72" y="86.640814" style="stroke: #000000; stroke-width: 0.8"/>
      </g>
     </g>
     <g id="text_7">
      <!-- 100 -->
      <g transform="translate(45.9125 90.440032) scale(0.1 -0.1)">
       <use xlink:href="#DejaVuSans-31"/>
       <use xlink:href="#DejaVuSans-30" transform="translate(63.623047 0)"/>
       <use xlink:href="#DejaVuSans-30" transform="translate(127.246094 0)"/>
      </g>
     </g>
    </g>
    <g id="text_8">
     <!-- Time (ms) -->
     <g transform="translate(39.832812 243.359219) rotate(-90) scale(0.1 -0.1)">
      <defs>
       <path id="DejaVuSans-54" d="M -19 4666 
L 3928 4666 
L 3928 4134 
L 2272 4134 
L 2272 0 
L 1638 0 
L 1638 4134 
L -19 4134 
L -19 4666 
z
" transform="scale(0.015625)"/>
       <path id="DejaVuSans-69" d="M 603 3500 
L 1178 3500 
L 1178 0 
L 603 0 
L 603 3500 
z
M 603 4863 
L 1178 4863 
L 1178 4134 
L 603 4134 
L 603 4863 
z
" transform="scale(0.015625)"/>
       <path id="DejaVuSans-6d" d="M 3328 2828 
Q 3544 3216 3844 3400 
Q 4144 3584 4550 3584 
Q 5097 3584 5394 3201 
Q 5691 2819 5691 2113 
L 5691 0 
L 5113 0 
L 5113 2094 
Q 5113 2597 4934 2840 
Q 4756 3084 4391 3084 
Q 3944 3084 3684 2787 
Q 3425 2491 3425 1978 
L 3425 0 
L 2847 0 
L 2847 2094 
Q 2847 2600 2669 2842 
Q 2491 3084 2119 3084 
Q 1678 3084 1418 2786 
Q 1159 2488 1159 1978 
L 1159 0 
L 581 0 
L 581 3500 
L 1159 3500 
L 1159 2956 
Q 1356 3278 1631 3431 
Q 1906 3584 2284 3584 
Q 2666 3584 2933 3390 
Q 3200 3197 3328 2828 
z
" transform="scale(0.015625)"/>
       <path id="DejaVuSans-65" d="M 3597 1894 
L 3597 1613 
L 953 1613 
Q 991 1019 1311 708 
Q 1631 397 2203 397 
Q 2534 397 2845 478 
Q 3156 559 3463 722 
L 3463 178 
Q 3153 47 2828 -22 
Q 2503 -91 2169 -91 
Q 1331 -91 842 396 
Q 353 884 353 1716 
Q 353 2575 817 3079 
Q 1281 3584 2069 3584 
Q 2775 3584 3186 3129 
Q 3597 2675 3597 1894 
z
M 3022 2063 
Q 3016 2534 2758 2815 
Q 2500 3097 2075 3097 
Q 1594 3097 1305 2825 
Q 1016 2553 972 2059 
L 3022 2063 
z
" transform="scale(0.015625)"/>
       <path id="DejaVuSans-20" transform="scale(0.015625)"/>
       <path id="DejaVuSans-28" d="M 1984 4856 
Q 1566 4138 1362 3434 
Q 1159 2731 1159 2009 
Q 1159 1288 1364 580 
Q 1569 -128 1984 -844 
L 1484 -844 
Q 1016 -109 783 600 
Q 550 1309 550 2009 
Q 550 2706 781 3412 
Q 1013 4119 1484 4856 
L 1984 4856 
z
" transform="scale(0.015625)"/>
       <path id="DejaVuSans-73" d="M 2834 3397 
L 2834 2853 
Q 2591 2978 2328 3040 
Q 2066 3103 1784 3103 
Q 1356 3103 1142 2972 
Q 928 2841 928 2578 
Q 928 2378 1081 2264 
Q 1234 2150 1697 2047 
L 1894 2003 
Q 2506 1872 2764 1633 
Q 3022 1394 3022 966 
Q 3022 478 2636 193 
Q 2250 -91 1575 -91 
Q 1294 -91 989 -36 
Q 684 19 347 128 
L 347 722 
Q 666 556 975 473 
Q 1284 391 1588 391 
Q 1994 391 2212 530 
Q 2431 669 2431 922 
Q 2431 1156 2273 1281 
Q 2116 1406 1581 1522 
L 1381 1569 
Q 847 1681 609 1914 
Q 372 2147 372 2553 
Q 372 3047 722 3315 
Q 1072 3584 1716 3584 
Q 2034 3584 2315 3537 
Q 2597 3491 2834 3397 
z
" transform="scale(0.015625)"/>
       <path id="DejaVuSans-29" d="M 513 4856 
L 1013 4856 
Q 1481 4119 1714 3412 
Q 1947 2706 1947 2009 
Q 1947 1309 1714 600 
Q 1481 -109 1013 -844 
L 513 -844 
Q 928 -128 1133 580 
Q 1338 1288 1338 2009 
Q 1338 2731 1133 3434 
Q 928 4138 513 4856 
z
" transform="scale(0.015625)"/>
      </defs>
      <use xlink:href="#DejaVuSans-54"/>
      <use xlink:href="#DejaVuSans-69" transform="translate(57.958984 0)"/>
      <use xlink:href="#DejaVuSans-6d" transform="translate(85.742188 0)"/>
      <use xlink:href="#DejaVuSans-65" transform="translate(183.154297 0)"/>
      <use xlink:href="#DejaVuSans-20" transform="translate(244.677734 0)"/>
      <use xlink:href="#DejaVuSans-28" transform="translate(276.464844 0)"/>
      <use xlink:href="#DejaVuSans-6d" transform="translate(315.478516 0)"/>
      <use xlink:href="#DejaVuSans-73" transform="translate(412.890625 0)"/>
      <use xlink:href="#DejaVuSans-29" transform="translate(464.990234 0)"/>
     </g>
    </g>
   </g>
   <g id="LineCollection_1">
    <path d="M 239.4 343.561445 
L 351 343.561445 
" clip-path="url(#pa499a5eb9c)" style="fill: none; stroke: #1f77b4; stroke-width: 1.5"/>
   </g>
   <g id="LineCollection_2">
    <path d="M 239.4 66.638851 
L 351 66.638851 
" clip-path="url(#pa499a5eb9c)" style="fill: none; stroke: #1f77b4; stroke-width: 1.5"/>
   </g>
   <g id="LineCollection_3">
    <path d="M 239.4 362.615876 
L 351 362.615876 
" clip-path="url(#pa499a5eb9c)" style="fill: none; stroke: #1f77b4; stroke-width: 1.5"/>
   </g>
   <g id="LineCollection_4">
    <path d="M 295.2 362.615876 
L 295.2 66.638851 
" clip-path="url(#pa499a5eb9c)" style="fill: none; stroke: #1f77b4; stroke-width: 1.5"/>
   </g>
   <g id="patch_3">
    <path d="M 250.56 357.938312 
L 339.84 357.938312 
L 339.84 346.021935 
L 250.56 346.021935 
L 250.56 357.938312 
z
" clip-path="url(#pa499a5eb9c)" style="fill: #1f77b4; stroke: #000000; stroke-linejoin: miter"/>
   </g>
   <g id="line2d_8">
    <path d="M 295.2 357.938312 
L 295.2 362.615876 
" clip-path="url(#pa499a5eb9c)" style="fill: none; stroke: #000000; stroke-linecap: square"/>
   </g>
   <g id="line2d_9">
    <path d="M 295.2 346.021935 
L 295.2 329.071198 
" clip-path="url(#pa499a5eb9c)" style="fill: none; stroke: #000000; stroke-linecap: square"/>
   </g>
   <g id="line2d_10">
    <path d="M 272.88 362.615876 
L 317.52 362.615876 
" clip-path="url(#pa499a5eb9c)" style="fill: none; stroke: #000000; stroke-linecap: square"/>
   </g>
   <g id="line2d_11">
    <path d="M 272.88 329.071198 
L 317.52 329.071198 
" clip-path="url(#pa499a5eb9c)" style="fill: none; stroke: #000000; stroke-linecap: square"/>
   </g>
   <g id="line2d_12">
    <defs>
     <path id="m70f6e09a14" d="M 0 3 
C 0.795609 3 1.55874 2.683901 2.12132 2.12132 
C 2.683901 1.55874 3 0.795609 3 0 
C 3 -0.795609 2.683901 -1.55874 2.12132 -2.12132 
C 1.55874 -2.683901 0.795609 -3 0 -3 
C -0.795609 -3 -1.55874 -2.683901 -2.12132 -2.12132 
C -2.683901 -1.55874 -3 -0.795609 -3 0 
C -3 0.795609 -2.683901 1.55874 -2.12132 2.12132 
C -1.55874 2.683901 -0.795609 3 0 3 
z
" style="stroke: #000000"/>
    </defs>
    <g clip-path="url(#pa499a5eb9c)">
     <use xlink:href="#m70f6e09a14" x="295.2" y="74.96427" style="fill-opacity: 0; stroke: #000000"/>
     <use xlink:href="#m70f6e09a14" x="295.2" y="310.780331" style="fill-opacity: 0; stroke: #000000"/>
     <use xlink:href="#m70f6e09a14" x="295.2" y="73.955458" style="fill-opacity: 0; stroke: #000000"/>
     <use xlink:href="#m70f6e09a14" x="295.2" y="315.215344" style="fill-opacity: 0; stroke: #000000"/>
     <use xlink:href="#m70f6e09a14" x="295.2" y="72.969641" style="fill-opacity: 0; stroke: #000000"/>
     <use xlink:href="#m70f6e09a14" x="295.2" y="311.518078" style="fill-opacity: 0; stroke: #000000"/>
     <use xlink:href="#m70f6e09a14" x="295.2" y="73.628663" style="fill-opacity: 0; stroke: #000000"/>
     <use xlink:href="#m70f6e09a14" x="295.2" y="315.40871" style="fill-opacity: 0; stroke: #000000"/>
     <use xlink:href="#m70f6e09a14" x="295.2" y="70.879947" style="fill-opacity: 0; stroke: #000000"/>
     <use xlink:href="#m70f6e09a14" x="295.2" y="311.159248" style="fill-opacity: 0; stroke: #000000"/>
     <use xlink:href="#m70f6e09a14" x="295.2" y="72.287878" style="fill-opacity: 0; stroke: #000000"/>
     <use xlink:href="#m70f6e09a14" x="295.2" y="312.204919" style="fill-opacity: 0; stroke: #000000"/>
     <use xlink:href="#m70f6e09a14" x="295.2" y="249.82249" style="fill-opacity: 0; stroke: #000000"/>
     <use xlink:href="#m70f6e09a14" x="295.2" y="74.299305" style="fill-opacity: 0; stroke: #000000"/>
     <use xlink:href="#m70f6e09a14" x="295.2" y="314.979372" style="fill-opacity: 0; stroke: #000000"/>
     <use xlink:href="#m70f6e09a14" x="295.2" y="69.545172" style="fill-opacity: 0; stroke: #000000"/>
     <use xlink:href="#m70f6e09a14" x="295.2" y="315.812562" style="fill-opacity: 0; stroke: #000000"/>
     <use xlink:href="#m70f6e09a14" x="295.2" y="74.736849" style="fill-opacity: 0; stroke: #000000"/>
     <use xlink:href="#m70f6e09a14" x="295.2" y="312.237843" style="fill-opacity: 0; stroke: #000000"/>
     <use xlink:href="#m70f6e09a14" x="295.2" y="73.032088" style="fill-opacity: 0; stroke: #000000"/>
     <use xlink:href="#m70f6e09a14" x="295.2" y="314.421623" style="fill-opacity: 0; stroke: #000000"/>
     <use xlink:href="#m70f6e09a14" x="295.2" y="326.77579" style="fill-opacity: 0; stroke: #000000"/>
     <use xlink:href="#m70f6e09a14" x="295.2" y="73.813928" style="fill-opacity: 0; stroke: #000000"/>
     <use xlink:href="#m70f6e09a14" x="295.2" y="313.342483" style="fill-opacity: 0; stroke: #000000"/>
     <use xlink:href="#m70f6e09a14" x="295.2" y="324.608882" style="fill-opacity: 0; stroke: #000000"/>
     <use xlink:href="#m70f6e09a14" x="295.2" y="68.812291" style="fill-opacity: 0; stroke: #000000"/>
     <use xlink:href="#m70f6e09a14" x="295.2" y="312.849887" style="fill-opacity: 0; stroke: #000000"/>
     <use xlink:href="#m70f6e09a14" x="295.2" y="74.801072" style="fill-opacity: 0; stroke: #000000"/>
     <use xlink:href="#m70f6e09a14" x="295.2" y="312.960278" style="fill-opacity: 0; stroke: #000000"/>
     <use xlink:href="#m70f6e09a14" x="295.2" y="68.561379" style="fill-opacity: 0; stroke: #000000"/>
     <use xlink:href="#m70f6e09a14" x="295.2" y="313.961229" style="fill-opacity: 0; stroke: #000000"/>
     <use xlink:href="#m70f6e09a14" x="295.2" y="73.518612" style="fill-opacity: 0; stroke: #000000"/>
     <use xlink:href="#m70f6e09a14" x="295.2" y="310.999499" style="fill-opacity: 0; stroke: #000000"/>
     <use xlink:href="#m70f6e09a14" x="295.2" y="79.775299" style="fill-opacity: 0; stroke: #000000"/>
     <use xlink:href="#m70f6e09a14" x="295.2" y="311.999398" style="fill-opacity: 0; stroke: #000000"/>
     <use xlink:href="#m70f6e09a14" x="295.2" y="231.813262" style="fill-opacity: 0; stroke: #000000"/>
     <use xlink:href="#m70f6e09a14" x="295.2" y="77.404141" style="fill-opacity: 0; stroke: #000000"/>
     <use xlink:href="#m70f6e09a14" x="295.2" y="314.974106" style="fill-opacity: 0; stroke: #000000"/>
     <use xlink:href="#m70f6e09a14" x="295.2" y="75.865516" style="fill-opacity: 0; stroke: #000000"/>
     <use xlink:href="#m70f6e09a14" x="295.2" y="314.56011" style="fill-opacity: 0; stroke: #000000"/>
     <use xlink:href="#m70f6e09a14" x="295.2" y="66.638851" style="fill-opacity: 0; stroke: #000000"/>
     <use xlink:href="#m70f6e09a14" x="295.2" y="313.604126" style="fill-opacity: 0; stroke: #000000"/>
     <use xlink:href="#m70f6e09a14" x="295.2" y="68.253598" style="fill-opacity: 0; stroke: #000000"/>
     <use xlink:href="#m70f6e09a14" x="295.2" y="315.450354" style="fill-opacity: 0; stroke: #000000"/>
    </g>
   </g>
   <g id="line2d_13">
    <path d="M 250.56 352.691482 
L 339.84 352.691482 
" clip-path="url(#pa499a5eb9c)" style="fill: none; stroke: #ff7f0e"/>
   </g>
   <g id="patch_4">
    <path d="M 72 384.48 
L 72 51.84 
" style="fill: none; stroke: #000000; stroke-width: 0.8; stroke-linejoin: miter; stroke-linecap: square"/>
   </g>
   <g id="patch_5">
    <path d="M 518.4 384.48 
L 518.4 51.84 
" style="fill: none; stroke: #000000; stroke-width: 0.8; stroke-linejoin: miter; stroke-linecap: square"/>
   </g>
   <g id="patch_6">
    <path d="M 72 384.48 
L 518.4 384.48 
" style="fill: none; stroke: #000000; stroke-width: 0.8; stroke-linejoin: miter; stroke-linecap: square"/>
   </g>
   <g id="patch_7">
    <path d="M 72 51.84 
L 518.4 51.84 
" style="fill: none; stroke: #000000; stroke-width: 0.8; stroke-linejoin: miter; stroke-linecap: square"/>
   </g>
   <g id="text_9">
    <!-- Get Trace With Delay -->
    <g transform="translate(232.04625 45.84) scale(0.12 -0.12)">
     <defs>
      <path id="DejaVuSans-47" d="M 3809 666 
L 3809 1919 
L 2778 1919 
L 2778 2438 
L 4434 2438 
L 4434 434 
Q 4069 175 3628 42 
Q 3188 -91 2688 -91 
Q 1594 -91 976 548 
Q 359 1188 359 2328 
Q 359 3472 976 4111 
Q 1594 4750 2688 4750 
Q 3144 4750 3555 4637 
Q 3966 4525 4313 4306 
L 4313 3634 
Q 3963 3931 3569 4081 
Q 3175 4231 2741 4231 
Q 1884 4231 1454 3753 
Q 1025 3275 1025 2328 
Q 1025 1384 1454 906 
Q 1884 428 2741 428 
Q 3075 428 3337 486 
Q 3600 544 3809 666 
z
" transform="scale(0.015625)"/>
      <path id="DejaVuSans-74" d="M 1172 4494 
L 1172 3500 
L 2356 3500 
L 2356 3053 
L 1172 3053 
L 1172 1153 
Q 1172 725 1289 603 
Q 1406 481 1766 481 
L 2356 481 
L 2356 0 
L 1766 0 
Q 1100 0 847 248 
Q 594 497 594 1153 
L 594 3053 
L 172 3053 
L 172 3500 
L 594 3500 
L 594 4494 
L 1172 4494 
z
" transform="scale(0.015625)"/>
      <path id="DejaVuSans-72" d="M 2631 2963 
Q 2534 3019 2420 3045 
Q 2306 3072 2169 3072 
Q 1681 3072 1420 2755 
Q 1159 2438 1159 1844 
L 1159 0 
L 581 0 
L 581 3500 
L 1159 3500 
L 1159 2956 
Q 1341 3275 1631 3429 
Q 1922 3584 2338 3584 
Q 2397 3584 2469 3576 
Q 2541 3569 2628 3553 
L 2631 2963 
z
" transform="scale(0.015625)"/>
      <path id="DejaVuSans-61" d="M 2194 1759 
Q 1497 1759 1228 1600 
Q 959 1441 959 1056 
Q 959 750 1161 570 
Q 1363 391 1709 391 
Q 2188 391 2477 730 
Q 2766 1069 2766 1631 
L 2766 1759 
L 2194 1759 
z
M 3341 1997 
L 3341 0 
L 2766 0 
L 2766 531 
Q 2569 213 2275 61 
Q 1981 -91 1556 -91 
Q 1019 -91 701 211 
Q 384 513 384 1019 
Q 384 1609 779 1909 
Q 1175 2209 1959 2209 
L 2766 2209 
L 2766 2266 
Q 2766 2663 2505 2880 
Q 2244 3097 1772 3097 
Q 1472 3097 1187 3025 
Q 903 2953 641 2809 
L 641 3341 
Q 956 3463 1253 3523 
Q 1550 3584 1831 3584 
Q 2591 3584 2966 3190 
Q 3341 2797 3341 1997 
z
" transform="scale(0.015625)"/>
      <path id="DejaVuSans-63" d="M 3122 3366 
L 3122 2828 
Q 2878 2963 2633 3030 
Q 2388 3097 2138 3097 
Q 1578 3097 1268 2742 
Q 959 2388 959 1747 
Q 959 1106 1268 751 
Q 1578 397 2138 397 
Q 2388 397 2633 464 
Q 2878 531 3122 666 
L 3122 134 
Q 2881 22 2623 -34 
Q 2366 -91 2075 -91 
Q 1284 -91 818 406 
Q 353 903 353 1747 
Q 353 2603 823 3093 
Q 1294 3584 2113 3584 
Q 2378 3584 2631 3529 
Q 2884 3475 3122 3366 
z
" transform="scale(0.015625)"/>
      <path id="DejaVuSans-57" d="M 213 4666 
L 850 4666 
L 1831 722 
L 2809 4666 
L 3519 4666 
L 4500 722 
L 5478 4666 
L 6119 4666 
L 4947 0 
L 4153 0 
L 3169 4050 
L 2175 0 
L 1381 0 
L 213 4666 
z
" transform="scale(0.015625)"/>
      <path id="DejaVuSans-68" d="M 3513 2113 
L 3513 0 
L 2938 0 
L 2938 2094 
Q 2938 2591 2744 2837 
Q 2550 3084 2163 3084 
Q 1697 3084 1428 2787 
Q 1159 2491 1159 1978 
L 1159 0 
L 581 0 
L 581 4863 
L 1159 4863 
L 1159 2956 
Q 1366 3272 1645 3428 
Q 1925 3584 2291 3584 
Q 2894 3584 3203 3211 
Q 3513 2838 3513 2113 
z
" transform="scale(0.015625)"/>
      <path id="DejaVuSans-44" d="M 1259 4147 
L 1259 519 
L 2022 519 
Q 2988 519 3436 956 
Q 3884 1394 3884 2338 
Q 3884 3275 3436 3711 
Q 2988 4147 2022 4147 
L 1259 4147 
z
M 628 4666 
L 1925 4666 
Q 3281 4666 3915 4102 
Q 4550 3538 4550 2338 
Q 4550 1131 3912 565 
Q 3275 0 1925 0 
L 628 0 
L 628 4666 
z
" transform="scale(0.015625)"/>
      <path id="DejaVuSans-6c" d="M 603 4863 
L 1178 4863 
L 1178 0 
L 603 0 
L 603 4863 
z
" transform="scale(0.015625)"/>
      <path id="DejaVuSans-79" d="M 2059 -325 
Q 1816 -950 1584 -1140 
Q 1353 -1331 966 -1331 
L 506 -1331 
L 506 -850 
L 844 -850 
Q 1081 -850 1212 -737 
Q 1344 -625 1503 -206 
L 1606 56 
L 191 3500 
L 800 3500 
L 1894 763 
L 2988 3500 
L 3597 3500 
L 2059 -325 
z
" transform="scale(0.015625)"/>
     </defs>
     <use xlink:href="#DejaVuSans-47"/>
     <use xlink:href="#DejaVuSans-65" transform="translate(77.490234 0)"/>
     <use xlink:href="#DejaVuSans-74" transform="translate(139.013672 0)"/>
     <use xlink:href="#DejaVuSans-20" transform="translate(178.222656 0)"/>
     <use xlink:href="#DejaVuSans-54" transform="translate(210.009766 0)"/>
     <use xlink:href="#DejaVuSans-72" transform="translate(256.34375 0)"/>
     <use xlink:href="#DejaVuSans-61" transform="translate(297.457031 0)"/>
     <use xlink:href="#DejaVuSans-63" transform="translate(358.736328 0)"/>
     <use xlink:href="#DejaVuSans-65" transform="translate(413.716797 0)"/>
     <use xlink:href="#DejaVuSans-20" transform="translate(475.240234 0)"/>
     <use xlink:href="#DejaVuSans-57" transform="translate(507.027344 0)"/>
     <use xlink:href="#DejaVuSans-69" transform="translate(603.654297 0)"/>
     <use xlink:href="#DejaVuSans-74" transform="translate(631.4375 0)"/>
     <use xlink:href="#DejaVuSans-68" transform="translate(670.646484 0)"/>
     <use xlink:href="#DejaVuSans-20" transform="translate(734.025391 0)"/>
     <use xlink:href="#DejaVuSans-44" transform="translate(765.8125 0)"/>
     <use xlink:href="#DejaVuSans-65" transform="translate(842.814453 0)"/>
     <use xlink:href="#DejaVuSans-6c" transform="translate(904.337891 0)"/>
     <use xlink:href="#DejaVuSans-61" transform="translate(932.121094 0)"/>
     <use xlink:href="#DejaVuSans-79" transform="translate(993.400391 0)"/>
    </g>
   </g>
  </g>
 </g>
 <defs>
  <clipPath id="pa499a5eb9c">
   <rect x="72" y="51.84" width="446.4" height="332.64"/>
  </clipPath>
 </defs>
</svg>
