<?xml version="1.0" encoding="utf-8" standalone="no"?>
<!DOCTYPE svg PUBLIC "-//W3C//DTD SVG 1.1//EN"
  "http://www.w3.org/Graphics/SVG/1.1/DTD/svg11.dtd">
<svg xmlns:xlink="http://www.w3.org/1999/xlink" width="576pt" height="432pt" viewBox="0 0 576 432" xmlns="http://www.w3.org/2000/svg" version="1.1">
 <metadata>
  <rdf:RDF xmlns:dc="http://purl.org/dc/elements/1.1/" xmlns:cc="http://creativecommons.org/ns#" xmlns:rdf="http://www.w3.org/1999/02/22-rdf-syntax-ns#">
   <cc:Work>
    <dc:type rdf:resource="http://purl.org/dc/dcmitype/StillImage"/>
    <dc:date>2025-06-10T03:16:27.606778</dc:date>
    <dc:format>image/svg+xml</dc:format>
    <dc:creator>
     <cc:Agent>
      <dc:title>Matplotlib v3.10.3, https://matplotlib.org/</dc:title>
     </cc:Agent>
    </dc:creator>
   </cc:Work>
  </rdf:RDF>
 </metadata>
 <defs>
  <style type="text/css">*{stroke-linejoin: round; stroke-linecap: butt}</style>
 </defs>
 <g id="figure_1">
  <g id="patch_1">
   <path d="M 0 432 
L 576 432 
L 576 0 
L 0 0 
z
" style="fill: #ffffff"/>
  </g>
  <g id="axes_1">
   <g id="patch_2">
    <path d="M 72 384.48 
L 518.4 384.48 
L 518.4 51.84 
L 72 51.84 
z
" style="fill: #ffffff"/>
   </g>
   <g id="FillBetweenPolyCollection_1">
    <path d="M 378.064547 375.384157 
L 212.335453 375.384157 
L 191.412498 372.27166 
L 183.6 369.159162 
L 190.996083 366.046664 
L 209.394609 362.934166 
L 231.56368 359.821668 
L 251.551789 356.70917 
L 266.771256 353.596672 
L 277.345017 350.484174 
L 284.396845 347.371676 
L 288.939326 344.259178 
L 291.690739 341.146681 
L 293.237033 338.034183 
L 294.06634 334.921685 
L 294.489382 331.809187 
L 294.617984 328.696689 
L 294.439353 325.584191 
L 293.930901 322.471693 
L 293.170698 319.359195 
L 292.392106 316.246697 
L 291.915273 313.134199 
L 291.965667 310.021701 
L 292.521227 306.909204 
L 293.334235 303.796706 
L 294.107647 300.684208 
L 294.662818 297.57171 
L 294.978357 294.459212 
L 295.123379 291.346714 
L 295.177844 288.234216 
L 295.194651 285.121718 
L 295.198924 282.00922 
L 295.19982 278.896722 
L 295.199975 275.784224 
L 295.199997 272.671727 
L 295.2 269.559229 
L 295.2 266.446731 
L 295.199999 263.334233 
L 295.199992 260.221735 
L 295.19994 257.109237 
L 295.199609 253.996739 
L 295.197884 250.884241 
L 295.190427 247.771743 
L 295.163726 244.659245 
L 295.084544 241.546747 
L 294.890598 238.43425 
L 294.500809 235.321752 
L 293.866704 232.209254 
L 293.055024 229.096756 
L 292.291481 225.984258 
L 291.880707 222.87176 
L 292.01725 219.759262 
L 292.640381 216.646764 
L 293.476448 213.534266 
L 294.229806 210.421768 
L 294.744136 207.30927 
L 295.021456 204.196773 
L 295.141789 201.084275 
L 295.184223 197.971777 
L 295.19645 194.859279 
L 295.199338 191.746781 
L 295.199898 188.634283 
L 295.199987 185.521785 
L 295.199999 182.409287 
L 295.2 179.296789 
L 295.2 176.184291 
L 295.2 173.071794 
L 295.2 169.959296 
L 295.2 166.846798 
L 295.2 163.7343 
L 295.2 160.621802 
L 295.2 157.509304 
L 295.2 154.396806 
L 295.2 151.284308 
L 295.2 148.17181 
L 295.2 145.059312 
L 295.2 141.946814 
L 295.2 138.834317 
L 295.2 135.721819 
L 295.2 132.609321 
L 295.2 129.496823 
L 295.2 126.384325 
L 295.2 123.271827 
L 295.2 120.159329 
L 295.2 117.046831 
L 295.2 113.934333 
L 295.2 110.821835 
L 295.2 107.709337 
L 295.2 104.59684 
L 295.199999 101.484342 
L 295.199992 98.371844 
L 295.199945 95.259346 
L 295.199701 92.146848 
L 295.198662 89.03435 
L 295.195098 85.921852 
L 295.185296 82.809354 
L 295.163877 79.696856 
L 295.127325 76.584358 
L 295.080259 73.47186 
L 295.038431 70.359363 
L 295.021462 67.246865 
L 295.378538 67.246865 
L 295.378538 67.246865 
L 295.361569 70.359363 
L 295.319741 73.47186 
L 295.272675 76.584358 
L 295.236123 79.696856 
L 295.214704 82.809354 
L 295.204902 85.921852 
L 295.201338 89.03435 
L 295.200299 92.146848 
L 295.200055 95.259346 
L 295.200008 98.371844 
L 295.200001 101.484342 
L 295.2 104.59684 
L 295.2 107.709337 
L 295.2 110.821835 
L 295.2 113.934333 
L 295.2 117.046831 
L 295.2 120.159329 
L 295.2 123.271827 
L 295.2 126.384325 
L 295.2 129.496823 
L 295.2 132.609321 
L 295.2 135.721819 
L 295.2 138.834317 
L 295.2 141.946814 
L 295.2 145.059312 
L 295.2 148.17181 
L 295.2 151.284308 
L 295.2 154.396806 
L 295.2 157.509304 
L 295.2 160.621802 
L 295.2 163.7343 
L 295.2 166.846798 
L 295.2 169.959296 
L 295.2 173.071794 
L 295.2 176.184291 
L 295.2 179.296789 
L 295.200001 182.409287 
L 295.200013 185.521785 
L 295.200102 188.634283 
L 295.200662 191.746781 
L 295.20355 194.859279 
L 295.215777 197.971777 
L 295.258211 201.084275 
L 295.378544 204.196773 
L 295.655864 207.30927 
L 296.170194 210.421768 
L 296.923552 213.534266 
L 297.759619 216.646764 
L 298.38275 219.759262 
L 298.519293 222.87176 
L 298.108519 225.984258 
L 297.344976 229.096756 
L 296.533296 232.209254 
L 295.899191 235.321752 
L 295.509402 238.43425 
L 295.315456 241.546747 
L 295.236274 244.659245 
L 295.209573 247.771743 
L 295.202116 250.884241 
L 295.200391 253.996739 
L 295.20006 257.109237 
L 295.200008 260.221735 
L 295.200001 263.334233 
L 295.2 266.446731 
L 295.2 269.559229 
L 295.200003 272.671727 
L 295.200025 275.784224 
L 295.20018 278.896722 
L 295.201076 282.00922 
L 295.205349 285.121718 
L 295.222156 288.234216 
L 295.276621 291.346714 
L 295.421643 294.459212 
L 295.737182 297.57171 
L 296.292353 300.684208 
L 297.065765 303.796706 
L 297.878773 306.909204 
L 298.434333 310.021701 
L 298.484727 313.134199 
L 298.007894 316.246697 
L 297.229302 319.359195 
L 296.469099 322.471693 
L 295.960647 325.584191 
L 295.782016 328.696689 
L 295.910618 331.809187 
L 296.33366 334.921685 
L 297.162967 338.034183 
L 298.709261 341.146681 
L 301.460674 344.259178 
L 306.003155 347.371676 
L 313.054983 350.484174 
L 323.628744 353.596672 
L 338.848211 356.70917 
L 358.83632 359.821668 
L 381.005391 362.934166 
L 399.403917 366.046664 
L 406.8 369.159162 
L 398.987502 372.27166 
L 378.064547 375.384157 
z
" clip-path="url(#pece1a07d05)" style="fill: #1f77b4; fill-opacity: 0.3"/>
   </g>
   <g id="matplotlib.axis_1">
    <g id="xtick_1">
     <g id="line2d_1">
      <defs>
       <path id="mb41ef00dca" d="M 0 0 
L 0 3.5 
" style="stroke: #000000; stroke-width: 0.8"/>
      </defs>
      <g>
       <use xlink:href="#mb41ef00dca" x="295.2" y="384.48" style="stroke: #000000; stroke-width: 0.8"/>
      </g>
     </g>
     <g id="text_1">
      <!-- 1 -->
      <g transform="translate(292.01875 399.078438) scale(0.1 -0.1)">
       <defs>
        <path id="DejaVuSans-31" d="M 794 531 
L 1825 531 
L 1825 4091 
L 703 3866 
L 703 4441 
L 1819 4666 
L 2450 4666 
L 2450 531 
L 3481 531 
L 3481 0 
L 794 0 
L 794 531 
z
" transform="scale(0.015625)"/>
       </defs>
       <use xlink:href="#DejaVuSans-31"/>
      </g>
     </g>
    </g>
   </g>
   <g id="matplotlib.axis_2">
    <g id="ytick_1">
     <g id="line2d_2">
      <defs>
       <path id="m961e667cc9" d="M 0 0 
L -3.5 0 
" style="stroke: #000000; stroke-width: 0.8"/>
      </defs>
      <g>
       <use xlink:href="#m961e667cc9" x="72" y="384.48" style="stroke: #000000; stroke-width: 0.8"/>
      </g>
     </g>
     <g id="text_2">
      <!-- 0 -->
      <g transform="translate(58.6375 388.279219) scale(0.1 -0.1)">
       <defs>
        <path id="DejaVuSans-30" d="M 2034 4250 
Q 1547 4250 1301 3770 
Q 1056 3291 1056 2328 
Q 1056 1369 1301 889 
Q 1547 409 2034 409 
Q 2525 409 2770 889 
Q 3016 1369 3016 2328 
Q 3016 3291 2770 3770 
Q 2525 4250 2034 4250 
z
M 2034 4750 
Q 2819 4750 3233 4129 
Q 3647 3509 3647 2328 
Q 3647 1150 3233 529 
Q 2819 -91 2034 -91 
Q 1250 -91 836 529 
Q 422 1150 422 2328 
Q 422 3509 836 4129 
Q 1250 4750 2034 4750 
z
" transform="scale(0.015625)"/>
       </defs>
       <use xlink:href="#DejaVuSans-30"/>
      </g>
     </g>
    </g>
    <g id="ytick_2">
     <g id="line2d_3">
      <g>
       <use xlink:href="#m961e667cc9" x="72" y="346.257902" style="stroke: #000000; stroke-width: 0.8"/>
      </g>
     </g>
     <g id="text_3">
      <!-- 5 -->
      <g transform="translate(58.6375 350.057121) scale(0.1 -0.1)">
       <defs>
        <path id="DejaVuSans-35" d="M 691 4666 
L 3169 4666 
L 3169 4134 
L 1269 4134 
L 1269 2991 
Q 1406 3038 1543 3061 
Q 1681 3084 1819 3084 
Q 2600 3084 3056 2656 
Q 3513 2228 3513 1497 
Q 3513 744 3044 326 
Q 2575 -91 1722 -91 
Q 1428 -91 1123 -41 
Q 819 9 494 109 
L 494 744 
Q 775 591 1075 516 
Q 1375 441 1709 441 
Q 2250 441 2565 725 
Q 2881 1009 2881 1497 
Q 2881 1984 2565 2268 
Q 2250 2553 1709 2553 
Q 1456 2553 1204 2497 
Q 953 2441 691 2322 
L 691 4666 
z
" transform="scale(0.015625)"/>
       </defs>
       <use xlink:href="#DejaVuSans-35"/>
      </g>
     </g>
    </g>
    <g id="ytick_3">
     <g id="line2d_4">
      <g>
       <use xlink:href="#m961e667cc9" x="72" y="308.035805" style="stroke: #000000; stroke-width: 0.8"/>
      </g>
     </g>
     <g id="text_4">
      <!-- 10 -->
      <g transform="translate(52.275 311.835024) scale(0.1 -0.1)">
       <use xlink:href="#DejaVuSans-31"/>
       <use xlink:href="#DejaVuSans-30" transform="translate(63.623047 0)"/>
      </g>
     </g>
    </g>
    <g id="ytick_4">
     <g id="line2d_5">
      <g>
       <use xlink:href="#m961e667cc9" x="72" y="269.813707" style="stroke: #000000; stroke-width: 0.8"/>
      </g>
     </g>
     <g id="text_5">
      <!-- 15 -->
      <g transform="translate(52.275 273.612926) scale(0.1 -0.1)">
       <use xlink:href="#DejaVuSans-31"/>
       <use xlink:href="#DejaVuSans-35" transform="translate(63.623047 0)"/>
      </g>
     </g>
    </g>
    <g id="ytick_5">
     <g id="line2d_6">
      <g>
       <use xlink:href="#m961e667cc9" x="72" y="231.59161" style="stroke: #000000; stroke-width: 0.8"/>
      </g>
     </g>
     <g id="text_6">
      <!-- 20 -->
      <g transform="translate(52.275 235.390829) scale(0.1 -0.1)">
       <defs>
        <path id="DejaVuSans-32" d="M 1228 531 
L 3431 531 
L 3431 0 
L 469 0 
L 469 531 
Q 828 903 1448 1529 
Q 2069 2156 2228 2338 
Q 2531 2678 2651 2914 
Q 2772 3150 2772 3378 
Q 2772 3750 2511 3984 
Q 2250 4219 1831 4219 
Q 1534 4219 1204 4116 
Q 875 4013 500 3803 
L 500 4441 
Q 881 4594 1212 4672 
Q 1544 4750 1819 4750 
Q 2544 4750 2975 4387 
Q 3406 4025 3406 3419 
Q 3406 3131 3298 2873 
Q 3191 2616 2906 2266 
Q 2828 2175 2409 1742 
Q 1991 1309 1228 531 
z
" transform="scale(0.015625)"/>
       </defs>
       <use xlink:href="#DejaVuSans-32"/>
       <use xlink:href="#DejaVuSans-30" transform="translate(63.623047 0)"/>
      </g>
     </g>
    </g>
    <g id="ytick_6">
     <g id="line2d_7">
      <g>
       <use xlink:href="#m961e667cc9" x="72" y="193.369512" style="stroke: #000000; stroke-width: 0.8"/>
      </g>
     </g>
     <g id="text_7">
      <!-- 25 -->
      <g transform="translate(52.275 197.168731) scale(0.1 -0.1)">
       <use xlink:href="#DejaVuSans-32"/>
       <use xlink:href="#DejaVuSans-35" transform="translate(63.623047 0)"/>
      </g>
     </g>
    </g>
    <g id="ytick_7">
     <g id="line2d_8">
      <g>
       <use xlink:href="#m961e667cc9" x="72" y="155.147415" style="stroke: #000000; stroke-width: 0.8"/>
      </g>
     </g>
     <g id="text_8">
      <!-- 30 -->
      <g transform="translate(52.275 158.946634) scale(0.1 -0.1)">
       <defs>
        <path id="DejaVuSans-33" d="M 2597 2516 
Q 3050 2419 3304 2112 
Q 3559 1806 3559 1356 
Q 3559 666 3084 287 
Q 2609 -91 1734 -91 
Q 1441 -91 1130 -33 
Q 819 25 488 141 
L 488 750 
Q 750 597 1062 519 
Q 1375 441 1716 441 
Q 2309 441 2620 675 
Q 2931 909 2931 1356 
Q 2931 1769 2642 2001 
Q 2353 2234 1838 2234 
L 1294 2234 
L 1294 2753 
L 1863 2753 
Q 2328 2753 2575 2939 
Q 2822 3125 2822 3475 
Q 2822 3834 2567 4026 
Q 2313 4219 1838 4219 
Q 1578 4219 1281 4162 
Q 984 4106 628 3988 
L 628 4550 
Q 988 4650 1302 4700 
Q 1616 4750 1894 4750 
Q 2613 4750 3031 4423 
Q 3450 4097 3450 3541 
Q 3450 3153 3228 2886 
Q 3006 2619 2597 2516 
z
" transform="scale(0.015625)"/>
       </defs>
       <use xlink:href="#DejaVuSans-33"/>
       <use xlink:href="#DejaVuSans-30" transform="translate(63.623047 0)"/>
      </g>
     </g>
    </g>
    <g id="ytick_8">
     <g id="line2d_9">
      <g>
       <use xlink:href="#m961e667cc9" x="72" y="116.925317" style="stroke: #000000; stroke-width: 0.8"/>
      </g>
     </g>
     <g id="text_9">
      <!-- 35 -->
      <g transform="translate(52.275 120.724536) scale(0.1 -0.1)">
       <use xlink:href="#DejaVuSans-33"/>
       <use xlink:href="#DejaVuSans-35" transform="translate(63.623047 0)"/>
      </g>
     </g>
    </g>
    <g id="ytick_9">
     <g id="line2d_10">
      <g>
       <use xlink:href="#m961e667cc9" x="72" y="78.70322" style="stroke: #000000; stroke-width: 0.8"/>
      </g>
     </g>
     <g id="text_10">
      <!-- 40 -->
      <g transform="translate(52.275 82.502439) scale(0.1 -0.1)">
       <defs>
        <path id="DejaVuSans-34" d="M 2419 4116 
L 825 1625 
L 2419 1625 
L 2419 4116 
z
M 2253 4666 
L 3047 4666 
L 3047 1625 
L 3713 1625 
L 3713 1100 
L 3047 1100 
L 3047 0 
L 2419 0 
L 2419 1100 
L 313 1100 
L 313 1709 
L 2253 4666 
z
" transform="scale(0.015625)"/>
       </defs>
       <use xlink:href="#DejaVuSans-34"/>
       <use xlink:href="#DejaVuSans-30" transform="translate(63.623047 0)"/>
      </g>
     </g>
    </g>
    <g id="text_11">
     <!-- Time (ms) -->
     <g transform="translate(46.195312 243.359219) rotate(-90) scale(0.1 -0.1)">
      <defs>
       <path id="DejaVuSans-54" d="M -19 4666 
L 3928 4666 
L 3928 4134 
L 2272 4134 
L 2272 0 
L 1638 0 
L 1638 4134 
L -19 4134 
L -19 4666 
z
" transform="scale(0.015625)"/>
       <path id="DejaVuSans-69" d="M 603 3500 
L 1178 3500 
L 1178 0 
L 603 0 
L 603 3500 
z
M 603 4863 
L 1178 4863 
L 1178 4134 
L 603 4134 
L 603 4863 
z
" transform="scale(0.015625)"/>
       <path id="DejaVuSans-6d" d="M 3328 2828 
Q 3544 3216 3844 3400 
Q 4144 3584 4550 3584 
Q 5097 3584 5394 3201 
Q 5691 2819 5691 2113 
L 5691 0 
L 5113 0 
L 5113 2094 
Q 5113 2597 4934 2840 
Q 4756 3084 4391 3084 
Q 3944 3084 3684 2787 
Q 3425 2491 3425 1978 
L 3425 0 
L 2847 0 
L 2847 2094 
Q 2847 2600 2669 2842 
Q 2491 3084 2119 3084 
Q 1678 3084 1418 2786 
Q 1159 2488 1159 1978 
L 1159 0 
L 581 0 
L 581 3500 
L 1159 3500 
L 1159 2956 
Q 1356 3278 1631 3431 
Q 1906 3584 2284 3584 
Q 2666 3584 2933 3390 
Q 3200 3197 3328 2828 
z
" transform="scale(0.015625)"/>
       <path id="DejaVuSans-65" d="M 3597 1894 
L 3597 1613 
L 953 1613 
Q 991 1019 1311 708 
Q 1631 397 2203 397 
Q 2534 397 2845 478 
Q 3156 559 3463 722 
L 3463 178 
Q 3153 47 2828 -22 
Q 2503 -91 2169 -91 
Q 1331 -91 842 396 
Q 353 884 353 1716 
Q 353 2575 817 3079 
Q 1281 3584 2069 3584 
Q 2775 3584 3186 3129 
Q 3597 2675 3597 1894 
z
M 3022 2063 
Q 3016 2534 2758 2815 
Q 2500 3097 2075 3097 
Q 1594 3097 1305 2825 
Q 1016 2553 972 2059 
L 3022 2063 
z
" transform="scale(0.015625)"/>
       <path id="DejaVuSans-20" transform="scale(0.015625)"/>
       <path id="DejaVuSans-28" d="M 1984 4856 
Q 1566 4138 1362 3434 
Q 1159 2731 1159 2009 
Q 1159 1288 1364 580 
Q 1569 -128 1984 -844 
L 1484 -844 
Q 1016 -109 783 600 
Q 550 1309 550 2009 
Q 550 2706 781 3412 
Q 1013 4119 1484 4856 
L 1984 4856 
z
" transform="scale(0.015625)"/>
       <path id="DejaVuSans-73" d="M 2834 3397 
L 2834 2853 
Q 2591 2978 2328 3040 
Q 2066 3103 1784 3103 
Q 1356 3103 1142 2972 
Q 928 2841 928 2578 
Q 928 2378 1081 2264 
Q 1234 2150 1697 2047 
L 1894 2003 
Q 2506 1872 2764 1633 
Q 3022 1394 3022 966 
Q 3022 478 2636 193 
Q 2250 -91 1575 -91 
Q 1294 -91 989 -36 
Q 684 19 347 128 
L 347 722 
Q 666 556 975 473 
Q 1284 391 1588 391 
Q 1994 391 2212 530 
Q 2431 669 2431 922 
Q 2431 1156 2273 1281 
Q 2116 1406 1581 1522 
L 1381 1569 
Q 847 1681 609 1914 
Q 372 2147 372 2553 
Q 372 3047 722 3315 
Q 1072 3584 1716 3584 
Q 2034 3584 2315 3537 
Q 2597 3491 2834 3397 
z
" transform="scale(0.015625)"/>
       <path id="DejaVuSans-29" d="M 513 4856 
L 1013 4856 
Q 1481 4119 1714 3412 
Q 1947 2706 1947 2009 
Q 1947 1309 1714 600 
Q 1481 -109 1013 -844 
L 513 -844 
Q 928 -128 1133 580 
Q 1338 1288 1338 2009 
Q 1338 2731 1133 3434 
Q 928 4138 513 4856 
z
" transform="scale(0.015625)"/>
      </defs>
      <use xlink:href="#DejaVuSans-54"/>
      <use xlink:href="#DejaVuSans-69" transform="translate(57.958984 0)"/>
      <use xlink:href="#DejaVuSans-6d" transform="translate(85.742188 0)"/>
      <use xlink:href="#DejaVuSans-65" transform="translate(183.154297 0)"/>
      <use xlink:href="#DejaVuSans-20" transform="translate(244.677734 0)"/>
      <use xlink:href="#DejaVuSans-28" transform="translate(276.464844 0)"/>
      <use xlink:href="#DejaVuSans-6d" transform="translate(315.478516 0)"/>
      <use xlink:href="#DejaVuSans-73" transform="translate(412.890625 0)"/>
      <use xlink:href="#DejaVuSans-29" transform="translate(464.990234 0)"/>
     </g>
    </g>
   </g>
   <g id="LineCollection_1">
    <path d="M 239.4 362.328254 
L 351 362.328254 
" clip-path="url(#pece1a07d05)" style="fill: none; stroke: #1f77b4; stroke-width: 1.5"/>
   </g>
   <g id="LineCollection_2">
    <path d="M 239.4 67.246865 
L 351 67.246865 
" clip-path="url(#pece1a07d05)" style="fill: none; stroke: #1f77b4; stroke-width: 1.5"/>
   </g>
   <g id="LineCollection_3">
    <path d="M 239.4 375.384157 
L 351 375.384157 
" clip-path="url(#pece1a07d05)" style="fill: none; stroke: #1f77b4; stroke-width: 1.5"/>
   </g>
   <g id="LineCollection_4">
    <path d="M 295.2 375.384157 
L 295.2 67.246865 
" clip-path="url(#pece1a07d05)" style="fill: none; stroke: #1f77b4; stroke-width: 1.5"/>
   </g>
   <g id="patch_3">
    <path d="M 250.56 371.812108 
L 339.84 371.812108 
L 339.84 364.404036 
L 250.56 364.404036 
L 250.56 371.812108 
z
" clip-path="url(#pece1a07d05)" style="fill: #1f77b4; stroke: #000000; stroke-linejoin: miter"/>
   </g>
   <g id="line2d_11">
    <path d="M 295.2 371.812108 
L 295.2 375.384157 
" clip-path="url(#pece1a07d05)" style="fill: none; stroke: #000000; stroke-linecap: square"/>
   </g>
   <g id="line2d_12">
    <path d="M 295.2 364.404036 
L 295.2 353.305048 
" clip-path="url(#pece1a07d05)" style="fill: none; stroke: #000000; stroke-linecap: square"/>
   </g>
   <g id="line2d_13">
    <path d="M 272.88 375.384157 
L 317.52 375.384157 
" clip-path="url(#pece1a07d05)" style="fill: none; stroke: #000000; stroke-linecap: square"/>
   </g>
   <g id="line2d_14">
    <path d="M 272.88 353.305048 
L 317.52 353.305048 
" clip-path="url(#pece1a07d05)" style="fill: none; stroke: #000000; stroke-linecap: square"/>
   </g>
   <g id="line2d_15">
    <defs>
     <path id="mb2616d1f8b" d="M 0 3 
C 0.795609 3 1.55874 2.683901 2.12132 2.12132 
C 2.683901 1.55874 3 0.795609 3 0 
C 3 -0.795609 2.683901 -1.55874 2.12132 -2.12132 
C 1.55874 -2.683901 0.795609 -3 0 -3 
C -0.795609 -3 -1.55874 -2.683901 -2.12132 -2.12132 
C -2.683901 -1.55874 -3 -0.795609 -3 0 
C -3 0.795609 -2.683901 1.55874 -2.12132 2.12132 
C -1.55874 2.683901 -0.795609 3 0 3 
z
" style="stroke: #000000"/>
    </defs>
    <g clip-path="url(#pece1a07d05)">
     <use xlink:href="#mb2616d1f8b" x="295.2" y="221.140182" style="fill-opacity: 0; stroke: #000000"/>
     <use xlink:href="#mb2616d1f8b" x="295.2" y="309.968727" style="fill-opacity: 0; stroke: #000000"/>
     <use xlink:href="#mb2616d1f8b" x="295.2" y="352.487844" style="fill-opacity: 0; stroke: #000000"/>
     <use xlink:href="#mb2616d1f8b" x="295.2" y="221.231021" style="fill-opacity: 0; stroke: #000000"/>
     <use xlink:href="#mb2616d1f8b" x="295.2" y="315.404154" style="fill-opacity: 0; stroke: #000000"/>
     <use xlink:href="#mb2616d1f8b" x="295.2" y="348.806819" style="fill-opacity: 0; stroke: #000000"/>
     <use xlink:href="#mb2616d1f8b" x="295.2" y="350.404587" style="fill-opacity: 0; stroke: #000000"/>
     <use xlink:href="#mb2616d1f8b" x="295.2" y="221.530744" style="fill-opacity: 0; stroke: #000000"/>
     <use xlink:href="#mb2616d1f8b" x="295.2" y="306.672988" style="fill-opacity: 0; stroke: #000000"/>
     <use xlink:href="#mb2616d1f8b" x="295.2" y="352.549741" style="fill-opacity: 0; stroke: #000000"/>
     <use xlink:href="#mb2616d1f8b" x="295.2" y="350.777666" style="fill-opacity: 0; stroke: #000000"/>
     <use xlink:href="#mb2616d1f8b" x="295.2" y="339.843998" style="fill-opacity: 0; stroke: #000000"/>
     <use xlink:href="#mb2616d1f8b" x="295.2" y="221.57593" style="fill-opacity: 0; stroke: #000000"/>
     <use xlink:href="#mb2616d1f8b" x="295.2" y="312.119981" style="fill-opacity: 0; stroke: #000000"/>
     <use xlink:href="#mb2616d1f8b" x="295.2" y="350.84726" style="fill-opacity: 0; stroke: #000000"/>
     <use xlink:href="#mb2616d1f8b" x="295.2" y="353.193463" style="fill-opacity: 0; stroke: #000000"/>
     <use xlink:href="#mb2616d1f8b" x="295.2" y="219.716815" style="fill-opacity: 0; stroke: #000000"/>
     <use xlink:href="#mb2616d1f8b" x="295.2" y="308.866379" style="fill-opacity: 0; stroke: #000000"/>
     <use xlink:href="#mb2616d1f8b" x="295.2" y="352.059749" style="fill-opacity: 0; stroke: #000000"/>
     <use xlink:href="#mb2616d1f8b" x="295.2" y="352.158362" style="fill-opacity: 0; stroke: #000000"/>
     <use xlink:href="#mb2616d1f8b" x="295.2" y="335.51325" style="fill-opacity: 0; stroke: #000000"/>
     <use xlink:href="#mb2616d1f8b" x="295.2" y="218.375593" style="fill-opacity: 0; stroke: #000000"/>
     <use xlink:href="#mb2616d1f8b" x="295.2" y="309.883354" style="fill-opacity: 0; stroke: #000000"/>
     <use xlink:href="#mb2616d1f8b" x="295.2" y="351.409263" style="fill-opacity: 0; stroke: #000000"/>
     <use xlink:href="#mb2616d1f8b" x="295.2" y="220.185738" style="fill-opacity: 0; stroke: #000000"/>
     <use xlink:href="#mb2616d1f8b" x="295.2" y="314.861599" style="fill-opacity: 0; stroke: #000000"/>
     <use xlink:href="#mb2616d1f8b" x="295.2" y="351.620226" style="fill-opacity: 0; stroke: #000000"/>
     <use xlink:href="#mb2616d1f8b" x="295.2" y="350.40776" style="fill-opacity: 0; stroke: #000000"/>
     <use xlink:href="#mb2616d1f8b" x="295.2" y="223.437361" style="fill-opacity: 0; stroke: #000000"/>
     <use xlink:href="#mb2616d1f8b" x="295.2" y="316.506563" style="fill-opacity: 0; stroke: #000000"/>
     <use xlink:href="#mb2616d1f8b" x="295.2" y="352.714104" style="fill-opacity: 0; stroke: #000000"/>
     <use xlink:href="#mb2616d1f8b" x="295.2" y="223.205284" style="fill-opacity: 0; stroke: #000000"/>
     <use xlink:href="#mb2616d1f8b" x="295.2" y="312.487808" style="fill-opacity: 0; stroke: #000000"/>
     <use xlink:href="#mb2616d1f8b" x="295.2" y="352.697355" style="fill-opacity: 0; stroke: #000000"/>
     <use xlink:href="#mb2616d1f8b" x="295.2" y="350.768561" style="fill-opacity: 0; stroke: #000000"/>
     <use xlink:href="#mb2616d1f8b" x="295.2" y="353.016915" style="fill-opacity: 0; stroke: #000000"/>
     <use xlink:href="#mb2616d1f8b" x="295.2" y="341.265263" style="fill-opacity: 0; stroke: #000000"/>
     <use xlink:href="#mb2616d1f8b" x="295.2" y="222.476511" style="fill-opacity: 0; stroke: #000000"/>
     <use xlink:href="#mb2616d1f8b" x="295.2" y="312.481593" style="fill-opacity: 0; stroke: #000000"/>
     <use xlink:href="#mb2616d1f8b" x="295.2" y="352.376993" style="fill-opacity: 0; stroke: #000000"/>
     <use xlink:href="#mb2616d1f8b" x="295.2" y="352.198862" style="fill-opacity: 0; stroke: #000000"/>
     <use xlink:href="#mb2616d1f8b" x="295.2" y="225.526031" style="fill-opacity: 0; stroke: #000000"/>
     <use xlink:href="#mb2616d1f8b" x="295.2" y="313.833195" style="fill-opacity: 0; stroke: #000000"/>
     <use xlink:href="#mb2616d1f8b" x="295.2" y="353.001572" style="fill-opacity: 0; stroke: #000000"/>
     <use xlink:href="#mb2616d1f8b" x="295.2" y="353.098664" style="fill-opacity: 0; stroke: #000000"/>
     <use xlink:href="#mb2616d1f8b" x="295.2" y="339.305823" style="fill-opacity: 0; stroke: #000000"/>
     <use xlink:href="#mb2616d1f8b" x="295.2" y="221.16018" style="fill-opacity: 0; stroke: #000000"/>
     <use xlink:href="#mb2616d1f8b" x="295.2" y="311.709514" style="fill-opacity: 0; stroke: #000000"/>
     <use xlink:href="#mb2616d1f8b" x="295.2" y="352.294448" style="fill-opacity: 0; stroke: #000000"/>
     <use xlink:href="#mb2616d1f8b" x="295.2" y="349.272449" style="fill-opacity: 0; stroke: #000000"/>
     <use xlink:href="#mb2616d1f8b" x="295.2" y="222.337222" style="fill-opacity: 0; stroke: #000000"/>
     <use xlink:href="#mb2616d1f8b" x="295.2" y="311.131443" style="fill-opacity: 0; stroke: #000000"/>
     <use xlink:href="#mb2616d1f8b" x="295.2" y="352.601716" style="fill-opacity: 0; stroke: #000000"/>
     <use xlink:href="#mb2616d1f8b" x="295.2" y="340.25146" style="fill-opacity: 0; stroke: #000000"/>
     <use xlink:href="#mb2616d1f8b" x="295.2" y="218.355382" style="fill-opacity: 0; stroke: #000000"/>
     <use xlink:href="#mb2616d1f8b" x="295.2" y="310.464208" style="fill-opacity: 0; stroke: #000000"/>
     <use xlink:href="#mb2616d1f8b" x="295.2" y="352.552868" style="fill-opacity: 0; stroke: #000000"/>
     <use xlink:href="#mb2616d1f8b" x="295.2" y="222.145255" style="fill-opacity: 0; stroke: #000000"/>
     <use xlink:href="#mb2616d1f8b" x="295.2" y="307.207662" style="fill-opacity: 0; stroke: #000000"/>
     <use xlink:href="#mb2616d1f8b" x="295.2" y="353.044488" style="fill-opacity: 0; stroke: #000000"/>
     <use xlink:href="#mb2616d1f8b" x="295.2" y="352.850312" style="fill-opacity: 0; stroke: #000000"/>
     <use xlink:href="#mb2616d1f8b" x="295.2" y="353.218024" style="fill-opacity: 0; stroke: #000000"/>
     <use xlink:href="#mb2616d1f8b" x="295.2" y="227.335449" style="fill-opacity: 0; stroke: #000000"/>
     <use xlink:href="#mb2616d1f8b" x="295.2" y="309.393783" style="fill-opacity: 0; stroke: #000000"/>
     <use xlink:href="#mb2616d1f8b" x="295.2" y="352.860884" style="fill-opacity: 0; stroke: #000000"/>
     <use xlink:href="#mb2616d1f8b" x="295.2" y="67.246865" style="fill-opacity: 0; stroke: #000000"/>
     <use xlink:href="#mb2616d1f8b" x="295.2" y="224.66361" style="fill-opacity: 0; stroke: #000000"/>
     <use xlink:href="#mb2616d1f8b" x="295.2" y="311.473959" style="fill-opacity: 0; stroke: #000000"/>
     <use xlink:href="#mb2616d1f8b" x="295.2" y="353.283651" style="fill-opacity: 0; stroke: #000000"/>
     <use xlink:href="#mb2616d1f8b" x="295.2" y="227.665031" style="fill-opacity: 0; stroke: #000000"/>
     <use xlink:href="#mb2616d1f8b" x="295.2" y="313.303399" style="fill-opacity: 0; stroke: #000000"/>
     <use xlink:href="#mb2616d1f8b" x="295.2" y="351.878546" style="fill-opacity: 0; stroke: #000000"/>
     <use xlink:href="#mb2616d1f8b" x="295.2" y="351.84949" style="fill-opacity: 0; stroke: #000000"/>
     <use xlink:href="#mb2616d1f8b" x="295.2" y="222.898017" style="fill-opacity: 0; stroke: #000000"/>
     <use xlink:href="#mb2616d1f8b" x="295.2" y="312.996215" style="fill-opacity: 0; stroke: #000000"/>
     <use xlink:href="#mb2616d1f8b" x="295.2" y="353.060488" style="fill-opacity: 0; stroke: #000000"/>
     <use xlink:href="#mb2616d1f8b" x="295.2" y="352.078899" style="fill-opacity: 0; stroke: #000000"/>
     <use xlink:href="#mb2616d1f8b" x="295.2" y="217.900921" style="fill-opacity: 0; stroke: #000000"/>
     <use xlink:href="#mb2616d1f8b" x="295.2" y="315.832264" style="fill-opacity: 0; stroke: #000000"/>
     <use xlink:href="#mb2616d1f8b" x="295.2" y="352.696522" style="fill-opacity: 0; stroke: #000000"/>
     <use xlink:href="#mb2616d1f8b" x="295.2" y="353.085646" style="fill-opacity: 0; stroke: #000000"/>
    </g>
   </g>
   <g id="line2d_16">
    <path d="M 250.56 368.464819 
L 339.84 368.464819 
" clip-path="url(#pece1a07d05)" style="fill: none; stroke: #ff7f0e"/>
   </g>
   <g id="patch_4">
    <path d="M 72 384.48 
L 72 51.84 
" style="fill: none; stroke: #000000; stroke-width: 0.8; stroke-linejoin: miter; stroke-linecap: square"/>
   </g>
   <g id="patch_5">
    <path d="M 518.4 384.48 
L 518.4 51.84 
" style="fill: none; stroke: #000000; stroke-width: 0.8; stroke-linejoin: miter; stroke-linecap: square"/>
   </g>
   <g id="patch_6">
    <path d="M 72 384.48 
L 518.4 384.48 
" style="fill: none; stroke: #000000; stroke-width: 0.8; stroke-linejoin: miter; stroke-linecap: square"/>
   </g>
   <g id="patch_7">
    <path d="M 72 51.84 
L 518.4 51.84 
" style="fill: none; stroke: #000000; stroke-width: 0.8; stroke-linejoin: miter; stroke-linecap: square"/>
   </g>
   <g id="text_12">
    <!-- Handle Result -->
    <g transform="translate(253.595625 45.84) scale(0.12 -0.12)">
     <defs>
      <path id="DejaVuSans-48" d="M 628 4666 
L 1259 4666 
L 1259 2753 
L 3553 2753 
L 3553 4666 
L 4184 4666 
L 4184 0 
L 3553 0 
L 3553 2222 
L 1259 2222 
L 1259 0 
L 628 0 
L 628 4666 
z
" transform="scale(0.015625)"/>
      <path id="DejaVuSans-61" d="M 2194 1759 
Q 1497 1759 1228 1600 
Q 959 1441 959 1056 
Q 959 750 1161 570 
Q 1363 391 1709 391 
Q 2188 391 2477 730 
Q 2766 1069 2766 1631 
L 2766 1759 
L 2194 1759 
z
M 3341 1997 
L 3341 0 
L 2766 0 
L 2766 531 
Q 2569 213 2275 61 
Q 1981 -91 1556 -91 
Q 1019 -91 701 211 
Q 384 513 384 1019 
Q 384 1609 779 1909 
Q 1175 2209 1959 2209 
L 2766 2209 
L 2766 2266 
Q 2766 2663 2505 2880 
Q 2244 3097 1772 3097 
Q 1472 3097 1187 3025 
Q 903 2953 641 2809 
L 641 3341 
Q 956 3463 1253 3523 
Q 1550 3584 1831 3584 
Q 2591 3584 2966 3190 
Q 3341 2797 3341 1997 
z
" transform="scale(0.015625)"/>
      <path id="DejaVuSans-6e" d="M 3513 2113 
L 3513 0 
L 2938 0 
L 2938 2094 
Q 2938 2591 2744 2837 
Q 2550 3084 2163 3084 
Q 1697 3084 1428 2787 
Q 1159 2491 1159 1978 
L 1159 0 
L 581 0 
L 581 3500 
L 1159 3500 
L 1159 2956 
Q 1366 3272 1645 3428 
Q 1925 3584 2291 3584 
Q 2894 3584 3203 3211 
Q 3513 2838 3513 2113 
z
" transform="scale(0.015625)"/>
      <path id="DejaVuSans-64" d="M 2906 2969 
L 2906 4863 
L 3481 4863 
L 3481 0 
L 2906 0 
L 2906 525 
Q 2725 213 2448 61 
Q 2172 -91 1784 -91 
Q 1150 -91 751 415 
Q 353 922 353 1747 
Q 353 2572 751 3078 
Q 1150 3584 1784 3584 
Q 2172 3584 2448 3432 
Q 2725 3281 2906 2969 
z
M 947 1747 
Q 947 1113 1208 752 
Q 1469 391 1925 391 
Q 2381 391 2643 752 
Q 2906 1113 2906 1747 
Q 2906 2381 2643 2742 
Q 2381 3103 1925 3103 
Q 1469 3103 1208 2742 
Q 947 2381 947 1747 
z
" transform="scale(0.015625)"/>
      <path id="DejaVuSans-6c" d="M 603 4863 
L 1178 4863 
L 1178 0 
L 603 0 
L 603 4863 
z
" transform="scale(0.015625)"/>
      <path id="DejaVuSans-52" d="M 2841 2188 
Q 3044 2119 3236 1894 
Q 3428 1669 3622 1275 
L 4263 0 
L 3584 0 
L 2988 1197 
Q 2756 1666 2539 1819 
Q 2322 1972 1947 1972 
L 1259 1972 
L 1259 0 
L 628 0 
L 628 4666 
L 2053 4666 
Q 2853 4666 3247 4331 
Q 3641 3997 3641 3322 
Q 3641 2881 3436 2590 
Q 3231 2300 2841 2188 
z
M 1259 4147 
L 1259 2491 
L 2053 2491 
Q 2509 2491 2742 2702 
Q 2975 2913 2975 3322 
Q 2975 3731 2742 3939 
Q 2509 4147 2053 4147 
L 1259 4147 
z
" transform="scale(0.015625)"/>
      <path id="DejaVuSans-75" d="M 544 1381 
L 544 3500 
L 1119 3500 
L 1119 1403 
Q 1119 906 1312 657 
Q 1506 409 1894 409 
Q 2359 409 2629 706 
Q 2900 1003 2900 1516 
L 2900 3500 
L 3475 3500 
L 3475 0 
L 2900 0 
L 2900 538 
Q 2691 219 2414 64 
Q 2138 -91 1772 -91 
Q 1169 -91 856 284 
Q 544 659 544 1381 
z
M 1991 3584 
L 1991 3584 
z
" transform="scale(0.015625)"/>
      <path id="DejaVuSans-74" d="M 1172 4494 
L 1172 3500 
L 2356 3500 
L 2356 3053 
L 1172 3053 
L 1172 1153 
Q 1172 725 1289 603 
Q 1406 481 1766 481 
L 2356 481 
L 2356 0 
L 1766 0 
Q 1100 0 847 248 
Q 594 497 594 1153 
L 594 3053 
L 172 3053 
L 172 3500 
L 594 3500 
L 594 4494 
L 1172 4494 
z
" transform="scale(0.015625)"/>
     </defs>
     <use xlink:href="#DejaVuSans-48"/>
     <use xlink:href="#DejaVuSans-61" transform="translate(75.195312 0)"/>
     <use xlink:href="#DejaVuSans-6e" transform="translate(136.474609 0)"/>
     <use xlink:href="#DejaVuSans-64" transform="translate(199.853516 0)"/>
     <use xlink:href="#DejaVuSans-6c" transform="translate(263.330078 0)"/>
     <use xlink:href="#DejaVuSans-65" transform="translate(291.113281 0)"/>
     <use xlink:href="#DejaVuSans-20" transform="translate(352.636719 0)"/>
     <use xlink:href="#DejaVuSans-52" transform="translate(384.423828 0)"/>
     <use xlink:href="#DejaVuSans-65" transform="translate(449.40625 0)"/>
     <use xlink:href="#DejaVuSans-73" transform="translate(510.929688 0)"/>
     <use xlink:href="#DejaVuSans-75" transform="translate(563.029297 0)"/>
     <use xlink:href="#DejaVuSans-6c" transform="translate(626.408203 0)"/>
     <use xlink:href="#DejaVuSans-74" transform="translate(654.191406 0)"/>
    </g>
   </g>
  </g>
 </g>
 <defs>
  <clipPath id="pece1a07d05">
   <rect x="72" y="51.84" width="446.4" height="332.64"/>
  </clipPath>
 </defs>
</svg>
