<?xml version="1.0" encoding="utf-8" standalone="no"?>
<!DOCTYPE svg PUBLIC "-//W3C//DTD SVG 1.1//EN"
  "http://www.w3.org/Graphics/SVG/1.1/DTD/svg11.dtd">
<svg xmlns:xlink="http://www.w3.org/1999/xlink" width="576pt" height="432pt" viewBox="0 0 576 432" xmlns="http://www.w3.org/2000/svg" version="1.1">
 <metadata>
  <rdf:RDF xmlns:dc="http://purl.org/dc/elements/1.1/" xmlns:cc="http://creativecommons.org/ns#" xmlns:rdf="http://www.w3.org/1999/02/22-rdf-syntax-ns#">
   <cc:Work>
    <dc:type rdf:resource="http://purl.org/dc/dcmitype/StillImage"/>
    <dc:date>2025-06-10T03:16:27.301314</dc:date>
    <dc:format>image/svg+xml</dc:format>
    <dc:creator>
     <cc:Agent>
      <dc:title>Matplotlib v3.10.3, https://matplotlib.org/</dc:title>
     </cc:Agent>
    </dc:creator>
   </cc:Work>
  </rdf:RDF>
 </metadata>
 <defs>
  <style type="text/css">*{stroke-linejoin: round; stroke-linecap: butt}</style>
 </defs>
 <g id="figure_1">
  <g id="patch_1">
   <path d="M 0 432 
L 576 432 
L 576 0 
L 0 0 
z
" style="fill: #ffffff"/>
  </g>
  <g id="axes_1">
   <g id="patch_2">
    <path d="M 72 384.48 
L 518.4 384.48 
L 518.4 51.84 
L 72 51.84 
z
" style="fill: #ffffff"/>
   </g>
   <g id="FillBetweenPolyCollection_1">
    <path d="M 363.931651 371.470404 
L 226.468349 371.470404 
L 209.201256 368.395556 
L 195.215719 365.320709 
L 186.414648 362.245861 
L 183.6 359.171014 
L 186.476737 356.096166 
L 193.999599 353.021318 
L 204.787711 349.946471 
L 217.41391 346.871623 
L 230.556327 343.796776 
L 243.099961 340.721928 
L 254.241206 337.647081 
L 263.563512 334.572233 
L 271.0238 331.497386 
L 276.83917 328.422538 
L 281.33044 325.34769 
L 284.79763 322.272843 
L 287.465218 319.197995 
L 289.485053 316.123148 
L 290.962803 313.0483 
L 291.983157 309.973453 
L 292.62679 306.898605 
L 292.980156 303.823758 
L 293.137996 300.74891 
L 293.197407 297.674062 
L 293.245281 294.599215 
L 293.344515 291.524367 
L 293.524878 288.44952 
L 293.782045 285.374672 
L 294.085369 282.299825 
L 294.392073 279.224977 
L 294.663024 276.150129 
L 294.874232 273.075282 
L 295.020262 270.000434 
L 295.110075 266.925587 
L 295.159296 263.850739 
L 295.183361 260.775892 
L 295.193865 257.701044 
L 295.197962 254.626197 
L 295.199391 251.551349 
L 295.199836 248.476501 
L 295.19996 245.401654 
L 295.199991 242.326806 
L 295.199998 239.251959 
L 295.2 236.177111 
L 295.2 233.102264 
L 295.2 230.027416 
L 295.2 226.952569 
L 295.2 223.877721 
L 295.2 220.802873 
L 295.2 217.728026 
L 295.2 214.653178 
L 295.2 211.578331 
L 295.2 208.503483 
L 295.2 205.428636 
L 295.199999 202.353788 
L 295.199993 199.278941 
L 295.199969 196.204093 
L 295.199869 193.129245 
L 295.199502 190.054398 
L 295.198292 186.97955 
L 295.194709 183.904703 
L 295.185191 180.829855 
L 295.162522 177.755008 
L 295.114145 174.68016 
L 295.021747 171.605312 
L 294.86408 168.530465 
L 294.624354 165.455617 
L 294.300826 162.38077 
L 293.915537 159.305922 
L 293.514333 156.231075 
L 293.154741 153.156227 
L 292.886083 150.08138 
L 292.732973 147.006532 
L 292.692281 143.931684 
L 292.744278 140.856837 
L 292.868352 137.781989 
L 293.051568 134.707142 
L 293.285966 131.632294 
L 293.560345 128.557447 
L 293.855513 125.482599 
L 294.147058 122.407752 
L 294.412596 119.332904 
L 294.637668 116.258056 
L 294.817045 113.183209 
L 294.952389 110.108361 
L 295.049076 107.033514 
L 295.114001 103.958666 
L 295.154435 100.883819 
L 295.177211 97.808971 
L 295.187873 94.734123 
L 295.189919 91.659276 
L 295.184504 88.584428 
L 295.170842 85.509581 
L 295.147472 82.434733 
L 295.114227 79.359886 
L 295.074234 76.285038 
L 295.034664 73.210191 
L 295.005167 70.135343 
L 294.994209 67.060495 
L 295.405791 67.060495 
L 295.405791 67.060495 
L 295.394833 70.135343 
L 295.365336 73.210191 
L 295.325766 76.285038 
L 295.285773 79.359886 
L 295.252528 82.434733 
L 295.229158 85.509581 
L 295.215496 88.584428 
L 295.210081 91.659276 
L 295.212127 94.734123 
L 295.222789 97.808971 
L 295.245565 100.883819 
L 295.285999 103.958666 
L 295.350924 107.033514 
L 295.447611 110.108361 
L 295.582955 113.183209 
L 295.762332 116.258056 
L 295.987404 119.332904 
L 296.252942 122.407752 
L 296.544487 125.482599 
L 296.839655 128.557447 
L 297.114034 131.632294 
L 297.348432 134.707142 
L 297.531648 137.781989 
L 297.655722 140.856837 
L 297.707719 143.931684 
L 297.667027 147.006532 
L 297.513917 150.08138 
L 297.245259 153.156227 
L 296.885667 156.231075 
L 296.484463 159.305922 
L 296.099174 162.38077 
L 295.775646 165.455617 
L 295.53592 168.530465 
L 295.378253 171.605312 
L 295.285855 174.68016 
L 295.237478 177.755008 
L 295.214809 180.829855 
L 295.205291 183.904703 
L 295.201708 186.97955 
L 295.200498 190.054398 
L 295.200131 193.129245 
L 295.200031 196.204093 
L 295.200007 199.278941 
L 295.200001 202.353788 
L 295.2 205.428636 
L 295.2 208.503483 
L 295.2 211.578331 
L 295.2 214.653178 
L 295.2 217.728026 
L 295.2 220.802873 
L 295.2 223.877721 
L 295.2 226.952569 
L 295.2 230.027416 
L 295.2 233.102264 
L 295.2 236.177111 
L 295.200002 239.251959 
L 295.200009 242.326806 
L 295.20004 245.401654 
L 295.200164 248.476501 
L 295.200609 251.551349 
L 295.202038 254.626197 
L 295.206135 257.701044 
L 295.216639 260.775892 
L 295.240704 263.850739 
L 295.289925 266.925587 
L 295.379738 270.000434 
L 295.525768 273.075282 
L 295.736976 276.150129 
L 296.007927 279.224977 
L 296.314631 282.299825 
L 296.617955 285.374672 
L 296.875122 288.44952 
L 297.055485 291.524367 
L 297.154719 294.599215 
L 297.202593 297.674062 
L 297.262004 300.74891 
L 297.419844 303.823758 
L 297.77321 306.898605 
L 298.416843 309.973453 
L 299.437197 313.0483 
L 300.914947 316.123148 
L 302.934782 319.197995 
L 305.60237 322.272843 
L 309.06956 325.34769 
L 313.56083 328.422538 
L 319.3762 331.497386 
L 326.836488 334.572233 
L 336.158794 337.647081 
L 347.300039 340.721928 
L 359.843673 343.796776 
L 372.98609 346.871623 
L 385.612289 349.946471 
L 396.400401 353.021318 
L 403.923263 356.096166 
L 406.8 359.171014 
L 403.985352 362.245861 
L 395.184281 365.320709 
L 381.198744 368.395556 
L 363.931651 371.470404 
z
" clip-path="url(#pcd98786b5d)" style="fill: #1f77b4; fill-opacity: 0.3"/>
   </g>
   <g id="matplotlib.axis_1">
    <g id="xtick_1">
     <g id="line2d_1">
      <defs>
       <path id="mdf0f57a6b5" d="M 0 0 
L 0 3.5 
" style="stroke: #000000; stroke-width: 0.8"/>
      </defs>
      <g>
       <use xlink:href="#mdf0f57a6b5" x="295.2" y="384.48" style="stroke: #000000; stroke-width: 0.8"/>
      </g>
     </g>
     <g id="text_1">
      <!-- 1 -->
      <g transform="translate(292.01875 399.078438) scale(0.1 -0.1)">
       <defs>
        <path id="DejaVuSans-31" d="M 794 531 
L 1825 531 
L 1825 4091 
L 703 3866 
L 703 4441 
L 1819 4666 
L 2450 4666 
L 2450 531 
L 3481 531 
L 3481 0 
L 794 0 
L 794 531 
z
" transform="scale(0.015625)"/>
       </defs>
       <use xlink:href="#DejaVuSans-31"/>
      </g>
     </g>
    </g>
   </g>
   <g id="matplotlib.axis_2">
    <g id="ytick_1">
     <g id="line2d_2">
      <defs>
       <path id="me869730251" d="M 0 0 
L -3.5 0 
" style="stroke: #000000; stroke-width: 0.8"/>
      </defs>
      <g>
       <use xlink:href="#me869730251" x="72" y="384.48" style="stroke: #000000; stroke-width: 0.8"/>
      </g>
     </g>
     <g id="text_2">
      <!-- 0 -->
      <g transform="translate(58.6375 388.279219) scale(0.1 -0.1)">
       <defs>
        <path id="DejaVuSans-30" d="M 2034 4250 
Q 1547 4250 1301 3770 
Q 1056 3291 1056 2328 
Q 1056 1369 1301 889 
Q 1547 409 2034 409 
Q 2525 409 2770 889 
Q 3016 1369 3016 2328 
Q 3016 3291 2770 3770 
Q 2525 4250 2034 4250 
z
M 2034 4750 
Q 2819 4750 3233 4129 
Q 3647 3509 3647 2328 
Q 3647 1150 3233 529 
Q 2819 -91 2034 -91 
Q 1250 -91 836 529 
Q 422 1150 422 2328 
Q 422 3509 836 4129 
Q 1250 4750 2034 4750 
z
" transform="scale(0.015625)"/>
       </defs>
       <use xlink:href="#DejaVuSans-30"/>
      </g>
     </g>
    </g>
    <g id="ytick_2">
     <g id="line2d_3">
      <g>
       <use xlink:href="#me869730251" x="72" y="318.229911" style="stroke: #000000; stroke-width: 0.8"/>
      </g>
     </g>
     <g id="text_3">
      <!-- 5 -->
      <g transform="translate(58.6375 322.02913) scale(0.1 -0.1)">
       <defs>
        <path id="DejaVuSans-35" d="M 691 4666 
L 3169 4666 
L 3169 4134 
L 1269 4134 
L 1269 2991 
Q 1406 3038 1543 3061 
Q 1681 3084 1819 3084 
Q 2600 3084 3056 2656 
Q 3513 2228 3513 1497 
Q 3513 744 3044 326 
Q 2575 -91 1722 -91 
Q 1428 -91 1123 -41 
Q 819 9 494 109 
L 494 744 
Q 775 591 1075 516 
Q 1375 441 1709 441 
Q 2250 441 2565 725 
Q 2881 1009 2881 1497 
Q 2881 1984 2565 2268 
Q 2250 2553 1709 2553 
Q 1456 2553 1204 2497 
Q 953 2441 691 2322 
L 691 4666 
z
" transform="scale(0.015625)"/>
       </defs>
       <use xlink:href="#DejaVuSans-35"/>
      </g>
     </g>
    </g>
    <g id="ytick_3">
     <g id="line2d_4">
      <g>
       <use xlink:href="#me869730251" x="72" y="251.979823" style="stroke: #000000; stroke-width: 0.8"/>
      </g>
     </g>
     <g id="text_4">
      <!-- 10 -->
      <g transform="translate(52.275 255.779042) scale(0.1 -0.1)">
       <use xlink:href="#DejaVuSans-31"/>
       <use xlink:href="#DejaVuSans-30" transform="translate(63.623047 0)"/>
      </g>
     </g>
    </g>
    <g id="ytick_4">
     <g id="line2d_5">
      <g>
       <use xlink:href="#me869730251" x="72" y="185.729734" style="stroke: #000000; stroke-width: 0.8"/>
      </g>
     </g>
     <g id="text_5">
      <!-- 15 -->
      <g transform="translate(52.275 189.528953) scale(0.1 -0.1)">
       <use xlink:href="#DejaVuSans-31"/>
       <use xlink:href="#DejaVuSans-35" transform="translate(63.623047 0)"/>
      </g>
     </g>
    </g>
    <g id="ytick_5">
     <g id="line2d_6">
      <g>
       <use xlink:href="#me869730251" x="72" y="119.479646" style="stroke: #000000; stroke-width: 0.8"/>
      </g>
     </g>
     <g id="text_6">
      <!-- 20 -->
      <g transform="translate(52.275 123.278864) scale(0.1 -0.1)">
       <defs>
        <path id="DejaVuSans-32" d="M 1228 531 
L 3431 531 
L 3431 0 
L 469 0 
L 469 531 
Q 828 903 1448 1529 
Q 2069 2156 2228 2338 
Q 2531 2678 2651 2914 
Q 2772 3150 2772 3378 
Q 2772 3750 2511 3984 
Q 2250 4219 1831 4219 
Q 1534 4219 1204 4116 
Q 875 4013 500 3803 
L 500 4441 
Q 881 4594 1212 4672 
Q 1544 4750 1819 4750 
Q 2544 4750 2975 4387 
Q 3406 4025 3406 3419 
Q 3406 3131 3298 2873 
Q 3191 2616 2906 2266 
Q 2828 2175 2409 1742 
Q 1991 1309 1228 531 
z
" transform="scale(0.015625)"/>
       </defs>
       <use xlink:href="#DejaVuSans-32"/>
       <use xlink:href="#DejaVuSans-30" transform="translate(63.623047 0)"/>
      </g>
     </g>
    </g>
    <g id="ytick_6">
     <g id="line2d_7">
      <g>
       <use xlink:href="#me869730251" x="72" y="53.229557" style="stroke: #000000; stroke-width: 0.8"/>
      </g>
     </g>
     <g id="text_7">
      <!-- 25 -->
      <g transform="translate(52.275 57.028776) scale(0.1 -0.1)">
       <use xlink:href="#DejaVuSans-32"/>
       <use xlink:href="#DejaVuSans-35" transform="translate(63.623047 0)"/>
      </g>
     </g>
    </g>
    <g id="text_8">
     <!-- Time (ms) -->
     <g transform="translate(46.195312 243.359219) rotate(-90) scale(0.1 -0.1)">
      <defs>
       <path id="DejaVuSans-54" d="M -19 4666 
L 3928 4666 
L 3928 4134 
L 2272 4134 
L 2272 0 
L 1638 0 
L 1638 4134 
L -19 4134 
L -19 4666 
z
" transform="scale(0.015625)"/>
       <path id="DejaVuSans-69" d="M 603 3500 
L 1178 3500 
L 1178 0 
L 603 0 
L 603 3500 
z
M 603 4863 
L 1178 4863 
L 1178 4134 
L 603 4134 
L 603 4863 
z
" transform="scale(0.015625)"/>
       <path id="DejaVuSans-6d" d="M 3328 2828 
Q 3544 3216 3844 3400 
Q 4144 3584 4550 3584 
Q 5097 3584 5394 3201 
Q 5691 2819 5691 2113 
L 5691 0 
L 5113 0 
L 5113 2094 
Q 5113 2597 4934 2840 
Q 4756 3084 4391 3084 
Q 3944 3084 3684 2787 
Q 3425 2491 3425 1978 
L 3425 0 
L 2847 0 
L 2847 2094 
Q 2847 2600 2669 2842 
Q 2491 3084 2119 3084 
Q 1678 3084 1418 2786 
Q 1159 2488 1159 1978 
L 1159 0 
L 581 0 
L 581 3500 
L 1159 3500 
L 1159 2956 
Q 1356 3278 1631 3431 
Q 1906 3584 2284 3584 
Q 2666 3584 2933 3390 
Q 3200 3197 3328 2828 
z
" transform="scale(0.015625)"/>
       <path id="DejaVuSans-65" d="M 3597 1894 
L 3597 1613 
L 953 1613 
Q 991 1019 1311 708 
Q 1631 397 2203 397 
Q 2534 397 2845 478 
Q 3156 559 3463 722 
L 3463 178 
Q 3153 47 2828 -22 
Q 2503 -91 2169 -91 
Q 1331 -91 842 396 
Q 353 884 353 1716 
Q 353 2575 817 3079 
Q 1281 3584 2069 3584 
Q 2775 3584 3186 3129 
Q 3597 2675 3597 1894 
z
M 3022 2063 
Q 3016 2534 2758 2815 
Q 2500 3097 2075 3097 
Q 1594 3097 1305 2825 
Q 1016 2553 972 2059 
L 3022 2063 
z
" transform="scale(0.015625)"/>
       <path id="DejaVuSans-20" transform="scale(0.015625)"/>
       <path id="DejaVuSans-28" d="M 1984 4856 
Q 1566 4138 1362 3434 
Q 1159 2731 1159 2009 
Q 1159 1288 1364 580 
Q 1569 -128 1984 -844 
L 1484 -844 
Q 1016 -109 783 600 
Q 550 1309 550 2009 
Q 550 2706 781 3412 
Q 1013 4119 1484 4856 
L 1984 4856 
z
" transform="scale(0.015625)"/>
       <path id="DejaVuSans-73" d="M 2834 3397 
L 2834 2853 
Q 2591 2978 2328 3040 
Q 2066 3103 1784 3103 
Q 1356 3103 1142 2972 
Q 928 2841 928 2578 
Q 928 2378 1081 2264 
Q 1234 2150 1697 2047 
L 1894 2003 
Q 2506 1872 2764 1633 
Q 3022 1394 3022 966 
Q 3022 478 2636 193 
Q 2250 -91 1575 -91 
Q 1294 -91 989 -36 
Q 684 19 347 128 
L 347 722 
Q 666 556 975 473 
Q 1284 391 1588 391 
Q 1994 391 2212 530 
Q 2431 669 2431 922 
Q 2431 1156 2273 1281 
Q 2116 1406 1581 1522 
L 1381 1569 
Q 847 1681 609 1914 
Q 372 2147 372 2553 
Q 372 3047 722 3315 
Q 1072 3584 1716 3584 
Q 2034 3584 2315 3537 
Q 2597 3491 2834 3397 
z
" transform="scale(0.015625)"/>
       <path id="DejaVuSans-29" d="M 513 4856 
L 1013 4856 
Q 1481 4119 1714 3412 
Q 1947 2706 1947 2009 
Q 1947 1309 1714 600 
Q 1481 -109 1013 -844 
L 513 -844 
Q 928 -128 1133 580 
Q 1338 1288 1338 2009 
Q 1338 2731 1133 3434 
Q 928 4138 513 4856 
z
" transform="scale(0.015625)"/>
      </defs>
      <use xlink:href="#DejaVuSans-54"/>
      <use xlink:href="#DejaVuSans-69" transform="translate(57.958984 0)"/>
      <use xlink:href="#DejaVuSans-6d" transform="translate(85.742188 0)"/>
      <use xlink:href="#DejaVuSans-65" transform="translate(183.154297 0)"/>
      <use xlink:href="#DejaVuSans-20" transform="translate(244.677734 0)"/>
      <use xlink:href="#DejaVuSans-28" transform="translate(276.464844 0)"/>
      <use xlink:href="#DejaVuSans-6d" transform="translate(315.478516 0)"/>
      <use xlink:href="#DejaVuSans-73" transform="translate(412.890625 0)"/>
      <use xlink:href="#DejaVuSans-29" transform="translate(464.990234 0)"/>
     </g>
    </g>
   </g>
   <g id="LineCollection_1">
    <path d="M 239.4 349.694119 
L 351 349.694119 
" clip-path="url(#pcd98786b5d)" style="fill: none; stroke: #1f77b4; stroke-width: 1.5"/>
   </g>
   <g id="LineCollection_2">
    <path d="M 239.4 67.060495 
L 351 67.060495 
" clip-path="url(#pcd98786b5d)" style="fill: none; stroke: #1f77b4; stroke-width: 1.5"/>
   </g>
   <g id="LineCollection_3">
    <path d="M 239.4 371.470404 
L 351 371.470404 
" clip-path="url(#pcd98786b5d)" style="fill: none; stroke: #1f77b4; stroke-width: 1.5"/>
   </g>
   <g id="LineCollection_4">
    <path d="M 295.2 371.470404 
L 295.2 67.060495 
" clip-path="url(#pcd98786b5d)" style="fill: none; stroke: #1f77b4; stroke-width: 1.5"/>
   </g>
   <g id="patch_3">
    <path d="M 250.56 364.812879 
L 339.84 364.812879 
L 339.84 348.441641 
L 250.56 348.441641 
L 250.56 364.812879 
z
" clip-path="url(#pcd98786b5d)" style="fill: #1f77b4; stroke: #000000; stroke-linejoin: miter"/>
   </g>
   <g id="line2d_8">
    <path d="M 295.2 364.812879 
L 295.2 371.470404 
" clip-path="url(#pcd98786b5d)" style="fill: none; stroke: #000000; stroke-linecap: square"/>
   </g>
   <g id="line2d_9">
    <path d="M 295.2 348.441641 
L 295.2 323.922755 
" clip-path="url(#pcd98786b5d)" style="fill: none; stroke: #000000; stroke-linecap: square"/>
   </g>
   <g id="line2d_10">
    <path d="M 272.88 371.470404 
L 317.52 371.470404 
" clip-path="url(#pcd98786b5d)" style="fill: none; stroke: #000000; stroke-linecap: square"/>
   </g>
   <g id="line2d_11">
    <path d="M 272.88 323.922755 
L 317.52 323.922755 
" clip-path="url(#pcd98786b5d)" style="fill: none; stroke: #000000; stroke-linecap: square"/>
   </g>
   <g id="line2d_12">
    <defs>
     <path id="mbac5ba4eaf" d="M 0 3 
C 0.795609 3 1.55874 2.683901 2.12132 2.12132 
C 2.683901 1.55874 3 0.795609 3 0 
C 3 -0.795609 2.683901 -1.55874 2.12132 -2.12132 
C 1.55874 -2.683901 0.795609 -3 0 -3 
C -0.795609 -3 -1.55874 -2.683901 -2.12132 -2.12132 
C -2.683901 -1.55874 -3 -0.795609 -3 0 
C -3 0.795609 -2.683901 1.55874 -2.12132 2.12132 
C -1.55874 2.683901 -0.795609 3 0 3 
z
" style="stroke: #000000"/>
    </defs>
    <g clip-path="url(#pcd98786b5d)">
     <use xlink:href="#mbac5ba4eaf" x="295.2" y="323.5583" style="fill-opacity: 0; stroke: #000000"/>
     <use xlink:href="#mbac5ba4eaf" x="295.2" y="147.829384" style="fill-opacity: 0; stroke: #000000"/>
     <use xlink:href="#mbac5ba4eaf" x="295.2" y="297.629168" style="fill-opacity: 0; stroke: #000000"/>
     <use xlink:href="#mbac5ba4eaf" x="295.2" y="67.060495" style="fill-opacity: 0; stroke: #000000"/>
     <use xlink:href="#mbac5ba4eaf" x="295.2" y="317.025644" style="fill-opacity: 0; stroke: #000000"/>
     <use xlink:href="#mbac5ba4eaf" x="295.2" y="316.492953" style="fill-opacity: 0; stroke: #000000"/>
     <use xlink:href="#mbac5ba4eaf" x="295.2" y="286.966269" style="fill-opacity: 0; stroke: #000000"/>
     <use xlink:href="#mbac5ba4eaf" x="295.2" y="143.823532" style="fill-opacity: 0; stroke: #000000"/>
     <use xlink:href="#mbac5ba4eaf" x="295.2" y="322.359107" style="fill-opacity: 0; stroke: #000000"/>
     <use xlink:href="#mbac5ba4eaf" x="295.2" y="147.092616" style="fill-opacity: 0; stroke: #000000"/>
     <use xlink:href="#mbac5ba4eaf" x="295.2" y="316.213444" style="fill-opacity: 0; stroke: #000000"/>
     <use xlink:href="#mbac5ba4eaf" x="295.2" y="137.292519" style="fill-opacity: 0; stroke: #000000"/>
     <use xlink:href="#mbac5ba4eaf" x="295.2" y="317.610261" style="fill-opacity: 0; stroke: #000000"/>
     <use xlink:href="#mbac5ba4eaf" x="295.2" y="285.517022" style="fill-opacity: 0; stroke: #000000"/>
     <use xlink:href="#mbac5ba4eaf" x="295.2" y="150.66449" style="fill-opacity: 0; stroke: #000000"/>
     <use xlink:href="#mbac5ba4eaf" x="295.2" y="136.888818" style="fill-opacity: 0; stroke: #000000"/>
     <use xlink:href="#mbac5ba4eaf" x="295.2" y="297.972357" style="fill-opacity: 0; stroke: #000000"/>
     <use xlink:href="#mbac5ba4eaf" x="295.2" y="148.931692" style="fill-opacity: 0; stroke: #000000"/>
     <use xlink:href="#mbac5ba4eaf" x="295.2" y="323.314579" style="fill-opacity: 0; stroke: #000000"/>
     <use xlink:href="#mbac5ba4eaf" x="295.2" y="300.813505" style="fill-opacity: 0; stroke: #000000"/>
     <use xlink:href="#mbac5ba4eaf" x="295.2" y="135.718536" style="fill-opacity: 0; stroke: #000000"/>
     <use xlink:href="#mbac5ba4eaf" x="295.2" y="297.740535" style="fill-opacity: 0; stroke: #000000"/>
     <use xlink:href="#mbac5ba4eaf" x="295.2" y="146.891243" style="fill-opacity: 0; stroke: #000000"/>
     <use xlink:href="#mbac5ba4eaf" x="295.2" y="320.440399" style="fill-opacity: 0; stroke: #000000"/>
     <use xlink:href="#mbac5ba4eaf" x="295.2" y="322.492946" style="fill-opacity: 0; stroke: #000000"/>
     <use xlink:href="#mbac5ba4eaf" x="295.2" y="294.877033" style="fill-opacity: 0; stroke: #000000"/>
     <use xlink:href="#mbac5ba4eaf" x="295.2" y="151.815161" style="fill-opacity: 0; stroke: #000000"/>
     <use xlink:href="#mbac5ba4eaf" x="295.2" y="291.243746" style="fill-opacity: 0; stroke: #000000"/>
     <use xlink:href="#mbac5ba4eaf" x="295.2" y="128.239643" style="fill-opacity: 0; stroke: #000000"/>
     <use xlink:href="#mbac5ba4eaf" x="295.2" y="151.940891" style="fill-opacity: 0; stroke: #000000"/>
     <use xlink:href="#mbac5ba4eaf" x="295.2" y="322.642764" style="fill-opacity: 0; stroke: #000000"/>
     <use xlink:href="#mbac5ba4eaf" x="295.2" y="312.018316" style="fill-opacity: 0; stroke: #000000"/>
     <use xlink:href="#mbac5ba4eaf" x="295.2" y="154.44843" style="fill-opacity: 0; stroke: #000000"/>
     <use xlink:href="#mbac5ba4eaf" x="295.2" y="307.547522" style="fill-opacity: 0; stroke: #000000"/>
     <use xlink:href="#mbac5ba4eaf" x="295.2" y="130.956228" style="fill-opacity: 0; stroke: #000000"/>
     <use xlink:href="#mbac5ba4eaf" x="295.2" y="314.772995" style="fill-opacity: 0; stroke: #000000"/>
     <use xlink:href="#mbac5ba4eaf" x="295.2" y="127.568768" style="fill-opacity: 0; stroke: #000000"/>
     <use xlink:href="#mbac5ba4eaf" x="295.2" y="287.891187" style="fill-opacity: 0; stroke: #000000"/>
     <use xlink:href="#mbac5ba4eaf" x="295.2" y="137.445954" style="fill-opacity: 0; stroke: #000000"/>
     <use xlink:href="#mbac5ba4eaf" x="295.2" y="288.457029" style="fill-opacity: 0; stroke: #000000"/>
     <use xlink:href="#mbac5ba4eaf" x="295.2" y="118.069446" style="fill-opacity: 0; stroke: #000000"/>
     <use xlink:href="#mbac5ba4eaf" x="295.2" y="133.602482" style="fill-opacity: 0; stroke: #000000"/>
     <use xlink:href="#mbac5ba4eaf" x="295.2" y="318.10291" style="fill-opacity: 0; stroke: #000000"/>
     <use xlink:href="#mbac5ba4eaf" x="295.2" y="155.677608" style="fill-opacity: 0; stroke: #000000"/>
    </g>
   </g>
   <g id="line2d_13">
    <path d="M 250.56 357.174165 
L 339.84 357.174165 
" clip-path="url(#pcd98786b5d)" style="fill: none; stroke: #ff7f0e"/>
   </g>
   <g id="patch_4">
    <path d="M 72 384.48 
L 72 51.84 
" style="fill: none; stroke: #000000; stroke-width: 0.8; stroke-linejoin: miter; stroke-linecap: square"/>
   </g>
   <g id="patch_5">
    <path d="M 518.4 384.48 
L 518.4 51.84 
" style="fill: none; stroke: #000000; stroke-width: 0.8; stroke-linejoin: miter; stroke-linecap: square"/>
   </g>
   <g id="patch_6">
    <path d="M 72 384.48 
L 518.4 384.48 
" style="fill: none; stroke: #000000; stroke-width: 0.8; stroke-linejoin: miter; stroke-linecap: square"/>
   </g>
   <g id="patch_7">
    <path d="M 72 51.84 
L 518.4 51.84 
" style="fill: none; stroke: #000000; stroke-width: 0.8; stroke-linejoin: miter; stroke-linecap: square"/>
   </g>
   <g id="text_9">
    <!-- Next Faultload -->
    <g transform="translate(252.088125 45.84) scale(0.12 -0.12)">
     <defs>
      <path id="DejaVuSans-4e" d="M 628 4666 
L 1478 4666 
L 3547 763 
L 3547 4666 
L 4159 4666 
L 4159 0 
L 3309 0 
L 1241 3903 
L 1241 0 
L 628 0 
L 628 4666 
z
" transform="scale(0.015625)"/>
      <path id="DejaVuSans-78" d="M 3513 3500 
L 2247 1797 
L 3578 0 
L 2900 0 
L 1881 1375 
L 863 0 
L 184 0 
L 1544 1831 
L 300 3500 
L 978 3500 
L 1906 2253 
L 2834 3500 
L 3513 3500 
z
" transform="scale(0.015625)"/>
      <path id="DejaVuSans-74" d="M 1172 4494 
L 1172 3500 
L 2356 3500 
L 2356 3053 
L 1172 3053 
L 1172 1153 
Q 1172 725 1289 603 
Q 1406 481 1766 481 
L 2356 481 
L 2356 0 
L 1766 0 
Q 1100 0 847 248 
Q 594 497 594 1153 
L 594 3053 
L 172 3053 
L 172 3500 
L 594 3500 
L 594 4494 
L 1172 4494 
z
" transform="scale(0.015625)"/>
      <path id="DejaVuSans-46" d="M 628 4666 
L 3309 4666 
L 3309 4134 
L 1259 4134 
L 1259 2759 
L 3109 2759 
L 3109 2228 
L 1259 2228 
L 1259 0 
L 628 0 
L 628 4666 
z
" transform="scale(0.015625)"/>
      <path id="DejaVuSans-61" d="M 2194 1759 
Q 1497 1759 1228 1600 
Q 959 1441 959 1056 
Q 959 750 1161 570 
Q 1363 391 1709 391 
Q 2188 391 2477 730 
Q 2766 1069 2766 1631 
L 2766 1759 
L 2194 1759 
z
M 3341 1997 
L 3341 0 
L 2766 0 
L 2766 531 
Q 2569 213 2275 61 
Q 1981 -91 1556 -91 
Q 1019 -91 701 211 
Q 384 513 384 1019 
Q 384 1609 779 1909 
Q 1175 2209 1959 2209 
L 2766 2209 
L 2766 2266 
Q 2766 2663 2505 2880 
Q 2244 3097 1772 3097 
Q 1472 3097 1187 3025 
Q 903 2953 641 2809 
L 641 3341 
Q 956 3463 1253 3523 
Q 1550 3584 1831 3584 
Q 2591 3584 2966 3190 
Q 3341 2797 3341 1997 
z
" transform="scale(0.015625)"/>
      <path id="DejaVuSans-75" d="M 544 1381 
L 544 3500 
L 1119 3500 
L 1119 1403 
Q 1119 906 1312 657 
Q 1506 409 1894 409 
Q 2359 409 2629 706 
Q 2900 1003 2900 1516 
L 2900 3500 
L 3475 3500 
L 3475 0 
L 2900 0 
L 2900 538 
Q 2691 219 2414 64 
Q 2138 -91 1772 -91 
Q 1169 -91 856 284 
Q 544 659 544 1381 
z
M 1991 3584 
L 1991 3584 
z
" transform="scale(0.015625)"/>
      <path id="DejaVuSans-6c" d="M 603 4863 
L 1178 4863 
L 1178 0 
L 603 0 
L 603 4863 
z
" transform="scale(0.015625)"/>
      <path id="DejaVuSans-6f" d="M 1959 3097 
Q 1497 3097 1228 2736 
Q 959 2375 959 1747 
Q 959 1119 1226 758 
Q 1494 397 1959 397 
Q 2419 397 2687 759 
Q 2956 1122 2956 1747 
Q 2956 2369 2687 2733 
Q 2419 3097 1959 3097 
z
M 1959 3584 
Q 2709 3584 3137 3096 
Q 3566 2609 3566 1747 
Q 3566 888 3137 398 
Q 2709 -91 1959 -91 
Q 1206 -91 779 398 
Q 353 888 353 1747 
Q 353 2609 779 3096 
Q 1206 3584 1959 3584 
z
" transform="scale(0.015625)"/>
      <path id="DejaVuSans-64" d="M 2906 2969 
L 2906 4863 
L 3481 4863 
L 3481 0 
L 2906 0 
L 2906 525 
Q 2725 213 2448 61 
Q 2172 -91 1784 -91 
Q 1150 -91 751 415 
Q 353 922 353 1747 
Q 353 2572 751 3078 
Q 1150 3584 1784 3584 
Q 2172 3584 2448 3432 
Q 2725 3281 2906 2969 
z
M 947 1747 
Q 947 1113 1208 752 
Q 1469 391 1925 391 
Q 2381 391 2643 752 
Q 2906 1113 2906 1747 
Q 2906 2381 2643 2742 
Q 2381 3103 1925 3103 
Q 1469 3103 1208 2742 
Q 947 2381 947 1747 
z
" transform="scale(0.015625)"/>
     </defs>
     <use xlink:href="#DejaVuSans-4e"/>
     <use xlink:href="#DejaVuSans-65" transform="translate(74.804688 0)"/>
     <use xlink:href="#DejaVuSans-78" transform="translate(134.578125 0)"/>
     <use xlink:href="#DejaVuSans-74" transform="translate(193.757812 0)"/>
     <use xlink:href="#DejaVuSans-20" transform="translate(232.966797 0)"/>
     <use xlink:href="#DejaVuSans-46" transform="translate(264.753906 0)"/>
     <use xlink:href="#DejaVuSans-61" transform="translate(313.148438 0)"/>
     <use xlink:href="#DejaVuSans-75" transform="translate(374.427734 0)"/>
     <use xlink:href="#DejaVuSans-6c" transform="translate(437.806641 0)"/>
     <use xlink:href="#DejaVuSans-74" transform="translate(465.589844 0)"/>
     <use xlink:href="#DejaVuSans-6c" transform="translate(504.798828 0)"/>
     <use xlink:href="#DejaVuSans-6f" transform="translate(532.582031 0)"/>
     <use xlink:href="#DejaVuSans-61" transform="translate(593.763672 0)"/>
     <use xlink:href="#DejaVuSans-64" transform="translate(655.042969 0)"/>
    </g>
   </g>
  </g>
 </g>
 <defs>
  <clipPath id="pcd98786b5d">
   <rect x="72" y="51.84" width="446.4" height="332.64"/>
  </clipPath>
 </defs>
</svg>
