<?xml version="1.0" encoding="utf-8" standalone="no"?>
<!DOCTYPE svg PUBLIC "-//W3C//DTD SVG 1.1//EN"
  "http://www.w3.org/Graphics/SVG/1.1/DTD/svg11.dtd">
<svg xmlns:xlink="http://www.w3.org/1999/xlink" width="720pt" height="432pt" viewBox="0 0 720 432" xmlns="http://www.w3.org/2000/svg" version="1.1">
 <metadata>
  <rdf:RDF xmlns:dc="http://purl.org/dc/elements/1.1/" xmlns:cc="http://creativecommons.org/ns#" xmlns:rdf="http://www.w3.org/1999/02/22-rdf-syntax-ns#">
   <cc:Work>
    <dc:type rdf:resource="http://purl.org/dc/dcmitype/StillImage"/>
    <dc:date>2025-09-30T20:43:33.033313</dc:date>
    <dc:format>image/svg+xml</dc:format>
    <dc:creator>
     <cc:Agent>
      <dc:title>Matplotlib v3.10.3, https://matplotlib.org/</dc:title>
     </cc:Agent>
    </dc:creator>
   </cc:Work>
  </rdf:RDF>
 </metadata>
 <defs>
  <style type="text/css">*{stroke-linejoin: round; stroke-linecap: butt}</style>
 </defs>
 <g id="figure_1">
  <g id="patch_1">
   <path d="M 0 432 
L 720 432 
L 720 0 
L 0 0 
z
" style="fill: #ffffff"/>
  </g>
  <g id="axes_1">
   <g id="patch_2">
    <path d="M 90 384.48 
L 648 384.48 
L 648 51.84 
L 90 51.84 
z
" style="fill: #ffffff"/>
   </g>
   <g id="matplotlib.axis_1">
    <g id="xtick_1">
     <g id="line2d_1">
      <defs>
       <path id="m0efddf69a3" d="M 0 0 
L 0 3.5 
" style="stroke: #000000; stroke-width: 0.8"/>
      </defs>
      <g>
       <use xlink:href="#m0efddf69a3" x="115.363636" y="384.48" style="stroke: #000000; stroke-width: 0.8"/>
      </g>
     </g>
     <g id="text_1">
      <!-- 0 -->
      <g transform="translate(112.182386 399.078438) scale(0.1 -0.1)">
       <defs>
        <path id="DejaVuSans-30" d="M 2034 4250 
Q 1547 4250 1301 3770 
Q 1056 3291 1056 2328 
Q 1056 1369 1301 889 
Q 1547 409 2034 409 
Q 2525 409 2770 889 
Q 3016 1369 3016 2328 
Q 3016 3291 2770 3770 
Q 2525 4250 2034 4250 
z
M 2034 4750 
Q 2819 4750 3233 4129 
Q 3647 3509 3647 2328 
Q 3647 1150 3233 529 
Q 2819 -91 2034 -91 
Q 1250 -91 836 529 
Q 422 1150 422 2328 
Q 422 3509 836 4129 
Q 1250 4750 2034 4750 
z
" transform="scale(0.015625)"/>
       </defs>
       <use xlink:href="#DejaVuSans-30"/>
      </g>
     </g>
    </g>
    <g id="xtick_2">
     <g id="line2d_2">
      <g>
       <use xlink:href="#m0efddf69a3" x="180.440317" y="384.48" style="stroke: #000000; stroke-width: 0.8"/>
      </g>
     </g>
     <g id="text_2">
      <!-- 200 -->
      <g transform="translate(170.896567 399.078438) scale(0.1 -0.1)">
       <defs>
        <path id="DejaVuSans-32" d="M 1228 531 
L 3431 531 
L 3431 0 
L 469 0 
L 469 531 
Q 828 903 1448 1529 
Q 2069 2156 2228 2338 
Q 2531 2678 2651 2914 
Q 2772 3150 2772 3378 
Q 2772 3750 2511 3984 
Q 2250 4219 1831 4219 
Q 1534 4219 1204 4116 
Q 875 4013 500 3803 
L 500 4441 
Q 881 4594 1212 4672 
Q 1544 4750 1819 4750 
Q 2544 4750 2975 4387 
Q 3406 4025 3406 3419 
Q 3406 3131 3298 2873 
Q 3191 2616 2906 2266 
Q 2828 2175 2409 1742 
Q 1991 1309 1228 531 
z
" transform="scale(0.015625)"/>
       </defs>
       <use xlink:href="#DejaVuSans-32"/>
       <use xlink:href="#DejaVuSans-30" transform="translate(63.623047 0)"/>
       <use xlink:href="#DejaVuSans-30" transform="translate(127.246094 0)"/>
      </g>
     </g>
    </g>
    <g id="xtick_3">
     <g id="line2d_3">
      <g>
       <use xlink:href="#m0efddf69a3" x="245.516998" y="384.48" style="stroke: #000000; stroke-width: 0.8"/>
      </g>
     </g>
     <g id="text_3">
      <!-- 400 -->
      <g transform="translate(235.973248 399.078438) scale(0.1 -0.1)">
       <defs>
        <path id="DejaVuSans-34" d="M 2419 4116 
L 825 1625 
L 2419 1625 
L 2419 4116 
z
M 2253 4666 
L 3047 4666 
L 3047 1625 
L 3713 1625 
L 3713 1100 
L 3047 1100 
L 3047 0 
L 2419 0 
L 2419 1100 
L 313 1100 
L 313 1709 
L 2253 4666 
z
" transform="scale(0.015625)"/>
       </defs>
       <use xlink:href="#DejaVuSans-34"/>
       <use xlink:href="#DejaVuSans-30" transform="translate(63.623047 0)"/>
       <use xlink:href="#DejaVuSans-30" transform="translate(127.246094 0)"/>
      </g>
     </g>
    </g>
    <g id="xtick_4">
     <g id="line2d_4">
      <g>
       <use xlink:href="#m0efddf69a3" x="310.593679" y="384.48" style="stroke: #000000; stroke-width: 0.8"/>
      </g>
     </g>
     <g id="text_4">
      <!-- 600 -->
      <g transform="translate(301.049929 399.078438) scale(0.1 -0.1)">
       <defs>
        <path id="DejaVuSans-36" d="M 2113 2584 
Q 1688 2584 1439 2293 
Q 1191 2003 1191 1497 
Q 1191 994 1439 701 
Q 1688 409 2113 409 
Q 2538 409 2786 701 
Q 3034 994 3034 1497 
Q 3034 2003 2786 2293 
Q 2538 2584 2113 2584 
z
M 3366 4563 
L 3366 3988 
Q 3128 4100 2886 4159 
Q 2644 4219 2406 4219 
Q 1781 4219 1451 3797 
Q 1122 3375 1075 2522 
Q 1259 2794 1537 2939 
Q 1816 3084 2150 3084 
Q 2853 3084 3261 2657 
Q 3669 2231 3669 1497 
Q 3669 778 3244 343 
Q 2819 -91 2113 -91 
Q 1303 -91 875 529 
Q 447 1150 447 2328 
Q 447 3434 972 4092 
Q 1497 4750 2381 4750 
Q 2619 4750 2861 4703 
Q 3103 4656 3366 4563 
z
" transform="scale(0.015625)"/>
       </defs>
       <use xlink:href="#DejaVuSans-36"/>
       <use xlink:href="#DejaVuSans-30" transform="translate(63.623047 0)"/>
       <use xlink:href="#DejaVuSans-30" transform="translate(127.246094 0)"/>
      </g>
     </g>
    </g>
    <g id="xtick_5">
     <g id="line2d_5">
      <g>
       <use xlink:href="#m0efddf69a3" x="375.67036" y="384.48" style="stroke: #000000; stroke-width: 0.8"/>
      </g>
     </g>
     <g id="text_5">
      <!-- 800 -->
      <g transform="translate(366.12661 399.078438) scale(0.1 -0.1)">
       <defs>
        <path id="DejaVuSans-38" d="M 2034 2216 
Q 1584 2216 1326 1975 
Q 1069 1734 1069 1313 
Q 1069 891 1326 650 
Q 1584 409 2034 409 
Q 2484 409 2743 651 
Q 3003 894 3003 1313 
Q 3003 1734 2745 1975 
Q 2488 2216 2034 2216 
z
M 1403 2484 
Q 997 2584 770 2862 
Q 544 3141 544 3541 
Q 544 4100 942 4425 
Q 1341 4750 2034 4750 
Q 2731 4750 3128 4425 
Q 3525 4100 3525 3541 
Q 3525 3141 3298 2862 
Q 3072 2584 2669 2484 
Q 3125 2378 3379 2068 
Q 3634 1759 3634 1313 
Q 3634 634 3220 271 
Q 2806 -91 2034 -91 
Q 1263 -91 848 271 
Q 434 634 434 1313 
Q 434 1759 690 2068 
Q 947 2378 1403 2484 
z
M 1172 3481 
Q 1172 3119 1398 2916 
Q 1625 2713 2034 2713 
Q 2441 2713 2670 2916 
Q 2900 3119 2900 3481 
Q 2900 3844 2670 4047 
Q 2441 4250 2034 4250 
Q 1625 4250 1398 4047 
Q 1172 3844 1172 3481 
z
" transform="scale(0.015625)"/>
       </defs>
       <use xlink:href="#DejaVuSans-38"/>
       <use xlink:href="#DejaVuSans-30" transform="translate(63.623047 0)"/>
       <use xlink:href="#DejaVuSans-30" transform="translate(127.246094 0)"/>
      </g>
     </g>
    </g>
    <g id="xtick_6">
     <g id="line2d_6">
      <g>
       <use xlink:href="#m0efddf69a3" x="440.747041" y="384.48" style="stroke: #000000; stroke-width: 0.8"/>
      </g>
     </g>
     <g id="text_6">
      <!-- 1000 -->
      <g transform="translate(428.022041 399.078438) scale(0.1 -0.1)">
       <defs>
        <path id="DejaVuSans-31" d="M 794 531 
L 1825 531 
L 1825 4091 
L 703 3866 
L 703 4441 
L 1819 4666 
L 2450 4666 
L 2450 531 
L 3481 531 
L 3481 0 
L 794 0 
L 794 531 
z
" transform="scale(0.015625)"/>
       </defs>
       <use xlink:href="#DejaVuSans-31"/>
       <use xlink:href="#DejaVuSans-30" transform="translate(63.623047 0)"/>
       <use xlink:href="#DejaVuSans-30" transform="translate(127.246094 0)"/>
       <use xlink:href="#DejaVuSans-30" transform="translate(190.869141 0)"/>
      </g>
     </g>
    </g>
    <g id="xtick_7">
     <g id="line2d_7">
      <g>
       <use xlink:href="#m0efddf69a3" x="505.823721" y="384.48" style="stroke: #000000; stroke-width: 0.8"/>
      </g>
     </g>
     <g id="text_7">
      <!-- 1200 -->
      <g transform="translate(493.098721 399.078438) scale(0.1 -0.1)">
       <use xlink:href="#DejaVuSans-31"/>
       <use xlink:href="#DejaVuSans-32" transform="translate(63.623047 0)"/>
       <use xlink:href="#DejaVuSans-30" transform="translate(127.246094 0)"/>
       <use xlink:href="#DejaVuSans-30" transform="translate(190.869141 0)"/>
      </g>
     </g>
    </g>
    <g id="xtick_8">
     <g id="line2d_8">
      <g>
       <use xlink:href="#m0efddf69a3" x="570.900402" y="384.48" style="stroke: #000000; stroke-width: 0.8"/>
      </g>
     </g>
     <g id="text_8">
      <!-- 1400 -->
      <g transform="translate(558.175402 399.078438) scale(0.1 -0.1)">
       <use xlink:href="#DejaVuSans-31"/>
       <use xlink:href="#DejaVuSans-34" transform="translate(63.623047 0)"/>
       <use xlink:href="#DejaVuSans-30" transform="translate(127.246094 0)"/>
       <use xlink:href="#DejaVuSans-30" transform="translate(190.869141 0)"/>
      </g>
     </g>
    </g>
    <g id="xtick_9">
     <g id="line2d_9">
      <g>
       <use xlink:href="#m0efddf69a3" x="635.977083" y="384.48" style="stroke: #000000; stroke-width: 0.8"/>
      </g>
     </g>
     <g id="text_9">
      <!-- 1600 -->
      <g transform="translate(623.252083 399.078438) scale(0.1 -0.1)">
       <use xlink:href="#DejaVuSans-31"/>
       <use xlink:href="#DejaVuSans-36" transform="translate(63.623047 0)"/>
       <use xlink:href="#DejaVuSans-30" transform="translate(127.246094 0)"/>
       <use xlink:href="#DejaVuSans-30" transform="translate(190.869141 0)"/>
      </g>
     </g>
    </g>
    <g id="text_10">
     <!-- Index -->
     <g transform="translate(355.233594 412.756563) scale(0.1 -0.1)">
      <defs>
       <path id="DejaVuSans-49" d="M 628 4666 
L 1259 4666 
L 1259 0 
L 628 0 
L 628 4666 
z
" transform="scale(0.015625)"/>
       <path id="DejaVuSans-6e" d="M 3513 2113 
L 3513 0 
L 2938 0 
L 2938 2094 
Q 2938 2591 2744 2837 
Q 2550 3084 2163 3084 
Q 1697 3084 1428 2787 
Q 1159 2491 1159 1978 
L 1159 0 
L 581 0 
L 581 3500 
L 1159 3500 
L 1159 2956 
Q 1366 3272 1645 3428 
Q 1925 3584 2291 3584 
Q 2894 3584 3203 3211 
Q 3513 2838 3513 2113 
z
" transform="scale(0.015625)"/>
       <path id="DejaVuSans-64" d="M 2906 2969 
L 2906 4863 
L 3481 4863 
L 3481 0 
L 2906 0 
L 2906 525 
Q 2725 213 2448 61 
Q 2172 -91 1784 -91 
Q 1150 -91 751 415 
Q 353 922 353 1747 
Q 353 2572 751 3078 
Q 1150 3584 1784 3584 
Q 2172 3584 2448 3432 
Q 2725 3281 2906 2969 
z
M 947 1747 
Q 947 1113 1208 752 
Q 1469 391 1925 391 
Q 2381 391 2643 752 
Q 2906 1113 2906 1747 
Q 2906 2381 2643 2742 
Q 2381 3103 1925 3103 
Q 1469 3103 1208 2742 
Q 947 2381 947 1747 
z
" transform="scale(0.015625)"/>
       <path id="DejaVuSans-65" d="M 3597 1894 
L 3597 1613 
L 953 1613 
Q 991 1019 1311 708 
Q 1631 397 2203 397 
Q 2534 397 2845 478 
Q 3156 559 3463 722 
L 3463 178 
Q 3153 47 2828 -22 
Q 2503 -91 2169 -91 
Q 1331 -91 842 396 
Q 353 884 353 1716 
Q 353 2575 817 3079 
Q 1281 3584 2069 3584 
Q 2775 3584 3186 3129 
Q 3597 2675 3597 1894 
z
M 3022 2063 
Q 3016 2534 2758 2815 
Q 2500 3097 2075 3097 
Q 1594 3097 1305 2825 
Q 1016 2553 972 2059 
L 3022 2063 
z
" transform="scale(0.015625)"/>
       <path id="DejaVuSans-78" d="M 3513 3500 
L 2247 1797 
L 3578 0 
L 2900 0 
L 1881 1375 
L 863 0 
L 184 0 
L 1544 1831 
L 300 3500 
L 978 3500 
L 1906 2253 
L 2834 3500 
L 3513 3500 
z
" transform="scale(0.015625)"/>
      </defs>
      <use xlink:href="#DejaVuSans-49"/>
      <use xlink:href="#DejaVuSans-6e" transform="translate(29.492188 0)"/>
      <use xlink:href="#DejaVuSans-64" transform="translate(92.871094 0)"/>
      <use xlink:href="#DejaVuSans-65" transform="translate(156.347656 0)"/>
      <use xlink:href="#DejaVuSans-78" transform="translate(216.121094 0)"/>
     </g>
    </g>
   </g>
   <g id="matplotlib.axis_2">
    <g id="ytick_1">
     <g id="line2d_10">
      <defs>
       <path id="me302fe8993" d="M 0 0 
L -3.5 0 
" style="stroke: #000000; stroke-width: 0.8"/>
      </defs>
      <g>
       <use xlink:href="#me302fe8993" x="90" y="384.48" style="stroke: #000000; stroke-width: 0.8"/>
      </g>
     </g>
     <g id="text_11">
      <!-- 0.0 -->
      <g transform="translate(67.096875 388.279219) scale(0.1 -0.1)">
       <defs>
        <path id="DejaVuSans-2e" d="M 684 794 
L 1344 794 
L 1344 0 
L 684 0 
L 684 794 
z
" transform="scale(0.015625)"/>
       </defs>
       <use xlink:href="#DejaVuSans-30"/>
       <use xlink:href="#DejaVuSans-2e" transform="translate(63.623047 0)"/>
       <use xlink:href="#DejaVuSans-30" transform="translate(95.410156 0)"/>
      </g>
     </g>
    </g>
    <g id="ytick_2">
     <g id="line2d_11">
      <g>
       <use xlink:href="#me302fe8993" x="90" y="334.816016" style="stroke: #000000; stroke-width: 0.8"/>
      </g>
     </g>
     <g id="text_12">
      <!-- 0.5 -->
      <g transform="translate(67.096875 338.615235) scale(0.1 -0.1)">
       <defs>
        <path id="DejaVuSans-35" d="M 691 4666 
L 3169 4666 
L 3169 4134 
L 1269 4134 
L 1269 2991 
Q 1406 3038 1543 3061 
Q 1681 3084 1819 3084 
Q 2600 3084 3056 2656 
Q 3513 2228 3513 1497 
Q 3513 744 3044 326 
Q 2575 -91 1722 -91 
Q 1428 -91 1123 -41 
Q 819 9 494 109 
L 494 744 
Q 775 591 1075 516 
Q 1375 441 1709 441 
Q 2250 441 2565 725 
Q 2881 1009 2881 1497 
Q 2881 1984 2565 2268 
Q 2250 2553 1709 2553 
Q 1456 2553 1204 2497 
Q 953 2441 691 2322 
L 691 4666 
z
" transform="scale(0.015625)"/>
       </defs>
       <use xlink:href="#DejaVuSans-30"/>
       <use xlink:href="#DejaVuSans-2e" transform="translate(63.623047 0)"/>
       <use xlink:href="#DejaVuSans-35" transform="translate(95.410156 0)"/>
      </g>
     </g>
    </g>
    <g id="ytick_3">
     <g id="line2d_12">
      <g>
       <use xlink:href="#me302fe8993" x="90" y="285.152032" style="stroke: #000000; stroke-width: 0.8"/>
      </g>
     </g>
     <g id="text_13">
      <!-- 1.0 -->
      <g transform="translate(67.096875 288.951251) scale(0.1 -0.1)">
       <use xlink:href="#DejaVuSans-31"/>
       <use xlink:href="#DejaVuSans-2e" transform="translate(63.623047 0)"/>
       <use xlink:href="#DejaVuSans-30" transform="translate(95.410156 0)"/>
      </g>
     </g>
    </g>
    <g id="ytick_4">
     <g id="line2d_13">
      <g>
       <use xlink:href="#me302fe8993" x="90" y="235.488048" style="stroke: #000000; stroke-width: 0.8"/>
      </g>
     </g>
     <g id="text_14">
      <!-- 1.5 -->
      <g transform="translate(67.096875 239.287267) scale(0.1 -0.1)">
       <use xlink:href="#DejaVuSans-31"/>
       <use xlink:href="#DejaVuSans-2e" transform="translate(63.623047 0)"/>
       <use xlink:href="#DejaVuSans-35" transform="translate(95.410156 0)"/>
      </g>
     </g>
    </g>
    <g id="ytick_5">
     <g id="line2d_14">
      <g>
       <use xlink:href="#me302fe8993" x="90" y="185.824064" style="stroke: #000000; stroke-width: 0.8"/>
      </g>
     </g>
     <g id="text_15">
      <!-- 2.0 -->
      <g transform="translate(67.096875 189.623283) scale(0.1 -0.1)">
       <use xlink:href="#DejaVuSans-32"/>
       <use xlink:href="#DejaVuSans-2e" transform="translate(63.623047 0)"/>
       <use xlink:href="#DejaVuSans-30" transform="translate(95.410156 0)"/>
      </g>
     </g>
    </g>
    <g id="ytick_6">
     <g id="line2d_15">
      <g>
       <use xlink:href="#me302fe8993" x="90" y="136.160081" style="stroke: #000000; stroke-width: 0.8"/>
      </g>
     </g>
     <g id="text_16">
      <!-- 2.5 -->
      <g transform="translate(67.096875 139.959299) scale(0.1 -0.1)">
       <use xlink:href="#DejaVuSans-32"/>
       <use xlink:href="#DejaVuSans-2e" transform="translate(63.623047 0)"/>
       <use xlink:href="#DejaVuSans-35" transform="translate(95.410156 0)"/>
      </g>
     </g>
    </g>
    <g id="ytick_7">
     <g id="line2d_16">
      <g>
       <use xlink:href="#me302fe8993" x="90" y="86.496097" style="stroke: #000000; stroke-width: 0.8"/>
      </g>
     </g>
     <g id="text_17">
      <!-- 3.0 -->
      <g transform="translate(67.096875 90.295315) scale(0.1 -0.1)">
       <defs>
        <path id="DejaVuSans-33" d="M 2597 2516 
Q 3050 2419 3304 2112 
Q 3559 1806 3559 1356 
Q 3559 666 3084 287 
Q 2609 -91 1734 -91 
Q 1441 -91 1130 -33 
Q 819 25 488 141 
L 488 750 
Q 750 597 1062 519 
Q 1375 441 1716 441 
Q 2309 441 2620 675 
Q 2931 909 2931 1356 
Q 2931 1769 2642 2001 
Q 2353 2234 1838 2234 
L 1294 2234 
L 1294 2753 
L 1863 2753 
Q 2328 2753 2575 2939 
Q 2822 3125 2822 3475 
Q 2822 3834 2567 4026 
Q 2313 4219 1838 4219 
Q 1578 4219 1281 4162 
Q 984 4106 628 3988 
L 628 4550 
Q 988 4650 1302 4700 
Q 1616 4750 1894 4750 
Q 2613 4750 3031 4423 
Q 3450 4097 3450 3541 
Q 3450 3153 3228 2886 
Q 3006 2619 2597 2516 
z
" transform="scale(0.015625)"/>
       </defs>
       <use xlink:href="#DejaVuSans-33"/>
       <use xlink:href="#DejaVuSans-2e" transform="translate(63.623047 0)"/>
       <use xlink:href="#DejaVuSans-30" transform="translate(95.410156 0)"/>
      </g>
     </g>
    </g>
    <g id="text_18">
     <!-- Average time (ms) -->
     <g transform="translate(61.017187 264.543594) rotate(-90) scale(0.1 -0.1)">
      <defs>
       <path id="DejaVuSans-41" d="M 2188 4044 
L 1331 1722 
L 3047 1722 
L 2188 4044 
z
M 1831 4666 
L 2547 4666 
L 4325 0 
L 3669 0 
L 3244 1197 
L 1141 1197 
L 716 0 
L 50 0 
L 1831 4666 
z
" transform="scale(0.015625)"/>
       <path id="DejaVuSans-76" d="M 191 3500 
L 800 3500 
L 1894 563 
L 2988 3500 
L 3597 3500 
L 2284 0 
L 1503 0 
L 191 3500 
z
" transform="scale(0.015625)"/>
       <path id="DejaVuSans-72" d="M 2631 2963 
Q 2534 3019 2420 3045 
Q 2306 3072 2169 3072 
Q 1681 3072 1420 2755 
Q 1159 2438 1159 1844 
L 1159 0 
L 581 0 
L 581 3500 
L 1159 3500 
L 1159 2956 
Q 1341 3275 1631 3429 
Q 1922 3584 2338 3584 
Q 2397 3584 2469 3576 
Q 2541 3569 2628 3553 
L 2631 2963 
z
" transform="scale(0.015625)"/>
       <path id="DejaVuSans-61" d="M 2194 1759 
Q 1497 1759 1228 1600 
Q 959 1441 959 1056 
Q 959 750 1161 570 
Q 1363 391 1709 391 
Q 2188 391 2477 730 
Q 2766 1069 2766 1631 
L 2766 1759 
L 2194 1759 
z
M 3341 1997 
L 3341 0 
L 2766 0 
L 2766 531 
Q 2569 213 2275 61 
Q 1981 -91 1556 -91 
Q 1019 -91 701 211 
Q 384 513 384 1019 
Q 384 1609 779 1909 
Q 1175 2209 1959 2209 
L 2766 2209 
L 2766 2266 
Q 2766 2663 2505 2880 
Q 2244 3097 1772 3097 
Q 1472 3097 1187 3025 
Q 903 2953 641 2809 
L 641 3341 
Q 956 3463 1253 3523 
Q 1550 3584 1831 3584 
Q 2591 3584 2966 3190 
Q 3341 2797 3341 1997 
z
" transform="scale(0.015625)"/>
       <path id="DejaVuSans-67" d="M 2906 1791 
Q 2906 2416 2648 2759 
Q 2391 3103 1925 3103 
Q 1463 3103 1205 2759 
Q 947 2416 947 1791 
Q 947 1169 1205 825 
Q 1463 481 1925 481 
Q 2391 481 2648 825 
Q 2906 1169 2906 1791 
z
M 3481 434 
Q 3481 -459 3084 -895 
Q 2688 -1331 1869 -1331 
Q 1566 -1331 1297 -1286 
Q 1028 -1241 775 -1147 
L 775 -588 
Q 1028 -725 1275 -790 
Q 1522 -856 1778 -856 
Q 2344 -856 2625 -561 
Q 2906 -266 2906 331 
L 2906 616 
Q 2728 306 2450 153 
Q 2172 0 1784 0 
Q 1141 0 747 490 
Q 353 981 353 1791 
Q 353 2603 747 3093 
Q 1141 3584 1784 3584 
Q 2172 3584 2450 3431 
Q 2728 3278 2906 2969 
L 2906 3500 
L 3481 3500 
L 3481 434 
z
" transform="scale(0.015625)"/>
       <path id="DejaVuSans-20" transform="scale(0.015625)"/>
       <path id="DejaVuSans-74" d="M 1172 4494 
L 1172 3500 
L 2356 3500 
L 2356 3053 
L 1172 3053 
L 1172 1153 
Q 1172 725 1289 603 
Q 1406 481 1766 481 
L 2356 481 
L 2356 0 
L 1766 0 
Q 1100 0 847 248 
Q 594 497 594 1153 
L 594 3053 
L 172 3053 
L 172 3500 
L 594 3500 
L 594 4494 
L 1172 4494 
z
" transform="scale(0.015625)"/>
       <path id="DejaVuSans-69" d="M 603 3500 
L 1178 3500 
L 1178 0 
L 603 0 
L 603 3500 
z
M 603 4863 
L 1178 4863 
L 1178 4134 
L 603 4134 
L 603 4863 
z
" transform="scale(0.015625)"/>
       <path id="DejaVuSans-6d" d="M 3328 2828 
Q 3544 3216 3844 3400 
Q 4144 3584 4550 3584 
Q 5097 3584 5394 3201 
Q 5691 2819 5691 2113 
L 5691 0 
L 5113 0 
L 5113 2094 
Q 5113 2597 4934 2840 
Q 4756 3084 4391 3084 
Q 3944 3084 3684 2787 
Q 3425 2491 3425 1978 
L 3425 0 
L 2847 0 
L 2847 2094 
Q 2847 2600 2669 2842 
Q 2491 3084 2119 3084 
Q 1678 3084 1418 2786 
Q 1159 2488 1159 1978 
L 1159 0 
L 581 0 
L 581 3500 
L 1159 3500 
L 1159 2956 
Q 1356 3278 1631 3431 
Q 1906 3584 2284 3584 
Q 2666 3584 2933 3390 
Q 3200 3197 3328 2828 
z
" transform="scale(0.015625)"/>
       <path id="DejaVuSans-28" d="M 1984 4856 
Q 1566 4138 1362 3434 
Q 1159 2731 1159 2009 
Q 1159 1288 1364 580 
Q 1569 -128 1984 -844 
L 1484 -844 
Q 1016 -109 783 600 
Q 550 1309 550 2009 
Q 550 2706 781 3412 
Q 1013 4119 1484 4856 
L 1984 4856 
z
" transform="scale(0.015625)"/>
       <path id="DejaVuSans-73" d="M 2834 3397 
L 2834 2853 
Q 2591 2978 2328 3040 
Q 2066 3103 1784 3103 
Q 1356 3103 1142 2972 
Q 928 2841 928 2578 
Q 928 2378 1081 2264 
Q 1234 2150 1697 2047 
L 1894 2003 
Q 2506 1872 2764 1633 
Q 3022 1394 3022 966 
Q 3022 478 2636 193 
Q 2250 -91 1575 -91 
Q 1294 -91 989 -36 
Q 684 19 347 128 
L 347 722 
Q 666 556 975 473 
Q 1284 391 1588 391 
Q 1994 391 2212 530 
Q 2431 669 2431 922 
Q 2431 1156 2273 1281 
Q 2116 1406 1581 1522 
L 1381 1569 
Q 847 1681 609 1914 
Q 372 2147 372 2553 
Q 372 3047 722 3315 
Q 1072 3584 1716 3584 
Q 2034 3584 2315 3537 
Q 2597 3491 2834 3397 
z
" transform="scale(0.015625)"/>
       <path id="DejaVuSans-29" d="M 513 4856 
L 1013 4856 
Q 1481 4119 1714 3412 
Q 1947 2706 1947 2009 
Q 1947 1309 1714 600 
Q 1481 -109 1013 -844 
L 513 -844 
Q 928 -128 1133 580 
Q 1338 1288 1338 2009 
Q 1338 2731 1133 3434 
Q 928 4138 513 4856 
z
" transform="scale(0.015625)"/>
      </defs>
      <use xlink:href="#DejaVuSans-41"/>
      <use xlink:href="#DejaVuSans-76" transform="translate(62.533203 0)"/>
      <use xlink:href="#DejaVuSans-65" transform="translate(121.712891 0)"/>
      <use xlink:href="#DejaVuSans-72" transform="translate(183.236328 0)"/>
      <use xlink:href="#DejaVuSans-61" transform="translate(224.349609 0)"/>
      <use xlink:href="#DejaVuSans-67" transform="translate(285.628906 0)"/>
      <use xlink:href="#DejaVuSans-65" transform="translate(349.105469 0)"/>
      <use xlink:href="#DejaVuSans-20" transform="translate(410.628906 0)"/>
      <use xlink:href="#DejaVuSans-74" transform="translate(442.416016 0)"/>
      <use xlink:href="#DejaVuSans-69" transform="translate(481.625 0)"/>
      <use xlink:href="#DejaVuSans-6d" transform="translate(509.408203 0)"/>
      <use xlink:href="#DejaVuSans-65" transform="translate(606.820312 0)"/>
      <use xlink:href="#DejaVuSans-20" transform="translate(668.34375 0)"/>
      <use xlink:href="#DejaVuSans-28" transform="translate(700.130859 0)"/>
      <use xlink:href="#DejaVuSans-6d" transform="translate(739.144531 0)"/>
      <use xlink:href="#DejaVuSans-73" transform="translate(836.556641 0)"/>
      <use xlink:href="#DejaVuSans-29" transform="translate(888.65625 0)"/>
     </g>
    </g>
   </g>
   <g id="line2d_17">
    <path d="M 115.363636 303.035804 
L 115.68902 320.150768 
L 116.014403 128.679284 
L 116.339787 210.245385 
L 116.66517 117.508374 
L 116.990553 202.918904 
L 117.315937 193.483035 
L 117.64132 239.077026 
L 117.966704 224.863939 
L 118.292087 281.108758 
L 118.61747 253.623786 
L 118.942854 277.399574 
L 119.268237 252.046974 
L 119.593621 304.387042 
L 119.919004 272.754044 
L 120.244387 286.015371 
L 120.569771 273.209096 
L 120.895154 299.845469 
L 121.220538 261.831295 
L 121.545921 328.784544 
L 121.871304 67.629981 
L 122.196688 326.822091 
L 122.522071 317.363437 
L 122.847455 319.918251 
L 123.172838 301.269326 
L 123.498221 325.156292 
L 123.823605 298.027053 
L 124.148988 311.49216 
L 124.474372 304.18937 
L 124.799755 306.052881 
L 125.125138 316.269736 
L 125.450522 309.499771 
L 125.775905 328.093916 
L 126.101289 333.351823 
L 126.426672 342.84695 
L 126.752056 331.594284 
L 127.077439 336.700009 
L 127.402822 327.202418 
L 127.728206 263.203779 
L 128.053589 326.103126 
L 128.378973 334.355949 
L 128.704356 325.512412 
L 129.029739 332.81426 
L 129.355123 310.442095 
L 129.680506 330.367822 
L 130.00589 315.923688 
L 130.331273 328.691364 
L 130.656656 318.319021 
L 130.98204 317.863712 
L 131.307423 311.835448 
L 131.632807 323.482387 
L 131.95819 311.2099 
L 132.283573 322.229057 
L 132.608957 213.163343 
L 133.259724 310.517862 
L 133.585107 324.810054 
L 133.91049 272.212786 
L 134.235874 307.976705 
L 134.561257 305.011497 
L 134.886641 316.684023 
L 135.212024 306.226219 
L 135.537407 321.565129 
L 135.862791 309.08008 
L 136.188174 322.927581 
L 136.513558 307.728803 
L 136.838941 316.837068 
L 137.164324 268.203324 
L 137.489708 151.905073 
L 137.815091 312.975296 
L 138.140475 312.843587 
L 138.465858 312.519003 
L 138.791241 305.02138 
L 139.116625 316.326492 
L 139.442008 315.5258 
L 139.767392 313.82158 
L 140.092775 313.905929 
L 140.418158 312.110755 
L 140.743542 319.791519 
L 141.068925 376.380728 
L 141.394309 381.941614 
L 141.719692 375.229527 
L 142.045076 381.887471 
L 142.370459 381.919494 
L 142.695842 373.325082 
L 143.021226 317.187696 
L 143.346609 317.177942 
L 143.671993 298.420342 
L 143.997376 311.895094 
L 144.322759 316.611772 
L 144.648143 330.004122 
L 144.973526 314.977321 
L 145.29891 329.833378 
L 145.624293 379.353574 
L 145.949676 383.429597 
L 146.27506 379.566166 
L 146.600443 382.302185 
L 146.925827 377.955831 
L 147.25121 382.928567 
L 147.576593 379.745443 
L 147.901977 334.789039 
L 148.22736 338.210639 
L 148.552744 333.903808 
L 148.878127 336.400973 
L 149.20351 342.485317 
L 149.528894 341.823495 
L 149.854277 342.255154 
L 150.179661 342.970743 
L 150.505044 342.051244 
L 150.830427 337.162024 
L 151.155811 342.048969 
L 151.481194 341.549558 
L 151.806578 323.395882 
L 152.131961 343.809677 
L 152.782728 341.674771 
L 153.108111 326.006797 
L 153.433495 302.785548 
L 153.758878 341.398451 
L 154.084261 341.793101 
L 154.409645 340.565169 
L 154.735028 340.763427 
L 155.060412 339.708544 
L 155.385795 339.72395 
L 155.711178 344.007061 
L 156.036562 343.784358 
L 156.361945 342.11093 
L 156.687329 342.859287 
L 157.012712 339.725738 
L 157.338096 340.858484 
L 157.663479 339.866575 
L 157.988862 340.407158 
L 158.314246 344.536787 
L 158.639629 343.872373 
L 158.965013 342.635193 
L 159.290396 337.928667 
L 159.615779 341.566404 
L 159.941163 341.304983 
L 160.266546 339.734668 
L 160.59193 339.790182 
L 160.917313 325.373472 
L 161.242696 341.8494 
L 161.56808 342.968667 
L 161.893463 335.4347 
L 162.218847 335.715997 
L 162.54423 341.087554 
L 162.869613 323.179645 
L 163.194997 298.236724 
L 163.52038 343.858447 
L 163.845764 343.312928 
L 164.171147 344.155646 
L 164.49653 343.449921 
L 164.821914 340.220868 
L 165.147297 341.834212 
L 165.472681 341.380075 
L 166.448831 337.364861 
L 166.774214 339.438462 
L 167.099598 337.312615 
L 167.424981 344.649237 
L 168.401131 340.242959 
L 168.726515 339.277878 
L 169.051898 341.040463 
L 169.377281 341.748502 
L 169.702665 341.649939 
L 170.028048 317.987157 
L 170.353432 339.149834 
L 170.678815 336.878343 
L 171.004198 338.534855 
L 171.329582 342.696091 
L 171.654965 316.88996 
L 171.980349 343.121106 
L 172.305732 315.473573 
L 172.631116 319.547718 
L 172.956499 312.873594 
L 173.281882 316.82493 
L 173.607266 339.742415 
L 173.932649 338.755482 
L 174.258033 326.312002 
L 174.583416 325.459878 
L 174.908799 315.53162 
L 175.559566 303.066536 
L 175.88495 290.199462 
L 176.210333 291.647277 
L 176.535716 290.254579 
L 176.8611 292.69034 
L 177.186483 290.767906 
L 177.511867 292.206314 
L 177.83725 290.208899 
L 178.162633 289.077722 
L 178.488017 285.289592 
L 178.8134 289.715517 
L 179.138784 277.069129 
L 179.464167 293.087979 
L 180.114934 293.361528 
L 180.765701 287.315813 
L 181.091084 263.941091 
L 181.416467 286.242067 
L 181.741851 288.481744 
L 182.067234 285.010351 
L 182.392618 290.199254 
L 182.718001 281.300888 
L 183.043384 295.464153 
L 183.368768 296.905938 
L 183.694151 290.97871 
L 184.019535 292.024048 
L 184.344918 289.398362 
L 184.670301 289.001935 
L 184.995685 286.736015 
L 185.321068 287.34421 
L 185.646452 285.681202 
L 185.971835 286.243249 
L 186.297218 283.819399 
L 186.622602 274.280318 
L 186.947985 289.218867 
L 187.273369 286.15742 
L 187.598752 284.711185 
L 187.924136 285.407265 
L 188.249519 282.840502 
L 188.574902 283.218037 
L 188.900286 258.509272 
L 189.225669 280.674069 
L 189.551053 280.370543 
L 189.876436 282.098303 
L 190.201819 277.418287 
L 190.527203 279.813114 
L 190.852586 288.431305 
L 191.17797 286.048944 
L 191.503353 278.458301 
L 191.828736 277.054757 
L 192.15412 278.222844 
L 192.479503 270.199001 
L 192.804887 273.685383 
L 193.13027 273.145118 
L 193.455653 270.181212 
L 193.781037 270.865492 
L 194.10642 269.256657 
L 194.431804 265.811218 
L 194.757187 266.003209 
L 195.08257 265.127097 
L 195.733337 268.413442 
L 196.058721 275.900347 
L 196.384104 273.513158 
L 196.709487 274.721215 
L 197.034871 270.805617 
L 197.360254 276.708013 
L 197.685638 278.99197 
L 198.011021 276.909708 
L 198.336404 280.077674 
L 198.661788 276.697464 
L 198.987171 255.43671 
L 199.312555 294.355364 
L 199.637938 262.390462 
L 200.288705 290.685881 
L 200.614088 310.69262 
L 200.939472 323.696786 
L 201.264855 320.887235 
L 201.590238 322.743725 
L 201.915622 321.383955 
L 202.241005 322.893114 
L 202.566389 323.704445 
L 202.891772 325.881634 
L 203.217156 324.213312 
L 203.542539 325.126046 
L 203.867922 331.23413 
L 204.193306 331.59342 
L 204.518689 331.195919 
L 204.844073 327.987725 
L 205.169456 328.859844 
L 205.820223 329.675257 
L 206.145606 325.760683 
L 206.47099 326.893429 
L 206.796373 325.501407 
L 207.121756 330.341758 
L 207.44714 329.41024 
L 207.772523 326.129477 
L 208.097907 325.895451 
L 208.42329 335.33566 
L 208.748673 334.832534 
L 209.074057 336.97191 
L 209.39944 334.797591 
L 209.724824 335.523182 
L 210.050207 334.760661 
L 210.37559 339.451305 
L 210.700974 340.257391 
L 211.026357 337.10781 
L 211.351741 337.493223 
L 211.677124 336.485421 
L 212.002507 337.078727 
L 212.327891 337.410075 
L 212.653274 334.660717 
L 212.978658 334.79176 
L 213.304041 334.07936 
L 213.629424 332.181461 
L 213.954808 326.48388 
L 214.605575 328.423437 
L 214.930958 325.01611 
L 215.581725 334.533895 
L 215.907108 314.912618 
L 216.232492 336.337502 
L 216.557875 337.525564 
L 216.883258 344.988601 
L 217.208642 344.637893 
L 217.534025 345.27102 
L 217.859409 343.573465 
L 218.184792 344.893077 
L 218.510176 344.39454 
L 218.835559 341.688896 
L 219.160942 340.859775 
L 219.486326 340.611863 
L 219.811709 341.131765 
L 220.137093 340.23985 
L 220.462476 340.069512 
L 220.787859 337.322955 
L 221.113243 338.843795 
L 221.438626 339.616179 
L 221.76401 339.044527 
L 222.089393 336.803966 
L 222.74016 338.111529 
L 223.065543 339.517417 
L 223.390927 333.647442 
L 223.71631 334.27305 
L 224.041693 333.432795 
L 224.367077 334.952135 
L 224.69246 344.352435 
L 225.017844 345.614704 
L 225.343227 346.169352 
L 225.993994 342.20849 
L 226.319377 342.177699 
L 226.970144 292.350161 
L 227.295527 338.830276 
L 227.620911 339.740836 
L 227.946294 338.709007 
L 228.271678 338.392826 
L 228.597061 336.903572 
L 228.922444 339.000515 
L 229.247828 336.870118 
L 229.573211 335.527393 
L 229.898595 339.026549 
L 230.223978 337.106301 
L 230.549361 337.961057 
L 230.874745 336.181547 
L 231.200128 330.739269 
L 231.525512 331.618331 
L 232.176279 334.625535 
L 232.501662 342.981073 
L 233.152429 345.069285 
L 234.128579 341.324253 
L 234.453962 340.199145 
L 234.779346 338.654069 
L 235.104729 316.521672 
L 235.430113 338.737603 
L 236.080879 337.300089 
L 236.406263 334.930094 
L 236.731646 334.792614 
L 237.05703 330.971189 
L 237.382413 335.133925 
L 237.707796 337.372221 
L 238.358563 334.155416 
L 238.683947 337.699924 
L 239.00933 333.154269 
L 239.334713 333.87688 
L 239.660097 333.968888 
L 239.98548 330.580264 
L 240.310864 342.051622 
L 240.96163 342.813695 
L 241.287014 342.826698 
L 241.612397 341.605341 
L 241.937781 343.188579 
L 242.263164 342.327276 
L 242.588547 318.469016 
L 242.913931 340.519706 
L 243.239314 340.014216 
L 243.564698 339.199906 
L 243.890081 337.775503 
L 244.215464 337.077883 
L 244.866231 337.853823 
L 245.191615 337.051164 
L 245.516998 339.965228 
L 246.167765 336.789047 
L 246.493148 337.6267 
L 246.818532 334.869792 
L 247.143915 334.850354 
L 247.469299 333.932116 
L 247.794682 333.621826 
L 248.120065 344.817597 
L 248.445449 344.585557 
L 248.770832 343.829642 
L 249.096216 344.921653 
L 249.746982 341.280062 
L 250.072366 341.535136 
L 250.397749 339.994599 
L 250.723133 339.967323 
L 251.048516 339.733277 
L 251.373899 338.822052 
L 251.699283 338.815467 
L 252.024666 336.121643 
L 252.35005 337.08863 
L 252.675433 336.07478 
L 253.000816 337.333275 
L 253.651583 298.948896 
L 253.976967 337.696507 
L 254.30235 339.156569 
L 254.627733 314.122941 
L 254.953117 336.138538 
L 255.2785 334.445155 
L 255.603884 333.816608 
L 255.929267 330.609447 
L 256.25465 334.924631 
L 256.580034 325.771172 
L 256.905417 331.549507 
L 257.230801 345.755949 
L 257.556184 345.65086 
L 257.881567 344.374386 
L 258.206951 345.486681 
L 258.857718 343.344822 
L 259.183101 343.659314 
L 259.508484 341.845546 
L 259.833868 341.187885 
L 260.484635 338.870514 
L 260.810018 341.193627 
L 261.135401 338.015211 
L 261.460785 339.713322 
L 261.786168 337.595809 
L 262.111552 336.869383 
L 262.436935 338.608686 
L 262.762319 338.443583 
L 263.087702 336.759437 
L 263.413085 338.355578 
L 264.063852 330.50991 
L 264.389236 329.730464 
L 264.714619 334.987903 
L 265.040002 333.836384 
L 265.690769 333.299884 
L 266.016153 331.797111 
L 266.341536 345.692081 
L 266.666919 344.14174 
L 266.992303 345.160994 
L 267.317686 342.582073 
L 267.64307 343.604366 
L 267.968453 342.424419 
L 268.293836 340.798202 
L 268.61922 341.829941 
L 268.944603 338.600829 
L 269.269987 340.595185 
L 269.59537 340.674827 
L 269.920753 339.930056 
L 270.246137 337.476724 
L 270.57152 339.11059 
L 270.896904 338.425296 
L 271.222287 338.713675 
L 271.54767 338.06858 
L 271.873054 338.751599 
L 272.198437 339.040166 
L 272.523821 338.569948 
L 272.849204 335.227274 
L 273.174587 336.744459 
L 273.499971 334.587592 
L 273.825354 335.298114 
L 274.150738 335.185377 
L 274.476121 333.99222 
L 274.801504 333.366454 
L 275.126888 334.005619 
L 275.452271 345.865925 
L 275.777655 346.856344 
L 276.103038 345.044562 
L 276.753805 343.714332 
L 277.079188 342.584357 
L 277.404572 342.278417 
L 277.729955 338.289605 
L 278.055339 337.639811 
L 278.380722 341.056554 
L 278.706105 340.841598 
L 279.031489 293.211801 
L 279.356872 337.040645 
L 279.682256 315.917043 
L 280.007639 311.111873 
L 280.333022 335.34011 
L 280.658406 335.521821 
L 280.983789 336.520852 
L 281.309173 305.581084 
L 281.634556 326.216181 
L 282.285323 297.763933 
L 282.610706 283.090331 
L 282.93609 278.941909 
L 283.261473 279.343571 
L 283.586856 272.544274 
L 283.91224 271.400969 
L 284.237623 269.027964 
L 284.563007 288.079158 
L 284.88839 285.710831 
L 285.213773 284.365216 
L 285.539157 284.98533 
L 285.86454 281.720658 
L 286.189924 282.189784 
L 286.515307 282.110431 
L 286.84069 281.865578 
L 287.166074 277.901905 
L 287.491457 278.922738 
L 287.816841 277.605133 
L 288.142224 255.989023 
L 288.467607 273.975133 
L 288.792991 276.201202 
L 289.118374 274.764095 
L 289.443758 275.386096 
L 289.769141 280.317432 
L 290.745291 271.689129 
L 291.070675 262.00654 
L 291.396058 265.028464 
L 291.721441 266.045324 
L 292.372208 261.868096 
L 292.697592 262.858198 
L 293.022975 258.18135 
L 293.348359 256.86882 
L 293.999125 257.588561 
L 294.324509 257.836493 
L 294.649892 253.280031 
L 294.975276 255.613375 
L 295.300659 254.975063 
L 295.626042 255.633111 
L 295.951426 282.968049 
L 296.276809 292.646387 
L 296.602193 293.186115 
L 296.927576 289.757165 
L 297.252959 300.415364 
L 297.578343 299.368884 
L 297.903726 303.223216 
L 298.22911 312.995986 
L 298.554493 313.435631 
L 298.879876 328.351494 
L 299.20526 330.125918 
L 299.530643 330.084787 
L 299.856027 329.356792 
L 300.18141 328.050808 
L 300.506793 325.813535 
L 300.832177 324.893828 
L 301.482944 325.384875 
L 301.808327 332.071088 
L 302.13371 334.312274 
L 302.459094 332.435741 
L 302.784477 332.85409 
L 303.109861 332.031257 
L 303.435244 328.367883 
L 303.760627 330.181155 
L 304.086011 330.41089 
L 304.411394 333.30349 
L 304.736778 329.02604 
L 305.062161 329.901129 
L 305.387544 325.279508 
L 305.712928 323.995774 
L 306.038311 325.415091 
L 306.363695 322.721157 
L 306.689078 324.726539 
L 307.014461 324.393592 
L 307.665228 323.584437 
L 307.990612 325.954928 
L 308.315995 323.521771 
L 308.641379 322.847741 
L 308.966762 322.580946 
L 309.292145 331.900015 
L 309.617529 326.927886 
L 309.942912 318.66063 
L 310.268296 317.174266 
L 310.593679 296.141808 
L 310.919062 297.67412 
L 311.244446 317.192344 
L 311.569829 321.468304 
L 311.895213 317.382478 
L 312.220596 316.49982 
L 312.545979 324.583765 
L 312.871363 325.099893 
L 313.196746 342.064653 
L 313.52213 343.297343 
L 313.847513 308.970492 
L 314.172896 342.587993 
L 315.47443 339.847603 
L 315.799813 338.390134 
L 316.125197 338.564048 
L 316.45058 339.360281 
L 316.775964 338.248383 
L 317.101347 336.29496 
L 317.42673 336.926477 
L 317.752114 312.462615 
L 318.077497 330.605245 
L 318.402881 336.062324 
L 318.728264 336.996245 
L 320.029798 333.666503 
L 320.680564 325.909247 
L 321.005948 330.438474 
L 321.331331 331.064647 
L 321.656715 323.879778 
L 321.982098 325.813048 
L 322.307481 328.979713 
L 322.632865 328.897629 
L 322.958248 327.994191 
L 323.283632 332.401949 
L 323.609015 327.216125 
L 323.934399 329.08224 
L 324.259782 314.334907 
L 324.585165 314.007055 
L 324.910549 319.137523 
L 325.235932 316.396509 
L 325.561316 314.920068 
L 325.886699 316.330456 
L 326.212082 308.457165 
L 326.537466 313.445644 
L 326.862849 326.122207 
L 327.188233 327.813613 
L 327.513616 342.271861 
L 327.838999 344.511926 
L 328.489766 337.758468 
L 328.81515 340.42016 
L 329.140533 340.771363 
L 329.465916 341.6572 
L 329.7913 340.534595 
L 330.116683 338.534478 
L 330.442067 340.060275 
L 330.76745 338.819658 
L 331.092833 340.340687 
L 331.418217 338.48392 
L 331.7436 335.951067 
L 332.068984 337.754843 
L 332.394367 337.146032 
L 332.71975 338.767889 
L 333.045134 339.202746 
L 333.370517 338.609053 
L 333.695901 338.445371 
L 334.021284 335.40368 
L 334.346667 333.617644 
L 334.672051 334.497779 
L 334.997434 331.080758 
L 335.322818 332.14319 
L 335.648201 334.988996 
L 335.973584 332.475551 
L 336.298968 333.167877 
L 336.624351 331.564982 
L 336.949735 331.173451 
L 337.275118 331.770809 
L 337.600501 331.895744 
L 337.925885 329.372764 
L 338.251268 327.922149 
L 338.576652 317.177832 
L 338.902035 313.942164 
L 339.227419 321.245412 
L 339.552802 298.647942 
L 339.878185 290.229161 
L 340.203569 272.268072 
L 340.528952 317.080402 
L 341.179719 328.330684 
L 341.505102 309.211858 
L 341.830486 343.749772 
L 342.155869 345.680658 
L 342.481253 343.249427 
L 342.806636 343.394675 
L 343.457403 342.235488 
L 344.10817 342.976494 
L 344.433553 340.474055 
L 344.758936 339.222711 
L 345.08432 340.253388 
L 345.735087 336.068889 
L 346.06047 338.071788 
L 346.385853 338.803229 
L 346.711237 338.040967 
L 347.03662 338.861356 
L 347.362004 321.366066 
L 347.687387 339.783229 
L 348.01277 341.127067 
L 348.338154 336.716528 
L 348.663537 337.608711 
L 348.988921 335.183867 
L 349.639687 336.693672 
L 350.290454 329.512121 
L 350.615838 335.087609 
L 350.941221 332.359616 
L 351.266604 331.29472 
L 351.591988 327.708901 
L 351.917371 333.353303 
L 352.242755 330.405298 
L 352.568138 330.787125 
L 352.893521 329.573704 
L 353.218905 331.531707 
L 353.544288 343.072643 
L 354.520439 345.474821 
L 354.845822 342.545997 
L 355.171205 343.643303 
L 355.496589 340.738287 
L 355.821972 340.335294 
L 356.147356 339.253304 
L 356.798122 340.602605 
L 357.123506 340.232708 
L 357.448889 337.439139 
L 358.099656 337.901431 
L 358.425039 337.331586 
L 358.750423 339.334157 
L 359.075806 338.88151 
L 359.40119 338.225737 
L 359.726573 339.977028 
L 360.051956 336.168595 
L 361.028107 333.680827 
L 361.35349 331.119178 
L 361.678873 335.21458 
L 362.004257 334.383771 
L 362.32964 333.115929 
L 362.655024 329.955034 
L 362.980407 332.03968 
L 363.30579 331.736641 
L 363.631174 329.469738 
L 363.956557 331.671958 
L 364.281941 330.933961 
L 364.607324 327.50362 
L 364.932707 330.781245 
L 365.258091 344.97681 
L 365.583474 345.134633 
L 365.908858 344.111237 
L 366.234241 344.522077 
L 366.559624 342.121926 
L 366.885008 340.965043 
L 367.210391 339.027442 
L 367.535775 340.517978 
L 367.861158 339.293353 
L 368.186541 338.564356 
L 368.511925 338.328164 
L 369.162692 336.073985 
L 369.488075 336.741161 
L 369.813459 335.847775 
L 370.138842 337.583383 
L 370.464225 337.090696 
L 370.789609 337.94295 
L 371.440376 335.32829 
L 371.765759 331.627151 
L 372.091142 333.101427 
L 372.416526 332.516872 
L 372.741909 330.383078 
L 373.067293 331.031183 
L 373.392676 307.579205 
L 373.718059 329.572135 
L 374.043443 329.666874 
L 374.368826 302.350501 
L 374.69421 325.866626 
L 375.019593 325.777846 
L 375.344976 326.303689 
L 375.67036 325.638271 
L 375.995743 326.699024 
L 376.321127 324.907018 
L 376.64651 324.366048 
L 376.971893 340.791855 
L 377.297277 341.524707 
L 377.62266 343.045736 
L 378.273427 337.415508 
L 378.59881 337.216634 
L 378.924194 338.891284 
L 379.574961 336.385477 
L 380.225727 338.03166 
L 380.551111 336.754252 
L 380.876494 336.139035 
L 381.201878 334.497193 
L 381.527261 336.115405 
L 381.852644 336.896689 
L 382.178028 338.994764 
L 382.503411 338.073169 
L 383.154178 334.25374 
L 383.479561 334.235961 
L 383.804945 332.312355 
L 384.130328 331.317238 
L 384.455712 334.531173 
L 384.781095 329.804294 
L 385.106479 330.191246 
L 385.431862 331.224466 
L 385.757245 330.797455 
L 386.082629 331.723817 
L 386.408012 331.406951 
L 386.733396 327.44151 
L 387.058779 329.584134 
L 387.384162 328.894599 
L 388.034929 326.968511 
L 388.360313 327.944994 
L 388.685696 342.028001 
L 389.011079 344.57341 
L 389.336463 341.975864 
L 389.661846 341.329199 
L 389.98723 340.985207 
L 390.312613 338.821605 
L 390.637996 340.575767 
L 390.96338 340.995179 
L 391.288763 340.478356 
L 391.614147 337.714009 
L 391.93953 336.612422 
L 392.264913 337.682025 
L 392.590297 337.063699 
L 392.91568 337.620432 
L 393.241064 337.631348 
L 393.566447 335.486818 
L 393.89183 338.481407 
L 394.217214 337.297318 
L 394.542597 337.713502 
L 394.867981 334.631793 
L 395.193364 332.79491 
L 395.518747 335.342603 
L 396.169514 332.243412 
L 396.494898 333.689855 
L 396.820281 334.430564 
L 397.145664 334.262283 
L 397.471048 333.559716 
L 397.796431 332.431926 
L 398.121815 332.487739 
L 398.447198 330.407096 
L 398.772581 331.883517 
L 399.097965 382.660788 
L 399.748732 383.18524 
L 400.074115 383.30056 
L 400.399499 346.090187 
L 400.724882 344.781502 
L 401.050265 345.431941 
L 401.375649 343.699721 
L 401.701032 343.459019 
L 402.026416 341.464007 
L 402.677182 342.941233 
L 403.002566 339.989335 
L 403.327949 341.025772 
L 403.653333 339.878673 
L 403.978716 338.101388 
L 404.304099 338.173987 
L 404.954866 337.989237 
L 405.28025 339.192029 
L 405.605633 338.586913 
L 405.931016 338.723896 
L 406.2564 338.461283 
L 406.581783 335.204031 
L 406.907167 336.889348 
L 407.23255 334.524498 
L 407.557933 336.168813 
L 407.883317 336.464413 
L 408.2087 333.868169 
L 408.534084 336.051904 
L 408.859467 313.142266 
L 409.18485 333.03437 
L 409.510234 333.013899 
L 409.835617 333.612688 
L 410.161001 331.357476 
L 410.486384 306.054888 
L 410.811767 382.752041 
L 411.137151 383.112333 
L 411.462534 382.993636 
L 411.787918 383.258336 
L 412.113301 323.646795 
L 412.438684 345.636259 
L 413.089451 344.569725 
L 413.414835 342.877454 
L 413.740218 344.198456 
L 414.065601 344.203125 
L 414.716368 341.242317 
L 415.041752 340.650471 
L 415.367135 341.318581 
L 415.692519 339.734528 
L 416.017902 339.415318 
L 416.343285 339.455546 
L 416.668669 340.042207 
L 416.994052 339.551596 
L 417.319436 340.369075 
L 417.644819 340.363424 
L 417.970202 338.801759 
L 418.295586 317.745015 
L 418.620969 335.214162 
L 418.946353 334.477049 
L 419.271736 336.293877 
L 419.597119 335.444613 
L 419.922503 334.913397 
L 420.247886 333.759474 
L 420.898653 333.722812 
L 421.224036 332.472085 
L 421.54942 333.492103 
L 421.874803 332.117563 
L 422.200187 331.267385 
L 422.52557 382.743628 
L 422.850953 383.203616 
L 423.176337 383.184058 
L 423.50172 383.034162 
L 423.827104 345.741139 
L 424.47787 346.445603 
L 424.803254 345.208046 
L 425.128637 343.252318 
L 425.454021 344.851826 
L 426.104787 341.790588 
L 426.430171 322.495256 
L 426.755554 340.697275 
L 427.080938 341.636639 
L 427.406321 341.125994 
L 427.731704 338.278996 
L 428.057088 338.583238 
L 429.033238 340.759444 
L 429.358621 339.676839 
L 429.684005 337.839728 
L 430.009388 339.120314 
L 430.334772 336.644614 
L 430.660155 335.948047 
L 430.985539 337.542837 
L 431.310922 336.085288 
L 431.636305 336.841472 
L 431.961689 333.398795 
L 432.287072 335.570958 
L 432.612456 333.963703 
L 432.937839 334.759548 
L 433.263222 333.286266 
L 433.588606 333.892494 
L 433.913989 335.147901 
L 434.239373 382.521799 
L 434.564756 383.246416 
L 435.215523 383.241768 
L 435.540906 345.688505 
L 435.86629 345.555882 
L 436.191673 346.372388 
L 436.517056 346.581652 
L 436.84244 344.887207 
L 437.167823 344.228056 
L 437.493207 342.394035 
L 437.81859 343.223115 
L 438.143973 337.565305 
L 438.469357 342.061167 
L 438.79474 341.599898 
L 439.120124 339.507197 
L 439.445507 339.340514 
L 439.77089 338.603213 
L 440.096274 339.902432 
L 440.421657 339.586649 
L 440.747041 340.382494 
L 441.072424 340.762623 
L 441.397807 339.414722 
L 441.723191 339.931148 
L 442.048574 337.449975 
L 442.373958 338.022224 
L 442.699341 336.009193 
L 443.024724 336.993265 
L 443.350108 334.762707 
L 443.675491 308.037911 
L 444.000875 335.796353 
L 444.326258 333.408261 
L 444.651641 333.49408 
L 444.977025 332.006604 
L 445.302408 334.466898 
L 445.627792 331.796019 
L 445.953175 325.897815 
L 446.278559 332.279478 
L 446.603942 330.64885 
L 446.929325 309.230661 
L 447.254709 347.144474 
L 447.905476 344.93109 
L 448.230859 345.354654 
L 448.881626 343.642905 
L 449.207009 318.91186 
L 449.532393 320.079848 
L 449.857776 340.721908 
L 450.183159 340.099678 
L 450.508543 340.067029 
L 450.833926 338.041692 
L 451.15931 338.747338 
L 451.484693 338.573891 
L 451.810076 337.962617 
L 452.13546 331.880428 
L 452.460843 339.50668 
L 452.786227 338.129001 
L 453.11161 337.572178 
L 453.436993 338.311069 
L 454.08776 335.07112 
L 454.413144 333.787972 
L 454.738527 335.843107 
L 455.06391 312.656334 
L 455.389294 307.382198 
L 455.714677 332.1269 
L 456.040061 335.152589 
L 456.365444 333.588243 
L 456.690827 330.847546 
L 457.016211 330.750095 
L 457.341594 329.516472 
L 457.666978 329.044863 
L 457.992361 329.812191 
L 458.317744 329.799656 
L 458.643128 327.426482 
L 458.968511 344.736635 
L 459.293895 344.292788 
L 459.619278 345.041165 
L 459.944661 342.24989 
L 460.270045 343.159257 
L 460.595428 340.921974 
L 460.920812 341.809579 
L 461.246195 341.808586 
L 461.571579 339.340812 
L 461.896962 319.695677 
L 462.222345 338.900015 
L 462.547729 338.300461 
L 462.873112 336.751898 
L 463.198496 338.441378 
L 463.523879 335.559923 
L 463.849262 337.33109 
L 464.174646 338.262806 
L 464.500029 338.841789 
L 464.825413 336.881631 
L 465.150796 336.862808 
L 465.801563 333.833871 
L 466.126946 333.394325 
L 466.45233 333.368232 
L 466.777713 334.145642 
L 467.103096 332.009286 
L 467.42848 332.365873 
L 467.753863 332.380862 
L 468.079247 331.589814 
L 468.40463 330.336851 
L 468.730013 328.576938 
L 469.055397 330.097501 
L 469.38078 327.232395 
L 469.706164 329.960696 
L 470.031547 328.586762 
L 470.35693 329.654875 
L 470.682314 343.774594 
L 471.658464 341.341556 
L 472.309231 340.177789 
L 472.634614 339.059217 
L 472.959998 339.809372 
L 473.285381 338.738001 
L 473.610764 335.409828 
L 473.936148 339.555967 
L 474.261531 339.220417 
L 474.586915 336.202486 
L 474.912298 336.282862 
L 475.237681 336.950018 
L 475.563065 337.343108 
L 475.888448 338.216807 
L 476.213832 336.65415 
L 476.539215 337.759312 
L 476.864599 335.056141 
L 477.189982 333.331858 
L 477.515365 333.500427 
L 477.840749 333.422246 
L 478.166132 333.921498 
L 478.491516 333.095338 
L 478.816899 333.02253 
L 479.142282 331.695092 
L 479.467666 334.359604 
L 479.793049 331.04647 
L 480.118433 332.201376 
L 480.443816 332.755845 
L 480.769199 332.32058 
L 481.094583 306.012346 
L 481.419966 331.630727 
L 481.74535 324.181616 
L 482.070733 322.498663 
L 482.396116 337.921485 
L 482.7215 337.986356 
L 483.046883 345.166507 
L 483.372267 344.964186 
L 483.69765 318.399745 
L 484.023033 341.747986 
L 484.348417 314.341661 
L 484.6738 325.015763 
L 484.999184 313.792676 
L 485.324567 310.456855 
L 485.64995 309.676445 
L 485.975334 312.158005 
L 486.300717 309.453424 
L 486.626101 308.98102 
L 486.951484 295.331411 
L 487.276867 322.171159 
L 487.602251 322.888902 
L 487.927634 322.37337 
L 488.253018 324.253391 
L 488.903784 307.932991 
L 489.229168 285.316857 
L 489.554551 307.323505 
L 489.879935 289.96777 
L 490.205318 291.015998 
L 490.530701 293.425645 
L 490.856085 297.057055 
L 491.181468 279.899818 
L 491.506852 295.480571 
L 492.157619 295.529173 
L 492.483002 294.389762 
L 493.133769 280.504228 
L 493.459152 279.04079 
L 493.784536 280.877304 
L 494.109919 301.894814 
L 494.435302 301.595648 
L 494.760686 298.845386 
L 495.086069 297.746739 
L 495.411453 297.941591 
L 495.736836 303.164047 
L 496.062219 302.855842 
L 496.387603 300.28436 
L 496.712986 280.952247 
L 497.03837 306.552402 
L 497.363753 304.853993 
L 497.689136 300.016631 
L 498.01452 300.37003 
L 498.665287 312.536971 
L 498.99067 312.429389 
L 499.316053 320.732155 
L 499.641437 320.318434 
L 499.96682 321.383855 
L 500.292204 320.510455 
L 500.617587 316.260807 
L 500.94297 306.444879 
L 501.268354 307.216578 
L 501.593737 310.138946 
L 501.919121 311.887833 
L 502.244504 311.411953 
L 502.569887 311.582867 
L 502.895271 312.398508 
L 503.220654 311.288975 
L 503.546038 311.20395 
L 503.871421 318.870659 
L 504.522188 317.53295 
L 504.847571 319.072474 
L 505.172955 319.538838 
L 505.498338 318.515313 
L 505.823721 333.612906 
L 506.149105 335.466992 
L 506.474488 339.548815 
L 506.799872 338.161591 
L 507.125255 337.682353 
L 507.450639 337.553803 
L 507.776022 337.720485 
L 508.101405 337.009277 
L 508.426789 335.500157 
L 509.077556 334.77108 
L 509.402939 334.399564 
L 510.053706 331.702591 
L 510.379089 331.490009 
L 510.704473 331.788291 
L 511.029856 333.645962 
L 511.355239 338.4558 
L 511.680623 329.123451 
L 512.006006 334.163431 
L 512.33139 335.027992 
L 512.656773 334.682162 
L 512.982156 334.503242 
L 513.30754 333.941056 
L 513.632923 334.664303 
L 513.958307 324.153874 
L 514.28369 324.978405 
L 515.25984 319.835908 
L 515.585224 320.621612 
L 515.910607 320.172829 
L 516.23599 320.415696 
L 516.561374 320.37518 
L 516.886757 324.726231 
L 517.212141 322.931415 
L 517.537524 337.750552 
L 517.862907 339.46825 
L 518.188291 334.340752 
L 518.513674 331.622384 
L 518.839058 333.498053 
L 519.164441 333.891372 
L 519.489824 332.705197 
L 519.815208 330.727816 
L 520.140591 329.579654 
L 520.465975 327.740378 
L 520.791358 328.442339 
L 521.116742 326.253111 
L 521.442125 322.946324 
L 521.767508 325.410412 
L 522.092892 325.2201 
L 522.418275 306.228821 
L 522.743659 326.198471 
L 523.069042 326.537705 
L 523.394425 325.611552 
L 523.719809 326.051962 
L 524.045192 322.635229 
L 524.370576 322.744261 
L 524.695959 322.080363 
L 525.021342 322.209579 
L 525.672109 328.697741 
L 525.997493 326.978811 
L 526.322876 326.64496 
L 526.648259 304.487959 
L 526.973643 325.712568 
L 527.299026 325.568443 
L 527.62441 326.287608 
L 528.275176 325.223467 
L 528.60056 333.098943 
L 528.925943 331.690145 
L 529.251327 345.516539 
L 529.57671 345.320664 
L 529.902093 346.501147 
L 530.55286 344.768718 
L 530.878244 325.544664 
L 531.203627 343.312054 
L 531.52901 343.010484 
L 531.854394 341.733097 
L 532.179777 341.691965 
L 532.505161 341.532722 
L 532.830544 341.129083 
L 533.155927 338.304007 
L 533.481311 338.285552 
L 533.806694 338.99239 
L 534.132078 338.536335 
L 534.457461 340.024387 
L 534.782844 339.615772 
L 535.108228 339.448802 
L 535.433611 339.033998 
L 536.084378 335.607292 
L 536.409762 336.40871 
L 536.735145 334.749794 
L 537.060528 335.979623 
L 537.385912 334.481807 
L 537.711295 334.441967 
L 538.036679 332.996844 
L 538.362062 316.106233 
L 538.687445 333.155451 
L 539.012829 333.076575 
L 539.338212 331.548503 
L 539.663596 332.854626 
L 539.988979 331.769995 
L 540.639746 331.493655 
L 540.965129 346.62479 
L 541.290513 346.173534 
L 541.615896 346.364919 
L 541.941279 343.24169 
L 542.266663 343.940383 
L 542.592046 342.842789 
L 542.91743 343.845425 
L 543.242813 343.097565 
L 543.568196 341.250343 
L 544.218963 341.266841 
L 544.544347 341.192822 
L 544.86973 338.979348 
L 545.195113 338.570395 
L 545.520497 338.683837 
L 546.171264 340.516081 
L 546.496647 340.144187 
L 546.82203 340.615826 
L 547.798181 336.214892 
L 548.123564 337.627186 
L 548.448947 336.354875 
L 548.774331 334.605957 
L 549.099714 334.594237 
L 549.425098 334.701133 
L 549.750481 333.620018 
L 550.075864 333.425464 
L 550.401248 334.482791 
L 550.726631 332.662477 
L 551.052015 332.400916 
L 551.377398 331.244351 
L 551.702782 333.267791 
L 552.028165 330.087041 
L 552.353548 313.969251 
L 552.678932 346.452546 
L 553.004315 346.65298 
L 553.329699 345.319402 
L 553.655082 345.06399 
L 554.305849 344.017372 
L 554.631232 343.649938 
L 554.956616 343.554881 
L 555.281999 341.219819 
L 555.607382 342.866021 
L 556.258149 340.83542 
L 556.583533 338.295167 
L 557.234299 340.108737 
L 557.559683 338.088783 
L 557.885066 340.660017 
L 558.21045 339.5525 
L 558.535833 340.459861 
L 558.861216 339.340226 
L 559.1866 336.614309 
L 559.511983 336.629626 
L 559.837367 337.073413 
L 560.488133 334.915165 
L 560.813517 334.638636 
L 561.1389 334.992472 
L 561.464284 333.661249 
L 561.789667 334.16514 
L 562.11505 334.201792 
L 562.440434 333.829997 
L 562.765817 334.226236 
L 563.091201 332.429046 
L 563.416584 332.467396 
L 563.741967 331.51203 
L 564.067351 333.413793 
L 564.392734 346.560982 
L 564.718118 346.25835 
L 565.043501 344.789676 
L 565.368884 345.498074 
L 565.694268 344.357193 
L 566.019651 343.911796 
L 566.345035 344.799113 
L 567.321185 341.587571 
L 567.646568 341.960339 
L 567.971952 340.2353 
L 568.297335 339.332797 
L 568.622719 338.88887 
L 568.948102 321.165711 
L 569.273485 338.435348 
L 569.598869 339.698602 
L 569.924252 338.569709 
L 570.249636 340.552355 
L 570.575019 338.331034 
L 571.225786 335.972919 
L 571.551169 336.895129 
L 571.876553 335.054542 
L 572.201936 334.218787 
L 572.527319 317.131436 
L 572.852703 314.413287 
L 573.178086 334.183615 
L 573.50347 333.03437 
L 573.828853 333.086021 
L 574.154236 332.056794 
L 574.47962 334.619694 
L 574.805003 332.071773 
L 575.130387 332.56145 
L 575.45577 332.718696 
L 575.781153 331.156237 
L 576.106537 346.084029 
L 576.43192 346.249619 
L 576.757304 346.138361 
L 577.082687 344.724199 
L 577.40807 344.735712 
L 577.733454 343.038693 
L 578.058837 343.409763 
L 578.384221 342.850745 
L 578.709604 322.579297 
L 579.034987 341.349293 
L 579.360371 339.73726 
L 579.685754 340.196264 
L 580.011138 337.416402 
L 580.336521 339.338836 
L 580.661904 338.558992 
L 580.987288 338.723102 
L 581.312671 340.57966 
L 581.638055 340.769456 
L 581.963438 338.969127 
L 582.614205 336.966149 
L 582.939588 337.080684 
L 583.915739 334.276089 
L 584.241122 333.471622 
L 584.566505 334.627233 
L 584.891889 334.432133 
L 585.217272 333.071132 
L 585.542656 334.029865 
L 585.868039 331.156833 
L 586.193422 332.67667 
L 586.518806 332.859643 
L 586.844189 331.906074 
L 587.169573 333.097543 
L 587.494956 332.373114 
L 587.820339 345.668024 
L 588.145723 346.488205 
L 588.471106 345.615489 
L 588.79649 345.111787 
L 589.121873 344.221878 
L 589.447256 344.196768 
L 589.77264 343.020814 
L 590.098023 343.556301 
L 590.423407 341.890333 
L 590.74879 342.679702 
L 591.074173 341.268828 
L 591.399557 341.158762 
L 591.72494 339.553503 
L 592.050324 340.213458 
L 592.375707 338.999213 
L 592.70109 338.548562 
L 593.026474 340.655468 
L 593.351857 340.686349 
L 593.677241 340.190901 
L 594.002624 338.836534 
L 594.328007 318.48173 
L 594.653391 335.6224 
L 594.978774 336.59208 
L 595.304158 335.033594 
L 595.629541 335.305047 
L 595.954924 333.446194 
L 596.280308 334.815728 
L 596.605691 334.931088 
L 596.931075 333.248939 
L 597.256458 333.939755 
L 597.581842 333.283991 
L 597.907225 333.484028 
L 598.232608 332.075041 
L 598.557992 315.481748 
L 598.883375 332.352454 
L 599.208759 332.521639 
L 599.534142 347.417259 
L 599.859525 346.974246 
L 600.184909 344.751942 
L 600.510292 345.458243 
L 600.835676 344.43882 
L 601.161059 344.253484 
L 601.486442 344.318852 
L 601.811826 342.192091 
L 602.137209 342.2203 
L 602.462593 341.057925 
L 602.787976 341.859342 
L 603.438743 340.078243 
L 603.764126 340.627139 
L 604.08951 340.308892 
L 604.414893 340.329563 
L 604.740276 341.146456 
L 605.06566 339.577223 
L 605.391043 339.633442 
L 605.716427 320.49197 
L 606.04181 337.300298 
L 606.367193 336.758633 
L 606.692577 335.534406 
L 607.01796 336.729331 
L 607.668727 334.346821 
L 607.99411 334.112397 
L 608.319494 332.681547 
L 608.644877 330.580225 
L 609.295644 333.670069 
L 609.621027 333.963792 
L 609.946411 331.979974 
L 610.271794 332.255043 
L 610.597178 333.213657 
L 610.922561 331.476481 
L 611.247944 344.916488 
L 611.573328 328.932632 
L 611.898711 343.656007 
L 612.224095 326.478566 
L 612.549478 344.16687 
L 612.874862 343.907197 
L 613.200245 344.148405 
L 614.176395 340.315627 
L 614.501779 341.38673 
L 615.477929 336.420222 
L 615.803312 338.660217 
L 616.128696 336.649203 
L 616.454079 339.615464 
L 617.104846 336.980442 
L 617.430229 337.21277 
L 617.755613 336.320189 
L 618.080996 334.969011 
L 618.406379 335.760774 
L 618.731763 335.599942 
L 619.38253 333.348654 
L 619.707913 332.80827 
L 620.033296 333.343787 
L 620.35868 332.126682 
L 621.009447 331.286566 
L 621.33483 332.471975 
L 621.985597 329.434069 
L 622.31098 331.35838 
L 622.636364 331.883268 
L 622.636364 331.883268 
" clip-path="url(#p892004b972)" style="fill: none; stroke: #1f77b4; stroke-width: 1.5; stroke-linecap: square"/>
   </g>
   <g id="patch_3">
    <path d="M 90 384.48 
L 90 51.84 
" style="fill: none; stroke: #000000; stroke-width: 0.8; stroke-linejoin: miter; stroke-linecap: square"/>
   </g>
   <g id="patch_4">
    <path d="M 648 384.48 
L 648 51.84 
" style="fill: none; stroke: #000000; stroke-width: 0.8; stroke-linejoin: miter; stroke-linecap: square"/>
   </g>
   <g id="patch_5">
    <path d="M 90 384.48 
L 648 384.48 
" style="fill: none; stroke: #000000; stroke-width: 0.8; stroke-linejoin: miter; stroke-linecap: square"/>
   </g>
   <g id="patch_6">
    <path d="M 90 51.84 
L 648 51.84 
" style="fill: none; stroke: #000000; stroke-width: 0.8; stroke-linejoin: miter; stroke-linecap: square"/>
   </g>
   <g id="text_19">
    <!-- Average time per index -->
    <g transform="translate(298.700625 45.84) scale(0.12 -0.12)">
     <defs>
      <path id="DejaVuSans-70" d="M 1159 525 
L 1159 -1331 
L 581 -1331 
L 581 3500 
L 1159 3500 
L 1159 2969 
Q 1341 3281 1617 3432 
Q 1894 3584 2278 3584 
Q 2916 3584 3314 3078 
Q 3713 2572 3713 1747 
Q 3713 922 3314 415 
Q 2916 -91 2278 -91 
Q 1894 -91 1617 61 
Q 1341 213 1159 525 
z
M 3116 1747 
Q 3116 2381 2855 2742 
Q 2594 3103 2138 3103 
Q 1681 3103 1420 2742 
Q 1159 2381 1159 1747 
Q 1159 1113 1420 752 
Q 1681 391 2138 391 
Q 2594 391 2855 752 
Q 3116 1113 3116 1747 
z
" transform="scale(0.015625)"/>
     </defs>
     <use xlink:href="#DejaVuSans-41"/>
     <use xlink:href="#DejaVuSans-76" transform="translate(62.533203 0)"/>
     <use xlink:href="#DejaVuSans-65" transform="translate(121.712891 0)"/>
     <use xlink:href="#DejaVuSans-72" transform="translate(183.236328 0)"/>
     <use xlink:href="#DejaVuSans-61" transform="translate(224.349609 0)"/>
     <use xlink:href="#DejaVuSans-67" transform="translate(285.628906 0)"/>
     <use xlink:href="#DejaVuSans-65" transform="translate(349.105469 0)"/>
     <use xlink:href="#DejaVuSans-20" transform="translate(410.628906 0)"/>
     <use xlink:href="#DejaVuSans-74" transform="translate(442.416016 0)"/>
     <use xlink:href="#DejaVuSans-69" transform="translate(481.625 0)"/>
     <use xlink:href="#DejaVuSans-6d" transform="translate(509.408203 0)"/>
     <use xlink:href="#DejaVuSans-65" transform="translate(606.820312 0)"/>
     <use xlink:href="#DejaVuSans-20" transform="translate(668.34375 0)"/>
     <use xlink:href="#DejaVuSans-70" transform="translate(700.130859 0)"/>
     <use xlink:href="#DejaVuSans-65" transform="translate(763.607422 0)"/>
     <use xlink:href="#DejaVuSans-72" transform="translate(825.130859 0)"/>
     <use xlink:href="#DejaVuSans-20" transform="translate(866.244141 0)"/>
     <use xlink:href="#DejaVuSans-69" transform="translate(898.03125 0)"/>
     <use xlink:href="#DejaVuSans-6e" transform="translate(925.814453 0)"/>
     <use xlink:href="#DejaVuSans-64" transform="translate(989.193359 0)"/>
     <use xlink:href="#DejaVuSans-65" transform="translate(1052.669922 0)"/>
     <use xlink:href="#DejaVuSans-78" transform="translate(1112.443359 0)"/>
    </g>
   </g>
   <g id="legend_1">
    <g id="patch_7">
     <path d="M 515.8875 74.518125 
L 641 74.518125 
Q 643 74.518125 643 72.518125 
L 643 58.84 
Q 643 56.84 641 56.84 
L 515.8875 56.84 
Q 513.8875 56.84 513.8875 58.84 
L 513.8875 72.518125 
Q 513.8875 74.518125 515.8875 74.518125 
z
" style="fill: #ffffff; opacity: 0.8; stroke: #cccccc; stroke-linejoin: miter"/>
    </g>
    <g id="line2d_18">
     <path d="M 517.8875 64.938438 
L 527.8875 64.938438 
L 537.8875 64.938438 
" style="fill: none; stroke: #1f77b4; stroke-width: 1.5; stroke-linecap: square"/>
    </g>
    <g id="text_20">
     <!-- getExpectedPoints -->
     <g transform="translate(545.8875 68.438438) scale(0.1 -0.1)">
      <defs>
       <path id="DejaVuSans-45" d="M 628 4666 
L 3578 4666 
L 3578 4134 
L 1259 4134 
L 1259 2753 
L 3481 2753 
L 3481 2222 
L 1259 2222 
L 1259 531 
L 3634 531 
L 3634 0 
L 628 0 
L 628 4666 
z
" transform="scale(0.015625)"/>
       <path id="DejaVuSans-63" d="M 3122 3366 
L 3122 2828 
Q 2878 2963 2633 3030 
Q 2388 3097 2138 3097 
Q 1578 3097 1268 2742 
Q 959 2388 959 1747 
Q 959 1106 1268 751 
Q 1578 397 2138 397 
Q 2388 397 2633 464 
Q 2878 531 3122 666 
L 3122 134 
Q 2881 22 2623 -34 
Q 2366 -91 2075 -91 
Q 1284 -91 818 406 
Q 353 903 353 1747 
Q 353 2603 823 3093 
Q 1294 3584 2113 3584 
Q 2378 3584 2631 3529 
Q 2884 3475 3122 3366 
z
" transform="scale(0.015625)"/>
       <path id="DejaVuSans-50" d="M 1259 4147 
L 1259 2394 
L 2053 2394 
Q 2494 2394 2734 2622 
Q 2975 2850 2975 3272 
Q 2975 3691 2734 3919 
Q 2494 4147 2053 4147 
L 1259 4147 
z
M 628 4666 
L 2053 4666 
Q 2838 4666 3239 4311 
Q 3641 3956 3641 3272 
Q 3641 2581 3239 2228 
Q 2838 1875 2053 1875 
L 1259 1875 
L 1259 0 
L 628 0 
L 628 4666 
z
" transform="scale(0.015625)"/>
       <path id="DejaVuSans-6f" d="M 1959 3097 
Q 1497 3097 1228 2736 
Q 959 2375 959 1747 
Q 959 1119 1226 758 
Q 1494 397 1959 397 
Q 2419 397 2687 759 
Q 2956 1122 2956 1747 
Q 2956 2369 2687 2733 
Q 2419 3097 1959 3097 
z
M 1959 3584 
Q 2709 3584 3137 3096 
Q 3566 2609 3566 1747 
Q 3566 888 3137 398 
Q 2709 -91 1959 -91 
Q 1206 -91 779 398 
Q 353 888 353 1747 
Q 353 2609 779 3096 
Q 1206 3584 1959 3584 
z
" transform="scale(0.015625)"/>
      </defs>
      <use xlink:href="#DejaVuSans-67"/>
      <use xlink:href="#DejaVuSans-65" transform="translate(63.476562 0)"/>
      <use xlink:href="#DejaVuSans-74" transform="translate(125 0)"/>
      <use xlink:href="#DejaVuSans-45" transform="translate(164.208984 0)"/>
      <use xlink:href="#DejaVuSans-78" transform="translate(227.392578 0)"/>
      <use xlink:href="#DejaVuSans-70" transform="translate(286.572266 0)"/>
      <use xlink:href="#DejaVuSans-65" transform="translate(350.048828 0)"/>
      <use xlink:href="#DejaVuSans-63" transform="translate(411.572266 0)"/>
      <use xlink:href="#DejaVuSans-74" transform="translate(466.552734 0)"/>
      <use xlink:href="#DejaVuSans-65" transform="translate(505.761719 0)"/>
      <use xlink:href="#DejaVuSans-64" transform="translate(567.285156 0)"/>
      <use xlink:href="#DejaVuSans-50" transform="translate(630.761719 0)"/>
      <use xlink:href="#DejaVuSans-6f" transform="translate(687.439453 0)"/>
      <use xlink:href="#DejaVuSans-69" transform="translate(748.621094 0)"/>
      <use xlink:href="#DejaVuSans-6e" transform="translate(776.404297 0)"/>
      <use xlink:href="#DejaVuSans-74" transform="translate(839.783203 0)"/>
      <use xlink:href="#DejaVuSans-73" transform="translate(878.992188 0)"/>
     </g>
    </g>
   </g>
  </g>
 </g>
 <defs>
  <clipPath id="p892004b972">
   <rect x="90" y="51.84" width="558" height="332.64"/>
  </clipPath>
 </defs>
</svg>
