<?xml version="1.0" encoding="utf-8" standalone="no"?>
<!DOCTYPE svg PUBLIC "-//W3C//DTD SVG 1.1//EN"
  "http://www.w3.org/Graphics/SVG/1.1/DTD/svg11.dtd">
<svg xmlns:xlink="http://www.w3.org/1999/xlink" width="720pt" height="432pt" viewBox="0 0 720 432" xmlns="http://www.w3.org/2000/svg" version="1.1">
 <metadata>
  <rdf:RDF xmlns:dc="http://purl.org/dc/elements/1.1/" xmlns:cc="http://creativecommons.org/ns#" xmlns:rdf="http://www.w3.org/1999/02/22-rdf-syntax-ns#">
   <cc:Work>
    <dc:type rdf:resource="http://purl.org/dc/dcmitype/StillImage"/>
    <dc:date>2025-09-30T20:43:32.912477</dc:date>
    <dc:format>image/svg+xml</dc:format>
    <dc:creator>
     <cc:Agent>
      <dc:title>Matplotlib v3.10.3, https://matplotlib.org/</dc:title>
     </cc:Agent>
    </dc:creator>
   </cc:Work>
  </rdf:RDF>
 </metadata>
 <defs>
  <style type="text/css">*{stroke-linejoin: round; stroke-linecap: butt}</style>
 </defs>
 <g id="figure_1">
  <g id="patch_1">
   <path d="M 0 432 
L 720 432 
L 720 0 
L 0 0 
z
" style="fill: #ffffff"/>
  </g>
  <g id="axes_1">
   <g id="patch_2">
    <path d="M 90 384.48 
L 648 384.48 
L 648 51.84 
L 90 51.84 
z
" style="fill: #ffffff"/>
   </g>
   <g id="matplotlib.axis_1">
    <g id="xtick_1">
     <g id="line2d_1">
      <defs>
       <path id="m16bd15f763" d="M 0 0 
L 0 3.5 
" style="stroke: #000000; stroke-width: 0.8"/>
      </defs>
      <g>
       <use xlink:href="#m16bd15f763" x="115.363636" y="384.48" style="stroke: #000000; stroke-width: 0.8"/>
      </g>
     </g>
     <g id="text_1">
      <!-- 0 -->
      <g transform="translate(112.182386 399.078438) scale(0.1 -0.1)">
       <defs>
        <path id="DejaVuSans-30" d="M 2034 4250 
Q 1547 4250 1301 3770 
Q 1056 3291 1056 2328 
Q 1056 1369 1301 889 
Q 1547 409 2034 409 
Q 2525 409 2770 889 
Q 3016 1369 3016 2328 
Q 3016 3291 2770 3770 
Q 2525 4250 2034 4250 
z
M 2034 4750 
Q 2819 4750 3233 4129 
Q 3647 3509 3647 2328 
Q 3647 1150 3233 529 
Q 2819 -91 2034 -91 
Q 1250 -91 836 529 
Q 422 1150 422 2328 
Q 422 3509 836 4129 
Q 1250 4750 2034 4750 
z
" transform="scale(0.015625)"/>
       </defs>
       <use xlink:href="#DejaVuSans-30"/>
      </g>
     </g>
    </g>
    <g id="xtick_2">
     <g id="line2d_2">
      <g>
       <use xlink:href="#m16bd15f763" x="180.440317" y="384.48" style="stroke: #000000; stroke-width: 0.8"/>
      </g>
     </g>
     <g id="text_2">
      <!-- 200 -->
      <g transform="translate(170.896567 399.078438) scale(0.1 -0.1)">
       <defs>
        <path id="DejaVuSans-32" d="M 1228 531 
L 3431 531 
L 3431 0 
L 469 0 
L 469 531 
Q 828 903 1448 1529 
Q 2069 2156 2228 2338 
Q 2531 2678 2651 2914 
Q 2772 3150 2772 3378 
Q 2772 3750 2511 3984 
Q 2250 4219 1831 4219 
Q 1534 4219 1204 4116 
Q 875 4013 500 3803 
L 500 4441 
Q 881 4594 1212 4672 
Q 1544 4750 1819 4750 
Q 2544 4750 2975 4387 
Q 3406 4025 3406 3419 
Q 3406 3131 3298 2873 
Q 3191 2616 2906 2266 
Q 2828 2175 2409 1742 
Q 1991 1309 1228 531 
z
" transform="scale(0.015625)"/>
       </defs>
       <use xlink:href="#DejaVuSans-32"/>
       <use xlink:href="#DejaVuSans-30" transform="translate(63.623047 0)"/>
       <use xlink:href="#DejaVuSans-30" transform="translate(127.246094 0)"/>
      </g>
     </g>
    </g>
    <g id="xtick_3">
     <g id="line2d_3">
      <g>
       <use xlink:href="#m16bd15f763" x="245.516998" y="384.48" style="stroke: #000000; stroke-width: 0.8"/>
      </g>
     </g>
     <g id="text_3">
      <!-- 400 -->
      <g transform="translate(235.973248 399.078438) scale(0.1 -0.1)">
       <defs>
        <path id="DejaVuSans-34" d="M 2419 4116 
L 825 1625 
L 2419 1625 
L 2419 4116 
z
M 2253 4666 
L 3047 4666 
L 3047 1625 
L 3713 1625 
L 3713 1100 
L 3047 1100 
L 3047 0 
L 2419 0 
L 2419 1100 
L 313 1100 
L 313 1709 
L 2253 4666 
z
" transform="scale(0.015625)"/>
       </defs>
       <use xlink:href="#DejaVuSans-34"/>
       <use xlink:href="#DejaVuSans-30" transform="translate(63.623047 0)"/>
       <use xlink:href="#DejaVuSans-30" transform="translate(127.246094 0)"/>
      </g>
     </g>
    </g>
    <g id="xtick_4">
     <g id="line2d_4">
      <g>
       <use xlink:href="#m16bd15f763" x="310.593679" y="384.48" style="stroke: #000000; stroke-width: 0.8"/>
      </g>
     </g>
     <g id="text_4">
      <!-- 600 -->
      <g transform="translate(301.049929 399.078438) scale(0.1 -0.1)">
       <defs>
        <path id="DejaVuSans-36" d="M 2113 2584 
Q 1688 2584 1439 2293 
Q 1191 2003 1191 1497 
Q 1191 994 1439 701 
Q 1688 409 2113 409 
Q 2538 409 2786 701 
Q 3034 994 3034 1497 
Q 3034 2003 2786 2293 
Q 2538 2584 2113 2584 
z
M 3366 4563 
L 3366 3988 
Q 3128 4100 2886 4159 
Q 2644 4219 2406 4219 
Q 1781 4219 1451 3797 
Q 1122 3375 1075 2522 
Q 1259 2794 1537 2939 
Q 1816 3084 2150 3084 
Q 2853 3084 3261 2657 
Q 3669 2231 3669 1497 
Q 3669 778 3244 343 
Q 2819 -91 2113 -91 
Q 1303 -91 875 529 
Q 447 1150 447 2328 
Q 447 3434 972 4092 
Q 1497 4750 2381 4750 
Q 2619 4750 2861 4703 
Q 3103 4656 3366 4563 
z
" transform="scale(0.015625)"/>
       </defs>
       <use xlink:href="#DejaVuSans-36"/>
       <use xlink:href="#DejaVuSans-30" transform="translate(63.623047 0)"/>
       <use xlink:href="#DejaVuSans-30" transform="translate(127.246094 0)"/>
      </g>
     </g>
    </g>
    <g id="xtick_5">
     <g id="line2d_5">
      <g>
       <use xlink:href="#m16bd15f763" x="375.67036" y="384.48" style="stroke: #000000; stroke-width: 0.8"/>
      </g>
     </g>
     <g id="text_5">
      <!-- 800 -->
      <g transform="translate(366.12661 399.078438) scale(0.1 -0.1)">
       <defs>
        <path id="DejaVuSans-38" d="M 2034 2216 
Q 1584 2216 1326 1975 
Q 1069 1734 1069 1313 
Q 1069 891 1326 650 
Q 1584 409 2034 409 
Q 2484 409 2743 651 
Q 3003 894 3003 1313 
Q 3003 1734 2745 1975 
Q 2488 2216 2034 2216 
z
M 1403 2484 
Q 997 2584 770 2862 
Q 544 3141 544 3541 
Q 544 4100 942 4425 
Q 1341 4750 2034 4750 
Q 2731 4750 3128 4425 
Q 3525 4100 3525 3541 
Q 3525 3141 3298 2862 
Q 3072 2584 2669 2484 
Q 3125 2378 3379 2068 
Q 3634 1759 3634 1313 
Q 3634 634 3220 271 
Q 2806 -91 2034 -91 
Q 1263 -91 848 271 
Q 434 634 434 1313 
Q 434 1759 690 2068 
Q 947 2378 1403 2484 
z
M 1172 3481 
Q 1172 3119 1398 2916 
Q 1625 2713 2034 2713 
Q 2441 2713 2670 2916 
Q 2900 3119 2900 3481 
Q 2900 3844 2670 4047 
Q 2441 4250 2034 4250 
Q 1625 4250 1398 4047 
Q 1172 3844 1172 3481 
z
" transform="scale(0.015625)"/>
       </defs>
       <use xlink:href="#DejaVuSans-38"/>
       <use xlink:href="#DejaVuSans-30" transform="translate(63.623047 0)"/>
       <use xlink:href="#DejaVuSans-30" transform="translate(127.246094 0)"/>
      </g>
     </g>
    </g>
    <g id="xtick_6">
     <g id="line2d_6">
      <g>
       <use xlink:href="#m16bd15f763" x="440.747041" y="384.48" style="stroke: #000000; stroke-width: 0.8"/>
      </g>
     </g>
     <g id="text_6">
      <!-- 1000 -->
      <g transform="translate(428.022041 399.078438) scale(0.1 -0.1)">
       <defs>
        <path id="DejaVuSans-31" d="M 794 531 
L 1825 531 
L 1825 4091 
L 703 3866 
L 703 4441 
L 1819 4666 
L 2450 4666 
L 2450 531 
L 3481 531 
L 3481 0 
L 794 0 
L 794 531 
z
" transform="scale(0.015625)"/>
       </defs>
       <use xlink:href="#DejaVuSans-31"/>
       <use xlink:href="#DejaVuSans-30" transform="translate(63.623047 0)"/>
       <use xlink:href="#DejaVuSans-30" transform="translate(127.246094 0)"/>
       <use xlink:href="#DejaVuSans-30" transform="translate(190.869141 0)"/>
      </g>
     </g>
    </g>
    <g id="xtick_7">
     <g id="line2d_7">
      <g>
       <use xlink:href="#m16bd15f763" x="505.823721" y="384.48" style="stroke: #000000; stroke-width: 0.8"/>
      </g>
     </g>
     <g id="text_7">
      <!-- 1200 -->
      <g transform="translate(493.098721 399.078438) scale(0.1 -0.1)">
       <use xlink:href="#DejaVuSans-31"/>
       <use xlink:href="#DejaVuSans-32" transform="translate(63.623047 0)"/>
       <use xlink:href="#DejaVuSans-30" transform="translate(127.246094 0)"/>
       <use xlink:href="#DejaVuSans-30" transform="translate(190.869141 0)"/>
      </g>
     </g>
    </g>
    <g id="xtick_8">
     <g id="line2d_8">
      <g>
       <use xlink:href="#m16bd15f763" x="570.900402" y="384.48" style="stroke: #000000; stroke-width: 0.8"/>
      </g>
     </g>
     <g id="text_8">
      <!-- 1400 -->
      <g transform="translate(558.175402 399.078438) scale(0.1 -0.1)">
       <use xlink:href="#DejaVuSans-31"/>
       <use xlink:href="#DejaVuSans-34" transform="translate(63.623047 0)"/>
       <use xlink:href="#DejaVuSans-30" transform="translate(127.246094 0)"/>
       <use xlink:href="#DejaVuSans-30" transform="translate(190.869141 0)"/>
      </g>
     </g>
    </g>
    <g id="xtick_9">
     <g id="line2d_9">
      <g>
       <use xlink:href="#m16bd15f763" x="635.977083" y="384.48" style="stroke: #000000; stroke-width: 0.8"/>
      </g>
     </g>
     <g id="text_9">
      <!-- 1600 -->
      <g transform="translate(623.252083 399.078438) scale(0.1 -0.1)">
       <use xlink:href="#DejaVuSans-31"/>
       <use xlink:href="#DejaVuSans-36" transform="translate(63.623047 0)"/>
       <use xlink:href="#DejaVuSans-30" transform="translate(127.246094 0)"/>
       <use xlink:href="#DejaVuSans-30" transform="translate(190.869141 0)"/>
      </g>
     </g>
    </g>
    <g id="text_10">
     <!-- Index -->
     <g transform="translate(355.233594 412.756563) scale(0.1 -0.1)">
      <defs>
       <path id="DejaVuSans-49" d="M 628 4666 
L 1259 4666 
L 1259 0 
L 628 0 
L 628 4666 
z
" transform="scale(0.015625)"/>
       <path id="DejaVuSans-6e" d="M 3513 2113 
L 3513 0 
L 2938 0 
L 2938 2094 
Q 2938 2591 2744 2837 
Q 2550 3084 2163 3084 
Q 1697 3084 1428 2787 
Q 1159 2491 1159 1978 
L 1159 0 
L 581 0 
L 581 3500 
L 1159 3500 
L 1159 2956 
Q 1366 3272 1645 3428 
Q 1925 3584 2291 3584 
Q 2894 3584 3203 3211 
Q 3513 2838 3513 2113 
z
" transform="scale(0.015625)"/>
       <path id="DejaVuSans-64" d="M 2906 2969 
L 2906 4863 
L 3481 4863 
L 3481 0 
L 2906 0 
L 2906 525 
Q 2725 213 2448 61 
Q 2172 -91 1784 -91 
Q 1150 -91 751 415 
Q 353 922 353 1747 
Q 353 2572 751 3078 
Q 1150 3584 1784 3584 
Q 2172 3584 2448 3432 
Q 2725 3281 2906 2969 
z
M 947 1747 
Q 947 1113 1208 752 
Q 1469 391 1925 391 
Q 2381 391 2643 752 
Q 2906 1113 2906 1747 
Q 2906 2381 2643 2742 
Q 2381 3103 1925 3103 
Q 1469 3103 1208 2742 
Q 947 2381 947 1747 
z
" transform="scale(0.015625)"/>
       <path id="DejaVuSans-65" d="M 3597 1894 
L 3597 1613 
L 953 1613 
Q 991 1019 1311 708 
Q 1631 397 2203 397 
Q 2534 397 2845 478 
Q 3156 559 3463 722 
L 3463 178 
Q 3153 47 2828 -22 
Q 2503 -91 2169 -91 
Q 1331 -91 842 396 
Q 353 884 353 1716 
Q 353 2575 817 3079 
Q 1281 3584 2069 3584 
Q 2775 3584 3186 3129 
Q 3597 2675 3597 1894 
z
M 3022 2063 
Q 3016 2534 2758 2815 
Q 2500 3097 2075 3097 
Q 1594 3097 1305 2825 
Q 1016 2553 972 2059 
L 3022 2063 
z
" transform="scale(0.015625)"/>
       <path id="DejaVuSans-78" d="M 3513 3500 
L 2247 1797 
L 3578 0 
L 2900 0 
L 1881 1375 
L 863 0 
L 184 0 
L 1544 1831 
L 300 3500 
L 978 3500 
L 1906 2253 
L 2834 3500 
L 3513 3500 
z
" transform="scale(0.015625)"/>
      </defs>
      <use xlink:href="#DejaVuSans-49"/>
      <use xlink:href="#DejaVuSans-6e" transform="translate(29.492188 0)"/>
      <use xlink:href="#DejaVuSans-64" transform="translate(92.871094 0)"/>
      <use xlink:href="#DejaVuSans-65" transform="translate(156.347656 0)"/>
      <use xlink:href="#DejaVuSans-78" transform="translate(216.121094 0)"/>
     </g>
    </g>
   </g>
   <g id="matplotlib.axis_2">
    <g id="ytick_1">
     <g id="line2d_10">
      <defs>
       <path id="ma0a25ae143" d="M 0 0 
L -3.5 0 
" style="stroke: #000000; stroke-width: 0.8"/>
      </defs>
      <g>
       <use xlink:href="#ma0a25ae143" x="90" y="384.48" style="stroke: #000000; stroke-width: 0.8"/>
      </g>
     </g>
     <g id="text_11">
      <!-- 0 -->
      <g transform="translate(76.6375 388.279219) scale(0.1 -0.1)">
       <use xlink:href="#DejaVuSans-30"/>
      </g>
     </g>
    </g>
    <g id="ytick_2">
     <g id="line2d_11">
      <g>
       <use xlink:href="#ma0a25ae143" x="90" y="328.898567" style="stroke: #000000; stroke-width: 0.8"/>
      </g>
     </g>
     <g id="text_12">
      <!-- 1 -->
      <g transform="translate(76.6375 332.697786) scale(0.1 -0.1)">
       <use xlink:href="#DejaVuSans-31"/>
      </g>
     </g>
    </g>
    <g id="ytick_3">
     <g id="line2d_12">
      <g>
       <use xlink:href="#ma0a25ae143" x="90" y="273.317135" style="stroke: #000000; stroke-width: 0.8"/>
      </g>
     </g>
     <g id="text_13">
      <!-- 2 -->
      <g transform="translate(76.6375 277.116354) scale(0.1 -0.1)">
       <use xlink:href="#DejaVuSans-32"/>
      </g>
     </g>
    </g>
    <g id="ytick_4">
     <g id="line2d_13">
      <g>
       <use xlink:href="#ma0a25ae143" x="90" y="217.735702" style="stroke: #000000; stroke-width: 0.8"/>
      </g>
     </g>
     <g id="text_14">
      <!-- 3 -->
      <g transform="translate(76.6375 221.534921) scale(0.1 -0.1)">
       <defs>
        <path id="DejaVuSans-33" d="M 2597 2516 
Q 3050 2419 3304 2112 
Q 3559 1806 3559 1356 
Q 3559 666 3084 287 
Q 2609 -91 1734 -91 
Q 1441 -91 1130 -33 
Q 819 25 488 141 
L 488 750 
Q 750 597 1062 519 
Q 1375 441 1716 441 
Q 2309 441 2620 675 
Q 2931 909 2931 1356 
Q 2931 1769 2642 2001 
Q 2353 2234 1838 2234 
L 1294 2234 
L 1294 2753 
L 1863 2753 
Q 2328 2753 2575 2939 
Q 2822 3125 2822 3475 
Q 2822 3834 2567 4026 
Q 2313 4219 1838 4219 
Q 1578 4219 1281 4162 
Q 984 4106 628 3988 
L 628 4550 
Q 988 4650 1302 4700 
Q 1616 4750 1894 4750 
Q 2613 4750 3031 4423 
Q 3450 4097 3450 3541 
Q 3450 3153 3228 2886 
Q 3006 2619 2597 2516 
z
" transform="scale(0.015625)"/>
       </defs>
       <use xlink:href="#DejaVuSans-33"/>
      </g>
     </g>
    </g>
    <g id="ytick_5">
     <g id="line2d_14">
      <g>
       <use xlink:href="#ma0a25ae143" x="90" y="162.15427" style="stroke: #000000; stroke-width: 0.8"/>
      </g>
     </g>
     <g id="text_15">
      <!-- 4 -->
      <g transform="translate(76.6375 165.953489) scale(0.1 -0.1)">
       <use xlink:href="#DejaVuSans-34"/>
      </g>
     </g>
    </g>
    <g id="ytick_6">
     <g id="line2d_15">
      <g>
       <use xlink:href="#ma0a25ae143" x="90" y="106.572837" style="stroke: #000000; stroke-width: 0.8"/>
      </g>
     </g>
     <g id="text_16">
      <!-- 5 -->
      <g transform="translate(76.6375 110.372056) scale(0.1 -0.1)">
       <defs>
        <path id="DejaVuSans-35" d="M 691 4666 
L 3169 4666 
L 3169 4134 
L 1269 4134 
L 1269 2991 
Q 1406 3038 1543 3061 
Q 1681 3084 1819 3084 
Q 2600 3084 3056 2656 
Q 3513 2228 3513 1497 
Q 3513 744 3044 326 
Q 2575 -91 1722 -91 
Q 1428 -91 1123 -41 
Q 819 9 494 109 
L 494 744 
Q 775 591 1075 516 
Q 1375 441 1709 441 
Q 2250 441 2565 725 
Q 2881 1009 2881 1497 
Q 2881 1984 2565 2268 
Q 2250 2553 1709 2553 
Q 1456 2553 1204 2497 
Q 953 2441 691 2322 
L 691 4666 
z
" transform="scale(0.015625)"/>
       </defs>
       <use xlink:href="#DejaVuSans-35"/>
      </g>
     </g>
    </g>
    <g id="text_17">
     <!-- Average time (ms) -->
     <g transform="translate(70.557812 264.543594) rotate(-90) scale(0.1 -0.1)">
      <defs>
       <path id="DejaVuSans-41" d="M 2188 4044 
L 1331 1722 
L 3047 1722 
L 2188 4044 
z
M 1831 4666 
L 2547 4666 
L 4325 0 
L 3669 0 
L 3244 1197 
L 1141 1197 
L 716 0 
L 50 0 
L 1831 4666 
z
" transform="scale(0.015625)"/>
       <path id="DejaVuSans-76" d="M 191 3500 
L 800 3500 
L 1894 563 
L 2988 3500 
L 3597 3500 
L 2284 0 
L 1503 0 
L 191 3500 
z
" transform="scale(0.015625)"/>
       <path id="DejaVuSans-72" d="M 2631 2963 
Q 2534 3019 2420 3045 
Q 2306 3072 2169 3072 
Q 1681 3072 1420 2755 
Q 1159 2438 1159 1844 
L 1159 0 
L 581 0 
L 581 3500 
L 1159 3500 
L 1159 2956 
Q 1341 3275 1631 3429 
Q 1922 3584 2338 3584 
Q 2397 3584 2469 3576 
Q 2541 3569 2628 3553 
L 2631 2963 
z
" transform="scale(0.015625)"/>
       <path id="DejaVuSans-61" d="M 2194 1759 
Q 1497 1759 1228 1600 
Q 959 1441 959 1056 
Q 959 750 1161 570 
Q 1363 391 1709 391 
Q 2188 391 2477 730 
Q 2766 1069 2766 1631 
L 2766 1759 
L 2194 1759 
z
M 3341 1997 
L 3341 0 
L 2766 0 
L 2766 531 
Q 2569 213 2275 61 
Q 1981 -91 1556 -91 
Q 1019 -91 701 211 
Q 384 513 384 1019 
Q 384 1609 779 1909 
Q 1175 2209 1959 2209 
L 2766 2209 
L 2766 2266 
Q 2766 2663 2505 2880 
Q 2244 3097 1772 3097 
Q 1472 3097 1187 3025 
Q 903 2953 641 2809 
L 641 3341 
Q 956 3463 1253 3523 
Q 1550 3584 1831 3584 
Q 2591 3584 2966 3190 
Q 3341 2797 3341 1997 
z
" transform="scale(0.015625)"/>
       <path id="DejaVuSans-67" d="M 2906 1791 
Q 2906 2416 2648 2759 
Q 2391 3103 1925 3103 
Q 1463 3103 1205 2759 
Q 947 2416 947 1791 
Q 947 1169 1205 825 
Q 1463 481 1925 481 
Q 2391 481 2648 825 
Q 2906 1169 2906 1791 
z
M 3481 434 
Q 3481 -459 3084 -895 
Q 2688 -1331 1869 -1331 
Q 1566 -1331 1297 -1286 
Q 1028 -1241 775 -1147 
L 775 -588 
Q 1028 -725 1275 -790 
Q 1522 -856 1778 -856 
Q 2344 -856 2625 -561 
Q 2906 -266 2906 331 
L 2906 616 
Q 2728 306 2450 153 
Q 2172 0 1784 0 
Q 1141 0 747 490 
Q 353 981 353 1791 
Q 353 2603 747 3093 
Q 1141 3584 1784 3584 
Q 2172 3584 2450 3431 
Q 2728 3278 2906 2969 
L 2906 3500 
L 3481 3500 
L 3481 434 
z
" transform="scale(0.015625)"/>
       <path id="DejaVuSans-20" transform="scale(0.015625)"/>
       <path id="DejaVuSans-74" d="M 1172 4494 
L 1172 3500 
L 2356 3500 
L 2356 3053 
L 1172 3053 
L 1172 1153 
Q 1172 725 1289 603 
Q 1406 481 1766 481 
L 2356 481 
L 2356 0 
L 1766 0 
Q 1100 0 847 248 
Q 594 497 594 1153 
L 594 3053 
L 172 3053 
L 172 3500 
L 594 3500 
L 594 4494 
L 1172 4494 
z
" transform="scale(0.015625)"/>
       <path id="DejaVuSans-69" d="M 603 3500 
L 1178 3500 
L 1178 0 
L 603 0 
L 603 3500 
z
M 603 4863 
L 1178 4863 
L 1178 4134 
L 603 4134 
L 603 4863 
z
" transform="scale(0.015625)"/>
       <path id="DejaVuSans-6d" d="M 3328 2828 
Q 3544 3216 3844 3400 
Q 4144 3584 4550 3584 
Q 5097 3584 5394 3201 
Q 5691 2819 5691 2113 
L 5691 0 
L 5113 0 
L 5113 2094 
Q 5113 2597 4934 2840 
Q 4756 3084 4391 3084 
Q 3944 3084 3684 2787 
Q 3425 2491 3425 1978 
L 3425 0 
L 2847 0 
L 2847 2094 
Q 2847 2600 2669 2842 
Q 2491 3084 2119 3084 
Q 1678 3084 1418 2786 
Q 1159 2488 1159 1978 
L 1159 0 
L 581 0 
L 581 3500 
L 1159 3500 
L 1159 2956 
Q 1356 3278 1631 3431 
Q 1906 3584 2284 3584 
Q 2666 3584 2933 3390 
Q 3200 3197 3328 2828 
z
" transform="scale(0.015625)"/>
       <path id="DejaVuSans-28" d="M 1984 4856 
Q 1566 4138 1362 3434 
Q 1159 2731 1159 2009 
Q 1159 1288 1364 580 
Q 1569 -128 1984 -844 
L 1484 -844 
Q 1016 -109 783 600 
Q 550 1309 550 2009 
Q 550 2706 781 3412 
Q 1013 4119 1484 4856 
L 1984 4856 
z
" transform="scale(0.015625)"/>
       <path id="DejaVuSans-73" d="M 2834 3397 
L 2834 2853 
Q 2591 2978 2328 3040 
Q 2066 3103 1784 3103 
Q 1356 3103 1142 2972 
Q 928 2841 928 2578 
Q 928 2378 1081 2264 
Q 1234 2150 1697 2047 
L 1894 2003 
Q 2506 1872 2764 1633 
Q 3022 1394 3022 966 
Q 3022 478 2636 193 
Q 2250 -91 1575 -91 
Q 1294 -91 989 -36 
Q 684 19 347 128 
L 347 722 
Q 666 556 975 473 
Q 1284 391 1588 391 
Q 1994 391 2212 530 
Q 2431 669 2431 922 
Q 2431 1156 2273 1281 
Q 2116 1406 1581 1522 
L 1381 1569 
Q 847 1681 609 1914 
Q 372 2147 372 2553 
Q 372 3047 722 3315 
Q 1072 3584 1716 3584 
Q 2034 3584 2315 3537 
Q 2597 3491 2834 3397 
z
" transform="scale(0.015625)"/>
       <path id="DejaVuSans-29" d="M 513 4856 
L 1013 4856 
Q 1481 4119 1714 3412 
Q 1947 2706 1947 2009 
Q 1947 1309 1714 600 
Q 1481 -109 1013 -844 
L 513 -844 
Q 928 -128 1133 580 
Q 1338 1288 1338 2009 
Q 1338 2731 1133 3434 
Q 928 4138 513 4856 
z
" transform="scale(0.015625)"/>
      </defs>
      <use xlink:href="#DejaVuSans-41"/>
      <use xlink:href="#DejaVuSans-76" transform="translate(62.533203 0)"/>
      <use xlink:href="#DejaVuSans-65" transform="translate(121.712891 0)"/>
      <use xlink:href="#DejaVuSans-72" transform="translate(183.236328 0)"/>
      <use xlink:href="#DejaVuSans-61" transform="translate(224.349609 0)"/>
      <use xlink:href="#DejaVuSans-67" transform="translate(285.628906 0)"/>
      <use xlink:href="#DejaVuSans-65" transform="translate(349.105469 0)"/>
      <use xlink:href="#DejaVuSans-20" transform="translate(410.628906 0)"/>
      <use xlink:href="#DejaVuSans-74" transform="translate(442.416016 0)"/>
      <use xlink:href="#DejaVuSans-69" transform="translate(481.625 0)"/>
      <use xlink:href="#DejaVuSans-6d" transform="translate(509.408203 0)"/>
      <use xlink:href="#DejaVuSans-65" transform="translate(606.820312 0)"/>
      <use xlink:href="#DejaVuSans-20" transform="translate(668.34375 0)"/>
      <use xlink:href="#DejaVuSans-28" transform="translate(700.130859 0)"/>
      <use xlink:href="#DejaVuSans-6d" transform="translate(739.144531 0)"/>
      <use xlink:href="#DejaVuSans-73" transform="translate(836.556641 0)"/>
      <use xlink:href="#DejaVuSans-29" transform="translate(888.65625 0)"/>
     </g>
    </g>
   </g>
   <g id="line2d_16">
    <path d="M 115.363636 330.344385 
L 115.68902 347.055604 
L 116.014403 266.711421 
L 116.339787 297.809121 
L 116.66517 270.380685 
L 116.990553 290.439073 
L 117.315937 298.335338 
L 117.64132 324.597682 
L 117.966704 321.001391 
L 118.292087 328.911096 
L 118.61747 324.998307 
L 119.268237 335.366234 
L 119.593621 338.836933 
L 119.919004 331.772294 
L 120.244387 337.553936 
L 120.569771 328.630126 
L 120.895154 342.265091 
L 121.220538 67.663106 
L 121.545921 354.028 
L 121.871304 348.888074 
L 122.196688 356.861436 
L 122.522071 351.697982 
L 122.847455 356.837369 
L 123.172838 344.258763 
L 123.498221 347.63673 
L 123.823605 344.283625 
L 124.148988 352.286212 
L 124.799755 340.198289 
L 125.450522 353.516034 
L 125.775905 355.099694 
L 126.101289 360.558568 
L 126.426672 361.035129 
L 126.752056 351.182303 
L 127.077439 357.70579 
L 127.402822 354.762476 
L 127.728206 320.283573 
L 128.053589 351.293121 
L 128.378973 358.531025 
L 128.704356 349.463898 
L 129.029739 357.72964 
L 129.355123 346.629189 
L 129.680506 354.625195 
L 130.00589 348.882416 
L 130.331273 354.4098 
L 130.656656 346.762584 
L 130.98204 352.4165 
L 131.307423 348.314118 
L 131.632807 352.360807 
L 131.95819 347.440695 
L 132.283573 348.753172 
L 132.608957 316.921708 
L 132.93434 344.879219 
L 133.259724 348.386046 
L 133.585107 348.716377 
L 133.91049 336.037719 
L 134.235874 295.514236 
L 134.561257 340.682487 
L 134.886641 351.681802 
L 135.212024 344.967782 
L 135.537407 275.085041 
L 135.862791 345.790087 
L 136.188174 351.647309 
L 136.513558 338.336428 
L 136.838941 339.215093 
L 137.164324 348.670261 
L 137.489708 337.068093 
L 137.815091 345.087571 
L 138.140475 348.265051 
L 138.465858 346.100398 
L 138.791241 349.754333 
L 139.116625 343.822127 
L 139.442008 342.097179 
L 139.767392 342.161548 
L 140.092775 349.521452 
L 140.418158 348.609239 
L 140.743542 350.958304 
L 141.068925 383.361463 
L 141.394309 383.185486 
L 142.370459 383.075379 
L 142.695842 382.929423 
L 143.021226 324.841606 
L 143.346609 329.253427 
L 143.671993 330.837387 
L 143.997376 354.228394 
L 144.322759 352.57543 
L 144.648143 355.110432 
L 144.973526 352.972609 
L 145.29891 353.461959 
L 145.624293 384.008597 
L 145.949676 384.125218 
L 146.27506 383.705956 
L 146.600443 384.067525 
L 147.25121 383.91467 
L 147.576593 384.081414 
L 147.901977 356.816643 
L 148.22736 360.878573 
L 148.552744 361.15598 
L 148.878127 360.464258 
L 149.20351 361.78773 
L 149.528894 362.375164 
L 149.854277 361.278081 
L 150.179661 361.113788 
L 150.505044 362.294238 
L 150.830427 361.780448 
L 151.155811 360.816694 
L 151.481194 361.337114 
L 152.131961 338.143577 
L 152.457344 362.00955 
L 152.782728 350.107775 
L 153.108111 351.197132 
L 153.433495 346.269533 
L 153.758878 359.745418 
L 154.084261 361.075265 
L 154.409645 361.905273 
L 154.735028 360.988785 
L 155.060412 360.995611 
L 155.385795 357.72859 
L 156.036562 362.129222 
L 156.361945 361.142301 
L 156.687329 361.515381 
L 157.012712 357.712032 
L 157.338096 360.385933 
L 157.663479 360.343524 
L 157.988862 359.60005 
L 158.314246 361.842144 
L 158.639629 361.686077 
L 158.965013 362.684942 
L 159.290396 361.150422 
L 159.615779 361.488463 
L 159.941163 360.616051 
L 160.266546 360.314961 
L 160.59193 358.147463 
L 160.917313 361.788341 
L 161.242696 361.721971 
L 161.893463 337.340603 
L 162.218847 361.096391 
L 162.54423 350.40871 
L 162.869613 348.521653 
L 163.194997 360.983944 
L 163.52038 362.792097 
L 163.845764 361.815959 
L 164.171147 362.337597 
L 164.49653 361.186483 
L 164.821914 361.753208 
L 165.472681 360.6146 
L 165.798064 360.818806 
L 166.123447 359.738559 
L 166.448831 357.635491 
L 167.099598 359.549304 
L 167.424981 362.364737 
L 167.750364 361.379184 
L 168.075748 359.741627 
L 168.401131 359.362834 
L 168.726515 361.950416 
L 169.051898 360.142769 
L 169.377281 360.342023 
L 169.702665 360.965119 
L 170.028048 360.488869 
L 170.353432 359.621504 
L 170.678815 359.282069 
L 171.004198 359.555313 
L 171.654965 346.334802 
L 171.980349 361.271589 
L 172.305732 346.324175 
L 172.631116 346.369963 
L 172.956499 360.432615 
L 173.281882 359.168505 
L 173.607266 360.761735 
L 173.932649 358.057276 
L 174.258033 351.652906 
L 174.583416 350.499519 
L 174.908799 343.593009 
L 175.559566 337.108757 
L 175.88495 334.557341 
L 176.210333 334.364418 
L 176.535716 332.757653 
L 176.8611 332.612135 
L 177.186483 331.558122 
L 177.511867 333.52147 
L 177.83725 333.089585 
L 178.162633 330.320085 
L 178.488017 332.661892 
L 178.8134 333.103425 
L 179.138784 335.081941 
L 179.464167 333.872906 
L 179.78955 334.201464 
L 180.114934 333.478433 
L 180.440317 332.232892 
L 180.765701 329.818724 
L 181.091084 331.938805 
L 181.416467 329.752137 
L 181.741851 331.798179 
L 182.067234 333.059071 
L 182.392618 328.609639 
L 182.718001 331.444186 
L 183.043384 336.083474 
L 183.368768 336.943619 
L 183.694151 331.995387 
L 184.019535 330.912916 
L 184.344918 330.479087 
L 184.670301 331.41077 
L 184.995685 331.617311 
L 185.321068 329.069525 
L 185.646452 330.576688 
L 185.971835 325.508823 
L 186.622602 326.288386 
L 186.947985 329.850955 
L 187.273369 329.521519 
L 187.598752 325.595835 
L 187.924136 328.550644 
L 188.249519 328.756713 
L 188.574902 327.618822 
L 188.900286 328.17592 
L 189.225669 327.145357 
L 189.551053 328.592625 
L 190.201819 327.180201 
L 190.527203 325.747806 
L 190.852586 329.462313 
L 191.17797 327.425843 
L 191.503353 324.569674 
L 191.828736 326.768648 
L 192.15412 322.293687 
L 192.479503 322.743952 
L 192.804887 322.762355 
L 193.13027 323.24966 
L 193.455653 321.732476 
L 193.781037 321.407708 
L 194.10642 322.935508 
L 194.431804 321.250924 
L 195.08257 319.287737 
L 195.407954 319.942876 
L 195.733337 321.047379 
L 196.058721 323.179466 
L 196.384104 321.75348 
L 196.709487 322.737799 
L 197.034871 321.039153 
L 197.360254 326.550808 
L 197.685638 323.348356 
L 198.011021 323.935657 
L 198.336404 325.570663 
L 198.661788 323.413625 
L 198.987171 319.477648 
L 199.312555 335.118474 
L 199.637938 321.240141 
L 199.963321 327.452794 
L 200.288705 348.286844 
L 200.614088 335.677957 
L 200.939472 350.927963 
L 201.264855 350.569835 
L 201.590238 349.627557 
L 201.915622 347.946297 
L 202.241005 348.851173 
L 202.566389 351.779114 
L 202.891772 351.467669 
L 203.217156 350.895286 
L 203.542539 349.337878 
L 203.867922 355.970738 
L 204.193306 355.471561 
L 204.518689 354.460907 
L 204.844073 354.09039 
L 205.169456 354.556068 
L 205.494839 354.200214 
L 205.820223 354.31305 
L 206.145606 352.296516 
L 206.47099 352.532087 
L 207.121756 354.453226 
L 207.44714 353.179889 
L 207.772523 353.495536 
L 208.097907 340.820329 
L 208.42329 357.186676 
L 208.748673 357.010589 
L 209.074057 358.138853 
L 209.39944 358.006569 
L 210.050207 355.465831 
L 210.37559 359.443938 
L 211.026357 358.848261 
L 211.351741 358.73398 
L 212.002507 357.446347 
L 212.327891 357.966773 
L 212.653274 357.076408 
L 212.978658 356.54341 
L 213.304041 357.398053 
L 213.954808 353.689081 
L 214.280191 352.844288 
L 214.605575 354.706366 
L 214.930958 352.878304 
L 215.256341 354.903508 
L 215.581725 355.68172 
L 215.907108 360.120031 
L 216.232492 357.999338 
L 216.557875 359.080636 
L 216.883258 362.913887 
L 217.208642 362.705396 
L 217.534025 362.675593 
L 217.859409 362.897985 
L 218.510176 361.521873 
L 218.835559 360.971822 
L 219.160942 360.117369 
L 219.486326 360.117091 
L 219.811709 360.547169 
L 220.137093 360.320736 
L 220.462476 360.242705 
L 220.787859 358.461398 
L 221.438626 359.46571 
L 221.76401 355.67315 
L 222.089393 360.155714 
L 222.414776 359.412024 
L 222.74016 359.697879 
L 223.390927 357.565286 
L 223.71631 357.125637 
L 224.041693 357.60665 
L 224.367077 356.857512 
L 224.69246 363.291068 
L 225.017844 362.660536 
L 225.343227 363.007698 
L 225.66861 332.304464 
L 225.993994 361.550836 
L 226.319377 348.726165 
L 226.644761 347.826902 
L 226.970144 358.997108 
L 227.295527 359.764743 
L 227.620911 343.661713 
L 227.946294 359.009936 
L 228.271678 359.388946 
L 228.922444 357.463633 
L 229.247828 358.802351 
L 229.573211 358.343765 
L 229.898595 359.043396 
L 230.223978 358.555619 
L 230.549361 359.805762 
L 230.874745 357.803625 
L 231.525512 355.37251 
L 231.850895 357.321789 
L 232.176279 356.550747 
L 232.501662 361.232127 
L 232.827045 362.424198 
L 233.477812 362.103994 
L 233.803196 361.185316 
L 234.128579 359.878858 
L 234.453962 359.710991 
L 234.779346 358.971196 
L 235.430113 359.523398 
L 235.755496 358.937897 
L 236.080879 359.31898 
L 236.406263 358.053347 
L 236.731646 357.993441 
L 237.05703 357.635986 
L 237.382413 356.51617 
L 237.707796 358.30109 
L 238.03318 358.44394 
L 238.358563 357.743647 
L 238.683947 358.436436 
L 239.00933 356.63373 
L 239.334713 355.974073 
L 239.660097 356.397387 
L 239.98548 355.742404 
L 240.310864 361.53315 
L 240.636247 361.452229 
L 240.96163 361.144508 
L 241.287014 361.436327 
L 241.612397 361.92441 
L 241.937781 361.376977 
L 242.263164 359.810437 
L 242.588547 360.182571 
L 242.913931 360.225413 
L 243.239314 359.859576 
L 243.890081 359.86006 
L 244.215464 358.470341 
L 244.540848 358.294692 
L 244.866231 358.377142 
L 245.191615 358.289151 
L 245.516998 359.746513 
L 246.167765 358.039646 
L 246.493148 358.669945 
L 246.818532 356.939878 
L 247.143915 356.991758 
L 247.469299 357.243225 
L 247.794682 356.544967 
L 248.120065 362.88414 
L 248.445449 363.001317 
L 248.770832 362.037129 
L 249.096216 362.140133 
L 249.421599 360.59732 
L 249.746982 361.258478 
L 250.723133 360.133187 
L 251.048516 360.219911 
L 251.373899 359.663307 
L 251.699283 359.40751 
L 252.024666 358.810616 
L 252.35005 336.018871 
L 252.675433 359.098878 
L 253.000816 345.751503 
L 253.3262 347.784688 
L 253.651583 358.483069 
L 253.976967 358.687008 
L 254.30235 359.508896 
L 254.627733 357.566859 
L 254.953117 358.155344 
L 255.2785 357.300218 
L 255.603884 355.840728 
L 255.929267 356.724728 
L 256.25465 356.843606 
L 256.580034 356.074192 
L 256.905417 354.950535 
L 257.230801 363.155227 
L 257.556184 363.255663 
L 258.532334 361.98959 
L 258.857718 360.937211 
L 259.183101 362.099491 
L 259.508484 361.026909 
L 259.833868 361.226785 
L 260.484635 360.595208 
L 260.810018 359.6597 
L 261.135401 359.574255 
L 261.460785 343.849623 
L 261.786168 358.154677 
L 262.111552 358.483586 
L 262.436935 358.258787 
L 262.762319 359.559865 
L 263.413085 358.658262 
L 263.738469 355.457038 
L 264.063852 356.865566 
L 264.389236 356.971237 
L 264.714619 356.662227 
L 265.040002 355.742915 
L 265.690769 356.238813 
L 266.016153 356.294567 
L 266.341536 362.52041 
L 266.992303 362.535695 
L 267.317686 361.428212 
L 267.64307 361.921069 
L 267.968453 361.170876 
L 268.293836 361.011352 
L 268.61922 360.541955 
L 268.944603 348.870733 
L 269.269987 361.261412 
L 269.59537 360.071675 
L 269.920753 360.800081 
L 270.246137 358.691877 
L 270.57152 359.078579 
L 270.896904 358.984591 
L 271.222287 359.583153 
L 271.54767 359.681193 
L 271.873054 359.308898 
L 272.198437 359.219251 
L 272.523821 359.24598 
L 272.849204 358.069315 
L 273.174587 357.536211 
L 273.499971 358.033298 
L 273.825354 356.520116 
L 274.150738 357.340509 
L 274.476121 356.653067 
L 274.801504 356.751335 
L 275.126888 356.277431 
L 275.452271 363.531013 
L 275.777655 362.748788 
L 276.103038 362.854182 
L 276.428421 362.724004 
L 276.753805 362.436871 
L 277.404572 359.899362 
L 277.729955 359.065629 
L 278.055339 360.412723 
L 278.380722 360.610215 
L 278.706105 360.135638 
L 279.031489 360.032429 
L 279.356872 345.80391 
L 279.682256 342.917778 
L 280.007639 342.747826 
L 280.333022 357.236577 
L 280.658406 358.33799 
L 280.983789 357.689527 
L 281.309173 352.133602 
L 281.634556 350.799942 
L 282.285323 330.558529 
L 282.610706 327.422908 
L 283.261473 326.617633 
L 283.586856 321.864254 
L 283.91224 321.560279 
L 284.237623 321.43701 
L 284.563007 329.747679 
L 284.88839 329.324488 
L 285.539157 327.728545 
L 286.189924 328.643099 
L 286.515307 326.726 
L 286.84069 326.873291 
L 287.166074 326.506737 
L 287.491457 324.884399 
L 287.816841 325.978636 
L 288.142224 324.13341 
L 288.467607 323.02983 
L 288.792991 323.449464 
L 289.118374 324.05977 
L 289.443758 324.962863 
L 289.769141 324.978153 
L 290.094524 325.435055 
L 290.419908 322.125086 
L 290.745291 321.311196 
L 291.070675 318.634739 
L 291.396058 314.481555 
L 291.721441 317.969374 
L 292.046825 316.73177 
L 292.372208 317.583333 
L 292.697592 315.069168 
L 293.022975 316.603654 
L 293.673742 312.237088 
L 293.999125 312.831037 
L 294.324509 314.705888 
L 294.649892 313.079219 
L 294.975276 312.389209 
L 295.300659 298.697173 
L 295.626042 320.643708 
L 296.276809 334.866018 
L 296.602193 334.133994 
L 296.927576 336.921614 
L 297.252959 341.181519 
L 297.578343 340.129063 
L 297.903726 340.546924 
L 298.22911 345.094208 
L 298.554493 344.95158 
L 298.879876 354.510753 
L 299.530643 353.930638 
L 299.856027 353.959257 
L 300.18141 351.714957 
L 300.506793 351.256516 
L 300.832177 353.418517 
L 301.15756 352.161843 
L 302.13371 355.972194 
L 302.459094 354.81829 
L 302.784477 354.724319 
L 303.109861 353.759625 
L 303.435244 354.827917 
L 303.760627 353.912741 
L 304.086011 355.959839 
L 304.736778 354.040756 
L 305.062161 354.738648 
L 305.387544 352.654094 
L 305.712928 352.13583 
L 306.038311 352.229541 
L 306.689078 351.288769 
L 307.014461 349.86489 
L 307.339845 351.467458 
L 307.665228 350.496384 
L 307.990612 352.217207 
L 308.315995 349.477154 
L 308.641379 350.175162 
L 308.966762 355.612505 
L 309.292145 354.130798 
L 309.617529 354.091986 
L 309.942912 347.381839 
L 310.268296 348.678632 
L 310.593679 350.911221 
L 310.919062 335.995094 
L 311.244446 346.357401 
L 311.569829 351.754019 
L 311.895213 346.916784 
L 312.871363 353.800917 
L 313.196746 361.762824 
L 313.52213 361.734699 
L 313.847513 361.425417 
L 314.172896 361.408642 
L 314.49828 360.512036 
L 314.823663 360.993782 
L 315.149047 360.292211 
L 315.47443 359.206461 
L 315.799813 359.739382 
L 316.125197 358.872206 
L 316.45058 359.254984 
L 316.775964 359.012532 
L 317.101347 357.921607 
L 317.42673 358.077363 
L 317.752114 357.104288 
L 318.402881 358.392794 
L 318.728264 358.582048 
L 319.053647 357.342782 
L 319.379031 357.846239 
L 319.704414 357.501089 
L 320.029798 354.786704 
L 320.355181 354.611355 
L 320.680564 356.186172 
L 321.005948 354.1947 
L 321.331331 353.546999 
L 321.656715 354.119548 
L 321.982098 355.6632 
L 322.307481 351.790981 
L 322.632865 354.136784 
L 322.958248 353.317603 
L 323.283632 355.058441 
L 323.609015 353.905671 
L 323.934399 354.304045 
L 324.259782 329.53702 
L 324.585165 345.716097 
L 325.235932 350.008012 
L 325.561316 347.353887 
L 325.886699 349.504094 
L 326.212082 339.503827 
L 326.862849 354.176714 
L 327.188233 352.988333 
L 327.513616 362.384407 
L 327.838999 362.206308 
L 328.164383 359.722774 
L 328.81515 360.65712 
L 329.140533 360.519106 
L 329.465916 360.861832 
L 329.7913 360.292661 
L 330.116683 357.871829 
L 330.442067 360.053089 
L 330.76745 360.044768 
L 331.092833 359.877629 
L 331.418217 358.147051 
L 331.7436 359.094137 
L 332.068984 358.10621 
L 332.394367 359.209752 
L 332.71975 359.189848 
L 333.045134 358.012894 
L 333.695901 359.038778 
L 334.021284 357.37174 
L 334.346667 357.635091 
L 334.672051 357.073374 
L 334.997434 355.642919 
L 335.322818 355.533362 
L 335.648201 356.717708 
L 335.973584 355.603161 
L 336.298968 355.640407 
L 336.624351 356.57891 
L 336.949735 355.113934 
L 337.275118 354.17931 
L 337.600501 354.729844 
L 337.925885 354.795446 
L 338.251268 354.007513 
L 338.576652 341.875109 
L 338.902035 348.13165 
L 339.227419 348.206796 
L 339.552802 349.831485 
L 339.878185 348.077019 
L 340.203569 352.124042 
L 340.528952 350.130508 
L 340.854336 351.317483 
L 341.179719 354.717221 
L 341.505102 354.155682 
L 341.830486 362.773205 
L 342.155869 350.62381 
L 342.481253 361.907886 
L 342.806636 362.467596 
L 343.132019 361.382296 
L 343.457403 361.463395 
L 343.782786 361.392134 
L 344.10817 359.803311 
L 344.433553 360.403997 
L 344.758936 360.454854 
L 345.08432 360.086232 
L 345.409703 360.047041 
L 345.735087 358.405077 
L 346.06047 359.613823 
L 346.385853 358.421312 
L 347.03662 359.552717 
L 347.362004 359.395849 
L 347.687387 358.500399 
L 348.01277 359.225987 
L 348.338154 358.166794 
L 348.663537 357.652165 
L 348.988921 357.351008 
L 349.314304 356.657619 
L 349.639687 358.166972 
L 349.965071 356.165001 
L 350.290454 355.488275 
L 350.615838 356.610036 
L 351.266604 353.546054 
L 351.591988 354.689558 
L 351.917371 356.348247 
L 352.242755 353.910223 
L 352.568138 353.894288 
L 352.893521 355.245156 
L 353.218905 353.334455 
L 353.544288 362.252174 
L 353.869672 350.682726 
L 354.195055 363.088463 
L 354.520439 361.558345 
L 354.845822 362.025212 
L 355.496589 359.485091 
L 355.821972 360.221573 
L 356.147356 360.06983 
L 356.472739 359.539789 
L 356.798122 360.608364 
L 357.123506 360.193232 
L 357.448889 359.064017 
L 357.774273 358.409029 
L 358.099656 358.614641 
L 358.425039 357.871028 
L 358.750423 359.812716 
L 359.075806 358.977527 
L 359.40119 359.424063 
L 359.726573 358.807876 
L 360.051956 357.523478 
L 360.37734 357.170096 
L 360.702723 356.478986 
L 361.028107 354.692387 
L 361.35349 355.817055 
L 361.678873 357.908785 
L 362.004257 356.168386 
L 362.32964 355.827105 
L 362.655024 355.797919 
L 362.980407 355.566583 
L 363.30579 354.978198 
L 363.631174 355.765198 
L 363.956557 355.826843 
L 364.607324 353.792568 
L 364.932707 354.57849 
L 365.258091 362.552486 
L 365.583474 363.132923 
L 365.908858 361.442775 
L 366.234241 361.513252 
L 366.559624 360.347187 
L 366.885008 360.886505 
L 367.210391 359.361595 
L 367.535775 360.928135 
L 367.861158 359.487214 
L 368.186541 359.453198 
L 368.511925 358.149619 
L 368.837308 358.486109 
L 369.488075 357.293926 
L 369.813459 357.338558 
L 370.138842 358.216378 
L 370.464225 357.872874 
L 370.789609 358.273794 
L 371.114992 344.150335 
L 371.440376 356.149877 
L 371.765759 356.002186 
L 372.091142 343.258764 
L 372.416526 354.681271 
L 372.741909 355.897921 
L 373.067293 354.334215 
L 373.392676 354.983534 
L 373.718059 353.175998 
L 374.368826 353.03182 
L 374.69421 339.408533 
L 375.019593 351.601999 
L 375.344976 352.211088 
L 375.67036 351.001864 
L 375.995743 352.00054 
L 376.321127 352.335184 
L 376.64651 350.625872 
L 376.971893 361.05386 
L 377.297277 361.841633 
L 377.62266 361.505693 
L 377.948044 349.264705 
L 378.273427 358.665982 
L 378.59881 359.718444 
L 379.249577 358.059644 
L 379.574961 359.328485 
L 379.900344 358.102708 
L 380.225727 359.953881 
L 380.551111 357.144863 
L 380.876494 356.682809 
L 381.201878 345.351033 
L 381.527261 356.494538 
L 382.178028 358.585161 
L 382.503411 358.312767 
L 382.828795 356.508722 
L 383.154178 357.605688 
L 383.804945 355.47827 
L 384.130328 355.987846 
L 384.455712 356.014297 
L 384.781095 354.739693 
L 385.106479 354.500009 
L 385.431862 353.665798 
L 385.757245 354.369893 
L 386.082629 354.597743 
L 386.408012 354.680398 
L 386.733396 352.994741 
L 387.058779 354.121894 
L 387.384162 353.855992 
L 387.709546 352.106422 
L 388.034929 341.123376 
L 388.360313 353.87688 
L 388.685696 361.841744 
L 389.011079 362.275512 
L 389.661846 360.829206 
L 389.98723 359.812871 
L 390.312613 360.510541 
L 390.637996 360.374989 
L 390.96338 360.60937 
L 391.288763 359.125257 
L 391.614147 358.436714 
L 391.93953 358.921378 
L 392.264913 357.022367 
L 392.590297 358.05846 
L 392.91568 357.555548 
L 393.241064 356.601087 
L 393.89183 359.1231 
L 394.217214 358.995085 
L 394.542597 357.76081 
L 394.867981 357.865815 
L 395.193364 355.813765 
L 395.518747 356.899237 
L 395.844131 355.643747 
L 396.169514 357.154912 
L 396.494898 357.503313 
L 396.820281 357.265474 
L 397.145664 355.826388 
L 397.796431 356.200234 
L 398.121815 354.745579 
L 398.447198 355.449201 
L 398.772581 355.630396 
L 399.097965 383.793164 
L 399.748732 383.867654 
L 400.074115 383.916565 
L 400.399499 362.632345 
L 400.724882 362.510633 
L 401.050265 363.238144 
L 401.375649 362.352204 
L 401.701032 361.964256 
L 402.026416 360.691297 
L 402.677182 361.115344 
L 403.002566 361.031911 
L 403.327949 358.50285 
L 403.653333 359.972184 
L 403.978716 359.7674 
L 404.304099 357.936342 
L 404.629483 358.534093 
L 405.28025 358.541096 
L 405.605633 358.988526 
L 405.931016 347.54715 
L 406.2564 358.10865 
L 406.581783 359.212581 
L 406.907167 357.713338 
L 407.23255 357.517319 
L 407.557933 344.477676 
L 407.883317 357.203834 
L 408.2087 356.457848 
L 408.534084 357.212227 
L 409.18485 355.153057 
L 409.510234 356.472138 
L 409.835617 356.294228 
L 410.161001 344.149979 
L 410.486384 354.171584 
L 410.811767 383.77655 
L 411.137151 383.876814 
L 411.787918 383.905883 
L 412.113301 363.302401 
L 412.438684 362.728846 
L 413.414835 361.864371 
L 413.740218 362.392183 
L 414.065601 350.270996 
L 414.390985 361.471955 
L 414.716368 360.150034 
L 415.041752 360.294607 
L 415.367135 361.052026 
L 415.692519 360.143992 
L 416.017902 359.662913 
L 416.343285 360.308452 
L 416.668669 346.802514 
L 416.994052 358.48851 
L 417.319436 360.401996 
L 417.644819 358.72746 
L 417.970202 358.653821 
L 418.620969 357.336774 
L 418.946353 358.173069 
L 419.271736 357.891321 
L 419.597119 356.999117 
L 419.922503 357.188272 
L 420.247886 355.681248 
L 420.57327 356.644835 
L 420.898653 357.153683 
L 421.224036 355.981015 
L 421.54942 356.303282 
L 422.200187 355.668981 
L 422.52557 383.824523 
L 422.850953 383.896717 
L 423.50172 383.873156 
L 423.827104 363.439282 
L 424.152487 363.26494 
L 424.47787 361.877822 
L 424.803254 362.418857 
L 425.128637 362.459937 
L 425.454021 362.317193 
L 425.779404 360.729754 
L 426.104787 361.514036 
L 426.430171 361.422982 
L 426.755554 360.908031 
L 427.080938 360.998618 
L 427.731704 358.806936 
L 428.057088 359.233257 
L 428.707855 359.373539 
L 429.033238 360.131308 
L 429.358621 358.981529 
L 429.684005 359.115024 
L 430.009388 359.574533 
L 430.660155 357.659224 
L 430.985539 357.719185 
L 431.310922 357.636975 
L 431.636305 358.195374 
L 431.961689 356.31691 
L 432.287072 356.296946 
L 432.612456 356.622208 
L 432.937839 355.80465 
L 433.263222 356.697187 
L 433.588606 356.444909 
L 433.913989 356.796311 
L 434.239373 383.83764 
L 434.890139 383.878703 
L 435.215523 383.918011 
L 435.540906 363.144094 
L 435.86629 363.642777 
L 436.191673 363.572966 
L 436.84244 362.035134 
L 437.167823 362.053064 
L 437.493207 361.361842 
L 437.81859 361.622964 
L 438.143973 360.843251 
L 438.469357 359.73872 
L 438.79474 360.395148 
L 439.120124 359.974902 
L 439.445507 359.865301 
L 439.77089 359.899917 
L 440.096274 360.360243 
L 440.421657 359.841168 
L 441.072424 360.36519 
L 441.397807 359.875684 
L 441.723191 359.648567 
L 442.373958 358.050345 
L 442.699341 358.073923 
L 443.024724 357.310656 
L 443.350108 355.585587 
L 443.675491 356.56397 
L 444.000875 356.815298 
L 444.326258 356.304783 
L 444.651641 356.973655 
L 444.977025 356.655474 
L 445.302408 355.864733 
L 445.627792 343.324106 
L 445.953175 355.22598 
L 446.278559 355.140835 
L 446.603942 354.851628 
L 446.929325 355.669592 
L 447.254709 363.647684 
L 447.905476 363.087301 
L 448.556242 362.041681 
L 448.881626 349.435985 
L 449.207009 361.500307 
L 449.532393 360.320669 
L 450.183159 359.244773 
L 450.508543 359.427008 
L 450.833926 359.851111 
L 451.15931 358.188637 
L 451.484693 358.727299 
L 451.810076 346.512813 
L 452.13546 358.40102 
L 452.460843 359.849499 
L 452.786227 359.284725 
L 453.11161 358.490072 
L 453.436993 359.55937 
L 453.762377 357.18821 
L 454.08776 357.072818 
L 454.413144 357.591359 
L 454.738527 357.585734 
L 455.06391 356.216569 
L 455.389294 355.401017 
L 456.040061 357.044866 
L 456.365444 356.030638 
L 456.690827 353.972641 
L 457.016211 354.489849 
L 457.341594 354.355175 
L 457.666978 353.599962 
L 457.992361 354.320592 
L 458.317744 353.373084 
L 458.643128 353.610134 
L 458.968511 361.956391 
L 459.293895 362.529297 
L 459.619278 362.355839 
L 459.944661 361.364077 
L 460.270045 361.38208 
L 460.595428 360.575065 
L 460.920812 361.582562 
L 461.246195 360.343969 
L 461.896962 359.026822 
L 462.222345 358.779479 
L 462.547729 358.215861 
L 462.873112 358.248554 
L 463.198496 357.59191 
L 463.523879 358.267407 
L 464.174646 358.848239 
L 464.500029 358.358216 
L 464.825413 358.689393 
L 465.476179 356.726657 
L 465.801563 355.895247 
L 466.126946 355.832335 
L 466.45233 356.809695 
L 467.103096 354.741138 
L 467.42848 354.855302 
L 467.753863 355.731399 
L 468.079247 354.424646 
L 468.40463 354.899539 
L 468.730013 354.594614 
L 469.055397 354.976642 
L 469.38078 354.086383 
L 469.706164 352.534288 
L 470.031547 353.958929 
L 470.35693 353.232224 
L 470.682314 361.948232 
L 471.007697 361.905173 
L 471.333081 362.216935 
L 471.658464 361.193698 
L 471.983847 359.706377 
L 472.309231 360.840478 
L 472.634614 360.012475 
L 472.959998 360.065711 
L 473.285381 359.018479 
L 473.610764 359.183395 
L 473.936148 360.190658 
L 474.586915 357.834628 
L 474.912298 357.313213 
L 475.237681 358.111774 
L 475.563065 357.756597 
L 476.213832 359.272064 
L 476.539215 358.786749 
L 476.864599 357.611546 
L 477.189982 344.229194 
L 477.515365 357.109841 
L 477.840749 356.335241 
L 478.166132 356.531777 
L 478.491516 355.409571 
L 478.816899 355.864628 
L 479.142282 356.051287 
L 479.467666 355.508401 
L 479.793049 343.675392 
L 480.118433 355.460823 
L 480.443816 355.751619 
L 480.769199 353.462404 
L 481.094583 355.209473 
L 481.419966 354.963469 
L 481.74535 351.825508 
L 482.070733 349.927286 
L 482.396116 359.264321 
L 482.7215 362.212483 
L 483.046883 362.782654 
L 483.372267 362.143684 
L 483.69765 348.358422 
L 484.023033 360.710584 
L 484.999184 344.374278 
L 485.324567 343.663586 
L 485.64995 343.643627 
L 485.975334 343.870238 
L 486.300717 342.855199 
L 487.276867 350.817856 
L 487.602251 347.73556 
L 487.927634 350.841739 
L 488.253018 350.515976 
L 488.578401 343.241212 
L 489.229168 341.498867 
L 489.879935 333.504056 
L 490.205318 332.518959 
L 490.856085 339.380731 
L 491.181468 336.531966 
L 491.506852 334.77766 
L 491.832235 336.52957 
L 492.157619 332.69593 
L 492.483002 331.281749 
L 492.808385 326.327354 
L 493.133769 326.670197 
L 493.459152 327.205546 
L 493.784536 326.288047 
L 494.109919 338.62648 
L 494.435302 336.689261 
L 494.760686 337.003469 
L 495.086069 336.60027 
L 495.411453 337.188038 
L 495.736836 340.042278 
L 496.062219 338.856815 
L 496.387603 338.589524 
L 496.712986 337.930862 
L 497.03837 341.544427 
L 497.363753 338.889386 
L 498.01452 336.869467 
L 498.339903 344.24439 
L 498.665287 343.224843 
L 498.99067 348.174836 
L 499.316053 349.475414 
L 499.641437 349.741421 
L 500.292204 348.659229 
L 500.617587 347.00104 
L 500.94297 341.574591 
L 501.268354 342.496437 
L 501.593737 344.624628 
L 501.919121 344.920266 
L 502.244504 344.133005 
L 502.569887 343.786393 
L 502.895271 344.804278 
L 503.220654 344.983023 
L 503.546038 347.773538 
L 503.871421 348.294692 
L 504.196804 346.886787 
L 504.522188 347.304715 
L 504.847571 348.083649 
L 505.498338 347.396585 
L 505.823721 356.521017 
L 506.149105 359.939825 
L 506.474488 359.386851 
L 506.799872 359.159417 
L 507.450639 357.693929 
L 507.776022 358.47178 
L 508.101405 358.179428 
L 508.426789 357.543554 
L 508.752172 356.386604 
L 509.077556 356.940923 
L 509.402939 356.868906 
L 509.728322 355.377734 
L 510.053706 355.39512 
L 510.379089 355.905063 
L 510.704473 339.828995 
L 511.029856 356.396053 
L 511.355239 354.575483 
L 511.680623 355.327583 
L 512.006006 357.944307 
L 512.33139 358.23905 
L 512.656773 357.207386 
L 512.982156 358.067859 
L 513.30754 357.024362 
L 513.632923 352.955156 
L 513.958307 339.912429 
L 514.28369 351.73401 
L 514.934457 348.956111 
L 515.25984 348.268269 
L 515.585224 349.382215 
L 516.23599 347.088253 
L 516.561374 351.489602 
L 516.886757 351.253225 
L 517.212141 349.45068 
L 517.537524 359.385834 
L 517.862907 357.840019 
L 518.513674 356.440407 
L 518.839058 356.237301 
L 519.164441 356.411438 
L 519.489824 356.286646 
L 519.815208 354.132065 
L 520.140591 353.033037 
L 520.465975 353.530391 
L 520.791358 352.867827 
L 521.116742 351.700044 
L 521.442125 351.482271 
L 522.092892 351.627627 
L 522.418275 351.145614 
L 522.743659 352.350592 
L 523.069042 352.092955 
L 523.394425 351.579716 
L 523.719809 351.681552 
L 524.045192 350.039026 
L 524.370576 350.06764 
L 524.695959 350.214836 
L 525.021342 349.054663 
L 525.346726 353.183268 
L 525.672109 352.918856 
L 525.997493 332.146274 
L 526.322876 352.874513 
L 526.648259 352.361758 
L 526.973643 352.315119 
L 527.299026 352.019938 
L 527.62441 351.894635 
L 527.949793 351.175139 
L 528.275176 351.861508 
L 528.60056 355.875349 
L 528.925943 356.31611 
L 529.251327 351.801536 
L 529.57671 363.890181 
L 529.902093 363.410619 
L 530.227477 362.489895 
L 530.878244 362.187027 
L 531.203627 361.847457 
L 531.52901 361.841744 
L 531.854394 360.161945 
L 532.179777 361.14279 
L 532.505161 360.122299 
L 532.830544 357.215934 
L 533.155927 359.638223 
L 533.481311 359.721112 
L 533.806694 359.482651 
L 534.132078 359.105636 
L 534.457461 360.192687 
L 534.782844 359.154215 
L 535.108228 359.499214 
L 535.433611 358.938503 
L 535.758995 357.636436 
L 536.084378 357.898124 
L 536.409762 357.909946 
L 536.735145 358.220991 
L 537.385912 356.575742 
L 537.711295 357.10067 
L 538.036679 357.106167 
L 538.687445 356.129368 
L 539.012829 356.460349 
L 539.663596 355.04578 
L 539.988979 355.725841 
L 540.314362 355.094641 
L 540.639746 355.761846 
L 540.965129 362.936387 
L 541.290513 363.426115 
L 541.615896 362.919773 
L 541.941279 362.663248 
L 542.592046 361.698116 
L 542.91743 362.107195 
L 543.568196 361.032022 
L 543.89358 361.063693 
L 544.218963 360.292823 
L 544.544347 360.226747 
L 544.86973 359.474036 
L 545.195113 360.114462 
L 545.520497 359.541684 
L 545.84588 359.195178 
L 546.171264 359.704043 
L 546.496647 359.682144 
L 546.82203 359.057281 
L 547.147414 359.598833 
L 547.472797 358.154121 
L 547.798181 358.39624 
L 548.123564 357.761866 
L 548.448947 357.890665 
L 548.774331 357.130406 
L 549.099714 357.622035 
L 549.425098 356.935976 
L 549.750481 357.139793 
L 550.075864 356.074731 
L 550.401248 356.57413 
L 550.726631 355.694887 
L 551.052015 356.159493 
L 551.377398 355.215247 
L 551.702782 355.786097 
L 552.028165 355.560697 
L 552.353548 355.718209 
L 552.678932 363.702699 
L 553.004315 363.315741 
L 553.329699 362.412076 
L 553.655082 363.069349 
L 553.980465 362.31791 
L 554.305849 361.86247 
L 554.631232 361.848797 
L 554.956616 361.584113 
L 555.281999 360.937189 
L 555.607382 360.986045 
L 555.932766 360.559341 
L 556.258149 350.029472 
L 556.583533 359.624228 
L 556.908916 359.891247 
L 557.234299 359.47438 
L 557.885066 360.229521 
L 558.21045 360.029578 
L 558.535833 360.221901 
L 558.861216 359.08157 
L 559.1866 358.587723 
L 559.511983 358.553646 
L 559.837367 358.348823 
L 560.16275 357.866037 
L 560.488133 356.866227 
L 560.813517 357.716584 
L 561.1389 356.579805 
L 561.464284 357.324663 
L 561.789667 356.505982 
L 562.11505 356.733943 
L 562.440434 355.855562 
L 562.765817 355.874126 
L 563.091201 355.779516 
L 563.416584 356.089616 
L 563.741967 346.00845 
L 564.392734 364.255256 
L 564.718118 363.823716 
L 565.043501 362.762467 
L 565.368884 363.450793 
L 565.694268 362.169735 
L 566.019651 362.192802 
L 566.670418 361.196321 
L 566.995802 361.575058 
L 567.321185 360.434061 
L 567.646568 361.279593 
L 567.971952 360.32367 
L 568.622719 359.602207 
L 568.948102 348.996191 
L 569.273485 350.742854 
L 569.598869 360.150312 
L 569.924252 359.722818 
L 570.575019 359.298237 
L 570.900402 357.910341 
L 571.225786 357.942534 
L 571.551169 357.708575 
L 571.876553 357.896118 
L 572.201936 356.75811 
L 572.527319 357.381128 
L 572.852703 356.752169 
L 573.178086 357.078265 
L 573.50347 355.362216 
L 573.828853 356.40011 
L 574.47962 355.929374 
L 575.130387 355.061959 
L 575.45577 355.880185 
L 575.781153 355.181404 
L 576.106537 363.998848 
L 576.43192 363.164765 
L 576.757304 363.087135 
L 577.082687 362.326708 
L 577.40807 361.889438 
L 577.733454 361.983304 
L 578.058837 361.902105 
L 578.384221 361.142357 
L 578.709604 361.070262 
L 579.034987 360.455304 
L 579.360371 360.24624 
L 579.685754 360.865878 
L 580.011138 349.105042 
L 580.336521 359.508835 
L 580.661904 358.809721 
L 581.312671 359.795758 
L 581.638055 360.051544 
L 581.963438 359.420678 
L 582.288822 359.74385 
L 582.614205 357.785666 
L 582.939588 358.520314 
L 583.264972 356.942813 
L 583.590355 357.770498 
L 583.915739 357.014524 
L 584.241122 357.383807 
L 584.566505 356.345073 
L 584.891889 356.296384 
L 585.217272 356.66156 
L 585.542656 356.509939 
L 585.868039 354.681327 
L 586.193422 356.478802 
L 586.518806 356.145381 
L 586.844189 355.452297 
L 587.169573 355.512953 
L 587.494956 355.259335 
L 587.820339 363.977054 
L 588.145723 363.214021 
L 588.471106 363.204739 
L 588.79649 362.651032 
L 589.121873 362.965867 
L 589.447256 362.060473 
L 589.77264 361.598681 
L 590.098023 360.764342 
L 590.423407 361.146014 
L 590.74879 361.184699 
L 591.074173 359.985229 
L 591.399557 360.839811 
L 591.72494 359.295675 
L 592.050324 360.29738 
L 592.375707 359.243868 
L 592.70109 358.993812 
L 593.026474 359.883015 
L 593.351857 359.962674 
L 593.677241 359.711424 
L 594.328007 357.760988 
L 594.653391 358.177577 
L 595.304158 357.535272 
L 595.629541 356.520655 
L 595.954924 357.114393 
L 596.280308 356.703707 
L 596.605691 357.142895 
L 596.931075 355.934043 
L 597.256458 356.074453 
L 597.581842 356.008856 
L 597.907225 355.566717 
L 598.232608 355.618885 
L 598.557992 354.777772 
L 598.883375 355.548314 
L 599.208759 355.464697 
L 599.534142 363.583088 
L 600.184909 363.148374 
L 600.835676 362.084307 
L 601.161059 362.206647 
L 601.486442 361.396748 
L 601.811826 361.845245 
L 602.462593 360.643553 
L 602.787976 360.655836 
L 603.438743 359.326189 
L 604.414893 359.276399 
L 604.740276 360.239631 
L 605.06566 359.244818 
L 605.391043 360.178664 
L 605.716427 359.827945 
L 606.04181 358.346389 
L 606.367193 358.55732 
L 606.692577 357.760216 
L 607.01796 358.126336 
L 607.343344 356.526786 
L 607.668727 357.230614 
L 607.99411 356.682064 
L 608.319494 356.662682 
L 608.644877 356.779409 
L 609.621027 355.627011 
L 609.946411 355.821663 
L 610.271794 356.25024 
L 610.597178 356.081401 
L 610.922561 354.921555 
L 611.247944 363.187576 
L 611.573328 351.626238 
L 611.898711 362.446542 
L 612.224095 362.131223 
L 612.549478 363.0008 
L 612.874862 361.432498 
L 613.200245 361.734299 
L 613.525628 360.666674 
L 613.851012 360.47847 
L 614.176395 350.282123 
L 614.501779 360.177658 
L 614.827162 359.361656 
L 615.477929 359.507279 
L 615.803312 347.861129 
L 616.128696 358.784153 
L 616.454079 358.855187 
L 616.779462 359.329474 
L 617.104846 358.790251 
L 617.430229 359.092469 
L 617.755613 357.734871 
L 618.080996 357.442395 
L 618.406379 356.60415 
L 618.731763 357.409864 
L 619.057146 357.106767 
L 619.38253 355.771523 
L 619.707913 355.955387 
L 620.033296 355.940446 
L 620.35868 355.29424 
L 620.684063 356.391606 
L 621.009447 354.618698 
L 621.33483 356.32413 
L 621.660213 345.762096 
L 621.985597 355.041933 
L 622.31098 355.840044 
L 622.636364 355.427424 
L 622.636364 355.427424 
" clip-path="url(#pf084abbcf8)" style="fill: none; stroke: #1f77b4; stroke-width: 1.5; stroke-linecap: square"/>
   </g>
   <g id="patch_3">
    <path d="M 90 384.48 
L 90 51.84 
" style="fill: none; stroke: #000000; stroke-width: 0.8; stroke-linejoin: miter; stroke-linecap: square"/>
   </g>
   <g id="patch_4">
    <path d="M 648 384.48 
L 648 51.84 
" style="fill: none; stroke: #000000; stroke-width: 0.8; stroke-linejoin: miter; stroke-linecap: square"/>
   </g>
   <g id="patch_5">
    <path d="M 90 384.48 
L 648 384.48 
" style="fill: none; stroke: #000000; stroke-width: 0.8; stroke-linejoin: miter; stroke-linecap: square"/>
   </g>
   <g id="patch_6">
    <path d="M 90 51.84 
L 648 51.84 
" style="fill: none; stroke: #000000; stroke-width: 0.8; stroke-linejoin: miter; stroke-linecap: square"/>
   </g>
   <g id="text_18">
    <!-- Average time per index -->
    <g transform="translate(298.700625 45.84) scale(0.12 -0.12)">
     <defs>
      <path id="DejaVuSans-70" d="M 1159 525 
L 1159 -1331 
L 581 -1331 
L 581 3500 
L 1159 3500 
L 1159 2969 
Q 1341 3281 1617 3432 
Q 1894 3584 2278 3584 
Q 2916 3584 3314 3078 
Q 3713 2572 3713 1747 
Q 3713 922 3314 415 
Q 2916 -91 2278 -91 
Q 1894 -91 1617 61 
Q 1341 213 1159 525 
z
M 3116 1747 
Q 3116 2381 2855 2742 
Q 2594 3103 2138 3103 
Q 1681 3103 1420 2742 
Q 1159 2381 1159 1747 
Q 1159 1113 1420 752 
Q 1681 391 2138 391 
Q 2594 391 2855 752 
Q 3116 1113 3116 1747 
z
" transform="scale(0.015625)"/>
     </defs>
     <use xlink:href="#DejaVuSans-41"/>
     <use xlink:href="#DejaVuSans-76" transform="translate(62.533203 0)"/>
     <use xlink:href="#DejaVuSans-65" transform="translate(121.712891 0)"/>
     <use xlink:href="#DejaVuSans-72" transform="translate(183.236328 0)"/>
     <use xlink:href="#DejaVuSans-61" transform="translate(224.349609 0)"/>
     <use xlink:href="#DejaVuSans-67" transform="translate(285.628906 0)"/>
     <use xlink:href="#DejaVuSans-65" transform="translate(349.105469 0)"/>
     <use xlink:href="#DejaVuSans-20" transform="translate(410.628906 0)"/>
     <use xlink:href="#DejaVuSans-74" transform="translate(442.416016 0)"/>
     <use xlink:href="#DejaVuSans-69" transform="translate(481.625 0)"/>
     <use xlink:href="#DejaVuSans-6d" transform="translate(509.408203 0)"/>
     <use xlink:href="#DejaVuSans-65" transform="translate(606.820312 0)"/>
     <use xlink:href="#DejaVuSans-20" transform="translate(668.34375 0)"/>
     <use xlink:href="#DejaVuSans-70" transform="translate(700.130859 0)"/>
     <use xlink:href="#DejaVuSans-65" transform="translate(763.607422 0)"/>
     <use xlink:href="#DejaVuSans-72" transform="translate(825.130859 0)"/>
     <use xlink:href="#DejaVuSans-20" transform="translate(866.244141 0)"/>
     <use xlink:href="#DejaVuSans-69" transform="translate(898.03125 0)"/>
     <use xlink:href="#DejaVuSans-6e" transform="translate(925.814453 0)"/>
     <use xlink:href="#DejaVuSans-64" transform="translate(989.193359 0)"/>
     <use xlink:href="#DejaVuSans-65" transform="translate(1052.669922 0)"/>
     <use xlink:href="#DejaVuSans-78" transform="translate(1112.443359 0)"/>
    </g>
   </g>
   <g id="legend_1">
    <g id="patch_7">
     <path d="M 489.965625 74.518125 
L 641 74.518125 
Q 643 74.518125 643 72.518125 
L 643 58.84 
Q 643 56.84 641 56.84 
L 489.965625 56.84 
Q 487.965625 56.84 487.965625 58.84 
L 487.965625 72.518125 
Q 487.965625 74.518125 489.965625 74.518125 
z
" style="fill: #ffffff; opacity: 0.8; stroke: #cccccc; stroke-linejoin: miter"/>
    </g>
    <g id="line2d_17">
     <path d="M 491.965625 64.938438 
L 501.965625 64.938438 
L 511.965625 64.938438 
" style="fill: none; stroke: #1f77b4; stroke-width: 1.5; stroke-linecap: square"/>
    </g>
    <g id="text_19">
     <!-- getExpectedBehaviours -->
     <g transform="translate(519.965625 68.438438) scale(0.1 -0.1)">
      <defs>
       <path id="DejaVuSans-45" d="M 628 4666 
L 3578 4666 
L 3578 4134 
L 1259 4134 
L 1259 2753 
L 3481 2753 
L 3481 2222 
L 1259 2222 
L 1259 531 
L 3634 531 
L 3634 0 
L 628 0 
L 628 4666 
z
" transform="scale(0.015625)"/>
       <path id="DejaVuSans-63" d="M 3122 3366 
L 3122 2828 
Q 2878 2963 2633 3030 
Q 2388 3097 2138 3097 
Q 1578 3097 1268 2742 
Q 959 2388 959 1747 
Q 959 1106 1268 751 
Q 1578 397 2138 397 
Q 2388 397 2633 464 
Q 2878 531 3122 666 
L 3122 134 
Q 2881 22 2623 -34 
Q 2366 -91 2075 -91 
Q 1284 -91 818 406 
Q 353 903 353 1747 
Q 353 2603 823 3093 
Q 1294 3584 2113 3584 
Q 2378 3584 2631 3529 
Q 2884 3475 3122 3366 
z
" transform="scale(0.015625)"/>
       <path id="DejaVuSans-42" d="M 1259 2228 
L 1259 519 
L 2272 519 
Q 2781 519 3026 730 
Q 3272 941 3272 1375 
Q 3272 1813 3026 2020 
Q 2781 2228 2272 2228 
L 1259 2228 
z
M 1259 4147 
L 1259 2741 
L 2194 2741 
Q 2656 2741 2882 2914 
Q 3109 3088 3109 3444 
Q 3109 3797 2882 3972 
Q 2656 4147 2194 4147 
L 1259 4147 
z
M 628 4666 
L 2241 4666 
Q 2963 4666 3353 4366 
Q 3744 4066 3744 3513 
Q 3744 3084 3544 2831 
Q 3344 2578 2956 2516 
Q 3422 2416 3680 2098 
Q 3938 1781 3938 1306 
Q 3938 681 3513 340 
Q 3088 0 2303 0 
L 628 0 
L 628 4666 
z
" transform="scale(0.015625)"/>
       <path id="DejaVuSans-68" d="M 3513 2113 
L 3513 0 
L 2938 0 
L 2938 2094 
Q 2938 2591 2744 2837 
Q 2550 3084 2163 3084 
Q 1697 3084 1428 2787 
Q 1159 2491 1159 1978 
L 1159 0 
L 581 0 
L 581 4863 
L 1159 4863 
L 1159 2956 
Q 1366 3272 1645 3428 
Q 1925 3584 2291 3584 
Q 2894 3584 3203 3211 
Q 3513 2838 3513 2113 
z
" transform="scale(0.015625)"/>
       <path id="DejaVuSans-6f" d="M 1959 3097 
Q 1497 3097 1228 2736 
Q 959 2375 959 1747 
Q 959 1119 1226 758 
Q 1494 397 1959 397 
Q 2419 397 2687 759 
Q 2956 1122 2956 1747 
Q 2956 2369 2687 2733 
Q 2419 3097 1959 3097 
z
M 1959 3584 
Q 2709 3584 3137 3096 
Q 3566 2609 3566 1747 
Q 3566 888 3137 398 
Q 2709 -91 1959 -91 
Q 1206 -91 779 398 
Q 353 888 353 1747 
Q 353 2609 779 3096 
Q 1206 3584 1959 3584 
z
" transform="scale(0.015625)"/>
       <path id="DejaVuSans-75" d="M 544 1381 
L 544 3500 
L 1119 3500 
L 1119 1403 
Q 1119 906 1312 657 
Q 1506 409 1894 409 
Q 2359 409 2629 706 
Q 2900 1003 2900 1516 
L 2900 3500 
L 3475 3500 
L 3475 0 
L 2900 0 
L 2900 538 
Q 2691 219 2414 64 
Q 2138 -91 1772 -91 
Q 1169 -91 856 284 
Q 544 659 544 1381 
z
M 1991 3584 
L 1991 3584 
z
" transform="scale(0.015625)"/>
      </defs>
      <use xlink:href="#DejaVuSans-67"/>
      <use xlink:href="#DejaVuSans-65" transform="translate(63.476562 0)"/>
      <use xlink:href="#DejaVuSans-74" transform="translate(125 0)"/>
      <use xlink:href="#DejaVuSans-45" transform="translate(164.208984 0)"/>
      <use xlink:href="#DejaVuSans-78" transform="translate(227.392578 0)"/>
      <use xlink:href="#DejaVuSans-70" transform="translate(286.572266 0)"/>
      <use xlink:href="#DejaVuSans-65" transform="translate(350.048828 0)"/>
      <use xlink:href="#DejaVuSans-63" transform="translate(411.572266 0)"/>
      <use xlink:href="#DejaVuSans-74" transform="translate(466.552734 0)"/>
      <use xlink:href="#DejaVuSans-65" transform="translate(505.761719 0)"/>
      <use xlink:href="#DejaVuSans-64" transform="translate(567.285156 0)"/>
      <use xlink:href="#DejaVuSans-42" transform="translate(630.761719 0)"/>
      <use xlink:href="#DejaVuSans-65" transform="translate(699.365234 0)"/>
      <use xlink:href="#DejaVuSans-68" transform="translate(760.888672 0)"/>
      <use xlink:href="#DejaVuSans-61" transform="translate(824.267578 0)"/>
      <use xlink:href="#DejaVuSans-76" transform="translate(885.546875 0)"/>
      <use xlink:href="#DejaVuSans-69" transform="translate(944.726562 0)"/>
      <use xlink:href="#DejaVuSans-6f" transform="translate(972.509766 0)"/>
      <use xlink:href="#DejaVuSans-75" transform="translate(1033.691406 0)"/>
      <use xlink:href="#DejaVuSans-72" transform="translate(1097.070312 0)"/>
      <use xlink:href="#DejaVuSans-73" transform="translate(1138.183594 0)"/>
     </g>
    </g>
   </g>
  </g>
 </g>
 <defs>
  <clipPath id="pf084abbcf8">
   <rect x="90" y="51.84" width="558" height="332.64"/>
  </clipPath>
 </defs>
</svg>
