<?xml version="1.0" encoding="utf-8" standalone="no"?>
<!DOCTYPE svg PUBLIC "-//W3C//DTD SVG 1.1//EN"
  "http://www.w3.org/Graphics/SVG/1.1/DTD/svg11.dtd">
<svg xmlns:xlink="http://www.w3.org/1999/xlink" width="576pt" height="432pt" viewBox="0 0 576 432" xmlns="http://www.w3.org/2000/svg" version="1.1">
 <metadata>
  <rdf:RDF xmlns:dc="http://purl.org/dc/elements/1.1/" xmlns:cc="http://creativecommons.org/ns#" xmlns:rdf="http://www.w3.org/1999/02/22-rdf-syntax-ns#">
   <cc:Work>
    <dc:type rdf:resource="http://purl.org/dc/dcmitype/StillImage"/>
    <dc:date>2025-09-30T20:43:33.119437</dc:date>
    <dc:format>image/svg+xml</dc:format>
    <dc:creator>
     <cc:Agent>
      <dc:title>Matplotlib v3.10.3, https://matplotlib.org/</dc:title>
     </cc:Agent>
    </dc:creator>
   </cc:Work>
  </rdf:RDF>
 </metadata>
 <defs>
  <style type="text/css">*{stroke-linejoin: round; stroke-linecap: butt}</style>
 </defs>
 <g id="figure_1">
  <g id="patch_1">
   <path d="M 0 432 
L 576 432 
L 576 0 
L 0 0 
z
" style="fill: #ffffff"/>
  </g>
  <g id="axes_1">
   <g id="patch_2">
    <path d="M 72 384.48 
L 518.4 384.48 
L 518.4 51.84 
L 72 51.84 
z
" style="fill: #ffffff"/>
   </g>
   <g id="FillBetweenPolyCollection_1">
    <path d="M 406.8 384.350223 
L 183.6 384.350223 
L 183.857424 381.151471 
L 191.414838 377.95272 
L 204.752003 374.753968 
L 221.433732 371.555217 
L 238.831258 368.356465 
L 254.777168 365.157714 
L 267.940137 361.958962 
L 277.864992 358.76021 
L 284.766401 355.561459 
L 289.226381 352.362707 
L 291.924299 349.163956 
L 293.463867 345.965204 
L 294.3005 342.766453 
L 294.73871 339.567701 
L 294.963308 336.36895 
L 295.07784 333.170198 
L 295.136755 329.971447 
L 295.167479 326.772695 
L 295.183615 323.573944 
L 295.19202 320.375192 
L 295.196284 317.17644 
L 295.19836 313.977689 
L 295.199318 310.778937 
L 295.199733 307.580186 
L 295.199903 304.381434 
L 295.199967 301.182683 
L 295.199989 297.983931 
L 295.199997 294.78518 
L 295.199999 291.586428 
L 295.2 288.387677 
L 295.2 285.188925 
L 295.2 281.990173 
L 295.2 278.791422 
L 295.2 275.59267 
L 295.2 272.393919 
L 295.2 269.195167 
L 295.2 265.996416 
L 295.199998 262.797664 
L 295.199994 259.598913 
L 295.199981 256.400161 
L 295.199943 253.20141 
L 295.19984 250.002658 
L 295.199582 246.803906 
L 295.198981 243.605155 
L 295.197683 240.406403 
L 295.195086 237.207652 
L 295.190269 234.0089 
L 295.181991 230.810149 
L 295.16879 227.611397 
L 295.149204 224.412646 
L 295.122005 221.213894 
L 295.086271 218.015143 
L 295.041052 214.816391 
L 294.984605 211.61764 
L 294.913491 208.418888 
L 294.822229 205.220136 
L 294.704328 202.021385 
L 294.555066 198.822633 
L 294.375461 195.623882 
L 294.175798 192.42513 
L 293.976686 189.226379 
L 293.806227 186.027627 
L 293.693539 182.828876 
L 293.66069 179.630124 
L 293.716092 176.431373 
L 293.851947 173.232621 
L 294.046644 170.033869 
L 294.270968 166.835118 
L 294.495618 163.636366 
L 294.697429 160.437615 
L 294.862656 157.238863 
L 294.98705 154.040112 
L 295.073637 150.84136 
L 295.129547 147.642609 
L 295.1631 144.443857 
L 295.181813 141.245106 
L 295.191444 138.046354 
L 295.19582 134.847603 
L 295.197061 131.648851 
L 295.195877 128.450099 
L 295.191731 125.251348 
L 295.182793 122.052596 
L 295.165773 118.853845 
L 295.135777 115.655093 
L 295.086471 112.456342 
L 295.010799 109.25759 
L 294.902433 106.058839 
L 294.757877 102.860087 
L 294.578786 99.661336 
L 294.373797 96.462584 
L 294.159013 93.263832 
L 293.956548 90.065081 
L 293.791073 86.866329 
L 293.684991 83.667578 
L 293.65353 80.468826 
L 293.701188 77.270075 
L 293.820684 74.071323 
L 293.994746 70.872572 
L 294.200147 67.67382 
L 296.199853 67.67382 
L 296.199853 67.67382 
L 296.405254 70.872572 
L 296.579316 74.071323 
L 296.698812 77.270075 
L 296.74647 80.468826 
L 296.715009 83.667578 
L 296.608927 86.866329 
L 296.443452 90.065081 
L 296.240987 93.263832 
L 296.026203 96.462584 
L 295.821214 99.661336 
L 295.642123 102.860087 
L 295.497567 106.058839 
L 295.389201 109.25759 
L 295.313529 112.456342 
L 295.264223 115.655093 
L 295.234227 118.853845 
L 295.217207 122.052596 
L 295.208269 125.251348 
L 295.204123 128.450099 
L 295.202939 131.648851 
L 295.20418 134.847603 
L 295.208556 138.046354 
L 295.218187 141.245106 
L 295.2369 144.443857 
L 295.270453 147.642609 
L 295.326363 150.84136 
L 295.41295 154.040112 
L 295.537344 157.238863 
L 295.702571 160.437615 
L 295.904382 163.636366 
L 296.129032 166.835118 
L 296.353356 170.033869 
L 296.548053 173.232621 
L 296.683908 176.431373 
L 296.73931 179.630124 
L 296.706461 182.828876 
L 296.593773 186.027627 
L 296.423314 189.226379 
L 296.224202 192.42513 
L 296.024539 195.623882 
L 295.844934 198.822633 
L 295.695672 202.021385 
L 295.577771 205.220136 
L 295.486509 208.418888 
L 295.415395 211.61764 
L 295.358948 214.816391 
L 295.313729 218.015143 
L 295.277995 221.213894 
L 295.250796 224.412646 
L 295.23121 227.611397 
L 295.218009 230.810149 
L 295.209731 234.0089 
L 295.204914 237.207652 
L 295.202317 240.406403 
L 295.201019 243.605155 
L 295.200418 246.803906 
L 295.20016 250.002658 
L 295.200057 253.20141 
L 295.200019 256.400161 
L 295.200006 259.598913 
L 295.200002 262.797664 
L 295.2 265.996416 
L 295.2 269.195167 
L 295.2 272.393919 
L 295.2 275.59267 
L 295.2 278.791422 
L 295.2 281.990173 
L 295.2 285.188925 
L 295.2 288.387677 
L 295.200001 291.586428 
L 295.200003 294.78518 
L 295.200011 297.983931 
L 295.200033 301.182683 
L 295.200097 304.381434 
L 295.200267 307.580186 
L 295.200682 310.778937 
L 295.20164 313.977689 
L 295.203716 317.17644 
L 295.20798 320.375192 
L 295.216385 323.573944 
L 295.232521 326.772695 
L 295.263245 329.971447 
L 295.32216 333.170198 
L 295.436692 336.36895 
L 295.66129 339.567701 
L 296.0995 342.766453 
L 296.936133 345.965204 
L 298.475701 349.163956 
L 301.173619 352.362707 
L 305.633599 355.561459 
L 312.535008 358.76021 
L 322.459863 361.958962 
L 335.622832 365.157714 
L 351.568742 368.356465 
L 368.966268 371.555217 
L 385.647997 374.753968 
L 398.985162 377.95272 
L 406.542576 381.151471 
L 406.8 384.350223 
z
" clip-path="url(#p46178600a2)" style="fill: #1f77b4; fill-opacity: 0.3"/>
   </g>
   <g id="matplotlib.axis_1">
    <g id="xtick_1">
     <g id="line2d_1">
      <defs>
       <path id="m61d4884d51" d="M 0 0 
L 0 3.5 
" style="stroke: #000000; stroke-width: 0.8"/>
      </defs>
      <g>
       <use xlink:href="#m61d4884d51" x="295.2" y="384.48" style="stroke: #000000; stroke-width: 0.8"/>
      </g>
     </g>
     <g id="text_1">
      <!-- 1 -->
      <g transform="translate(292.01875 399.078438) scale(0.1 -0.1)">
       <defs>
        <path id="DejaVuSans-31" d="M 794 531 
L 1825 531 
L 1825 4091 
L 703 3866 
L 703 4441 
L 1819 4666 
L 2450 4666 
L 2450 531 
L 3481 531 
L 3481 0 
L 794 0 
L 794 531 
z
" transform="scale(0.015625)"/>
       </defs>
       <use xlink:href="#DejaVuSans-31"/>
      </g>
     </g>
    </g>
   </g>
   <g id="matplotlib.axis_2">
    <g id="ytick_1">
     <g id="line2d_2">
      <defs>
       <path id="m03598580c1" d="M 0 0 
L -3.5 0 
" style="stroke: #000000; stroke-width: 0.8"/>
      </defs>
      <g>
       <use xlink:href="#m03598580c1" x="72" y="384.48" style="stroke: #000000; stroke-width: 0.8"/>
      </g>
     </g>
     <g id="text_2">
      <!-- 0 -->
      <g transform="translate(58.6375 388.279219) scale(0.1 -0.1)">
       <defs>
        <path id="DejaVuSans-30" d="M 2034 4250 
Q 1547 4250 1301 3770 
Q 1056 3291 1056 2328 
Q 1056 1369 1301 889 
Q 1547 409 2034 409 
Q 2525 409 2770 889 
Q 3016 1369 3016 2328 
Q 3016 3291 2770 3770 
Q 2525 4250 2034 4250 
z
M 2034 4750 
Q 2819 4750 3233 4129 
Q 3647 3509 3647 2328 
Q 3647 1150 3233 529 
Q 2819 -91 2034 -91 
Q 1250 -91 836 529 
Q 422 1150 422 2328 
Q 422 3509 836 4129 
Q 1250 4750 2034 4750 
z
" transform="scale(0.015625)"/>
       </defs>
       <use xlink:href="#DejaVuSans-30"/>
      </g>
     </g>
    </g>
    <g id="ytick_2">
     <g id="line2d_3">
      <g>
       <use xlink:href="#m03598580c1" x="72" y="317.925202" style="stroke: #000000; stroke-width: 0.8"/>
      </g>
     </g>
     <g id="text_3">
      <!-- 200 -->
      <g transform="translate(45.9125 321.724421) scale(0.1 -0.1)">
       <defs>
        <path id="DejaVuSans-32" d="M 1228 531 
L 3431 531 
L 3431 0 
L 469 0 
L 469 531 
Q 828 903 1448 1529 
Q 2069 2156 2228 2338 
Q 2531 2678 2651 2914 
Q 2772 3150 2772 3378 
Q 2772 3750 2511 3984 
Q 2250 4219 1831 4219 
Q 1534 4219 1204 4116 
Q 875 4013 500 3803 
L 500 4441 
Q 881 4594 1212 4672 
Q 1544 4750 1819 4750 
Q 2544 4750 2975 4387 
Q 3406 4025 3406 3419 
Q 3406 3131 3298 2873 
Q 3191 2616 2906 2266 
Q 2828 2175 2409 1742 
Q 1991 1309 1228 531 
z
" transform="scale(0.015625)"/>
       </defs>
       <use xlink:href="#DejaVuSans-32"/>
       <use xlink:href="#DejaVuSans-30" transform="translate(63.623047 0)"/>
       <use xlink:href="#DejaVuSans-30" transform="translate(127.246094 0)"/>
      </g>
     </g>
    </g>
    <g id="ytick_3">
     <g id="line2d_4">
      <g>
       <use xlink:href="#m03598580c1" x="72" y="251.370404" style="stroke: #000000; stroke-width: 0.8"/>
      </g>
     </g>
     <g id="text_4">
      <!-- 400 -->
      <g transform="translate(45.9125 255.169623) scale(0.1 -0.1)">
       <defs>
        <path id="DejaVuSans-34" d="M 2419 4116 
L 825 1625 
L 2419 1625 
L 2419 4116 
z
M 2253 4666 
L 3047 4666 
L 3047 1625 
L 3713 1625 
L 3713 1100 
L 3047 1100 
L 3047 0 
L 2419 0 
L 2419 1100 
L 313 1100 
L 313 1709 
L 2253 4666 
z
" transform="scale(0.015625)"/>
       </defs>
       <use xlink:href="#DejaVuSans-34"/>
       <use xlink:href="#DejaVuSans-30" transform="translate(63.623047 0)"/>
       <use xlink:href="#DejaVuSans-30" transform="translate(127.246094 0)"/>
      </g>
     </g>
    </g>
    <g id="ytick_4">
     <g id="line2d_5">
      <g>
       <use xlink:href="#m03598580c1" x="72" y="184.815606" style="stroke: #000000; stroke-width: 0.8"/>
      </g>
     </g>
     <g id="text_5">
      <!-- 600 -->
      <g transform="translate(45.9125 188.614825) scale(0.1 -0.1)">
       <defs>
        <path id="DejaVuSans-36" d="M 2113 2584 
Q 1688 2584 1439 2293 
Q 1191 2003 1191 1497 
Q 1191 994 1439 701 
Q 1688 409 2113 409 
Q 2538 409 2786 701 
Q 3034 994 3034 1497 
Q 3034 2003 2786 2293 
Q 2538 2584 2113 2584 
z
M 3366 4563 
L 3366 3988 
Q 3128 4100 2886 4159 
Q 2644 4219 2406 4219 
Q 1781 4219 1451 3797 
Q 1122 3375 1075 2522 
Q 1259 2794 1537 2939 
Q 1816 3084 2150 3084 
Q 2853 3084 3261 2657 
Q 3669 2231 3669 1497 
Q 3669 778 3244 343 
Q 2819 -91 2113 -91 
Q 1303 -91 875 529 
Q 447 1150 447 2328 
Q 447 3434 972 4092 
Q 1497 4750 2381 4750 
Q 2619 4750 2861 4703 
Q 3103 4656 3366 4563 
z
" transform="scale(0.015625)"/>
       </defs>
       <use xlink:href="#DejaVuSans-36"/>
       <use xlink:href="#DejaVuSans-30" transform="translate(63.623047 0)"/>
       <use xlink:href="#DejaVuSans-30" transform="translate(127.246094 0)"/>
      </g>
     </g>
    </g>
    <g id="ytick_5">
     <g id="line2d_6">
      <g>
       <use xlink:href="#m03598580c1" x="72" y="118.260808" style="stroke: #000000; stroke-width: 0.8"/>
      </g>
     </g>
     <g id="text_6">
      <!-- 800 -->
      <g transform="translate(45.9125 122.060026) scale(0.1 -0.1)">
       <defs>
        <path id="DejaVuSans-38" d="M 2034 2216 
Q 1584 2216 1326 1975 
Q 1069 1734 1069 1313 
Q 1069 891 1326 650 
Q 1584 409 2034 409 
Q 2484 409 2743 651 
Q 3003 894 3003 1313 
Q 3003 1734 2745 1975 
Q 2488 2216 2034 2216 
z
M 1403 2484 
Q 997 2584 770 2862 
Q 544 3141 544 3541 
Q 544 4100 942 4425 
Q 1341 4750 2034 4750 
Q 2731 4750 3128 4425 
Q 3525 4100 3525 3541 
Q 3525 3141 3298 2862 
Q 3072 2584 2669 2484 
Q 3125 2378 3379 2068 
Q 3634 1759 3634 1313 
Q 3634 634 3220 271 
Q 2806 -91 2034 -91 
Q 1263 -91 848 271 
Q 434 634 434 1313 
Q 434 1759 690 2068 
Q 947 2378 1403 2484 
z
M 1172 3481 
Q 1172 3119 1398 2916 
Q 1625 2713 2034 2713 
Q 2441 2713 2670 2916 
Q 2900 3119 2900 3481 
Q 2900 3844 2670 4047 
Q 2441 4250 2034 4250 
Q 1625 4250 1398 4047 
Q 1172 3844 1172 3481 
z
" transform="scale(0.015625)"/>
       </defs>
       <use xlink:href="#DejaVuSans-38"/>
       <use xlink:href="#DejaVuSans-30" transform="translate(63.623047 0)"/>
       <use xlink:href="#DejaVuSans-30" transform="translate(127.246094 0)"/>
      </g>
     </g>
    </g>
    <g id="text_7">
     <!-- Time (ms) -->
     <g transform="translate(39.832812 243.359219) rotate(-90) scale(0.1 -0.1)">
      <defs>
       <path id="DejaVuSans-54" d="M -19 4666 
L 3928 4666 
L 3928 4134 
L 2272 4134 
L 2272 0 
L 1638 0 
L 1638 4134 
L -19 4134 
L -19 4666 
z
" transform="scale(0.015625)"/>
       <path id="DejaVuSans-69" d="M 603 3500 
L 1178 3500 
L 1178 0 
L 603 0 
L 603 3500 
z
M 603 4863 
L 1178 4863 
L 1178 4134 
L 603 4134 
L 603 4863 
z
" transform="scale(0.015625)"/>
       <path id="DejaVuSans-6d" d="M 3328 2828 
Q 3544 3216 3844 3400 
Q 4144 3584 4550 3584 
Q 5097 3584 5394 3201 
Q 5691 2819 5691 2113 
L 5691 0 
L 5113 0 
L 5113 2094 
Q 5113 2597 4934 2840 
Q 4756 3084 4391 3084 
Q 3944 3084 3684 2787 
Q 3425 2491 3425 1978 
L 3425 0 
L 2847 0 
L 2847 2094 
Q 2847 2600 2669 2842 
Q 2491 3084 2119 3084 
Q 1678 3084 1418 2786 
Q 1159 2488 1159 1978 
L 1159 0 
L 581 0 
L 581 3500 
L 1159 3500 
L 1159 2956 
Q 1356 3278 1631 3431 
Q 1906 3584 2284 3584 
Q 2666 3584 2933 3390 
Q 3200 3197 3328 2828 
z
" transform="scale(0.015625)"/>
       <path id="DejaVuSans-65" d="M 3597 1894 
L 3597 1613 
L 953 1613 
Q 991 1019 1311 708 
Q 1631 397 2203 397 
Q 2534 397 2845 478 
Q 3156 559 3463 722 
L 3463 178 
Q 3153 47 2828 -22 
Q 2503 -91 2169 -91 
Q 1331 -91 842 396 
Q 353 884 353 1716 
Q 353 2575 817 3079 
Q 1281 3584 2069 3584 
Q 2775 3584 3186 3129 
Q 3597 2675 3597 1894 
z
M 3022 2063 
Q 3016 2534 2758 2815 
Q 2500 3097 2075 3097 
Q 1594 3097 1305 2825 
Q 1016 2553 972 2059 
L 3022 2063 
z
" transform="scale(0.015625)"/>
       <path id="DejaVuSans-20" transform="scale(0.015625)"/>
       <path id="DejaVuSans-28" d="M 1984 4856 
Q 1566 4138 1362 3434 
Q 1159 2731 1159 2009 
Q 1159 1288 1364 580 
Q 1569 -128 1984 -844 
L 1484 -844 
Q 1016 -109 783 600 
Q 550 1309 550 2009 
Q 550 2706 781 3412 
Q 1013 4119 1484 4856 
L 1984 4856 
z
" transform="scale(0.015625)"/>
       <path id="DejaVuSans-73" d="M 2834 3397 
L 2834 2853 
Q 2591 2978 2328 3040 
Q 2066 3103 1784 3103 
Q 1356 3103 1142 2972 
Q 928 2841 928 2578 
Q 928 2378 1081 2264 
Q 1234 2150 1697 2047 
L 1894 2003 
Q 2506 1872 2764 1633 
Q 3022 1394 3022 966 
Q 3022 478 2636 193 
Q 2250 -91 1575 -91 
Q 1294 -91 989 -36 
Q 684 19 347 128 
L 347 722 
Q 666 556 975 473 
Q 1284 391 1588 391 
Q 1994 391 2212 530 
Q 2431 669 2431 922 
Q 2431 1156 2273 1281 
Q 2116 1406 1581 1522 
L 1381 1569 
Q 847 1681 609 1914 
Q 372 2147 372 2553 
Q 372 3047 722 3315 
Q 1072 3584 1716 3584 
Q 2034 3584 2315 3537 
Q 2597 3491 2834 3397 
z
" transform="scale(0.015625)"/>
       <path id="DejaVuSans-29" d="M 513 4856 
L 1013 4856 
Q 1481 4119 1714 3412 
Q 1947 2706 1947 2009 
Q 1947 1309 1714 600 
Q 1481 -109 1013 -844 
L 513 -844 
Q 928 -128 1133 580 
Q 1338 1288 1338 2009 
Q 1338 2731 1133 3434 
Q 928 4138 513 4856 
z
" transform="scale(0.015625)"/>
      </defs>
      <use xlink:href="#DejaVuSans-54"/>
      <use xlink:href="#DejaVuSans-69" transform="translate(57.958984 0)"/>
      <use xlink:href="#DejaVuSans-6d" transform="translate(85.742188 0)"/>
      <use xlink:href="#DejaVuSans-65" transform="translate(183.154297 0)"/>
      <use xlink:href="#DejaVuSans-20" transform="translate(244.677734 0)"/>
      <use xlink:href="#DejaVuSans-28" transform="translate(276.464844 0)"/>
      <use xlink:href="#DejaVuSans-6d" transform="translate(315.478516 0)"/>
      <use xlink:href="#DejaVuSans-73" transform="translate(412.890625 0)"/>
      <use xlink:href="#DejaVuSans-29" transform="translate(464.990234 0)"/>
     </g>
    </g>
   </g>
   <g id="LineCollection_1">
    <path d="M 239.4 374.977015 
L 351 374.977015 
" clip-path="url(#p46178600a2)" style="fill: none; stroke: #1f77b4; stroke-width: 1.5"/>
   </g>
   <g id="LineCollection_2">
    <path d="M 239.4 67.67382 
L 351 67.67382 
" clip-path="url(#p46178600a2)" style="fill: none; stroke: #1f77b4; stroke-width: 1.5"/>
   </g>
   <g id="LineCollection_3">
    <path d="M 239.4 384.350223 
L 351 384.350223 
" clip-path="url(#p46178600a2)" style="fill: none; stroke: #1f77b4; stroke-width: 1.5"/>
   </g>
   <g id="LineCollection_4">
    <path d="M 295.2 384.350223 
L 295.2 67.67382 
" clip-path="url(#p46178600a2)" style="fill: none; stroke: #1f77b4; stroke-width: 1.5"/>
   </g>
   <g id="patch_3">
    <path d="M 250.56 383.527234 
L 339.84 383.527234 
L 339.84 382.820817 
L 250.56 382.820817 
L 250.56 383.527234 
z
" clip-path="url(#p46178600a2)" style="fill: #1f77b4; stroke: #000000; stroke-linejoin: miter"/>
   </g>
   <g id="line2d_7">
    <path d="M 295.2 383.527234 
L 295.2 384.350223 
" clip-path="url(#p46178600a2)" style="fill: none; stroke: #000000; stroke-linecap: square"/>
   </g>
   <g id="line2d_8">
    <path d="M 295.2 382.820817 
L 295.2 381.768254 
" clip-path="url(#p46178600a2)" style="fill: none; stroke: #000000; stroke-linecap: square"/>
   </g>
   <g id="line2d_9">
    <path d="M 272.88 384.350223 
L 317.52 384.350223 
" clip-path="url(#p46178600a2)" style="fill: none; stroke: #000000; stroke-linecap: square"/>
   </g>
   <g id="line2d_10">
    <path d="M 272.88 381.768254 
L 317.52 381.768254 
" clip-path="url(#p46178600a2)" style="fill: none; stroke: #000000; stroke-linecap: square"/>
   </g>
   <g id="line2d_11">
    <defs>
     <path id="ma4c4042f65" d="M 0 3 
C 0.795609 3 1.55874 2.683901 2.12132 2.12132 
C 2.683901 1.55874 3 0.795609 3 0 
C 3 -0.795609 2.683901 -1.55874 2.12132 -2.12132 
C 1.55874 -2.683901 0.795609 -3 0 -3 
C -0.795609 -3 -1.55874 -2.683901 -2.12132 -2.12132 
C -2.683901 -1.55874 -3 -0.795609 -3 0 
C -3 0.795609 -2.683901 1.55874 -2.12132 2.12132 
C -1.55874 2.683901 -0.795609 3 0 3 
z
" style="stroke: #000000"/>
    </defs>
    <g clip-path="url(#p46178600a2)">
     <use xlink:href="#ma4c4042f65" x="295.2" y="381.357783" style="fill-opacity: 0; stroke: #000000"/>
     <use xlink:href="#ma4c4042f65" x="295.2" y="381.410069" style="fill-opacity: 0; stroke: #000000"/>
     <use xlink:href="#ma4c4042f65" x="295.2" y="379.734076" style="fill-opacity: 0; stroke: #000000"/>
     <use xlink:href="#ma4c4042f65" x="295.2" y="171.867447" style="fill-opacity: 0; stroke: #000000"/>
     <use xlink:href="#ma4c4042f65" x="295.2" y="371.419283" style="fill-opacity: 0; stroke: #000000"/>
     <use xlink:href="#ma4c4042f65" x="295.2" y="370.358885" style="fill-opacity: 0; stroke: #000000"/>
     <use xlink:href="#ma4c4042f65" x="295.2" y="371.06423" style="fill-opacity: 0; stroke: #000000"/>
     <use xlink:href="#ma4c4042f65" x="295.2" y="67.67382" style="fill-opacity: 0; stroke: #000000"/>
     <use xlink:href="#ma4c4042f65" x="295.2" y="381.594812" style="fill-opacity: 0; stroke: #000000"/>
     <use xlink:href="#ma4c4042f65" x="295.2" y="381.761099" style="fill-opacity: 0; stroke: #000000"/>
     <use xlink:href="#ma4c4042f65" x="295.2" y="181.617529" style="fill-opacity: 0; stroke: #000000"/>
     <use xlink:href="#ma4c4042f65" x="295.2" y="370.147718" style="fill-opacity: 0; stroke: #000000"/>
     <use xlink:href="#ma4c4042f65" x="295.2" y="369.129901" style="fill-opacity: 0; stroke: #000000"/>
     <use xlink:href="#ma4c4042f65" x="295.2" y="370.070616" style="fill-opacity: 0; stroke: #000000"/>
     <use xlink:href="#ma4c4042f65" x="295.2" y="79.905565" style="fill-opacity: 0; stroke: #000000"/>
     <use xlink:href="#ma4c4042f65" x="295.2" y="381.535675" style="fill-opacity: 0; stroke: #000000"/>
     <use xlink:href="#ma4c4042f65" x="295.2" y="175.584036" style="fill-opacity: 0; stroke: #000000"/>
     <use xlink:href="#ma4c4042f65" x="295.2" y="371.696037" style="fill-opacity: 0; stroke: #000000"/>
     <use xlink:href="#ma4c4042f65" x="295.2" y="371.88542" style="fill-opacity: 0; stroke: #000000"/>
     <use xlink:href="#ma4c4042f65" x="295.2" y="371.661119" style="fill-opacity: 0; stroke: #000000"/>
     <use xlink:href="#ma4c4042f65" x="295.2" y="81.187266" style="fill-opacity: 0; stroke: #000000"/>
     <use xlink:href="#ma4c4042f65" x="295.2" y="381.361409" style="fill-opacity: 0; stroke: #000000"/>
     <use xlink:href="#ma4c4042f65" x="295.2" y="381.643928" style="fill-opacity: 0; stroke: #000000"/>
     <use xlink:href="#ma4c4042f65" x="295.2" y="204.872485" style="fill-opacity: 0; stroke: #000000"/>
     <use xlink:href="#ma4c4042f65" x="295.2" y="351.130016" style="fill-opacity: 0; stroke: #000000"/>
     <use xlink:href="#ma4c4042f65" x="295.2" y="371.743894" style="fill-opacity: 0; stroke: #000000"/>
     <use xlink:href="#ma4c4042f65" x="295.2" y="368.089811" style="fill-opacity: 0; stroke: #000000"/>
     <use xlink:href="#ma4c4042f65" x="295.2" y="92.672881" style="fill-opacity: 0; stroke: #000000"/>
     <use xlink:href="#ma4c4042f65" x="295.2" y="381.13376" style="fill-opacity: 0; stroke: #000000"/>
     <use xlink:href="#ma4c4042f65" x="295.2" y="381.711099" style="fill-opacity: 0; stroke: #000000"/>
     <use xlink:href="#ma4c4042f65" x="295.2" y="181.535643" style="fill-opacity: 0; stroke: #000000"/>
     <use xlink:href="#ma4c4042f65" x="295.2" y="369.843161" style="fill-opacity: 0; stroke: #000000"/>
     <use xlink:href="#ma4c4042f65" x="295.2" y="369.744911" style="fill-opacity: 0; stroke: #000000"/>
     <use xlink:href="#ma4c4042f65" x="295.2" y="371.773795" style="fill-opacity: 0; stroke: #000000"/>
     <use xlink:href="#ma4c4042f65" x="295.2" y="87.844648" style="fill-opacity: 0; stroke: #000000"/>
     <use xlink:href="#ma4c4042f65" x="295.2" y="381.107698" style="fill-opacity: 0; stroke: #000000"/>
     <use xlink:href="#ma4c4042f65" x="295.2" y="380.866533" style="fill-opacity: 0; stroke: #000000"/>
     <use xlink:href="#ma4c4042f65" x="295.2" y="381.18582" style="fill-opacity: 0; stroke: #000000"/>
     <use xlink:href="#ma4c4042f65" x="295.2" y="182.063978" style="fill-opacity: 0; stroke: #000000"/>
     <use xlink:href="#ma4c4042f65" x="295.2" y="371.697886" style="fill-opacity: 0; stroke: #000000"/>
     <use xlink:href="#ma4c4042f65" x="295.2" y="369.537403" style="fill-opacity: 0; stroke: #000000"/>
     <use xlink:href="#ma4c4042f65" x="295.2" y="371.52443" style="fill-opacity: 0; stroke: #000000"/>
     <use xlink:href="#ma4c4042f65" x="295.2" y="77.890892" style="fill-opacity: 0; stroke: #000000"/>
     <use xlink:href="#ma4c4042f65" x="295.2" y="381.271232" style="fill-opacity: 0; stroke: #000000"/>
     <use xlink:href="#ma4c4042f65" x="295.2" y="381.638932" style="fill-opacity: 0; stroke: #000000"/>
     <use xlink:href="#ma4c4042f65" x="295.2" y="180.110574" style="fill-opacity: 0; stroke: #000000"/>
     <use xlink:href="#ma4c4042f65" x="295.2" y="371.791912" style="fill-opacity: 0; stroke: #000000"/>
     <use xlink:href="#ma4c4042f65" x="295.2" y="371.453145" style="fill-opacity: 0; stroke: #000000"/>
     <use xlink:href="#ma4c4042f65" x="295.2" y="371.191007" style="fill-opacity: 0; stroke: #000000"/>
     <use xlink:href="#ma4c4042f65" x="295.2" y="75.761234" style="fill-opacity: 0; stroke: #000000"/>
     <use xlink:href="#ma4c4042f65" x="295.2" y="380.061606" style="fill-opacity: 0; stroke: #000000"/>
     <use xlink:href="#ma4c4042f65" x="295.2" y="380.903554" style="fill-opacity: 0; stroke: #000000"/>
     <use xlink:href="#ma4c4042f65" x="295.2" y="379.732873" style="fill-opacity: 0; stroke: #000000"/>
     <use xlink:href="#ma4c4042f65" x="295.2" y="380.806988" style="fill-opacity: 0; stroke: #000000"/>
     <use xlink:href="#ma4c4042f65" x="295.2" y="379.880055" style="fill-opacity: 0; stroke: #000000"/>
     <use xlink:href="#ma4c4042f65" x="295.2" y="378.910136" style="fill-opacity: 0; stroke: #000000"/>
     <use xlink:href="#ma4c4042f65" x="295.2" y="380.523491" style="fill-opacity: 0; stroke: #000000"/>
     <use xlink:href="#ma4c4042f65" x="295.2" y="184.75926" style="fill-opacity: 0; stroke: #000000"/>
     <use xlink:href="#ma4c4042f65" x="295.2" y="371.615682" style="fill-opacity: 0; stroke: #000000"/>
     <use xlink:href="#ma4c4042f65" x="295.2" y="372.162424" style="fill-opacity: 0; stroke: #000000"/>
     <use xlink:href="#ma4c4042f65" x="295.2" y="371.869707" style="fill-opacity: 0; stroke: #000000"/>
     <use xlink:href="#ma4c4042f65" x="295.2" y="86.834178" style="fill-opacity: 0; stroke: #000000"/>
     <use xlink:href="#ma4c4042f65" x="295.2" y="381.240671" style="fill-opacity: 0; stroke: #000000"/>
     <use xlink:href="#ma4c4042f65" x="295.2" y="381.748013" style="fill-opacity: 0; stroke: #000000"/>
     <use xlink:href="#ma4c4042f65" x="295.2" y="381.074781" style="fill-opacity: 0; stroke: #000000"/>
     <use xlink:href="#ma4c4042f65" x="295.2" y="183.702568" style="fill-opacity: 0; stroke: #000000"/>
     <use xlink:href="#ma4c4042f65" x="295.2" y="365.698884" style="fill-opacity: 0; stroke: #000000"/>
     <use xlink:href="#ma4c4042f65" x="295.2" y="367.835901" style="fill-opacity: 0; stroke: #000000"/>
     <use xlink:href="#ma4c4042f65" x="295.2" y="371.123782" style="fill-opacity: 0; stroke: #000000"/>
     <use xlink:href="#ma4c4042f65" x="295.2" y="74.185977" style="fill-opacity: 0; stroke: #000000"/>
     <use xlink:href="#ma4c4042f65" x="295.2" y="381.340341" style="fill-opacity: 0; stroke: #000000"/>
     <use xlink:href="#ma4c4042f65" x="295.2" y="381.575733" style="fill-opacity: 0; stroke: #000000"/>
     <use xlink:href="#ma4c4042f65" x="295.2" y="381.645094" style="fill-opacity: 0; stroke: #000000"/>
     <use xlink:href="#ma4c4042f65" x="295.2" y="381.595479" style="fill-opacity: 0; stroke: #000000"/>
     <use xlink:href="#ma4c4042f65" x="295.2" y="173.956365" style="fill-opacity: 0; stroke: #000000"/>
     <use xlink:href="#ma4c4042f65" x="295.2" y="372.137121" style="fill-opacity: 0; stroke: #000000"/>
     <use xlink:href="#ma4c4042f65" x="295.2" y="371.951542" style="fill-opacity: 0; stroke: #000000"/>
     <use xlink:href="#ma4c4042f65" x="295.2" y="372.039879" style="fill-opacity: 0; stroke: #000000"/>
     <use xlink:href="#ma4c4042f65" x="295.2" y="83.175996" style="fill-opacity: 0; stroke: #000000"/>
    </g>
   </g>
   <g id="line2d_12">
    <path d="M 250.56 383.338387 
L 339.84 383.338387 
" clip-path="url(#p46178600a2)" style="fill: none; stroke: #ff7f0e"/>
   </g>
   <g id="patch_4">
    <path d="M 72 384.48 
L 72 51.84 
" style="fill: none; stroke: #000000; stroke-width: 0.8; stroke-linejoin: miter; stroke-linecap: square"/>
   </g>
   <g id="patch_5">
    <path d="M 518.4 384.48 
L 518.4 51.84 
" style="fill: none; stroke: #000000; stroke-width: 0.8; stroke-linejoin: miter; stroke-linecap: square"/>
   </g>
   <g id="patch_6">
    <path d="M 72 384.48 
L 518.4 384.48 
" style="fill: none; stroke: #000000; stroke-width: 0.8; stroke-linejoin: miter; stroke-linecap: square"/>
   </g>
   <g id="patch_7">
    <path d="M 72 51.84 
L 518.4 51.84 
" style="fill: none; stroke: #000000; stroke-width: 0.8; stroke-linejoin: miter; stroke-linecap: square"/>
   </g>
   <g id="text_8">
    <!-- Next Faultload -->
    <g transform="translate(252.088125 45.84) scale(0.12 -0.12)">
     <defs>
      <path id="DejaVuSans-4e" d="M 628 4666 
L 1478 4666 
L 3547 763 
L 3547 4666 
L 4159 4666 
L 4159 0 
L 3309 0 
L 1241 3903 
L 1241 0 
L 628 0 
L 628 4666 
z
" transform="scale(0.015625)"/>
      <path id="DejaVuSans-78" d="M 3513 3500 
L 2247 1797 
L 3578 0 
L 2900 0 
L 1881 1375 
L 863 0 
L 184 0 
L 1544 1831 
L 300 3500 
L 978 3500 
L 1906 2253 
L 2834 3500 
L 3513 3500 
z
" transform="scale(0.015625)"/>
      <path id="DejaVuSans-74" d="M 1172 4494 
L 1172 3500 
L 2356 3500 
L 2356 3053 
L 1172 3053 
L 1172 1153 
Q 1172 725 1289 603 
Q 1406 481 1766 481 
L 2356 481 
L 2356 0 
L 1766 0 
Q 1100 0 847 248 
Q 594 497 594 1153 
L 594 3053 
L 172 3053 
L 172 3500 
L 594 3500 
L 594 4494 
L 1172 4494 
z
" transform="scale(0.015625)"/>
      <path id="DejaVuSans-46" d="M 628 4666 
L 3309 4666 
L 3309 4134 
L 1259 4134 
L 1259 2759 
L 3109 2759 
L 3109 2228 
L 1259 2228 
L 1259 0 
L 628 0 
L 628 4666 
z
" transform="scale(0.015625)"/>
      <path id="DejaVuSans-61" d="M 2194 1759 
Q 1497 1759 1228 1600 
Q 959 1441 959 1056 
Q 959 750 1161 570 
Q 1363 391 1709 391 
Q 2188 391 2477 730 
Q 2766 1069 2766 1631 
L 2766 1759 
L 2194 1759 
z
M 3341 1997 
L 3341 0 
L 2766 0 
L 2766 531 
Q 2569 213 2275 61 
Q 1981 -91 1556 -91 
Q 1019 -91 701 211 
Q 384 513 384 1019 
Q 384 1609 779 1909 
Q 1175 2209 1959 2209 
L 2766 2209 
L 2766 2266 
Q 2766 2663 2505 2880 
Q 2244 3097 1772 3097 
Q 1472 3097 1187 3025 
Q 903 2953 641 2809 
L 641 3341 
Q 956 3463 1253 3523 
Q 1550 3584 1831 3584 
Q 2591 3584 2966 3190 
Q 3341 2797 3341 1997 
z
" transform="scale(0.015625)"/>
      <path id="DejaVuSans-75" d="M 544 1381 
L 544 3500 
L 1119 3500 
L 1119 1403 
Q 1119 906 1312 657 
Q 1506 409 1894 409 
Q 2359 409 2629 706 
Q 2900 1003 2900 1516 
L 2900 3500 
L 3475 3500 
L 3475 0 
L 2900 0 
L 2900 538 
Q 2691 219 2414 64 
Q 2138 -91 1772 -91 
Q 1169 -91 856 284 
Q 544 659 544 1381 
z
M 1991 3584 
L 1991 3584 
z
" transform="scale(0.015625)"/>
      <path id="DejaVuSans-6c" d="M 603 4863 
L 1178 4863 
L 1178 0 
L 603 0 
L 603 4863 
z
" transform="scale(0.015625)"/>
      <path id="DejaVuSans-6f" d="M 1959 3097 
Q 1497 3097 1228 2736 
Q 959 2375 959 1747 
Q 959 1119 1226 758 
Q 1494 397 1959 397 
Q 2419 397 2687 759 
Q 2956 1122 2956 1747 
Q 2956 2369 2687 2733 
Q 2419 3097 1959 3097 
z
M 1959 3584 
Q 2709 3584 3137 3096 
Q 3566 2609 3566 1747 
Q 3566 888 3137 398 
Q 2709 -91 1959 -91 
Q 1206 -91 779 398 
Q 353 888 353 1747 
Q 353 2609 779 3096 
Q 1206 3584 1959 3584 
z
" transform="scale(0.015625)"/>
      <path id="DejaVuSans-64" d="M 2906 2969 
L 2906 4863 
L 3481 4863 
L 3481 0 
L 2906 0 
L 2906 525 
Q 2725 213 2448 61 
Q 2172 -91 1784 -91 
Q 1150 -91 751 415 
Q 353 922 353 1747 
Q 353 2572 751 3078 
Q 1150 3584 1784 3584 
Q 2172 3584 2448 3432 
Q 2725 3281 2906 2969 
z
M 947 1747 
Q 947 1113 1208 752 
Q 1469 391 1925 391 
Q 2381 391 2643 752 
Q 2906 1113 2906 1747 
Q 2906 2381 2643 2742 
Q 2381 3103 1925 3103 
Q 1469 3103 1208 2742 
Q 947 2381 947 1747 
z
" transform="scale(0.015625)"/>
     </defs>
     <use xlink:href="#DejaVuSans-4e"/>
     <use xlink:href="#DejaVuSans-65" transform="translate(74.804688 0)"/>
     <use xlink:href="#DejaVuSans-78" transform="translate(134.578125 0)"/>
     <use xlink:href="#DejaVuSans-74" transform="translate(193.757812 0)"/>
     <use xlink:href="#DejaVuSans-20" transform="translate(232.966797 0)"/>
     <use xlink:href="#DejaVuSans-46" transform="translate(264.753906 0)"/>
     <use xlink:href="#DejaVuSans-61" transform="translate(313.148438 0)"/>
     <use xlink:href="#DejaVuSans-75" transform="translate(374.427734 0)"/>
     <use xlink:href="#DejaVuSans-6c" transform="translate(437.806641 0)"/>
     <use xlink:href="#DejaVuSans-74" transform="translate(465.589844 0)"/>
     <use xlink:href="#DejaVuSans-6c" transform="translate(504.798828 0)"/>
     <use xlink:href="#DejaVuSans-6f" transform="translate(532.582031 0)"/>
     <use xlink:href="#DejaVuSans-61" transform="translate(593.763672 0)"/>
     <use xlink:href="#DejaVuSans-64" transform="translate(655.042969 0)"/>
    </g>
   </g>
  </g>
 </g>
 <defs>
  <clipPath id="p46178600a2">
   <rect x="72" y="51.84" width="446.4" height="332.64"/>
  </clipPath>
 </defs>
</svg>
