<?xml version="1.0" encoding="utf-8" standalone="no"?>
<!DOCTYPE svg PUBLIC "-//W3C//DTD SVG 1.1//EN"
  "http://www.w3.org/Graphics/SVG/1.1/DTD/svg11.dtd">
<svg xmlns:xlink="http://www.w3.org/1999/xlink" width="576pt" height="432pt" viewBox="0 0 576 432" xmlns="http://www.w3.org/2000/svg" version="1.1">
 <metadata>
  <rdf:RDF xmlns:dc="http://purl.org/dc/elements/1.1/" xmlns:cc="http://creativecommons.org/ns#" xmlns:rdf="http://www.w3.org/1999/02/22-rdf-syntax-ns#">
   <cc:Work>
    <dc:type rdf:resource="http://purl.org/dc/dcmitype/StillImage"/>
    <dc:date>2025-09-30T20:43:33.347720</dc:date>
    <dc:format>image/svg+xml</dc:format>
    <dc:creator>
     <cc:Agent>
      <dc:title>Matplotlib v3.10.3, https://matplotlib.org/</dc:title>
     </cc:Agent>
    </dc:creator>
   </cc:Work>
  </rdf:RDF>
 </metadata>
 <defs>
  <style type="text/css">*{stroke-linejoin: round; stroke-linecap: butt}</style>
 </defs>
 <g id="figure_1">
  <g id="patch_1">
   <path d="M 0 432 
L 576 432 
L 576 0 
L 0 0 
z
" style="fill: #ffffff"/>
  </g>
  <g id="axes_1">
   <g id="patch_2">
    <path d="M 72 384.48 
L 518.4 384.48 
L 518.4 51.84 
L 72 51.84 
z
" style="fill: #ffffff"/>
   </g>
   <g id="FillBetweenPolyCollection_1">
    <path d="M 313.905111 376.027302 
L 276.494889 376.027302 
L 260.910219 372.908617 
L 238.261186 369.789932 
L 213.653326 366.671247 
L 194.385653 363.552562 
L 183.6 360.433877 
L 193.33126 357.315192 
L 228.061875 354.196507 
L 264.882467 351.077822 
L 285.123105 347.959137 
L 291.927843 344.840452 
L 293.639104 341.721767 
L 294.155317 338.603082 
L 294.409433 335.484397 
L 294.459828 332.365713 
L 294.31662 329.247028 
L 294.078442 326.128343 
L 293.46904 323.009658 
L 292.339313 319.890973 
L 291.697002 316.772288 
L 292.311929 313.653603 
L 293.407965 310.534918 
L 294.239351 307.416233 
L 294.778788 304.297548 
L 295.07284 301.178863 
L 295.17647 298.060178 
L 295.197469 294.941493 
L 295.199845 291.822808 
L 295.199995 288.704123 
L 295.2 285.585438 
L 295.2 282.466753 
L 295.2 279.348068 
L 295.2 276.229383 
L 295.2 273.110698 
L 295.2 269.992013 
L 295.2 266.873328 
L 295.2 263.754643 
L 295.2 260.635958 
L 295.2 257.517273 
L 295.2 254.398588 
L 295.2 251.279903 
L 295.2 248.161218 
L 295.2 245.042534 
L 295.2 241.923849 
L 295.2 238.805164 
L 295.2 235.686479 
L 295.2 232.567794 
L 295.2 229.449109 
L 295.2 226.330424 
L 295.2 223.211739 
L 295.2 220.093054 
L 295.2 216.974369 
L 295.2 213.855684 
L 295.2 210.736999 
L 295.2 207.618314 
L 295.2 204.499629 
L 295.2 201.380944 
L 295.2 198.262259 
L 295.2 195.143574 
L 295.2 192.024889 
L 295.2 188.906204 
L 295.2 185.787519 
L 295.2 182.668834 
L 295.2 179.550149 
L 295.2 176.431464 
L 295.2 173.312779 
L 295.2 170.194094 
L 295.2 167.075409 
L 295.2 163.956724 
L 295.2 160.838039 
L 295.2 157.719355 
L 295.2 154.60067 
L 295.2 151.481985 
L 295.2 148.3633 
L 295.2 145.244615 
L 295.2 142.12593 
L 295.2 139.007245 
L 295.2 135.88856 
L 295.2 132.769875 
L 295.2 129.65119 
L 295.2 126.532505 
L 295.2 123.41382 
L 295.2 120.295135 
L 295.2 117.17645 
L 295.2 114.057765 
L 295.2 110.93908 
L 295.2 107.820395 
L 295.2 104.70171 
L 295.2 101.583025 
L 295.2 98.46434 
L 295.2 95.345655 
L 295.2 92.22697 
L 295.2 89.108285 
L 295.199993 85.9896 
L 295.199824 82.870915 
L 295.197409 79.75223 
L 295.179041 76.633545 
L 295.106713 73.51486 
L 294.971492 70.396176 
L 294.89197 67.277491 
L 295.50803 67.277491 
L 295.50803 67.277491 
L 295.428508 70.396176 
L 295.293287 73.51486 
L 295.220959 76.633545 
L 295.202591 79.75223 
L 295.200176 82.870915 
L 295.200007 85.9896 
L 295.2 89.108285 
L 295.2 92.22697 
L 295.2 95.345655 
L 295.2 98.46434 
L 295.2 101.583025 
L 295.2 104.70171 
L 295.2 107.820395 
L 295.2 110.93908 
L 295.2 114.057765 
L 295.2 117.17645 
L 295.2 120.295135 
L 295.2 123.41382 
L 295.2 126.532505 
L 295.2 129.65119 
L 295.2 132.769875 
L 295.2 135.88856 
L 295.2 139.007245 
L 295.2 142.12593 
L 295.2 145.244615 
L 295.2 148.3633 
L 295.2 151.481985 
L 295.2 154.60067 
L 295.2 157.719355 
L 295.2 160.838039 
L 295.2 163.956724 
L 295.2 167.075409 
L 295.2 170.194094 
L 295.2 173.312779 
L 295.2 176.431464 
L 295.2 179.550149 
L 295.2 182.668834 
L 295.2 185.787519 
L 295.2 188.906204 
L 295.2 192.024889 
L 295.2 195.143574 
L 295.2 198.262259 
L 295.2 201.380944 
L 295.2 204.499629 
L 295.2 207.618314 
L 295.2 210.736999 
L 295.2 213.855684 
L 295.2 216.974369 
L 295.2 220.093054 
L 295.2 223.211739 
L 295.2 226.330424 
L 295.2 229.449109 
L 295.2 232.567794 
L 295.2 235.686479 
L 295.2 238.805164 
L 295.2 241.923849 
L 295.2 245.042534 
L 295.2 248.161218 
L 295.2 251.279903 
L 295.2 254.398588 
L 295.2 257.517273 
L 295.2 260.635958 
L 295.2 263.754643 
L 295.2 266.873328 
L 295.2 269.992013 
L 295.2 273.110698 
L 295.2 276.229383 
L 295.2 279.348068 
L 295.2 282.466753 
L 295.2 285.585438 
L 295.200005 288.704123 
L 295.200155 291.822808 
L 295.202531 294.941493 
L 295.22353 298.060178 
L 295.32716 301.178863 
L 295.621212 304.297548 
L 296.160649 307.416233 
L 296.992035 310.534918 
L 298.088071 313.653603 
L 298.702998 316.772288 
L 298.060687 319.890973 
L 296.93096 323.009658 
L 296.321558 326.128343 
L 296.08338 329.247028 
L 295.940172 332.365713 
L 295.990567 335.484397 
L 296.244683 338.603082 
L 296.760896 341.721767 
L 298.472157 344.840452 
L 305.276895 347.959137 
L 325.517533 351.077822 
L 362.338125 354.196507 
L 397.06874 357.315192 
L 406.8 360.433877 
L 396.014347 363.552562 
L 376.746674 366.671247 
L 352.138814 369.789932 
L 329.489781 372.908617 
L 313.905111 376.027302 
z
" clip-path="url(#p8e428f7d33)" style="fill: #1f77b4; fill-opacity: 0.3"/>
   </g>
   <g id="matplotlib.axis_1">
    <g id="xtick_1">
     <g id="line2d_1">
      <defs>
       <path id="mfca133f103" d="M 0 0 
L 0 3.5 
" style="stroke: #000000; stroke-width: 0.8"/>
      </defs>
      <g>
       <use xlink:href="#mfca133f103" x="295.2" y="384.48" style="stroke: #000000; stroke-width: 0.8"/>
      </g>
     </g>
     <g id="text_1">
      <!-- 1 -->
      <g transform="translate(292.01875 399.078438) scale(0.1 -0.1)">
       <defs>
        <path id="DejaVuSans-31" d="M 794 531 
L 1825 531 
L 1825 4091 
L 703 3866 
L 703 4441 
L 1819 4666 
L 2450 4666 
L 2450 531 
L 3481 531 
L 3481 0 
L 794 0 
L 794 531 
z
" transform="scale(0.015625)"/>
       </defs>
       <use xlink:href="#DejaVuSans-31"/>
      </g>
     </g>
    </g>
   </g>
   <g id="matplotlib.axis_2">
    <g id="ytick_1">
     <g id="line2d_2">
      <defs>
       <path id="m77abc09b1b" d="M 0 0 
L -3.5 0 
" style="stroke: #000000; stroke-width: 0.8"/>
      </defs>
      <g>
       <use xlink:href="#m77abc09b1b" x="72" y="384.48" style="stroke: #000000; stroke-width: 0.8"/>
      </g>
     </g>
     <g id="text_2">
      <!-- 0 -->
      <g transform="translate(58.6375 388.279219) scale(0.1 -0.1)">
       <defs>
        <path id="DejaVuSans-30" d="M 2034 4250 
Q 1547 4250 1301 3770 
Q 1056 3291 1056 2328 
Q 1056 1369 1301 889 
Q 1547 409 2034 409 
Q 2525 409 2770 889 
Q 3016 1369 3016 2328 
Q 3016 3291 2770 3770 
Q 2525 4250 2034 4250 
z
M 2034 4750 
Q 2819 4750 3233 4129 
Q 3647 3509 3647 2328 
Q 3647 1150 3233 529 
Q 2819 -91 2034 -91 
Q 1250 -91 836 529 
Q 422 1150 422 2328 
Q 422 3509 836 4129 
Q 1250 4750 2034 4750 
z
" transform="scale(0.015625)"/>
       </defs>
       <use xlink:href="#DejaVuSans-30"/>
      </g>
     </g>
    </g>
    <g id="ytick_2">
     <g id="line2d_3">
      <g>
       <use xlink:href="#m77abc09b1b" x="72" y="312.721102" style="stroke: #000000; stroke-width: 0.8"/>
      </g>
     </g>
     <g id="text_3">
      <!-- 200 -->
      <g transform="translate(45.9125 316.520321) scale(0.1 -0.1)">
       <defs>
        <path id="DejaVuSans-32" d="M 1228 531 
L 3431 531 
L 3431 0 
L 469 0 
L 469 531 
Q 828 903 1448 1529 
Q 2069 2156 2228 2338 
Q 2531 2678 2651 2914 
Q 2772 3150 2772 3378 
Q 2772 3750 2511 3984 
Q 2250 4219 1831 4219 
Q 1534 4219 1204 4116 
Q 875 4013 500 3803 
L 500 4441 
Q 881 4594 1212 4672 
Q 1544 4750 1819 4750 
Q 2544 4750 2975 4387 
Q 3406 4025 3406 3419 
Q 3406 3131 3298 2873 
Q 3191 2616 2906 2266 
Q 2828 2175 2409 1742 
Q 1991 1309 1228 531 
z
" transform="scale(0.015625)"/>
       </defs>
       <use xlink:href="#DejaVuSans-32"/>
       <use xlink:href="#DejaVuSans-30" transform="translate(63.623047 0)"/>
       <use xlink:href="#DejaVuSans-30" transform="translate(127.246094 0)"/>
      </g>
     </g>
    </g>
    <g id="ytick_3">
     <g id="line2d_4">
      <g>
       <use xlink:href="#m77abc09b1b" x="72" y="240.962204" style="stroke: #000000; stroke-width: 0.8"/>
      </g>
     </g>
     <g id="text_4">
      <!-- 400 -->
      <g transform="translate(45.9125 244.761423) scale(0.1 -0.1)">
       <defs>
        <path id="DejaVuSans-34" d="M 2419 4116 
L 825 1625 
L 2419 1625 
L 2419 4116 
z
M 2253 4666 
L 3047 4666 
L 3047 1625 
L 3713 1625 
L 3713 1100 
L 3047 1100 
L 3047 0 
L 2419 0 
L 2419 1100 
L 313 1100 
L 313 1709 
L 2253 4666 
z
" transform="scale(0.015625)"/>
       </defs>
       <use xlink:href="#DejaVuSans-34"/>
       <use xlink:href="#DejaVuSans-30" transform="translate(63.623047 0)"/>
       <use xlink:href="#DejaVuSans-30" transform="translate(127.246094 0)"/>
      </g>
     </g>
    </g>
    <g id="ytick_4">
     <g id="line2d_5">
      <g>
       <use xlink:href="#m77abc09b1b" x="72" y="169.203307" style="stroke: #000000; stroke-width: 0.8"/>
      </g>
     </g>
     <g id="text_5">
      <!-- 600 -->
      <g transform="translate(45.9125 173.002525) scale(0.1 -0.1)">
       <defs>
        <path id="DejaVuSans-36" d="M 2113 2584 
Q 1688 2584 1439 2293 
Q 1191 2003 1191 1497 
Q 1191 994 1439 701 
Q 1688 409 2113 409 
Q 2538 409 2786 701 
Q 3034 994 3034 1497 
Q 3034 2003 2786 2293 
Q 2538 2584 2113 2584 
z
M 3366 4563 
L 3366 3988 
Q 3128 4100 2886 4159 
Q 2644 4219 2406 4219 
Q 1781 4219 1451 3797 
Q 1122 3375 1075 2522 
Q 1259 2794 1537 2939 
Q 1816 3084 2150 3084 
Q 2853 3084 3261 2657 
Q 3669 2231 3669 1497 
Q 3669 778 3244 343 
Q 2819 -91 2113 -91 
Q 1303 -91 875 529 
Q 447 1150 447 2328 
Q 447 3434 972 4092 
Q 1497 4750 2381 4750 
Q 2619 4750 2861 4703 
Q 3103 4656 3366 4563 
z
" transform="scale(0.015625)"/>
       </defs>
       <use xlink:href="#DejaVuSans-36"/>
       <use xlink:href="#DejaVuSans-30" transform="translate(63.623047 0)"/>
       <use xlink:href="#DejaVuSans-30" transform="translate(127.246094 0)"/>
      </g>
     </g>
    </g>
    <g id="ytick_5">
     <g id="line2d_6">
      <g>
       <use xlink:href="#m77abc09b1b" x="72" y="97.444409" style="stroke: #000000; stroke-width: 0.8"/>
      </g>
     </g>
     <g id="text_6">
      <!-- 800 -->
      <g transform="translate(45.9125 101.243628) scale(0.1 -0.1)">
       <defs>
        <path id="DejaVuSans-38" d="M 2034 2216 
Q 1584 2216 1326 1975 
Q 1069 1734 1069 1313 
Q 1069 891 1326 650 
Q 1584 409 2034 409 
Q 2484 409 2743 651 
Q 3003 894 3003 1313 
Q 3003 1734 2745 1975 
Q 2488 2216 2034 2216 
z
M 1403 2484 
Q 997 2584 770 2862 
Q 544 3141 544 3541 
Q 544 4100 942 4425 
Q 1341 4750 2034 4750 
Q 2731 4750 3128 4425 
Q 3525 4100 3525 3541 
Q 3525 3141 3298 2862 
Q 3072 2584 2669 2484 
Q 3125 2378 3379 2068 
Q 3634 1759 3634 1313 
Q 3634 634 3220 271 
Q 2806 -91 2034 -91 
Q 1263 -91 848 271 
Q 434 634 434 1313 
Q 434 1759 690 2068 
Q 947 2378 1403 2484 
z
M 1172 3481 
Q 1172 3119 1398 2916 
Q 1625 2713 2034 2713 
Q 2441 2713 2670 2916 
Q 2900 3119 2900 3481 
Q 2900 3844 2670 4047 
Q 2441 4250 2034 4250 
Q 1625 4250 1398 4047 
Q 1172 3844 1172 3481 
z
" transform="scale(0.015625)"/>
       </defs>
       <use xlink:href="#DejaVuSans-38"/>
       <use xlink:href="#DejaVuSans-30" transform="translate(63.623047 0)"/>
       <use xlink:href="#DejaVuSans-30" transform="translate(127.246094 0)"/>
      </g>
     </g>
    </g>
    <g id="text_7">
     <!-- Time (ms) -->
     <g transform="translate(39.832812 243.359219) rotate(-90) scale(0.1 -0.1)">
      <defs>
       <path id="DejaVuSans-54" d="M -19 4666 
L 3928 4666 
L 3928 4134 
L 2272 4134 
L 2272 0 
L 1638 0 
L 1638 4134 
L -19 4134 
L -19 4666 
z
" transform="scale(0.015625)"/>
       <path id="DejaVuSans-69" d="M 603 3500 
L 1178 3500 
L 1178 0 
L 603 0 
L 603 3500 
z
M 603 4863 
L 1178 4863 
L 1178 4134 
L 603 4134 
L 603 4863 
z
" transform="scale(0.015625)"/>
       <path id="DejaVuSans-6d" d="M 3328 2828 
Q 3544 3216 3844 3400 
Q 4144 3584 4550 3584 
Q 5097 3584 5394 3201 
Q 5691 2819 5691 2113 
L 5691 0 
L 5113 0 
L 5113 2094 
Q 5113 2597 4934 2840 
Q 4756 3084 4391 3084 
Q 3944 3084 3684 2787 
Q 3425 2491 3425 1978 
L 3425 0 
L 2847 0 
L 2847 2094 
Q 2847 2600 2669 2842 
Q 2491 3084 2119 3084 
Q 1678 3084 1418 2786 
Q 1159 2488 1159 1978 
L 1159 0 
L 581 0 
L 581 3500 
L 1159 3500 
L 1159 2956 
Q 1356 3278 1631 3431 
Q 1906 3584 2284 3584 
Q 2666 3584 2933 3390 
Q 3200 3197 3328 2828 
z
" transform="scale(0.015625)"/>
       <path id="DejaVuSans-65" d="M 3597 1894 
L 3597 1613 
L 953 1613 
Q 991 1019 1311 708 
Q 1631 397 2203 397 
Q 2534 397 2845 478 
Q 3156 559 3463 722 
L 3463 178 
Q 3153 47 2828 -22 
Q 2503 -91 2169 -91 
Q 1331 -91 842 396 
Q 353 884 353 1716 
Q 353 2575 817 3079 
Q 1281 3584 2069 3584 
Q 2775 3584 3186 3129 
Q 3597 2675 3597 1894 
z
M 3022 2063 
Q 3016 2534 2758 2815 
Q 2500 3097 2075 3097 
Q 1594 3097 1305 2825 
Q 1016 2553 972 2059 
L 3022 2063 
z
" transform="scale(0.015625)"/>
       <path id="DejaVuSans-20" transform="scale(0.015625)"/>
       <path id="DejaVuSans-28" d="M 1984 4856 
Q 1566 4138 1362 3434 
Q 1159 2731 1159 2009 
Q 1159 1288 1364 580 
Q 1569 -128 1984 -844 
L 1484 -844 
Q 1016 -109 783 600 
Q 550 1309 550 2009 
Q 550 2706 781 3412 
Q 1013 4119 1484 4856 
L 1984 4856 
z
" transform="scale(0.015625)"/>
       <path id="DejaVuSans-73" d="M 2834 3397 
L 2834 2853 
Q 2591 2978 2328 3040 
Q 2066 3103 1784 3103 
Q 1356 3103 1142 2972 
Q 928 2841 928 2578 
Q 928 2378 1081 2264 
Q 1234 2150 1697 2047 
L 1894 2003 
Q 2506 1872 2764 1633 
Q 3022 1394 3022 966 
Q 3022 478 2636 193 
Q 2250 -91 1575 -91 
Q 1294 -91 989 -36 
Q 684 19 347 128 
L 347 722 
Q 666 556 975 473 
Q 1284 391 1588 391 
Q 1994 391 2212 530 
Q 2431 669 2431 922 
Q 2431 1156 2273 1281 
Q 2116 1406 1581 1522 
L 1381 1569 
Q 847 1681 609 1914 
Q 372 2147 372 2553 
Q 372 3047 722 3315 
Q 1072 3584 1716 3584 
Q 2034 3584 2315 3537 
Q 2597 3491 2834 3397 
z
" transform="scale(0.015625)"/>
       <path id="DejaVuSans-29" d="M 513 4856 
L 1013 4856 
Q 1481 4119 1714 3412 
Q 1947 2706 1947 2009 
Q 1947 1309 1714 600 
Q 1481 -109 1013 -844 
L 513 -844 
Q 928 -128 1133 580 
Q 1338 1288 1338 2009 
Q 1338 2731 1133 3434 
Q 928 4138 513 4856 
z
" transform="scale(0.015625)"/>
      </defs>
      <use xlink:href="#DejaVuSans-54"/>
      <use xlink:href="#DejaVuSans-69" transform="translate(57.958984 0)"/>
      <use xlink:href="#DejaVuSans-6d" transform="translate(85.742188 0)"/>
      <use xlink:href="#DejaVuSans-65" transform="translate(183.154297 0)"/>
      <use xlink:href="#DejaVuSans-20" transform="translate(244.677734 0)"/>
      <use xlink:href="#DejaVuSans-28" transform="translate(276.464844 0)"/>
      <use xlink:href="#DejaVuSans-6d" transform="translate(315.478516 0)"/>
      <use xlink:href="#DejaVuSans-73" transform="translate(412.890625 0)"/>
      <use xlink:href="#DejaVuSans-29" transform="translate(464.990234 0)"/>
     </g>
    </g>
   </g>
   <g id="LineCollection_1">
    <path d="M 239.4 360.448139 
L 351 360.448139 
" clip-path="url(#p8e428f7d33)" style="fill: none; stroke: #1f77b4; stroke-width: 1.5"/>
   </g>
   <g id="LineCollection_2">
    <path d="M 239.4 67.277491 
L 351 67.277491 
" clip-path="url(#p8e428f7d33)" style="fill: none; stroke: #1f77b4; stroke-width: 1.5"/>
   </g>
   <g id="LineCollection_3">
    <path d="M 239.4 376.027302 
L 351 376.027302 
" clip-path="url(#p8e428f7d33)" style="fill: none; stroke: #1f77b4; stroke-width: 1.5"/>
   </g>
   <g id="LineCollection_4">
    <path d="M 295.2 376.027302 
L 295.2 67.277491 
" clip-path="url(#p8e428f7d33)" style="fill: none; stroke: #1f77b4; stroke-width: 1.5"/>
   </g>
   <g id="patch_3">
    <path d="M 250.56 366.287485 
L 339.84 366.287485 
L 339.84 357.674553 
L 250.56 357.674553 
L 250.56 366.287485 
z
" clip-path="url(#p8e428f7d33)" style="fill: #1f77b4; stroke: #000000; stroke-linejoin: miter"/>
   </g>
   <g id="line2d_7">
    <path d="M 295.2 366.287485 
L 295.2 376.027302 
" clip-path="url(#p8e428f7d33)" style="fill: none; stroke: #000000; stroke-linecap: square"/>
   </g>
   <g id="line2d_8">
    <path d="M 295.2 357.674553 
L 295.2 347.542679 
" clip-path="url(#p8e428f7d33)" style="fill: none; stroke: #000000; stroke-linecap: square"/>
   </g>
   <g id="line2d_9">
    <path d="M 272.88 376.027302 
L 317.52 376.027302 
" clip-path="url(#p8e428f7d33)" style="fill: none; stroke: #000000; stroke-linecap: square"/>
   </g>
   <g id="line2d_10">
    <path d="M 272.88 347.542679 
L 317.52 347.542679 
" clip-path="url(#p8e428f7d33)" style="fill: none; stroke: #000000; stroke-linecap: square"/>
   </g>
   <g id="line2d_11">
    <defs>
     <path id="m610d9315c6" d="M 0 3 
C 0.795609 3 1.55874 2.683901 2.12132 2.12132 
C 2.683901 1.55874 3 0.795609 3 0 
C 3 -0.795609 2.683901 -1.55874 2.12132 -2.12132 
C 1.55874 -2.683901 0.795609 -3 0 -3 
C -0.795609 -3 -1.55874 -2.683901 -2.12132 -2.12132 
C -2.683901 -1.55874 -3 -0.795609 -3 0 
C -3 0.795609 -2.683901 1.55874 -2.12132 2.12132 
C -1.55874 2.683901 -0.795609 3 0 3 
z
" style="stroke: #000000"/>
    </defs>
    <g clip-path="url(#p8e428f7d33)">
     <use xlink:href="#m610d9315c6" x="295.2" y="316.963543" style="fill-opacity: 0; stroke: #000000"/>
     <use xlink:href="#m610d9315c6" x="295.2" y="344.443113" style="fill-opacity: 0; stroke: #000000"/>
     <use xlink:href="#m610d9315c6" x="295.2" y="316.40357" style="fill-opacity: 0; stroke: #000000"/>
     <use xlink:href="#m610d9315c6" x="295.2" y="317.75022" style="fill-opacity: 0; stroke: #000000"/>
     <use xlink:href="#m610d9315c6" x="295.2" y="312.668188" style="fill-opacity: 0; stroke: #000000"/>
     <use xlink:href="#m610d9315c6" x="295.2" y="317.626887" style="fill-opacity: 0; stroke: #000000"/>
     <use xlink:href="#m610d9315c6" x="295.2" y="317.517655" style="fill-opacity: 0; stroke: #000000"/>
     <use xlink:href="#m610d9315c6" x="295.2" y="309.692979" style="fill-opacity: 0; stroke: #000000"/>
     <use xlink:href="#m610d9315c6" x="295.2" y="67.277491" style="fill-opacity: 0; stroke: #000000"/>
     <use xlink:href="#m610d9315c6" x="295.2" y="338.67826" style="fill-opacity: 0; stroke: #000000"/>
     <use xlink:href="#m610d9315c6" x="295.2" y="325.504233" style="fill-opacity: 0; stroke: #000000"/>
     <use xlink:href="#m610d9315c6" x="295.2" y="337.285382" style="fill-opacity: 0; stroke: #000000"/>
     <use xlink:href="#m610d9315c6" x="295.2" y="327.220013" style="fill-opacity: 0; stroke: #000000"/>
     <use xlink:href="#m610d9315c6" x="295.2" y="319.92877" style="fill-opacity: 0; stroke: #000000"/>
     <use xlink:href="#m610d9315c6" x="295.2" y="317.273632" style="fill-opacity: 0; stroke: #000000"/>
     <use xlink:href="#m610d9315c6" x="295.2" y="330.494654" style="fill-opacity: 0; stroke: #000000"/>
     <use xlink:href="#m610d9315c6" x="295.2" y="316.796297" style="fill-opacity: 0; stroke: #000000"/>
     <use xlink:href="#m610d9315c6" x="295.2" y="317.302498" style="fill-opacity: 0; stroke: #000000"/>
     <use xlink:href="#m610d9315c6" x="295.2" y="313.37937" style="fill-opacity: 0; stroke: #000000"/>
     <use xlink:href="#m610d9315c6" x="295.2" y="344.142717" style="fill-opacity: 0; stroke: #000000"/>
     <use xlink:href="#m610d9315c6" x="295.2" y="316.953161" style="fill-opacity: 0; stroke: #000000"/>
     <use xlink:href="#m610d9315c6" x="295.2" y="307.678611" style="fill-opacity: 0; stroke: #000000"/>
     <use xlink:href="#m610d9315c6" x="295.2" y="344.303964" style="fill-opacity: 0; stroke: #000000"/>
    </g>
   </g>
   <g id="line2d_12">
    <path d="M 250.56 361.366297 
L 339.84 361.366297 
" clip-path="url(#p8e428f7d33)" style="fill: none; stroke: #ff7f0e"/>
   </g>
   <g id="patch_4">
    <path d="M 72 384.48 
L 72 51.84 
" style="fill: none; stroke: #000000; stroke-width: 0.8; stroke-linejoin: miter; stroke-linecap: square"/>
   </g>
   <g id="patch_5">
    <path d="M 518.4 384.48 
L 518.4 51.84 
" style="fill: none; stroke: #000000; stroke-width: 0.8; stroke-linejoin: miter; stroke-linecap: square"/>
   </g>
   <g id="patch_6">
    <path d="M 72 384.48 
L 518.4 384.48 
" style="fill: none; stroke: #000000; stroke-width: 0.8; stroke-linejoin: miter; stroke-linecap: square"/>
   </g>
   <g id="patch_7">
    <path d="M 72 51.84 
L 518.4 51.84 
" style="fill: none; stroke: #000000; stroke-width: 0.8; stroke-linejoin: miter; stroke-linecap: square"/>
   </g>
   <g id="text_8">
    <!-- Test Method -->
    <g transform="translate(258.975 45.84) scale(0.12 -0.12)">
     <defs>
      <path id="DejaVuSans-74" d="M 1172 4494 
L 1172 3500 
L 2356 3500 
L 2356 3053 
L 1172 3053 
L 1172 1153 
Q 1172 725 1289 603 
Q 1406 481 1766 481 
L 2356 481 
L 2356 0 
L 1766 0 
Q 1100 0 847 248 
Q 594 497 594 1153 
L 594 3053 
L 172 3053 
L 172 3500 
L 594 3500 
L 594 4494 
L 1172 4494 
z
" transform="scale(0.015625)"/>
      <path id="DejaVuSans-4d" d="M 628 4666 
L 1569 4666 
L 2759 1491 
L 3956 4666 
L 4897 4666 
L 4897 0 
L 4281 0 
L 4281 4097 
L 3078 897 
L 2444 897 
L 1241 4097 
L 1241 0 
L 628 0 
L 628 4666 
z
" transform="scale(0.015625)"/>
      <path id="DejaVuSans-68" d="M 3513 2113 
L 3513 0 
L 2938 0 
L 2938 2094 
Q 2938 2591 2744 2837 
Q 2550 3084 2163 3084 
Q 1697 3084 1428 2787 
Q 1159 2491 1159 1978 
L 1159 0 
L 581 0 
L 581 4863 
L 1159 4863 
L 1159 2956 
Q 1366 3272 1645 3428 
Q 1925 3584 2291 3584 
Q 2894 3584 3203 3211 
Q 3513 2838 3513 2113 
z
" transform="scale(0.015625)"/>
      <path id="DejaVuSans-6f" d="M 1959 3097 
Q 1497 3097 1228 2736 
Q 959 2375 959 1747 
Q 959 1119 1226 758 
Q 1494 397 1959 397 
Q 2419 397 2687 759 
Q 2956 1122 2956 1747 
Q 2956 2369 2687 2733 
Q 2419 3097 1959 3097 
z
M 1959 3584 
Q 2709 3584 3137 3096 
Q 3566 2609 3566 1747 
Q 3566 888 3137 398 
Q 2709 -91 1959 -91 
Q 1206 -91 779 398 
Q 353 888 353 1747 
Q 353 2609 779 3096 
Q 1206 3584 1959 3584 
z
" transform="scale(0.015625)"/>
      <path id="DejaVuSans-64" d="M 2906 2969 
L 2906 4863 
L 3481 4863 
L 3481 0 
L 2906 0 
L 2906 525 
Q 2725 213 2448 61 
Q 2172 -91 1784 -91 
Q 1150 -91 751 415 
Q 353 922 353 1747 
Q 353 2572 751 3078 
Q 1150 3584 1784 3584 
Q 2172 3584 2448 3432 
Q 2725 3281 2906 2969 
z
M 947 1747 
Q 947 1113 1208 752 
Q 1469 391 1925 391 
Q 2381 391 2643 752 
Q 2906 1113 2906 1747 
Q 2906 2381 2643 2742 
Q 2381 3103 1925 3103 
Q 1469 3103 1208 2742 
Q 947 2381 947 1747 
z
" transform="scale(0.015625)"/>
     </defs>
     <use xlink:href="#DejaVuSans-54"/>
     <use xlink:href="#DejaVuSans-65" transform="translate(44.083984 0)"/>
     <use xlink:href="#DejaVuSans-73" transform="translate(105.607422 0)"/>
     <use xlink:href="#DejaVuSans-74" transform="translate(157.707031 0)"/>
     <use xlink:href="#DejaVuSans-20" transform="translate(196.916016 0)"/>
     <use xlink:href="#DejaVuSans-4d" transform="translate(228.703125 0)"/>
     <use xlink:href="#DejaVuSans-65" transform="translate(314.982422 0)"/>
     <use xlink:href="#DejaVuSans-74" transform="translate(376.505859 0)"/>
     <use xlink:href="#DejaVuSans-68" transform="translate(415.714844 0)"/>
     <use xlink:href="#DejaVuSans-6f" transform="translate(479.09375 0)"/>
     <use xlink:href="#DejaVuSans-64" transform="translate(540.275391 0)"/>
    </g>
   </g>
  </g>
 </g>
 <defs>
  <clipPath id="p8e428f7d33">
   <rect x="72" y="51.84" width="446.4" height="332.64"/>
  </clipPath>
 </defs>
</svg>
