<?xml version="1.0" encoding="utf-8" standalone="no"?>
<!DOCTYPE svg PUBLIC "-//W3C//DTD SVG 1.1//EN"
  "http://www.w3.org/Graphics/SVG/1.1/DTD/svg11.dtd">
<svg xmlns:xlink="http://www.w3.org/1999/xlink" width="576pt" height="432pt" viewBox="0 0 576 432" xmlns="http://www.w3.org/2000/svg" version="1.1">
 <metadata>
  <rdf:RDF xmlns:dc="http://purl.org/dc/elements/1.1/" xmlns:cc="http://creativecommons.org/ns#" xmlns:rdf="http://www.w3.org/1999/02/22-rdf-syntax-ns#">
   <cc:Work>
    <dc:type rdf:resource="http://purl.org/dc/dcmitype/StillImage"/>
    <dc:date>2025-09-30T20:43:43.895460</dc:date>
    <dc:format>image/svg+xml</dc:format>
    <dc:creator>
     <cc:Agent>
      <dc:title>Matplotlib v3.10.3, https://matplotlib.org/</dc:title>
     </cc:Agent>
    </dc:creator>
   </cc:Work>
  </rdf:RDF>
 </metadata>
 <defs>
  <style type="text/css">*{stroke-linejoin: round; stroke-linecap: butt}</style>
 </defs>
 <g id="figure_1">
  <g id="patch_1">
   <path d="M 0 432 
L 576 432 
L 576 0 
L 0 0 
z
" style="fill: #ffffff"/>
  </g>
  <g id="axes_1">
   <g id="patch_2">
    <path d="M 72 384.48 
L 518.4 384.48 
L 518.4 51.84 
L 72 51.84 
z
" style="fill: #ffffff"/>
   </g>
   <g id="FillBetweenPolyCollection_1">
    <path d="M 365.287206 376.66208 
L 225.112794 376.66208 
L 210.263273 373.537288 
L 197.977514 370.412497 
L 189.268452 367.287705 
L 184.51492 364.162914 
L 183.6 361.038122 
L 186.130198 357.913331 
L 191.585981 354.788539 
L 199.35955 351.663748 
L 208.736389 348.538956 
L 218.901661 345.414165 
L 229.009915 342.289373 
L 238.301142 339.164581 
L 246.217984 336.03979 
L 252.482009 332.914998 
L 257.106254 329.790207 
L 260.343183 326.665415 
L 262.585841 323.540624 
L 264.252335 320.415832 
L 265.687612 317.291041 
L 267.109516 314.166249 
L 268.608665 311.041458 
L 270.188791 307.916666 
L 271.817692 304.791875 
L 273.460143 301.667083 
L 275.083293 298.542292 
L 276.647627 295.4175 
L 278.10485 292.292708 
L 279.412713 289.167917 
L 280.557629 286.043125 
L 281.56621 282.918334 
L 282.494202 279.793542 
L 283.398108 276.668751 
L 284.306874 273.543959 
L 285.209405 270.419168 
L 286.062032 267.294376 
L 286.808812 264.169585 
L 287.404243 261.044793 
L 287.830982 257.920002 
L 288.108832 254.79521 
L 288.292794 251.670419 
L 288.459964 248.545627 
L 288.689031 245.420835 
L 289.039711 242.296044 
L 289.539052 239.171252 
L 290.177466 236.046461 
L 290.913367 232.921669 
L 291.683971 229.796878 
L 292.419886 226.672086 
L 293.0606 223.547295 
L 293.566877 220.422503 
L 293.926487 217.297712 
L 294.152198 214.17292 
L 294.27414 211.048129 
L 294.330066 207.923337 
L 294.356475 204.798546 
L 294.382159 201.673754 
L 294.424814 198.548962 
L 294.490843 195.424171 
L 294.577831 192.299379 
L 294.678262 189.174588 
L 294.782834 186.049796 
L 294.882395 182.925005 
L 294.968659 179.800213 
L 295.034373 176.675422 
L 295.073441 173.55063 
L 295.0812 170.425839 
L 295.055064 167.301047 
L 294.995791 164.176256 
L 294.909135 161.051464 
L 294.806801 157.926673 
L 294.705273 154.801881 
L 294.621992 151.677089 
L 294.570182 148.552298 
L 294.554892 145.427506 
L 294.572358 142.302715 
L 294.6128 139.177923 
L 294.664707 136.053132 
L 294.718118 132.92834 
L 294.765662 129.803549 
L 294.801995 126.678757 
L 294.823088 123.553966 
L 294.826217 120.429174 
L 294.810322 117.304383 
L 294.776057 114.179591 
L 294.725491 111.0548 
L 294.662066 107.930008 
L 294.591053 104.805216 
L 294.519809 101.680425 
L 294.456953 98.555633 
L 294.410404 95.430842 
L 294.385341 92.30605 
L 294.383208 89.181259 
L 294.402127 86.056467 
L 294.438277 82.931676 
L 294.487515 79.806884 
L 294.546686 76.682093 
L 294.614136 73.557301 
L 294.689165 70.43251 
L 294.770654 67.307718 
L 295.629346 67.307718 
L 295.629346 67.307718 
L 295.710835 70.43251 
L 295.785864 73.557301 
L 295.853314 76.682093 
L 295.912485 79.806884 
L 295.961723 82.931676 
L 295.997873 86.056467 
L 296.016792 89.181259 
L 296.014659 92.30605 
L 295.989596 95.430842 
L 295.943047 98.555633 
L 295.880191 101.680425 
L 295.808947 104.805216 
L 295.737934 107.930008 
L 295.674509 111.0548 
L 295.623943 114.179591 
L 295.589678 117.304383 
L 295.573783 120.429174 
L 295.576912 123.553966 
L 295.598005 126.678757 
L 295.634338 129.803549 
L 295.681882 132.92834 
L 295.735293 136.053132 
L 295.7872 139.177923 
L 295.827642 142.302715 
L 295.845108 145.427506 
L 295.829818 148.552298 
L 295.778008 151.677089 
L 295.694727 154.801881 
L 295.593199 157.926673 
L 295.490865 161.051464 
L 295.404209 164.176256 
L 295.344936 167.301047 
L 295.3188 170.425839 
L 295.326559 173.55063 
L 295.365627 176.675422 
L 295.431341 179.800213 
L 295.517605 182.925005 
L 295.617166 186.049796 
L 295.721738 189.174588 
L 295.822169 192.299379 
L 295.909157 195.424171 
L 295.975186 198.548962 
L 296.017841 201.673754 
L 296.043525 204.798546 
L 296.069934 207.923337 
L 296.12586 211.048129 
L 296.247802 214.17292 
L 296.473513 217.297712 
L 296.833123 220.422503 
L 297.3394 223.547295 
L 297.980114 226.672086 
L 298.716029 229.796878 
L 299.486633 232.921669 
L 300.222534 236.046461 
L 300.860948 239.171252 
L 301.360289 242.296044 
L 301.710969 245.420835 
L 301.940036 248.545627 
L 302.107206 251.670419 
L 302.291168 254.79521 
L 302.569018 257.920002 
L 302.995757 261.044793 
L 303.591188 264.169585 
L 304.337968 267.294376 
L 305.190595 270.419168 
L 306.093126 273.543959 
L 307.001892 276.668751 
L 307.905798 279.793542 
L 308.83379 282.918334 
L 309.842371 286.043125 
L 310.987287 289.167917 
L 312.29515 292.292708 
L 313.752373 295.4175 
L 315.316707 298.542292 
L 316.939857 301.667083 
L 318.582308 304.791875 
L 320.211209 307.916666 
L 321.791335 311.041458 
L 323.290484 314.166249 
L 324.712388 317.291041 
L 326.147665 320.415832 
L 327.814159 323.540624 
L 330.056817 326.665415 
L 333.293746 329.790207 
L 337.917991 332.914998 
L 344.182016 336.03979 
L 352.098858 339.164581 
L 361.390085 342.289373 
L 371.498339 345.414165 
L 381.663611 348.538956 
L 391.04045 351.663748 
L 398.814019 354.788539 
L 404.269802 357.913331 
L 406.8 361.038122 
L 405.88508 364.162914 
L 401.131548 367.287705 
L 392.422486 370.412497 
L 380.136727 373.537288 
L 365.287206 376.66208 
z
" clip-path="url(#p484c5b43fa)" style="fill: #1f77b4; fill-opacity: 0.3"/>
   </g>
   <g id="matplotlib.axis_1">
    <g id="xtick_1">
     <g id="line2d_1">
      <defs>
       <path id="mca1efb2638" d="M 0 0 
L 0 3.5 
" style="stroke: #000000; stroke-width: 0.8"/>
      </defs>
      <g>
       <use xlink:href="#mca1efb2638" x="295.2" y="384.48" style="stroke: #000000; stroke-width: 0.8"/>
      </g>
     </g>
     <g id="text_1">
      <!-- 1 -->
      <g transform="translate(292.01875 399.078438) scale(0.1 -0.1)">
       <defs>
        <path id="DejaVuSans-31" d="M 794 531 
L 1825 531 
L 1825 4091 
L 703 3866 
L 703 4441 
L 1819 4666 
L 2450 4666 
L 2450 531 
L 3481 531 
L 3481 0 
L 794 0 
L 794 531 
z
" transform="scale(0.015625)"/>
       </defs>
       <use xlink:href="#DejaVuSans-31"/>
      </g>
     </g>
    </g>
   </g>
   <g id="matplotlib.axis_2">
    <g id="ytick_1">
     <g id="line2d_2">
      <defs>
       <path id="m37c9fe14f1" d="M 0 0 
L -3.5 0 
" style="stroke: #000000; stroke-width: 0.8"/>
      </defs>
      <g>
       <use xlink:href="#m37c9fe14f1" x="72" y="384.48" style="stroke: #000000; stroke-width: 0.8"/>
      </g>
     </g>
     <g id="text_2">
      <!-- 0.0 -->
      <g transform="translate(49.096875 388.279219) scale(0.1 -0.1)">
       <defs>
        <path id="DejaVuSans-30" d="M 2034 4250 
Q 1547 4250 1301 3770 
Q 1056 3291 1056 2328 
Q 1056 1369 1301 889 
Q 1547 409 2034 409 
Q 2525 409 2770 889 
Q 3016 1369 3016 2328 
Q 3016 3291 2770 3770 
Q 2525 4250 2034 4250 
z
M 2034 4750 
Q 2819 4750 3233 4129 
Q 3647 3509 3647 2328 
Q 3647 1150 3233 529 
Q 2819 -91 2034 -91 
Q 1250 -91 836 529 
Q 422 1150 422 2328 
Q 422 3509 836 4129 
Q 1250 4750 2034 4750 
z
" transform="scale(0.015625)"/>
        <path id="DejaVuSans-2e" d="M 684 794 
L 1344 794 
L 1344 0 
L 684 0 
L 684 794 
z
" transform="scale(0.015625)"/>
       </defs>
       <use xlink:href="#DejaVuSans-30"/>
       <use xlink:href="#DejaVuSans-2e" transform="translate(63.623047 0)"/>
       <use xlink:href="#DejaVuSans-30" transform="translate(95.410156 0)"/>
      </g>
     </g>
    </g>
    <g id="ytick_2">
     <g id="line2d_3">
      <g>
       <use xlink:href="#m37c9fe14f1" x="72" y="343.51953" style="stroke: #000000; stroke-width: 0.8"/>
      </g>
     </g>
     <g id="text_3">
      <!-- 0.2 -->
      <g transform="translate(49.096875 347.318748) scale(0.1 -0.1)">
       <defs>
        <path id="DejaVuSans-32" d="M 1228 531 
L 3431 531 
L 3431 0 
L 469 0 
L 469 531 
Q 828 903 1448 1529 
Q 2069 2156 2228 2338 
Q 2531 2678 2651 2914 
Q 2772 3150 2772 3378 
Q 2772 3750 2511 3984 
Q 2250 4219 1831 4219 
Q 1534 4219 1204 4116 
Q 875 4013 500 3803 
L 500 4441 
Q 881 4594 1212 4672 
Q 1544 4750 1819 4750 
Q 2544 4750 2975 4387 
Q 3406 4025 3406 3419 
Q 3406 3131 3298 2873 
Q 3191 2616 2906 2266 
Q 2828 2175 2409 1742 
Q 1991 1309 1228 531 
z
" transform="scale(0.015625)"/>
       </defs>
       <use xlink:href="#DejaVuSans-30"/>
       <use xlink:href="#DejaVuSans-2e" transform="translate(63.623047 0)"/>
       <use xlink:href="#DejaVuSans-32" transform="translate(95.410156 0)"/>
      </g>
     </g>
    </g>
    <g id="ytick_3">
     <g id="line2d_4">
      <g>
       <use xlink:href="#m37c9fe14f1" x="72" y="302.559059" style="stroke: #000000; stroke-width: 0.8"/>
      </g>
     </g>
     <g id="text_4">
      <!-- 0.4 -->
      <g transform="translate(49.096875 306.358278) scale(0.1 -0.1)">
       <defs>
        <path id="DejaVuSans-34" d="M 2419 4116 
L 825 1625 
L 2419 1625 
L 2419 4116 
z
M 2253 4666 
L 3047 4666 
L 3047 1625 
L 3713 1625 
L 3713 1100 
L 3047 1100 
L 3047 0 
L 2419 0 
L 2419 1100 
L 313 1100 
L 313 1709 
L 2253 4666 
z
" transform="scale(0.015625)"/>
       </defs>
       <use xlink:href="#DejaVuSans-30"/>
       <use xlink:href="#DejaVuSans-2e" transform="translate(63.623047 0)"/>
       <use xlink:href="#DejaVuSans-34" transform="translate(95.410156 0)"/>
      </g>
     </g>
    </g>
    <g id="ytick_4">
     <g id="line2d_5">
      <g>
       <use xlink:href="#m37c9fe14f1" x="72" y="261.598589" style="stroke: #000000; stroke-width: 0.8"/>
      </g>
     </g>
     <g id="text_5">
      <!-- 0.6 -->
      <g transform="translate(49.096875 265.397808) scale(0.1 -0.1)">
       <defs>
        <path id="DejaVuSans-36" d="M 2113 2584 
Q 1688 2584 1439 2293 
Q 1191 2003 1191 1497 
Q 1191 994 1439 701 
Q 1688 409 2113 409 
Q 2538 409 2786 701 
Q 3034 994 3034 1497 
Q 3034 2003 2786 2293 
Q 2538 2584 2113 2584 
z
M 3366 4563 
L 3366 3988 
Q 3128 4100 2886 4159 
Q 2644 4219 2406 4219 
Q 1781 4219 1451 3797 
Q 1122 3375 1075 2522 
Q 1259 2794 1537 2939 
Q 1816 3084 2150 3084 
Q 2853 3084 3261 2657 
Q 3669 2231 3669 1497 
Q 3669 778 3244 343 
Q 2819 -91 2113 -91 
Q 1303 -91 875 529 
Q 447 1150 447 2328 
Q 447 3434 972 4092 
Q 1497 4750 2381 4750 
Q 2619 4750 2861 4703 
Q 3103 4656 3366 4563 
z
" transform="scale(0.015625)"/>
       </defs>
       <use xlink:href="#DejaVuSans-30"/>
       <use xlink:href="#DejaVuSans-2e" transform="translate(63.623047 0)"/>
       <use xlink:href="#DejaVuSans-36" transform="translate(95.410156 0)"/>
      </g>
     </g>
    </g>
    <g id="ytick_5">
     <g id="line2d_6">
      <g>
       <use xlink:href="#m37c9fe14f1" x="72" y="220.638119" style="stroke: #000000; stroke-width: 0.8"/>
      </g>
     </g>
     <g id="text_6">
      <!-- 0.8 -->
      <g transform="translate(49.096875 224.437337) scale(0.1 -0.1)">
       <defs>
        <path id="DejaVuSans-38" d="M 2034 2216 
Q 1584 2216 1326 1975 
Q 1069 1734 1069 1313 
Q 1069 891 1326 650 
Q 1584 409 2034 409 
Q 2484 409 2743 651 
Q 3003 894 3003 1313 
Q 3003 1734 2745 1975 
Q 2488 2216 2034 2216 
z
M 1403 2484 
Q 997 2584 770 2862 
Q 544 3141 544 3541 
Q 544 4100 942 4425 
Q 1341 4750 2034 4750 
Q 2731 4750 3128 4425 
Q 3525 4100 3525 3541 
Q 3525 3141 3298 2862 
Q 3072 2584 2669 2484 
Q 3125 2378 3379 2068 
Q 3634 1759 3634 1313 
Q 3634 634 3220 271 
Q 2806 -91 2034 -91 
Q 1263 -91 848 271 
Q 434 634 434 1313 
Q 434 1759 690 2068 
Q 947 2378 1403 2484 
z
M 1172 3481 
Q 1172 3119 1398 2916 
Q 1625 2713 2034 2713 
Q 2441 2713 2670 2916 
Q 2900 3119 2900 3481 
Q 2900 3844 2670 4047 
Q 2441 4250 2034 4250 
Q 1625 4250 1398 4047 
Q 1172 3844 1172 3481 
z
" transform="scale(0.015625)"/>
       </defs>
       <use xlink:href="#DejaVuSans-30"/>
       <use xlink:href="#DejaVuSans-2e" transform="translate(63.623047 0)"/>
       <use xlink:href="#DejaVuSans-38" transform="translate(95.410156 0)"/>
      </g>
     </g>
    </g>
    <g id="ytick_6">
     <g id="line2d_7">
      <g>
       <use xlink:href="#m37c9fe14f1" x="72" y="179.677648" style="stroke: #000000; stroke-width: 0.8"/>
      </g>
     </g>
     <g id="text_7">
      <!-- 1.0 -->
      <g transform="translate(49.096875 183.476867) scale(0.1 -0.1)">
       <use xlink:href="#DejaVuSans-31"/>
       <use xlink:href="#DejaVuSans-2e" transform="translate(63.623047 0)"/>
       <use xlink:href="#DejaVuSans-30" transform="translate(95.410156 0)"/>
      </g>
     </g>
    </g>
    <g id="ytick_7">
     <g id="line2d_8">
      <g>
       <use xlink:href="#m37c9fe14f1" x="72" y="138.717178" style="stroke: #000000; stroke-width: 0.8"/>
      </g>
     </g>
     <g id="text_8">
      <!-- 1.2 -->
      <g transform="translate(49.096875 142.516397) scale(0.1 -0.1)">
       <use xlink:href="#DejaVuSans-31"/>
       <use xlink:href="#DejaVuSans-2e" transform="translate(63.623047 0)"/>
       <use xlink:href="#DejaVuSans-32" transform="translate(95.410156 0)"/>
      </g>
     </g>
    </g>
    <g id="ytick_8">
     <g id="line2d_9">
      <g>
       <use xlink:href="#m37c9fe14f1" x="72" y="97.756708" style="stroke: #000000; stroke-width: 0.8"/>
      </g>
     </g>
     <g id="text_9">
      <!-- 1.4 -->
      <g transform="translate(49.096875 101.555926) scale(0.1 -0.1)">
       <use xlink:href="#DejaVuSans-31"/>
       <use xlink:href="#DejaVuSans-2e" transform="translate(63.623047 0)"/>
       <use xlink:href="#DejaVuSans-34" transform="translate(95.410156 0)"/>
      </g>
     </g>
    </g>
    <g id="ytick_9">
     <g id="line2d_10">
      <g>
       <use xlink:href="#m37c9fe14f1" x="72" y="56.796237" style="stroke: #000000; stroke-width: 0.8"/>
      </g>
     </g>
     <g id="text_10">
      <!-- 1.6 -->
      <g transform="translate(49.096875 60.595456) scale(0.1 -0.1)">
       <use xlink:href="#DejaVuSans-31"/>
       <use xlink:href="#DejaVuSans-2e" transform="translate(63.623047 0)"/>
       <use xlink:href="#DejaVuSans-36" transform="translate(95.410156 0)"/>
      </g>
     </g>
    </g>
    <g id="text_11">
     <!-- Time (ms) -->
     <g transform="translate(43.017187 243.359219) rotate(-90) scale(0.1 -0.1)">
      <defs>
       <path id="DejaVuSans-54" d="M -19 4666 
L 3928 4666 
L 3928 4134 
L 2272 4134 
L 2272 0 
L 1638 0 
L 1638 4134 
L -19 4134 
L -19 4666 
z
" transform="scale(0.015625)"/>
       <path id="DejaVuSans-69" d="M 603 3500 
L 1178 3500 
L 1178 0 
L 603 0 
L 603 3500 
z
M 603 4863 
L 1178 4863 
L 1178 4134 
L 603 4134 
L 603 4863 
z
" transform="scale(0.015625)"/>
       <path id="DejaVuSans-6d" d="M 3328 2828 
Q 3544 3216 3844 3400 
Q 4144 3584 4550 3584 
Q 5097 3584 5394 3201 
Q 5691 2819 5691 2113 
L 5691 0 
L 5113 0 
L 5113 2094 
Q 5113 2597 4934 2840 
Q 4756 3084 4391 3084 
Q 3944 3084 3684 2787 
Q 3425 2491 3425 1978 
L 3425 0 
L 2847 0 
L 2847 2094 
Q 2847 2600 2669 2842 
Q 2491 3084 2119 3084 
Q 1678 3084 1418 2786 
Q 1159 2488 1159 1978 
L 1159 0 
L 581 0 
L 581 3500 
L 1159 3500 
L 1159 2956 
Q 1356 3278 1631 3431 
Q 1906 3584 2284 3584 
Q 2666 3584 2933 3390 
Q 3200 3197 3328 2828 
z
" transform="scale(0.015625)"/>
       <path id="DejaVuSans-65" d="M 3597 1894 
L 3597 1613 
L 953 1613 
Q 991 1019 1311 708 
Q 1631 397 2203 397 
Q 2534 397 2845 478 
Q 3156 559 3463 722 
L 3463 178 
Q 3153 47 2828 -22 
Q 2503 -91 2169 -91 
Q 1331 -91 842 396 
Q 353 884 353 1716 
Q 353 2575 817 3079 
Q 1281 3584 2069 3584 
Q 2775 3584 3186 3129 
Q 3597 2675 3597 1894 
z
M 3022 2063 
Q 3016 2534 2758 2815 
Q 2500 3097 2075 3097 
Q 1594 3097 1305 2825 
Q 1016 2553 972 2059 
L 3022 2063 
z
" transform="scale(0.015625)"/>
       <path id="DejaVuSans-20" transform="scale(0.015625)"/>
       <path id="DejaVuSans-28" d="M 1984 4856 
Q 1566 4138 1362 3434 
Q 1159 2731 1159 2009 
Q 1159 1288 1364 580 
Q 1569 -128 1984 -844 
L 1484 -844 
Q 1016 -109 783 600 
Q 550 1309 550 2009 
Q 550 2706 781 3412 
Q 1013 4119 1484 4856 
L 1984 4856 
z
" transform="scale(0.015625)"/>
       <path id="DejaVuSans-73" d="M 2834 3397 
L 2834 2853 
Q 2591 2978 2328 3040 
Q 2066 3103 1784 3103 
Q 1356 3103 1142 2972 
Q 928 2841 928 2578 
Q 928 2378 1081 2264 
Q 1234 2150 1697 2047 
L 1894 2003 
Q 2506 1872 2764 1633 
Q 3022 1394 3022 966 
Q 3022 478 2636 193 
Q 2250 -91 1575 -91 
Q 1294 -91 989 -36 
Q 684 19 347 128 
L 347 722 
Q 666 556 975 473 
Q 1284 391 1588 391 
Q 1994 391 2212 530 
Q 2431 669 2431 922 
Q 2431 1156 2273 1281 
Q 2116 1406 1581 1522 
L 1381 1569 
Q 847 1681 609 1914 
Q 372 2147 372 2553 
Q 372 3047 722 3315 
Q 1072 3584 1716 3584 
Q 2034 3584 2315 3537 
Q 2597 3491 2834 3397 
z
" transform="scale(0.015625)"/>
       <path id="DejaVuSans-29" d="M 513 4856 
L 1013 4856 
Q 1481 4119 1714 3412 
Q 1947 2706 1947 2009 
Q 1947 1309 1714 600 
Q 1481 -109 1013 -844 
L 513 -844 
Q 928 -128 1133 580 
Q 1338 1288 1338 2009 
Q 1338 2731 1133 3434 
Q 928 4138 513 4856 
z
" transform="scale(0.015625)"/>
      </defs>
      <use xlink:href="#DejaVuSans-54"/>
      <use xlink:href="#DejaVuSans-69" transform="translate(57.958984 0)"/>
      <use xlink:href="#DejaVuSans-6d" transform="translate(85.742188 0)"/>
      <use xlink:href="#DejaVuSans-65" transform="translate(183.154297 0)"/>
      <use xlink:href="#DejaVuSans-20" transform="translate(244.677734 0)"/>
      <use xlink:href="#DejaVuSans-28" transform="translate(276.464844 0)"/>
      <use xlink:href="#DejaVuSans-6d" transform="translate(315.478516 0)"/>
      <use xlink:href="#DejaVuSans-73" transform="translate(412.890625 0)"/>
      <use xlink:href="#DejaVuSans-29" transform="translate(464.990234 0)"/>
     </g>
    </g>
   </g>
   <g id="LineCollection_1">
    <path d="M 239.4 340.017329 
L 351 340.017329 
" clip-path="url(#p484c5b43fa)" style="fill: none; stroke: #1f77b4; stroke-width: 1.5"/>
   </g>
   <g id="LineCollection_2">
    <path d="M 239.4 67.307718 
L 351 67.307718 
" clip-path="url(#p484c5b43fa)" style="fill: none; stroke: #1f77b4; stroke-width: 1.5"/>
   </g>
   <g id="LineCollection_3">
    <path d="M 239.4 376.66208 
L 351 376.66208 
" clip-path="url(#p484c5b43fa)" style="fill: none; stroke: #1f77b4; stroke-width: 1.5"/>
   </g>
   <g id="LineCollection_4">
    <path d="M 295.2 376.66208 
L 295.2 67.307718 
" clip-path="url(#p484c5b43fa)" style="fill: none; stroke: #1f77b4; stroke-width: 1.5"/>
   </g>
   <g id="patch_3">
    <path d="M 250.56 365.775862 
L 339.84 365.775862 
L 339.84 326.686773 
L 250.56 326.686773 
L 250.56 365.775862 
z
" clip-path="url(#p484c5b43fa)" style="fill: #1f77b4; stroke: #000000; stroke-linejoin: miter"/>
   </g>
   <g id="line2d_11">
    <path d="M 295.2 365.775862 
L 295.2 376.66208 
" clip-path="url(#p484c5b43fa)" style="fill: none; stroke: #000000; stroke-linecap: square"/>
   </g>
   <g id="line2d_12">
    <path d="M 295.2 326.686773 
L 295.2 268.849616 
" clip-path="url(#p484c5b43fa)" style="fill: none; stroke: #000000; stroke-linecap: square"/>
   </g>
   <g id="line2d_13">
    <path d="M 272.88 376.66208 
L 317.52 376.66208 
" clip-path="url(#p484c5b43fa)" style="fill: none; stroke: #000000; stroke-linecap: square"/>
   </g>
   <g id="line2d_14">
    <path d="M 272.88 268.849616 
L 317.52 268.849616 
" clip-path="url(#p484c5b43fa)" style="fill: none; stroke: #000000; stroke-linecap: square"/>
   </g>
   <g id="line2d_15">
    <defs>
     <path id="m278956ad5e" d="M 0 3 
C 0.795609 3 1.55874 2.683901 2.12132 2.12132 
C 2.683901 1.55874 3 0.795609 3 0 
C 3 -0.795609 2.683901 -1.55874 2.12132 -2.12132 
C 1.55874 -2.683901 0.795609 -3 0 -3 
C -0.795609 -3 -1.55874 -2.683901 -2.12132 -2.12132 
C -2.683901 -1.55874 -3 -0.795609 -3 0 
C -3 0.795609 -2.683901 1.55874 -2.12132 2.12132 
C -1.55874 2.683901 -0.795609 3 0 3 
z
" style="stroke: #000000"/>
    </defs>
    <g clip-path="url(#p484c5b43fa)">
     <use xlink:href="#m278956ad5e" x="295.2" y="260.067282" style="fill-opacity: 0; stroke: #000000"/>
     <use xlink:href="#m278956ad5e" x="295.2" y="100.268609" style="fill-opacity: 0; stroke: #000000"/>
     <use xlink:href="#m278956ad5e" x="295.2" y="243.69231" style="fill-opacity: 0; stroke: #000000"/>
     <use xlink:href="#m278956ad5e" x="295.2" y="252.151057" style="fill-opacity: 0; stroke: #000000"/>
     <use xlink:href="#m278956ad5e" x="295.2" y="200.975864" style="fill-opacity: 0; stroke: #000000"/>
     <use xlink:href="#m278956ad5e" x="295.2" y="243.729174" style="fill-opacity: 0; stroke: #000000"/>
     <use xlink:href="#m278956ad5e" x="295.2" y="262.218935" style="fill-opacity: 0; stroke: #000000"/>
     <use xlink:href="#m278956ad5e" x="295.2" y="231.084677" style="fill-opacity: 0; stroke: #000000"/>
     <use xlink:href="#m278956ad5e" x="295.2" y="149.084273" style="fill-opacity: 0; stroke: #000000"/>
     <use xlink:href="#m278956ad5e" x="295.2" y="264.203675" style="fill-opacity: 0; stroke: #000000"/>
     <use xlink:href="#m278956ad5e" x="295.2" y="238.287985" style="fill-opacity: 0; stroke: #000000"/>
     <use xlink:href="#m278956ad5e" x="295.2" y="152.197678" style="fill-opacity: 0; stroke: #000000"/>
     <use xlink:href="#m278956ad5e" x="295.2" y="248.166422" style="fill-opacity: 0; stroke: #000000"/>
     <use xlink:href="#m278956ad5e" x="295.2" y="266.294707" style="fill-opacity: 0; stroke: #000000"/>
     <use xlink:href="#m278956ad5e" x="295.2" y="265.764269" style="fill-opacity: 0; stroke: #000000"/>
     <use xlink:href="#m278956ad5e" x="295.2" y="89.176718" style="fill-opacity: 0; stroke: #000000"/>
     <use xlink:href="#m278956ad5e" x="295.2" y="248.676789" style="fill-opacity: 0; stroke: #000000"/>
     <use xlink:href="#m278956ad5e" x="295.2" y="261.282989" style="fill-opacity: 0; stroke: #000000"/>
     <use xlink:href="#m278956ad5e" x="295.2" y="263.95996" style="fill-opacity: 0; stroke: #000000"/>
     <use xlink:href="#m278956ad5e" x="295.2" y="250.616473" style="fill-opacity: 0; stroke: #000000"/>
     <use xlink:href="#m278956ad5e" x="295.2" y="234.471084" style="fill-opacity: 0; stroke: #000000"/>
     <use xlink:href="#m278956ad5e" x="295.2" y="253.719228" style="fill-opacity: 0; stroke: #000000"/>
     <use xlink:href="#m278956ad5e" x="295.2" y="233.602517" style="fill-opacity: 0; stroke: #000000"/>
     <use xlink:href="#m278956ad5e" x="295.2" y="266.077616" style="fill-opacity: 0; stroke: #000000"/>
     <use xlink:href="#m278956ad5e" x="295.2" y="241.514442" style="fill-opacity: 0; stroke: #000000"/>
     <use xlink:href="#m278956ad5e" x="295.2" y="262.299423" style="fill-opacity: 0; stroke: #000000"/>
     <use xlink:href="#m278956ad5e" x="295.2" y="250.147885" style="fill-opacity: 0; stroke: #000000"/>
     <use xlink:href="#m278956ad5e" x="295.2" y="141.552667" style="fill-opacity: 0; stroke: #000000"/>
     <use xlink:href="#m278956ad5e" x="295.2" y="263.878654" style="fill-opacity: 0; stroke: #000000"/>
     <use xlink:href="#m278956ad5e" x="295.2" y="261.672727" style="fill-opacity: 0; stroke: #000000"/>
     <use xlink:href="#m278956ad5e" x="295.2" y="249.914205" style="fill-opacity: 0; stroke: #000000"/>
     <use xlink:href="#m278956ad5e" x="295.2" y="67.307718" style="fill-opacity: 0; stroke: #000000"/>
     <use xlink:href="#m278956ad5e" x="295.2" y="248.521549" style="fill-opacity: 0; stroke: #000000"/>
     <use xlink:href="#m278956ad5e" x="295.2" y="246.008624" style="fill-opacity: 0; stroke: #000000"/>
     <use xlink:href="#m278956ad5e" x="295.2" y="187.813831" style="fill-opacity: 0; stroke: #000000"/>
     <use xlink:href="#m278956ad5e" x="295.2" y="215.095962" style="fill-opacity: 0; stroke: #000000"/>
     <use xlink:href="#m278956ad5e" x="295.2" y="96.975182" style="fill-opacity: 0; stroke: #000000"/>
     <use xlink:href="#m278956ad5e" x="295.2" y="228.602063" style="fill-opacity: 0; stroke: #000000"/>
     <use xlink:href="#m278956ad5e" x="295.2" y="239.753346" style="fill-opacity: 0; stroke: #000000"/>
     <use xlink:href="#m278956ad5e" x="295.2" y="223.659158" style="fill-opacity: 0; stroke: #000000"/>
     <use xlink:href="#m278956ad5e" x="295.2" y="233.832305" style="fill-opacity: 0; stroke: #000000"/>
     <use xlink:href="#m278956ad5e" x="295.2" y="235.551007" style="fill-opacity: 0; stroke: #000000"/>
     <use xlink:href="#m278956ad5e" x="295.2" y="251.088542" style="fill-opacity: 0; stroke: #000000"/>
     <use xlink:href="#m278956ad5e" x="295.2" y="250.599064" style="fill-opacity: 0; stroke: #000000"/>
     <use xlink:href="#m278956ad5e" x="295.2" y="266.575696" style="fill-opacity: 0; stroke: #000000"/>
     <use xlink:href="#m278956ad5e" x="295.2" y="84.644032" style="fill-opacity: 0; stroke: #000000"/>
     <use xlink:href="#m278956ad5e" x="295.2" y="206.620627" style="fill-opacity: 0; stroke: #000000"/>
     <use xlink:href="#m278956ad5e" x="295.2" y="240.683968" style="fill-opacity: 0; stroke: #000000"/>
     <use xlink:href="#m278956ad5e" x="295.2" y="240.667584" style="fill-opacity: 0; stroke: #000000"/>
     <use xlink:href="#m278956ad5e" x="295.2" y="254.659681" style="fill-opacity: 0; stroke: #000000"/>
     <use xlink:href="#m278956ad5e" x="295.2" y="130.150091" style="fill-opacity: 0; stroke: #000000"/>
     <use xlink:href="#m278956ad5e" x="295.2" y="198.180926" style="fill-opacity: 0; stroke: #000000"/>
     <use xlink:href="#m278956ad5e" x="295.2" y="260.074655" style="fill-opacity: 0; stroke: #000000"/>
     <use xlink:href="#m278956ad5e" x="295.2" y="239.8068" style="fill-opacity: 0; stroke: #000000"/>
     <use xlink:href="#m278956ad5e" x="295.2" y="246.551146" style="fill-opacity: 0; stroke: #000000"/>
     <use xlink:href="#m278956ad5e" x="295.2" y="234.565498" style="fill-opacity: 0; stroke: #000000"/>
     <use xlink:href="#m278956ad5e" x="295.2" y="113.349744" style="fill-opacity: 0; stroke: #000000"/>
     <use xlink:href="#m278956ad5e" x="295.2" y="256.712005" style="fill-opacity: 0; stroke: #000000"/>
     <use xlink:href="#m278956ad5e" x="295.2" y="246.207283" style="fill-opacity: 0; stroke: #000000"/>
     <use xlink:href="#m278956ad5e" x="295.2" y="238.430937" style="fill-opacity: 0; stroke: #000000"/>
     <use xlink:href="#m278956ad5e" x="295.2" y="76.498224" style="fill-opacity: 0; stroke: #000000"/>
     <use xlink:href="#m278956ad5e" x="295.2" y="261.76325" style="fill-opacity: 0; stroke: #000000"/>
     <use xlink:href="#m278956ad5e" x="295.2" y="232.405243" style="fill-opacity: 0; stroke: #000000"/>
     <use xlink:href="#m278956ad5e" x="295.2" y="251.297236" style="fill-opacity: 0; stroke: #000000"/>
     <use xlink:href="#m278956ad5e" x="295.2" y="244.339485" style="fill-opacity: 0; stroke: #000000"/>
     <use xlink:href="#m278956ad5e" x="295.2" y="267.113097" style="fill-opacity: 0; stroke: #000000"/>
    </g>
   </g>
   <g id="line2d_16">
    <path d="M 250.56 353.527299 
L 339.84 353.527299 
" clip-path="url(#p484c5b43fa)" style="fill: none; stroke: #ff7f0e"/>
   </g>
   <g id="patch_4">
    <path d="M 72 384.48 
L 72 51.84 
" style="fill: none; stroke: #000000; stroke-width: 0.8; stroke-linejoin: miter; stroke-linecap: square"/>
   </g>
   <g id="patch_5">
    <path d="M 518.4 384.48 
L 518.4 51.84 
" style="fill: none; stroke: #000000; stroke-width: 0.8; stroke-linejoin: miter; stroke-linecap: square"/>
   </g>
   <g id="patch_6">
    <path d="M 72 384.48 
L 518.4 384.48 
" style="fill: none; stroke: #000000; stroke-width: 0.8; stroke-linejoin: miter; stroke-linecap: square"/>
   </g>
   <g id="patch_7">
    <path d="M 72 51.84 
L 518.4 51.84 
" style="fill: none; stroke: #000000; stroke-width: 0.8; stroke-linejoin: miter; stroke-linecap: square"/>
   </g>
   <g id="text_12">
    <!-- getExpectedPoints -->
    <g transform="translate(239.3325 45.84) scale(0.12 -0.12)">
     <defs>
      <path id="DejaVuSans-67" d="M 2906 1791 
Q 2906 2416 2648 2759 
Q 2391 3103 1925 3103 
Q 1463 3103 1205 2759 
Q 947 2416 947 1791 
Q 947 1169 1205 825 
Q 1463 481 1925 481 
Q 2391 481 2648 825 
Q 2906 1169 2906 1791 
z
M 3481 434 
Q 3481 -459 3084 -895 
Q 2688 -1331 1869 -1331 
Q 1566 -1331 1297 -1286 
Q 1028 -1241 775 -1147 
L 775 -588 
Q 1028 -725 1275 -790 
Q 1522 -856 1778 -856 
Q 2344 -856 2625 -561 
Q 2906 -266 2906 331 
L 2906 616 
Q 2728 306 2450 153 
Q 2172 0 1784 0 
Q 1141 0 747 490 
Q 353 981 353 1791 
Q 353 2603 747 3093 
Q 1141 3584 1784 3584 
Q 2172 3584 2450 3431 
Q 2728 3278 2906 2969 
L 2906 3500 
L 3481 3500 
L 3481 434 
z
" transform="scale(0.015625)"/>
      <path id="DejaVuSans-74" d="M 1172 4494 
L 1172 3500 
L 2356 3500 
L 2356 3053 
L 1172 3053 
L 1172 1153 
Q 1172 725 1289 603 
Q 1406 481 1766 481 
L 2356 481 
L 2356 0 
L 1766 0 
Q 1100 0 847 248 
Q 594 497 594 1153 
L 594 3053 
L 172 3053 
L 172 3500 
L 594 3500 
L 594 4494 
L 1172 4494 
z
" transform="scale(0.015625)"/>
      <path id="DejaVuSans-45" d="M 628 4666 
L 3578 4666 
L 3578 4134 
L 1259 4134 
L 1259 2753 
L 3481 2753 
L 3481 2222 
L 1259 2222 
L 1259 531 
L 3634 531 
L 3634 0 
L 628 0 
L 628 4666 
z
" transform="scale(0.015625)"/>
      <path id="DejaVuSans-78" d="M 3513 3500 
L 2247 1797 
L 3578 0 
L 2900 0 
L 1881 1375 
L 863 0 
L 184 0 
L 1544 1831 
L 300 3500 
L 978 3500 
L 1906 2253 
L 2834 3500 
L 3513 3500 
z
" transform="scale(0.015625)"/>
      <path id="DejaVuSans-70" d="M 1159 525 
L 1159 -1331 
L 581 -1331 
L 581 3500 
L 1159 3500 
L 1159 2969 
Q 1341 3281 1617 3432 
Q 1894 3584 2278 3584 
Q 2916 3584 3314 3078 
Q 3713 2572 3713 1747 
Q 3713 922 3314 415 
Q 2916 -91 2278 -91 
Q 1894 -91 1617 61 
Q 1341 213 1159 525 
z
M 3116 1747 
Q 3116 2381 2855 2742 
Q 2594 3103 2138 3103 
Q 1681 3103 1420 2742 
Q 1159 2381 1159 1747 
Q 1159 1113 1420 752 
Q 1681 391 2138 391 
Q 2594 391 2855 752 
Q 3116 1113 3116 1747 
z
" transform="scale(0.015625)"/>
      <path id="DejaVuSans-63" d="M 3122 3366 
L 3122 2828 
Q 2878 2963 2633 3030 
Q 2388 3097 2138 3097 
Q 1578 3097 1268 2742 
Q 959 2388 959 1747 
Q 959 1106 1268 751 
Q 1578 397 2138 397 
Q 2388 397 2633 464 
Q 2878 531 3122 666 
L 3122 134 
Q 2881 22 2623 -34 
Q 2366 -91 2075 -91 
Q 1284 -91 818 406 
Q 353 903 353 1747 
Q 353 2603 823 3093 
Q 1294 3584 2113 3584 
Q 2378 3584 2631 3529 
Q 2884 3475 3122 3366 
z
" transform="scale(0.015625)"/>
      <path id="DejaVuSans-64" d="M 2906 2969 
L 2906 4863 
L 3481 4863 
L 3481 0 
L 2906 0 
L 2906 525 
Q 2725 213 2448 61 
Q 2172 -91 1784 -91 
Q 1150 -91 751 415 
Q 353 922 353 1747 
Q 353 2572 751 3078 
Q 1150 3584 1784 3584 
Q 2172 3584 2448 3432 
Q 2725 3281 2906 2969 
z
M 947 1747 
Q 947 1113 1208 752 
Q 1469 391 1925 391 
Q 2381 391 2643 752 
Q 2906 1113 2906 1747 
Q 2906 2381 2643 2742 
Q 2381 3103 1925 3103 
Q 1469 3103 1208 2742 
Q 947 2381 947 1747 
z
" transform="scale(0.015625)"/>
      <path id="DejaVuSans-50" d="M 1259 4147 
L 1259 2394 
L 2053 2394 
Q 2494 2394 2734 2622 
Q 2975 2850 2975 3272 
Q 2975 3691 2734 3919 
Q 2494 4147 2053 4147 
L 1259 4147 
z
M 628 4666 
L 2053 4666 
Q 2838 4666 3239 4311 
Q 3641 3956 3641 3272 
Q 3641 2581 3239 2228 
Q 2838 1875 2053 1875 
L 1259 1875 
L 1259 0 
L 628 0 
L 628 4666 
z
" transform="scale(0.015625)"/>
      <path id="DejaVuSans-6f" d="M 1959 3097 
Q 1497 3097 1228 2736 
Q 959 2375 959 1747 
Q 959 1119 1226 758 
Q 1494 397 1959 397 
Q 2419 397 2687 759 
Q 2956 1122 2956 1747 
Q 2956 2369 2687 2733 
Q 2419 3097 1959 3097 
z
M 1959 3584 
Q 2709 3584 3137 3096 
Q 3566 2609 3566 1747 
Q 3566 888 3137 398 
Q 2709 -91 1959 -91 
Q 1206 -91 779 398 
Q 353 888 353 1747 
Q 353 2609 779 3096 
Q 1206 3584 1959 3584 
z
" transform="scale(0.015625)"/>
      <path id="DejaVuSans-6e" d="M 3513 2113 
L 3513 0 
L 2938 0 
L 2938 2094 
Q 2938 2591 2744 2837 
Q 2550 3084 2163 3084 
Q 1697 3084 1428 2787 
Q 1159 2491 1159 1978 
L 1159 0 
L 581 0 
L 581 3500 
L 1159 3500 
L 1159 2956 
Q 1366 3272 1645 3428 
Q 1925 3584 2291 3584 
Q 2894 3584 3203 3211 
Q 3513 2838 3513 2113 
z
" transform="scale(0.015625)"/>
     </defs>
     <use xlink:href="#DejaVuSans-67"/>
     <use xlink:href="#DejaVuSans-65" transform="translate(63.476562 0)"/>
     <use xlink:href="#DejaVuSans-74" transform="translate(125 0)"/>
     <use xlink:href="#DejaVuSans-45" transform="translate(164.208984 0)"/>
     <use xlink:href="#DejaVuSans-78" transform="translate(227.392578 0)"/>
     <use xlink:href="#DejaVuSans-70" transform="translate(286.572266 0)"/>
     <use xlink:href="#DejaVuSans-65" transform="translate(350.048828 0)"/>
     <use xlink:href="#DejaVuSans-63" transform="translate(411.572266 0)"/>
     <use xlink:href="#DejaVuSans-74" transform="translate(466.552734 0)"/>
     <use xlink:href="#DejaVuSans-65" transform="translate(505.761719 0)"/>
     <use xlink:href="#DejaVuSans-64" transform="translate(567.285156 0)"/>
     <use xlink:href="#DejaVuSans-50" transform="translate(630.761719 0)"/>
     <use xlink:href="#DejaVuSans-6f" transform="translate(687.439453 0)"/>
     <use xlink:href="#DejaVuSans-69" transform="translate(748.621094 0)"/>
     <use xlink:href="#DejaVuSans-6e" transform="translate(776.404297 0)"/>
     <use xlink:href="#DejaVuSans-74" transform="translate(839.783203 0)"/>
     <use xlink:href="#DejaVuSans-73" transform="translate(878.992188 0)"/>
    </g>
   </g>
  </g>
 </g>
 <defs>
  <clipPath id="p484c5b43fa">
   <rect x="72" y="51.84" width="446.4" height="332.64"/>
  </clipPath>
 </defs>
</svg>
