<?xml version="1.0" encoding="utf-8" standalone="no"?>
<!DOCTYPE svg PUBLIC "-//W3C//DTD SVG 1.1//EN"
  "http://www.w3.org/Graphics/SVG/1.1/DTD/svg11.dtd">
<svg xmlns:xlink="http://www.w3.org/1999/xlink" width="576pt" height="432pt" viewBox="0 0 576 432" xmlns="http://www.w3.org/2000/svg" version="1.1">
 <metadata>
  <rdf:RDF xmlns:dc="http://purl.org/dc/elements/1.1/" xmlns:cc="http://creativecommons.org/ns#" xmlns:rdf="http://www.w3.org/1999/02/22-rdf-syntax-ns#">
   <cc:Work>
    <dc:type rdf:resource="http://purl.org/dc/dcmitype/StillImage"/>
    <dc:date>2025-09-30T20:43:43.360587</dc:date>
    <dc:format>image/svg+xml</dc:format>
    <dc:creator>
     <cc:Agent>
      <dc:title>Matplotlib v3.10.3, https://matplotlib.org/</dc:title>
     </cc:Agent>
    </dc:creator>
   </cc:Work>
  </rdf:RDF>
 </metadata>
 <defs>
  <style type="text/css">*{stroke-linejoin: round; stroke-linecap: butt}</style>
 </defs>
 <g id="figure_1">
  <g id="patch_1">
   <path d="M 0 432 
L 576 432 
L 576 0 
L 0 0 
z
" style="fill: #ffffff"/>
  </g>
  <g id="axes_1">
   <g id="patch_2">
    <path d="M 72 384.48 
L 518.4 384.48 
L 518.4 51.84 
L 72 51.84 
z
" style="fill: #ffffff"/>
   </g>
   <g id="FillBetweenPolyCollection_1">
    <path d="M 373.03448 369.770933 
L 217.36552 369.770933 
L 208.728982 366.712434 
L 200.895793 363.653936 
L 194.205723 360.595437 
L 188.954102 357.536938 
L 185.369995 354.47844 
L 183.6 351.419941 
L 183.699188 348.361443 
L 185.629697 345.302944 
L 189.266644 342.244445 
L 194.410222 339.185947 
L 200.802381 336.127448 
L 208.146217 333.068949 
L 216.126274 330.010451 
L 224.428077 326.951952 
L 232.755597 323.893453 
L 240.84565 320.834955 
L 248.478613 317.776456 
L 255.485154 314.717958 
L 261.749006 311.659459 
L 267.206048 308.60096 
L 271.840212 305.542462 
L 275.676891 302.483963 
L 278.774629 299.425464 
L 281.21592 296.366966 
L 283.097892 293.308467 
L 284.523583 290.249968 
L 285.594332 287.19147 
L 286.403695 284.132971 
L 287.033077 281.074473 
L 287.549143 278.015974 
L 288.002886 274.957475 
L 288.430145 271.898977 
L 288.853246 268.840478 
L 289.283401 265.781979 
L 289.723479 262.723481 
L 290.170781 259.664982 
L 290.619528 256.606484 
L 291.062857 253.547985 
L 291.49421 250.489486 
L 291.908138 247.430988 
L 292.300589 244.372489 
L 292.668836 241.31399 
L 293.011196 238.255492 
L 293.326698 235.196993 
L 293.6148 232.138494 
L 293.875215 229.079996 
L 294.107861 226.021497 
L 294.312907 222.962999 
L 294.490865 219.9045 
L 294.642676 216.846001 
L 294.769759 213.787503 
L 294.873991 210.729004 
L 294.957629 207.670505 
L 295.023173 204.612007 
L 295.073198 201.553508 
L 295.110182 198.495009 
L 295.13634 195.436511 
L 295.153474 192.378012 
L 295.162858 189.319514 
L 295.165134 186.261015 
L 295.160231 183.202516 
L 295.147299 180.144018 
L 295.124665 177.085519 
L 295.089815 174.02702 
L 295.039432 170.968522 
L 294.969502 167.910023 
L 294.87552 164.851525 
L 294.752813 161.793026 
L 294.596974 158.734527 
L 294.404403 155.676029 
L 294.172905 152.61753 
L 293.902268 149.559031 
L 293.594752 146.500533 
L 293.255381 143.442034 
L 292.891953 140.383535 
L 292.514736 137.325037 
L 292.135823 134.266538 
L 291.768207 131.20804 
L 291.424694 128.149541 
L 291.116771 125.091042 
L 290.853624 122.032544 
L 290.641433 118.974045 
L 290.483064 115.915546 
L 290.378192 112.857048 
L 290.323821 109.798549 
L 290.315105 106.74005 
L 290.346312 103.681552 
L 290.411763 100.623053 
L 290.506592 97.564555 
L 290.627209 94.506056 
L 290.771422 91.447557 
L 290.938228 88.389059 
L 291.127355 85.33056 
L 291.338672 82.272061 
L 291.571584 79.213563 
L 291.824543 76.155064 
L 292.094748 73.096566 
L 292.378083 70.038067 
L 292.669279 66.979568 
L 297.730721 66.979568 
L 297.730721 66.979568 
L 298.021917 70.038067 
L 298.305252 73.096566 
L 298.575457 76.155064 
L 298.828416 79.213563 
L 299.061328 82.272061 
L 299.272645 85.33056 
L 299.461772 88.389059 
L 299.628578 91.447557 
L 299.772791 94.506056 
L 299.893408 97.564555 
L 299.988237 100.623053 
L 300.053688 103.681552 
L 300.084895 106.74005 
L 300.076179 109.798549 
L 300.021808 112.857048 
L 299.916936 115.915546 
L 299.758567 118.974045 
L 299.546376 122.032544 
L 299.283229 125.091042 
L 298.975306 128.149541 
L 298.631793 131.20804 
L 298.264177 134.266538 
L 297.885264 137.325037 
L 297.508047 140.383535 
L 297.144619 143.442034 
L 296.805248 146.500533 
L 296.497732 149.559031 
L 296.227095 152.61753 
L 295.995597 155.676029 
L 295.803026 158.734527 
L 295.647187 161.793026 
L 295.52448 164.851525 
L 295.430498 167.910023 
L 295.360568 170.968522 
L 295.310185 174.02702 
L 295.275335 177.085519 
L 295.252701 180.144018 
L 295.239769 183.202516 
L 295.234866 186.261015 
L 295.237142 189.319514 
L 295.246526 192.378012 
L 295.26366 195.436511 
L 295.289818 198.495009 
L 295.326802 201.553508 
L 295.376827 204.612007 
L 295.442371 207.670505 
L 295.526009 210.729004 
L 295.630241 213.787503 
L 295.757324 216.846001 
L 295.909135 219.9045 
L 296.087093 222.962999 
L 296.292139 226.021497 
L 296.524785 229.079996 
L 296.7852 232.138494 
L 297.073302 235.196993 
L 297.388804 238.255492 
L 297.731164 241.31399 
L 298.099411 244.372489 
L 298.491862 247.430988 
L 298.90579 250.489486 
L 299.337143 253.547985 
L 299.780472 256.606484 
L 300.229219 259.664982 
L 300.676521 262.723481 
L 301.116599 265.781979 
L 301.546754 268.840478 
L 301.969855 271.898977 
L 302.397114 274.957475 
L 302.850857 278.015974 
L 303.366923 281.074473 
L 303.996305 284.132971 
L 304.805668 287.19147 
L 305.876417 290.249968 
L 307.302108 293.308467 
L 309.18408 296.366966 
L 311.625371 299.425464 
L 314.723109 302.483963 
L 318.559788 305.542462 
L 323.193952 308.60096 
L 328.650994 311.659459 
L 334.914846 314.717958 
L 341.921387 317.776456 
L 349.55435 320.834955 
L 357.644403 323.893453 
L 365.971923 326.951952 
L 374.273726 330.010451 
L 382.253783 333.068949 
L 389.597619 336.127448 
L 395.989778 339.185947 
L 401.133356 342.244445 
L 404.770303 345.302944 
L 406.700812 348.361443 
L 406.8 351.419941 
L 405.030005 354.47844 
L 401.445898 357.536938 
L 396.194277 360.595437 
L 389.504207 363.653936 
L 381.671018 366.712434 
L 373.03448 369.770933 
z
" clip-path="url(#pa7d6c02410)" style="fill: #1f77b4; fill-opacity: 0.3"/>
   </g>
   <g id="matplotlib.axis_1">
    <g id="xtick_1">
     <g id="line2d_1">
      <defs>
       <path id="m634baaa283" d="M 0 0 
L 0 3.5 
" style="stroke: #000000; stroke-width: 0.8"/>
      </defs>
      <g>
       <use xlink:href="#m634baaa283" x="295.2" y="384.48" style="stroke: #000000; stroke-width: 0.8"/>
      </g>
     </g>
     <g id="text_1">
      <!-- 1 -->
      <g transform="translate(292.01875 399.078438) scale(0.1 -0.1)">
       <defs>
        <path id="DejaVuSans-31" d="M 794 531 
L 1825 531 
L 1825 4091 
L 703 3866 
L 703 4441 
L 1819 4666 
L 2450 4666 
L 2450 531 
L 3481 531 
L 3481 0 
L 794 0 
L 794 531 
z
" transform="scale(0.015625)"/>
       </defs>
       <use xlink:href="#DejaVuSans-31"/>
      </g>
     </g>
    </g>
   </g>
   <g id="matplotlib.axis_2">
    <g id="ytick_1">
     <g id="line2d_2">
      <defs>
       <path id="m6d41a9ed21" d="M 0 0 
L -3.5 0 
" style="stroke: #000000; stroke-width: 0.8"/>
      </defs>
      <g>
       <use xlink:href="#m6d41a9ed21" x="72" y="384.48" style="stroke: #000000; stroke-width: 0.8"/>
      </g>
     </g>
     <g id="text_2">
      <!-- 0 -->
      <g transform="translate(58.6375 388.279219) scale(0.1 -0.1)">
       <defs>
        <path id="DejaVuSans-30" d="M 2034 4250 
Q 1547 4250 1301 3770 
Q 1056 3291 1056 2328 
Q 1056 1369 1301 889 
Q 1547 409 2034 409 
Q 2525 409 2770 889 
Q 3016 1369 3016 2328 
Q 3016 3291 2770 3770 
Q 2525 4250 2034 4250 
z
M 2034 4750 
Q 2819 4750 3233 4129 
Q 3647 3509 3647 2328 
Q 3647 1150 3233 529 
Q 2819 -91 2034 -91 
Q 1250 -91 836 529 
Q 422 1150 422 2328 
Q 422 3509 836 4129 
Q 1250 4750 2034 4750 
z
" transform="scale(0.015625)"/>
       </defs>
       <use xlink:href="#DejaVuSans-30"/>
      </g>
     </g>
    </g>
    <g id="ytick_2">
     <g id="line2d_3">
      <g>
       <use xlink:href="#m6d41a9ed21" x="72" y="319.849306" style="stroke: #000000; stroke-width: 0.8"/>
      </g>
     </g>
     <g id="text_3">
      <!-- 5 -->
      <g transform="translate(58.6375 323.648524) scale(0.1 -0.1)">
       <defs>
        <path id="DejaVuSans-35" d="M 691 4666 
L 3169 4666 
L 3169 4134 
L 1269 4134 
L 1269 2991 
Q 1406 3038 1543 3061 
Q 1681 3084 1819 3084 
Q 2600 3084 3056 2656 
Q 3513 2228 3513 1497 
Q 3513 744 3044 326 
Q 2575 -91 1722 -91 
Q 1428 -91 1123 -41 
Q 819 9 494 109 
L 494 744 
Q 775 591 1075 516 
Q 1375 441 1709 441 
Q 2250 441 2565 725 
Q 2881 1009 2881 1497 
Q 2881 1984 2565 2268 
Q 2250 2553 1709 2553 
Q 1456 2553 1204 2497 
Q 953 2441 691 2322 
L 691 4666 
z
" transform="scale(0.015625)"/>
       </defs>
       <use xlink:href="#DejaVuSans-35"/>
      </g>
     </g>
    </g>
    <g id="ytick_3">
     <g id="line2d_4">
      <g>
       <use xlink:href="#m6d41a9ed21" x="72" y="255.218611" style="stroke: #000000; stroke-width: 0.8"/>
      </g>
     </g>
     <g id="text_4">
      <!-- 10 -->
      <g transform="translate(52.275 259.01783) scale(0.1 -0.1)">
       <use xlink:href="#DejaVuSans-31"/>
       <use xlink:href="#DejaVuSans-30" transform="translate(63.623047 0)"/>
      </g>
     </g>
    </g>
    <g id="ytick_4">
     <g id="line2d_5">
      <g>
       <use xlink:href="#m6d41a9ed21" x="72" y="190.587917" style="stroke: #000000; stroke-width: 0.8"/>
      </g>
     </g>
     <g id="text_5">
      <!-- 15 -->
      <g transform="translate(52.275 194.387136) scale(0.1 -0.1)">
       <use xlink:href="#DejaVuSans-31"/>
       <use xlink:href="#DejaVuSans-35" transform="translate(63.623047 0)"/>
      </g>
     </g>
    </g>
    <g id="ytick_5">
     <g id="line2d_6">
      <g>
       <use xlink:href="#m6d41a9ed21" x="72" y="125.957223" style="stroke: #000000; stroke-width: 0.8"/>
      </g>
     </g>
     <g id="text_6">
      <!-- 20 -->
      <g transform="translate(52.275 129.756441) scale(0.1 -0.1)">
       <defs>
        <path id="DejaVuSans-32" d="M 1228 531 
L 3431 531 
L 3431 0 
L 469 0 
L 469 531 
Q 828 903 1448 1529 
Q 2069 2156 2228 2338 
Q 2531 2678 2651 2914 
Q 2772 3150 2772 3378 
Q 2772 3750 2511 3984 
Q 2250 4219 1831 4219 
Q 1534 4219 1204 4116 
Q 875 4013 500 3803 
L 500 4441 
Q 881 4594 1212 4672 
Q 1544 4750 1819 4750 
Q 2544 4750 2975 4387 
Q 3406 4025 3406 3419 
Q 3406 3131 3298 2873 
Q 3191 2616 2906 2266 
Q 2828 2175 2409 1742 
Q 1991 1309 1228 531 
z
" transform="scale(0.015625)"/>
       </defs>
       <use xlink:href="#DejaVuSans-32"/>
       <use xlink:href="#DejaVuSans-30" transform="translate(63.623047 0)"/>
      </g>
     </g>
    </g>
    <g id="ytick_6">
     <g id="line2d_7">
      <g>
       <use xlink:href="#m6d41a9ed21" x="72" y="61.326528" style="stroke: #000000; stroke-width: 0.8"/>
      </g>
     </g>
     <g id="text_7">
      <!-- 25 -->
      <g transform="translate(52.275 65.125747) scale(0.1 -0.1)">
       <use xlink:href="#DejaVuSans-32"/>
       <use xlink:href="#DejaVuSans-35" transform="translate(63.623047 0)"/>
      </g>
     </g>
    </g>
    <g id="text_8">
     <!-- Time (ms) -->
     <g transform="translate(46.195312 243.359219) rotate(-90) scale(0.1 -0.1)">
      <defs>
       <path id="DejaVuSans-54" d="M -19 4666 
L 3928 4666 
L 3928 4134 
L 2272 4134 
L 2272 0 
L 1638 0 
L 1638 4134 
L -19 4134 
L -19 4666 
z
" transform="scale(0.015625)"/>
       <path id="DejaVuSans-69" d="M 603 3500 
L 1178 3500 
L 1178 0 
L 603 0 
L 603 3500 
z
M 603 4863 
L 1178 4863 
L 1178 4134 
L 603 4134 
L 603 4863 
z
" transform="scale(0.015625)"/>
       <path id="DejaVuSans-6d" d="M 3328 2828 
Q 3544 3216 3844 3400 
Q 4144 3584 4550 3584 
Q 5097 3584 5394 3201 
Q 5691 2819 5691 2113 
L 5691 0 
L 5113 0 
L 5113 2094 
Q 5113 2597 4934 2840 
Q 4756 3084 4391 3084 
Q 3944 3084 3684 2787 
Q 3425 2491 3425 1978 
L 3425 0 
L 2847 0 
L 2847 2094 
Q 2847 2600 2669 2842 
Q 2491 3084 2119 3084 
Q 1678 3084 1418 2786 
Q 1159 2488 1159 1978 
L 1159 0 
L 581 0 
L 581 3500 
L 1159 3500 
L 1159 2956 
Q 1356 3278 1631 3431 
Q 1906 3584 2284 3584 
Q 2666 3584 2933 3390 
Q 3200 3197 3328 2828 
z
" transform="scale(0.015625)"/>
       <path id="DejaVuSans-65" d="M 3597 1894 
L 3597 1613 
L 953 1613 
Q 991 1019 1311 708 
Q 1631 397 2203 397 
Q 2534 397 2845 478 
Q 3156 559 3463 722 
L 3463 178 
Q 3153 47 2828 -22 
Q 2503 -91 2169 -91 
Q 1331 -91 842 396 
Q 353 884 353 1716 
Q 353 2575 817 3079 
Q 1281 3584 2069 3584 
Q 2775 3584 3186 3129 
Q 3597 2675 3597 1894 
z
M 3022 2063 
Q 3016 2534 2758 2815 
Q 2500 3097 2075 3097 
Q 1594 3097 1305 2825 
Q 1016 2553 972 2059 
L 3022 2063 
z
" transform="scale(0.015625)"/>
       <path id="DejaVuSans-20" transform="scale(0.015625)"/>
       <path id="DejaVuSans-28" d="M 1984 4856 
Q 1566 4138 1362 3434 
Q 1159 2731 1159 2009 
Q 1159 1288 1364 580 
Q 1569 -128 1984 -844 
L 1484 -844 
Q 1016 -109 783 600 
Q 550 1309 550 2009 
Q 550 2706 781 3412 
Q 1013 4119 1484 4856 
L 1984 4856 
z
" transform="scale(0.015625)"/>
       <path id="DejaVuSans-73" d="M 2834 3397 
L 2834 2853 
Q 2591 2978 2328 3040 
Q 2066 3103 1784 3103 
Q 1356 3103 1142 2972 
Q 928 2841 928 2578 
Q 928 2378 1081 2264 
Q 1234 2150 1697 2047 
L 1894 2003 
Q 2506 1872 2764 1633 
Q 3022 1394 3022 966 
Q 3022 478 2636 193 
Q 2250 -91 1575 -91 
Q 1294 -91 989 -36 
Q 684 19 347 128 
L 347 722 
Q 666 556 975 473 
Q 1284 391 1588 391 
Q 1994 391 2212 530 
Q 2431 669 2431 922 
Q 2431 1156 2273 1281 
Q 2116 1406 1581 1522 
L 1381 1569 
Q 847 1681 609 1914 
Q 372 2147 372 2553 
Q 372 3047 722 3315 
Q 1072 3584 1716 3584 
Q 2034 3584 2315 3537 
Q 2597 3491 2834 3397 
z
" transform="scale(0.015625)"/>
       <path id="DejaVuSans-29" d="M 513 4856 
L 1013 4856 
Q 1481 4119 1714 3412 
Q 1947 2706 1947 2009 
Q 1947 1309 1714 600 
Q 1481 -109 1013 -844 
L 513 -844 
Q 928 -128 1133 580 
Q 1338 1288 1338 2009 
Q 1338 2731 1133 3434 
Q 928 4138 513 4856 
z
" transform="scale(0.015625)"/>
      </defs>
      <use xlink:href="#DejaVuSans-54"/>
      <use xlink:href="#DejaVuSans-69" transform="translate(57.958984 0)"/>
      <use xlink:href="#DejaVuSans-6d" transform="translate(85.742188 0)"/>
      <use xlink:href="#DejaVuSans-65" transform="translate(183.154297 0)"/>
      <use xlink:href="#DejaVuSans-20" transform="translate(244.677734 0)"/>
      <use xlink:href="#DejaVuSans-28" transform="translate(276.464844 0)"/>
      <use xlink:href="#DejaVuSans-6d" transform="translate(315.478516 0)"/>
      <use xlink:href="#DejaVuSans-73" transform="translate(412.890625 0)"/>
      <use xlink:href="#DejaVuSans-29" transform="translate(464.990234 0)"/>
     </g>
    </g>
   </g>
   <g id="LineCollection_1">
    <path d="M 239.4 332.580686 
L 351 332.580686 
" clip-path="url(#pa7d6c02410)" style="fill: none; stroke: #1f77b4; stroke-width: 1.5"/>
   </g>
   <g id="LineCollection_2">
    <path d="M 239.4 66.979568 
L 351 66.979568 
" clip-path="url(#pa7d6c02410)" style="fill: none; stroke: #1f77b4; stroke-width: 1.5"/>
   </g>
   <g id="LineCollection_3">
    <path d="M 239.4 369.770933 
L 351 369.770933 
" clip-path="url(#pa7d6c02410)" style="fill: none; stroke: #1f77b4; stroke-width: 1.5"/>
   </g>
   <g id="LineCollection_4">
    <path d="M 295.2 369.770933 
L 295.2 66.979568 
" clip-path="url(#pa7d6c02410)" style="fill: none; stroke: #1f77b4; stroke-width: 1.5"/>
   </g>
   <g id="patch_3">
    <path d="M 250.56 358.45584 
L 339.84 358.45584 
L 339.84 334.305392 
L 250.56 334.305392 
L 250.56 358.45584 
z
" clip-path="url(#pa7d6c02410)" style="fill: #1f77b4; stroke: #000000; stroke-linejoin: miter"/>
   </g>
   <g id="line2d_8">
    <path d="M 295.2 358.45584 
L 295.2 369.770933 
" clip-path="url(#pa7d6c02410)" style="fill: none; stroke: #000000; stroke-linecap: square"/>
   </g>
   <g id="line2d_9">
    <path d="M 295.2 334.305392 
L 295.2 298.952793 
" clip-path="url(#pa7d6c02410)" style="fill: none; stroke: #000000; stroke-linecap: square"/>
   </g>
   <g id="line2d_10">
    <path d="M 272.88 369.770933 
L 317.52 369.770933 
" clip-path="url(#pa7d6c02410)" style="fill: none; stroke: #000000; stroke-linecap: square"/>
   </g>
   <g id="line2d_11">
    <path d="M 272.88 298.952793 
L 317.52 298.952793 
" clip-path="url(#pa7d6c02410)" style="fill: none; stroke: #000000; stroke-linecap: square"/>
   </g>
   <g id="line2d_12">
    <defs>
     <path id="m17b4ebd5f5" d="M 0 3 
C 0.795609 3 1.55874 2.683901 2.12132 2.12132 
C 2.683901 1.55874 3 0.795609 3 0 
C 3 -0.795609 2.683901 -1.55874 2.12132 -2.12132 
C 1.55874 -2.683901 0.795609 -3 0 -3 
C -0.795609 -3 -1.55874 -2.683901 -2.12132 -2.12132 
C -2.683901 -1.55874 -3 -0.795609 -3 0 
C -3 0.795609 -2.683901 1.55874 -2.12132 2.12132 
C -1.55874 2.683901 -0.795609 3 0 3 
z
" style="stroke: #000000"/>
    </defs>
    <g clip-path="url(#pa7d6c02410)">
     <use xlink:href="#m17b4ebd5f5" x="295.2" y="123.42737" style="fill-opacity: 0; stroke: #000000"/>
     <use xlink:href="#m17b4ebd5f5" x="295.2" y="250.288117" style="fill-opacity: 0; stroke: #000000"/>
     <use xlink:href="#m17b4ebd5f5" x="295.2" y="66.979568" style="fill-opacity: 0; stroke: #000000"/>
     <use xlink:href="#m17b4ebd5f5" x="295.2" y="274.624339" style="fill-opacity: 0; stroke: #000000"/>
     <use xlink:href="#m17b4ebd5f5" x="295.2" y="273.457173" style="fill-opacity: 0; stroke: #000000"/>
     <use xlink:href="#m17b4ebd5f5" x="295.2" y="123.208298" style="fill-opacity: 0; stroke: #000000"/>
     <use xlink:href="#m17b4ebd5f5" x="295.2" y="284.265119" style="fill-opacity: 0; stroke: #000000"/>
     <use xlink:href="#m17b4ebd5f5" x="295.2" y="81.872316" style="fill-opacity: 0; stroke: #000000"/>
     <use xlink:href="#m17b4ebd5f5" x="295.2" y="276.191853" style="fill-opacity: 0; stroke: #000000"/>
     <use xlink:href="#m17b4ebd5f5" x="295.2" y="109.779875" style="fill-opacity: 0; stroke: #000000"/>
     <use xlink:href="#m17b4ebd5f5" x="295.2" y="291.010469" style="fill-opacity: 0; stroke: #000000"/>
     <use xlink:href="#m17b4ebd5f5" x="295.2" y="101.600473" style="fill-opacity: 0; stroke: #000000"/>
     <use xlink:href="#m17b4ebd5f5" x="295.2" y="267.889511" style="fill-opacity: 0; stroke: #000000"/>
     <use xlink:href="#m17b4ebd5f5" x="295.2" y="89.306526" style="fill-opacity: 0; stroke: #000000"/>
     <use xlink:href="#m17b4ebd5f5" x="295.2" y="242.806429" style="fill-opacity: 0; stroke: #000000"/>
     <use xlink:href="#m17b4ebd5f5" x="295.2" y="82.28718" style="fill-opacity: 0; stroke: #000000"/>
     <use xlink:href="#m17b4ebd5f5" x="295.2" y="280.25671" style="fill-opacity: 0; stroke: #000000"/>
     <use xlink:href="#m17b4ebd5f5" x="295.2" y="125.526394" style="fill-opacity: 0; stroke: #000000"/>
     <use xlink:href="#m17b4ebd5f5" x="295.2" y="116.433941" style="fill-opacity: 0; stroke: #000000"/>
     <use xlink:href="#m17b4ebd5f5" x="295.2" y="283.749612" style="fill-opacity: 0; stroke: #000000"/>
    </g>
   </g>
   <g id="line2d_13">
    <path d="M 250.56 348.673484 
L 339.84 348.673484 
" clip-path="url(#pa7d6c02410)" style="fill: none; stroke: #ff7f0e"/>
   </g>
   <g id="patch_4">
    <path d="M 72 384.48 
L 72 51.84 
" style="fill: none; stroke: #000000; stroke-width: 0.8; stroke-linejoin: miter; stroke-linecap: square"/>
   </g>
   <g id="patch_5">
    <path d="M 518.4 384.48 
L 518.4 51.84 
" style="fill: none; stroke: #000000; stroke-width: 0.8; stroke-linejoin: miter; stroke-linecap: square"/>
   </g>
   <g id="patch_6">
    <path d="M 72 384.48 
L 518.4 384.48 
" style="fill: none; stroke: #000000; stroke-width: 0.8; stroke-linejoin: miter; stroke-linecap: square"/>
   </g>
   <g id="patch_7">
    <path d="M 72 51.84 
L 518.4 51.84 
" style="fill: none; stroke: #000000; stroke-width: 0.8; stroke-linejoin: miter; stroke-linecap: square"/>
   </g>
   <g id="text_9">
    <!-- Next Faultload -->
    <g transform="translate(252.088125 45.84) scale(0.12 -0.12)">
     <defs>
      <path id="DejaVuSans-4e" d="M 628 4666 
L 1478 4666 
L 3547 763 
L 3547 4666 
L 4159 4666 
L 4159 0 
L 3309 0 
L 1241 3903 
L 1241 0 
L 628 0 
L 628 4666 
z
" transform="scale(0.015625)"/>
      <path id="DejaVuSans-78" d="M 3513 3500 
L 2247 1797 
L 3578 0 
L 2900 0 
L 1881 1375 
L 863 0 
L 184 0 
L 1544 1831 
L 300 3500 
L 978 3500 
L 1906 2253 
L 2834 3500 
L 3513 3500 
z
" transform="scale(0.015625)"/>
      <path id="DejaVuSans-74" d="M 1172 4494 
L 1172 3500 
L 2356 3500 
L 2356 3053 
L 1172 3053 
L 1172 1153 
Q 1172 725 1289 603 
Q 1406 481 1766 481 
L 2356 481 
L 2356 0 
L 1766 0 
Q 1100 0 847 248 
Q 594 497 594 1153 
L 594 3053 
L 172 3053 
L 172 3500 
L 594 3500 
L 594 4494 
L 1172 4494 
z
" transform="scale(0.015625)"/>
      <path id="DejaVuSans-46" d="M 628 4666 
L 3309 4666 
L 3309 4134 
L 1259 4134 
L 1259 2759 
L 3109 2759 
L 3109 2228 
L 1259 2228 
L 1259 0 
L 628 0 
L 628 4666 
z
" transform="scale(0.015625)"/>
      <path id="DejaVuSans-61" d="M 2194 1759 
Q 1497 1759 1228 1600 
Q 959 1441 959 1056 
Q 959 750 1161 570 
Q 1363 391 1709 391 
Q 2188 391 2477 730 
Q 2766 1069 2766 1631 
L 2766 1759 
L 2194 1759 
z
M 3341 1997 
L 3341 0 
L 2766 0 
L 2766 531 
Q 2569 213 2275 61 
Q 1981 -91 1556 -91 
Q 1019 -91 701 211 
Q 384 513 384 1019 
Q 384 1609 779 1909 
Q 1175 2209 1959 2209 
L 2766 2209 
L 2766 2266 
Q 2766 2663 2505 2880 
Q 2244 3097 1772 3097 
Q 1472 3097 1187 3025 
Q 903 2953 641 2809 
L 641 3341 
Q 956 3463 1253 3523 
Q 1550 3584 1831 3584 
Q 2591 3584 2966 3190 
Q 3341 2797 3341 1997 
z
" transform="scale(0.015625)"/>
      <path id="DejaVuSans-75" d="M 544 1381 
L 544 3500 
L 1119 3500 
L 1119 1403 
Q 1119 906 1312 657 
Q 1506 409 1894 409 
Q 2359 409 2629 706 
Q 2900 1003 2900 1516 
L 2900 3500 
L 3475 3500 
L 3475 0 
L 2900 0 
L 2900 538 
Q 2691 219 2414 64 
Q 2138 -91 1772 -91 
Q 1169 -91 856 284 
Q 544 659 544 1381 
z
M 1991 3584 
L 1991 3584 
z
" transform="scale(0.015625)"/>
      <path id="DejaVuSans-6c" d="M 603 4863 
L 1178 4863 
L 1178 0 
L 603 0 
L 603 4863 
z
" transform="scale(0.015625)"/>
      <path id="DejaVuSans-6f" d="M 1959 3097 
Q 1497 3097 1228 2736 
Q 959 2375 959 1747 
Q 959 1119 1226 758 
Q 1494 397 1959 397 
Q 2419 397 2687 759 
Q 2956 1122 2956 1747 
Q 2956 2369 2687 2733 
Q 2419 3097 1959 3097 
z
M 1959 3584 
Q 2709 3584 3137 3096 
Q 3566 2609 3566 1747 
Q 3566 888 3137 398 
Q 2709 -91 1959 -91 
Q 1206 -91 779 398 
Q 353 888 353 1747 
Q 353 2609 779 3096 
Q 1206 3584 1959 3584 
z
" transform="scale(0.015625)"/>
      <path id="DejaVuSans-64" d="M 2906 2969 
L 2906 4863 
L 3481 4863 
L 3481 0 
L 2906 0 
L 2906 525 
Q 2725 213 2448 61 
Q 2172 -91 1784 -91 
Q 1150 -91 751 415 
Q 353 922 353 1747 
Q 353 2572 751 3078 
Q 1150 3584 1784 3584 
Q 2172 3584 2448 3432 
Q 2725 3281 2906 2969 
z
M 947 1747 
Q 947 1113 1208 752 
Q 1469 391 1925 391 
Q 2381 391 2643 752 
Q 2906 1113 2906 1747 
Q 2906 2381 2643 2742 
Q 2381 3103 1925 3103 
Q 1469 3103 1208 2742 
Q 947 2381 947 1747 
z
" transform="scale(0.015625)"/>
     </defs>
     <use xlink:href="#DejaVuSans-4e"/>
     <use xlink:href="#DejaVuSans-65" transform="translate(74.804688 0)"/>
     <use xlink:href="#DejaVuSans-78" transform="translate(134.578125 0)"/>
     <use xlink:href="#DejaVuSans-74" transform="translate(193.757812 0)"/>
     <use xlink:href="#DejaVuSans-20" transform="translate(232.966797 0)"/>
     <use xlink:href="#DejaVuSans-46" transform="translate(264.753906 0)"/>
     <use xlink:href="#DejaVuSans-61" transform="translate(313.148438 0)"/>
     <use xlink:href="#DejaVuSans-75" transform="translate(374.427734 0)"/>
     <use xlink:href="#DejaVuSans-6c" transform="translate(437.806641 0)"/>
     <use xlink:href="#DejaVuSans-74" transform="translate(465.589844 0)"/>
     <use xlink:href="#DejaVuSans-6c" transform="translate(504.798828 0)"/>
     <use xlink:href="#DejaVuSans-6f" transform="translate(532.582031 0)"/>
     <use xlink:href="#DejaVuSans-61" transform="translate(593.763672 0)"/>
     <use xlink:href="#DejaVuSans-64" transform="translate(655.042969 0)"/>
    </g>
   </g>
  </g>
 </g>
 <defs>
  <clipPath id="pa7d6c02410">
   <rect x="72" y="51.84" width="446.4" height="332.64"/>
  </clipPath>
 </defs>
</svg>
