<?xml version="1.0" encoding="utf-8" standalone="no"?>
<!DOCTYPE svg PUBLIC "-//W3C//DTD SVG 1.1//EN"
  "http://www.w3.org/Graphics/SVG/1.1/DTD/svg11.dtd">
<svg xmlns:xlink="http://www.w3.org/1999/xlink" width="576pt" height="432pt" viewBox="0 0 576 432" xmlns="http://www.w3.org/2000/svg" version="1.1">
 <metadata>
  <rdf:RDF xmlns:dc="http://purl.org/dc/elements/1.1/" xmlns:cc="http://creativecommons.org/ns#" xmlns:rdf="http://www.w3.org/1999/02/22-rdf-syntax-ns#">
   <cc:Work>
    <dc:type rdf:resource="http://purl.org/dc/dcmitype/StillImage"/>
    <dc:date>2025-06-10T03:16:34.614932</dc:date>
    <dc:format>image/svg+xml</dc:format>
    <dc:creator>
     <cc:Agent>
      <dc:title>Matplotlib v3.10.3, https://matplotlib.org/</dc:title>
     </cc:Agent>
    </dc:creator>
   </cc:Work>
  </rdf:RDF>
 </metadata>
 <defs>
  <style type="text/css">*{stroke-linejoin: round; stroke-linecap: butt}</style>
 </defs>
 <g id="figure_1">
  <g id="patch_1">
   <path d="M 0 432 
L 576 432 
L 576 0 
L 0 0 
z
" style="fill: #ffffff"/>
  </g>
  <g id="axes_1">
   <g id="patch_2">
    <path d="M 72 384.48 
L 518.4 384.48 
L 518.4 51.84 
L 72 51.84 
z
" style="fill: #ffffff"/>
   </g>
   <g id="FillBetweenPolyCollection_1">
    <path d="M 378.681471 371.550996 
L 211.718529 371.550996 
L 196.749117 368.475373 
L 186.889643 365.39975 
L 183.6 362.324128 
L 186.937535 359.248505 
L 195.644066 356.172882 
L 207.675849 353.097259 
L 220.902087 350.021636 
L 233.664711 346.946013 
L 245.022077 343.87039 
L 254.684012 340.794768 
L 262.77176 337.719145 
L 269.558154 334.643522 
L 275.288784 331.567899 
L 280.110922 328.492276 
L 284.08499 325.416653 
L 287.234634 322.34103 
L 289.597129 319.265408 
L 291.252257 316.189785 
L 292.324627 313.114162 
L 292.966089 310.038539 
L 293.32977 306.962916 
L 293.546321 303.887293 
L 293.708959 300.81167 
L 293.869358 297.736048 
L 294.042863 294.660425 
L 294.219295 291.584802 
L 294.37487 288.509179 
L 294.481667 285.433556 
L 294.51337 282.357933 
L 294.448652 279.28231 
L 294.274849 276.206688 
L 293.993497 273.131065 
L 293.626388 270.055442 
L 293.218291 266.979819 
L 292.83232 263.904196 
L 292.53701 260.828573 
L 292.388613 257.75295 
L 292.415378 254.677328 
L 292.610264 251.601705 
L 292.934788 248.526082 
L 293.331737 245.450459 
L 293.741147 242.374836 
L 294.113766 239.299213 
L 294.418634 236.22359 
L 294.644433 233.147968 
L 294.796243 230.072345 
L 294.889843 226.996722 
L 294.94536 223.921099 
L 294.981607 220.845476 
L 295.012157 217.769853 
L 295.043822 214.69423 
L 295.077507 211.618608 
L 295.110621 208.542985 
L 295.139773 205.467362 
L 295.162663 202.391739 
L 295.178746 199.316116 
L 295.188902 196.240493 
L 295.194687 193.16487 
L 295.197669 190.089247 
L 295.199063 187.013625 
L 295.199654 183.938002 
L 295.199883 180.862379 
L 295.199962 177.786756 
L 295.199982 174.711133 
L 295.199968 171.63551 
L 295.199893 168.559887 
L 295.199644 165.484265 
L 295.1989 162.408642 
L 295.196865 159.333019 
L 295.191745 156.257396 
L 295.179897 153.181773 
L 295.154679 150.10615 
L 295.1053 147.030527 
L 295.016389 143.954905 
L 294.869296 140.879282 
L 294.646086 137.803659 
L 294.336316 134.728036 
L 293.945184 131.652413 
L 293.499903 128.57679 
L 293.050497 125.501167 
L 292.662432 122.425545 
L 292.401664 119.349922 
L 292.316556 116.274299 
L 292.423361 113.198676 
L 292.701223 110.123053 
L 293.098749 107.04743 
L 293.549307 103.971807 
L 293.988836 100.896185 
L 294.369695 97.820562 
L 294.666742 94.744939 
L 294.875641 91.669316 
L 295.00629 88.593693 
L 295.075215 85.51807 
L 295.099857 82.442447 
L 295.095814 79.366825 
L 295.076366 76.291202 
L 295.05284 73.215579 
L 295.034531 70.139956 
L 295.027878 67.064333 
L 295.372122 67.064333 
L 295.372122 67.064333 
L 295.365469 70.139956 
L 295.34716 73.215579 
L 295.323634 76.291202 
L 295.304186 79.366825 
L 295.300143 82.442447 
L 295.324785 85.51807 
L 295.39371 88.593693 
L 295.524359 91.669316 
L 295.733258 94.744939 
L 296.030305 97.820562 
L 296.411164 100.896185 
L 296.850693 103.971807 
L 297.301251 107.04743 
L 297.698777 110.123053 
L 297.976639 113.198676 
L 298.083444 116.274299 
L 297.998336 119.349922 
L 297.737568 122.425545 
L 297.349503 125.501167 
L 296.900097 128.57679 
L 296.454816 131.652413 
L 296.063684 134.728036 
L 295.753914 137.803659 
L 295.530704 140.879282 
L 295.383611 143.954905 
L 295.2947 147.030527 
L 295.245321 150.10615 
L 295.220103 153.181773 
L 295.208255 156.257396 
L 295.203135 159.333019 
L 295.2011 162.408642 
L 295.200356 165.484265 
L 295.200107 168.559887 
L 295.200032 171.63551 
L 295.200018 174.711133 
L 295.200038 177.786756 
L 295.200117 180.862379 
L 295.200346 183.938002 
L 295.200937 187.013625 
L 295.202331 190.089247 
L 295.205313 193.16487 
L 295.211098 196.240493 
L 295.221254 199.316116 
L 295.237337 202.391739 
L 295.260227 205.467362 
L 295.289379 208.542985 
L 295.322493 211.618608 
L 295.356178 214.69423 
L 295.387843 217.769853 
L 295.418393 220.845476 
L 295.45464 223.921099 
L 295.510157 226.996722 
L 295.603757 230.072345 
L 295.755567 233.147968 
L 295.981366 236.22359 
L 296.286234 239.299213 
L 296.658853 242.374836 
L 297.068263 245.450459 
L 297.465212 248.526082 
L 297.789736 251.601705 
L 297.984622 254.677328 
L 298.011387 257.75295 
L 297.86299 260.828573 
L 297.56768 263.904196 
L 297.181709 266.979819 
L 296.773612 270.055442 
L 296.406503 273.131065 
L 296.125151 276.206688 
L 295.951348 279.28231 
L 295.88663 282.357933 
L 295.918333 285.433556 
L 296.02513 288.509179 
L 296.180705 291.584802 
L 296.357137 294.660425 
L 296.530642 297.736048 
L 296.691041 300.81167 
L 296.853679 303.887293 
L 297.07023 306.962916 
L 297.433911 310.038539 
L 298.075373 313.114162 
L 299.147743 316.189785 
L 300.802871 319.265408 
L 303.165366 322.34103 
L 306.31501 325.416653 
L 310.289078 328.492276 
L 315.111216 331.567899 
L 320.841846 334.643522 
L 327.62824 337.719145 
L 335.715988 340.794768 
L 345.377923 343.87039 
L 356.735289 346.946013 
L 369.497913 350.021636 
L 382.724151 353.097259 
L 394.755934 356.172882 
L 403.462465 359.248505 
L 406.8 362.324128 
L 403.510357 365.39975 
L 393.650883 368.475373 
L 378.681471 371.550996 
z
" clip-path="url(#p5839ab8782)" style="fill: #1f77b4; fill-opacity: 0.3"/>
   </g>
   <g id="matplotlib.axis_1">
    <g id="xtick_1">
     <g id="line2d_1">
      <defs>
       <path id="me098bd96a9" d="M 0 0 
L 0 3.5 
" style="stroke: #000000; stroke-width: 0.8"/>
      </defs>
      <g>
       <use xlink:href="#me098bd96a9" x="295.2" y="384.48" style="stroke: #000000; stroke-width: 0.8"/>
      </g>
     </g>
     <g id="text_1">
      <!-- 1 -->
      <g transform="translate(292.01875 399.078438) scale(0.1 -0.1)">
       <defs>
        <path id="DejaVuSans-31" d="M 794 531 
L 1825 531 
L 1825 4091 
L 703 3866 
L 703 4441 
L 1819 4666 
L 2450 4666 
L 2450 531 
L 3481 531 
L 3481 0 
L 794 0 
L 794 531 
z
" transform="scale(0.015625)"/>
       </defs>
       <use xlink:href="#DejaVuSans-31"/>
      </g>
     </g>
    </g>
   </g>
   <g id="matplotlib.axis_2">
    <g id="ytick_1">
     <g id="line2d_2">
      <defs>
       <path id="m9945609a28" d="M 0 0 
L -3.5 0 
" style="stroke: #000000; stroke-width: 0.8"/>
      </defs>
      <g>
       <use xlink:href="#m9945609a28" x="72" y="384.48" style="stroke: #000000; stroke-width: 0.8"/>
      </g>
     </g>
     <g id="text_2">
      <!-- 0 -->
      <g transform="translate(58.6375 388.279219) scale(0.1 -0.1)">
       <defs>
        <path id="DejaVuSans-30" d="M 2034 4250 
Q 1547 4250 1301 3770 
Q 1056 3291 1056 2328 
Q 1056 1369 1301 889 
Q 1547 409 2034 409 
Q 2525 409 2770 889 
Q 3016 1369 3016 2328 
Q 3016 3291 2770 3770 
Q 2525 4250 2034 4250 
z
M 2034 4750 
Q 2819 4750 3233 4129 
Q 3647 3509 3647 2328 
Q 3647 1150 3233 529 
Q 2819 -91 2034 -91 
Q 1250 -91 836 529 
Q 422 1150 422 2328 
Q 422 3509 836 4129 
Q 1250 4750 2034 4750 
z
" transform="scale(0.015625)"/>
       </defs>
       <use xlink:href="#DejaVuSans-30"/>
      </g>
     </g>
    </g>
    <g id="ytick_2">
     <g id="line2d_3">
      <g>
       <use xlink:href="#m9945609a28" x="72" y="325.224777" style="stroke: #000000; stroke-width: 0.8"/>
      </g>
     </g>
     <g id="text_3">
      <!-- 5 -->
      <g transform="translate(58.6375 329.023995) scale(0.1 -0.1)">
       <defs>
        <path id="DejaVuSans-35" d="M 691 4666 
L 3169 4666 
L 3169 4134 
L 1269 4134 
L 1269 2991 
Q 1406 3038 1543 3061 
Q 1681 3084 1819 3084 
Q 2600 3084 3056 2656 
Q 3513 2228 3513 1497 
Q 3513 744 3044 326 
Q 2575 -91 1722 -91 
Q 1428 -91 1123 -41 
Q 819 9 494 109 
L 494 744 
Q 775 591 1075 516 
Q 1375 441 1709 441 
Q 2250 441 2565 725 
Q 2881 1009 2881 1497 
Q 2881 1984 2565 2268 
Q 2250 2553 1709 2553 
Q 1456 2553 1204 2497 
Q 953 2441 691 2322 
L 691 4666 
z
" transform="scale(0.015625)"/>
       </defs>
       <use xlink:href="#DejaVuSans-35"/>
      </g>
     </g>
    </g>
    <g id="ytick_3">
     <g id="line2d_4">
      <g>
       <use xlink:href="#m9945609a28" x="72" y="265.969553" style="stroke: #000000; stroke-width: 0.8"/>
      </g>
     </g>
     <g id="text_4">
      <!-- 10 -->
      <g transform="translate(52.275 269.768772) scale(0.1 -0.1)">
       <use xlink:href="#DejaVuSans-31"/>
       <use xlink:href="#DejaVuSans-30" transform="translate(63.623047 0)"/>
      </g>
     </g>
    </g>
    <g id="ytick_4">
     <g id="line2d_5">
      <g>
       <use xlink:href="#m9945609a28" x="72" y="206.71433" style="stroke: #000000; stroke-width: 0.8"/>
      </g>
     </g>
     <g id="text_5">
      <!-- 15 -->
      <g transform="translate(52.275 210.513549) scale(0.1 -0.1)">
       <use xlink:href="#DejaVuSans-31"/>
       <use xlink:href="#DejaVuSans-35" transform="translate(63.623047 0)"/>
      </g>
     </g>
    </g>
    <g id="ytick_5">
     <g id="line2d_6">
      <g>
       <use xlink:href="#m9945609a28" x="72" y="147.459106" style="stroke: #000000; stroke-width: 0.8"/>
      </g>
     </g>
     <g id="text_6">
      <!-- 20 -->
      <g transform="translate(52.275 151.258325) scale(0.1 -0.1)">
       <defs>
        <path id="DejaVuSans-32" d="M 1228 531 
L 3431 531 
L 3431 0 
L 469 0 
L 469 531 
Q 828 903 1448 1529 
Q 2069 2156 2228 2338 
Q 2531 2678 2651 2914 
Q 2772 3150 2772 3378 
Q 2772 3750 2511 3984 
Q 2250 4219 1831 4219 
Q 1534 4219 1204 4116 
Q 875 4013 500 3803 
L 500 4441 
Q 881 4594 1212 4672 
Q 1544 4750 1819 4750 
Q 2544 4750 2975 4387 
Q 3406 4025 3406 3419 
Q 3406 3131 3298 2873 
Q 3191 2616 2906 2266 
Q 2828 2175 2409 1742 
Q 1991 1309 1228 531 
z
" transform="scale(0.015625)"/>
       </defs>
       <use xlink:href="#DejaVuSans-32"/>
       <use xlink:href="#DejaVuSans-30" transform="translate(63.623047 0)"/>
      </g>
     </g>
    </g>
    <g id="ytick_6">
     <g id="line2d_7">
      <g>
       <use xlink:href="#m9945609a28" x="72" y="88.203883" style="stroke: #000000; stroke-width: 0.8"/>
      </g>
     </g>
     <g id="text_7">
      <!-- 25 -->
      <g transform="translate(52.275 92.003102) scale(0.1 -0.1)">
       <use xlink:href="#DejaVuSans-32"/>
       <use xlink:href="#DejaVuSans-35" transform="translate(63.623047 0)"/>
      </g>
     </g>
    </g>
    <g id="text_8">
     <!-- Time (ms) -->
     <g transform="translate(46.195312 243.359219) rotate(-90) scale(0.1 -0.1)">
      <defs>
       <path id="DejaVuSans-54" d="M -19 4666 
L 3928 4666 
L 3928 4134 
L 2272 4134 
L 2272 0 
L 1638 0 
L 1638 4134 
L -19 4134 
L -19 4666 
z
" transform="scale(0.015625)"/>
       <path id="DejaVuSans-69" d="M 603 3500 
L 1178 3500 
L 1178 0 
L 603 0 
L 603 3500 
z
M 603 4863 
L 1178 4863 
L 1178 4134 
L 603 4134 
L 603 4863 
z
" transform="scale(0.015625)"/>
       <path id="DejaVuSans-6d" d="M 3328 2828 
Q 3544 3216 3844 3400 
Q 4144 3584 4550 3584 
Q 5097 3584 5394 3201 
Q 5691 2819 5691 2113 
L 5691 0 
L 5113 0 
L 5113 2094 
Q 5113 2597 4934 2840 
Q 4756 3084 4391 3084 
Q 3944 3084 3684 2787 
Q 3425 2491 3425 1978 
L 3425 0 
L 2847 0 
L 2847 2094 
Q 2847 2600 2669 2842 
Q 2491 3084 2119 3084 
Q 1678 3084 1418 2786 
Q 1159 2488 1159 1978 
L 1159 0 
L 581 0 
L 581 3500 
L 1159 3500 
L 1159 2956 
Q 1356 3278 1631 3431 
Q 1906 3584 2284 3584 
Q 2666 3584 2933 3390 
Q 3200 3197 3328 2828 
z
" transform="scale(0.015625)"/>
       <path id="DejaVuSans-65" d="M 3597 1894 
L 3597 1613 
L 953 1613 
Q 991 1019 1311 708 
Q 1631 397 2203 397 
Q 2534 397 2845 478 
Q 3156 559 3463 722 
L 3463 178 
Q 3153 47 2828 -22 
Q 2503 -91 2169 -91 
Q 1331 -91 842 396 
Q 353 884 353 1716 
Q 353 2575 817 3079 
Q 1281 3584 2069 3584 
Q 2775 3584 3186 3129 
Q 3597 2675 3597 1894 
z
M 3022 2063 
Q 3016 2534 2758 2815 
Q 2500 3097 2075 3097 
Q 1594 3097 1305 2825 
Q 1016 2553 972 2059 
L 3022 2063 
z
" transform="scale(0.015625)"/>
       <path id="DejaVuSans-20" transform="scale(0.015625)"/>
       <path id="DejaVuSans-28" d="M 1984 4856 
Q 1566 4138 1362 3434 
Q 1159 2731 1159 2009 
Q 1159 1288 1364 580 
Q 1569 -128 1984 -844 
L 1484 -844 
Q 1016 -109 783 600 
Q 550 1309 550 2009 
Q 550 2706 781 3412 
Q 1013 4119 1484 4856 
L 1984 4856 
z
" transform="scale(0.015625)"/>
       <path id="DejaVuSans-73" d="M 2834 3397 
L 2834 2853 
Q 2591 2978 2328 3040 
Q 2066 3103 1784 3103 
Q 1356 3103 1142 2972 
Q 928 2841 928 2578 
Q 928 2378 1081 2264 
Q 1234 2150 1697 2047 
L 1894 2003 
Q 2506 1872 2764 1633 
Q 3022 1394 3022 966 
Q 3022 478 2636 193 
Q 2250 -91 1575 -91 
Q 1294 -91 989 -36 
Q 684 19 347 128 
L 347 722 
Q 666 556 975 473 
Q 1284 391 1588 391 
Q 1994 391 2212 530 
Q 2431 669 2431 922 
Q 2431 1156 2273 1281 
Q 2116 1406 1581 1522 
L 1381 1569 
Q 847 1681 609 1914 
Q 372 2147 372 2553 
Q 372 3047 722 3315 
Q 1072 3584 1716 3584 
Q 2034 3584 2315 3537 
Q 2597 3491 2834 3397 
z
" transform="scale(0.015625)"/>
       <path id="DejaVuSans-29" d="M 513 4856 
L 1013 4856 
Q 1481 4119 1714 3412 
Q 1947 2706 1947 2009 
Q 1947 1309 1714 600 
Q 1481 -109 1013 -844 
L 513 -844 
Q 928 -128 1133 580 
Q 1338 1288 1338 2009 
Q 1338 2731 1133 3434 
Q 928 4138 513 4856 
z
" transform="scale(0.015625)"/>
      </defs>
      <use xlink:href="#DejaVuSans-54"/>
      <use xlink:href="#DejaVuSans-69" transform="translate(57.958984 0)"/>
      <use xlink:href="#DejaVuSans-6d" transform="translate(85.742188 0)"/>
      <use xlink:href="#DejaVuSans-65" transform="translate(183.154297 0)"/>
      <use xlink:href="#DejaVuSans-20" transform="translate(244.677734 0)"/>
      <use xlink:href="#DejaVuSans-28" transform="translate(276.464844 0)"/>
      <use xlink:href="#DejaVuSans-6d" transform="translate(315.478516 0)"/>
      <use xlink:href="#DejaVuSans-73" transform="translate(412.890625 0)"/>
      <use xlink:href="#DejaVuSans-29" transform="translate(464.990234 0)"/>
     </g>
    </g>
   </g>
   <g id="LineCollection_1">
    <path d="M 239.4 350.407696 
L 351 350.407696 
" clip-path="url(#p5839ab8782)" style="fill: none; stroke: #1f77b4; stroke-width: 1.5"/>
   </g>
   <g id="LineCollection_2">
    <path d="M 239.4 67.064333 
L 351 67.064333 
" clip-path="url(#p5839ab8782)" style="fill: none; stroke: #1f77b4; stroke-width: 1.5"/>
   </g>
   <g id="LineCollection_3">
    <path d="M 239.4 371.550996 
L 351 371.550996 
" clip-path="url(#p5839ab8782)" style="fill: none; stroke: #1f77b4; stroke-width: 1.5"/>
   </g>
   <g id="LineCollection_4">
    <path d="M 295.2 371.550996 
L 295.2 67.064333 
" clip-path="url(#p5839ab8782)" style="fill: none; stroke: #1f77b4; stroke-width: 1.5"/>
   </g>
   <g id="patch_3">
    <path d="M 250.56 366.052114 
L 339.84 366.052114 
L 339.84 350.905475 
L 250.56 350.905475 
L 250.56 366.052114 
z
" clip-path="url(#p5839ab8782)" style="fill: #1f77b4; stroke: #000000; stroke-linejoin: miter"/>
   </g>
   <g id="line2d_8">
    <path d="M 295.2 366.052114 
L 295.2 371.550996 
" clip-path="url(#p5839ab8782)" style="fill: none; stroke: #000000; stroke-linecap: square"/>
   </g>
   <g id="line2d_9">
    <path d="M 295.2 350.905475 
L 295.2 328.779237 
" clip-path="url(#p5839ab8782)" style="fill: none; stroke: #000000; stroke-linecap: square"/>
   </g>
   <g id="line2d_10">
    <path d="M 272.88 371.550996 
L 317.52 371.550996 
" clip-path="url(#p5839ab8782)" style="fill: none; stroke: #000000; stroke-linecap: square"/>
   </g>
   <g id="line2d_11">
    <path d="M 272.88 328.779237 
L 317.52 328.779237 
" clip-path="url(#p5839ab8782)" style="fill: none; stroke: #000000; stroke-linecap: square"/>
   </g>
   <g id="line2d_12">
    <defs>
     <path id="m305a4e1e10" d="M 0 3 
C 0.795609 3 1.55874 2.683901 2.12132 2.12132 
C 2.683901 1.55874 3 0.795609 3 0 
C 3 -0.795609 2.683901 -1.55874 2.12132 -2.12132 
C 1.55874 -2.683901 0.795609 -3 0 -3 
C -0.795609 -3 -1.55874 -2.683901 -2.12132 -2.12132 
C -2.683901 -1.55874 -3 -0.795609 -3 0 
C -3 0.795609 -2.683901 1.55874 -2.12132 2.12132 
C -1.55874 2.683901 -0.795609 3 0 3 
z
" style="stroke: #000000"/>
    </defs>
    <g clip-path="url(#p5839ab8782)">
     <use xlink:href="#m305a4e1e10" x="295.2" y="105.748655" style="fill-opacity: 0; stroke: #000000"/>
     <use xlink:href="#m305a4e1e10" x="295.2" y="257.060874" style="fill-opacity: 0; stroke: #000000"/>
     <use xlink:href="#m305a4e1e10" x="295.2" y="283.188007" style="fill-opacity: 0; stroke: #000000"/>
     <use xlink:href="#m305a4e1e10" x="295.2" y="297.882971" style="fill-opacity: 0; stroke: #000000"/>
     <use xlink:href="#m305a4e1e10" x="295.2" y="115.8048" style="fill-opacity: 0; stroke: #000000"/>
     <use xlink:href="#m305a4e1e10" x="295.2" y="259.005002" style="fill-opacity: 0; stroke: #000000"/>
     <use xlink:href="#m305a4e1e10" x="295.2" y="326.19751" style="fill-opacity: 0; stroke: #000000"/>
     <use xlink:href="#m305a4e1e10" x="295.2" y="126.263454" style="fill-opacity: 0; stroke: #000000"/>
     <use xlink:href="#m305a4e1e10" x="295.2" y="247.601157" style="fill-opacity: 0; stroke: #000000"/>
     <use xlink:href="#m305a4e1e10" x="295.2" y="110.301708" style="fill-opacity: 0; stroke: #000000"/>
     <use xlink:href="#m305a4e1e10" x="295.2" y="262.339981" style="fill-opacity: 0; stroke: #000000"/>
     <use xlink:href="#m305a4e1e10" x="295.2" y="304.212033" style="fill-opacity: 0; stroke: #000000"/>
     <use xlink:href="#m305a4e1e10" x="295.2" y="125.665059" style="fill-opacity: 0; stroke: #000000"/>
     <use xlink:href="#m305a4e1e10" x="295.2" y="256.152219" style="fill-opacity: 0; stroke: #000000"/>
     <use xlink:href="#m305a4e1e10" x="295.2" y="122.309957" style="fill-opacity: 0; stroke: #000000"/>
     <use xlink:href="#m305a4e1e10" x="295.2" y="264.154542" style="fill-opacity: 0; stroke: #000000"/>
     <use xlink:href="#m305a4e1e10" x="295.2" y="67.064333" style="fill-opacity: 0; stroke: #000000"/>
     <use xlink:href="#m305a4e1e10" x="295.2" y="220.596549" style="fill-opacity: 0; stroke: #000000"/>
     <use xlink:href="#m305a4e1e10" x="295.2" y="296.856007" style="fill-opacity: 0; stroke: #000000"/>
     <use xlink:href="#m305a4e1e10" x="295.2" y="112.376139" style="fill-opacity: 0; stroke: #000000"/>
     <use xlink:href="#m305a4e1e10" x="295.2" y="248.602878" style="fill-opacity: 0; stroke: #000000"/>
     <use xlink:href="#m305a4e1e10" x="295.2" y="314.799851" style="fill-opacity: 0; stroke: #000000"/>
     <use xlink:href="#m305a4e1e10" x="295.2" y="119.025736" style="fill-opacity: 0; stroke: #000000"/>
     <use xlink:href="#m305a4e1e10" x="295.2" y="259.433963" style="fill-opacity: 0; stroke: #000000"/>
     <use xlink:href="#m305a4e1e10" x="295.2" y="297.200564" style="fill-opacity: 0; stroke: #000000"/>
     <use xlink:href="#m305a4e1e10" x="295.2" y="108.716975" style="fill-opacity: 0; stroke: #000000"/>
     <use xlink:href="#m305a4e1e10" x="295.2" y="255.680441" style="fill-opacity: 0; stroke: #000000"/>
     <use xlink:href="#m305a4e1e10" x="295.2" y="320.751031" style="fill-opacity: 0; stroke: #000000"/>
     <use xlink:href="#m305a4e1e10" x="295.2" y="119.453535" style="fill-opacity: 0; stroke: #000000"/>
     <use xlink:href="#m305a4e1e10" x="295.2" y="264.289561" style="fill-opacity: 0; stroke: #000000"/>
     <use xlink:href="#m305a4e1e10" x="295.2" y="307.699961" style="fill-opacity: 0; stroke: #000000"/>
     <use xlink:href="#m305a4e1e10" x="295.2" y="121.844365" style="fill-opacity: 0; stroke: #000000"/>
     <use xlink:href="#m305a4e1e10" x="295.2" y="257.405668" style="fill-opacity: 0; stroke: #000000"/>
     <use xlink:href="#m305a4e1e10" x="295.2" y="328.01411" style="fill-opacity: 0; stroke: #000000"/>
     <use xlink:href="#m305a4e1e10" x="295.2" y="308.928251" style="fill-opacity: 0; stroke: #000000"/>
     <use xlink:href="#m305a4e1e10" x="295.2" y="118.70609" style="fill-opacity: 0; stroke: #000000"/>
     <use xlink:href="#m305a4e1e10" x="295.2" y="251.415854" style="fill-opacity: 0; stroke: #000000"/>
     <use xlink:href="#m305a4e1e10" x="295.2" y="324.329561" style="fill-opacity: 0; stroke: #000000"/>
     <use xlink:href="#m305a4e1e10" x="295.2" y="114.100881" style="fill-opacity: 0; stroke: #000000"/>
     <use xlink:href="#m305a4e1e10" x="295.2" y="255.284402" style="fill-opacity: 0; stroke: #000000"/>
     <use xlink:href="#m305a4e1e10" x="295.2" y="116.432479" style="fill-opacity: 0; stroke: #000000"/>
     <use xlink:href="#m305a4e1e10" x="295.2" y="249.451212" style="fill-opacity: 0; stroke: #000000"/>
     <use xlink:href="#m305a4e1e10" x="295.2" y="114.406033" style="fill-opacity: 0; stroke: #000000"/>
     <use xlink:href="#m305a4e1e10" x="295.2" y="257.956967" style="fill-opacity: 0; stroke: #000000"/>
     <use xlink:href="#m305a4e1e10" x="295.2" y="114.821021" style="fill-opacity: 0; stroke: #000000"/>
     <use xlink:href="#m305a4e1e10" x="295.2" y="253.939629" style="fill-opacity: 0; stroke: #000000"/>
     <use xlink:href="#m305a4e1e10" x="295.2" y="304.708698" style="fill-opacity: 0; stroke: #000000"/>
     <use xlink:href="#m305a4e1e10" x="295.2" y="109.92872" style="fill-opacity: 0; stroke: #000000"/>
     <use xlink:href="#m305a4e1e10" x="295.2" y="259.024047" style="fill-opacity: 0; stroke: #000000"/>
     <use xlink:href="#m305a4e1e10" x="295.2" y="301.754091" style="fill-opacity: 0; stroke: #000000"/>
     <use xlink:href="#m305a4e1e10" x="295.2" y="116.8738" style="fill-opacity: 0; stroke: #000000"/>
     <use xlink:href="#m305a4e1e10" x="295.2" y="241.372141" style="fill-opacity: 0; stroke: #000000"/>
     <use xlink:href="#m305a4e1e10" x="295.2" y="119.382156" style="fill-opacity: 0; stroke: #000000"/>
     <use xlink:href="#m305a4e1e10" x="295.2" y="265.420222" style="fill-opacity: 0; stroke: #000000"/>
    </g>
   </g>
   <g id="line2d_13">
    <path d="M 250.56 361.773221 
L 339.84 361.773221 
" clip-path="url(#p5839ab8782)" style="fill: none; stroke: #ff7f0e"/>
   </g>
   <g id="patch_4">
    <path d="M 72 384.48 
L 72 51.84 
" style="fill: none; stroke: #000000; stroke-width: 0.8; stroke-linejoin: miter; stroke-linecap: square"/>
   </g>
   <g id="patch_5">
    <path d="M 518.4 384.48 
L 518.4 51.84 
" style="fill: none; stroke: #000000; stroke-width: 0.8; stroke-linejoin: miter; stroke-linecap: square"/>
   </g>
   <g id="patch_6">
    <path d="M 72 384.48 
L 518.4 384.48 
" style="fill: none; stroke: #000000; stroke-width: 0.8; stroke-linejoin: miter; stroke-linecap: square"/>
   </g>
   <g id="patch_7">
    <path d="M 72 51.84 
L 518.4 51.84 
" style="fill: none; stroke: #000000; stroke-width: 0.8; stroke-linejoin: miter; stroke-linecap: square"/>
   </g>
   <g id="text_9">
    <!-- Handle Result -->
    <g transform="translate(253.595625 45.84) scale(0.12 -0.12)">
     <defs>
      <path id="DejaVuSans-48" d="M 628 4666 
L 1259 4666 
L 1259 2753 
L 3553 2753 
L 3553 4666 
L 4184 4666 
L 4184 0 
L 3553 0 
L 3553 2222 
L 1259 2222 
L 1259 0 
L 628 0 
L 628 4666 
z
" transform="scale(0.015625)"/>
      <path id="DejaVuSans-61" d="M 2194 1759 
Q 1497 1759 1228 1600 
Q 959 1441 959 1056 
Q 959 750 1161 570 
Q 1363 391 1709 391 
Q 2188 391 2477 730 
Q 2766 1069 2766 1631 
L 2766 1759 
L 2194 1759 
z
M 3341 1997 
L 3341 0 
L 2766 0 
L 2766 531 
Q 2569 213 2275 61 
Q 1981 -91 1556 -91 
Q 1019 -91 701 211 
Q 384 513 384 1019 
Q 384 1609 779 1909 
Q 1175 2209 1959 2209 
L 2766 2209 
L 2766 2266 
Q 2766 2663 2505 2880 
Q 2244 3097 1772 3097 
Q 1472 3097 1187 3025 
Q 903 2953 641 2809 
L 641 3341 
Q 956 3463 1253 3523 
Q 1550 3584 1831 3584 
Q 2591 3584 2966 3190 
Q 3341 2797 3341 1997 
z
" transform="scale(0.015625)"/>
      <path id="DejaVuSans-6e" d="M 3513 2113 
L 3513 0 
L 2938 0 
L 2938 2094 
Q 2938 2591 2744 2837 
Q 2550 3084 2163 3084 
Q 1697 3084 1428 2787 
Q 1159 2491 1159 1978 
L 1159 0 
L 581 0 
L 581 3500 
L 1159 3500 
L 1159 2956 
Q 1366 3272 1645 3428 
Q 1925 3584 2291 3584 
Q 2894 3584 3203 3211 
Q 3513 2838 3513 2113 
z
" transform="scale(0.015625)"/>
      <path id="DejaVuSans-64" d="M 2906 2969 
L 2906 4863 
L 3481 4863 
L 3481 0 
L 2906 0 
L 2906 525 
Q 2725 213 2448 61 
Q 2172 -91 1784 -91 
Q 1150 -91 751 415 
Q 353 922 353 1747 
Q 353 2572 751 3078 
Q 1150 3584 1784 3584 
Q 2172 3584 2448 3432 
Q 2725 3281 2906 2969 
z
M 947 1747 
Q 947 1113 1208 752 
Q 1469 391 1925 391 
Q 2381 391 2643 752 
Q 2906 1113 2906 1747 
Q 2906 2381 2643 2742 
Q 2381 3103 1925 3103 
Q 1469 3103 1208 2742 
Q 947 2381 947 1747 
z
" transform="scale(0.015625)"/>
      <path id="DejaVuSans-6c" d="M 603 4863 
L 1178 4863 
L 1178 0 
L 603 0 
L 603 4863 
z
" transform="scale(0.015625)"/>
      <path id="DejaVuSans-52" d="M 2841 2188 
Q 3044 2119 3236 1894 
Q 3428 1669 3622 1275 
L 4263 0 
L 3584 0 
L 2988 1197 
Q 2756 1666 2539 1819 
Q 2322 1972 1947 1972 
L 1259 1972 
L 1259 0 
L 628 0 
L 628 4666 
L 2053 4666 
Q 2853 4666 3247 4331 
Q 3641 3997 3641 3322 
Q 3641 2881 3436 2590 
Q 3231 2300 2841 2188 
z
M 1259 4147 
L 1259 2491 
L 2053 2491 
Q 2509 2491 2742 2702 
Q 2975 2913 2975 3322 
Q 2975 3731 2742 3939 
Q 2509 4147 2053 4147 
L 1259 4147 
z
" transform="scale(0.015625)"/>
      <path id="DejaVuSans-75" d="M 544 1381 
L 544 3500 
L 1119 3500 
L 1119 1403 
Q 1119 906 1312 657 
Q 1506 409 1894 409 
Q 2359 409 2629 706 
Q 2900 1003 2900 1516 
L 2900 3500 
L 3475 3500 
L 3475 0 
L 2900 0 
L 2900 538 
Q 2691 219 2414 64 
Q 2138 -91 1772 -91 
Q 1169 -91 856 284 
Q 544 659 544 1381 
z
M 1991 3584 
L 1991 3584 
z
" transform="scale(0.015625)"/>
      <path id="DejaVuSans-74" d="M 1172 4494 
L 1172 3500 
L 2356 3500 
L 2356 3053 
L 1172 3053 
L 1172 1153 
Q 1172 725 1289 603 
Q 1406 481 1766 481 
L 2356 481 
L 2356 0 
L 1766 0 
Q 1100 0 847 248 
Q 594 497 594 1153 
L 594 3053 
L 172 3053 
L 172 3500 
L 594 3500 
L 594 4494 
L 1172 4494 
z
" transform="scale(0.015625)"/>
     </defs>
     <use xlink:href="#DejaVuSans-48"/>
     <use xlink:href="#DejaVuSans-61" transform="translate(75.195312 0)"/>
     <use xlink:href="#DejaVuSans-6e" transform="translate(136.474609 0)"/>
     <use xlink:href="#DejaVuSans-64" transform="translate(199.853516 0)"/>
     <use xlink:href="#DejaVuSans-6c" transform="translate(263.330078 0)"/>
     <use xlink:href="#DejaVuSans-65" transform="translate(291.113281 0)"/>
     <use xlink:href="#DejaVuSans-20" transform="translate(352.636719 0)"/>
     <use xlink:href="#DejaVuSans-52" transform="translate(384.423828 0)"/>
     <use xlink:href="#DejaVuSans-65" transform="translate(449.40625 0)"/>
     <use xlink:href="#DejaVuSans-73" transform="translate(510.929688 0)"/>
     <use xlink:href="#DejaVuSans-75" transform="translate(563.029297 0)"/>
     <use xlink:href="#DejaVuSans-6c" transform="translate(626.408203 0)"/>
     <use xlink:href="#DejaVuSans-74" transform="translate(654.191406 0)"/>
    </g>
   </g>
  </g>
 </g>
 <defs>
  <clipPath id="p5839ab8782">
   <rect x="72" y="51.84" width="446.4" height="332.64"/>
  </clipPath>
 </defs>
</svg>
