<?xml version="1.0" encoding="utf-8" standalone="no"?>
<!DOCTYPE svg PUBLIC "-//W3C//DTD SVG 1.1//EN"
  "http://www.w3.org/Graphics/SVG/1.1/DTD/svg11.dtd">
<svg xmlns:xlink="http://www.w3.org/1999/xlink" width="720pt" height="432pt" viewBox="0 0 720 432" xmlns="http://www.w3.org/2000/svg" version="1.1">
 <metadata>
  <rdf:RDF xmlns:dc="http://purl.org/dc/elements/1.1/" xmlns:cc="http://creativecommons.org/ns#" xmlns:rdf="http://www.w3.org/1999/02/22-rdf-syntax-ns#">
   <cc:Work>
    <dc:type rdf:resource="http://purl.org/dc/dcmitype/StillImage"/>
    <dc:date>2025-06-10T03:16:40.820184</dc:date>
    <dc:format>image/svg+xml</dc:format>
    <dc:creator>
     <cc:Agent>
      <dc:title>Matplotlib v3.10.3, https://matplotlib.org/</dc:title>
     </cc:Agent>
    </dc:creator>
   </cc:Work>
  </rdf:RDF>
 </metadata>
 <defs>
  <style type="text/css">*{stroke-linejoin: round; stroke-linecap: butt}</style>
 </defs>
 <g id="figure_1">
  <g id="patch_1">
   <path d="M 0 432 
L 720 432 
L 720 0 
L 0 0 
z
" style="fill: #ffffff"/>
  </g>
  <g id="axes_1">
   <g id="patch_2">
    <path d="M 90 384.48 
L 648 384.48 
L 648 51.84 
L 90 51.84 
z
" style="fill: #ffffff"/>
   </g>
   <g id="matplotlib.axis_1">
    <g id="xtick_1">
     <g id="line2d_1">
      <defs>
       <path id="maa09b8f32f" d="M 0 0 
L 0 3.5 
" style="stroke: #000000; stroke-width: 0.8"/>
      </defs>
      <g>
       <use xlink:href="#maa09b8f32f" x="115.363636" y="384.48" style="stroke: #000000; stroke-width: 0.8"/>
      </g>
     </g>
     <g id="text_1">
      <!-- 0 -->
      <g transform="translate(112.182386 399.078438) scale(0.1 -0.1)">
       <defs>
        <path id="DejaVuSans-30" d="M 2034 4250 
Q 1547 4250 1301 3770 
Q 1056 3291 1056 2328 
Q 1056 1369 1301 889 
Q 1547 409 2034 409 
Q 2525 409 2770 889 
Q 3016 1369 3016 2328 
Q 3016 3291 2770 3770 
Q 2525 4250 2034 4250 
z
M 2034 4750 
Q 2819 4750 3233 4129 
Q 3647 3509 3647 2328 
Q 3647 1150 3233 529 
Q 2819 -91 2034 -91 
Q 1250 -91 836 529 
Q 422 1150 422 2328 
Q 422 3509 836 4129 
Q 1250 4750 2034 4750 
z
" transform="scale(0.015625)"/>
       </defs>
       <use xlink:href="#DejaVuSans-30"/>
      </g>
     </g>
    </g>
    <g id="xtick_2">
     <g id="line2d_2">
      <g>
       <use xlink:href="#maa09b8f32f" x="219.355585" y="384.48" style="stroke: #000000; stroke-width: 0.8"/>
      </g>
     </g>
     <g id="text_2">
      <!-- 500 -->
      <g transform="translate(209.811835 399.078438) scale(0.1 -0.1)">
       <defs>
        <path id="DejaVuSans-35" d="M 691 4666 
L 3169 4666 
L 3169 4134 
L 1269 4134 
L 1269 2991 
Q 1406 3038 1543 3061 
Q 1681 3084 1819 3084 
Q 2600 3084 3056 2656 
Q 3513 2228 3513 1497 
Q 3513 744 3044 326 
Q 2575 -91 1722 -91 
Q 1428 -91 1123 -41 
Q 819 9 494 109 
L 494 744 
Q 775 591 1075 516 
Q 1375 441 1709 441 
Q 2250 441 2565 725 
Q 2881 1009 2881 1497 
Q 2881 1984 2565 2268 
Q 2250 2553 1709 2553 
Q 1456 2553 1204 2497 
Q 953 2441 691 2322 
L 691 4666 
z
" transform="scale(0.015625)"/>
       </defs>
       <use xlink:href="#DejaVuSans-35"/>
       <use xlink:href="#DejaVuSans-30" transform="translate(63.623047 0)"/>
       <use xlink:href="#DejaVuSans-30" transform="translate(127.246094 0)"/>
      </g>
     </g>
    </g>
    <g id="xtick_3">
     <g id="line2d_3">
      <g>
       <use xlink:href="#maa09b8f32f" x="323.347534" y="384.48" style="stroke: #000000; stroke-width: 0.8"/>
      </g>
     </g>
     <g id="text_3">
      <!-- 1000 -->
      <g transform="translate(310.622534 399.078438) scale(0.1 -0.1)">
       <defs>
        <path id="DejaVuSans-31" d="M 794 531 
L 1825 531 
L 1825 4091 
L 703 3866 
L 703 4441 
L 1819 4666 
L 2450 4666 
L 2450 531 
L 3481 531 
L 3481 0 
L 794 0 
L 794 531 
z
" transform="scale(0.015625)"/>
       </defs>
       <use xlink:href="#DejaVuSans-31"/>
       <use xlink:href="#DejaVuSans-30" transform="translate(63.623047 0)"/>
       <use xlink:href="#DejaVuSans-30" transform="translate(127.246094 0)"/>
       <use xlink:href="#DejaVuSans-30" transform="translate(190.869141 0)"/>
      </g>
     </g>
    </g>
    <g id="xtick_4">
     <g id="line2d_4">
      <g>
       <use xlink:href="#maa09b8f32f" x="427.339483" y="384.48" style="stroke: #000000; stroke-width: 0.8"/>
      </g>
     </g>
     <g id="text_4">
      <!-- 1500 -->
      <g transform="translate(414.614483 399.078438) scale(0.1 -0.1)">
       <use xlink:href="#DejaVuSans-31"/>
       <use xlink:href="#DejaVuSans-35" transform="translate(63.623047 0)"/>
       <use xlink:href="#DejaVuSans-30" transform="translate(127.246094 0)"/>
       <use xlink:href="#DejaVuSans-30" transform="translate(190.869141 0)"/>
      </g>
     </g>
    </g>
    <g id="xtick_5">
     <g id="line2d_5">
      <g>
       <use xlink:href="#maa09b8f32f" x="531.331432" y="384.48" style="stroke: #000000; stroke-width: 0.8"/>
      </g>
     </g>
     <g id="text_5">
      <!-- 2000 -->
      <g transform="translate(518.606432 399.078438) scale(0.1 -0.1)">
       <defs>
        <path id="DejaVuSans-32" d="M 1228 531 
L 3431 531 
L 3431 0 
L 469 0 
L 469 531 
Q 828 903 1448 1529 
Q 2069 2156 2228 2338 
Q 2531 2678 2651 2914 
Q 2772 3150 2772 3378 
Q 2772 3750 2511 3984 
Q 2250 4219 1831 4219 
Q 1534 4219 1204 4116 
Q 875 4013 500 3803 
L 500 4441 
Q 881 4594 1212 4672 
Q 1544 4750 1819 4750 
Q 2544 4750 2975 4387 
Q 3406 4025 3406 3419 
Q 3406 3131 3298 2873 
Q 3191 2616 2906 2266 
Q 2828 2175 2409 1742 
Q 1991 1309 1228 531 
z
" transform="scale(0.015625)"/>
       </defs>
       <use xlink:href="#DejaVuSans-32"/>
       <use xlink:href="#DejaVuSans-30" transform="translate(63.623047 0)"/>
       <use xlink:href="#DejaVuSans-30" transform="translate(127.246094 0)"/>
       <use xlink:href="#DejaVuSans-30" transform="translate(190.869141 0)"/>
      </g>
     </g>
    </g>
    <g id="xtick_6">
     <g id="line2d_6">
      <g>
       <use xlink:href="#maa09b8f32f" x="635.323381" y="384.48" style="stroke: #000000; stroke-width: 0.8"/>
      </g>
     </g>
     <g id="text_6">
      <!-- 2500 -->
      <g transform="translate(622.598381 399.078438) scale(0.1 -0.1)">
       <use xlink:href="#DejaVuSans-32"/>
       <use xlink:href="#DejaVuSans-35" transform="translate(63.623047 0)"/>
       <use xlink:href="#DejaVuSans-30" transform="translate(127.246094 0)"/>
       <use xlink:href="#DejaVuSans-30" transform="translate(190.869141 0)"/>
      </g>
     </g>
    </g>
    <g id="text_7">
     <!-- Index -->
     <g transform="translate(355.233594 412.756563) scale(0.1 -0.1)">
      <defs>
       <path id="DejaVuSans-49" d="M 628 4666 
L 1259 4666 
L 1259 0 
L 628 0 
L 628 4666 
z
" transform="scale(0.015625)"/>
       <path id="DejaVuSans-6e" d="M 3513 2113 
L 3513 0 
L 2938 0 
L 2938 2094 
Q 2938 2591 2744 2837 
Q 2550 3084 2163 3084 
Q 1697 3084 1428 2787 
Q 1159 2491 1159 1978 
L 1159 0 
L 581 0 
L 581 3500 
L 1159 3500 
L 1159 2956 
Q 1366 3272 1645 3428 
Q 1925 3584 2291 3584 
Q 2894 3584 3203 3211 
Q 3513 2838 3513 2113 
z
" transform="scale(0.015625)"/>
       <path id="DejaVuSans-64" d="M 2906 2969 
L 2906 4863 
L 3481 4863 
L 3481 0 
L 2906 0 
L 2906 525 
Q 2725 213 2448 61 
Q 2172 -91 1784 -91 
Q 1150 -91 751 415 
Q 353 922 353 1747 
Q 353 2572 751 3078 
Q 1150 3584 1784 3584 
Q 2172 3584 2448 3432 
Q 2725 3281 2906 2969 
z
M 947 1747 
Q 947 1113 1208 752 
Q 1469 391 1925 391 
Q 2381 391 2643 752 
Q 2906 1113 2906 1747 
Q 2906 2381 2643 2742 
Q 2381 3103 1925 3103 
Q 1469 3103 1208 2742 
Q 947 2381 947 1747 
z
" transform="scale(0.015625)"/>
       <path id="DejaVuSans-65" d="M 3597 1894 
L 3597 1613 
L 953 1613 
Q 991 1019 1311 708 
Q 1631 397 2203 397 
Q 2534 397 2845 478 
Q 3156 559 3463 722 
L 3463 178 
Q 3153 47 2828 -22 
Q 2503 -91 2169 -91 
Q 1331 -91 842 396 
Q 353 884 353 1716 
Q 353 2575 817 3079 
Q 1281 3584 2069 3584 
Q 2775 3584 3186 3129 
Q 3597 2675 3597 1894 
z
M 3022 2063 
Q 3016 2534 2758 2815 
Q 2500 3097 2075 3097 
Q 1594 3097 1305 2825 
Q 1016 2553 972 2059 
L 3022 2063 
z
" transform="scale(0.015625)"/>
       <path id="DejaVuSans-78" d="M 3513 3500 
L 2247 1797 
L 3578 0 
L 2900 0 
L 1881 1375 
L 863 0 
L 184 0 
L 1544 1831 
L 300 3500 
L 978 3500 
L 1906 2253 
L 2834 3500 
L 3513 3500 
z
" transform="scale(0.015625)"/>
      </defs>
      <use xlink:href="#DejaVuSans-49"/>
      <use xlink:href="#DejaVuSans-6e" transform="translate(29.492188 0)"/>
      <use xlink:href="#DejaVuSans-64" transform="translate(92.871094 0)"/>
      <use xlink:href="#DejaVuSans-65" transform="translate(156.347656 0)"/>
      <use xlink:href="#DejaVuSans-78" transform="translate(216.121094 0)"/>
     </g>
    </g>
   </g>
   <g id="matplotlib.axis_2">
    <g id="ytick_1">
     <g id="line2d_7">
      <defs>
       <path id="m9882f26b44" d="M 0 0 
L -3.5 0 
" style="stroke: #000000; stroke-width: 0.8"/>
      </defs>
      <g>
       <use xlink:href="#m9882f26b44" x="90" y="384.48" style="stroke: #000000; stroke-width: 0.8"/>
      </g>
     </g>
     <g id="text_8">
      <!-- 0 -->
      <g transform="translate(76.6375 388.279219) scale(0.1 -0.1)">
       <use xlink:href="#DejaVuSans-30"/>
      </g>
     </g>
    </g>
    <g id="ytick_2">
     <g id="line2d_8">
      <g>
       <use xlink:href="#m9882f26b44" x="90" y="327.470656" style="stroke: #000000; stroke-width: 0.8"/>
      </g>
     </g>
     <g id="text_9">
      <!-- 5 -->
      <g transform="translate(76.6375 331.269875) scale(0.1 -0.1)">
       <use xlink:href="#DejaVuSans-35"/>
      </g>
     </g>
    </g>
    <g id="ytick_3">
     <g id="line2d_9">
      <g>
       <use xlink:href="#m9882f26b44" x="90" y="270.461312" style="stroke: #000000; stroke-width: 0.8"/>
      </g>
     </g>
     <g id="text_10">
      <!-- 10 -->
      <g transform="translate(70.275 274.260531) scale(0.1 -0.1)">
       <use xlink:href="#DejaVuSans-31"/>
       <use xlink:href="#DejaVuSans-30" transform="translate(63.623047 0)"/>
      </g>
     </g>
    </g>
    <g id="ytick_4">
     <g id="line2d_10">
      <g>
       <use xlink:href="#m9882f26b44" x="90" y="213.451968" style="stroke: #000000; stroke-width: 0.8"/>
      </g>
     </g>
     <g id="text_11">
      <!-- 15 -->
      <g transform="translate(70.275 217.251187) scale(0.1 -0.1)">
       <use xlink:href="#DejaVuSans-31"/>
       <use xlink:href="#DejaVuSans-35" transform="translate(63.623047 0)"/>
      </g>
     </g>
    </g>
    <g id="ytick_5">
     <g id="line2d_11">
      <g>
       <use xlink:href="#m9882f26b44" x="90" y="156.442624" style="stroke: #000000; stroke-width: 0.8"/>
      </g>
     </g>
     <g id="text_12">
      <!-- 20 -->
      <g transform="translate(70.275 160.241843) scale(0.1 -0.1)">
       <use xlink:href="#DejaVuSans-32"/>
       <use xlink:href="#DejaVuSans-30" transform="translate(63.623047 0)"/>
      </g>
     </g>
    </g>
    <g id="ytick_6">
     <g id="line2d_12">
      <g>
       <use xlink:href="#m9882f26b44" x="90" y="99.43328" style="stroke: #000000; stroke-width: 0.8"/>
      </g>
     </g>
     <g id="text_13">
      <!-- 25 -->
      <g transform="translate(70.275 103.232499) scale(0.1 -0.1)">
       <use xlink:href="#DejaVuSans-32"/>
       <use xlink:href="#DejaVuSans-35" transform="translate(63.623047 0)"/>
      </g>
     </g>
    </g>
    <g id="text_14">
     <!-- Average time (ms) -->
     <g transform="translate(64.195312 264.543594) rotate(-90) scale(0.1 -0.1)">
      <defs>
       <path id="DejaVuSans-41" d="M 2188 4044 
L 1331 1722 
L 3047 1722 
L 2188 4044 
z
M 1831 4666 
L 2547 4666 
L 4325 0 
L 3669 0 
L 3244 1197 
L 1141 1197 
L 716 0 
L 50 0 
L 1831 4666 
z
" transform="scale(0.015625)"/>
       <path id="DejaVuSans-76" d="M 191 3500 
L 800 3500 
L 1894 563 
L 2988 3500 
L 3597 3500 
L 2284 0 
L 1503 0 
L 191 3500 
z
" transform="scale(0.015625)"/>
       <path id="DejaVuSans-72" d="M 2631 2963 
Q 2534 3019 2420 3045 
Q 2306 3072 2169 3072 
Q 1681 3072 1420 2755 
Q 1159 2438 1159 1844 
L 1159 0 
L 581 0 
L 581 3500 
L 1159 3500 
L 1159 2956 
Q 1341 3275 1631 3429 
Q 1922 3584 2338 3584 
Q 2397 3584 2469 3576 
Q 2541 3569 2628 3553 
L 2631 2963 
z
" transform="scale(0.015625)"/>
       <path id="DejaVuSans-61" d="M 2194 1759 
Q 1497 1759 1228 1600 
Q 959 1441 959 1056 
Q 959 750 1161 570 
Q 1363 391 1709 391 
Q 2188 391 2477 730 
Q 2766 1069 2766 1631 
L 2766 1759 
L 2194 1759 
z
M 3341 1997 
L 3341 0 
L 2766 0 
L 2766 531 
Q 2569 213 2275 61 
Q 1981 -91 1556 -91 
Q 1019 -91 701 211 
Q 384 513 384 1019 
Q 384 1609 779 1909 
Q 1175 2209 1959 2209 
L 2766 2209 
L 2766 2266 
Q 2766 2663 2505 2880 
Q 2244 3097 1772 3097 
Q 1472 3097 1187 3025 
Q 903 2953 641 2809 
L 641 3341 
Q 956 3463 1253 3523 
Q 1550 3584 1831 3584 
Q 2591 3584 2966 3190 
Q 3341 2797 3341 1997 
z
" transform="scale(0.015625)"/>
       <path id="DejaVuSans-67" d="M 2906 1791 
Q 2906 2416 2648 2759 
Q 2391 3103 1925 3103 
Q 1463 3103 1205 2759 
Q 947 2416 947 1791 
Q 947 1169 1205 825 
Q 1463 481 1925 481 
Q 2391 481 2648 825 
Q 2906 1169 2906 1791 
z
M 3481 434 
Q 3481 -459 3084 -895 
Q 2688 -1331 1869 -1331 
Q 1566 -1331 1297 -1286 
Q 1028 -1241 775 -1147 
L 775 -588 
Q 1028 -725 1275 -790 
Q 1522 -856 1778 -856 
Q 2344 -856 2625 -561 
Q 2906 -266 2906 331 
L 2906 616 
Q 2728 306 2450 153 
Q 2172 0 1784 0 
Q 1141 0 747 490 
Q 353 981 353 1791 
Q 353 2603 747 3093 
Q 1141 3584 1784 3584 
Q 2172 3584 2450 3431 
Q 2728 3278 2906 2969 
L 2906 3500 
L 3481 3500 
L 3481 434 
z
" transform="scale(0.015625)"/>
       <path id="DejaVuSans-20" transform="scale(0.015625)"/>
       <path id="DejaVuSans-74" d="M 1172 4494 
L 1172 3500 
L 2356 3500 
L 2356 3053 
L 1172 3053 
L 1172 1153 
Q 1172 725 1289 603 
Q 1406 481 1766 481 
L 2356 481 
L 2356 0 
L 1766 0 
Q 1100 0 847 248 
Q 594 497 594 1153 
L 594 3053 
L 172 3053 
L 172 3500 
L 594 3500 
L 594 4494 
L 1172 4494 
z
" transform="scale(0.015625)"/>
       <path id="DejaVuSans-69" d="M 603 3500 
L 1178 3500 
L 1178 0 
L 603 0 
L 603 3500 
z
M 603 4863 
L 1178 4863 
L 1178 4134 
L 603 4134 
L 603 4863 
z
" transform="scale(0.015625)"/>
       <path id="DejaVuSans-6d" d="M 3328 2828 
Q 3544 3216 3844 3400 
Q 4144 3584 4550 3584 
Q 5097 3584 5394 3201 
Q 5691 2819 5691 2113 
L 5691 0 
L 5113 0 
L 5113 2094 
Q 5113 2597 4934 2840 
Q 4756 3084 4391 3084 
Q 3944 3084 3684 2787 
Q 3425 2491 3425 1978 
L 3425 0 
L 2847 0 
L 2847 2094 
Q 2847 2600 2669 2842 
Q 2491 3084 2119 3084 
Q 1678 3084 1418 2786 
Q 1159 2488 1159 1978 
L 1159 0 
L 581 0 
L 581 3500 
L 1159 3500 
L 1159 2956 
Q 1356 3278 1631 3431 
Q 1906 3584 2284 3584 
Q 2666 3584 2933 3390 
Q 3200 3197 3328 2828 
z
" transform="scale(0.015625)"/>
       <path id="DejaVuSans-28" d="M 1984 4856 
Q 1566 4138 1362 3434 
Q 1159 2731 1159 2009 
Q 1159 1288 1364 580 
Q 1569 -128 1984 -844 
L 1484 -844 
Q 1016 -109 783 600 
Q 550 1309 550 2009 
Q 550 2706 781 3412 
Q 1013 4119 1484 4856 
L 1984 4856 
z
" transform="scale(0.015625)"/>
       <path id="DejaVuSans-73" d="M 2834 3397 
L 2834 2853 
Q 2591 2978 2328 3040 
Q 2066 3103 1784 3103 
Q 1356 3103 1142 2972 
Q 928 2841 928 2578 
Q 928 2378 1081 2264 
Q 1234 2150 1697 2047 
L 1894 2003 
Q 2506 1872 2764 1633 
Q 3022 1394 3022 966 
Q 3022 478 2636 193 
Q 2250 -91 1575 -91 
Q 1294 -91 989 -36 
Q 684 19 347 128 
L 347 722 
Q 666 556 975 473 
Q 1284 391 1588 391 
Q 1994 391 2212 530 
Q 2431 669 2431 922 
Q 2431 1156 2273 1281 
Q 2116 1406 1581 1522 
L 1381 1569 
Q 847 1681 609 1914 
Q 372 2147 372 2553 
Q 372 3047 722 3315 
Q 1072 3584 1716 3584 
Q 2034 3584 2315 3537 
Q 2597 3491 2834 3397 
z
" transform="scale(0.015625)"/>
       <path id="DejaVuSans-29" d="M 513 4856 
L 1013 4856 
Q 1481 4119 1714 3412 
Q 1947 2706 1947 2009 
Q 1947 1309 1714 600 
Q 1481 -109 1013 -844 
L 513 -844 
Q 928 -128 1133 580 
Q 1338 1288 1338 2009 
Q 1338 2731 1133 3434 
Q 928 4138 513 4856 
z
" transform="scale(0.015625)"/>
      </defs>
      <use xlink:href="#DejaVuSans-41"/>
      <use xlink:href="#DejaVuSans-76" transform="translate(62.533203 0)"/>
      <use xlink:href="#DejaVuSans-65" transform="translate(121.712891 0)"/>
      <use xlink:href="#DejaVuSans-72" transform="translate(183.236328 0)"/>
      <use xlink:href="#DejaVuSans-61" transform="translate(224.349609 0)"/>
      <use xlink:href="#DejaVuSans-67" transform="translate(285.628906 0)"/>
      <use xlink:href="#DejaVuSans-65" transform="translate(349.105469 0)"/>
      <use xlink:href="#DejaVuSans-20" transform="translate(410.628906 0)"/>
      <use xlink:href="#DejaVuSans-74" transform="translate(442.416016 0)"/>
      <use xlink:href="#DejaVuSans-69" transform="translate(481.625 0)"/>
      <use xlink:href="#DejaVuSans-6d" transform="translate(509.408203 0)"/>
      <use xlink:href="#DejaVuSans-65" transform="translate(606.820312 0)"/>
      <use xlink:href="#DejaVuSans-20" transform="translate(668.34375 0)"/>
      <use xlink:href="#DejaVuSans-28" transform="translate(700.130859 0)"/>
      <use xlink:href="#DejaVuSans-6d" transform="translate(739.144531 0)"/>
      <use xlink:href="#DejaVuSans-73" transform="translate(836.556641 0)"/>
      <use xlink:href="#DejaVuSans-29" transform="translate(888.65625 0)"/>
     </g>
    </g>
   </g>
   <g id="line2d_13">
    <path d="M 115.363636 68.370022 
L 115.57162 239.397735 
L 115.779604 311.946719 
L 115.987588 324.853764 
L 116.195572 325.305448 
L 116.403556 248.442033 
L 116.61154 286.40274 
L 116.819524 294.703467 
L 117.027508 297.156356 
L 117.235491 343.504515 
L 117.651459 333.738407 
L 117.859443 341.351571 
L 118.067427 325.84906 
L 118.275411 346.901829 
L 118.483395 345.522726 
L 118.691379 348.687159 
L 118.899363 355.303133 
L 119.107347 355.740442 
L 119.31533 356.91079 
L 119.523314 357.138833 
L 119.731298 374.856999 
L 119.939282 373.668753 
L 120.147266 375.870379 
L 120.35525 360.399514 
L 120.563234 360.146678 
L 120.979202 366.184901 
L 121.187186 356.22397 
L 121.603153 347.415686 
L 121.811137 355.307708 
L 122.019121 353.931849 
L 122.227105 357.807663 
L 122.643073 355.920205 
L 122.851057 352.459763 
L 123.059041 353.162428 
L 123.267024 352.046883 
L 123.475008 348.921069 
L 123.682992 355.083921 
L 123.890976 353.636767 
L 124.09896 355.133921 
L 124.306944 357.964088 
L 124.514928 363.051775 
L 124.722912 354.894029 
L 124.930896 363.149026 
L 125.13888 356.203803 
L 125.346863 355.787507 
L 125.762831 350.496302 
L 125.970815 354.617611 
L 126.178799 354.593519 
L 126.386783 356.613313 
L 126.594767 354.144608 
L 126.802751 354.637185 
L 127.218719 352.184159 
L 127.426702 343.991824 
L 127.634686 347.745542 
L 127.84267 353.933988 
L 128.050654 354.026529 
L 128.258638 355.470387 
L 128.466622 353.940032 
L 128.674606 355.023963 
L 128.88259 350.215803 
L 129.090574 359.741112 
L 129.298558 358.048997 
L 129.714525 352.79209 
L 129.922509 350.419437 
L 130.130493 351.987144 
L 130.338477 347.507766 
L 130.546461 301.746017 
L 130.754445 353.605591 
L 130.962429 352.987242 
L 131.170413 349.340945 
L 131.378397 350.604093 
L 131.58638 349.138257 
L 131.794364 341.416496 
L 132.002348 352.47617 
L 132.210332 350.050936 
L 132.418316 350.241121 
L 132.6263 349.958808 
L 132.834284 353.996065 
L 133.042268 353.92538 
L 133.250252 354.792634 
L 133.458235 353.385081 
L 133.666219 350.440038 
L 133.874203 334.523988 
L 134.290171 349.746153 
L 134.498155 348.560715 
L 134.706139 348.689909 
L 134.914123 338.219728 
L 135.330091 345.745721 
L 135.538074 346.968615 
L 135.746058 344.089023 
L 135.954042 328.097963 
L 136.162026 342.66167 
L 136.37001 347.726534 
L 136.577994 346.844849 
L 136.993962 347.149976 
L 137.201946 344.464442 
L 137.40993 346.505062 
L 137.617913 344.009705 
L 137.825897 347.954709 
L 138.033881 339.18049 
L 138.241865 345.519282 
L 138.449849 344.819691 
L 138.865817 340.117683 
L 139.073801 341.142216 
L 139.281785 337.032466 
L 139.489769 338.552828 
L 139.697752 335.808124 
L 139.905736 336.062667 
L 140.11372 336.530725 
L 140.529688 332.478236 
L 140.737672 331.398567 
L 140.945656 334.83584 
L 141.15364 341.569134 
L 141.569608 333.25149 
L 141.777591 337.859944 
L 142.193559 332.592048 
L 142.401543 336.039913 
L 142.609527 333.66035 
L 142.817511 334.489285 
L 143.025495 332.987754 
L 143.233479 334.756723 
L 143.441463 333.27043 
L 143.649446 341.450738 
L 143.85743 342.426955 
L 144.273398 339.794864 
L 144.689366 334.246522 
L 144.89735 337.220055 
L 145.105334 337.421876 
L 145.313318 339.204927 
L 145.521302 342.133186 
L 145.937269 343.189559 
L 146.145253 341.734059 
L 146.353237 338.330482 
L 146.561221 339.159539 
L 146.769205 337.792014 
L 146.977189 344.733401 
L 147.393157 345.091314 
L 147.601141 346.47231 
L 147.809124 344.213284 
L 148.225092 343.225806 
L 148.64106 342.132055 
L 148.849044 338.841521 
L 149.057028 343.399285 
L 149.265012 342.153073 
L 149.472996 338.139826 
L 149.888963 340.131916 
L 150.096947 339.660876 
L 150.304931 344.02699 
L 150.512915 345.209 
L 150.720899 341.653898 
L 150.928883 341.2816 
L 151.136867 343.151631 
L 151.344851 340.71012 
L 151.552835 341.847672 
L 151.760819 340.632745 
L 151.968802 340.222886 
L 152.176786 340.591132 
L 152.38477 339.090965 
L 152.592754 340.871149 
L 152.800738 337.726512 
L 153.008722 338.406548 
L 153.216706 340.242666 
L 153.42469 338.802209 
L 153.632674 345.385834 
L 153.840657 344.503134 
L 154.048641 344.95027 
L 154.256625 343.713076 
L 154.464609 341.05142 
L 155.088561 339.979673 
L 155.296545 341.275371 
L 155.504529 336.944336 
L 155.712513 339.822085 
L 155.920496 339.906984 
L 156.12848 338.753859 
L 156.336464 339.458182 
L 156.752432 334.940179 
L 156.960416 342.771178 
L 157.1684 342.472558 
L 157.376384 339.184601 
L 157.584368 340.531427 
L 157.792352 337.226684 
L 158.208319 335.628678 
L 158.416303 334.201812 
L 158.624287 339.353098 
L 158.832271 337.690028 
L 159.040255 340.5972 
L 159.248239 339.367796 
L 159.456223 335.443673 
L 159.664207 336.596893 
L 159.872191 335.282501 
L 160.080174 335.500001 
L 160.288158 341.042171 
L 160.496142 340.114152 
L 160.704126 337.549387 
L 160.91211 340.819007 
L 161.120094 336.083529 
L 161.328078 334.260323 
L 161.536062 334.270501 
L 161.744046 333.543206 
L 161.95203 339.304398 
L 162.160013 341.30333 
L 162.367997 338.295566 
L 162.575981 339.705362 
L 162.783965 334.319878 
L 162.991949 332.773928 
L 163.199933 334.829617 
L 163.407917 328.706948 
L 163.615901 344.423975 
L 164.031869 343.646912 
L 164.239852 342.639678 
L 164.65582 344.009515 
L 164.863804 343.353945 
L 165.071788 340.870203 
L 165.279772 342.722541 
L 165.487756 339.797718 
L 165.69574 339.383173 
L 165.903724 341.319096 
L 166.111707 337.772943 
L 166.527675 339.667809 
L 166.735659 339.95674 
L 166.943643 342.479245 
L 167.151627 343.448464 
L 167.359611 341.240765 
L 167.567595 342.46561 
L 167.775579 340.574922 
L 168.191546 340.598872 
L 168.39953 340.830955 
L 168.607514 337.796634 
L 168.815498 338.664098 
L 169.023482 335.917725 
L 169.231466 339.336676 
L 169.647434 337.772233 
L 169.855418 338.088593 
L 170.063402 337.849766 
L 170.271385 345.366595 
L 170.479369 345.21487 
L 170.687353 344.326074 
L 170.895337 339.929537 
L 171.103321 341.608904 
L 171.311305 341.472019 
L 171.519289 340.327673 
L 171.727273 341.747093 
L 171.935257 341.299611 
L 172.143241 339.518925 
L 172.351224 340.175812 
L 172.767192 336.792485 
L 172.975176 333.60929 
L 173.18316 337.441646 
L 173.391144 336.689279 
L 173.599128 343.742736 
L 173.807112 342.619038 
L 174.22308 344.021167 
L 174.431063 341.61726 
L 174.639047 342.26396 
L 174.847031 333.559082 
L 175.055015 339.482838 
L 175.262999 337.657848 
L 175.678967 337.143456 
L 175.886951 338.299001 
L 176.094935 335.461892 
L 176.302918 336.174936 
L 176.510902 335.4673 
L 176.718886 335.395191 
L 176.92687 341.040635 
L 177.134854 339.90794 
L 177.342838 340.603426 
L 178.174774 332.199928 
L 178.382757 333.344341 
L 178.590741 340.764131 
L 178.798725 337.471943 
L 179.006709 338.794912 
L 179.214693 336.216471 
L 179.422677 331.556631 
L 179.630661 333.947262 
L 179.838645 334.025261 
L 180.046629 332.872568 
L 180.462596 340.305458 
L 180.67058 339.377091 
L 180.878564 339.481876 
L 181.086548 332.700823 
L 181.294532 334.024283 
L 181.7105 331.547741 
L 181.918484 335.955635 
L 182.334452 338.073582 
L 182.542435 335.996049 
L 182.750419 332.421481 
L 182.958403 333.499383 
L 183.166387 331.3558 
L 183.374371 332.202412 
L 183.582355 342.296109 
L 183.790339 339.561598 
L 183.998323 343.286794 
L 184.206307 339.830742 
L 184.414291 342.648238 
L 184.622274 340.345101 
L 184.830258 340.683403 
L 185.038242 338.092918 
L 185.246226 340.131021 
L 185.45421 340.419773 
L 185.662194 333.974088 
L 185.870178 337.920191 
L 186.078162 333.790807 
L 186.286146 334.163472 
L 186.702113 336.750939 
L 186.910097 342.522299 
L 187.118081 343.202259 
L 187.326065 339.17802 
L 187.534049 340.972077 
L 187.742033 337.782143 
L 187.950017 339.48409 
L 188.158001 339.280287 
L 188.365985 340.759276 
L 188.781952 337.663912 
L 188.989936 338.335792 
L 189.405904 334.013154 
L 189.613888 325.021971 
L 189.821872 330.748446 
L 190.029856 332.063689 
L 190.23784 344.365945 
L 190.445824 342.081028 
L 190.653807 342.238914 
L 191.069775 340.877896 
L 191.277759 334.201899 
L 191.485743 338.29441 
L 191.693727 336.945334 
L 191.901711 336.625521 
L 192.109695 337.553835 
L 192.525663 334.47556 
L 192.733646 335.060732 
L 192.94163 333.932029 
L 193.149614 335.594584 
L 193.357598 331.045679 
L 193.565582 341.934538 
L 193.773566 341.020629 
L 193.98155 342.482406 
L 194.189534 341.076736 
L 194.397518 337.681637 
L 194.605502 339.762053 
L 195.021469 337.023729 
L 195.229453 328.904212 
L 195.437437 337.060115 
L 195.645421 335.368281 
L 195.853405 336.347168 
L 196.061389 332.14238 
L 196.269373 334.452923 
L 196.477357 334.346713 
L 196.68534 332.949137 
L 196.893324 338.035026 
L 197.101308 337.87135 
L 197.309292 338.157603 
L 197.517276 337.284875 
L 197.72526 324.525801 
L 197.933244 329.8426 
L 198.141228 326.677794 
L 198.349212 329.264749 
L 198.557196 338.727145 
L 198.765179 336.285914 
L 198.973163 338.189414 
L 199.181147 338.12967 
L 199.389131 328.705637 
L 199.597115 328.021939 
L 199.805099 330.23433 
L 200.013083 329.651177 
L 200.221067 335.474783 
L 200.429051 335.397804 
L 200.637035 336.715462 
L 200.845018 335.362975 
L 201.053002 326.626004 
L 201.260986 327.409877 
L 201.46897 327.721218 
L 201.676954 327.821149 
L 202.092922 333.865652 
L 202.50889 336.192527 
L 202.716874 326.550275 
L 202.924857 326.943125 
L 203.132841 328.155368 
L 203.340825 326.879397 
L 203.548809 340.052744 
L 203.756793 341.939114 
L 204.172761 337.995142 
L 204.380745 339.574419 
L 204.588729 337.460897 
L 204.796713 337.439509 
L 205.004696 336.486613 
L 205.21268 336.997697 
L 205.420664 335.483523 
L 205.628648 330.315309 
L 205.836632 331.549834 
L 206.044616 330.4922 
L 206.2526 330.859523 
L 206.668568 334.317531 
L 206.876551 342.133544 
L 207.084535 342.24848 
L 207.292519 340.783891 
L 207.500503 342.705883 
L 207.916471 336.112943 
L 208.124455 336.058797 
L 208.332439 337.665309 
L 208.540423 333.149511 
L 208.748407 332.949196 
L 208.95639 335.365311 
L 209.164374 335.295641 
L 209.580342 330.413816 
L 209.788326 331.360077 
L 209.99631 330.610748 
L 210.204294 342.449968 
L 210.412278 339.86319 
L 210.620262 342.134179 
L 210.828246 341.975568 
L 211.036229 339.236293 
L 211.244213 339.327731 
L 211.660181 334.308399 
L 211.868165 333.88441 
L 212.076149 330.846488 
L 212.284133 334.513536 
L 212.492117 335.642073 
L 212.700101 331.296441 
L 212.908085 332.075447 
L 213.116068 331.872034 
L 213.324052 328.097791 
L 213.532036 339.977929 
L 213.74002 338.726474 
L 213.948004 341.913127 
L 214.155988 340.779405 
L 214.363972 335.332624 
L 214.571956 337.001719 
L 214.987924 337.96509 
L 215.195907 330.48286 
L 215.403891 333.952451 
L 215.819859 331.98358 
L 216.027843 331.530051 
L 216.235827 331.888251 
L 216.443811 330.777 
L 216.651795 332.029704 
L 216.859779 335.466793 
L 217.067762 334.282665 
L 217.275746 335.677688 
L 217.48373 333.647682 
L 217.691714 322.224909 
L 217.899698 326.721092 
L 218.315666 322.003921 
L 218.52365 336.724019 
L 218.939618 332.163064 
L 219.147601 333.488609 
L 219.355585 319.454512 
L 219.771553 324.93517 
L 219.979537 322.560978 
L 220.395505 335.109904 
L 220.603489 331.306115 
L 220.811473 331.155348 
L 221.019457 324.212174 
L 221.22744 323.472167 
L 221.643408 320.861119 
L 221.851392 330.701285 
L 222.059376 329.1305 
L 222.26736 332.913855 
L 222.475344 332.910042 
L 222.683328 321.374193 
L 222.891312 321.813201 
L 223.099296 323.38039 
L 223.307279 319.827256 
L 223.723247 332.727361 
L 223.931231 332.496864 
L 224.139215 332.641061 
L 224.347199 331.843992 
L 224.555183 329.519994 
L 224.763167 329.451772 
L 224.971151 330.045657 
L 225.179135 330.088607 
L 225.387118 331.880218 
L 225.595102 331.248823 
L 226.01107 326.745184 
L 226.219054 330.090926 
L 226.427038 326.903178 
L 226.843006 330.331229 
L 227.05099 327.758524 
L 227.258973 327.33623 
L 227.674941 324.775308 
L 227.882925 326.548505 
L 228.298893 326.86478 
L 228.506877 328.5045 
L 228.922845 326.01653 
L 229.130829 326.954759 
L 229.338812 322.896963 
L 229.546796 326.321526 
L 229.75478 323.997228 
L 229.962764 325.77336 
L 230.170748 323.8724 
L 230.378732 325.720312 
L 230.586716 322.344342 
L 230.7947 324.621198 
L 231.418651 310.293573 
L 231.626635 308.762406 
L 231.834619 326.706275 
L 232.042603 325.031685 
L 232.250587 318.277152 
L 232.458571 318.335243 
L 232.666555 319.959548 
L 232.874539 320.685007 
L 233.082523 323.95312 
L 233.290507 323.664351 
L 233.49849 324.338214 
L 233.706474 322.125954 
L 233.914458 317.884124 
L 234.122442 319.855672 
L 234.330426 320.140706 
L 234.53841 322.502804 
L 234.746394 322.698014 
L 234.954378 321.922657 
L 235.162362 323.652892 
L 235.370346 320.559548 
L 235.578329 322.977425 
L 235.786313 321.533148 
L 235.994297 318.85726 
L 236.202281 320.589554 
L 236.410265 320.442091 
L 236.618249 321.621807 
L 236.826233 321.358653 
L 237.034217 321.390065 
L 237.242201 321.679962 
L 237.450185 319.976669 
L 237.658168 313.845627 
L 238.074136 311.644917 
L 238.28212 313.633706 
L 238.490104 322.111438 
L 239.114056 315.633081 
L 239.530023 317.950326 
L 239.738007 315.621941 
L 239.945991 316.295468 
L 240.153975 318.07171 
L 240.361959 316.251332 
L 240.569943 316.610989 
L 240.985911 314.670238 
L 241.193895 313.038391 
L 241.401879 316.655301 
L 241.609862 315.036177 
L 241.817846 319.370755 
L 242.233814 312.948654 
L 242.441798 310.81481 
L 242.649782 310.992856 
L 242.857766 312.258939 
L 243.06575 315.3064 
L 243.273734 316.058084 
L 243.481718 315.784938 
L 243.689701 315.100403 
L 243.897685 312.287584 
L 244.105669 311.276041 
L 244.521637 306.173145 
L 244.729621 304.986844 
L 244.937605 301.160492 
L 245.145589 314.325283 
L 245.353573 313.625581 
L 245.561557 313.317033 
L 245.76954 311.61314 
L 245.977524 308.114335 
L 246.185508 306.537648 
L 247.017444 312.766194 
L 247.433412 308.636351 
L 247.849379 300.593584 
L 248.057363 307.875816 
L 248.265347 307.392243 
L 248.473331 313.46156 
L 248.889299 310.86052 
L 249.305267 301.931034 
L 249.513251 307.905646 
L 249.721234 303.401168 
L 250.137202 313.256508 
L 250.345186 315.617752 
L 250.55317 312.042477 
L 250.761154 315.710709 
L 250.969138 307.683983 
L 251.177122 310.133933 
L 251.385106 309.867351 
L 251.59309 306.345389 
L 251.801073 317.084035 
L 252.009057 319.813689 
L 252.217041 316.196528 
L 252.425025 318.964848 
L 252.633009 309.961341 
L 252.840993 309.766589 
L 253.048977 304.560301 
L 253.256961 304.669404 
L 253.464945 317.472029 
L 253.672929 315.329272 
L 253.880912 316.357399 
L 254.088896 316.555367 
L 254.29688 305.931067 
L 254.504864 308.261858 
L 254.712848 304.063777 
L 254.920832 306.771449 
L 255.128816 318.019115 
L 255.3368 317.368729 
L 255.752768 314.445215 
L 255.960751 306.183723 
L 256.168735 302.739478 
L 256.376719 302.526277 
L 256.584703 306.386859 
L 256.792687 317.996921 
L 257.000671 317.694795 
L 257.208655 314.231882 
L 257.416639 314.453041 
L 257.624623 305.95021 
L 257.832607 306.42767 
L 258.04059 304.908833 
L 258.248574 307.754495 
L 258.456558 315.294253 
L 258.664542 318.766592 
L 258.872526 316.224519 
L 259.08051 316.366974 
L 259.288494 308.002084 
L 259.496478 306.294319 
L 259.704462 308.88949 
L 259.912445 307.232739 
L 260.120429 316.829525 
L 260.328413 319.142187 
L 260.536397 316.845773 
L 260.744381 318.408166 
L 260.952365 305.221334 
L 261.160349 307.483763 
L 261.368333 308.038201 
L 261.576317 306.616162 
L 261.784301 314.798488 
L 261.992284 318.001049 
L 262.200268 317.097467 
L 262.408252 314.893684 
L 262.616236 296.935313 
L 262.82422 305.129872 
L 263.032204 305.669377 
L 263.240188 305.891487 
L 263.448172 318.425454 
L 263.656156 317.397762 
L 263.86414 314.328283 
L 264.072123 315.428661 
L 264.280107 303.864982 
L 264.488091 302.91673 
L 264.696075 303.010929 
L 264.904059 302.270049 
L 265.112043 316.810707 
L 265.528011 309.77132 
L 265.735995 313.789169 
L 265.943979 305.365691 
L 266.151962 306.247333 
L 266.359946 303.672383 
L 266.56793 305.72881 
L 266.983898 317.869773 
L 267.191882 314.110959 
L 267.399866 313.17672 
L 267.60785 305.189906 
L 267.815834 304.917948 
L 268.023818 305.623343 
L 268.231801 303.732397 
L 268.855753 313.657095 
L 269.063737 312.928371 
L 269.271721 300.960509 
L 269.687689 302.891281 
L 269.895673 303.173436 
L 270.103656 315.696531 
L 270.31164 315.488942 
L 270.727608 313.320818 
L 270.935592 301.31646 
L 271.143576 300.034907 
L 271.35156 302.347415 
L 271.559544 299.379976 
L 271.767528 315.234517 
L 271.975512 312.460626 
L 272.183495 313.423257 
L 272.391479 311.859604 
L 272.599463 297.811789 
L 272.807447 302.791898 
L 273.015431 300.827061 
L 273.223415 301.0099 
L 273.639383 315.981622 
L 273.847367 311.226561 
L 274.055351 313.012226 
L 274.263334 303.661773 
L 274.679302 296.037762 
L 274.887286 295.721252 
L 275.09527 311.984748 
L 275.511238 312.210675 
L 275.719222 310.518076 
L 275.927206 302.088489 
L 276.343173 299.699412 
L 276.551157 297.247906 
L 276.759141 305.460922 
L 276.967125 304.944576 
L 277.175109 299.302098 
L 277.383093 300.77714 
L 277.591077 305.907731 
L 277.799061 303.222092 
L 278.007045 304.01083 
L 278.215029 301.622991 
L 278.423012 304.333753 
L 278.630996 303.672755 
L 278.83898 300.142122 
L 279.046964 303.186627 
L 279.254948 302.586344 
L 279.462932 299.827614 
L 279.670916 303.582792 
L 279.8789 298.349768 
L 280.086884 301.672849 
L 280.294867 302.398168 
L 280.502851 301.214783 
L 280.710835 297.301274 
L 280.918819 301.426119 
L 281.126803 302.44121 
L 281.334787 301.122786 
L 281.542771 295.19178 
L 281.750755 299.093024 
L 281.958739 300.876542 
L 282.166723 299.322641 
L 282.374706 296.417805 
L 282.58269 300.214168 
L 282.790674 299.568732 
L 282.998658 296.575072 
L 283.206642 299.454423 
L 283.414626 299.975904 
L 283.830594 296.7924 
L 284.038578 297.86027 
L 284.246562 302.749117 
L 284.454545 297.940023 
L 284.662529 300.150815 
L 284.870513 296.101087 
L 285.078497 299.211084 
L 285.494465 291.600547 
L 285.702449 294.686345 
L 285.910433 299.71793 
L 286.118417 297.695887 
L 286.326401 291.642282 
L 286.534384 295.998803 
L 286.742368 294.387983 
L 286.950352 297.897571 
L 287.158336 296.369942 
L 287.36632 292.949648 
L 287.574304 298.87857 
L 287.782288 292.707842 
L 287.990272 295.366161 
L 288.198256 295.589476 
L 288.40624 291.004575 
L 288.614223 296.724551 
L 288.822207 295.492824 
L 289.238175 297.24439 
L 289.446159 289.604006 
L 289.654143 291.692515 
L 289.862127 294.934184 
L 290.070111 317.612906 
L 290.278095 313.456779 
L 290.486078 314.408189 
L 290.694062 312.532209 
L 290.902046 297.793192 
L 291.11003 303.209195 
L 291.318014 303.82418 
L 291.525998 302.196272 
L 291.733982 315.274327 
L 291.941966 313.385184 
L 292.14995 314.777177 
L 292.357934 313.401719 
L 292.565917 302.352343 
L 292.773901 304.256683 
L 292.981885 304.183891 
L 293.189869 301.975901 
L 293.397853 307.862145 
L 293.605837 308.018134 
L 293.813821 310.855763 
L 294.021805 311.210084 
L 294.229789 299.844292 
L 294.437773 301.042598 
L 294.645756 300.991646 
L 294.85374 297.561227 
L 295.061724 314.144118 
L 295.269708 310.488531 
L 295.477692 313.643313 
L 295.685676 311.177457 
L 295.89366 296.290134 
L 296.101644 301.109696 
L 296.309628 302.591083 
L 296.517612 298.154455 
L 296.725595 311.841072 
L 296.933579 314.461132 
L 297.141563 308.432376 
L 297.349547 311.241301 
L 297.557531 300.759589 
L 297.765515 302.800433 
L 297.973499 301.567395 
L 298.181483 296.617308 
L 298.389467 309.282459 
L 299.013418 310.668219 
L 299.221402 300.530807 
L 299.429386 301.817034 
L 299.63737 300.98742 
L 299.845354 297.631371 
L 300.261322 315.289444 
L 300.469306 309.294137 
L 300.67729 310.058332 
L 301.093257 297.576744 
L 301.301241 300.811229 
L 301.509225 300.073497 
L 301.925193 311.040823 
L 302.341161 308.870069 
L 302.549145 298.703967 
L 302.965112 295.917466 
L 303.173096 298.330244 
L 303.38108 314.913549 
L 303.589064 308.999936 
L 303.797048 311.061735 
L 304.005032 311.305566 
L 304.213016 298.925742 
L 304.421 300.909738 
L 304.628984 299.077442 
L 304.836967 292.951263 
L 305.044951 312.283597 
L 305.252935 307.799427 
L 305.460919 313.815322 
L 305.668903 311.202491 
L 305.876887 298.665515 
L 306.084871 301.788539 
L 306.292855 301.696281 
L 306.500839 300.788726 
L 306.708823 308.292624 
L 306.916806 310.825339 
L 307.12479 307.968823 
L 307.332774 306.89281 
L 307.540758 297.584401 
L 307.956726 297.214771 
L 308.16471 296.559028 
L 308.372694 309.418464 
L 308.580678 307.104408 
L 308.788662 310.921383 
L 308.996645 308.118618 
L 309.204629 296.116051 
L 309.412613 298.420351 
L 309.828581 296.117587 
L 310.036565 310.200209 
L 310.244549 303.919113 
L 310.452533 306.430538 
L 310.660517 307.322068 
L 310.868501 295.524615 
L 311.076484 298.690225 
L 311.284468 296.648448 
L 311.492452 292.215883 
L 311.700436 311.139858 
L 311.90842 304.690487 
L 312.116404 308.318163 
L 312.324388 307.743753 
L 312.532372 291.916426 
L 312.740356 296.047854 
L 312.948339 297.212973 
L 313.156323 291.381951 
L 313.364307 306.870243 
L 313.572291 311.372981 
L 313.780275 307.896052 
L 313.988259 306.378878 
L 314.196243 295.237097 
L 314.404227 293.376892 
L 314.612211 294.217683 
L 314.820195 293.973326 
L 315.028178 307.333052 
L 315.236162 306.780593 
L 315.444146 305.211948 
L 315.65213 304.812902 
L 315.860114 295.160116 
L 316.068098 293.009289 
L 316.276082 292.219316 
L 316.484066 292.327711 
L 316.69205 296.305843 
L 316.900034 303.059108 
L 317.316001 300.47788 
L 317.523985 299.892309 
L 317.939953 292.489842 
L 318.147937 296.219155 
L 318.355921 296.259154 
L 318.563905 300.030235 
L 318.771889 299.773003 
L 318.979873 300.806487 
L 319.187856 294.848505 
L 319.39584 297.962567 
L 319.603824 295.63835 
L 319.811808 295.555592 
L 320.019792 297.070392 
L 320.227776 300.146994 
L 320.643744 298.824302 
L 320.851728 294.754297 
L 321.059712 288.378137 
L 321.267695 288.160701 
L 321.475679 289.621184 
L 321.683663 292.817159 
L 321.891647 299.234309 
L 322.099631 293.356674 
L 322.307615 297.229272 
L 322.515599 292.546014 
L 322.723583 296.700075 
L 322.931567 293.144834 
L 323.13955 291.899484 
L 323.347534 291.354398 
L 323.555518 291.955406 
L 323.763502 291.968878 
L 323.971486 289.911899 
L 324.17947 297.835464 
L 324.387454 292.897287 
L 324.595438 295.310087 
L 324.803422 295.044246 
L 325.011406 295.338021 
L 325.219389 291.720082 
L 325.427373 290.29093 
L 325.635357 286.815323 
L 325.843341 291.198639 
L 326.051325 291.249958 
L 326.259309 290.334739 
L 326.467293 291.813241 
L 326.675277 289.464613 
L 326.883261 293.290725 
L 327.091245 294.262579 
L 327.299228 291.55733 
L 327.507212 293.624803 
L 327.715196 285.71213 
L 327.92318 287.123318 
L 328.131164 291.975229 
L 328.339148 291.203177 
L 328.547132 291.620612 
L 328.755116 290.276221 
L 328.9631 290.035934 
L 329.171084 286.475835 
L 329.379067 290.53292 
L 329.587051 287.475304 
L 329.795035 286.741035 
L 330.003019 311.272783 
L 330.211003 304.606784 
L 330.418987 310.965998 
L 330.626971 308.7726 
L 330.834955 287.588114 
L 331.042939 291.759042 
L 331.458906 289.499008 
L 331.66689 310.310147 
L 331.874874 305.035736 
L 332.290842 310.133302 
L 332.498826 285.772545 
L 332.70681 294.395495 
L 332.914794 294.570177 
L 333.122778 292.037441 
L 333.330761 302.703057 
L 333.538745 301.013593 
L 333.746729 303.935584 
L 333.954713 299.429193 
L 334.162697 286.803854 
L 334.370681 284.795954 
L 334.578665 288.072746 
L 334.786649 286.025413 
L 334.994633 307.64088 
L 335.202617 301.976194 
L 335.4106 304.160574 
L 335.618584 303.194077 
L 335.826568 285.283739 
L 336.034552 284.733521 
L 336.242536 289.862359 
L 336.45052 287.122506 
L 336.658504 302.5128 
L 337.074472 305.751164 
L 337.282456 305.56958 
L 337.490439 291.484934 
L 337.698423 286.00344 
L 337.906407 286.626753 
L 338.114391 286.242457 
L 338.322375 305.002144 
L 338.530359 305.184612 
L 338.738343 300.527803 
L 338.946327 300.639131 
L 339.154311 286.822706 
L 339.362295 288.910173 
L 339.570278 286.93586 
L 339.778262 287.800485 
L 339.986246 302.471216 
L 340.19423 308.245616 
L 340.402214 306.345125 
L 340.610198 306.509842 
L 340.818182 293.023508 
L 341.026166 287.009019 
L 341.23415 289.863461 
L 341.442134 289.203755 
L 341.858101 306.179677 
L 342.066085 303.2207 
L 342.274069 302.214437 
L 342.690037 284.146603 
L 342.898021 286.798859 
L 343.106005 284.529264 
L 343.313989 309.040845 
L 343.521972 302.803141 
L 343.729956 305.421926 
L 343.93794 300.565791 
L 344.145924 280.830653 
L 344.353908 287.461956 
L 344.561892 284.440542 
L 344.769876 287.179637 
L 344.97786 308.291848 
L 345.185844 302.011527 
L 345.393828 306.539928 
L 345.601811 306.030379 
L 345.809795 285.033941 
L 346.017779 288.11131 
L 346.225763 288.214779 
L 346.433747 284.660718 
L 346.641731 300.704847 
L 346.849715 302.439451 
L 347.057699 299.952564 
L 347.265683 301.920357 
L 347.473667 281.940833 
L 347.68165 282.59563 
L 347.889634 279.103248 
L 348.097618 285.81583 
L 348.305602 304.790064 
L 348.513586 300.414464 
L 348.72157 303.373306 
L 348.929554 300.058305 
L 349.137538 281.57551 
L 349.553506 283.557327 
L 349.761489 285.167041 
L 349.969473 303.846381 
L 350.177457 297.483125 
L 350.385441 302.059092 
L 350.593425 300.678881 
L 350.801409 277.502506 
L 351.009393 287.045604 
L 351.425361 279.390702 
L 351.633345 302.517045 
L 351.841328 298.531499 
L 352.049312 304.172726 
L 352.257296 300.798289 
L 352.46528 279.684466 
L 352.673264 288.729697 
L 353.089232 282.900866 
L 353.297216 300.093041 
L 353.5052 306.064628 
L 353.713183 299.604278 
L 353.921167 300.178818 
L 354.337135 277.651547 
L 354.545119 283.379917 
L 354.753103 283.259406 
L 354.961087 301.344263 
L 355.169071 300.574214 
L 355.585039 297.617392 
L 355.793022 282.588455 
L 356.001006 276.783926 
L 356.20899 284.008582 
L 356.416974 282.226707 
L 356.832942 289.694318 
L 357.040926 290.506588 
L 357.24891 284.674231 
L 357.456894 288.573246 
L 357.664878 286.273425 
L 357.872861 286.010952 
L 358.080845 284.093661 
L 358.288829 280.237608 
L 358.496813 289.447484 
L 358.704797 289.806791 
L 359.120765 282.975522 
L 359.328749 286.983864 
L 359.536733 287.957309 
L 359.744717 281.997586 
L 359.9527 281.963741 
L 360.160684 291.635427 
L 360.368668 290.8546 
L 360.576652 284.553621 
L 360.784636 283.48927 
L 360.99262 285.217494 
L 361.200604 283.43799 
L 361.408588 280.008313 
L 361.616572 279.611628 
L 361.824556 288.015293 
L 362.240523 281.847937 
L 362.448507 280.085606 
L 362.656491 287.231854 
L 363.072459 284.232114 
L 363.280443 272.399163 
L 363.488427 280.405916 
L 363.696411 275.35654 
L 363.904394 276.190759 
L 364.112378 286.87591 
L 364.320362 279.791889 
L 364.528346 283.13349 
L 364.73633 279.653484 
L 364.944314 281.704923 
L 365.152298 280.979737 
L 365.360282 275.360512 
L 365.568266 277.495207 
L 365.77625 283.604738 
L 365.984233 274.323347 
L 366.192217 278.253722 
L 366.400201 278.182712 
L 366.608185 275.833041 
L 366.816169 283.770009 
L 367.024153 272.43527 
L 367.232137 273.320555 
L 367.440121 280.490418 
L 367.648105 276.256528 
L 367.856089 275.709466 
L 368.064072 276.463483 
L 368.48004 281.933414 
L 368.896008 279.813979 
L 369.103992 278.085277 
L 369.311976 279.308514 
L 369.51996 279.464878 
L 369.727944 276.621715 
L 369.935928 304.094441 
L 370.143911 298.466806 
L 370.351895 300.170108 
L 370.559879 303.308095 
L 370.767863 274.948733 
L 370.975847 284.51799 
L 371.391815 279.437487 
L 371.599799 304.706182 
L 371.807783 298.024629 
L 372.015767 301.417395 
L 372.22375 300.758775 
L 372.431734 276.344743 
L 372.639718 284.153525 
L 372.847702 284.525273 
L 373.055686 283.055234 
L 373.26367 296.225883 
L 373.471654 298.050814 
L 373.679638 296.269383 
L 373.887622 296.387158 
L 374.095606 273.003569 
L 374.303589 274.593986 
L 374.511573 274.225622 
L 374.719557 273.567177 
L 374.927541 299.511766 
L 375.135525 295.836373 
L 375.343509 300.122027 
L 375.551493 296.299732 
L 375.759477 268.065428 
L 375.967461 279.759871 
L 376.175444 274.600286 
L 376.383428 275.000966 
L 376.591412 297.051336 
L 376.799396 299.446663 
L 377.00738 295.251671 
L 377.215364 294.650274 
L 377.423348 277.849537 
L 377.839316 272.778432 
L 378.0473 274.863172 
L 378.255283 295.676356 
L 378.671251 296.623159 
L 378.879235 294.721595 
L 379.087219 271.942072 
L 379.503187 272.446471 
L 379.711171 273.952684 
L 379.919155 296.178366 
L 380.127139 302.145319 
L 380.335122 295.783432 
L 380.543106 298.256717 
L 380.75109 277.409626 
L 380.959074 275.377708 
L 381.167058 277.924422 
L 381.375042 274.280034 
L 381.583026 293.974005 
L 381.79101 296.034669 
L 382.206978 291.755186 
L 382.414961 272.789474 
L 382.622945 271.416709 
L 383.038913 273.487442 
L 383.246897 299.110486 
L 383.454881 291.960401 
L 383.662865 298.951439 
L 383.870849 295.858364 
L 384.078833 269.562068 
L 384.286817 280.655142 
L 384.702784 274.989255 
L 384.910768 301.550889 
L 385.118752 296.401079 
L 385.326736 302.850882 
L 385.53472 295.315877 
L 385.742704 272.793846 
L 385.950688 280.397656 
L 386.158672 278.960067 
L 386.366655 280.525043 
L 386.782623 297.324544 
L 386.990607 292.833046 
L 387.198591 294.192821 
L 387.406575 266.147105 
L 387.614559 272.775475 
L 387.822543 271.345271 
L 388.030527 272.163632 
L 388.238511 298.657947 
L 388.446494 292.584989 
L 388.654478 295.899326 
L 388.862462 289.219923 
L 389.070446 270.425175 
L 389.27843 272.492394 
L 389.486414 268.774768 
L 389.694398 274.24938 
L 389.902382 297.406578 
L 390.110366 293.968076 
L 390.31835 294.824499 
L 390.526333 293.50409 
L 390.734317 269.719866 
L 390.942301 273.686867 
L 391.358269 269.678958 
L 391.566253 301.386403 
L 391.774237 292.895684 
L 391.982221 298.303448 
L 392.190205 293.371358 
L 392.398189 269.304054 
L 392.606172 274.019275 
L 392.814156 271.787885 
L 393.02214 270.975921 
L 393.230124 289.08072 
L 393.438108 295.837476 
L 393.646092 289.119847 
L 393.854076 289.958389 
L 394.06206 273.840223 
L 394.270044 270.46695 
L 394.478028 269.173501 
L 394.686011 260.234201 
L 394.893995 291.705364 
L 395.101979 287.677859 
L 395.309963 292.126168 
L 395.517947 289.82124 
L 395.725931 264.935899 
L 395.933915 274.264466 
L 396.141899 268.280364 
L 396.349883 268.639539 
L 396.557866 267.176227 
L 396.76585 275.051679 
L 396.973834 273.264302 
L 397.181818 274.972878 
L 397.389802 269.121177 
L 397.597786 268.164891 
L 397.80577 272.361919 
L 398.013754 272.743142 
L 398.221738 273.45482 
L 398.429722 277.873397 
L 398.637705 276.208515 
L 398.845689 276.275211 
L 399.053673 271.711648 
L 399.261657 275.92649 
L 399.469641 274.421634 
L 399.677625 271.79867 
L 399.885609 270.94342 
L 400.093593 275.825671 
L 400.301577 277.384762 
L 400.509561 276.205584 
L 400.717544 273.408325 
L 400.925528 272.574665 
L 401.133512 272.567172 
L 401.54948 264.359011 
L 401.757464 275.652223 
L 401.965448 277.225326 
L 402.173432 275.609532 
L 402.381416 264.577151 
L 402.5894 272.614967 
L 402.797383 271.724954 
L 403.005367 273.407983 
L 403.213351 264.248878 
L 403.421335 265.213412 
L 403.629319 265.485697 
L 403.837303 266.885882 
L 404.045287 276.176866 
L 404.253271 268.367276 
L 404.461255 271.439849 
L 404.669239 270.311338 
L 404.877222 271.927216 
L 405.085206 261.603236 
L 405.29319 264.550863 
L 405.501174 265.560449 
L 405.709158 269.438122 
L 405.917142 263.815658 
L 406.125126 269.426535 
L 406.33311 259.369457 
L 406.541094 262.096288 
L 406.749077 271.836461 
L 407.165045 261.952687 
L 407.373029 269.736505 
L 407.788997 257.526659 
L 407.996981 263.169749 
L 408.204965 264.045315 
L 408.412949 273.290251 
L 408.620933 269.209381 
L 408.828916 259.096068 
L 409.0369 262.1253 
L 409.244884 268.263482 
L 409.452868 258.298914 
L 409.660852 263.354457 
L 409.868836 282.887444 
L 410.07682 285.262124 
L 410.284804 282.290085 
L 410.492788 282.296491 
L 410.700772 266.233586 
L 410.908755 281.913874 
L 411.116739 282.657438 
L 411.324723 284.293755 
L 411.532707 283.377282 
L 411.740691 283.147159 
L 411.948675 284.131459 
L 412.364643 280.553361 
L 412.572627 284.022406 
L 412.780611 280.597962 
L 412.988594 282.470917 
L 413.196578 281.014082 
L 413.404562 281.477751 
L 413.612546 282.85032 
L 413.82053 281.212773 
L 414.028514 283.785526 
L 414.236498 275.511589 
L 414.444482 281.872379 
L 414.652466 279.926251 
L 415.068433 278.849523 
L 415.276417 275.822777 
L 415.484401 275.969248 
L 415.692385 278.848859 
L 415.900369 274.845795 
L 416.108353 278.933261 
L 416.524321 276.173283 
L 416.940288 275.625766 
L 417.148272 273.29261 
L 417.356256 283.296195 
L 417.56424 280.433241 
L 417.772224 282.507663 
L 417.980208 278.789856 
L 418.188192 280.21698 
L 418.396176 278.693421 
L 418.60416 268.446515 
L 419.020127 278.160293 
L 419.228111 272.349561 
L 419.436095 272.407528 
L 419.644079 278.194862 
L 419.852063 272.605608 
L 420.060047 272.409421 
L 420.683999 276.398549 
L 420.891983 272.977891 
L 421.099966 277.505482 
L 421.30795 277.546639 
L 421.515934 274.848467 
L 421.723918 273.622647 
L 421.931902 276.423398 
L 422.34787 270.648225 
L 422.555854 275.192202 
L 422.971822 272.063644 
L 423.179805 281.021132 
L 423.387789 274.042852 
L 423.595773 280.086232 
L 423.803757 276.393317 
L 424.011741 289.639476 
L 424.219725 282.441425 
L 424.427709 282.779998 
L 424.635693 285.171621 
L 424.843677 283.305097 
L 425.051661 277.198993 
L 425.259644 281.138879 
L 425.467628 275.348553 
L 425.675612 279.963923 
L 425.883596 278.541273 
L 426.09158 278.991426 
L 426.507548 274.933885 
L 426.715532 277.843514 
L 426.923516 276.387998 
L 427.131499 269.977121 
L 427.339483 281.943713 
L 427.755451 269.512406 
L 427.963435 277.012533 
L 428.171419 276.466391 
L 428.379403 274.81392 
L 428.587387 271.515106 
L 429.003355 278.689744 
L 429.211338 274.421565 
L 429.419322 265.336588 
L 429.83529 279.656043 
L 430.043274 267.700055 
L 430.251258 272.066889 
L 430.459242 272.616155 
L 430.667226 281.537386 
L 430.87521 279.85153 
L 431.083194 273.259743 
L 431.291177 282.150592 
L 431.499161 273.032905 
L 431.707145 275.641102 
L 431.915129 275.030895 
L 432.331097 276.580201 
L 432.539081 273.224821 
L 432.747065 278.512489 
L 433.163033 269.015995 
L 433.371016 270.600418 
L 433.579 265.898009 
L 433.786984 269.084757 
L 433.994968 281.017151 
L 434.202952 275.22186 
L 434.410936 276.655014 
L 434.61892 271.421654 
L 434.826904 274.341078 
L 435.034888 265.328259 
L 435.242872 270.77621 
L 435.450855 272.737217 
L 435.658839 277.192515 
L 435.866823 269.104932 
L 436.074807 272.013332 
L 436.282791 269.784276 
L 436.490775 265.474788 
L 436.906743 270.99939 
L 437.114727 272.8061 
L 437.32271 276.77494 
L 437.738678 266.483384 
L 437.946662 274.823344 
L 438.154646 271.294803 
L 438.36263 273.736769 
L 438.570614 272.384722 
L 438.778598 272.089864 
L 438.986582 269.4878 
L 439.194566 270.558666 
L 439.402549 272.994627 
L 439.610533 268.804007 
L 439.818517 258.599919 
L 440.026501 270.664858 
L 440.234485 271.463854 
L 440.442469 268.570057 
L 440.650453 271.012392 
L 440.858437 261.36691 
L 441.066421 266.061366 
L 441.274405 263.227271 
L 441.482388 265.962941 
L 441.690372 272.103853 
L 441.898356 269.578661 
L 442.10634 264.674787 
L 442.314324 264.134444 
L 442.522308 270.987006 
L 442.730292 267.896889 
L 442.938276 263.070257 
L 443.14626 264.377474 
L 443.354244 257.4499 
L 443.770211 263.336606 
L 443.978195 277.349192 
L 444.186179 264.124706 
L 444.394163 265.76626 
L 444.602147 273.836142 
L 445.018115 263.5501 
L 445.226099 266.235044 
L 445.434083 266.917194 
L 445.642066 269.770146 
L 445.85005 258.443846 
L 446.058034 262.871469 
L 446.266018 264.013843 
L 446.474002 255.072986 
L 446.681986 262.047392 
L 446.88997 255.840108 
L 447.097954 257.798233 
L 447.305938 270.137738 
L 447.513922 256.090297 
L 447.721905 261.482677 
L 447.929889 254.670184 
L 448.137873 262.980678 
L 448.553841 264.17755 
L 448.969809 261.742326 
L 449.177793 261.68781 
L 449.385777 258.842616 
L 449.59376 263.19903 
L 449.801744 256.65449 
L 450.009728 263.225102 
L 450.217712 253.312307 
L 450.425696 254.175656 
L 450.63368 268.459343 
L 450.841664 258.84976 
L 451.049648 262.834925 
L 451.257632 263.000841 
L 451.673599 257.261123 
L 451.881583 261.226875 
L 452.089567 256.966141 
L 452.297551 258.316667 
L 452.505535 250.814092 
L 452.921503 260.194471 
L 453.129487 245.266043 
L 453.337471 261.109403 
L 453.545455 261.106604 
L 453.753438 252.096754 
L 453.961422 258.354088 
L 454.169406 252.372214 
L 454.37739 257.861868 
L 454.585374 259.881971 
L 454.793358 252.44672 
L 455.001342 259.295672 
L 455.41731 257.393252 
L 455.625294 250.61085 
L 455.833277 255.782694 
L 456.041261 255.29748 
L 456.249245 251.611472 
L 456.457229 253.781971 
L 456.665213 249.917185 
L 456.873197 248.970663 
L 457.081181 247.017916 
L 457.289165 271.846414 
L 457.497149 259.123612 
L 457.705133 258.771694 
L 457.913116 264.695974 
L 458.329084 247.460899 
L 458.537068 246.834715 
L 458.953036 260.512884 
L 459.16102 247.659235 
L 459.576988 259.954688 
L 459.784971 247.00385 
L 459.992955 253.353164 
L 460.200939 248.990806 
L 460.408923 240.52998 
L 460.616907 265.23292 
L 460.824891 249.051868 
L 461.240859 253.860074 
L 461.656827 251.916033 
L 461.86481 248.607828 
L 462.072794 251.086551 
L 462.280778 255.642135 
L 462.488762 248.700775 
L 462.696746 249.513447 
L 462.90473 241.911937 
L 463.112714 265.887591 
L 463.320698 273.094741 
L 463.528682 274.077365 
L 463.736666 269.916975 
L 463.944649 259.770609 
L 464.152633 265.686879 
L 464.360617 259.112864 
L 464.568601 263.674124 
L 464.776585 258.357074 
L 465.192553 272.02283 
L 465.400537 270.318459 
L 465.608521 257.298713 
L 465.816505 268.231419 
L 466.024488 269.702506 
L 466.440456 264.79346 
L 466.64844 275.022965 
L 466.856424 273.380178 
L 467.064408 268.997009 
L 467.272392 253.870221 
L 467.480376 265.898947 
L 467.68836 265.438515 
L 467.896344 260.534952 
L 468.104327 261.633568 
L 468.312311 271.998613 
L 468.520295 273.070311 
L 468.936263 259.82046 
L 469.144247 270.124808 
L 469.352231 267.799721 
L 469.560215 266.795632 
L 469.768199 252.961383 
L 469.976182 252.992218 
L 470.184166 256.045163 
L 470.39215 252.926912 
L 470.600134 260.14024 
L 470.808118 253.061172 
L 471.016102 254.639322 
L 471.224086 253.096368 
L 471.43207 242.461737 
L 471.640054 253.811394 
L 472.056021 250.194302 
L 472.264005 251.638136 
L 472.471989 251.612539 
L 472.679973 249.208894 
L 472.887957 248.77903 
L 473.095941 250.674706 
L 473.303925 262.970754 
L 473.511909 258.615462 
L 473.719893 258.520615 
L 473.927877 250.380415 
L 474.13586 255.806021 
L 474.551828 243.454729 
L 474.759812 249.521153 
L 474.967796 262.301079 
L 475.17578 262.1405 
L 475.383764 259.715234 
L 475.591748 249.332782 
L 475.799732 255.940228 
L 476.007716 246.933533 
L 476.215699 252.647813 
L 476.423683 252.918207 
L 476.631667 260.733459 
L 476.839651 259.376351 
L 477.047635 250.816112 
L 477.255619 269.831649 
L 477.463603 257.654092 
L 477.879571 259.943942 
L 478.087555 259.708684 
L 478.295538 259.771297 
L 478.503522 255.295913 
L 478.711506 253.843593 
L 478.91949 258.485986 
L 479.335458 252.749695 
L 479.543442 255.309234 
L 479.751426 247.754628 
L 479.95941 256.700785 
L 480.167393 254.157653 
L 480.375377 253.923833 
L 480.583361 263.752261 
L 480.791345 251.232842 
L 480.999329 253.565779 
L 481.207313 250.905718 
L 481.415297 252.89073 
L 481.623281 259.718801 
L 481.831265 256.101826 
L 482.039249 250.382616 
L 482.247232 252.366224 
L 482.455216 246.292193 
L 482.6632 243.856481 
L 482.871184 252.150099 
L 483.079168 254.620909 
L 483.287152 243.570071 
L 483.495136 245.466535 
L 483.70312 244.93613 
L 483.911104 268.413849 
L 484.119088 254.106128 
L 484.535055 265.571285 
L 484.743039 265.125393 
L 484.951023 247.437639 
L 485.159007 254.845404 
L 485.366991 257.484646 
L 485.574975 265.565014 
L 485.782959 246.071157 
L 485.990943 248.913141 
L 486.198927 254.326121 
L 486.614894 240.253777 
L 486.822878 240.926193 
L 487.030862 243.043931 
L 487.238846 267.163758 
L 487.44683 243.364237 
L 487.654814 254.487337 
L 487.862798 253.484435 
L 488.278766 237.428085 
L 488.694733 247.129476 
L 488.902717 250.572397 
L 489.110701 239.889803 
L 489.318685 246.401394 
L 489.526669 249.008692 
L 489.734653 243.621852 
L 489.942637 259.241529 
L 490.150621 262.957404 
L 490.774572 247.586845 
L 490.982556 248.575394 
L 491.19054 247.394517 
L 491.398524 249.662275 
L 491.606508 263.986159 
L 492.022476 258.084781 
L 492.23046 247.390105 
L 492.438443 255.027632 
L 492.646427 258.241756 
L 493.062395 247.905391 
L 493.478363 259.111376 
L 493.686347 259.840303 
L 493.894331 244.038299 
L 494.102315 246.262716 
L 494.310299 243.5882 
L 494.518282 245.901989 
L 494.726266 243.564947 
L 494.93425 259.879223 
L 495.142234 256.89849 
L 495.558202 240.241593 
L 495.766186 255.22071 
L 495.97417 249.916698 
L 496.182154 247.498603 
L 496.390138 238.421142 
L 496.598121 239.782533 
L 496.806105 228.040753 
L 497.014089 237.235927 
L 497.222073 258.566972 
L 497.430057 235.455363 
L 497.846025 253.23075 
L 498.261993 232.685965 
L 498.469977 242.586788 
L 498.67796 242.539367 
L 498.885944 247.969678 
L 499.093928 228.983943 
L 499.509896 236.845077 
L 499.71788 235.052875 
L 499.925864 252.724026 
L 500.341832 242.918757 
L 500.549815 246.550958 
L 500.757799 234.634905 
L 500.965783 236.537659 
L 501.173767 242.402567 
L 501.381751 240.92161 
L 501.589735 251.95597 
L 502.421671 235.093881 
L 502.629654 233.402959 
L 502.837638 241.217207 
L 503.045622 223.978448 
L 503.253606 246.682817 
L 503.46159 247.539622 
L 503.669574 241.314291 
L 503.877558 244.521837 
L 504.085542 234.426236 
L 504.293526 237.168426 
L 504.50151 234.701181 
L 504.709493 236.234912 
L 504.917477 250.32834 
L 505.125461 241.468758 
L 505.541429 236.896468 
L 505.749413 229.040941 
L 506.165381 226.465343 
L 506.373365 231.363538 
L 506.581349 256.049356 
L 506.789332 242.732888 
L 506.997316 243.758183 
L 507.2053 236.49431 
L 507.413284 223.651127 
L 507.621268 231.946203 
L 507.829252 229.205932 
L 508.037236 228.475447 
L 508.24522 246.276407 
L 508.453204 246.199135 
L 508.661188 238.787306 
L 508.869171 216.754556 
L 509.077155 236.043031 
L 509.285139 230.760913 
L 509.493123 233.25976 
L 509.701107 215.585245 
L 509.909091 225.407243 
L 510.117075 216.9442 
L 510.325059 217.013012 
L 510.533043 249.288215 
L 510.741027 229.797711 
L 510.94901 237.651148 
L 511.364978 242.374136 
L 511.572962 228.516215 
L 511.780946 225.21086 
L 511.98893 231.440692 
L 512.196914 245.758582 
L 512.404898 225.231844 
L 512.612882 225.009191 
L 512.820865 230.170395 
L 513.028849 215.630002 
L 513.236833 237.318928 
L 513.652801 227.972507 
L 513.860785 238.36303 
L 514.068769 215.250253 
L 514.276753 227.421398 
L 514.484737 228.751162 
L 514.692721 221.123401 
L 514.900704 235.685851 
L 515.108688 229.873452 
L 515.316672 219.20254 
L 515.524656 225.492443 
L 515.73264 224.094999 
L 515.940624 225.322914 
L 516.148608 221.681113 
L 516.356592 222.595502 
L 516.564576 244.114649 
L 516.77256 242.124261 
L 516.980543 238.766846 
L 517.188527 220.097959 
L 517.396511 230.907066 
L 517.604495 230.653926 
L 518.020463 219.428028 
L 518.228447 243.610418 
L 518.436431 240.979296 
L 518.644415 233.124916 
L 518.852399 220.594215 
L 519.060382 246.778772 
L 519.47635 226.421428 
L 519.684334 225.517895 
L 519.892318 242.777673 
L 520.100302 244.961958 
L 520.308286 237.40042 
L 520.51627 201.465517 
L 520.724254 234.072735 
L 520.932238 223.792672 
L 521.140221 221.433738 
L 521.348205 224.011673 
L 521.556189 247.936673 
L 521.972157 237.744228 
L 522.180141 203.556746 
L 522.388125 229.823978 
L 522.596109 239.518675 
L 522.804093 228.364162 
L 523.012076 194.630858 
L 523.22006 211.529838 
L 523.428044 217.675296 
L 523.636028 216.799529 
L 523.844012 227.268948 
L 524.051996 209.730811 
L 524.467964 215.276985 
L 524.675948 206.302741 
L 524.883932 222.395618 
L 525.091915 218.963173 
L 525.299899 208.224065 
L 525.507883 216.755083 
L 525.715867 215.987802 
L 525.923851 218.813657 
L 526.131835 202.431244 
L 526.339819 204.426666 
L 526.547803 229.337798 
L 526.755787 216.307887 
L 526.963771 222.395166 
L 527.171754 211.450197 
L 527.379738 216.239685 
L 527.587722 214.848206 
L 527.795706 211.787657 
L 528.00369 201.447812 
L 528.211674 235.454052 
L 528.627642 225.530392 
L 528.835626 208.298076 
L 529.04361 225.56194 
L 529.251593 220.92535 
L 529.459577 201.846113 
L 529.667561 207.041957 
L 529.875545 228.939529 
L 530.083529 217.937237 
L 530.291513 217.935856 
L 530.499497 241.916536 
L 530.707481 213.081645 
L 530.915465 228.288013 
L 531.123449 230.060065 
L 531.331432 221.346494 
L 531.539416 220.653254 
L 531.7474 219.238776 
L 531.955384 220.724961 
L 532.163368 231.208434 
L 532.371352 221.721042 
L 532.579336 220.200112 
L 532.78732 215.86032 
L 532.995304 207.332567 
L 533.203287 230.847987 
L 533.619255 206.283036 
L 533.827239 228.549204 
L 534.035223 213.195476 
L 534.243207 218.519364 
L 534.451191 217.830545 
L 534.659175 208.087898 
L 534.867159 227.067736 
L 535.075143 220.409041 
L 535.283126 203.188066 
L 535.49111 213.458506 
L 535.699094 210.891172 
L 536.323046 215.688176 
L 536.53103 206.452496 
L 536.739014 206.377825 
L 536.946998 194.365335 
L 537.154982 244.584554 
L 537.362965 224.447292 
L 537.778933 243.535459 
L 537.986917 240.406324 
L 538.194901 206.296524 
L 538.818853 243.282897 
L 539.026837 216.023173 
L 539.234821 220.560785 
L 539.442804 227.576253 
L 539.650788 199.913049 
L 539.858772 208.125856 
L 540.066756 203.323561 
L 540.27474 189.396129 
L 540.482724 238.541854 
L 540.690708 215.770297 
L 541.106676 228.975082 
L 541.31466 221.825355 
L 541.522643 207.947886 
L 541.730627 202.783801 
L 542.146595 215.587163 
L 542.354579 195.196923 
L 542.562563 211.395158 
L 542.770547 209.238763 
L 542.978531 194.222493 
L 543.186515 238.870471 
L 543.394498 235.030681 
L 543.602482 224.755457 
L 543.810466 208.823998 
L 544.01845 215.313763 
L 544.226434 214.999251 
L 544.434418 204.808021 
L 544.642402 213.390184 
L 544.850386 231.628616 
L 545.05837 230.445701 
L 545.266354 224.378719 
L 545.474337 204.000631 
L 545.682321 220.032185 
L 545.890305 223.541425 
L 546.098289 212.561967 
L 546.306273 191.82253 
L 546.514257 232.666365 
L 546.722241 234.710498 
L 546.930225 219.845658 
L 547.138209 196.21683 
L 547.346193 214.706797 
L 547.76216 201.821064 
L 547.970144 199.516442 
L 548.178128 238.041655 
L 548.386112 232.011385 
L 548.594096 221.88118 
L 548.80208 175.34165 
L 549.010064 223.027317 
L 549.218048 218.988461 
L 549.426032 208.313052 
L 549.634015 187.550216 
L 549.841999 203.24161 
L 550.257967 192.725106 
L 550.465951 225.168564 
L 550.673935 207.055758 
L 551.089903 223.172311 
L 551.297887 201.800312 
L 551.505871 209.124783 
L 551.713854 202.511079 
L 551.921838 201.753419 
L 552.129822 213.050832 
L 552.337806 201.833622 
L 552.54579 201.650535 
L 552.753774 204.137746 
L 552.961758 177.135923 
L 553.169742 217.695344 
L 553.377726 218.669728 
L 553.585709 206.206424 
L 553.793693 211.460288 
L 554.001677 200.872049 
L 554.209661 205.040257 
L 554.417645 198.009161 
L 554.625629 200.625792 
L 554.833613 222.502136 
L 555.041597 211.599372 
L 555.249581 213.037193 
L 555.457565 200.047047 
L 555.665548 210.364032 
L 555.873532 209.611967 
L 556.081516 208.233199 
L 556.2895 188.99343 
L 556.497484 222.443713 
L 556.913452 207.456767 
L 557.121436 211.723428 
L 557.32942 195.462947 
L 557.537404 195.045369 
L 557.745387 203.364167 
L 557.953371 191.855789 
L 558.161355 209.121505 
L 558.369339 210.683004 
L 558.577323 195.510763 
L 558.785307 198.04097 
L 558.993291 207.172856 
L 559.201275 200.805614 
L 559.409259 202.238183 
L 559.617243 181.779763 
L 559.825226 223.783484 
L 560.241194 202.99478 
L 560.449178 192.954174 
L 560.657162 192.06608 
L 560.865146 188.909616 
L 561.07313 190.460718 
L 561.281114 182.900319 
L 561.489098 226.384248 
L 562.113049 184.981334 
L 562.321033 214.25783 
L 562.529017 199.109934 
L 562.737001 200.326973 
L 562.944985 177.24196 
L 563.152969 183.215058 
L 563.360953 180.121811 
L 563.568937 182.436913 
L 563.77692 224.18327 
L 563.984904 191.114634 
L 564.192888 210.136159 
L 564.400872 210.260558 
L 564.608856 209.362663 
L 564.81684 191.193194 
L 565.024824 191.959491 
L 565.440792 214.607256 
L 565.648776 189.338015 
L 565.856759 197.806552 
L 566.064743 200.083805 
L 566.272727 168.148096 
L 566.480711 203.929821 
L 566.688695 190.90409 
L 566.896679 190.055947 
L 567.104663 205.790108 
L 567.312647 180.948342 
L 567.520631 195.239539 
L 567.728615 183.848056 
L 567.936598 182.371459 
L 568.144582 202.396042 
L 568.352566 201.219591 
L 568.56055 183.063145 
L 568.768534 197.288536 
L 568.976518 190.071375 
L 569.184502 189.970067 
L 569.392486 193.792344 
L 569.60047 165.737067 
L 569.808454 200.050016 
L 570.016437 197.505448 
L 570.224421 191.955802 
L 570.432405 167.812695 
L 570.640389 186.304451 
L 570.848373 186.458685 
L 571.264341 166.27394 
L 571.472325 206.270723 
L 571.680309 211.71627 
L 571.888293 204.2108 
L 572.096276 154.931873 
L 572.30426 204.778397 
L 572.512244 199.568671 
L 572.928212 177.156478 
L 573.136196 206.05398 
L 573.34418 202.771842 
L 573.552164 207.242977 
L 573.760148 171.293285 
L 573.968131 195.964628 
L 574.176115 183.517821 
L 574.592083 172.474327 
L 574.800067 220.031028 
L 575.008051 218.034301 
L 575.216035 203.173728 
L 575.424019 170.049153 
L 575.632003 203.016614 
L 575.839987 204.780278 
L 576.04797 197.769239 
L 576.255954 143.52908 
L 576.463938 169.236401 
L 576.671922 161.19515 
L 576.879906 167.055148 
L 577.08789 182.557535 
L 577.295874 165.962766 
L 577.503858 168.462108 
L 577.711842 177.662782 
L 577.919826 165.364242 
L 578.127809 188.639692 
L 578.335793 165.027352 
L 578.543777 169.365586 
L 578.751761 154.281265 
L 578.959745 170.715638 
L 579.167729 172.399573 
L 579.375713 168.370372 
L 579.583697 150.807288 
L 579.791681 198.512612 
L 580.415632 167.404086 
L 580.623616 178.717558 
L 580.8316 162.802944 
L 581.039584 168.92879 
L 581.247568 160.317032 
L 581.455552 201.15504 
L 581.87152 183.57613 
L 582.079504 157.752062 
L 582.287487 186.147579 
L 582.495471 184.267734 
L 582.703455 169.888181 
L 582.911439 163.51911 
L 583.327407 175.604968 
L 583.535391 170.783884 
L 583.743375 201.028002 
L 583.951359 176.065943 
L 584.367326 192.26323 
L 584.57531 172.740632 
L 584.783294 190.484506 
L 584.991278 185.60044 
L 585.199262 166.809045 
L 585.407246 186.211089 
L 585.61523 166.931014 
L 585.823214 178.170964 
L 586.031198 174.362677 
L 586.239181 152.624435 
L 586.447165 190.974631 
L 586.655149 176.89896 
L 586.863133 174.638539 
L 587.071117 196.0391 
L 587.279101 166.991324 
L 587.487085 162.59261 
L 587.695069 181.367566 
L 587.903053 169.411269 
L 588.111037 184.963478 
L 588.31902 171.970265 
L 588.527004 168.452273 
L 588.942972 176.679563 
L 589.150956 173.033421 
L 589.35894 148.889774 
L 589.566924 164.003121 
L 589.774908 157.801631 
L 589.982892 158.947505 
L 590.190876 163.687361 
L 590.398859 212.414036 
L 590.606843 193.253659 
L 591.022811 210.906558 
L 591.438779 172.096914 
L 591.646763 166.384095 
L 591.854747 176.319973 
L 592.062731 207.495716 
L 592.270715 173.209294 
L 592.478698 186.211559 
L 592.686682 190.3096 
L 592.894666 149.272092 
L 593.10265 162.610444 
L 593.310634 152.299072 
L 593.518618 152.003842 
L 593.726602 202.915458 
L 593.934586 164.744525 
L 594.14257 185.952285 
L 594.350554 186.769781 
L 594.766521 172.472366 
L 594.974505 170.150888 
L 595.182489 170.353709 
L 595.390473 185.216085 
L 595.598457 160.560541 
L 595.806441 165.184939 
L 596.014425 175.777522 
L 596.222409 153.404178 
L 596.430392 203.531482 
L 597.054344 159.224286 
L 597.262328 174.457151 
L 597.678296 166.750891 
L 597.88628 160.312688 
L 598.094264 198.583513 
L 598.302248 196.172665 
L 598.718215 158.575491 
L 598.926199 189.390774 
L 599.342167 172.610537 
L 599.550151 148.587846 
L 599.758135 202.770649 
L 600.174103 182.754778 
L 600.382087 139.384552 
L 600.59007 179.733667 
L 600.798054 165.1355 
L 601.214022 157.010113 
L 601.422006 205.179122 
L 601.62999 201.489257 
L 601.837974 188.401883 
L 602.045958 152.724568 
L 602.253942 190.82648 
L 602.461926 185.429409 
L 602.669909 175.154417 
L 602.877893 142.17956 
L 603.085877 159.025092 
L 603.293861 159.970395 
L 603.501845 153.987192 
L 603.709829 188.908666 
L 603.917813 158.918451 
L 604.333781 173.48226 
L 604.541765 154.025779 
L 604.749748 157.627077 
L 604.957732 145.016572 
L 605.165716 152.580632 
L 605.3737 170.750861 
L 605.581684 162.889773 
L 605.789668 163.748758 
L 605.997652 155.23261 
L 606.205636 128.570115 
L 606.41362 182.580651 
L 606.621603 179.383975 
L 606.829587 164.316179 
L 607.037571 168.117181 
L 607.453539 146.828634 
L 607.661523 158.676084 
L 607.869507 145.605769 
L 608.077491 186.644822 
L 608.493459 172.008852 
L 608.701442 144.622379 
L 608.909426 179.372294 
L 609.11741 152.041497 
L 609.325394 164.23668 
L 609.533378 117.400313 
L 609.741362 175.490555 
L 609.949346 172.01817 
L 610.573298 142.95317 
L 610.781281 152.412179 
L 610.989265 150.231102 
L 611.197249 138.926359 
L 611.405233 181.895592 
L 611.821201 161.141313 
L 612.029185 140.880595 
L 612.237169 165.236148 
L 612.653137 151.822597 
L 612.86112 129.575715 
L 613.069104 190.676091 
L 613.693056 139.512562 
L 613.90104 151.419429 
L 614.109024 146.87806 
L 614.317008 148.747426 
L 614.524992 139.279197 
L 614.732976 184.252154 
L 614.940959 162.710545 
L 615.148943 166.606353 
L 615.356927 142.94518 
L 615.564911 180.400504 
L 615.980879 162.12694 
L 616.188863 117.727828 
L 616.396847 143.145833 
L 616.812814 136.354171 
L 617.020798 176.929975 
L 617.228782 147.665403 
L 617.64475 169.498439 
L 617.852734 149.533989 
L 618.060718 145.148186 
L 618.268702 137.970715 
L 618.476686 143.371839 
L 618.68467 154.891273 
L 618.892653 142.847869 
L 619.308621 157.661765 
L 619.516605 113.378123 
L 619.724589 156.021385 
L 620.140557 133.507924 
L 620.348541 155.109486 
L 620.556525 139.30888 
L 620.764509 142.865448 
L 620.972492 143.026113 
L 621.180476 67.270018 
L 621.38846 162.802763 
L 621.596444 150.396338 
L 621.804428 150.302688 
L 622.012412 138.236283 
L 622.220396 146.678776 
L 622.42838 145.565783 
L 622.636364 145.246351 
L 622.636364 145.246351 
" clip-path="url(#p22fd61dbc0)" style="fill: none; stroke: #1f77b4; stroke-width: 1.5; stroke-linecap: square"/>
   </g>
   <g id="patch_3">
    <path d="M 90 384.48 
L 90 51.84 
" style="fill: none; stroke: #000000; stroke-width: 0.8; stroke-linejoin: miter; stroke-linecap: square"/>
   </g>
   <g id="patch_4">
    <path d="M 648 384.48 
L 648 51.84 
" style="fill: none; stroke: #000000; stroke-width: 0.8; stroke-linejoin: miter; stroke-linecap: square"/>
   </g>
   <g id="patch_5">
    <path d="M 90 384.48 
L 648 384.48 
" style="fill: none; stroke: #000000; stroke-width: 0.8; stroke-linejoin: miter; stroke-linecap: square"/>
   </g>
   <g id="patch_6">
    <path d="M 90 51.84 
L 648 51.84 
" style="fill: none; stroke: #000000; stroke-width: 0.8; stroke-linejoin: miter; stroke-linecap: square"/>
   </g>
   <g id="text_15">
    <!-- Average time per index -->
    <g transform="translate(298.700625 45.84) scale(0.12 -0.12)">
     <defs>
      <path id="DejaVuSans-70" d="M 1159 525 
L 1159 -1331 
L 581 -1331 
L 581 3500 
L 1159 3500 
L 1159 2969 
Q 1341 3281 1617 3432 
Q 1894 3584 2278 3584 
Q 2916 3584 3314 3078 
Q 3713 2572 3713 1747 
Q 3713 922 3314 415 
Q 2916 -91 2278 -91 
Q 1894 -91 1617 61 
Q 1341 213 1159 525 
z
M 3116 1747 
Q 3116 2381 2855 2742 
Q 2594 3103 2138 3103 
Q 1681 3103 1420 2742 
Q 1159 2381 1159 1747 
Q 1159 1113 1420 752 
Q 1681 391 2138 391 
Q 2594 391 2855 752 
Q 3116 1113 3116 1747 
z
" transform="scale(0.015625)"/>
     </defs>
     <use xlink:href="#DejaVuSans-41"/>
     <use xlink:href="#DejaVuSans-76" transform="translate(62.533203 0)"/>
     <use xlink:href="#DejaVuSans-65" transform="translate(121.712891 0)"/>
     <use xlink:href="#DejaVuSans-72" transform="translate(183.236328 0)"/>
     <use xlink:href="#DejaVuSans-61" transform="translate(224.349609 0)"/>
     <use xlink:href="#DejaVuSans-67" transform="translate(285.628906 0)"/>
     <use xlink:href="#DejaVuSans-65" transform="translate(349.105469 0)"/>
     <use xlink:href="#DejaVuSans-20" transform="translate(410.628906 0)"/>
     <use xlink:href="#DejaVuSans-74" transform="translate(442.416016 0)"/>
     <use xlink:href="#DejaVuSans-69" transform="translate(481.625 0)"/>
     <use xlink:href="#DejaVuSans-6d" transform="translate(509.408203 0)"/>
     <use xlink:href="#DejaVuSans-65" transform="translate(606.820312 0)"/>
     <use xlink:href="#DejaVuSans-20" transform="translate(668.34375 0)"/>
     <use xlink:href="#DejaVuSans-70" transform="translate(700.130859 0)"/>
     <use xlink:href="#DejaVuSans-65" transform="translate(763.607422 0)"/>
     <use xlink:href="#DejaVuSans-72" transform="translate(825.130859 0)"/>
     <use xlink:href="#DejaVuSans-20" transform="translate(866.244141 0)"/>
     <use xlink:href="#DejaVuSans-69" transform="translate(898.03125 0)"/>
     <use xlink:href="#DejaVuSans-6e" transform="translate(925.814453 0)"/>
     <use xlink:href="#DejaVuSans-64" transform="translate(989.193359 0)"/>
     <use xlink:href="#DejaVuSans-65" transform="translate(1052.669922 0)"/>
     <use xlink:href="#DejaVuSans-78" transform="translate(1112.443359 0)"/>
    </g>
   </g>
   <g id="legend_1">
    <g id="patch_7">
     <path d="M 544.020313 379.48 
L 641 379.48 
Q 643 379.48 643 377.48 
L 643 363.801875 
Q 643 361.801875 641 361.801875 
L 544.020313 361.801875 
Q 542.020313 361.801875 542.020313 363.801875 
L 542.020313 377.48 
Q 542.020313 379.48 544.020313 379.48 
z
" style="fill: #ffffff; opacity: 0.8; stroke: #cccccc; stroke-linejoin: miter"/>
    </g>
    <g id="line2d_14">
     <path d="M 546.020313 369.900312 
L 556.020313 369.900312 
L 566.020313 369.900312 
" style="fill: none; stroke: #1f77b4; stroke-width: 1.5; stroke-linecap: square"/>
    </g>
    <g id="text_16">
     <!-- handleResult -->
     <g transform="translate(574.020313 373.400312) scale(0.1 -0.1)">
      <defs>
       <path id="DejaVuSans-68" d="M 3513 2113 
L 3513 0 
L 2938 0 
L 2938 2094 
Q 2938 2591 2744 2837 
Q 2550 3084 2163 3084 
Q 1697 3084 1428 2787 
Q 1159 2491 1159 1978 
L 1159 0 
L 581 0 
L 581 4863 
L 1159 4863 
L 1159 2956 
Q 1366 3272 1645 3428 
Q 1925 3584 2291 3584 
Q 2894 3584 3203 3211 
Q 3513 2838 3513 2113 
z
" transform="scale(0.015625)"/>
       <path id="DejaVuSans-6c" d="M 603 4863 
L 1178 4863 
L 1178 0 
L 603 0 
L 603 4863 
z
" transform="scale(0.015625)"/>
       <path id="DejaVuSans-52" d="M 2841 2188 
Q 3044 2119 3236 1894 
Q 3428 1669 3622 1275 
L 4263 0 
L 3584 0 
L 2988 1197 
Q 2756 1666 2539 1819 
Q 2322 1972 1947 1972 
L 1259 1972 
L 1259 0 
L 628 0 
L 628 4666 
L 2053 4666 
Q 2853 4666 3247 4331 
Q 3641 3997 3641 3322 
Q 3641 2881 3436 2590 
Q 3231 2300 2841 2188 
z
M 1259 4147 
L 1259 2491 
L 2053 2491 
Q 2509 2491 2742 2702 
Q 2975 2913 2975 3322 
Q 2975 3731 2742 3939 
Q 2509 4147 2053 4147 
L 1259 4147 
z
" transform="scale(0.015625)"/>
       <path id="DejaVuSans-75" d="M 544 1381 
L 544 3500 
L 1119 3500 
L 1119 1403 
Q 1119 906 1312 657 
Q 1506 409 1894 409 
Q 2359 409 2629 706 
Q 2900 1003 2900 1516 
L 2900 3500 
L 3475 3500 
L 3475 0 
L 2900 0 
L 2900 538 
Q 2691 219 2414 64 
Q 2138 -91 1772 -91 
Q 1169 -91 856 284 
Q 544 659 544 1381 
z
M 1991 3584 
L 1991 3584 
z
" transform="scale(0.015625)"/>
      </defs>
      <use xlink:href="#DejaVuSans-68"/>
      <use xlink:href="#DejaVuSans-61" transform="translate(63.378906 0)"/>
      <use xlink:href="#DejaVuSans-6e" transform="translate(124.658203 0)"/>
      <use xlink:href="#DejaVuSans-64" transform="translate(188.037109 0)"/>
      <use xlink:href="#DejaVuSans-6c" transform="translate(251.513672 0)"/>
      <use xlink:href="#DejaVuSans-65" transform="translate(279.296875 0)"/>
      <use xlink:href="#DejaVuSans-52" transform="translate(340.820312 0)"/>
      <use xlink:href="#DejaVuSans-65" transform="translate(405.802734 0)"/>
      <use xlink:href="#DejaVuSans-73" transform="translate(467.326172 0)"/>
      <use xlink:href="#DejaVuSans-75" transform="translate(519.425781 0)"/>
      <use xlink:href="#DejaVuSans-6c" transform="translate(582.804688 0)"/>
      <use xlink:href="#DejaVuSans-74" transform="translate(610.587891 0)"/>
     </g>
    </g>
   </g>
  </g>
 </g>
 <defs>
  <clipPath id="p22fd61dbc0">
   <rect x="90" y="51.84" width="558" height="332.64"/>
  </clipPath>
 </defs>
</svg>
