<?xml version="1.0" encoding="utf-8" standalone="no"?>
<!DOCTYPE svg PUBLIC "-//W3C//DTD SVG 1.1//EN"
  "http://www.w3.org/Graphics/SVG/1.1/DTD/svg11.dtd">
<svg xmlns:xlink="http://www.w3.org/1999/xlink" width="720pt" height="432pt" viewBox="0 0 720 432" xmlns="http://www.w3.org/2000/svg" version="1.1">
 <metadata>
  <rdf:RDF xmlns:dc="http://purl.org/dc/elements/1.1/" xmlns:cc="http://creativecommons.org/ns#" xmlns:rdf="http://www.w3.org/1999/02/22-rdf-syntax-ns#">
   <cc:Work>
    <dc:type rdf:resource="http://purl.org/dc/dcmitype/StillImage"/>
    <dc:date>2025-06-10T03:16:40.068419</dc:date>
    <dc:format>image/svg+xml</dc:format>
    <dc:creator>
     <cc:Agent>
      <dc:title>Matplotlib v3.10.3, https://matplotlib.org/</dc:title>
     </cc:Agent>
    </dc:creator>
   </cc:Work>
  </rdf:RDF>
 </metadata>
 <defs>
  <style type="text/css">*{stroke-linejoin: round; stroke-linecap: butt}</style>
 </defs>
 <g id="figure_1">
  <g id="patch_1">
   <path d="M 0 432 
L 720 432 
L 720 0 
L 0 0 
z
" style="fill: #ffffff"/>
  </g>
  <g id="axes_1">
   <g id="patch_2">
    <path d="M 90 384.48 
L 648 384.48 
L 648 51.84 
L 90 51.84 
z
" style="fill: #ffffff"/>
   </g>
   <g id="matplotlib.axis_1">
    <g id="xtick_1">
     <g id="line2d_1">
      <defs>
       <path id="m249ad195b8" d="M 0 0 
L 0 3.5 
" style="stroke: #000000; stroke-width: 0.8"/>
      </defs>
      <g>
       <use xlink:href="#m249ad195b8" x="115.363636" y="384.48" style="stroke: #000000; stroke-width: 0.8"/>
      </g>
     </g>
     <g id="text_1">
      <!-- 0 -->
      <g transform="translate(112.182386 399.078438) scale(0.1 -0.1)">
       <defs>
        <path id="DejaVuSans-30" d="M 2034 4250 
Q 1547 4250 1301 3770 
Q 1056 3291 1056 2328 
Q 1056 1369 1301 889 
Q 1547 409 2034 409 
Q 2525 409 2770 889 
Q 3016 1369 3016 2328 
Q 3016 3291 2770 3770 
Q 2525 4250 2034 4250 
z
M 2034 4750 
Q 2819 4750 3233 4129 
Q 3647 3509 3647 2328 
Q 3647 1150 3233 529 
Q 2819 -91 2034 -91 
Q 1250 -91 836 529 
Q 422 1150 422 2328 
Q 422 3509 836 4129 
Q 1250 4750 2034 4750 
z
" transform="scale(0.015625)"/>
       </defs>
       <use xlink:href="#DejaVuSans-30"/>
      </g>
     </g>
    </g>
    <g id="xtick_2">
     <g id="line2d_2">
      <g>
       <use xlink:href="#m249ad195b8" x="219.355585" y="384.48" style="stroke: #000000; stroke-width: 0.8"/>
      </g>
     </g>
     <g id="text_2">
      <!-- 500 -->
      <g transform="translate(209.811835 399.078438) scale(0.1 -0.1)">
       <defs>
        <path id="DejaVuSans-35" d="M 691 4666 
L 3169 4666 
L 3169 4134 
L 1269 4134 
L 1269 2991 
Q 1406 3038 1543 3061 
Q 1681 3084 1819 3084 
Q 2600 3084 3056 2656 
Q 3513 2228 3513 1497 
Q 3513 744 3044 326 
Q 2575 -91 1722 -91 
Q 1428 -91 1123 -41 
Q 819 9 494 109 
L 494 744 
Q 775 591 1075 516 
Q 1375 441 1709 441 
Q 2250 441 2565 725 
Q 2881 1009 2881 1497 
Q 2881 1984 2565 2268 
Q 2250 2553 1709 2553 
Q 1456 2553 1204 2497 
Q 953 2441 691 2322 
L 691 4666 
z
" transform="scale(0.015625)"/>
       </defs>
       <use xlink:href="#DejaVuSans-35"/>
       <use xlink:href="#DejaVuSans-30" transform="translate(63.623047 0)"/>
       <use xlink:href="#DejaVuSans-30" transform="translate(127.246094 0)"/>
      </g>
     </g>
    </g>
    <g id="xtick_3">
     <g id="line2d_3">
      <g>
       <use xlink:href="#m249ad195b8" x="323.347534" y="384.48" style="stroke: #000000; stroke-width: 0.8"/>
      </g>
     </g>
     <g id="text_3">
      <!-- 1000 -->
      <g transform="translate(310.622534 399.078438) scale(0.1 -0.1)">
       <defs>
        <path id="DejaVuSans-31" d="M 794 531 
L 1825 531 
L 1825 4091 
L 703 3866 
L 703 4441 
L 1819 4666 
L 2450 4666 
L 2450 531 
L 3481 531 
L 3481 0 
L 794 0 
L 794 531 
z
" transform="scale(0.015625)"/>
       </defs>
       <use xlink:href="#DejaVuSans-31"/>
       <use xlink:href="#DejaVuSans-30" transform="translate(63.623047 0)"/>
       <use xlink:href="#DejaVuSans-30" transform="translate(127.246094 0)"/>
       <use xlink:href="#DejaVuSans-30" transform="translate(190.869141 0)"/>
      </g>
     </g>
    </g>
    <g id="xtick_4">
     <g id="line2d_4">
      <g>
       <use xlink:href="#m249ad195b8" x="427.339483" y="384.48" style="stroke: #000000; stroke-width: 0.8"/>
      </g>
     </g>
     <g id="text_4">
      <!-- 1500 -->
      <g transform="translate(414.614483 399.078438) scale(0.1 -0.1)">
       <use xlink:href="#DejaVuSans-31"/>
       <use xlink:href="#DejaVuSans-35" transform="translate(63.623047 0)"/>
       <use xlink:href="#DejaVuSans-30" transform="translate(127.246094 0)"/>
       <use xlink:href="#DejaVuSans-30" transform="translate(190.869141 0)"/>
      </g>
     </g>
    </g>
    <g id="xtick_5">
     <g id="line2d_5">
      <g>
       <use xlink:href="#m249ad195b8" x="531.331432" y="384.48" style="stroke: #000000; stroke-width: 0.8"/>
      </g>
     </g>
     <g id="text_5">
      <!-- 2000 -->
      <g transform="translate(518.606432 399.078438) scale(0.1 -0.1)">
       <defs>
        <path id="DejaVuSans-32" d="M 1228 531 
L 3431 531 
L 3431 0 
L 469 0 
L 469 531 
Q 828 903 1448 1529 
Q 2069 2156 2228 2338 
Q 2531 2678 2651 2914 
Q 2772 3150 2772 3378 
Q 2772 3750 2511 3984 
Q 2250 4219 1831 4219 
Q 1534 4219 1204 4116 
Q 875 4013 500 3803 
L 500 4441 
Q 881 4594 1212 4672 
Q 1544 4750 1819 4750 
Q 2544 4750 2975 4387 
Q 3406 4025 3406 3419 
Q 3406 3131 3298 2873 
Q 3191 2616 2906 2266 
Q 2828 2175 2409 1742 
Q 1991 1309 1228 531 
z
" transform="scale(0.015625)"/>
       </defs>
       <use xlink:href="#DejaVuSans-32"/>
       <use xlink:href="#DejaVuSans-30" transform="translate(63.623047 0)"/>
       <use xlink:href="#DejaVuSans-30" transform="translate(127.246094 0)"/>
       <use xlink:href="#DejaVuSans-30" transform="translate(190.869141 0)"/>
      </g>
     </g>
    </g>
    <g id="xtick_6">
     <g id="line2d_6">
      <g>
       <use xlink:href="#m249ad195b8" x="635.323381" y="384.48" style="stroke: #000000; stroke-width: 0.8"/>
      </g>
     </g>
     <g id="text_6">
      <!-- 2500 -->
      <g transform="translate(622.598381 399.078438) scale(0.1 -0.1)">
       <use xlink:href="#DejaVuSans-32"/>
       <use xlink:href="#DejaVuSans-35" transform="translate(63.623047 0)"/>
       <use xlink:href="#DejaVuSans-30" transform="translate(127.246094 0)"/>
       <use xlink:href="#DejaVuSans-30" transform="translate(190.869141 0)"/>
      </g>
     </g>
    </g>
    <g id="text_7">
     <!-- Index -->
     <g transform="translate(355.233594 412.756563) scale(0.1 -0.1)">
      <defs>
       <path id="DejaVuSans-49" d="M 628 4666 
L 1259 4666 
L 1259 0 
L 628 0 
L 628 4666 
z
" transform="scale(0.015625)"/>
       <path id="DejaVuSans-6e" d="M 3513 2113 
L 3513 0 
L 2938 0 
L 2938 2094 
Q 2938 2591 2744 2837 
Q 2550 3084 2163 3084 
Q 1697 3084 1428 2787 
Q 1159 2491 1159 1978 
L 1159 0 
L 581 0 
L 581 3500 
L 1159 3500 
L 1159 2956 
Q 1366 3272 1645 3428 
Q 1925 3584 2291 3584 
Q 2894 3584 3203 3211 
Q 3513 2838 3513 2113 
z
" transform="scale(0.015625)"/>
       <path id="DejaVuSans-64" d="M 2906 2969 
L 2906 4863 
L 3481 4863 
L 3481 0 
L 2906 0 
L 2906 525 
Q 2725 213 2448 61 
Q 2172 -91 1784 -91 
Q 1150 -91 751 415 
Q 353 922 353 1747 
Q 353 2572 751 3078 
Q 1150 3584 1784 3584 
Q 2172 3584 2448 3432 
Q 2725 3281 2906 2969 
z
M 947 1747 
Q 947 1113 1208 752 
Q 1469 391 1925 391 
Q 2381 391 2643 752 
Q 2906 1113 2906 1747 
Q 2906 2381 2643 2742 
Q 2381 3103 1925 3103 
Q 1469 3103 1208 2742 
Q 947 2381 947 1747 
z
" transform="scale(0.015625)"/>
       <path id="DejaVuSans-65" d="M 3597 1894 
L 3597 1613 
L 953 1613 
Q 991 1019 1311 708 
Q 1631 397 2203 397 
Q 2534 397 2845 478 
Q 3156 559 3463 722 
L 3463 178 
Q 3153 47 2828 -22 
Q 2503 -91 2169 -91 
Q 1331 -91 842 396 
Q 353 884 353 1716 
Q 353 2575 817 3079 
Q 1281 3584 2069 3584 
Q 2775 3584 3186 3129 
Q 3597 2675 3597 1894 
z
M 3022 2063 
Q 3016 2534 2758 2815 
Q 2500 3097 2075 3097 
Q 1594 3097 1305 2825 
Q 1016 2553 972 2059 
L 3022 2063 
z
" transform="scale(0.015625)"/>
       <path id="DejaVuSans-78" d="M 3513 3500 
L 2247 1797 
L 3578 0 
L 2900 0 
L 1881 1375 
L 863 0 
L 184 0 
L 1544 1831 
L 300 3500 
L 978 3500 
L 1906 2253 
L 2834 3500 
L 3513 3500 
z
" transform="scale(0.015625)"/>
      </defs>
      <use xlink:href="#DejaVuSans-49"/>
      <use xlink:href="#DejaVuSans-6e" transform="translate(29.492188 0)"/>
      <use xlink:href="#DejaVuSans-64" transform="translate(92.871094 0)"/>
      <use xlink:href="#DejaVuSans-65" transform="translate(156.347656 0)"/>
      <use xlink:href="#DejaVuSans-78" transform="translate(216.121094 0)"/>
     </g>
    </g>
   </g>
   <g id="matplotlib.axis_2">
    <g id="ytick_1">
     <g id="line2d_7">
      <defs>
       <path id="mf0fbafa7b8" d="M 0 0 
L -3.5 0 
" style="stroke: #000000; stroke-width: 0.8"/>
      </defs>
      <g>
       <use xlink:href="#mf0fbafa7b8" x="90" y="369.36" style="stroke: #000000; stroke-width: 0.8"/>
      </g>
     </g>
     <g id="text_8">
      <!-- 0 -->
      <g transform="translate(76.6375 373.159219) scale(0.1 -0.1)">
       <use xlink:href="#DejaVuSans-30"/>
      </g>
     </g>
    </g>
    <g id="ytick_2">
     <g id="line2d_8">
      <g>
       <use xlink:href="#mf0fbafa7b8" x="90" y="323.16385" style="stroke: #000000; stroke-width: 0.8"/>
      </g>
     </g>
     <g id="text_9">
      <!-- 2000 -->
      <g transform="translate(57.55 326.963068) scale(0.1 -0.1)">
       <use xlink:href="#DejaVuSans-32"/>
       <use xlink:href="#DejaVuSans-30" transform="translate(63.623047 0)"/>
       <use xlink:href="#DejaVuSans-30" transform="translate(127.246094 0)"/>
       <use xlink:href="#DejaVuSans-30" transform="translate(190.869141 0)"/>
      </g>
     </g>
    </g>
    <g id="ytick_3">
     <g id="line2d_9">
      <g>
       <use xlink:href="#mf0fbafa7b8" x="90" y="276.967699" style="stroke: #000000; stroke-width: 0.8"/>
      </g>
     </g>
     <g id="text_10">
      <!-- 4000 -->
      <g transform="translate(57.55 280.766918) scale(0.1 -0.1)">
       <defs>
        <path id="DejaVuSans-34" d="M 2419 4116 
L 825 1625 
L 2419 1625 
L 2419 4116 
z
M 2253 4666 
L 3047 4666 
L 3047 1625 
L 3713 1625 
L 3713 1100 
L 3047 1100 
L 3047 0 
L 2419 0 
L 2419 1100 
L 313 1100 
L 313 1709 
L 2253 4666 
z
" transform="scale(0.015625)"/>
       </defs>
       <use xlink:href="#DejaVuSans-34"/>
       <use xlink:href="#DejaVuSans-30" transform="translate(63.623047 0)"/>
       <use xlink:href="#DejaVuSans-30" transform="translate(127.246094 0)"/>
       <use xlink:href="#DejaVuSans-30" transform="translate(190.869141 0)"/>
      </g>
     </g>
    </g>
    <g id="ytick_4">
     <g id="line2d_10">
      <g>
       <use xlink:href="#mf0fbafa7b8" x="90" y="230.771549" style="stroke: #000000; stroke-width: 0.8"/>
      </g>
     </g>
     <g id="text_11">
      <!-- 6000 -->
      <g transform="translate(57.55 234.570768) scale(0.1 -0.1)">
       <defs>
        <path id="DejaVuSans-36" d="M 2113 2584 
Q 1688 2584 1439 2293 
Q 1191 2003 1191 1497 
Q 1191 994 1439 701 
Q 1688 409 2113 409 
Q 2538 409 2786 701 
Q 3034 994 3034 1497 
Q 3034 2003 2786 2293 
Q 2538 2584 2113 2584 
z
M 3366 4563 
L 3366 3988 
Q 3128 4100 2886 4159 
Q 2644 4219 2406 4219 
Q 1781 4219 1451 3797 
Q 1122 3375 1075 2522 
Q 1259 2794 1537 2939 
Q 1816 3084 2150 3084 
Q 2853 3084 3261 2657 
Q 3669 2231 3669 1497 
Q 3669 778 3244 343 
Q 2819 -91 2113 -91 
Q 1303 -91 875 529 
Q 447 1150 447 2328 
Q 447 3434 972 4092 
Q 1497 4750 2381 4750 
Q 2619 4750 2861 4703 
Q 3103 4656 3366 4563 
z
" transform="scale(0.015625)"/>
       </defs>
       <use xlink:href="#DejaVuSans-36"/>
       <use xlink:href="#DejaVuSans-30" transform="translate(63.623047 0)"/>
       <use xlink:href="#DejaVuSans-30" transform="translate(127.246094 0)"/>
       <use xlink:href="#DejaVuSans-30" transform="translate(190.869141 0)"/>
      </g>
     </g>
    </g>
    <g id="ytick_5">
     <g id="line2d_11">
      <g>
       <use xlink:href="#mf0fbafa7b8" x="90" y="184.575399" style="stroke: #000000; stroke-width: 0.8"/>
      </g>
     </g>
     <g id="text_12">
      <!-- 8000 -->
      <g transform="translate(57.55 188.374617) scale(0.1 -0.1)">
       <defs>
        <path id="DejaVuSans-38" d="M 2034 2216 
Q 1584 2216 1326 1975 
Q 1069 1734 1069 1313 
Q 1069 891 1326 650 
Q 1584 409 2034 409 
Q 2484 409 2743 651 
Q 3003 894 3003 1313 
Q 3003 1734 2745 1975 
Q 2488 2216 2034 2216 
z
M 1403 2484 
Q 997 2584 770 2862 
Q 544 3141 544 3541 
Q 544 4100 942 4425 
Q 1341 4750 2034 4750 
Q 2731 4750 3128 4425 
Q 3525 4100 3525 3541 
Q 3525 3141 3298 2862 
Q 3072 2584 2669 2484 
Q 3125 2378 3379 2068 
Q 3634 1759 3634 1313 
Q 3634 634 3220 271 
Q 2806 -91 2034 -91 
Q 1263 -91 848 271 
Q 434 634 434 1313 
Q 434 1759 690 2068 
Q 947 2378 1403 2484 
z
M 1172 3481 
Q 1172 3119 1398 2916 
Q 1625 2713 2034 2713 
Q 2441 2713 2670 2916 
Q 2900 3119 2900 3481 
Q 2900 3844 2670 4047 
Q 2441 4250 2034 4250 
Q 1625 4250 1398 4047 
Q 1172 3844 1172 3481 
z
" transform="scale(0.015625)"/>
       </defs>
       <use xlink:href="#DejaVuSans-38"/>
       <use xlink:href="#DejaVuSans-30" transform="translate(63.623047 0)"/>
       <use xlink:href="#DejaVuSans-30" transform="translate(127.246094 0)"/>
       <use xlink:href="#DejaVuSans-30" transform="translate(190.869141 0)"/>
      </g>
     </g>
    </g>
    <g id="ytick_6">
     <g id="line2d_12">
      <g>
       <use xlink:href="#mf0fbafa7b8" x="90" y="138.379248" style="stroke: #000000; stroke-width: 0.8"/>
      </g>
     </g>
     <g id="text_13">
      <!-- 10000 -->
      <g transform="translate(51.1875 142.178467) scale(0.1 -0.1)">
       <use xlink:href="#DejaVuSans-31"/>
       <use xlink:href="#DejaVuSans-30" transform="translate(63.623047 0)"/>
       <use xlink:href="#DejaVuSans-30" transform="translate(127.246094 0)"/>
       <use xlink:href="#DejaVuSans-30" transform="translate(190.869141 0)"/>
       <use xlink:href="#DejaVuSans-30" transform="translate(254.492188 0)"/>
      </g>
     </g>
    </g>
    <g id="ytick_7">
     <g id="line2d_13">
      <g>
       <use xlink:href="#mf0fbafa7b8" x="90" y="92.183098" style="stroke: #000000; stroke-width: 0.8"/>
      </g>
     </g>
     <g id="text_14">
      <!-- 12000 -->
      <g transform="translate(51.1875 95.982317) scale(0.1 -0.1)">
       <use xlink:href="#DejaVuSans-31"/>
       <use xlink:href="#DejaVuSans-32" transform="translate(63.623047 0)"/>
       <use xlink:href="#DejaVuSans-30" transform="translate(127.246094 0)"/>
       <use xlink:href="#DejaVuSans-30" transform="translate(190.869141 0)"/>
       <use xlink:href="#DejaVuSans-30" transform="translate(254.492188 0)"/>
      </g>
     </g>
    </g>
    <g id="text_15">
     <!-- Queue Size -->
     <g transform="translate(45.107812 246.439687) rotate(-90) scale(0.1 -0.1)">
      <defs>
       <path id="DejaVuSans-51" d="M 2522 4238 
Q 1834 4238 1429 3725 
Q 1025 3213 1025 2328 
Q 1025 1447 1429 934 
Q 1834 422 2522 422 
Q 3209 422 3611 934 
Q 4013 1447 4013 2328 
Q 4013 3213 3611 3725 
Q 3209 4238 2522 4238 
z
M 3406 84 
L 4238 -825 
L 3475 -825 
L 2784 -78 
Q 2681 -84 2626 -87 
Q 2572 -91 2522 -91 
Q 1538 -91 948 567 
Q 359 1225 359 2328 
Q 359 3434 948 4092 
Q 1538 4750 2522 4750 
Q 3503 4750 4090 4092 
Q 4678 3434 4678 2328 
Q 4678 1516 4351 937 
Q 4025 359 3406 84 
z
" transform="scale(0.015625)"/>
       <path id="DejaVuSans-75" d="M 544 1381 
L 544 3500 
L 1119 3500 
L 1119 1403 
Q 1119 906 1312 657 
Q 1506 409 1894 409 
Q 2359 409 2629 706 
Q 2900 1003 2900 1516 
L 2900 3500 
L 3475 3500 
L 3475 0 
L 2900 0 
L 2900 538 
Q 2691 219 2414 64 
Q 2138 -91 1772 -91 
Q 1169 -91 856 284 
Q 544 659 544 1381 
z
M 1991 3584 
L 1991 3584 
z
" transform="scale(0.015625)"/>
       <path id="DejaVuSans-20" transform="scale(0.015625)"/>
       <path id="DejaVuSans-53" d="M 3425 4513 
L 3425 3897 
Q 3066 4069 2747 4153 
Q 2428 4238 2131 4238 
Q 1616 4238 1336 4038 
Q 1056 3838 1056 3469 
Q 1056 3159 1242 3001 
Q 1428 2844 1947 2747 
L 2328 2669 
Q 3034 2534 3370 2195 
Q 3706 1856 3706 1288 
Q 3706 609 3251 259 
Q 2797 -91 1919 -91 
Q 1588 -91 1214 -16 
Q 841 59 441 206 
L 441 856 
Q 825 641 1194 531 
Q 1563 422 1919 422 
Q 2459 422 2753 634 
Q 3047 847 3047 1241 
Q 3047 1584 2836 1778 
Q 2625 1972 2144 2069 
L 1759 2144 
Q 1053 2284 737 2584 
Q 422 2884 422 3419 
Q 422 4038 858 4394 
Q 1294 4750 2059 4750 
Q 2388 4750 2728 4690 
Q 3069 4631 3425 4513 
z
" transform="scale(0.015625)"/>
       <path id="DejaVuSans-69" d="M 603 3500 
L 1178 3500 
L 1178 0 
L 603 0 
L 603 3500 
z
M 603 4863 
L 1178 4863 
L 1178 4134 
L 603 4134 
L 603 4863 
z
" transform="scale(0.015625)"/>
       <path id="DejaVuSans-7a" d="M 353 3500 
L 3084 3500 
L 3084 2975 
L 922 459 
L 3084 459 
L 3084 0 
L 275 0 
L 275 525 
L 2438 3041 
L 353 3041 
L 353 3500 
z
" transform="scale(0.015625)"/>
      </defs>
      <use xlink:href="#DejaVuSans-51"/>
      <use xlink:href="#DejaVuSans-75" transform="translate(78.710938 0)"/>
      <use xlink:href="#DejaVuSans-65" transform="translate(142.089844 0)"/>
      <use xlink:href="#DejaVuSans-75" transform="translate(203.613281 0)"/>
      <use xlink:href="#DejaVuSans-65" transform="translate(266.992188 0)"/>
      <use xlink:href="#DejaVuSans-20" transform="translate(328.515625 0)"/>
      <use xlink:href="#DejaVuSans-53" transform="translate(360.302734 0)"/>
      <use xlink:href="#DejaVuSans-69" transform="translate(423.779297 0)"/>
      <use xlink:href="#DejaVuSans-7a" transform="translate(451.5625 0)"/>
      <use xlink:href="#DejaVuSans-65" transform="translate(504.052734 0)"/>
     </g>
    </g>
   </g>
   <g id="line2d_14">
    <path d="M 115.363636 368.828744 
L 116.195572 368.921137 
L 117.027508 366.796114 
L 117.859443 366.149368 
L 119.107347 363.700972 
L 119.523314 363.008029 
L 120.147266 363.192814 
L 120.979202 361.43736 
L 122.019121 360.998497 
L 122.643073 360.513437 
L 123.890976 358.065041 
L 124.930896 356.147901 
L 125.13888 355.709038 
L 126.178799 355.270174 
L 126.802751 354.785115 
L 128.050654 352.336719 
L 129.090574 350.419578 
L 129.298558 349.980715 
L 130.338477 349.541852 
L 130.962429 349.056792 
L 132.210332 346.608396 
L 133.250252 344.691256 
L 133.458235 344.252392 
L 134.498155 343.813529 
L 135.122107 343.328469 
L 136.37001 340.880073 
L 136.577994 340.533602 
L 136.785978 341.203446 
L 138.033881 338.75505 
L 138.241865 338.408579 
L 138.449849 338.339285 
L 139.697752 335.890889 
L 139.905736 335.544418 
L 140.11372 335.475124 
L 141.361624 333.026728 
L 141.569608 332.680257 
L 141.777591 332.610962 
L 143.025495 330.162566 
L 143.233479 329.816095 
L 143.441463 331.040293 
L 144.481382 330.60143 
L 145.105334 330.11637 
L 146.353237 327.667974 
L 146.769205 327.067424 
L 147.809124 326.628561 
L 148.433076 326.143501 
L 149.68098 323.695105 
L 150.096947 323.094555 
L 151.136867 322.655692 
L 151.760819 322.170632 
L 153.008722 319.722236 
L 153.42469 319.121687 
L 154.464609 318.682823 
L 155.088561 318.197764 
L 156.336464 315.749368 
L 156.544448 315.402896 
L 156.752432 316.44231 
L 158.000335 314.548268 
L 158.208319 314.294189 
L 158.416303 314.317287 
L 159.664207 312.423245 
L 159.872191 312.169166 
L 160.080174 312.192264 
L 161.328078 310.298222 
L 161.536062 310.044143 
L 161.744046 310.067241 
L 162.991949 308.173199 
L 163.199933 307.91912 
L 163.407917 309.23571 
L 164.447836 308.796847 
L 165.071788 308.311787 
L 166.319691 305.863391 
L 166.735659 305.262841 
L 167.775579 304.823978 
L 168.39953 304.338918 
L 169.647434 301.890522 
L 170.063402 301.289973 
L 171.103321 300.851109 
L 171.727273 300.366049 
L 172.975176 297.917654 
L 173.391144 297.317104 
L 174.431063 296.87824 
L 175.055015 296.393181 
L 176.302918 293.944785 
L 176.510902 293.598313 
L 176.718886 294.637727 
L 177.96679 292.743685 
L 178.174774 292.489606 
L 178.382757 292.512704 
L 179.630661 290.618662 
L 179.838645 290.364583 
L 180.046629 290.387681 
L 181.294532 288.493639 
L 181.502516 288.23956 
L 181.7105 288.262658 
L 182.958403 286.368616 
L 183.166387 286.114537 
L 183.374371 287.431127 
L 184.414291 286.992264 
L 185.038242 286.507204 
L 186.286146 284.058808 
L 186.702113 283.458258 
L 187.742033 283.019395 
L 188.365985 282.534335 
L 189.613888 280.08594 
L 190.029856 279.48539 
L 191.069775 279.046526 
L 191.693727 278.561467 
L 192.94163 276.113071 
L 193.357598 275.512521 
L 194.397518 275.073657 
L 195.021469 274.588598 
L 196.269373 272.140202 
L 196.477357 271.793731 
L 196.68534 272.833144 
L 197.933244 270.939102 
L 198.141228 270.685023 
L 198.349212 270.708121 
L 199.597115 268.814079 
L 199.805099 268.56 
L 200.013083 268.583098 
L 201.260986 266.689056 
L 201.46897 266.434977 
L 201.676954 266.458075 
L 202.924857 264.564033 
L 203.132841 264.309954 
L 203.340825 265.626544 
L 204.380745 265.187681 
L 205.004696 264.702621 
L 206.2526 262.254225 
L 206.668568 261.653676 
L 207.708487 261.214812 
L 208.332439 260.729753 
L 209.580342 258.281357 
L 209.99631 257.680807 
L 211.036229 257.241943 
L 211.660181 256.756884 
L 212.908085 254.308488 
L 213.324052 253.707938 
L 214.363972 253.269074 
L 214.987924 252.784015 
L 216.235827 250.335619 
L 216.443811 249.989148 
L 216.651795 251.028561 
L 217.899698 249.134519 
L 218.107682 248.88044 
L 218.315666 248.903538 
L 219.563569 247.009496 
L 219.771553 246.755417 
L 219.979537 246.778515 
L 221.22744 244.884473 
L 221.435424 244.630394 
L 221.643408 244.653492 
L 222.891312 242.75945 
L 223.099296 242.505371 
L 223.307279 244.006746 
L 224.347199 242.64396 
L 224.763167 241.951017 
L 224.971151 241.881723 
L 226.01107 240.518937 
L 226.427038 239.825995 
L 226.635022 239.7567 
L 227.674941 238.393914 
L 228.090909 237.700972 
L 228.298893 237.631677 
L 229.338812 236.268891 
L 229.75478 235.575949 
L 229.962764 236.984931 
L 231.002684 235.622145 
L 231.418651 234.929203 
L 231.626635 234.859908 
L 232.666555 233.497122 
L 233.082523 232.80418 
L 233.290507 232.734885 
L 234.330426 231.372099 
L 234.746394 230.679157 
L 234.954378 230.609863 
L 235.994297 229.247076 
L 236.410265 228.554134 
L 236.618249 229.963116 
L 237.658168 228.60033 
L 238.074136 227.907388 
L 238.28212 227.838093 
L 239.32204 226.475307 
L 239.738007 225.782365 
L 239.945991 225.713071 
L 240.985911 224.350284 
L 241.401879 223.657342 
L 241.609862 223.588048 
L 242.649782 222.225261 
L 243.06575 221.532319 
L 243.273734 222.941302 
L 244.313653 221.578515 
L 244.729621 220.885573 
L 244.937605 220.816279 
L 245.977524 219.453492 
L 246.393492 218.76055 
L 246.601476 218.691256 
L 247.641396 217.328469 
L 248.057363 216.635527 
L 248.265347 216.566233 
L 249.305267 215.203446 
L 249.721234 214.510504 
L 249.929218 217.028194 
L 251.177122 215.134152 
L 251.385106 214.880073 
L 251.59309 214.903171 
L 252.840993 213.009129 
L 253.048977 212.75505 
L 253.256961 212.778148 
L 254.504864 210.884106 
L 254.712848 210.630027 
L 254.920832 210.653126 
L 256.168735 208.759083 
L 256.376719 208.505005 
L 256.584703 211.115087 
L 257.832607 209.221045 
L 258.04059 208.966966 
L 258.248574 208.990064 
L 259.496478 207.096022 
L 259.704462 206.841943 
L 259.912445 206.865041 
L 261.160349 204.970999 
L 261.368333 204.71692 
L 261.576317 204.740018 
L 262.82422 202.845976 
L 263.032204 202.591897 
L 263.240188 205.20198 
L 264.488091 203.307938 
L 264.696075 203.053859 
L 264.904059 203.076957 
L 266.151962 201.182915 
L 266.359946 200.928836 
L 266.56793 200.951934 
L 267.815834 199.057892 
L 268.023818 198.803813 
L 268.231801 198.826911 
L 269.479705 196.932869 
L 269.687689 196.67879 
L 269.895673 199.288873 
L 271.143576 197.39483 
L 271.35156 197.140752 
L 271.559544 197.16385 
L 272.807447 195.269808 
L 273.015431 195.015729 
L 273.223415 195.038827 
L 274.471318 193.144785 
L 274.679302 192.890706 
L 274.887286 192.913804 
L 276.13519 191.019762 
L 276.343173 190.765683 
L 276.551157 192.267058 
L 277.175109 191.504821 
L 277.383093 191.527919 
L 278.007045 190.765683 
L 278.215029 190.788781 
L 278.83898 190.026544 
L 279.046964 190.049643 
L 279.670916 189.287406 
L 279.8789 190.419212 
L 280.502851 189.656975 
L 280.710835 189.680073 
L 281.334787 188.917837 
L 281.542771 188.940935 
L 282.166723 188.178698 
L 282.374706 188.201797 
L 282.998658 187.43956 
L 283.206642 188.571366 
L 283.830594 187.809129 
L 284.038578 187.832227 
L 284.662529 187.069991 
L 284.870513 187.093089 
L 285.494465 186.330852 
L 285.702449 186.353951 
L 286.326401 185.591714 
L 286.534384 186.72352 
L 287.158336 185.961283 
L 287.36632 185.984381 
L 287.990272 185.222145 
L 288.198256 185.245243 
L 288.822207 184.483006 
L 289.030191 184.506104 
L 289.654143 183.743868 
L 289.862127 185.984381 
L 291.11003 184.090339 
L 291.318014 183.83626 
L 291.525998 183.859358 
L 292.773901 181.965316 
L 292.981885 181.711237 
L 293.189869 181.734335 
L 294.437773 179.840293 
L 294.645756 179.586214 
L 294.85374 179.609313 
L 296.101644 177.71527 
L 296.309628 177.461192 
L 296.517612 180.071274 
L 297.765515 178.177232 
L 297.973499 177.923153 
L 298.181483 177.946251 
L 299.429386 176.052209 
L 299.63737 175.79813 
L 299.845354 175.821228 
L 301.093257 173.927186 
L 301.301241 173.673107 
L 301.509225 173.696205 
L 302.757128 171.802163 
L 302.965112 171.548084 
L 303.173096 174.158167 
L 304.421 172.264125 
L 304.628984 172.010046 
L 304.836967 172.033144 
L 306.084871 170.139102 
L 306.292855 169.885023 
L 306.500839 169.908121 
L 307.748742 168.014079 
L 307.956726 167.76 
L 308.16471 167.783098 
L 309.412613 165.889056 
L 309.620597 165.634977 
L 309.828581 168.24506 
L 311.076484 166.351017 
L 311.284468 166.096939 
L 311.492452 166.120037 
L 312.740356 164.225995 
L 312.948339 163.971916 
L 313.156323 163.995014 
L 314.404227 162.100972 
L 314.612211 161.846893 
L 314.820195 161.869991 
L 316.068098 159.975949 
L 316.276082 159.72187 
L 316.484066 161.223245 
L 317.108017 160.461008 
L 317.316001 160.484106 
L 317.939953 159.72187 
L 318.147937 159.744968 
L 318.771889 158.982731 
L 318.979873 159.00583 
L 319.603824 158.243593 
L 319.811808 159.375399 
L 320.43576 158.613162 
L 320.643744 158.63626 
L 321.267695 157.874024 
L 321.475679 157.897122 
L 322.099631 157.134885 
L 322.307615 157.157984 
L 322.931567 156.395747 
L 323.13955 157.527553 
L 323.763502 156.765316 
L 323.971486 156.788414 
L 324.595438 156.026178 
L 324.803422 156.049276 
L 325.427373 155.287039 
L 325.635357 155.310137 
L 326.259309 154.547901 
L 326.467293 155.679707 
L 327.091245 154.91747 
L 327.299228 154.940568 
L 327.92318 154.178332 
L 328.131164 154.20143 
L 328.755116 153.439193 
L 328.9631 153.462291 
L 329.587051 152.700055 
L 329.795035 154.940568 
L 331.042939 153.046526 
L 331.250923 152.792447 
L 331.458906 152.815545 
L 332.70681 150.921503 
L 332.914794 150.667424 
L 333.122778 150.690522 
L 334.370681 148.79648 
L 334.578665 148.542401 
L 334.786649 148.5655 
L 336.034552 146.671457 
L 336.242536 146.417379 
L 336.45052 149.027461 
L 337.698423 147.133419 
L 337.906407 146.87934 
L 338.114391 146.902438 
L 339.362295 145.008396 
L 339.570278 144.754317 
L 339.778262 144.777415 
L 341.026166 142.883373 
L 341.23415 142.629294 
L 341.442134 142.652392 
L 342.690037 140.75835 
L 342.898021 140.504271 
L 343.106005 143.114354 
L 344.353908 141.220312 
L 344.561892 140.966233 
L 344.769876 140.989331 
L 346.017779 139.095289 
L 346.225763 138.84121 
L 346.433747 138.864308 
L 347.68165 136.970266 
L 347.889634 136.716187 
L 348.097618 136.739285 
L 349.345522 134.845243 
L 349.553506 134.591164 
L 349.761489 137.201247 
L 351.009393 135.307204 
L 351.217377 135.053126 
L 351.425361 135.076224 
L 352.673264 133.182181 
L 352.881248 132.928103 
L 353.089232 132.951201 
L 354.337135 131.057159 
L 354.545119 130.80308 
L 354.753103 130.826178 
L 356.001006 128.932136 
L 356.20899 128.678057 
L 356.416974 130.179432 
L 357.040926 129.417195 
L 357.24891 129.440293 
L 357.872861 128.678057 
L 358.080845 128.701155 
L 358.704797 127.938918 
L 358.912781 127.962016 
L 359.536733 127.19978 
L 359.744717 128.331586 
L 360.368668 127.569349 
L 360.576652 127.592447 
L 361.200604 126.830211 
L 361.408588 126.853309 
L 362.032539 126.091072 
L 362.240523 126.11417 
L 362.864475 125.351934 
L 363.072459 126.48374 
L 363.696411 125.721503 
L 363.904394 125.744601 
L 364.528346 124.982365 
L 364.73633 125.005463 
L 365.360282 124.243226 
L 365.568266 124.266324 
L 366.192217 123.504088 
L 366.400201 124.635894 
L 367.024153 123.873657 
L 367.232137 123.896755 
L 367.856089 123.134519 
L 368.064072 123.157617 
L 368.688024 122.39538 
L 368.896008 122.418478 
L 369.51996 121.656242 
L 369.727944 123.896755 
L 370.975847 122.002713 
L 371.183831 121.748634 
L 371.391815 121.771732 
L 372.639718 119.87769 
L 372.847702 119.623611 
L 373.055686 119.646709 
L 374.303589 117.752667 
L 374.511573 117.498588 
L 374.719557 117.521687 
L 375.967461 115.627644 
L 376.175444 115.373566 
L 376.383428 117.983648 
L 377.631332 116.089606 
L 377.839316 115.835527 
L 378.0473 115.858625 
L 379.295203 113.964583 
L 379.503187 113.710504 
L 379.711171 113.733602 
L 380.959074 111.83956 
L 381.167058 111.585481 
L 381.375042 111.608579 
L 382.622945 109.714537 
L 382.830929 109.460458 
L 383.038913 112.070541 
L 384.286817 110.176499 
L 384.4948 109.92242 
L 384.702784 109.945518 
L 385.950688 108.051476 
L 386.158672 107.797397 
L 386.366655 107.820495 
L 387.614559 105.926453 
L 387.822543 105.672374 
L 388.030527 105.695472 
L 389.27843 103.80143 
L 389.486414 103.547351 
L 389.694398 106.157434 
L 390.942301 104.263391 
L 391.150285 104.009313 
L 391.358269 104.032411 
L 392.606172 102.138368 
L 392.814156 101.88429 
L 393.02214 101.907388 
L 394.270044 100.013346 
L 394.478028 99.759267 
L 394.686011 99.782365 
L 395.933915 97.888323 
L 396.141899 97.634244 
L 396.349883 99.135619 
L 396.973834 98.373382 
L 397.181818 98.39648 
L 397.80577 97.634244 
L 398.013754 97.657342 
L 398.637705 96.895105 
L 398.845689 96.918203 
L 399.469641 96.155967 
L 399.677625 97.287773 
L 400.301577 96.525536 
L 400.509561 96.548634 
L 401.133512 95.786398 
L 401.341496 95.809496 
L 401.965448 95.047259 
L 402.173432 95.070357 
L 402.797383 94.308121 
L 403.005367 95.439927 
L 403.629319 94.67769 
L 403.837303 94.700788 
L 404.461255 93.938552 
L 404.669239 93.96165 
L 405.29319 93.199413 
L 405.501174 93.222511 
L 406.125126 92.460275 
L 406.33311 93.592081 
L 406.957061 92.829844 
L 407.165045 92.852942 
L 407.788997 92.090706 
L 407.996981 92.113804 
L 408.620933 91.351567 
L 408.828916 91.374665 
L 409.452868 90.612429 
L 409.660852 133.135985 
L 410.284804 132.373749 
L 410.492788 132.396847 
L 411.116739 131.63461 
L 411.324723 131.657709 
L 411.948675 130.895472 
L 412.156659 130.91857 
L 412.780611 130.156334 
L 412.988594 131.288139 
L 413.612546 130.525903 
L 413.82053 130.549001 
L 414.444482 129.786764 
L 414.652466 129.809863 
L 415.276417 129.047626 
L 415.484401 129.070724 
L 416.108353 128.308488 
L 416.316337 129.440293 
L 416.940288 128.678057 
L 417.148272 128.701155 
L 417.772224 127.938918 
L 417.980208 127.962016 
L 418.60416 127.19978 
L 418.812144 127.222878 
L 419.436095 126.460642 
L 419.644079 127.592447 
L 420.268031 126.830211 
L 420.476015 126.853309 
L 421.099966 126.091072 
L 421.30795 126.11417 
L 421.931902 125.351934 
L 422.139886 125.375032 
L 422.763838 124.612796 
L 422.971822 125.744601 
L 423.595773 124.982365 
L 423.803757 125.005463 
L 424.427709 124.243226 
L 424.635693 124.266324 
L 425.259644 123.504088 
L 425.467628 123.527186 
L 426.09158 122.76495 
L 426.299564 123.896755 
L 426.923516 123.134519 
L 427.131499 123.157617 
L 427.755451 122.39538 
L 427.963435 122.418478 
L 428.587387 121.656242 
L 428.795371 121.67934 
L 429.419322 120.917104 
L 429.627306 122.048909 
L 430.251258 121.286673 
L 430.459242 121.309771 
L 431.083194 120.547534 
L 431.291177 120.570632 
L 431.915129 119.808396 
L 432.123113 119.831494 
L 432.747065 119.069258 
L 432.955049 120.201063 
L 433.579 119.438827 
L 433.786984 119.461925 
L 434.410936 118.699688 
L 434.61892 118.722786 
L 435.242872 117.96055 
L 435.450855 117.983648 
L 436.074807 117.221412 
L 436.282791 118.353217 
L 436.906743 117.590981 
L 437.114727 117.614079 
L 437.738678 116.851842 
L 437.946662 116.87494 
L 438.570614 116.112704 
L 438.778598 116.135802 
L 439.402549 115.373566 
L 439.610533 116.505371 
L 440.234485 115.743135 
L 440.442469 115.766233 
L 441.066421 115.003996 
L 441.274405 115.027094 
L 441.898356 114.264858 
L 442.10634 114.287956 
L 442.730292 113.52572 
L 442.938276 114.657525 
L 443.562227 113.895289 
L 443.770211 113.918387 
L 444.394163 113.15615 
L 444.602147 113.179248 
L 445.226099 112.417012 
L 445.434083 112.44011 
L 446.058034 111.677874 
L 446.266018 112.809679 
L 446.88997 112.047443 
L 447.097954 112.070541 
L 447.721905 111.308304 
L 447.929889 111.331402 
L 448.553841 110.569166 
L 448.761825 110.592264 
L 449.385777 109.830027 
L 449.59376 110.961833 
L 450.217712 110.199597 
L 450.425696 110.222695 
L 451.049648 109.460458 
L 451.257632 109.483556 
L 451.881583 108.72132 
L 452.089567 108.744418 
L 452.713519 107.982181 
L 452.921503 109.113987 
L 453.545455 108.351751 
L 453.753438 108.374849 
L 454.37739 107.612612 
L 454.585374 107.63571 
L 455.209326 106.873474 
L 455.41731 106.896572 
L 456.041261 106.134335 
L 456.249245 107.266141 
L 456.873197 106.503905 
L 457.081181 106.527003 
L 457.705133 105.764766 
L 457.913116 105.787864 
L 458.537068 105.025628 
L 458.745052 105.048726 
L 459.369004 104.286489 
L 459.576988 105.418295 
L 460.200939 104.656059 
L 460.408923 104.679157 
L 461.032875 103.91692 
L 461.240859 103.940018 
L 461.86481 103.177782 
L 462.072794 103.20088 
L 462.696746 102.438643 
L 462.90473 121.309771 
L 463.528682 120.547534 
L 463.736666 120.570632 
L 464.360617 119.808396 
L 464.568601 119.831494 
L 465.192553 119.069258 
L 465.400537 119.092356 
L 466.024488 118.330119 
L 466.232472 119.461925 
L 466.856424 118.699688 
L 467.064408 118.722786 
L 467.68836 117.96055 
L 467.896344 117.983648 
L 468.520295 117.221412 
L 468.728279 117.24451 
L 469.352231 116.482273 
L 469.560215 117.614079 
L 470.184166 116.851842 
L 470.39215 116.87494 
L 471.016102 116.112704 
L 471.224086 116.135802 
L 471.848038 115.373566 
L 472.056021 115.396664 
L 472.679973 114.634427 
L 472.887957 115.766233 
L 473.511909 115.003996 
L 473.719893 115.027094 
L 474.343844 114.264858 
L 474.551828 114.287956 
L 475.17578 113.52572 
L 475.383764 113.548818 
L 476.007716 112.786581 
L 476.215699 113.918387 
L 476.839651 113.15615 
L 477.047635 113.179248 
L 477.671587 112.417012 
L 477.879571 112.44011 
L 478.503522 111.677874 
L 478.711506 111.700972 
L 479.335458 110.938735 
L 479.543442 112.070541 
L 480.167393 111.308304 
L 480.375377 111.331402 
L 480.999329 110.569166 
L 481.207313 110.592264 
L 481.831265 109.830027 
L 482.039249 109.853126 
L 482.6632 109.090889 
L 482.871184 110.222695 
L 483.495136 109.460458 
L 483.70312 109.483556 
L 484.327071 108.72132 
L 484.535055 108.744418 
L 485.159007 107.982181 
L 485.366991 108.00528 
L 485.990943 107.243043 
L 486.198927 108.374849 
L 486.822878 107.612612 
L 487.030862 107.63571 
L 487.654814 106.873474 
L 487.862798 106.896572 
L 488.486749 106.134335 
L 488.694733 106.157434 
L 489.318685 105.395197 
L 489.526669 106.527003 
L 490.150621 105.764766 
L 490.358604 105.787864 
L 490.982556 105.025628 
L 491.19054 105.048726 
L 491.814492 104.286489 
L 492.022476 104.309588 
L 492.646427 103.547351 
L 492.854411 104.679157 
L 493.478363 103.91692 
L 493.686347 103.940018 
L 494.310299 103.177782 
L 494.518282 103.20088 
L 495.142234 102.438643 
L 495.350218 102.461742 
L 495.97417 101.699505 
L 496.182154 102.831311 
L 496.806105 102.069074 
L 497.014089 102.092172 
L 497.638041 101.329936 
L 497.846025 101.353034 
L 498.469977 100.590797 
L 498.67796 100.613896 
L 499.301912 99.851659 
L 499.509896 100.983465 
L 500.133848 100.221228 
L 500.341832 100.244326 
L 500.965783 99.48209 
L 501.173767 99.505188 
L 501.797719 98.742951 
L 502.005703 98.766049 
L 502.629654 98.003813 
L 502.837638 99.135619 
L 503.46159 98.373382 
L 503.669574 98.39648 
L 504.293526 97.634244 
L 504.50151 97.657342 
L 505.125461 96.895105 
L 505.333445 96.918203 
L 505.957397 96.155967 
L 506.165381 97.287773 
L 506.789332 96.525536 
L 506.997316 96.548634 
L 507.621268 95.786398 
L 507.829252 95.809496 
L 508.453204 95.047259 
L 508.661188 95.070357 
L 509.285139 94.308121 
L 509.493123 95.439927 
L 510.117075 94.67769 
L 510.325059 94.700788 
L 510.94901 93.938552 
L 511.156994 93.96165 
L 511.780946 93.199413 
L 511.98893 93.222511 
L 512.612882 92.460275 
L 512.820865 93.592081 
L 513.444817 92.829844 
L 513.652801 92.852942 
L 514.276753 92.090706 
L 514.484737 92.113804 
L 515.108688 91.351567 
L 515.316672 91.374665 
L 515.940624 90.612429 
L 516.148608 109.483556 
L 516.77256 108.72132 
L 516.980543 108.744418 
L 517.604495 107.982181 
L 517.812479 108.00528 
L 518.436431 107.243043 
L 518.644415 107.266141 
L 519.268366 106.503905 
L 519.47635 107.63571 
L 520.100302 106.873474 
L 520.308286 106.896572 
L 520.932238 106.134335 
L 521.140221 106.157434 
L 521.764173 105.395197 
L 521.972157 105.418295 
L 522.596109 104.656059 
L 522.804093 105.787864 
L 523.428044 105.025628 
L 523.636028 105.048726 
L 524.25998 104.286489 
L 524.467964 104.309588 
L 525.091915 103.547351 
L 525.299899 103.570449 
L 525.923851 102.808213 
L 526.131835 103.940018 
L 526.755787 103.177782 
L 526.963771 103.20088 
L 527.587722 102.438643 
L 527.795706 102.461742 
L 528.419658 101.699505 
L 528.627642 101.722603 
L 529.251593 100.960367 
L 529.459577 102.092172 
L 530.083529 101.329936 
L 530.291513 101.353034 
L 530.915465 100.590797 
L 531.123449 100.613896 
L 531.7474 99.851659 
L 531.955384 99.874757 
L 532.579336 99.112521 
L 532.78732 100.244326 
L 533.411271 99.48209 
L 533.619255 99.505188 
L 534.243207 98.742951 
L 534.451191 98.766049 
L 535.075143 98.003813 
L 535.283126 98.026911 
L 535.907078 97.264675 
L 536.115062 98.39648 
L 536.739014 97.634244 
L 536.946998 97.657342 
L 537.570949 96.895105 
L 537.778933 96.918203 
L 538.402885 96.155967 
L 538.610869 96.179065 
L 539.234821 95.416829 
L 539.442804 96.548634 
L 540.066756 95.786398 
L 540.27474 95.809496 
L 540.898692 95.047259 
L 541.106676 95.070357 
L 541.730627 94.308121 
L 541.938611 94.331219 
L 542.562563 93.568983 
L 542.770547 94.700788 
L 543.394498 93.938552 
L 543.602482 93.96165 
L 544.226434 93.199413 
L 544.434418 93.222511 
L 545.05837 92.460275 
L 545.266354 92.483373 
L 545.890305 91.721137 
L 546.098289 92.852942 
L 546.722241 92.090706 
L 546.930225 92.113804 
L 547.554176 91.351567 
L 547.76216 91.374665 
L 548.386112 90.612429 
L 548.594096 90.635527 
L 549.218048 89.873291 
L 549.426032 91.005096 
L 550.049983 90.24286 
L 550.257967 90.265958 
L 550.881919 89.503721 
L 551.089903 89.526819 
L 551.713854 88.764583 
L 551.921838 88.787681 
L 552.54579 88.025445 
L 552.753774 89.15725 
L 553.377726 88.395014 
L 553.585709 88.418112 
L 554.209661 87.655875 
L 554.417645 87.678973 
L 555.041597 86.916737 
L 555.249581 86.939835 
L 555.873532 86.177599 
L 556.081516 87.309404 
L 556.705468 86.547168 
L 556.913452 86.570266 
L 557.537404 85.808029 
L 557.745387 85.831127 
L 558.369339 85.068891 
L 558.577323 85.091989 
L 559.201275 84.329753 
L 559.409259 85.461558 
L 560.03321 84.699322 
L 560.241194 84.72242 
L 560.865146 83.960183 
L 561.07313 83.983281 
L 561.697082 83.221045 
L 561.905065 83.244143 
L 562.529017 82.481907 
L 562.737001 83.613712 
L 563.360953 82.851476 
L 563.568937 82.874574 
L 564.192888 82.112337 
L 564.400872 82.135435 
L 565.024824 81.373199 
L 565.232808 81.396297 
L 565.856759 80.63406 
L 566.064743 81.765866 
L 566.688695 81.00363 
L 566.896679 81.026728 
L 567.520631 80.264491 
L 567.728615 80.287589 
L 568.352566 79.525353 
L 568.56055 79.548451 
L 569.184502 78.786214 
L 569.392486 97.657342 
L 570.016437 96.895105 
L 570.224421 96.918203 
L 570.848373 96.155967 
L 571.056357 96.179065 
L 571.680309 95.416829 
L 571.888293 95.439927 
L 572.512244 94.67769 
L 572.720228 95.809496 
L 573.34418 95.047259 
L 573.552164 95.070357 
L 574.176115 94.308121 
L 574.384099 94.331219 
L 575.008051 93.568983 
L 575.216035 93.592081 
L 575.839987 92.829844 
L 576.04797 93.96165 
L 576.671922 93.199413 
L 576.879906 93.222511 
L 577.503858 92.460275 
L 577.711842 92.483373 
L 578.335793 91.721137 
L 578.543777 91.744235 
L 579.167729 90.981998 
L 579.375713 92.113804 
L 579.999665 91.351567 
L 580.207648 91.374665 
L 580.8316 90.612429 
L 581.039584 90.635527 
L 581.663536 89.873291 
L 581.87152 89.896389 
L 582.495471 89.134152 
L 582.703455 90.265958 
L 583.327407 89.503721 
L 583.535391 89.526819 
L 584.159343 88.764583 
L 584.367326 88.787681 
L 584.991278 88.025445 
L 585.199262 88.048543 
L 585.823214 87.286306 
L 586.031198 88.418112 
L 586.655149 87.655875 
L 586.863133 87.678973 
L 587.487085 86.916737 
L 587.695069 86.939835 
L 588.31902 86.177599 
L 588.527004 86.200697 
L 589.150956 85.43846 
L 589.35894 86.570266 
L 589.982892 85.808029 
L 590.190876 85.831127 
L 590.814827 85.068891 
L 591.022811 85.091989 
L 591.646763 84.329753 
L 591.854747 84.352851 
L 592.478698 83.590614 
L 592.686682 84.72242 
L 593.310634 83.960183 
L 593.518618 83.983281 
L 594.14257 83.221045 
L 594.350554 83.244143 
L 594.974505 82.481907 
L 595.182489 82.505005 
L 595.806441 81.742768 
L 596.014425 82.874574 
L 596.638376 82.112337 
L 596.84636 82.135435 
L 597.470312 81.373199 
L 597.678296 81.396297 
L 598.302248 80.63406 
L 598.510231 80.657159 
L 599.134183 79.894922 
L 599.342167 81.026728 
L 599.966119 80.264491 
L 600.174103 80.287589 
L 600.798054 79.525353 
L 601.006038 79.548451 
L 601.62999 78.786214 
L 601.837974 78.809313 
L 602.461926 78.047076 
L 602.669909 79.178882 
L 603.293861 78.416645 
L 603.501845 78.439743 
L 604.125797 77.677507 
L 604.333781 77.700605 
L 604.957732 76.938368 
L 605.165716 76.961467 
L 605.789668 76.19923 
L 605.997652 77.331036 
L 606.621603 76.568799 
L 606.829587 76.591897 
L 607.453539 75.829661 
L 607.661523 75.852759 
L 608.285475 75.090522 
L 608.493459 75.113621 
L 609.11741 74.351384 
L 609.325394 75.48319 
L 609.949346 74.720953 
L 610.15733 74.744051 
L 610.781281 73.981815 
L 610.989265 74.004913 
L 611.613217 73.242676 
L 611.821201 73.265775 
L 612.445153 72.503538 
L 612.653137 73.635344 
L 613.277088 72.873107 
L 613.485072 72.896205 
L 614.109024 72.133969 
L 614.317008 72.157067 
L 614.940959 71.39483 
L 615.148943 71.417929 
L 615.772895 70.655692 
L 615.980879 71.787498 
L 616.604831 71.025261 
L 616.812814 71.048359 
L 617.436766 70.286123 
L 617.64475 70.309221 
L 618.268702 69.546984 
L 618.476686 69.570082 
L 619.100637 68.807846 
L 619.308621 69.939652 
L 619.932573 69.177415 
L 620.140557 69.200513 
L 620.764509 68.438277 
L 620.972492 68.461375 
L 621.596444 67.699138 
L 621.804428 67.722236 
L 622.42838 66.96 
L 622.636364 369.36 
L 622.636364 369.36 
" clip-path="url(#p56352bd46f)" style="fill: none; stroke: #1f77b4; stroke-width: 1.5; stroke-linecap: square"/>
   </g>
   <g id="patch_3">
    <path d="M 90 384.48 
L 90 51.84 
" style="fill: none; stroke: #000000; stroke-width: 0.8; stroke-linejoin: miter; stroke-linecap: square"/>
   </g>
   <g id="patch_4">
    <path d="M 648 384.48 
L 648 51.84 
" style="fill: none; stroke: #000000; stroke-width: 0.8; stroke-linejoin: miter; stroke-linecap: square"/>
   </g>
   <g id="patch_5">
    <path d="M 90 384.48 
L 648 384.48 
" style="fill: none; stroke: #000000; stroke-width: 0.8; stroke-linejoin: miter; stroke-linecap: square"/>
   </g>
   <g id="patch_6">
    <path d="M 90 51.84 
L 648 51.84 
" style="fill: none; stroke: #000000; stroke-width: 0.8; stroke-linejoin: miter; stroke-linecap: square"/>
   </g>
   <g id="text_16">
    <!-- Queue size over time -->
    <g transform="translate(304.997813 45.84) scale(0.12 -0.12)">
     <defs>
      <path id="DejaVuSans-73" d="M 2834 3397 
L 2834 2853 
Q 2591 2978 2328 3040 
Q 2066 3103 1784 3103 
Q 1356 3103 1142 2972 
Q 928 2841 928 2578 
Q 928 2378 1081 2264 
Q 1234 2150 1697 2047 
L 1894 2003 
Q 2506 1872 2764 1633 
Q 3022 1394 3022 966 
Q 3022 478 2636 193 
Q 2250 -91 1575 -91 
Q 1294 -91 989 -36 
Q 684 19 347 128 
L 347 722 
Q 666 556 975 473 
Q 1284 391 1588 391 
Q 1994 391 2212 530 
Q 2431 669 2431 922 
Q 2431 1156 2273 1281 
Q 2116 1406 1581 1522 
L 1381 1569 
Q 847 1681 609 1914 
Q 372 2147 372 2553 
Q 372 3047 722 3315 
Q 1072 3584 1716 3584 
Q 2034 3584 2315 3537 
Q 2597 3491 2834 3397 
z
" transform="scale(0.015625)"/>
      <path id="DejaVuSans-6f" d="M 1959 3097 
Q 1497 3097 1228 2736 
Q 959 2375 959 1747 
Q 959 1119 1226 758 
Q 1494 397 1959 397 
Q 2419 397 2687 759 
Q 2956 1122 2956 1747 
Q 2956 2369 2687 2733 
Q 2419 3097 1959 3097 
z
M 1959 3584 
Q 2709 3584 3137 3096 
Q 3566 2609 3566 1747 
Q 3566 888 3137 398 
Q 2709 -91 1959 -91 
Q 1206 -91 779 398 
Q 353 888 353 1747 
Q 353 2609 779 3096 
Q 1206 3584 1959 3584 
z
" transform="scale(0.015625)"/>
      <path id="DejaVuSans-76" d="M 191 3500 
L 800 3500 
L 1894 563 
L 2988 3500 
L 3597 3500 
L 2284 0 
L 1503 0 
L 191 3500 
z
" transform="scale(0.015625)"/>
      <path id="DejaVuSans-72" d="M 2631 2963 
Q 2534 3019 2420 3045 
Q 2306 3072 2169 3072 
Q 1681 3072 1420 2755 
Q 1159 2438 1159 1844 
L 1159 0 
L 581 0 
L 581 3500 
L 1159 3500 
L 1159 2956 
Q 1341 3275 1631 3429 
Q 1922 3584 2338 3584 
Q 2397 3584 2469 3576 
Q 2541 3569 2628 3553 
L 2631 2963 
z
" transform="scale(0.015625)"/>
      <path id="DejaVuSans-74" d="M 1172 4494 
L 1172 3500 
L 2356 3500 
L 2356 3053 
L 1172 3053 
L 1172 1153 
Q 1172 725 1289 603 
Q 1406 481 1766 481 
L 2356 481 
L 2356 0 
L 1766 0 
Q 1100 0 847 248 
Q 594 497 594 1153 
L 594 3053 
L 172 3053 
L 172 3500 
L 594 3500 
L 594 4494 
L 1172 4494 
z
" transform="scale(0.015625)"/>
      <path id="DejaVuSans-6d" d="M 3328 2828 
Q 3544 3216 3844 3400 
Q 4144 3584 4550 3584 
Q 5097 3584 5394 3201 
Q 5691 2819 5691 2113 
L 5691 0 
L 5113 0 
L 5113 2094 
Q 5113 2597 4934 2840 
Q 4756 3084 4391 3084 
Q 3944 3084 3684 2787 
Q 3425 2491 3425 1978 
L 3425 0 
L 2847 0 
L 2847 2094 
Q 2847 2600 2669 2842 
Q 2491 3084 2119 3084 
Q 1678 3084 1418 2786 
Q 1159 2488 1159 1978 
L 1159 0 
L 581 0 
L 581 3500 
L 1159 3500 
L 1159 2956 
Q 1356 3278 1631 3431 
Q 1906 3584 2284 3584 
Q 2666 3584 2933 3390 
Q 3200 3197 3328 2828 
z
" transform="scale(0.015625)"/>
     </defs>
     <use xlink:href="#DejaVuSans-51"/>
     <use xlink:href="#DejaVuSans-75" transform="translate(78.710938 0)"/>
     <use xlink:href="#DejaVuSans-65" transform="translate(142.089844 0)"/>
     <use xlink:href="#DejaVuSans-75" transform="translate(203.613281 0)"/>
     <use xlink:href="#DejaVuSans-65" transform="translate(266.992188 0)"/>
     <use xlink:href="#DejaVuSans-20" transform="translate(328.515625 0)"/>
     <use xlink:href="#DejaVuSans-73" transform="translate(360.302734 0)"/>
     <use xlink:href="#DejaVuSans-69" transform="translate(412.402344 0)"/>
     <use xlink:href="#DejaVuSans-7a" transform="translate(440.185547 0)"/>
     <use xlink:href="#DejaVuSans-65" transform="translate(492.675781 0)"/>
     <use xlink:href="#DejaVuSans-20" transform="translate(554.199219 0)"/>
     <use xlink:href="#DejaVuSans-6f" transform="translate(585.986328 0)"/>
     <use xlink:href="#DejaVuSans-76" transform="translate(647.167969 0)"/>
     <use xlink:href="#DejaVuSans-65" transform="translate(706.347656 0)"/>
     <use xlink:href="#DejaVuSans-72" transform="translate(767.871094 0)"/>
     <use xlink:href="#DejaVuSans-20" transform="translate(808.984375 0)"/>
     <use xlink:href="#DejaVuSans-74" transform="translate(840.771484 0)"/>
     <use xlink:href="#DejaVuSans-69" transform="translate(879.980469 0)"/>
     <use xlink:href="#DejaVuSans-6d" transform="translate(907.763672 0)"/>
     <use xlink:href="#DejaVuSans-65" transform="translate(1005.175781 0)"/>
    </g>
   </g>
   <g id="legend_1">
    <g id="patch_7">
     <path d="M 97 74.518125 
L 185.559375 74.518125 
Q 187.559375 74.518125 187.559375 72.518125 
L 187.559375 58.84 
Q 187.559375 56.84 185.559375 56.84 
L 97 56.84 
Q 95 56.84 95 58.84 
L 95 72.518125 
Q 95 74.518125 97 74.518125 
z
" style="fill: #ffffff; opacity: 0.8; stroke: #cccccc; stroke-linejoin: miter"/>
    </g>
    <g id="line2d_15">
     <path d="M 99 64.938438 
L 109 64.938438 
L 119 64.938438 
" style="fill: none; stroke: #1f77b4; stroke-width: 1.5; stroke-linecap: square"/>
    </g>
    <g id="text_17">
     <!-- Queue Size -->
     <g transform="translate(127 68.438438) scale(0.1 -0.1)">
      <use xlink:href="#DejaVuSans-51"/>
      <use xlink:href="#DejaVuSans-75" transform="translate(78.710938 0)"/>
      <use xlink:href="#DejaVuSans-65" transform="translate(142.089844 0)"/>
      <use xlink:href="#DejaVuSans-75" transform="translate(203.613281 0)"/>
      <use xlink:href="#DejaVuSans-65" transform="translate(266.992188 0)"/>
      <use xlink:href="#DejaVuSans-20" transform="translate(328.515625 0)"/>
      <use xlink:href="#DejaVuSans-53" transform="translate(360.302734 0)"/>
      <use xlink:href="#DejaVuSans-69" transform="translate(423.779297 0)"/>
      <use xlink:href="#DejaVuSans-7a" transform="translate(451.5625 0)"/>
      <use xlink:href="#DejaVuSans-65" transform="translate(504.052734 0)"/>
     </g>
    </g>
   </g>
  </g>
 </g>
 <defs>
  <clipPath id="p56352bd46f">
   <rect x="90" y="51.84" width="558" height="332.64"/>
  </clipPath>
 </defs>
</svg>
