<?xml version="1.0" encoding="utf-8" standalone="no"?>
<!DOCTYPE svg PUBLIC "-//W3C//DTD SVG 1.1//EN"
  "http://www.w3.org/Graphics/SVG/1.1/DTD/svg11.dtd">
<svg xmlns:xlink="http://www.w3.org/1999/xlink" width="720pt" height="432pt" viewBox="0 0 720 432" xmlns="http://www.w3.org/2000/svg" version="1.1">
 <metadata>
  <rdf:RDF xmlns:dc="http://purl.org/dc/elements/1.1/" xmlns:cc="http://creativecommons.org/ns#" xmlns:rdf="http://www.w3.org/1999/02/22-rdf-syntax-ns#">
   <cc:Work>
    <dc:type rdf:resource="http://purl.org/dc/dcmitype/StillImage"/>
    <dc:date>2025-06-10T01:38:29.816140</dc:date>
    <dc:format>image/svg+xml</dc:format>
    <dc:creator>
     <cc:Agent>
      <dc:title>Matplotlib v3.10.3, https://matplotlib.org/</dc:title>
     </cc:Agent>
    </dc:creator>
   </cc:Work>
  </rdf:RDF>
 </metadata>
 <defs>
  <style type="text/css">*{stroke-linejoin: round; stroke-linecap: butt}</style>
 </defs>
 <g id="figure_1">
  <g id="patch_1">
   <path d="M 0 432 
L 720 432 
L 720 0 
L 0 0 
z
" style="fill: #ffffff"/>
  </g>
  <g id="axes_1">
   <g id="patch_2">
    <path d="M 90 384.48 
L 648 384.48 
L 648 51.84 
L 90 51.84 
z
" style="fill: #ffffff"/>
   </g>
   <g id="matplotlib.axis_1">
    <g id="xtick_1">
     <g id="line2d_1">
      <defs>
       <path id="m8d26f1cd6c" d="M 0 0 
L 0 3.5 
" style="stroke: #000000; stroke-width: 0.8"/>
      </defs>
      <g>
       <use xlink:href="#m8d26f1cd6c" x="115.363636" y="384.48" style="stroke: #000000; stroke-width: 0.8"/>
      </g>
     </g>
     <g id="text_1">
      <!-- 0 -->
      <g transform="translate(112.182386 399.078438) scale(0.1 -0.1)">
       <defs>
        <path id="DejaVuSans-30" d="M 2034 4250 
Q 1547 4250 1301 3770 
Q 1056 3291 1056 2328 
Q 1056 1369 1301 889 
Q 1547 409 2034 409 
Q 2525 409 2770 889 
Q 3016 1369 3016 2328 
Q 3016 3291 2770 3770 
Q 2525 4250 2034 4250 
z
M 2034 4750 
Q 2819 4750 3233 4129 
Q 3647 3509 3647 2328 
Q 3647 1150 3233 529 
Q 2819 -91 2034 -91 
Q 1250 -91 836 529 
Q 422 1150 422 2328 
Q 422 3509 836 4129 
Q 1250 4750 2034 4750 
z
" transform="scale(0.015625)"/>
       </defs>
       <use xlink:href="#DejaVuSans-30"/>
      </g>
     </g>
    </g>
    <g id="xtick_2">
     <g id="line2d_2">
      <g>
       <use xlink:href="#m8d26f1cd6c" x="186.014434" y="384.48" style="stroke: #000000; stroke-width: 0.8"/>
      </g>
     </g>
     <g id="text_2">
      <!-- 250 -->
      <g transform="translate(176.470684 399.078438) scale(0.1 -0.1)">
       <defs>
        <path id="DejaVuSans-32" d="M 1228 531 
L 3431 531 
L 3431 0 
L 469 0 
L 469 531 
Q 828 903 1448 1529 
Q 2069 2156 2228 2338 
Q 2531 2678 2651 2914 
Q 2772 3150 2772 3378 
Q 2772 3750 2511 3984 
Q 2250 4219 1831 4219 
Q 1534 4219 1204 4116 
Q 875 4013 500 3803 
L 500 4441 
Q 881 4594 1212 4672 
Q 1544 4750 1819 4750 
Q 2544 4750 2975 4387 
Q 3406 4025 3406 3419 
Q 3406 3131 3298 2873 
Q 3191 2616 2906 2266 
Q 2828 2175 2409 1742 
Q 1991 1309 1228 531 
z
" transform="scale(0.015625)"/>
        <path id="DejaVuSans-35" d="M 691 4666 
L 3169 4666 
L 3169 4134 
L 1269 4134 
L 1269 2991 
Q 1406 3038 1543 3061 
Q 1681 3084 1819 3084 
Q 2600 3084 3056 2656 
Q 3513 2228 3513 1497 
Q 3513 744 3044 326 
Q 2575 -91 1722 -91 
Q 1428 -91 1123 -41 
Q 819 9 494 109 
L 494 744 
Q 775 591 1075 516 
Q 1375 441 1709 441 
Q 2250 441 2565 725 
Q 2881 1009 2881 1497 
Q 2881 1984 2565 2268 
Q 2250 2553 1709 2553 
Q 1456 2553 1204 2497 
Q 953 2441 691 2322 
L 691 4666 
z
" transform="scale(0.015625)"/>
       </defs>
       <use xlink:href="#DejaVuSans-32"/>
       <use xlink:href="#DejaVuSans-35" transform="translate(63.623047 0)"/>
       <use xlink:href="#DejaVuSans-30" transform="translate(127.246094 0)"/>
      </g>
     </g>
    </g>
    <g id="xtick_3">
     <g id="line2d_3">
      <g>
       <use xlink:href="#m8d26f1cd6c" x="256.665232" y="384.48" style="stroke: #000000; stroke-width: 0.8"/>
      </g>
     </g>
     <g id="text_3">
      <!-- 500 -->
      <g transform="translate(247.121482 399.078438) scale(0.1 -0.1)">
       <use xlink:href="#DejaVuSans-35"/>
       <use xlink:href="#DejaVuSans-30" transform="translate(63.623047 0)"/>
       <use xlink:href="#DejaVuSans-30" transform="translate(127.246094 0)"/>
      </g>
     </g>
    </g>
    <g id="xtick_4">
     <g id="line2d_4">
      <g>
       <use xlink:href="#m8d26f1cd6c" x="327.316029" y="384.48" style="stroke: #000000; stroke-width: 0.8"/>
      </g>
     </g>
     <g id="text_4">
      <!-- 750 -->
      <g transform="translate(317.772279 399.078438) scale(0.1 -0.1)">
       <defs>
        <path id="DejaVuSans-37" d="M 525 4666 
L 3525 4666 
L 3525 4397 
L 1831 0 
L 1172 0 
L 2766 4134 
L 525 4134 
L 525 4666 
z
" transform="scale(0.015625)"/>
       </defs>
       <use xlink:href="#DejaVuSans-37"/>
       <use xlink:href="#DejaVuSans-35" transform="translate(63.623047 0)"/>
       <use xlink:href="#DejaVuSans-30" transform="translate(127.246094 0)"/>
      </g>
     </g>
    </g>
    <g id="xtick_5">
     <g id="line2d_5">
      <g>
       <use xlink:href="#m8d26f1cd6c" x="397.966827" y="384.48" style="stroke: #000000; stroke-width: 0.8"/>
      </g>
     </g>
     <g id="text_5">
      <!-- 1000 -->
      <g transform="translate(385.241827 399.078438) scale(0.1 -0.1)">
       <defs>
        <path id="DejaVuSans-31" d="M 794 531 
L 1825 531 
L 1825 4091 
L 703 3866 
L 703 4441 
L 1819 4666 
L 2450 4666 
L 2450 531 
L 3481 531 
L 3481 0 
L 794 0 
L 794 531 
z
" transform="scale(0.015625)"/>
       </defs>
       <use xlink:href="#DejaVuSans-31"/>
       <use xlink:href="#DejaVuSans-30" transform="translate(63.623047 0)"/>
       <use xlink:href="#DejaVuSans-30" transform="translate(127.246094 0)"/>
       <use xlink:href="#DejaVuSans-30" transform="translate(190.869141 0)"/>
      </g>
     </g>
    </g>
    <g id="xtick_6">
     <g id="line2d_6">
      <g>
       <use xlink:href="#m8d26f1cd6c" x="468.617625" y="384.48" style="stroke: #000000; stroke-width: 0.8"/>
      </g>
     </g>
     <g id="text_6">
      <!-- 1250 -->
      <g transform="translate(455.892625 399.078438) scale(0.1 -0.1)">
       <use xlink:href="#DejaVuSans-31"/>
       <use xlink:href="#DejaVuSans-32" transform="translate(63.623047 0)"/>
       <use xlink:href="#DejaVuSans-35" transform="translate(127.246094 0)"/>
       <use xlink:href="#DejaVuSans-30" transform="translate(190.869141 0)"/>
      </g>
     </g>
    </g>
    <g id="xtick_7">
     <g id="line2d_7">
      <g>
       <use xlink:href="#m8d26f1cd6c" x="539.268422" y="384.48" style="stroke: #000000; stroke-width: 0.8"/>
      </g>
     </g>
     <g id="text_7">
      <!-- 1500 -->
      <g transform="translate(526.543422 399.078438) scale(0.1 -0.1)">
       <use xlink:href="#DejaVuSans-31"/>
       <use xlink:href="#DejaVuSans-35" transform="translate(63.623047 0)"/>
       <use xlink:href="#DejaVuSans-30" transform="translate(127.246094 0)"/>
       <use xlink:href="#DejaVuSans-30" transform="translate(190.869141 0)"/>
      </g>
     </g>
    </g>
    <g id="xtick_8">
     <g id="line2d_8">
      <g>
       <use xlink:href="#m8d26f1cd6c" x="609.91922" y="384.48" style="stroke: #000000; stroke-width: 0.8"/>
      </g>
     </g>
     <g id="text_8">
      <!-- 1750 -->
      <g transform="translate(597.19422 399.078438) scale(0.1 -0.1)">
       <use xlink:href="#DejaVuSans-31"/>
       <use xlink:href="#DejaVuSans-37" transform="translate(63.623047 0)"/>
       <use xlink:href="#DejaVuSans-35" transform="translate(127.246094 0)"/>
       <use xlink:href="#DejaVuSans-30" transform="translate(190.869141 0)"/>
      </g>
     </g>
    </g>
    <g id="text_9">
     <!-- Index -->
     <g transform="translate(355.233594 412.756563) scale(0.1 -0.1)">
      <defs>
       <path id="DejaVuSans-49" d="M 628 4666 
L 1259 4666 
L 1259 0 
L 628 0 
L 628 4666 
z
" transform="scale(0.015625)"/>
       <path id="DejaVuSans-6e" d="M 3513 2113 
L 3513 0 
L 2938 0 
L 2938 2094 
Q 2938 2591 2744 2837 
Q 2550 3084 2163 3084 
Q 1697 3084 1428 2787 
Q 1159 2491 1159 1978 
L 1159 0 
L 581 0 
L 581 3500 
L 1159 3500 
L 1159 2956 
Q 1366 3272 1645 3428 
Q 1925 3584 2291 3584 
Q 2894 3584 3203 3211 
Q 3513 2838 3513 2113 
z
" transform="scale(0.015625)"/>
       <path id="DejaVuSans-64" d="M 2906 2969 
L 2906 4863 
L 3481 4863 
L 3481 0 
L 2906 0 
L 2906 525 
Q 2725 213 2448 61 
Q 2172 -91 1784 -91 
Q 1150 -91 751 415 
Q 353 922 353 1747 
Q 353 2572 751 3078 
Q 1150 3584 1784 3584 
Q 2172 3584 2448 3432 
Q 2725 3281 2906 2969 
z
M 947 1747 
Q 947 1113 1208 752 
Q 1469 391 1925 391 
Q 2381 391 2643 752 
Q 2906 1113 2906 1747 
Q 2906 2381 2643 2742 
Q 2381 3103 1925 3103 
Q 1469 3103 1208 2742 
Q 947 2381 947 1747 
z
" transform="scale(0.015625)"/>
       <path id="DejaVuSans-65" d="M 3597 1894 
L 3597 1613 
L 953 1613 
Q 991 1019 1311 708 
Q 1631 397 2203 397 
Q 2534 397 2845 478 
Q 3156 559 3463 722 
L 3463 178 
Q 3153 47 2828 -22 
Q 2503 -91 2169 -91 
Q 1331 -91 842 396 
Q 353 884 353 1716 
Q 353 2575 817 3079 
Q 1281 3584 2069 3584 
Q 2775 3584 3186 3129 
Q 3597 2675 3597 1894 
z
M 3022 2063 
Q 3016 2534 2758 2815 
Q 2500 3097 2075 3097 
Q 1594 3097 1305 2825 
Q 1016 2553 972 2059 
L 3022 2063 
z
" transform="scale(0.015625)"/>
       <path id="DejaVuSans-78" d="M 3513 3500 
L 2247 1797 
L 3578 0 
L 2900 0 
L 1881 1375 
L 863 0 
L 184 0 
L 1544 1831 
L 300 3500 
L 978 3500 
L 1906 2253 
L 2834 3500 
L 3513 3500 
z
" transform="scale(0.015625)"/>
      </defs>
      <use xlink:href="#DejaVuSans-49"/>
      <use xlink:href="#DejaVuSans-6e" transform="translate(29.492188 0)"/>
      <use xlink:href="#DejaVuSans-64" transform="translate(92.871094 0)"/>
      <use xlink:href="#DejaVuSans-65" transform="translate(156.347656 0)"/>
      <use xlink:href="#DejaVuSans-78" transform="translate(216.121094 0)"/>
     </g>
    </g>
   </g>
   <g id="matplotlib.axis_2">
    <g id="ytick_1">
     <g id="line2d_9">
      <defs>
       <path id="mb53ec5ff48" d="M 0 0 
L -3.5 0 
" style="stroke: #000000; stroke-width: 0.8"/>
      </defs>
      <g>
       <use xlink:href="#mb53ec5ff48" x="90" y="384.48" style="stroke: #000000; stroke-width: 0.8"/>
      </g>
     </g>
     <g id="text_10">
      <!-- 0.0 -->
      <g transform="translate(67.096875 388.279219) scale(0.1 -0.1)">
       <defs>
        <path id="DejaVuSans-2e" d="M 684 794 
L 1344 794 
L 1344 0 
L 684 0 
L 684 794 
z
" transform="scale(0.015625)"/>
       </defs>
       <use xlink:href="#DejaVuSans-30"/>
       <use xlink:href="#DejaVuSans-2e" transform="translate(63.623047 0)"/>
       <use xlink:href="#DejaVuSans-30" transform="translate(95.410156 0)"/>
      </g>
     </g>
    </g>
    <g id="ytick_2">
     <g id="line2d_10">
      <g>
       <use xlink:href="#mb53ec5ff48" x="90" y="327.362924" style="stroke: #000000; stroke-width: 0.8"/>
      </g>
     </g>
     <g id="text_11">
      <!-- 0.5 -->
      <g transform="translate(67.096875 331.162143) scale(0.1 -0.1)">
       <use xlink:href="#DejaVuSans-30"/>
       <use xlink:href="#DejaVuSans-2e" transform="translate(63.623047 0)"/>
       <use xlink:href="#DejaVuSans-35" transform="translate(95.410156 0)"/>
      </g>
     </g>
    </g>
    <g id="ytick_3">
     <g id="line2d_11">
      <g>
       <use xlink:href="#mb53ec5ff48" x="90" y="270.245848" style="stroke: #000000; stroke-width: 0.8"/>
      </g>
     </g>
     <g id="text_12">
      <!-- 1.0 -->
      <g transform="translate(67.096875 274.045067) scale(0.1 -0.1)">
       <use xlink:href="#DejaVuSans-31"/>
       <use xlink:href="#DejaVuSans-2e" transform="translate(63.623047 0)"/>
       <use xlink:href="#DejaVuSans-30" transform="translate(95.410156 0)"/>
      </g>
     </g>
    </g>
    <g id="ytick_4">
     <g id="line2d_12">
      <g>
       <use xlink:href="#mb53ec5ff48" x="90" y="213.128772" style="stroke: #000000; stroke-width: 0.8"/>
      </g>
     </g>
     <g id="text_13">
      <!-- 1.5 -->
      <g transform="translate(67.096875 216.927991) scale(0.1 -0.1)">
       <use xlink:href="#DejaVuSans-31"/>
       <use xlink:href="#DejaVuSans-2e" transform="translate(63.623047 0)"/>
       <use xlink:href="#DejaVuSans-35" transform="translate(95.410156 0)"/>
      </g>
     </g>
    </g>
    <g id="ytick_5">
     <g id="line2d_13">
      <g>
       <use xlink:href="#mb53ec5ff48" x="90" y="156.011696" style="stroke: #000000; stroke-width: 0.8"/>
      </g>
     </g>
     <g id="text_14">
      <!-- 2.0 -->
      <g transform="translate(67.096875 159.810915) scale(0.1 -0.1)">
       <use xlink:href="#DejaVuSans-32"/>
       <use xlink:href="#DejaVuSans-2e" transform="translate(63.623047 0)"/>
       <use xlink:href="#DejaVuSans-30" transform="translate(95.410156 0)"/>
      </g>
     </g>
    </g>
    <g id="ytick_6">
     <g id="line2d_14">
      <g>
       <use xlink:href="#mb53ec5ff48" x="90" y="98.89462" style="stroke: #000000; stroke-width: 0.8"/>
      </g>
     </g>
     <g id="text_15">
      <!-- 2.5 -->
      <g transform="translate(67.096875 102.693839) scale(0.1 -0.1)">
       <use xlink:href="#DejaVuSans-32"/>
       <use xlink:href="#DejaVuSans-2e" transform="translate(63.623047 0)"/>
       <use xlink:href="#DejaVuSans-35" transform="translate(95.410156 0)"/>
      </g>
     </g>
    </g>
    <g id="text_16">
     <!-- Average time (ms) -->
     <g transform="translate(61.017187 264.543594) rotate(-90) scale(0.1 -0.1)">
      <defs>
       <path id="DejaVuSans-41" d="M 2188 4044 
L 1331 1722 
L 3047 1722 
L 2188 4044 
z
M 1831 4666 
L 2547 4666 
L 4325 0 
L 3669 0 
L 3244 1197 
L 1141 1197 
L 716 0 
L 50 0 
L 1831 4666 
z
" transform="scale(0.015625)"/>
       <path id="DejaVuSans-76" d="M 191 3500 
L 800 3500 
L 1894 563 
L 2988 3500 
L 3597 3500 
L 2284 0 
L 1503 0 
L 191 3500 
z
" transform="scale(0.015625)"/>
       <path id="DejaVuSans-72" d="M 2631 2963 
Q 2534 3019 2420 3045 
Q 2306 3072 2169 3072 
Q 1681 3072 1420 2755 
Q 1159 2438 1159 1844 
L 1159 0 
L 581 0 
L 581 3500 
L 1159 3500 
L 1159 2956 
Q 1341 3275 1631 3429 
Q 1922 3584 2338 3584 
Q 2397 3584 2469 3576 
Q 2541 3569 2628 3553 
L 2631 2963 
z
" transform="scale(0.015625)"/>
       <path id="DejaVuSans-61" d="M 2194 1759 
Q 1497 1759 1228 1600 
Q 959 1441 959 1056 
Q 959 750 1161 570 
Q 1363 391 1709 391 
Q 2188 391 2477 730 
Q 2766 1069 2766 1631 
L 2766 1759 
L 2194 1759 
z
M 3341 1997 
L 3341 0 
L 2766 0 
L 2766 531 
Q 2569 213 2275 61 
Q 1981 -91 1556 -91 
Q 1019 -91 701 211 
Q 384 513 384 1019 
Q 384 1609 779 1909 
Q 1175 2209 1959 2209 
L 2766 2209 
L 2766 2266 
Q 2766 2663 2505 2880 
Q 2244 3097 1772 3097 
Q 1472 3097 1187 3025 
Q 903 2953 641 2809 
L 641 3341 
Q 956 3463 1253 3523 
Q 1550 3584 1831 3584 
Q 2591 3584 2966 3190 
Q 3341 2797 3341 1997 
z
" transform="scale(0.015625)"/>
       <path id="DejaVuSans-67" d="M 2906 1791 
Q 2906 2416 2648 2759 
Q 2391 3103 1925 3103 
Q 1463 3103 1205 2759 
Q 947 2416 947 1791 
Q 947 1169 1205 825 
Q 1463 481 1925 481 
Q 2391 481 2648 825 
Q 2906 1169 2906 1791 
z
M 3481 434 
Q 3481 -459 3084 -895 
Q 2688 -1331 1869 -1331 
Q 1566 -1331 1297 -1286 
Q 1028 -1241 775 -1147 
L 775 -588 
Q 1028 -725 1275 -790 
Q 1522 -856 1778 -856 
Q 2344 -856 2625 -561 
Q 2906 -266 2906 331 
L 2906 616 
Q 2728 306 2450 153 
Q 2172 0 1784 0 
Q 1141 0 747 490 
Q 353 981 353 1791 
Q 353 2603 747 3093 
Q 1141 3584 1784 3584 
Q 2172 3584 2450 3431 
Q 2728 3278 2906 2969 
L 2906 3500 
L 3481 3500 
L 3481 434 
z
" transform="scale(0.015625)"/>
       <path id="DejaVuSans-20" transform="scale(0.015625)"/>
       <path id="DejaVuSans-74" d="M 1172 4494 
L 1172 3500 
L 2356 3500 
L 2356 3053 
L 1172 3053 
L 1172 1153 
Q 1172 725 1289 603 
Q 1406 481 1766 481 
L 2356 481 
L 2356 0 
L 1766 0 
Q 1100 0 847 248 
Q 594 497 594 1153 
L 594 3053 
L 172 3053 
L 172 3500 
L 594 3500 
L 594 4494 
L 1172 4494 
z
" transform="scale(0.015625)"/>
       <path id="DejaVuSans-69" d="M 603 3500 
L 1178 3500 
L 1178 0 
L 603 0 
L 603 3500 
z
M 603 4863 
L 1178 4863 
L 1178 4134 
L 603 4134 
L 603 4863 
z
" transform="scale(0.015625)"/>
       <path id="DejaVuSans-6d" d="M 3328 2828 
Q 3544 3216 3844 3400 
Q 4144 3584 4550 3584 
Q 5097 3584 5394 3201 
Q 5691 2819 5691 2113 
L 5691 0 
L 5113 0 
L 5113 2094 
Q 5113 2597 4934 2840 
Q 4756 3084 4391 3084 
Q 3944 3084 3684 2787 
Q 3425 2491 3425 1978 
L 3425 0 
L 2847 0 
L 2847 2094 
Q 2847 2600 2669 2842 
Q 2491 3084 2119 3084 
Q 1678 3084 1418 2786 
Q 1159 2488 1159 1978 
L 1159 0 
L 581 0 
L 581 3500 
L 1159 3500 
L 1159 2956 
Q 1356 3278 1631 3431 
Q 1906 3584 2284 3584 
Q 2666 3584 2933 3390 
Q 3200 3197 3328 2828 
z
" transform="scale(0.015625)"/>
       <path id="DejaVuSans-28" d="M 1984 4856 
Q 1566 4138 1362 3434 
Q 1159 2731 1159 2009 
Q 1159 1288 1364 580 
Q 1569 -128 1984 -844 
L 1484 -844 
Q 1016 -109 783 600 
Q 550 1309 550 2009 
Q 550 2706 781 3412 
Q 1013 4119 1484 4856 
L 1984 4856 
z
" transform="scale(0.015625)"/>
       <path id="DejaVuSans-73" d="M 2834 3397 
L 2834 2853 
Q 2591 2978 2328 3040 
Q 2066 3103 1784 3103 
Q 1356 3103 1142 2972 
Q 928 2841 928 2578 
Q 928 2378 1081 2264 
Q 1234 2150 1697 2047 
L 1894 2003 
Q 2506 1872 2764 1633 
Q 3022 1394 3022 966 
Q 3022 478 2636 193 
Q 2250 -91 1575 -91 
Q 1294 -91 989 -36 
Q 684 19 347 128 
L 347 722 
Q 666 556 975 473 
Q 1284 391 1588 391 
Q 1994 391 2212 530 
Q 2431 669 2431 922 
Q 2431 1156 2273 1281 
Q 2116 1406 1581 1522 
L 1381 1569 
Q 847 1681 609 1914 
Q 372 2147 372 2553 
Q 372 3047 722 3315 
Q 1072 3584 1716 3584 
Q 2034 3584 2315 3537 
Q 2597 3491 2834 3397 
z
" transform="scale(0.015625)"/>
       <path id="DejaVuSans-29" d="M 513 4856 
L 1013 4856 
Q 1481 4119 1714 3412 
Q 1947 2706 1947 2009 
Q 1947 1309 1714 600 
Q 1481 -109 1013 -844 
L 513 -844 
Q 928 -128 1133 580 
Q 1338 1288 1338 2009 
Q 1338 2731 1133 3434 
Q 928 4138 513 4856 
z
" transform="scale(0.015625)"/>
      </defs>
      <use xlink:href="#DejaVuSans-41"/>
      <use xlink:href="#DejaVuSans-76" transform="translate(62.533203 0)"/>
      <use xlink:href="#DejaVuSans-65" transform="translate(121.712891 0)"/>
      <use xlink:href="#DejaVuSans-72" transform="translate(183.236328 0)"/>
      <use xlink:href="#DejaVuSans-61" transform="translate(224.349609 0)"/>
      <use xlink:href="#DejaVuSans-67" transform="translate(285.628906 0)"/>
      <use xlink:href="#DejaVuSans-65" transform="translate(349.105469 0)"/>
      <use xlink:href="#DejaVuSans-20" transform="translate(410.628906 0)"/>
      <use xlink:href="#DejaVuSans-74" transform="translate(442.416016 0)"/>
      <use xlink:href="#DejaVuSans-69" transform="translate(481.625 0)"/>
      <use xlink:href="#DejaVuSans-6d" transform="translate(509.408203 0)"/>
      <use xlink:href="#DejaVuSans-65" transform="translate(606.820312 0)"/>
      <use xlink:href="#DejaVuSans-20" transform="translate(668.34375 0)"/>
      <use xlink:href="#DejaVuSans-28" transform="translate(700.130859 0)"/>
      <use xlink:href="#DejaVuSans-6d" transform="translate(739.144531 0)"/>
      <use xlink:href="#DejaVuSans-73" transform="translate(836.556641 0)"/>
      <use xlink:href="#DejaVuSans-29" transform="translate(888.65625 0)"/>
     </g>
    </g>
   </g>
   <g id="line2d_15">
    <path d="M 115.363636 249.440199 
L 115.64624 292.792608 
L 115.928843 67.662592 
L 116.211446 164.212943 
L 116.494049 140.38475 
L 116.776652 184.063846 
L 117.059256 118.984775 
L 117.341859 214.476015 
L 117.624462 182.109322 
L 117.907065 205.914097 
L 118.189668 196.8242 
L 118.472271 253.937484 
L 118.754875 247.30169 
L 119.037478 283.357461 
L 119.320081 244.231773 
L 119.602684 268.691201 
L 119.885287 271.743755 
L 120.167891 288.117587 
L 120.450494 224.040018 
L 120.733097 296.526637 
L 121.0157 214.57685 
L 121.580907 305.140269 
L 121.86351 322.574228 
L 122.146113 310.454762 
L 122.428716 322.461205 
L 122.711319 280.065016 
L 122.993923 278.410997 
L 123.276526 240.232927 
L 123.559129 313.799549 
L 123.841732 292.707766 
L 124.124335 296.220821 
L 124.406938 151.865305 
L 124.689542 277.596302 
L 125.254748 309.365253 
L 125.537351 286.186207 
L 125.819954 302.558794 
L 126.102558 302.53388 
L 126.667764 288.812393 
L 126.950367 301.477134 
L 127.23297 276.417794 
L 127.798177 322.805244 
L 128.08078 288.093004 
L 128.363383 300.616939 
L 128.645986 289.129062 
L 128.92859 297.157746 
L 129.211193 243.651167 
L 129.493796 282.123538 
L 129.776399 280.123698 
L 130.059002 285.273545 
L 130.341605 277.470998 
L 130.624209 301.191343 
L 130.906812 279.209562 
L 131.189415 296.138549 
L 131.472018 236.931777 
L 131.754621 271.002672 
L 132.037225 261.643262 
L 132.319828 273.330707 
L 132.602431 274.835502 
L 132.885034 297.017216 
L 133.167637 268.641681 
L 133.450241 285.60479 
L 133.732844 265.571764 
L 134.015447 284.418856 
L 134.29805 283.062988 
L 134.580653 288.910715 
L 134.863257 280.26881 
L 135.14586 301.596977 
L 135.428463 279.463208 
L 135.711066 232.569883 
L 135.993669 278.563077 
L 136.276272 293.293925 
L 136.558876 270.654258 
L 136.841479 289.153976 
L 137.124082 274.157911 
L 137.406685 292.318274 
L 137.689288 372.560397 
L 137.971892 375.524922 
L 138.254495 372.95912 
L 138.537098 380.798119 
L 138.819701 380.844978 
L 139.102304 378.886936 
L 139.384908 274.196191 
L 139.667511 276.707023 
L 139.950114 285.007448 
L 140.232717 299.598999 
L 140.51532 280.354725 
L 140.797924 303.565483 
L 141.080527 227.493911 
L 141.645733 378.596747 
L 141.928336 382.141547 
L 142.210939 378.463093 
L 142.493543 381.549791 
L 142.776146 376.925478 
L 143.058749 381.931345 
L 143.341352 378.012999 
L 143.623955 382.57109 
L 143.906559 381.435557 
L 144.471765 383.168558 
L 144.754368 382.929785 
L 145.036971 383.200555 
L 145.602178 382.887507 
L 145.884781 383.253057 
L 146.732591 382.651031 
L 147.015194 383.094305 
L 147.297797 383.247345 
L 147.5804 382.808709 
L 147.863003 382.685336 
L 148.145606 287.584136 
L 148.42821 329.860619 
L 148.710813 333.830439 
L 148.993416 332.219589 
L 149.276019 382.456845 
L 149.558622 382.518554 
L 150.123829 383.210836 
L 150.406432 333.182731 
L 150.689035 336.248856 
L 150.971638 331.963705 
L 151.254242 333.760688 
L 151.536845 382.948051 
L 151.819448 382.839518 
L 152.102051 382.977787 
L 152.384654 383.24281 
L 152.667258 334.770518 
L 152.949861 328.168686 
L 153.232464 330.262678 
L 153.515067 330.319807 
L 153.79767 383.046304 
L 154.080273 383.159419 
L 154.362877 383.134299 
L 154.64548 381.584084 
L 154.928083 330.712772 
L 155.210686 328.37208 
L 155.493289 335.618192 
L 155.775893 329.26546 
L 156.058496 380.064702 
L 156.341099 383.214228 
L 156.623702 383.024588 
L 156.906305 383.298785 
L 157.188909 335.289232 
L 157.471512 336.103744 
L 157.754115 336.069474 
L 158.036718 335.173833 
L 158.319321 333.56304 
L 158.601925 333.549354 
L 158.884528 332.585195 
L 159.167131 330.314141 
L 159.449734 383.12516 
L 159.732337 383.154872 
L 160.01494 383.353617 
L 160.297544 383.299916 
L 160.580147 338.730079 
L 160.86275 273.301006 
L 161.145353 332.491638 
L 161.427956 302.524901 
L 161.71056 332.869673 
L 161.993163 332.746311 
L 162.275766 330.26502 
L 162.558369 330.382704 
L 162.840972 383.182254 
L 163.123576 383.346763 
L 163.406179 383.335351 
L 163.688782 383.48726 
L 163.971385 337.035918 
L 164.253988 332.922255 
L 164.536592 335.476599 
L 164.819195 330.104989 
L 165.101798 334.760271 
L 165.384401 328.381287 
L 165.667004 332.086004 
L 165.949607 328.98562 
L 166.232211 382.914958 
L 166.514814 383.457559 
L 166.797417 383.205113 
L 167.08002 381.842265 
L 167.362623 338.680935 
L 167.92783 336.208771 
L 168.210433 335.411451 
L 168.775639 336.228248 
L 169.058243 331.361862 
L 169.340846 330.357675 
L 169.623449 382.934389 
L 169.906052 383.317062 
L 170.188655 382.911542 
L 170.471259 383.454166 
L 170.753862 339.314992 
L 171.036465 335.82964 
L 171.319068 336.461389 
L 171.601671 334.890543 
L 171.884274 326.021164 
L 172.166878 332.091772 
L 172.449481 333.195229 
L 172.732084 329.106754 
L 173.014687 330.114322 
L 173.29729 330.32216 
L 173.579894 256.782805 
L 174.1451 378.331712 
L 174.427703 381.945098 
L 174.710306 380.761576 
L 174.99291 381.345301 
L 175.275513 383.363875 
L 175.840719 383.238229 
L 176.123322 383.54898 
L 176.405926 306.784064 
L 176.688529 308.490505 
L 176.971132 333.079955 
L 177.253735 336.730901 
L 177.536338 331.9981 
L 177.818942 334.766017 
L 178.101545 332.403632 
L 178.384148 331.738697 
L 178.666751 328.847443 
L 178.949354 329.200437 
L 179.231957 323.992228 
L 179.514561 322.86123 
L 179.797164 379.282209 
L 180.079767 381.854808 
L 180.36237 381.781709 
L 180.644973 381.112274 
L 180.927577 383.338778 
L 181.21018 382.736707 
L 181.492783 383.194809 
L 181.775386 383.16288 
L 182.057989 325.349456 
L 182.340593 334.02113 
L 182.623196 329.121513 
L 182.905799 332.732489 
L 183.188402 329.405968 
L 183.471005 316.869421 
L 183.753609 316.256166 
L 184.318815 323.957935 
L 184.884021 318.924756 
L 185.166624 327.718569 
L 185.449228 380.872394 
L 186.014434 382.084441 
L 186.297037 381.841123 
L 186.862244 383.52153 
L 187.144847 382.480834 
L 187.42745 383.186824 
L 187.710053 330.630626 
L 187.992656 332.538302 
L 188.27526 330.910431 
L 188.557863 333.982245 
L 188.840466 317.644751 
L 189.123069 317.984254 
L 189.405672 239.898769 
L 189.688276 308.62946 
L 189.970879 257.702047 
L 190.253482 316.565432 
L 190.536085 320.158165 
L 190.818688 318.78964 
L 191.101291 380.854071 
L 191.666498 381.702888 
L 191.949101 381.315577 
L 192.231704 383.119403 
L 192.514307 383.337636 
L 192.796911 383.143415 
L 193.079514 383.170797 
L 193.362117 329.503969 
L 193.64472 327.673767 
L 193.927323 327.328825 
L 194.209927 321.617095 
L 194.49253 318.235604 
L 194.775133 304.683447 
L 195.057736 304.773726 
L 195.340339 302.313031 
L 195.622943 305.715084 
L 195.905546 300.125538 
L 196.188149 301.252949 
L 196.470752 298.768345 
L 196.753355 382.593937 
L 197.035958 383.074851 
L 197.318562 382.639608 
L 197.601165 380.594782 
L 197.883768 307.502974 
L 198.166371 301.038281 
L 198.448974 305.508411 
L 199.296784 296.63324 
L 199.579387 304.649348 
L 199.86199 306.493156 
L 200.144594 305.482138 
L 200.427197 300.284278 
L 200.7098 301.18217 
L 200.992403 299.457177 
L 201.275006 382.462568 
L 201.55761 383.138845 
L 201.840213 382.470541 
L 202.122816 383.482713 
L 202.405419 309.793414 
L 202.688022 308.812143 
L 202.970625 305.335918 
L 203.535832 295.690706 
L 203.818435 302.875154 
L 204.101038 304.418526 
L 204.383641 304.132952 
L 204.666245 300.214595 
L 204.948848 300.147186 
L 205.231451 299.516579 
L 205.514054 295.967175 
L 205.796657 380.629064 
L 206.079261 382.214657 
L 206.644467 383.239394 
L 206.92707 299.345273 
L 207.209673 297.638547 
L 207.492277 289.121088 
L 208.340086 296.874354 
L 208.905292 288.124807 
L 209.187896 289.654505 
L 209.470499 287.804985 
L 209.753102 287.840443 
L 210.035705 282.673347 
L 210.318308 279.74323 
L 210.600912 287.431474 
L 211.166118 283.013811 
L 211.448721 283.32559 
L 211.731324 288.691476 
L 212.013928 287.469148 
L 212.296531 292.303617 
L 212.579134 382.856687 
L 212.861737 383.283911 
L 213.14434 382.371158 
L 213.426944 383.249675 
L 213.709547 300.792677 
L 213.99215 299.980472 
L 214.274753 303.779078 
L 214.557356 304.947727 
L 214.839959 300.37819 
L 215.122563 304.732944 
L 215.405166 297.45142 
L 215.687769 300.806591 
L 215.970372 300.4627 
L 216.252975 298.168787 
L 216.535579 274.775027 
L 216.818182 295.773377 
L 217.383388 298.536678 
L 217.665991 297.34974 
L 217.948595 296.932785 
L 218.231198 296.27587 
L 218.513801 296.834544 
L 218.796404 296.72031 
L 219.079007 298.683995 
L 219.361611 382.812124 
L 219.926817 383.036035 
L 220.20942 383.512391 
L 220.492023 307.612822 
L 220.774626 306.489888 
L 221.05723 306.610988 
L 221.622436 303.234147 
L 221.905039 304.025824 
L 222.187642 303.937818 
L 222.752849 302.337431 
L 223.035452 298.024921 
L 223.318055 300.136094 
L 223.600658 277.683417 
L 223.883262 301.584537 
L 224.165865 261.41107 
L 224.448468 321.585201 
L 224.731071 319.914035 
L 225.013674 325.95372 
L 225.578881 324.114493 
L 225.861484 323.924853 
L 226.144087 383.430154 
L 226.42669 383.737432 
L 226.709293 383.639214 
L 226.991897 383.696331 
L 227.2745 334.663252 
L 227.557103 334.020079 
L 227.839706 334.18685 
L 228.122309 304.880341 
L 228.404913 328.262621 
L 228.687516 325.42156 
L 228.970119 324.918862 
L 229.252722 329.428883 
L 229.535325 325.754998 
L 229.817929 323.785476 
L 230.100532 325.862401 
L 230.665738 324.340688 
L 230.948341 321.937156 
L 231.230945 323.357166 
L 231.513548 323.365129 
L 231.796151 323.535292 
L 232.078754 324.232177 
L 232.64396 320.666712 
L 232.926564 383.422157 
L 233.49177 383.453001 
L 233.774373 383.861982 
L 234.056976 329.75782 
L 234.33958 334.097724 
L 234.622183 320.830113 
L 234.904786 324.534875 
L 235.187389 307.423798 
L 235.469992 333.159736 
L 235.752596 329.137415 
L 236.035199 333.708083 
L 236.317802 330.211238 
L 236.600405 321.574805 
L 236.883008 321.636617 
L 237.165612 327.531385 
L 237.448215 325.319823 
L 237.730818 327.808986 
L 238.013421 323.556025 
L 238.578628 330.76885 
L 238.861231 331.041869 
L 239.143834 330.428375 
L 239.426437 331.1389 
L 239.70904 326.398114 
L 239.991643 326.60827 
L 240.274247 321.839988 
L 240.55685 326.17875 
L 240.839453 383.230244 
L 241.122056 383.796846 
L 241.404659 383.089748 
L 241.687263 383.662072 
L 241.969866 341.043355 
L 242.252469 333.849665 
L 242.535072 334.058793 
L 242.817675 336.974174 
L 243.100279 292.134677 
L 243.382882 329.943862 
L 243.948088 329.54515 
L 244.230691 332.62857 
L 244.513295 332.919936 
L 244.795898 332.096262 
L 245.078501 332.576022 
L 245.361104 331.125214 
L 245.643707 327.247993 
L 245.92631 330.587149 
L 246.208914 328.572035 
L 246.491517 331.63134 
L 246.77412 329.202585 
L 247.056723 321.338466 
L 247.339326 332.636624 
L 247.62193 325.075168 
L 247.904533 324.473177 
L 248.469739 319.098197 
L 248.752342 383.329616 
L 249.317549 383.678053 
L 249.600152 383.7009 
L 249.882755 330.908249 
L 250.165358 333.804051 
L 250.447962 332.621739 
L 250.730565 335.233223 
L 251.013168 330.895604 
L 251.295771 332.618243 
L 251.578374 331.860917 
L 251.860977 333.235233 
L 252.143581 331.068097 
L 252.426184 330.799681 
L 252.708787 331.090967 
L 252.99139 330.934478 
L 253.273993 328.145862 
L 253.556597 328.005274 
L 253.8392 297.190452 
L 254.121803 327.145114 
L 254.404406 301.067822 
L 254.687009 300.112516 
L 254.969613 327.325661 
L 255.252216 330.565456 
L 255.534819 322.06832 
L 255.817422 322.178064 
L 256.100025 320.584349 
L 256.382629 326.635652 
L 256.665232 383.338732 
L 257.513041 383.967066 
L 257.795644 341.612264 
L 258.078248 339.409761 
L 258.360851 338.66717 
L 258.643454 337.4551 
L 258.926057 321.805513 
L 259.20866 329.628633 
L 259.491264 328.487354 
L 259.773867 333.079749 
L 260.05647 330.47745 
L 260.339073 328.943182 
L 260.90428 327.519813 
L 261.186883 324.31205 
L 261.469486 322.722938 
L 261.752089 322.914977 
L 262.034692 326.900687 
L 262.317296 329.122587 
L 262.599899 328.48171 
L 262.882502 328.424639 
L 263.165105 330.341545 
L 263.447708 327.648909 
L 263.730311 327.386251 
L 264.012915 326.824207 
L 264.295518 298.946299 
L 264.578121 383.590105 
L 265.425931 383.857412 
L 265.708534 341.162181 
L 265.991137 340.304237 
L 266.27374 337.894982 
L 266.556343 334.110324 
L 266.838947 335.168144 
L 267.12155 332.291716 
L 267.404153 334.947752 
L 267.686756 329.089585 
L 267.969359 329.916663 
L 268.251963 331.854165 
L 268.534566 327.386273 
L 268.817169 328.326455 
L 269.099772 331.3149 
L 269.382375 326.101036 
L 269.664978 330.15307 
L 269.947582 328.085375 
L 270.230185 328.085352 
L 270.512788 330.733391 
L 270.795391 331.570773 
L 271.077994 333.855536 
L 271.360598 326.226705 
L 271.643201 325.071752 
L 271.925804 320.228167 
L 272.49101 319.179475 
L 272.773614 321.33392 
L 273.056217 313.026401 
L 273.33882 320.783163 
L 273.621423 383.514653 
L 273.904026 383.820835 
L 274.18663 383.823131 
L 274.469233 383.944208 
L 274.751836 337.235759 
L 275.034439 338.358784 
L 275.317042 336.574378 
L 275.599645 330.640976 
L 275.882249 327.265117 
L 276.164852 326.785379 
L 276.447455 327.160044 
L 276.730058 325.572144 
L 277.012661 328.817719 
L 277.577868 325.581317 
L 277.860471 326.267887 
L 278.143074 323.504471 
L 278.708281 325.284262 
L 278.990884 316.314243 
L 279.273487 293.482057 
L 279.55609 319.198838 
L 279.838693 317.724063 
L 280.121297 319.497069 
L 280.4039 311.454653 
L 280.686503 317.998202 
L 280.969106 318.745305 
L 281.251709 317.426997 
L 281.534312 313.202424 
L 281.816916 313.700554 
L 282.099519 315.711166 
L 282.382122 315.282754 
L 282.664725 383.304485 
L 283.229932 383.871121 
L 283.512535 383.92368 
L 284.077741 276.649552 
L 284.360344 335.197822 
L 284.642948 263.253461 
L 284.925551 307.52437 
L 285.208154 331.022335 
L 285.77336 323.766056 
L 286.055964 328.448731 
L 286.62117 331.200723 
L 286.903773 331.170931 
L 287.186376 330.557471 
L 287.468979 329.257417 
L 287.751583 326.699669 
L 288.034186 328.768621 
L 288.316789 320.188334 
L 288.599392 294.352521 
L 288.881995 327.065093 
L 289.164599 331.70092 
L 289.447202 326.224364 
L 289.729805 324.580477 
L 290.012408 303.662319 
L 290.295011 323.600291 
L 290.577615 322.344801 
L 290.860218 320.081845 
L 291.142821 316.886556 
L 291.425424 316.419258 
L 291.708027 383.588939 
L 291.990631 383.518091 
L 292.555837 383.985355 
L 292.83844 336.175609 
L 293.121043 332.892325 
L 293.403646 336.755964 
L 293.968853 325.425776 
L 294.251456 330.04922 
L 294.534059 308.914737 
L 294.816662 331.827789 
L 295.099266 327.923151 
L 295.381869 325.683042 
L 295.664472 328.416746 
L 295.947075 326.896163 
L 296.229678 322.306155 
L 296.794885 322.106177 
L 297.077488 323.819746 
L 297.360091 324.460611 
L 297.642694 327.074277 
L 297.925298 326.314654 
L 298.207901 328.025928 
L 298.773107 322.203127 
L 299.05571 325.409931 
L 299.338313 325.445332 
L 299.90352 322.824767 
L 300.186123 323.54788 
L 300.468726 323.160638 
L 300.751329 383.315931 
L 301.033933 383.846 
L 301.599139 384.005905 
L 301.881742 341.591736 
L 302.446949 338.926619 
L 302.729552 340.419602 
L 303.012155 337.156983 
L 303.294758 338.086906 
L 303.577361 336.396195 
L 303.859965 337.749916 
L 304.142568 334.552365 
L 304.425171 335.40687 
L 304.707774 333.178105 
L 304.990377 331.867862 
L 305.272981 328.475028 
L 305.555584 329.398063 
L 305.838187 328.720711 
L 306.12079 325.307383 
L 306.403393 304.541773 
L 306.685996 302.30468 
L 306.9686 321.922146 
L 307.251203 323.703125 
L 307.533806 317.076184 
L 307.816409 317.860984 
L 308.099012 318.1546 
L 308.381616 317.4726 
L 308.664219 313.341676 
L 308.946822 315.262089 
L 309.229425 313.378391 
L 309.512028 315.539701 
L 309.794632 311.188476 
L 310.077235 308.663707 
L 310.359838 309.286386 
L 310.642441 310.505299 
L 310.925044 301.011059 
L 311.207648 305.339551 
L 311.772854 242.048301 
L 312.055457 295.970648 
L 312.33806 302.442333 
L 312.620663 291.202446 
L 312.903267 298.946596 
L 313.18587 261.728058 
L 313.468473 276.771954 
L 313.751076 284.276315 
L 314.033679 283.717619 
L 314.316283 383.25766 
L 315.164092 383.582051 
L 315.446695 306.545817 
L 315.729299 311.027555 
L 316.011902 312.835938 
L 316.294505 306.942461 
L 316.577108 309.569938 
L 316.859711 311.11098 
L 317.142315 311.876326 
L 317.424918 310.66196 
L 317.707521 301.854084 
L 317.990124 297.411243 
L 318.55533 306.62826 
L 318.837934 304.28983 
L 319.120537 304.105879 
L 319.40314 303.259449 
L 319.685743 306.837332 
L 319.968346 279.706572 
L 320.25095 297.821607 
L 320.533553 296.537592 
L 320.816156 302.635594 
L 321.098759 297.358936 
L 321.663966 293.383473 
L 321.946569 293.881602 
L 322.229172 283.409438 
L 322.511775 284.73805 
L 322.794378 298.841569 
L 323.076982 297.750633 
L 323.359585 300.542527 
L 323.642188 301.389048 
L 323.924791 300.845293 
L 324.207394 294.969009 
L 324.489997 286.514356 
L 324.772601 298.759344 
L 325.055204 270.623552 
L 325.337807 290.68733 
L 325.62041 276.562026 
L 325.903013 297.238807 
L 326.185617 284.592687 
L 326.46822 294.078965 
L 326.750823 287.903489 
L 327.033426 309.726233 
L 327.316029 313.043742 
L 327.598633 306.202155 
L 327.881236 383.591213 
L 328.729045 383.825415 
L 329.011649 331.55598 
L 329.576855 332.147759 
L 329.859458 328.931987 
L 330.142061 329.356915 
L 330.424664 326.699726 
L 330.707268 325.477421 
L 330.989871 328.968496 
L 331.272474 327.82724 
L 331.555077 326.099974 
L 331.83768 320.385788 
L 332.120284 318.620847 
L 332.402887 317.976544 
L 332.68549 319.301694 
L 332.968093 322.46381 
L 333.250696 321.595584 
L 333.5333 327.724532 
L 333.815903 301.908299 
L 334.098506 328.582328 
L 334.381109 333.261496 
L 334.663712 328.657722 
L 334.946316 300.193965 
L 335.228919 327.639793 
L 335.511522 326.597932 
L 335.794125 325.022575 
L 336.076728 326.265602 
L 336.359331 324.814737 
L 336.641935 324.379539 
L 336.924538 321.044907 
L 337.207141 315.880176 
L 337.489744 318.427643 
L 337.772347 314.937744 
L 338.054951 310.042593 
L 338.337554 312.848276 
L 338.620157 297.009174 
L 338.90276 301.011036 
L 339.185363 292.909116 
L 339.467967 307.970272 
L 339.75057 298.017884 
L 340.033173 253.842464 
L 340.598379 312.074865 
L 340.880983 310.121392 
L 341.163586 310.925635 
L 341.446189 383.652899 
L 342.293998 384.041329 
L 342.576602 332.36582 
L 342.859205 331.103453 
L 343.141808 332.612509 
L 343.424411 332.906113 
L 343.989618 329.242499 
L 344.272221 324.715239 
L 344.554824 322.998197 
L 344.837427 327.595231 
L 345.12003 316.081056 
L 345.402634 321.20014 
L 345.96784 323.356938 
L 346.250443 329.934666 
L 346.533046 332.52673 
L 346.81565 331.722511 
L 347.098253 331.424382 
L 347.380856 333.3344 
L 347.663459 326.980491 
L 347.946062 327.862436 
L 348.228665 329.268681 
L 348.511269 327.984643 
L 348.793872 327.809808 
L 349.076475 324.683082 
L 349.359078 328.00861 
L 349.641681 327.497983 
L 349.924285 327.91608 
L 350.489491 322.364106 
L 350.772094 268.166764 
L 351.054697 320.862955 
L 351.337301 323.527067 
L 351.619904 322.513753 
L 351.902507 320.379813 
L 352.18511 296.802478 
L 352.467713 313.653398 
L 352.750317 281.759337 
L 353.03292 307.529111 
L 353.315523 287.428812 
L 353.598126 303.231371 
L 353.880729 281.681429 
L 354.163332 311.38232 
L 354.445936 319.874887 
L 354.728539 312.258473 
L 355.011142 383.489544 
L 355.293745 383.690608 
L 355.576348 383.49641 
L 355.858952 383.962508 
L 356.141555 324.294915 
L 356.424158 334.770426 
L 356.706761 336.063534 
L 356.989364 334.706375 
L 357.271968 334.870907 
L 357.554571 336.088665 
L 357.837174 332.861471 
L 358.119777 336.174352 
L 358.40238 335.231898 
L 358.684984 335.613474 
L 359.25019 332.085844 
L 359.532793 329.609076 
L 359.815396 329.920992 
L 360.097999 330.549246 
L 360.663206 332.881999 
L 360.945809 331.777331 
L 361.228412 331.481476 
L 361.511015 332.998575 
L 361.793619 328.484989 
L 362.076222 328.804845 
L 362.358825 328.45643 
L 362.641428 328.338758 
L 362.924031 302.338654 
L 363.206635 324.833951 
L 363.489238 322.309205 
L 363.771841 324.39303 
L 364.054444 324.769969 
L 364.337047 321.698052 
L 364.619651 322.963824 
L 364.902254 322.632602 
L 365.184857 322.121918 
L 365.46746 322.268161 
L 365.750063 322.835916 
L 366.032666 322.979874 
L 366.31527 383.806019 
L 366.597873 383.544354 
L 366.880476 382.996064 
L 367.163079 384.076742 
L 367.445682 341.733169 
L 367.728286 340.13388 
L 368.293492 341.823483 
L 368.858698 336.177768 
L 369.141302 336.800401 
L 369.423905 334.80007 
L 369.706508 335.888767 
L 369.989111 335.811054 
L 370.271714 302.9248 
L 370.554318 334.17979 
L 370.836921 332.85119 
L 371.119524 333.575446 
L 371.402127 332.717536 
L 371.967334 333.815326 
L 372.249937 333.322954 
L 372.53254 332.137226 
L 372.815143 334.10893 
L 373.097746 329.756449 
L 373.380349 329.133862 
L 373.662953 329.309782 
L 373.945556 326.452661 
L 374.228159 326.028886 
L 374.510762 326.628627 
L 374.793365 300.523918 
L 375.075969 326.016275 
L 375.641175 325.242921 
L 375.923778 324.769992 
L 376.206381 322.770803 
L 376.488985 315.329201 
L 377.054191 311.26571 
L 377.336794 320.398113 
L 377.619397 383.767122 
L 377.902001 383.762575 
L 378.467207 384.084738 
L 378.74981 337.931411 
L 379.032413 341.639497 
L 379.315016 341.311668 
L 379.59762 340.798722 
L 380.162826 337.996444 
L 381.010636 335.421515 
L 381.293239 335.950454 
L 381.575842 334.096399 
L 381.858445 334.545316 
L 382.423652 330.500171 
L 382.706255 331.737395 
L 382.988858 330.092423 
L 383.271461 333.896466 
L 383.554064 333.626908 
L 383.836668 331.962448 
L 384.119271 333.504598 
L 384.401874 331.221 
L 384.684477 330.187158 
L 384.96708 327.917257 
L 385.249683 328.650651 
L 385.532287 328.041772 
L 385.81489 328.532956 
L 386.097493 325.25094 
L 386.380096 325.536514 
L 386.662699 323.567072 
L 386.945303 325.27718 
L 387.227906 322.29785 
L 387.510509 323.322553 
L 387.793112 323.397971 
L 388.075715 323.022152 
L 388.358319 323.79779 
L 388.640922 323.639016 
L 388.923525 383.785445 
L 389.488731 384.020779 
L 389.771335 384.105301 
L 390.053938 341.993669 
L 390.336541 342.94412 
L 390.901747 340.087055 
L 391.18435 339.106857 
L 391.466954 339.154836 
L 391.749557 337.91423 
L 392.03216 334.23693 
L 392.314763 335.774567 
L 392.87997 332.654753 
L 393.162573 332.657014 
L 393.445176 323.067846 
L 393.727779 325.118394 
L 394.010382 329.475479 
L 394.292986 331.566021 
L 394.575589 331.86873 
L 394.858192 329.388581 
L 395.140795 329.036729 
L 395.423398 332.85464 
L 395.706002 329.798716 
L 395.988605 330.207686 
L 396.271208 329.000196 
L 396.553811 327.268361 
L 397.119017 327.983467 
L 397.401621 327.256915 
L 397.684224 317.443744 
L 397.966827 302.084437 
L 398.24943 320.85264 
L 398.532033 325.346885 
L 398.814637 325.288603 
L 399.09724 323.755524 
L 399.662446 318.94156 
L 399.945049 321.754073 
L 400.227653 383.379891 
L 400.510256 383.937376 
L 401.075462 384.114428 
L 401.358065 339.259908 
L 401.923272 334.217442 
L 402.205875 339.602668 
L 402.488478 336.983142 
L 402.771081 339.729445 
L 403.901494 335.413564 
L 404.184097 335.855639 
L 404.4667 334.811528 
L 404.749304 324.596378 
L 405.031907 323.154721 
L 405.31451 309.056319 
L 405.597113 333.759385 
L 405.879716 311.104994 
L 406.16232 333.501216 
L 406.444923 331.062203 
L 406.727526 335.273056 
L 407.010129 329.705078 
L 407.292732 326.697167 
L 407.575336 330.273999 
L 407.857939 330.46132 
L 408.140542 328.851715 
L 408.423145 328.150306 
L 408.705748 326.85023 
L 408.988351 326.139648 
L 409.553558 324.071987 
L 409.836161 322.388084 
L 410.118764 321.984792 
L 410.401367 382.215788 
L 410.683971 382.956048 
L 410.966574 383.120568 
L 411.249177 382.929763 
L 411.814383 308.593522 
L 412.096987 333.096667 
L 412.37959 333.924956 
L 412.662193 332.70144 
L 412.944796 334.72006 
L 413.227399 332.693455 
L 413.510003 333.238341 
L 413.792606 329.979206 
L 414.075209 331.324896 
L 414.357812 324.552832 
L 414.640415 328.26213 
L 414.923018 323.684619 
L 415.205622 324.148398 
L 415.488225 301.069992 
L 415.770828 328.926984 
L 416.053431 331.089551 
L 416.336034 330.967331 
L 416.618638 329.336011 
L 416.901241 331.751058 
L 417.183844 326.803337 
L 417.466447 326.663937 
L 418.031654 325.600405 
L 418.314257 323.666341 
L 418.59686 320.230121 
L 418.879463 319.754895 
L 419.162066 322.324147 
L 419.44467 322.07627 
L 419.727273 322.998208 
L 420.009876 321.919781 
L 420.292479 321.450267 
L 420.575082 382.354034 
L 420.857685 383.080575 
L 421.140289 383.132003 
L 421.422892 382.872657 
L 421.705495 339.983079 
L 421.988098 338.006783 
L 422.270701 338.763024 
L 422.553305 335.143983 
L 422.835908 336.368642 
L 423.118511 334.222068 
L 423.401114 335.199958 
L 423.966321 330.22947 
L 424.248924 332.104133 
L 424.531527 332.970016 
L 424.81413 330.87262 
L 425.096733 330.083228 
L 425.66194 331.863087 
L 425.944543 334.276946 
L 426.227146 333.574326 
L 426.509749 332.511914 
L 427.357559 327.078835 
L 427.640162 328.916851 
L 427.922765 326.557847 
L 428.205368 320.254293 
L 428.487972 318.957621 
L 428.770575 323.757831 
L 429.053178 325.918079 
L 429.335781 325.519345 
L 429.618384 324.705975 
L 429.900988 323.401398 
L 430.183591 325.109278 
L 430.466194 323.401455 
L 430.748797 382.598484 
L 431.314004 383.028015 
L 431.596607 382.88753 
L 431.87921 341.088923 
L 432.161813 341.311691 
L 432.444416 341.76632 
L 433.009623 333.605158 
L 433.292226 333.351524 
L 433.574829 332.145188 
L 433.857432 312.717283 
L 434.140035 334.976025 
L 434.422639 337.060844 
L 434.705242 335.976716 
L 434.987845 335.631729 
L 435.270448 333.257886 
L 435.553051 333.123055 
L 435.835655 333.445253 
L 436.118258 331.939578 
L 436.400861 333.456676 
L 436.683464 331.660835 
L 436.966067 332.252568 
L 437.248671 333.163072 
L 437.531274 329.010489 
L 437.813877 329.854691 
L 438.09648 330.133422 
L 438.379083 328.18116 
L 438.661687 327.500256 
L 438.94429 327.293458 
L 439.226893 325.392499 
L 439.509496 325.465678 
L 439.792099 301.268668 
L 440.074702 323.987499 
L 440.357306 324.85336 
L 440.639909 320.518059 
L 440.922512 382.669332 
L 441.205115 383.125149 
L 441.770322 383.033739 
L 442.052925 342.251849 
L 442.335528 342.917891 
L 442.618131 341.091207 
L 442.900734 341.107177 
L 443.183338 338.493386 
L 443.465941 337.245915 
L 443.748544 338.725315 
L 444.031147 337.108879 
L 444.31375 336.749019 
L 444.596354 334.48138 
L 444.878957 333.446327 
L 445.16156 335.061689 
L 445.444163 333.06595 
L 445.726766 333.261302 
L 446.009369 332.974585 
L 446.291973 334.54992 
L 446.574576 333.707991 
L 446.857179 333.675983 
L 447.139782 331.899596 
L 447.422385 334.31799 
L 447.704989 330.61669 
L 447.987592 330.203162 
L 448.270195 326.770289 
L 448.552798 329.789623 
L 448.835401 328.756912 
L 449.118005 328.543283 
L 449.400608 327.312935 
L 449.683211 327.647596 
L 449.965814 324.847705 
L 450.248417 324.395292 
L 450.813624 322.095679 
L 451.096227 322.542334 
L 451.37883 322.144765 
L 451.661433 323.744146 
L 451.944036 321.265208 
L 452.22664 383.848274 
L 452.509243 383.778557 
L 453.074449 384.112155 
L 453.357052 336.914647 
L 453.639656 340.791903 
L 453.922259 320.739354 
L 454.204862 341.331088 
L 454.487465 338.961746 
L 455.052672 336.931759 
L 455.335275 337.211679 
L 456.183084 334.693821 
L 456.465688 332.314186 
L 456.748291 330.881713 
L 457.313497 334.350022 
L 457.5961 333.921609 
L 458.161307 333.605146 
L 458.44391 324.332326 
L 458.726513 330.426981 
L 459.009116 329.912973 
L 459.291719 327.395127 
L 459.574323 329.7656 
L 459.856926 328.909963 
L 460.139529 325.568465 
L 460.422132 326.204807 
L 460.704735 327.392853 
L 461.269942 323.158011 
L 461.552545 322.268127 
L 461.835148 321.958575 
L 462.117751 323.52364 
L 462.400355 322.423519 
L 462.682958 322.986716 
L 463.248164 323.208319 
L 463.530767 383.808292 
L 464.095974 384.023041 
L 464.378577 384.055038 
L 464.66118 342.797911 
L 464.943783 341.854269 
L 465.226386 340.162427 
L 465.50899 339.640354 
L 465.791593 340.15443 
L 466.356799 336.549052 
L 466.639402 336.19263 
L 466.922006 336.106954 
L 467.204609 332.63868 
L 467.487212 333.243013 
L 467.769815 307.860333 
L 468.052418 329.577136 
L 468.335022 327.47284 
L 468.617625 331.615096 
L 468.900228 328.759174 
L 469.182831 331.427764 
L 469.465434 327.369972 
L 469.748037 329.760984 
L 470.030641 330.650926 
L 470.313244 327.581351 
L 470.595847 323.0987 
L 470.87845 326.853645 
L 471.443657 323.698361 
L 471.72626 293.914719 
L 472.008863 325.105817 
L 472.291466 323.539633 
L 472.574069 323.038088 
L 472.856673 321.662686 
L 473.139276 322.909037 
L 473.421879 316.214687 
L 473.704482 318.220685 
L 473.987085 283.050069 
L 474.269689 318.122466 
L 474.552292 296.717808 
L 474.834895 383.526099 
L 475.117498 383.841385 
L 475.682704 384.105301 
L 475.965308 342.339798 
L 476.247911 337.458344 
L 476.530514 337.10993 
L 476.813117 338.335685 
L 477.09572 331.80356 
L 477.378324 335.383829 
L 477.660927 334.474457 
L 477.94353 335.548338 
L 478.226133 335.871621 
L 478.508736 333.071662 
L 478.79134 334.372823 
L 479.639149 329.106389 
L 479.921752 328.257629 
L 480.204356 325.398222 
L 480.486959 328.024545 
L 480.769562 329.134958 
L 481.052165 329.185256 
L 481.899975 314.782031 
L 482.182578 324.61798 
L 482.465181 309.869963 
L 482.747784 316.990383 
L 483.030387 320.933826 
L 483.312991 322.970689 
L 483.595594 319.928508 
L 483.878197 319.817713 
L 484.1608 320.336313 
L 484.443403 317.097695 
L 484.726007 315.38408 
L 485.00861 316.202053 
L 485.573816 318.9849 
L 485.856419 287.248231 
L 486.139023 383.346774 
L 486.421626 382.500231 
L 486.704229 383.729447 
L 486.986832 383.986474 
L 487.269435 331.538365 
L 487.552038 334.514382 
L 487.834642 336.22 
L 488.117245 333.794729 
L 488.399848 333.42918 
L 488.682451 335.107337 
L 488.965054 333.872409 
L 489.247658 336.278294 
L 489.530261 336.838099 
L 490.095467 334.00957 
L 490.37807 333.87475 
L 490.660674 332.178328 
L 490.943277 331.7705 
L 491.22588 330.615559 
L 491.508483 331.551114 
L 491.791086 329.291562 
L 492.07369 328.955702 
L 492.638896 334.575017 
L 492.921499 327.430551 
L 493.204102 327.619037 
L 493.486705 323.244851 
L 493.769309 270.490378 
L 494.051912 325.569596 
L 494.334515 325.760402 
L 494.617118 326.946186 
L 495.182325 322.787938 
L 495.464928 324.592894 
L 495.747531 323.030171 
L 496.030134 319.277339 
L 496.312737 319.727502 
L 496.595341 323.497343 
L 496.877944 321.521012 
L 497.160547 318.08357 
L 497.44315 383.795726 
L 498.29096 384.105312 
L 498.573563 340.805611 
L 498.856166 340.786168 
L 499.138769 341.808598 
L 499.421372 338.590508 
L 499.703976 338.251221 
L 499.986579 335.79056 
L 500.269182 334.909712 
L 500.551785 335.214786 
L 500.834388 334.959986 
L 501.116992 328.393704 
L 501.399595 330.46365 
L 501.682198 328.954594 
L 501.964801 326.146662 
L 502.247404 330.687538 
L 502.530008 329.613725 
L 502.812611 329.277865 
L 503.095214 333.592604 
L 503.377817 333.487485 
L 503.66042 331.58086 
L 503.943024 332.471909 
L 504.225627 326.518928 
L 504.50823 326.780535 
L 504.790833 322.297873 
L 505.073436 325.647298 
L 505.35604 317.726268 
L 505.638643 316.306246 
L 505.921246 322.360633 
L 506.203849 311.815108 
L 506.486452 311.099968 
L 506.769055 311.658653 
L 507.051659 308.508086 
L 507.334262 312.40242 
L 507.616865 304.674274 
L 507.899468 301.135277 
L 508.182071 302.915102 
L 508.464675 296.556544 
L 508.747278 382.722953 
L 509.029881 383.705492 
L 509.595087 383.839146 
L 509.877691 300.364345 
L 510.160294 322.156257 
L 510.442897 322.509206 
L 510.7255 317.584515 
L 511.008103 318.184199 
L 511.290707 318.122455 
L 511.57331 323.427649 
L 511.855913 319.094633 
L 512.138516 317.293058 
L 512.421119 313.356458 
L 512.703722 316.168982 
L 512.986326 314.90553 
L 513.268929 308.359753 
L 513.551532 308.613319 
L 513.834135 310.204692 
L 514.116738 309.211951 
L 514.399342 309.515825 
L 514.681945 309.194793 
L 514.964548 306.301162 
L 515.247151 311.074048 
L 515.529754 309.251887 
L 515.812358 310.329138 
L 516.094961 307.406937 
L 516.377564 305.832734 
L 516.660167 300.078577 
L 516.94277 300.858899 
L 517.225374 304.469886 
L 517.507977 304.690358 
L 517.79058 302.533526 
L 518.073183 302.298203 
L 518.638389 308.631779 
L 518.920993 306.819922 
L 519.203596 307.878884 
L 519.486199 314.019073 
L 519.768802 313.618122 
L 520.051405 383.768298 
L 520.334009 383.530669 
L 520.616612 383.975062 
L 520.899215 384.000194 
L 521.181818 333.024906 
L 521.464421 333.910197 
L 521.747025 334.303197 
L 522.029628 331.6197 
L 522.312231 330.814372 
L 522.594834 330.80296 
L 522.877437 328.321726 
L 523.442644 319.934311 
L 523.725247 319.777788 
L 524.00785 319.952589 
L 524.290453 327.868079 
L 524.573056 325.801515 
L 524.85566 326.6309 
L 525.138263 325.509098 
L 525.420866 327.085564 
L 525.703469 327.821243 
L 525.986072 327.046712 
L 526.268676 325.12863 
L 526.551279 321.062865 
L 526.833882 322.072763 
L 527.116485 316.717352 
L 527.399088 318.204726 
L 527.681692 315.389974 
L 527.964295 315.869666 
L 528.246898 295.333873 
L 528.529501 317.370726 
L 528.812104 317.343367 
L 529.094708 314.012162 
L 529.377311 314.637057 
L 529.659914 294.965148 
L 529.942517 314.956924 
L 530.22512 312.80465 
L 530.507723 307.294874 
L 530.790327 306.163933 
L 531.07293 303.60029 
L 531.355533 383.243929 
L 531.638136 383.912245 
L 531.920739 383.604921 
L 532.203343 383.956808 
L 532.485946 333.268099 
L 532.768549 334.189968 
L 533.051152 332.920872 
L 533.333755 332.546139 
L 533.616359 330.028304 
L 533.898962 331.396886 
L 534.181565 330.140253 
L 534.464168 329.423982 
L 534.746771 329.514239 
L 535.029375 328.671168 
L 535.311978 326.485777 
L 535.594581 327.750395 
L 535.877184 331.732769 
L 536.159787 333.560595 
L 536.44239 304.204657 
L 536.724994 329.582768 
L 537.007597 333.589108 
L 537.2902 333.584584 
L 537.572803 332.479906 
L 537.855406 335.800795 
L 538.13801 330.666964 
L 538.420613 331.136432 
L 538.703216 327.052458 
L 538.985819 320.644802 
L 539.268422 318.858146 
L 539.551026 320.251814 
L 539.833629 318.602181 
L 540.398835 316.825817 
L 540.964042 308.519532 
L 541.246645 311.804986 
L 541.529248 312.579574 
L 541.811851 314.295417 
L 542.377057 313.183873 
L 542.659661 383.31592 
L 542.942264 383.895087 
L 543.50747 383.951073 
L 543.790073 310.383651 
L 544.072677 331.069091 
L 544.35528 333.695437 
L 544.920486 330.544734 
L 545.203089 330.918245 
L 545.485693 331.029098 
L 545.768296 329.468568 
L 546.050899 326.173975 
L 546.333502 324.254898 
L 546.616105 319.174803 
L 546.898709 320.57761 
L 547.181312 321.298404 
L 547.463915 322.894312 
L 547.746518 313.05609 
L 548.029121 308.251059 
L 548.311724 317.024745 
L 548.594328 320.726045 
L 548.876931 321.099306 
L 549.159534 289.971162 
L 549.442137 314.195907 
L 550.007344 317.533886 
L 550.289947 315.388478 
L 550.57255 290.670892 
L 550.855153 311.874521 
L 551.137756 317.781763 
L 551.42036 318.475221 
L 551.702963 316.976435 
L 551.985566 318.141635 
L 552.550772 314.02218 
L 552.833376 314.183262 
L 553.115979 316.028212 
L 553.681185 313.167709 
L 553.963788 383.590093 
L 554.246391 383.840266 
L 554.528995 383.766025 
L 554.811598 384.003632 
L 555.094201 334.220766 
L 555.376804 329.277591 
L 555.659407 327.081965 
L 555.942011 316.346948 
L 556.507217 325.506551 
L 556.78982 324.133467 
L 557.072423 329.919667 
L 557.355027 306.364848 
L 557.63763 326.188597 
L 557.920233 326.046969 
L 558.202836 332.603062 
L 558.485439 331.532653 
L 558.768043 331.562354 
L 559.050646 329.899105 
L 559.333249 329.606574 
L 559.615852 332.276375 
L 559.898455 327.270451 
L 560.181058 325.674532 
L 560.463662 327.068234 
L 560.746265 322.015486 
L 561.028868 320.943913 
L 561.311471 321.555077 
L 561.594074 319.218909 
L 561.876678 320.938213 
L 562.159281 317.187757 
L 562.441884 319.485108 
L 562.724487 317.988584 
L 563.00709 317.512216 
L 563.289694 311.640307 
L 563.572297 316.141338 
L 563.8549 290.825999 
L 564.137503 314.003925 
L 564.420106 315.363369 
L 564.70271 314.192412 
L 564.985313 312.234358 
L 565.267916 383.646045 
L 566.115726 384.034453 
L 566.398329 311.114567 
L 566.680932 334.056211 
L 566.963535 332.204407 
L 567.246138 303.378561 
L 567.528741 328.849145 
L 567.811345 327.373205 
L 568.093948 321.036408 
L 568.376551 321.477329 
L 569.224361 320.10428 
L 569.506964 322.729427 
L 569.789567 318.69904 
L 570.07217 311.219902 
L 570.637377 318.189579 
L 570.91998 318.887607 
L 571.202583 315.233085 
L 571.485186 313.213379 
L 571.767789 312.782637 
L 572.050393 307.293469 
L 572.332996 315.268429 
L 572.615599 311.605945 
L 572.898202 315.486605 
L 573.180805 313.467996 
L 573.463408 314.461924 
L 573.746012 314.489318 
L 574.028615 313.935259 
L 574.311218 312.799737 
L 574.593821 308.258713 
L 574.876424 312.067462 
L 575.159028 309.069832 
L 575.441631 309.03787 
L 575.724234 310.319646 
L 576.006837 311.05416 
L 576.28944 308.90072 
L 576.572044 383.470113 
L 576.854647 383.81855 
L 577.13725 383.783126 
L 577.419853 383.957939 
L 577.702456 329.547115 
L 577.98506 322.962373 
L 578.267663 320.362347 
L 578.550266 322.032519 
L 578.832869 320.225209 
L 579.115472 300.428727 
L 579.398075 323.879696 
L 580.245885 320.003572 
L 580.528488 317.478905 
L 580.811091 317.12703 
L 581.093695 317.619402 
L 581.376298 314.942839 
L 581.658901 317.409223 
L 581.941504 321.110603 
L 582.224107 329.428392 
L 582.506711 328.192333 
L 583.071917 333.598098 
L 583.35452 324.74799 
L 583.637123 324.517249 
L 584.20233 329.324439 
L 584.484933 304.768905 
L 584.767536 324.1814 
L 585.050139 325.795597 
L 585.332742 325.259816 
L 585.615346 325.00392 
L 586.180552 318.331229 
L 586.463155 321.924053 
L 587.028362 319.073786 
L 587.310965 318.640838 
L 587.593568 320.480054 
L 587.876171 383.614059 
L 588.158774 383.939661 
L 588.441378 383.909937 
L 588.723981 384.087012 
L 589.006584 338.819924 
L 589.289187 339.402564 
L 589.57179 335.03409 
L 589.854394 337.864915 
L 590.136997 339.256344 
L 590.4196 337.300576 
L 590.702203 336.968166 
L 591.267409 334.77704 
L 591.550013 332.65449 
L 591.832616 332.512839 
L 592.115219 311.551375 
L 592.397822 330.935209 
L 592.680425 331.393288 
L 592.963029 332.15411 
L 593.245632 331.235633 
L 593.528235 332.213546 
L 593.810838 331.959912 
L 594.093441 330.55249 
L 594.376045 333.719221 
L 594.658648 330.269212 
L 594.941251 328.5053 
L 595.223854 328.209422 
L 596.354267 321.078743 
L 596.63687 324.078612 
L 596.919473 321.077521 
L 597.48468 324.636075 
L 597.767283 310.526307 
L 598.332489 318.37008 
L 598.615092 320.643408 
L 598.897696 295.897115 
L 599.180299 383.64488 
L 599.462902 383.738586 
L 599.745505 383.955654 
L 600.028108 383.973908 
L 600.310712 337.968823 
L 600.593315 334.338324 
L 600.875918 337.450177 
L 601.158521 335.214546 
L 601.441124 335.457899 
L 601.723728 332.924082 
L 602.006331 333.373023 
L 602.288934 334.261799 
L 602.571537 332.655609 
L 602.85414 334.34174 
L 603.136743 331.060809 
L 603.419347 333.13425 
L 603.70195 331.702828 
L 603.984553 315.615586 
L 604.267156 330.357127 
L 604.549759 326.154292 
L 604.832363 330.726103 
L 605.114966 327.835888 
L 605.397569 330.927201 
L 605.962775 327.230424 
L 606.245379 328.776103 
L 606.527982 327.91704 
L 606.810585 327.88502 
L 607.093188 326.771203 
L 607.375791 326.255961 
L 607.658395 325.416294 
L 607.940998 322.770551 
L 608.506204 323.33946 
L 608.788807 322.489535 
L 609.07141 322.456396 
L 609.354014 320.388666 
L 609.636617 320.975864 
L 610.201823 319.392499 
L 610.484426 383.243918 
L 610.76703 383.943088 
L 611.332236 383.947646 
L 611.614839 340.40217 
L 611.897442 339.704142 
L 612.462649 341.303523 
L 612.745252 338.289855 
L 613.027855 336.594586 
L 613.310458 337.394259 
L 613.593062 334.430865 
L 613.875665 335.569837 
L 614.158268 335.595014 
L 614.440871 335.191733 
L 614.723474 329.784882 
L 615.288681 332.196411 
L 615.571284 332.591661 
L 615.853887 325.008478 
L 616.13649 326.474171 
L 616.419093 331.833112 
L 616.701697 331.466386 
L 616.9843 333.363895 
L 617.266903 329.48552 
L 617.549506 329.275307 
L 617.832109 321.171125 
L 618.114713 324.374444 
L 618.397316 321.114076 
L 618.679919 323.068702 
L 618.962522 322.809437 
L 619.245125 320.405824 
L 619.527729 320.44696 
L 619.810332 324.600685 
L 620.092935 323.970033 
L 620.658141 313.044267 
L 620.940744 315.019421 
L 621.223348 312.072157 
L 621.505951 315.891222 
L 621.788554 382.977741 
L 622.071157 383.773987 
L 622.636364 384.005894 
L 622.636364 384.005894 
" clip-path="url(#pcdd4dee68a)" style="fill: none; stroke: #1f77b4; stroke-width: 1.5; stroke-linecap: square"/>
   </g>
   <g id="patch_3">
    <path d="M 90 384.48 
L 90 51.84 
" style="fill: none; stroke: #000000; stroke-width: 0.8; stroke-linejoin: miter; stroke-linecap: square"/>
   </g>
   <g id="patch_4">
    <path d="M 648 384.48 
L 648 51.84 
" style="fill: none; stroke: #000000; stroke-width: 0.8; stroke-linejoin: miter; stroke-linecap: square"/>
   </g>
   <g id="patch_5">
    <path d="M 90 384.48 
L 648 384.48 
" style="fill: none; stroke: #000000; stroke-width: 0.8; stroke-linejoin: miter; stroke-linecap: square"/>
   </g>
   <g id="patch_6">
    <path d="M 90 51.84 
L 648 51.84 
" style="fill: none; stroke: #000000; stroke-width: 0.8; stroke-linejoin: miter; stroke-linecap: square"/>
   </g>
   <g id="text_17">
    <!-- Average time per index -->
    <g transform="translate(298.700625 45.84) scale(0.12 -0.12)">
     <defs>
      <path id="DejaVuSans-70" d="M 1159 525 
L 1159 -1331 
L 581 -1331 
L 581 3500 
L 1159 3500 
L 1159 2969 
Q 1341 3281 1617 3432 
Q 1894 3584 2278 3584 
Q 2916 3584 3314 3078 
Q 3713 2572 3713 1747 
Q 3713 922 3314 415 
Q 2916 -91 2278 -91 
Q 1894 -91 1617 61 
Q 1341 213 1159 525 
z
M 3116 1747 
Q 3116 2381 2855 2742 
Q 2594 3103 2138 3103 
Q 1681 3103 1420 2742 
Q 1159 2381 1159 1747 
Q 1159 1113 1420 752 
Q 1681 391 2138 391 
Q 2594 391 2855 752 
Q 3116 1113 3116 1747 
z
" transform="scale(0.015625)"/>
     </defs>
     <use xlink:href="#DejaVuSans-41"/>
     <use xlink:href="#DejaVuSans-76" transform="translate(62.533203 0)"/>
     <use xlink:href="#DejaVuSans-65" transform="translate(121.712891 0)"/>
     <use xlink:href="#DejaVuSans-72" transform="translate(183.236328 0)"/>
     <use xlink:href="#DejaVuSans-61" transform="translate(224.349609 0)"/>
     <use xlink:href="#DejaVuSans-67" transform="translate(285.628906 0)"/>
     <use xlink:href="#DejaVuSans-65" transform="translate(349.105469 0)"/>
     <use xlink:href="#DejaVuSans-20" transform="translate(410.628906 0)"/>
     <use xlink:href="#DejaVuSans-74" transform="translate(442.416016 0)"/>
     <use xlink:href="#DejaVuSans-69" transform="translate(481.625 0)"/>
     <use xlink:href="#DejaVuSans-6d" transform="translate(509.408203 0)"/>
     <use xlink:href="#DejaVuSans-65" transform="translate(606.820312 0)"/>
     <use xlink:href="#DejaVuSans-20" transform="translate(668.34375 0)"/>
     <use xlink:href="#DejaVuSans-70" transform="translate(700.130859 0)"/>
     <use xlink:href="#DejaVuSans-65" transform="translate(763.607422 0)"/>
     <use xlink:href="#DejaVuSans-72" transform="translate(825.130859 0)"/>
     <use xlink:href="#DejaVuSans-20" transform="translate(866.244141 0)"/>
     <use xlink:href="#DejaVuSans-69" transform="translate(898.03125 0)"/>
     <use xlink:href="#DejaVuSans-6e" transform="translate(925.814453 0)"/>
     <use xlink:href="#DejaVuSans-64" transform="translate(989.193359 0)"/>
     <use xlink:href="#DejaVuSans-65" transform="translate(1052.669922 0)"/>
     <use xlink:href="#DejaVuSans-78" transform="translate(1112.443359 0)"/>
    </g>
   </g>
   <g id="legend_1">
    <g id="patch_7">
     <path d="M 515.8875 74.518125 
L 641 74.518125 
Q 643 74.518125 643 72.518125 
L 643 58.84 
Q 643 56.84 641 56.84 
L 515.8875 56.84 
Q 513.8875 56.84 513.8875 58.84 
L 513.8875 72.518125 
Q 513.8875 74.518125 515.8875 74.518125 
z
" style="fill: #ffffff; opacity: 0.8; stroke: #cccccc; stroke-linejoin: miter"/>
    </g>
    <g id="line2d_16">
     <path d="M 517.8875 64.938438 
L 527.8875 64.938438 
L 537.8875 64.938438 
" style="fill: none; stroke: #1f77b4; stroke-width: 1.5; stroke-linecap: square"/>
    </g>
    <g id="text_18">
     <!-- getExpectedPoints -->
     <g transform="translate(545.8875 68.438438) scale(0.1 -0.1)">
      <defs>
       <path id="DejaVuSans-45" d="M 628 4666 
L 3578 4666 
L 3578 4134 
L 1259 4134 
L 1259 2753 
L 3481 2753 
L 3481 2222 
L 1259 2222 
L 1259 531 
L 3634 531 
L 3634 0 
L 628 0 
L 628 4666 
z
" transform="scale(0.015625)"/>
       <path id="DejaVuSans-63" d="M 3122 3366 
L 3122 2828 
Q 2878 2963 2633 3030 
Q 2388 3097 2138 3097 
Q 1578 3097 1268 2742 
Q 959 2388 959 1747 
Q 959 1106 1268 751 
Q 1578 397 2138 397 
Q 2388 397 2633 464 
Q 2878 531 3122 666 
L 3122 134 
Q 2881 22 2623 -34 
Q 2366 -91 2075 -91 
Q 1284 -91 818 406 
Q 353 903 353 1747 
Q 353 2603 823 3093 
Q 1294 3584 2113 3584 
Q 2378 3584 2631 3529 
Q 2884 3475 3122 3366 
z
" transform="scale(0.015625)"/>
       <path id="DejaVuSans-50" d="M 1259 4147 
L 1259 2394 
L 2053 2394 
Q 2494 2394 2734 2622 
Q 2975 2850 2975 3272 
Q 2975 3691 2734 3919 
Q 2494 4147 2053 4147 
L 1259 4147 
z
M 628 4666 
L 2053 4666 
Q 2838 4666 3239 4311 
Q 3641 3956 3641 3272 
Q 3641 2581 3239 2228 
Q 2838 1875 2053 1875 
L 1259 1875 
L 1259 0 
L 628 0 
L 628 4666 
z
" transform="scale(0.015625)"/>
       <path id="DejaVuSans-6f" d="M 1959 3097 
Q 1497 3097 1228 2736 
Q 959 2375 959 1747 
Q 959 1119 1226 758 
Q 1494 397 1959 397 
Q 2419 397 2687 759 
Q 2956 1122 2956 1747 
Q 2956 2369 2687 2733 
Q 2419 3097 1959 3097 
z
M 1959 3584 
Q 2709 3584 3137 3096 
Q 3566 2609 3566 1747 
Q 3566 888 3137 398 
Q 2709 -91 1959 -91 
Q 1206 -91 779 398 
Q 353 888 353 1747 
Q 353 2609 779 3096 
Q 1206 3584 1959 3584 
z
" transform="scale(0.015625)"/>
      </defs>
      <use xlink:href="#DejaVuSans-67"/>
      <use xlink:href="#DejaVuSans-65" transform="translate(63.476562 0)"/>
      <use xlink:href="#DejaVuSans-74" transform="translate(125 0)"/>
      <use xlink:href="#DejaVuSans-45" transform="translate(164.208984 0)"/>
      <use xlink:href="#DejaVuSans-78" transform="translate(227.392578 0)"/>
      <use xlink:href="#DejaVuSans-70" transform="translate(286.572266 0)"/>
      <use xlink:href="#DejaVuSans-65" transform="translate(350.048828 0)"/>
      <use xlink:href="#DejaVuSans-63" transform="translate(411.572266 0)"/>
      <use xlink:href="#DejaVuSans-74" transform="translate(466.552734 0)"/>
      <use xlink:href="#DejaVuSans-65" transform="translate(505.761719 0)"/>
      <use xlink:href="#DejaVuSans-64" transform="translate(567.285156 0)"/>
      <use xlink:href="#DejaVuSans-50" transform="translate(630.761719 0)"/>
      <use xlink:href="#DejaVuSans-6f" transform="translate(687.439453 0)"/>
      <use xlink:href="#DejaVuSans-69" transform="translate(748.621094 0)"/>
      <use xlink:href="#DejaVuSans-6e" transform="translate(776.404297 0)"/>
      <use xlink:href="#DejaVuSans-74" transform="translate(839.783203 0)"/>
      <use xlink:href="#DejaVuSans-73" transform="translate(878.992188 0)"/>
     </g>
    </g>
   </g>
  </g>
 </g>
 <defs>
  <clipPath id="pcdd4dee68a">
   <rect x="90" y="51.84" width="558" height="332.64"/>
  </clipPath>
 </defs>
</svg>
