<?xml version="1.0" encoding="utf-8" standalone="no"?>
<!DOCTYPE svg PUBLIC "-//W3C//DTD SVG 1.1//EN"
  "http://www.w3.org/Graphics/SVG/1.1/DTD/svg11.dtd">
<svg xmlns:xlink="http://www.w3.org/1999/xlink" width="720pt" height="432pt" viewBox="0 0 720 432" xmlns="http://www.w3.org/2000/svg" version="1.1">
 <metadata>
  <rdf:RDF xmlns:dc="http://purl.org/dc/elements/1.1/" xmlns:cc="http://creativecommons.org/ns#" xmlns:rdf="http://www.w3.org/1999/02/22-rdf-syntax-ns#">
   <cc:Work>
    <dc:type rdf:resource="http://purl.org/dc/dcmitype/StillImage"/>
    <dc:date>2025-06-10T01:38:29.710732</dc:date>
    <dc:format>image/svg+xml</dc:format>
    <dc:creator>
     <cc:Agent>
      <dc:title>Matplotlib v3.10.3, https://matplotlib.org/</dc:title>
     </cc:Agent>
    </dc:creator>
   </cc:Work>
  </rdf:RDF>
 </metadata>
 <defs>
  <style type="text/css">*{stroke-linejoin: round; stroke-linecap: butt}</style>
 </defs>
 <g id="figure_1">
  <g id="patch_1">
   <path d="M 0 432 
L 720 432 
L 720 0 
L 0 0 
z
" style="fill: #ffffff"/>
  </g>
  <g id="axes_1">
   <g id="patch_2">
    <path d="M 90 384.48 
L 648 384.48 
L 648 51.84 
L 90 51.84 
z
" style="fill: #ffffff"/>
   </g>
   <g id="matplotlib.axis_1">
    <g id="xtick_1">
     <g id="line2d_1">
      <defs>
       <path id="m48303e577e" d="M 0 0 
L 0 3.5 
" style="stroke: #000000; stroke-width: 0.8"/>
      </defs>
      <g>
       <use xlink:href="#m48303e577e" x="115.363636" y="384.48" style="stroke: #000000; stroke-width: 0.8"/>
      </g>
     </g>
     <g id="text_1">
      <!-- 0 -->
      <g transform="translate(112.182386 399.078438) scale(0.1 -0.1)">
       <defs>
        <path id="DejaVuSans-30" d="M 2034 4250 
Q 1547 4250 1301 3770 
Q 1056 3291 1056 2328 
Q 1056 1369 1301 889 
Q 1547 409 2034 409 
Q 2525 409 2770 889 
Q 3016 1369 3016 2328 
Q 3016 3291 2770 3770 
Q 2525 4250 2034 4250 
z
M 2034 4750 
Q 2819 4750 3233 4129 
Q 3647 3509 3647 2328 
Q 3647 1150 3233 529 
Q 2819 -91 2034 -91 
Q 1250 -91 836 529 
Q 422 1150 422 2328 
Q 422 3509 836 4129 
Q 1250 4750 2034 4750 
z
" transform="scale(0.015625)"/>
       </defs>
       <use xlink:href="#DejaVuSans-30"/>
      </g>
     </g>
    </g>
    <g id="xtick_2">
     <g id="line2d_2">
      <g>
       <use xlink:href="#m48303e577e" x="186.014434" y="384.48" style="stroke: #000000; stroke-width: 0.8"/>
      </g>
     </g>
     <g id="text_2">
      <!-- 250 -->
      <g transform="translate(176.470684 399.078438) scale(0.1 -0.1)">
       <defs>
        <path id="DejaVuSans-32" d="M 1228 531 
L 3431 531 
L 3431 0 
L 469 0 
L 469 531 
Q 828 903 1448 1529 
Q 2069 2156 2228 2338 
Q 2531 2678 2651 2914 
Q 2772 3150 2772 3378 
Q 2772 3750 2511 3984 
Q 2250 4219 1831 4219 
Q 1534 4219 1204 4116 
Q 875 4013 500 3803 
L 500 4441 
Q 881 4594 1212 4672 
Q 1544 4750 1819 4750 
Q 2544 4750 2975 4387 
Q 3406 4025 3406 3419 
Q 3406 3131 3298 2873 
Q 3191 2616 2906 2266 
Q 2828 2175 2409 1742 
Q 1991 1309 1228 531 
z
" transform="scale(0.015625)"/>
        <path id="DejaVuSans-35" d="M 691 4666 
L 3169 4666 
L 3169 4134 
L 1269 4134 
L 1269 2991 
Q 1406 3038 1543 3061 
Q 1681 3084 1819 3084 
Q 2600 3084 3056 2656 
Q 3513 2228 3513 1497 
Q 3513 744 3044 326 
Q 2575 -91 1722 -91 
Q 1428 -91 1123 -41 
Q 819 9 494 109 
L 494 744 
Q 775 591 1075 516 
Q 1375 441 1709 441 
Q 2250 441 2565 725 
Q 2881 1009 2881 1497 
Q 2881 1984 2565 2268 
Q 2250 2553 1709 2553 
Q 1456 2553 1204 2497 
Q 953 2441 691 2322 
L 691 4666 
z
" transform="scale(0.015625)"/>
       </defs>
       <use xlink:href="#DejaVuSans-32"/>
       <use xlink:href="#DejaVuSans-35" transform="translate(63.623047 0)"/>
       <use xlink:href="#DejaVuSans-30" transform="translate(127.246094 0)"/>
      </g>
     </g>
    </g>
    <g id="xtick_3">
     <g id="line2d_3">
      <g>
       <use xlink:href="#m48303e577e" x="256.665232" y="384.48" style="stroke: #000000; stroke-width: 0.8"/>
      </g>
     </g>
     <g id="text_3">
      <!-- 500 -->
      <g transform="translate(247.121482 399.078438) scale(0.1 -0.1)">
       <use xlink:href="#DejaVuSans-35"/>
       <use xlink:href="#DejaVuSans-30" transform="translate(63.623047 0)"/>
       <use xlink:href="#DejaVuSans-30" transform="translate(127.246094 0)"/>
      </g>
     </g>
    </g>
    <g id="xtick_4">
     <g id="line2d_4">
      <g>
       <use xlink:href="#m48303e577e" x="327.316029" y="384.48" style="stroke: #000000; stroke-width: 0.8"/>
      </g>
     </g>
     <g id="text_4">
      <!-- 750 -->
      <g transform="translate(317.772279 399.078438) scale(0.1 -0.1)">
       <defs>
        <path id="DejaVuSans-37" d="M 525 4666 
L 3525 4666 
L 3525 4397 
L 1831 0 
L 1172 0 
L 2766 4134 
L 525 4134 
L 525 4666 
z
" transform="scale(0.015625)"/>
       </defs>
       <use xlink:href="#DejaVuSans-37"/>
       <use xlink:href="#DejaVuSans-35" transform="translate(63.623047 0)"/>
       <use xlink:href="#DejaVuSans-30" transform="translate(127.246094 0)"/>
      </g>
     </g>
    </g>
    <g id="xtick_5">
     <g id="line2d_5">
      <g>
       <use xlink:href="#m48303e577e" x="397.966827" y="384.48" style="stroke: #000000; stroke-width: 0.8"/>
      </g>
     </g>
     <g id="text_5">
      <!-- 1000 -->
      <g transform="translate(385.241827 399.078438) scale(0.1 -0.1)">
       <defs>
        <path id="DejaVuSans-31" d="M 794 531 
L 1825 531 
L 1825 4091 
L 703 3866 
L 703 4441 
L 1819 4666 
L 2450 4666 
L 2450 531 
L 3481 531 
L 3481 0 
L 794 0 
L 794 531 
z
" transform="scale(0.015625)"/>
       </defs>
       <use xlink:href="#DejaVuSans-31"/>
       <use xlink:href="#DejaVuSans-30" transform="translate(63.623047 0)"/>
       <use xlink:href="#DejaVuSans-30" transform="translate(127.246094 0)"/>
       <use xlink:href="#DejaVuSans-30" transform="translate(190.869141 0)"/>
      </g>
     </g>
    </g>
    <g id="xtick_6">
     <g id="line2d_6">
      <g>
       <use xlink:href="#m48303e577e" x="468.617625" y="384.48" style="stroke: #000000; stroke-width: 0.8"/>
      </g>
     </g>
     <g id="text_6">
      <!-- 1250 -->
      <g transform="translate(455.892625 399.078438) scale(0.1 -0.1)">
       <use xlink:href="#DejaVuSans-31"/>
       <use xlink:href="#DejaVuSans-32" transform="translate(63.623047 0)"/>
       <use xlink:href="#DejaVuSans-35" transform="translate(127.246094 0)"/>
       <use xlink:href="#DejaVuSans-30" transform="translate(190.869141 0)"/>
      </g>
     </g>
    </g>
    <g id="xtick_7">
     <g id="line2d_7">
      <g>
       <use xlink:href="#m48303e577e" x="539.268422" y="384.48" style="stroke: #000000; stroke-width: 0.8"/>
      </g>
     </g>
     <g id="text_7">
      <!-- 1500 -->
      <g transform="translate(526.543422 399.078438) scale(0.1 -0.1)">
       <use xlink:href="#DejaVuSans-31"/>
       <use xlink:href="#DejaVuSans-35" transform="translate(63.623047 0)"/>
       <use xlink:href="#DejaVuSans-30" transform="translate(127.246094 0)"/>
       <use xlink:href="#DejaVuSans-30" transform="translate(190.869141 0)"/>
      </g>
     </g>
    </g>
    <g id="xtick_8">
     <g id="line2d_8">
      <g>
       <use xlink:href="#m48303e577e" x="609.91922" y="384.48" style="stroke: #000000; stroke-width: 0.8"/>
      </g>
     </g>
     <g id="text_8">
      <!-- 1750 -->
      <g transform="translate(597.19422 399.078438) scale(0.1 -0.1)">
       <use xlink:href="#DejaVuSans-31"/>
       <use xlink:href="#DejaVuSans-37" transform="translate(63.623047 0)"/>
       <use xlink:href="#DejaVuSans-35" transform="translate(127.246094 0)"/>
       <use xlink:href="#DejaVuSans-30" transform="translate(190.869141 0)"/>
      </g>
     </g>
    </g>
    <g id="text_9">
     <!-- Index -->
     <g transform="translate(355.233594 412.756563) scale(0.1 -0.1)">
      <defs>
       <path id="DejaVuSans-49" d="M 628 4666 
L 1259 4666 
L 1259 0 
L 628 0 
L 628 4666 
z
" transform="scale(0.015625)"/>
       <path id="DejaVuSans-6e" d="M 3513 2113 
L 3513 0 
L 2938 0 
L 2938 2094 
Q 2938 2591 2744 2837 
Q 2550 3084 2163 3084 
Q 1697 3084 1428 2787 
Q 1159 2491 1159 1978 
L 1159 0 
L 581 0 
L 581 3500 
L 1159 3500 
L 1159 2956 
Q 1366 3272 1645 3428 
Q 1925 3584 2291 3584 
Q 2894 3584 3203 3211 
Q 3513 2838 3513 2113 
z
" transform="scale(0.015625)"/>
       <path id="DejaVuSans-64" d="M 2906 2969 
L 2906 4863 
L 3481 4863 
L 3481 0 
L 2906 0 
L 2906 525 
Q 2725 213 2448 61 
Q 2172 -91 1784 -91 
Q 1150 -91 751 415 
Q 353 922 353 1747 
Q 353 2572 751 3078 
Q 1150 3584 1784 3584 
Q 2172 3584 2448 3432 
Q 2725 3281 2906 2969 
z
M 947 1747 
Q 947 1113 1208 752 
Q 1469 391 1925 391 
Q 2381 391 2643 752 
Q 2906 1113 2906 1747 
Q 2906 2381 2643 2742 
Q 2381 3103 1925 3103 
Q 1469 3103 1208 2742 
Q 947 2381 947 1747 
z
" transform="scale(0.015625)"/>
       <path id="DejaVuSans-65" d="M 3597 1894 
L 3597 1613 
L 953 1613 
Q 991 1019 1311 708 
Q 1631 397 2203 397 
Q 2534 397 2845 478 
Q 3156 559 3463 722 
L 3463 178 
Q 3153 47 2828 -22 
Q 2503 -91 2169 -91 
Q 1331 -91 842 396 
Q 353 884 353 1716 
Q 353 2575 817 3079 
Q 1281 3584 2069 3584 
Q 2775 3584 3186 3129 
Q 3597 2675 3597 1894 
z
M 3022 2063 
Q 3016 2534 2758 2815 
Q 2500 3097 2075 3097 
Q 1594 3097 1305 2825 
Q 1016 2553 972 2059 
L 3022 2063 
z
" transform="scale(0.015625)"/>
       <path id="DejaVuSans-78" d="M 3513 3500 
L 2247 1797 
L 3578 0 
L 2900 0 
L 1881 1375 
L 863 0 
L 184 0 
L 1544 1831 
L 300 3500 
L 978 3500 
L 1906 2253 
L 2834 3500 
L 3513 3500 
z
" transform="scale(0.015625)"/>
      </defs>
      <use xlink:href="#DejaVuSans-49"/>
      <use xlink:href="#DejaVuSans-6e" transform="translate(29.492188 0)"/>
      <use xlink:href="#DejaVuSans-64" transform="translate(92.871094 0)"/>
      <use xlink:href="#DejaVuSans-65" transform="translate(156.347656 0)"/>
      <use xlink:href="#DejaVuSans-78" transform="translate(216.121094 0)"/>
     </g>
    </g>
   </g>
   <g id="matplotlib.axis_2">
    <g id="ytick_1">
     <g id="line2d_9">
      <defs>
       <path id="m764a18e082" d="M 0 0 
L -3.5 0 
" style="stroke: #000000; stroke-width: 0.8"/>
      </defs>
      <g>
       <use xlink:href="#m764a18e082" x="90" y="384.48" style="stroke: #000000; stroke-width: 0.8"/>
      </g>
     </g>
     <g id="text_10">
      <!-- 0.0 -->
      <g transform="translate(67.096875 388.279219) scale(0.1 -0.1)">
       <defs>
        <path id="DejaVuSans-2e" d="M 684 794 
L 1344 794 
L 1344 0 
L 684 0 
L 684 794 
z
" transform="scale(0.015625)"/>
       </defs>
       <use xlink:href="#DejaVuSans-30"/>
       <use xlink:href="#DejaVuSans-2e" transform="translate(63.623047 0)"/>
       <use xlink:href="#DejaVuSans-30" transform="translate(95.410156 0)"/>
      </g>
     </g>
    </g>
    <g id="ytick_2">
     <g id="line2d_10">
      <g>
       <use xlink:href="#m764a18e082" x="90" y="325.970501" style="stroke: #000000; stroke-width: 0.8"/>
      </g>
     </g>
     <g id="text_11">
      <!-- 0.5 -->
      <g transform="translate(67.096875 329.76972) scale(0.1 -0.1)">
       <use xlink:href="#DejaVuSans-30"/>
       <use xlink:href="#DejaVuSans-2e" transform="translate(63.623047 0)"/>
       <use xlink:href="#DejaVuSans-35" transform="translate(95.410156 0)"/>
      </g>
     </g>
    </g>
    <g id="ytick_3">
     <g id="line2d_11">
      <g>
       <use xlink:href="#m764a18e082" x="90" y="267.461002" style="stroke: #000000; stroke-width: 0.8"/>
      </g>
     </g>
     <g id="text_12">
      <!-- 1.0 -->
      <g transform="translate(67.096875 271.26022) scale(0.1 -0.1)">
       <use xlink:href="#DejaVuSans-31"/>
       <use xlink:href="#DejaVuSans-2e" transform="translate(63.623047 0)"/>
       <use xlink:href="#DejaVuSans-30" transform="translate(95.410156 0)"/>
      </g>
     </g>
    </g>
    <g id="ytick_4">
     <g id="line2d_12">
      <g>
       <use xlink:href="#m764a18e082" x="90" y="208.951502" style="stroke: #000000; stroke-width: 0.8"/>
      </g>
     </g>
     <g id="text_13">
      <!-- 1.5 -->
      <g transform="translate(67.096875 212.750721) scale(0.1 -0.1)">
       <use xlink:href="#DejaVuSans-31"/>
       <use xlink:href="#DejaVuSans-2e" transform="translate(63.623047 0)"/>
       <use xlink:href="#DejaVuSans-35" transform="translate(95.410156 0)"/>
      </g>
     </g>
    </g>
    <g id="ytick_5">
     <g id="line2d_13">
      <g>
       <use xlink:href="#m764a18e082" x="90" y="150.442003" style="stroke: #000000; stroke-width: 0.8"/>
      </g>
     </g>
     <g id="text_14">
      <!-- 2.0 -->
      <g transform="translate(67.096875 154.241222) scale(0.1 -0.1)">
       <use xlink:href="#DejaVuSans-32"/>
       <use xlink:href="#DejaVuSans-2e" transform="translate(63.623047 0)"/>
       <use xlink:href="#DejaVuSans-30" transform="translate(95.410156 0)"/>
      </g>
     </g>
    </g>
    <g id="ytick_6">
     <g id="line2d_14">
      <g>
       <use xlink:href="#m764a18e082" x="90" y="91.932504" style="stroke: #000000; stroke-width: 0.8"/>
      </g>
     </g>
     <g id="text_15">
      <!-- 2.5 -->
      <g transform="translate(67.096875 95.731723) scale(0.1 -0.1)">
       <use xlink:href="#DejaVuSans-32"/>
       <use xlink:href="#DejaVuSans-2e" transform="translate(63.623047 0)"/>
       <use xlink:href="#DejaVuSans-35" transform="translate(95.410156 0)"/>
      </g>
     </g>
    </g>
    <g id="text_16">
     <!-- Average time (ms) -->
     <g transform="translate(61.017187 264.543594) rotate(-90) scale(0.1 -0.1)">
      <defs>
       <path id="DejaVuSans-41" d="M 2188 4044 
L 1331 1722 
L 3047 1722 
L 2188 4044 
z
M 1831 4666 
L 2547 4666 
L 4325 0 
L 3669 0 
L 3244 1197 
L 1141 1197 
L 716 0 
L 50 0 
L 1831 4666 
z
" transform="scale(0.015625)"/>
       <path id="DejaVuSans-76" d="M 191 3500 
L 800 3500 
L 1894 563 
L 2988 3500 
L 3597 3500 
L 2284 0 
L 1503 0 
L 191 3500 
z
" transform="scale(0.015625)"/>
       <path id="DejaVuSans-72" d="M 2631 2963 
Q 2534 3019 2420 3045 
Q 2306 3072 2169 3072 
Q 1681 3072 1420 2755 
Q 1159 2438 1159 1844 
L 1159 0 
L 581 0 
L 581 3500 
L 1159 3500 
L 1159 2956 
Q 1341 3275 1631 3429 
Q 1922 3584 2338 3584 
Q 2397 3584 2469 3576 
Q 2541 3569 2628 3553 
L 2631 2963 
z
" transform="scale(0.015625)"/>
       <path id="DejaVuSans-61" d="M 2194 1759 
Q 1497 1759 1228 1600 
Q 959 1441 959 1056 
Q 959 750 1161 570 
Q 1363 391 1709 391 
Q 2188 391 2477 730 
Q 2766 1069 2766 1631 
L 2766 1759 
L 2194 1759 
z
M 3341 1997 
L 3341 0 
L 2766 0 
L 2766 531 
Q 2569 213 2275 61 
Q 1981 -91 1556 -91 
Q 1019 -91 701 211 
Q 384 513 384 1019 
Q 384 1609 779 1909 
Q 1175 2209 1959 2209 
L 2766 2209 
L 2766 2266 
Q 2766 2663 2505 2880 
Q 2244 3097 1772 3097 
Q 1472 3097 1187 3025 
Q 903 2953 641 2809 
L 641 3341 
Q 956 3463 1253 3523 
Q 1550 3584 1831 3584 
Q 2591 3584 2966 3190 
Q 3341 2797 3341 1997 
z
" transform="scale(0.015625)"/>
       <path id="DejaVuSans-67" d="M 2906 1791 
Q 2906 2416 2648 2759 
Q 2391 3103 1925 3103 
Q 1463 3103 1205 2759 
Q 947 2416 947 1791 
Q 947 1169 1205 825 
Q 1463 481 1925 481 
Q 2391 481 2648 825 
Q 2906 1169 2906 1791 
z
M 3481 434 
Q 3481 -459 3084 -895 
Q 2688 -1331 1869 -1331 
Q 1566 -1331 1297 -1286 
Q 1028 -1241 775 -1147 
L 775 -588 
Q 1028 -725 1275 -790 
Q 1522 -856 1778 -856 
Q 2344 -856 2625 -561 
Q 2906 -266 2906 331 
L 2906 616 
Q 2728 306 2450 153 
Q 2172 0 1784 0 
Q 1141 0 747 490 
Q 353 981 353 1791 
Q 353 2603 747 3093 
Q 1141 3584 1784 3584 
Q 2172 3584 2450 3431 
Q 2728 3278 2906 2969 
L 2906 3500 
L 3481 3500 
L 3481 434 
z
" transform="scale(0.015625)"/>
       <path id="DejaVuSans-20" transform="scale(0.015625)"/>
       <path id="DejaVuSans-74" d="M 1172 4494 
L 1172 3500 
L 2356 3500 
L 2356 3053 
L 1172 3053 
L 1172 1153 
Q 1172 725 1289 603 
Q 1406 481 1766 481 
L 2356 481 
L 2356 0 
L 1766 0 
Q 1100 0 847 248 
Q 594 497 594 1153 
L 594 3053 
L 172 3053 
L 172 3500 
L 594 3500 
L 594 4494 
L 1172 4494 
z
" transform="scale(0.015625)"/>
       <path id="DejaVuSans-69" d="M 603 3500 
L 1178 3500 
L 1178 0 
L 603 0 
L 603 3500 
z
M 603 4863 
L 1178 4863 
L 1178 4134 
L 603 4134 
L 603 4863 
z
" transform="scale(0.015625)"/>
       <path id="DejaVuSans-6d" d="M 3328 2828 
Q 3544 3216 3844 3400 
Q 4144 3584 4550 3584 
Q 5097 3584 5394 3201 
Q 5691 2819 5691 2113 
L 5691 0 
L 5113 0 
L 5113 2094 
Q 5113 2597 4934 2840 
Q 4756 3084 4391 3084 
Q 3944 3084 3684 2787 
Q 3425 2491 3425 1978 
L 3425 0 
L 2847 0 
L 2847 2094 
Q 2847 2600 2669 2842 
Q 2491 3084 2119 3084 
Q 1678 3084 1418 2786 
Q 1159 2488 1159 1978 
L 1159 0 
L 581 0 
L 581 3500 
L 1159 3500 
L 1159 2956 
Q 1356 3278 1631 3431 
Q 1906 3584 2284 3584 
Q 2666 3584 2933 3390 
Q 3200 3197 3328 2828 
z
" transform="scale(0.015625)"/>
       <path id="DejaVuSans-28" d="M 1984 4856 
Q 1566 4138 1362 3434 
Q 1159 2731 1159 2009 
Q 1159 1288 1364 580 
Q 1569 -128 1984 -844 
L 1484 -844 
Q 1016 -109 783 600 
Q 550 1309 550 2009 
Q 550 2706 781 3412 
Q 1013 4119 1484 4856 
L 1984 4856 
z
" transform="scale(0.015625)"/>
       <path id="DejaVuSans-73" d="M 2834 3397 
L 2834 2853 
Q 2591 2978 2328 3040 
Q 2066 3103 1784 3103 
Q 1356 3103 1142 2972 
Q 928 2841 928 2578 
Q 928 2378 1081 2264 
Q 1234 2150 1697 2047 
L 1894 2003 
Q 2506 1872 2764 1633 
Q 3022 1394 3022 966 
Q 3022 478 2636 193 
Q 2250 -91 1575 -91 
Q 1294 -91 989 -36 
Q 684 19 347 128 
L 347 722 
Q 666 556 975 473 
Q 1284 391 1588 391 
Q 1994 391 2212 530 
Q 2431 669 2431 922 
Q 2431 1156 2273 1281 
Q 2116 1406 1581 1522 
L 1381 1569 
Q 847 1681 609 1914 
Q 372 2147 372 2553 
Q 372 3047 722 3315 
Q 1072 3584 1716 3584 
Q 2034 3584 2315 3537 
Q 2597 3491 2834 3397 
z
" transform="scale(0.015625)"/>
       <path id="DejaVuSans-29" d="M 513 4856 
L 1013 4856 
Q 1481 4119 1714 3412 
Q 1947 2706 1947 2009 
Q 1947 1309 1714 600 
Q 1481 -109 1013 -844 
L 513 -844 
Q 928 -128 1133 580 
Q 1338 1288 1338 2009 
Q 1338 2731 1133 3434 
Q 928 4138 513 4856 
z
" transform="scale(0.015625)"/>
      </defs>
      <use xlink:href="#DejaVuSans-41"/>
      <use xlink:href="#DejaVuSans-76" transform="translate(62.533203 0)"/>
      <use xlink:href="#DejaVuSans-65" transform="translate(121.712891 0)"/>
      <use xlink:href="#DejaVuSans-72" transform="translate(183.236328 0)"/>
      <use xlink:href="#DejaVuSans-61" transform="translate(224.349609 0)"/>
      <use xlink:href="#DejaVuSans-67" transform="translate(285.628906 0)"/>
      <use xlink:href="#DejaVuSans-65" transform="translate(349.105469 0)"/>
      <use xlink:href="#DejaVuSans-20" transform="translate(410.628906 0)"/>
      <use xlink:href="#DejaVuSans-74" transform="translate(442.416016 0)"/>
      <use xlink:href="#DejaVuSans-69" transform="translate(481.625 0)"/>
      <use xlink:href="#DejaVuSans-6d" transform="translate(509.408203 0)"/>
      <use xlink:href="#DejaVuSans-65" transform="translate(606.820312 0)"/>
      <use xlink:href="#DejaVuSans-20" transform="translate(668.34375 0)"/>
      <use xlink:href="#DejaVuSans-28" transform="translate(700.130859 0)"/>
      <use xlink:href="#DejaVuSans-6d" transform="translate(739.144531 0)"/>
      <use xlink:href="#DejaVuSans-73" transform="translate(836.556641 0)"/>
      <use xlink:href="#DejaVuSans-29" transform="translate(888.65625 0)"/>
     </g>
    </g>
   </g>
   <g id="line2d_15">
    <path d="M 115.363636 297.726257 
L 115.64624 304.311138 
L 115.928843 110.934423 
L 116.211446 170.83371 
L 116.494049 149.629107 
L 117.907065 275.362745 
L 118.189668 257.01007 
L 118.472271 252.399264 
L 118.754875 290.095916 
L 119.037478 292.711548 
L 119.320081 275.871801 
L 119.602684 271.115657 
L 119.885287 292.380267 
L 120.167891 297.322132 
L 120.450494 181.590062 
L 120.733097 295.591362 
L 121.0157 326.217551 
L 121.298303 67.667351 
L 121.580907 328.16607 
L 121.86351 317.606907 
L 122.428716 326.218757 
L 122.711319 287.501652 
L 122.993923 292.970301 
L 123.276526 308.755286 
L 123.559129 285.987262 
L 123.841732 295.496214 
L 124.124335 318.599579 
L 124.406938 299.747 
L 124.689542 303.137344 
L 125.254748 313.52326 
L 125.537351 301.945003 
L 125.819954 305.965799 
L 126.102558 322.632335 
L 126.385161 297.818714 
L 126.667764 212.767223 
L 126.950367 298.898003 
L 127.23297 321.343745 
L 127.515574 322.835983 
L 128.08078 307.589121 
L 128.363383 307.24498 
L 128.645986 307.125492 
L 128.92859 307.991573 
L 129.211193 300.352234 
L 129.493796 304.14015 
L 130.059002 291.325224 
L 130.624209 305.620534 
L 130.906812 300.820239 
L 131.189415 268.973472 
L 131.472018 279.426101 
L 131.754621 278.487585 
L 132.037225 291.377731 
L 132.319828 294.904929 
L 132.602431 289.803638 
L 132.885034 291.964089 
L 133.167637 285.93499 
L 133.450241 293.845767 
L 133.732844 288.846411 
L 134.015447 298.488133 
L 134.29805 292.436753 
L 134.580653 292.366436 
L 134.863257 301.387852 
L 135.14586 296.805201 
L 135.428463 296.991261 
L 135.711066 268.215961 
L 135.993669 294.922213 
L 136.276272 291.115573 
L 136.558876 293.987172 
L 136.841479 300.902141 
L 137.406685 286.145343 
L 137.689288 381.519337 
L 137.971892 381.509953 
L 138.254495 381.201034 
L 138.537098 381.861021 
L 138.819701 379.284216 
L 139.102304 379.635285 
L 139.384908 298.708339 
L 139.667511 283.264967 
L 139.950114 300.058668 
L 140.51532 302.709312 
L 140.797924 307.326999 
L 141.080527 268.645784 
L 141.36313 272.920851 
L 141.645733 383.430328 
L 141.928336 383.588304 
L 142.210939 382.230801 
L 142.493543 383.570716 
L 142.776146 383.004355 
L 143.058749 383.440836 
L 143.341352 383.410446 
L 143.623955 382.612283 
L 143.906559 383.401061 
L 144.189162 383.275828 
L 144.471765 382.877963 
L 144.754368 383.62575 
L 145.319575 383.434974 
L 145.602178 383.665513 
L 145.884781 383.678373 
L 146.449987 383.205663 
L 146.732591 382.932974 
L 147.015194 383.533305 
L 147.297797 383.691269 
L 147.5804 383.16583 
L 147.863003 383.657333 
L 148.42821 292.325655 
L 148.710813 335.53994 
L 148.993416 334.139176 
L 149.276019 383.621022 
L 149.558622 383.472443 
L 149.841226 383.46424 
L 150.123829 383.789576 
L 150.406432 331.379821 
L 150.689035 335.59962 
L 150.971638 332.231637 
L 151.254242 333.132707 
L 151.536845 383.644473 
L 151.819448 383.308605 
L 152.102051 383.632759 
L 152.384654 383.759116 
L 152.667258 329.478063 
L 152.949861 331.83953 
L 153.232464 333.257953 
L 153.515067 333.393695 
L 153.79767 383.679578 
L 154.362877 383.677215 
L 154.64548 382.535062 
L 154.928083 332.088792 
L 155.210686 336.008039 
L 155.493289 336.593158 
L 155.775893 336.1754 
L 156.058496 382.987961 
L 156.341099 383.815297 
L 156.623702 383.429158 
L 156.906305 383.866809 
L 157.188909 338.121414 
L 157.471512 338.09574 
L 157.754115 334.806196 
L 158.036718 332.938561 
L 158.319321 328.051684 
L 158.601925 334.580337 
L 158.884528 332.573356 
L 159.167131 331.573967 
L 159.449734 383.809458 
L 160.01494 383.732225 
L 160.297544 383.891383 
L 160.580147 277.322906 
L 160.86275 335.809189 
L 161.145353 306.870379 
L 161.427956 296.95124 
L 161.71056 312.314934 
L 161.993163 334.673964 
L 162.275766 329.80691 
L 162.558369 322.010051 
L 162.840972 383.828192 
L 163.123576 383.731055 
L 163.688782 383.894905 
L 163.971385 338.172961 
L 164.253988 335.865288 
L 164.536592 335.068353 
L 164.819195 326.442438 
L 165.101798 335.104641 
L 165.384401 334.219872 
L 165.667004 334.643551 
L 165.949607 332.493807 
L 166.232211 383.802413 
L 166.514814 383.659673 
L 166.797417 383.779044 
L 167.08002 383.647972 
L 167.362623 339.235505 
L 167.645227 338.830631 
L 167.92783 336.746359 
L 168.210433 336.775707 
L 168.493036 336.299417 
L 168.775639 332.24465 
L 169.058243 330.708109 
L 169.340846 330.464756 
L 169.623449 383.699483 
L 169.906052 383.767343 
L 170.188655 383.664342 
L 170.471259 383.879681 
L 170.753862 334.449288 
L 171.319068 337.706032 
L 171.601671 330.350147 
L 171.884274 330.235328 
L 172.166878 328.872139 
L 172.449481 330.650828 
L 172.732084 326.39102 
L 173.014687 327.650379 
L 173.29729 277.885721 
L 173.579894 318.076633 
L 173.862497 295.639738 
L 174.1451 381.631676 
L 174.427703 382.595924 
L 174.710306 382.396968 
L 174.99291 381.748683 
L 175.275513 383.852755 
L 175.840719 383.591814 
L 176.123322 383.767319 
L 176.405926 336.182386 
L 176.971132 331.763608 
L 177.253735 337.711871 
L 177.536338 334.002322 
L 177.818942 334.66699 
L 178.101545 333.045013 
L 178.384148 329.262936 
L 178.666751 329.287556 
L 178.949354 328.056376 
L 179.231957 324.544472 
L 179.514561 322.757534 
L 179.797164 381.722904 
L 180.079767 382.164112 
L 180.36237 382.387618 
L 180.644973 381.775597 
L 180.927577 383.843393 
L 181.21018 383.289905 
L 181.492783 383.769671 
L 181.775386 383.7205 
L 182.057989 332.148589 
L 182.340593 333.345647 
L 182.623196 327.650191 
L 183.188402 331.042701 
L 183.471005 321.346355 
L 183.753609 321.898591 
L 184.036212 329.28263 
L 184.318815 320.081227 
L 184.601418 321.038501 
L 184.884021 317.581736 
L 185.166624 326.188507 
L 185.449228 381.574336 
L 185.731831 382.579553 
L 186.014434 380.483672 
L 186.57964 383.816491 
L 187.144847 383.480623 
L 187.42745 383.783714 
L 187.710053 286.595644 
L 187.992656 333.724823 
L 188.27526 334.384775 
L 188.840466 322.398028 
L 189.123069 315.928866 
L 189.405672 289.131609 
L 189.688276 317.596715 
L 189.970879 222.200744 
L 190.253482 316.846483 
L 190.536085 314.790213 
L 190.818688 319.128423 
L 191.101291 381.776779 
L 191.383895 382.608796 
L 191.666498 382.350196 
L 191.949101 382.404001 
L 192.231704 383.718171 
L 192.514307 383.875 
L 193.079514 383.741587 
L 193.362117 329.140791 
L 193.64472 328.971172 
L 193.927323 321.879751 
L 194.209927 320.970419 
L 194.49253 307.674276 
L 195.057736 302.576695 
L 195.340339 305.21676 
L 195.622943 302.890411 
L 195.905546 298.77009 
L 196.188149 302.737116 
L 196.470752 299.452276 
L 196.753355 383.498175 
L 197.035958 382.874464 
L 197.318562 383.481781 
L 197.601165 383.444358 
L 197.883768 296.396874 
L 198.166371 304.800208 
L 198.448974 301.039065 
L 198.731578 299.979996 
L 199.014181 299.413694 
L 199.296784 300.869411 
L 199.579387 301.58339 
L 199.86199 305.474319 
L 200.144594 304.277133 
L 200.427197 301.095257 
L 200.7098 300.302992 
L 200.992403 298.791036 
L 201.275006 383.679567 
L 201.55761 383.68894 
L 201.840213 383.093278 
L 202.122816 383.574226 
L 202.405419 307.313811 
L 202.688022 301.179464 
L 202.970625 306.269955 
L 203.253229 226.168086 
L 203.535832 303.765701 
L 203.818435 300.464502 
L 204.383641 300.658765 
L 204.666245 295.706451 
L 204.948848 299.974192 
L 205.231451 295.44537 
L 205.514054 293.395126 
L 205.796657 383.368273 
L 206.079261 383.615194 
L 206.361864 383.509889 
L 206.644467 383.713479 
L 206.92707 299.459297 
L 207.209673 288.056591 
L 207.492277 297.95091 
L 207.77488 291.949989 
L 208.057483 290.989298 
L 208.340086 294.911857 
L 208.622689 291.22797 
L 208.905292 291.822485 
L 209.470499 291.101601 
L 209.753102 271.472038 
L 210.035705 278.337882 
L 210.318308 288.483757 
L 210.600912 286.421836 
L 210.883515 281.174423 
L 211.166118 283.493833 
L 211.448721 262.764035 
L 211.731324 290.539863 
L 212.013928 288.48845 
L 212.296531 291.191717 
L 212.579134 383.507549 
L 212.861737 383.058172 
L 213.426944 383.592949 
L 213.709547 300.315958 
L 213.99215 273.394134 
L 214.274753 304.161553 
L 214.557356 305.005283 
L 214.839959 303.653679 
L 215.122563 305.666382 
L 215.405166 297.958118 
L 215.687769 301.334187 
L 215.970372 297.154163 
L 216.252975 298.157133 
L 216.535579 283.743797 
L 216.818182 296.200458 
L 217.100785 295.762819 
L 217.383388 294.754056 
L 217.665991 294.575017 
L 217.948595 294.950695 
L 218.231198 295.863408 
L 218.513801 298.435603 
L 218.796404 296.012069 
L 219.079007 297.578954 
L 219.361611 383.698301 
L 219.644214 383.288711 
L 220.20942 383.787212 
L 220.492023 303.825627 
L 220.774626 304.745443 
L 221.05723 302.18729 
L 221.339833 305.929698 
L 221.622436 303.661835 
L 221.905039 304.551203 
L 222.187642 301.266374 
L 222.470246 302.716263 
L 222.752849 297.103821 
L 223.035452 300.373496 
L 223.318055 276.598992 
L 223.600658 306.018621 
L 223.883262 280.650143 
L 224.165865 286.89946 
L 224.448468 320.709607 
L 224.731071 323.426952 
L 225.296278 325.383604 
L 225.578881 324.642792 
L 225.861484 325.666755 
L 226.144087 383.938167 
L 226.991897 383.952233 
L 227.2745 333.65006 
L 227.557103 333.01577 
L 227.839706 333.28963 
L 228.122309 324.323564 
L 228.404913 320.708718 
L 228.687516 325.809693 
L 228.970119 328.399277 
L 229.252722 327.018406 
L 229.535325 326.34901 
L 230.100532 324.139645 
L 230.383135 325.019651 
L 230.665738 319.163786 
L 230.948341 323.323987 
L 231.230945 321.588537 
L 231.513548 321.333389 
L 231.796151 323.765149 
L 232.078754 321.348601 
L 232.361357 320.85821 
L 232.64396 322.990425 
L 232.926564 383.958048 
L 233.49177 383.842223 
L 233.774373 383.725216 
L 234.056976 334.462183 
L 234.622183 322.847662 
L 234.904786 299.48242 
L 235.187389 335.578463 
L 235.469992 331.965969 
L 235.752596 331.205322 
L 236.035199 333.192387 
L 236.317802 324.597037 
L 236.600405 320.510663 
L 236.883008 322.54106 
L 237.165612 328.682451 
L 237.730818 321.614375 
L 238.013421 327.372938 
L 238.296024 329.542541 
L 238.861231 330.795779 
L 239.143834 327.986048 
L 239.426437 329.62429 
L 239.991643 323.295727 
L 240.274247 324.987962 
L 240.55685 324.838202 
L 240.839453 383.900733 
L 241.122056 384.044678 
L 241.404659 383.719341 
L 241.687263 383.994313 
L 241.969866 333.598326 
L 242.252469 331.440472 
L 242.535072 335.707195 
L 243.100279 328.252734 
L 243.382882 329.197124 
L 243.665485 327.801029 
L 243.948088 332.512483 
L 244.230691 332.925642 
L 244.513295 296.667422 
L 244.795898 333.451069 
L 245.078501 331.300154 
L 245.643707 332.43064 
L 245.92631 326.723389 
L 246.208914 329.984814 
L 246.77412 331.297802 
L 247.056723 325.25466 
L 247.339326 331.474536 
L 247.62193 318.234492 
L 247.904533 321.976806 
L 248.187136 320.353753 
L 248.469739 321.040713 
L 248.752342 383.919444 
L 249.034946 383.929987 
L 249.317549 383.594131 
L 249.600152 383.946382 
L 249.882755 334.036164 
L 250.165358 334.565066 
L 250.447962 333.967076 
L 250.730565 334.533436 
L 251.013168 330.107661 
L 251.295771 334.590904 
L 251.578374 331.566981 
L 251.860977 333.722553 
L 252.708787 329.06742 
L 252.99139 329.106001 
L 253.273993 328.050443 
L 253.556597 325.458332 
L 253.8392 299.373803 
L 254.121803 327.503859 
L 254.404406 271.5208 
L 254.687009 329.40667 
L 254.969613 328.43196 
L 255.252216 333.554046 
L 255.534819 323.519351 
L 256.382629 328.405023 
L 256.665232 383.959254 
L 257.230438 384.035328 
L 257.513041 383.953403 
L 257.795644 340.443141 
L 258.078248 340.404513 
L 258.360851 339.525677 
L 258.643454 330.352184 
L 258.926057 327.971912 
L 259.20866 330.397798 
L 259.491264 304.555626 
L 259.773867 333.608974 
L 260.339073 329.309603 
L 260.621676 329.328314 
L 260.90428 327.62797 
L 261.186883 323.81535 
L 261.469486 328.821598 
L 261.752089 326.272878 
L 262.034692 327.134231 
L 262.317296 328.592241 
L 262.599899 327.455905 
L 262.882502 323.734595 
L 263.165105 328.201409 
L 263.447708 322.166517 
L 263.730311 326.994897 
L 264.012915 295.27327 
L 264.295518 326.41096 
L 264.578121 384.041179 
L 264.860724 384.041155 
L 265.143327 383.506379 
L 265.425931 384.100835 
L 265.708534 341.241246 
L 265.991137 339.938789 
L 266.27374 334.220001 
L 266.556343 334.28435 
L 266.838947 330.328908 
L 267.12155 330.555925 
L 267.404153 327.610464 
L 267.686756 326.945784 
L 267.969359 330.103132 
L 268.251963 327.540287 
L 268.534566 327.951059 
L 268.817169 330.163912 
L 269.099772 323.196308 
L 269.382375 327.869064 
L 269.664978 326.744488 
L 269.947582 328.223655 
L 270.230185 327.127081 
L 270.512788 328.372246 
L 270.795391 330.55238 
L 271.077994 331.643079 
L 271.360598 325.816504 
L 271.925804 322.328062 
L 272.208407 319.775866 
L 272.49101 319.805086 
L 272.773614 325.663256 
L 273.056217 322.730584 
L 273.33882 318.3656 
L 273.621423 384.040009 
L 274.18663 384.030624 
L 274.469233 383.913593 
L 274.751836 309.335349 
L 275.034439 336.587272 
L 275.317042 333.274359 
L 275.599645 328.629711 
L 276.164852 326.198033 
L 276.730058 327.391661 
L 277.012661 324.579566 
L 277.295265 324.672058 
L 277.577868 325.527479 
L 277.860471 324.40639 
L 278.143074 319.623613 
L 278.425677 325.225581 
L 278.708281 321.364937 
L 278.990884 314.427876 
L 279.273487 319.696317 
L 279.55609 315.822941 
L 280.121297 322.174814 
L 280.4039 313.992436 
L 280.686503 318.132861 
L 280.969106 318.445243 
L 281.251709 317.684678 
L 281.534312 318.465195 
L 281.816916 315.715131 
L 282.099519 315.07382 
L 282.382122 311.130093 
L 282.664725 384.052881 
L 283.229932 384.0669 
L 283.512535 384.134794 
L 283.795138 331.424206 
L 284.077741 334.032665 
L 284.360344 333.653524 
L 284.642948 318.933107 
L 284.925551 327.075535 
L 285.208154 323.913681 
L 285.490757 325.135477 
L 285.77336 324.425171 
L 286.055964 332.223575 
L 286.338567 329.47591 
L 286.62117 330.632081 
L 286.903773 328.19323 
L 287.186376 330.176749 
L 287.468979 322.688703 
L 287.751583 329.757856 
L 288.034186 300.7662 
L 288.316789 319.168725 
L 288.599392 323.569681 
L 288.881995 324.1874 
L 289.164599 330.631953 
L 289.729805 324.098501 
L 290.012408 322.230854 
L 290.295011 325.253584 
L 290.577615 323.444412 
L 290.860218 316.615054 
L 291.142821 316.068529 
L 291.425424 317.353374 
L 291.708027 384.051687 
L 292.273234 384.05989 
L 292.555837 382.209703 
L 292.83844 336.761607 
L 293.403646 334.170712 
L 293.68625 330.050263 
L 293.968853 329.82341 
L 294.251456 301.534008 
L 294.534059 332.245726 
L 294.816662 325.829364 
L 295.099266 330.717412 
L 295.947075 325.82583 
L 296.229678 314.452379 
L 296.512282 321.080581 
L 297.077488 322.140843 
L 297.360091 328.648364 
L 297.642694 327.969642 
L 297.925298 326.847418 
L 298.207901 329.17963 
L 298.490504 323.596501 
L 298.773107 326.708224 
L 299.05571 325.765051 
L 299.338313 326.474174 
L 299.620917 324.242622 
L 299.90352 313.766625 
L 300.186123 321.429403 
L 300.468726 322.138562 
L 300.751329 384.003721 
L 301.316536 384.137123 
L 301.599139 384.186282 
L 301.881742 338.814225 
L 302.164345 336.374344 
L 302.446949 338.278255 
L 302.729552 339.184064 
L 303.012155 336.621289 
L 303.294758 337.206349 
L 303.577361 336.204596 
L 303.859965 308.781861 
L 304.142568 336.587272 
L 304.425171 332.754806 
L 304.707774 331.075607 
L 304.990377 330.24242 
L 305.272981 328.346653 
L 305.555584 328.647392 
L 305.838187 327.670319 
L 306.12079 302.647994 
L 306.403393 303.752665 
L 306.685996 314.814026 
L 306.9686 321.107414 
L 307.533806 317.858861 
L 307.816409 314.225292 
L 308.099012 317.421198 
L 308.381616 311.008218 
L 308.664219 315.552323 
L 308.946822 311.468336 
L 309.229425 314.050969 
L 309.512028 313.206092 
L 309.794632 309.80078 
L 310.077235 310.56839 
L 310.642441 307.871125 
L 310.925044 303.317811 
L 311.207648 304.48208 
L 311.490251 291.67366 
L 311.772854 271.023996 
L 312.055457 305.847493 
L 312.33806 305.137281 
L 312.620663 303.686269 
L 312.903267 296.47894 
L 313.18587 270.039983 
L 313.468473 280.942994 
L 313.751076 274.641229 
L 314.033679 279.921372 
L 314.316283 383.878476 
L 314.598886 383.396369 
L 314.881489 383.818831 
L 315.164092 383.478306 
L 315.446695 302.093664 
L 315.729299 312.228 
L 316.294505 306.124102 
L 316.577108 305.93576 
L 316.859711 310.764069 
L 317.142315 311.86523 
L 317.424918 282.81304 
L 317.707521 300.388626 
L 317.990124 295.076771 
L 318.272727 307.39501 
L 318.55533 306.373306 
L 318.837934 306.313661 
L 319.120537 304.546651 
L 319.40314 303.970906 
L 319.685743 276.77211 
L 319.968346 299.916022 
L 320.25095 292.053223 
L 320.533553 292.235772 
L 320.816156 301.468934 
L 321.098759 292.935546 
L 321.381362 293.036253 
L 321.663966 292.961349 
L 321.946569 291.703453 
L 322.229172 280.719664 
L 322.511775 292.366881 
L 322.794378 298.072739 
L 323.076982 295.794308 
L 323.359585 297.025348 
L 323.642188 299.499188 
L 323.924791 300.305426 
L 324.207394 292.352803 
L 324.489997 289.049298 
L 324.772601 296.309134 
L 325.055204 292.092834 
L 325.337807 297.839918 
L 325.62041 291.580372 
L 325.903013 299.771913 
L 326.185617 298.881328 
L 326.46822 296.496305 
L 327.033426 307.948358 
L 327.316029 308.606052 
L 327.598633 306.820271 
L 327.881236 384.030635 
L 328.729045 383.977977 
L 329.011649 330.496281 
L 329.294252 329.791838 
L 329.576855 330.746748 
L 329.859458 329.155196 
L 330.142061 329.905358 
L 330.424664 327.756866 
L 330.707268 326.657987 
L 331.272474 322.620656 
L 331.555077 322.821976 
L 331.83768 319.349858 
L 332.120284 322.491936 
L 332.402887 305.111689 
L 332.68549 321.184787 
L 332.968093 319.087818 
L 333.5333 329.590601 
L 333.815903 331.178513 
L 334.098506 329.388006 
L 334.381109 330.382831 
L 334.663712 328.738573 
L 334.946316 327.914783 
L 335.228919 325.213868 
L 335.511522 324.775 
L 335.794125 323.396481 
L 336.076728 324.569034 
L 336.359331 326.255325 
L 336.924538 323.101605 
L 337.207141 316.852521 
L 337.772347 312.580028 
L 338.054951 311.772562 
L 338.337554 314.203117 
L 338.620157 304.986338 
L 338.90276 308.729998 
L 339.185363 305.323318 
L 339.467967 308.418739 
L 339.75057 296.702446 
L 340.033173 271.380658 
L 340.315776 305.522285 
L 340.598379 311.343114 
L 340.880983 283.490264 
L 341.163586 311.936365 
L 341.446189 384.110197 
L 342.011395 384.057561 
L 342.293998 383.925295 
L 342.576602 331.26038 
L 342.859205 333.81728 
L 343.141808 329.461739 
L 343.424411 305.906845 
L 343.707014 324.928119 
L 343.989618 327.225284 
L 344.272221 316.651447 
L 344.554824 327.828014 
L 344.837427 322.082123 
L 345.12003 325.419704 
L 345.402634 323.830551 
L 345.685237 323.690152 
L 345.96784 324.910472 
L 346.250443 330.109861 
L 346.533046 332.058274 
L 346.81565 331.515294 
L 347.098253 332.802538 
L 347.380856 272.326172 
L 347.663459 327.669944 
L 347.946062 329.971802 
L 348.228665 327.355116 
L 348.511269 328.177842 
L 348.793872 323.582295 
L 349.076475 326.134573 
L 349.359078 327.040359 
L 349.924285 324.457632 
L 350.206888 325.609158 
L 350.489491 324.051565 
L 350.772094 323.290918 
L 351.054697 323.373978 
L 351.619904 320.283413 
L 351.902507 320.529211 
L 352.18511 317.545133 
L 352.467713 306.855061 
L 352.750317 304.824782 
L 353.03292 311.957183 
L 353.315523 299.524664 
L 353.598126 312.792769 
L 353.880729 306.981313 
L 354.163332 319.535649 
L 354.445936 316.511762 
L 354.728539 304.485427 
L 355.011142 384.004891 
L 355.293745 384.068081 
L 355.576348 383.925307 
L 355.858952 384.132454 
L 356.141555 333.003928 
L 356.424158 327.182151 
L 356.706761 335.936435 
L 356.989364 334.088635 
L 357.271968 334.39526 
L 357.554571 334.059416 
L 357.837174 336.174019 
L 358.119777 334.466677 
L 358.40238 334.438569 
L 358.684984 335.915372 
L 358.967587 332.639893 
L 359.25019 330.704376 
L 359.532793 330.797956 
L 360.097999 332.595449 
L 360.380603 329.63591 
L 360.663206 331.624157 
L 360.945809 330.361463 
L 361.228412 326.429484 
L 361.511015 331.567988 
L 362.076222 327.193642 
L 362.358825 328.853041 
L 362.641428 328.920912 
L 363.206635 324.67998 
L 363.489238 295.234419 
L 363.771841 326.473975 
L 364.054444 325.079073 
L 364.337047 324.677651 
L 364.619651 324.965542 
L 365.184857 320.662589 
L 365.46746 322.900063 
L 365.750063 322.162831 
L 366.032666 323.457061 
L 366.31527 384.146472 
L 366.880476 383.907765 
L 367.163079 384.2038 
L 367.445682 342.371544 
L 367.728286 342.104741 
L 368.293492 338.697113 
L 368.576095 338.388089 
L 368.858698 336.356557 
L 369.141302 337.689462 
L 369.423905 337.045858 
L 369.706508 336.05817 
L 369.989111 333.617037 
L 370.271714 333.553858 
L 370.554318 333.907314 
L 370.836921 308.874599 
L 371.119524 331.336278 
L 371.402127 303.051991 
L 371.68473 331.793799 
L 371.967334 331.528201 
L 372.249937 331.805548 
L 372.53254 330.342728 
L 372.815143 333.363129 
L 373.097746 328.512469 
L 373.380349 326.642517 
L 373.662953 328.355734 
L 373.945556 328.266765 
L 374.228159 326.959639 
L 374.793365 325.403169 
L 375.075969 326.035142 
L 375.641175 324.468176 
L 375.923778 321.632677 
L 376.488985 312.428711 
L 376.771588 313.209298 
L 377.054191 293.483546 
L 377.336794 320.155909 
L 377.619397 384.125421 
L 378.467207 384.186271 
L 378.74981 340.639651 
L 379.032413 341.403774 
L 379.315016 339.69525 
L 379.59762 339.752554 
L 379.880223 339.342999 
L 380.162826 313.186011 
L 380.445429 338.058072 
L 380.728032 335.312748 
L 381.010636 334.582502 
L 381.575842 333.958756 
L 382.141048 332.785032 
L 382.423652 331.799662 
L 382.706255 329.271958 
L 382.988858 331.723635 
L 383.271461 330.833073 
L 384.119271 333.069388 
L 384.401874 276.346652 
L 384.684477 329.534092 
L 384.96708 327.111846 
L 385.249683 328.250347 
L 385.532287 326.953765 
L 385.81489 328.446974 
L 386.097493 327.145687 
L 386.380096 326.896425 
L 386.662699 326.086607 
L 386.945303 324.457656 
L 387.227906 324.348816 
L 387.510509 324.019993 
L 387.793112 323.93808 
L 388.358319 321.814091 
L 388.640922 322.162796 
L 388.923525 384.148825 
L 389.771335 384.209663 
L 390.053938 341.273883 
L 390.336541 341.826247 
L 390.901747 339.086762 
L 391.18435 339.66947 
L 391.466954 338.148176 
L 391.749557 337.640314 
L 392.03216 334.887957 
L 392.314763 334.877449 
L 392.597366 333.91313 
L 392.87997 332.389519 
L 393.162573 328.64593 
L 393.445176 327.068443 
L 393.727779 321.50756 
L 394.010382 329.538866 
L 394.292986 330.486709 
L 394.575589 330.649377 
L 394.858192 329.908541 
L 395.140795 330.040819 
L 395.423398 332.270113 
L 395.706002 329.156086 
L 395.988605 330.027912 
L 396.271208 327.899337 
L 396.553811 327.991747 
L 396.836414 327.277919 
L 397.119017 326.234086 
L 397.401621 324.049271 
L 397.684224 298.83479 
L 397.966827 316.804274 
L 398.24943 321.330721 
L 398.532033 320.257645 
L 398.814637 320.443705 
L 399.09724 321.994265 
L 399.379843 322.332497 
L 399.662446 324.423732 
L 399.945049 323.018299 
L 400.227653 384.110197 
L 401.075462 384.214367 
L 401.358065 339.204893 
L 401.640669 336.525041 
L 401.923272 336.730994 
L 402.205875 340.545989 
L 402.488478 339.024637 
L 402.771081 339.068004 
L 403.053684 337.618069 
L 403.336288 334.55911 
L 403.618891 334.796647 
L 403.901494 306.897715 
L 404.184097 333.680262 
L 404.4667 332.443325 
L 405.031907 327.987077 
L 405.31451 333.966959 
L 405.597113 333.058856 
L 405.879716 333.091598 
L 406.16232 331.138516 
L 406.444923 333.945896 
L 406.727526 333.648667 
L 407.010129 330.036185 
L 407.292732 328.94434 
L 407.575336 329.385501 
L 407.857939 328.853053 
L 408.140542 327.80097 
L 408.423145 326.161499 
L 408.705748 327.135132 
L 408.988351 325.659488 
L 409.270955 325.112939 
L 409.553558 320.520973 
L 409.836161 322.127714 
L 410.118764 320.39107 
L 410.401367 382.998493 
L 410.683971 383.222022 
L 410.966574 383.127178 
L 411.249177 383.207933 
L 411.53178 333.739837 
L 411.814383 329.620534 
L 412.096987 335.134738 
L 412.37959 333.930636 
L 412.662193 334.276954 
L 412.944796 331.578496 
L 413.227399 332.059397 
L 413.510003 331.983346 
L 413.792606 329.748178 
L 414.357812 329.208662 
L 414.640415 326.068972 
L 414.923018 324.367446 
L 415.205622 325.236932 
L 415.488225 305.855204 
L 415.770828 329.610154 
L 416.336034 329.42757 
L 416.618638 329.150246 
L 416.901241 329.74001 
L 417.183844 326.273791 
L 417.466447 325.826766 
L 418.031654 324.734932 
L 418.314257 320.369995 
L 418.59686 319.831754 
L 418.879463 318.604085 
L 419.162066 320.175814 
L 419.44467 322.675421 
L 419.727273 319.828255 
L 420.009876 320.545594 
L 420.292479 269.372086 
L 420.575082 383.15531 
L 420.857685 383.055832 
L 421.140289 383.328475 
L 421.422892 382.947016 
L 421.705495 338.365925 
L 421.988098 338.052256 
L 422.270701 339.163948 
L 422.553305 335.031937 
L 422.835908 335.323314 
L 423.118511 336.037119 
L 423.401114 335.409885 
L 423.683717 330.970114 
L 423.966321 329.709808 
L 424.248924 333.21572 
L 424.531527 329.927323 
L 424.81413 328.692702 
L 425.096733 328.283194 
L 425.379337 328.547622 
L 425.66194 329.417108 
L 425.944543 331.069463 
L 426.227146 329.86879 
L 426.509749 332.683202 
L 426.792352 329.039277 
L 427.074956 329.427827 
L 427.357559 325.494655 
L 427.640162 328.132169 
L 427.922765 323.408101 
L 428.205368 321.779067 
L 428.487972 311.648464 
L 428.770575 325.362353 
L 429.053178 327.682816 
L 429.335781 326.696288 
L 429.618384 326.456399 
L 429.900988 324.725653 
L 430.183591 324.092486 
L 430.466194 322.592291 
L 430.748797 383.237223 
L 431.0314 383.013693 
L 431.314004 383.308628 
L 431.596607 383.218512 
L 431.87921 342.871262 
L 432.161813 341.686936 
L 432.444416 339.45302 
L 432.727019 336.195083 
L 433.009623 335.152408 
L 433.292226 299.56899 
L 433.574829 334.289908 
L 433.857432 333.752802 
L 434.140035 331.620623 
L 434.422639 335.340785 
L 434.705242 332.480783 
L 434.987845 334.174071 
L 435.270448 332.658605 
L 435.553051 332.751038 
L 435.835655 331.36785 
L 436.118258 331.388913 
L 436.400861 334.523958 
L 436.683464 333.38651 
L 436.966067 331.559796 
L 437.248671 332.491314 
L 437.531274 330.238605 
L 437.813877 299.738258 
L 438.09648 330.280732 
L 438.661687 327.634862 
L 438.94429 324.536047 
L 439.226893 327.474534 
L 439.509496 326.601502 
L 439.792099 325.123564 
L 440.074702 298.867274 
L 440.357306 324.765439 
L 440.639909 322.647255 
L 440.922512 382.828815 
L 441.205115 383.404584 
L 441.487718 383.102651 
L 441.770322 383.308593 
L 442.052925 340.933299 
L 442.335528 340.01821 
L 442.618131 340.907601 
L 443.465941 337.60405 
L 443.748544 336.995528 
L 444.31375 336.574259 
L 444.596354 334.783822 
L 444.878957 335.229629 
L 445.444163 333.213321 
L 445.726766 331.127973 
L 446.009369 332.54512 
L 446.291973 328.699758 
L 446.574576 332.756912 
L 446.857179 332.82483 
L 447.139782 332.604788 
L 447.422385 333.833534 
L 447.704989 329.143237 
L 447.987592 305.622641 
L 448.270195 327.111717 
L 448.552798 327.534202 
L 448.835401 327.330577 
L 449.118005 325.895843 
L 449.400608 325.459362 
L 449.683211 324.502111 
L 449.965814 324.979619 
L 450.248417 322.825206 
L 450.531021 300.549844 
L 450.813624 321.409241 
L 451.096227 323.246462 
L 451.661433 318.782094 
L 451.944036 321.965081 
L 452.22664 384.155822 
L 452.791846 384.141792 
L 453.074449 384.210821 
L 453.357052 341.86016 
L 453.639656 339.832115 
L 453.922259 340.309623 
L 454.487465 338.914721 
L 454.770068 338.847962 
L 455.052672 337.436678 
L 455.335275 337.646142 
L 455.617878 333.80779 
L 455.900481 335.342014 
L 456.183084 332.320431 
L 456.465688 330.581471 
L 456.748291 330.498387 
L 457.313497 331.758752 
L 457.5961 279.058076 
L 457.878703 333.350222 
L 458.44391 325.489681 
L 458.726513 333.297563 
L 459.291719 328.135621 
L 459.574323 327.604379 
L 459.856926 325.701615 
L 460.139529 326.814524 
L 460.422132 326.188437 
L 460.704735 324.328958 
L 460.987339 324.445919 
L 461.269942 322.926965 
L 461.835148 325.513167 
L 462.400355 322.925795 
L 462.682958 322.684783 
L 462.965561 322.051663 
L 463.248164 318.81012 
L 463.530767 384.144144 
L 464.378577 384.208516 
L 464.66118 341.162703 
L 464.943783 339.813462 
L 465.226386 341.443537 
L 465.50899 340.321278 
L 466.074196 335.447273 
L 466.356799 333.927231 
L 466.639402 336.870271 
L 466.922006 332.531042 
L 467.204609 332.384757 
L 467.487212 333.249562 
L 467.769815 332.51934 
L 468.052418 330.244409 
L 468.335022 331.120916 
L 468.617625 306.328967 
L 468.900228 329.798637 
L 469.182831 330.188298 
L 469.465434 329.483797 
L 469.748037 327.544722 
L 470.030641 329.246249 
L 470.313244 321.770736 
L 470.595847 325.265122 
L 471.161053 322.930511 
L 471.443657 322.98668 
L 471.72626 324.221266 
L 472.008863 323.25463 
L 472.574069 319.752181 
L 472.856673 319.769676 
L 473.139276 321.204364 
L 473.421879 318.221479 
L 473.704482 298.741771 
L 473.987085 322.714026 
L 474.269689 319.196294 
L 474.552292 319.860986 
L 474.834895 384.092667 
L 475.682704 384.211991 
L 475.965308 341.505604 
L 476.247911 338.097882 
L 476.530514 338.197278 
L 476.813117 327.945945 
L 477.09572 334.946408 
L 477.378324 335.358291 
L 477.660927 336.880826 
L 477.94353 335.183968 
L 478.226133 335.027163 
L 478.508736 332.730021 
L 478.79134 333.818298 
L 479.073943 334.410473 
L 479.356546 329.62422 
L 479.921752 326.480926 
L 480.486959 329.548111 
L 480.769562 328.630659 
L 481.052165 325.476856 
L 481.334768 325.715587 
L 481.617371 323.545996 
L 481.899975 319.433749 
L 482.182578 323.482852 
L 482.465181 315.302967 
L 482.747784 319.835253 
L 483.030387 321.658456 
L 483.312991 320.656703 
L 483.595594 318.91071 
L 483.878197 292.37788 
L 484.1608 315.569723 
L 484.443403 317.418612 
L 484.726007 315.471381 
L 485.00861 317.389381 
L 485.291213 317.791949 
L 485.573816 317.186961 
L 485.856419 310.254311 
L 486.139023 384.051699 
L 486.421626 383.897222 
L 486.986832 384.138305 
L 487.269435 334.023023 
L 487.552038 337.526735 
L 487.834642 334.509904 
L 488.117245 336.265247 
L 488.682451 333.784386 
L 488.965054 332.673817 
L 489.247658 336.142377 
L 489.530261 333.868628 
L 489.812864 333.297575 
L 490.095467 333.600631 
L 490.660674 332.184678 
L 490.943277 302.648755 
L 491.22588 332.286484 
L 491.508483 329.913304 
L 491.791086 328.857769 
L 492.07369 328.788728 
L 492.638896 333.095132 
L 493.486705 320.621574 
L 493.769309 326.771192 
L 494.051912 327.052061 
L 494.899721 324.839138 
L 495.182325 321.376452 
L 495.464928 324.847341 
L 495.747531 319.596476 
L 496.030134 319.136591 
L 496.312737 319.917131 
L 496.595341 318.773844 
L 497.160547 319.349542 
L 497.44315 384.154675 
L 498.29096 384.202653 
L 498.573563 341.353479 
L 498.856166 339.792364 
L 499.138769 339.38158 
L 499.421372 339.636752 
L 499.703976 337.099651 
L 499.986579 336.897197 
L 500.269182 332.870468 
L 500.551785 335.880266 
L 500.834388 332.171888 
L 501.116992 331.743575 
L 501.682198 324.859171 
L 501.964801 305.664849 
L 502.247404 327.771751 
L 502.530008 326.925715 
L 502.812611 328.782877 
L 503.095214 332.243164 
L 503.377817 332.767432 
L 503.66042 303.420811 
L 503.943024 332.176486 
L 504.50823 322.115977 
L 504.790833 324.305508 
L 505.073436 322.563142 
L 505.35604 289.306892 
L 505.638643 318.658183 
L 505.921246 315.134202 
L 506.203849 309.183529 
L 506.486452 312.050646 
L 506.769055 313.578949 
L 507.334262 311.699613 
L 507.616865 302.493553 
L 507.899468 304.754453 
L 508.182071 274.769482 
L 508.464675 298.682197 
L 508.747278 383.937032 
L 509.029881 384.042337 
L 509.312484 384.003709 
L 509.595087 383.644449 
L 509.877691 317.70903 
L 510.160294 319.348524 
L 510.442897 319.56962 
L 510.7255 319.060623 
L 511.290707 321.239505 
L 511.57331 318.766835 
L 511.855913 320.980858 
L 512.138516 317.722943 
L 512.703722 314.339819 
L 513.268929 306.956915 
L 513.551532 307.831105 
L 513.834135 309.574735 
L 514.116738 309.491616 
L 514.399342 309.678812 
L 514.681945 307.274036 
L 514.964548 302.892681 
L 515.247151 312.866491 
L 515.529754 309.222391 
L 515.812358 307.911766 
L 516.094961 305.560773 
L 516.377564 300.573236 
L 516.660167 300.603672 
L 517.225374 302.995576 
L 517.507977 299.722496 
L 517.79058 302.92891 
L 518.073183 301.897949 
L 518.638389 306.495965 
L 518.920993 305.696737 
L 519.203596 307.137288 
L 519.486199 312.000644 
L 519.768802 289.783674 
L 520.051405 384.036486 
L 520.899215 384.146472 
L 521.181818 334.682015 
L 521.464421 333.003939 
L 521.747025 333.054234 
L 522.029628 308.535524 
L 522.312231 332.206982 
L 522.594834 329.682811 
L 522.877437 329.721451 
L 523.160041 326.045779 
L 523.442644 316.276659 
L 523.725247 320.054137 
L 524.00785 326.11234 
L 524.290453 328.065433 
L 524.573056 325.400782 
L 524.85566 325.16438 
L 525.138263 324.010573 
L 525.420866 325.414848 
L 525.703469 325.78698 
L 526.268676 322.022327 
L 526.551279 325.600943 
L 527.116485 320.107943 
L 527.399088 319.74626 
L 527.681692 317.206889 
L 527.964295 317.141359 
L 528.246898 317.941792 
L 528.529501 317.113263 
L 528.812104 314.642956 
L 529.094708 314.672188 
L 529.377311 313.070127 
L 529.659914 292.349714 
L 529.942517 313.639998 
L 530.22512 312.454608 
L 530.507723 307.304332 
L 530.790327 306.62327 
L 531.07293 313.861176 
L 531.355533 384.077431 
L 531.638136 384.141815 
L 531.920739 383.717024 
L 532.203343 383.961571 
L 532.485946 333.920093 
L 533.051152 334.218491 
L 533.333755 330.992184 
L 533.616359 330.144908 
L 533.898962 330.357894 
L 534.181565 331.084652 
L 534.464168 329.019185 
L 534.746771 328.652892 
L 535.311978 326.731393 
L 535.594581 327.618433 
L 535.877184 332.024373 
L 536.159787 326.992357 
L 536.44239 329.393704 
L 536.724994 330.42236 
L 537.007597 333.12324 
L 537.572803 330.512429 
L 537.855406 332.568547 
L 538.13801 329.557496 
L 538.420613 328.961822 
L 538.703216 320.941036 
L 538.985819 321.620987 
L 539.268422 319.647976 
L 539.551026 319.360086 
L 539.833629 317.576611 
L 540.116232 318.792532 
L 540.398835 318.008505 
L 540.681438 305.45418 
L 540.964042 305.284502 
L 541.246645 312.595007 
L 541.529248 311.731325 
L 541.811851 312.235677 
L 542.094454 311.184823 
L 542.377057 310.829062 
L 542.659661 383.966251 
L 542.942264 384.118411 
L 543.224867 383.711173 
L 543.50747 384.165207 
L 543.790073 332.879806 
L 544.072677 331.979894 
L 544.35528 333.577227 
L 544.637883 332.29003 
L 544.920486 329.839523 
L 545.203089 329.24275 
L 545.485693 327.199493 
L 545.768296 327.082521 
L 546.050899 321.918402 
L 546.333502 270.752208 
L 546.616105 317.714904 
L 546.898709 320.729442 
L 547.463915 319.038424 
L 547.746518 302.371759 
L 548.029121 298.58706 
L 548.311724 319.999197 
L 548.594328 321.493541 
L 549.159534 314.585523 
L 549.442137 315.541475 
L 549.72474 314.659117 
L 550.007344 317.695807 
L 550.289947 312.453157 
L 550.57255 312.777299 
L 550.855153 312.395805 
L 551.137756 319.684041 
L 551.702963 316.058676 
L 551.985566 316.802893 
L 552.268169 315.822262 
L 552.550772 316.053983 
L 552.833376 314.910684 
L 553.115979 313.23372 
L 553.398582 312.804272 
L 553.681185 313.93003 
L 553.963788 384.025955 
L 554.811598 384.158186 
L 555.094201 332.980325 
L 555.376804 331.36414 
L 555.659407 326.775627 
L 555.942011 305.102772 
L 556.507217 321.639522 
L 556.78982 325.930785 
L 557.072423 328.308681 
L 557.63763 326.576776 
L 557.920233 334.358774 
L 558.202836 332.857408 
L 558.485439 333.517372 
L 559.050646 328.678449 
L 559.333249 330.563707 
L 559.615852 331.038793 
L 559.898455 325.025022 
L 560.181058 324.162557 
L 560.463662 324.800323 
L 560.746265 320.717366 
L 561.028868 319.66884 
L 561.311471 321.588046 
L 561.594074 320.465763 
L 562.159281 316.441328 
L 562.441884 317.626777 
L 562.724487 317.768358 
L 563.289694 315.947484 
L 563.572297 315.598791 
L 563.8549 315.585896 
L 564.420106 312.687206 
L 564.985313 314.697698 
L 565.267916 384.089133 
L 566.115726 384.135952 
L 566.398329 333.123053 
L 566.680932 331.323242 
L 566.963535 325.277737 
L 567.246138 303.096809 
L 567.528741 328.113224 
L 567.811345 321.124569 
L 568.093948 320.036233 
L 568.376551 321.272036 
L 568.659154 319.971896 
L 568.941757 321.449905 
L 569.224361 320.690428 
L 569.506964 322.933764 
L 569.789567 319.83379 
L 570.07217 313.844536 
L 570.354773 316.688203 
L 570.637377 318.370994 
L 570.91998 315.943892 
L 571.202583 314.952764 
L 571.485186 308.780948 
L 572.050393 315.53195 
L 572.332996 312.650813 
L 572.615599 313.791784 
L 572.898202 316.492699 
L 573.463408 313.709905 
L 573.746012 314.922257 
L 574.028615 313.893567 
L 574.311218 312.366422 
L 574.593821 306.677894 
L 574.876424 311.055774 
L 575.159028 310.824088 
L 575.441631 308.069356 
L 575.724234 309.035956 
L 576.006837 307.217387 
L 576.28944 306.357286 
L 576.572044 384.030624 
L 577.13725 383.934668 
L 577.419853 384.057538 
L 577.702456 324.366077 
L 577.98506 316.889464 
L 578.267663 325.175836 
L 578.550266 317.569274 
L 578.832869 321.421715 
L 579.115472 321.576192 
L 579.398075 321.310523 
L 579.680679 322.337974 
L 579.963282 319.087057 
L 580.245885 319.836014 
L 580.528488 313.925138 
L 580.811091 318.366232 
L 581.093695 313.658359 
L 581.376298 313.079044 
L 581.658901 319.252112 
L 581.941504 322.645827 
L 582.506711 331.977343 
L 582.789314 331.939897 
L 583.071917 330.932329 
L 583.35452 323.716633 
L 583.637123 324.442209 
L 583.919727 326.905553 
L 584.20233 325.262512 
L 584.484933 320.854243 
L 584.767536 325.886306 
L 585.050139 323.861772 
L 585.332742 322.867063 
L 585.615346 323.067166 
L 585.897949 319.739028 
L 586.180552 295.816484 
L 586.463155 320.957255 
L 586.745758 317.351736 
L 587.028362 320.081918 
L 587.593568 317.613823 
L 587.876171 384.107856 
L 588.441378 384.146484 
L 588.723981 383.848086 
L 589.006584 317.866175 
L 589.289187 338.104692 
L 589.57179 336.754211 
L 589.854394 339.002275 
L 590.136997 336.165676 
L 590.4196 336.024036 
L 590.702203 336.208926 
L 590.984806 334.730929 
L 591.267409 334.534302 
L 591.550013 333.171019 
L 591.832616 332.379877 
L 592.115219 331.934058 
L 592.397822 329.623998 
L 592.680425 330.154129 
L 592.963029 333.162793 
L 593.245632 332.354168 
L 593.528235 332.100213 
L 593.810838 332.294465 
L 594.093441 330.102641 
L 594.376045 333.889504 
L 594.658648 330.216126 
L 594.941251 328.824746 
L 595.223854 328.841106 
L 595.789061 324.08419 
L 596.071664 318.823846 
L 596.63687 324.256126 
L 596.919473 323.308248 
L 597.202076 324.030244 
L 597.767283 312.135906 
L 598.049886 313.995432 
L 598.332489 319.184312 
L 598.897696 316.901212 
L 599.180299 384.1184 
L 599.745505 384.147666 
L 600.028108 384.174557 
L 600.310712 337.368619 
L 600.593315 336.648906 
L 600.875918 333.88831 
L 601.158521 335.830884 
L 601.441124 334.000637 
L 601.723728 336.068433 
L 602.006331 334.002966 
L 602.288934 333.193194 
L 602.85414 329.938767 
L 603.136743 330.089757 
L 603.419347 332.013619 
L 603.70195 330.236042 
L 603.984553 306.429662 
L 604.267156 329.073962 
L 604.549759 326.514651 
L 604.832363 328.89023 
L 605.114966 329.279927 
L 605.397569 330.826976 
L 605.962775 329.195685 
L 606.245379 325.803117 
L 606.527982 326.375433 
L 606.810585 328.355465 
L 607.375791 324.967636 
L 607.658395 304.108134 
L 607.940998 320.422396 
L 608.223601 321.338702 
L 608.506204 323.465054 
L 608.788807 320.897552 
L 609.07141 321.23693 
L 609.354014 319.046229 
L 609.91922 317.741374 
L 610.201823 317.655973 
L 610.484426 384.077443 
L 611.049633 384.162879 
L 611.332236 384.158198 
L 611.614839 318.367262 
L 611.897442 319.401745 
L 612.180046 318.279766 
L 612.462649 339.737166 
L 612.745252 337.805135 
L 613.027855 339.544108 
L 613.310458 334.99187 
L 613.593062 335.078464 
L 613.875665 334.397413 
L 614.158268 334.445391 
L 614.440871 334.967308 
L 614.723474 331.794805 
L 615.006077 332.419687 
L 615.288681 332.49108 
L 615.571284 322.719608 
L 615.853887 327.647477 
L 616.13649 329.879087 
L 616.419093 327.8733 
L 616.701697 331.589999 
L 616.9843 332.52972 
L 617.266903 330.21382 
L 617.549506 329.399298 
L 618.114713 322.610745 
L 618.397316 324.135619 
L 618.679919 321.888726 
L 618.962522 323.587935 
L 619.245125 322.912724 
L 619.527729 324.600185 
L 619.810332 323.561021 
L 620.092935 316.777172 
L 620.375538 317.886583 
L 620.658141 286.819092 
L 620.940744 317.288522 
L 621.223348 318.627383 
L 621.505951 316.162904 
L 621.788554 384.000222 
L 622.636364 384.171058 
L 622.636364 384.171058 
" clip-path="url(#p4775987ec8)" style="fill: none; stroke: #1f77b4; stroke-width: 1.5; stroke-linecap: square"/>
   </g>
   <g id="patch_3">
    <path d="M 90 384.48 
L 90 51.84 
" style="fill: none; stroke: #000000; stroke-width: 0.8; stroke-linejoin: miter; stroke-linecap: square"/>
   </g>
   <g id="patch_4">
    <path d="M 648 384.48 
L 648 51.84 
" style="fill: none; stroke: #000000; stroke-width: 0.8; stroke-linejoin: miter; stroke-linecap: square"/>
   </g>
   <g id="patch_5">
    <path d="M 90 384.48 
L 648 384.48 
" style="fill: none; stroke: #000000; stroke-width: 0.8; stroke-linejoin: miter; stroke-linecap: square"/>
   </g>
   <g id="patch_6">
    <path d="M 90 51.84 
L 648 51.84 
" style="fill: none; stroke: #000000; stroke-width: 0.8; stroke-linejoin: miter; stroke-linecap: square"/>
   </g>
   <g id="text_17">
    <!-- Average time per index -->
    <g transform="translate(298.700625 45.84) scale(0.12 -0.12)">
     <defs>
      <path id="DejaVuSans-70" d="M 1159 525 
L 1159 -1331 
L 581 -1331 
L 581 3500 
L 1159 3500 
L 1159 2969 
Q 1341 3281 1617 3432 
Q 1894 3584 2278 3584 
Q 2916 3584 3314 3078 
Q 3713 2572 3713 1747 
Q 3713 922 3314 415 
Q 2916 -91 2278 -91 
Q 1894 -91 1617 61 
Q 1341 213 1159 525 
z
M 3116 1747 
Q 3116 2381 2855 2742 
Q 2594 3103 2138 3103 
Q 1681 3103 1420 2742 
Q 1159 2381 1159 1747 
Q 1159 1113 1420 752 
Q 1681 391 2138 391 
Q 2594 391 2855 752 
Q 3116 1113 3116 1747 
z
" transform="scale(0.015625)"/>
     </defs>
     <use xlink:href="#DejaVuSans-41"/>
     <use xlink:href="#DejaVuSans-76" transform="translate(62.533203 0)"/>
     <use xlink:href="#DejaVuSans-65" transform="translate(121.712891 0)"/>
     <use xlink:href="#DejaVuSans-72" transform="translate(183.236328 0)"/>
     <use xlink:href="#DejaVuSans-61" transform="translate(224.349609 0)"/>
     <use xlink:href="#DejaVuSans-67" transform="translate(285.628906 0)"/>
     <use xlink:href="#DejaVuSans-65" transform="translate(349.105469 0)"/>
     <use xlink:href="#DejaVuSans-20" transform="translate(410.628906 0)"/>
     <use xlink:href="#DejaVuSans-74" transform="translate(442.416016 0)"/>
     <use xlink:href="#DejaVuSans-69" transform="translate(481.625 0)"/>
     <use xlink:href="#DejaVuSans-6d" transform="translate(509.408203 0)"/>
     <use xlink:href="#DejaVuSans-65" transform="translate(606.820312 0)"/>
     <use xlink:href="#DejaVuSans-20" transform="translate(668.34375 0)"/>
     <use xlink:href="#DejaVuSans-70" transform="translate(700.130859 0)"/>
     <use xlink:href="#DejaVuSans-65" transform="translate(763.607422 0)"/>
     <use xlink:href="#DejaVuSans-72" transform="translate(825.130859 0)"/>
     <use xlink:href="#DejaVuSans-20" transform="translate(866.244141 0)"/>
     <use xlink:href="#DejaVuSans-69" transform="translate(898.03125 0)"/>
     <use xlink:href="#DejaVuSans-6e" transform="translate(925.814453 0)"/>
     <use xlink:href="#DejaVuSans-64" transform="translate(989.193359 0)"/>
     <use xlink:href="#DejaVuSans-65" transform="translate(1052.669922 0)"/>
     <use xlink:href="#DejaVuSans-78" transform="translate(1112.443359 0)"/>
    </g>
   </g>
   <g id="legend_1">
    <g id="patch_7">
     <path d="M 489.965625 74.518125 
L 641 74.518125 
Q 643 74.518125 643 72.518125 
L 643 58.84 
Q 643 56.84 641 56.84 
L 489.965625 56.84 
Q 487.965625 56.84 487.965625 58.84 
L 487.965625 72.518125 
Q 487.965625 74.518125 489.965625 74.518125 
z
" style="fill: #ffffff; opacity: 0.8; stroke: #cccccc; stroke-linejoin: miter"/>
    </g>
    <g id="line2d_16">
     <path d="M 491.965625 64.938438 
L 501.965625 64.938438 
L 511.965625 64.938438 
" style="fill: none; stroke: #1f77b4; stroke-width: 1.5; stroke-linecap: square"/>
    </g>
    <g id="text_18">
     <!-- getExpectedBehaviours -->
     <g transform="translate(519.965625 68.438438) scale(0.1 -0.1)">
      <defs>
       <path id="DejaVuSans-45" d="M 628 4666 
L 3578 4666 
L 3578 4134 
L 1259 4134 
L 1259 2753 
L 3481 2753 
L 3481 2222 
L 1259 2222 
L 1259 531 
L 3634 531 
L 3634 0 
L 628 0 
L 628 4666 
z
" transform="scale(0.015625)"/>
       <path id="DejaVuSans-63" d="M 3122 3366 
L 3122 2828 
Q 2878 2963 2633 3030 
Q 2388 3097 2138 3097 
Q 1578 3097 1268 2742 
Q 959 2388 959 1747 
Q 959 1106 1268 751 
Q 1578 397 2138 397 
Q 2388 397 2633 464 
Q 2878 531 3122 666 
L 3122 134 
Q 2881 22 2623 -34 
Q 2366 -91 2075 -91 
Q 1284 -91 818 406 
Q 353 903 353 1747 
Q 353 2603 823 3093 
Q 1294 3584 2113 3584 
Q 2378 3584 2631 3529 
Q 2884 3475 3122 3366 
z
" transform="scale(0.015625)"/>
       <path id="DejaVuSans-42" d="M 1259 2228 
L 1259 519 
L 2272 519 
Q 2781 519 3026 730 
Q 3272 941 3272 1375 
Q 3272 1813 3026 2020 
Q 2781 2228 2272 2228 
L 1259 2228 
z
M 1259 4147 
L 1259 2741 
L 2194 2741 
Q 2656 2741 2882 2914 
Q 3109 3088 3109 3444 
Q 3109 3797 2882 3972 
Q 2656 4147 2194 4147 
L 1259 4147 
z
M 628 4666 
L 2241 4666 
Q 2963 4666 3353 4366 
Q 3744 4066 3744 3513 
Q 3744 3084 3544 2831 
Q 3344 2578 2956 2516 
Q 3422 2416 3680 2098 
Q 3938 1781 3938 1306 
Q 3938 681 3513 340 
Q 3088 0 2303 0 
L 628 0 
L 628 4666 
z
" transform="scale(0.015625)"/>
       <path id="DejaVuSans-68" d="M 3513 2113 
L 3513 0 
L 2938 0 
L 2938 2094 
Q 2938 2591 2744 2837 
Q 2550 3084 2163 3084 
Q 1697 3084 1428 2787 
Q 1159 2491 1159 1978 
L 1159 0 
L 581 0 
L 581 4863 
L 1159 4863 
L 1159 2956 
Q 1366 3272 1645 3428 
Q 1925 3584 2291 3584 
Q 2894 3584 3203 3211 
Q 3513 2838 3513 2113 
z
" transform="scale(0.015625)"/>
       <path id="DejaVuSans-6f" d="M 1959 3097 
Q 1497 3097 1228 2736 
Q 959 2375 959 1747 
Q 959 1119 1226 758 
Q 1494 397 1959 397 
Q 2419 397 2687 759 
Q 2956 1122 2956 1747 
Q 2956 2369 2687 2733 
Q 2419 3097 1959 3097 
z
M 1959 3584 
Q 2709 3584 3137 3096 
Q 3566 2609 3566 1747 
Q 3566 888 3137 398 
Q 2709 -91 1959 -91 
Q 1206 -91 779 398 
Q 353 888 353 1747 
Q 353 2609 779 3096 
Q 1206 3584 1959 3584 
z
" transform="scale(0.015625)"/>
       <path id="DejaVuSans-75" d="M 544 1381 
L 544 3500 
L 1119 3500 
L 1119 1403 
Q 1119 906 1312 657 
Q 1506 409 1894 409 
Q 2359 409 2629 706 
Q 2900 1003 2900 1516 
L 2900 3500 
L 3475 3500 
L 3475 0 
L 2900 0 
L 2900 538 
Q 2691 219 2414 64 
Q 2138 -91 1772 -91 
Q 1169 -91 856 284 
Q 544 659 544 1381 
z
M 1991 3584 
L 1991 3584 
z
" transform="scale(0.015625)"/>
      </defs>
      <use xlink:href="#DejaVuSans-67"/>
      <use xlink:href="#DejaVuSans-65" transform="translate(63.476562 0)"/>
      <use xlink:href="#DejaVuSans-74" transform="translate(125 0)"/>
      <use xlink:href="#DejaVuSans-45" transform="translate(164.208984 0)"/>
      <use xlink:href="#DejaVuSans-78" transform="translate(227.392578 0)"/>
      <use xlink:href="#DejaVuSans-70" transform="translate(286.572266 0)"/>
      <use xlink:href="#DejaVuSans-65" transform="translate(350.048828 0)"/>
      <use xlink:href="#DejaVuSans-63" transform="translate(411.572266 0)"/>
      <use xlink:href="#DejaVuSans-74" transform="translate(466.552734 0)"/>
      <use xlink:href="#DejaVuSans-65" transform="translate(505.761719 0)"/>
      <use xlink:href="#DejaVuSans-64" transform="translate(567.285156 0)"/>
      <use xlink:href="#DejaVuSans-42" transform="translate(630.761719 0)"/>
      <use xlink:href="#DejaVuSans-65" transform="translate(699.365234 0)"/>
      <use xlink:href="#DejaVuSans-68" transform="translate(760.888672 0)"/>
      <use xlink:href="#DejaVuSans-61" transform="translate(824.267578 0)"/>
      <use xlink:href="#DejaVuSans-76" transform="translate(885.546875 0)"/>
      <use xlink:href="#DejaVuSans-69" transform="translate(944.726562 0)"/>
      <use xlink:href="#DejaVuSans-6f" transform="translate(972.509766 0)"/>
      <use xlink:href="#DejaVuSans-75" transform="translate(1033.691406 0)"/>
      <use xlink:href="#DejaVuSans-72" transform="translate(1097.070312 0)"/>
      <use xlink:href="#DejaVuSans-73" transform="translate(1138.183594 0)"/>
     </g>
    </g>
   </g>
  </g>
 </g>
 <defs>
  <clipPath id="p4775987ec8">
   <rect x="90" y="51.84" width="558" height="332.64"/>
  </clipPath>
 </defs>
</svg>
