<?xml version="1.0" encoding="utf-8" standalone="no"?>
<!DOCTYPE svg PUBLIC "-//W3C//DTD SVG 1.1//EN"
  "http://www.w3.org/Graphics/SVG/1.1/DTD/svg11.dtd">
<svg xmlns:xlink="http://www.w3.org/1999/xlink" width="576pt" height="432pt" viewBox="0 0 576 432" xmlns="http://www.w3.org/2000/svg" version="1.1">
 <metadata>
  <rdf:RDF xmlns:dc="http://purl.org/dc/elements/1.1/" xmlns:cc="http://creativecommons.org/ns#" xmlns:rdf="http://www.w3.org/1999/02/22-rdf-syntax-ns#">
   <cc:Work>
    <dc:type rdf:resource="http://purl.org/dc/dcmitype/StillImage"/>
    <dc:date>2025-06-10T01:38:30.354618</dc:date>
    <dc:format>image/svg+xml</dc:format>
    <dc:creator>
     <cc:Agent>
      <dc:title>Matplotlib v3.10.3, https://matplotlib.org/</dc:title>
     </cc:Agent>
    </dc:creator>
   </cc:Work>
  </rdf:RDF>
 </metadata>
 <defs>
  <style type="text/css">*{stroke-linejoin: round; stroke-linecap: butt}</style>
 </defs>
 <g id="figure_1">
  <g id="patch_1">
   <path d="M 0 432 
L 576 432 
L 576 0 
L 0 0 
z
" style="fill: #ffffff"/>
  </g>
  <g id="axes_1">
   <g id="patch_2">
    <path d="M 72 384.48 
L 518.4 384.48 
L 518.4 51.84 
L 72 51.84 
z
" style="fill: #ffffff"/>
   </g>
   <g id="FillBetweenPolyCollection_1">
    <path d="M 359.384781 372.478316 
L 231.015219 372.478316 
L 208.79337 369.393772 
L 191.560494 366.309229 
L 183.6 363.224685 
L 186.29809 360.140141 
L 197.805112 357.055598 
L 214.324215 353.971054 
L 231.950464 350.88651 
L 247.924718 347.801967 
L 260.922954 344.717423 
L 270.711947 341.632879 
L 277.667653 338.548336 
L 282.420122 335.463792 
L 285.640315 332.379248 
L 287.90667 329.294705 
L 289.625074 326.210161 
L 291.011215 323.125617 
L 292.137051 320.041073 
L 293.012401 316.95653 
L 293.653872 313.871986 
L 294.108317 310.787442 
L 294.435795 307.702899 
L 294.682967 304.618355 
L 294.872523 301.533811 
L 295.011123 298.449268 
L 295.102771 295.364724 
L 295.155929 292.28018 
L 295.182569 289.195637 
L 295.194021 286.111093 
L 295.198229 283.026549 
L 295.199549 279.942006 
L 295.199901 276.857462 
L 295.199981 273.772918 
L 295.199997 270.688374 
L 295.2 267.603831 
L 295.2 264.519287 
L 295.2 261.434743 
L 295.2 258.3502 
L 295.2 255.265656 
L 295.2 252.181112 
L 295.2 249.096569 
L 295.2 246.012025 
L 295.2 242.927481 
L 295.2 239.842938 
L 295.2 236.758394 
L 295.2 233.67385 
L 295.2 230.589307 
L 295.2 227.504763 
L 295.2 224.420219 
L 295.2 221.335676 
L 295.2 218.251132 
L 295.2 215.166588 
L 295.199999 212.082044 
L 295.199993 208.997501 
L 295.199955 205.912957 
L 295.199759 202.828413 
L 295.198907 199.74387 
L 295.195753 196.659326 
L 295.185881 193.574782 
L 295.159801 190.490239 
L 295.101841 187.405695 
L 294.994 184.321151 
L 294.827249 181.236608 
L 294.615652 178.152064 
L 294.4007 175.06752 
L 294.236266 171.982977 
L 294.161244 168.898433 
L 294.180607 165.813889 
L 294.268536 162.729345 
L 294.386987 159.644802 
L 294.502797 156.560258 
L 294.59399 153.475714 
L 294.64869 150.391171 
L 294.664911 147.306627 
L 294.65409 144.222083 
L 294.641503 141.13754 
L 294.655091 138.052996 
L 294.706539 134.968452 
L 294.78148 131.883909 
L 294.850615 128.799365 
L 294.893298 125.714821 
L 294.912472 122.630278 
L 294.928751 119.545734 
L 294.96129 116.46119 
L 295.013403 113.376647 
L 295.073458 110.292103 
L 295.126287 107.207559 
L 295.163262 104.123015 
L 295.184345 101.038472 
L 295.19423 97.953928 
L 295.197844 94.869384 
L 295.198019 91.784841 
L 295.194918 88.700297 
L 295.186024 85.615753 
L 295.166603 82.53121 
L 295.131817 79.446666 
L 295.081207 76.362122 
L 295.023389 73.277579 
L 294.975945 70.193035 
L 294.957451 67.108491 
L 295.442549 67.108491 
L 295.442549 67.108491 
L 295.424055 70.193035 
L 295.376611 73.277579 
L 295.318793 76.362122 
L 295.268183 79.446666 
L 295.233397 82.53121 
L 295.213976 85.615753 
L 295.205082 88.700297 
L 295.201981 91.784841 
L 295.202156 94.869384 
L 295.20577 97.953928 
L 295.215655 101.038472 
L 295.236738 104.123015 
L 295.273713 107.207559 
L 295.326542 110.292103 
L 295.386597 113.376647 
L 295.43871 116.46119 
L 295.471249 119.545734 
L 295.487528 122.630278 
L 295.506702 125.714821 
L 295.549385 128.799365 
L 295.61852 131.883909 
L 295.693461 134.968452 
L 295.744909 138.052996 
L 295.758497 141.13754 
L 295.74591 144.222083 
L 295.735089 147.306627 
L 295.75131 150.391171 
L 295.80601 153.475714 
L 295.897203 156.560258 
L 296.013013 159.644802 
L 296.131464 162.729345 
L 296.219393 165.813889 
L 296.238756 168.898433 
L 296.163734 171.982977 
L 295.9993 175.06752 
L 295.784348 178.152064 
L 295.572751 181.236608 
L 295.406 184.321151 
L 295.298159 187.405695 
L 295.240199 190.490239 
L 295.214119 193.574782 
L 295.204247 196.659326 
L 295.201093 199.74387 
L 295.200241 202.828413 
L 295.200045 205.912957 
L 295.200007 208.997501 
L 295.200001 212.082044 
L 295.2 215.166588 
L 295.2 218.251132 
L 295.2 221.335676 
L 295.2 224.420219 
L 295.2 227.504763 
L 295.2 230.589307 
L 295.2 233.67385 
L 295.2 236.758394 
L 295.2 239.842938 
L 295.2 242.927481 
L 295.2 246.012025 
L 295.2 249.096569 
L 295.2 252.181112 
L 295.2 255.265656 
L 295.2 258.3502 
L 295.2 261.434743 
L 295.2 264.519287 
L 295.2 267.603831 
L 295.200003 270.688374 
L 295.200019 273.772918 
L 295.200099 276.857462 
L 295.200451 279.942006 
L 295.201771 283.026549 
L 295.205979 286.111093 
L 295.217431 289.195637 
L 295.244071 292.28018 
L 295.297229 295.364724 
L 295.388877 298.449268 
L 295.527477 301.533811 
L 295.717033 304.618355 
L 295.964205 307.702899 
L 296.291683 310.787442 
L 296.746128 313.871986 
L 297.387599 316.95653 
L 298.262949 320.041073 
L 299.388785 323.125617 
L 300.774926 326.210161 
L 302.49333 329.294705 
L 304.759685 332.379248 
L 307.979878 335.463792 
L 312.732347 338.548336 
L 319.688053 341.632879 
L 329.477046 344.717423 
L 342.475282 347.801967 
L 358.449536 350.88651 
L 376.075785 353.971054 
L 392.594888 357.055598 
L 404.10191 360.140141 
L 406.8 363.224685 
L 398.839506 366.309229 
L 381.60663 369.393772 
L 359.384781 372.478316 
z
" clip-path="url(#p9528dbe350)" style="fill: #1f77b4; fill-opacity: 0.3"/>
   </g>
   <g id="matplotlib.axis_1">
    <g id="xtick_1">
     <g id="line2d_1">
      <defs>
       <path id="m4b64183fdb" d="M 0 0 
L 0 3.5 
" style="stroke: #000000; stroke-width: 0.8"/>
      </defs>
      <g>
       <use xlink:href="#m4b64183fdb" x="295.2" y="384.48" style="stroke: #000000; stroke-width: 0.8"/>
      </g>
     </g>
     <g id="text_1">
      <!-- 1 -->
      <g transform="translate(292.01875 399.078438) scale(0.1 -0.1)">
       <defs>
        <path id="DejaVuSans-31" d="M 794 531 
L 1825 531 
L 1825 4091 
L 703 3866 
L 703 4441 
L 1819 4666 
L 2450 4666 
L 2450 531 
L 3481 531 
L 3481 0 
L 794 0 
L 794 531 
z
" transform="scale(0.015625)"/>
       </defs>
       <use xlink:href="#DejaVuSans-31"/>
      </g>
     </g>
    </g>
   </g>
   <g id="matplotlib.axis_2">
    <g id="ytick_1">
     <g id="line2d_2">
      <defs>
       <path id="m8a83a95d3d" d="M 0 0 
L -3.5 0 
" style="stroke: #000000; stroke-width: 0.8"/>
      </defs>
      <g>
       <use xlink:href="#m8a83a95d3d" x="72" y="384.48" style="stroke: #000000; stroke-width: 0.8"/>
      </g>
     </g>
     <g id="text_2">
      <!-- 0 -->
      <g transform="translate(58.6375 388.279219) scale(0.1 -0.1)">
       <defs>
        <path id="DejaVuSans-30" d="M 2034 4250 
Q 1547 4250 1301 3770 
Q 1056 3291 1056 2328 
Q 1056 1369 1301 889 
Q 1547 409 2034 409 
Q 2525 409 2770 889 
Q 3016 1369 3016 2328 
Q 3016 3291 2770 3770 
Q 2525 4250 2034 4250 
z
M 2034 4750 
Q 2819 4750 3233 4129 
Q 3647 3509 3647 2328 
Q 3647 1150 3233 529 
Q 2819 -91 2034 -91 
Q 1250 -91 836 529 
Q 422 1150 422 2328 
Q 422 3509 836 4129 
Q 1250 4750 2034 4750 
z
" transform="scale(0.015625)"/>
       </defs>
       <use xlink:href="#DejaVuSans-30"/>
      </g>
     </g>
    </g>
    <g id="ytick_2">
     <g id="line2d_3">
      <g>
       <use xlink:href="#m8a83a95d3d" x="72" y="343.821135" style="stroke: #000000; stroke-width: 0.8"/>
      </g>
     </g>
     <g id="text_3">
      <!-- 25 -->
      <g transform="translate(52.275 347.620353) scale(0.1 -0.1)">
       <defs>
        <path id="DejaVuSans-32" d="M 1228 531 
L 3431 531 
L 3431 0 
L 469 0 
L 469 531 
Q 828 903 1448 1529 
Q 2069 2156 2228 2338 
Q 2531 2678 2651 2914 
Q 2772 3150 2772 3378 
Q 2772 3750 2511 3984 
Q 2250 4219 1831 4219 
Q 1534 4219 1204 4116 
Q 875 4013 500 3803 
L 500 4441 
Q 881 4594 1212 4672 
Q 1544 4750 1819 4750 
Q 2544 4750 2975 4387 
Q 3406 4025 3406 3419 
Q 3406 3131 3298 2873 
Q 3191 2616 2906 2266 
Q 2828 2175 2409 1742 
Q 1991 1309 1228 531 
z
" transform="scale(0.015625)"/>
        <path id="DejaVuSans-35" d="M 691 4666 
L 3169 4666 
L 3169 4134 
L 1269 4134 
L 1269 2991 
Q 1406 3038 1543 3061 
Q 1681 3084 1819 3084 
Q 2600 3084 3056 2656 
Q 3513 2228 3513 1497 
Q 3513 744 3044 326 
Q 2575 -91 1722 -91 
Q 1428 -91 1123 -41 
Q 819 9 494 109 
L 494 744 
Q 775 591 1075 516 
Q 1375 441 1709 441 
Q 2250 441 2565 725 
Q 2881 1009 2881 1497 
Q 2881 1984 2565 2268 
Q 2250 2553 1709 2553 
Q 1456 2553 1204 2497 
Q 953 2441 691 2322 
L 691 4666 
z
" transform="scale(0.015625)"/>
       </defs>
       <use xlink:href="#DejaVuSans-32"/>
       <use xlink:href="#DejaVuSans-35" transform="translate(63.623047 0)"/>
      </g>
     </g>
    </g>
    <g id="ytick_3">
     <g id="line2d_4">
      <g>
       <use xlink:href="#m8a83a95d3d" x="72" y="303.162269" style="stroke: #000000; stroke-width: 0.8"/>
      </g>
     </g>
     <g id="text_4">
      <!-- 50 -->
      <g transform="translate(52.275 306.961488) scale(0.1 -0.1)">
       <use xlink:href="#DejaVuSans-35"/>
       <use xlink:href="#DejaVuSans-30" transform="translate(63.623047 0)"/>
      </g>
     </g>
    </g>
    <g id="ytick_4">
     <g id="line2d_5">
      <g>
       <use xlink:href="#m8a83a95d3d" x="72" y="262.503404" style="stroke: #000000; stroke-width: 0.8"/>
      </g>
     </g>
     <g id="text_5">
      <!-- 75 -->
      <g transform="translate(52.275 266.302623) scale(0.1 -0.1)">
       <defs>
        <path id="DejaVuSans-37" d="M 525 4666 
L 3525 4666 
L 3525 4397 
L 1831 0 
L 1172 0 
L 2766 4134 
L 525 4134 
L 525 4666 
z
" transform="scale(0.015625)"/>
       </defs>
       <use xlink:href="#DejaVuSans-37"/>
       <use xlink:href="#DejaVuSans-35" transform="translate(63.623047 0)"/>
      </g>
     </g>
    </g>
    <g id="ytick_5">
     <g id="line2d_6">
      <g>
       <use xlink:href="#m8a83a95d3d" x="72" y="221.844539" style="stroke: #000000; stroke-width: 0.8"/>
      </g>
     </g>
     <g id="text_6">
      <!-- 100 -->
      <g transform="translate(45.9125 225.643757) scale(0.1 -0.1)">
       <use xlink:href="#DejaVuSans-31"/>
       <use xlink:href="#DejaVuSans-30" transform="translate(63.623047 0)"/>
       <use xlink:href="#DejaVuSans-30" transform="translate(127.246094 0)"/>
      </g>
     </g>
    </g>
    <g id="ytick_6">
     <g id="line2d_7">
      <g>
       <use xlink:href="#m8a83a95d3d" x="72" y="181.185673" style="stroke: #000000; stroke-width: 0.8"/>
      </g>
     </g>
     <g id="text_7">
      <!-- 125 -->
      <g transform="translate(45.9125 184.984892) scale(0.1 -0.1)">
       <use xlink:href="#DejaVuSans-31"/>
       <use xlink:href="#DejaVuSans-32" transform="translate(63.623047 0)"/>
       <use xlink:href="#DejaVuSans-35" transform="translate(127.246094 0)"/>
      </g>
     </g>
    </g>
    <g id="ytick_7">
     <g id="line2d_8">
      <g>
       <use xlink:href="#m8a83a95d3d" x="72" y="140.526808" style="stroke: #000000; stroke-width: 0.8"/>
      </g>
     </g>
     <g id="text_8">
      <!-- 150 -->
      <g transform="translate(45.9125 144.326027) scale(0.1 -0.1)">
       <use xlink:href="#DejaVuSans-31"/>
       <use xlink:href="#DejaVuSans-35" transform="translate(63.623047 0)"/>
       <use xlink:href="#DejaVuSans-30" transform="translate(127.246094 0)"/>
      </g>
     </g>
    </g>
    <g id="ytick_8">
     <g id="line2d_9">
      <g>
       <use xlink:href="#m8a83a95d3d" x="72" y="99.867942" style="stroke: #000000; stroke-width: 0.8"/>
      </g>
     </g>
     <g id="text_9">
      <!-- 175 -->
      <g transform="translate(45.9125 103.667161) scale(0.1 -0.1)">
       <use xlink:href="#DejaVuSans-31"/>
       <use xlink:href="#DejaVuSans-37" transform="translate(63.623047 0)"/>
       <use xlink:href="#DejaVuSans-35" transform="translate(127.246094 0)"/>
      </g>
     </g>
    </g>
    <g id="ytick_9">
     <g id="line2d_10">
      <g>
       <use xlink:href="#m8a83a95d3d" x="72" y="59.209077" style="stroke: #000000; stroke-width: 0.8"/>
      </g>
     </g>
     <g id="text_10">
      <!-- 200 -->
      <g transform="translate(45.9125 63.008296) scale(0.1 -0.1)">
       <use xlink:href="#DejaVuSans-32"/>
       <use xlink:href="#DejaVuSans-30" transform="translate(63.623047 0)"/>
       <use xlink:href="#DejaVuSans-30" transform="translate(127.246094 0)"/>
      </g>
     </g>
    </g>
    <g id="text_11">
     <!-- Time (ms) -->
     <g transform="translate(39.832812 243.359219) rotate(-90) scale(0.1 -0.1)">
      <defs>
       <path id="DejaVuSans-54" d="M -19 4666 
L 3928 4666 
L 3928 4134 
L 2272 4134 
L 2272 0 
L 1638 0 
L 1638 4134 
L -19 4134 
L -19 4666 
z
" transform="scale(0.015625)"/>
       <path id="DejaVuSans-69" d="M 603 3500 
L 1178 3500 
L 1178 0 
L 603 0 
L 603 3500 
z
M 603 4863 
L 1178 4863 
L 1178 4134 
L 603 4134 
L 603 4863 
z
" transform="scale(0.015625)"/>
       <path id="DejaVuSans-6d" d="M 3328 2828 
Q 3544 3216 3844 3400 
Q 4144 3584 4550 3584 
Q 5097 3584 5394 3201 
Q 5691 2819 5691 2113 
L 5691 0 
L 5113 0 
L 5113 2094 
Q 5113 2597 4934 2840 
Q 4756 3084 4391 3084 
Q 3944 3084 3684 2787 
Q 3425 2491 3425 1978 
L 3425 0 
L 2847 0 
L 2847 2094 
Q 2847 2600 2669 2842 
Q 2491 3084 2119 3084 
Q 1678 3084 1418 2786 
Q 1159 2488 1159 1978 
L 1159 0 
L 581 0 
L 581 3500 
L 1159 3500 
L 1159 2956 
Q 1356 3278 1631 3431 
Q 1906 3584 2284 3584 
Q 2666 3584 2933 3390 
Q 3200 3197 3328 2828 
z
" transform="scale(0.015625)"/>
       <path id="DejaVuSans-65" d="M 3597 1894 
L 3597 1613 
L 953 1613 
Q 991 1019 1311 708 
Q 1631 397 2203 397 
Q 2534 397 2845 478 
Q 3156 559 3463 722 
L 3463 178 
Q 3153 47 2828 -22 
Q 2503 -91 2169 -91 
Q 1331 -91 842 396 
Q 353 884 353 1716 
Q 353 2575 817 3079 
Q 1281 3584 2069 3584 
Q 2775 3584 3186 3129 
Q 3597 2675 3597 1894 
z
M 3022 2063 
Q 3016 2534 2758 2815 
Q 2500 3097 2075 3097 
Q 1594 3097 1305 2825 
Q 1016 2553 972 2059 
L 3022 2063 
z
" transform="scale(0.015625)"/>
       <path id="DejaVuSans-20" transform="scale(0.015625)"/>
       <path id="DejaVuSans-28" d="M 1984 4856 
Q 1566 4138 1362 3434 
Q 1159 2731 1159 2009 
Q 1159 1288 1364 580 
Q 1569 -128 1984 -844 
L 1484 -844 
Q 1016 -109 783 600 
Q 550 1309 550 2009 
Q 550 2706 781 3412 
Q 1013 4119 1484 4856 
L 1984 4856 
z
" transform="scale(0.015625)"/>
       <path id="DejaVuSans-73" d="M 2834 3397 
L 2834 2853 
Q 2591 2978 2328 3040 
Q 2066 3103 1784 3103 
Q 1356 3103 1142 2972 
Q 928 2841 928 2578 
Q 928 2378 1081 2264 
Q 1234 2150 1697 2047 
L 1894 2003 
Q 2506 1872 2764 1633 
Q 3022 1394 3022 966 
Q 3022 478 2636 193 
Q 2250 -91 1575 -91 
Q 1294 -91 989 -36 
Q 684 19 347 128 
L 347 722 
Q 666 556 975 473 
Q 1284 391 1588 391 
Q 1994 391 2212 530 
Q 2431 669 2431 922 
Q 2431 1156 2273 1281 
Q 2116 1406 1581 1522 
L 1381 1569 
Q 847 1681 609 1914 
Q 372 2147 372 2553 
Q 372 3047 722 3315 
Q 1072 3584 1716 3584 
Q 2034 3584 2315 3537 
Q 2597 3491 2834 3397 
z
" transform="scale(0.015625)"/>
       <path id="DejaVuSans-29" d="M 513 4856 
L 1013 4856 
Q 1481 4119 1714 3412 
Q 1947 2706 1947 2009 
Q 1947 1309 1714 600 
Q 1481 -109 1013 -844 
L 513 -844 
Q 928 -128 1133 580 
Q 1338 1288 1338 2009 
Q 1338 2731 1133 3434 
Q 928 4138 513 4856 
z
" transform="scale(0.015625)"/>
      </defs>
      <use xlink:href="#DejaVuSans-54"/>
      <use xlink:href="#DejaVuSans-69" transform="translate(57.958984 0)"/>
      <use xlink:href="#DejaVuSans-6d" transform="translate(85.742188 0)"/>
      <use xlink:href="#DejaVuSans-65" transform="translate(183.154297 0)"/>
      <use xlink:href="#DejaVuSans-20" transform="translate(244.677734 0)"/>
      <use xlink:href="#DejaVuSans-28" transform="translate(276.464844 0)"/>
      <use xlink:href="#DejaVuSans-6d" transform="translate(315.478516 0)"/>
      <use xlink:href="#DejaVuSans-73" transform="translate(412.890625 0)"/>
      <use xlink:href="#DejaVuSans-29" transform="translate(464.990234 0)"/>
     </g>
    </g>
   </g>
   <g id="LineCollection_1">
    <path d="M 239.4 356.077382 
L 351 356.077382 
" clip-path="url(#p9528dbe350)" style="fill: none; stroke: #1f77b4; stroke-width: 1.5"/>
   </g>
   <g id="LineCollection_2">
    <path d="M 239.4 67.108491 
L 351 67.108491 
" clip-path="url(#p9528dbe350)" style="fill: none; stroke: #1f77b4; stroke-width: 1.5"/>
   </g>
   <g id="LineCollection_3">
    <path d="M 239.4 372.478316 
L 351 372.478316 
" clip-path="url(#p9528dbe350)" style="fill: none; stroke: #1f77b4; stroke-width: 1.5"/>
   </g>
   <g id="LineCollection_4">
    <path d="M 295.2 372.478316 
L 295.2 67.108491 
" clip-path="url(#p9528dbe350)" style="fill: none; stroke: #1f77b4; stroke-width: 1.5"/>
   </g>
   <g id="patch_3">
    <path d="M 250.56 366.038004 
L 339.84 366.038004 
L 339.84 355.323643 
L 250.56 355.323643 
L 250.56 366.038004 
z
" clip-path="url(#p9528dbe350)" style="fill: #1f77b4; stroke: #000000; stroke-linejoin: miter"/>
   </g>
   <g id="line2d_11">
    <path d="M 295.2 366.038004 
L 295.2 372.478316 
" clip-path="url(#p9528dbe350)" style="fill: none; stroke: #000000; stroke-linecap: square"/>
   </g>
   <g id="line2d_12">
    <path d="M 295.2 355.323643 
L 295.2 339.935669 
" clip-path="url(#p9528dbe350)" style="fill: none; stroke: #000000; stroke-linecap: square"/>
   </g>
   <g id="line2d_13">
    <path d="M 272.88 372.478316 
L 317.52 372.478316 
" clip-path="url(#p9528dbe350)" style="fill: none; stroke: #000000; stroke-linecap: square"/>
   </g>
   <g id="line2d_14">
    <path d="M 272.88 339.935669 
L 317.52 339.935669 
" clip-path="url(#p9528dbe350)" style="fill: none; stroke: #000000; stroke-linecap: square"/>
   </g>
   <g id="line2d_15">
    <defs>
     <path id="m52187c4076" d="M 0 3 
C 0.795609 3 1.55874 2.683901 2.12132 2.12132 
C 2.683901 1.55874 3 0.795609 3 0 
C 3 -0.795609 2.683901 -1.55874 2.12132 -2.12132 
C 1.55874 -2.683901 0.795609 -3 0 -3 
C -0.795609 -3 -1.55874 -2.683901 -2.12132 -2.12132 
C -2.683901 -1.55874 -3 -0.795609 -3 0 
C -3 0.795609 -2.683901 1.55874 -2.12132 2.12132 
C -1.55874 2.683901 -0.795609 3 0 3 
z
" style="stroke: #000000"/>
    </defs>
    <g clip-path="url(#p9528dbe350)">
     <use xlink:href="#m52187c4076" x="295.2" y="139.643211" style="fill-opacity: 0; stroke: #000000"/>
     <use xlink:href="#m52187c4076" x="295.2" y="326.857853" style="fill-opacity: 0; stroke: #000000"/>
     <use xlink:href="#m52187c4076" x="295.2" y="336.391555" style="fill-opacity: 0; stroke: #000000"/>
     <use xlink:href="#m52187c4076" x="295.2" y="335.226394" style="fill-opacity: 0; stroke: #000000"/>
     <use xlink:href="#m52187c4076" x="295.2" y="171.378135" style="fill-opacity: 0; stroke: #000000"/>
     <use xlink:href="#m52187c4076" x="295.2" y="331.761798" style="fill-opacity: 0; stroke: #000000"/>
     <use xlink:href="#m52187c4076" x="295.2" y="332.467839" style="fill-opacity: 0; stroke: #000000"/>
     <use xlink:href="#m52187c4076" x="295.2" y="171.281151" style="fill-opacity: 0; stroke: #000000"/>
     <use xlink:href="#m52187c4076" x="295.2" y="328.493702" style="fill-opacity: 0; stroke: #000000"/>
     <use xlink:href="#m52187c4076" x="295.2" y="164.423321" style="fill-opacity: 0; stroke: #000000"/>
     <use xlink:href="#m52187c4076" x="295.2" y="324.819856" style="fill-opacity: 0; stroke: #000000"/>
     <use xlink:href="#m52187c4076" x="295.2" y="324.231765" style="fill-opacity: 0; stroke: #000000"/>
     <use xlink:href="#m52187c4076" x="295.2" y="334.836264" style="fill-opacity: 0; stroke: #000000"/>
     <use xlink:href="#m52187c4076" x="295.2" y="337.202938" style="fill-opacity: 0; stroke: #000000"/>
     <use xlink:href="#m52187c4076" x="295.2" y="327.778526" style="fill-opacity: 0; stroke: #000000"/>
     <use xlink:href="#m52187c4076" x="295.2" y="119.174588" style="fill-opacity: 0; stroke: #000000"/>
     <use xlink:href="#m52187c4076" x="295.2" y="321.122962" style="fill-opacity: 0; stroke: #000000"/>
     <use xlink:href="#m52187c4076" x="295.2" y="336.5829" style="fill-opacity: 0; stroke: #000000"/>
     <use xlink:href="#m52187c4076" x="295.2" y="336.800677" style="fill-opacity: 0; stroke: #000000"/>
     <use xlink:href="#m52187c4076" x="295.2" y="325.601147" style="fill-opacity: 0; stroke: #000000"/>
     <use xlink:href="#m52187c4076" x="295.2" y="335.789207" style="fill-opacity: 0; stroke: #000000"/>
     <use xlink:href="#m52187c4076" x="295.2" y="136.750251" style="fill-opacity: 0; stroke: #000000"/>
     <use xlink:href="#m52187c4076" x="295.2" y="307.568153" style="fill-opacity: 0; stroke: #000000"/>
     <use xlink:href="#m52187c4076" x="295.2" y="327.569106" style="fill-opacity: 0; stroke: #000000"/>
     <use xlink:href="#m52187c4076" x="295.2" y="331.683928" style="fill-opacity: 0; stroke: #000000"/>
     <use xlink:href="#m52187c4076" x="295.2" y="172.53163" style="fill-opacity: 0; stroke: #000000"/>
     <use xlink:href="#m52187c4076" x="295.2" y="330.196803" style="fill-opacity: 0; stroke: #000000"/>
     <use xlink:href="#m52187c4076" x="295.2" y="332.60799" style="fill-opacity: 0; stroke: #000000"/>
     <use xlink:href="#m52187c4076" x="295.2" y="160.440762" style="fill-opacity: 0; stroke: #000000"/>
     <use xlink:href="#m52187c4076" x="295.2" y="316.178846" style="fill-opacity: 0; stroke: #000000"/>
     <use xlink:href="#m52187c4076" x="295.2" y="336.122419" style="fill-opacity: 0; stroke: #000000"/>
     <use xlink:href="#m52187c4076" x="295.2" y="329.649435" style="fill-opacity: 0; stroke: #000000"/>
     <use xlink:href="#m52187c4076" x="295.2" y="339.006736" style="fill-opacity: 0; stroke: #000000"/>
     <use xlink:href="#m52187c4076" x="295.2" y="151.701544" style="fill-opacity: 0; stroke: #000000"/>
     <use xlink:href="#m52187c4076" x="295.2" y="312.897521" style="fill-opacity: 0; stroke: #000000"/>
     <use xlink:href="#m52187c4076" x="295.2" y="336.452852" style="fill-opacity: 0; stroke: #000000"/>
     <use xlink:href="#m52187c4076" x="295.2" y="336.95818" style="fill-opacity: 0; stroke: #000000"/>
     <use xlink:href="#m52187c4076" x="295.2" y="330.882025" style="fill-opacity: 0; stroke: #000000"/>
     <use xlink:href="#m52187c4076" x="295.2" y="67.108491" style="fill-opacity: 0; stroke: #000000"/>
     <use xlink:href="#m52187c4076" x="295.2" y="324.721358" style="fill-opacity: 0; stroke: #000000"/>
     <use xlink:href="#m52187c4076" x="295.2" y="338.669438" style="fill-opacity: 0; stroke: #000000"/>
    </g>
   </g>
   <g id="line2d_16">
    <path d="M 250.56 361.644894 
L 339.84 361.644894 
" clip-path="url(#p9528dbe350)" style="fill: none; stroke: #ff7f0e"/>
   </g>
   <g id="patch_4">
    <path d="M 72 384.48 
L 72 51.84 
" style="fill: none; stroke: #000000; stroke-width: 0.8; stroke-linejoin: miter; stroke-linecap: square"/>
   </g>
   <g id="patch_5">
    <path d="M 518.4 384.48 
L 518.4 51.84 
" style="fill: none; stroke: #000000; stroke-width: 0.8; stroke-linejoin: miter; stroke-linecap: square"/>
   </g>
   <g id="patch_6">
    <path d="M 72 384.48 
L 518.4 384.48 
" style="fill: none; stroke: #000000; stroke-width: 0.8; stroke-linejoin: miter; stroke-linecap: square"/>
   </g>
   <g id="patch_7">
    <path d="M 72 51.84 
L 518.4 51.84 
" style="fill: none; stroke: #000000; stroke-width: 0.8; stroke-linejoin: miter; stroke-linecap: square"/>
   </g>
   <g id="text_12">
    <!-- Get Trace With Delay -->
    <g transform="translate(232.04625 45.84) scale(0.12 -0.12)">
     <defs>
      <path id="DejaVuSans-47" d="M 3809 666 
L 3809 1919 
L 2778 1919 
L 2778 2438 
L 4434 2438 
L 4434 434 
Q 4069 175 3628 42 
Q 3188 -91 2688 -91 
Q 1594 -91 976 548 
Q 359 1188 359 2328 
Q 359 3472 976 4111 
Q 1594 4750 2688 4750 
Q 3144 4750 3555 4637 
Q 3966 4525 4313 4306 
L 4313 3634 
Q 3963 3931 3569 4081 
Q 3175 4231 2741 4231 
Q 1884 4231 1454 3753 
Q 1025 3275 1025 2328 
Q 1025 1384 1454 906 
Q 1884 428 2741 428 
Q 3075 428 3337 486 
Q 3600 544 3809 666 
z
" transform="scale(0.015625)"/>
      <path id="DejaVuSans-74" d="M 1172 4494 
L 1172 3500 
L 2356 3500 
L 2356 3053 
L 1172 3053 
L 1172 1153 
Q 1172 725 1289 603 
Q 1406 481 1766 481 
L 2356 481 
L 2356 0 
L 1766 0 
Q 1100 0 847 248 
Q 594 497 594 1153 
L 594 3053 
L 172 3053 
L 172 3500 
L 594 3500 
L 594 4494 
L 1172 4494 
z
" transform="scale(0.015625)"/>
      <path id="DejaVuSans-72" d="M 2631 2963 
Q 2534 3019 2420 3045 
Q 2306 3072 2169 3072 
Q 1681 3072 1420 2755 
Q 1159 2438 1159 1844 
L 1159 0 
L 581 0 
L 581 3500 
L 1159 3500 
L 1159 2956 
Q 1341 3275 1631 3429 
Q 1922 3584 2338 3584 
Q 2397 3584 2469 3576 
Q 2541 3569 2628 3553 
L 2631 2963 
z
" transform="scale(0.015625)"/>
      <path id="DejaVuSans-61" d="M 2194 1759 
Q 1497 1759 1228 1600 
Q 959 1441 959 1056 
Q 959 750 1161 570 
Q 1363 391 1709 391 
Q 2188 391 2477 730 
Q 2766 1069 2766 1631 
L 2766 1759 
L 2194 1759 
z
M 3341 1997 
L 3341 0 
L 2766 0 
L 2766 531 
Q 2569 213 2275 61 
Q 1981 -91 1556 -91 
Q 1019 -91 701 211 
Q 384 513 384 1019 
Q 384 1609 779 1909 
Q 1175 2209 1959 2209 
L 2766 2209 
L 2766 2266 
Q 2766 2663 2505 2880 
Q 2244 3097 1772 3097 
Q 1472 3097 1187 3025 
Q 903 2953 641 2809 
L 641 3341 
Q 956 3463 1253 3523 
Q 1550 3584 1831 3584 
Q 2591 3584 2966 3190 
Q 3341 2797 3341 1997 
z
" transform="scale(0.015625)"/>
      <path id="DejaVuSans-63" d="M 3122 3366 
L 3122 2828 
Q 2878 2963 2633 3030 
Q 2388 3097 2138 3097 
Q 1578 3097 1268 2742 
Q 959 2388 959 1747 
Q 959 1106 1268 751 
Q 1578 397 2138 397 
Q 2388 397 2633 464 
Q 2878 531 3122 666 
L 3122 134 
Q 2881 22 2623 -34 
Q 2366 -91 2075 -91 
Q 1284 -91 818 406 
Q 353 903 353 1747 
Q 353 2603 823 3093 
Q 1294 3584 2113 3584 
Q 2378 3584 2631 3529 
Q 2884 3475 3122 3366 
z
" transform="scale(0.015625)"/>
      <path id="DejaVuSans-57" d="M 213 4666 
L 850 4666 
L 1831 722 
L 2809 4666 
L 3519 4666 
L 4500 722 
L 5478 4666 
L 6119 4666 
L 4947 0 
L 4153 0 
L 3169 4050 
L 2175 0 
L 1381 0 
L 213 4666 
z
" transform="scale(0.015625)"/>
      <path id="DejaVuSans-68" d="M 3513 2113 
L 3513 0 
L 2938 0 
L 2938 2094 
Q 2938 2591 2744 2837 
Q 2550 3084 2163 3084 
Q 1697 3084 1428 2787 
Q 1159 2491 1159 1978 
L 1159 0 
L 581 0 
L 581 4863 
L 1159 4863 
L 1159 2956 
Q 1366 3272 1645 3428 
Q 1925 3584 2291 3584 
Q 2894 3584 3203 3211 
Q 3513 2838 3513 2113 
z
" transform="scale(0.015625)"/>
      <path id="DejaVuSans-44" d="M 1259 4147 
L 1259 519 
L 2022 519 
Q 2988 519 3436 956 
Q 3884 1394 3884 2338 
Q 3884 3275 3436 3711 
Q 2988 4147 2022 4147 
L 1259 4147 
z
M 628 4666 
L 1925 4666 
Q 3281 4666 3915 4102 
Q 4550 3538 4550 2338 
Q 4550 1131 3912 565 
Q 3275 0 1925 0 
L 628 0 
L 628 4666 
z
" transform="scale(0.015625)"/>
      <path id="DejaVuSans-6c" d="M 603 4863 
L 1178 4863 
L 1178 0 
L 603 0 
L 603 4863 
z
" transform="scale(0.015625)"/>
      <path id="DejaVuSans-79" d="M 2059 -325 
Q 1816 -950 1584 -1140 
Q 1353 -1331 966 -1331 
L 506 -1331 
L 506 -850 
L 844 -850 
Q 1081 -850 1212 -737 
Q 1344 -625 1503 -206 
L 1606 56 
L 191 3500 
L 800 3500 
L 1894 763 
L 2988 3500 
L 3597 3500 
L 2059 -325 
z
" transform="scale(0.015625)"/>
     </defs>
     <use xlink:href="#DejaVuSans-47"/>
     <use xlink:href="#DejaVuSans-65" transform="translate(77.490234 0)"/>
     <use xlink:href="#DejaVuSans-74" transform="translate(139.013672 0)"/>
     <use xlink:href="#DejaVuSans-20" transform="translate(178.222656 0)"/>
     <use xlink:href="#DejaVuSans-54" transform="translate(210.009766 0)"/>
     <use xlink:href="#DejaVuSans-72" transform="translate(256.34375 0)"/>
     <use xlink:href="#DejaVuSans-61" transform="translate(297.457031 0)"/>
     <use xlink:href="#DejaVuSans-63" transform="translate(358.736328 0)"/>
     <use xlink:href="#DejaVuSans-65" transform="translate(413.716797 0)"/>
     <use xlink:href="#DejaVuSans-20" transform="translate(475.240234 0)"/>
     <use xlink:href="#DejaVuSans-57" transform="translate(507.027344 0)"/>
     <use xlink:href="#DejaVuSans-69" transform="translate(603.654297 0)"/>
     <use xlink:href="#DejaVuSans-74" transform="translate(631.4375 0)"/>
     <use xlink:href="#DejaVuSans-68" transform="translate(670.646484 0)"/>
     <use xlink:href="#DejaVuSans-20" transform="translate(734.025391 0)"/>
     <use xlink:href="#DejaVuSans-44" transform="translate(765.8125 0)"/>
     <use xlink:href="#DejaVuSans-65" transform="translate(842.814453 0)"/>
     <use xlink:href="#DejaVuSans-6c" transform="translate(904.337891 0)"/>
     <use xlink:href="#DejaVuSans-61" transform="translate(932.121094 0)"/>
     <use xlink:href="#DejaVuSans-79" transform="translate(993.400391 0)"/>
    </g>
   </g>
  </g>
 </g>
 <defs>
  <clipPath id="p9528dbe350">
   <rect x="72" y="51.84" width="446.4" height="332.64"/>
  </clipPath>
 </defs>
</svg>
