<?xml version="1.0" encoding="utf-8" standalone="no"?>
<!DOCTYPE svg PUBLIC "-//W3C//DTD SVG 1.1//EN"
  "http://www.w3.org/Graphics/SVG/1.1/DTD/svg11.dtd">
<svg xmlns:xlink="http://www.w3.org/1999/xlink" width="576pt" height="432pt" viewBox="0 0 576 432" xmlns="http://www.w3.org/2000/svg" version="1.1">
 <metadata>
  <rdf:RDF xmlns:dc="http://purl.org/dc/elements/1.1/" xmlns:cc="http://creativecommons.org/ns#" xmlns:rdf="http://www.w3.org/1999/02/22-rdf-syntax-ns#">
   <cc:Work>
    <dc:type rdf:resource="http://purl.org/dc/dcmitype/StillImage"/>
    <dc:date>2025-06-10T01:38:30.441023</dc:date>
    <dc:format>image/svg+xml</dc:format>
    <dc:creator>
     <cc:Agent>
      <dc:title>Matplotlib v3.10.3, https://matplotlib.org/</dc:title>
     </cc:Agent>
    </dc:creator>
   </cc:Work>
  </rdf:RDF>
 </metadata>
 <defs>
  <style type="text/css">*{stroke-linejoin: round; stroke-linecap: butt}</style>
 </defs>
 <g id="figure_1">
  <g id="patch_1">
   <path d="M 0 432 
L 576 432 
L 576 0 
L 0 0 
z
" style="fill: #ffffff"/>
  </g>
  <g id="axes_1">
   <g id="patch_2">
    <path d="M 72 384.48 
L 518.4 384.48 
L 518.4 51.84 
L 72 51.84 
z
" style="fill: #ffffff"/>
   </g>
   <g id="FillBetweenPolyCollection_1">
    <path d="M 326.238857 380.850046 
L 264.161143 380.850046 
L 252.314588 377.684966 
L 238.345219 374.519886 
L 223.128191 371.354807 
L 208.221193 368.189727 
L 195.576606 365.024647 
L 186.995757 361.859567 
L 183.6 358.694487 
L 185.579321 355.529408 
L 192.279576 352.364328 
L 202.494184 349.199248 
L 214.783542 346.034168 
L 227.730883 342.869088 
L 240.131481 339.704009 
L 251.127762 336.538929 
L 260.274118 333.373849 
L 267.507008 330.208769 
L 273.030223 327.043689 
L 277.168446 323.87861 
L 280.25183 320.71353 
L 282.562196 317.54845 
L 284.327348 314.38337 
L 285.72968 311.21829 
L 286.907686 308.05321 
L 287.953006 304.888131 
L 288.91504 301.723051 
L 289.815112 298.557971 
L 290.659926 295.392891 
L 291.445502 292.227811 
L 292.154883 289.062732 
L 292.759959 285.897652 
L 293.232179 282.732572 
L 293.556645 279.567492 
L 293.740483 276.402412 
L 293.81111 273.237333 
L 293.806552 270.072253 
L 293.763133 266.907173 
L 293.706132 263.742093 
L 293.647572 260.577013 
L 293.591609 257.411934 
L 293.542988 254.246854 
L 293.511871 251.081774 
L 293.511921 247.916694 
L 293.554663 244.751614 
L 293.64547 241.586535 
L 293.783175 238.421455 
L 293.960991 235.256375 
L 294.166217 232.091295 
L 294.379523 228.926215 
L 294.576804 225.761135 
L 294.734932 222.596056 
L 294.839245 219.430976 
L 294.888745 216.265896 
L 294.895982 213.100816 
L 294.881278 209.935736 
L 294.863739 206.770657 
L 294.85331 203.605577 
L 294.847944 200.440497 
L 294.837453 197.275417 
L 294.811657 194.110337 
L 294.76777 190.945258 
L 294.712481 187.780178 
L 294.657606 184.615098 
L 294.61197 181.450018 
L 294.574248 178.284938 
L 294.531036 175.119859 
L 294.462192 171.954779 
L 294.351952 168.789699 
L 294.200593 165.624619 
L 294.029601 162.459539 
L 293.875921 159.294459 
L 293.777543 156.12938 
L 293.758687 152.9643 
L 293.822925 149.79922 
L 293.956244 146.63414 
L 294.13517 143.46906 
L 294.333547 140.303981 
L 294.525815 137.138901 
L 294.689102 133.973821 
L 294.806805 130.808741 
L 294.87319 127.643661 
L 294.89589 124.478582 
L 294.893565 121.313502 
L 294.888818 118.148422 
L 294.899495 114.983342 
L 294.932663 111.818262 
L 294.984034 108.653183 
L 295.042399 105.488103 
L 295.095852 102.323023 
L 295.13615 99.157943 
L 295.159442 95.992863 
L 295.164105 92.827784 
L 295.147937 89.662704 
L 295.107018 86.497624 
L 295.037578 83.332544 
L 294.940545 80.167464 
L 294.826358 77.002384 
L 294.716268 73.837305 
L 294.637306 70.672225 
L 294.611951 67.507145 
L 295.788049 67.507145 
L 295.788049 67.507145 
L 295.762694 70.672225 
L 295.683732 73.837305 
L 295.573642 77.002384 
L 295.459455 80.167464 
L 295.362422 83.332544 
L 295.292982 86.497624 
L 295.252063 89.662704 
L 295.235895 92.827784 
L 295.240558 95.992863 
L 295.26385 99.157943 
L 295.304148 102.323023 
L 295.357601 105.488103 
L 295.415966 108.653183 
L 295.467337 111.818262 
L 295.500505 114.983342 
L 295.511182 118.148422 
L 295.506435 121.313502 
L 295.50411 124.478582 
L 295.52681 127.643661 
L 295.593195 130.808741 
L 295.710898 133.973821 
L 295.874185 137.138901 
L 296.066453 140.303981 
L 296.26483 143.46906 
L 296.443756 146.63414 
L 296.577075 149.79922 
L 296.641313 152.9643 
L 296.622457 156.12938 
L 296.524079 159.294459 
L 296.370399 162.459539 
L 296.199407 165.624619 
L 296.048048 168.789699 
L 295.937808 171.954779 
L 295.868964 175.119859 
L 295.825752 178.284938 
L 295.78803 181.450018 
L 295.742394 184.615098 
L 295.687519 187.780178 
L 295.63223 190.945258 
L 295.588343 194.110337 
L 295.562547 197.275417 
L 295.552056 200.440497 
L 295.54669 203.605577 
L 295.536261 206.770657 
L 295.518722 209.935736 
L 295.504018 213.100816 
L 295.511255 216.265896 
L 295.560755 219.430976 
L 295.665068 222.596056 
L 295.823196 225.761135 
L 296.020477 228.926215 
L 296.233783 232.091295 
L 296.439009 235.256375 
L 296.616825 238.421455 
L 296.75453 241.586535 
L 296.845337 244.751614 
L 296.888079 247.916694 
L 296.888129 251.081774 
L 296.857012 254.246854 
L 296.808391 257.411934 
L 296.752428 260.577013 
L 296.693868 263.742093 
L 296.636867 266.907173 
L 296.593448 270.072253 
L 296.58889 273.237333 
L 296.659517 276.402412 
L 296.843355 279.567492 
L 297.167821 282.732572 
L 297.640041 285.897652 
L 298.245117 289.062732 
L 298.954498 292.227811 
L 299.740074 295.392891 
L 300.584888 298.557971 
L 301.48496 301.723051 
L 302.446994 304.888131 
L 303.492314 308.05321 
L 304.67032 311.21829 
L 306.072652 314.38337 
L 307.837804 317.54845 
L 310.14817 320.71353 
L 313.231554 323.87861 
L 317.369777 327.043689 
L 322.892992 330.208769 
L 330.125882 333.373849 
L 339.272238 336.538929 
L 350.268519 339.704009 
L 362.669117 342.869088 
L 375.616458 346.034168 
L 387.905816 349.199248 
L 398.120424 352.364328 
L 404.820679 355.529408 
L 406.8 358.694487 
L 403.404243 361.859567 
L 394.823394 365.024647 
L 382.178807 368.189727 
L 367.271809 371.354807 
L 352.054781 374.519886 
L 338.085412 377.684966 
L 326.238857 380.850046 
z
" clip-path="url(#pa02fc1de3d)" style="fill: #1f77b4; fill-opacity: 0.3"/>
   </g>
   <g id="matplotlib.axis_1">
    <g id="xtick_1">
     <g id="line2d_1">
      <defs>
       <path id="me526017439" d="M 0 0 
L 0 3.5 
" style="stroke: #000000; stroke-width: 0.8"/>
      </defs>
      <g>
       <use xlink:href="#me526017439" x="295.2" y="384.48" style="stroke: #000000; stroke-width: 0.8"/>
      </g>
     </g>
     <g id="text_1">
      <!-- 1 -->
      <g transform="translate(292.01875 399.078438) scale(0.1 -0.1)">
       <defs>
        <path id="DejaVuSans-31" d="M 794 531 
L 1825 531 
L 1825 4091 
L 703 3866 
L 703 4441 
L 1819 4666 
L 2450 4666 
L 2450 531 
L 3481 531 
L 3481 0 
L 794 0 
L 794 531 
z
" transform="scale(0.015625)"/>
       </defs>
       <use xlink:href="#DejaVuSans-31"/>
      </g>
     </g>
    </g>
   </g>
   <g id="matplotlib.axis_2">
    <g id="ytick_1">
     <g id="line2d_2">
      <defs>
       <path id="mba2e674ef1" d="M 0 0 
L -3.5 0 
" style="stroke: #000000; stroke-width: 0.8"/>
      </defs>
      <g>
       <use xlink:href="#mba2e674ef1" x="72" y="384.48" style="stroke: #000000; stroke-width: 0.8"/>
      </g>
     </g>
     <g id="text_2">
      <!-- 0 -->
      <g transform="translate(58.6375 388.279219) scale(0.1 -0.1)">
       <defs>
        <path id="DejaVuSans-30" d="M 2034 4250 
Q 1547 4250 1301 3770 
Q 1056 3291 1056 2328 
Q 1056 1369 1301 889 
Q 1547 409 2034 409 
Q 2525 409 2770 889 
Q 3016 1369 3016 2328 
Q 3016 3291 2770 3770 
Q 2525 4250 2034 4250 
z
M 2034 4750 
Q 2819 4750 3233 4129 
Q 3647 3509 3647 2328 
Q 3647 1150 3233 529 
Q 2819 -91 2034 -91 
Q 1250 -91 836 529 
Q 422 1150 422 2328 
Q 422 3509 836 4129 
Q 1250 4750 2034 4750 
z
" transform="scale(0.015625)"/>
       </defs>
       <use xlink:href="#DejaVuSans-30"/>
      </g>
     </g>
    </g>
    <g id="ytick_2">
     <g id="line2d_3">
      <g>
       <use xlink:href="#mba2e674ef1" x="72" y="346.255474" style="stroke: #000000; stroke-width: 0.8"/>
      </g>
     </g>
     <g id="text_3">
      <!-- 5 -->
      <g transform="translate(58.6375 350.054693) scale(0.1 -0.1)">
       <defs>
        <path id="DejaVuSans-35" d="M 691 4666 
L 3169 4666 
L 3169 4134 
L 1269 4134 
L 1269 2991 
Q 1406 3038 1543 3061 
Q 1681 3084 1819 3084 
Q 2600 3084 3056 2656 
Q 3513 2228 3513 1497 
Q 3513 744 3044 326 
Q 2575 -91 1722 -91 
Q 1428 -91 1123 -41 
Q 819 9 494 109 
L 494 744 
Q 775 591 1075 516 
Q 1375 441 1709 441 
Q 2250 441 2565 725 
Q 2881 1009 2881 1497 
Q 2881 1984 2565 2268 
Q 2250 2553 1709 2553 
Q 1456 2553 1204 2497 
Q 953 2441 691 2322 
L 691 4666 
z
" transform="scale(0.015625)"/>
       </defs>
       <use xlink:href="#DejaVuSans-35"/>
      </g>
     </g>
    </g>
    <g id="ytick_3">
     <g id="line2d_4">
      <g>
       <use xlink:href="#mba2e674ef1" x="72" y="308.030948" style="stroke: #000000; stroke-width: 0.8"/>
      </g>
     </g>
     <g id="text_4">
      <!-- 10 -->
      <g transform="translate(52.275 311.830166) scale(0.1 -0.1)">
       <use xlink:href="#DejaVuSans-31"/>
       <use xlink:href="#DejaVuSans-30" transform="translate(63.623047 0)"/>
      </g>
     </g>
    </g>
    <g id="ytick_4">
     <g id="line2d_5">
      <g>
       <use xlink:href="#mba2e674ef1" x="72" y="269.806421" style="stroke: #000000; stroke-width: 0.8"/>
      </g>
     </g>
     <g id="text_5">
      <!-- 15 -->
      <g transform="translate(52.275 273.60564) scale(0.1 -0.1)">
       <use xlink:href="#DejaVuSans-31"/>
       <use xlink:href="#DejaVuSans-35" transform="translate(63.623047 0)"/>
      </g>
     </g>
    </g>
    <g id="ytick_5">
     <g id="line2d_6">
      <g>
       <use xlink:href="#mba2e674ef1" x="72" y="231.581895" style="stroke: #000000; stroke-width: 0.8"/>
      </g>
     </g>
     <g id="text_6">
      <!-- 20 -->
      <g transform="translate(52.275 235.381114) scale(0.1 -0.1)">
       <defs>
        <path id="DejaVuSans-32" d="M 1228 531 
L 3431 531 
L 3431 0 
L 469 0 
L 469 531 
Q 828 903 1448 1529 
Q 2069 2156 2228 2338 
Q 2531 2678 2651 2914 
Q 2772 3150 2772 3378 
Q 2772 3750 2511 3984 
Q 2250 4219 1831 4219 
Q 1534 4219 1204 4116 
Q 875 4013 500 3803 
L 500 4441 
Q 881 4594 1212 4672 
Q 1544 4750 1819 4750 
Q 2544 4750 2975 4387 
Q 3406 4025 3406 3419 
Q 3406 3131 3298 2873 
Q 3191 2616 2906 2266 
Q 2828 2175 2409 1742 
Q 1991 1309 1228 531 
z
" transform="scale(0.015625)"/>
       </defs>
       <use xlink:href="#DejaVuSans-32"/>
       <use xlink:href="#DejaVuSans-30" transform="translate(63.623047 0)"/>
      </g>
     </g>
    </g>
    <g id="ytick_6">
     <g id="line2d_7">
      <g>
       <use xlink:href="#mba2e674ef1" x="72" y="193.357369" style="stroke: #000000; stroke-width: 0.8"/>
      </g>
     </g>
     <g id="text_7">
      <!-- 25 -->
      <g transform="translate(52.275 197.156588) scale(0.1 -0.1)">
       <use xlink:href="#DejaVuSans-32"/>
       <use xlink:href="#DejaVuSans-35" transform="translate(63.623047 0)"/>
      </g>
     </g>
    </g>
    <g id="ytick_7">
     <g id="line2d_8">
      <g>
       <use xlink:href="#mba2e674ef1" x="72" y="155.132843" style="stroke: #000000; stroke-width: 0.8"/>
      </g>
     </g>
     <g id="text_8">
      <!-- 30 -->
      <g transform="translate(52.275 158.932061) scale(0.1 -0.1)">
       <defs>
        <path id="DejaVuSans-33" d="M 2597 2516 
Q 3050 2419 3304 2112 
Q 3559 1806 3559 1356 
Q 3559 666 3084 287 
Q 2609 -91 1734 -91 
Q 1441 -91 1130 -33 
Q 819 25 488 141 
L 488 750 
Q 750 597 1062 519 
Q 1375 441 1716 441 
Q 2309 441 2620 675 
Q 2931 909 2931 1356 
Q 2931 1769 2642 2001 
Q 2353 2234 1838 2234 
L 1294 2234 
L 1294 2753 
L 1863 2753 
Q 2328 2753 2575 2939 
Q 2822 3125 2822 3475 
Q 2822 3834 2567 4026 
Q 2313 4219 1838 4219 
Q 1578 4219 1281 4162 
Q 984 4106 628 3988 
L 628 4550 
Q 988 4650 1302 4700 
Q 1616 4750 1894 4750 
Q 2613 4750 3031 4423 
Q 3450 4097 3450 3541 
Q 3450 3153 3228 2886 
Q 3006 2619 2597 2516 
z
" transform="scale(0.015625)"/>
       </defs>
       <use xlink:href="#DejaVuSans-33"/>
       <use xlink:href="#DejaVuSans-30" transform="translate(63.623047 0)"/>
      </g>
     </g>
    </g>
    <g id="ytick_8">
     <g id="line2d_9">
      <g>
       <use xlink:href="#mba2e674ef1" x="72" y="116.908316" style="stroke: #000000; stroke-width: 0.8"/>
      </g>
     </g>
     <g id="text_9">
      <!-- 35 -->
      <g transform="translate(52.275 120.707535) scale(0.1 -0.1)">
       <use xlink:href="#DejaVuSans-33"/>
       <use xlink:href="#DejaVuSans-35" transform="translate(63.623047 0)"/>
      </g>
     </g>
    </g>
    <g id="ytick_9">
     <g id="line2d_10">
      <g>
       <use xlink:href="#mba2e674ef1" x="72" y="78.68379" style="stroke: #000000; stroke-width: 0.8"/>
      </g>
     </g>
     <g id="text_10">
      <!-- 40 -->
      <g transform="translate(52.275 82.483009) scale(0.1 -0.1)">
       <defs>
        <path id="DejaVuSans-34" d="M 2419 4116 
L 825 1625 
L 2419 1625 
L 2419 4116 
z
M 2253 4666 
L 3047 4666 
L 3047 1625 
L 3713 1625 
L 3713 1100 
L 3047 1100 
L 3047 0 
L 2419 0 
L 2419 1100 
L 313 1100 
L 313 1709 
L 2253 4666 
z
" transform="scale(0.015625)"/>
       </defs>
       <use xlink:href="#DejaVuSans-34"/>
       <use xlink:href="#DejaVuSans-30" transform="translate(63.623047 0)"/>
      </g>
     </g>
    </g>
    <g id="text_11">
     <!-- Time (ms) -->
     <g transform="translate(46.195312 243.359219) rotate(-90) scale(0.1 -0.1)">
      <defs>
       <path id="DejaVuSans-54" d="M -19 4666 
L 3928 4666 
L 3928 4134 
L 2272 4134 
L 2272 0 
L 1638 0 
L 1638 4134 
L -19 4134 
L -19 4666 
z
" transform="scale(0.015625)"/>
       <path id="DejaVuSans-69" d="M 603 3500 
L 1178 3500 
L 1178 0 
L 603 0 
L 603 3500 
z
M 603 4863 
L 1178 4863 
L 1178 4134 
L 603 4134 
L 603 4863 
z
" transform="scale(0.015625)"/>
       <path id="DejaVuSans-6d" d="M 3328 2828 
Q 3544 3216 3844 3400 
Q 4144 3584 4550 3584 
Q 5097 3584 5394 3201 
Q 5691 2819 5691 2113 
L 5691 0 
L 5113 0 
L 5113 2094 
Q 5113 2597 4934 2840 
Q 4756 3084 4391 3084 
Q 3944 3084 3684 2787 
Q 3425 2491 3425 1978 
L 3425 0 
L 2847 0 
L 2847 2094 
Q 2847 2600 2669 2842 
Q 2491 3084 2119 3084 
Q 1678 3084 1418 2786 
Q 1159 2488 1159 1978 
L 1159 0 
L 581 0 
L 581 3500 
L 1159 3500 
L 1159 2956 
Q 1356 3278 1631 3431 
Q 1906 3584 2284 3584 
Q 2666 3584 2933 3390 
Q 3200 3197 3328 2828 
z
" transform="scale(0.015625)"/>
       <path id="DejaVuSans-65" d="M 3597 1894 
L 3597 1613 
L 953 1613 
Q 991 1019 1311 708 
Q 1631 397 2203 397 
Q 2534 397 2845 478 
Q 3156 559 3463 722 
L 3463 178 
Q 3153 47 2828 -22 
Q 2503 -91 2169 -91 
Q 1331 -91 842 396 
Q 353 884 353 1716 
Q 353 2575 817 3079 
Q 1281 3584 2069 3584 
Q 2775 3584 3186 3129 
Q 3597 2675 3597 1894 
z
M 3022 2063 
Q 3016 2534 2758 2815 
Q 2500 3097 2075 3097 
Q 1594 3097 1305 2825 
Q 1016 2553 972 2059 
L 3022 2063 
z
" transform="scale(0.015625)"/>
       <path id="DejaVuSans-20" transform="scale(0.015625)"/>
       <path id="DejaVuSans-28" d="M 1984 4856 
Q 1566 4138 1362 3434 
Q 1159 2731 1159 2009 
Q 1159 1288 1364 580 
Q 1569 -128 1984 -844 
L 1484 -844 
Q 1016 -109 783 600 
Q 550 1309 550 2009 
Q 550 2706 781 3412 
Q 1013 4119 1484 4856 
L 1984 4856 
z
" transform="scale(0.015625)"/>
       <path id="DejaVuSans-73" d="M 2834 3397 
L 2834 2853 
Q 2591 2978 2328 3040 
Q 2066 3103 1784 3103 
Q 1356 3103 1142 2972 
Q 928 2841 928 2578 
Q 928 2378 1081 2264 
Q 1234 2150 1697 2047 
L 1894 2003 
Q 2506 1872 2764 1633 
Q 3022 1394 3022 966 
Q 3022 478 2636 193 
Q 2250 -91 1575 -91 
Q 1294 -91 989 -36 
Q 684 19 347 128 
L 347 722 
Q 666 556 975 473 
Q 1284 391 1588 391 
Q 1994 391 2212 530 
Q 2431 669 2431 922 
Q 2431 1156 2273 1281 
Q 2116 1406 1581 1522 
L 1381 1569 
Q 847 1681 609 1914 
Q 372 2147 372 2553 
Q 372 3047 722 3315 
Q 1072 3584 1716 3584 
Q 2034 3584 2315 3537 
Q 2597 3491 2834 3397 
z
" transform="scale(0.015625)"/>
       <path id="DejaVuSans-29" d="M 513 4856 
L 1013 4856 
Q 1481 4119 1714 3412 
Q 1947 2706 1947 2009 
Q 1947 1309 1714 600 
Q 1481 -109 1013 -844 
L 513 -844 
Q 928 -128 1133 580 
Q 1338 1288 1338 2009 
Q 1338 2731 1133 3434 
Q 928 4138 513 4856 
z
" transform="scale(0.015625)"/>
      </defs>
      <use xlink:href="#DejaVuSans-54"/>
      <use xlink:href="#DejaVuSans-69" transform="translate(57.958984 0)"/>
      <use xlink:href="#DejaVuSans-6d" transform="translate(85.742188 0)"/>
      <use xlink:href="#DejaVuSans-65" transform="translate(183.154297 0)"/>
      <use xlink:href="#DejaVuSans-20" transform="translate(244.677734 0)"/>
      <use xlink:href="#DejaVuSans-28" transform="translate(276.464844 0)"/>
      <use xlink:href="#DejaVuSans-6d" transform="translate(315.478516 0)"/>
      <use xlink:href="#DejaVuSans-73" transform="translate(412.890625 0)"/>
      <use xlink:href="#DejaVuSans-29" transform="translate(464.990234 0)"/>
     </g>
    </g>
   </g>
   <g id="LineCollection_1">
    <path d="M 239.4 348.19748 
L 351 348.19748 
" clip-path="url(#pa02fc1de3d)" style="fill: none; stroke: #1f77b4; stroke-width: 1.5"/>
   </g>
   <g id="LineCollection_2">
    <path d="M 239.4 67.507145 
L 351 67.507145 
" clip-path="url(#pa02fc1de3d)" style="fill: none; stroke: #1f77b4; stroke-width: 1.5"/>
   </g>
   <g id="LineCollection_3">
    <path d="M 239.4 380.850046 
L 351 380.850046 
" clip-path="url(#pa02fc1de3d)" style="fill: none; stroke: #1f77b4; stroke-width: 1.5"/>
   </g>
   <g id="LineCollection_4">
    <path d="M 295.2 380.850046 
L 295.2 67.507145 
" clip-path="url(#pa02fc1de3d)" style="fill: none; stroke: #1f77b4; stroke-width: 1.5"/>
   </g>
   <g id="patch_3">
    <path d="M 250.56 364.825105 
L 339.84 364.825105 
L 339.84 346.019976 
L 250.56 346.019976 
L 250.56 364.825105 
z
" clip-path="url(#pa02fc1de3d)" style="fill: #1f77b4; stroke: #000000; stroke-linejoin: miter"/>
   </g>
   <g id="line2d_11">
    <path d="M 295.2 364.825105 
L 295.2 380.850046 
" clip-path="url(#pa02fc1de3d)" style="fill: none; stroke: #000000; stroke-linecap: square"/>
   </g>
   <g id="line2d_12">
    <path d="M 295.2 346.019976 
L 295.2 318.369543 
" clip-path="url(#pa02fc1de3d)" style="fill: none; stroke: #000000; stroke-linecap: square"/>
   </g>
   <g id="line2d_13">
    <path d="M 272.88 380.850046 
L 317.52 380.850046 
" clip-path="url(#pa02fc1de3d)" style="fill: none; stroke: #000000; stroke-linecap: square"/>
   </g>
   <g id="line2d_14">
    <path d="M 272.88 318.369543 
L 317.52 318.369543 
" clip-path="url(#pa02fc1de3d)" style="fill: none; stroke: #000000; stroke-linecap: square"/>
   </g>
   <g id="line2d_15">
    <defs>
     <path id="ma683ed9aca" d="M 0 3 
C 0.795609 3 1.55874 2.683901 2.12132 2.12132 
C 2.683901 1.55874 3 0.795609 3 0 
C 3 -0.795609 2.683901 -1.55874 2.12132 -2.12132 
C 1.55874 -2.683901 0.795609 -3 0 -3 
C -0.795609 -3 -1.55874 -2.683901 -2.12132 -2.12132 
C -2.683901 -1.55874 -3 -0.795609 -3 0 
C -3 0.795609 -2.683901 1.55874 -2.12132 2.12132 
C -1.55874 2.683901 -0.795609 3 0 3 
z
" style="stroke: #000000"/>
    </defs>
    <g clip-path="url(#pa02fc1de3d)">
     <use xlink:href="#ma683ed9aca" x="295.2" y="116.323214" style="fill-opacity: 0; stroke: #000000"/>
     <use xlink:href="#ma683ed9aca" x="295.2" y="248.453238" style="fill-opacity: 0; stroke: #000000"/>
     <use xlink:href="#ma683ed9aca" x="295.2" y="292.868639" style="fill-opacity: 0; stroke: #000000"/>
     <use xlink:href="#ma683ed9aca" x="295.2" y="308.688035" style="fill-opacity: 0; stroke: #000000"/>
     <use xlink:href="#ma683ed9aca" x="295.2" y="304.748477" style="fill-opacity: 0; stroke: #000000"/>
     <use xlink:href="#ma683ed9aca" x="295.2" y="310.710946" style="fill-opacity: 0; stroke: #000000"/>
     <use xlink:href="#ma683ed9aca" x="295.2" y="311.532773" style="fill-opacity: 0; stroke: #000000"/>
     <use xlink:href="#ma683ed9aca" x="295.2" y="176.18127" style="fill-opacity: 0; stroke: #000000"/>
     <use xlink:href="#ma683ed9aca" x="295.2" y="267.002851" style="fill-opacity: 0; stroke: #000000"/>
     <use xlink:href="#ma683ed9aca" x="295.2" y="312.159433" style="fill-opacity: 0; stroke: #000000"/>
     <use xlink:href="#ma683ed9aca" x="295.2" y="316.134264" style="fill-opacity: 0; stroke: #000000"/>
     <use xlink:href="#ma683ed9aca" x="295.2" y="315.203818" style="fill-opacity: 0; stroke: #000000"/>
     <use xlink:href="#ma683ed9aca" x="295.2" y="144.66881" style="fill-opacity: 0; stroke: #000000"/>
     <use xlink:href="#ma683ed9aca" x="295.2" y="249.007837" style="fill-opacity: 0; stroke: #000000"/>
     <use xlink:href="#ma683ed9aca" x="295.2" y="315.547816" style="fill-opacity: 0; stroke: #000000"/>
     <use xlink:href="#ma683ed9aca" x="295.2" y="317.169377" style="fill-opacity: 0; stroke: #000000"/>
     <use xlink:href="#ma683ed9aca" x="295.2" y="156.257829" style="fill-opacity: 0; stroke: #000000"/>
     <use xlink:href="#ma683ed9aca" x="295.2" y="238.311491" style="fill-opacity: 0; stroke: #000000"/>
     <use xlink:href="#ma683ed9aca" x="295.2" y="292.556757" style="fill-opacity: 0; stroke: #000000"/>
     <use xlink:href="#ma683ed9aca" x="295.2" y="294.304383" style="fill-opacity: 0; stroke: #000000"/>
     <use xlink:href="#ma683ed9aca" x="295.2" y="67.507145" style="fill-opacity: 0; stroke: #000000"/>
     <use xlink:href="#ma683ed9aca" x="295.2" y="231.488566" style="fill-opacity: 0; stroke: #000000"/>
     <use xlink:href="#ma683ed9aca" x="295.2" y="306.550045" style="fill-opacity: 0; stroke: #000000"/>
     <use xlink:href="#ma683ed9aca" x="295.2" y="313.737311" style="fill-opacity: 0; stroke: #000000"/>
     <use xlink:href="#ma683ed9aca" x="295.2" y="306.724357" style="fill-opacity: 0; stroke: #000000"/>
     <use xlink:href="#ma683ed9aca" x="295.2" y="264.278123" style="fill-opacity: 0; stroke: #000000"/>
     <use xlink:href="#ma683ed9aca" x="295.2" y="309.845894" style="fill-opacity: 0; stroke: #000000"/>
     <use xlink:href="#ma683ed9aca" x="295.2" y="299.03174" style="fill-opacity: 0; stroke: #000000"/>
     <use xlink:href="#ma683ed9aca" x="295.2" y="265.132861" style="fill-opacity: 0; stroke: #000000"/>
     <use xlink:href="#ma683ed9aca" x="295.2" y="141.80392" style="fill-opacity: 0; stroke: #000000"/>
     <use xlink:href="#ma683ed9aca" x="295.2" y="206.031765" style="fill-opacity: 0; stroke: #000000"/>
     <use xlink:href="#ma683ed9aca" x="295.2" y="282.205953" style="fill-opacity: 0; stroke: #000000"/>
     <use xlink:href="#ma683ed9aca" x="295.2" y="295.709623" style="fill-opacity: 0; stroke: #000000"/>
     <use xlink:href="#ma683ed9aca" x="295.2" y="160.650767" style="fill-opacity: 0; stroke: #000000"/>
     <use xlink:href="#ma683ed9aca" x="295.2" y="254.623448" style="fill-opacity: 0; stroke: #000000"/>
     <use xlink:href="#ma683ed9aca" x="295.2" y="309.917144" style="fill-opacity: 0; stroke: #000000"/>
     <use xlink:href="#ma683ed9aca" x="295.2" y="294.696161" style="fill-opacity: 0; stroke: #000000"/>
     <use xlink:href="#ma683ed9aca" x="295.2" y="154.60289" style="fill-opacity: 0; stroke: #000000"/>
     <use xlink:href="#ma683ed9aca" x="295.2" y="185.448928" style="fill-opacity: 0; stroke: #000000"/>
     <use xlink:href="#ma683ed9aca" x="295.2" y="301.740238" style="fill-opacity: 0; stroke: #000000"/>
     <use xlink:href="#ma683ed9aca" x="295.2" y="307.515887" style="fill-opacity: 0; stroke: #000000"/>
     <use xlink:href="#ma683ed9aca" x="295.2" y="308.033302" style="fill-opacity: 0; stroke: #000000"/>
     <use xlink:href="#ma683ed9aca" x="295.2" y="155.168223" style="fill-opacity: 0; stroke: #000000"/>
     <use xlink:href="#ma683ed9aca" x="295.2" y="236.78488" style="fill-opacity: 0; stroke: #000000"/>
     <use xlink:href="#ma683ed9aca" x="295.2" y="296.887084" style="fill-opacity: 0; stroke: #000000"/>
     <use xlink:href="#ma683ed9aca" x="295.2" y="311.761638" style="fill-opacity: 0; stroke: #000000"/>
     <use xlink:href="#ma683ed9aca" x="295.2" y="277.371101" style="fill-opacity: 0; stroke: #000000"/>
     <use xlink:href="#ma683ed9aca" x="295.2" y="68.068281" style="fill-opacity: 0; stroke: #000000"/>
     <use xlink:href="#ma683ed9aca" x="295.2" y="248.003977" style="fill-opacity: 0; stroke: #000000"/>
     <use xlink:href="#ma683ed9aca" x="295.2" y="294.072176" style="fill-opacity: 0; stroke: #000000"/>
     <use xlink:href="#ma683ed9aca" x="295.2" y="306.395404" style="fill-opacity: 0; stroke: #000000"/>
     <use xlink:href="#ma683ed9aca" x="295.2" y="313.226356" style="fill-opacity: 0; stroke: #000000"/>
    </g>
   </g>
   <g id="line2d_16">
    <path d="M 250.56 356.499272 
L 339.84 356.499272 
" clip-path="url(#pa02fc1de3d)" style="fill: none; stroke: #ff7f0e"/>
   </g>
   <g id="patch_4">
    <path d="M 72 384.48 
L 72 51.84 
" style="fill: none; stroke: #000000; stroke-width: 0.8; stroke-linejoin: miter; stroke-linecap: square"/>
   </g>
   <g id="patch_5">
    <path d="M 518.4 384.48 
L 518.4 51.84 
" style="fill: none; stroke: #000000; stroke-width: 0.8; stroke-linejoin: miter; stroke-linecap: square"/>
   </g>
   <g id="patch_6">
    <path d="M 72 384.48 
L 518.4 384.48 
" style="fill: none; stroke: #000000; stroke-width: 0.8; stroke-linejoin: miter; stroke-linecap: square"/>
   </g>
   <g id="patch_7">
    <path d="M 72 51.84 
L 518.4 51.84 
" style="fill: none; stroke: #000000; stroke-width: 0.8; stroke-linejoin: miter; stroke-linecap: square"/>
   </g>
   <g id="text_12">
    <!-- Handle Result -->
    <g transform="translate(253.595625 45.84) scale(0.12 -0.12)">
     <defs>
      <path id="DejaVuSans-48" d="M 628 4666 
L 1259 4666 
L 1259 2753 
L 3553 2753 
L 3553 4666 
L 4184 4666 
L 4184 0 
L 3553 0 
L 3553 2222 
L 1259 2222 
L 1259 0 
L 628 0 
L 628 4666 
z
" transform="scale(0.015625)"/>
      <path id="DejaVuSans-61" d="M 2194 1759 
Q 1497 1759 1228 1600 
Q 959 1441 959 1056 
Q 959 750 1161 570 
Q 1363 391 1709 391 
Q 2188 391 2477 730 
Q 2766 1069 2766 1631 
L 2766 1759 
L 2194 1759 
z
M 3341 1997 
L 3341 0 
L 2766 0 
L 2766 531 
Q 2569 213 2275 61 
Q 1981 -91 1556 -91 
Q 1019 -91 701 211 
Q 384 513 384 1019 
Q 384 1609 779 1909 
Q 1175 2209 1959 2209 
L 2766 2209 
L 2766 2266 
Q 2766 2663 2505 2880 
Q 2244 3097 1772 3097 
Q 1472 3097 1187 3025 
Q 903 2953 641 2809 
L 641 3341 
Q 956 3463 1253 3523 
Q 1550 3584 1831 3584 
Q 2591 3584 2966 3190 
Q 3341 2797 3341 1997 
z
" transform="scale(0.015625)"/>
      <path id="DejaVuSans-6e" d="M 3513 2113 
L 3513 0 
L 2938 0 
L 2938 2094 
Q 2938 2591 2744 2837 
Q 2550 3084 2163 3084 
Q 1697 3084 1428 2787 
Q 1159 2491 1159 1978 
L 1159 0 
L 581 0 
L 581 3500 
L 1159 3500 
L 1159 2956 
Q 1366 3272 1645 3428 
Q 1925 3584 2291 3584 
Q 2894 3584 3203 3211 
Q 3513 2838 3513 2113 
z
" transform="scale(0.015625)"/>
      <path id="DejaVuSans-64" d="M 2906 2969 
L 2906 4863 
L 3481 4863 
L 3481 0 
L 2906 0 
L 2906 525 
Q 2725 213 2448 61 
Q 2172 -91 1784 -91 
Q 1150 -91 751 415 
Q 353 922 353 1747 
Q 353 2572 751 3078 
Q 1150 3584 1784 3584 
Q 2172 3584 2448 3432 
Q 2725 3281 2906 2969 
z
M 947 1747 
Q 947 1113 1208 752 
Q 1469 391 1925 391 
Q 2381 391 2643 752 
Q 2906 1113 2906 1747 
Q 2906 2381 2643 2742 
Q 2381 3103 1925 3103 
Q 1469 3103 1208 2742 
Q 947 2381 947 1747 
z
" transform="scale(0.015625)"/>
      <path id="DejaVuSans-6c" d="M 603 4863 
L 1178 4863 
L 1178 0 
L 603 0 
L 603 4863 
z
" transform="scale(0.015625)"/>
      <path id="DejaVuSans-52" d="M 2841 2188 
Q 3044 2119 3236 1894 
Q 3428 1669 3622 1275 
L 4263 0 
L 3584 0 
L 2988 1197 
Q 2756 1666 2539 1819 
Q 2322 1972 1947 1972 
L 1259 1972 
L 1259 0 
L 628 0 
L 628 4666 
L 2053 4666 
Q 2853 4666 3247 4331 
Q 3641 3997 3641 3322 
Q 3641 2881 3436 2590 
Q 3231 2300 2841 2188 
z
M 1259 4147 
L 1259 2491 
L 2053 2491 
Q 2509 2491 2742 2702 
Q 2975 2913 2975 3322 
Q 2975 3731 2742 3939 
Q 2509 4147 2053 4147 
L 1259 4147 
z
" transform="scale(0.015625)"/>
      <path id="DejaVuSans-75" d="M 544 1381 
L 544 3500 
L 1119 3500 
L 1119 1403 
Q 1119 906 1312 657 
Q 1506 409 1894 409 
Q 2359 409 2629 706 
Q 2900 1003 2900 1516 
L 2900 3500 
L 3475 3500 
L 3475 0 
L 2900 0 
L 2900 538 
Q 2691 219 2414 64 
Q 2138 -91 1772 -91 
Q 1169 -91 856 284 
Q 544 659 544 1381 
z
M 1991 3584 
L 1991 3584 
z
" transform="scale(0.015625)"/>
      <path id="DejaVuSans-74" d="M 1172 4494 
L 1172 3500 
L 2356 3500 
L 2356 3053 
L 1172 3053 
L 1172 1153 
Q 1172 725 1289 603 
Q 1406 481 1766 481 
L 2356 481 
L 2356 0 
L 1766 0 
Q 1100 0 847 248 
Q 594 497 594 1153 
L 594 3053 
L 172 3053 
L 172 3500 
L 594 3500 
L 594 4494 
L 1172 4494 
z
" transform="scale(0.015625)"/>
     </defs>
     <use xlink:href="#DejaVuSans-48"/>
     <use xlink:href="#DejaVuSans-61" transform="translate(75.195312 0)"/>
     <use xlink:href="#DejaVuSans-6e" transform="translate(136.474609 0)"/>
     <use xlink:href="#DejaVuSans-64" transform="translate(199.853516 0)"/>
     <use xlink:href="#DejaVuSans-6c" transform="translate(263.330078 0)"/>
     <use xlink:href="#DejaVuSans-65" transform="translate(291.113281 0)"/>
     <use xlink:href="#DejaVuSans-20" transform="translate(352.636719 0)"/>
     <use xlink:href="#DejaVuSans-52" transform="translate(384.423828 0)"/>
     <use xlink:href="#DejaVuSans-65" transform="translate(449.40625 0)"/>
     <use xlink:href="#DejaVuSans-73" transform="translate(510.929688 0)"/>
     <use xlink:href="#DejaVuSans-75" transform="translate(563.029297 0)"/>
     <use xlink:href="#DejaVuSans-6c" transform="translate(626.408203 0)"/>
     <use xlink:href="#DejaVuSans-74" transform="translate(654.191406 0)"/>
    </g>
   </g>
  </g>
 </g>
 <defs>
  <clipPath id="pa02fc1de3d">
   <rect x="72" y="51.84" width="446.4" height="332.64"/>
  </clipPath>
 </defs>
</svg>
