<?xml version="1.0" encoding="utf-8" standalone="no"?>
<!DOCTYPE svg PUBLIC "-//W3C//DTD SVG 1.1//EN"
  "http://www.w3.org/Graphics/SVG/1.1/DTD/svg11.dtd">
<svg xmlns:xlink="http://www.w3.org/1999/xlink" width="576pt" height="432pt" viewBox="0 0 576 432" xmlns="http://www.w3.org/2000/svg" version="1.1">
 <metadata>
  <rdf:RDF xmlns:dc="http://purl.org/dc/elements/1.1/" xmlns:cc="http://creativecommons.org/ns#" xmlns:rdf="http://www.w3.org/1999/02/22-rdf-syntax-ns#">
   <cc:Work>
    <dc:type rdf:resource="http://purl.org/dc/dcmitype/StillImage"/>
    <dc:date>2025-06-10T03:16:53.061765</dc:date>
    <dc:format>image/svg+xml</dc:format>
    <dc:creator>
     <cc:Agent>
      <dc:title>Matplotlib v3.10.3, https://matplotlib.org/</dc:title>
     </cc:Agent>
    </dc:creator>
   </cc:Work>
  </rdf:RDF>
 </metadata>
 <defs>
  <style type="text/css">*{stroke-linejoin: round; stroke-linecap: butt}</style>
 </defs>
 <g id="figure_1">
  <g id="patch_1">
   <path d="M 0 432 
L 576 432 
L 576 0 
L 0 0 
z
" style="fill: #ffffff"/>
  </g>
  <g id="axes_1">
   <g id="patch_2">
    <path d="M 72 384.48 
L 518.4 384.48 
L 518.4 51.84 
L 72 51.84 
z
" style="fill: #ffffff"/>
   </g>
   <g id="FillBetweenPolyCollection_1">
    <path d="M 333.064748 359.642662 
L 257.335252 359.642662 
L 245.030778 356.681597 
L 231.886576 353.720532 
L 218.796923 350.759468 
L 206.744165 347.798403 
L 196.653555 344.837339 
L 189.23738 341.876274 
L 184.878421 338.91521 
L 183.6 335.954145 
L 185.128479 332.993081 
L 189.00465 330.032016 
L 194.685418 327.070951 
L 201.606015 324.109887 
L 209.214277 321.148822 
L 217.005041 318.187758 
L 224.567025 315.226693 
L 231.628914 312.265629 
L 238.080338 309.304564 
L 243.953135 306.343499 
L 249.367738 303.382435 
L 254.46481 300.42137 
L 259.345957 297.460306 
L 264.040499 294.499241 
L 268.503306 291.538177 
L 272.637945 288.577112 
L 276.333253 285.616047 
L 279.500167 282.654983 
L 282.097535 279.693918 
L 284.140176 276.732854 
L 285.689158 273.771789 
L 286.831288 270.810725 
L 287.658389 267.84966 
L 288.254575 264.888595 
L 288.693001 261.927531 
L 289.03741 258.966466 
L 289.342545 256.005402 
L 289.651269 253.044337 
L 289.990935 250.083273 
L 290.372913 247.122208 
L 290.796357 244.161144 
L 291.253544 241.200079 
L 291.733191 238.239014 
L 292.220768 235.27795 
L 292.69799 232.316885 
L 293.144346 229.355821 
L 293.541331 226.394756 
L 293.877254 223.433692 
L 294.149472 220.472627 
L 294.362282 217.511562 
L 294.5213 214.550498 
L 294.627226 211.589433 
L 294.672339 208.628369 
L 294.641831 205.667304 
L 294.519872 202.70624 
L 294.298264 199.745175 
L 293.98433 196.78411 
L 293.60461 193.823046 
L 293.202057 190.861981 
L 292.826695 187.900917 
L 292.522542 184.939852 
L 292.315746 181.978788 
L 292.208968 179.017723 
L 292.184489 176.056659 
L 292.214575 173.095594 
L 292.274134 170.134529 
L 292.349771 167.173465 
L 292.441523 164.2124 
L 292.557717 161.251336 
L 292.706903 158.290271 
L 292.891626 155.329207 
L 293.106645 152.368142 
L 293.341125 149.407077 
L 293.582473 146.446013 
L 293.819581 143.484948 
L 294.044345 140.523884 
L 294.25129 137.562819 
L 294.435825 134.601755 
L 294.592147 131.64069 
L 294.712275 128.679625 
L 294.787434 125.718561 
L 294.811886 122.757496 
L 294.787718 119.796432 
L 294.727989 116.835367 
L 294.655816 113.874303 
L 294.598669 110.913238 
L 294.579691 107.952174 
L 294.609867 104.991109 
L 294.684857 102.030044 
L 294.787943 99.06898 
L 294.897207 96.107915 
L 294.993069 93.146851 
L 295.062807 90.185786 
L 295.101115 87.224722 
L 295.108189 84.263657 
L 295.087685 81.302592 
L 295.046012 78.341528 
L 294.992641 75.380463 
L 294.939948 72.419399 
L 294.901234 69.458334 
L 294.887045 66.49727 
L 295.512955 66.49727 
L 295.512955 66.49727 
L 295.498766 69.458334 
L 295.460052 72.419399 
L 295.407359 75.380463 
L 295.353988 78.341528 
L 295.312315 81.302592 
L 295.291811 84.263657 
L 295.298885 87.224722 
L 295.337193 90.185786 
L 295.406931 93.146851 
L 295.502793 96.107915 
L 295.612057 99.06898 
L 295.715143 102.030044 
L 295.790133 104.991109 
L 295.820309 107.952174 
L 295.801331 110.913238 
L 295.744184 113.874303 
L 295.672011 116.835367 
L 295.612282 119.796432 
L 295.588114 122.757496 
L 295.612566 125.718561 
L 295.687725 128.679625 
L 295.807853 131.64069 
L 295.964175 134.601755 
L 296.14871 137.562819 
L 296.355655 140.523884 
L 296.580419 143.484948 
L 296.817527 146.446013 
L 297.058875 149.407077 
L 297.293355 152.368142 
L 297.508374 155.329207 
L 297.693097 158.290271 
L 297.842283 161.251336 
L 297.958477 164.2124 
L 298.050229 167.173465 
L 298.125866 170.134529 
L 298.185425 173.095594 
L 298.215511 176.056659 
L 298.191032 179.017723 
L 298.084254 181.978788 
L 297.877458 184.939852 
L 297.573305 187.900917 
L 297.197943 190.861981 
L 296.79539 193.823046 
L 296.41567 196.78411 
L 296.101736 199.745175 
L 295.880128 202.70624 
L 295.758169 205.667304 
L 295.727661 208.628369 
L 295.772774 211.589433 
L 295.8787 214.550498 
L 296.037718 217.511562 
L 296.250528 220.472627 
L 296.522746 223.433692 
L 296.858669 226.394756 
L 297.255654 229.355821 
L 297.70201 232.316885 
L 298.179232 235.27795 
L 298.666809 238.239014 
L 299.146456 241.200079 
L 299.603643 244.161144 
L 300.027087 247.122208 
L 300.409065 250.083273 
L 300.748731 253.044337 
L 301.057455 256.005402 
L 301.36259 258.966466 
L 301.706999 261.927531 
L 302.145425 264.888595 
L 302.741611 267.84966 
L 303.568712 270.810725 
L 304.710842 273.771789 
L 306.259824 276.732854 
L 308.302465 279.693918 
L 310.899833 282.654983 
L 314.066747 285.616047 
L 317.762055 288.577112 
L 321.896694 291.538177 
L 326.359501 294.499241 
L 331.054043 297.460306 
L 335.93519 300.42137 
L 341.032262 303.382435 
L 346.446865 306.343499 
L 352.319662 309.304564 
L 358.771086 312.265629 
L 365.832975 315.226693 
L 373.394959 318.187758 
L 381.185723 321.148822 
L 388.793985 324.109887 
L 395.714582 327.070951 
L 401.39535 330.032016 
L 405.271521 332.993081 
L 406.8 335.954145 
L 405.521579 338.91521 
L 401.16262 341.876274 
L 393.746445 344.837339 
L 383.655835 347.798403 
L 371.603077 350.759468 
L 358.513424 353.720532 
L 345.369222 356.681597 
L 333.064748 359.642662 
z
" clip-path="url(#p569732c3fe)" style="fill: #1f77b4; fill-opacity: 0.3"/>
   </g>
   <g id="matplotlib.axis_1">
    <g id="xtick_1">
     <g id="line2d_1">
      <defs>
       <path id="m35192abfe3" d="M 0 0 
L 0 3.5 
" style="stroke: #000000; stroke-width: 0.8"/>
      </defs>
      <g>
       <use xlink:href="#m35192abfe3" x="295.2" y="384.48" style="stroke: #000000; stroke-width: 0.8"/>
      </g>
     </g>
     <g id="text_1">
      <!-- 1 -->
      <g transform="translate(292.01875 399.078438) scale(0.1 -0.1)">
       <defs>
        <path id="DejaVuSans-31" d="M 794 531 
L 1825 531 
L 1825 4091 
L 703 3866 
L 703 4441 
L 1819 4666 
L 2450 4666 
L 2450 531 
L 3481 531 
L 3481 0 
L 794 0 
L 794 531 
z
" transform="scale(0.015625)"/>
       </defs>
       <use xlink:href="#DejaVuSans-31"/>
      </g>
     </g>
    </g>
   </g>
   <g id="matplotlib.axis_2">
    <g id="ytick_1">
     <g id="line2d_2">
      <defs>
       <path id="m117060fd82" d="M 0 0 
L -3.5 0 
" style="stroke: #000000; stroke-width: 0.8"/>
      </defs>
      <g>
       <use xlink:href="#m117060fd82" x="72" y="384.48" style="stroke: #000000; stroke-width: 0.8"/>
      </g>
     </g>
     <g id="text_2">
      <!-- 0.0 -->
      <g transform="translate(49.096875 388.279219) scale(0.1 -0.1)">
       <defs>
        <path id="DejaVuSans-30" d="M 2034 4250 
Q 1547 4250 1301 3770 
Q 1056 3291 1056 2328 
Q 1056 1369 1301 889 
Q 1547 409 2034 409 
Q 2525 409 2770 889 
Q 3016 1369 3016 2328 
Q 3016 3291 2770 3770 
Q 2525 4250 2034 4250 
z
M 2034 4750 
Q 2819 4750 3233 4129 
Q 3647 3509 3647 2328 
Q 3647 1150 3233 529 
Q 2819 -91 2034 -91 
Q 1250 -91 836 529 
Q 422 1150 422 2328 
Q 422 3509 836 4129 
Q 1250 4750 2034 4750 
z
" transform="scale(0.015625)"/>
        <path id="DejaVuSans-2e" d="M 684 794 
L 1344 794 
L 1344 0 
L 684 0 
L 684 794 
z
" transform="scale(0.015625)"/>
       </defs>
       <use xlink:href="#DejaVuSans-30"/>
       <use xlink:href="#DejaVuSans-2e" transform="translate(63.623047 0)"/>
       <use xlink:href="#DejaVuSans-30" transform="translate(95.410156 0)"/>
      </g>
     </g>
    </g>
    <g id="ytick_2">
     <g id="line2d_3">
      <g>
       <use xlink:href="#m117060fd82" x="72" y="346.474815" style="stroke: #000000; stroke-width: 0.8"/>
      </g>
     </g>
     <g id="text_3">
      <!-- 0.2 -->
      <g transform="translate(49.096875 350.274034) scale(0.1 -0.1)">
       <defs>
        <path id="DejaVuSans-32" d="M 1228 531 
L 3431 531 
L 3431 0 
L 469 0 
L 469 531 
Q 828 903 1448 1529 
Q 2069 2156 2228 2338 
Q 2531 2678 2651 2914 
Q 2772 3150 2772 3378 
Q 2772 3750 2511 3984 
Q 2250 4219 1831 4219 
Q 1534 4219 1204 4116 
Q 875 4013 500 3803 
L 500 4441 
Q 881 4594 1212 4672 
Q 1544 4750 1819 4750 
Q 2544 4750 2975 4387 
Q 3406 4025 3406 3419 
Q 3406 3131 3298 2873 
Q 3191 2616 2906 2266 
Q 2828 2175 2409 1742 
Q 1991 1309 1228 531 
z
" transform="scale(0.015625)"/>
       </defs>
       <use xlink:href="#DejaVuSans-30"/>
       <use xlink:href="#DejaVuSans-2e" transform="translate(63.623047 0)"/>
       <use xlink:href="#DejaVuSans-32" transform="translate(95.410156 0)"/>
      </g>
     </g>
    </g>
    <g id="ytick_3">
     <g id="line2d_4">
      <g>
       <use xlink:href="#m117060fd82" x="72" y="308.46963" style="stroke: #000000; stroke-width: 0.8"/>
      </g>
     </g>
     <g id="text_4">
      <!-- 0.4 -->
      <g transform="translate(49.096875 312.268849) scale(0.1 -0.1)">
       <defs>
        <path id="DejaVuSans-34" d="M 2419 4116 
L 825 1625 
L 2419 1625 
L 2419 4116 
z
M 2253 4666 
L 3047 4666 
L 3047 1625 
L 3713 1625 
L 3713 1100 
L 3047 1100 
L 3047 0 
L 2419 0 
L 2419 1100 
L 313 1100 
L 313 1709 
L 2253 4666 
z
" transform="scale(0.015625)"/>
       </defs>
       <use xlink:href="#DejaVuSans-30"/>
       <use xlink:href="#DejaVuSans-2e" transform="translate(63.623047 0)"/>
       <use xlink:href="#DejaVuSans-34" transform="translate(95.410156 0)"/>
      </g>
     </g>
    </g>
    <g id="ytick_4">
     <g id="line2d_5">
      <g>
       <use xlink:href="#m117060fd82" x="72" y="270.464446" style="stroke: #000000; stroke-width: 0.8"/>
      </g>
     </g>
     <g id="text_5">
      <!-- 0.6 -->
      <g transform="translate(49.096875 274.263664) scale(0.1 -0.1)">
       <defs>
        <path id="DejaVuSans-36" d="M 2113 2584 
Q 1688 2584 1439 2293 
Q 1191 2003 1191 1497 
Q 1191 994 1439 701 
Q 1688 409 2113 409 
Q 2538 409 2786 701 
Q 3034 994 3034 1497 
Q 3034 2003 2786 2293 
Q 2538 2584 2113 2584 
z
M 3366 4563 
L 3366 3988 
Q 3128 4100 2886 4159 
Q 2644 4219 2406 4219 
Q 1781 4219 1451 3797 
Q 1122 3375 1075 2522 
Q 1259 2794 1537 2939 
Q 1816 3084 2150 3084 
Q 2853 3084 3261 2657 
Q 3669 2231 3669 1497 
Q 3669 778 3244 343 
Q 2819 -91 2113 -91 
Q 1303 -91 875 529 
Q 447 1150 447 2328 
Q 447 3434 972 4092 
Q 1497 4750 2381 4750 
Q 2619 4750 2861 4703 
Q 3103 4656 3366 4563 
z
" transform="scale(0.015625)"/>
       </defs>
       <use xlink:href="#DejaVuSans-30"/>
       <use xlink:href="#DejaVuSans-2e" transform="translate(63.623047 0)"/>
       <use xlink:href="#DejaVuSans-36" transform="translate(95.410156 0)"/>
      </g>
     </g>
    </g>
    <g id="ytick_5">
     <g id="line2d_6">
      <g>
       <use xlink:href="#m117060fd82" x="72" y="232.459261" style="stroke: #000000; stroke-width: 0.8"/>
      </g>
     </g>
     <g id="text_6">
      <!-- 0.8 -->
      <g transform="translate(49.096875 236.25848) scale(0.1 -0.1)">
       <defs>
        <path id="DejaVuSans-38" d="M 2034 2216 
Q 1584 2216 1326 1975 
Q 1069 1734 1069 1313 
Q 1069 891 1326 650 
Q 1584 409 2034 409 
Q 2484 409 2743 651 
Q 3003 894 3003 1313 
Q 3003 1734 2745 1975 
Q 2488 2216 2034 2216 
z
M 1403 2484 
Q 997 2584 770 2862 
Q 544 3141 544 3541 
Q 544 4100 942 4425 
Q 1341 4750 2034 4750 
Q 2731 4750 3128 4425 
Q 3525 4100 3525 3541 
Q 3525 3141 3298 2862 
Q 3072 2584 2669 2484 
Q 3125 2378 3379 2068 
Q 3634 1759 3634 1313 
Q 3634 634 3220 271 
Q 2806 -91 2034 -91 
Q 1263 -91 848 271 
Q 434 634 434 1313 
Q 434 1759 690 2068 
Q 947 2378 1403 2484 
z
M 1172 3481 
Q 1172 3119 1398 2916 
Q 1625 2713 2034 2713 
Q 2441 2713 2670 2916 
Q 2900 3119 2900 3481 
Q 2900 3844 2670 4047 
Q 2441 4250 2034 4250 
Q 1625 4250 1398 4047 
Q 1172 3844 1172 3481 
z
" transform="scale(0.015625)"/>
       </defs>
       <use xlink:href="#DejaVuSans-30"/>
       <use xlink:href="#DejaVuSans-2e" transform="translate(63.623047 0)"/>
       <use xlink:href="#DejaVuSans-38" transform="translate(95.410156 0)"/>
      </g>
     </g>
    </g>
    <g id="ytick_6">
     <g id="line2d_7">
      <g>
       <use xlink:href="#m117060fd82" x="72" y="194.454076" style="stroke: #000000; stroke-width: 0.8"/>
      </g>
     </g>
     <g id="text_7">
      <!-- 1.0 -->
      <g transform="translate(49.096875 198.253295) scale(0.1 -0.1)">
       <use xlink:href="#DejaVuSans-31"/>
       <use xlink:href="#DejaVuSans-2e" transform="translate(63.623047 0)"/>
       <use xlink:href="#DejaVuSans-30" transform="translate(95.410156 0)"/>
      </g>
     </g>
    </g>
    <g id="ytick_7">
     <g id="line2d_8">
      <g>
       <use xlink:href="#m117060fd82" x="72" y="156.448891" style="stroke: #000000; stroke-width: 0.8"/>
      </g>
     </g>
     <g id="text_8">
      <!-- 1.2 -->
      <g transform="translate(49.096875 160.24811) scale(0.1 -0.1)">
       <use xlink:href="#DejaVuSans-31"/>
       <use xlink:href="#DejaVuSans-2e" transform="translate(63.623047 0)"/>
       <use xlink:href="#DejaVuSans-32" transform="translate(95.410156 0)"/>
      </g>
     </g>
    </g>
    <g id="ytick_8">
     <g id="line2d_9">
      <g>
       <use xlink:href="#m117060fd82" x="72" y="118.443706" style="stroke: #000000; stroke-width: 0.8"/>
      </g>
     </g>
     <g id="text_9">
      <!-- 1.4 -->
      <g transform="translate(49.096875 122.242925) scale(0.1 -0.1)">
       <use xlink:href="#DejaVuSans-31"/>
       <use xlink:href="#DejaVuSans-2e" transform="translate(63.623047 0)"/>
       <use xlink:href="#DejaVuSans-34" transform="translate(95.410156 0)"/>
      </g>
     </g>
    </g>
    <g id="ytick_9">
     <g id="line2d_10">
      <g>
       <use xlink:href="#m117060fd82" x="72" y="80.438522" style="stroke: #000000; stroke-width: 0.8"/>
      </g>
     </g>
     <g id="text_10">
      <!-- 1.6 -->
      <g transform="translate(49.096875 84.23774) scale(0.1 -0.1)">
       <use xlink:href="#DejaVuSans-31"/>
       <use xlink:href="#DejaVuSans-2e" transform="translate(63.623047 0)"/>
       <use xlink:href="#DejaVuSans-36" transform="translate(95.410156 0)"/>
      </g>
     </g>
    </g>
    <g id="text_11">
     <!-- Time (ms) -->
     <g transform="translate(43.017187 243.359219) rotate(-90) scale(0.1 -0.1)">
      <defs>
       <path id="DejaVuSans-54" d="M -19 4666 
L 3928 4666 
L 3928 4134 
L 2272 4134 
L 2272 0 
L 1638 0 
L 1638 4134 
L -19 4134 
L -19 4666 
z
" transform="scale(0.015625)"/>
       <path id="DejaVuSans-69" d="M 603 3500 
L 1178 3500 
L 1178 0 
L 603 0 
L 603 3500 
z
M 603 4863 
L 1178 4863 
L 1178 4134 
L 603 4134 
L 603 4863 
z
" transform="scale(0.015625)"/>
       <path id="DejaVuSans-6d" d="M 3328 2828 
Q 3544 3216 3844 3400 
Q 4144 3584 4550 3584 
Q 5097 3584 5394 3201 
Q 5691 2819 5691 2113 
L 5691 0 
L 5113 0 
L 5113 2094 
Q 5113 2597 4934 2840 
Q 4756 3084 4391 3084 
Q 3944 3084 3684 2787 
Q 3425 2491 3425 1978 
L 3425 0 
L 2847 0 
L 2847 2094 
Q 2847 2600 2669 2842 
Q 2491 3084 2119 3084 
Q 1678 3084 1418 2786 
Q 1159 2488 1159 1978 
L 1159 0 
L 581 0 
L 581 3500 
L 1159 3500 
L 1159 2956 
Q 1356 3278 1631 3431 
Q 1906 3584 2284 3584 
Q 2666 3584 2933 3390 
Q 3200 3197 3328 2828 
z
" transform="scale(0.015625)"/>
       <path id="DejaVuSans-65" d="M 3597 1894 
L 3597 1613 
L 953 1613 
Q 991 1019 1311 708 
Q 1631 397 2203 397 
Q 2534 397 2845 478 
Q 3156 559 3463 722 
L 3463 178 
Q 3153 47 2828 -22 
Q 2503 -91 2169 -91 
Q 1331 -91 842 396 
Q 353 884 353 1716 
Q 353 2575 817 3079 
Q 1281 3584 2069 3584 
Q 2775 3584 3186 3129 
Q 3597 2675 3597 1894 
z
M 3022 2063 
Q 3016 2534 2758 2815 
Q 2500 3097 2075 3097 
Q 1594 3097 1305 2825 
Q 1016 2553 972 2059 
L 3022 2063 
z
" transform="scale(0.015625)"/>
       <path id="DejaVuSans-20" transform="scale(0.015625)"/>
       <path id="DejaVuSans-28" d="M 1984 4856 
Q 1566 4138 1362 3434 
Q 1159 2731 1159 2009 
Q 1159 1288 1364 580 
Q 1569 -128 1984 -844 
L 1484 -844 
Q 1016 -109 783 600 
Q 550 1309 550 2009 
Q 550 2706 781 3412 
Q 1013 4119 1484 4856 
L 1984 4856 
z
" transform="scale(0.015625)"/>
       <path id="DejaVuSans-73" d="M 2834 3397 
L 2834 2853 
Q 2591 2978 2328 3040 
Q 2066 3103 1784 3103 
Q 1356 3103 1142 2972 
Q 928 2841 928 2578 
Q 928 2378 1081 2264 
Q 1234 2150 1697 2047 
L 1894 2003 
Q 2506 1872 2764 1633 
Q 3022 1394 3022 966 
Q 3022 478 2636 193 
Q 2250 -91 1575 -91 
Q 1294 -91 989 -36 
Q 684 19 347 128 
L 347 722 
Q 666 556 975 473 
Q 1284 391 1588 391 
Q 1994 391 2212 530 
Q 2431 669 2431 922 
Q 2431 1156 2273 1281 
Q 2116 1406 1581 1522 
L 1381 1569 
Q 847 1681 609 1914 
Q 372 2147 372 2553 
Q 372 3047 722 3315 
Q 1072 3584 1716 3584 
Q 2034 3584 2315 3537 
Q 2597 3491 2834 3397 
z
" transform="scale(0.015625)"/>
       <path id="DejaVuSans-29" d="M 513 4856 
L 1013 4856 
Q 1481 4119 1714 3412 
Q 1947 2706 1947 2009 
Q 1947 1309 1714 600 
Q 1481 -109 1013 -844 
L 513 -844 
Q 928 -128 1133 580 
Q 1338 1288 1338 2009 
Q 1338 2731 1133 3434 
Q 928 4138 513 4856 
z
" transform="scale(0.015625)"/>
      </defs>
      <use xlink:href="#DejaVuSans-54"/>
      <use xlink:href="#DejaVuSans-69" transform="translate(57.958984 0)"/>
      <use xlink:href="#DejaVuSans-6d" transform="translate(85.742188 0)"/>
      <use xlink:href="#DejaVuSans-65" transform="translate(183.154297 0)"/>
      <use xlink:href="#DejaVuSans-20" transform="translate(244.677734 0)"/>
      <use xlink:href="#DejaVuSans-28" transform="translate(276.464844 0)"/>
      <use xlink:href="#DejaVuSans-6d" transform="translate(315.478516 0)"/>
      <use xlink:href="#DejaVuSans-73" transform="translate(412.890625 0)"/>
      <use xlink:href="#DejaVuSans-29" transform="translate(464.990234 0)"/>
     </g>
    </g>
   </g>
   <g id="LineCollection_1">
    <path d="M 239.4 320.569594 
L 351 320.569594 
" clip-path="url(#p569732c3fe)" style="fill: none; stroke: #1f77b4; stroke-width: 1.5"/>
   </g>
   <g id="LineCollection_2">
    <path d="M 239.4 66.49727 
L 351 66.49727 
" clip-path="url(#p569732c3fe)" style="fill: none; stroke: #1f77b4; stroke-width: 1.5"/>
   </g>
   <g id="LineCollection_3">
    <path d="M 239.4 359.642662 
L 351 359.642662 
" clip-path="url(#p569732c3fe)" style="fill: none; stroke: #1f77b4; stroke-width: 1.5"/>
   </g>
   <g id="LineCollection_4">
    <path d="M 295.2 359.642662 
L 295.2 66.49727 
" clip-path="url(#p569732c3fe)" style="fill: none; stroke: #1f77b4; stroke-width: 1.5"/>
   </g>
   <g id="patch_3">
    <path d="M 250.56 342.031249 
L 339.84 342.031249 
L 339.84 312.229293 
L 250.56 312.229293 
L 250.56 342.031249 
z
" clip-path="url(#p569732c3fe)" style="fill: #1f77b4; stroke: #000000; stroke-linejoin: miter"/>
   </g>
   <g id="line2d_11">
    <path d="M 295.2 342.031249 
L 295.2 359.642662 
" clip-path="url(#p569732c3fe)" style="fill: none; stroke: #000000; stroke-linecap: square"/>
   </g>
   <g id="line2d_12">
    <path d="M 295.2 312.229293 
L 295.2 270.820744 
" clip-path="url(#p569732c3fe)" style="fill: none; stroke: #000000; stroke-linecap: square"/>
   </g>
   <g id="line2d_13">
    <path d="M 272.88 359.642662 
L 317.52 359.642662 
" clip-path="url(#p569732c3fe)" style="fill: none; stroke: #000000; stroke-linecap: square"/>
   </g>
   <g id="line2d_14">
    <path d="M 272.88 270.820744 
L 317.52 270.820744 
" clip-path="url(#p569732c3fe)" style="fill: none; stroke: #000000; stroke-linecap: square"/>
   </g>
   <g id="line2d_15">
    <defs>
     <path id="m0d43eb1ee1" d="M 0 3 
C 0.795609 3 1.55874 2.683901 2.12132 2.12132 
C 2.683901 1.55874 3 0.795609 3 0 
C 3 -0.795609 2.683901 -1.55874 2.12132 -2.12132 
C 1.55874 -2.683901 0.795609 -3 0 -3 
C -0.795609 -3 -1.55874 -2.683901 -2.12132 -2.12132 
C -2.683901 -1.55874 -3 -0.795609 -3 0 
C -3 0.795609 -2.683901 1.55874 -2.12132 2.12132 
C -1.55874 2.683901 -0.795609 3 0 3 
z
" style="stroke: #000000"/>
    </defs>
    <g clip-path="url(#p569732c3fe)">
     <use xlink:href="#m0d43eb1ee1" x="295.2" y="156.705996" style="fill-opacity: 0; stroke: #000000"/>
     <use xlink:href="#m0d43eb1ee1" x="295.2" y="255.333251" style="fill-opacity: 0; stroke: #000000"/>
     <use xlink:href="#m0d43eb1ee1" x="295.2" y="66.49727" style="fill-opacity: 0; stroke: #000000"/>
     <use xlink:href="#m0d43eb1ee1" x="295.2" y="258.145825" style="fill-opacity: 0; stroke: #000000"/>
     <use xlink:href="#m0d43eb1ee1" x="295.2" y="151.23287" style="fill-opacity: 0; stroke: #000000"/>
     <use xlink:href="#m0d43eb1ee1" x="295.2" y="109.843133" style="fill-opacity: 0; stroke: #000000"/>
     <use xlink:href="#m0d43eb1ee1" x="295.2" y="259.684845" style="fill-opacity: 0; stroke: #000000"/>
     <use xlink:href="#m0d43eb1ee1" x="295.2" y="178.920977" style="fill-opacity: 0; stroke: #000000"/>
     <use xlink:href="#m0d43eb1ee1" x="295.2" y="173.543243" style="fill-opacity: 0; stroke: #000000"/>
     <use xlink:href="#m0d43eb1ee1" x="295.2" y="261.072414" style="fill-opacity: 0; stroke: #000000"/>
     <use xlink:href="#m0d43eb1ee1" x="295.2" y="185.933123" style="fill-opacity: 0; stroke: #000000"/>
     <use xlink:href="#m0d43eb1ee1" x="295.2" y="225.403028" style="fill-opacity: 0; stroke: #000000"/>
     <use xlink:href="#m0d43eb1ee1" x="295.2" y="233.973577" style="fill-opacity: 0; stroke: #000000"/>
     <use xlink:href="#m0d43eb1ee1" x="295.2" y="238.53439" style="fill-opacity: 0; stroke: #000000"/>
     <use xlink:href="#m0d43eb1ee1" x="295.2" y="244.292365" style="fill-opacity: 0; stroke: #000000"/>
     <use xlink:href="#m0d43eb1ee1" x="295.2" y="148.81973" style="fill-opacity: 0; stroke: #000000"/>
     <use xlink:href="#m0d43eb1ee1" x="295.2" y="143.422614" style="fill-opacity: 0; stroke: #000000"/>
     <use xlink:href="#m0d43eb1ee1" x="295.2" y="173.258014" style="fill-opacity: 0; stroke: #000000"/>
     <use xlink:href="#m0d43eb1ee1" x="295.2" y="238.496384" style="fill-opacity: 0; stroke: #000000"/>
     <use xlink:href="#m0d43eb1ee1" x="295.2" y="166.835138" style="fill-opacity: 0; stroke: #000000"/>
     <use xlink:href="#m0d43eb1ee1" x="295.2" y="266.963598" style="fill-opacity: 0; stroke: #000000"/>
     <use xlink:href="#m0d43eb1ee1" x="295.2" y="254.687163" style="fill-opacity: 0; stroke: #000000"/>
     <use xlink:href="#m0d43eb1ee1" x="295.2" y="187.453141" style="fill-opacity: 0; stroke: #000000"/>
     <use xlink:href="#m0d43eb1ee1" x="295.2" y="231.750084" style="fill-opacity: 0; stroke: #000000"/>
     <use xlink:href="#m0d43eb1ee1" x="295.2" y="255.884326" style="fill-opacity: 0; stroke: #000000"/>
     <use xlink:href="#m0d43eb1ee1" x="295.2" y="246.952538" style="fill-opacity: 0; stroke: #000000"/>
     <use xlink:href="#m0d43eb1ee1" x="295.2" y="185.458059" style="fill-opacity: 0; stroke: #000000"/>
     <use xlink:href="#m0d43eb1ee1" x="295.2" y="240.890901" style="fill-opacity: 0; stroke: #000000"/>
     <use xlink:href="#m0d43eb1ee1" x="295.2" y="134.605221" style="fill-opacity: 0; stroke: #000000"/>
     <use xlink:href="#m0d43eb1ee1" x="295.2" y="252.444857" style="fill-opacity: 0; stroke: #000000"/>
     <use xlink:href="#m0d43eb1ee1" x="295.2" y="266.526348" style="fill-opacity: 0; stroke: #000000"/>
     <use xlink:href="#m0d43eb1ee1" x="295.2" y="266.165299" style="fill-opacity: 0; stroke: #000000"/>
     <use xlink:href="#m0d43eb1ee1" x="295.2" y="239.883574" style="fill-opacity: 0; stroke: #000000"/>
     <use xlink:href="#m0d43eb1ee1" x="295.2" y="162.5968" style="fill-opacity: 0; stroke: #000000"/>
     <use xlink:href="#m0d43eb1ee1" x="295.2" y="265.157972" style="fill-opacity: 0; stroke: #000000"/>
     <use xlink:href="#m0d43eb1ee1" x="295.2" y="251.228501" style="fill-opacity: 0; stroke: #000000"/>
     <use xlink:href="#m0d43eb1ee1" x="295.2" y="184.906793" style="fill-opacity: 0; stroke: #000000"/>
     <use xlink:href="#m0d43eb1ee1" x="295.2" y="264.245847" style="fill-opacity: 0; stroke: #000000"/>
     <use xlink:href="#m0d43eb1ee1" x="295.2" y="266.31732" style="fill-opacity: 0; stroke: #000000"/>
     <use xlink:href="#m0d43eb1ee1" x="295.2" y="177.819207" style="fill-opacity: 0; stroke: #000000"/>
     <use xlink:href="#m0d43eb1ee1" x="295.2" y="193.002658" style="fill-opacity: 0; stroke: #000000"/>
     <use xlink:href="#m0d43eb1ee1" x="295.2" y="179.643265" style="fill-opacity: 0; stroke: #000000"/>
     <use xlink:href="#m0d43eb1ee1" x="295.2" y="255.295436" style="fill-opacity: 0; stroke: #000000"/>
     <use xlink:href="#m0d43eb1ee1" x="295.2" y="253.338169" style="fill-opacity: 0; stroke: #000000"/>
     <use xlink:href="#m0d43eb1ee1" x="295.2" y="215.160441" style="fill-opacity: 0; stroke: #000000"/>
     <use xlink:href="#m0d43eb1ee1" x="295.2" y="105.929169" style="fill-opacity: 0; stroke: #000000"/>
     <use xlink:href="#m0d43eb1ee1" x="295.2" y="162.15993" style="fill-opacity: 0; stroke: #000000"/>
     <use xlink:href="#m0d43eb1ee1" x="295.2" y="246.420845" style="fill-opacity: 0; stroke: #000000"/>
     <use xlink:href="#m0d43eb1ee1" x="295.2" y="165.257353" style="fill-opacity: 0; stroke: #000000"/>
     <use xlink:href="#m0d43eb1ee1" x="295.2" y="157.750949" style="fill-opacity: 0; stroke: #000000"/>
     <use xlink:href="#m0d43eb1ee1" x="295.2" y="249.252232" style="fill-opacity: 0; stroke: #000000"/>
    </g>
   </g>
   <g id="line2d_16">
    <path d="M 250.56 329.218276 
L 339.84 329.218276 
" clip-path="url(#p569732c3fe)" style="fill: none; stroke: #ff7f0e"/>
   </g>
   <g id="patch_4">
    <path d="M 72 384.48 
L 72 51.84 
" style="fill: none; stroke: #000000; stroke-width: 0.8; stroke-linejoin: miter; stroke-linecap: square"/>
   </g>
   <g id="patch_5">
    <path d="M 518.4 384.48 
L 518.4 51.84 
" style="fill: none; stroke: #000000; stroke-width: 0.8; stroke-linejoin: miter; stroke-linecap: square"/>
   </g>
   <g id="patch_6">
    <path d="M 72 384.48 
L 518.4 384.48 
" style="fill: none; stroke: #000000; stroke-width: 0.8; stroke-linejoin: miter; stroke-linecap: square"/>
   </g>
   <g id="patch_7">
    <path d="M 72 51.84 
L 518.4 51.84 
" style="fill: none; stroke: #000000; stroke-width: 0.8; stroke-linejoin: miter; stroke-linecap: square"/>
   </g>
   <g id="text_12">
    <!-- getExpectedPoints -->
    <g transform="translate(239.3325 45.84) scale(0.12 -0.12)">
     <defs>
      <path id="DejaVuSans-67" d="M 2906 1791 
Q 2906 2416 2648 2759 
Q 2391 3103 1925 3103 
Q 1463 3103 1205 2759 
Q 947 2416 947 1791 
Q 947 1169 1205 825 
Q 1463 481 1925 481 
Q 2391 481 2648 825 
Q 2906 1169 2906 1791 
z
M 3481 434 
Q 3481 -459 3084 -895 
Q 2688 -1331 1869 -1331 
Q 1566 -1331 1297 -1286 
Q 1028 -1241 775 -1147 
L 775 -588 
Q 1028 -725 1275 -790 
Q 1522 -856 1778 -856 
Q 2344 -856 2625 -561 
Q 2906 -266 2906 331 
L 2906 616 
Q 2728 306 2450 153 
Q 2172 0 1784 0 
Q 1141 0 747 490 
Q 353 981 353 1791 
Q 353 2603 747 3093 
Q 1141 3584 1784 3584 
Q 2172 3584 2450 3431 
Q 2728 3278 2906 2969 
L 2906 3500 
L 3481 3500 
L 3481 434 
z
" transform="scale(0.015625)"/>
      <path id="DejaVuSans-74" d="M 1172 4494 
L 1172 3500 
L 2356 3500 
L 2356 3053 
L 1172 3053 
L 1172 1153 
Q 1172 725 1289 603 
Q 1406 481 1766 481 
L 2356 481 
L 2356 0 
L 1766 0 
Q 1100 0 847 248 
Q 594 497 594 1153 
L 594 3053 
L 172 3053 
L 172 3500 
L 594 3500 
L 594 4494 
L 1172 4494 
z
" transform="scale(0.015625)"/>
      <path id="DejaVuSans-45" d="M 628 4666 
L 3578 4666 
L 3578 4134 
L 1259 4134 
L 1259 2753 
L 3481 2753 
L 3481 2222 
L 1259 2222 
L 1259 531 
L 3634 531 
L 3634 0 
L 628 0 
L 628 4666 
z
" transform="scale(0.015625)"/>
      <path id="DejaVuSans-78" d="M 3513 3500 
L 2247 1797 
L 3578 0 
L 2900 0 
L 1881 1375 
L 863 0 
L 184 0 
L 1544 1831 
L 300 3500 
L 978 3500 
L 1906 2253 
L 2834 3500 
L 3513 3500 
z
" transform="scale(0.015625)"/>
      <path id="DejaVuSans-70" d="M 1159 525 
L 1159 -1331 
L 581 -1331 
L 581 3500 
L 1159 3500 
L 1159 2969 
Q 1341 3281 1617 3432 
Q 1894 3584 2278 3584 
Q 2916 3584 3314 3078 
Q 3713 2572 3713 1747 
Q 3713 922 3314 415 
Q 2916 -91 2278 -91 
Q 1894 -91 1617 61 
Q 1341 213 1159 525 
z
M 3116 1747 
Q 3116 2381 2855 2742 
Q 2594 3103 2138 3103 
Q 1681 3103 1420 2742 
Q 1159 2381 1159 1747 
Q 1159 1113 1420 752 
Q 1681 391 2138 391 
Q 2594 391 2855 752 
Q 3116 1113 3116 1747 
z
" transform="scale(0.015625)"/>
      <path id="DejaVuSans-63" d="M 3122 3366 
L 3122 2828 
Q 2878 2963 2633 3030 
Q 2388 3097 2138 3097 
Q 1578 3097 1268 2742 
Q 959 2388 959 1747 
Q 959 1106 1268 751 
Q 1578 397 2138 397 
Q 2388 397 2633 464 
Q 2878 531 3122 666 
L 3122 134 
Q 2881 22 2623 -34 
Q 2366 -91 2075 -91 
Q 1284 -91 818 406 
Q 353 903 353 1747 
Q 353 2603 823 3093 
Q 1294 3584 2113 3584 
Q 2378 3584 2631 3529 
Q 2884 3475 3122 3366 
z
" transform="scale(0.015625)"/>
      <path id="DejaVuSans-64" d="M 2906 2969 
L 2906 4863 
L 3481 4863 
L 3481 0 
L 2906 0 
L 2906 525 
Q 2725 213 2448 61 
Q 2172 -91 1784 -91 
Q 1150 -91 751 415 
Q 353 922 353 1747 
Q 353 2572 751 3078 
Q 1150 3584 1784 3584 
Q 2172 3584 2448 3432 
Q 2725 3281 2906 2969 
z
M 947 1747 
Q 947 1113 1208 752 
Q 1469 391 1925 391 
Q 2381 391 2643 752 
Q 2906 1113 2906 1747 
Q 2906 2381 2643 2742 
Q 2381 3103 1925 3103 
Q 1469 3103 1208 2742 
Q 947 2381 947 1747 
z
" transform="scale(0.015625)"/>
      <path id="DejaVuSans-50" d="M 1259 4147 
L 1259 2394 
L 2053 2394 
Q 2494 2394 2734 2622 
Q 2975 2850 2975 3272 
Q 2975 3691 2734 3919 
Q 2494 4147 2053 4147 
L 1259 4147 
z
M 628 4666 
L 2053 4666 
Q 2838 4666 3239 4311 
Q 3641 3956 3641 3272 
Q 3641 2581 3239 2228 
Q 2838 1875 2053 1875 
L 1259 1875 
L 1259 0 
L 628 0 
L 628 4666 
z
" transform="scale(0.015625)"/>
      <path id="DejaVuSans-6f" d="M 1959 3097 
Q 1497 3097 1228 2736 
Q 959 2375 959 1747 
Q 959 1119 1226 758 
Q 1494 397 1959 397 
Q 2419 397 2687 759 
Q 2956 1122 2956 1747 
Q 2956 2369 2687 2733 
Q 2419 3097 1959 3097 
z
M 1959 3584 
Q 2709 3584 3137 3096 
Q 3566 2609 3566 1747 
Q 3566 888 3137 398 
Q 2709 -91 1959 -91 
Q 1206 -91 779 398 
Q 353 888 353 1747 
Q 353 2609 779 3096 
Q 1206 3584 1959 3584 
z
" transform="scale(0.015625)"/>
      <path id="DejaVuSans-6e" d="M 3513 2113 
L 3513 0 
L 2938 0 
L 2938 2094 
Q 2938 2591 2744 2837 
Q 2550 3084 2163 3084 
Q 1697 3084 1428 2787 
Q 1159 2491 1159 1978 
L 1159 0 
L 581 0 
L 581 3500 
L 1159 3500 
L 1159 2956 
Q 1366 3272 1645 3428 
Q 1925 3584 2291 3584 
Q 2894 3584 3203 3211 
Q 3513 2838 3513 2113 
z
" transform="scale(0.015625)"/>
     </defs>
     <use xlink:href="#DejaVuSans-67"/>
     <use xlink:href="#DejaVuSans-65" transform="translate(63.476562 0)"/>
     <use xlink:href="#DejaVuSans-74" transform="translate(125 0)"/>
     <use xlink:href="#DejaVuSans-45" transform="translate(164.208984 0)"/>
     <use xlink:href="#DejaVuSans-78" transform="translate(227.392578 0)"/>
     <use xlink:href="#DejaVuSans-70" transform="translate(286.572266 0)"/>
     <use xlink:href="#DejaVuSans-65" transform="translate(350.048828 0)"/>
     <use xlink:href="#DejaVuSans-63" transform="translate(411.572266 0)"/>
     <use xlink:href="#DejaVuSans-74" transform="translate(466.552734 0)"/>
     <use xlink:href="#DejaVuSans-65" transform="translate(505.761719 0)"/>
     <use xlink:href="#DejaVuSans-64" transform="translate(567.285156 0)"/>
     <use xlink:href="#DejaVuSans-50" transform="translate(630.761719 0)"/>
     <use xlink:href="#DejaVuSans-6f" transform="translate(687.439453 0)"/>
     <use xlink:href="#DejaVuSans-69" transform="translate(748.621094 0)"/>
     <use xlink:href="#DejaVuSans-6e" transform="translate(776.404297 0)"/>
     <use xlink:href="#DejaVuSans-74" transform="translate(839.783203 0)"/>
     <use xlink:href="#DejaVuSans-73" transform="translate(878.992188 0)"/>
    </g>
   </g>
  </g>
 </g>
 <defs>
  <clipPath id="p569732c3fe">
   <rect x="72" y="51.84" width="446.4" height="332.64"/>
  </clipPath>
 </defs>
</svg>
