<?xml version="1.0" encoding="utf-8" standalone="no"?>
<!DOCTYPE svg PUBLIC "-//W3C//DTD SVG 1.1//EN"
  "http://www.w3.org/Graphics/SVG/1.1/DTD/svg11.dtd">
<svg xmlns:xlink="http://www.w3.org/1999/xlink" width="576pt" height="432pt" viewBox="0 0 576 432" xmlns="http://www.w3.org/2000/svg" version="1.1">
 <metadata>
  <rdf:RDF xmlns:dc="http://purl.org/dc/elements/1.1/" xmlns:cc="http://creativecommons.org/ns#" xmlns:rdf="http://www.w3.org/1999/02/22-rdf-syntax-ns#">
   <cc:Work>
    <dc:type rdf:resource="http://purl.org/dc/dcmitype/StillImage"/>
    <dc:date>2025-06-10T03:16:52.903678</dc:date>
    <dc:format>image/svg+xml</dc:format>
    <dc:creator>
     <cc:Agent>
      <dc:title>Matplotlib v3.10.3, https://matplotlib.org/</dc:title>
     </cc:Agent>
    </dc:creator>
   </cc:Work>
  </rdf:RDF>
 </metadata>
 <defs>
  <style type="text/css">*{stroke-linejoin: round; stroke-linecap: butt}</style>
 </defs>
 <g id="figure_1">
  <g id="patch_1">
   <path d="M 0 432 
L 576 432 
L 576 0 
L 0 0 
z
" style="fill: #ffffff"/>
  </g>
  <g id="axes_1">
   <g id="patch_2">
    <path d="M 72 384.48 
L 518.4 384.48 
L 518.4 51.84 
L 72 51.84 
z
" style="fill: #ffffff"/>
   </g>
   <g id="FillBetweenPolyCollection_1">
    <path d="M 389.438625 367.934585 
L 200.961375 367.934585 
L 190.693471 364.893753 
L 184.684125 361.85292 
L 183.6 358.812087 
L 187.398546 355.771254 
L 195.36538 352.730421 
L 206.30902 349.689588 
L 218.844257 346.648755 
L 231.673283 343.607922 
L 243.787611 340.567089 
L 254.553475 337.526256 
L 263.688629 334.485423 
L 271.170299 331.44459 
L 277.123356 328.403757 
L 281.727253 325.362924 
L 285.160064 322.322091 
L 287.578988 319.281258 
L 289.1254 316.240425 
L 289.939866 313.199592 
L 290.175437 310.158759 
L 290.002501 307.117926 
L 289.603021 304.077093 
L 289.155576 301.03626 
L 288.815296 297.995428 
L 288.694408 294.954595 
L 288.849312 291.913762 
L 289.278333 288.872929 
L 289.930997 285.832096 
L 290.726014 282.791263 
L 291.572603 279.75043 
L 292.389398 276.709597 
L 293.116826 273.668764 
L 293.721604 270.627931 
L 294.194525 267.587098 
L 294.544209 264.546265 
L 294.789639 261.505432 
L 294.953601 258.464599 
L 295.058056 255.423766 
L 295.121584 252.382933 
L 295.158482 249.3421 
L 295.178942 246.301267 
L 295.189747 243.260434 
L 295.195119 240.219601 
L 295.197474 237.178768 
L 295.197965 234.137936 
L 295.196758 231.097103 
L 295.193016 228.05627 
L 295.184557 225.015437 
L 295.167167 221.974604 
L 295.133631 218.933771 
L 295.072645 215.892938 
L 294.968008 212.852105 
L 294.798698 209.811272 
L 294.540567 206.770439 
L 294.170207 203.729606 
L 293.671033 200.688773 
L 293.040695 197.64794 
L 292.29795 194.607107 
L 291.486495 191.566274 
L 290.673448 188.525441 
L 289.941391 185.484608 
L 289.374861 182.443775 
L 289.044294 179.402942 
L 288.991611 176.362109 
L 289.22156 173.321276 
L 289.701234 170.280444 
L 290.367733 167.239611 
L 291.141536 164.198778 
L 291.941712 161.157945 
L 292.699083 158.117112 
L 293.36461 155.076279 
L 293.91209 152.035446 
L 294.335929 148.994613 
L 294.645797 145.95378 
L 294.860247 142.912947 
L 295.000968 139.872114 
L 295.088619 136.831281 
L 295.140479 133.790448 
L 295.169639 130.749615 
L 295.18522 127.708782 
L 295.193129 124.667949 
L 295.196925 121.627116 
L 295.19861 118.586283 
L 295.199208 115.54545 
L 295.199143 112.504617 
L 295.19845 109.463784 
L 295.196849 106.422952 
L 295.193736 103.382119 
L 295.188157 100.341286 
L 295.178799 97.300453 
L 295.164089 94.25962 
L 295.142453 91.218787 
L 295.112758 88.177954 
L 295.074879 85.137121 
L 295.030236 82.096288 
L 294.982095 79.055455 
L 294.935397 76.014622 
L 294.896032 72.973789 
L 294.869655 69.932956 
L 294.860363 66.892123 
L 295.539637 66.892123 
L 295.539637 66.892123 
L 295.530345 69.932956 
L 295.503968 72.973789 
L 295.464603 76.014622 
L 295.417905 79.055455 
L 295.369764 82.096288 
L 295.325121 85.137121 
L 295.287242 88.177954 
L 295.257547 91.218787 
L 295.235911 94.25962 
L 295.221201 97.300453 
L 295.211843 100.341286 
L 295.206264 103.382119 
L 295.203151 106.422952 
L 295.20155 109.463784 
L 295.200857 112.504617 
L 295.200792 115.54545 
L 295.20139 118.586283 
L 295.203075 121.627116 
L 295.206871 124.667949 
L 295.21478 127.708782 
L 295.230361 130.749615 
L 295.259521 133.790448 
L 295.311381 136.831281 
L 295.399032 139.872114 
L 295.539753 142.912947 
L 295.754203 145.95378 
L 296.064071 148.994613 
L 296.48791 152.035446 
L 297.03539 155.076279 
L 297.700917 158.117112 
L 298.458288 161.157945 
L 299.258464 164.198778 
L 300.032267 167.239611 
L 300.698766 170.280444 
L 301.17844 173.321276 
L 301.408389 176.362109 
L 301.355706 179.402942 
L 301.025139 182.443775 
L 300.458609 185.484608 
L 299.726552 188.525441 
L 298.913505 191.566274 
L 298.10205 194.607107 
L 297.359305 197.64794 
L 296.728967 200.688773 
L 296.229793 203.729606 
L 295.859433 206.770439 
L 295.601302 209.811272 
L 295.431992 212.852105 
L 295.327355 215.892938 
L 295.266369 218.933771 
L 295.232833 221.974604 
L 295.215443 225.015437 
L 295.206984 228.05627 
L 295.203242 231.097103 
L 295.202035 234.137936 
L 295.202526 237.178768 
L 295.204881 240.219601 
L 295.210253 243.260434 
L 295.221058 246.301267 
L 295.241518 249.3421 
L 295.278416 252.382933 
L 295.341944 255.423766 
L 295.446399 258.464599 
L 295.610361 261.505432 
L 295.855791 264.546265 
L 296.205475 267.587098 
L 296.678396 270.627931 
L 297.283174 273.668764 
L 298.010602 276.709597 
L 298.827397 279.75043 
L 299.673986 282.791263 
L 300.469003 285.832096 
L 301.121667 288.872929 
L 301.550688 291.913762 
L 301.705592 294.954595 
L 301.584704 297.995428 
L 301.244424 301.03626 
L 300.796979 304.077093 
L 300.397499 307.117926 
L 300.224563 310.158759 
L 300.460134 313.199592 
L 301.2746 316.240425 
L 302.821012 319.281258 
L 305.239936 322.322091 
L 308.672747 325.362924 
L 313.276644 328.403757 
L 319.229701 331.44459 
L 326.711371 334.485423 
L 335.846525 337.526256 
L 346.612389 340.567089 
L 358.726717 343.607922 
L 371.555743 346.648755 
L 384.09098 349.689588 
L 395.03462 352.730421 
L 403.001454 355.771254 
L 406.8 358.812087 
L 405.715875 361.85292 
L 399.706529 364.893753 
L 389.438625 367.934585 
z
" clip-path="url(#pea2e77e9b0)" style="fill: #1f77b4; fill-opacity: 0.3"/>
   </g>
   <g id="matplotlib.axis_1">
    <g id="xtick_1">
     <g id="line2d_1">
      <defs>
       <path id="m26c2ab047e" d="M 0 0 
L 0 3.5 
" style="stroke: #000000; stroke-width: 0.8"/>
      </defs>
      <g>
       <use xlink:href="#m26c2ab047e" x="295.2" y="384.48" style="stroke: #000000; stroke-width: 0.8"/>
      </g>
     </g>
     <g id="text_1">
      <!-- 1 -->
      <g transform="translate(292.01875 399.078438) scale(0.1 -0.1)">
       <defs>
        <path id="DejaVuSans-31" d="M 794 531 
L 1825 531 
L 1825 4091 
L 703 3866 
L 703 4441 
L 1819 4666 
L 2450 4666 
L 2450 531 
L 3481 531 
L 3481 0 
L 794 0 
L 794 531 
z
" transform="scale(0.015625)"/>
       </defs>
       <use xlink:href="#DejaVuSans-31"/>
      </g>
     </g>
    </g>
   </g>
   <g id="matplotlib.axis_2">
    <g id="ytick_1">
     <g id="line2d_2">
      <defs>
       <path id="mbbb00d6c9d" d="M 0 0 
L -3.5 0 
" style="stroke: #000000; stroke-width: 0.8"/>
      </defs>
      <g>
       <use xlink:href="#mbbb00d6c9d" x="72" y="384.48" style="stroke: #000000; stroke-width: 0.8"/>
      </g>
     </g>
     <g id="text_2">
      <!-- 0 -->
      <g transform="translate(58.6375 388.279219) scale(0.1 -0.1)">
       <defs>
        <path id="DejaVuSans-30" d="M 2034 4250 
Q 1547 4250 1301 3770 
Q 1056 3291 1056 2328 
Q 1056 1369 1301 889 
Q 1547 409 2034 409 
Q 2525 409 2770 889 
Q 3016 1369 3016 2328 
Q 3016 3291 2770 3770 
Q 2525 4250 2034 4250 
z
M 2034 4750 
Q 2819 4750 3233 4129 
Q 3647 3509 3647 2328 
Q 3647 1150 3233 529 
Q 2819 -91 2034 -91 
Q 1250 -91 836 529 
Q 422 1150 422 2328 
Q 422 3509 836 4129 
Q 1250 4750 2034 4750 
z
" transform="scale(0.015625)"/>
       </defs>
       <use xlink:href="#DejaVuSans-30"/>
      </g>
     </g>
    </g>
    <g id="ytick_2">
     <g id="line2d_3">
      <g>
       <use xlink:href="#mbbb00d6c9d" x="72" y="332.235502" style="stroke: #000000; stroke-width: 0.8"/>
      </g>
     </g>
     <g id="text_3">
      <!-- 5 -->
      <g transform="translate(58.6375 336.034721) scale(0.1 -0.1)">
       <defs>
        <path id="DejaVuSans-35" d="M 691 4666 
L 3169 4666 
L 3169 4134 
L 1269 4134 
L 1269 2991 
Q 1406 3038 1543 3061 
Q 1681 3084 1819 3084 
Q 2600 3084 3056 2656 
Q 3513 2228 3513 1497 
Q 3513 744 3044 326 
Q 2575 -91 1722 -91 
Q 1428 -91 1123 -41 
Q 819 9 494 109 
L 494 744 
Q 775 591 1075 516 
Q 1375 441 1709 441 
Q 2250 441 2565 725 
Q 2881 1009 2881 1497 
Q 2881 1984 2565 2268 
Q 2250 2553 1709 2553 
Q 1456 2553 1204 2497 
Q 953 2441 691 2322 
L 691 4666 
z
" transform="scale(0.015625)"/>
       </defs>
       <use xlink:href="#DejaVuSans-35"/>
      </g>
     </g>
    </g>
    <g id="ytick_3">
     <g id="line2d_4">
      <g>
       <use xlink:href="#mbbb00d6c9d" x="72" y="279.991004" style="stroke: #000000; stroke-width: 0.8"/>
      </g>
     </g>
     <g id="text_4">
      <!-- 10 -->
      <g transform="translate(52.275 283.790223) scale(0.1 -0.1)">
       <use xlink:href="#DejaVuSans-31"/>
       <use xlink:href="#DejaVuSans-30" transform="translate(63.623047 0)"/>
      </g>
     </g>
    </g>
    <g id="ytick_4">
     <g id="line2d_5">
      <g>
       <use xlink:href="#mbbb00d6c9d" x="72" y="227.746506" style="stroke: #000000; stroke-width: 0.8"/>
      </g>
     </g>
     <g id="text_5">
      <!-- 15 -->
      <g transform="translate(52.275 231.545725) scale(0.1 -0.1)">
       <use xlink:href="#DejaVuSans-31"/>
       <use xlink:href="#DejaVuSans-35" transform="translate(63.623047 0)"/>
      </g>
     </g>
    </g>
    <g id="ytick_5">
     <g id="line2d_6">
      <g>
       <use xlink:href="#mbbb00d6c9d" x="72" y="175.502008" style="stroke: #000000; stroke-width: 0.8"/>
      </g>
     </g>
     <g id="text_6">
      <!-- 20 -->
      <g transform="translate(52.275 179.301227) scale(0.1 -0.1)">
       <defs>
        <path id="DejaVuSans-32" d="M 1228 531 
L 3431 531 
L 3431 0 
L 469 0 
L 469 531 
Q 828 903 1448 1529 
Q 2069 2156 2228 2338 
Q 2531 2678 2651 2914 
Q 2772 3150 2772 3378 
Q 2772 3750 2511 3984 
Q 2250 4219 1831 4219 
Q 1534 4219 1204 4116 
Q 875 4013 500 3803 
L 500 4441 
Q 881 4594 1212 4672 
Q 1544 4750 1819 4750 
Q 2544 4750 2975 4387 
Q 3406 4025 3406 3419 
Q 3406 3131 3298 2873 
Q 3191 2616 2906 2266 
Q 2828 2175 2409 1742 
Q 1991 1309 1228 531 
z
" transform="scale(0.015625)"/>
       </defs>
       <use xlink:href="#DejaVuSans-32"/>
       <use xlink:href="#DejaVuSans-30" transform="translate(63.623047 0)"/>
      </g>
     </g>
    </g>
    <g id="ytick_6">
     <g id="line2d_7">
      <g>
       <use xlink:href="#mbbb00d6c9d" x="72" y="123.25751" style="stroke: #000000; stroke-width: 0.8"/>
      </g>
     </g>
     <g id="text_7">
      <!-- 25 -->
      <g transform="translate(52.275 127.056729) scale(0.1 -0.1)">
       <use xlink:href="#DejaVuSans-32"/>
       <use xlink:href="#DejaVuSans-35" transform="translate(63.623047 0)"/>
      </g>
     </g>
    </g>
    <g id="ytick_7">
     <g id="line2d_8">
      <g>
       <use xlink:href="#mbbb00d6c9d" x="72" y="71.013012" style="stroke: #000000; stroke-width: 0.8"/>
      </g>
     </g>
     <g id="text_8">
      <!-- 30 -->
      <g transform="translate(52.275 74.812231) scale(0.1 -0.1)">
       <defs>
        <path id="DejaVuSans-33" d="M 2597 2516 
Q 3050 2419 3304 2112 
Q 3559 1806 3559 1356 
Q 3559 666 3084 287 
Q 2609 -91 1734 -91 
Q 1441 -91 1130 -33 
Q 819 25 488 141 
L 488 750 
Q 750 597 1062 519 
Q 1375 441 1716 441 
Q 2309 441 2620 675 
Q 2931 909 2931 1356 
Q 2931 1769 2642 2001 
Q 2353 2234 1838 2234 
L 1294 2234 
L 1294 2753 
L 1863 2753 
Q 2328 2753 2575 2939 
Q 2822 3125 2822 3475 
Q 2822 3834 2567 4026 
Q 2313 4219 1838 4219 
Q 1578 4219 1281 4162 
Q 984 4106 628 3988 
L 628 4550 
Q 988 4650 1302 4700 
Q 1616 4750 1894 4750 
Q 2613 4750 3031 4423 
Q 3450 4097 3450 3541 
Q 3450 3153 3228 2886 
Q 3006 2619 2597 2516 
z
" transform="scale(0.015625)"/>
       </defs>
       <use xlink:href="#DejaVuSans-33"/>
       <use xlink:href="#DejaVuSans-30" transform="translate(63.623047 0)"/>
      </g>
     </g>
    </g>
    <g id="text_9">
     <!-- Time (ms) -->
     <g transform="translate(46.195312 243.359219) rotate(-90) scale(0.1 -0.1)">
      <defs>
       <path id="DejaVuSans-54" d="M -19 4666 
L 3928 4666 
L 3928 4134 
L 2272 4134 
L 2272 0 
L 1638 0 
L 1638 4134 
L -19 4134 
L -19 4666 
z
" transform="scale(0.015625)"/>
       <path id="DejaVuSans-69" d="M 603 3500 
L 1178 3500 
L 1178 0 
L 603 0 
L 603 3500 
z
M 603 4863 
L 1178 4863 
L 1178 4134 
L 603 4134 
L 603 4863 
z
" transform="scale(0.015625)"/>
       <path id="DejaVuSans-6d" d="M 3328 2828 
Q 3544 3216 3844 3400 
Q 4144 3584 4550 3584 
Q 5097 3584 5394 3201 
Q 5691 2819 5691 2113 
L 5691 0 
L 5113 0 
L 5113 2094 
Q 5113 2597 4934 2840 
Q 4756 3084 4391 3084 
Q 3944 3084 3684 2787 
Q 3425 2491 3425 1978 
L 3425 0 
L 2847 0 
L 2847 2094 
Q 2847 2600 2669 2842 
Q 2491 3084 2119 3084 
Q 1678 3084 1418 2786 
Q 1159 2488 1159 1978 
L 1159 0 
L 581 0 
L 581 3500 
L 1159 3500 
L 1159 2956 
Q 1356 3278 1631 3431 
Q 1906 3584 2284 3584 
Q 2666 3584 2933 3390 
Q 3200 3197 3328 2828 
z
" transform="scale(0.015625)"/>
       <path id="DejaVuSans-65" d="M 3597 1894 
L 3597 1613 
L 953 1613 
Q 991 1019 1311 708 
Q 1631 397 2203 397 
Q 2534 397 2845 478 
Q 3156 559 3463 722 
L 3463 178 
Q 3153 47 2828 -22 
Q 2503 -91 2169 -91 
Q 1331 -91 842 396 
Q 353 884 353 1716 
Q 353 2575 817 3079 
Q 1281 3584 2069 3584 
Q 2775 3584 3186 3129 
Q 3597 2675 3597 1894 
z
M 3022 2063 
Q 3016 2534 2758 2815 
Q 2500 3097 2075 3097 
Q 1594 3097 1305 2825 
Q 1016 2553 972 2059 
L 3022 2063 
z
" transform="scale(0.015625)"/>
       <path id="DejaVuSans-20" transform="scale(0.015625)"/>
       <path id="DejaVuSans-28" d="M 1984 4856 
Q 1566 4138 1362 3434 
Q 1159 2731 1159 2009 
Q 1159 1288 1364 580 
Q 1569 -128 1984 -844 
L 1484 -844 
Q 1016 -109 783 600 
Q 550 1309 550 2009 
Q 550 2706 781 3412 
Q 1013 4119 1484 4856 
L 1984 4856 
z
" transform="scale(0.015625)"/>
       <path id="DejaVuSans-73" d="M 2834 3397 
L 2834 2853 
Q 2591 2978 2328 3040 
Q 2066 3103 1784 3103 
Q 1356 3103 1142 2972 
Q 928 2841 928 2578 
Q 928 2378 1081 2264 
Q 1234 2150 1697 2047 
L 1894 2003 
Q 2506 1872 2764 1633 
Q 3022 1394 3022 966 
Q 3022 478 2636 193 
Q 2250 -91 1575 -91 
Q 1294 -91 989 -36 
Q 684 19 347 128 
L 347 722 
Q 666 556 975 473 
Q 1284 391 1588 391 
Q 1994 391 2212 530 
Q 2431 669 2431 922 
Q 2431 1156 2273 1281 
Q 2116 1406 1581 1522 
L 1381 1569 
Q 847 1681 609 1914 
Q 372 2147 372 2553 
Q 372 3047 722 3315 
Q 1072 3584 1716 3584 
Q 2034 3584 2315 3537 
Q 2597 3491 2834 3397 
z
" transform="scale(0.015625)"/>
       <path id="DejaVuSans-29" d="M 513 4856 
L 1013 4856 
Q 1481 4119 1714 3412 
Q 1947 2706 1947 2009 
Q 1947 1309 1714 600 
Q 1481 -109 1013 -844 
L 513 -844 
Q 928 -128 1133 580 
Q 1338 1288 1338 2009 
Q 1338 2731 1133 3434 
Q 928 4138 513 4856 
z
" transform="scale(0.015625)"/>
      </defs>
      <use xlink:href="#DejaVuSans-54"/>
      <use xlink:href="#DejaVuSans-69" transform="translate(57.958984 0)"/>
      <use xlink:href="#DejaVuSans-6d" transform="translate(85.742188 0)"/>
      <use xlink:href="#DejaVuSans-65" transform="translate(183.154297 0)"/>
      <use xlink:href="#DejaVuSans-20" transform="translate(244.677734 0)"/>
      <use xlink:href="#DejaVuSans-28" transform="translate(276.464844 0)"/>
      <use xlink:href="#DejaVuSans-6d" transform="translate(315.478516 0)"/>
      <use xlink:href="#DejaVuSans-73" transform="translate(412.890625 0)"/>
      <use xlink:href="#DejaVuSans-29" transform="translate(464.990234 0)"/>
     </g>
    </g>
   </g>
   <g id="LineCollection_1">
    <path d="M 239.4 345.478724 
L 351 345.478724 
" clip-path="url(#pea2e77e9b0)" style="fill: none; stroke: #1f77b4; stroke-width: 1.5"/>
   </g>
   <g id="LineCollection_2">
    <path d="M 239.4 66.892123 
L 351 66.892123 
" clip-path="url(#pea2e77e9b0)" style="fill: none; stroke: #1f77b4; stroke-width: 1.5"/>
   </g>
   <g id="LineCollection_3">
    <path d="M 239.4 367.934585 
L 351 367.934585 
" clip-path="url(#pea2e77e9b0)" style="fill: none; stroke: #1f77b4; stroke-width: 1.5"/>
   </g>
   <g id="LineCollection_4">
    <path d="M 295.2 367.934585 
L 295.2 66.892123 
" clip-path="url(#pea2e77e9b0)" style="fill: none; stroke: #1f77b4; stroke-width: 1.5"/>
   </g>
   <g id="patch_3">
    <path d="M 250.56 363.170467 
L 339.84 363.170467 
L 339.84 352.586361 
L 250.56 352.586361 
L 250.56 363.170467 
z
" clip-path="url(#pea2e77e9b0)" style="fill: #1f77b4; stroke: #000000; stroke-linejoin: miter"/>
   </g>
   <g id="line2d_9">
    <path d="M 295.2 363.170467 
L 295.2 367.934585 
" clip-path="url(#pea2e77e9b0)" style="fill: none; stroke: #000000; stroke-linecap: square"/>
   </g>
   <g id="line2d_10">
    <path d="M 295.2 352.586361 
L 295.2 336.870864 
" clip-path="url(#pea2e77e9b0)" style="fill: none; stroke: #000000; stroke-linecap: square"/>
   </g>
   <g id="line2d_11">
    <path d="M 272.88 367.934585 
L 317.52 367.934585 
" clip-path="url(#pea2e77e9b0)" style="fill: none; stroke: #000000; stroke-linecap: square"/>
   </g>
   <g id="line2d_12">
    <path d="M 272.88 336.870864 
L 317.52 336.870864 
" clip-path="url(#pea2e77e9b0)" style="fill: none; stroke: #000000; stroke-linecap: square"/>
   </g>
   <g id="line2d_13">
    <defs>
     <path id="m26382e1f68" d="M 0 3 
C 0.795609 3 1.55874 2.683901 2.12132 2.12132 
C 2.683901 1.55874 3 0.795609 3 0 
C 3 -0.795609 2.683901 -1.55874 2.12132 -2.12132 
C 1.55874 -2.683901 0.795609 -3 0 -3 
C -0.795609 -3 -1.55874 -2.683901 -2.12132 -2.12132 
C -2.683901 -1.55874 -3 -0.795609 -3 0 
C -3 0.795609 -2.683901 1.55874 -2.12132 2.12132 
C -1.55874 2.683901 -0.795609 3 0 3 
z
" style="stroke: #000000"/>
    </defs>
    <g clip-path="url(#pea2e77e9b0)">
     <use xlink:href="#m26382e1f68" x="295.2" y="181.326685" style="fill-opacity: 0; stroke: #000000"/>
     <use xlink:href="#m26382e1f68" x="295.2" y="293.188602" style="fill-opacity: 0; stroke: #000000"/>
     <use xlink:href="#m26382e1f68" x="295.2" y="333.347369" style="fill-opacity: 0; stroke: #000000"/>
     <use xlink:href="#m26382e1f68" x="295.2" y="182.985845" style="fill-opacity: 0; stroke: #000000"/>
     <use xlink:href="#m26382e1f68" x="295.2" y="299.39227" style="fill-opacity: 0; stroke: #000000"/>
     <use xlink:href="#m26382e1f68" x="295.2" y="183.209252" style="fill-opacity: 0; stroke: #000000"/>
     <use xlink:href="#m26382e1f68" x="295.2" y="298.032722" style="fill-opacity: 0; stroke: #000000"/>
     <use xlink:href="#m26382e1f68" x="295.2" y="336.210378" style="fill-opacity: 0; stroke: #000000"/>
     <use xlink:href="#m26382e1f68" x="295.2" y="174.830332" style="fill-opacity: 0; stroke: #000000"/>
     <use xlink:href="#m26382e1f68" x="295.2" y="295.183359" style="fill-opacity: 0; stroke: #000000"/>
     <use xlink:href="#m26382e1f68" x="295.2" y="333.009849" style="fill-opacity: 0; stroke: #000000"/>
     <use xlink:href="#m26382e1f68" x="295.2" y="175.081283" style="fill-opacity: 0; stroke: #000000"/>
     <use xlink:href="#m26382e1f68" x="295.2" y="295.643194" style="fill-opacity: 0; stroke: #000000"/>
     <use xlink:href="#m26382e1f68" x="295.2" y="332.813441" style="fill-opacity: 0; stroke: #000000"/>
     <use xlink:href="#m26382e1f68" x="295.2" y="178.503214" style="fill-opacity: 0; stroke: #000000"/>
     <use xlink:href="#m26382e1f68" x="295.2" y="297.599218" style="fill-opacity: 0; stroke: #000000"/>
     <use xlink:href="#m26382e1f68" x="295.2" y="173.533571" style="fill-opacity: 0; stroke: #000000"/>
     <use xlink:href="#m26382e1f68" x="295.2" y="296.90958" style="fill-opacity: 0; stroke: #000000"/>
     <use xlink:href="#m26382e1f68" x="295.2" y="332.36721" style="fill-opacity: 0; stroke: #000000"/>
     <use xlink:href="#m26382e1f68" x="295.2" y="183.657886" style="fill-opacity: 0; stroke: #000000"/>
     <use xlink:href="#m26382e1f68" x="295.2" y="297.953467" style="fill-opacity: 0; stroke: #000000"/>
     <use xlink:href="#m26382e1f68" x="295.2" y="336.539623" style="fill-opacity: 0; stroke: #000000"/>
     <use xlink:href="#m26382e1f68" x="295.2" y="183.498363" style="fill-opacity: 0; stroke: #000000"/>
     <use xlink:href="#m26382e1f68" x="295.2" y="295.363237" style="fill-opacity: 0; stroke: #000000"/>
     <use xlink:href="#m26382e1f68" x="295.2" y="334.095615" style="fill-opacity: 0; stroke: #000000"/>
     <use xlink:href="#m26382e1f68" x="295.2" y="336.646286" style="fill-opacity: 0; stroke: #000000"/>
     <use xlink:href="#m26382e1f68" x="295.2" y="170.810076" style="fill-opacity: 0; stroke: #000000"/>
     <use xlink:href="#m26382e1f68" x="295.2" y="288.920916" style="fill-opacity: 0; stroke: #000000"/>
     <use xlink:href="#m26382e1f68" x="295.2" y="176.081118" style="fill-opacity: 0; stroke: #000000"/>
     <use xlink:href="#m26382e1f68" x="295.2" y="292.757031" style="fill-opacity: 0; stroke: #000000"/>
     <use xlink:href="#m26382e1f68" x="295.2" y="330.158229" style="fill-opacity: 0; stroke: #000000"/>
     <use xlink:href="#m26382e1f68" x="295.2" y="66.892123" style="fill-opacity: 0; stroke: #000000"/>
     <use xlink:href="#m26382e1f68" x="295.2" y="173.198162" style="fill-opacity: 0; stroke: #000000"/>
     <use xlink:href="#m26382e1f68" x="295.2" y="280.231454" style="fill-opacity: 0; stroke: #000000"/>
     <use xlink:href="#m26382e1f68" x="295.2" y="327.374538" style="fill-opacity: 0; stroke: #000000"/>
     <use xlink:href="#m26382e1f68" x="295.2" y="334.045377" style="fill-opacity: 0; stroke: #000000"/>
     <use xlink:href="#m26382e1f68" x="295.2" y="163.925213" style="fill-opacity: 0; stroke: #000000"/>
     <use xlink:href="#m26382e1f68" x="295.2" y="295.619005" style="fill-opacity: 0; stroke: #000000"/>
     <use xlink:href="#m26382e1f68" x="295.2" y="335.732885" style="fill-opacity: 0; stroke: #000000"/>
     <use xlink:href="#m26382e1f68" x="295.2" y="168.216858" style="fill-opacity: 0; stroke: #000000"/>
     <use xlink:href="#m26382e1f68" x="295.2" y="295.535456" style="fill-opacity: 0; stroke: #000000"/>
     <use xlink:href="#m26382e1f68" x="295.2" y="180.014575" style="fill-opacity: 0; stroke: #000000"/>
     <use xlink:href="#m26382e1f68" x="295.2" y="296.094681" style="fill-opacity: 0; stroke: #000000"/>
     <use xlink:href="#m26382e1f68" x="295.2" y="184.371724" style="fill-opacity: 0; stroke: #000000"/>
     <use xlink:href="#m26382e1f68" x="295.2" y="297.526149" style="fill-opacity: 0; stroke: #000000"/>
     <use xlink:href="#m26382e1f68" x="295.2" y="334.161391" style="fill-opacity: 0; stroke: #000000"/>
     <use xlink:href="#m26382e1f68" x="295.2" y="178.95259" style="fill-opacity: 0; stroke: #000000"/>
     <use xlink:href="#m26382e1f68" x="295.2" y="291.765388" style="fill-opacity: 0; stroke: #000000"/>
     <use xlink:href="#m26382e1f68" x="295.2" y="172.751847" style="fill-opacity: 0; stroke: #000000"/>
     <use xlink:href="#m26382e1f68" x="295.2" y="292.84266" style="fill-opacity: 0; stroke: #000000"/>
     <use xlink:href="#m26382e1f68" x="295.2" y="336.569904" style="fill-opacity: 0; stroke: #000000"/>
     <use xlink:href="#m26382e1f68" x="295.2" y="182.271182" style="fill-opacity: 0; stroke: #000000"/>
     <use xlink:href="#m26382e1f68" x="295.2" y="284.454993" style="fill-opacity: 0; stroke: #000000"/>
     <use xlink:href="#m26382e1f68" x="295.2" y="174.171842" style="fill-opacity: 0; stroke: #000000"/>
     <use xlink:href="#m26382e1f68" x="295.2" y="295.715146" style="fill-opacity: 0; stroke: #000000"/>
     <use xlink:href="#m26382e1f68" x="295.2" y="335.888584" style="fill-opacity: 0; stroke: #000000"/>
    </g>
   </g>
   <g id="line2d_14">
    <path d="M 250.56 359.341045 
L 339.84 359.341045 
" clip-path="url(#pea2e77e9b0)" style="fill: none; stroke: #ff7f0e"/>
   </g>
   <g id="patch_4">
    <path d="M 72 384.48 
L 72 51.84 
" style="fill: none; stroke: #000000; stroke-width: 0.8; stroke-linejoin: miter; stroke-linecap: square"/>
   </g>
   <g id="patch_5">
    <path d="M 518.4 384.48 
L 518.4 51.84 
" style="fill: none; stroke: #000000; stroke-width: 0.8; stroke-linejoin: miter; stroke-linecap: square"/>
   </g>
   <g id="patch_6">
    <path d="M 72 384.48 
L 518.4 384.48 
" style="fill: none; stroke: #000000; stroke-width: 0.8; stroke-linejoin: miter; stroke-linecap: square"/>
   </g>
   <g id="patch_7">
    <path d="M 72 51.84 
L 518.4 51.84 
" style="fill: none; stroke: #000000; stroke-width: 0.8; stroke-linejoin: miter; stroke-linecap: square"/>
   </g>
   <g id="text_10">
    <!-- Handle Result -->
    <g transform="translate(253.595625 45.84) scale(0.12 -0.12)">
     <defs>
      <path id="DejaVuSans-48" d="M 628 4666 
L 1259 4666 
L 1259 2753 
L 3553 2753 
L 3553 4666 
L 4184 4666 
L 4184 0 
L 3553 0 
L 3553 2222 
L 1259 2222 
L 1259 0 
L 628 0 
L 628 4666 
z
" transform="scale(0.015625)"/>
      <path id="DejaVuSans-61" d="M 2194 1759 
Q 1497 1759 1228 1600 
Q 959 1441 959 1056 
Q 959 750 1161 570 
Q 1363 391 1709 391 
Q 2188 391 2477 730 
Q 2766 1069 2766 1631 
L 2766 1759 
L 2194 1759 
z
M 3341 1997 
L 3341 0 
L 2766 0 
L 2766 531 
Q 2569 213 2275 61 
Q 1981 -91 1556 -91 
Q 1019 -91 701 211 
Q 384 513 384 1019 
Q 384 1609 779 1909 
Q 1175 2209 1959 2209 
L 2766 2209 
L 2766 2266 
Q 2766 2663 2505 2880 
Q 2244 3097 1772 3097 
Q 1472 3097 1187 3025 
Q 903 2953 641 2809 
L 641 3341 
Q 956 3463 1253 3523 
Q 1550 3584 1831 3584 
Q 2591 3584 2966 3190 
Q 3341 2797 3341 1997 
z
" transform="scale(0.015625)"/>
      <path id="DejaVuSans-6e" d="M 3513 2113 
L 3513 0 
L 2938 0 
L 2938 2094 
Q 2938 2591 2744 2837 
Q 2550 3084 2163 3084 
Q 1697 3084 1428 2787 
Q 1159 2491 1159 1978 
L 1159 0 
L 581 0 
L 581 3500 
L 1159 3500 
L 1159 2956 
Q 1366 3272 1645 3428 
Q 1925 3584 2291 3584 
Q 2894 3584 3203 3211 
Q 3513 2838 3513 2113 
z
" transform="scale(0.015625)"/>
      <path id="DejaVuSans-64" d="M 2906 2969 
L 2906 4863 
L 3481 4863 
L 3481 0 
L 2906 0 
L 2906 525 
Q 2725 213 2448 61 
Q 2172 -91 1784 -91 
Q 1150 -91 751 415 
Q 353 922 353 1747 
Q 353 2572 751 3078 
Q 1150 3584 1784 3584 
Q 2172 3584 2448 3432 
Q 2725 3281 2906 2969 
z
M 947 1747 
Q 947 1113 1208 752 
Q 1469 391 1925 391 
Q 2381 391 2643 752 
Q 2906 1113 2906 1747 
Q 2906 2381 2643 2742 
Q 2381 3103 1925 3103 
Q 1469 3103 1208 2742 
Q 947 2381 947 1747 
z
" transform="scale(0.015625)"/>
      <path id="DejaVuSans-6c" d="M 603 4863 
L 1178 4863 
L 1178 0 
L 603 0 
L 603 4863 
z
" transform="scale(0.015625)"/>
      <path id="DejaVuSans-52" d="M 2841 2188 
Q 3044 2119 3236 1894 
Q 3428 1669 3622 1275 
L 4263 0 
L 3584 0 
L 2988 1197 
Q 2756 1666 2539 1819 
Q 2322 1972 1947 1972 
L 1259 1972 
L 1259 0 
L 628 0 
L 628 4666 
L 2053 4666 
Q 2853 4666 3247 4331 
Q 3641 3997 3641 3322 
Q 3641 2881 3436 2590 
Q 3231 2300 2841 2188 
z
M 1259 4147 
L 1259 2491 
L 2053 2491 
Q 2509 2491 2742 2702 
Q 2975 2913 2975 3322 
Q 2975 3731 2742 3939 
Q 2509 4147 2053 4147 
L 1259 4147 
z
" transform="scale(0.015625)"/>
      <path id="DejaVuSans-75" d="M 544 1381 
L 544 3500 
L 1119 3500 
L 1119 1403 
Q 1119 906 1312 657 
Q 1506 409 1894 409 
Q 2359 409 2629 706 
Q 2900 1003 2900 1516 
L 2900 3500 
L 3475 3500 
L 3475 0 
L 2900 0 
L 2900 538 
Q 2691 219 2414 64 
Q 2138 -91 1772 -91 
Q 1169 -91 856 284 
Q 544 659 544 1381 
z
M 1991 3584 
L 1991 3584 
z
" transform="scale(0.015625)"/>
      <path id="DejaVuSans-74" d="M 1172 4494 
L 1172 3500 
L 2356 3500 
L 2356 3053 
L 1172 3053 
L 1172 1153 
Q 1172 725 1289 603 
Q 1406 481 1766 481 
L 2356 481 
L 2356 0 
L 1766 0 
Q 1100 0 847 248 
Q 594 497 594 1153 
L 594 3053 
L 172 3053 
L 172 3500 
L 594 3500 
L 594 4494 
L 1172 4494 
z
" transform="scale(0.015625)"/>
     </defs>
     <use xlink:href="#DejaVuSans-48"/>
     <use xlink:href="#DejaVuSans-61" transform="translate(75.195312 0)"/>
     <use xlink:href="#DejaVuSans-6e" transform="translate(136.474609 0)"/>
     <use xlink:href="#DejaVuSans-64" transform="translate(199.853516 0)"/>
     <use xlink:href="#DejaVuSans-6c" transform="translate(263.330078 0)"/>
     <use xlink:href="#DejaVuSans-65" transform="translate(291.113281 0)"/>
     <use xlink:href="#DejaVuSans-20" transform="translate(352.636719 0)"/>
     <use xlink:href="#DejaVuSans-52" transform="translate(384.423828 0)"/>
     <use xlink:href="#DejaVuSans-65" transform="translate(449.40625 0)"/>
     <use xlink:href="#DejaVuSans-73" transform="translate(510.929688 0)"/>
     <use xlink:href="#DejaVuSans-75" transform="translate(563.029297 0)"/>
     <use xlink:href="#DejaVuSans-6c" transform="translate(626.408203 0)"/>
     <use xlink:href="#DejaVuSans-74" transform="translate(654.191406 0)"/>
    </g>
   </g>
  </g>
 </g>
 <defs>
  <clipPath id="pea2e77e9b0">
   <rect x="72" y="51.84" width="446.4" height="332.64"/>
  </clipPath>
 </defs>
</svg>
