<?xml version="1.0" encoding="utf-8" standalone="no"?>
<!DOCTYPE svg PUBLIC "-//W3C//DTD SVG 1.1//EN"
  "http://www.w3.org/Graphics/SVG/1.1/DTD/svg11.dtd">
<svg xmlns:xlink="http://www.w3.org/1999/xlink" width="576pt" height="432pt" viewBox="0 0 576 432" xmlns="http://www.w3.org/2000/svg" version="1.1">
 <metadata>
  <rdf:RDF xmlns:dc="http://purl.org/dc/elements/1.1/" xmlns:cc="http://creativecommons.org/ns#" xmlns:rdf="http://www.w3.org/1999/02/22-rdf-syntax-ns#">
   <cc:Work>
    <dc:type rdf:resource="http://purl.org/dc/dcmitype/StillImage"/>
    <dc:date>2025-09-30T20:43:35.230941</dc:date>
    <dc:format>image/svg+xml</dc:format>
    <dc:creator>
     <cc:Agent>
      <dc:title>Matplotlib v3.10.3, https://matplotlib.org/</dc:title>
     </cc:Agent>
    </dc:creator>
   </cc:Work>
  </rdf:RDF>
 </metadata>
 <defs>
  <style type="text/css">*{stroke-linejoin: round; stroke-linecap: butt}</style>
 </defs>
 <g id="figure_1">
  <g id="patch_1">
   <path d="M 0 432 
L 576 432 
L 576 0 
L 0 0 
z
" style="fill: #ffffff"/>
  </g>
  <g id="axes_1">
   <g id="patch_2">
    <path d="M 72 384.48 
L 518.4 384.48 
L 518.4 51.84 
L 72 51.84 
z
" style="fill: #ffffff"/>
   </g>
   <g id="FillBetweenPolyCollection_1">
    <path d="M 394.142754 360.664537 
L 196.257246 360.664537 
L 191.242114 357.693642 
L 187.378417 354.722747 
L 184.801711 351.751852 
L 183.6 348.780957 
L 183.808589 345.810062 
L 185.408373 342.839167 
L 188.327667 339.868272 
L 192.447356 336.897377 
L 197.608885 333.926482 
L 203.624311 330.955587 
L 210.287557 327.984692 
L 217.385919 325.013797 
L 224.710947 322.042902 
L 232.067946 319.072007 
L 239.283555 316.101112 
L 246.211088 313.130217 
L 252.733534 310.159322 
L 258.764363 307.188427 
L 264.246412 304.217532 
L 269.149267 301.246637 
L 273.465594 298.275742 
L 277.206884 295.304847 
L 280.399031 292.333952 
L 283.078089 289.363057 
L 285.286478 286.392162 
L 287.069789 283.421267 
L 288.474291 280.450372 
L 289.545125 277.479477 
L 290.325152 274.508582 
L 290.854356 271.537687 
L 291.169688 268.566792 
L 291.30522 265.595896 
L 291.292496 262.625001 
L 291.160951 259.654106 
L 290.938313 256.683211 
L 290.650894 253.712316 
L 290.32374 250.741421 
L 289.980595 247.770526 
L 289.643687 244.799631 
L 289.333365 241.828736 
L 289.06762 238.857841 
L 288.861564 235.886946 
L 288.726924 232.916051 
L 288.671616 229.945156 
L 288.699475 226.974261 
L 288.810161 224.003366 
L 288.999284 221.032471 
L 289.258744 218.061576 
L 289.577258 215.090681 
L 289.941049 212.119786 
L 290.334633 209.148891 
L 290.741647 206.177996 
L 291.14566 203.207101 
L 291.530916 200.236206 
L 291.882964 197.265311 
L 292.18915 194.294416 
L 292.438972 191.323521 
L 292.624284 188.352626 
L 292.739387 185.381731 
L 292.781007 182.410836 
L 292.748203 179.439941 
L 292.642216 176.469046 
L 292.466284 173.498151 
L 292.225421 170.527256 
L 291.926187 167.556361 
L 291.576422 164.585466 
L 291.184973 161.614571 
L 290.761385 158.643676 
L 290.315582 155.672781 
L 289.857532 152.701886 
L 289.396921 149.730991 
L 288.942848 146.760096 
L 288.503567 143.789201 
L 288.086294 140.818306 
L 287.697104 137.847411 
L 287.340911 134.876516 
L 287.02155 131.905621 
L 286.74193 128.934726 
L 286.504246 125.963831 
L 286.310215 122.992936 
L 286.161303 120.022041 
L 286.058905 117.051146 
L 286.004453 114.080251 
L 285.999431 111.109356 
L 286.045299 108.138461 
L 286.143321 105.167566 
L 286.294338 102.196671 
L 286.498499 99.225776 
L 286.755002 96.254881 
L 287.061872 93.283985 
L 287.415823 90.31309 
L 287.812209 87.342195 
L 288.245087 84.3713 
L 288.707392 81.400405 
L 289.191203 78.42951 
L 289.688072 75.458615 
L 290.189396 72.48772 
L 290.686795 69.516825 
L 291.172457 66.54593 
L 299.227543 66.54593 
L 299.227543 66.54593 
L 299.713205 69.516825 
L 300.210604 72.48772 
L 300.711928 75.458615 
L 301.208797 78.42951 
L 301.692608 81.400405 
L 302.154913 84.3713 
L 302.587791 87.342195 
L 302.984177 90.31309 
L 303.338128 93.283985 
L 303.644998 96.254881 
L 303.901501 99.225776 
L 304.105662 102.196671 
L 304.256679 105.167566 
L 304.354701 108.138461 
L 304.400569 111.109356 
L 304.395547 114.080251 
L 304.341095 117.051146 
L 304.238697 120.022041 
L 304.089785 122.992936 
L 303.895754 125.963831 
L 303.65807 128.934726 
L 303.37845 131.905621 
L 303.059089 134.876516 
L 302.702896 137.847411 
L 302.313706 140.818306 
L 301.896433 143.789201 
L 301.457152 146.760096 
L 301.003079 149.730991 
L 300.542468 152.701886 
L 300.084418 155.672781 
L 299.638615 158.643676 
L 299.215027 161.614571 
L 298.823578 164.585466 
L 298.473813 167.556361 
L 298.174579 170.527256 
L 297.933716 173.498151 
L 297.757784 176.469046 
L 297.651797 179.439941 
L 297.618993 182.410836 
L 297.660613 185.381731 
L 297.775716 188.352626 
L 297.961028 191.323521 
L 298.21085 194.294416 
L 298.517036 197.265311 
L 298.869084 200.236206 
L 299.25434 203.207101 
L 299.658353 206.177996 
L 300.065367 209.148891 
L 300.458951 212.119786 
L 300.822742 215.090681 
L 301.141256 218.061576 
L 301.400716 221.032471 
L 301.589839 224.003366 
L 301.700525 226.974261 
L 301.728384 229.945156 
L 301.673076 232.916051 
L 301.538436 235.886946 
L 301.33238 238.857841 
L 301.066635 241.828736 
L 300.756313 244.799631 
L 300.419405 247.770526 
L 300.07626 250.741421 
L 299.749106 253.712316 
L 299.461687 256.683211 
L 299.239049 259.654106 
L 299.107504 262.625001 
L 299.09478 265.595896 
L 299.230312 268.566792 
L 299.545644 271.537687 
L 300.074848 274.508582 
L 300.854875 277.479477 
L 301.925709 280.450372 
L 303.330211 283.421267 
L 305.113522 286.392162 
L 307.321911 289.363057 
L 310.000969 292.333952 
L 313.193116 295.304847 
L 316.934406 298.275742 
L 321.250733 301.246637 
L 326.153588 304.217532 
L 331.635637 307.188427 
L 337.666466 310.159322 
L 344.188912 313.130217 
L 351.116445 316.101112 
L 358.332054 319.072007 
L 365.689053 322.042902 
L 373.014081 325.013797 
L 380.112443 327.984692 
L 386.775689 330.955587 
L 392.791115 333.926482 
L 397.952644 336.897377 
L 402.072333 339.868272 
L 404.991627 342.839167 
L 406.591411 345.810062 
L 406.8 348.780957 
L 405.598289 351.751852 
L 403.021583 354.722747 
L 399.157886 357.693642 
L 394.142754 360.664537 
z
" clip-path="url(#pabf3b7808a)" style="fill: #1f77b4; fill-opacity: 0.3"/>
   </g>
   <g id="matplotlib.axis_1">
    <g id="xtick_1">
     <g id="line2d_1">
      <defs>
       <path id="m5c8c02c5c4" d="M 0 0 
L 0 3.5 
" style="stroke: #000000; stroke-width: 0.8"/>
      </defs>
      <g>
       <use xlink:href="#m5c8c02c5c4" x="295.2" y="384.48" style="stroke: #000000; stroke-width: 0.8"/>
      </g>
     </g>
     <g id="text_1">
      <!-- 1 -->
      <g transform="translate(292.01875 399.078438) scale(0.1 -0.1)">
       <defs>
        <path id="DejaVuSans-31" d="M 794 531 
L 1825 531 
L 1825 4091 
L 703 3866 
L 703 4441 
L 1819 4666 
L 2450 4666 
L 2450 531 
L 3481 531 
L 3481 0 
L 794 0 
L 794 531 
z
" transform="scale(0.015625)"/>
       </defs>
       <use xlink:href="#DejaVuSans-31"/>
      </g>
     </g>
    </g>
   </g>
   <g id="matplotlib.axis_2">
    <g id="ytick_1">
     <g id="line2d_2">
      <defs>
       <path id="m8fad2d41ca" d="M 0 0 
L -3.5 0 
" style="stroke: #000000; stroke-width: 0.8"/>
      </defs>
      <g>
       <use xlink:href="#m8fad2d41ca" x="72" y="384.48" style="stroke: #000000; stroke-width: 0.8"/>
      </g>
     </g>
     <g id="text_2">
      <!-- 0 -->
      <g transform="translate(58.6375 388.279219) scale(0.1 -0.1)">
       <defs>
        <path id="DejaVuSans-30" d="M 2034 4250 
Q 1547 4250 1301 3770 
Q 1056 3291 1056 2328 
Q 1056 1369 1301 889 
Q 1547 409 2034 409 
Q 2525 409 2770 889 
Q 3016 1369 3016 2328 
Q 3016 3291 2770 3770 
Q 2525 4250 2034 4250 
z
M 2034 4750 
Q 2819 4750 3233 4129 
Q 3647 3509 3647 2328 
Q 3647 1150 3233 529 
Q 2819 -91 2034 -91 
Q 1250 -91 836 529 
Q 422 1150 422 2328 
Q 422 3509 836 4129 
Q 1250 4750 2034 4750 
z
" transform="scale(0.015625)"/>
       </defs>
       <use xlink:href="#DejaVuSans-30"/>
      </g>
     </g>
    </g>
    <g id="ytick_2">
     <g id="line2d_3">
      <g>
       <use xlink:href="#m8fad2d41ca" x="72" y="346.797842" style="stroke: #000000; stroke-width: 0.8"/>
      </g>
     </g>
     <g id="text_3">
      <!-- 2 -->
      <g transform="translate(58.6375 350.597061) scale(0.1 -0.1)">
       <defs>
        <path id="DejaVuSans-32" d="M 1228 531 
L 3431 531 
L 3431 0 
L 469 0 
L 469 531 
Q 828 903 1448 1529 
Q 2069 2156 2228 2338 
Q 2531 2678 2651 2914 
Q 2772 3150 2772 3378 
Q 2772 3750 2511 3984 
Q 2250 4219 1831 4219 
Q 1534 4219 1204 4116 
Q 875 4013 500 3803 
L 500 4441 
Q 881 4594 1212 4672 
Q 1544 4750 1819 4750 
Q 2544 4750 2975 4387 
Q 3406 4025 3406 3419 
Q 3406 3131 3298 2873 
Q 3191 2616 2906 2266 
Q 2828 2175 2409 1742 
Q 1991 1309 1228 531 
z
" transform="scale(0.015625)"/>
       </defs>
       <use xlink:href="#DejaVuSans-32"/>
      </g>
     </g>
    </g>
    <g id="ytick_3">
     <g id="line2d_4">
      <g>
       <use xlink:href="#m8fad2d41ca" x="72" y="309.115684" style="stroke: #000000; stroke-width: 0.8"/>
      </g>
     </g>
     <g id="text_4">
      <!-- 4 -->
      <g transform="translate(58.6375 312.914903) scale(0.1 -0.1)">
       <defs>
        <path id="DejaVuSans-34" d="M 2419 4116 
L 825 1625 
L 2419 1625 
L 2419 4116 
z
M 2253 4666 
L 3047 4666 
L 3047 1625 
L 3713 1625 
L 3713 1100 
L 3047 1100 
L 3047 0 
L 2419 0 
L 2419 1100 
L 313 1100 
L 313 1709 
L 2253 4666 
z
" transform="scale(0.015625)"/>
       </defs>
       <use xlink:href="#DejaVuSans-34"/>
      </g>
     </g>
    </g>
    <g id="ytick_4">
     <g id="line2d_5">
      <g>
       <use xlink:href="#m8fad2d41ca" x="72" y="271.433526" style="stroke: #000000; stroke-width: 0.8"/>
      </g>
     </g>
     <g id="text_5">
      <!-- 6 -->
      <g transform="translate(58.6375 275.232745) scale(0.1 -0.1)">
       <defs>
        <path id="DejaVuSans-36" d="M 2113 2584 
Q 1688 2584 1439 2293 
Q 1191 2003 1191 1497 
Q 1191 994 1439 701 
Q 1688 409 2113 409 
Q 2538 409 2786 701 
Q 3034 994 3034 1497 
Q 3034 2003 2786 2293 
Q 2538 2584 2113 2584 
z
M 3366 4563 
L 3366 3988 
Q 3128 4100 2886 4159 
Q 2644 4219 2406 4219 
Q 1781 4219 1451 3797 
Q 1122 3375 1075 2522 
Q 1259 2794 1537 2939 
Q 1816 3084 2150 3084 
Q 2853 3084 3261 2657 
Q 3669 2231 3669 1497 
Q 3669 778 3244 343 
Q 2819 -91 2113 -91 
Q 1303 -91 875 529 
Q 447 1150 447 2328 
Q 447 3434 972 4092 
Q 1497 4750 2381 4750 
Q 2619 4750 2861 4703 
Q 3103 4656 3366 4563 
z
" transform="scale(0.015625)"/>
       </defs>
       <use xlink:href="#DejaVuSans-36"/>
      </g>
     </g>
    </g>
    <g id="ytick_5">
     <g id="line2d_6">
      <g>
       <use xlink:href="#m8fad2d41ca" x="72" y="233.751368" style="stroke: #000000; stroke-width: 0.8"/>
      </g>
     </g>
     <g id="text_6">
      <!-- 8 -->
      <g transform="translate(58.6375 237.550587) scale(0.1 -0.1)">
       <defs>
        <path id="DejaVuSans-38" d="M 2034 2216 
Q 1584 2216 1326 1975 
Q 1069 1734 1069 1313 
Q 1069 891 1326 650 
Q 1584 409 2034 409 
Q 2484 409 2743 651 
Q 3003 894 3003 1313 
Q 3003 1734 2745 1975 
Q 2488 2216 2034 2216 
z
M 1403 2484 
Q 997 2584 770 2862 
Q 544 3141 544 3541 
Q 544 4100 942 4425 
Q 1341 4750 2034 4750 
Q 2731 4750 3128 4425 
Q 3525 4100 3525 3541 
Q 3525 3141 3298 2862 
Q 3072 2584 2669 2484 
Q 3125 2378 3379 2068 
Q 3634 1759 3634 1313 
Q 3634 634 3220 271 
Q 2806 -91 2034 -91 
Q 1263 -91 848 271 
Q 434 634 434 1313 
Q 434 1759 690 2068 
Q 947 2378 1403 2484 
z
M 1172 3481 
Q 1172 3119 1398 2916 
Q 1625 2713 2034 2713 
Q 2441 2713 2670 2916 
Q 2900 3119 2900 3481 
Q 2900 3844 2670 4047 
Q 2441 4250 2034 4250 
Q 1625 4250 1398 4047 
Q 1172 3844 1172 3481 
z
" transform="scale(0.015625)"/>
       </defs>
       <use xlink:href="#DejaVuSans-38"/>
      </g>
     </g>
    </g>
    <g id="ytick_6">
     <g id="line2d_7">
      <g>
       <use xlink:href="#m8fad2d41ca" x="72" y="196.06921" style="stroke: #000000; stroke-width: 0.8"/>
      </g>
     </g>
     <g id="text_7">
      <!-- 10 -->
      <g transform="translate(52.275 199.868429) scale(0.1 -0.1)">
       <use xlink:href="#DejaVuSans-31"/>
       <use xlink:href="#DejaVuSans-30" transform="translate(63.623047 0)"/>
      </g>
     </g>
    </g>
    <g id="ytick_7">
     <g id="line2d_8">
      <g>
       <use xlink:href="#m8fad2d41ca" x="72" y="158.387052" style="stroke: #000000; stroke-width: 0.8"/>
      </g>
     </g>
     <g id="text_8">
      <!-- 12 -->
      <g transform="translate(52.275 162.186271) scale(0.1 -0.1)">
       <use xlink:href="#DejaVuSans-31"/>
       <use xlink:href="#DejaVuSans-32" transform="translate(63.623047 0)"/>
      </g>
     </g>
    </g>
    <g id="ytick_8">
     <g id="line2d_9">
      <g>
       <use xlink:href="#m8fad2d41ca" x="72" y="120.704894" style="stroke: #000000; stroke-width: 0.8"/>
      </g>
     </g>
     <g id="text_9">
      <!-- 14 -->
      <g transform="translate(52.275 124.504113) scale(0.1 -0.1)">
       <use xlink:href="#DejaVuSans-31"/>
       <use xlink:href="#DejaVuSans-34" transform="translate(63.623047 0)"/>
      </g>
     </g>
    </g>
    <g id="ytick_9">
     <g id="line2d_10">
      <g>
       <use xlink:href="#m8fad2d41ca" x="72" y="83.022737" style="stroke: #000000; stroke-width: 0.8"/>
      </g>
     </g>
     <g id="text_10">
      <!-- 16 -->
      <g transform="translate(52.275 86.821955) scale(0.1 -0.1)">
       <use xlink:href="#DejaVuSans-31"/>
       <use xlink:href="#DejaVuSans-36" transform="translate(63.623047 0)"/>
      </g>
     </g>
    </g>
    <g id="text_11">
     <!-- Time (ms) -->
     <g transform="translate(46.195312 243.359219) rotate(-90) scale(0.1 -0.1)">
      <defs>
       <path id="DejaVuSans-54" d="M -19 4666 
L 3928 4666 
L 3928 4134 
L 2272 4134 
L 2272 0 
L 1638 0 
L 1638 4134 
L -19 4134 
L -19 4666 
z
" transform="scale(0.015625)"/>
       <path id="DejaVuSans-69" d="M 603 3500 
L 1178 3500 
L 1178 0 
L 603 0 
L 603 3500 
z
M 603 4863 
L 1178 4863 
L 1178 4134 
L 603 4134 
L 603 4863 
z
" transform="scale(0.015625)"/>
       <path id="DejaVuSans-6d" d="M 3328 2828 
Q 3544 3216 3844 3400 
Q 4144 3584 4550 3584 
Q 5097 3584 5394 3201 
Q 5691 2819 5691 2113 
L 5691 0 
L 5113 0 
L 5113 2094 
Q 5113 2597 4934 2840 
Q 4756 3084 4391 3084 
Q 3944 3084 3684 2787 
Q 3425 2491 3425 1978 
L 3425 0 
L 2847 0 
L 2847 2094 
Q 2847 2600 2669 2842 
Q 2491 3084 2119 3084 
Q 1678 3084 1418 2786 
Q 1159 2488 1159 1978 
L 1159 0 
L 581 0 
L 581 3500 
L 1159 3500 
L 1159 2956 
Q 1356 3278 1631 3431 
Q 1906 3584 2284 3584 
Q 2666 3584 2933 3390 
Q 3200 3197 3328 2828 
z
" transform="scale(0.015625)"/>
       <path id="DejaVuSans-65" d="M 3597 1894 
L 3597 1613 
L 953 1613 
Q 991 1019 1311 708 
Q 1631 397 2203 397 
Q 2534 397 2845 478 
Q 3156 559 3463 722 
L 3463 178 
Q 3153 47 2828 -22 
Q 2503 -91 2169 -91 
Q 1331 -91 842 396 
Q 353 884 353 1716 
Q 353 2575 817 3079 
Q 1281 3584 2069 3584 
Q 2775 3584 3186 3129 
Q 3597 2675 3597 1894 
z
M 3022 2063 
Q 3016 2534 2758 2815 
Q 2500 3097 2075 3097 
Q 1594 3097 1305 2825 
Q 1016 2553 972 2059 
L 3022 2063 
z
" transform="scale(0.015625)"/>
       <path id="DejaVuSans-20" transform="scale(0.015625)"/>
       <path id="DejaVuSans-28" d="M 1984 4856 
Q 1566 4138 1362 3434 
Q 1159 2731 1159 2009 
Q 1159 1288 1364 580 
Q 1569 -128 1984 -844 
L 1484 -844 
Q 1016 -109 783 600 
Q 550 1309 550 2009 
Q 550 2706 781 3412 
Q 1013 4119 1484 4856 
L 1984 4856 
z
" transform="scale(0.015625)"/>
       <path id="DejaVuSans-73" d="M 2834 3397 
L 2834 2853 
Q 2591 2978 2328 3040 
Q 2066 3103 1784 3103 
Q 1356 3103 1142 2972 
Q 928 2841 928 2578 
Q 928 2378 1081 2264 
Q 1234 2150 1697 2047 
L 1894 2003 
Q 2506 1872 2764 1633 
Q 3022 1394 3022 966 
Q 3022 478 2636 193 
Q 2250 -91 1575 -91 
Q 1294 -91 989 -36 
Q 684 19 347 128 
L 347 722 
Q 666 556 975 473 
Q 1284 391 1588 391 
Q 1994 391 2212 530 
Q 2431 669 2431 922 
Q 2431 1156 2273 1281 
Q 2116 1406 1581 1522 
L 1381 1569 
Q 847 1681 609 1914 
Q 372 2147 372 2553 
Q 372 3047 722 3315 
Q 1072 3584 1716 3584 
Q 2034 3584 2315 3537 
Q 2597 3491 2834 3397 
z
" transform="scale(0.015625)"/>
       <path id="DejaVuSans-29" d="M 513 4856 
L 1013 4856 
Q 1481 4119 1714 3412 
Q 1947 2706 1947 2009 
Q 1947 1309 1714 600 
Q 1481 -109 1013 -844 
L 513 -844 
Q 928 -128 1133 580 
Q 1338 1288 1338 2009 
Q 1338 2731 1133 3434 
Q 928 4138 513 4856 
z
" transform="scale(0.015625)"/>
      </defs>
      <use xlink:href="#DejaVuSans-54"/>
      <use xlink:href="#DejaVuSans-69" transform="translate(57.958984 0)"/>
      <use xlink:href="#DejaVuSans-6d" transform="translate(85.742188 0)"/>
      <use xlink:href="#DejaVuSans-65" transform="translate(183.154297 0)"/>
      <use xlink:href="#DejaVuSans-20" transform="translate(244.677734 0)"/>
      <use xlink:href="#DejaVuSans-28" transform="translate(276.464844 0)"/>
      <use xlink:href="#DejaVuSans-6d" transform="translate(315.478516 0)"/>
      <use xlink:href="#DejaVuSans-73" transform="translate(412.890625 0)"/>
      <use xlink:href="#DejaVuSans-29" transform="translate(464.990234 0)"/>
     </g>
    </g>
   </g>
   <g id="LineCollection_1">
    <path d="M 239.4 318.854251 
L 351 318.854251 
" clip-path="url(#pabf3b7808a)" style="fill: none; stroke: #1f77b4; stroke-width: 1.5"/>
   </g>
   <g id="LineCollection_2">
    <path d="M 239.4 66.54593 
L 351 66.54593 
" clip-path="url(#pabf3b7808a)" style="fill: none; stroke: #1f77b4; stroke-width: 1.5"/>
   </g>
   <g id="LineCollection_3">
    <path d="M 239.4 360.664537 
L 351 360.664537 
" clip-path="url(#pabf3b7808a)" style="fill: none; stroke: #1f77b4; stroke-width: 1.5"/>
   </g>
   <g id="LineCollection_4">
    <path d="M 295.2 360.664537 
L 295.2 66.54593 
" clip-path="url(#pabf3b7808a)" style="fill: none; stroke: #1f77b4; stroke-width: 1.5"/>
   </g>
   <g id="patch_3">
    <path d="M 250.56 352.353817 
L 339.84 352.353817 
L 339.84 336.772028 
L 250.56 336.772028 
L 250.56 352.353817 
z
" clip-path="url(#pabf3b7808a)" style="fill: #1f77b4; stroke: #000000; stroke-linejoin: miter"/>
   </g>
   <g id="line2d_11">
    <path d="M 295.2 352.353817 
L 295.2 360.664537 
" clip-path="url(#pabf3b7808a)" style="fill: none; stroke: #000000; stroke-linecap: square"/>
   </g>
   <g id="line2d_12">
    <path d="M 295.2 336.772028 
L 295.2 314.005622 
" clip-path="url(#pabf3b7808a)" style="fill: none; stroke: #000000; stroke-linecap: square"/>
   </g>
   <g id="line2d_13">
    <path d="M 272.88 360.664537 
L 317.52 360.664537 
" clip-path="url(#pabf3b7808a)" style="fill: none; stroke: #000000; stroke-linecap: square"/>
   </g>
   <g id="line2d_14">
    <path d="M 272.88 314.005622 
L 317.52 314.005622 
" clip-path="url(#pabf3b7808a)" style="fill: none; stroke: #000000; stroke-linecap: square"/>
   </g>
   <g id="line2d_15">
    <defs>
     <path id="m4cfacd332c" d="M 0 3 
C 0.795609 3 1.55874 2.683901 2.12132 2.12132 
C 2.683901 1.55874 3 0.795609 3 0 
C 3 -0.795609 2.683901 -1.55874 2.12132 -2.12132 
C 1.55874 -2.683901 0.795609 -3 0 -3 
C -0.795609 -3 -1.55874 -2.683901 -2.12132 -2.12132 
C -2.683901 -1.55874 -3 -0.795609 -3 0 
C -3 0.795609 -2.683901 1.55874 -2.12132 2.12132 
C -1.55874 2.683901 -0.795609 3 0 3 
z
" style="stroke: #000000"/>
    </defs>
    <g clip-path="url(#pabf3b7808a)">
     <use xlink:href="#m4cfacd332c" x="295.2" y="84.076424" style="fill-opacity: 0; stroke: #000000"/>
     <use xlink:href="#m4cfacd332c" x="295.2" y="223.472994" style="fill-opacity: 0; stroke: #000000"/>
     <use xlink:href="#m4cfacd332c" x="295.2" y="306.559421" style="fill-opacity: 0; stroke: #000000"/>
     <use xlink:href="#m4cfacd332c" x="295.2" y="137.82518" style="fill-opacity: 0; stroke: #000000"/>
     <use xlink:href="#m4cfacd332c" x="295.2" y="108.150556" style="fill-opacity: 0; stroke: #000000"/>
     <use xlink:href="#m4cfacd332c" x="295.2" y="225.520624" style="fill-opacity: 0; stroke: #000000"/>
     <use xlink:href="#m4cfacd332c" x="295.2" y="89.98557" style="fill-opacity: 0; stroke: #000000"/>
     <use xlink:href="#m4cfacd332c" x="295.2" y="94.959464" style="fill-opacity: 0; stroke: #000000"/>
     <use xlink:href="#m4cfacd332c" x="295.2" y="230.360219" style="fill-opacity: 0; stroke: #000000"/>
     <use xlink:href="#m4cfacd332c" x="295.2" y="126.316258" style="fill-opacity: 0; stroke: #000000"/>
     <use xlink:href="#m4cfacd332c" x="295.2" y="100.984804" style="fill-opacity: 0; stroke: #000000"/>
     <use xlink:href="#m4cfacd332c" x="295.2" y="228.036586" style="fill-opacity: 0; stroke: #000000"/>
     <use xlink:href="#m4cfacd332c" x="295.2" y="121.844912" style="fill-opacity: 0; stroke: #000000"/>
     <use xlink:href="#m4cfacd332c" x="295.2" y="103.636535" style="fill-opacity: 0; stroke: #000000"/>
     <use xlink:href="#m4cfacd332c" x="295.2" y="233.302423" style="fill-opacity: 0; stroke: #000000"/>
     <use xlink:href="#m4cfacd332c" x="295.2" y="309.364217" style="fill-opacity: 0; stroke: #000000"/>
     <use xlink:href="#m4cfacd332c" x="295.2" y="144.811603" style="fill-opacity: 0; stroke: #000000"/>
     <use xlink:href="#m4cfacd332c" x="295.2" y="66.54593" style="fill-opacity: 0; stroke: #000000"/>
     <use xlink:href="#m4cfacd332c" x="295.2" y="223.706888" style="fill-opacity: 0; stroke: #000000"/>
     <use xlink:href="#m4cfacd332c" x="295.2" y="140.631276" style="fill-opacity: 0; stroke: #000000"/>
     <use xlink:href="#m4cfacd332c" x="295.2" y="89.390494" style="fill-opacity: 0; stroke: #000000"/>
     <use xlink:href="#m4cfacd332c" x="295.2" y="227.85769" style="fill-opacity: 0; stroke: #000000"/>
     <use xlink:href="#m4cfacd332c" x="295.2" y="133.656723" style="fill-opacity: 0; stroke: #000000"/>
     <use xlink:href="#m4cfacd332c" x="295.2" y="108.933761" style="fill-opacity: 0; stroke: #000000"/>
     <use xlink:href="#m4cfacd332c" x="295.2" y="243.177485" style="fill-opacity: 0; stroke: #000000"/>
     <use xlink:href="#m4cfacd332c" x="295.2" y="153.097627" style="fill-opacity: 0; stroke: #000000"/>
     <use xlink:href="#m4cfacd332c" x="295.2" y="95.422597" style="fill-opacity: 0; stroke: #000000"/>
     <use xlink:href="#m4cfacd332c" x="295.2" y="230.381792" style="fill-opacity: 0; stroke: #000000"/>
     <use xlink:href="#m4cfacd332c" x="295.2" y="132.021073" style="fill-opacity: 0; stroke: #000000"/>
     <use xlink:href="#m4cfacd332c" x="295.2" y="95.284774" style="fill-opacity: 0; stroke: #000000"/>
     <use xlink:href="#m4cfacd332c" x="295.2" y="228.885358" style="fill-opacity: 0; stroke: #000000"/>
     <use xlink:href="#m4cfacd332c" x="295.2" y="136.120119" style="fill-opacity: 0; stroke: #000000"/>
    </g>
   </g>
   <g id="line2d_16">
    <path d="M 250.56 347.730325 
L 339.84 347.730325 
" clip-path="url(#pabf3b7808a)" style="fill: none; stroke: #ff7f0e"/>
   </g>
   <g id="patch_4">
    <path d="M 72 384.48 
L 72 51.84 
" style="fill: none; stroke: #000000; stroke-width: 0.8; stroke-linejoin: miter; stroke-linecap: square"/>
   </g>
   <g id="patch_5">
    <path d="M 518.4 384.48 
L 518.4 51.84 
" style="fill: none; stroke: #000000; stroke-width: 0.8; stroke-linejoin: miter; stroke-linecap: square"/>
   </g>
   <g id="patch_6">
    <path d="M 72 384.48 
L 518.4 384.48 
" style="fill: none; stroke: #000000; stroke-width: 0.8; stroke-linejoin: miter; stroke-linecap: square"/>
   </g>
   <g id="patch_7">
    <path d="M 72 51.84 
L 518.4 51.84 
" style="fill: none; stroke: #000000; stroke-width: 0.8; stroke-linejoin: miter; stroke-linecap: square"/>
   </g>
   <g id="text_12">
    <!-- Handle Result -->
    <g transform="translate(253.595625 45.84) scale(0.12 -0.12)">
     <defs>
      <path id="DejaVuSans-48" d="M 628 4666 
L 1259 4666 
L 1259 2753 
L 3553 2753 
L 3553 4666 
L 4184 4666 
L 4184 0 
L 3553 0 
L 3553 2222 
L 1259 2222 
L 1259 0 
L 628 0 
L 628 4666 
z
" transform="scale(0.015625)"/>
      <path id="DejaVuSans-61" d="M 2194 1759 
Q 1497 1759 1228 1600 
Q 959 1441 959 1056 
Q 959 750 1161 570 
Q 1363 391 1709 391 
Q 2188 391 2477 730 
Q 2766 1069 2766 1631 
L 2766 1759 
L 2194 1759 
z
M 3341 1997 
L 3341 0 
L 2766 0 
L 2766 531 
Q 2569 213 2275 61 
Q 1981 -91 1556 -91 
Q 1019 -91 701 211 
Q 384 513 384 1019 
Q 384 1609 779 1909 
Q 1175 2209 1959 2209 
L 2766 2209 
L 2766 2266 
Q 2766 2663 2505 2880 
Q 2244 3097 1772 3097 
Q 1472 3097 1187 3025 
Q 903 2953 641 2809 
L 641 3341 
Q 956 3463 1253 3523 
Q 1550 3584 1831 3584 
Q 2591 3584 2966 3190 
Q 3341 2797 3341 1997 
z
" transform="scale(0.015625)"/>
      <path id="DejaVuSans-6e" d="M 3513 2113 
L 3513 0 
L 2938 0 
L 2938 2094 
Q 2938 2591 2744 2837 
Q 2550 3084 2163 3084 
Q 1697 3084 1428 2787 
Q 1159 2491 1159 1978 
L 1159 0 
L 581 0 
L 581 3500 
L 1159 3500 
L 1159 2956 
Q 1366 3272 1645 3428 
Q 1925 3584 2291 3584 
Q 2894 3584 3203 3211 
Q 3513 2838 3513 2113 
z
" transform="scale(0.015625)"/>
      <path id="DejaVuSans-64" d="M 2906 2969 
L 2906 4863 
L 3481 4863 
L 3481 0 
L 2906 0 
L 2906 525 
Q 2725 213 2448 61 
Q 2172 -91 1784 -91 
Q 1150 -91 751 415 
Q 353 922 353 1747 
Q 353 2572 751 3078 
Q 1150 3584 1784 3584 
Q 2172 3584 2448 3432 
Q 2725 3281 2906 2969 
z
M 947 1747 
Q 947 1113 1208 752 
Q 1469 391 1925 391 
Q 2381 391 2643 752 
Q 2906 1113 2906 1747 
Q 2906 2381 2643 2742 
Q 2381 3103 1925 3103 
Q 1469 3103 1208 2742 
Q 947 2381 947 1747 
z
" transform="scale(0.015625)"/>
      <path id="DejaVuSans-6c" d="M 603 4863 
L 1178 4863 
L 1178 0 
L 603 0 
L 603 4863 
z
" transform="scale(0.015625)"/>
      <path id="DejaVuSans-52" d="M 2841 2188 
Q 3044 2119 3236 1894 
Q 3428 1669 3622 1275 
L 4263 0 
L 3584 0 
L 2988 1197 
Q 2756 1666 2539 1819 
Q 2322 1972 1947 1972 
L 1259 1972 
L 1259 0 
L 628 0 
L 628 4666 
L 2053 4666 
Q 2853 4666 3247 4331 
Q 3641 3997 3641 3322 
Q 3641 2881 3436 2590 
Q 3231 2300 2841 2188 
z
M 1259 4147 
L 1259 2491 
L 2053 2491 
Q 2509 2491 2742 2702 
Q 2975 2913 2975 3322 
Q 2975 3731 2742 3939 
Q 2509 4147 2053 4147 
L 1259 4147 
z
" transform="scale(0.015625)"/>
      <path id="DejaVuSans-75" d="M 544 1381 
L 544 3500 
L 1119 3500 
L 1119 1403 
Q 1119 906 1312 657 
Q 1506 409 1894 409 
Q 2359 409 2629 706 
Q 2900 1003 2900 1516 
L 2900 3500 
L 3475 3500 
L 3475 0 
L 2900 0 
L 2900 538 
Q 2691 219 2414 64 
Q 2138 -91 1772 -91 
Q 1169 -91 856 284 
Q 544 659 544 1381 
z
M 1991 3584 
L 1991 3584 
z
" transform="scale(0.015625)"/>
      <path id="DejaVuSans-74" d="M 1172 4494 
L 1172 3500 
L 2356 3500 
L 2356 3053 
L 1172 3053 
L 1172 1153 
Q 1172 725 1289 603 
Q 1406 481 1766 481 
L 2356 481 
L 2356 0 
L 1766 0 
Q 1100 0 847 248 
Q 594 497 594 1153 
L 594 3053 
L 172 3053 
L 172 3500 
L 594 3500 
L 594 4494 
L 1172 4494 
z
" transform="scale(0.015625)"/>
     </defs>
     <use xlink:href="#DejaVuSans-48"/>
     <use xlink:href="#DejaVuSans-61" transform="translate(75.195312 0)"/>
     <use xlink:href="#DejaVuSans-6e" transform="translate(136.474609 0)"/>
     <use xlink:href="#DejaVuSans-64" transform="translate(199.853516 0)"/>
     <use xlink:href="#DejaVuSans-6c" transform="translate(263.330078 0)"/>
     <use xlink:href="#DejaVuSans-65" transform="translate(291.113281 0)"/>
     <use xlink:href="#DejaVuSans-20" transform="translate(352.636719 0)"/>
     <use xlink:href="#DejaVuSans-52" transform="translate(384.423828 0)"/>
     <use xlink:href="#DejaVuSans-65" transform="translate(449.40625 0)"/>
     <use xlink:href="#DejaVuSans-73" transform="translate(510.929688 0)"/>
     <use xlink:href="#DejaVuSans-75" transform="translate(563.029297 0)"/>
     <use xlink:href="#DejaVuSans-6c" transform="translate(626.408203 0)"/>
     <use xlink:href="#DejaVuSans-74" transform="translate(654.191406 0)"/>
    </g>
   </g>
  </g>
 </g>
 <defs>
  <clipPath id="pabf3b7808a">
   <rect x="72" y="51.84" width="446.4" height="332.64"/>
  </clipPath>
 </defs>
</svg>
