<?xml version="1.0" encoding="utf-8" standalone="no"?>
<!DOCTYPE svg PUBLIC "-//W3C//DTD SVG 1.1//EN"
  "http://www.w3.org/Graphics/SVG/1.1/DTD/svg11.dtd">
<svg xmlns:xlink="http://www.w3.org/1999/xlink" width="576pt" height="432pt" viewBox="0 0 576 432" xmlns="http://www.w3.org/2000/svg" version="1.1">
 <metadata>
  <rdf:RDF xmlns:dc="http://purl.org/dc/elements/1.1/" xmlns:cc="http://creativecommons.org/ns#" xmlns:rdf="http://www.w3.org/1999/02/22-rdf-syntax-ns#">
   <cc:Work>
    <dc:type rdf:resource="http://purl.org/dc/dcmitype/StillImage"/>
    <dc:date>2025-06-10T03:16:28.896479</dc:date>
    <dc:format>image/svg+xml</dc:format>
    <dc:creator>
     <cc:Agent>
      <dc:title>Matplotlib v3.10.3, https://matplotlib.org/</dc:title>
     </cc:Agent>
    </dc:creator>
   </cc:Work>
  </rdf:RDF>
 </metadata>
 <defs>
  <style type="text/css">*{stroke-linejoin: round; stroke-linecap: butt}</style>
 </defs>
 <g id="figure_1">
  <g id="patch_1">
   <path d="M 0 432 
L 576 432 
L 576 0 
L 0 0 
z
" style="fill: #ffffff"/>
  </g>
  <g id="axes_1">
   <g id="patch_2">
    <path d="M 72 384.48 
L 518.4 384.48 
L 518.4 51.84 
L 72 51.84 
z
" style="fill: #ffffff"/>
   </g>
   <g id="FillBetweenPolyCollection_1">
    <path d="M 331.221505 362.979889 
L 259.178495 362.979889 
L 249.103879 359.98672 
L 238.291424 356.993552 
L 227.221948 354.000383 
L 216.435917 351.007214 
L 206.490288 348.014045 
L 197.907829 345.020877 
L 191.12158 342.027708 
L 186.424312 339.034539 
L 183.936257 336.04137 
L 183.6 333.048202 
L 185.201637 330.055033 
L 188.409035 327.061864 
L 192.816444 324.068696 
L 197.989106 321.075527 
L 203.506632 318.082358 
L 209.005058 315.089189 
L 214.214191 312.096021 
L 218.982806 309.102852 
L 223.283518 306.109683 
L 227.193533 303.116514 
L 230.85497 300.123346 
L 234.425537 297.130177 
L 238.033452 294.137008 
L 241.748286 291.14384 
L 245.572997 288.150671 
L 249.454845 285.157502 
L 253.307421 282.164333 
L 257.03464 279.171165 
L 260.549802 276.177996 
L 263.786919 273.184827 
L 266.705186 270.191658 
L 269.289308 267.19849 
L 271.548295 264.205321 
L 273.513674 261.212152 
L 275.2362 258.218984 
L 276.779219 255.225815 
L 278.207766 252.232646 
L 279.574974 249.239477 
L 280.910057 246.246309 
L 282.212915 243.25314 
L 283.458305 240.259971 
L 284.608221 237.266803 
L 285.627024 234.273634 
L 286.492491 231.280465 
L 287.198275 228.287296 
L 287.748061 225.294128 
L 288.146146 222.300959 
L 288.39073 219.30779 
L 288.474328 216.314621 
L 288.391659 213.321453 
L 288.151566 210.328284 
L 287.787638 207.335115 
L 287.362591 204.341947 
L 286.963471 201.348778 
L 286.687665 198.355609 
L 286.622733 195.36244 
L 286.825647 192.369272 
L 287.308024 189.376103 
L 288.03251 186.382934 
L 288.921764 183.389765 
L 289.876981 180.396597 
L 290.799731 177.403428 
L 291.610484 174.410259 
L 292.259474 171.417091 
L 292.728927 168.423922 
L 293.028509 165.430753 
L 293.187035 162.437584 
L 293.243253 159.444416 
L 293.237615 156.451247 
L 293.206055 153.458078 
L 293.176196 150.464909 
L 293.165937 147.471741 
L 293.183964 144.478572 
L 293.231426 141.485403 
L 293.303952 138.492235 
L 293.39352 135.499066 
L 293.490119 132.505897 
L 293.583376 129.512728 
L 293.66426 126.51956 
L 293.726687 123.526391 
L 293.768719 120.533222 
L 293.793079 117.540054 
L 293.80683 114.546885 
L 293.820218 111.553716 
L 293.844669 108.560547 
L 293.890132 105.567379 
L 293.962251 102.57421 
L 294.060201 99.581041 
L 294.17614 96.587872 
L 294.296792 93.594704 
L 294.406941 90.601535 
L 294.493781 87.608366 
L 294.550648 84.615198 
L 294.578826 81.622029 
L 294.586872 78.62886 
L 294.587782 75.635691 
L 294.595046 72.642523 
L 294.618938 69.649354 
L 294.664132 66.656185 
L 295.735868 66.656185 
L 295.735868 66.656185 
L 295.781062 69.649354 
L 295.804954 72.642523 
L 295.812218 75.635691 
L 295.813128 78.62886 
L 295.821174 81.622029 
L 295.849352 84.615198 
L 295.906219 87.608366 
L 295.993059 90.601535 
L 296.103208 93.594704 
L 296.22386 96.587872 
L 296.339799 99.581041 
L 296.437749 102.57421 
L 296.509868 105.567379 
L 296.555331 108.560547 
L 296.579782 111.553716 
L 296.59317 114.546885 
L 296.606921 117.540054 
L 296.631281 120.533222 
L 296.673313 123.526391 
L 296.73574 126.51956 
L 296.816624 129.512728 
L 296.909881 132.505897 
L 297.00648 135.499066 
L 297.096048 138.492235 
L 297.168574 141.485403 
L 297.216036 144.478572 
L 297.234063 147.471741 
L 297.223804 150.464909 
L 297.193945 153.458078 
L 297.162385 156.451247 
L 297.156747 159.444416 
L 297.212965 162.437584 
L 297.371491 165.430753 
L 297.671073 168.423922 
L 298.140526 171.417091 
L 298.789516 174.410259 
L 299.600269 177.403428 
L 300.523019 180.396597 
L 301.478236 183.389765 
L 302.36749 186.382934 
L 303.091976 189.376103 
L 303.574353 192.369272 
L 303.777267 195.36244 
L 303.712335 198.355609 
L 303.436529 201.348778 
L 303.037409 204.341947 
L 302.612362 207.335115 
L 302.248434 210.328284 
L 302.008341 213.321453 
L 301.925672 216.314621 
L 302.00927 219.30779 
L 302.253854 222.300959 
L 302.651939 225.294128 
L 303.201725 228.287296 
L 303.907509 231.280465 
L 304.772976 234.273634 
L 305.791779 237.266803 
L 306.941695 240.259971 
L 308.187085 243.25314 
L 309.489943 246.246309 
L 310.825026 249.239477 
L 312.192234 252.232646 
L 313.620781 255.225815 
L 315.1638 258.218984 
L 316.886326 261.212152 
L 318.851705 264.205321 
L 321.110692 267.19849 
L 323.694814 270.191658 
L 326.613081 273.184827 
L 329.850198 276.177996 
L 333.36536 279.171165 
L 337.092579 282.164333 
L 340.945155 285.157502 
L 344.827003 288.150671 
L 348.651714 291.14384 
L 352.366548 294.137008 
L 355.974463 297.130177 
L 359.54503 300.123346 
L 363.206467 303.116514 
L 367.116482 306.109683 
L 371.417194 309.102852 
L 376.185809 312.096021 
L 381.394942 315.089189 
L 386.893368 318.082358 
L 392.410894 321.075527 
L 397.583556 324.068696 
L 401.990965 327.061864 
L 405.198363 330.055033 
L 406.8 333.048202 
L 406.463743 336.04137 
L 403.975688 339.034539 
L 399.27842 342.027708 
L 392.492171 345.020877 
L 383.909712 348.014045 
L 373.964083 351.007214 
L 363.178052 354.000383 
L 352.108576 356.993552 
L 341.296121 359.98672 
L 331.221505 362.979889 
z
" clip-path="url(#p7583f97b4e)" style="fill: #1f77b4; fill-opacity: 0.3"/>
   </g>
   <g id="matplotlib.axis_1">
    <g id="xtick_1">
     <g id="line2d_1">
      <defs>
       <path id="m3fcdaa730d" d="M 0 0 
L 0 3.5 
" style="stroke: #000000; stroke-width: 0.8"/>
      </defs>
      <g>
       <use xlink:href="#m3fcdaa730d" x="295.2" y="384.48" style="stroke: #000000; stroke-width: 0.8"/>
      </g>
     </g>
     <g id="text_1">
      <!-- 1 -->
      <g transform="translate(292.01875 399.078438) scale(0.1 -0.1)">
       <defs>
        <path id="DejaVuSans-31" d="M 794 531 
L 1825 531 
L 1825 4091 
L 703 3866 
L 703 4441 
L 1819 4666 
L 2450 4666 
L 2450 531 
L 3481 531 
L 3481 0 
L 794 0 
L 794 531 
z
" transform="scale(0.015625)"/>
       </defs>
       <use xlink:href="#DejaVuSans-31"/>
      </g>
     </g>
    </g>
   </g>
   <g id="matplotlib.axis_2">
    <g id="ytick_1">
     <g id="line2d_2">
      <defs>
       <path id="m66759697cb" d="M 0 0 
L -3.5 0 
" style="stroke: #000000; stroke-width: 0.8"/>
      </defs>
      <g>
       <use xlink:href="#m66759697cb" x="72" y="384.48" style="stroke: #000000; stroke-width: 0.8"/>
      </g>
     </g>
     <g id="text_2">
      <!-- 0.0 -->
      <g transform="translate(49.096875 388.279219) scale(0.1 -0.1)">
       <defs>
        <path id="DejaVuSans-30" d="M 2034 4250 
Q 1547 4250 1301 3770 
Q 1056 3291 1056 2328 
Q 1056 1369 1301 889 
Q 1547 409 2034 409 
Q 2525 409 2770 889 
Q 3016 1369 3016 2328 
Q 3016 3291 2770 3770 
Q 2525 4250 2034 4250 
z
M 2034 4750 
Q 2819 4750 3233 4129 
Q 3647 3509 3647 2328 
Q 3647 1150 3233 529 
Q 2819 -91 2034 -91 
Q 1250 -91 836 529 
Q 422 1150 422 2328 
Q 422 3509 836 4129 
Q 1250 4750 2034 4750 
z
" transform="scale(0.015625)"/>
        <path id="DejaVuSans-2e" d="M 684 794 
L 1344 794 
L 1344 0 
L 684 0 
L 684 794 
z
" transform="scale(0.015625)"/>
       </defs>
       <use xlink:href="#DejaVuSans-30"/>
       <use xlink:href="#DejaVuSans-2e" transform="translate(63.623047 0)"/>
       <use xlink:href="#DejaVuSans-30" transform="translate(95.410156 0)"/>
      </g>
     </g>
    </g>
    <g id="ytick_2">
     <g id="line2d_3">
      <g>
       <use xlink:href="#m66759697cb" x="72" y="333.046789" style="stroke: #000000; stroke-width: 0.8"/>
      </g>
     </g>
     <g id="text_3">
      <!-- 0.1 -->
      <g transform="translate(49.096875 336.846007) scale(0.1 -0.1)">
       <use xlink:href="#DejaVuSans-30"/>
       <use xlink:href="#DejaVuSans-2e" transform="translate(63.623047 0)"/>
       <use xlink:href="#DejaVuSans-31" transform="translate(95.410156 0)"/>
      </g>
     </g>
    </g>
    <g id="ytick_3">
     <g id="line2d_4">
      <g>
       <use xlink:href="#m66759697cb" x="72" y="281.613577" style="stroke: #000000; stroke-width: 0.8"/>
      </g>
     </g>
     <g id="text_4">
      <!-- 0.2 -->
      <g transform="translate(49.096875 285.412796) scale(0.1 -0.1)">
       <defs>
        <path id="DejaVuSans-32" d="M 1228 531 
L 3431 531 
L 3431 0 
L 469 0 
L 469 531 
Q 828 903 1448 1529 
Q 2069 2156 2228 2338 
Q 2531 2678 2651 2914 
Q 2772 3150 2772 3378 
Q 2772 3750 2511 3984 
Q 2250 4219 1831 4219 
Q 1534 4219 1204 4116 
Q 875 4013 500 3803 
L 500 4441 
Q 881 4594 1212 4672 
Q 1544 4750 1819 4750 
Q 2544 4750 2975 4387 
Q 3406 4025 3406 3419 
Q 3406 3131 3298 2873 
Q 3191 2616 2906 2266 
Q 2828 2175 2409 1742 
Q 1991 1309 1228 531 
z
" transform="scale(0.015625)"/>
       </defs>
       <use xlink:href="#DejaVuSans-30"/>
       <use xlink:href="#DejaVuSans-2e" transform="translate(63.623047 0)"/>
       <use xlink:href="#DejaVuSans-32" transform="translate(95.410156 0)"/>
      </g>
     </g>
    </g>
    <g id="ytick_4">
     <g id="line2d_5">
      <g>
       <use xlink:href="#m66759697cb" x="72" y="230.180366" style="stroke: #000000; stroke-width: 0.8"/>
      </g>
     </g>
     <g id="text_5">
      <!-- 0.3 -->
      <g transform="translate(49.096875 233.979585) scale(0.1 -0.1)">
       <defs>
        <path id="DejaVuSans-33" d="M 2597 2516 
Q 3050 2419 3304 2112 
Q 3559 1806 3559 1356 
Q 3559 666 3084 287 
Q 2609 -91 1734 -91 
Q 1441 -91 1130 -33 
Q 819 25 488 141 
L 488 750 
Q 750 597 1062 519 
Q 1375 441 1716 441 
Q 2309 441 2620 675 
Q 2931 909 2931 1356 
Q 2931 1769 2642 2001 
Q 2353 2234 1838 2234 
L 1294 2234 
L 1294 2753 
L 1863 2753 
Q 2328 2753 2575 2939 
Q 2822 3125 2822 3475 
Q 2822 3834 2567 4026 
Q 2313 4219 1838 4219 
Q 1578 4219 1281 4162 
Q 984 4106 628 3988 
L 628 4550 
Q 988 4650 1302 4700 
Q 1616 4750 1894 4750 
Q 2613 4750 3031 4423 
Q 3450 4097 3450 3541 
Q 3450 3153 3228 2886 
Q 3006 2619 2597 2516 
z
" transform="scale(0.015625)"/>
       </defs>
       <use xlink:href="#DejaVuSans-30"/>
       <use xlink:href="#DejaVuSans-2e" transform="translate(63.623047 0)"/>
       <use xlink:href="#DejaVuSans-33" transform="translate(95.410156 0)"/>
      </g>
     </g>
    </g>
    <g id="ytick_5">
     <g id="line2d_6">
      <g>
       <use xlink:href="#m66759697cb" x="72" y="178.747154" style="stroke: #000000; stroke-width: 0.8"/>
      </g>
     </g>
     <g id="text_6">
      <!-- 0.4 -->
      <g transform="translate(49.096875 182.546373) scale(0.1 -0.1)">
       <defs>
        <path id="DejaVuSans-34" d="M 2419 4116 
L 825 1625 
L 2419 1625 
L 2419 4116 
z
M 2253 4666 
L 3047 4666 
L 3047 1625 
L 3713 1625 
L 3713 1100 
L 3047 1100 
L 3047 0 
L 2419 0 
L 2419 1100 
L 313 1100 
L 313 1709 
L 2253 4666 
z
" transform="scale(0.015625)"/>
       </defs>
       <use xlink:href="#DejaVuSans-30"/>
       <use xlink:href="#DejaVuSans-2e" transform="translate(63.623047 0)"/>
       <use xlink:href="#DejaVuSans-34" transform="translate(95.410156 0)"/>
      </g>
     </g>
    </g>
    <g id="ytick_6">
     <g id="line2d_7">
      <g>
       <use xlink:href="#m66759697cb" x="72" y="127.313943" style="stroke: #000000; stroke-width: 0.8"/>
      </g>
     </g>
     <g id="text_7">
      <!-- 0.5 -->
      <g transform="translate(49.096875 131.113162) scale(0.1 -0.1)">
       <defs>
        <path id="DejaVuSans-35" d="M 691 4666 
L 3169 4666 
L 3169 4134 
L 1269 4134 
L 1269 2991 
Q 1406 3038 1543 3061 
Q 1681 3084 1819 3084 
Q 2600 3084 3056 2656 
Q 3513 2228 3513 1497 
Q 3513 744 3044 326 
Q 2575 -91 1722 -91 
Q 1428 -91 1123 -41 
Q 819 9 494 109 
L 494 744 
Q 775 591 1075 516 
Q 1375 441 1709 441 
Q 2250 441 2565 725 
Q 2881 1009 2881 1497 
Q 2881 1984 2565 2268 
Q 2250 2553 1709 2553 
Q 1456 2553 1204 2497 
Q 953 2441 691 2322 
L 691 4666 
z
" transform="scale(0.015625)"/>
       </defs>
       <use xlink:href="#DejaVuSans-30"/>
       <use xlink:href="#DejaVuSans-2e" transform="translate(63.623047 0)"/>
       <use xlink:href="#DejaVuSans-35" transform="translate(95.410156 0)"/>
      </g>
     </g>
    </g>
    <g id="ytick_7">
     <g id="line2d_8">
      <g>
       <use xlink:href="#m66759697cb" x="72" y="75.880732" style="stroke: #000000; stroke-width: 0.8"/>
      </g>
     </g>
     <g id="text_8">
      <!-- 0.6 -->
      <g transform="translate(49.096875 79.67995) scale(0.1 -0.1)">
       <defs>
        <path id="DejaVuSans-36" d="M 2113 2584 
Q 1688 2584 1439 2293 
Q 1191 2003 1191 1497 
Q 1191 994 1439 701 
Q 1688 409 2113 409 
Q 2538 409 2786 701 
Q 3034 994 3034 1497 
Q 3034 2003 2786 2293 
Q 2538 2584 2113 2584 
z
M 3366 4563 
L 3366 3988 
Q 3128 4100 2886 4159 
Q 2644 4219 2406 4219 
Q 1781 4219 1451 3797 
Q 1122 3375 1075 2522 
Q 1259 2794 1537 2939 
Q 1816 3084 2150 3084 
Q 2853 3084 3261 2657 
Q 3669 2231 3669 1497 
Q 3669 778 3244 343 
Q 2819 -91 2113 -91 
Q 1303 -91 875 529 
Q 447 1150 447 2328 
Q 447 3434 972 4092 
Q 1497 4750 2381 4750 
Q 2619 4750 2861 4703 
Q 3103 4656 3366 4563 
z
" transform="scale(0.015625)"/>
       </defs>
       <use xlink:href="#DejaVuSans-30"/>
       <use xlink:href="#DejaVuSans-2e" transform="translate(63.623047 0)"/>
       <use xlink:href="#DejaVuSans-36" transform="translate(95.410156 0)"/>
      </g>
     </g>
    </g>
    <g id="text_9">
     <!-- Time (ms) -->
     <g transform="translate(43.017187 243.359219) rotate(-90) scale(0.1 -0.1)">
      <defs>
       <path id="DejaVuSans-54" d="M -19 4666 
L 3928 4666 
L 3928 4134 
L 2272 4134 
L 2272 0 
L 1638 0 
L 1638 4134 
L -19 4134 
L -19 4666 
z
" transform="scale(0.015625)"/>
       <path id="DejaVuSans-69" d="M 603 3500 
L 1178 3500 
L 1178 0 
L 603 0 
L 603 3500 
z
M 603 4863 
L 1178 4863 
L 1178 4134 
L 603 4134 
L 603 4863 
z
" transform="scale(0.015625)"/>
       <path id="DejaVuSans-6d" d="M 3328 2828 
Q 3544 3216 3844 3400 
Q 4144 3584 4550 3584 
Q 5097 3584 5394 3201 
Q 5691 2819 5691 2113 
L 5691 0 
L 5113 0 
L 5113 2094 
Q 5113 2597 4934 2840 
Q 4756 3084 4391 3084 
Q 3944 3084 3684 2787 
Q 3425 2491 3425 1978 
L 3425 0 
L 2847 0 
L 2847 2094 
Q 2847 2600 2669 2842 
Q 2491 3084 2119 3084 
Q 1678 3084 1418 2786 
Q 1159 2488 1159 1978 
L 1159 0 
L 581 0 
L 581 3500 
L 1159 3500 
L 1159 2956 
Q 1356 3278 1631 3431 
Q 1906 3584 2284 3584 
Q 2666 3584 2933 3390 
Q 3200 3197 3328 2828 
z
" transform="scale(0.015625)"/>
       <path id="DejaVuSans-65" d="M 3597 1894 
L 3597 1613 
L 953 1613 
Q 991 1019 1311 708 
Q 1631 397 2203 397 
Q 2534 397 2845 478 
Q 3156 559 3463 722 
L 3463 178 
Q 3153 47 2828 -22 
Q 2503 -91 2169 -91 
Q 1331 -91 842 396 
Q 353 884 353 1716 
Q 353 2575 817 3079 
Q 1281 3584 2069 3584 
Q 2775 3584 3186 3129 
Q 3597 2675 3597 1894 
z
M 3022 2063 
Q 3016 2534 2758 2815 
Q 2500 3097 2075 3097 
Q 1594 3097 1305 2825 
Q 1016 2553 972 2059 
L 3022 2063 
z
" transform="scale(0.015625)"/>
       <path id="DejaVuSans-20" transform="scale(0.015625)"/>
       <path id="DejaVuSans-28" d="M 1984 4856 
Q 1566 4138 1362 3434 
Q 1159 2731 1159 2009 
Q 1159 1288 1364 580 
Q 1569 -128 1984 -844 
L 1484 -844 
Q 1016 -109 783 600 
Q 550 1309 550 2009 
Q 550 2706 781 3412 
Q 1013 4119 1484 4856 
L 1984 4856 
z
" transform="scale(0.015625)"/>
       <path id="DejaVuSans-73" d="M 2834 3397 
L 2834 2853 
Q 2591 2978 2328 3040 
Q 2066 3103 1784 3103 
Q 1356 3103 1142 2972 
Q 928 2841 928 2578 
Q 928 2378 1081 2264 
Q 1234 2150 1697 2047 
L 1894 2003 
Q 2506 1872 2764 1633 
Q 3022 1394 3022 966 
Q 3022 478 2636 193 
Q 2250 -91 1575 -91 
Q 1294 -91 989 -36 
Q 684 19 347 128 
L 347 722 
Q 666 556 975 473 
Q 1284 391 1588 391 
Q 1994 391 2212 530 
Q 2431 669 2431 922 
Q 2431 1156 2273 1281 
Q 2116 1406 1581 1522 
L 1381 1569 
Q 847 1681 609 1914 
Q 372 2147 372 2553 
Q 372 3047 722 3315 
Q 1072 3584 1716 3584 
Q 2034 3584 2315 3537 
Q 2597 3491 2834 3397 
z
" transform="scale(0.015625)"/>
       <path id="DejaVuSans-29" d="M 513 4856 
L 1013 4856 
Q 1481 4119 1714 3412 
Q 1947 2706 1947 2009 
Q 1947 1309 1714 600 
Q 1481 -109 1013 -844 
L 513 -844 
Q 928 -128 1133 580 
Q 1338 1288 1338 2009 
Q 1338 2731 1133 3434 
Q 928 4138 513 4856 
z
" transform="scale(0.015625)"/>
      </defs>
      <use xlink:href="#DejaVuSans-54"/>
      <use xlink:href="#DejaVuSans-69" transform="translate(57.958984 0)"/>
      <use xlink:href="#DejaVuSans-6d" transform="translate(85.742188 0)"/>
      <use xlink:href="#DejaVuSans-65" transform="translate(183.154297 0)"/>
      <use xlink:href="#DejaVuSans-20" transform="translate(244.677734 0)"/>
      <use xlink:href="#DejaVuSans-28" transform="translate(276.464844 0)"/>
      <use xlink:href="#DejaVuSans-6d" transform="translate(315.478516 0)"/>
      <use xlink:href="#DejaVuSans-73" transform="translate(412.890625 0)"/>
      <use xlink:href="#DejaVuSans-29" transform="translate(464.990234 0)"/>
     </g>
    </g>
   </g>
   <g id="LineCollection_1">
    <path d="M 239.4 308.741088 
L 351 308.741088 
" clip-path="url(#p7583f97b4e)" style="fill: none; stroke: #1f77b4; stroke-width: 1.5"/>
   </g>
   <g id="LineCollection_2">
    <path d="M 239.4 66.656185 
L 351 66.656185 
" clip-path="url(#p7583f97b4e)" style="fill: none; stroke: #1f77b4; stroke-width: 1.5"/>
   </g>
   <g id="LineCollection_3">
    <path d="M 239.4 362.979889 
L 351 362.979889 
" clip-path="url(#p7583f97b4e)" style="fill: none; stroke: #1f77b4; stroke-width: 1.5"/>
   </g>
   <g id="LineCollection_4">
    <path d="M 295.2 362.979889 
L 295.2 66.656185 
" clip-path="url(#p7583f97b4e)" style="fill: none; stroke: #1f77b4; stroke-width: 1.5"/>
   </g>
   <g id="patch_3">
    <path d="M 250.56 339.306596 
L 339.84 339.306596 
L 339.84 293.258056 
L 250.56 293.258056 
L 250.56 339.306596 
z
" clip-path="url(#p7583f97b4e)" style="fill: #1f77b4; stroke: #000000; stroke-linejoin: miter"/>
   </g>
   <g id="line2d_9">
    <path d="M 295.2 339.306596 
L 295.2 362.979889 
" clip-path="url(#p7583f97b4e)" style="fill: none; stroke: #000000; stroke-linecap: square"/>
   </g>
   <g id="line2d_10">
    <path d="M 295.2 293.258056 
L 295.2 224.669297 
" clip-path="url(#p7583f97b4e)" style="fill: none; stroke: #000000; stroke-linecap: square"/>
   </g>
   <g id="line2d_11">
    <path d="M 272.88 362.979889 
L 317.52 362.979889 
" clip-path="url(#p7583f97b4e)" style="fill: none; stroke: #000000; stroke-linecap: square"/>
   </g>
   <g id="line2d_12">
    <path d="M 272.88 224.669297 
L 317.52 224.669297 
" clip-path="url(#p7583f97b4e)" style="fill: none; stroke: #000000; stroke-linecap: square"/>
   </g>
   <g id="line2d_13">
    <defs>
     <path id="m0875638f7f" d="M 0 3 
C 0.795609 3 1.55874 2.683901 2.12132 2.12132 
C 2.683901 1.55874 3 0.795609 3 0 
C 3 -0.795609 2.683901 -1.55874 2.12132 -2.12132 
C 1.55874 -2.683901 0.795609 -3 0 -3 
C -0.795609 -3 -1.55874 -2.683901 -2.12132 -2.12132 
C -2.683901 -1.55874 -3 -0.795609 -3 0 
C -3 0.795609 -2.683901 1.55874 -2.12132 2.12132 
C -1.55874 2.683901 -0.795609 3 0 3 
z
" style="stroke: #000000"/>
    </defs>
    <g clip-path="url(#p7583f97b4e)">
     <use xlink:href="#m0875638f7f" x="295.2" y="181.718451" style="fill-opacity: 0; stroke: #000000"/>
     <use xlink:href="#m0875638f7f" x="295.2" y="176.626563" style="fill-opacity: 0; stroke: #000000"/>
     <use xlink:href="#m0875638f7f" x="295.2" y="199.310152" style="fill-opacity: 0; stroke: #000000"/>
     <use xlink:href="#m0875638f7f" x="295.2" y="194.114369" style="fill-opacity: 0; stroke: #000000"/>
     <use xlink:href="#m0875638f7f" x="295.2" y="178.735325" style="fill-opacity: 0; stroke: #000000"/>
     <use xlink:href="#m0875638f7f" x="295.2" y="204.762073" style="fill-opacity: 0; stroke: #000000"/>
     <use xlink:href="#m0875638f7f" x="295.2" y="206.202203" style="fill-opacity: 0; stroke: #000000"/>
     <use xlink:href="#m0875638f7f" x="295.2" y="119.634965" style="fill-opacity: 0; stroke: #000000"/>
     <use xlink:href="#m0875638f7f" x="295.2" y="146.381778" style="fill-opacity: 0; stroke: #000000"/>
     <use xlink:href="#m0875638f7f" x="295.2" y="104.359301" style="fill-opacity: 0; stroke: #000000"/>
     <use xlink:href="#m0875638f7f" x="295.2" y="201.933246" style="fill-opacity: 0; stroke: #000000"/>
     <use xlink:href="#m0875638f7f" x="295.2" y="190.720806" style="fill-opacity: 0; stroke: #000000"/>
     <use xlink:href="#m0875638f7f" x="295.2" y="200.80223" style="fill-opacity: 0; stroke: #000000"/>
     <use xlink:href="#m0875638f7f" x="295.2" y="161.093733" style="fill-opacity: 0; stroke: #000000"/>
     <use xlink:href="#m0875638f7f" x="295.2" y="188.971563" style="fill-opacity: 0; stroke: #000000"/>
     <use xlink:href="#m0875638f7f" x="295.2" y="135.066985" style="fill-opacity: 0; stroke: #000000"/>
     <use xlink:href="#m0875638f7f" x="295.2" y="137.22718" style="fill-opacity: 0; stroke: #000000"/>
     <use xlink:href="#m0875638f7f" x="295.2" y="125.60276" style="fill-opacity: 0; stroke: #000000"/>
     <use xlink:href="#m0875638f7f" x="295.2" y="192.675782" style="fill-opacity: 0; stroke: #000000"/>
     <use xlink:href="#m0875638f7f" x="295.2" y="194.474402" style="fill-opacity: 0; stroke: #000000"/>
     <use xlink:href="#m0875638f7f" x="295.2" y="138.974881" style="fill-opacity: 0; stroke: #000000"/>
     <use xlink:href="#m0875638f7f" x="295.2" y="222.404179" style="fill-opacity: 0; stroke: #000000"/>
     <use xlink:href="#m0875638f7f" x="295.2" y="194.166317" style="fill-opacity: 0; stroke: #000000"/>
     <use xlink:href="#m0875638f7f" x="295.2" y="202.808125" style="fill-opacity: 0; stroke: #000000"/>
     <use xlink:href="#m0875638f7f" x="295.2" y="220.450231" style="fill-opacity: 0; stroke: #000000"/>
     <use xlink:href="#m0875638f7f" x="295.2" y="220.861697" style="fill-opacity: 0; stroke: #000000"/>
     <use xlink:href="#m0875638f7f" x="295.2" y="194.269698" style="fill-opacity: 0; stroke: #000000"/>
     <use xlink:href="#m0875638f7f" x="295.2" y="188.714911" style="fill-opacity: 0; stroke: #000000"/>
     <use xlink:href="#m0875638f7f" x="295.2" y="153.121586" style="fill-opacity: 0; stroke: #000000"/>
     <use xlink:href="#m0875638f7f" x="295.2" y="196.275593" style="fill-opacity: 0; stroke: #000000"/>
     <use xlink:href="#m0875638f7f" x="295.2" y="103.741588" style="fill-opacity: 0; stroke: #000000"/>
     <use xlink:href="#m0875638f7f" x="295.2" y="208.414345" style="fill-opacity: 0; stroke: #000000"/>
     <use xlink:href="#m0875638f7f" x="295.2" y="223.485305" style="fill-opacity: 0; stroke: #000000"/>
     <use xlink:href="#m0875638f7f" x="295.2" y="211.860885" style="fill-opacity: 0; stroke: #000000"/>
     <use xlink:href="#m0875638f7f" x="295.2" y="197.716237" style="fill-opacity: 0; stroke: #000000"/>
     <use xlink:href="#m0875638f7f" x="295.2" y="167.678213" style="fill-opacity: 0; stroke: #000000"/>
     <use xlink:href="#m0875638f7f" x="295.2" y="210.215022" style="fill-opacity: 0; stroke: #000000"/>
     <use xlink:href="#m0875638f7f" x="295.2" y="193.137138" style="fill-opacity: 0; stroke: #000000"/>
     <use xlink:href="#m0875638f7f" x="295.2" y="193.291952" style="fill-opacity: 0; stroke: #000000"/>
     <use xlink:href="#m0875638f7f" x="295.2" y="182.439545" style="fill-opacity: 0; stroke: #000000"/>
     <use xlink:href="#m0875638f7f" x="295.2" y="196.429893" style="fill-opacity: 0; stroke: #000000"/>
     <use xlink:href="#m0875638f7f" x="295.2" y="191.851822" style="fill-opacity: 0; stroke: #000000"/>
     <use xlink:href="#m0875638f7f" x="295.2" y="211.705556" style="fill-opacity: 0; stroke: #000000"/>
     <use xlink:href="#m0875638f7f" x="295.2" y="75.86273" style="fill-opacity: 0; stroke: #000000"/>
     <use xlink:href="#m0875638f7f" x="295.2" y="206.767968" style="fill-opacity: 0; stroke: #000000"/>
     <use xlink:href="#m0875638f7f" x="295.2" y="188.19955" style="fill-opacity: 0; stroke: #000000"/>
     <use xlink:href="#m0875638f7f" x="295.2" y="188.302416" style="fill-opacity: 0; stroke: #000000"/>
     <use xlink:href="#m0875638f7f" x="295.2" y="220.861697" style="fill-opacity: 0; stroke: #000000"/>
     <use xlink:href="#m0875638f7f" x="295.2" y="149.982617" style="fill-opacity: 0; stroke: #000000"/>
     <use xlink:href="#m0875638f7f" x="295.2" y="189.228729" style="fill-opacity: 0; stroke: #000000"/>
     <use xlink:href="#m0875638f7f" x="295.2" y="213.506233" style="fill-opacity: 0; stroke: #000000"/>
     <use xlink:href="#m0875638f7f" x="295.2" y="153.994921" style="fill-opacity: 0; stroke: #000000"/>
     <use xlink:href="#m0875638f7f" x="295.2" y="112.897728" style="fill-opacity: 0; stroke: #000000"/>
     <use xlink:href="#m0875638f7f" x="295.2" y="66.656185" style="fill-opacity: 0; stroke: #000000"/>
     <use xlink:href="#m0875638f7f" x="295.2" y="190.771211" style="fill-opacity: 0; stroke: #000000"/>
     <use xlink:href="#m0875638f7f" x="295.2" y="186.965153" style="fill-opacity: 0; stroke: #000000"/>
     <use xlink:href="#m0875638f7f" x="295.2" y="198.178107" style="fill-opacity: 0; stroke: #000000"/>
     <use xlink:href="#m0875638f7f" x="295.2" y="96.488991" style="fill-opacity: 0; stroke: #000000"/>
    </g>
   </g>
   <g id="line2d_14">
    <path d="M 250.56 322.139347 
L 339.84 322.139347 
" clip-path="url(#p7583f97b4e)" style="fill: none; stroke: #ff7f0e"/>
   </g>
   <g id="patch_4">
    <path d="M 72 384.48 
L 72 51.84 
" style="fill: none; stroke: #000000; stroke-width: 0.8; stroke-linejoin: miter; stroke-linecap: square"/>
   </g>
   <g id="patch_5">
    <path d="M 518.4 384.48 
L 518.4 51.84 
" style="fill: none; stroke: #000000; stroke-width: 0.8; stroke-linejoin: miter; stroke-linecap: square"/>
   </g>
   <g id="patch_6">
    <path d="M 72 384.48 
L 518.4 384.48 
" style="fill: none; stroke: #000000; stroke-width: 0.8; stroke-linejoin: miter; stroke-linecap: square"/>
   </g>
   <g id="patch_7">
    <path d="M 72 51.84 
L 518.4 51.84 
" style="fill: none; stroke: #000000; stroke-width: 0.8; stroke-linejoin: miter; stroke-linecap: square"/>
   </g>
   <g id="text_10">
    <!-- getExpectedPoints -->
    <g transform="translate(239.3325 45.84) scale(0.12 -0.12)">
     <defs>
      <path id="DejaVuSans-67" d="M 2906 1791 
Q 2906 2416 2648 2759 
Q 2391 3103 1925 3103 
Q 1463 3103 1205 2759 
Q 947 2416 947 1791 
Q 947 1169 1205 825 
Q 1463 481 1925 481 
Q 2391 481 2648 825 
Q 2906 1169 2906 1791 
z
M 3481 434 
Q 3481 -459 3084 -895 
Q 2688 -1331 1869 -1331 
Q 1566 -1331 1297 -1286 
Q 1028 -1241 775 -1147 
L 775 -588 
Q 1028 -725 1275 -790 
Q 1522 -856 1778 -856 
Q 2344 -856 2625 -561 
Q 2906 -266 2906 331 
L 2906 616 
Q 2728 306 2450 153 
Q 2172 0 1784 0 
Q 1141 0 747 490 
Q 353 981 353 1791 
Q 353 2603 747 3093 
Q 1141 3584 1784 3584 
Q 2172 3584 2450 3431 
Q 2728 3278 2906 2969 
L 2906 3500 
L 3481 3500 
L 3481 434 
z
" transform="scale(0.015625)"/>
      <path id="DejaVuSans-74" d="M 1172 4494 
L 1172 3500 
L 2356 3500 
L 2356 3053 
L 1172 3053 
L 1172 1153 
Q 1172 725 1289 603 
Q 1406 481 1766 481 
L 2356 481 
L 2356 0 
L 1766 0 
Q 1100 0 847 248 
Q 594 497 594 1153 
L 594 3053 
L 172 3053 
L 172 3500 
L 594 3500 
L 594 4494 
L 1172 4494 
z
" transform="scale(0.015625)"/>
      <path id="DejaVuSans-45" d="M 628 4666 
L 3578 4666 
L 3578 4134 
L 1259 4134 
L 1259 2753 
L 3481 2753 
L 3481 2222 
L 1259 2222 
L 1259 531 
L 3634 531 
L 3634 0 
L 628 0 
L 628 4666 
z
" transform="scale(0.015625)"/>
      <path id="DejaVuSans-78" d="M 3513 3500 
L 2247 1797 
L 3578 0 
L 2900 0 
L 1881 1375 
L 863 0 
L 184 0 
L 1544 1831 
L 300 3500 
L 978 3500 
L 1906 2253 
L 2834 3500 
L 3513 3500 
z
" transform="scale(0.015625)"/>
      <path id="DejaVuSans-70" d="M 1159 525 
L 1159 -1331 
L 581 -1331 
L 581 3500 
L 1159 3500 
L 1159 2969 
Q 1341 3281 1617 3432 
Q 1894 3584 2278 3584 
Q 2916 3584 3314 3078 
Q 3713 2572 3713 1747 
Q 3713 922 3314 415 
Q 2916 -91 2278 -91 
Q 1894 -91 1617 61 
Q 1341 213 1159 525 
z
M 3116 1747 
Q 3116 2381 2855 2742 
Q 2594 3103 2138 3103 
Q 1681 3103 1420 2742 
Q 1159 2381 1159 1747 
Q 1159 1113 1420 752 
Q 1681 391 2138 391 
Q 2594 391 2855 752 
Q 3116 1113 3116 1747 
z
" transform="scale(0.015625)"/>
      <path id="DejaVuSans-63" d="M 3122 3366 
L 3122 2828 
Q 2878 2963 2633 3030 
Q 2388 3097 2138 3097 
Q 1578 3097 1268 2742 
Q 959 2388 959 1747 
Q 959 1106 1268 751 
Q 1578 397 2138 397 
Q 2388 397 2633 464 
Q 2878 531 3122 666 
L 3122 134 
Q 2881 22 2623 -34 
Q 2366 -91 2075 -91 
Q 1284 -91 818 406 
Q 353 903 353 1747 
Q 353 2603 823 3093 
Q 1294 3584 2113 3584 
Q 2378 3584 2631 3529 
Q 2884 3475 3122 3366 
z
" transform="scale(0.015625)"/>
      <path id="DejaVuSans-64" d="M 2906 2969 
L 2906 4863 
L 3481 4863 
L 3481 0 
L 2906 0 
L 2906 525 
Q 2725 213 2448 61 
Q 2172 -91 1784 -91 
Q 1150 -91 751 415 
Q 353 922 353 1747 
Q 353 2572 751 3078 
Q 1150 3584 1784 3584 
Q 2172 3584 2448 3432 
Q 2725 3281 2906 2969 
z
M 947 1747 
Q 947 1113 1208 752 
Q 1469 391 1925 391 
Q 2381 391 2643 752 
Q 2906 1113 2906 1747 
Q 2906 2381 2643 2742 
Q 2381 3103 1925 3103 
Q 1469 3103 1208 2742 
Q 947 2381 947 1747 
z
" transform="scale(0.015625)"/>
      <path id="DejaVuSans-50" d="M 1259 4147 
L 1259 2394 
L 2053 2394 
Q 2494 2394 2734 2622 
Q 2975 2850 2975 3272 
Q 2975 3691 2734 3919 
Q 2494 4147 2053 4147 
L 1259 4147 
z
M 628 4666 
L 2053 4666 
Q 2838 4666 3239 4311 
Q 3641 3956 3641 3272 
Q 3641 2581 3239 2228 
Q 2838 1875 2053 1875 
L 1259 1875 
L 1259 0 
L 628 0 
L 628 4666 
z
" transform="scale(0.015625)"/>
      <path id="DejaVuSans-6f" d="M 1959 3097 
Q 1497 3097 1228 2736 
Q 959 2375 959 1747 
Q 959 1119 1226 758 
Q 1494 397 1959 397 
Q 2419 397 2687 759 
Q 2956 1122 2956 1747 
Q 2956 2369 2687 2733 
Q 2419 3097 1959 3097 
z
M 1959 3584 
Q 2709 3584 3137 3096 
Q 3566 2609 3566 1747 
Q 3566 888 3137 398 
Q 2709 -91 1959 -91 
Q 1206 -91 779 398 
Q 353 888 353 1747 
Q 353 2609 779 3096 
Q 1206 3584 1959 3584 
z
" transform="scale(0.015625)"/>
      <path id="DejaVuSans-6e" d="M 3513 2113 
L 3513 0 
L 2938 0 
L 2938 2094 
Q 2938 2591 2744 2837 
Q 2550 3084 2163 3084 
Q 1697 3084 1428 2787 
Q 1159 2491 1159 1978 
L 1159 0 
L 581 0 
L 581 3500 
L 1159 3500 
L 1159 2956 
Q 1366 3272 1645 3428 
Q 1925 3584 2291 3584 
Q 2894 3584 3203 3211 
Q 3513 2838 3513 2113 
z
" transform="scale(0.015625)"/>
     </defs>
     <use xlink:href="#DejaVuSans-67"/>
     <use xlink:href="#DejaVuSans-65" transform="translate(63.476562 0)"/>
     <use xlink:href="#DejaVuSans-74" transform="translate(125 0)"/>
     <use xlink:href="#DejaVuSans-45" transform="translate(164.208984 0)"/>
     <use xlink:href="#DejaVuSans-78" transform="translate(227.392578 0)"/>
     <use xlink:href="#DejaVuSans-70" transform="translate(286.572266 0)"/>
     <use xlink:href="#DejaVuSans-65" transform="translate(350.048828 0)"/>
     <use xlink:href="#DejaVuSans-63" transform="translate(411.572266 0)"/>
     <use xlink:href="#DejaVuSans-74" transform="translate(466.552734 0)"/>
     <use xlink:href="#DejaVuSans-65" transform="translate(505.761719 0)"/>
     <use xlink:href="#DejaVuSans-64" transform="translate(567.285156 0)"/>
     <use xlink:href="#DejaVuSans-50" transform="translate(630.761719 0)"/>
     <use xlink:href="#DejaVuSans-6f" transform="translate(687.439453 0)"/>
     <use xlink:href="#DejaVuSans-69" transform="translate(748.621094 0)"/>
     <use xlink:href="#DejaVuSans-6e" transform="translate(776.404297 0)"/>
     <use xlink:href="#DejaVuSans-74" transform="translate(839.783203 0)"/>
     <use xlink:href="#DejaVuSans-73" transform="translate(878.992188 0)"/>
    </g>
   </g>
  </g>
 </g>
 <defs>
  <clipPath id="p7583f97b4e">
   <rect x="72" y="51.84" width="446.4" height="332.64"/>
  </clipPath>
 </defs>
</svg>
