<?xml version="1.0" encoding="utf-8" standalone="no"?>
<!DOCTYPE svg PUBLIC "-//W3C//DTD SVG 1.1//EN"
  "http://www.w3.org/Graphics/SVG/1.1/DTD/svg11.dtd">
<svg xmlns:xlink="http://www.w3.org/1999/xlink" width="576pt" height="432pt" viewBox="0 0 576 432" xmlns="http://www.w3.org/2000/svg" version="1.1">
 <metadata>
  <rdf:RDF xmlns:dc="http://purl.org/dc/elements/1.1/" xmlns:cc="http://creativecommons.org/ns#" xmlns:rdf="http://www.w3.org/1999/02/22-rdf-syntax-ns#">
   <cc:Work>
    <dc:type rdf:resource="http://purl.org/dc/dcmitype/StillImage"/>
    <dc:date>2025-06-10T03:16:28.689985</dc:date>
    <dc:format>image/svg+xml</dc:format>
    <dc:creator>
     <cc:Agent>
      <dc:title>Matplotlib v3.10.3, https://matplotlib.org/</dc:title>
     </cc:Agent>
    </dc:creator>
   </cc:Work>
  </rdf:RDF>
 </metadata>
 <defs>
  <style type="text/css">*{stroke-linejoin: round; stroke-linecap: butt}</style>
 </defs>
 <g id="figure_1">
  <g id="patch_1">
   <path d="M 0 432 
L 576 432 
L 576 0 
L 0 0 
z
" style="fill: #ffffff"/>
  </g>
  <g id="axes_1">
   <g id="patch_2">
    <path d="M 72 384.48 
L 518.4 384.48 
L 518.4 51.84 
L 72 51.84 
z
" style="fill: #ffffff"/>
   </g>
   <g id="FillBetweenPolyCollection_1">
    <path d="M 389.273133 366.455488 
L 201.126867 366.455488 
L 190.811942 363.428884 
L 184.730989 360.40228 
L 183.6 357.375676 
L 187.447647 354.349072 
L 195.632878 351.322468 
L 207.012628 348.295864 
L 220.20087 345.26926 
L 233.838858 342.242656 
L 246.806143 339.216052 
L 258.333891 336.189448 
L 268.019563 333.162844 
L 275.769709 330.13624 
L 281.708217 327.109636 
L 286.082623 324.083032 
L 289.188273 321.056428 
L 291.31695 318.029824 
L 292.727722 315.00322 
L 293.634066 311.976616 
L 294.201376 308.950012 
L 294.55047 305.923408 
L 294.764291 302.896804 
L 294.895981 299.8702 
L 294.977063 296.843596 
L 295.024809 293.816992 
L 295.048229 290.790388 
L 295.052442 287.763784 
L 295.041509 284.73718 
L 295.019938 281.710576 
L 294.99313 278.683972 
L 294.967049 275.657368 
L 294.947394 272.630764 
L 294.938594 269.60416 
L 294.942975 266.577556 
L 294.960383 263.550952 
L 294.988399 260.524348 
L 295.023082 257.497744 
L 295.059979 254.47114 
L 295.095111 251.444535 
L 295.125636 248.417931 
L 295.150101 245.391327 
L 295.168312 242.364723 
L 295.180955 239.338119 
L 295.189167 236.311515 
L 295.194168 233.284911 
L 295.197029 230.258307 
L 295.198567 227.231703 
L 295.199346 224.205099 
L 295.199718 221.178495 
L 295.199885 218.151891 
L 295.199955 215.125287 
L 295.199983 212.098683 
L 295.199993 209.072079 
L 295.199994 206.045475 
L 295.199987 203.018871 
L 295.19996 199.992267 
L 295.19988 196.965663 
L 295.199661 193.939059 
L 295.199088 190.912455 
L 295.197678 187.885851 
L 295.194399 184.859247 
L 295.187199 181.832643 
L 295.172281 178.806039 
L 295.143132 175.779435 
L 295.089453 172.752831 
L 294.996381 169.726227 
L 294.844611 166.699623 
L 294.612212 163.673019 
L 294.278734 160.646415 
L 293.831594 157.619811 
L 293.273679 154.593207 
L 292.629933 151.566603 
L 291.95002 148.539999 
L 291.304571 145.513395 
L 290.774253 142.486791 
L 290.43358 139.460187 
L 290.333799 136.433583 
L 290.49026 133.406978 
L 290.878548 130.380374 
L 291.440723 127.35377 
L 292.099465 124.327166 
L 292.775382 121.300562 
L 293.402182 118.273958 
L 293.935892 115.247354 
L 294.356917 112.22075 
L 294.666217 109.194146 
L 294.878267 106.167542 
L 295.013598 103.140938 
L 295.092893 100.114334 
L 295.133434 97.08773 
L 295.147807 94.061126 
L 295.144209 91.034522 
L 295.127656 88.007918 
L 295.101453 84.981314 
L 295.068516 81.95471 
L 295.03225 78.928106 
L 294.996838 75.901502 
L 294.96693 72.874898 
L 294.946884 69.848294 
L 294.939824 66.82169 
L 295.460176 66.82169 
L 295.460176 66.82169 
L 295.453116 69.848294 
L 295.43307 72.874898 
L 295.403162 75.901502 
L 295.36775 78.928106 
L 295.331484 81.95471 
L 295.298547 84.981314 
L 295.272344 88.007918 
L 295.255791 91.034522 
L 295.252193 94.061126 
L 295.266566 97.08773 
L 295.307107 100.114334 
L 295.386402 103.140938 
L 295.521733 106.167542 
L 295.733783 109.194146 
L 296.043083 112.22075 
L 296.464108 115.247354 
L 296.997818 118.273958 
L 297.624618 121.300562 
L 298.300535 124.327166 
L 298.959277 127.35377 
L 299.521452 130.380374 
L 299.90974 133.406978 
L 300.066201 136.433583 
L 299.96642 139.460187 
L 299.625747 142.486791 
L 299.095429 145.513395 
L 298.44998 148.539999 
L 297.770067 151.566603 
L 297.126321 154.593207 
L 296.568406 157.619811 
L 296.121266 160.646415 
L 295.787788 163.673019 
L 295.555389 166.699623 
L 295.403619 169.726227 
L 295.310547 172.752831 
L 295.256868 175.779435 
L 295.227719 178.806039 
L 295.212801 181.832643 
L 295.205601 184.859247 
L 295.202322 187.885851 
L 295.200912 190.912455 
L 295.200339 193.939059 
L 295.20012 196.965663 
L 295.20004 199.992267 
L 295.200013 203.018871 
L 295.200006 206.045475 
L 295.200007 209.072079 
L 295.200017 212.098683 
L 295.200045 215.125287 
L 295.200115 218.151891 
L 295.200282 221.178495 
L 295.200654 224.205099 
L 295.201433 227.231703 
L 295.202971 230.258307 
L 295.205832 233.284911 
L 295.210833 236.311515 
L 295.219045 239.338119 
L 295.231688 242.364723 
L 295.249899 245.391327 
L 295.274364 248.417931 
L 295.304889 251.444535 
L 295.340021 254.47114 
L 295.376918 257.497744 
L 295.411601 260.524348 
L 295.439617 263.550952 
L 295.457025 266.577556 
L 295.461406 269.60416 
L 295.452606 272.630764 
L 295.432951 275.657368 
L 295.40687 278.683972 
L 295.380062 281.710576 
L 295.358491 284.73718 
L 295.347558 287.763784 
L 295.351771 290.790388 
L 295.375191 293.816992 
L 295.422937 296.843596 
L 295.504019 299.8702 
L 295.635709 302.896804 
L 295.84953 305.923408 
L 296.198624 308.950012 
L 296.765934 311.976616 
L 297.672278 315.00322 
L 299.08305 318.029824 
L 301.211727 321.056428 
L 304.317377 324.083032 
L 308.691783 327.109636 
L 314.630291 330.13624 
L 322.380437 333.162844 
L 332.066109 336.189448 
L 343.593857 339.216052 
L 356.561142 342.242656 
L 370.19913 345.26926 
L 383.387372 348.295864 
L 394.767122 351.322468 
L 402.952353 354.349072 
L 406.8 357.375676 
L 405.669011 360.40228 
L 399.588058 363.428884 
L 389.273133 366.455488 
z
" clip-path="url(#p2a6bbee2b9)" style="fill: #1f77b4; fill-opacity: 0.3"/>
   </g>
   <g id="matplotlib.axis_1">
    <g id="xtick_1">
     <g id="line2d_1">
      <defs>
       <path id="m4c0d687d89" d="M 0 0 
L 0 3.5 
" style="stroke: #000000; stroke-width: 0.8"/>
      </defs>
      <g>
       <use xlink:href="#m4c0d687d89" x="295.2" y="384.48" style="stroke: #000000; stroke-width: 0.8"/>
      </g>
     </g>
     <g id="text_1">
      <!-- 1 -->
      <g transform="translate(292.01875 399.078438) scale(0.1 -0.1)">
       <defs>
        <path id="DejaVuSans-31" d="M 794 531 
L 1825 531 
L 1825 4091 
L 703 3866 
L 703 4441 
L 1819 4666 
L 2450 4666 
L 2450 531 
L 3481 531 
L 3481 0 
L 794 0 
L 794 531 
z
" transform="scale(0.015625)"/>
       </defs>
       <use xlink:href="#DejaVuSans-31"/>
      </g>
     </g>
    </g>
   </g>
   <g id="matplotlib.axis_2">
    <g id="ytick_1">
     <g id="line2d_2">
      <defs>
       <path id="m4b88063faa" d="M 0 0 
L -3.5 0 
" style="stroke: #000000; stroke-width: 0.8"/>
      </defs>
      <g>
       <use xlink:href="#m4b88063faa" x="72" y="384.48" style="stroke: #000000; stroke-width: 0.8"/>
      </g>
     </g>
     <g id="text_2">
      <!-- 0 -->
      <g transform="translate(58.6375 388.279219) scale(0.1 -0.1)">
       <defs>
        <path id="DejaVuSans-30" d="M 2034 4250 
Q 1547 4250 1301 3770 
Q 1056 3291 1056 2328 
Q 1056 1369 1301 889 
Q 1547 409 2034 409 
Q 2525 409 2770 889 
Q 3016 1369 3016 2328 
Q 3016 3291 2770 3770 
Q 2525 4250 2034 4250 
z
M 2034 4750 
Q 2819 4750 3233 4129 
Q 3647 3509 3647 2328 
Q 3647 1150 3233 529 
Q 2819 -91 2034 -91 
Q 1250 -91 836 529 
Q 422 1150 422 2328 
Q 422 3509 836 4129 
Q 1250 4750 2034 4750 
z
" transform="scale(0.015625)"/>
       </defs>
       <use xlink:href="#DejaVuSans-30"/>
      </g>
     </g>
    </g>
    <g id="ytick_2">
     <g id="line2d_3">
      <g>
       <use xlink:href="#m4b88063faa" x="72" y="336.940637" style="stroke: #000000; stroke-width: 0.8"/>
      </g>
     </g>
     <g id="text_3">
      <!-- 20 -->
      <g transform="translate(52.275 340.739856) scale(0.1 -0.1)">
       <defs>
        <path id="DejaVuSans-32" d="M 1228 531 
L 3431 531 
L 3431 0 
L 469 0 
L 469 531 
Q 828 903 1448 1529 
Q 2069 2156 2228 2338 
Q 2531 2678 2651 2914 
Q 2772 3150 2772 3378 
Q 2772 3750 2511 3984 
Q 2250 4219 1831 4219 
Q 1534 4219 1204 4116 
Q 875 4013 500 3803 
L 500 4441 
Q 881 4594 1212 4672 
Q 1544 4750 1819 4750 
Q 2544 4750 2975 4387 
Q 3406 4025 3406 3419 
Q 3406 3131 3298 2873 
Q 3191 2616 2906 2266 
Q 2828 2175 2409 1742 
Q 1991 1309 1228 531 
z
" transform="scale(0.015625)"/>
       </defs>
       <use xlink:href="#DejaVuSans-32"/>
       <use xlink:href="#DejaVuSans-30" transform="translate(63.623047 0)"/>
      </g>
     </g>
    </g>
    <g id="ytick_3">
     <g id="line2d_4">
      <g>
       <use xlink:href="#m4b88063faa" x="72" y="289.401274" style="stroke: #000000; stroke-width: 0.8"/>
      </g>
     </g>
     <g id="text_4">
      <!-- 40 -->
      <g transform="translate(52.275 293.200492) scale(0.1 -0.1)">
       <defs>
        <path id="DejaVuSans-34" d="M 2419 4116 
L 825 1625 
L 2419 1625 
L 2419 4116 
z
M 2253 4666 
L 3047 4666 
L 3047 1625 
L 3713 1625 
L 3713 1100 
L 3047 1100 
L 3047 0 
L 2419 0 
L 2419 1100 
L 313 1100 
L 313 1709 
L 2253 4666 
z
" transform="scale(0.015625)"/>
       </defs>
       <use xlink:href="#DejaVuSans-34"/>
       <use xlink:href="#DejaVuSans-30" transform="translate(63.623047 0)"/>
      </g>
     </g>
    </g>
    <g id="ytick_4">
     <g id="line2d_5">
      <g>
       <use xlink:href="#m4b88063faa" x="72" y="241.86191" style="stroke: #000000; stroke-width: 0.8"/>
      </g>
     </g>
     <g id="text_5">
      <!-- 60 -->
      <g transform="translate(52.275 245.661129) scale(0.1 -0.1)">
       <defs>
        <path id="DejaVuSans-36" d="M 2113 2584 
Q 1688 2584 1439 2293 
Q 1191 2003 1191 1497 
Q 1191 994 1439 701 
Q 1688 409 2113 409 
Q 2538 409 2786 701 
Q 3034 994 3034 1497 
Q 3034 2003 2786 2293 
Q 2538 2584 2113 2584 
z
M 3366 4563 
L 3366 3988 
Q 3128 4100 2886 4159 
Q 2644 4219 2406 4219 
Q 1781 4219 1451 3797 
Q 1122 3375 1075 2522 
Q 1259 2794 1537 2939 
Q 1816 3084 2150 3084 
Q 2853 3084 3261 2657 
Q 3669 2231 3669 1497 
Q 3669 778 3244 343 
Q 2819 -91 2113 -91 
Q 1303 -91 875 529 
Q 447 1150 447 2328 
Q 447 3434 972 4092 
Q 1497 4750 2381 4750 
Q 2619 4750 2861 4703 
Q 3103 4656 3366 4563 
z
" transform="scale(0.015625)"/>
       </defs>
       <use xlink:href="#DejaVuSans-36"/>
       <use xlink:href="#DejaVuSans-30" transform="translate(63.623047 0)"/>
      </g>
     </g>
    </g>
    <g id="ytick_5">
     <g id="line2d_6">
      <g>
       <use xlink:href="#m4b88063faa" x="72" y="194.322547" style="stroke: #000000; stroke-width: 0.8"/>
      </g>
     </g>
     <g id="text_6">
      <!-- 80 -->
      <g transform="translate(52.275 198.121766) scale(0.1 -0.1)">
       <defs>
        <path id="DejaVuSans-38" d="M 2034 2216 
Q 1584 2216 1326 1975 
Q 1069 1734 1069 1313 
Q 1069 891 1326 650 
Q 1584 409 2034 409 
Q 2484 409 2743 651 
Q 3003 894 3003 1313 
Q 3003 1734 2745 1975 
Q 2488 2216 2034 2216 
z
M 1403 2484 
Q 997 2584 770 2862 
Q 544 3141 544 3541 
Q 544 4100 942 4425 
Q 1341 4750 2034 4750 
Q 2731 4750 3128 4425 
Q 3525 4100 3525 3541 
Q 3525 3141 3298 2862 
Q 3072 2584 2669 2484 
Q 3125 2378 3379 2068 
Q 3634 1759 3634 1313 
Q 3634 634 3220 271 
Q 2806 -91 2034 -91 
Q 1263 -91 848 271 
Q 434 634 434 1313 
Q 434 1759 690 2068 
Q 947 2378 1403 2484 
z
M 1172 3481 
Q 1172 3119 1398 2916 
Q 1625 2713 2034 2713 
Q 2441 2713 2670 2916 
Q 2900 3119 2900 3481 
Q 2900 3844 2670 4047 
Q 2441 4250 2034 4250 
Q 1625 4250 1398 4047 
Q 1172 3844 1172 3481 
z
" transform="scale(0.015625)"/>
       </defs>
       <use xlink:href="#DejaVuSans-38"/>
       <use xlink:href="#DejaVuSans-30" transform="translate(63.623047 0)"/>
      </g>
     </g>
    </g>
    <g id="ytick_6">
     <g id="line2d_7">
      <g>
       <use xlink:href="#m4b88063faa" x="72" y="146.783184" style="stroke: #000000; stroke-width: 0.8"/>
      </g>
     </g>
     <g id="text_7">
      <!-- 100 -->
      <g transform="translate(45.9125 150.582403) scale(0.1 -0.1)">
       <use xlink:href="#DejaVuSans-31"/>
       <use xlink:href="#DejaVuSans-30" transform="translate(63.623047 0)"/>
       <use xlink:href="#DejaVuSans-30" transform="translate(127.246094 0)"/>
      </g>
     </g>
    </g>
    <g id="ytick_7">
     <g id="line2d_8">
      <g>
       <use xlink:href="#m4b88063faa" x="72" y="99.243821" style="stroke: #000000; stroke-width: 0.8"/>
      </g>
     </g>
     <g id="text_8">
      <!-- 120 -->
      <g transform="translate(45.9125 103.04304) scale(0.1 -0.1)">
       <use xlink:href="#DejaVuSans-31"/>
       <use xlink:href="#DejaVuSans-32" transform="translate(63.623047 0)"/>
       <use xlink:href="#DejaVuSans-30" transform="translate(127.246094 0)"/>
      </g>
     </g>
    </g>
    <g id="text_9">
     <!-- Time (ms) -->
     <g transform="translate(39.832812 243.359219) rotate(-90) scale(0.1 -0.1)">
      <defs>
       <path id="DejaVuSans-54" d="M -19 4666 
L 3928 4666 
L 3928 4134 
L 2272 4134 
L 2272 0 
L 1638 0 
L 1638 4134 
L -19 4134 
L -19 4666 
z
" transform="scale(0.015625)"/>
       <path id="DejaVuSans-69" d="M 603 3500 
L 1178 3500 
L 1178 0 
L 603 0 
L 603 3500 
z
M 603 4863 
L 1178 4863 
L 1178 4134 
L 603 4134 
L 603 4863 
z
" transform="scale(0.015625)"/>
       <path id="DejaVuSans-6d" d="M 3328 2828 
Q 3544 3216 3844 3400 
Q 4144 3584 4550 3584 
Q 5097 3584 5394 3201 
Q 5691 2819 5691 2113 
L 5691 0 
L 5113 0 
L 5113 2094 
Q 5113 2597 4934 2840 
Q 4756 3084 4391 3084 
Q 3944 3084 3684 2787 
Q 3425 2491 3425 1978 
L 3425 0 
L 2847 0 
L 2847 2094 
Q 2847 2600 2669 2842 
Q 2491 3084 2119 3084 
Q 1678 3084 1418 2786 
Q 1159 2488 1159 1978 
L 1159 0 
L 581 0 
L 581 3500 
L 1159 3500 
L 1159 2956 
Q 1356 3278 1631 3431 
Q 1906 3584 2284 3584 
Q 2666 3584 2933 3390 
Q 3200 3197 3328 2828 
z
" transform="scale(0.015625)"/>
       <path id="DejaVuSans-65" d="M 3597 1894 
L 3597 1613 
L 953 1613 
Q 991 1019 1311 708 
Q 1631 397 2203 397 
Q 2534 397 2845 478 
Q 3156 559 3463 722 
L 3463 178 
Q 3153 47 2828 -22 
Q 2503 -91 2169 -91 
Q 1331 -91 842 396 
Q 353 884 353 1716 
Q 353 2575 817 3079 
Q 1281 3584 2069 3584 
Q 2775 3584 3186 3129 
Q 3597 2675 3597 1894 
z
M 3022 2063 
Q 3016 2534 2758 2815 
Q 2500 3097 2075 3097 
Q 1594 3097 1305 2825 
Q 1016 2553 972 2059 
L 3022 2063 
z
" transform="scale(0.015625)"/>
       <path id="DejaVuSans-20" transform="scale(0.015625)"/>
       <path id="DejaVuSans-28" d="M 1984 4856 
Q 1566 4138 1362 3434 
Q 1159 2731 1159 2009 
Q 1159 1288 1364 580 
Q 1569 -128 1984 -844 
L 1484 -844 
Q 1016 -109 783 600 
Q 550 1309 550 2009 
Q 550 2706 781 3412 
Q 1013 4119 1484 4856 
L 1984 4856 
z
" transform="scale(0.015625)"/>
       <path id="DejaVuSans-73" d="M 2834 3397 
L 2834 2853 
Q 2591 2978 2328 3040 
Q 2066 3103 1784 3103 
Q 1356 3103 1142 2972 
Q 928 2841 928 2578 
Q 928 2378 1081 2264 
Q 1234 2150 1697 2047 
L 1894 2003 
Q 2506 1872 2764 1633 
Q 3022 1394 3022 966 
Q 3022 478 2636 193 
Q 2250 -91 1575 -91 
Q 1294 -91 989 -36 
Q 684 19 347 128 
L 347 722 
Q 666 556 975 473 
Q 1284 391 1588 391 
Q 1994 391 2212 530 
Q 2431 669 2431 922 
Q 2431 1156 2273 1281 
Q 2116 1406 1581 1522 
L 1381 1569 
Q 847 1681 609 1914 
Q 372 2147 372 2553 
Q 372 3047 722 3315 
Q 1072 3584 1716 3584 
Q 2034 3584 2315 3537 
Q 2597 3491 2834 3397 
z
" transform="scale(0.015625)"/>
       <path id="DejaVuSans-29" d="M 513 4856 
L 1013 4856 
Q 1481 4119 1714 3412 
Q 1947 2706 1947 2009 
Q 1947 1309 1714 600 
Q 1481 -109 1013 -844 
L 513 -844 
Q 928 -128 1133 580 
Q 1338 1288 1338 2009 
Q 1338 2731 1133 3434 
Q 928 4138 513 4856 
z
" transform="scale(0.015625)"/>
      </defs>
      <use xlink:href="#DejaVuSans-54"/>
      <use xlink:href="#DejaVuSans-69" transform="translate(57.958984 0)"/>
      <use xlink:href="#DejaVuSans-6d" transform="translate(85.742188 0)"/>
      <use xlink:href="#DejaVuSans-65" transform="translate(183.154297 0)"/>
      <use xlink:href="#DejaVuSans-20" transform="translate(244.677734 0)"/>
      <use xlink:href="#DejaVuSans-28" transform="translate(276.464844 0)"/>
      <use xlink:href="#DejaVuSans-6d" transform="translate(315.478516 0)"/>
      <use xlink:href="#DejaVuSans-73" transform="translate(412.890625 0)"/>
      <use xlink:href="#DejaVuSans-29" transform="translate(464.990234 0)"/>
     </g>
    </g>
   </g>
   <g id="LineCollection_1">
    <path d="M 239.4 348.043322 
L 351 348.043322 
" clip-path="url(#p2a6bbee2b9)" style="fill: none; stroke: #1f77b4; stroke-width: 1.5"/>
   </g>
   <g id="LineCollection_2">
    <path d="M 239.4 66.82169 
L 351 66.82169 
" clip-path="url(#p2a6bbee2b9)" style="fill: none; stroke: #1f77b4; stroke-width: 1.5"/>
   </g>
   <g id="LineCollection_3">
    <path d="M 239.4 366.455488 
L 351 366.455488 
" clip-path="url(#p2a6bbee2b9)" style="fill: none; stroke: #1f77b4; stroke-width: 1.5"/>
   </g>
   <g id="LineCollection_4">
    <path d="M 295.2 366.455488 
L 295.2 66.82169 
" clip-path="url(#p2a6bbee2b9)" style="fill: none; stroke: #1f77b4; stroke-width: 1.5"/>
   </g>
   <g id="patch_3">
    <path d="M 250.56 361.949299 
L 339.84 361.949299 
L 339.84 353.173066 
L 250.56 353.173066 
L 250.56 361.949299 
z
" clip-path="url(#p2a6bbee2b9)" style="fill: #1f77b4; stroke: #000000; stroke-linejoin: miter"/>
   </g>
   <g id="line2d_9">
    <path d="M 295.2 361.949299 
L 295.2 366.455488 
" clip-path="url(#p2a6bbee2b9)" style="fill: none; stroke: #000000; stroke-linecap: square"/>
   </g>
   <g id="line2d_10">
    <path d="M 295.2 353.173066 
L 295.2 340.145952 
" clip-path="url(#p2a6bbee2b9)" style="fill: none; stroke: #000000; stroke-linecap: square"/>
   </g>
   <g id="line2d_11">
    <path d="M 272.88 366.455488 
L 317.52 366.455488 
" clip-path="url(#p2a6bbee2b9)" style="fill: none; stroke: #000000; stroke-linecap: square"/>
   </g>
   <g id="line2d_12">
    <path d="M 272.88 340.145952 
L 317.52 340.145952 
" clip-path="url(#p2a6bbee2b9)" style="fill: none; stroke: #000000; stroke-linecap: square"/>
   </g>
   <g id="line2d_13">
    <defs>
     <path id="me5383b8153" d="M 0 3 
C 0.795609 3 1.55874 2.683901 2.12132 2.12132 
C 2.683901 1.55874 3 0.795609 3 0 
C 3 -0.795609 2.683901 -1.55874 2.12132 -2.12132 
C 1.55874 -2.683901 0.795609 -3 0 -3 
C -0.795609 -3 -1.55874 -2.683901 -2.12132 -2.12132 
C -2.683901 -1.55874 -3 -0.795609 -3 0 
C -3 0.795609 -2.683901 1.55874 -2.12132 2.12132 
C -1.55874 2.683901 -0.795609 3 0 3 
z
" style="stroke: #000000"/>
    </defs>
    <g clip-path="url(#p2a6bbee2b9)">
     <use xlink:href="#me5383b8153" x="295.2" y="138.531097" style="fill-opacity: 0; stroke: #000000"/>
     <use xlink:href="#me5383b8153" x="295.2" y="339.470021" style="fill-opacity: 0; stroke: #000000"/>
     <use xlink:href="#me5383b8153" x="295.2" y="134.871255" style="fill-opacity: 0; stroke: #000000"/>
     <use xlink:href="#me5383b8153" x="295.2" y="338.774237" style="fill-opacity: 0; stroke: #000000"/>
     <use xlink:href="#me5383b8153" x="295.2" y="139.388132" style="fill-opacity: 0; stroke: #000000"/>
     <use xlink:href="#me5383b8153" x="295.2" y="131.532147" style="fill-opacity: 0; stroke: #000000"/>
     <use xlink:href="#me5383b8153" x="295.2" y="310.523517" style="fill-opacity: 0; stroke: #000000"/>
     <use xlink:href="#me5383b8153" x="295.2" y="137.431276" style="fill-opacity: 0; stroke: #000000"/>
     <use xlink:href="#me5383b8153" x="295.2" y="336.374899" style="fill-opacity: 0; stroke: #000000"/>
     <use xlink:href="#me5383b8153" x="295.2" y="66.82169" style="fill-opacity: 0; stroke: #000000"/>
     <use xlink:href="#me5383b8153" x="295.2" y="339.727116" style="fill-opacity: 0; stroke: #000000"/>
     <use xlink:href="#me5383b8153" x="295.2" y="136.664255" style="fill-opacity: 0; stroke: #000000"/>
     <use xlink:href="#me5383b8153" x="295.2" y="338.072102" style="fill-opacity: 0; stroke: #000000"/>
     <use xlink:href="#me5383b8153" x="295.2" y="133.279224" style="fill-opacity: 0; stroke: #000000"/>
     <use xlink:href="#me5383b8153" x="295.2" y="339.212322" style="fill-opacity: 0; stroke: #000000"/>
     <use xlink:href="#me5383b8153" x="295.2" y="134.932995" style="fill-opacity: 0; stroke: #000000"/>
     <use xlink:href="#me5383b8153" x="295.2" y="338.844909" style="fill-opacity: 0; stroke: #000000"/>
     <use xlink:href="#me5383b8153" x="295.2" y="331.142869" style="fill-opacity: 0; stroke: #000000"/>
     <use xlink:href="#me5383b8153" x="295.2" y="135.743415" style="fill-opacity: 0; stroke: #000000"/>
     <use xlink:href="#me5383b8153" x="295.2" y="338.950447" style="fill-opacity: 0; stroke: #000000"/>
     <use xlink:href="#me5383b8153" x="295.2" y="136.123376" style="fill-opacity: 0; stroke: #000000"/>
     <use xlink:href="#me5383b8153" x="295.2" y="336.298071" style="fill-opacity: 0; stroke: #000000"/>
     <use xlink:href="#me5383b8153" x="295.2" y="136.926446" style="fill-opacity: 0; stroke: #000000"/>
     <use xlink:href="#me5383b8153" x="295.2" y="339.386635" style="fill-opacity: 0; stroke: #000000"/>
     <use xlink:href="#me5383b8153" x="295.2" y="135.998989" style="fill-opacity: 0; stroke: #000000"/>
     <use xlink:href="#me5383b8153" x="295.2" y="338.450675" style="fill-opacity: 0; stroke: #000000"/>
     <use xlink:href="#me5383b8153" x="295.2" y="133.628572" style="fill-opacity: 0; stroke: #000000"/>
     <use xlink:href="#me5383b8153" x="295.2" y="338.84128" style="fill-opacity: 0; stroke: #000000"/>
     <use xlink:href="#me5383b8153" x="295.2" y="138.58267" style="fill-opacity: 0; stroke: #000000"/>
     <use xlink:href="#me5383b8153" x="295.2" y="339.406682" style="fill-opacity: 0; stroke: #000000"/>
     <use xlink:href="#me5383b8153" x="295.2" y="138.919976" style="fill-opacity: 0; stroke: #000000"/>
     <use xlink:href="#me5383b8153" x="295.2" y="332.559017" style="fill-opacity: 0; stroke: #000000"/>
     <use xlink:href="#me5383b8153" x="295.2" y="138.523831" style="fill-opacity: 0; stroke: #000000"/>
     <use xlink:href="#me5383b8153" x="295.2" y="338.57074" style="fill-opacity: 0; stroke: #000000"/>
     <use xlink:href="#me5383b8153" x="295.2" y="140.342551" style="fill-opacity: 0; stroke: #000000"/>
     <use xlink:href="#me5383b8153" x="295.2" y="339.051907" style="fill-opacity: 0; stroke: #000000"/>
     <use xlink:href="#me5383b8153" x="295.2" y="138.253555" style="fill-opacity: 0; stroke: #000000"/>
     <use xlink:href="#me5383b8153" x="295.2" y="339.174091" style="fill-opacity: 0; stroke: #000000"/>
     <use xlink:href="#me5383b8153" x="295.2" y="138.631179" style="fill-opacity: 0; stroke: #000000"/>
     <use xlink:href="#me5383b8153" x="295.2" y="339.168089" style="fill-opacity: 0; stroke: #000000"/>
     <use xlink:href="#me5383b8153" x="295.2" y="268.828581" style="fill-opacity: 0; stroke: #000000"/>
    </g>
   </g>
   <g id="line2d_14">
    <path d="M 250.56 358.813299 
L 339.84 358.813299 
" clip-path="url(#p2a6bbee2b9)" style="fill: none; stroke: #ff7f0e"/>
   </g>
   <g id="patch_4">
    <path d="M 72 384.48 
L 72 51.84 
" style="fill: none; stroke: #000000; stroke-width: 0.8; stroke-linejoin: miter; stroke-linecap: square"/>
   </g>
   <g id="patch_5">
    <path d="M 518.4 384.48 
L 518.4 51.84 
" style="fill: none; stroke: #000000; stroke-width: 0.8; stroke-linejoin: miter; stroke-linecap: square"/>
   </g>
   <g id="patch_6">
    <path d="M 72 384.48 
L 518.4 384.48 
" style="fill: none; stroke: #000000; stroke-width: 0.8; stroke-linejoin: miter; stroke-linecap: square"/>
   </g>
   <g id="patch_7">
    <path d="M 72 51.84 
L 518.4 51.84 
" style="fill: none; stroke: #000000; stroke-width: 0.8; stroke-linejoin: miter; stroke-linecap: square"/>
   </g>
   <g id="text_10">
    <!-- Get Trace With Delay -->
    <g transform="translate(232.04625 45.84) scale(0.12 -0.12)">
     <defs>
      <path id="DejaVuSans-47" d="M 3809 666 
L 3809 1919 
L 2778 1919 
L 2778 2438 
L 4434 2438 
L 4434 434 
Q 4069 175 3628 42 
Q 3188 -91 2688 -91 
Q 1594 -91 976 548 
Q 359 1188 359 2328 
Q 359 3472 976 4111 
Q 1594 4750 2688 4750 
Q 3144 4750 3555 4637 
Q 3966 4525 4313 4306 
L 4313 3634 
Q 3963 3931 3569 4081 
Q 3175 4231 2741 4231 
Q 1884 4231 1454 3753 
Q 1025 3275 1025 2328 
Q 1025 1384 1454 906 
Q 1884 428 2741 428 
Q 3075 428 3337 486 
Q 3600 544 3809 666 
z
" transform="scale(0.015625)"/>
      <path id="DejaVuSans-74" d="M 1172 4494 
L 1172 3500 
L 2356 3500 
L 2356 3053 
L 1172 3053 
L 1172 1153 
Q 1172 725 1289 603 
Q 1406 481 1766 481 
L 2356 481 
L 2356 0 
L 1766 0 
Q 1100 0 847 248 
Q 594 497 594 1153 
L 594 3053 
L 172 3053 
L 172 3500 
L 594 3500 
L 594 4494 
L 1172 4494 
z
" transform="scale(0.015625)"/>
      <path id="DejaVuSans-72" d="M 2631 2963 
Q 2534 3019 2420 3045 
Q 2306 3072 2169 3072 
Q 1681 3072 1420 2755 
Q 1159 2438 1159 1844 
L 1159 0 
L 581 0 
L 581 3500 
L 1159 3500 
L 1159 2956 
Q 1341 3275 1631 3429 
Q 1922 3584 2338 3584 
Q 2397 3584 2469 3576 
Q 2541 3569 2628 3553 
L 2631 2963 
z
" transform="scale(0.015625)"/>
      <path id="DejaVuSans-61" d="M 2194 1759 
Q 1497 1759 1228 1600 
Q 959 1441 959 1056 
Q 959 750 1161 570 
Q 1363 391 1709 391 
Q 2188 391 2477 730 
Q 2766 1069 2766 1631 
L 2766 1759 
L 2194 1759 
z
M 3341 1997 
L 3341 0 
L 2766 0 
L 2766 531 
Q 2569 213 2275 61 
Q 1981 -91 1556 -91 
Q 1019 -91 701 211 
Q 384 513 384 1019 
Q 384 1609 779 1909 
Q 1175 2209 1959 2209 
L 2766 2209 
L 2766 2266 
Q 2766 2663 2505 2880 
Q 2244 3097 1772 3097 
Q 1472 3097 1187 3025 
Q 903 2953 641 2809 
L 641 3341 
Q 956 3463 1253 3523 
Q 1550 3584 1831 3584 
Q 2591 3584 2966 3190 
Q 3341 2797 3341 1997 
z
" transform="scale(0.015625)"/>
      <path id="DejaVuSans-63" d="M 3122 3366 
L 3122 2828 
Q 2878 2963 2633 3030 
Q 2388 3097 2138 3097 
Q 1578 3097 1268 2742 
Q 959 2388 959 1747 
Q 959 1106 1268 751 
Q 1578 397 2138 397 
Q 2388 397 2633 464 
Q 2878 531 3122 666 
L 3122 134 
Q 2881 22 2623 -34 
Q 2366 -91 2075 -91 
Q 1284 -91 818 406 
Q 353 903 353 1747 
Q 353 2603 823 3093 
Q 1294 3584 2113 3584 
Q 2378 3584 2631 3529 
Q 2884 3475 3122 3366 
z
" transform="scale(0.015625)"/>
      <path id="DejaVuSans-57" d="M 213 4666 
L 850 4666 
L 1831 722 
L 2809 4666 
L 3519 4666 
L 4500 722 
L 5478 4666 
L 6119 4666 
L 4947 0 
L 4153 0 
L 3169 4050 
L 2175 0 
L 1381 0 
L 213 4666 
z
" transform="scale(0.015625)"/>
      <path id="DejaVuSans-68" d="M 3513 2113 
L 3513 0 
L 2938 0 
L 2938 2094 
Q 2938 2591 2744 2837 
Q 2550 3084 2163 3084 
Q 1697 3084 1428 2787 
Q 1159 2491 1159 1978 
L 1159 0 
L 581 0 
L 581 4863 
L 1159 4863 
L 1159 2956 
Q 1366 3272 1645 3428 
Q 1925 3584 2291 3584 
Q 2894 3584 3203 3211 
Q 3513 2838 3513 2113 
z
" transform="scale(0.015625)"/>
      <path id="DejaVuSans-44" d="M 1259 4147 
L 1259 519 
L 2022 519 
Q 2988 519 3436 956 
Q 3884 1394 3884 2338 
Q 3884 3275 3436 3711 
Q 2988 4147 2022 4147 
L 1259 4147 
z
M 628 4666 
L 1925 4666 
Q 3281 4666 3915 4102 
Q 4550 3538 4550 2338 
Q 4550 1131 3912 565 
Q 3275 0 1925 0 
L 628 0 
L 628 4666 
z
" transform="scale(0.015625)"/>
      <path id="DejaVuSans-6c" d="M 603 4863 
L 1178 4863 
L 1178 0 
L 603 0 
L 603 4863 
z
" transform="scale(0.015625)"/>
      <path id="DejaVuSans-79" d="M 2059 -325 
Q 1816 -950 1584 -1140 
Q 1353 -1331 966 -1331 
L 506 -1331 
L 506 -850 
L 844 -850 
Q 1081 -850 1212 -737 
Q 1344 -625 1503 -206 
L 1606 56 
L 191 3500 
L 800 3500 
L 1894 763 
L 2988 3500 
L 3597 3500 
L 2059 -325 
z
" transform="scale(0.015625)"/>
     </defs>
     <use xlink:href="#DejaVuSans-47"/>
     <use xlink:href="#DejaVuSans-65" transform="translate(77.490234 0)"/>
     <use xlink:href="#DejaVuSans-74" transform="translate(139.013672 0)"/>
     <use xlink:href="#DejaVuSans-20" transform="translate(178.222656 0)"/>
     <use xlink:href="#DejaVuSans-54" transform="translate(210.009766 0)"/>
     <use xlink:href="#DejaVuSans-72" transform="translate(256.34375 0)"/>
     <use xlink:href="#DejaVuSans-61" transform="translate(297.457031 0)"/>
     <use xlink:href="#DejaVuSans-63" transform="translate(358.736328 0)"/>
     <use xlink:href="#DejaVuSans-65" transform="translate(413.716797 0)"/>
     <use xlink:href="#DejaVuSans-20" transform="translate(475.240234 0)"/>
     <use xlink:href="#DejaVuSans-57" transform="translate(507.027344 0)"/>
     <use xlink:href="#DejaVuSans-69" transform="translate(603.654297 0)"/>
     <use xlink:href="#DejaVuSans-74" transform="translate(631.4375 0)"/>
     <use xlink:href="#DejaVuSans-68" transform="translate(670.646484 0)"/>
     <use xlink:href="#DejaVuSans-20" transform="translate(734.025391 0)"/>
     <use xlink:href="#DejaVuSans-44" transform="translate(765.8125 0)"/>
     <use xlink:href="#DejaVuSans-65" transform="translate(842.814453 0)"/>
     <use xlink:href="#DejaVuSans-6c" transform="translate(904.337891 0)"/>
     <use xlink:href="#DejaVuSans-61" transform="translate(932.121094 0)"/>
     <use xlink:href="#DejaVuSans-79" transform="translate(993.400391 0)"/>
    </g>
   </g>
  </g>
 </g>
 <defs>
  <clipPath id="p2a6bbee2b9">
   <rect x="72" y="51.84" width="446.4" height="332.64"/>
  </clipPath>
 </defs>
</svg>
