<?xml version="1.0" encoding="utf-8" standalone="no"?>
<!DOCTYPE svg PUBLIC "-//W3C//DTD SVG 1.1//EN"
  "http://www.w3.org/Graphics/SVG/1.1/DTD/svg11.dtd">
<svg xmlns:xlink="http://www.w3.org/1999/xlink" width="576pt" height="432pt" viewBox="0 0 576 432" xmlns="http://www.w3.org/2000/svg" version="1.1">
 <metadata>
  <rdf:RDF xmlns:dc="http://purl.org/dc/elements/1.1/" xmlns:cc="http://creativecommons.org/ns#" xmlns:rdf="http://www.w3.org/1999/02/22-rdf-syntax-ns#">
   <cc:Work>
    <dc:type rdf:resource="http://purl.org/dc/dcmitype/StillImage"/>
    <dc:date>2025-06-10T03:16:28.638497</dc:date>
    <dc:format>image/svg+xml</dc:format>
    <dc:creator>
     <cc:Agent>
      <dc:title>Matplotlib v3.10.3, https://matplotlib.org/</dc:title>
     </cc:Agent>
    </dc:creator>
   </cc:Work>
  </rdf:RDF>
 </metadata>
 <defs>
  <style type="text/css">*{stroke-linejoin: round; stroke-linecap: butt}</style>
 </defs>
 <g id="figure_1">
  <g id="patch_1">
   <path d="M 0 432 
L 576 432 
L 576 0 
L 0 0 
z
" style="fill: #ffffff"/>
  </g>
  <g id="axes_1">
   <g id="patch_2">
    <path d="M 72 384.48 
L 518.4 384.48 
L 518.4 51.84 
L 72 51.84 
z
" style="fill: #ffffff"/>
   </g>
   <g id="FillBetweenPolyCollection_1">
    <path d="M 366.880127 287.133434 
L 223.519873 287.133434 
L 209.27066 284.869909 
L 197.125792 282.606384 
L 188.390891 280.342859 
L 183.85592 278.079334 
L 183.6 275.815809 
L 186.98169 273.552284 
L 192.821751 271.288759 
L 199.72042 269.025234 
L 206.409225 266.761708 
L 212.033057 264.498183 
L 216.289238 262.234658 
L 219.401608 259.971133 
L 221.959196 257.707608 
L 224.684209 255.444083 
L 228.204289 253.180558 
L 232.890182 250.917033 
L 238.790314 248.653508 
L 245.660412 246.389983 
L 253.060288 244.126457 
L 260.477716 241.862932 
L 267.441752 239.599407 
L 273.600369 237.335882 
L 278.753578 235.072357 
L 282.847364 232.808832 
L 285.942079 230.545307 
L 288.170903 228.281782 
L 289.700857 226.018257 
L 290.703372 223.754732 
L 291.335968 221.491206 
L 291.732965 219.227681 
L 292.001848 216.964156 
L 292.222455 214.700631 
L 292.447633 212.437106 
L 292.705222 210.173581 
L 293.001738 207.910056 
L 293.327784 205.646531 
L 293.664553 203.383006 
L 293.990266 201.11948 
L 294.285332 198.855955 
L 294.53543 196.59243 
L 294.732241 194.328905 
L 294.87216 192.06538 
L 294.953648 189.801855 
L 294.974114 187.53833 
L 294.927285 185.274805 
L 294.802006 183.01128 
L 294.583211 180.747755 
L 294.255382 178.484229 
L 293.808071 176.220704 
L 293.242246 173.957179 
L 292.575501 171.693654 
L 291.844129 169.430129 
L 291.100707 167.166604 
L 290.407204 164.903079 
L 289.825066 162.639554 
L 289.404757 160.376029 
L 289.177377 158.112504 
L 289.150323 155.848978 
L 289.307859 153.585453 
L 289.616208 151.321928 
L 290.031761 149.058403 
L 290.510189 146.794878 
L 291.014103 144.531353 
L 291.517276 142.267828 
L 292.004678 140.004303 
L 292.469026 137.740778 
L 292.905842 135.477253 
L 293.30934 133.213727 
L 293.67087 130.950202 
L 293.980272 128.686677 
L 294.229181 126.423152 
L 294.414553 124.159627 
L 294.540749 121.896102 
L 294.61924 119.632577 
L 294.665982 117.369052 
L 294.697412 115.105527 
L 294.726428 112.842002 
L 294.759682 110.578476 
L 294.796967 108.314951 
L 294.832755 106.051426 
L 294.859201 103.787901 
L 294.869547 101.524376 
L 294.860802 99.260851 
L 294.834869 96.997326 
L 294.79784 94.733801 
L 294.757775 92.470276 
L 294.721778 90.20675 
L 294.693471 87.943225 
L 294.67187 85.6797 
L 294.652133 83.416175 
L 294.627942 81.15265 
L 294.594561 78.889125 
L 294.551375 76.6256 
L 294.502896 74.362075 
L 294.457911 72.09855 
L 294.427123 69.835025 
L 294.420168 67.571499 
L 294.442996 65.307974 
L 294.496365 63.044449 
L 295.903635 63.044449 
L 295.903635 63.044449 
L 295.957004 65.307974 
L 295.979832 67.571499 
L 295.972877 69.835025 
L 295.942089 72.09855 
L 295.897104 74.362075 
L 295.848625 76.6256 
L 295.805439 78.889125 
L 295.772058 81.15265 
L 295.747867 83.416175 
L 295.72813 85.6797 
L 295.706529 87.943225 
L 295.678222 90.20675 
L 295.642225 92.470276 
L 295.60216 94.733801 
L 295.565131 96.997326 
L 295.539198 99.260851 
L 295.530453 101.524376 
L 295.540799 103.787901 
L 295.567245 106.051426 
L 295.603033 108.314951 
L 295.640318 110.578476 
L 295.673572 112.842002 
L 295.702588 115.105527 
L 295.734018 117.369052 
L 295.78076 119.632577 
L 295.859251 121.896102 
L 295.985447 124.159627 
L 296.170819 126.423152 
L 296.419728 128.686677 
L 296.72913 130.950202 
L 297.09066 133.213727 
L 297.494158 135.477253 
L 297.930974 137.740778 
L 298.395322 140.004303 
L 298.882724 142.267828 
L 299.385897 144.531353 
L 299.889811 146.794878 
L 300.368239 149.058403 
L 300.783792 151.321928 
L 301.092141 153.585453 
L 301.249677 155.848978 
L 301.222623 158.112504 
L 300.995243 160.376029 
L 300.574934 162.639554 
L 299.992796 164.903079 
L 299.299293 167.166604 
L 298.555871 169.430129 
L 297.824499 171.693654 
L 297.157754 173.957179 
L 296.591929 176.220704 
L 296.144618 178.484229 
L 295.816789 180.747755 
L 295.597994 183.01128 
L 295.472715 185.274805 
L 295.425886 187.53833 
L 295.446352 189.801855 
L 295.52784 192.06538 
L 295.667759 194.328905 
L 295.86457 196.59243 
L 296.114668 198.855955 
L 296.409734 201.11948 
L 296.735447 203.383006 
L 297.072216 205.646531 
L 297.398262 207.910056 
L 297.694778 210.173581 
L 297.952367 212.437106 
L 298.177545 214.700631 
L 298.398152 216.964156 
L 298.667035 219.227681 
L 299.064032 221.491206 
L 299.696628 223.754732 
L 300.699143 226.018257 
L 302.229097 228.281782 
L 304.457921 230.545307 
L 307.552636 232.808832 
L 311.646422 235.072357 
L 316.799631 237.335882 
L 322.958248 239.599407 
L 329.922284 241.862932 
L 337.339712 244.126457 
L 344.739588 246.389983 
L 351.609686 248.653508 
L 357.509818 250.917033 
L 362.195711 253.180558 
L 365.715791 255.444083 
L 368.440804 257.707608 
L 370.998392 259.971133 
L 374.110762 262.234658 
L 378.366943 264.498183 
L 383.990775 266.761708 
L 390.67958 269.025234 
L 397.578249 271.288759 
L 403.41831 273.552284 
L 406.8 275.815809 
L 406.54408 278.079334 
L 402.009109 280.342859 
L 393.274208 282.606384 
L 381.12934 284.869909 
L 366.880127 287.133434 
z
" clip-path="url(#pac5c939856)" style="fill: #1f77b4; fill-opacity: 0.3"/>
   </g>
   <g id="matplotlib.axis_1">
    <g id="xtick_1">
     <g id="line2d_1">
      <defs>
       <path id="m7c2dcb80e3" d="M 0 0 
L 0 3.5 
" style="stroke: #000000; stroke-width: 0.8"/>
      </defs>
      <g>
       <use xlink:href="#m7c2dcb80e3" x="295.2" y="384.48" style="stroke: #000000; stroke-width: 0.8"/>
      </g>
     </g>
     <g id="text_1">
      <!-- 1 -->
      <g transform="translate(292.01875 399.078438) scale(0.1 -0.1)">
       <defs>
        <path id="DejaVuSans-31" d="M 794 531 
L 1825 531 
L 1825 4091 
L 703 3866 
L 703 4441 
L 1819 4666 
L 2450 4666 
L 2450 531 
L 3481 531 
L 3481 0 
L 794 0 
L 794 531 
z
" transform="scale(0.015625)"/>
       </defs>
       <use xlink:href="#DejaVuSans-31"/>
      </g>
     </g>
    </g>
   </g>
   <g id="matplotlib.axis_2">
    <g id="ytick_1">
     <g id="line2d_2">
      <defs>
       <path id="m9f31d9fd24" d="M 0 0 
L -3.5 0 
" style="stroke: #000000; stroke-width: 0.8"/>
      </defs>
      <g>
       <use xlink:href="#m9f31d9fd24" x="72" y="384.48" style="stroke: #000000; stroke-width: 0.8"/>
      </g>
     </g>
     <g id="text_2">
      <!-- 0 -->
      <g transform="translate(58.6375 388.279219) scale(0.1 -0.1)">
       <defs>
        <path id="DejaVuSans-30" d="M 2034 4250 
Q 1547 4250 1301 3770 
Q 1056 3291 1056 2328 
Q 1056 1369 1301 889 
Q 1547 409 2034 409 
Q 2525 409 2770 889 
Q 3016 1369 3016 2328 
Q 3016 3291 2770 3770 
Q 2525 4250 2034 4250 
z
M 2034 4750 
Q 2819 4750 3233 4129 
Q 3647 3509 3647 2328 
Q 3647 1150 3233 529 
Q 2819 -91 2034 -91 
Q 1250 -91 836 529 
Q 422 1150 422 2328 
Q 422 3509 836 4129 
Q 1250 4750 2034 4750 
z
" transform="scale(0.015625)"/>
       </defs>
       <use xlink:href="#DejaVuSans-30"/>
      </g>
     </g>
    </g>
    <g id="ytick_2">
     <g id="line2d_3">
      <g>
       <use xlink:href="#m9f31d9fd24" x="72" y="340.083126" style="stroke: #000000; stroke-width: 0.8"/>
      </g>
     </g>
     <g id="text_3">
      <!-- 5 -->
      <g transform="translate(58.6375 343.882345) scale(0.1 -0.1)">
       <defs>
        <path id="DejaVuSans-35" d="M 691 4666 
L 3169 4666 
L 3169 4134 
L 1269 4134 
L 1269 2991 
Q 1406 3038 1543 3061 
Q 1681 3084 1819 3084 
Q 2600 3084 3056 2656 
Q 3513 2228 3513 1497 
Q 3513 744 3044 326 
Q 2575 -91 1722 -91 
Q 1428 -91 1123 -41 
Q 819 9 494 109 
L 494 744 
Q 775 591 1075 516 
Q 1375 441 1709 441 
Q 2250 441 2565 725 
Q 2881 1009 2881 1497 
Q 2881 1984 2565 2268 
Q 2250 2553 1709 2553 
Q 1456 2553 1204 2497 
Q 953 2441 691 2322 
L 691 4666 
z
" transform="scale(0.015625)"/>
       </defs>
       <use xlink:href="#DejaVuSans-35"/>
      </g>
     </g>
    </g>
    <g id="ytick_3">
     <g id="line2d_4">
      <g>
       <use xlink:href="#m9f31d9fd24" x="72" y="295.686252" style="stroke: #000000; stroke-width: 0.8"/>
      </g>
     </g>
     <g id="text_4">
      <!-- 10 -->
      <g transform="translate(52.275 299.485471) scale(0.1 -0.1)">
       <use xlink:href="#DejaVuSans-31"/>
       <use xlink:href="#DejaVuSans-30" transform="translate(63.623047 0)"/>
      </g>
     </g>
    </g>
    <g id="ytick_4">
     <g id="line2d_5">
      <g>
       <use xlink:href="#m9f31d9fd24" x="72" y="251.289379" style="stroke: #000000; stroke-width: 0.8"/>
      </g>
     </g>
     <g id="text_5">
      <!-- 15 -->
      <g transform="translate(52.275 255.088597) scale(0.1 -0.1)">
       <use xlink:href="#DejaVuSans-31"/>
       <use xlink:href="#DejaVuSans-35" transform="translate(63.623047 0)"/>
      </g>
     </g>
    </g>
    <g id="ytick_5">
     <g id="line2d_6">
      <g>
       <use xlink:href="#m9f31d9fd24" x="72" y="206.892505" style="stroke: #000000; stroke-width: 0.8"/>
      </g>
     </g>
     <g id="text_6">
      <!-- 20 -->
      <g transform="translate(52.275 210.691723) scale(0.1 -0.1)">
       <defs>
        <path id="DejaVuSans-32" d="M 1228 531 
L 3431 531 
L 3431 0 
L 469 0 
L 469 531 
Q 828 903 1448 1529 
Q 2069 2156 2228 2338 
Q 2531 2678 2651 2914 
Q 2772 3150 2772 3378 
Q 2772 3750 2511 3984 
Q 2250 4219 1831 4219 
Q 1534 4219 1204 4116 
Q 875 4013 500 3803 
L 500 4441 
Q 881 4594 1212 4672 
Q 1544 4750 1819 4750 
Q 2544 4750 2975 4387 
Q 3406 4025 3406 3419 
Q 3406 3131 3298 2873 
Q 3191 2616 2906 2266 
Q 2828 2175 2409 1742 
Q 1991 1309 1228 531 
z
" transform="scale(0.015625)"/>
       </defs>
       <use xlink:href="#DejaVuSans-32"/>
       <use xlink:href="#DejaVuSans-30" transform="translate(63.623047 0)"/>
      </g>
     </g>
    </g>
    <g id="ytick_6">
     <g id="line2d_7">
      <g>
       <use xlink:href="#m9f31d9fd24" x="72" y="162.495631" style="stroke: #000000; stroke-width: 0.8"/>
      </g>
     </g>
     <g id="text_7">
      <!-- 25 -->
      <g transform="translate(52.275 166.29485) scale(0.1 -0.1)">
       <use xlink:href="#DejaVuSans-32"/>
       <use xlink:href="#DejaVuSans-35" transform="translate(63.623047 0)"/>
      </g>
     </g>
    </g>
    <g id="ytick_7">
     <g id="line2d_8">
      <g>
       <use xlink:href="#m9f31d9fd24" x="72" y="118.098757" style="stroke: #000000; stroke-width: 0.8"/>
      </g>
     </g>
     <g id="text_8">
      <!-- 30 -->
      <g transform="translate(52.275 121.897976) scale(0.1 -0.1)">
       <defs>
        <path id="DejaVuSans-33" d="M 2597 2516 
Q 3050 2419 3304 2112 
Q 3559 1806 3559 1356 
Q 3559 666 3084 287 
Q 2609 -91 1734 -91 
Q 1441 -91 1130 -33 
Q 819 25 488 141 
L 488 750 
Q 750 597 1062 519 
Q 1375 441 1716 441 
Q 2309 441 2620 675 
Q 2931 909 2931 1356 
Q 2931 1769 2642 2001 
Q 2353 2234 1838 2234 
L 1294 2234 
L 1294 2753 
L 1863 2753 
Q 2328 2753 2575 2939 
Q 2822 3125 2822 3475 
Q 2822 3834 2567 4026 
Q 2313 4219 1838 4219 
Q 1578 4219 1281 4162 
Q 984 4106 628 3988 
L 628 4550 
Q 988 4650 1302 4700 
Q 1616 4750 1894 4750 
Q 2613 4750 3031 4423 
Q 3450 4097 3450 3541 
Q 3450 3153 3228 2886 
Q 3006 2619 2597 2516 
z
" transform="scale(0.015625)"/>
       </defs>
       <use xlink:href="#DejaVuSans-33"/>
       <use xlink:href="#DejaVuSans-30" transform="translate(63.623047 0)"/>
      </g>
     </g>
    </g>
    <g id="ytick_8">
     <g id="line2d_9">
      <g>
       <use xlink:href="#m9f31d9fd24" x="72" y="73.701883" style="stroke: #000000; stroke-width: 0.8"/>
      </g>
     </g>
     <g id="text_9">
      <!-- 35 -->
      <g transform="translate(52.275 77.501102) scale(0.1 -0.1)">
       <use xlink:href="#DejaVuSans-33"/>
       <use xlink:href="#DejaVuSans-35" transform="translate(63.623047 0)"/>
      </g>
     </g>
    </g>
    <g id="text_10">
     <!-- Time (ms) -->
     <g transform="translate(46.195312 243.359219) rotate(-90) scale(0.1 -0.1)">
      <defs>
       <path id="DejaVuSans-54" d="M -19 4666 
L 3928 4666 
L 3928 4134 
L 2272 4134 
L 2272 0 
L 1638 0 
L 1638 4134 
L -19 4134 
L -19 4666 
z
" transform="scale(0.015625)"/>
       <path id="DejaVuSans-69" d="M 603 3500 
L 1178 3500 
L 1178 0 
L 603 0 
L 603 3500 
z
M 603 4863 
L 1178 4863 
L 1178 4134 
L 603 4134 
L 603 4863 
z
" transform="scale(0.015625)"/>
       <path id="DejaVuSans-6d" d="M 3328 2828 
Q 3544 3216 3844 3400 
Q 4144 3584 4550 3584 
Q 5097 3584 5394 3201 
Q 5691 2819 5691 2113 
L 5691 0 
L 5113 0 
L 5113 2094 
Q 5113 2597 4934 2840 
Q 4756 3084 4391 3084 
Q 3944 3084 3684 2787 
Q 3425 2491 3425 1978 
L 3425 0 
L 2847 0 
L 2847 2094 
Q 2847 2600 2669 2842 
Q 2491 3084 2119 3084 
Q 1678 3084 1418 2786 
Q 1159 2488 1159 1978 
L 1159 0 
L 581 0 
L 581 3500 
L 1159 3500 
L 1159 2956 
Q 1356 3278 1631 3431 
Q 1906 3584 2284 3584 
Q 2666 3584 2933 3390 
Q 3200 3197 3328 2828 
z
" transform="scale(0.015625)"/>
       <path id="DejaVuSans-65" d="M 3597 1894 
L 3597 1613 
L 953 1613 
Q 991 1019 1311 708 
Q 1631 397 2203 397 
Q 2534 397 2845 478 
Q 3156 559 3463 722 
L 3463 178 
Q 3153 47 2828 -22 
Q 2503 -91 2169 -91 
Q 1331 -91 842 396 
Q 353 884 353 1716 
Q 353 2575 817 3079 
Q 1281 3584 2069 3584 
Q 2775 3584 3186 3129 
Q 3597 2675 3597 1894 
z
M 3022 2063 
Q 3016 2534 2758 2815 
Q 2500 3097 2075 3097 
Q 1594 3097 1305 2825 
Q 1016 2553 972 2059 
L 3022 2063 
z
" transform="scale(0.015625)"/>
       <path id="DejaVuSans-20" transform="scale(0.015625)"/>
       <path id="DejaVuSans-28" d="M 1984 4856 
Q 1566 4138 1362 3434 
Q 1159 2731 1159 2009 
Q 1159 1288 1364 580 
Q 1569 -128 1984 -844 
L 1484 -844 
Q 1016 -109 783 600 
Q 550 1309 550 2009 
Q 550 2706 781 3412 
Q 1013 4119 1484 4856 
L 1984 4856 
z
" transform="scale(0.015625)"/>
       <path id="DejaVuSans-73" d="M 2834 3397 
L 2834 2853 
Q 2591 2978 2328 3040 
Q 2066 3103 1784 3103 
Q 1356 3103 1142 2972 
Q 928 2841 928 2578 
Q 928 2378 1081 2264 
Q 1234 2150 1697 2047 
L 1894 2003 
Q 2506 1872 2764 1633 
Q 3022 1394 3022 966 
Q 3022 478 2636 193 
Q 2250 -91 1575 -91 
Q 1294 -91 989 -36 
Q 684 19 347 128 
L 347 722 
Q 666 556 975 473 
Q 1284 391 1588 391 
Q 1994 391 2212 530 
Q 2431 669 2431 922 
Q 2431 1156 2273 1281 
Q 2116 1406 1581 1522 
L 1381 1569 
Q 847 1681 609 1914 
Q 372 2147 372 2553 
Q 372 3047 722 3315 
Q 1072 3584 1716 3584 
Q 2034 3584 2315 3537 
Q 2597 3491 2834 3397 
z
" transform="scale(0.015625)"/>
       <path id="DejaVuSans-29" d="M 513 4856 
L 1013 4856 
Q 1481 4119 1714 3412 
Q 1947 2706 1947 2009 
Q 1947 1309 1714 600 
Q 1481 -109 1013 -844 
L 513 -844 
Q 928 -128 1133 580 
Q 1338 1288 1338 2009 
Q 1338 2731 1133 3434 
Q 928 4138 513 4856 
z
" transform="scale(0.015625)"/>
      </defs>
      <use xlink:href="#DejaVuSans-54"/>
      <use xlink:href="#DejaVuSans-69" transform="translate(57.958984 0)"/>
      <use xlink:href="#DejaVuSans-6d" transform="translate(85.742188 0)"/>
      <use xlink:href="#DejaVuSans-65" transform="translate(183.154297 0)"/>
      <use xlink:href="#DejaVuSans-20" transform="translate(244.677734 0)"/>
      <use xlink:href="#DejaVuSans-28" transform="translate(276.464844 0)"/>
      <use xlink:href="#DejaVuSans-6d" transform="translate(315.478516 0)"/>
      <use xlink:href="#DejaVuSans-73" transform="translate(412.890625 0)"/>
      <use xlink:href="#DejaVuSans-29" transform="translate(464.990234 0)"/>
     </g>
    </g>
   </g>
   <g id="LineCollection_1">
    <path d="M 239.4 261.218712 
L 351 261.218712 
" clip-path="url(#pac5c939856)" style="fill: none; stroke: #1f77b4; stroke-width: 1.5"/>
   </g>
   <g id="LineCollection_2">
    <path d="M 239.4 63.044449 
L 351 63.044449 
" clip-path="url(#pac5c939856)" style="fill: none; stroke: #1f77b4; stroke-width: 1.5"/>
   </g>
   <g id="LineCollection_3">
    <path d="M 239.4 287.133434 
L 351 287.133434 
" clip-path="url(#pac5c939856)" style="fill: none; stroke: #1f77b4; stroke-width: 1.5"/>
   </g>
   <g id="LineCollection_4">
    <path d="M 295.2 287.133434 
L 295.2 63.044449 
" clip-path="url(#pac5c939856)" style="fill: none; stroke: #1f77b4; stroke-width: 1.5"/>
   </g>
   <g id="patch_3">
    <path d="M 250.56 279.287317 
L 339.84 279.287317 
L 339.84 254.600404 
L 250.56 254.600404 
L 250.56 279.287317 
z
" clip-path="url(#pac5c939856)" style="fill: #1f77b4; stroke: #000000; stroke-linejoin: miter"/>
   </g>
   <g id="line2d_10">
    <path d="M 295.2 279.287317 
L 295.2 287.133434 
" clip-path="url(#pac5c939856)" style="fill: none; stroke: #000000; stroke-linecap: square"/>
   </g>
   <g id="line2d_11">
    <path d="M 295.2 254.600404 
L 295.2 224.697223 
" clip-path="url(#pac5c939856)" style="fill: none; stroke: #000000; stroke-linecap: square"/>
   </g>
   <g id="line2d_12">
    <path d="M 272.88 287.133434 
L 317.52 287.133434 
" clip-path="url(#pac5c939856)" style="fill: none; stroke: #000000; stroke-linecap: square"/>
   </g>
   <g id="line2d_13">
    <path d="M 272.88 224.697223 
L 317.52 224.697223 
" clip-path="url(#pac5c939856)" style="fill: none; stroke: #000000; stroke-linecap: square"/>
   </g>
   <g id="line2d_14">
    <defs>
     <path id="ma6bd111c92" d="M 0 3 
C 0.795609 3 1.55874 2.683901 2.12132 2.12132 
C 2.683901 1.55874 3 0.795609 3 0 
C 3 -0.795609 2.683901 -1.55874 2.12132 -2.12132 
C 1.55874 -2.683901 0.795609 -3 0 -3 
C -0.795609 -3 -1.55874 -2.683901 -2.12132 -2.12132 
C -2.683901 -1.55874 -3 -0.795609 -3 0 
C -3 0.795609 -2.683901 1.55874 -2.12132 2.12132 
C -1.55874 2.683901 -0.795609 3 0 3 
z
" style="stroke: #000000"/>
    </defs>
    <g clip-path="url(#pac5c939856)">
     <use xlink:href="#ma6bd111c92" x="295.2" y="156.181836" style="fill-opacity: 0; stroke: #000000"/>
     <use xlink:href="#ma6bd111c92" x="295.2" y="162.687195" style="fill-opacity: 0; stroke: #000000"/>
     <use xlink:href="#ma6bd111c92" x="295.2" y="152.193976" style="fill-opacity: 0; stroke: #000000"/>
     <use xlink:href="#ma6bd111c92" x="295.2" y="63.044449" style="fill-opacity: 0; stroke: #000000"/>
     <use xlink:href="#ma6bd111c92" x="295.2" y="158.515185" style="fill-opacity: 0; stroke: #000000"/>
     <use xlink:href="#ma6bd111c92" x="295.2" y="164.445044" style="fill-opacity: 0; stroke: #000000"/>
     <use xlink:href="#ma6bd111c92" x="295.2" y="88.967118" style="fill-opacity: 0; stroke: #000000"/>
     <use xlink:href="#ma6bd111c92" x="295.2" y="139.790279" style="fill-opacity: 0; stroke: #000000"/>
     <use xlink:href="#ma6bd111c92" x="295.2" y="155.482656" style="fill-opacity: 0; stroke: #000000"/>
     <use xlink:href="#ma6bd111c92" x="295.2" y="204.545464" style="fill-opacity: 0; stroke: #000000"/>
     <use xlink:href="#ma6bd111c92" x="295.2" y="217.47537" style="fill-opacity: 0; stroke: #000000"/>
     <use xlink:href="#ma6bd111c92" x="295.2" y="133.883373" style="fill-opacity: 0; stroke: #000000"/>
     <use xlink:href="#ma6bd111c92" x="295.2" y="163.639037" style="fill-opacity: 0; stroke: #000000"/>
     <use xlink:href="#ma6bd111c92" x="295.2" y="141.134341" style="fill-opacity: 0; stroke: #000000"/>
     <use xlink:href="#ma6bd111c92" x="295.2" y="216.170102" style="fill-opacity: 0; stroke: #000000"/>
     <use xlink:href="#ma6bd111c92" x="295.2" y="149.807599" style="fill-opacity: 0; stroke: #000000"/>
     <use xlink:href="#ma6bd111c92" x="295.2" y="213.774295" style="fill-opacity: 0; stroke: #000000"/>
     <use xlink:href="#ma6bd111c92" x="295.2" y="161.996646" style="fill-opacity: 0; stroke: #000000"/>
     <use xlink:href="#ma6bd111c92" x="295.2" y="164.689263" style="fill-opacity: 0; stroke: #000000"/>
     <use xlink:href="#ma6bd111c92" x="295.2" y="167.651751" style="fill-opacity: 0; stroke: #000000"/>
     <use xlink:href="#ma6bd111c92" x="295.2" y="156.083284" style="fill-opacity: 0; stroke: #000000"/>
     <use xlink:href="#ma6bd111c92" x="295.2" y="153.863076" style="fill-opacity: 0; stroke: #000000"/>
     <use xlink:href="#ma6bd111c92" x="295.2" y="212.949624" style="fill-opacity: 0; stroke: #000000"/>
     <use xlink:href="#ma6bd111c92" x="295.2" y="113.730407" style="fill-opacity: 0; stroke: #000000"/>
     <use xlink:href="#ma6bd111c92" x="295.2" y="209.644747" style="fill-opacity: 0; stroke: #000000"/>
     <use xlink:href="#ma6bd111c92" x="295.2" y="138.167858" style="fill-opacity: 0; stroke: #000000"/>
     <use xlink:href="#ma6bd111c92" x="295.2" y="155.117901" style="fill-opacity: 0; stroke: #000000"/>
     <use xlink:href="#ma6bd111c92" x="295.2" y="161.025908" style="fill-opacity: 0; stroke: #000000"/>
     <use xlink:href="#ma6bd111c92" x="295.2" y="147.266535" style="fill-opacity: 0; stroke: #000000"/>
     <use xlink:href="#ma6bd111c92" x="295.2" y="71.162444" style="fill-opacity: 0; stroke: #000000"/>
     <use xlink:href="#ma6bd111c92" x="295.2" y="149.072387" style="fill-opacity: 0; stroke: #000000"/>
    </g>
   </g>
   <g id="line2d_15">
    <path d="M 250.56 272.223042 
L 339.84 272.223042 
" clip-path="url(#pac5c939856)" style="fill: none; stroke: #ff7f0e"/>
   </g>
   <g id="patch_4">
    <path d="M 72 384.48 
L 72 51.84 
" style="fill: none; stroke: #000000; stroke-width: 0.8; stroke-linejoin: miter; stroke-linecap: square"/>
   </g>
   <g id="patch_5">
    <path d="M 518.4 384.48 
L 518.4 51.84 
" style="fill: none; stroke: #000000; stroke-width: 0.8; stroke-linejoin: miter; stroke-linecap: square"/>
   </g>
   <g id="patch_6">
    <path d="M 72 384.48 
L 518.4 384.48 
" style="fill: none; stroke: #000000; stroke-width: 0.8; stroke-linejoin: miter; stroke-linecap: square"/>
   </g>
   <g id="patch_7">
    <path d="M 72 51.84 
L 518.4 51.84 
" style="fill: none; stroke: #000000; stroke-width: 0.8; stroke-linejoin: miter; stroke-linecap: square"/>
   </g>
   <g id="text_11">
    <!-- Test Method -->
    <g transform="translate(258.975 45.84) scale(0.12 -0.12)">
     <defs>
      <path id="DejaVuSans-74" d="M 1172 4494 
L 1172 3500 
L 2356 3500 
L 2356 3053 
L 1172 3053 
L 1172 1153 
Q 1172 725 1289 603 
Q 1406 481 1766 481 
L 2356 481 
L 2356 0 
L 1766 0 
Q 1100 0 847 248 
Q 594 497 594 1153 
L 594 3053 
L 172 3053 
L 172 3500 
L 594 3500 
L 594 4494 
L 1172 4494 
z
" transform="scale(0.015625)"/>
      <path id="DejaVuSans-4d" d="M 628 4666 
L 1569 4666 
L 2759 1491 
L 3956 4666 
L 4897 4666 
L 4897 0 
L 4281 0 
L 4281 4097 
L 3078 897 
L 2444 897 
L 1241 4097 
L 1241 0 
L 628 0 
L 628 4666 
z
" transform="scale(0.015625)"/>
      <path id="DejaVuSans-68" d="M 3513 2113 
L 3513 0 
L 2938 0 
L 2938 2094 
Q 2938 2591 2744 2837 
Q 2550 3084 2163 3084 
Q 1697 3084 1428 2787 
Q 1159 2491 1159 1978 
L 1159 0 
L 581 0 
L 581 4863 
L 1159 4863 
L 1159 2956 
Q 1366 3272 1645 3428 
Q 1925 3584 2291 3584 
Q 2894 3584 3203 3211 
Q 3513 2838 3513 2113 
z
" transform="scale(0.015625)"/>
      <path id="DejaVuSans-6f" d="M 1959 3097 
Q 1497 3097 1228 2736 
Q 959 2375 959 1747 
Q 959 1119 1226 758 
Q 1494 397 1959 397 
Q 2419 397 2687 759 
Q 2956 1122 2956 1747 
Q 2956 2369 2687 2733 
Q 2419 3097 1959 3097 
z
M 1959 3584 
Q 2709 3584 3137 3096 
Q 3566 2609 3566 1747 
Q 3566 888 3137 398 
Q 2709 -91 1959 -91 
Q 1206 -91 779 398 
Q 353 888 353 1747 
Q 353 2609 779 3096 
Q 1206 3584 1959 3584 
z
" transform="scale(0.015625)"/>
      <path id="DejaVuSans-64" d="M 2906 2969 
L 2906 4863 
L 3481 4863 
L 3481 0 
L 2906 0 
L 2906 525 
Q 2725 213 2448 61 
Q 2172 -91 1784 -91 
Q 1150 -91 751 415 
Q 353 922 353 1747 
Q 353 2572 751 3078 
Q 1150 3584 1784 3584 
Q 2172 3584 2448 3432 
Q 2725 3281 2906 2969 
z
M 947 1747 
Q 947 1113 1208 752 
Q 1469 391 1925 391 
Q 2381 391 2643 752 
Q 2906 1113 2906 1747 
Q 2906 2381 2643 2742 
Q 2381 3103 1925 3103 
Q 1469 3103 1208 2742 
Q 947 2381 947 1747 
z
" transform="scale(0.015625)"/>
     </defs>
     <use xlink:href="#DejaVuSans-54"/>
     <use xlink:href="#DejaVuSans-65" transform="translate(44.083984 0)"/>
     <use xlink:href="#DejaVuSans-73" transform="translate(105.607422 0)"/>
     <use xlink:href="#DejaVuSans-74" transform="translate(157.707031 0)"/>
     <use xlink:href="#DejaVuSans-20" transform="translate(196.916016 0)"/>
     <use xlink:href="#DejaVuSans-4d" transform="translate(228.703125 0)"/>
     <use xlink:href="#DejaVuSans-65" transform="translate(314.982422 0)"/>
     <use xlink:href="#DejaVuSans-74" transform="translate(376.505859 0)"/>
     <use xlink:href="#DejaVuSans-68" transform="translate(415.714844 0)"/>
     <use xlink:href="#DejaVuSans-6f" transform="translate(479.09375 0)"/>
     <use xlink:href="#DejaVuSans-64" transform="translate(540.275391 0)"/>
    </g>
   </g>
  </g>
 </g>
 <defs>
  <clipPath id="pac5c939856">
   <rect x="72" y="51.84" width="446.4" height="332.64"/>
  </clipPath>
 </defs>
</svg>
