<?xml version="1.0" encoding="utf-8" standalone="no"?>
<!DOCTYPE svg PUBLIC "-//W3C//DTD SVG 1.1//EN"
  "http://www.w3.org/Graphics/SVG/1.1/DTD/svg11.dtd">
<svg xmlns:xlink="http://www.w3.org/1999/xlink" width="576pt" height="432pt" viewBox="0 0 576 432" xmlns="http://www.w3.org/2000/svg" version="1.1">
 <metadata>
  <rdf:RDF xmlns:dc="http://purl.org/dc/elements/1.1/" xmlns:cc="http://creativecommons.org/ns#" xmlns:rdf="http://www.w3.org/1999/02/22-rdf-syntax-ns#">
   <cc:Work>
    <dc:type rdf:resource="http://purl.org/dc/dcmitype/StillImage"/>
    <dc:date>2025-09-30T20:42:57.509460</dc:date>
    <dc:format>image/svg+xml</dc:format>
    <dc:creator>
     <cc:Agent>
      <dc:title>Matplotlib v3.10.3, https://matplotlib.org/</dc:title>
     </cc:Agent>
    </dc:creator>
   </cc:Work>
  </rdf:RDF>
 </metadata>
 <defs>
  <style type="text/css">*{stroke-linejoin: round; stroke-linecap: butt}</style>
 </defs>
 <g id="figure_1">
  <g id="patch_1">
   <path d="M 0 432 
L 576 432 
L 576 0 
L 0 0 
z
" style="fill: #ffffff"/>
  </g>
  <g id="axes_1">
   <g id="patch_2">
    <path d="M 72 384.48 
L 518.4 384.48 
L 518.4 51.84 
L 72 51.84 
z
" style="fill: #ffffff"/>
   </g>
   <g id="FillBetweenPolyCollection_1">
    <path d="M 395.544356 380.436414 
L 194.855644 380.436414 
L 183.6 377.275313 
L 201.20707 374.114212 
L 221.851757 370.953112 
L 236.633796 367.792011 
L 248.890935 364.63091 
L 260.1239 361.46981 
L 269.265894 358.308709 
L 275.723348 355.147608 
L 280.401376 351.986508 
L 284.411475 348.825407 
L 287.948283 345.664306 
L 290.61041 342.503206 
L 292.32276 339.342105 
L 293.479986 336.181004 
L 294.225636 333.019904 
L 294.590694 329.858803 
L 294.820962 326.697702 
L 295.019934 323.536602 
L 295.107547 320.375501 
L 295.081686 317.2144 
L 295.036692 314.0533 
L 295.015341 310.892199 
L 294.959137 307.731098 
L 294.891061 304.569998 
L 294.902808 301.408897 
L 294.924438 298.247796 
L 294.855354 295.086696 
L 294.745873 291.925595 
L 294.66019 288.764494 
L 294.619953 285.603394 
L 294.630635 282.442293 
L 294.68713 279.281192 
L 294.812732 276.120092 
L 294.984348 272.958991 
L 295.119159 269.79789 
L 295.18086 266.63679 
L 295.197269 263.475689 
L 295.199772 260.314588 
L 295.199989 257.153488 
L 295.2 253.992387 
L 295.2 250.831287 
L 295.2 247.670186 
L 295.2 244.509085 
L 295.2 241.347985 
L 295.2 238.186884 
L 295.2 235.025783 
L 295.2 231.864683 
L 295.2 228.703582 
L 295.2 225.542481 
L 295.2 222.381381 
L 295.2 219.22028 
L 295.2 216.059179 
L 295.2 212.898079 
L 295.2 209.736978 
L 295.2 206.575877 
L 295.2 203.414777 
L 295.2 200.253676 
L 295.2 197.092575 
L 295.2 193.931475 
L 295.2 190.770374 
L 295.2 187.609273 
L 295.2 184.448173 
L 295.2 181.287072 
L 295.2 178.125971 
L 295.2 174.964871 
L 295.2 171.80377 
L 295.2 168.642669 
L 295.2 165.481569 
L 295.2 162.320468 
L 295.2 159.159367 
L 295.2 155.998267 
L 295.2 152.837166 
L 295.2 149.676065 
L 295.2 146.514965 
L 295.2 143.353864 
L 295.2 140.192763 
L 295.2 137.031663 
L 295.2 133.870562 
L 295.2 130.709461 
L 295.2 127.548361 
L 295.2 124.38726 
L 295.2 121.226159 
L 295.2 118.065059 
L 295.2 114.903958 
L 295.2 111.742857 
L 295.199999 108.581757 
L 295.199981 105.420656 
L 295.199646 102.259556 
L 295.196307 99.098455 
L 295.178321 95.937354 
L 295.128352 92.776254 
L 295.066666 89.615153 
L 295.060133 86.454052 
L 295.115389 83.292952 
L 295.156824 80.131851 
L 295.128657 76.97075 
L 295.033338 73.80965 
L 294.943811 70.648549 
L 294.952806 67.487448 
L 295.447194 67.487448 
L 295.447194 67.487448 
L 295.456189 70.648549 
L 295.366662 73.80965 
L 295.271343 76.97075 
L 295.243176 80.131851 
L 295.284611 83.292952 
L 295.339867 86.454052 
L 295.333334 89.615153 
L 295.271648 92.776254 
L 295.221679 95.937354 
L 295.203693 99.098455 
L 295.200354 102.259556 
L 295.200019 105.420656 
L 295.200001 108.581757 
L 295.2 111.742857 
L 295.2 114.903958 
L 295.2 118.065059 
L 295.2 121.226159 
L 295.2 124.38726 
L 295.2 127.548361 
L 295.2 130.709461 
L 295.2 133.870562 
L 295.2 137.031663 
L 295.2 140.192763 
L 295.2 143.353864 
L 295.2 146.514965 
L 295.2 149.676065 
L 295.2 152.837166 
L 295.2 155.998267 
L 295.2 159.159367 
L 295.2 162.320468 
L 295.2 165.481569 
L 295.2 168.642669 
L 295.2 171.80377 
L 295.2 174.964871 
L 295.2 178.125971 
L 295.2 181.287072 
L 295.2 184.448173 
L 295.2 187.609273 
L 295.2 190.770374 
L 295.2 193.931475 
L 295.2 197.092575 
L 295.2 200.253676 
L 295.2 203.414777 
L 295.2 206.575877 
L 295.2 209.736978 
L 295.2 212.898079 
L 295.2 216.059179 
L 295.2 219.22028 
L 295.2 222.381381 
L 295.2 225.542481 
L 295.2 228.703582 
L 295.2 231.864683 
L 295.2 235.025783 
L 295.2 238.186884 
L 295.2 241.347985 
L 295.2 244.509085 
L 295.2 247.670186 
L 295.2 250.831287 
L 295.2 253.992387 
L 295.200011 257.153488 
L 295.200228 260.314588 
L 295.202731 263.475689 
L 295.21914 266.63679 
L 295.280841 269.79789 
L 295.415652 272.958991 
L 295.587268 276.120092 
L 295.71287 279.281192 
L 295.769365 282.442293 
L 295.780047 285.603394 
L 295.73981 288.764494 
L 295.654127 291.925595 
L 295.544646 295.086696 
L 295.475562 298.247796 
L 295.497192 301.408897 
L 295.508939 304.569998 
L 295.440863 307.731098 
L 295.384659 310.892199 
L 295.363308 314.0533 
L 295.318314 317.2144 
L 295.292453 320.375501 
L 295.380066 323.536602 
L 295.579038 326.697702 
L 295.809306 329.858803 
L 296.174364 333.019904 
L 296.920014 336.181004 
L 298.07724 339.342105 
L 299.78959 342.503206 
L 302.451717 345.664306 
L 305.988525 348.825407 
L 309.998624 351.986508 
L 314.676652 355.147608 
L 321.134106 358.308709 
L 330.2761 361.46981 
L 341.509065 364.63091 
L 353.766204 367.792011 
L 368.548243 370.953112 
L 389.19293 374.114212 
L 406.8 377.275313 
L 395.544356 380.436414 
z
" clip-path="url(#pdbf83d8ccc)" style="fill: #1f77b4; fill-opacity: 0.3"/>
   </g>
   <g id="matplotlib.axis_1">
    <g id="xtick_1">
     <g id="line2d_1">
      <defs>
       <path id="ma815822795" d="M 0 0 
L 0 3.5 
" style="stroke: #000000; stroke-width: 0.8"/>
      </defs>
      <g>
       <use xlink:href="#ma815822795" x="295.2" y="384.48" style="stroke: #000000; stroke-width: 0.8"/>
      </g>
     </g>
     <g id="text_1">
      <!-- 1 -->
      <g transform="translate(292.01875 399.078438) scale(0.1 -0.1)">
       <defs>
        <path id="DejaVuSans-31" d="M 794 531 
L 1825 531 
L 1825 4091 
L 703 3866 
L 703 4441 
L 1819 4666 
L 2450 4666 
L 2450 531 
L 3481 531 
L 3481 0 
L 794 0 
L 794 531 
z
" transform="scale(0.015625)"/>
       </defs>
       <use xlink:href="#DejaVuSans-31"/>
      </g>
     </g>
    </g>
   </g>
   <g id="matplotlib.axis_2">
    <g id="ytick_1">
     <g id="line2d_2">
      <defs>
       <path id="m77a03601e6" d="M 0 0 
L -3.5 0 
" style="stroke: #000000; stroke-width: 0.8"/>
      </defs>
      <g>
       <use xlink:href="#m77a03601e6" x="72" y="384.48" style="stroke: #000000; stroke-width: 0.8"/>
      </g>
     </g>
     <g id="text_2">
      <!-- 0 -->
      <g transform="translate(58.6375 388.279219) scale(0.1 -0.1)">
       <defs>
        <path id="DejaVuSans-30" d="M 2034 4250 
Q 1547 4250 1301 3770 
Q 1056 3291 1056 2328 
Q 1056 1369 1301 889 
Q 1547 409 2034 409 
Q 2525 409 2770 889 
Q 3016 1369 3016 2328 
Q 3016 3291 2770 3770 
Q 2525 4250 2034 4250 
z
M 2034 4750 
Q 2819 4750 3233 4129 
Q 3647 3509 3647 2328 
Q 3647 1150 3233 529 
Q 2819 -91 2034 -91 
Q 1250 -91 836 529 
Q 422 1150 422 2328 
Q 422 3509 836 4129 
Q 1250 4750 2034 4750 
z
" transform="scale(0.015625)"/>
       </defs>
       <use xlink:href="#DejaVuSans-30"/>
      </g>
     </g>
    </g>
    <g id="ytick_2">
     <g id="line2d_3">
      <g>
       <use xlink:href="#m77a03601e6" x="72" y="330.873572" style="stroke: #000000; stroke-width: 0.8"/>
      </g>
     </g>
     <g id="text_3">
      <!-- 1 -->
      <g transform="translate(58.6375 334.672791) scale(0.1 -0.1)">
       <use xlink:href="#DejaVuSans-31"/>
      </g>
     </g>
    </g>
    <g id="ytick_3">
     <g id="line2d_4">
      <g>
       <use xlink:href="#m77a03601e6" x="72" y="277.267144" style="stroke: #000000; stroke-width: 0.8"/>
      </g>
     </g>
     <g id="text_4">
      <!-- 2 -->
      <g transform="translate(58.6375 281.066363) scale(0.1 -0.1)">
       <defs>
        <path id="DejaVuSans-32" d="M 1228 531 
L 3431 531 
L 3431 0 
L 469 0 
L 469 531 
Q 828 903 1448 1529 
Q 2069 2156 2228 2338 
Q 2531 2678 2651 2914 
Q 2772 3150 2772 3378 
Q 2772 3750 2511 3984 
Q 2250 4219 1831 4219 
Q 1534 4219 1204 4116 
Q 875 4013 500 3803 
L 500 4441 
Q 881 4594 1212 4672 
Q 1544 4750 1819 4750 
Q 2544 4750 2975 4387 
Q 3406 4025 3406 3419 
Q 3406 3131 3298 2873 
Q 3191 2616 2906 2266 
Q 2828 2175 2409 1742 
Q 1991 1309 1228 531 
z
" transform="scale(0.015625)"/>
       </defs>
       <use xlink:href="#DejaVuSans-32"/>
      </g>
     </g>
    </g>
    <g id="ytick_4">
     <g id="line2d_5">
      <g>
       <use xlink:href="#m77a03601e6" x="72" y="223.660716" style="stroke: #000000; stroke-width: 0.8"/>
      </g>
     </g>
     <g id="text_5">
      <!-- 3 -->
      <g transform="translate(58.6375 227.459935) scale(0.1 -0.1)">
       <defs>
        <path id="DejaVuSans-33" d="M 2597 2516 
Q 3050 2419 3304 2112 
Q 3559 1806 3559 1356 
Q 3559 666 3084 287 
Q 2609 -91 1734 -91 
Q 1441 -91 1130 -33 
Q 819 25 488 141 
L 488 750 
Q 750 597 1062 519 
Q 1375 441 1716 441 
Q 2309 441 2620 675 
Q 2931 909 2931 1356 
Q 2931 1769 2642 2001 
Q 2353 2234 1838 2234 
L 1294 2234 
L 1294 2753 
L 1863 2753 
Q 2328 2753 2575 2939 
Q 2822 3125 2822 3475 
Q 2822 3834 2567 4026 
Q 2313 4219 1838 4219 
Q 1578 4219 1281 4162 
Q 984 4106 628 3988 
L 628 4550 
Q 988 4650 1302 4700 
Q 1616 4750 1894 4750 
Q 2613 4750 3031 4423 
Q 3450 4097 3450 3541 
Q 3450 3153 3228 2886 
Q 3006 2619 2597 2516 
z
" transform="scale(0.015625)"/>
       </defs>
       <use xlink:href="#DejaVuSans-33"/>
      </g>
     </g>
    </g>
    <g id="ytick_5">
     <g id="line2d_6">
      <g>
       <use xlink:href="#m77a03601e6" x="72" y="170.054289" style="stroke: #000000; stroke-width: 0.8"/>
      </g>
     </g>
     <g id="text_6">
      <!-- 4 -->
      <g transform="translate(58.6375 173.853507) scale(0.1 -0.1)">
       <defs>
        <path id="DejaVuSans-34" d="M 2419 4116 
L 825 1625 
L 2419 1625 
L 2419 4116 
z
M 2253 4666 
L 3047 4666 
L 3047 1625 
L 3713 1625 
L 3713 1100 
L 3047 1100 
L 3047 0 
L 2419 0 
L 2419 1100 
L 313 1100 
L 313 1709 
L 2253 4666 
z
" transform="scale(0.015625)"/>
       </defs>
       <use xlink:href="#DejaVuSans-34"/>
      </g>
     </g>
    </g>
    <g id="ytick_6">
     <g id="line2d_7">
      <g>
       <use xlink:href="#m77a03601e6" x="72" y="116.447861" style="stroke: #000000; stroke-width: 0.8"/>
      </g>
     </g>
     <g id="text_7">
      <!-- 5 -->
      <g transform="translate(58.6375 120.247079) scale(0.1 -0.1)">
       <defs>
        <path id="DejaVuSans-35" d="M 691 4666 
L 3169 4666 
L 3169 4134 
L 1269 4134 
L 1269 2991 
Q 1406 3038 1543 3061 
Q 1681 3084 1819 3084 
Q 2600 3084 3056 2656 
Q 3513 2228 3513 1497 
Q 3513 744 3044 326 
Q 2575 -91 1722 -91 
Q 1428 -91 1123 -41 
Q 819 9 494 109 
L 494 744 
Q 775 591 1075 516 
Q 1375 441 1709 441 
Q 2250 441 2565 725 
Q 2881 1009 2881 1497 
Q 2881 1984 2565 2268 
Q 2250 2553 1709 2553 
Q 1456 2553 1204 2497 
Q 953 2441 691 2322 
L 691 4666 
z
" transform="scale(0.015625)"/>
       </defs>
       <use xlink:href="#DejaVuSans-35"/>
      </g>
     </g>
    </g>
    <g id="ytick_7">
     <g id="line2d_8">
      <g>
       <use xlink:href="#m77a03601e6" x="72" y="62.841433" style="stroke: #000000; stroke-width: 0.8"/>
      </g>
     </g>
     <g id="text_8">
      <!-- 6 -->
      <g transform="translate(58.6375 66.640652) scale(0.1 -0.1)">
       <defs>
        <path id="DejaVuSans-36" d="M 2113 2584 
Q 1688 2584 1439 2293 
Q 1191 2003 1191 1497 
Q 1191 994 1439 701 
Q 1688 409 2113 409 
Q 2538 409 2786 701 
Q 3034 994 3034 1497 
Q 3034 2003 2786 2293 
Q 2538 2584 2113 2584 
z
M 3366 4563 
L 3366 3988 
Q 3128 4100 2886 4159 
Q 2644 4219 2406 4219 
Q 1781 4219 1451 3797 
Q 1122 3375 1075 2522 
Q 1259 2794 1537 2939 
Q 1816 3084 2150 3084 
Q 2853 3084 3261 2657 
Q 3669 2231 3669 1497 
Q 3669 778 3244 343 
Q 2819 -91 2113 -91 
Q 1303 -91 875 529 
Q 447 1150 447 2328 
Q 447 3434 972 4092 
Q 1497 4750 2381 4750 
Q 2619 4750 2861 4703 
Q 3103 4656 3366 4563 
z
" transform="scale(0.015625)"/>
       </defs>
       <use xlink:href="#DejaVuSans-36"/>
      </g>
     </g>
    </g>
    <g id="text_9">
     <!-- Time (ms) -->
     <g transform="translate(52.557812 243.359219) rotate(-90) scale(0.1 -0.1)">
      <defs>
       <path id="DejaVuSans-54" d="M -19 4666 
L 3928 4666 
L 3928 4134 
L 2272 4134 
L 2272 0 
L 1638 0 
L 1638 4134 
L -19 4134 
L -19 4666 
z
" transform="scale(0.015625)"/>
       <path id="DejaVuSans-69" d="M 603 3500 
L 1178 3500 
L 1178 0 
L 603 0 
L 603 3500 
z
M 603 4863 
L 1178 4863 
L 1178 4134 
L 603 4134 
L 603 4863 
z
" transform="scale(0.015625)"/>
       <path id="DejaVuSans-6d" d="M 3328 2828 
Q 3544 3216 3844 3400 
Q 4144 3584 4550 3584 
Q 5097 3584 5394 3201 
Q 5691 2819 5691 2113 
L 5691 0 
L 5113 0 
L 5113 2094 
Q 5113 2597 4934 2840 
Q 4756 3084 4391 3084 
Q 3944 3084 3684 2787 
Q 3425 2491 3425 1978 
L 3425 0 
L 2847 0 
L 2847 2094 
Q 2847 2600 2669 2842 
Q 2491 3084 2119 3084 
Q 1678 3084 1418 2786 
Q 1159 2488 1159 1978 
L 1159 0 
L 581 0 
L 581 3500 
L 1159 3500 
L 1159 2956 
Q 1356 3278 1631 3431 
Q 1906 3584 2284 3584 
Q 2666 3584 2933 3390 
Q 3200 3197 3328 2828 
z
" transform="scale(0.015625)"/>
       <path id="DejaVuSans-65" d="M 3597 1894 
L 3597 1613 
L 953 1613 
Q 991 1019 1311 708 
Q 1631 397 2203 397 
Q 2534 397 2845 478 
Q 3156 559 3463 722 
L 3463 178 
Q 3153 47 2828 -22 
Q 2503 -91 2169 -91 
Q 1331 -91 842 396 
Q 353 884 353 1716 
Q 353 2575 817 3079 
Q 1281 3584 2069 3584 
Q 2775 3584 3186 3129 
Q 3597 2675 3597 1894 
z
M 3022 2063 
Q 3016 2534 2758 2815 
Q 2500 3097 2075 3097 
Q 1594 3097 1305 2825 
Q 1016 2553 972 2059 
L 3022 2063 
z
" transform="scale(0.015625)"/>
       <path id="DejaVuSans-20" transform="scale(0.015625)"/>
       <path id="DejaVuSans-28" d="M 1984 4856 
Q 1566 4138 1362 3434 
Q 1159 2731 1159 2009 
Q 1159 1288 1364 580 
Q 1569 -128 1984 -844 
L 1484 -844 
Q 1016 -109 783 600 
Q 550 1309 550 2009 
Q 550 2706 781 3412 
Q 1013 4119 1484 4856 
L 1984 4856 
z
" transform="scale(0.015625)"/>
       <path id="DejaVuSans-73" d="M 2834 3397 
L 2834 2853 
Q 2591 2978 2328 3040 
Q 2066 3103 1784 3103 
Q 1356 3103 1142 2972 
Q 928 2841 928 2578 
Q 928 2378 1081 2264 
Q 1234 2150 1697 2047 
L 1894 2003 
Q 2506 1872 2764 1633 
Q 3022 1394 3022 966 
Q 3022 478 2636 193 
Q 2250 -91 1575 -91 
Q 1294 -91 989 -36 
Q 684 19 347 128 
L 347 722 
Q 666 556 975 473 
Q 1284 391 1588 391 
Q 1994 391 2212 530 
Q 2431 669 2431 922 
Q 2431 1156 2273 1281 
Q 2116 1406 1581 1522 
L 1381 1569 
Q 847 1681 609 1914 
Q 372 2147 372 2553 
Q 372 3047 722 3315 
Q 1072 3584 1716 3584 
Q 2034 3584 2315 3537 
Q 2597 3491 2834 3397 
z
" transform="scale(0.015625)"/>
       <path id="DejaVuSans-29" d="M 513 4856 
L 1013 4856 
Q 1481 4119 1714 3412 
Q 1947 2706 1947 2009 
Q 1947 1309 1714 600 
Q 1481 -109 1013 -844 
L 513 -844 
Q 928 -128 1133 580 
Q 1338 1288 1338 2009 
Q 1338 2731 1133 3434 
Q 928 4138 513 4856 
z
" transform="scale(0.015625)"/>
      </defs>
      <use xlink:href="#DejaVuSans-54"/>
      <use xlink:href="#DejaVuSans-69" transform="translate(57.958984 0)"/>
      <use xlink:href="#DejaVuSans-6d" transform="translate(85.742188 0)"/>
      <use xlink:href="#DejaVuSans-65" transform="translate(183.154297 0)"/>
      <use xlink:href="#DejaVuSans-20" transform="translate(244.677734 0)"/>
      <use xlink:href="#DejaVuSans-28" transform="translate(276.464844 0)"/>
      <use xlink:href="#DejaVuSans-6d" transform="translate(315.478516 0)"/>
      <use xlink:href="#DejaVuSans-73" transform="translate(412.890625 0)"/>
      <use xlink:href="#DejaVuSans-29" transform="translate(464.990234 0)"/>
     </g>
    </g>
   </g>
   <g id="LineCollection_1">
    <path d="M 239.4 370.575027 
L 351 370.575027 
" clip-path="url(#pdbf83d8ccc)" style="fill: none; stroke: #1f77b4; stroke-width: 1.5"/>
   </g>
   <g id="LineCollection_2">
    <path d="M 239.4 67.487448 
L 351 67.487448 
" clip-path="url(#pdbf83d8ccc)" style="fill: none; stroke: #1f77b4; stroke-width: 1.5"/>
   </g>
   <g id="LineCollection_3">
    <path d="M 239.4 380.436414 
L 351 380.436414 
" clip-path="url(#pdbf83d8ccc)" style="fill: none; stroke: #1f77b4; stroke-width: 1.5"/>
   </g>
   <g id="LineCollection_4">
    <path d="M 295.2 380.436414 
L 295.2 67.487448 
" clip-path="url(#pdbf83d8ccc)" style="fill: none; stroke: #1f77b4; stroke-width: 1.5"/>
   </g>
   <g id="patch_3">
    <path d="M 250.56 379.589124 
L 339.84 379.589124 
L 339.84 366.536763 
L 250.56 366.536763 
L 250.56 379.589124 
z
" clip-path="url(#pdbf83d8ccc)" style="fill: #1f77b4; stroke: #000000; stroke-linejoin: miter"/>
   </g>
   <g id="line2d_9">
    <path d="M 295.2 379.589124 
L 295.2 380.436414 
" clip-path="url(#pdbf83d8ccc)" style="fill: none; stroke: #000000; stroke-linecap: square"/>
   </g>
   <g id="line2d_10">
    <path d="M 295.2 366.536763 
L 295.2 347.006319 
" clip-path="url(#pdbf83d8ccc)" style="fill: none; stroke: #000000; stroke-linecap: square"/>
   </g>
   <g id="line2d_11">
    <path d="M 272.88 380.436414 
L 317.52 380.436414 
" clip-path="url(#pdbf83d8ccc)" style="fill: none; stroke: #000000; stroke-linecap: square"/>
   </g>
   <g id="line2d_12">
    <path d="M 272.88 347.006319 
L 317.52 347.006319 
" clip-path="url(#pdbf83d8ccc)" style="fill: none; stroke: #000000; stroke-linecap: square"/>
   </g>
   <g id="line2d_13">
    <defs>
     <path id="m61daad8dba" d="M 0 3 
C 0.795609 3 1.55874 2.683901 2.12132 2.12132 
C 2.683901 1.55874 3 0.795609 3 0 
C 3 -0.795609 2.683901 -1.55874 2.12132 -2.12132 
C 1.55874 -2.683901 0.795609 -3 0 -3 
C -0.795609 -3 -1.55874 -2.683901 -2.12132 -2.12132 
C -2.683901 -1.55874 -3 -0.795609 -3 0 
C -3 0.795609 -2.683901 1.55874 -2.12132 2.12132 
C -1.55874 2.683901 -0.795609 3 0 3 
z
" style="stroke: #000000"/>
    </defs>
    <g clip-path="url(#pdbf83d8ccc)">
     <use xlink:href="#m61daad8dba" x="295.2" y="285.768963" style="fill-opacity: 0; stroke: #000000"/>
     <use xlink:href="#m61daad8dba" x="295.2" y="338.004406" style="fill-opacity: 0; stroke: #000000"/>
     <use xlink:href="#m61daad8dba" x="295.2" y="341.140007" style="fill-opacity: 0; stroke: #000000"/>
     <use xlink:href="#m61daad8dba" x="295.2" y="288.168923" style="fill-opacity: 0; stroke: #000000"/>
     <use xlink:href="#m61daad8dba" x="295.2" y="339.254079" style="fill-opacity: 0; stroke: #000000"/>
     <use xlink:href="#m61daad8dba" x="295.2" y="342.857611" style="fill-opacity: 0; stroke: #000000"/>
     <use xlink:href="#m61daad8dba" x="295.2" y="341.920517" style="fill-opacity: 0; stroke: #000000"/>
     <use xlink:href="#m61daad8dba" x="295.2" y="345.470442" style="fill-opacity: 0; stroke: #000000"/>
     <use xlink:href="#m61daad8dba" x="295.2" y="304.429628" style="fill-opacity: 0; stroke: #000000"/>
     <use xlink:href="#m61daad8dba" x="295.2" y="341.123872" style="fill-opacity: 0; stroke: #000000"/>
     <use xlink:href="#m61daad8dba" x="295.2" y="345.44975" style="fill-opacity: 0; stroke: #000000"/>
     <use xlink:href="#m61daad8dba" x="295.2" y="71.132096" style="fill-opacity: 0; stroke: #000000"/>
     <use xlink:href="#m61daad8dba" x="295.2" y="346.682429" style="fill-opacity: 0; stroke: #000000"/>
     <use xlink:href="#m61daad8dba" x="295.2" y="294.574355" style="fill-opacity: 0; stroke: #000000"/>
     <use xlink:href="#m61daad8dba" x="295.2" y="328.013669" style="fill-opacity: 0; stroke: #000000"/>
     <use xlink:href="#m61daad8dba" x="295.2" y="345.923523" style="fill-opacity: 0; stroke: #000000"/>
     <use xlink:href="#m61daad8dba" x="295.2" y="342.896636" style="fill-opacity: 0; stroke: #000000"/>
     <use xlink:href="#m61daad8dba" x="295.2" y="275.360471" style="fill-opacity: 0; stroke: #000000"/>
     <use xlink:href="#m61daad8dba" x="295.2" y="344.794465" style="fill-opacity: 0; stroke: #000000"/>
     <use xlink:href="#m61daad8dba" x="295.2" y="346.38872" style="fill-opacity: 0; stroke: #000000"/>
     <use xlink:href="#m61daad8dba" x="295.2" y="313.976022" style="fill-opacity: 0; stroke: #000000"/>
     <use xlink:href="#m61daad8dba" x="295.2" y="329.530785" style="fill-opacity: 0; stroke: #000000"/>
     <use xlink:href="#m61daad8dba" x="295.2" y="291.939545" style="fill-opacity: 0; stroke: #000000"/>
     <use xlink:href="#m61daad8dba" x="295.2" y="340.643022" style="fill-opacity: 0; stroke: #000000"/>
     <use xlink:href="#m61daad8dba" x="295.2" y="344.930571" style="fill-opacity: 0; stroke: #000000"/>
     <use xlink:href="#m61daad8dba" x="295.2" y="341.807514" style="fill-opacity: 0; stroke: #000000"/>
     <use xlink:href="#m61daad8dba" x="295.2" y="279.898255" style="fill-opacity: 0; stroke: #000000"/>
     <use xlink:href="#m61daad8dba" x="295.2" y="330.878397" style="fill-opacity: 0; stroke: #000000"/>
     <use xlink:href="#m61daad8dba" x="295.2" y="346.864691" style="fill-opacity: 0; stroke: #000000"/>
     <use xlink:href="#m61daad8dba" x="295.2" y="337.412645" style="fill-opacity: 0; stroke: #000000"/>
     <use xlink:href="#m61daad8dba" x="295.2" y="346.881363" style="fill-opacity: 0; stroke: #000000"/>
     <use xlink:href="#m61daad8dba" x="295.2" y="345.696017" style="fill-opacity: 0; stroke: #000000"/>
     <use xlink:href="#m61daad8dba" x="295.2" y="279.093033" style="fill-opacity: 0; stroke: #000000"/>
     <use xlink:href="#m61daad8dba" x="295.2" y="345.732523" style="fill-opacity: 0; stroke: #000000"/>
     <use xlink:href="#m61daad8dba" x="295.2" y="338.555534" style="fill-opacity: 0; stroke: #000000"/>
     <use xlink:href="#m61daad8dba" x="295.2" y="338.916413" style="fill-opacity: 0; stroke: #000000"/>
     <use xlink:href="#m61daad8dba" x="295.2" y="303.3419" style="fill-opacity: 0; stroke: #000000"/>
     <use xlink:href="#m61daad8dba" x="295.2" y="345.362049" style="fill-opacity: 0; stroke: #000000"/>
     <use xlink:href="#m61daad8dba" x="295.2" y="87.778017" style="fill-opacity: 0; stroke: #000000"/>
     <use xlink:href="#m61daad8dba" x="295.2" y="284.571181" style="fill-opacity: 0; stroke: #000000"/>
     <use xlink:href="#m61daad8dba" x="295.2" y="336.322022" style="fill-opacity: 0; stroke: #000000"/>
     <use xlink:href="#m61daad8dba" x="295.2" y="340.965465" style="fill-opacity: 0; stroke: #000000"/>
     <use xlink:href="#m61daad8dba" x="295.2" y="337.737178" style="fill-opacity: 0; stroke: #000000"/>
     <use xlink:href="#m61daad8dba" x="295.2" y="67.487448" style="fill-opacity: 0; stroke: #000000"/>
    </g>
   </g>
   <g id="line2d_14">
    <path d="M 250.56 374.524027 
L 339.84 374.524027 
" clip-path="url(#pdbf83d8ccc)" style="fill: none; stroke: #ff7f0e"/>
   </g>
   <g id="patch_4">
    <path d="M 72 384.48 
L 72 51.84 
" style="fill: none; stroke: #000000; stroke-width: 0.8; stroke-linejoin: miter; stroke-linecap: square"/>
   </g>
   <g id="patch_5">
    <path d="M 518.4 384.48 
L 518.4 51.84 
" style="fill: none; stroke: #000000; stroke-width: 0.8; stroke-linejoin: miter; stroke-linecap: square"/>
   </g>
   <g id="patch_6">
    <path d="M 72 384.48 
L 518.4 384.48 
" style="fill: none; stroke: #000000; stroke-width: 0.8; stroke-linejoin: miter; stroke-linecap: square"/>
   </g>
   <g id="patch_7">
    <path d="M 72 51.84 
L 518.4 51.84 
" style="fill: none; stroke: #000000; stroke-width: 0.8; stroke-linejoin: miter; stroke-linecap: square"/>
   </g>
   <g id="text_10">
    <!-- getExpectedPoints -->
    <g transform="translate(239.3325 45.84) scale(0.12 -0.12)">
     <defs>
      <path id="DejaVuSans-67" d="M 2906 1791 
Q 2906 2416 2648 2759 
Q 2391 3103 1925 3103 
Q 1463 3103 1205 2759 
Q 947 2416 947 1791 
Q 947 1169 1205 825 
Q 1463 481 1925 481 
Q 2391 481 2648 825 
Q 2906 1169 2906 1791 
z
M 3481 434 
Q 3481 -459 3084 -895 
Q 2688 -1331 1869 -1331 
Q 1566 -1331 1297 -1286 
Q 1028 -1241 775 -1147 
L 775 -588 
Q 1028 -725 1275 -790 
Q 1522 -856 1778 -856 
Q 2344 -856 2625 -561 
Q 2906 -266 2906 331 
L 2906 616 
Q 2728 306 2450 153 
Q 2172 0 1784 0 
Q 1141 0 747 490 
Q 353 981 353 1791 
Q 353 2603 747 3093 
Q 1141 3584 1784 3584 
Q 2172 3584 2450 3431 
Q 2728 3278 2906 2969 
L 2906 3500 
L 3481 3500 
L 3481 434 
z
" transform="scale(0.015625)"/>
      <path id="DejaVuSans-74" d="M 1172 4494 
L 1172 3500 
L 2356 3500 
L 2356 3053 
L 1172 3053 
L 1172 1153 
Q 1172 725 1289 603 
Q 1406 481 1766 481 
L 2356 481 
L 2356 0 
L 1766 0 
Q 1100 0 847 248 
Q 594 497 594 1153 
L 594 3053 
L 172 3053 
L 172 3500 
L 594 3500 
L 594 4494 
L 1172 4494 
z
" transform="scale(0.015625)"/>
      <path id="DejaVuSans-45" d="M 628 4666 
L 3578 4666 
L 3578 4134 
L 1259 4134 
L 1259 2753 
L 3481 2753 
L 3481 2222 
L 1259 2222 
L 1259 531 
L 3634 531 
L 3634 0 
L 628 0 
L 628 4666 
z
" transform="scale(0.015625)"/>
      <path id="DejaVuSans-78" d="M 3513 3500 
L 2247 1797 
L 3578 0 
L 2900 0 
L 1881 1375 
L 863 0 
L 184 0 
L 1544 1831 
L 300 3500 
L 978 3500 
L 1906 2253 
L 2834 3500 
L 3513 3500 
z
" transform="scale(0.015625)"/>
      <path id="DejaVuSans-70" d="M 1159 525 
L 1159 -1331 
L 581 -1331 
L 581 3500 
L 1159 3500 
L 1159 2969 
Q 1341 3281 1617 3432 
Q 1894 3584 2278 3584 
Q 2916 3584 3314 3078 
Q 3713 2572 3713 1747 
Q 3713 922 3314 415 
Q 2916 -91 2278 -91 
Q 1894 -91 1617 61 
Q 1341 213 1159 525 
z
M 3116 1747 
Q 3116 2381 2855 2742 
Q 2594 3103 2138 3103 
Q 1681 3103 1420 2742 
Q 1159 2381 1159 1747 
Q 1159 1113 1420 752 
Q 1681 391 2138 391 
Q 2594 391 2855 752 
Q 3116 1113 3116 1747 
z
" transform="scale(0.015625)"/>
      <path id="DejaVuSans-63" d="M 3122 3366 
L 3122 2828 
Q 2878 2963 2633 3030 
Q 2388 3097 2138 3097 
Q 1578 3097 1268 2742 
Q 959 2388 959 1747 
Q 959 1106 1268 751 
Q 1578 397 2138 397 
Q 2388 397 2633 464 
Q 2878 531 3122 666 
L 3122 134 
Q 2881 22 2623 -34 
Q 2366 -91 2075 -91 
Q 1284 -91 818 406 
Q 353 903 353 1747 
Q 353 2603 823 3093 
Q 1294 3584 2113 3584 
Q 2378 3584 2631 3529 
Q 2884 3475 3122 3366 
z
" transform="scale(0.015625)"/>
      <path id="DejaVuSans-64" d="M 2906 2969 
L 2906 4863 
L 3481 4863 
L 3481 0 
L 2906 0 
L 2906 525 
Q 2725 213 2448 61 
Q 2172 -91 1784 -91 
Q 1150 -91 751 415 
Q 353 922 353 1747 
Q 353 2572 751 3078 
Q 1150 3584 1784 3584 
Q 2172 3584 2448 3432 
Q 2725 3281 2906 2969 
z
M 947 1747 
Q 947 1113 1208 752 
Q 1469 391 1925 391 
Q 2381 391 2643 752 
Q 2906 1113 2906 1747 
Q 2906 2381 2643 2742 
Q 2381 3103 1925 3103 
Q 1469 3103 1208 2742 
Q 947 2381 947 1747 
z
" transform="scale(0.015625)"/>
      <path id="DejaVuSans-50" d="M 1259 4147 
L 1259 2394 
L 2053 2394 
Q 2494 2394 2734 2622 
Q 2975 2850 2975 3272 
Q 2975 3691 2734 3919 
Q 2494 4147 2053 4147 
L 1259 4147 
z
M 628 4666 
L 2053 4666 
Q 2838 4666 3239 4311 
Q 3641 3956 3641 3272 
Q 3641 2581 3239 2228 
Q 2838 1875 2053 1875 
L 1259 1875 
L 1259 0 
L 628 0 
L 628 4666 
z
" transform="scale(0.015625)"/>
      <path id="DejaVuSans-6f" d="M 1959 3097 
Q 1497 3097 1228 2736 
Q 959 2375 959 1747 
Q 959 1119 1226 758 
Q 1494 397 1959 397 
Q 2419 397 2687 759 
Q 2956 1122 2956 1747 
Q 2956 2369 2687 2733 
Q 2419 3097 1959 3097 
z
M 1959 3584 
Q 2709 3584 3137 3096 
Q 3566 2609 3566 1747 
Q 3566 888 3137 398 
Q 2709 -91 1959 -91 
Q 1206 -91 779 398 
Q 353 888 353 1747 
Q 353 2609 779 3096 
Q 1206 3584 1959 3584 
z
" transform="scale(0.015625)"/>
      <path id="DejaVuSans-6e" d="M 3513 2113 
L 3513 0 
L 2938 0 
L 2938 2094 
Q 2938 2591 2744 2837 
Q 2550 3084 2163 3084 
Q 1697 3084 1428 2787 
Q 1159 2491 1159 1978 
L 1159 0 
L 581 0 
L 581 3500 
L 1159 3500 
L 1159 2956 
Q 1366 3272 1645 3428 
Q 1925 3584 2291 3584 
Q 2894 3584 3203 3211 
Q 3513 2838 3513 2113 
z
" transform="scale(0.015625)"/>
     </defs>
     <use xlink:href="#DejaVuSans-67"/>
     <use xlink:href="#DejaVuSans-65" transform="translate(63.476562 0)"/>
     <use xlink:href="#DejaVuSans-74" transform="translate(125 0)"/>
     <use xlink:href="#DejaVuSans-45" transform="translate(164.208984 0)"/>
     <use xlink:href="#DejaVuSans-78" transform="translate(227.392578 0)"/>
     <use xlink:href="#DejaVuSans-70" transform="translate(286.572266 0)"/>
     <use xlink:href="#DejaVuSans-65" transform="translate(350.048828 0)"/>
     <use xlink:href="#DejaVuSans-63" transform="translate(411.572266 0)"/>
     <use xlink:href="#DejaVuSans-74" transform="translate(466.552734 0)"/>
     <use xlink:href="#DejaVuSans-65" transform="translate(505.761719 0)"/>
     <use xlink:href="#DejaVuSans-64" transform="translate(567.285156 0)"/>
     <use xlink:href="#DejaVuSans-50" transform="translate(630.761719 0)"/>
     <use xlink:href="#DejaVuSans-6f" transform="translate(687.439453 0)"/>
     <use xlink:href="#DejaVuSans-69" transform="translate(748.621094 0)"/>
     <use xlink:href="#DejaVuSans-6e" transform="translate(776.404297 0)"/>
     <use xlink:href="#DejaVuSans-74" transform="translate(839.783203 0)"/>
     <use xlink:href="#DejaVuSans-73" transform="translate(878.992188 0)"/>
    </g>
   </g>
  </g>
 </g>
 <defs>
  <clipPath id="pdbf83d8ccc">
   <rect x="72" y="51.84" width="446.4" height="332.64"/>
  </clipPath>
 </defs>
</svg>
