<?xml version="1.0" encoding="utf-8" standalone="no"?>
<!DOCTYPE svg PUBLIC "-//W3C//DTD SVG 1.1//EN"
  "http://www.w3.org/Graphics/SVG/1.1/DTD/svg11.dtd">
<svg xmlns:xlink="http://www.w3.org/1999/xlink" width="576pt" height="432pt" viewBox="0 0 576 432" xmlns="http://www.w3.org/2000/svg" version="1.1">
 <metadata>
  <rdf:RDF xmlns:dc="http://purl.org/dc/elements/1.1/" xmlns:cc="http://creativecommons.org/ns#" xmlns:rdf="http://www.w3.org/1999/02/22-rdf-syntax-ns#">
   <cc:Work>
    <dc:type rdf:resource="http://purl.org/dc/dcmitype/StillImage"/>
    <dc:date>2025-09-30T20:42:57.319091</dc:date>
    <dc:format>image/svg+xml</dc:format>
    <dc:creator>
     <cc:Agent>
      <dc:title>Matplotlib v3.10.3, https://matplotlib.org/</dc:title>
     </cc:Agent>
    </dc:creator>
   </cc:Work>
  </rdf:RDF>
 </metadata>
 <defs>
  <style type="text/css">*{stroke-linejoin: round; stroke-linecap: butt}</style>
 </defs>
 <g id="figure_1">
  <g id="patch_1">
   <path d="M 0 432 
L 576 432 
L 576 0 
L 0 0 
z
" style="fill: #ffffff"/>
  </g>
  <g id="axes_1">
   <g id="patch_2">
    <path d="M 72 384.48 
L 518.4 384.48 
L 518.4 51.84 
L 72 51.84 
z
" style="fill: #ffffff"/>
   </g>
   <g id="FillBetweenPolyCollection_1">
    <path d="M 378.980653 369.467068 
L 211.419347 369.467068 
L 199.451966 366.411493 
L 190.243921 363.355918 
L 184.773283 360.300342 
L 183.6 357.244767 
L 186.768892 354.189191 
L 193.817182 351.133616 
L 203.880472 348.07804 
L 215.86454 345.022465 
L 228.636326 341.966889 
L 241.189383 338.911314 
L 252.753774 335.855738 
L 262.840595 332.800163 
L 271.229285 329.744588 
L 277.916623 326.689012 
L 283.04887 323.633437 
L 286.854822 320.577861 
L 289.590919 317.522286 
L 291.502999 314.46671 
L 292.804294 311.411135 
L 293.666521 308.355559 
L 294.219893 305.299984 
L 294.558168 302.244408 
L 294.745732 299.188833 
L 294.824773 296.133258 
L 294.821564 293.077682 
L 294.751532 290.022107 
L 294.623209 286.966531 
L 294.441335 283.910956 
L 294.209432 280.85538 
L 293.9321 277.799805 
L 293.617135 274.744229 
L 293.277319 271.688654 
L 292.931523 268.633078 
L 292.604556 265.577503 
L 292.325327 262.521928 
L 292.123211 259.466352 
L 292.023123 256.410777 
L 292.040383 253.355201 
L 292.176764 250.299626 
L 292.418926 247.24405 
L 292.739823 244.188475 
L 293.102745 241.132899 
L 293.466915 238.077324 
L 293.793194 235.021748 
L 294.048683 231.966173 
L 294.209594 228.910598 
L 294.262493 225.855022 
L 294.204481 222.799447 
L 294.042915 219.743871 
L 293.794969 216.688296 
L 293.48685 213.63272 
L 293.152154 210.577145 
L 292.828876 207.521569 
L 292.554984 204.465994 
L 292.363109 201.410418 
L 292.275412 198.354843 
L 292.299961 195.299268 
L 292.429605 192.243692 
L 292.643695 189.188117 
L 292.912156 186.132541 
L 293.200766 183.076966 
L 293.476296 180.02139 
L 293.710434 176.965815 
L 293.882047 173.910239 
L 293.977962 170.854664 
L 293.992855 167.799088 
L 293.928867 164.743513 
L 293.79526 161.687938 
L 293.60804 158.632362 
L 293.38913 155.576787 
L 293.164688 152.521211 
L 292.962366 149.465636 
L 292.807784 146.41006 
L 292.720889 143.354485 
L 292.713059 140.298909 
L 292.785751 137.243334 
L 292.931004 134.187758 
L 293.133638 131.132183 
L 293.374459 128.076608 
L 293.633614 125.021032 
L 293.89331 121.965457 
L 294.139476 118.909881 
L 294.362315 115.854306 
L 294.556027 112.79873 
L 294.718058 109.743155 
L 294.848232 106.687579 
L 294.947934 103.632004 
L 295.019452 100.576428 
L 295.06548 97.520853 
L 295.088807 94.465278 
L 295.092211 91.409702 
L 295.078578 88.354127 
L 295.051176 85.298551 
L 295.013981 82.242976 
L 294.971845 79.1874 
L 294.930361 76.131825 
L 294.895331 73.076249 
L 294.871929 70.020674 
L 294.863773 66.965098 
L 295.536227 66.965098 
L 295.536227 66.965098 
L 295.528071 70.020674 
L 295.504669 73.076249 
L 295.469639 76.131825 
L 295.428155 79.1874 
L 295.386019 82.242976 
L 295.348824 85.298551 
L 295.321422 88.354127 
L 295.307789 91.409702 
L 295.311193 94.465278 
L 295.33452 97.520853 
L 295.380548 100.576428 
L 295.452066 103.632004 
L 295.551768 106.687579 
L 295.681942 109.743155 
L 295.843973 112.79873 
L 296.037685 115.854306 
L 296.260524 118.909881 
L 296.50669 121.965457 
L 296.766386 125.021032 
L 297.025541 128.076608 
L 297.266362 131.132183 
L 297.468996 134.187758 
L 297.614249 137.243334 
L 297.686941 140.298909 
L 297.679111 143.354485 
L 297.592216 146.41006 
L 297.437634 149.465636 
L 297.235312 152.521211 
L 297.01087 155.576787 
L 296.79196 158.632362 
L 296.60474 161.687938 
L 296.471133 164.743513 
L 296.407145 167.799088 
L 296.422038 170.854664 
L 296.517953 173.910239 
L 296.689566 176.965815 
L 296.923704 180.02139 
L 297.199234 183.076966 
L 297.487844 186.132541 
L 297.756305 189.188117 
L 297.970395 192.243692 
L 298.100039 195.299268 
L 298.124588 198.354843 
L 298.036891 201.410418 
L 297.845016 204.465994 
L 297.571124 207.521569 
L 297.247846 210.577145 
L 296.91315 213.63272 
L 296.605031 216.688296 
L 296.357085 219.743871 
L 296.195519 222.799447 
L 296.137507 225.855022 
L 296.190406 228.910598 
L 296.351317 231.966173 
L 296.606806 235.021748 
L 296.933085 238.077324 
L 297.297255 241.132899 
L 297.660177 244.188475 
L 297.981074 247.24405 
L 298.223236 250.299626 
L 298.359617 253.355201 
L 298.376877 256.410777 
L 298.276789 259.466352 
L 298.074673 262.521928 
L 297.795444 265.577503 
L 297.468477 268.633078 
L 297.122681 271.688654 
L 296.782865 274.744229 
L 296.4679 277.799805 
L 296.190568 280.85538 
L 295.958665 283.910956 
L 295.776791 286.966531 
L 295.648468 290.022107 
L 295.578436 293.077682 
L 295.575227 296.133258 
L 295.654268 299.188833 
L 295.841832 302.244408 
L 296.180107 305.299984 
L 296.733479 308.355559 
L 297.595706 311.411135 
L 298.897001 314.46671 
L 300.809081 317.522286 
L 303.545178 320.577861 
L 307.35113 323.633437 
L 312.483377 326.689012 
L 319.170715 329.744588 
L 327.559405 332.800163 
L 337.646226 335.855738 
L 349.210617 338.911314 
L 361.763674 341.966889 
L 374.53546 345.022465 
L 386.519528 348.07804 
L 396.582818 351.133616 
L 403.631108 354.189191 
L 406.8 357.244767 
L 405.626717 360.300342 
L 400.156079 363.355918 
L 390.948034 366.411493 
L 378.980653 369.467068 
z
" clip-path="url(#pc641188067)" style="fill: #1f77b4; fill-opacity: 0.3"/>
   </g>
   <g id="matplotlib.axis_1">
    <g id="xtick_1">
     <g id="line2d_1">
      <defs>
       <path id="m981d63b8ed" d="M 0 0 
L 0 3.5 
" style="stroke: #000000; stroke-width: 0.8"/>
      </defs>
      <g>
       <use xlink:href="#m981d63b8ed" x="295.2" y="384.48" style="stroke: #000000; stroke-width: 0.8"/>
      </g>
     </g>
     <g id="text_1">
      <!-- 1 -->
      <g transform="translate(292.01875 399.078438) scale(0.1 -0.1)">
       <defs>
        <path id="DejaVuSans-31" d="M 794 531 
L 1825 531 
L 1825 4091 
L 703 3866 
L 703 4441 
L 1819 4666 
L 2450 4666 
L 2450 531 
L 3481 531 
L 3481 0 
L 794 0 
L 794 531 
z
" transform="scale(0.015625)"/>
       </defs>
       <use xlink:href="#DejaVuSans-31"/>
      </g>
     </g>
    </g>
   </g>
   <g id="matplotlib.axis_2">
    <g id="ytick_1">
     <g id="line2d_2">
      <defs>
       <path id="m33b192b0e9" d="M 0 0 
L -3.5 0 
" style="stroke: #000000; stroke-width: 0.8"/>
      </defs>
      <g>
       <use xlink:href="#m33b192b0e9" x="72" y="384.48" style="stroke: #000000; stroke-width: 0.8"/>
      </g>
     </g>
     <g id="text_2">
      <!-- 0 -->
      <g transform="translate(58.6375 388.279219) scale(0.1 -0.1)">
       <defs>
        <path id="DejaVuSans-30" d="M 2034 4250 
Q 1547 4250 1301 3770 
Q 1056 3291 1056 2328 
Q 1056 1369 1301 889 
Q 1547 409 2034 409 
Q 2525 409 2770 889 
Q 3016 1369 3016 2328 
Q 3016 3291 2770 3770 
Q 2525 4250 2034 4250 
z
M 2034 4750 
Q 2819 4750 3233 4129 
Q 3647 3509 3647 2328 
Q 3647 1150 3233 529 
Q 2819 -91 2034 -91 
Q 1250 -91 836 529 
Q 422 1150 422 2328 
Q 422 3509 836 4129 
Q 1250 4750 2034 4750 
z
" transform="scale(0.015625)"/>
       </defs>
       <use xlink:href="#DejaVuSans-30"/>
      </g>
     </g>
    </g>
    <g id="ytick_2">
     <g id="line2d_3">
      <g>
       <use xlink:href="#m33b192b0e9" x="72" y="312.113736" style="stroke: #000000; stroke-width: 0.8"/>
      </g>
     </g>
     <g id="text_3">
      <!-- 5 -->
      <g transform="translate(58.6375 315.912954) scale(0.1 -0.1)">
       <defs>
        <path id="DejaVuSans-35" d="M 691 4666 
L 3169 4666 
L 3169 4134 
L 1269 4134 
L 1269 2991 
Q 1406 3038 1543 3061 
Q 1681 3084 1819 3084 
Q 2600 3084 3056 2656 
Q 3513 2228 3513 1497 
Q 3513 744 3044 326 
Q 2575 -91 1722 -91 
Q 1428 -91 1123 -41 
Q 819 9 494 109 
L 494 744 
Q 775 591 1075 516 
Q 1375 441 1709 441 
Q 2250 441 2565 725 
Q 2881 1009 2881 1497 
Q 2881 1984 2565 2268 
Q 2250 2553 1709 2553 
Q 1456 2553 1204 2497 
Q 953 2441 691 2322 
L 691 4666 
z
" transform="scale(0.015625)"/>
       </defs>
       <use xlink:href="#DejaVuSans-35"/>
      </g>
     </g>
    </g>
    <g id="ytick_3">
     <g id="line2d_4">
      <g>
       <use xlink:href="#m33b192b0e9" x="72" y="239.747471" style="stroke: #000000; stroke-width: 0.8"/>
      </g>
     </g>
     <g id="text_4">
      <!-- 10 -->
      <g transform="translate(52.275 243.54669) scale(0.1 -0.1)">
       <use xlink:href="#DejaVuSans-31"/>
       <use xlink:href="#DejaVuSans-30" transform="translate(63.623047 0)"/>
      </g>
     </g>
    </g>
    <g id="ytick_4">
     <g id="line2d_5">
      <g>
       <use xlink:href="#m33b192b0e9" x="72" y="167.381207" style="stroke: #000000; stroke-width: 0.8"/>
      </g>
     </g>
     <g id="text_5">
      <!-- 15 -->
      <g transform="translate(52.275 171.180426) scale(0.1 -0.1)">
       <use xlink:href="#DejaVuSans-31"/>
       <use xlink:href="#DejaVuSans-35" transform="translate(63.623047 0)"/>
      </g>
     </g>
    </g>
    <g id="ytick_5">
     <g id="line2d_6">
      <g>
       <use xlink:href="#m33b192b0e9" x="72" y="95.014943" style="stroke: #000000; stroke-width: 0.8"/>
      </g>
     </g>
     <g id="text_6">
      <!-- 20 -->
      <g transform="translate(52.275 98.814162) scale(0.1 -0.1)">
       <defs>
        <path id="DejaVuSans-32" d="M 1228 531 
L 3431 531 
L 3431 0 
L 469 0 
L 469 531 
Q 828 903 1448 1529 
Q 2069 2156 2228 2338 
Q 2531 2678 2651 2914 
Q 2772 3150 2772 3378 
Q 2772 3750 2511 3984 
Q 2250 4219 1831 4219 
Q 1534 4219 1204 4116 
Q 875 4013 500 3803 
L 500 4441 
Q 881 4594 1212 4672 
Q 1544 4750 1819 4750 
Q 2544 4750 2975 4387 
Q 3406 4025 3406 3419 
Q 3406 3131 3298 2873 
Q 3191 2616 2906 2266 
Q 2828 2175 2409 1742 
Q 1991 1309 1228 531 
z
" transform="scale(0.015625)"/>
       </defs>
       <use xlink:href="#DejaVuSans-32"/>
       <use xlink:href="#DejaVuSans-30" transform="translate(63.623047 0)"/>
      </g>
     </g>
    </g>
    <g id="text_7">
     <!-- Time (ms) -->
     <g transform="translate(46.195312 243.359219) rotate(-90) scale(0.1 -0.1)">
      <defs>
       <path id="DejaVuSans-54" d="M -19 4666 
L 3928 4666 
L 3928 4134 
L 2272 4134 
L 2272 0 
L 1638 0 
L 1638 4134 
L -19 4134 
L -19 4666 
z
" transform="scale(0.015625)"/>
       <path id="DejaVuSans-69" d="M 603 3500 
L 1178 3500 
L 1178 0 
L 603 0 
L 603 3500 
z
M 603 4863 
L 1178 4863 
L 1178 4134 
L 603 4134 
L 603 4863 
z
" transform="scale(0.015625)"/>
       <path id="DejaVuSans-6d" d="M 3328 2828 
Q 3544 3216 3844 3400 
Q 4144 3584 4550 3584 
Q 5097 3584 5394 3201 
Q 5691 2819 5691 2113 
L 5691 0 
L 5113 0 
L 5113 2094 
Q 5113 2597 4934 2840 
Q 4756 3084 4391 3084 
Q 3944 3084 3684 2787 
Q 3425 2491 3425 1978 
L 3425 0 
L 2847 0 
L 2847 2094 
Q 2847 2600 2669 2842 
Q 2491 3084 2119 3084 
Q 1678 3084 1418 2786 
Q 1159 2488 1159 1978 
L 1159 0 
L 581 0 
L 581 3500 
L 1159 3500 
L 1159 2956 
Q 1356 3278 1631 3431 
Q 1906 3584 2284 3584 
Q 2666 3584 2933 3390 
Q 3200 3197 3328 2828 
z
" transform="scale(0.015625)"/>
       <path id="DejaVuSans-65" d="M 3597 1894 
L 3597 1613 
L 953 1613 
Q 991 1019 1311 708 
Q 1631 397 2203 397 
Q 2534 397 2845 478 
Q 3156 559 3463 722 
L 3463 178 
Q 3153 47 2828 -22 
Q 2503 -91 2169 -91 
Q 1331 -91 842 396 
Q 353 884 353 1716 
Q 353 2575 817 3079 
Q 1281 3584 2069 3584 
Q 2775 3584 3186 3129 
Q 3597 2675 3597 1894 
z
M 3022 2063 
Q 3016 2534 2758 2815 
Q 2500 3097 2075 3097 
Q 1594 3097 1305 2825 
Q 1016 2553 972 2059 
L 3022 2063 
z
" transform="scale(0.015625)"/>
       <path id="DejaVuSans-20" transform="scale(0.015625)"/>
       <path id="DejaVuSans-28" d="M 1984 4856 
Q 1566 4138 1362 3434 
Q 1159 2731 1159 2009 
Q 1159 1288 1364 580 
Q 1569 -128 1984 -844 
L 1484 -844 
Q 1016 -109 783 600 
Q 550 1309 550 2009 
Q 550 2706 781 3412 
Q 1013 4119 1484 4856 
L 1984 4856 
z
" transform="scale(0.015625)"/>
       <path id="DejaVuSans-73" d="M 2834 3397 
L 2834 2853 
Q 2591 2978 2328 3040 
Q 2066 3103 1784 3103 
Q 1356 3103 1142 2972 
Q 928 2841 928 2578 
Q 928 2378 1081 2264 
Q 1234 2150 1697 2047 
L 1894 2003 
Q 2506 1872 2764 1633 
Q 3022 1394 3022 966 
Q 3022 478 2636 193 
Q 2250 -91 1575 -91 
Q 1294 -91 989 -36 
Q 684 19 347 128 
L 347 722 
Q 666 556 975 473 
Q 1284 391 1588 391 
Q 1994 391 2212 530 
Q 2431 669 2431 922 
Q 2431 1156 2273 1281 
Q 2116 1406 1581 1522 
L 1381 1569 
Q 847 1681 609 1914 
Q 372 2147 372 2553 
Q 372 3047 722 3315 
Q 1072 3584 1716 3584 
Q 2034 3584 2315 3537 
Q 2597 3491 2834 3397 
z
" transform="scale(0.015625)"/>
       <path id="DejaVuSans-29" d="M 513 4856 
L 1013 4856 
Q 1481 4119 1714 3412 
Q 1947 2706 1947 2009 
Q 1947 1309 1714 600 
Q 1481 -109 1013 -844 
L 513 -844 
Q 928 -128 1133 580 
Q 1338 1288 1338 2009 
Q 1338 2731 1133 3434 
Q 928 4138 513 4856 
z
" transform="scale(0.015625)"/>
      </defs>
      <use xlink:href="#DejaVuSans-54"/>
      <use xlink:href="#DejaVuSans-69" transform="translate(57.958984 0)"/>
      <use xlink:href="#DejaVuSans-6d" transform="translate(85.742188 0)"/>
      <use xlink:href="#DejaVuSans-65" transform="translate(183.154297 0)"/>
      <use xlink:href="#DejaVuSans-20" transform="translate(244.677734 0)"/>
      <use xlink:href="#DejaVuSans-28" transform="translate(276.464844 0)"/>
      <use xlink:href="#DejaVuSans-6d" transform="translate(315.478516 0)"/>
      <use xlink:href="#DejaVuSans-73" transform="translate(412.890625 0)"/>
      <use xlink:href="#DejaVuSans-29" transform="translate(464.990234 0)"/>
     </g>
    </g>
   </g>
   <g id="LineCollection_1">
    <path d="M 239.4 344.895669 
L 351 344.895669 
" clip-path="url(#pc641188067)" style="fill: none; stroke: #1f77b4; stroke-width: 1.5"/>
   </g>
   <g id="LineCollection_2">
    <path d="M 239.4 66.965098 
L 351 66.965098 
" clip-path="url(#pc641188067)" style="fill: none; stroke: #1f77b4; stroke-width: 1.5"/>
   </g>
   <g id="LineCollection_3">
    <path d="M 239.4 369.467068 
L 351 369.467068 
" clip-path="url(#pc641188067)" style="fill: none; stroke: #1f77b4; stroke-width: 1.5"/>
   </g>
   <g id="LineCollection_4">
    <path d="M 295.2 369.467068 
L 295.2 66.965098 
" clip-path="url(#pc641188067)" style="fill: none; stroke: #1f77b4; stroke-width: 1.5"/>
   </g>
   <g id="patch_3">
    <path d="M 250.56 361.8967 
L 339.84 361.8967 
L 339.84 351.416458 
L 250.56 351.416458 
L 250.56 361.8967 
z
" clip-path="url(#pc641188067)" style="fill: #1f77b4; stroke: #000000; stroke-linejoin: miter"/>
   </g>
   <g id="line2d_7">
    <path d="M 295.2 361.8967 
L 295.2 369.467068 
" clip-path="url(#pc641188067)" style="fill: none; stroke: #000000; stroke-linecap: square"/>
   </g>
   <g id="line2d_8">
    <path d="M 295.2 351.416458 
L 295.2 337.388507 
" clip-path="url(#pc641188067)" style="fill: none; stroke: #000000; stroke-linecap: square"/>
   </g>
   <g id="line2d_9">
    <path d="M 272.88 369.467068 
L 317.52 369.467068 
" clip-path="url(#pc641188067)" style="fill: none; stroke: #000000; stroke-linecap: square"/>
   </g>
   <g id="line2d_10">
    <path d="M 272.88 337.388507 
L 317.52 337.388507 
" clip-path="url(#pc641188067)" style="fill: none; stroke: #000000; stroke-linecap: square"/>
   </g>
   <g id="line2d_11">
    <defs>
     <path id="m2812bc44a7" d="M 0 3 
C 0.795609 3 1.55874 2.683901 2.12132 2.12132 
C 2.683901 1.55874 3 0.795609 3 0 
C 3 -0.795609 2.683901 -1.55874 2.12132 -2.12132 
C 1.55874 -2.683901 0.795609 -3 0 -3 
C -0.795609 -3 -1.55874 -2.683901 -2.12132 -2.12132 
C -2.683901 -1.55874 -3 -0.795609 -3 0 
C -3 0.795609 -2.683901 1.55874 -2.12132 2.12132 
C -1.55874 2.683901 -0.795609 3 0 3 
z
" style="stroke: #000000"/>
    </defs>
    <g clip-path="url(#pc641188067)">
     <use xlink:href="#m2812bc44a7" x="295.2" y="143.81069" style="fill-opacity: 0; stroke: #000000"/>
     <use xlink:href="#m2812bc44a7" x="295.2" y="251.213703" style="fill-opacity: 0; stroke: #000000"/>
     <use xlink:href="#m2812bc44a7" x="295.2" y="335.562721" style="fill-opacity: 0; stroke: #000000"/>
     <use xlink:href="#m2812bc44a7" x="295.2" y="204.464272" style="fill-opacity: 0; stroke: #000000"/>
     <use xlink:href="#m2812bc44a7" x="295.2" y="66.965098" style="fill-opacity: 0; stroke: #000000"/>
     <use xlink:href="#m2812bc44a7" x="295.2" y="255.836895" style="fill-opacity: 0; stroke: #000000"/>
     <use xlink:href="#m2812bc44a7" x="295.2" y="328.986205" style="fill-opacity: 0; stroke: #000000"/>
     <use xlink:href="#m2812bc44a7" x="295.2" y="328.938009" style="fill-opacity: 0; stroke: #000000"/>
     <use xlink:href="#m2812bc44a7" x="295.2" y="191.505558" style="fill-opacity: 0; stroke: #000000"/>
     <use xlink:href="#m2812bc44a7" x="295.2" y="120.810824" style="fill-opacity: 0; stroke: #000000"/>
     <use xlink:href="#m2812bc44a7" x="295.2" y="248.057796" style="fill-opacity: 0; stroke: #000000"/>
     <use xlink:href="#m2812bc44a7" x="295.2" y="325.302241" style="fill-opacity: 0; stroke: #000000"/>
     <use xlink:href="#m2812bc44a7" x="295.2" y="199.419894" style="fill-opacity: 0; stroke: #000000"/>
     <use xlink:href="#m2812bc44a7" x="295.2" y="139.016946" style="fill-opacity: 0; stroke: #000000"/>
     <use xlink:href="#m2812bc44a7" x="295.2" y="253.510565" style="fill-opacity: 0; stroke: #000000"/>
     <use xlink:href="#m2812bc44a7" x="295.2" y="320.888941" style="fill-opacity: 0; stroke: #000000"/>
     <use xlink:href="#m2812bc44a7" x="295.2" y="194.728621" style="fill-opacity: 0; stroke: #000000"/>
     <use xlink:href="#m2812bc44a7" x="295.2" y="147.996268" style="fill-opacity: 0; stroke: #000000"/>
     <use xlink:href="#m2812bc44a7" x="295.2" y="259.229049" style="fill-opacity: 0; stroke: #000000"/>
     <use xlink:href="#m2812bc44a7" x="295.2" y="205.697856" style="fill-opacity: 0; stroke: #000000"/>
     <use xlink:href="#m2812bc44a7" x="295.2" y="143.292591" style="fill-opacity: 0; stroke: #000000"/>
     <use xlink:href="#m2812bc44a7" x="295.2" y="247.994736" style="fill-opacity: 0; stroke: #000000"/>
     <use xlink:href="#m2812bc44a7" x="295.2" y="197.258806" style="fill-opacity: 0; stroke: #000000"/>
     <use xlink:href="#m2812bc44a7" x="295.2" y="136.176859" style="fill-opacity: 0; stroke: #000000"/>
     <use xlink:href="#m2812bc44a7" x="295.2" y="255.597391" style="fill-opacity: 0; stroke: #000000"/>
     <use xlink:href="#m2812bc44a7" x="295.2" y="204.521021" style="fill-opacity: 0; stroke: #000000"/>
     <use xlink:href="#m2812bc44a7" x="295.2" y="130.898189" style="fill-opacity: 0; stroke: #000000"/>
     <use xlink:href="#m2812bc44a7" x="295.2" y="260.127881" style="fill-opacity: 0; stroke: #000000"/>
     <use xlink:href="#m2812bc44a7" x="295.2" y="196.044428" style="fill-opacity: 0; stroke: #000000"/>
     <use xlink:href="#m2812bc44a7" x="295.2" y="275.329443" style="fill-opacity: 0; stroke: #000000"/>
     <use xlink:href="#m2812bc44a7" x="295.2" y="156.169415" style="fill-opacity: 0; stroke: #000000"/>
     <use xlink:href="#m2812bc44a7" x="295.2" y="267.931512" style="fill-opacity: 0; stroke: #000000"/>
     <use xlink:href="#m2812bc44a7" x="295.2" y="176.324997" style="fill-opacity: 0; stroke: #000000"/>
     <use xlink:href="#m2812bc44a7" x="295.2" y="143.864661" style="fill-opacity: 0; stroke: #000000"/>
     <use xlink:href="#m2812bc44a7" x="295.2" y="249.165014" style="fill-opacity: 0; stroke: #000000"/>
     <use xlink:href="#m2812bc44a7" x="295.2" y="192.766439" style="fill-opacity: 0; stroke: #000000"/>
    </g>
   </g>
   <g id="line2d_12">
    <path d="M 250.56 357.493079 
L 339.84 357.493079 
" clip-path="url(#pc641188067)" style="fill: none; stroke: #ff7f0e"/>
   </g>
   <g id="patch_4">
    <path d="M 72 384.48 
L 72 51.84 
" style="fill: none; stroke: #000000; stroke-width: 0.8; stroke-linejoin: miter; stroke-linecap: square"/>
   </g>
   <g id="patch_5">
    <path d="M 518.4 384.48 
L 518.4 51.84 
" style="fill: none; stroke: #000000; stroke-width: 0.8; stroke-linejoin: miter; stroke-linecap: square"/>
   </g>
   <g id="patch_6">
    <path d="M 72 384.48 
L 518.4 384.48 
" style="fill: none; stroke: #000000; stroke-width: 0.8; stroke-linejoin: miter; stroke-linecap: square"/>
   </g>
   <g id="patch_7">
    <path d="M 72 51.84 
L 518.4 51.84 
" style="fill: none; stroke: #000000; stroke-width: 0.8; stroke-linejoin: miter; stroke-linecap: square"/>
   </g>
   <g id="text_8">
    <!-- Handle Result -->
    <g transform="translate(253.595625 45.84) scale(0.12 -0.12)">
     <defs>
      <path id="DejaVuSans-48" d="M 628 4666 
L 1259 4666 
L 1259 2753 
L 3553 2753 
L 3553 4666 
L 4184 4666 
L 4184 0 
L 3553 0 
L 3553 2222 
L 1259 2222 
L 1259 0 
L 628 0 
L 628 4666 
z
" transform="scale(0.015625)"/>
      <path id="DejaVuSans-61" d="M 2194 1759 
Q 1497 1759 1228 1600 
Q 959 1441 959 1056 
Q 959 750 1161 570 
Q 1363 391 1709 391 
Q 2188 391 2477 730 
Q 2766 1069 2766 1631 
L 2766 1759 
L 2194 1759 
z
M 3341 1997 
L 3341 0 
L 2766 0 
L 2766 531 
Q 2569 213 2275 61 
Q 1981 -91 1556 -91 
Q 1019 -91 701 211 
Q 384 513 384 1019 
Q 384 1609 779 1909 
Q 1175 2209 1959 2209 
L 2766 2209 
L 2766 2266 
Q 2766 2663 2505 2880 
Q 2244 3097 1772 3097 
Q 1472 3097 1187 3025 
Q 903 2953 641 2809 
L 641 3341 
Q 956 3463 1253 3523 
Q 1550 3584 1831 3584 
Q 2591 3584 2966 3190 
Q 3341 2797 3341 1997 
z
" transform="scale(0.015625)"/>
      <path id="DejaVuSans-6e" d="M 3513 2113 
L 3513 0 
L 2938 0 
L 2938 2094 
Q 2938 2591 2744 2837 
Q 2550 3084 2163 3084 
Q 1697 3084 1428 2787 
Q 1159 2491 1159 1978 
L 1159 0 
L 581 0 
L 581 3500 
L 1159 3500 
L 1159 2956 
Q 1366 3272 1645 3428 
Q 1925 3584 2291 3584 
Q 2894 3584 3203 3211 
Q 3513 2838 3513 2113 
z
" transform="scale(0.015625)"/>
      <path id="DejaVuSans-64" d="M 2906 2969 
L 2906 4863 
L 3481 4863 
L 3481 0 
L 2906 0 
L 2906 525 
Q 2725 213 2448 61 
Q 2172 -91 1784 -91 
Q 1150 -91 751 415 
Q 353 922 353 1747 
Q 353 2572 751 3078 
Q 1150 3584 1784 3584 
Q 2172 3584 2448 3432 
Q 2725 3281 2906 2969 
z
M 947 1747 
Q 947 1113 1208 752 
Q 1469 391 1925 391 
Q 2381 391 2643 752 
Q 2906 1113 2906 1747 
Q 2906 2381 2643 2742 
Q 2381 3103 1925 3103 
Q 1469 3103 1208 2742 
Q 947 2381 947 1747 
z
" transform="scale(0.015625)"/>
      <path id="DejaVuSans-6c" d="M 603 4863 
L 1178 4863 
L 1178 0 
L 603 0 
L 603 4863 
z
" transform="scale(0.015625)"/>
      <path id="DejaVuSans-52" d="M 2841 2188 
Q 3044 2119 3236 1894 
Q 3428 1669 3622 1275 
L 4263 0 
L 3584 0 
L 2988 1197 
Q 2756 1666 2539 1819 
Q 2322 1972 1947 1972 
L 1259 1972 
L 1259 0 
L 628 0 
L 628 4666 
L 2053 4666 
Q 2853 4666 3247 4331 
Q 3641 3997 3641 3322 
Q 3641 2881 3436 2590 
Q 3231 2300 2841 2188 
z
M 1259 4147 
L 1259 2491 
L 2053 2491 
Q 2509 2491 2742 2702 
Q 2975 2913 2975 3322 
Q 2975 3731 2742 3939 
Q 2509 4147 2053 4147 
L 1259 4147 
z
" transform="scale(0.015625)"/>
      <path id="DejaVuSans-75" d="M 544 1381 
L 544 3500 
L 1119 3500 
L 1119 1403 
Q 1119 906 1312 657 
Q 1506 409 1894 409 
Q 2359 409 2629 706 
Q 2900 1003 2900 1516 
L 2900 3500 
L 3475 3500 
L 3475 0 
L 2900 0 
L 2900 538 
Q 2691 219 2414 64 
Q 2138 -91 1772 -91 
Q 1169 -91 856 284 
Q 544 659 544 1381 
z
M 1991 3584 
L 1991 3584 
z
" transform="scale(0.015625)"/>
      <path id="DejaVuSans-74" d="M 1172 4494 
L 1172 3500 
L 2356 3500 
L 2356 3053 
L 1172 3053 
L 1172 1153 
Q 1172 725 1289 603 
Q 1406 481 1766 481 
L 2356 481 
L 2356 0 
L 1766 0 
Q 1100 0 847 248 
Q 594 497 594 1153 
L 594 3053 
L 172 3053 
L 172 3500 
L 594 3500 
L 594 4494 
L 1172 4494 
z
" transform="scale(0.015625)"/>
     </defs>
     <use xlink:href="#DejaVuSans-48"/>
     <use xlink:href="#DejaVuSans-61" transform="translate(75.195312 0)"/>
     <use xlink:href="#DejaVuSans-6e" transform="translate(136.474609 0)"/>
     <use xlink:href="#DejaVuSans-64" transform="translate(199.853516 0)"/>
     <use xlink:href="#DejaVuSans-6c" transform="translate(263.330078 0)"/>
     <use xlink:href="#DejaVuSans-65" transform="translate(291.113281 0)"/>
     <use xlink:href="#DejaVuSans-20" transform="translate(352.636719 0)"/>
     <use xlink:href="#DejaVuSans-52" transform="translate(384.423828 0)"/>
     <use xlink:href="#DejaVuSans-65" transform="translate(449.40625 0)"/>
     <use xlink:href="#DejaVuSans-73" transform="translate(510.929688 0)"/>
     <use xlink:href="#DejaVuSans-75" transform="translate(563.029297 0)"/>
     <use xlink:href="#DejaVuSans-6c" transform="translate(626.408203 0)"/>
     <use xlink:href="#DejaVuSans-74" transform="translate(654.191406 0)"/>
    </g>
   </g>
  </g>
 </g>
 <defs>
  <clipPath id="pc641188067">
   <rect x="72" y="51.84" width="446.4" height="332.64"/>
  </clipPath>
 </defs>
</svg>
