<?xml version="1.0" encoding="utf-8" standalone="no"?>
<!DOCTYPE svg PUBLIC "-//W3C//DTD SVG 1.1//EN"
  "http://www.w3.org/Graphics/SVG/1.1/DTD/svg11.dtd">
<svg xmlns:xlink="http://www.w3.org/1999/xlink" width="576pt" height="432pt" viewBox="0 0 576 432" xmlns="http://www.w3.org/2000/svg" version="1.1">
 <metadata>
  <rdf:RDF xmlns:dc="http://purl.org/dc/elements/1.1/" xmlns:cc="http://creativecommons.org/ns#" xmlns:rdf="http://www.w3.org/1999/02/22-rdf-syntax-ns#">
   <cc:Work>
    <dc:type rdf:resource="http://purl.org/dc/dcmitype/StillImage"/>
    <dc:date>2025-09-30T20:46:14.329922</dc:date>
    <dc:format>image/svg+xml</dc:format>
    <dc:creator>
     <cc:Agent>
      <dc:title>Matplotlib v3.10.3, https://matplotlib.org/</dc:title>
     </cc:Agent>
    </dc:creator>
   </cc:Work>
  </rdf:RDF>
 </metadata>
 <defs>
  <style type="text/css">*{stroke-linejoin: round; stroke-linecap: butt}</style>
 </defs>
 <g id="figure_1">
  <g id="patch_1">
   <path d="M 0 432 
L 576 432 
L 576 0 
L 0 0 
z
" style="fill: #ffffff"/>
  </g>
  <g id="axes_1">
   <g id="patch_2">
    <path d="M 72 384.48 
L 518.4 384.48 
L 518.4 51.84 
L 72 51.84 
z
" style="fill: #ffffff"/>
   </g>
   <g id="FillBetweenPolyCollection_1">
    <path d="M 366.964214 384.022993 
L 223.435786 384.022993 
L 187.176442 380.82739 
L 183.6 377.631786 
L 214.47956 374.436183 
L 252.470955 371.240579 
L 277.000478 368.044975 
L 287.753718 364.849372 
L 291.610446 361.653768 
L 292.954729 358.458165 
L 293.346711 355.262561 
L 293.433251 352.066957 
L 293.629555 348.871354 
L 294.003047 345.67575 
L 294.369857 342.480147 
L 294.520827 339.284543 
L 294.355489 336.088939 
L 294.050191 332.893336 
L 293.936961 329.697732 
L 294.058682 326.502129 
L 294.132434 323.306525 
L 294.000433 320.110922 
L 293.858172 316.915318 
L 293.954503 313.719714 
L 294.237405 310.524111 
L 294.491629 307.328507 
L 294.649186 304.132904 
L 294.770317 300.9373 
L 294.885748 297.741696 
L 294.978585 294.546093 
L 294.998683 291.350489 
L 294.900789 288.154886 
L 294.758802 284.959282 
L 294.738082 281.763678 
L 294.879585 278.568075 
L 295.054296 275.372471 
L 295.156688 272.176868 
L 295.191607 268.981264 
L 295.198943 265.78566 
L 295.199914 262.590057 
L 295.199995 259.394453 
L 295.2 256.19885 
L 295.2 253.003246 
L 295.2 249.807643 
L 295.2 246.612039 
L 295.2 243.416435 
L 295.2 240.220832 
L 295.2 237.025228 
L 295.2 233.829625 
L 295.2 230.634021 
L 295.2 227.438417 
L 295.2 224.242814 
L 295.2 221.04721 
L 295.2 217.851607 
L 295.2 214.656003 
L 295.2 211.460399 
L 295.2 208.264796 
L 295.2 205.069192 
L 295.2 201.873589 
L 295.2 198.677985 
L 295.2 195.482381 
L 295.2 192.286778 
L 295.2 189.091174 
L 295.2 185.895571 
L 295.2 182.699967 
L 295.2 179.504363 
L 295.2 176.30876 
L 295.2 173.113156 
L 295.2 169.917553 
L 295.2 166.721949 
L 295.2 163.526346 
L 295.2 160.330742 
L 295.2 157.135138 
L 295.2 153.939535 
L 295.2 150.743931 
L 295.2 147.548328 
L 295.2 144.352724 
L 295.2 141.15712 
L 295.2 137.961517 
L 295.199999 134.765913 
L 295.199976 131.57031 
L 295.199677 128.374706 
L 295.197219 125.179102 
L 295.184827 121.983499 
L 295.147448 118.787895 
L 295.084467 115.592292 
L 295.038781 112.396688 
L 295.0572 109.201084 
L 295.119714 106.005481 
L 295.171348 102.809877 
L 295.19351 99.614274 
L 295.199067 96.41867 
L 295.199915 93.223067 
L 295.199993 90.027463 
L 295.199954 86.831859 
L 295.199444 83.636256 
L 295.195699 80.440652 
L 295.17889 77.245049 
L 295.134237 74.049445 
L 295.06996 70.853841 
L 295.036778 67.658238 
L 295.363222 67.658238 
L 295.363222 67.658238 
L 295.33004 70.853841 
L 295.265763 74.049445 
L 295.22111 77.245049 
L 295.204301 80.440652 
L 295.200556 83.636256 
L 295.200046 86.831859 
L 295.200007 90.027463 
L 295.200085 93.223067 
L 295.200933 96.41867 
L 295.20649 99.614274 
L 295.228652 102.809877 
L 295.280286 106.005481 
L 295.3428 109.201084 
L 295.361219 112.396688 
L 295.315533 115.592292 
L 295.252552 118.787895 
L 295.215173 121.983499 
L 295.202781 125.179102 
L 295.200323 128.374706 
L 295.200024 131.57031 
L 295.200001 134.765913 
L 295.2 137.961517 
L 295.2 141.15712 
L 295.2 144.352724 
L 295.2 147.548328 
L 295.2 150.743931 
L 295.2 153.939535 
L 295.2 157.135138 
L 295.2 160.330742 
L 295.2 163.526346 
L 295.2 166.721949 
L 295.2 169.917553 
L 295.2 173.113156 
L 295.2 176.30876 
L 295.2 179.504363 
L 295.2 182.699967 
L 295.2 185.895571 
L 295.2 189.091174 
L 295.2 192.286778 
L 295.2 195.482381 
L 295.2 198.677985 
L 295.2 201.873589 
L 295.2 205.069192 
L 295.2 208.264796 
L 295.2 211.460399 
L 295.2 214.656003 
L 295.2 217.851607 
L 295.2 221.04721 
L 295.2 224.242814 
L 295.2 227.438417 
L 295.2 230.634021 
L 295.2 233.829625 
L 295.2 237.025228 
L 295.2 240.220832 
L 295.2 243.416435 
L 295.2 246.612039 
L 295.2 249.807643 
L 295.2 253.003246 
L 295.2 256.19885 
L 295.200005 259.394453 
L 295.200086 262.590057 
L 295.201057 265.78566 
L 295.208393 268.981264 
L 295.243312 272.176868 
L 295.345704 275.372471 
L 295.520415 278.568075 
L 295.661918 281.763678 
L 295.641198 284.959282 
L 295.499211 288.154886 
L 295.401317 291.350489 
L 295.421415 294.546093 
L 295.514252 297.741696 
L 295.629683 300.9373 
L 295.750814 304.132904 
L 295.908371 307.328507 
L 296.162595 310.524111 
L 296.445497 313.719714 
L 296.541828 316.915318 
L 296.399567 320.110922 
L 296.267566 323.306525 
L 296.341318 326.502129 
L 296.463039 329.697732 
L 296.349809 332.893336 
L 296.044511 336.088939 
L 295.879173 339.284543 
L 296.030143 342.480147 
L 296.396953 345.67575 
L 296.770445 348.871354 
L 296.966749 352.066957 
L 297.053289 355.262561 
L 297.445271 358.458165 
L 298.789554 361.653768 
L 302.646282 364.849372 
L 313.399522 368.044975 
L 337.929045 371.240579 
L 375.92044 374.436183 
L 406.8 377.631786 
L 403.223558 380.82739 
L 366.964214 384.022993 
z
" clip-path="url(#pfdaf9f6618)" style="fill: #1f77b4; fill-opacity: 0.3"/>
   </g>
   <g id="matplotlib.axis_1">
    <g id="xtick_1">
     <g id="line2d_1">
      <defs>
       <path id="me4ee71ed71" d="M 0 0 
L 0 3.5 
" style="stroke: #000000; stroke-width: 0.8"/>
      </defs>
      <g>
       <use xlink:href="#me4ee71ed71" x="295.2" y="384.48" style="stroke: #000000; stroke-width: 0.8"/>
      </g>
     </g>
     <g id="text_1">
      <!-- 1 -->
      <g transform="translate(292.01875 399.078438) scale(0.1 -0.1)">
       <defs>
        <path id="DejaVuSans-31" d="M 794 531 
L 1825 531 
L 1825 4091 
L 703 3866 
L 703 4441 
L 1819 4666 
L 2450 4666 
L 2450 531 
L 3481 531 
L 3481 0 
L 794 0 
L 794 531 
z
" transform="scale(0.015625)"/>
       </defs>
       <use xlink:href="#DejaVuSans-31"/>
      </g>
     </g>
    </g>
   </g>
   <g id="matplotlib.axis_2">
    <g id="ytick_1">
     <g id="line2d_2">
      <defs>
       <path id="m89df329c85" d="M 0 0 
L -3.5 0 
" style="stroke: #000000; stroke-width: 0.8"/>
      </defs>
      <g>
       <use xlink:href="#m89df329c85" x="72" y="384.48" style="stroke: #000000; stroke-width: 0.8"/>
      </g>
     </g>
     <g id="text_2">
      <!-- 0 -->
      <g transform="translate(58.6375 388.279219) scale(0.1 -0.1)">
       <defs>
        <path id="DejaVuSans-30" d="M 2034 4250 
Q 1547 4250 1301 3770 
Q 1056 3291 1056 2328 
Q 1056 1369 1301 889 
Q 1547 409 2034 409 
Q 2525 409 2770 889 
Q 3016 1369 3016 2328 
Q 3016 3291 2770 3770 
Q 2525 4250 2034 4250 
z
M 2034 4750 
Q 2819 4750 3233 4129 
Q 3647 3509 3647 2328 
Q 3647 1150 3233 529 
Q 2819 -91 2034 -91 
Q 1250 -91 836 529 
Q 422 1150 422 2328 
Q 422 3509 836 4129 
Q 1250 4750 2034 4750 
z
" transform="scale(0.015625)"/>
       </defs>
       <use xlink:href="#DejaVuSans-30"/>
      </g>
     </g>
    </g>
    <g id="ytick_2">
     <g id="line2d_3">
      <g>
       <use xlink:href="#m89df329c85" x="72" y="340.494761" style="stroke: #000000; stroke-width: 0.8"/>
      </g>
     </g>
     <g id="text_3">
      <!-- 1 -->
      <g transform="translate(58.6375 344.29398) scale(0.1 -0.1)">
       <use xlink:href="#DejaVuSans-31"/>
      </g>
     </g>
    </g>
    <g id="ytick_3">
     <g id="line2d_4">
      <g>
       <use xlink:href="#m89df329c85" x="72" y="296.509522" style="stroke: #000000; stroke-width: 0.8"/>
      </g>
     </g>
     <g id="text_4">
      <!-- 2 -->
      <g transform="translate(58.6375 300.308741) scale(0.1 -0.1)">
       <defs>
        <path id="DejaVuSans-32" d="M 1228 531 
L 3431 531 
L 3431 0 
L 469 0 
L 469 531 
Q 828 903 1448 1529 
Q 2069 2156 2228 2338 
Q 2531 2678 2651 2914 
Q 2772 3150 2772 3378 
Q 2772 3750 2511 3984 
Q 2250 4219 1831 4219 
Q 1534 4219 1204 4116 
Q 875 4013 500 3803 
L 500 4441 
Q 881 4594 1212 4672 
Q 1544 4750 1819 4750 
Q 2544 4750 2975 4387 
Q 3406 4025 3406 3419 
Q 3406 3131 3298 2873 
Q 3191 2616 2906 2266 
Q 2828 2175 2409 1742 
Q 1991 1309 1228 531 
z
" transform="scale(0.015625)"/>
       </defs>
       <use xlink:href="#DejaVuSans-32"/>
      </g>
     </g>
    </g>
    <g id="ytick_4">
     <g id="line2d_5">
      <g>
       <use xlink:href="#m89df329c85" x="72" y="252.524283" style="stroke: #000000; stroke-width: 0.8"/>
      </g>
     </g>
     <g id="text_5">
      <!-- 3 -->
      <g transform="translate(58.6375 256.323502) scale(0.1 -0.1)">
       <defs>
        <path id="DejaVuSans-33" d="M 2597 2516 
Q 3050 2419 3304 2112 
Q 3559 1806 3559 1356 
Q 3559 666 3084 287 
Q 2609 -91 1734 -91 
Q 1441 -91 1130 -33 
Q 819 25 488 141 
L 488 750 
Q 750 597 1062 519 
Q 1375 441 1716 441 
Q 2309 441 2620 675 
Q 2931 909 2931 1356 
Q 2931 1769 2642 2001 
Q 2353 2234 1838 2234 
L 1294 2234 
L 1294 2753 
L 1863 2753 
Q 2328 2753 2575 2939 
Q 2822 3125 2822 3475 
Q 2822 3834 2567 4026 
Q 2313 4219 1838 4219 
Q 1578 4219 1281 4162 
Q 984 4106 628 3988 
L 628 4550 
Q 988 4650 1302 4700 
Q 1616 4750 1894 4750 
Q 2613 4750 3031 4423 
Q 3450 4097 3450 3541 
Q 3450 3153 3228 2886 
Q 3006 2619 2597 2516 
z
" transform="scale(0.015625)"/>
       </defs>
       <use xlink:href="#DejaVuSans-33"/>
      </g>
     </g>
    </g>
    <g id="ytick_5">
     <g id="line2d_6">
      <g>
       <use xlink:href="#m89df329c85" x="72" y="208.539044" style="stroke: #000000; stroke-width: 0.8"/>
      </g>
     </g>
     <g id="text_6">
      <!-- 4 -->
      <g transform="translate(58.6375 212.338263) scale(0.1 -0.1)">
       <defs>
        <path id="DejaVuSans-34" d="M 2419 4116 
L 825 1625 
L 2419 1625 
L 2419 4116 
z
M 2253 4666 
L 3047 4666 
L 3047 1625 
L 3713 1625 
L 3713 1100 
L 3047 1100 
L 3047 0 
L 2419 0 
L 2419 1100 
L 313 1100 
L 313 1709 
L 2253 4666 
z
" transform="scale(0.015625)"/>
       </defs>
       <use xlink:href="#DejaVuSans-34"/>
      </g>
     </g>
    </g>
    <g id="ytick_6">
     <g id="line2d_7">
      <g>
       <use xlink:href="#m89df329c85" x="72" y="164.553805" style="stroke: #000000; stroke-width: 0.8"/>
      </g>
     </g>
     <g id="text_7">
      <!-- 5 -->
      <g transform="translate(58.6375 168.353023) scale(0.1 -0.1)">
       <defs>
        <path id="DejaVuSans-35" d="M 691 4666 
L 3169 4666 
L 3169 4134 
L 1269 4134 
L 1269 2991 
Q 1406 3038 1543 3061 
Q 1681 3084 1819 3084 
Q 2600 3084 3056 2656 
Q 3513 2228 3513 1497 
Q 3513 744 3044 326 
Q 2575 -91 1722 -91 
Q 1428 -91 1123 -41 
Q 819 9 494 109 
L 494 744 
Q 775 591 1075 516 
Q 1375 441 1709 441 
Q 2250 441 2565 725 
Q 2881 1009 2881 1497 
Q 2881 1984 2565 2268 
Q 2250 2553 1709 2553 
Q 1456 2553 1204 2497 
Q 953 2441 691 2322 
L 691 4666 
z
" transform="scale(0.015625)"/>
       </defs>
       <use xlink:href="#DejaVuSans-35"/>
      </g>
     </g>
    </g>
    <g id="ytick_7">
     <g id="line2d_8">
      <g>
       <use xlink:href="#m89df329c85" x="72" y="120.568566" style="stroke: #000000; stroke-width: 0.8"/>
      </g>
     </g>
     <g id="text_8">
      <!-- 6 -->
      <g transform="translate(58.6375 124.367784) scale(0.1 -0.1)">
       <defs>
        <path id="DejaVuSans-36" d="M 2113 2584 
Q 1688 2584 1439 2293 
Q 1191 2003 1191 1497 
Q 1191 994 1439 701 
Q 1688 409 2113 409 
Q 2538 409 2786 701 
Q 3034 994 3034 1497 
Q 3034 2003 2786 2293 
Q 2538 2584 2113 2584 
z
M 3366 4563 
L 3366 3988 
Q 3128 4100 2886 4159 
Q 2644 4219 2406 4219 
Q 1781 4219 1451 3797 
Q 1122 3375 1075 2522 
Q 1259 2794 1537 2939 
Q 1816 3084 2150 3084 
Q 2853 3084 3261 2657 
Q 3669 2231 3669 1497 
Q 3669 778 3244 343 
Q 2819 -91 2113 -91 
Q 1303 -91 875 529 
Q 447 1150 447 2328 
Q 447 3434 972 4092 
Q 1497 4750 2381 4750 
Q 2619 4750 2861 4703 
Q 3103 4656 3366 4563 
z
" transform="scale(0.015625)"/>
       </defs>
       <use xlink:href="#DejaVuSans-36"/>
      </g>
     </g>
    </g>
    <g id="ytick_8">
     <g id="line2d_9">
      <g>
       <use xlink:href="#m89df329c85" x="72" y="76.583327" style="stroke: #000000; stroke-width: 0.8"/>
      </g>
     </g>
     <g id="text_9">
      <!-- 7 -->
      <g transform="translate(58.6375 80.382545) scale(0.1 -0.1)">
       <defs>
        <path id="DejaVuSans-37" d="M 525 4666 
L 3525 4666 
L 3525 4397 
L 1831 0 
L 1172 0 
L 2766 4134 
L 525 4134 
L 525 4666 
z
" transform="scale(0.015625)"/>
       </defs>
       <use xlink:href="#DejaVuSans-37"/>
      </g>
     </g>
    </g>
    <g id="text_10">
     <!-- Time (ms) -->
     <g transform="translate(52.557812 243.359219) rotate(-90) scale(0.1 -0.1)">
      <defs>
       <path id="DejaVuSans-54" d="M -19 4666 
L 3928 4666 
L 3928 4134 
L 2272 4134 
L 2272 0 
L 1638 0 
L 1638 4134 
L -19 4134 
L -19 4666 
z
" transform="scale(0.015625)"/>
       <path id="DejaVuSans-69" d="M 603 3500 
L 1178 3500 
L 1178 0 
L 603 0 
L 603 3500 
z
M 603 4863 
L 1178 4863 
L 1178 4134 
L 603 4134 
L 603 4863 
z
" transform="scale(0.015625)"/>
       <path id="DejaVuSans-6d" d="M 3328 2828 
Q 3544 3216 3844 3400 
Q 4144 3584 4550 3584 
Q 5097 3584 5394 3201 
Q 5691 2819 5691 2113 
L 5691 0 
L 5113 0 
L 5113 2094 
Q 5113 2597 4934 2840 
Q 4756 3084 4391 3084 
Q 3944 3084 3684 2787 
Q 3425 2491 3425 1978 
L 3425 0 
L 2847 0 
L 2847 2094 
Q 2847 2600 2669 2842 
Q 2491 3084 2119 3084 
Q 1678 3084 1418 2786 
Q 1159 2488 1159 1978 
L 1159 0 
L 581 0 
L 581 3500 
L 1159 3500 
L 1159 2956 
Q 1356 3278 1631 3431 
Q 1906 3584 2284 3584 
Q 2666 3584 2933 3390 
Q 3200 3197 3328 2828 
z
" transform="scale(0.015625)"/>
       <path id="DejaVuSans-65" d="M 3597 1894 
L 3597 1613 
L 953 1613 
Q 991 1019 1311 708 
Q 1631 397 2203 397 
Q 2534 397 2845 478 
Q 3156 559 3463 722 
L 3463 178 
Q 3153 47 2828 -22 
Q 2503 -91 2169 -91 
Q 1331 -91 842 396 
Q 353 884 353 1716 
Q 353 2575 817 3079 
Q 1281 3584 2069 3584 
Q 2775 3584 3186 3129 
Q 3597 2675 3597 1894 
z
M 3022 2063 
Q 3016 2534 2758 2815 
Q 2500 3097 2075 3097 
Q 1594 3097 1305 2825 
Q 1016 2553 972 2059 
L 3022 2063 
z
" transform="scale(0.015625)"/>
       <path id="DejaVuSans-20" transform="scale(0.015625)"/>
       <path id="DejaVuSans-28" d="M 1984 4856 
Q 1566 4138 1362 3434 
Q 1159 2731 1159 2009 
Q 1159 1288 1364 580 
Q 1569 -128 1984 -844 
L 1484 -844 
Q 1016 -109 783 600 
Q 550 1309 550 2009 
Q 550 2706 781 3412 
Q 1013 4119 1484 4856 
L 1984 4856 
z
" transform="scale(0.015625)"/>
       <path id="DejaVuSans-73" d="M 2834 3397 
L 2834 2853 
Q 2591 2978 2328 3040 
Q 2066 3103 1784 3103 
Q 1356 3103 1142 2972 
Q 928 2841 928 2578 
Q 928 2378 1081 2264 
Q 1234 2150 1697 2047 
L 1894 2003 
Q 2506 1872 2764 1633 
Q 3022 1394 3022 966 
Q 3022 478 2636 193 
Q 2250 -91 1575 -91 
Q 1294 -91 989 -36 
Q 684 19 347 128 
L 347 722 
Q 666 556 975 473 
Q 1284 391 1588 391 
Q 1994 391 2212 530 
Q 2431 669 2431 922 
Q 2431 1156 2273 1281 
Q 2116 1406 1581 1522 
L 1381 1569 
Q 847 1681 609 1914 
Q 372 2147 372 2553 
Q 372 3047 722 3315 
Q 1072 3584 1716 3584 
Q 2034 3584 2315 3537 
Q 2597 3491 2834 3397 
z
" transform="scale(0.015625)"/>
       <path id="DejaVuSans-29" d="M 513 4856 
L 1013 4856 
Q 1481 4119 1714 3412 
Q 1947 2706 1947 2009 
Q 1947 1309 1714 600 
Q 1481 -109 1013 -844 
L 513 -844 
Q 928 -128 1133 580 
Q 1338 1288 1338 2009 
Q 1338 2731 1133 3434 
Q 928 4138 513 4856 
z
" transform="scale(0.015625)"/>
      </defs>
      <use xlink:href="#DejaVuSans-54"/>
      <use xlink:href="#DejaVuSans-69" transform="translate(57.958984 0)"/>
      <use xlink:href="#DejaVuSans-6d" transform="translate(85.742188 0)"/>
      <use xlink:href="#DejaVuSans-65" transform="translate(183.154297 0)"/>
      <use xlink:href="#DejaVuSans-20" transform="translate(244.677734 0)"/>
      <use xlink:href="#DejaVuSans-28" transform="translate(276.464844 0)"/>
      <use xlink:href="#DejaVuSans-6d" transform="translate(315.478516 0)"/>
      <use xlink:href="#DejaVuSans-73" transform="translate(412.890625 0)"/>
      <use xlink:href="#DejaVuSans-29" transform="translate(464.990234 0)"/>
     </g>
    </g>
   </g>
   <g id="LineCollection_1">
    <path d="M 239.4 375.493514 
L 351 375.493514 
" clip-path="url(#pfdaf9f6618)" style="fill: none; stroke: #1f77b4; stroke-width: 1.5"/>
   </g>
   <g id="LineCollection_2">
    <path d="M 239.4 67.658238 
L 351 67.658238 
" clip-path="url(#pfdaf9f6618)" style="fill: none; stroke: #1f77b4; stroke-width: 1.5"/>
   </g>
   <g id="LineCollection_3">
    <path d="M 239.4 384.022993 
L 351 384.022993 
" clip-path="url(#pfdaf9f6618)" style="fill: none; stroke: #1f77b4; stroke-width: 1.5"/>
   </g>
   <g id="LineCollection_4">
    <path d="M 295.2 384.022993 
L 295.2 67.658238 
" clip-path="url(#pfdaf9f6618)" style="fill: none; stroke: #1f77b4; stroke-width: 1.5"/>
   </g>
   <g id="patch_3">
    <path d="M 250.56 380.039943 
L 339.84 380.039943 
L 339.84 377.070939 
L 250.56 377.070939 
L 250.56 380.039943 
z
" clip-path="url(#pfdaf9f6618)" style="fill: #1f77b4; stroke: #000000; stroke-linejoin: miter"/>
   </g>
   <g id="line2d_10">
    <path d="M 295.2 380.039943 
L 295.2 384.022993 
" clip-path="url(#pfdaf9f6618)" style="fill: none; stroke: #000000; stroke-linecap: square"/>
   </g>
   <g id="line2d_11">
    <path d="M 295.2 377.070939 
L 295.2 372.620216 
" clip-path="url(#pfdaf9f6618)" style="fill: none; stroke: #000000; stroke-linecap: square"/>
   </g>
   <g id="line2d_12">
    <path d="M 272.88 384.022993 
L 317.52 384.022993 
" clip-path="url(#pfdaf9f6618)" style="fill: none; stroke: #000000; stroke-linecap: square"/>
   </g>
   <g id="line2d_13">
    <path d="M 272.88 372.620216 
L 317.52 372.620216 
" clip-path="url(#pfdaf9f6618)" style="fill: none; stroke: #000000; stroke-linecap: square"/>
   </g>
   <g id="line2d_14">
    <defs>
     <path id="m7cc3cb1432" d="M 0 3 
C 0.795609 3 1.55874 2.683901 2.12132 2.12132 
C 2.683901 1.55874 3 0.795609 3 0 
C 3 -0.795609 2.683901 -1.55874 2.12132 -2.12132 
C 1.55874 -2.683901 0.795609 -3 0 -3 
C -0.795609 -3 -1.55874 -2.683901 -2.12132 -2.12132 
C -2.683901 -1.55874 -3 -0.795609 -3 0 
C -3 0.795609 -2.683901 1.55874 -2.12132 2.12132 
C -1.55874 2.683901 -0.795609 3 0 3 
z
" style="stroke: #000000"/>
    </defs>
    <g clip-path="url(#pfdaf9f6618)">
     <use xlink:href="#m7cc3cb1432" x="295.2" y="355.662367" style="fill-opacity: 0; stroke: #000000"/>
     <use xlink:href="#m7cc3cb1432" x="295.2" y="350.135402" style="fill-opacity: 0; stroke: #000000"/>
     <use xlink:href="#m7cc3cb1432" x="295.2" y="316.566263" style="fill-opacity: 0; stroke: #000000"/>
     <use xlink:href="#m7cc3cb1432" x="295.2" y="314.291698" style="fill-opacity: 0; stroke: #000000"/>
     <use xlink:href="#m7cc3cb1432" x="295.2" y="331.881659" style="fill-opacity: 0; stroke: #000000"/>
     <use xlink:href="#m7cc3cb1432" x="295.2" y="355.197003" style="fill-opacity: 0; stroke: #000000"/>
     <use xlink:href="#m7cc3cb1432" x="295.2" y="350.276594" style="fill-opacity: 0; stroke: #000000"/>
     <use xlink:href="#m7cc3cb1432" x="295.2" y="361.502947" style="fill-opacity: 0; stroke: #000000"/>
     <use xlink:href="#m7cc3cb1432" x="295.2" y="316.171452" style="fill-opacity: 0; stroke: #000000"/>
     <use xlink:href="#m7cc3cb1432" x="295.2" y="348.760335" style="fill-opacity: 0; stroke: #000000"/>
     <use xlink:href="#m7cc3cb1432" x="295.2" y="309.614528" style="fill-opacity: 0; stroke: #000000"/>
     <use xlink:href="#m7cc3cb1432" x="295.2" y="323.170471" style="fill-opacity: 0; stroke: #000000"/>
     <use xlink:href="#m7cc3cb1432" x="295.2" y="296.794502" style="fill-opacity: 0; stroke: #000000"/>
     <use xlink:href="#m7cc3cb1432" x="295.2" y="317.500554" style="fill-opacity: 0; stroke: #000000"/>
     <use xlink:href="#m7cc3cb1432" x="295.2" y="304.288575" style="fill-opacity: 0; stroke: #000000"/>
     <use xlink:href="#m7cc3cb1432" x="295.2" y="303.575135" style="fill-opacity: 0; stroke: #000000"/>
     <use xlink:href="#m7cc3cb1432" x="295.2" y="319.792668" style="fill-opacity: 0; stroke: #000000"/>
     <use xlink:href="#m7cc3cb1432" x="295.2" y="329.0436" style="fill-opacity: 0; stroke: #000000"/>
     <use xlink:href="#m7cc3cb1432" x="295.2" y="325.757331" style="fill-opacity: 0; stroke: #000000"/>
     <use xlink:href="#m7cc3cb1432" x="295.2" y="344.877186" style="fill-opacity: 0; stroke: #000000"/>
     <use xlink:href="#m7cc3cb1432" x="295.2" y="311.55221" style="fill-opacity: 0; stroke: #000000"/>
     <use xlink:href="#m7cc3cb1432" x="295.2" y="331.244225" style="fill-opacity: 0; stroke: #000000"/>
     <use xlink:href="#m7cc3cb1432" x="295.2" y="316.390234" style="fill-opacity: 0; stroke: #000000"/>
     <use xlink:href="#m7cc3cb1432" x="295.2" y="333.623519" style="fill-opacity: 0; stroke: #000000"/>
     <use xlink:href="#m7cc3cb1432" x="295.2" y="332.476824" style="fill-opacity: 0; stroke: #000000"/>
     <use xlink:href="#m7cc3cb1432" x="295.2" y="342.127537" style="fill-opacity: 0; stroke: #000000"/>
     <use xlink:href="#m7cc3cb1432" x="295.2" y="316.021242" style="fill-opacity: 0; stroke: #000000"/>
     <use xlink:href="#m7cc3cb1432" x="295.2" y="344.545494" style="fill-opacity: 0; stroke: #000000"/>
     <use xlink:href="#m7cc3cb1432" x="295.2" y="330.686053" style="fill-opacity: 0; stroke: #000000"/>
     <use xlink:href="#m7cc3cb1432" x="295.2" y="353.707575" style="fill-opacity: 0; stroke: #000000"/>
     <use xlink:href="#m7cc3cb1432" x="295.2" y="329.69291" style="fill-opacity: 0; stroke: #000000"/>
     <use xlink:href="#m7cc3cb1432" x="295.2" y="351.439608" style="fill-opacity: 0; stroke: #000000"/>
     <use xlink:href="#m7cc3cb1432" x="295.2" y="67.658238" style="fill-opacity: 0; stroke: #000000"/>
     <use xlink:href="#m7cc3cb1432" x="295.2" y="368.87694" style="fill-opacity: 0; stroke: #000000"/>
     <use xlink:href="#m7cc3cb1432" x="295.2" y="361.751024" style="fill-opacity: 0; stroke: #000000"/>
     <use xlink:href="#m7cc3cb1432" x="295.2" y="372.507174" style="fill-opacity: 0; stroke: #000000"/>
     <use xlink:href="#m7cc3cb1432" x="295.2" y="353.851407" style="fill-opacity: 0; stroke: #000000"/>
     <use xlink:href="#m7cc3cb1432" x="295.2" y="358.837353" style="fill-opacity: 0; stroke: #000000"/>
     <use xlink:href="#m7cc3cb1432" x="295.2" y="368.194685" style="fill-opacity: 0; stroke: #000000"/>
     <use xlink:href="#m7cc3cb1432" x="295.2" y="368.066248" style="fill-opacity: 0; stroke: #000000"/>
     <use xlink:href="#m7cc3cb1432" x="295.2" y="369.838062" style="fill-opacity: 0; stroke: #000000"/>
     <use xlink:href="#m7cc3cb1432" x="295.2" y="368.254065" style="fill-opacity: 0; stroke: #000000"/>
     <use xlink:href="#m7cc3cb1432" x="295.2" y="350.398829" style="fill-opacity: 0; stroke: #000000"/>
     <use xlink:href="#m7cc3cb1432" x="295.2" y="364.12284" style="fill-opacity: 0; stroke: #000000"/>
     <use xlink:href="#m7cc3cb1432" x="295.2" y="364.487037" style="fill-opacity: 0; stroke: #000000"/>
     <use xlink:href="#m7cc3cb1432" x="295.2" y="362.759649" style="fill-opacity: 0; stroke: #000000"/>
     <use xlink:href="#m7cc3cb1432" x="295.2" y="361.67097" style="fill-opacity: 0; stroke: #000000"/>
     <use xlink:href="#m7cc3cb1432" x="295.2" y="364.852555" style="fill-opacity: 0; stroke: #000000"/>
     <use xlink:href="#m7cc3cb1432" x="295.2" y="350.339053" style="fill-opacity: 0; stroke: #000000"/>
     <use xlink:href="#m7cc3cb1432" x="295.2" y="372.259537" style="fill-opacity: 0; stroke: #000000"/>
     <use xlink:href="#m7cc3cb1432" x="295.2" y="372.200157" style="fill-opacity: 0; stroke: #000000"/>
     <use xlink:href="#m7cc3cb1432" x="295.2" y="370.032037" style="fill-opacity: 0; stroke: #000000"/>
     <use xlink:href="#m7cc3cb1432" x="295.2" y="365.361904" style="fill-opacity: 0; stroke: #000000"/>
     <use xlink:href="#m7cc3cb1432" x="295.2" y="361.354717" style="fill-opacity: 0; stroke: #000000"/>
     <use xlink:href="#m7cc3cb1432" x="295.2" y="367.534423" style="fill-opacity: 0; stroke: #000000"/>
     <use xlink:href="#m7cc3cb1432" x="295.2" y="372.010097" style="fill-opacity: 0; stroke: #000000"/>
     <use xlink:href="#m7cc3cb1432" x="295.2" y="369.987172" style="fill-opacity: 0; stroke: #000000"/>
     <use xlink:href="#m7cc3cb1432" x="295.2" y="372.186522" style="fill-opacity: 0; stroke: #000000"/>
     <use xlink:href="#m7cc3cb1432" x="295.2" y="372.018058" style="fill-opacity: 0; stroke: #000000"/>
     <use xlink:href="#m7cc3cb1432" x="295.2" y="368.191166" style="fill-opacity: 0; stroke: #000000"/>
     <use xlink:href="#m7cc3cb1432" x="295.2" y="367.592483" style="fill-opacity: 0; stroke: #000000"/>
     <use xlink:href="#m7cc3cb1432" x="295.2" y="365.065443" style="fill-opacity: 0; stroke: #000000"/>
     <use xlink:href="#m7cc3cb1432" x="295.2" y="371.756786" style="fill-opacity: 0; stroke: #000000"/>
     <use xlink:href="#m7cc3cb1432" x="295.2" y="372.128021" style="fill-opacity: 0; stroke: #000000"/>
     <use xlink:href="#m7cc3cb1432" x="295.2" y="372.221666" style="fill-opacity: 0; stroke: #000000"/>
     <use xlink:href="#m7cc3cb1432" x="295.2" y="371.307213" style="fill-opacity: 0; stroke: #000000"/>
     <use xlink:href="#m7cc3cb1432" x="295.2" y="369.815629" style="fill-opacity: 0; stroke: #000000"/>
     <use xlink:href="#m7cc3cb1432" x="295.2" y="372.319797" style="fill-opacity: 0; stroke: #000000"/>
     <use xlink:href="#m7cc3cb1432" x="295.2" y="371.28654" style="fill-opacity: 0; stroke: #000000"/>
     <use xlink:href="#m7cc3cb1432" x="295.2" y="371.996505" style="fill-opacity: 0; stroke: #000000"/>
     <use xlink:href="#m7cc3cb1432" x="295.2" y="371.178292" style="fill-opacity: 0; stroke: #000000"/>
     <use xlink:href="#m7cc3cb1432" x="295.2" y="367.961124" style="fill-opacity: 0; stroke: #000000"/>
     <use xlink:href="#m7cc3cb1432" x="295.2" y="371.532417" style="fill-opacity: 0; stroke: #000000"/>
     <use xlink:href="#m7cc3cb1432" x="295.2" y="366.656917" style="fill-opacity: 0; stroke: #000000"/>
     <use xlink:href="#m7cc3cb1432" x="295.2" y="111.651834" style="fill-opacity: 0; stroke: #000000"/>
     <use xlink:href="#m7cc3cb1432" x="295.2" y="370.576618" style="fill-opacity: 0; stroke: #000000"/>
     <use xlink:href="#m7cc3cb1432" x="295.2" y="371.959074" style="fill-opacity: 0; stroke: #000000"/>
     <use xlink:href="#m7cc3cb1432" x="295.2" y="283.091341" style="fill-opacity: 0; stroke: #000000"/>
     <use xlink:href="#m7cc3cb1432" x="295.2" y="372.082408" style="fill-opacity: 0; stroke: #000000"/>
     <use xlink:href="#m7cc3cb1432" x="295.2" y="365.27666" style="fill-opacity: 0; stroke: #000000"/>
     <use xlink:href="#m7cc3cb1432" x="295.2" y="284.299791" style="fill-opacity: 0; stroke: #000000"/>
     <use xlink:href="#m7cc3cb1432" x="295.2" y="281.301098" style="fill-opacity: 0; stroke: #000000"/>
    </g>
   </g>
   <g id="line2d_15">
    <path d="M 250.56 378.932516 
L 339.84 378.932516 
" clip-path="url(#pfdaf9f6618)" style="fill: none; stroke: #ff7f0e"/>
   </g>
   <g id="patch_4">
    <path d="M 72 384.48 
L 72 51.84 
" style="fill: none; stroke: #000000; stroke-width: 0.8; stroke-linejoin: miter; stroke-linecap: square"/>
   </g>
   <g id="patch_5">
    <path d="M 518.4 384.48 
L 518.4 51.84 
" style="fill: none; stroke: #000000; stroke-width: 0.8; stroke-linejoin: miter; stroke-linecap: square"/>
   </g>
   <g id="patch_6">
    <path d="M 72 384.48 
L 518.4 384.48 
" style="fill: none; stroke: #000000; stroke-width: 0.8; stroke-linejoin: miter; stroke-linecap: square"/>
   </g>
   <g id="patch_7">
    <path d="M 72 51.84 
L 518.4 51.84 
" style="fill: none; stroke: #000000; stroke-width: 0.8; stroke-linejoin: miter; stroke-linecap: square"/>
   </g>
   <g id="text_11">
    <!-- getExpectedPoints -->
    <g transform="translate(239.3325 45.84) scale(0.12 -0.12)">
     <defs>
      <path id="DejaVuSans-67" d="M 2906 1791 
Q 2906 2416 2648 2759 
Q 2391 3103 1925 3103 
Q 1463 3103 1205 2759 
Q 947 2416 947 1791 
Q 947 1169 1205 825 
Q 1463 481 1925 481 
Q 2391 481 2648 825 
Q 2906 1169 2906 1791 
z
M 3481 434 
Q 3481 -459 3084 -895 
Q 2688 -1331 1869 -1331 
Q 1566 -1331 1297 -1286 
Q 1028 -1241 775 -1147 
L 775 -588 
Q 1028 -725 1275 -790 
Q 1522 -856 1778 -856 
Q 2344 -856 2625 -561 
Q 2906 -266 2906 331 
L 2906 616 
Q 2728 306 2450 153 
Q 2172 0 1784 0 
Q 1141 0 747 490 
Q 353 981 353 1791 
Q 353 2603 747 3093 
Q 1141 3584 1784 3584 
Q 2172 3584 2450 3431 
Q 2728 3278 2906 2969 
L 2906 3500 
L 3481 3500 
L 3481 434 
z
" transform="scale(0.015625)"/>
      <path id="DejaVuSans-74" d="M 1172 4494 
L 1172 3500 
L 2356 3500 
L 2356 3053 
L 1172 3053 
L 1172 1153 
Q 1172 725 1289 603 
Q 1406 481 1766 481 
L 2356 481 
L 2356 0 
L 1766 0 
Q 1100 0 847 248 
Q 594 497 594 1153 
L 594 3053 
L 172 3053 
L 172 3500 
L 594 3500 
L 594 4494 
L 1172 4494 
z
" transform="scale(0.015625)"/>
      <path id="DejaVuSans-45" d="M 628 4666 
L 3578 4666 
L 3578 4134 
L 1259 4134 
L 1259 2753 
L 3481 2753 
L 3481 2222 
L 1259 2222 
L 1259 531 
L 3634 531 
L 3634 0 
L 628 0 
L 628 4666 
z
" transform="scale(0.015625)"/>
      <path id="DejaVuSans-78" d="M 3513 3500 
L 2247 1797 
L 3578 0 
L 2900 0 
L 1881 1375 
L 863 0 
L 184 0 
L 1544 1831 
L 300 3500 
L 978 3500 
L 1906 2253 
L 2834 3500 
L 3513 3500 
z
" transform="scale(0.015625)"/>
      <path id="DejaVuSans-70" d="M 1159 525 
L 1159 -1331 
L 581 -1331 
L 581 3500 
L 1159 3500 
L 1159 2969 
Q 1341 3281 1617 3432 
Q 1894 3584 2278 3584 
Q 2916 3584 3314 3078 
Q 3713 2572 3713 1747 
Q 3713 922 3314 415 
Q 2916 -91 2278 -91 
Q 1894 -91 1617 61 
Q 1341 213 1159 525 
z
M 3116 1747 
Q 3116 2381 2855 2742 
Q 2594 3103 2138 3103 
Q 1681 3103 1420 2742 
Q 1159 2381 1159 1747 
Q 1159 1113 1420 752 
Q 1681 391 2138 391 
Q 2594 391 2855 752 
Q 3116 1113 3116 1747 
z
" transform="scale(0.015625)"/>
      <path id="DejaVuSans-63" d="M 3122 3366 
L 3122 2828 
Q 2878 2963 2633 3030 
Q 2388 3097 2138 3097 
Q 1578 3097 1268 2742 
Q 959 2388 959 1747 
Q 959 1106 1268 751 
Q 1578 397 2138 397 
Q 2388 397 2633 464 
Q 2878 531 3122 666 
L 3122 134 
Q 2881 22 2623 -34 
Q 2366 -91 2075 -91 
Q 1284 -91 818 406 
Q 353 903 353 1747 
Q 353 2603 823 3093 
Q 1294 3584 2113 3584 
Q 2378 3584 2631 3529 
Q 2884 3475 3122 3366 
z
" transform="scale(0.015625)"/>
      <path id="DejaVuSans-64" d="M 2906 2969 
L 2906 4863 
L 3481 4863 
L 3481 0 
L 2906 0 
L 2906 525 
Q 2725 213 2448 61 
Q 2172 -91 1784 -91 
Q 1150 -91 751 415 
Q 353 922 353 1747 
Q 353 2572 751 3078 
Q 1150 3584 1784 3584 
Q 2172 3584 2448 3432 
Q 2725 3281 2906 2969 
z
M 947 1747 
Q 947 1113 1208 752 
Q 1469 391 1925 391 
Q 2381 391 2643 752 
Q 2906 1113 2906 1747 
Q 2906 2381 2643 2742 
Q 2381 3103 1925 3103 
Q 1469 3103 1208 2742 
Q 947 2381 947 1747 
z
" transform="scale(0.015625)"/>
      <path id="DejaVuSans-50" d="M 1259 4147 
L 1259 2394 
L 2053 2394 
Q 2494 2394 2734 2622 
Q 2975 2850 2975 3272 
Q 2975 3691 2734 3919 
Q 2494 4147 2053 4147 
L 1259 4147 
z
M 628 4666 
L 2053 4666 
Q 2838 4666 3239 4311 
Q 3641 3956 3641 3272 
Q 3641 2581 3239 2228 
Q 2838 1875 2053 1875 
L 1259 1875 
L 1259 0 
L 628 0 
L 628 4666 
z
" transform="scale(0.015625)"/>
      <path id="DejaVuSans-6f" d="M 1959 3097 
Q 1497 3097 1228 2736 
Q 959 2375 959 1747 
Q 959 1119 1226 758 
Q 1494 397 1959 397 
Q 2419 397 2687 759 
Q 2956 1122 2956 1747 
Q 2956 2369 2687 2733 
Q 2419 3097 1959 3097 
z
M 1959 3584 
Q 2709 3584 3137 3096 
Q 3566 2609 3566 1747 
Q 3566 888 3137 398 
Q 2709 -91 1959 -91 
Q 1206 -91 779 398 
Q 353 888 353 1747 
Q 353 2609 779 3096 
Q 1206 3584 1959 3584 
z
" transform="scale(0.015625)"/>
      <path id="DejaVuSans-6e" d="M 3513 2113 
L 3513 0 
L 2938 0 
L 2938 2094 
Q 2938 2591 2744 2837 
Q 2550 3084 2163 3084 
Q 1697 3084 1428 2787 
Q 1159 2491 1159 1978 
L 1159 0 
L 581 0 
L 581 3500 
L 1159 3500 
L 1159 2956 
Q 1366 3272 1645 3428 
Q 1925 3584 2291 3584 
Q 2894 3584 3203 3211 
Q 3513 2838 3513 2113 
z
" transform="scale(0.015625)"/>
     </defs>
     <use xlink:href="#DejaVuSans-67"/>
     <use xlink:href="#DejaVuSans-65" transform="translate(63.476562 0)"/>
     <use xlink:href="#DejaVuSans-74" transform="translate(125 0)"/>
     <use xlink:href="#DejaVuSans-45" transform="translate(164.208984 0)"/>
     <use xlink:href="#DejaVuSans-78" transform="translate(227.392578 0)"/>
     <use xlink:href="#DejaVuSans-70" transform="translate(286.572266 0)"/>
     <use xlink:href="#DejaVuSans-65" transform="translate(350.048828 0)"/>
     <use xlink:href="#DejaVuSans-63" transform="translate(411.572266 0)"/>
     <use xlink:href="#DejaVuSans-74" transform="translate(466.552734 0)"/>
     <use xlink:href="#DejaVuSans-65" transform="translate(505.761719 0)"/>
     <use xlink:href="#DejaVuSans-64" transform="translate(567.285156 0)"/>
     <use xlink:href="#DejaVuSans-50" transform="translate(630.761719 0)"/>
     <use xlink:href="#DejaVuSans-6f" transform="translate(687.439453 0)"/>
     <use xlink:href="#DejaVuSans-69" transform="translate(748.621094 0)"/>
     <use xlink:href="#DejaVuSans-6e" transform="translate(776.404297 0)"/>
     <use xlink:href="#DejaVuSans-74" transform="translate(839.783203 0)"/>
     <use xlink:href="#DejaVuSans-73" transform="translate(878.992188 0)"/>
    </g>
   </g>
  </g>
 </g>
 <defs>
  <clipPath id="pfdaf9f6618">
   <rect x="72" y="51.84" width="446.4" height="332.64"/>
  </clipPath>
 </defs>
</svg>
