<?xml version="1.0" encoding="utf-8" standalone="no"?>
<!DOCTYPE svg PUBLIC "-//W3C//DTD SVG 1.1//EN"
  "http://www.w3.org/Graphics/SVG/1.1/DTD/svg11.dtd">
<svg xmlns:xlink="http://www.w3.org/1999/xlink" width="720pt" height="432pt" viewBox="0 0 720 432" xmlns="http://www.w3.org/2000/svg" version="1.1">
 <metadata>
  <rdf:RDF xmlns:dc="http://purl.org/dc/elements/1.1/" xmlns:cc="http://creativecommons.org/ns#" xmlns:rdf="http://www.w3.org/1999/02/22-rdf-syntax-ns#">
   <cc:Work>
    <dc:type rdf:resource="http://purl.org/dc/dcmitype/StillImage"/>
    <dc:date>2025-09-30T20:46:13.785595</dc:date>
    <dc:format>image/svg+xml</dc:format>
    <dc:creator>
     <cc:Agent>
      <dc:title>Matplotlib v3.10.3, https://matplotlib.org/</dc:title>
     </cc:Agent>
    </dc:creator>
   </cc:Work>
  </rdf:RDF>
 </metadata>
 <defs>
  <style type="text/css">*{stroke-linejoin: round; stroke-linecap: butt}</style>
 </defs>
 <g id="figure_1">
  <g id="patch_1">
   <path d="M 0 432 
L 720 432 
L 720 0 
L 0 0 
z
" style="fill: #ffffff"/>
  </g>
  <g id="axes_1">
   <g id="patch_2">
    <path d="M 90 384.48 
L 648 384.48 
L 648 51.84 
L 90 51.84 
z
" style="fill: #ffffff"/>
   </g>
   <g id="matplotlib.axis_1">
    <g id="xtick_1">
     <g id="line2d_1">
      <defs>
       <path id="me4f034f0e2" d="M 0 0 
L 0 3.5 
" style="stroke: #000000; stroke-width: 0.8"/>
      </defs>
      <g>
       <use xlink:href="#me4f034f0e2" x="115.363636" y="384.48" style="stroke: #000000; stroke-width: 0.8"/>
      </g>
     </g>
     <g id="text_1">
      <!-- 0 -->
      <g transform="translate(112.182386 399.078438) scale(0.1 -0.1)">
       <defs>
        <path id="DejaVuSans-30" d="M 2034 4250 
Q 1547 4250 1301 3770 
Q 1056 3291 1056 2328 
Q 1056 1369 1301 889 
Q 1547 409 2034 409 
Q 2525 409 2770 889 
Q 3016 1369 3016 2328 
Q 3016 3291 2770 3770 
Q 2525 4250 2034 4250 
z
M 2034 4750 
Q 2819 4750 3233 4129 
Q 3647 3509 3647 2328 
Q 3647 1150 3233 529 
Q 2819 -91 2034 -91 
Q 1250 -91 836 529 
Q 422 1150 422 2328 
Q 422 3509 836 4129 
Q 1250 4750 2034 4750 
z
" transform="scale(0.015625)"/>
       </defs>
       <use xlink:href="#DejaVuSans-30"/>
      </g>
     </g>
    </g>
    <g id="xtick_2">
     <g id="line2d_2">
      <g>
       <use xlink:href="#me4f034f0e2" x="235.144682" y="384.48" style="stroke: #000000; stroke-width: 0.8"/>
      </g>
     </g>
     <g id="text_2">
      <!-- 200 -->
      <g transform="translate(225.600932 399.078438) scale(0.1 -0.1)">
       <defs>
        <path id="DejaVuSans-32" d="M 1228 531 
L 3431 531 
L 3431 0 
L 469 0 
L 469 531 
Q 828 903 1448 1529 
Q 2069 2156 2228 2338 
Q 2531 2678 2651 2914 
Q 2772 3150 2772 3378 
Q 2772 3750 2511 3984 
Q 2250 4219 1831 4219 
Q 1534 4219 1204 4116 
Q 875 4013 500 3803 
L 500 4441 
Q 881 4594 1212 4672 
Q 1544 4750 1819 4750 
Q 2544 4750 2975 4387 
Q 3406 4025 3406 3419 
Q 3406 3131 3298 2873 
Q 3191 2616 2906 2266 
Q 2828 2175 2409 1742 
Q 1991 1309 1228 531 
z
" transform="scale(0.015625)"/>
       </defs>
       <use xlink:href="#DejaVuSans-32"/>
       <use xlink:href="#DejaVuSans-30" transform="translate(63.623047 0)"/>
       <use xlink:href="#DejaVuSans-30" transform="translate(127.246094 0)"/>
      </g>
     </g>
    </g>
    <g id="xtick_3">
     <g id="line2d_3">
      <g>
       <use xlink:href="#me4f034f0e2" x="354.925727" y="384.48" style="stroke: #000000; stroke-width: 0.8"/>
      </g>
     </g>
     <g id="text_3">
      <!-- 400 -->
      <g transform="translate(345.381977 399.078438) scale(0.1 -0.1)">
       <defs>
        <path id="DejaVuSans-34" d="M 2419 4116 
L 825 1625 
L 2419 1625 
L 2419 4116 
z
M 2253 4666 
L 3047 4666 
L 3047 1625 
L 3713 1625 
L 3713 1100 
L 3047 1100 
L 3047 0 
L 2419 0 
L 2419 1100 
L 313 1100 
L 313 1709 
L 2253 4666 
z
" transform="scale(0.015625)"/>
       </defs>
       <use xlink:href="#DejaVuSans-34"/>
       <use xlink:href="#DejaVuSans-30" transform="translate(63.623047 0)"/>
       <use xlink:href="#DejaVuSans-30" transform="translate(127.246094 0)"/>
      </g>
     </g>
    </g>
    <g id="xtick_4">
     <g id="line2d_4">
      <g>
       <use xlink:href="#me4f034f0e2" x="474.706773" y="384.48" style="stroke: #000000; stroke-width: 0.8"/>
      </g>
     </g>
     <g id="text_4">
      <!-- 600 -->
      <g transform="translate(465.163023 399.078438) scale(0.1 -0.1)">
       <defs>
        <path id="DejaVuSans-36" d="M 2113 2584 
Q 1688 2584 1439 2293 
Q 1191 2003 1191 1497 
Q 1191 994 1439 701 
Q 1688 409 2113 409 
Q 2538 409 2786 701 
Q 3034 994 3034 1497 
Q 3034 2003 2786 2293 
Q 2538 2584 2113 2584 
z
M 3366 4563 
L 3366 3988 
Q 3128 4100 2886 4159 
Q 2644 4219 2406 4219 
Q 1781 4219 1451 3797 
Q 1122 3375 1075 2522 
Q 1259 2794 1537 2939 
Q 1816 3084 2150 3084 
Q 2853 3084 3261 2657 
Q 3669 2231 3669 1497 
Q 3669 778 3244 343 
Q 2819 -91 2113 -91 
Q 1303 -91 875 529 
Q 447 1150 447 2328 
Q 447 3434 972 4092 
Q 1497 4750 2381 4750 
Q 2619 4750 2861 4703 
Q 3103 4656 3366 4563 
z
" transform="scale(0.015625)"/>
       </defs>
       <use xlink:href="#DejaVuSans-36"/>
       <use xlink:href="#DejaVuSans-30" transform="translate(63.623047 0)"/>
       <use xlink:href="#DejaVuSans-30" transform="translate(127.246094 0)"/>
      </g>
     </g>
    </g>
    <g id="xtick_5">
     <g id="line2d_5">
      <g>
       <use xlink:href="#me4f034f0e2" x="594.487818" y="384.48" style="stroke: #000000; stroke-width: 0.8"/>
      </g>
     </g>
     <g id="text_5">
      <!-- 800 -->
      <g transform="translate(584.944068 399.078438) scale(0.1 -0.1)">
       <defs>
        <path id="DejaVuSans-38" d="M 2034 2216 
Q 1584 2216 1326 1975 
Q 1069 1734 1069 1313 
Q 1069 891 1326 650 
Q 1584 409 2034 409 
Q 2484 409 2743 651 
Q 3003 894 3003 1313 
Q 3003 1734 2745 1975 
Q 2488 2216 2034 2216 
z
M 1403 2484 
Q 997 2584 770 2862 
Q 544 3141 544 3541 
Q 544 4100 942 4425 
Q 1341 4750 2034 4750 
Q 2731 4750 3128 4425 
Q 3525 4100 3525 3541 
Q 3525 3141 3298 2862 
Q 3072 2584 2669 2484 
Q 3125 2378 3379 2068 
Q 3634 1759 3634 1313 
Q 3634 634 3220 271 
Q 2806 -91 2034 -91 
Q 1263 -91 848 271 
Q 434 634 434 1313 
Q 434 1759 690 2068 
Q 947 2378 1403 2484 
z
M 1172 3481 
Q 1172 3119 1398 2916 
Q 1625 2713 2034 2713 
Q 2441 2713 2670 2916 
Q 2900 3119 2900 3481 
Q 2900 3844 2670 4047 
Q 2441 4250 2034 4250 
Q 1625 4250 1398 4047 
Q 1172 3844 1172 3481 
z
" transform="scale(0.015625)"/>
       </defs>
       <use xlink:href="#DejaVuSans-38"/>
       <use xlink:href="#DejaVuSans-30" transform="translate(63.623047 0)"/>
       <use xlink:href="#DejaVuSans-30" transform="translate(127.246094 0)"/>
      </g>
     </g>
    </g>
    <g id="text_6">
     <!-- Index -->
     <g transform="translate(355.233594 412.756563) scale(0.1 -0.1)">
      <defs>
       <path id="DejaVuSans-49" d="M 628 4666 
L 1259 4666 
L 1259 0 
L 628 0 
L 628 4666 
z
" transform="scale(0.015625)"/>
       <path id="DejaVuSans-6e" d="M 3513 2113 
L 3513 0 
L 2938 0 
L 2938 2094 
Q 2938 2591 2744 2837 
Q 2550 3084 2163 3084 
Q 1697 3084 1428 2787 
Q 1159 2491 1159 1978 
L 1159 0 
L 581 0 
L 581 3500 
L 1159 3500 
L 1159 2956 
Q 1366 3272 1645 3428 
Q 1925 3584 2291 3584 
Q 2894 3584 3203 3211 
Q 3513 2838 3513 2113 
z
" transform="scale(0.015625)"/>
       <path id="DejaVuSans-64" d="M 2906 2969 
L 2906 4863 
L 3481 4863 
L 3481 0 
L 2906 0 
L 2906 525 
Q 2725 213 2448 61 
Q 2172 -91 1784 -91 
Q 1150 -91 751 415 
Q 353 922 353 1747 
Q 353 2572 751 3078 
Q 1150 3584 1784 3584 
Q 2172 3584 2448 3432 
Q 2725 3281 2906 2969 
z
M 947 1747 
Q 947 1113 1208 752 
Q 1469 391 1925 391 
Q 2381 391 2643 752 
Q 2906 1113 2906 1747 
Q 2906 2381 2643 2742 
Q 2381 3103 1925 3103 
Q 1469 3103 1208 2742 
Q 947 2381 947 1747 
z
" transform="scale(0.015625)"/>
       <path id="DejaVuSans-65" d="M 3597 1894 
L 3597 1613 
L 953 1613 
Q 991 1019 1311 708 
Q 1631 397 2203 397 
Q 2534 397 2845 478 
Q 3156 559 3463 722 
L 3463 178 
Q 3153 47 2828 -22 
Q 2503 -91 2169 -91 
Q 1331 -91 842 396 
Q 353 884 353 1716 
Q 353 2575 817 3079 
Q 1281 3584 2069 3584 
Q 2775 3584 3186 3129 
Q 3597 2675 3597 1894 
z
M 3022 2063 
Q 3016 2534 2758 2815 
Q 2500 3097 2075 3097 
Q 1594 3097 1305 2825 
Q 1016 2553 972 2059 
L 3022 2063 
z
" transform="scale(0.015625)"/>
       <path id="DejaVuSans-78" d="M 3513 3500 
L 2247 1797 
L 3578 0 
L 2900 0 
L 1881 1375 
L 863 0 
L 184 0 
L 1544 1831 
L 300 3500 
L 978 3500 
L 1906 2253 
L 2834 3500 
L 3513 3500 
z
" transform="scale(0.015625)"/>
      </defs>
      <use xlink:href="#DejaVuSans-49"/>
      <use xlink:href="#DejaVuSans-6e" transform="translate(29.492188 0)"/>
      <use xlink:href="#DejaVuSans-64" transform="translate(92.871094 0)"/>
      <use xlink:href="#DejaVuSans-65" transform="translate(156.347656 0)"/>
      <use xlink:href="#DejaVuSans-78" transform="translate(216.121094 0)"/>
     </g>
    </g>
   </g>
   <g id="matplotlib.axis_2">
    <g id="ytick_1">
     <g id="line2d_6">
      <defs>
       <path id="m654a2ff1e7" d="M 0 0 
L -3.5 0 
" style="stroke: #000000; stroke-width: 0.8"/>
      </defs>
      <g>
       <use xlink:href="#m654a2ff1e7" x="90" y="384.48" style="stroke: #000000; stroke-width: 0.8"/>
      </g>
     </g>
     <g id="text_7">
      <!-- 0 -->
      <g transform="translate(76.6375 388.279219) scale(0.1 -0.1)">
       <use xlink:href="#DejaVuSans-30"/>
      </g>
     </g>
    </g>
    <g id="ytick_2">
     <g id="line2d_7">
      <g>
       <use xlink:href="#m654a2ff1e7" x="90" y="340.494761" style="stroke: #000000; stroke-width: 0.8"/>
      </g>
     </g>
     <g id="text_8">
      <!-- 1 -->
      <g transform="translate(76.6375 344.29398) scale(0.1 -0.1)">
       <defs>
        <path id="DejaVuSans-31" d="M 794 531 
L 1825 531 
L 1825 4091 
L 703 3866 
L 703 4441 
L 1819 4666 
L 2450 4666 
L 2450 531 
L 3481 531 
L 3481 0 
L 794 0 
L 794 531 
z
" transform="scale(0.015625)"/>
       </defs>
       <use xlink:href="#DejaVuSans-31"/>
      </g>
     </g>
    </g>
    <g id="ytick_3">
     <g id="line2d_8">
      <g>
       <use xlink:href="#m654a2ff1e7" x="90" y="296.509522" style="stroke: #000000; stroke-width: 0.8"/>
      </g>
     </g>
     <g id="text_9">
      <!-- 2 -->
      <g transform="translate(76.6375 300.308741) scale(0.1 -0.1)">
       <use xlink:href="#DejaVuSans-32"/>
      </g>
     </g>
    </g>
    <g id="ytick_4">
     <g id="line2d_9">
      <g>
       <use xlink:href="#m654a2ff1e7" x="90" y="252.524283" style="stroke: #000000; stroke-width: 0.8"/>
      </g>
     </g>
     <g id="text_10">
      <!-- 3 -->
      <g transform="translate(76.6375 256.323502) scale(0.1 -0.1)">
       <defs>
        <path id="DejaVuSans-33" d="M 2597 2516 
Q 3050 2419 3304 2112 
Q 3559 1806 3559 1356 
Q 3559 666 3084 287 
Q 2609 -91 1734 -91 
Q 1441 -91 1130 -33 
Q 819 25 488 141 
L 488 750 
Q 750 597 1062 519 
Q 1375 441 1716 441 
Q 2309 441 2620 675 
Q 2931 909 2931 1356 
Q 2931 1769 2642 2001 
Q 2353 2234 1838 2234 
L 1294 2234 
L 1294 2753 
L 1863 2753 
Q 2328 2753 2575 2939 
Q 2822 3125 2822 3475 
Q 2822 3834 2567 4026 
Q 2313 4219 1838 4219 
Q 1578 4219 1281 4162 
Q 984 4106 628 3988 
L 628 4550 
Q 988 4650 1302 4700 
Q 1616 4750 1894 4750 
Q 2613 4750 3031 4423 
Q 3450 4097 3450 3541 
Q 3450 3153 3228 2886 
Q 3006 2619 2597 2516 
z
" transform="scale(0.015625)"/>
       </defs>
       <use xlink:href="#DejaVuSans-33"/>
      </g>
     </g>
    </g>
    <g id="ytick_5">
     <g id="line2d_10">
      <g>
       <use xlink:href="#m654a2ff1e7" x="90" y="208.539044" style="stroke: #000000; stroke-width: 0.8"/>
      </g>
     </g>
     <g id="text_11">
      <!-- 4 -->
      <g transform="translate(76.6375 212.338263) scale(0.1 -0.1)">
       <use xlink:href="#DejaVuSans-34"/>
      </g>
     </g>
    </g>
    <g id="ytick_6">
     <g id="line2d_11">
      <g>
       <use xlink:href="#m654a2ff1e7" x="90" y="164.553805" style="stroke: #000000; stroke-width: 0.8"/>
      </g>
     </g>
     <g id="text_12">
      <!-- 5 -->
      <g transform="translate(76.6375 168.353023) scale(0.1 -0.1)">
       <defs>
        <path id="DejaVuSans-35" d="M 691 4666 
L 3169 4666 
L 3169 4134 
L 1269 4134 
L 1269 2991 
Q 1406 3038 1543 3061 
Q 1681 3084 1819 3084 
Q 2600 3084 3056 2656 
Q 3513 2228 3513 1497 
Q 3513 744 3044 326 
Q 2575 -91 1722 -91 
Q 1428 -91 1123 -41 
Q 819 9 494 109 
L 494 744 
Q 775 591 1075 516 
Q 1375 441 1709 441 
Q 2250 441 2565 725 
Q 2881 1009 2881 1497 
Q 2881 1984 2565 2268 
Q 2250 2553 1709 2553 
Q 1456 2553 1204 2497 
Q 953 2441 691 2322 
L 691 4666 
z
" transform="scale(0.015625)"/>
       </defs>
       <use xlink:href="#DejaVuSans-35"/>
      </g>
     </g>
    </g>
    <g id="ytick_7">
     <g id="line2d_12">
      <g>
       <use xlink:href="#m654a2ff1e7" x="90" y="120.568566" style="stroke: #000000; stroke-width: 0.8"/>
      </g>
     </g>
     <g id="text_13">
      <!-- 6 -->
      <g transform="translate(76.6375 124.367784) scale(0.1 -0.1)">
       <use xlink:href="#DejaVuSans-36"/>
      </g>
     </g>
    </g>
    <g id="ytick_8">
     <g id="line2d_13">
      <g>
       <use xlink:href="#m654a2ff1e7" x="90" y="76.583327" style="stroke: #000000; stroke-width: 0.8"/>
      </g>
     </g>
     <g id="text_14">
      <!-- 7 -->
      <g transform="translate(76.6375 80.382545) scale(0.1 -0.1)">
       <defs>
        <path id="DejaVuSans-37" d="M 525 4666 
L 3525 4666 
L 3525 4397 
L 1831 0 
L 1172 0 
L 2766 4134 
L 525 4134 
L 525 4666 
z
" transform="scale(0.015625)"/>
       </defs>
       <use xlink:href="#DejaVuSans-37"/>
      </g>
     </g>
    </g>
    <g id="text_15">
     <!-- Average time (ms) -->
     <g transform="translate(70.557812 264.543594) rotate(-90) scale(0.1 -0.1)">
      <defs>
       <path id="DejaVuSans-41" d="M 2188 4044 
L 1331 1722 
L 3047 1722 
L 2188 4044 
z
M 1831 4666 
L 2547 4666 
L 4325 0 
L 3669 0 
L 3244 1197 
L 1141 1197 
L 716 0 
L 50 0 
L 1831 4666 
z
" transform="scale(0.015625)"/>
       <path id="DejaVuSans-76" d="M 191 3500 
L 800 3500 
L 1894 563 
L 2988 3500 
L 3597 3500 
L 2284 0 
L 1503 0 
L 191 3500 
z
" transform="scale(0.015625)"/>
       <path id="DejaVuSans-72" d="M 2631 2963 
Q 2534 3019 2420 3045 
Q 2306 3072 2169 3072 
Q 1681 3072 1420 2755 
Q 1159 2438 1159 1844 
L 1159 0 
L 581 0 
L 581 3500 
L 1159 3500 
L 1159 2956 
Q 1341 3275 1631 3429 
Q 1922 3584 2338 3584 
Q 2397 3584 2469 3576 
Q 2541 3569 2628 3553 
L 2631 2963 
z
" transform="scale(0.015625)"/>
       <path id="DejaVuSans-61" d="M 2194 1759 
Q 1497 1759 1228 1600 
Q 959 1441 959 1056 
Q 959 750 1161 570 
Q 1363 391 1709 391 
Q 2188 391 2477 730 
Q 2766 1069 2766 1631 
L 2766 1759 
L 2194 1759 
z
M 3341 1997 
L 3341 0 
L 2766 0 
L 2766 531 
Q 2569 213 2275 61 
Q 1981 -91 1556 -91 
Q 1019 -91 701 211 
Q 384 513 384 1019 
Q 384 1609 779 1909 
Q 1175 2209 1959 2209 
L 2766 2209 
L 2766 2266 
Q 2766 2663 2505 2880 
Q 2244 3097 1772 3097 
Q 1472 3097 1187 3025 
Q 903 2953 641 2809 
L 641 3341 
Q 956 3463 1253 3523 
Q 1550 3584 1831 3584 
Q 2591 3584 2966 3190 
Q 3341 2797 3341 1997 
z
" transform="scale(0.015625)"/>
       <path id="DejaVuSans-67" d="M 2906 1791 
Q 2906 2416 2648 2759 
Q 2391 3103 1925 3103 
Q 1463 3103 1205 2759 
Q 947 2416 947 1791 
Q 947 1169 1205 825 
Q 1463 481 1925 481 
Q 2391 481 2648 825 
Q 2906 1169 2906 1791 
z
M 3481 434 
Q 3481 -459 3084 -895 
Q 2688 -1331 1869 -1331 
Q 1566 -1331 1297 -1286 
Q 1028 -1241 775 -1147 
L 775 -588 
Q 1028 -725 1275 -790 
Q 1522 -856 1778 -856 
Q 2344 -856 2625 -561 
Q 2906 -266 2906 331 
L 2906 616 
Q 2728 306 2450 153 
Q 2172 0 1784 0 
Q 1141 0 747 490 
Q 353 981 353 1791 
Q 353 2603 747 3093 
Q 1141 3584 1784 3584 
Q 2172 3584 2450 3431 
Q 2728 3278 2906 2969 
L 2906 3500 
L 3481 3500 
L 3481 434 
z
" transform="scale(0.015625)"/>
       <path id="DejaVuSans-20" transform="scale(0.015625)"/>
       <path id="DejaVuSans-74" d="M 1172 4494 
L 1172 3500 
L 2356 3500 
L 2356 3053 
L 1172 3053 
L 1172 1153 
Q 1172 725 1289 603 
Q 1406 481 1766 481 
L 2356 481 
L 2356 0 
L 1766 0 
Q 1100 0 847 248 
Q 594 497 594 1153 
L 594 3053 
L 172 3053 
L 172 3500 
L 594 3500 
L 594 4494 
L 1172 4494 
z
" transform="scale(0.015625)"/>
       <path id="DejaVuSans-69" d="M 603 3500 
L 1178 3500 
L 1178 0 
L 603 0 
L 603 3500 
z
M 603 4863 
L 1178 4863 
L 1178 4134 
L 603 4134 
L 603 4863 
z
" transform="scale(0.015625)"/>
       <path id="DejaVuSans-6d" d="M 3328 2828 
Q 3544 3216 3844 3400 
Q 4144 3584 4550 3584 
Q 5097 3584 5394 3201 
Q 5691 2819 5691 2113 
L 5691 0 
L 5113 0 
L 5113 2094 
Q 5113 2597 4934 2840 
Q 4756 3084 4391 3084 
Q 3944 3084 3684 2787 
Q 3425 2491 3425 1978 
L 3425 0 
L 2847 0 
L 2847 2094 
Q 2847 2600 2669 2842 
Q 2491 3084 2119 3084 
Q 1678 3084 1418 2786 
Q 1159 2488 1159 1978 
L 1159 0 
L 581 0 
L 581 3500 
L 1159 3500 
L 1159 2956 
Q 1356 3278 1631 3431 
Q 1906 3584 2284 3584 
Q 2666 3584 2933 3390 
Q 3200 3197 3328 2828 
z
" transform="scale(0.015625)"/>
       <path id="DejaVuSans-28" d="M 1984 4856 
Q 1566 4138 1362 3434 
Q 1159 2731 1159 2009 
Q 1159 1288 1364 580 
Q 1569 -128 1984 -844 
L 1484 -844 
Q 1016 -109 783 600 
Q 550 1309 550 2009 
Q 550 2706 781 3412 
Q 1013 4119 1484 4856 
L 1984 4856 
z
" transform="scale(0.015625)"/>
       <path id="DejaVuSans-73" d="M 2834 3397 
L 2834 2853 
Q 2591 2978 2328 3040 
Q 2066 3103 1784 3103 
Q 1356 3103 1142 2972 
Q 928 2841 928 2578 
Q 928 2378 1081 2264 
Q 1234 2150 1697 2047 
L 1894 2003 
Q 2506 1872 2764 1633 
Q 3022 1394 3022 966 
Q 3022 478 2636 193 
Q 2250 -91 1575 -91 
Q 1294 -91 989 -36 
Q 684 19 347 128 
L 347 722 
Q 666 556 975 473 
Q 1284 391 1588 391 
Q 1994 391 2212 530 
Q 2431 669 2431 922 
Q 2431 1156 2273 1281 
Q 2116 1406 1581 1522 
L 1381 1569 
Q 847 1681 609 1914 
Q 372 2147 372 2553 
Q 372 3047 722 3315 
Q 1072 3584 1716 3584 
Q 2034 3584 2315 3537 
Q 2597 3491 2834 3397 
z
" transform="scale(0.015625)"/>
       <path id="DejaVuSans-29" d="M 513 4856 
L 1013 4856 
Q 1481 4119 1714 3412 
Q 1947 2706 1947 2009 
Q 1947 1309 1714 600 
Q 1481 -109 1013 -844 
L 513 -844 
Q 928 -128 1133 580 
Q 1338 1288 1338 2009 
Q 1338 2731 1133 3434 
Q 928 4138 513 4856 
z
" transform="scale(0.015625)"/>
      </defs>
      <use xlink:href="#DejaVuSans-41"/>
      <use xlink:href="#DejaVuSans-76" transform="translate(62.533203 0)"/>
      <use xlink:href="#DejaVuSans-65" transform="translate(121.712891 0)"/>
      <use xlink:href="#DejaVuSans-72" transform="translate(183.236328 0)"/>
      <use xlink:href="#DejaVuSans-61" transform="translate(224.349609 0)"/>
      <use xlink:href="#DejaVuSans-67" transform="translate(285.628906 0)"/>
      <use xlink:href="#DejaVuSans-65" transform="translate(349.105469 0)"/>
      <use xlink:href="#DejaVuSans-20" transform="translate(410.628906 0)"/>
      <use xlink:href="#DejaVuSans-74" transform="translate(442.416016 0)"/>
      <use xlink:href="#DejaVuSans-69" transform="translate(481.625 0)"/>
      <use xlink:href="#DejaVuSans-6d" transform="translate(509.408203 0)"/>
      <use xlink:href="#DejaVuSans-65" transform="translate(606.820312 0)"/>
      <use xlink:href="#DejaVuSans-20" transform="translate(668.34375 0)"/>
      <use xlink:href="#DejaVuSans-28" transform="translate(700.130859 0)"/>
      <use xlink:href="#DejaVuSans-6d" transform="translate(739.144531 0)"/>
      <use xlink:href="#DejaVuSans-73" transform="translate(836.556641 0)"/>
      <use xlink:href="#DejaVuSans-29" transform="translate(888.65625 0)"/>
     </g>
    </g>
   </g>
   <g id="line2d_14">
    <path d="M 115.363636 355.662367 
L 115.962542 350.135402 
L 116.561447 316.566263 
L 117.160352 314.291698 
L 117.759257 331.881659 
L 118.358162 355.197003 
L 118.957068 350.276594 
L 119.555973 361.502947 
L 120.154878 316.171452 
L 120.753783 348.760335 
L 121.352689 309.614528 
L 121.951594 323.170471 
L 122.550499 296.794502 
L 123.149404 317.500554 
L 123.74831 304.288575 
L 124.347215 303.575135 
L 124.94612 319.792668 
L 125.545025 329.0436 
L 126.14393 325.757331 
L 126.742836 344.877186 
L 127.341741 311.55221 
L 127.940646 331.244225 
L 128.539551 316.390234 
L 129.138457 333.623519 
L 129.737362 332.476824 
L 130.336267 342.127537 
L 130.935172 316.021242 
L 131.534077 344.545494 
L 132.132983 330.686053 
L 132.731888 353.707575 
L 133.330793 329.69291 
L 134.528604 373.346896 
L 135.127509 378.896294 
L 135.726414 373.133524 
L 136.325319 378.238671 
L 136.924225 67.658238 
L 137.52313 380.195662 
L 138.122035 368.87694 
L 138.72094 379.776043 
L 139.319845 361.751024 
L 139.918751 372.507174 
L 140.517656 353.851407 
L 141.116561 358.837353 
L 141.715466 368.194685 
L 142.314372 372.998489 
L 142.913277 368.066248 
L 143.512182 369.838062 
L 144.111087 368.254065 
L 144.709992 350.398829 
L 145.308898 364.12284 
L 145.907803 364.487037 
L 146.506708 362.759649 
L 147.105613 361.67097 
L 147.704519 364.852555 
L 148.303424 373.942896 
L 148.902329 380.485129 
L 149.501234 382.855097 
L 150.10014 379.364341 
L 150.699045 383.079422 
L 151.29795 380.218094 
L 151.896855 383.18811 
L 152.49576 380.130124 
L 153.094666 383.166117 
L 153.693571 350.339053 
L 154.292476 374.961198 
L 154.891381 379.250815 
L 155.490287 378.682526 
L 156.089192 374.402542 
L 156.688097 378.689563 
L 157.287002 379.144371 
L 157.885907 379.230142 
L 158.484813 377.774186 
L 159.083718 378.457761 
L 159.682623 377.310538 
L 160.281528 379.062602 
L 160.880434 379.253058 
L 161.479339 376.940182 
L 162.677149 379.162844 
L 163.276055 376.660436 
L 163.87496 378.451119 
L 164.473865 379.097746 
L 165.07277 379.278965 
L 165.671675 372.259537 
L 166.270581 374.244195 
L 166.869486 374.27019 
L 167.468391 373.075947 
L 168.067296 378.904651 
L 168.666202 377.726242 
L 169.265107 379.215187 
L 169.864012 379.332627 
L 170.462917 375.900767 
L 171.061822 374.44877 
L 171.660728 375.357945 
L 172.259633 375.573033 
L 172.858538 378.644214 
L 173.457443 376.910272 
L 174.056349 376.308114 
L 174.655254 379.012415 
L 175.254159 373.653033 
L 175.853064 375.583634 
L 176.45197 375.571318 
L 177.050875 373.875599 
L 177.64978 379.016813 
L 178.84759 379.288202 
L 179.446496 379.222664 
L 180.045401 376.044599 
L 180.644306 375.991817 
L 181.842117 375.560321 
L 182.441022 378.159101 
L 183.039927 378.324442 
L 183.638832 377.234927 
L 184.237737 378.703155 
L 184.836643 373.501724 
L 185.435548 374.924251 
L 186.034453 375.579235 
L 186.633358 375.765293 
L 187.232264 375.280135 
L 187.831169 375.247146 
L 188.430074 372.804514 
L 189.028979 373.608608 
L 189.627885 374.136035 
L 190.825695 370.032037 
L 191.4246 374.148747 
L 192.023505 365.361904 
L 192.622411 374.532782 
L 193.221316 361.354717 
L 193.820221 375.204481 
L 194.419126 367.534423 
L 195.018032 375.650491 
L 195.616937 372.010097 
L 196.215842 369.987172 
L 196.814747 372.186522 
L 197.413652 376.138287 
L 198.012558 372.018058 
L 198.611463 376.985047 
L 199.210368 376.193269 
L 199.809273 380.392276 
L 200.408179 380.610047 
L 201.007084 380.025439 
L 201.605989 373.886155 
L 202.204894 376.520563 
L 202.8038 378.176651 
L 204.00161 378.129587 
L 204.600515 377.995872 
L 205.19942 378.112433 
L 205.798326 378.033699 
L 206.397231 377.650104 
L 206.996136 377.884589 
L 207.595041 368.191166 
L 208.193947 374.297857 
L 208.792852 367.592483 
L 209.391757 375.009142 
L 209.990662 372.828266 
L 210.589567 376.73741 
L 211.188473 365.065443 
L 211.787378 375.671604 
L 212.386283 371.756786 
L 212.985188 377.072578 
L 213.584094 372.128021 
L 214.182999 377.200135 
L 214.781904 372.984898 
L 215.380809 377.278869 
L 215.979715 376.029644 
L 216.57862 380.050467 
L 217.177525 380.462256 
L 217.77643 380.573935 
L 218.375335 376.792832 
L 218.974241 376.185352 
L 219.573146 373.684263 
L 220.172051 376.202066 
L 220.770956 377.677859 
L 221.369862 374.816047 
L 221.968767 375.58315 
L 222.567672 378.050898 
L 223.166577 377.742517 
L 223.765482 377.79442 
L 224.364388 372.221666 
L 224.963293 373.27608 
L 225.562198 372.620216 
L 226.161103 377.332531 
L 226.760009 372.926837 
L 227.358914 376.018648 
L 227.957819 371.307213 
L 228.556724 369.815629 
L 229.754535 377.297386 
L 230.35344 373.845293 
L 230.952345 377.748631 
L 231.55125 372.319797 
L 232.150156 376.968773 
L 232.749061 376.533759 
L 233.347966 380.063706 
L 233.946871 380.70897 
L 234.545777 380.700656 
L 235.144682 374.696847 
L 235.743587 377.698972 
L 236.342492 374.899663 
L 236.941397 374.986314 
L 237.540303 375.220755 
L 238.139208 374.110524 
L 238.738113 372.694111 
L 239.337018 377.7324 
L 239.935924 375.000345 
L 240.534829 377.907462 
L 241.133734 372.919799 
L 241.732639 377.229165 
L 242.331544 371.28654 
L 242.93045 377.404271 
L 243.529355 371.996505 
L 244.12826 371.178292 
L 244.727165 367.961124 
L 245.326071 376.195468 
L 245.924976 371.532417 
L 246.523881 374.721039 
L 247.122786 366.656917 
L 247.721692 375.257703 
L 248.320597 373.044674 
L 248.919502 377.424944 
L 249.518407 379.741294 
L 250.117312 382.614058 
L 250.716218 382.180804 
L 251.315123 382.78868 
L 251.914028 382.864818 
L 252.512933 380.905628 
L 253.111839 381.620388 
L 253.710744 382.866973 
L 254.309649 382.687118 
L 255.507459 382.891649 
L 256.106365 381.544337 
L 256.70527 382.8463 
L 257.304175 381.008949 
L 257.90308 382.717424 
L 258.501986 382.94707 
L 259.100891 375.947435 
L 259.699796 380.478047 
L 260.897607 380.800503 
L 261.496512 378.723872 
L 262.694322 378.713315 
L 263.293227 373.618725 
L 263.892133 376.767716 
L 264.491038 378.311246 
L 265.089943 376.045962 
L 265.688848 378.083403 
L 266.287754 381.995186 
L 266.886659 381.932287 
L 267.485564 380.936857 
L 268.084469 382.031254 
L 268.683374 380.761356 
L 269.28228 380.433182 
L 269.881185 380.92938 
L 270.48009 380.846643 
L 271.078995 378.953871 
L 272.276806 378.796447 
L 272.875711 378.318284 
L 273.474616 376.826261 
L 274.073522 111.651834 
L 274.672427 376.359973 
L 275.271332 377.856879 
L 275.870237 382.094153 
L 276.469142 381.892656 
L 277.068048 381.85175 
L 278.864763 378.243069 
L 279.463669 376.574225 
L 280.062574 378.420769 
L 280.661479 378.27034 
L 281.260384 378.84791 
L 281.859289 379.151408 
L 282.458195 379.059479 
L 283.0571 378.110673 
L 283.656005 378.904211 
L 284.25491 378.940719 
L 284.853816 377.819051 
L 285.452721 381.22584 
L 286.051626 382.084036 
L 287.249437 382.354985 
L 287.848342 380.375605 
L 288.447247 381.104441 
L 289.046152 381.173937 
L 289.645057 380.522032 
L 290.243963 376.317307 
L 290.842868 378.41857 
L 291.441773 379.147889 
L 292.040678 376.46954 
L 292.639584 376.843415 
L 293.238489 378.242673 
L 293.837394 378.651252 
L 294.436299 378.790729 
L 295.035204 382.146495 
L 295.63411 382.157931 
L 296.233015 380.255086 
L 296.83192 380.773628 
L 297.430825 380.870879 
L 298.029731 379.725899 
L 298.628636 381.014711 
L 299.227541 381.133031 
L 299.826446 379.193634 
L 301.024257 378.981581 
L 301.623162 378.506145 
L 302.820972 375.284094 
L 303.419878 377.745112 
L 304.018783 377.558659 
L 304.617688 381.701364 
L 305.216593 380.462212 
L 305.815499 381.43389 
L 306.414404 377.862157 
L 307.013309 372.846344 
L 307.612214 378.254505 
L 308.211119 377.91318 
L 308.810025 370.576618 
L 309.40893 380.913545 
L 310.007835 377.199695 
L 310.60674 380.6773 
L 311.205646 380.52731 
L 311.804551 379.191039 
L 312.403456 378.850065 
L 313.002361 379.054641 
L 313.601267 379.018573 
L 314.200172 378.745424 
L 314.799077 378.853628 
L 315.397982 378.407618 
L 315.996887 376.071034 
L 316.595793 382.269214 
L 317.793603 382.215552 
L 318.392508 382.411286 
L 318.991414 376.900156 
L 319.590319 377.890307 
L 320.788129 378.095279 
L 321.387034 381.147106 
L 321.98594 381.043257 
L 322.584845 381.164701 
L 323.18375 381.112358 
L 323.782655 379.289962 
L 324.381561 378.720793 
L 324.980466 379.015494 
L 325.579371 377.633434 
L 326.178276 378.695281 
L 327.376087 378.87826 
L 327.974992 377.422744 
L 328.573897 381.187573 
L 329.172802 382.239304 
L 329.771708 381.946362 
L 330.370613 381.799891 
L 330.969518 378.342036 
L 331.568423 378.510939 
L 332.167329 376.295799 
L 332.766234 378.362269 
L 333.365139 377.480321 
L 333.964044 377.029032 
L 334.562949 379.164164 
L 335.161855 380.550623 
L 335.76076 378.705838 
L 336.359665 374.940085 
L 336.95857 375.479828 
L 337.557476 378.722112 
L 338.156381 376.325269 
L 338.755286 378.203042 
L 339.354191 378.357475 
L 339.953096 378.874741 
L 340.552002 382.284609 
L 341.150907 382.230067 
L 341.749812 381.732594 
L 342.348717 382.374339 
L 342.947623 378.207881 
L 343.546528 378.433525 
L 344.145433 377.943969 
L 344.744338 377.636908 
L 345.343244 383.821981 
L 346.541054 383.967528 
L 350.134485 383.996118 
L 354.326822 383.97241 
L 354.925727 380.345212 
L 355.524632 379.639644 
L 356.123538 381.246513 
L 356.722443 380.829973 
L 357.321348 379.360382 
L 357.920253 376.826261 
L 358.519159 379.121542 
L 359.118064 377.113484 
L 359.716969 378.480149 
L 360.315874 379.004937 
L 360.914779 377.695453 
L 361.513685 378.738827 
L 362.11259 381.263228 
L 362.711495 381.219242 
L 363.3104 381.356476 
L 363.909306 381.114118 
L 364.508211 378.962272 
L 365.107116 379.439072 
L 366.304926 379.256973 
L 366.903832 376.972775 
L 367.502737 378.823718 
L 368.101642 378.932802 
L 368.700547 378.115952 
L 369.299453 381.194171 
L 369.898358 381.322168 
L 370.497263 381.2861 
L 371.096168 380.036435 
L 371.695074 379.136453 
L 372.293979 377.450015 
L 372.892884 379.289082 
L 373.491789 379.17692 
L 374.090694 378.923565 
L 374.6896 377.88327 
L 375.288505 379.041885 
L 375.88741 376.883881 
L 376.486315 381.108839 
L 377.085221 371.959074 
L 377.684126 380.813259 
L 378.283031 380.852845 
L 378.881936 377.459692 
L 379.480841 378.313445 
L 380.079747 377.264353 
L 380.678652 378.605991 
L 381.876462 378.956554 
L 382.475368 376.331866 
L 383.074273 376.530636 
L 383.673178 380.939936 
L 384.272083 380.954451 
L 384.870989 381.201648 
L 385.469894 381.129468 
L 386.068799 379.273687 
L 386.667704 379.360338 
L 387.266609 378.854068 
L 387.865515 379.199352 
L 388.46442 378.854508 
L 389.063325 378.223276 
L 389.66223 378.922245 
L 390.261136 378.853188 
L 390.860041 378.435944 
L 391.458946 378.642235 
L 392.057851 377.188347 
L 392.656756 377.778409 
L 393.255662 381.165096 
L 393.854567 283.091341 
L 394.453472 380.538879 
L 395.052377 381.118428 
L 395.651283 379.385938 
L 396.849093 379.335794 
L 397.447998 377.597982 
L 398.046904 374.632497 
L 398.645809 378.93223 
L 399.244714 378.217602 
L 399.843619 378.791433 
L 400.442524 374.352223 
L 401.04143 377.782808 
L 401.640335 378.654155 
L 402.23924 378.586814 
L 402.838145 381.132064 
L 403.437051 381.305013 
L 404.634861 381.279502 
L 405.233766 379.522776 
L 405.832671 379.225347 
L 406.431577 378.562622 
L 407.030482 379.297967 
L 407.629387 379.07395 
L 408.228292 376.687575 
L 408.827198 372.082408 
L 409.426103 378.926556 
L 410.025008 378.652396 
L 411.821724 378.693302 
L 412.420629 381.133823 
L 413.019534 381.297096 
L 413.618439 381.301055 
L 414.217345 375.133752 
L 414.81625 376.979329 
L 415.415155 379.350749 
L 416.01406 379.117935 
L 416.612966 379.354268 
L 417.211871 376.871917 
L 417.810776 378.768077 
L 418.409681 379.112261 
L 419.008586 378.986376 
L 419.607492 376.194237 
L 420.206397 378.671749 
L 420.805302 376.148888 
L 422.003113 380.740903 
L 422.602018 377.972912 
L 423.200923 380.703032 
L 423.799828 379.372302 
L 425.596544 379.444042 
L 426.195449 379.404015 
L 426.794354 379.110062 
L 427.39326 378.992973 
L 427.992165 378.45433 
L 428.59107 378.93223 
L 429.189975 381.301055 
L 430.387786 381.368396 
L 430.986691 381.007981 
L 432.184501 375.681149 
L 432.783407 365.27666 
L 433.382312 377.392087 
L 433.981217 378.888289 
L 435.179028 379.016769 
L 435.777933 378.904079 
L 436.376838 381.189288 
L 436.975743 381.204683 
L 437.574648 381.338486 
L 438.173554 381.308532 
L 438.772459 378.593411 
L 439.371364 379.331836 
L 439.970269 377.727826 
L 440.569175 379.03212 
L 442.964796 379.076589 
L 443.563701 381.264987 
L 444.162606 381.193687 
L 445.360416 381.329689 
L 445.959322 379.27725 
L 446.558227 379.413208 
L 447.157132 379.235904 
L 448.354943 379.167243 
L 448.953848 377.671085 
L 449.552753 377.243768 
L 450.151658 378.880327 
L 450.750563 381.076202 
L 451.948374 381.31557 
L 452.547279 381.25487 
L 453.146184 376.87548 
L 453.74509 379.108699 
L 454.9429 379.21655 
L 455.541805 376.383021 
L 456.140711 378.851693 
L 456.739616 378.946789 
L 457.338521 378.551186 
L 457.937426 378.576213 
L 458.536331 377.056303 
L 459.135237 378.492201 
L 459.734142 378.65763 
L 460.333047 380.969274 
L 460.931952 381.313371 
L 462.129763 381.279502 
L 462.728668 379.422929 
L 463.327573 379.250859 
L 463.926478 379.392095 
L 464.525384 379.3204 
L 465.723194 378.888245 
L 466.322099 379.007489 
L 466.921005 378.828864 
L 467.51991 378.389232 
L 468.118815 377.066024 
L 468.71772 378.509356 
L 469.316626 378.485164 
L 469.915531 381.208202 
L 471.113341 381.2861 
L 471.712246 377.058503 
L 472.311152 379.229306 
L 472.910057 379.41897 
L 475.305678 378.824026 
L 475.904583 379.037003 
L 476.503488 379.037442 
L 477.102393 378.590772 
L 477.701299 377.195781 
L 478.300204 378.55598 
L 478.899109 378.487363 
L 479.498014 379.634146 
L 480.09692 381.15322 
L 480.695825 381.239915 
L 481.29473 381.177412 
L 481.893635 379.370543 
L 482.492541 376.695888 
L 483.091446 379.223984 
L 486.085972 378.874169 
L 486.684877 377.173392 
L 487.283782 378.479446 
L 488.481593 378.660753 
L 489.080498 381.129864 
L 489.679403 380.753175 
L 490.278308 381.239431 
L 490.877214 381.418979 
L 491.476119 379.213911 
L 492.075024 379.413252 
L 493.272835 379.346791 
L 493.87174 378.996052 
L 494.470645 379.142171 
L 495.668456 378.888245 
L 496.267361 381.342445 
L 496.866266 284.299791 
L 497.465171 380.933602 
L 498.064076 381.195006 
L 499.261887 377.817204 
L 499.860792 379.284727 
L 500.459697 379.303685 
L 501.058603 378.997372 
L 502.855318 378.977139 
L 503.454223 381.189728 
L 504.053129 381.35784 
L 504.652034 380.963116 
L 505.250939 381.072639 
L 505.849844 378.024858 
L 506.44875 379.436521 
L 507.047655 379.285607 
L 507.64656 379.329197 
L 508.245465 379.088025 
L 508.844371 378.997416 
L 509.443276 379.07395 
L 510.042181 378.970101 
L 510.641086 381.212161 
L 511.838897 381.356476 
L 512.437802 381.091597 
L 513.036707 379.596319 
L 514.234518 379.435201 
L 514.833423 377.050585 
L 515.432328 375.513917 
L 516.031233 378.342564 
L 516.630138 376.916386 
L 517.229044 377.175547 
L 517.827949 381.242115 
L 518.426854 378.921717 
L 519.025759 381.240751 
L 519.624665 381.176972 
L 520.22357 379.452399 
L 521.42138 379.599838 
L 523.817001 379.214351 
L 524.415906 377.928926 
L 525.014812 378.416063 
L 525.613717 377.793408 
L 526.212622 378.384394 
L 526.811527 378.602209 
L 527.410433 381.370156 
L 528.009338 381.404464 
L 528.608243 381.172574 
L 529.207148 381.367517 
L 529.806053 379.646902 
L 530.404959 379.742394 
L 532.80058 379.328317 
L 533.99839 379.002694 
L 534.597295 377.322106 
L 535.1962 378.851253 
L 536.394011 378.908478 
L 536.992916 381.370551 
L 537.591821 379.172961 
L 538.190727 381.115833 
L 538.789632 380.951196 
L 539.388537 379.719961 
L 540.586348 379.642503 
L 541.185253 379.601157 
L 541.784158 379.00441 
L 542.383063 379.263615 
L 543.580874 379.077909 
L 544.179779 377.497255 
L 544.778684 378.852177 
L 545.377589 378.857015 
L 545.976495 378.974939 
L 546.5754 376.470156 
L 547.174305 381.308532 
L 548.372115 381.224477 
L 548.971021 375.262233 
L 549.569926 379.273731 
L 550.168831 379.615233 
L 551.366642 379.34723 
L 552.564452 379.255257 
L 553.163357 376.663779 
L 553.762263 378.786155 
L 554.361168 378.930031 
L 554.960073 378.826621 
L 555.558978 376.265977 
L 556.157883 381.360479 
L 556.756789 376.657621 
L 557.355694 381.349439 
L 557.954599 381.501276 
L 558.553504 378.63832 
L 559.751315 379.581804 
L 560.949125 379.326074 
L 561.54803 378.462731 
L 562.146936 378.776038 
L 562.745841 378.23304 
L 563.344746 381.451528 
L 564.542557 381.553662 
L 565.141462 381.273784 
L 565.740367 379.560647 
L 567.537083 379.567729 
L 568.135988 379.237663 
L 569.333798 379.316837 
L 569.932704 378.021339 
L 570.531609 381.079281 
L 571.130514 380.123922 
L 572.328325 381.431295 
L 572.92723 379.667619 
L 573.526135 379.660977 
L 574.12504 378.042936 
L 574.723945 379.070871 
L 575.322851 379.234144 
L 575.921756 374.786489 
L 576.520661 378.785715 
L 577.119566 379.096427 
L 577.718472 377.326505 
L 578.317377 381.055969 
L 578.916282 380.453943 
L 579.515187 381.394787 
L 580.114093 379.004849 
L 580.712998 379.499903 
L 583.108619 379.193194 
L 583.707524 375.550909 
L 584.306429 375.670108 
L 584.905334 381.19505 
L 585.50424 381.307697 
L 586.70205 381.301495 
L 587.300955 379.609954 
L 587.89986 379.48099 
L 588.498766 379.578241 
L 589.097671 378.122549 
L 589.696576 379.221389 
L 590.295481 379.316441 
L 590.894387 378.0187 
L 591.493292 378.041573 
L 592.092197 378.84206 
L 592.691102 378.563941 
L 593.290008 378.612369 
L 593.888913 378.879447 
L 594.487818 381.354761 
L 595.086723 381.474884 
L 595.685628 381.408423 
L 596.284534 379.48099 
L 596.883439 379.407974 
L 597.482344 379.556688 
L 598.081249 378.097478 
L 598.680155 379.128976 
L 599.27906 379.378944 
L 599.877965 379.266254 
L 600.47687 376.854323 
L 601.075775 378.968782 
L 602.273586 378.717054 
L 603.471396 378.97406 
L 604.070302 381.366153 
L 605.268112 381.401825 
L 605.867017 380.67884 
L 606.465923 379.575646 
L 607.663733 378.97318 
L 608.262638 281.301098 
L 608.861543 379.33619 
L 609.460449 379.3895 
L 610.059354 379.263615 
L 610.658259 379.261855 
L 611.257164 378.891807 
L 611.85607 378.816505 
L 612.454975 378.337329 
L 613.05388 378.976259 
L 613.652785 381.369716 
L 614.25169 381.41634 
L 614.850596 381.331009 
L 615.449501 380.934042 
L 616.048406 378.318416 
L 616.647311 379.716882 
L 617.246217 377.931566 
L 617.845122 378.611445 
L 618.444027 376.537058 
L 619.042932 379.268893 
L 620.240743 379.312438 
L 621.438553 378.881647 
L 622.037458 375.795115 
L 622.636364 377.749423 
L 622.636364 377.749423 
" clip-path="url(#pb9de10252e)" style="fill: none; stroke: #1f77b4; stroke-width: 1.5; stroke-linecap: square"/>
   </g>
   <g id="patch_3">
    <path d="M 90 384.48 
L 90 51.84 
" style="fill: none; stroke: #000000; stroke-width: 0.8; stroke-linejoin: miter; stroke-linecap: square"/>
   </g>
   <g id="patch_4">
    <path d="M 648 384.48 
L 648 51.84 
" style="fill: none; stroke: #000000; stroke-width: 0.8; stroke-linejoin: miter; stroke-linecap: square"/>
   </g>
   <g id="patch_5">
    <path d="M 90 384.48 
L 648 384.48 
" style="fill: none; stroke: #000000; stroke-width: 0.8; stroke-linejoin: miter; stroke-linecap: square"/>
   </g>
   <g id="patch_6">
    <path d="M 90 51.84 
L 648 51.84 
" style="fill: none; stroke: #000000; stroke-width: 0.8; stroke-linejoin: miter; stroke-linecap: square"/>
   </g>
   <g id="text_16">
    <!-- Average time per index -->
    <g transform="translate(298.700625 45.84) scale(0.12 -0.12)">
     <defs>
      <path id="DejaVuSans-70" d="M 1159 525 
L 1159 -1331 
L 581 -1331 
L 581 3500 
L 1159 3500 
L 1159 2969 
Q 1341 3281 1617 3432 
Q 1894 3584 2278 3584 
Q 2916 3584 3314 3078 
Q 3713 2572 3713 1747 
Q 3713 922 3314 415 
Q 2916 -91 2278 -91 
Q 1894 -91 1617 61 
Q 1341 213 1159 525 
z
M 3116 1747 
Q 3116 2381 2855 2742 
Q 2594 3103 2138 3103 
Q 1681 3103 1420 2742 
Q 1159 2381 1159 1747 
Q 1159 1113 1420 752 
Q 1681 391 2138 391 
Q 2594 391 2855 752 
Q 3116 1113 3116 1747 
z
" transform="scale(0.015625)"/>
     </defs>
     <use xlink:href="#DejaVuSans-41"/>
     <use xlink:href="#DejaVuSans-76" transform="translate(62.533203 0)"/>
     <use xlink:href="#DejaVuSans-65" transform="translate(121.712891 0)"/>
     <use xlink:href="#DejaVuSans-72" transform="translate(183.236328 0)"/>
     <use xlink:href="#DejaVuSans-61" transform="translate(224.349609 0)"/>
     <use xlink:href="#DejaVuSans-67" transform="translate(285.628906 0)"/>
     <use xlink:href="#DejaVuSans-65" transform="translate(349.105469 0)"/>
     <use xlink:href="#DejaVuSans-20" transform="translate(410.628906 0)"/>
     <use xlink:href="#DejaVuSans-74" transform="translate(442.416016 0)"/>
     <use xlink:href="#DejaVuSans-69" transform="translate(481.625 0)"/>
     <use xlink:href="#DejaVuSans-6d" transform="translate(509.408203 0)"/>
     <use xlink:href="#DejaVuSans-65" transform="translate(606.820312 0)"/>
     <use xlink:href="#DejaVuSans-20" transform="translate(668.34375 0)"/>
     <use xlink:href="#DejaVuSans-70" transform="translate(700.130859 0)"/>
     <use xlink:href="#DejaVuSans-65" transform="translate(763.607422 0)"/>
     <use xlink:href="#DejaVuSans-72" transform="translate(825.130859 0)"/>
     <use xlink:href="#DejaVuSans-20" transform="translate(866.244141 0)"/>
     <use xlink:href="#DejaVuSans-69" transform="translate(898.03125 0)"/>
     <use xlink:href="#DejaVuSans-6e" transform="translate(925.814453 0)"/>
     <use xlink:href="#DejaVuSans-64" transform="translate(989.193359 0)"/>
     <use xlink:href="#DejaVuSans-65" transform="translate(1052.669922 0)"/>
     <use xlink:href="#DejaVuSans-78" transform="translate(1112.443359 0)"/>
    </g>
   </g>
   <g id="legend_1">
    <g id="patch_7">
     <path d="M 515.8875 74.518125 
L 641 74.518125 
Q 643 74.518125 643 72.518125 
L 643 58.84 
Q 643 56.84 641 56.84 
L 515.8875 56.84 
Q 513.8875 56.84 513.8875 58.84 
L 513.8875 72.518125 
Q 513.8875 74.518125 515.8875 74.518125 
z
" style="fill: #ffffff; opacity: 0.8; stroke: #cccccc; stroke-linejoin: miter"/>
    </g>
    <g id="line2d_15">
     <path d="M 517.8875 64.938438 
L 527.8875 64.938438 
L 537.8875 64.938438 
" style="fill: none; stroke: #1f77b4; stroke-width: 1.5; stroke-linecap: square"/>
    </g>
    <g id="text_17">
     <!-- getExpectedPoints -->
     <g transform="translate(545.8875 68.438438) scale(0.1 -0.1)">
      <defs>
       <path id="DejaVuSans-45" d="M 628 4666 
L 3578 4666 
L 3578 4134 
L 1259 4134 
L 1259 2753 
L 3481 2753 
L 3481 2222 
L 1259 2222 
L 1259 531 
L 3634 531 
L 3634 0 
L 628 0 
L 628 4666 
z
" transform="scale(0.015625)"/>
       <path id="DejaVuSans-63" d="M 3122 3366 
L 3122 2828 
Q 2878 2963 2633 3030 
Q 2388 3097 2138 3097 
Q 1578 3097 1268 2742 
Q 959 2388 959 1747 
Q 959 1106 1268 751 
Q 1578 397 2138 397 
Q 2388 397 2633 464 
Q 2878 531 3122 666 
L 3122 134 
Q 2881 22 2623 -34 
Q 2366 -91 2075 -91 
Q 1284 -91 818 406 
Q 353 903 353 1747 
Q 353 2603 823 3093 
Q 1294 3584 2113 3584 
Q 2378 3584 2631 3529 
Q 2884 3475 3122 3366 
z
" transform="scale(0.015625)"/>
       <path id="DejaVuSans-50" d="M 1259 4147 
L 1259 2394 
L 2053 2394 
Q 2494 2394 2734 2622 
Q 2975 2850 2975 3272 
Q 2975 3691 2734 3919 
Q 2494 4147 2053 4147 
L 1259 4147 
z
M 628 4666 
L 2053 4666 
Q 2838 4666 3239 4311 
Q 3641 3956 3641 3272 
Q 3641 2581 3239 2228 
Q 2838 1875 2053 1875 
L 1259 1875 
L 1259 0 
L 628 0 
L 628 4666 
z
" transform="scale(0.015625)"/>
       <path id="DejaVuSans-6f" d="M 1959 3097 
Q 1497 3097 1228 2736 
Q 959 2375 959 1747 
Q 959 1119 1226 758 
Q 1494 397 1959 397 
Q 2419 397 2687 759 
Q 2956 1122 2956 1747 
Q 2956 2369 2687 2733 
Q 2419 3097 1959 3097 
z
M 1959 3584 
Q 2709 3584 3137 3096 
Q 3566 2609 3566 1747 
Q 3566 888 3137 398 
Q 2709 -91 1959 -91 
Q 1206 -91 779 398 
Q 353 888 353 1747 
Q 353 2609 779 3096 
Q 1206 3584 1959 3584 
z
" transform="scale(0.015625)"/>
      </defs>
      <use xlink:href="#DejaVuSans-67"/>
      <use xlink:href="#DejaVuSans-65" transform="translate(63.476562 0)"/>
      <use xlink:href="#DejaVuSans-74" transform="translate(125 0)"/>
      <use xlink:href="#DejaVuSans-45" transform="translate(164.208984 0)"/>
      <use xlink:href="#DejaVuSans-78" transform="translate(227.392578 0)"/>
      <use xlink:href="#DejaVuSans-70" transform="translate(286.572266 0)"/>
      <use xlink:href="#DejaVuSans-65" transform="translate(350.048828 0)"/>
      <use xlink:href="#DejaVuSans-63" transform="translate(411.572266 0)"/>
      <use xlink:href="#DejaVuSans-74" transform="translate(466.552734 0)"/>
      <use xlink:href="#DejaVuSans-65" transform="translate(505.761719 0)"/>
      <use xlink:href="#DejaVuSans-64" transform="translate(567.285156 0)"/>
      <use xlink:href="#DejaVuSans-50" transform="translate(630.761719 0)"/>
      <use xlink:href="#DejaVuSans-6f" transform="translate(687.439453 0)"/>
      <use xlink:href="#DejaVuSans-69" transform="translate(748.621094 0)"/>
      <use xlink:href="#DejaVuSans-6e" transform="translate(776.404297 0)"/>
      <use xlink:href="#DejaVuSans-74" transform="translate(839.783203 0)"/>
      <use xlink:href="#DejaVuSans-73" transform="translate(878.992188 0)"/>
     </g>
    </g>
   </g>
  </g>
 </g>
 <defs>
  <clipPath id="pb9de10252e">
   <rect x="90" y="51.84" width="558" height="332.64"/>
  </clipPath>
 </defs>
</svg>
