<?xml version="1.0" encoding="utf-8" standalone="no"?>
<!DOCTYPE svg PUBLIC "-//W3C//DTD SVG 1.1//EN"
  "http://www.w3.org/Graphics/SVG/1.1/DTD/svg11.dtd">
<svg xmlns:xlink="http://www.w3.org/1999/xlink" width="576pt" height="432pt" viewBox="0 0 576 432" xmlns="http://www.w3.org/2000/svg" version="1.1">
 <metadata>
  <rdf:RDF xmlns:dc="http://purl.org/dc/elements/1.1/" xmlns:cc="http://creativecommons.org/ns#" xmlns:rdf="http://www.w3.org/1999/02/22-rdf-syntax-ns#">
   <cc:Work>
    <dc:type rdf:resource="http://purl.org/dc/dcmitype/StillImage"/>
    <dc:date>2025-09-30T20:42:55.913794</dc:date>
    <dc:format>image/svg+xml</dc:format>
    <dc:creator>
     <cc:Agent>
      <dc:title>Matplotlib v3.10.3, https://matplotlib.org/</dc:title>
     </cc:Agent>
    </dc:creator>
   </cc:Work>
  </rdf:RDF>
 </metadata>
 <defs>
  <style type="text/css">*{stroke-linejoin: round; stroke-linecap: butt}</style>
 </defs>
 <g id="figure_1">
  <g id="patch_1">
   <path d="M 0 432 
L 576 432 
L 576 0 
L 0 0 
z
" style="fill: #ffffff"/>
  </g>
  <g id="axes_1">
   <g id="patch_2">
    <path d="M 72 384.48 
L 518.4 384.48 
L 518.4 51.84 
L 72 51.84 
z
" style="fill: #ffffff"/>
   </g>
   <g id="FillBetweenPolyCollection_1">
    <path d="M 391.657754 361.484303 
L 198.742246 361.484303 
L 193.614939 358.505522 
L 189.425111 355.526741 
L 186.301845 352.54796 
L 184.340963 349.569178 
L 183.6 346.590397 
L 184.095321 343.611616 
L 185.801588 340.632835 
L 188.653591 337.654054 
L 192.550283 334.675273 
L 197.360663 331.696491 
L 202.93103 328.71771 
L 209.093068 325.738929 
L 215.67215 322.760148 
L 222.495302 319.781367 
L 229.398349 316.802586 
L 236.231842 313.823804 
L 242.865527 310.845023 
L 249.191242 307.866242 
L 255.124274 304.887461 
L 260.603289 301.90868 
L 265.589077 298.929898 
L 270.062378 295.951117 
L 274.021072 292.972336 
L 277.477053 289.993555 
L 280.453015 287.014774 
L 282.979387 284.035993 
L 285.091575 281.057211 
L 286.827609 278.07843 
L 288.226256 275.099649 
L 289.325614 272.120868 
L 290.162139 269.142087 
L 290.770068 266.163306 
L 291.18116 263.184524 
L 291.424684 260.205743 
L 291.527556 257.226962 
L 291.514582 254.248181 
L 291.408717 251.2694 
L 291.231306 248.290619 
L 291.002265 245.311837 
L 290.74018 242.333056 
L 290.462319 239.354275 
L 290.18456 236.375494 
L 289.921248 233.396713 
L 289.685014 230.417931 
L 289.486572 227.43915 
L 289.334526 224.460369 
L 289.23522 221.481588 
L 289.192649 218.502807 
L 289.208445 215.524026 
L 289.281947 212.545244 
L 289.410355 209.566463 
L 289.588963 206.587682 
L 289.811439 203.608901 
L 290.070158 200.63012 
L 290.356545 197.651339 
L 290.661418 194.672557 
L 290.975307 191.693776 
L 291.288739 188.714995 
L 291.592481 185.736214 
L 291.877731 182.757433 
L 292.136264 179.778651 
L 292.36054 176.79987 
L 292.543782 173.821089 
L 292.680031 170.842308 
L 292.764193 167.863527 
L 292.792083 164.884746 
L 292.760477 161.905964 
L 292.667164 158.927183 
L 292.511013 155.948402 
L 292.292036 152.969621 
L 292.011454 149.99084 
L 291.67174 147.012059 
L 291.276661 144.033277 
L 290.831273 141.054496 
L 290.341901 138.075715 
L 289.816069 135.096934 
L 289.262398 132.118153 
L 288.69047 129.139372 
L 288.110646 126.16059 
L 287.533867 123.181809 
L 286.97142 120.203028 
L 286.434688 117.224247 
L 285.934887 114.245466 
L 285.482796 111.266684 
L 285.088479 108.287903 
L 284.761019 105.309122 
L 284.508254 102.330341 
L 284.336537 99.35156 
L 284.250524 96.372779 
L 284.252995 93.393997 
L 284.344729 90.415216 
L 284.52443 87.436435 
L 284.788731 84.457654 
L 285.132265 81.478873 
L 285.547816 78.500092 
L 286.026544 75.52131 
L 286.558279 72.542529 
L 287.131876 69.563748 
L 287.735599 66.584967 
L 302.664401 66.584967 
L 302.664401 66.584967 
L 303.268124 69.563748 
L 303.841721 72.542529 
L 304.373456 75.52131 
L 304.852184 78.500092 
L 305.267735 81.478873 
L 305.611269 84.457654 
L 305.87557 87.436435 
L 306.055271 90.415216 
L 306.147005 93.393997 
L 306.149476 96.372779 
L 306.063463 99.35156 
L 305.891746 102.330341 
L 305.638981 105.309122 
L 305.311521 108.287903 
L 304.917204 111.266684 
L 304.465113 114.245466 
L 303.965312 117.224247 
L 303.42858 120.203028 
L 302.866133 123.181809 
L 302.289354 126.16059 
L 301.70953 129.139372 
L 301.137602 132.118153 
L 300.583931 135.096934 
L 300.058099 138.075715 
L 299.568727 141.054496 
L 299.123339 144.033277 
L 298.72826 147.012059 
L 298.388546 149.99084 
L 298.107964 152.969621 
L 297.888987 155.948402 
L 297.732836 158.927183 
L 297.639523 161.905964 
L 297.607917 164.884746 
L 297.635807 167.863527 
L 297.719969 170.842308 
L 297.856218 173.821089 
L 298.03946 176.79987 
L 298.263736 179.778651 
L 298.522269 182.757433 
L 298.807519 185.736214 
L 299.111261 188.714995 
L 299.424693 191.693776 
L 299.738582 194.672557 
L 300.043455 197.651339 
L 300.329842 200.63012 
L 300.588561 203.608901 
L 300.811037 206.587682 
L 300.989645 209.566463 
L 301.118053 212.545244 
L 301.191555 215.524026 
L 301.207351 218.502807 
L 301.16478 221.481588 
L 301.065474 224.460369 
L 300.913428 227.43915 
L 300.714986 230.417931 
L 300.478752 233.396713 
L 300.21544 236.375494 
L 299.937681 239.354275 
L 299.65982 242.333056 
L 299.397735 245.311837 
L 299.168694 248.290619 
L 298.991283 251.2694 
L 298.885418 254.248181 
L 298.872444 257.226962 
L 298.975316 260.205743 
L 299.21884 263.184524 
L 299.629932 266.163306 
L 300.237861 269.142087 
L 301.074386 272.120868 
L 302.173744 275.099649 
L 303.572391 278.07843 
L 305.308425 281.057211 
L 307.420613 284.035993 
L 309.946985 287.014774 
L 312.922947 289.993555 
L 316.378928 292.972336 
L 320.337622 295.951117 
L 324.810923 298.929898 
L 329.796711 301.90868 
L 335.275726 304.887461 
L 341.208758 307.866242 
L 347.534473 310.845023 
L 354.168158 313.823804 
L 361.001651 316.802586 
L 367.904698 319.781367 
L 374.72785 322.760148 
L 381.306932 325.738929 
L 387.46897 328.71771 
L 393.039337 331.696491 
L 397.849717 334.675273 
L 401.746409 337.654054 
L 404.598412 340.632835 
L 406.304679 343.611616 
L 406.8 346.590397 
L 406.059037 349.569178 
L 404.098155 352.54796 
L 400.974889 355.526741 
L 396.785061 358.505522 
L 391.657754 361.484303 
z
" clip-path="url(#pbbc11c2c01)" style="fill: #1f77b4; fill-opacity: 0.3"/>
   </g>
   <g id="matplotlib.axis_1">
    <g id="xtick_1">
     <g id="line2d_1">
      <defs>
       <path id="mc927fa5cb6" d="M 0 0 
L 0 3.5 
" style="stroke: #000000; stroke-width: 0.8"/>
      </defs>
      <g>
       <use xlink:href="#mc927fa5cb6" x="295.2" y="384.48" style="stroke: #000000; stroke-width: 0.8"/>
      </g>
     </g>
     <g id="text_1">
      <!-- 1 -->
      <g transform="translate(292.01875 399.078438) scale(0.1 -0.1)">
       <defs>
        <path id="DejaVuSans-31" d="M 794 531 
L 1825 531 
L 1825 4091 
L 703 3866 
L 703 4441 
L 1819 4666 
L 2450 4666 
L 2450 531 
L 3481 531 
L 3481 0 
L 794 0 
L 794 531 
z
" transform="scale(0.015625)"/>
       </defs>
       <use xlink:href="#DejaVuSans-31"/>
      </g>
     </g>
    </g>
   </g>
   <g id="matplotlib.axis_2">
    <g id="ytick_1">
     <g id="line2d_2">
      <defs>
       <path id="m86c45a2828" d="M 0 0 
L -3.5 0 
" style="stroke: #000000; stroke-width: 0.8"/>
      </defs>
      <g>
       <use xlink:href="#m86c45a2828" x="72" y="384.48" style="stroke: #000000; stroke-width: 0.8"/>
      </g>
     </g>
     <g id="text_2">
      <!-- 0 -->
      <g transform="translate(58.6375 388.279219) scale(0.1 -0.1)">
       <defs>
        <path id="DejaVuSans-30" d="M 2034 4250 
Q 1547 4250 1301 3770 
Q 1056 3291 1056 2328 
Q 1056 1369 1301 889 
Q 1547 409 2034 409 
Q 2525 409 2770 889 
Q 3016 1369 3016 2328 
Q 3016 3291 2770 3770 
Q 2525 4250 2034 4250 
z
M 2034 4750 
Q 2819 4750 3233 4129 
Q 3647 3509 3647 2328 
Q 3647 1150 3233 529 
Q 2819 -91 2034 -91 
Q 1250 -91 836 529 
Q 422 1150 422 2328 
Q 422 3509 836 4129 
Q 1250 4750 2034 4750 
z
" transform="scale(0.015625)"/>
       </defs>
       <use xlink:href="#DejaVuSans-30"/>
      </g>
     </g>
    </g>
    <g id="ytick_2">
     <g id="line2d_3">
      <g>
       <use xlink:href="#m86c45a2828" x="72" y="345.45523" style="stroke: #000000; stroke-width: 0.8"/>
      </g>
     </g>
     <g id="text_3">
      <!-- 2 -->
      <g transform="translate(58.6375 349.254449) scale(0.1 -0.1)">
       <defs>
        <path id="DejaVuSans-32" d="M 1228 531 
L 3431 531 
L 3431 0 
L 469 0 
L 469 531 
Q 828 903 1448 1529 
Q 2069 2156 2228 2338 
Q 2531 2678 2651 2914 
Q 2772 3150 2772 3378 
Q 2772 3750 2511 3984 
Q 2250 4219 1831 4219 
Q 1534 4219 1204 4116 
Q 875 4013 500 3803 
L 500 4441 
Q 881 4594 1212 4672 
Q 1544 4750 1819 4750 
Q 2544 4750 2975 4387 
Q 3406 4025 3406 3419 
Q 3406 3131 3298 2873 
Q 3191 2616 2906 2266 
Q 2828 2175 2409 1742 
Q 1991 1309 1228 531 
z
" transform="scale(0.015625)"/>
       </defs>
       <use xlink:href="#DejaVuSans-32"/>
      </g>
     </g>
    </g>
    <g id="ytick_3">
     <g id="line2d_4">
      <g>
       <use xlink:href="#m86c45a2828" x="72" y="306.43046" style="stroke: #000000; stroke-width: 0.8"/>
      </g>
     </g>
     <g id="text_4">
      <!-- 4 -->
      <g transform="translate(58.6375 310.229679) scale(0.1 -0.1)">
       <defs>
        <path id="DejaVuSans-34" d="M 2419 4116 
L 825 1625 
L 2419 1625 
L 2419 4116 
z
M 2253 4666 
L 3047 4666 
L 3047 1625 
L 3713 1625 
L 3713 1100 
L 3047 1100 
L 3047 0 
L 2419 0 
L 2419 1100 
L 313 1100 
L 313 1709 
L 2253 4666 
z
" transform="scale(0.015625)"/>
       </defs>
       <use xlink:href="#DejaVuSans-34"/>
      </g>
     </g>
    </g>
    <g id="ytick_4">
     <g id="line2d_5">
      <g>
       <use xlink:href="#m86c45a2828" x="72" y="267.405691" style="stroke: #000000; stroke-width: 0.8"/>
      </g>
     </g>
     <g id="text_5">
      <!-- 6 -->
      <g transform="translate(58.6375 271.204909) scale(0.1 -0.1)">
       <defs>
        <path id="DejaVuSans-36" d="M 2113 2584 
Q 1688 2584 1439 2293 
Q 1191 2003 1191 1497 
Q 1191 994 1439 701 
Q 1688 409 2113 409 
Q 2538 409 2786 701 
Q 3034 994 3034 1497 
Q 3034 2003 2786 2293 
Q 2538 2584 2113 2584 
z
M 3366 4563 
L 3366 3988 
Q 3128 4100 2886 4159 
Q 2644 4219 2406 4219 
Q 1781 4219 1451 3797 
Q 1122 3375 1075 2522 
Q 1259 2794 1537 2939 
Q 1816 3084 2150 3084 
Q 2853 3084 3261 2657 
Q 3669 2231 3669 1497 
Q 3669 778 3244 343 
Q 2819 -91 2113 -91 
Q 1303 -91 875 529 
Q 447 1150 447 2328 
Q 447 3434 972 4092 
Q 1497 4750 2381 4750 
Q 2619 4750 2861 4703 
Q 3103 4656 3366 4563 
z
" transform="scale(0.015625)"/>
       </defs>
       <use xlink:href="#DejaVuSans-36"/>
      </g>
     </g>
    </g>
    <g id="ytick_5">
     <g id="line2d_6">
      <g>
       <use xlink:href="#m86c45a2828" x="72" y="228.380921" style="stroke: #000000; stroke-width: 0.8"/>
      </g>
     </g>
     <g id="text_6">
      <!-- 8 -->
      <g transform="translate(58.6375 232.18014) scale(0.1 -0.1)">
       <defs>
        <path id="DejaVuSans-38" d="M 2034 2216 
Q 1584 2216 1326 1975 
Q 1069 1734 1069 1313 
Q 1069 891 1326 650 
Q 1584 409 2034 409 
Q 2484 409 2743 651 
Q 3003 894 3003 1313 
Q 3003 1734 2745 1975 
Q 2488 2216 2034 2216 
z
M 1403 2484 
Q 997 2584 770 2862 
Q 544 3141 544 3541 
Q 544 4100 942 4425 
Q 1341 4750 2034 4750 
Q 2731 4750 3128 4425 
Q 3525 4100 3525 3541 
Q 3525 3141 3298 2862 
Q 3072 2584 2669 2484 
Q 3125 2378 3379 2068 
Q 3634 1759 3634 1313 
Q 3634 634 3220 271 
Q 2806 -91 2034 -91 
Q 1263 -91 848 271 
Q 434 634 434 1313 
Q 434 1759 690 2068 
Q 947 2378 1403 2484 
z
M 1172 3481 
Q 1172 3119 1398 2916 
Q 1625 2713 2034 2713 
Q 2441 2713 2670 2916 
Q 2900 3119 2900 3481 
Q 2900 3844 2670 4047 
Q 2441 4250 2034 4250 
Q 1625 4250 1398 4047 
Q 1172 3844 1172 3481 
z
" transform="scale(0.015625)"/>
       </defs>
       <use xlink:href="#DejaVuSans-38"/>
      </g>
     </g>
    </g>
    <g id="ytick_6">
     <g id="line2d_7">
      <g>
       <use xlink:href="#m86c45a2828" x="72" y="189.356151" style="stroke: #000000; stroke-width: 0.8"/>
      </g>
     </g>
     <g id="text_7">
      <!-- 10 -->
      <g transform="translate(52.275 193.15537) scale(0.1 -0.1)">
       <use xlink:href="#DejaVuSans-31"/>
       <use xlink:href="#DejaVuSans-30" transform="translate(63.623047 0)"/>
      </g>
     </g>
    </g>
    <g id="ytick_7">
     <g id="line2d_8">
      <g>
       <use xlink:href="#m86c45a2828" x="72" y="150.331381" style="stroke: #000000; stroke-width: 0.8"/>
      </g>
     </g>
     <g id="text_8">
      <!-- 12 -->
      <g transform="translate(52.275 154.1306) scale(0.1 -0.1)">
       <use xlink:href="#DejaVuSans-31"/>
       <use xlink:href="#DejaVuSans-32" transform="translate(63.623047 0)"/>
      </g>
     </g>
    </g>
    <g id="ytick_8">
     <g id="line2d_9">
      <g>
       <use xlink:href="#m86c45a2828" x="72" y="111.306612" style="stroke: #000000; stroke-width: 0.8"/>
      </g>
     </g>
     <g id="text_9">
      <!-- 14 -->
      <g transform="translate(52.275 115.10583) scale(0.1 -0.1)">
       <use xlink:href="#DejaVuSans-31"/>
       <use xlink:href="#DejaVuSans-34" transform="translate(63.623047 0)"/>
      </g>
     </g>
    </g>
    <g id="ytick_9">
     <g id="line2d_10">
      <g>
       <use xlink:href="#m86c45a2828" x="72" y="72.281842" style="stroke: #000000; stroke-width: 0.8"/>
      </g>
     </g>
     <g id="text_10">
      <!-- 16 -->
      <g transform="translate(52.275 76.08106) scale(0.1 -0.1)">
       <use xlink:href="#DejaVuSans-31"/>
       <use xlink:href="#DejaVuSans-36" transform="translate(63.623047 0)"/>
      </g>
     </g>
    </g>
    <g id="text_11">
     <!-- Time (ms) -->
     <g transform="translate(46.195312 243.359219) rotate(-90) scale(0.1 -0.1)">
      <defs>
       <path id="DejaVuSans-54" d="M -19 4666 
L 3928 4666 
L 3928 4134 
L 2272 4134 
L 2272 0 
L 1638 0 
L 1638 4134 
L -19 4134 
L -19 4666 
z
" transform="scale(0.015625)"/>
       <path id="DejaVuSans-69" d="M 603 3500 
L 1178 3500 
L 1178 0 
L 603 0 
L 603 3500 
z
M 603 4863 
L 1178 4863 
L 1178 4134 
L 603 4134 
L 603 4863 
z
" transform="scale(0.015625)"/>
       <path id="DejaVuSans-6d" d="M 3328 2828 
Q 3544 3216 3844 3400 
Q 4144 3584 4550 3584 
Q 5097 3584 5394 3201 
Q 5691 2819 5691 2113 
L 5691 0 
L 5113 0 
L 5113 2094 
Q 5113 2597 4934 2840 
Q 4756 3084 4391 3084 
Q 3944 3084 3684 2787 
Q 3425 2491 3425 1978 
L 3425 0 
L 2847 0 
L 2847 2094 
Q 2847 2600 2669 2842 
Q 2491 3084 2119 3084 
Q 1678 3084 1418 2786 
Q 1159 2488 1159 1978 
L 1159 0 
L 581 0 
L 581 3500 
L 1159 3500 
L 1159 2956 
Q 1356 3278 1631 3431 
Q 1906 3584 2284 3584 
Q 2666 3584 2933 3390 
Q 3200 3197 3328 2828 
z
" transform="scale(0.015625)"/>
       <path id="DejaVuSans-65" d="M 3597 1894 
L 3597 1613 
L 953 1613 
Q 991 1019 1311 708 
Q 1631 397 2203 397 
Q 2534 397 2845 478 
Q 3156 559 3463 722 
L 3463 178 
Q 3153 47 2828 -22 
Q 2503 -91 2169 -91 
Q 1331 -91 842 396 
Q 353 884 353 1716 
Q 353 2575 817 3079 
Q 1281 3584 2069 3584 
Q 2775 3584 3186 3129 
Q 3597 2675 3597 1894 
z
M 3022 2063 
Q 3016 2534 2758 2815 
Q 2500 3097 2075 3097 
Q 1594 3097 1305 2825 
Q 1016 2553 972 2059 
L 3022 2063 
z
" transform="scale(0.015625)"/>
       <path id="DejaVuSans-20" transform="scale(0.015625)"/>
       <path id="DejaVuSans-28" d="M 1984 4856 
Q 1566 4138 1362 3434 
Q 1159 2731 1159 2009 
Q 1159 1288 1364 580 
Q 1569 -128 1984 -844 
L 1484 -844 
Q 1016 -109 783 600 
Q 550 1309 550 2009 
Q 550 2706 781 3412 
Q 1013 4119 1484 4856 
L 1984 4856 
z
" transform="scale(0.015625)"/>
       <path id="DejaVuSans-73" d="M 2834 3397 
L 2834 2853 
Q 2591 2978 2328 3040 
Q 2066 3103 1784 3103 
Q 1356 3103 1142 2972 
Q 928 2841 928 2578 
Q 928 2378 1081 2264 
Q 1234 2150 1697 2047 
L 1894 2003 
Q 2506 1872 2764 1633 
Q 3022 1394 3022 966 
Q 3022 478 2636 193 
Q 2250 -91 1575 -91 
Q 1294 -91 989 -36 
Q 684 19 347 128 
L 347 722 
Q 666 556 975 473 
Q 1284 391 1588 391 
Q 1994 391 2212 530 
Q 2431 669 2431 922 
Q 2431 1156 2273 1281 
Q 2116 1406 1581 1522 
L 1381 1569 
Q 847 1681 609 1914 
Q 372 2147 372 2553 
Q 372 3047 722 3315 
Q 1072 3584 1716 3584 
Q 2034 3584 2315 3537 
Q 2597 3491 2834 3397 
z
" transform="scale(0.015625)"/>
       <path id="DejaVuSans-29" d="M 513 4856 
L 1013 4856 
Q 1481 4119 1714 3412 
Q 1947 2706 1947 2009 
Q 1947 1309 1714 600 
Q 1481 -109 1013 -844 
L 513 -844 
Q 928 -128 1133 580 
Q 1338 1288 1338 2009 
Q 1338 2731 1133 3434 
Q 928 4138 513 4856 
z
" transform="scale(0.015625)"/>
      </defs>
      <use xlink:href="#DejaVuSans-54"/>
      <use xlink:href="#DejaVuSans-69" transform="translate(57.958984 0)"/>
      <use xlink:href="#DejaVuSans-6d" transform="translate(85.742188 0)"/>
      <use xlink:href="#DejaVuSans-65" transform="translate(183.154297 0)"/>
      <use xlink:href="#DejaVuSans-20" transform="translate(244.677734 0)"/>
      <use xlink:href="#DejaVuSans-28" transform="translate(276.464844 0)"/>
      <use xlink:href="#DejaVuSans-6d" transform="translate(315.478516 0)"/>
      <use xlink:href="#DejaVuSans-73" transform="translate(412.890625 0)"/>
      <use xlink:href="#DejaVuSans-29" transform="translate(464.990234 0)"/>
     </g>
    </g>
   </g>
   <g id="LineCollection_1">
    <path d="M 239.4 315.264819 
L 351 315.264819 
" clip-path="url(#pbbc11c2c01)" style="fill: none; stroke: #1f77b4; stroke-width: 1.5"/>
   </g>
   <g id="LineCollection_2">
    <path d="M 239.4 66.584967 
L 351 66.584967 
" clip-path="url(#pbbc11c2c01)" style="fill: none; stroke: #1f77b4; stroke-width: 1.5"/>
   </g>
   <g id="LineCollection_3">
    <path d="M 239.4 361.484303 
L 351 361.484303 
" clip-path="url(#pbbc11c2c01)" style="fill: none; stroke: #1f77b4; stroke-width: 1.5"/>
   </g>
   <g id="LineCollection_4">
    <path d="M 295.2 361.484303 
L 295.2 66.584967 
" clip-path="url(#pbbc11c2c01)" style="fill: none; stroke: #1f77b4; stroke-width: 1.5"/>
   </g>
   <g id="patch_3">
    <path d="M 250.56 351.25796 
L 339.84 351.25796 
L 339.84 335.160857 
L 250.56 335.160857 
L 250.56 351.25796 
z
" clip-path="url(#pbbc11c2c01)" style="fill: #1f77b4; stroke: #000000; stroke-linejoin: miter"/>
   </g>
   <g id="line2d_11">
    <path d="M 295.2 351.25796 
L 295.2 361.484303 
" clip-path="url(#pbbc11c2c01)" style="fill: none; stroke: #000000; stroke-linecap: square"/>
   </g>
   <g id="line2d_12">
    <path d="M 295.2 335.160857 
L 295.2 315.68899 
" clip-path="url(#pbbc11c2c01)" style="fill: none; stroke: #000000; stroke-linecap: square"/>
   </g>
   <g id="line2d_13">
    <path d="M 272.88 361.484303 
L 317.52 361.484303 
" clip-path="url(#pbbc11c2c01)" style="fill: none; stroke: #000000; stroke-linecap: square"/>
   </g>
   <g id="line2d_14">
    <path d="M 272.88 315.68899 
L 317.52 315.68899 
" clip-path="url(#pbbc11c2c01)" style="fill: none; stroke: #000000; stroke-linecap: square"/>
   </g>
   <g id="line2d_15">
    <defs>
     <path id="m467248b619" d="M 0 3 
C 0.795609 3 1.55874 2.683901 2.12132 2.12132 
C 2.683901 1.55874 3 0.795609 3 0 
C 3 -0.795609 2.683901 -1.55874 2.12132 -2.12132 
C 1.55874 -2.683901 0.795609 -3 0 -3 
C -0.795609 -3 -1.55874 -2.683901 -2.12132 -2.12132 
C -2.683901 -1.55874 -3 -0.795609 -3 0 
C -3 0.795609 -2.683901 1.55874 -2.12132 2.12132 
C -1.55874 2.683901 -0.795609 3 0 3 
z
" style="stroke: #000000"/>
    </defs>
    <g clip-path="url(#pbbc11c2c01)">
     <use xlink:href="#m467248b619" x="295.2" y="69.35756" style="fill-opacity: 0; stroke: #000000"/>
     <use xlink:href="#m467248b619" x="295.2" y="225.293379" style="fill-opacity: 0; stroke: #000000"/>
     <use xlink:href="#m467248b619" x="295.2" y="304.13916" style="fill-opacity: 0; stroke: #000000"/>
     <use xlink:href="#m467248b619" x="295.2" y="85.962326" style="fill-opacity: 0; stroke: #000000"/>
     <use xlink:href="#m467248b619" x="295.2" y="81.782929" style="fill-opacity: 0; stroke: #000000"/>
     <use xlink:href="#m467248b619" x="295.2" y="229.677753" style="fill-opacity: 0; stroke: #000000"/>
     <use xlink:href="#m467248b619" x="295.2" y="306.799869" style="fill-opacity: 0; stroke: #000000"/>
     <use xlink:href="#m467248b619" x="295.2" y="117.707962" style="fill-opacity: 0; stroke: #000000"/>
     <use xlink:href="#m467248b619" x="295.2" y="89.671513" style="fill-opacity: 0; stroke: #000000"/>
     <use xlink:href="#m467248b619" x="295.2" y="224.514932" style="fill-opacity: 0; stroke: #000000"/>
     <use xlink:href="#m467248b619" x="295.2" y="310.611808" style="fill-opacity: 0; stroke: #000000"/>
     <use xlink:href="#m467248b619" x="295.2" y="88.93215" style="fill-opacity: 0; stroke: #000000"/>
     <use xlink:href="#m467248b619" x="295.2" y="89.963087" style="fill-opacity: 0; stroke: #000000"/>
     <use xlink:href="#m467248b619" x="295.2" y="186.090324" style="fill-opacity: 0; stroke: #000000"/>
     <use xlink:href="#m467248b619" x="295.2" y="117.1294" style="fill-opacity: 0; stroke: #000000"/>
     <use xlink:href="#m467248b619" x="295.2" y="76.24949" style="fill-opacity: 0; stroke: #000000"/>
     <use xlink:href="#m467248b619" x="295.2" y="220.334755" style="fill-opacity: 0; stroke: #000000"/>
     <use xlink:href="#m467248b619" x="295.2" y="306.227941" style="fill-opacity: 0; stroke: #000000"/>
     <use xlink:href="#m467248b619" x="295.2" y="104.58998" style="fill-opacity: 0; stroke: #000000"/>
     <use xlink:href="#m467248b619" x="295.2" y="99.794031" style="fill-opacity: 0; stroke: #000000"/>
     <use xlink:href="#m467248b619" x="295.2" y="203.879922" style="fill-opacity: 0; stroke: #000000"/>
     <use xlink:href="#m467248b619" x="295.2" y="109.00776" style="fill-opacity: 0; stroke: #000000"/>
     <use xlink:href="#m467248b619" x="295.2" y="66.584967" style="fill-opacity: 0; stroke: #000000"/>
     <use xlink:href="#m467248b619" x="295.2" y="223.738573" style="fill-opacity: 0; stroke: #000000"/>
     <use xlink:href="#m467248b619" x="295.2" y="309.12674" style="fill-opacity: 0; stroke: #000000"/>
     <use xlink:href="#m467248b619" x="295.2" y="96.276143" style="fill-opacity: 0; stroke: #000000"/>
     <use xlink:href="#m467248b619" x="295.2" y="75.482497" style="fill-opacity: 0; stroke: #000000"/>
     <use xlink:href="#m467248b619" x="295.2" y="204.538835" style="fill-opacity: 0; stroke: #000000"/>
     <use xlink:href="#m467248b619" x="295.2" y="117.353929" style="fill-opacity: 0; stroke: #000000"/>
     <use xlink:href="#m467248b619" x="295.2" y="94.413706" style="fill-opacity: 0; stroke: #000000"/>
     <use xlink:href="#m467248b619" x="295.2" y="225.104304" style="fill-opacity: 0; stroke: #000000"/>
     <use xlink:href="#m467248b619" x="295.2" y="121.809992" style="fill-opacity: 0; stroke: #000000"/>
     <use xlink:href="#m467248b619" x="295.2" y="85.968726" style="fill-opacity: 0; stroke: #000000"/>
     <use xlink:href="#m467248b619" x="295.2" y="215.79473" style="fill-opacity: 0; stroke: #000000"/>
     <use xlink:href="#m467248b619" x="295.2" y="124.059009" style="fill-opacity: 0; stroke: #000000"/>
    </g>
   </g>
   <g id="line2d_16">
    <path d="M 250.56 345.70494 
L 339.84 345.70494 
" clip-path="url(#pbbc11c2c01)" style="fill: none; stroke: #ff7f0e"/>
   </g>
   <g id="patch_4">
    <path d="M 72 384.48 
L 72 51.84 
" style="fill: none; stroke: #000000; stroke-width: 0.8; stroke-linejoin: miter; stroke-linecap: square"/>
   </g>
   <g id="patch_5">
    <path d="M 518.4 384.48 
L 518.4 51.84 
" style="fill: none; stroke: #000000; stroke-width: 0.8; stroke-linejoin: miter; stroke-linecap: square"/>
   </g>
   <g id="patch_6">
    <path d="M 72 384.48 
L 518.4 384.48 
" style="fill: none; stroke: #000000; stroke-width: 0.8; stroke-linejoin: miter; stroke-linecap: square"/>
   </g>
   <g id="patch_7">
    <path d="M 72 51.84 
L 518.4 51.84 
" style="fill: none; stroke: #000000; stroke-width: 0.8; stroke-linejoin: miter; stroke-linecap: square"/>
   </g>
   <g id="text_12">
    <!-- Handle Result -->
    <g transform="translate(253.595625 45.84) scale(0.12 -0.12)">
     <defs>
      <path id="DejaVuSans-48" d="M 628 4666 
L 1259 4666 
L 1259 2753 
L 3553 2753 
L 3553 4666 
L 4184 4666 
L 4184 0 
L 3553 0 
L 3553 2222 
L 1259 2222 
L 1259 0 
L 628 0 
L 628 4666 
z
" transform="scale(0.015625)"/>
      <path id="DejaVuSans-61" d="M 2194 1759 
Q 1497 1759 1228 1600 
Q 959 1441 959 1056 
Q 959 750 1161 570 
Q 1363 391 1709 391 
Q 2188 391 2477 730 
Q 2766 1069 2766 1631 
L 2766 1759 
L 2194 1759 
z
M 3341 1997 
L 3341 0 
L 2766 0 
L 2766 531 
Q 2569 213 2275 61 
Q 1981 -91 1556 -91 
Q 1019 -91 701 211 
Q 384 513 384 1019 
Q 384 1609 779 1909 
Q 1175 2209 1959 2209 
L 2766 2209 
L 2766 2266 
Q 2766 2663 2505 2880 
Q 2244 3097 1772 3097 
Q 1472 3097 1187 3025 
Q 903 2953 641 2809 
L 641 3341 
Q 956 3463 1253 3523 
Q 1550 3584 1831 3584 
Q 2591 3584 2966 3190 
Q 3341 2797 3341 1997 
z
" transform="scale(0.015625)"/>
      <path id="DejaVuSans-6e" d="M 3513 2113 
L 3513 0 
L 2938 0 
L 2938 2094 
Q 2938 2591 2744 2837 
Q 2550 3084 2163 3084 
Q 1697 3084 1428 2787 
Q 1159 2491 1159 1978 
L 1159 0 
L 581 0 
L 581 3500 
L 1159 3500 
L 1159 2956 
Q 1366 3272 1645 3428 
Q 1925 3584 2291 3584 
Q 2894 3584 3203 3211 
Q 3513 2838 3513 2113 
z
" transform="scale(0.015625)"/>
      <path id="DejaVuSans-64" d="M 2906 2969 
L 2906 4863 
L 3481 4863 
L 3481 0 
L 2906 0 
L 2906 525 
Q 2725 213 2448 61 
Q 2172 -91 1784 -91 
Q 1150 -91 751 415 
Q 353 922 353 1747 
Q 353 2572 751 3078 
Q 1150 3584 1784 3584 
Q 2172 3584 2448 3432 
Q 2725 3281 2906 2969 
z
M 947 1747 
Q 947 1113 1208 752 
Q 1469 391 1925 391 
Q 2381 391 2643 752 
Q 2906 1113 2906 1747 
Q 2906 2381 2643 2742 
Q 2381 3103 1925 3103 
Q 1469 3103 1208 2742 
Q 947 2381 947 1747 
z
" transform="scale(0.015625)"/>
      <path id="DejaVuSans-6c" d="M 603 4863 
L 1178 4863 
L 1178 0 
L 603 0 
L 603 4863 
z
" transform="scale(0.015625)"/>
      <path id="DejaVuSans-52" d="M 2841 2188 
Q 3044 2119 3236 1894 
Q 3428 1669 3622 1275 
L 4263 0 
L 3584 0 
L 2988 1197 
Q 2756 1666 2539 1819 
Q 2322 1972 1947 1972 
L 1259 1972 
L 1259 0 
L 628 0 
L 628 4666 
L 2053 4666 
Q 2853 4666 3247 4331 
Q 3641 3997 3641 3322 
Q 3641 2881 3436 2590 
Q 3231 2300 2841 2188 
z
M 1259 4147 
L 1259 2491 
L 2053 2491 
Q 2509 2491 2742 2702 
Q 2975 2913 2975 3322 
Q 2975 3731 2742 3939 
Q 2509 4147 2053 4147 
L 1259 4147 
z
" transform="scale(0.015625)"/>
      <path id="DejaVuSans-75" d="M 544 1381 
L 544 3500 
L 1119 3500 
L 1119 1403 
Q 1119 906 1312 657 
Q 1506 409 1894 409 
Q 2359 409 2629 706 
Q 2900 1003 2900 1516 
L 2900 3500 
L 3475 3500 
L 3475 0 
L 2900 0 
L 2900 538 
Q 2691 219 2414 64 
Q 2138 -91 1772 -91 
Q 1169 -91 856 284 
Q 544 659 544 1381 
z
M 1991 3584 
L 1991 3584 
z
" transform="scale(0.015625)"/>
      <path id="DejaVuSans-74" d="M 1172 4494 
L 1172 3500 
L 2356 3500 
L 2356 3053 
L 1172 3053 
L 1172 1153 
Q 1172 725 1289 603 
Q 1406 481 1766 481 
L 2356 481 
L 2356 0 
L 1766 0 
Q 1100 0 847 248 
Q 594 497 594 1153 
L 594 3053 
L 172 3053 
L 172 3500 
L 594 3500 
L 594 4494 
L 1172 4494 
z
" transform="scale(0.015625)"/>
     </defs>
     <use xlink:href="#DejaVuSans-48"/>
     <use xlink:href="#DejaVuSans-61" transform="translate(75.195312 0)"/>
     <use xlink:href="#DejaVuSans-6e" transform="translate(136.474609 0)"/>
     <use xlink:href="#DejaVuSans-64" transform="translate(199.853516 0)"/>
     <use xlink:href="#DejaVuSans-6c" transform="translate(263.330078 0)"/>
     <use xlink:href="#DejaVuSans-65" transform="translate(291.113281 0)"/>
     <use xlink:href="#DejaVuSans-20" transform="translate(352.636719 0)"/>
     <use xlink:href="#DejaVuSans-52" transform="translate(384.423828 0)"/>
     <use xlink:href="#DejaVuSans-65" transform="translate(449.40625 0)"/>
     <use xlink:href="#DejaVuSans-73" transform="translate(510.929688 0)"/>
     <use xlink:href="#DejaVuSans-75" transform="translate(563.029297 0)"/>
     <use xlink:href="#DejaVuSans-6c" transform="translate(626.408203 0)"/>
     <use xlink:href="#DejaVuSans-74" transform="translate(654.191406 0)"/>
    </g>
   </g>
  </g>
 </g>
 <defs>
  <clipPath id="pbbc11c2c01">
   <rect x="72" y="51.84" width="446.4" height="332.64"/>
  </clipPath>
 </defs>
</svg>
