<?xml version="1.0" encoding="utf-8" standalone="no"?>
<!DOCTYPE svg PUBLIC "-//W3C//DTD SVG 1.1//EN"
  "http://www.w3.org/Graphics/SVG/1.1/DTD/svg11.dtd">
<svg xmlns:xlink="http://www.w3.org/1999/xlink" width="576pt" height="432pt" viewBox="0 0 576 432" xmlns="http://www.w3.org/2000/svg" version="1.1">
 <metadata>
  <rdf:RDF xmlns:dc="http://purl.org/dc/elements/1.1/" xmlns:cc="http://creativecommons.org/ns#" xmlns:rdf="http://www.w3.org/1999/02/22-rdf-syntax-ns#">
   <cc:Work>
    <dc:type rdf:resource="http://purl.org/dc/dcmitype/StillImage"/>
    <dc:date>2025-09-30T20:42:55.792878</dc:date>
    <dc:format>image/svg+xml</dc:format>
    <dc:creator>
     <cc:Agent>
      <dc:title>Matplotlib v3.10.3, https://matplotlib.org/</dc:title>
     </cc:Agent>
    </dc:creator>
   </cc:Work>
  </rdf:RDF>
 </metadata>
 <defs>
  <style type="text/css">*{stroke-linejoin: round; stroke-linecap: butt}</style>
 </defs>
 <g id="figure_1">
  <g id="patch_1">
   <path d="M 0 432 
L 576 432 
L 576 0 
L 0 0 
z
" style="fill: #ffffff"/>
  </g>
  <g id="axes_1">
   <g id="patch_2">
    <path d="M 72 384.48 
L 518.4 384.48 
L 518.4 51.84 
L 72 51.84 
z
" style="fill: #ffffff"/>
   </g>
   <g id="FillBetweenPolyCollection_1">
    <path d="M 344.774012 277.638804 
L 245.625988 277.638804 
L 233.395304 275.466618 
L 220.913178 273.294431 
L 209.051933 271.122244 
L 198.717996 268.950058 
L 190.711406 266.777871 
L 185.594211 264.605684 
L 183.6 262.433498 
L 184.607544 260.261311 
L 188.184774 258.089124 
L 193.690489 255.916938 
L 200.406403 253.744751 
L 207.666078 251.572564 
L 214.951315 249.400378 
L 221.938586 247.228191 
L 228.49364 245.056004 
L 234.626252 242.883818 
L 240.425288 240.711631 
L 245.995229 238.539444 
L 251.409951 236.367258 
L 256.690784 234.195071 
L 261.80717 232.022884 
L 266.692306 229.850698 
L 271.26427 227.678511 
L 275.444781 225.506324 
L 279.171289 223.334137 
L 282.401786 221.161951 
L 285.11415 218.989764 
L 287.302755 216.817577 
L 288.974667 214.645391 
L 290.146876 212.473204 
L 290.845066 210.301017 
L 291.103878 208.128831 
L 290.968244 205.956644 
L 290.495168 203.784457 
L 289.755151 201.612271 
L 288.832306 199.440084 
L 287.822289 197.267897 
L 286.827473 195.095711 
L 285.949459 192.923524 
L 285.27974 190.751337 
L 284.890009 188.579151 
L 284.82396 186.406964 
L 285.092332 184.234777 
L 285.672345 182.062591 
L 286.511852 179.890404 
L 287.537506 177.718217 
L 288.66542 175.546031 
L 289.812327 173.373844 
L 290.90527 171.201657 
L 291.888308 169.029471 
L 292.725535 166.857284 
L 293.400568 164.685097 
L 293.913396 162.512911 
L 294.275854 160.340724 
L 294.507007 158.168537 
L 294.629372 155.996351 
L 294.666425 153.824164 
L 294.641289 151.651977 
L 294.576146 149.479791 
L 294.491759 147.307604 
L 294.406672 145.135417 
L 294.335919 142.963231 
L 294.289518 140.791044 
L 294.271256 138.618857 
L 294.278354 136.446671 
L 294.302382 134.274484 
L 294.331413 132.102297 
L 294.352983 129.930111 
L 294.357098 127.757924 
L 294.338498 125.585737 
L 294.297555 123.413551 
L 294.239631 121.241364 
L 294.17319 119.069177 
L 294.107337 116.896991 
L 294.049641 114.724804 
L 294.004906 112.552617 
L 293.975182 110.380431 
L 293.9608 108.208244 
L 293.961811 106.036057 
L 293.979087 103.863871 
L 294.01455 101.691684 
L 294.07041 99.519497 
L 294.147772 97.347311 
L 294.245213 95.175124 
L 294.357954 93.002937 
L 294.477959 90.830751 
L 294.594925 88.658564 
L 294.697832 86.486377 
L 294.776609 84.314191 
L 294.823568 82.142004 
L 294.834416 79.969817 
L 294.808858 77.797631 
L 294.750813 75.625444 
L 294.668258 73.453257 
L 294.572587 71.281071 
L 294.477411 69.108884 
L 294.396785 66.936697 
L 294.343079 64.764511 
L 294.324923 62.592324 
L 296.075077 62.592324 
L 296.075077 62.592324 
L 296.056921 64.764511 
L 296.003215 66.936697 
L 295.922589 69.108884 
L 295.827413 71.281071 
L 295.731742 73.453257 
L 295.649187 75.625444 
L 295.591142 77.797631 
L 295.565584 79.969817 
L 295.576432 82.142004 
L 295.623391 84.314191 
L 295.702168 86.486377 
L 295.805075 88.658564 
L 295.922041 90.830751 
L 296.042046 93.002937 
L 296.154787 95.175124 
L 296.252228 97.347311 
L 296.32959 99.519497 
L 296.38545 101.691684 
L 296.420913 103.863871 
L 296.438189 106.036057 
L 296.4392 108.208244 
L 296.424818 110.380431 
L 296.395094 112.552617 
L 296.350359 114.724804 
L 296.292663 116.896991 
L 296.22681 119.069177 
L 296.160369 121.241364 
L 296.102445 123.413551 
L 296.061502 125.585737 
L 296.042902 127.757924 
L 296.047017 129.930111 
L 296.068587 132.102297 
L 296.097618 134.274484 
L 296.121646 136.446671 
L 296.128744 138.618857 
L 296.110482 140.791044 
L 296.064081 142.963231 
L 295.993328 145.135417 
L 295.908241 147.307604 
L 295.823854 149.479791 
L 295.758711 151.651977 
L 295.733575 153.824164 
L 295.770628 155.996351 
L 295.892993 158.168537 
L 296.124146 160.340724 
L 296.486604 162.512911 
L 296.999432 164.685097 
L 297.674465 166.857284 
L 298.511692 169.029471 
L 299.49473 171.201657 
L 300.587673 173.373844 
L 301.73458 175.546031 
L 302.862494 177.718217 
L 303.888148 179.890404 
L 304.727655 182.062591 
L 305.307668 184.234777 
L 305.57604 186.406964 
L 305.509991 188.579151 
L 305.12026 190.751337 
L 304.450541 192.923524 
L 303.572527 195.095711 
L 302.577711 197.267897 
L 301.567694 199.440084 
L 300.644849 201.612271 
L 299.904832 203.784457 
L 299.431756 205.956644 
L 299.296122 208.128831 
L 299.554934 210.301017 
L 300.253124 212.473204 
L 301.425333 214.645391 
L 303.097245 216.817577 
L 305.28585 218.989764 
L 307.998214 221.161951 
L 311.228711 223.334137 
L 314.955219 225.506324 
L 319.13573 227.678511 
L 323.707694 229.850698 
L 328.59283 232.022884 
L 333.709216 234.195071 
L 338.990049 236.367258 
L 344.404771 238.539444 
L 349.974712 240.711631 
L 355.773748 242.883818 
L 361.90636 245.056004 
L 368.461414 247.228191 
L 375.448685 249.400378 
L 382.733922 251.572564 
L 389.993597 253.744751 
L 396.709511 255.916938 
L 402.215226 258.089124 
L 405.792456 260.261311 
L 406.8 262.433498 
L 404.805789 264.605684 
L 399.688594 266.777871 
L 391.682004 268.950058 
L 381.348067 271.122244 
L 369.486822 273.294431 
L 357.004696 275.466618 
L 344.774012 277.638804 
z
" clip-path="url(#pa2afc6f69e)" style="fill: #1f77b4; fill-opacity: 0.3"/>
   </g>
   <g id="matplotlib.axis_1">
    <g id="xtick_1">
     <g id="line2d_1">
      <defs>
       <path id="m07590063ad" d="M 0 0 
L 0 3.5 
" style="stroke: #000000; stroke-width: 0.8"/>
      </defs>
      <g>
       <use xlink:href="#m07590063ad" x="295.2" y="384.48" style="stroke: #000000; stroke-width: 0.8"/>
      </g>
     </g>
     <g id="text_1">
      <!-- 1 -->
      <g transform="translate(292.01875 399.078438) scale(0.1 -0.1)">
       <defs>
        <path id="DejaVuSans-31" d="M 794 531 
L 1825 531 
L 1825 4091 
L 703 3866 
L 703 4441 
L 1819 4666 
L 2450 4666 
L 2450 531 
L 3481 531 
L 3481 0 
L 794 0 
L 794 531 
z
" transform="scale(0.015625)"/>
       </defs>
       <use xlink:href="#DejaVuSans-31"/>
      </g>
     </g>
    </g>
   </g>
   <g id="matplotlib.axis_2">
    <g id="ytick_1">
     <g id="line2d_2">
      <defs>
       <path id="md4b3a376cd" d="M 0 0 
L -3.5 0 
" style="stroke: #000000; stroke-width: 0.8"/>
      </defs>
      <g>
       <use xlink:href="#md4b3a376cd" x="72" y="384.48" style="stroke: #000000; stroke-width: 0.8"/>
      </g>
     </g>
     <g id="text_2">
      <!-- 0 -->
      <g transform="translate(58.6375 388.279219) scale(0.1 -0.1)">
       <defs>
        <path id="DejaVuSans-30" d="M 2034 4250 
Q 1547 4250 1301 3770 
Q 1056 3291 1056 2328 
Q 1056 1369 1301 889 
Q 1547 409 2034 409 
Q 2525 409 2770 889 
Q 3016 1369 3016 2328 
Q 3016 3291 2770 3770 
Q 2525 4250 2034 4250 
z
M 2034 4750 
Q 2819 4750 3233 4129 
Q 3647 3509 3647 2328 
Q 3647 1150 3233 529 
Q 2819 -91 2034 -91 
Q 1250 -91 836 529 
Q 422 1150 422 2328 
Q 422 3509 836 4129 
Q 1250 4750 2034 4750 
z
" transform="scale(0.015625)"/>
       </defs>
       <use xlink:href="#DejaVuSans-30"/>
      </g>
     </g>
    </g>
    <g id="ytick_2">
     <g id="line2d_3">
      <g>
       <use xlink:href="#md4b3a376cd" x="72" y="339.054291" style="stroke: #000000; stroke-width: 0.8"/>
      </g>
     </g>
     <g id="text_3">
      <!-- 5 -->
      <g transform="translate(58.6375 342.853509) scale(0.1 -0.1)">
       <defs>
        <path id="DejaVuSans-35" d="M 691 4666 
L 3169 4666 
L 3169 4134 
L 1269 4134 
L 1269 2991 
Q 1406 3038 1543 3061 
Q 1681 3084 1819 3084 
Q 2600 3084 3056 2656 
Q 3513 2228 3513 1497 
Q 3513 744 3044 326 
Q 2575 -91 1722 -91 
Q 1428 -91 1123 -41 
Q 819 9 494 109 
L 494 744 
Q 775 591 1075 516 
Q 1375 441 1709 441 
Q 2250 441 2565 725 
Q 2881 1009 2881 1497 
Q 2881 1984 2565 2268 
Q 2250 2553 1709 2553 
Q 1456 2553 1204 2497 
Q 953 2441 691 2322 
L 691 4666 
z
" transform="scale(0.015625)"/>
       </defs>
       <use xlink:href="#DejaVuSans-35"/>
      </g>
     </g>
    </g>
    <g id="ytick_3">
     <g id="line2d_4">
      <g>
       <use xlink:href="#md4b3a376cd" x="72" y="293.628581" style="stroke: #000000; stroke-width: 0.8"/>
      </g>
     </g>
     <g id="text_4">
      <!-- 10 -->
      <g transform="translate(52.275 297.4278) scale(0.1 -0.1)">
       <use xlink:href="#DejaVuSans-31"/>
       <use xlink:href="#DejaVuSans-30" transform="translate(63.623047 0)"/>
      </g>
     </g>
    </g>
    <g id="ytick_4">
     <g id="line2d_5">
      <g>
       <use xlink:href="#md4b3a376cd" x="72" y="248.202872" style="stroke: #000000; stroke-width: 0.8"/>
      </g>
     </g>
     <g id="text_5">
      <!-- 15 -->
      <g transform="translate(52.275 252.002091) scale(0.1 -0.1)">
       <use xlink:href="#DejaVuSans-31"/>
       <use xlink:href="#DejaVuSans-35" transform="translate(63.623047 0)"/>
      </g>
     </g>
    </g>
    <g id="ytick_5">
     <g id="line2d_6">
      <g>
       <use xlink:href="#md4b3a376cd" x="72" y="202.777162" style="stroke: #000000; stroke-width: 0.8"/>
      </g>
     </g>
     <g id="text_6">
      <!-- 20 -->
      <g transform="translate(52.275 206.576381) scale(0.1 -0.1)">
       <defs>
        <path id="DejaVuSans-32" d="M 1228 531 
L 3431 531 
L 3431 0 
L 469 0 
L 469 531 
Q 828 903 1448 1529 
Q 2069 2156 2228 2338 
Q 2531 2678 2651 2914 
Q 2772 3150 2772 3378 
Q 2772 3750 2511 3984 
Q 2250 4219 1831 4219 
Q 1534 4219 1204 4116 
Q 875 4013 500 3803 
L 500 4441 
Q 881 4594 1212 4672 
Q 1544 4750 1819 4750 
Q 2544 4750 2975 4387 
Q 3406 4025 3406 3419 
Q 3406 3131 3298 2873 
Q 3191 2616 2906 2266 
Q 2828 2175 2409 1742 
Q 1991 1309 1228 531 
z
" transform="scale(0.015625)"/>
       </defs>
       <use xlink:href="#DejaVuSans-32"/>
       <use xlink:href="#DejaVuSans-30" transform="translate(63.623047 0)"/>
      </g>
     </g>
    </g>
    <g id="ytick_6">
     <g id="line2d_7">
      <g>
       <use xlink:href="#md4b3a376cd" x="72" y="157.351453" style="stroke: #000000; stroke-width: 0.8"/>
      </g>
     </g>
     <g id="text_7">
      <!-- 25 -->
      <g transform="translate(52.275 161.150672) scale(0.1 -0.1)">
       <use xlink:href="#DejaVuSans-32"/>
       <use xlink:href="#DejaVuSans-35" transform="translate(63.623047 0)"/>
      </g>
     </g>
    </g>
    <g id="ytick_7">
     <g id="line2d_8">
      <g>
       <use xlink:href="#md4b3a376cd" x="72" y="111.925744" style="stroke: #000000; stroke-width: 0.8"/>
      </g>
     </g>
     <g id="text_8">
      <!-- 30 -->
      <g transform="translate(52.275 115.724962) scale(0.1 -0.1)">
       <defs>
        <path id="DejaVuSans-33" d="M 2597 2516 
Q 3050 2419 3304 2112 
Q 3559 1806 3559 1356 
Q 3559 666 3084 287 
Q 2609 -91 1734 -91 
Q 1441 -91 1130 -33 
Q 819 25 488 141 
L 488 750 
Q 750 597 1062 519 
Q 1375 441 1716 441 
Q 2309 441 2620 675 
Q 2931 909 2931 1356 
Q 2931 1769 2642 2001 
Q 2353 2234 1838 2234 
L 1294 2234 
L 1294 2753 
L 1863 2753 
Q 2328 2753 2575 2939 
Q 2822 3125 2822 3475 
Q 2822 3834 2567 4026 
Q 2313 4219 1838 4219 
Q 1578 4219 1281 4162 
Q 984 4106 628 3988 
L 628 4550 
Q 988 4650 1302 4700 
Q 1616 4750 1894 4750 
Q 2613 4750 3031 4423 
Q 3450 4097 3450 3541 
Q 3450 3153 3228 2886 
Q 3006 2619 2597 2516 
z
" transform="scale(0.015625)"/>
       </defs>
       <use xlink:href="#DejaVuSans-33"/>
       <use xlink:href="#DejaVuSans-30" transform="translate(63.623047 0)"/>
      </g>
     </g>
    </g>
    <g id="ytick_8">
     <g id="line2d_9">
      <g>
       <use xlink:href="#md4b3a376cd" x="72" y="66.500034" style="stroke: #000000; stroke-width: 0.8"/>
      </g>
     </g>
     <g id="text_9">
      <!-- 35 -->
      <g transform="translate(52.275 70.299253) scale(0.1 -0.1)">
       <use xlink:href="#DejaVuSans-33"/>
       <use xlink:href="#DejaVuSans-35" transform="translate(63.623047 0)"/>
      </g>
     </g>
    </g>
    <g id="text_10">
     <!-- Time (ms) -->
     <g transform="translate(46.195312 243.359219) rotate(-90) scale(0.1 -0.1)">
      <defs>
       <path id="DejaVuSans-54" d="M -19 4666 
L 3928 4666 
L 3928 4134 
L 2272 4134 
L 2272 0 
L 1638 0 
L 1638 4134 
L -19 4134 
L -19 4666 
z
" transform="scale(0.015625)"/>
       <path id="DejaVuSans-69" d="M 603 3500 
L 1178 3500 
L 1178 0 
L 603 0 
L 603 3500 
z
M 603 4863 
L 1178 4863 
L 1178 4134 
L 603 4134 
L 603 4863 
z
" transform="scale(0.015625)"/>
       <path id="DejaVuSans-6d" d="M 3328 2828 
Q 3544 3216 3844 3400 
Q 4144 3584 4550 3584 
Q 5097 3584 5394 3201 
Q 5691 2819 5691 2113 
L 5691 0 
L 5113 0 
L 5113 2094 
Q 5113 2597 4934 2840 
Q 4756 3084 4391 3084 
Q 3944 3084 3684 2787 
Q 3425 2491 3425 1978 
L 3425 0 
L 2847 0 
L 2847 2094 
Q 2847 2600 2669 2842 
Q 2491 3084 2119 3084 
Q 1678 3084 1418 2786 
Q 1159 2488 1159 1978 
L 1159 0 
L 581 0 
L 581 3500 
L 1159 3500 
L 1159 2956 
Q 1356 3278 1631 3431 
Q 1906 3584 2284 3584 
Q 2666 3584 2933 3390 
Q 3200 3197 3328 2828 
z
" transform="scale(0.015625)"/>
       <path id="DejaVuSans-65" d="M 3597 1894 
L 3597 1613 
L 953 1613 
Q 991 1019 1311 708 
Q 1631 397 2203 397 
Q 2534 397 2845 478 
Q 3156 559 3463 722 
L 3463 178 
Q 3153 47 2828 -22 
Q 2503 -91 2169 -91 
Q 1331 -91 842 396 
Q 353 884 353 1716 
Q 353 2575 817 3079 
Q 1281 3584 2069 3584 
Q 2775 3584 3186 3129 
Q 3597 2675 3597 1894 
z
M 3022 2063 
Q 3016 2534 2758 2815 
Q 2500 3097 2075 3097 
Q 1594 3097 1305 2825 
Q 1016 2553 972 2059 
L 3022 2063 
z
" transform="scale(0.015625)"/>
       <path id="DejaVuSans-20" transform="scale(0.015625)"/>
       <path id="DejaVuSans-28" d="M 1984 4856 
Q 1566 4138 1362 3434 
Q 1159 2731 1159 2009 
Q 1159 1288 1364 580 
Q 1569 -128 1984 -844 
L 1484 -844 
Q 1016 -109 783 600 
Q 550 1309 550 2009 
Q 550 2706 781 3412 
Q 1013 4119 1484 4856 
L 1984 4856 
z
" transform="scale(0.015625)"/>
       <path id="DejaVuSans-73" d="M 2834 3397 
L 2834 2853 
Q 2591 2978 2328 3040 
Q 2066 3103 1784 3103 
Q 1356 3103 1142 2972 
Q 928 2841 928 2578 
Q 928 2378 1081 2264 
Q 1234 2150 1697 2047 
L 1894 2003 
Q 2506 1872 2764 1633 
Q 3022 1394 3022 966 
Q 3022 478 2636 193 
Q 2250 -91 1575 -91 
Q 1294 -91 989 -36 
Q 684 19 347 128 
L 347 722 
Q 666 556 975 473 
Q 1284 391 1588 391 
Q 1994 391 2212 530 
Q 2431 669 2431 922 
Q 2431 1156 2273 1281 
Q 2116 1406 1581 1522 
L 1381 1569 
Q 847 1681 609 1914 
Q 372 2147 372 2553 
Q 372 3047 722 3315 
Q 1072 3584 1716 3584 
Q 2034 3584 2315 3537 
Q 2597 3491 2834 3397 
z
" transform="scale(0.015625)"/>
       <path id="DejaVuSans-29" d="M 513 4856 
L 1013 4856 
Q 1481 4119 1714 3412 
Q 1947 2706 1947 2009 
Q 1947 1309 1714 600 
Q 1481 -109 1013 -844 
L 513 -844 
Q 928 -128 1133 580 
Q 1338 1288 1338 2009 
Q 1338 2731 1133 3434 
Q 928 4138 513 4856 
z
" transform="scale(0.015625)"/>
      </defs>
      <use xlink:href="#DejaVuSans-54"/>
      <use xlink:href="#DejaVuSans-69" transform="translate(57.958984 0)"/>
      <use xlink:href="#DejaVuSans-6d" transform="translate(85.742188 0)"/>
      <use xlink:href="#DejaVuSans-65" transform="translate(183.154297 0)"/>
      <use xlink:href="#DejaVuSans-20" transform="translate(244.677734 0)"/>
      <use xlink:href="#DejaVuSans-28" transform="translate(276.464844 0)"/>
      <use xlink:href="#DejaVuSans-6d" transform="translate(315.478516 0)"/>
      <use xlink:href="#DejaVuSans-73" transform="translate(412.890625 0)"/>
      <use xlink:href="#DejaVuSans-29" transform="translate(464.990234 0)"/>
     </g>
    </g>
   </g>
   <g id="LineCollection_1">
    <path d="M 239.4 249.05569 
L 351 249.05569 
" clip-path="url(#pa2afc6f69e)" style="fill: none; stroke: #1f77b4; stroke-width: 1.5"/>
   </g>
   <g id="LineCollection_2">
    <path d="M 239.4 62.592324 
L 351 62.592324 
" clip-path="url(#pa2afc6f69e)" style="fill: none; stroke: #1f77b4; stroke-width: 1.5"/>
   </g>
   <g id="LineCollection_3">
    <path d="M 239.4 277.638804 
L 351 277.638804 
" clip-path="url(#pa2afc6f69e)" style="fill: none; stroke: #1f77b4; stroke-width: 1.5"/>
   </g>
   <g id="LineCollection_4">
    <path d="M 295.2 277.638804 
L 295.2 62.592324 
" clip-path="url(#pa2afc6f69e)" style="fill: none; stroke: #1f77b4; stroke-width: 1.5"/>
   </g>
   <g id="patch_3">
    <path d="M 250.56 265.718131 
L 339.84 265.718131 
L 339.84 242.719891 
L 250.56 242.719891 
L 250.56 265.718131 
z
" clip-path="url(#pa2afc6f69e)" style="fill: #1f77b4; stroke: #000000; stroke-linejoin: miter"/>
   </g>
   <g id="line2d_10">
    <path d="M 295.2 265.718131 
L 295.2 277.638804 
" clip-path="url(#pa2afc6f69e)" style="fill: none; stroke: #000000; stroke-linecap: square"/>
   </g>
   <g id="line2d_11">
    <path d="M 295.2 242.719891 
L 295.2 219.421878 
" clip-path="url(#pa2afc6f69e)" style="fill: none; stroke: #000000; stroke-linecap: square"/>
   </g>
   <g id="line2d_12">
    <path d="M 272.88 277.638804 
L 317.52 277.638804 
" clip-path="url(#pa2afc6f69e)" style="fill: none; stroke: #000000; stroke-linecap: square"/>
   </g>
   <g id="line2d_13">
    <path d="M 272.88 219.421878 
L 317.52 219.421878 
" clip-path="url(#pa2afc6f69e)" style="fill: none; stroke: #000000; stroke-linecap: square"/>
   </g>
   <g id="line2d_14">
    <defs>
     <path id="mb18664b788" d="M 0 3 
C 0.795609 3 1.55874 2.683901 2.12132 2.12132 
C 2.683901 1.55874 3 0.795609 3 0 
C 3 -0.795609 2.683901 -1.55874 2.12132 -2.12132 
C 1.55874 -2.683901 0.795609 -3 0 -3 
C -0.795609 -3 -1.55874 -2.683901 -2.12132 -2.12132 
C -2.683901 -1.55874 -3 -0.795609 -3 0 
C -3 0.795609 -2.683901 1.55874 -2.12132 2.12132 
C -1.55874 2.683901 -0.795609 3 0 3 
z
" style="stroke: #000000"/>
    </defs>
    <g clip-path="url(#pa2afc6f69e)">
     <use xlink:href="#mb18664b788" x="295.2" y="183.825529" style="fill-opacity: 0; stroke: #000000"/>
     <use xlink:href="#mb18664b788" x="295.2" y="181.866209" style="fill-opacity: 0; stroke: #000000"/>
     <use xlink:href="#mb18664b788" x="295.2" y="191.91891" style="fill-opacity: 0; stroke: #000000"/>
     <use xlink:href="#mb18664b788" x="295.2" y="115.269766" style="fill-opacity: 0; stroke: #000000"/>
     <use xlink:href="#mb18664b788" x="295.2" y="186.873994" style="fill-opacity: 0; stroke: #000000"/>
     <use xlink:href="#mb18664b788" x="295.2" y="98.454132" style="fill-opacity: 0; stroke: #000000"/>
     <use xlink:href="#mb18664b788" x="295.2" y="186.220009" style="fill-opacity: 0; stroke: #000000"/>
     <use xlink:href="#mb18664b788" x="295.2" y="182.282609" style="fill-opacity: 0; stroke: #000000"/>
     <use xlink:href="#mb18664b788" x="295.2" y="192.668461" style="fill-opacity: 0; stroke: #000000"/>
     <use xlink:href="#mb18664b788" x="295.2" y="199.746768" style="fill-opacity: 0; stroke: #000000"/>
     <use xlink:href="#mb18664b788" x="295.2" y="191.65495" style="fill-opacity: 0; stroke: #000000"/>
     <use xlink:href="#mb18664b788" x="295.2" y="191.498486" style="fill-opacity: 0; stroke: #000000"/>
     <use xlink:href="#mb18664b788" x="295.2" y="183.619696" style="fill-opacity: 0; stroke: #000000"/>
     <use xlink:href="#mb18664b788" x="295.2" y="139.943531" style="fill-opacity: 0; stroke: #000000"/>
     <use xlink:href="#mb18664b788" x="295.2" y="180.476691" style="fill-opacity: 0; stroke: #000000"/>
     <use xlink:href="#mb18664b788" x="295.2" y="175.113923" style="fill-opacity: 0; stroke: #000000"/>
     <use xlink:href="#mb18664b788" x="295.2" y="191.537052" style="fill-opacity: 0; stroke: #000000"/>
     <use xlink:href="#mb18664b788" x="295.2" y="62.592324" style="fill-opacity: 0; stroke: #000000"/>
    </g>
   </g>
   <g id="line2d_15">
    <path d="M 250.56 259.192509 
L 339.84 259.192509 
" clip-path="url(#pa2afc6f69e)" style="fill: none; stroke: #ff7f0e"/>
   </g>
   <g id="patch_4">
    <path d="M 72 384.48 
L 72 51.84 
" style="fill: none; stroke: #000000; stroke-width: 0.8; stroke-linejoin: miter; stroke-linecap: square"/>
   </g>
   <g id="patch_5">
    <path d="M 518.4 384.48 
L 518.4 51.84 
" style="fill: none; stroke: #000000; stroke-width: 0.8; stroke-linejoin: miter; stroke-linecap: square"/>
   </g>
   <g id="patch_6">
    <path d="M 72 384.48 
L 518.4 384.48 
" style="fill: none; stroke: #000000; stroke-width: 0.8; stroke-linejoin: miter; stroke-linecap: square"/>
   </g>
   <g id="patch_7">
    <path d="M 72 51.84 
L 518.4 51.84 
" style="fill: none; stroke: #000000; stroke-width: 0.8; stroke-linejoin: miter; stroke-linecap: square"/>
   </g>
   <g id="text_11">
    <!-- Test Method -->
    <g transform="translate(258.975 45.84) scale(0.12 -0.12)">
     <defs>
      <path id="DejaVuSans-74" d="M 1172 4494 
L 1172 3500 
L 2356 3500 
L 2356 3053 
L 1172 3053 
L 1172 1153 
Q 1172 725 1289 603 
Q 1406 481 1766 481 
L 2356 481 
L 2356 0 
L 1766 0 
Q 1100 0 847 248 
Q 594 497 594 1153 
L 594 3053 
L 172 3053 
L 172 3500 
L 594 3500 
L 594 4494 
L 1172 4494 
z
" transform="scale(0.015625)"/>
      <path id="DejaVuSans-4d" d="M 628 4666 
L 1569 4666 
L 2759 1491 
L 3956 4666 
L 4897 4666 
L 4897 0 
L 4281 0 
L 4281 4097 
L 3078 897 
L 2444 897 
L 1241 4097 
L 1241 0 
L 628 0 
L 628 4666 
z
" transform="scale(0.015625)"/>
      <path id="DejaVuSans-68" d="M 3513 2113 
L 3513 0 
L 2938 0 
L 2938 2094 
Q 2938 2591 2744 2837 
Q 2550 3084 2163 3084 
Q 1697 3084 1428 2787 
Q 1159 2491 1159 1978 
L 1159 0 
L 581 0 
L 581 4863 
L 1159 4863 
L 1159 2956 
Q 1366 3272 1645 3428 
Q 1925 3584 2291 3584 
Q 2894 3584 3203 3211 
Q 3513 2838 3513 2113 
z
" transform="scale(0.015625)"/>
      <path id="DejaVuSans-6f" d="M 1959 3097 
Q 1497 3097 1228 2736 
Q 959 2375 959 1747 
Q 959 1119 1226 758 
Q 1494 397 1959 397 
Q 2419 397 2687 759 
Q 2956 1122 2956 1747 
Q 2956 2369 2687 2733 
Q 2419 3097 1959 3097 
z
M 1959 3584 
Q 2709 3584 3137 3096 
Q 3566 2609 3566 1747 
Q 3566 888 3137 398 
Q 2709 -91 1959 -91 
Q 1206 -91 779 398 
Q 353 888 353 1747 
Q 353 2609 779 3096 
Q 1206 3584 1959 3584 
z
" transform="scale(0.015625)"/>
      <path id="DejaVuSans-64" d="M 2906 2969 
L 2906 4863 
L 3481 4863 
L 3481 0 
L 2906 0 
L 2906 525 
Q 2725 213 2448 61 
Q 2172 -91 1784 -91 
Q 1150 -91 751 415 
Q 353 922 353 1747 
Q 353 2572 751 3078 
Q 1150 3584 1784 3584 
Q 2172 3584 2448 3432 
Q 2725 3281 2906 2969 
z
M 947 1747 
Q 947 1113 1208 752 
Q 1469 391 1925 391 
Q 2381 391 2643 752 
Q 2906 1113 2906 1747 
Q 2906 2381 2643 2742 
Q 2381 3103 1925 3103 
Q 1469 3103 1208 2742 
Q 947 2381 947 1747 
z
" transform="scale(0.015625)"/>
     </defs>
     <use xlink:href="#DejaVuSans-54"/>
     <use xlink:href="#DejaVuSans-65" transform="translate(44.083984 0)"/>
     <use xlink:href="#DejaVuSans-73" transform="translate(105.607422 0)"/>
     <use xlink:href="#DejaVuSans-74" transform="translate(157.707031 0)"/>
     <use xlink:href="#DejaVuSans-20" transform="translate(196.916016 0)"/>
     <use xlink:href="#DejaVuSans-4d" transform="translate(228.703125 0)"/>
     <use xlink:href="#DejaVuSans-65" transform="translate(314.982422 0)"/>
     <use xlink:href="#DejaVuSans-74" transform="translate(376.505859 0)"/>
     <use xlink:href="#DejaVuSans-68" transform="translate(415.714844 0)"/>
     <use xlink:href="#DejaVuSans-6f" transform="translate(479.09375 0)"/>
     <use xlink:href="#DejaVuSans-64" transform="translate(540.275391 0)"/>
    </g>
   </g>
  </g>
 </g>
 <defs>
  <clipPath id="pa2afc6f69e">
   <rect x="72" y="51.84" width="446.4" height="332.64"/>
  </clipPath>
 </defs>
</svg>
