<?xml version="1.0" encoding="utf-8" standalone="no"?>
<!DOCTYPE svg PUBLIC "-//W3C//DTD SVG 1.1//EN"
  "http://www.w3.org/Graphics/SVG/1.1/DTD/svg11.dtd">
<svg xmlns:xlink="http://www.w3.org/1999/xlink" width="576pt" height="432pt" viewBox="0 0 576 432" xmlns="http://www.w3.org/2000/svg" version="1.1">
 <metadata>
  <rdf:RDF xmlns:dc="http://purl.org/dc/elements/1.1/" xmlns:cc="http://creativecommons.org/ns#" xmlns:rdf="http://www.w3.org/1999/02/22-rdf-syntax-ns#">
   <cc:Work>
    <dc:type rdf:resource="http://purl.org/dc/dcmitype/StillImage"/>
    <dc:date>2025-06-10T03:16:55.211995</dc:date>
    <dc:format>image/svg+xml</dc:format>
    <dc:creator>
     <cc:Agent>
      <dc:title>Matplotlib v3.10.3, https://matplotlib.org/</dc:title>
     </cc:Agent>
    </dc:creator>
   </cc:Work>
  </rdf:RDF>
 </metadata>
 <defs>
  <style type="text/css">*{stroke-linejoin: round; stroke-linecap: butt}</style>
 </defs>
 <g id="figure_1">
  <g id="patch_1">
   <path d="M 0 432 
L 576 432 
L 576 0 
L 0 0 
z
" style="fill: #ffffff"/>
  </g>
  <g id="axes_1">
   <g id="patch_2">
    <path d="M 72 384.48 
L 518.4 384.48 
L 518.4 51.84 
L 72 51.84 
z
" style="fill: #ffffff"/>
   </g>
   <g id="FillBetweenPolyCollection_1">
    <path d="M 404.682572 378.078937 
L 185.717428 378.078937 
L 183.6 374.940515 
L 188.373273 371.802094 
L 199.119566 368.663672 
L 213.920588 365.52525 
L 230.401544 362.386828 
L 246.337333 359.248407 
L 260.113144 356.109985 
L 270.921526 352.971563 
L 278.698236 349.833142 
L 283.889133 346.69472 
L 287.169365 343.556298 
L 289.211063 340.417876 
L 290.545447 337.279455 
L 291.518605 334.141033 
L 292.312743 331.002611 
L 292.997808 327.86419 
L 293.585257 324.725768 
L 294.0681 321.587346 
L 294.442853 318.448924 
L 294.716548 315.310503 
L 294.904942 312.172081 
L 295.027601 309.033659 
L 295.103437 305.895238 
L 295.148119 302.756816 
L 295.173268 299.618394 
L 295.186806 296.479972 
L 295.193773 293.341551 
L 295.197197 290.203129 
L 295.198799 287.064707 
L 295.199512 283.926286 
L 295.199812 280.787864 
L 295.199932 277.649442 
L 295.199977 274.51102 
L 295.199992 271.372599 
L 295.199998 268.234177 
L 295.199999 265.095755 
L 295.2 261.957334 
L 295.2 258.818912 
L 295.2 255.68049 
L 295.2 252.542069 
L 295.2 249.403647 
L 295.2 246.265225 
L 295.2 243.126803 
L 295.2 239.988382 
L 295.2 236.84996 
L 295.2 233.711538 
L 295.2 230.573117 
L 295.2 227.434695 
L 295.2 224.296273 
L 295.2 221.157851 
L 295.2 218.01943 
L 295.199998 214.881008 
L 295.199994 211.742586 
L 295.199981 208.604165 
L 295.199941 205.465743 
L 295.19983 202.327321 
L 295.19954 199.188899 
L 295.198825 196.050478 
L 295.197167 192.912056 
L 295.193548 189.773634 
L 295.18611 186.635213 
L 295.171704 183.496791 
L 295.145393 180.358369 
L 295.100053 177.219947 
L 295.026307 174.081526 
L 294.913097 170.943104 
L 294.749166 167.804682 
L 294.525579 164.666261 
L 294.239101 161.527839 
L 293.895814 158.389417 
L 293.513895 155.250995 
L 293.124232 152.112574 
L 292.767754 148.974152 
L 292.489133 145.83573 
L 292.32781 142.697309 
L 292.308591 139.558887 
L 292.434772 136.420465 
L 292.686299 133.282043 
L 293.023932 130.143622 
L 293.398301 127.0052 
L 293.761048 123.866778 
L 294.0747 120.728357 
L 294.318604 117.589935 
L 294.48983 114.451513 
L 294.599582 111.313091 
L 294.66686 108.17467 
L 294.711563 105.036248 
L 294.748966 101.897826 
L 294.786791 98.759405 
L 294.825176 95.620983 
L 294.859 92.482561 
L 294.881463 89.344139 
L 294.887626 86.205718 
L 294.876848 83.067296 
L 294.853501 79.928874 
L 294.825917 76.790453 
L 294.804034 73.652031 
L 294.796585 70.513609 
L 294.808736 67.375187 
L 295.591264 67.375187 
L 295.591264 67.375187 
L 295.603415 70.513609 
L 295.595966 73.652031 
L 295.574083 76.790453 
L 295.546499 79.928874 
L 295.523152 83.067296 
L 295.512374 86.205718 
L 295.518537 89.344139 
L 295.541 92.482561 
L 295.574824 95.620983 
L 295.613209 98.759405 
L 295.651034 101.897826 
L 295.688437 105.036248 
L 295.73314 108.17467 
L 295.800418 111.313091 
L 295.91017 114.451513 
L 296.081396 117.589935 
L 296.3253 120.728357 
L 296.638952 123.866778 
L 297.001699 127.0052 
L 297.376068 130.143622 
L 297.713701 133.282043 
L 297.965228 136.420465 
L 298.091409 139.558887 
L 298.07219 142.697309 
L 297.910867 145.83573 
L 297.632246 148.974152 
L 297.275768 152.112574 
L 296.886105 155.250995 
L 296.504186 158.389417 
L 296.160899 161.527839 
L 295.874421 164.666261 
L 295.650834 167.804682 
L 295.486903 170.943104 
L 295.373693 174.081526 
L 295.299947 177.219947 
L 295.254607 180.358369 
L 295.228296 183.496791 
L 295.21389 186.635213 
L 295.206452 189.773634 
L 295.202833 192.912056 
L 295.201175 196.050478 
L 295.20046 199.188899 
L 295.20017 202.327321 
L 295.200059 205.465743 
L 295.200019 208.604165 
L 295.200006 211.742586 
L 295.200002 214.881008 
L 295.2 218.01943 
L 295.2 221.157851 
L 295.2 224.296273 
L 295.2 227.434695 
L 295.2 230.573117 
L 295.2 233.711538 
L 295.2 236.84996 
L 295.2 239.988382 
L 295.2 243.126803 
L 295.2 246.265225 
L 295.2 249.403647 
L 295.2 252.542069 
L 295.2 255.68049 
L 295.2 258.818912 
L 295.2 261.957334 
L 295.200001 265.095755 
L 295.200002 268.234177 
L 295.200008 271.372599 
L 295.200023 274.51102 
L 295.200068 277.649442 
L 295.200188 280.787864 
L 295.200488 283.926286 
L 295.201201 287.064707 
L 295.202803 290.203129 
L 295.206227 293.341551 
L 295.213194 296.479972 
L 295.226732 299.618394 
L 295.251881 302.756816 
L 295.296563 305.895238 
L 295.372399 309.033659 
L 295.495058 312.172081 
L 295.683452 315.310503 
L 295.957147 318.448924 
L 296.3319 321.587346 
L 296.814743 324.725768 
L 297.402192 327.86419 
L 298.087257 331.002611 
L 298.881395 334.141033 
L 299.854553 337.279455 
L 301.188937 340.417876 
L 303.230635 343.556298 
L 306.510867 346.69472 
L 311.701764 349.833142 
L 319.478474 352.971563 
L 330.286856 356.109985 
L 344.062667 359.248407 
L 359.998456 362.386828 
L 376.479412 365.52525 
L 391.280434 368.663672 
L 402.026727 371.802094 
L 406.8 374.940515 
L 404.682572 378.078937 
z
" clip-path="url(#p65e524d53a)" style="fill: #1f77b4; fill-opacity: 0.3"/>
   </g>
   <g id="matplotlib.axis_1">
    <g id="xtick_1">
     <g id="line2d_1">
      <defs>
       <path id="m5b93ac16fc" d="M 0 0 
L 0 3.5 
" style="stroke: #000000; stroke-width: 0.8"/>
      </defs>
      <g>
       <use xlink:href="#m5b93ac16fc" x="295.2" y="384.48" style="stroke: #000000; stroke-width: 0.8"/>
      </g>
     </g>
     <g id="text_1">
      <!-- 1 -->
      <g transform="translate(292.01875 399.078438) scale(0.1 -0.1)">
       <defs>
        <path id="DejaVuSans-31" d="M 794 531 
L 1825 531 
L 1825 4091 
L 703 3866 
L 703 4441 
L 1819 4666 
L 2450 4666 
L 2450 531 
L 3481 531 
L 3481 0 
L 794 0 
L 794 531 
z
" transform="scale(0.015625)"/>
       </defs>
       <use xlink:href="#DejaVuSans-31"/>
      </g>
     </g>
    </g>
   </g>
   <g id="matplotlib.axis_2">
    <g id="ytick_1">
     <g id="line2d_2">
      <defs>
       <path id="m6b6241d3ff" d="M 0 0 
L -3.5 0 
" style="stroke: #000000; stroke-width: 0.8"/>
      </defs>
      <g>
       <use xlink:href="#m6b6241d3ff" x="72" y="384.48" style="stroke: #000000; stroke-width: 0.8"/>
      </g>
     </g>
     <g id="text_2">
      <!-- 0 -->
      <g transform="translate(58.6375 388.279219) scale(0.1 -0.1)">
       <defs>
        <path id="DejaVuSans-30" d="M 2034 4250 
Q 1547 4250 1301 3770 
Q 1056 3291 1056 2328 
Q 1056 1369 1301 889 
Q 1547 409 2034 409 
Q 2525 409 2770 889 
Q 3016 1369 3016 2328 
Q 3016 3291 2770 3770 
Q 2525 4250 2034 4250 
z
M 2034 4750 
Q 2819 4750 3233 4129 
Q 3647 3509 3647 2328 
Q 3647 1150 3233 529 
Q 2819 -91 2034 -91 
Q 1250 -91 836 529 
Q 422 1150 422 2328 
Q 422 3509 836 4129 
Q 1250 4750 2034 4750 
z
" transform="scale(0.015625)"/>
       </defs>
       <use xlink:href="#DejaVuSans-30"/>
      </g>
     </g>
    </g>
    <g id="ytick_2">
     <g id="line2d_3">
      <g>
       <use xlink:href="#m6b6241d3ff" x="72" y="342.208111" style="stroke: #000000; stroke-width: 0.8"/>
      </g>
     </g>
     <g id="text_3">
      <!-- 20 -->
      <g transform="translate(52.275 346.00733) scale(0.1 -0.1)">
       <defs>
        <path id="DejaVuSans-32" d="M 1228 531 
L 3431 531 
L 3431 0 
L 469 0 
L 469 531 
Q 828 903 1448 1529 
Q 2069 2156 2228 2338 
Q 2531 2678 2651 2914 
Q 2772 3150 2772 3378 
Q 2772 3750 2511 3984 
Q 2250 4219 1831 4219 
Q 1534 4219 1204 4116 
Q 875 4013 500 3803 
L 500 4441 
Q 881 4594 1212 4672 
Q 1544 4750 1819 4750 
Q 2544 4750 2975 4387 
Q 3406 4025 3406 3419 
Q 3406 3131 3298 2873 
Q 3191 2616 2906 2266 
Q 2828 2175 2409 1742 
Q 1991 1309 1228 531 
z
" transform="scale(0.015625)"/>
       </defs>
       <use xlink:href="#DejaVuSans-32"/>
       <use xlink:href="#DejaVuSans-30" transform="translate(63.623047 0)"/>
      </g>
     </g>
    </g>
    <g id="ytick_3">
     <g id="line2d_4">
      <g>
       <use xlink:href="#m6b6241d3ff" x="72" y="299.936223" style="stroke: #000000; stroke-width: 0.8"/>
      </g>
     </g>
     <g id="text_4">
      <!-- 40 -->
      <g transform="translate(52.275 303.735442) scale(0.1 -0.1)">
       <defs>
        <path id="DejaVuSans-34" d="M 2419 4116 
L 825 1625 
L 2419 1625 
L 2419 4116 
z
M 2253 4666 
L 3047 4666 
L 3047 1625 
L 3713 1625 
L 3713 1100 
L 3047 1100 
L 3047 0 
L 2419 0 
L 2419 1100 
L 313 1100 
L 313 1709 
L 2253 4666 
z
" transform="scale(0.015625)"/>
       </defs>
       <use xlink:href="#DejaVuSans-34"/>
       <use xlink:href="#DejaVuSans-30" transform="translate(63.623047 0)"/>
      </g>
     </g>
    </g>
    <g id="ytick_4">
     <g id="line2d_5">
      <g>
       <use xlink:href="#m6b6241d3ff" x="72" y="257.664334" style="stroke: #000000; stroke-width: 0.8"/>
      </g>
     </g>
     <g id="text_5">
      <!-- 60 -->
      <g transform="translate(52.275 261.463553) scale(0.1 -0.1)">
       <defs>
        <path id="DejaVuSans-36" d="M 2113 2584 
Q 1688 2584 1439 2293 
Q 1191 2003 1191 1497 
Q 1191 994 1439 701 
Q 1688 409 2113 409 
Q 2538 409 2786 701 
Q 3034 994 3034 1497 
Q 3034 2003 2786 2293 
Q 2538 2584 2113 2584 
z
M 3366 4563 
L 3366 3988 
Q 3128 4100 2886 4159 
Q 2644 4219 2406 4219 
Q 1781 4219 1451 3797 
Q 1122 3375 1075 2522 
Q 1259 2794 1537 2939 
Q 1816 3084 2150 3084 
Q 2853 3084 3261 2657 
Q 3669 2231 3669 1497 
Q 3669 778 3244 343 
Q 2819 -91 2113 -91 
Q 1303 -91 875 529 
Q 447 1150 447 2328 
Q 447 3434 972 4092 
Q 1497 4750 2381 4750 
Q 2619 4750 2861 4703 
Q 3103 4656 3366 4563 
z
" transform="scale(0.015625)"/>
       </defs>
       <use xlink:href="#DejaVuSans-36"/>
       <use xlink:href="#DejaVuSans-30" transform="translate(63.623047 0)"/>
      </g>
     </g>
    </g>
    <g id="ytick_5">
     <g id="line2d_6">
      <g>
       <use xlink:href="#m6b6241d3ff" x="72" y="215.392446" style="stroke: #000000; stroke-width: 0.8"/>
      </g>
     </g>
     <g id="text_6">
      <!-- 80 -->
      <g transform="translate(52.275 219.191664) scale(0.1 -0.1)">
       <defs>
        <path id="DejaVuSans-38" d="M 2034 2216 
Q 1584 2216 1326 1975 
Q 1069 1734 1069 1313 
Q 1069 891 1326 650 
Q 1584 409 2034 409 
Q 2484 409 2743 651 
Q 3003 894 3003 1313 
Q 3003 1734 2745 1975 
Q 2488 2216 2034 2216 
z
M 1403 2484 
Q 997 2584 770 2862 
Q 544 3141 544 3541 
Q 544 4100 942 4425 
Q 1341 4750 2034 4750 
Q 2731 4750 3128 4425 
Q 3525 4100 3525 3541 
Q 3525 3141 3298 2862 
Q 3072 2584 2669 2484 
Q 3125 2378 3379 2068 
Q 3634 1759 3634 1313 
Q 3634 634 3220 271 
Q 2806 -91 2034 -91 
Q 1263 -91 848 271 
Q 434 634 434 1313 
Q 434 1759 690 2068 
Q 947 2378 1403 2484 
z
M 1172 3481 
Q 1172 3119 1398 2916 
Q 1625 2713 2034 2713 
Q 2441 2713 2670 2916 
Q 2900 3119 2900 3481 
Q 2900 3844 2670 4047 
Q 2441 4250 2034 4250 
Q 1625 4250 1398 4047 
Q 1172 3844 1172 3481 
z
" transform="scale(0.015625)"/>
       </defs>
       <use xlink:href="#DejaVuSans-38"/>
       <use xlink:href="#DejaVuSans-30" transform="translate(63.623047 0)"/>
      </g>
     </g>
    </g>
    <g id="ytick_6">
     <g id="line2d_7">
      <g>
       <use xlink:href="#m6b6241d3ff" x="72" y="173.120557" style="stroke: #000000; stroke-width: 0.8"/>
      </g>
     </g>
     <g id="text_7">
      <!-- 100 -->
      <g transform="translate(45.9125 176.919776) scale(0.1 -0.1)">
       <use xlink:href="#DejaVuSans-31"/>
       <use xlink:href="#DejaVuSans-30" transform="translate(63.623047 0)"/>
       <use xlink:href="#DejaVuSans-30" transform="translate(127.246094 0)"/>
      </g>
     </g>
    </g>
    <g id="ytick_7">
     <g id="line2d_8">
      <g>
       <use xlink:href="#m6b6241d3ff" x="72" y="130.848669" style="stroke: #000000; stroke-width: 0.8"/>
      </g>
     </g>
     <g id="text_8">
      <!-- 120 -->
      <g transform="translate(45.9125 134.647887) scale(0.1 -0.1)">
       <use xlink:href="#DejaVuSans-31"/>
       <use xlink:href="#DejaVuSans-32" transform="translate(63.623047 0)"/>
       <use xlink:href="#DejaVuSans-30" transform="translate(127.246094 0)"/>
      </g>
     </g>
    </g>
    <g id="ytick_8">
     <g id="line2d_9">
      <g>
       <use xlink:href="#m6b6241d3ff" x="72" y="88.57678" style="stroke: #000000; stroke-width: 0.8"/>
      </g>
     </g>
     <g id="text_9">
      <!-- 140 -->
      <g transform="translate(45.9125 92.375999) scale(0.1 -0.1)">
       <use xlink:href="#DejaVuSans-31"/>
       <use xlink:href="#DejaVuSans-34" transform="translate(63.623047 0)"/>
       <use xlink:href="#DejaVuSans-30" transform="translate(127.246094 0)"/>
      </g>
     </g>
    </g>
    <g id="text_10">
     <!-- Time (ms) -->
     <g transform="translate(39.832812 243.359219) rotate(-90) scale(0.1 -0.1)">
      <defs>
       <path id="DejaVuSans-54" d="M -19 4666 
L 3928 4666 
L 3928 4134 
L 2272 4134 
L 2272 0 
L 1638 0 
L 1638 4134 
L -19 4134 
L -19 4666 
z
" transform="scale(0.015625)"/>
       <path id="DejaVuSans-69" d="M 603 3500 
L 1178 3500 
L 1178 0 
L 603 0 
L 603 3500 
z
M 603 4863 
L 1178 4863 
L 1178 4134 
L 603 4134 
L 603 4863 
z
" transform="scale(0.015625)"/>
       <path id="DejaVuSans-6d" d="M 3328 2828 
Q 3544 3216 3844 3400 
Q 4144 3584 4550 3584 
Q 5097 3584 5394 3201 
Q 5691 2819 5691 2113 
L 5691 0 
L 5113 0 
L 5113 2094 
Q 5113 2597 4934 2840 
Q 4756 3084 4391 3084 
Q 3944 3084 3684 2787 
Q 3425 2491 3425 1978 
L 3425 0 
L 2847 0 
L 2847 2094 
Q 2847 2600 2669 2842 
Q 2491 3084 2119 3084 
Q 1678 3084 1418 2786 
Q 1159 2488 1159 1978 
L 1159 0 
L 581 0 
L 581 3500 
L 1159 3500 
L 1159 2956 
Q 1356 3278 1631 3431 
Q 1906 3584 2284 3584 
Q 2666 3584 2933 3390 
Q 3200 3197 3328 2828 
z
" transform="scale(0.015625)"/>
       <path id="DejaVuSans-65" d="M 3597 1894 
L 3597 1613 
L 953 1613 
Q 991 1019 1311 708 
Q 1631 397 2203 397 
Q 2534 397 2845 478 
Q 3156 559 3463 722 
L 3463 178 
Q 3153 47 2828 -22 
Q 2503 -91 2169 -91 
Q 1331 -91 842 396 
Q 353 884 353 1716 
Q 353 2575 817 3079 
Q 1281 3584 2069 3584 
Q 2775 3584 3186 3129 
Q 3597 2675 3597 1894 
z
M 3022 2063 
Q 3016 2534 2758 2815 
Q 2500 3097 2075 3097 
Q 1594 3097 1305 2825 
Q 1016 2553 972 2059 
L 3022 2063 
z
" transform="scale(0.015625)"/>
       <path id="DejaVuSans-20" transform="scale(0.015625)"/>
       <path id="DejaVuSans-28" d="M 1984 4856 
Q 1566 4138 1362 3434 
Q 1159 2731 1159 2009 
Q 1159 1288 1364 580 
Q 1569 -128 1984 -844 
L 1484 -844 
Q 1016 -109 783 600 
Q 550 1309 550 2009 
Q 550 2706 781 3412 
Q 1013 4119 1484 4856 
L 1984 4856 
z
" transform="scale(0.015625)"/>
       <path id="DejaVuSans-73" d="M 2834 3397 
L 2834 2853 
Q 2591 2978 2328 3040 
Q 2066 3103 1784 3103 
Q 1356 3103 1142 2972 
Q 928 2841 928 2578 
Q 928 2378 1081 2264 
Q 1234 2150 1697 2047 
L 1894 2003 
Q 2506 1872 2764 1633 
Q 3022 1394 3022 966 
Q 3022 478 2636 193 
Q 2250 -91 1575 -91 
Q 1294 -91 989 -36 
Q 684 19 347 128 
L 347 722 
Q 666 556 975 473 
Q 1284 391 1588 391 
Q 1994 391 2212 530 
Q 2431 669 2431 922 
Q 2431 1156 2273 1281 
Q 2116 1406 1581 1522 
L 1381 1569 
Q 847 1681 609 1914 
Q 372 2147 372 2553 
Q 372 3047 722 3315 
Q 1072 3584 1716 3584 
Q 2034 3584 2315 3537 
Q 2597 3491 2834 3397 
z
" transform="scale(0.015625)"/>
       <path id="DejaVuSans-29" d="M 513 4856 
L 1013 4856 
Q 1481 4119 1714 3412 
Q 1947 2706 1947 2009 
Q 1947 1309 1714 600 
Q 1481 -109 1013 -844 
L 513 -844 
Q 928 -128 1133 580 
Q 1338 1288 1338 2009 
Q 1338 2731 1133 3434 
Q 928 4138 513 4856 
z
" transform="scale(0.015625)"/>
      </defs>
      <use xlink:href="#DejaVuSans-54"/>
      <use xlink:href="#DejaVuSans-69" transform="translate(57.958984 0)"/>
      <use xlink:href="#DejaVuSans-6d" transform="translate(85.742188 0)"/>
      <use xlink:href="#DejaVuSans-65" transform="translate(183.154297 0)"/>
      <use xlink:href="#DejaVuSans-20" transform="translate(244.677734 0)"/>
      <use xlink:href="#DejaVuSans-28" transform="translate(276.464844 0)"/>
      <use xlink:href="#DejaVuSans-6d" transform="translate(315.478516 0)"/>
      <use xlink:href="#DejaVuSans-73" transform="translate(412.890625 0)"/>
      <use xlink:href="#DejaVuSans-29" transform="translate(464.990234 0)"/>
     </g>
    </g>
   </g>
   <g id="LineCollection_1">
    <path d="M 239.4 366.2596 
L 351 366.2596 
" clip-path="url(#p65e524d53a)" style="fill: none; stroke: #1f77b4; stroke-width: 1.5"/>
   </g>
   <g id="LineCollection_2">
    <path d="M 239.4 67.375187 
L 351 67.375187 
" clip-path="url(#p65e524d53a)" style="fill: none; stroke: #1f77b4; stroke-width: 1.5"/>
   </g>
   <g id="LineCollection_3">
    <path d="M 239.4 378.078937 
L 351 378.078937 
" clip-path="url(#p65e524d53a)" style="fill: none; stroke: #1f77b4; stroke-width: 1.5"/>
   </g>
   <g id="LineCollection_4">
    <path d="M 295.2 378.078937 
L 295.2 67.375187 
" clip-path="url(#p65e524d53a)" style="fill: none; stroke: #1f77b4; stroke-width: 1.5"/>
   </g>
   <g id="patch_3">
    <path d="M 250.56 376.424247 
L 339.84 376.424247 
L 339.84 374.517073 
L 250.56 374.517073 
L 250.56 376.424247 
z
" clip-path="url(#p65e524d53a)" style="fill: #1f77b4; stroke: #000000; stroke-linejoin: miter"/>
   </g>
   <g id="line2d_10">
    <path d="M 295.2 376.424247 
L 295.2 378.078937 
" clip-path="url(#p65e524d53a)" style="fill: none; stroke: #000000; stroke-linecap: square"/>
   </g>
   <g id="line2d_11">
    <path d="M 295.2 374.517073 
L 295.2 372.26167 
" clip-path="url(#p65e524d53a)" style="fill: none; stroke: #000000; stroke-linecap: square"/>
   </g>
   <g id="line2d_12">
    <path d="M 272.88 378.078937 
L 317.52 378.078937 
" clip-path="url(#p65e524d53a)" style="fill: none; stroke: #000000; stroke-linecap: square"/>
   </g>
   <g id="line2d_13">
    <path d="M 272.88 372.26167 
L 317.52 372.26167 
" clip-path="url(#p65e524d53a)" style="fill: none; stroke: #000000; stroke-linecap: square"/>
   </g>
   <g id="line2d_14">
    <defs>
     <path id="m839f4e4698" d="M 0 3 
C 0.795609 3 1.55874 2.683901 2.12132 2.12132 
C 2.683901 1.55874 3 0.795609 3 0 
C 3 -0.795609 2.683901 -1.55874 2.12132 -2.12132 
C 1.55874 -2.683901 0.795609 -3 0 -3 
C -0.795609 -3 -1.55874 -2.683901 -2.12132 -2.12132 
C -2.683901 -1.55874 -3 -0.795609 -3 0 
C -3 0.795609 -2.683901 1.55874 -2.12132 2.12132 
C -1.55874 2.683901 -0.795609 3 0 3 
z
" style="stroke: #000000"/>
    </defs>
    <g clip-path="url(#p65e524d53a)">
     <use xlink:href="#m839f4e4698" x="295.2" y="72.301171" style="fill-opacity: 0; stroke: #000000"/>
     <use xlink:href="#m839f4e4698" x="295.2" y="342.575729" style="fill-opacity: 0; stroke: #000000"/>
     <use xlink:href="#m839f4e4698" x="295.2" y="365.216161" style="fill-opacity: 0; stroke: #000000"/>
     <use xlink:href="#m839f4e4698" x="295.2" y="142.196802" style="fill-opacity: 0; stroke: #000000"/>
     <use xlink:href="#m839f4e4698" x="295.2" y="342.634056" style="fill-opacity: 0; stroke: #000000"/>
     <use xlink:href="#m839f4e4698" x="295.2" y="154.153127" style="fill-opacity: 0; stroke: #000000"/>
     <use xlink:href="#m839f4e4698" x="295.2" y="344.454848" style="fill-opacity: 0; stroke: #000000"/>
     <use xlink:href="#m839f4e4698" x="295.2" y="151.339808" style="fill-opacity: 0; stroke: #000000"/>
     <use xlink:href="#m839f4e4698" x="295.2" y="342.372608" style="fill-opacity: 0; stroke: #000000"/>
     <use xlink:href="#m839f4e4698" x="295.2" y="137.800107" style="fill-opacity: 0; stroke: #000000"/>
     <use xlink:href="#m839f4e4698" x="295.2" y="340.308791" style="fill-opacity: 0; stroke: #000000"/>
     <use xlink:href="#m839f4e4698" x="295.2" y="67.375187" style="fill-opacity: 0; stroke: #000000"/>
     <use xlink:href="#m839f4e4698" x="295.2" y="341.223255" style="fill-opacity: 0; stroke: #000000"/>
     <use xlink:href="#m839f4e4698" x="295.2" y="139.419603" style="fill-opacity: 0; stroke: #000000"/>
     <use xlink:href="#m839f4e4698" x="295.2" y="343.539124" style="fill-opacity: 0; stroke: #000000"/>
     <use xlink:href="#m839f4e4698" x="295.2" y="147.192843" style="fill-opacity: 0; stroke: #000000"/>
     <use xlink:href="#m839f4e4698" x="295.2" y="327.369698" style="fill-opacity: 0; stroke: #000000"/>
     <use xlink:href="#m839f4e4698" x="295.2" y="133.905021" style="fill-opacity: 0; stroke: #000000"/>
     <use xlink:href="#m839f4e4698" x="295.2" y="341.996353" style="fill-opacity: 0; stroke: #000000"/>
     <use xlink:href="#m839f4e4698" x="295.2" y="371.058149" style="fill-opacity: 0; stroke: #000000"/>
     <use xlink:href="#m839f4e4698" x="295.2" y="102.955237" style="fill-opacity: 0; stroke: #000000"/>
     <use xlink:href="#m839f4e4698" x="295.2" y="340.252895" style="fill-opacity: 0; stroke: #000000"/>
     <use xlink:href="#m839f4e4698" x="295.2" y="369.314681" style="fill-opacity: 0; stroke: #000000"/>
     <use xlink:href="#m839f4e4698" x="295.2" y="132.298539" style="fill-opacity: 0; stroke: #000000"/>
     <use xlink:href="#m839f4e4698" x="295.2" y="341.545948" style="fill-opacity: 0; stroke: #000000"/>
     <use xlink:href="#m839f4e4698" x="295.2" y="368.951031" style="fill-opacity: 0; stroke: #000000"/>
     <use xlink:href="#m839f4e4698" x="295.2" y="365.598105" style="fill-opacity: 0; stroke: #000000"/>
     <use xlink:href="#m839f4e4698" x="295.2" y="368.83647" style="fill-opacity: 0; stroke: #000000"/>
     <use xlink:href="#m839f4e4698" x="295.2" y="146.303964" style="fill-opacity: 0; stroke: #000000"/>
     <use xlink:href="#m839f4e4698" x="295.2" y="342.439996" style="fill-opacity: 0; stroke: #000000"/>
     <use xlink:href="#m839f4e4698" x="295.2" y="371.058354" style="fill-opacity: 0; stroke: #000000"/>
     <use xlink:href="#m839f4e4698" x="295.2" y="142.289257" style="fill-opacity: 0; stroke: #000000"/>
     <use xlink:href="#m839f4e4698" x="295.2" y="342.140591" style="fill-opacity: 0; stroke: #000000"/>
     <use xlink:href="#m839f4e4698" x="295.2" y="365.451563" style="fill-opacity: 0; stroke: #000000"/>
     <use xlink:href="#m839f4e4698" x="295.2" y="105.262063" style="fill-opacity: 0; stroke: #000000"/>
     <use xlink:href="#m839f4e4698" x="295.2" y="343.607203" style="fill-opacity: 0; stroke: #000000"/>
     <use xlink:href="#m839f4e4698" x="295.2" y="140.116195" style="fill-opacity: 0; stroke: #000000"/>
     <use xlink:href="#m839f4e4698" x="295.2" y="343.847075" style="fill-opacity: 0; stroke: #000000"/>
     <use xlink:href="#m839f4e4698" x="295.2" y="134.206792" style="fill-opacity: 0; stroke: #000000"/>
     <use xlink:href="#m839f4e4698" x="295.2" y="339.593973" style="fill-opacity: 0; stroke: #000000"/>
     <use xlink:href="#m839f4e4698" x="295.2" y="141.184116" style="fill-opacity: 0; stroke: #000000"/>
     <use xlink:href="#m839f4e4698" x="295.2" y="343.843533" style="fill-opacity: 0; stroke: #000000"/>
     <use xlink:href="#m839f4e4698" x="295.2" y="136.184081" style="fill-opacity: 0; stroke: #000000"/>
     <use xlink:href="#m839f4e4698" x="295.2" y="342.87925" style="fill-opacity: 0; stroke: #000000"/>
     <use xlink:href="#m839f4e4698" x="295.2" y="139.884695" style="fill-opacity: 0; stroke: #000000"/>
     <use xlink:href="#m839f4e4698" x="295.2" y="342.374925" style="fill-opacity: 0; stroke: #000000"/>
     <use xlink:href="#m839f4e4698" x="295.2" y="140.702244" style="fill-opacity: 0; stroke: #000000"/>
     <use xlink:href="#m839f4e4698" x="295.2" y="343.359471" style="fill-opacity: 0; stroke: #000000"/>
     <use xlink:href="#m839f4e4698" x="295.2" y="370.848474" style="fill-opacity: 0; stroke: #000000"/>
    </g>
   </g>
   <g id="line2d_15">
    <path d="M 250.56 375.83115 
L 339.84 375.83115 
" clip-path="url(#p65e524d53a)" style="fill: none; stroke: #ff7f0e"/>
   </g>
   <g id="patch_4">
    <path d="M 72 384.48 
L 72 51.84 
" style="fill: none; stroke: #000000; stroke-width: 0.8; stroke-linejoin: miter; stroke-linecap: square"/>
   </g>
   <g id="patch_5">
    <path d="M 518.4 384.48 
L 518.4 51.84 
" style="fill: none; stroke: #000000; stroke-width: 0.8; stroke-linejoin: miter; stroke-linecap: square"/>
   </g>
   <g id="patch_6">
    <path d="M 72 384.48 
L 518.4 384.48 
" style="fill: none; stroke: #000000; stroke-width: 0.8; stroke-linejoin: miter; stroke-linecap: square"/>
   </g>
   <g id="patch_7">
    <path d="M 72 51.84 
L 518.4 51.84 
" style="fill: none; stroke: #000000; stroke-width: 0.8; stroke-linejoin: miter; stroke-linecap: square"/>
   </g>
   <g id="text_11">
    <!-- Register Faultload -->
    <g transform="translate(241.364062 45.84) scale(0.12 -0.12)">
     <defs>
      <path id="DejaVuSans-52" d="M 2841 2188 
Q 3044 2119 3236 1894 
Q 3428 1669 3622 1275 
L 4263 0 
L 3584 0 
L 2988 1197 
Q 2756 1666 2539 1819 
Q 2322 1972 1947 1972 
L 1259 1972 
L 1259 0 
L 628 0 
L 628 4666 
L 2053 4666 
Q 2853 4666 3247 4331 
Q 3641 3997 3641 3322 
Q 3641 2881 3436 2590 
Q 3231 2300 2841 2188 
z
M 1259 4147 
L 1259 2491 
L 2053 2491 
Q 2509 2491 2742 2702 
Q 2975 2913 2975 3322 
Q 2975 3731 2742 3939 
Q 2509 4147 2053 4147 
L 1259 4147 
z
" transform="scale(0.015625)"/>
      <path id="DejaVuSans-67" d="M 2906 1791 
Q 2906 2416 2648 2759 
Q 2391 3103 1925 3103 
Q 1463 3103 1205 2759 
Q 947 2416 947 1791 
Q 947 1169 1205 825 
Q 1463 481 1925 481 
Q 2391 481 2648 825 
Q 2906 1169 2906 1791 
z
M 3481 434 
Q 3481 -459 3084 -895 
Q 2688 -1331 1869 -1331 
Q 1566 -1331 1297 -1286 
Q 1028 -1241 775 -1147 
L 775 -588 
Q 1028 -725 1275 -790 
Q 1522 -856 1778 -856 
Q 2344 -856 2625 -561 
Q 2906 -266 2906 331 
L 2906 616 
Q 2728 306 2450 153 
Q 2172 0 1784 0 
Q 1141 0 747 490 
Q 353 981 353 1791 
Q 353 2603 747 3093 
Q 1141 3584 1784 3584 
Q 2172 3584 2450 3431 
Q 2728 3278 2906 2969 
L 2906 3500 
L 3481 3500 
L 3481 434 
z
" transform="scale(0.015625)"/>
      <path id="DejaVuSans-74" d="M 1172 4494 
L 1172 3500 
L 2356 3500 
L 2356 3053 
L 1172 3053 
L 1172 1153 
Q 1172 725 1289 603 
Q 1406 481 1766 481 
L 2356 481 
L 2356 0 
L 1766 0 
Q 1100 0 847 248 
Q 594 497 594 1153 
L 594 3053 
L 172 3053 
L 172 3500 
L 594 3500 
L 594 4494 
L 1172 4494 
z
" transform="scale(0.015625)"/>
      <path id="DejaVuSans-72" d="M 2631 2963 
Q 2534 3019 2420 3045 
Q 2306 3072 2169 3072 
Q 1681 3072 1420 2755 
Q 1159 2438 1159 1844 
L 1159 0 
L 581 0 
L 581 3500 
L 1159 3500 
L 1159 2956 
Q 1341 3275 1631 3429 
Q 1922 3584 2338 3584 
Q 2397 3584 2469 3576 
Q 2541 3569 2628 3553 
L 2631 2963 
z
" transform="scale(0.015625)"/>
      <path id="DejaVuSans-46" d="M 628 4666 
L 3309 4666 
L 3309 4134 
L 1259 4134 
L 1259 2759 
L 3109 2759 
L 3109 2228 
L 1259 2228 
L 1259 0 
L 628 0 
L 628 4666 
z
" transform="scale(0.015625)"/>
      <path id="DejaVuSans-61" d="M 2194 1759 
Q 1497 1759 1228 1600 
Q 959 1441 959 1056 
Q 959 750 1161 570 
Q 1363 391 1709 391 
Q 2188 391 2477 730 
Q 2766 1069 2766 1631 
L 2766 1759 
L 2194 1759 
z
M 3341 1997 
L 3341 0 
L 2766 0 
L 2766 531 
Q 2569 213 2275 61 
Q 1981 -91 1556 -91 
Q 1019 -91 701 211 
Q 384 513 384 1019 
Q 384 1609 779 1909 
Q 1175 2209 1959 2209 
L 2766 2209 
L 2766 2266 
Q 2766 2663 2505 2880 
Q 2244 3097 1772 3097 
Q 1472 3097 1187 3025 
Q 903 2953 641 2809 
L 641 3341 
Q 956 3463 1253 3523 
Q 1550 3584 1831 3584 
Q 2591 3584 2966 3190 
Q 3341 2797 3341 1997 
z
" transform="scale(0.015625)"/>
      <path id="DejaVuSans-75" d="M 544 1381 
L 544 3500 
L 1119 3500 
L 1119 1403 
Q 1119 906 1312 657 
Q 1506 409 1894 409 
Q 2359 409 2629 706 
Q 2900 1003 2900 1516 
L 2900 3500 
L 3475 3500 
L 3475 0 
L 2900 0 
L 2900 538 
Q 2691 219 2414 64 
Q 2138 -91 1772 -91 
Q 1169 -91 856 284 
Q 544 659 544 1381 
z
M 1991 3584 
L 1991 3584 
z
" transform="scale(0.015625)"/>
      <path id="DejaVuSans-6c" d="M 603 4863 
L 1178 4863 
L 1178 0 
L 603 0 
L 603 4863 
z
" transform="scale(0.015625)"/>
      <path id="DejaVuSans-6f" d="M 1959 3097 
Q 1497 3097 1228 2736 
Q 959 2375 959 1747 
Q 959 1119 1226 758 
Q 1494 397 1959 397 
Q 2419 397 2687 759 
Q 2956 1122 2956 1747 
Q 2956 2369 2687 2733 
Q 2419 3097 1959 3097 
z
M 1959 3584 
Q 2709 3584 3137 3096 
Q 3566 2609 3566 1747 
Q 3566 888 3137 398 
Q 2709 -91 1959 -91 
Q 1206 -91 779 398 
Q 353 888 353 1747 
Q 353 2609 779 3096 
Q 1206 3584 1959 3584 
z
" transform="scale(0.015625)"/>
      <path id="DejaVuSans-64" d="M 2906 2969 
L 2906 4863 
L 3481 4863 
L 3481 0 
L 2906 0 
L 2906 525 
Q 2725 213 2448 61 
Q 2172 -91 1784 -91 
Q 1150 -91 751 415 
Q 353 922 353 1747 
Q 353 2572 751 3078 
Q 1150 3584 1784 3584 
Q 2172 3584 2448 3432 
Q 2725 3281 2906 2969 
z
M 947 1747 
Q 947 1113 1208 752 
Q 1469 391 1925 391 
Q 2381 391 2643 752 
Q 2906 1113 2906 1747 
Q 2906 2381 2643 2742 
Q 2381 3103 1925 3103 
Q 1469 3103 1208 2742 
Q 947 2381 947 1747 
z
" transform="scale(0.015625)"/>
     </defs>
     <use xlink:href="#DejaVuSans-52"/>
     <use xlink:href="#DejaVuSans-65" transform="translate(64.982422 0)"/>
     <use xlink:href="#DejaVuSans-67" transform="translate(126.505859 0)"/>
     <use xlink:href="#DejaVuSans-69" transform="translate(189.982422 0)"/>
     <use xlink:href="#DejaVuSans-73" transform="translate(217.765625 0)"/>
     <use xlink:href="#DejaVuSans-74" transform="translate(269.865234 0)"/>
     <use xlink:href="#DejaVuSans-65" transform="translate(309.074219 0)"/>
     <use xlink:href="#DejaVuSans-72" transform="translate(370.597656 0)"/>
     <use xlink:href="#DejaVuSans-20" transform="translate(411.710938 0)"/>
     <use xlink:href="#DejaVuSans-46" transform="translate(443.498047 0)"/>
     <use xlink:href="#DejaVuSans-61" transform="translate(491.892578 0)"/>
     <use xlink:href="#DejaVuSans-75" transform="translate(553.171875 0)"/>
     <use xlink:href="#DejaVuSans-6c" transform="translate(616.550781 0)"/>
     <use xlink:href="#DejaVuSans-74" transform="translate(644.333984 0)"/>
     <use xlink:href="#DejaVuSans-6c" transform="translate(683.542969 0)"/>
     <use xlink:href="#DejaVuSans-6f" transform="translate(711.326172 0)"/>
     <use xlink:href="#DejaVuSans-61" transform="translate(772.507812 0)"/>
     <use xlink:href="#DejaVuSans-64" transform="translate(833.787109 0)"/>
    </g>
   </g>
  </g>
 </g>
 <defs>
  <clipPath id="p65e524d53a">
   <rect x="72" y="51.84" width="446.4" height="332.64"/>
  </clipPath>
 </defs>
</svg>
