<?xml version="1.0" encoding="utf-8" standalone="no"?>
<!DOCTYPE svg PUBLIC "-//W3C//DTD SVG 1.1//EN"
  "http://www.w3.org/Graphics/SVG/1.1/DTD/svg11.dtd">
<svg xmlns:xlink="http://www.w3.org/1999/xlink" width="576pt" height="432pt" viewBox="0 0 576 432" xmlns="http://www.w3.org/2000/svg" version="1.1">
 <metadata>
  <rdf:RDF xmlns:dc="http://purl.org/dc/elements/1.1/" xmlns:cc="http://creativecommons.org/ns#" xmlns:rdf="http://www.w3.org/1999/02/22-rdf-syntax-ns#">
   <cc:Work>
    <dc:type rdf:resource="http://purl.org/dc/dcmitype/StillImage"/>
    <dc:date>2025-09-30T20:43:36.564093</dc:date>
    <dc:format>image/svg+xml</dc:format>
    <dc:creator>
     <cc:Agent>
      <dc:title>Matplotlib v3.10.3, https://matplotlib.org/</dc:title>
     </cc:Agent>
    </dc:creator>
   </cc:Work>
  </rdf:RDF>
 </metadata>
 <defs>
  <style type="text/css">*{stroke-linejoin: round; stroke-linecap: butt}</style>
 </defs>
 <g id="figure_1">
  <g id="patch_1">
   <path d="M 0 432 
L 576 432 
L 576 0 
L 0 0 
z
" style="fill: #ffffff"/>
  </g>
  <g id="axes_1">
   <g id="patch_2">
    <path d="M 72 384.48 
L 518.4 384.48 
L 518.4 51.84 
L 72 51.84 
z
" style="fill: #ffffff"/>
   </g>
   <g id="FillBetweenPolyCollection_1">
    <path d="M 319.096271 369.837157 
L 271.303729 369.837157 
L 265.367144 366.778021 
L 258.301293 363.718885 
L 249.717332 360.659749 
L 239.359573 357.600614 
L 227.358108 354.541478 
L 214.427403 351.482342 
L 201.895841 348.423207 
L 191.501138 345.364071 
L 184.982522 342.304935 
L 183.6 339.2458 
L 187.760308 336.186664 
L 196.895461 333.127528 
L 209.635657 330.068392 
L 224.197256 327.009257 
L 238.830563 323.950121 
L 252.173477 320.890985 
L 263.422434 317.83185 
L 272.317975 314.772714 
L 279.005652 311.713578 
L 283.853808 308.654442 
L 287.294021 305.595307 
L 289.717273 302.536171 
L 291.4283 299.477035 
L 292.642286 296.4179 
L 293.503193 293.358764 
L 294.107074 290.299628 
L 294.521116 287.240493 
L 294.795641 284.181357 
L 294.970154 281.122221 
L 295.075818 278.063085 
L 295.136446 275.00395 
L 295.169283 271.944814 
L 295.186016 268.885678 
L 295.194017 265.826543 
L 295.1976 262.767407 
L 295.199098 259.708271 
L 295.199683 256.649135 
L 295.199896 253.59 
L 295.199968 250.530864 
L 295.199991 247.471728 
L 295.199997 244.412593 
L 295.199999 241.353457 
L 295.199996 238.294321 
L 295.199987 235.235186 
L 295.199956 232.17605 
L 295.199859 229.116914 
L 295.19958 226.057778 
L 295.198832 222.998643 
L 295.196972 219.939507 
L 295.192663 216.880371 
L 295.183377 213.821236 
L 295.164738 210.7621 
L 295.129887 207.702964 
L 295.069146 204.643828 
L 294.97047 201.584693 
L 294.821094 198.525557 
L 294.610571 195.466421 
L 294.334826 192.407286 
L 294.000123 189.34815 
L 293.625278 186.289014 
L 293.240494 183.229879 
L 292.882129 180.170743 
L 292.584481 177.111607 
L 292.371484 174.052471 
L 292.251868 170.993336 
L 292.220075 167.9342 
L 292.262384 164.875064 
L 292.364861 161.815929 
L 292.518835 158.756793 
L 292.721256 155.697657 
L 292.970502 152.638522 
L 293.260793 149.579386 
L 293.578792 146.52025 
L 293.904288 143.461114 
L 294.214391 140.401979 
L 294.488969 137.342843 
L 294.714901 134.283707 
L 294.887738 131.224572 
L 295.010725 128.165436 
L 295.092157 125.1063 
L 295.142331 122.047164 
L 295.171091 118.988029 
L 295.186408 115.928893 
L 295.193937 112.869757 
L 295.197215 109.810622 
L 295.198115 106.751486 
L 295.197254 103.69235 
L 295.194225 100.633215 
L 295.187626 97.574079 
L 295.175029 94.514943 
L 295.153114 91.455807 
L 295.118237 88.396672 
L 295.067601 85.337536 
L 295.000927 82.2784 
L 294.92207 79.219265 
L 294.839709 76.160129 
L 294.766324 73.100993 
L 294.7153 70.041857 
L 294.696991 66.982722 
L 295.703009 66.982722 
L 295.703009 66.982722 
L 295.6847 70.041857 
L 295.633676 73.100993 
L 295.560291 76.160129 
L 295.47793 79.219265 
L 295.399073 82.2784 
L 295.332399 85.337536 
L 295.281763 88.396672 
L 295.246886 91.455807 
L 295.224971 94.514943 
L 295.212374 97.574079 
L 295.205775 100.633215 
L 295.202746 103.69235 
L 295.201885 106.751486 
L 295.202785 109.810622 
L 295.206063 112.869757 
L 295.213592 115.928893 
L 295.228909 118.988029 
L 295.257669 122.047164 
L 295.307843 125.1063 
L 295.389275 128.165436 
L 295.512262 131.224572 
L 295.685099 134.283707 
L 295.911031 137.342843 
L 296.185609 140.401979 
L 296.495712 143.461114 
L 296.821208 146.52025 
L 297.139207 149.579386 
L 297.429498 152.638522 
L 297.678744 155.697657 
L 297.881165 158.756793 
L 298.035139 161.815929 
L 298.137616 164.875064 
L 298.179925 167.9342 
L 298.148132 170.993336 
L 298.028516 174.052471 
L 297.815519 177.111607 
L 297.517871 180.170743 
L 297.159506 183.229879 
L 296.774722 186.289014 
L 296.399877 189.34815 
L 296.065174 192.407286 
L 295.789429 195.466421 
L 295.578906 198.525557 
L 295.42953 201.584693 
L 295.330854 204.643828 
L 295.270113 207.702964 
L 295.235262 210.7621 
L 295.216623 213.821236 
L 295.207337 216.880371 
L 295.203028 219.939507 
L 295.201168 222.998643 
L 295.20042 226.057778 
L 295.200141 229.116914 
L 295.200044 232.17605 
L 295.200013 235.235186 
L 295.200004 238.294321 
L 295.200001 241.353457 
L 295.200003 244.412593 
L 295.200009 247.471728 
L 295.200032 250.530864 
L 295.200104 253.59 
L 295.200317 256.649135 
L 295.200902 259.708271 
L 295.2024 262.767407 
L 295.205983 265.826543 
L 295.213984 268.885678 
L 295.230717 271.944814 
L 295.263554 275.00395 
L 295.324182 278.063085 
L 295.429846 281.122221 
L 295.604359 284.181357 
L 295.878884 287.240493 
L 296.292926 290.299628 
L 296.896807 293.358764 
L 297.757714 296.4179 
L 298.9717 299.477035 
L 300.682727 302.536171 
L 303.105979 305.595307 
L 306.546192 308.654442 
L 311.394348 311.713578 
L 318.082025 314.772714 
L 326.977566 317.83185 
L 338.226523 320.890985 
L 351.569437 323.950121 
L 366.202744 327.009257 
L 380.764343 330.068392 
L 393.504539 333.127528 
L 402.639692 336.186664 
L 406.8 339.2458 
L 405.417478 342.304935 
L 398.898862 345.364071 
L 388.504159 348.423207 
L 375.972597 351.482342 
L 363.041892 354.541478 
L 351.040427 357.600614 
L 340.682668 360.659749 
L 332.098707 363.718885 
L 325.032856 366.778021 
L 319.096271 369.837157 
z
" clip-path="url(#p7810e27d01)" style="fill: #1f77b4; fill-opacity: 0.3"/>
   </g>
   <g id="matplotlib.axis_1">
    <g id="xtick_1">
     <g id="line2d_1">
      <defs>
       <path id="mfb54c48afa" d="M 0 0 
L 0 3.5 
" style="stroke: #000000; stroke-width: 0.8"/>
      </defs>
      <g>
       <use xlink:href="#mfb54c48afa" x="295.2" y="384.48" style="stroke: #000000; stroke-width: 0.8"/>
      </g>
     </g>
     <g id="text_1">
      <!-- 1 -->
      <g transform="translate(292.01875 399.078438) scale(0.1 -0.1)">
       <defs>
        <path id="DejaVuSans-31" d="M 794 531 
L 1825 531 
L 1825 4091 
L 703 3866 
L 703 4441 
L 1819 4666 
L 2450 4666 
L 2450 531 
L 3481 531 
L 3481 0 
L 794 0 
L 794 531 
z
" transform="scale(0.015625)"/>
       </defs>
       <use xlink:href="#DejaVuSans-31"/>
      </g>
     </g>
    </g>
   </g>
   <g id="matplotlib.axis_2">
    <g id="ytick_1">
     <g id="line2d_2">
      <defs>
       <path id="m3c770ea5c5" d="M 0 0 
L -3.5 0 
" style="stroke: #000000; stroke-width: 0.8"/>
      </defs>
      <g>
       <use xlink:href="#m3c770ea5c5" x="72" y="384.48" style="stroke: #000000; stroke-width: 0.8"/>
      </g>
     </g>
     <g id="text_2">
      <!-- 0 -->
      <g transform="translate(58.6375 388.279219) scale(0.1 -0.1)">
       <defs>
        <path id="DejaVuSans-30" d="M 2034 4250 
Q 1547 4250 1301 3770 
Q 1056 3291 1056 2328 
Q 1056 1369 1301 889 
Q 1547 409 2034 409 
Q 2525 409 2770 889 
Q 3016 1369 3016 2328 
Q 3016 3291 2770 3770 
Q 2525 4250 2034 4250 
z
M 2034 4750 
Q 2819 4750 3233 4129 
Q 3647 3509 3647 2328 
Q 3647 1150 3233 529 
Q 2819 -91 2034 -91 
Q 1250 -91 836 529 
Q 422 1150 422 2328 
Q 422 3509 836 4129 
Q 1250 4750 2034 4750 
z
" transform="scale(0.015625)"/>
       </defs>
       <use xlink:href="#DejaVuSans-30"/>
      </g>
     </g>
    </g>
    <g id="ytick_2">
     <g id="line2d_3">
      <g>
       <use xlink:href="#m3c770ea5c5" x="72" y="347.510233" style="stroke: #000000; stroke-width: 0.8"/>
      </g>
     </g>
     <g id="text_3">
      <!-- 25 -->
      <g transform="translate(52.275 351.309452) scale(0.1 -0.1)">
       <defs>
        <path id="DejaVuSans-32" d="M 1228 531 
L 3431 531 
L 3431 0 
L 469 0 
L 469 531 
Q 828 903 1448 1529 
Q 2069 2156 2228 2338 
Q 2531 2678 2651 2914 
Q 2772 3150 2772 3378 
Q 2772 3750 2511 3984 
Q 2250 4219 1831 4219 
Q 1534 4219 1204 4116 
Q 875 4013 500 3803 
L 500 4441 
Q 881 4594 1212 4672 
Q 1544 4750 1819 4750 
Q 2544 4750 2975 4387 
Q 3406 4025 3406 3419 
Q 3406 3131 3298 2873 
Q 3191 2616 2906 2266 
Q 2828 2175 2409 1742 
Q 1991 1309 1228 531 
z
" transform="scale(0.015625)"/>
        <path id="DejaVuSans-35" d="M 691 4666 
L 3169 4666 
L 3169 4134 
L 1269 4134 
L 1269 2991 
Q 1406 3038 1543 3061 
Q 1681 3084 1819 3084 
Q 2600 3084 3056 2656 
Q 3513 2228 3513 1497 
Q 3513 744 3044 326 
Q 2575 -91 1722 -91 
Q 1428 -91 1123 -41 
Q 819 9 494 109 
L 494 744 
Q 775 591 1075 516 
Q 1375 441 1709 441 
Q 2250 441 2565 725 
Q 2881 1009 2881 1497 
Q 2881 1984 2565 2268 
Q 2250 2553 1709 2553 
Q 1456 2553 1204 2497 
Q 953 2441 691 2322 
L 691 4666 
z
" transform="scale(0.015625)"/>
       </defs>
       <use xlink:href="#DejaVuSans-32"/>
       <use xlink:href="#DejaVuSans-35" transform="translate(63.623047 0)"/>
      </g>
     </g>
    </g>
    <g id="ytick_3">
     <g id="line2d_4">
      <g>
       <use xlink:href="#m3c770ea5c5" x="72" y="310.540466" style="stroke: #000000; stroke-width: 0.8"/>
      </g>
     </g>
     <g id="text_4">
      <!-- 50 -->
      <g transform="translate(52.275 314.339685) scale(0.1 -0.1)">
       <use xlink:href="#DejaVuSans-35"/>
       <use xlink:href="#DejaVuSans-30" transform="translate(63.623047 0)"/>
      </g>
     </g>
    </g>
    <g id="ytick_4">
     <g id="line2d_5">
      <g>
       <use xlink:href="#m3c770ea5c5" x="72" y="273.570699" style="stroke: #000000; stroke-width: 0.8"/>
      </g>
     </g>
     <g id="text_5">
      <!-- 75 -->
      <g transform="translate(52.275 277.369917) scale(0.1 -0.1)">
       <defs>
        <path id="DejaVuSans-37" d="M 525 4666 
L 3525 4666 
L 3525 4397 
L 1831 0 
L 1172 0 
L 2766 4134 
L 525 4134 
L 525 4666 
z
" transform="scale(0.015625)"/>
       </defs>
       <use xlink:href="#DejaVuSans-37"/>
       <use xlink:href="#DejaVuSans-35" transform="translate(63.623047 0)"/>
      </g>
     </g>
    </g>
    <g id="ytick_5">
     <g id="line2d_6">
      <g>
       <use xlink:href="#m3c770ea5c5" x="72" y="236.600932" style="stroke: #000000; stroke-width: 0.8"/>
      </g>
     </g>
     <g id="text_6">
      <!-- 100 -->
      <g transform="translate(45.9125 240.40015) scale(0.1 -0.1)">
       <use xlink:href="#DejaVuSans-31"/>
       <use xlink:href="#DejaVuSans-30" transform="translate(63.623047 0)"/>
       <use xlink:href="#DejaVuSans-30" transform="translate(127.246094 0)"/>
      </g>
     </g>
    </g>
    <g id="ytick_6">
     <g id="line2d_7">
      <g>
       <use xlink:href="#m3c770ea5c5" x="72" y="199.631164" style="stroke: #000000; stroke-width: 0.8"/>
      </g>
     </g>
     <g id="text_7">
      <!-- 125 -->
      <g transform="translate(45.9125 203.430383) scale(0.1 -0.1)">
       <use xlink:href="#DejaVuSans-31"/>
       <use xlink:href="#DejaVuSans-32" transform="translate(63.623047 0)"/>
       <use xlink:href="#DejaVuSans-35" transform="translate(127.246094 0)"/>
      </g>
     </g>
    </g>
    <g id="ytick_7">
     <g id="line2d_8">
      <g>
       <use xlink:href="#m3c770ea5c5" x="72" y="162.661397" style="stroke: #000000; stroke-width: 0.8"/>
      </g>
     </g>
     <g id="text_8">
      <!-- 150 -->
      <g transform="translate(45.9125 166.460616) scale(0.1 -0.1)">
       <use xlink:href="#DejaVuSans-31"/>
       <use xlink:href="#DejaVuSans-35" transform="translate(63.623047 0)"/>
       <use xlink:href="#DejaVuSans-30" transform="translate(127.246094 0)"/>
      </g>
     </g>
    </g>
    <g id="ytick_8">
     <g id="line2d_9">
      <g>
       <use xlink:href="#m3c770ea5c5" x="72" y="125.69163" style="stroke: #000000; stroke-width: 0.8"/>
      </g>
     </g>
     <g id="text_9">
      <!-- 175 -->
      <g transform="translate(45.9125 129.490849) scale(0.1 -0.1)">
       <use xlink:href="#DejaVuSans-31"/>
       <use xlink:href="#DejaVuSans-37" transform="translate(63.623047 0)"/>
       <use xlink:href="#DejaVuSans-35" transform="translate(127.246094 0)"/>
      </g>
     </g>
    </g>
    <g id="ytick_9">
     <g id="line2d_10">
      <g>
       <use xlink:href="#m3c770ea5c5" x="72" y="88.721863" style="stroke: #000000; stroke-width: 0.8"/>
      </g>
     </g>
     <g id="text_10">
      <!-- 200 -->
      <g transform="translate(45.9125 92.521082) scale(0.1 -0.1)">
       <use xlink:href="#DejaVuSans-32"/>
       <use xlink:href="#DejaVuSans-30" transform="translate(63.623047 0)"/>
       <use xlink:href="#DejaVuSans-30" transform="translate(127.246094 0)"/>
      </g>
     </g>
    </g>
    <g id="text_11">
     <!-- Time (ms) -->
     <g transform="translate(39.832812 243.359219) rotate(-90) scale(0.1 -0.1)">
      <defs>
       <path id="DejaVuSans-54" d="M -19 4666 
L 3928 4666 
L 3928 4134 
L 2272 4134 
L 2272 0 
L 1638 0 
L 1638 4134 
L -19 4134 
L -19 4666 
z
" transform="scale(0.015625)"/>
       <path id="DejaVuSans-69" d="M 603 3500 
L 1178 3500 
L 1178 0 
L 603 0 
L 603 3500 
z
M 603 4863 
L 1178 4863 
L 1178 4134 
L 603 4134 
L 603 4863 
z
" transform="scale(0.015625)"/>
       <path id="DejaVuSans-6d" d="M 3328 2828 
Q 3544 3216 3844 3400 
Q 4144 3584 4550 3584 
Q 5097 3584 5394 3201 
Q 5691 2819 5691 2113 
L 5691 0 
L 5113 0 
L 5113 2094 
Q 5113 2597 4934 2840 
Q 4756 3084 4391 3084 
Q 3944 3084 3684 2787 
Q 3425 2491 3425 1978 
L 3425 0 
L 2847 0 
L 2847 2094 
Q 2847 2600 2669 2842 
Q 2491 3084 2119 3084 
Q 1678 3084 1418 2786 
Q 1159 2488 1159 1978 
L 1159 0 
L 581 0 
L 581 3500 
L 1159 3500 
L 1159 2956 
Q 1356 3278 1631 3431 
Q 1906 3584 2284 3584 
Q 2666 3584 2933 3390 
Q 3200 3197 3328 2828 
z
" transform="scale(0.015625)"/>
       <path id="DejaVuSans-65" d="M 3597 1894 
L 3597 1613 
L 953 1613 
Q 991 1019 1311 708 
Q 1631 397 2203 397 
Q 2534 397 2845 478 
Q 3156 559 3463 722 
L 3463 178 
Q 3153 47 2828 -22 
Q 2503 -91 2169 -91 
Q 1331 -91 842 396 
Q 353 884 353 1716 
Q 353 2575 817 3079 
Q 1281 3584 2069 3584 
Q 2775 3584 3186 3129 
Q 3597 2675 3597 1894 
z
M 3022 2063 
Q 3016 2534 2758 2815 
Q 2500 3097 2075 3097 
Q 1594 3097 1305 2825 
Q 1016 2553 972 2059 
L 3022 2063 
z
" transform="scale(0.015625)"/>
       <path id="DejaVuSans-20" transform="scale(0.015625)"/>
       <path id="DejaVuSans-28" d="M 1984 4856 
Q 1566 4138 1362 3434 
Q 1159 2731 1159 2009 
Q 1159 1288 1364 580 
Q 1569 -128 1984 -844 
L 1484 -844 
Q 1016 -109 783 600 
Q 550 1309 550 2009 
Q 550 2706 781 3412 
Q 1013 4119 1484 4856 
L 1984 4856 
z
" transform="scale(0.015625)"/>
       <path id="DejaVuSans-73" d="M 2834 3397 
L 2834 2853 
Q 2591 2978 2328 3040 
Q 2066 3103 1784 3103 
Q 1356 3103 1142 2972 
Q 928 2841 928 2578 
Q 928 2378 1081 2264 
Q 1234 2150 1697 2047 
L 1894 2003 
Q 2506 1872 2764 1633 
Q 3022 1394 3022 966 
Q 3022 478 2636 193 
Q 2250 -91 1575 -91 
Q 1294 -91 989 -36 
Q 684 19 347 128 
L 347 722 
Q 666 556 975 473 
Q 1284 391 1588 391 
Q 1994 391 2212 530 
Q 2431 669 2431 922 
Q 2431 1156 2273 1281 
Q 2116 1406 1581 1522 
L 1381 1569 
Q 847 1681 609 1914 
Q 372 2147 372 2553 
Q 372 3047 722 3315 
Q 1072 3584 1716 3584 
Q 2034 3584 2315 3537 
Q 2597 3491 2834 3397 
z
" transform="scale(0.015625)"/>
       <path id="DejaVuSans-29" d="M 513 4856 
L 1013 4856 
Q 1481 4119 1714 3412 
Q 1947 2706 1947 2009 
Q 1947 1309 1714 600 
Q 1481 -109 1013 -844 
L 513 -844 
Q 928 -128 1133 580 
Q 1338 1288 1338 2009 
Q 1338 2731 1133 3434 
Q 928 4138 513 4856 
z
" transform="scale(0.015625)"/>
      </defs>
      <use xlink:href="#DejaVuSans-54"/>
      <use xlink:href="#DejaVuSans-69" transform="translate(57.958984 0)"/>
      <use xlink:href="#DejaVuSans-6d" transform="translate(85.742188 0)"/>
      <use xlink:href="#DejaVuSans-65" transform="translate(183.154297 0)"/>
      <use xlink:href="#DejaVuSans-20" transform="translate(244.677734 0)"/>
      <use xlink:href="#DejaVuSans-28" transform="translate(276.464844 0)"/>
      <use xlink:href="#DejaVuSans-6d" transform="translate(315.478516 0)"/>
      <use xlink:href="#DejaVuSans-73" transform="translate(412.890625 0)"/>
      <use xlink:href="#DejaVuSans-29" transform="translate(464.990234 0)"/>
     </g>
    </g>
   </g>
   <g id="LineCollection_1">
    <path d="M 239.4 335.788176 
L 351 335.788176 
" clip-path="url(#p7810e27d01)" style="fill: none; stroke: #1f77b4; stroke-width: 1.5"/>
   </g>
   <g id="LineCollection_2">
    <path d="M 239.4 66.982722 
L 351 66.982722 
" clip-path="url(#p7810e27d01)" style="fill: none; stroke: #1f77b4; stroke-width: 1.5"/>
   </g>
   <g id="LineCollection_3">
    <path d="M 239.4 369.837157 
L 351 369.837157 
" clip-path="url(#p7810e27d01)" style="fill: none; stroke: #1f77b4; stroke-width: 1.5"/>
   </g>
   <g id="LineCollection_4">
    <path d="M 295.2 369.837157 
L 295.2 66.982722 
" clip-path="url(#p7810e27d01)" style="fill: none; stroke: #1f77b4; stroke-width: 1.5"/>
   </g>
   <g id="patch_3">
    <path d="M 250.56 345.302652 
L 339.84 345.302652 
L 339.84 335.110756 
L 250.56 335.110756 
L 250.56 345.302652 
z
" clip-path="url(#p7810e27d01)" style="fill: #1f77b4; stroke: #000000; stroke-linejoin: miter"/>
   </g>
   <g id="line2d_11">
    <path d="M 295.2 345.302652 
L 295.2 358.82219 
" clip-path="url(#p7810e27d01)" style="fill: none; stroke: #000000; stroke-linecap: square"/>
   </g>
   <g id="line2d_12">
    <path d="M 295.2 335.110756 
L 295.2 321.975083 
" clip-path="url(#p7810e27d01)" style="fill: none; stroke: #000000; stroke-linecap: square"/>
   </g>
   <g id="line2d_13">
    <path d="M 272.88 358.82219 
L 317.52 358.82219 
" clip-path="url(#p7810e27d01)" style="fill: none; stroke: #000000; stroke-linecap: square"/>
   </g>
   <g id="line2d_14">
    <path d="M 272.88 321.975083 
L 317.52 321.975083 
" clip-path="url(#p7810e27d01)" style="fill: none; stroke: #000000; stroke-linecap: square"/>
   </g>
   <g id="line2d_15">
    <defs>
     <path id="m326502ddec" d="M 0 3 
C 0.795609 3 1.55874 2.683901 2.12132 2.12132 
C 2.683901 1.55874 3 0.795609 3 0 
C 3 -0.795609 2.683901 -1.55874 2.12132 -2.12132 
C 1.55874 -2.683901 0.795609 -3 0 -3 
C -0.795609 -3 -1.55874 -2.683901 -2.12132 -2.12132 
C -2.683901 -1.55874 -3 -0.795609 -3 0 
C -3 0.795609 -2.683901 1.55874 -2.12132 2.12132 
C -1.55874 2.683901 -0.795609 3 0 3 
z
" style="stroke: #000000"/>
    </defs>
    <g clip-path="url(#p7810e27d01)">
     <use xlink:href="#m326502ddec" x="295.2" y="368.676109" style="fill-opacity: 0; stroke: #000000"/>
     <use xlink:href="#m326502ddec" x="295.2" y="368.226962" style="fill-opacity: 0; stroke: #000000"/>
     <use xlink:href="#m326502ddec" x="295.2" y="369.42627" style="fill-opacity: 0; stroke: #000000"/>
     <use xlink:href="#m326502ddec" x="295.2" y="367.182936" style="fill-opacity: 0; stroke: #000000"/>
     <use xlink:href="#m326502ddec" x="295.2" y="366.692752" style="fill-opacity: 0; stroke: #000000"/>
     <use xlink:href="#m326502ddec" x="295.2" y="366.649089" style="fill-opacity: 0; stroke: #000000"/>
     <use xlink:href="#m326502ddec" x="295.2" y="366.291833" style="fill-opacity: 0; stroke: #000000"/>
     <use xlink:href="#m326502ddec" x="295.2" y="367.087628" style="fill-opacity: 0; stroke: #000000"/>
     <use xlink:href="#m326502ddec" x="295.2" y="367.492822" style="fill-opacity: 0; stroke: #000000"/>
     <use xlink:href="#m326502ddec" x="295.2" y="367.649945" style="fill-opacity: 0; stroke: #000000"/>
     <use xlink:href="#m326502ddec" x="295.2" y="366.552028" style="fill-opacity: 0; stroke: #000000"/>
     <use xlink:href="#m326502ddec" x="295.2" y="369.002833" style="fill-opacity: 0; stroke: #000000"/>
     <use xlink:href="#m326502ddec" x="295.2" y="366.745903" style="fill-opacity: 0; stroke: #000000"/>
     <use xlink:href="#m326502ddec" x="295.2" y="365.82305" style="fill-opacity: 0; stroke: #000000"/>
     <use xlink:href="#m326502ddec" x="295.2" y="365.888021" style="fill-opacity: 0; stroke: #000000"/>
     <use xlink:href="#m326502ddec" x="295.2" y="368.458184" style="fill-opacity: 0; stroke: #000000"/>
     <use xlink:href="#m326502ddec" x="295.2" y="368.06003" style="fill-opacity: 0; stroke: #000000"/>
     <use xlink:href="#m326502ddec" x="295.2" y="369.466862" style="fill-opacity: 0; stroke: #000000"/>
     <use xlink:href="#m326502ddec" x="295.2" y="365.441756" style="fill-opacity: 0; stroke: #000000"/>
     <use xlink:href="#m326502ddec" x="295.2" y="363.844575" style="fill-opacity: 0; stroke: #000000"/>
     <use xlink:href="#m326502ddec" x="295.2" y="366.749205" style="fill-opacity: 0; stroke: #000000"/>
     <use xlink:href="#m326502ddec" x="295.2" y="369.669091" style="fill-opacity: 0; stroke: #000000"/>
     <use xlink:href="#m326502ddec" x="295.2" y="369.837157" style="fill-opacity: 0; stroke: #000000"/>
     <use xlink:href="#m326502ddec" x="295.2" y="369.367873" style="fill-opacity: 0; stroke: #000000"/>
     <use xlink:href="#m326502ddec" x="295.2" y="365.936766" style="fill-opacity: 0; stroke: #000000"/>
     <use xlink:href="#m326502ddec" x="295.2" y="367.140832" style="fill-opacity: 0; stroke: #000000"/>
     <use xlink:href="#m326502ddec" x="295.2" y="366.592388" style="fill-opacity: 0; stroke: #000000"/>
     <use xlink:href="#m326502ddec" x="295.2" y="367.177402" style="fill-opacity: 0; stroke: #000000"/>
     <use xlink:href="#m326502ddec" x="295.2" y="368.093946" style="fill-opacity: 0; stroke: #000000"/>
     <use xlink:href="#m326502ddec" x="295.2" y="171.771792" style="fill-opacity: 0; stroke: #000000"/>
     <use xlink:href="#m326502ddec" x="295.2" y="316.950728" style="fill-opacity: 0; stroke: #000000"/>
     <use xlink:href="#m326502ddec" x="295.2" y="146.977188" style="fill-opacity: 0; stroke: #000000"/>
     <use xlink:href="#m326502ddec" x="295.2" y="308.70569" style="fill-opacity: 0; stroke: #000000"/>
     <use xlink:href="#m326502ddec" x="295.2" y="308.474076" style="fill-opacity: 0; stroke: #000000"/>
     <use xlink:href="#m326502ddec" x="295.2" y="174.287743" style="fill-opacity: 0; stroke: #000000"/>
     <use xlink:href="#m326502ddec" x="295.2" y="317.022147" style="fill-opacity: 0; stroke: #000000"/>
     <use xlink:href="#m326502ddec" x="295.2" y="313.678968" style="fill-opacity: 0; stroke: #000000"/>
     <use xlink:href="#m326502ddec" x="295.2" y="315.288435" style="fill-opacity: 0; stroke: #000000"/>
     <use xlink:href="#m326502ddec" x="295.2" y="176.419006" style="fill-opacity: 0; stroke: #000000"/>
     <use xlink:href="#m326502ddec" x="295.2" y="170.540332" style="fill-opacity: 0; stroke: #000000"/>
     <use xlink:href="#m326502ddec" x="295.2" y="312.168778" style="fill-opacity: 0; stroke: #000000"/>
     <use xlink:href="#m326502ddec" x="295.2" y="159.531803" style="fill-opacity: 0; stroke: #000000"/>
     <use xlink:href="#m326502ddec" x="295.2" y="317.761623" style="fill-opacity: 0; stroke: #000000"/>
     <use xlink:href="#m326502ddec" x="295.2" y="156.93907" style="fill-opacity: 0; stroke: #000000"/>
     <use xlink:href="#m326502ddec" x="295.2" y="300.13961" style="fill-opacity: 0; stroke: #000000"/>
     <use xlink:href="#m326502ddec" x="295.2" y="66.982722" style="fill-opacity: 0; stroke: #000000"/>
     <use xlink:href="#m326502ddec" x="295.2" y="309.304389" style="fill-opacity: 0; stroke: #000000"/>
     <use xlink:href="#m326502ddec" x="295.2" y="183.400999" style="fill-opacity: 0; stroke: #000000"/>
     <use xlink:href="#m326502ddec" x="295.2" y="154.029633" style="fill-opacity: 0; stroke: #000000"/>
    </g>
   </g>
   <g id="line2d_16">
    <path d="M 250.56 340.232768 
L 339.84 340.232768 
" clip-path="url(#p7810e27d01)" style="fill: none; stroke: #ff7f0e"/>
   </g>
   <g id="patch_4">
    <path d="M 72 384.48 
L 72 51.84 
" style="fill: none; stroke: #000000; stroke-width: 0.8; stroke-linejoin: miter; stroke-linecap: square"/>
   </g>
   <g id="patch_5">
    <path d="M 518.4 384.48 
L 518.4 51.84 
" style="fill: none; stroke: #000000; stroke-width: 0.8; stroke-linejoin: miter; stroke-linecap: square"/>
   </g>
   <g id="patch_6">
    <path d="M 72 384.48 
L 518.4 384.48 
" style="fill: none; stroke: #000000; stroke-width: 0.8; stroke-linejoin: miter; stroke-linecap: square"/>
   </g>
   <g id="patch_7">
    <path d="M 72 51.84 
L 518.4 51.84 
" style="fill: none; stroke: #000000; stroke-width: 0.8; stroke-linejoin: miter; stroke-linecap: square"/>
   </g>
   <g id="text_12">
    <!-- Test Method -->
    <g transform="translate(258.975 45.84) scale(0.12 -0.12)">
     <defs>
      <path id="DejaVuSans-74" d="M 1172 4494 
L 1172 3500 
L 2356 3500 
L 2356 3053 
L 1172 3053 
L 1172 1153 
Q 1172 725 1289 603 
Q 1406 481 1766 481 
L 2356 481 
L 2356 0 
L 1766 0 
Q 1100 0 847 248 
Q 594 497 594 1153 
L 594 3053 
L 172 3053 
L 172 3500 
L 594 3500 
L 594 4494 
L 1172 4494 
z
" transform="scale(0.015625)"/>
      <path id="DejaVuSans-4d" d="M 628 4666 
L 1569 4666 
L 2759 1491 
L 3956 4666 
L 4897 4666 
L 4897 0 
L 4281 0 
L 4281 4097 
L 3078 897 
L 2444 897 
L 1241 4097 
L 1241 0 
L 628 0 
L 628 4666 
z
" transform="scale(0.015625)"/>
      <path id="DejaVuSans-68" d="M 3513 2113 
L 3513 0 
L 2938 0 
L 2938 2094 
Q 2938 2591 2744 2837 
Q 2550 3084 2163 3084 
Q 1697 3084 1428 2787 
Q 1159 2491 1159 1978 
L 1159 0 
L 581 0 
L 581 4863 
L 1159 4863 
L 1159 2956 
Q 1366 3272 1645 3428 
Q 1925 3584 2291 3584 
Q 2894 3584 3203 3211 
Q 3513 2838 3513 2113 
z
" transform="scale(0.015625)"/>
      <path id="DejaVuSans-6f" d="M 1959 3097 
Q 1497 3097 1228 2736 
Q 959 2375 959 1747 
Q 959 1119 1226 758 
Q 1494 397 1959 397 
Q 2419 397 2687 759 
Q 2956 1122 2956 1747 
Q 2956 2369 2687 2733 
Q 2419 3097 1959 3097 
z
M 1959 3584 
Q 2709 3584 3137 3096 
Q 3566 2609 3566 1747 
Q 3566 888 3137 398 
Q 2709 -91 1959 -91 
Q 1206 -91 779 398 
Q 353 888 353 1747 
Q 353 2609 779 3096 
Q 1206 3584 1959 3584 
z
" transform="scale(0.015625)"/>
      <path id="DejaVuSans-64" d="M 2906 2969 
L 2906 4863 
L 3481 4863 
L 3481 0 
L 2906 0 
L 2906 525 
Q 2725 213 2448 61 
Q 2172 -91 1784 -91 
Q 1150 -91 751 415 
Q 353 922 353 1747 
Q 353 2572 751 3078 
Q 1150 3584 1784 3584 
Q 2172 3584 2448 3432 
Q 2725 3281 2906 2969 
z
M 947 1747 
Q 947 1113 1208 752 
Q 1469 391 1925 391 
Q 2381 391 2643 752 
Q 2906 1113 2906 1747 
Q 2906 2381 2643 2742 
Q 2381 3103 1925 3103 
Q 1469 3103 1208 2742 
Q 947 2381 947 1747 
z
" transform="scale(0.015625)"/>
     </defs>
     <use xlink:href="#DejaVuSans-54"/>
     <use xlink:href="#DejaVuSans-65" transform="translate(44.083984 0)"/>
     <use xlink:href="#DejaVuSans-73" transform="translate(105.607422 0)"/>
     <use xlink:href="#DejaVuSans-74" transform="translate(157.707031 0)"/>
     <use xlink:href="#DejaVuSans-20" transform="translate(196.916016 0)"/>
     <use xlink:href="#DejaVuSans-4d" transform="translate(228.703125 0)"/>
     <use xlink:href="#DejaVuSans-65" transform="translate(314.982422 0)"/>
     <use xlink:href="#DejaVuSans-74" transform="translate(376.505859 0)"/>
     <use xlink:href="#DejaVuSans-68" transform="translate(415.714844 0)"/>
     <use xlink:href="#DejaVuSans-6f" transform="translate(479.09375 0)"/>
     <use xlink:href="#DejaVuSans-64" transform="translate(540.275391 0)"/>
    </g>
   </g>
  </g>
 </g>
 <defs>
  <clipPath id="p7810e27d01">
   <rect x="72" y="51.84" width="446.4" height="332.64"/>
  </clipPath>
 </defs>
</svg>
