<?xml version="1.0" encoding="utf-8" standalone="no"?>
<!DOCTYPE svg PUBLIC "-//W3C//DTD SVG 1.1//EN"
  "http://www.w3.org/Graphics/SVG/1.1/DTD/svg11.dtd">
<svg xmlns:xlink="http://www.w3.org/1999/xlink" width="720pt" height="432pt" viewBox="0 0 720 432" xmlns="http://www.w3.org/2000/svg" version="1.1">
 <metadata>
  <rdf:RDF xmlns:dc="http://purl.org/dc/elements/1.1/" xmlns:cc="http://creativecommons.org/ns#" xmlns:rdf="http://www.w3.org/1999/02/22-rdf-syntax-ns#">
   <cc:Work>
    <dc:type rdf:resource="http://purl.org/dc/dcmitype/StillImage"/>
    <dc:date>2025-09-30T20:43:10.513010</dc:date>
    <dc:format>image/svg+xml</dc:format>
    <dc:creator>
     <cc:Agent>
      <dc:title>Matplotlib v3.10.3, https://matplotlib.org/</dc:title>
     </cc:Agent>
    </dc:creator>
   </cc:Work>
  </rdf:RDF>
 </metadata>
 <defs>
  <style type="text/css">*{stroke-linejoin: round; stroke-linecap: butt}</style>
 </defs>
 <g id="figure_1">
  <g id="patch_1">
   <path d="M 0 432 
L 720 432 
L 720 0 
L 0 0 
z
" style="fill: #ffffff"/>
  </g>
  <g id="axes_1">
   <g id="patch_2">
    <path d="M 90 384.48 
L 648 384.48 
L 648 51.84 
L 90 51.84 
z
" style="fill: #ffffff"/>
   </g>
   <g id="matplotlib.axis_1">
    <g id="xtick_1">
     <g id="line2d_1">
      <defs>
       <path id="med9122d4ba" d="M 0 0 
L 0 3.5 
" style="stroke: #000000; stroke-width: 0.8"/>
      </defs>
      <g>
       <use xlink:href="#med9122d4ba" x="115.363636" y="384.48" style="stroke: #000000; stroke-width: 0.8"/>
      </g>
     </g>
     <g id="text_1">
      <!-- 0 -->
      <g transform="translate(112.182386 399.078438) scale(0.1 -0.1)">
       <defs>
        <path id="DejaVuSans-30" d="M 2034 4250 
Q 1547 4250 1301 3770 
Q 1056 3291 1056 2328 
Q 1056 1369 1301 889 
Q 1547 409 2034 409 
Q 2525 409 2770 889 
Q 3016 1369 3016 2328 
Q 3016 3291 2770 3770 
Q 2525 4250 2034 4250 
z
M 2034 4750 
Q 2819 4750 3233 4129 
Q 3647 3509 3647 2328 
Q 3647 1150 3233 529 
Q 2819 -91 2034 -91 
Q 1250 -91 836 529 
Q 422 1150 422 2328 
Q 422 3509 836 4129 
Q 1250 4750 2034 4750 
z
" transform="scale(0.015625)"/>
       </defs>
       <use xlink:href="#DejaVuSans-30"/>
      </g>
     </g>
    </g>
    <g id="xtick_2">
     <g id="line2d_2">
      <g>
       <use xlink:href="#med9122d4ba" x="192.26975" y="384.48" style="stroke: #000000; stroke-width: 0.8"/>
      </g>
     </g>
     <g id="text_2">
      <!-- 500 -->
      <g transform="translate(182.726 399.078438) scale(0.1 -0.1)">
       <defs>
        <path id="DejaVuSans-35" d="M 691 4666 
L 3169 4666 
L 3169 4134 
L 1269 4134 
L 1269 2991 
Q 1406 3038 1543 3061 
Q 1681 3084 1819 3084 
Q 2600 3084 3056 2656 
Q 3513 2228 3513 1497 
Q 3513 744 3044 326 
Q 2575 -91 1722 -91 
Q 1428 -91 1123 -41 
Q 819 9 494 109 
L 494 744 
Q 775 591 1075 516 
Q 1375 441 1709 441 
Q 2250 441 2565 725 
Q 2881 1009 2881 1497 
Q 2881 1984 2565 2268 
Q 2250 2553 1709 2553 
Q 1456 2553 1204 2497 
Q 953 2441 691 2322 
L 691 4666 
z
" transform="scale(0.015625)"/>
       </defs>
       <use xlink:href="#DejaVuSans-35"/>
       <use xlink:href="#DejaVuSans-30" transform="translate(63.623047 0)"/>
       <use xlink:href="#DejaVuSans-30" transform="translate(127.246094 0)"/>
      </g>
     </g>
    </g>
    <g id="xtick_3">
     <g id="line2d_3">
      <g>
       <use xlink:href="#med9122d4ba" x="269.175864" y="384.48" style="stroke: #000000; stroke-width: 0.8"/>
      </g>
     </g>
     <g id="text_3">
      <!-- 1000 -->
      <g transform="translate(256.450864 399.078438) scale(0.1 -0.1)">
       <defs>
        <path id="DejaVuSans-31" d="M 794 531 
L 1825 531 
L 1825 4091 
L 703 3866 
L 703 4441 
L 1819 4666 
L 2450 4666 
L 2450 531 
L 3481 531 
L 3481 0 
L 794 0 
L 794 531 
z
" transform="scale(0.015625)"/>
       </defs>
       <use xlink:href="#DejaVuSans-31"/>
       <use xlink:href="#DejaVuSans-30" transform="translate(63.623047 0)"/>
       <use xlink:href="#DejaVuSans-30" transform="translate(127.246094 0)"/>
       <use xlink:href="#DejaVuSans-30" transform="translate(190.869141 0)"/>
      </g>
     </g>
    </g>
    <g id="xtick_4">
     <g id="line2d_4">
      <g>
       <use xlink:href="#med9122d4ba" x="346.081978" y="384.48" style="stroke: #000000; stroke-width: 0.8"/>
      </g>
     </g>
     <g id="text_4">
      <!-- 1500 -->
      <g transform="translate(333.356978 399.078438) scale(0.1 -0.1)">
       <use xlink:href="#DejaVuSans-31"/>
       <use xlink:href="#DejaVuSans-35" transform="translate(63.623047 0)"/>
       <use xlink:href="#DejaVuSans-30" transform="translate(127.246094 0)"/>
       <use xlink:href="#DejaVuSans-30" transform="translate(190.869141 0)"/>
      </g>
     </g>
    </g>
    <g id="xtick_5">
     <g id="line2d_5">
      <g>
       <use xlink:href="#med9122d4ba" x="422.988092" y="384.48" style="stroke: #000000; stroke-width: 0.8"/>
      </g>
     </g>
     <g id="text_5">
      <!-- 2000 -->
      <g transform="translate(410.263092 399.078438) scale(0.1 -0.1)">
       <defs>
        <path id="DejaVuSans-32" d="M 1228 531 
L 3431 531 
L 3431 0 
L 469 0 
L 469 531 
Q 828 903 1448 1529 
Q 2069 2156 2228 2338 
Q 2531 2678 2651 2914 
Q 2772 3150 2772 3378 
Q 2772 3750 2511 3984 
Q 2250 4219 1831 4219 
Q 1534 4219 1204 4116 
Q 875 4013 500 3803 
L 500 4441 
Q 881 4594 1212 4672 
Q 1544 4750 1819 4750 
Q 2544 4750 2975 4387 
Q 3406 4025 3406 3419 
Q 3406 3131 3298 2873 
Q 3191 2616 2906 2266 
Q 2828 2175 2409 1742 
Q 1991 1309 1228 531 
z
" transform="scale(0.015625)"/>
       </defs>
       <use xlink:href="#DejaVuSans-32"/>
       <use xlink:href="#DejaVuSans-30" transform="translate(63.623047 0)"/>
       <use xlink:href="#DejaVuSans-30" transform="translate(127.246094 0)"/>
       <use xlink:href="#DejaVuSans-30" transform="translate(190.869141 0)"/>
      </g>
     </g>
    </g>
    <g id="xtick_6">
     <g id="line2d_6">
      <g>
       <use xlink:href="#med9122d4ba" x="499.894206" y="384.48" style="stroke: #000000; stroke-width: 0.8"/>
      </g>
     </g>
     <g id="text_6">
      <!-- 2500 -->
      <g transform="translate(487.169206 399.078438) scale(0.1 -0.1)">
       <use xlink:href="#DejaVuSans-32"/>
       <use xlink:href="#DejaVuSans-35" transform="translate(63.623047 0)"/>
       <use xlink:href="#DejaVuSans-30" transform="translate(127.246094 0)"/>
       <use xlink:href="#DejaVuSans-30" transform="translate(190.869141 0)"/>
      </g>
     </g>
    </g>
    <g id="xtick_7">
     <g id="line2d_7">
      <g>
       <use xlink:href="#med9122d4ba" x="576.80032" y="384.48" style="stroke: #000000; stroke-width: 0.8"/>
      </g>
     </g>
     <g id="text_7">
      <!-- 3000 -->
      <g transform="translate(564.07532 399.078438) scale(0.1 -0.1)">
       <defs>
        <path id="DejaVuSans-33" d="M 2597 2516 
Q 3050 2419 3304 2112 
Q 3559 1806 3559 1356 
Q 3559 666 3084 287 
Q 2609 -91 1734 -91 
Q 1441 -91 1130 -33 
Q 819 25 488 141 
L 488 750 
Q 750 597 1062 519 
Q 1375 441 1716 441 
Q 2309 441 2620 675 
Q 2931 909 2931 1356 
Q 2931 1769 2642 2001 
Q 2353 2234 1838 2234 
L 1294 2234 
L 1294 2753 
L 1863 2753 
Q 2328 2753 2575 2939 
Q 2822 3125 2822 3475 
Q 2822 3834 2567 4026 
Q 2313 4219 1838 4219 
Q 1578 4219 1281 4162 
Q 984 4106 628 3988 
L 628 4550 
Q 988 4650 1302 4700 
Q 1616 4750 1894 4750 
Q 2613 4750 3031 4423 
Q 3450 4097 3450 3541 
Q 3450 3153 3228 2886 
Q 3006 2619 2597 2516 
z
" transform="scale(0.015625)"/>
       </defs>
       <use xlink:href="#DejaVuSans-33"/>
       <use xlink:href="#DejaVuSans-30" transform="translate(63.623047 0)"/>
       <use xlink:href="#DejaVuSans-30" transform="translate(127.246094 0)"/>
       <use xlink:href="#DejaVuSans-30" transform="translate(190.869141 0)"/>
      </g>
     </g>
    </g>
    <g id="text_8">
     <!-- Index -->
     <g transform="translate(355.233594 412.756563) scale(0.1 -0.1)">
      <defs>
       <path id="DejaVuSans-49" d="M 628 4666 
L 1259 4666 
L 1259 0 
L 628 0 
L 628 4666 
z
" transform="scale(0.015625)"/>
       <path id="DejaVuSans-6e" d="M 3513 2113 
L 3513 0 
L 2938 0 
L 2938 2094 
Q 2938 2591 2744 2837 
Q 2550 3084 2163 3084 
Q 1697 3084 1428 2787 
Q 1159 2491 1159 1978 
L 1159 0 
L 581 0 
L 581 3500 
L 1159 3500 
L 1159 2956 
Q 1366 3272 1645 3428 
Q 1925 3584 2291 3584 
Q 2894 3584 3203 3211 
Q 3513 2838 3513 2113 
z
" transform="scale(0.015625)"/>
       <path id="DejaVuSans-64" d="M 2906 2969 
L 2906 4863 
L 3481 4863 
L 3481 0 
L 2906 0 
L 2906 525 
Q 2725 213 2448 61 
Q 2172 -91 1784 -91 
Q 1150 -91 751 415 
Q 353 922 353 1747 
Q 353 2572 751 3078 
Q 1150 3584 1784 3584 
Q 2172 3584 2448 3432 
Q 2725 3281 2906 2969 
z
M 947 1747 
Q 947 1113 1208 752 
Q 1469 391 1925 391 
Q 2381 391 2643 752 
Q 2906 1113 2906 1747 
Q 2906 2381 2643 2742 
Q 2381 3103 1925 3103 
Q 1469 3103 1208 2742 
Q 947 2381 947 1747 
z
" transform="scale(0.015625)"/>
       <path id="DejaVuSans-65" d="M 3597 1894 
L 3597 1613 
L 953 1613 
Q 991 1019 1311 708 
Q 1631 397 2203 397 
Q 2534 397 2845 478 
Q 3156 559 3463 722 
L 3463 178 
Q 3153 47 2828 -22 
Q 2503 -91 2169 -91 
Q 1331 -91 842 396 
Q 353 884 353 1716 
Q 353 2575 817 3079 
Q 1281 3584 2069 3584 
Q 2775 3584 3186 3129 
Q 3597 2675 3597 1894 
z
M 3022 2063 
Q 3016 2534 2758 2815 
Q 2500 3097 2075 3097 
Q 1594 3097 1305 2825 
Q 1016 2553 972 2059 
L 3022 2063 
z
" transform="scale(0.015625)"/>
       <path id="DejaVuSans-78" d="M 3513 3500 
L 2247 1797 
L 3578 0 
L 2900 0 
L 1881 1375 
L 863 0 
L 184 0 
L 1544 1831 
L 300 3500 
L 978 3500 
L 1906 2253 
L 2834 3500 
L 3513 3500 
z
" transform="scale(0.015625)"/>
      </defs>
      <use xlink:href="#DejaVuSans-49"/>
      <use xlink:href="#DejaVuSans-6e" transform="translate(29.492188 0)"/>
      <use xlink:href="#DejaVuSans-64" transform="translate(92.871094 0)"/>
      <use xlink:href="#DejaVuSans-65" transform="translate(156.347656 0)"/>
      <use xlink:href="#DejaVuSans-78" transform="translate(216.121094 0)"/>
     </g>
    </g>
   </g>
   <g id="matplotlib.axis_2">
    <g id="ytick_1">
     <g id="line2d_8">
      <defs>
       <path id="md3840d9845" d="M 0 0 
L -3.5 0 
" style="stroke: #000000; stroke-width: 0.8"/>
      </defs>
      <g>
       <use xlink:href="#md3840d9845" x="90" y="384.48" style="stroke: #000000; stroke-width: 0.8"/>
      </g>
     </g>
     <g id="text_9">
      <!-- 0.0 -->
      <g transform="translate(67.096875 388.279219) scale(0.1 -0.1)">
       <defs>
        <path id="DejaVuSans-2e" d="M 684 794 
L 1344 794 
L 1344 0 
L 684 0 
L 684 794 
z
" transform="scale(0.015625)"/>
       </defs>
       <use xlink:href="#DejaVuSans-30"/>
       <use xlink:href="#DejaVuSans-2e" transform="translate(63.623047 0)"/>
       <use xlink:href="#DejaVuSans-30" transform="translate(95.410156 0)"/>
      </g>
     </g>
    </g>
    <g id="ytick_2">
     <g id="line2d_9">
      <g>
       <use xlink:href="#md3840d9845" x="90" y="320.605752" style="stroke: #000000; stroke-width: 0.8"/>
      </g>
     </g>
     <g id="text_10">
      <!-- 0.5 -->
      <g transform="translate(67.096875 324.404971) scale(0.1 -0.1)">
       <use xlink:href="#DejaVuSans-30"/>
       <use xlink:href="#DejaVuSans-2e" transform="translate(63.623047 0)"/>
       <use xlink:href="#DejaVuSans-35" transform="translate(95.410156 0)"/>
      </g>
     </g>
    </g>
    <g id="ytick_3">
     <g id="line2d_10">
      <g>
       <use xlink:href="#md3840d9845" x="90" y="256.731505" style="stroke: #000000; stroke-width: 0.8"/>
      </g>
     </g>
     <g id="text_11">
      <!-- 1.0 -->
      <g transform="translate(67.096875 260.530723) scale(0.1 -0.1)">
       <use xlink:href="#DejaVuSans-31"/>
       <use xlink:href="#DejaVuSans-2e" transform="translate(63.623047 0)"/>
       <use xlink:href="#DejaVuSans-30" transform="translate(95.410156 0)"/>
      </g>
     </g>
    </g>
    <g id="ytick_4">
     <g id="line2d_11">
      <g>
       <use xlink:href="#md3840d9845" x="90" y="192.857257" style="stroke: #000000; stroke-width: 0.8"/>
      </g>
     </g>
     <g id="text_12">
      <!-- 1.5 -->
      <g transform="translate(67.096875 196.656476) scale(0.1 -0.1)">
       <use xlink:href="#DejaVuSans-31"/>
       <use xlink:href="#DejaVuSans-2e" transform="translate(63.623047 0)"/>
       <use xlink:href="#DejaVuSans-35" transform="translate(95.410156 0)"/>
      </g>
     </g>
    </g>
    <g id="ytick_5">
     <g id="line2d_12">
      <g>
       <use xlink:href="#md3840d9845" x="90" y="128.983009" style="stroke: #000000; stroke-width: 0.8"/>
      </g>
     </g>
     <g id="text_13">
      <!-- 2.0 -->
      <g transform="translate(67.096875 132.782228) scale(0.1 -0.1)">
       <use xlink:href="#DejaVuSans-32"/>
       <use xlink:href="#DejaVuSans-2e" transform="translate(63.623047 0)"/>
       <use xlink:href="#DejaVuSans-30" transform="translate(95.410156 0)"/>
      </g>
     </g>
    </g>
    <g id="ytick_6">
     <g id="line2d_13">
      <g>
       <use xlink:href="#md3840d9845" x="90" y="65.108761" style="stroke: #000000; stroke-width: 0.8"/>
      </g>
     </g>
     <g id="text_14">
      <!-- 2.5 -->
      <g transform="translate(67.096875 68.90798) scale(0.1 -0.1)">
       <use xlink:href="#DejaVuSans-32"/>
       <use xlink:href="#DejaVuSans-2e" transform="translate(63.623047 0)"/>
       <use xlink:href="#DejaVuSans-35" transform="translate(95.410156 0)"/>
      </g>
     </g>
    </g>
    <g id="text_15">
     <!-- Average time (ms) -->
     <g transform="translate(61.017187 264.543594) rotate(-90) scale(0.1 -0.1)">
      <defs>
       <path id="DejaVuSans-41" d="M 2188 4044 
L 1331 1722 
L 3047 1722 
L 2188 4044 
z
M 1831 4666 
L 2547 4666 
L 4325 0 
L 3669 0 
L 3244 1197 
L 1141 1197 
L 716 0 
L 50 0 
L 1831 4666 
z
" transform="scale(0.015625)"/>
       <path id="DejaVuSans-76" d="M 191 3500 
L 800 3500 
L 1894 563 
L 2988 3500 
L 3597 3500 
L 2284 0 
L 1503 0 
L 191 3500 
z
" transform="scale(0.015625)"/>
       <path id="DejaVuSans-72" d="M 2631 2963 
Q 2534 3019 2420 3045 
Q 2306 3072 2169 3072 
Q 1681 3072 1420 2755 
Q 1159 2438 1159 1844 
L 1159 0 
L 581 0 
L 581 3500 
L 1159 3500 
L 1159 2956 
Q 1341 3275 1631 3429 
Q 1922 3584 2338 3584 
Q 2397 3584 2469 3576 
Q 2541 3569 2628 3553 
L 2631 2963 
z
" transform="scale(0.015625)"/>
       <path id="DejaVuSans-61" d="M 2194 1759 
Q 1497 1759 1228 1600 
Q 959 1441 959 1056 
Q 959 750 1161 570 
Q 1363 391 1709 391 
Q 2188 391 2477 730 
Q 2766 1069 2766 1631 
L 2766 1759 
L 2194 1759 
z
M 3341 1997 
L 3341 0 
L 2766 0 
L 2766 531 
Q 2569 213 2275 61 
Q 1981 -91 1556 -91 
Q 1019 -91 701 211 
Q 384 513 384 1019 
Q 384 1609 779 1909 
Q 1175 2209 1959 2209 
L 2766 2209 
L 2766 2266 
Q 2766 2663 2505 2880 
Q 2244 3097 1772 3097 
Q 1472 3097 1187 3025 
Q 903 2953 641 2809 
L 641 3341 
Q 956 3463 1253 3523 
Q 1550 3584 1831 3584 
Q 2591 3584 2966 3190 
Q 3341 2797 3341 1997 
z
" transform="scale(0.015625)"/>
       <path id="DejaVuSans-67" d="M 2906 1791 
Q 2906 2416 2648 2759 
Q 2391 3103 1925 3103 
Q 1463 3103 1205 2759 
Q 947 2416 947 1791 
Q 947 1169 1205 825 
Q 1463 481 1925 481 
Q 2391 481 2648 825 
Q 2906 1169 2906 1791 
z
M 3481 434 
Q 3481 -459 3084 -895 
Q 2688 -1331 1869 -1331 
Q 1566 -1331 1297 -1286 
Q 1028 -1241 775 -1147 
L 775 -588 
Q 1028 -725 1275 -790 
Q 1522 -856 1778 -856 
Q 2344 -856 2625 -561 
Q 2906 -266 2906 331 
L 2906 616 
Q 2728 306 2450 153 
Q 2172 0 1784 0 
Q 1141 0 747 490 
Q 353 981 353 1791 
Q 353 2603 747 3093 
Q 1141 3584 1784 3584 
Q 2172 3584 2450 3431 
Q 2728 3278 2906 2969 
L 2906 3500 
L 3481 3500 
L 3481 434 
z
" transform="scale(0.015625)"/>
       <path id="DejaVuSans-20" transform="scale(0.015625)"/>
       <path id="DejaVuSans-74" d="M 1172 4494 
L 1172 3500 
L 2356 3500 
L 2356 3053 
L 1172 3053 
L 1172 1153 
Q 1172 725 1289 603 
Q 1406 481 1766 481 
L 2356 481 
L 2356 0 
L 1766 0 
Q 1100 0 847 248 
Q 594 497 594 1153 
L 594 3053 
L 172 3053 
L 172 3500 
L 594 3500 
L 594 4494 
L 1172 4494 
z
" transform="scale(0.015625)"/>
       <path id="DejaVuSans-69" d="M 603 3500 
L 1178 3500 
L 1178 0 
L 603 0 
L 603 3500 
z
M 603 4863 
L 1178 4863 
L 1178 4134 
L 603 4134 
L 603 4863 
z
" transform="scale(0.015625)"/>
       <path id="DejaVuSans-6d" d="M 3328 2828 
Q 3544 3216 3844 3400 
Q 4144 3584 4550 3584 
Q 5097 3584 5394 3201 
Q 5691 2819 5691 2113 
L 5691 0 
L 5113 0 
L 5113 2094 
Q 5113 2597 4934 2840 
Q 4756 3084 4391 3084 
Q 3944 3084 3684 2787 
Q 3425 2491 3425 1978 
L 3425 0 
L 2847 0 
L 2847 2094 
Q 2847 2600 2669 2842 
Q 2491 3084 2119 3084 
Q 1678 3084 1418 2786 
Q 1159 2488 1159 1978 
L 1159 0 
L 581 0 
L 581 3500 
L 1159 3500 
L 1159 2956 
Q 1356 3278 1631 3431 
Q 1906 3584 2284 3584 
Q 2666 3584 2933 3390 
Q 3200 3197 3328 2828 
z
" transform="scale(0.015625)"/>
       <path id="DejaVuSans-28" d="M 1984 4856 
Q 1566 4138 1362 3434 
Q 1159 2731 1159 2009 
Q 1159 1288 1364 580 
Q 1569 -128 1984 -844 
L 1484 -844 
Q 1016 -109 783 600 
Q 550 1309 550 2009 
Q 550 2706 781 3412 
Q 1013 4119 1484 4856 
L 1984 4856 
z
" transform="scale(0.015625)"/>
       <path id="DejaVuSans-73" d="M 2834 3397 
L 2834 2853 
Q 2591 2978 2328 3040 
Q 2066 3103 1784 3103 
Q 1356 3103 1142 2972 
Q 928 2841 928 2578 
Q 928 2378 1081 2264 
Q 1234 2150 1697 2047 
L 1894 2003 
Q 2506 1872 2764 1633 
Q 3022 1394 3022 966 
Q 3022 478 2636 193 
Q 2250 -91 1575 -91 
Q 1294 -91 989 -36 
Q 684 19 347 128 
L 347 722 
Q 666 556 975 473 
Q 1284 391 1588 391 
Q 1994 391 2212 530 
Q 2431 669 2431 922 
Q 2431 1156 2273 1281 
Q 2116 1406 1581 1522 
L 1381 1569 
Q 847 1681 609 1914 
Q 372 2147 372 2553 
Q 372 3047 722 3315 
Q 1072 3584 1716 3584 
Q 2034 3584 2315 3537 
Q 2597 3491 2834 3397 
z
" transform="scale(0.015625)"/>
       <path id="DejaVuSans-29" d="M 513 4856 
L 1013 4856 
Q 1481 4119 1714 3412 
Q 1947 2706 1947 2009 
Q 1947 1309 1714 600 
Q 1481 -109 1013 -844 
L 513 -844 
Q 928 -128 1133 580 
Q 1338 1288 1338 2009 
Q 1338 2731 1133 3434 
Q 928 4138 513 4856 
z
" transform="scale(0.015625)"/>
      </defs>
      <use xlink:href="#DejaVuSans-41"/>
      <use xlink:href="#DejaVuSans-76" transform="translate(62.533203 0)"/>
      <use xlink:href="#DejaVuSans-65" transform="translate(121.712891 0)"/>
      <use xlink:href="#DejaVuSans-72" transform="translate(183.236328 0)"/>
      <use xlink:href="#DejaVuSans-61" transform="translate(224.349609 0)"/>
      <use xlink:href="#DejaVuSans-67" transform="translate(285.628906 0)"/>
      <use xlink:href="#DejaVuSans-65" transform="translate(349.105469 0)"/>
      <use xlink:href="#DejaVuSans-20" transform="translate(410.628906 0)"/>
      <use xlink:href="#DejaVuSans-74" transform="translate(442.416016 0)"/>
      <use xlink:href="#DejaVuSans-69" transform="translate(481.625 0)"/>
      <use xlink:href="#DejaVuSans-6d" transform="translate(509.408203 0)"/>
      <use xlink:href="#DejaVuSans-65" transform="translate(606.820312 0)"/>
      <use xlink:href="#DejaVuSans-20" transform="translate(668.34375 0)"/>
      <use xlink:href="#DejaVuSans-28" transform="translate(700.130859 0)"/>
      <use xlink:href="#DejaVuSans-6d" transform="translate(739.144531 0)"/>
      <use xlink:href="#DejaVuSans-73" transform="translate(836.556641 0)"/>
      <use xlink:href="#DejaVuSans-29" transform="translate(888.65625 0)"/>
     </g>
    </g>
   </g>
   <g id="line2d_14">
    <path d="M 115.363636 322.517352 
L 115.517449 335.539949 
L 115.671261 309.142468 
L 115.825073 320.72981 
L 115.978885 320.602615 
L 116.132698 334.525924 
L 116.440322 313.435456 
L 116.594134 338.715379 
L 116.747946 341.650117 
L 116.901759 340.547874 
L 117.055571 343.650303 
L 117.209383 350.103292 
L 117.363195 329.329172 
L 117.517008 352.869657 
L 117.67082 349.371917 
L 117.824632 349.526791 
L 118.132256 361.666447 
L 118.286069 359.053919 
L 118.747505 370.457786 
L 118.901318 356.697172 
L 119.208942 365.170857 
L 119.362754 352.8031 
L 119.516567 358.487908 
L 119.670379 343.541064 
L 119.824191 361.502659 
L 119.978003 356.2072 
L 120.43944 367.617695 
L 120.900877 359.979102 
L 121.054689 370.721203 
L 121.208501 369.298724 
L 121.362313 362.85773 
L 121.516125 365.989314 
L 121.669938 348.170102 
L 121.82375 360.947066 
L 121.977562 341.96205 
L 122.131374 356.379192 
L 122.438999 344.298428 
L 122.746623 360.026014 
L 122.900436 340.524851 
L 123.20806 360.707779 
L 123.361872 361.741804 
L 123.515684 351.229891 
L 123.669497 354.431453 
L 123.823309 341.869589 
L 123.977121 356.516891 
L 124.130933 350.15767 
L 124.284746 353.726721 
L 124.438558 360.708432 
L 124.59237 360.834137 
L 124.746182 362.042609 
L 124.899994 352.249722 
L 125.053807 366.735308 
L 125.207619 367.745486 
L 125.361431 359.472721 
L 125.515243 363.333053 
L 125.669056 346.529215 
L 125.822868 364.052405 
L 125.97668 364.250344 
L 126.130492 363.150217 
L 126.284305 358.413289 
L 126.438117 360.836394 
L 126.591929 318.242519 
L 126.745741 343.914303 
L 127.053366 354.616916 
L 127.207178 354.41513 
L 127.36099 350.512058 
L 127.514802 350.052235 
L 127.668615 353.283264 
L 127.822427 320.496016 
L 127.976239 329.665349 
L 128.130051 356.370278 
L 128.283863 354.955236 
L 128.437676 300.60295 
L 128.591488 308.876496 
L 128.7453 365.130375 
L 128.899112 362.572964 
L 129.052925 364.212886 
L 129.206737 367.079165 
L 129.360549 359.225286 
L 129.514361 362.711231 
L 129.668174 317.790985 
L 129.821986 359.181043 
L 129.975798 360.878366 
L 130.283422 365.79136 
L 130.437235 360.280375 
L 130.591047 364.347149 
L 130.744859 360.885392 
L 130.898671 367.057646 
L 131.052484 367.772186 
L 131.206296 304.686388 
L 131.360108 362.328099 
L 131.51392 361.483355 
L 131.667733 359.11186 
L 131.821545 367.573551 
L 131.975357 366.896995 
L 132.129169 245.188221 
L 132.282981 270.868536 
L 132.590606 362.964102 
L 132.744418 364.09919 
L 133.052043 315.386233 
L 133.205855 367.057476 
L 133.359667 341.977323 
L 133.513479 365.204441 
L 133.667291 368.272619 
L 133.821104 314.767774 
L 133.974916 367.03089 
L 134.128728 368.598208 
L 134.28254 368.575426 
L 134.436353 366.904177 
L 134.590165 363.054519 
L 134.743977 368.530487 
L 134.897789 366.9384 
L 135.051602 369.242571 
L 135.205414 369.619372 
L 135.359226 371.017125 
L 135.513038 357.271174 
L 135.66685 368.558918 
L 135.820663 367.405675 
L 135.974475 369.131515 
L 136.128287 354.249908 
L 136.282099 364.849371 
L 136.435912 335.587457 
L 136.589724 363.191338 
L 136.743536 358.934843 
L 136.897348 362.24942 
L 137.05116 360.015439 
L 137.204973 361.762953 
L 137.358785 359.84085 
L 137.512597 362.475733 
L 137.666409 362.37176 
L 137.974034 364.239174 
L 138.127846 318.769084 
L 138.281658 362.992959 
L 138.435471 363.899292 
L 138.589283 358.738678 
L 138.743095 357.493968 
L 138.896907 360.631911 
L 139.050719 347.784145 
L 139.204532 360.778807 
L 139.358344 360.954845 
L 139.512156 360.092826 
L 139.665968 360.186353 
L 139.819781 359.389585 
L 139.973593 346.678454 
L 140.127405 366.08037 
L 140.281217 366.60377 
L 140.435029 353.496916 
L 140.588842 363.01831 
L 140.742654 318.449244 
L 140.896466 361.450694 
L 141.050278 362.524704 
L 141.204091 348.250172 
L 141.357903 361.675872 
L 141.511715 340.932071 
L 141.665527 367.692968 
L 141.973152 367.67724 
L 142.126964 362.967153 
L 142.280776 305.171889 
L 142.434588 355.543887 
L 142.588401 366.204158 
L 142.742213 252.212189 
L 142.896025 369.973704 
L 143.20365 366.542734 
L 143.357462 369.537812 
L 143.511274 368.788056 
L 143.665086 366.352304 
L 143.818899 351.67315 
L 143.972711 362.72815 
L 144.126523 348.673999 
L 144.280335 365.894581 
L 144.58796 367.919622 
L 144.741772 367.727261 
L 144.895584 353.404284 
L 145.049396 367.446654 
L 145.357021 370.628245 
L 145.664645 369.293245 
L 145.818457 369.089543 
L 145.97227 362.749527 
L 146.126082 369.149584 
L 146.279894 366.71907 
L 146.433706 366.752966 
L 146.741331 372.210878 
L 146.895143 371.067813 
L 147.048955 367.398905 
L 147.202768 370.56041 
L 147.35658 370.996629 
L 147.510392 369.885487 
L 147.664204 361.553957 
L 147.818016 367.24802 
L 147.971829 367.515851 
L 148.125641 367.430075 
L 148.279453 364.388582 
L 148.587078 368.534887 
L 148.74089 368.979934 
L 148.894702 368.635539 
L 149.048514 369.06625 
L 149.202326 368.852342 
L 149.356139 369.375841 
L 149.509951 310.595806 
L 149.663763 367.453624 
L 149.817575 366.770027 
L 149.971388 340.34562 
L 150.1252 67.291018 
L 150.279012 369.638435 
L 150.432824 170.103092 
L 150.586637 371.717159 
L 150.740449 371.909633 
L 150.894261 367.958472 
L 151.048073 369.119521 
L 151.201885 367.024275 
L 151.355698 369.224303 
L 151.50951 363.202736 
L 151.663322 366.381828 
L 151.817134 367.226089 
L 151.970947 368.903101 
L 152.124759 367.815464 
L 152.278571 371.853154 
L 152.432383 372.488462 
L 152.586195 317.112782 
L 152.740008 367.965413 
L 153.047632 368.92364 
L 153.201444 369.191983 
L 153.355257 367.17042 
L 153.509069 368.619613 
L 153.662881 365.420535 
L 153.816693 367.92229 
L 153.970506 352.280963 
L 154.124318 274.489071 
L 154.27813 367.226104 
L 154.431942 366.350743 
L 154.585754 366.551833 
L 154.739567 367.819368 
L 154.893379 367.080797 
L 155.201003 369.744481 
L 155.354816 369.306672 
L 155.508628 369.925075 
L 155.66244 321.939659 
L 155.816252 370.110991 
L 155.970065 340.531835 
L 156.123877 369.944592 
L 156.277689 371.050425 
L 156.431501 371.168096 
L 156.585313 372.33989 
L 156.739126 369.394067 
L 156.892938 370.203836 
L 157.04675 369.803841 
L 157.200562 358.405297 
L 157.354375 367.190732 
L 157.661999 370.333174 
L 157.815811 370.253417 
L 158.277248 366.138538 
L 158.43106 370.249982 
L 158.584872 370.339704 
L 158.738685 370.832032 
L 158.892497 364.70151 
L 159.046309 363.807142 
L 159.200121 371.461619 
L 159.353934 371.582327 
L 159.507746 370.161324 
L 159.661558 370.442243 
L 159.81537 365.614045 
L 160.276807 373.220319 
L 160.430619 373.443311 
L 160.584431 373.21308 
L 160.738244 370.022547 
L 160.892056 369.549778 
L 161.045868 367.492942 
L 161.19968 369.932186 
L 161.353492 368.407124 
L 161.507305 279.362647 
L 161.661117 368.094935 
L 161.814929 371.939214 
L 161.968741 371.270649 
L 162.122554 372.617261 
L 162.276366 370.758165 
L 162.58399 372.15667 
L 162.737803 372.289685 
L 162.891615 373.317989 
L 163.045427 372.888158 
L 163.199239 370.000631 
L 163.353051 371.56291 
L 163.506864 371.694476 
L 163.660676 369.972469 
L 163.814488 370.249314 
L 163.9683 372.88329 
L 164.122113 373.067134 
L 164.275925 358.284632 
L 164.429737 370.792742 
L 164.583549 373.267415 
L 164.737361 371.633611 
L 164.891174 372.216499 
L 165.044986 297.087425 
L 165.198798 372.17271 
L 165.35261 373.645196 
L 165.506423 373.113166 
L 165.660235 370.305978 
L 165.814047 370.006181 
L 165.967859 369.382811 
L 166.121672 305.779148 
L 166.275484 295.759763 
L 166.429296 373.658042 
L 166.583108 368.077675 
L 166.73692 373.203271 
L 166.890733 372.455176 
L 167.044545 372.355149 
L 167.198357 372.83774 
L 167.352169 363.281628 
L 167.659794 374.406378 
L 167.813606 374.687581 
L 167.967418 374.232683 
L 168.12123 330.195108 
L 168.275043 371.830429 
L 168.428855 330.341749 
L 168.582667 371.687947 
L 168.890292 372.531896 
L 169.044104 371.868967 
L 169.197916 373.608376 
L 169.351728 372.633783 
L 169.505541 373.672988 
L 169.659353 373.496213 
L 169.966977 371.195292 
L 170.120789 373.831368 
L 170.274602 372.266534 
L 170.428414 372.871523 
L 170.582226 368.131997 
L 170.736038 370.71351 
L 170.889851 370.274438 
L 171.197475 311.913205 
L 171.351287 370.387836 
L 171.5051 369.761301 
L 171.658912 365.984772 
L 171.966536 369.163992 
L 172.120348 369.678719 
L 172.274161 369.358553 
L 172.427973 371.669963 
L 172.581785 371.076585 
L 172.735597 374.105303 
L 172.88941 371.181949 
L 173.043222 323.611263 
L 173.197034 372.134527 
L 173.504658 373.077922 
L 173.658471 369.77172 
L 173.812283 370.253147 
L 173.966095 365.486595 
L 174.119907 370.631864 
L 174.27372 369.623773 
L 174.427532 370.651722 
L 174.581344 368.037605 
L 175.196593 374.329176 
L 175.350405 373.640398 
L 175.504217 370.339349 
L 175.65803 371.386602 
L 175.811842 370.899143 
L 175.965654 372.465524 
L 176.119466 371.790132 
L 176.273279 371.793709 
L 176.427091 369.253657 
L 176.580903 362.592382 
L 176.734715 371.024365 
L 176.888527 372.424389 
L 177.04234 370.868526 
L 177.196152 371.272097 
L 177.503776 374.718553 
L 177.657589 374.917869 
L 177.811401 374.338586 
L 177.965213 371.260401 
L 178.119025 371.722056 
L 178.272838 372.589042 
L 178.42665 372.785392 
L 178.580462 372.558411 
L 178.888086 370.142474 
L 179.041899 371.739359 
L 179.349523 369.643361 
L 179.503335 367.966037 
L 179.657148 369.249015 
L 179.81096 299.665034 
L 179.964772 372.938236 
L 180.118584 374.325499 
L 180.272396 374.116403 
L 180.426209 371.751126 
L 180.580021 372.501478 
L 180.733833 372.091675 
L 180.887645 372.150468 
L 181.349082 373.609994 
L 181.502894 302.955268 
L 181.656707 372.975155 
L 181.810519 373.086722 
L 181.964331 371.698195 
L 182.118143 371.594023 
L 182.425768 374.290255 
L 182.57958 373.702754 
L 182.733392 374.227814 
L 182.887204 370.42291 
L 183.041017 371.505238 
L 183.194829 369.975649 
L 183.348641 371.269471 
L 183.656266 371.767747 
L 183.810078 370.89778 
L 183.96389 372.954289 
L 184.117702 372.013053 
L 184.271514 372.320316 
L 184.425327 372.111646 
L 185.040576 374.159398 
L 185.194388 373.659901 
L 185.3482 370.289371 
L 185.502012 369.991731 
L 185.809637 372.469839 
L 185.963449 371.98069 
L 186.271073 373.835825 
L 186.424886 374.028172 
L 186.578698 373.240474 
L 186.73251 373.362134 
L 187.040135 372.205357 
L 187.193947 374.419068 
L 187.347759 374.997215 
L 187.501571 372.501648 
L 187.655383 374.705622 
L 187.809196 371.568431 
L 187.963008 371.410747 
L 188.11682 372.020987 
L 188.424445 371.415176 
L 188.578257 373.11758 
L 188.732069 373.355434 
L 189.039693 372.709396 
L 189.193506 373.651385 
L 189.347318 372.49086 
L 189.50113 372.898222 
L 189.808755 374.464632 
L 189.962567 374.487456 
L 190.116379 373.66274 
L 190.270191 369.573127 
L 190.424004 371.572874 
L 190.577816 371.685846 
L 190.731628 370.914671 
L 191.039252 371.243411 
L 191.193065 369.364429 
L 191.346877 370.785333 
L 191.500689 370.008579 
L 191.654501 370.489254 
L 191.808314 368.968565 
L 191.962126 369.945145 
L 192.115938 374.14015 
L 192.26975 374.587384 
L 192.423562 374.254386 
L 192.577375 373.218842 
L 192.731187 296.881693 
L 192.884999 371.476183 
L 193.038811 369.875835 
L 193.192624 371.274766 
L 193.346436 370.906708 
L 193.500248 370.93724 
L 193.65406 371.100999 
L 193.807873 372.321622 
L 193.961685 370.814161 
L 194.115497 371.548588 
L 194.269309 370.832344 
L 194.423121 371.462968 
L 194.576934 300.09258 
L 194.730746 374.636666 
L 194.884558 374.828261 
L 195.03837 374.647156 
L 195.192183 371.63364 
L 195.345995 372.294099 
L 195.499807 371.593044 
L 195.653619 372.197848 
L 195.807432 315.137932 
L 195.961244 371.431896 
L 196.115056 369.938815 
L 196.268868 371.447567 
L 196.42268 371.407638 
L 196.576493 371.59885 
L 196.730305 371.299946 
L 196.884117 370.693922 
L 197.037929 374.528477 
L 197.191742 373.922751 
L 197.345554 374.672833 
L 197.499366 374.301781 
L 197.653178 371.481023 
L 197.80699 372.35583 
L 198.114615 371.776008 
L 198.268427 371.704171 
L 198.422239 372.033634 
L 198.576052 369.739939 
L 198.729864 370.362329 
L 198.883676 369.599103 
L 199.037488 370.882734 
L 199.345113 369.63219 
L 199.498925 373.999698 
L 199.652737 374.701548 
L 199.806549 374.659391 
L 200.114174 371.327725 
L 200.267986 372.129176 
L 200.421798 370.329271 
L 200.575611 371.434608 
L 200.729423 371.543605 
L 201.037047 373.041882 
L 201.190859 372.871281 
L 201.652296 370.721643 
L 201.959921 374.176445 
L 202.113733 374.072813 
L 202.267545 374.708049 
L 202.421357 373.696153 
L 202.57517 370.992697 
L 202.728982 371.143923 
L 202.882794 368.916472 
L 203.036606 371.968596 
L 203.190418 370.554633 
L 203.498043 373.705351 
L 203.651855 372.713696 
L 203.805667 372.819018 
L 203.95948 372.439619 
L 204.113292 372.799728 
L 204.267104 372.479462 
L 204.574728 374.852093 
L 204.728541 374.726502 
L 205.036165 371.40453 
L 205.189977 371.94536 
L 205.34379 371.564911 
L 205.497602 372.158658 
L 205.651414 370.84766 
L 206.112851 373.936817 
L 206.266663 373.12746 
L 206.420475 373.154869 
L 206.574287 372.254497 
L 206.881912 374.077937 
L 207.189536 374.765011 
L 207.343349 374.383029 
L 207.497161 369.721898 
L 207.650973 371.529099 
L 207.804785 371.748486 
L 207.958597 371.667138 
L 208.11241 371.202389 
L 208.266222 371.57699 
L 208.420034 373.65438 
L 208.573846 373.651427 
L 208.881471 371.58677 
L 209.035283 372.240175 
L 209.189095 373.545098 
L 209.342908 372.44287 
L 209.49672 373.892148 
L 209.650532 373.825747 
L 209.804344 374.183443 
L 209.958156 368.718192 
L 210.111969 371.091716 
L 210.265781 370.36592 
L 210.419593 317.655443 
L 210.573405 370.860719 
L 210.88103 367.37344 
L 211.034842 359.747522 
L 211.188654 369.3622 
L 211.342467 368.717624 
L 211.650091 370.535982 
L 211.803903 373.498384 
L 211.957715 374.053821 
L 212.111528 373.792078 
L 212.26534 325.759098 
L 212.419152 370.379802 
L 212.572964 317.209303 
L 212.726777 370.223836 
L 212.880589 316.230409 
L 213.034401 370.685675 
L 213.188213 370.801387 
L 213.342025 370.300059 
L 213.495838 370.846099 
L 213.64965 368.640861 
L 213.803462 370.952982 
L 213.957274 369.356509 
L 214.111087 369.338908 
L 214.264899 373.854831 
L 214.418711 374.25088 
L 214.572523 374.200334 
L 214.726336 374.753102 
L 214.880148 369.611722 
L 215.187772 372.010356 
L 215.341584 372.044479 
L 215.803021 369.850782 
L 215.956833 369.915082 
L 216.110646 370.108266 
L 216.264458 370.978531 
L 216.41827 369.347864 
L 216.572082 370.220401 
L 216.879707 374.062536 
L 217.033519 373.883347 
L 217.187331 374.589428 
L 217.341143 369.805644 
L 217.494956 371.747662 
L 217.80258 367.162017 
L 217.956392 370.741927 
L 218.110205 370.306546 
L 218.264017 370.386389 
L 218.417829 369.926324 
L 218.571641 368.914357 
L 218.725453 368.654885 
L 218.879266 368.707418 
L 219.340702 373.908486 
L 219.494515 374.597476 
L 220.109763 370.404387 
L 220.263576 371.716662 
L 220.417388 368.73795 
L 220.5712 372.39248 
L 220.725012 372.745776 
L 221.340261 370.583774 
L 221.494074 371.251317 
L 221.647886 373.680667 
L 221.801698 374.133763 
L 222.109322 373.384277 
L 222.263135 369.635327 
L 222.416947 370.708584 
L 222.570759 369.470787 
L 222.724571 371.101766 
L 222.878384 369.447238 
L 223.032196 370.002135 
L 223.33982 372.400273 
L 223.493633 371.068125 
L 223.647445 371.402415 
L 223.801257 371.308307 
L 224.262694 374.561451 
L 224.416506 374.419905 
L 224.72413 370.985373 
L 224.877943 372.128608 
L 225.185567 370.244971 
L 225.339379 370.328589 
L 225.647004 372.697813 
L 225.800816 372.872999 
L 225.954628 371.898335 
L 226.10844 372.987234 
L 226.262253 371.723319 
L 226.723689 374.071989 
L 226.877502 374.372936 
L 227.031314 373.86251 
L 227.185126 369.648201 
L 227.338938 371.009801 
L 227.49275 370.729294 
L 227.646563 369.650614 
L 227.800375 370.103411 
L 227.954187 372.654265 
L 228.107999 315.793637 
L 228.261812 373.069306 
L 228.415624 372.039596 
L 228.569436 373.092982 
L 228.723248 372.349443 
L 228.87706 372.762397 
L 229.030873 372.605295 
L 229.184685 373.123954 
L 229.338497 371.663164 
L 229.492309 371.864751 
L 229.646122 368.262939 
L 229.799934 370.525649 
L 229.953746 368.958544 
L 230.107558 368.593481 
L 230.261371 367.30826 
L 230.415183 369.803685 
L 230.568995 368.042956 
L 230.722807 369.13495 
L 230.876619 369.227099 
L 231.184244 367.48769 
L 231.338056 368.786892 
L 231.491868 373.263909 
L 231.645681 372.898946 
L 231.799493 372.99832 
L 231.953305 371.989802 
L 232.107117 369.538068 
L 232.414742 371.345482 
L 232.722366 369.70996 
L 232.876178 370.186192 
L 233.029991 369.720734 
L 233.183803 370.887148 
L 233.337615 368.059393 
L 233.491427 292.099045 
L 233.64524 370.357659 
L 233.952864 372.174782 
L 234.106676 374.044169 
L 234.260488 373.843902 
L 234.414301 372.943984 
L 234.568113 369.209186 
L 234.721925 370.969646 
L 234.875737 370.101481 
L 235.02955 371.411187 
L 235.337174 370.338795 
L 235.490986 369.830328 
L 235.644799 370.619416 
L 235.798611 368.998642 
L 235.952423 369.736504 
L 236.260047 368.438834 
L 236.41386 372.962565 
L 236.721484 374.231561 
L 236.875296 370.042703 
L 237.029109 368.884449 
L 237.182921 370.399703 
L 237.490545 369.873762 
L 237.644357 370.018288 
L 237.79817 369.298184 
L 237.951982 369.565619 
L 238.105794 370.413187 
L 238.259606 369.35357 
L 238.413419 370.614633 
L 238.567231 369.867687 
L 238.721043 370.019552 
L 239.028668 372.309926 
L 239.18248 371.401421 
L 239.336292 316.232155 
L 239.490104 370.940349 
L 239.797729 372.013649 
L 239.951541 372.30818 
L 240.105353 370.806397 
L 240.259165 373.016602 
L 240.412978 372.223412 
L 240.56679 372.644698 
L 240.720602 372.495828 
L 240.874414 373.9062 
L 241.028226 371.162461 
L 241.182039 372.978732 
L 241.335851 373.333745 
L 241.489663 372.085884 
L 241.643475 318.416342 
L 241.797288 372.134698 
L 241.9511 372.101199 
L 242.104912 373.46974 
L 242.258724 372.950343 
L 242.412537 373.724542 
L 242.720161 372.022719 
L 242.873973 372.235037 
L 243.027785 372.119212 
L 243.181598 372.462046 
L 243.33541 371.763248 
L 243.489222 369.807305 
L 243.643034 371.601404 
L 243.796847 371.287285 
L 243.950659 372.313574 
L 244.104471 368.570273 
L 244.412095 372.044706 
L 244.565908 372.17518 
L 244.71972 371.439717 
L 244.873532 371.623093 
L 245.027344 371.311245 
L 245.181157 372.52548 
L 245.334969 371.149629 
L 245.488781 372.479335 
L 245.642593 372.532563 
L 245.796406 372.727053 
L 245.950218 371.389782 
L 246.10403 367.151541 
L 246.257842 372.473983 
L 246.411654 373.294285 
L 246.565467 372.219579 
L 246.719279 372.909322 
L 246.873091 372.577744 
L 247.026903 373.01382 
L 247.180716 371.920974 
L 247.334528 373.187828 
L 247.642152 369.555157 
L 247.949777 373.448705 
L 248.103589 371.571738 
L 248.257401 372.968938 
L 248.411213 370.608756 
L 248.565026 372.522343 
L 248.718838 371.149047 
L 248.87265 371.482471 
L 249.026462 370.449255 
L 249.180275 370.428389 
L 249.334087 370.981526 
L 249.487899 371.962393 
L 249.641711 370.946211 
L 249.795523 372.011193 
L 249.949336 371.083356 
L 250.103148 371.938377 
L 250.25696 371.672404 
L 250.410772 372.6998 
L 250.564585 306.02637 
L 250.718397 371.919271 
L 251.026021 372.170907 
L 251.179834 371.283623 
L 251.487458 371.819131 
L 251.795082 371.098501 
L 251.948895 372.602314 
L 252.256519 371.230508 
L 252.564144 372.621036 
L 252.717956 371.779869 
L 252.871768 372.16056 
L 253.02558 371.347469 
L 253.179392 372.112995 
L 253.333205 370.315133 
L 253.487017 372.416908 
L 253.640829 368.846054 
L 253.794641 370.806809 
L 253.948454 369.741656 
L 254.102266 371.202418 
L 254.256078 369.344742 
L 254.40989 369.435187 
L 254.563703 370.334281 
L 254.717515 369.594007 
L 255.025139 372.491002 
L 255.178951 370.622553 
L 255.332764 372.011917 
L 255.486576 370.975408 
L 255.640388 372.335731 
L 255.7942 370.640849 
L 255.948013 371.642014 
L 256.101825 369.66698 
L 256.255637 369.561233 
L 256.563261 370.995323 
L 256.717074 371.256498 
L 256.870886 372.141667 
L 257.024698 371.163483 
L 257.17851 372.000973 
L 257.332323 370.001795 
L 257.486135 371.52433 
L 257.639947 370.450348 
L 257.793759 371.932855 
L 257.947572 370.205468 
L 258.101384 372.165655 
L 258.255196 371.159835 
L 258.409008 371.89287 
L 258.56282 371.753596 
L 258.716633 373.072428 
L 258.870445 373.191093 
L 259.024257 372.245399 
L 259.178069 372.842864 
L 259.331882 372.981982 
L 259.485694 372.876689 
L 259.639506 373.347102 
L 260.100943 373.126083 
L 260.254755 371.755185 
L 260.408567 372.690688 
L 260.562379 372.375007 
L 260.716192 371.417986 
L 260.870004 372.176003 
L 261.023816 373.595488 
L 261.331441 374.095169 
L 261.485253 372.905915 
L 261.639065 374.086638 
L 261.946689 373.916576 
L 262.100502 373.491543 
L 262.254314 374.009705 
L 262.408126 373.872744 
L 262.561938 373.98725 
L 262.715751 368.403306 
L 262.869563 373.686884 
L 263.023375 373.274271 
L 263.177187 373.322858 
L 263.331 373.750248 
L 263.638624 373.232071 
L 263.792436 373.012245 
L 263.946248 373.18594 
L 264.100061 373.002862 
L 264.253873 373.808572 
L 264.407685 305.684969 
L 264.561497 372.291913 
L 264.71531 373.348933 
L 264.869122 372.94407 
L 265.022934 373.002436 
L 265.176746 373.603422 
L 265.330558 372.795186 
L 265.484371 310.997021 
L 265.638183 372.864198 
L 265.791995 372.811907 
L 265.945807 373.313618 
L 266.09962 373.403155 
L 266.253432 373.012784 
L 266.407244 371.604329 
L 267.022493 373.547937 
L 267.176305 373.344774 
L 267.330117 372.585792 
L 267.48393 373.058348 
L 267.637742 371.664839 
L 267.791554 372.430407 
L 267.945366 372.390195 
L 268.099179 373.202306 
L 268.252991 373.007674 
L 268.406803 374.610393 
L 268.714427 374.644885 
L 268.86824 374.762442 
L 269.022052 366.476263 
L 269.175864 366.513154 
L 269.329676 366.855406 
L 269.637301 366.461926 
L 269.944925 367.540592 
L 270.098738 368.925996 
L 270.25255 374.943291 
L 270.406362 375.582161 
L 270.560174 375.569542 
L 270.713986 374.960438 
L 270.867799 367.735082 
L 271.021611 369.491666 
L 271.175423 369.140032 
L 271.329235 369.590033 
L 271.790672 367.672074 
L 271.944484 367.678163 
L 272.098296 375.729824 
L 272.252109 376.276162 
L 272.559733 376.160919 
L 272.713545 367.886791 
L 272.867358 369.188633 
L 273.02117 368.05742 
L 273.174982 369.438168 
L 273.328794 367.88425 
L 273.482607 367.940998 
L 273.790231 368.620393 
L 273.944043 374.97652 
L 274.251668 376.101998 
L 274.40548 375.840398 
L 274.559292 367.309793 
L 274.713104 369.352648 
L 274.866917 367.326982 
L 275.020729 367.884945 
L 275.174541 367.650882 
L 275.328353 368.387848 
L 275.482165 367.803328 
L 275.635978 368.901298 
L 275.78979 374.977343 
L 275.943602 374.221498 
L 276.097414 314.297248 
L 276.251227 374.42317 
L 276.405039 365.81295 
L 276.558851 367.474844 
L 276.712663 365.651476 
L 276.866476 368.759199 
L 277.020288 361.088853 
L 277.1741 367.47087 
L 277.327912 366.71545 
L 277.481724 366.699794 
L 277.635537 375.323002 
L 277.789349 376.060111 
L 277.943161 374.630435 
L 278.096973 375.945577 
L 278.250786 368.410914 
L 278.55841 369.672913 
L 278.712222 369.957665 
L 278.866035 368.562041 
L 279.019847 314.469155 
L 279.173659 368.720619 
L 279.327471 369.604199 
L 279.481283 374.937471 
L 279.635096 375.030245 
L 279.788908 374.420331 
L 279.94272 375.332626 
L 280.096532 367.712613 
L 280.250345 368.615965 
L 280.404157 367.817125 
L 280.557969 367.994284 
L 280.711781 369.364315 
L 281.019406 367.773094 
L 281.173218 368.408757 
L 281.32703 375.057115 
L 281.480842 375.881377 
L 281.788467 373.819856 
L 281.942279 365.950776 
L 282.249904 368.593438 
L 282.403716 368.48823 
L 282.71134 267.05073 
L 282.865152 368.617413 
L 283.018965 369.224615 
L 283.172777 375.017924 
L 283.326589 375.045177 
L 283.480401 313.358921 
L 283.634214 373.406803 
L 283.788026 365.572215 
L 284.09565 366.769673 
L 284.249462 366.994921 
L 284.403275 366.018086 
L 284.557087 365.931046 
L 284.864711 366.841652 
L 285.018524 375.128115 
L 285.326148 376.020083 
L 285.47996 375.607569 
L 285.633773 366.572202 
L 285.787585 366.97292 
L 286.095209 368.729959 
L 286.249021 367.8387 
L 286.402834 367.744791 
L 286.556646 367.228999 
L 286.710458 367.296848 
L 286.86427 375.827183 
L 287.018083 374.452126 
L 287.171895 376.10258 
L 287.325707 375.646035 
L 287.479519 367.286628 
L 287.633331 368.457699 
L 287.787144 367.225862 
L 287.940956 367.819794 
L 288.094768 367.680207 
L 288.24858 366.621867 
L 288.402393 367.928082 
L 288.556205 367.647149 
L 288.710017 374.648745 
L 289.017642 375.259823 
L 289.171454 373.182406 
L 289.325266 366.700972 
L 289.479078 366.745954 
L 289.63289 367.523559 
L 289.786703 304.229616 
L 289.940515 366.933489 
L 290.094327 368.439842 
L 290.248139 366.577496 
L 290.401952 367.348515 
L 290.555764 374.38063 
L 290.709576 375.507414 
L 290.863388 375.345287 
L 291.017201 375.543283 
L 291.171013 363.41829 
L 291.324825 363.730394 
L 291.478637 364.755859 
L 291.632449 361.790121 
L 291.786262 365.282197 
L 291.940074 364.58655 
L 292.247698 365.966702 
L 292.401511 375.552112 
L 292.555323 375.837147 
L 292.709135 375.368821 
L 292.862947 376.034433 
L 293.016759 366.585573 
L 293.324384 367.667375 
L 293.478196 367.511636 
L 293.632008 365.916838 
L 293.785821 366.200212 
L 293.939633 366.771376 
L 294.093445 366.106629 
L 294.247257 375.693302 
L 294.40107 374.977201 
L 294.554882 374.809709 
L 294.708694 375.989281 
L 294.862506 366.634004 
L 295.016318 367.586454 
L 295.170131 366.083195 
L 295.323943 366.952239 
L 295.477755 366.498817 
L 295.631567 365.387647 
L 295.78538 367.337642 
L 295.939192 367.719028 
L 296.093004 375.543993 
L 296.246816 375.691485 
L 296.554441 375.128072 
L 296.708253 364.96927 
L 296.862065 367.417102 
L 297.015877 367.330361 
L 297.16969 365.392359 
L 297.323502 366.452019 
L 297.477314 366.301914 
L 297.631126 367.089796 
L 297.784939 366.833291 
L 297.938751 374.628433 
L 298.092563 374.37877 
L 298.400187 375.177198 
L 298.554 370.929036 
L 298.707812 371.537119 
L 299.015436 371.692163 
L 299.169249 375.080862 
L 299.323061 374.733471 
L 299.476873 373.874717 
L 299.630685 375.170953 
L 299.784497 372.538979 
L 299.93831 372.198856 
L 300.092122 371.51455 
L 300.245934 371.695953 
L 300.399746 375.481978 
L 300.553559 375.659534 
L 300.707371 374.692875 
L 300.861183 375.463653 
L 301.014995 371.989221 
L 301.168808 373.161256 
L 301.32262 372.22811 
L 301.476432 372.843588 
L 301.630244 375.309915 
L 301.937869 375.76487 
L 302.091681 375.142564 
L 302.245493 372.309188 
L 302.399305 373.027546 
L 302.553118 373.013792 
L 302.70693 372.095223 
L 302.860742 375.696453 
L 303.014554 375.551516 
L 303.168367 375.579053 
L 303.475991 373.313263 
L 303.629803 373.330637 
L 303.937428 373.913737 
L 304.245052 376.115057 
L 304.398864 375.053964 
L 304.552677 374.992673 
L 304.860301 372.310437 
L 305.014113 373.611229 
L 305.167925 373.487796 
L 305.321738 376.043092 
L 305.47555 375.578485 
L 305.629362 376.002326 
L 305.783174 324.471166 
L 305.936987 373.354071 
L 306.090799 373.860793 
L 306.244611 373.345086 
L 306.398423 373.647467 
L 306.552236 375.399197 
L 306.706048 375.790136 
L 306.85986 375.85983 
L 307.013672 375.424761 
L 307.167484 373.057397 
L 307.321297 373.749921 
L 307.475109 372.948441 
L 307.628921 373.612975 
L 307.782733 376.089223 
L 308.090358 375.624886 
L 308.24417 375.651216 
L 308.397982 324.233384 
L 308.551794 373.179425 
L 308.705607 373.035367 
L 308.859419 373.077382 
L 309.013231 375.977202 
L 309.167043 376.029877 
L 309.320856 375.243599 
L 309.474668 375.632735 
L 309.62848 372.817485 
L 309.782292 372.785818 
L 309.936105 373.291702 
L 310.089917 372.66897 
L 310.243729 375.647725 
L 310.397541 375.079982 
L 310.705166 375.195367 
L 310.858978 372.905887 
L 311.01279 373.04783 
L 311.166602 373.035225 
L 311.320415 372.363765 
L 311.474227 375.257666 
L 311.628039 375.389545 
L 311.781851 374.938309 
L 311.935663 374.846032 
L 312.089476 372.235633 
L 312.3971 372.911423 
L 312.550912 372.963232 
L 312.704725 374.857856 
L 313.012349 375.239213 
L 313.166161 375.271434 
L 313.473786 372.123058 
L 313.627598 372.956873 
L 313.78141 373.057056 
L 313.935222 374.000323 
L 314.089035 375.768277 
L 314.242847 374.923958 
L 314.396659 375.903264 
L 314.550471 372.628687 
L 314.704284 372.896405 
L 314.858096 373.461479 
L 315.011908 373.127942 
L 315.16572 376.16529 
L 315.319532 375.949282 
L 315.627157 375.015526 
L 315.780969 372.45326 
L 316.088594 373.338557 
L 316.242406 371.648586 
L 316.396218 375.485853 
L 316.55003 374.120704 
L 316.703843 375.038804 
L 316.857655 374.611131 
L 317.011467 372.296257 
L 317.165279 372.493983 
L 317.319091 372.933608 
L 317.472904 373.034629 
L 317.626716 375.716325 
L 317.780528 375.688334 
L 317.93434 374.944001 
L 318.088153 375.314471 
L 318.241965 365.678516 
L 318.395777 365.89099 
L 318.549589 363.204155 
L 318.703402 362.570991 
L 318.857214 364.568665 
L 319.011026 362.974151 
L 319.164838 364.891713 
L 319.31865 365.391522 
L 319.472463 375.451446 
L 319.626275 375.620528 
L 319.780087 375.3166 
L 319.933899 375.791115 
L 320.087712 364.535309 
L 320.241524 366.566396 
L 320.549148 364.22427 
L 320.70296 366.085068 
L 320.856773 366.189822 
L 321.164397 364.337142 
L 321.318209 375.871639 
L 321.472022 375.492624 
L 321.625834 376.000197 
L 321.779646 375.497464 
L 321.933458 366.899848 
L 322.087271 366.937463 
L 322.241083 364.785852 
L 322.394895 364.463188 
L 322.548707 366.460223 
L 322.702519 366.955064 
L 323.010144 363.15625 
L 323.163956 375.093509 
L 323.317768 375.321001 
L 323.471581 375.075837 
L 323.625393 375.525668 
L 323.779205 364.633391 
L 323.933017 365.933473 
L 324.086829 365.642207 
L 324.240642 365.097402 
L 324.394454 366.045211 
L 324.548266 363.757008 
L 324.702078 365.39507 
L 324.855891 364.262197 
L 325.009703 374.362319 
L 325.163515 374.450026 
L 325.47114 375.81939 
L 325.624952 365.039518 
L 325.778764 364.207605 
L 325.932576 364.110219 
L 326.240201 364.37805 
L 326.394013 363.551674 
L 326.547825 364.195767 
L 326.701637 363.270159 
L 326.85545 375.441851 
L 327.009262 376.038138 
L 327.163074 376.143914 
L 327.316886 375.371106 
L 327.470698 364.690296 
L 327.624511 366.656856 
L 327.778323 366.650057 
L 327.932135 365.152093 
L 328.085947 366.490329 
L 328.23976 365.283248 
L 328.393572 366.44566 
L 328.547384 365.669531 
L 328.701196 375.190144 
L 328.855009 375.221073 
L 329.008821 374.569385 
L 329.162633 375.566718 
L 329.316445 363.548934 
L 329.470257 366.600647 
L 329.62407 365.319273 
L 329.777882 365.350784 
L 329.931694 366.889784 
L 330.085506 367.023949 
L 330.393131 364.691488 
L 330.546943 375.769384 
L 330.700755 376.03801 
L 330.854568 375.243784 
L 331.00838 375.670478 
L 331.162192 365.807741 
L 331.316004 367.421814 
L 331.623629 364.397596 
L 331.777441 366.504935 
L 331.931253 366.061506 
L 332.238878 367.035247 
L 332.39269 374.109618 
L 332.546502 374.945818 
L 332.700314 374.860993 
L 332.854126 374.993127 
L 333.007939 362.420347 
L 333.161751 364.425062 
L 333.469375 360.246252 
L 333.623188 363.743637 
L 333.930812 363.154305 
L 334.084624 363.723907 
L 334.238437 375.514937 
L 334.392249 375.933512 
L 334.546061 375.70497 
L 334.699873 375.739207 
L 334.853685 364.611844 
L 335.007498 366.019249 
L 335.315122 363.385388 
L 335.468934 365.000626 
L 335.776559 365.372374 
L 335.930371 364.684661 
L 336.084183 315.307667 
L 336.237995 375.672863 
L 336.54562 375.424179 
L 336.699432 364.25324 
L 336.853244 366.242057 
L 337.007057 363.586549 
L 337.160869 364.188117 
L 337.314681 365.57213 
L 337.468493 364.670339 
L 337.622306 365.131866 
L 337.776118 364.300138 
L 337.92993 375.261129 
L 338.083742 375.822683 
L 338.391367 375.689087 
L 338.545179 364.398774 
L 338.698991 366.319316 
L 339.006616 364.509901 
L 339.160428 365.075429 
L 339.31424 363.481199 
L 339.468052 364.797818 
L 339.621864 364.455594 
L 339.775677 374.585737 
L 340.237113 375.061969 
L 340.390926 359.67851 
L 340.69855 363.316858 
L 340.852362 363.056109 
L 341.006175 363.253835 
L 341.159987 361.629811 
L 341.467611 363.413067 
L 341.621423 374.941616 
L 341.775236 375.879404 
L 341.929048 376.017003 
L 342.08286 375.89347 
L 342.236672 363.918681 
L 342.390485 365.320579 
L 342.544297 365.419371 
L 342.851921 363.830506 
L 343.005734 364.107507 
L 343.159546 365.176805 
L 343.313358 364.154178 
L 343.46717 374.450026 
L 343.620982 375.419211 
L 343.774795 375.217539 
L 343.928607 375.305529 
L 344.082419 360.537121 
L 344.236231 364.694285 
L 344.390044 365.626167 
L 344.697668 364.231409 
L 344.85148 363.764574 
L 345.159105 365.044628 
L 345.312917 375.334485 
L 345.466729 375.579081 
L 345.620541 374.901744 
L 345.774354 375.578655 
L 345.928166 363.140182 
L 346.081978 365.595252 
L 346.389603 363.118819 
L 346.543415 364.681368 
L 346.697227 363.740486 
L 346.851039 364.906745 
L 347.004851 363.140267 
L 347.158664 374.26567 
L 347.312476 374.440515 
L 347.466288 375.167859 
L 347.6201 374.532906 
L 347.773913 370.898816 
L 347.927725 370.754702 
L 348.081537 372.322232 
L 348.235349 372.176159 
L 348.389161 375.478032 
L 348.542974 374.545255 
L 348.696786 375.302562 
L 348.850598 375.079002 
L 349.00441 371.592519 
L 349.158223 370.773438 
L 349.312035 371.640751 
L 349.465847 369.792997 
L 349.619659 375.065958 
L 349.773472 375.112345 
L 349.927284 373.550662 
L 350.081096 374.401197 
L 350.234908 371.767832 
L 350.38872 372.004423 
L 350.542533 370.496195 
L 350.696345 371.356553 
L 350.850157 375.100862 
L 351.003969 328.66329 
L 351.157782 374.624346 
L 351.311594 374.679845 
L 351.465406 369.561957 
L 351.619218 371.584854 
L 351.77303 371.419178 
L 351.926843 370.631566 
L 352.080655 374.780057 
L 352.234467 374.484362 
L 352.388279 375.207446 
L 352.542092 374.653288 
L 352.695904 372.227287 
L 352.849716 372.757145 
L 353.003528 372.784143 
L 353.157341 372.015338 
L 353.311153 374.709483 
L 353.464965 375.005476 
L 353.618777 374.992985 
L 353.772589 375.417266 
L 353.926402 372.841644 
L 354.080214 372.382147 
L 354.234026 372.937611 
L 354.387838 371.501065 
L 354.541651 375.557208 
L 354.695463 312.67849 
L 354.849275 375.355919 
L 355.003087 374.135126 
L 355.156899 371.742836 
L 355.310712 372.354453 
L 355.618336 372.024607 
L 355.772148 375.453987 
L 355.925961 374.305684 
L 356.079773 375.418686 
L 356.233585 374.582132 
L 356.387397 372.474111 
L 356.848834 371.229827 
L 357.002646 375.389247 
L 357.310271 374.755628 
L 357.464083 375.400247 
L 357.617895 371.259919 
L 357.771707 371.794858 
L 357.92552 372.758167 
L 358.079332 372.438909 
L 358.233144 375.36885 
L 358.386956 375.344719 
L 358.540769 374.652848 
L 358.694581 375.540033 
L 358.848393 372.009376 
L 359.002205 372.58538 
L 359.156017 372.448874 
L 359.30983 371.874843 
L 359.463642 375.651571 
L 359.617454 375.466222 
L 359.771266 375.54615 
L 359.925079 375.122976 
L 360.078891 372.383992 
L 360.232703 372.231815 
L 360.386515 370.884068 
L 360.540327 371.532463 
L 360.69414 375.361469 
L 360.847952 375.152373 
L 361.001764 374.484376 
L 361.155576 375.251875 
L 361.309389 371.218897 
L 361.463201 372.26334 
L 361.617013 372.144222 
L 361.770825 323.766548 
L 361.924638 329.456239 
L 362.07845 375.554809 
L 362.232262 375.491488 
L 362.386074 375.665226 
L 362.539886 372.579021 
L 362.693699 372.989704 
L 362.847511 372.610802 
L 363.001323 371.648742 
L 363.308948 375.200505 
L 363.46276 375.229575 
L 363.616572 375.51823 
L 363.770384 372.494111 
L 363.924196 372.382587 
L 364.231821 372.743831 
L 364.385633 375.067931 
L 364.539445 374.821632 
L 364.693258 375.062239 
L 364.84707 375.059982 
L 365.000882 372.143541 
L 365.308507 372.778749 
L 365.462319 372.398612 
L 365.616131 375.866203 
L 365.769943 375.153196 
L 365.923755 374.987322 
L 366.077568 374.138177 
L 366.385192 371.045855 
L 366.539004 372.567666 
L 366.692817 372.040348 
L 366.846629 375.063233 
L 367.000441 374.844768 
L 367.154253 374.148213 
L 367.308065 374.393802 
L 367.461878 362.931597 
L 367.769502 361.269078 
L 367.923314 358.173065 
L 368.077127 361.054034 
L 368.230939 360.164919 
L 368.384751 361.640457 
L 368.538563 361.230484 
L 368.692376 375.201229 
L 368.846188 375.260817 
L 369 374.919317 
L 369.153812 374.868374 
L 369.307624 362.618613 
L 369.461437 363.021035 
L 369.615249 361.93442 
L 369.769061 361.790363 
L 369.922873 362.18194 
L 370.076686 361.94007 
L 370.230498 362.657051 
L 370.38431 362.41633 
L 370.538122 374.869921 
L 370.691935 374.99977 
L 370.845747 375.672025 
L 370.999559 375.722443 
L 371.153371 363.456402 
L 371.307183 363.998879 
L 371.460996 361.010075 
L 371.614808 360.196842 
L 371.76862 361.747737 
L 371.922432 361.195409 
L 372.076245 363.348767 
L 372.230057 362.631799 
L 372.383869 374.354101 
L 372.537681 375.271193 
L 372.691493 375.019685 
L 372.845306 375.22323 
L 372.999118 362.59038 
L 373.15293 363.059913 
L 373.460555 360.138873 
L 373.614367 362.00965 
L 373.768179 361.563368 
L 373.921991 363.803863 
L 374.075804 362.820697 
L 374.229616 374.613799 
L 374.383428 375.504703 
L 374.691052 375.187291 
L 374.844865 362.88406 
L 374.998677 363.605144 
L 375.152489 360.004737 
L 375.460114 362.604404 
L 375.613926 362.209917 
L 375.767738 360.031394 
L 375.92155 361.070514 
L 376.075362 375.010132 
L 376.229175 374.403114 
L 376.382987 375.706233 
L 376.536799 375.010714 
L 376.690611 363.504052 
L 376.844424 364.884914 
L 376.998236 363.157981 
L 377.152048 363.104185 
L 377.30586 365.298123 
L 377.459673 364.234972 
L 377.613485 364.261913 
L 377.767297 363.829853 
L 377.921109 374.766416 
L 378.074921 374.902553 
L 378.228734 374.773797 
L 378.382546 375.41711 
L 378.536358 363.35091 
L 378.69017 364.775916 
L 378.997795 362.681593 
L 379.151607 363.836638 
L 379.305419 363.301656 
L 379.459231 363.49677 
L 379.613044 362.277411 
L 379.766856 374.560883 
L 379.920668 375.095439 
L 380.07448 375.099584 
L 380.228293 373.807096 
L 380.382105 363.220876 
L 380.535917 364.013229 
L 380.689729 362.206113 
L 381.151166 364.125506 
L 381.304978 322.36404 
L 381.45879 364.26627 
L 381.612603 373.401835 
L 381.766415 375.21196 
L 381.920227 374.662656 
L 382.074039 375.38469 
L 382.227852 361.550564 
L 382.381664 361.603992 
L 382.535476 358.944098 
L 382.843101 361.074914 
L 383.304537 360.207474 
L 383.458349 374.761306 
L 383.612162 374.978209 
L 383.919786 374.778055 
L 384.073598 361.946173 
L 384.227411 363.601155 
L 384.381223 362.653304 
L 384.535035 362.945606 
L 384.842659 361.932717 
L 384.996472 362.33768 
L 385.150284 362.114716 
L 385.304096 374.097709 
L 385.457908 374.975058 
L 385.611721 375.11375 
L 385.765533 374.899402 
L 385.919345 361.274032 
L 386.073157 364.127493 
L 386.22697 363.632822 
L 386.380782 362.64016 
L 386.534594 364.62188 
L 386.688406 363.580346 
L 386.842218 363.871584 
L 386.996031 364.556884 
L 387.149843 374.545283 
L 387.303655 330.753142 
L 387.457467 323.730963 
L 387.61128 375.105659 
L 387.765092 362.139386 
L 388.072716 362.946912 
L 388.226528 362.348496 
L 388.380341 360.673756 
L 388.687965 363.601865 
L 388.841777 361.532793 
L 388.99559 374.221583 
L 389.149402 373.780056 
L 389.457026 375.248482 
L 389.610839 358.846952 
L 389.764651 360.748574 
L 389.918463 360.209049 
L 390.072275 360.217381 
L 390.226087 359.667807 
L 390.3799 360.327287 
L 390.533712 358.3294 
L 390.687524 357.964707 
L 390.841336 374.574211 
L 390.995149 374.766572 
L 391.302773 375.316913 
L 391.456585 362.085178 
L 391.610397 363.585399 
L 391.76421 361.991751 
L 392.071834 361.496073 
L 392.225646 361.39254 
L 392.379459 362.017883 
L 392.533271 362.045562 
L 392.687083 373.522415 
L 392.840895 374.594694 
L 392.994708 374.334087 
L 393.14852 375.802499 
L 393.302332 360.765777 
L 393.456144 363.034888 
L 393.763769 362.02058 
L 393.917581 362.860199 
L 394.071393 362.931157 
L 394.225205 359.21924 
L 394.379018 359.885547 
L 394.53283 374.661932 
L 394.686642 373.73496 
L 394.840454 375.20844 
L 394.994266 375.166695 
L 395.148079 359.671895 
L 395.301891 362.025377 
L 395.609515 361.571884 
L 395.763328 363.028969 
L 396.070952 361.243258 
L 396.224764 360.386634 
L 396.378577 374.257395 
L 396.532389 374.714351 
L 396.686201 374.734621 
L 396.840013 374.48456 
L 396.993825 369.311101 
L 397.147638 369.848496 
L 397.762887 374.899161 
L 397.916699 373.548746 
L 398.070511 374.455845 
L 398.224323 370.820748 
L 398.378136 371.296824 
L 398.531948 370.816305 
L 398.68576 369.821314 
L 398.839572 374.399068 
L 398.993384 374.993269 
L 399.301009 375.149818 
L 399.454821 371.039907 
L 399.608633 371.387099 
L 399.762446 371.395758 
L 399.916258 371.065585 
L 400.07007 375.040962 
L 400.377694 374.906088 
L 400.531507 375.08099 
L 400.685319 265.543028 
L 400.839131 371.257207 
L 400.992943 371.927788 
L 401.146756 369.462213 
L 401.300568 374.330623 
L 401.608192 375.057541 
L 401.762005 374.477832 
L 401.915817 371.801884 
L 402.223441 372.569965 
L 402.377253 372.208409 
L 402.531066 375.128952 
L 402.684878 375.364762 
L 402.992502 374.754365 
L 403.146315 371.359279 
L 403.300127 372.20601 
L 403.453939 372.299238 
L 403.607751 372.609965 
L 403.761563 375.541353 
L 404.069188 374.754947 
L 404.223 374.91662 
L 404.376812 372.185542 
L 404.684437 371.857952 
L 404.838249 372.13941 
L 404.992061 375.00999 
L 405.145874 375.300462 
L 405.453498 374.697034 
L 405.60731 371.995352 
L 405.761122 372.22997 
L 405.914935 372.052555 
L 406.068747 371.494011 
L 406.222559 375.245657 
L 406.376371 375.180775 
L 406.530184 374.960494 
L 406.683996 375.183302 
L 406.837808 372.141099 
L 407.145432 372.391387 
L 407.299245 371.515146 
L 407.453057 375.037271 
L 407.606869 375.198532 
L 407.760681 374.829453 
L 407.914494 375.199938 
L 408.068306 372.332878 
L 408.222118 371.890996 
L 408.529743 372.178757 
L 408.683555 375.259965 
L 408.837367 374.339083 
L 408.991179 374.233109 
L 409.144991 374.703095 
L 409.298804 371.760678 
L 409.606428 372.495843 
L 409.76024 371.843758 
L 409.914053 375.335507 
L 410.067865 367.922603 
L 410.221677 328.721188 
L 410.375489 374.45471 
L 410.529302 370.853551 
L 410.683114 371.427553 
L 410.990738 371.193617 
L 411.14455 374.890048 
L 411.298363 374.382915 
L 411.452175 375.260845 
L 411.605987 375.081969 
L 411.759799 371.183411 
L 411.913612 370.92834 
L 412.067424 371.614335 
L 412.221236 369.876331 
L 412.375048 374.106978 
L 412.52886 373.885831 
L 412.682673 373.357776 
L 412.836485 374.194827 
L 412.990297 370.1229 
L 413.144109 370.6153 
L 413.297922 313.278468 
L 413.451734 370.550588 
L 413.759358 374.357763 
L 413.913171 374.643934 
L 414.066983 374.49285 
L 414.220795 370.311698 
L 414.374607 369.84323 
L 414.528419 370.319079 
L 414.682232 368.8721 
L 414.836044 372.185329 
L 414.989856 371.498368 
L 415.143668 370.012923 
L 415.297481 373.707807 
L 415.451293 370.253516 
L 415.605105 370.082617 
L 415.758917 368.633211 
L 416.220354 373.738836 
L 416.374166 373.058106 
L 416.527978 372.938874 
L 416.681791 352.372758 
L 416.835603 357.779443 
L 417.143227 354.592473 
L 417.29704 359.124422 
L 417.450852 358.225583 
L 417.604664 358.157905 
L 417.758476 357.516622 
L 417.912288 373.685678 
L 418.066101 373.911168 
L 418.219913 374.725253 
L 418.373725 374.82518 
L 418.527537 357.285837 
L 418.835162 359.252468 
L 418.988974 360.184351 
L 419.142786 349.128556 
L 419.296598 357.477417 
L 419.450411 301.882691 
L 419.604223 358.842098 
L 419.758035 373.066722 
L 419.911847 333.357167 
L 420.06566 374.549527 
L 420.219472 375.182777 
L 420.373284 357.895354 
L 420.527096 360.570294 
L 420.680909 358.227471 
L 420.988533 359.120405 
L 421.142345 360.292313 
L 421.296157 358.433643 
L 421.44997 359.349188 
L 421.603782 374.128681 
L 421.911406 374.508534 
L 422.065219 374.188312 
L 422.219031 357.797271 
L 422.372843 360.159681 
L 422.526655 358.619446 
L 422.680468 358.204973 
L 422.83428 359.556439 
L 422.988092 359.090001 
L 423.141904 359.336286 
L 423.295716 358.906582 
L 423.449529 371.79378 
L 423.603341 373.482828 
L 423.757153 324.3396 
L 423.910965 374.249063 
L 424.064778 357.895524 
L 424.21859 359.436483 
L 424.372402 358.459746 
L 424.526214 358.734973 
L 424.680026 358.199395 
L 424.833839 359.503054 
L 425.141463 358.85209 
L 425.295275 374.42493 
L 425.6029 375.126 
L 425.756712 375.199952 
L 425.910524 359.907151 
L 426.064337 361.945407 
L 426.218149 359.270467 
L 426.525773 361.614637 
L 426.679585 360.444561 
L 426.833398 362.218363 
L 426.98721 361.336444 
L 427.141022 373.22435 
L 427.294834 374.655474 
L 427.448647 374.791895 
L 427.602459 374.182194 
L 427.756271 359.843163 
L 427.910083 362.010558 
L 428.063895 362.121274 
L 428.217708 361.233393 
L 428.37152 303.523138 
L 428.525332 361.717745 
L 428.679144 360.873838 
L 428.832957 362.229846 
L 428.986769 374.656595 
L 429.140581 374.808303 
L 429.294393 374.204649 
L 429.448206 374.092628 
L 429.602018 359.886328 
L 429.75583 362.112189 
L 429.909642 360.707041 
L 430.063454 360.910587 
L 430.217267 361.750633 
L 430.371079 361.032374 
L 430.524891 362.230002 
L 430.678703 314.073049 
L 430.832516 374.430182 
L 430.986328 374.664104 
L 431.14014 374.486547 
L 431.293952 375.027364 
L 431.447764 358.962394 
L 431.601577 361.219611 
L 431.909201 356.455358 
L 432.216826 359.140532 
L 432.370638 354.852015 
L 432.52445 357.271061 
L 432.678262 373.55563 
L 432.985887 375.280277 
L 433.139699 374.470621 
L 433.293511 359.170894 
L 433.447323 359.508178 
L 433.601136 361.286182 
L 433.754948 360.284336 
L 433.90876 360.367088 
L 434.062572 360.281483 
L 434.216385 360.962822 
L 434.370197 360.383852 
L 434.524009 374.60507 
L 434.677821 374.971864 
L 434.831633 373.821957 
L 434.985446 374.71279 
L 435.139258 360.195891 
L 435.29307 362.20089 
L 435.446882 361.542715 
L 435.600695 360.008967 
L 435.908319 361.635688 
L 436.062131 361.600017 
L 436.215944 361.069151 
L 436.369756 374.283285 
L 436.523568 374.487498 
L 436.67738 375.146581 
L 436.831192 374.952375 
L 436.985005 359.344646 
L 437.138817 359.544743 
L 437.292629 361.347118 
L 437.600254 359.956164 
L 437.754066 360.606106 
L 437.907878 361.878836 
L 438.06169 352.843497 
L 438.215503 373.443793 
L 438.523127 374.526973 
L 438.676939 373.646786 
L 438.830751 357.395417 
L 438.984564 358.548035 
L 439.138376 357.087941 
L 439.292188 356.918631 
L 439.446 358.891267 
L 439.599813 357.702169 
L 439.753625 357.856632 
L 439.907437 358.526488 
L 440.061249 373.685281 
L 440.215061 374.582245 
L 440.368874 373.121072 
L 440.522686 374.719064 
L 440.676498 359.11741 
L 440.984123 360.701193 
L 441.137935 360.575602 
L 441.291747 359.852702 
L 441.445559 357.599488 
L 441.753184 359.072528 
L 441.906996 373.782639 
L 442.060808 374.495476 
L 442.21462 374.548988 
L 442.368433 374.40591 
L 442.522245 358.284589 
L 443.137494 361.191506 
L 443.291306 361.290199 
L 443.445118 359.250808 
L 443.59893 359.022266 
L 443.752743 373.940763 
L 443.906555 374.835272 
L 444.060367 374.869935 
L 444.214179 375.442135 
L 444.367992 358.908002 
L 444.521804 361.963987 
L 444.675616 359.563664 
L 444.829428 359.912275 
L 444.983241 357.329044 
L 445.137053 359.424858 
L 445.444677 360.503779 
L 445.598489 373.341013 
L 445.752302 374.303541 
L 445.906114 374.192428 
L 446.059926 373.341481 
L 446.213738 369.668598 
L 446.521363 369.983299 
L 446.675175 370.750188 
L 446.828987 374.085346 
L 447.290424 375.035298 
L 447.444236 369.922676 
L 447.598048 309.37084 
L 447.751861 369.179974 
L 447.905673 369.649706 
L 448.059485 374.092642 
L 448.36711 374.182038 
L 448.520922 374.443794 
L 448.674734 369.197263 
L 448.828546 369.422413 
L 448.982358 370.089586 
L 449.136171 326.755352 
L 449.289983 373.507668 
L 449.443795 374.01852 
L 449.597607 374.104693 
L 449.75142 373.72836 
L 449.905232 366.245336 
L 450.059044 368.527293 
L 450.212856 369.012624 
L 450.366669 369.031091 
L 450.520481 374.434568 
L 450.674293 374.577675 
L 450.981917 374.26506 
L 451.13573 370.490007 
L 451.443354 370.865871 
L 451.597166 371.468049 
L 451.750979 374.710519 
L 452.058603 374.237864 
L 452.212415 374.814549 
L 452.366227 371.154043 
L 452.52004 371.48917 
L 452.827664 370.537146 
L 452.981476 374.767452 
L 453.135289 374.44439 
L 453.289101 374.624331 
L 453.442913 374.456158 
L 453.596725 370.730316 
L 453.750538 370.008821 
L 454.058162 370.996033 
L 454.211974 374.61299 
L 454.365786 374.330382 
L 454.519599 374.616851 
L 454.673411 374.217694 
L 454.827223 370.701658 
L 454.981035 370.565648 
L 455.28866 370.727491 
L 455.442472 373.925405 
L 455.596284 374.793825 
L 455.750096 374.782498 
L 455.903909 374.305145 
L 456.057721 371.134313 
L 456.211533 370.776859 
L 456.365345 371.277534 
L 456.519158 371.204291 
L 456.67297 374.33579 
L 456.826782 374.846074 
L 456.980594 374.948415 
L 457.134407 373.728218 
L 457.288219 369.558678 
L 457.442031 370.237916 
L 457.595843 369.595895 
L 457.749655 370.015038 
L 457.903468 374.934916 
L 458.05728 374.333221 
L 458.211092 374.487527 
L 458.364904 374.179653 
L 458.518717 370.78627 
L 458.672529 370.601006 
L 458.826341 371.774206 
L 458.980153 371.570532 
L 459.133965 374.933667 
L 459.287778 375.010032 
L 459.44159 374.79638 
L 459.595402 374.348167 
L 459.749214 370.346659 
L 459.903027 370.816064 
L 460.056839 370.104334 
L 460.210651 371.174639 
L 460.364463 374.830049 
L 460.672088 374.782157 
L 460.8259 374.904541 
L 460.979712 370.160543 
L 461.133524 370.918546 
L 461.287337 370.16923 
L 461.441149 370.626116 
L 461.594961 374.289616 
L 461.902586 374.896379 
L 462.056398 374.698014 
L 462.21021 369.459999 
L 462.364022 370.709053 
L 462.517835 370.91558 
L 462.671647 370.844906 
L 462.825459 374.054545 
L 462.979271 374.542856 
L 463.133083 374.565468 
L 463.286896 374.376499 
L 463.440708 370.569211 
L 463.748332 370.060346 
L 463.902145 371.370662 
L 464.055957 375.114942 
L 464.209769 374.330254 
L 464.363581 375.031352 
L 464.517393 374.495036 
L 464.671206 370.539247 
L 464.825018 371.30974 
L 464.97883 370.182232 
L 465.132642 370.886354 
L 465.286455 375.149576 
L 465.440267 375.471645 
L 465.594079 374.696296 
L 465.901704 375.401354 
L 466.055516 374.211122 
L 466.209328 375.203813 
L 466.36314 375.428054 
L 466.516952 374.07656 
L 466.670765 373.736039 
L 466.824577 375.011892 
L 466.978389 375.070457 
L 467.132201 374.605212 
L 467.286014 375.314542 
L 467.439826 375.027889 
L 467.593638 375.483965 
L 467.74745 375.325557 
L 468.055075 375.8577 
L 468.362699 375.664971 
L 468.516511 376.069947 
L 468.670324 375.448039 
L 469.13176 376.033596 
L 469.285573 375.177809 
L 469.439385 375.834436 
L 469.593197 375.847381 
L 469.747009 376.173708 
L 469.900821 375.060862 
L 470.054634 375.355805 
L 470.208446 376.244864 
L 470.362258 376.18238 
L 470.51607 375.826501 
L 470.669883 375.146837 
L 470.823695 375.862271 
L 470.977507 375.314386 
L 471.131319 375.668349 
L 471.285131 375.461425 
L 471.592756 376.268383 
L 471.746568 376.259413 
L 471.90038 375.68639 
L 472.054193 376.102566 
L 472.208005 376.179343 
L 472.361817 375.575376 
L 472.515629 375.899318 
L 472.669442 375.804955 
L 472.823254 376.306807 
L 472.977066 375.886685 
L 473.130878 375.808191 
L 473.438503 376.149279 
L 473.592315 375.244664 
L 473.746127 375.988614 
L 473.899939 375.820412 
L 474.053752 376.264991 
L 474.361376 376.153836 
L 474.515188 375.757517 
L 474.669 375.886401 
L 474.822813 375.646816 
L 474.976625 375.884528 
L 475.284249 374.888671 
L 475.438062 375.600089 
L 475.591874 375.583921 
L 475.745686 375.927551 
L 475.899498 375.737219 
L 476.360935 373.976646 
L 476.514747 375.100265 
L 476.668559 374.746842 
L 476.822372 374.863093 
L 476.976184 374.753684 
L 477.283808 375.145332 
L 477.437621 374.480714 
L 477.591433 375.120166 
L 477.745245 373.693825 
L 477.899057 375.489799 
L 478.05287 375.378232 
L 478.206682 375.828191 
L 478.360494 375.271207 
L 478.514306 375.623665 
L 478.668118 374.737375 
L 478.821931 375.451347 
L 479.129555 374.756494 
L 479.283367 375.076717 
L 479.43718 374.639391 
L 479.590992 374.815997 
L 479.744804 374.428606 
L 479.898616 374.644218 
L 480.206241 375.212003 
L 480.360053 375.57214 
L 480.513865 375.606504 
L 480.667677 375.942469 
L 480.82149 375.065688 
L 480.975302 373.38598 
L 481.436739 375.5162 
L 481.590551 375.357352 
L 481.744363 375.410169 
L 482.051987 375.773145 
L 482.2058 375.02461 
L 482.359612 375.502858 
L 482.513424 323.6654 
L 482.667236 375.444505 
L 482.974861 375.474767 
L 483.128673 375.298489 
L 483.282485 375.326423 
L 483.436297 375.216687 
L 483.59011 375.499465 
L 483.743922 374.974674 
L 484.051546 375.336785 
L 484.205359 374.688177 
L 484.359171 376.028642 
L 484.512983 375.986613 
L 484.97442 374.815542 
L 485.128232 374.987322 
L 485.282044 374.267501 
L 485.435856 375.370297 
L 485.589669 374.910247 
L 485.743481 375.643849 
L 485.897293 375.788319 
L 486.051105 375.514369 
L 486.204918 375.92562 
L 486.35873 375.585199 
L 486.512542 375.581806 
L 486.666354 375.299425 
L 486.820166 375.623907 
L 487.281603 375.138931 
L 487.435415 376.235297 
L 487.74304 375.136631 
L 488.204477 375.863123 
L 488.512101 375.497194 
L 488.665913 376.019529 
L 488.819725 375.280845 
L 488.973538 375.304691 
L 489.434974 376.311378 
L 489.588787 374.725437 
L 489.896411 376.021275 
L 490.050223 375.744189 
L 490.204036 376.044682 
L 490.357848 374.525539 
L 490.51166 375.790888 
L 490.819284 375.473461 
L 490.973097 375.423114 
L 491.126909 376.0197 
L 491.280721 375.015298 
L 491.434533 375.614453 
L 491.742158 375.364364 
L 491.89597 375.476882 
L 492.049782 375.395109 
L 492.203594 375.47816 
L 492.357407 376.030062 
L 492.511219 375.296217 
L 492.665031 375.565 
L 492.818843 374.209447 
L 492.972656 375.843677 
L 493.126468 375.701748 
L 493.28028 374.708972 
L 493.434092 375.326565 
L 493.587905 332.109178 
L 493.741717 329.115491 
L 493.895529 374.736168 
L 494.203153 375.629187 
L 494.356966 375.544575 
L 494.510778 375.040848 
L 494.972215 374.934931 
L 495.126027 374.91987 
L 495.279839 375.053169 
L 495.433651 375.420417 
L 495.587463 375.099627 
L 495.741276 375.47234 
L 495.895088 375.446336 
L 496.0489 375.550863 
L 496.202712 374.782328 
L 496.356525 375.221272 
L 496.971774 375.416997 
L 497.125586 374.257565 
L 497.279398 376.001787 
L 497.43321 375.839731 
L 497.587022 374.296727 
L 497.740835 375.320731 
L 497.894647 375.315351 
L 498.048459 375.022552 
L 498.202271 375.100152 
L 498.356084 374.945406 
L 498.663708 375.195296 
L 498.971332 374.779645 
L 499.125145 375.120762 
L 499.278957 374.640115 
L 499.432769 374.834038 
L 499.586581 374.833441 
L 499.894206 375.951695 
L 500.048018 375.263826 
L 500.509455 375.86863 
L 500.817079 374.679604 
L 500.970891 375.28922 
L 501.124704 375.127575 
L 501.278516 374.468904 
L 501.58614 375.910262 
L 501.739953 375.798539 
L 501.893765 375.844386 
L 502.047577 375.671472 
L 502.201389 375.982638 
L 502.355201 375.68243 
L 502.509014 374.510252 
L 502.662826 375.535774 
L 502.816638 375.053751 
L 502.97045 375.66595 
L 503.124263 375.788603 
L 503.278075 375.393718 
L 503.585699 376.098875 
L 504.047136 375.283286 
L 504.200948 375.875756 
L 504.35476 375.627611 
L 504.816197 374.02062 
L 504.970009 374.644104 
L 505.123822 374.452325 
L 505.277634 375.013836 
L 505.431446 375.036278 
L 505.585258 374.518456 
L 505.739071 374.743876 
L 505.892883 375.406464 
L 506.200507 374.912915 
L 506.354319 374.892504 
L 506.508132 375.576796 
L 506.661944 374.356812 
L 506.815756 374.995242 
L 506.969568 375.005902 
L 507.123381 375.452894 
L 507.277193 375.492084 
L 507.584817 374.088086 
L 507.738629 375.750818 
L 507.892442 375.320177 
L 508.046254 375.527698 
L 508.200066 375.034702 
L 508.507691 375.656284 
L 508.661503 375.095198 
L 508.969127 375.811583 
L 509.12294 375.504845 
L 509.276752 373.814803 
L 509.584376 375.649357 
L 509.892001 375.432738 
L 510.045813 375.49136 
L 510.199625 375.669087 
L 510.353437 375.400091 
L 510.50725 375.659563 
L 510.661062 375.267659 
L 510.814874 375.74179 
L 510.968686 375.52784 
L 511.122498 375.037002 
L 511.583935 375.600131 
L 512.045372 374.744046 
L 512.352996 375.500743 
L 512.506809 375.063247 
L 512.660621 375.039557 
L 512.968245 375.144992 
L 513.122057 374.7068 
L 513.27587 375.476329 
L 513.429682 375.183345 
L 513.583494 375.436258 
L 513.737306 375.191308 
L 513.891119 318.267898 
L 514.044931 338.025225 
L 514.198743 374.968429 
L 514.352555 375.284138 
L 514.66018 374.647766 
L 514.813992 374.386889 
L 514.967804 373.639419 
L 515.121616 374.363341 
L 515.275429 374.464816 
L 515.429241 373.944922 
L 515.736865 374.904711 
L 515.890678 374.065361 
L 516.04449 374.678695 
L 516.198302 374.601109 
L 516.505926 373.836677 
L 516.659739 374.902596 
L 516.813551 373.308266 
L 516.967363 375.141173 
L 517.121175 375.042424 
L 517.4288 374.059825 
L 517.582612 375.314358 
L 517.736424 373.896066 
L 517.890237 374.969877 
L 518.044049 375.044837 
L 518.197861 375.296913 
L 518.351673 374.96789 
L 518.505485 374.208879 
L 518.659298 374.680044 
L 518.81311 331.387228 
L 518.966922 372.786428 
L 519.120734 374.104807 
L 519.274547 374.184053 
L 519.428359 373.978478 
L 519.582171 373.40588 
L 519.735983 374.726445 
L 519.889795 374.754223 
L 520.043608 374.596397 
L 520.19742 374.688049 
L 520.351232 375.161798 
L 520.658857 373.570704 
L 520.812669 365.900628 
L 520.966481 374.614282 
L 521.120293 333.812307 
L 521.274106 331.477589 
L 521.427918 375.34066 
L 521.58173 374.999259 
L 521.735542 374.019811 
L 521.889354 374.930814 
L 522.043167 374.466988 
L 522.196979 374.576113 
L 522.350791 373.569838 
L 522.504603 375.265955 
L 522.658416 375.134247 
L 522.812228 374.804613 
L 522.96604 375.183785 
L 523.119852 374.574651 
L 523.273664 375.392753 
L 523.735101 375.213848 
L 524.196538 372.508688 
L 524.504162 374.372142 
L 524.657975 374.378827 
L 524.965599 375.078605 
L 525.119411 374.207389 
L 525.273223 374.918749 
L 525.427036 374.86464 
L 525.580848 375.351973 
L 525.73466 375.009309 
L 525.888472 373.541592 
L 526.196097 375.067633 
L 526.349909 374.519322 
L 526.503721 374.943291 
L 526.657533 374.572111 
L 526.811346 375.37738 
L 526.965158 375.479749 
L 527.11897 375.406748 
L 527.272782 374.440558 
L 527.426595 375.285543 
L 527.580407 374.563821 
L 527.888031 375.385613 
L 528.041844 375.541324 
L 528.195656 375.132387 
L 528.349468 375.186453 
L 528.50328 375.098874 
L 528.657092 375.407756 
L 528.810905 374.694181 
L 528.964717 375.012587 
L 529.272341 374.377479 
L 529.426154 375.5162 
L 529.579966 374.342461 
L 529.733778 375.307701 
L 529.88759 375.500019 
L 530.041403 375.287005 
L 530.195215 375.790576 
L 530.349027 375.400134 
L 530.502839 375.812875 
L 530.656651 374.995682 
L 530.810464 374.962524 
L 530.964276 374.540457 
L 531.118088 375.246367 
L 531.425713 374.453886 
L 531.579525 375.174374 
L 531.887149 374.069477 
L 532.040961 374.110271 
L 532.194774 375.025632 
L 532.65621 375.509415 
L 532.810023 374.560656 
L 532.963835 374.68981 
L 533.117647 374.154685 
L 533.425272 375.402362 
L 533.732896 375.205772 
L 533.886708 375.566022 
L 534.04052 375.457024 
L 534.194333 374.658838 
L 534.348145 374.903277 
L 534.501957 374.830035 
L 534.655769 374.046624 
L 534.809582 374.112244 
L 535.117206 375.058974 
L 535.271018 374.967733 
L 535.42483 375.206793 
L 535.578643 374.187048 
L 535.732455 375.092104 
L 535.886267 374.194869 
L 536.193892 375.348154 
L 536.347704 375.188483 
L 536.501516 374.317806 
L 536.809141 374.98109 
L 536.962953 375.342335 
L 537.116765 375.22878 
L 537.270577 375.860738 
L 537.424389 375.210768 
L 537.578202 375.634453 
L 537.732014 325.42576 
L 537.885826 374.496327 
L 538.039638 374.381751 
L 538.193451 373.768984 
L 538.347263 373.631995 
L 538.654887 374.604743 
L 538.808699 374.58974 
L 538.962512 374.253846 
L 539.116324 374.574694 
L 539.423948 373.993793 
L 539.577761 374.044907 
L 539.731573 374.347131 
L 540.346822 372.53103 
L 540.500634 373.883944 
L 540.808258 374.097993 
L 540.962071 322.609189 
L 541.115883 374.207162 
L 541.423507 374.007164 
L 541.57732 373.828884 
L 541.731132 374.421637 
L 541.884944 374.177495 
L 542.038756 374.480103 
L 542.192568 374.398075 
L 542.346381 373.621506 
L 542.500193 335.046258 
L 542.654005 374.546532 
L 542.807817 374.323398 
L 542.96163 374.769865 
L 543.115442 374.831028 
L 543.269254 374.213379 
L 543.423066 374.983887 
L 543.730691 373.961601 
L 543.884503 373.850204 
L 544.038315 372.621207 
L 544.34594 374.015823 
L 544.499752 373.879827 
L 544.653564 374.065545 
L 544.807376 373.969507 
L 544.961189 373.040222 
L 545.422625 373.339451 
L 545.576438 372.259934 
L 545.73025 373.621208 
L 545.884062 373.246748 
L 546.037874 373.908656 
L 546.191686 325.775237 
L 546.345499 373.476852 
L 546.499311 374.482701 
L 546.653123 374.401467 
L 546.960748 373.53079 
L 547.11456 374.386748 
L 547.268372 373.192256 
L 547.422184 373.699134 
L 547.729809 373.664486 
L 547.883621 373.619646 
L 548.037433 373.799204 
L 548.191245 373.772774 
L 548.345058 372.58582 
L 548.49887 373.981032 
L 548.652682 372.365922 
L 548.806494 373.994247 
L 549.114119 374.036532 
L 549.421743 374.257423 
L 549.575555 373.590122 
L 549.729368 373.435121 
L 549.88318 374.04292 
L 550.036992 374.068881 
L 550.190804 374.35596 
L 550.344617 373.807891 
L 550.498429 373.995113 
L 550.806053 374.628476 
L 550.959865 373.979911 
L 551.26749 374.494439 
L 551.421302 374.433291 
L 551.575114 373.18912 
L 551.728927 374.219638 
L 551.882739 374.072472 
L 552.036551 374.428166 
L 552.6518 372.266463 
L 552.805612 373.073734 
L 553.113237 372.764682 
L 553.267049 373.359153 
L 553.420861 372.813113 
L 553.574673 373.011847 
L 553.882298 372.229828 
L 554.03611 372.572364 
L 554.189922 371.440725 
L 554.497547 372.555728 
L 554.651359 372.465183 
L 554.805171 371.964821 
L 554.958983 372.103229 
L 555.112796 371.715966 
L 555.42042 372.500385 
L 555.574232 372.806555 
L 555.728045 372.587793 
L 555.881857 322.616258 
L 556.035669 372.340685 
L 556.189481 372.588262 
L 556.343293 373.15088 
L 556.497106 373.222874 
L 556.650918 373.016503 
L 556.80473 373.447597 
L 556.958542 373.335193 
L 557.266167 373.691327 
L 557.419979 372.830302 
L 557.573791 373.438939 
L 557.727604 373.532195 
L 557.881416 372.966255 
L 558.035228 373.084593 
L 558.18904 373.057936 
L 558.342852 372.66677 
L 558.496665 373.026964 
L 558.650477 372.30104 
L 558.804289 373.113862 
L 558.958101 373.006425 
L 559.111914 372.475701 
L 559.265726 372.774632 
L 559.419538 372.602569 
L 559.57335 373.444049 
L 559.880975 373.094557 
L 560.034787 373.574508 
L 560.342411 372.684598 
L 560.650036 374.196104 
L 560.803848 374.459394 
L 560.95766 373.740908 
L 561.111473 374.621507 
L 561.726721 374.395363 
L 561.880534 373.682811 
L 562.034346 373.922964 
L 562.188158 373.360175 
L 562.34197 373.8818 
L 562.495783 373.83371 
L 562.803407 374.4008 
L 562.957219 374.53989 
L 563.111031 373.884838 
L 563.264844 374.172953 
L 563.418656 374.016845 
L 563.572468 374.273207 
L 563.72628 372.890358 
L 563.880093 373.877585 
L 564.033905 374.140746 
L 564.187717 374.037937 
L 564.341529 373.524686 
L 564.495342 374.262988 
L 564.649154 374.309488 
L 564.802966 373.816649 
L 564.956778 373.773839 
L 565.11059 374.056844 
L 565.264403 373.859288 
L 565.418215 374.056958 
L 565.572027 373.72836 
L 565.725839 373.739886 
L 565.879652 374.192371 
L 566.033464 374.214869 
L 566.187276 373.768984 
L 566.341088 373.91828 
L 566.4949 374.480998 
L 566.802525 373.905207 
L 567.110149 374.5737 
L 567.263962 373.828047 
L 567.417774 374.629739 
L 567.571586 374.139554 
L 567.725398 374.40459 
L 567.879211 374.38415 
L 568.033023 374.556355 
L 568.186835 373.845051 
L 568.494459 374.514198 
L 568.648272 374.896762 
L 568.802084 374.729781 
L 568.955896 374.372496 
L 569.109708 373.72951 
L 569.263521 374.28682 
L 569.417333 374.05683 
L 569.571145 374.088213 
L 569.724957 374.36601 
L 569.87877 374.392156 
L 570.032582 374.255692 
L 570.186394 373.520726 
L 570.340206 374.160193 
L 570.494018 334.358871 
L 570.647831 373.976788 
L 570.801643 373.513331 
L 570.955455 374.314314 
L 571.109267 374.306976 
L 571.26308 374.012288 
L 571.570704 374.215834 
L 571.878328 372.903062 
L 572.032141 374.032827 
L 572.185953 373.428478 
L 572.339765 374.190696 
L 572.493577 327.428501 
L 572.64739 374.307771 
L 572.801202 373.857528 
L 572.955014 374.106922 
L 573.108826 374.013665 
L 573.416451 374.451303 
L 573.570263 374.065219 
L 573.724075 373.993694 
L 573.877887 373.083656 
L 574.0317 373.920976 
L 574.339324 373.430295 
L 574.493136 372.239409 
L 574.800761 372.416781 
L 574.954573 371.326078 
L 575.108385 372.295618 
L 575.41601 371.246817 
L 575.569822 371.704384 
L 575.723634 372.635259 
L 576.031259 373.299963 
L 576.338883 372.488873 
L 576.492695 372.989804 
L 576.646508 372.676848 
L 576.954132 373.182179 
L 577.107944 373.087332 
L 577.261756 373.635856 
L 577.415569 373.264676 
L 577.569381 373.614948 
L 577.723193 373.587596 
L 577.877005 373.200787 
L 578.030818 373.791241 
L 578.18463 373.767849 
L 578.338442 373.004182 
L 578.492254 373.603919 
L 578.646066 373.320459 
L 578.799879 372.801346 
L 578.953691 373.032003 
L 579.261315 371.629112 
L 579.415128 371.893409 
L 579.56894 370.821315 
L 579.722752 372.200871 
L 579.876564 371.836206 
L 580.184189 370.588657 
L 580.338001 372.206989 
L 580.491813 371.677188 
L 580.645625 371.652405 
L 580.799438 371.489014 
L 581.107062 372.001825 
L 581.260874 371.439746 
L 581.568499 371.688486 
L 581.722311 371.23136 
L 581.876123 330.186591 
L 582.029935 371.482031 
L 582.183748 371.755199 
L 582.645184 371.3049 
L 582.952809 372.082037 
L 583.106621 371.797711 
L 583.260433 372.084734 
L 583.414246 371.789805 
L 583.568058 371.01836 
L 583.72187 372.00245 
L 583.875682 372.258372 
L 584.029494 371.812615 
L 584.337119 371.982847 
L 584.490931 371.158983 
L 584.952368 371.350364 
L 585.10618 372.626033 
L 585.259992 372.535203 
L 585.567617 371.686996 
L 585.875241 371.894431 
L 586.029053 372.710914 
L 586.182866 371.422003 
L 586.336678 372.674719 
L 586.49049 372.039071 
L 586.644302 372.652718 
L 586.798115 372.803575 
L 586.951927 372.133605 
L 587.105739 372.626473 
L 587.259551 372.285796 
L 587.413363 372.384574 
L 587.567176 372.719672 
L 587.720988 372.748075 
L 588.028612 373.3275 
L 588.182425 373.382034 
L 588.490049 372.326477 
L 588.643861 372.402728 
L 588.797674 372.329344 
L 588.951486 371.927064 
L 589.25911 372.537333 
L 589.566735 372.653314 
L 589.720547 372.99551 
L 590.181984 372.034557 
L 590.489608 372.613641 
L 591.104857 372.996532 
L 591.258669 373.17237 
L 591.412481 372.864482 
L 591.566294 373.158872 
L 591.720106 326.804535 
L 591.873918 372.010413 
L 592.02773 372.632874 
L 592.489167 371.720665 
L 592.642979 372.719005 
L 592.796791 372.253745 
L 592.950604 372.619517 
L 593.104416 372.577062 
L 593.258228 372.416369 
L 593.41204 372.553642 
L 593.565853 372.220076 
L 593.719665 372.54866 
L 594.027289 371.903927 
L 594.181101 372.380727 
L 594.334914 372.160716 
L 594.488726 372.729083 
L 594.642538 371.744795 
L 594.79635 371.55516 
L 595.103975 372.55587 
L 595.257787 372.676124 
L 595.411599 372.553088 
L 595.565412 372.196911 
L 595.719224 373.431458 
L 595.873036 373.037411 
L 596.026848 373.083386 
L 596.18066 373.429855 
L 596.334473 373.055268 
L 596.488285 373.312482 
L 596.642097 371.998461 
L 596.795909 373.018817 
L 596.949722 372.922026 
L 597.257346 371.988411 
L 597.411158 373.022195 
L 597.564971 372.30395 
L 597.718783 373.096729 
L 597.872595 372.964027 
L 598.026407 371.004223 
L 598.180219 371.127032 
L 598.334032 370.319179 
L 598.487844 370.437729 
L 598.795468 371.345027 
L 598.949281 369.770854 
L 599.103093 370.265269 
L 599.410717 370.013846 
L 599.564529 367.964135 
L 599.718342 368.5285 
L 599.872154 368.616788 
L 600.025966 369.499402 
L 600.179778 368.666212 
L 600.333591 369.123382 
L 600.795027 368.05962 
L 600.94884 369.360142 
L 601.102652 369.207994 
L 601.410276 369.409141 
L 601.564088 367.795961 
L 601.717901 369.04845 
L 601.871713 369.232678 
L 602.025525 368.630116 
L 602.179337 368.813677 
L 602.33315 368.411936 
L 602.486962 369.572773 
L 602.640774 368.417642 
L 602.794586 369.455414 
L 602.948398 369.614958 
L 603.102211 367.071244 
L 603.409835 368.381149 
L 603.563647 368.474874 
L 603.71746 368.997038 
L 603.871272 369.069869 
L 604.178896 367.635254 
L 604.332709 369.346076 
L 604.486521 368.757311 
L 604.640333 367.247125 
L 604.794145 366.979279 
L 605.10177 368.574319 
L 605.255582 368.432106 
L 605.409394 368.75081 
L 605.563206 368.689491 
L 605.870831 369.306076 
L 606.024643 367.963156 
L 606.178455 369.025895 
L 606.332267 368.933902 
L 606.48608 368.707064 
L 606.639892 307.106583 
L 606.793704 368.862917 
L 606.947516 368.028449 
L 607.255141 369.05647 
L 607.408953 368.617157 
L 607.562765 370.396452 
L 607.716578 370.495259 
L 607.87039 370.424301 
L 608.178014 368.093672 
L 608.331826 369.2514 
L 608.485639 368.616504 
L 608.639451 369.0606 
L 608.793263 368.942632 
L 608.947075 369.571623 
L 609.100888 369.227241 
L 609.2547 369.450546 
L 609.408512 369.467408 
L 609.562324 368.779298 
L 609.716137 370.31458 
L 609.869949 369.003866 
L 610.177573 369.98303 
L 610.331385 370.254737 
L 610.485198 370.77693 
L 610.63901 370.736065 
L 610.792822 370.420795 
L 611.100447 371.067231 
L 611.254259 370.170834 
L 611.408071 370.272607 
L 611.561883 370.608884 
L 611.715695 370.09261 
L 611.869508 370.411711 
L 612.02332 368.634318 
L 612.177132 369.982348 
L 612.330944 368.796104 
L 612.484757 368.923115 
L 612.638569 367.731193 
L 612.792381 368.64089 
L 613.100006 366.382027 
L 613.253818 366.991515 
L 613.40763 366.980585 
L 613.561442 368.237914 
L 613.715254 368.16964 
L 613.869067 368.810142 
L 614.176691 368.193628 
L 614.484316 370.647748 
L 614.638128 370.979184 
L 614.945752 371.228762 
L 615.099564 370.966154 
L 615.253377 371.171971 
L 615.407189 371.628927 
L 615.714813 370.382301 
L 615.868626 370.874615 
L 616.022438 371.967745 
L 616.17625 371.764156 
L 616.330062 371.187329 
L 616.483875 371.747024 
L 617.099123 369.429737 
L 617.252936 370.34998 
L 617.406748 370.114753 
L 617.56056 370.341889 
L 617.714372 369.834387 
L 617.868185 370.785588 
L 618.021997 370.231898 
L 618.175809 370.616265 
L 618.483433 369.925515 
L 618.637246 369.908226 
L 618.94487 370.758903 
L 619.098682 369.725531 
L 619.252495 369.938602 
L 619.406307 369.95166 
L 619.560119 370.115604 
L 619.713931 369.685645 
L 619.867744 369.988864 
L 620.021556 369.646356 
L 620.175368 370.021809 
L 620.32918 369.532347 
L 620.482992 369.811435 
L 620.636805 370.640537 
L 620.790617 369.71534 
L 620.944429 371.35881 
L 621.098241 370.269059 
L 621.252054 370.107528 
L 621.405866 370.729833 
L 621.559678 370.586911 
L 621.71349 369.701997 
L 622.021115 370.745135 
L 622.174927 371.205753 
L 622.482551 369.339603 
L 622.636364 369.963356 
L 622.636364 369.963356 
" clip-path="url(#p4975aba08d)" style="fill: none; stroke: #1f77b4; stroke-width: 1.5; stroke-linecap: square"/>
   </g>
   <g id="patch_3">
    <path d="M 90 384.48 
L 90 51.84 
" style="fill: none; stroke: #000000; stroke-width: 0.8; stroke-linejoin: miter; stroke-linecap: square"/>
   </g>
   <g id="patch_4">
    <path d="M 648 384.48 
L 648 51.84 
" style="fill: none; stroke: #000000; stroke-width: 0.8; stroke-linejoin: miter; stroke-linecap: square"/>
   </g>
   <g id="patch_5">
    <path d="M 90 384.48 
L 648 384.48 
" style="fill: none; stroke: #000000; stroke-width: 0.8; stroke-linejoin: miter; stroke-linecap: square"/>
   </g>
   <g id="patch_6">
    <path d="M 90 51.84 
L 648 51.84 
" style="fill: none; stroke: #000000; stroke-width: 0.8; stroke-linejoin: miter; stroke-linecap: square"/>
   </g>
   <g id="text_16">
    <!-- Average time per index -->
    <g transform="translate(298.700625 45.84) scale(0.12 -0.12)">
     <defs>
      <path id="DejaVuSans-70" d="M 1159 525 
L 1159 -1331 
L 581 -1331 
L 581 3500 
L 1159 3500 
L 1159 2969 
Q 1341 3281 1617 3432 
Q 1894 3584 2278 3584 
Q 2916 3584 3314 3078 
Q 3713 2572 3713 1747 
Q 3713 922 3314 415 
Q 2916 -91 2278 -91 
Q 1894 -91 1617 61 
Q 1341 213 1159 525 
z
M 3116 1747 
Q 3116 2381 2855 2742 
Q 2594 3103 2138 3103 
Q 1681 3103 1420 2742 
Q 1159 2381 1159 1747 
Q 1159 1113 1420 752 
Q 1681 391 2138 391 
Q 2594 391 2855 752 
Q 3116 1113 3116 1747 
z
" transform="scale(0.015625)"/>
     </defs>
     <use xlink:href="#DejaVuSans-41"/>
     <use xlink:href="#DejaVuSans-76" transform="translate(62.533203 0)"/>
     <use xlink:href="#DejaVuSans-65" transform="translate(121.712891 0)"/>
     <use xlink:href="#DejaVuSans-72" transform="translate(183.236328 0)"/>
     <use xlink:href="#DejaVuSans-61" transform="translate(224.349609 0)"/>
     <use xlink:href="#DejaVuSans-67" transform="translate(285.628906 0)"/>
     <use xlink:href="#DejaVuSans-65" transform="translate(349.105469 0)"/>
     <use xlink:href="#DejaVuSans-20" transform="translate(410.628906 0)"/>
     <use xlink:href="#DejaVuSans-74" transform="translate(442.416016 0)"/>
     <use xlink:href="#DejaVuSans-69" transform="translate(481.625 0)"/>
     <use xlink:href="#DejaVuSans-6d" transform="translate(509.408203 0)"/>
     <use xlink:href="#DejaVuSans-65" transform="translate(606.820312 0)"/>
     <use xlink:href="#DejaVuSans-20" transform="translate(668.34375 0)"/>
     <use xlink:href="#DejaVuSans-70" transform="translate(700.130859 0)"/>
     <use xlink:href="#DejaVuSans-65" transform="translate(763.607422 0)"/>
     <use xlink:href="#DejaVuSans-72" transform="translate(825.130859 0)"/>
     <use xlink:href="#DejaVuSans-20" transform="translate(866.244141 0)"/>
     <use xlink:href="#DejaVuSans-69" transform="translate(898.03125 0)"/>
     <use xlink:href="#DejaVuSans-6e" transform="translate(925.814453 0)"/>
     <use xlink:href="#DejaVuSans-64" transform="translate(989.193359 0)"/>
     <use xlink:href="#DejaVuSans-65" transform="translate(1052.669922 0)"/>
     <use xlink:href="#DejaVuSans-78" transform="translate(1112.443359 0)"/>
    </g>
   </g>
   <g id="legend_1">
    <g id="patch_7">
     <path d="M 489.965625 74.518125 
L 641 74.518125 
Q 643 74.518125 643 72.518125 
L 643 58.84 
Q 643 56.84 641 56.84 
L 489.965625 56.84 
Q 487.965625 56.84 487.965625 58.84 
L 487.965625 72.518125 
Q 487.965625 74.518125 489.965625 74.518125 
z
" style="fill: #ffffff; opacity: 0.8; stroke: #cccccc; stroke-linejoin: miter"/>
    </g>
    <g id="line2d_15">
     <path d="M 491.965625 64.938438 
L 501.965625 64.938438 
L 511.965625 64.938438 
" style="fill: none; stroke: #1f77b4; stroke-width: 1.5; stroke-linecap: square"/>
    </g>
    <g id="text_17">
     <!-- getExpectedBehaviours -->
     <g transform="translate(519.965625 68.438438) scale(0.1 -0.1)">
      <defs>
       <path id="DejaVuSans-45" d="M 628 4666 
L 3578 4666 
L 3578 4134 
L 1259 4134 
L 1259 2753 
L 3481 2753 
L 3481 2222 
L 1259 2222 
L 1259 531 
L 3634 531 
L 3634 0 
L 628 0 
L 628 4666 
z
" transform="scale(0.015625)"/>
       <path id="DejaVuSans-63" d="M 3122 3366 
L 3122 2828 
Q 2878 2963 2633 3030 
Q 2388 3097 2138 3097 
Q 1578 3097 1268 2742 
Q 959 2388 959 1747 
Q 959 1106 1268 751 
Q 1578 397 2138 397 
Q 2388 397 2633 464 
Q 2878 531 3122 666 
L 3122 134 
Q 2881 22 2623 -34 
Q 2366 -91 2075 -91 
Q 1284 -91 818 406 
Q 353 903 353 1747 
Q 353 2603 823 3093 
Q 1294 3584 2113 3584 
Q 2378 3584 2631 3529 
Q 2884 3475 3122 3366 
z
" transform="scale(0.015625)"/>
       <path id="DejaVuSans-42" d="M 1259 2228 
L 1259 519 
L 2272 519 
Q 2781 519 3026 730 
Q 3272 941 3272 1375 
Q 3272 1813 3026 2020 
Q 2781 2228 2272 2228 
L 1259 2228 
z
M 1259 4147 
L 1259 2741 
L 2194 2741 
Q 2656 2741 2882 2914 
Q 3109 3088 3109 3444 
Q 3109 3797 2882 3972 
Q 2656 4147 2194 4147 
L 1259 4147 
z
M 628 4666 
L 2241 4666 
Q 2963 4666 3353 4366 
Q 3744 4066 3744 3513 
Q 3744 3084 3544 2831 
Q 3344 2578 2956 2516 
Q 3422 2416 3680 2098 
Q 3938 1781 3938 1306 
Q 3938 681 3513 340 
Q 3088 0 2303 0 
L 628 0 
L 628 4666 
z
" transform="scale(0.015625)"/>
       <path id="DejaVuSans-68" d="M 3513 2113 
L 3513 0 
L 2938 0 
L 2938 2094 
Q 2938 2591 2744 2837 
Q 2550 3084 2163 3084 
Q 1697 3084 1428 2787 
Q 1159 2491 1159 1978 
L 1159 0 
L 581 0 
L 581 4863 
L 1159 4863 
L 1159 2956 
Q 1366 3272 1645 3428 
Q 1925 3584 2291 3584 
Q 2894 3584 3203 3211 
Q 3513 2838 3513 2113 
z
" transform="scale(0.015625)"/>
       <path id="DejaVuSans-6f" d="M 1959 3097 
Q 1497 3097 1228 2736 
Q 959 2375 959 1747 
Q 959 1119 1226 758 
Q 1494 397 1959 397 
Q 2419 397 2687 759 
Q 2956 1122 2956 1747 
Q 2956 2369 2687 2733 
Q 2419 3097 1959 3097 
z
M 1959 3584 
Q 2709 3584 3137 3096 
Q 3566 2609 3566 1747 
Q 3566 888 3137 398 
Q 2709 -91 1959 -91 
Q 1206 -91 779 398 
Q 353 888 353 1747 
Q 353 2609 779 3096 
Q 1206 3584 1959 3584 
z
" transform="scale(0.015625)"/>
       <path id="DejaVuSans-75" d="M 544 1381 
L 544 3500 
L 1119 3500 
L 1119 1403 
Q 1119 906 1312 657 
Q 1506 409 1894 409 
Q 2359 409 2629 706 
Q 2900 1003 2900 1516 
L 2900 3500 
L 3475 3500 
L 3475 0 
L 2900 0 
L 2900 538 
Q 2691 219 2414 64 
Q 2138 -91 1772 -91 
Q 1169 -91 856 284 
Q 544 659 544 1381 
z
M 1991 3584 
L 1991 3584 
z
" transform="scale(0.015625)"/>
      </defs>
      <use xlink:href="#DejaVuSans-67"/>
      <use xlink:href="#DejaVuSans-65" transform="translate(63.476562 0)"/>
      <use xlink:href="#DejaVuSans-74" transform="translate(125 0)"/>
      <use xlink:href="#DejaVuSans-45" transform="translate(164.208984 0)"/>
      <use xlink:href="#DejaVuSans-78" transform="translate(227.392578 0)"/>
      <use xlink:href="#DejaVuSans-70" transform="translate(286.572266 0)"/>
      <use xlink:href="#DejaVuSans-65" transform="translate(350.048828 0)"/>
      <use xlink:href="#DejaVuSans-63" transform="translate(411.572266 0)"/>
      <use xlink:href="#DejaVuSans-74" transform="translate(466.552734 0)"/>
      <use xlink:href="#DejaVuSans-65" transform="translate(505.761719 0)"/>
      <use xlink:href="#DejaVuSans-64" transform="translate(567.285156 0)"/>
      <use xlink:href="#DejaVuSans-42" transform="translate(630.761719 0)"/>
      <use xlink:href="#DejaVuSans-65" transform="translate(699.365234 0)"/>
      <use xlink:href="#DejaVuSans-68" transform="translate(760.888672 0)"/>
      <use xlink:href="#DejaVuSans-61" transform="translate(824.267578 0)"/>
      <use xlink:href="#DejaVuSans-76" transform="translate(885.546875 0)"/>
      <use xlink:href="#DejaVuSans-69" transform="translate(944.726562 0)"/>
      <use xlink:href="#DejaVuSans-6f" transform="translate(972.509766 0)"/>
      <use xlink:href="#DejaVuSans-75" transform="translate(1033.691406 0)"/>
      <use xlink:href="#DejaVuSans-72" transform="translate(1097.070312 0)"/>
      <use xlink:href="#DejaVuSans-73" transform="translate(1138.183594 0)"/>
     </g>
    </g>
   </g>
  </g>
 </g>
 <defs>
  <clipPath id="p4975aba08d">
   <rect x="90" y="51.84" width="558" height="332.64"/>
  </clipPath>
 </defs>
</svg>
