<?xml version="1.0" encoding="utf-8" standalone="no"?>
<!DOCTYPE svg PUBLIC "-//W3C//DTD SVG 1.1//EN"
  "http://www.w3.org/Graphics/SVG/1.1/DTD/svg11.dtd">
<svg xmlns:xlink="http://www.w3.org/1999/xlink" width="720pt" height="432pt" viewBox="0 0 720 432" xmlns="http://www.w3.org/2000/svg" version="1.1">
 <metadata>
  <rdf:RDF xmlns:dc="http://purl.org/dc/elements/1.1/" xmlns:cc="http://creativecommons.org/ns#" xmlns:rdf="http://www.w3.org/1999/02/22-rdf-syntax-ns#">
   <cc:Work>
    <dc:type rdf:resource="http://purl.org/dc/dcmitype/StillImage"/>
    <dc:date>2025-09-30T20:43:10.238491</dc:date>
    <dc:format>image/svg+xml</dc:format>
    <dc:creator>
     <cc:Agent>
      <dc:title>Matplotlib v3.10.3, https://matplotlib.org/</dc:title>
     </cc:Agent>
    </dc:creator>
   </cc:Work>
  </rdf:RDF>
 </metadata>
 <defs>
  <style type="text/css">*{stroke-linejoin: round; stroke-linecap: butt}</style>
 </defs>
 <g id="figure_1">
  <g id="patch_1">
   <path d="M 0 432 
L 720 432 
L 720 0 
L 0 0 
z
" style="fill: #ffffff"/>
  </g>
  <g id="axes_1">
   <g id="patch_2">
    <path d="M 90 384.48 
L 648 384.48 
L 648 51.84 
L 90 51.84 
z
" style="fill: #ffffff"/>
   </g>
   <g id="matplotlib.axis_1">
    <g id="xtick_1">
     <g id="line2d_1">
      <defs>
       <path id="m766141081e" d="M 0 0 
L 0 3.5 
" style="stroke: #000000; stroke-width: 0.8"/>
      </defs>
      <g>
       <use xlink:href="#m766141081e" x="115.363636" y="384.48" style="stroke: #000000; stroke-width: 0.8"/>
      </g>
     </g>
     <g id="text_1">
      <!-- 0 -->
      <g transform="translate(112.182386 399.078438) scale(0.1 -0.1)">
       <defs>
        <path id="DejaVuSans-30" d="M 2034 4250 
Q 1547 4250 1301 3770 
Q 1056 3291 1056 2328 
Q 1056 1369 1301 889 
Q 1547 409 2034 409 
Q 2525 409 2770 889 
Q 3016 1369 3016 2328 
Q 3016 3291 2770 3770 
Q 2525 4250 2034 4250 
z
M 2034 4750 
Q 2819 4750 3233 4129 
Q 3647 3509 3647 2328 
Q 3647 1150 3233 529 
Q 2819 -91 2034 -91 
Q 1250 -91 836 529 
Q 422 1150 422 2328 
Q 422 3509 836 4129 
Q 1250 4750 2034 4750 
z
" transform="scale(0.015625)"/>
       </defs>
       <use xlink:href="#DejaVuSans-30"/>
      </g>
     </g>
    </g>
    <g id="xtick_2">
     <g id="line2d_2">
      <g>
       <use xlink:href="#m766141081e" x="207.931652" y="384.48" style="stroke: #000000; stroke-width: 0.8"/>
      </g>
     </g>
     <g id="text_2">
      <!-- 100 -->
      <g transform="translate(198.387902 399.078438) scale(0.1 -0.1)">
       <defs>
        <path id="DejaVuSans-31" d="M 794 531 
L 1825 531 
L 1825 4091 
L 703 3866 
L 703 4441 
L 1819 4666 
L 2450 4666 
L 2450 531 
L 3481 531 
L 3481 0 
L 794 0 
L 794 531 
z
" transform="scale(0.015625)"/>
       </defs>
       <use xlink:href="#DejaVuSans-31"/>
       <use xlink:href="#DejaVuSans-30" transform="translate(63.623047 0)"/>
       <use xlink:href="#DejaVuSans-30" transform="translate(127.246094 0)"/>
      </g>
     </g>
    </g>
    <g id="xtick_3">
     <g id="line2d_3">
      <g>
       <use xlink:href="#m766141081e" x="300.499668" y="384.48" style="stroke: #000000; stroke-width: 0.8"/>
      </g>
     </g>
     <g id="text_3">
      <!-- 200 -->
      <g transform="translate(290.955918 399.078438) scale(0.1 -0.1)">
       <defs>
        <path id="DejaVuSans-32" d="M 1228 531 
L 3431 531 
L 3431 0 
L 469 0 
L 469 531 
Q 828 903 1448 1529 
Q 2069 2156 2228 2338 
Q 2531 2678 2651 2914 
Q 2772 3150 2772 3378 
Q 2772 3750 2511 3984 
Q 2250 4219 1831 4219 
Q 1534 4219 1204 4116 
Q 875 4013 500 3803 
L 500 4441 
Q 881 4594 1212 4672 
Q 1544 4750 1819 4750 
Q 2544 4750 2975 4387 
Q 3406 4025 3406 3419 
Q 3406 3131 3298 2873 
Q 3191 2616 2906 2266 
Q 2828 2175 2409 1742 
Q 1991 1309 1228 531 
z
" transform="scale(0.015625)"/>
       </defs>
       <use xlink:href="#DejaVuSans-32"/>
       <use xlink:href="#DejaVuSans-30" transform="translate(63.623047 0)"/>
       <use xlink:href="#DejaVuSans-30" transform="translate(127.246094 0)"/>
      </g>
     </g>
    </g>
    <g id="xtick_4">
     <g id="line2d_4">
      <g>
       <use xlink:href="#m766141081e" x="393.067684" y="384.48" style="stroke: #000000; stroke-width: 0.8"/>
      </g>
     </g>
     <g id="text_4">
      <!-- 300 -->
      <g transform="translate(383.523934 399.078438) scale(0.1 -0.1)">
       <defs>
        <path id="DejaVuSans-33" d="M 2597 2516 
Q 3050 2419 3304 2112 
Q 3559 1806 3559 1356 
Q 3559 666 3084 287 
Q 2609 -91 1734 -91 
Q 1441 -91 1130 -33 
Q 819 25 488 141 
L 488 750 
Q 750 597 1062 519 
Q 1375 441 1716 441 
Q 2309 441 2620 675 
Q 2931 909 2931 1356 
Q 2931 1769 2642 2001 
Q 2353 2234 1838 2234 
L 1294 2234 
L 1294 2753 
L 1863 2753 
Q 2328 2753 2575 2939 
Q 2822 3125 2822 3475 
Q 2822 3834 2567 4026 
Q 2313 4219 1838 4219 
Q 1578 4219 1281 4162 
Q 984 4106 628 3988 
L 628 4550 
Q 988 4650 1302 4700 
Q 1616 4750 1894 4750 
Q 2613 4750 3031 4423 
Q 3450 4097 3450 3541 
Q 3450 3153 3228 2886 
Q 3006 2619 2597 2516 
z
" transform="scale(0.015625)"/>
       </defs>
       <use xlink:href="#DejaVuSans-33"/>
       <use xlink:href="#DejaVuSans-30" transform="translate(63.623047 0)"/>
       <use xlink:href="#DejaVuSans-30" transform="translate(127.246094 0)"/>
      </g>
     </g>
    </g>
    <g id="xtick_5">
     <g id="line2d_5">
      <g>
       <use xlink:href="#m766141081e" x="485.6357" y="384.48" style="stroke: #000000; stroke-width: 0.8"/>
      </g>
     </g>
     <g id="text_5">
      <!-- 400 -->
      <g transform="translate(476.09195 399.078438) scale(0.1 -0.1)">
       <defs>
        <path id="DejaVuSans-34" d="M 2419 4116 
L 825 1625 
L 2419 1625 
L 2419 4116 
z
M 2253 4666 
L 3047 4666 
L 3047 1625 
L 3713 1625 
L 3713 1100 
L 3047 1100 
L 3047 0 
L 2419 0 
L 2419 1100 
L 313 1100 
L 313 1709 
L 2253 4666 
z
" transform="scale(0.015625)"/>
       </defs>
       <use xlink:href="#DejaVuSans-34"/>
       <use xlink:href="#DejaVuSans-30" transform="translate(63.623047 0)"/>
       <use xlink:href="#DejaVuSans-30" transform="translate(127.246094 0)"/>
      </g>
     </g>
    </g>
    <g id="xtick_6">
     <g id="line2d_6">
      <g>
       <use xlink:href="#m766141081e" x="578.203716" y="384.48" style="stroke: #000000; stroke-width: 0.8"/>
      </g>
     </g>
     <g id="text_6">
      <!-- 500 -->
      <g transform="translate(568.659966 399.078438) scale(0.1 -0.1)">
       <defs>
        <path id="DejaVuSans-35" d="M 691 4666 
L 3169 4666 
L 3169 4134 
L 1269 4134 
L 1269 2991 
Q 1406 3038 1543 3061 
Q 1681 3084 1819 3084 
Q 2600 3084 3056 2656 
Q 3513 2228 3513 1497 
Q 3513 744 3044 326 
Q 2575 -91 1722 -91 
Q 1428 -91 1123 -41 
Q 819 9 494 109 
L 494 744 
Q 775 591 1075 516 
Q 1375 441 1709 441 
Q 2250 441 2565 725 
Q 2881 1009 2881 1497 
Q 2881 1984 2565 2268 
Q 2250 2553 1709 2553 
Q 1456 2553 1204 2497 
Q 953 2441 691 2322 
L 691 4666 
z
" transform="scale(0.015625)"/>
       </defs>
       <use xlink:href="#DejaVuSans-35"/>
       <use xlink:href="#DejaVuSans-30" transform="translate(63.623047 0)"/>
       <use xlink:href="#DejaVuSans-30" transform="translate(127.246094 0)"/>
      </g>
     </g>
    </g>
    <g id="text_7">
     <!-- Index -->
     <g transform="translate(355.233594 412.756563) scale(0.1 -0.1)">
      <defs>
       <path id="DejaVuSans-49" d="M 628 4666 
L 1259 4666 
L 1259 0 
L 628 0 
L 628 4666 
z
" transform="scale(0.015625)"/>
       <path id="DejaVuSans-6e" d="M 3513 2113 
L 3513 0 
L 2938 0 
L 2938 2094 
Q 2938 2591 2744 2837 
Q 2550 3084 2163 3084 
Q 1697 3084 1428 2787 
Q 1159 2491 1159 1978 
L 1159 0 
L 581 0 
L 581 3500 
L 1159 3500 
L 1159 2956 
Q 1366 3272 1645 3428 
Q 1925 3584 2291 3584 
Q 2894 3584 3203 3211 
Q 3513 2838 3513 2113 
z
" transform="scale(0.015625)"/>
       <path id="DejaVuSans-64" d="M 2906 2969 
L 2906 4863 
L 3481 4863 
L 3481 0 
L 2906 0 
L 2906 525 
Q 2725 213 2448 61 
Q 2172 -91 1784 -91 
Q 1150 -91 751 415 
Q 353 922 353 1747 
Q 353 2572 751 3078 
Q 1150 3584 1784 3584 
Q 2172 3584 2448 3432 
Q 2725 3281 2906 2969 
z
M 947 1747 
Q 947 1113 1208 752 
Q 1469 391 1925 391 
Q 2381 391 2643 752 
Q 2906 1113 2906 1747 
Q 2906 2381 2643 2742 
Q 2381 3103 1925 3103 
Q 1469 3103 1208 2742 
Q 947 2381 947 1747 
z
" transform="scale(0.015625)"/>
       <path id="DejaVuSans-65" d="M 3597 1894 
L 3597 1613 
L 953 1613 
Q 991 1019 1311 708 
Q 1631 397 2203 397 
Q 2534 397 2845 478 
Q 3156 559 3463 722 
L 3463 178 
Q 3153 47 2828 -22 
Q 2503 -91 2169 -91 
Q 1331 -91 842 396 
Q 353 884 353 1716 
Q 353 2575 817 3079 
Q 1281 3584 2069 3584 
Q 2775 3584 3186 3129 
Q 3597 2675 3597 1894 
z
M 3022 2063 
Q 3016 2534 2758 2815 
Q 2500 3097 2075 3097 
Q 1594 3097 1305 2825 
Q 1016 2553 972 2059 
L 3022 2063 
z
" transform="scale(0.015625)"/>
       <path id="DejaVuSans-78" d="M 3513 3500 
L 2247 1797 
L 3578 0 
L 2900 0 
L 1881 1375 
L 863 0 
L 184 0 
L 1544 1831 
L 300 3500 
L 978 3500 
L 1906 2253 
L 2834 3500 
L 3513 3500 
z
" transform="scale(0.015625)"/>
      </defs>
      <use xlink:href="#DejaVuSans-49"/>
      <use xlink:href="#DejaVuSans-6e" transform="translate(29.492188 0)"/>
      <use xlink:href="#DejaVuSans-64" transform="translate(92.871094 0)"/>
      <use xlink:href="#DejaVuSans-65" transform="translate(156.347656 0)"/>
      <use xlink:href="#DejaVuSans-78" transform="translate(216.121094 0)"/>
     </g>
    </g>
   </g>
   <g id="matplotlib.axis_2">
    <g id="ytick_1">
     <g id="line2d_7">
      <defs>
       <path id="m4d6dc61c5c" d="M 0 0 
L -3.5 0 
" style="stroke: #000000; stroke-width: 0.8"/>
      </defs>
      <g>
       <use xlink:href="#m4d6dc61c5c" x="90" y="384.48" style="stroke: #000000; stroke-width: 0.8"/>
      </g>
     </g>
     <g id="text_8">
      <!-- 0 -->
      <g transform="translate(76.6375 388.279219) scale(0.1 -0.1)">
       <use xlink:href="#DejaVuSans-30"/>
      </g>
     </g>
    </g>
    <g id="ytick_2">
     <g id="line2d_8">
      <g>
       <use xlink:href="#m4d6dc61c5c" x="90" y="324.206132" style="stroke: #000000; stroke-width: 0.8"/>
      </g>
     </g>
     <g id="text_9">
      <!-- 50 -->
      <g transform="translate(70.275 328.005351) scale(0.1 -0.1)">
       <use xlink:href="#DejaVuSans-35"/>
       <use xlink:href="#DejaVuSans-30" transform="translate(63.623047 0)"/>
      </g>
     </g>
    </g>
    <g id="ytick_3">
     <g id="line2d_9">
      <g>
       <use xlink:href="#m4d6dc61c5c" x="90" y="263.932265" style="stroke: #000000; stroke-width: 0.8"/>
      </g>
     </g>
     <g id="text_10">
      <!-- 100 -->
      <g transform="translate(63.9125 267.731484) scale(0.1 -0.1)">
       <use xlink:href="#DejaVuSans-31"/>
       <use xlink:href="#DejaVuSans-30" transform="translate(63.623047 0)"/>
       <use xlink:href="#DejaVuSans-30" transform="translate(127.246094 0)"/>
      </g>
     </g>
    </g>
    <g id="ytick_4">
     <g id="line2d_10">
      <g>
       <use xlink:href="#m4d6dc61c5c" x="90" y="203.658397" style="stroke: #000000; stroke-width: 0.8"/>
      </g>
     </g>
     <g id="text_11">
      <!-- 150 -->
      <g transform="translate(63.9125 207.457616) scale(0.1 -0.1)">
       <use xlink:href="#DejaVuSans-31"/>
       <use xlink:href="#DejaVuSans-35" transform="translate(63.623047 0)"/>
       <use xlink:href="#DejaVuSans-30" transform="translate(127.246094 0)"/>
      </g>
     </g>
    </g>
    <g id="ytick_5">
     <g id="line2d_11">
      <g>
       <use xlink:href="#m4d6dc61c5c" x="90" y="143.38453" style="stroke: #000000; stroke-width: 0.8"/>
      </g>
     </g>
     <g id="text_12">
      <!-- 200 -->
      <g transform="translate(63.9125 147.183749) scale(0.1 -0.1)">
       <use xlink:href="#DejaVuSans-32"/>
       <use xlink:href="#DejaVuSans-30" transform="translate(63.623047 0)"/>
       <use xlink:href="#DejaVuSans-30" transform="translate(127.246094 0)"/>
      </g>
     </g>
    </g>
    <g id="ytick_6">
     <g id="line2d_12">
      <g>
       <use xlink:href="#m4d6dc61c5c" x="90" y="83.110662" style="stroke: #000000; stroke-width: 0.8"/>
      </g>
     </g>
     <g id="text_13">
      <!-- 250 -->
      <g transform="translate(63.9125 86.909881) scale(0.1 -0.1)">
       <use xlink:href="#DejaVuSans-32"/>
       <use xlink:href="#DejaVuSans-35" transform="translate(63.623047 0)"/>
       <use xlink:href="#DejaVuSans-30" transform="translate(127.246094 0)"/>
      </g>
     </g>
    </g>
    <g id="text_14">
     <!-- Average time (ms) -->
     <g transform="translate(57.832812 264.543594) rotate(-90) scale(0.1 -0.1)">
      <defs>
       <path id="DejaVuSans-41" d="M 2188 4044 
L 1331 1722 
L 3047 1722 
L 2188 4044 
z
M 1831 4666 
L 2547 4666 
L 4325 0 
L 3669 0 
L 3244 1197 
L 1141 1197 
L 716 0 
L 50 0 
L 1831 4666 
z
" transform="scale(0.015625)"/>
       <path id="DejaVuSans-76" d="M 191 3500 
L 800 3500 
L 1894 563 
L 2988 3500 
L 3597 3500 
L 2284 0 
L 1503 0 
L 191 3500 
z
" transform="scale(0.015625)"/>
       <path id="DejaVuSans-72" d="M 2631 2963 
Q 2534 3019 2420 3045 
Q 2306 3072 2169 3072 
Q 1681 3072 1420 2755 
Q 1159 2438 1159 1844 
L 1159 0 
L 581 0 
L 581 3500 
L 1159 3500 
L 1159 2956 
Q 1341 3275 1631 3429 
Q 1922 3584 2338 3584 
Q 2397 3584 2469 3576 
Q 2541 3569 2628 3553 
L 2631 2963 
z
" transform="scale(0.015625)"/>
       <path id="DejaVuSans-61" d="M 2194 1759 
Q 1497 1759 1228 1600 
Q 959 1441 959 1056 
Q 959 750 1161 570 
Q 1363 391 1709 391 
Q 2188 391 2477 730 
Q 2766 1069 2766 1631 
L 2766 1759 
L 2194 1759 
z
M 3341 1997 
L 3341 0 
L 2766 0 
L 2766 531 
Q 2569 213 2275 61 
Q 1981 -91 1556 -91 
Q 1019 -91 701 211 
Q 384 513 384 1019 
Q 384 1609 779 1909 
Q 1175 2209 1959 2209 
L 2766 2209 
L 2766 2266 
Q 2766 2663 2505 2880 
Q 2244 3097 1772 3097 
Q 1472 3097 1187 3025 
Q 903 2953 641 2809 
L 641 3341 
Q 956 3463 1253 3523 
Q 1550 3584 1831 3584 
Q 2591 3584 2966 3190 
Q 3341 2797 3341 1997 
z
" transform="scale(0.015625)"/>
       <path id="DejaVuSans-67" d="M 2906 1791 
Q 2906 2416 2648 2759 
Q 2391 3103 1925 3103 
Q 1463 3103 1205 2759 
Q 947 2416 947 1791 
Q 947 1169 1205 825 
Q 1463 481 1925 481 
Q 2391 481 2648 825 
Q 2906 1169 2906 1791 
z
M 3481 434 
Q 3481 -459 3084 -895 
Q 2688 -1331 1869 -1331 
Q 1566 -1331 1297 -1286 
Q 1028 -1241 775 -1147 
L 775 -588 
Q 1028 -725 1275 -790 
Q 1522 -856 1778 -856 
Q 2344 -856 2625 -561 
Q 2906 -266 2906 331 
L 2906 616 
Q 2728 306 2450 153 
Q 2172 0 1784 0 
Q 1141 0 747 490 
Q 353 981 353 1791 
Q 353 2603 747 3093 
Q 1141 3584 1784 3584 
Q 2172 3584 2450 3431 
Q 2728 3278 2906 2969 
L 2906 3500 
L 3481 3500 
L 3481 434 
z
" transform="scale(0.015625)"/>
       <path id="DejaVuSans-20" transform="scale(0.015625)"/>
       <path id="DejaVuSans-74" d="M 1172 4494 
L 1172 3500 
L 2356 3500 
L 2356 3053 
L 1172 3053 
L 1172 1153 
Q 1172 725 1289 603 
Q 1406 481 1766 481 
L 2356 481 
L 2356 0 
L 1766 0 
Q 1100 0 847 248 
Q 594 497 594 1153 
L 594 3053 
L 172 3053 
L 172 3500 
L 594 3500 
L 594 4494 
L 1172 4494 
z
" transform="scale(0.015625)"/>
       <path id="DejaVuSans-69" d="M 603 3500 
L 1178 3500 
L 1178 0 
L 603 0 
L 603 3500 
z
M 603 4863 
L 1178 4863 
L 1178 4134 
L 603 4134 
L 603 4863 
z
" transform="scale(0.015625)"/>
       <path id="DejaVuSans-6d" d="M 3328 2828 
Q 3544 3216 3844 3400 
Q 4144 3584 4550 3584 
Q 5097 3584 5394 3201 
Q 5691 2819 5691 2113 
L 5691 0 
L 5113 0 
L 5113 2094 
Q 5113 2597 4934 2840 
Q 4756 3084 4391 3084 
Q 3944 3084 3684 2787 
Q 3425 2491 3425 1978 
L 3425 0 
L 2847 0 
L 2847 2094 
Q 2847 2600 2669 2842 
Q 2491 3084 2119 3084 
Q 1678 3084 1418 2786 
Q 1159 2488 1159 1978 
L 1159 0 
L 581 0 
L 581 3500 
L 1159 3500 
L 1159 2956 
Q 1356 3278 1631 3431 
Q 1906 3584 2284 3584 
Q 2666 3584 2933 3390 
Q 3200 3197 3328 2828 
z
" transform="scale(0.015625)"/>
       <path id="DejaVuSans-28" d="M 1984 4856 
Q 1566 4138 1362 3434 
Q 1159 2731 1159 2009 
Q 1159 1288 1364 580 
Q 1569 -128 1984 -844 
L 1484 -844 
Q 1016 -109 783 600 
Q 550 1309 550 2009 
Q 550 2706 781 3412 
Q 1013 4119 1484 4856 
L 1984 4856 
z
" transform="scale(0.015625)"/>
       <path id="DejaVuSans-73" d="M 2834 3397 
L 2834 2853 
Q 2591 2978 2328 3040 
Q 2066 3103 1784 3103 
Q 1356 3103 1142 2972 
Q 928 2841 928 2578 
Q 928 2378 1081 2264 
Q 1234 2150 1697 2047 
L 1894 2003 
Q 2506 1872 2764 1633 
Q 3022 1394 3022 966 
Q 3022 478 2636 193 
Q 2250 -91 1575 -91 
Q 1294 -91 989 -36 
Q 684 19 347 128 
L 347 722 
Q 666 556 975 473 
Q 1284 391 1588 391 
Q 1994 391 2212 530 
Q 2431 669 2431 922 
Q 2431 1156 2273 1281 
Q 2116 1406 1581 1522 
L 1381 1569 
Q 847 1681 609 1914 
Q 372 2147 372 2553 
Q 372 3047 722 3315 
Q 1072 3584 1716 3584 
Q 2034 3584 2315 3537 
Q 2597 3491 2834 3397 
z
" transform="scale(0.015625)"/>
       <path id="DejaVuSans-29" d="M 513 4856 
L 1013 4856 
Q 1481 4119 1714 3412 
Q 1947 2706 1947 2009 
Q 1947 1309 1714 600 
Q 1481 -109 1013 -844 
L 513 -844 
Q 928 -128 1133 580 
Q 1338 1288 1338 2009 
Q 1338 2731 1133 3434 
Q 928 4138 513 4856 
z
" transform="scale(0.015625)"/>
      </defs>
      <use xlink:href="#DejaVuSans-41"/>
      <use xlink:href="#DejaVuSans-76" transform="translate(62.533203 0)"/>
      <use xlink:href="#DejaVuSans-65" transform="translate(121.712891 0)"/>
      <use xlink:href="#DejaVuSans-72" transform="translate(183.236328 0)"/>
      <use xlink:href="#DejaVuSans-61" transform="translate(224.349609 0)"/>
      <use xlink:href="#DejaVuSans-67" transform="translate(285.628906 0)"/>
      <use xlink:href="#DejaVuSans-65" transform="translate(349.105469 0)"/>
      <use xlink:href="#DejaVuSans-20" transform="translate(410.628906 0)"/>
      <use xlink:href="#DejaVuSans-74" transform="translate(442.416016 0)"/>
      <use xlink:href="#DejaVuSans-69" transform="translate(481.625 0)"/>
      <use xlink:href="#DejaVuSans-6d" transform="translate(509.408203 0)"/>
      <use xlink:href="#DejaVuSans-65" transform="translate(606.820312 0)"/>
      <use xlink:href="#DejaVuSans-20" transform="translate(668.34375 0)"/>
      <use xlink:href="#DejaVuSans-28" transform="translate(700.130859 0)"/>
      <use xlink:href="#DejaVuSans-6d" transform="translate(739.144531 0)"/>
      <use xlink:href="#DejaVuSans-73" transform="translate(836.556641 0)"/>
      <use xlink:href="#DejaVuSans-29" transform="translate(888.65625 0)"/>
     </g>
    </g>
   </g>
   <g id="line2d_13">
    <path d="M 115.363636 383.125067 
L 116.289317 378.407627 
L 117.214997 379.28203 
L 118.140677 380.929399 
L 119.992037 381.266647 
L 120.917717 381.677448 
L 121.843397 381.340354 
L 122.769078 381.908685 
L 124.620438 382.323586 
L 125.546118 381.769899 
L 126.471798 382.84055 
L 127.397478 382.872614 
L 128.323159 382.419583 
L 129.248839 381.635863 
L 130.174519 382.750307 
L 131.100199 382.247911 
L 132.951559 382.846827 
L 135.7286 381.922098 
L 136.65428 382.08318 
L 137.57996 379.939703 
L 138.50564 382.277589 
L 140.357001 382.254338 
L 141.282681 382.486387 
L 142.208361 380.582965 
L 143.134041 382.488127 
L 144.059721 381.672979 
L 144.985401 381.473386 
L 145.911082 381.892898 
L 146.836762 382.017783 
L 147.762442 382.422201 
L 148.688122 377.726858 
L 149.613802 380.76465 
L 150.539482 382.863285 
L 151.465163 382.181023 
L 152.390843 382.360524 
L 153.316523 379.051923 
L 154.242203 381.877461 
L 155.167883 382.805832 
L 156.093563 381.620123 
L 157.019244 381.739351 
L 157.944924 380.454221 
L 158.870604 380.674006 
L 159.796284 378.982645 
L 160.721964 381.633911 
L 161.647644 377.240342 
L 163.499005 383.059104 
L 164.424685 381.524847 
L 165.350365 381.702716 
L 166.276045 382.865579 
L 167.201725 381.873917 
L 168.127405 382.484309 
L 169.053086 381.744141 
L 169.978766 380.776942 
L 170.904446 379.573792 
L 171.830126 382.894692 
L 172.755806 380.912447 
L 174.607167 381.610461 
L 175.532847 377.569665 
L 176.458527 382.568151 
L 177.384207 381.947309 
L 178.309887 361.501127 
L 179.235567 380.364247 
L 180.161248 382.971366 
L 181.086928 383.117761 
L 182.012608 382.999509 
L 182.938288 380.889632 
L 183.863968 383.146214 
L 184.789648 380.407541 
L 185.715328 382.435863 
L 186.641009 374.831386 
L 188.492369 382.919442 
L 189.418049 382.959413 
L 190.343729 379.633204 
L 191.269409 383.085394 
L 192.19509 383.09308 
L 193.12077 382.937844 
L 194.04645 382.996155 
L 194.97213 381.509508 
L 195.89781 383.01434 
L 196.82349 377.312406 
L 197.749171 383.104679 
L 198.674851 382.659257 
L 199.600531 381.442803 
L 200.526211 383.090701 
L 201.451891 382.968167 
L 203.303251 383.211466 
L 204.228932 382.679734 
L 205.154612 383.274098 
L 206.080292 382.971934 
L 207.005972 382.95837 
L 207.931652 380.669683 
L 208.857332 380.681455 
L 209.783013 383.351019 
L 210.708693 383.256849 
L 211.634373 382.084624 
L 212.560053 381.886758 
L 213.485733 383.104956 
L 214.411413 383.321305 
L 215.337094 379.505501 
L 216.262774 379.539187 
L 217.188454 383.388269 
L 218.114134 383.28503 
L 219.039814 381.651981 
L 219.965494 380.862962 
L 220.891175 383.235456 
L 221.816855 383.369975 
L 222.742535 379.918422 
L 223.668215 382.792998 
L 224.593895 383.154681 
L 225.519575 382.079364 
L 226.445255 378.893478 
L 227.370936 383.181881 
L 229.222296 383.15464 
L 230.147976 380.985453 
L 231.073656 383.038685 
L 231.999336 383.214043 
L 232.925017 382.855175 
L 233.850697 380.313566 
L 234.776377 383.25159 
L 236.627737 383.098881 
L 237.553417 380.387314 
L 238.479098 380.739659 
L 239.404778 383.370259 
L 240.330458 383.228073 
L 241.256138 382.111131 
L 242.181818 381.794743 
L 243.107498 383.360494 
L 244.033179 383.133705 
L 244.958859 381.660652 
L 245.884539 382.223152 
L 246.810219 383.442095 
L 247.735899 383.395695 
L 248.661579 382.309872 
L 249.587259 382.129147 
L 250.51294 383.374901 
L 251.43862 383.388638 
L 252.3643 381.050202 
L 253.28998 383.212701 
L 255.14134 383.113775 
L 256.067021 380.165407 
L 256.992701 383.311899 
L 258.844061 383.240022 
L 259.769741 379.626921 
L 260.695421 383.227134 
L 261.621102 383.26026 
L 262.546782 382.789911 
L 263.472462 381.135142 
L 264.398142 383.231443 
L 266.249502 383.137099 
L 267.175182 382.086426 
L 268.100863 382.072271 
L 269.026543 382.792727 
L 269.952223 383.318255 
L 270.877903 382.303089 
L 271.803583 382.05627 
L 272.729263 383.355132 
L 273.654944 383.346938 
L 274.580624 382.281115 
L 275.506304 382.097411 
L 276.431984 383.362774 
L 277.357664 383.363155 
L 278.283344 382.227839 
L 279.209025 382.049045 
L 280.134705 383.303796 
L 281.060385 383.318016 
L 281.986065 379.86098 
L 282.911745 382.421925 
L 283.837425 383.156389 
L 284.763106 383.205007 
L 285.688786 378.858687 
L 286.614466 383.212542 
L 288.465826 383.126011 
L 289.391506 380.967686 
L 290.317186 383.162859 
L 292.168547 383.073799 
L 293.094227 380.370125 
L 294.019907 383.118752 
L 295.871267 383.120685 
L 296.796948 382.047906 
L 297.722628 381.895798 
L 298.648308 383.237159 
L 299.573988 383.181903 
L 300.499668 382.093833 
L 301.425348 381.780599 
L 302.351029 383.237598 
L 303.276709 383.103528 
L 304.202389 381.963838 
L 305.128069 381.832733 
L 306.053749 383.254017 
L 306.979429 383.233803 
L 307.905109 382.108088 
L 308.83079 380.116343 
L 309.75647 383.217108 
L 310.68215 383.256428 
L 311.60783 380.514982 
L 312.53351 383.102113 
L 313.45919 383.124709 
L 314.384871 382.949388 
L 315.310551 380.609683 
L 316.236231 383.191758 
L 317.161911 382.32601 
L 318.087591 383.184012 
L 319.013271 380.708687 
L 319.938952 383.131249 
L 321.790312 383.06433 
L 322.715992 380.692994 
L 323.641672 383.119061 
L 325.493033 383.037326 
L 326.418713 383.242307 
L 327.344393 382.673515 
L 328.270073 383.216987 
L 332.898474 383.24833 
L 333.824154 383.252302 
L 334.749834 382.737838 
L 335.675514 383.270821 
L 339.378235 383.208736 
L 341.229595 383.083198 
L 342.155275 382.956053 
L 343.080956 383.100486 
L 346.783676 383.142254 
L 347.709356 382.960297 
L 348.635036 383.170959 
L 351.412077 383.038809 
L 352.337757 382.363477 
L 353.263437 383.177786 
L 355.114798 383.145223 
L 356.040478 383.007586 
L 356.966158 383.118656 
L 359.743198 383.053201 
L 360.668879 383.148243 
L 361.594559 382.493026 
L 362.520239 383.099934 
L 368.07432 383.160526 
L 369 383.09204 
L 369.92568 381.848236 
L 370.85136 383.11862 
L 373.628401 383.026687 
L 376.405441 383.149234 
L 378.256802 383.046021 
L 381.033842 383.138483 
L 383.810883 383.07948 
L 384.736563 383.088967 
L 385.662243 361.38681 
L 386.587923 382.905491 
L 388.439283 382.957881 
L 389.364964 381.574638 
L 390.290644 383.035462 
L 392.142004 382.914937 
L 393.067684 382.115874 
L 393.993364 382.957355 
L 395.844725 382.938878 
L 396.770405 382.052966 
L 397.696085 382.914521 
L 399.547445 382.946773 
L 400.473125 381.353223 
L 401.398806 382.886931 
L 402.324486 382.787246 
L 403.250166 382.829378 
L 404.175846 382.012416 
L 405.101526 382.967361 
L 406.027206 381.830168 
L 406.952887 382.948298 
L 407.878567 381.869441 
L 408.804247 382.82031 
L 409.729927 382.938259 
L 410.655607 382.896203 
L 411.581287 381.80853 
L 412.506967 382.898603 
L 413.432648 381.408203 
L 414.358328 382.945472 
L 415.284008 381.241363 
L 416.209688 382.836433 
L 417.135368 382.73681 
L 418.061048 382.784908 
L 418.986729 382.015004 
L 419.912409 382.879794 
L 421.763769 382.843679 
L 422.689449 381.926372 
L 423.615129 382.822694 
L 424.54081 382.754299 
L 425.46649 382.816705 
L 426.39217 381.730076 
L 427.31785 382.138339 
L 428.24353 382.833126 
L 429.16921 382.779274 
L 430.094891 381.641044 
L 431.020571 382.61254 
L 432.871931 382.736833 
L 433.797611 381.914169 
L 434.723291 382.775337 
L 436.574652 382.753102 
L 437.500332 381.789824 
L 438.426012 382.763201 
L 439.351692 382.295322 
L 440.277372 382.094923 
L 441.203052 381.619807 
L 442.128733 382.77047 
L 443.980093 382.764458 
L 444.905773 345.00551 
L 445.831453 382.664788 
L 447.682814 382.6899 
L 448.608494 381.867465 
L 449.534174 382.684958 
L 450.459854 382.770783 
L 451.385534 382.717464 
L 452.311214 381.4292 
L 453.236894 382.684597 
L 454.162575 382.724448 
L 455.088255 382.554642 
L 456.013935 381.833609 
L 456.939615 382.639175 
L 457.865295 382.092471 
L 458.790975 382.57873 
L 459.716656 380.801885 
L 460.642336 382.643219 
L 461.568016 382.628869 
L 462.493696 382.079848 
L 463.419376 381.839135 
L 464.345056 382.72572 
L 466.196417 382.6909 
L 467.122097 381.695481 
L 468.047777 382.676367 
L 468.973457 382.694046 
L 469.899137 382.545113 
L 470.824818 381.665397 
L 471.750498 382.58313 
L 473.601858 382.761108 
L 474.527538 381.677178 
L 475.453218 382.481333 
L 476.378898 382.616984 
L 477.304579 382.599982 
L 478.230259 381.813109 
L 479.155939 382.627921 
L 481.007299 382.654885 
L 481.932979 380.648025 
L 482.85866 382.45952 
L 483.78434 382.648215 
L 484.71002 382.048125 
L 485.6357 381.774382 
L 486.56138 382.638939 
L 488.412741 382.585974 
L 489.338421 381.540102 
L 490.264101 382.581933 
L 491.189781 382.479189 
L 492.115461 382.54044 
L 493.041141 381.759858 
L 493.966821 382.636466 
L 495.818182 382.666776 
L 496.743862 381.664641 
L 497.669542 382.621555 
L 499.520902 382.544385 
L 500.446583 381.602475 
L 501.372263 382.517719 
L 503.223623 382.518012 
L 504.149303 342.850076 
L 505.074983 382.343244 
L 506.000664 382.313421 
L 506.926344 382.437275 
L 507.852024 381.581261 
L 508.777704 382.363839 
L 510.629064 382.489305 
L 511.554745 381.660083 
L 512.480425 382.311287 
L 514.331785 382.541722 
L 515.257465 381.574368 
L 516.183145 382.442671 
L 518.034506 382.498387 
L 518.960186 381.601855 
L 519.885866 382.351041 
L 520.811546 382.458196 
L 521.737226 382.231962 
L 522.662906 381.620812 
L 523.588587 382.499291 
L 525.439947 382.519802 
L 526.365627 381.620853 
L 527.291307 382.441871 
L 529.142668 382.522336 
L 530.068348 381.567372 
L 530.994028 382.419877 
L 531.919708 382.543283 
L 532.845388 382.132813 
L 533.771068 380.553646 
L 534.696749 382.30557 
L 536.548109 382.363294 
L 537.473789 381.562838 
L 538.399469 382.403974 
L 540.250829 382.463696 
L 541.17651 381.496052 
L 542.10219 382.435981 
L 543.02787 382.567256 
L 543.95355 382.495036 
L 544.87923 380.094527 
L 545.80491 382.419631 
L 547.656271 382.370885 
L 548.581951 381.399766 
L 549.507631 382.280534 
L 550.433311 381.737148 
L 551.358991 382.264813 
L 552.284672 381.430377 
L 553.210352 382.340626 
L 554.136032 382.295755 
L 555.061712 381.901649 
L 555.987392 380.754198 
L 556.913072 382.384399 
L 557.838752 382.455534 
L 558.764433 382.226083 
L 559.690113 381.387227 
L 560.615793 382.415542 
L 562.467153 382.316579 
L 563.392833 340.836751 
L 564.318514 382.006309 
L 565.244194 382.241619 
L 566.169874 382.218909 
L 567.095554 381.216226 
L 568.021234 382.291236 
L 568.946914 382.165292 
L 569.872595 381.745006 
L 570.798275 380.972187 
L 571.723955 382.282763 
L 573.575315 382.21797 
L 574.500995 381.144168 
L 575.426676 382.162001 
L 577.278036 382.22358 
L 578.203716 380.687809 
L 579.129396 382.107757 
L 580.980756 382.201184 
L 581.906437 381.398029 
L 583.757797 382.394542 
L 584.683477 382.382292 
L 585.609157 381.364812 
L 586.534837 382.368975 
L 587.460518 381.752652 
L 588.386198 382.170614 
L 589.311878 381.179359 
L 590.237558 382.24507 
L 591.163238 381.742109 
L 592.088918 381.836041 
L 593.014599 381.326046 
L 593.940279 382.146581 
L 594.865959 382.2527 
L 595.791639 382.023691 
L 596.717319 380.590545 
L 597.642999 382.293866 
L 598.568679 382.335346 
L 599.49436 382.248401 
L 600.42004 381.313901 
L 601.34572 382.301985 
L 603.19708 382.276621 
L 604.12276 380.75128 
L 605.048441 382.34897 
L 605.974121 382.129379 
L 606.899801 382.239718 
L 607.825481 381.023295 
L 608.751161 382.12715 
L 609.676841 382.174798 
L 610.602522 382.096294 
L 611.528202 380.710772 
L 612.453882 382.190412 
L 614.305242 382.103259 
L 615.230922 381.077628 
L 616.156603 382.208005 
L 617.082283 382.207269 
L 618.933643 381.203396 
L 619.859323 382.165176 
L 621.710683 381.973284 
L 622.636364 67.630576 
L 622.636364 67.630576 
" clip-path="url(#p42c4011e9d)" style="fill: none; stroke: #1f77b4; stroke-width: 1.5; stroke-linecap: square"/>
   </g>
   <g id="patch_3">
    <path d="M 90 384.48 
L 90 51.84 
" style="fill: none; stroke: #000000; stroke-width: 0.8; stroke-linejoin: miter; stroke-linecap: square"/>
   </g>
   <g id="patch_4">
    <path d="M 648 384.48 
L 648 51.84 
" style="fill: none; stroke: #000000; stroke-width: 0.8; stroke-linejoin: miter; stroke-linecap: square"/>
   </g>
   <g id="patch_5">
    <path d="M 90 384.48 
L 648 384.48 
" style="fill: none; stroke: #000000; stroke-width: 0.8; stroke-linejoin: miter; stroke-linecap: square"/>
   </g>
   <g id="patch_6">
    <path d="M 90 51.84 
L 648 51.84 
" style="fill: none; stroke: #000000; stroke-width: 0.8; stroke-linejoin: miter; stroke-linecap: square"/>
   </g>
   <g id="text_15">
    <!-- Average time per index -->
    <g transform="translate(298.700625 45.84) scale(0.12 -0.12)">
     <defs>
      <path id="DejaVuSans-70" d="M 1159 525 
L 1159 -1331 
L 581 -1331 
L 581 3500 
L 1159 3500 
L 1159 2969 
Q 1341 3281 1617 3432 
Q 1894 3584 2278 3584 
Q 2916 3584 3314 3078 
Q 3713 2572 3713 1747 
Q 3713 922 3314 415 
Q 2916 -91 2278 -91 
Q 1894 -91 1617 61 
Q 1341 213 1159 525 
z
M 3116 1747 
Q 3116 2381 2855 2742 
Q 2594 3103 2138 3103 
Q 1681 3103 1420 2742 
Q 1159 2381 1159 1747 
Q 1159 1113 1420 752 
Q 1681 391 2138 391 
Q 2594 391 2855 752 
Q 3116 1113 3116 1747 
z
" transform="scale(0.015625)"/>
     </defs>
     <use xlink:href="#DejaVuSans-41"/>
     <use xlink:href="#DejaVuSans-76" transform="translate(62.533203 0)"/>
     <use xlink:href="#DejaVuSans-65" transform="translate(121.712891 0)"/>
     <use xlink:href="#DejaVuSans-72" transform="translate(183.236328 0)"/>
     <use xlink:href="#DejaVuSans-61" transform="translate(224.349609 0)"/>
     <use xlink:href="#DejaVuSans-67" transform="translate(285.628906 0)"/>
     <use xlink:href="#DejaVuSans-65" transform="translate(349.105469 0)"/>
     <use xlink:href="#DejaVuSans-20" transform="translate(410.628906 0)"/>
     <use xlink:href="#DejaVuSans-74" transform="translate(442.416016 0)"/>
     <use xlink:href="#DejaVuSans-69" transform="translate(481.625 0)"/>
     <use xlink:href="#DejaVuSans-6d" transform="translate(509.408203 0)"/>
     <use xlink:href="#DejaVuSans-65" transform="translate(606.820312 0)"/>
     <use xlink:href="#DejaVuSans-20" transform="translate(668.34375 0)"/>
     <use xlink:href="#DejaVuSans-70" transform="translate(700.130859 0)"/>
     <use xlink:href="#DejaVuSans-65" transform="translate(763.607422 0)"/>
     <use xlink:href="#DejaVuSans-72" transform="translate(825.130859 0)"/>
     <use xlink:href="#DejaVuSans-20" transform="translate(866.244141 0)"/>
     <use xlink:href="#DejaVuSans-69" transform="translate(898.03125 0)"/>
     <use xlink:href="#DejaVuSans-6e" transform="translate(925.814453 0)"/>
     <use xlink:href="#DejaVuSans-64" transform="translate(989.193359 0)"/>
     <use xlink:href="#DejaVuSans-65" transform="translate(1052.669922 0)"/>
     <use xlink:href="#DejaVuSans-78" transform="translate(1112.443359 0)"/>
    </g>
   </g>
   <g id="legend_1">
    <g id="patch_7">
     <path d="M 97 74.518125 
L 196.53125 74.518125 
Q 198.53125 74.518125 198.53125 72.518125 
L 198.53125 58.84 
Q 198.53125 56.84 196.53125 56.84 
L 97 56.84 
Q 95 56.84 95 58.84 
L 95 72.518125 
Q 95 74.518125 97 74.518125 
z
" style="fill: #ffffff; opacity: 0.8; stroke: #cccccc; stroke-linejoin: miter"/>
    </g>
    <g id="line2d_14">
     <path d="M 99 64.938438 
L 109 64.938438 
L 119 64.938438 
" style="fill: none; stroke: #1f77b4; stroke-width: 1.5; stroke-linecap: square"/>
    </g>
    <g id="text_16">
     <!-- nextFaultload -->
     <g transform="translate(127 68.438438) scale(0.1 -0.1)">
      <defs>
       <path id="DejaVuSans-46" d="M 628 4666 
L 3309 4666 
L 3309 4134 
L 1259 4134 
L 1259 2759 
L 3109 2759 
L 3109 2228 
L 1259 2228 
L 1259 0 
L 628 0 
L 628 4666 
z
" transform="scale(0.015625)"/>
       <path id="DejaVuSans-75" d="M 544 1381 
L 544 3500 
L 1119 3500 
L 1119 1403 
Q 1119 906 1312 657 
Q 1506 409 1894 409 
Q 2359 409 2629 706 
Q 2900 1003 2900 1516 
L 2900 3500 
L 3475 3500 
L 3475 0 
L 2900 0 
L 2900 538 
Q 2691 219 2414 64 
Q 2138 -91 1772 -91 
Q 1169 -91 856 284 
Q 544 659 544 1381 
z
M 1991 3584 
L 1991 3584 
z
" transform="scale(0.015625)"/>
       <path id="DejaVuSans-6c" d="M 603 4863 
L 1178 4863 
L 1178 0 
L 603 0 
L 603 4863 
z
" transform="scale(0.015625)"/>
       <path id="DejaVuSans-6f" d="M 1959 3097 
Q 1497 3097 1228 2736 
Q 959 2375 959 1747 
Q 959 1119 1226 758 
Q 1494 397 1959 397 
Q 2419 397 2687 759 
Q 2956 1122 2956 1747 
Q 2956 2369 2687 2733 
Q 2419 3097 1959 3097 
z
M 1959 3584 
Q 2709 3584 3137 3096 
Q 3566 2609 3566 1747 
Q 3566 888 3137 398 
Q 2709 -91 1959 -91 
Q 1206 -91 779 398 
Q 353 888 353 1747 
Q 353 2609 779 3096 
Q 1206 3584 1959 3584 
z
" transform="scale(0.015625)"/>
      </defs>
      <use xlink:href="#DejaVuSans-6e"/>
      <use xlink:href="#DejaVuSans-65" transform="translate(63.378906 0)"/>
      <use xlink:href="#DejaVuSans-78" transform="translate(123.152344 0)"/>
      <use xlink:href="#DejaVuSans-74" transform="translate(182.332031 0)"/>
      <use xlink:href="#DejaVuSans-46" transform="translate(221.541016 0)"/>
      <use xlink:href="#DejaVuSans-61" transform="translate(269.935547 0)"/>
      <use xlink:href="#DejaVuSans-75" transform="translate(331.214844 0)"/>
      <use xlink:href="#DejaVuSans-6c" transform="translate(394.59375 0)"/>
      <use xlink:href="#DejaVuSans-74" transform="translate(422.376953 0)"/>
      <use xlink:href="#DejaVuSans-6c" transform="translate(461.585938 0)"/>
      <use xlink:href="#DejaVuSans-6f" transform="translate(489.369141 0)"/>
      <use xlink:href="#DejaVuSans-61" transform="translate(550.550781 0)"/>
      <use xlink:href="#DejaVuSans-64" transform="translate(611.830078 0)"/>
     </g>
    </g>
   </g>
  </g>
 </g>
 <defs>
  <clipPath id="p42c4011e9d">
   <rect x="90" y="51.84" width="558" height="332.64"/>
  </clipPath>
 </defs>
</svg>
