<?xml version="1.0" encoding="utf-8" standalone="no"?>
<!DOCTYPE svg PUBLIC "-//W3C//DTD SVG 1.1//EN"
  "http://www.w3.org/Graphics/SVG/1.1/DTD/svg11.dtd">
<svg xmlns:xlink="http://www.w3.org/1999/xlink" width="720pt" height="432pt" viewBox="0 0 720 432" xmlns="http://www.w3.org/2000/svg" version="1.1">
 <metadata>
  <rdf:RDF xmlns:dc="http://purl.org/dc/elements/1.1/" xmlns:cc="http://creativecommons.org/ns#" xmlns:rdf="http://www.w3.org/1999/02/22-rdf-syntax-ns#">
   <cc:Work>
    <dc:type rdf:resource="http://purl.org/dc/dcmitype/StillImage"/>
    <dc:date>2025-09-30T20:43:10.367594</dc:date>
    <dc:format>image/svg+xml</dc:format>
    <dc:creator>
     <cc:Agent>
      <dc:title>Matplotlib v3.10.3, https://matplotlib.org/</dc:title>
     </cc:Agent>
    </dc:creator>
   </cc:Work>
  </rdf:RDF>
 </metadata>
 <defs>
  <style type="text/css">*{stroke-linejoin: round; stroke-linecap: butt}</style>
 </defs>
 <g id="figure_1">
  <g id="patch_1">
   <path d="M 0 432 
L 720 432 
L 720 0 
L 0 0 
z
" style="fill: #ffffff"/>
  </g>
  <g id="axes_1">
   <g id="patch_2">
    <path d="M 90 384.48 
L 648 384.48 
L 648 51.84 
L 90 51.84 
z
" style="fill: #ffffff"/>
   </g>
   <g id="matplotlib.axis_1">
    <g id="xtick_1">
     <g id="line2d_1">
      <defs>
       <path id="ma46fe7a1f2" d="M 0 0 
L 0 3.5 
" style="stroke: #000000; stroke-width: 0.8"/>
      </defs>
      <g>
       <use xlink:href="#ma46fe7a1f2" x="115.363636" y="384.48" style="stroke: #000000; stroke-width: 0.8"/>
      </g>
     </g>
     <g id="text_1">
      <!-- 0 -->
      <g transform="translate(112.182386 399.078438) scale(0.1 -0.1)">
       <defs>
        <path id="DejaVuSans-30" d="M 2034 4250 
Q 1547 4250 1301 3770 
Q 1056 3291 1056 2328 
Q 1056 1369 1301 889 
Q 1547 409 2034 409 
Q 2525 409 2770 889 
Q 3016 1369 3016 2328 
Q 3016 3291 2770 3770 
Q 2525 4250 2034 4250 
z
M 2034 4750 
Q 2819 4750 3233 4129 
Q 3647 3509 3647 2328 
Q 3647 1150 3233 529 
Q 2819 -91 2034 -91 
Q 1250 -91 836 529 
Q 422 1150 422 2328 
Q 422 3509 836 4129 
Q 1250 4750 2034 4750 
z
" transform="scale(0.015625)"/>
       </defs>
       <use xlink:href="#DejaVuSans-30"/>
      </g>
     </g>
    </g>
    <g id="xtick_2">
     <g id="line2d_2">
      <g>
       <use xlink:href="#ma46fe7a1f2" x="208.100881" y="384.48" style="stroke: #000000; stroke-width: 0.8"/>
      </g>
     </g>
     <g id="text_2">
      <!-- 100 -->
      <g transform="translate(198.557131 399.078438) scale(0.1 -0.1)">
       <defs>
        <path id="DejaVuSans-31" d="M 794 531 
L 1825 531 
L 1825 4091 
L 703 3866 
L 703 4441 
L 1819 4666 
L 2450 4666 
L 2450 531 
L 3481 531 
L 3481 0 
L 794 0 
L 794 531 
z
" transform="scale(0.015625)"/>
       </defs>
       <use xlink:href="#DejaVuSans-31"/>
       <use xlink:href="#DejaVuSans-30" transform="translate(63.623047 0)"/>
       <use xlink:href="#DejaVuSans-30" transform="translate(127.246094 0)"/>
      </g>
     </g>
    </g>
    <g id="xtick_3">
     <g id="line2d_3">
      <g>
       <use xlink:href="#ma46fe7a1f2" x="300.838125" y="384.48" style="stroke: #000000; stroke-width: 0.8"/>
      </g>
     </g>
     <g id="text_3">
      <!-- 200 -->
      <g transform="translate(291.294375 399.078438) scale(0.1 -0.1)">
       <defs>
        <path id="DejaVuSans-32" d="M 1228 531 
L 3431 531 
L 3431 0 
L 469 0 
L 469 531 
Q 828 903 1448 1529 
Q 2069 2156 2228 2338 
Q 2531 2678 2651 2914 
Q 2772 3150 2772 3378 
Q 2772 3750 2511 3984 
Q 2250 4219 1831 4219 
Q 1534 4219 1204 4116 
Q 875 4013 500 3803 
L 500 4441 
Q 881 4594 1212 4672 
Q 1544 4750 1819 4750 
Q 2544 4750 2975 4387 
Q 3406 4025 3406 3419 
Q 3406 3131 3298 2873 
Q 3191 2616 2906 2266 
Q 2828 2175 2409 1742 
Q 1991 1309 1228 531 
z
" transform="scale(0.015625)"/>
       </defs>
       <use xlink:href="#DejaVuSans-32"/>
       <use xlink:href="#DejaVuSans-30" transform="translate(63.623047 0)"/>
       <use xlink:href="#DejaVuSans-30" transform="translate(127.246094 0)"/>
      </g>
     </g>
    </g>
    <g id="xtick_4">
     <g id="line2d_4">
      <g>
       <use xlink:href="#ma46fe7a1f2" x="393.57537" y="384.48" style="stroke: #000000; stroke-width: 0.8"/>
      </g>
     </g>
     <g id="text_4">
      <!-- 300 -->
      <g transform="translate(384.03162 399.078438) scale(0.1 -0.1)">
       <defs>
        <path id="DejaVuSans-33" d="M 2597 2516 
Q 3050 2419 3304 2112 
Q 3559 1806 3559 1356 
Q 3559 666 3084 287 
Q 2609 -91 1734 -91 
Q 1441 -91 1130 -33 
Q 819 25 488 141 
L 488 750 
Q 750 597 1062 519 
Q 1375 441 1716 441 
Q 2309 441 2620 675 
Q 2931 909 2931 1356 
Q 2931 1769 2642 2001 
Q 2353 2234 1838 2234 
L 1294 2234 
L 1294 2753 
L 1863 2753 
Q 2328 2753 2575 2939 
Q 2822 3125 2822 3475 
Q 2822 3834 2567 4026 
Q 2313 4219 1838 4219 
Q 1578 4219 1281 4162 
Q 984 4106 628 3988 
L 628 4550 
Q 988 4650 1302 4700 
Q 1616 4750 1894 4750 
Q 2613 4750 3031 4423 
Q 3450 4097 3450 3541 
Q 3450 3153 3228 2886 
Q 3006 2619 2597 2516 
z
" transform="scale(0.015625)"/>
       </defs>
       <use xlink:href="#DejaVuSans-33"/>
       <use xlink:href="#DejaVuSans-30" transform="translate(63.623047 0)"/>
       <use xlink:href="#DejaVuSans-30" transform="translate(127.246094 0)"/>
      </g>
     </g>
    </g>
    <g id="xtick_5">
     <g id="line2d_5">
      <g>
       <use xlink:href="#ma46fe7a1f2" x="486.312614" y="384.48" style="stroke: #000000; stroke-width: 0.8"/>
      </g>
     </g>
     <g id="text_5">
      <!-- 400 -->
      <g transform="translate(476.768864 399.078438) scale(0.1 -0.1)">
       <defs>
        <path id="DejaVuSans-34" d="M 2419 4116 
L 825 1625 
L 2419 1625 
L 2419 4116 
z
M 2253 4666 
L 3047 4666 
L 3047 1625 
L 3713 1625 
L 3713 1100 
L 3047 1100 
L 3047 0 
L 2419 0 
L 2419 1100 
L 313 1100 
L 313 1709 
L 2253 4666 
z
" transform="scale(0.015625)"/>
       </defs>
       <use xlink:href="#DejaVuSans-34"/>
       <use xlink:href="#DejaVuSans-30" transform="translate(63.623047 0)"/>
       <use xlink:href="#DejaVuSans-30" transform="translate(127.246094 0)"/>
      </g>
     </g>
    </g>
    <g id="xtick_6">
     <g id="line2d_6">
      <g>
       <use xlink:href="#ma46fe7a1f2" x="579.049859" y="384.48" style="stroke: #000000; stroke-width: 0.8"/>
      </g>
     </g>
     <g id="text_6">
      <!-- 500 -->
      <g transform="translate(569.506109 399.078438) scale(0.1 -0.1)">
       <defs>
        <path id="DejaVuSans-35" d="M 691 4666 
L 3169 4666 
L 3169 4134 
L 1269 4134 
L 1269 2991 
Q 1406 3038 1543 3061 
Q 1681 3084 1819 3084 
Q 2600 3084 3056 2656 
Q 3513 2228 3513 1497 
Q 3513 744 3044 326 
Q 2575 -91 1722 -91 
Q 1428 -91 1123 -41 
Q 819 9 494 109 
L 494 744 
Q 775 591 1075 516 
Q 1375 441 1709 441 
Q 2250 441 2565 725 
Q 2881 1009 2881 1497 
Q 2881 1984 2565 2268 
Q 2250 2553 1709 2553 
Q 1456 2553 1204 2497 
Q 953 2441 691 2322 
L 691 4666 
z
" transform="scale(0.015625)"/>
       </defs>
       <use xlink:href="#DejaVuSans-35"/>
       <use xlink:href="#DejaVuSans-30" transform="translate(63.623047 0)"/>
       <use xlink:href="#DejaVuSans-30" transform="translate(127.246094 0)"/>
      </g>
     </g>
    </g>
    <g id="text_7">
     <!-- Index -->
     <g transform="translate(355.233594 412.756563) scale(0.1 -0.1)">
      <defs>
       <path id="DejaVuSans-49" d="M 628 4666 
L 1259 4666 
L 1259 0 
L 628 0 
L 628 4666 
z
" transform="scale(0.015625)"/>
       <path id="DejaVuSans-6e" d="M 3513 2113 
L 3513 0 
L 2938 0 
L 2938 2094 
Q 2938 2591 2744 2837 
Q 2550 3084 2163 3084 
Q 1697 3084 1428 2787 
Q 1159 2491 1159 1978 
L 1159 0 
L 581 0 
L 581 3500 
L 1159 3500 
L 1159 2956 
Q 1366 3272 1645 3428 
Q 1925 3584 2291 3584 
Q 2894 3584 3203 3211 
Q 3513 2838 3513 2113 
z
" transform="scale(0.015625)"/>
       <path id="DejaVuSans-64" d="M 2906 2969 
L 2906 4863 
L 3481 4863 
L 3481 0 
L 2906 0 
L 2906 525 
Q 2725 213 2448 61 
Q 2172 -91 1784 -91 
Q 1150 -91 751 415 
Q 353 922 353 1747 
Q 353 2572 751 3078 
Q 1150 3584 1784 3584 
Q 2172 3584 2448 3432 
Q 2725 3281 2906 2969 
z
M 947 1747 
Q 947 1113 1208 752 
Q 1469 391 1925 391 
Q 2381 391 2643 752 
Q 2906 1113 2906 1747 
Q 2906 2381 2643 2742 
Q 2381 3103 1925 3103 
Q 1469 3103 1208 2742 
Q 947 2381 947 1747 
z
" transform="scale(0.015625)"/>
       <path id="DejaVuSans-65" d="M 3597 1894 
L 3597 1613 
L 953 1613 
Q 991 1019 1311 708 
Q 1631 397 2203 397 
Q 2534 397 2845 478 
Q 3156 559 3463 722 
L 3463 178 
Q 3153 47 2828 -22 
Q 2503 -91 2169 -91 
Q 1331 -91 842 396 
Q 353 884 353 1716 
Q 353 2575 817 3079 
Q 1281 3584 2069 3584 
Q 2775 3584 3186 3129 
Q 3597 2675 3597 1894 
z
M 3022 2063 
Q 3016 2534 2758 2815 
Q 2500 3097 2075 3097 
Q 1594 3097 1305 2825 
Q 1016 2553 972 2059 
L 3022 2063 
z
" transform="scale(0.015625)"/>
       <path id="DejaVuSans-78" d="M 3513 3500 
L 2247 1797 
L 3578 0 
L 2900 0 
L 1881 1375 
L 863 0 
L 184 0 
L 1544 1831 
L 300 3500 
L 978 3500 
L 1906 2253 
L 2834 3500 
L 3513 3500 
z
" transform="scale(0.015625)"/>
      </defs>
      <use xlink:href="#DejaVuSans-49"/>
      <use xlink:href="#DejaVuSans-6e" transform="translate(29.492188 0)"/>
      <use xlink:href="#DejaVuSans-64" transform="translate(92.871094 0)"/>
      <use xlink:href="#DejaVuSans-65" transform="translate(156.347656 0)"/>
      <use xlink:href="#DejaVuSans-78" transform="translate(216.121094 0)"/>
     </g>
    </g>
   </g>
   <g id="matplotlib.axis_2">
    <g id="ytick_1">
     <g id="line2d_7">
      <defs>
       <path id="m5c647bf143" d="M 0 0 
L -3.5 0 
" style="stroke: #000000; stroke-width: 0.8"/>
      </defs>
      <g>
       <use xlink:href="#m5c647bf143" x="90" y="384.48" style="stroke: #000000; stroke-width: 0.8"/>
      </g>
     </g>
     <g id="text_8">
      <!-- 0 -->
      <g transform="translate(76.6375 388.279219) scale(0.1 -0.1)">
       <use xlink:href="#DejaVuSans-30"/>
      </g>
     </g>
    </g>
    <g id="ytick_2">
     <g id="line2d_8">
      <g>
       <use xlink:href="#m5c647bf143" x="90" y="347.246585" style="stroke: #000000; stroke-width: 0.8"/>
      </g>
     </g>
     <g id="text_9">
      <!-- 5 -->
      <g transform="translate(76.6375 351.045804) scale(0.1 -0.1)">
       <use xlink:href="#DejaVuSans-35"/>
      </g>
     </g>
    </g>
    <g id="ytick_3">
     <g id="line2d_9">
      <g>
       <use xlink:href="#m5c647bf143" x="90" y="310.013171" style="stroke: #000000; stroke-width: 0.8"/>
      </g>
     </g>
     <g id="text_10">
      <!-- 10 -->
      <g transform="translate(70.275 313.812389) scale(0.1 -0.1)">
       <use xlink:href="#DejaVuSans-31"/>
       <use xlink:href="#DejaVuSans-30" transform="translate(63.623047 0)"/>
      </g>
     </g>
    </g>
    <g id="ytick_4">
     <g id="line2d_10">
      <g>
       <use xlink:href="#m5c647bf143" x="90" y="272.779756" style="stroke: #000000; stroke-width: 0.8"/>
      </g>
     </g>
     <g id="text_11">
      <!-- 15 -->
      <g transform="translate(70.275 276.578975) scale(0.1 -0.1)">
       <use xlink:href="#DejaVuSans-31"/>
       <use xlink:href="#DejaVuSans-35" transform="translate(63.623047 0)"/>
      </g>
     </g>
    </g>
    <g id="ytick_5">
     <g id="line2d_11">
      <g>
       <use xlink:href="#m5c647bf143" x="90" y="235.546341" style="stroke: #000000; stroke-width: 0.8"/>
      </g>
     </g>
     <g id="text_12">
      <!-- 20 -->
      <g transform="translate(70.275 239.34556) scale(0.1 -0.1)">
       <use xlink:href="#DejaVuSans-32"/>
       <use xlink:href="#DejaVuSans-30" transform="translate(63.623047 0)"/>
      </g>
     </g>
    </g>
    <g id="ytick_6">
     <g id="line2d_12">
      <g>
       <use xlink:href="#m5c647bf143" x="90" y="198.312926" style="stroke: #000000; stroke-width: 0.8"/>
      </g>
     </g>
     <g id="text_13">
      <!-- 25 -->
      <g transform="translate(70.275 202.112145) scale(0.1 -0.1)">
       <use xlink:href="#DejaVuSans-32"/>
       <use xlink:href="#DejaVuSans-35" transform="translate(63.623047 0)"/>
      </g>
     </g>
    </g>
    <g id="ytick_7">
     <g id="line2d_13">
      <g>
       <use xlink:href="#m5c647bf143" x="90" y="161.079512" style="stroke: #000000; stroke-width: 0.8"/>
      </g>
     </g>
     <g id="text_14">
      <!-- 30 -->
      <g transform="translate(70.275 164.878731) scale(0.1 -0.1)">
       <use xlink:href="#DejaVuSans-33"/>
       <use xlink:href="#DejaVuSans-30" transform="translate(63.623047 0)"/>
      </g>
     </g>
    </g>
    <g id="ytick_8">
     <g id="line2d_14">
      <g>
       <use xlink:href="#m5c647bf143" x="90" y="123.846097" style="stroke: #000000; stroke-width: 0.8"/>
      </g>
     </g>
     <g id="text_15">
      <!-- 35 -->
      <g transform="translate(70.275 127.645316) scale(0.1 -0.1)">
       <use xlink:href="#DejaVuSans-33"/>
       <use xlink:href="#DejaVuSans-35" transform="translate(63.623047 0)"/>
      </g>
     </g>
    </g>
    <g id="ytick_9">
     <g id="line2d_15">
      <g>
       <use xlink:href="#m5c647bf143" x="90" y="86.612682" style="stroke: #000000; stroke-width: 0.8"/>
      </g>
     </g>
     <g id="text_16">
      <!-- 40 -->
      <g transform="translate(70.275 90.411901) scale(0.1 -0.1)">
       <use xlink:href="#DejaVuSans-34"/>
       <use xlink:href="#DejaVuSans-30" transform="translate(63.623047 0)"/>
      </g>
     </g>
    </g>
    <g id="text_17">
     <!-- Average time (ms) -->
     <g transform="translate(64.195312 264.543594) rotate(-90) scale(0.1 -0.1)">
      <defs>
       <path id="DejaVuSans-41" d="M 2188 4044 
L 1331 1722 
L 3047 1722 
L 2188 4044 
z
M 1831 4666 
L 2547 4666 
L 4325 0 
L 3669 0 
L 3244 1197 
L 1141 1197 
L 716 0 
L 50 0 
L 1831 4666 
z
" transform="scale(0.015625)"/>
       <path id="DejaVuSans-76" d="M 191 3500 
L 800 3500 
L 1894 563 
L 2988 3500 
L 3597 3500 
L 2284 0 
L 1503 0 
L 191 3500 
z
" transform="scale(0.015625)"/>
       <path id="DejaVuSans-72" d="M 2631 2963 
Q 2534 3019 2420 3045 
Q 2306 3072 2169 3072 
Q 1681 3072 1420 2755 
Q 1159 2438 1159 1844 
L 1159 0 
L 581 0 
L 581 3500 
L 1159 3500 
L 1159 2956 
Q 1341 3275 1631 3429 
Q 1922 3584 2338 3584 
Q 2397 3584 2469 3576 
Q 2541 3569 2628 3553 
L 2631 2963 
z
" transform="scale(0.015625)"/>
       <path id="DejaVuSans-61" d="M 2194 1759 
Q 1497 1759 1228 1600 
Q 959 1441 959 1056 
Q 959 750 1161 570 
Q 1363 391 1709 391 
Q 2188 391 2477 730 
Q 2766 1069 2766 1631 
L 2766 1759 
L 2194 1759 
z
M 3341 1997 
L 3341 0 
L 2766 0 
L 2766 531 
Q 2569 213 2275 61 
Q 1981 -91 1556 -91 
Q 1019 -91 701 211 
Q 384 513 384 1019 
Q 384 1609 779 1909 
Q 1175 2209 1959 2209 
L 2766 2209 
L 2766 2266 
Q 2766 2663 2505 2880 
Q 2244 3097 1772 3097 
Q 1472 3097 1187 3025 
Q 903 2953 641 2809 
L 641 3341 
Q 956 3463 1253 3523 
Q 1550 3584 1831 3584 
Q 2591 3584 2966 3190 
Q 3341 2797 3341 1997 
z
" transform="scale(0.015625)"/>
       <path id="DejaVuSans-67" d="M 2906 1791 
Q 2906 2416 2648 2759 
Q 2391 3103 1925 3103 
Q 1463 3103 1205 2759 
Q 947 2416 947 1791 
Q 947 1169 1205 825 
Q 1463 481 1925 481 
Q 2391 481 2648 825 
Q 2906 1169 2906 1791 
z
M 3481 434 
Q 3481 -459 3084 -895 
Q 2688 -1331 1869 -1331 
Q 1566 -1331 1297 -1286 
Q 1028 -1241 775 -1147 
L 775 -588 
Q 1028 -725 1275 -790 
Q 1522 -856 1778 -856 
Q 2344 -856 2625 -561 
Q 2906 -266 2906 331 
L 2906 616 
Q 2728 306 2450 153 
Q 2172 0 1784 0 
Q 1141 0 747 490 
Q 353 981 353 1791 
Q 353 2603 747 3093 
Q 1141 3584 1784 3584 
Q 2172 3584 2450 3431 
Q 2728 3278 2906 2969 
L 2906 3500 
L 3481 3500 
L 3481 434 
z
" transform="scale(0.015625)"/>
       <path id="DejaVuSans-20" transform="scale(0.015625)"/>
       <path id="DejaVuSans-74" d="M 1172 4494 
L 1172 3500 
L 2356 3500 
L 2356 3053 
L 1172 3053 
L 1172 1153 
Q 1172 725 1289 603 
Q 1406 481 1766 481 
L 2356 481 
L 2356 0 
L 1766 0 
Q 1100 0 847 248 
Q 594 497 594 1153 
L 594 3053 
L 172 3053 
L 172 3500 
L 594 3500 
L 594 4494 
L 1172 4494 
z
" transform="scale(0.015625)"/>
       <path id="DejaVuSans-69" d="M 603 3500 
L 1178 3500 
L 1178 0 
L 603 0 
L 603 3500 
z
M 603 4863 
L 1178 4863 
L 1178 4134 
L 603 4134 
L 603 4863 
z
" transform="scale(0.015625)"/>
       <path id="DejaVuSans-6d" d="M 3328 2828 
Q 3544 3216 3844 3400 
Q 4144 3584 4550 3584 
Q 5097 3584 5394 3201 
Q 5691 2819 5691 2113 
L 5691 0 
L 5113 0 
L 5113 2094 
Q 5113 2597 4934 2840 
Q 4756 3084 4391 3084 
Q 3944 3084 3684 2787 
Q 3425 2491 3425 1978 
L 3425 0 
L 2847 0 
L 2847 2094 
Q 2847 2600 2669 2842 
Q 2491 3084 2119 3084 
Q 1678 3084 1418 2786 
Q 1159 2488 1159 1978 
L 1159 0 
L 581 0 
L 581 3500 
L 1159 3500 
L 1159 2956 
Q 1356 3278 1631 3431 
Q 1906 3584 2284 3584 
Q 2666 3584 2933 3390 
Q 3200 3197 3328 2828 
z
" transform="scale(0.015625)"/>
       <path id="DejaVuSans-28" d="M 1984 4856 
Q 1566 4138 1362 3434 
Q 1159 2731 1159 2009 
Q 1159 1288 1364 580 
Q 1569 -128 1984 -844 
L 1484 -844 
Q 1016 -109 783 600 
Q 550 1309 550 2009 
Q 550 2706 781 3412 
Q 1013 4119 1484 4856 
L 1984 4856 
z
" transform="scale(0.015625)"/>
       <path id="DejaVuSans-73" d="M 2834 3397 
L 2834 2853 
Q 2591 2978 2328 3040 
Q 2066 3103 1784 3103 
Q 1356 3103 1142 2972 
Q 928 2841 928 2578 
Q 928 2378 1081 2264 
Q 1234 2150 1697 2047 
L 1894 2003 
Q 2506 1872 2764 1633 
Q 3022 1394 3022 966 
Q 3022 478 2636 193 
Q 2250 -91 1575 -91 
Q 1294 -91 989 -36 
Q 684 19 347 128 
L 347 722 
Q 666 556 975 473 
Q 1284 391 1588 391 
Q 1994 391 2212 530 
Q 2431 669 2431 922 
Q 2431 1156 2273 1281 
Q 2116 1406 1581 1522 
L 1381 1569 
Q 847 1681 609 1914 
Q 372 2147 372 2553 
Q 372 3047 722 3315 
Q 1072 3584 1716 3584 
Q 2034 3584 2315 3537 
Q 2597 3491 2834 3397 
z
" transform="scale(0.015625)"/>
       <path id="DejaVuSans-29" d="M 513 4856 
L 1013 4856 
Q 1481 4119 1714 3412 
Q 1947 2706 1947 2009 
Q 1947 1309 1714 600 
Q 1481 -109 1013 -844 
L 513 -844 
Q 928 -128 1133 580 
Q 1338 1288 1338 2009 
Q 1338 2731 1133 3434 
Q 928 4138 513 4856 
z
" transform="scale(0.015625)"/>
      </defs>
      <use xlink:href="#DejaVuSans-41"/>
      <use xlink:href="#DejaVuSans-76" transform="translate(62.533203 0)"/>
      <use xlink:href="#DejaVuSans-65" transform="translate(121.712891 0)"/>
      <use xlink:href="#DejaVuSans-72" transform="translate(183.236328 0)"/>
      <use xlink:href="#DejaVuSans-61" transform="translate(224.349609 0)"/>
      <use xlink:href="#DejaVuSans-67" transform="translate(285.628906 0)"/>
      <use xlink:href="#DejaVuSans-65" transform="translate(349.105469 0)"/>
      <use xlink:href="#DejaVuSans-20" transform="translate(410.628906 0)"/>
      <use xlink:href="#DejaVuSans-74" transform="translate(442.416016 0)"/>
      <use xlink:href="#DejaVuSans-69" transform="translate(481.625 0)"/>
      <use xlink:href="#DejaVuSans-6d" transform="translate(509.408203 0)"/>
      <use xlink:href="#DejaVuSans-65" transform="translate(606.820312 0)"/>
      <use xlink:href="#DejaVuSans-20" transform="translate(668.34375 0)"/>
      <use xlink:href="#DejaVuSans-28" transform="translate(700.130859 0)"/>
      <use xlink:href="#DejaVuSans-6d" transform="translate(739.144531 0)"/>
      <use xlink:href="#DejaVuSans-73" transform="translate(836.556641 0)"/>
      <use xlink:href="#DejaVuSans-29" transform="translate(888.65625 0)"/>
     </g>
    </g>
   </g>
   <g id="line2d_16">
    <path d="M 115.363636 66.77903 
L 116.291009 249.521397 
L 117.218381 346.476192 
L 118.145754 351.753444 
L 119.073126 341.756963 
L 120.000499 350.994603 
L 120.927871 341.849063 
L 121.855243 339.541334 
L 122.782616 349.806742 
L 123.709988 352.891294 
L 124.637361 340.906573 
L 125.564733 352.416411 
L 126.492106 352.21304 
L 127.419478 349.482126 
L 129.274223 350.679545 
L 130.201595 343.122391 
L 131.128968 346.326132 
L 132.05634 344.285317 
L 132.983713 352.183295 
L 133.911085 345.481595 
L 134.838458 344.579949 
L 135.76583 338.526159 
L 136.693203 341.611083 
L 137.620575 339.180739 
L 138.547947 340.946519 
L 139.47532 326.169158 
L 140.402692 327.827677 
L 141.330065 337.890504 
L 142.257437 340.565004 
L 143.18481 337.147123 
L 144.112182 323.027258 
L 145.039555 322.533245 
L 145.966927 320.824644 
L 146.894299 312.912993 
L 147.821672 309.930433 
L 148.749044 297.517978 
L 149.676417 279.880252 
L 150.603789 289.997985 
L 151.531162 284.274617 
L 152.458534 229.563519 
L 153.385907 232.982076 
L 154.313279 237.045153 
L 155.240651 241.661853 
L 156.168024 252.802536 
L 157.095396 256.282977 
L 158.022769 248.251737 
L 158.950141 250.232736 
L 159.877514 247.559396 
L 160.804886 274.20688 
L 161.732259 292.770186 
L 162.659631 244.112731 
L 163.587003 253.540922 
L 164.514376 279.906429 
L 165.441748 290.278362 
L 166.369121 281.376126 
L 168.223866 236.095402 
L 169.151238 271.074363 
L 170.078611 260.738647 
L 171.005983 269.063789 
L 172.860728 253.523483 
L 173.7881 272.375732 
L 174.715473 273.160099 
L 175.642845 286.756342 
L 176.570218 275.989285 
L 177.49759 287.607261 
L 178.424963 286.995867 
L 179.352335 291.332339 
L 180.279707 298.213575 
L 181.20708 301.656937 
L 182.134452 301.441785 
L 183.061825 283.814843 
L 183.989197 279.592482 
L 184.91657 260.554672 
L 185.843942 296.286717 
L 187.698687 281.258007 
L 188.626059 291.119586 
L 189.553432 282.64945 
L 190.480804 299.637657 
L 191.408177 271.826374 
L 192.335549 301.060391 
L 193.262922 272.74799 
L 194.190294 286.220331 
L 195.117667 307.810905 
L 196.045039 280.693494 
L 196.972412 297.636424 
L 197.899784 308.5362 
L 198.827156 331.019192 
L 199.754529 305.269984 
L 200.681901 324.286556 
L 201.609274 310.670141 
L 202.536646 323.513975 
L 203.464019 330.352514 
L 204.391391 339.067887 
L 205.318764 337.869538 
L 206.246136 333.119167 
L 207.173508 327.135979 
L 208.100881 328.402098 
L 209.028253 339.472952 
L 209.955626 320.081738 
L 210.882998 328.509409 
L 211.810371 318.064075 
L 212.737743 334.443482 
L 213.665116 343.967018 
L 214.592488 339.460307 
L 215.51986 336.923944 
L 216.447233 332.642409 
L 217.374605 329.106758 
L 218.301978 305.30384 
L 219.22935 339.539164 
L 220.156723 340.583657 
L 221.084095 320.367847 
L 222.011468 342.88277 
L 222.93884 338.896602 
L 223.866212 347.714142 
L 224.793585 343.018756 
L 225.720957 335.985875 
L 226.64833 341.71664 
L 227.575702 353.632537 
L 228.503075 346.660437 
L 229.430447 348.702313 
L 230.35782 352.759083 
L 231.285192 344.121245 
L 232.212564 351.706242 
L 233.139937 341.613066 
L 234.067309 348.64758 
L 234.994682 343.087824 
L 235.922054 352.104946 
L 236.849427 347.445033 
L 237.776799 346.900569 
L 238.704172 357.55029 
L 239.631544 351.770942 
L 240.558916 354.399954 
L 241.486289 351.913577 
L 242.413661 355.904772 
L 243.341034 357.391379 
L 244.268406 353.503556 
L 245.195779 355.654936 
L 246.123151 360.72624 
L 247.050524 350.836085 
L 247.977896 358.653221 
L 248.905268 359.955235 
L 249.832641 359.02479 
L 250.760013 349.609397 
L 251.687386 358.83567 
L 252.614758 358.616593 
L 253.542131 352.952473 
L 254.469503 359.717199 
L 255.396876 357.936162 
L 256.324248 358.573772 
L 257.25162 358.130271 
L 258.178993 361.112373 
L 259.106365 360.096141 
L 260.033738 359.876999 
L 260.96111 360.130126 
L 261.888483 361.194288 
L 262.815855 358.467875 
L 263.743228 359.045844 
L 264.6706 359.771042 
L 265.597972 358.869361 
L 266.525345 360.380475 
L 267.452717 359.469386 
L 268.38009 359.316571 
L 270.234835 359.429063 
L 271.162207 358.748471 
L 272.08958 361.509107 
L 273.016952 359.207386 
L 273.944324 361.793078 
L 274.871697 356.578814 
L 276.726442 362.344627 
L 277.653814 361.206294 
L 278.581187 362.074008 
L 279.508559 362.142037 
L 280.435932 361.089611 
L 281.363304 363.930629 
L 282.290676 360.610163 
L 283.218049 361.122757 
L 284.145421 363.975179 
L 285.072794 363.15306 
L 286.000166 362.516045 
L 286.927539 363.67069 
L 287.854911 360.715564 
L 288.782284 360.332224 
L 289.709656 361.675904 
L 290.637028 361.861174 
L 291.564401 359.916583 
L 292.491773 359.859241 
L 293.419146 358.080313 
L 294.346518 359.801972 
L 295.273891 361.917622 
L 296.201263 359.875206 
L 297.128636 360.828503 
L 298.056008 361.445787 
L 298.98338 351.563478 
L 299.910753 360.683897 
L 300.838125 360.913267 
L 301.765498 362.495093 
L 302.69287 361.422961 
L 303.620243 360.607775 
L 304.547615 363.649419 
L 305.474988 359.982727 
L 306.40236 359.98704 
L 307.329732 360.797306 
L 308.257105 359.967415 
L 309.184477 359.726959 
L 310.11185 357.798289 
L 311.039222 360.703107 
L 311.966595 358.535912 
L 312.893967 359.914501 
L 313.82134 359.774675 
L 314.748712 361.459809 
L 315.676084 361.071849 
L 316.603457 361.587104 
L 317.530829 358.378591 
L 318.458202 361.58306 
L 321.240319 363.757182 
L 322.167692 362.435143 
L 323.095064 357.735676 
L 324.022436 363.161504 
L 324.949809 360.222372 
L 325.877181 361.29622 
L 326.804554 363.692464 
L 327.731926 361.578478 
L 328.659299 363.432663 
L 329.586671 363.901302 
L 330.514044 363.192564 
L 331.441416 360.219117 
L 332.368788 363.005666 
L 333.296161 363.271414 
L 334.223533 361.959264 
L 335.150906 360.028777 
L 336.078278 362.670282 
L 337.005651 359.954084 
L 337.933023 359.947112 
L 338.860396 361.83419 
L 339.787768 360.763619 
L 340.71514 362.017623 
L 341.642513 358.661106 
L 342.569885 357.74804 
L 343.497258 360.74821 
L 344.42463 361.830142 
L 345.352003 361.754803 
L 346.279375 360.647797 
L 347.206748 360.80006 
L 348.13412 360.271392 
L 349.061492 356.265802 
L 349.988865 357.541454 
L 350.916237 361.741951 
L 351.84361 352.870812 
L 352.770982 352.900313 
L 353.698355 360.558869 
L 354.625727 360.57392 
L 355.5531 361.370225 
L 356.480472 359.973991 
L 357.407844 363.386861 
L 358.335217 362.199576 
L 359.262589 362.422085 
L 360.189962 361.663422 
L 361.117334 360.260289 
L 362.044707 360.326333 
L 362.972079 361.771559 
L 363.899452 360.716361 
L 364.826824 359.192241 
L 365.754196 361.523518 
L 366.681569 360.060693 
L 367.608941 361.111038 
L 368.536314 360.538301 
L 369.463686 362.345197 
L 370.391059 360.144382 
L 371.318431 359.699929 
L 372.245804 361.650077 
L 373.173176 360.906067 
L 374.100548 358.662654 
L 375.027921 360.60525 
L 375.955293 360.36197 
L 376.882666 360.987418 
L 377.810038 362.400295 
L 378.737411 360.606818 
L 379.664783 361.923044 
L 380.592156 360.934907 
L 381.519528 362.593608 
L 382.4469 360.907904 
L 383.374273 363.293525 
L 384.301645 362.757934 
L 385.229018 362.71878 
L 386.15639 359.412069 
L 387.083763 360.365205 
L 388.938508 363.717907 
L 389.86588 360.683905 
L 390.793252 362.6475 
L 391.720625 359.92664 
L 392.647997 360.533445 
L 393.57537 359.095988 
L 395.430115 359.672115 
L 396.357487 357.903216 
L 397.28486 360.408714 
L 398.212232 361.785465 
L 399.139604 363.808244 
L 400.066977 363.533917 
L 400.994349 363.942012 
L 401.921722 363.307652 
L 402.849094 360.134797 
L 403.776467 360.687268 
L 404.703839 358.166695 
L 405.631212 361.345833 
L 406.558584 361.849584 
L 407.485956 360.526685 
L 408.413329 358.936578 
L 409.340701 362.525782 
L 410.268074 363.716147 
L 411.195446 356.79135 
L 412.122819 352.845673 
L 413.050191 361.865064 
L 413.977564 362.718205 
L 414.904936 363.249056 
L 415.832308 361.972925 
L 416.759681 361.7671 
L 417.687053 361.443263 
L 418.614426 361.415055 
L 419.541798 361.652708 
L 420.469171 362.721412 
L 421.396543 354.290317 
L 422.323916 361.638157 
L 423.251288 360.761266 
L 424.17866 360.686416 
L 425.106033 355.46259 
L 426.033405 361.085228 
L 427.88815 360.473808 
L 428.815523 362.868055 
L 430.670268 359.825278 
L 431.59764 360.738729 
L 432.525012 362.828848 
L 433.452385 363.615157 
L 434.379757 361.209305 
L 435.30713 362.749506 
L 436.234502 358.977574 
L 437.161875 362.77697 
L 438.089247 358.513196 
L 439.943992 363.652272 
L 440.871364 363.638335 
L 441.798737 362.694367 
L 442.726109 360.600815 
L 443.653482 363.285733 
L 444.580854 363.057418 
L 445.508227 357.864617 
L 446.435599 361.481187 
L 447.362972 361.295833 
L 448.290344 359.015162 
L 449.217716 360.989962 
L 450.145089 354.628026 
L 451.072461 361.851949 
L 451.999834 363.579684 
L 452.927206 361.723514 
L 453.854579 354.787474 
L 454.781951 362.203054 
L 455.709324 360.113767 
L 456.636696 362.371465 
L 457.564068 353.360437 
L 458.491441 362.875708 
L 459.418813 361.543105 
L 460.346186 361.927947 
L 461.273558 360.618958 
L 462.200931 362.038691 
L 463.128303 361.757811 
L 464.055676 363.824506 
L 464.983048 362.762818 
L 465.91042 362.315897 
L 466.837793 362.311003 
L 467.765165 360.187472 
L 468.692538 353.875246 
L 469.61991 360.109867 
L 470.547283 359.97766 
L 471.474655 357.121857 
L 472.402028 362.956177 
L 473.3294 361.11351 
L 474.256772 361.737385 
L 475.184145 362.108169 
L 476.111517 363.024922 
L 477.03889 362.230721 
L 477.966262 364.19038 
L 478.893635 362.028581 
L 479.821007 363.054956 
L 480.74838 360.480814 
L 481.675752 363.685336 
L 482.603124 363.09197 
L 483.530497 358.707648 
L 484.457869 362.954326 
L 485.385242 364.107913 
L 486.312614 361.686061 
L 487.239987 363.464906 
L 488.167359 364.501867 
L 489.094732 361.77821 
L 490.022104 362.941692 
L 491.876849 364.962561 
L 492.804221 364.463938 
L 493.731594 363.795517 
L 494.658966 362.804332 
L 495.586339 362.160919 
L 496.513711 364.292217 
L 497.441084 364.414721 
L 498.368456 362.320503 
L 499.295828 362.458445 
L 500.223201 364.038365 
L 501.150573 360.626715 
L 502.077946 362.71516 
L 503.005318 360.524896 
L 503.932691 361.665859 
L 505.787436 362.529865 
L 506.714808 361.96958 
L 507.64218 362.930748 
L 508.569553 360.975119 
L 509.496925 361.272701 
L 510.424298 362.484928 
L 511.35167 362.684425 
L 512.279043 360.318132 
L 513.206415 354.273974 
L 514.133788 364.06709 
L 515.06116 363.419105 
L 515.988532 361.891539 
L 516.915905 362.50726 
L 517.843277 361.948231 
L 518.77065 360.886997 
L 519.698022 362.054073 
L 520.625395 360.897878 
L 521.552767 362.924504 
L 522.48014 363.033376 
L 523.407512 361.58512 
L 524.334884 362.701511 
L 525.262257 363.534592 
L 526.189629 363.949623 
L 528.044374 362.371237 
L 528.971747 365.027211 
L 529.899119 358.665487 
L 530.826492 362.67348 
L 531.753864 362.307828 
L 532.681236 363.96032 
L 533.608609 363.017034 
L 534.535981 362.937863 
L 535.463354 363.281749 
L 536.390726 361.011382 
L 537.318099 365.141008 
L 538.245471 364.18285 
L 539.172844 363.491667 
L 540.100216 361.927313 
L 541.027588 364.5846 
L 541.954961 362.634494 
L 542.882333 362.698981 
L 543.809706 364.531663 
L 544.737078 364.486734 
L 545.664451 363.378539 
L 546.591823 363.914273 
L 547.519196 360.326365 
L 548.446568 363.045436 
L 549.373941 362.997844 
L 550.301313 364.051723 
L 551.228685 362.380353 
L 552.156058 363.894193 
L 553.08343 360.810751 
L 554.010803 362.204094 
L 554.938175 364.422342 
L 555.865548 361.010287 
L 556.79292 362.27087 
L 557.720293 362.544498 
L 558.647665 364.342227 
L 559.575037 355.072719 
L 560.50241 363.134235 
L 561.429782 362.131851 
L 562.357155 363.177251 
L 563.284527 363.379597 
L 564.2119 362.384715 
L 565.139272 362.907744 
L 566.066645 361.954012 
L 567.921389 363.026492 
L 568.848762 362.121823 
L 569.776134 363.511006 
L 570.703507 362.655419 
L 571.630879 362.973384 
L 572.558252 361.561519 
L 573.485624 361.044289 
L 574.412997 363.098828 
L 575.340369 362.864813 
L 576.267741 364.375946 
L 577.195114 362.700739 
L 578.122486 361.889496 
L 579.049859 362.208801 
L 579.977231 360.633951 
L 580.904604 363.645907 
L 581.831976 361.850956 
L 582.759349 362.759025 
L 583.686721 363.220408 
L 584.614093 364.550792 
L 585.541466 365.559626 
L 586.468838 362.591132 
L 587.396211 363.188663 
L 588.323583 358.661799 
L 589.250956 359.479408 
L 590.178328 361.54506 
L 591.105701 364.8774 
L 592.033073 364.317804 
L 592.960445 363.23369 
L 593.887818 364.284069 
L 594.81519 363.813759 
L 595.742563 360.529448 
L 596.669935 362.592005 
L 597.597308 361.213385 
L 598.52468 364.560685 
L 599.452053 364.02442 
L 600.379425 362.396328 
L 601.306797 363.281675 
L 602.23417 363.016812 
L 603.161542 362.621364 
L 605.016287 363.50183 
L 605.94366 364.912563 
L 606.871032 363.01362 
L 607.798405 364.186039 
L 609.653149 364.383088 
L 610.580522 362.492629 
L 611.507894 362.64496 
L 612.435267 363.269724 
L 613.362639 363.256568 
L 614.290012 364.190644 
L 615.217384 362.064276 
L 616.144757 363.172567 
L 617.072129 359.799439 
L 617.999501 361.681768 
L 618.926874 364.323545 
L 619.854246 362.554836 
L 621.708991 363.717616 
L 622.636364 360.383474 
L 622.636364 360.383474 
" clip-path="url(#p276621b31a)" style="fill: none; stroke: #1f77b4; stroke-width: 1.5; stroke-linecap: square"/>
   </g>
   <g id="patch_3">
    <path d="M 90 384.48 
L 90 51.84 
" style="fill: none; stroke: #000000; stroke-width: 0.8; stroke-linejoin: miter; stroke-linecap: square"/>
   </g>
   <g id="patch_4">
    <path d="M 648 384.48 
L 648 51.84 
" style="fill: none; stroke: #000000; stroke-width: 0.8; stroke-linejoin: miter; stroke-linecap: square"/>
   </g>
   <g id="patch_5">
    <path d="M 90 384.48 
L 648 384.48 
" style="fill: none; stroke: #000000; stroke-width: 0.8; stroke-linejoin: miter; stroke-linecap: square"/>
   </g>
   <g id="patch_6">
    <path d="M 90 51.84 
L 648 51.84 
" style="fill: none; stroke: #000000; stroke-width: 0.8; stroke-linejoin: miter; stroke-linecap: square"/>
   </g>
   <g id="text_18">
    <!-- Average time per index -->
    <g transform="translate(298.700625 45.84) scale(0.12 -0.12)">
     <defs>
      <path id="DejaVuSans-70" d="M 1159 525 
L 1159 -1331 
L 581 -1331 
L 581 3500 
L 1159 3500 
L 1159 2969 
Q 1341 3281 1617 3432 
Q 1894 3584 2278 3584 
Q 2916 3584 3314 3078 
Q 3713 2572 3713 1747 
Q 3713 922 3314 415 
Q 2916 -91 2278 -91 
Q 1894 -91 1617 61 
Q 1341 213 1159 525 
z
M 3116 1747 
Q 3116 2381 2855 2742 
Q 2594 3103 2138 3103 
Q 1681 3103 1420 2742 
Q 1159 2381 1159 1747 
Q 1159 1113 1420 752 
Q 1681 391 2138 391 
Q 2594 391 2855 752 
Q 3116 1113 3116 1747 
z
" transform="scale(0.015625)"/>
     </defs>
     <use xlink:href="#DejaVuSans-41"/>
     <use xlink:href="#DejaVuSans-76" transform="translate(62.533203 0)"/>
     <use xlink:href="#DejaVuSans-65" transform="translate(121.712891 0)"/>
     <use xlink:href="#DejaVuSans-72" transform="translate(183.236328 0)"/>
     <use xlink:href="#DejaVuSans-61" transform="translate(224.349609 0)"/>
     <use xlink:href="#DejaVuSans-67" transform="translate(285.628906 0)"/>
     <use xlink:href="#DejaVuSans-65" transform="translate(349.105469 0)"/>
     <use xlink:href="#DejaVuSans-20" transform="translate(410.628906 0)"/>
     <use xlink:href="#DejaVuSans-74" transform="translate(442.416016 0)"/>
     <use xlink:href="#DejaVuSans-69" transform="translate(481.625 0)"/>
     <use xlink:href="#DejaVuSans-6d" transform="translate(509.408203 0)"/>
     <use xlink:href="#DejaVuSans-65" transform="translate(606.820312 0)"/>
     <use xlink:href="#DejaVuSans-20" transform="translate(668.34375 0)"/>
     <use xlink:href="#DejaVuSans-70" transform="translate(700.130859 0)"/>
     <use xlink:href="#DejaVuSans-65" transform="translate(763.607422 0)"/>
     <use xlink:href="#DejaVuSans-72" transform="translate(825.130859 0)"/>
     <use xlink:href="#DejaVuSans-20" transform="translate(866.244141 0)"/>
     <use xlink:href="#DejaVuSans-69" transform="translate(898.03125 0)"/>
     <use xlink:href="#DejaVuSans-6e" transform="translate(925.814453 0)"/>
     <use xlink:href="#DejaVuSans-64" transform="translate(989.193359 0)"/>
     <use xlink:href="#DejaVuSans-65" transform="translate(1052.669922 0)"/>
     <use xlink:href="#DejaVuSans-78" transform="translate(1112.443359 0)"/>
    </g>
   </g>
   <g id="legend_1">
    <g id="patch_7">
     <path d="M 525.064062 74.518125 
L 641 74.518125 
Q 643 74.518125 643 72.518125 
L 643 58.84 
Q 643 56.84 641 56.84 
L 525.064062 56.84 
Q 523.064062 56.84 523.064062 58.84 
L 523.064062 72.518125 
Q 523.064062 74.518125 525.064062 74.518125 
z
" style="fill: #ffffff; opacity: 0.8; stroke: #cccccc; stroke-linejoin: miter"/>
    </g>
    <g id="line2d_17">
     <path d="M 527.064062 64.938438 
L 537.064062 64.938438 
L 547.064062 64.938438 
" style="fill: none; stroke: #1f77b4; stroke-width: 1.5; stroke-linecap: square"/>
    </g>
    <g id="text_19">
     <!-- registerFaultload -->
     <g transform="translate(555.064062 68.438438) scale(0.1 -0.1)">
      <defs>
       <path id="DejaVuSans-46" d="M 628 4666 
L 3309 4666 
L 3309 4134 
L 1259 4134 
L 1259 2759 
L 3109 2759 
L 3109 2228 
L 1259 2228 
L 1259 0 
L 628 0 
L 628 4666 
z
" transform="scale(0.015625)"/>
       <path id="DejaVuSans-75" d="M 544 1381 
L 544 3500 
L 1119 3500 
L 1119 1403 
Q 1119 906 1312 657 
Q 1506 409 1894 409 
Q 2359 409 2629 706 
Q 2900 1003 2900 1516 
L 2900 3500 
L 3475 3500 
L 3475 0 
L 2900 0 
L 2900 538 
Q 2691 219 2414 64 
Q 2138 -91 1772 -91 
Q 1169 -91 856 284 
Q 544 659 544 1381 
z
M 1991 3584 
L 1991 3584 
z
" transform="scale(0.015625)"/>
       <path id="DejaVuSans-6c" d="M 603 4863 
L 1178 4863 
L 1178 0 
L 603 0 
L 603 4863 
z
" transform="scale(0.015625)"/>
       <path id="DejaVuSans-6f" d="M 1959 3097 
Q 1497 3097 1228 2736 
Q 959 2375 959 1747 
Q 959 1119 1226 758 
Q 1494 397 1959 397 
Q 2419 397 2687 759 
Q 2956 1122 2956 1747 
Q 2956 2369 2687 2733 
Q 2419 3097 1959 3097 
z
M 1959 3584 
Q 2709 3584 3137 3096 
Q 3566 2609 3566 1747 
Q 3566 888 3137 398 
Q 2709 -91 1959 -91 
Q 1206 -91 779 398 
Q 353 888 353 1747 
Q 353 2609 779 3096 
Q 1206 3584 1959 3584 
z
" transform="scale(0.015625)"/>
      </defs>
      <use xlink:href="#DejaVuSans-72"/>
      <use xlink:href="#DejaVuSans-65" transform="translate(38.863281 0)"/>
      <use xlink:href="#DejaVuSans-67" transform="translate(100.386719 0)"/>
      <use xlink:href="#DejaVuSans-69" transform="translate(163.863281 0)"/>
      <use xlink:href="#DejaVuSans-73" transform="translate(191.646484 0)"/>
      <use xlink:href="#DejaVuSans-74" transform="translate(243.746094 0)"/>
      <use xlink:href="#DejaVuSans-65" transform="translate(282.955078 0)"/>
      <use xlink:href="#DejaVuSans-72" transform="translate(344.478516 0)"/>
      <use xlink:href="#DejaVuSans-46" transform="translate(385.591797 0)"/>
      <use xlink:href="#DejaVuSans-61" transform="translate(433.986328 0)"/>
      <use xlink:href="#DejaVuSans-75" transform="translate(495.265625 0)"/>
      <use xlink:href="#DejaVuSans-6c" transform="translate(558.644531 0)"/>
      <use xlink:href="#DejaVuSans-74" transform="translate(586.427734 0)"/>
      <use xlink:href="#DejaVuSans-6c" transform="translate(625.636719 0)"/>
      <use xlink:href="#DejaVuSans-6f" transform="translate(653.419922 0)"/>
      <use xlink:href="#DejaVuSans-61" transform="translate(714.601562 0)"/>
      <use xlink:href="#DejaVuSans-64" transform="translate(775.880859 0)"/>
     </g>
    </g>
   </g>
  </g>
 </g>
 <defs>
  <clipPath id="p276621b31a">
   <rect x="90" y="51.84" width="558" height="332.64"/>
  </clipPath>
 </defs>
</svg>
