<?xml version="1.0" encoding="utf-8" standalone="no"?>
<!DOCTYPE svg PUBLIC "-//W3C//DTD SVG 1.1//EN"
  "http://www.w3.org/Graphics/SVG/1.1/DTD/svg11.dtd">
<svg xmlns:xlink="http://www.w3.org/1999/xlink" width="720pt" height="432pt" viewBox="0 0 720 432" xmlns="http://www.w3.org/2000/svg" version="1.1">
 <metadata>
  <rdf:RDF xmlns:dc="http://purl.org/dc/elements/1.1/" xmlns:cc="http://creativecommons.org/ns#" xmlns:rdf="http://www.w3.org/1999/02/22-rdf-syntax-ns#">
   <cc:Work>
    <dc:type rdf:resource="http://purl.org/dc/dcmitype/StillImage"/>
    <dc:date>2025-06-10T01:38:25.125062</dc:date>
    <dc:format>image/svg+xml</dc:format>
    <dc:creator>
     <cc:Agent>
      <dc:title>Matplotlib v3.10.3, https://matplotlib.org/</dc:title>
     </cc:Agent>
    </dc:creator>
   </cc:Work>
  </rdf:RDF>
 </metadata>
 <defs>
  <style type="text/css">*{stroke-linejoin: round; stroke-linecap: butt}</style>
 </defs>
 <g id="figure_1">
  <g id="patch_1">
   <path d="M 0 432 
L 720 432 
L 720 0 
L 0 0 
z
" style="fill: #ffffff"/>
  </g>
  <g id="axes_1">
   <g id="patch_2">
    <path d="M 90 384.48 
L 648 384.48 
L 648 51.84 
L 90 51.84 
z
" style="fill: #ffffff"/>
   </g>
   <g id="matplotlib.axis_1">
    <g id="xtick_1">
     <g id="line2d_1">
      <defs>
       <path id="m5efe079132" d="M 0 0 
L 0 3.5 
" style="stroke: #000000; stroke-width: 0.8"/>
      </defs>
      <g>
       <use xlink:href="#m5efe079132" x="115.363636" y="384.48" style="stroke: #000000; stroke-width: 0.8"/>
      </g>
     </g>
     <g id="text_1">
      <!-- 0 -->
      <g transform="translate(112.182386 399.078438) scale(0.1 -0.1)">
       <defs>
        <path id="DejaVuSans-30" d="M 2034 4250 
Q 1547 4250 1301 3770 
Q 1056 3291 1056 2328 
Q 1056 1369 1301 889 
Q 1547 409 2034 409 
Q 2525 409 2770 889 
Q 3016 1369 3016 2328 
Q 3016 3291 2770 3770 
Q 2525 4250 2034 4250 
z
M 2034 4750 
Q 2819 4750 3233 4129 
Q 3647 3509 3647 2328 
Q 3647 1150 3233 529 
Q 2819 -91 2034 -91 
Q 1250 -91 836 529 
Q 422 1150 422 2328 
Q 422 3509 836 4129 
Q 1250 4750 2034 4750 
z
" transform="scale(0.015625)"/>
       </defs>
       <use xlink:href="#DejaVuSans-30"/>
      </g>
     </g>
    </g>
    <g id="xtick_2">
     <g id="line2d_2">
      <g>
       <use xlink:href="#m5efe079132" x="186.014434" y="384.48" style="stroke: #000000; stroke-width: 0.8"/>
      </g>
     </g>
     <g id="text_2">
      <!-- 250 -->
      <g transform="translate(176.470684 399.078438) scale(0.1 -0.1)">
       <defs>
        <path id="DejaVuSans-32" d="M 1228 531 
L 3431 531 
L 3431 0 
L 469 0 
L 469 531 
Q 828 903 1448 1529 
Q 2069 2156 2228 2338 
Q 2531 2678 2651 2914 
Q 2772 3150 2772 3378 
Q 2772 3750 2511 3984 
Q 2250 4219 1831 4219 
Q 1534 4219 1204 4116 
Q 875 4013 500 3803 
L 500 4441 
Q 881 4594 1212 4672 
Q 1544 4750 1819 4750 
Q 2544 4750 2975 4387 
Q 3406 4025 3406 3419 
Q 3406 3131 3298 2873 
Q 3191 2616 2906 2266 
Q 2828 2175 2409 1742 
Q 1991 1309 1228 531 
z
" transform="scale(0.015625)"/>
        <path id="DejaVuSans-35" d="M 691 4666 
L 3169 4666 
L 3169 4134 
L 1269 4134 
L 1269 2991 
Q 1406 3038 1543 3061 
Q 1681 3084 1819 3084 
Q 2600 3084 3056 2656 
Q 3513 2228 3513 1497 
Q 3513 744 3044 326 
Q 2575 -91 1722 -91 
Q 1428 -91 1123 -41 
Q 819 9 494 109 
L 494 744 
Q 775 591 1075 516 
Q 1375 441 1709 441 
Q 2250 441 2565 725 
Q 2881 1009 2881 1497 
Q 2881 1984 2565 2268 
Q 2250 2553 1709 2553 
Q 1456 2553 1204 2497 
Q 953 2441 691 2322 
L 691 4666 
z
" transform="scale(0.015625)"/>
       </defs>
       <use xlink:href="#DejaVuSans-32"/>
       <use xlink:href="#DejaVuSans-35" transform="translate(63.623047 0)"/>
       <use xlink:href="#DejaVuSans-30" transform="translate(127.246094 0)"/>
      </g>
     </g>
    </g>
    <g id="xtick_3">
     <g id="line2d_3">
      <g>
       <use xlink:href="#m5efe079132" x="256.665232" y="384.48" style="stroke: #000000; stroke-width: 0.8"/>
      </g>
     </g>
     <g id="text_3">
      <!-- 500 -->
      <g transform="translate(247.121482 399.078438) scale(0.1 -0.1)">
       <use xlink:href="#DejaVuSans-35"/>
       <use xlink:href="#DejaVuSans-30" transform="translate(63.623047 0)"/>
       <use xlink:href="#DejaVuSans-30" transform="translate(127.246094 0)"/>
      </g>
     </g>
    </g>
    <g id="xtick_4">
     <g id="line2d_4">
      <g>
       <use xlink:href="#m5efe079132" x="327.316029" y="384.48" style="stroke: #000000; stroke-width: 0.8"/>
      </g>
     </g>
     <g id="text_4">
      <!-- 750 -->
      <g transform="translate(317.772279 399.078438) scale(0.1 -0.1)">
       <defs>
        <path id="DejaVuSans-37" d="M 525 4666 
L 3525 4666 
L 3525 4397 
L 1831 0 
L 1172 0 
L 2766 4134 
L 525 4134 
L 525 4666 
z
" transform="scale(0.015625)"/>
       </defs>
       <use xlink:href="#DejaVuSans-37"/>
       <use xlink:href="#DejaVuSans-35" transform="translate(63.623047 0)"/>
       <use xlink:href="#DejaVuSans-30" transform="translate(127.246094 0)"/>
      </g>
     </g>
    </g>
    <g id="xtick_5">
     <g id="line2d_5">
      <g>
       <use xlink:href="#m5efe079132" x="397.966827" y="384.48" style="stroke: #000000; stroke-width: 0.8"/>
      </g>
     </g>
     <g id="text_5">
      <!-- 1000 -->
      <g transform="translate(385.241827 399.078438) scale(0.1 -0.1)">
       <defs>
        <path id="DejaVuSans-31" d="M 794 531 
L 1825 531 
L 1825 4091 
L 703 3866 
L 703 4441 
L 1819 4666 
L 2450 4666 
L 2450 531 
L 3481 531 
L 3481 0 
L 794 0 
L 794 531 
z
" transform="scale(0.015625)"/>
       </defs>
       <use xlink:href="#DejaVuSans-31"/>
       <use xlink:href="#DejaVuSans-30" transform="translate(63.623047 0)"/>
       <use xlink:href="#DejaVuSans-30" transform="translate(127.246094 0)"/>
       <use xlink:href="#DejaVuSans-30" transform="translate(190.869141 0)"/>
      </g>
     </g>
    </g>
    <g id="xtick_6">
     <g id="line2d_6">
      <g>
       <use xlink:href="#m5efe079132" x="468.617625" y="384.48" style="stroke: #000000; stroke-width: 0.8"/>
      </g>
     </g>
     <g id="text_6">
      <!-- 1250 -->
      <g transform="translate(455.892625 399.078438) scale(0.1 -0.1)">
       <use xlink:href="#DejaVuSans-31"/>
       <use xlink:href="#DejaVuSans-32" transform="translate(63.623047 0)"/>
       <use xlink:href="#DejaVuSans-35" transform="translate(127.246094 0)"/>
       <use xlink:href="#DejaVuSans-30" transform="translate(190.869141 0)"/>
      </g>
     </g>
    </g>
    <g id="xtick_7">
     <g id="line2d_7">
      <g>
       <use xlink:href="#m5efe079132" x="539.268422" y="384.48" style="stroke: #000000; stroke-width: 0.8"/>
      </g>
     </g>
     <g id="text_7">
      <!-- 1500 -->
      <g transform="translate(526.543422 399.078438) scale(0.1 -0.1)">
       <use xlink:href="#DejaVuSans-31"/>
       <use xlink:href="#DejaVuSans-35" transform="translate(63.623047 0)"/>
       <use xlink:href="#DejaVuSans-30" transform="translate(127.246094 0)"/>
       <use xlink:href="#DejaVuSans-30" transform="translate(190.869141 0)"/>
      </g>
     </g>
    </g>
    <g id="xtick_8">
     <g id="line2d_8">
      <g>
       <use xlink:href="#m5efe079132" x="609.91922" y="384.48" style="stroke: #000000; stroke-width: 0.8"/>
      </g>
     </g>
     <g id="text_8">
      <!-- 1750 -->
      <g transform="translate(597.19422 399.078438) scale(0.1 -0.1)">
       <use xlink:href="#DejaVuSans-31"/>
       <use xlink:href="#DejaVuSans-37" transform="translate(63.623047 0)"/>
       <use xlink:href="#DejaVuSans-35" transform="translate(127.246094 0)"/>
       <use xlink:href="#DejaVuSans-30" transform="translate(190.869141 0)"/>
      </g>
     </g>
    </g>
    <g id="text_9">
     <!-- Index -->
     <g transform="translate(355.233594 412.756563) scale(0.1 -0.1)">
      <defs>
       <path id="DejaVuSans-49" d="M 628 4666 
L 1259 4666 
L 1259 0 
L 628 0 
L 628 4666 
z
" transform="scale(0.015625)"/>
       <path id="DejaVuSans-6e" d="M 3513 2113 
L 3513 0 
L 2938 0 
L 2938 2094 
Q 2938 2591 2744 2837 
Q 2550 3084 2163 3084 
Q 1697 3084 1428 2787 
Q 1159 2491 1159 1978 
L 1159 0 
L 581 0 
L 581 3500 
L 1159 3500 
L 1159 2956 
Q 1366 3272 1645 3428 
Q 1925 3584 2291 3584 
Q 2894 3584 3203 3211 
Q 3513 2838 3513 2113 
z
" transform="scale(0.015625)"/>
       <path id="DejaVuSans-64" d="M 2906 2969 
L 2906 4863 
L 3481 4863 
L 3481 0 
L 2906 0 
L 2906 525 
Q 2725 213 2448 61 
Q 2172 -91 1784 -91 
Q 1150 -91 751 415 
Q 353 922 353 1747 
Q 353 2572 751 3078 
Q 1150 3584 1784 3584 
Q 2172 3584 2448 3432 
Q 2725 3281 2906 2969 
z
M 947 1747 
Q 947 1113 1208 752 
Q 1469 391 1925 391 
Q 2381 391 2643 752 
Q 2906 1113 2906 1747 
Q 2906 2381 2643 2742 
Q 2381 3103 1925 3103 
Q 1469 3103 1208 2742 
Q 947 2381 947 1747 
z
" transform="scale(0.015625)"/>
       <path id="DejaVuSans-65" d="M 3597 1894 
L 3597 1613 
L 953 1613 
Q 991 1019 1311 708 
Q 1631 397 2203 397 
Q 2534 397 2845 478 
Q 3156 559 3463 722 
L 3463 178 
Q 3153 47 2828 -22 
Q 2503 -91 2169 -91 
Q 1331 -91 842 396 
Q 353 884 353 1716 
Q 353 2575 817 3079 
Q 1281 3584 2069 3584 
Q 2775 3584 3186 3129 
Q 3597 2675 3597 1894 
z
M 3022 2063 
Q 3016 2534 2758 2815 
Q 2500 3097 2075 3097 
Q 1594 3097 1305 2825 
Q 1016 2553 972 2059 
L 3022 2063 
z
" transform="scale(0.015625)"/>
       <path id="DejaVuSans-78" d="M 3513 3500 
L 2247 1797 
L 3578 0 
L 2900 0 
L 1881 1375 
L 863 0 
L 184 0 
L 1544 1831 
L 300 3500 
L 978 3500 
L 1906 2253 
L 2834 3500 
L 3513 3500 
z
" transform="scale(0.015625)"/>
      </defs>
      <use xlink:href="#DejaVuSans-49"/>
      <use xlink:href="#DejaVuSans-6e" transform="translate(29.492188 0)"/>
      <use xlink:href="#DejaVuSans-64" transform="translate(92.871094 0)"/>
      <use xlink:href="#DejaVuSans-65" transform="translate(156.347656 0)"/>
      <use xlink:href="#DejaVuSans-78" transform="translate(216.121094 0)"/>
     </g>
    </g>
   </g>
   <g id="matplotlib.axis_2">
    <g id="ytick_1">
     <g id="line2d_9">
      <defs>
       <path id="m48123664df" d="M 0 0 
L -3.5 0 
" style="stroke: #000000; stroke-width: 0.8"/>
      </defs>
      <g>
       <use xlink:href="#m48123664df" x="90" y="384.48" style="stroke: #000000; stroke-width: 0.8"/>
      </g>
     </g>
     <g id="text_10">
      <!-- 0.0 -->
      <g transform="translate(67.096875 388.279219) scale(0.1 -0.1)">
       <defs>
        <path id="DejaVuSans-2e" d="M 684 794 
L 1344 794 
L 1344 0 
L 684 0 
L 684 794 
z
" transform="scale(0.015625)"/>
       </defs>
       <use xlink:href="#DejaVuSans-30"/>
       <use xlink:href="#DejaVuSans-2e" transform="translate(63.623047 0)"/>
       <use xlink:href="#DejaVuSans-30" transform="translate(95.410156 0)"/>
      </g>
     </g>
    </g>
    <g id="ytick_2">
     <g id="line2d_10">
      <g>
       <use xlink:href="#m48123664df" x="90" y="312.437739" style="stroke: #000000; stroke-width: 0.8"/>
      </g>
     </g>
     <g id="text_11">
      <!-- 0.5 -->
      <g transform="translate(67.096875 316.236957) scale(0.1 -0.1)">
       <use xlink:href="#DejaVuSans-30"/>
       <use xlink:href="#DejaVuSans-2e" transform="translate(63.623047 0)"/>
       <use xlink:href="#DejaVuSans-35" transform="translate(95.410156 0)"/>
      </g>
     </g>
    </g>
    <g id="ytick_3">
     <g id="line2d_11">
      <g>
       <use xlink:href="#m48123664df" x="90" y="240.395477" style="stroke: #000000; stroke-width: 0.8"/>
      </g>
     </g>
     <g id="text_12">
      <!-- 1.0 -->
      <g transform="translate(67.096875 244.194696) scale(0.1 -0.1)">
       <use xlink:href="#DejaVuSans-31"/>
       <use xlink:href="#DejaVuSans-2e" transform="translate(63.623047 0)"/>
       <use xlink:href="#DejaVuSans-30" transform="translate(95.410156 0)"/>
      </g>
     </g>
    </g>
    <g id="ytick_4">
     <g id="line2d_12">
      <g>
       <use xlink:href="#m48123664df" x="90" y="168.353216" style="stroke: #000000; stroke-width: 0.8"/>
      </g>
     </g>
     <g id="text_13">
      <!-- 1.5 -->
      <g transform="translate(67.096875 172.152435) scale(0.1 -0.1)">
       <use xlink:href="#DejaVuSans-31"/>
       <use xlink:href="#DejaVuSans-2e" transform="translate(63.623047 0)"/>
       <use xlink:href="#DejaVuSans-35" transform="translate(95.410156 0)"/>
      </g>
     </g>
    </g>
    <g id="ytick_5">
     <g id="line2d_13">
      <g>
       <use xlink:href="#m48123664df" x="90" y="96.310955" style="stroke: #000000; stroke-width: 0.8"/>
      </g>
     </g>
     <g id="text_14">
      <!-- 2.0 -->
      <g transform="translate(67.096875 100.110173) scale(0.1 -0.1)">
       <use xlink:href="#DejaVuSans-32"/>
       <use xlink:href="#DejaVuSans-2e" transform="translate(63.623047 0)"/>
       <use xlink:href="#DejaVuSans-30" transform="translate(95.410156 0)"/>
      </g>
     </g>
    </g>
    <g id="text_15">
     <!-- Average time (ms) -->
     <g transform="translate(61.017187 264.543594) rotate(-90) scale(0.1 -0.1)">
      <defs>
       <path id="DejaVuSans-41" d="M 2188 4044 
L 1331 1722 
L 3047 1722 
L 2188 4044 
z
M 1831 4666 
L 2547 4666 
L 4325 0 
L 3669 0 
L 3244 1197 
L 1141 1197 
L 716 0 
L 50 0 
L 1831 4666 
z
" transform="scale(0.015625)"/>
       <path id="DejaVuSans-76" d="M 191 3500 
L 800 3500 
L 1894 563 
L 2988 3500 
L 3597 3500 
L 2284 0 
L 1503 0 
L 191 3500 
z
" transform="scale(0.015625)"/>
       <path id="DejaVuSans-72" d="M 2631 2963 
Q 2534 3019 2420 3045 
Q 2306 3072 2169 3072 
Q 1681 3072 1420 2755 
Q 1159 2438 1159 1844 
L 1159 0 
L 581 0 
L 581 3500 
L 1159 3500 
L 1159 2956 
Q 1341 3275 1631 3429 
Q 1922 3584 2338 3584 
Q 2397 3584 2469 3576 
Q 2541 3569 2628 3553 
L 2631 2963 
z
" transform="scale(0.015625)"/>
       <path id="DejaVuSans-61" d="M 2194 1759 
Q 1497 1759 1228 1600 
Q 959 1441 959 1056 
Q 959 750 1161 570 
Q 1363 391 1709 391 
Q 2188 391 2477 730 
Q 2766 1069 2766 1631 
L 2766 1759 
L 2194 1759 
z
M 3341 1997 
L 3341 0 
L 2766 0 
L 2766 531 
Q 2569 213 2275 61 
Q 1981 -91 1556 -91 
Q 1019 -91 701 211 
Q 384 513 384 1019 
Q 384 1609 779 1909 
Q 1175 2209 1959 2209 
L 2766 2209 
L 2766 2266 
Q 2766 2663 2505 2880 
Q 2244 3097 1772 3097 
Q 1472 3097 1187 3025 
Q 903 2953 641 2809 
L 641 3341 
Q 956 3463 1253 3523 
Q 1550 3584 1831 3584 
Q 2591 3584 2966 3190 
Q 3341 2797 3341 1997 
z
" transform="scale(0.015625)"/>
       <path id="DejaVuSans-67" d="M 2906 1791 
Q 2906 2416 2648 2759 
Q 2391 3103 1925 3103 
Q 1463 3103 1205 2759 
Q 947 2416 947 1791 
Q 947 1169 1205 825 
Q 1463 481 1925 481 
Q 2391 481 2648 825 
Q 2906 1169 2906 1791 
z
M 3481 434 
Q 3481 -459 3084 -895 
Q 2688 -1331 1869 -1331 
Q 1566 -1331 1297 -1286 
Q 1028 -1241 775 -1147 
L 775 -588 
Q 1028 -725 1275 -790 
Q 1522 -856 1778 -856 
Q 2344 -856 2625 -561 
Q 2906 -266 2906 331 
L 2906 616 
Q 2728 306 2450 153 
Q 2172 0 1784 0 
Q 1141 0 747 490 
Q 353 981 353 1791 
Q 353 2603 747 3093 
Q 1141 3584 1784 3584 
Q 2172 3584 2450 3431 
Q 2728 3278 2906 2969 
L 2906 3500 
L 3481 3500 
L 3481 434 
z
" transform="scale(0.015625)"/>
       <path id="DejaVuSans-20" transform="scale(0.015625)"/>
       <path id="DejaVuSans-74" d="M 1172 4494 
L 1172 3500 
L 2356 3500 
L 2356 3053 
L 1172 3053 
L 1172 1153 
Q 1172 725 1289 603 
Q 1406 481 1766 481 
L 2356 481 
L 2356 0 
L 1766 0 
Q 1100 0 847 248 
Q 594 497 594 1153 
L 594 3053 
L 172 3053 
L 172 3500 
L 594 3500 
L 594 4494 
L 1172 4494 
z
" transform="scale(0.015625)"/>
       <path id="DejaVuSans-69" d="M 603 3500 
L 1178 3500 
L 1178 0 
L 603 0 
L 603 3500 
z
M 603 4863 
L 1178 4863 
L 1178 4134 
L 603 4134 
L 603 4863 
z
" transform="scale(0.015625)"/>
       <path id="DejaVuSans-6d" d="M 3328 2828 
Q 3544 3216 3844 3400 
Q 4144 3584 4550 3584 
Q 5097 3584 5394 3201 
Q 5691 2819 5691 2113 
L 5691 0 
L 5113 0 
L 5113 2094 
Q 5113 2597 4934 2840 
Q 4756 3084 4391 3084 
Q 3944 3084 3684 2787 
Q 3425 2491 3425 1978 
L 3425 0 
L 2847 0 
L 2847 2094 
Q 2847 2600 2669 2842 
Q 2491 3084 2119 3084 
Q 1678 3084 1418 2786 
Q 1159 2488 1159 1978 
L 1159 0 
L 581 0 
L 581 3500 
L 1159 3500 
L 1159 2956 
Q 1356 3278 1631 3431 
Q 1906 3584 2284 3584 
Q 2666 3584 2933 3390 
Q 3200 3197 3328 2828 
z
" transform="scale(0.015625)"/>
       <path id="DejaVuSans-28" d="M 1984 4856 
Q 1566 4138 1362 3434 
Q 1159 2731 1159 2009 
Q 1159 1288 1364 580 
Q 1569 -128 1984 -844 
L 1484 -844 
Q 1016 -109 783 600 
Q 550 1309 550 2009 
Q 550 2706 781 3412 
Q 1013 4119 1484 4856 
L 1984 4856 
z
" transform="scale(0.015625)"/>
       <path id="DejaVuSans-73" d="M 2834 3397 
L 2834 2853 
Q 2591 2978 2328 3040 
Q 2066 3103 1784 3103 
Q 1356 3103 1142 2972 
Q 928 2841 928 2578 
Q 928 2378 1081 2264 
Q 1234 2150 1697 2047 
L 1894 2003 
Q 2506 1872 2764 1633 
Q 3022 1394 3022 966 
Q 3022 478 2636 193 
Q 2250 -91 1575 -91 
Q 1294 -91 989 -36 
Q 684 19 347 128 
L 347 722 
Q 666 556 975 473 
Q 1284 391 1588 391 
Q 1994 391 2212 530 
Q 2431 669 2431 922 
Q 2431 1156 2273 1281 
Q 2116 1406 1581 1522 
L 1381 1569 
Q 847 1681 609 1914 
Q 372 2147 372 2553 
Q 372 3047 722 3315 
Q 1072 3584 1716 3584 
Q 2034 3584 2315 3537 
Q 2597 3491 2834 3397 
z
" transform="scale(0.015625)"/>
       <path id="DejaVuSans-29" d="M 513 4856 
L 1013 4856 
Q 1481 4119 1714 3412 
Q 1947 2706 1947 2009 
Q 1947 1309 1714 600 
Q 1481 -109 1013 -844 
L 513 -844 
Q 928 -128 1133 580 
Q 1338 1288 1338 2009 
Q 1338 2731 1133 3434 
Q 928 4138 513 4856 
z
" transform="scale(0.015625)"/>
      </defs>
      <use xlink:href="#DejaVuSans-41"/>
      <use xlink:href="#DejaVuSans-76" transform="translate(62.533203 0)"/>
      <use xlink:href="#DejaVuSans-65" transform="translate(121.712891 0)"/>
      <use xlink:href="#DejaVuSans-72" transform="translate(183.236328 0)"/>
      <use xlink:href="#DejaVuSans-61" transform="translate(224.349609 0)"/>
      <use xlink:href="#DejaVuSans-67" transform="translate(285.628906 0)"/>
      <use xlink:href="#DejaVuSans-65" transform="translate(349.105469 0)"/>
      <use xlink:href="#DejaVuSans-20" transform="translate(410.628906 0)"/>
      <use xlink:href="#DejaVuSans-74" transform="translate(442.416016 0)"/>
      <use xlink:href="#DejaVuSans-69" transform="translate(481.625 0)"/>
      <use xlink:href="#DejaVuSans-6d" transform="translate(509.408203 0)"/>
      <use xlink:href="#DejaVuSans-65" transform="translate(606.820312 0)"/>
      <use xlink:href="#DejaVuSans-20" transform="translate(668.34375 0)"/>
      <use xlink:href="#DejaVuSans-28" transform="translate(700.130859 0)"/>
      <use xlink:href="#DejaVuSans-6d" transform="translate(739.144531 0)"/>
      <use xlink:href="#DejaVuSans-73" transform="translate(836.556641 0)"/>
      <use xlink:href="#DejaVuSans-29" transform="translate(888.65625 0)"/>
     </g>
    </g>
   </g>
   <g id="line2d_14">
    <path d="M 115.363636 208.313056 
L 115.64624 304.398658 
L 115.928843 67.663465 
L 116.211446 128.968029 
L 116.494049 119.081741 
L 116.776652 155.417351 
L 117.059256 123.471146 
L 117.341859 199.576923 
L 117.907065 248.832808 
L 118.189668 101.271482 
L 118.472271 179.487736 
L 118.754875 132.212466 
L 119.037478 225.922619 
L 119.320081 245.028846 
L 119.602684 251.475548 
L 119.885287 140.202933 
L 120.167891 249.945198 
L 120.450494 218.550333 
L 120.733097 167.644291 
L 121.0157 289.107674 
L 121.298303 289.730176 
L 121.580907 276.214443 
L 121.86351 296.18839 
L 122.146113 244.503197 
L 122.428716 227.076909 
L 122.711319 231.311251 
L 122.993923 274.005699 
L 123.276526 243.87228 
L 123.559129 264.230573 
L 123.841732 268.028843 
L 124.124335 275.580702 
L 124.406938 197.198577 
L 124.689542 277.535727 
L 124.972145 278.26916 
L 125.254748 291.613375 
L 125.537351 231.00497 
L 125.819954 290.120689 
L 126.102558 269.85752 
L 126.385161 291.728744 
L 126.667764 284.520022 
L 126.950367 270.625145 
L 127.23297 245.782985 
L 127.515574 273.022985 
L 127.798177 245.357561 
L 128.08078 274.051835 
L 128.363383 259.476994 
L 128.645986 270.152778 
L 128.92859 270.089309 
L 129.211193 191.480324 
L 129.493796 252.078009 
L 129.776399 71.505824 
L 130.059002 226.684927 
L 130.341605 274.499924 
L 130.624209 273.703079 
L 130.906812 195.944451 
L 131.189415 249.348947 
L 131.754621 230.876476 
L 132.037225 244.190505 
L 132.319828 238.242494 
L 132.602431 239.308734 
L 132.885034 242.879278 
L 133.167637 227.815962 
L 133.450241 231.158838 
L 133.732844 184.617621 
L 134.015447 190.120367 
L 134.29805 255.405007 
L 134.580653 251.814305 
L 134.863257 236.092595 
L 135.14586 246.837511 
L 135.428463 252.739342 
L 135.711066 252.867549 
L 135.993669 249.961292 
L 136.276272 255.729327 
L 136.558876 194.921249 
L 136.841479 210.985939 
L 137.124082 253.011677 
L 137.406685 252.848875 
L 137.689288 380.684641 
L 137.971892 381.534826 
L 138.254495 381.135697 
L 138.537098 381.501658 
L 138.819701 377.449828 
L 139.102304 379.861904 
L 139.384908 244.429772 
L 139.667511 254.153085 
L 139.950114 242.265694 
L 140.232717 253.928357 
L 140.51532 249.608515 
L 140.797924 256.828807 
L 141.080527 256.253996 
L 141.36313 252.500537 
L 141.645733 383.284055 
L 141.928336 382.799917 
L 142.210939 380.507417 
L 142.493543 383.315754 
L 142.776146 383.282586 
L 143.058749 383.464161 
L 143.623955 383.209117 
L 143.906559 348.446982 
L 144.189162 347.418738 
L 144.471765 382.341728 
L 144.754368 383.337395 
L 145.319575 382.81287 
L 145.602178 383.504505 
L 145.884781 383.467028 
L 146.167384 383.177404 
L 146.449987 383.451179 
L 146.732591 382.988668 
L 147.015194 383.516031 
L 147.863003 383.454061 
L 148.145606 240.84479 
L 148.42821 279.931031 
L 148.710813 249.449244 
L 148.993416 282.203244 
L 149.276019 383.286937 
L 149.558622 383.510268 
L 149.841226 383.088071 
L 150.123829 383.459824 
L 150.406432 285.386244 
L 150.689035 283.495726 
L 150.971638 282.500145 
L 151.254242 286.668625 
L 151.536845 383.402205 
L 151.819448 383.003047 
L 152.102051 383.426728 
L 152.384654 382.544887 
L 152.667258 289.240664 
L 152.949861 285.128232 
L 153.232464 284.681527 
L 153.515067 289.289638 
L 153.79767 383.501623 
L 154.080273 383.266736 
L 154.362877 383.534733 
L 154.64548 381.831626 
L 154.928083 289.838571 
L 155.210686 287.337206 
L 155.493289 286.586425 
L 155.775893 275.811439 
L 156.058496 383.418054 
L 156.341099 383.589543 
L 156.906305 383.52325 
L 157.188909 291.035971 
L 157.471512 283.90641 
L 157.754115 282.756572 
L 158.036718 287.801144 
L 158.601925 281.452506 
L 158.884528 247.170649 
L 159.167131 283.961147 
L 159.449734 383.529013 
L 159.732337 383.647163 
L 160.297544 383.090982 
L 160.86275 212.042871 
L 161.145353 282.422253 
L 161.427956 288.054762 
L 161.71056 253.375908 
L 161.993163 276.612563 
L 162.275766 275.090958 
L 162.558369 257.617007 
L 162.840972 383.57074 
L 163.688782 383.694696 
L 163.971385 282.850155 
L 164.253988 281.054862 
L 164.819195 285.240676 
L 165.101798 284.661398 
L 165.384401 282.477048 
L 165.667004 278.524608 
L 165.949607 279.737828 
L 166.232211 383.106802 
L 166.797417 383.48867 
L 167.08002 382.931019 
L 167.362623 257.62875 
L 167.645227 281.371862 
L 167.92783 279.331524 
L 168.210433 274.677349 
L 168.493036 261.174915 
L 168.775639 264.5524 
L 169.058243 265.16025 
L 169.340846 268.134284 
L 169.623449 383.572195 
L 169.906052 381.67453 
L 170.188655 383.076559 
L 170.471259 382.501647 
L 170.753862 238.578586 
L 171.036465 239.104566 
L 171.319068 205.978757 
L 171.601671 268.491498 
L 171.884274 266.618457 
L 172.166878 275.860471 
L 172.449481 270.717878 
L 173.014687 247.670737 
L 173.579894 194.818589 
L 173.862497 212.83986 
L 174.1451 379.49018 
L 174.427703 378.794223 
L 174.710306 379.840291 
L 174.99291 379.691884 
L 175.275513 383.376255 
L 175.558116 382.931019 
L 175.840719 383.318607 
L 176.123322 383.286923 
L 176.405926 237.571421 
L 176.688529 244.205375 
L 176.971132 239.75446 
L 177.253735 240.387005 
L 177.536338 231.173866 
L 177.818942 226.911918 
L 178.101545 224.695754 
L 178.384148 218.754962 
L 178.666751 217.277937 
L 178.949354 200.713375 
L 179.514561 221.646666 
L 179.797164 380.366228 
L 180.079767 380.797084 
L 180.36237 380.854675 
L 180.644973 379.487284 
L 180.927577 383.331589 
L 181.21018 382.792698 
L 181.492783 383.236464 
L 181.775386 383.187475 
L 182.057989 242.306326 
L 182.340593 244.832229 
L 182.623196 238.753015 
L 182.905799 235.972154 
L 183.188402 238.126319 
L 183.471005 237.8323 
L 183.753609 237.921661 
L 184.036212 174.671985 
L 184.318815 229.131987 
L 184.884021 209.054759 
L 185.166624 205.862941 
L 185.449228 379.920978 
L 185.731831 379.115546 
L 186.014434 377.031968 
L 186.297037 378.615515 
L 186.57964 383.235095 
L 186.862244 382.879135 
L 187.144847 382.060749 
L 187.42745 382.956983 
L 187.710053 214.498186 
L 187.992656 208.006991 
L 188.27526 209.202835 
L 188.557863 198.550018 
L 188.840466 198.591961 
L 189.123069 214.835171 
L 189.405672 199.665203 
L 189.688276 197.776154 
L 189.970879 200.51536 
L 190.253482 198.175283 
L 190.536085 176.565933 
L 190.818688 196.457853 
L 191.101291 379.658701 
L 191.666498 379.258132 
L 191.949101 379.830191 
L 192.231704 382.896439 
L 192.514307 383.181741 
L 193.079514 383.050595 
L 193.362117 220.689642 
L 193.64472 226.241478 
L 193.927323 227.993589 
L 194.209927 217.134947 
L 194.49253 210.891419 
L 194.775133 212.482127 
L 195.057736 208.022783 
L 195.340339 206.893347 
L 195.622943 199.015714 
L 195.905546 195.518725 
L 196.188149 212.622018 
L 196.470752 211.926162 
L 196.753355 383.138544 
L 197.035958 383.233626 
L 197.318562 383.085219 
L 197.601165 382.188984 
L 197.883768 228.176634 
L 198.166371 223.451858 
L 198.448974 228.278949 
L 198.731578 225.405745 
L 199.014181 227.974887 
L 199.296784 214.02252 
L 199.579387 216.088807 
L 199.86199 207.354216 
L 200.427197 208.803721 
L 200.7098 205.550206 
L 200.992403 196.390292 
L 201.275006 382.843157 
L 201.55761 382.987212 
L 202.122816 382.951206 
L 202.405419 211.972673 
L 202.688022 225.313603 
L 202.970625 187.582607 
L 203.253229 260.566504 
L 203.535832 268.302502 
L 203.818435 267.305438 
L 204.101038 262.762381 
L 204.666245 243.934164 
L 204.948848 256.586702 
L 205.231451 255.379072 
L 205.514054 258.893394 
L 205.796657 382.684635 
L 206.079261 382.451203 
L 206.361864 383.590941 
L 206.644467 383.719205 
L 206.92707 269.038861 
L 207.209673 267.36153 
L 207.492277 266.429375 
L 207.77488 266.655573 
L 208.057483 261.260948 
L 208.340086 264.324199 
L 208.622689 256.716306 
L 208.905292 260.318505 
L 209.187896 258.827173 
L 209.470499 256.291184 
L 210.035705 243.501709 
L 210.318308 232.089855 
L 210.600912 251.353278 
L 211.166118 205.783018 
L 211.448721 246.093963 
L 212.013928 270.325579 
L 212.296531 265.662917 
L 212.579134 383.631299 
L 213.426944 383.850322 
L 213.709547 292.778011 
L 213.99215 292.218948 
L 214.274753 293.404865 
L 214.839959 289.067748 
L 215.122563 291.144035 
L 215.405166 279.589392 
L 215.687769 279.135512 
L 215.970372 280.605203 
L 216.252975 286.182959 
L 216.535579 281.92372 
L 216.818182 284.481336 
L 217.100785 283.922245 
L 217.383388 282.534653 
L 217.948595 265.196271 
L 218.231198 276.85755 
L 218.513801 278.330065 
L 218.796404 277.637076 
L 219.079007 278.017459 
L 219.361611 383.302772 
L 219.644214 383.758108 
L 219.926817 383.567931 
L 220.20942 383.867626 
L 220.492023 288.66859 
L 220.774626 292.504293 
L 221.05723 294.716077 
L 221.339833 290.544629 
L 221.622436 290.770899 
L 221.905039 286.85886 
L 222.187642 274.422507 
L 222.470246 287.743553 
L 222.752849 286.021671 
L 223.035452 282.866091 
L 223.318055 272.557621 
L 223.600658 278.387699 
L 223.883262 275.753718 
L 224.165865 281.954007 
L 224.731071 280.495799 
L 225.013674 275.380467 
L 225.296278 248.396491 
L 225.578881 265.582288 
L 225.861484 266.873342 
L 226.144087 383.763886 
L 226.991897 383.889225 
L 227.2745 252.963019 
L 227.557103 262.08125 
L 227.839706 292.547475 
L 228.122309 254.851636 
L 228.404913 289.465421 
L 228.687516 282.850198 
L 228.970119 287.90634 
L 229.817929 284.29113 
L 230.100532 284.534661 
L 230.665738 281.064904 
L 230.948341 283.827163 
L 231.513548 282.557678 
L 231.796151 284.837253 
L 232.078754 282.489972 
L 232.361357 286.551845 
L 232.64396 281.441066 
L 232.926564 383.520354 
L 233.49177 383.877727 
L 233.774373 383.97569 
L 234.056976 295.293827 
L 234.33958 297.445139 
L 234.904786 288.942351 
L 235.187389 292.546078 
L 235.469992 290.177227 
L 235.752596 248.783977 
L 236.035199 284.742215 
L 236.317802 286.945282 
L 236.883008 282.746515 
L 237.165612 248.397586 
L 237.448215 280.639869 
L 237.730818 282.046192 
L 238.013421 280.926612 
L 238.296024 283.079321 
L 238.578628 284.322857 
L 238.861231 283.916481 
L 239.143834 281.887728 
L 239.426437 282.857417 
L 239.70904 275.539076 
L 239.991643 272.557852 
L 240.274247 275.374776 
L 240.55685 275.762407 
L 240.839453 383.887769 
L 241.122056 383.909382 
L 241.404659 383.688918 
L 241.687263 383.967016 
L 241.969866 297.233335 
L 242.252469 293.963855 
L 242.535072 294.69445 
L 242.817675 293.965354 
L 243.100279 289.19166 
L 243.382882 291.164235 
L 244.230691 275.16447 
L 244.513295 263.305824 
L 244.795898 275.652888 
L 245.078501 279.830042 
L 245.361104 280.260841 
L 245.643707 279.975582 
L 245.92631 278.808483 
L 246.208914 276.093815 
L 246.491517 282.662874 
L 247.056723 281.181642 
L 247.339326 282.001569 
L 247.62193 269.065171 
L 247.904533 270.23227 
L 248.187136 270.209187 
L 248.469739 254.830441 
L 248.752342 383.680302 
L 249.034946 383.804244 
L 249.600152 383.818623 
L 249.882755 279.622575 
L 250.165358 245.839322 
L 250.447962 291.525902 
L 250.730565 291.100838 
L 251.013168 253.083027 
L 251.295771 286.122545 
L 251.578374 247.394786 
L 251.860977 277.247961 
L 252.426184 273.691883 
L 252.99139 261.392555 
L 253.273993 267.584111 
L 253.556597 268.049418 
L 253.8392 275.173202 
L 254.121803 273.447112 
L 254.404406 278.451298 
L 254.687009 278.485863 
L 254.969613 279.079535 
L 255.252216 214.005677 
L 255.534819 259.343428 
L 255.817422 262.719487 
L 256.100025 260.297282 
L 256.382629 254.22239 
L 256.665232 382.995886 
L 256.947835 383.83162 
L 257.230438 383.798437 
L 257.513041 383.926672 
L 257.795644 222.027136 
L 258.078248 278.863336 
L 258.360851 278.549145 
L 258.926057 279.655815 
L 259.20866 273.961393 
L 259.491264 248.138666 
L 259.773867 270.752343 
L 260.05647 261.262576 
L 260.339073 262.049335 
L 260.621676 246.443857 
L 260.90428 268.939759 
L 261.186883 271.709251 
L 261.469486 260.979104 
L 261.752089 259.049639 
L 262.034692 264.118735 
L 262.317296 273.691984 
L 262.599899 262.856194 
L 262.882502 263.119955 
L 263.165105 266.354811 
L 263.447708 258.821726 
L 263.730311 255.7413 
L 264.012915 244.424542 
L 264.295518 248.571481 
L 264.578121 383.858952 
L 265.425931 383.961281 
L 265.708534 282.562144 
L 265.991137 277.400893 
L 266.27374 279.408048 
L 266.556343 280.176033 
L 266.838947 277.697735 
L 267.12155 286.089492 
L 267.404153 286.570749 
L 267.969359 278.115523 
L 268.251963 279.556325 
L 268.534566 283.341555 
L 268.817169 270.246534 
L 269.099772 274.175892 
L 269.382375 282.294061 
L 269.664978 282.616781 
L 270.795391 276.407948 
L 271.077994 276.761128 
L 271.360598 272.811613 
L 271.643201 271.775559 
L 271.925804 267.91833 
L 272.208407 262.003386 
L 272.49101 266.496129 
L 273.056217 206.373418 
L 273.33882 265.97584 
L 273.621423 383.870494 
L 273.904026 383.982894 
L 274.18663 383.890665 
L 274.469233 384.067918 
L 274.751836 258.161373 
L 275.034439 292.775158 
L 275.317042 285.527447 
L 275.882249 259.71067 
L 276.164852 253.896687 
L 276.447455 254.222347 
L 277.012661 240.649152 
L 277.295265 239.902795 
L 277.577868 230.134786 
L 277.860471 231.300502 
L 278.143074 228.274626 
L 278.425677 226.554171 
L 278.708281 225.682445 
L 278.990884 213.767462 
L 279.273487 217.051364 
L 279.55609 204.678235 
L 279.838693 223.917366 
L 280.121297 225.011025 
L 280.686503 209.783669 
L 280.969106 215.818173 
L 281.251709 215.334093 
L 281.534312 174.659882 
L 281.816916 207.919071 
L 282.099519 204.22604 
L 282.382122 195.693024 
L 282.664725 383.429552 
L 282.947328 383.406556 
L 283.229932 383.64431 
L 283.512535 383.566461 
L 283.795138 194.131796 
L 284.077741 246.855233 
L 284.360344 246.917204 
L 284.642948 250.617467 
L 284.925551 242.071468 
L 285.208154 254.113116 
L 285.490757 255.271613 
L 285.77336 240.007919 
L 286.338567 261.060512 
L 286.62117 258.857416 
L 286.903773 255.209009 
L 287.186376 258.69741 
L 287.468979 253.089425 
L 287.751583 243.350334 
L 288.034186 255.260894 
L 288.316789 259.154259 
L 288.599392 253.294198 
L 288.881995 252.144504 
L 289.164599 248.767033 
L 289.447202 243.738166 
L 289.729805 255.495766 
L 290.012408 255.219124 
L 290.295011 253.638502 
L 290.577615 246.276849 
L 290.860218 242.467283 
L 291.425424 248.82605 
L 291.708027 383.874831 
L 292.555837 384.004507 
L 292.83844 272.592345 
L 293.121043 273.79548 
L 293.403646 285.357197 
L 293.68625 280.295421 
L 293.968853 284.522918 
L 294.251456 282.667009 
L 294.534059 278.556119 
L 294.816662 278.828424 
L 295.099266 278.426443 
L 295.381869 274.590754 
L 295.664472 273.248103 
L 295.947075 276.645717 
L 296.229678 255.336653 
L 296.512282 283.943857 
L 296.794885 277.365981 
L 297.360091 286.654159 
L 297.642694 283.262294 
L 297.925298 286.864595 
L 298.207901 274.102683 
L 298.490504 266.926985 
L 298.773107 268.516338 
L 299.620917 259.93573 
L 299.90352 257.234232 
L 300.186123 261.981831 
L 300.468726 235.76767 
L 300.751329 383.985747 
L 301.033933 383.786925 
L 301.316536 384.003066 
L 301.599139 384.039087 
L 301.881742 286.360428 
L 302.164345 281.20347 
L 302.446949 284.10686 
L 302.729552 283.900805 
L 303.012155 282.436848 
L 303.294758 279.367733 
L 303.577361 242.333284 
L 303.859965 274.599861 
L 304.142568 273.514904 
L 304.425171 271.271436 
L 304.707774 270.437143 
L 304.990377 271.215229 
L 305.272981 270.314571 
L 305.838187 273.327508 
L 306.12079 277.383545 
L 306.403393 279.79977 
L 306.685996 284.322857 
L 306.9686 285.863178 
L 307.533806 280.083732 
L 307.816409 268.094113 
L 308.099012 271.608349 
L 308.381616 277.729247 
L 308.664219 277.877683 
L 308.946822 276.31719 
L 309.229425 272.892113 
L 309.512028 262.031872 
L 309.794632 265.376275 
L 310.077235 265.432483 
L 310.359838 265.301452 
L 310.642441 263.686106 
L 310.925044 269.713537 
L 311.207648 271.580901 
L 311.490251 244.968763 
L 311.772854 241.876796 
L 312.055457 256.7827 
L 312.33806 246.140084 
L 312.620663 261.103982 
L 312.903267 266.482859 
L 313.18587 249.413857 
L 313.468473 251.44555 
L 313.751076 257.609702 
L 314.033679 255.951246 
L 314.316283 384.016033 
L 314.881489 384.011725 
L 315.164092 383.834487 
L 315.446695 289.462266 
L 315.729299 291.168327 
L 316.011902 293.916163 
L 316.294505 294.84852 
L 316.577108 286.913439 
L 316.859711 288.342815 
L 317.142315 286.703033 
L 317.424918 283.615215 
L 317.707521 282.471011 
L 317.990124 283.318343 
L 318.272727 271.573394 
L 318.55533 277.583534 
L 318.837934 278.642656 
L 319.120537 280.962503 
L 319.40314 281.828581 
L 319.685743 247.370494 
L 319.968346 274.152665 
L 320.25095 256.763018 
L 320.533553 282.47395 
L 320.816156 283.129621 
L 321.098759 275.62969 
L 321.381362 278.373218 
L 321.663966 277.844442 
L 321.946569 275.928061 
L 322.229172 270.549184 
L 322.511775 274.210501 
L 322.794378 273.514573 
L 323.076982 271.750892 
L 323.359585 269.227885 
L 323.642188 271.05786 
L 323.924791 270.562194 
L 324.207394 238.484873 
L 324.489997 261.909501 
L 324.772601 258.830271 
L 325.055204 249.853531 
L 325.337807 249.20371 
L 325.62041 259.171794 
L 325.903013 259.926884 
L 326.185617 256.383672 
L 326.46822 267.066502 
L 326.750823 262.93972 
L 327.033426 264.350408 
L 327.316029 260.640016 
L 327.598633 240.229463 
L 327.881236 383.887798 
L 328.163839 384.026105 
L 328.446442 383.194694 
L 328.729045 384.085194 
L 329.011649 285.827056 
L 329.294252 284.368834 
L 329.576855 294.743396 
L 329.859458 288.522993 
L 330.142061 253.472704 
L 330.424664 286.657012 
L 330.989871 282.868857 
L 331.272474 275.544882 
L 331.555077 278.897801 
L 331.83768 285.802591 
L 332.120284 283.825665 
L 332.402887 275.64273 
L 332.68549 281.527416 
L 333.250696 277.726264 
L 333.5333 283.796833 
L 333.815903 241.197178 
L 334.098506 284.734896 
L 334.381109 279.373237 
L 334.663712 266.321528 
L 334.946316 272.94103 
L 335.228919 271.390623 
L 335.511522 273.197544 
L 335.794125 264.716383 
L 336.076728 266.785523 
L 336.359331 267.82296 
L 336.641935 235.566585 
L 336.924538 260.921067 
L 337.207141 258.134299 
L 337.489744 262.62854 
L 337.772347 270.873359 
L 338.620157 259.913902 
L 338.90276 258.779942 
L 339.185363 251.441458 
L 339.467967 253.121368 
L 339.75057 247.102857 
L 340.033173 263.625634 
L 340.315776 247.539433 
L 340.598379 245.251299 
L 340.880983 250.938531 
L 341.163586 246.427216 
L 341.446189 383.916586 
L 342.011395 384.026119 
L 342.293998 383.985776 
L 342.576602 284.099512 
L 342.859205 287.394955 
L 343.141808 283.396466 
L 343.424411 284.093849 
L 343.707014 268.592847 
L 343.989618 263.549644 
L 344.272221 280.778363 
L 344.554824 277.871905 
L 344.837427 284.161425 
L 345.12003 276.160166 
L 345.402634 278.941012 
L 345.685237 220.336851 
L 345.96784 276.933943 
L 346.250443 276.880517 
L 346.533046 277.785397 
L 346.81565 250.820137 
L 347.098253 268.206153 
L 347.380856 260.438268 
L 347.663459 277.60823 
L 347.946062 271.799837 
L 348.228665 239.853028 
L 348.511269 265.154472 
L 349.076475 271.072268 
L 349.359078 269.938294 
L 349.641681 267.984465 
L 349.924285 270.892191 
L 350.206888 264.974395 
L 350.489491 262.130066 
L 350.772094 265.021943 
L 351.054697 255.105715 
L 351.337301 255.781385 
L 351.619904 264.11555 
L 351.902507 264.318738 
L 352.18511 253.294442 
L 352.467713 257.334688 
L 352.750317 262.988896 
L 353.03292 263.650143 
L 353.315523 250.454378 
L 353.598126 263.582409 
L 353.880729 257.941255 
L 354.163332 228.619046 
L 354.445936 259.913916 
L 354.728539 221.096739 
L 355.011142 383.980027 
L 355.576348 384.010284 
L 355.858952 383.916601 
L 356.141555 287.132635 
L 356.706761 285.979872 
L 356.989364 288.811248 
L 357.271968 288.390464 
L 357.554571 265.863425 
L 357.837174 276.997326 
L 358.119777 255.794395 
L 358.40238 269.876266 
L 358.684984 277.946872 
L 358.967587 279.965439 
L 359.25019 280.517383 
L 359.815396 282.583613 
L 360.097999 283.10092 
L 360.380603 273.690399 
L 360.663206 279.327202 
L 360.945809 276.018877 
L 361.228412 280.403571 
L 361.511015 279.44538 
L 361.793619 277.673097 
L 362.076222 277.668688 
L 362.641428 274.273927 
L 362.924031 264.021953 
L 363.206635 272.69332 
L 363.489238 263.99024 
L 363.771841 267.519043 
L 364.054444 269.549223 
L 364.619651 255.013256 
L 364.902254 256.104062 
L 365.46746 248.266138 
L 365.750063 263.991681 
L 366.032666 268.105467 
L 366.31527 384.016005 
L 366.597873 383.782617 
L 366.880476 384.008786 
L 367.163079 384.089502 
L 367.445682 294.443729 
L 367.728286 295.092123 
L 368.010889 295.181499 
L 368.293492 291.358706 
L 368.576095 291.355824 
L 368.858698 219.898892 
L 369.141302 280.866068 
L 369.423905 282.876148 
L 369.989111 277.991524 
L 370.271714 285.410681 
L 370.554318 284.252169 
L 370.836921 282.275272 
L 371.119524 275.103912 
L 371.402127 277.175948 
L 371.68473 197.000202 
L 372.249937 283.118238 
L 372.53254 284.736351 
L 372.815143 279.338743 
L 373.097746 271.122755 
L 373.380349 272.861855 
L 373.662953 250.477806 
L 373.945556 247.479667 
L 374.228159 272.998822 
L 374.510762 266.560737 
L 374.793365 268.402267 
L 375.358572 266.274066 
L 375.641175 230.133057 
L 375.923778 268.707769 
L 376.206381 270.681813 
L 376.771588 261.939802 
L 377.054191 269.582348 
L 377.336794 268.351866 
L 377.619397 384.039087 
L 378.467207 384.125523 
L 378.74981 297.754892 
L 379.032413 292.664198 
L 379.315016 293.858688 
L 379.880223 278.116834 
L 380.162826 283.812697 
L 380.445429 281.782488 
L 380.728032 284.371788 
L 381.010636 278.730677 
L 381.293239 280.772442 
L 381.575842 280.158613 
L 381.858445 285.371764 
L 382.141048 282.975595 
L 382.423652 283.817048 
L 382.706255 277.530367 
L 382.988858 281.786811 
L 383.271461 282.906362 
L 383.554064 283.234889 
L 384.119271 277.635577 
L 384.401874 277.706222 
L 384.684477 278.504465 
L 384.96708 277.881962 
L 385.249683 274.954092 
L 385.81489 265.215045 
L 386.097493 272.024724 
L 386.380096 268.830097 
L 386.662699 272.710552 
L 386.945303 269.029063 
L 387.227906 262.875011 
L 387.510509 259.732297 
L 387.793112 254.246812 
L 388.075715 265.54788 
L 388.640922 263.864944 
L 388.923525 383.830136 
L 389.206128 384.031883 
L 389.771335 384.111144 
L 390.053938 263.989217 
L 390.336541 290.623889 
L 390.619144 287.373299 
L 390.901747 287.115287 
L 391.18435 265.376232 
L 391.749557 281.09084 
L 392.03216 283.448192 
L 392.314763 281.520283 
L 392.597366 278.642829 
L 392.87997 278.602442 
L 393.162573 279.609622 
L 393.445176 277.919496 
L 393.727779 273.838849 
L 394.010382 279.740768 
L 394.292986 278.843078 
L 394.575589 284.138371 
L 394.858192 283.76378 
L 395.140795 285.811265 
L 395.423398 285.609532 
L 395.706002 280.318561 
L 395.988605 278.776756 
L 396.271208 278.082268 
L 396.553811 275.791209 
L 396.836414 272.187511 
L 397.119017 275.152929 
L 397.401621 275.918003 
L 397.684224 272.769656 
L 397.966827 235.591152 
L 398.24943 270.299961 
L 398.532033 268.991601 
L 398.814637 271.570815 
L 399.379843 268.886405 
L 399.662446 269.57376 
L 399.945049 271.240818 
L 400.227653 384.049144 
L 401.075462 384.126993 
L 401.358065 264.21164 
L 401.640669 296.661276 
L 401.923272 277.443758 
L 402.205875 289.848614 
L 402.771081 292.897658 
L 403.053684 291.520081 
L 403.336288 280.376195 
L 403.618891 275.227867 
L 403.901494 285.546164 
L 404.184097 278.612528 
L 404.4667 287.530279 
L 404.749304 284.71043 
L 405.031907 249.638543 
L 405.31451 284.887625 
L 405.597113 280.612493 
L 405.879716 286.086524 
L 406.16232 283.498578 
L 406.444923 286.157082 
L 407.010129 280.433829 
L 407.292732 280.428065 
L 407.575336 277.46988 
L 407.857939 276.876281 
L 408.140542 269.322981 
L 408.423145 250.233958 
L 408.705748 263.755238 
L 408.988351 223.557616 
L 409.270955 267.191856 
L 409.553558 268.690464 
L 409.836161 264.372107 
L 410.118764 269.09246 
L 410.401367 382.367634 
L 410.966574 382.991564 
L 411.249177 382.918081 
L 411.53178 292.80543 
L 412.096987 284.498655 
L 412.944796 292.139731 
L 413.227399 286.655658 
L 413.510003 290.368773 
L 413.792606 285.966847 
L 414.075209 275.854563 
L 414.357812 279.527407 
L 414.640415 278.325713 
L 414.923018 281.866043 
L 415.205622 283.116798 
L 415.488225 281.985648 
L 415.770828 244.002532 
L 416.053431 262.537681 
L 416.336034 264.566261 
L 416.618638 279.420828 
L 416.901241 277.724838 
L 417.183844 261.974353 
L 417.466447 266.370574 
L 417.74905 265.885038 
L 418.031654 266.018979 
L 418.314257 261.206556 
L 418.59686 254.382468 
L 418.879463 254.51066 
L 419.44467 248.911276 
L 419.727273 254.875266 
L 420.009876 235.356856 
L 420.292479 269.899377 
L 420.575082 382.482916 
L 420.857685 383.029011 
L 421.140289 382.876296 
L 421.422892 382.864755 
L 421.705495 297.594944 
L 421.988098 295.920653 
L 422.270701 293.167082 
L 422.553305 295.345727 
L 422.835908 292.115222 
L 423.118511 293.669923 
L 423.401114 259.328745 
L 423.683717 289.226212 
L 423.966321 279.148609 
L 424.248924 280.772514 
L 424.531527 286.795405 
L 425.096733 285.062011 
L 425.379337 247.155851 
L 425.66194 252.429993 
L 425.944543 281.157162 
L 426.227146 286.174358 
L 426.509749 284.652753 
L 426.792352 286.585013 
L 427.357559 279.919432 
L 427.640162 279.249439 
L 427.922765 279.184558 
L 428.205368 248.25634 
L 428.487972 272.426648 
L 428.770575 270.645836 
L 429.053178 263.87065 
L 429.335781 266.099724 
L 429.618384 264.843264 
L 429.900988 264.118403 
L 430.183591 268.527678 
L 430.466194 264.366315 
L 430.748797 382.782612 
L 431.0314 383.030452 
L 431.596607 382.942546 
L 431.87921 296.69005 
L 432.161813 295.814016 
L 432.444416 296.508561 
L 432.727019 296.551786 
L 433.009623 294.449492 
L 433.292226 293.527308 
L 433.574829 293.04461 
L 434.140035 288.595078 
L 434.422639 290.718985 
L 434.987845 282.589362 
L 435.270448 282.491428 
L 435.835655 286.063427 
L 436.118258 284.557672 
L 436.400861 280.737876 
L 436.683464 285.838655 
L 436.966067 258.656865 
L 437.248671 285.15715 
L 437.813877 272.503027 
L 438.09648 266.627044 
L 438.379083 270.005971 
L 438.661687 270.625649 
L 438.94429 276.059293 
L 439.226893 275.311408 
L 439.509496 274.900724 
L 439.792099 275.121187 
L 440.074702 272.45839 
L 440.357306 261.843193 
L 440.639909 258.442741 
L 440.922512 382.712054 
L 441.205115 382.948309 
L 441.487718 382.900819 
L 441.770322 382.71776 
L 442.052925 290.978294 
L 442.335528 288.194394 
L 442.618131 295.498471 
L 442.900734 295.874546 
L 443.183338 292.842878 
L 443.748544 291.15268 
L 444.031147 291.479751 
L 444.31375 290.148353 
L 444.596354 286.384764 
L 444.878957 285.534579 
L 445.16156 287.181552 
L 445.444163 281.508728 
L 445.726766 284.68304 
L 446.009369 284.547557 
L 446.574576 280.273794 
L 446.857179 255.458837 
L 447.139782 287.3516 
L 447.422385 284.193123 
L 447.704989 277.634122 
L 447.987592 276.635559 
L 448.270195 278.838712 
L 448.552798 270.631369 
L 448.835401 269.823055 
L 449.118005 268.331665 
L 449.400608 267.739507 
L 449.965814 264.827414 
L 450.248417 265.491687 
L 450.531021 264.812991 
L 450.813624 265.242378 
L 451.096227 262.622849 
L 451.37883 262.494599 
L 451.661433 266.011832 
L 451.944036 264.014734 
L 452.22664 384.020356 
L 452.509243 384.047732 
L 452.791846 383.942522 
L 453.074449 384.062155 
L 453.357052 289.667111 
L 453.639656 290.8415 
L 453.922259 290.177242 
L 454.204862 279.128307 
L 454.487465 282.162814 
L 454.770068 280.178741 
L 455.052672 281.098058 
L 455.335275 267.295553 
L 455.617878 243.010511 
L 455.900481 234.651288 
L 456.183084 270.804256 
L 456.465688 270.903559 
L 456.748291 263.527585 
L 457.030894 262.634261 
L 457.313497 265.534754 
L 457.5961 265.651491 
L 457.878703 262.545029 
L 458.161307 251.526324 
L 458.44391 259.501834 
L 458.726513 259.961493 
L 459.009116 246.520784 
L 459.291719 252.947127 
L 459.574323 242.272841 
L 459.856926 252.840519 
L 460.139529 240.768599 
L 460.422132 240.883837 
L 460.704735 243.261362 
L 460.987339 235.758578 
L 461.269942 235.934347 
L 461.552545 239.87235 
L 461.835148 239.997645 
L 462.400355 234.460319 
L 462.682958 243.738339 
L 462.965561 241.032374 
L 463.248164 209.977462 
L 463.530767 383.907984 
L 463.81337 383.586633 
L 464.378577 383.99151 
L 464.66118 271.010456 
L 465.226386 266.601311 
L 465.50899 266.967271 
L 465.791593 275.187725 
L 466.074196 263.238695 
L 466.639402 266.447083 
L 466.922006 257.761509 
L 467.204609 253.834731 
L 467.487212 261.80563 
L 467.769815 275.331392 
L 468.052418 236.326401 
L 468.335022 264.678676 
L 468.617625 267.227632 
L 468.900228 264.488542 
L 469.182831 263.086484 
L 469.465434 265.904922 
L 469.748037 270.459606 
L 470.030641 259.057953 
L 470.313244 256.072406 
L 470.595847 249.816012 
L 470.87845 249.288619 
L 471.161053 250.127205 
L 471.443657 229.019716 
L 471.72626 247.213787 
L 472.008863 247.208024 
L 472.291466 248.640267 
L 472.574069 237.811854 
L 472.856673 243.182144 
L 473.139276 245.294524 
L 473.421879 245.435655 
L 473.704482 237.546768 
L 473.987085 243.319053 
L 474.552292 236.758568 
L 474.834895 383.752359 
L 475.117498 383.962708 
L 475.400101 383.706223 
L 475.682704 383.965589 
L 475.965308 276.446981 
L 476.247911 276.905271 
L 476.530514 247.846347 
L 476.813117 271.128677 
L 477.09572 270.187733 
L 477.378324 272.57105 
L 477.94353 269.95727 
L 478.226133 267.255599 
L 478.508736 261.10427 
L 478.79134 258.872343 
L 479.356546 265.178995 
L 479.639149 222.096109 
L 479.921752 267.622726 
L 480.204356 269.248057 
L 480.486959 264.618477 
L 480.769562 263.034902 
L 481.052165 266.849021 
L 481.334768 259.196332 
L 481.617371 240.738413 
L 481.899975 251.212335 
L 482.465181 239.160615 
L 482.747784 236.097277 
L 483.030387 235.793302 
L 483.312991 231.904259 
L 483.595594 207.087328 
L 483.878197 242.891007 
L 484.1608 224.738403 
L 484.443403 240.458745 
L 484.726007 241.484713 
L 485.00861 238.313283 
L 485.291213 213.963229 
L 485.573816 238.843514 
L 485.856419 241.516383 
L 486.139023 383.794129 
L 486.421626 383.464161 
L 486.704229 383.88349 
L 486.986832 384.053481 
L 487.269435 275.508789 
L 487.552038 280.730657 
L 487.834642 282.162972 
L 488.117245 282.645656 
L 488.399848 278.46268 
L 488.682451 252.459516 
L 488.965054 276.057837 
L 489.247658 279.204773 
L 489.530261 278.828713 
L 489.812864 274.330134 
L 490.095467 276.07226 
L 490.660674 268.700651 
L 490.943277 247.849099 
L 491.22588 282.920857 
L 491.508483 278.657151 
L 491.791086 282.988505 
L 492.07369 282.139847 
L 492.356293 284.698918 
L 492.638896 278.619732 
L 492.921499 265.935468 
L 493.204102 277.933876 
L 493.486705 270.366398 
L 493.769309 266.803015 
L 494.051912 267.448355 
L 494.334515 270.896499 
L 494.617118 264.040713 
L 494.899721 271.200503 
L 495.182325 268.980146 
L 495.464928 271.235084 
L 495.747531 267.366313 
L 496.030134 270.524761 
L 496.312737 268.032013 
L 496.595341 240.471295 
L 496.877944 267.158788 
L 497.160547 262.468607 
L 497.44315 384.049173 
L 498.008357 384.050628 
L 498.29096 383.89068 
L 498.573563 294.087797 
L 498.856166 294.185832 
L 499.421372 289.853008 
L 499.703976 289.502869 
L 499.986579 292.512924 
L 500.269182 291.221855 
L 500.551785 291.195948 
L 500.834388 287.358848 
L 501.116992 289.100873 
L 501.399595 276.160152 
L 501.682198 282.005863 
L 501.964801 276.879162 
L 502.247404 283.347304 
L 502.530008 276.233563 
L 502.812611 281.770933 
L 503.095214 280.295435 
L 503.377817 282.004407 
L 503.66042 283.020247 
L 503.943024 281.858868 
L 504.225627 278.938145 
L 504.50823 279.41943 
L 504.790833 275.791223 
L 505.073436 267.823104 
L 505.35604 267.743786 
L 505.638643 271.848884 
L 505.921246 274.322945 
L 506.203849 272.704775 
L 506.486452 271.799909 
L 506.769055 271.808569 
L 507.051659 273.37337 
L 507.334262 271.288395 
L 507.616865 241.10992 
L 507.899468 267.683314 
L 508.464675 260.968658 
L 508.747278 383.871949 
L 509.595087 384.017474 
L 509.877691 287.628286 
L 510.160294 281.55897 
L 510.442897 279.873109 
L 510.7255 285.832877 
L 511.008103 283.75649 
L 511.57331 275.680235 
L 511.855913 281.544778 
L 512.138516 281.353102 
L 512.421119 279.010216 
L 512.703722 250.797386 
L 512.986326 283.808461 
L 513.551532 275.358956 
L 513.834135 231.971677 
L 514.116738 274.851951 
L 514.399342 275.285689 
L 514.964548 285.707538 
L 515.247151 283.657115 
L 515.529754 278.981399 
L 516.094961 278.39496 
L 516.377564 276.268158 
L 516.660167 275.207696 
L 516.94277 244.471456 
L 517.225374 274.131312 
L 517.507977 270.990111 
L 518.073183 271.655897 
L 518.355786 272.853254 
L 518.638389 269.82013 
L 518.920993 270.98867 
L 519.203596 268.60544 
L 519.486199 269.890717 
L 519.768802 269.895025 
L 520.051405 384.062155 
L 520.616612 383.866186 
L 520.899215 384.125538 
L 521.181818 295.564764 
L 521.464421 296.688681 
L 521.747025 297.002771 
L 522.029628 265.806526 
L 522.312231 292.089258 
L 522.594834 293.157039 
L 522.877437 291.670001 
L 523.160041 291.165662 
L 523.442644 289.118149 
L 523.725247 285.188791 
L 524.00785 285.837171 
L 524.290453 282.064966 
L 524.573056 281.416499 
L 524.85566 281.795528 
L 525.420866 285.428029 
L 525.703469 283.366049 
L 525.986072 286.191662 
L 526.551279 281.384772 
L 527.116485 272.186128 
L 527.399088 277.533335 
L 527.681692 270.808637 
L 527.964295 271.50602 
L 528.246898 273.614005 
L 528.529501 272.925325 
L 529.377311 265.880816 
L 529.659914 215.213768 
L 530.22512 267.203426 
L 530.507723 267.676081 
L 530.790327 269.448392 
L 531.07293 268.640049 
L 531.355533 384.050599 
L 532.203343 384.067918 
L 532.485946 294.863 
L 532.768549 288.252244 
L 533.051152 289.916377 
L 533.333755 289.38469 
L 533.616359 291.992779 
L 533.898962 293.0518 
L 534.181565 291.56626 
L 534.746771 286.561916 
L 535.029375 288.58933 
L 535.311978 281.253655 
L 535.594581 284.426555 
L 535.877184 282.400698 
L 536.159787 282.688823 
L 536.724994 278.052097 
L 537.007597 283.030376 
L 537.2902 275.507579 
L 537.572803 279.369188 
L 537.855406 279.96845 
L 538.13801 277.601285 
L 538.420613 276.177673 
L 538.703216 271.860756 
L 538.985819 274.350623 
L 539.268422 267.783035 
L 539.551026 270.174881 
L 540.116232 258.190939 
L 540.398835 264.938662 
L 540.681438 268.291624 
L 540.964042 268.094214 
L 541.246645 267.758483 
L 541.811851 263.144738 
L 542.094454 267.417002 
L 542.377057 264.467491 
L 542.659661 384.04485 
L 543.50747 384.121215 
L 543.790073 292.377729 
L 544.072677 284.833118 
L 544.35528 290.912289 
L 544.637883 294.320018 
L 544.920486 286.547781 
L 545.203089 288.020426 
L 545.485693 287.165947 
L 545.768296 265.033758 
L 546.050899 286.118438 
L 546.333502 286.559337 
L 546.616105 286.114116 
L 547.181312 281.478744 
L 547.463915 281.259721 
L 547.746518 283.751043 
L 548.029121 279.719414 
L 548.311724 278.478789 
L 548.594328 279.612748 
L 548.876931 249.726852 
L 549.159534 276.962948 
L 549.442137 277.432692 
L 549.72474 277.573895 
L 550.007344 278.158921 
L 550.289947 274.647394 
L 550.57255 269.261327 
L 550.855153 272.347762 
L 551.137756 271.281493 
L 551.42036 265.267175 
L 551.702963 263.419925 
L 551.985566 271.130233 
L 552.268169 271.661876 
L 552.550772 269.08553 
L 552.833376 265.261382 
L 553.115979 263.206694 
L 553.398582 258.43875 
L 553.681185 268.84779 
L 553.963788 384.041969 
L 554.811598 384.112584 
L 555.094201 288.243714 
L 555.376804 289.994427 
L 555.659407 293.52323 
L 555.942011 293.455525 
L 556.78982 287.063618 
L 557.072423 288.308638 
L 557.355027 287.252427 
L 557.63763 285.00027 
L 557.920233 285.288526 
L 558.485439 281.27557 
L 558.768043 282.468619 
L 559.050646 280.513378 
L 559.333249 280.193496 
L 559.615852 283.644464 
L 559.898455 278.862025 
L 560.181058 283.274124 
L 560.463662 281.864905 
L 560.746265 275.112787 
L 561.028868 278.909616 
L 561.311471 276.19783 
L 561.594074 275.977352 
L 561.876678 261.725419 
L 562.159281 238.75287 
L 562.441884 264.814764 
L 562.724487 265.670626 
L 563.00709 242.388685 
L 563.289694 272.274279 
L 563.572297 264.713789 
L 563.8549 262.445784 
L 564.137503 262.075515 
L 564.420106 262.535145 
L 564.70271 258.757234 
L 564.985313 257.479363 
L 565.267916 382.544902 
L 565.550519 383.962722 
L 566.115726 384.057804 
L 566.398329 296.428075 
L 566.680932 294.488582 
L 566.963535 295.902152 
L 567.246138 290.683137 
L 567.528741 291.854659 
L 567.811345 290.422402 
L 568.093948 267.398329 
L 568.376551 288.896518 
L 568.941757 287.83741 
L 569.224361 285.952727 
L 569.506964 285.398001 
L 569.789567 279.978781 
L 570.07217 282.042114 
L 570.354773 282.668911 
L 570.637377 280.743841 
L 570.91998 286.387876 
L 571.202583 283.398036 
L 571.485186 285.357629 
L 571.767789 284.634325 
L 572.050393 279.98453 
L 572.332996 252.800477 
L 572.615599 274.798726 
L 572.898202 277.471537 
L 573.180805 276.076785 
L 573.463408 276.019194 
L 574.028615 270.661887 
L 574.311218 269.033688 
L 574.593821 272.11861 
L 574.876424 267.627351 
L 575.159028 270.663327 
L 575.441631 265.729657 
L 576.006837 270.065362 
L 576.28944 269.905428 
L 576.572044 384.027575 
L 577.419853 384.12267 
L 577.702456 295.763831 
L 577.98506 295.528944 
L 578.267663 293.122632 
L 578.550266 292.756657 
L 578.832869 265.84785 
L 579.115472 291.114007 
L 579.398075 290.900777 
L 579.680679 286.344637 
L 579.963282 276.337491 
L 580.245885 274.648763 
L 580.528488 249.470223 
L 580.811091 253.490297 
L 581.093695 279.545029 
L 581.376298 277.72514 
L 581.658901 274.885148 
L 581.941504 277.936988 
L 582.224107 274.447088 
L 582.506711 276.303012 
L 582.789314 282.121346 
L 583.071917 282.761154 
L 583.35452 277.022037 
L 583.637123 279.377934 
L 583.919727 276.955758 
L 584.20233 273.324727 
L 584.484933 265.6995 
L 584.767536 265.333367 
L 585.615346 271.952941 
L 585.897949 272.49761 
L 586.180552 268.539435 
L 586.463155 270.03218 
L 586.745758 268.460203 
L 587.028362 259.798893 
L 587.310965 222.691898 
L 587.593568 227.653607 
L 587.876171 384.007388 
L 588.723981 384.031883 
L 589.006584 291.258077 
L 589.289187 288.954094 
L 589.854394 290.350302 
L 590.136997 292.376245 
L 590.4196 291.23073 
L 590.702203 291.142839 
L 590.984806 285.818757 
L 591.267409 285.691905 
L 591.550013 287.506001 
L 591.832616 285.929659 
L 592.115219 285.184728 
L 592.397822 282.507522 
L 592.963029 282.114171 
L 593.245632 283.31585 
L 593.528235 282.859102 
L 593.810838 284.301475 
L 594.093441 260.804949 
L 594.376045 279.931161 
L 594.658648 280.148786 
L 594.941251 276.199271 
L 595.223854 276.990338 
L 595.506457 275.968707 
L 595.789061 273.290132 
L 596.071664 268.640265 
L 596.354267 270.795856 
L 596.63687 273.828994 
L 596.919473 266.183552 
L 597.202076 267.10431 
L 597.48468 265.209541 
L 597.767283 264.782935 
L 598.049886 266.938584 
L 598.332489 266.026457 
L 598.615092 245.22581 
L 598.897696 248.228344 
L 599.180299 383.845985 
L 599.745505 384.065037 
L 600.028108 384.132756 
L 600.310712 296.036151 
L 600.593315 297.440946 
L 600.875918 294.928098 
L 601.441124 293.338788 
L 601.723728 284.105462 
L 602.288934 284.934006 
L 602.571537 274.151815 
L 602.85414 285.546365 
L 603.136743 287.71782 
L 603.419347 278.480114 
L 603.70195 273.549369 
L 603.984553 276.39658 
L 604.267156 240.827803 
L 604.549759 275.831783 
L 604.832363 277.661714 
L 605.114966 278.106964 
L 605.397569 279.991633 
L 605.680172 278.009001 
L 605.962775 278.171831 
L 606.245379 276.908181 
L 606.527982 277.658876 
L 606.810585 272.313124 
L 607.093188 274.847715 
L 607.375791 253.085563 
L 607.658395 267.134496 
L 607.940998 273.756937 
L 608.223601 272.925555 
L 608.506204 241.115885 
L 608.788807 258.506383 
L 609.07141 260.928617 
L 609.354014 270.288693 
L 609.636617 268.141747 
L 609.91922 270.066803 
L 610.201823 262.60432 
L 610.484426 384.047732 
L 611.332236 384.125538 
L 611.614839 274.350594 
L 611.897442 295.858898 
L 612.180046 271.266768 
L 612.462649 295.076519 
L 612.745252 280.81754 
L 613.027855 287.863446 
L 613.310458 288.736555 
L 613.593062 285.095352 
L 613.875665 288.661631 
L 614.158268 282.811511 
L 614.440871 281.288538 
L 614.723474 285.186154 
L 615.006077 282.135827 
L 615.288681 282.498848 
L 615.571284 282.408147 
L 615.853887 282.193418 
L 616.13649 285.952712 
L 616.701697 284.887928 
L 617.549506 278.254017 
L 617.832109 275.14888 
L 618.114713 274.733874 
L 618.397316 277.143053 
L 618.679919 276.882275 
L 618.962522 273.621483 
L 619.245125 272.052389 
L 619.527729 269.195063 
L 619.810332 271.612931 
L 620.092935 247.004937 
L 620.375538 270.125892 
L 620.658141 225.928772 
L 620.940744 265.052618 
L 621.223348 270.006302 
L 621.505951 267.765672 
L 621.788554 384.05351 
L 622.071157 383.952622 
L 622.636364 384.126979 
L 622.636364 384.126979 
" clip-path="url(#p03bcc36b9b)" style="fill: none; stroke: #1f77b4; stroke-width: 1.5; stroke-linecap: square"/>
   </g>
   <g id="patch_3">
    <path d="M 90 384.48 
L 90 51.84 
" style="fill: none; stroke: #000000; stroke-width: 0.8; stroke-linejoin: miter; stroke-linecap: square"/>
   </g>
   <g id="patch_4">
    <path d="M 648 384.48 
L 648 51.84 
" style="fill: none; stroke: #000000; stroke-width: 0.8; stroke-linejoin: miter; stroke-linecap: square"/>
   </g>
   <g id="patch_5">
    <path d="M 90 384.48 
L 648 384.48 
" style="fill: none; stroke: #000000; stroke-width: 0.8; stroke-linejoin: miter; stroke-linecap: square"/>
   </g>
   <g id="patch_6">
    <path d="M 90 51.84 
L 648 51.84 
" style="fill: none; stroke: #000000; stroke-width: 0.8; stroke-linejoin: miter; stroke-linecap: square"/>
   </g>
   <g id="text_16">
    <!-- Average time per index -->
    <g transform="translate(298.700625 45.84) scale(0.12 -0.12)">
     <defs>
      <path id="DejaVuSans-70" d="M 1159 525 
L 1159 -1331 
L 581 -1331 
L 581 3500 
L 1159 3500 
L 1159 2969 
Q 1341 3281 1617 3432 
Q 1894 3584 2278 3584 
Q 2916 3584 3314 3078 
Q 3713 2572 3713 1747 
Q 3713 922 3314 415 
Q 2916 -91 2278 -91 
Q 1894 -91 1617 61 
Q 1341 213 1159 525 
z
M 3116 1747 
Q 3116 2381 2855 2742 
Q 2594 3103 2138 3103 
Q 1681 3103 1420 2742 
Q 1159 2381 1159 1747 
Q 1159 1113 1420 752 
Q 1681 391 2138 391 
Q 2594 391 2855 752 
Q 3116 1113 3116 1747 
z
" transform="scale(0.015625)"/>
     </defs>
     <use xlink:href="#DejaVuSans-41"/>
     <use xlink:href="#DejaVuSans-76" transform="translate(62.533203 0)"/>
     <use xlink:href="#DejaVuSans-65" transform="translate(121.712891 0)"/>
     <use xlink:href="#DejaVuSans-72" transform="translate(183.236328 0)"/>
     <use xlink:href="#DejaVuSans-61" transform="translate(224.349609 0)"/>
     <use xlink:href="#DejaVuSans-67" transform="translate(285.628906 0)"/>
     <use xlink:href="#DejaVuSans-65" transform="translate(349.105469 0)"/>
     <use xlink:href="#DejaVuSans-20" transform="translate(410.628906 0)"/>
     <use xlink:href="#DejaVuSans-74" transform="translate(442.416016 0)"/>
     <use xlink:href="#DejaVuSans-69" transform="translate(481.625 0)"/>
     <use xlink:href="#DejaVuSans-6d" transform="translate(509.408203 0)"/>
     <use xlink:href="#DejaVuSans-65" transform="translate(606.820312 0)"/>
     <use xlink:href="#DejaVuSans-20" transform="translate(668.34375 0)"/>
     <use xlink:href="#DejaVuSans-70" transform="translate(700.130859 0)"/>
     <use xlink:href="#DejaVuSans-65" transform="translate(763.607422 0)"/>
     <use xlink:href="#DejaVuSans-72" transform="translate(825.130859 0)"/>
     <use xlink:href="#DejaVuSans-20" transform="translate(866.244141 0)"/>
     <use xlink:href="#DejaVuSans-69" transform="translate(898.03125 0)"/>
     <use xlink:href="#DejaVuSans-6e" transform="translate(925.814453 0)"/>
     <use xlink:href="#DejaVuSans-64" transform="translate(989.193359 0)"/>
     <use xlink:href="#DejaVuSans-65" transform="translate(1052.669922 0)"/>
     <use xlink:href="#DejaVuSans-78" transform="translate(1112.443359 0)"/>
    </g>
   </g>
   <g id="legend_1">
    <g id="patch_7">
     <path d="M 489.965625 74.518125 
L 641 74.518125 
Q 643 74.518125 643 72.518125 
L 643 58.84 
Q 643 56.84 641 56.84 
L 489.965625 56.84 
Q 487.965625 56.84 487.965625 58.84 
L 487.965625 72.518125 
Q 487.965625 74.518125 489.965625 74.518125 
z
" style="fill: #ffffff; opacity: 0.8; stroke: #cccccc; stroke-linejoin: miter"/>
    </g>
    <g id="line2d_15">
     <path d="M 491.965625 64.938438 
L 501.965625 64.938438 
L 511.965625 64.938438 
" style="fill: none; stroke: #1f77b4; stroke-width: 1.5; stroke-linecap: square"/>
    </g>
    <g id="text_17">
     <!-- getExpectedBehaviours -->
     <g transform="translate(519.965625 68.438438) scale(0.1 -0.1)">
      <defs>
       <path id="DejaVuSans-45" d="M 628 4666 
L 3578 4666 
L 3578 4134 
L 1259 4134 
L 1259 2753 
L 3481 2753 
L 3481 2222 
L 1259 2222 
L 1259 531 
L 3634 531 
L 3634 0 
L 628 0 
L 628 4666 
z
" transform="scale(0.015625)"/>
       <path id="DejaVuSans-63" d="M 3122 3366 
L 3122 2828 
Q 2878 2963 2633 3030 
Q 2388 3097 2138 3097 
Q 1578 3097 1268 2742 
Q 959 2388 959 1747 
Q 959 1106 1268 751 
Q 1578 397 2138 397 
Q 2388 397 2633 464 
Q 2878 531 3122 666 
L 3122 134 
Q 2881 22 2623 -34 
Q 2366 -91 2075 -91 
Q 1284 -91 818 406 
Q 353 903 353 1747 
Q 353 2603 823 3093 
Q 1294 3584 2113 3584 
Q 2378 3584 2631 3529 
Q 2884 3475 3122 3366 
z
" transform="scale(0.015625)"/>
       <path id="DejaVuSans-42" d="M 1259 2228 
L 1259 519 
L 2272 519 
Q 2781 519 3026 730 
Q 3272 941 3272 1375 
Q 3272 1813 3026 2020 
Q 2781 2228 2272 2228 
L 1259 2228 
z
M 1259 4147 
L 1259 2741 
L 2194 2741 
Q 2656 2741 2882 2914 
Q 3109 3088 3109 3444 
Q 3109 3797 2882 3972 
Q 2656 4147 2194 4147 
L 1259 4147 
z
M 628 4666 
L 2241 4666 
Q 2963 4666 3353 4366 
Q 3744 4066 3744 3513 
Q 3744 3084 3544 2831 
Q 3344 2578 2956 2516 
Q 3422 2416 3680 2098 
Q 3938 1781 3938 1306 
Q 3938 681 3513 340 
Q 3088 0 2303 0 
L 628 0 
L 628 4666 
z
" transform="scale(0.015625)"/>
       <path id="DejaVuSans-68" d="M 3513 2113 
L 3513 0 
L 2938 0 
L 2938 2094 
Q 2938 2591 2744 2837 
Q 2550 3084 2163 3084 
Q 1697 3084 1428 2787 
Q 1159 2491 1159 1978 
L 1159 0 
L 581 0 
L 581 4863 
L 1159 4863 
L 1159 2956 
Q 1366 3272 1645 3428 
Q 1925 3584 2291 3584 
Q 2894 3584 3203 3211 
Q 3513 2838 3513 2113 
z
" transform="scale(0.015625)"/>
       <path id="DejaVuSans-6f" d="M 1959 3097 
Q 1497 3097 1228 2736 
Q 959 2375 959 1747 
Q 959 1119 1226 758 
Q 1494 397 1959 397 
Q 2419 397 2687 759 
Q 2956 1122 2956 1747 
Q 2956 2369 2687 2733 
Q 2419 3097 1959 3097 
z
M 1959 3584 
Q 2709 3584 3137 3096 
Q 3566 2609 3566 1747 
Q 3566 888 3137 398 
Q 2709 -91 1959 -91 
Q 1206 -91 779 398 
Q 353 888 353 1747 
Q 353 2609 779 3096 
Q 1206 3584 1959 3584 
z
" transform="scale(0.015625)"/>
       <path id="DejaVuSans-75" d="M 544 1381 
L 544 3500 
L 1119 3500 
L 1119 1403 
Q 1119 906 1312 657 
Q 1506 409 1894 409 
Q 2359 409 2629 706 
Q 2900 1003 2900 1516 
L 2900 3500 
L 3475 3500 
L 3475 0 
L 2900 0 
L 2900 538 
Q 2691 219 2414 64 
Q 2138 -91 1772 -91 
Q 1169 -91 856 284 
Q 544 659 544 1381 
z
M 1991 3584 
L 1991 3584 
z
" transform="scale(0.015625)"/>
      </defs>
      <use xlink:href="#DejaVuSans-67"/>
      <use xlink:href="#DejaVuSans-65" transform="translate(63.476562 0)"/>
      <use xlink:href="#DejaVuSans-74" transform="translate(125 0)"/>
      <use xlink:href="#DejaVuSans-45" transform="translate(164.208984 0)"/>
      <use xlink:href="#DejaVuSans-78" transform="translate(227.392578 0)"/>
      <use xlink:href="#DejaVuSans-70" transform="translate(286.572266 0)"/>
      <use xlink:href="#DejaVuSans-65" transform="translate(350.048828 0)"/>
      <use xlink:href="#DejaVuSans-63" transform="translate(411.572266 0)"/>
      <use xlink:href="#DejaVuSans-74" transform="translate(466.552734 0)"/>
      <use xlink:href="#DejaVuSans-65" transform="translate(505.761719 0)"/>
      <use xlink:href="#DejaVuSans-64" transform="translate(567.285156 0)"/>
      <use xlink:href="#DejaVuSans-42" transform="translate(630.761719 0)"/>
      <use xlink:href="#DejaVuSans-65" transform="translate(699.365234 0)"/>
      <use xlink:href="#DejaVuSans-68" transform="translate(760.888672 0)"/>
      <use xlink:href="#DejaVuSans-61" transform="translate(824.267578 0)"/>
      <use xlink:href="#DejaVuSans-76" transform="translate(885.546875 0)"/>
      <use xlink:href="#DejaVuSans-69" transform="translate(944.726562 0)"/>
      <use xlink:href="#DejaVuSans-6f" transform="translate(972.509766 0)"/>
      <use xlink:href="#DejaVuSans-75" transform="translate(1033.691406 0)"/>
      <use xlink:href="#DejaVuSans-72" transform="translate(1097.070312 0)"/>
      <use xlink:href="#DejaVuSans-73" transform="translate(1138.183594 0)"/>
     </g>
    </g>
   </g>
  </g>
 </g>
 <defs>
  <clipPath id="p03bcc36b9b">
   <rect x="90" y="51.84" width="558" height="332.64"/>
  </clipPath>
 </defs>
</svg>
