<?xml version="1.0" encoding="utf-8" standalone="no"?>
<!DOCTYPE svg PUBLIC "-//W3C//DTD SVG 1.1//EN"
  "http://www.w3.org/Graphics/SVG/1.1/DTD/svg11.dtd">
<svg xmlns:xlink="http://www.w3.org/1999/xlink" width="720pt" height="432pt" viewBox="0 0 720 432" xmlns="http://www.w3.org/2000/svg" version="1.1">
 <metadata>
  <rdf:RDF xmlns:dc="http://purl.org/dc/elements/1.1/" xmlns:cc="http://creativecommons.org/ns#" xmlns:rdf="http://www.w3.org/1999/02/22-rdf-syntax-ns#">
   <cc:Work>
    <dc:type rdf:resource="http://purl.org/dc/dcmitype/StillImage"/>
    <dc:date>2025-06-10T01:38:25.220623</dc:date>
    <dc:format>image/svg+xml</dc:format>
    <dc:creator>
     <cc:Agent>
      <dc:title>Matplotlib v3.10.3, https://matplotlib.org/</dc:title>
     </cc:Agent>
    </dc:creator>
   </cc:Work>
  </rdf:RDF>
 </metadata>
 <defs>
  <style type="text/css">*{stroke-linejoin: round; stroke-linecap: butt}</style>
 </defs>
 <g id="figure_1">
  <g id="patch_1">
   <path d="M 0 432 
L 720 432 
L 720 0 
L 0 0 
z
" style="fill: #ffffff"/>
  </g>
  <g id="axes_1">
   <g id="patch_2">
    <path d="M 90 384.48 
L 648 384.48 
L 648 51.84 
L 90 51.84 
z
" style="fill: #ffffff"/>
   </g>
   <g id="matplotlib.axis_1">
    <g id="xtick_1">
     <g id="line2d_1">
      <defs>
       <path id="me9efbeff9a" d="M 0 0 
L 0 3.5 
" style="stroke: #000000; stroke-width: 0.8"/>
      </defs>
      <g>
       <use xlink:href="#me9efbeff9a" x="115.363636" y="384.48" style="stroke: #000000; stroke-width: 0.8"/>
      </g>
     </g>
     <g id="text_1">
      <!-- 0 -->
      <g transform="translate(112.182386 399.078438) scale(0.1 -0.1)">
       <defs>
        <path id="DejaVuSans-30" d="M 2034 4250 
Q 1547 4250 1301 3770 
Q 1056 3291 1056 2328 
Q 1056 1369 1301 889 
Q 1547 409 2034 409 
Q 2525 409 2770 889 
Q 3016 1369 3016 2328 
Q 3016 3291 2770 3770 
Q 2525 4250 2034 4250 
z
M 2034 4750 
Q 2819 4750 3233 4129 
Q 3647 3509 3647 2328 
Q 3647 1150 3233 529 
Q 2819 -91 2034 -91 
Q 1250 -91 836 529 
Q 422 1150 422 2328 
Q 422 3509 836 4129 
Q 1250 4750 2034 4750 
z
" transform="scale(0.015625)"/>
       </defs>
       <use xlink:href="#DejaVuSans-30"/>
      </g>
     </g>
    </g>
    <g id="xtick_2">
     <g id="line2d_2">
      <g>
       <use xlink:href="#me9efbeff9a" x="186.014434" y="384.48" style="stroke: #000000; stroke-width: 0.8"/>
      </g>
     </g>
     <g id="text_2">
      <!-- 250 -->
      <g transform="translate(176.470684 399.078438) scale(0.1 -0.1)">
       <defs>
        <path id="DejaVuSans-32" d="M 1228 531 
L 3431 531 
L 3431 0 
L 469 0 
L 469 531 
Q 828 903 1448 1529 
Q 2069 2156 2228 2338 
Q 2531 2678 2651 2914 
Q 2772 3150 2772 3378 
Q 2772 3750 2511 3984 
Q 2250 4219 1831 4219 
Q 1534 4219 1204 4116 
Q 875 4013 500 3803 
L 500 4441 
Q 881 4594 1212 4672 
Q 1544 4750 1819 4750 
Q 2544 4750 2975 4387 
Q 3406 4025 3406 3419 
Q 3406 3131 3298 2873 
Q 3191 2616 2906 2266 
Q 2828 2175 2409 1742 
Q 1991 1309 1228 531 
z
" transform="scale(0.015625)"/>
        <path id="DejaVuSans-35" d="M 691 4666 
L 3169 4666 
L 3169 4134 
L 1269 4134 
L 1269 2991 
Q 1406 3038 1543 3061 
Q 1681 3084 1819 3084 
Q 2600 3084 3056 2656 
Q 3513 2228 3513 1497 
Q 3513 744 3044 326 
Q 2575 -91 1722 -91 
Q 1428 -91 1123 -41 
Q 819 9 494 109 
L 494 744 
Q 775 591 1075 516 
Q 1375 441 1709 441 
Q 2250 441 2565 725 
Q 2881 1009 2881 1497 
Q 2881 1984 2565 2268 
Q 2250 2553 1709 2553 
Q 1456 2553 1204 2497 
Q 953 2441 691 2322 
L 691 4666 
z
" transform="scale(0.015625)"/>
       </defs>
       <use xlink:href="#DejaVuSans-32"/>
       <use xlink:href="#DejaVuSans-35" transform="translate(63.623047 0)"/>
       <use xlink:href="#DejaVuSans-30" transform="translate(127.246094 0)"/>
      </g>
     </g>
    </g>
    <g id="xtick_3">
     <g id="line2d_3">
      <g>
       <use xlink:href="#me9efbeff9a" x="256.665232" y="384.48" style="stroke: #000000; stroke-width: 0.8"/>
      </g>
     </g>
     <g id="text_3">
      <!-- 500 -->
      <g transform="translate(247.121482 399.078438) scale(0.1 -0.1)">
       <use xlink:href="#DejaVuSans-35"/>
       <use xlink:href="#DejaVuSans-30" transform="translate(63.623047 0)"/>
       <use xlink:href="#DejaVuSans-30" transform="translate(127.246094 0)"/>
      </g>
     </g>
    </g>
    <g id="xtick_4">
     <g id="line2d_4">
      <g>
       <use xlink:href="#me9efbeff9a" x="327.316029" y="384.48" style="stroke: #000000; stroke-width: 0.8"/>
      </g>
     </g>
     <g id="text_4">
      <!-- 750 -->
      <g transform="translate(317.772279 399.078438) scale(0.1 -0.1)">
       <defs>
        <path id="DejaVuSans-37" d="M 525 4666 
L 3525 4666 
L 3525 4397 
L 1831 0 
L 1172 0 
L 2766 4134 
L 525 4134 
L 525 4666 
z
" transform="scale(0.015625)"/>
       </defs>
       <use xlink:href="#DejaVuSans-37"/>
       <use xlink:href="#DejaVuSans-35" transform="translate(63.623047 0)"/>
       <use xlink:href="#DejaVuSans-30" transform="translate(127.246094 0)"/>
      </g>
     </g>
    </g>
    <g id="xtick_5">
     <g id="line2d_5">
      <g>
       <use xlink:href="#me9efbeff9a" x="397.966827" y="384.48" style="stroke: #000000; stroke-width: 0.8"/>
      </g>
     </g>
     <g id="text_5">
      <!-- 1000 -->
      <g transform="translate(385.241827 399.078438) scale(0.1 -0.1)">
       <defs>
        <path id="DejaVuSans-31" d="M 794 531 
L 1825 531 
L 1825 4091 
L 703 3866 
L 703 4441 
L 1819 4666 
L 2450 4666 
L 2450 531 
L 3481 531 
L 3481 0 
L 794 0 
L 794 531 
z
" transform="scale(0.015625)"/>
       </defs>
       <use xlink:href="#DejaVuSans-31"/>
       <use xlink:href="#DejaVuSans-30" transform="translate(63.623047 0)"/>
       <use xlink:href="#DejaVuSans-30" transform="translate(127.246094 0)"/>
       <use xlink:href="#DejaVuSans-30" transform="translate(190.869141 0)"/>
      </g>
     </g>
    </g>
    <g id="xtick_6">
     <g id="line2d_6">
      <g>
       <use xlink:href="#me9efbeff9a" x="468.617625" y="384.48" style="stroke: #000000; stroke-width: 0.8"/>
      </g>
     </g>
     <g id="text_6">
      <!-- 1250 -->
      <g transform="translate(455.892625 399.078438) scale(0.1 -0.1)">
       <use xlink:href="#DejaVuSans-31"/>
       <use xlink:href="#DejaVuSans-32" transform="translate(63.623047 0)"/>
       <use xlink:href="#DejaVuSans-35" transform="translate(127.246094 0)"/>
       <use xlink:href="#DejaVuSans-30" transform="translate(190.869141 0)"/>
      </g>
     </g>
    </g>
    <g id="xtick_7">
     <g id="line2d_7">
      <g>
       <use xlink:href="#me9efbeff9a" x="539.268422" y="384.48" style="stroke: #000000; stroke-width: 0.8"/>
      </g>
     </g>
     <g id="text_7">
      <!-- 1500 -->
      <g transform="translate(526.543422 399.078438) scale(0.1 -0.1)">
       <use xlink:href="#DejaVuSans-31"/>
       <use xlink:href="#DejaVuSans-35" transform="translate(63.623047 0)"/>
       <use xlink:href="#DejaVuSans-30" transform="translate(127.246094 0)"/>
       <use xlink:href="#DejaVuSans-30" transform="translate(190.869141 0)"/>
      </g>
     </g>
    </g>
    <g id="xtick_8">
     <g id="line2d_8">
      <g>
       <use xlink:href="#me9efbeff9a" x="609.91922" y="384.48" style="stroke: #000000; stroke-width: 0.8"/>
      </g>
     </g>
     <g id="text_8">
      <!-- 1750 -->
      <g transform="translate(597.19422 399.078438) scale(0.1 -0.1)">
       <use xlink:href="#DejaVuSans-31"/>
       <use xlink:href="#DejaVuSans-37" transform="translate(63.623047 0)"/>
       <use xlink:href="#DejaVuSans-35" transform="translate(127.246094 0)"/>
       <use xlink:href="#DejaVuSans-30" transform="translate(190.869141 0)"/>
      </g>
     </g>
    </g>
    <g id="text_9">
     <!-- Index -->
     <g transform="translate(355.233594 412.756563) scale(0.1 -0.1)">
      <defs>
       <path id="DejaVuSans-49" d="M 628 4666 
L 1259 4666 
L 1259 0 
L 628 0 
L 628 4666 
z
" transform="scale(0.015625)"/>
       <path id="DejaVuSans-6e" d="M 3513 2113 
L 3513 0 
L 2938 0 
L 2938 2094 
Q 2938 2591 2744 2837 
Q 2550 3084 2163 3084 
Q 1697 3084 1428 2787 
Q 1159 2491 1159 1978 
L 1159 0 
L 581 0 
L 581 3500 
L 1159 3500 
L 1159 2956 
Q 1366 3272 1645 3428 
Q 1925 3584 2291 3584 
Q 2894 3584 3203 3211 
Q 3513 2838 3513 2113 
z
" transform="scale(0.015625)"/>
       <path id="DejaVuSans-64" d="M 2906 2969 
L 2906 4863 
L 3481 4863 
L 3481 0 
L 2906 0 
L 2906 525 
Q 2725 213 2448 61 
Q 2172 -91 1784 -91 
Q 1150 -91 751 415 
Q 353 922 353 1747 
Q 353 2572 751 3078 
Q 1150 3584 1784 3584 
Q 2172 3584 2448 3432 
Q 2725 3281 2906 2969 
z
M 947 1747 
Q 947 1113 1208 752 
Q 1469 391 1925 391 
Q 2381 391 2643 752 
Q 2906 1113 2906 1747 
Q 2906 2381 2643 2742 
Q 2381 3103 1925 3103 
Q 1469 3103 1208 2742 
Q 947 2381 947 1747 
z
" transform="scale(0.015625)"/>
       <path id="DejaVuSans-65" d="M 3597 1894 
L 3597 1613 
L 953 1613 
Q 991 1019 1311 708 
Q 1631 397 2203 397 
Q 2534 397 2845 478 
Q 3156 559 3463 722 
L 3463 178 
Q 3153 47 2828 -22 
Q 2503 -91 2169 -91 
Q 1331 -91 842 396 
Q 353 884 353 1716 
Q 353 2575 817 3079 
Q 1281 3584 2069 3584 
Q 2775 3584 3186 3129 
Q 3597 2675 3597 1894 
z
M 3022 2063 
Q 3016 2534 2758 2815 
Q 2500 3097 2075 3097 
Q 1594 3097 1305 2825 
Q 1016 2553 972 2059 
L 3022 2063 
z
" transform="scale(0.015625)"/>
       <path id="DejaVuSans-78" d="M 3513 3500 
L 2247 1797 
L 3578 0 
L 2900 0 
L 1881 1375 
L 863 0 
L 184 0 
L 1544 1831 
L 300 3500 
L 978 3500 
L 1906 2253 
L 2834 3500 
L 3513 3500 
z
" transform="scale(0.015625)"/>
      </defs>
      <use xlink:href="#DejaVuSans-49"/>
      <use xlink:href="#DejaVuSans-6e" transform="translate(29.492188 0)"/>
      <use xlink:href="#DejaVuSans-64" transform="translate(92.871094 0)"/>
      <use xlink:href="#DejaVuSans-65" transform="translate(156.347656 0)"/>
      <use xlink:href="#DejaVuSans-78" transform="translate(216.121094 0)"/>
     </g>
    </g>
   </g>
   <g id="matplotlib.axis_2">
    <g id="ytick_1">
     <g id="line2d_9">
      <defs>
       <path id="mba891172d2" d="M 0 0 
L -3.5 0 
" style="stroke: #000000; stroke-width: 0.8"/>
      </defs>
      <g>
       <use xlink:href="#mba891172d2" x="90" y="384.48" style="stroke: #000000; stroke-width: 0.8"/>
      </g>
     </g>
     <g id="text_10">
      <!-- 0.0 -->
      <g transform="translate(67.096875 388.279219) scale(0.1 -0.1)">
       <defs>
        <path id="DejaVuSans-2e" d="M 684 794 
L 1344 794 
L 1344 0 
L 684 0 
L 684 794 
z
" transform="scale(0.015625)"/>
       </defs>
       <use xlink:href="#DejaVuSans-30"/>
       <use xlink:href="#DejaVuSans-2e" transform="translate(63.623047 0)"/>
       <use xlink:href="#DejaVuSans-30" transform="translate(95.410156 0)"/>
      </g>
     </g>
    </g>
    <g id="ytick_2">
     <g id="line2d_10">
      <g>
       <use xlink:href="#mba891172d2" x="90" y="347.437723" style="stroke: #000000; stroke-width: 0.8"/>
      </g>
     </g>
     <g id="text_11">
      <!-- 0.5 -->
      <g transform="translate(67.096875 351.236941) scale(0.1 -0.1)">
       <use xlink:href="#DejaVuSans-30"/>
       <use xlink:href="#DejaVuSans-2e" transform="translate(63.623047 0)"/>
       <use xlink:href="#DejaVuSans-35" transform="translate(95.410156 0)"/>
      </g>
     </g>
    </g>
    <g id="ytick_3">
     <g id="line2d_11">
      <g>
       <use xlink:href="#mba891172d2" x="90" y="310.395445" style="stroke: #000000; stroke-width: 0.8"/>
      </g>
     </g>
     <g id="text_12">
      <!-- 1.0 -->
      <g transform="translate(67.096875 314.194664) scale(0.1 -0.1)">
       <use xlink:href="#DejaVuSans-31"/>
       <use xlink:href="#DejaVuSans-2e" transform="translate(63.623047 0)"/>
       <use xlink:href="#DejaVuSans-30" transform="translate(95.410156 0)"/>
      </g>
     </g>
    </g>
    <g id="ytick_4">
     <g id="line2d_12">
      <g>
       <use xlink:href="#mba891172d2" x="90" y="273.353168" style="stroke: #000000; stroke-width: 0.8"/>
      </g>
     </g>
     <g id="text_13">
      <!-- 1.5 -->
      <g transform="translate(67.096875 277.152387) scale(0.1 -0.1)">
       <use xlink:href="#DejaVuSans-31"/>
       <use xlink:href="#DejaVuSans-2e" transform="translate(63.623047 0)"/>
       <use xlink:href="#DejaVuSans-35" transform="translate(95.410156 0)"/>
      </g>
     </g>
    </g>
    <g id="ytick_5">
     <g id="line2d_13">
      <g>
       <use xlink:href="#mba891172d2" x="90" y="236.310891" style="stroke: #000000; stroke-width: 0.8"/>
      </g>
     </g>
     <g id="text_14">
      <!-- 2.0 -->
      <g transform="translate(67.096875 240.110109) scale(0.1 -0.1)">
       <use xlink:href="#DejaVuSans-32"/>
       <use xlink:href="#DejaVuSans-2e" transform="translate(63.623047 0)"/>
       <use xlink:href="#DejaVuSans-30" transform="translate(95.410156 0)"/>
      </g>
     </g>
    </g>
    <g id="ytick_6">
     <g id="line2d_14">
      <g>
       <use xlink:href="#mba891172d2" x="90" y="199.268613" style="stroke: #000000; stroke-width: 0.8"/>
      </g>
     </g>
     <g id="text_15">
      <!-- 2.5 -->
      <g transform="translate(67.096875 203.067832) scale(0.1 -0.1)">
       <use xlink:href="#DejaVuSans-32"/>
       <use xlink:href="#DejaVuSans-2e" transform="translate(63.623047 0)"/>
       <use xlink:href="#DejaVuSans-35" transform="translate(95.410156 0)"/>
      </g>
     </g>
    </g>
    <g id="ytick_7">
     <g id="line2d_15">
      <g>
       <use xlink:href="#mba891172d2" x="90" y="162.226336" style="stroke: #000000; stroke-width: 0.8"/>
      </g>
     </g>
     <g id="text_16">
      <!-- 3.0 -->
      <g transform="translate(67.096875 166.025555) scale(0.1 -0.1)">
       <defs>
        <path id="DejaVuSans-33" d="M 2597 2516 
Q 3050 2419 3304 2112 
Q 3559 1806 3559 1356 
Q 3559 666 3084 287 
Q 2609 -91 1734 -91 
Q 1441 -91 1130 -33 
Q 819 25 488 141 
L 488 750 
Q 750 597 1062 519 
Q 1375 441 1716 441 
Q 2309 441 2620 675 
Q 2931 909 2931 1356 
Q 2931 1769 2642 2001 
Q 2353 2234 1838 2234 
L 1294 2234 
L 1294 2753 
L 1863 2753 
Q 2328 2753 2575 2939 
Q 2822 3125 2822 3475 
Q 2822 3834 2567 4026 
Q 2313 4219 1838 4219 
Q 1578 4219 1281 4162 
Q 984 4106 628 3988 
L 628 4550 
Q 988 4650 1302 4700 
Q 1616 4750 1894 4750 
Q 2613 4750 3031 4423 
Q 3450 4097 3450 3541 
Q 3450 3153 3228 2886 
Q 3006 2619 2597 2516 
z
" transform="scale(0.015625)"/>
       </defs>
       <use xlink:href="#DejaVuSans-33"/>
       <use xlink:href="#DejaVuSans-2e" transform="translate(63.623047 0)"/>
       <use xlink:href="#DejaVuSans-30" transform="translate(95.410156 0)"/>
      </g>
     </g>
    </g>
    <g id="ytick_8">
     <g id="line2d_16">
      <g>
       <use xlink:href="#mba891172d2" x="90" y="125.184058" style="stroke: #000000; stroke-width: 0.8"/>
      </g>
     </g>
     <g id="text_17">
      <!-- 3.5 -->
      <g transform="translate(67.096875 128.983277) scale(0.1 -0.1)">
       <use xlink:href="#DejaVuSans-33"/>
       <use xlink:href="#DejaVuSans-2e" transform="translate(63.623047 0)"/>
       <use xlink:href="#DejaVuSans-35" transform="translate(95.410156 0)"/>
      </g>
     </g>
    </g>
    <g id="ytick_9">
     <g id="line2d_17">
      <g>
       <use xlink:href="#mba891172d2" x="90" y="88.141781" style="stroke: #000000; stroke-width: 0.8"/>
      </g>
     </g>
     <g id="text_18">
      <!-- 4.0 -->
      <g transform="translate(67.096875 91.941) scale(0.1 -0.1)">
       <defs>
        <path id="DejaVuSans-34" d="M 2419 4116 
L 825 1625 
L 2419 1625 
L 2419 4116 
z
M 2253 4666 
L 3047 4666 
L 3047 1625 
L 3713 1625 
L 3713 1100 
L 3047 1100 
L 3047 0 
L 2419 0 
L 2419 1100 
L 313 1100 
L 313 1709 
L 2253 4666 
z
" transform="scale(0.015625)"/>
       </defs>
       <use xlink:href="#DejaVuSans-34"/>
       <use xlink:href="#DejaVuSans-2e" transform="translate(63.623047 0)"/>
       <use xlink:href="#DejaVuSans-30" transform="translate(95.410156 0)"/>
      </g>
     </g>
    </g>
    <g id="text_19">
     <!-- Average time (ms) -->
     <g transform="translate(61.017187 264.543594) rotate(-90) scale(0.1 -0.1)">
      <defs>
       <path id="DejaVuSans-41" d="M 2188 4044 
L 1331 1722 
L 3047 1722 
L 2188 4044 
z
M 1831 4666 
L 2547 4666 
L 4325 0 
L 3669 0 
L 3244 1197 
L 1141 1197 
L 716 0 
L 50 0 
L 1831 4666 
z
" transform="scale(0.015625)"/>
       <path id="DejaVuSans-76" d="M 191 3500 
L 800 3500 
L 1894 563 
L 2988 3500 
L 3597 3500 
L 2284 0 
L 1503 0 
L 191 3500 
z
" transform="scale(0.015625)"/>
       <path id="DejaVuSans-72" d="M 2631 2963 
Q 2534 3019 2420 3045 
Q 2306 3072 2169 3072 
Q 1681 3072 1420 2755 
Q 1159 2438 1159 1844 
L 1159 0 
L 581 0 
L 581 3500 
L 1159 3500 
L 1159 2956 
Q 1341 3275 1631 3429 
Q 1922 3584 2338 3584 
Q 2397 3584 2469 3576 
Q 2541 3569 2628 3553 
L 2631 2963 
z
" transform="scale(0.015625)"/>
       <path id="DejaVuSans-61" d="M 2194 1759 
Q 1497 1759 1228 1600 
Q 959 1441 959 1056 
Q 959 750 1161 570 
Q 1363 391 1709 391 
Q 2188 391 2477 730 
Q 2766 1069 2766 1631 
L 2766 1759 
L 2194 1759 
z
M 3341 1997 
L 3341 0 
L 2766 0 
L 2766 531 
Q 2569 213 2275 61 
Q 1981 -91 1556 -91 
Q 1019 -91 701 211 
Q 384 513 384 1019 
Q 384 1609 779 1909 
Q 1175 2209 1959 2209 
L 2766 2209 
L 2766 2266 
Q 2766 2663 2505 2880 
Q 2244 3097 1772 3097 
Q 1472 3097 1187 3025 
Q 903 2953 641 2809 
L 641 3341 
Q 956 3463 1253 3523 
Q 1550 3584 1831 3584 
Q 2591 3584 2966 3190 
Q 3341 2797 3341 1997 
z
" transform="scale(0.015625)"/>
       <path id="DejaVuSans-67" d="M 2906 1791 
Q 2906 2416 2648 2759 
Q 2391 3103 1925 3103 
Q 1463 3103 1205 2759 
Q 947 2416 947 1791 
Q 947 1169 1205 825 
Q 1463 481 1925 481 
Q 2391 481 2648 825 
Q 2906 1169 2906 1791 
z
M 3481 434 
Q 3481 -459 3084 -895 
Q 2688 -1331 1869 -1331 
Q 1566 -1331 1297 -1286 
Q 1028 -1241 775 -1147 
L 775 -588 
Q 1028 -725 1275 -790 
Q 1522 -856 1778 -856 
Q 2344 -856 2625 -561 
Q 2906 -266 2906 331 
L 2906 616 
Q 2728 306 2450 153 
Q 2172 0 1784 0 
Q 1141 0 747 490 
Q 353 981 353 1791 
Q 353 2603 747 3093 
Q 1141 3584 1784 3584 
Q 2172 3584 2450 3431 
Q 2728 3278 2906 2969 
L 2906 3500 
L 3481 3500 
L 3481 434 
z
" transform="scale(0.015625)"/>
       <path id="DejaVuSans-20" transform="scale(0.015625)"/>
       <path id="DejaVuSans-74" d="M 1172 4494 
L 1172 3500 
L 2356 3500 
L 2356 3053 
L 1172 3053 
L 1172 1153 
Q 1172 725 1289 603 
Q 1406 481 1766 481 
L 2356 481 
L 2356 0 
L 1766 0 
Q 1100 0 847 248 
Q 594 497 594 1153 
L 594 3053 
L 172 3053 
L 172 3500 
L 594 3500 
L 594 4494 
L 1172 4494 
z
" transform="scale(0.015625)"/>
       <path id="DejaVuSans-69" d="M 603 3500 
L 1178 3500 
L 1178 0 
L 603 0 
L 603 3500 
z
M 603 4863 
L 1178 4863 
L 1178 4134 
L 603 4134 
L 603 4863 
z
" transform="scale(0.015625)"/>
       <path id="DejaVuSans-6d" d="M 3328 2828 
Q 3544 3216 3844 3400 
Q 4144 3584 4550 3584 
Q 5097 3584 5394 3201 
Q 5691 2819 5691 2113 
L 5691 0 
L 5113 0 
L 5113 2094 
Q 5113 2597 4934 2840 
Q 4756 3084 4391 3084 
Q 3944 3084 3684 2787 
Q 3425 2491 3425 1978 
L 3425 0 
L 2847 0 
L 2847 2094 
Q 2847 2600 2669 2842 
Q 2491 3084 2119 3084 
Q 1678 3084 1418 2786 
Q 1159 2488 1159 1978 
L 1159 0 
L 581 0 
L 581 3500 
L 1159 3500 
L 1159 2956 
Q 1356 3278 1631 3431 
Q 1906 3584 2284 3584 
Q 2666 3584 2933 3390 
Q 3200 3197 3328 2828 
z
" transform="scale(0.015625)"/>
       <path id="DejaVuSans-28" d="M 1984 4856 
Q 1566 4138 1362 3434 
Q 1159 2731 1159 2009 
Q 1159 1288 1364 580 
Q 1569 -128 1984 -844 
L 1484 -844 
Q 1016 -109 783 600 
Q 550 1309 550 2009 
Q 550 2706 781 3412 
Q 1013 4119 1484 4856 
L 1984 4856 
z
" transform="scale(0.015625)"/>
       <path id="DejaVuSans-73" d="M 2834 3397 
L 2834 2853 
Q 2591 2978 2328 3040 
Q 2066 3103 1784 3103 
Q 1356 3103 1142 2972 
Q 928 2841 928 2578 
Q 928 2378 1081 2264 
Q 1234 2150 1697 2047 
L 1894 2003 
Q 2506 1872 2764 1633 
Q 3022 1394 3022 966 
Q 3022 478 2636 193 
Q 2250 -91 1575 -91 
Q 1294 -91 989 -36 
Q 684 19 347 128 
L 347 722 
Q 666 556 975 473 
Q 1284 391 1588 391 
Q 1994 391 2212 530 
Q 2431 669 2431 922 
Q 2431 1156 2273 1281 
Q 2116 1406 1581 1522 
L 1381 1569 
Q 847 1681 609 1914 
Q 372 2147 372 2553 
Q 372 3047 722 3315 
Q 1072 3584 1716 3584 
Q 2034 3584 2315 3537 
Q 2597 3491 2834 3397 
z
" transform="scale(0.015625)"/>
       <path id="DejaVuSans-29" d="M 513 4856 
L 1013 4856 
Q 1481 4119 1714 3412 
Q 1947 2706 1947 2009 
Q 1947 1309 1714 600 
Q 1481 -109 1013 -844 
L 513 -844 
Q 928 -128 1133 580 
Q 1338 1288 1338 2009 
Q 1338 2731 1133 3434 
Q 928 4138 513 4856 
z
" transform="scale(0.015625)"/>
      </defs>
      <use xlink:href="#DejaVuSans-41"/>
      <use xlink:href="#DejaVuSans-76" transform="translate(62.533203 0)"/>
      <use xlink:href="#DejaVuSans-65" transform="translate(121.712891 0)"/>
      <use xlink:href="#DejaVuSans-72" transform="translate(183.236328 0)"/>
      <use xlink:href="#DejaVuSans-61" transform="translate(224.349609 0)"/>
      <use xlink:href="#DejaVuSans-67" transform="translate(285.628906 0)"/>
      <use xlink:href="#DejaVuSans-65" transform="translate(349.105469 0)"/>
      <use xlink:href="#DejaVuSans-20" transform="translate(410.628906 0)"/>
      <use xlink:href="#DejaVuSans-74" transform="translate(442.416016 0)"/>
      <use xlink:href="#DejaVuSans-69" transform="translate(481.625 0)"/>
      <use xlink:href="#DejaVuSans-6d" transform="translate(509.408203 0)"/>
      <use xlink:href="#DejaVuSans-65" transform="translate(606.820312 0)"/>
      <use xlink:href="#DejaVuSans-20" transform="translate(668.34375 0)"/>
      <use xlink:href="#DejaVuSans-28" transform="translate(700.130859 0)"/>
      <use xlink:href="#DejaVuSans-6d" transform="translate(739.144531 0)"/>
      <use xlink:href="#DejaVuSans-73" transform="translate(836.556641 0)"/>
      <use xlink:href="#DejaVuSans-29" transform="translate(888.65625 0)"/>
     </g>
    </g>
   </g>
   <g id="line2d_18">
    <path d="M 115.363636 282.407634 
L 115.64624 324.435483 
L 115.928843 140.819641 
L 116.211446 235.635269 
L 116.494049 185.32913 
L 116.776652 248.151758 
L 117.059256 194.415378 
L 117.341859 254.262689 
L 117.624462 236.539649 
L 117.907065 290.650126 
L 118.189668 251.130854 
L 118.472271 246.525736 
L 118.754875 239.210471 
L 119.037478 301.485385 
L 119.320081 295.659072 
L 119.602684 306.589285 
L 119.885287 297.032681 
L 120.450494 67.668181 
L 120.733097 333.895044 
L 121.298303 309.111856 
L 121.86351 331.494608 
L 122.146113 300.375569 
L 122.428716 301.492764 
L 122.711319 310.378939 
L 122.993923 323.035411 
L 123.276526 312.852045 
L 123.559129 324.277817 
L 123.841732 255.841342 
L 124.124335 322.315969 
L 124.406938 319.287918 
L 124.689542 331.717617 
L 124.972145 312.254731 
L 125.254748 333.792051 
L 125.537351 275.525912 
L 125.819954 334.009897 
L 126.102558 307.869132 
L 126.385161 326.045548 
L 126.667764 333.37137 
L 126.950367 312.891954 
L 127.23297 328.334072 
L 127.515574 314.601188 
L 127.798177 327.400629 
L 128.08078 311.170896 
L 128.363383 319.911806 
L 128.645986 314.413769 
L 128.92859 322.035877 
L 129.211193 301.601149 
L 129.493796 314.785703 
L 129.776399 306.304141 
L 130.059002 293.875271 
L 130.624209 325.183915 
L 130.906812 297.272144 
L 131.189415 305.566955 
L 131.472018 288.723913 
L 131.754621 309.739567 
L 132.319828 297.304053 
L 132.602431 300.871283 
L 132.885034 311.253211 
L 133.167637 260.689162 
L 133.450241 271.962712 
L 133.732844 206.161611 
L 134.015447 288.60534 
L 134.580653 312.816425 
L 134.863257 303.413969 
L 135.14586 304.944719 
L 135.428463 301.608395 
L 135.711066 312.249648 
L 135.993669 300.760919 
L 136.276272 311.71035 
L 136.558876 292.887606 
L 136.841479 261.959319 
L 137.124082 309.476597 
L 137.406685 318.013679 
L 137.689288 377.337945 
L 137.971892 381.654297 
L 138.254495 377.226092 
L 138.537098 382.46407 
L 138.819701 381.981046 
L 139.102304 381.979557 
L 139.384908 292.453529 
L 139.667511 313.667093 
L 139.950114 299.897938 
L 140.232717 317.156661 
L 140.51532 301.888605 
L 140.797924 314.73317 
L 141.080527 303.481638 
L 141.36313 316.615829 
L 141.645733 380.849709 
L 141.928336 382.573723 
L 142.210939 379.919918 
L 142.493543 382.339616 
L 142.776146 380.666712 
L 143.058749 382.936759 
L 143.341352 379.522802 
L 143.623955 383.462041 
L 143.906559 381.760215 
L 144.189162 383.258294 
L 145.036971 383.61467 
L 145.319575 380.5793 
L 145.602178 383.739866 
L 145.884781 383.576872 
L 146.167384 383.101227 
L 146.449987 383.591674 
L 147.863003 383.775434 
L 148.145606 289.553215 
L 148.42821 330.022007 
L 148.710813 334.278305 
L 148.993416 333.364761 
L 149.276019 382.839709 
L 149.558622 383.512419 
L 149.841226 383.107895 
L 150.123829 383.270888 
L 150.406432 331.399269 
L 150.689035 332.577998 
L 151.254242 330.720624 
L 151.536845 383.04716 
L 151.819448 383.521324 
L 152.102051 383.401277 
L 152.384654 383.530932 
L 152.667258 335.430328 
L 152.949861 332.592015 
L 153.232464 331.47848 
L 153.515067 333.388528 
L 153.79767 383.479073 
L 154.080273 383.657632 
L 154.362877 383.510937 
L 154.64548 383.811713 
L 154.928083 333.386987 
L 155.210686 334.589453 
L 155.493289 333.836717 
L 155.775893 327.683002 
L 156.058496 381.655045 
L 156.341099 383.629465 
L 156.906305 383.865802 
L 157.188909 334.157518 
L 157.471512 333.179557 
L 158.036718 335.371075 
L 158.601925 331.292557 
L 158.884528 330.253114 
L 159.167131 329.672261 
L 159.449734 383.516849 
L 160.01494 383.790984 
L 160.297544 383.745807 
L 160.86275 270.758986 
L 161.145353 293.797831 
L 161.427956 332.051205 
L 161.71056 331.851169 
L 161.993163 332.288291 
L 162.275766 329.037349 
L 162.558369 324.248249 
L 162.840972 383.452418 
L 163.123576 383.682072 
L 163.688782 383.867291 
L 163.971385 327.830401 
L 164.536592 332.872107 
L 164.819195 330.484243 
L 165.101798 331.134001 
L 165.384401 330.782811 
L 165.667004 333.386979 
L 165.949607 325.764153 
L 166.232211 383.610944 
L 166.514814 383.102738 
L 166.797417 383.47019 
L 167.08002 381.932136 
L 167.362623 331.576323 
L 167.645227 326.449457 
L 167.92783 332.008229 
L 168.210433 329.789322 
L 168.493036 319.194898 
L 168.775639 320.226229 
L 169.058243 305.198192 
L 169.340846 320.899591 
L 169.623449 383.434637 
L 169.906052 381.446867 
L 170.188655 383.426495 
L 170.471259 383.539823 
L 170.753862 310.70883 
L 171.036465 327.442953 
L 171.319068 326.582758 
L 171.601671 265.736372 
L 172.166878 322.054606 
L 172.449481 313.764633 
L 172.732084 320.686212 
L 173.014687 317.129309 
L 173.579894 299.935788 
L 173.862497 288.704243 
L 174.1451 378.392242 
L 174.427703 375.703625 
L 174.710306 381.742487 
L 174.99291 381.486132 
L 175.275513 383.483511 
L 175.558116 383.359812 
L 176.123322 383.620582 
L 176.405926 304.407769 
L 176.688529 308.183984 
L 176.971132 309.593169 
L 177.253735 309.67321 
L 177.536338 306.256267 
L 177.818942 299.63662 
L 178.101545 302.975803 
L 178.384148 297.775571 
L 178.666751 298.492747 
L 178.949354 293.727391 
L 179.514561 300.100337 
L 179.797164 381.01937 
L 180.079767 382.016585 
L 180.644973 381.608372 
L 180.927577 383.488719 
L 181.492783 383.070112 
L 181.775386 383.511685 
L 182.057989 310.261456 
L 182.340593 309.965873 
L 182.905799 305.862878 
L 183.188402 306.503043 
L 183.471005 287.571224 
L 183.753609 307.661718 
L 184.036212 307.141652 
L 184.318815 302.479229 
L 184.601418 294.655574 
L 184.884021 291.915905 
L 185.166624 294.61122 
L 185.449228 380.743768 
L 185.731831 380.957894 
L 186.297037 381.070473 
L 186.57964 382.948598 
L 186.862244 382.896732 
L 187.144847 381.45801 
L 187.42745 383.150138 
L 187.710053 299.894389 
L 188.27526 289.196046 
L 188.557863 289.192261 
L 188.840466 283.30076 
L 189.123069 292.052821 
L 189.405672 294.969656 
L 189.688276 284.732118 
L 189.970879 289.252195 
L 190.253482 286.377588 
L 190.536085 289.186289 
L 190.818688 283.071091 
L 191.101291 380.263678 
L 191.383895 381.656526 
L 191.666498 381.591332 
L 191.949101 380.665238 
L 192.231704 383.305708 
L 192.514307 383.401292 
L 192.796911 383.247915 
L 193.079514 383.422762 
L 193.362117 299.392704 
L 193.64472 301.066326 
L 193.927323 304.792201 
L 194.209927 298.286577 
L 194.49253 294.937836 
L 194.775133 295.950565 
L 195.057736 295.220795 
L 195.340339 295.774303 
L 195.622943 294.035516 
L 195.905546 281.375451 
L 196.188149 295.345346 
L 196.470752 295.497878 
L 196.753355 383.319051 
L 197.035958 383.147152 
L 197.318562 383.358301 
L 197.601165 381.501668 
L 197.883768 303.530496 
L 198.166371 302.413242 
L 198.448974 300.527034 
L 198.731578 303.114875 
L 199.014181 301.074482 
L 199.296784 302.928893 
L 199.86199 293.077514 
L 200.144594 292.288521 
L 200.427197 292.6671 
L 200.7098 290.900065 
L 200.992403 293.657648 
L 201.275006 382.686339 
L 201.55761 383.131617 
L 202.122816 383.136069 
L 202.405419 266.174323 
L 203.253229 299.369441 
L 203.535832 301.200122 
L 203.818435 321.770625 
L 204.101038 321.938871 
L 204.383641 318.307868 
L 204.666245 316.16378 
L 204.948848 318.50863 
L 205.231451 316.896513 
L 205.514054 316.080716 
L 205.796657 383.534637 
L 206.079261 383.335357 
L 206.644467 383.903593 
L 206.92707 325.332803 
L 207.209673 319.05307 
L 207.492277 322.199626 
L 207.77488 323.779887 
L 208.057483 318.680484 
L 208.340086 321.086098 
L 208.622689 321.321717 
L 208.905292 319.792508 
L 209.187896 320.454891 
L 209.470499 311.107953 
L 209.753102 318.23148 
L 210.035705 312.29707 
L 210.318308 296.312031 
L 210.600912 313.667004 
L 210.883515 313.695201 
L 211.166118 304.299368 
L 211.448721 313.77442 
L 211.731324 293.614308 
L 212.013928 324.052577 
L 212.296531 324.240797 
L 212.579134 383.776923 
L 213.14434 383.891006 
L 213.426944 383.943598 
L 213.709547 317.202949 
L 213.99215 336.671325 
L 214.274753 337.444042 
L 214.557356 337.032102 
L 214.839959 334.992495 
L 215.122563 331.771151 
L 215.405166 333.829323 
L 215.687769 327.797063 
L 215.970372 329.962643 
L 216.535579 331.027371 
L 216.818182 332.829137 
L 217.100785 331.111057 
L 217.383388 330.484991 
L 217.948595 325.638187 
L 218.513801 328.722468 
L 218.796404 329.541161 
L 219.079007 328.965495 
L 219.361611 383.788021 
L 219.644214 383.738369 
L 219.926817 383.976921 
L 220.20942 383.974721 
L 220.492023 336.125285 
L 220.774626 335.387359 
L 221.05723 337.592226 
L 221.339833 337.738921 
L 221.622436 335.801514 
L 221.905039 334.722828 
L 222.187642 334.799898 
L 222.470246 330.904436 
L 222.752849 334.09528 
L 223.035452 333.956749 
L 223.318055 332.612085 
L 223.600658 302.674916 
L 223.883262 330.090113 
L 224.448468 328.367588 
L 224.731071 330.80211 
L 225.013674 327.450377 
L 225.296278 327.491086 
L 225.578881 324.335654 
L 225.861484 305.275217 
L 226.144087 383.633903 
L 226.42669 383.932508 
L 226.709293 383.848785 
L 226.991897 384.046576 
L 227.2745 328.702383 
L 227.557103 318.240429 
L 227.839706 321.406551 
L 228.122309 320.883825 
L 228.404913 335.357754 
L 228.687516 334.985798 
L 228.970119 333.943399 
L 229.252722 331.914141 
L 229.535325 334.769486 
L 230.100532 332.339424 
L 230.383135 333.025469 
L 230.665738 330.451646 
L 230.948341 332.507588 
L 231.230945 330.421286 
L 231.513548 330.252351 
L 231.796151 331.571137 
L 232.078754 331.337734 
L 232.361357 333.01732 
L 232.64396 330.432398 
L 232.926564 383.516115 
L 233.209167 383.99548 
L 233.49177 383.936953 
L 233.774373 384.105858 
L 234.056976 339.771868 
L 234.622183 337.258838 
L 234.904786 337.434433 
L 235.469992 336.101571 
L 235.752596 332.425377 
L 236.035199 334.550929 
L 236.317802 312.709743 
L 236.600405 333.298871 
L 236.883008 332.032706 
L 237.165612 329.311477 
L 237.448215 331.232549 
L 237.730818 330.041225 
L 238.013421 332.909897 
L 238.296024 330.910251 
L 238.578628 332.654268 
L 239.143834 331.529694 
L 239.426437 331.268117 
L 239.991643 327.20143 
L 240.274247 326.113047 
L 240.55685 327.277752 
L 240.839453 383.863587 
L 241.122056 383.96066 
L 241.404659 383.606521 
L 241.687263 384.022869 
L 241.969866 338.116034 
L 242.252469 337.06544 
L 242.535072 337.232879 
L 242.817675 336.978036 
L 243.100279 337.152142 
L 243.665485 332.217147 
L 243.948088 332.146841 
L 244.230691 329.861199 
L 244.513295 299.300913 
L 244.795898 324.890629 
L 245.078501 324.037108 
L 245.361104 327.535603 
L 245.92631 329.318871 
L 246.208914 327.653398 
L 246.491517 330.413877 
L 246.77412 330.836174 
L 247.056723 328.749153 
L 247.339326 329.312203 
L 247.904533 322.935501 
L 248.187136 323.113296 
L 248.469739 321.084046 
L 248.752342 383.286461 
L 249.034946 383.852459 
L 249.600152 383.982137 
L 249.882755 327.432618 
L 250.165358 331.214042 
L 250.447962 333.469991 
L 251.013168 302.229497 
L 251.295771 331.713372 
L 251.578374 313.403915 
L 251.860977 326.196118 
L 252.143581 327.923036 
L 252.426184 328.32387 
L 252.99139 323.374978 
L 253.273993 317.040437 
L 253.556597 326.376914 
L 253.8392 326.576934 
L 254.121803 327.133354 
L 254.404406 329.607882 
L 254.687009 329.424885 
L 254.969613 328.949233 
L 255.252216 314.39144 
L 255.534819 318.734181 
L 255.817422 319.660845 
L 256.100025 313.822819 
L 256.382629 321.009977 
L 256.665232 383.676886 
L 256.947835 383.919891 
L 257.513041 384.074002 
L 257.795644 305.831614 
L 258.078248 332.015689 
L 258.360851 329.665601 
L 258.643454 329.219634 
L 258.926057 329.315929 
L 259.20866 314.804299 
L 259.491264 330.019822 
L 259.773867 258.579715 
L 260.05647 323.208814 
L 260.339073 321.209946 
L 260.621676 323.291833 
L 260.90428 327.28299 
L 261.186883 324.912195 
L 261.469486 323.944644 
L 261.752089 320.990729 
L 262.034692 319.63936 
L 262.317296 325.089265 
L 262.599899 323.904564 
L 262.882502 323.360783 
L 263.730311 318.647398 
L 264.012915 313.945859 
L 264.295518 312.221881 
L 264.578121 383.744318 
L 265.143327 383.957696 
L 265.425931 384.087315 
L 265.708534 319.970081 
L 265.991137 320.510002 
L 266.27374 328.852908 
L 266.556343 327.326737 
L 266.838947 330.621366 
L 267.12155 331.351936 
L 267.404153 332.463219 
L 267.686756 330.017599 
L 267.969359 330.814756 
L 268.251963 326.773362 
L 268.534566 331.102871 
L 269.099772 326.075271 
L 269.382375 330.504283 
L 269.664978 329.766363 
L 269.947582 331.625197 
L 270.230185 331.620752 
L 270.512788 329.704866 
L 270.795391 329.823409 
L 271.077994 329.175954 
L 271.360598 325.902032 
L 271.643201 326.52512 
L 271.925804 323.605314 
L 272.208407 322.281349 
L 272.49101 302.301463 
L 272.773614 322.064311 
L 273.056217 306.889512 
L 273.33882 326.670985 
L 273.621423 383.908786 
L 274.469233 384.161422 
L 274.751836 337.156587 
L 275.034439 312.306034 
L 275.317042 335.650411 
L 275.882249 324.814344 
L 276.164852 317.430796 
L 276.447455 315.862411 
L 276.730058 315.957165 
L 277.012661 309.36567 
L 277.295265 308.361024 
L 277.577868 308.303986 
L 277.860471 303.443054 
L 278.143074 302.519213 
L 278.425677 303.834258 
L 278.990884 299.159345 
L 279.273487 295.019952 
L 279.55609 293.357435 
L 280.121297 299.826135 
L 280.4039 300.202514 
L 280.686503 294.91044 
L 280.969106 293.757736 
L 281.251709 281.274548 
L 281.534312 295.361689 
L 282.099519 287.390613 
L 282.382122 290.373383 
L 282.664725 383.449439 
L 282.947328 383.732457 
L 283.229932 383.796918 
L 283.512535 383.355359 
L 283.795138 302.54226 
L 284.360344 317.271588 
L 284.642948 312.009177 
L 284.925551 311.454151 
L 285.208154 310.54294 
L 285.490757 321.345624 
L 285.77336 311.534192 
L 286.055964 312.500973 
L 286.62117 321.395031 
L 286.903773 320.173325 
L 287.186376 319.610993 
L 287.468979 314.22555 
L 287.751583 313.864032 
L 288.034186 313.924752 
L 288.599392 319.498378 
L 289.164599 315.599982 
L 289.447202 311.297728 
L 290.012408 316.700834 
L 290.295011 316.743047 
L 290.860218 311.695577 
L 291.425424 312.83951 
L 291.708027 383.773196 
L 291.990631 383.973254 
L 292.273234 383.559825 
L 292.555837 384.125135 
L 292.83844 328.613489 
L 293.121043 328.036348 
L 293.403646 329.201698 
L 293.68625 332.996457 
L 294.251456 330.647925 
L 294.534059 327.425825 
L 294.816662 325.499434 
L 295.099266 328.214855 
L 295.381869 326.330055 
L 295.664472 325.609249 
L 296.229678 330.897672 
L 296.512282 331.465937 
L 296.794885 332.704683 
L 297.077488 332.789147 
L 297.360091 332.2246 
L 297.642694 333.576695 
L 297.925298 332.86395 
L 298.207901 327.319314 
L 298.490504 324.146917 
L 298.773107 322.728909 
L 299.05571 323.3216 
L 299.338313 322.23472 
L 299.620917 321.922802 
L 299.90352 318.408208 
L 300.186123 321.043389 
L 300.468726 307.277826 
L 300.751329 383.921373 
L 301.033933 384.09845 
L 301.316536 384.042886 
L 301.599139 384.172542 
L 301.881742 305.943697 
L 302.164345 332.279497 
L 302.446949 331.893494 
L 302.729552 332.560277 
L 303.012155 318.053077 
L 303.294758 330.562157 
L 303.577361 329.564209 
L 304.142568 325.924361 
L 304.425171 326.115484 
L 304.707774 325.879895 
L 304.990377 325.413125 
L 305.272981 323.74689 
L 305.555584 319.348386 
L 305.838187 325.80204 
L 306.12079 326.011662 
L 306.403393 334.31903 
L 306.685996 332.537222 
L 306.9686 333.395151 
L 307.251203 332.674286 
L 307.533806 331.442223 
L 308.099012 323.65644 
L 308.381616 328.981052 
L 308.664219 314.623503 
L 308.946822 328.847693 
L 309.229425 326.759894 
L 309.512028 303.522147 
L 309.794632 321.63079 
L 310.359838 323.8438 
L 310.642441 322.670226 
L 310.925044 322.297574 
L 311.207648 309.448385 
L 311.490251 303.906801 
L 311.772854 315.431876 
L 312.055457 303.297004 
L 312.33806 303.553959 
L 312.903267 321.767091 
L 313.18587 302.381274 
L 313.468473 317.563311 
L 313.751076 318.088608 
L 314.033679 316.840187 
L 314.316283 383.951755 
L 315.164092 384.185143 
L 315.446695 335.127196 
L 315.729299 335.384314 
L 316.011902 336.200029 
L 316.294505 336.595678 
L 316.577108 336.420838 
L 317.142315 333.34544 
L 317.424918 333.589964 
L 317.707521 332.319339 
L 317.990124 328.337835 
L 318.272727 326.477506 
L 318.55533 326.572297 
L 318.837934 327.612525 
L 319.120537 330.92872 
L 319.40314 330.421975 
L 319.685743 326.433796 
L 319.968346 325.475845 
L 320.25095 331.2021 
L 320.533553 331.651823 
L 320.816156 331.21322 
L 321.381362 328.83721 
L 321.663966 329.384746 
L 321.946569 329.408498 
L 322.229172 327.15549 
L 322.511775 326.285723 
L 322.794378 326.287938 
L 323.076982 325.713005 
L 323.359585 326.148644 
L 323.642188 324.633563 
L 323.924791 323.767478 
L 324.207394 325.266994 
L 324.489997 306.774822 
L 324.772601 316.417942 
L 325.055204 287.364609 
L 325.337807 315.74824 
L 325.62041 305.181848 
L 325.903013 319.392585 
L 326.185617 309.365611 
L 326.46822 318.379782 
L 326.750823 311.091084 
L 327.033426 322.831753 
L 327.316029 323.850438 
L 327.598633 317.644804 
L 327.881236 383.672441 
L 328.163839 384.034737 
L 328.446442 382.675952 
L 328.729045 384.188818 
L 329.011649 335.060624 
L 329.294252 332.898006 
L 329.576855 336.514955 
L 329.859458 334.628681 
L 330.142061 331.977817 
L 330.424664 332.141566 
L 330.707268 332.594956 
L 330.989871 331.954814 
L 331.272474 328.827645 
L 331.555077 312.241514 
L 331.83768 329.914503 
L 332.120284 332.943961 
L 332.402887 330.42053 
L 332.68549 331.617766 
L 332.968093 331.610395 
L 333.250696 331.145847 
L 333.5333 328.958738 
L 333.815903 331.733368 
L 334.098506 332.446061 
L 334.381109 330.176014 
L 334.663712 323.82742 
L 334.946316 324.199354 
L 335.228919 329.475908 
L 335.511522 324.059341 
L 335.794125 325.533683 
L 336.359331 322.670937 
L 336.641935 316.002261 
L 337.207141 323.844511 
L 337.489744 321.932307 
L 337.772347 323.827471 
L 338.054951 322.419065 
L 338.337554 322.776182 
L 338.620157 308.669897 
L 338.90276 321.795258 
L 339.185363 307.88163 
L 339.467967 310.877632 
L 339.75057 299.133356 
L 340.033173 315.878584 
L 340.315776 287.268633 
L 340.598379 316.600279 
L 340.880983 312.51876 
L 341.163586 318.596909 
L 341.446189 383.664314 
L 341.728792 384.019935 
L 342.293998 384.069549 
L 342.576602 334.180521 
L 342.859205 329.693812 
L 343.141808 330.181311 
L 343.424411 332.332838 
L 343.989618 328.002447 
L 344.272221 329.419722 
L 344.554824 329.544154 
L 345.12003 333.278119 
L 345.402634 328.614304 
L 345.685237 307.695026 
L 345.96784 328.100854 
L 346.533046 322.847318 
L 346.81565 311.236905 
L 347.380856 327.92597 
L 347.663459 310.073963 
L 347.946062 330.257566 
L 348.228665 306.631528 
L 348.793872 326.423505 
L 349.076475 325.880473 
L 349.359078 325.02919 
L 349.641681 309.543184 
L 349.924285 325.06924 
L 350.206888 324.982553 
L 350.489491 321.400402 
L 350.772094 321.250003 
L 351.054697 319.282991 
L 351.337301 321.9094 
L 351.619904 321.40115 
L 351.902507 322.679131 
L 352.18511 308.358024 
L 352.467713 317.521942 
L 352.750317 311.343757 
L 353.315523 293.853942 
L 353.598126 315.016217 
L 353.880729 305.484899 
L 354.163332 313.930108 
L 354.445936 315.879391 
L 354.728539 314.105718 
L 355.011142 383.825811 
L 355.293745 384.045109 
L 355.858952 384.131054 
L 356.141555 336.530528 
L 356.424158 333.725561 
L 356.706761 334.995466 
L 356.989364 335.52743 
L 357.271968 336.455717 
L 357.554571 330.218287 
L 357.837174 328.681002 
L 358.119777 326.137554 
L 358.40238 325.548537 
L 358.684984 330.905821 
L 358.967587 329.101795 
L 359.25019 331.440741 
L 359.532793 330.116761 
L 359.815396 328.18677 
L 360.097999 329.414417 
L 360.380603 332.164569 
L 360.663206 331.515544 
L 360.945809 329.979031 
L 361.228412 330.95991 
L 361.511015 328.503148 
L 361.793619 329.034378 
L 362.076222 326.651723 
L 362.358825 327.434056 
L 362.641428 327.362972 
L 362.924031 324.660219 
L 363.206635 325.77305 
L 363.489238 324.094228 
L 363.771841 305.376276 
L 364.054444 325.388537 
L 364.337047 321.970875 
L 364.619651 320.489866 
L 364.902254 312.243744 
L 365.184857 316.807071 
L 365.46746 316.275944 
L 365.750063 323.425978 
L 366.032666 323.197745 
L 366.31527 383.925833 
L 367.163079 384.13993 
L 367.445682 337.616667 
L 367.728286 337.998209 
L 368.010889 337.541812 
L 368.858698 334.614649 
L 369.141302 330.511691 
L 369.423905 330.274576 
L 369.706508 330.861378 
L 369.989111 330.453898 
L 370.271714 330.793242 
L 370.554318 317.443983 
L 370.836921 330.855443 
L 371.402127 327.205186 
L 371.68473 297.667378 
L 371.967334 330.244957 
L 372.249937 327.959374 
L 372.53254 333.278853 
L 373.380349 324.639505 
L 373.662953 327.263654 
L 373.945556 307.364053 
L 374.228159 321.273703 
L 374.510762 325.488536 
L 374.793365 324.143857 
L 375.075969 326.489448 
L 375.358572 324.709144 
L 375.641175 323.665248 
L 375.923778 322.112362 
L 376.206381 324.343137 
L 376.771588 323.365925 
L 377.054191 324.598743 
L 377.336794 323.936398 
L 377.619397 383.959904 
L 377.902001 384.131054 
L 378.467207 384.231802 
L 378.74981 337.678164 
L 379.032413 320.758637 
L 379.315016 337.42921 
L 379.880223 331.194017 
L 380.162826 331.118407 
L 380.445429 332.272725 
L 380.728032 332.04899 
L 381.010636 331.430362 
L 381.293239 330.438296 
L 381.575842 328.73804 
L 381.858445 331.594844 
L 382.141048 330.981372 
L 382.423652 331.193291 
L 382.706255 313.504478 
L 382.988858 330.954717 
L 383.271461 332.513485 
L 383.554064 332.102331 
L 383.836668 333.046205 
L 384.119271 328.077184 
L 384.684477 329.647087 
L 385.249683 328.013441 
L 385.81489 323.745275 
L 386.097493 323.672664 
L 386.380096 326.493145 
L 386.662699 325.442626 
L 386.945303 323.542246 
L 387.227906 326.573171 
L 387.793112 318.269433 
L 388.075715 321.752319 
L 388.358319 321.027764 
L 388.640922 320.90105 
L 388.923525 383.859883 
L 389.771335 384.208087 
L 390.053938 336.501642 
L 390.619144 335.028056 
L 390.901747 334.857647 
L 391.466954 326.858367 
L 391.749557 328.029725 
L 392.03216 331.594815 
L 392.314763 330.87472 
L 392.597366 332.50761 
L 392.87997 330.247187 
L 393.162573 329.716719 
L 393.445176 328.315743 
L 393.727779 329.642657 
L 394.010382 329.81157 
L 394.292986 328.113485 
L 394.575589 292.509396 
L 394.858192 332.291254 
L 395.140795 333.736695 
L 395.423398 330.797657 
L 395.706002 330.896923 
L 395.988605 330.077511 
L 396.271208 328.149016 
L 396.553811 312.862409 
L 396.836414 327.596316 
L 397.119017 326.052342 
L 397.401621 327.348851 
L 397.684224 325.937503 
L 397.966827 325.575978 
L 398.24943 307.250445 
L 398.532033 325.057342 
L 398.814637 324.862477 
L 399.09724 324.433557 
L 399.379843 325.947134 
L 399.662446 325.311452 
L 399.945049 325.334418 
L 400.227653 383.988812 
L 400.510256 384.135492 
L 401.075462 384.190315 
L 401.358065 338.53387 
L 401.640669 338.986534 
L 401.923272 335.198443 
L 402.488478 320.303017 
L 402.771081 336.99506 
L 403.053684 336.386804 
L 403.618891 329.907858 
L 403.901494 331.576308 
L 404.184097 330.716905 
L 404.4667 333.456648 
L 404.749304 332.283119 
L 405.031907 332.391268 
L 405.31451 332.163095 
L 405.597113 332.917283 
L 405.879716 332.950651 
L 406.16232 332.619486 
L 406.444923 333.079558 
L 407.010129 330.174599 
L 407.292732 329.644102 
L 407.575336 329.776713 
L 407.857939 328.721727 
L 408.423145 318.108707 
L 408.988351 321.799673 
L 409.270955 325.073633 
L 409.553558 324.507597 
L 409.836161 321.395927 
L 410.118764 322.219822 
L 410.401367 383.100486 
L 410.966574 383.523524 
L 411.249177 383.477577 
L 411.53178 338.044912 
L 412.096987 331.345202 
L 412.37959 330.940663 
L 412.662193 335.768183 
L 412.944796 336.234175 
L 413.510003 334.842845 
L 413.792606 331.615551 
L 414.075209 333.404774 
L 414.357812 330.4183 
L 414.640415 330.929484 
L 414.923018 326.592381 
L 415.205622 331.547408 
L 415.488225 331.144381 
L 415.770828 329.341081 
L 416.336034 324.244508 
L 416.618638 323.942162 
L 416.901241 327.880074 
L 417.183844 322.915439 
L 417.466447 323.002881 
L 417.74905 322.252389 
L 418.031654 322.382793 
L 418.314257 317.538811 
L 418.59686 318.195438 
L 418.879463 317.490138 
L 419.162066 314.347427 
L 419.44467 314.862974 
L 419.727273 315.04234 
L 420.009876 300.50632 
L 420.292479 324.425378 
L 420.575082 383.082721 
L 420.857685 383.506499 
L 421.422892 383.45907 
L 421.705495 340.051944 
L 421.988098 338.93689 
L 422.270701 338.520513 
L 422.553305 336.5965 
L 422.835908 335.984502 
L 423.118511 335.817093 
L 423.401114 336.071211 
L 423.683717 334.409398 
L 423.966321 330.9696 
L 424.248924 329.632344 
L 424.531527 332.130528 
L 424.81413 333.418154 
L 425.096733 332.172719 
L 425.379337 328.517965 
L 425.66194 330.290904 
L 425.944543 329.52187 
L 426.227146 331.366664 
L 426.509749 332.464619 
L 426.792352 334.129373 
L 427.074956 327.763006 
L 427.357559 328.980267 
L 427.640162 328.99658 
L 427.922765 329.871556 
L 428.205368 312.196315 
L 428.487972 326.840601 
L 429.053178 324.778784 
L 429.335781 320.681708 
L 429.900988 323.749705 
L 430.466194 321.25224 
L 430.748797 383.007132 
L 431.0314 383.47465 
L 431.314004 383.579836 
L 431.596607 383.496113 
L 431.87921 338.412357 
L 432.161813 324.636423 
L 432.444416 338.802812 
L 432.727019 338.221967 
L 433.009623 336.735038 
L 433.292226 336.955825 
L 433.574829 335.106571 
L 433.857432 336.186042 
L 434.140035 335.789682 
L 434.422639 333.475896 
L 434.705242 334.265696 
L 434.987845 333.965632 
L 435.270448 324.97287 
L 435.553051 331.757808 
L 435.835655 332.35796 
L 436.118258 332.194188 
L 436.400861 332.983233 
L 436.683464 332.274948 
L 436.966067 333.641126 
L 437.248671 329.389229 
L 437.531274 329.993055 
L 437.813877 326.372394 
L 438.09648 326.493886 
L 438.379083 324.257169 
L 438.661687 327.830445 
L 438.94429 327.931971 
L 439.226893 328.631321 
L 439.509496 325.501145 
L 439.792099 327.442961 
L 440.074702 327.227382 
L 440.357306 325.1833 
L 440.639909 318.686515 
L 440.922512 382.905651 
L 441.205115 383.481303 
L 441.487718 383.525746 
L 441.770322 383.320532 
L 442.052925 337.443294 
L 442.335528 335.748891 
L 442.618131 324.079581 
L 442.900734 337.669244 
L 443.183338 336.689839 
L 443.465941 337.009144 
L 443.748544 336.303829 
L 444.031147 336.037888 
L 444.31375 335.350331 
L 444.596354 333.466272 
L 444.878957 334.062697 
L 445.16156 333.402589 
L 445.444163 332.322384 
L 445.726766 332.25053 
L 446.009369 332.807638 
L 446.291973 331.98307 
L 446.574576 333.476659 
L 446.857179 314.488009 
L 447.139782 332.126801 
L 447.422385 332.193462 
L 447.987592 328.810606 
L 448.270195 329.426278 
L 448.835401 324.798046 
L 449.118005 323.782324 
L 449.400608 323.49338 
L 449.683211 310.50572 
L 449.965814 322.478392 
L 450.531021 321.589325 
L 450.813624 322.278341 
L 451.096227 321.401113 
L 451.37883 321.031439 
L 451.661433 306.329344 
L 451.944036 321.347046 
L 452.22664 383.954711 
L 452.791846 384.124379 
L 453.074449 384.098428 
L 453.357052 337.124745 
L 453.639656 335.655589 
L 453.922259 335.276247 
L 454.204862 335.397768 
L 454.487465 333.394395 
L 454.770068 315.44213 
L 455.052672 329.182488 
L 455.335275 329.773742 
L 455.617878 319.654074 
L 455.900481 319.857858 
L 456.183084 321.00991 
L 456.465688 325.938948 
L 457.030894 320.498645 
L 457.313497 321.615936 
L 457.5961 318.871741 
L 458.161307 319.825298 
L 458.44391 304.926183 
L 458.726513 318.584322 
L 459.291719 301.170111 
L 459.574323 311.758601 
L 459.856926 308.105321 
L 460.139529 311.854926 
L 460.422132 308.933653 
L 460.987339 310.630982 
L 461.269942 308.132784 
L 461.552545 308.11127 
L 461.835148 307.019212 
L 462.117751 307.984593 
L 462.400355 308.037919 
L 462.682958 308.58839 
L 462.965561 313.215215 
L 463.248164 312.848474 
L 463.530767 383.66727 
L 463.81337 383.993242 
L 464.095974 383.919899 
L 464.378577 383.986589 
L 464.66118 324.123906 
L 464.943783 322.37617 
L 465.226386 324.058 
L 465.50899 323.09928 
L 465.791593 323.443076 
L 466.074196 325.069417 
L 466.356799 315.472304 
L 466.639402 323.681629 
L 467.204609 317.339791 
L 467.487212 313.110681 
L 467.769815 324.820856 
L 468.052418 322.293714 
L 468.335022 321.140165 
L 468.617625 323.207976 
L 468.900228 323.10574 
L 469.182831 323.200583 
L 469.465434 324.211126 
L 469.748037 324.465969 
L 470.595847 314.443603 
L 471.161053 315.46597 
L 471.443657 311.625219 
L 471.72626 296.790246 
L 472.008863 310.76146 
L 472.291466 313.975315 
L 472.574069 312.536526 
L 472.856673 296.024753 
L 473.139276 310.739198 
L 473.421879 312.473554 
L 473.704482 309.792353 
L 473.987085 312.279475 
L 474.269689 308.289836 
L 474.552292 308.279494 
L 474.834895 383.800622 
L 475.117498 384.024373 
L 475.400101 383.432385 
L 475.682704 383.82064 
L 475.965308 323.939354 
L 476.247911 329.862036 
L 476.530514 327.654976 
L 476.813117 324.463302 
L 477.09572 324.830006 
L 477.378324 321.413093 
L 477.660927 326.807412 
L 477.94353 325.473112 
L 478.226133 306.013314 
L 478.508736 319.290481 
L 478.79134 320.310692 
L 479.073943 319.882417 
L 479.356546 323.783073 
L 479.639149 323.70009 
L 479.921752 322.971773 
L 480.486959 324.283892 
L 481.052165 319.740827 
L 481.334768 322.347255 
L 481.617371 309.845723 
L 481.899975 308.366158 
L 482.182578 313.847178 
L 482.465181 307.413475 
L 482.747784 308.102425 
L 483.030387 307.394176 
L 483.312991 302.092448 
L 483.595594 306.024294 
L 484.1608 302.341328 
L 484.726007 310.585806 
L 485.00861 311.102931 
L 485.291213 310.250195 
L 485.856419 310.72804 
L 486.139023 383.607239 
L 486.421626 384.03027 
L 486.986832 384.128084 
L 487.269435 326.892483 
L 487.552038 325.861181 
L 487.834642 332.309064 
L 488.117245 332.191255 
L 488.399848 331.318539 
L 488.682451 328.560252 
L 489.247658 330.010116 
L 489.530261 327.908271 
L 489.812864 328.987742 
L 490.095467 326.853996 
L 490.660674 326.906581 
L 490.943277 326.051623 
L 491.22588 324.507671 
L 491.508483 331.154797 
L 491.791086 330.714675 
L 492.07369 330.830996 
L 492.356293 332.33792 
L 492.638896 330.383517 
L 492.921499 321.105553 
L 493.204102 325.703403 
L 493.486705 326.674733 
L 494.051912 322.81255 
L 494.899721 325.661168 
L 495.182325 325.575237 
L 495.464928 324.010505 
L 495.747531 324.280906 
L 496.030134 325.427061 
L 496.312737 324.413532 
L 496.595341 322.219059 
L 496.877944 322.723589 
L 497.160547 322.141996 
L 497.44315 383.997687 
L 498.008357 384.140678 
L 498.29096 384.211043 
L 498.573563 337.239561 
L 498.856166 338.009322 
L 499.138769 336.053431 
L 499.421372 336.704656 
L 499.703976 334.159 
L 499.986579 322.651898 
L 500.269182 335.806722 
L 500.551785 335.089568 
L 500.834388 335.045095 
L 501.116992 333.820426 
L 501.399595 331.299247 
L 501.682198 331.162924 
L 501.964801 327.159254 
L 502.247404 332.443883 
L 502.530008 322.560574 
L 502.812611 328.749857 
L 503.095214 329.509979 
L 503.377817 328.562386 
L 503.66042 332.148271 
L 503.943024 332.743911 
L 504.225627 329.33811 
L 504.50823 330.070844 
L 504.790833 317.522002 
L 505.073436 325.930828 
L 505.638643 319.689027 
L 505.921246 325.353695 
L 506.203849 326.729497 
L 506.486452 324.626162 
L 506.769055 326.273129 
L 507.051659 324.686193 
L 507.616865 323.803053 
L 507.899468 323.810454 
L 508.182071 322.806579 
L 508.464675 320.083127 
L 508.747278 383.802097 
L 509.029881 384.018453 
L 509.595087 384.162162 
L 509.877691 320.381013 
L 510.160294 330.698303 
L 510.442897 331.449587 
L 510.7255 333.857446 
L 511.008103 332.574272 
L 511.290707 326.80653 
L 511.855913 330.129393 
L 512.138516 328.696501 
L 512.421119 329.381865 
L 512.703722 330.542784 
L 512.986326 332.644637 
L 513.551532 329.833766 
L 513.834135 323.225312 
L 514.116738 323.961076 
L 514.681945 330.819172 
L 514.964548 331.075504 
L 515.247151 330.349416 
L 515.529754 329.993796 
L 515.812358 330.033083 
L 516.094961 315.873324 
L 516.377564 328.250534 
L 516.660167 326.206452 
L 516.94277 328.066797 
L 517.225374 327.391109 
L 518.073183 324.477223 
L 518.355786 324.254984 
L 518.638389 325.472223 
L 518.920993 324.413532 
L 519.203596 324.880272 
L 519.486199 323.921596 
L 519.768802 323.702283 
L 520.051405 383.98656 
L 520.334009 383.971758 
L 520.899215 384.221445 
L 521.181818 338.654628 
L 521.464421 338.652443 
L 521.747025 337.873014 
L 522.312231 337.090659 
L 522.594834 335.214023 
L 523.160041 336.509065 
L 523.442644 331.772625 
L 523.725247 334.293122 
L 524.00785 334.423489 
L 524.573056 331.559291 
L 524.85566 332.226082 
L 525.138263 331.674833 
L 525.420866 330.27531 
L 525.703469 333.575947 
L 525.986072 331.294024 
L 526.268676 332.685399 
L 526.551279 329.776039 
L 526.833882 329.872304 
L 527.116485 326.330952 
L 527.399088 324.692898 
L 527.681692 328.445406 
L 527.964295 328.158647 
L 528.246898 327.28888 
L 528.529501 325.189946 
L 528.812104 326.152378 
L 529.094708 323.666804 
L 529.377311 323.194115 
L 529.659914 323.734206 
L 529.942517 317.829312 
L 530.22512 324.3461 
L 530.507723 311.094996 
L 530.790327 325.414466 
L 531.07293 325.040302 
L 531.355533 383.962142 
L 531.638136 384.114007 
L 531.920739 383.896191 
L 532.203343 384.222919 
L 532.485946 339.362936 
L 532.768549 339.823001 
L 533.051152 334.709478 
L 533.333755 336.258637 
L 533.616359 335.595551 
L 533.898962 336.329781 
L 534.181565 335.842986 
L 534.464168 335.918589 
L 534.746771 334.471659 
L 535.311978 333.64855 
L 535.594581 331.177689 
L 535.877184 331.720766 
L 536.159787 331.135505 
L 536.44239 320.066132 
L 536.724994 330.356136 
L 537.007597 332.390549 
L 537.572803 323.882427 
L 537.855406 328.094986 
L 538.13801 328.154232 
L 538.420613 327.480136 
L 538.703216 328.588501 
L 538.985819 326.219195 
L 539.268422 322.279964 
L 539.551026 323.274964 
L 539.833629 320.853799 
L 540.116232 309.047099 
L 540.398835 317.133117 
L 540.681438 307.330627 
L 540.964042 319.580989 
L 541.246645 319.873571 
L 541.529248 322.048049 
L 541.811851 319.895856 
L 542.094454 323.653558 
L 542.377057 324.026937 
L 542.659661 383.974714 
L 542.942264 384.069557 
L 543.224867 383.98436 
L 543.50747 384.204391 
L 543.790073 337.112995 
L 544.072677 336.247643 
L 544.35528 337.046312 
L 544.637883 336.299495 
L 544.920486 334.576251 
L 545.203089 330.887433 
L 545.768296 333.969477 
L 546.333502 332.599586 
L 546.616105 332.430689 
L 546.898709 332.512152 
L 547.181312 330.959317 
L 547.463915 332.14693 
L 548.029121 331.144521 
L 548.311724 329.829476 
L 548.594328 318.658414 
L 548.876931 331.630523 
L 549.159534 327.916539 
L 549.442137 327.863198 
L 549.72474 328.082473 
L 550.007344 328.696679 
L 550.289947 327.600916 
L 550.57255 323.117882 
L 550.855153 326.497738 
L 551.137756 326.87265 
L 551.702963 321.605779 
L 551.985566 321.359804 
L 552.268169 324.744097 
L 552.550772 324.495181 
L 552.833376 324.581837 
L 553.115979 325.056016 
L 553.398582 316.370765 
L 553.681185 324.391447 
L 553.963788 383.921395 
L 554.246391 384.031033 
L 554.528995 384.016223 
L 554.811598 384.136966 
L 555.094201 335.408932 
L 555.376804 323.42557 
L 555.659407 334.365829 
L 555.942011 337.503436 
L 556.224614 322.602113 
L 556.507217 334.901505 
L 556.78982 335.698677 
L 557.072423 335.647551 
L 557.355027 335.223032 
L 557.920233 331.994323 
L 558.202836 331.502365 
L 558.485439 331.630538 
L 558.768043 331.980225 
L 559.050646 331.146744 
L 559.333249 331.694992 
L 559.615852 333.076728 
L 559.898455 330.558498 
L 560.181058 332.10765 
L 560.463662 332.132106 
L 560.746265 327.657954 
L 561.028868 329.509386 
L 561.311471 327.624616 
L 561.594074 327.851337 
L 561.876678 326.390345 
L 562.159281 306.865902 
L 562.441884 271.074031 
L 562.724487 324.007704 
L 563.00709 320.898968 
L 563.289694 326.019152 
L 563.572297 324.931539 
L 564.420106 316.327714 
L 564.70271 321.807252 
L 564.985313 318.744626 
L 565.267916 383.719841 
L 565.550519 383.94954 
L 565.833122 383.983626 
L 566.115726 384.150324 
L 566.398329 336.75593 
L 566.680932 337.633795 
L 566.963535 337.779038 
L 567.246138 335.611961 
L 567.528741 337.501947 
L 567.811345 335.223009 
L 568.093948 335.53272 
L 568.376551 335.514191 
L 568.941757 333.430852 
L 569.224361 334.210985 
L 569.506964 334.095413 
L 569.789567 331.967645 
L 570.07217 331.141551 
L 570.354773 332.855919 
L 570.637377 333.356753 
L 570.91998 332.735924 
L 571.202583 332.543267 
L 571.485186 333.988731 
L 571.767789 331.411959 
L 572.050393 330.52293 
L 572.332996 317.811635 
L 572.615599 329.787226 
L 573.180805 327.726868 
L 573.463408 328.056566 
L 573.746012 326.468126 
L 574.028615 327.044527 
L 574.311218 325.78057 
L 574.593821 325.76799 
L 575.159028 325.058986 
L 575.441631 319.458676 
L 575.724234 324.261066 
L 576.006837 324.138093 
L 576.28944 324.352931 
L 576.572044 383.911016 
L 576.854647 383.951014 
L 577.419853 384.222912 
L 577.702456 339.024473 
L 577.98506 338.04129 
L 578.267663 337.497479 
L 578.550266 337.837565 
L 579.115472 334.224283 
L 579.398075 334.994829 
L 579.680679 334.711819 
L 580.245885 324.863322 
L 580.528488 324.271379 
L 580.811091 330.725936 
L 581.093695 327.889083 
L 581.658901 330.685916 
L 581.941504 329.310099 
L 582.224107 326.348072 
L 582.506711 325.9932 
L 582.789314 327.62166 
L 583.071917 330.311033 
L 583.637123 326.278433 
L 583.919727 328.000217 
L 584.20233 325.322735 
L 584.484933 326.5407 
L 585.050139 317.982178 
L 585.332742 325.509428 
L 585.615346 325.587231 
L 585.897949 325.358303 
L 586.180552 323.514264 
L 586.463155 322.853423 
L 586.745758 325.529423 
L 587.028362 319.91657 
L 587.310965 321.321228 
L 587.593568 315.196421 
L 587.876171 383.861379 
L 588.158774 384.002873 
L 588.441378 383.94139 
L 588.723981 384.123638 
L 589.006584 331.556417 
L 589.289187 335.795698 
L 589.57179 334.373934 
L 589.854394 334.617716 
L 590.136997 335.808307 
L 590.4196 335.086724 
L 590.702203 336.009084 
L 591.267409 334.220623 
L 591.550013 333.899807 
L 591.832616 332.73368 
L 592.115219 332.046886 
L 592.397822 329.85685 
L 592.680425 331.278607 
L 592.963029 331.77424 
L 593.245632 331.747599 
L 593.528235 332.721833 
L 593.810838 331.955021 
L 594.093441 331.573449 
L 594.376045 330.568129 
L 594.658648 328.718867 
L 594.941251 330.449564 
L 595.223854 328.567009 
L 595.506457 329.12934 
L 595.789061 327.941713 
L 596.071664 323.352678 
L 596.354267 313.85549 
L 596.63687 326.58295 
L 596.919473 324.918181 
L 597.202076 325.004156 
L 597.48468 324.198057 
L 597.767283 320.491474 
L 598.049886 321.532384 
L 598.615092 324.790793 
L 598.897696 323.337913 
L 599.180299 383.919906 
L 599.462902 384.084381 
L 600.028108 384.17772 
L 600.310712 338.119841 
L 600.593315 338.81551 
L 600.875918 337.998328 
L 601.158521 337.573809 
L 601.441124 337.438234 
L 601.723728 335.496404 
L 602.006331 330.709623 
L 602.288934 331.306759 
L 602.571537 333.516057 
L 602.85414 325.382714 
L 603.136743 333.403441 
L 603.419347 332.762587 
L 603.70195 331.721655 
L 603.984553 329.202676 
L 604.267156 303.592127 
L 604.549759 328.832209 
L 604.832363 327.549791 
L 605.114966 325.67534 
L 605.397569 329.096698 
L 605.962775 327.883934 
L 606.245379 328.209928 
L 606.527982 328.861146 
L 606.810585 329.033015 
L 607.093188 325.517592 
L 607.375791 315.488981 
L 607.940998 325.936185 
L 608.223601 326.553309 
L 608.506204 324.341818 
L 608.788807 317.321936 
L 609.07141 320.933055 
L 609.354014 321.51836 
L 609.636617 324.874494 
L 609.91922 324.818938 
L 610.201823 324.341063 
L 610.484426 383.928033 
L 610.76703 384.106614 
L 611.332236 384.206606 
L 611.614839 336.815887 
L 611.897442 337.60565 
L 612.180046 338.865169 
L 612.462649 337.195977 
L 612.745252 333.535371 
L 613.027855 315.955802 
L 613.310458 335.406791 
L 613.593062 333.676798 
L 613.875665 332.910008 
L 614.158268 333.642741 
L 614.440871 334.004296 
L 614.723474 331.105227 
L 615.006077 332.029854 
L 615.288681 332.150649 
L 615.571284 331.556431 
L 615.853887 331.320865 
L 616.13649 332.930752 
L 616.419093 331.706853 
L 616.701697 333.382712 
L 616.9843 331.979484 
L 617.549506 326.854863 
L 617.832109 328.944855 
L 618.114713 329.142675 
L 618.397316 327.134925 
L 618.679919 326.851922 
L 618.962522 325.647233 
L 619.245125 325.055319 
L 619.527729 325.403487 
L 619.810332 324.685548 
L 620.092935 326.56517 
L 620.375538 324.696705 
L 620.658141 324.164734 
L 620.940744 319.542576 
L 621.223348 324.575207 
L 621.505951 324.850794 
L 621.788554 383.985108 
L 622.35376 384.124387 
L 622.636364 384.185143 
L 622.636364 384.185143 
" clip-path="url(#pc914074f3d)" style="fill: none; stroke: #1f77b4; stroke-width: 1.5; stroke-linecap: square"/>
   </g>
   <g id="patch_3">
    <path d="M 90 384.48 
L 90 51.84 
" style="fill: none; stroke: #000000; stroke-width: 0.8; stroke-linejoin: miter; stroke-linecap: square"/>
   </g>
   <g id="patch_4">
    <path d="M 648 384.48 
L 648 51.84 
" style="fill: none; stroke: #000000; stroke-width: 0.8; stroke-linejoin: miter; stroke-linecap: square"/>
   </g>
   <g id="patch_5">
    <path d="M 90 384.48 
L 648 384.48 
" style="fill: none; stroke: #000000; stroke-width: 0.8; stroke-linejoin: miter; stroke-linecap: square"/>
   </g>
   <g id="patch_6">
    <path d="M 90 51.84 
L 648 51.84 
" style="fill: none; stroke: #000000; stroke-width: 0.8; stroke-linejoin: miter; stroke-linecap: square"/>
   </g>
   <g id="text_20">
    <!-- Average time per index -->
    <g transform="translate(298.700625 45.84) scale(0.12 -0.12)">
     <defs>
      <path id="DejaVuSans-70" d="M 1159 525 
L 1159 -1331 
L 581 -1331 
L 581 3500 
L 1159 3500 
L 1159 2969 
Q 1341 3281 1617 3432 
Q 1894 3584 2278 3584 
Q 2916 3584 3314 3078 
Q 3713 2572 3713 1747 
Q 3713 922 3314 415 
Q 2916 -91 2278 -91 
Q 1894 -91 1617 61 
Q 1341 213 1159 525 
z
M 3116 1747 
Q 3116 2381 2855 2742 
Q 2594 3103 2138 3103 
Q 1681 3103 1420 2742 
Q 1159 2381 1159 1747 
Q 1159 1113 1420 752 
Q 1681 391 2138 391 
Q 2594 391 2855 752 
Q 3116 1113 3116 1747 
z
" transform="scale(0.015625)"/>
     </defs>
     <use xlink:href="#DejaVuSans-41"/>
     <use xlink:href="#DejaVuSans-76" transform="translate(62.533203 0)"/>
     <use xlink:href="#DejaVuSans-65" transform="translate(121.712891 0)"/>
     <use xlink:href="#DejaVuSans-72" transform="translate(183.236328 0)"/>
     <use xlink:href="#DejaVuSans-61" transform="translate(224.349609 0)"/>
     <use xlink:href="#DejaVuSans-67" transform="translate(285.628906 0)"/>
     <use xlink:href="#DejaVuSans-65" transform="translate(349.105469 0)"/>
     <use xlink:href="#DejaVuSans-20" transform="translate(410.628906 0)"/>
     <use xlink:href="#DejaVuSans-74" transform="translate(442.416016 0)"/>
     <use xlink:href="#DejaVuSans-69" transform="translate(481.625 0)"/>
     <use xlink:href="#DejaVuSans-6d" transform="translate(509.408203 0)"/>
     <use xlink:href="#DejaVuSans-65" transform="translate(606.820312 0)"/>
     <use xlink:href="#DejaVuSans-20" transform="translate(668.34375 0)"/>
     <use xlink:href="#DejaVuSans-70" transform="translate(700.130859 0)"/>
     <use xlink:href="#DejaVuSans-65" transform="translate(763.607422 0)"/>
     <use xlink:href="#DejaVuSans-72" transform="translate(825.130859 0)"/>
     <use xlink:href="#DejaVuSans-20" transform="translate(866.244141 0)"/>
     <use xlink:href="#DejaVuSans-69" transform="translate(898.03125 0)"/>
     <use xlink:href="#DejaVuSans-6e" transform="translate(925.814453 0)"/>
     <use xlink:href="#DejaVuSans-64" transform="translate(989.193359 0)"/>
     <use xlink:href="#DejaVuSans-65" transform="translate(1052.669922 0)"/>
     <use xlink:href="#DejaVuSans-78" transform="translate(1112.443359 0)"/>
    </g>
   </g>
   <g id="legend_1">
    <g id="patch_7">
     <path d="M 515.8875 74.518125 
L 641 74.518125 
Q 643 74.518125 643 72.518125 
L 643 58.84 
Q 643 56.84 641 56.84 
L 515.8875 56.84 
Q 513.8875 56.84 513.8875 58.84 
L 513.8875 72.518125 
Q 513.8875 74.518125 515.8875 74.518125 
z
" style="fill: #ffffff; opacity: 0.8; stroke: #cccccc; stroke-linejoin: miter"/>
    </g>
    <g id="line2d_19">
     <path d="M 517.8875 64.938438 
L 527.8875 64.938438 
L 537.8875 64.938438 
" style="fill: none; stroke: #1f77b4; stroke-width: 1.5; stroke-linecap: square"/>
    </g>
    <g id="text_21">
     <!-- getExpectedPoints -->
     <g transform="translate(545.8875 68.438438) scale(0.1 -0.1)">
      <defs>
       <path id="DejaVuSans-45" d="M 628 4666 
L 3578 4666 
L 3578 4134 
L 1259 4134 
L 1259 2753 
L 3481 2753 
L 3481 2222 
L 1259 2222 
L 1259 531 
L 3634 531 
L 3634 0 
L 628 0 
L 628 4666 
z
" transform="scale(0.015625)"/>
       <path id="DejaVuSans-63" d="M 3122 3366 
L 3122 2828 
Q 2878 2963 2633 3030 
Q 2388 3097 2138 3097 
Q 1578 3097 1268 2742 
Q 959 2388 959 1747 
Q 959 1106 1268 751 
Q 1578 397 2138 397 
Q 2388 397 2633 464 
Q 2878 531 3122 666 
L 3122 134 
Q 2881 22 2623 -34 
Q 2366 -91 2075 -91 
Q 1284 -91 818 406 
Q 353 903 353 1747 
Q 353 2603 823 3093 
Q 1294 3584 2113 3584 
Q 2378 3584 2631 3529 
Q 2884 3475 3122 3366 
z
" transform="scale(0.015625)"/>
       <path id="DejaVuSans-50" d="M 1259 4147 
L 1259 2394 
L 2053 2394 
Q 2494 2394 2734 2622 
Q 2975 2850 2975 3272 
Q 2975 3691 2734 3919 
Q 2494 4147 2053 4147 
L 1259 4147 
z
M 628 4666 
L 2053 4666 
Q 2838 4666 3239 4311 
Q 3641 3956 3641 3272 
Q 3641 2581 3239 2228 
Q 2838 1875 2053 1875 
L 1259 1875 
L 1259 0 
L 628 0 
L 628 4666 
z
" transform="scale(0.015625)"/>
       <path id="DejaVuSans-6f" d="M 1959 3097 
Q 1497 3097 1228 2736 
Q 959 2375 959 1747 
Q 959 1119 1226 758 
Q 1494 397 1959 397 
Q 2419 397 2687 759 
Q 2956 1122 2956 1747 
Q 2956 2369 2687 2733 
Q 2419 3097 1959 3097 
z
M 1959 3584 
Q 2709 3584 3137 3096 
Q 3566 2609 3566 1747 
Q 3566 888 3137 398 
Q 2709 -91 1959 -91 
Q 1206 -91 779 398 
Q 353 888 353 1747 
Q 353 2609 779 3096 
Q 1206 3584 1959 3584 
z
" transform="scale(0.015625)"/>
      </defs>
      <use xlink:href="#DejaVuSans-67"/>
      <use xlink:href="#DejaVuSans-65" transform="translate(63.476562 0)"/>
      <use xlink:href="#DejaVuSans-74" transform="translate(125 0)"/>
      <use xlink:href="#DejaVuSans-45" transform="translate(164.208984 0)"/>
      <use xlink:href="#DejaVuSans-78" transform="translate(227.392578 0)"/>
      <use xlink:href="#DejaVuSans-70" transform="translate(286.572266 0)"/>
      <use xlink:href="#DejaVuSans-65" transform="translate(350.048828 0)"/>
      <use xlink:href="#DejaVuSans-63" transform="translate(411.572266 0)"/>
      <use xlink:href="#DejaVuSans-74" transform="translate(466.552734 0)"/>
      <use xlink:href="#DejaVuSans-65" transform="translate(505.761719 0)"/>
      <use xlink:href="#DejaVuSans-64" transform="translate(567.285156 0)"/>
      <use xlink:href="#DejaVuSans-50" transform="translate(630.761719 0)"/>
      <use xlink:href="#DejaVuSans-6f" transform="translate(687.439453 0)"/>
      <use xlink:href="#DejaVuSans-69" transform="translate(748.621094 0)"/>
      <use xlink:href="#DejaVuSans-6e" transform="translate(776.404297 0)"/>
      <use xlink:href="#DejaVuSans-74" transform="translate(839.783203 0)"/>
      <use xlink:href="#DejaVuSans-73" transform="translate(878.992188 0)"/>
     </g>
    </g>
   </g>
  </g>
 </g>
 <defs>
  <clipPath id="pc914074f3d">
   <rect x="90" y="51.84" width="558" height="332.64"/>
  </clipPath>
 </defs>
</svg>
