<?xml version="1.0" encoding="utf-8" standalone="no"?>
<!DOCTYPE svg PUBLIC "-//W3C//DTD SVG 1.1//EN"
  "http://www.w3.org/Graphics/SVG/1.1/DTD/svg11.dtd">
<svg xmlns:xlink="http://www.w3.org/1999/xlink" width="576pt" height="432pt" viewBox="0 0 576 432" xmlns="http://www.w3.org/2000/svg" version="1.1">
 <metadata>
  <rdf:RDF xmlns:dc="http://purl.org/dc/elements/1.1/" xmlns:cc="http://creativecommons.org/ns#" xmlns:rdf="http://www.w3.org/1999/02/22-rdf-syntax-ns#">
   <cc:Work>
    <dc:type rdf:resource="http://purl.org/dc/dcmitype/StillImage"/>
    <dc:date>2025-06-10T01:38:25.820357</dc:date>
    <dc:format>image/svg+xml</dc:format>
    <dc:creator>
     <cc:Agent>
      <dc:title>Matplotlib v3.10.3, https://matplotlib.org/</dc:title>
     </cc:Agent>
    </dc:creator>
   </cc:Work>
  </rdf:RDF>
 </metadata>
 <defs>
  <style type="text/css">*{stroke-linejoin: round; stroke-linecap: butt}</style>
 </defs>
 <g id="figure_1">
  <g id="patch_1">
   <path d="M 0 432 
L 576 432 
L 576 0 
L 0 0 
z
" style="fill: #ffffff"/>
  </g>
  <g id="axes_1">
   <g id="patch_2">
    <path d="M 72 384.48 
L 518.4 384.48 
L 518.4 51.84 
L 72 51.84 
z
" style="fill: #ffffff"/>
   </g>
   <g id="FillBetweenPolyCollection_1">
    <path d="M 357.570756 371.953377 
L 232.829244 371.953377 
L 211.93575 368.873883 
L 194.642493 365.794389 
L 184.63529 362.714895 
L 183.6 359.635401 
L 190.738656 356.555908 
L 203.491347 353.476414 
L 218.83272 350.39692 
L 234.302005 347.317426 
L 248.36767 344.237933 
L 260.283134 341.158439 
L 269.801241 338.078945 
L 276.979819 334.999451 
L 282.095055 331.919958 
L 285.579826 328.840464 
L 287.930868 325.76097 
L 289.59604 322.681476 
L 290.889686 319.601983 
L 291.971787 316.522489 
L 292.887223 313.442995 
L 293.629891 310.363501 
L 294.193426 307.284008 
L 294.591403 304.204514 
L 294.853629 301.12502 
L 295.014464 298.045526 
L 295.104034 294.966032 
L 295.144551 291.886539 
L 295.150095 288.807045 
L 295.128794 285.727551 
L 295.087095 282.648057 
L 295.03457 279.568564 
L 294.985903 276.48907 
L 294.957459 273.409576 
L 294.959908 270.330082 
L 294.992393 267.250589 
L 295.043199 264.171095 
L 295.096559 261.091601 
L 295.140396 258.012107 
L 295.170002 254.932614 
L 295.186813 251.85312 
L 295.194937 248.773626 
L 295.198302 245.694132 
L 295.199503 242.614639 
L 295.199873 239.535145 
L 295.199972 236.455651 
L 295.199994 233.376157 
L 295.199999 230.296663 
L 295.2 227.21717 
L 295.2 224.137676 
L 295.2 221.058182 
L 295.2 217.978688 
L 295.2 214.899195 
L 295.2 211.819701 
L 295.2 208.740207 
L 295.2 205.660713 
L 295.2 202.58122 
L 295.2 199.501726 
L 295.2 196.422232 
L 295.2 193.342738 
L 295.2 190.263245 
L 295.199999 187.183751 
L 295.199994 184.104257 
L 295.199965 181.024763 
L 295.199829 177.94527 
L 295.199274 174.865776 
L 295.197292 171.786282 
L 295.191125 168.706788 
L 295.174434 165.627294 
L 295.135187 162.547801 
L 295.055187 159.468307 
L 294.914295 156.388813 
L 294.701074 153.309319 
L 294.426449 150.229826 
L 294.131135 147.150332 
L 293.877675 144.070838 
L 293.727297 140.991344 
L 293.71375 137.911851 
L 293.829615 134.832357 
L 294.032154 131.752863 
L 294.263698 128.673369 
L 294.475055 125.593876 
L 294.640923 122.514382 
L 294.761205 119.434888 
L 294.84959 116.355394 
L 294.918153 113.275901 
L 294.968669 110.196407 
L 294.995435 107.116913 
L 294.995253 104.037419 
L 294.975442 100.957925 
L 294.953294 97.878432 
L 294.947271 94.798938 
L 294.966363 91.719444 
L 295.005044 88.63995 
L 295.046819 85.560457 
L 295.073231 82.480963 
L 295.072722 79.401469 
L 295.045607 76.321975 
L 295.004096 73.242482 
L 294.967453 70.162988 
L 294.95352 67.083494 
L 295.44648 67.083494 
L 295.44648 67.083494 
L 295.432547 70.162988 
L 295.395904 73.242482 
L 295.354393 76.321975 
L 295.327278 79.401469 
L 295.326769 82.480963 
L 295.353181 85.560457 
L 295.394956 88.63995 
L 295.433637 91.719444 
L 295.452729 94.798938 
L 295.446706 97.878432 
L 295.424558 100.957925 
L 295.404747 104.037419 
L 295.404565 107.116913 
L 295.431331 110.196407 
L 295.481847 113.275901 
L 295.55041 116.355394 
L 295.638795 119.434888 
L 295.759077 122.514382 
L 295.924945 125.593876 
L 296.136302 128.673369 
L 296.367846 131.752863 
L 296.570385 134.832357 
L 296.68625 137.911851 
L 296.672703 140.991344 
L 296.522325 144.070838 
L 296.268865 147.150332 
L 295.973551 150.229826 
L 295.698926 153.309319 
L 295.485705 156.388813 
L 295.344813 159.468307 
L 295.264813 162.547801 
L 295.225566 165.627294 
L 295.208875 168.706788 
L 295.202708 171.786282 
L 295.200726 174.865776 
L 295.200171 177.94527 
L 295.200035 181.024763 
L 295.200006 184.104257 
L 295.200001 187.183751 
L 295.2 190.263245 
L 295.2 193.342738 
L 295.2 196.422232 
L 295.2 199.501726 
L 295.2 202.58122 
L 295.2 205.660713 
L 295.2 208.740207 
L 295.2 211.819701 
L 295.2 214.899195 
L 295.2 217.978688 
L 295.2 221.058182 
L 295.2 224.137676 
L 295.2 227.21717 
L 295.200001 230.296663 
L 295.200006 233.376157 
L 295.200028 236.455651 
L 295.200127 239.535145 
L 295.200497 242.614639 
L 295.201698 245.694132 
L 295.205063 248.773626 
L 295.213187 251.85312 
L 295.229998 254.932614 
L 295.259604 258.012107 
L 295.303441 261.091601 
L 295.356801 264.171095 
L 295.407607 267.250589 
L 295.440092 270.330082 
L 295.442541 273.409576 
L 295.414097 276.48907 
L 295.36543 279.568564 
L 295.312905 282.648057 
L 295.271206 285.727551 
L 295.249905 288.807045 
L 295.255449 291.886539 
L 295.295966 294.966032 
L 295.385536 298.045526 
L 295.546371 301.12502 
L 295.808597 304.204514 
L 296.206574 307.284008 
L 296.770109 310.363501 
L 297.512777 313.442995 
L 298.428213 316.522489 
L 299.510314 319.601983 
L 300.80396 322.681476 
L 302.469132 325.76097 
L 304.820174 328.840464 
L 308.304945 331.919958 
L 313.420181 334.999451 
L 320.598759 338.078945 
L 330.116866 341.158439 
L 342.03233 344.237933 
L 356.097995 347.317426 
L 371.56728 350.39692 
L 386.908653 353.476414 
L 399.661344 356.555908 
L 406.8 359.635401 
L 405.76471 362.714895 
L 395.757507 365.794389 
L 378.46425 368.873883 
L 357.570756 371.953377 
z
" clip-path="url(#p11f9d02cd4)" style="fill: #1f77b4; fill-opacity: 0.3"/>
   </g>
   <g id="matplotlib.axis_1">
    <g id="xtick_1">
     <g id="line2d_1">
      <defs>
       <path id="me3366b24b5" d="M 0 0 
L 0 3.5 
" style="stroke: #000000; stroke-width: 0.8"/>
      </defs>
      <g>
       <use xlink:href="#me3366b24b5" x="295.2" y="384.48" style="stroke: #000000; stroke-width: 0.8"/>
      </g>
     </g>
     <g id="text_1">
      <!-- 1 -->
      <g transform="translate(292.01875 399.078438) scale(0.1 -0.1)">
       <defs>
        <path id="DejaVuSans-31" d="M 794 531 
L 1825 531 
L 1825 4091 
L 703 3866 
L 703 4441 
L 1819 4666 
L 2450 4666 
L 2450 531 
L 3481 531 
L 3481 0 
L 794 0 
L 794 531 
z
" transform="scale(0.015625)"/>
       </defs>
       <use xlink:href="#DejaVuSans-31"/>
      </g>
     </g>
    </g>
   </g>
   <g id="matplotlib.axis_2">
    <g id="ytick_1">
     <g id="line2d_2">
      <defs>
       <path id="m14ea0f18bf" d="M 0 0 
L -3.5 0 
" style="stroke: #000000; stroke-width: 0.8"/>
      </defs>
      <g>
       <use xlink:href="#m14ea0f18bf" x="72" y="384.48" style="stroke: #000000; stroke-width: 0.8"/>
      </g>
     </g>
     <g id="text_2">
      <!-- 0 -->
      <g transform="translate(58.6375 388.279219) scale(0.1 -0.1)">
       <defs>
        <path id="DejaVuSans-30" d="M 2034 4250 
Q 1547 4250 1301 3770 
Q 1056 3291 1056 2328 
Q 1056 1369 1301 889 
Q 1547 409 2034 409 
Q 2525 409 2770 889 
Q 3016 1369 3016 2328 
Q 3016 3291 2770 3770 
Q 2525 4250 2034 4250 
z
M 2034 4750 
Q 2819 4750 3233 4129 
Q 3647 3509 3647 2328 
Q 3647 1150 3233 529 
Q 2819 -91 2034 -91 
Q 1250 -91 836 529 
Q 422 1150 422 2328 
Q 422 3509 836 4129 
Q 1250 4750 2034 4750 
z
" transform="scale(0.015625)"/>
       </defs>
       <use xlink:href="#DejaVuSans-30"/>
      </g>
     </g>
    </g>
    <g id="ytick_2">
     <g id="line2d_3">
      <g>
       <use xlink:href="#m14ea0f18bf" x="72" y="342.179624" style="stroke: #000000; stroke-width: 0.8"/>
      </g>
     </g>
     <g id="text_3">
      <!-- 25 -->
      <g transform="translate(52.275 345.978843) scale(0.1 -0.1)">
       <defs>
        <path id="DejaVuSans-32" d="M 1228 531 
L 3431 531 
L 3431 0 
L 469 0 
L 469 531 
Q 828 903 1448 1529 
Q 2069 2156 2228 2338 
Q 2531 2678 2651 2914 
Q 2772 3150 2772 3378 
Q 2772 3750 2511 3984 
Q 2250 4219 1831 4219 
Q 1534 4219 1204 4116 
Q 875 4013 500 3803 
L 500 4441 
Q 881 4594 1212 4672 
Q 1544 4750 1819 4750 
Q 2544 4750 2975 4387 
Q 3406 4025 3406 3419 
Q 3406 3131 3298 2873 
Q 3191 2616 2906 2266 
Q 2828 2175 2409 1742 
Q 1991 1309 1228 531 
z
" transform="scale(0.015625)"/>
        <path id="DejaVuSans-35" d="M 691 4666 
L 3169 4666 
L 3169 4134 
L 1269 4134 
L 1269 2991 
Q 1406 3038 1543 3061 
Q 1681 3084 1819 3084 
Q 2600 3084 3056 2656 
Q 3513 2228 3513 1497 
Q 3513 744 3044 326 
Q 2575 -91 1722 -91 
Q 1428 -91 1123 -41 
Q 819 9 494 109 
L 494 744 
Q 775 591 1075 516 
Q 1375 441 1709 441 
Q 2250 441 2565 725 
Q 2881 1009 2881 1497 
Q 2881 1984 2565 2268 
Q 2250 2553 1709 2553 
Q 1456 2553 1204 2497 
Q 953 2441 691 2322 
L 691 4666 
z
" transform="scale(0.015625)"/>
       </defs>
       <use xlink:href="#DejaVuSans-32"/>
       <use xlink:href="#DejaVuSans-35" transform="translate(63.623047 0)"/>
      </g>
     </g>
    </g>
    <g id="ytick_3">
     <g id="line2d_4">
      <g>
       <use xlink:href="#m14ea0f18bf" x="72" y="299.879248" style="stroke: #000000; stroke-width: 0.8"/>
      </g>
     </g>
     <g id="text_4">
      <!-- 50 -->
      <g transform="translate(52.275 303.678467) scale(0.1 -0.1)">
       <use xlink:href="#DejaVuSans-35"/>
       <use xlink:href="#DejaVuSans-30" transform="translate(63.623047 0)"/>
      </g>
     </g>
    </g>
    <g id="ytick_4">
     <g id="line2d_5">
      <g>
       <use xlink:href="#m14ea0f18bf" x="72" y="257.578873" style="stroke: #000000; stroke-width: 0.8"/>
      </g>
     </g>
     <g id="text_5">
      <!-- 75 -->
      <g transform="translate(52.275 261.378091) scale(0.1 -0.1)">
       <defs>
        <path id="DejaVuSans-37" d="M 525 4666 
L 3525 4666 
L 3525 4397 
L 1831 0 
L 1172 0 
L 2766 4134 
L 525 4134 
L 525 4666 
z
" transform="scale(0.015625)"/>
       </defs>
       <use xlink:href="#DejaVuSans-37"/>
       <use xlink:href="#DejaVuSans-35" transform="translate(63.623047 0)"/>
      </g>
     </g>
    </g>
    <g id="ytick_5">
     <g id="line2d_6">
      <g>
       <use xlink:href="#m14ea0f18bf" x="72" y="215.278497" style="stroke: #000000; stroke-width: 0.8"/>
      </g>
     </g>
     <g id="text_6">
      <!-- 100 -->
      <g transform="translate(45.9125 219.077716) scale(0.1 -0.1)">
       <use xlink:href="#DejaVuSans-31"/>
       <use xlink:href="#DejaVuSans-30" transform="translate(63.623047 0)"/>
       <use xlink:href="#DejaVuSans-30" transform="translate(127.246094 0)"/>
      </g>
     </g>
    </g>
    <g id="ytick_6">
     <g id="line2d_7">
      <g>
       <use xlink:href="#m14ea0f18bf" x="72" y="172.978121" style="stroke: #000000; stroke-width: 0.8"/>
      </g>
     </g>
     <g id="text_7">
      <!-- 125 -->
      <g transform="translate(45.9125 176.77734) scale(0.1 -0.1)">
       <use xlink:href="#DejaVuSans-31"/>
       <use xlink:href="#DejaVuSans-32" transform="translate(63.623047 0)"/>
       <use xlink:href="#DejaVuSans-35" transform="translate(127.246094 0)"/>
      </g>
     </g>
    </g>
    <g id="ytick_7">
     <g id="line2d_8">
      <g>
       <use xlink:href="#m14ea0f18bf" x="72" y="130.677745" style="stroke: #000000; stroke-width: 0.8"/>
      </g>
     </g>
     <g id="text_8">
      <!-- 150 -->
      <g transform="translate(45.9125 134.476964) scale(0.1 -0.1)">
       <use xlink:href="#DejaVuSans-31"/>
       <use xlink:href="#DejaVuSans-35" transform="translate(63.623047 0)"/>
       <use xlink:href="#DejaVuSans-30" transform="translate(127.246094 0)"/>
      </g>
     </g>
    </g>
    <g id="ytick_8">
     <g id="line2d_9">
      <g>
       <use xlink:href="#m14ea0f18bf" x="72" y="88.37737" style="stroke: #000000; stroke-width: 0.8"/>
      </g>
     </g>
     <g id="text_9">
      <!-- 175 -->
      <g transform="translate(45.9125 92.176588) scale(0.1 -0.1)">
       <use xlink:href="#DejaVuSans-31"/>
       <use xlink:href="#DejaVuSans-37" transform="translate(63.623047 0)"/>
       <use xlink:href="#DejaVuSans-35" transform="translate(127.246094 0)"/>
      </g>
     </g>
    </g>
    <g id="text_10">
     <!-- Time (ms) -->
     <g transform="translate(39.832812 243.359219) rotate(-90) scale(0.1 -0.1)">
      <defs>
       <path id="DejaVuSans-54" d="M -19 4666 
L 3928 4666 
L 3928 4134 
L 2272 4134 
L 2272 0 
L 1638 0 
L 1638 4134 
L -19 4134 
L -19 4666 
z
" transform="scale(0.015625)"/>
       <path id="DejaVuSans-69" d="M 603 3500 
L 1178 3500 
L 1178 0 
L 603 0 
L 603 3500 
z
M 603 4863 
L 1178 4863 
L 1178 4134 
L 603 4134 
L 603 4863 
z
" transform="scale(0.015625)"/>
       <path id="DejaVuSans-6d" d="M 3328 2828 
Q 3544 3216 3844 3400 
Q 4144 3584 4550 3584 
Q 5097 3584 5394 3201 
Q 5691 2819 5691 2113 
L 5691 0 
L 5113 0 
L 5113 2094 
Q 5113 2597 4934 2840 
Q 4756 3084 4391 3084 
Q 3944 3084 3684 2787 
Q 3425 2491 3425 1978 
L 3425 0 
L 2847 0 
L 2847 2094 
Q 2847 2600 2669 2842 
Q 2491 3084 2119 3084 
Q 1678 3084 1418 2786 
Q 1159 2488 1159 1978 
L 1159 0 
L 581 0 
L 581 3500 
L 1159 3500 
L 1159 2956 
Q 1356 3278 1631 3431 
Q 1906 3584 2284 3584 
Q 2666 3584 2933 3390 
Q 3200 3197 3328 2828 
z
" transform="scale(0.015625)"/>
       <path id="DejaVuSans-65" d="M 3597 1894 
L 3597 1613 
L 953 1613 
Q 991 1019 1311 708 
Q 1631 397 2203 397 
Q 2534 397 2845 478 
Q 3156 559 3463 722 
L 3463 178 
Q 3153 47 2828 -22 
Q 2503 -91 2169 -91 
Q 1331 -91 842 396 
Q 353 884 353 1716 
Q 353 2575 817 3079 
Q 1281 3584 2069 3584 
Q 2775 3584 3186 3129 
Q 3597 2675 3597 1894 
z
M 3022 2063 
Q 3016 2534 2758 2815 
Q 2500 3097 2075 3097 
Q 1594 3097 1305 2825 
Q 1016 2553 972 2059 
L 3022 2063 
z
" transform="scale(0.015625)"/>
       <path id="DejaVuSans-20" transform="scale(0.015625)"/>
       <path id="DejaVuSans-28" d="M 1984 4856 
Q 1566 4138 1362 3434 
Q 1159 2731 1159 2009 
Q 1159 1288 1364 580 
Q 1569 -128 1984 -844 
L 1484 -844 
Q 1016 -109 783 600 
Q 550 1309 550 2009 
Q 550 2706 781 3412 
Q 1013 4119 1484 4856 
L 1984 4856 
z
" transform="scale(0.015625)"/>
       <path id="DejaVuSans-73" d="M 2834 3397 
L 2834 2853 
Q 2591 2978 2328 3040 
Q 2066 3103 1784 3103 
Q 1356 3103 1142 2972 
Q 928 2841 928 2578 
Q 928 2378 1081 2264 
Q 1234 2150 1697 2047 
L 1894 2003 
Q 2506 1872 2764 1633 
Q 3022 1394 3022 966 
Q 3022 478 2636 193 
Q 2250 -91 1575 -91 
Q 1294 -91 989 -36 
Q 684 19 347 128 
L 347 722 
Q 666 556 975 473 
Q 1284 391 1588 391 
Q 1994 391 2212 530 
Q 2431 669 2431 922 
Q 2431 1156 2273 1281 
Q 2116 1406 1581 1522 
L 1381 1569 
Q 847 1681 609 1914 
Q 372 2147 372 2553 
Q 372 3047 722 3315 
Q 1072 3584 1716 3584 
Q 2034 3584 2315 3537 
Q 2597 3491 2834 3397 
z
" transform="scale(0.015625)"/>
       <path id="DejaVuSans-29" d="M 513 4856 
L 1013 4856 
Q 1481 4119 1714 3412 
Q 1947 2706 1947 2009 
Q 1947 1309 1714 600 
Q 1481 -109 1013 -844 
L 513 -844 
Q 928 -128 1133 580 
Q 1338 1288 1338 2009 
Q 1338 2731 1133 3434 
Q 928 4138 513 4856 
z
" transform="scale(0.015625)"/>
      </defs>
      <use xlink:href="#DejaVuSans-54"/>
      <use xlink:href="#DejaVuSans-69" transform="translate(57.958984 0)"/>
      <use xlink:href="#DejaVuSans-6d" transform="translate(85.742188 0)"/>
      <use xlink:href="#DejaVuSans-65" transform="translate(183.154297 0)"/>
      <use xlink:href="#DejaVuSans-20" transform="translate(244.677734 0)"/>
      <use xlink:href="#DejaVuSans-28" transform="translate(276.464844 0)"/>
      <use xlink:href="#DejaVuSans-6d" transform="translate(315.478516 0)"/>
      <use xlink:href="#DejaVuSans-73" transform="translate(412.890625 0)"/>
      <use xlink:href="#DejaVuSans-29" transform="translate(464.990234 0)"/>
     </g>
    </g>
   </g>
   <g id="LineCollection_1">
    <path d="M 239.4 353.842197 
L 351 353.842197 
" clip-path="url(#p11f9d02cd4)" style="fill: none; stroke: #1f77b4; stroke-width: 1.5"/>
   </g>
   <g id="LineCollection_2">
    <path d="M 239.4 67.083494 
L 351 67.083494 
" clip-path="url(#p11f9d02cd4)" style="fill: none; stroke: #1f77b4; stroke-width: 1.5"/>
   </g>
   <g id="LineCollection_3">
    <path d="M 239.4 371.953377 
L 351 371.953377 
" clip-path="url(#p11f9d02cd4)" style="fill: none; stroke: #1f77b4; stroke-width: 1.5"/>
   </g>
   <g id="LineCollection_4">
    <path d="M 295.2 371.953377 
L 295.2 67.083494 
" clip-path="url(#p11f9d02cd4)" style="fill: none; stroke: #1f77b4; stroke-width: 1.5"/>
   </g>
   <g id="patch_3">
    <path d="M 250.56 364.465501 
L 339.84 364.465501 
L 339.84 351.724931 
L 250.56 351.724931 
L 250.56 364.465501 
z
" clip-path="url(#p11f9d02cd4)" style="fill: #1f77b4; stroke: #000000; stroke-linejoin: miter"/>
   </g>
   <g id="line2d_10">
    <path d="M 295.2 364.465501 
L 295.2 371.953377 
" clip-path="url(#p11f9d02cd4)" style="fill: none; stroke: #000000; stroke-linecap: square"/>
   </g>
   <g id="line2d_11">
    <path d="M 295.2 351.724931 
L 295.2 332.831679 
" clip-path="url(#p11f9d02cd4)" style="fill: none; stroke: #000000; stroke-linecap: square"/>
   </g>
   <g id="line2d_12">
    <path d="M 272.88 371.953377 
L 317.52 371.953377 
" clip-path="url(#p11f9d02cd4)" style="fill: none; stroke: #000000; stroke-linecap: square"/>
   </g>
   <g id="line2d_13">
    <path d="M 272.88 332.831679 
L 317.52 332.831679 
" clip-path="url(#p11f9d02cd4)" style="fill: none; stroke: #000000; stroke-linecap: square"/>
   </g>
   <g id="line2d_14">
    <defs>
     <path id="mf0133389e3" d="M 0 3 
C 0.795609 3 1.55874 2.683901 2.12132 2.12132 
C 2.683901 1.55874 3 0.795609 3 0 
C 3 -0.795609 2.683901 -1.55874 2.12132 -2.12132 
C 1.55874 -2.683901 0.795609 -3 0 -3 
C -0.795609 -3 -1.55874 -2.683901 -2.12132 -2.12132 
C -2.683901 -1.55874 -3 -0.795609 -3 0 
C -3 0.795609 -2.683901 1.55874 -2.12132 2.12132 
C -1.55874 2.683901 -0.795609 3 0 3 
z
" style="stroke: #000000"/>
    </defs>
    <g clip-path="url(#p11f9d02cd4)">
     <use xlink:href="#mf0133389e3" x="295.2" y="134.184602" style="fill-opacity: 0; stroke: #000000"/>
     <use xlink:href="#mf0133389e3" x="295.2" y="327.8046" style="fill-opacity: 0; stroke: #000000"/>
     <use xlink:href="#mf0133389e3" x="295.2" y="332.505354" style="fill-opacity: 0; stroke: #000000"/>
     <use xlink:href="#mf0133389e3" x="295.2" y="144.562658" style="fill-opacity: 0; stroke: #000000"/>
     <use xlink:href="#mf0133389e3" x="295.2" y="322.83253" style="fill-opacity: 0; stroke: #000000"/>
     <use xlink:href="#mf0133389e3" x="295.2" y="137.185885" style="fill-opacity: 0; stroke: #000000"/>
     <use xlink:href="#mf0133389e3" x="295.2" y="326.756009" style="fill-opacity: 0; stroke: #000000"/>
     <use xlink:href="#mf0133389e3" x="295.2" y="140.606567" style="fill-opacity: 0; stroke: #000000"/>
     <use xlink:href="#mf0133389e3" x="295.2" y="316.768985" style="fill-opacity: 0; stroke: #000000"/>
     <use xlink:href="#mf0133389e3" x="295.2" y="320.648956" style="fill-opacity: 0; stroke: #000000"/>
     <use xlink:href="#mf0133389e3" x="295.2" y="143.424128" style="fill-opacity: 0; stroke: #000000"/>
     <use xlink:href="#mf0133389e3" x="295.2" y="330.149172" style="fill-opacity: 0; stroke: #000000"/>
     <use xlink:href="#mf0133389e3" x="295.2" y="331.870547" style="fill-opacity: 0; stroke: #000000"/>
     <use xlink:href="#mf0133389e3" x="295.2" y="67.083494" style="fill-opacity: 0; stroke: #000000"/>
     <use xlink:href="#mf0133389e3" x="295.2" y="325.183271" style="fill-opacity: 0; stroke: #000000"/>
     <use xlink:href="#mf0133389e3" x="295.2" y="329.524964" style="fill-opacity: 0; stroke: #000000"/>
     <use xlink:href="#mf0133389e3" x="295.2" y="272.098487" style="fill-opacity: 0; stroke: #000000"/>
     <use xlink:href="#mf0133389e3" x="295.2" y="141.656644" style="fill-opacity: 0; stroke: #000000"/>
     <use xlink:href="#mf0133389e3" x="295.2" y="324.453582" style="fill-opacity: 0; stroke: #000000"/>
     <use xlink:href="#mf0133389e3" x="295.2" y="316.409168" style="fill-opacity: 0; stroke: #000000"/>
     <use xlink:href="#mf0133389e3" x="295.2" y="329.604675" style="fill-opacity: 0; stroke: #000000"/>
     <use xlink:href="#mf0133389e3" x="295.2" y="117.507007" style="fill-opacity: 0; stroke: #000000"/>
     <use xlink:href="#mf0133389e3" x="295.2" y="321.879361" style="fill-opacity: 0; stroke: #000000"/>
     <use xlink:href="#mf0133389e3" x="295.2" y="319.360715" style="fill-opacity: 0; stroke: #000000"/>
     <use xlink:href="#mf0133389e3" x="295.2" y="94.914113" style="fill-opacity: 0; stroke: #000000"/>
     <use xlink:href="#mf0133389e3" x="295.2" y="322.306258" style="fill-opacity: 0; stroke: #000000"/>
     <use xlink:href="#mf0133389e3" x="295.2" y="326.830889" style="fill-opacity: 0; stroke: #000000"/>
     <use xlink:href="#mf0133389e3" x="295.2" y="131.01061" style="fill-opacity: 0; stroke: #000000"/>
     <use xlink:href="#mf0133389e3" x="295.2" y="308.965657" style="fill-opacity: 0; stroke: #000000"/>
     <use xlink:href="#mf0133389e3" x="295.2" y="325.950725" style="fill-opacity: 0; stroke: #000000"/>
     <use xlink:href="#mf0133389e3" x="295.2" y="323.107696" style="fill-opacity: 0; stroke: #000000"/>
    </g>
   </g>
   <g id="line2d_15">
    <path d="M 250.56 359.947389 
L 339.84 359.947389 
" clip-path="url(#p11f9d02cd4)" style="fill: none; stroke: #ff7f0e"/>
   </g>
   <g id="patch_4">
    <path d="M 72 384.48 
L 72 51.84 
" style="fill: none; stroke: #000000; stroke-width: 0.8; stroke-linejoin: miter; stroke-linecap: square"/>
   </g>
   <g id="patch_5">
    <path d="M 518.4 384.48 
L 518.4 51.84 
" style="fill: none; stroke: #000000; stroke-width: 0.8; stroke-linejoin: miter; stroke-linecap: square"/>
   </g>
   <g id="patch_6">
    <path d="M 72 384.48 
L 518.4 384.48 
" style="fill: none; stroke: #000000; stroke-width: 0.8; stroke-linejoin: miter; stroke-linecap: square"/>
   </g>
   <g id="patch_7">
    <path d="M 72 51.84 
L 518.4 51.84 
" style="fill: none; stroke: #000000; stroke-width: 0.8; stroke-linejoin: miter; stroke-linecap: square"/>
   </g>
   <g id="text_11">
    <!-- Get Trace With Delay -->
    <g transform="translate(232.04625 45.84) scale(0.12 -0.12)">
     <defs>
      <path id="DejaVuSans-47" d="M 3809 666 
L 3809 1919 
L 2778 1919 
L 2778 2438 
L 4434 2438 
L 4434 434 
Q 4069 175 3628 42 
Q 3188 -91 2688 -91 
Q 1594 -91 976 548 
Q 359 1188 359 2328 
Q 359 3472 976 4111 
Q 1594 4750 2688 4750 
Q 3144 4750 3555 4637 
Q 3966 4525 4313 4306 
L 4313 3634 
Q 3963 3931 3569 4081 
Q 3175 4231 2741 4231 
Q 1884 4231 1454 3753 
Q 1025 3275 1025 2328 
Q 1025 1384 1454 906 
Q 1884 428 2741 428 
Q 3075 428 3337 486 
Q 3600 544 3809 666 
z
" transform="scale(0.015625)"/>
      <path id="DejaVuSans-74" d="M 1172 4494 
L 1172 3500 
L 2356 3500 
L 2356 3053 
L 1172 3053 
L 1172 1153 
Q 1172 725 1289 603 
Q 1406 481 1766 481 
L 2356 481 
L 2356 0 
L 1766 0 
Q 1100 0 847 248 
Q 594 497 594 1153 
L 594 3053 
L 172 3053 
L 172 3500 
L 594 3500 
L 594 4494 
L 1172 4494 
z
" transform="scale(0.015625)"/>
      <path id="DejaVuSans-72" d="M 2631 2963 
Q 2534 3019 2420 3045 
Q 2306 3072 2169 3072 
Q 1681 3072 1420 2755 
Q 1159 2438 1159 1844 
L 1159 0 
L 581 0 
L 581 3500 
L 1159 3500 
L 1159 2956 
Q 1341 3275 1631 3429 
Q 1922 3584 2338 3584 
Q 2397 3584 2469 3576 
Q 2541 3569 2628 3553 
L 2631 2963 
z
" transform="scale(0.015625)"/>
      <path id="DejaVuSans-61" d="M 2194 1759 
Q 1497 1759 1228 1600 
Q 959 1441 959 1056 
Q 959 750 1161 570 
Q 1363 391 1709 391 
Q 2188 391 2477 730 
Q 2766 1069 2766 1631 
L 2766 1759 
L 2194 1759 
z
M 3341 1997 
L 3341 0 
L 2766 0 
L 2766 531 
Q 2569 213 2275 61 
Q 1981 -91 1556 -91 
Q 1019 -91 701 211 
Q 384 513 384 1019 
Q 384 1609 779 1909 
Q 1175 2209 1959 2209 
L 2766 2209 
L 2766 2266 
Q 2766 2663 2505 2880 
Q 2244 3097 1772 3097 
Q 1472 3097 1187 3025 
Q 903 2953 641 2809 
L 641 3341 
Q 956 3463 1253 3523 
Q 1550 3584 1831 3584 
Q 2591 3584 2966 3190 
Q 3341 2797 3341 1997 
z
" transform="scale(0.015625)"/>
      <path id="DejaVuSans-63" d="M 3122 3366 
L 3122 2828 
Q 2878 2963 2633 3030 
Q 2388 3097 2138 3097 
Q 1578 3097 1268 2742 
Q 959 2388 959 1747 
Q 959 1106 1268 751 
Q 1578 397 2138 397 
Q 2388 397 2633 464 
Q 2878 531 3122 666 
L 3122 134 
Q 2881 22 2623 -34 
Q 2366 -91 2075 -91 
Q 1284 -91 818 406 
Q 353 903 353 1747 
Q 353 2603 823 3093 
Q 1294 3584 2113 3584 
Q 2378 3584 2631 3529 
Q 2884 3475 3122 3366 
z
" transform="scale(0.015625)"/>
      <path id="DejaVuSans-57" d="M 213 4666 
L 850 4666 
L 1831 722 
L 2809 4666 
L 3519 4666 
L 4500 722 
L 5478 4666 
L 6119 4666 
L 4947 0 
L 4153 0 
L 3169 4050 
L 2175 0 
L 1381 0 
L 213 4666 
z
" transform="scale(0.015625)"/>
      <path id="DejaVuSans-68" d="M 3513 2113 
L 3513 0 
L 2938 0 
L 2938 2094 
Q 2938 2591 2744 2837 
Q 2550 3084 2163 3084 
Q 1697 3084 1428 2787 
Q 1159 2491 1159 1978 
L 1159 0 
L 581 0 
L 581 4863 
L 1159 4863 
L 1159 2956 
Q 1366 3272 1645 3428 
Q 1925 3584 2291 3584 
Q 2894 3584 3203 3211 
Q 3513 2838 3513 2113 
z
" transform="scale(0.015625)"/>
      <path id="DejaVuSans-44" d="M 1259 4147 
L 1259 519 
L 2022 519 
Q 2988 519 3436 956 
Q 3884 1394 3884 2338 
Q 3884 3275 3436 3711 
Q 2988 4147 2022 4147 
L 1259 4147 
z
M 628 4666 
L 1925 4666 
Q 3281 4666 3915 4102 
Q 4550 3538 4550 2338 
Q 4550 1131 3912 565 
Q 3275 0 1925 0 
L 628 0 
L 628 4666 
z
" transform="scale(0.015625)"/>
      <path id="DejaVuSans-6c" d="M 603 4863 
L 1178 4863 
L 1178 0 
L 603 0 
L 603 4863 
z
" transform="scale(0.015625)"/>
      <path id="DejaVuSans-79" d="M 2059 -325 
Q 1816 -950 1584 -1140 
Q 1353 -1331 966 -1331 
L 506 -1331 
L 506 -850 
L 844 -850 
Q 1081 -850 1212 -737 
Q 1344 -625 1503 -206 
L 1606 56 
L 191 3500 
L 800 3500 
L 1894 763 
L 2988 3500 
L 3597 3500 
L 2059 -325 
z
" transform="scale(0.015625)"/>
     </defs>
     <use xlink:href="#DejaVuSans-47"/>
     <use xlink:href="#DejaVuSans-65" transform="translate(77.490234 0)"/>
     <use xlink:href="#DejaVuSans-74" transform="translate(139.013672 0)"/>
     <use xlink:href="#DejaVuSans-20" transform="translate(178.222656 0)"/>
     <use xlink:href="#DejaVuSans-54" transform="translate(210.009766 0)"/>
     <use xlink:href="#DejaVuSans-72" transform="translate(256.34375 0)"/>
     <use xlink:href="#DejaVuSans-61" transform="translate(297.457031 0)"/>
     <use xlink:href="#DejaVuSans-63" transform="translate(358.736328 0)"/>
     <use xlink:href="#DejaVuSans-65" transform="translate(413.716797 0)"/>
     <use xlink:href="#DejaVuSans-20" transform="translate(475.240234 0)"/>
     <use xlink:href="#DejaVuSans-57" transform="translate(507.027344 0)"/>
     <use xlink:href="#DejaVuSans-69" transform="translate(603.654297 0)"/>
     <use xlink:href="#DejaVuSans-74" transform="translate(631.4375 0)"/>
     <use xlink:href="#DejaVuSans-68" transform="translate(670.646484 0)"/>
     <use xlink:href="#DejaVuSans-20" transform="translate(734.025391 0)"/>
     <use xlink:href="#DejaVuSans-44" transform="translate(765.8125 0)"/>
     <use xlink:href="#DejaVuSans-65" transform="translate(842.814453 0)"/>
     <use xlink:href="#DejaVuSans-6c" transform="translate(904.337891 0)"/>
     <use xlink:href="#DejaVuSans-61" transform="translate(932.121094 0)"/>
     <use xlink:href="#DejaVuSans-79" transform="translate(993.400391 0)"/>
    </g>
   </g>
  </g>
 </g>
 <defs>
  <clipPath id="p11f9d02cd4">
   <rect x="72" y="51.84" width="446.4" height="332.64"/>
  </clipPath>
 </defs>
</svg>
