<?xml version="1.0" encoding="utf-8" standalone="no"?>
<!DOCTYPE svg PUBLIC "-//W3C//DTD SVG 1.1//EN"
  "http://www.w3.org/Graphics/SVG/1.1/DTD/svg11.dtd">
<svg xmlns:xlink="http://www.w3.org/1999/xlink" width="576pt" height="432pt" viewBox="0 0 576 432" xmlns="http://www.w3.org/2000/svg" version="1.1">
 <metadata>
  <rdf:RDF xmlns:dc="http://purl.org/dc/elements/1.1/" xmlns:cc="http://creativecommons.org/ns#" xmlns:rdf="http://www.w3.org/1999/02/22-rdf-syntax-ns#">
   <cc:Work>
    <dc:type rdf:resource="http://purl.org/dc/dcmitype/StillImage"/>
    <dc:date>2025-06-10T01:38:25.587708</dc:date>
    <dc:format>image/svg+xml</dc:format>
    <dc:creator>
     <cc:Agent>
      <dc:title>Matplotlib v3.10.3, https://matplotlib.org/</dc:title>
     </cc:Agent>
    </dc:creator>
   </cc:Work>
  </rdf:RDF>
 </metadata>
 <defs>
  <style type="text/css">*{stroke-linejoin: round; stroke-linecap: butt}</style>
 </defs>
 <g id="figure_1">
  <g id="patch_1">
   <path d="M 0 432 
L 576 432 
L 576 0 
L 0 0 
z
" style="fill: #ffffff"/>
  </g>
  <g id="axes_1">
   <g id="patch_2">
    <path d="M 72 384.48 
L 518.4 384.48 
L 518.4 51.84 
L 72 51.84 
z
" style="fill: #ffffff"/>
   </g>
   <g id="FillBetweenPolyCollection_1">
    <path d="M 316.425624 336.573962 
L 273.974376 336.573962 
L 260.300105 333.834819 
L 242.859246 331.095675 
L 223.421441 328.356532 
L 204.951937 325.617388 
L 190.813264 322.878245 
L 183.6 320.139101 
L 184.202268 317.399958 
L 191.603823 314.660814 
L 203.470648 311.921671 
L 217.140978 309.182527 
L 230.488747 306.443384 
L 242.313565 303.704241 
L 252.238919 300.965097 
L 260.36298 298.225954 
L 266.945278 295.48681 
L 272.248291 292.747667 
L 276.484343 290.008523 
L 279.79733 287.26938 
L 282.276536 284.530236 
L 284.015204 281.791093 
L 285.173016 279.05195 
L 285.976788 276.312806 
L 286.649049 273.573663 
L 287.328063 270.834519 
L 288.049475 268.095376 
L 288.794707 265.356232 
L 289.547923 262.617089 
L 290.305209 259.877945 
L 291.037336 257.138802 
L 291.659992 254.399658 
L 292.062175 251.660515 
L 292.187662 248.921372 
L 292.105762 246.182228 
L 292.000381 243.443085 
L 292.066752 240.703941 
L 292.388357 237.964798 
L 292.891873 235.225654 
L 293.411019 232.486511 
L 293.79748 229.747367 
L 293.993464 227.008224 
L 294.033854 224.26908 
L 294.003529 221.529937 
L 293.987763 218.790794 
L 294.037808 216.05165 
L 294.160571 213.312507 
L 294.331843 210.573363 
L 294.519848 207.83422 
L 294.700611 205.095076 
L 294.858621 202.355933 
L 294.981553 199.616789 
L 295.058496 196.877646 
L 295.081885 194.138502 
L 295.049401 191.399359 
L 294.965258 188.660216 
L 294.841498 185.921072 
L 294.697545 183.181929 
L 294.556668 180.442785 
L 294.44129 177.703642 
L 294.369295 174.964498 
L 294.350615 172.225355 
L 294.384314 169.486211 
L 294.459877 166.747068 
L 294.563722 164.007924 
L 294.684645 161.268781 
L 294.812695 158.529638 
L 294.935395 155.790494 
L 295.038868 153.051351 
L 295.113885 150.312207 
L 295.160039 147.573064 
L 295.184 144.83392 
L 295.194445 142.094777 
L 295.198087 139.355633 
L 295.198378 136.61649 
L 295.195664 133.877346 
L 295.187316 131.138203 
L 295.167774 128.39906 
L 295.130068 125.659916 
L 295.07052 122.920773 
L 294.995463 120.181629 
L 294.924338 117.442486 
L 294.883031 114.703342 
L 294.889048 111.964199 
L 294.939741 109.225055 
L 295.014154 106.485912 
L 295.086776 103.746768 
L 295.141148 101.007625 
L 295.173898 98.268482 
L 295.190104 95.529338 
L 295.196698 92.790195 
L 295.198606 90.051051 
L 295.197802 87.311908 
L 295.193407 84.572764 
L 295.181601 81.833621 
L 295.155951 79.094477 
L 295.109995 76.355334 
L 295.043094 73.61619 
L 294.966627 70.877047 
L 294.903861 68.137904 
L 294.879389 65.39876 
L 295.520611 65.39876 
L 295.520611 65.39876 
L 295.496139 68.137904 
L 295.433373 70.877047 
L 295.356906 73.61619 
L 295.290005 76.355334 
L 295.244049 79.094477 
L 295.218399 81.833621 
L 295.206593 84.572764 
L 295.202198 87.311908 
L 295.201394 90.051051 
L 295.203302 92.790195 
L 295.209896 95.529338 
L 295.226102 98.268482 
L 295.258852 101.007625 
L 295.313224 103.746768 
L 295.385846 106.485912 
L 295.460259 109.225055 
L 295.510952 111.964199 
L 295.516969 114.703342 
L 295.475662 117.442486 
L 295.404537 120.181629 
L 295.32948 122.920773 
L 295.269932 125.659916 
L 295.232226 128.39906 
L 295.212684 131.138203 
L 295.204336 133.877346 
L 295.201622 136.61649 
L 295.201913 139.355633 
L 295.205555 142.094777 
L 295.216 144.83392 
L 295.239961 147.573064 
L 295.286115 150.312207 
L 295.361132 153.051351 
L 295.464605 155.790494 
L 295.587305 158.529638 
L 295.715355 161.268781 
L 295.836278 164.007924 
L 295.940123 166.747068 
L 296.015686 169.486211 
L 296.049385 172.225355 
L 296.030705 174.964498 
L 295.95871 177.703642 
L 295.843332 180.442785 
L 295.702455 183.181929 
L 295.558502 185.921072 
L 295.434742 188.660216 
L 295.350599 191.399359 
L 295.318115 194.138502 
L 295.341504 196.877646 
L 295.418447 199.616789 
L 295.541379 202.355933 
L 295.699389 205.095076 
L 295.880152 207.83422 
L 296.068157 210.573363 
L 296.239429 213.312507 
L 296.362192 216.05165 
L 296.412237 218.790794 
L 296.396471 221.529937 
L 296.366146 224.26908 
L 296.406536 227.008224 
L 296.60252 229.747367 
L 296.988981 232.486511 
L 297.508127 235.225654 
L 298.011643 237.964798 
L 298.333248 240.703941 
L 298.399619 243.443085 
L 298.294238 246.182228 
L 298.212338 248.921372 
L 298.337825 251.660515 
L 298.740008 254.399658 
L 299.362664 257.138802 
L 300.094791 259.877945 
L 300.852077 262.617089 
L 301.605293 265.356232 
L 302.350525 268.095376 
L 303.071937 270.834519 
L 303.750951 273.573663 
L 304.423212 276.312806 
L 305.226984 279.05195 
L 306.384796 281.791093 
L 308.123464 284.530236 
L 310.60267 287.26938 
L 313.915657 290.008523 
L 318.151709 292.747667 
L 323.454722 295.48681 
L 330.03702 298.225954 
L 338.161081 300.965097 
L 348.086435 303.704241 
L 359.911253 306.443384 
L 373.259022 309.182527 
L 386.929352 311.921671 
L 398.796177 314.660814 
L 406.197732 317.399958 
L 406.8 320.139101 
L 399.586736 322.878245 
L 385.448063 325.617388 
L 366.978559 328.356532 
L 347.540754 331.095675 
L 330.099895 333.834819 
L 316.425624 336.573962 
z
" clip-path="url(#pa7d5f6b163)" style="fill: #1f77b4; fill-opacity: 0.3"/>
   </g>
   <g id="matplotlib.axis_1">
    <g id="xtick_1">
     <g id="line2d_1">
      <defs>
       <path id="m93e05dc230" d="M 0 0 
L 0 3.5 
" style="stroke: #000000; stroke-width: 0.8"/>
      </defs>
      <g>
       <use xlink:href="#m93e05dc230" x="295.2" y="384.48" style="stroke: #000000; stroke-width: 0.8"/>
      </g>
     </g>
     <g id="text_1">
      <!-- 1 -->
      <g transform="translate(292.01875 399.078438) scale(0.1 -0.1)">
       <defs>
        <path id="DejaVuSans-31" d="M 794 531 
L 1825 531 
L 1825 4091 
L 703 3866 
L 703 4441 
L 1819 4666 
L 2450 4666 
L 2450 531 
L 3481 531 
L 3481 0 
L 794 0 
L 794 531 
z
" transform="scale(0.015625)"/>
       </defs>
       <use xlink:href="#DejaVuSans-31"/>
      </g>
     </g>
    </g>
   </g>
   <g id="matplotlib.axis_2">
    <g id="ytick_1">
     <g id="line2d_2">
      <defs>
       <path id="mbccc954ca6" d="M 0 0 
L -3.5 0 
" style="stroke: #000000; stroke-width: 0.8"/>
      </defs>
      <g>
       <use xlink:href="#mbccc954ca6" x="72" y="384.48" style="stroke: #000000; stroke-width: 0.8"/>
      </g>
     </g>
     <g id="text_2">
      <!-- 0.0 -->
      <g transform="translate(49.096875 388.279219) scale(0.1 -0.1)">
       <defs>
        <path id="DejaVuSans-30" d="M 2034 4250 
Q 1547 4250 1301 3770 
Q 1056 3291 1056 2328 
Q 1056 1369 1301 889 
Q 1547 409 2034 409 
Q 2525 409 2770 889 
Q 3016 1369 3016 2328 
Q 3016 3291 2770 3770 
Q 2525 4250 2034 4250 
z
M 2034 4750 
Q 2819 4750 3233 4129 
Q 3647 3509 3647 2328 
Q 3647 1150 3233 529 
Q 2819 -91 2034 -91 
Q 1250 -91 836 529 
Q 422 1150 422 2328 
Q 422 3509 836 4129 
Q 1250 4750 2034 4750 
z
" transform="scale(0.015625)"/>
        <path id="DejaVuSans-2e" d="M 684 794 
L 1344 794 
L 1344 0 
L 684 0 
L 684 794 
z
" transform="scale(0.015625)"/>
       </defs>
       <use xlink:href="#DejaVuSans-30"/>
       <use xlink:href="#DejaVuSans-2e" transform="translate(63.623047 0)"/>
       <use xlink:href="#DejaVuSans-30" transform="translate(95.410156 0)"/>
      </g>
     </g>
    </g>
    <g id="ytick_2">
     <g id="line2d_3">
      <g>
       <use xlink:href="#mbccc954ca6" x="72" y="346.10626" style="stroke: #000000; stroke-width: 0.8"/>
      </g>
     </g>
     <g id="text_3">
      <!-- 2.5 -->
      <g transform="translate(49.096875 349.905479) scale(0.1 -0.1)">
       <defs>
        <path id="DejaVuSans-32" d="M 1228 531 
L 3431 531 
L 3431 0 
L 469 0 
L 469 531 
Q 828 903 1448 1529 
Q 2069 2156 2228 2338 
Q 2531 2678 2651 2914 
Q 2772 3150 2772 3378 
Q 2772 3750 2511 3984 
Q 2250 4219 1831 4219 
Q 1534 4219 1204 4116 
Q 875 4013 500 3803 
L 500 4441 
Q 881 4594 1212 4672 
Q 1544 4750 1819 4750 
Q 2544 4750 2975 4387 
Q 3406 4025 3406 3419 
Q 3406 3131 3298 2873 
Q 3191 2616 2906 2266 
Q 2828 2175 2409 1742 
Q 1991 1309 1228 531 
z
" transform="scale(0.015625)"/>
        <path id="DejaVuSans-35" d="M 691 4666 
L 3169 4666 
L 3169 4134 
L 1269 4134 
L 1269 2991 
Q 1406 3038 1543 3061 
Q 1681 3084 1819 3084 
Q 2600 3084 3056 2656 
Q 3513 2228 3513 1497 
Q 3513 744 3044 326 
Q 2575 -91 1722 -91 
Q 1428 -91 1123 -41 
Q 819 9 494 109 
L 494 744 
Q 775 591 1075 516 
Q 1375 441 1709 441 
Q 2250 441 2565 725 
Q 2881 1009 2881 1497 
Q 2881 1984 2565 2268 
Q 2250 2553 1709 2553 
Q 1456 2553 1204 2497 
Q 953 2441 691 2322 
L 691 4666 
z
" transform="scale(0.015625)"/>
       </defs>
       <use xlink:href="#DejaVuSans-32"/>
       <use xlink:href="#DejaVuSans-2e" transform="translate(63.623047 0)"/>
       <use xlink:href="#DejaVuSans-35" transform="translate(95.410156 0)"/>
      </g>
     </g>
    </g>
    <g id="ytick_3">
     <g id="line2d_4">
      <g>
       <use xlink:href="#mbccc954ca6" x="72" y="307.73252" style="stroke: #000000; stroke-width: 0.8"/>
      </g>
     </g>
     <g id="text_4">
      <!-- 5.0 -->
      <g transform="translate(49.096875 311.531739) scale(0.1 -0.1)">
       <use xlink:href="#DejaVuSans-35"/>
       <use xlink:href="#DejaVuSans-2e" transform="translate(63.623047 0)"/>
       <use xlink:href="#DejaVuSans-30" transform="translate(95.410156 0)"/>
      </g>
     </g>
    </g>
    <g id="ytick_4">
     <g id="line2d_5">
      <g>
       <use xlink:href="#mbccc954ca6" x="72" y="269.35878" style="stroke: #000000; stroke-width: 0.8"/>
      </g>
     </g>
     <g id="text_5">
      <!-- 7.5 -->
      <g transform="translate(49.096875 273.157999) scale(0.1 -0.1)">
       <defs>
        <path id="DejaVuSans-37" d="M 525 4666 
L 3525 4666 
L 3525 4397 
L 1831 0 
L 1172 0 
L 2766 4134 
L 525 4134 
L 525 4666 
z
" transform="scale(0.015625)"/>
       </defs>
       <use xlink:href="#DejaVuSans-37"/>
       <use xlink:href="#DejaVuSans-2e" transform="translate(63.623047 0)"/>
       <use xlink:href="#DejaVuSans-35" transform="translate(95.410156 0)"/>
      </g>
     </g>
    </g>
    <g id="ytick_5">
     <g id="line2d_6">
      <g>
       <use xlink:href="#mbccc954ca6" x="72" y="230.98504" style="stroke: #000000; stroke-width: 0.8"/>
      </g>
     </g>
     <g id="text_6">
      <!-- 10.0 -->
      <g transform="translate(42.734375 234.784259) scale(0.1 -0.1)">
       <use xlink:href="#DejaVuSans-31"/>
       <use xlink:href="#DejaVuSans-30" transform="translate(63.623047 0)"/>
       <use xlink:href="#DejaVuSans-2e" transform="translate(127.246094 0)"/>
       <use xlink:href="#DejaVuSans-30" transform="translate(159.033203 0)"/>
      </g>
     </g>
    </g>
    <g id="ytick_6">
     <g id="line2d_7">
      <g>
       <use xlink:href="#mbccc954ca6" x="72" y="192.6113" style="stroke: #000000; stroke-width: 0.8"/>
      </g>
     </g>
     <g id="text_7">
      <!-- 12.5 -->
      <g transform="translate(42.734375 196.410519) scale(0.1 -0.1)">
       <use xlink:href="#DejaVuSans-31"/>
       <use xlink:href="#DejaVuSans-32" transform="translate(63.623047 0)"/>
       <use xlink:href="#DejaVuSans-2e" transform="translate(127.246094 0)"/>
       <use xlink:href="#DejaVuSans-35" transform="translate(159.033203 0)"/>
      </g>
     </g>
    </g>
    <g id="ytick_7">
     <g id="line2d_8">
      <g>
       <use xlink:href="#mbccc954ca6" x="72" y="154.23756" style="stroke: #000000; stroke-width: 0.8"/>
      </g>
     </g>
     <g id="text_8">
      <!-- 15.0 -->
      <g transform="translate(42.734375 158.036779) scale(0.1 -0.1)">
       <use xlink:href="#DejaVuSans-31"/>
       <use xlink:href="#DejaVuSans-35" transform="translate(63.623047 0)"/>
       <use xlink:href="#DejaVuSans-2e" transform="translate(127.246094 0)"/>
       <use xlink:href="#DejaVuSans-30" transform="translate(159.033203 0)"/>
      </g>
     </g>
    </g>
    <g id="ytick_8">
     <g id="line2d_9">
      <g>
       <use xlink:href="#mbccc954ca6" x="72" y="115.86382" style="stroke: #000000; stroke-width: 0.8"/>
      </g>
     </g>
     <g id="text_9">
      <!-- 17.5 -->
      <g transform="translate(42.734375 119.663039) scale(0.1 -0.1)">
       <use xlink:href="#DejaVuSans-31"/>
       <use xlink:href="#DejaVuSans-37" transform="translate(63.623047 0)"/>
       <use xlink:href="#DejaVuSans-2e" transform="translate(127.246094 0)"/>
       <use xlink:href="#DejaVuSans-35" transform="translate(159.033203 0)"/>
      </g>
     </g>
    </g>
    <g id="ytick_9">
     <g id="line2d_10">
      <g>
       <use xlink:href="#mbccc954ca6" x="72" y="77.49008" style="stroke: #000000; stroke-width: 0.8"/>
      </g>
     </g>
     <g id="text_10">
      <!-- 20.0 -->
      <g transform="translate(42.734375 81.289299) scale(0.1 -0.1)">
       <use xlink:href="#DejaVuSans-32"/>
       <use xlink:href="#DejaVuSans-30" transform="translate(63.623047 0)"/>
       <use xlink:href="#DejaVuSans-2e" transform="translate(127.246094 0)"/>
       <use xlink:href="#DejaVuSans-30" transform="translate(159.033203 0)"/>
      </g>
     </g>
    </g>
    <g id="text_11">
     <!-- Time (ms) -->
     <g transform="translate(36.654687 243.359219) rotate(-90) scale(0.1 -0.1)">
      <defs>
       <path id="DejaVuSans-54" d="M -19 4666 
L 3928 4666 
L 3928 4134 
L 2272 4134 
L 2272 0 
L 1638 0 
L 1638 4134 
L -19 4134 
L -19 4666 
z
" transform="scale(0.015625)"/>
       <path id="DejaVuSans-69" d="M 603 3500 
L 1178 3500 
L 1178 0 
L 603 0 
L 603 3500 
z
M 603 4863 
L 1178 4863 
L 1178 4134 
L 603 4134 
L 603 4863 
z
" transform="scale(0.015625)"/>
       <path id="DejaVuSans-6d" d="M 3328 2828 
Q 3544 3216 3844 3400 
Q 4144 3584 4550 3584 
Q 5097 3584 5394 3201 
Q 5691 2819 5691 2113 
L 5691 0 
L 5113 0 
L 5113 2094 
Q 5113 2597 4934 2840 
Q 4756 3084 4391 3084 
Q 3944 3084 3684 2787 
Q 3425 2491 3425 1978 
L 3425 0 
L 2847 0 
L 2847 2094 
Q 2847 2600 2669 2842 
Q 2491 3084 2119 3084 
Q 1678 3084 1418 2786 
Q 1159 2488 1159 1978 
L 1159 0 
L 581 0 
L 581 3500 
L 1159 3500 
L 1159 2956 
Q 1356 3278 1631 3431 
Q 1906 3584 2284 3584 
Q 2666 3584 2933 3390 
Q 3200 3197 3328 2828 
z
" transform="scale(0.015625)"/>
       <path id="DejaVuSans-65" d="M 3597 1894 
L 3597 1613 
L 953 1613 
Q 991 1019 1311 708 
Q 1631 397 2203 397 
Q 2534 397 2845 478 
Q 3156 559 3463 722 
L 3463 178 
Q 3153 47 2828 -22 
Q 2503 -91 2169 -91 
Q 1331 -91 842 396 
Q 353 884 353 1716 
Q 353 2575 817 3079 
Q 1281 3584 2069 3584 
Q 2775 3584 3186 3129 
Q 3597 2675 3597 1894 
z
M 3022 2063 
Q 3016 2534 2758 2815 
Q 2500 3097 2075 3097 
Q 1594 3097 1305 2825 
Q 1016 2553 972 2059 
L 3022 2063 
z
" transform="scale(0.015625)"/>
       <path id="DejaVuSans-20" transform="scale(0.015625)"/>
       <path id="DejaVuSans-28" d="M 1984 4856 
Q 1566 4138 1362 3434 
Q 1159 2731 1159 2009 
Q 1159 1288 1364 580 
Q 1569 -128 1984 -844 
L 1484 -844 
Q 1016 -109 783 600 
Q 550 1309 550 2009 
Q 550 2706 781 3412 
Q 1013 4119 1484 4856 
L 1984 4856 
z
" transform="scale(0.015625)"/>
       <path id="DejaVuSans-73" d="M 2834 3397 
L 2834 2853 
Q 2591 2978 2328 3040 
Q 2066 3103 1784 3103 
Q 1356 3103 1142 2972 
Q 928 2841 928 2578 
Q 928 2378 1081 2264 
Q 1234 2150 1697 2047 
L 1894 2003 
Q 2506 1872 2764 1633 
Q 3022 1394 3022 966 
Q 3022 478 2636 193 
Q 2250 -91 1575 -91 
Q 1294 -91 989 -36 
Q 684 19 347 128 
L 347 722 
Q 666 556 975 473 
Q 1284 391 1588 391 
Q 1994 391 2212 530 
Q 2431 669 2431 922 
Q 2431 1156 2273 1281 
Q 2116 1406 1581 1522 
L 1381 1569 
Q 847 1681 609 1914 
Q 372 2147 372 2553 
Q 372 3047 722 3315 
Q 1072 3584 1716 3584 
Q 2034 3584 2315 3537 
Q 2597 3491 2834 3397 
z
" transform="scale(0.015625)"/>
       <path id="DejaVuSans-29" d="M 513 4856 
L 1013 4856 
Q 1481 4119 1714 3412 
Q 1947 2706 1947 2009 
Q 1947 1309 1714 600 
Q 1481 -109 1013 -844 
L 513 -844 
Q 928 -128 1133 580 
Q 1338 1288 1338 2009 
Q 1338 2731 1133 3434 
Q 928 4138 513 4856 
z
" transform="scale(0.015625)"/>
      </defs>
      <use xlink:href="#DejaVuSans-54"/>
      <use xlink:href="#DejaVuSans-69" transform="translate(57.958984 0)"/>
      <use xlink:href="#DejaVuSans-6d" transform="translate(85.742188 0)"/>
      <use xlink:href="#DejaVuSans-65" transform="translate(183.154297 0)"/>
      <use xlink:href="#DejaVuSans-20" transform="translate(244.677734 0)"/>
      <use xlink:href="#DejaVuSans-28" transform="translate(276.464844 0)"/>
      <use xlink:href="#DejaVuSans-6d" transform="translate(315.478516 0)"/>
      <use xlink:href="#DejaVuSans-73" transform="translate(412.890625 0)"/>
      <use xlink:href="#DejaVuSans-29" transform="translate(464.990234 0)"/>
     </g>
    </g>
   </g>
   <g id="LineCollection_1">
    <path d="M 239.4 309.217755 
L 351 309.217755 
" clip-path="url(#pa7d5f6b163)" style="fill: none; stroke: #1f77b4; stroke-width: 1.5"/>
   </g>
   <g id="LineCollection_2">
    <path d="M 239.4 65.39876 
L 351 65.39876 
" clip-path="url(#pa7d5f6b163)" style="fill: none; stroke: #1f77b4; stroke-width: 1.5"/>
   </g>
   <g id="LineCollection_3">
    <path d="M 239.4 336.573962 
L 351 336.573962 
" clip-path="url(#pa7d5f6b163)" style="fill: none; stroke: #1f77b4; stroke-width: 1.5"/>
   </g>
   <g id="LineCollection_4">
    <path d="M 295.2 336.573962 
L 295.2 65.39876 
" clip-path="url(#pa7d5f6b163)" style="fill: none; stroke: #1f77b4; stroke-width: 1.5"/>
   </g>
   <g id="patch_3">
    <path d="M 250.56 322.276375 
L 339.84 322.276375 
L 339.84 305.392244 
L 250.56 305.392244 
L 250.56 322.276375 
z
" clip-path="url(#pa7d5f6b163)" style="fill: #1f77b4; stroke: #000000; stroke-linejoin: miter"/>
   </g>
   <g id="line2d_11">
    <path d="M 295.2 322.276375 
L 295.2 336.573962 
" clip-path="url(#pa7d5f6b163)" style="fill: none; stroke: #000000; stroke-linecap: square"/>
   </g>
   <g id="line2d_12">
    <path d="M 295.2 305.392244 
L 295.2 280.407071 
" clip-path="url(#pa7d5f6b163)" style="fill: none; stroke: #000000; stroke-linecap: square"/>
   </g>
   <g id="line2d_13">
    <path d="M 272.88 336.573962 
L 317.52 336.573962 
" clip-path="url(#pa7d5f6b163)" style="fill: none; stroke: #000000; stroke-linecap: square"/>
   </g>
   <g id="line2d_14">
    <path d="M 272.88 280.407071 
L 317.52 280.407071 
" clip-path="url(#pa7d5f6b163)" style="fill: none; stroke: #000000; stroke-linecap: square"/>
   </g>
   <g id="line2d_15">
    <defs>
     <path id="m7cd59100db" d="M 0 3 
C 0.795609 3 1.55874 2.683901 2.12132 2.12132 
C 2.683901 1.55874 3 0.795609 3 0 
C 3 -0.795609 2.683901 -1.55874 2.12132 -2.12132 
C 1.55874 -2.683901 0.795609 -3 0 -3 
C -0.795609 -3 -1.55874 -2.683901 -2.12132 -2.12132 
C -2.683901 -1.55874 -3 -0.795609 -3 0 
C -3 0.795609 -2.683901 1.55874 -2.12132 2.12132 
C -1.55874 2.683901 -0.795609 3 0 3 
z
" style="stroke: #000000"/>
    </defs>
    <g clip-path="url(#pa7d5f6b163)">
     <use xlink:href="#m7cd59100db" x="295.2" y="276.341987" style="fill-opacity: 0; stroke: #000000"/>
     <use xlink:href="#m7cd59100db" x="295.2" y="239.896574" style="fill-opacity: 0; stroke: #000000"/>
     <use xlink:href="#m7cd59100db" x="295.2" y="260.787959" style="fill-opacity: 0; stroke: #000000"/>
     <use xlink:href="#m7cd59100db" x="295.2" y="241.495285" style="fill-opacity: 0; stroke: #000000"/>
     <use xlink:href="#m7cd59100db" x="295.2" y="248.266362" style="fill-opacity: 0; stroke: #000000"/>
     <use xlink:href="#m7cd59100db" x="295.2" y="260.657243" style="fill-opacity: 0; stroke: #000000"/>
     <use xlink:href="#m7cd59100db" x="295.2" y="242.367152" style="fill-opacity: 0; stroke: #000000"/>
     <use xlink:href="#m7cd59100db" x="295.2" y="278.455643" style="fill-opacity: 0; stroke: #000000"/>
     <use xlink:href="#m7cd59100db" x="295.2" y="181.383589" style="fill-opacity: 0; stroke: #000000"/>
     <use xlink:href="#m7cd59100db" x="295.2" y="234.477695" style="fill-opacity: 0; stroke: #000000"/>
     <use xlink:href="#m7cd59100db" x="295.2" y="277.883491" style="fill-opacity: 0; stroke: #000000"/>
     <use xlink:href="#m7cd59100db" x="295.2" y="259.3343" style="fill-opacity: 0; stroke: #000000"/>
     <use xlink:href="#m7cd59100db" x="295.2" y="241.222586" style="fill-opacity: 0; stroke: #000000"/>
     <use xlink:href="#m7cd59100db" x="295.2" y="274.91476" style="fill-opacity: 0; stroke: #000000"/>
     <use xlink:href="#m7cd59100db" x="295.2" y="265.547638" style="fill-opacity: 0; stroke: #000000"/>
     <use xlink:href="#m7cd59100db" x="295.2" y="274.205153" style="fill-opacity: 0; stroke: #000000"/>
     <use xlink:href="#m7cd59100db" x="295.2" y="161.732136" style="fill-opacity: 0; stroke: #000000"/>
     <use xlink:href="#m7cd59100db" x="295.2" y="272.358501" style="fill-opacity: 0; stroke: #000000"/>
     <use xlink:href="#m7cd59100db" x="295.2" y="267.731933" style="fill-opacity: 0; stroke: #000000"/>
     <use xlink:href="#m7cd59100db" x="295.2" y="241.040879" style="fill-opacity: 0; stroke: #000000"/>
     <use xlink:href="#m7cd59100db" x="295.2" y="267.225676" style="fill-opacity: 0; stroke: #000000"/>
     <use xlink:href="#m7cd59100db" x="295.2" y="207.265356" style="fill-opacity: 0; stroke: #000000"/>
     <use xlink:href="#m7cd59100db" x="295.2" y="65.39876" style="fill-opacity: 0; stroke: #000000"/>
     <use xlink:href="#m7cd59100db" x="295.2" y="261.30668" style="fill-opacity: 0; stroke: #000000"/>
     <use xlink:href="#m7cd59100db" x="295.2" y="267.000008" style="fill-opacity: 0; stroke: #000000"/>
     <use xlink:href="#m7cd59100db" x="295.2" y="257.524441" style="fill-opacity: 0; stroke: #000000"/>
     <use xlink:href="#m7cd59100db" x="295.2" y="273.597666" style="fill-opacity: 0; stroke: #000000"/>
     <use xlink:href="#m7cd59100db" x="295.2" y="113.664375" style="fill-opacity: 0; stroke: #000000"/>
     <use xlink:href="#m7cd59100db" x="295.2" y="273.236585" style="fill-opacity: 0; stroke: #000000"/>
     <use xlink:href="#m7cd59100db" x="295.2" y="276.37419" style="fill-opacity: 0; stroke: #000000"/>
     <use xlink:href="#m7cd59100db" x="295.2" y="215.63777" style="fill-opacity: 0; stroke: #000000"/>
     <use xlink:href="#m7cd59100db" x="295.2" y="174.096861" style="fill-opacity: 0; stroke: #000000"/>
     <use xlink:href="#m7cd59100db" x="295.2" y="241.720953" style="fill-opacity: 0; stroke: #000000"/>
     <use xlink:href="#m7cd59100db" x="295.2" y="255.898454" style="fill-opacity: 0; stroke: #000000"/>
     <use xlink:href="#m7cd59100db" x="295.2" y="265.061704" style="fill-opacity: 0; stroke: #000000"/>
     <use xlink:href="#m7cd59100db" x="295.2" y="240.681317" style="fill-opacity: 0; stroke: #000000"/>
     <use xlink:href="#m7cd59100db" x="295.2" y="276.590357" style="fill-opacity: 0; stroke: #000000"/>
     <use xlink:href="#m7cd59100db" x="295.2" y="220.27014" style="fill-opacity: 0; stroke: #000000"/>
     <use xlink:href="#m7cd59100db" x="295.2" y="269.2393" style="fill-opacity: 0; stroke: #000000"/>
     <use xlink:href="#m7cd59100db" x="295.2" y="269.154877" style="fill-opacity: 0; stroke: #000000"/>
     <use xlink:href="#m7cd59100db" x="295.2" y="170.315512" style="fill-opacity: 0; stroke: #000000"/>
     <use xlink:href="#m7cd59100db" x="295.2" y="226.152773" style="fill-opacity: 0; stroke: #000000"/>
     <use xlink:href="#m7cd59100db" x="295.2" y="252.278659" style="fill-opacity: 0; stroke: #000000"/>
     <use xlink:href="#m7cd59100db" x="295.2" y="273.933375" style="fill-opacity: 0; stroke: #000000"/>
     <use xlink:href="#m7cd59100db" x="295.2" y="271.072137" style="fill-opacity: 0; stroke: #000000"/>
     <use xlink:href="#m7cd59100db" x="295.2" y="276.546074" style="fill-opacity: 0; stroke: #000000"/>
     <use xlink:href="#m7cd59100db" x="295.2" y="264.270637" style="fill-opacity: 0; stroke: #000000"/>
     <use xlink:href="#m7cd59100db" x="295.2" y="277.629795" style="fill-opacity: 0; stroke: #000000"/>
     <use xlink:href="#m7cd59100db" x="295.2" y="271.004706" style="fill-opacity: 0; stroke: #000000"/>
     <use xlink:href="#m7cd59100db" x="295.2" y="217.45756" style="fill-opacity: 0; stroke: #000000"/>
     <use xlink:href="#m7cd59100db" x="295.2" y="242.031474" style="fill-opacity: 0; stroke: #000000"/>
     <use xlink:href="#m7cd59100db" x="295.2" y="257.963299" style="fill-opacity: 0; stroke: #000000"/>
     <use xlink:href="#m7cd59100db" x="295.2" y="274.623811" style="fill-opacity: 0; stroke: #000000"/>
     <use xlink:href="#m7cd59100db" x="295.2" y="259.903444" style="fill-opacity: 0; stroke: #000000"/>
    </g>
   </g>
   <g id="line2d_16">
    <path d="M 250.56 316.244192 
L 339.84 316.244192 
" clip-path="url(#pa7d5f6b163)" style="fill: none; stroke: #ff7f0e"/>
   </g>
   <g id="patch_4">
    <path d="M 72 384.48 
L 72 51.84 
" style="fill: none; stroke: #000000; stroke-width: 0.8; stroke-linejoin: miter; stroke-linecap: square"/>
   </g>
   <g id="patch_5">
    <path d="M 518.4 384.48 
L 518.4 51.84 
" style="fill: none; stroke: #000000; stroke-width: 0.8; stroke-linejoin: miter; stroke-linecap: square"/>
   </g>
   <g id="patch_6">
    <path d="M 72 384.48 
L 518.4 384.48 
" style="fill: none; stroke: #000000; stroke-width: 0.8; stroke-linejoin: miter; stroke-linecap: square"/>
   </g>
   <g id="patch_7">
    <path d="M 72 51.84 
L 518.4 51.84 
" style="fill: none; stroke: #000000; stroke-width: 0.8; stroke-linejoin: miter; stroke-linecap: square"/>
   </g>
   <g id="text_12">
    <!-- Unregister Faultload -->
    <g transform="translate(234.737812 45.84) scale(0.12 -0.12)">
     <defs>
      <path id="DejaVuSans-55" d="M 556 4666 
L 1191 4666 
L 1191 1831 
Q 1191 1081 1462 751 
Q 1734 422 2344 422 
Q 2950 422 3222 751 
Q 3494 1081 3494 1831 
L 3494 4666 
L 4128 4666 
L 4128 1753 
Q 4128 841 3676 375 
Q 3225 -91 2344 -91 
Q 1459 -91 1007 375 
Q 556 841 556 1753 
L 556 4666 
z
" transform="scale(0.015625)"/>
      <path id="DejaVuSans-6e" d="M 3513 2113 
L 3513 0 
L 2938 0 
L 2938 2094 
Q 2938 2591 2744 2837 
Q 2550 3084 2163 3084 
Q 1697 3084 1428 2787 
Q 1159 2491 1159 1978 
L 1159 0 
L 581 0 
L 581 3500 
L 1159 3500 
L 1159 2956 
Q 1366 3272 1645 3428 
Q 1925 3584 2291 3584 
Q 2894 3584 3203 3211 
Q 3513 2838 3513 2113 
z
" transform="scale(0.015625)"/>
      <path id="DejaVuSans-72" d="M 2631 2963 
Q 2534 3019 2420 3045 
Q 2306 3072 2169 3072 
Q 1681 3072 1420 2755 
Q 1159 2438 1159 1844 
L 1159 0 
L 581 0 
L 581 3500 
L 1159 3500 
L 1159 2956 
Q 1341 3275 1631 3429 
Q 1922 3584 2338 3584 
Q 2397 3584 2469 3576 
Q 2541 3569 2628 3553 
L 2631 2963 
z
" transform="scale(0.015625)"/>
      <path id="DejaVuSans-67" d="M 2906 1791 
Q 2906 2416 2648 2759 
Q 2391 3103 1925 3103 
Q 1463 3103 1205 2759 
Q 947 2416 947 1791 
Q 947 1169 1205 825 
Q 1463 481 1925 481 
Q 2391 481 2648 825 
Q 2906 1169 2906 1791 
z
M 3481 434 
Q 3481 -459 3084 -895 
Q 2688 -1331 1869 -1331 
Q 1566 -1331 1297 -1286 
Q 1028 -1241 775 -1147 
L 775 -588 
Q 1028 -725 1275 -790 
Q 1522 -856 1778 -856 
Q 2344 -856 2625 -561 
Q 2906 -266 2906 331 
L 2906 616 
Q 2728 306 2450 153 
Q 2172 0 1784 0 
Q 1141 0 747 490 
Q 353 981 353 1791 
Q 353 2603 747 3093 
Q 1141 3584 1784 3584 
Q 2172 3584 2450 3431 
Q 2728 3278 2906 2969 
L 2906 3500 
L 3481 3500 
L 3481 434 
z
" transform="scale(0.015625)"/>
      <path id="DejaVuSans-74" d="M 1172 4494 
L 1172 3500 
L 2356 3500 
L 2356 3053 
L 1172 3053 
L 1172 1153 
Q 1172 725 1289 603 
Q 1406 481 1766 481 
L 2356 481 
L 2356 0 
L 1766 0 
Q 1100 0 847 248 
Q 594 497 594 1153 
L 594 3053 
L 172 3053 
L 172 3500 
L 594 3500 
L 594 4494 
L 1172 4494 
z
" transform="scale(0.015625)"/>
      <path id="DejaVuSans-46" d="M 628 4666 
L 3309 4666 
L 3309 4134 
L 1259 4134 
L 1259 2759 
L 3109 2759 
L 3109 2228 
L 1259 2228 
L 1259 0 
L 628 0 
L 628 4666 
z
" transform="scale(0.015625)"/>
      <path id="DejaVuSans-61" d="M 2194 1759 
Q 1497 1759 1228 1600 
Q 959 1441 959 1056 
Q 959 750 1161 570 
Q 1363 391 1709 391 
Q 2188 391 2477 730 
Q 2766 1069 2766 1631 
L 2766 1759 
L 2194 1759 
z
M 3341 1997 
L 3341 0 
L 2766 0 
L 2766 531 
Q 2569 213 2275 61 
Q 1981 -91 1556 -91 
Q 1019 -91 701 211 
Q 384 513 384 1019 
Q 384 1609 779 1909 
Q 1175 2209 1959 2209 
L 2766 2209 
L 2766 2266 
Q 2766 2663 2505 2880 
Q 2244 3097 1772 3097 
Q 1472 3097 1187 3025 
Q 903 2953 641 2809 
L 641 3341 
Q 956 3463 1253 3523 
Q 1550 3584 1831 3584 
Q 2591 3584 2966 3190 
Q 3341 2797 3341 1997 
z
" transform="scale(0.015625)"/>
      <path id="DejaVuSans-75" d="M 544 1381 
L 544 3500 
L 1119 3500 
L 1119 1403 
Q 1119 906 1312 657 
Q 1506 409 1894 409 
Q 2359 409 2629 706 
Q 2900 1003 2900 1516 
L 2900 3500 
L 3475 3500 
L 3475 0 
L 2900 0 
L 2900 538 
Q 2691 219 2414 64 
Q 2138 -91 1772 -91 
Q 1169 -91 856 284 
Q 544 659 544 1381 
z
M 1991 3584 
L 1991 3584 
z
" transform="scale(0.015625)"/>
      <path id="DejaVuSans-6c" d="M 603 4863 
L 1178 4863 
L 1178 0 
L 603 0 
L 603 4863 
z
" transform="scale(0.015625)"/>
      <path id="DejaVuSans-6f" d="M 1959 3097 
Q 1497 3097 1228 2736 
Q 959 2375 959 1747 
Q 959 1119 1226 758 
Q 1494 397 1959 397 
Q 2419 397 2687 759 
Q 2956 1122 2956 1747 
Q 2956 2369 2687 2733 
Q 2419 3097 1959 3097 
z
M 1959 3584 
Q 2709 3584 3137 3096 
Q 3566 2609 3566 1747 
Q 3566 888 3137 398 
Q 2709 -91 1959 -91 
Q 1206 -91 779 398 
Q 353 888 353 1747 
Q 353 2609 779 3096 
Q 1206 3584 1959 3584 
z
" transform="scale(0.015625)"/>
      <path id="DejaVuSans-64" d="M 2906 2969 
L 2906 4863 
L 3481 4863 
L 3481 0 
L 2906 0 
L 2906 525 
Q 2725 213 2448 61 
Q 2172 -91 1784 -91 
Q 1150 -91 751 415 
Q 353 922 353 1747 
Q 353 2572 751 3078 
Q 1150 3584 1784 3584 
Q 2172 3584 2448 3432 
Q 2725 3281 2906 2969 
z
M 947 1747 
Q 947 1113 1208 752 
Q 1469 391 1925 391 
Q 2381 391 2643 752 
Q 2906 1113 2906 1747 
Q 2906 2381 2643 2742 
Q 2381 3103 1925 3103 
Q 1469 3103 1208 2742 
Q 947 2381 947 1747 
z
" transform="scale(0.015625)"/>
     </defs>
     <use xlink:href="#DejaVuSans-55"/>
     <use xlink:href="#DejaVuSans-6e" transform="translate(73.193359 0)"/>
     <use xlink:href="#DejaVuSans-72" transform="translate(136.572266 0)"/>
     <use xlink:href="#DejaVuSans-65" transform="translate(175.435547 0)"/>
     <use xlink:href="#DejaVuSans-67" transform="translate(236.958984 0)"/>
     <use xlink:href="#DejaVuSans-69" transform="translate(300.435547 0)"/>
     <use xlink:href="#DejaVuSans-73" transform="translate(328.21875 0)"/>
     <use xlink:href="#DejaVuSans-74" transform="translate(380.318359 0)"/>
     <use xlink:href="#DejaVuSans-65" transform="translate(419.527344 0)"/>
     <use xlink:href="#DejaVuSans-72" transform="translate(481.050781 0)"/>
     <use xlink:href="#DejaVuSans-20" transform="translate(522.164062 0)"/>
     <use xlink:href="#DejaVuSans-46" transform="translate(553.951172 0)"/>
     <use xlink:href="#DejaVuSans-61" transform="translate(602.345703 0)"/>
     <use xlink:href="#DejaVuSans-75" transform="translate(663.625 0)"/>
     <use xlink:href="#DejaVuSans-6c" transform="translate(727.003906 0)"/>
     <use xlink:href="#DejaVuSans-74" transform="translate(754.787109 0)"/>
     <use xlink:href="#DejaVuSans-6c" transform="translate(793.996094 0)"/>
     <use xlink:href="#DejaVuSans-6f" transform="translate(821.779297 0)"/>
     <use xlink:href="#DejaVuSans-61" transform="translate(882.960938 0)"/>
     <use xlink:href="#DejaVuSans-64" transform="translate(944.240234 0)"/>
    </g>
   </g>
  </g>
 </g>
 <defs>
  <clipPath id="pa7d5f6b163">
   <rect x="72" y="51.84" width="446.4" height="332.64"/>
  </clipPath>
 </defs>
</svg>
