<?xml version="1.0" encoding="utf-8" standalone="no"?>
<!DOCTYPE svg PUBLIC "-//W3C//DTD SVG 1.1//EN"
  "http://www.w3.org/Graphics/SVG/1.1/DTD/svg11.dtd">
<svg xmlns:xlink="http://www.w3.org/1999/xlink" width="720pt" height="432pt" viewBox="0 0 720 432" xmlns="http://www.w3.org/2000/svg" version="1.1">
 <metadata>
  <rdf:RDF xmlns:dc="http://purl.org/dc/elements/1.1/" xmlns:cc="http://creativecommons.org/ns#" xmlns:rdf="http://www.w3.org/1999/02/22-rdf-syntax-ns#">
   <cc:Work>
    <dc:type rdf:resource="http://purl.org/dc/dcmitype/StillImage"/>
    <dc:date>2025-06-10T01:38:27.463488</dc:date>
    <dc:format>image/svg+xml</dc:format>
    <dc:creator>
     <cc:Agent>
      <dc:title>Matplotlib v3.10.3, https://matplotlib.org/</dc:title>
     </cc:Agent>
    </dc:creator>
   </cc:Work>
  </rdf:RDF>
 </metadata>
 <defs>
  <style type="text/css">*{stroke-linejoin: round; stroke-linecap: butt}</style>
 </defs>
 <g id="figure_1">
  <g id="patch_1">
   <path d="M 0 432 
L 720 432 
L 720 0 
L 0 0 
z
" style="fill: #ffffff"/>
  </g>
  <g id="axes_1">
   <g id="patch_2">
    <path d="M 90 384.48 
L 648 384.48 
L 648 51.84 
L 90 51.84 
z
" style="fill: #ffffff"/>
   </g>
   <g id="matplotlib.axis_1">
    <g id="xtick_1">
     <g id="line2d_1">
      <defs>
       <path id="mb3e97424a8" d="M 0 0 
L 0 3.5 
" style="stroke: #000000; stroke-width: 0.8"/>
      </defs>
      <g>
       <use xlink:href="#mb3e97424a8" x="115.363636" y="384.48" style="stroke: #000000; stroke-width: 0.8"/>
      </g>
     </g>
     <g id="text_1">
      <!-- 0 -->
      <g transform="translate(112.182386 399.078438) scale(0.1 -0.1)">
       <defs>
        <path id="DejaVuSans-30" d="M 2034 4250 
Q 1547 4250 1301 3770 
Q 1056 3291 1056 2328 
Q 1056 1369 1301 889 
Q 1547 409 2034 409 
Q 2525 409 2770 889 
Q 3016 1369 3016 2328 
Q 3016 3291 2770 3770 
Q 2525 4250 2034 4250 
z
M 2034 4750 
Q 2819 4750 3233 4129 
Q 3647 3509 3647 2328 
Q 3647 1150 3233 529 
Q 2819 -91 2034 -91 
Q 1250 -91 836 529 
Q 422 1150 422 2328 
Q 422 3509 836 4129 
Q 1250 4750 2034 4750 
z
" transform="scale(0.015625)"/>
       </defs>
       <use xlink:href="#DejaVuSans-30"/>
      </g>
     </g>
    </g>
    <g id="xtick_2">
     <g id="line2d_2">
      <g>
       <use xlink:href="#mb3e97424a8" x="185.043956" y="384.48" style="stroke: #000000; stroke-width: 0.8"/>
      </g>
     </g>
     <g id="text_2">
      <!-- 100 -->
      <g transform="translate(175.500206 399.078438) scale(0.1 -0.1)">
       <defs>
        <path id="DejaVuSans-31" d="M 794 531 
L 1825 531 
L 1825 4091 
L 703 3866 
L 703 4441 
L 1819 4666 
L 2450 4666 
L 2450 531 
L 3481 531 
L 3481 0 
L 794 0 
L 794 531 
z
" transform="scale(0.015625)"/>
       </defs>
       <use xlink:href="#DejaVuSans-31"/>
       <use xlink:href="#DejaVuSans-30" transform="translate(63.623047 0)"/>
       <use xlink:href="#DejaVuSans-30" transform="translate(127.246094 0)"/>
      </g>
     </g>
    </g>
    <g id="xtick_3">
     <g id="line2d_3">
      <g>
       <use xlink:href="#mb3e97424a8" x="254.724276" y="384.48" style="stroke: #000000; stroke-width: 0.8"/>
      </g>
     </g>
     <g id="text_3">
      <!-- 200 -->
      <g transform="translate(245.180526 399.078438) scale(0.1 -0.1)">
       <defs>
        <path id="DejaVuSans-32" d="M 1228 531 
L 3431 531 
L 3431 0 
L 469 0 
L 469 531 
Q 828 903 1448 1529 
Q 2069 2156 2228 2338 
Q 2531 2678 2651 2914 
Q 2772 3150 2772 3378 
Q 2772 3750 2511 3984 
Q 2250 4219 1831 4219 
Q 1534 4219 1204 4116 
Q 875 4013 500 3803 
L 500 4441 
Q 881 4594 1212 4672 
Q 1544 4750 1819 4750 
Q 2544 4750 2975 4387 
Q 3406 4025 3406 3419 
Q 3406 3131 3298 2873 
Q 3191 2616 2906 2266 
Q 2828 2175 2409 1742 
Q 1991 1309 1228 531 
z
" transform="scale(0.015625)"/>
       </defs>
       <use xlink:href="#DejaVuSans-32"/>
       <use xlink:href="#DejaVuSans-30" transform="translate(63.623047 0)"/>
       <use xlink:href="#DejaVuSans-30" transform="translate(127.246094 0)"/>
      </g>
     </g>
    </g>
    <g id="xtick_4">
     <g id="line2d_4">
      <g>
       <use xlink:href="#mb3e97424a8" x="324.404595" y="384.48" style="stroke: #000000; stroke-width: 0.8"/>
      </g>
     </g>
     <g id="text_4">
      <!-- 300 -->
      <g transform="translate(314.860845 399.078438) scale(0.1 -0.1)">
       <defs>
        <path id="DejaVuSans-33" d="M 2597 2516 
Q 3050 2419 3304 2112 
Q 3559 1806 3559 1356 
Q 3559 666 3084 287 
Q 2609 -91 1734 -91 
Q 1441 -91 1130 -33 
Q 819 25 488 141 
L 488 750 
Q 750 597 1062 519 
Q 1375 441 1716 441 
Q 2309 441 2620 675 
Q 2931 909 2931 1356 
Q 2931 1769 2642 2001 
Q 2353 2234 1838 2234 
L 1294 2234 
L 1294 2753 
L 1863 2753 
Q 2328 2753 2575 2939 
Q 2822 3125 2822 3475 
Q 2822 3834 2567 4026 
Q 2313 4219 1838 4219 
Q 1578 4219 1281 4162 
Q 984 4106 628 3988 
L 628 4550 
Q 988 4650 1302 4700 
Q 1616 4750 1894 4750 
Q 2613 4750 3031 4423 
Q 3450 4097 3450 3541 
Q 3450 3153 3228 2886 
Q 3006 2619 2597 2516 
z
" transform="scale(0.015625)"/>
       </defs>
       <use xlink:href="#DejaVuSans-33"/>
       <use xlink:href="#DejaVuSans-30" transform="translate(63.623047 0)"/>
       <use xlink:href="#DejaVuSans-30" transform="translate(127.246094 0)"/>
      </g>
     </g>
    </g>
    <g id="xtick_5">
     <g id="line2d_5">
      <g>
       <use xlink:href="#mb3e97424a8" x="394.084915" y="384.48" style="stroke: #000000; stroke-width: 0.8"/>
      </g>
     </g>
     <g id="text_5">
      <!-- 400 -->
      <g transform="translate(384.541165 399.078438) scale(0.1 -0.1)">
       <defs>
        <path id="DejaVuSans-34" d="M 2419 4116 
L 825 1625 
L 2419 1625 
L 2419 4116 
z
M 2253 4666 
L 3047 4666 
L 3047 1625 
L 3713 1625 
L 3713 1100 
L 3047 1100 
L 3047 0 
L 2419 0 
L 2419 1100 
L 313 1100 
L 313 1709 
L 2253 4666 
z
" transform="scale(0.015625)"/>
       </defs>
       <use xlink:href="#DejaVuSans-34"/>
       <use xlink:href="#DejaVuSans-30" transform="translate(63.623047 0)"/>
       <use xlink:href="#DejaVuSans-30" transform="translate(127.246094 0)"/>
      </g>
     </g>
    </g>
    <g id="xtick_6">
     <g id="line2d_6">
      <g>
       <use xlink:href="#mb3e97424a8" x="463.765235" y="384.48" style="stroke: #000000; stroke-width: 0.8"/>
      </g>
     </g>
     <g id="text_6">
      <!-- 500 -->
      <g transform="translate(454.221485 399.078438) scale(0.1 -0.1)">
       <defs>
        <path id="DejaVuSans-35" d="M 691 4666 
L 3169 4666 
L 3169 4134 
L 1269 4134 
L 1269 2991 
Q 1406 3038 1543 3061 
Q 1681 3084 1819 3084 
Q 2600 3084 3056 2656 
Q 3513 2228 3513 1497 
Q 3513 744 3044 326 
Q 2575 -91 1722 -91 
Q 1428 -91 1123 -41 
Q 819 9 494 109 
L 494 744 
Q 775 591 1075 516 
Q 1375 441 1709 441 
Q 2250 441 2565 725 
Q 2881 1009 2881 1497 
Q 2881 1984 2565 2268 
Q 2250 2553 1709 2553 
Q 1456 2553 1204 2497 
Q 953 2441 691 2322 
L 691 4666 
z
" transform="scale(0.015625)"/>
       </defs>
       <use xlink:href="#DejaVuSans-35"/>
       <use xlink:href="#DejaVuSans-30" transform="translate(63.623047 0)"/>
       <use xlink:href="#DejaVuSans-30" transform="translate(127.246094 0)"/>
      </g>
     </g>
    </g>
    <g id="xtick_7">
     <g id="line2d_7">
      <g>
       <use xlink:href="#mb3e97424a8" x="533.445554" y="384.48" style="stroke: #000000; stroke-width: 0.8"/>
      </g>
     </g>
     <g id="text_7">
      <!-- 600 -->
      <g transform="translate(523.901804 399.078438) scale(0.1 -0.1)">
       <defs>
        <path id="DejaVuSans-36" d="M 2113 2584 
Q 1688 2584 1439 2293 
Q 1191 2003 1191 1497 
Q 1191 994 1439 701 
Q 1688 409 2113 409 
Q 2538 409 2786 701 
Q 3034 994 3034 1497 
Q 3034 2003 2786 2293 
Q 2538 2584 2113 2584 
z
M 3366 4563 
L 3366 3988 
Q 3128 4100 2886 4159 
Q 2644 4219 2406 4219 
Q 1781 4219 1451 3797 
Q 1122 3375 1075 2522 
Q 1259 2794 1537 2939 
Q 1816 3084 2150 3084 
Q 2853 3084 3261 2657 
Q 3669 2231 3669 1497 
Q 3669 778 3244 343 
Q 2819 -91 2113 -91 
Q 1303 -91 875 529 
Q 447 1150 447 2328 
Q 447 3434 972 4092 
Q 1497 4750 2381 4750 
Q 2619 4750 2861 4703 
Q 3103 4656 3366 4563 
z
" transform="scale(0.015625)"/>
       </defs>
       <use xlink:href="#DejaVuSans-36"/>
       <use xlink:href="#DejaVuSans-30" transform="translate(63.623047 0)"/>
       <use xlink:href="#DejaVuSans-30" transform="translate(127.246094 0)"/>
      </g>
     </g>
    </g>
    <g id="xtick_8">
     <g id="line2d_8">
      <g>
       <use xlink:href="#mb3e97424a8" x="603.125874" y="384.48" style="stroke: #000000; stroke-width: 0.8"/>
      </g>
     </g>
     <g id="text_8">
      <!-- 700 -->
      <g transform="translate(593.582124 399.078438) scale(0.1 -0.1)">
       <defs>
        <path id="DejaVuSans-37" d="M 525 4666 
L 3525 4666 
L 3525 4397 
L 1831 0 
L 1172 0 
L 2766 4134 
L 525 4134 
L 525 4666 
z
" transform="scale(0.015625)"/>
       </defs>
       <use xlink:href="#DejaVuSans-37"/>
       <use xlink:href="#DejaVuSans-30" transform="translate(63.623047 0)"/>
       <use xlink:href="#DejaVuSans-30" transform="translate(127.246094 0)"/>
      </g>
     </g>
    </g>
    <g id="text_9">
     <!-- Index -->
     <g transform="translate(355.233594 412.756563) scale(0.1 -0.1)">
      <defs>
       <path id="DejaVuSans-49" d="M 628 4666 
L 1259 4666 
L 1259 0 
L 628 0 
L 628 4666 
z
" transform="scale(0.015625)"/>
       <path id="DejaVuSans-6e" d="M 3513 2113 
L 3513 0 
L 2938 0 
L 2938 2094 
Q 2938 2591 2744 2837 
Q 2550 3084 2163 3084 
Q 1697 3084 1428 2787 
Q 1159 2491 1159 1978 
L 1159 0 
L 581 0 
L 581 3500 
L 1159 3500 
L 1159 2956 
Q 1366 3272 1645 3428 
Q 1925 3584 2291 3584 
Q 2894 3584 3203 3211 
Q 3513 2838 3513 2113 
z
" transform="scale(0.015625)"/>
       <path id="DejaVuSans-64" d="M 2906 2969 
L 2906 4863 
L 3481 4863 
L 3481 0 
L 2906 0 
L 2906 525 
Q 2725 213 2448 61 
Q 2172 -91 1784 -91 
Q 1150 -91 751 415 
Q 353 922 353 1747 
Q 353 2572 751 3078 
Q 1150 3584 1784 3584 
Q 2172 3584 2448 3432 
Q 2725 3281 2906 2969 
z
M 947 1747 
Q 947 1113 1208 752 
Q 1469 391 1925 391 
Q 2381 391 2643 752 
Q 2906 1113 2906 1747 
Q 2906 2381 2643 2742 
Q 2381 3103 1925 3103 
Q 1469 3103 1208 2742 
Q 947 2381 947 1747 
z
" transform="scale(0.015625)"/>
       <path id="DejaVuSans-65" d="M 3597 1894 
L 3597 1613 
L 953 1613 
Q 991 1019 1311 708 
Q 1631 397 2203 397 
Q 2534 397 2845 478 
Q 3156 559 3463 722 
L 3463 178 
Q 3153 47 2828 -22 
Q 2503 -91 2169 -91 
Q 1331 -91 842 396 
Q 353 884 353 1716 
Q 353 2575 817 3079 
Q 1281 3584 2069 3584 
Q 2775 3584 3186 3129 
Q 3597 2675 3597 1894 
z
M 3022 2063 
Q 3016 2534 2758 2815 
Q 2500 3097 2075 3097 
Q 1594 3097 1305 2825 
Q 1016 2553 972 2059 
L 3022 2063 
z
" transform="scale(0.015625)"/>
       <path id="DejaVuSans-78" d="M 3513 3500 
L 2247 1797 
L 3578 0 
L 2900 0 
L 1881 1375 
L 863 0 
L 184 0 
L 1544 1831 
L 300 3500 
L 978 3500 
L 1906 2253 
L 2834 3500 
L 3513 3500 
z
" transform="scale(0.015625)"/>
      </defs>
      <use xlink:href="#DejaVuSans-49"/>
      <use xlink:href="#DejaVuSans-6e" transform="translate(29.492188 0)"/>
      <use xlink:href="#DejaVuSans-64" transform="translate(92.871094 0)"/>
      <use xlink:href="#DejaVuSans-65" transform="translate(156.347656 0)"/>
      <use xlink:href="#DejaVuSans-78" transform="translate(216.121094 0)"/>
     </g>
    </g>
   </g>
   <g id="matplotlib.axis_2">
    <g id="ytick_1">
     <g id="line2d_9">
      <defs>
       <path id="ma6856409fa" d="M 0 0 
L -3.5 0 
" style="stroke: #000000; stroke-width: 0.8"/>
      </defs>
      <g>
       <use xlink:href="#ma6856409fa" x="90" y="384.48" style="stroke: #000000; stroke-width: 0.8"/>
      </g>
     </g>
     <g id="text_10">
      <!-- 0 -->
      <g transform="translate(76.6375 388.279219) scale(0.1 -0.1)">
       <use xlink:href="#DejaVuSans-30"/>
      </g>
     </g>
    </g>
    <g id="ytick_2">
     <g id="line2d_10">
      <g>
       <use xlink:href="#ma6856409fa" x="90" y="339.192032" style="stroke: #000000; stroke-width: 0.8"/>
      </g>
     </g>
     <g id="text_11">
      <!-- 5 -->
      <g transform="translate(76.6375 342.991251) scale(0.1 -0.1)">
       <use xlink:href="#DejaVuSans-35"/>
      </g>
     </g>
    </g>
    <g id="ytick_3">
     <g id="line2d_11">
      <g>
       <use xlink:href="#ma6856409fa" x="90" y="293.904065" style="stroke: #000000; stroke-width: 0.8"/>
      </g>
     </g>
     <g id="text_12">
      <!-- 10 -->
      <g transform="translate(70.275 297.703284) scale(0.1 -0.1)">
       <use xlink:href="#DejaVuSans-31"/>
       <use xlink:href="#DejaVuSans-30" transform="translate(63.623047 0)"/>
      </g>
     </g>
    </g>
    <g id="ytick_4">
     <g id="line2d_12">
      <g>
       <use xlink:href="#ma6856409fa" x="90" y="248.616097" style="stroke: #000000; stroke-width: 0.8"/>
      </g>
     </g>
     <g id="text_13">
      <!-- 15 -->
      <g transform="translate(70.275 252.415316) scale(0.1 -0.1)">
       <use xlink:href="#DejaVuSans-31"/>
       <use xlink:href="#DejaVuSans-35" transform="translate(63.623047 0)"/>
      </g>
     </g>
    </g>
    <g id="ytick_5">
     <g id="line2d_13">
      <g>
       <use xlink:href="#ma6856409fa" x="90" y="203.32813" style="stroke: #000000; stroke-width: 0.8"/>
      </g>
     </g>
     <g id="text_14">
      <!-- 20 -->
      <g transform="translate(70.275 207.127348) scale(0.1 -0.1)">
       <use xlink:href="#DejaVuSans-32"/>
       <use xlink:href="#DejaVuSans-30" transform="translate(63.623047 0)"/>
      </g>
     </g>
    </g>
    <g id="ytick_6">
     <g id="line2d_14">
      <g>
       <use xlink:href="#ma6856409fa" x="90" y="158.040162" style="stroke: #000000; stroke-width: 0.8"/>
      </g>
     </g>
     <g id="text_15">
      <!-- 25 -->
      <g transform="translate(70.275 161.839381) scale(0.1 -0.1)">
       <use xlink:href="#DejaVuSans-32"/>
       <use xlink:href="#DejaVuSans-35" transform="translate(63.623047 0)"/>
      </g>
     </g>
    </g>
    <g id="ytick_7">
     <g id="line2d_15">
      <g>
       <use xlink:href="#ma6856409fa" x="90" y="112.752194" style="stroke: #000000; stroke-width: 0.8"/>
      </g>
     </g>
     <g id="text_16">
      <!-- 30 -->
      <g transform="translate(70.275 116.551413) scale(0.1 -0.1)">
       <use xlink:href="#DejaVuSans-33"/>
       <use xlink:href="#DejaVuSans-30" transform="translate(63.623047 0)"/>
      </g>
     </g>
    </g>
    <g id="ytick_8">
     <g id="line2d_16">
      <g>
       <use xlink:href="#ma6856409fa" x="90" y="67.464227" style="stroke: #000000; stroke-width: 0.8"/>
      </g>
     </g>
     <g id="text_17">
      <!-- 35 -->
      <g transform="translate(70.275 71.263445) scale(0.1 -0.1)">
       <use xlink:href="#DejaVuSans-33"/>
       <use xlink:href="#DejaVuSans-35" transform="translate(63.623047 0)"/>
      </g>
     </g>
    </g>
    <g id="text_18">
     <!-- Average time (ms) -->
     <g transform="translate(64.195312 264.543594) rotate(-90) scale(0.1 -0.1)">
      <defs>
       <path id="DejaVuSans-41" d="M 2188 4044 
L 1331 1722 
L 3047 1722 
L 2188 4044 
z
M 1831 4666 
L 2547 4666 
L 4325 0 
L 3669 0 
L 3244 1197 
L 1141 1197 
L 716 0 
L 50 0 
L 1831 4666 
z
" transform="scale(0.015625)"/>
       <path id="DejaVuSans-76" d="M 191 3500 
L 800 3500 
L 1894 563 
L 2988 3500 
L 3597 3500 
L 2284 0 
L 1503 0 
L 191 3500 
z
" transform="scale(0.015625)"/>
       <path id="DejaVuSans-72" d="M 2631 2963 
Q 2534 3019 2420 3045 
Q 2306 3072 2169 3072 
Q 1681 3072 1420 2755 
Q 1159 2438 1159 1844 
L 1159 0 
L 581 0 
L 581 3500 
L 1159 3500 
L 1159 2956 
Q 1341 3275 1631 3429 
Q 1922 3584 2338 3584 
Q 2397 3584 2469 3576 
Q 2541 3569 2628 3553 
L 2631 2963 
z
" transform="scale(0.015625)"/>
       <path id="DejaVuSans-61" d="M 2194 1759 
Q 1497 1759 1228 1600 
Q 959 1441 959 1056 
Q 959 750 1161 570 
Q 1363 391 1709 391 
Q 2188 391 2477 730 
Q 2766 1069 2766 1631 
L 2766 1759 
L 2194 1759 
z
M 3341 1997 
L 3341 0 
L 2766 0 
L 2766 531 
Q 2569 213 2275 61 
Q 1981 -91 1556 -91 
Q 1019 -91 701 211 
Q 384 513 384 1019 
Q 384 1609 779 1909 
Q 1175 2209 1959 2209 
L 2766 2209 
L 2766 2266 
Q 2766 2663 2505 2880 
Q 2244 3097 1772 3097 
Q 1472 3097 1187 3025 
Q 903 2953 641 2809 
L 641 3341 
Q 956 3463 1253 3523 
Q 1550 3584 1831 3584 
Q 2591 3584 2966 3190 
Q 3341 2797 3341 1997 
z
" transform="scale(0.015625)"/>
       <path id="DejaVuSans-67" d="M 2906 1791 
Q 2906 2416 2648 2759 
Q 2391 3103 1925 3103 
Q 1463 3103 1205 2759 
Q 947 2416 947 1791 
Q 947 1169 1205 825 
Q 1463 481 1925 481 
Q 2391 481 2648 825 
Q 2906 1169 2906 1791 
z
M 3481 434 
Q 3481 -459 3084 -895 
Q 2688 -1331 1869 -1331 
Q 1566 -1331 1297 -1286 
Q 1028 -1241 775 -1147 
L 775 -588 
Q 1028 -725 1275 -790 
Q 1522 -856 1778 -856 
Q 2344 -856 2625 -561 
Q 2906 -266 2906 331 
L 2906 616 
Q 2728 306 2450 153 
Q 2172 0 1784 0 
Q 1141 0 747 490 
Q 353 981 353 1791 
Q 353 2603 747 3093 
Q 1141 3584 1784 3584 
Q 2172 3584 2450 3431 
Q 2728 3278 2906 2969 
L 2906 3500 
L 3481 3500 
L 3481 434 
z
" transform="scale(0.015625)"/>
       <path id="DejaVuSans-20" transform="scale(0.015625)"/>
       <path id="DejaVuSans-74" d="M 1172 4494 
L 1172 3500 
L 2356 3500 
L 2356 3053 
L 1172 3053 
L 1172 1153 
Q 1172 725 1289 603 
Q 1406 481 1766 481 
L 2356 481 
L 2356 0 
L 1766 0 
Q 1100 0 847 248 
Q 594 497 594 1153 
L 594 3053 
L 172 3053 
L 172 3500 
L 594 3500 
L 594 4494 
L 1172 4494 
z
" transform="scale(0.015625)"/>
       <path id="DejaVuSans-69" d="M 603 3500 
L 1178 3500 
L 1178 0 
L 603 0 
L 603 3500 
z
M 603 4863 
L 1178 4863 
L 1178 4134 
L 603 4134 
L 603 4863 
z
" transform="scale(0.015625)"/>
       <path id="DejaVuSans-6d" d="M 3328 2828 
Q 3544 3216 3844 3400 
Q 4144 3584 4550 3584 
Q 5097 3584 5394 3201 
Q 5691 2819 5691 2113 
L 5691 0 
L 5113 0 
L 5113 2094 
Q 5113 2597 4934 2840 
Q 4756 3084 4391 3084 
Q 3944 3084 3684 2787 
Q 3425 2491 3425 1978 
L 3425 0 
L 2847 0 
L 2847 2094 
Q 2847 2600 2669 2842 
Q 2491 3084 2119 3084 
Q 1678 3084 1418 2786 
Q 1159 2488 1159 1978 
L 1159 0 
L 581 0 
L 581 3500 
L 1159 3500 
L 1159 2956 
Q 1356 3278 1631 3431 
Q 1906 3584 2284 3584 
Q 2666 3584 2933 3390 
Q 3200 3197 3328 2828 
z
" transform="scale(0.015625)"/>
       <path id="DejaVuSans-28" d="M 1984 4856 
Q 1566 4138 1362 3434 
Q 1159 2731 1159 2009 
Q 1159 1288 1364 580 
Q 1569 -128 1984 -844 
L 1484 -844 
Q 1016 -109 783 600 
Q 550 1309 550 2009 
Q 550 2706 781 3412 
Q 1013 4119 1484 4856 
L 1984 4856 
z
" transform="scale(0.015625)"/>
       <path id="DejaVuSans-73" d="M 2834 3397 
L 2834 2853 
Q 2591 2978 2328 3040 
Q 2066 3103 1784 3103 
Q 1356 3103 1142 2972 
Q 928 2841 928 2578 
Q 928 2378 1081 2264 
Q 1234 2150 1697 2047 
L 1894 2003 
Q 2506 1872 2764 1633 
Q 3022 1394 3022 966 
Q 3022 478 2636 193 
Q 2250 -91 1575 -91 
Q 1294 -91 989 -36 
Q 684 19 347 128 
L 347 722 
Q 666 556 975 473 
Q 1284 391 1588 391 
Q 1994 391 2212 530 
Q 2431 669 2431 922 
Q 2431 1156 2273 1281 
Q 2116 1406 1581 1522 
L 1381 1569 
Q 847 1681 609 1914 
Q 372 2147 372 2553 
Q 372 3047 722 3315 
Q 1072 3584 1716 3584 
Q 2034 3584 2315 3537 
Q 2597 3491 2834 3397 
z
" transform="scale(0.015625)"/>
       <path id="DejaVuSans-29" d="M 513 4856 
L 1013 4856 
Q 1481 4119 1714 3412 
Q 1947 2706 1947 2009 
Q 1947 1309 1714 600 
Q 1481 -109 1013 -844 
L 513 -844 
Q 928 -128 1133 580 
Q 1338 1288 1338 2009 
Q 1338 2731 1133 3434 
Q 928 4138 513 4856 
z
" transform="scale(0.015625)"/>
      </defs>
      <use xlink:href="#DejaVuSans-41"/>
      <use xlink:href="#DejaVuSans-76" transform="translate(62.533203 0)"/>
      <use xlink:href="#DejaVuSans-65" transform="translate(121.712891 0)"/>
      <use xlink:href="#DejaVuSans-72" transform="translate(183.236328 0)"/>
      <use xlink:href="#DejaVuSans-61" transform="translate(224.349609 0)"/>
      <use xlink:href="#DejaVuSans-67" transform="translate(285.628906 0)"/>
      <use xlink:href="#DejaVuSans-65" transform="translate(349.105469 0)"/>
      <use xlink:href="#DejaVuSans-20" transform="translate(410.628906 0)"/>
      <use xlink:href="#DejaVuSans-74" transform="translate(442.416016 0)"/>
      <use xlink:href="#DejaVuSans-69" transform="translate(481.625 0)"/>
      <use xlink:href="#DejaVuSans-6d" transform="translate(509.408203 0)"/>
      <use xlink:href="#DejaVuSans-65" transform="translate(606.820312 0)"/>
      <use xlink:href="#DejaVuSans-20" transform="translate(668.34375 0)"/>
      <use xlink:href="#DejaVuSans-28" transform="translate(700.130859 0)"/>
      <use xlink:href="#DejaVuSans-6d" transform="translate(739.144531 0)"/>
      <use xlink:href="#DejaVuSans-73" transform="translate(836.556641 0)"/>
      <use xlink:href="#DejaVuSans-29" transform="translate(888.65625 0)"/>
     </g>
    </g>
   </g>
   <g id="line2d_17">
    <path d="M 115.363636 67.395736 
L 116.06044 241.753602 
L 117.454046 326.447953 
L 118.150849 302.433863 
L 118.847652 341.889776 
L 119.544456 342.111388 
L 120.241259 337.882476 
L 120.938062 345.055855 
L 121.634865 326.633613 
L 122.331668 335.872533 
L 123.028472 348.735514 
L 123.725275 335.259301 
L 124.422078 352.525701 
L 125.118881 353.011212 
L 125.815684 358.839151 
L 126.512488 357.530565 
L 127.209291 361.046587 
L 127.906094 353.201738 
L 128.602897 353.33846 
L 129.2997 357.462889 
L 129.996503 362.560455 
L 130.693307 353.961064 
L 131.39011 357.179051 
L 132.086913 358.644353 
L 132.783716 369.773065 
L 133.480519 372.522488 
L 134.177323 370.410752 
L 134.874126 369.123004 
L 135.570929 372.391147 
L 136.267732 373.083781 
L 136.964535 374.101302 
L 137.661339 373.989281 
L 139.054945 343.258732 
L 139.751748 370.580135 
L 140.448551 369.17946 
L 141.145355 362.061025 
L 141.842158 367.882648 
L 142.538961 371.765829 
L 143.235764 372.642652 
L 143.932567 371.531539 
L 144.629371 375.490194 
L 145.326174 373.965429 
L 146.022977 372.059917 
L 146.71978 375.01284 
L 147.416583 376.619129 
L 148.113387 375.021895 
L 148.81019 375.142971 
L 149.506993 373.413795 
L 150.203796 368.483813 
L 150.900599 371.215722 
L 152.294206 373.035483 
L 152.991009 371.92527 
L 153.687812 373.437359 
L 154.384615 373.535788 
L 155.081419 376.217875 
L 155.778222 376.142687 
L 157.171828 376.352534 
L 158.565435 373.649612 
L 159.262238 375.107957 
L 159.959041 374.508317 
L 160.655844 371.629077 
L 161.352647 371.459993 
L 162.049451 374.683748 
L 162.746254 371.960295 
L 163.443057 373.308135 
L 164.13986 374.045154 
L 164.836663 374.001675 
L 165.533467 372.411985 
L 166.23027 376.303013 
L 166.927073 373.965435 
L 167.623876 376.477236 
L 168.320679 375.243229 
L 169.017483 375.769503 
L 169.714286 351.304393 
L 170.411089 375.077469 
L 171.107892 376.376995 
L 171.804695 370.991688 
L 172.501499 370.930695 
L 173.198302 370.175862 
L 173.895105 370.126954 
L 174.591908 373.214832 
L 175.288711 373.366405 
L 175.985514 370.281534 
L 176.682318 371.923461 
L 177.379121 376.535503 
L 178.075924 376.136347 
L 178.772727 377.723313 
L 179.46953 376.689189 
L 180.166334 372.418933 
L 180.863137 371.665296 
L 181.55994 373.245933 
L 182.256743 372.627272 
L 182.953546 372.729925 
L 183.65035 372.720264 
L 184.347153 371.575927 
L 185.043956 375.074749 
L 185.740759 373.203652 
L 186.437562 373.642671 
L 187.134366 375.833506 
L 187.831169 374.210005 
L 188.527972 376.303916 
L 189.224775 377.720901 
L 189.921578 377.519511 
L 190.618382 377.099818 
L 191.315185 375.254098 
L 192.011988 375.870646 
L 192.708791 374.539418 
L 193.405594 374.123958 
L 194.102398 375.048479 
L 194.799201 375.758331 
L 195.496004 374.758621 
L 196.192807 374.185849 
L 196.88961 375.701266 
L 197.586414 374.974201 
L 198.283217 375.234772 
L 198.98002 375.240204 
L 199.676823 376.020102 
L 200.373626 377.622167 
L 201.07043 377.970603 
L 201.767233 378.11009 
L 202.464036 376.237801 
L 203.160839 376.348914 
L 203.857642 375.021306 
L 204.554446 374.579271 
L 205.251249 373.799385 
L 205.948052 375.901743 
L 206.644855 373.342849 
L 207.341658 375.369133 
L 208.038462 376.263464 
L 208.735265 375.124267 
L 209.432068 375.889969 
L 210.128871 375.952472 
L 210.825674 377.905987 
L 211.522478 378.130926 
L 212.219281 378.51046 
L 212.916084 377.544875 
L 213.612887 376.817819 
L 214.30969 375.045762 
L 215.006494 376.293357 
L 215.703297 375.478739 
L 216.4001 376.460929 
L 217.096903 376.169561 
L 217.793706 374.307537 
L 218.490509 375.500779 
L 219.187313 375.608268 
L 219.884116 375.526741 
L 220.580919 375.888764 
L 221.277722 375.440697 
L 221.974525 376.1913 
L 222.671329 374.663519 
L 223.368132 375.008022 
L 224.064935 375.712437 
L 224.761738 375.269798 
L 225.458541 374.976924 
L 226.155345 375.933149 
L 226.852148 374.868827 
L 227.548951 374.542135 
L 228.245754 376.059355 
L 228.942557 375.448242 
L 229.639361 375.577165 
L 230.336164 375.168347 
L 231.032967 376.1913 
L 231.72977 375.192803 
L 232.426573 375.755614 
L 233.123377 374.896912 
L 233.82018 376.096796 
L 234.516983 376.243538 
L 235.213786 375.197337 
L 235.910589 375.734172 
L 236.607393 375.664123 
L 237.304196 374.640866 
L 238.000999 375.221485 
L 238.697802 373.461205 
L 239.394605 373.747132 
L 240.091409 375.610074 
L 240.788212 374.744434 
L 241.485015 372.9114 
L 242.181818 375.43375 
L 242.878621 375.375174 
L 243.575425 376.408694 
L 244.272228 374.313274 
L 244.969031 373.96273 
L 245.665834 375.341051 
L 246.362637 374.722692 
L 247.059441 374.987793 
L 247.756244 374.119731 
L 248.453047 373.636331 
L 249.14985 375.571132 
L 250.543457 375.286105 
L 251.24026 375.073239 
L 251.937063 375.684657 
L 252.633866 363.687313 
L 253.330669 375.731455 
L 254.027473 374.593465 
L 254.724276 375.356757 
L 255.421079 373.603116 
L 256.117882 374.570525 
L 256.814685 375.267691 
L 257.511489 375.174989 
L 258.208292 375.710326 
L 258.905095 375.865516 
L 259.601898 374.496548 
L 260.298701 374.743525 
L 260.995504 376.198552 
L 261.692308 375.341356 
L 262.389111 373.016758 
L 263.085914 375.6599 
L 263.782717 374.563575 
L 264.47952 374.06961 
L 265.176324 374.478732 
L 265.873127 375.324452 
L 266.56993 377.619447 
L 267.963536 378.239925 
L 268.66034 377.75804 
L 269.357143 375.062675 
L 270.053946 375.16412 
L 270.750749 373.5524 
L 271.447552 373.030353 
L 272.144356 377.229049 
L 272.841159 377.596202 
L 273.537962 376.146618 
L 274.234765 377.599523 
L 274.931568 373.734159 
L 275.628372 374.810554 
L 276.325175 374.26285 
L 277.021978 373.058429 
L 277.718781 377.96003 
L 278.415584 376.726329 
L 279.112388 377.932555 
L 279.809191 377.786118 
L 280.505994 373.823231 
L 281.202797 374.383621 
L 281.8996 374.619439 
L 282.596404 375.057841 
L 283.293207 378.056959 
L 283.99001 377.791553 
L 284.686813 378.444337 
L 285.383616 377.120657 
L 286.08042 372.533979 
L 286.777223 374.011034 
L 287.474026 374.102217 
L 288.170829 373.48416 
L 288.867632 374.946732 
L 289.564436 371.891467 
L 290.261239 374.569613 
L 292.351648 374.389962 
L 293.048452 373.647508 
L 293.745255 372.56296 
L 294.442058 374.118524 
L 295.138861 373.817799 
L 296.532468 373.545453 
L 297.229271 373.226308 
L 297.926074 361.640807 
L 298.622877 374.116709 
L 299.31968 373.892984 
L 300.016484 372.99201 
L 300.713287 373.625766 
L 301.41009 373.419848 
L 302.106893 371.239595 
L 302.803696 370.976306 
L 303.5005 373.615214 
L 304.197303 372.38936 
L 304.894106 373.368531 
L 306.287712 371.686155 
L 306.984515 371.135429 
L 307.681319 373.392385 
L 308.378122 373.671673 
L 309.074925 373.731758 
L 309.771728 373.151746 
L 310.468531 372.833807 
L 311.165335 373.024626 
L 311.862138 372.574147 
L 312.558941 373.46455 
L 313.255744 372.992022 
L 313.952547 356.85248 
L 314.649351 373.720886 
L 315.346154 373.078978 
L 316.042957 373.091362 
L 316.73976 371.755609 
L 317.436563 372.855548 
L 318.133367 373.575657 
L 318.83017 373.345286 
L 319.526973 373.274939 
L 320.920579 373.533388 
L 321.617383 372.569316 
L 322.314186 373.308147 
L 323.010989 373.332297 
L 323.707792 371.700047 
L 324.404595 371.105841 
L 325.101399 372.595281 
L 325.798202 373.290632 
L 326.495005 372.396609 
L 327.191808 372.100111 
L 327.888611 373.351019 
L 329.282218 371.823837 
L 329.979021 371.250162 
L 330.675824 372.722392 
L 331.372627 370.372442 
L 332.069431 371.986882 
L 332.766234 372.424989 
L 333.463037 376.98117 
L 334.15984 376.693431 
L 334.856643 377.430149 
L 335.553447 377.41595 
L 336.25025 372.879704 
L 337.643856 373.012854 
L 338.340659 373.738401 
L 339.037463 377.629724 
L 339.734266 377.726341 
L 340.431069 375.292756 
L 341.127872 376.870362 
L 341.824675 373.962736 
L 342.521479 373.464849 
L 343.218282 374.724821 
L 343.915085 372.890872 
L 344.611888 377.986608 
L 345.308691 377.222416 
L 346.005495 376.851037 
L 346.702298 377.591682 
L 347.399101 373.513159 
L 348.095904 374.07717 
L 348.792707 373.8785 
L 349.48951 373.819925 
L 350.186314 377.507742 
L 350.883117 376.665945 
L 351.57992 377.074161 
L 352.276723 377.238717 
L 352.973526 373.365807 
L 353.67033 371.265856 
L 354.367133 373.176193 
L 355.063936 372.896295 
L 355.760739 373.271904 
L 356.457542 371.816886 
L 357.154346 372.449137 
L 357.851149 372.322324 
L 358.547952 373.221179 
L 359.244755 372.931629 
L 359.941558 373.153549 
L 360.638362 373.090743 
L 361.335165 360.650767 
L 362.031968 372.788208 
L 362.728771 372.907167 
L 363.425574 372.270992 
L 364.122378 373.545157 
L 364.819181 372.806628 
L 365.515984 373.190682 
L 366.212787 371.914711 
L 366.90959 372.007407 
L 367.606394 371.706979 
L 368.303197 372.623652 
L 369 373.232954 
L 369.696803 372.987182 
L 370.393606 372.559642 
L 371.09041 371.714829 
L 371.787213 372.659883 
L 372.484016 372.074131 
L 373.180819 371.909582 
L 373.877622 371.918332 
L 374.574426 372.751974 
L 375.271229 372.93344 
L 375.968032 370.878176 
L 376.664835 372.226915 
L 377.361638 372.63905 
L 378.058442 370.690366 
L 378.755245 371.673164 
L 379.452048 368.539997 
L 380.148851 360.874501 
L 380.845654 372.666223 
L 381.542458 372.17105 
L 382.239261 369.748935 
L 382.936064 369.212403 
L 383.632867 372.230532 
L 384.32967 372.436755 
L 385.026474 372.260727 
L 385.723277 371.060242 
L 386.42008 373.027645 
L 387.116883 371.484153 
L 387.813686 372.332892 
L 389.207293 371.479923 
L 389.904096 372.225402 
L 390.600899 371.39659 
L 391.297702 371.88301 
L 391.994505 371.453354 
L 392.691309 371.306917 
L 393.388112 370.628772 
L 394.084915 371.596775 
L 394.781718 370.556912 
L 395.478521 371.322321 
L 396.175325 370.872738 
L 396.872128 371.726908 
L 397.568931 370.977812 
L 398.265734 370.948526 
L 398.962537 371.504384 
L 399.659341 370.74502 
L 400.356144 377.282193 
L 401.052947 377.383943 
L 401.74975 377.653271 
L 402.446553 377.213953 
L 403.143357 372.215134 
L 403.84016 371.744121 
L 404.536963 372.074134 
L 405.233766 370.936748 
L 405.930569 376.74294 
L 406.627373 376.629412 
L 407.324176 376.119745 
L 408.020979 372.287299 
L 408.717782 370.649003 
L 409.414585 371.100998 
L 410.111389 368.133897 
L 411.504995 375.810869 
L 412.201798 376.755322 
L 412.898601 376.385147 
L 413.595405 376.897529 
L 414.292208 371.259515 
L 414.989011 371.044838 
L 415.685814 372.085909 
L 416.382617 370.591035 
L 417.079421 374.970888 
L 417.776224 375.429828 
L 418.473027 376.504412 
L 419.16983 376.641184 
L 419.866633 372.291227 
L 420.563437 371.735664 
L 421.957043 372.321419 
L 423.350649 370.821711 
L 424.047453 370.978111 
L 425.441059 370.640245 
L 426.137862 370.932216 
L 426.834665 370.73294 
L 427.531469 370.886016 
L 428.228272 371.803602 
L 428.925075 371.574131 
L 429.621878 372.197025 
L 430.318681 371.265856 
L 431.015485 370.940969 
L 431.712288 370.977812 
L 432.409091 371.563262 
L 433.105894 368.935829 
L 433.802697 363.959651 
L 434.4995 368.737465 
L 435.196304 371.068696 
L 435.893107 371.53669 
L 436.58991 371.170443 
L 437.286713 370.66531 
L 437.983516 371.070203 
L 438.68032 370.96966 
L 439.377123 370.527626 
L 440.073926 370.588918 
L 440.770729 371.084698 
L 441.467532 371.421655 
L 442.164336 370.933122 
L 442.861139 370.25649 
L 443.557942 370.168628 
L 444.254745 371.511024 
L 444.951548 370.558122 
L 445.648352 370.314464 
L 446.345155 358.064099 
L 447.041958 370.719659 
L 447.738761 370.040605 
L 448.435564 371.00257 
L 449.132368 368.741686 
L 449.829171 371.221166 
L 451.222777 370.242604 
L 451.91958 370.707277 
L 452.616384 370.571102 
L 453.313187 370.99593 
L 454.00999 367.096449 
L 454.706793 368.279724 
L 455.403596 370.620321 
L 456.1004 370.241695 
L 456.797203 368.570186 
L 457.494006 370.196709 
L 458.190809 369.867001 
L 458.887612 369.748337 
L 460.281219 370.037287 
L 460.978022 369.534563 
L 461.674825 369.304491 
L 462.371628 370.256788 
L 463.068432 369.162885 
L 463.765235 368.708169 
L 464.462038 370.687051 
L 465.158841 370.471167 
L 465.855644 370.458785 
L 466.552448 369.824726 
L 467.249251 376.90236 
L 467.946054 375.684962 
L 468.642857 376.554832 
L 469.33966 376.565701 
L 470.036464 370.940673 
L 470.733267 371.135722 
L 471.43007 369.071098 
L 472.126873 370.100391 
L 472.823676 376.837444 
L 473.52048 376.451874 
L 474.914086 376.206707 
L 475.610889 369.277919 
L 476.307692 369.733537 
L 477.004496 369.318986 
L 477.701299 370.199427 
L 478.398102 376.795779 
L 479.791708 376.258942 
L 480.488511 376.492335 
L 481.185315 370.405345 
L 481.882118 371.096772 
L 482.578921 371.019178 
L 483.275724 370.551181 
L 483.972527 376.704288 
L 484.669331 376.396623 
L 485.366134 357.827358 
L 486.062937 375.163821 
L 486.75974 371.511932 
L 487.456543 370.659269 
L 488.153347 370.423759 
L 488.85015 370.527626 
L 489.546953 369.80691 
L 490.243756 370.904745 
L 490.940559 370.578952 
L 491.637363 371.160483 
L 492.334166 369.642056 
L 493.030969 370.077442 
L 493.727772 368.934322 
L 494.424575 370.588918 
L 495.121379 370.165911 
L 495.818182 370.017958 
L 496.514985 370.064767 
L 497.211788 369.603105 
L 497.908591 368.043922 
L 498.605395 369.207874 
L 499.302198 369.132086 
L 499.999001 369.756208 
L 500.695804 370.02976 
L 501.392607 369.367318 
L 502.089411 369.76436 
L 502.786214 370.783388 
L 503.483017 369.830792 
L 504.17982 369.097694 
L 504.876623 370.226923 
L 505.573427 370.309652 
L 506.27023 369.333201 
L 507.663836 368.902645 
L 508.360639 369.806937 
L 509.057443 369.2544 
L 509.754246 369.530058 
L 510.451049 369.200347 
L 511.147852 369.878193 
L 511.844655 369.448537 
L 512.541459 368.680417 
L 513.238262 369.082897 
L 513.935065 370.119134 
L 514.631868 369.523721 
L 515.328671 370.325351 
L 516.025475 369.539421 
L 516.722278 368.515566 
L 517.419081 369.30572 
L 518.115884 367.21725 
L 518.812687 366.817185 
L 519.509491 369.142378 
L 520.206294 368.378186 
L 520.903097 368.600106 
L 521.5999 368.223896 
L 522.296703 368.609472 
L 522.993506 368.615809 
L 523.69031 368.91653 
L 525.083916 367.623652 
L 525.780719 367.800888 
L 526.477522 364.974798 
L 527.174326 367.912907 
L 527.871129 368.591049 
L 528.567932 368.224198 
L 529.264735 367.267369 
L 529.961538 367.121536 
L 531.355145 368.305719 
L 532.051948 367.302395 
L 532.748751 368.163207 
L 533.445554 365.778835 
L 534.142358 366.931622 
L 534.839161 368.605541 
L 535.535964 368.552397 
L 536.232767 366.65837 
L 536.92957 369.28429 
L 537.626374 366.714829 
L 538.323177 368.040018 
L 539.01998 365.174663 
L 539.716783 366.971472 
L 540.413586 355.460545 
L 541.11039 366.0222 
L 541.807193 367.513751 
L 542.503996 368.293941 
L 543.200799 368.906869 
L 543.897602 368.465142 
L 544.594406 369.074748 
L 545.291209 367.822023 
L 545.988012 368.591957 
L 546.684815 367.92287 
L 548.078422 367.369726 
L 548.775225 365.501374 
L 549.472028 366.678305 
L 550.168831 366.754691 
L 550.865634 366.464531 
L 551.562438 368.029451 
L 552.956044 368.159285 
L 553.652847 367.503482 
L 554.34965 368.515862 
L 555.046454 367.754387 
L 555.743257 367.259824 
L 556.44006 368.764052 
L 557.136863 369.217861 
L 557.833666 369.255897 
L 558.53047 368.033973 
L 559.227273 369.147813 
L 559.924076 368.533675 
L 560.620879 368.926793 
L 561.317682 367.960604 
L 562.014486 368.0844 
L 562.711289 368.673772 
L 563.408092 357.621183 
L 564.104895 367.277634 
L 564.801698 367.517965 
L 565.498501 368.479628 
L 566.195305 368.177394 
L 566.892108 368.25801 
L 567.588911 367.273105 
L 568.285714 367.659883 
L 568.982517 366.459096 
L 569.679321 366.150513 
L 570.376124 368.24292 
L 571.76973 368.847988 
L 572.466533 366.907764 
L 573.163337 367.356438 
L 573.86014 368.457588 
L 574.556943 368.35614 
L 575.253746 367.591942 
L 575.950549 367.408073 
L 576.647353 368.038804 
L 578.040959 368.364597 
L 578.737762 367.940073 
L 579.434565 367.384514 
L 580.131369 368.112479 
L 580.828172 367.379079 
L 581.524975 364.293024 
L 582.221778 368.031259 
L 582.918581 367.235359 
L 584.312188 367.721172 
L 585.008991 367.529743 
L 585.705794 367.905051 
L 586.402597 366.725094 
L 587.099401 364.79393 
L 587.796204 360.178857 
L 588.493007 365.187039 
L 589.18981 364.498034 
L 589.886613 366.303898 
L 590.583417 364.995317 
L 591.28022 366.319597 
L 591.977023 358.659841 
L 592.673826 365.22871 
L 593.370629 367.368814 
L 594.067433 366.658967 
L 594.764236 362.238653 
L 595.461039 366.411689 
L 596.854645 367.117907 
L 597.551449 366.529746 
L 598.248252 353.730207 
L 598.945055 365.755285 
L 599.641858 366.444595 
L 600.338661 366.315672 
L 601.035465 366.884514 
L 601.732268 367.800285 
L 602.429071 367.85976 
L 603.125874 366.359454 
L 603.822677 368.218154 
L 604.519481 368.317494 
L 605.216284 366.848582 
L 605.913087 366.414708 
L 606.60989 366.59013 
L 607.306693 367.598584 
L 608.003497 366.487471 
L 608.7003 363.452132 
L 609.397103 355.886267 
L 610.093906 366.681008 
L 610.790709 366.496233 
L 611.487512 364.783659 
L 612.184316 366.966038 
L 612.881119 366.53095 
L 613.577922 367.045748 
L 614.274725 365.833488 
L 614.971528 366.697619 
L 615.668332 366.451847 
L 616.365135 364.515243 
L 617.061938 365.940368 
L 617.758741 365.853409 
L 618.455544 367.00257 
L 619.152348 366.188854 
L 619.849151 366.447919 
L 620.545954 367.288503 
L 621.242757 366.543933 
L 621.93956 355.584939 
L 622.636364 366.310235 
L 622.636364 366.310235 
" clip-path="url(#pc34d906667)" style="fill: none; stroke: #1f77b4; stroke-width: 1.5; stroke-linecap: square"/>
   </g>
   <g id="patch_3">
    <path d="M 90 384.48 
L 90 51.84 
" style="fill: none; stroke: #000000; stroke-width: 0.8; stroke-linejoin: miter; stroke-linecap: square"/>
   </g>
   <g id="patch_4">
    <path d="M 648 384.48 
L 648 51.84 
" style="fill: none; stroke: #000000; stroke-width: 0.8; stroke-linejoin: miter; stroke-linecap: square"/>
   </g>
   <g id="patch_5">
    <path d="M 90 384.48 
L 648 384.48 
" style="fill: none; stroke: #000000; stroke-width: 0.8; stroke-linejoin: miter; stroke-linecap: square"/>
   </g>
   <g id="patch_6">
    <path d="M 90 51.84 
L 648 51.84 
" style="fill: none; stroke: #000000; stroke-width: 0.8; stroke-linejoin: miter; stroke-linecap: square"/>
   </g>
   <g id="text_19">
    <!-- Average time per index -->
    <g transform="translate(298.700625 45.84) scale(0.12 -0.12)">
     <defs>
      <path id="DejaVuSans-70" d="M 1159 525 
L 1159 -1331 
L 581 -1331 
L 581 3500 
L 1159 3500 
L 1159 2969 
Q 1341 3281 1617 3432 
Q 1894 3584 2278 3584 
Q 2916 3584 3314 3078 
Q 3713 2572 3713 1747 
Q 3713 922 3314 415 
Q 2916 -91 2278 -91 
Q 1894 -91 1617 61 
Q 1341 213 1159 525 
z
M 3116 1747 
Q 3116 2381 2855 2742 
Q 2594 3103 2138 3103 
Q 1681 3103 1420 2742 
Q 1159 2381 1159 1747 
Q 1159 1113 1420 752 
Q 1681 391 2138 391 
Q 2594 391 2855 752 
Q 3116 1113 3116 1747 
z
" transform="scale(0.015625)"/>
     </defs>
     <use xlink:href="#DejaVuSans-41"/>
     <use xlink:href="#DejaVuSans-76" transform="translate(62.533203 0)"/>
     <use xlink:href="#DejaVuSans-65" transform="translate(121.712891 0)"/>
     <use xlink:href="#DejaVuSans-72" transform="translate(183.236328 0)"/>
     <use xlink:href="#DejaVuSans-61" transform="translate(224.349609 0)"/>
     <use xlink:href="#DejaVuSans-67" transform="translate(285.628906 0)"/>
     <use xlink:href="#DejaVuSans-65" transform="translate(349.105469 0)"/>
     <use xlink:href="#DejaVuSans-20" transform="translate(410.628906 0)"/>
     <use xlink:href="#DejaVuSans-74" transform="translate(442.416016 0)"/>
     <use xlink:href="#DejaVuSans-69" transform="translate(481.625 0)"/>
     <use xlink:href="#DejaVuSans-6d" transform="translate(509.408203 0)"/>
     <use xlink:href="#DejaVuSans-65" transform="translate(606.820312 0)"/>
     <use xlink:href="#DejaVuSans-20" transform="translate(668.34375 0)"/>
     <use xlink:href="#DejaVuSans-70" transform="translate(700.130859 0)"/>
     <use xlink:href="#DejaVuSans-65" transform="translate(763.607422 0)"/>
     <use xlink:href="#DejaVuSans-72" transform="translate(825.130859 0)"/>
     <use xlink:href="#DejaVuSans-20" transform="translate(866.244141 0)"/>
     <use xlink:href="#DejaVuSans-69" transform="translate(898.03125 0)"/>
     <use xlink:href="#DejaVuSans-6e" transform="translate(925.814453 0)"/>
     <use xlink:href="#DejaVuSans-64" transform="translate(989.193359 0)"/>
     <use xlink:href="#DejaVuSans-65" transform="translate(1052.669922 0)"/>
     <use xlink:href="#DejaVuSans-78" transform="translate(1112.443359 0)"/>
    </g>
   </g>
   <g id="legend_1">
    <g id="patch_7">
     <path d="M 544.020313 74.518125 
L 641 74.518125 
Q 643 74.518125 643 72.518125 
L 643 58.84 
Q 643 56.84 641 56.84 
L 544.020313 56.84 
Q 542.020313 56.84 542.020313 58.84 
L 542.020313 72.518125 
Q 542.020313 74.518125 544.020313 74.518125 
z
" style="fill: #ffffff; opacity: 0.8; stroke: #cccccc; stroke-linejoin: miter"/>
    </g>
    <g id="line2d_18">
     <path d="M 546.020313 64.938438 
L 556.020313 64.938438 
L 566.020313 64.938438 
" style="fill: none; stroke: #1f77b4; stroke-width: 1.5; stroke-linecap: square"/>
    </g>
    <g id="text_20">
     <!-- handleResult -->
     <g transform="translate(574.020313 68.438438) scale(0.1 -0.1)">
      <defs>
       <path id="DejaVuSans-68" d="M 3513 2113 
L 3513 0 
L 2938 0 
L 2938 2094 
Q 2938 2591 2744 2837 
Q 2550 3084 2163 3084 
Q 1697 3084 1428 2787 
Q 1159 2491 1159 1978 
L 1159 0 
L 581 0 
L 581 4863 
L 1159 4863 
L 1159 2956 
Q 1366 3272 1645 3428 
Q 1925 3584 2291 3584 
Q 2894 3584 3203 3211 
Q 3513 2838 3513 2113 
z
" transform="scale(0.015625)"/>
       <path id="DejaVuSans-6c" d="M 603 4863 
L 1178 4863 
L 1178 0 
L 603 0 
L 603 4863 
z
" transform="scale(0.015625)"/>
       <path id="DejaVuSans-52" d="M 2841 2188 
Q 3044 2119 3236 1894 
Q 3428 1669 3622 1275 
L 4263 0 
L 3584 0 
L 2988 1197 
Q 2756 1666 2539 1819 
Q 2322 1972 1947 1972 
L 1259 1972 
L 1259 0 
L 628 0 
L 628 4666 
L 2053 4666 
Q 2853 4666 3247 4331 
Q 3641 3997 3641 3322 
Q 3641 2881 3436 2590 
Q 3231 2300 2841 2188 
z
M 1259 4147 
L 1259 2491 
L 2053 2491 
Q 2509 2491 2742 2702 
Q 2975 2913 2975 3322 
Q 2975 3731 2742 3939 
Q 2509 4147 2053 4147 
L 1259 4147 
z
" transform="scale(0.015625)"/>
       <path id="DejaVuSans-75" d="M 544 1381 
L 544 3500 
L 1119 3500 
L 1119 1403 
Q 1119 906 1312 657 
Q 1506 409 1894 409 
Q 2359 409 2629 706 
Q 2900 1003 2900 1516 
L 2900 3500 
L 3475 3500 
L 3475 0 
L 2900 0 
L 2900 538 
Q 2691 219 2414 64 
Q 2138 -91 1772 -91 
Q 1169 -91 856 284 
Q 544 659 544 1381 
z
M 1991 3584 
L 1991 3584 
z
" transform="scale(0.015625)"/>
      </defs>
      <use xlink:href="#DejaVuSans-68"/>
      <use xlink:href="#DejaVuSans-61" transform="translate(63.378906 0)"/>
      <use xlink:href="#DejaVuSans-6e" transform="translate(124.658203 0)"/>
      <use xlink:href="#DejaVuSans-64" transform="translate(188.037109 0)"/>
      <use xlink:href="#DejaVuSans-6c" transform="translate(251.513672 0)"/>
      <use xlink:href="#DejaVuSans-65" transform="translate(279.296875 0)"/>
      <use xlink:href="#DejaVuSans-52" transform="translate(340.820312 0)"/>
      <use xlink:href="#DejaVuSans-65" transform="translate(405.802734 0)"/>
      <use xlink:href="#DejaVuSans-73" transform="translate(467.326172 0)"/>
      <use xlink:href="#DejaVuSans-75" transform="translate(519.425781 0)"/>
      <use xlink:href="#DejaVuSans-6c" transform="translate(582.804688 0)"/>
      <use xlink:href="#DejaVuSans-74" transform="translate(610.587891 0)"/>
     </g>
    </g>
   </g>
  </g>
 </g>
 <defs>
  <clipPath id="pc34d906667">
   <rect x="90" y="51.84" width="558" height="332.64"/>
  </clipPath>
 </defs>
</svg>
