<?xml version="1.0" encoding="utf-8" standalone="no"?>
<!DOCTYPE svg PUBLIC "-//W3C//DTD SVG 1.1//EN"
  "http://www.w3.org/Graphics/SVG/1.1/DTD/svg11.dtd">
<svg xmlns:xlink="http://www.w3.org/1999/xlink" width="576pt" height="432pt" viewBox="0 0 576 432" xmlns="http://www.w3.org/2000/svg" version="1.1">
 <metadata>
  <rdf:RDF xmlns:dc="http://purl.org/dc/elements/1.1/" xmlns:cc="http://creativecommons.org/ns#" xmlns:rdf="http://www.w3.org/1999/02/22-rdf-syntax-ns#">
   <cc:Work>
    <dc:type rdf:resource="http://purl.org/dc/dcmitype/StillImage"/>
    <dc:date>2025-06-10T01:38:28.109336</dc:date>
    <dc:format>image/svg+xml</dc:format>
    <dc:creator>
     <cc:Agent>
      <dc:title>Matplotlib v3.10.3, https://matplotlib.org/</dc:title>
     </cc:Agent>
    </dc:creator>
   </cc:Work>
  </rdf:RDF>
 </metadata>
 <defs>
  <style type="text/css">*{stroke-linejoin: round; stroke-linecap: butt}</style>
 </defs>
 <g id="figure_1">
  <g id="patch_1">
   <path d="M 0 432 
L 576 432 
L 576 0 
L 0 0 
z
" style="fill: #ffffff"/>
  </g>
  <g id="axes_1">
   <g id="patch_2">
    <path d="M 72 384.48 
L 518.4 384.48 
L 518.4 51.84 
L 72 51.84 
z
" style="fill: #ffffff"/>
   </g>
   <g id="FillBetweenPolyCollection_1">
    <path d="M 303.639722 353.773907 
L 286.760278 353.773907 
L 269.025272 350.8693 
L 238.812706 347.964693 
L 206.641836 345.060086 
L 186.436352 342.155478 
L 183.6 339.250871 
L 195.418358 336.346264 
L 215.283592 333.441657 
L 236.565642 330.53705 
L 254.720319 327.632443 
L 267.761132 324.727836 
L 276.002047 321.823229 
L 281.096127 318.918622 
L 284.2613 316.014015 
L 286.196297 313.109408 
L 287.788471 310.2048 
L 289.282034 307.300193 
L 290.554604 304.395586 
L 291.702628 301.490979 
L 292.621342 298.586372 
L 293.149742 295.681765 
L 293.310563 292.777158 
L 293.392684 289.872551 
L 293.675815 286.967944 
L 294.017037 284.063337 
L 294.230646 281.15873 
L 294.298891 278.254122 
L 294.236098 275.349515 
L 294.281853 272.444908 
L 294.522069 269.540301 
L 294.715905 266.635694 
L 294.796118 263.731087 
L 294.792607 260.82648 
L 294.67036 257.921873 
L 294.574688 255.017266 
L 294.676123 252.112659 
L 294.872081 249.208052 
L 294.995232 246.303445 
L 295.042165 243.398837 
L 295.035187 240.49423 
L 294.985618 237.589623 
L 294.987623 234.685016 
L 295.073091 231.780409 
L 295.156825 228.875802 
L 295.191855 225.971195 
L 295.199165 223.066588 
L 295.199952 220.161981 
L 295.199936 217.257374 
L 295.1988 214.352767 
L 295.187554 211.448159 
L 295.130493 208.543552 
L 294.990662 205.638945 
L 294.858988 202.734338 
L 294.890287 199.829731 
L 294.999352 196.925124 
L 295.008998 194.020517 
L 294.972546 191.11591 
L 295.008959 188.211303 
L 295.068046 185.306696 
L 295.074628 182.402089 
L 295.084737 179.497482 
L 295.136722 176.592874 
L 295.181465 173.688267 
L 295.19715 170.78366 
L 295.19977 167.879053 
L 295.19999 164.974446 
L 295.2 162.069839 
L 295.2 159.165232 
L 295.2 156.260625 
L 295.2 153.356018 
L 295.2 150.451411 
L 295.2 147.546804 
L 295.2 144.642196 
L 295.2 141.737589 
L 295.2 138.832982 
L 295.2 135.928375 
L 295.2 133.023768 
L 295.2 130.119161 
L 295.2 127.214554 
L 295.2 124.309947 
L 295.2 121.40534 
L 295.2 118.500733 
L 295.2 115.596126 
L 295.2 112.691518 
L 295.2 109.786911 
L 295.2 106.882304 
L 295.2 103.977697 
L 295.2 101.07309 
L 295.2 98.168483 
L 295.2 95.263876 
L 295.2 92.359269 
L 295.2 89.454662 
L 295.199999 86.550055 
L 295.199976 83.645448 
L 295.199508 80.740841 
L 295.194513 77.836233 
L 295.166891 74.931626 
L 295.090243 72.027019 
L 294.997023 69.122412 
L 294.988401 66.217805 
L 295.411599 66.217805 
L 295.411599 66.217805 
L 295.402977 69.122412 
L 295.309757 72.027019 
L 295.233109 74.931626 
L 295.205487 77.836233 
L 295.200492 80.740841 
L 295.200024 83.645448 
L 295.200001 86.550055 
L 295.2 89.454662 
L 295.2 92.359269 
L 295.2 95.263876 
L 295.2 98.168483 
L 295.2 101.07309 
L 295.2 103.977697 
L 295.2 106.882304 
L 295.2 109.786911 
L 295.2 112.691518 
L 295.2 115.596126 
L 295.2 118.500733 
L 295.2 121.40534 
L 295.2 124.309947 
L 295.2 127.214554 
L 295.2 130.119161 
L 295.2 133.023768 
L 295.2 135.928375 
L 295.2 138.832982 
L 295.2 141.737589 
L 295.2 144.642196 
L 295.2 147.546804 
L 295.2 150.451411 
L 295.2 153.356018 
L 295.2 156.260625 
L 295.2 159.165232 
L 295.2 162.069839 
L 295.20001 164.974446 
L 295.20023 167.879053 
L 295.20285 170.78366 
L 295.218535 173.688267 
L 295.263278 176.592874 
L 295.315263 179.497482 
L 295.325372 182.402089 
L 295.331954 185.306696 
L 295.391041 188.211303 
L 295.427454 191.11591 
L 295.391002 194.020517 
L 295.400648 196.925124 
L 295.509713 199.829731 
L 295.541012 202.734338 
L 295.409338 205.638945 
L 295.269507 208.543552 
L 295.212446 211.448159 
L 295.2012 214.352767 
L 295.200064 217.257374 
L 295.200048 220.161981 
L 295.200835 223.066588 
L 295.208145 225.971195 
L 295.243175 228.875802 
L 295.326909 231.780409 
L 295.412377 234.685016 
L 295.414382 237.589623 
L 295.364813 240.49423 
L 295.357835 243.398837 
L 295.404768 246.303445 
L 295.527919 249.208052 
L 295.723877 252.112659 
L 295.825312 255.017266 
L 295.72964 257.921873 
L 295.607393 260.82648 
L 295.603882 263.731087 
L 295.684095 266.635694 
L 295.877931 269.540301 
L 296.118147 272.444908 
L 296.163902 275.349515 
L 296.101109 278.254122 
L 296.169354 281.15873 
L 296.382963 284.063337 
L 296.724185 286.967944 
L 297.007316 289.872551 
L 297.089437 292.777158 
L 297.250258 295.681765 
L 297.778658 298.586372 
L 298.697372 301.490979 
L 299.845396 304.395586 
L 301.117966 307.300193 
L 302.611529 310.2048 
L 304.203703 313.109408 
L 306.1387 316.014015 
L 309.303873 318.918622 
L 314.397953 321.823229 
L 322.638868 324.727836 
L 335.679681 327.632443 
L 353.834358 330.53705 
L 375.116408 333.441657 
L 394.981642 336.346264 
L 406.8 339.250871 
L 403.963648 342.155478 
L 383.758164 345.060086 
L 351.587294 347.964693 
L 321.374728 350.8693 
L 303.639722 353.773907 
z
" clip-path="url(#p610854f5a6)" style="fill: #1f77b4; fill-opacity: 0.3"/>
   </g>
   <g id="matplotlib.axis_1">
    <g id="xtick_1">
     <g id="line2d_1">
      <defs>
       <path id="m58eadad04e" d="M 0 0 
L 0 3.5 
" style="stroke: #000000; stroke-width: 0.8"/>
      </defs>
      <g>
       <use xlink:href="#m58eadad04e" x="295.2" y="384.48" style="stroke: #000000; stroke-width: 0.8"/>
      </g>
     </g>
     <g id="text_1">
      <!-- 1 -->
      <g transform="translate(292.01875 399.078438) scale(0.1 -0.1)">
       <defs>
        <path id="DejaVuSans-31" d="M 794 531 
L 1825 531 
L 1825 4091 
L 703 3866 
L 703 4441 
L 1819 4666 
L 2450 4666 
L 2450 531 
L 3481 531 
L 3481 0 
L 794 0 
L 794 531 
z
" transform="scale(0.015625)"/>
       </defs>
       <use xlink:href="#DejaVuSans-31"/>
      </g>
     </g>
    </g>
   </g>
   <g id="matplotlib.axis_2">
    <g id="ytick_1">
     <g id="line2d_2">
      <defs>
       <path id="m42a7700243" d="M 0 0 
L -3.5 0 
" style="stroke: #000000; stroke-width: 0.8"/>
      </defs>
      <g>
       <use xlink:href="#m42a7700243" x="72" y="384.48" style="stroke: #000000; stroke-width: 0.8"/>
      </g>
     </g>
     <g id="text_2">
      <!-- 0.0 -->
      <g transform="translate(49.096875 388.279219) scale(0.1 -0.1)">
       <defs>
        <path id="DejaVuSans-30" d="M 2034 4250 
Q 1547 4250 1301 3770 
Q 1056 3291 1056 2328 
Q 1056 1369 1301 889 
Q 1547 409 2034 409 
Q 2525 409 2770 889 
Q 3016 1369 3016 2328 
Q 3016 3291 2770 3770 
Q 2525 4250 2034 4250 
z
M 2034 4750 
Q 2819 4750 3233 4129 
Q 3647 3509 3647 2328 
Q 3647 1150 3233 529 
Q 2819 -91 2034 -91 
Q 1250 -91 836 529 
Q 422 1150 422 2328 
Q 422 3509 836 4129 
Q 1250 4750 2034 4750 
z
" transform="scale(0.015625)"/>
        <path id="DejaVuSans-2e" d="M 684 794 
L 1344 794 
L 1344 0 
L 684 0 
L 684 794 
z
" transform="scale(0.015625)"/>
       </defs>
       <use xlink:href="#DejaVuSans-30"/>
       <use xlink:href="#DejaVuSans-2e" transform="translate(63.623047 0)"/>
       <use xlink:href="#DejaVuSans-30" transform="translate(95.410156 0)"/>
      </g>
     </g>
    </g>
    <g id="ytick_2">
     <g id="line2d_3">
      <g>
       <use xlink:href="#m42a7700243" x="72" y="338.30484" style="stroke: #000000; stroke-width: 0.8"/>
      </g>
     </g>
     <g id="text_3">
      <!-- 2.5 -->
      <g transform="translate(49.096875 342.104059) scale(0.1 -0.1)">
       <defs>
        <path id="DejaVuSans-32" d="M 1228 531 
L 3431 531 
L 3431 0 
L 469 0 
L 469 531 
Q 828 903 1448 1529 
Q 2069 2156 2228 2338 
Q 2531 2678 2651 2914 
Q 2772 3150 2772 3378 
Q 2772 3750 2511 3984 
Q 2250 4219 1831 4219 
Q 1534 4219 1204 4116 
Q 875 4013 500 3803 
L 500 4441 
Q 881 4594 1212 4672 
Q 1544 4750 1819 4750 
Q 2544 4750 2975 4387 
Q 3406 4025 3406 3419 
Q 3406 3131 3298 2873 
Q 3191 2616 2906 2266 
Q 2828 2175 2409 1742 
Q 1991 1309 1228 531 
z
" transform="scale(0.015625)"/>
        <path id="DejaVuSans-35" d="M 691 4666 
L 3169 4666 
L 3169 4134 
L 1269 4134 
L 1269 2991 
Q 1406 3038 1543 3061 
Q 1681 3084 1819 3084 
Q 2600 3084 3056 2656 
Q 3513 2228 3513 1497 
Q 3513 744 3044 326 
Q 2575 -91 1722 -91 
Q 1428 -91 1123 -41 
Q 819 9 494 109 
L 494 744 
Q 775 591 1075 516 
Q 1375 441 1709 441 
Q 2250 441 2565 725 
Q 2881 1009 2881 1497 
Q 2881 1984 2565 2268 
Q 2250 2553 1709 2553 
Q 1456 2553 1204 2497 
Q 953 2441 691 2322 
L 691 4666 
z
" transform="scale(0.015625)"/>
       </defs>
       <use xlink:href="#DejaVuSans-32"/>
       <use xlink:href="#DejaVuSans-2e" transform="translate(63.623047 0)"/>
       <use xlink:href="#DejaVuSans-35" transform="translate(95.410156 0)"/>
      </g>
     </g>
    </g>
    <g id="ytick_3">
     <g id="line2d_4">
      <g>
       <use xlink:href="#m42a7700243" x="72" y="292.129681" style="stroke: #000000; stroke-width: 0.8"/>
      </g>
     </g>
     <g id="text_4">
      <!-- 5.0 -->
      <g transform="translate(49.096875 295.9289) scale(0.1 -0.1)">
       <use xlink:href="#DejaVuSans-35"/>
       <use xlink:href="#DejaVuSans-2e" transform="translate(63.623047 0)"/>
       <use xlink:href="#DejaVuSans-30" transform="translate(95.410156 0)"/>
      </g>
     </g>
    </g>
    <g id="ytick_4">
     <g id="line2d_5">
      <g>
       <use xlink:href="#m42a7700243" x="72" y="245.954521" style="stroke: #000000; stroke-width: 0.8"/>
      </g>
     </g>
     <g id="text_5">
      <!-- 7.5 -->
      <g transform="translate(49.096875 249.75374) scale(0.1 -0.1)">
       <defs>
        <path id="DejaVuSans-37" d="M 525 4666 
L 3525 4666 
L 3525 4397 
L 1831 0 
L 1172 0 
L 2766 4134 
L 525 4134 
L 525 4666 
z
" transform="scale(0.015625)"/>
       </defs>
       <use xlink:href="#DejaVuSans-37"/>
       <use xlink:href="#DejaVuSans-2e" transform="translate(63.623047 0)"/>
       <use xlink:href="#DejaVuSans-35" transform="translate(95.410156 0)"/>
      </g>
     </g>
    </g>
    <g id="ytick_5">
     <g id="line2d_6">
      <g>
       <use xlink:href="#m42a7700243" x="72" y="199.779362" style="stroke: #000000; stroke-width: 0.8"/>
      </g>
     </g>
     <g id="text_6">
      <!-- 10.0 -->
      <g transform="translate(42.734375 203.578581) scale(0.1 -0.1)">
       <use xlink:href="#DejaVuSans-31"/>
       <use xlink:href="#DejaVuSans-30" transform="translate(63.623047 0)"/>
       <use xlink:href="#DejaVuSans-2e" transform="translate(127.246094 0)"/>
       <use xlink:href="#DejaVuSans-30" transform="translate(159.033203 0)"/>
      </g>
     </g>
    </g>
    <g id="ytick_6">
     <g id="line2d_7">
      <g>
       <use xlink:href="#m42a7700243" x="72" y="153.604202" style="stroke: #000000; stroke-width: 0.8"/>
      </g>
     </g>
     <g id="text_7">
      <!-- 12.5 -->
      <g transform="translate(42.734375 157.403421) scale(0.1 -0.1)">
       <use xlink:href="#DejaVuSans-31"/>
       <use xlink:href="#DejaVuSans-32" transform="translate(63.623047 0)"/>
       <use xlink:href="#DejaVuSans-2e" transform="translate(127.246094 0)"/>
       <use xlink:href="#DejaVuSans-35" transform="translate(159.033203 0)"/>
      </g>
     </g>
    </g>
    <g id="ytick_7">
     <g id="line2d_8">
      <g>
       <use xlink:href="#m42a7700243" x="72" y="107.429043" style="stroke: #000000; stroke-width: 0.8"/>
      </g>
     </g>
     <g id="text_8">
      <!-- 15.0 -->
      <g transform="translate(42.734375 111.228261) scale(0.1 -0.1)">
       <use xlink:href="#DejaVuSans-31"/>
       <use xlink:href="#DejaVuSans-35" transform="translate(63.623047 0)"/>
       <use xlink:href="#DejaVuSans-2e" transform="translate(127.246094 0)"/>
       <use xlink:href="#DejaVuSans-30" transform="translate(159.033203 0)"/>
      </g>
     </g>
    </g>
    <g id="ytick_8">
     <g id="line2d_9">
      <g>
       <use xlink:href="#m42a7700243" x="72" y="61.253883" style="stroke: #000000; stroke-width: 0.8"/>
      </g>
     </g>
     <g id="text_9">
      <!-- 17.5 -->
      <g transform="translate(42.734375 65.053102) scale(0.1 -0.1)">
       <use xlink:href="#DejaVuSans-31"/>
       <use xlink:href="#DejaVuSans-37" transform="translate(63.623047 0)"/>
       <use xlink:href="#DejaVuSans-2e" transform="translate(127.246094 0)"/>
       <use xlink:href="#DejaVuSans-35" transform="translate(159.033203 0)"/>
      </g>
     </g>
    </g>
    <g id="text_10">
     <!-- Time (ms) -->
     <g transform="translate(36.654687 243.359219) rotate(-90) scale(0.1 -0.1)">
      <defs>
       <path id="DejaVuSans-54" d="M -19 4666 
L 3928 4666 
L 3928 4134 
L 2272 4134 
L 2272 0 
L 1638 0 
L 1638 4134 
L -19 4134 
L -19 4666 
z
" transform="scale(0.015625)"/>
       <path id="DejaVuSans-69" d="M 603 3500 
L 1178 3500 
L 1178 0 
L 603 0 
L 603 3500 
z
M 603 4863 
L 1178 4863 
L 1178 4134 
L 603 4134 
L 603 4863 
z
" transform="scale(0.015625)"/>
       <path id="DejaVuSans-6d" d="M 3328 2828 
Q 3544 3216 3844 3400 
Q 4144 3584 4550 3584 
Q 5097 3584 5394 3201 
Q 5691 2819 5691 2113 
L 5691 0 
L 5113 0 
L 5113 2094 
Q 5113 2597 4934 2840 
Q 4756 3084 4391 3084 
Q 3944 3084 3684 2787 
Q 3425 2491 3425 1978 
L 3425 0 
L 2847 0 
L 2847 2094 
Q 2847 2600 2669 2842 
Q 2491 3084 2119 3084 
Q 1678 3084 1418 2786 
Q 1159 2488 1159 1978 
L 1159 0 
L 581 0 
L 581 3500 
L 1159 3500 
L 1159 2956 
Q 1356 3278 1631 3431 
Q 1906 3584 2284 3584 
Q 2666 3584 2933 3390 
Q 3200 3197 3328 2828 
z
" transform="scale(0.015625)"/>
       <path id="DejaVuSans-65" d="M 3597 1894 
L 3597 1613 
L 953 1613 
Q 991 1019 1311 708 
Q 1631 397 2203 397 
Q 2534 397 2845 478 
Q 3156 559 3463 722 
L 3463 178 
Q 3153 47 2828 -22 
Q 2503 -91 2169 -91 
Q 1331 -91 842 396 
Q 353 884 353 1716 
Q 353 2575 817 3079 
Q 1281 3584 2069 3584 
Q 2775 3584 3186 3129 
Q 3597 2675 3597 1894 
z
M 3022 2063 
Q 3016 2534 2758 2815 
Q 2500 3097 2075 3097 
Q 1594 3097 1305 2825 
Q 1016 2553 972 2059 
L 3022 2063 
z
" transform="scale(0.015625)"/>
       <path id="DejaVuSans-20" transform="scale(0.015625)"/>
       <path id="DejaVuSans-28" d="M 1984 4856 
Q 1566 4138 1362 3434 
Q 1159 2731 1159 2009 
Q 1159 1288 1364 580 
Q 1569 -128 1984 -844 
L 1484 -844 
Q 1016 -109 783 600 
Q 550 1309 550 2009 
Q 550 2706 781 3412 
Q 1013 4119 1484 4856 
L 1984 4856 
z
" transform="scale(0.015625)"/>
       <path id="DejaVuSans-73" d="M 2834 3397 
L 2834 2853 
Q 2591 2978 2328 3040 
Q 2066 3103 1784 3103 
Q 1356 3103 1142 2972 
Q 928 2841 928 2578 
Q 928 2378 1081 2264 
Q 1234 2150 1697 2047 
L 1894 2003 
Q 2506 1872 2764 1633 
Q 3022 1394 3022 966 
Q 3022 478 2636 193 
Q 2250 -91 1575 -91 
Q 1294 -91 989 -36 
Q 684 19 347 128 
L 347 722 
Q 666 556 975 473 
Q 1284 391 1588 391 
Q 1994 391 2212 530 
Q 2431 669 2431 922 
Q 2431 1156 2273 1281 
Q 2116 1406 1581 1522 
L 1381 1569 
Q 847 1681 609 1914 
Q 372 2147 372 2553 
Q 372 3047 722 3315 
Q 1072 3584 1716 3584 
Q 2034 3584 2315 3537 
Q 2597 3491 2834 3397 
z
" transform="scale(0.015625)"/>
       <path id="DejaVuSans-29" d="M 513 4856 
L 1013 4856 
Q 1481 4119 1714 3412 
Q 1947 2706 1947 2009 
Q 1947 1309 1714 600 
Q 1481 -109 1013 -844 
L 513 -844 
Q 928 -128 1133 580 
Q 1338 1288 1338 2009 
Q 1338 2731 1133 3434 
Q 928 4138 513 4856 
z
" transform="scale(0.015625)"/>
      </defs>
      <use xlink:href="#DejaVuSans-54"/>
      <use xlink:href="#DejaVuSans-69" transform="translate(57.958984 0)"/>
      <use xlink:href="#DejaVuSans-6d" transform="translate(85.742188 0)"/>
      <use xlink:href="#DejaVuSans-65" transform="translate(183.154297 0)"/>
      <use xlink:href="#DejaVuSans-20" transform="translate(244.677734 0)"/>
      <use xlink:href="#DejaVuSans-28" transform="translate(276.464844 0)"/>
      <use xlink:href="#DejaVuSans-6d" transform="translate(315.478516 0)"/>
      <use xlink:href="#DejaVuSans-73" transform="translate(412.890625 0)"/>
      <use xlink:href="#DejaVuSans-29" transform="translate(464.990234 0)"/>
     </g>
    </g>
   </g>
   <g id="LineCollection_1">
    <path d="M 239.4 334.465513 
L 351 334.465513 
" clip-path="url(#p610854f5a6)" style="fill: none; stroke: #1f77b4; stroke-width: 1.5"/>
   </g>
   <g id="LineCollection_2">
    <path d="M 239.4 66.217805 
L 351 66.217805 
" clip-path="url(#p610854f5a6)" style="fill: none; stroke: #1f77b4; stroke-width: 1.5"/>
   </g>
   <g id="LineCollection_3">
    <path d="M 239.4 353.773907 
L 351 353.773907 
" clip-path="url(#p610854f5a6)" style="fill: none; stroke: #1f77b4; stroke-width: 1.5"/>
   </g>
   <g id="LineCollection_4">
    <path d="M 295.2 353.773907 
L 295.2 66.217805 
" clip-path="url(#p610854f5a6)" style="fill: none; stroke: #1f77b4; stroke-width: 1.5"/>
   </g>
   <g id="patch_3">
    <path d="M 250.56 342.838216 
L 339.84 342.838216 
L 339.84 331.843273 
L 250.56 331.843273 
L 250.56 342.838216 
z
" clip-path="url(#p610854f5a6)" style="fill: #1f77b4; stroke: #000000; stroke-linejoin: miter"/>
   </g>
   <g id="line2d_10">
    <path d="M 295.2 342.838216 
L 295.2 353.773907 
" clip-path="url(#p610854f5a6)" style="fill: none; stroke: #000000; stroke-linecap: square"/>
   </g>
   <g id="line2d_11">
    <path d="M 295.2 331.843273 
L 295.2 315.420912 
" clip-path="url(#p610854f5a6)" style="fill: none; stroke: #000000; stroke-linecap: square"/>
   </g>
   <g id="line2d_12">
    <path d="M 272.88 353.773907 
L 317.52 353.773907 
" clip-path="url(#p610854f5a6)" style="fill: none; stroke: #000000; stroke-linecap: square"/>
   </g>
   <g id="line2d_13">
    <path d="M 272.88 315.420912 
L 317.52 315.420912 
" clip-path="url(#p610854f5a6)" style="fill: none; stroke: #000000; stroke-linecap: square"/>
   </g>
   <g id="line2d_14">
    <defs>
     <path id="m6173572219" d="M 0 3 
C 0.795609 3 1.55874 2.683901 2.12132 2.12132 
C 2.683901 1.55874 3 0.795609 3 0 
C 3 -0.795609 2.683901 -1.55874 2.12132 -2.12132 
C 1.55874 -2.683901 0.795609 -3 0 -3 
C -0.795609 -3 -1.55874 -2.683901 -2.12132 -2.12132 
C -2.683901 -1.55874 -3 -0.795609 -3 0 
C -3 0.795609 -2.683901 1.55874 -2.12132 2.12132 
C -1.55874 2.683901 -0.795609 3 0 3 
z
" style="stroke: #000000"/>
    </defs>
    <g clip-path="url(#p610854f5a6)">
     <use xlink:href="#m6173572219" x="295.2" y="255.787448" style="fill-opacity: 0; stroke: #000000"/>
     <use xlink:href="#m6173572219" x="295.2" y="271.977216" style="fill-opacity: 0; stroke: #000000"/>
     <use xlink:href="#m6173572219" x="295.2" y="304.018769" style="fill-opacity: 0; stroke: #000000"/>
     <use xlink:href="#m6173572219" x="295.2" y="314.349556" style="fill-opacity: 0; stroke: #000000"/>
     <use xlink:href="#m6173572219" x="295.2" y="310.479892" style="fill-opacity: 0; stroke: #000000"/>
     <use xlink:href="#m6173572219" x="295.2" y="306.03762" style="fill-opacity: 0; stroke: #000000"/>
     <use xlink:href="#m6173572219" x="295.2" y="296.550952" style="fill-opacity: 0; stroke: #000000"/>
     <use xlink:href="#m6173572219" x="295.2" y="306.004393" style="fill-opacity: 0; stroke: #000000"/>
     <use xlink:href="#m6173572219" x="295.2" y="297.411694" style="fill-opacity: 0; stroke: #000000"/>
     <use xlink:href="#m6173572219" x="295.2" y="308.25968" style="fill-opacity: 0; stroke: #000000"/>
     <use xlink:href="#m6173572219" x="295.2" y="304.78716" style="fill-opacity: 0; stroke: #000000"/>
     <use xlink:href="#m6173572219" x="295.2" y="292.064371" style="fill-opacity: 0; stroke: #000000"/>
     <use xlink:href="#m6173572219" x="295.2" y="295.016016" style="fill-opacity: 0; stroke: #000000"/>
     <use xlink:href="#m6173572219" x="295.2" y="303.497876" style="fill-opacity: 0; stroke: #000000"/>
     <use xlink:href="#m6173572219" x="295.2" y="291.674634" style="fill-opacity: 0; stroke: #000000"/>
     <use xlink:href="#m6173572219" x="295.2" y="311.22056" style="fill-opacity: 0; stroke: #000000"/>
     <use xlink:href="#m6173572219" x="295.2" y="290.523487" style="fill-opacity: 0; stroke: #000000"/>
     <use xlink:href="#m6173572219" x="295.2" y="298.565759" style="fill-opacity: 0; stroke: #000000"/>
     <use xlink:href="#m6173572219" x="295.2" y="262.623015" style="fill-opacity: 0; stroke: #000000"/>
     <use xlink:href="#m6173572219" x="295.2" y="286.886528" style="fill-opacity: 0; stroke: #000000"/>
     <use xlink:href="#m6173572219" x="295.2" y="315.019723" style="fill-opacity: 0; stroke: #000000"/>
     <use xlink:href="#m6173572219" x="295.2" y="290.636155" style="fill-opacity: 0; stroke: #000000"/>
     <use xlink:href="#m6173572219" x="295.2" y="202.952371" style="fill-opacity: 0; stroke: #000000"/>
     <use xlink:href="#m6173572219" x="295.2" y="312.129011" style="fill-opacity: 0; stroke: #000000"/>
     <use xlink:href="#m6173572219" x="295.2" y="266.306112" style="fill-opacity: 0; stroke: #000000"/>
     <use xlink:href="#m6173572219" x="295.2" y="304.674123" style="fill-opacity: 0; stroke: #000000"/>
     <use xlink:href="#m6173572219" x="295.2" y="308.366474" style="fill-opacity: 0; stroke: #000000"/>
     <use xlink:href="#m6173572219" x="295.2" y="275.369853" style="fill-opacity: 0; stroke: #000000"/>
     <use xlink:href="#m6173572219" x="295.2" y="297.178584" style="fill-opacity: 0; stroke: #000000"/>
     <use xlink:href="#m6173572219" x="295.2" y="304.450636" style="fill-opacity: 0; stroke: #000000"/>
     <use xlink:href="#m6173572219" x="295.2" y="288.321726" style="fill-opacity: 0; stroke: #000000"/>
     <use xlink:href="#m6173572219" x="295.2" y="308.176232" style="fill-opacity: 0; stroke: #000000"/>
     <use xlink:href="#m6173572219" x="295.2" y="314.79993" style="fill-opacity: 0; stroke: #000000"/>
     <use xlink:href="#m6173572219" x="295.2" y="283.513729" style="fill-opacity: 0; stroke: #000000"/>
     <use xlink:href="#m6173572219" x="295.2" y="313.817267" style="fill-opacity: 0; stroke: #000000"/>
     <use xlink:href="#m6173572219" x="295.2" y="293.502856" style="fill-opacity: 0; stroke: #000000"/>
     <use xlink:href="#m6173572219" x="295.2" y="312.413487" style="fill-opacity: 0; stroke: #000000"/>
     <use xlink:href="#m6173572219" x="295.2" y="201.400812" style="fill-opacity: 0; stroke: #000000"/>
     <use xlink:href="#m6173572219" x="295.2" y="311.166683" style="fill-opacity: 0; stroke: #000000"/>
     <use xlink:href="#m6173572219" x="295.2" y="289.025473" style="fill-opacity: 0; stroke: #000000"/>
     <use xlink:href="#m6173572219" x="295.2" y="287.837792" style="fill-opacity: 0; stroke: #000000"/>
     <use xlink:href="#m6173572219" x="295.2" y="305.117423" style="fill-opacity: 0; stroke: #000000"/>
     <use xlink:href="#m6173572219" x="295.2" y="314.273496" style="fill-opacity: 0; stroke: #000000"/>
     <use xlink:href="#m6173572219" x="295.2" y="306.674524" style="fill-opacity: 0; stroke: #000000"/>
     <use xlink:href="#m6173572219" x="295.2" y="304.208641" style="fill-opacity: 0; stroke: #000000"/>
     <use xlink:href="#m6173572219" x="295.2" y="312.178898" style="fill-opacity: 0; stroke: #000000"/>
     <use xlink:href="#m6173572219" x="295.2" y="314.487785" style="fill-opacity: 0; stroke: #000000"/>
     <use xlink:href="#m6173572219" x="295.2" y="314.399111" style="fill-opacity: 0; stroke: #000000"/>
     <use xlink:href="#m6173572219" x="295.2" y="312.631433" style="fill-opacity: 0; stroke: #000000"/>
     <use xlink:href="#m6173572219" x="295.2" y="283.007612" style="fill-opacity: 0; stroke: #000000"/>
     <use xlink:href="#m6173572219" x="295.2" y="299.406184" style="fill-opacity: 0; stroke: #000000"/>
     <use xlink:href="#m6173572219" x="295.2" y="314.441592" style="fill-opacity: 0; stroke: #000000"/>
     <use xlink:href="#m6173572219" x="295.2" y="304.02394" style="fill-opacity: 0; stroke: #000000"/>
     <use xlink:href="#m6173572219" x="295.2" y="292.348403" style="fill-opacity: 0; stroke: #000000"/>
     <use xlink:href="#m6173572219" x="295.2" y="313.51988" style="fill-opacity: 0; stroke: #000000"/>
     <use xlink:href="#m6173572219" x="295.2" y="314.258738" style="fill-opacity: 0; stroke: #000000"/>
     <use xlink:href="#m6173572219" x="295.2" y="313.639954" style="fill-opacity: 0; stroke: #000000"/>
     <use xlink:href="#m6173572219" x="295.2" y="302.766073" style="fill-opacity: 0; stroke: #000000"/>
     <use xlink:href="#m6173572219" x="295.2" y="257.545336" style="fill-opacity: 0; stroke: #000000"/>
     <use xlink:href="#m6173572219" x="295.2" y="288.521221" style="fill-opacity: 0; stroke: #000000"/>
     <use xlink:href="#m6173572219" x="295.2" y="288.661594" style="fill-opacity: 0; stroke: #000000"/>
     <use xlink:href="#m6173572219" x="295.2" y="234.5101" style="fill-opacity: 0; stroke: #000000"/>
     <use xlink:href="#m6173572219" x="295.2" y="309.605871" style="fill-opacity: 0; stroke: #000000"/>
     <use xlink:href="#m6173572219" x="295.2" y="311.428977" style="fill-opacity: 0; stroke: #000000"/>
     <use xlink:href="#m6173572219" x="295.2" y="301.327182" style="fill-opacity: 0; stroke: #000000"/>
     <use xlink:href="#m6173572219" x="295.2" y="314.631852" style="fill-opacity: 0; stroke: #000000"/>
     <use xlink:href="#m6173572219" x="295.2" y="301.438002" style="fill-opacity: 0; stroke: #000000"/>
     <use xlink:href="#m6173572219" x="295.2" y="310.566369" style="fill-opacity: 0; stroke: #000000"/>
     <use xlink:href="#m6173572219" x="295.2" y="299.947394" style="fill-opacity: 0; stroke: #000000"/>
     <use xlink:href="#m6173572219" x="295.2" y="310.693831" style="fill-opacity: 0; stroke: #000000"/>
     <use xlink:href="#m6173572219" x="295.2" y="313.301934" style="fill-opacity: 0; stroke: #000000"/>
     <use xlink:href="#m6173572219" x="295.2" y="309.308503" style="fill-opacity: 0; stroke: #000000"/>
     <use xlink:href="#m6173572219" x="295.2" y="309.145966" style="fill-opacity: 0; stroke: #000000"/>
     <use xlink:href="#m6173572219" x="295.2" y="315.233995" style="fill-opacity: 0; stroke: #000000"/>
     <use xlink:href="#m6173572219" x="295.2" y="312.274943" style="fill-opacity: 0; stroke: #000000"/>
     <use xlink:href="#m6173572219" x="295.2" y="306.270011" style="fill-opacity: 0; stroke: #000000"/>
     <use xlink:href="#m6173572219" x="295.2" y="300.021256" style="fill-opacity: 0; stroke: #000000"/>
     <use xlink:href="#m6173572219" x="295.2" y="291.910663" style="fill-opacity: 0; stroke: #000000"/>
     <use xlink:href="#m6173572219" x="295.2" y="306.857396" style="fill-opacity: 0; stroke: #000000"/>
     <use xlink:href="#m6173572219" x="295.2" y="305.178652" style="fill-opacity: 0; stroke: #000000"/>
     <use xlink:href="#m6173572219" x="295.2" y="312.264101" style="fill-opacity: 0; stroke: #000000"/>
     <use xlink:href="#m6173572219" x="295.2" y="314.57851" style="fill-opacity: 0; stroke: #000000"/>
     <use xlink:href="#m6173572219" x="295.2" y="312.293671" style="fill-opacity: 0; stroke: #000000"/>
     <use xlink:href="#m6173572219" x="295.2" y="279.718297" style="fill-opacity: 0; stroke: #000000"/>
     <use xlink:href="#m6173572219" x="295.2" y="274.36039" style="fill-opacity: 0; stroke: #000000"/>
     <use xlink:href="#m6173572219" x="295.2" y="302.445359" style="fill-opacity: 0; stroke: #000000"/>
     <use xlink:href="#m6173572219" x="295.2" y="309.13734" style="fill-opacity: 0; stroke: #000000"/>
     <use xlink:href="#m6173572219" x="295.2" y="312.194284" style="fill-opacity: 0; stroke: #000000"/>
     <use xlink:href="#m6173572219" x="295.2" y="289.332334" style="fill-opacity: 0; stroke: #000000"/>
     <use xlink:href="#m6173572219" x="295.2" y="180.641753" style="fill-opacity: 0; stroke: #000000"/>
     <use xlink:href="#m6173572219" x="295.2" y="273.848123" style="fill-opacity: 0; stroke: #000000"/>
     <use xlink:href="#m6173572219" x="295.2" y="311.549217" style="fill-opacity: 0; stroke: #000000"/>
     <use xlink:href="#m6173572219" x="295.2" y="252.854032" style="fill-opacity: 0; stroke: #000000"/>
     <use xlink:href="#m6173572219" x="295.2" y="189.502304" style="fill-opacity: 0; stroke: #000000"/>
     <use xlink:href="#m6173572219" x="295.2" y="66.217805" style="fill-opacity: 0; stroke: #000000"/>
     <use xlink:href="#m6173572219" x="295.2" y="254.551505" style="fill-opacity: 0; stroke: #000000"/>
     <use xlink:href="#m6173572219" x="295.2" y="275.582554" style="fill-opacity: 0; stroke: #000000"/>
     <use xlink:href="#m6173572219" x="295.2" y="305.47227" style="fill-opacity: 0; stroke: #000000"/>
     <use xlink:href="#m6173572219" x="295.2" y="305.354062" style="fill-opacity: 0; stroke: #000000"/>
     <use xlink:href="#m6173572219" x="295.2" y="237.227582" style="fill-opacity: 0; stroke: #000000"/>
     <use xlink:href="#m6173572219" x="295.2" y="311.159498" style="fill-opacity: 0; stroke: #000000"/>
     <use xlink:href="#m6173572219" x="295.2" y="311.189365" style="fill-opacity: 0; stroke: #000000"/>
     <use xlink:href="#m6173572219" x="295.2" y="302.131239" style="fill-opacity: 0; stroke: #000000"/>
     <use xlink:href="#m6173572219" x="295.2" y="313.54439" style="fill-opacity: 0; stroke: #000000"/>
     <use xlink:href="#m6173572219" x="295.2" y="312.048259" style="fill-opacity: 0; stroke: #000000"/>
     <use xlink:href="#m6173572219" x="295.2" y="307.748225" style="fill-opacity: 0; stroke: #000000"/>
     <use xlink:href="#m6173572219" x="295.2" y="312.445384" style="fill-opacity: 0; stroke: #000000"/>
     <use xlink:href="#m6173572219" x="295.2" y="296.577051" style="fill-opacity: 0; stroke: #000000"/>
     <use xlink:href="#m6173572219" x="295.2" y="314.347875" style="fill-opacity: 0; stroke: #000000"/>
     <use xlink:href="#m6173572219" x="295.2" y="255.688042" style="fill-opacity: 0; stroke: #000000"/>
     <use xlink:href="#m6173572219" x="295.2" y="314.920484" style="fill-opacity: 0; stroke: #000000"/>
     <use xlink:href="#m6173572219" x="295.2" y="308.583109" style="fill-opacity: 0; stroke: #000000"/>
     <use xlink:href="#m6173572219" x="295.2" y="265.257807" style="fill-opacity: 0; stroke: #000000"/>
     <use xlink:href="#m6173572219" x="295.2" y="201.442314" style="fill-opacity: 0; stroke: #000000"/>
     <use xlink:href="#m6173572219" x="295.2" y="307.879215" style="fill-opacity: 0; stroke: #000000"/>
     <use xlink:href="#m6173572219" x="295.2" y="311.645427" style="fill-opacity: 0; stroke: #000000"/>
     <use xlink:href="#m6173572219" x="295.2" y="305.047625" style="fill-opacity: 0; stroke: #000000"/>
     <use xlink:href="#m6173572219" x="295.2" y="281.129613" style="fill-opacity: 0; stroke: #000000"/>
     <use xlink:href="#m6173572219" x="295.2" y="297.790386" style="fill-opacity: 0; stroke: #000000"/>
     <use xlink:href="#m6173572219" x="295.2" y="192.077567" style="fill-opacity: 0; stroke: #000000"/>
     <use xlink:href="#m6173572219" x="295.2" y="299.086985" style="fill-opacity: 0; stroke: #000000"/>
     <use xlink:href="#m6173572219" x="295.2" y="311.828299" style="fill-opacity: 0; stroke: #000000"/>
     <use xlink:href="#m6173572219" x="295.2" y="286.327347" style="fill-opacity: 0; stroke: #000000"/>
     <use xlink:href="#m6173572219" x="295.2" y="273.839165" style="fill-opacity: 0; stroke: #000000"/>
     <use xlink:href="#m6173572219" x="295.2" y="312.478483" style="fill-opacity: 0; stroke: #000000"/>
     <use xlink:href="#m6173572219" x="295.2" y="244.996793" style="fill-opacity: 0; stroke: #000000"/>
     <use xlink:href="#m6173572219" x="295.2" y="304.445464" style="fill-opacity: 0; stroke: #000000"/>
     <use xlink:href="#m6173572219" x="295.2" y="272.167531" style="fill-opacity: 0; stroke: #000000"/>
     <use xlink:href="#m6173572219" x="295.2" y="293.85979" style="fill-opacity: 0; stroke: #000000"/>
     <use xlink:href="#m6173572219" x="295.2" y="301.828145" style="fill-opacity: 0; stroke: #000000"/>
     <use xlink:href="#m6173572219" x="295.2" y="307.637239" style="fill-opacity: 0; stroke: #000000"/>
     <use xlink:href="#m6173572219" x="295.2" y="309.98676" style="fill-opacity: 0; stroke: #000000"/>
     <use xlink:href="#m6173572219" x="295.2" y="251.143907" style="fill-opacity: 0; stroke: #000000"/>
     <use xlink:href="#m6173572219" x="295.2" y="271.260596" style="fill-opacity: 0; stroke: #000000"/>
     <use xlink:href="#m6173572219" x="295.2" y="68.699147" style="fill-opacity: 0; stroke: #000000"/>
     <use xlink:href="#m6173572219" x="295.2" y="315.300819" style="fill-opacity: 0; stroke: #000000"/>
     <use xlink:href="#m6173572219" x="295.2" y="310.714499" style="fill-opacity: 0; stroke: #000000"/>
     <use xlink:href="#m6173572219" x="295.2" y="311.174422" style="fill-opacity: 0; stroke: #000000"/>
     <use xlink:href="#m6173572219" x="295.2" y="314.552763" style="fill-opacity: 0; stroke: #000000"/>
     <use xlink:href="#m6173572219" x="295.2" y="313.189599" style="fill-opacity: 0; stroke: #000000"/>
     <use xlink:href="#m6173572219" x="295.2" y="306.440323" style="fill-opacity: 0; stroke: #000000"/>
     <use xlink:href="#m6173572219" x="295.2" y="312.587456" style="fill-opacity: 0; stroke: #000000"/>
     <use xlink:href="#m6173572219" x="295.2" y="303.400021" style="fill-opacity: 0; stroke: #000000"/>
     <use xlink:href="#m6173572219" x="295.2" y="309.718907" style="fill-opacity: 0; stroke: #000000"/>
     <use xlink:href="#m6173572219" x="295.2" y="281.868452" style="fill-opacity: 0; stroke: #000000"/>
     <use xlink:href="#m6173572219" x="295.2" y="309.877768" style="fill-opacity: 0; stroke: #000000"/>
     <use xlink:href="#m6173572219" x="295.2" y="298.745344" style="fill-opacity: 0; stroke: #000000"/>
     <use xlink:href="#m6173572219" x="295.2" y="281.125919" style="fill-opacity: 0; stroke: #000000"/>
     <use xlink:href="#m6173572219" x="295.2" y="308.353914" style="fill-opacity: 0; stroke: #000000"/>
     <use xlink:href="#m6173572219" x="295.2" y="309.150029" style="fill-opacity: 0; stroke: #000000"/>
     <use xlink:href="#m6173572219" x="295.2" y="303.202373" style="fill-opacity: 0; stroke: #000000"/>
    </g>
   </g>
   <g id="line2d_15">
    <path d="M 250.56 338.116058 
L 339.84 338.116058 
" clip-path="url(#p610854f5a6)" style="fill: none; stroke: #ff7f0e"/>
   </g>
   <g id="patch_4">
    <path d="M 72 384.48 
L 72 51.84 
" style="fill: none; stroke: #000000; stroke-width: 0.8; stroke-linejoin: miter; stroke-linecap: square"/>
   </g>
   <g id="patch_5">
    <path d="M 518.4 384.48 
L 518.4 51.84 
" style="fill: none; stroke: #000000; stroke-width: 0.8; stroke-linejoin: miter; stroke-linecap: square"/>
   </g>
   <g id="patch_6">
    <path d="M 72 384.48 
L 518.4 384.48 
" style="fill: none; stroke: #000000; stroke-width: 0.8; stroke-linejoin: miter; stroke-linecap: square"/>
   </g>
   <g id="patch_7">
    <path d="M 72 51.84 
L 518.4 51.84 
" style="fill: none; stroke: #000000; stroke-width: 0.8; stroke-linejoin: miter; stroke-linecap: square"/>
   </g>
   <g id="text_11">
    <!-- Unregister Faultload -->
    <g transform="translate(234.737812 45.84) scale(0.12 -0.12)">
     <defs>
      <path id="DejaVuSans-55" d="M 556 4666 
L 1191 4666 
L 1191 1831 
Q 1191 1081 1462 751 
Q 1734 422 2344 422 
Q 2950 422 3222 751 
Q 3494 1081 3494 1831 
L 3494 4666 
L 4128 4666 
L 4128 1753 
Q 4128 841 3676 375 
Q 3225 -91 2344 -91 
Q 1459 -91 1007 375 
Q 556 841 556 1753 
L 556 4666 
z
" transform="scale(0.015625)"/>
      <path id="DejaVuSans-6e" d="M 3513 2113 
L 3513 0 
L 2938 0 
L 2938 2094 
Q 2938 2591 2744 2837 
Q 2550 3084 2163 3084 
Q 1697 3084 1428 2787 
Q 1159 2491 1159 1978 
L 1159 0 
L 581 0 
L 581 3500 
L 1159 3500 
L 1159 2956 
Q 1366 3272 1645 3428 
Q 1925 3584 2291 3584 
Q 2894 3584 3203 3211 
Q 3513 2838 3513 2113 
z
" transform="scale(0.015625)"/>
      <path id="DejaVuSans-72" d="M 2631 2963 
Q 2534 3019 2420 3045 
Q 2306 3072 2169 3072 
Q 1681 3072 1420 2755 
Q 1159 2438 1159 1844 
L 1159 0 
L 581 0 
L 581 3500 
L 1159 3500 
L 1159 2956 
Q 1341 3275 1631 3429 
Q 1922 3584 2338 3584 
Q 2397 3584 2469 3576 
Q 2541 3569 2628 3553 
L 2631 2963 
z
" transform="scale(0.015625)"/>
      <path id="DejaVuSans-67" d="M 2906 1791 
Q 2906 2416 2648 2759 
Q 2391 3103 1925 3103 
Q 1463 3103 1205 2759 
Q 947 2416 947 1791 
Q 947 1169 1205 825 
Q 1463 481 1925 481 
Q 2391 481 2648 825 
Q 2906 1169 2906 1791 
z
M 3481 434 
Q 3481 -459 3084 -895 
Q 2688 -1331 1869 -1331 
Q 1566 -1331 1297 -1286 
Q 1028 -1241 775 -1147 
L 775 -588 
Q 1028 -725 1275 -790 
Q 1522 -856 1778 -856 
Q 2344 -856 2625 -561 
Q 2906 -266 2906 331 
L 2906 616 
Q 2728 306 2450 153 
Q 2172 0 1784 0 
Q 1141 0 747 490 
Q 353 981 353 1791 
Q 353 2603 747 3093 
Q 1141 3584 1784 3584 
Q 2172 3584 2450 3431 
Q 2728 3278 2906 2969 
L 2906 3500 
L 3481 3500 
L 3481 434 
z
" transform="scale(0.015625)"/>
      <path id="DejaVuSans-74" d="M 1172 4494 
L 1172 3500 
L 2356 3500 
L 2356 3053 
L 1172 3053 
L 1172 1153 
Q 1172 725 1289 603 
Q 1406 481 1766 481 
L 2356 481 
L 2356 0 
L 1766 0 
Q 1100 0 847 248 
Q 594 497 594 1153 
L 594 3053 
L 172 3053 
L 172 3500 
L 594 3500 
L 594 4494 
L 1172 4494 
z
" transform="scale(0.015625)"/>
      <path id="DejaVuSans-46" d="M 628 4666 
L 3309 4666 
L 3309 4134 
L 1259 4134 
L 1259 2759 
L 3109 2759 
L 3109 2228 
L 1259 2228 
L 1259 0 
L 628 0 
L 628 4666 
z
" transform="scale(0.015625)"/>
      <path id="DejaVuSans-61" d="M 2194 1759 
Q 1497 1759 1228 1600 
Q 959 1441 959 1056 
Q 959 750 1161 570 
Q 1363 391 1709 391 
Q 2188 391 2477 730 
Q 2766 1069 2766 1631 
L 2766 1759 
L 2194 1759 
z
M 3341 1997 
L 3341 0 
L 2766 0 
L 2766 531 
Q 2569 213 2275 61 
Q 1981 -91 1556 -91 
Q 1019 -91 701 211 
Q 384 513 384 1019 
Q 384 1609 779 1909 
Q 1175 2209 1959 2209 
L 2766 2209 
L 2766 2266 
Q 2766 2663 2505 2880 
Q 2244 3097 1772 3097 
Q 1472 3097 1187 3025 
Q 903 2953 641 2809 
L 641 3341 
Q 956 3463 1253 3523 
Q 1550 3584 1831 3584 
Q 2591 3584 2966 3190 
Q 3341 2797 3341 1997 
z
" transform="scale(0.015625)"/>
      <path id="DejaVuSans-75" d="M 544 1381 
L 544 3500 
L 1119 3500 
L 1119 1403 
Q 1119 906 1312 657 
Q 1506 409 1894 409 
Q 2359 409 2629 706 
Q 2900 1003 2900 1516 
L 2900 3500 
L 3475 3500 
L 3475 0 
L 2900 0 
L 2900 538 
Q 2691 219 2414 64 
Q 2138 -91 1772 -91 
Q 1169 -91 856 284 
Q 544 659 544 1381 
z
M 1991 3584 
L 1991 3584 
z
" transform="scale(0.015625)"/>
      <path id="DejaVuSans-6c" d="M 603 4863 
L 1178 4863 
L 1178 0 
L 603 0 
L 603 4863 
z
" transform="scale(0.015625)"/>
      <path id="DejaVuSans-6f" d="M 1959 3097 
Q 1497 3097 1228 2736 
Q 959 2375 959 1747 
Q 959 1119 1226 758 
Q 1494 397 1959 397 
Q 2419 397 2687 759 
Q 2956 1122 2956 1747 
Q 2956 2369 2687 2733 
Q 2419 3097 1959 3097 
z
M 1959 3584 
Q 2709 3584 3137 3096 
Q 3566 2609 3566 1747 
Q 3566 888 3137 398 
Q 2709 -91 1959 -91 
Q 1206 -91 779 398 
Q 353 888 353 1747 
Q 353 2609 779 3096 
Q 1206 3584 1959 3584 
z
" transform="scale(0.015625)"/>
      <path id="DejaVuSans-64" d="M 2906 2969 
L 2906 4863 
L 3481 4863 
L 3481 0 
L 2906 0 
L 2906 525 
Q 2725 213 2448 61 
Q 2172 -91 1784 -91 
Q 1150 -91 751 415 
Q 353 922 353 1747 
Q 353 2572 751 3078 
Q 1150 3584 1784 3584 
Q 2172 3584 2448 3432 
Q 2725 3281 2906 2969 
z
M 947 1747 
Q 947 1113 1208 752 
Q 1469 391 1925 391 
Q 2381 391 2643 752 
Q 2906 1113 2906 1747 
Q 2906 2381 2643 2742 
Q 2381 3103 1925 3103 
Q 1469 3103 1208 2742 
Q 947 2381 947 1747 
z
" transform="scale(0.015625)"/>
     </defs>
     <use xlink:href="#DejaVuSans-55"/>
     <use xlink:href="#DejaVuSans-6e" transform="translate(73.193359 0)"/>
     <use xlink:href="#DejaVuSans-72" transform="translate(136.572266 0)"/>
     <use xlink:href="#DejaVuSans-65" transform="translate(175.435547 0)"/>
     <use xlink:href="#DejaVuSans-67" transform="translate(236.958984 0)"/>
     <use xlink:href="#DejaVuSans-69" transform="translate(300.435547 0)"/>
     <use xlink:href="#DejaVuSans-73" transform="translate(328.21875 0)"/>
     <use xlink:href="#DejaVuSans-74" transform="translate(380.318359 0)"/>
     <use xlink:href="#DejaVuSans-65" transform="translate(419.527344 0)"/>
     <use xlink:href="#DejaVuSans-72" transform="translate(481.050781 0)"/>
     <use xlink:href="#DejaVuSans-20" transform="translate(522.164062 0)"/>
     <use xlink:href="#DejaVuSans-46" transform="translate(553.951172 0)"/>
     <use xlink:href="#DejaVuSans-61" transform="translate(602.345703 0)"/>
     <use xlink:href="#DejaVuSans-75" transform="translate(663.625 0)"/>
     <use xlink:href="#DejaVuSans-6c" transform="translate(727.003906 0)"/>
     <use xlink:href="#DejaVuSans-74" transform="translate(754.787109 0)"/>
     <use xlink:href="#DejaVuSans-6c" transform="translate(793.996094 0)"/>
     <use xlink:href="#DejaVuSans-6f" transform="translate(821.779297 0)"/>
     <use xlink:href="#DejaVuSans-61" transform="translate(882.960938 0)"/>
     <use xlink:href="#DejaVuSans-64" transform="translate(944.240234 0)"/>
    </g>
   </g>
  </g>
 </g>
 <defs>
  <clipPath id="p610854f5a6">
   <rect x="72" y="51.84" width="446.4" height="332.64"/>
  </clipPath>
 </defs>
</svg>
