<?xml version="1.0" encoding="utf-8" standalone="no"?>
<!DOCTYPE svg PUBLIC "-//W3C//DTD SVG 1.1//EN"
  "http://www.w3.org/Graphics/SVG/1.1/DTD/svg11.dtd">
<svg xmlns:xlink="http://www.w3.org/1999/xlink" width="720pt" height="432pt" viewBox="0 0 720 432" xmlns="http://www.w3.org/2000/svg" version="1.1">
 <metadata>
  <rdf:RDF xmlns:dc="http://purl.org/dc/elements/1.1/" xmlns:cc="http://creativecommons.org/ns#" xmlns:rdf="http://www.w3.org/1999/02/22-rdf-syntax-ns#">
   <cc:Work>
    <dc:type rdf:resource="http://purl.org/dc/dcmitype/StillImage"/>
    <dc:date>2025-06-08T23:57:27.202296</dc:date>
    <dc:format>image/svg+xml</dc:format>
    <dc:creator>
     <cc:Agent>
      <dc:title>Matplotlib v3.10.3, https://matplotlib.org/</dc:title>
     </cc:Agent>
    </dc:creator>
   </cc:Work>
  </rdf:RDF>
 </metadata>
 <defs>
  <style type="text/css">*{stroke-linejoin: round; stroke-linecap: butt}</style>
 </defs>
 <g id="figure_1">
  <g id="patch_1">
   <path d="M 0 432 
L 720 432 
L 720 0 
L 0 0 
z
" style="fill: #ffffff"/>
  </g>
  <g id="axes_1">
   <g id="patch_2">
    <path d="M 90 384.48 
L 648 384.48 
L 648 51.84 
L 90 51.84 
z
" style="fill: #ffffff"/>
   </g>
   <g id="matplotlib.axis_1">
    <g id="xtick_1">
     <g id="line2d_1">
      <defs>
       <path id="m62869c0bf9" d="M 0 0 
L 0 3.5 
" style="stroke: #000000; stroke-width: 0.8"/>
      </defs>
      <g>
       <use xlink:href="#m62869c0bf9" x="115.363636" y="384.48" style="stroke: #000000; stroke-width: 0.8"/>
      </g>
     </g>
     <g id="text_1">
      <!-- 0 -->
      <g transform="translate(112.182386 399.078438) scale(0.1 -0.1)">
       <defs>
        <path id="DejaVuSans-30" d="M 2034 4250 
Q 1547 4250 1301 3770 
Q 1056 3291 1056 2328 
Q 1056 1369 1301 889 
Q 1547 409 2034 409 
Q 2525 409 2770 889 
Q 3016 1369 3016 2328 
Q 3016 3291 2770 3770 
Q 2525 4250 2034 4250 
z
M 2034 4750 
Q 2819 4750 3233 4129 
Q 3647 3509 3647 2328 
Q 3647 1150 3233 529 
Q 2819 -91 2034 -91 
Q 1250 -91 836 529 
Q 422 1150 422 2328 
Q 422 3509 836 4129 
Q 1250 4750 2034 4750 
z
" transform="scale(0.015625)"/>
       </defs>
       <use xlink:href="#DejaVuSans-30"/>
      </g>
     </g>
    </g>
    <g id="xtick_2">
     <g id="line2d_2">
      <g>
       <use xlink:href="#m62869c0bf9" x="210.180969" y="384.48" style="stroke: #000000; stroke-width: 0.8"/>
      </g>
     </g>
     <g id="text_2">
      <!-- 100 -->
      <g transform="translate(200.637219 399.078438) scale(0.1 -0.1)">
       <defs>
        <path id="DejaVuSans-31" d="M 794 531 
L 1825 531 
L 1825 4091 
L 703 3866 
L 703 4441 
L 1819 4666 
L 2450 4666 
L 2450 531 
L 3481 531 
L 3481 0 
L 794 0 
L 794 531 
z
" transform="scale(0.015625)"/>
       </defs>
       <use xlink:href="#DejaVuSans-31"/>
       <use xlink:href="#DejaVuSans-30" transform="translate(63.623047 0)"/>
       <use xlink:href="#DejaVuSans-30" transform="translate(127.246094 0)"/>
      </g>
     </g>
    </g>
    <g id="xtick_3">
     <g id="line2d_3">
      <g>
       <use xlink:href="#m62869c0bf9" x="304.998301" y="384.48" style="stroke: #000000; stroke-width: 0.8"/>
      </g>
     </g>
     <g id="text_3">
      <!-- 200 -->
      <g transform="translate(295.454551 399.078438) scale(0.1 -0.1)">
       <defs>
        <path id="DejaVuSans-32" d="M 1228 531 
L 3431 531 
L 3431 0 
L 469 0 
L 469 531 
Q 828 903 1448 1529 
Q 2069 2156 2228 2338 
Q 2531 2678 2651 2914 
Q 2772 3150 2772 3378 
Q 2772 3750 2511 3984 
Q 2250 4219 1831 4219 
Q 1534 4219 1204 4116 
Q 875 4013 500 3803 
L 500 4441 
Q 881 4594 1212 4672 
Q 1544 4750 1819 4750 
Q 2544 4750 2975 4387 
Q 3406 4025 3406 3419 
Q 3406 3131 3298 2873 
Q 3191 2616 2906 2266 
Q 2828 2175 2409 1742 
Q 1991 1309 1228 531 
z
" transform="scale(0.015625)"/>
       </defs>
       <use xlink:href="#DejaVuSans-32"/>
       <use xlink:href="#DejaVuSans-30" transform="translate(63.623047 0)"/>
       <use xlink:href="#DejaVuSans-30" transform="translate(127.246094 0)"/>
      </g>
     </g>
    </g>
    <g id="xtick_4">
     <g id="line2d_4">
      <g>
       <use xlink:href="#m62869c0bf9" x="399.815633" y="384.48" style="stroke: #000000; stroke-width: 0.8"/>
      </g>
     </g>
     <g id="text_4">
      <!-- 300 -->
      <g transform="translate(390.271883 399.078438) scale(0.1 -0.1)">
       <defs>
        <path id="DejaVuSans-33" d="M 2597 2516 
Q 3050 2419 3304 2112 
Q 3559 1806 3559 1356 
Q 3559 666 3084 287 
Q 2609 -91 1734 -91 
Q 1441 -91 1130 -33 
Q 819 25 488 141 
L 488 750 
Q 750 597 1062 519 
Q 1375 441 1716 441 
Q 2309 441 2620 675 
Q 2931 909 2931 1356 
Q 2931 1769 2642 2001 
Q 2353 2234 1838 2234 
L 1294 2234 
L 1294 2753 
L 1863 2753 
Q 2328 2753 2575 2939 
Q 2822 3125 2822 3475 
Q 2822 3834 2567 4026 
Q 2313 4219 1838 4219 
Q 1578 4219 1281 4162 
Q 984 4106 628 3988 
L 628 4550 
Q 988 4650 1302 4700 
Q 1616 4750 1894 4750 
Q 2613 4750 3031 4423 
Q 3450 4097 3450 3541 
Q 3450 3153 3228 2886 
Q 3006 2619 2597 2516 
z
" transform="scale(0.015625)"/>
       </defs>
       <use xlink:href="#DejaVuSans-33"/>
       <use xlink:href="#DejaVuSans-30" transform="translate(63.623047 0)"/>
       <use xlink:href="#DejaVuSans-30" transform="translate(127.246094 0)"/>
      </g>
     </g>
    </g>
    <g id="xtick_5">
     <g id="line2d_5">
      <g>
       <use xlink:href="#m62869c0bf9" x="494.632965" y="384.48" style="stroke: #000000; stroke-width: 0.8"/>
      </g>
     </g>
     <g id="text_5">
      <!-- 400 -->
      <g transform="translate(485.089215 399.078438) scale(0.1 -0.1)">
       <defs>
        <path id="DejaVuSans-34" d="M 2419 4116 
L 825 1625 
L 2419 1625 
L 2419 4116 
z
M 2253 4666 
L 3047 4666 
L 3047 1625 
L 3713 1625 
L 3713 1100 
L 3047 1100 
L 3047 0 
L 2419 0 
L 2419 1100 
L 313 1100 
L 313 1709 
L 2253 4666 
z
" transform="scale(0.015625)"/>
       </defs>
       <use xlink:href="#DejaVuSans-34"/>
       <use xlink:href="#DejaVuSans-30" transform="translate(63.623047 0)"/>
       <use xlink:href="#DejaVuSans-30" transform="translate(127.246094 0)"/>
      </g>
     </g>
    </g>
    <g id="xtick_6">
     <g id="line2d_6">
      <g>
       <use xlink:href="#m62869c0bf9" x="589.450297" y="384.48" style="stroke: #000000; stroke-width: 0.8"/>
      </g>
     </g>
     <g id="text_6">
      <!-- 500 -->
      <g transform="translate(579.906547 399.078438) scale(0.1 -0.1)">
       <defs>
        <path id="DejaVuSans-35" d="M 691 4666 
L 3169 4666 
L 3169 4134 
L 1269 4134 
L 1269 2991 
Q 1406 3038 1543 3061 
Q 1681 3084 1819 3084 
Q 2600 3084 3056 2656 
Q 3513 2228 3513 1497 
Q 3513 744 3044 326 
Q 2575 -91 1722 -91 
Q 1428 -91 1123 -41 
Q 819 9 494 109 
L 494 744 
Q 775 591 1075 516 
Q 1375 441 1709 441 
Q 2250 441 2565 725 
Q 2881 1009 2881 1497 
Q 2881 1984 2565 2268 
Q 2250 2553 1709 2553 
Q 1456 2553 1204 2497 
Q 953 2441 691 2322 
L 691 4666 
z
" transform="scale(0.015625)"/>
       </defs>
       <use xlink:href="#DejaVuSans-35"/>
       <use xlink:href="#DejaVuSans-30" transform="translate(63.623047 0)"/>
       <use xlink:href="#DejaVuSans-30" transform="translate(127.246094 0)"/>
      </g>
     </g>
    </g>
    <g id="text_7">
     <!-- Index -->
     <g transform="translate(355.233594 412.756563) scale(0.1 -0.1)">
      <defs>
       <path id="DejaVuSans-49" d="M 628 4666 
L 1259 4666 
L 1259 0 
L 628 0 
L 628 4666 
z
" transform="scale(0.015625)"/>
       <path id="DejaVuSans-6e" d="M 3513 2113 
L 3513 0 
L 2938 0 
L 2938 2094 
Q 2938 2591 2744 2837 
Q 2550 3084 2163 3084 
Q 1697 3084 1428 2787 
Q 1159 2491 1159 1978 
L 1159 0 
L 581 0 
L 581 3500 
L 1159 3500 
L 1159 2956 
Q 1366 3272 1645 3428 
Q 1925 3584 2291 3584 
Q 2894 3584 3203 3211 
Q 3513 2838 3513 2113 
z
" transform="scale(0.015625)"/>
       <path id="DejaVuSans-64" d="M 2906 2969 
L 2906 4863 
L 3481 4863 
L 3481 0 
L 2906 0 
L 2906 525 
Q 2725 213 2448 61 
Q 2172 -91 1784 -91 
Q 1150 -91 751 415 
Q 353 922 353 1747 
Q 353 2572 751 3078 
Q 1150 3584 1784 3584 
Q 2172 3584 2448 3432 
Q 2725 3281 2906 2969 
z
M 947 1747 
Q 947 1113 1208 752 
Q 1469 391 1925 391 
Q 2381 391 2643 752 
Q 2906 1113 2906 1747 
Q 2906 2381 2643 2742 
Q 2381 3103 1925 3103 
Q 1469 3103 1208 2742 
Q 947 2381 947 1747 
z
" transform="scale(0.015625)"/>
       <path id="DejaVuSans-65" d="M 3597 1894 
L 3597 1613 
L 953 1613 
Q 991 1019 1311 708 
Q 1631 397 2203 397 
Q 2534 397 2845 478 
Q 3156 559 3463 722 
L 3463 178 
Q 3153 47 2828 -22 
Q 2503 -91 2169 -91 
Q 1331 -91 842 396 
Q 353 884 353 1716 
Q 353 2575 817 3079 
Q 1281 3584 2069 3584 
Q 2775 3584 3186 3129 
Q 3597 2675 3597 1894 
z
M 3022 2063 
Q 3016 2534 2758 2815 
Q 2500 3097 2075 3097 
Q 1594 3097 1305 2825 
Q 1016 2553 972 2059 
L 3022 2063 
z
" transform="scale(0.015625)"/>
       <path id="DejaVuSans-78" d="M 3513 3500 
L 2247 1797 
L 3578 0 
L 2900 0 
L 1881 1375 
L 863 0 
L 184 0 
L 1544 1831 
L 300 3500 
L 978 3500 
L 1906 2253 
L 2834 3500 
L 3513 3500 
z
" transform="scale(0.015625)"/>
      </defs>
      <use xlink:href="#DejaVuSans-49"/>
      <use xlink:href="#DejaVuSans-6e" transform="translate(29.492188 0)"/>
      <use xlink:href="#DejaVuSans-64" transform="translate(92.871094 0)"/>
      <use xlink:href="#DejaVuSans-65" transform="translate(156.347656 0)"/>
      <use xlink:href="#DejaVuSans-78" transform="translate(216.121094 0)"/>
     </g>
    </g>
   </g>
   <g id="matplotlib.axis_2">
    <g id="ytick_1">
     <g id="line2d_7">
      <defs>
       <path id="mfb1592b93d" d="M 0 0 
L -3.5 0 
" style="stroke: #000000; stroke-width: 0.8"/>
      </defs>
      <g>
       <use xlink:href="#mfb1592b93d" x="90" y="384.48" style="stroke: #000000; stroke-width: 0.8"/>
      </g>
     </g>
     <g id="text_8">
      <!-- 0 -->
      <g transform="translate(76.6375 388.279219) scale(0.1 -0.1)">
       <use xlink:href="#DejaVuSans-30"/>
      </g>
     </g>
    </g>
    <g id="ytick_2">
     <g id="line2d_8">
      <g>
       <use xlink:href="#mfb1592b93d" x="90" y="328.759821" style="stroke: #000000; stroke-width: 0.8"/>
      </g>
     </g>
     <g id="text_9">
      <!-- 10 -->
      <g transform="translate(70.275 332.55904) scale(0.1 -0.1)">
       <use xlink:href="#DejaVuSans-31"/>
       <use xlink:href="#DejaVuSans-30" transform="translate(63.623047 0)"/>
      </g>
     </g>
    </g>
    <g id="ytick_3">
     <g id="line2d_9">
      <g>
       <use xlink:href="#mfb1592b93d" x="90" y="273.039642" style="stroke: #000000; stroke-width: 0.8"/>
      </g>
     </g>
     <g id="text_10">
      <!-- 20 -->
      <g transform="translate(70.275 276.838861) scale(0.1 -0.1)">
       <use xlink:href="#DejaVuSans-32"/>
       <use xlink:href="#DejaVuSans-30" transform="translate(63.623047 0)"/>
      </g>
     </g>
    </g>
    <g id="ytick_4">
     <g id="line2d_10">
      <g>
       <use xlink:href="#mfb1592b93d" x="90" y="217.319463" style="stroke: #000000; stroke-width: 0.8"/>
      </g>
     </g>
     <g id="text_11">
      <!-- 30 -->
      <g transform="translate(70.275 221.118682) scale(0.1 -0.1)">
       <use xlink:href="#DejaVuSans-33"/>
       <use xlink:href="#DejaVuSans-30" transform="translate(63.623047 0)"/>
      </g>
     </g>
    </g>
    <g id="ytick_5">
     <g id="line2d_11">
      <g>
       <use xlink:href="#mfb1592b93d" x="90" y="161.599284" style="stroke: #000000; stroke-width: 0.8"/>
      </g>
     </g>
     <g id="text_12">
      <!-- 40 -->
      <g transform="translate(70.275 165.398503) scale(0.1 -0.1)">
       <use xlink:href="#DejaVuSans-34"/>
       <use xlink:href="#DejaVuSans-30" transform="translate(63.623047 0)"/>
      </g>
     </g>
    </g>
    <g id="ytick_6">
     <g id="line2d_12">
      <g>
       <use xlink:href="#mfb1592b93d" x="90" y="105.879106" style="stroke: #000000; stroke-width: 0.8"/>
      </g>
     </g>
     <g id="text_13">
      <!-- 50 -->
      <g transform="translate(70.275 109.678324) scale(0.1 -0.1)">
       <use xlink:href="#DejaVuSans-35"/>
       <use xlink:href="#DejaVuSans-30" transform="translate(63.623047 0)"/>
      </g>
     </g>
    </g>
    <g id="text_14">
     <!-- Average time (ms) -->
     <g transform="translate(64.195312 264.543594) rotate(-90) scale(0.1 -0.1)">
      <defs>
       <path id="DejaVuSans-41" d="M 2188 4044 
L 1331 1722 
L 3047 1722 
L 2188 4044 
z
M 1831 4666 
L 2547 4666 
L 4325 0 
L 3669 0 
L 3244 1197 
L 1141 1197 
L 716 0 
L 50 0 
L 1831 4666 
z
" transform="scale(0.015625)"/>
       <path id="DejaVuSans-76" d="M 191 3500 
L 800 3500 
L 1894 563 
L 2988 3500 
L 3597 3500 
L 2284 0 
L 1503 0 
L 191 3500 
z
" transform="scale(0.015625)"/>
       <path id="DejaVuSans-72" d="M 2631 2963 
Q 2534 3019 2420 3045 
Q 2306 3072 2169 3072 
Q 1681 3072 1420 2755 
Q 1159 2438 1159 1844 
L 1159 0 
L 581 0 
L 581 3500 
L 1159 3500 
L 1159 2956 
Q 1341 3275 1631 3429 
Q 1922 3584 2338 3584 
Q 2397 3584 2469 3576 
Q 2541 3569 2628 3553 
L 2631 2963 
z
" transform="scale(0.015625)"/>
       <path id="DejaVuSans-61" d="M 2194 1759 
Q 1497 1759 1228 1600 
Q 959 1441 959 1056 
Q 959 750 1161 570 
Q 1363 391 1709 391 
Q 2188 391 2477 730 
Q 2766 1069 2766 1631 
L 2766 1759 
L 2194 1759 
z
M 3341 1997 
L 3341 0 
L 2766 0 
L 2766 531 
Q 2569 213 2275 61 
Q 1981 -91 1556 -91 
Q 1019 -91 701 211 
Q 384 513 384 1019 
Q 384 1609 779 1909 
Q 1175 2209 1959 2209 
L 2766 2209 
L 2766 2266 
Q 2766 2663 2505 2880 
Q 2244 3097 1772 3097 
Q 1472 3097 1187 3025 
Q 903 2953 641 2809 
L 641 3341 
Q 956 3463 1253 3523 
Q 1550 3584 1831 3584 
Q 2591 3584 2966 3190 
Q 3341 2797 3341 1997 
z
" transform="scale(0.015625)"/>
       <path id="DejaVuSans-67" d="M 2906 1791 
Q 2906 2416 2648 2759 
Q 2391 3103 1925 3103 
Q 1463 3103 1205 2759 
Q 947 2416 947 1791 
Q 947 1169 1205 825 
Q 1463 481 1925 481 
Q 2391 481 2648 825 
Q 2906 1169 2906 1791 
z
M 3481 434 
Q 3481 -459 3084 -895 
Q 2688 -1331 1869 -1331 
Q 1566 -1331 1297 -1286 
Q 1028 -1241 775 -1147 
L 775 -588 
Q 1028 -725 1275 -790 
Q 1522 -856 1778 -856 
Q 2344 -856 2625 -561 
Q 2906 -266 2906 331 
L 2906 616 
Q 2728 306 2450 153 
Q 2172 0 1784 0 
Q 1141 0 747 490 
Q 353 981 353 1791 
Q 353 2603 747 3093 
Q 1141 3584 1784 3584 
Q 2172 3584 2450 3431 
Q 2728 3278 2906 2969 
L 2906 3500 
L 3481 3500 
L 3481 434 
z
" transform="scale(0.015625)"/>
       <path id="DejaVuSans-20" transform="scale(0.015625)"/>
       <path id="DejaVuSans-74" d="M 1172 4494 
L 1172 3500 
L 2356 3500 
L 2356 3053 
L 1172 3053 
L 1172 1153 
Q 1172 725 1289 603 
Q 1406 481 1766 481 
L 2356 481 
L 2356 0 
L 1766 0 
Q 1100 0 847 248 
Q 594 497 594 1153 
L 594 3053 
L 172 3053 
L 172 3500 
L 594 3500 
L 594 4494 
L 1172 4494 
z
" transform="scale(0.015625)"/>
       <path id="DejaVuSans-69" d="M 603 3500 
L 1178 3500 
L 1178 0 
L 603 0 
L 603 3500 
z
M 603 4863 
L 1178 4863 
L 1178 4134 
L 603 4134 
L 603 4863 
z
" transform="scale(0.015625)"/>
       <path id="DejaVuSans-6d" d="M 3328 2828 
Q 3544 3216 3844 3400 
Q 4144 3584 4550 3584 
Q 5097 3584 5394 3201 
Q 5691 2819 5691 2113 
L 5691 0 
L 5113 0 
L 5113 2094 
Q 5113 2597 4934 2840 
Q 4756 3084 4391 3084 
Q 3944 3084 3684 2787 
Q 3425 2491 3425 1978 
L 3425 0 
L 2847 0 
L 2847 2094 
Q 2847 2600 2669 2842 
Q 2491 3084 2119 3084 
Q 1678 3084 1418 2786 
Q 1159 2488 1159 1978 
L 1159 0 
L 581 0 
L 581 3500 
L 1159 3500 
L 1159 2956 
Q 1356 3278 1631 3431 
Q 1906 3584 2284 3584 
Q 2666 3584 2933 3390 
Q 3200 3197 3328 2828 
z
" transform="scale(0.015625)"/>
       <path id="DejaVuSans-28" d="M 1984 4856 
Q 1566 4138 1362 3434 
Q 1159 2731 1159 2009 
Q 1159 1288 1364 580 
Q 1569 -128 1984 -844 
L 1484 -844 
Q 1016 -109 783 600 
Q 550 1309 550 2009 
Q 550 2706 781 3412 
Q 1013 4119 1484 4856 
L 1984 4856 
z
" transform="scale(0.015625)"/>
       <path id="DejaVuSans-73" d="M 2834 3397 
L 2834 2853 
Q 2591 2978 2328 3040 
Q 2066 3103 1784 3103 
Q 1356 3103 1142 2972 
Q 928 2841 928 2578 
Q 928 2378 1081 2264 
Q 1234 2150 1697 2047 
L 1894 2003 
Q 2506 1872 2764 1633 
Q 3022 1394 3022 966 
Q 3022 478 2636 193 
Q 2250 -91 1575 -91 
Q 1294 -91 989 -36 
Q 684 19 347 128 
L 347 722 
Q 666 556 975 473 
Q 1284 391 1588 391 
Q 1994 391 2212 530 
Q 2431 669 2431 922 
Q 2431 1156 2273 1281 
Q 2116 1406 1581 1522 
L 1381 1569 
Q 847 1681 609 1914 
Q 372 2147 372 2553 
Q 372 3047 722 3315 
Q 1072 3584 1716 3584 
Q 2034 3584 2315 3537 
Q 2597 3491 2834 3397 
z
" transform="scale(0.015625)"/>
       <path id="DejaVuSans-29" d="M 513 4856 
L 1013 4856 
Q 1481 4119 1714 3412 
Q 1947 2706 1947 2009 
Q 1947 1309 1714 600 
Q 1481 -109 1013 -844 
L 513 -844 
Q 928 -128 1133 580 
Q 1338 1288 1338 2009 
Q 1338 2731 1133 3434 
Q 928 4138 513 4856 
z
" transform="scale(0.015625)"/>
      </defs>
      <use xlink:href="#DejaVuSans-41"/>
      <use xlink:href="#DejaVuSans-76" transform="translate(62.533203 0)"/>
      <use xlink:href="#DejaVuSans-65" transform="translate(121.712891 0)"/>
      <use xlink:href="#DejaVuSans-72" transform="translate(183.236328 0)"/>
      <use xlink:href="#DejaVuSans-61" transform="translate(224.349609 0)"/>
      <use xlink:href="#DejaVuSans-67" transform="translate(285.628906 0)"/>
      <use xlink:href="#DejaVuSans-65" transform="translate(349.105469 0)"/>
      <use xlink:href="#DejaVuSans-20" transform="translate(410.628906 0)"/>
      <use xlink:href="#DejaVuSans-74" transform="translate(442.416016 0)"/>
      <use xlink:href="#DejaVuSans-69" transform="translate(481.625 0)"/>
      <use xlink:href="#DejaVuSans-6d" transform="translate(509.408203 0)"/>
      <use xlink:href="#DejaVuSans-65" transform="translate(606.820312 0)"/>
      <use xlink:href="#DejaVuSans-20" transform="translate(668.34375 0)"/>
      <use xlink:href="#DejaVuSans-28" transform="translate(700.130859 0)"/>
      <use xlink:href="#DejaVuSans-6d" transform="translate(739.144531 0)"/>
      <use xlink:href="#DejaVuSans-73" transform="translate(836.556641 0)"/>
      <use xlink:href="#DejaVuSans-29" transform="translate(888.65625 0)"/>
     </g>
    </g>
   </g>
   <g id="line2d_13">
    <path d="M 115.363636 67.003065 
L 116.31181 247.089846 
L 117.259983 297.460285 
L 118.208156 320.822579 
L 119.15633 313.408301 
L 120.104503 329.023615 
L 121.052676 322.267616 
L 122.00085 335.987683 
L 122.949023 317.315329 
L 123.897196 333.755565 
L 124.84537 345.042154 
L 125.793543 335.607802 
L 126.741716 350.437879 
L 127.68989 341.032925 
L 128.638063 341.653154 
L 129.586236 341.806259 
L 130.53441 355.891069 
L 131.482583 353.67725 
L 132.430756 357.994112 
L 133.378929 356.409892 
L 134.327103 363.440608 
L 135.275276 362.333586 
L 137.171623 359.439529 
L 138.119796 361.577154 
L 139.067969 360.654251 
L 140.016143 361.20641 
L 140.964316 362.58318 
L 141.912489 360.245645 
L 142.860663 363.422882 
L 143.808836 363.553404 
L 144.757009 361.339226 
L 145.705183 360.688522 
L 146.653356 361.354188 
L 147.601529 360.440482 
L 148.549703 362.33636 
L 149.497876 362.656389 
L 150.446049 362.016975 
L 151.394223 362.113149 
L 152.342396 362.943931 
L 153.290569 359.610217 
L 154.238743 355.758535 
L 155.186916 362.270438 
L 156.135089 363.139214 
L 157.083263 363.148153 
L 158.031436 361.962788 
L 158.979609 365.07564 
L 159.927782 366.535723 
L 160.875956 363.920022 
L 161.824129 363.333423 
L 163.720476 364.351849 
L 164.668649 363.555093 
L 165.616822 360.24815 
L 166.564996 363.261814 
L 167.513169 361.749379 
L 168.461342 361.359187 
L 169.409516 362.816685 
L 170.357689 361.909657 
L 171.305862 363.944792 
L 172.254036 364.378873 
L 173.202209 362.443718 
L 175.098556 363.921623 
L 176.046729 363.245482 
L 176.994902 364.356937 
L 177.943076 364.637701 
L 178.891249 363.907304 
L 179.839422 363.877558 
L 180.787596 365.165718 
L 181.735769 364.537298 
L 182.683942 367.168304 
L 183.632116 361.945002 
L 184.580289 360.589112 
L 185.528462 361.441177 
L 186.476636 362.935656 
L 187.424809 360.76129 
L 188.372982 362.800827 
L 189.321155 366.798547 
L 190.269329 362.869299 
L 191.217502 364.915215 
L 192.165675 364.897995 
L 193.113849 365.133314 
L 194.062022 365.603063 
L 195.010195 365.423684 
L 195.958369 363.987415 
L 196.906542 365.468488 
L 197.854715 363.827925 
L 198.802889 364.783959 
L 199.751062 364.833985 
L 200.699235 365.858834 
L 201.647409 364.894414 
L 202.595582 362.264081 
L 203.543755 359.212134 
L 204.491929 362.739342 
L 205.440102 361.468617 
L 206.388275 360.690835 
L 207.336449 359.063547 
L 208.284622 362.903909 
L 209.232795 363.026667 
L 210.180969 362.282129 
L 211.129142 363.75138 
L 212.077315 363.597216 
L 213.025489 364.178613 
L 213.973662 363.923701 
L 214.921835 363.36665 
L 215.870008 363.131976 
L 216.818182 364.3166 
L 217.766355 363.934961 
L 218.714528 362.02419 
L 219.662702 365.197397 
L 220.610875 362.810891 
L 221.559048 364.588395 
L 222.507222 365.914967 
L 223.455395 366.149914 
L 224.403568 365.860416 
L 225.351742 366.06239 
L 226.299915 365.446791 
L 227.248088 362.254343 
L 228.196262 363.372025 
L 229.144435 360.581226 
L 230.092608 365.572941 
L 231.040782 362.162388 
L 231.988955 365.927325 
L 232.937128 364.2217 
L 233.885302 364.584769 
L 235.781648 363.219316 
L 236.729822 364.098934 
L 237.677995 365.707379 
L 238.626168 361.362763 
L 239.574342 362.206561 
L 240.522515 364.745714 
L 241.470688 363.395706 
L 242.418862 365.179865 
L 243.367035 364.627091 
L 244.315208 364.645436 
L 245.263381 361.919864 
L 246.211555 362.716919 
L 247.159728 366.726123 
L 248.107901 364.457776 
L 250.004248 367.347683 
L 250.952421 366.922683 
L 251.900595 366.35935 
L 252.848768 365.260616 
L 253.796941 363.569693 
L 254.745115 364.977403 
L 255.693288 360.090855 
L 256.641461 365.87704 
L 257.589635 364.3751 
L 258.537808 365.195307 
L 259.485981 361.864589 
L 260.434155 364.974366 
L 261.382328 364.537412 
L 262.330501 364.606795 
L 263.278675 363.526443 
L 264.226848 365.164714 
L 265.175021 364.941938 
L 266.123195 365.897929 
L 267.071368 366.072711 
L 268.019541 364.773435 
L 268.967715 364.35222 
L 269.915888 364.755408 
L 271.812234 360.388421 
L 272.760408 365.862706 
L 273.708581 364.131456 
L 274.656754 361.10111 
L 275.604928 363.773413 
L 276.553101 362.4227 
L 277.501274 363.330598 
L 278.449448 364.690809 
L 279.397621 364.92069 
L 280.345794 362.894281 
L 281.293968 363.520015 
L 282.242141 362.821485 
L 283.190314 360.489121 
L 284.138488 365.193512 
L 285.086661 363.098976 
L 286.034834 362.306773 
L 286.983008 363.78318 
L 287.931181 363.513663 
L 288.879354 364.883395 
L 289.827528 365.150433 
L 290.775701 365.041193 
L 291.723874 366.286447 
L 292.672048 367.315813 
L 293.620221 363.354983 
L 294.568394 366.707627 
L 295.516568 365.769089 
L 296.464741 365.81679 
L 297.412914 364.327181 
L 298.361088 365.854572 
L 299.309261 365.426744 
L 300.257434 365.466894 
L 301.205607 366.217643 
L 302.153781 365.027488 
L 303.101954 364.236124 
L 304.050127 365.120617 
L 304.998301 364.908028 
L 305.946474 364.34849 
L 306.894647 364.833092 
L 307.842821 366.19388 
L 308.790994 367.258995 
L 309.739167 368.726397 
L 311.635514 363.246116 
L 312.583687 358.226048 
L 313.531861 363.838267 
L 314.480034 367.288348 
L 315.428207 367.889601 
L 316.376381 364.162376 
L 317.324554 366.737079 
L 318.272727 367.800041 
L 319.220901 367.755394 
L 320.169074 367.041473 
L 321.117247 364.731878 
L 322.065421 366.466151 
L 323.013594 365.847461 
L 323.961767 366.745277 
L 324.909941 367.257095 
L 325.858114 368.107009 
L 326.806287 366.039911 
L 327.75446 361.41045 
L 328.702634 365.037026 
L 329.650807 365.671063 
L 330.59898 362.541525 
L 331.547154 362.430054 
L 332.495327 364.165333 
L 333.4435 364.543072 
L 334.391674 368.314459 
L 335.339847 367.515349 
L 336.28802 366.385029 
L 337.236194 364.52085 
L 338.184367 365.346341 
L 339.13254 367.542238 
L 340.080714 366.104158 
L 341.028887 367.440974 
L 341.97706 365.17189 
L 342.925234 366.755716 
L 343.873407 366.736442 
L 344.82158 368.505586 
L 345.769754 367.687212 
L 346.717927 364.949063 
L 347.6661 366.870901 
L 348.614274 367.725799 
L 349.562447 366.256899 
L 350.51062 365.191015 
L 351.458794 366.079983 
L 352.406967 365.579921 
L 353.35514 366.348021 
L 355.251487 365.55756 
L 356.19966 365.264847 
L 357.147833 365.895891 
L 358.096007 363.069798 
L 359.04418 365.58114 
L 359.992353 362.990574 
L 360.940527 365.334992 
L 361.8887 367.117392 
L 362.836873 367.191631 
L 363.785047 367.851537 
L 364.73322 365.021445 
L 365.681393 367.840909 
L 366.629567 365.923681 
L 367.57774 365.383869 
L 369.474087 366.098081 
L 370.42226 365.493584 
L 371.370433 366.10742 
L 372.318607 365.645781 
L 373.26678 367.120423 
L 374.214953 365.102482 
L 375.163127 364.400776 
L 376.1113 366.748653 
L 377.059473 366.702538 
L 378.007647 366.455591 
L 378.95582 367.64103 
L 379.903993 367.000916 
L 380.852167 366.076299 
L 381.80034 363.763719 
L 382.748513 363.760629 
L 383.696686 367.380778 
L 384.64486 366.846479 
L 385.593033 368.008483 
L 386.541206 367.62456 
L 387.48938 365.242229 
L 388.437553 364.912053 
L 389.385726 366.863221 
L 390.3339 363.586236 
L 391.282073 365.131718 
L 392.230246 364.032572 
L 393.17842 365.334596 
L 394.126593 366.945392 
L 395.074766 366.473215 
L 396.02294 366.596724 
L 396.971113 363.721427 
L 397.919286 366.781137 
L 398.86746 366.968261 
L 399.815633 367.67948 
L 400.763806 366.884255 
L 402.660153 367.052913 
L 403.608326 366.740126 
L 404.5565 368.5469 
L 405.504673 365.003067 
L 406.452846 368.105304 
L 407.40102 365.649129 
L 408.349193 365.984993 
L 409.297366 367.403484 
L 410.24554 366.372926 
L 411.193713 364.278467 
L 412.141886 367.822786 
L 413.090059 364.203226 
L 414.038233 366.194931 
L 414.986406 366.609675 
L 416.882753 368.506762 
L 417.830926 361.950675 
L 418.779099 365.313653 
L 419.727273 367.080398 
L 420.675446 367.371122 
L 421.623619 368.1904 
L 422.571793 366.29688 
L 423.519966 368.024182 
L 424.468139 365.513074 
L 425.416313 365.699364 
L 426.364486 364.968071 
L 427.312659 366.030274 
L 428.260833 368.57596 
L 429.209006 366.14633 
L 430.157179 366.060234 
L 431.105353 362.028868 
L 432.053526 366.706127 
L 433.001699 365.302275 
L 433.949873 366.447972 
L 434.898046 368.682945 
L 435.846219 368.181297 
L 436.794393 368.562036 
L 437.742566 368.311368 
L 438.690739 367.041684 
L 439.638912 368.361868 
L 440.587086 367.87289 
L 441.535259 366.859365 
L 442.483432 368.161237 
L 443.431606 366.794621 
L 444.379779 368.215389 
L 445.327952 366.278688 
L 446.276126 367.511654 
L 447.224299 367.07295 
L 449.120646 366.895348 
L 450.068819 367.6359 
L 451.016992 365.612555 
L 451.965166 365.307761 
L 452.913339 366.480608 
L 453.861512 367.076997 
L 454.809686 367.940143 
L 455.757859 367.526651 
L 456.706032 366.781469 
L 457.654206 367.802622 
L 458.602379 365.393849 
L 459.550552 368.78368 
L 460.498726 367.730308 
L 461.446899 368.367268 
L 462.395072 366.984798 
L 463.343246 368.243067 
L 464.291419 365.61929 
L 465.239592 367.953255 
L 466.187766 366.986019 
L 467.135939 368.632798 
L 468.084112 366.784332 
L 469.032285 366.516101 
L 469.980459 367.760557 
L 470.928632 364.979363 
L 471.876805 365.682486 
L 472.824979 367.213172 
L 473.773152 365.372094 
L 474.721325 363.110081 
L 475.669499 367.165533 
L 476.617672 365.205593 
L 477.565845 367.360635 
L 478.514019 366.172495 
L 479.462192 364.596318 
L 480.410365 365.900247 
L 481.358539 367.810693 
L 482.306712 362.480845 
L 483.254885 365.893848 
L 484.203059 365.793281 
L 485.151232 366.897951 
L 486.099405 366.431818 
L 487.047579 367.136323 
L 487.995752 365.136881 
L 488.943925 366.599565 
L 489.892099 365.543006 
L 490.840272 367.975763 
L 491.788445 367.332634 
L 492.736619 367.514767 
L 493.684792 367.360034 
L 494.632965 366.960325 
L 495.581138 368.851505 
L 496.529312 367.927238 
L 497.477485 366.116081 
L 498.425658 368.329326 
L 499.373832 367.188218 
L 500.322005 367.002724 
L 501.270178 366.36427 
L 502.218352 366.659212 
L 503.166525 368.253501 
L 505.062872 367.960183 
L 506.011045 367.422159 
L 506.959218 367.278315 
L 507.907392 365.171704 
L 508.855565 367.621047 
L 509.803738 367.273059 
L 510.751912 367.902009 
L 511.700085 368.365721 
L 512.648258 365.897867 
L 513.596432 366.200706 
L 514.544605 368.202685 
L 515.492778 363.068329 
L 516.440952 367.157134 
L 517.389125 365.553449 
L 518.337298 365.200934 
L 519.285472 366.385149 
L 520.233645 365.334841 
L 521.181818 366.531844 
L 522.129992 366.491702 
L 523.078165 367.604118 
L 524.026338 366.747601 
L 524.974511 366.864615 
L 525.922685 368.454467 
L 526.870858 366.114488 
L 527.819031 366.940853 
L 528.767205 365.545038 
L 529.715378 365.923781 
L 530.663551 367.279403 
L 531.611725 363.410694 
L 532.559898 364.47599 
L 533.508071 367.131102 
L 534.456245 366.546334 
L 535.404418 365.417987 
L 536.352591 368.562706 
L 537.300765 369.239597 
L 538.248938 368.634242 
L 539.197111 365.967389 
L 540.145285 367.332224 
L 541.093458 366.991976 
L 542.041631 367.658618 
L 542.989805 367.020052 
L 543.937978 367.694667 
L 544.886151 364.980603 
L 545.834325 366.723123 
L 546.782498 367.391047 
L 547.730671 367.866316 
L 548.678845 367.991125 
L 549.627018 368.466158 
L 550.575191 366.963871 
L 551.523364 366.281067 
L 552.471538 368.139333 
L 553.419711 369.023325 
L 554.367884 367.879202 
L 555.316058 368.578508 
L 556.264231 366.886187 
L 557.212404 368.228893 
L 558.160578 366.52872 
L 559.108751 368.440344 
L 561.005098 367.824013 
L 561.953271 369.425211 
L 562.901444 365.378691 
L 563.849618 367.352096 
L 564.797791 366.202923 
L 565.745964 368.370865 
L 566.694138 368.864966 
L 567.642311 368.002465 
L 568.590484 366.868357 
L 569.538658 366.99612 
L 570.486831 368.166784 
L 571.435004 367.626949 
L 572.383178 368.661583 
L 573.331351 368.63579 
L 574.279524 369.381196 
L 575.227698 368.141287 
L 576.175871 367.581289 
L 577.124044 367.351438 
L 578.072218 367.538231 
L 579.020391 366.491715 
L 579.968564 366.160998 
L 580.916737 365.224453 
L 581.864911 368.010223 
L 582.813084 367.648583 
L 583.761257 368.328846 
L 584.709431 367.475428 
L 585.657604 365.13287 
L 586.605777 368.190175 
L 587.553951 367.825516 
L 588.502124 369.604291 
L 589.450297 368.886838 
L 590.398471 366.143309 
L 591.346644 369.11671 
L 592.294817 368.693849 
L 593.242991 364.663032 
L 594.191164 368.717462 
L 595.139337 369.060557 
L 596.087511 368.88518 
L 597.035684 369.278692 
L 597.983857 368.763156 
L 598.932031 367.089095 
L 599.880204 365.696519 
L 600.828377 367.075017 
L 601.776551 367.270639 
L 602.724724 367.900591 
L 603.672897 370.264375 
L 604.621071 366.561584 
L 605.569244 368.05675 
L 606.517417 369.326143 
L 607.46559 368.666607 
L 608.413764 366.924598 
L 609.361937 366.029374 
L 610.31011 366.560361 
L 611.258284 367.543342 
L 612.206457 368.016224 
L 614.102804 366.76264 
L 615.050977 367.900416 
L 615.99915 367.027605 
L 616.947324 368.910667 
L 617.895497 366.752976 
L 618.84367 369.375016 
L 619.791844 367.146144 
L 620.740017 367.677446 
L 621.68819 367.025601 
L 622.636364 367.97309 
L 622.636364 367.97309 
" clip-path="url(#pe328ef0b84)" style="fill: none; stroke: #1f77b4; stroke-width: 1.5; stroke-linecap: square"/>
   </g>
   <g id="patch_3">
    <path d="M 90 384.48 
L 90 51.84 
" style="fill: none; stroke: #000000; stroke-width: 0.8; stroke-linejoin: miter; stroke-linecap: square"/>
   </g>
   <g id="patch_4">
    <path d="M 648 384.48 
L 648 51.84 
" style="fill: none; stroke: #000000; stroke-width: 0.8; stroke-linejoin: miter; stroke-linecap: square"/>
   </g>
   <g id="patch_5">
    <path d="M 90 384.48 
L 648 384.48 
" style="fill: none; stroke: #000000; stroke-width: 0.8; stroke-linejoin: miter; stroke-linecap: square"/>
   </g>
   <g id="patch_6">
    <path d="M 90 51.84 
L 648 51.84 
" style="fill: none; stroke: #000000; stroke-width: 0.8; stroke-linejoin: miter; stroke-linecap: square"/>
   </g>
   <g id="text_15">
    <!-- Average time per index -->
    <g transform="translate(298.700625 45.84) scale(0.12 -0.12)">
     <defs>
      <path id="DejaVuSans-70" d="M 1159 525 
L 1159 -1331 
L 581 -1331 
L 581 3500 
L 1159 3500 
L 1159 2969 
Q 1341 3281 1617 3432 
Q 1894 3584 2278 3584 
Q 2916 3584 3314 3078 
Q 3713 2572 3713 1747 
Q 3713 922 3314 415 
Q 2916 -91 2278 -91 
Q 1894 -91 1617 61 
Q 1341 213 1159 525 
z
M 3116 1747 
Q 3116 2381 2855 2742 
Q 2594 3103 2138 3103 
Q 1681 3103 1420 2742 
Q 1159 2381 1159 1747 
Q 1159 1113 1420 752 
Q 1681 391 2138 391 
Q 2594 391 2855 752 
Q 3116 1113 3116 1747 
z
" transform="scale(0.015625)"/>
     </defs>
     <use xlink:href="#DejaVuSans-41"/>
     <use xlink:href="#DejaVuSans-76" transform="translate(62.533203 0)"/>
     <use xlink:href="#DejaVuSans-65" transform="translate(121.712891 0)"/>
     <use xlink:href="#DejaVuSans-72" transform="translate(183.236328 0)"/>
     <use xlink:href="#DejaVuSans-61" transform="translate(224.349609 0)"/>
     <use xlink:href="#DejaVuSans-67" transform="translate(285.628906 0)"/>
     <use xlink:href="#DejaVuSans-65" transform="translate(349.105469 0)"/>
     <use xlink:href="#DejaVuSans-20" transform="translate(410.628906 0)"/>
     <use xlink:href="#DejaVuSans-74" transform="translate(442.416016 0)"/>
     <use xlink:href="#DejaVuSans-69" transform="translate(481.625 0)"/>
     <use xlink:href="#DejaVuSans-6d" transform="translate(509.408203 0)"/>
     <use xlink:href="#DejaVuSans-65" transform="translate(606.820312 0)"/>
     <use xlink:href="#DejaVuSans-20" transform="translate(668.34375 0)"/>
     <use xlink:href="#DejaVuSans-70" transform="translate(700.130859 0)"/>
     <use xlink:href="#DejaVuSans-65" transform="translate(763.607422 0)"/>
     <use xlink:href="#DejaVuSans-72" transform="translate(825.130859 0)"/>
     <use xlink:href="#DejaVuSans-20" transform="translate(866.244141 0)"/>
     <use xlink:href="#DejaVuSans-69" transform="translate(898.03125 0)"/>
     <use xlink:href="#DejaVuSans-6e" transform="translate(925.814453 0)"/>
     <use xlink:href="#DejaVuSans-64" transform="translate(989.193359 0)"/>
     <use xlink:href="#DejaVuSans-65" transform="translate(1052.669922 0)"/>
     <use xlink:href="#DejaVuSans-78" transform="translate(1112.443359 0)"/>
    </g>
   </g>
   <g id="legend_1">
    <g id="patch_7">
     <path d="M 525.064062 74.518125 
L 641 74.518125 
Q 643 74.518125 643 72.518125 
L 643 58.84 
Q 643 56.84 641 56.84 
L 525.064062 56.84 
Q 523.064062 56.84 523.064062 58.84 
L 523.064062 72.518125 
Q 523.064062 74.518125 525.064062 74.518125 
z
" style="fill: #ffffff; opacity: 0.8; stroke: #cccccc; stroke-linejoin: miter"/>
    </g>
    <g id="line2d_14">
     <path d="M 527.064062 64.938438 
L 537.064062 64.938438 
L 547.064062 64.938438 
" style="fill: none; stroke: #1f77b4; stroke-width: 1.5; stroke-linecap: square"/>
    </g>
    <g id="text_16">
     <!-- registerFaultload -->
     <g transform="translate(555.064062 68.438438) scale(0.1 -0.1)">
      <defs>
       <path id="DejaVuSans-46" d="M 628 4666 
L 3309 4666 
L 3309 4134 
L 1259 4134 
L 1259 2759 
L 3109 2759 
L 3109 2228 
L 1259 2228 
L 1259 0 
L 628 0 
L 628 4666 
z
" transform="scale(0.015625)"/>
       <path id="DejaVuSans-75" d="M 544 1381 
L 544 3500 
L 1119 3500 
L 1119 1403 
Q 1119 906 1312 657 
Q 1506 409 1894 409 
Q 2359 409 2629 706 
Q 2900 1003 2900 1516 
L 2900 3500 
L 3475 3500 
L 3475 0 
L 2900 0 
L 2900 538 
Q 2691 219 2414 64 
Q 2138 -91 1772 -91 
Q 1169 -91 856 284 
Q 544 659 544 1381 
z
M 1991 3584 
L 1991 3584 
z
" transform="scale(0.015625)"/>
       <path id="DejaVuSans-6c" d="M 603 4863 
L 1178 4863 
L 1178 0 
L 603 0 
L 603 4863 
z
" transform="scale(0.015625)"/>
       <path id="DejaVuSans-6f" d="M 1959 3097 
Q 1497 3097 1228 2736 
Q 959 2375 959 1747 
Q 959 1119 1226 758 
Q 1494 397 1959 397 
Q 2419 397 2687 759 
Q 2956 1122 2956 1747 
Q 2956 2369 2687 2733 
Q 2419 3097 1959 3097 
z
M 1959 3584 
Q 2709 3584 3137 3096 
Q 3566 2609 3566 1747 
Q 3566 888 3137 398 
Q 2709 -91 1959 -91 
Q 1206 -91 779 398 
Q 353 888 353 1747 
Q 353 2609 779 3096 
Q 1206 3584 1959 3584 
z
" transform="scale(0.015625)"/>
      </defs>
      <use xlink:href="#DejaVuSans-72"/>
      <use xlink:href="#DejaVuSans-65" transform="translate(38.863281 0)"/>
      <use xlink:href="#DejaVuSans-67" transform="translate(100.386719 0)"/>
      <use xlink:href="#DejaVuSans-69" transform="translate(163.863281 0)"/>
      <use xlink:href="#DejaVuSans-73" transform="translate(191.646484 0)"/>
      <use xlink:href="#DejaVuSans-74" transform="translate(243.746094 0)"/>
      <use xlink:href="#DejaVuSans-65" transform="translate(282.955078 0)"/>
      <use xlink:href="#DejaVuSans-72" transform="translate(344.478516 0)"/>
      <use xlink:href="#DejaVuSans-46" transform="translate(385.591797 0)"/>
      <use xlink:href="#DejaVuSans-61" transform="translate(433.986328 0)"/>
      <use xlink:href="#DejaVuSans-75" transform="translate(495.265625 0)"/>
      <use xlink:href="#DejaVuSans-6c" transform="translate(558.644531 0)"/>
      <use xlink:href="#DejaVuSans-74" transform="translate(586.427734 0)"/>
      <use xlink:href="#DejaVuSans-6c" transform="translate(625.636719 0)"/>
      <use xlink:href="#DejaVuSans-6f" transform="translate(653.419922 0)"/>
      <use xlink:href="#DejaVuSans-61" transform="translate(714.601562 0)"/>
      <use xlink:href="#DejaVuSans-64" transform="translate(775.880859 0)"/>
     </g>
    </g>
   </g>
  </g>
 </g>
 <defs>
  <clipPath id="pe328ef0b84">
   <rect x="90" y="51.84" width="558" height="332.64"/>
  </clipPath>
 </defs>
</svg>
