<?xml version="1.0" encoding="utf-8" standalone="no"?>
<!DOCTYPE svg PUBLIC "-//W3C//DTD SVG 1.1//EN"
  "http://www.w3.org/Graphics/SVG/1.1/DTD/svg11.dtd">
<svg xmlns:xlink="http://www.w3.org/1999/xlink" width="576pt" height="432pt" viewBox="0 0 576 432" xmlns="http://www.w3.org/2000/svg" version="1.1">
 <metadata>
  <rdf:RDF xmlns:dc="http://purl.org/dc/elements/1.1/" xmlns:cc="http://creativecommons.org/ns#" xmlns:rdf="http://www.w3.org/1999/02/22-rdf-syntax-ns#">
   <cc:Work>
    <dc:type rdf:resource="http://purl.org/dc/dcmitype/StillImage"/>
    <dc:date>2025-06-08T23:57:27.725929</dc:date>
    <dc:format>image/svg+xml</dc:format>
    <dc:creator>
     <cc:Agent>
      <dc:title>Matplotlib v3.10.3, https://matplotlib.org/</dc:title>
     </cc:Agent>
    </dc:creator>
   </cc:Work>
  </rdf:RDF>
 </metadata>
 <defs>
  <style type="text/css">*{stroke-linejoin: round; stroke-linecap: butt}</style>
 </defs>
 <g id="figure_1">
  <g id="patch_1">
   <path d="M 0 432 
L 576 432 
L 576 0 
L 0 0 
z
" style="fill: #ffffff"/>
  </g>
  <g id="axes_1">
   <g id="patch_2">
    <path d="M 72 384.48 
L 518.4 384.48 
L 518.4 51.84 
L 72 51.84 
z
" style="fill: #ffffff"/>
   </g>
   <g id="FillBetweenPolyCollection_1">
    <path d="M 327.490765 371.221707 
L 262.909235 371.221707 
L 190.380858 368.149252 
L 183.6 365.076797 
L 217.21087 362.004342 
L 254.333551 358.931887 
L 276.618506 355.859431 
L 287.131519 352.786976 
L 291.754326 349.714521 
L 293.228855 346.642066 
L 294.195021 343.569611 
L 294.466428 340.497156 
L 294.42337 337.424701 
L 294.567069 334.352246 
L 294.857596 331.279791 
L 294.950168 328.207336 
L 294.808877 325.134881 
L 294.924156 322.062425 
L 294.852334 318.98997 
L 294.898324 315.917515 
L 294.872388 312.84506 
L 294.941441 309.772605 
L 294.953414 306.70015 
L 295.019974 303.627695 
L 295.079225 300.55524 
L 295.106047 297.482785 
L 295.18041 294.41033 
L 295.166998 291.337874 
L 295.083737 288.265419 
L 295.119052 285.192964 
L 295.144175 282.120509 
L 295.18184 279.048054 
L 295.199439 275.975599 
L 295.199999 272.903144 
L 295.2 269.830689 
L 295.199807 266.758234 
L 295.189392 263.685779 
L 295.152413 260.613324 
L 295.182586 257.540868 
L 295.19948 254.468413 
L 295.199999 251.395958 
L 295.2 248.323503 
L 295.2 245.251048 
L 295.2 242.178593 
L 295.2 239.106138 
L 295.2 236.033683 
L 295.2 232.961228 
L 295.2 229.888773 
L 295.199998 226.816318 
L 295.199358 223.743862 
L 295.180674 220.671407 
L 295.145139 217.598952 
L 295.140815 214.526497 
L 295.138951 211.454042 
L 295.168234 208.381587 
L 295.198007 205.309132 
L 295.199669 202.236677 
L 295.186072 199.164222 
L 295.141917 196.091767 
L 295.13888 193.019312 
L 295.173983 189.946856 
L 295.15425 186.874401 
L 295.177223 183.801946 
L 295.199063 180.729491 
L 295.199997 177.657036 
L 295.2 174.584581 
L 295.2 171.512126 
L 295.199995 168.439671 
L 295.198767 165.367216 
L 295.1744 162.294761 
L 295.156635 159.222305 
L 295.193672 156.14985 
L 295.185605 153.077395 
L 295.139676 150.00494 
L 295.138521 146.932485 
L 295.18421 143.86003 
L 295.199592 140.787575 
L 295.199999 137.71512 
L 295.2 134.642665 
L 295.2 131.57021 
L 295.2 128.497755 
L 295.2 125.425299 
L 295.2 122.352844 
L 295.2 119.280389 
L 295.2 116.207934 
L 295.2 113.135479 
L 295.2 110.063024 
L 295.2 106.990569 
L 295.2 103.918114 
L 295.2 100.845659 
L 295.2 97.773204 
L 295.2 94.700749 
L 295.2 91.628293 
L 295.2 88.555838 
L 295.2 85.483383 
L 295.2 82.410928 
L 295.2 79.338473 
L 295.199999 76.266018 
L 295.199679 73.193563 
L 295.186241 70.121108 
L 295.151826 67.048653 
L 295.248174 67.048653 
L 295.248174 67.048653 
L 295.213759 70.121108 
L 295.200321 73.193563 
L 295.200001 76.266018 
L 295.2 79.338473 
L 295.2 82.410928 
L 295.2 85.483383 
L 295.2 88.555838 
L 295.2 91.628293 
L 295.2 94.700749 
L 295.2 97.773204 
L 295.2 100.845659 
L 295.2 103.918114 
L 295.2 106.990569 
L 295.2 110.063024 
L 295.2 113.135479 
L 295.2 116.207934 
L 295.2 119.280389 
L 295.2 122.352844 
L 295.2 125.425299 
L 295.2 128.497755 
L 295.2 131.57021 
L 295.2 134.642665 
L 295.200001 137.71512 
L 295.200408 140.787575 
L 295.21579 143.86003 
L 295.261479 146.932485 
L 295.260324 150.00494 
L 295.214395 153.077395 
L 295.206328 156.14985 
L 295.243365 159.222305 
L 295.2256 162.294761 
L 295.201233 165.367216 
L 295.200005 168.439671 
L 295.2 171.512126 
L 295.2 174.584581 
L 295.200003 177.657036 
L 295.200937 180.729491 
L 295.222777 183.801946 
L 295.24575 186.874401 
L 295.226017 189.946856 
L 295.26112 193.019312 
L 295.258083 196.091767 
L 295.213928 199.164222 
L 295.200331 202.236677 
L 295.201993 205.309132 
L 295.231766 208.381587 
L 295.261049 211.454042 
L 295.259185 214.526497 
L 295.254861 217.598952 
L 295.219326 220.671407 
L 295.200642 223.743862 
L 295.200002 226.816318 
L 295.2 229.888773 
L 295.2 232.961228 
L 295.2 236.033683 
L 295.2 239.106138 
L 295.2 242.178593 
L 295.2 245.251048 
L 295.2 248.323503 
L 295.200001 251.395958 
L 295.20052 254.468413 
L 295.217414 257.540868 
L 295.247587 260.613324 
L 295.210608 263.685779 
L 295.200193 266.758234 
L 295.2 269.830689 
L 295.200001 272.903144 
L 295.200561 275.975599 
L 295.21816 279.048054 
L 295.255825 282.120509 
L 295.280948 285.192964 
L 295.316263 288.265419 
L 295.233002 291.337874 
L 295.21959 294.41033 
L 295.293953 297.482785 
L 295.320775 300.55524 
L 295.380026 303.627695 
L 295.446586 306.70015 
L 295.458559 309.772605 
L 295.527612 312.84506 
L 295.501676 315.917515 
L 295.547666 318.98997 
L 295.475844 322.062425 
L 295.591123 325.134881 
L 295.449832 328.207336 
L 295.542404 331.279791 
L 295.832931 334.352246 
L 295.97663 337.424701 
L 295.933572 340.497156 
L 296.204979 343.569611 
L 297.171145 346.642066 
L 298.645674 349.714521 
L 303.268481 352.786976 
L 313.781494 355.859431 
L 336.066449 358.931887 
L 373.18913 362.004342 
L 406.8 365.076797 
L 400.019142 368.149252 
L 327.490765 371.221707 
z
" clip-path="url(#p96dc13ed26)" style="fill: #1f77b4; fill-opacity: 0.3"/>
   </g>
   <g id="matplotlib.axis_1">
    <g id="xtick_1">
     <g id="line2d_1">
      <defs>
       <path id="m36d6f227e2" d="M 0 0 
L 0 3.5 
" style="stroke: #000000; stroke-width: 0.8"/>
      </defs>
      <g>
       <use xlink:href="#m36d6f227e2" x="295.2" y="384.48" style="stroke: #000000; stroke-width: 0.8"/>
      </g>
     </g>
     <g id="text_1">
      <!-- 1 -->
      <g transform="translate(292.01875 399.078438) scale(0.1 -0.1)">
       <defs>
        <path id="DejaVuSans-31" d="M 794 531 
L 1825 531 
L 1825 4091 
L 703 3866 
L 703 4441 
L 1819 4666 
L 2450 4666 
L 2450 531 
L 3481 531 
L 3481 0 
L 794 0 
L 794 531 
z
" transform="scale(0.015625)"/>
       </defs>
       <use xlink:href="#DejaVuSans-31"/>
      </g>
     </g>
    </g>
   </g>
   <g id="matplotlib.axis_2">
    <g id="ytick_1">
     <g id="line2d_2">
      <defs>
       <path id="m6d0aee2002" d="M 0 0 
L -3.5 0 
" style="stroke: #000000; stroke-width: 0.8"/>
      </defs>
      <g>
       <use xlink:href="#m6d0aee2002" x="72" y="384.48" style="stroke: #000000; stroke-width: 0.8"/>
      </g>
     </g>
     <g id="text_2">
      <!-- 0 -->
      <g transform="translate(58.6375 388.279219) scale(0.1 -0.1)">
       <defs>
        <path id="DejaVuSans-30" d="M 2034 4250 
Q 1547 4250 1301 3770 
Q 1056 3291 1056 2328 
Q 1056 1369 1301 889 
Q 1547 409 2034 409 
Q 2525 409 2770 889 
Q 3016 1369 3016 2328 
Q 3016 3291 2770 3770 
Q 2525 4250 2034 4250 
z
M 2034 4750 
Q 2819 4750 3233 4129 
Q 3647 3509 3647 2328 
Q 3647 1150 3233 529 
Q 2819 -91 2034 -91 
Q 1250 -91 836 529 
Q 422 1150 422 2328 
Q 422 3509 836 4129 
Q 1250 4750 2034 4750 
z
" transform="scale(0.015625)"/>
       </defs>
       <use xlink:href="#DejaVuSans-30"/>
      </g>
     </g>
    </g>
    <g id="ytick_2">
     <g id="line2d_3">
      <g>
       <use xlink:href="#m6d0aee2002" x="72" y="344.53711" style="stroke: #000000; stroke-width: 0.8"/>
      </g>
     </g>
     <g id="text_3">
      <!-- 50 -->
      <g transform="translate(52.275 348.336328) scale(0.1 -0.1)">
       <defs>
        <path id="DejaVuSans-35" d="M 691 4666 
L 3169 4666 
L 3169 4134 
L 1269 4134 
L 1269 2991 
Q 1406 3038 1543 3061 
Q 1681 3084 1819 3084 
Q 2600 3084 3056 2656 
Q 3513 2228 3513 1497 
Q 3513 744 3044 326 
Q 2575 -91 1722 -91 
Q 1428 -91 1123 -41 
Q 819 9 494 109 
L 494 744 
Q 775 591 1075 516 
Q 1375 441 1709 441 
Q 2250 441 2565 725 
Q 2881 1009 2881 1497 
Q 2881 1984 2565 2268 
Q 2250 2553 1709 2553 
Q 1456 2553 1204 2497 
Q 953 2441 691 2322 
L 691 4666 
z
" transform="scale(0.015625)"/>
       </defs>
       <use xlink:href="#DejaVuSans-35"/>
       <use xlink:href="#DejaVuSans-30" transform="translate(63.623047 0)"/>
      </g>
     </g>
    </g>
    <g id="ytick_3">
     <g id="line2d_4">
      <g>
       <use xlink:href="#m6d0aee2002" x="72" y="304.594219" style="stroke: #000000; stroke-width: 0.8"/>
      </g>
     </g>
     <g id="text_4">
      <!-- 100 -->
      <g transform="translate(45.9125 308.393438) scale(0.1 -0.1)">
       <use xlink:href="#DejaVuSans-31"/>
       <use xlink:href="#DejaVuSans-30" transform="translate(63.623047 0)"/>
       <use xlink:href="#DejaVuSans-30" transform="translate(127.246094 0)"/>
      </g>
     </g>
    </g>
    <g id="ytick_4">
     <g id="line2d_5">
      <g>
       <use xlink:href="#m6d0aee2002" x="72" y="264.651329" style="stroke: #000000; stroke-width: 0.8"/>
      </g>
     </g>
     <g id="text_5">
      <!-- 150 -->
      <g transform="translate(45.9125 268.450548) scale(0.1 -0.1)">
       <use xlink:href="#DejaVuSans-31"/>
       <use xlink:href="#DejaVuSans-35" transform="translate(63.623047 0)"/>
       <use xlink:href="#DejaVuSans-30" transform="translate(127.246094 0)"/>
      </g>
     </g>
    </g>
    <g id="ytick_5">
     <g id="line2d_6">
      <g>
       <use xlink:href="#m6d0aee2002" x="72" y="224.708439" style="stroke: #000000; stroke-width: 0.8"/>
      </g>
     </g>
     <g id="text_6">
      <!-- 200 -->
      <g transform="translate(45.9125 228.507658) scale(0.1 -0.1)">
       <defs>
        <path id="DejaVuSans-32" d="M 1228 531 
L 3431 531 
L 3431 0 
L 469 0 
L 469 531 
Q 828 903 1448 1529 
Q 2069 2156 2228 2338 
Q 2531 2678 2651 2914 
Q 2772 3150 2772 3378 
Q 2772 3750 2511 3984 
Q 2250 4219 1831 4219 
Q 1534 4219 1204 4116 
Q 875 4013 500 3803 
L 500 4441 
Q 881 4594 1212 4672 
Q 1544 4750 1819 4750 
Q 2544 4750 2975 4387 
Q 3406 4025 3406 3419 
Q 3406 3131 3298 2873 
Q 3191 2616 2906 2266 
Q 2828 2175 2409 1742 
Q 1991 1309 1228 531 
z
" transform="scale(0.015625)"/>
       </defs>
       <use xlink:href="#DejaVuSans-32"/>
       <use xlink:href="#DejaVuSans-30" transform="translate(63.623047 0)"/>
       <use xlink:href="#DejaVuSans-30" transform="translate(127.246094 0)"/>
      </g>
     </g>
    </g>
    <g id="ytick_6">
     <g id="line2d_7">
      <g>
       <use xlink:href="#m6d0aee2002" x="72" y="184.765549" style="stroke: #000000; stroke-width: 0.8"/>
      </g>
     </g>
     <g id="text_7">
      <!-- 250 -->
      <g transform="translate(45.9125 188.564767) scale(0.1 -0.1)">
       <use xlink:href="#DejaVuSans-32"/>
       <use xlink:href="#DejaVuSans-35" transform="translate(63.623047 0)"/>
       <use xlink:href="#DejaVuSans-30" transform="translate(127.246094 0)"/>
      </g>
     </g>
    </g>
    <g id="ytick_7">
     <g id="line2d_8">
      <g>
       <use xlink:href="#m6d0aee2002" x="72" y="144.822658" style="stroke: #000000; stroke-width: 0.8"/>
      </g>
     </g>
     <g id="text_8">
      <!-- 300 -->
      <g transform="translate(45.9125 148.621877) scale(0.1 -0.1)">
       <defs>
        <path id="DejaVuSans-33" d="M 2597 2516 
Q 3050 2419 3304 2112 
Q 3559 1806 3559 1356 
Q 3559 666 3084 287 
Q 2609 -91 1734 -91 
Q 1441 -91 1130 -33 
Q 819 25 488 141 
L 488 750 
Q 750 597 1062 519 
Q 1375 441 1716 441 
Q 2309 441 2620 675 
Q 2931 909 2931 1356 
Q 2931 1769 2642 2001 
Q 2353 2234 1838 2234 
L 1294 2234 
L 1294 2753 
L 1863 2753 
Q 2328 2753 2575 2939 
Q 2822 3125 2822 3475 
Q 2822 3834 2567 4026 
Q 2313 4219 1838 4219 
Q 1578 4219 1281 4162 
Q 984 4106 628 3988 
L 628 4550 
Q 988 4650 1302 4700 
Q 1616 4750 1894 4750 
Q 2613 4750 3031 4423 
Q 3450 4097 3450 3541 
Q 3450 3153 3228 2886 
Q 3006 2619 2597 2516 
z
" transform="scale(0.015625)"/>
       </defs>
       <use xlink:href="#DejaVuSans-33"/>
       <use xlink:href="#DejaVuSans-30" transform="translate(63.623047 0)"/>
       <use xlink:href="#DejaVuSans-30" transform="translate(127.246094 0)"/>
      </g>
     </g>
    </g>
    <g id="ytick_8">
     <g id="line2d_9">
      <g>
       <use xlink:href="#m6d0aee2002" x="72" y="104.879768" style="stroke: #000000; stroke-width: 0.8"/>
      </g>
     </g>
     <g id="text_9">
      <!-- 350 -->
      <g transform="translate(45.9125 108.678987) scale(0.1 -0.1)">
       <use xlink:href="#DejaVuSans-33"/>
       <use xlink:href="#DejaVuSans-35" transform="translate(63.623047 0)"/>
       <use xlink:href="#DejaVuSans-30" transform="translate(127.246094 0)"/>
      </g>
     </g>
    </g>
    <g id="ytick_9">
     <g id="line2d_10">
      <g>
       <use xlink:href="#m6d0aee2002" x="72" y="64.936878" style="stroke: #000000; stroke-width: 0.8"/>
      </g>
     </g>
     <g id="text_10">
      <!-- 400 -->
      <g transform="translate(45.9125 68.736096) scale(0.1 -0.1)">
       <defs>
        <path id="DejaVuSans-34" d="M 2419 4116 
L 825 1625 
L 2419 1625 
L 2419 4116 
z
M 2253 4666 
L 3047 4666 
L 3047 1625 
L 3713 1625 
L 3713 1100 
L 3047 1100 
L 3047 0 
L 2419 0 
L 2419 1100 
L 313 1100 
L 313 1709 
L 2253 4666 
z
" transform="scale(0.015625)"/>
       </defs>
       <use xlink:href="#DejaVuSans-34"/>
       <use xlink:href="#DejaVuSans-30" transform="translate(63.623047 0)"/>
       <use xlink:href="#DejaVuSans-30" transform="translate(127.246094 0)"/>
      </g>
     </g>
    </g>
    <g id="text_11">
     <!-- Time (ms) -->
     <g transform="translate(39.832812 243.359219) rotate(-90) scale(0.1 -0.1)">
      <defs>
       <path id="DejaVuSans-54" d="M -19 4666 
L 3928 4666 
L 3928 4134 
L 2272 4134 
L 2272 0 
L 1638 0 
L 1638 4134 
L -19 4134 
L -19 4666 
z
" transform="scale(0.015625)"/>
       <path id="DejaVuSans-69" d="M 603 3500 
L 1178 3500 
L 1178 0 
L 603 0 
L 603 3500 
z
M 603 4863 
L 1178 4863 
L 1178 4134 
L 603 4134 
L 603 4863 
z
" transform="scale(0.015625)"/>
       <path id="DejaVuSans-6d" d="M 3328 2828 
Q 3544 3216 3844 3400 
Q 4144 3584 4550 3584 
Q 5097 3584 5394 3201 
Q 5691 2819 5691 2113 
L 5691 0 
L 5113 0 
L 5113 2094 
Q 5113 2597 4934 2840 
Q 4756 3084 4391 3084 
Q 3944 3084 3684 2787 
Q 3425 2491 3425 1978 
L 3425 0 
L 2847 0 
L 2847 2094 
Q 2847 2600 2669 2842 
Q 2491 3084 2119 3084 
Q 1678 3084 1418 2786 
Q 1159 2488 1159 1978 
L 1159 0 
L 581 0 
L 581 3500 
L 1159 3500 
L 1159 2956 
Q 1356 3278 1631 3431 
Q 1906 3584 2284 3584 
Q 2666 3584 2933 3390 
Q 3200 3197 3328 2828 
z
" transform="scale(0.015625)"/>
       <path id="DejaVuSans-65" d="M 3597 1894 
L 3597 1613 
L 953 1613 
Q 991 1019 1311 708 
Q 1631 397 2203 397 
Q 2534 397 2845 478 
Q 3156 559 3463 722 
L 3463 178 
Q 3153 47 2828 -22 
Q 2503 -91 2169 -91 
Q 1331 -91 842 396 
Q 353 884 353 1716 
Q 353 2575 817 3079 
Q 1281 3584 2069 3584 
Q 2775 3584 3186 3129 
Q 3597 2675 3597 1894 
z
M 3022 2063 
Q 3016 2534 2758 2815 
Q 2500 3097 2075 3097 
Q 1594 3097 1305 2825 
Q 1016 2553 972 2059 
L 3022 2063 
z
" transform="scale(0.015625)"/>
       <path id="DejaVuSans-20" transform="scale(0.015625)"/>
       <path id="DejaVuSans-28" d="M 1984 4856 
Q 1566 4138 1362 3434 
Q 1159 2731 1159 2009 
Q 1159 1288 1364 580 
Q 1569 -128 1984 -844 
L 1484 -844 
Q 1016 -109 783 600 
Q 550 1309 550 2009 
Q 550 2706 781 3412 
Q 1013 4119 1484 4856 
L 1984 4856 
z
" transform="scale(0.015625)"/>
       <path id="DejaVuSans-73" d="M 2834 3397 
L 2834 2853 
Q 2591 2978 2328 3040 
Q 2066 3103 1784 3103 
Q 1356 3103 1142 2972 
Q 928 2841 928 2578 
Q 928 2378 1081 2264 
Q 1234 2150 1697 2047 
L 1894 2003 
Q 2506 1872 2764 1633 
Q 3022 1394 3022 966 
Q 3022 478 2636 193 
Q 2250 -91 1575 -91 
Q 1294 -91 989 -36 
Q 684 19 347 128 
L 347 722 
Q 666 556 975 473 
Q 1284 391 1588 391 
Q 1994 391 2212 530 
Q 2431 669 2431 922 
Q 2431 1156 2273 1281 
Q 2116 1406 1581 1522 
L 1381 1569 
Q 847 1681 609 1914 
Q 372 2147 372 2553 
Q 372 3047 722 3315 
Q 1072 3584 1716 3584 
Q 2034 3584 2315 3537 
Q 2597 3491 2834 3397 
z
" transform="scale(0.015625)"/>
       <path id="DejaVuSans-29" d="M 513 4856 
L 1013 4856 
Q 1481 4119 1714 3412 
Q 1947 2706 1947 2009 
Q 1947 1309 1714 600 
Q 1481 -109 1013 -844 
L 513 -844 
Q 928 -128 1133 580 
Q 1338 1288 1338 2009 
Q 1338 2731 1133 3434 
Q 928 4138 513 4856 
z
" transform="scale(0.015625)"/>
      </defs>
      <use xlink:href="#DejaVuSans-54"/>
      <use xlink:href="#DejaVuSans-69" transform="translate(57.958984 0)"/>
      <use xlink:href="#DejaVuSans-6d" transform="translate(85.742188 0)"/>
      <use xlink:href="#DejaVuSans-65" transform="translate(183.154297 0)"/>
      <use xlink:href="#DejaVuSans-20" transform="translate(244.677734 0)"/>
      <use xlink:href="#DejaVuSans-28" transform="translate(276.464844 0)"/>
      <use xlink:href="#DejaVuSans-6d" transform="translate(315.478516 0)"/>
      <use xlink:href="#DejaVuSans-73" transform="translate(412.890625 0)"/>
      <use xlink:href="#DejaVuSans-29" transform="translate(464.990234 0)"/>
     </g>
    </g>
   </g>
   <g id="LineCollection_1">
    <path d="M 239.4 363.307476 
L 351 363.307476 
" clip-path="url(#p96dc13ed26)" style="fill: none; stroke: #1f77b4; stroke-width: 1.5"/>
   </g>
   <g id="LineCollection_2">
    <path d="M 239.4 67.048653 
L 351 67.048653 
" clip-path="url(#p96dc13ed26)" style="fill: none; stroke: #1f77b4; stroke-width: 1.5"/>
   </g>
   <g id="LineCollection_3">
    <path d="M 239.4 371.221707 
L 351 371.221707 
" clip-path="url(#p96dc13ed26)" style="fill: none; stroke: #1f77b4; stroke-width: 1.5"/>
   </g>
   <g id="LineCollection_4">
    <path d="M 295.2 371.221707 
L 295.2 67.048653 
" clip-path="url(#p96dc13ed26)" style="fill: none; stroke: #1f77b4; stroke-width: 1.5"/>
   </g>
   <g id="patch_3">
    <path d="M 250.56 367.561829 
L 339.84 367.561829 
L 339.84 361.72234 
L 250.56 361.72234 
L 250.56 367.561829 
z
" clip-path="url(#p96dc13ed26)" style="fill: #1f77b4; stroke: #000000; stroke-linejoin: miter"/>
   </g>
   <g id="line2d_11">
    <path d="M 295.2 367.561829 
L 295.2 371.221707 
" clip-path="url(#p96dc13ed26)" style="fill: none; stroke: #000000; stroke-linecap: square"/>
   </g>
   <g id="line2d_12">
    <path d="M 295.2 361.72234 
L 295.2 352.971673 
" clip-path="url(#p96dc13ed26)" style="fill: none; stroke: #000000; stroke-linecap: square"/>
   </g>
   <g id="line2d_13">
    <path d="M 272.88 371.221707 
L 317.52 371.221707 
" clip-path="url(#p96dc13ed26)" style="fill: none; stroke: #000000; stroke-linecap: square"/>
   </g>
   <g id="line2d_14">
    <path d="M 272.88 352.971673 
L 317.52 352.971673 
" clip-path="url(#p96dc13ed26)" style="fill: none; stroke: #000000; stroke-linecap: square"/>
   </g>
   <g id="line2d_15">
    <defs>
     <path id="meaca376f6f" d="M 0 3 
C 0.795609 3 1.55874 2.683901 2.12132 2.12132 
C 2.683901 1.55874 3 0.795609 3 0 
C 3 -0.795609 2.683901 -1.55874 2.12132 -2.12132 
C 1.55874 -2.683901 0.795609 -3 0 -3 
C -0.795609 -3 -1.55874 -2.683901 -2.12132 -2.12132 
C -2.683901 -1.55874 -3 -0.795609 -3 0 
C -3 0.795609 -2.683901 1.55874 -2.12132 2.12132 
C -1.55874 2.683901 -0.795609 3 0 3 
z
" style="stroke: #000000"/>
    </defs>
    <g clip-path="url(#p96dc13ed26)">
     <use xlink:href="#meaca376f6f" x="295.2" y="192.640315" style="fill-opacity: 0; stroke: #000000"/>
     <use xlink:href="#meaca376f6f" x="295.2" y="338.358366" style="fill-opacity: 0; stroke: #000000"/>
     <use xlink:href="#meaca376f6f" x="295.2" y="348.558203" style="fill-opacity: 0; stroke: #000000"/>
     <use xlink:href="#meaca376f6f" x="295.2" y="352.199226" style="fill-opacity: 0; stroke: #000000"/>
     <use xlink:href="#meaca376f6f" x="295.2" y="346.313559" style="fill-opacity: 0; stroke: #000000"/>
     <use xlink:href="#meaca376f6f" x="295.2" y="350.318881" style="fill-opacity: 0; stroke: #000000"/>
     <use xlink:href="#meaca376f6f" x="295.2" y="317.560774" style="fill-opacity: 0; stroke: #000000"/>
     <use xlink:href="#meaca376f6f" x="295.2" y="350.817309" style="fill-opacity: 0; stroke: #000000"/>
     <use xlink:href="#meaca376f6f" x="295.2" y="347.30251" style="fill-opacity: 0; stroke: #000000"/>
     <use xlink:href="#meaca376f6f" x="295.2" y="347.962953" style="fill-opacity: 0; stroke: #000000"/>
     <use xlink:href="#meaca376f6f" x="295.2" y="350.116123" style="fill-opacity: 0; stroke: #000000"/>
     <use xlink:href="#meaca376f6f" x="295.2" y="351.570654" style="fill-opacity: 0; stroke: #000000"/>
     <use xlink:href="#meaca376f6f" x="295.2" y="352.224147" style="fill-opacity: 0; stroke: #000000"/>
     <use xlink:href="#meaca376f6f" x="295.2" y="213.90606" style="fill-opacity: 0; stroke: #000000"/>
     <use xlink:href="#meaca376f6f" x="295.2" y="331.612131" style="fill-opacity: 0; stroke: #000000"/>
     <use xlink:href="#meaca376f6f" x="295.2" y="350.843965" style="fill-opacity: 0; stroke: #000000"/>
     <use xlink:href="#meaca376f6f" x="295.2" y="352.273208" style="fill-opacity: 0; stroke: #000000"/>
     <use xlink:href="#meaca376f6f" x="295.2" y="347.002903" style="fill-opacity: 0; stroke: #000000"/>
     <use xlink:href="#meaca376f6f" x="295.2" y="351.673788" style="fill-opacity: 0; stroke: #000000"/>
     <use xlink:href="#meaca376f6f" x="295.2" y="351.472065" style="fill-opacity: 0; stroke: #000000"/>
     <use xlink:href="#meaca376f6f" x="295.2" y="324.361017" style="fill-opacity: 0; stroke: #000000"/>
     <use xlink:href="#meaca376f6f" x="295.2" y="333.411987" style="fill-opacity: 0; stroke: #000000"/>
     <use xlink:href="#meaca376f6f" x="295.2" y="352.226952" style="fill-opacity: 0; stroke: #000000"/>
     <use xlink:href="#meaca376f6f" x="295.2" y="344.744794" style="fill-opacity: 0; stroke: #000000"/>
     <use xlink:href="#meaca376f6f" x="295.2" y="345.721936" style="fill-opacity: 0; stroke: #000000"/>
     <use xlink:href="#meaca376f6f" x="295.2" y="352.057902" style="fill-opacity: 0; stroke: #000000"/>
     <use xlink:href="#meaca376f6f" x="295.2" y="350.590517" style="fill-opacity: 0; stroke: #000000"/>
     <use xlink:href="#meaca376f6f" x="295.2" y="346.389633" style="fill-opacity: 0; stroke: #000000"/>
     <use xlink:href="#meaca376f6f" x="295.2" y="337.806914" style="fill-opacity: 0; stroke: #000000"/>
     <use xlink:href="#meaca376f6f" x="295.2" y="347.645606" style="fill-opacity: 0; stroke: #000000"/>
     <use xlink:href="#meaca376f6f" x="295.2" y="218.040065" style="fill-opacity: 0; stroke: #000000"/>
     <use xlink:href="#meaca376f6f" x="295.2" y="332.129392" style="fill-opacity: 0; stroke: #000000"/>
     <use xlink:href="#meaca376f6f" x="295.2" y="348.173947" style="fill-opacity: 0; stroke: #000000"/>
     <use xlink:href="#meaca376f6f" x="295.2" y="351.410055" style="fill-opacity: 0; stroke: #000000"/>
     <use xlink:href="#meaca376f6f" x="295.2" y="352.065009" style="fill-opacity: 0; stroke: #000000"/>
     <use xlink:href="#meaca376f6f" x="295.2" y="346.10778" style="fill-opacity: 0; stroke: #000000"/>
     <use xlink:href="#meaca376f6f" x="295.2" y="324.945182" style="fill-opacity: 0; stroke: #000000"/>
     <use xlink:href="#meaca376f6f" x="295.2" y="318.471691" style="fill-opacity: 0; stroke: #000000"/>
     <use xlink:href="#meaca376f6f" x="295.2" y="346.569557" style="fill-opacity: 0; stroke: #000000"/>
     <use xlink:href="#meaca376f6f" x="295.2" y="349.997324" style="fill-opacity: 0; stroke: #000000"/>
     <use xlink:href="#meaca376f6f" x="295.2" y="328.163632" style="fill-opacity: 0; stroke: #000000"/>
     <use xlink:href="#meaca376f6f" x="295.2" y="352.63482" style="fill-opacity: 0; stroke: #000000"/>
     <use xlink:href="#meaca376f6f" x="295.2" y="348.506252" style="fill-opacity: 0; stroke: #000000"/>
     <use xlink:href="#meaca376f6f" x="295.2" y="352.202205" style="fill-opacity: 0; stroke: #000000"/>
     <use xlink:href="#meaca376f6f" x="295.2" y="351.41655" style="fill-opacity: 0; stroke: #000000"/>
     <use xlink:href="#meaca376f6f" x="295.2" y="335.731477" style="fill-opacity: 0; stroke: #000000"/>
     <use xlink:href="#meaca376f6f" x="295.2" y="342.158212" style="fill-opacity: 0; stroke: #000000"/>
     <use xlink:href="#meaca376f6f" x="295.2" y="352.63578" style="fill-opacity: 0; stroke: #000000"/>
     <use xlink:href="#meaca376f6f" x="295.2" y="186.177528" style="fill-opacity: 0; stroke: #000000"/>
     <use xlink:href="#meaca376f6f" x="295.2" y="288.784532" style="fill-opacity: 0; stroke: #000000"/>
     <use xlink:href="#meaca376f6f" x="295.2" y="335.171588" style="fill-opacity: 0; stroke: #000000"/>
     <use xlink:href="#meaca376f6f" x="295.2" y="285.817161" style="fill-opacity: 0; stroke: #000000"/>
     <use xlink:href="#meaca376f6f" x="295.2" y="300.470911" style="fill-opacity: 0; stroke: #000000"/>
     <use xlink:href="#meaca376f6f" x="295.2" y="336.371112" style="fill-opacity: 0; stroke: #000000"/>
     <use xlink:href="#meaca376f6f" x="295.2" y="311.561003" style="fill-opacity: 0; stroke: #000000"/>
     <use xlink:href="#meaca376f6f" x="295.2" y="324.695997" style="fill-opacity: 0; stroke: #000000"/>
     <use xlink:href="#meaca376f6f" x="295.2" y="335.561532" style="fill-opacity: 0; stroke: #000000"/>
     <use xlink:href="#meaca376f6f" x="295.2" y="314.699481" style="fill-opacity: 0; stroke: #000000"/>
     <use xlink:href="#meaca376f6f" x="295.2" y="334.794132" style="fill-opacity: 0; stroke: #000000"/>
     <use xlink:href="#meaca376f6f" x="295.2" y="352.686624" style="fill-opacity: 0; stroke: #000000"/>
     <use xlink:href="#meaca376f6f" x="295.2" y="343.254647" style="fill-opacity: 0; stroke: #000000"/>
     <use xlink:href="#meaca376f6f" x="295.2" y="352.47895" style="fill-opacity: 0; stroke: #000000"/>
     <use xlink:href="#meaca376f6f" x="295.2" y="325.42962" style="fill-opacity: 0; stroke: #000000"/>
     <use xlink:href="#meaca376f6f" x="295.2" y="318.025941" style="fill-opacity: 0; stroke: #000000"/>
     <use xlink:href="#meaca376f6f" x="295.2" y="341.873671" style="fill-opacity: 0; stroke: #000000"/>
     <use xlink:href="#meaca376f6f" x="295.2" y="352.369358" style="fill-opacity: 0; stroke: #000000"/>
     <use xlink:href="#meaca376f6f" x="295.2" y="352.642419" style="fill-opacity: 0; stroke: #000000"/>
     <use xlink:href="#meaca376f6f" x="295.2" y="345.623712" style="fill-opacity: 0; stroke: #000000"/>
     <use xlink:href="#meaca376f6f" x="295.2" y="343.30005" style="fill-opacity: 0; stroke: #000000"/>
     <use xlink:href="#meaca376f6f" x="295.2" y="349.967039" style="fill-opacity: 0; stroke: #000000"/>
     <use xlink:href="#meaca376f6f" x="295.2" y="351.621624" style="fill-opacity: 0; stroke: #000000"/>
     <use xlink:href="#meaca376f6f" x="295.2" y="351.692485" style="fill-opacity: 0; stroke: #000000"/>
     <use xlink:href="#meaca376f6f" x="295.2" y="350.54457" style="fill-opacity: 0; stroke: #000000"/>
     <use xlink:href="#meaca376f6f" x="295.2" y="352.795309" style="fill-opacity: 0; stroke: #000000"/>
     <use xlink:href="#meaca376f6f" x="295.2" y="348.000128" style="fill-opacity: 0; stroke: #000000"/>
     <use xlink:href="#meaca376f6f" x="295.2" y="351.233931" style="fill-opacity: 0; stroke: #000000"/>
     <use xlink:href="#meaca376f6f" x="295.2" y="352.604291" style="fill-opacity: 0; stroke: #000000"/>
     <use xlink:href="#meaca376f6f" x="295.2" y="352.923644" style="fill-opacity: 0; stroke: #000000"/>
     <use xlink:href="#meaca376f6f" x="295.2" y="210.208699" style="fill-opacity: 0; stroke: #000000"/>
     <use xlink:href="#meaca376f6f" x="295.2" y="337.737639" style="fill-opacity: 0; stroke: #000000"/>
     <use xlink:href="#meaca376f6f" x="295.2" y="349.695756" style="fill-opacity: 0; stroke: #000000"/>
     <use xlink:href="#meaca376f6f" x="295.2" y="350.872146" style="fill-opacity: 0; stroke: #000000"/>
     <use xlink:href="#meaca376f6f" x="295.2" y="349.154257" style="fill-opacity: 0; stroke: #000000"/>
     <use xlink:href="#meaca376f6f" x="295.2" y="349.595653" style="fill-opacity: 0; stroke: #000000"/>
     <use xlink:href="#meaca376f6f" x="295.2" y="351.645409" style="fill-opacity: 0; stroke: #000000"/>
     <use xlink:href="#meaca376f6f" x="295.2" y="305.944182" style="fill-opacity: 0; stroke: #000000"/>
     <use xlink:href="#meaca376f6f" x="295.2" y="342.714909" style="fill-opacity: 0; stroke: #000000"/>
     <use xlink:href="#meaca376f6f" x="295.2" y="343.493142" style="fill-opacity: 0; stroke: #000000"/>
     <use xlink:href="#meaca376f6f" x="295.2" y="344.773338" style="fill-opacity: 0; stroke: #000000"/>
     <use xlink:href="#meaca376f6f" x="295.2" y="341.455088" style="fill-opacity: 0; stroke: #000000"/>
     <use xlink:href="#meaca376f6f" x="295.2" y="347.611434" style="fill-opacity: 0; stroke: #000000"/>
     <use xlink:href="#meaca376f6f" x="295.2" y="351.831067" style="fill-opacity: 0; stroke: #000000"/>
     <use xlink:href="#meaca376f6f" x="295.2" y="150.032988" style="fill-opacity: 0; stroke: #000000"/>
     <use xlink:href="#meaca376f6f" x="295.2" y="304.438696" style="fill-opacity: 0; stroke: #000000"/>
     <use xlink:href="#meaca376f6f" x="295.2" y="335.040711" style="fill-opacity: 0; stroke: #000000"/>
     <use xlink:href="#meaca376f6f" x="295.2" y="318.625949" style="fill-opacity: 0; stroke: #000000"/>
     <use xlink:href="#meaca376f6f" x="295.2" y="324.278722" style="fill-opacity: 0; stroke: #000000"/>
     <use xlink:href="#meaca376f6f" x="295.2" y="331.443289" style="fill-opacity: 0; stroke: #000000"/>
     <use xlink:href="#meaca376f6f" x="295.2" y="345.95864" style="fill-opacity: 0; stroke: #000000"/>
     <use xlink:href="#meaca376f6f" x="295.2" y="313.172097" style="fill-opacity: 0; stroke: #000000"/>
     <use xlink:href="#meaca376f6f" x="295.2" y="349.198645" style="fill-opacity: 0; stroke: #000000"/>
     <use xlink:href="#meaca376f6f" x="295.2" y="333.945131" style="fill-opacity: 0; stroke: #000000"/>
     <use xlink:href="#meaca376f6f" x="295.2" y="337.596158" style="fill-opacity: 0; stroke: #000000"/>
     <use xlink:href="#meaca376f6f" x="295.2" y="349.701697" style="fill-opacity: 0; stroke: #000000"/>
     <use xlink:href="#meaca376f6f" x="295.2" y="329.283045" style="fill-opacity: 0; stroke: #000000"/>
     <use xlink:href="#meaca376f6f" x="295.2" y="349.48648" style="fill-opacity: 0; stroke: #000000"/>
     <use xlink:href="#meaca376f6f" x="295.2" y="346.735308" style="fill-opacity: 0; stroke: #000000"/>
     <use xlink:href="#meaca376f6f" x="295.2" y="348.94596" style="fill-opacity: 0; stroke: #000000"/>
     <use xlink:href="#meaca376f6f" x="295.2" y="350.737726" style="fill-opacity: 0; stroke: #000000"/>
     <use xlink:href="#meaca376f6f" x="295.2" y="323.829228" style="fill-opacity: 0; stroke: #000000"/>
     <use xlink:href="#meaca376f6f" x="295.2" y="351.024926" style="fill-opacity: 0; stroke: #000000"/>
     <use xlink:href="#meaca376f6f" x="295.2" y="347.1901" style="fill-opacity: 0; stroke: #000000"/>
     <use xlink:href="#meaca376f6f" x="295.2" y="347.767696" style="fill-opacity: 0; stroke: #000000"/>
     <use xlink:href="#meaca376f6f" x="295.2" y="348.39722" style="fill-opacity: 0; stroke: #000000"/>
     <use xlink:href="#meaca376f6f" x="295.2" y="342.20623" style="fill-opacity: 0; stroke: #000000"/>
     <use xlink:href="#meaca376f6f" x="295.2" y="345.958133" style="fill-opacity: 0; stroke: #000000"/>
     <use xlink:href="#meaca376f6f" x="295.2" y="342.551351" style="fill-opacity: 0; stroke: #000000"/>
     <use xlink:href="#meaca376f6f" x="295.2" y="348.081627" style="fill-opacity: 0; stroke: #000000"/>
     <use xlink:href="#meaca376f6f" x="295.2" y="340.463015" style="fill-opacity: 0; stroke: #000000"/>
     <use xlink:href="#meaca376f6f" x="295.2" y="351.434727" style="fill-opacity: 0; stroke: #000000"/>
     <use xlink:href="#meaca376f6f" x="295.2" y="67.048653" style="fill-opacity: 0; stroke: #000000"/>
     <use xlink:href="#meaca376f6f" x="295.2" y="305.159611" style="fill-opacity: 0; stroke: #000000"/>
     <use xlink:href="#meaca376f6f" x="295.2" y="342.267303" style="fill-opacity: 0; stroke: #000000"/>
     <use xlink:href="#meaca376f6f" x="295.2" y="347.584014" style="fill-opacity: 0; stroke: #000000"/>
     <use xlink:href="#meaca376f6f" x="295.2" y="348.937099" style="fill-opacity: 0; stroke: #000000"/>
     <use xlink:href="#meaca376f6f" x="295.2" y="352.567348" style="fill-opacity: 0; stroke: #000000"/>
     <use xlink:href="#meaca376f6f" x="295.2" y="347.157965" style="fill-opacity: 0; stroke: #000000"/>
     <use xlink:href="#meaca376f6f" x="295.2" y="349.04479" style="fill-opacity: 0; stroke: #000000"/>
     <use xlink:href="#meaca376f6f" x="295.2" y="320.809682" style="fill-opacity: 0; stroke: #000000"/>
     <use xlink:href="#meaca376f6f" x="295.2" y="349.372915" style="fill-opacity: 0; stroke: #000000"/>
     <use xlink:href="#meaca376f6f" x="295.2" y="343.926638" style="fill-opacity: 0; stroke: #000000"/>
     <use xlink:href="#meaca376f6f" x="295.2" y="347.277524" style="fill-opacity: 0; stroke: #000000"/>
     <use xlink:href="#meaca376f6f" x="295.2" y="352.774944" style="fill-opacity: 0; stroke: #000000"/>
     <use xlink:href="#meaca376f6f" x="295.2" y="345.229602" style="fill-opacity: 0; stroke: #000000"/>
     <use xlink:href="#meaca376f6f" x="295.2" y="196.091708" style="fill-opacity: 0; stroke: #000000"/>
     <use xlink:href="#meaca376f6f" x="295.2" y="303.840732" style="fill-opacity: 0; stroke: #000000"/>
     <use xlink:href="#meaca376f6f" x="295.2" y="331.085897" style="fill-opacity: 0; stroke: #000000"/>
     <use xlink:href="#meaca376f6f" x="295.2" y="307.911449" style="fill-opacity: 0; stroke: #000000"/>
     <use xlink:href="#meaca376f6f" x="295.2" y="334.81613" style="fill-opacity: 0; stroke: #000000"/>
     <use xlink:href="#meaca376f6f" x="295.2" y="312.246997" style="fill-opacity: 0; stroke: #000000"/>
     <use xlink:href="#meaca376f6f" x="295.2" y="297.269904" style="fill-opacity: 0; stroke: #000000"/>
     <use xlink:href="#meaca376f6f" x="295.2" y="344.621562" style="fill-opacity: 0; stroke: #000000"/>
     <use xlink:href="#meaca376f6f" x="295.2" y="308.402204" style="fill-opacity: 0; stroke: #000000"/>
     <use xlink:href="#meaca376f6f" x="295.2" y="317.07977" style="fill-opacity: 0; stroke: #000000"/>
     <use xlink:href="#meaca376f6f" x="295.2" y="335.207903" style="fill-opacity: 0; stroke: #000000"/>
     <use xlink:href="#meaca376f6f" x="295.2" y="312.71059" style="fill-opacity: 0; stroke: #000000"/>
     <use xlink:href="#meaca376f6f" x="295.2" y="335.533849" style="fill-opacity: 0; stroke: #000000"/>
     <use xlink:href="#meaca376f6f" x="295.2" y="314.652119" style="fill-opacity: 0; stroke: #000000"/>
     <use xlink:href="#meaca376f6f" x="295.2" y="307.695909" style="fill-opacity: 0; stroke: #000000"/>
     <use xlink:href="#meaca376f6f" x="295.2" y="281.767506" style="fill-opacity: 0; stroke: #000000"/>
     <use xlink:href="#meaca376f6f" x="295.2" y="299.30413" style="fill-opacity: 0; stroke: #000000"/>
     <use xlink:href="#meaca376f6f" x="295.2" y="349.356449" style="fill-opacity: 0; stroke: #000000"/>
     <use xlink:href="#meaca376f6f" x="295.2" y="350.668938" style="fill-opacity: 0; stroke: #000000"/>
     <use xlink:href="#meaca376f6f" x="295.2" y="350.501891" style="fill-opacity: 0; stroke: #000000"/>
     <use xlink:href="#meaca376f6f" x="295.2" y="350.748906" style="fill-opacity: 0; stroke: #000000"/>
     <use xlink:href="#meaca376f6f" x="295.2" y="352.792215" style="fill-opacity: 0; stroke: #000000"/>
     <use xlink:href="#meaca376f6f" x="295.2" y="341.439017" style="fill-opacity: 0; stroke: #000000"/>
     <use xlink:href="#meaca376f6f" x="295.2" y="349.086346" style="fill-opacity: 0; stroke: #000000"/>
     <use xlink:href="#meaca376f6f" x="295.2" y="347.180845" style="fill-opacity: 0; stroke: #000000"/>
     <use xlink:href="#meaca376f6f" x="295.2" y="339.285062" style="fill-opacity: 0; stroke: #000000"/>
     <use xlink:href="#meaca376f6f" x="295.2" y="160.112407" style="fill-opacity: 0; stroke: #000000"/>
     <use xlink:href="#meaca376f6f" x="295.2" y="318.789979" style="fill-opacity: 0; stroke: #000000"/>
     <use xlink:href="#meaca376f6f" x="295.2" y="336.446447" style="fill-opacity: 0; stroke: #000000"/>
     <use xlink:href="#meaca376f6f" x="295.2" y="352.523513" style="fill-opacity: 0; stroke: #000000"/>
     <use xlink:href="#meaca376f6f" x="295.2" y="349.198062" style="fill-opacity: 0; stroke: #000000"/>
     <use xlink:href="#meaca376f6f" x="295.2" y="347.199722" style="fill-opacity: 0; stroke: #000000"/>
     <use xlink:href="#meaca376f6f" x="295.2" y="339.803953" style="fill-opacity: 0; stroke: #000000"/>
     <use xlink:href="#meaca376f6f" x="295.2" y="328.101461" style="fill-opacity: 0; stroke: #000000"/>
     <use xlink:href="#meaca376f6f" x="295.2" y="337.887555" style="fill-opacity: 0; stroke: #000000"/>
     <use xlink:href="#meaca376f6f" x="295.2" y="350.079331" style="fill-opacity: 0; stroke: #000000"/>
     <use xlink:href="#meaca376f6f" x="295.2" y="352.276519" style="fill-opacity: 0; stroke: #000000"/>
     <use xlink:href="#meaca376f6f" x="295.2" y="351.541993" style="fill-opacity: 0; stroke: #000000"/>
     <use xlink:href="#meaca376f6f" x="295.2" y="352.274456" style="fill-opacity: 0; stroke: #000000"/>
     <use xlink:href="#meaca376f6f" x="295.2" y="352.903899" style="fill-opacity: 0; stroke: #000000"/>
     <use xlink:href="#meaca376f6f" x="295.2" y="337.593463" style="fill-opacity: 0; stroke: #000000"/>
     <use xlink:href="#meaca376f6f" x="295.2" y="352.274793" style="fill-opacity: 0; stroke: #000000"/>
     <use xlink:href="#meaca376f6f" x="295.2" y="351.234242" style="fill-opacity: 0; stroke: #000000"/>
     <use xlink:href="#meaca376f6f" x="295.2" y="347.498403" style="fill-opacity: 0; stroke: #000000"/>
     <use xlink:href="#meaca376f6f" x="295.2" y="146.784103" style="fill-opacity: 0; stroke: #000000"/>
     <use xlink:href="#meaca376f6f" x="295.2" y="260.309479" style="fill-opacity: 0; stroke: #000000"/>
     <use xlink:href="#meaca376f6f" x="295.2" y="318.73478" style="fill-opacity: 0; stroke: #000000"/>
     <use xlink:href="#meaca376f6f" x="295.2" y="288.04506" style="fill-opacity: 0; stroke: #000000"/>
     <use xlink:href="#meaca376f6f" x="295.2" y="310.608221" style="fill-opacity: 0; stroke: #000000"/>
     <use xlink:href="#meaca376f6f" x="295.2" y="338.842229" style="fill-opacity: 0; stroke: #000000"/>
     <use xlink:href="#meaca376f6f" x="295.2" y="323.852637" style="fill-opacity: 0; stroke: #000000"/>
     <use xlink:href="#meaca376f6f" x="295.2" y="346.094962" style="fill-opacity: 0; stroke: #000000"/>
     <use xlink:href="#meaca376f6f" x="295.2" y="352.443589" style="fill-opacity: 0; stroke: #000000"/>
     <use xlink:href="#meaca376f6f" x="295.2" y="347.340678" style="fill-opacity: 0; stroke: #000000"/>
     <use xlink:href="#meaca376f6f" x="295.2" y="350.853567" style="fill-opacity: 0; stroke: #000000"/>
     <use xlink:href="#meaca376f6f" x="295.2" y="311.954853" style="fill-opacity: 0; stroke: #000000"/>
     <use xlink:href="#meaca376f6f" x="295.2" y="324.239557" style="fill-opacity: 0; stroke: #000000"/>
     <use xlink:href="#meaca376f6f" x="295.2" y="349.044238" style="fill-opacity: 0; stroke: #000000"/>
     <use xlink:href="#meaca376f6f" x="295.2" y="338.403731" style="fill-opacity: 0; stroke: #000000"/>
     <use xlink:href="#meaca376f6f" x="295.2" y="340.190131" style="fill-opacity: 0; stroke: #000000"/>
     <use xlink:href="#meaca376f6f" x="295.2" y="350.009778" style="fill-opacity: 0; stroke: #000000"/>
     <use xlink:href="#meaca376f6f" x="295.2" y="350.112196" style="fill-opacity: 0; stroke: #000000"/>
     <use xlink:href="#meaca376f6f" x="295.2" y="347.773732" style="fill-opacity: 0; stroke: #000000"/>
    </g>
   </g>
   <g id="line2d_16">
    <path d="M 250.56 365.00555 
L 339.84 365.00555 
" clip-path="url(#p96dc13ed26)" style="fill: none; stroke: #ff7f0e"/>
   </g>
   <g id="patch_4">
    <path d="M 72 384.48 
L 72 51.84 
" style="fill: none; stroke: #000000; stroke-width: 0.8; stroke-linejoin: miter; stroke-linecap: square"/>
   </g>
   <g id="patch_5">
    <path d="M 518.4 384.48 
L 518.4 51.84 
" style="fill: none; stroke: #000000; stroke-width: 0.8; stroke-linejoin: miter; stroke-linecap: square"/>
   </g>
   <g id="patch_6">
    <path d="M 72 384.48 
L 518.4 384.48 
" style="fill: none; stroke: #000000; stroke-width: 0.8; stroke-linejoin: miter; stroke-linecap: square"/>
   </g>
   <g id="patch_7">
    <path d="M 72 51.84 
L 518.4 51.84 
" style="fill: none; stroke: #000000; stroke-width: 0.8; stroke-linejoin: miter; stroke-linecap: square"/>
   </g>
   <g id="text_12">
    <!-- Test Method -->
    <g transform="translate(258.975 45.84) scale(0.12 -0.12)">
     <defs>
      <path id="DejaVuSans-74" d="M 1172 4494 
L 1172 3500 
L 2356 3500 
L 2356 3053 
L 1172 3053 
L 1172 1153 
Q 1172 725 1289 603 
Q 1406 481 1766 481 
L 2356 481 
L 2356 0 
L 1766 0 
Q 1100 0 847 248 
Q 594 497 594 1153 
L 594 3053 
L 172 3053 
L 172 3500 
L 594 3500 
L 594 4494 
L 1172 4494 
z
" transform="scale(0.015625)"/>
      <path id="DejaVuSans-4d" d="M 628 4666 
L 1569 4666 
L 2759 1491 
L 3956 4666 
L 4897 4666 
L 4897 0 
L 4281 0 
L 4281 4097 
L 3078 897 
L 2444 897 
L 1241 4097 
L 1241 0 
L 628 0 
L 628 4666 
z
" transform="scale(0.015625)"/>
      <path id="DejaVuSans-68" d="M 3513 2113 
L 3513 0 
L 2938 0 
L 2938 2094 
Q 2938 2591 2744 2837 
Q 2550 3084 2163 3084 
Q 1697 3084 1428 2787 
Q 1159 2491 1159 1978 
L 1159 0 
L 581 0 
L 581 4863 
L 1159 4863 
L 1159 2956 
Q 1366 3272 1645 3428 
Q 1925 3584 2291 3584 
Q 2894 3584 3203 3211 
Q 3513 2838 3513 2113 
z
" transform="scale(0.015625)"/>
      <path id="DejaVuSans-6f" d="M 1959 3097 
Q 1497 3097 1228 2736 
Q 959 2375 959 1747 
Q 959 1119 1226 758 
Q 1494 397 1959 397 
Q 2419 397 2687 759 
Q 2956 1122 2956 1747 
Q 2956 2369 2687 2733 
Q 2419 3097 1959 3097 
z
M 1959 3584 
Q 2709 3584 3137 3096 
Q 3566 2609 3566 1747 
Q 3566 888 3137 398 
Q 2709 -91 1959 -91 
Q 1206 -91 779 398 
Q 353 888 353 1747 
Q 353 2609 779 3096 
Q 1206 3584 1959 3584 
z
" transform="scale(0.015625)"/>
      <path id="DejaVuSans-64" d="M 2906 2969 
L 2906 4863 
L 3481 4863 
L 3481 0 
L 2906 0 
L 2906 525 
Q 2725 213 2448 61 
Q 2172 -91 1784 -91 
Q 1150 -91 751 415 
Q 353 922 353 1747 
Q 353 2572 751 3078 
Q 1150 3584 1784 3584 
Q 2172 3584 2448 3432 
Q 2725 3281 2906 2969 
z
M 947 1747 
Q 947 1113 1208 752 
Q 1469 391 1925 391 
Q 2381 391 2643 752 
Q 2906 1113 2906 1747 
Q 2906 2381 2643 2742 
Q 2381 3103 1925 3103 
Q 1469 3103 1208 2742 
Q 947 2381 947 1747 
z
" transform="scale(0.015625)"/>
     </defs>
     <use xlink:href="#DejaVuSans-54"/>
     <use xlink:href="#DejaVuSans-65" transform="translate(44.083984 0)"/>
     <use xlink:href="#DejaVuSans-73" transform="translate(105.607422 0)"/>
     <use xlink:href="#DejaVuSans-74" transform="translate(157.707031 0)"/>
     <use xlink:href="#DejaVuSans-20" transform="translate(196.916016 0)"/>
     <use xlink:href="#DejaVuSans-4d" transform="translate(228.703125 0)"/>
     <use xlink:href="#DejaVuSans-65" transform="translate(314.982422 0)"/>
     <use xlink:href="#DejaVuSans-74" transform="translate(376.505859 0)"/>
     <use xlink:href="#DejaVuSans-68" transform="translate(415.714844 0)"/>
     <use xlink:href="#DejaVuSans-6f" transform="translate(479.09375 0)"/>
     <use xlink:href="#DejaVuSans-64" transform="translate(540.275391 0)"/>
    </g>
   </g>
  </g>
 </g>
 <defs>
  <clipPath id="p96dc13ed26">
   <rect x="72" y="51.84" width="446.4" height="332.64"/>
  </clipPath>
 </defs>
</svg>
