<?xml version="1.0" encoding="utf-8" standalone="no"?>
<!DOCTYPE svg PUBLIC "-//W3C//DTD SVG 1.1//EN"
  "http://www.w3.org/Graphics/SVG/1.1/DTD/svg11.dtd">
<svg xmlns:xlink="http://www.w3.org/1999/xlink" width="720pt" height="432pt" viewBox="0 0 720 432" xmlns="http://www.w3.org/2000/svg" version="1.1">
 <metadata>
  <rdf:RDF xmlns:dc="http://purl.org/dc/elements/1.1/" xmlns:cc="http://creativecommons.org/ns#" xmlns:rdf="http://www.w3.org/1999/02/22-rdf-syntax-ns#">
   <cc:Work>
    <dc:type rdf:resource="http://purl.org/dc/dcmitype/StillImage"/>
    <dc:date>2025-09-30T20:42:48.915279</dc:date>
    <dc:format>image/svg+xml</dc:format>
    <dc:creator>
     <cc:Agent>
      <dc:title>Matplotlib v3.10.3, https://matplotlib.org/</dc:title>
     </cc:Agent>
    </dc:creator>
   </cc:Work>
  </rdf:RDF>
 </metadata>
 <defs>
  <style type="text/css">*{stroke-linejoin: round; stroke-linecap: butt}</style>
 </defs>
 <g id="figure_1">
  <g id="patch_1">
   <path d="M 0 432 
L 720 432 
L 720 0 
L 0 0 
z
" style="fill: #ffffff"/>
  </g>
  <g id="axes_1">
   <g id="patch_2">
    <path d="M 90 384.48 
L 648 384.48 
L 648 51.84 
L 90 51.84 
z
" style="fill: #ffffff"/>
   </g>
   <g id="matplotlib.axis_1">
    <g id="xtick_1">
     <g id="line2d_1">
      <defs>
       <path id="m3ffab21848" d="M 0 0 
L 0 3.5 
" style="stroke: #000000; stroke-width: 0.8"/>
      </defs>
      <g>
       <use xlink:href="#m3ffab21848" x="115.363636" y="384.48" style="stroke: #000000; stroke-width: 0.8"/>
      </g>
     </g>
     <g id="text_1">
      <!-- 0 -->
      <g transform="translate(112.182386 399.078438) scale(0.1 -0.1)">
       <defs>
        <path id="DejaVuSans-30" d="M 2034 4250 
Q 1547 4250 1301 3770 
Q 1056 3291 1056 2328 
Q 1056 1369 1301 889 
Q 1547 409 2034 409 
Q 2525 409 2770 889 
Q 3016 1369 3016 2328 
Q 3016 3291 2770 3770 
Q 2525 4250 2034 4250 
z
M 2034 4750 
Q 2819 4750 3233 4129 
Q 3647 3509 3647 2328 
Q 3647 1150 3233 529 
Q 2819 -91 2034 -91 
Q 1250 -91 836 529 
Q 422 1150 422 2328 
Q 422 3509 836 4129 
Q 1250 4750 2034 4750 
z
" transform="scale(0.015625)"/>
       </defs>
       <use xlink:href="#DejaVuSans-30"/>
      </g>
     </g>
    </g>
    <g id="xtick_2">
     <g id="line2d_2">
      <g>
       <use xlink:href="#m3ffab21848" x="185.043956" y="384.48" style="stroke: #000000; stroke-width: 0.8"/>
      </g>
     </g>
     <g id="text_2">
      <!-- 100 -->
      <g transform="translate(175.500206 399.078438) scale(0.1 -0.1)">
       <defs>
        <path id="DejaVuSans-31" d="M 794 531 
L 1825 531 
L 1825 4091 
L 703 3866 
L 703 4441 
L 1819 4666 
L 2450 4666 
L 2450 531 
L 3481 531 
L 3481 0 
L 794 0 
L 794 531 
z
" transform="scale(0.015625)"/>
       </defs>
       <use xlink:href="#DejaVuSans-31"/>
       <use xlink:href="#DejaVuSans-30" transform="translate(63.623047 0)"/>
       <use xlink:href="#DejaVuSans-30" transform="translate(127.246094 0)"/>
      </g>
     </g>
    </g>
    <g id="xtick_3">
     <g id="line2d_3">
      <g>
       <use xlink:href="#m3ffab21848" x="254.724276" y="384.48" style="stroke: #000000; stroke-width: 0.8"/>
      </g>
     </g>
     <g id="text_3">
      <!-- 200 -->
      <g transform="translate(245.180526 399.078438) scale(0.1 -0.1)">
       <defs>
        <path id="DejaVuSans-32" d="M 1228 531 
L 3431 531 
L 3431 0 
L 469 0 
L 469 531 
Q 828 903 1448 1529 
Q 2069 2156 2228 2338 
Q 2531 2678 2651 2914 
Q 2772 3150 2772 3378 
Q 2772 3750 2511 3984 
Q 2250 4219 1831 4219 
Q 1534 4219 1204 4116 
Q 875 4013 500 3803 
L 500 4441 
Q 881 4594 1212 4672 
Q 1544 4750 1819 4750 
Q 2544 4750 2975 4387 
Q 3406 4025 3406 3419 
Q 3406 3131 3298 2873 
Q 3191 2616 2906 2266 
Q 2828 2175 2409 1742 
Q 1991 1309 1228 531 
z
" transform="scale(0.015625)"/>
       </defs>
       <use xlink:href="#DejaVuSans-32"/>
       <use xlink:href="#DejaVuSans-30" transform="translate(63.623047 0)"/>
       <use xlink:href="#DejaVuSans-30" transform="translate(127.246094 0)"/>
      </g>
     </g>
    </g>
    <g id="xtick_4">
     <g id="line2d_4">
      <g>
       <use xlink:href="#m3ffab21848" x="324.404595" y="384.48" style="stroke: #000000; stroke-width: 0.8"/>
      </g>
     </g>
     <g id="text_4">
      <!-- 300 -->
      <g transform="translate(314.860845 399.078438) scale(0.1 -0.1)">
       <defs>
        <path id="DejaVuSans-33" d="M 2597 2516 
Q 3050 2419 3304 2112 
Q 3559 1806 3559 1356 
Q 3559 666 3084 287 
Q 2609 -91 1734 -91 
Q 1441 -91 1130 -33 
Q 819 25 488 141 
L 488 750 
Q 750 597 1062 519 
Q 1375 441 1716 441 
Q 2309 441 2620 675 
Q 2931 909 2931 1356 
Q 2931 1769 2642 2001 
Q 2353 2234 1838 2234 
L 1294 2234 
L 1294 2753 
L 1863 2753 
Q 2328 2753 2575 2939 
Q 2822 3125 2822 3475 
Q 2822 3834 2567 4026 
Q 2313 4219 1838 4219 
Q 1578 4219 1281 4162 
Q 984 4106 628 3988 
L 628 4550 
Q 988 4650 1302 4700 
Q 1616 4750 1894 4750 
Q 2613 4750 3031 4423 
Q 3450 4097 3450 3541 
Q 3450 3153 3228 2886 
Q 3006 2619 2597 2516 
z
" transform="scale(0.015625)"/>
       </defs>
       <use xlink:href="#DejaVuSans-33"/>
       <use xlink:href="#DejaVuSans-30" transform="translate(63.623047 0)"/>
       <use xlink:href="#DejaVuSans-30" transform="translate(127.246094 0)"/>
      </g>
     </g>
    </g>
    <g id="xtick_5">
     <g id="line2d_5">
      <g>
       <use xlink:href="#m3ffab21848" x="394.084915" y="384.48" style="stroke: #000000; stroke-width: 0.8"/>
      </g>
     </g>
     <g id="text_5">
      <!-- 400 -->
      <g transform="translate(384.541165 399.078438) scale(0.1 -0.1)">
       <defs>
        <path id="DejaVuSans-34" d="M 2419 4116 
L 825 1625 
L 2419 1625 
L 2419 4116 
z
M 2253 4666 
L 3047 4666 
L 3047 1625 
L 3713 1625 
L 3713 1100 
L 3047 1100 
L 3047 0 
L 2419 0 
L 2419 1100 
L 313 1100 
L 313 1709 
L 2253 4666 
z
" transform="scale(0.015625)"/>
       </defs>
       <use xlink:href="#DejaVuSans-34"/>
       <use xlink:href="#DejaVuSans-30" transform="translate(63.623047 0)"/>
       <use xlink:href="#DejaVuSans-30" transform="translate(127.246094 0)"/>
      </g>
     </g>
    </g>
    <g id="xtick_6">
     <g id="line2d_6">
      <g>
       <use xlink:href="#m3ffab21848" x="463.765235" y="384.48" style="stroke: #000000; stroke-width: 0.8"/>
      </g>
     </g>
     <g id="text_6">
      <!-- 500 -->
      <g transform="translate(454.221485 399.078438) scale(0.1 -0.1)">
       <defs>
        <path id="DejaVuSans-35" d="M 691 4666 
L 3169 4666 
L 3169 4134 
L 1269 4134 
L 1269 2991 
Q 1406 3038 1543 3061 
Q 1681 3084 1819 3084 
Q 2600 3084 3056 2656 
Q 3513 2228 3513 1497 
Q 3513 744 3044 326 
Q 2575 -91 1722 -91 
Q 1428 -91 1123 -41 
Q 819 9 494 109 
L 494 744 
Q 775 591 1075 516 
Q 1375 441 1709 441 
Q 2250 441 2565 725 
Q 2881 1009 2881 1497 
Q 2881 1984 2565 2268 
Q 2250 2553 1709 2553 
Q 1456 2553 1204 2497 
Q 953 2441 691 2322 
L 691 4666 
z
" transform="scale(0.015625)"/>
       </defs>
       <use xlink:href="#DejaVuSans-35"/>
       <use xlink:href="#DejaVuSans-30" transform="translate(63.623047 0)"/>
       <use xlink:href="#DejaVuSans-30" transform="translate(127.246094 0)"/>
      </g>
     </g>
    </g>
    <g id="xtick_7">
     <g id="line2d_7">
      <g>
       <use xlink:href="#m3ffab21848" x="533.445554" y="384.48" style="stroke: #000000; stroke-width: 0.8"/>
      </g>
     </g>
     <g id="text_7">
      <!-- 600 -->
      <g transform="translate(523.901804 399.078438) scale(0.1 -0.1)">
       <defs>
        <path id="DejaVuSans-36" d="M 2113 2584 
Q 1688 2584 1439 2293 
Q 1191 2003 1191 1497 
Q 1191 994 1439 701 
Q 1688 409 2113 409 
Q 2538 409 2786 701 
Q 3034 994 3034 1497 
Q 3034 2003 2786 2293 
Q 2538 2584 2113 2584 
z
M 3366 4563 
L 3366 3988 
Q 3128 4100 2886 4159 
Q 2644 4219 2406 4219 
Q 1781 4219 1451 3797 
Q 1122 3375 1075 2522 
Q 1259 2794 1537 2939 
Q 1816 3084 2150 3084 
Q 2853 3084 3261 2657 
Q 3669 2231 3669 1497 
Q 3669 778 3244 343 
Q 2819 -91 2113 -91 
Q 1303 -91 875 529 
Q 447 1150 447 2328 
Q 447 3434 972 4092 
Q 1497 4750 2381 4750 
Q 2619 4750 2861 4703 
Q 3103 4656 3366 4563 
z
" transform="scale(0.015625)"/>
       </defs>
       <use xlink:href="#DejaVuSans-36"/>
       <use xlink:href="#DejaVuSans-30" transform="translate(63.623047 0)"/>
       <use xlink:href="#DejaVuSans-30" transform="translate(127.246094 0)"/>
      </g>
     </g>
    </g>
    <g id="xtick_8">
     <g id="line2d_8">
      <g>
       <use xlink:href="#m3ffab21848" x="603.125874" y="384.48" style="stroke: #000000; stroke-width: 0.8"/>
      </g>
     </g>
     <g id="text_8">
      <!-- 700 -->
      <g transform="translate(593.582124 399.078438) scale(0.1 -0.1)">
       <defs>
        <path id="DejaVuSans-37" d="M 525 4666 
L 3525 4666 
L 3525 4397 
L 1831 0 
L 1172 0 
L 2766 4134 
L 525 4134 
L 525 4666 
z
" transform="scale(0.015625)"/>
       </defs>
       <use xlink:href="#DejaVuSans-37"/>
       <use xlink:href="#DejaVuSans-30" transform="translate(63.623047 0)"/>
       <use xlink:href="#DejaVuSans-30" transform="translate(127.246094 0)"/>
      </g>
     </g>
    </g>
    <g id="text_9">
     <!-- Index -->
     <g transform="translate(355.233594 412.756563) scale(0.1 -0.1)">
      <defs>
       <path id="DejaVuSans-49" d="M 628 4666 
L 1259 4666 
L 1259 0 
L 628 0 
L 628 4666 
z
" transform="scale(0.015625)"/>
       <path id="DejaVuSans-6e" d="M 3513 2113 
L 3513 0 
L 2938 0 
L 2938 2094 
Q 2938 2591 2744 2837 
Q 2550 3084 2163 3084 
Q 1697 3084 1428 2787 
Q 1159 2491 1159 1978 
L 1159 0 
L 581 0 
L 581 3500 
L 1159 3500 
L 1159 2956 
Q 1366 3272 1645 3428 
Q 1925 3584 2291 3584 
Q 2894 3584 3203 3211 
Q 3513 2838 3513 2113 
z
" transform="scale(0.015625)"/>
       <path id="DejaVuSans-64" d="M 2906 2969 
L 2906 4863 
L 3481 4863 
L 3481 0 
L 2906 0 
L 2906 525 
Q 2725 213 2448 61 
Q 2172 -91 1784 -91 
Q 1150 -91 751 415 
Q 353 922 353 1747 
Q 353 2572 751 3078 
Q 1150 3584 1784 3584 
Q 2172 3584 2448 3432 
Q 2725 3281 2906 2969 
z
M 947 1747 
Q 947 1113 1208 752 
Q 1469 391 1925 391 
Q 2381 391 2643 752 
Q 2906 1113 2906 1747 
Q 2906 2381 2643 2742 
Q 2381 3103 1925 3103 
Q 1469 3103 1208 2742 
Q 947 2381 947 1747 
z
" transform="scale(0.015625)"/>
       <path id="DejaVuSans-65" d="M 3597 1894 
L 3597 1613 
L 953 1613 
Q 991 1019 1311 708 
Q 1631 397 2203 397 
Q 2534 397 2845 478 
Q 3156 559 3463 722 
L 3463 178 
Q 3153 47 2828 -22 
Q 2503 -91 2169 -91 
Q 1331 -91 842 396 
Q 353 884 353 1716 
Q 353 2575 817 3079 
Q 1281 3584 2069 3584 
Q 2775 3584 3186 3129 
Q 3597 2675 3597 1894 
z
M 3022 2063 
Q 3016 2534 2758 2815 
Q 2500 3097 2075 3097 
Q 1594 3097 1305 2825 
Q 1016 2553 972 2059 
L 3022 2063 
z
" transform="scale(0.015625)"/>
       <path id="DejaVuSans-78" d="M 3513 3500 
L 2247 1797 
L 3578 0 
L 2900 0 
L 1881 1375 
L 863 0 
L 184 0 
L 1544 1831 
L 300 3500 
L 978 3500 
L 1906 2253 
L 2834 3500 
L 3513 3500 
z
" transform="scale(0.015625)"/>
      </defs>
      <use xlink:href="#DejaVuSans-49"/>
      <use xlink:href="#DejaVuSans-6e" transform="translate(29.492188 0)"/>
      <use xlink:href="#DejaVuSans-64" transform="translate(92.871094 0)"/>
      <use xlink:href="#DejaVuSans-65" transform="translate(156.347656 0)"/>
      <use xlink:href="#DejaVuSans-78" transform="translate(216.121094 0)"/>
     </g>
    </g>
   </g>
   <g id="matplotlib.axis_2">
    <g id="ytick_1">
     <g id="line2d_9">
      <defs>
       <path id="m9658333918" d="M 0 0 
L -3.5 0 
" style="stroke: #000000; stroke-width: 0.8"/>
      </defs>
      <g>
       <use xlink:href="#m9658333918" x="90" y="384.48" style="stroke: #000000; stroke-width: 0.8"/>
      </g>
     </g>
     <g id="text_10">
      <!-- 0 -->
      <g transform="translate(76.6375 388.279219) scale(0.1 -0.1)">
       <use xlink:href="#DejaVuSans-30"/>
      </g>
     </g>
    </g>
    <g id="ytick_2">
     <g id="line2d_10">
      <g>
       <use xlink:href="#m9658333918" x="90" y="343.831871" style="stroke: #000000; stroke-width: 0.8"/>
      </g>
     </g>
     <g id="text_11">
      <!-- 5 -->
      <g transform="translate(76.6375 347.63109) scale(0.1 -0.1)">
       <use xlink:href="#DejaVuSans-35"/>
      </g>
     </g>
    </g>
    <g id="ytick_3">
     <g id="line2d_11">
      <g>
       <use xlink:href="#m9658333918" x="90" y="303.183742" style="stroke: #000000; stroke-width: 0.8"/>
      </g>
     </g>
     <g id="text_12">
      <!-- 10 -->
      <g transform="translate(70.275 306.982961) scale(0.1 -0.1)">
       <use xlink:href="#DejaVuSans-31"/>
       <use xlink:href="#DejaVuSans-30" transform="translate(63.623047 0)"/>
      </g>
     </g>
    </g>
    <g id="ytick_4">
     <g id="line2d_12">
      <g>
       <use xlink:href="#m9658333918" x="90" y="262.535613" style="stroke: #000000; stroke-width: 0.8"/>
      </g>
     </g>
     <g id="text_13">
      <!-- 15 -->
      <g transform="translate(70.275 266.334832) scale(0.1 -0.1)">
       <use xlink:href="#DejaVuSans-31"/>
       <use xlink:href="#DejaVuSans-35" transform="translate(63.623047 0)"/>
      </g>
     </g>
    </g>
    <g id="ytick_5">
     <g id="line2d_13">
      <g>
       <use xlink:href="#m9658333918" x="90" y="221.887485" style="stroke: #000000; stroke-width: 0.8"/>
      </g>
     </g>
     <g id="text_14">
      <!-- 20 -->
      <g transform="translate(70.275 225.686703) scale(0.1 -0.1)">
       <use xlink:href="#DejaVuSans-32"/>
       <use xlink:href="#DejaVuSans-30" transform="translate(63.623047 0)"/>
      </g>
     </g>
    </g>
    <g id="ytick_6">
     <g id="line2d_14">
      <g>
       <use xlink:href="#m9658333918" x="90" y="181.239356" style="stroke: #000000; stroke-width: 0.8"/>
      </g>
     </g>
     <g id="text_15">
      <!-- 25 -->
      <g transform="translate(70.275 185.038574) scale(0.1 -0.1)">
       <use xlink:href="#DejaVuSans-32"/>
       <use xlink:href="#DejaVuSans-35" transform="translate(63.623047 0)"/>
      </g>
     </g>
    </g>
    <g id="ytick_7">
     <g id="line2d_15">
      <g>
       <use xlink:href="#m9658333918" x="90" y="140.591227" style="stroke: #000000; stroke-width: 0.8"/>
      </g>
     </g>
     <g id="text_16">
      <!-- 30 -->
      <g transform="translate(70.275 144.390446) scale(0.1 -0.1)">
       <use xlink:href="#DejaVuSans-33"/>
       <use xlink:href="#DejaVuSans-30" transform="translate(63.623047 0)"/>
      </g>
     </g>
    </g>
    <g id="ytick_8">
     <g id="line2d_16">
      <g>
       <use xlink:href="#m9658333918" x="90" y="99.943098" style="stroke: #000000; stroke-width: 0.8"/>
      </g>
     </g>
     <g id="text_17">
      <!-- 35 -->
      <g transform="translate(70.275 103.742317) scale(0.1 -0.1)">
       <use xlink:href="#DejaVuSans-33"/>
       <use xlink:href="#DejaVuSans-35" transform="translate(63.623047 0)"/>
      </g>
     </g>
    </g>
    <g id="ytick_9">
     <g id="line2d_17">
      <g>
       <use xlink:href="#m9658333918" x="90" y="59.294969" style="stroke: #000000; stroke-width: 0.8"/>
      </g>
     </g>
     <g id="text_18">
      <!-- 40 -->
      <g transform="translate(70.275 63.094188) scale(0.1 -0.1)">
       <use xlink:href="#DejaVuSans-34"/>
       <use xlink:href="#DejaVuSans-30" transform="translate(63.623047 0)"/>
      </g>
     </g>
    </g>
    <g id="text_19">
     <!-- Average time (ms) -->
     <g transform="translate(64.195312 264.543594) rotate(-90) scale(0.1 -0.1)">
      <defs>
       <path id="DejaVuSans-41" d="M 2188 4044 
L 1331 1722 
L 3047 1722 
L 2188 4044 
z
M 1831 4666 
L 2547 4666 
L 4325 0 
L 3669 0 
L 3244 1197 
L 1141 1197 
L 716 0 
L 50 0 
L 1831 4666 
z
" transform="scale(0.015625)"/>
       <path id="DejaVuSans-76" d="M 191 3500 
L 800 3500 
L 1894 563 
L 2988 3500 
L 3597 3500 
L 2284 0 
L 1503 0 
L 191 3500 
z
" transform="scale(0.015625)"/>
       <path id="DejaVuSans-72" d="M 2631 2963 
Q 2534 3019 2420 3045 
Q 2306 3072 2169 3072 
Q 1681 3072 1420 2755 
Q 1159 2438 1159 1844 
L 1159 0 
L 581 0 
L 581 3500 
L 1159 3500 
L 1159 2956 
Q 1341 3275 1631 3429 
Q 1922 3584 2338 3584 
Q 2397 3584 2469 3576 
Q 2541 3569 2628 3553 
L 2631 2963 
z
" transform="scale(0.015625)"/>
       <path id="DejaVuSans-61" d="M 2194 1759 
Q 1497 1759 1228 1600 
Q 959 1441 959 1056 
Q 959 750 1161 570 
Q 1363 391 1709 391 
Q 2188 391 2477 730 
Q 2766 1069 2766 1631 
L 2766 1759 
L 2194 1759 
z
M 3341 1997 
L 3341 0 
L 2766 0 
L 2766 531 
Q 2569 213 2275 61 
Q 1981 -91 1556 -91 
Q 1019 -91 701 211 
Q 384 513 384 1019 
Q 384 1609 779 1909 
Q 1175 2209 1959 2209 
L 2766 2209 
L 2766 2266 
Q 2766 2663 2505 2880 
Q 2244 3097 1772 3097 
Q 1472 3097 1187 3025 
Q 903 2953 641 2809 
L 641 3341 
Q 956 3463 1253 3523 
Q 1550 3584 1831 3584 
Q 2591 3584 2966 3190 
Q 3341 2797 3341 1997 
z
" transform="scale(0.015625)"/>
       <path id="DejaVuSans-67" d="M 2906 1791 
Q 2906 2416 2648 2759 
Q 2391 3103 1925 3103 
Q 1463 3103 1205 2759 
Q 947 2416 947 1791 
Q 947 1169 1205 825 
Q 1463 481 1925 481 
Q 2391 481 2648 825 
Q 2906 1169 2906 1791 
z
M 3481 434 
Q 3481 -459 3084 -895 
Q 2688 -1331 1869 -1331 
Q 1566 -1331 1297 -1286 
Q 1028 -1241 775 -1147 
L 775 -588 
Q 1028 -725 1275 -790 
Q 1522 -856 1778 -856 
Q 2344 -856 2625 -561 
Q 2906 -266 2906 331 
L 2906 616 
Q 2728 306 2450 153 
Q 2172 0 1784 0 
Q 1141 0 747 490 
Q 353 981 353 1791 
Q 353 2603 747 3093 
Q 1141 3584 1784 3584 
Q 2172 3584 2450 3431 
Q 2728 3278 2906 2969 
L 2906 3500 
L 3481 3500 
L 3481 434 
z
" transform="scale(0.015625)"/>
       <path id="DejaVuSans-20" transform="scale(0.015625)"/>
       <path id="DejaVuSans-74" d="M 1172 4494 
L 1172 3500 
L 2356 3500 
L 2356 3053 
L 1172 3053 
L 1172 1153 
Q 1172 725 1289 603 
Q 1406 481 1766 481 
L 2356 481 
L 2356 0 
L 1766 0 
Q 1100 0 847 248 
Q 594 497 594 1153 
L 594 3053 
L 172 3053 
L 172 3500 
L 594 3500 
L 594 4494 
L 1172 4494 
z
" transform="scale(0.015625)"/>
       <path id="DejaVuSans-69" d="M 603 3500 
L 1178 3500 
L 1178 0 
L 603 0 
L 603 3500 
z
M 603 4863 
L 1178 4863 
L 1178 4134 
L 603 4134 
L 603 4863 
z
" transform="scale(0.015625)"/>
       <path id="DejaVuSans-6d" d="M 3328 2828 
Q 3544 3216 3844 3400 
Q 4144 3584 4550 3584 
Q 5097 3584 5394 3201 
Q 5691 2819 5691 2113 
L 5691 0 
L 5113 0 
L 5113 2094 
Q 5113 2597 4934 2840 
Q 4756 3084 4391 3084 
Q 3944 3084 3684 2787 
Q 3425 2491 3425 1978 
L 3425 0 
L 2847 0 
L 2847 2094 
Q 2847 2600 2669 2842 
Q 2491 3084 2119 3084 
Q 1678 3084 1418 2786 
Q 1159 2488 1159 1978 
L 1159 0 
L 581 0 
L 581 3500 
L 1159 3500 
L 1159 2956 
Q 1356 3278 1631 3431 
Q 1906 3584 2284 3584 
Q 2666 3584 2933 3390 
Q 3200 3197 3328 2828 
z
" transform="scale(0.015625)"/>
       <path id="DejaVuSans-28" d="M 1984 4856 
Q 1566 4138 1362 3434 
Q 1159 2731 1159 2009 
Q 1159 1288 1364 580 
Q 1569 -128 1984 -844 
L 1484 -844 
Q 1016 -109 783 600 
Q 550 1309 550 2009 
Q 550 2706 781 3412 
Q 1013 4119 1484 4856 
L 1984 4856 
z
" transform="scale(0.015625)"/>
       <path id="DejaVuSans-73" d="M 2834 3397 
L 2834 2853 
Q 2591 2978 2328 3040 
Q 2066 3103 1784 3103 
Q 1356 3103 1142 2972 
Q 928 2841 928 2578 
Q 928 2378 1081 2264 
Q 1234 2150 1697 2047 
L 1894 2003 
Q 2506 1872 2764 1633 
Q 3022 1394 3022 966 
Q 3022 478 2636 193 
Q 2250 -91 1575 -91 
Q 1294 -91 989 -36 
Q 684 19 347 128 
L 347 722 
Q 666 556 975 473 
Q 1284 391 1588 391 
Q 1994 391 2212 530 
Q 2431 669 2431 922 
Q 2431 1156 2273 1281 
Q 2116 1406 1581 1522 
L 1381 1569 
Q 847 1681 609 1914 
Q 372 2147 372 2553 
Q 372 3047 722 3315 
Q 1072 3584 1716 3584 
Q 2034 3584 2315 3537 
Q 2597 3491 2834 3397 
z
" transform="scale(0.015625)"/>
       <path id="DejaVuSans-29" d="M 513 4856 
L 1013 4856 
Q 1481 4119 1714 3412 
Q 1947 2706 1947 2009 
Q 1947 1309 1714 600 
Q 1481 -109 1013 -844 
L 513 -844 
Q 928 -128 1133 580 
Q 1338 1288 1338 2009 
Q 1338 2731 1133 3434 
Q 928 4138 513 4856 
z
" transform="scale(0.015625)"/>
      </defs>
      <use xlink:href="#DejaVuSans-41"/>
      <use xlink:href="#DejaVuSans-76" transform="translate(62.533203 0)"/>
      <use xlink:href="#DejaVuSans-65" transform="translate(121.712891 0)"/>
      <use xlink:href="#DejaVuSans-72" transform="translate(183.236328 0)"/>
      <use xlink:href="#DejaVuSans-61" transform="translate(224.349609 0)"/>
      <use xlink:href="#DejaVuSans-67" transform="translate(285.628906 0)"/>
      <use xlink:href="#DejaVuSans-65" transform="translate(349.105469 0)"/>
      <use xlink:href="#DejaVuSans-20" transform="translate(410.628906 0)"/>
      <use xlink:href="#DejaVuSans-74" transform="translate(442.416016 0)"/>
      <use xlink:href="#DejaVuSans-69" transform="translate(481.625 0)"/>
      <use xlink:href="#DejaVuSans-6d" transform="translate(509.408203 0)"/>
      <use xlink:href="#DejaVuSans-65" transform="translate(606.820312 0)"/>
      <use xlink:href="#DejaVuSans-20" transform="translate(668.34375 0)"/>
      <use xlink:href="#DejaVuSans-28" transform="translate(700.130859 0)"/>
      <use xlink:href="#DejaVuSans-6d" transform="translate(739.144531 0)"/>
      <use xlink:href="#DejaVuSans-73" transform="translate(836.556641 0)"/>
      <use xlink:href="#DejaVuSans-29" transform="translate(888.65625 0)"/>
     </g>
    </g>
   </g>
   <g id="line2d_18">
    <path d="M 115.363636 66.851605 
L 116.06044 213.794258 
L 116.757243 331.007838 
L 117.454046 354.322689 
L 118.847652 349.65266 
L 119.544456 347.607342 
L 120.241259 354.119176 
L 120.938062 346.919842 
L 121.634865 351.299532 
L 122.331668 346.758785 
L 123.028472 355.177166 
L 123.725275 338.054315 
L 124.422078 339.926184 
L 125.118881 356.46565 
L 125.815684 354.641769 
L 126.512488 350.082067 
L 127.209291 357.270538 
L 127.906094 355.496279 
L 128.602897 358.303663 
L 129.2997 357.424586 
L 129.996503 355.973225 
L 130.693307 356.24563 
L 131.39011 357.996232 
L 132.086913 355.680745 
L 132.783716 357.004826 
L 134.177323 351.608546 
L 134.874126 356.161807 
L 135.570929 357.263425 
L 136.964535 351.542666 
L 137.661339 352.736338 
L 138.358142 355.208676 
L 139.054945 356.203178 
L 139.751748 355.321066 
L 140.448551 357.85063 
L 141.145355 356.868644 
L 141.842158 357.738671 
L 142.538961 356.029691 
L 143.235764 346.770175 
L 143.932567 355.322828 
L 144.629371 353.466548 
L 145.326174 349.510972 
L 146.022977 352.37473 
L 146.71978 358.513714 
L 147.416583 357.924805 
L 148.113387 358.445258 
L 148.81019 357.947822 
L 149.506993 356.996446 
L 150.203796 358.475343 
L 150.900599 355.941064 
L 151.597403 355.68966 
L 152.991009 359.114199 
L 153.687812 352.340549 
L 154.384615 354.338025 
L 155.081419 351.220186 
L 155.778222 358.461855 
L 156.475025 357.225138 
L 157.171828 353.818609 
L 157.868631 356.149863 
L 158.565435 355.195547 
L 159.262238 357.458935 
L 159.959041 360.731567 
L 161.352647 359.640789 
L 162.049451 359.442897 
L 162.746254 359.55351 
L 163.443057 359.902708 
L 164.13986 358.96667 
L 164.836663 360.541012 
L 165.533467 361.377902 
L 166.23027 360.560166 
L 166.927073 361.428062 
L 167.623876 360.657097 
L 168.320679 359.55897 
L 169.017483 360.201508 
L 169.714286 360.074944 
L 170.411089 361.532771 
L 171.107892 359.437782 
L 171.804695 356.043971 
L 172.501499 360.030111 
L 173.198302 359.322559 
L 173.895105 358.420751 
L 174.591908 355.840427 
L 175.288711 359.186729 
L 175.985514 358.656517 
L 176.682318 358.828318 
L 177.379121 361.212693 
L 178.772727 361.017888 
L 179.46953 360.401069 
L 180.166334 359.465228 
L 180.863137 360.212042 
L 181.55994 357.174861 
L 182.256743 357.611784 
L 182.953546 359.632918 
L 183.65035 358.786576 
L 184.347153 360.568099 
L 185.043956 359.255354 
L 185.740759 360.661064 
L 186.437562 358.949061 
L 187.134366 359.820865 
L 187.831169 361.106237 
L 188.527972 359.472445 
L 189.921578 361.104267 
L 190.618382 357.556931 
L 191.315185 357.027068 
L 192.011988 360.285561 
L 192.708791 358.128473 
L 193.405594 359.604556 
L 194.102398 361.470492 
L 194.799201 361.18351 
L 195.496004 360.36748 
L 196.192807 361.786615 
L 196.88961 360.473292 
L 197.586414 361.188976 
L 198.283217 361.543945 
L 198.98002 362.834554 
L 199.676823 363.080762 
L 200.373626 361.588158 
L 201.07043 359.783695 
L 201.767233 363.249056 
L 202.464036 360.062436 
L 203.160839 358.51263 
L 203.857642 360.634265 
L 204.554446 355.225906 
L 205.251249 361.024027 
L 205.948052 359.481615 
L 206.644855 358.855981 
L 207.341658 360.92965 
L 208.038462 361.12249 
L 208.735265 358.880273 
L 209.432068 362.30636 
L 210.128871 359.612537 
L 210.825674 362.945946 
L 212.219281 359.909946 
L 212.916084 360.371233 
L 213.612887 360.074233 
L 214.30969 361.285256 
L 215.006494 361.656763 
L 215.703297 360.103691 
L 216.4001 363.138417 
L 217.096903 360.740355 
L 217.793706 361.726386 
L 218.490509 360.69135 
L 219.884116 361.234155 
L 220.580919 362.779347 
L 221.277722 363.611051 
L 221.974525 364.645973 
L 223.368132 362.476131 
L 224.064935 360.826855 
L 224.761738 363.063144 
L 225.458541 361.706457 
L 226.155345 361.259904 
L 227.548951 363.298509 
L 228.245754 361.08367 
L 228.942557 362.74485 
L 229.639361 360.788045 
L 230.336164 362.521321 
L 231.032967 360.463082 
L 231.72977 362.907088 
L 232.426573 362.455692 
L 233.123377 352.824227 
L 233.82018 359.122551 
L 234.516983 362.872974 
L 235.213786 357.476339 
L 235.910589 362.583838 
L 236.607393 362.581618 
L 237.304196 362.251194 
L 238.000999 363.790561 
L 238.697802 362.50837 
L 239.394605 361.668892 
L 240.091409 362.141479 
L 240.788212 361.781314 
L 241.485015 363.311445 
L 242.181818 363.546151 
L 242.878621 363.275892 
L 243.575425 364.003725 
L 244.272228 363.70852 
L 244.969031 363.774347 
L 245.665834 364.317525 
L 246.362637 364.159589 
L 247.059441 355.807296 
L 247.756244 361.083652 
L 249.14985 359.189227 
L 250.543457 363.662145 
L 251.24026 364.716852 
L 251.937063 362.63394 
L 252.633866 361.577254 
L 253.330669 363.508859 
L 254.027473 361.711861 
L 254.724276 363.821902 
L 255.421079 362.40285 
L 256.117882 363.600558 
L 256.814685 362.946982 
L 257.511489 355.185448 
L 258.208292 357.120436 
L 258.905095 362.677566 
L 259.601898 362.293138 
L 260.298701 363.493234 
L 260.995504 363.323459 
L 261.692308 363.760473 
L 262.389111 360.00701 
L 263.085914 361.676748 
L 263.782717 360.727364 
L 264.47952 364.273631 
L 265.176324 363.808666 
L 265.873127 365.321323 
L 266.56993 361.367255 
L 267.266733 363.455787 
L 267.963536 364.34727 
L 268.66034 362.9423 
L 269.357143 364.062515 
L 270.053946 363.885716 
L 271.447552 359.183602 
L 272.144356 363.604449 
L 272.841159 364.17506 
L 273.537962 365.928271 
L 274.234765 363.359178 
L 274.931568 364.068734 
L 275.628372 364.042539 
L 276.325175 363.027606 
L 277.021978 363.635762 
L 277.718781 363.058671 
L 278.415584 364.339555 
L 279.112388 364.791111 
L 279.809191 363.307634 
L 281.202797 363.867561 
L 281.8996 359.675106 
L 282.596404 359.462314 
L 283.293207 364.841429 
L 283.99001 364.550605 
L 284.686813 364.760561 
L 285.383616 363.461288 
L 286.08042 363.317055 
L 286.777223 364.734312 
L 287.474026 360.721843 
L 288.170829 359.053895 
L 288.867632 364.453342 
L 289.564436 363.685601 
L 290.261239 362.04679 
L 290.958042 361.421073 
L 291.654845 362.723412 
L 292.351648 360.16694 
L 293.048452 359.432923 
L 293.745255 360.629114 
L 294.442058 360.625518 
L 295.138861 363.345945 
L 295.835664 356.323387 
L 296.532468 362.961585 
L 297.229271 364.754144 
L 297.926074 363.395487 
L 298.622877 363.605079 
L 299.31968 362.782526 
L 300.016484 361.783593 
L 300.713287 363.87366 
L 301.41009 363.146838 
L 302.106893 363.966786 
L 302.803696 362.247736 
L 303.5005 363.287878 
L 304.197303 361.982746 
L 304.894106 363.803051 
L 305.590909 363.950857 
L 306.287712 365.592137 
L 306.984515 363.965984 
L 307.681319 365.188468 
L 308.378122 364.438913 
L 309.074925 362.486719 
L 309.771728 363.662823 
L 310.468531 364.037194 
L 311.165335 363.189295 
L 311.862138 362.143287 
L 312.558941 362.795347 
L 313.255744 362.1955 
L 313.952547 362.779567 
L 314.649351 361.974153 
L 315.346154 365.1766 
L 316.042957 364.727371 
L 316.73976 365.209307 
L 317.436563 363.543413 
L 318.133367 363.63773 
L 318.83017 362.747908 
L 319.526973 363.069689 
L 320.223776 362.405203 
L 320.920579 365.46771 
L 322.314186 362.638551 
L 323.010989 360.631538 
L 323.707792 361.608225 
L 324.404595 361.204654 
L 325.101399 361.466 
L 325.798202 364.585297 
L 326.495005 364.404793 
L 327.191808 363.122565 
L 327.888611 363.726148 
L 328.585415 362.637297 
L 329.282218 363.996718 
L 329.979021 365.655953 
L 330.675824 362.549299 
L 331.372627 362.983891 
L 332.069431 364.357855 
L 332.766234 364.759428 
L 333.463037 361.950563 
L 334.15984 364.359044 
L 334.856643 364.327125 
L 336.25025 363.76129 
L 336.947053 363.894135 
L 337.643856 359.989136 
L 338.340659 360.416256 
L 339.037463 363.66394 
L 340.431069 364.867236 
L 341.824675 365.196236 
L 342.521479 365.614868 
L 343.218282 363.979973 
L 343.915085 365.544566 
L 344.611888 361.874415 
L 345.308691 364.028737 
L 346.005495 363.223752 
L 346.702298 361.938082 
L 347.399101 363.621848 
L 348.792707 362.370128 
L 349.48951 363.072443 
L 350.186314 361.820485 
L 350.883117 363.75415 
L 351.57992 365.155828 
L 352.276723 364.010755 
L 352.973526 365.007053 
L 353.67033 363.69078 
L 354.367133 363.155911 
L 355.063936 363.807726 
L 355.760739 364.834033 
L 356.457542 365.223103 
L 357.154346 364.913977 
L 357.851149 364.791685 
L 358.547952 363.18519 
L 359.244755 363.820416 
L 359.941558 365.244892 
L 360.638362 365.626199 
L 361.335165 363.843914 
L 362.031968 364.307389 
L 362.728771 364.51708 
L 363.425574 363.575639 
L 364.122378 364.41179 
L 365.515984 364.386449 
L 366.212787 363.751154 
L 366.90959 362.827805 
L 367.606394 363.536988 
L 368.303197 363.39957 
L 369 362.678457 
L 369.696803 362.888151 
L 370.393606 363.4461 
L 371.09041 360.356505 
L 371.787213 363.432832 
L 372.484016 362.244702 
L 373.180819 363.676409 
L 373.877622 363.700113 
L 374.574426 360.607513 
L 375.271229 363.868991 
L 376.664835 364.381522 
L 378.058442 364.026601 
L 378.755245 364.380509 
L 379.452048 362.908368 
L 380.148851 362.552073 
L 380.845654 363.38288 
L 381.542458 358.538677 
L 382.239261 362.516706 
L 382.936064 363.578361 
L 383.632867 363.7463 
L 384.32967 363.15329 
L 385.026474 364.510478 
L 385.723277 360.556953 
L 386.42008 364.536435 
L 387.116883 363.812443 
L 387.813686 363.525246 
L 388.51049 361.088716 
L 389.207293 364.068569 
L 389.904096 365.011031 
L 390.600899 363.796453 
L 391.297702 365.235216 
L 391.994505 363.958586 
L 392.691309 363.728196 
L 393.388112 365.082763 
L 394.084915 364.584195 
L 394.781718 365.275939 
L 395.478521 363.592383 
L 396.175325 360.315085 
L 396.872128 365.63664 
L 397.568931 364.877124 
L 398.265734 365.743162 
L 398.962537 364.500187 
L 399.659341 363.49771 
L 400.356144 363.540609 
L 401.052947 366.107923 
L 402.446553 364.811369 
L 403.143357 365.427056 
L 403.84016 365.092498 
L 404.536963 363.344467 
L 405.233766 364.777608 
L 405.930569 365.138698 
L 406.627373 365.013706 
L 407.324176 365.208551 
L 408.020979 364.118684 
L 408.717782 364.56613 
L 409.414585 362.644171 
L 410.111389 362.591611 
L 410.808192 364.502571 
L 411.504995 364.766625 
L 412.201798 365.803095 
L 412.898601 363.719197 
L 413.595405 363.678288 
L 414.292208 364.516433 
L 414.989011 365.100891 
L 416.382617 364.726266 
L 417.776224 365.474582 
L 418.473027 364.821532 
L 419.16983 365.748742 
L 419.866633 364.83904 
L 420.563437 364.596103 
L 421.26024 363.30561 
L 421.957043 365.382555 
L 422.653846 365.274471 
L 423.350649 364.914032 
L 424.744256 363.759551 
L 425.441059 363.909763 
L 426.137862 364.662756 
L 426.834665 362.714268 
L 427.531469 363.26682 
L 428.228272 360.664523 
L 428.925075 365.296415 
L 429.621878 366.121756 
L 430.318681 366.128445 
L 431.015485 364.974365 
L 431.712288 365.696126 
L 432.409091 364.827615 
L 433.105894 366.102916 
L 433.802697 366.400133 
L 434.4995 365.688968 
L 435.196304 365.407912 
L 435.893107 364.955105 
L 436.58991 366.052816 
L 437.286713 366.165967 
L 437.983516 359.015594 
L 438.68032 366.015925 
L 439.377123 365.469443 
L 440.073926 363.49034 
L 440.770729 365.492342 
L 441.467532 365.782796 
L 442.164336 365.791421 
L 442.861139 364.364492 
L 443.557942 364.528377 
L 444.254745 366.505759 
L 444.951548 366.22798 
L 445.648352 365.58887 
L 447.041958 365.244727 
L 447.738761 366.189882 
L 448.435564 363.895411 
L 449.132368 365.320551 
L 449.829171 366.009127 
L 450.525974 364.034556 
L 451.222777 364.621547 
L 451.91958 364.170293 
L 452.616384 365.850207 
L 453.313187 365.720437 
L 454.00999 365.803824 
L 454.706793 364.778238 
L 455.403596 365.597826 
L 456.1004 360.039442 
L 456.797203 365.489933 
L 457.494006 366.208497 
L 458.190809 365.682744 
L 458.887612 364.906726 
L 459.584416 365.679908 
L 460.978022 364.191281 
L 461.674825 364.160553 
L 462.371628 365.434267 
L 463.068432 365.340516 
L 464.462038 365.41439 
L 465.158841 365.98937 
L 465.855644 365.437087 
L 466.552448 364.452623 
L 467.249251 365.620769 
L 467.946054 366.137492 
L 468.642857 364.551639 
L 469.33966 364.131356 
L 470.036464 363.43312 
L 470.733267 364.557537 
L 471.43007 363.10885 
L 472.126873 364.711882 
L 472.823676 362.473205 
L 473.52048 365.896585 
L 474.217283 365.661696 
L 476.307692 365.627956 
L 477.004496 365.733324 
L 477.701299 366.018764 
L 478.398102 366.523508 
L 479.094905 365.399481 
L 479.791708 366.652495 
L 480.488511 365.056721 
L 481.185315 364.759564 
L 481.882118 366.29361 
L 482.578921 365.409314 
L 483.275724 365.955688 
L 483.972527 364.974 
L 484.669331 365.247026 
L 485.366134 364.712399 
L 486.062937 365.457813 
L 486.75974 365.722256 
L 488.153347 364.902913 
L 488.85015 365.366165 
L 489.546953 363.473679 
L 490.243756 366.161074 
L 490.940559 366.808778 
L 491.637363 363.963772 
L 492.334166 365.856609 
L 493.030969 365.638009 
L 493.727772 365.866722 
L 494.424575 365.591839 
L 495.121379 363.231709 
L 495.818182 365.958087 
L 496.514985 365.298263 
L 497.211788 365.53487 
L 497.908591 365.060069 
L 498.605395 365.066194 
L 499.302198 366.285496 
L 499.999001 365.381448 
L 500.695804 365.492929 
L 501.392607 365.397039 
L 502.089411 365.069301 
L 502.786214 366.246238 
L 503.483017 364.638894 
L 504.17982 365.850502 
L 504.876623 364.134675 
L 505.573427 364.625757 
L 506.27023 364.788568 
L 506.967033 365.086728 
L 507.663836 364.73197 
L 509.057443 366.117724 
L 509.754246 364.860687 
L 510.451049 365.50004 
L 511.147852 365.052246 
L 511.844655 364.205404 
L 512.541459 366.550679 
L 513.935065 364.96642 
L 514.631868 365.46223 
L 516.025475 365.521139 
L 516.722278 366.501287 
L 517.419081 365.819905 
L 518.115884 363.413007 
L 518.812687 364.529307 
L 519.509491 363.416573 
L 520.206294 365.092282 
L 520.903097 365.764044 
L 522.296703 366.320984 
L 522.993506 364.954169 
L 523.69031 365.985578 
L 524.387113 366.250973 
L 525.083916 358.769033 
L 525.780719 366.260291 
L 526.477522 364.325501 
L 527.174326 365.957527 
L 527.871129 365.381248 
L 528.567932 365.705949 
L 529.264735 366.244798 
L 529.961538 365.555641 
L 530.658342 365.823206 
L 531.355145 363.838607 
L 532.051948 364.943085 
L 532.748751 364.743416 
L 533.445554 365.397083 
L 534.142358 364.501931 
L 534.839161 365.405218 
L 535.535964 365.299734 
L 536.232767 366.243259 
L 536.92957 365.796099 
L 537.626374 366.09184 
L 538.323177 366.243659 
L 539.01998 365.81679 
L 539.716783 366.625982 
L 540.413586 366.139885 
L 541.11039 366.770944 
L 541.807193 365.687215 
L 542.503996 365.147282 
L 543.200799 363.762245 
L 543.897602 365.493248 
L 544.594406 364.102464 
L 545.291209 365.442608 
L 545.988012 366.531955 
L 546.684815 367.023658 
L 547.381618 366.653288 
L 548.078422 366.034644 
L 548.775225 366.359628 
L 549.472028 364.805954 
L 550.168831 362.269976 
L 550.865634 365.703102 
L 551.562438 365.754679 
L 552.259241 366.419732 
L 552.956044 365.478223 
L 553.652847 365.800401 
L 554.34965 364.71948 
L 555.046454 365.23619 
L 555.743257 362.80719 
L 556.44006 365.154841 
L 557.136863 366.101536 
L 557.833666 365.313053 
L 558.53047 365.350156 
L 559.227273 364.219289 
L 559.924076 365.320304 
L 560.620879 365.340229 
L 561.317682 365.788686 
L 562.014486 363.189379 
L 562.711289 365.894971 
L 563.408092 365.378875 
L 564.104895 366.682265 
L 564.801698 365.269446 
L 565.498501 364.980706 
L 566.195305 364.938293 
L 566.892108 365.745226 
L 567.588911 365.380011 
L 568.285714 366.350781 
L 568.982517 365.733967 
L 569.679321 364.243896 
L 570.376124 364.569351 
L 571.072927 365.938224 
L 571.76973 351.902051 
L 572.466533 366.431241 
L 573.163337 364.502333 
L 573.86014 366.430386 
L 574.556943 364.736818 
L 575.253746 365.760649 
L 575.950549 365.491339 
L 576.647353 365.799658 
L 577.344156 366.869616 
L 578.040959 366.036837 
L 578.737762 356.721177 
L 579.434565 364.870943 
L 580.131369 362.236732 
L 580.828172 363.370668 
L 581.524975 365.305026 
L 582.221778 365.824936 
L 582.918581 364.966168 
L 583.615385 365.200193 
L 584.312188 365.01591 
L 585.008991 366.153092 
L 585.705794 366.119456 
L 586.402597 366.22204 
L 587.099401 365.513029 
L 587.796204 365.188531 
L 588.493007 365.697173 
L 589.18981 364.70816 
L 589.886613 365.477611 
L 590.583417 365.29673 
L 591.28022 365.673993 
L 591.977023 366.428714 
L 592.673826 364.641855 
L 593.370629 365.929048 
L 594.067433 364.858174 
L 594.764236 365.195424 
L 595.461039 365.060112 
L 596.157842 366.188557 
L 596.854645 366.603714 
L 597.551449 366.016307 
L 598.248252 365.956383 
L 598.945055 364.095581 
L 599.641858 364.525673 
L 600.338661 365.586475 
L 601.035465 364.300019 
L 601.732268 365.829111 
L 602.429071 364.10608 
L 603.125874 365.069117 
L 603.822677 364.913284 
L 604.519481 366.225446 
L 605.216284 366.328193 
L 605.913087 363.44536 
L 607.306693 366.092122 
L 608.003497 364.611113 
L 608.7003 367.083706 
L 609.397103 363.775519 
L 610.093906 365.625118 
L 610.790709 363.485386 
L 611.487512 364.401314 
L 612.184316 362.687559 
L 612.881119 366.397441 
L 613.577922 364.767613 
L 614.274725 365.337749 
L 614.971528 362.804936 
L 615.668332 365.754634 
L 616.365135 366.045278 
L 617.061938 365.716305 
L 617.758741 365.907224 
L 618.455544 365.007347 
L 619.152348 365.48876 
L 619.849151 365.81324 
L 620.545954 366.63625 
L 622.636364 366.296802 
L 622.636364 366.296802 
" clip-path="url(#p74f5739692)" style="fill: none; stroke: #1f77b4; stroke-width: 1.5; stroke-linecap: square"/>
   </g>
   <g id="patch_3">
    <path d="M 90 384.48 
L 90 51.84 
" style="fill: none; stroke: #000000; stroke-width: 0.8; stroke-linejoin: miter; stroke-linecap: square"/>
   </g>
   <g id="patch_4">
    <path d="M 648 384.48 
L 648 51.84 
" style="fill: none; stroke: #000000; stroke-width: 0.8; stroke-linejoin: miter; stroke-linecap: square"/>
   </g>
   <g id="patch_5">
    <path d="M 90 384.48 
L 648 384.48 
" style="fill: none; stroke: #000000; stroke-width: 0.8; stroke-linejoin: miter; stroke-linecap: square"/>
   </g>
   <g id="patch_6">
    <path d="M 90 51.84 
L 648 51.84 
" style="fill: none; stroke: #000000; stroke-width: 0.8; stroke-linejoin: miter; stroke-linecap: square"/>
   </g>
   <g id="text_20">
    <!-- Average time per index -->
    <g transform="translate(298.700625 45.84) scale(0.12 -0.12)">
     <defs>
      <path id="DejaVuSans-70" d="M 1159 525 
L 1159 -1331 
L 581 -1331 
L 581 3500 
L 1159 3500 
L 1159 2969 
Q 1341 3281 1617 3432 
Q 1894 3584 2278 3584 
Q 2916 3584 3314 3078 
Q 3713 2572 3713 1747 
Q 3713 922 3314 415 
Q 2916 -91 2278 -91 
Q 1894 -91 1617 61 
Q 1341 213 1159 525 
z
M 3116 1747 
Q 3116 2381 2855 2742 
Q 2594 3103 2138 3103 
Q 1681 3103 1420 2742 
Q 1159 2381 1159 1747 
Q 1159 1113 1420 752 
Q 1681 391 2138 391 
Q 2594 391 2855 752 
Q 3116 1113 3116 1747 
z
" transform="scale(0.015625)"/>
     </defs>
     <use xlink:href="#DejaVuSans-41"/>
     <use xlink:href="#DejaVuSans-76" transform="translate(62.533203 0)"/>
     <use xlink:href="#DejaVuSans-65" transform="translate(121.712891 0)"/>
     <use xlink:href="#DejaVuSans-72" transform="translate(183.236328 0)"/>
     <use xlink:href="#DejaVuSans-61" transform="translate(224.349609 0)"/>
     <use xlink:href="#DejaVuSans-67" transform="translate(285.628906 0)"/>
     <use xlink:href="#DejaVuSans-65" transform="translate(349.105469 0)"/>
     <use xlink:href="#DejaVuSans-20" transform="translate(410.628906 0)"/>
     <use xlink:href="#DejaVuSans-74" transform="translate(442.416016 0)"/>
     <use xlink:href="#DejaVuSans-69" transform="translate(481.625 0)"/>
     <use xlink:href="#DejaVuSans-6d" transform="translate(509.408203 0)"/>
     <use xlink:href="#DejaVuSans-65" transform="translate(606.820312 0)"/>
     <use xlink:href="#DejaVuSans-20" transform="translate(668.34375 0)"/>
     <use xlink:href="#DejaVuSans-70" transform="translate(700.130859 0)"/>
     <use xlink:href="#DejaVuSans-65" transform="translate(763.607422 0)"/>
     <use xlink:href="#DejaVuSans-72" transform="translate(825.130859 0)"/>
     <use xlink:href="#DejaVuSans-20" transform="translate(866.244141 0)"/>
     <use xlink:href="#DejaVuSans-69" transform="translate(898.03125 0)"/>
     <use xlink:href="#DejaVuSans-6e" transform="translate(925.814453 0)"/>
     <use xlink:href="#DejaVuSans-64" transform="translate(989.193359 0)"/>
     <use xlink:href="#DejaVuSans-65" transform="translate(1052.669922 0)"/>
     <use xlink:href="#DejaVuSans-78" transform="translate(1112.443359 0)"/>
    </g>
   </g>
   <g id="legend_1">
    <g id="patch_7">
     <path d="M 525.064062 74.518125 
L 641 74.518125 
Q 643 74.518125 643 72.518125 
L 643 58.84 
Q 643 56.84 641 56.84 
L 525.064062 56.84 
Q 523.064062 56.84 523.064062 58.84 
L 523.064062 72.518125 
Q 523.064062 74.518125 525.064062 74.518125 
z
" style="fill: #ffffff; opacity: 0.8; stroke: #cccccc; stroke-linejoin: miter"/>
    </g>
    <g id="line2d_19">
     <path d="M 527.064062 64.938438 
L 537.064062 64.938438 
L 547.064062 64.938438 
" style="fill: none; stroke: #1f77b4; stroke-width: 1.5; stroke-linecap: square"/>
    </g>
    <g id="text_21">
     <!-- registerFaultload -->
     <g transform="translate(555.064062 68.438438) scale(0.1 -0.1)">
      <defs>
       <path id="DejaVuSans-46" d="M 628 4666 
L 3309 4666 
L 3309 4134 
L 1259 4134 
L 1259 2759 
L 3109 2759 
L 3109 2228 
L 1259 2228 
L 1259 0 
L 628 0 
L 628 4666 
z
" transform="scale(0.015625)"/>
       <path id="DejaVuSans-75" d="M 544 1381 
L 544 3500 
L 1119 3500 
L 1119 1403 
Q 1119 906 1312 657 
Q 1506 409 1894 409 
Q 2359 409 2629 706 
Q 2900 1003 2900 1516 
L 2900 3500 
L 3475 3500 
L 3475 0 
L 2900 0 
L 2900 538 
Q 2691 219 2414 64 
Q 2138 -91 1772 -91 
Q 1169 -91 856 284 
Q 544 659 544 1381 
z
M 1991 3584 
L 1991 3584 
z
" transform="scale(0.015625)"/>
       <path id="DejaVuSans-6c" d="M 603 4863 
L 1178 4863 
L 1178 0 
L 603 0 
L 603 4863 
z
" transform="scale(0.015625)"/>
       <path id="DejaVuSans-6f" d="M 1959 3097 
Q 1497 3097 1228 2736 
Q 959 2375 959 1747 
Q 959 1119 1226 758 
Q 1494 397 1959 397 
Q 2419 397 2687 759 
Q 2956 1122 2956 1747 
Q 2956 2369 2687 2733 
Q 2419 3097 1959 3097 
z
M 1959 3584 
Q 2709 3584 3137 3096 
Q 3566 2609 3566 1747 
Q 3566 888 3137 398 
Q 2709 -91 1959 -91 
Q 1206 -91 779 398 
Q 353 888 353 1747 
Q 353 2609 779 3096 
Q 1206 3584 1959 3584 
z
" transform="scale(0.015625)"/>
      </defs>
      <use xlink:href="#DejaVuSans-72"/>
      <use xlink:href="#DejaVuSans-65" transform="translate(38.863281 0)"/>
      <use xlink:href="#DejaVuSans-67" transform="translate(100.386719 0)"/>
      <use xlink:href="#DejaVuSans-69" transform="translate(163.863281 0)"/>
      <use xlink:href="#DejaVuSans-73" transform="translate(191.646484 0)"/>
      <use xlink:href="#DejaVuSans-74" transform="translate(243.746094 0)"/>
      <use xlink:href="#DejaVuSans-65" transform="translate(282.955078 0)"/>
      <use xlink:href="#DejaVuSans-72" transform="translate(344.478516 0)"/>
      <use xlink:href="#DejaVuSans-46" transform="translate(385.591797 0)"/>
      <use xlink:href="#DejaVuSans-61" transform="translate(433.986328 0)"/>
      <use xlink:href="#DejaVuSans-75" transform="translate(495.265625 0)"/>
      <use xlink:href="#DejaVuSans-6c" transform="translate(558.644531 0)"/>
      <use xlink:href="#DejaVuSans-74" transform="translate(586.427734 0)"/>
      <use xlink:href="#DejaVuSans-6c" transform="translate(625.636719 0)"/>
      <use xlink:href="#DejaVuSans-6f" transform="translate(653.419922 0)"/>
      <use xlink:href="#DejaVuSans-61" transform="translate(714.601562 0)"/>
      <use xlink:href="#DejaVuSans-64" transform="translate(775.880859 0)"/>
     </g>
    </g>
   </g>
  </g>
 </g>
 <defs>
  <clipPath id="p74f5739692">
   <rect x="90" y="51.84" width="558" height="332.64"/>
  </clipPath>
 </defs>
</svg>
