<?xml version="1.0" encoding="utf-8" standalone="no"?>
<!DOCTYPE svg PUBLIC "-//W3C//DTD SVG 1.1//EN"
  "http://www.w3.org/Graphics/SVG/1.1/DTD/svg11.dtd">
<svg xmlns:xlink="http://www.w3.org/1999/xlink" width="576pt" height="432pt" viewBox="0 0 576 432" xmlns="http://www.w3.org/2000/svg" version="1.1">
 <metadata>
  <rdf:RDF xmlns:dc="http://purl.org/dc/elements/1.1/" xmlns:cc="http://creativecommons.org/ns#" xmlns:rdf="http://www.w3.org/1999/02/22-rdf-syntax-ns#">
   <cc:Work>
    <dc:type rdf:resource="http://purl.org/dc/dcmitype/StillImage"/>
    <dc:date>2025-07-16T19:58:37.505339</dc:date>
    <dc:format>image/svg+xml</dc:format>
    <dc:creator>
     <cc:Agent>
      <dc:title>Matplotlib v3.10.3, https://matplotlib.org/</dc:title>
     </cc:Agent>
    </dc:creator>
   </cc:Work>
  </rdf:RDF>
 </metadata>
 <defs>
  <style type="text/css">*{stroke-linejoin: round; stroke-linecap: butt}</style>
 </defs>
 <g id="figure_1">
  <g id="patch_1">
   <path d="M 0 432 
L 576 432 
L 576 0 
L 0 0 
z
" style="fill: #ffffff"/>
  </g>
  <g id="axes_1">
   <g id="patch_2">
    <path d="M 72 384.48 
L 518.4 384.48 
L 518.4 51.84 
L 72 51.84 
z
" style="fill: #ffffff"/>
   </g>
   <g id="FillBetweenPolyCollection_1">
    <path d="M 378.646316 382.414168 
L 211.753684 382.414168 
L 185.269168 379.234041 
L 183.6 376.053915 
L 204.635231 372.873788 
L 233.347426 369.693661 
L 257.228924 366.513534 
L 272.486308 363.333408 
L 280.715401 360.153281 
L 284.76556 356.973154 
L 286.860148 353.793028 
L 288.222735 350.612901 
L 289.334869 347.432774 
L 290.334533 344.252648 
L 291.239281 341.072521 
L 291.961406 337.892394 
L 292.373955 334.712268 
L 292.494095 331.532141 
L 292.511435 328.352014 
L 292.600356 325.171888 
L 292.781564 321.991761 
L 293.008085 318.811634 
L 293.307984 315.631508 
L 293.725984 312.451381 
L 294.196071 309.271254 
L 294.592999 306.091128 
L 294.856499 302.911001 
L 295.01033 299.730874 
L 295.101832 296.550748 
L 295.157183 293.370621 
L 295.185675 290.190494 
L 295.196514 287.010368 
L 295.199398 283.830241 
L 295.199927 280.650114 
L 295.199994 277.469988 
L 295.2 274.289861 
L 295.2 271.109734 
L 295.2 267.929608 
L 295.2 264.749481 
L 295.2 261.569354 
L 295.2 258.389228 
L 295.2 255.209101 
L 295.2 252.028974 
L 295.2 248.848848 
L 295.2 245.668721 
L 295.2 242.488594 
L 295.2 239.308467 
L 295.2 236.128341 
L 295.2 232.948214 
L 295.2 229.768087 
L 295.2 226.587961 
L 295.2 223.407834 
L 295.2 220.227707 
L 295.2 217.047581 
L 295.199996 213.867454 
L 295.199955 210.687327 
L 295.199606 207.507201 
L 295.197569 204.327074 
L 295.189565 201.146947 
L 295.168805 197.966821 
L 295.135053 194.786694 
L 295.10583 191.606567 
L 295.104909 188.426441 
L 295.133129 185.246314 
L 295.16725 182.066187 
L 295.188828 178.886061 
L 295.19732 175.705934 
L 295.199302 172.525807 
L 295.198228 169.345681 
L 295.192033 166.165554 
L 295.174349 162.985427 
L 295.142402 159.805301 
L 295.109523 156.625174 
L 295.098719 153.445047 
L 295.112015 150.264921 
L 295.122668 147.084794 
L 295.112458 143.904667 
L 295.09883 140.724541 
L 295.10889 137.544414 
L 295.141473 134.364287 
L 295.173694 131.184161 
L 295.191758 128.004034 
L 295.198196 124.823907 
L 295.199663 121.643781 
L 295.19944 118.463654 
L 295.1969 115.283527 
L 295.187406 112.1034 
L 295.164341 108.923274 
L 295.129634 105.743147 
L 295.102877 102.56302 
L 295.104245 99.382894 
L 295.124749 96.202767 
L 295.132928 93.02264 
L 295.113689 89.842514 
L 295.082058 86.662387 
L 295.051951 83.48226 
L 295.010409 80.302134 
L 294.944666 77.122007 
L 294.880252 73.94188 
L 294.8664 70.761754 
L 294.925188 67.581627 
L 295.474812 67.581627 
L 295.474812 67.581627 
L 295.5336 70.761754 
L 295.519748 73.94188 
L 295.455334 77.122007 
L 295.389591 80.302134 
L 295.348049 83.48226 
L 295.317942 86.662387 
L 295.286311 89.842514 
L 295.267072 93.02264 
L 295.275251 96.202767 
L 295.295755 99.382894 
L 295.297123 102.56302 
L 295.270366 105.743147 
L 295.235659 108.923274 
L 295.212594 112.1034 
L 295.2031 115.283527 
L 295.20056 118.463654 
L 295.200337 121.643781 
L 295.201804 124.823907 
L 295.208242 128.004034 
L 295.226306 131.184161 
L 295.258527 134.364287 
L 295.29111 137.544414 
L 295.30117 140.724541 
L 295.287542 143.904667 
L 295.277332 147.084794 
L 295.287985 150.264921 
L 295.301281 153.445047 
L 295.290477 156.625174 
L 295.257598 159.805301 
L 295.225651 162.985427 
L 295.207967 166.165554 
L 295.201772 169.345681 
L 295.200698 172.525807 
L 295.20268 175.705934 
L 295.211172 178.886061 
L 295.23275 182.066187 
L 295.266871 185.246314 
L 295.295091 188.426441 
L 295.29417 191.606567 
L 295.264947 194.786694 
L 295.231195 197.966821 
L 295.210435 201.146947 
L 295.202431 204.327074 
L 295.200394 207.507201 
L 295.200045 210.687327 
L 295.200004 213.867454 
L 295.2 217.047581 
L 295.2 220.227707 
L 295.2 223.407834 
L 295.2 226.587961 
L 295.2 229.768087 
L 295.2 232.948214 
L 295.2 236.128341 
L 295.2 239.308467 
L 295.2 242.488594 
L 295.2 245.668721 
L 295.2 248.848848 
L 295.2 252.028974 
L 295.2 255.209101 
L 295.2 258.389228 
L 295.2 261.569354 
L 295.2 264.749481 
L 295.2 267.929608 
L 295.2 271.109734 
L 295.2 274.289861 
L 295.200006 277.469988 
L 295.200073 280.650114 
L 295.200602 283.830241 
L 295.203486 287.010368 
L 295.214325 290.190494 
L 295.242817 293.370621 
L 295.298168 296.550748 
L 295.38967 299.730874 
L 295.543501 302.911001 
L 295.807001 306.091128 
L 296.203929 309.271254 
L 296.674016 312.451381 
L 297.092016 315.631508 
L 297.391915 318.811634 
L 297.618436 321.991761 
L 297.799644 325.171888 
L 297.888565 328.352014 
L 297.905905 331.532141 
L 298.026045 334.712268 
L 298.438594 337.892394 
L 299.160719 341.072521 
L 300.065467 344.252648 
L 301.065131 347.432774 
L 302.177265 350.612901 
L 303.539852 353.793028 
L 305.63444 356.973154 
L 309.684599 360.153281 
L 317.913692 363.333408 
L 333.171076 366.513534 
L 357.052574 369.693661 
L 385.764769 372.873788 
L 406.8 376.053915 
L 405.130832 379.234041 
L 378.646316 382.414168 
z
" clip-path="url(#p963b32493c)" style="fill: #1f77b4; fill-opacity: 0.3"/>
   </g>
   <g id="matplotlib.axis_1">
    <g id="xtick_1">
     <g id="line2d_1">
      <defs>
       <path id="m09ccc51abf" d="M 0 0 
L 0 3.5 
" style="stroke: #000000; stroke-width: 0.8"/>
      </defs>
      <g>
       <use xlink:href="#m09ccc51abf" x="295.2" y="384.48" style="stroke: #000000; stroke-width: 0.8"/>
      </g>
     </g>
     <g id="text_1">
      <!-- 1 -->
      <g transform="translate(292.01875 399.078438) scale(0.1 -0.1)">
       <defs>
        <path id="DejaVuSans-31" d="M 794 531 
L 1825 531 
L 1825 4091 
L 703 3866 
L 703 4441 
L 1819 4666 
L 2450 4666 
L 2450 531 
L 3481 531 
L 3481 0 
L 794 0 
L 794 531 
z
" transform="scale(0.015625)"/>
       </defs>
       <use xlink:href="#DejaVuSans-31"/>
      </g>
     </g>
    </g>
   </g>
   <g id="matplotlib.axis_2">
    <g id="ytick_1">
     <g id="line2d_2">
      <defs>
       <path id="m20009cdbf3" d="M 0 0 
L -3.5 0 
" style="stroke: #000000; stroke-width: 0.8"/>
      </defs>
      <g>
       <use xlink:href="#m20009cdbf3" x="72" y="384.48" style="stroke: #000000; stroke-width: 0.8"/>
      </g>
     </g>
     <g id="text_2">
      <!-- 0 -->
      <g transform="translate(58.6375 388.279219) scale(0.1 -0.1)">
       <defs>
        <path id="DejaVuSans-30" d="M 2034 4250 
Q 1547 4250 1301 3770 
Q 1056 3291 1056 2328 
Q 1056 1369 1301 889 
Q 1547 409 2034 409 
Q 2525 409 2770 889 
Q 3016 1369 3016 2328 
Q 3016 3291 2770 3770 
Q 2525 4250 2034 4250 
z
M 2034 4750 
Q 2819 4750 3233 4129 
Q 3647 3509 3647 2328 
Q 3647 1150 3233 529 
Q 2819 -91 2034 -91 
Q 1250 -91 836 529 
Q 422 1150 422 2328 
Q 422 3509 836 4129 
Q 1250 4750 2034 4750 
z
" transform="scale(0.015625)"/>
       </defs>
       <use xlink:href="#DejaVuSans-30"/>
      </g>
     </g>
    </g>
    <g id="ytick_2">
     <g id="line2d_3">
      <g>
       <use xlink:href="#m20009cdbf3" x="72" y="326.454267" style="stroke: #000000; stroke-width: 0.8"/>
      </g>
     </g>
     <g id="text_3">
      <!-- 1 -->
      <g transform="translate(58.6375 330.253486) scale(0.1 -0.1)">
       <use xlink:href="#DejaVuSans-31"/>
      </g>
     </g>
    </g>
    <g id="ytick_3">
     <g id="line2d_4">
      <g>
       <use xlink:href="#m20009cdbf3" x="72" y="268.428534" style="stroke: #000000; stroke-width: 0.8"/>
      </g>
     </g>
     <g id="text_4">
      <!-- 2 -->
      <g transform="translate(58.6375 272.227753) scale(0.1 -0.1)">
       <defs>
        <path id="DejaVuSans-32" d="M 1228 531 
L 3431 531 
L 3431 0 
L 469 0 
L 469 531 
Q 828 903 1448 1529 
Q 2069 2156 2228 2338 
Q 2531 2678 2651 2914 
Q 2772 3150 2772 3378 
Q 2772 3750 2511 3984 
Q 2250 4219 1831 4219 
Q 1534 4219 1204 4116 
Q 875 4013 500 3803 
L 500 4441 
Q 881 4594 1212 4672 
Q 1544 4750 1819 4750 
Q 2544 4750 2975 4387 
Q 3406 4025 3406 3419 
Q 3406 3131 3298 2873 
Q 3191 2616 2906 2266 
Q 2828 2175 2409 1742 
Q 1991 1309 1228 531 
z
" transform="scale(0.015625)"/>
       </defs>
       <use xlink:href="#DejaVuSans-32"/>
      </g>
     </g>
    </g>
    <g id="ytick_4">
     <g id="line2d_5">
      <g>
       <use xlink:href="#m20009cdbf3" x="72" y="210.402801" style="stroke: #000000; stroke-width: 0.8"/>
      </g>
     </g>
     <g id="text_5">
      <!-- 3 -->
      <g transform="translate(58.6375 214.20202) scale(0.1 -0.1)">
       <defs>
        <path id="DejaVuSans-33" d="M 2597 2516 
Q 3050 2419 3304 2112 
Q 3559 1806 3559 1356 
Q 3559 666 3084 287 
Q 2609 -91 1734 -91 
Q 1441 -91 1130 -33 
Q 819 25 488 141 
L 488 750 
Q 750 597 1062 519 
Q 1375 441 1716 441 
Q 2309 441 2620 675 
Q 2931 909 2931 1356 
Q 2931 1769 2642 2001 
Q 2353 2234 1838 2234 
L 1294 2234 
L 1294 2753 
L 1863 2753 
Q 2328 2753 2575 2939 
Q 2822 3125 2822 3475 
Q 2822 3834 2567 4026 
Q 2313 4219 1838 4219 
Q 1578 4219 1281 4162 
Q 984 4106 628 3988 
L 628 4550 
Q 988 4650 1302 4700 
Q 1616 4750 1894 4750 
Q 2613 4750 3031 4423 
Q 3450 4097 3450 3541 
Q 3450 3153 3228 2886 
Q 3006 2619 2597 2516 
z
" transform="scale(0.015625)"/>
       </defs>
       <use xlink:href="#DejaVuSans-33"/>
      </g>
     </g>
    </g>
    <g id="ytick_5">
     <g id="line2d_6">
      <g>
       <use xlink:href="#m20009cdbf3" x="72" y="152.377068" style="stroke: #000000; stroke-width: 0.8"/>
      </g>
     </g>
     <g id="text_6">
      <!-- 4 -->
      <g transform="translate(58.6375 156.176287) scale(0.1 -0.1)">
       <defs>
        <path id="DejaVuSans-34" d="M 2419 4116 
L 825 1625 
L 2419 1625 
L 2419 4116 
z
M 2253 4666 
L 3047 4666 
L 3047 1625 
L 3713 1625 
L 3713 1100 
L 3047 1100 
L 3047 0 
L 2419 0 
L 2419 1100 
L 313 1100 
L 313 1709 
L 2253 4666 
z
" transform="scale(0.015625)"/>
       </defs>
       <use xlink:href="#DejaVuSans-34"/>
      </g>
     </g>
    </g>
    <g id="ytick_6">
     <g id="line2d_7">
      <g>
       <use xlink:href="#m20009cdbf3" x="72" y="94.351335" style="stroke: #000000; stroke-width: 0.8"/>
      </g>
     </g>
     <g id="text_7">
      <!-- 5 -->
      <g transform="translate(58.6375 98.150554) scale(0.1 -0.1)">
       <defs>
        <path id="DejaVuSans-35" d="M 691 4666 
L 3169 4666 
L 3169 4134 
L 1269 4134 
L 1269 2991 
Q 1406 3038 1543 3061 
Q 1681 3084 1819 3084 
Q 2600 3084 3056 2656 
Q 3513 2228 3513 1497 
Q 3513 744 3044 326 
Q 2575 -91 1722 -91 
Q 1428 -91 1123 -41 
Q 819 9 494 109 
L 494 744 
Q 775 591 1075 516 
Q 1375 441 1709 441 
Q 2250 441 2565 725 
Q 2881 1009 2881 1497 
Q 2881 1984 2565 2268 
Q 2250 2553 1709 2553 
Q 1456 2553 1204 2497 
Q 953 2441 691 2322 
L 691 4666 
z
" transform="scale(0.015625)"/>
       </defs>
       <use xlink:href="#DejaVuSans-35"/>
      </g>
     </g>
    </g>
    <g id="text_8">
     <!-- Time (ms) -->
     <g transform="translate(52.557812 243.359219) rotate(-90) scale(0.1 -0.1)">
      <defs>
       <path id="DejaVuSans-54" d="M -19 4666 
L 3928 4666 
L 3928 4134 
L 2272 4134 
L 2272 0 
L 1638 0 
L 1638 4134 
L -19 4134 
L -19 4666 
z
" transform="scale(0.015625)"/>
       <path id="DejaVuSans-69" d="M 603 3500 
L 1178 3500 
L 1178 0 
L 603 0 
L 603 3500 
z
M 603 4863 
L 1178 4863 
L 1178 4134 
L 603 4134 
L 603 4863 
z
" transform="scale(0.015625)"/>
       <path id="DejaVuSans-6d" d="M 3328 2828 
Q 3544 3216 3844 3400 
Q 4144 3584 4550 3584 
Q 5097 3584 5394 3201 
Q 5691 2819 5691 2113 
L 5691 0 
L 5113 0 
L 5113 2094 
Q 5113 2597 4934 2840 
Q 4756 3084 4391 3084 
Q 3944 3084 3684 2787 
Q 3425 2491 3425 1978 
L 3425 0 
L 2847 0 
L 2847 2094 
Q 2847 2600 2669 2842 
Q 2491 3084 2119 3084 
Q 1678 3084 1418 2786 
Q 1159 2488 1159 1978 
L 1159 0 
L 581 0 
L 581 3500 
L 1159 3500 
L 1159 2956 
Q 1356 3278 1631 3431 
Q 1906 3584 2284 3584 
Q 2666 3584 2933 3390 
Q 3200 3197 3328 2828 
z
" transform="scale(0.015625)"/>
       <path id="DejaVuSans-65" d="M 3597 1894 
L 3597 1613 
L 953 1613 
Q 991 1019 1311 708 
Q 1631 397 2203 397 
Q 2534 397 2845 478 
Q 3156 559 3463 722 
L 3463 178 
Q 3153 47 2828 -22 
Q 2503 -91 2169 -91 
Q 1331 -91 842 396 
Q 353 884 353 1716 
Q 353 2575 817 3079 
Q 1281 3584 2069 3584 
Q 2775 3584 3186 3129 
Q 3597 2675 3597 1894 
z
M 3022 2063 
Q 3016 2534 2758 2815 
Q 2500 3097 2075 3097 
Q 1594 3097 1305 2825 
Q 1016 2553 972 2059 
L 3022 2063 
z
" transform="scale(0.015625)"/>
       <path id="DejaVuSans-20" transform="scale(0.015625)"/>
       <path id="DejaVuSans-28" d="M 1984 4856 
Q 1566 4138 1362 3434 
Q 1159 2731 1159 2009 
Q 1159 1288 1364 580 
Q 1569 -128 1984 -844 
L 1484 -844 
Q 1016 -109 783 600 
Q 550 1309 550 2009 
Q 550 2706 781 3412 
Q 1013 4119 1484 4856 
L 1984 4856 
z
" transform="scale(0.015625)"/>
       <path id="DejaVuSans-73" d="M 2834 3397 
L 2834 2853 
Q 2591 2978 2328 3040 
Q 2066 3103 1784 3103 
Q 1356 3103 1142 2972 
Q 928 2841 928 2578 
Q 928 2378 1081 2264 
Q 1234 2150 1697 2047 
L 1894 2003 
Q 2506 1872 2764 1633 
Q 3022 1394 3022 966 
Q 3022 478 2636 193 
Q 2250 -91 1575 -91 
Q 1294 -91 989 -36 
Q 684 19 347 128 
L 347 722 
Q 666 556 975 473 
Q 1284 391 1588 391 
Q 1994 391 2212 530 
Q 2431 669 2431 922 
Q 2431 1156 2273 1281 
Q 2116 1406 1581 1522 
L 1381 1569 
Q 847 1681 609 1914 
Q 372 2147 372 2553 
Q 372 3047 722 3315 
Q 1072 3584 1716 3584 
Q 2034 3584 2315 3537 
Q 2597 3491 2834 3397 
z
" transform="scale(0.015625)"/>
       <path id="DejaVuSans-29" d="M 513 4856 
L 1013 4856 
Q 1481 4119 1714 3412 
Q 1947 2706 1947 2009 
Q 1947 1309 1714 600 
Q 1481 -109 1013 -844 
L 513 -844 
Q 928 -128 1133 580 
Q 1338 1288 1338 2009 
Q 1338 2731 1133 3434 
Q 928 4138 513 4856 
z
" transform="scale(0.015625)"/>
      </defs>
      <use xlink:href="#DejaVuSans-54"/>
      <use xlink:href="#DejaVuSans-69" transform="translate(57.958984 0)"/>
      <use xlink:href="#DejaVuSans-6d" transform="translate(85.742188 0)"/>
      <use xlink:href="#DejaVuSans-65" transform="translate(183.154297 0)"/>
      <use xlink:href="#DejaVuSans-20" transform="translate(244.677734 0)"/>
      <use xlink:href="#DejaVuSans-28" transform="translate(276.464844 0)"/>
      <use xlink:href="#DejaVuSans-6d" transform="translate(315.478516 0)"/>
      <use xlink:href="#DejaVuSans-73" transform="translate(412.890625 0)"/>
      <use xlink:href="#DejaVuSans-29" transform="translate(464.990234 0)"/>
     </g>
    </g>
   </g>
   <g id="LineCollection_1">
    <path d="M 239.4 371.454557 
L 351 371.454557 
" clip-path="url(#p963b32493c)" style="fill: none; stroke: #1f77b4; stroke-width: 1.5"/>
   </g>
   <g id="LineCollection_2">
    <path d="M 239.4 67.581627 
L 351 67.581627 
" clip-path="url(#p963b32493c)" style="fill: none; stroke: #1f77b4; stroke-width: 1.5"/>
   </g>
   <g id="LineCollection_3">
    <path d="M 239.4 382.414168 
L 351 382.414168 
" clip-path="url(#p963b32493c)" style="fill: none; stroke: #1f77b4; stroke-width: 1.5"/>
   </g>
   <g id="LineCollection_4">
    <path d="M 295.2 382.414168 
L 295.2 67.581627 
" clip-path="url(#p963b32493c)" style="fill: none; stroke: #1f77b4; stroke-width: 1.5"/>
   </g>
   <g id="patch_3">
    <path d="M 250.56 378.914984 
L 339.84 378.914984 
L 339.84 371.891955 
L 250.56 371.891955 
L 250.56 378.914984 
z
" clip-path="url(#p963b32493c)" style="fill: #1f77b4; stroke: #000000; stroke-linejoin: miter"/>
   </g>
   <g id="line2d_8">
    <path d="M 295.2 378.914984 
L 295.2 382.414168 
" clip-path="url(#p963b32493c)" style="fill: none; stroke: #000000; stroke-linecap: square"/>
   </g>
   <g id="line2d_9">
    <path d="M 295.2 371.891955 
L 295.2 361.454055 
" clip-path="url(#p963b32493c)" style="fill: none; stroke: #000000; stroke-linecap: square"/>
   </g>
   <g id="line2d_10">
    <path d="M 272.88 382.414168 
L 317.52 382.414168 
" clip-path="url(#p963b32493c)" style="fill: none; stroke: #000000; stroke-linecap: square"/>
   </g>
   <g id="line2d_11">
    <path d="M 272.88 361.454055 
L 317.52 361.454055 
" clip-path="url(#p963b32493c)" style="fill: none; stroke: #000000; stroke-linecap: square"/>
   </g>
   <g id="line2d_12">
    <defs>
     <path id="mcaaaf5acbf" d="M 0 3 
C 0.795609 3 1.55874 2.683901 2.12132 2.12132 
C 2.683901 1.55874 3 0.795609 3 0 
C 3 -0.795609 2.683901 -1.55874 2.12132 -2.12132 
C 1.55874 -2.683901 0.795609 -3 0 -3 
C -0.795609 -3 -1.55874 -2.683901 -2.12132 -2.12132 
C -2.683901 -1.55874 -3 -0.795609 -3 0 
C -3 0.795609 -2.683901 1.55874 -2.12132 2.12132 
C -1.55874 2.683901 -0.795609 3 0 3 
z
" style="stroke: #000000"/>
    </defs>
    <g clip-path="url(#p963b32493c)">
     <use xlink:href="#mcaaaf5acbf" x="295.2" y="354.885193" style="fill-opacity: 0; stroke: #000000"/>
     <use xlink:href="#mcaaaf5acbf" x="295.2" y="327.47227" style="fill-opacity: 0; stroke: #000000"/>
     <use xlink:href="#mcaaaf5acbf" x="295.2" y="316.348099" style="fill-opacity: 0; stroke: #000000"/>
     <use xlink:href="#mcaaaf5acbf" x="295.2" y="326.201449" style="fill-opacity: 0; stroke: #000000"/>
     <use xlink:href="#mcaaaf5acbf" x="295.2" y="332.149435" style="fill-opacity: 0; stroke: #000000"/>
     <use xlink:href="#mcaaaf5acbf" x="295.2" y="339.565529" style="fill-opacity: 0; stroke: #000000"/>
     <use xlink:href="#mcaaaf5acbf" x="295.2" y="343.02984" style="fill-opacity: 0; stroke: #000000"/>
     <use xlink:href="#mcaaaf5acbf" x="295.2" y="355.186927" style="fill-opacity: 0; stroke: #000000"/>
     <use xlink:href="#mcaaaf5acbf" x="295.2" y="350.4634" style="fill-opacity: 0; stroke: #000000"/>
     <use xlink:href="#mcaaaf5acbf" x="295.2" y="351.461443" style="fill-opacity: 0; stroke: #000000"/>
     <use xlink:href="#mcaaaf5acbf" x="295.2" y="341.753216" style="fill-opacity: 0; stroke: #000000"/>
     <use xlink:href="#mcaaaf5acbf" x="295.2" y="335.19596" style="fill-opacity: 0; stroke: #000000"/>
     <use xlink:href="#mcaaaf5acbf" x="295.2" y="354.80976" style="fill-opacity: 0; stroke: #000000"/>
     <use xlink:href="#mcaaaf5acbf" x="295.2" y="354.020552" style="fill-opacity: 0; stroke: #000000"/>
     <use xlink:href="#mcaaaf5acbf" x="295.2" y="360.902752" style="fill-opacity: 0; stroke: #000000"/>
     <use xlink:href="#mcaaaf5acbf" x="295.2" y="361.100098" style="fill-opacity: 0; stroke: #000000"/>
     <use xlink:href="#mcaaaf5acbf" x="295.2" y="355.372668" style="fill-opacity: 0; stroke: #000000"/>
     <use xlink:href="#mcaaaf5acbf" x="295.2" y="361.158123" style="fill-opacity: 0; stroke: #000000"/>
     <use xlink:href="#mcaaaf5acbf" x="295.2" y="361.169728" style="fill-opacity: 0; stroke: #000000"/>
     <use xlink:href="#mcaaaf5acbf" x="295.2" y="358.703519" style="fill-opacity: 0; stroke: #000000"/>
     <use xlink:href="#mcaaaf5acbf" x="295.2" y="357.078508" style="fill-opacity: 0; stroke: #000000"/>
     <use xlink:href="#mcaaaf5acbf" x="295.2" y="329.183797" style="fill-opacity: 0; stroke: #000000"/>
     <use xlink:href="#mcaaaf5acbf" x="295.2" y="313.974266" style="fill-opacity: 0; stroke: #000000"/>
     <use xlink:href="#mcaaaf5acbf" x="295.2" y="323.456251" style="fill-opacity: 0; stroke: #000000"/>
     <use xlink:href="#mcaaaf5acbf" x="295.2" y="327.779459" style="fill-opacity: 0; stroke: #000000"/>
     <use xlink:href="#mcaaaf5acbf" x="295.2" y="347.248369" style="fill-opacity: 0; stroke: #000000"/>
     <use xlink:href="#mcaaaf5acbf" x="295.2" y="343.992893" style="fill-opacity: 0; stroke: #000000"/>
     <use xlink:href="#mcaaaf5acbf" x="295.2" y="354.519399" style="fill-opacity: 0; stroke: #000000"/>
     <use xlink:href="#mcaaaf5acbf" x="295.2" y="342.727816" style="fill-opacity: 0; stroke: #000000"/>
     <use xlink:href="#mcaaaf5acbf" x="295.2" y="353.02808" style="fill-opacity: 0; stroke: #000000"/>
     <use xlink:href="#mcaaaf5acbf" x="295.2" y="354.496189" style="fill-opacity: 0; stroke: #000000"/>
     <use xlink:href="#mcaaaf5acbf" x="295.2" y="331.748651" style="fill-opacity: 0; stroke: #000000"/>
     <use xlink:href="#mcaaaf5acbf" x="295.2" y="351.205956" style="fill-opacity: 0; stroke: #000000"/>
     <use xlink:href="#mcaaaf5acbf" x="295.2" y="355.151938" style="fill-opacity: 0; stroke: #000000"/>
     <use xlink:href="#mcaaaf5acbf" x="295.2" y="344.73568" style="fill-opacity: 0; stroke: #000000"/>
     <use xlink:href="#mcaaaf5acbf" x="295.2" y="359.295207" style="fill-opacity: 0; stroke: #000000"/>
     <use xlink:href="#mcaaaf5acbf" x="295.2" y="361.117389" style="fill-opacity: 0; stroke: #000000"/>
     <use xlink:href="#mcaaaf5acbf" x="295.2" y="154.29476" style="fill-opacity: 0; stroke: #000000"/>
     <use xlink:href="#mcaaaf5acbf" x="295.2" y="358.338189" style="fill-opacity: 0; stroke: #000000"/>
     <use xlink:href="#mcaaaf5acbf" x="295.2" y="327.652672" style="fill-opacity: 0; stroke: #000000"/>
     <use xlink:href="#mcaaaf5acbf" x="295.2" y="308.027441" style="fill-opacity: 0; stroke: #000000"/>
     <use xlink:href="#mcaaaf5acbf" x="295.2" y="318.141849" style="fill-opacity: 0; stroke: #000000"/>
     <use xlink:href="#mcaaaf5acbf" x="295.2" y="336.623857" style="fill-opacity: 0; stroke: #000000"/>
     <use xlink:href="#mcaaaf5acbf" x="295.2" y="330.797841" style="fill-opacity: 0; stroke: #000000"/>
     <use xlink:href="#mcaaaf5acbf" x="295.2" y="333.763072" style="fill-opacity: 0; stroke: #000000"/>
     <use xlink:href="#mcaaaf5acbf" x="295.2" y="355.053758" style="fill-opacity: 0; stroke: #000000"/>
     <use xlink:href="#mcaaaf5acbf" x="295.2" y="344.167608" style="fill-opacity: 0; stroke: #000000"/>
     <use xlink:href="#mcaaaf5acbf" x="295.2" y="347.365" style="fill-opacity: 0; stroke: #000000"/>
     <use xlink:href="#mcaaaf5acbf" x="295.2" y="356.208528" style="fill-opacity: 0; stroke: #000000"/>
     <use xlink:href="#mcaaaf5acbf" x="295.2" y="357.345833" style="fill-opacity: 0; stroke: #000000"/>
     <use xlink:href="#mcaaaf5acbf" x="295.2" y="359.742469" style="fill-opacity: 0; stroke: #000000"/>
     <use xlink:href="#mcaaaf5acbf" x="295.2" y="348.833051" style="fill-opacity: 0; stroke: #000000"/>
     <use xlink:href="#mcaaaf5acbf" x="295.2" y="356.55088" style="fill-opacity: 0; stroke: #000000"/>
     <use xlink:href="#mcaaaf5acbf" x="295.2" y="357.113904" style="fill-opacity: 0; stroke: #000000"/>
     <use xlink:href="#mcaaaf5acbf" x="295.2" y="357.311191" style="fill-opacity: 0; stroke: #000000"/>
     <use xlink:href="#mcaaaf5acbf" x="295.2" y="320.782426" style="fill-opacity: 0; stroke: #000000"/>
     <use xlink:href="#mcaaaf5acbf" x="295.2" y="317.323918" style="fill-opacity: 0; stroke: #000000"/>
     <use xlink:href="#mcaaaf5acbf" x="295.2" y="318.107323" style="fill-opacity: 0; stroke: #000000"/>
     <use xlink:href="#mcaaaf5acbf" x="295.2" y="323.382095" style="fill-opacity: 0; stroke: #000000"/>
     <use xlink:href="#mcaaaf5acbf" x="295.2" y="339.415301" style="fill-opacity: 0; stroke: #000000"/>
     <use xlink:href="#mcaaaf5acbf" x="295.2" y="332.388094" style="fill-opacity: 0; stroke: #000000"/>
     <use xlink:href="#mcaaaf5acbf" x="295.2" y="347.533449" style="fill-opacity: 0; stroke: #000000"/>
     <use xlink:href="#mcaaaf5acbf" x="295.2" y="342.664858" style="fill-opacity: 0; stroke: #000000"/>
     <use xlink:href="#mcaaaf5acbf" x="295.2" y="351.682463" style="fill-opacity: 0; stroke: #000000"/>
     <use xlink:href="#mcaaaf5acbf" x="295.2" y="348.026668" style="fill-opacity: 0; stroke: #000000"/>
     <use xlink:href="#mcaaaf5acbf" x="295.2" y="324.200315" style="fill-opacity: 0; stroke: #000000"/>
     <use xlink:href="#mcaaaf5acbf" x="295.2" y="353.77725" style="fill-opacity: 0; stroke: #000000"/>
     <use xlink:href="#mcaaaf5acbf" x="295.2" y="360.253212" style="fill-opacity: 0; stroke: #000000"/>
     <use xlink:href="#mcaaaf5acbf" x="295.2" y="356.841183" style="fill-opacity: 0; stroke: #000000"/>
     <use xlink:href="#mcaaaf5acbf" x="295.2" y="359.214493" style="fill-opacity: 0; stroke: #000000"/>
     <use xlink:href="#mcaaaf5acbf" x="295.2" y="356.893406" style="fill-opacity: 0; stroke: #000000"/>
     <use xlink:href="#mcaaaf5acbf" x="295.2" y="349.767556" style="fill-opacity: 0; stroke: #000000"/>
     <use xlink:href="#mcaaaf5acbf" x="295.2" y="72.50865" style="fill-opacity: 0; stroke: #000000"/>
     <use xlink:href="#mcaaaf5acbf" x="295.2" y="358.465439" style="fill-opacity: 0; stroke: #000000"/>
     <use xlink:href="#mcaaaf5acbf" x="295.2" y="315.192981" style="fill-opacity: 0; stroke: #000000"/>
     <use xlink:href="#mcaaaf5acbf" x="295.2" y="307.991465" style="fill-opacity: 0; stroke: #000000"/>
     <use xlink:href="#mcaaaf5acbf" x="295.2" y="326.827837" style="fill-opacity: 0; stroke: #000000"/>
     <use xlink:href="#mcaaaf5acbf" x="295.2" y="326.949691" style="fill-opacity: 0; stroke: #000000"/>
     <use xlink:href="#mcaaaf5acbf" x="295.2" y="330.976909" style="fill-opacity: 0; stroke: #000000"/>
     <use xlink:href="#mcaaaf5acbf" x="295.2" y="310.080566" style="fill-opacity: 0; stroke: #000000"/>
     <use xlink:href="#mcaaaf5acbf" x="295.2" y="354.380195" style="fill-opacity: 0; stroke: #000000"/>
     <use xlink:href="#mcaaaf5acbf" x="295.2" y="342.37972" style="fill-opacity: 0; stroke: #000000"/>
     <use xlink:href="#mcaaaf5acbf" x="295.2" y="350.271683" style="fill-opacity: 0; stroke: #000000"/>
     <use xlink:href="#mcaaaf5acbf" x="295.2" y="347.213553" style="fill-opacity: 0; stroke: #000000"/>
     <use xlink:href="#mcaaaf5acbf" x="295.2" y="344.642781" style="fill-opacity: 0; stroke: #000000"/>
     <use xlink:href="#mcaaaf5acbf" x="295.2" y="352.795977" style="fill-opacity: 0; stroke: #000000"/>
     <use xlink:href="#mcaaaf5acbf" x="295.2" y="358.250686" style="fill-opacity: 0; stroke: #000000"/>
     <use xlink:href="#mcaaaf5acbf" x="295.2" y="351.188548" style="fill-opacity: 0; stroke: #000000"/>
     <use xlink:href="#mcaaaf5acbf" x="295.2" y="101.366298" style="fill-opacity: 0; stroke: #000000"/>
     <use xlink:href="#mcaaaf5acbf" x="295.2" y="354.70514" style="fill-opacity: 0; stroke: #000000"/>
     <use xlink:href="#mcaaaf5acbf" x="295.2" y="313.98593" style="fill-opacity: 0; stroke: #000000"/>
     <use xlink:href="#mcaaaf5acbf" x="295.2" y="313.115486" style="fill-opacity: 0; stroke: #000000"/>
     <use xlink:href="#mcaaaf5acbf" x="295.2" y="325.330657" style="fill-opacity: 0; stroke: #000000"/>
     <use xlink:href="#mcaaaf5acbf" x="295.2" y="328.9633" style="fill-opacity: 0; stroke: #000000"/>
     <use xlink:href="#mcaaaf5acbf" x="295.2" y="348.844192" style="fill-opacity: 0; stroke: #000000"/>
     <use xlink:href="#mcaaaf5acbf" x="295.2" y="333.507005" style="fill-opacity: 0; stroke: #000000"/>
     <use xlink:href="#mcaaaf5acbf" x="295.2" y="350.097606" style="fill-opacity: 0; stroke: #000000"/>
     <use xlink:href="#mcaaaf5acbf" x="295.2" y="350.277486" style="fill-opacity: 0; stroke: #000000"/>
     <use xlink:href="#mcaaaf5acbf" x="295.2" y="340.981183" style="fill-opacity: 0; stroke: #000000"/>
     <use xlink:href="#mcaaaf5acbf" x="295.2" y="339.130046" style="fill-opacity: 0; stroke: #000000"/>
     <use xlink:href="#mcaaaf5acbf" x="295.2" y="341.787799" style="fill-opacity: 0; stroke: #000000"/>
     <use xlink:href="#mcaaaf5acbf" x="295.2" y="357.58339" style="fill-opacity: 0; stroke: #000000"/>
     <use xlink:href="#mcaaaf5acbf" x="295.2" y="354.153837" style="fill-opacity: 0; stroke: #000000"/>
     <use xlink:href="#mcaaaf5acbf" x="295.2" y="356.765169" style="fill-opacity: 0; stroke: #000000"/>
     <use xlink:href="#mcaaaf5acbf" x="295.2" y="360.229537" style="fill-opacity: 0; stroke: #000000"/>
     <use xlink:href="#mcaaaf5acbf" x="295.2" y="70.349803" style="fill-opacity: 0; stroke: #000000"/>
     <use xlink:href="#mcaaaf5acbf" x="295.2" y="357.536969" style="fill-opacity: 0; stroke: #000000"/>
     <use xlink:href="#mcaaaf5acbf" x="295.2" y="317.427146" style="fill-opacity: 0; stroke: #000000"/>
     <use xlink:href="#mcaaaf5acbf" x="295.2" y="313.684254" style="fill-opacity: 0; stroke: #000000"/>
     <use xlink:href="#mcaaaf5acbf" x="295.2" y="316.301388" style="fill-opacity: 0; stroke: #000000"/>
     <use xlink:href="#mcaaaf5acbf" x="295.2" y="317.003558" style="fill-opacity: 0; stroke: #000000"/>
     <use xlink:href="#mcaaaf5acbf" x="295.2" y="347.788066" style="fill-opacity: 0; stroke: #000000"/>
     <use xlink:href="#mcaaaf5acbf" x="295.2" y="344.631292" style="fill-opacity: 0; stroke: #000000"/>
     <use xlink:href="#mcaaaf5acbf" x="295.2" y="345.426303" style="fill-opacity: 0; stroke: #000000"/>
     <use xlink:href="#mcaaaf5acbf" x="295.2" y="341.050872" style="fill-opacity: 0; stroke: #000000"/>
     <use xlink:href="#mcaaaf5acbf" x="295.2" y="347.422504" style="fill-opacity: 0; stroke: #000000"/>
     <use xlink:href="#mcaaaf5acbf" x="295.2" y="348.484433" style="fill-opacity: 0; stroke: #000000"/>
     <use xlink:href="#mcaaaf5acbf" x="295.2" y="189.930974" style="fill-opacity: 0; stroke: #000000"/>
     <use xlink:href="#mcaaaf5acbf" x="295.2" y="353.892721" style="fill-opacity: 0; stroke: #000000"/>
     <use xlink:href="#mcaaaf5acbf" x="295.2" y="352.819245" style="fill-opacity: 0; stroke: #000000"/>
     <use xlink:href="#mcaaaf5acbf" x="295.2" y="359.66663" style="fill-opacity: 0; stroke: #000000"/>
     <use xlink:href="#mcaaaf5acbf" x="295.2" y="355.714903" style="fill-opacity: 0; stroke: #000000"/>
     <use xlink:href="#mcaaaf5acbf" x="295.2" y="359.185016" style="fill-opacity: 0; stroke: #000000"/>
     <use xlink:href="#mcaaaf5acbf" x="295.2" y="353.23703" style="fill-opacity: 0; stroke: #000000"/>
     <use xlink:href="#mcaaaf5acbf" x="295.2" y="322.214501" style="fill-opacity: 0; stroke: #000000"/>
     <use xlink:href="#mcaaaf5acbf" x="295.2" y="319.005446" style="fill-opacity: 0; stroke: #000000"/>
     <use xlink:href="#mcaaaf5acbf" x="295.2" y="326.613083" style="fill-opacity: 0; stroke: #000000"/>
     <use xlink:href="#mcaaaf5acbf" x="295.2" y="333.408361" style="fill-opacity: 0; stroke: #000000"/>
     <use xlink:href="#mcaaaf5acbf" x="295.2" y="347.857697" style="fill-opacity: 0; stroke: #000000"/>
     <use xlink:href="#mcaaaf5acbf" x="295.2" y="339.536226" style="fill-opacity: 0; stroke: #000000"/>
     <use xlink:href="#mcaaaf5acbf" x="295.2" y="343.163067" style="fill-opacity: 0; stroke: #000000"/>
     <use xlink:href="#mcaaaf5acbf" x="295.2" y="345.675755" style="fill-opacity: 0; stroke: #000000"/>
     <use xlink:href="#mcaaaf5acbf" x="295.2" y="349.44766" style="fill-opacity: 0; stroke: #000000"/>
     <use xlink:href="#mcaaaf5acbf" x="295.2" y="348.739746" style="fill-opacity: 0; stroke: #000000"/>
     <use xlink:href="#mcaaaf5acbf" x="295.2" y="341.781996" style="fill-opacity: 0; stroke: #000000"/>
     <use xlink:href="#mcaaaf5acbf" x="295.2" y="349.476673" style="fill-opacity: 0; stroke: #000000"/>
     <use xlink:href="#mcaaaf5acbf" x="295.2" y="353.242775" style="fill-opacity: 0; stroke: #000000"/>
     <use xlink:href="#mcaaaf5acbf" x="295.2" y="351.739851" style="fill-opacity: 0; stroke: #000000"/>
     <use xlink:href="#mcaaaf5acbf" x="295.2" y="360.339786" style="fill-opacity: 0; stroke: #000000"/>
     <use xlink:href="#mcaaaf5acbf" x="295.2" y="358.85427" style="fill-opacity: 0; stroke: #000000"/>
     <use xlink:href="#mcaaaf5acbf" x="295.2" y="360.740164" style="fill-opacity: 0; stroke: #000000"/>
     <use xlink:href="#mcaaaf5acbf" x="295.2" y="67.581627" style="fill-opacity: 0; stroke: #000000"/>
     <use xlink:href="#mcaaaf5acbf" x="295.2" y="139.793375" style="fill-opacity: 0; stroke: #000000"/>
     <use xlink:href="#mcaaaf5acbf" x="295.2" y="360.624112" style="fill-opacity: 0; stroke: #000000"/>
     <use xlink:href="#mcaaaf5acbf" x="295.2" y="331.365681" style="fill-opacity: 0; stroke: #000000"/>
     <use xlink:href="#mcaaaf5acbf" x="295.2" y="313.956859" style="fill-opacity: 0; stroke: #000000"/>
     <use xlink:href="#mcaaaf5acbf" x="295.2" y="319.893239" style="fill-opacity: 0; stroke: #000000"/>
     <use xlink:href="#mcaaaf5acbf" x="295.2" y="326.816173" style="fill-opacity: 0; stroke: #000000"/>
     <use xlink:href="#mcaaaf5acbf" x="295.2" y="344.671852" style="fill-opacity: 0; stroke: #000000"/>
     <use xlink:href="#mcaaaf5acbf" x="295.2" y="341.561441" style="fill-opacity: 0; stroke: #000000"/>
     <use xlink:href="#mcaaaf5acbf" x="295.2" y="337.708242" style="fill-opacity: 0; stroke: #000000"/>
     <use xlink:href="#mcaaaf5acbf" x="295.2" y="334.058249" style="fill-opacity: 0; stroke: #000000"/>
     <use xlink:href="#mcaaaf5acbf" x="295.2" y="349.169136" style="fill-opacity: 0; stroke: #000000"/>
     <use xlink:href="#mcaaaf5acbf" x="295.2" y="357.246783" style="fill-opacity: 0; stroke: #000000"/>
     <use xlink:href="#mcaaaf5acbf" x="295.2" y="351.838436" style="fill-opacity: 0; stroke: #000000"/>
     <use xlink:href="#mcaaaf5acbf" x="295.2" y="347.613873" style="fill-opacity: 0; stroke: #000000"/>
     <use xlink:href="#mcaaaf5acbf" x="295.2" y="360.542876" style="fill-opacity: 0; stroke: #000000"/>
     <use xlink:href="#mcaaaf5acbf" x="295.2" y="356.016579" style="fill-opacity: 0; stroke: #000000"/>
     <use xlink:href="#mcaaaf5acbf" x="295.2" y="361.332084" style="fill-opacity: 0; stroke: #000000"/>
     <use xlink:href="#mcaaaf5acbf" x="295.2" y="360.107625" style="fill-opacity: 0; stroke: #000000"/>
     <use xlink:href="#mcaaaf5acbf" x="295.2" y="358.21587" style="fill-opacity: 0; stroke: #000000"/>
     <use xlink:href="#mcaaaf5acbf" x="295.2" y="76.349663" style="fill-opacity: 0; stroke: #000000"/>
     <use xlink:href="#mcaaaf5acbf" x="295.2" y="354.177047" style="fill-opacity: 0; stroke: #000000"/>
     <use xlink:href="#mcaaaf5acbf" x="295.2" y="300.7379" style="fill-opacity: 0; stroke: #000000"/>
     <use xlink:href="#mcaaaf5acbf" x="295.2" y="323.746496" style="fill-opacity: 0; stroke: #000000"/>
     <use xlink:href="#mcaaaf5acbf" x="295.2" y="325.574423" style="fill-opacity: 0; stroke: #000000"/>
     <use xlink:href="#mcaaaf5acbf" x="295.2" y="323.769706" style="fill-opacity: 0; stroke: #000000"/>
     <use xlink:href="#mcaaaf5acbf" x="295.2" y="334.122135" style="fill-opacity: 0; stroke: #000000"/>
     <use xlink:href="#mcaaaf5acbf" x="295.2" y="342.489968" style="fill-opacity: 0; stroke: #000000"/>
     <use xlink:href="#mcaaaf5acbf" x="295.2" y="350.364525" style="fill-opacity: 0; stroke: #000000"/>
     <use xlink:href="#mcaaaf5acbf" x="295.2" y="339.484003" style="fill-opacity: 0; stroke: #000000"/>
     <use xlink:href="#mcaaaf5acbf" x="295.2" y="352.801837" style="fill-opacity: 0; stroke: #000000"/>
     <use xlink:href="#mcaaaf5acbf" x="295.2" y="347.16133" style="fill-opacity: 0; stroke: #000000"/>
     <use xlink:href="#mcaaaf5acbf" x="295.2" y="339.959872" style="fill-opacity: 0; stroke: #000000"/>
     <use xlink:href="#mcaaaf5acbf" x="295.2" y="356.950851" style="fill-opacity: 0; stroke: #000000"/>
     <use xlink:href="#mcaaaf5acbf" x="295.2" y="353.974015" style="fill-opacity: 0; stroke: #000000"/>
     <use xlink:href="#mcaaaf5acbf" x="295.2" y="353.649013" style="fill-opacity: 0; stroke: #000000"/>
     <use xlink:href="#mcaaaf5acbf" x="295.2" y="356.063058" style="fill-opacity: 0; stroke: #000000"/>
     <use xlink:href="#mcaaaf5acbf" x="295.2" y="85.686932" style="fill-opacity: 0; stroke: #000000"/>
    </g>
   </g>
   <g id="line2d_13">
    <path d="M 250.56 377.39471 
L 339.84 377.39471 
" clip-path="url(#p963b32493c)" style="fill: none; stroke: #ff7f0e"/>
   </g>
   <g id="patch_4">
    <path d="M 72 384.48 
L 72 51.84 
" style="fill: none; stroke: #000000; stroke-width: 0.8; stroke-linejoin: miter; stroke-linecap: square"/>
   </g>
   <g id="patch_5">
    <path d="M 518.4 384.48 
L 518.4 51.84 
" style="fill: none; stroke: #000000; stroke-width: 0.8; stroke-linejoin: miter; stroke-linecap: square"/>
   </g>
   <g id="patch_6">
    <path d="M 72 384.48 
L 518.4 384.48 
" style="fill: none; stroke: #000000; stroke-width: 0.8; stroke-linejoin: miter; stroke-linecap: square"/>
   </g>
   <g id="patch_7">
    <path d="M 72 51.84 
L 518.4 51.84 
" style="fill: none; stroke: #000000; stroke-width: 0.8; stroke-linejoin: miter; stroke-linecap: square"/>
   </g>
   <g id="text_9">
    <!-- getExpectedBehaviours -->
    <g transform="translate(223.779375 45.84) scale(0.12 -0.12)">
     <defs>
      <path id="DejaVuSans-67" d="M 2906 1791 
Q 2906 2416 2648 2759 
Q 2391 3103 1925 3103 
Q 1463 3103 1205 2759 
Q 947 2416 947 1791 
Q 947 1169 1205 825 
Q 1463 481 1925 481 
Q 2391 481 2648 825 
Q 2906 1169 2906 1791 
z
M 3481 434 
Q 3481 -459 3084 -895 
Q 2688 -1331 1869 -1331 
Q 1566 -1331 1297 -1286 
Q 1028 -1241 775 -1147 
L 775 -588 
Q 1028 -725 1275 -790 
Q 1522 -856 1778 -856 
Q 2344 -856 2625 -561 
Q 2906 -266 2906 331 
L 2906 616 
Q 2728 306 2450 153 
Q 2172 0 1784 0 
Q 1141 0 747 490 
Q 353 981 353 1791 
Q 353 2603 747 3093 
Q 1141 3584 1784 3584 
Q 2172 3584 2450 3431 
Q 2728 3278 2906 2969 
L 2906 3500 
L 3481 3500 
L 3481 434 
z
" transform="scale(0.015625)"/>
      <path id="DejaVuSans-74" d="M 1172 4494 
L 1172 3500 
L 2356 3500 
L 2356 3053 
L 1172 3053 
L 1172 1153 
Q 1172 725 1289 603 
Q 1406 481 1766 481 
L 2356 481 
L 2356 0 
L 1766 0 
Q 1100 0 847 248 
Q 594 497 594 1153 
L 594 3053 
L 172 3053 
L 172 3500 
L 594 3500 
L 594 4494 
L 1172 4494 
z
" transform="scale(0.015625)"/>
      <path id="DejaVuSans-45" d="M 628 4666 
L 3578 4666 
L 3578 4134 
L 1259 4134 
L 1259 2753 
L 3481 2753 
L 3481 2222 
L 1259 2222 
L 1259 531 
L 3634 531 
L 3634 0 
L 628 0 
L 628 4666 
z
" transform="scale(0.015625)"/>
      <path id="DejaVuSans-78" d="M 3513 3500 
L 2247 1797 
L 3578 0 
L 2900 0 
L 1881 1375 
L 863 0 
L 184 0 
L 1544 1831 
L 300 3500 
L 978 3500 
L 1906 2253 
L 2834 3500 
L 3513 3500 
z
" transform="scale(0.015625)"/>
      <path id="DejaVuSans-70" d="M 1159 525 
L 1159 -1331 
L 581 -1331 
L 581 3500 
L 1159 3500 
L 1159 2969 
Q 1341 3281 1617 3432 
Q 1894 3584 2278 3584 
Q 2916 3584 3314 3078 
Q 3713 2572 3713 1747 
Q 3713 922 3314 415 
Q 2916 -91 2278 -91 
Q 1894 -91 1617 61 
Q 1341 213 1159 525 
z
M 3116 1747 
Q 3116 2381 2855 2742 
Q 2594 3103 2138 3103 
Q 1681 3103 1420 2742 
Q 1159 2381 1159 1747 
Q 1159 1113 1420 752 
Q 1681 391 2138 391 
Q 2594 391 2855 752 
Q 3116 1113 3116 1747 
z
" transform="scale(0.015625)"/>
      <path id="DejaVuSans-63" d="M 3122 3366 
L 3122 2828 
Q 2878 2963 2633 3030 
Q 2388 3097 2138 3097 
Q 1578 3097 1268 2742 
Q 959 2388 959 1747 
Q 959 1106 1268 751 
Q 1578 397 2138 397 
Q 2388 397 2633 464 
Q 2878 531 3122 666 
L 3122 134 
Q 2881 22 2623 -34 
Q 2366 -91 2075 -91 
Q 1284 -91 818 406 
Q 353 903 353 1747 
Q 353 2603 823 3093 
Q 1294 3584 2113 3584 
Q 2378 3584 2631 3529 
Q 2884 3475 3122 3366 
z
" transform="scale(0.015625)"/>
      <path id="DejaVuSans-64" d="M 2906 2969 
L 2906 4863 
L 3481 4863 
L 3481 0 
L 2906 0 
L 2906 525 
Q 2725 213 2448 61 
Q 2172 -91 1784 -91 
Q 1150 -91 751 415 
Q 353 922 353 1747 
Q 353 2572 751 3078 
Q 1150 3584 1784 3584 
Q 2172 3584 2448 3432 
Q 2725 3281 2906 2969 
z
M 947 1747 
Q 947 1113 1208 752 
Q 1469 391 1925 391 
Q 2381 391 2643 752 
Q 2906 1113 2906 1747 
Q 2906 2381 2643 2742 
Q 2381 3103 1925 3103 
Q 1469 3103 1208 2742 
Q 947 2381 947 1747 
z
" transform="scale(0.015625)"/>
      <path id="DejaVuSans-42" d="M 1259 2228 
L 1259 519 
L 2272 519 
Q 2781 519 3026 730 
Q 3272 941 3272 1375 
Q 3272 1813 3026 2020 
Q 2781 2228 2272 2228 
L 1259 2228 
z
M 1259 4147 
L 1259 2741 
L 2194 2741 
Q 2656 2741 2882 2914 
Q 3109 3088 3109 3444 
Q 3109 3797 2882 3972 
Q 2656 4147 2194 4147 
L 1259 4147 
z
M 628 4666 
L 2241 4666 
Q 2963 4666 3353 4366 
Q 3744 4066 3744 3513 
Q 3744 3084 3544 2831 
Q 3344 2578 2956 2516 
Q 3422 2416 3680 2098 
Q 3938 1781 3938 1306 
Q 3938 681 3513 340 
Q 3088 0 2303 0 
L 628 0 
L 628 4666 
z
" transform="scale(0.015625)"/>
      <path id="DejaVuSans-68" d="M 3513 2113 
L 3513 0 
L 2938 0 
L 2938 2094 
Q 2938 2591 2744 2837 
Q 2550 3084 2163 3084 
Q 1697 3084 1428 2787 
Q 1159 2491 1159 1978 
L 1159 0 
L 581 0 
L 581 4863 
L 1159 4863 
L 1159 2956 
Q 1366 3272 1645 3428 
Q 1925 3584 2291 3584 
Q 2894 3584 3203 3211 
Q 3513 2838 3513 2113 
z
" transform="scale(0.015625)"/>
      <path id="DejaVuSans-61" d="M 2194 1759 
Q 1497 1759 1228 1600 
Q 959 1441 959 1056 
Q 959 750 1161 570 
Q 1363 391 1709 391 
Q 2188 391 2477 730 
Q 2766 1069 2766 1631 
L 2766 1759 
L 2194 1759 
z
M 3341 1997 
L 3341 0 
L 2766 0 
L 2766 531 
Q 2569 213 2275 61 
Q 1981 -91 1556 -91 
Q 1019 -91 701 211 
Q 384 513 384 1019 
Q 384 1609 779 1909 
Q 1175 2209 1959 2209 
L 2766 2209 
L 2766 2266 
Q 2766 2663 2505 2880 
Q 2244 3097 1772 3097 
Q 1472 3097 1187 3025 
Q 903 2953 641 2809 
L 641 3341 
Q 956 3463 1253 3523 
Q 1550 3584 1831 3584 
Q 2591 3584 2966 3190 
Q 3341 2797 3341 1997 
z
" transform="scale(0.015625)"/>
      <path id="DejaVuSans-76" d="M 191 3500 
L 800 3500 
L 1894 563 
L 2988 3500 
L 3597 3500 
L 2284 0 
L 1503 0 
L 191 3500 
z
" transform="scale(0.015625)"/>
      <path id="DejaVuSans-6f" d="M 1959 3097 
Q 1497 3097 1228 2736 
Q 959 2375 959 1747 
Q 959 1119 1226 758 
Q 1494 397 1959 397 
Q 2419 397 2687 759 
Q 2956 1122 2956 1747 
Q 2956 2369 2687 2733 
Q 2419 3097 1959 3097 
z
M 1959 3584 
Q 2709 3584 3137 3096 
Q 3566 2609 3566 1747 
Q 3566 888 3137 398 
Q 2709 -91 1959 -91 
Q 1206 -91 779 398 
Q 353 888 353 1747 
Q 353 2609 779 3096 
Q 1206 3584 1959 3584 
z
" transform="scale(0.015625)"/>
      <path id="DejaVuSans-75" d="M 544 1381 
L 544 3500 
L 1119 3500 
L 1119 1403 
Q 1119 906 1312 657 
Q 1506 409 1894 409 
Q 2359 409 2629 706 
Q 2900 1003 2900 1516 
L 2900 3500 
L 3475 3500 
L 3475 0 
L 2900 0 
L 2900 538 
Q 2691 219 2414 64 
Q 2138 -91 1772 -91 
Q 1169 -91 856 284 
Q 544 659 544 1381 
z
M 1991 3584 
L 1991 3584 
z
" transform="scale(0.015625)"/>
      <path id="DejaVuSans-72" d="M 2631 2963 
Q 2534 3019 2420 3045 
Q 2306 3072 2169 3072 
Q 1681 3072 1420 2755 
Q 1159 2438 1159 1844 
L 1159 0 
L 581 0 
L 581 3500 
L 1159 3500 
L 1159 2956 
Q 1341 3275 1631 3429 
Q 1922 3584 2338 3584 
Q 2397 3584 2469 3576 
Q 2541 3569 2628 3553 
L 2631 2963 
z
" transform="scale(0.015625)"/>
     </defs>
     <use xlink:href="#DejaVuSans-67"/>
     <use xlink:href="#DejaVuSans-65" transform="translate(63.476562 0)"/>
     <use xlink:href="#DejaVuSans-74" transform="translate(125 0)"/>
     <use xlink:href="#DejaVuSans-45" transform="translate(164.208984 0)"/>
     <use xlink:href="#DejaVuSans-78" transform="translate(227.392578 0)"/>
     <use xlink:href="#DejaVuSans-70" transform="translate(286.572266 0)"/>
     <use xlink:href="#DejaVuSans-65" transform="translate(350.048828 0)"/>
     <use xlink:href="#DejaVuSans-63" transform="translate(411.572266 0)"/>
     <use xlink:href="#DejaVuSans-74" transform="translate(466.552734 0)"/>
     <use xlink:href="#DejaVuSans-65" transform="translate(505.761719 0)"/>
     <use xlink:href="#DejaVuSans-64" transform="translate(567.285156 0)"/>
     <use xlink:href="#DejaVuSans-42" transform="translate(630.761719 0)"/>
     <use xlink:href="#DejaVuSans-65" transform="translate(699.365234 0)"/>
     <use xlink:href="#DejaVuSans-68" transform="translate(760.888672 0)"/>
     <use xlink:href="#DejaVuSans-61" transform="translate(824.267578 0)"/>
     <use xlink:href="#DejaVuSans-76" transform="translate(885.546875 0)"/>
     <use xlink:href="#DejaVuSans-69" transform="translate(944.726562 0)"/>
     <use xlink:href="#DejaVuSans-6f" transform="translate(972.509766 0)"/>
     <use xlink:href="#DejaVuSans-75" transform="translate(1033.691406 0)"/>
     <use xlink:href="#DejaVuSans-72" transform="translate(1097.070312 0)"/>
     <use xlink:href="#DejaVuSans-73" transform="translate(1138.183594 0)"/>
    </g>
   </g>
  </g>
 </g>
 <defs>
  <clipPath id="p963b32493c">
   <rect x="72" y="51.84" width="446.4" height="332.64"/>
  </clipPath>
 </defs>
</svg>
