<?xml version="1.0" encoding="utf-8" standalone="no"?>
<!DOCTYPE svg PUBLIC "-//W3C//DTD SVG 1.1//EN"
  "http://www.w3.org/Graphics/SVG/1.1/DTD/svg11.dtd">
<svg xmlns:xlink="http://www.w3.org/1999/xlink" width="720pt" height="432pt" viewBox="0 0 720 432" xmlns="http://www.w3.org/2000/svg" version="1.1">
 <metadata>
  <rdf:RDF xmlns:dc="http://purl.org/dc/elements/1.1/" xmlns:cc="http://creativecommons.org/ns#" xmlns:rdf="http://www.w3.org/1999/02/22-rdf-syntax-ns#">
   <cc:Work>
    <dc:type rdf:resource="http://purl.org/dc/dcmitype/StillImage"/>
    <dc:date>2025-06-10T03:16:29.595336</dc:date>
    <dc:format>image/svg+xml</dc:format>
    <dc:creator>
     <cc:Agent>
      <dc:title>Matplotlib v3.10.3, https://matplotlib.org/</dc:title>
     </cc:Agent>
    </dc:creator>
   </cc:Work>
  </rdf:RDF>
 </metadata>
 <defs>
  <style type="text/css">*{stroke-linejoin: round; stroke-linecap: butt}</style>
 </defs>
 <g id="figure_1">
  <g id="patch_1">
   <path d="M 0 432 
L 720 432 
L 720 0 
L 0 0 
z
" style="fill: #ffffff"/>
  </g>
  <g id="axes_1">
   <g id="patch_2">
    <path d="M 90 384.48 
L 648 384.48 
L 648 51.84 
L 90 51.84 
z
" style="fill: #ffffff"/>
   </g>
   <g id="matplotlib.axis_1">
    <g id="xtick_1">
     <g id="line2d_1">
      <defs>
       <path id="m4fc0e2b202" d="M 0 0 
L 0 3.5 
" style="stroke: #000000; stroke-width: 0.8"/>
      </defs>
      <g>
       <use xlink:href="#m4fc0e2b202" x="115.363636" y="384.48" style="stroke: #000000; stroke-width: 0.8"/>
      </g>
     </g>
     <g id="text_1">
      <!-- 0 -->
      <g transform="translate(112.182386 399.078438) scale(0.1 -0.1)">
       <defs>
        <path id="DejaVuSans-30" d="M 2034 4250 
Q 1547 4250 1301 3770 
Q 1056 3291 1056 2328 
Q 1056 1369 1301 889 
Q 1547 409 2034 409 
Q 2525 409 2770 889 
Q 3016 1369 3016 2328 
Q 3016 3291 2770 3770 
Q 2525 4250 2034 4250 
z
M 2034 4750 
Q 2819 4750 3233 4129 
Q 3647 3509 3647 2328 
Q 3647 1150 3233 529 
Q 2819 -91 2034 -91 
Q 1250 -91 836 529 
Q 422 1150 422 2328 
Q 422 3509 836 4129 
Q 1250 4750 2034 4750 
z
" transform="scale(0.015625)"/>
       </defs>
       <use xlink:href="#DejaVuSans-30"/>
      </g>
     </g>
    </g>
    <g id="xtick_2">
     <g id="line2d_2">
      <g>
       <use xlink:href="#m4fc0e2b202" x="185.916171" y="384.48" style="stroke: #000000; stroke-width: 0.8"/>
      </g>
     </g>
     <g id="text_2">
      <!-- 200 -->
      <g transform="translate(176.372421 399.078438) scale(0.1 -0.1)">
       <defs>
        <path id="DejaVuSans-32" d="M 1228 531 
L 3431 531 
L 3431 0 
L 469 0 
L 469 531 
Q 828 903 1448 1529 
Q 2069 2156 2228 2338 
Q 2531 2678 2651 2914 
Q 2772 3150 2772 3378 
Q 2772 3750 2511 3984 
Q 2250 4219 1831 4219 
Q 1534 4219 1204 4116 
Q 875 4013 500 3803 
L 500 4441 
Q 881 4594 1212 4672 
Q 1544 4750 1819 4750 
Q 2544 4750 2975 4387 
Q 3406 4025 3406 3419 
Q 3406 3131 3298 2873 
Q 3191 2616 2906 2266 
Q 2828 2175 2409 1742 
Q 1991 1309 1228 531 
z
" transform="scale(0.015625)"/>
       </defs>
       <use xlink:href="#DejaVuSans-32"/>
       <use xlink:href="#DejaVuSans-30" transform="translate(63.623047 0)"/>
       <use xlink:href="#DejaVuSans-30" transform="translate(127.246094 0)"/>
      </g>
     </g>
    </g>
    <g id="xtick_3">
     <g id="line2d_3">
      <g>
       <use xlink:href="#m4fc0e2b202" x="256.468707" y="384.48" style="stroke: #000000; stroke-width: 0.8"/>
      </g>
     </g>
     <g id="text_3">
      <!-- 400 -->
      <g transform="translate(246.924957 399.078438) scale(0.1 -0.1)">
       <defs>
        <path id="DejaVuSans-34" d="M 2419 4116 
L 825 1625 
L 2419 1625 
L 2419 4116 
z
M 2253 4666 
L 3047 4666 
L 3047 1625 
L 3713 1625 
L 3713 1100 
L 3047 1100 
L 3047 0 
L 2419 0 
L 2419 1100 
L 313 1100 
L 313 1709 
L 2253 4666 
z
" transform="scale(0.015625)"/>
       </defs>
       <use xlink:href="#DejaVuSans-34"/>
       <use xlink:href="#DejaVuSans-30" transform="translate(63.623047 0)"/>
       <use xlink:href="#DejaVuSans-30" transform="translate(127.246094 0)"/>
      </g>
     </g>
    </g>
    <g id="xtick_4">
     <g id="line2d_4">
      <g>
       <use xlink:href="#m4fc0e2b202" x="327.021242" y="384.48" style="stroke: #000000; stroke-width: 0.8"/>
      </g>
     </g>
     <g id="text_4">
      <!-- 600 -->
      <g transform="translate(317.477492 399.078438) scale(0.1 -0.1)">
       <defs>
        <path id="DejaVuSans-36" d="M 2113 2584 
Q 1688 2584 1439 2293 
Q 1191 2003 1191 1497 
Q 1191 994 1439 701 
Q 1688 409 2113 409 
Q 2538 409 2786 701 
Q 3034 994 3034 1497 
Q 3034 2003 2786 2293 
Q 2538 2584 2113 2584 
z
M 3366 4563 
L 3366 3988 
Q 3128 4100 2886 4159 
Q 2644 4219 2406 4219 
Q 1781 4219 1451 3797 
Q 1122 3375 1075 2522 
Q 1259 2794 1537 2939 
Q 1816 3084 2150 3084 
Q 2853 3084 3261 2657 
Q 3669 2231 3669 1497 
Q 3669 778 3244 343 
Q 2819 -91 2113 -91 
Q 1303 -91 875 529 
Q 447 1150 447 2328 
Q 447 3434 972 4092 
Q 1497 4750 2381 4750 
Q 2619 4750 2861 4703 
Q 3103 4656 3366 4563 
z
" transform="scale(0.015625)"/>
       </defs>
       <use xlink:href="#DejaVuSans-36"/>
       <use xlink:href="#DejaVuSans-30" transform="translate(63.623047 0)"/>
       <use xlink:href="#DejaVuSans-30" transform="translate(127.246094 0)"/>
      </g>
     </g>
    </g>
    <g id="xtick_5">
     <g id="line2d_5">
      <g>
       <use xlink:href="#m4fc0e2b202" x="397.573777" y="384.48" style="stroke: #000000; stroke-width: 0.8"/>
      </g>
     </g>
     <g id="text_5">
      <!-- 800 -->
      <g transform="translate(388.030027 399.078438) scale(0.1 -0.1)">
       <defs>
        <path id="DejaVuSans-38" d="M 2034 2216 
Q 1584 2216 1326 1975 
Q 1069 1734 1069 1313 
Q 1069 891 1326 650 
Q 1584 409 2034 409 
Q 2484 409 2743 651 
Q 3003 894 3003 1313 
Q 3003 1734 2745 1975 
Q 2488 2216 2034 2216 
z
M 1403 2484 
Q 997 2584 770 2862 
Q 544 3141 544 3541 
Q 544 4100 942 4425 
Q 1341 4750 2034 4750 
Q 2731 4750 3128 4425 
Q 3525 4100 3525 3541 
Q 3525 3141 3298 2862 
Q 3072 2584 2669 2484 
Q 3125 2378 3379 2068 
Q 3634 1759 3634 1313 
Q 3634 634 3220 271 
Q 2806 -91 2034 -91 
Q 1263 -91 848 271 
Q 434 634 434 1313 
Q 434 1759 690 2068 
Q 947 2378 1403 2484 
z
M 1172 3481 
Q 1172 3119 1398 2916 
Q 1625 2713 2034 2713 
Q 2441 2713 2670 2916 
Q 2900 3119 2900 3481 
Q 2900 3844 2670 4047 
Q 2441 4250 2034 4250 
Q 1625 4250 1398 4047 
Q 1172 3844 1172 3481 
z
" transform="scale(0.015625)"/>
       </defs>
       <use xlink:href="#DejaVuSans-38"/>
       <use xlink:href="#DejaVuSans-30" transform="translate(63.623047 0)"/>
       <use xlink:href="#DejaVuSans-30" transform="translate(127.246094 0)"/>
      </g>
     </g>
    </g>
    <g id="xtick_6">
     <g id="line2d_6">
      <g>
       <use xlink:href="#m4fc0e2b202" x="468.126312" y="384.48" style="stroke: #000000; stroke-width: 0.8"/>
      </g>
     </g>
     <g id="text_6">
      <!-- 1000 -->
      <g transform="translate(455.401312 399.078438) scale(0.1 -0.1)">
       <defs>
        <path id="DejaVuSans-31" d="M 794 531 
L 1825 531 
L 1825 4091 
L 703 3866 
L 703 4441 
L 1819 4666 
L 2450 4666 
L 2450 531 
L 3481 531 
L 3481 0 
L 794 0 
L 794 531 
z
" transform="scale(0.015625)"/>
       </defs>
       <use xlink:href="#DejaVuSans-31"/>
       <use xlink:href="#DejaVuSans-30" transform="translate(63.623047 0)"/>
       <use xlink:href="#DejaVuSans-30" transform="translate(127.246094 0)"/>
       <use xlink:href="#DejaVuSans-30" transform="translate(190.869141 0)"/>
      </g>
     </g>
    </g>
    <g id="xtick_7">
     <g id="line2d_7">
      <g>
       <use xlink:href="#m4fc0e2b202" x="538.678847" y="384.48" style="stroke: #000000; stroke-width: 0.8"/>
      </g>
     </g>
     <g id="text_7">
      <!-- 1200 -->
      <g transform="translate(525.953847 399.078438) scale(0.1 -0.1)">
       <use xlink:href="#DejaVuSans-31"/>
       <use xlink:href="#DejaVuSans-32" transform="translate(63.623047 0)"/>
       <use xlink:href="#DejaVuSans-30" transform="translate(127.246094 0)"/>
       <use xlink:href="#DejaVuSans-30" transform="translate(190.869141 0)"/>
      </g>
     </g>
    </g>
    <g id="xtick_8">
     <g id="line2d_8">
      <g>
       <use xlink:href="#m4fc0e2b202" x="609.231382" y="384.48" style="stroke: #000000; stroke-width: 0.8"/>
      </g>
     </g>
     <g id="text_8">
      <!-- 1400 -->
      <g transform="translate(596.506382 399.078438) scale(0.1 -0.1)">
       <use xlink:href="#DejaVuSans-31"/>
       <use xlink:href="#DejaVuSans-34" transform="translate(63.623047 0)"/>
       <use xlink:href="#DejaVuSans-30" transform="translate(127.246094 0)"/>
       <use xlink:href="#DejaVuSans-30" transform="translate(190.869141 0)"/>
      </g>
     </g>
    </g>
    <g id="text_9">
     <!-- Index -->
     <g transform="translate(355.233594 412.756563) scale(0.1 -0.1)">
      <defs>
       <path id="DejaVuSans-49" d="M 628 4666 
L 1259 4666 
L 1259 0 
L 628 0 
L 628 4666 
z
" transform="scale(0.015625)"/>
       <path id="DejaVuSans-6e" d="M 3513 2113 
L 3513 0 
L 2938 0 
L 2938 2094 
Q 2938 2591 2744 2837 
Q 2550 3084 2163 3084 
Q 1697 3084 1428 2787 
Q 1159 2491 1159 1978 
L 1159 0 
L 581 0 
L 581 3500 
L 1159 3500 
L 1159 2956 
Q 1366 3272 1645 3428 
Q 1925 3584 2291 3584 
Q 2894 3584 3203 3211 
Q 3513 2838 3513 2113 
z
" transform="scale(0.015625)"/>
       <path id="DejaVuSans-64" d="M 2906 2969 
L 2906 4863 
L 3481 4863 
L 3481 0 
L 2906 0 
L 2906 525 
Q 2725 213 2448 61 
Q 2172 -91 1784 -91 
Q 1150 -91 751 415 
Q 353 922 353 1747 
Q 353 2572 751 3078 
Q 1150 3584 1784 3584 
Q 2172 3584 2448 3432 
Q 2725 3281 2906 2969 
z
M 947 1747 
Q 947 1113 1208 752 
Q 1469 391 1925 391 
Q 2381 391 2643 752 
Q 2906 1113 2906 1747 
Q 2906 2381 2643 2742 
Q 2381 3103 1925 3103 
Q 1469 3103 1208 2742 
Q 947 2381 947 1747 
z
" transform="scale(0.015625)"/>
       <path id="DejaVuSans-65" d="M 3597 1894 
L 3597 1613 
L 953 1613 
Q 991 1019 1311 708 
Q 1631 397 2203 397 
Q 2534 397 2845 478 
Q 3156 559 3463 722 
L 3463 178 
Q 3153 47 2828 -22 
Q 2503 -91 2169 -91 
Q 1331 -91 842 396 
Q 353 884 353 1716 
Q 353 2575 817 3079 
Q 1281 3584 2069 3584 
Q 2775 3584 3186 3129 
Q 3597 2675 3597 1894 
z
M 3022 2063 
Q 3016 2534 2758 2815 
Q 2500 3097 2075 3097 
Q 1594 3097 1305 2825 
Q 1016 2553 972 2059 
L 3022 2063 
z
" transform="scale(0.015625)"/>
       <path id="DejaVuSans-78" d="M 3513 3500 
L 2247 1797 
L 3578 0 
L 2900 0 
L 1881 1375 
L 863 0 
L 184 0 
L 1544 1831 
L 300 3500 
L 978 3500 
L 1906 2253 
L 2834 3500 
L 3513 3500 
z
" transform="scale(0.015625)"/>
      </defs>
      <use xlink:href="#DejaVuSans-49"/>
      <use xlink:href="#DejaVuSans-6e" transform="translate(29.492188 0)"/>
      <use xlink:href="#DejaVuSans-64" transform="translate(92.871094 0)"/>
      <use xlink:href="#DejaVuSans-65" transform="translate(156.347656 0)"/>
      <use xlink:href="#DejaVuSans-78" transform="translate(216.121094 0)"/>
     </g>
    </g>
   </g>
   <g id="matplotlib.axis_2">
    <g id="ytick_1">
     <g id="line2d_9">
      <defs>
       <path id="mf3ae419889" d="M 0 0 
L -3.5 0 
" style="stroke: #000000; stroke-width: 0.8"/>
      </defs>
      <g>
       <use xlink:href="#mf3ae419889" x="90" y="384.48" style="stroke: #000000; stroke-width: 0.8"/>
      </g>
     </g>
     <g id="text_10">
      <!-- 0.0 -->
      <g transform="translate(67.096875 388.279219) scale(0.1 -0.1)">
       <defs>
        <path id="DejaVuSans-2e" d="M 684 794 
L 1344 794 
L 1344 0 
L 684 0 
L 684 794 
z
" transform="scale(0.015625)"/>
       </defs>
       <use xlink:href="#DejaVuSans-30"/>
       <use xlink:href="#DejaVuSans-2e" transform="translate(63.623047 0)"/>
       <use xlink:href="#DejaVuSans-30" transform="translate(95.410156 0)"/>
      </g>
     </g>
    </g>
    <g id="ytick_2">
     <g id="line2d_10">
      <g>
       <use xlink:href="#mf3ae419889" x="90" y="334.980428" style="stroke: #000000; stroke-width: 0.8"/>
      </g>
     </g>
     <g id="text_11">
      <!-- 0.2 -->
      <g transform="translate(67.096875 338.779647) scale(0.1 -0.1)">
       <use xlink:href="#DejaVuSans-30"/>
       <use xlink:href="#DejaVuSans-2e" transform="translate(63.623047 0)"/>
       <use xlink:href="#DejaVuSans-32" transform="translate(95.410156 0)"/>
      </g>
     </g>
    </g>
    <g id="ytick_3">
     <g id="line2d_11">
      <g>
       <use xlink:href="#mf3ae419889" x="90" y="285.480857" style="stroke: #000000; stroke-width: 0.8"/>
      </g>
     </g>
     <g id="text_12">
      <!-- 0.4 -->
      <g transform="translate(67.096875 289.280075) scale(0.1 -0.1)">
       <use xlink:href="#DejaVuSans-30"/>
       <use xlink:href="#DejaVuSans-2e" transform="translate(63.623047 0)"/>
       <use xlink:href="#DejaVuSans-34" transform="translate(95.410156 0)"/>
      </g>
     </g>
    </g>
    <g id="ytick_4">
     <g id="line2d_12">
      <g>
       <use xlink:href="#mf3ae419889" x="90" y="235.981285" style="stroke: #000000; stroke-width: 0.8"/>
      </g>
     </g>
     <g id="text_13">
      <!-- 0.6 -->
      <g transform="translate(67.096875 239.780504) scale(0.1 -0.1)">
       <use xlink:href="#DejaVuSans-30"/>
       <use xlink:href="#DejaVuSans-2e" transform="translate(63.623047 0)"/>
       <use xlink:href="#DejaVuSans-36" transform="translate(95.410156 0)"/>
      </g>
     </g>
    </g>
    <g id="ytick_5">
     <g id="line2d_13">
      <g>
       <use xlink:href="#mf3ae419889" x="90" y="186.481713" style="stroke: #000000; stroke-width: 0.8"/>
      </g>
     </g>
     <g id="text_14">
      <!-- 0.8 -->
      <g transform="translate(67.096875 190.280932) scale(0.1 -0.1)">
       <use xlink:href="#DejaVuSans-30"/>
       <use xlink:href="#DejaVuSans-2e" transform="translate(63.623047 0)"/>
       <use xlink:href="#DejaVuSans-38" transform="translate(95.410156 0)"/>
      </g>
     </g>
    </g>
    <g id="ytick_6">
     <g id="line2d_14">
      <g>
       <use xlink:href="#mf3ae419889" x="90" y="136.982142" style="stroke: #000000; stroke-width: 0.8"/>
      </g>
     </g>
     <g id="text_15">
      <!-- 1.0 -->
      <g transform="translate(67.096875 140.78136) scale(0.1 -0.1)">
       <use xlink:href="#DejaVuSans-31"/>
       <use xlink:href="#DejaVuSans-2e" transform="translate(63.623047 0)"/>
       <use xlink:href="#DejaVuSans-30" transform="translate(95.410156 0)"/>
      </g>
     </g>
    </g>
    <g id="ytick_7">
     <g id="line2d_15">
      <g>
       <use xlink:href="#mf3ae419889" x="90" y="87.48257" style="stroke: #000000; stroke-width: 0.8"/>
      </g>
     </g>
     <g id="text_16">
      <!-- 1.2 -->
      <g transform="translate(67.096875 91.281789) scale(0.1 -0.1)">
       <use xlink:href="#DejaVuSans-31"/>
       <use xlink:href="#DejaVuSans-2e" transform="translate(63.623047 0)"/>
       <use xlink:href="#DejaVuSans-32" transform="translate(95.410156 0)"/>
      </g>
     </g>
    </g>
    <g id="text_17">
     <!-- Average time (ms) -->
     <g transform="translate(61.017187 264.543594) rotate(-90) scale(0.1 -0.1)">
      <defs>
       <path id="DejaVuSans-41" d="M 2188 4044 
L 1331 1722 
L 3047 1722 
L 2188 4044 
z
M 1831 4666 
L 2547 4666 
L 4325 0 
L 3669 0 
L 3244 1197 
L 1141 1197 
L 716 0 
L 50 0 
L 1831 4666 
z
" transform="scale(0.015625)"/>
       <path id="DejaVuSans-76" d="M 191 3500 
L 800 3500 
L 1894 563 
L 2988 3500 
L 3597 3500 
L 2284 0 
L 1503 0 
L 191 3500 
z
" transform="scale(0.015625)"/>
       <path id="DejaVuSans-72" d="M 2631 2963 
Q 2534 3019 2420 3045 
Q 2306 3072 2169 3072 
Q 1681 3072 1420 2755 
Q 1159 2438 1159 1844 
L 1159 0 
L 581 0 
L 581 3500 
L 1159 3500 
L 1159 2956 
Q 1341 3275 1631 3429 
Q 1922 3584 2338 3584 
Q 2397 3584 2469 3576 
Q 2541 3569 2628 3553 
L 2631 2963 
z
" transform="scale(0.015625)"/>
       <path id="DejaVuSans-61" d="M 2194 1759 
Q 1497 1759 1228 1600 
Q 959 1441 959 1056 
Q 959 750 1161 570 
Q 1363 391 1709 391 
Q 2188 391 2477 730 
Q 2766 1069 2766 1631 
L 2766 1759 
L 2194 1759 
z
M 3341 1997 
L 3341 0 
L 2766 0 
L 2766 531 
Q 2569 213 2275 61 
Q 1981 -91 1556 -91 
Q 1019 -91 701 211 
Q 384 513 384 1019 
Q 384 1609 779 1909 
Q 1175 2209 1959 2209 
L 2766 2209 
L 2766 2266 
Q 2766 2663 2505 2880 
Q 2244 3097 1772 3097 
Q 1472 3097 1187 3025 
Q 903 2953 641 2809 
L 641 3341 
Q 956 3463 1253 3523 
Q 1550 3584 1831 3584 
Q 2591 3584 2966 3190 
Q 3341 2797 3341 1997 
z
" transform="scale(0.015625)"/>
       <path id="DejaVuSans-67" d="M 2906 1791 
Q 2906 2416 2648 2759 
Q 2391 3103 1925 3103 
Q 1463 3103 1205 2759 
Q 947 2416 947 1791 
Q 947 1169 1205 825 
Q 1463 481 1925 481 
Q 2391 481 2648 825 
Q 2906 1169 2906 1791 
z
M 3481 434 
Q 3481 -459 3084 -895 
Q 2688 -1331 1869 -1331 
Q 1566 -1331 1297 -1286 
Q 1028 -1241 775 -1147 
L 775 -588 
Q 1028 -725 1275 -790 
Q 1522 -856 1778 -856 
Q 2344 -856 2625 -561 
Q 2906 -266 2906 331 
L 2906 616 
Q 2728 306 2450 153 
Q 2172 0 1784 0 
Q 1141 0 747 490 
Q 353 981 353 1791 
Q 353 2603 747 3093 
Q 1141 3584 1784 3584 
Q 2172 3584 2450 3431 
Q 2728 3278 2906 2969 
L 2906 3500 
L 3481 3500 
L 3481 434 
z
" transform="scale(0.015625)"/>
       <path id="DejaVuSans-20" transform="scale(0.015625)"/>
       <path id="DejaVuSans-74" d="M 1172 4494 
L 1172 3500 
L 2356 3500 
L 2356 3053 
L 1172 3053 
L 1172 1153 
Q 1172 725 1289 603 
Q 1406 481 1766 481 
L 2356 481 
L 2356 0 
L 1766 0 
Q 1100 0 847 248 
Q 594 497 594 1153 
L 594 3053 
L 172 3053 
L 172 3500 
L 594 3500 
L 594 4494 
L 1172 4494 
z
" transform="scale(0.015625)"/>
       <path id="DejaVuSans-69" d="M 603 3500 
L 1178 3500 
L 1178 0 
L 603 0 
L 603 3500 
z
M 603 4863 
L 1178 4863 
L 1178 4134 
L 603 4134 
L 603 4863 
z
" transform="scale(0.015625)"/>
       <path id="DejaVuSans-6d" d="M 3328 2828 
Q 3544 3216 3844 3400 
Q 4144 3584 4550 3584 
Q 5097 3584 5394 3201 
Q 5691 2819 5691 2113 
L 5691 0 
L 5113 0 
L 5113 2094 
Q 5113 2597 4934 2840 
Q 4756 3084 4391 3084 
Q 3944 3084 3684 2787 
Q 3425 2491 3425 1978 
L 3425 0 
L 2847 0 
L 2847 2094 
Q 2847 2600 2669 2842 
Q 2491 3084 2119 3084 
Q 1678 3084 1418 2786 
Q 1159 2488 1159 1978 
L 1159 0 
L 581 0 
L 581 3500 
L 1159 3500 
L 1159 2956 
Q 1356 3278 1631 3431 
Q 1906 3584 2284 3584 
Q 2666 3584 2933 3390 
Q 3200 3197 3328 2828 
z
" transform="scale(0.015625)"/>
       <path id="DejaVuSans-28" d="M 1984 4856 
Q 1566 4138 1362 3434 
Q 1159 2731 1159 2009 
Q 1159 1288 1364 580 
Q 1569 -128 1984 -844 
L 1484 -844 
Q 1016 -109 783 600 
Q 550 1309 550 2009 
Q 550 2706 781 3412 
Q 1013 4119 1484 4856 
L 1984 4856 
z
" transform="scale(0.015625)"/>
       <path id="DejaVuSans-73" d="M 2834 3397 
L 2834 2853 
Q 2591 2978 2328 3040 
Q 2066 3103 1784 3103 
Q 1356 3103 1142 2972 
Q 928 2841 928 2578 
Q 928 2378 1081 2264 
Q 1234 2150 1697 2047 
L 1894 2003 
Q 2506 1872 2764 1633 
Q 3022 1394 3022 966 
Q 3022 478 2636 193 
Q 2250 -91 1575 -91 
Q 1294 -91 989 -36 
Q 684 19 347 128 
L 347 722 
Q 666 556 975 473 
Q 1284 391 1588 391 
Q 1994 391 2212 530 
Q 2431 669 2431 922 
Q 2431 1156 2273 1281 
Q 2116 1406 1581 1522 
L 1381 1569 
Q 847 1681 609 1914 
Q 372 2147 372 2553 
Q 372 3047 722 3315 
Q 1072 3584 1716 3584 
Q 2034 3584 2315 3537 
Q 2597 3491 2834 3397 
z
" transform="scale(0.015625)"/>
       <path id="DejaVuSans-29" d="M 513 4856 
L 1013 4856 
Q 1481 4119 1714 3412 
Q 1947 2706 1947 2009 
Q 1947 1309 1714 600 
Q 1481 -109 1013 -844 
L 513 -844 
Q 928 -128 1133 580 
Q 1338 1288 1338 2009 
Q 1338 2731 1133 3434 
Q 928 4138 513 4856 
z
" transform="scale(0.015625)"/>
      </defs>
      <use xlink:href="#DejaVuSans-41"/>
      <use xlink:href="#DejaVuSans-76" transform="translate(62.533203 0)"/>
      <use xlink:href="#DejaVuSans-65" transform="translate(121.712891 0)"/>
      <use xlink:href="#DejaVuSans-72" transform="translate(183.236328 0)"/>
      <use xlink:href="#DejaVuSans-61" transform="translate(224.349609 0)"/>
      <use xlink:href="#DejaVuSans-67" transform="translate(285.628906 0)"/>
      <use xlink:href="#DejaVuSans-65" transform="translate(349.105469 0)"/>
      <use xlink:href="#DejaVuSans-20" transform="translate(410.628906 0)"/>
      <use xlink:href="#DejaVuSans-74" transform="translate(442.416016 0)"/>
      <use xlink:href="#DejaVuSans-69" transform="translate(481.625 0)"/>
      <use xlink:href="#DejaVuSans-6d" transform="translate(509.408203 0)"/>
      <use xlink:href="#DejaVuSans-65" transform="translate(606.820312 0)"/>
      <use xlink:href="#DejaVuSans-20" transform="translate(668.34375 0)"/>
      <use xlink:href="#DejaVuSans-28" transform="translate(700.130859 0)"/>
      <use xlink:href="#DejaVuSans-6d" transform="translate(739.144531 0)"/>
      <use xlink:href="#DejaVuSans-73" transform="translate(836.556641 0)"/>
      <use xlink:href="#DejaVuSans-29" transform="translate(888.65625 0)"/>
     </g>
    </g>
   </g>
   <g id="line2d_16">
    <path d="M 115.363636 296.772105 
L 115.716399 291.042307 
L 116.069162 188.66832 
L 116.421924 263.056672 
L 116.774687 67.22883 
L 117.12745 280.41809 
L 117.480212 261.534461 
L 118.185738 242.293248 
L 118.5385 273.591777 
L 118.891263 260.128686 
L 119.244026 267.248197 
L 119.596788 231.016837 
L 119.949551 285.97959 
L 120.302314 279.403262 
L 120.655076 290.964308 
L 121.007839 250.925119 
L 121.360602 308.302213 
L 121.713365 315.227501 
L 122.066127 325.322022 
L 122.41889 285.171447 
L 122.771653 310.203046 
L 123.124415 317.690216 
L 123.477178 269.922473 
L 123.829941 361.360359 
L 124.182703 374.338355 
L 124.535466 371.602191 
L 124.888229 375.005435 
L 125.593754 366.855034 
L 125.946517 371.388131 
L 126.299279 315.332625 
L 126.652042 316.221204 
L 127.004805 334.763212 
L 127.357567 335.122084 
L 127.71033 312.535813 
L 128.063093 303.577306 
L 128.415855 334.489714 
L 128.768618 325.638844 
L 129.121381 329.085388 
L 129.474143 307.213136 
L 129.826906 343.714269 
L 130.179669 335.544105 
L 130.532431 268.63916 
L 130.885194 274.368921 
L 131.237957 347.41951 
L 131.590719 240.380077 
L 131.943482 347.10515 
L 132.296245 343.766318 
L 132.649007 350.351221 
L 133.00177 345.435715 
L 133.354533 349.996074 
L 133.707295 337.274177 
L 134.060058 347.842744 
L 134.412821 344.690722 
L 134.765584 343.99529 
L 135.118346 349.546828 
L 135.471109 342.826977 
L 135.823872 346.647255 
L 136.176634 346.834165 
L 136.529397 348.545637 
L 136.88216 336.768019 
L 137.234922 354.328635 
L 137.587685 343.778655 
L 137.940448 348.393439 
L 138.29321 341.515201 
L 138.645973 326.115327 
L 138.998736 352.203792 
L 139.351498 336.436347 
L 139.704261 357.646517 
L 140.057024 350.526944 
L 140.409786 356.630464 
L 140.762549 350.43912 
L 141.115312 360.153745 
L 141.468074 352.945122 
L 141.820837 350.492319 
L 142.1736 345.104068 
L 142.526362 344.594223 
L 142.879125 344.782284 
L 143.231888 352.275591 
L 143.58465 348.295665 
L 143.937413 337.37075 
L 144.642938 357.770266 
L 144.995701 353.79779 
L 145.348464 357.577206 
L 145.701226 353.747003 
L 146.053989 351.587559 
L 146.406752 350.994703 
L 146.759514 352.634488 
L 147.112277 355.537724 
L 147.46504 349.997311 
L 147.817803 349.701539 
L 148.170565 354.448709 
L 148.523328 337.284101 
L 148.876091 357.015348 
L 149.228853 355.599636 
L 149.581616 359.611737 
L 149.934379 355.602074 
L 150.287141 357.462094 
L 150.639904 354.530358 
L 150.992667 355.415238 
L 151.345429 354.178887 
L 151.698192 358.246675 
L 152.403717 339.42007 
L 153.109243 357.771454 
L 153.462005 227.482431 
L 154.167531 357.556168 
L 154.520293 358.838244 
L 154.873056 352.914123 
L 155.225819 359.28504 
L 155.578581 354.467259 
L 155.931344 364.201746 
L 156.284107 362.007566 
L 156.636869 362.439437 
L 156.989632 364.642317 
L 157.342395 362.409787 
L 157.695157 362.503811 
L 158.04792 359.50285 
L 158.400683 355.527837 
L 158.753445 344.825695 
L 159.106208 355.014204 
L 159.811733 354.759306 
L 160.164496 353.523042 
L 160.517259 352.816411 
L 160.870021 357.93854 
L 161.222784 348.480075 
L 161.575547 356.592139 
L 161.92831 337.988282 
L 162.281072 352.057756 
L 162.633835 346.75129 
L 162.986598 345.966636 
L 163.33936 356.718338 
L 163.692123 356.401541 
L 164.044886 344.753847 
L 164.397648 355.579811 
L 164.750411 356.7221 
L 165.103174 354.911555 
L 165.455936 355.388013 
L 165.808699 359.103079 
L 166.161462 331.368643 
L 166.514224 360.994025 
L 166.866987 360.043559 
L 167.21975 362.503836 
L 167.572512 359.391427 
L 167.925275 363.897298 
L 168.278038 365.789506 
L 168.6308 351.844982 
L 168.983563 366.248615 
L 169.336326 365.856318 
L 169.689088 365.242486 
L 170.041851 365.504871 
L 170.394614 366.180578 
L 170.747376 366.105054 
L 171.100139 365.308073 
L 171.452902 364.836602 
L 172.51119 366.008505 
L 172.863952 365.042001 
L 173.216715 364.947964 
L 173.569478 362.680797 
L 173.92224 358.255374 
L 174.275003 360.549791 
L 174.627766 361.814542 
L 174.980529 356.432478 
L 175.333291 356.738138 
L 175.686054 359.007817 
L 176.038817 353.698778 
L 176.391579 360.590616 
L 177.097105 350.48732 
L 177.449867 318.003251 
L 177.80263 360.391355 
L 178.155393 355.965945 
L 178.508155 361.532395 
L 178.860918 293.702971 
L 179.213681 360.348055 
L 179.566443 361.649882 
L 179.919206 351.929045 
L 180.271969 360.601716 
L 180.624731 362.307075 
L 180.977494 357.740579 
L 181.330257 362.375088 
L 181.683019 360.637616 
L 182.035782 361.153661 
L 182.388545 360.136408 
L 182.741307 360.004009 
L 183.09407 360.001534 
L 183.446833 360.706927 
L 183.799595 359.223116 
L 184.152358 359.885197 
L 184.505121 358.879081 
L 184.857883 360.671077 
L 185.210646 357.480669 
L 185.563409 366.697836 
L 185.916171 364.856377 
L 186.268934 361.361633 
L 186.621697 361.810805 
L 186.974459 363.7463 
L 187.327222 364.789565 
L 187.679985 362.393675 
L 188.032748 357.33092 
L 188.38551 362.133827 
L 188.738273 360.395043 
L 189.091036 362.60281 
L 189.443798 359.262703 
L 189.796561 360.458204 
L 190.149324 354.88558 
L 190.502086 361.79098 
L 190.854849 358.798669 
L 191.207612 361.594232 
L 191.913137 358.506585 
L 192.2659 359.044893 
L 192.618662 367.022095 
L 192.971425 341.233041 
L 193.324188 364.714103 
L 193.67695 362.367687 
L 194.029713 363.357704 
L 194.382476 365.436772 
L 194.735238 362.698109 
L 195.088001 358.272699 
L 195.440764 360.897525 
L 195.793526 360.141395 
L 196.146289 360.460679 
L 196.499052 358.677321 
L 196.851814 361.195785 
L 197.204577 359.260278 
L 197.55734 353.239645 
L 197.910102 360.131495 
L 198.262865 358.150175 
L 198.615628 342.198406 
L 198.96839 360.015109 
L 199.321153 356.321104 
L 199.673916 367.531941 
L 200.026678 248.735963 
L 200.379441 365.181849 
L 200.732204 365.181862 
L 201.084966 364.746253 
L 201.437729 366.314214 
L 201.790492 366.674311 
L 202.143255 364.391057 
L 202.496017 302.423731 
L 202.84878 368.476145 
L 203.201543 367.614865 
L 203.554305 367.687877 
L 203.907068 368.550444 
L 204.259831 367.794326 
L 204.612593 368.190334 
L 204.965356 367.343818 
L 205.318119 366.174365 
L 205.670881 367.945287 
L 206.023644 366.874797 
L 206.376407 366.80796 
L 206.729169 365.638533 
L 207.081932 366.799347 
L 207.434695 366.998595 
L 207.787457 365.478884 
L 208.14022 368.757117 
L 208.845745 365.793169 
L 209.198508 366.915634 
L 209.551271 367.168119 
L 209.904033 365.814268 
L 210.256796 366.716435 
L 210.609559 365.775894 
L 210.962321 367.577728 
L 211.315084 364.970264 
L 211.667847 368.639506 
L 212.020609 368.42177 
L 212.373372 366.999796 
L 212.726135 366.78571 
L 213.078897 366.993658 
L 213.43166 366.536975 
L 213.784423 368.321508 
L 214.137185 368.690305 
L 214.489948 367.199031 
L 214.842711 368.186585 
L 215.195474 367.29438 
L 215.548236 367.253518 
L 215.900999 365.456597 
L 216.253762 365.443009 
L 216.959287 367.566566 
L 217.31205 366.061717 
L 217.664812 367.545553 
L 218.017575 363.526015 
L 218.370338 364.501218 
L 219.075863 360.027509 
L 219.428626 362.406037 
L 219.781388 354.878142 
L 220.134151 359.301053 
L 220.486914 356.686213 
L 220.839676 351.087539 
L 221.192439 358.262762 
L 221.545202 360.9792 
L 221.897964 358.787544 
L 222.250727 361.195748 
L 222.60349 359.559725 
L 222.956252 360.291131 
L 223.309015 359.636474 
L 223.661778 365.462747 
L 224.01454 365.98623 
L 224.367303 364.647254 
L 224.720066 365.548183 
L 225.072828 362.022453 
L 225.425591 363.964111 
L 225.778354 357.66503 
L 226.131116 359.705774 
L 226.483879 358.057376 
L 226.836642 357.791279 
L 227.189404 357.35322 
L 227.542167 352.206279 
L 227.89493 354.433908 
L 228.247693 355.572374 
L 228.600455 358.939743 
L 228.953218 355.048916 
L 229.305981 361.133836 
L 229.658743 358.885281 
L 230.011506 360.874013 
L 230.364269 355.907746 
L 230.717031 367.351267 
L 231.069794 366.165653 
L 231.422557 366.210265 
L 231.775319 366.674336 
L 232.128082 361.808318 
L 232.480845 364.660842 
L 232.833607 322.31605 
L 233.18637 357.118035 
L 233.539133 363.589176 
L 233.891895 359.569613 
L 234.244658 321.342121 
L 234.597421 359.656237 
L 234.950183 362.220463 
L 235.302946 359.320853 
L 235.655709 361.571945 
L 236.008471 358.344461 
L 236.713997 359.887672 
L 237.066759 362.559523 
L 237.419522 359.267628 
L 237.772285 366.994858 
L 238.125047 358.601921 
L 238.47781 365.004901 
L 238.830573 365.004901 
L 239.183335 357.516544 
L 239.536098 363.321854 
L 239.888861 362.934495 
L 240.241623 361.343009 
L 240.594386 363.238942 
L 240.947149 355.900358 
L 241.299911 361.318235 
L 241.652674 355.395438 
L 242.005437 360.272556 
L 242.3582 360.990288 
L 243.063725 360.421018 
L 243.416488 354.753106 
L 243.76925 359.724324 
L 244.122013 362.462999 
L 244.474776 358.944668 
L 244.827538 368.14081 
L 245.533064 362.002616 
L 246.591352 367.243618 
L 246.944114 369.984743 
L 247.296877 368.977427 
L 247.64964 369.224851 
L 248.002402 370.196354 
L 248.355165 370.003331 
L 248.707928 367.743551 
L 249.06069 367.29558 
L 249.413453 369.002103 
L 249.766216 367.592615 
L 250.118978 368.616018 
L 250.471741 368.149497 
L 250.824504 369.823857 
L 251.177266 369.458749 
L 251.530029 369.368461 
L 251.882792 368.12596 
L 252.235554 367.83885 
L 252.588317 366.382264 
L 253.293842 369.191476 
L 253.999368 368.241059 
L 254.35213 369.602347 
L 254.704893 365.74862 
L 255.057656 367.850025 
L 255.410419 367.991024 
L 255.763181 365.334073 
L 256.115944 368.623419 
L 256.468707 367.505941 
L 256.821469 368.165523 
L 257.174232 369.356049 
L 257.526995 366.536975 
L 257.879757 365.97388 
L 258.23252 366.941658 
L 258.585283 366.395925 
L 258.938045 369.889457 
L 259.290808 369.971069 
L 259.643571 369.759508 
L 259.996333 369.910494 
L 260.701859 366.749823 
L 261.054621 366.053067 
L 261.407384 367.361155 
L 261.760147 369.476098 
L 262.112909 370.218629 
L 262.465672 370.073806 
L 262.818435 370.08373 
L 263.171197 363.425778 
L 263.52396 364.731366 
L 263.876723 356.974486 
L 264.229485 353.602229 
L 264.582248 361.799668 
L 265.287773 356.921311 
L 265.640536 357.132897 
L 265.993299 359.845585 
L 266.346061 356.990574 
L 266.698824 361.323185 
L 267.051587 353.754416 
L 267.404349 359.893909 
L 267.757112 356.650289 
L 268.109875 360.402455 
L 268.462638 358.719408 
L 268.8154 367.382192 
L 269.168163 367.882163 
L 269.520926 367.984886 
L 269.873688 366.260965 
L 270.226451 357.239359 
L 270.579214 362.880033 
L 270.931976 363.298329 
L 271.284739 351.85977 
L 271.637502 362.365212 
L 271.990264 356.899037 
L 272.343027 362.595398 
L 272.69579 348.775848 
L 273.048552 361.74893 
L 273.401315 359.447089 
L 273.754078 361.714268 
L 274.10684 356.334704 
L 274.459603 359.386477 
L 274.812366 357.913815 
L 275.165128 359.049818 
L 275.517891 359.365439 
L 275.870654 368.795467 
L 276.576179 364.764766 
L 276.928942 366.080254 
L 277.281704 352.37829 
L 277.634467 362.075615 
L 277.98723 362.210539 
L 278.339992 361.187048 
L 278.692755 363.125019 
L 279.045518 360.536117 
L 279.39828 361.902354 
L 279.751043 359.353065 
L 280.103806 360.75889 
L 280.456568 355.94612 
L 280.809331 361.034899 
L 281.162094 358.757807 
L 281.514856 358.088264 
L 281.867619 358.527622 
L 282.220382 356.220843 
L 282.573145 328.336695 
L 282.925907 368.066524 
L 283.27867 367.882125 
L 284.336958 361.0299 
L 284.689721 363.8057 
L 285.042483 327.174692 
L 285.395246 360.450767 
L 285.748009 358.48431 
L 286.100771 358.298687 
L 286.453534 322.405124 
L 286.806297 359.496589 
L 287.159059 361.373984 
L 287.511822 350.68538 
L 287.864585 360.901201 
L 288.217347 357.653942 
L 288.57011 359.476776 
L 288.922873 357.618055 
L 289.275635 361.455596 
L 289.628398 355.964708 
L 289.981161 369.395686 
L 290.333923 367.044345 
L 290.686686 366.602549 
L 291.039449 360.515092 
L 291.392211 367.036933 
L 291.744974 367.453979 
L 292.097737 368.561569 
L 292.450499 368.521969 
L 292.803262 369.255813 
L 293.156025 368.514532 
L 293.508787 366.285752 
L 293.86155 369.83127 
L 294.214313 369.580035 
L 294.567075 369.477311 
L 294.919838 369.935219 
L 295.272601 370.948785 
L 295.625364 369.753333 
L 295.978126 371.099758 
L 296.330889 369.3214 
L 296.683652 370.084992 
L 297.036414 367.885912 
L 297.389177 368.198947 
L 297.74194 367.288118 
L 298.094702 367.637177 
L 298.447465 359.812173 
L 298.800228 369.281812 
L 299.15299 369.347436 
L 299.505753 370.935123 
L 299.858516 368.474895 
L 300.211278 368.731043 
L 300.564041 368.460107 
L 300.916804 366.864897 
L 301.269566 371.391806 
L 301.622329 371.013134 
L 301.975092 371.18392 
L 302.680617 368.393283 
L 303.03338 367.800476 
L 303.738905 367.666815 
L 304.091668 367.458904 
L 304.44443 370.854723 
L 304.797193 370.346078 
L 305.149956 370.799036 
L 305.502718 368.259597 
L 305.855481 368.389632 
L 306.208244 366.402063 
L 306.561006 367.08642 
L 306.913769 370.639412 
L 307.266532 370.756924 
L 307.619294 370.38944 
L 307.972057 371.083671 
L 308.32482 363.983898 
L 308.677583 364.075497 
L 309.383108 354.410322 
L 309.735871 358.775132 
L 310.088633 357.918753 
L 310.441396 360.951963 
L 310.794159 359.699562 
L 311.146921 359.903772 
L 311.499684 357.524006 
L 311.852447 358.157625 
L 312.205209 352.659213 
L 312.557972 359.990359 
L 312.910735 358.554859 
L 313.263497 360.148783 
L 313.61626 357.934815 
L 313.969023 368.641981 
L 314.321785 366.23374 
L 314.674548 364.865052 
L 315.027311 365.363773 
L 315.380073 357.759116 
L 315.732836 362.320663 
L 316.085599 356.578477 
L 316.438361 322.605622 
L 316.791124 360.720503 
L 317.496649 360.630141 
L 317.849412 360.423493 
L 318.202175 359.360477 
L 318.554937 316.925113 
L 318.9077 357.580893 
L 319.260463 359.521351 
L 319.613225 359.834485 
L 319.965988 356.918812 
L 320.318751 359.496589 
L 320.671513 358.544984 
L 321.024276 366.854972 
L 321.377039 368.842491 
L 321.729801 366.413164 
L 322.082564 367.13837 
L 322.435327 355.878034 
L 322.78809 361.425933 
L 323.140852 361.088074 
L 323.493615 357.760366 
L 323.846378 359.770111 
L 324.19914 355.14424 
L 324.551903 360.010184 
L 324.904666 360.76629 
L 325.257428 359.388927 
L 325.610191 359.01148 
L 325.962954 359.143929 
L 326.315716 357.588318 
L 326.668479 359.695812 
L 327.021242 354.92638 
L 327.374004 359.068368 
L 327.726767 359.81221 
L 328.07953 369.143226 
L 328.432292 365.230136 
L 328.785055 367.199044 
L 329.137818 365.189262 
L 329.49058 359.742886 
L 329.843343 361.345497 
L 330.196106 361.227923 
L 330.548868 359.103092 
L 330.901631 359.650037 
L 331.254394 359.799773 
L 331.607156 360.39258 
L 331.959919 356.27283 
L 332.312682 359.976796 
L 332.665444 360.751477 
L 333.018207 359.703262 
L 333.37097 356.703451 
L 333.723732 358.671158 
L 334.076495 359.385227 
L 334.429258 359.791161 
L 334.78202 356.828475 
L 335.134783 368.004699 
L 335.487546 316.810249 
L 335.840309 367.442829 
L 336.545834 368.333846 
L 336.898597 324.339505 
L 337.251359 367.638377 
L 337.604122 367.056745 
L 337.956885 329.1856 
L 338.309647 370.627013 
L 338.66241 371.139346 
L 339.015173 370.426515 
L 339.367935 332.348746 
L 339.720698 370.429027 
L 340.073461 370.671575 
L 340.426223 331.768364 
L 340.778986 370.805236 
L 341.131749 371.021772 
L 341.484511 328.834153 
L 341.837274 370.532988 
L 342.190037 363.768562 
L 342.542799 326.045805 
L 342.895562 365.311736 
L 343.248325 366.014754 
L 343.601087 369.368461 
L 343.95385 369.565222 
L 344.306613 329.785807 
L 344.659375 370.39064 
L 345.012138 361.411071 
L 345.364901 367.015846 
L 345.717663 366.20899 
L 346.070426 367.088858 
L 346.423189 371.008184 
L 346.775951 370.915373 
L 347.481477 370.442614 
L 347.834239 367.638352 
L 348.187002 367.918025 
L 348.892528 365.75852 
L 349.24529 370.295366 
L 349.598053 369.734733 
L 349.950816 371.061396 
L 350.303578 370.429027 
L 350.656341 366.049379 
L 351.009104 367.778189 
L 351.361866 367.828938 
L 351.714629 360.385118 
L 352.067392 370.05898 
L 352.420154 370.815099 
L 352.772917 370.542826 
L 353.12568 370.695075 
L 353.478442 370.573776 
L 353.831205 371.461105 
L 354.183968 370.447602 
L 354.53673 370.395602 
L 354.889493 371.339844 
L 355.242256 370.529251 
L 355.595018 370.349803 
L 355.947781 368.70883 
L 356.300544 370.937635 
L 356.653306 370.518089 
L 357.006069 370.6431 
L 357.358832 368.68778 
L 357.711594 370.195092 
L 358.064357 370.659187 
L 358.41712 369.411736 
L 358.769882 371.107208 
L 359.122645 368.596243 
L 359.475408 368.753343 
L 360.180933 367.460154 
L 360.533696 371.279207 
L 360.886458 371.388093 
L 361.239221 370.987122 
L 361.591984 370.998297 
L 361.944746 367.518316 
L 362.297509 366.921846 
L 362.650272 368.536807 
L 363.003035 368.18161 
L 363.355797 370.794074 
L 363.70856 371.422755 
L 364.061323 370.89556 
L 364.414085 370.99696 
L 364.766848 369.129614 
L 365.119611 368.896953 
L 365.472373 368.13461 
L 365.825136 368.40937 
L 366.177899 370.776774 
L 366.883424 371.120783 
L 367.236187 370.508201 
L 367.588949 369.189001 
L 367.941712 369.149376 
L 368.294475 368.575169 
L 368.647237 368.346246 
L 369 371.435143 
L 369.705525 371.24082 
L 370.058288 371.327456 
L 370.763813 369.759483 
L 371.116576 369.644434 
L 371.469339 370.519351 
L 371.822101 369.452586 
L 372.174864 371.197495 
L 372.527627 361.007637 
L 372.880389 370.123342 
L 373.585915 371.098521 
L 373.938677 370.487139 
L 374.29144 370.377015 
L 374.644203 370.932673 
L 374.996965 371.047809 
L 375.349728 371.447505 
L 375.702491 369.622171 
L 376.055254 368.742205 
L 376.408016 369.066465 
L 376.760779 368.588831 
L 377.113542 366.429301 
L 377.466304 367.705202 
L 377.819067 370.364653 
L 378.17183 371.056434 
L 378.524592 370.833686 
L 378.877355 368.437845 
L 379.58288 369.099877 
L 379.935643 368.029424 
L 380.288406 370.256979 
L 380.993931 370.665375 
L 381.699456 367.746039 
L 382.052219 367.133469 
L 382.404982 368.573969 
L 382.757744 368.342484 
L 383.110507 371.178982 
L 383.46327 370.521789 
L 383.816032 370.881936 
L 384.168795 370.727225 
L 384.521558 366.99982 
L 384.87432 368.385796 
L 385.227083 367.398292 
L 385.579846 367.794251 
L 386.285371 370.514389 
L 386.638134 370.776724 
L 386.990896 369.839945 
L 387.343659 370.707412 
L 388.049184 370.567589 
L 388.401947 369.864719 
L 388.75471 371.23712 
L 389.107472 370.214941 
L 389.460235 336.332447 
L 389.812998 370.211204 
L 390.165761 369.681571 
L 390.518523 369.695134 
L 390.871286 370.453739 
L 391.224049 370.061431 
L 391.576811 370.93641 
L 391.929574 371.129433 
L 392.282337 333.807808 
L 392.635099 370.773024 
L 392.987862 368.17296 
L 393.340625 368.106136 
L 393.693387 331.821576 
L 394.04615 367.705214 
L 394.398913 335.183971 
L 394.751675 337.307564 
L 395.104438 334.456364 
L 395.457201 370.181467 
L 395.809963 366.956446 
L 396.162726 367.837613 
L 396.515489 333.364762 
L 396.868251 368.041799 
L 397.221014 370.805199 
L 397.573777 370.530464 
L 397.926539 369.78302 
L 398.279302 369.899357 
L 398.632065 367.694039 
L 398.984827 333.529373 
L 399.33759 336.489534 
L 399.690353 335.680266 
L 400.043115 370.509451 
L 400.395878 370.131968 
L 400.748641 370.297816 
L 401.101403 370.068905 
L 401.454166 368.366083 
L 401.806929 334.485952 
L 402.159691 366.74861 
L 402.512454 366.496125 
L 402.865217 369.885744 
L 403.570742 369.893144 
L 403.923505 369.640672 
L 404.276268 370.490889 
L 404.62903 370.698762 
L 404.981793 370.140679 
L 405.334556 370.743349 
L 405.687318 370.693837 
L 406.040081 370.234729 
L 406.392844 370.765587 
L 406.745606 370.755724 
L 407.098369 369.956269 
L 407.451132 371.169058 
L 407.803894 368.340058 
L 408.156657 368.13336 
L 408.50942 371.117059 
L 408.862182 370.69385 
L 409.567708 370.446327 
L 409.92047 368.017086 
L 410.273233 367.765826 
L 410.625996 367.744776 
L 410.978758 366.857484 
L 411.331521 367.67424 
L 412.037046 370.867073 
L 412.742572 367.752189 
L 413.095334 367.975011 
L 413.448097 367.944049 
L 413.80086 367.60499 
L 414.506385 370.235966 
L 414.859148 370.440164 
L 415.21191 370.805199 
L 415.564673 368.279434 
L 415.917436 368.310359 
L 416.270199 367.045607 
L 416.622961 364.232621 
L 416.975724 370.393127 
L 417.328487 370.758199 
L 417.681249 370.949997 
L 418.386775 367.349993 
L 418.739537 367.736126 
L 419.0923 367.848738 
L 419.445063 367.779426 
L 419.797825 371.171558 
L 420.150588 371.084921 
L 420.503351 370.132005 
L 421.208876 371.094771 
L 421.561639 370.463664 
L 421.914401 371.050246 
L 422.267164 370.766861 
L 422.619927 371.076221 
L 422.972689 371.075033 
L 423.325452 370.959934 
L 423.678215 369.352362 
L 424.030977 370.859698 
L 424.38374 370.261916 
L 424.736503 369.32265 
L 425.089265 370.624538 
L 425.442028 370.169117 
L 425.794791 370.080042 
L 426.147553 370.188929 
L 426.500316 369.239725 
L 426.853079 366.817885 
L 427.205841 366.717623 
L 427.558604 367.165607 
L 427.911367 366.411926 
L 428.264129 371.214833 
L 428.616892 369.30285 
L 428.969655 371.030459 
L 429.322417 370.545326 
L 429.67518 367.582628 
L 430.380706 366.22259 
L 430.733468 366.033316 
L 431.086231 369.697609 
L 431.438994 370.451289 
L 431.791756 370.698787 
L 432.144519 370.697562 
L 432.497282 368.186572 
L 432.850044 367.445304 
L 433.202807 367.960124 
L 433.55557 367.210193 
L 433.908332 370.989609 
L 434.261095 371.545267 
L 434.613858 370.623276 
L 434.96662 371.110883 
L 435.319383 366.5085 
L 435.672146 367.405692 
L 436.024908 364.910852 
L 436.377671 367.043071 
L 436.730434 370.828736 
L 437.083196 371.253207 
L 437.435959 370.729737 
L 437.788722 371.198745 
L 438.141484 371.233407 
L 438.494247 371.484593 
L 438.84701 371.135633 
L 439.199772 370.261929 
L 439.552535 371.359619 
L 440.25806 369.789195 
L 440.610823 371.275494 
L 440.963586 371.275507 
L 441.316348 369.445186 
L 441.669111 369.906757 
L 442.021874 371.202458 
L 442.374636 370.942585 
L 442.727399 371.517993 
L 443.080162 371.474718 
L 443.432925 364.56928 
L 443.785687 367.166832 
L 444.13845 366.80056 
L 444.491213 367.458892 
L 444.843975 367.816538 
L 445.196738 370.789136 
L 445.549501 370.634487 
L 445.902263 371.204933 
L 446.255026 370.740899 
L 446.607789 367.226281 
L 446.960551 367.279431 
L 447.313314 367.718752 
L 447.666077 366.945309 
L 448.018839 370.747074 
L 448.371602 370.353515 
L 448.724365 371.088609 
L 449.077127 371.332382 
L 449.42989 368.007112 
L 449.782653 368.092499 
L 450.135415 367.582702 
L 450.488178 367.36858 
L 450.840941 371.17152 
L 451.193703 371.409118 
L 451.546466 370.566339 
L 451.899229 334.808974 
L 452.251991 367.752189 
L 452.604754 367.846263 
L 452.957517 367.637065 
L 453.310279 367.199007 
L 453.663042 370.902948 
L 454.015805 338.853262 
L 454.368567 371.485867 
L 454.72133 339.599481 
L 455.074093 340.794945 
L 455.426855 371.049021 
L 455.779618 343.494033 
L 456.132381 371.212395 
L 456.485144 370.985909 
L 456.837906 370.32754 
L 457.190669 370.792849 
L 457.543432 338.652764 
L 457.896194 371.118333 
L 458.248957 342.414918 
L 458.60172 370.989609 
L 458.954482 370.999509 
L 459.307245 370.884398 
L 459.660008 340.103127 
L 460.01277 371.302682 
L 460.365533 339.000561 
L 460.718296 365.946605 
L 461.071058 367.520779 
L 461.423821 335.725966 
L 461.776584 337.930034 
L 462.129346 371.089846 
L 462.482109 371.498218 
L 463.89316 366.959008 
L 464.245922 367.63219 
L 464.598685 367.561628 
L 464.951448 371.688803 
L 465.30421 370.727225 
L 465.656973 370.6443 
L 466.009736 370.761911 
L 466.362498 367.930425 
L 466.715261 368.229897 
L 467.068024 367.915575 
L 467.420786 364.762328 
L 467.773549 370.261953 
L 468.126312 370.941397 
L 468.479074 370.63075 
L 468.831837 370.690149 
L 469.1846 367.307967 
L 469.537362 366.978721 
L 469.890125 367.570266 
L 470.242888 367.809089 
L 470.595651 370.612188 
L 470.948413 371.26062 
L 471.301176 371.277957 
L 471.653939 370.677762 
L 472.006701 371.672728 
L 472.359464 371.212382 
L 472.712227 371.428943 
L 473.064989 371.360881 
L 473.417752 371.824964 
L 474.123277 370.786661 
L 474.828803 370.640625 
L 475.181565 369.832495 
L 475.534328 371.438818 
L 475.887091 370.695075 
L 476.592616 371.287844 
L 476.945379 371.119546 
L 477.298141 370.659212 
L 477.650904 365.779606 
L 478.003667 367.314155 
L 478.356429 367.070332 
L 478.709192 367.164357 
L 479.061955 371.336168 
L 479.414717 371.438843 
L 480.120243 370.683937 
L 480.473005 365.894693 
L 480.825768 365.749857 
L 481.178531 366.376051 
L 481.531293 364.800703 
L 481.884056 371.227207 
L 482.236819 370.107242 
L 482.589581 370.685175 
L 482.942344 370.605975 
L 483.295107 366.105041 
L 483.64787 366.858697 
L 484.000632 365.513497 
L 484.353395 366.4825 
L 484.706158 370.821311 
L 485.05892 370.313903 
L 485.411683 370.851023 
L 485.764446 370.816336 
L 486.117208 366.841385 
L 486.469971 365.968917 
L 486.822734 365.940418 
L 487.175496 366.796835 
L 487.528259 370.985885 
L 487.881022 370.997047 
L 488.233784 370.692587 
L 488.586547 370.634413 
L 488.93931 371.076234 
L 489.292072 370.97846 
L 489.644835 370.764374 
L 489.997598 370.94136 
L 490.35036 370.567589 
L 490.703123 370.743337 
L 491.055886 371.076234 
L 491.408648 370.08373 
L 491.761411 371.300244 
L 492.114174 370.023106 
L 492.466936 370.42529 
L 492.819699 368.247209 
L 493.172462 371.073771 
L 493.525224 370.247104 
L 493.877987 370.812636 
L 494.23075 370.579988 
L 494.583512 365.023463 
L 494.936275 365.050688 
L 495.289038 365.597658 
L 495.6418 365.419447 
L 495.994563 371.53163 
L 496.347326 370.489676 
L 496.700089 371.126971 
L 497.052851 371.026722 
L 497.405614 366.441675 
L 497.758377 366.473887 
L 498.111139 365.904543 
L 498.463902 366.263428 
L 498.816665 371.589817 
L 499.169427 370.476051 
L 499.52219 371.521742 
L 499.874953 370.894335 
L 500.227715 366.070404 
L 500.580478 365.779619 
L 500.933241 366.361214 
L 501.286003 365.737507 
L 501.638766 371.326207 
L 501.991529 371.18762 
L 502.344291 371.391831 
L 502.697054 371.46483 
L 503.049817 364.853915 
L 503.755342 365.988717 
L 504.108105 366.254765 
L 504.460867 371.096058 
L 504.81363 371.280419 
L 505.166393 370.709937 
L 505.519155 370.747049 
L 505.871918 371.050246 
L 506.224681 371.036622 
L 506.577443 370.419127 
L 506.930206 361.086861 
L 507.282969 371.193808 
L 507.635731 370.687687 
L 507.988494 369.883245 
L 508.341257 370.831223 
L 508.694019 340.285075 
L 509.046782 371.187571 
L 509.399545 370.471077 
L 509.752307 370.914123 
L 510.10507 369.451361 
L 510.457833 371.320032 
L 510.810596 369.476086 
L 511.163358 335.117109 
L 511.516121 364.30442 
L 511.868884 364.936814 
L 512.221646 334.427815 
L 512.574409 365.035838 
L 512.927172 345.490215 
L 513.279934 308.309601 
L 513.98546 370.347328 
L 514.338222 331.550566 
L 514.690985 365.746182 
L 515.043748 334.320178 
L 515.39651 365.225174 
L 515.749273 371.615804 
L 516.102036 358.893919 
L 516.454798 370.10353 
L 516.807561 370.284241 
L 517.160324 335.322545 
L 517.513086 365.936743 
L 517.865849 366.480075 
L 518.218612 365.649633 
L 518.571374 370.821299 
L 518.924137 371.599729 
L 519.2769 340.658796 
L 519.629662 371.308882 
L 519.982425 366.405788 
L 520.335188 366.338951 
L 520.68795 366.004829 
L 521.040713 365.912018 
L 521.393476 370.442614 
L 521.746238 371.338619 
L 522.099001 371.400481 
L 522.451764 370.593613 
L 522.804526 371.188821 
L 523.157289 370.6097 
L 523.510052 369.510773 
L 523.862815 369.941419 
L 524.215577 371.100984 
L 524.56834 370.604713 
L 524.921103 370.972272 
L 525.273865 370.588663 
L 525.626628 370.980959 
L 525.979391 370.297828 
L 526.332153 370.40054 
L 526.684916 370.740849 
L 527.037679 371.337356 
L 527.390441 369.890682 
L 527.743204 370.463652 
L 528.095967 369.940157 
L 528.448729 364.235133 
L 528.801492 364.491293 
L 529.154255 363.384966 
L 529.507017 359.567163 
L 529.85978 369.659259 
L 530.212543 369.896869 
L 530.565305 368.708855 
L 530.918068 369.812695 
L 531.270831 363.615126 
L 531.623593 363.797049 
L 531.976356 363.127518 
L 532.329119 363.589151 
L 532.681881 369.353599 
L 533.034644 368.379658 
L 533.387407 368.768254 
L 533.740169 368.43657 
L 534.092932 361.988966 
L 534.445695 363.163418 
L 534.798457 363.440653 
L 535.15122 363.007494 
L 535.503983 369.773108 
L 535.856745 368.003461 
L 536.209508 368.859791 
L 536.562271 368.521969 
L 536.915034 363.477765 
L 537.267796 363.934398 
L 537.620559 363.799524 
L 537.973322 363.898511 
L 538.326084 370.157955 
L 538.678847 369.742196 
L 539.03161 369.056577 
L 539.384372 369.22365 
L 539.737135 367.8698 
L 540.089898 369.742208 
L 540.44266 369.947619 
L 540.795423 369.554085 
L 541.148186 370.299066 
L 541.500948 369.973606 
L 541.853711 369.948831 
L 542.206474 369.450136 
L 542.559236 370.10848 
L 542.911999 369.349874 
L 543.264762 369.339962 
L 543.617524 368.742267 
L 543.970287 370.296578 
L 544.675812 369.994656 
L 545.028575 368.109861 
L 545.381338 363.545852 
L 545.7341 363.474065 
L 546.086863 363.603976 
L 546.439626 362.146177 
L 546.792388 369.686509 
L 547.145151 369.483548 
L 547.497914 369.948844 
L 547.850676 369.580023 
L 548.203439 363.371366 
L 548.556202 363.929473 
L 548.908964 361.924642 
L 549.261727 362.953094 
L 549.61449 369.802808 
L 550.320015 369.088727 
L 550.672778 369.674134 
L 551.025541 362.861483 
L 551.378303 363.7191 
L 551.731066 364.024772 
L 552.083829 363.996285 
L 552.436591 370.383227 
L 552.789354 369.977294 
L 553.142117 370.10228 
L 553.494879 370.08003 
L 553.847642 363.263605 
L 554.200405 364.175709 
L 554.553167 363.419603 
L 554.90593 362.34295 
L 555.258693 369.815183 
L 555.611455 368.181623 
L 555.964218 369.858495 
L 556.316981 369.096177 
L 556.669743 370.203791 
L 557.022506 368.608593 
L 557.375269 369.559022 
L 557.728031 369.190238 
L 558.080794 369.817682 
L 558.433557 370.190154 
L 558.786319 370.052793 
L 559.139082 367.574015 
L 559.491845 370.299066 
L 559.844607 369.456336 
L 560.19737 369.882032 
L 560.550133 369.868419 
L 560.902895 366.885946 
L 561.255658 369.989706 
L 561.961183 369.696371 
L 562.313946 362.448112 
L 562.666709 362.393675 
L 563.019471 361.919692 
L 563.372234 362.012479 
L 563.724997 370.198829 
L 564.07776 370.237191 
L 564.783285 370.020606 
L 565.136048 362.71046 
L 565.48881 362.846608 
L 566.194336 361.578157 
L 566.547098 370.159242 
L 566.899861 369.280587 
L 567.252624 369.640697 
L 567.605386 369.091251 
L 567.958149 362.434561 
L 568.310912 362.726584 
L 568.663674 331.914388 
L 569.016437 334.71245 
L 569.3692 370.087467 
L 569.721962 369.047939 
L 570.074725 339.697329 
L 570.427488 369.118451 
L 570.78025 361.357822 
L 571.133013 362.781034 
L 571.485776 362.688222 
L 571.838538 362.283526 
L 572.191301 369.434024 
L 572.544064 370.252004 
L 572.896826 335.774253 
L 573.249589 368.620956 
L 573.602352 369.999556 
L 573.955114 369.305288 
L 574.307877 368.906828 
L 574.66064 369.01574 
L 575.013402 368.708842 
L 575.366165 370.224829 
L 575.718928 368.529382 
L 576.07169 370.170342 
L 576.424453 341.735462 
L 576.777216 370.601013 
L 577.129979 370.502026 
L 577.482741 255.692027 
L 578.188267 371.082421 
L 578.541029 371.079934 
L 578.893792 370.190154 
L 579.246555 363.888587 
L 579.599317 364.330407 
L 579.95208 364.314332 
L 580.304843 363.636151 
L 580.657605 371.26307 
L 581.010368 370.880698 
L 581.363131 371.341069 
L 581.715893 369.547848 
L 582.068656 361.24651 
L 582.421419 363.693113 
L 582.774181 331.46883 
L 583.126944 361.24771 
L 583.479707 371.586092 
L 583.832469 371.182645 
L 584.185232 371.185145 
L 584.537995 370.41289 
L 584.890757 364.347757 
L 585.24352 364.660842 
L 585.596283 364.534618 
L 585.949045 364.186896 
L 586.301808 370.701274 
L 586.654571 370.145605 
L 587.360096 371.000747 
L 587.712859 363.570577 
L 588.065621 364.003747 
L 588.418384 363.266142 
L 588.771147 363.472815 
L 589.123909 370.891848 
L 589.476672 371.102209 
L 589.829435 370.160479 
L 590.182197 370.550288 
L 590.887723 370.498326 
L 591.240486 370.102293 
L 591.593248 369.508298 
L 591.946011 370.775536 
L 592.298774 371.119546 
L 592.651536 370.889385 
L 593.004299 370.999509 
L 593.357062 370.223591 
L 593.709824 370.679 
L 594.062587 370.63075 
L 594.41535 370.30654 
L 594.768112 371.406681 
L 595.120875 369.802833 
L 595.473638 370.656737 
L 595.8264 370.300303 
L 596.179163 363.271092 
L 596.884688 363.334228 
L 597.237451 360.221782 
L 597.590214 370.537914 
L 597.942976 370.894348 
L 598.295739 370.770574 
L 598.648502 369.58006 
L 599.001264 363.366391 
L 599.354027 362.847846 
L 599.70679 362.965395 
L 600.059552 362.819408 
L 600.412315 370.700062 
L 600.765078 370.588651 
L 601.11784 370.66165 
L 601.470603 370.546526 
L 601.823366 363.367653 
L 602.176128 362.751309 
L 602.528891 363.433215 
L 602.881654 363.20798 
L 603.234416 370.797799 
L 603.587179 371.108433 
L 604.292705 370.558938 
L 604.645467 363.592876 
L 604.99823 362.216739 
L 605.350993 362.334275 
L 605.703755 362.738947 
L 606.056518 370.506976 
L 606.409281 357.811103 
L 606.762043 370.072605 
L 607.114806 370.031719 
L 607.467569 370.812661 
L 607.820331 370.89431 
L 608.173094 370.32754 
L 608.525857 370.528001 
L 608.878619 371.26187 
L 609.231382 370.030531 
L 609.584145 370.657938 
L 609.936907 368.885803 
L 610.28967 370.931435 
L 610.995195 368.844954 
L 611.347958 369.21375 
L 611.700721 370.253279 
L 612.053483 370.577526 
L 612.406246 370.136942 
L 612.759009 370.117155 
L 613.111771 361.969191 
L 613.464534 361.378909 
L 613.817297 362.271188 
L 614.170059 362.177151 
L 614.522822 370.348615 
L 614.875585 370.654262 
L 615.228347 370.588638 
L 615.58111 370.828724 
L 615.933873 362.831783 
L 616.286635 362.445674 
L 616.639398 362.268701 
L 616.992161 363.755 
L 617.344924 370.999522 
L 617.697686 371.107171 
L 618.403212 370.909173 
L 618.755974 363.954223 
L 619.108737 364.506168 
L 619.814262 360.560854 
L 620.167025 371.23712 
L 620.519788 370.834911 
L 620.87255 371.389343 
L 621.225313 369.766883 
L 621.578076 364.345232 
L 621.930838 364.475194 
L 622.283601 363.758712 
L 622.636364 364.389819 
L 622.636364 364.389819 
" clip-path="url(#p374c4e4d84)" style="fill: none; stroke: #1f77b4; stroke-width: 1.5; stroke-linecap: square"/>
   </g>
   <g id="patch_3">
    <path d="M 90 384.48 
L 90 51.84 
" style="fill: none; stroke: #000000; stroke-width: 0.8; stroke-linejoin: miter; stroke-linecap: square"/>
   </g>
   <g id="patch_4">
    <path d="M 648 384.48 
L 648 51.84 
" style="fill: none; stroke: #000000; stroke-width: 0.8; stroke-linejoin: miter; stroke-linecap: square"/>
   </g>
   <g id="patch_5">
    <path d="M 90 384.48 
L 648 384.48 
" style="fill: none; stroke: #000000; stroke-width: 0.8; stroke-linejoin: miter; stroke-linecap: square"/>
   </g>
   <g id="patch_6">
    <path d="M 90 51.84 
L 648 51.84 
" style="fill: none; stroke: #000000; stroke-width: 0.8; stroke-linejoin: miter; stroke-linecap: square"/>
   </g>
   <g id="text_18">
    <!-- Average time per index -->
    <g transform="translate(298.700625 45.84) scale(0.12 -0.12)">
     <defs>
      <path id="DejaVuSans-70" d="M 1159 525 
L 1159 -1331 
L 581 -1331 
L 581 3500 
L 1159 3500 
L 1159 2969 
Q 1341 3281 1617 3432 
Q 1894 3584 2278 3584 
Q 2916 3584 3314 3078 
Q 3713 2572 3713 1747 
Q 3713 922 3314 415 
Q 2916 -91 2278 -91 
Q 1894 -91 1617 61 
Q 1341 213 1159 525 
z
M 3116 1747 
Q 3116 2381 2855 2742 
Q 2594 3103 2138 3103 
Q 1681 3103 1420 2742 
Q 1159 2381 1159 1747 
Q 1159 1113 1420 752 
Q 1681 391 2138 391 
Q 2594 391 2855 752 
Q 3116 1113 3116 1747 
z
" transform="scale(0.015625)"/>
     </defs>
     <use xlink:href="#DejaVuSans-41"/>
     <use xlink:href="#DejaVuSans-76" transform="translate(62.533203 0)"/>
     <use xlink:href="#DejaVuSans-65" transform="translate(121.712891 0)"/>
     <use xlink:href="#DejaVuSans-72" transform="translate(183.236328 0)"/>
     <use xlink:href="#DejaVuSans-61" transform="translate(224.349609 0)"/>
     <use xlink:href="#DejaVuSans-67" transform="translate(285.628906 0)"/>
     <use xlink:href="#DejaVuSans-65" transform="translate(349.105469 0)"/>
     <use xlink:href="#DejaVuSans-20" transform="translate(410.628906 0)"/>
     <use xlink:href="#DejaVuSans-74" transform="translate(442.416016 0)"/>
     <use xlink:href="#DejaVuSans-69" transform="translate(481.625 0)"/>
     <use xlink:href="#DejaVuSans-6d" transform="translate(509.408203 0)"/>
     <use xlink:href="#DejaVuSans-65" transform="translate(606.820312 0)"/>
     <use xlink:href="#DejaVuSans-20" transform="translate(668.34375 0)"/>
     <use xlink:href="#DejaVuSans-70" transform="translate(700.130859 0)"/>
     <use xlink:href="#DejaVuSans-65" transform="translate(763.607422 0)"/>
     <use xlink:href="#DejaVuSans-72" transform="translate(825.130859 0)"/>
     <use xlink:href="#DejaVuSans-20" transform="translate(866.244141 0)"/>
     <use xlink:href="#DejaVuSans-69" transform="translate(898.03125 0)"/>
     <use xlink:href="#DejaVuSans-6e" transform="translate(925.814453 0)"/>
     <use xlink:href="#DejaVuSans-64" transform="translate(989.193359 0)"/>
     <use xlink:href="#DejaVuSans-65" transform="translate(1052.669922 0)"/>
     <use xlink:href="#DejaVuSans-78" transform="translate(1112.443359 0)"/>
    </g>
   </g>
   <g id="legend_1">
    <g id="patch_7">
     <path d="M 489.965625 74.518125 
L 641 74.518125 
Q 643 74.518125 643 72.518125 
L 643 58.84 
Q 643 56.84 641 56.84 
L 489.965625 56.84 
Q 487.965625 56.84 487.965625 58.84 
L 487.965625 72.518125 
Q 487.965625 74.518125 489.965625 74.518125 
z
" style="fill: #ffffff; opacity: 0.8; stroke: #cccccc; stroke-linejoin: miter"/>
    </g>
    <g id="line2d_17">
     <path d="M 491.965625 64.938438 
L 501.965625 64.938438 
L 511.965625 64.938438 
" style="fill: none; stroke: #1f77b4; stroke-width: 1.5; stroke-linecap: square"/>
    </g>
    <g id="text_19">
     <!-- getExpectedBehaviours -->
     <g transform="translate(519.965625 68.438438) scale(0.1 -0.1)">
      <defs>
       <path id="DejaVuSans-45" d="M 628 4666 
L 3578 4666 
L 3578 4134 
L 1259 4134 
L 1259 2753 
L 3481 2753 
L 3481 2222 
L 1259 2222 
L 1259 531 
L 3634 531 
L 3634 0 
L 628 0 
L 628 4666 
z
" transform="scale(0.015625)"/>
       <path id="DejaVuSans-63" d="M 3122 3366 
L 3122 2828 
Q 2878 2963 2633 3030 
Q 2388 3097 2138 3097 
Q 1578 3097 1268 2742 
Q 959 2388 959 1747 
Q 959 1106 1268 751 
Q 1578 397 2138 397 
Q 2388 397 2633 464 
Q 2878 531 3122 666 
L 3122 134 
Q 2881 22 2623 -34 
Q 2366 -91 2075 -91 
Q 1284 -91 818 406 
Q 353 903 353 1747 
Q 353 2603 823 3093 
Q 1294 3584 2113 3584 
Q 2378 3584 2631 3529 
Q 2884 3475 3122 3366 
z
" transform="scale(0.015625)"/>
       <path id="DejaVuSans-42" d="M 1259 2228 
L 1259 519 
L 2272 519 
Q 2781 519 3026 730 
Q 3272 941 3272 1375 
Q 3272 1813 3026 2020 
Q 2781 2228 2272 2228 
L 1259 2228 
z
M 1259 4147 
L 1259 2741 
L 2194 2741 
Q 2656 2741 2882 2914 
Q 3109 3088 3109 3444 
Q 3109 3797 2882 3972 
Q 2656 4147 2194 4147 
L 1259 4147 
z
M 628 4666 
L 2241 4666 
Q 2963 4666 3353 4366 
Q 3744 4066 3744 3513 
Q 3744 3084 3544 2831 
Q 3344 2578 2956 2516 
Q 3422 2416 3680 2098 
Q 3938 1781 3938 1306 
Q 3938 681 3513 340 
Q 3088 0 2303 0 
L 628 0 
L 628 4666 
z
" transform="scale(0.015625)"/>
       <path id="DejaVuSans-68" d="M 3513 2113 
L 3513 0 
L 2938 0 
L 2938 2094 
Q 2938 2591 2744 2837 
Q 2550 3084 2163 3084 
Q 1697 3084 1428 2787 
Q 1159 2491 1159 1978 
L 1159 0 
L 581 0 
L 581 4863 
L 1159 4863 
L 1159 2956 
Q 1366 3272 1645 3428 
Q 1925 3584 2291 3584 
Q 2894 3584 3203 3211 
Q 3513 2838 3513 2113 
z
" transform="scale(0.015625)"/>
       <path id="DejaVuSans-6f" d="M 1959 3097 
Q 1497 3097 1228 2736 
Q 959 2375 959 1747 
Q 959 1119 1226 758 
Q 1494 397 1959 397 
Q 2419 397 2687 759 
Q 2956 1122 2956 1747 
Q 2956 2369 2687 2733 
Q 2419 3097 1959 3097 
z
M 1959 3584 
Q 2709 3584 3137 3096 
Q 3566 2609 3566 1747 
Q 3566 888 3137 398 
Q 2709 -91 1959 -91 
Q 1206 -91 779 398 
Q 353 888 353 1747 
Q 353 2609 779 3096 
Q 1206 3584 1959 3584 
z
" transform="scale(0.015625)"/>
       <path id="DejaVuSans-75" d="M 544 1381 
L 544 3500 
L 1119 3500 
L 1119 1403 
Q 1119 906 1312 657 
Q 1506 409 1894 409 
Q 2359 409 2629 706 
Q 2900 1003 2900 1516 
L 2900 3500 
L 3475 3500 
L 3475 0 
L 2900 0 
L 2900 538 
Q 2691 219 2414 64 
Q 2138 -91 1772 -91 
Q 1169 -91 856 284 
Q 544 659 544 1381 
z
M 1991 3584 
L 1991 3584 
z
" transform="scale(0.015625)"/>
      </defs>
      <use xlink:href="#DejaVuSans-67"/>
      <use xlink:href="#DejaVuSans-65" transform="translate(63.476562 0)"/>
      <use xlink:href="#DejaVuSans-74" transform="translate(125 0)"/>
      <use xlink:href="#DejaVuSans-45" transform="translate(164.208984 0)"/>
      <use xlink:href="#DejaVuSans-78" transform="translate(227.392578 0)"/>
      <use xlink:href="#DejaVuSans-70" transform="translate(286.572266 0)"/>
      <use xlink:href="#DejaVuSans-65" transform="translate(350.048828 0)"/>
      <use xlink:href="#DejaVuSans-63" transform="translate(411.572266 0)"/>
      <use xlink:href="#DejaVuSans-74" transform="translate(466.552734 0)"/>
      <use xlink:href="#DejaVuSans-65" transform="translate(505.761719 0)"/>
      <use xlink:href="#DejaVuSans-64" transform="translate(567.285156 0)"/>
      <use xlink:href="#DejaVuSans-42" transform="translate(630.761719 0)"/>
      <use xlink:href="#DejaVuSans-65" transform="translate(699.365234 0)"/>
      <use xlink:href="#DejaVuSans-68" transform="translate(760.888672 0)"/>
      <use xlink:href="#DejaVuSans-61" transform="translate(824.267578 0)"/>
      <use xlink:href="#DejaVuSans-76" transform="translate(885.546875 0)"/>
      <use xlink:href="#DejaVuSans-69" transform="translate(944.726562 0)"/>
      <use xlink:href="#DejaVuSans-6f" transform="translate(972.509766 0)"/>
      <use xlink:href="#DejaVuSans-75" transform="translate(1033.691406 0)"/>
      <use xlink:href="#DejaVuSans-72" transform="translate(1097.070312 0)"/>
      <use xlink:href="#DejaVuSans-73" transform="translate(1138.183594 0)"/>
     </g>
    </g>
   </g>
  </g>
 </g>
 <defs>
  <clipPath id="p374c4e4d84">
   <rect x="90" y="51.84" width="558" height="332.64"/>
  </clipPath>
 </defs>
</svg>
