<?xml version="1.0" encoding="utf-8" standalone="no"?>
<!DOCTYPE svg PUBLIC "-//W3C//DTD SVG 1.1//EN"
  "http://www.w3.org/Graphics/SVG/1.1/DTD/svg11.dtd">
<svg xmlns:xlink="http://www.w3.org/1999/xlink" width="720pt" height="432pt" viewBox="0 0 720 432" xmlns="http://www.w3.org/2000/svg" version="1.1">
 <metadata>
  <rdf:RDF xmlns:dc="http://purl.org/dc/elements/1.1/" xmlns:cc="http://creativecommons.org/ns#" xmlns:rdf="http://www.w3.org/1999/02/22-rdf-syntax-ns#">
   <cc:Work>
    <dc:type rdf:resource="http://purl.org/dc/dcmitype/StillImage"/>
    <dc:date>2025-06-10T03:16:29.669376</dc:date>
    <dc:format>image/svg+xml</dc:format>
    <dc:creator>
     <cc:Agent>
      <dc:title>Matplotlib v3.10.3, https://matplotlib.org/</dc:title>
     </cc:Agent>
    </dc:creator>
   </cc:Work>
  </rdf:RDF>
 </metadata>
 <defs>
  <style type="text/css">*{stroke-linejoin: round; stroke-linecap: butt}</style>
 </defs>
 <g id="figure_1">
  <g id="patch_1">
   <path d="M 0 432 
L 720 432 
L 720 0 
L 0 0 
z
" style="fill: #ffffff"/>
  </g>
  <g id="axes_1">
   <g id="patch_2">
    <path d="M 90 384.48 
L 648 384.48 
L 648 51.84 
L 90 51.84 
z
" style="fill: #ffffff"/>
   </g>
   <g id="matplotlib.axis_1">
    <g id="xtick_1">
     <g id="line2d_1">
      <defs>
       <path id="mc44f97587b" d="M 0 0 
L 0 3.5 
" style="stroke: #000000; stroke-width: 0.8"/>
      </defs>
      <g>
       <use xlink:href="#mc44f97587b" x="115.363636" y="384.48" style="stroke: #000000; stroke-width: 0.8"/>
      </g>
     </g>
     <g id="text_1">
      <!-- 0 -->
      <g transform="translate(112.182386 399.078438) scale(0.1 -0.1)">
       <defs>
        <path id="DejaVuSans-30" d="M 2034 4250 
Q 1547 4250 1301 3770 
Q 1056 3291 1056 2328 
Q 1056 1369 1301 889 
Q 1547 409 2034 409 
Q 2525 409 2770 889 
Q 3016 1369 3016 2328 
Q 3016 3291 2770 3770 
Q 2525 4250 2034 4250 
z
M 2034 4750 
Q 2819 4750 3233 4129 
Q 3647 3509 3647 2328 
Q 3647 1150 3233 529 
Q 2819 -91 2034 -91 
Q 1250 -91 836 529 
Q 422 1150 422 2328 
Q 422 3509 836 4129 
Q 1250 4750 2034 4750 
z
" transform="scale(0.015625)"/>
       </defs>
       <use xlink:href="#DejaVuSans-30"/>
      </g>
     </g>
    </g>
    <g id="xtick_2">
     <g id="line2d_2">
      <g>
       <use xlink:href="#mc44f97587b" x="185.916171" y="384.48" style="stroke: #000000; stroke-width: 0.8"/>
      </g>
     </g>
     <g id="text_2">
      <!-- 200 -->
      <g transform="translate(176.372421 399.078438) scale(0.1 -0.1)">
       <defs>
        <path id="DejaVuSans-32" d="M 1228 531 
L 3431 531 
L 3431 0 
L 469 0 
L 469 531 
Q 828 903 1448 1529 
Q 2069 2156 2228 2338 
Q 2531 2678 2651 2914 
Q 2772 3150 2772 3378 
Q 2772 3750 2511 3984 
Q 2250 4219 1831 4219 
Q 1534 4219 1204 4116 
Q 875 4013 500 3803 
L 500 4441 
Q 881 4594 1212 4672 
Q 1544 4750 1819 4750 
Q 2544 4750 2975 4387 
Q 3406 4025 3406 3419 
Q 3406 3131 3298 2873 
Q 3191 2616 2906 2266 
Q 2828 2175 2409 1742 
Q 1991 1309 1228 531 
z
" transform="scale(0.015625)"/>
       </defs>
       <use xlink:href="#DejaVuSans-32"/>
       <use xlink:href="#DejaVuSans-30" transform="translate(63.623047 0)"/>
       <use xlink:href="#DejaVuSans-30" transform="translate(127.246094 0)"/>
      </g>
     </g>
    </g>
    <g id="xtick_3">
     <g id="line2d_3">
      <g>
       <use xlink:href="#mc44f97587b" x="256.468707" y="384.48" style="stroke: #000000; stroke-width: 0.8"/>
      </g>
     </g>
     <g id="text_3">
      <!-- 400 -->
      <g transform="translate(246.924957 399.078438) scale(0.1 -0.1)">
       <defs>
        <path id="DejaVuSans-34" d="M 2419 4116 
L 825 1625 
L 2419 1625 
L 2419 4116 
z
M 2253 4666 
L 3047 4666 
L 3047 1625 
L 3713 1625 
L 3713 1100 
L 3047 1100 
L 3047 0 
L 2419 0 
L 2419 1100 
L 313 1100 
L 313 1709 
L 2253 4666 
z
" transform="scale(0.015625)"/>
       </defs>
       <use xlink:href="#DejaVuSans-34"/>
       <use xlink:href="#DejaVuSans-30" transform="translate(63.623047 0)"/>
       <use xlink:href="#DejaVuSans-30" transform="translate(127.246094 0)"/>
      </g>
     </g>
    </g>
    <g id="xtick_4">
     <g id="line2d_4">
      <g>
       <use xlink:href="#mc44f97587b" x="327.021242" y="384.48" style="stroke: #000000; stroke-width: 0.8"/>
      </g>
     </g>
     <g id="text_4">
      <!-- 600 -->
      <g transform="translate(317.477492 399.078438) scale(0.1 -0.1)">
       <defs>
        <path id="DejaVuSans-36" d="M 2113 2584 
Q 1688 2584 1439 2293 
Q 1191 2003 1191 1497 
Q 1191 994 1439 701 
Q 1688 409 2113 409 
Q 2538 409 2786 701 
Q 3034 994 3034 1497 
Q 3034 2003 2786 2293 
Q 2538 2584 2113 2584 
z
M 3366 4563 
L 3366 3988 
Q 3128 4100 2886 4159 
Q 2644 4219 2406 4219 
Q 1781 4219 1451 3797 
Q 1122 3375 1075 2522 
Q 1259 2794 1537 2939 
Q 1816 3084 2150 3084 
Q 2853 3084 3261 2657 
Q 3669 2231 3669 1497 
Q 3669 778 3244 343 
Q 2819 -91 2113 -91 
Q 1303 -91 875 529 
Q 447 1150 447 2328 
Q 447 3434 972 4092 
Q 1497 4750 2381 4750 
Q 2619 4750 2861 4703 
Q 3103 4656 3366 4563 
z
" transform="scale(0.015625)"/>
       </defs>
       <use xlink:href="#DejaVuSans-36"/>
       <use xlink:href="#DejaVuSans-30" transform="translate(63.623047 0)"/>
       <use xlink:href="#DejaVuSans-30" transform="translate(127.246094 0)"/>
      </g>
     </g>
    </g>
    <g id="xtick_5">
     <g id="line2d_5">
      <g>
       <use xlink:href="#mc44f97587b" x="397.573777" y="384.48" style="stroke: #000000; stroke-width: 0.8"/>
      </g>
     </g>
     <g id="text_5">
      <!-- 800 -->
      <g transform="translate(388.030027 399.078438) scale(0.1 -0.1)">
       <defs>
        <path id="DejaVuSans-38" d="M 2034 2216 
Q 1584 2216 1326 1975 
Q 1069 1734 1069 1313 
Q 1069 891 1326 650 
Q 1584 409 2034 409 
Q 2484 409 2743 651 
Q 3003 894 3003 1313 
Q 3003 1734 2745 1975 
Q 2488 2216 2034 2216 
z
M 1403 2484 
Q 997 2584 770 2862 
Q 544 3141 544 3541 
Q 544 4100 942 4425 
Q 1341 4750 2034 4750 
Q 2731 4750 3128 4425 
Q 3525 4100 3525 3541 
Q 3525 3141 3298 2862 
Q 3072 2584 2669 2484 
Q 3125 2378 3379 2068 
Q 3634 1759 3634 1313 
Q 3634 634 3220 271 
Q 2806 -91 2034 -91 
Q 1263 -91 848 271 
Q 434 634 434 1313 
Q 434 1759 690 2068 
Q 947 2378 1403 2484 
z
M 1172 3481 
Q 1172 3119 1398 2916 
Q 1625 2713 2034 2713 
Q 2441 2713 2670 2916 
Q 2900 3119 2900 3481 
Q 2900 3844 2670 4047 
Q 2441 4250 2034 4250 
Q 1625 4250 1398 4047 
Q 1172 3844 1172 3481 
z
" transform="scale(0.015625)"/>
       </defs>
       <use xlink:href="#DejaVuSans-38"/>
       <use xlink:href="#DejaVuSans-30" transform="translate(63.623047 0)"/>
       <use xlink:href="#DejaVuSans-30" transform="translate(127.246094 0)"/>
      </g>
     </g>
    </g>
    <g id="xtick_6">
     <g id="line2d_6">
      <g>
       <use xlink:href="#mc44f97587b" x="468.126312" y="384.48" style="stroke: #000000; stroke-width: 0.8"/>
      </g>
     </g>
     <g id="text_6">
      <!-- 1000 -->
      <g transform="translate(455.401312 399.078438) scale(0.1 -0.1)">
       <defs>
        <path id="DejaVuSans-31" d="M 794 531 
L 1825 531 
L 1825 4091 
L 703 3866 
L 703 4441 
L 1819 4666 
L 2450 4666 
L 2450 531 
L 3481 531 
L 3481 0 
L 794 0 
L 794 531 
z
" transform="scale(0.015625)"/>
       </defs>
       <use xlink:href="#DejaVuSans-31"/>
       <use xlink:href="#DejaVuSans-30" transform="translate(63.623047 0)"/>
       <use xlink:href="#DejaVuSans-30" transform="translate(127.246094 0)"/>
       <use xlink:href="#DejaVuSans-30" transform="translate(190.869141 0)"/>
      </g>
     </g>
    </g>
    <g id="xtick_7">
     <g id="line2d_7">
      <g>
       <use xlink:href="#mc44f97587b" x="538.678847" y="384.48" style="stroke: #000000; stroke-width: 0.8"/>
      </g>
     </g>
     <g id="text_7">
      <!-- 1200 -->
      <g transform="translate(525.953847 399.078438) scale(0.1 -0.1)">
       <use xlink:href="#DejaVuSans-31"/>
       <use xlink:href="#DejaVuSans-32" transform="translate(63.623047 0)"/>
       <use xlink:href="#DejaVuSans-30" transform="translate(127.246094 0)"/>
       <use xlink:href="#DejaVuSans-30" transform="translate(190.869141 0)"/>
      </g>
     </g>
    </g>
    <g id="xtick_8">
     <g id="line2d_8">
      <g>
       <use xlink:href="#mc44f97587b" x="609.231382" y="384.48" style="stroke: #000000; stroke-width: 0.8"/>
      </g>
     </g>
     <g id="text_8">
      <!-- 1400 -->
      <g transform="translate(596.506382 399.078438) scale(0.1 -0.1)">
       <use xlink:href="#DejaVuSans-31"/>
       <use xlink:href="#DejaVuSans-34" transform="translate(63.623047 0)"/>
       <use xlink:href="#DejaVuSans-30" transform="translate(127.246094 0)"/>
       <use xlink:href="#DejaVuSans-30" transform="translate(190.869141 0)"/>
      </g>
     </g>
    </g>
    <g id="text_9">
     <!-- Index -->
     <g transform="translate(355.233594 412.756563) scale(0.1 -0.1)">
      <defs>
       <path id="DejaVuSans-49" d="M 628 4666 
L 1259 4666 
L 1259 0 
L 628 0 
L 628 4666 
z
" transform="scale(0.015625)"/>
       <path id="DejaVuSans-6e" d="M 3513 2113 
L 3513 0 
L 2938 0 
L 2938 2094 
Q 2938 2591 2744 2837 
Q 2550 3084 2163 3084 
Q 1697 3084 1428 2787 
Q 1159 2491 1159 1978 
L 1159 0 
L 581 0 
L 581 3500 
L 1159 3500 
L 1159 2956 
Q 1366 3272 1645 3428 
Q 1925 3584 2291 3584 
Q 2894 3584 3203 3211 
Q 3513 2838 3513 2113 
z
" transform="scale(0.015625)"/>
       <path id="DejaVuSans-64" d="M 2906 2969 
L 2906 4863 
L 3481 4863 
L 3481 0 
L 2906 0 
L 2906 525 
Q 2725 213 2448 61 
Q 2172 -91 1784 -91 
Q 1150 -91 751 415 
Q 353 922 353 1747 
Q 353 2572 751 3078 
Q 1150 3584 1784 3584 
Q 2172 3584 2448 3432 
Q 2725 3281 2906 2969 
z
M 947 1747 
Q 947 1113 1208 752 
Q 1469 391 1925 391 
Q 2381 391 2643 752 
Q 2906 1113 2906 1747 
Q 2906 2381 2643 2742 
Q 2381 3103 1925 3103 
Q 1469 3103 1208 2742 
Q 947 2381 947 1747 
z
" transform="scale(0.015625)"/>
       <path id="DejaVuSans-65" d="M 3597 1894 
L 3597 1613 
L 953 1613 
Q 991 1019 1311 708 
Q 1631 397 2203 397 
Q 2534 397 2845 478 
Q 3156 559 3463 722 
L 3463 178 
Q 3153 47 2828 -22 
Q 2503 -91 2169 -91 
Q 1331 -91 842 396 
Q 353 884 353 1716 
Q 353 2575 817 3079 
Q 1281 3584 2069 3584 
Q 2775 3584 3186 3129 
Q 3597 2675 3597 1894 
z
M 3022 2063 
Q 3016 2534 2758 2815 
Q 2500 3097 2075 3097 
Q 1594 3097 1305 2825 
Q 1016 2553 972 2059 
L 3022 2063 
z
" transform="scale(0.015625)"/>
       <path id="DejaVuSans-78" d="M 3513 3500 
L 2247 1797 
L 3578 0 
L 2900 0 
L 1881 1375 
L 863 0 
L 184 0 
L 1544 1831 
L 300 3500 
L 978 3500 
L 1906 2253 
L 2834 3500 
L 3513 3500 
z
" transform="scale(0.015625)"/>
      </defs>
      <use xlink:href="#DejaVuSans-49"/>
      <use xlink:href="#DejaVuSans-6e" transform="translate(29.492188 0)"/>
      <use xlink:href="#DejaVuSans-64" transform="translate(92.871094 0)"/>
      <use xlink:href="#DejaVuSans-65" transform="translate(156.347656 0)"/>
      <use xlink:href="#DejaVuSans-78" transform="translate(216.121094 0)"/>
     </g>
    </g>
   </g>
   <g id="matplotlib.axis_2">
    <g id="ytick_1">
     <g id="line2d_9">
      <defs>
       <path id="mbdbf7fd70a" d="M 0 0 
L -3.5 0 
" style="stroke: #000000; stroke-width: 0.8"/>
      </defs>
      <g>
       <use xlink:href="#mbdbf7fd70a" x="90" y="384.48" style="stroke: #000000; stroke-width: 0.8"/>
      </g>
     </g>
     <g id="text_10">
      <!-- 0.0 -->
      <g transform="translate(67.096875 388.279219) scale(0.1 -0.1)">
       <defs>
        <path id="DejaVuSans-2e" d="M 684 794 
L 1344 794 
L 1344 0 
L 684 0 
L 684 794 
z
" transform="scale(0.015625)"/>
       </defs>
       <use xlink:href="#DejaVuSans-30"/>
       <use xlink:href="#DejaVuSans-2e" transform="translate(63.623047 0)"/>
       <use xlink:href="#DejaVuSans-30" transform="translate(95.410156 0)"/>
      </g>
     </g>
    </g>
    <g id="ytick_2">
     <g id="line2d_10">
      <g>
       <use xlink:href="#mbdbf7fd70a" x="90" y="313.185628" style="stroke: #000000; stroke-width: 0.8"/>
      </g>
     </g>
     <g id="text_11">
      <!-- 0.2 -->
      <g transform="translate(67.096875 316.984847) scale(0.1 -0.1)">
       <use xlink:href="#DejaVuSans-30"/>
       <use xlink:href="#DejaVuSans-2e" transform="translate(63.623047 0)"/>
       <use xlink:href="#DejaVuSans-32" transform="translate(95.410156 0)"/>
      </g>
     </g>
    </g>
    <g id="ytick_3">
     <g id="line2d_11">
      <g>
       <use xlink:href="#mbdbf7fd70a" x="90" y="241.891257" style="stroke: #000000; stroke-width: 0.8"/>
      </g>
     </g>
     <g id="text_12">
      <!-- 0.4 -->
      <g transform="translate(67.096875 245.690475) scale(0.1 -0.1)">
       <use xlink:href="#DejaVuSans-30"/>
       <use xlink:href="#DejaVuSans-2e" transform="translate(63.623047 0)"/>
       <use xlink:href="#DejaVuSans-34" transform="translate(95.410156 0)"/>
      </g>
     </g>
    </g>
    <g id="ytick_4">
     <g id="line2d_12">
      <g>
       <use xlink:href="#mbdbf7fd70a" x="90" y="170.596885" style="stroke: #000000; stroke-width: 0.8"/>
      </g>
     </g>
     <g id="text_13">
      <!-- 0.6 -->
      <g transform="translate(67.096875 174.396104) scale(0.1 -0.1)">
       <use xlink:href="#DejaVuSans-30"/>
       <use xlink:href="#DejaVuSans-2e" transform="translate(63.623047 0)"/>
       <use xlink:href="#DejaVuSans-36" transform="translate(95.410156 0)"/>
      </g>
     </g>
    </g>
    <g id="ytick_5">
     <g id="line2d_13">
      <g>
       <use xlink:href="#mbdbf7fd70a" x="90" y="99.302513" style="stroke: #000000; stroke-width: 0.8"/>
      </g>
     </g>
     <g id="text_14">
      <!-- 0.8 -->
      <g transform="translate(67.096875 103.101732) scale(0.1 -0.1)">
       <use xlink:href="#DejaVuSans-30"/>
       <use xlink:href="#DejaVuSans-2e" transform="translate(63.623047 0)"/>
       <use xlink:href="#DejaVuSans-38" transform="translate(95.410156 0)"/>
      </g>
     </g>
    </g>
    <g id="text_15">
     <!-- Average time (ms) -->
     <g transform="translate(61.017187 264.543594) rotate(-90) scale(0.1 -0.1)">
      <defs>
       <path id="DejaVuSans-41" d="M 2188 4044 
L 1331 1722 
L 3047 1722 
L 2188 4044 
z
M 1831 4666 
L 2547 4666 
L 4325 0 
L 3669 0 
L 3244 1197 
L 1141 1197 
L 716 0 
L 50 0 
L 1831 4666 
z
" transform="scale(0.015625)"/>
       <path id="DejaVuSans-76" d="M 191 3500 
L 800 3500 
L 1894 563 
L 2988 3500 
L 3597 3500 
L 2284 0 
L 1503 0 
L 191 3500 
z
" transform="scale(0.015625)"/>
       <path id="DejaVuSans-72" d="M 2631 2963 
Q 2534 3019 2420 3045 
Q 2306 3072 2169 3072 
Q 1681 3072 1420 2755 
Q 1159 2438 1159 1844 
L 1159 0 
L 581 0 
L 581 3500 
L 1159 3500 
L 1159 2956 
Q 1341 3275 1631 3429 
Q 1922 3584 2338 3584 
Q 2397 3584 2469 3576 
Q 2541 3569 2628 3553 
L 2631 2963 
z
" transform="scale(0.015625)"/>
       <path id="DejaVuSans-61" d="M 2194 1759 
Q 1497 1759 1228 1600 
Q 959 1441 959 1056 
Q 959 750 1161 570 
Q 1363 391 1709 391 
Q 2188 391 2477 730 
Q 2766 1069 2766 1631 
L 2766 1759 
L 2194 1759 
z
M 3341 1997 
L 3341 0 
L 2766 0 
L 2766 531 
Q 2569 213 2275 61 
Q 1981 -91 1556 -91 
Q 1019 -91 701 211 
Q 384 513 384 1019 
Q 384 1609 779 1909 
Q 1175 2209 1959 2209 
L 2766 2209 
L 2766 2266 
Q 2766 2663 2505 2880 
Q 2244 3097 1772 3097 
Q 1472 3097 1187 3025 
Q 903 2953 641 2809 
L 641 3341 
Q 956 3463 1253 3523 
Q 1550 3584 1831 3584 
Q 2591 3584 2966 3190 
Q 3341 2797 3341 1997 
z
" transform="scale(0.015625)"/>
       <path id="DejaVuSans-67" d="M 2906 1791 
Q 2906 2416 2648 2759 
Q 2391 3103 1925 3103 
Q 1463 3103 1205 2759 
Q 947 2416 947 1791 
Q 947 1169 1205 825 
Q 1463 481 1925 481 
Q 2391 481 2648 825 
Q 2906 1169 2906 1791 
z
M 3481 434 
Q 3481 -459 3084 -895 
Q 2688 -1331 1869 -1331 
Q 1566 -1331 1297 -1286 
Q 1028 -1241 775 -1147 
L 775 -588 
Q 1028 -725 1275 -790 
Q 1522 -856 1778 -856 
Q 2344 -856 2625 -561 
Q 2906 -266 2906 331 
L 2906 616 
Q 2728 306 2450 153 
Q 2172 0 1784 0 
Q 1141 0 747 490 
Q 353 981 353 1791 
Q 353 2603 747 3093 
Q 1141 3584 1784 3584 
Q 2172 3584 2450 3431 
Q 2728 3278 2906 2969 
L 2906 3500 
L 3481 3500 
L 3481 434 
z
" transform="scale(0.015625)"/>
       <path id="DejaVuSans-20" transform="scale(0.015625)"/>
       <path id="DejaVuSans-74" d="M 1172 4494 
L 1172 3500 
L 2356 3500 
L 2356 3053 
L 1172 3053 
L 1172 1153 
Q 1172 725 1289 603 
Q 1406 481 1766 481 
L 2356 481 
L 2356 0 
L 1766 0 
Q 1100 0 847 248 
Q 594 497 594 1153 
L 594 3053 
L 172 3053 
L 172 3500 
L 594 3500 
L 594 4494 
L 1172 4494 
z
" transform="scale(0.015625)"/>
       <path id="DejaVuSans-69" d="M 603 3500 
L 1178 3500 
L 1178 0 
L 603 0 
L 603 3500 
z
M 603 4863 
L 1178 4863 
L 1178 4134 
L 603 4134 
L 603 4863 
z
" transform="scale(0.015625)"/>
       <path id="DejaVuSans-6d" d="M 3328 2828 
Q 3544 3216 3844 3400 
Q 4144 3584 4550 3584 
Q 5097 3584 5394 3201 
Q 5691 2819 5691 2113 
L 5691 0 
L 5113 0 
L 5113 2094 
Q 5113 2597 4934 2840 
Q 4756 3084 4391 3084 
Q 3944 3084 3684 2787 
Q 3425 2491 3425 1978 
L 3425 0 
L 2847 0 
L 2847 2094 
Q 2847 2600 2669 2842 
Q 2491 3084 2119 3084 
Q 1678 3084 1418 2786 
Q 1159 2488 1159 1978 
L 1159 0 
L 581 0 
L 581 3500 
L 1159 3500 
L 1159 2956 
Q 1356 3278 1631 3431 
Q 1906 3584 2284 3584 
Q 2666 3584 2933 3390 
Q 3200 3197 3328 2828 
z
" transform="scale(0.015625)"/>
       <path id="DejaVuSans-28" d="M 1984 4856 
Q 1566 4138 1362 3434 
Q 1159 2731 1159 2009 
Q 1159 1288 1364 580 
Q 1569 -128 1984 -844 
L 1484 -844 
Q 1016 -109 783 600 
Q 550 1309 550 2009 
Q 550 2706 781 3412 
Q 1013 4119 1484 4856 
L 1984 4856 
z
" transform="scale(0.015625)"/>
       <path id="DejaVuSans-73" d="M 2834 3397 
L 2834 2853 
Q 2591 2978 2328 3040 
Q 2066 3103 1784 3103 
Q 1356 3103 1142 2972 
Q 928 2841 928 2578 
Q 928 2378 1081 2264 
Q 1234 2150 1697 2047 
L 1894 2003 
Q 2506 1872 2764 1633 
Q 3022 1394 3022 966 
Q 3022 478 2636 193 
Q 2250 -91 1575 -91 
Q 1294 -91 989 -36 
Q 684 19 347 128 
L 347 722 
Q 666 556 975 473 
Q 1284 391 1588 391 
Q 1994 391 2212 530 
Q 2431 669 2431 922 
Q 2431 1156 2273 1281 
Q 2116 1406 1581 1522 
L 1381 1569 
Q 847 1681 609 1914 
Q 372 2147 372 2553 
Q 372 3047 722 3315 
Q 1072 3584 1716 3584 
Q 2034 3584 2315 3537 
Q 2597 3491 2834 3397 
z
" transform="scale(0.015625)"/>
       <path id="DejaVuSans-29" d="M 513 4856 
L 1013 4856 
Q 1481 4119 1714 3412 
Q 1947 2706 1947 2009 
Q 1947 1309 1714 600 
Q 1481 -109 1013 -844 
L 513 -844 
Q 928 -128 1133 580 
Q 1338 1288 1338 2009 
Q 1338 2731 1133 3434 
Q 928 4138 513 4856 
z
" transform="scale(0.015625)"/>
      </defs>
      <use xlink:href="#DejaVuSans-41"/>
      <use xlink:href="#DejaVuSans-76" transform="translate(62.533203 0)"/>
      <use xlink:href="#DejaVuSans-65" transform="translate(121.712891 0)"/>
      <use xlink:href="#DejaVuSans-72" transform="translate(183.236328 0)"/>
      <use xlink:href="#DejaVuSans-61" transform="translate(224.349609 0)"/>
      <use xlink:href="#DejaVuSans-67" transform="translate(285.628906 0)"/>
      <use xlink:href="#DejaVuSans-65" transform="translate(349.105469 0)"/>
      <use xlink:href="#DejaVuSans-20" transform="translate(410.628906 0)"/>
      <use xlink:href="#DejaVuSans-74" transform="translate(442.416016 0)"/>
      <use xlink:href="#DejaVuSans-69" transform="translate(481.625 0)"/>
      <use xlink:href="#DejaVuSans-6d" transform="translate(509.408203 0)"/>
      <use xlink:href="#DejaVuSans-65" transform="translate(606.820312 0)"/>
      <use xlink:href="#DejaVuSans-20" transform="translate(668.34375 0)"/>
      <use xlink:href="#DejaVuSans-28" transform="translate(700.130859 0)"/>
      <use xlink:href="#DejaVuSans-6d" transform="translate(739.144531 0)"/>
      <use xlink:href="#DejaVuSans-73" transform="translate(836.556641 0)"/>
      <use xlink:href="#DejaVuSans-29" transform="translate(888.65625 0)"/>
     </g>
    </g>
   </g>
   <g id="line2d_14">
    <path d="M 115.363636 66.765954 
L 115.716399 247.659185 
L 116.069162 115.522553 
L 116.421924 162.289772 
L 116.774687 89.422379 
L 117.12745 160.710601 
L 117.832975 180.425973 
L 118.185738 154.518418 
L 118.5385 140.829399 
L 118.891263 140.832964 
L 119.244026 207.219378 
L 119.596788 84.468935 
L 119.949551 192.69978 
L 120.302314 128.933434 
L 120.655076 206.21058 
L 121.007839 132.307619 
L 122.066127 284.890443 
L 122.41889 241.345766 
L 122.771653 164.113232 
L 123.124415 213.759068 
L 123.477178 246.625346 
L 123.829941 345.309322 
L 124.182703 362.319125 
L 124.535466 358.358544 
L 124.888229 344.99568 
L 125.593754 334.144266 
L 125.946517 356.162553 
L 126.299279 240.882352 
L 126.652042 276.284874 
L 127.004805 241.939273 
L 127.357567 309.377422 
L 127.71033 310.475462 
L 128.063093 236.495841 
L 128.415855 277.468414 
L 128.768618 219.332773 
L 129.121381 228.847381 
L 129.474143 296.565342 
L 129.826906 259.111236 
L 130.179669 312.646429 
L 130.532431 241.317266 
L 130.885194 286.703138 
L 131.590719 214.835791 
L 132.296245 323.273247 
L 132.649007 289.467755 
L 133.00177 314.88689 
L 133.354533 288.587234 
L 133.707295 317.747684 
L 134.060058 296.062734 
L 134.412821 322.893587 
L 134.765584 300.458139 
L 135.118346 327.991259 
L 135.471109 299.033945 
L 135.823872 322.373049 
L 136.176634 284.229134 
L 136.529397 333.288627 
L 136.88216 338.327606 
L 137.234922 334.639762 
L 137.587685 328.299661 
L 137.940448 329.299547 
L 138.29321 307.969287 
L 138.645973 323.859608 
L 138.998736 282.551934 
L 139.351498 322.091436 
L 139.704261 314.462671 
L 140.057024 310.625144 
L 140.409786 312.172268 
L 140.762549 328.173078 
L 141.115312 314.558954 
L 141.468074 332.442006 
L 141.820837 262.041506 
L 142.1736 321.704664 
L 142.526362 300.488475 
L 142.879125 325.561921 
L 143.231888 306.022861 
L 143.58465 316.122137 
L 143.937413 303.53467 
L 144.290176 316.86727 
L 144.642938 310.505726 
L 144.995701 319.093419 
L 145.348464 306.776781 
L 145.701226 330.42614 
L 146.053989 306.151262 
L 146.406752 300.725475 
L 146.759514 335.20657 
L 147.112277 338.495148 
L 147.46504 315.077674 
L 147.817803 329.378042 
L 148.170565 299.998291 
L 148.523328 299.761255 
L 148.876091 305.83042 
L 149.228853 340.842622 
L 149.581616 306.181509 
L 149.934379 319.78681 
L 150.287141 307.712662 
L 150.639904 321.963106 
L 150.992667 299.754161 
L 151.345429 325.545809 
L 151.698192 311.591254 
L 152.050955 335.796585 
L 152.403717 281.903084 
L 152.75648 247.046 
L 153.109243 301.024983 
L 153.462005 307.605703 
L 153.814768 304.504309 
L 154.167531 150.871675 
L 154.520293 310.338131 
L 154.873056 325.337326 
L 155.225819 314.202518 
L 155.578581 334.611227 
L 155.931344 321.068362 
L 156.284107 344.004617 
L 156.636869 349.521215 
L 156.989632 350.168265 
L 157.342395 346.492897 
L 157.695157 345.275546 
L 158.04792 310.744616 
L 158.400683 325.454926 
L 158.753445 305.844696 
L 159.106208 319.132648 
L 159.458971 314.919044 
L 159.811733 334.978464 
L 160.164496 284.706896 
L 160.517259 334.249426 
L 160.870021 303.955306 
L 161.222784 332.237142 
L 161.575547 307.514767 
L 161.92831 325.686651 
L 162.281072 290.606754 
L 162.633835 317.838655 
L 162.986598 299.711366 
L 163.33936 334.80554 
L 163.692123 295.021783 
L 164.044886 321.840159 
L 164.397648 302.388506 
L 164.750411 337.103125 
L 165.103174 308.548607 
L 165.455936 330.586535 
L 165.808699 316.922452 
L 166.161462 340.600186 
L 166.514224 333.611323 
L 166.866987 331.488444 
L 167.572512 351.451599 
L 167.925275 351.178969 
L 168.278038 353.627949 
L 168.6308 355.078843 
L 168.983563 353.824044 
L 169.336326 355.565498 
L 169.689088 354.269634 
L 170.041851 355.946905 
L 170.394614 354.077192 
L 170.747376 354.939872 
L 171.100139 354.164475 
L 171.452902 335.652214 
L 171.805664 349.28245 
L 172.158427 355.422892 
L 172.51119 356.969997 
L 172.863952 347.414359 
L 173.216715 347.815426 
L 173.569478 316.075849 
L 173.92224 339.823059 
L 174.275003 312.049303 
L 174.627766 345.637347 
L 174.980529 289.499802 
L 175.333291 338.55573 
L 175.686054 305.126334 
L 176.038817 338.459519 
L 176.391579 314.730078 
L 176.744342 320.268029 
L 177.097105 311.453977 
L 177.449867 177.096365 
L 177.80263 315.25591 
L 178.508155 79.284034 
L 178.860918 348.43574 
L 179.213681 346.416345 
L 179.566443 351.7564 
L 180.271969 324.274897 
L 180.624731 318.007926 
L 180.977494 339.354334 
L 181.330257 319.845663 
L 181.683019 343.49668 
L 182.035782 316.879693 
L 182.388545 342.680288 
L 182.741307 318.212915 
L 183.09407 338.709013 
L 183.446833 314.615989 
L 183.799595 338.721632 
L 184.152358 308.890838 
L 184.505121 335.429365 
L 184.857883 315.065162 
L 185.210646 341.448624 
L 185.563409 331.25852 
L 185.916171 355.166196 
L 186.268934 350.542578 
L 186.621697 353.207366 
L 186.974459 343.33805 
L 187.327222 351.934636 
L 187.679985 320.695795 
L 188.032748 334.814469 
L 188.38551 321.050503 
L 188.738273 338.632408 
L 189.091036 315.968871 
L 189.443798 338.621749 
L 189.796561 312.111686 
L 190.149324 325.535115 
L 190.502086 314.876196 
L 190.854849 338.687679 
L 191.207612 317.514266 
L 191.560374 336.415117 
L 191.913137 313.608903 
L 192.2659 336.19938 
L 192.618662 331.590092 
L 192.971425 352.351726 
L 193.324188 352.863335 
L 193.67695 352.519304 
L 194.029713 339.671541 
L 194.382476 349.708434 
L 194.735238 311.507466 
L 195.088001 338.331189 
L 195.440764 306.358016 
L 195.793526 342.350569 
L 196.146289 298.461843 
L 196.499052 339.484375 
L 196.851814 309.541399 
L 197.204577 339.865836 
L 197.55734 303.10865 
L 197.910102 342.680252 
L 198.262865 307.901593 
L 198.615628 338.864114 
L 198.96839 308.168946 
L 199.673916 328.461838 
L 200.026678 304.607596 
L 200.379441 350.628131 
L 200.732204 305.281417 
L 201.084966 352.629756 
L 201.437729 354.45327 
L 201.790492 357.937836 
L 202.143255 354.963025 
L 202.496017 355.276738 
L 203.201543 360.085722 
L 203.554305 359.978745 
L 204.259831 358.096466 
L 204.612593 352.401721 
L 204.965356 351.068445 
L 205.670881 358.08579 
L 206.023644 359.486742 
L 206.376407 359.285425 
L 206.729169 354.157399 
L 207.081932 356.650955 
L 207.434695 356.643879 
L 207.787457 356.27666 
L 208.14022 359.133853 
L 208.492983 358.454774 
L 208.845745 359.436889 
L 209.904033 355.868464 
L 210.256796 355.986117 
L 210.609559 356.244577 
L 210.962321 354.900589 
L 211.315084 359.338788 
L 211.667847 356.583225 
L 212.020609 359.647244 
L 212.373372 358.062584 
L 212.726135 357.549335 
L 213.078897 356.314143 
L 213.43166 351.150434 
L 214.137185 359.349554 
L 214.489948 359.592008 
L 214.842711 359.406572 
L 215.195474 357.529747 
L 215.548236 357.989542 
L 215.900999 352.567499 
L 216.606524 358.823776 
L 216.959287 354.242881 
L 217.31205 358.420909 
L 217.664812 358.153626 
L 218.017575 342.557305 
L 218.370338 350.781414 
L 218.7231 312.177633 
L 219.075863 343.851334 
L 219.428626 313.316614 
L 219.781388 342.327328 
L 220.134151 298.524208 
L 220.486914 336.404334 
L 220.839676 308.776713 
L 221.192439 339.450546 
L 221.545202 312.509205 
L 221.897964 341.243689 
L 222.250727 312.215045 
L 222.60349 331.550809 
L 222.956252 307.666339 
L 223.309015 335.327807 
L 223.661778 326.677714 
L 224.01454 356.216041 
L 224.367303 350.353648 
L 224.720066 352.250167 
L 225.072828 339.414881 
L 225.425591 347.221811 
L 225.778354 314.065187 
L 226.131116 338.012111 
L 226.483879 283.517937 
L 226.836642 338.723272 
L 227.189404 305.103164 
L 227.542167 324.873806 
L 227.89493 294.830999 
L 228.247693 341.470013 
L 228.600455 304.899975 
L 228.953218 328.390632 
L 229.305981 296.098382 
L 229.658743 342.826406 
L 230.011506 303.359945 
L 230.364269 341.131382 
L 230.717031 326.46736 
L 231.069794 355.494168 
L 231.422557 353.882844 
L 231.775319 354.709948 
L 232.128082 271.336795 
L 232.480845 345.052715 
L 232.833607 250.364824 
L 233.18637 334.63438 
L 233.539133 311.952984 
L 233.891895 337.99074 
L 234.244658 316.728192 
L 234.597421 341.73382 
L 234.950183 319.957916 
L 235.302946 342.379016 
L 235.655709 312.206061 
L 236.008471 337.037143 
L 236.361234 311.592983 
L 236.713997 343.414691 
L 237.066759 318.011402 
L 237.419522 336.867765 
L 237.772285 330.855707 
L 238.125047 351.239587 
L 238.47781 351.920377 
L 238.830573 354.085997 
L 239.183335 332.035646 
L 239.536098 346.874358 
L 239.888861 322.216237 
L 240.241623 344.93508 
L 240.594386 313.161513 
L 240.947149 335.80015 
L 241.299911 318.672728 
L 241.652674 341.577026 
L 242.005437 310.719609 
L 242.3582 344.582119 
L 242.710962 313.345096 
L 243.063725 339.213439 
L 243.416488 289.449807 
L 243.76925 339.871147 
L 244.122013 306.794676 
L 244.474776 324.69917 
L 244.827538 328.35495 
L 245.180301 354.909536 
L 245.533064 350.654849 
L 245.885826 350.449931 
L 246.238589 357.476259 
L 247.296877 361.968 
L 247.64964 358.289014 
L 248.002402 361.237144 
L 248.355165 361.299437 
L 248.707928 360.321011 
L 249.06069 357.83806 
L 249.413453 360.579435 
L 249.766216 359.32993 
L 250.118978 357.296187 
L 250.471741 360.837824 
L 250.824504 361.06782 
L 251.177266 358.722163 
L 251.530029 360.404746 
L 251.882792 356.60636 
L 252.235554 357.399582 
L 252.588317 354.85423 
L 253.293842 358.212355 
L 253.646605 361.43135 
L 253.999368 359.647261 
L 254.35213 360.050075 
L 254.704893 353.768773 
L 255.057656 354.804359 
L 255.410419 358.051961 
L 255.763181 358.262243 
L 256.115944 360.709583 
L 256.468707 359.215877 
L 256.821469 360.119587 
L 257.174232 360.652476 
L 257.879757 355.305256 
L 258.23252 357.422663 
L 258.585283 356.847032 
L 258.938045 361.531197 
L 259.290808 361.456392 
L 259.643571 362.315489 
L 260.349096 358.725746 
L 260.701859 358.693628 
L 261.054621 297.586723 
L 261.407384 357.440558 
L 261.760147 362.033912 
L 262.112909 362.026747 
L 262.465672 362.56329 
L 262.818435 360.155198 
L 263.171197 337.835586 
L 263.52396 352.17349 
L 263.876723 308.010299 
L 264.229485 343.968952 
L 264.582248 253.200576 
L 264.935011 343.993958 
L 265.287773 293.820384 
L 265.640536 336.873183 
L 265.993299 309.45401 
L 266.346061 335.071075 
L 266.698824 305.559376 
L 267.051587 335.31353 
L 267.404349 305.903496 
L 267.757112 339.295481 
L 268.109875 306.005091 
L 268.462638 338.357906 
L 268.8154 334.390196 
L 269.168163 358.203426 
L 269.520926 357.126916 
L 269.873688 350.569278 
L 270.226451 331.905588 
L 270.579214 350.107664 
L 270.931976 316.498232 
L 271.284739 338.233106 
L 271.637502 312.49844 
L 271.990264 338.188547 
L 272.343027 314.557172 
L 272.69579 328.720315 
L 273.048552 313.124066 
L 273.401315 339.899647 
L 273.754078 305.538077 
L 274.10684 331.762928 
L 274.459603 301.254907 
L 274.812366 344.419942 
L 275.165128 314.36997 
L 275.517891 343.288108 
L 275.870654 336.612923 
L 276.223416 358.739987 
L 276.576179 352.212756 
L 276.928942 354.950495 
L 277.281704 329.304947 
L 277.634467 346.205937 
L 277.98723 318.836777 
L 278.339992 345.040239 
L 278.692755 316.396638 
L 279.045518 340.82831 
L 279.39828 308.874761 
L 279.751043 335.69139 
L 280.103806 314.386047 
L 280.456568 337.197519 
L 280.809331 306.962218 
L 281.162094 342.601829 
L 281.514856 300.821741 
L 281.867619 336.224262 
L 282.220382 277.311602 
L 282.573145 279.906842 
L 282.925907 334.506085 
L 283.27867 357.953842 
L 283.631433 356.54936 
L 283.984195 353.685056 
L 284.336958 325.365844 
L 284.689721 286.480307 
L 285.042483 203.481574 
L 285.395246 343.177566 
L 285.748009 309.069091 
L 286.100771 336.486376 
L 286.453534 257.082715 
L 286.806297 339.529023 
L 287.159059 309.730347 
L 287.864585 316.528514 
L 288.217347 339.514711 
L 288.57011 311.781896 
L 288.922873 338.853384 
L 289.275635 313.364702 
L 289.628398 319.473061 
L 289.981161 333.794835 
L 290.333923 357.160763 
L 290.686686 357.829148 
L 291.039449 354.968319 
L 291.392211 357.019992 
L 291.744974 358.123219 
L 292.097737 359.734597 
L 292.450499 359.918144 
L 292.803262 361.557951 
L 293.156025 354.43714 
L 293.508787 360.160563 
L 294.214313 362.388601 
L 294.919838 360.449323 
L 295.272601 362.600649 
L 295.625364 359.444019 
L 295.978126 362.139071 
L 296.330889 360.363805 
L 296.683652 361.991135 
L 297.036414 355.845293 
L 297.389177 358.570645 
L 297.74194 358.777399 
L 298.094702 358.23369 
L 298.447465 363.126534 
L 298.800228 362.25316 
L 299.15299 363.069552 
L 299.505753 362.486667 
L 299.858516 359.470736 
L 300.211278 360.285399 
L 300.916804 357.715059 
L 301.269566 363.789553 
L 301.622329 363.179969 
L 301.975092 363.734389 
L 302.327854 363.631013 
L 302.680617 359.871803 
L 303.03338 357.932525 
L 303.386142 358.745388 
L 303.738905 356.948609 
L 304.091668 363.292311 
L 304.44443 363.245934 
L 304.797193 361.20859 
L 305.149956 363.103345 
L 305.502718 359.542084 
L 305.855481 360.101692 
L 306.208244 358.201697 
L 306.561006 350.603232 
L 306.913769 363.390269 
L 307.266532 360.889548 
L 307.619294 363.231639 
L 307.972057 363.670135 
L 308.32482 337.587945 
L 308.677583 351.817036 
L 309.030345 312.386169 
L 309.383108 344.293448 
L 309.735871 314.198828 
L 310.088633 339.366775 
L 310.441396 299.02154 
L 310.794159 340.919281 
L 311.146921 296.483353 
L 311.499684 340.869393 
L 311.852447 296.07161 
L 312.205209 334.153196 
L 312.557972 300.285179 
L 312.910735 336.798289 
L 313.263497 303.379569 
L 313.61626 334.76991 
L 313.969023 337.532621 
L 314.321785 359.725632 
L 314.674548 360.258575 
L 315.027311 355.782893 
L 315.380073 319.883022 
L 315.732836 343.976135 
L 316.085599 309.543145 
L 316.438361 335.358107 
L 316.791124 197.073707 
L 317.143887 343.872722 
L 317.496649 301.278025 
L 317.849412 338.78389 
L 318.202175 248.323845 
L 318.554937 338.792838 
L 318.9077 298.85218 
L 319.260463 342.184757 
L 319.613225 297.133914 
L 319.965988 335.488165 
L 320.318751 296.613412 
L 320.671513 339.436269 
L 321.024276 330.597193 
L 321.377039 359.105317 
L 321.729801 359.950262 
L 322.082564 357.617101 
L 322.435327 322.97374 
L 322.78809 343.395121 
L 323.140852 305.514889 
L 323.493615 340.550315 
L 323.846378 302.299406 
L 324.19914 326.754266 
L 324.551903 307.045989 
L 324.904666 343.206102 
L 325.257428 302.570271 
L 325.610191 320.74039 
L 325.962954 304.600485 
L 326.315716 333.933948 
L 326.668479 303.743117 
L 327.021242 338.869479 
L 327.374004 301.875168 
L 327.726767 338.940756 
L 328.07953 334.53815 
L 328.432292 357.732865 
L 328.785055 352.843639 
L 329.137818 358.420945 
L 329.49058 315.981277 
L 329.843343 345.785229 
L 330.196106 304.782268 
L 330.548868 340.263284 
L 330.901631 307.202801 
L 331.254394 345.489358 
L 331.607156 309.589522 
L 331.959919 335.976532 
L 332.312682 309.484256 
L 332.665444 338.17607 
L 333.018207 306.202862 
L 333.37097 341.124271 
L 333.723732 294.757905 
L 334.076495 340.671498 
L 334.429258 292.586955 
L 334.78202 334.593421 
L 335.134783 334.930251 
L 335.487546 358.308638 
L 335.840309 302.857284 
L 336.193071 280.44326 
L 336.545834 306.283103 
L 336.898597 304.520261 
L 337.251359 361.224649 
L 337.604122 360.989396 
L 337.956885 362.467025 
L 338.309647 305.331413 
L 338.66241 364.080114 
L 339.015173 363.459835 
L 339.367935 362.549049 
L 339.720698 362.712973 
L 340.073461 308.881944 
L 340.426223 363.090869 
L 340.778986 363.769983 
L 341.131749 309.890759 
L 341.484511 363.850154 
L 341.837274 310.512802 
L 342.190037 295.36929 
L 342.542799 353.909579 
L 342.895562 356.519078 
L 343.248325 354.774042 
L 343.601087 362.793197 
L 343.95385 307.158153 
L 344.306613 362.916162 
L 344.659375 360.363752 
L 345.012138 354.850665 
L 345.364901 356.975398 
L 345.717663 356.123359 
L 346.070426 358.174943 
L 346.423189 363.739665 
L 346.775951 361.461739 
L 347.128714 360.173022 
L 347.481477 363.604206 
L 347.834239 358.260532 
L 348.187002 358.49575 
L 348.539765 357.408493 
L 348.892528 357.335399 
L 349.24529 358.117926 
L 349.598053 363.511541 
L 350.303578 363.142557 
L 350.656341 356.107282 
L 351.009104 356.164335 
L 351.361866 358.704286 
L 351.714629 357.269451 
L 352.067392 361.488456 
L 352.420154 363.190681 
L 352.772917 361.95187 
L 353.12568 362.131888 
L 353.831205 364.290396 
L 354.183968 362.614925 
L 354.53673 362.604249 
L 354.889493 364.251256 
L 355.242256 364.809116 
L 355.595018 364.277973 
L 355.947781 360.629359 
L 356.300544 363.101563 
L 356.653306 364.08719 
L 357.006069 361.319132 
L 357.358832 361.133749 
L 357.711594 363.925084 
L 358.064357 363.639871 
L 358.41712 364.12469 
L 358.769882 362.768262 
L 359.122645 357.490464 
L 359.475408 357.720442 
L 359.82817 358.125109 
L 360.180933 359.456442 
L 360.886458 364.06942 
L 361.239221 363.297622 
L 361.591984 362.796744 
L 361.944746 360.898531 
L 362.297509 360.222874 
L 362.650272 357.936089 
L 363.003035 357.32294 
L 363.355797 361.54551 
L 364.061323 364.14435 
L 364.414085 361.677422 
L 364.766848 357.948566 
L 365.119611 358.624134 
L 365.472373 359.055411 
L 365.825136 358.681098 
L 366.177899 363.220999 
L 366.530661 364.099684 
L 366.883424 364.575663 
L 367.236187 363.93216 
L 367.941712 359.875421 
L 368.294475 359.796997 
L 368.647237 360.333345 
L 369 364.105067 
L 369.352763 364.497257 
L 369.705525 363.565012 
L 370.058288 364.493639 
L 370.411051 364.114014 
L 370.763813 344.534049 
L 371.116576 362.759296 
L 371.469339 362.356501 
L 371.822101 361.584704 
L 372.174864 363.680865 
L 372.527627 362.893009 
L 372.880389 361.426074 
L 373.233152 363.867959 
L 373.585915 363.933925 
L 373.938677 364.142514 
L 374.29144 362.48132 
L 374.644203 364.219156 
L 374.996965 363.138957 
L 375.349728 364.367091 
L 375.702491 362.126577 
L 376.055254 351.503287 
L 376.408016 357.704436 
L 376.760779 359.870038 
L 377.113542 359.399496 
L 377.466304 363.386722 
L 378.524592 363.955313 
L 378.877355 359.00907 
L 379.230118 358.196403 
L 379.58288 360.310317 
L 379.935643 359.522478 
L 380.288406 359.893209 
L 380.641168 363.358187 
L 380.993931 363.545388 
L 381.346694 360.880618 
L 381.699456 359.750567 
L 382.052219 359.461789 
L 382.404982 358.652562 
L 382.757744 359.513584 
L 383.110507 364.126473 
L 383.46327 359.547431 
L 383.816032 363.130134 
L 384.168795 363.057039 
L 384.521558 352.989793 
L 384.87432 358.796969 
L 385.579846 356.85598 
L 385.932608 360.313864 
L 386.638134 362.582843 
L 386.990896 362.395713 
L 387.343659 362.550814 
L 387.696422 362.135471 
L 388.049184 363.548953 
L 388.401947 362.81102 
L 388.75471 363.618483 
L 389.107472 362.192524 
L 389.460235 364.024878 
L 389.812998 362.153276 
L 390.165761 362.832373 
L 390.518523 364.620204 
L 390.871286 363.497211 
L 391.224049 364.003437 
L 391.576811 364.026661 
L 391.929574 362.926909 
L 392.282337 364.240508 
L 392.635099 362.745055 
L 392.987862 356.396042 
L 393.340625 357.00748 
L 393.693387 359.255035 
L 394.04615 313.122283 
L 394.398913 293.283804 
L 394.751675 360.468929 
L 395.104438 362.677379 
L 395.457201 361.007166 
L 395.809963 357.312264 
L 396.162726 357.171475 
L 396.515489 312.307852 
L 396.868251 358.237344 
L 397.221014 363.949984 
L 397.573777 310.345296 
L 397.926539 363.511523 
L 398.279302 309.081603 
L 398.632065 303.684299 
L 398.984827 359.028747 
L 399.33759 359.292483 
L 399.690353 356.347936 
L 400.043115 310.247195 
L 400.395878 363.686177 
L 400.748641 312.756668 
L 401.101403 362.778956 
L 401.454166 356.256964 
L 401.806929 360.07681 
L 402.159691 356.934421 
L 402.512454 301.679073 
L 402.865217 363.081921 
L 403.21798 359.474355 
L 403.570742 363.431299 
L 403.923505 361.187238 
L 404.276268 363.368899 
L 404.62903 364.386715 
L 404.981793 363.933942 
L 405.687318 364.313567 
L 406.040081 361.092808 
L 406.392844 362.958992 
L 406.745606 362.853744 
L 407.098369 364.63441 
L 407.451132 363.941072 
L 407.803894 356.420995 
L 408.156657 362.525861 
L 408.50942 364.201296 
L 408.862182 361.615039 
L 409.214945 363.477694 
L 409.567708 361.780817 
L 409.92047 356.527919 
L 410.273233 358.97877 
L 410.625996 357.982377 
L 410.978758 358.595616 
L 411.331521 359.606196 
L 411.684284 362.158695 
L 412.037046 363.837713 
L 412.389809 362.449184 
L 412.742572 358.092937 
L 413.448097 359.231865 
L 413.80086 357.513635 
L 414.153622 364.012366 
L 414.506385 362.689838 
L 414.859148 363.934014 
L 415.21191 363.303023 
L 415.564673 359.543867 
L 415.917436 359.941297 
L 416.270199 358.355033 
L 416.622961 353.610197 
L 416.975724 363.438482 
L 417.328487 362.671943 
L 417.681249 363.45627 
L 418.034012 363.677247 
L 418.386775 355.257061 
L 419.0923 359.132053 
L 419.445063 359.522443 
L 419.797825 363.989213 
L 420.150588 364.311838 
L 420.503351 363.040873 
L 420.856113 363.54717 
L 421.208876 362.650626 
L 421.561639 360.356605 
L 421.914401 363.443776 
L 422.267164 363.203211 
L 422.619927 364.023114 
L 422.972689 363.723606 
L 423.325452 364.065855 
L 424.030977 361.998265 
L 424.38374 363.5882 
L 424.736503 362.873403 
L 425.089265 361.249567 
L 425.442028 364.326061 
L 425.794791 363.429535 
L 426.147553 362.844885 
L 426.500316 362.75755 
L 426.853079 355.011149 
L 427.205841 356.385366 
L 427.558604 356.695514 
L 427.911367 356.64739 
L 428.264129 363.342181 
L 428.616892 364.235215 
L 428.969655 363.714766 
L 429.322417 362.72905 
L 429.67518 358.961053 
L 430.027943 356.517296 
L 430.380706 357.306828 
L 430.733468 355.469233 
L 431.086231 358.199896 
L 431.438994 362.727267 
L 431.791756 362.575767 
L 432.144519 362.898303 
L 432.497282 359.060829 
L 432.850044 358.880776 
L 433.202807 357.962878 
L 433.55557 357.535005 
L 433.908332 363.962531 
L 434.261095 364.495403 
L 434.613858 360.547353 
L 434.96662 363.026722 
L 435.319383 358.786364 
L 435.672146 358.559933 
L 436.024908 357.993196 
L 436.377671 358.839817 
L 436.730434 364.646904 
L 437.083196 363.750359 
L 437.435959 364.769905 
L 437.788722 364.63981 
L 438.141484 364.89467 
L 438.494247 363.554335 
L 438.84701 364.56848 
L 439.199772 363.231604 
L 439.552535 363.737865 
L 439.905298 363.92323 
L 440.25806 363.4652 
L 440.610823 364.367074 
L 440.963586 364.573845 
L 441.316348 362.62209 
L 441.669111 363.591729 
L 442.021874 363.711165 
L 442.374636 364.760975 
L 442.727399 364.534669 
L 443.080162 364.955323 
L 443.432925 364.823393 
L 443.785687 355.323044 
L 444.13845 357.469111 
L 444.491213 357.506541 
L 444.843975 358.342521 
L 445.196738 363.007062 
L 445.549501 364.66471 
L 445.902263 364.650486 
L 446.255026 363.30657 
L 446.607789 358.558133 
L 446.960551 358.237308 
L 447.313314 356.437036 
L 447.666077 311.439665 
L 448.018839 363.017792 
L 448.371602 364.463357 
L 448.724365 363.442011 
L 449.077127 364.545292 
L 449.42989 357.994872 
L 449.782653 357.886183 
L 450.135415 359.058994 
L 450.488178 358.59738 
L 450.840941 364.267279 
L 451.193703 364.564951 
L 451.546466 321.410593 
L 451.899229 324.993224 
L 452.251991 355.738369 
L 452.604754 318.107685 
L 452.957517 314.24713 
L 453.310279 357.556411 
L 453.663042 364.351086 
L 454.368567 363.978519 
L 454.72133 363.500793 
L 455.074093 364.723545 
L 455.426855 364.630863 
L 455.779618 364.236997 
L 456.132381 364.392009 
L 456.485144 318.949048 
L 456.837906 319.556796 
L 457.190669 364.625533 
L 457.543432 364.645139 
L 457.896194 363.857319 
L 458.60172 362.848486 
L 458.954482 363.809213 
L 459.307245 362.771826 
L 460.01277 364.290432 
L 460.365533 364.375932 
L 460.718296 353.743802 
L 461.071058 357.043038 
L 461.423821 358.091137 
L 461.776584 357.403128 
L 462.129346 362.866291 
L 462.482109 364.504351 
L 462.834872 322.419408 
L 463.187634 345.444834 
L 463.540397 357.030562 
L 463.89316 359.274659 
L 464.245922 356.946844 
L 464.598685 358.980588 
L 464.951448 364.388497 
L 465.30421 364.220974 
L 465.656973 363.573941 
L 466.009736 363.86976 
L 466.362498 359.317471 
L 466.715261 359.294354 
L 467.068024 358.588486 
L 467.420786 358.736458 
L 468.126312 364.153226 
L 468.479074 364.356344 
L 468.831837 362.999915 
L 469.1846 354.04151 
L 469.537362 358.269426 
L 469.890125 358.395974 
L 470.242888 359.153423 
L 470.595651 364.165631 
L 470.948413 364.867916 
L 471.301176 363.614971 
L 471.653939 363.891201 
L 472.006701 365.067612 
L 472.359464 364.265515 
L 472.712227 364.723581 
L 473.064989 364.841217 
L 473.417752 365.285042 
L 473.770515 363.71113 
L 474.123277 364.711015 
L 474.47604 364.399156 
L 474.828803 363.413493 
L 475.181565 363.789589 
L 475.534328 364.429527 
L 476.239853 362.549049 
L 476.592616 362.725503 
L 476.945379 364.215573 
L 477.298141 363.873342 
L 477.650904 356.305177 
L 478.003667 357.178587 
L 478.356429 357.290822 
L 478.709192 356.554743 
L 479.061955 363.543641 
L 479.414717 364.297526 
L 479.76748 364.611221 
L 480.120243 364.518574 
L 480.473005 358.107214 
L 480.825768 357.561741 
L 481.178531 357.449416 
L 481.531293 356.97538 
L 481.884056 363.213834 
L 482.236819 364.183508 
L 482.589581 363.903624 
L 482.942344 362.652408 
L 483.295107 357.440576 
L 484.000632 356.631331 
L 484.353395 357.205322 
L 484.706158 361.622169 
L 485.05892 363.716548 
L 485.411683 363.425952 
L 485.764446 363.454488 
L 486.117208 355.818558 
L 486.469971 356.745402 
L 486.822734 357.014574 
L 487.175496 357.036016 
L 487.528259 363.570359 
L 487.881022 364.333209 
L 488.233784 363.441976 
L 488.586547 364.073002 
L 488.93931 364.440186 
L 489.292072 364.03559 
L 489.644835 364.128237 
L 489.997598 363.431317 
L 490.35036 364.513209 
L 490.703123 363.901896 
L 491.055886 364.345685 
L 491.761411 364.60951 
L 492.114174 363.153216 
L 492.466936 362.905485 
L 492.819699 350.804603 
L 493.172462 363.704036 
L 493.525224 362.278041 
L 493.877987 362.916197 
L 494.23075 361.700611 
L 494.583512 353.137782 
L 494.936275 354.897042 
L 495.6418 353.512113 
L 495.994563 362.506219 
L 496.347326 364.368874 
L 496.700089 364.744934 
L 497.052851 364.773451 
L 497.405614 356.454913 
L 497.758377 356.629567 
L 498.111139 356.45486 
L 498.463902 356.663431 
L 498.816665 364.613057 
L 499.169427 364.27792 
L 499.52219 364.864352 
L 499.874953 364.72891 
L 500.227715 356.438854 
L 500.580478 356.55829 
L 500.933241 357.20354 
L 501.286003 357.00208 
L 501.638766 364.964217 
L 501.991529 365.170989 
L 502.344291 364.181672 
L 502.697054 364.50075 
L 503.049817 356.442383 
L 503.402579 354.870342 
L 503.755342 357.00928 
L 504.108105 354.736648 
L 504.460867 363.75396 
L 504.81363 364.23165 
L 505.166393 361.333409 
L 505.519155 364.15852 
L 505.871918 364.652269 
L 506.577443 363.812742 
L 506.930206 364.345685 
L 507.282969 361.385008 
L 507.635731 364.66831 
L 507.988494 364.880411 
L 508.341257 363.557865 
L 508.694019 316.761968 
L 509.046782 312.963635 
L 509.399545 361.486674 
L 509.752307 315.706776 
L 510.10507 317.845821 
L 510.457833 363.880507 
L 510.810596 362.739726 
L 511.163358 363.288746 
L 511.516121 346.312843 
L 511.868884 307.978163 
L 512.221646 353.086076 
L 512.574409 352.487203 
L 512.927172 361.162302 
L 513.279934 364.696828 
L 513.632697 363.208451 
L 513.98546 362.745073 
L 514.338222 352.544274 
L 514.690985 354.372993 
L 515.043748 354.410369 
L 515.39651 354.585094 
L 515.749273 363.20494 
L 516.102036 361.509845 
L 516.454798 313.639096 
L 516.807561 363.609606 
L 517.160324 352.980899 
L 517.513086 355.706269 
L 517.865849 357.232058 
L 518.218612 354.137704 
L 518.571374 318.717287 
L 518.924137 364.990935 
L 519.2769 363.657695 
L 519.629662 364.28865 
L 519.982425 355.873793 
L 520.335188 356.652755 
L 520.68795 356.340807 
L 521.040713 355.185784 
L 521.393476 359.026929 
L 521.746238 364.094373 
L 522.099001 363.793172 
L 522.451764 364.67724 
L 522.804526 365.110335 
L 523.157289 363.133627 
L 523.510052 362.755767 
L 523.862815 363.470529 
L 524.215577 363.497229 
L 524.56834 363.868049 
L 524.921103 363.835948 
L 525.273865 362.796779 
L 525.626628 364.265479 
L 525.979391 362.509819 
L 526.332153 363.79679 
L 526.684916 363.56503 
L 527.037679 364.046267 
L 527.390441 363.821672 
L 527.743204 362.550796 
L 528.095967 363.570341 
L 528.448729 347.278936 
L 528.801492 352.697504 
L 529.154255 353.262583 
L 529.507017 349.362603 
L 529.85978 359.75595 
L 530.212543 362.058918 
L 530.565305 362.010759 
L 530.918068 360.78446 
L 531.270831 351.467605 
L 531.623593 352.841911 
L 531.976356 352.018425 
L 532.329119 352.995176 
L 532.681881 360.089322 
L 533.034644 362.238901 
L 533.387407 360.663206 
L 533.740169 360.301369 
L 534.092932 350.879462 
L 534.445695 352.162832 
L 534.798457 351.389234 
L 535.15122 352.414144 
L 535.503983 360.615082 
L 535.856745 361.269226 
L 536.209508 361.424291 
L 536.915034 349.808228 
L 537.267796 351.585294 
L 537.620559 352.667204 
L 537.973322 353.200183 
L 538.326084 362.215677 
L 538.678847 362.38149 
L 539.03161 361.427856 
L 539.384372 361.793293 
L 539.737135 362.832409 
L 540.089898 359.600884 
L 540.44266 362.344007 
L 540.795423 362.604178 
L 541.148186 363.089051 
L 541.500948 361.691645 
L 541.853711 361.556168 
L 542.206474 360.484952 
L 542.559236 360.832566 
L 542.911999 361.960835 
L 543.264762 362.680908 
L 543.617524 361.909147 
L 543.970287 362.811056 
L 544.32305 362.326236 
L 544.675812 362.502654 
L 545.028575 361.647104 
L 545.381338 347.731762 
L 545.7341 353.025494 
L 546.086863 352.353544 
L 546.439626 352.298255 
L 546.792388 361.388626 
L 547.145151 361.682716 
L 547.497914 362.472354 
L 547.850676 362.115936 
L 548.203439 352.59771 
L 548.556202 353.134217 
L 548.908964 351.900718 
L 549.261727 351.685124 
L 549.61449 362.199671 
L 549.967252 362.103388 
L 550.320015 362.370724 
L 550.672778 361.451009 
L 551.025541 352.048743 
L 551.378303 353.052247 
L 551.731066 353.358795 
L 552.083829 352.531762 
L 552.436591 362.288807 
L 552.789354 362.85918 
L 553.142117 362.983927 
L 553.494879 362.354719 
L 553.847642 352.865099 
L 554.200405 352.877522 
L 554.553167 350.731562 
L 554.90593 352.084372 
L 555.258693 361.420744 
L 555.611455 359.219442 
L 555.964218 361.540127 
L 556.316981 361.579357 
L 556.669743 362.636331 
L 557.022506 362.265547 
L 557.375269 361.101649 
L 557.728031 362.01607 
L 558.080794 362.41179 
L 558.433557 362.224553 
L 558.786319 362.868038 
L 559.139082 359.853997 
L 559.491845 361.926935 
L 559.844607 361.957235 
L 560.19737 362.204983 
L 560.550133 361.95547 
L 560.902895 362.597137 
L 561.255658 360.426117 
L 561.608421 362.618543 
L 561.961183 361.648886 
L 562.313946 346.230926 
L 562.666709 349.9562 
L 563.019471 349.80641 
L 563.372234 350.018547 
L 563.724997 362.060665 
L 564.07776 362.304777 
L 564.430522 362.736161 
L 564.783285 361.584739 
L 565.136048 351.861542 
L 565.48881 350.558655 
L 565.841573 350.704808 
L 566.194336 350.724396 
L 566.547098 361.411833 
L 566.899861 361.281685 
L 567.252624 360.866413 
L 567.605386 362.393913 
L 567.958149 350.014946 
L 568.310912 351.362535 
L 568.663674 351.505088 
L 569.016437 348.310939 
L 569.3692 361.634628 
L 569.721962 362.096276 
L 570.074725 361.92517 
L 570.427488 362.021417 
L 570.78025 349.46245 
L 571.133013 351.98276 
L 571.485776 349.866992 
L 571.838538 350.562166 
L 572.191301 319.779698 
L 572.544064 362.516913 
L 572.896826 361.361909 
L 573.249589 361.682751 
L 573.602352 363.438411 
L 574.66064 361.652398 
L 575.013402 361.878775 
L 575.366165 319.597862 
L 575.718928 363.420641 
L 576.07169 362.101624 
L 576.424453 352.642233 
L 576.777216 362.115918 
L 577.129979 319.168367 
L 577.482741 363.053403 
L 577.835504 361.857405 
L 578.188267 363.826983 
L 578.541029 363.449105 
L 578.893792 312.559076 
L 579.246555 342.036839 
L 579.599317 301.475956 
L 579.95208 352.050507 
L 580.304843 352.620951 
L 580.657605 312.355797 
L 581.010368 363.343964 
L 581.363131 364.183455 
L 581.715893 363.319011 
L 582.068656 350.332224 
L 582.421419 353.241159 
L 582.774181 354.59937 
L 583.126944 346.940269 
L 583.479707 363.666606 
L 583.832469 364.031972 
L 584.185232 363.917883 
L 584.537995 362.983927 
L 584.890757 352.100413 
L 585.24352 354.207287 
L 585.596283 354.512035 
L 585.949045 353.86322 
L 586.301808 360.508177 
L 586.654571 363.081939 
L 587.360096 364.040884 
L 587.712859 351.918631 
L 588.065621 352.688592 
L 588.418384 353.761661 
L 588.771147 352.494279 
L 589.123909 362.896609 
L 589.476672 364.156791 
L 589.829435 364.322497 
L 590.182197 364.067602 
L 590.53496 364.60058 
L 590.887723 364.158573 
L 591.240486 364.286903 
L 591.593248 364.04976 
L 592.298774 364.149626 
L 592.651536 364.354579 
L 593.004299 363.646983 
L 593.357062 362.048135 
L 593.709824 364.386751 
L 594.41535 362.816367 
L 594.768112 364.805534 
L 595.120875 364.707522 
L 595.473638 363.18528 
L 595.8264 363.131845 
L 596.179163 346.71931 
L 596.531926 352.246585 
L 596.884688 350.795691 
L 597.237451 352.685045 
L 597.590214 361.574045 
L 597.942976 363.529365 
L 598.295739 363.83593 
L 598.648502 362.675597 
L 599.001264 351.46944 
L 599.70679 351.522947 
L 600.059552 352.683298 
L 600.412315 361.759339 
L 600.765078 363.554282 
L 601.11784 362.834227 
L 601.470603 362.962592 
L 601.823366 350.993444 
L 602.176128 352.485439 
L 602.528891 351.777806 
L 602.881654 353.093188 
L 603.234416 363.921448 
L 603.587179 363.853754 
L 604.292705 362.65952 
L 604.645467 351.567435 
L 604.99823 353.169865 
L 605.350993 350.817026 
L 605.703755 351.647694 
L 606.056518 363.254863 
L 606.409281 359.634785 
L 606.762043 360.786171 
L 607.114806 363.379664 
L 607.467569 364.238744 
L 607.820331 363.38674 
L 608.173094 363.973154 
L 608.525857 362.249524 
L 608.878619 364.404503 
L 609.231382 363.800283 
L 609.584145 362.406407 
L 609.936907 363.021339 
L 610.28967 363.917937 
L 610.642433 363.263775 
L 610.995195 363.071263 
L 611.347958 361.705886 
L 611.700721 362.092712 
L 612.053483 363.48657 
L 612.406246 361.408215 
L 612.759009 362.991039 
L 613.111771 345.904701 
L 613.464534 347.874261 
L 614.170059 349.359002 
L 614.522822 361.912711 
L 614.875585 363.666588 
L 615.228347 362.721902 
L 615.58111 363.506141 
L 615.933873 349.473091 
L 616.286635 351.291187 
L 616.639398 349.558662 
L 616.992161 352.027372 
L 617.344924 363.167492 
L 617.697686 364.105049 
L 618.050449 363.80023 
L 618.403212 363.843042 
L 618.755974 352.323262 
L 619.108737 352.964947 
L 619.4615 352.776052 
L 619.814262 353.164535 
L 620.167025 363.62743 
L 620.519788 363.178222 
L 620.87255 364.613093 
L 621.225313 364.23165 
L 621.578076 353.312525 
L 621.930838 352.608421 
L 622.283601 353.736726 
L 622.636364 353.168082 
L 622.636364 353.168082 
" clip-path="url(#p077f9025db)" style="fill: none; stroke: #1f77b4; stroke-width: 1.5; stroke-linecap: square"/>
   </g>
   <g id="patch_3">
    <path d="M 90 384.48 
L 90 51.84 
" style="fill: none; stroke: #000000; stroke-width: 0.8; stroke-linejoin: miter; stroke-linecap: square"/>
   </g>
   <g id="patch_4">
    <path d="M 648 384.48 
L 648 51.84 
" style="fill: none; stroke: #000000; stroke-width: 0.8; stroke-linejoin: miter; stroke-linecap: square"/>
   </g>
   <g id="patch_5">
    <path d="M 90 384.48 
L 648 384.48 
" style="fill: none; stroke: #000000; stroke-width: 0.8; stroke-linejoin: miter; stroke-linecap: square"/>
   </g>
   <g id="patch_6">
    <path d="M 90 51.84 
L 648 51.84 
" style="fill: none; stroke: #000000; stroke-width: 0.8; stroke-linejoin: miter; stroke-linecap: square"/>
   </g>
   <g id="text_16">
    <!-- Average time per index -->
    <g transform="translate(298.700625 45.84) scale(0.12 -0.12)">
     <defs>
      <path id="DejaVuSans-70" d="M 1159 525 
L 1159 -1331 
L 581 -1331 
L 581 3500 
L 1159 3500 
L 1159 2969 
Q 1341 3281 1617 3432 
Q 1894 3584 2278 3584 
Q 2916 3584 3314 3078 
Q 3713 2572 3713 1747 
Q 3713 922 3314 415 
Q 2916 -91 2278 -91 
Q 1894 -91 1617 61 
Q 1341 213 1159 525 
z
M 3116 1747 
Q 3116 2381 2855 2742 
Q 2594 3103 2138 3103 
Q 1681 3103 1420 2742 
Q 1159 2381 1159 1747 
Q 1159 1113 1420 752 
Q 1681 391 2138 391 
Q 2594 391 2855 752 
Q 3116 1113 3116 1747 
z
" transform="scale(0.015625)"/>
     </defs>
     <use xlink:href="#DejaVuSans-41"/>
     <use xlink:href="#DejaVuSans-76" transform="translate(62.533203 0)"/>
     <use xlink:href="#DejaVuSans-65" transform="translate(121.712891 0)"/>
     <use xlink:href="#DejaVuSans-72" transform="translate(183.236328 0)"/>
     <use xlink:href="#DejaVuSans-61" transform="translate(224.349609 0)"/>
     <use xlink:href="#DejaVuSans-67" transform="translate(285.628906 0)"/>
     <use xlink:href="#DejaVuSans-65" transform="translate(349.105469 0)"/>
     <use xlink:href="#DejaVuSans-20" transform="translate(410.628906 0)"/>
     <use xlink:href="#DejaVuSans-74" transform="translate(442.416016 0)"/>
     <use xlink:href="#DejaVuSans-69" transform="translate(481.625 0)"/>
     <use xlink:href="#DejaVuSans-6d" transform="translate(509.408203 0)"/>
     <use xlink:href="#DejaVuSans-65" transform="translate(606.820312 0)"/>
     <use xlink:href="#DejaVuSans-20" transform="translate(668.34375 0)"/>
     <use xlink:href="#DejaVuSans-70" transform="translate(700.130859 0)"/>
     <use xlink:href="#DejaVuSans-65" transform="translate(763.607422 0)"/>
     <use xlink:href="#DejaVuSans-72" transform="translate(825.130859 0)"/>
     <use xlink:href="#DejaVuSans-20" transform="translate(866.244141 0)"/>
     <use xlink:href="#DejaVuSans-69" transform="translate(898.03125 0)"/>
     <use xlink:href="#DejaVuSans-6e" transform="translate(925.814453 0)"/>
     <use xlink:href="#DejaVuSans-64" transform="translate(989.193359 0)"/>
     <use xlink:href="#DejaVuSans-65" transform="translate(1052.669922 0)"/>
     <use xlink:href="#DejaVuSans-78" transform="translate(1112.443359 0)"/>
    </g>
   </g>
   <g id="legend_1">
    <g id="patch_7">
     <path d="M 515.8875 74.518125 
L 641 74.518125 
Q 643 74.518125 643 72.518125 
L 643 58.84 
Q 643 56.84 641 56.84 
L 515.8875 56.84 
Q 513.8875 56.84 513.8875 58.84 
L 513.8875 72.518125 
Q 513.8875 74.518125 515.8875 74.518125 
z
" style="fill: #ffffff; opacity: 0.8; stroke: #cccccc; stroke-linejoin: miter"/>
    </g>
    <g id="line2d_15">
     <path d="M 517.8875 64.938438 
L 527.8875 64.938438 
L 537.8875 64.938438 
" style="fill: none; stroke: #1f77b4; stroke-width: 1.5; stroke-linecap: square"/>
    </g>
    <g id="text_17">
     <!-- getExpectedPoints -->
     <g transform="translate(545.8875 68.438438) scale(0.1 -0.1)">
      <defs>
       <path id="DejaVuSans-45" d="M 628 4666 
L 3578 4666 
L 3578 4134 
L 1259 4134 
L 1259 2753 
L 3481 2753 
L 3481 2222 
L 1259 2222 
L 1259 531 
L 3634 531 
L 3634 0 
L 628 0 
L 628 4666 
z
" transform="scale(0.015625)"/>
       <path id="DejaVuSans-63" d="M 3122 3366 
L 3122 2828 
Q 2878 2963 2633 3030 
Q 2388 3097 2138 3097 
Q 1578 3097 1268 2742 
Q 959 2388 959 1747 
Q 959 1106 1268 751 
Q 1578 397 2138 397 
Q 2388 397 2633 464 
Q 2878 531 3122 666 
L 3122 134 
Q 2881 22 2623 -34 
Q 2366 -91 2075 -91 
Q 1284 -91 818 406 
Q 353 903 353 1747 
Q 353 2603 823 3093 
Q 1294 3584 2113 3584 
Q 2378 3584 2631 3529 
Q 2884 3475 3122 3366 
z
" transform="scale(0.015625)"/>
       <path id="DejaVuSans-50" d="M 1259 4147 
L 1259 2394 
L 2053 2394 
Q 2494 2394 2734 2622 
Q 2975 2850 2975 3272 
Q 2975 3691 2734 3919 
Q 2494 4147 2053 4147 
L 1259 4147 
z
M 628 4666 
L 2053 4666 
Q 2838 4666 3239 4311 
Q 3641 3956 3641 3272 
Q 3641 2581 3239 2228 
Q 2838 1875 2053 1875 
L 1259 1875 
L 1259 0 
L 628 0 
L 628 4666 
z
" transform="scale(0.015625)"/>
       <path id="DejaVuSans-6f" d="M 1959 3097 
Q 1497 3097 1228 2736 
Q 959 2375 959 1747 
Q 959 1119 1226 758 
Q 1494 397 1959 397 
Q 2419 397 2687 759 
Q 2956 1122 2956 1747 
Q 2956 2369 2687 2733 
Q 2419 3097 1959 3097 
z
M 1959 3584 
Q 2709 3584 3137 3096 
Q 3566 2609 3566 1747 
Q 3566 888 3137 398 
Q 2709 -91 1959 -91 
Q 1206 -91 779 398 
Q 353 888 353 1747 
Q 353 2609 779 3096 
Q 1206 3584 1959 3584 
z
" transform="scale(0.015625)"/>
      </defs>
      <use xlink:href="#DejaVuSans-67"/>
      <use xlink:href="#DejaVuSans-65" transform="translate(63.476562 0)"/>
      <use xlink:href="#DejaVuSans-74" transform="translate(125 0)"/>
      <use xlink:href="#DejaVuSans-45" transform="translate(164.208984 0)"/>
      <use xlink:href="#DejaVuSans-78" transform="translate(227.392578 0)"/>
      <use xlink:href="#DejaVuSans-70" transform="translate(286.572266 0)"/>
      <use xlink:href="#DejaVuSans-65" transform="translate(350.048828 0)"/>
      <use xlink:href="#DejaVuSans-63" transform="translate(411.572266 0)"/>
      <use xlink:href="#DejaVuSans-74" transform="translate(466.552734 0)"/>
      <use xlink:href="#DejaVuSans-65" transform="translate(505.761719 0)"/>
      <use xlink:href="#DejaVuSans-64" transform="translate(567.285156 0)"/>
      <use xlink:href="#DejaVuSans-50" transform="translate(630.761719 0)"/>
      <use xlink:href="#DejaVuSans-6f" transform="translate(687.439453 0)"/>
      <use xlink:href="#DejaVuSans-69" transform="translate(748.621094 0)"/>
      <use xlink:href="#DejaVuSans-6e" transform="translate(776.404297 0)"/>
      <use xlink:href="#DejaVuSans-74" transform="translate(839.783203 0)"/>
      <use xlink:href="#DejaVuSans-73" transform="translate(878.992188 0)"/>
     </g>
    </g>
   </g>
  </g>
 </g>
 <defs>
  <clipPath id="p077f9025db">
   <rect x="90" y="51.84" width="558" height="332.64"/>
  </clipPath>
 </defs>
</svg>
