<?xml version="1.0" encoding="utf-8" standalone="no"?>
<!DOCTYPE svg PUBLIC "-//W3C//DTD SVG 1.1//EN"
  "http://www.w3.org/Graphics/SVG/1.1/DTD/svg11.dtd">
<svg xmlns:xlink="http://www.w3.org/1999/xlink" width="576pt" height="432pt" viewBox="0 0 576 432" xmlns="http://www.w3.org/2000/svg" version="1.1">
 <metadata>
  <rdf:RDF xmlns:dc="http://purl.org/dc/elements/1.1/" xmlns:cc="http://creativecommons.org/ns#" xmlns:rdf="http://www.w3.org/1999/02/22-rdf-syntax-ns#">
   <cc:Work>
    <dc:type rdf:resource="http://purl.org/dc/dcmitype/StillImage"/>
    <dc:date>2025-06-10T03:16:29.916764</dc:date>
    <dc:format>image/svg+xml</dc:format>
    <dc:creator>
     <cc:Agent>
      <dc:title>Matplotlib v3.10.3, https://matplotlib.org/</dc:title>
     </cc:Agent>
    </dc:creator>
   </cc:Work>
  </rdf:RDF>
 </metadata>
 <defs>
  <style type="text/css">*{stroke-linejoin: round; stroke-linecap: butt}</style>
 </defs>
 <g id="figure_1">
  <g id="patch_1">
   <path d="M 0 432 
L 576 432 
L 576 0 
L 0 0 
z
" style="fill: #ffffff"/>
  </g>
  <g id="axes_1">
   <g id="patch_2">
    <path d="M 72 384.48 
L 518.4 384.48 
L 518.4 51.84 
L 72 51.84 
z
" style="fill: #ffffff"/>
   </g>
   <g id="FillBetweenPolyCollection_1">
    <path d="M 397.925521 379.776618 
L 192.474479 379.776618 
L 183.6 376.621864 
L 234.756345 373.467111 
L 278.035394 370.312357 
L 292.191987 367.157604 
L 294.73128 364.002851 
L 295.123454 360.848097 
L 295.190263 357.693344 
L 295.197197 354.53859 
L 295.176713 351.383837 
L 295.069821 348.229083 
L 294.832609 345.07433 
L 294.672661 341.919577 
L 294.803033 338.764823 
L 295.014946 335.61007 
L 295.104055 332.455316 
L 295.127983 329.300563 
L 295.158099 326.14581 
L 295.186373 322.991056 
L 295.19774 319.836303 
L 295.199816 316.681549 
L 295.199993 313.526796 
L 295.2 310.372042 
L 295.2 307.217289 
L 295.2 304.062536 
L 295.2 300.907782 
L 295.2 297.753029 
L 295.2 294.598275 
L 295.2 291.443522 
L 295.2 288.288769 
L 295.2 285.134015 
L 295.2 281.979262 
L 295.2 278.824508 
L 295.2 275.669755 
L 295.2 272.515001 
L 295.2 269.360248 
L 295.2 266.205495 
L 295.2 263.050741 
L 295.2 259.895988 
L 295.2 256.741234 
L 295.2 253.586481 
L 295.2 250.431728 
L 295.2 247.276974 
L 295.2 244.122221 
L 295.2 240.967467 
L 295.2 237.812714 
L 295.2 234.65796 
L 295.2 231.503207 
L 295.2 228.348454 
L 295.2 225.1937 
L 295.2 222.038947 
L 295.2 218.884193 
L 295.2 215.72944 
L 295.2 212.574687 
L 295.2 209.419933 
L 295.2 206.26518 
L 295.2 203.110426 
L 295.2 199.955673 
L 295.2 196.800919 
L 295.2 193.646166 
L 295.2 190.491413 
L 295.2 187.336659 
L 295.2 184.181906 
L 295.2 181.027152 
L 295.2 177.872399 
L 295.2 174.717646 
L 295.2 171.562892 
L 295.2 168.408139 
L 295.2 165.253385 
L 295.2 162.098632 
L 295.2 158.943878 
L 295.199994 155.789125 
L 295.199852 152.634372 
L 295.198235 149.479618 
L 295.189944 146.324865 
L 295.17115 143.170111 
L 295.149204 140.015358 
L 295.121726 136.860605 
L 295.085433 133.705851 
L 295.047929 130.551098 
L 295.001543 127.396344 
L 294.961377 124.241591 
L 294.960724 121.086837 
L 295.000182 117.932084 
L 295.052144 114.777331 
L 295.098224 111.622577 
L 295.134757 108.467824 
L 295.167056 105.31307 
L 295.189826 102.158317 
L 295.198283 99.003564 
L 295.198792 95.84881 
L 295.192865 92.694057 
L 295.177868 89.539303 
L 295.167761 86.38455 
L 295.177956 83.229796 
L 295.192852 80.075043 
L 295.197863 76.92029 
L 295.192823 73.765536 
L 295.177911 70.610783 
L 295.167761 67.456029 
L 295.232239 67.456029 
L 295.232239 67.456029 
L 295.222089 70.610783 
L 295.207177 73.765536 
L 295.202137 76.92029 
L 295.207148 80.075043 
L 295.222044 83.229796 
L 295.232239 86.38455 
L 295.222132 89.539303 
L 295.207135 92.694057 
L 295.201208 95.84881 
L 295.201717 99.003564 
L 295.210174 102.158317 
L 295.232944 105.31307 
L 295.265243 108.467824 
L 295.301776 111.622577 
L 295.347856 114.777331 
L 295.399818 117.932084 
L 295.439276 121.086837 
L 295.438623 124.241591 
L 295.398457 127.396344 
L 295.352071 130.551098 
L 295.314567 133.705851 
L 295.278274 136.860605 
L 295.250796 140.015358 
L 295.22885 143.170111 
L 295.210056 146.324865 
L 295.201765 149.479618 
L 295.200148 152.634372 
L 295.200006 155.789125 
L 295.2 158.943878 
L 295.2 162.098632 
L 295.2 165.253385 
L 295.2 168.408139 
L 295.2 171.562892 
L 295.2 174.717646 
L 295.2 177.872399 
L 295.2 181.027152 
L 295.2 184.181906 
L 295.2 187.336659 
L 295.2 190.491413 
L 295.2 193.646166 
L 295.2 196.800919 
L 295.2 199.955673 
L 295.2 203.110426 
L 295.2 206.26518 
L 295.2 209.419933 
L 295.2 212.574687 
L 295.2 215.72944 
L 295.2 218.884193 
L 295.2 222.038947 
L 295.2 225.1937 
L 295.2 228.348454 
L 295.2 231.503207 
L 295.2 234.65796 
L 295.2 237.812714 
L 295.2 240.967467 
L 295.2 244.122221 
L 295.2 247.276974 
L 295.2 250.431728 
L 295.2 253.586481 
L 295.2 256.741234 
L 295.2 259.895988 
L 295.2 263.050741 
L 295.2 266.205495 
L 295.2 269.360248 
L 295.2 272.515001 
L 295.2 275.669755 
L 295.2 278.824508 
L 295.2 281.979262 
L 295.2 285.134015 
L 295.2 288.288769 
L 295.2 291.443522 
L 295.2 294.598275 
L 295.2 297.753029 
L 295.2 300.907782 
L 295.2 304.062536 
L 295.2 307.217289 
L 295.2 310.372042 
L 295.200007 313.526796 
L 295.200184 316.681549 
L 295.20226 319.836303 
L 295.213627 322.991056 
L 295.241901 326.14581 
L 295.272017 329.300563 
L 295.295945 332.455316 
L 295.385054 335.61007 
L 295.596967 338.764823 
L 295.727339 341.919577 
L 295.567391 345.07433 
L 295.330179 348.229083 
L 295.223287 351.383837 
L 295.202803 354.53859 
L 295.209737 357.693344 
L 295.276546 360.848097 
L 295.66872 364.002851 
L 298.208013 367.157604 
L 312.364606 370.312357 
L 355.643655 373.467111 
L 406.8 376.621864 
L 397.925521 379.776618 
z
" clip-path="url(#p91a6f5b248)" style="fill: #1f77b4; fill-opacity: 0.3"/>
   </g>
   <g id="matplotlib.axis_1">
    <g id="xtick_1">
     <g id="line2d_1">
      <defs>
       <path id="me17cf9bf9b" d="M 0 0 
L 0 3.5 
" style="stroke: #000000; stroke-width: 0.8"/>
      </defs>
      <g>
       <use xlink:href="#me17cf9bf9b" x="295.2" y="384.48" style="stroke: #000000; stroke-width: 0.8"/>
      </g>
     </g>
     <g id="text_1">
      <!-- 1 -->
      <g transform="translate(292.01875 399.078438) scale(0.1 -0.1)">
       <defs>
        <path id="DejaVuSans-31" d="M 794 531 
L 1825 531 
L 1825 4091 
L 703 3866 
L 703 4441 
L 1819 4666 
L 2450 4666 
L 2450 531 
L 3481 531 
L 3481 0 
L 794 0 
L 794 531 
z
" transform="scale(0.015625)"/>
       </defs>
       <use xlink:href="#DejaVuSans-31"/>
      </g>
     </g>
    </g>
   </g>
   <g id="matplotlib.axis_2">
    <g id="ytick_1">
     <g id="line2d_2">
      <defs>
       <path id="mdae19f91ef" d="M 0 0 
L -3.5 0 
" style="stroke: #000000; stroke-width: 0.8"/>
      </defs>
      <g>
       <use xlink:href="#mdae19f91ef" x="72" y="384.48" style="stroke: #000000; stroke-width: 0.8"/>
      </g>
     </g>
     <g id="text_2">
      <!-- 0 -->
      <g transform="translate(58.6375 388.279219) scale(0.1 -0.1)">
       <defs>
        <path id="DejaVuSans-30" d="M 2034 4250 
Q 1547 4250 1301 3770 
Q 1056 3291 1056 2328 
Q 1056 1369 1301 889 
Q 1547 409 2034 409 
Q 2525 409 2770 889 
Q 3016 1369 3016 2328 
Q 3016 3291 2770 3770 
Q 2525 4250 2034 4250 
z
M 2034 4750 
Q 2819 4750 3233 4129 
Q 3647 3509 3647 2328 
Q 3647 1150 3233 529 
Q 2819 -91 2034 -91 
Q 1250 -91 836 529 
Q 422 1150 422 2328 
Q 422 3509 836 4129 
Q 1250 4750 2034 4750 
z
" transform="scale(0.015625)"/>
       </defs>
       <use xlink:href="#DejaVuSans-30"/>
      </g>
     </g>
    </g>
    <g id="ytick_2">
     <g id="line2d_3">
      <g>
       <use xlink:href="#mdae19f91ef" x="72" y="339.552769" style="stroke: #000000; stroke-width: 0.8"/>
      </g>
     </g>
     <g id="text_3">
      <!-- 20 -->
      <g transform="translate(52.275 343.351988) scale(0.1 -0.1)">
       <defs>
        <path id="DejaVuSans-32" d="M 1228 531 
L 3431 531 
L 3431 0 
L 469 0 
L 469 531 
Q 828 903 1448 1529 
Q 2069 2156 2228 2338 
Q 2531 2678 2651 2914 
Q 2772 3150 2772 3378 
Q 2772 3750 2511 3984 
Q 2250 4219 1831 4219 
Q 1534 4219 1204 4116 
Q 875 4013 500 3803 
L 500 4441 
Q 881 4594 1212 4672 
Q 1544 4750 1819 4750 
Q 2544 4750 2975 4387 
Q 3406 4025 3406 3419 
Q 3406 3131 3298 2873 
Q 3191 2616 2906 2266 
Q 2828 2175 2409 1742 
Q 1991 1309 1228 531 
z
" transform="scale(0.015625)"/>
       </defs>
       <use xlink:href="#DejaVuSans-32"/>
       <use xlink:href="#DejaVuSans-30" transform="translate(63.623047 0)"/>
      </g>
     </g>
    </g>
    <g id="ytick_3">
     <g id="line2d_4">
      <g>
       <use xlink:href="#mdae19f91ef" x="72" y="294.625538" style="stroke: #000000; stroke-width: 0.8"/>
      </g>
     </g>
     <g id="text_4">
      <!-- 40 -->
      <g transform="translate(52.275 298.424756) scale(0.1 -0.1)">
       <defs>
        <path id="DejaVuSans-34" d="M 2419 4116 
L 825 1625 
L 2419 1625 
L 2419 4116 
z
M 2253 4666 
L 3047 4666 
L 3047 1625 
L 3713 1625 
L 3713 1100 
L 3047 1100 
L 3047 0 
L 2419 0 
L 2419 1100 
L 313 1100 
L 313 1709 
L 2253 4666 
z
" transform="scale(0.015625)"/>
       </defs>
       <use xlink:href="#DejaVuSans-34"/>
       <use xlink:href="#DejaVuSans-30" transform="translate(63.623047 0)"/>
      </g>
     </g>
    </g>
    <g id="ytick_4">
     <g id="line2d_5">
      <g>
       <use xlink:href="#mdae19f91ef" x="72" y="249.698306" style="stroke: #000000; stroke-width: 0.8"/>
      </g>
     </g>
     <g id="text_5">
      <!-- 60 -->
      <g transform="translate(52.275 253.497525) scale(0.1 -0.1)">
       <defs>
        <path id="DejaVuSans-36" d="M 2113 2584 
Q 1688 2584 1439 2293 
Q 1191 2003 1191 1497 
Q 1191 994 1439 701 
Q 1688 409 2113 409 
Q 2538 409 2786 701 
Q 3034 994 3034 1497 
Q 3034 2003 2786 2293 
Q 2538 2584 2113 2584 
z
M 3366 4563 
L 3366 3988 
Q 3128 4100 2886 4159 
Q 2644 4219 2406 4219 
Q 1781 4219 1451 3797 
Q 1122 3375 1075 2522 
Q 1259 2794 1537 2939 
Q 1816 3084 2150 3084 
Q 2853 3084 3261 2657 
Q 3669 2231 3669 1497 
Q 3669 778 3244 343 
Q 2819 -91 2113 -91 
Q 1303 -91 875 529 
Q 447 1150 447 2328 
Q 447 3434 972 4092 
Q 1497 4750 2381 4750 
Q 2619 4750 2861 4703 
Q 3103 4656 3366 4563 
z
" transform="scale(0.015625)"/>
       </defs>
       <use xlink:href="#DejaVuSans-36"/>
       <use xlink:href="#DejaVuSans-30" transform="translate(63.623047 0)"/>
      </g>
     </g>
    </g>
    <g id="ytick_5">
     <g id="line2d_6">
      <g>
       <use xlink:href="#mdae19f91ef" x="72" y="204.771075" style="stroke: #000000; stroke-width: 0.8"/>
      </g>
     </g>
     <g id="text_6">
      <!-- 80 -->
      <g transform="translate(52.275 208.570294) scale(0.1 -0.1)">
       <defs>
        <path id="DejaVuSans-38" d="M 2034 2216 
Q 1584 2216 1326 1975 
Q 1069 1734 1069 1313 
Q 1069 891 1326 650 
Q 1584 409 2034 409 
Q 2484 409 2743 651 
Q 3003 894 3003 1313 
Q 3003 1734 2745 1975 
Q 2488 2216 2034 2216 
z
M 1403 2484 
Q 997 2584 770 2862 
Q 544 3141 544 3541 
Q 544 4100 942 4425 
Q 1341 4750 2034 4750 
Q 2731 4750 3128 4425 
Q 3525 4100 3525 3541 
Q 3525 3141 3298 2862 
Q 3072 2584 2669 2484 
Q 3125 2378 3379 2068 
Q 3634 1759 3634 1313 
Q 3634 634 3220 271 
Q 2806 -91 2034 -91 
Q 1263 -91 848 271 
Q 434 634 434 1313 
Q 434 1759 690 2068 
Q 947 2378 1403 2484 
z
M 1172 3481 
Q 1172 3119 1398 2916 
Q 1625 2713 2034 2713 
Q 2441 2713 2670 2916 
Q 2900 3119 2900 3481 
Q 2900 3844 2670 4047 
Q 2441 4250 2034 4250 
Q 1625 4250 1398 4047 
Q 1172 3844 1172 3481 
z
" transform="scale(0.015625)"/>
       </defs>
       <use xlink:href="#DejaVuSans-38"/>
       <use xlink:href="#DejaVuSans-30" transform="translate(63.623047 0)"/>
      </g>
     </g>
    </g>
    <g id="ytick_6">
     <g id="line2d_7">
      <g>
       <use xlink:href="#mdae19f91ef" x="72" y="159.843844" style="stroke: #000000; stroke-width: 0.8"/>
      </g>
     </g>
     <g id="text_7">
      <!-- 100 -->
      <g transform="translate(45.9125 163.643063) scale(0.1 -0.1)">
       <use xlink:href="#DejaVuSans-31"/>
       <use xlink:href="#DejaVuSans-30" transform="translate(63.623047 0)"/>
       <use xlink:href="#DejaVuSans-30" transform="translate(127.246094 0)"/>
      </g>
     </g>
    </g>
    <g id="ytick_7">
     <g id="line2d_8">
      <g>
       <use xlink:href="#mdae19f91ef" x="72" y="114.916613" style="stroke: #000000; stroke-width: 0.8"/>
      </g>
     </g>
     <g id="text_8">
      <!-- 120 -->
      <g transform="translate(45.9125 118.715832) scale(0.1 -0.1)">
       <use xlink:href="#DejaVuSans-31"/>
       <use xlink:href="#DejaVuSans-32" transform="translate(63.623047 0)"/>
       <use xlink:href="#DejaVuSans-30" transform="translate(127.246094 0)"/>
      </g>
     </g>
    </g>
    <g id="ytick_8">
     <g id="line2d_9">
      <g>
       <use xlink:href="#mdae19f91ef" x="72" y="69.989382" style="stroke: #000000; stroke-width: 0.8"/>
      </g>
     </g>
     <g id="text_9">
      <!-- 140 -->
      <g transform="translate(45.9125 73.7886) scale(0.1 -0.1)">
       <use xlink:href="#DejaVuSans-31"/>
       <use xlink:href="#DejaVuSans-34" transform="translate(63.623047 0)"/>
       <use xlink:href="#DejaVuSans-30" transform="translate(127.246094 0)"/>
      </g>
     </g>
    </g>
    <g id="text_10">
     <!-- Time (ms) -->
     <g transform="translate(39.832812 243.359219) rotate(-90) scale(0.1 -0.1)">
      <defs>
       <path id="DejaVuSans-54" d="M -19 4666 
L 3928 4666 
L 3928 4134 
L 2272 4134 
L 2272 0 
L 1638 0 
L 1638 4134 
L -19 4134 
L -19 4666 
z
" transform="scale(0.015625)"/>
       <path id="DejaVuSans-69" d="M 603 3500 
L 1178 3500 
L 1178 0 
L 603 0 
L 603 3500 
z
M 603 4863 
L 1178 4863 
L 1178 4134 
L 603 4134 
L 603 4863 
z
" transform="scale(0.015625)"/>
       <path id="DejaVuSans-6d" d="M 3328 2828 
Q 3544 3216 3844 3400 
Q 4144 3584 4550 3584 
Q 5097 3584 5394 3201 
Q 5691 2819 5691 2113 
L 5691 0 
L 5113 0 
L 5113 2094 
Q 5113 2597 4934 2840 
Q 4756 3084 4391 3084 
Q 3944 3084 3684 2787 
Q 3425 2491 3425 1978 
L 3425 0 
L 2847 0 
L 2847 2094 
Q 2847 2600 2669 2842 
Q 2491 3084 2119 3084 
Q 1678 3084 1418 2786 
Q 1159 2488 1159 1978 
L 1159 0 
L 581 0 
L 581 3500 
L 1159 3500 
L 1159 2956 
Q 1356 3278 1631 3431 
Q 1906 3584 2284 3584 
Q 2666 3584 2933 3390 
Q 3200 3197 3328 2828 
z
" transform="scale(0.015625)"/>
       <path id="DejaVuSans-65" d="M 3597 1894 
L 3597 1613 
L 953 1613 
Q 991 1019 1311 708 
Q 1631 397 2203 397 
Q 2534 397 2845 478 
Q 3156 559 3463 722 
L 3463 178 
Q 3153 47 2828 -22 
Q 2503 -91 2169 -91 
Q 1331 -91 842 396 
Q 353 884 353 1716 
Q 353 2575 817 3079 
Q 1281 3584 2069 3584 
Q 2775 3584 3186 3129 
Q 3597 2675 3597 1894 
z
M 3022 2063 
Q 3016 2534 2758 2815 
Q 2500 3097 2075 3097 
Q 1594 3097 1305 2825 
Q 1016 2553 972 2059 
L 3022 2063 
z
" transform="scale(0.015625)"/>
       <path id="DejaVuSans-20" transform="scale(0.015625)"/>
       <path id="DejaVuSans-28" d="M 1984 4856 
Q 1566 4138 1362 3434 
Q 1159 2731 1159 2009 
Q 1159 1288 1364 580 
Q 1569 -128 1984 -844 
L 1484 -844 
Q 1016 -109 783 600 
Q 550 1309 550 2009 
Q 550 2706 781 3412 
Q 1013 4119 1484 4856 
L 1984 4856 
z
" transform="scale(0.015625)"/>
       <path id="DejaVuSans-73" d="M 2834 3397 
L 2834 2853 
Q 2591 2978 2328 3040 
Q 2066 3103 1784 3103 
Q 1356 3103 1142 2972 
Q 928 2841 928 2578 
Q 928 2378 1081 2264 
Q 1234 2150 1697 2047 
L 1894 2003 
Q 2506 1872 2764 1633 
Q 3022 1394 3022 966 
Q 3022 478 2636 193 
Q 2250 -91 1575 -91 
Q 1294 -91 989 -36 
Q 684 19 347 128 
L 347 722 
Q 666 556 975 473 
Q 1284 391 1588 391 
Q 1994 391 2212 530 
Q 2431 669 2431 922 
Q 2431 1156 2273 1281 
Q 2116 1406 1581 1522 
L 1381 1569 
Q 847 1681 609 1914 
Q 372 2147 372 2553 
Q 372 3047 722 3315 
Q 1072 3584 1716 3584 
Q 2034 3584 2315 3537 
Q 2597 3491 2834 3397 
z
" transform="scale(0.015625)"/>
       <path id="DejaVuSans-29" d="M 513 4856 
L 1013 4856 
Q 1481 4119 1714 3412 
Q 1947 2706 1947 2009 
Q 1947 1309 1714 600 
Q 1481 -109 1013 -844 
L 513 -844 
Q 928 -128 1133 580 
Q 1338 1288 1338 2009 
Q 1338 2731 1133 3434 
Q 928 4138 513 4856 
z
" transform="scale(0.015625)"/>
      </defs>
      <use xlink:href="#DejaVuSans-54"/>
      <use xlink:href="#DejaVuSans-69" transform="translate(57.958984 0)"/>
      <use xlink:href="#DejaVuSans-6d" transform="translate(85.742188 0)"/>
      <use xlink:href="#DejaVuSans-65" transform="translate(183.154297 0)"/>
      <use xlink:href="#DejaVuSans-20" transform="translate(244.677734 0)"/>
      <use xlink:href="#DejaVuSans-28" transform="translate(276.464844 0)"/>
      <use xlink:href="#DejaVuSans-6d" transform="translate(315.478516 0)"/>
      <use xlink:href="#DejaVuSans-73" transform="translate(412.890625 0)"/>
      <use xlink:href="#DejaVuSans-29" transform="translate(464.990234 0)"/>
     </g>
    </g>
   </g>
   <g id="LineCollection_1">
    <path d="M 239.4 376.188267 
L 351 376.188267 
" clip-path="url(#p91a6f5b248)" style="fill: none; stroke: #1f77b4; stroke-width: 1.5"/>
   </g>
   <g id="LineCollection_2">
    <path d="M 239.4 67.456029 
L 351 67.456029 
" clip-path="url(#p91a6f5b248)" style="fill: none; stroke: #1f77b4; stroke-width: 1.5"/>
   </g>
   <g id="LineCollection_3">
    <path d="M 239.4 379.776618 
L 351 379.776618 
" clip-path="url(#p91a6f5b248)" style="fill: none; stroke: #1f77b4; stroke-width: 1.5"/>
   </g>
   <g id="LineCollection_4">
    <path d="M 295.2 379.776618 
L 295.2 67.456029 
" clip-path="url(#p91a6f5b248)" style="fill: none; stroke: #1f77b4; stroke-width: 1.5"/>
   </g>
   <g id="patch_3">
    <path d="M 250.56 378.4539 
L 339.84 378.4539 
L 339.84 377.316539 
L 250.56 377.316539 
L 250.56 378.4539 
z
" clip-path="url(#p91a6f5b248)" style="fill: #1f77b4; stroke: #000000; stroke-linejoin: miter"/>
   </g>
   <g id="line2d_10">
    <path d="M 295.2 378.4539 
L 295.2 379.776618 
" clip-path="url(#p91a6f5b248)" style="fill: none; stroke: #000000; stroke-linecap: square"/>
   </g>
   <g id="line2d_11">
    <path d="M 295.2 377.316539 
L 295.2 375.616859 
" clip-path="url(#p91a6f5b248)" style="fill: none; stroke: #000000; stroke-linecap: square"/>
   </g>
   <g id="line2d_12">
    <path d="M 272.88 379.776618 
L 317.52 379.776618 
" clip-path="url(#p91a6f5b248)" style="fill: none; stroke: #000000; stroke-linecap: square"/>
   </g>
   <g id="line2d_13">
    <path d="M 272.88 375.616859 
L 317.52 375.616859 
" clip-path="url(#p91a6f5b248)" style="fill: none; stroke: #000000; stroke-linecap: square"/>
   </g>
   <g id="line2d_14">
    <defs>
     <path id="m1b8a5ffae6" d="M 0 3 
C 0.795609 3 1.55874 2.683901 2.12132 2.12132 
C 2.683901 1.55874 3 0.795609 3 0 
C 3 -0.795609 2.683901 -1.55874 2.12132 -2.12132 
C 1.55874 -2.683901 0.795609 -3 0 -3 
C -0.795609 -3 -1.55874 -2.683901 -2.12132 -2.12132 
C -2.683901 -1.55874 -3 -0.795609 -3 0 
C -3 0.795609 -2.683901 1.55874 -2.12132 2.12132 
C -1.55874 2.683901 -0.795609 3 0 3 
z
" style="stroke: #000000"/>
    </defs>
    <g clip-path="url(#p91a6f5b248)">
     <use xlink:href="#m1b8a5ffae6" x="295.2" y="122.643209" style="fill-opacity: 0; stroke: #000000"/>
     <use xlink:href="#m1b8a5ffae6" x="295.2" y="341.722864" style="fill-opacity: 0; stroke: #000000"/>
     <use xlink:href="#m1b8a5ffae6" x="295.2" y="375.513518" style="fill-opacity: 0; stroke: #000000"/>
     <use xlink:href="#m1b8a5ffae6" x="295.2" y="374.62999" style="fill-opacity: 0; stroke: #000000"/>
     <use xlink:href="#m1b8a5ffae6" x="295.2" y="375.303476" style="fill-opacity: 0; stroke: #000000"/>
     <use xlink:href="#m1b8a5ffae6" x="295.2" y="366.102689" style="fill-opacity: 0; stroke: #000000"/>
     <use xlink:href="#m1b8a5ffae6" x="295.2" y="375.449494" style="fill-opacity: 0; stroke: #000000"/>
     <use xlink:href="#m1b8a5ffae6" x="295.2" y="371.061961" style="fill-opacity: 0; stroke: #000000"/>
     <use xlink:href="#m1b8a5ffae6" x="295.2" y="370.813053" style="fill-opacity: 0; stroke: #000000"/>
     <use xlink:href="#m1b8a5ffae6" x="295.2" y="126.197809" style="fill-opacity: 0; stroke: #000000"/>
     <use xlink:href="#m1b8a5ffae6" x="295.2" y="340.900485" style="fill-opacity: 0; stroke: #000000"/>
     <use xlink:href="#m1b8a5ffae6" x="295.2" y="374.375252" style="fill-opacity: 0; stroke: #000000"/>
     <use xlink:href="#m1b8a5ffae6" x="295.2" y="375.259456" style="fill-opacity: 0; stroke: #000000"/>
     <use xlink:href="#m1b8a5ffae6" x="295.2" y="375.078166" style="fill-opacity: 0; stroke: #000000"/>
     <use xlink:href="#m1b8a5ffae6" x="295.2" y="375.1359" style="fill-opacity: 0; stroke: #000000"/>
     <use xlink:href="#m1b8a5ffae6" x="295.2" y="375.272485" style="fill-opacity: 0; stroke: #000000"/>
     <use xlink:href="#m1b8a5ffae6" x="295.2" y="374.758722" style="fill-opacity: 0; stroke: #000000"/>
     <use xlink:href="#m1b8a5ffae6" x="295.2" y="374.26384" style="fill-opacity: 0; stroke: #000000"/>
     <use xlink:href="#m1b8a5ffae6" x="295.2" y="370.45791" style="fill-opacity: 0; stroke: #000000"/>
     <use xlink:href="#m1b8a5ffae6" x="295.2" y="373.850042" style="fill-opacity: 0; stroke: #000000"/>
     <use xlink:href="#m1b8a5ffae6" x="295.2" y="375.53218" style="fill-opacity: 0; stroke: #000000"/>
     <use xlink:href="#m1b8a5ffae6" x="295.2" y="372.369633" style="fill-opacity: 0; stroke: #000000"/>
     <use xlink:href="#m1b8a5ffae6" x="295.2" y="134.652195" style="fill-opacity: 0; stroke: #000000"/>
     <use xlink:href="#m1b8a5ffae6" x="295.2" y="343.565876" style="fill-opacity: 0; stroke: #000000"/>
     <use xlink:href="#m1b8a5ffae6" x="295.2" y="375.482073" style="fill-opacity: 0; stroke: #000000"/>
     <use xlink:href="#m1b8a5ffae6" x="295.2" y="374.260679" style="fill-opacity: 0; stroke: #000000"/>
     <use xlink:href="#m1b8a5ffae6" x="295.2" y="370.802046" style="fill-opacity: 0; stroke: #000000"/>
     <use xlink:href="#m1b8a5ffae6" x="295.2" y="374.183851" style="fill-opacity: 0; stroke: #000000"/>
     <use xlink:href="#m1b8a5ffae6" x="295.2" y="372.60662" style="fill-opacity: 0; stroke: #000000"/>
     <use xlink:href="#m1b8a5ffae6" x="295.2" y="369.108673" style="fill-opacity: 0; stroke: #000000"/>
     <use xlink:href="#m1b8a5ffae6" x="295.2" y="374.066137" style="fill-opacity: 0; stroke: #000000"/>
     <use xlink:href="#m1b8a5ffae6" x="295.2" y="372.360857" style="fill-opacity: 0; stroke: #000000"/>
     <use xlink:href="#m1b8a5ffae6" x="295.2" y="114.79831" style="fill-opacity: 0; stroke: #000000"/>
     <use xlink:href="#m1b8a5ffae6" x="295.2" y="340.493444" style="fill-opacity: 0; stroke: #000000"/>
     <use xlink:href="#m1b8a5ffae6" x="295.2" y="374.416365" style="fill-opacity: 0; stroke: #000000"/>
     <use xlink:href="#m1b8a5ffae6" x="295.2" y="372.719401" style="fill-opacity: 0; stroke: #000000"/>
     <use xlink:href="#m1b8a5ffae6" x="295.2" y="373.489932" style="fill-opacity: 0; stroke: #000000"/>
     <use xlink:href="#m1b8a5ffae6" x="295.2" y="375.566772" style="fill-opacity: 0; stroke: #000000"/>
     <use xlink:href="#m1b8a5ffae6" x="295.2" y="372.248319" style="fill-opacity: 0; stroke: #000000"/>
     <use xlink:href="#m1b8a5ffae6" x="295.2" y="370.514961" style="fill-opacity: 0; stroke: #000000"/>
     <use xlink:href="#m1b8a5ffae6" x="295.2" y="371.637284" style="fill-opacity: 0; stroke: #000000"/>
     <use xlink:href="#m1b8a5ffae6" x="295.2" y="120.361128" style="fill-opacity: 0; stroke: #000000"/>
     <use xlink:href="#m1b8a5ffae6" x="295.2" y="342.216911" style="fill-opacity: 0; stroke: #000000"/>
     <use xlink:href="#m1b8a5ffae6" x="295.2" y="374.78276" style="fill-opacity: 0; stroke: #000000"/>
     <use xlink:href="#m1b8a5ffae6" x="295.2" y="375.238565" style="fill-opacity: 0; stroke: #000000"/>
     <use xlink:href="#m1b8a5ffae6" x="295.2" y="375.558458" style="fill-opacity: 0; stroke: #000000"/>
     <use xlink:href="#m1b8a5ffae6" x="295.2" y="374.478816" style="fill-opacity: 0; stroke: #000000"/>
     <use xlink:href="#m1b8a5ffae6" x="295.2" y="372.346714" style="fill-opacity: 0; stroke: #000000"/>
     <use xlink:href="#m1b8a5ffae6" x="295.2" y="375.539813" style="fill-opacity: 0; stroke: #000000"/>
     <use xlink:href="#m1b8a5ffae6" x="295.2" y="375.071656" style="fill-opacity: 0; stroke: #000000"/>
     <use xlink:href="#m1b8a5ffae6" x="295.2" y="123.883744" style="fill-opacity: 0; stroke: #000000"/>
     <use xlink:href="#m1b8a5ffae6" x="295.2" y="341.481715" style="fill-opacity: 0; stroke: #000000"/>
     <use xlink:href="#m1b8a5ffae6" x="295.2" y="375.034876" style="fill-opacity: 0; stroke: #000000"/>
     <use xlink:href="#m1b8a5ffae6" x="295.2" y="375.103393" style="fill-opacity: 0; stroke: #000000"/>
     <use xlink:href="#m1b8a5ffae6" x="295.2" y="375.438783" style="fill-opacity: 0; stroke: #000000"/>
     <use xlink:href="#m1b8a5ffae6" x="295.2" y="372.545827" style="fill-opacity: 0; stroke: #000000"/>
     <use xlink:href="#m1b8a5ffae6" x="295.2" y="375.160003" style="fill-opacity: 0; stroke: #000000"/>
     <use xlink:href="#m1b8a5ffae6" x="295.2" y="374.463087" style="fill-opacity: 0; stroke: #000000"/>
     <use xlink:href="#m1b8a5ffae6" x="295.2" y="373.646279" style="fill-opacity: 0; stroke: #000000"/>
     <use xlink:href="#m1b8a5ffae6" x="295.2" y="373.461172" style="fill-opacity: 0; stroke: #000000"/>
     <use xlink:href="#m1b8a5ffae6" x="295.2" y="111.820372" style="fill-opacity: 0; stroke: #000000"/>
     <use xlink:href="#m1b8a5ffae6" x="295.2" y="342.319127" style="fill-opacity: 0; stroke: #000000"/>
     <use xlink:href="#m1b8a5ffae6" x="295.2" y="372.928544" style="fill-opacity: 0; stroke: #000000"/>
     <use xlink:href="#m1b8a5ffae6" x="295.2" y="373.552156" style="fill-opacity: 0; stroke: #000000"/>
     <use xlink:href="#m1b8a5ffae6" x="295.2" y="372.578543" style="fill-opacity: 0; stroke: #000000"/>
     <use xlink:href="#m1b8a5ffae6" x="295.2" y="373.166213" style="fill-opacity: 0; stroke: #000000"/>
     <use xlink:href="#m1b8a5ffae6" x="295.2" y="371.044893" style="fill-opacity: 0; stroke: #000000"/>
     <use xlink:href="#m1b8a5ffae6" x="295.2" y="86.393078" style="fill-opacity: 0; stroke: #000000"/>
     <use xlink:href="#m1b8a5ffae6" x="295.2" y="335.060183" style="fill-opacity: 0; stroke: #000000"/>
     <use xlink:href="#m1b8a5ffae6" x="295.2" y="375.247328" style="fill-opacity: 0; stroke: #000000"/>
     <use xlink:href="#m1b8a5ffae6" x="295.2" y="374.557668" style="fill-opacity: 0; stroke: #000000"/>
     <use xlink:href="#m1b8a5ffae6" x="295.2" y="374.514985" style="fill-opacity: 0; stroke: #000000"/>
     <use xlink:href="#m1b8a5ffae6" x="295.2" y="374.712222" style="fill-opacity: 0; stroke: #000000"/>
     <use xlink:href="#m1b8a5ffae6" x="295.2" y="374.77984" style="fill-opacity: 0; stroke: #000000"/>
     <use xlink:href="#m1b8a5ffae6" x="295.2" y="375.026277" style="fill-opacity: 0; stroke: #000000"/>
     <use xlink:href="#m1b8a5ffae6" x="295.2" y="373.647631" style="fill-opacity: 0; stroke: #000000"/>
     <use xlink:href="#m1b8a5ffae6" x="295.2" y="375.235645" style="fill-opacity: 0; stroke: #000000"/>
     <use xlink:href="#m1b8a5ffae6" x="295.2" y="127.589978" style="fill-opacity: 0; stroke: #000000"/>
     <use xlink:href="#m1b8a5ffae6" x="295.2" y="339.767869" style="fill-opacity: 0; stroke: #000000"/>
     <use xlink:href="#m1b8a5ffae6" x="295.2" y="374.667976" style="fill-opacity: 0; stroke: #000000"/>
     <use xlink:href="#m1b8a5ffae6" x="295.2" y="374.67651" style="fill-opacity: 0; stroke: #000000"/>
     <use xlink:href="#m1b8a5ffae6" x="295.2" y="375.350445" style="fill-opacity: 0; stroke: #000000"/>
     <use xlink:href="#m1b8a5ffae6" x="295.2" y="371.830713" style="fill-opacity: 0; stroke: #000000"/>
     <use xlink:href="#m1b8a5ffae6" x="295.2" y="370.37479" style="fill-opacity: 0; stroke: #000000"/>
     <use xlink:href="#m1b8a5ffae6" x="295.2" y="375.515559" style="fill-opacity: 0; stroke: #000000"/>
     <use xlink:href="#m1b8a5ffae6" x="295.2" y="374.085921" style="fill-opacity: 0; stroke: #000000"/>
     <use xlink:href="#m1b8a5ffae6" x="295.2" y="375.482985" style="fill-opacity: 0; stroke: #000000"/>
     <use xlink:href="#m1b8a5ffae6" x="295.2" y="370.380858" style="fill-opacity: 0; stroke: #000000"/>
     <use xlink:href="#m1b8a5ffae6" x="295.2" y="373.791403" style="fill-opacity: 0; stroke: #000000"/>
     <use xlink:href="#m1b8a5ffae6" x="295.2" y="115.959933" style="fill-opacity: 0; stroke: #000000"/>
     <use xlink:href="#m1b8a5ffae6" x="295.2" y="342.132416" style="fill-opacity: 0; stroke: #000000"/>
     <use xlink:href="#m1b8a5ffae6" x="295.2" y="374.873958" style="fill-opacity: 0; stroke: #000000"/>
     <use xlink:href="#m1b8a5ffae6" x="295.2" y="374.242706" style="fill-opacity: 0; stroke: #000000"/>
     <use xlink:href="#m1b8a5ffae6" x="295.2" y="373.237877" style="fill-opacity: 0; stroke: #000000"/>
     <use xlink:href="#m1b8a5ffae6" x="295.2" y="373.091634" style="fill-opacity: 0; stroke: #000000"/>
     <use xlink:href="#m1b8a5ffae6" x="295.2" y="107.91666" style="fill-opacity: 0; stroke: #000000"/>
     <use xlink:href="#m1b8a5ffae6" x="295.2" y="341.812092" style="fill-opacity: 0; stroke: #000000"/>
     <use xlink:href="#m1b8a5ffae6" x="295.2" y="375.377842" style="fill-opacity: 0; stroke: #000000"/>
     <use xlink:href="#m1b8a5ffae6" x="295.2" y="375.147356" style="fill-opacity: 0; stroke: #000000"/>
     <use xlink:href="#m1b8a5ffae6" x="295.2" y="375.38638" style="fill-opacity: 0; stroke: #000000"/>
     <use xlink:href="#m1b8a5ffae6" x="295.2" y="375.59148" style="fill-opacity: 0; stroke: #000000"/>
     <use xlink:href="#m1b8a5ffae6" x="295.2" y="373.531488" style="fill-opacity: 0; stroke: #000000"/>
     <use xlink:href="#m1b8a5ffae6" x="295.2" y="374.258437" style="fill-opacity: 0; stroke: #000000"/>
     <use xlink:href="#m1b8a5ffae6" x="295.2" y="119.269006" style="fill-opacity: 0; stroke: #000000"/>
     <use xlink:href="#m1b8a5ffae6" x="295.2" y="330.866396" style="fill-opacity: 0; stroke: #000000"/>
     <use xlink:href="#m1b8a5ffae6" x="295.2" y="375.056846" style="fill-opacity: 0; stroke: #000000"/>
     <use xlink:href="#m1b8a5ffae6" x="295.2" y="374.294179" style="fill-opacity: 0; stroke: #000000"/>
     <use xlink:href="#m1b8a5ffae6" x="295.2" y="374.494339" style="fill-opacity: 0; stroke: #000000"/>
     <use xlink:href="#m1b8a5ffae6" x="295.2" y="375.266216" style="fill-opacity: 0; stroke: #000000"/>
     <use xlink:href="#m1b8a5ffae6" x="295.2" y="375.286882" style="fill-opacity: 0; stroke: #000000"/>
     <use xlink:href="#m1b8a5ffae6" x="295.2" y="369.594836" style="fill-opacity: 0; stroke: #000000"/>
     <use xlink:href="#m1b8a5ffae6" x="295.2" y="375.098174" style="fill-opacity: 0; stroke: #000000"/>
     <use xlink:href="#m1b8a5ffae6" x="295.2" y="375.585877" style="fill-opacity: 0; stroke: #000000"/>
     <use xlink:href="#m1b8a5ffae6" x="295.2" y="369.160596" style="fill-opacity: 0; stroke: #000000"/>
     <use xlink:href="#m1b8a5ffae6" x="295.2" y="375.176125" style="fill-opacity: 0; stroke: #000000"/>
     <use xlink:href="#m1b8a5ffae6" x="295.2" y="374.850841" style="fill-opacity: 0; stroke: #000000"/>
     <use xlink:href="#m1b8a5ffae6" x="295.2" y="375.474903" style="fill-opacity: 0; stroke: #000000"/>
     <use xlink:href="#m1b8a5ffae6" x="295.2" y="370.855089" style="fill-opacity: 0; stroke: #000000"/>
     <use xlink:href="#m1b8a5ffae6" x="295.2" y="123.445277" style="fill-opacity: 0; stroke: #000000"/>
     <use xlink:href="#m1b8a5ffae6" x="295.2" y="340.259768" style="fill-opacity: 0; stroke: #000000"/>
     <use xlink:href="#m1b8a5ffae6" x="295.2" y="374.576978" style="fill-opacity: 0; stroke: #000000"/>
     <use xlink:href="#m1b8a5ffae6" x="295.2" y="375.196325" style="fill-opacity: 0; stroke: #000000"/>
     <use xlink:href="#m1b8a5ffae6" x="295.2" y="374.422646" style="fill-opacity: 0; stroke: #000000"/>
     <use xlink:href="#m1b8a5ffae6" x="295.2" y="375.041768" style="fill-opacity: 0; stroke: #000000"/>
     <use xlink:href="#m1b8a5ffae6" x="295.2" y="375.265088" style="fill-opacity: 0; stroke: #000000"/>
     <use xlink:href="#m1b8a5ffae6" x="295.2" y="371.07098" style="fill-opacity: 0; stroke: #000000"/>
     <use xlink:href="#m1b8a5ffae6" x="295.2" y="122.105794" style="fill-opacity: 0; stroke: #000000"/>
     <use xlink:href="#m1b8a5ffae6" x="295.2" y="341.401387" style="fill-opacity: 0; stroke: #000000"/>
     <use xlink:href="#m1b8a5ffae6" x="295.2" y="374.96718" style="fill-opacity: 0; stroke: #000000"/>
     <use xlink:href="#m1b8a5ffae6" x="295.2" y="375.218108" style="fill-opacity: 0; stroke: #000000"/>
     <use xlink:href="#m1b8a5ffae6" x="295.2" y="374.257076" style="fill-opacity: 0; stroke: #000000"/>
     <use xlink:href="#m1b8a5ffae6" x="295.2" y="368.152121" style="fill-opacity: 0; stroke: #000000"/>
     <use xlink:href="#m1b8a5ffae6" x="295.2" y="375.440967" style="fill-opacity: 0; stroke: #000000"/>
     <use xlink:href="#m1b8a5ffae6" x="295.2" y="375.081309" style="fill-opacity: 0; stroke: #000000"/>
     <use xlink:href="#m1b8a5ffae6" x="295.2" y="371.783749" style="fill-opacity: 0; stroke: #000000"/>
     <use xlink:href="#m1b8a5ffae6" x="295.2" y="375.329992" style="fill-opacity: 0; stroke: #000000"/>
     <use xlink:href="#m1b8a5ffae6" x="295.2" y="67.456029" style="fill-opacity: 0; stroke: #000000"/>
     <use xlink:href="#m1b8a5ffae6" x="295.2" y="343.263062" style="fill-opacity: 0; stroke: #000000"/>
     <use xlink:href="#m1b8a5ffae6" x="295.2" y="373.490822" style="fill-opacity: 0; stroke: #000000"/>
     <use xlink:href="#m1b8a5ffae6" x="295.2" y="375.374021" style="fill-opacity: 0; stroke: #000000"/>
     <use xlink:href="#m1b8a5ffae6" x="295.2" y="375.091195" style="fill-opacity: 0; stroke: #000000"/>
     <use xlink:href="#m1b8a5ffae6" x="295.2" y="373.197213" style="fill-opacity: 0; stroke: #000000"/>
     <use xlink:href="#m1b8a5ffae6" x="295.2" y="373.361878" style="fill-opacity: 0; stroke: #000000"/>
     <use xlink:href="#m1b8a5ffae6" x="295.2" y="370.056454" style="fill-opacity: 0; stroke: #000000"/>
     <use xlink:href="#m1b8a5ffae6" x="295.2" y="374.858479" style="fill-opacity: 0; stroke: #000000"/>
     <use xlink:href="#m1b8a5ffae6" x="295.2" y="372.285399" style="fill-opacity: 0; stroke: #000000"/>
     <use xlink:href="#m1b8a5ffae6" x="295.2" y="375.53668" style="fill-opacity: 0; stroke: #000000"/>
     <use xlink:href="#m1b8a5ffae6" x="295.2" y="118.161608" style="fill-opacity: 0; stroke: #000000"/>
     <use xlink:href="#m1b8a5ffae6" x="295.2" y="342.072944" style="fill-opacity: 0; stroke: #000000"/>
     <use xlink:href="#m1b8a5ffae6" x="295.2" y="375.265737" style="fill-opacity: 0; stroke: #000000"/>
     <use xlink:href="#m1b8a5ffae6" x="295.2" y="375.303256" style="fill-opacity: 0; stroke: #000000"/>
     <use xlink:href="#m1b8a5ffae6" x="295.2" y="373.155649" style="fill-opacity: 0; stroke: #000000"/>
     <use xlink:href="#m1b8a5ffae6" x="295.2" y="375.377613" style="fill-opacity: 0; stroke: #000000"/>
     <use xlink:href="#m1b8a5ffae6" x="295.2" y="375.305727" style="fill-opacity: 0; stroke: #000000"/>
     <use xlink:href="#m1b8a5ffae6" x="295.2" y="375.010991" style="fill-opacity: 0; stroke: #000000"/>
     <use xlink:href="#m1b8a5ffae6" x="295.2" y="375.305725" style="fill-opacity: 0; stroke: #000000"/>
     <use xlink:href="#m1b8a5ffae6" x="295.2" y="374.66324" style="fill-opacity: 0; stroke: #000000"/>
     <use xlink:href="#m1b8a5ffae6" x="295.2" y="375.310217" style="fill-opacity: 0; stroke: #000000"/>
     <use xlink:href="#m1b8a5ffae6" x="295.2" y="371.478223" style="fill-opacity: 0; stroke: #000000"/>
     <use xlink:href="#m1b8a5ffae6" x="295.2" y="372.460598" style="fill-opacity: 0; stroke: #000000"/>
     <use xlink:href="#m1b8a5ffae6" x="295.2" y="375.608545" style="fill-opacity: 0; stroke: #000000"/>
     <use xlink:href="#m1b8a5ffae6" x="295.2" y="372.434762" style="fill-opacity: 0; stroke: #000000"/>
     <use xlink:href="#m1b8a5ffae6" x="295.2" y="140.727736" style="fill-opacity: 0; stroke: #000000"/>
     <use xlink:href="#m1b8a5ffae6" x="295.2" y="343.238572" style="fill-opacity: 0; stroke: #000000"/>
     <use xlink:href="#m1b8a5ffae6" x="295.2" y="374.457916" style="fill-opacity: 0; stroke: #000000"/>
     <use xlink:href="#m1b8a5ffae6" x="295.2" y="375.281915" style="fill-opacity: 0; stroke: #000000"/>
     <use xlink:href="#m1b8a5ffae6" x="295.2" y="365.706876" style="fill-opacity: 0; stroke: #000000"/>
     <use xlink:href="#m1b8a5ffae6" x="295.2" y="373.763539" style="fill-opacity: 0; stroke: #000000"/>
     <use xlink:href="#m1b8a5ffae6" x="295.2" y="375.565417" style="fill-opacity: 0; stroke: #000000"/>
     <use xlink:href="#m1b8a5ffae6" x="295.2" y="369.963897" style="fill-opacity: 0; stroke: #000000"/>
     <use xlink:href="#m1b8a5ffae6" x="295.2" y="369.740824" style="fill-opacity: 0; stroke: #000000"/>
     <use xlink:href="#m1b8a5ffae6" x="295.2" y="374.271686" style="fill-opacity: 0; stroke: #000000"/>
     <use xlink:href="#m1b8a5ffae6" x="295.2" y="366.720023" style="fill-opacity: 0; stroke: #000000"/>
     <use xlink:href="#m1b8a5ffae6" x="295.2" y="130.959197" style="fill-opacity: 0; stroke: #000000"/>
     <use xlink:href="#m1b8a5ffae6" x="295.2" y="344.109879" style="fill-opacity: 0; stroke: #000000"/>
     <use xlink:href="#m1b8a5ffae6" x="295.2" y="375.598468" style="fill-opacity: 0; stroke: #000000"/>
     <use xlink:href="#m1b8a5ffae6" x="295.2" y="374.238925" style="fill-opacity: 0; stroke: #000000"/>
     <use xlink:href="#m1b8a5ffae6" x="295.2" y="368.893292" style="fill-opacity: 0; stroke: #000000"/>
     <use xlink:href="#m1b8a5ffae6" x="295.2" y="374.780541" style="fill-opacity: 0; stroke: #000000"/>
     <use xlink:href="#m1b8a5ffae6" x="295.2" y="369.068965" style="fill-opacity: 0; stroke: #000000"/>
     <use xlink:href="#m1b8a5ffae6" x="295.2" y="375.043374" style="fill-opacity: 0; stroke: #000000"/>
     <use xlink:href="#m1b8a5ffae6" x="295.2" y="375.172996" style="fill-opacity: 0; stroke: #000000"/>
     <use xlink:href="#m1b8a5ffae6" x="295.2" y="133.589275" style="fill-opacity: 0; stroke: #000000"/>
     <use xlink:href="#m1b8a5ffae6" x="295.2" y="328.436914" style="fill-opacity: 0; stroke: #000000"/>
     <use xlink:href="#m1b8a5ffae6" x="295.2" y="373.734781" style="fill-opacity: 0; stroke: #000000"/>
     <use xlink:href="#m1b8a5ffae6" x="295.2" y="375.185762" style="fill-opacity: 0; stroke: #000000"/>
     <use xlink:href="#m1b8a5ffae6" x="295.2" y="374.391195" style="fill-opacity: 0; stroke: #000000"/>
     <use xlink:href="#m1b8a5ffae6" x="295.2" y="374.910316" style="fill-opacity: 0; stroke: #000000"/>
     <use xlink:href="#m1b8a5ffae6" x="295.2" y="375.084191" style="fill-opacity: 0; stroke: #000000"/>
     <use xlink:href="#m1b8a5ffae6" x="295.2" y="369.354154" style="fill-opacity: 0; stroke: #000000"/>
     <use xlink:href="#m1b8a5ffae6" x="295.2" y="127.78213" style="fill-opacity: 0; stroke: #000000"/>
     <use xlink:href="#m1b8a5ffae6" x="295.2" y="341.173936" style="fill-opacity: 0; stroke: #000000"/>
     <use xlink:href="#m1b8a5ffae6" x="295.2" y="375.415596" style="fill-opacity: 0; stroke: #000000"/>
     <use xlink:href="#m1b8a5ffae6" x="295.2" y="373.797706" style="fill-opacity: 0; stroke: #000000"/>
     <use xlink:href="#m1b8a5ffae6" x="295.2" y="375.45356" style="fill-opacity: 0; stroke: #000000"/>
     <use xlink:href="#m1b8a5ffae6" x="295.2" y="375.188703" style="fill-opacity: 0; stroke: #000000"/>
     <use xlink:href="#m1b8a5ffae6" x="295.2" y="373.830505" style="fill-opacity: 0; stroke: #000000"/>
     <use xlink:href="#m1b8a5ffae6" x="295.2" y="374.410761" style="fill-opacity: 0; stroke: #000000"/>
     <use xlink:href="#m1b8a5ffae6" x="295.2" y="373.984386" style="fill-opacity: 0; stroke: #000000"/>
     <use xlink:href="#m1b8a5ffae6" x="295.2" y="370.304259" style="fill-opacity: 0; stroke: #000000"/>
     <use xlink:href="#m1b8a5ffae6" x="295.2" y="373.917666" style="fill-opacity: 0; stroke: #000000"/>
     <use xlink:href="#m1b8a5ffae6" x="295.2" y="375.160848" style="fill-opacity: 0; stroke: #000000"/>
     <use xlink:href="#m1b8a5ffae6" x="295.2" y="375.372671" style="fill-opacity: 0; stroke: #000000"/>
     <use xlink:href="#m1b8a5ffae6" x="295.2" y="375.025145" style="fill-opacity: 0; stroke: #000000"/>
     <use xlink:href="#m1b8a5ffae6" x="295.2" y="369.595478" style="fill-opacity: 0; stroke: #000000"/>
     <use xlink:href="#m1b8a5ffae6" x="295.2" y="372.547536" style="fill-opacity: 0; stroke: #000000"/>
     <use xlink:href="#m1b8a5ffae6" x="295.2" y="374.335036" style="fill-opacity: 0; stroke: #000000"/>
    </g>
   </g>
   <g id="line2d_15">
    <path d="M 250.56 377.908353 
L 339.84 377.908353 
" clip-path="url(#p91a6f5b248)" style="fill: none; stroke: #ff7f0e"/>
   </g>
   <g id="patch_4">
    <path d="M 72 384.48 
L 72 51.84 
" style="fill: none; stroke: #000000; stroke-width: 0.8; stroke-linejoin: miter; stroke-linecap: square"/>
   </g>
   <g id="patch_5">
    <path d="M 518.4 384.48 
L 518.4 51.84 
" style="fill: none; stroke: #000000; stroke-width: 0.8; stroke-linejoin: miter; stroke-linecap: square"/>
   </g>
   <g id="patch_6">
    <path d="M 72 384.48 
L 518.4 384.48 
" style="fill: none; stroke: #000000; stroke-width: 0.8; stroke-linejoin: miter; stroke-linecap: square"/>
   </g>
   <g id="patch_7">
    <path d="M 72 51.84 
L 518.4 51.84 
" style="fill: none; stroke: #000000; stroke-width: 0.8; stroke-linejoin: miter; stroke-linecap: square"/>
   </g>
   <g id="text_11">
    <!-- Register Faultload -->
    <g transform="translate(241.364062 45.84) scale(0.12 -0.12)">
     <defs>
      <path id="DejaVuSans-52" d="M 2841 2188 
Q 3044 2119 3236 1894 
Q 3428 1669 3622 1275 
L 4263 0 
L 3584 0 
L 2988 1197 
Q 2756 1666 2539 1819 
Q 2322 1972 1947 1972 
L 1259 1972 
L 1259 0 
L 628 0 
L 628 4666 
L 2053 4666 
Q 2853 4666 3247 4331 
Q 3641 3997 3641 3322 
Q 3641 2881 3436 2590 
Q 3231 2300 2841 2188 
z
M 1259 4147 
L 1259 2491 
L 2053 2491 
Q 2509 2491 2742 2702 
Q 2975 2913 2975 3322 
Q 2975 3731 2742 3939 
Q 2509 4147 2053 4147 
L 1259 4147 
z
" transform="scale(0.015625)"/>
      <path id="DejaVuSans-67" d="M 2906 1791 
Q 2906 2416 2648 2759 
Q 2391 3103 1925 3103 
Q 1463 3103 1205 2759 
Q 947 2416 947 1791 
Q 947 1169 1205 825 
Q 1463 481 1925 481 
Q 2391 481 2648 825 
Q 2906 1169 2906 1791 
z
M 3481 434 
Q 3481 -459 3084 -895 
Q 2688 -1331 1869 -1331 
Q 1566 -1331 1297 -1286 
Q 1028 -1241 775 -1147 
L 775 -588 
Q 1028 -725 1275 -790 
Q 1522 -856 1778 -856 
Q 2344 -856 2625 -561 
Q 2906 -266 2906 331 
L 2906 616 
Q 2728 306 2450 153 
Q 2172 0 1784 0 
Q 1141 0 747 490 
Q 353 981 353 1791 
Q 353 2603 747 3093 
Q 1141 3584 1784 3584 
Q 2172 3584 2450 3431 
Q 2728 3278 2906 2969 
L 2906 3500 
L 3481 3500 
L 3481 434 
z
" transform="scale(0.015625)"/>
      <path id="DejaVuSans-74" d="M 1172 4494 
L 1172 3500 
L 2356 3500 
L 2356 3053 
L 1172 3053 
L 1172 1153 
Q 1172 725 1289 603 
Q 1406 481 1766 481 
L 2356 481 
L 2356 0 
L 1766 0 
Q 1100 0 847 248 
Q 594 497 594 1153 
L 594 3053 
L 172 3053 
L 172 3500 
L 594 3500 
L 594 4494 
L 1172 4494 
z
" transform="scale(0.015625)"/>
      <path id="DejaVuSans-72" d="M 2631 2963 
Q 2534 3019 2420 3045 
Q 2306 3072 2169 3072 
Q 1681 3072 1420 2755 
Q 1159 2438 1159 1844 
L 1159 0 
L 581 0 
L 581 3500 
L 1159 3500 
L 1159 2956 
Q 1341 3275 1631 3429 
Q 1922 3584 2338 3584 
Q 2397 3584 2469 3576 
Q 2541 3569 2628 3553 
L 2631 2963 
z
" transform="scale(0.015625)"/>
      <path id="DejaVuSans-46" d="M 628 4666 
L 3309 4666 
L 3309 4134 
L 1259 4134 
L 1259 2759 
L 3109 2759 
L 3109 2228 
L 1259 2228 
L 1259 0 
L 628 0 
L 628 4666 
z
" transform="scale(0.015625)"/>
      <path id="DejaVuSans-61" d="M 2194 1759 
Q 1497 1759 1228 1600 
Q 959 1441 959 1056 
Q 959 750 1161 570 
Q 1363 391 1709 391 
Q 2188 391 2477 730 
Q 2766 1069 2766 1631 
L 2766 1759 
L 2194 1759 
z
M 3341 1997 
L 3341 0 
L 2766 0 
L 2766 531 
Q 2569 213 2275 61 
Q 1981 -91 1556 -91 
Q 1019 -91 701 211 
Q 384 513 384 1019 
Q 384 1609 779 1909 
Q 1175 2209 1959 2209 
L 2766 2209 
L 2766 2266 
Q 2766 2663 2505 2880 
Q 2244 3097 1772 3097 
Q 1472 3097 1187 3025 
Q 903 2953 641 2809 
L 641 3341 
Q 956 3463 1253 3523 
Q 1550 3584 1831 3584 
Q 2591 3584 2966 3190 
Q 3341 2797 3341 1997 
z
" transform="scale(0.015625)"/>
      <path id="DejaVuSans-75" d="M 544 1381 
L 544 3500 
L 1119 3500 
L 1119 1403 
Q 1119 906 1312 657 
Q 1506 409 1894 409 
Q 2359 409 2629 706 
Q 2900 1003 2900 1516 
L 2900 3500 
L 3475 3500 
L 3475 0 
L 2900 0 
L 2900 538 
Q 2691 219 2414 64 
Q 2138 -91 1772 -91 
Q 1169 -91 856 284 
Q 544 659 544 1381 
z
M 1991 3584 
L 1991 3584 
z
" transform="scale(0.015625)"/>
      <path id="DejaVuSans-6c" d="M 603 4863 
L 1178 4863 
L 1178 0 
L 603 0 
L 603 4863 
z
" transform="scale(0.015625)"/>
      <path id="DejaVuSans-6f" d="M 1959 3097 
Q 1497 3097 1228 2736 
Q 959 2375 959 1747 
Q 959 1119 1226 758 
Q 1494 397 1959 397 
Q 2419 397 2687 759 
Q 2956 1122 2956 1747 
Q 2956 2369 2687 2733 
Q 2419 3097 1959 3097 
z
M 1959 3584 
Q 2709 3584 3137 3096 
Q 3566 2609 3566 1747 
Q 3566 888 3137 398 
Q 2709 -91 1959 -91 
Q 1206 -91 779 398 
Q 353 888 353 1747 
Q 353 2609 779 3096 
Q 1206 3584 1959 3584 
z
" transform="scale(0.015625)"/>
      <path id="DejaVuSans-64" d="M 2906 2969 
L 2906 4863 
L 3481 4863 
L 3481 0 
L 2906 0 
L 2906 525 
Q 2725 213 2448 61 
Q 2172 -91 1784 -91 
Q 1150 -91 751 415 
Q 353 922 353 1747 
Q 353 2572 751 3078 
Q 1150 3584 1784 3584 
Q 2172 3584 2448 3432 
Q 2725 3281 2906 2969 
z
M 947 1747 
Q 947 1113 1208 752 
Q 1469 391 1925 391 
Q 2381 391 2643 752 
Q 2906 1113 2906 1747 
Q 2906 2381 2643 2742 
Q 2381 3103 1925 3103 
Q 1469 3103 1208 2742 
Q 947 2381 947 1747 
z
" transform="scale(0.015625)"/>
     </defs>
     <use xlink:href="#DejaVuSans-52"/>
     <use xlink:href="#DejaVuSans-65" transform="translate(64.982422 0)"/>
     <use xlink:href="#DejaVuSans-67" transform="translate(126.505859 0)"/>
     <use xlink:href="#DejaVuSans-69" transform="translate(189.982422 0)"/>
     <use xlink:href="#DejaVuSans-73" transform="translate(217.765625 0)"/>
     <use xlink:href="#DejaVuSans-74" transform="translate(269.865234 0)"/>
     <use xlink:href="#DejaVuSans-65" transform="translate(309.074219 0)"/>
     <use xlink:href="#DejaVuSans-72" transform="translate(370.597656 0)"/>
     <use xlink:href="#DejaVuSans-20" transform="translate(411.710938 0)"/>
     <use xlink:href="#DejaVuSans-46" transform="translate(443.498047 0)"/>
     <use xlink:href="#DejaVuSans-61" transform="translate(491.892578 0)"/>
     <use xlink:href="#DejaVuSans-75" transform="translate(553.171875 0)"/>
     <use xlink:href="#DejaVuSans-6c" transform="translate(616.550781 0)"/>
     <use xlink:href="#DejaVuSans-74" transform="translate(644.333984 0)"/>
     <use xlink:href="#DejaVuSans-6c" transform="translate(683.542969 0)"/>
     <use xlink:href="#DejaVuSans-6f" transform="translate(711.326172 0)"/>
     <use xlink:href="#DejaVuSans-61" transform="translate(772.507812 0)"/>
     <use xlink:href="#DejaVuSans-64" transform="translate(833.787109 0)"/>
    </g>
   </g>
  </g>
 </g>
 <defs>
  <clipPath id="p91a6f5b248">
   <rect x="72" y="51.84" width="446.4" height="332.64"/>
  </clipPath>
 </defs>
</svg>
