<?xml version="1.0" encoding="utf-8" standalone="no"?>
<!DOCTYPE svg PUBLIC "-//W3C//DTD SVG 1.1//EN"
  "http://www.w3.org/Graphics/SVG/1.1/DTD/svg11.dtd">
<svg xmlns:xlink="http://www.w3.org/1999/xlink" width="576pt" height="432pt" viewBox="0 0 576 432" xmlns="http://www.w3.org/2000/svg" version="1.1">
 <metadata>
  <rdf:RDF xmlns:dc="http://purl.org/dc/elements/1.1/" xmlns:cc="http://creativecommons.org/ns#" xmlns:rdf="http://www.w3.org/1999/02/22-rdf-syntax-ns#">
   <cc:Work>
    <dc:type rdf:resource="http://purl.org/dc/dcmitype/StillImage"/>
    <dc:date>2025-06-10T03:16:30.037047</dc:date>
    <dc:format>image/svg+xml</dc:format>
    <dc:creator>
     <cc:Agent>
      <dc:title>Matplotlib v3.10.3, https://matplotlib.org/</dc:title>
     </cc:Agent>
    </dc:creator>
   </cc:Work>
  </rdf:RDF>
 </metadata>
 <defs>
  <style type="text/css">*{stroke-linejoin: round; stroke-linecap: butt}</style>
 </defs>
 <g id="figure_1">
  <g id="patch_1">
   <path d="M 0 432 
L 576 432 
L 576 0 
L 0 0 
z
" style="fill: #ffffff"/>
  </g>
  <g id="axes_1">
   <g id="patch_2">
    <path d="M 72 384.48 
L 518.4 384.48 
L 518.4 51.84 
L 72 51.84 
z
" style="fill: #ffffff"/>
   </g>
   <g id="FillBetweenPolyCollection_1">
    <path d="M 299.306245 340.797198 
L 291.093755 340.797198 
L 289.74638 338.017427 
L 289.169495 335.237656 
L 289.598414 332.457885 
L 290.761179 329.678114 
L 292.091618 326.898343 
L 293.079391 324.118572 
L 293.429728 321.338801 
L 293.007237 318.55903 
L 291.792763 315.779259 
L 289.994453 312.999488 
L 288.16269 310.219717 
L 287.040468 307.439946 
L 287.142715 304.660175 
L 288.41801 301.880404 
L 290.315068 299.100633 
L 292.168841 296.320862 
L 293.55483 293.541091 
L 294.388014 290.76132 
L 294.806 287.981549 
L 294.995671 285.201778 
L 295.082162 282.422007 
L 295.097244 279.642236 
L 294.958944 276.862465 
L 294.372992 274.082694 
L 292.639433 271.302923 
L 288.526528 268.523152 
L 280.553677 265.743381 
L 267.883216 262.963609 
L 251.373604 260.183838 
L 233.785666 257.404067 
L 218.6231 254.624296 
L 208.409035 251.844525 
L 203.761836 249.064754 
L 203.663244 246.284983 
L 206.155356 243.505212 
L 208.872891 240.725441 
L 209.669003 237.94567 
L 207.476722 235.165899 
L 202.718607 232.386128 
L 196.736219 229.606357 
L 190.868854 226.826586 
L 186.156359 224.046815 
L 183.6 221.267044 
L 184.106499 218.487273 
L 187.90462 215.707502 
L 194.241904 212.927731 
L 201.868331 210.14796 
L 209.763834 207.368189 
L 217.459431 204.588418 
L 224.986862 201.808647 
L 232.703496 199.028876 
L 240.988186 196.249105 
L 249.831138 193.469334 
L 258.614213 190.689563 
L 266.379938 187.909792 
L 272.450835 185.130021 
L 276.835142 182.35025 
L 280.04623 179.570479 
L 282.605785 176.790708 
L 284.763197 174.010937 
L 286.574958 171.231166 
L 288.063835 168.451395 
L 289.235849 165.671624 
L 290.044507 162.891853 
L 290.457408 160.112081 
L 290.570754 157.33231 
L 290.611523 154.552539 
L 290.809143 151.772768 
L 291.264193 148.992997 
L 291.912706 146.213226 
L 292.583931 143.433455 
L 293.106239 140.653684 
L 293.408076 137.873913 
L 293.549637 135.094142 
L 293.655863 132.314371 
L 293.810131 129.5346 
L 294.005033 126.754829 
L 294.179498 123.975058 
L 294.286735 121.195287 
L 294.324995 118.415516 
L 294.320154 115.635745 
L 294.302906 112.855974 
L 294.307626 110.076203 
L 294.370413 107.296432 
L 294.507074 104.516661 
L 294.693947 101.73689 
L 294.878143 98.957119 
L 295.008811 96.177348 
L 295.062403 93.397577 
L 295.048643 90.617806 
L 295.002143 87.838035 
L 294.96579 85.058264 
L 294.968747 82.278493 
L 295.010009 79.498722 
L 295.062219 76.718951 
L 295.0945 73.93918 
L 295.095509 71.159409 
L 295.079413 68.379638 
L 295.071805 65.599867 
L 295.328195 65.599867 
L 295.328195 65.599867 
L 295.320587 68.379638 
L 295.304491 71.159409 
L 295.3055 73.93918 
L 295.337781 76.718951 
L 295.389991 79.498722 
L 295.431253 82.278493 
L 295.43421 85.058264 
L 295.397857 87.838035 
L 295.351357 90.617806 
L 295.337597 93.397577 
L 295.391189 96.177348 
L 295.521857 98.957119 
L 295.706053 101.73689 
L 295.892926 104.516661 
L 296.029587 107.296432 
L 296.092374 110.076203 
L 296.097094 112.855974 
L 296.079846 115.635745 
L 296.075005 118.415516 
L 296.113265 121.195287 
L 296.220502 123.975058 
L 296.394967 126.754829 
L 296.589869 129.5346 
L 296.744137 132.314371 
L 296.850363 135.094142 
L 296.991924 137.873913 
L 297.293761 140.653684 
L 297.816069 143.433455 
L 298.487294 146.213226 
L 299.135807 148.992997 
L 299.590857 151.772768 
L 299.788477 154.552539 
L 299.829246 157.33231 
L 299.942592 160.112081 
L 300.355493 162.891853 
L 301.164151 165.671624 
L 302.336165 168.451395 
L 303.825042 171.231166 
L 305.636803 174.010937 
L 307.794215 176.790708 
L 310.35377 179.570479 
L 313.564858 182.35025 
L 317.949165 185.130021 
L 324.020062 187.909792 
L 331.785787 190.689563 
L 340.568862 193.469334 
L 349.411814 196.249105 
L 357.696504 199.028876 
L 365.413138 201.808647 
L 372.940569 204.588418 
L 380.636166 207.368189 
L 388.531669 210.14796 
L 396.158096 212.927731 
L 402.49538 215.707502 
L 406.293501 218.487273 
L 406.8 221.267044 
L 404.243641 224.046815 
L 399.531146 226.826586 
L 393.663781 229.606357 
L 387.681393 232.386128 
L 382.923278 235.165899 
L 380.730997 237.94567 
L 381.527109 240.725441 
L 384.244644 243.505212 
L 386.736756 246.284983 
L 386.638164 249.064754 
L 381.990965 251.844525 
L 371.7769 254.624296 
L 356.614334 257.404067 
L 339.026396 260.183838 
L 322.516784 262.963609 
L 309.846323 265.743381 
L 301.873472 268.523152 
L 297.760567 271.302923 
L 296.027008 274.082694 
L 295.441056 276.862465 
L 295.302756 279.642236 
L 295.317838 282.422007 
L 295.404329 285.201778 
L 295.594 287.981549 
L 296.011986 290.76132 
L 296.84517 293.541091 
L 298.231159 296.320862 
L 300.084932 299.100633 
L 301.98199 301.880404 
L 303.257285 304.660175 
L 303.359532 307.439946 
L 302.23731 310.219717 
L 300.405547 312.999488 
L 298.607237 315.779259 
L 297.392763 318.55903 
L 296.970272 321.338801 
L 297.320609 324.118572 
L 298.308382 326.898343 
L 299.638821 329.678114 
L 300.801586 332.457885 
L 301.230505 335.237656 
L 300.65362 338.017427 
L 299.306245 340.797198 
z
" clip-path="url(#p81ebdaa034)" style="fill: #1f77b4; fill-opacity: 0.3"/>
   </g>
   <g id="matplotlib.axis_1">
    <g id="xtick_1">
     <g id="line2d_1">
      <defs>
       <path id="mb3a59a8059" d="M 0 0 
L 0 3.5 
" style="stroke: #000000; stroke-width: 0.8"/>
      </defs>
      <g>
       <use xlink:href="#mb3a59a8059" x="295.2" y="384.48" style="stroke: #000000; stroke-width: 0.8"/>
      </g>
     </g>
     <g id="text_1">
      <!-- 1 -->
      <g transform="translate(292.01875 399.078438) scale(0.1 -0.1)">
       <defs>
        <path id="DejaVuSans-31" d="M 794 531 
L 1825 531 
L 1825 4091 
L 703 3866 
L 703 4441 
L 1819 4666 
L 2450 4666 
L 2450 531 
L 3481 531 
L 3481 0 
L 794 0 
L 794 531 
z
" transform="scale(0.015625)"/>
       </defs>
       <use xlink:href="#DejaVuSans-31"/>
      </g>
     </g>
    </g>
   </g>
   <g id="matplotlib.axis_2">
    <g id="ytick_1">
     <g id="line2d_2">
      <defs>
       <path id="m8bbd8a4147" d="M 0 0 
L -3.5 0 
" style="stroke: #000000; stroke-width: 0.8"/>
      </defs>
      <g>
       <use xlink:href="#m8bbd8a4147" x="72" y="384.48" style="stroke: #000000; stroke-width: 0.8"/>
      </g>
     </g>
     <g id="text_2">
      <!-- 0 -->
      <g transform="translate(58.6375 388.279219) scale(0.1 -0.1)">
       <defs>
        <path id="DejaVuSans-30" d="M 2034 4250 
Q 1547 4250 1301 3770 
Q 1056 3291 1056 2328 
Q 1056 1369 1301 889 
Q 1547 409 2034 409 
Q 2525 409 2770 889 
Q 3016 1369 3016 2328 
Q 3016 3291 2770 3770 
Q 2525 4250 2034 4250 
z
M 2034 4750 
Q 2819 4750 3233 4129 
Q 3647 3509 3647 2328 
Q 3647 1150 3233 529 
Q 2819 -91 2034 -91 
Q 1250 -91 836 529 
Q 422 1150 422 2328 
Q 422 3509 836 4129 
Q 1250 4750 2034 4750 
z
" transform="scale(0.015625)"/>
       </defs>
       <use xlink:href="#DejaVuSans-30"/>
      </g>
     </g>
    </g>
    <g id="ytick_2">
     <g id="line2d_3">
      <g>
       <use xlink:href="#m8bbd8a4147" x="72" y="335.816661" style="stroke: #000000; stroke-width: 0.8"/>
      </g>
     </g>
     <g id="text_3">
      <!-- 10 -->
      <g transform="translate(52.275 339.61588) scale(0.1 -0.1)">
       <use xlink:href="#DejaVuSans-31"/>
       <use xlink:href="#DejaVuSans-30" transform="translate(63.623047 0)"/>
      </g>
     </g>
    </g>
    <g id="ytick_3">
     <g id="line2d_4">
      <g>
       <use xlink:href="#m8bbd8a4147" x="72" y="287.153323" style="stroke: #000000; stroke-width: 0.8"/>
      </g>
     </g>
     <g id="text_4">
      <!-- 20 -->
      <g transform="translate(52.275 290.952541) scale(0.1 -0.1)">
       <defs>
        <path id="DejaVuSans-32" d="M 1228 531 
L 3431 531 
L 3431 0 
L 469 0 
L 469 531 
Q 828 903 1448 1529 
Q 2069 2156 2228 2338 
Q 2531 2678 2651 2914 
Q 2772 3150 2772 3378 
Q 2772 3750 2511 3984 
Q 2250 4219 1831 4219 
Q 1534 4219 1204 4116 
Q 875 4013 500 3803 
L 500 4441 
Q 881 4594 1212 4672 
Q 1544 4750 1819 4750 
Q 2544 4750 2975 4387 
Q 3406 4025 3406 3419 
Q 3406 3131 3298 2873 
Q 3191 2616 2906 2266 
Q 2828 2175 2409 1742 
Q 1991 1309 1228 531 
z
" transform="scale(0.015625)"/>
       </defs>
       <use xlink:href="#DejaVuSans-32"/>
       <use xlink:href="#DejaVuSans-30" transform="translate(63.623047 0)"/>
      </g>
     </g>
    </g>
    <g id="ytick_4">
     <g id="line2d_5">
      <g>
       <use xlink:href="#m8bbd8a4147" x="72" y="238.489984" style="stroke: #000000; stroke-width: 0.8"/>
      </g>
     </g>
     <g id="text_5">
      <!-- 30 -->
      <g transform="translate(52.275 242.289203) scale(0.1 -0.1)">
       <defs>
        <path id="DejaVuSans-33" d="M 2597 2516 
Q 3050 2419 3304 2112 
Q 3559 1806 3559 1356 
Q 3559 666 3084 287 
Q 2609 -91 1734 -91 
Q 1441 -91 1130 -33 
Q 819 25 488 141 
L 488 750 
Q 750 597 1062 519 
Q 1375 441 1716 441 
Q 2309 441 2620 675 
Q 2931 909 2931 1356 
Q 2931 1769 2642 2001 
Q 2353 2234 1838 2234 
L 1294 2234 
L 1294 2753 
L 1863 2753 
Q 2328 2753 2575 2939 
Q 2822 3125 2822 3475 
Q 2822 3834 2567 4026 
Q 2313 4219 1838 4219 
Q 1578 4219 1281 4162 
Q 984 4106 628 3988 
L 628 4550 
Q 988 4650 1302 4700 
Q 1616 4750 1894 4750 
Q 2613 4750 3031 4423 
Q 3450 4097 3450 3541 
Q 3450 3153 3228 2886 
Q 3006 2619 2597 2516 
z
" transform="scale(0.015625)"/>
       </defs>
       <use xlink:href="#DejaVuSans-33"/>
       <use xlink:href="#DejaVuSans-30" transform="translate(63.623047 0)"/>
      </g>
     </g>
    </g>
    <g id="ytick_5">
     <g id="line2d_6">
      <g>
       <use xlink:href="#m8bbd8a4147" x="72" y="189.826645" style="stroke: #000000; stroke-width: 0.8"/>
      </g>
     </g>
     <g id="text_6">
      <!-- 40 -->
      <g transform="translate(52.275 193.625864) scale(0.1 -0.1)">
       <defs>
        <path id="DejaVuSans-34" d="M 2419 4116 
L 825 1625 
L 2419 1625 
L 2419 4116 
z
M 2253 4666 
L 3047 4666 
L 3047 1625 
L 3713 1625 
L 3713 1100 
L 3047 1100 
L 3047 0 
L 2419 0 
L 2419 1100 
L 313 1100 
L 313 1709 
L 2253 4666 
z
" transform="scale(0.015625)"/>
       </defs>
       <use xlink:href="#DejaVuSans-34"/>
       <use xlink:href="#DejaVuSans-30" transform="translate(63.623047 0)"/>
      </g>
     </g>
    </g>
    <g id="ytick_6">
     <g id="line2d_7">
      <g>
       <use xlink:href="#m8bbd8a4147" x="72" y="141.163306" style="stroke: #000000; stroke-width: 0.8"/>
      </g>
     </g>
     <g id="text_7">
      <!-- 50 -->
      <g transform="translate(52.275 144.962525) scale(0.1 -0.1)">
       <defs>
        <path id="DejaVuSans-35" d="M 691 4666 
L 3169 4666 
L 3169 4134 
L 1269 4134 
L 1269 2991 
Q 1406 3038 1543 3061 
Q 1681 3084 1819 3084 
Q 2600 3084 3056 2656 
Q 3513 2228 3513 1497 
Q 3513 744 3044 326 
Q 2575 -91 1722 -91 
Q 1428 -91 1123 -41 
Q 819 9 494 109 
L 494 744 
Q 775 591 1075 516 
Q 1375 441 1709 441 
Q 2250 441 2565 725 
Q 2881 1009 2881 1497 
Q 2881 1984 2565 2268 
Q 2250 2553 1709 2553 
Q 1456 2553 1204 2497 
Q 953 2441 691 2322 
L 691 4666 
z
" transform="scale(0.015625)"/>
       </defs>
       <use xlink:href="#DejaVuSans-35"/>
       <use xlink:href="#DejaVuSans-30" transform="translate(63.623047 0)"/>
      </g>
     </g>
    </g>
    <g id="ytick_7">
     <g id="line2d_8">
      <g>
       <use xlink:href="#m8bbd8a4147" x="72" y="92.499968" style="stroke: #000000; stroke-width: 0.8"/>
      </g>
     </g>
     <g id="text_8">
      <!-- 60 -->
      <g transform="translate(52.275 96.299186) scale(0.1 -0.1)">
       <defs>
        <path id="DejaVuSans-36" d="M 2113 2584 
Q 1688 2584 1439 2293 
Q 1191 2003 1191 1497 
Q 1191 994 1439 701 
Q 1688 409 2113 409 
Q 2538 409 2786 701 
Q 3034 994 3034 1497 
Q 3034 2003 2786 2293 
Q 2538 2584 2113 2584 
z
M 3366 4563 
L 3366 3988 
Q 3128 4100 2886 4159 
Q 2644 4219 2406 4219 
Q 1781 4219 1451 3797 
Q 1122 3375 1075 2522 
Q 1259 2794 1537 2939 
Q 1816 3084 2150 3084 
Q 2853 3084 3261 2657 
Q 3669 2231 3669 1497 
Q 3669 778 3244 343 
Q 2819 -91 2113 -91 
Q 1303 -91 875 529 
Q 447 1150 447 2328 
Q 447 3434 972 4092 
Q 1497 4750 2381 4750 
Q 2619 4750 2861 4703 
Q 3103 4656 3366 4563 
z
" transform="scale(0.015625)"/>
       </defs>
       <use xlink:href="#DejaVuSans-36"/>
       <use xlink:href="#DejaVuSans-30" transform="translate(63.623047 0)"/>
      </g>
     </g>
    </g>
    <g id="text_9">
     <!-- Time (ms) -->
     <g transform="translate(46.195312 243.359219) rotate(-90) scale(0.1 -0.1)">
      <defs>
       <path id="DejaVuSans-54" d="M -19 4666 
L 3928 4666 
L 3928 4134 
L 2272 4134 
L 2272 0 
L 1638 0 
L 1638 4134 
L -19 4134 
L -19 4666 
z
" transform="scale(0.015625)"/>
       <path id="DejaVuSans-69" d="M 603 3500 
L 1178 3500 
L 1178 0 
L 603 0 
L 603 3500 
z
M 603 4863 
L 1178 4863 
L 1178 4134 
L 603 4134 
L 603 4863 
z
" transform="scale(0.015625)"/>
       <path id="DejaVuSans-6d" d="M 3328 2828 
Q 3544 3216 3844 3400 
Q 4144 3584 4550 3584 
Q 5097 3584 5394 3201 
Q 5691 2819 5691 2113 
L 5691 0 
L 5113 0 
L 5113 2094 
Q 5113 2597 4934 2840 
Q 4756 3084 4391 3084 
Q 3944 3084 3684 2787 
Q 3425 2491 3425 1978 
L 3425 0 
L 2847 0 
L 2847 2094 
Q 2847 2600 2669 2842 
Q 2491 3084 2119 3084 
Q 1678 3084 1418 2786 
Q 1159 2488 1159 1978 
L 1159 0 
L 581 0 
L 581 3500 
L 1159 3500 
L 1159 2956 
Q 1356 3278 1631 3431 
Q 1906 3584 2284 3584 
Q 2666 3584 2933 3390 
Q 3200 3197 3328 2828 
z
" transform="scale(0.015625)"/>
       <path id="DejaVuSans-65" d="M 3597 1894 
L 3597 1613 
L 953 1613 
Q 991 1019 1311 708 
Q 1631 397 2203 397 
Q 2534 397 2845 478 
Q 3156 559 3463 722 
L 3463 178 
Q 3153 47 2828 -22 
Q 2503 -91 2169 -91 
Q 1331 -91 842 396 
Q 353 884 353 1716 
Q 353 2575 817 3079 
Q 1281 3584 2069 3584 
Q 2775 3584 3186 3129 
Q 3597 2675 3597 1894 
z
M 3022 2063 
Q 3016 2534 2758 2815 
Q 2500 3097 2075 3097 
Q 1594 3097 1305 2825 
Q 1016 2553 972 2059 
L 3022 2063 
z
" transform="scale(0.015625)"/>
       <path id="DejaVuSans-20" transform="scale(0.015625)"/>
       <path id="DejaVuSans-28" d="M 1984 4856 
Q 1566 4138 1362 3434 
Q 1159 2731 1159 2009 
Q 1159 1288 1364 580 
Q 1569 -128 1984 -844 
L 1484 -844 
Q 1016 -109 783 600 
Q 550 1309 550 2009 
Q 550 2706 781 3412 
Q 1013 4119 1484 4856 
L 1984 4856 
z
" transform="scale(0.015625)"/>
       <path id="DejaVuSans-73" d="M 2834 3397 
L 2834 2853 
Q 2591 2978 2328 3040 
Q 2066 3103 1784 3103 
Q 1356 3103 1142 2972 
Q 928 2841 928 2578 
Q 928 2378 1081 2264 
Q 1234 2150 1697 2047 
L 1894 2003 
Q 2506 1872 2764 1633 
Q 3022 1394 3022 966 
Q 3022 478 2636 193 
Q 2250 -91 1575 -91 
Q 1294 -91 989 -36 
Q 684 19 347 128 
L 347 722 
Q 666 556 975 473 
Q 1284 391 1588 391 
Q 1994 391 2212 530 
Q 2431 669 2431 922 
Q 2431 1156 2273 1281 
Q 2116 1406 1581 1522 
L 1381 1569 
Q 847 1681 609 1914 
Q 372 2147 372 2553 
Q 372 3047 722 3315 
Q 1072 3584 1716 3584 
Q 2034 3584 2315 3537 
Q 2597 3491 2834 3397 
z
" transform="scale(0.015625)"/>
       <path id="DejaVuSans-29" d="M 513 4856 
L 1013 4856 
Q 1481 4119 1714 3412 
Q 1947 2706 1947 2009 
Q 1947 1309 1714 600 
Q 1481 -109 1013 -844 
L 513 -844 
Q 928 -128 1133 580 
Q 1338 1288 1338 2009 
Q 1338 2731 1133 3434 
Q 928 4138 513 4856 
z
" transform="scale(0.015625)"/>
      </defs>
      <use xlink:href="#DejaVuSans-54"/>
      <use xlink:href="#DejaVuSans-69" transform="translate(57.958984 0)"/>
      <use xlink:href="#DejaVuSans-6d" transform="translate(85.742188 0)"/>
      <use xlink:href="#DejaVuSans-65" transform="translate(183.154297 0)"/>
      <use xlink:href="#DejaVuSans-20" transform="translate(244.677734 0)"/>
      <use xlink:href="#DejaVuSans-28" transform="translate(276.464844 0)"/>
      <use xlink:href="#DejaVuSans-6d" transform="translate(315.478516 0)"/>
      <use xlink:href="#DejaVuSans-73" transform="translate(412.890625 0)"/>
      <use xlink:href="#DejaVuSans-29" transform="translate(464.990234 0)"/>
     </g>
    </g>
   </g>
   <g id="LineCollection_1">
    <path d="M 239.4 226.337707 
L 351 226.337707 
" clip-path="url(#p81ebdaa034)" style="fill: none; stroke: #1f77b4; stroke-width: 1.5"/>
   </g>
   <g id="LineCollection_2">
    <path d="M 239.4 65.599867 
L 351 65.599867 
" clip-path="url(#p81ebdaa034)" style="fill: none; stroke: #1f77b4; stroke-width: 1.5"/>
   </g>
   <g id="LineCollection_3">
    <path d="M 239.4 340.797198 
L 351 340.797198 
" clip-path="url(#p81ebdaa034)" style="fill: none; stroke: #1f77b4; stroke-width: 1.5"/>
   </g>
   <g id="LineCollection_4">
    <path d="M 295.2 340.797198 
L 295.2 65.599867 
" clip-path="url(#p81ebdaa034)" style="fill: none; stroke: #1f77b4; stroke-width: 1.5"/>
   </g>
   <g id="patch_3">
    <path d="M 250.56 244.349907 
L 339.84 244.349907 
L 339.84 209.494079 
L 250.56 209.494079 
L 250.56 244.349907 
z
" clip-path="url(#p81ebdaa034)" style="fill: #1f77b4; stroke: #000000; stroke-linejoin: miter"/>
   </g>
   <g id="line2d_9">
    <path d="M 295.2 244.349907 
L 295.2 296.276657 
" clip-path="url(#p81ebdaa034)" style="fill: none; stroke: #000000; stroke-linecap: square"/>
   </g>
   <g id="line2d_10">
    <path d="M 295.2 209.494079 
L 295.2 157.311671 
" clip-path="url(#p81ebdaa034)" style="fill: none; stroke: #000000; stroke-linecap: square"/>
   </g>
   <g id="line2d_11">
    <path d="M 272.88 296.276657 
L 317.52 296.276657 
" clip-path="url(#p81ebdaa034)" style="fill: none; stroke: #000000; stroke-linecap: square"/>
   </g>
   <g id="line2d_12">
    <path d="M 272.88 157.311671 
L 317.52 157.311671 
" clip-path="url(#p81ebdaa034)" style="fill: none; stroke: #000000; stroke-linecap: square"/>
   </g>
   <g id="line2d_13">
    <defs>
     <path id="m4b6629d2ce" d="M 0 3 
C 0.795609 3 1.55874 2.683901 2.12132 2.12132 
C 2.683901 1.55874 3 0.795609 3 0 
C 3 -0.795609 2.683901 -1.55874 2.12132 -2.12132 
C 1.55874 -2.683901 0.795609 -3 0 -3 
C -0.795609 -3 -1.55874 -2.683901 -2.12132 -2.12132 
C -2.683901 -1.55874 -3 -0.795609 -3 0 
C -3 0.795609 -2.683901 1.55874 -2.12132 2.12132 
C -1.55874 2.683901 -0.795609 3 0 3 
z
" style="stroke: #000000"/>
    </defs>
    <g clip-path="url(#p81ebdaa034)">
     <use xlink:href="#m4b6629d2ce" x="295.2" y="300.659448" style="fill-opacity: 0; stroke: #000000"/>
     <use xlink:href="#m4b6629d2ce" x="295.2" y="307.13339" style="fill-opacity: 0; stroke: #000000"/>
     <use xlink:href="#m4b6629d2ce" x="295.2" y="297.292787" style="fill-opacity: 0; stroke: #000000"/>
     <use xlink:href="#m4b6629d2ce" x="295.2" y="334.682299" style="fill-opacity: 0; stroke: #000000"/>
     <use xlink:href="#m4b6629d2ce" x="295.2" y="329.615765" style="fill-opacity: 0; stroke: #000000"/>
     <use xlink:href="#m4b6629d2ce" x="295.2" y="327.303672" style="fill-opacity: 0; stroke: #000000"/>
     <use xlink:href="#m4b6629d2ce" x="295.2" y="305.827777" style="fill-opacity: 0; stroke: #000000"/>
     <use xlink:href="#m4b6629d2ce" x="295.2" y="308.842105" style="fill-opacity: 0; stroke: #000000"/>
     <use xlink:href="#m4b6629d2ce" x="295.2" y="313.52856" style="fill-opacity: 0; stroke: #000000"/>
     <use xlink:href="#m4b6629d2ce" x="295.2" y="311.197012" style="fill-opacity: 0; stroke: #000000"/>
     <use xlink:href="#m4b6629d2ce" x="295.2" y="337.251879" style="fill-opacity: 0; stroke: #000000"/>
     <use xlink:href="#m4b6629d2ce" x="295.2" y="338.628614" style="fill-opacity: 0; stroke: #000000"/>
     <use xlink:href="#m4b6629d2ce" x="295.2" y="338.690421" style="fill-opacity: 0; stroke: #000000"/>
     <use xlink:href="#m4b6629d2ce" x="295.2" y="306.259406" style="fill-opacity: 0; stroke: #000000"/>
     <use xlink:href="#m4b6629d2ce" x="295.2" y="300.941753" style="fill-opacity: 0; stroke: #000000"/>
     <use xlink:href="#m4b6629d2ce" x="295.2" y="312.083171" style="fill-opacity: 0; stroke: #000000"/>
     <use xlink:href="#m4b6629d2ce" x="295.2" y="311.681193" style="fill-opacity: 0; stroke: #000000"/>
     <use xlink:href="#m4b6629d2ce" x="295.2" y="322.311144" style="fill-opacity: 0; stroke: #000000"/>
     <use xlink:href="#m4b6629d2ce" x="295.2" y="326.221394" style="fill-opacity: 0; stroke: #000000"/>
     <use xlink:href="#m4b6629d2ce" x="295.2" y="328.044878" style="fill-opacity: 0; stroke: #000000"/>
     <use xlink:href="#m4b6629d2ce" x="295.2" y="301.724849" style="fill-opacity: 0; stroke: #000000"/>
     <use xlink:href="#m4b6629d2ce" x="295.2" y="306.745149" style="fill-opacity: 0; stroke: #000000"/>
     <use xlink:href="#m4b6629d2ce" x="295.2" y="307.703364" style="fill-opacity: 0; stroke: #000000"/>
     <use xlink:href="#m4b6629d2ce" x="295.2" y="307.562727" style="fill-opacity: 0; stroke: #000000"/>
     <use xlink:href="#m4b6629d2ce" x="295.2" y="334.680912" style="fill-opacity: 0; stroke: #000000"/>
     <use xlink:href="#m4b6629d2ce" x="295.2" y="332.593659" style="fill-opacity: 0; stroke: #000000"/>
     <use xlink:href="#m4b6629d2ce" x="295.2" y="334.175281" style="fill-opacity: 0; stroke: #000000"/>
     <use xlink:href="#m4b6629d2ce" x="295.2" y="304.437421" style="fill-opacity: 0; stroke: #000000"/>
     <use xlink:href="#m4b6629d2ce" x="295.2" y="303.452928" style="fill-opacity: 0; stroke: #000000"/>
     <use xlink:href="#m4b6629d2ce" x="295.2" y="305.547481" style="fill-opacity: 0; stroke: #000000"/>
     <use xlink:href="#m4b6629d2ce" x="295.2" y="304.696325" style="fill-opacity: 0; stroke: #000000"/>
     <use xlink:href="#m4b6629d2ce" x="295.2" y="322.913173" style="fill-opacity: 0; stroke: #000000"/>
     <use xlink:href="#m4b6629d2ce" x="295.2" y="329.829951" style="fill-opacity: 0; stroke: #000000"/>
     <use xlink:href="#m4b6629d2ce" x="295.2" y="306.59037" style="fill-opacity: 0; stroke: #000000"/>
     <use xlink:href="#m4b6629d2ce" x="295.2" y="304.134297" style="fill-opacity: 0; stroke: #000000"/>
     <use xlink:href="#m4b6629d2ce" x="295.2" y="306.295991" style="fill-opacity: 0; stroke: #000000"/>
     <use xlink:href="#m4b6629d2ce" x="295.2" y="307.755935" style="fill-opacity: 0; stroke: #000000"/>
     <use xlink:href="#m4b6629d2ce" x="295.2" y="308.139903" style="fill-opacity: 0; stroke: #000000"/>
     <use xlink:href="#m4b6629d2ce" x="295.2" y="336.902788" style="fill-opacity: 0; stroke: #000000"/>
     <use xlink:href="#m4b6629d2ce" x="295.2" y="338.276111" style="fill-opacity: 0; stroke: #000000"/>
     <use xlink:href="#m4b6629d2ce" x="295.2" y="333.566322" style="fill-opacity: 0; stroke: #000000"/>
     <use xlink:href="#m4b6629d2ce" x="295.2" y="303.744441" style="fill-opacity: 0; stroke: #000000"/>
     <use xlink:href="#m4b6629d2ce" x="295.2" y="300.536427" style="fill-opacity: 0; stroke: #000000"/>
     <use xlink:href="#m4b6629d2ce" x="295.2" y="309.689378" style="fill-opacity: 0; stroke: #000000"/>
     <use xlink:href="#m4b6629d2ce" x="295.2" y="308.904896" style="fill-opacity: 0; stroke: #000000"/>
     <use xlink:href="#m4b6629d2ce" x="295.2" y="337.148713" style="fill-opacity: 0; stroke: #000000"/>
     <use xlink:href="#m4b6629d2ce" x="295.2" y="335.430834" style="fill-opacity: 0; stroke: #000000"/>
     <use xlink:href="#m4b6629d2ce" x="295.2" y="317.141964" style="fill-opacity: 0; stroke: #000000"/>
     <use xlink:href="#m4b6629d2ce" x="295.2" y="300.743261" style="fill-opacity: 0; stroke: #000000"/>
     <use xlink:href="#m4b6629d2ce" x="295.2" y="305.390298" style="fill-opacity: 0; stroke: #000000"/>
     <use xlink:href="#m4b6629d2ce" x="295.2" y="312.559658" style="fill-opacity: 0; stroke: #000000"/>
     <use xlink:href="#m4b6629d2ce" x="295.2" y="337.422216" style="fill-opacity: 0; stroke: #000000"/>
     <use xlink:href="#m4b6629d2ce" x="295.2" y="331.393086" style="fill-opacity: 0; stroke: #000000"/>
     <use xlink:href="#m4b6629d2ce" x="295.2" y="335.227416" style="fill-opacity: 0; stroke: #000000"/>
     <use xlink:href="#m4b6629d2ce" x="295.2" y="303.970307" style="fill-opacity: 0; stroke: #000000"/>
     <use xlink:href="#m4b6629d2ce" x="295.2" y="304.31388" style="fill-opacity: 0; stroke: #000000"/>
     <use xlink:href="#m4b6629d2ce" x="295.2" y="308.028975" style="fill-opacity: 0; stroke: #000000"/>
     <use xlink:href="#m4b6629d2ce" x="295.2" y="310.231565" style="fill-opacity: 0; stroke: #000000"/>
     <use xlink:href="#m4b6629d2ce" x="295.2" y="337.17503" style="fill-opacity: 0; stroke: #000000"/>
     <use xlink:href="#m4b6629d2ce" x="295.2" y="336.959447" style="fill-opacity: 0; stroke: #000000"/>
     <use xlink:href="#m4b6629d2ce" x="295.2" y="333.994759" style="fill-opacity: 0; stroke: #000000"/>
     <use xlink:href="#m4b6629d2ce" x="295.2" y="303.406644" style="fill-opacity: 0; stroke: #000000"/>
     <use xlink:href="#m4b6629d2ce" x="295.2" y="307.513017" style="fill-opacity: 0; stroke: #000000"/>
     <use xlink:href="#m4b6629d2ce" x="295.2" y="308.391906" style="fill-opacity: 0; stroke: #000000"/>
     <use xlink:href="#m4b6629d2ce" x="295.2" y="308.40797" style="fill-opacity: 0; stroke: #000000"/>
     <use xlink:href="#m4b6629d2ce" x="295.2" y="337.746776" style="fill-opacity: 0; stroke: #000000"/>
     <use xlink:href="#m4b6629d2ce" x="295.2" y="333.097787" style="fill-opacity: 0; stroke: #000000"/>
     <use xlink:href="#m4b6629d2ce" x="295.2" y="334.9568" style="fill-opacity: 0; stroke: #000000"/>
     <use xlink:href="#m4b6629d2ce" x="295.2" y="304.942556" style="fill-opacity: 0; stroke: #000000"/>
     <use xlink:href="#m4b6629d2ce" x="295.2" y="304.422812" style="fill-opacity: 0; stroke: #000000"/>
     <use xlink:href="#m4b6629d2ce" x="295.2" y="308.12964" style="fill-opacity: 0; stroke: #000000"/>
     <use xlink:href="#m4b6629d2ce" x="295.2" y="307.176291" style="fill-opacity: 0; stroke: #000000"/>
     <use xlink:href="#m4b6629d2ce" x="295.2" y="334.894535" style="fill-opacity: 0; stroke: #000000"/>
     <use xlink:href="#m4b6629d2ce" x="295.2" y="336.522382" style="fill-opacity: 0; stroke: #000000"/>
     <use xlink:href="#m4b6629d2ce" x="295.2" y="331.671435" style="fill-opacity: 0; stroke: #000000"/>
     <use xlink:href="#m4b6629d2ce" x="295.2" y="302.863766" style="fill-opacity: 0; stroke: #000000"/>
     <use xlink:href="#m4b6629d2ce" x="295.2" y="306.658178" style="fill-opacity: 0; stroke: #000000"/>
     <use xlink:href="#m4b6629d2ce" x="295.2" y="301.148801" style="fill-opacity: 0; stroke: #000000"/>
     <use xlink:href="#m4b6629d2ce" x="295.2" y="309.570299" style="fill-opacity: 0; stroke: #000000"/>
     <use xlink:href="#m4b6629d2ce" x="295.2" y="332.759217" style="fill-opacity: 0; stroke: #000000"/>
     <use xlink:href="#m4b6629d2ce" x="295.2" y="338.030138" style="fill-opacity: 0; stroke: #000000"/>
     <use xlink:href="#m4b6629d2ce" x="295.2" y="333.571924" style="fill-opacity: 0; stroke: #000000"/>
     <use xlink:href="#m4b6629d2ce" x="295.2" y="305.060273" style="fill-opacity: 0; stroke: #000000"/>
     <use xlink:href="#m4b6629d2ce" x="295.2" y="305.502637" style="fill-opacity: 0; stroke: #000000"/>
     <use xlink:href="#m4b6629d2ce" x="295.2" y="311.363883" style="fill-opacity: 0; stroke: #000000"/>
     <use xlink:href="#m4b6629d2ce" x="295.2" y="306.346007" style="fill-opacity: 0; stroke: #000000"/>
     <use xlink:href="#m4b6629d2ce" x="295.2" y="340.389774" style="fill-opacity: 0; stroke: #000000"/>
     <use xlink:href="#m4b6629d2ce" x="295.2" y="337.633862" style="fill-opacity: 0; stroke: #000000"/>
     <use xlink:href="#m4b6629d2ce" x="295.2" y="337.094166" style="fill-opacity: 0; stroke: #000000"/>
     <use xlink:href="#m4b6629d2ce" x="295.2" y="300.423401" style="fill-opacity: 0; stroke: #000000"/>
     <use xlink:href="#m4b6629d2ce" x="295.2" y="301.708649" style="fill-opacity: 0; stroke: #000000"/>
     <use xlink:href="#m4b6629d2ce" x="295.2" y="300.20246" style="fill-opacity: 0; stroke: #000000"/>
     <use xlink:href="#m4b6629d2ce" x="295.2" y="307.757745" style="fill-opacity: 0; stroke: #000000"/>
     <use xlink:href="#m4b6629d2ce" x="295.2" y="332.659277" style="fill-opacity: 0; stroke: #000000"/>
     <use xlink:href="#m4b6629d2ce" x="295.2" y="336.550548" style="fill-opacity: 0; stroke: #000000"/>
     <use xlink:href="#m4b6629d2ce" x="295.2" y="330.753056" style="fill-opacity: 0; stroke: #000000"/>
     <use xlink:href="#m4b6629d2ce" x="295.2" y="306.372806" style="fill-opacity: 0; stroke: #000000"/>
     <use xlink:href="#m4b6629d2ce" x="295.2" y="300.699902" style="fill-opacity: 0; stroke: #000000"/>
     <use xlink:href="#m4b6629d2ce" x="295.2" y="308.331097" style="fill-opacity: 0; stroke: #000000"/>
     <use xlink:href="#m4b6629d2ce" x="295.2" y="310.000799" style="fill-opacity: 0; stroke: #000000"/>
     <use xlink:href="#m4b6629d2ce" x="295.2" y="338.536626" style="fill-opacity: 0; stroke: #000000"/>
     <use xlink:href="#m4b6629d2ce" x="295.2" y="337.726834" style="fill-opacity: 0; stroke: #000000"/>
     <use xlink:href="#m4b6629d2ce" x="295.2" y="332.006239" style="fill-opacity: 0; stroke: #000000"/>
     <use xlink:href="#m4b6629d2ce" x="295.2" y="304.262292" style="fill-opacity: 0; stroke: #000000"/>
     <use xlink:href="#m4b6629d2ce" x="295.2" y="305.695841" style="fill-opacity: 0; stroke: #000000"/>
     <use xlink:href="#m4b6629d2ce" x="295.2" y="305.789766" style="fill-opacity: 0; stroke: #000000"/>
     <use xlink:href="#m4b6629d2ce" x="295.2" y="306.432633" style="fill-opacity: 0; stroke: #000000"/>
     <use xlink:href="#m4b6629d2ce" x="295.2" y="316.852831" style="fill-opacity: 0; stroke: #000000"/>
     <use xlink:href="#m4b6629d2ce" x="295.2" y="340.70902" style="fill-opacity: 0; stroke: #000000"/>
     <use xlink:href="#m4b6629d2ce" x="295.2" y="334.766025" style="fill-opacity: 0; stroke: #000000"/>
     <use xlink:href="#m4b6629d2ce" x="295.2" y="305.647202" style="fill-opacity: 0; stroke: #000000"/>
     <use xlink:href="#m4b6629d2ce" x="295.2" y="309.887404" style="fill-opacity: 0; stroke: #000000"/>
     <use xlink:href="#m4b6629d2ce" x="295.2" y="310.401308" style="fill-opacity: 0; stroke: #000000"/>
     <use xlink:href="#m4b6629d2ce" x="295.2" y="310.771154" style="fill-opacity: 0; stroke: #000000"/>
     <use xlink:href="#m4b6629d2ce" x="295.2" y="336.499972" style="fill-opacity: 0; stroke: #000000"/>
     <use xlink:href="#m4b6629d2ce" x="295.2" y="338.69429" style="fill-opacity: 0; stroke: #000000"/>
     <use xlink:href="#m4b6629d2ce" x="295.2" y="333.840905" style="fill-opacity: 0; stroke: #000000"/>
     <use xlink:href="#m4b6629d2ce" x="295.2" y="298.537497" style="fill-opacity: 0; stroke: #000000"/>
     <use xlink:href="#m4b6629d2ce" x="295.2" y="302.085181" style="fill-opacity: 0; stroke: #000000"/>
     <use xlink:href="#m4b6629d2ce" x="295.2" y="307.194039" style="fill-opacity: 0; stroke: #000000"/>
     <use xlink:href="#m4b6629d2ce" x="295.2" y="303.364584" style="fill-opacity: 0; stroke: #000000"/>
     <use xlink:href="#m4b6629d2ce" x="295.2" y="332.199608" style="fill-opacity: 0; stroke: #000000"/>
     <use xlink:href="#m4b6629d2ce" x="295.2" y="333.765652" style="fill-opacity: 0; stroke: #000000"/>
     <use xlink:href="#m4b6629d2ce" x="295.2" y="331.989864" style="fill-opacity: 0; stroke: #000000"/>
     <use xlink:href="#m4b6629d2ce" x="295.2" y="300.942201" style="fill-opacity: 0; stroke: #000000"/>
     <use xlink:href="#m4b6629d2ce" x="295.2" y="307.422464" style="fill-opacity: 0; stroke: #000000"/>
     <use xlink:href="#m4b6629d2ce" x="295.2" y="334.410753" style="fill-opacity: 0; stroke: #000000"/>
     <use xlink:href="#m4b6629d2ce" x="295.2" y="335.459974" style="fill-opacity: 0; stroke: #000000"/>
     <use xlink:href="#m4b6629d2ce" x="295.2" y="331.852911" style="fill-opacity: 0; stroke: #000000"/>
     <use xlink:href="#m4b6629d2ce" x="295.2" y="308.980898" style="fill-opacity: 0; stroke: #000000"/>
     <use xlink:href="#m4b6629d2ce" x="295.2" y="304.912984" style="fill-opacity: 0; stroke: #000000"/>
     <use xlink:href="#m4b6629d2ce" x="295.2" y="309.988755" style="fill-opacity: 0; stroke: #000000"/>
     <use xlink:href="#m4b6629d2ce" x="295.2" y="310.954274" style="fill-opacity: 0; stroke: #000000"/>
     <use xlink:href="#m4b6629d2ce" x="295.2" y="338.013553" style="fill-opacity: 0; stroke: #000000"/>
     <use xlink:href="#m4b6629d2ce" x="295.2" y="340.797198" style="fill-opacity: 0; stroke: #000000"/>
     <use xlink:href="#m4b6629d2ce" x="295.2" y="334.6941" style="fill-opacity: 0; stroke: #000000"/>
     <use xlink:href="#m4b6629d2ce" x="295.2" y="121.003379" style="fill-opacity: 0; stroke: #000000"/>
     <use xlink:href="#m4b6629d2ce" x="295.2" y="108.620633" style="fill-opacity: 0; stroke: #000000"/>
     <use xlink:href="#m4b6629d2ce" x="295.2" y="125.726458" style="fill-opacity: 0; stroke: #000000"/>
     <use xlink:href="#m4b6629d2ce" x="295.2" y="132.678435" style="fill-opacity: 0; stroke: #000000"/>
     <use xlink:href="#m4b6629d2ce" x="295.2" y="154.279945" style="fill-opacity: 0; stroke: #000000"/>
     <use xlink:href="#m4b6629d2ce" x="295.2" y="151.933194" style="fill-opacity: 0; stroke: #000000"/>
     <use xlink:href="#m4b6629d2ce" x="295.2" y="135.352947" style="fill-opacity: 0; stroke: #000000"/>
     <use xlink:href="#m4b6629d2ce" x="295.2" y="103.868006" style="fill-opacity: 0; stroke: #000000"/>
     <use xlink:href="#m4b6629d2ce" x="295.2" y="151.452585" style="fill-opacity: 0; stroke: #000000"/>
     <use xlink:href="#m4b6629d2ce" x="295.2" y="128.463635" style="fill-opacity: 0; stroke: #000000"/>
     <use xlink:href="#m4b6629d2ce" x="295.2" y="153.632742" style="fill-opacity: 0; stroke: #000000"/>
     <use xlink:href="#m4b6629d2ce" x="295.2" y="117.811751" style="fill-opacity: 0; stroke: #000000"/>
     <use xlink:href="#m4b6629d2ce" x="295.2" y="153.1466" style="fill-opacity: 0; stroke: #000000"/>
     <use xlink:href="#m4b6629d2ce" x="295.2" y="119.305798" style="fill-opacity: 0; stroke: #000000"/>
     <use xlink:href="#m4b6629d2ce" x="295.2" y="147.321866" style="fill-opacity: 0; stroke: #000000"/>
     <use xlink:href="#m4b6629d2ce" x="295.2" y="152.620116" style="fill-opacity: 0; stroke: #000000"/>
     <use xlink:href="#m4b6629d2ce" x="295.2" y="147.700583" style="fill-opacity: 0; stroke: #000000"/>
     <use xlink:href="#m4b6629d2ce" x="295.2" y="106.961271" style="fill-opacity: 0; stroke: #000000"/>
     <use xlink:href="#m4b6629d2ce" x="295.2" y="152.201392" style="fill-opacity: 0; stroke: #000000"/>
     <use xlink:href="#m4b6629d2ce" x="295.2" y="85.821547" style="fill-opacity: 0; stroke: #000000"/>
     <use xlink:href="#m4b6629d2ce" x="295.2" y="154.025956" style="fill-opacity: 0; stroke: #000000"/>
     <use xlink:href="#m4b6629d2ce" x="295.2" y="142.559949" style="fill-opacity: 0; stroke: #000000"/>
     <use xlink:href="#m4b6629d2ce" x="295.2" y="146.103681" style="fill-opacity: 0; stroke: #000000"/>
     <use xlink:href="#m4b6629d2ce" x="295.2" y="149.240725" style="fill-opacity: 0; stroke: #000000"/>
     <use xlink:href="#m4b6629d2ce" x="295.2" y="132.4243" style="fill-opacity: 0; stroke: #000000"/>
     <use xlink:href="#m4b6629d2ce" x="295.2" y="147.227118" style="fill-opacity: 0; stroke: #000000"/>
     <use xlink:href="#m4b6629d2ce" x="295.2" y="151.247834" style="fill-opacity: 0; stroke: #000000"/>
     <use xlink:href="#m4b6629d2ce" x="295.2" y="155.235459" style="fill-opacity: 0; stroke: #000000"/>
     <use xlink:href="#m4b6629d2ce" x="295.2" y="103.047016" style="fill-opacity: 0; stroke: #000000"/>
     <use xlink:href="#m4b6629d2ce" x="295.2" y="127.070734" style="fill-opacity: 0; stroke: #000000"/>
     <use xlink:href="#m4b6629d2ce" x="295.2" y="149.933165" style="fill-opacity: 0; stroke: #000000"/>
     <use xlink:href="#m4b6629d2ce" x="295.2" y="154.723277" style="fill-opacity: 0; stroke: #000000"/>
     <use xlink:href="#m4b6629d2ce" x="295.2" y="133.757822" style="fill-opacity: 0; stroke: #000000"/>
     <use xlink:href="#m4b6629d2ce" x="295.2" y="113.194821" style="fill-opacity: 0; stroke: #000000"/>
     <use xlink:href="#m4b6629d2ce" x="295.2" y="146.839447" style="fill-opacity: 0; stroke: #000000"/>
     <use xlink:href="#m4b6629d2ce" x="295.2" y="149.570083" style="fill-opacity: 0; stroke: #000000"/>
     <use xlink:href="#m4b6629d2ce" x="295.2" y="154.840031" style="fill-opacity: 0; stroke: #000000"/>
     <use xlink:href="#m4b6629d2ce" x="295.2" y="133.193784" style="fill-opacity: 0; stroke: #000000"/>
     <use xlink:href="#m4b6629d2ce" x="295.2" y="110.188731" style="fill-opacity: 0; stroke: #000000"/>
     <use xlink:href="#m4b6629d2ce" x="295.2" y="153.920756" style="fill-opacity: 0; stroke: #000000"/>
     <use xlink:href="#m4b6629d2ce" x="295.2" y="136.740471" style="fill-opacity: 0; stroke: #000000"/>
     <use xlink:href="#m4b6629d2ce" x="295.2" y="142.992006" style="fill-opacity: 0; stroke: #000000"/>
     <use xlink:href="#m4b6629d2ce" x="295.2" y="151.987283" style="fill-opacity: 0; stroke: #000000"/>
     <use xlink:href="#m4b6629d2ce" x="295.2" y="136.423152" style="fill-opacity: 0; stroke: #000000"/>
     <use xlink:href="#m4b6629d2ce" x="295.2" y="144.109336" style="fill-opacity: 0; stroke: #000000"/>
     <use xlink:href="#m4b6629d2ce" x="295.2" y="147.307038" style="fill-opacity: 0; stroke: #000000"/>
     <use xlink:href="#m4b6629d2ce" x="295.2" y="109.235723" style="fill-opacity: 0; stroke: #000000"/>
     <use xlink:href="#m4b6629d2ce" x="295.2" y="81.868824" style="fill-opacity: 0; stroke: #000000"/>
     <use xlink:href="#m4b6629d2ce" x="295.2" y="156.914033" style="fill-opacity: 0; stroke: #000000"/>
     <use xlink:href="#m4b6629d2ce" x="295.2" y="116.632356" style="fill-opacity: 0; stroke: #000000"/>
     <use xlink:href="#m4b6629d2ce" x="295.2" y="147.717324" style="fill-opacity: 0; stroke: #000000"/>
     <use xlink:href="#m4b6629d2ce" x="295.2" y="150.972536" style="fill-opacity: 0; stroke: #000000"/>
     <use xlink:href="#m4b6629d2ce" x="295.2" y="129.421144" style="fill-opacity: 0; stroke: #000000"/>
     <use xlink:href="#m4b6629d2ce" x="295.2" y="137.014742" style="fill-opacity: 0; stroke: #000000"/>
     <use xlink:href="#m4b6629d2ce" x="295.2" y="155.690938" style="fill-opacity: 0; stroke: #000000"/>
     <use xlink:href="#m4b6629d2ce" x="295.2" y="142.794409" style="fill-opacity: 0; stroke: #000000"/>
     <use xlink:href="#m4b6629d2ce" x="295.2" y="143.720998" style="fill-opacity: 0; stroke: #000000"/>
     <use xlink:href="#m4b6629d2ce" x="295.2" y="149.844569" style="fill-opacity: 0; stroke: #000000"/>
     <use xlink:href="#m4b6629d2ce" x="295.2" y="65.599867" style="fill-opacity: 0; stroke: #000000"/>
     <use xlink:href="#m4b6629d2ce" x="295.2" y="155.961813" style="fill-opacity: 0; stroke: #000000"/>
     <use xlink:href="#m4b6629d2ce" x="295.2" y="154.441342" style="fill-opacity: 0; stroke: #000000"/>
     <use xlink:href="#m4b6629d2ce" x="295.2" y="148.657991" style="fill-opacity: 0; stroke: #000000"/>
     <use xlink:href="#m4b6629d2ce" x="295.2" y="130.764277" style="fill-opacity: 0; stroke: #000000"/>
    </g>
   </g>
   <g id="line2d_14">
    <path d="M 250.56 225.031984 
L 339.84 225.031984 
" clip-path="url(#p81ebdaa034)" style="fill: none; stroke: #ff7f0e"/>
   </g>
   <g id="patch_4">
    <path d="M 72 384.48 
L 72 51.84 
" style="fill: none; stroke: #000000; stroke-width: 0.8; stroke-linejoin: miter; stroke-linecap: square"/>
   </g>
   <g id="patch_5">
    <path d="M 518.4 384.48 
L 518.4 51.84 
" style="fill: none; stroke: #000000; stroke-width: 0.8; stroke-linejoin: miter; stroke-linecap: square"/>
   </g>
   <g id="patch_6">
    <path d="M 72 384.48 
L 518.4 384.48 
" style="fill: none; stroke: #000000; stroke-width: 0.8; stroke-linejoin: miter; stroke-linecap: square"/>
   </g>
   <g id="patch_7">
    <path d="M 72 51.84 
L 518.4 51.84 
" style="fill: none; stroke: #000000; stroke-width: 0.8; stroke-linejoin: miter; stroke-linecap: square"/>
   </g>
   <g id="text_10">
    <!-- Test Method -->
    <g transform="translate(258.975 45.84) scale(0.12 -0.12)">
     <defs>
      <path id="DejaVuSans-74" d="M 1172 4494 
L 1172 3500 
L 2356 3500 
L 2356 3053 
L 1172 3053 
L 1172 1153 
Q 1172 725 1289 603 
Q 1406 481 1766 481 
L 2356 481 
L 2356 0 
L 1766 0 
Q 1100 0 847 248 
Q 594 497 594 1153 
L 594 3053 
L 172 3053 
L 172 3500 
L 594 3500 
L 594 4494 
L 1172 4494 
z
" transform="scale(0.015625)"/>
      <path id="DejaVuSans-4d" d="M 628 4666 
L 1569 4666 
L 2759 1491 
L 3956 4666 
L 4897 4666 
L 4897 0 
L 4281 0 
L 4281 4097 
L 3078 897 
L 2444 897 
L 1241 4097 
L 1241 0 
L 628 0 
L 628 4666 
z
" transform="scale(0.015625)"/>
      <path id="DejaVuSans-68" d="M 3513 2113 
L 3513 0 
L 2938 0 
L 2938 2094 
Q 2938 2591 2744 2837 
Q 2550 3084 2163 3084 
Q 1697 3084 1428 2787 
Q 1159 2491 1159 1978 
L 1159 0 
L 581 0 
L 581 4863 
L 1159 4863 
L 1159 2956 
Q 1366 3272 1645 3428 
Q 1925 3584 2291 3584 
Q 2894 3584 3203 3211 
Q 3513 2838 3513 2113 
z
" transform="scale(0.015625)"/>
      <path id="DejaVuSans-6f" d="M 1959 3097 
Q 1497 3097 1228 2736 
Q 959 2375 959 1747 
Q 959 1119 1226 758 
Q 1494 397 1959 397 
Q 2419 397 2687 759 
Q 2956 1122 2956 1747 
Q 2956 2369 2687 2733 
Q 2419 3097 1959 3097 
z
M 1959 3584 
Q 2709 3584 3137 3096 
Q 3566 2609 3566 1747 
Q 3566 888 3137 398 
Q 2709 -91 1959 -91 
Q 1206 -91 779 398 
Q 353 888 353 1747 
Q 353 2609 779 3096 
Q 1206 3584 1959 3584 
z
" transform="scale(0.015625)"/>
      <path id="DejaVuSans-64" d="M 2906 2969 
L 2906 4863 
L 3481 4863 
L 3481 0 
L 2906 0 
L 2906 525 
Q 2725 213 2448 61 
Q 2172 -91 1784 -91 
Q 1150 -91 751 415 
Q 353 922 353 1747 
Q 353 2572 751 3078 
Q 1150 3584 1784 3584 
Q 2172 3584 2448 3432 
Q 2725 3281 2906 2969 
z
M 947 1747 
Q 947 1113 1208 752 
Q 1469 391 1925 391 
Q 2381 391 2643 752 
Q 2906 1113 2906 1747 
Q 2906 2381 2643 2742 
Q 2381 3103 1925 3103 
Q 1469 3103 1208 2742 
Q 947 2381 947 1747 
z
" transform="scale(0.015625)"/>
     </defs>
     <use xlink:href="#DejaVuSans-54"/>
     <use xlink:href="#DejaVuSans-65" transform="translate(44.083984 0)"/>
     <use xlink:href="#DejaVuSans-73" transform="translate(105.607422 0)"/>
     <use xlink:href="#DejaVuSans-74" transform="translate(157.707031 0)"/>
     <use xlink:href="#DejaVuSans-20" transform="translate(196.916016 0)"/>
     <use xlink:href="#DejaVuSans-4d" transform="translate(228.703125 0)"/>
     <use xlink:href="#DejaVuSans-65" transform="translate(314.982422 0)"/>
     <use xlink:href="#DejaVuSans-74" transform="translate(376.505859 0)"/>
     <use xlink:href="#DejaVuSans-68" transform="translate(415.714844 0)"/>
     <use xlink:href="#DejaVuSans-6f" transform="translate(479.09375 0)"/>
     <use xlink:href="#DejaVuSans-64" transform="translate(540.275391 0)"/>
    </g>
   </g>
  </g>
 </g>
 <defs>
  <clipPath id="p81ebdaa034">
   <rect x="72" y="51.84" width="446.4" height="332.64"/>
  </clipPath>
 </defs>
</svg>
